<?xml version="1.0" encoding="us-ascii" standalone="no"?><svg xmlns="http://www.w3.org/2000/svg" xmlns:xlink="http://www.w3.org/1999/xlink" contentStyleType="text/css" height="697px" preserveAspectRatio="none" style="width:777px;height:697px;background:#FFFFFF;" version="1.1" viewBox="0 0 777 697" width="777px" zoomAndPan="magnify"><defs/><g><!--class ChannelData--><g id="elem_ChannelData"><rect codeLine="3" fill="#F1F1F1" height="48" id="ChannelData" rx="2.5" ry="2.5" style="stroke:#181818;stroke-width:0.5;" width="113" x="345" y="115"/><ellipse cx="360" cy="131" fill="#ADD1B2" rx="11" ry="11" style="stroke:#181818;stroke-width:1.0;"/><path d="M360.0469,137.2031 C361.5469,137.2031 362.7813,136.6406 363.6875,135.5781 L362.3125,134.0625 C361.7656,134.6563 361.1094,135.0469 360.3125,135.0469 C358.6406,135.0469 357.4844,133.7188 357.4844,131.4375 C357.4844,129.2188 358.6406,127.875 360.2031,127.875 C361.0156,127.875 361.6094,128.1875 362.1406,128.6719 L363.5156,127.125 C362.7656,126.3906 361.6094,125.7188 360.2031,125.7188 C357.25,125.7188 354.9219,127.8594 354.9219,131.5313 C354.9219,135.25 357.2969,137.2031 360.0469,137.2031 Z " fill="#000000"/><text fill="#000000" font-family="sans-serif" font-size="14" lengthAdjust="spacing" textLength="81" x="374" y="135.7852">ChannelData</text><line style="stroke:#181818;stroke-width:0.5;" x1="346" x2="457" y1="147" y2="147"/><line style="stroke:#181818;stroke-width:0.5;" x1="346" x2="457" y1="155" y2="155"/></g><!--class MeasureData--><g id="elem_MeasureData"><rect fill="#F1F1F1" height="48" id="MeasureData" rx="2.5" ry="2.5" style="stroke:#181818;stroke-width:0.5;" width="116" x="237.5" y="7"/><ellipse cx="252.5" cy="23" fill="#ADD1B2" rx="11" ry="11" style="stroke:#181818;stroke-width:1.0;"/><path d="M252.5469,29.2031 C254.0469,29.2031 255.2813,28.6406 256.1875,27.5781 L254.8125,26.0625 C254.2656,26.6563 253.6094,27.0469 252.8125,27.0469 C251.1406,27.0469 249.9844,25.7188 249.9844,23.4375 C249.9844,21.2188 251.1406,19.875 252.7031,19.875 C253.5156,19.875 254.1094,20.1875 254.6406,20.6719 L256.0156,19.125 C255.2656,18.3906 254.1094,17.7188 252.7031,17.7188 C249.75,17.7188 247.4219,19.8594 247.4219,23.5313 C247.4219,27.25 249.7969,29.2031 252.5469,29.2031 Z " fill="#000000"/><text fill="#000000" font-family="sans-serif" font-size="14" lengthAdjust="spacing" textLength="84" x="266.5" y="27.7852">MeasureData</text><line style="stroke:#181818;stroke-width:0.5;" x1="238.5" x2="352.5" y1="39" y2="39"/><line style="stroke:#181818;stroke-width:0.5;" x1="238.5" x2="352.5" y1="47" y2="47"/></g><!--class AreaChannelData--><g id="elem_AreaChannelData"><rect codeLine="5" fill="#F1F1F1" height="48" id="AreaChannelData" rx="2.5" ry="2.5" style="stroke:#181818;stroke-width:0.5;" width="142" x="382.5" y="223"/><ellipse cx="397.5" cy="239" fill="#ADD1B2" rx="11" ry="11" style="stroke:#181818;stroke-width:1.0;"/><path d="M397.5469,245.2031 C399.0469,245.2031 400.2813,244.6406 401.1875,243.5781 L399.8125,242.0625 C399.2656,242.6563 398.6094,243.0469 397.8125,243.0469 C396.1406,243.0469 394.9844,241.7188 394.9844,239.4375 C394.9844,237.2188 396.1406,235.875 397.7031,235.875 C398.5156,235.875 399.1094,236.1875 399.6406,236.6719 L401.0156,235.125 C400.2656,234.3906 399.1094,233.7188 397.7031,233.7188 C394.75,233.7188 392.4219,235.8594 392.4219,239.5313 C392.4219,243.25 394.7969,245.2031 397.5469,245.2031 Z " fill="#000000"/><text fill="#000000" font-family="sans-serif" font-size="14" lengthAdjust="spacing" textLength="110" x="411.5" y="243.7852">AreaChannelData</text><line style="stroke:#181818;stroke-width:0.5;" x1="383.5" x2="523.5" y1="255" y2="255"/><line style="stroke:#181818;stroke-width:0.5;" x1="383.5" x2="523.5" y1="263" y2="263"/></g><!--class SampleCameraData--><g id="elem_SampleCameraData"><rect codeLine="7" fill="#F1F1F1" height="80.8125" id="SampleCameraData" rx="2.5" ry="2.5" style="stroke:#181818;stroke-width:0.5;" width="157" x="613" y="470.5"/><ellipse cx="628" cy="486.5" fill="#ADD1B2" rx="11" ry="11" style="stroke:#181818;stroke-width:1.0;"/><path d="M628.0469,492.7031 C629.5469,492.7031 630.7813,492.1406 631.6875,491.0781 L630.3125,489.5625 C629.7656,490.1563 629.1094,490.5469 628.3125,490.5469 C626.6406,490.5469 625.4844,489.2188 625.4844,486.9375 C625.4844,484.7188 626.6406,483.375 628.2031,483.375 C629.0156,483.375 629.6094,483.6875 630.1406,484.1719 L631.5156,482.625 C630.7656,481.8906 629.6094,481.2188 628.2031,481.2188 C625.25,481.2188 622.9219,483.3594 622.9219,487.0313 C622.9219,490.75 625.2969,492.7031 628.0469,492.7031 Z " fill="#000000"/><text fill="#000000" font-family="sans-serif" font-size="14" lengthAdjust="spacing" textLength="125" x="642" y="491.2852">SampleCameraData</text><line style="stroke:#181818;stroke-width:0.5;" x1="614" x2="769" y1="502.5" y2="502.5"/><text fill="#000000" font-family="sans-serif" font-size="14" lengthAdjust="spacing" textLength="73" x="619" y="519.4883">beam_x : int</text><text fill="#000000" font-family="sans-serif" font-size="14" lengthAdjust="spacing" textLength="73" x="619" y="535.8945">beam_y : int</text><line style="stroke:#181818;stroke-width:0.5;" x1="614" x2="769" y1="543.3125" y2="543.3125"/></g><!--class ScientificCameraData--><g id="elem_ScientificCameraData"><rect codeLine="20" fill="#F1F1F1" height="113.625" id="ScientificCameraData" rx="2.5" ry="2.5" style="stroke:#181818;stroke-width:0.5;" width="249" x="329" y="454"/><ellipse cx="381.75" cy="470" fill="#ADD1B2" rx="11" ry="11" style="stroke:#181818;stroke-width:1.0;"/><path d="M381.7969,476.2031 C383.2969,476.2031 384.5313,475.6406 385.4375,474.5781 L384.0625,473.0625 C383.5156,473.6563 382.8594,474.0469 382.0625,474.0469 C380.3906,474.0469 379.2344,472.7188 379.2344,470.4375 C379.2344,468.2188 380.3906,466.875 381.9531,466.875 C382.7656,466.875 383.3594,467.1875 383.8906,467.6719 L385.2656,466.125 C384.5156,465.3906 383.3594,464.7188 381.9531,464.7188 C379,464.7188 376.6719,466.8594 376.6719,470.5313 C376.6719,474.25 379.0469,476.2031 381.7969,476.2031 Z " fill="#000000"/><text fill="#000000" font-family="sans-serif" font-size="14" lengthAdjust="spacing" textLength="135" x="402.25" y="474.7852">ScientificCameraData</text><line style="stroke:#181818;stroke-width:0.5;" x1="330" x2="577" y1="486" y2="486"/><text fill="#000000" font-family="sans-serif" font-size="14" lengthAdjust="spacing" textLength="191" x="335" y="502.9883">roi[] : ScientificCameraROIData</text><text fill="#000000" font-family="sans-serif" font-size="14" lengthAdjust="spacing" textLength="195" x="335" y="519.3945">acquire_time : float | np.ndarray</text><text fill="#000000" font-family="sans-serif" font-size="14" lengthAdjust="spacing" textLength="237" x="335" y="535.8008">temperature : np.ndarray(dtype=float)</text><text fill="#000000" font-family="sans-serif" font-size="14" lengthAdjust="spacing" textLength="214" x="335" y="552.207">humidity : np.ndarray(dtype=float)</text><line style="stroke:#181818;stroke-width:0.5;" x1="330" x2="577" y1="559.625" y2="559.625"/></g><!--class ScientificCameraROIData--><g id="elem_ScientificCameraROIData"><rect codeLine="28" fill="#F1F1F1" height="359.7188" id="ScientificCameraROIData" rx="2.5" ry="2.5" style="stroke:#181818;stroke-width:0.5;" width="287" x="7" y="331"/><ellipse cx="67.25" cy="347" fill="#ADD1B2" rx="11" ry="11" style="stroke:#181818;stroke-width:1.0;"/><path d="M67.2969,353.2031 C68.7969,353.2031 70.0313,352.6406 70.9375,351.5781 L69.5625,350.0625 C69.0156,350.6563 68.3594,351.0469 67.5625,351.0469 C65.8906,351.0469 64.7344,349.7188 64.7344,347.4375 C64.7344,345.2188 65.8906,343.875 67.4531,343.875 C68.2656,343.875 68.8594,344.1875 69.3906,344.6719 L70.7656,343.125 C70.0156,342.3906 68.8594,341.7188 67.4531,341.7188 C64.5,341.7188 62.1719,343.8594 62.1719,347.5313 C62.1719,351.25 64.5469,353.2031 67.2969,353.2031 Z " fill="#000000"/><text fill="#000000" font-family="sans-serif" font-size="14" lengthAdjust="spacing" textLength="158" x="87.75" y="351.7852">ScientificCameraROIData</text><line style="stroke:#181818;stroke-width:0.5;" x1="8" x2="293" y1="363" y2="363"/><text fill="#000000" font-family="sans-serif" font-size="14" lengthAdjust="spacing" textLength="74" x="13" y="379.9883">label : string</text><text fill="#000000" font-family="sans-serif" font-size="14" lengthAdjust="spacing" textLength="191" x="13" y="396.3945">marker : np.ndarray(dtype=int)</text><text fill="#000000" font-family="sans-serif" font-size="14" lengthAdjust="spacing" textLength="141" x="13" y="412.8008">background_width : int</text><text fill="#000000" font-family="sans-serif" font-size="14" lengthAdjust="spacing" textLength="222" x="13" y="429.207">min_value : np.ndarray(dtype=float)</text><text fill="#000000" font-family="sans-serif" font-size="14" lengthAdjust="spacing" textLength="196" x="13" y="445.6133">min_x : np.ndarray(dtype=float)</text><text fill="#000000" font-family="sans-serif" font-size="14" lengthAdjust="spacing" textLength="196" x="13" y="462.0195">min_y : np.ndarray(dtype=float)</text><text fill="#000000" font-family="sans-serif" font-size="14" lengthAdjust="spacing" textLength="226" x="13" y="478.4258">max_value : np.ndarray(dtype=float)</text><text fill="#000000" font-family="sans-serif" font-size="14" lengthAdjust="spacing" textLength="200" x="13" y="494.832">max_x : np.ndarray(dtype=float)</text><text fill="#000000" font-family="sans-serif" font-size="14" lengthAdjust="spacing" textLength="200" x="13" y="511.2383">max_y : np.ndarray(dtype=float)</text><text fill="#000000" font-family="sans-serif" font-size="14" lengthAdjust="spacing" textLength="195" x="13" y="527.6445">mean : np.ndarray(dtype=float)</text><text fill="#000000" font-family="sans-serif" font-size="14" lengthAdjust="spacing" textLength="189" x="13" y="544.0508">total : np.ndarray(dtype=float)</text><text fill="#000000" font-family="sans-serif" font-size="14" lengthAdjust="spacing" textLength="180" x="13" y="560.457">net : np.ndarray(dtype=float)</text><text fill="#000000" font-family="sans-serif" font-size="14" lengthAdjust="spacing" textLength="198" x="13" y="576.8633">sigma : np.ndarray(dtype=float)</text><text fill="#000000" font-family="sans-serif" font-size="14" lengthAdjust="spacing" textLength="154" x="13" y="593.2695">centroid_threshold : float</text><text fill="#000000" font-family="sans-serif" font-size="14" lengthAdjust="spacing" textLength="224" x="13" y="609.6758">centroid_x : np.ndarray(dtype=float)</text><text fill="#000000" font-family="sans-serif" font-size="14" lengthAdjust="spacing" textLength="224" x="13" y="626.082">centroid_y : np.ndarray(dtype=float)</text><text fill="#000000" font-family="sans-serif" font-size="14" lengthAdjust="spacing" textLength="268" x="13" y="642.4883">centroid_sigma_x : np.ndarray(dtype=float)</text><text fill="#000000" font-family="sans-serif" font-size="14" lengthAdjust="spacing" textLength="268" x="13" y="658.8945">centroid_sigma_y : np.ndarray(dtype=float)</text><text fill="#000000" font-family="sans-serif" font-size="14" lengthAdjust="spacing" textLength="275" x="13" y="675.3008">centroid_sigma_xy : np.ndarray(dtype=float)</text><line style="stroke:#181818;stroke-width:0.5;" x1="8" x2="293" y1="682.7188" y2="682.7188"/></g><!--reverse link MeasureData to ChannelData--><g id="link_MeasureData_ChannelData"><path d="M331.2279,67.7279 C348.8879,85.3879 360.44,96.94 378.18,114.68 " fill="none" id="MeasureData-backto-ChannelData" style="stroke:#181818;stroke-width:1.0;"/><polygon fill="none" points="318.5,55,326.9853,71.9706,335.4706,63.4853,318.5,55" style="stroke:#181818;stroke-width:1.0;"/></g><!--reverse link ChannelData to AreaChannelData--><g id="link_ChannelData_AreaChannelData"><path d="M420.7125,179.1578 C429.3825,196.8178 433.36,204.94 442.06,222.68 " fill="none" id="ChannelData-backto-AreaChannelData" style="stroke:#181818;stroke-width:1.0;"/><polygon fill="none" points="412.78,163,415.3266,181.802,426.0985,176.5136,412.78,163" style="stroke:#181818;stroke-width:1.0;"/></g><!--reverse link AreaChannelData to SampleCameraData--><g id="link_AreaChannelData_SampleCameraData"><path d="M532.5691,278.555 C559.4691,290.815 573.35,300.59 595.5,323 C637.19,365.18 664.63,429.16 679.12,470.26 " fill="none" id="AreaChannelData-backto-SampleCameraData" style="stroke:#181818;stroke-width:1.0;"/><polygon fill="none" points="516.19,271.09,530.0808,284.0147,535.0574,273.0953,516.19,271.09" style="stroke:#181818;stroke-width:1.0;"/></g><!--reverse link AreaChannelData to ScientificCameraData--><g id="link_AreaChannelData_ScientificCameraData"><path d="M453.5,289.25 C453.5,329.89 453.5,396.92 453.5,453.75 " fill="none" id="AreaChannelData-backto-ScientificCameraData" style="stroke:#181818;stroke-width:1.0;"/><polygon fill="none" points="453.5,271.25,447.5,289.25,459.5,289.25,453.5,271.25" style="stroke:#181818;stroke-width:1.0;"/></g><!--link ScientificCameraROIData to ScientificCameraData--><!--link ScientificCameraROIData to ScientificCameraData--><g id="link_ScientificCameraROIData_ScientificCameraData"><path codeLine="25" d="M294.01,511 C305.64,511 305.27,511 316.9,511 " fill="none" id="ScientificCameraROIData-to-ScientificCameraData-1" style="stroke:#181818;stroke-width:1.0;"/><polygon fill="#181818" points="328.9,511,322.9,507,316.9,511,322.9,515,328.9,511" style="stroke:#181818;stroke-width:1.0;"/><text fill="#000000" font-family="sans-serif" font-size="13" lengthAdjust="spacing" textLength="20" x="301.9254" y="507.6871">0..n</text></g><!--link ScientificCameraROIData to ScientificCameraData--><!--reverse link MeasureData to ScientificCameraROIData--><g id="link_MeasureData_ScientificCameraROIData"><path d="M283.2837,72.2746 C268.2037,121.9746 236.66,225.97 204.86,330.79 " fill="none" id="MeasureData-backto-ScientificCameraROIData" style="stroke:#181818;stroke-width:1.0;"/><polygon fill="none" points="288.51,55.05,277.5422,70.5325,289.0252,74.0167,288.51,55.05" style="stroke:#181818;stroke-width:1.0;"/></g><!--SRC=[dPHDRuCm38Rl_8gebtr8fJjNsgIfk-mmJTgELOLSuaBK9B1WDb3N_xwK5begIiEunNdUDxRZS1CJfTbqCaabQCgLzCD4JK89MJRc0Y83olEg9Pl5e3NA5o1WM11gdh4tX2mtk8lLsBD1w49FOZNw2IgLE0E51bhikSV6O_PR8gYWO5CcD1q3vI6mRLn3WPh4IeJEpYOHyuNrEPT-lBzM-UuO2BzoOJ0WeT2YAva0iL-cKrzpC0RAYjgi14g-POGgjGPacsFX8tJBgKpniLBVjHHnhWGNLFRWjaHA8gGOpI7nonNtRDTLMRiBMsmyZmNdg1TFtUQNTAC7tzSZDhuV9hjsdDTRIDSq7lfJDrV24gNjR4P6wAYrfS2iRJyxkcwdQdz5ImZNaKbopOCVmIa-6S76HUZW6sJkUjixlXZ0bgui5CFoi7mnW7NE0q4xefGGI4TM8pcIcOWKN653EqtswVE0OeDPd4XUF-oMLOEvDgeHb4C5LTR3pzdB_djQ_o_d3m00]--></g></svg>