<?xml version="1.0" encoding="us-ascii" standalone="no"?><svg xmlns="http://www.w3.org/2000/svg" xmlns:xlink="http://www.w3.org/1999/xlink" contentStyleType="text/css" height="920.7px" preserveAspectRatio="none" style="width:834px;height:920px;background:#FFFFFF;" version="1.1" viewBox="0 0 834 920" width="834.3px" zoomAndPan="magnify"><defs/><g><!--class Data--><g id="elem_Data"><rect codeLine="3" fill="#F1F1F1" height="102.2625" id="Data" rx="2.25" ry="2.25" style="stroke:#181818;stroke-width:0.45;" width="147.6" x="357.75" y="6.3"/><ellipse cx="414.225" cy="20.7" fill="#ADD1B2" rx="9.9" ry="9.9" style="stroke:#181818;stroke-width:0.9;"/><path d="M414.2672,26.2828 C415.6172,26.2828 416.7281,25.7766 417.5438,24.8203 L416.3063,23.4563 C415.8141,23.9906 415.2234,24.3422 414.5063,24.3422 C413.0016,24.3422 411.9609,23.1469 411.9609,21.0938 C411.9609,19.0969 413.0016,17.8875 414.4078,17.8875 C415.1391,17.8875 415.6734,18.1688 416.1516,18.6047 L417.3891,17.2125 C416.7141,16.5516 415.6734,15.9469 414.4078,15.9469 C411.75,15.9469 409.6547,17.8734 409.6547,21.1781 C409.6547,24.525 411.7922,26.2828 414.2672,26.2828 Z " fill="#000000"/><text fill="#000000" font-family="sans-serif" font-size="12.6" lengthAdjust="spacing" textLength="27" x="432.675" y="25.0066">Data</text><line style="stroke:#181818;stroke-width:0.45;" x1="358.65" x2="504.45" y1="35.1" y2="35.1"/><text fill="#000000" font-family="sans-serif" font-size="12.6" lengthAdjust="spacing" textLength="117.9" x="363.15" y="50.3895">metadata : Metadata</text><text fill="#000000" font-family="sans-serif" font-size="12.6" lengthAdjust="spacing" textLength="101.7" x="363.15" y="65.1551">_data : np.ndarray</text><text fill="#000000" font-family="sans-serif" font-size="12.6" lengthAdjust="spacing" textLength="136.8" x="363.15" y="79.9207">_importer : DataImporter</text><line style="stroke:#181818;stroke-width:0.45;" x1="358.65" x2="504.45" y1="86.5969" y2="86.5969"/><text fill="#000000" font-family="sans-serif" font-size="12.6" lengthAdjust="spacing" textLength="35.1" x="363.15" y="101.8863">data()</text></g><!--class Metadata--><g id="elem_Metadata"><rect codeLine="76" fill="#F1F1F1" height="57.9656" id="Metadata" rx="2.25" ry="2.25" style="stroke:#181818;stroke-width:0.45;" width="83.7" x="549" y="28.8"/><ellipse cx="562.5" cy="43.2" fill="#ADD1B2" rx="9.9" ry="9.9" style="stroke:#181818;stroke-width:0.9;"/><path d="M562.5422,48.7828 C563.8922,48.7828 565.0031,48.2766 565.8188,47.3203 L564.5813,45.9563 C564.0891,46.4906 563.4984,46.8422 562.7813,46.8422 C561.2766,46.8422 560.2359,45.6469 560.2359,43.5938 C560.2359,41.5969 561.2766,40.3875 562.6828,40.3875 C563.4141,40.3875 563.9484,40.6688 564.4266,41.1047 L565.6641,39.7125 C564.9891,39.0516 563.9484,38.4469 562.6828,38.4469 C560.025,38.4469 557.9297,40.3734 557.9297,43.6781 C557.9297,47.025 560.0672,48.7828 562.5422,48.7828 Z " fill="#000000"/><text fill="#000000" font-family="sans-serif" font-size="12.6" lengthAdjust="spacing" textLength="54.9" x="575.1" y="47.5066">Metadata</text><line style="stroke:#181818;stroke-width:0.45;" x1="549.9" x2="631.8" y1="57.6" y2="57.6"/><text fill="#000000" font-family="sans-serif" font-size="12.6" lengthAdjust="spacing" textLength="72" x="554.4" y="72.8895">name : string</text><line style="stroke:#181818;stroke-width:0.45;" x1="549.9" x2="631.8" y1="79.5656" y2="79.5656"/></g><!--class MeasureData--><g id="elem_MeasureData"><rect codeLine="12" fill="#F1F1F1" height="57.9656" id="MeasureData" rx="2.25" ry="2.25" style="stroke:#181818;stroke-width:0.45;" width="194.4" x="310.95" y="177.75"/><ellipse cx="366.525" cy="192.15" fill="#ADD1B2" rx="9.9" ry="9.9" style="stroke:#181818;stroke-width:0.9;"/><path d="M366.5672,197.7328 C367.9172,197.7328 369.0281,197.2266 369.8438,196.2703 L368.6063,194.9063 C368.1141,195.4406 367.5234,195.7922 366.8063,195.7922 C365.3016,195.7922 364.2609,194.5969 364.2609,192.5438 C364.2609,190.5469 365.3016,189.3375 366.7078,189.3375 C367.4391,189.3375 367.9734,189.6188 368.4516,190.0547 L369.6891,188.6625 C369.0141,188.0016 367.9734,187.3969 366.7078,187.3969 C364.05,187.3969 361.9547,189.3234 361.9547,192.6281 C361.9547,195.975 364.0922,197.7328 366.5672,197.7328 Z " fill="#000000"/><text fill="#000000" font-family="sans-serif" font-size="12.6" lengthAdjust="spacing" textLength="75.6" x="384.975" y="196.4566">MeasureData</text><line style="stroke:#181818;stroke-width:0.45;" x1="311.85" x2="504.45" y1="206.55" y2="206.55"/><text fill="#000000" font-family="sans-serif" font-size="12.6" lengthAdjust="spacing" textLength="183.6" x="316.35" y="221.8395">positions : np.ndarray(dtype=int)</text><line style="stroke:#181818;stroke-width:0.45;" x1="311.85" x2="504.45" y1="228.5156" y2="228.5156"/></g><!--class MeasureMetadata--><g id="elem_MeasureMetadata"><rect codeLine="80" fill="#F1F1F1" height="57.9656" id="MeasureMetadata" rx="2.25" ry="2.25" style="stroke:#181818;stroke-width:0.45;" width="132.3" x="537.3" y="177.75"/><ellipse cx="550.8" cy="192.15" fill="#ADD1B2" rx="9.9" ry="9.9" style="stroke:#181818;stroke-width:0.9;"/><path d="M550.8422,197.7328 C552.1922,197.7328 553.3031,197.2266 554.1188,196.2703 L552.8813,194.9063 C552.3891,195.4406 551.7984,195.7922 551.0813,195.7922 C549.5766,195.7922 548.5359,194.5969 548.5359,192.5438 C548.5359,190.5469 549.5766,189.3375 550.9828,189.3375 C551.7141,189.3375 552.2484,189.6188 552.7266,190.0547 L553.9641,188.6625 C553.2891,188.0016 552.2484,187.3969 550.9828,187.3969 C548.325,187.3969 546.2297,189.3234 546.2297,192.6281 C546.2297,195.975 548.3672,197.7328 550.8422,197.7328 Z " fill="#000000"/><text fill="#000000" font-family="sans-serif" font-size="12.6" lengthAdjust="spacing" textLength="103.5" x="563.4" y="196.4566">MeasureMetadata</text><line style="stroke:#181818;stroke-width:0.45;" x1="538.2" x2="668.7" y1="206.55" y2="206.55"/><text fill="#000000" font-family="sans-serif" font-size="12.6" lengthAdjust="spacing" textLength="62.1" x="542.7" y="221.8395">unit : string</text><line style="stroke:#181818;stroke-width:0.45;" x1="538.2" x2="668.7" y1="228.5156" y2="228.5156"/></g><!--class ChannelData--><g id="elem_ChannelData"><rect codeLine="18" fill="#F1F1F1" height="43.2" id="ChannelData" rx="2.25" ry="2.25" style="stroke:#181818;stroke-width:0.45;" width="101.7" x="357.3" y="304.2"/><ellipse cx="370.8" cy="318.6" fill="#ADD1B2" rx="9.9" ry="9.9" style="stroke:#181818;stroke-width:0.9;"/><path d="M370.8422,324.1828 C372.1922,324.1828 373.3031,323.6766 374.1188,322.7203 L372.8813,321.3563 C372.3891,321.8906 371.7984,322.2422 371.0813,322.2422 C369.5766,322.2422 368.5359,321.0469 368.5359,318.9938 C368.5359,316.9969 369.5766,315.7875 370.9828,315.7875 C371.7141,315.7875 372.2484,316.0688 372.7266,316.5047 L373.9641,315.1125 C373.2891,314.4516 372.2484,313.8469 370.9828,313.8469 C368.325,313.8469 366.2297,315.7734 366.2297,319.0781 C366.2297,322.425 368.3672,324.1828 370.8422,324.1828 Z " fill="#000000"/><text fill="#000000" font-family="sans-serif" font-size="12.6" lengthAdjust="spacing" textLength="72.9" x="383.4" y="322.9066">ChannelData</text><line style="stroke:#181818;stroke-width:0.45;" x1="358.2" x2="458.1" y1="333" y2="333"/><line style="stroke:#181818;stroke-width:0.45;" x1="358.2" x2="458.1" y1="340.2" y2="340.2"/></g><!--class ChannelMetadata--><g id="elem_ChannelMetadata"><rect codeLine="90" fill="#F1F1F1" height="43.2" id="ChannelMetadata" rx="2.25" ry="2.25" style="stroke:#181818;stroke-width:0.45;" width="129.6" x="551.25" y="304.2"/><ellipse cx="564.75" cy="318.6" fill="#ADD1B2" rx="9.9" ry="9.9" style="stroke:#181818;stroke-width:0.9;"/><path d="M564.7922,324.1828 C566.1422,324.1828 567.2531,323.6766 568.0688,322.7203 L566.8313,321.3563 C566.3391,321.8906 565.7484,322.2422 565.0313,322.2422 C563.5266,322.2422 562.4859,321.0469 562.4859,318.9938 C562.4859,316.9969 563.5266,315.7875 564.9328,315.7875 C565.6641,315.7875 566.1984,316.0688 566.6766,316.5047 L567.9141,315.1125 C567.2391,314.4516 566.1984,313.8469 564.9328,313.8469 C562.275,313.8469 560.1797,315.7734 560.1797,319.0781 C560.1797,322.425 562.3172,324.1828 564.7922,324.1828 Z " fill="#000000"/><text fill="#000000" font-family="sans-serif" font-size="12.6" lengthAdjust="spacing" textLength="100.8" x="577.35" y="322.9066">ChannelMetadata</text><line style="stroke:#181818;stroke-width:0.45;" x1="552.15" x2="679.95" y1="333" y2="333"/><line style="stroke:#181818;stroke-width:0.45;" x1="552.15" x2="679.95" y1="340.2" y2="340.2"/></g><!--class AreaChannelData--><g id="elem_AreaChannelData"><rect codeLine="22" fill="#F1F1F1" height="102.2625" id="AreaChannelData" rx="2.25" ry="2.25" style="stroke:#181818;stroke-width:0.45;" width="224.1" x="296.1" y="512.1"/><ellipse cx="354.825" cy="526.5" fill="#ADD1B2" rx="9.9" ry="9.9" style="stroke:#181818;stroke-width:0.9;"/><path d="M354.8672,532.0828 C356.2172,532.0828 357.3281,531.5766 358.1438,530.6203 L356.9063,529.2563 C356.4141,529.7906 355.8234,530.1422 355.1063,530.1422 C353.6016,530.1422 352.5609,528.9469 352.5609,526.8938 C352.5609,524.8969 353.6016,523.6875 355.0078,523.6875 C355.7391,523.6875 356.2734,523.9688 356.7516,524.4047 L357.9891,523.0125 C357.3141,522.3516 356.2734,521.7469 355.0078,521.7469 C352.35,521.7469 350.2547,523.6734 350.2547,526.9781 C350.2547,530.325 352.3922,532.0828 354.8672,532.0828 Z " fill="#000000"/><text fill="#000000" font-family="sans-serif" font-size="12.6" lengthAdjust="spacing" textLength="99" x="373.275" y="530.8066">AreaChannelData</text><line style="stroke:#181818;stroke-width:0.45;" x1="297" x2="519.3" y1="540.9" y2="540.9"/><text fill="#000000" font-family="sans-serif" font-size="12.6" lengthAdjust="spacing" textLength="149.4" x="301.5" y="556.1895">roi[] : AreaChannelROIData</text><text fill="#000000" font-family="sans-serif" font-size="12.6" lengthAdjust="spacing" textLength="175.5" x="301.5" y="570.9551">acquire_time : float | np.ndarray</text><text fill="#000000" font-family="sans-serif" font-size="12.6" lengthAdjust="spacing" textLength="213.3" x="301.5" y="585.7207">temperature : np.ndarray(dtype=float)</text><text fill="#000000" font-family="sans-serif" font-size="12.6" lengthAdjust="spacing" textLength="192.6" x="301.5" y="600.4863">humidity : np.ndarray(dtype=float)</text><line style="stroke:#181818;stroke-width:0.45;" x1="297" x2="519.3" y1="607.1625" y2="607.1625"/></g><g id="elem_GMN15"><path d="M269.55,779.4 L269.55,914.7864 A0,0 0 0 0 269.55,914.7864 L561.15,914.7864 A0,0 0 0 0 561.15,914.7864 L561.15,788.4 L552.15,779.4 L417.249,779.4 L409.446,614.988 L410.049,779.4 L269.55,779.4 A0,0 0 0 0 269.55,779.4 " fill="#FEFFDD" style="stroke:#181818;stroke-width:0.45;"/><path d="M552.15,779.4 L552.15,788.4 L561.15,788.4 L552.15,779.4 " fill="#FEFFDD" style="stroke:#181818;stroke-width:0.45;"/><text fill="#000000" font-family="sans-serif" font-size="11.7" lengthAdjust="spacing" textLength="259.2" x="274.95" y="794.7545">acquire_time can be a static or dynamic parameter.</text><text fill="#000000" font-family="sans-serif" font-size="11.7" lengthAdjust="spacing" textLength="2.7" x="274.95" y="808.4654">&#160;</text><text fill="#000000" font-family="sans-serif" font-size="11.7" lengthAdjust="spacing" textLength="124.2" x="274.95" y="823.1723">What about the different</text><text fill="#000000" font-family="monospace" font-size="11.7" lengthAdjust="spacing" textLength="79.2" x="401.85" y="822.8347">temperature</text><text fill="#000000" font-family="sans-serif" font-size="11.7" lengthAdjust="spacing" textLength="63.9" x="483.75" y="823.1723">parameters?</text><text fill="#000000" font-family="sans-serif" font-size="11.7" lengthAdjust="spacing" textLength="41.4" x="274.95" y="837.8793">There is</text><text fill="#000000" font-family="monospace" font-size="11.7" lengthAdjust="spacing" textLength="79.2" x="319.05" y="837.5416">Temperature</text><text fill="#000000" font-family="sans-serif" font-size="11.7" lengthAdjust="spacing" textLength="2.7" x="398.25" y="837.8793">,</text><text fill="#000000" font-family="monospace" font-size="11.7" lengthAdjust="spacing" textLength="122.4" x="403.65" y="837.5416">TemperatureActual</text><text fill="#000000" font-family="sans-serif" font-size="11.7" lengthAdjust="spacing" textLength="2.7" x="526.05" y="837.8793">,</text><text fill="#000000" font-family="monospace" font-size="11.7" lengthAdjust="spacing" textLength="108" x="274.95" y="852.2485">Temperature_RBV</text><text fill="#000000" font-family="sans-serif" font-size="11.7" lengthAdjust="spacing" textLength="79.2" x="385.65" y="852.5862">and sometimes</text><text fill="#000000" font-family="monospace" font-size="11.7" lengthAdjust="spacing" textLength="72" x="467.55" y="852.2485">XXX_Cooler</text><text fill="#000000" font-family="sans-serif" font-size="11.7" lengthAdjust="spacing" textLength="2.7" x="539.55" y="852.5862">.</text><text fill="#000000" font-family="sans-serif" font-size="11.7" lengthAdjust="spacing" textLength="2.7" x="274.95" y="866.2971">&#160;</text><text fill="#000000" font-family="sans-serif" font-size="11.7" lengthAdjust="spacing" textLength="266.4" x="274.95" y="880.008">For Pilatus, there seem to be three temperatures and</text><text fill="#000000" font-family="sans-serif" font-size="11.7" lengthAdjust="spacing" textLength="252.9" x="274.95" y="893.719">three humidity detectors. Are all these values read</text><text fill="#000000" font-family="sans-serif" font-size="11.7" lengthAdjust="spacing" textLength="157.5" x="274.95" y="907.4299">for each PositionCount/image?</text></g><!--class AreaChannelMetadata--><g id="elem_AreaChannelMetadata"><rect codeLine="92" fill="#F1F1F1" height="102.2625" id="AreaChannelMetadata" rx="2.25" ry="2.25" style="stroke:#181818;stroke-width:0.45;" width="155.7" x="551.7" y="512.1"/><ellipse cx="565.2" cy="526.5" fill="#ADD1B2" rx="9.9" ry="9.9" style="stroke:#181818;stroke-width:0.9;"/><path d="M565.2422,532.0828 C566.5922,532.0828 567.7031,531.5766 568.5188,530.6203 L567.2813,529.2563 C566.7891,529.7906 566.1984,530.1422 565.4813,530.1422 C563.9766,530.1422 562.9359,528.9469 562.9359,526.8938 C562.9359,524.8969 563.9766,523.6875 565.3828,523.6875 C566.1141,523.6875 566.6484,523.9688 567.1266,524.4047 L568.3641,523.0125 C567.6891,522.3516 566.6484,521.7469 565.3828,521.7469 C562.725,521.7469 560.6297,523.6734 560.6297,526.9781 C560.6297,530.325 562.7672,532.0828 565.2422,532.0828 Z " fill="#000000"/><text fill="#000000" font-family="sans-serif" font-size="12.6" lengthAdjust="spacing" textLength="126.9" x="577.8" y="530.8066">AreaChannelMetadata</text><line style="stroke:#181818;stroke-width:0.45;" x1="552.6" x2="706.5" y1="540.9" y2="540.9"/><text fill="#000000" font-family="sans-serif" font-size="12.6" lengthAdjust="spacing" textLength="58.5" x="557.1" y="556.1895">gain : float</text><text fill="#000000" font-family="sans-serif" font-size="12.6" lengthAdjust="spacing" textLength="105.3" x="557.1" y="570.9551">reverse_x : boolean</text><text fill="#000000" font-family="sans-serif" font-size="12.6" lengthAdjust="spacing" textLength="105.3" x="557.1" y="585.7207">reverse_y : boolean</text><text fill="#000000" font-family="sans-serif" font-size="12.6" lengthAdjust="spacing" textLength="81" x="557.1" y="600.4863">filetype : string</text><line style="stroke:#181818;stroke-width:0.45;" x1="552.6" x2="706.5" y1="607.1625" y2="607.1625"/></g><!--class AreaChannelROIData--><g id="elem_AreaChannelROIData"><rect codeLine="44" fill="#F1F1F1" height="323.7469" id="AreaChannelROIData" rx="2.25" ry="2.25" style="stroke:#181818;stroke-width:0.45;" width="258.3" x="6.3" y="401.4"/><ellipse cx="71.775" cy="415.8" fill="#ADD1B2" rx="9.9" ry="9.9" style="stroke:#181818;stroke-width:0.9;"/><path d="M71.8172,421.3828 C73.1672,421.3828 74.2781,420.8766 75.0938,419.9203 L73.8563,418.5563 C73.3641,419.0906 72.7734,419.4422 72.0563,419.4422 C70.5516,419.4422 69.5109,418.2469 69.5109,416.1938 C69.5109,414.1969 70.5516,412.9875 71.9578,412.9875 C72.6891,412.9875 73.2234,413.2688 73.7016,413.7047 L74.9391,412.3125 C74.2641,411.6516 73.2234,411.0469 71.9578,411.0469 C69.3,411.0469 67.2047,412.9734 67.2047,416.2781 C67.2047,419.625 69.3422,421.3828 71.8172,421.3828 Z " fill="#000000"/><text fill="#000000" font-family="sans-serif" font-size="12.6" lengthAdjust="spacing" textLength="119.7" x="90.225" y="420.1066">AreaChannelROIData</text><line style="stroke:#181818;stroke-width:0.45;" x1="7.2" x2="263.7" y1="430.2" y2="430.2"/><text fill="#000000" font-family="sans-serif" font-size="12.6" lengthAdjust="spacing" textLength="66.6" x="11.7" y="445.4895">label : string</text><text fill="#000000" font-family="sans-serif" font-size="12.6" lengthAdjust="spacing" textLength="171.9" x="11.7" y="460.2551">marker : np.ndarray(dtype=int)</text><text fill="#000000" font-family="sans-serif" font-size="12.6" lengthAdjust="spacing" textLength="126.9" x="11.7" y="475.0207">background_width : int</text><text fill="#000000" font-family="sans-serif" font-size="12.6" lengthAdjust="spacing" textLength="199.8" x="11.7" y="489.7863">min_value : np.ndarray(dtype=float)</text><text fill="#000000" font-family="sans-serif" font-size="12.6" lengthAdjust="spacing" textLength="176.4" x="11.7" y="504.552">min_x : np.ndarray(dtype=float)</text><text fill="#000000" font-family="sans-serif" font-size="12.6" lengthAdjust="spacing" textLength="176.4" x="11.7" y="519.3176">min_y : np.ndarray(dtype=float)</text><text fill="#000000" font-family="sans-serif" font-size="12.6" lengthAdjust="spacing" textLength="203.4" x="11.7" y="534.0832">max_value : np.ndarray(dtype=float)</text><text fill="#000000" font-family="sans-serif" font-size="12.6" lengthAdjust="spacing" textLength="180" x="11.7" y="548.8488">max_x : np.ndarray(dtype=float)</text><text fill="#000000" font-family="sans-serif" font-size="12.6" lengthAdjust="spacing" textLength="180" x="11.7" y="563.6145">max_y : np.ndarray(dtype=float)</text><text fill="#000000" font-family="sans-serif" font-size="12.6" lengthAdjust="spacing" textLength="175.5" x="11.7" y="578.3801">mean : np.ndarray(dtype=float)</text><text fill="#000000" font-family="sans-serif" font-size="12.6" lengthAdjust="spacing" textLength="170.1" x="11.7" y="593.1457">total : np.ndarray(dtype=float)</text><text fill="#000000" font-family="sans-serif" font-size="12.6" lengthAdjust="spacing" textLength="162" x="11.7" y="607.9113">net : np.ndarray(dtype=float)</text><text fill="#000000" font-family="sans-serif" font-size="12.6" lengthAdjust="spacing" textLength="178.2" x="11.7" y="622.677">sigma : np.ndarray(dtype=float)</text><text fill="#000000" font-family="sans-serif" font-size="12.6" lengthAdjust="spacing" textLength="138.6" x="11.7" y="637.4426">centroid_threshold : float</text><text fill="#000000" font-family="sans-serif" font-size="12.6" lengthAdjust="spacing" textLength="201.6" x="11.7" y="652.2082">centroid_x : np.ndarray(dtype=float)</text><text fill="#000000" font-family="sans-serif" font-size="12.6" lengthAdjust="spacing" textLength="201.6" x="11.7" y="666.9738">centroid_y : np.ndarray(dtype=float)</text><text fill="#000000" font-family="sans-serif" font-size="12.6" lengthAdjust="spacing" textLength="241.2" x="11.7" y="681.7395">centroid_sigma_x : np.ndarray(dtype=float)</text><text fill="#000000" font-family="sans-serif" font-size="12.6" lengthAdjust="spacing" textLength="241.2" x="11.7" y="696.5051">centroid_sigma_y : np.ndarray(dtype=float)</text><text fill="#000000" font-family="sans-serif" font-size="12.6" lengthAdjust="spacing" textLength="247.5" x="11.7" y="711.2707">centroid_sigma_xy : np.ndarray(dtype=float)</text><line style="stroke:#181818;stroke-width:0.45;" x1="7.2" x2="263.7" y1="717.9469" y2="717.9469"/></g><g id="elem_GMN23"><path d="M18.9,794.25 L18.9,899.2266 A0,0 0 0 0 18.9,899.2266 L237.6,899.2266 A0,0 0 0 0 237.6,899.2266 L237.6,803.25 L228.6,794.25 L133.173,794.25 L131.328,725.715 L125.973,794.25 L18.9,794.25 A0,0 0 0 0 18.9,794.25 " fill="#FEFFDD" style="stroke:#181818;stroke-width:0.45;"/><path d="M228.6,794.25 L228.6,803.25 L237.6,803.25 L228.6,794.25 " fill="#FEFFDD" style="stroke:#181818;stroke-width:0.45;"/><text fill="#000000" font-family="sans-serif" font-size="11.7" lengthAdjust="spacing" textLength="199.8" x="24.3" y="809.6045">Marker should be a four-element vector</text><text fill="#000000" font-family="sans-serif" font-size="11.7" lengthAdjust="spacing" textLength="179.1" x="24.3" y="823.3154">with coordinates of the image area.</text><text fill="#000000" font-family="sans-serif" font-size="11.7" lengthAdjust="spacing" textLength="136.8" x="24.3" y="837.0264">Is "marker" the best name?</text><text fill="#000000" font-family="sans-serif" font-size="11.7" lengthAdjust="spacing" textLength="2.7" x="24.3" y="850.7373">&#160;</text><text fill="#000000" font-family="sans-serif" font-size="11.7" lengthAdjust="spacing" textLength="186.3" x="24.3" y="864.4482">What other attributes are relevant for</text><text fill="#000000" font-family="sans-serif" font-size="11.7" lengthAdjust="spacing" textLength="100.8" x="24.3" y="878.1592">Area Channel ROIs?</text><text fill="#000000" font-family="sans-serif" font-size="11.7" lengthAdjust="spacing" textLength="171" x="24.3" y="891.8701">How about binning and reversing?</text></g><!--class DeviceMetadata--><g id="elem_DeviceMetadata"><rect codeLine="84" fill="#F1F1F1" height="87.4969" id="DeviceMetadata" rx="2.25" ry="2.25" style="stroke:#181818;stroke-width:0.45;" width="126.9" x="701.1" y="162.9"/><ellipse cx="719.865" cy="177.3" fill="#B4A7E5" rx="9.9" ry="9.9" style="stroke:#181818;stroke-width:0.9;"/><path d="M716.5041,182.7 L723.4088,182.7 L723.4088,180.8016 L721.0884,180.8016 L721.0884,174.6281 L723.4088,174.6281 L723.4088,172.7297 L716.5041,172.7297 L716.5041,174.6281 L718.8244,174.6281 L718.8244,180.8016 L716.5041,180.8016 L716.5041,182.7 Z " fill="#000000"/><text fill="#000000" font-family="sans-serif" font-size="12.6" font-style="italic" lengthAdjust="spacing" textLength="86.4" x="733.635" y="181.6066">DeviceMetadata</text><line style="stroke:#181818;stroke-width:0.45;" x1="702" x2="827.1" y1="191.7" y2="191.7"/><text fill="#000000" font-family="sans-serif" font-size="12.6" lengthAdjust="spacing" textLength="50.4" x="706.5" y="206.9895">id : string</text><text fill="#000000" font-family="sans-serif" font-size="12.6" lengthAdjust="spacing" textLength="54" x="706.5" y="221.7551">pv : string</text><text fill="#000000" font-family="sans-serif" font-size="12.6" lengthAdjust="spacing" textLength="116.1" x="706.5" y="236.5207">access_mode : string</text><line style="stroke:#181818;stroke-width:0.45;" x1="702" x2="827.1" y1="243.1969" y2="243.1969"/></g><!--reverse link Data to Metadata--><g id="link_Data_Metadata"><path codeLine="10" d="M516.402,57.6 C530.829,57.6 534.456,57.6 548.892,57.6 " fill="none" id="Data-backto-Metadata" style="stroke:#181818;stroke-width:0.9;"/><polygon fill="#181818" points="505.602,57.6,511.002,61.2,516.402,57.6,511.002,54,505.602,57.6" style="stroke:#181818;stroke-width:0.9;"/></g><!--reverse link Data to MeasureData--><g id="link_Data_MeasureData"><path d="M420.9529,125.1423 C417.3079,148.0833 415.674,158.337 412.596,177.66 " fill="none" id="Data-backto-MeasureData" style="stroke:#181818;stroke-width:0.9;"/><polygon fill="none" points="423.495,109.143,415.6198,124.295,426.286,125.9897,423.495,109.143" style="stroke:#181818;stroke-width:0.9;"/></g><!--reverse link MeasureData to MeasureMetadata--><g id="link_MeasureData_MeasureMetadata"><path codeLine="16" d="M516.222,206.55 C526.815,206.55 526.608,206.55 537.201,206.55 " fill="none" id="MeasureData-backto-MeasureMetadata" style="stroke:#181818;stroke-width:0.9;"/><polygon fill="#181818" points="505.422,206.55,510.822,210.15,516.222,206.55,510.822,202.95,505.422,206.55" style="stroke:#181818;stroke-width:0.9;"/></g><!--reverse link MeasureData to ChannelData--><g id="link_MeasureData_ChannelData"><path d="M408.15,251.784 C408.15,272.817 408.15,284.922 408.15,303.984 " fill="none" id="MeasureData-backto-ChannelData" style="stroke:#181818;stroke-width:0.9;"/><polygon fill="none" points="408.15,235.584,402.75,251.784,413.55,251.784,408.15,235.584" style="stroke:#181818;stroke-width:0.9;"/></g><!--reverse link ChannelData to ChannelMetadata--><g id="link_ChannelData_ChannelMetadata"><path codeLine="20" d="M470.115,325.8 C500.724,325.8 520.542,325.8 551.151,325.8 " fill="none" id="ChannelData-backto-ChannelMetadata" style="stroke:#181818;stroke-width:0.9;"/><polygon fill="#181818" points="459.315,325.8,464.715,329.4,470.115,325.8,464.715,322.2,459.315,325.8" style="stroke:#181818;stroke-width:0.9;"/></g><!--reverse link ChannelData to AreaChannelData--><g id="link_ChannelData_AreaChannelData"><path d="M408.15,363.825 C408.15,400.401 408.15,460.728 408.15,511.875 " fill="none" id="ChannelData-backto-AreaChannelData" style="stroke:#181818;stroke-width:0.9;"/><polygon fill="none" points="408.15,347.625,402.75,363.825,413.55,363.825,408.15,347.625" style="stroke:#181818;stroke-width:0.9;"/></g><!--reverse link AreaChannelData to AreaChannelMetadata--><g id="link_AreaChannelData_AreaChannelMetadata"><path codeLine="40" d="M531.378,563.4 C541.737,563.4 541.296,563.4 551.655,563.4 " fill="none" id="AreaChannelData-backto-AreaChannelMetadata" style="stroke:#181818;stroke-width:0.9;"/><polygon fill="#181818" points="520.578,563.4,525.978,567,531.378,563.4,525.978,559.8,520.578,563.4" style="stroke:#181818;stroke-width:0.9;"/></g><!--reverse link AreaChannelROIData to AreaChannelData--><g id="link_AreaChannelROIData_AreaChannelData"><path codeLine="42" d="M275.409,563.4 C285.876,563.4 285.543,563.4 296.01,563.4 " fill="none" id="AreaChannelROIData-backto-AreaChannelData" style="stroke:#181818;stroke-width:0.9;"/><polygon fill="#181818" points="264.609,563.4,270.009,567,275.409,563.4,270.009,559.8,264.609,563.4" style="stroke:#181818;stroke-width:0.9;"/><text fill="#000000" font-family="sans-serif" font-size="11.7" lengthAdjust="spacing" textLength="18" x="271.7328" y="560.4184">0..n</text></g><!--reverse link ChannelData to AreaChannelROIData--><g id="link_ChannelData_AreaChannelROIData"><path d="M350.8157,355.0433 C324.9587,368.5883 306.45,380.133 280.35,401.4 C275.103,405.675 269.874,410.148 264.69,414.765 " fill="none" id="ChannelData-backto-AreaChannelROIData" style="stroke:#181818;stroke-width:0.9;"/><polygon fill="none" points="365.166,347.526,348.31,350.2599,353.3215,359.8267,365.166,347.526" style="stroke:#181818;stroke-width:0.9;"/></g><!--reverse link Metadata to MeasureMetadata--><g id="link_Metadata_MeasureMetadata"><path d="M594.6346,102.667 C596.8756,128.848 598.824,151.578 601.056,177.732 " fill="none" id="Metadata-backto-MeasureMetadata" style="stroke:#181818;stroke-width:0.9;"/><polygon fill="none" points="593.253,86.526,589.2543,103.1275,600.0149,102.2064,593.253,86.526" style="stroke:#181818;stroke-width:0.9;"/></g><!--reverse link MeasureMetadata to ChannelMetadata--><g id="link_MeasureMetadata_ChannelMetadata"><path d="M608.195,251.6914 C610.454,272.7244 611.766,284.922 613.809,303.984 " fill="none" id="MeasureMetadata-backto-ChannelMetadata" style="stroke:#181818;stroke-width:0.9;"/><polygon fill="none" points="606.465,235.584,602.8259,252.268,613.5641,251.1147,606.465,235.584" style="stroke:#181818;stroke-width:0.9;"/></g><!--reverse link DeviceMetadata to ChannelMetadata--><g id="link_DeviceMetadata_ChannelMetadata"><path d="M697.3953,260.5664 C674.3823,278.7734 661.338,289.08 642.609,303.894 " fill="none" id="DeviceMetadata-backto-ChannelMetadata" style="stroke:#181818;stroke-width:0.9;stroke-dasharray:7.0,7.0;"/><polygon fill="none" points="710.1,250.515,694.0449,256.3316,700.7458,264.8013,710.1,250.515" style="stroke:#181818;stroke-width:0.9;"/></g><!--reverse link ChannelMetadata to AreaChannelMetadata--><g id="link_ChannelMetadata_AreaChannelMetadata"><path d="M618.1743,363.7984 C620.2713,400.3744 623.727,460.728 626.652,511.875 " fill="none" id="ChannelMetadata-backto-AreaChannelMetadata" style="stroke:#181818;stroke-width:0.9;"/><polygon fill="none" points="617.247,347.625,612.7831,364.1075,623.5654,363.4894,617.247,347.625" style="stroke:#181818;stroke-width:0.9;"/></g><!--SRC=[dLR1Rjim3BtxAmHVrWvjidE1OUWQ3EkXM54KMu5X26YBZeNAaYVHQOAk_pvATXBR3RQaELdKUoJ5a4zwLnBL_c8whJKOQYezoMqrpJLuVouLB1nKIHANOWO4uZaH_AkGG8RbXRZfFgDztXbDFJ4Id8DrQrPLRHsXuwtWvRfRnir0EJbDNf8a1dX_ldFP1Rv1y8t3k8qhGYC7oJmN2hLy4RNrYfGrVf30YQHrZH-LeHYZxok6YijnnAiIZ44zYDXZ9aaVm6wwvTZDfKFOvwflQy_WhFhvY_FkCUw-NSysTONyTwCSpabLoAX2Mo3nPrpcJI48gneT46UxhnIHVJfWb4sbfABrF-0lYR648hD4jXAs61_kTPuv696X0E49IEN2EY7N1Yh-h87x2ha39ada_IZvF93PXWILAAGg2dHeIAHfxp1fkYFwJv5uNp9EAC_0-pxmR6YupAa1pUP86cpDxpv_PyTWfF2MNNFcmTl3myFyobgDBasx9B_m0MwLPfO_2sboO8zO2RBXc5Gwn7xfVV0PYUtMjiQIyy_9EZy9DHIWTV3cKIn1DqpZkhQyWWCYvAMuxJhxoZQ6fgg21NvAk9D4-4kIPDnct90zqwufNpUNI3zC9YOL8yfiVmzlI7lQU3Y96ZBKt4kUd3ABmLO5xZ7gmFu93T0CyiU5uwFA-PEIL3AOzuPUb9d7QXtOtm6_EWAxFXGBg-FoOFpg2Ep1UI3Fsc5GiWJwGAn1EX3frQA2_s1p7cZMEJaFy-1Bg-L6oWQkjh132xKbh8ybnAoFZzFItXhjhIBRlmzksYdY8ZPSnIYoXMtSEMgiWcmkey14w9FY2SgjTL8P89ONzXeqDgg80FO_YRXhLhrsEDEudw4dmMhDIhEJQ1jaJm3nN6TDSCPyrYkDItuy1BsAq93qHXm4fzrfzLVxr6byfenXOOYYwt39Qiwhlg9jB_xkcT7AIyXcfoele-V15hoxi0VinYWQi5bKq1MGevZXKkKumYivLB1wELn3dgFtyyhAVKcDn7VyYjZQ-MNK_cT-bCKU_NtbR6nl4r-0CeF9QakCiT6pSAU16TZN8tkXD8Qkx1_hBm00]--></g></svg>