<?xml version="1.0" encoding="us-ascii" standalone="no"?><svg xmlns="http://www.w3.org/2000/svg" xmlns:xlink="http://www.w3.org/1999/xlink" contentStyleType="text/css" height="664px" preserveAspectRatio="none" style="width:1055px;height:664px;background:#FFFFFF;" version="1.1" viewBox="0 0 1055 664" width="1055px" zoomAndPan="magnify"><defs/><g><!--class ChannelData--><g id="elem_ChannelData"><rect codeLine="3" fill="#F1F1F1" height="48" id="ChannelData" rx="2.5" ry="2.5" style="stroke:#181818;stroke-width:0.5;" width="113" x="574" y="115"/><ellipse cx="589" cy="131" fill="#ADD1B2" rx="11" ry="11" style="stroke:#181818;stroke-width:1.0;"/><path d="M589.0469,137.2031 C590.5469,137.2031 591.7813,136.6406 592.6875,135.5781 L591.3125,134.0625 C590.7656,134.6563 590.1094,135.0469 589.3125,135.0469 C587.6406,135.0469 586.4844,133.7188 586.4844,131.4375 C586.4844,129.2188 587.6406,127.875 589.2031,127.875 C590.0156,127.875 590.6094,128.1875 591.1406,128.6719 L592.5156,127.125 C591.7656,126.3906 590.6094,125.7188 589.2031,125.7188 C586.25,125.7188 583.9219,127.8594 583.9219,131.5313 C583.9219,135.25 586.2969,137.2031 589.0469,137.2031 Z " fill="#000000"/><text fill="#000000" font-family="sans-serif" font-size="14" lengthAdjust="spacing" textLength="81" x="603" y="135.7852">ChannelData</text><line style="stroke:#181818;stroke-width:0.5;" x1="575" x2="686" y1="147" y2="147"/><line style="stroke:#181818;stroke-width:0.5;" x1="575" x2="686" y1="155" y2="155"/></g><!--class MeasureData--><g id="elem_MeasureData"><rect fill="#F1F1F1" height="48" id="MeasureData" rx="2.5" ry="2.5" style="stroke:#181818;stroke-width:0.5;" width="116" x="377.5" y="7"/><ellipse cx="392.5" cy="23" fill="#ADD1B2" rx="11" ry="11" style="stroke:#181818;stroke-width:1.0;"/><path d="M392.5469,29.2031 C394.0469,29.2031 395.2813,28.6406 396.1875,27.5781 L394.8125,26.0625 C394.2656,26.6563 393.6094,27.0469 392.8125,27.0469 C391.1406,27.0469 389.9844,25.7188 389.9844,23.4375 C389.9844,21.2188 391.1406,19.875 392.7031,19.875 C393.5156,19.875 394.1094,20.1875 394.6406,20.6719 L396.0156,19.125 C395.2656,18.3906 394.1094,17.7188 392.7031,17.7188 C389.75,17.7188 387.4219,19.8594 387.4219,23.5313 C387.4219,27.25 389.7969,29.2031 392.5469,29.2031 Z " fill="#000000"/><text fill="#000000" font-family="sans-serif" font-size="14" lengthAdjust="spacing" textLength="84" x="406.5" y="27.7852">MeasureData</text><line style="stroke:#181818;stroke-width:0.5;" x1="378.5" x2="492.5" y1="39" y2="39"/><line style="stroke:#181818;stroke-width:0.5;" x1="378.5" x2="492.5" y1="47" y2="47"/></g><!--class AreaChannelData--><g id="elem_AreaChannelData"><rect codeLine="5" fill="#F1F1F1" height="48" id="AreaChannelData" rx="2.5" ry="2.5" style="stroke:#181818;stroke-width:0.5;" width="142" x="645.5" y="223"/><ellipse cx="660.5" cy="239" fill="#ADD1B2" rx="11" ry="11" style="stroke:#181818;stroke-width:1.0;"/><path d="M660.5469,245.2031 C662.0469,245.2031 663.2813,244.6406 664.1875,243.5781 L662.8125,242.0625 C662.2656,242.6563 661.6094,243.0469 660.8125,243.0469 C659.1406,243.0469 657.9844,241.7188 657.9844,239.4375 C657.9844,237.2188 659.1406,235.875 660.7031,235.875 C661.5156,235.875 662.1094,236.1875 662.6406,236.6719 L664.0156,235.125 C663.2656,234.3906 662.1094,233.7188 660.7031,233.7188 C657.75,233.7188 655.4219,235.8594 655.4219,239.5313 C655.4219,243.25 657.7969,245.2031 660.5469,245.2031 Z " fill="#000000"/><text fill="#000000" font-family="sans-serif" font-size="14" lengthAdjust="spacing" textLength="110" x="674.5" y="243.7852">AreaChannelData</text><line style="stroke:#181818;stroke-width:0.5;" x1="646.5" x2="786.5" y1="255" y2="255"/><line style="stroke:#181818;stroke-width:0.5;" x1="646.5" x2="786.5" y1="263" y2="263"/></g><!--class SampleCameraData--><g id="elem_SampleCameraData"><rect codeLine="7" fill="#F1F1F1" height="80.8125" id="SampleCameraData" rx="2.5" ry="2.5" style="stroke:#181818;stroke-width:0.5;" width="157" x="891" y="454"/><ellipse cx="906" cy="470" fill="#ADD1B2" rx="11" ry="11" style="stroke:#181818;stroke-width:1.0;"/><path d="M906.0469,476.2031 C907.5469,476.2031 908.7813,475.6406 909.6875,474.5781 L908.3125,473.0625 C907.7656,473.6563 907.1094,474.0469 906.3125,474.0469 C904.6406,474.0469 903.4844,472.7188 903.4844,470.4375 C903.4844,468.2188 904.6406,466.875 906.2031,466.875 C907.0156,466.875 907.6094,467.1875 908.1406,467.6719 L909.5156,466.125 C908.7656,465.3906 907.6094,464.7188 906.2031,464.7188 C903.25,464.7188 900.9219,466.8594 900.9219,470.5313 C900.9219,474.25 903.2969,476.2031 906.0469,476.2031 Z " fill="#000000"/><text fill="#000000" font-family="sans-serif" font-size="14" lengthAdjust="spacing" textLength="125" x="920" y="474.7852">SampleCameraData</text><line style="stroke:#181818;stroke-width:0.5;" x1="892" x2="1047" y1="486" y2="486"/><text fill="#000000" font-family="sans-serif" font-size="14" lengthAdjust="spacing" textLength="73" x="897" y="502.9883">beam_x : int</text><text fill="#000000" font-family="sans-serif" font-size="14" lengthAdjust="spacing" textLength="73" x="897" y="519.3945">beam_y : int</text><line style="stroke:#181818;stroke-width:0.5;" x1="892" x2="1047" y1="526.8125" y2="526.8125"/></g><!--class ScientificCameraData--><g id="elem_ScientificCameraData"><rect codeLine="21" fill="#F1F1F1" height="130.0313" id="ScientificCameraData" rx="2.5" ry="2.5" style="stroke:#181818;stroke-width:0.5;" width="279" x="577" y="429.5"/><ellipse cx="644.75" cy="445.5" fill="#ADD1B2" rx="11" ry="11" style="stroke:#181818;stroke-width:1.0;"/><path d="M644.7969,451.7031 C646.2969,451.7031 647.5313,451.1406 648.4375,450.0781 L647.0625,448.5625 C646.5156,449.1563 645.8594,449.5469 645.0625,449.5469 C643.3906,449.5469 642.2344,448.2188 642.2344,445.9375 C642.2344,443.7188 643.3906,442.375 644.9531,442.375 C645.7656,442.375 646.3594,442.6875 646.8906,443.1719 L648.2656,441.625 C647.5156,440.8906 646.3594,440.2188 644.9531,440.2188 C642,440.2188 639.6719,442.3594 639.6719,446.0313 C639.6719,449.75 642.0469,451.7031 644.7969,451.7031 Z " fill="#000000"/><text fill="#000000" font-family="sans-serif" font-size="14" lengthAdjust="spacing" textLength="135" x="665.25" y="450.2852">ScientificCameraData</text><line style="stroke:#181818;stroke-width:0.5;" x1="578" x2="855" y1="461.5" y2="461.5"/><text fill="#000000" font-family="sans-serif" font-size="14" lengthAdjust="spacing" textLength="191" x="583" y="478.4883">roi[] : ScientificCameraROIData</text><text fill="#000000" font-family="sans-serif" font-size="14" lengthAdjust="spacing" textLength="267" x="583" y="494.8945">statistics[] : ScientificCameraStatisticsData</text><text fill="#000000" font-family="sans-serif" font-size="14" lengthAdjust="spacing" textLength="195" x="583" y="511.3008">acquire_time : float | np.ndarray</text><text fill="#000000" font-family="sans-serif" font-size="14" lengthAdjust="spacing" textLength="237" x="583" y="527.707">temperature : np.ndarray(dtype=float)</text><text fill="#000000" font-family="sans-serif" font-size="14" lengthAdjust="spacing" textLength="214" x="583" y="544.1133">humidity : np.ndarray(dtype=float)</text><line style="stroke:#181818;stroke-width:0.5;" x1="578" x2="855" y1="551.5313" y2="551.5313"/></g><!--class ScientificCameraROIData--><g id="elem_ScientificCameraROIData"><rect codeLine="31" fill="#F1F1F1" height="146.4375" id="ScientificCameraROIData" rx="2.5" ry="2.5" style="stroke:#181818;stroke-width:0.5;" width="212" x="329.5" y="421.5"/><ellipse cx="354.4" cy="437.5" fill="#ADD1B2" rx="11" ry="11" style="stroke:#181818;stroke-width:1.0;"/><path d="M354.4469,443.7031 C355.9469,443.7031 357.1813,443.1406 358.0875,442.0781 L356.7125,440.5625 C356.1656,441.1563 355.5094,441.5469 354.7125,441.5469 C353.0406,441.5469 351.8844,440.2188 351.8844,437.9375 C351.8844,435.7188 353.0406,434.375 354.6031,434.375 C355.4156,434.375 356.0094,434.6875 356.5406,435.1719 L357.9156,433.625 C357.1656,432.8906 356.0094,432.2188 354.6031,432.2188 C351.65,432.2188 349.3219,434.3594 349.3219,438.0313 C349.3219,441.75 351.6969,443.7031 354.4469,443.7031 Z " fill="#000000"/><text fill="#000000" font-family="sans-serif" font-size="14" lengthAdjust="spacing" textLength="158" x="370.6" y="442.2852">ScientificCameraROIData</text><line style="stroke:#181818;stroke-width:0.5;" x1="330.5" x2="540.5" y1="453.5" y2="453.5"/><text fill="#000000" font-family="sans-serif" font-size="14" lengthAdjust="spacing" textLength="74" x="335.5" y="470.4883">label : string</text><text fill="#000000" font-family="sans-serif" font-size="14" lengthAdjust="spacing" textLength="191" x="335.5" y="486.8945">marker : np.ndarray(dtype=int)</text><text fill="#000000" font-family="sans-serif" font-size="14" lengthAdjust="spacing" textLength="196" x="335.5" y="503.3008">min_x : np.ndarray(dtype=float)</text><text fill="#000000" font-family="sans-serif" font-size="14" lengthAdjust="spacing" textLength="196" x="335.5" y="519.707">min_y : np.ndarray(dtype=float)</text><text fill="#000000" font-family="sans-serif" font-size="14" lengthAdjust="spacing" textLength="200" x="335.5" y="536.1133">max_x : np.ndarray(dtype=float)</text><text fill="#000000" font-family="sans-serif" font-size="14" lengthAdjust="spacing" textLength="200" x="335.5" y="552.5195">max_y : np.ndarray(dtype=float)</text><line style="stroke:#181818;stroke-width:0.5;" x1="330.5" x2="540.5" y1="559.9375" y2="559.9375"/></g><!--class ScientificCameraStatisticsData--><g id="elem_ScientificCameraStatisticsData"><rect codeLine="40" fill="#F1F1F1" height="326.9063" id="ScientificCameraStatisticsData" rx="2.5" ry="2.5" style="stroke:#181818;stroke-width:0.5;" width="287" x="7" y="331"/><ellipse cx="49.9" cy="347" fill="#ADD1B2" rx="11" ry="11" style="stroke:#181818;stroke-width:1.0;"/><path d="M49.9469,353.2031 C51.4469,353.2031 52.6813,352.6406 53.5875,351.5781 L52.2125,350.0625 C51.6656,350.6563 51.0094,351.0469 50.2125,351.0469 C48.5406,351.0469 47.3844,349.7188 47.3844,347.4375 C47.3844,345.2188 48.5406,343.875 50.1031,343.875 C50.9156,343.875 51.5094,344.1875 52.0406,344.6719 L53.4156,343.125 C52.6656,342.3906 51.5094,341.7188 50.1031,341.7188 C47.15,341.7188 44.8219,343.8594 44.8219,347.5313 C44.8219,351.25 47.1969,353.2031 49.9469,353.2031 Z " fill="#000000"/><text fill="#000000" font-family="sans-serif" font-size="14" lengthAdjust="spacing" textLength="193" x="70.1" y="351.7852">ScientificCameraStatisticsData</text><line style="stroke:#181818;stroke-width:0.5;" x1="8" x2="293" y1="363" y2="363"/><text fill="#000000" font-family="sans-serif" font-size="14" lengthAdjust="spacing" textLength="141" x="13" y="379.9883">background_width : int</text><text fill="#000000" font-family="sans-serif" font-size="14" lengthAdjust="spacing" textLength="222" x="13" y="396.3945">min_value : np.ndarray(dtype=float)</text><text fill="#000000" font-family="sans-serif" font-size="14" lengthAdjust="spacing" textLength="196" x="13" y="412.8008">min_x : np.ndarray(dtype=float)</text><text fill="#000000" font-family="sans-serif" font-size="14" lengthAdjust="spacing" textLength="196" x="13" y="429.207">min_y : np.ndarray(dtype=float)</text><text fill="#000000" font-family="sans-serif" font-size="14" lengthAdjust="spacing" textLength="226" x="13" y="445.6133">max_value : np.ndarray(dtype=float)</text><text fill="#000000" font-family="sans-serif" font-size="14" lengthAdjust="spacing" textLength="200" x="13" y="462.0195">max_x : np.ndarray(dtype=float)</text><text fill="#000000" font-family="sans-serif" font-size="14" lengthAdjust="spacing" textLength="200" x="13" y="478.4258">max_y : np.ndarray(dtype=float)</text><text fill="#000000" font-family="sans-serif" font-size="14" lengthAdjust="spacing" textLength="195" x="13" y="494.832">mean : np.ndarray(dtype=float)</text><text fill="#000000" font-family="sans-serif" font-size="14" lengthAdjust="spacing" textLength="189" x="13" y="511.2383">total : np.ndarray(dtype=float)</text><text fill="#000000" font-family="sans-serif" font-size="14" lengthAdjust="spacing" textLength="180" x="13" y="527.6445">net : np.ndarray(dtype=float)</text><text fill="#000000" font-family="sans-serif" font-size="14" lengthAdjust="spacing" textLength="198" x="13" y="544.0508">sigma : np.ndarray(dtype=float)</text><text fill="#000000" font-family="sans-serif" font-size="14" lengthAdjust="spacing" textLength="154" x="13" y="560.457">centroid_threshold : float</text><text fill="#000000" font-family="sans-serif" font-size="14" lengthAdjust="spacing" textLength="224" x="13" y="576.8633">centroid_x : np.ndarray(dtype=float)</text><text fill="#000000" font-family="sans-serif" font-size="14" lengthAdjust="spacing" textLength="224" x="13" y="593.2695">centroid_y : np.ndarray(dtype=float)</text><text fill="#000000" font-family="sans-serif" font-size="14" lengthAdjust="spacing" textLength="268" x="13" y="609.6758">centroid_sigma_x : np.ndarray(dtype=float)</text><text fill="#000000" font-family="sans-serif" font-size="14" lengthAdjust="spacing" textLength="268" x="13" y="626.082">centroid_sigma_y : np.ndarray(dtype=float)</text><text fill="#000000" font-family="sans-serif" font-size="14" lengthAdjust="spacing" textLength="275" x="13" y="642.4883">centroid_sigma_xy : np.ndarray(dtype=float)</text><line style="stroke:#181818;stroke-width:0.5;" x1="8" x2="293" y1="649.9063" y2="649.9063"/></g><!--reverse link MeasureData to ChannelData--><g id="link_MeasureData_ChannelData"><path d="M493.6247,63.5962 C526.2247,81.3162 555.27,97.11 587.93,114.86 " fill="none" id="MeasureData-backto-ChannelData" style="stroke:#181818;stroke-width:1.0;"/><polygon fill="none" points="477.81,55,490.7593,68.8678,496.4901,58.3246,477.81,55" style="stroke:#181818;stroke-width:1.0;"/></g><!--reverse link ChannelData to AreaChannelData--><g id="link_ChannelData_AreaChannelData"><path d="M660.5017,176.9773 C674.8317,194.6373 683.19,204.94 697.58,222.68 " fill="none" id="ChannelData-backto-AreaChannelData" style="stroke:#181818;stroke-width:1.0;"/><polygon fill="none" points="649.16,163,655.8426,180.7579,665.1608,173.1967,649.16,163" style="stroke:#181818;stroke-width:1.0;"/></g><!--reverse link AreaChannelData to SampleCameraData--><g id="link_AreaChannelData_SampleCameraData"><path d="M794.5849,278.3988 C825.7949,292.2888 846.28,305.04 873.5,331 C910.25,366.05 937.69,418.23 953.62,453.95 " fill="none" id="AreaChannelData-backto-SampleCameraData" style="stroke:#181818;stroke-width:1.0;"/><polygon fill="none" points="778.14,271.08,792.1453,283.8804,797.0245,272.9172,778.14,271.08" style="stroke:#181818;stroke-width:1.0;"/></g><!--reverse link AreaChannelData to ScientificCameraData--><g id="link_AreaChannelData_ScientificCameraData"><path d="M716.5,289.1 C716.5,324.96 716.5,377.34 716.5,429.36 " fill="none" id="AreaChannelData-backto-ScientificCameraData" style="stroke:#181818;stroke-width:1.0;"/><polygon fill="none" points="716.5,271.1,710.5,289.1,722.5,289.1,716.5,271.1" style="stroke:#181818;stroke-width:1.0;"/></g><!--link ScientificCameraStatisticsData to ScientificCameraROIData--><!--link ScientificCameraStatisticsData to ScientificCameraData--><g id="link_ScientificCameraStatisticsData_ScientificCameraData"><path codeLine="26" d="M281.2,330.83 C296.76,318.95 313.41,308.65 331,301 C416.19,263.97 455.02,263.49 540,301 C599.07,327.07 640.1489,373.846 671.0489,419.156 " fill="none" id="ScientificCameraStatisticsData-to-ScientificCameraData" style="stroke:#181818;stroke-width:1.0;"/><polygon fill="#181818" points="677.81,429.07,677.7341,421.8593,671.0489,419.156,671.1248,426.3667,677.81,429.07" style="stroke:#181818;stroke-width:1.0;"/><text fill="#000000" font-family="sans-serif" font-size="13" lengthAdjust="spacing" textLength="20" x="267.0464" y="319.6074">0..n</text></g><!--link ScientificCameraROIData to ScientificCameraData--><!--link ScientificCameraROIData to ScientificCameraData--><g id="link_ScientificCameraROIData_ScientificCameraData"><path codeLine="28" d="M541.7,494.5 C553.42,494.5 553.14,494.5 564.86,494.5 " fill="none" id="ScientificCameraROIData-to-ScientificCameraData-1" style="stroke:#181818;stroke-width:1.0;"/><polygon fill="#181818" points="576.86,494.5,570.86,490.5,564.86,494.5,570.86,498.5,576.86,494.5" style="stroke:#181818;stroke-width:1.0;"/><text fill="#000000" font-family="sans-serif" font-size="13" lengthAdjust="spacing" textLength="20" x="549.5072" y="491.0498">0..n</text></g><!--link ScientificCameraROIData to ScientificCameraData--><!--reverse link MeasureData to ScientificCameraROIData--><g id="link_MeasureData_ScientificCameraROIData"><path d="M435.5,73.2 C435.5,139.73 435.5,315.2 435.5,421.48 " fill="none" id="MeasureData-backto-ScientificCameraROIData" style="stroke:#181818;stroke-width:1.0;"/><polygon fill="none" points="435.5,55.2,429.5,73.2,441.5,73.2,435.5,55.2" style="stroke:#181818;stroke-width:1.0;"/></g><!--reverse link MeasureData to ScientificCameraStatisticsData--><g id="link_MeasureData_ScientificCameraStatisticsData"><path d="M411.7129,70.5155 C380.7029,120.7355 314.49,227.96 251.02,330.73 " fill="none" id="MeasureData-backto-ScientificCameraStatisticsData" style="stroke:#181818;stroke-width:1.0;"/><polygon fill="none" points="421.17,55.2,406.6078,67.3631,416.8181,73.6678,421.17,55.2" style="stroke:#181818;stroke-width:1.0;"/></g><!--SRC=[jPJDRi8m48JlF8NLItyae6UaLghefOUgKZaYX9PuILROJcflMYBAkzUa910KGgXARh6_6TkpQrz7p8aRzFk90iEfLhqWrlr0WNDTIH1Qq9rE_Yk64HY3wXaO12uPZNJY5S6b5ZTZ1VPa4UhGlR427O5E50v1euKAU-YnwWZ_pH3qT2a6WWpl1hBjmBfq3GWDqvo2riusfl74-nnAtzzUylrk6CV0v9W2LukEokbI0S57IXQdJ1gzOgvYOF4jJD8p4go5BATMSq8bru9H9zw7VPmUta4tahC47tBrRKKHfPeaSTQ0-r0u3f4ZjDkZ7i-eORh8mTirdrjqnn59YMRoUDJaXCFLVQzdhaJthdwJHroR5cxKNMYvJcEGTVTdMv-Yk0fcg7nb7LioOMLAWrtuUjPKtT-3QejeClcDQTDE6pPhoyAolQzdJ_HeVLW7ZN4yina4Yz36gP7JBv8SxJqH-uVx19NY6M5SAhYpzl6FGLTO1DCIvPX1jMGDSalIKQZX11luTl1FivnoPD55iPB5CrgnAh6sGPM2x5n1lklpr_cL_NMrvilp0m00]--></g></svg>