<?xml version="1.0" encoding="us-ascii" standalone="no"?><svg xmlns="http://www.w3.org/2000/svg" xmlns:xlink="http://www.w3.org/1999/xlink" contentStyleType="text/css" height="664px" preserveAspectRatio="none" style="width:1045px;height:664px;background:#FFFFFF;" version="1.1" viewBox="0 0 1045 664" width="1045px" zoomAndPan="magnify"><defs/><g><!--class ChannelData--><g id="elem_ChannelData"><rect codeLine="3" fill="#F1F1F1" height="48" id="ChannelData" rx="2.5" ry="2.5" style="stroke:#181818;stroke-width:0.5;" width="113" x="567" y="115"/><ellipse cx="582" cy="131" fill="#ADD1B2" rx="11" ry="11" style="stroke:#181818;stroke-width:1.0;"/><path d="M582.0469,137.2031 C583.5469,137.2031 584.7813,136.6406 585.6875,135.5781 L584.3125,134.0625 C583.7656,134.6563 583.1094,135.0469 582.3125,135.0469 C580.6406,135.0469 579.4844,133.7188 579.4844,131.4375 C579.4844,129.2188 580.6406,127.875 582.2031,127.875 C583.0156,127.875 583.6094,128.1875 584.1406,128.6719 L585.5156,127.125 C584.7656,126.3906 583.6094,125.7188 582.2031,125.7188 C579.25,125.7188 576.9219,127.8594 576.9219,131.5313 C576.9219,135.25 579.2969,137.2031 582.0469,137.2031 Z " fill="#000000"/><text fill="#000000" font-family="sans-serif" font-size="14" lengthAdjust="spacing" textLength="81" x="596" y="135.7852">ChannelData</text><line style="stroke:#181818;stroke-width:0.5;" x1="568" x2="679" y1="147" y2="147"/><line style="stroke:#181818;stroke-width:0.5;" x1="568" x2="679" y1="155" y2="155"/></g><!--class MeasureData--><g id="elem_MeasureData"><rect fill="#F1F1F1" height="48" id="MeasureData" rx="2.5" ry="2.5" style="stroke:#181818;stroke-width:0.5;" width="116" x="372.5" y="7"/><ellipse cx="387.5" cy="23" fill="#ADD1B2" rx="11" ry="11" style="stroke:#181818;stroke-width:1.0;"/><path d="M387.5469,29.2031 C389.0469,29.2031 390.2813,28.6406 391.1875,27.5781 L389.8125,26.0625 C389.2656,26.6563 388.6094,27.0469 387.8125,27.0469 C386.1406,27.0469 384.9844,25.7188 384.9844,23.4375 C384.9844,21.2188 386.1406,19.875 387.7031,19.875 C388.5156,19.875 389.1094,20.1875 389.6406,20.6719 L391.0156,19.125 C390.2656,18.3906 389.1094,17.7188 387.7031,17.7188 C384.75,17.7188 382.4219,19.8594 382.4219,23.5313 C382.4219,27.25 384.7969,29.2031 387.5469,29.2031 Z " fill="#000000"/><text fill="#000000" font-family="sans-serif" font-size="14" lengthAdjust="spacing" textLength="84" x="401.5" y="27.7852">MeasureData</text><line style="stroke:#181818;stroke-width:0.5;" x1="373.5" x2="487.5" y1="39" y2="39"/><line style="stroke:#181818;stroke-width:0.5;" x1="373.5" x2="487.5" y1="47" y2="47"/></g><!--class AreaChannelData--><g id="elem_AreaChannelData"><rect codeLine="5" fill="#F1F1F1" height="48" id="AreaChannelData" rx="2.5" ry="2.5" style="stroke:#181818;stroke-width:0.5;" width="142" x="635.5" y="223"/><ellipse cx="650.5" cy="239" fill="#ADD1B2" rx="11" ry="11" style="stroke:#181818;stroke-width:1.0;"/><path d="M650.5469,245.2031 C652.0469,245.2031 653.2813,244.6406 654.1875,243.5781 L652.8125,242.0625 C652.2656,242.6563 651.6094,243.0469 650.8125,243.0469 C649.1406,243.0469 647.9844,241.7188 647.9844,239.4375 C647.9844,237.2188 649.1406,235.875 650.7031,235.875 C651.5156,235.875 652.1094,236.1875 652.6406,236.6719 L654.0156,235.125 C653.2656,234.3906 652.1094,233.7188 650.7031,233.7188 C647.75,233.7188 645.4219,235.8594 645.4219,239.5313 C645.4219,243.25 647.7969,245.2031 650.5469,245.2031 Z " fill="#000000"/><text fill="#000000" font-family="sans-serif" font-size="14" lengthAdjust="spacing" textLength="110" x="664.5" y="243.7852">AreaChannelData</text><line style="stroke:#181818;stroke-width:0.5;" x1="636.5" x2="776.5" y1="255" y2="255"/><line style="stroke:#181818;stroke-width:0.5;" x1="636.5" x2="776.5" y1="263" y2="263"/></g><!--class SampleCameraData--><g id="elem_SampleCameraData"><rect codeLine="7" fill="#F1F1F1" height="80.8125" id="SampleCameraData" rx="2.5" ry="2.5" style="stroke:#181818;stroke-width:0.5;" width="157" x="881" y="454"/><ellipse cx="896" cy="470" fill="#ADD1B2" rx="11" ry="11" style="stroke:#181818;stroke-width:1.0;"/><path d="M896.0469,476.2031 C897.5469,476.2031 898.7813,475.6406 899.6875,474.5781 L898.3125,473.0625 C897.7656,473.6563 897.1094,474.0469 896.3125,474.0469 C894.6406,474.0469 893.4844,472.7188 893.4844,470.4375 C893.4844,468.2188 894.6406,466.875 896.2031,466.875 C897.0156,466.875 897.6094,467.1875 898.1406,467.6719 L899.5156,466.125 C898.7656,465.3906 897.6094,464.7188 896.2031,464.7188 C893.25,464.7188 890.9219,466.8594 890.9219,470.5313 C890.9219,474.25 893.2969,476.2031 896.0469,476.2031 Z " fill="#000000"/><text fill="#000000" font-family="sans-serif" font-size="14" lengthAdjust="spacing" textLength="125" x="910" y="474.7852">SampleCameraData</text><line style="stroke:#181818;stroke-width:0.5;" x1="882" x2="1037" y1="486" y2="486"/><text fill="#000000" font-family="sans-serif" font-size="14" lengthAdjust="spacing" textLength="73" x="887" y="502.9883">beam_x : int</text><text fill="#000000" font-family="sans-serif" font-size="14" lengthAdjust="spacing" textLength="73" x="887" y="519.3945">beam_y : int</text><line style="stroke:#181818;stroke-width:0.5;" x1="882" x2="1037" y1="526.8125" y2="526.8125"/></g><!--class ScientificCameraData--><g id="elem_ScientificCameraData"><rect codeLine="21" fill="#F1F1F1" height="130.0313" id="ScientificCameraData" rx="2.5" ry="2.5" style="stroke:#181818;stroke-width:0.5;" width="279" x="567" y="429.5"/><ellipse cx="634.75" cy="445.5" fill="#ADD1B2" rx="11" ry="11" style="stroke:#181818;stroke-width:1.0;"/><path d="M634.7969,451.7031 C636.2969,451.7031 637.5313,451.1406 638.4375,450.0781 L637.0625,448.5625 C636.5156,449.1563 635.8594,449.5469 635.0625,449.5469 C633.3906,449.5469 632.2344,448.2188 632.2344,445.9375 C632.2344,443.7188 633.3906,442.375 634.9531,442.375 C635.7656,442.375 636.3594,442.6875 636.8906,443.1719 L638.2656,441.625 C637.5156,440.8906 636.3594,440.2188 634.9531,440.2188 C632,440.2188 629.6719,442.3594 629.6719,446.0313 C629.6719,449.75 632.0469,451.7031 634.7969,451.7031 Z " fill="#000000"/><text fill="#000000" font-family="sans-serif" font-size="14" lengthAdjust="spacing" textLength="135" x="655.25" y="450.2852">ScientificCameraData</text><line style="stroke:#181818;stroke-width:0.5;" x1="568" x2="845" y1="461.5" y2="461.5"/><text fill="#000000" font-family="sans-serif" font-size="14" lengthAdjust="spacing" textLength="191" x="573" y="478.4883">roi[] : ScientificCameraROIData</text><text fill="#000000" font-family="sans-serif" font-size="14" lengthAdjust="spacing" textLength="267" x="573" y="494.8945">statistics[] : ScientificCameraStatisticsData</text><text fill="#000000" font-family="sans-serif" font-size="14" lengthAdjust="spacing" textLength="195" x="573" y="511.3008">acquire_time : float | np.ndarray</text><text fill="#000000" font-family="sans-serif" font-size="14" lengthAdjust="spacing" textLength="237" x="573" y="527.707">temperature : np.ndarray(dtype=float)</text><text fill="#000000" font-family="sans-serif" font-size="14" lengthAdjust="spacing" textLength="214" x="573" y="544.1133">humidity : np.ndarray(dtype=float)</text><line style="stroke:#181818;stroke-width:0.5;" x1="568" x2="845" y1="551.5313" y2="551.5313"/></g><!--class ScientificCameraROIData--><g id="elem_ScientificCameraROIData"><rect codeLine="31" fill="#F1F1F1" height="80.8125" id="ScientificCameraROIData" rx="2.5" ry="2.5" style="stroke:#181818;stroke-width:0.5;" width="203" x="329" y="454"/><ellipse cx="349.85" cy="470" fill="#ADD1B2" rx="11" ry="11" style="stroke:#181818;stroke-width:1.0;"/><path d="M349.8969,476.2031 C351.3969,476.2031 352.6313,475.6406 353.5375,474.5781 L352.1625,473.0625 C351.6156,473.6563 350.9594,474.0469 350.1625,474.0469 C348.4906,474.0469 347.3344,472.7188 347.3344,470.4375 C347.3344,468.2188 348.4906,466.875 350.0531,466.875 C350.8656,466.875 351.4594,467.1875 351.9906,467.6719 L353.3656,466.125 C352.6156,465.3906 351.4594,464.7188 350.0531,464.7188 C347.1,464.7188 344.7719,466.8594 344.7719,470.5313 C344.7719,474.25 347.1469,476.2031 349.8969,476.2031 Z " fill="#000000"/><text fill="#000000" font-family="sans-serif" font-size="14" lengthAdjust="spacing" textLength="158" x="365.15" y="474.7852">ScientificCameraROIData</text><line style="stroke:#181818;stroke-width:0.5;" x1="330" x2="531" y1="486" y2="486"/><text fill="#000000" font-family="sans-serif" font-size="14" lengthAdjust="spacing" textLength="74" x="335" y="502.9883">label : string</text><text fill="#000000" font-family="sans-serif" font-size="14" lengthAdjust="spacing" textLength="191" x="335" y="519.3945">marker : np.ndarray(dtype=int)</text><line style="stroke:#181818;stroke-width:0.5;" x1="330" x2="531" y1="526.8125" y2="526.8125"/></g><!--class ScientificCameraStatisticsData--><g id="elem_ScientificCameraStatisticsData"><rect codeLine="36" fill="#F1F1F1" height="326.9063" id="ScientificCameraStatisticsData" rx="2.5" ry="2.5" style="stroke:#181818;stroke-width:0.5;" width="287" x="7" y="331"/><ellipse cx="49.9" cy="347" fill="#ADD1B2" rx="11" ry="11" style="stroke:#181818;stroke-width:1.0;"/><path d="M49.9469,353.2031 C51.4469,353.2031 52.6813,352.6406 53.5875,351.5781 L52.2125,350.0625 C51.6656,350.6563 51.0094,351.0469 50.2125,351.0469 C48.5406,351.0469 47.3844,349.7188 47.3844,347.4375 C47.3844,345.2188 48.5406,343.875 50.1031,343.875 C50.9156,343.875 51.5094,344.1875 52.0406,344.6719 L53.4156,343.125 C52.6656,342.3906 51.5094,341.7188 50.1031,341.7188 C47.15,341.7188 44.8219,343.8594 44.8219,347.5313 C44.8219,351.25 47.1969,353.2031 49.9469,353.2031 Z " fill="#000000"/><text fill="#000000" font-family="sans-serif" font-size="14" lengthAdjust="spacing" textLength="193" x="70.1" y="351.7852">ScientificCameraStatisticsData</text><line style="stroke:#181818;stroke-width:0.5;" x1="8" x2="293" y1="363" y2="363"/><text fill="#000000" font-family="sans-serif" font-size="14" lengthAdjust="spacing" textLength="141" x="13" y="379.9883">background_width : int</text><text fill="#000000" font-family="sans-serif" font-size="14" lengthAdjust="spacing" textLength="222" x="13" y="396.3945">min_value : np.ndarray(dtype=float)</text><text fill="#000000" font-family="sans-serif" font-size="14" lengthAdjust="spacing" textLength="196" x="13" y="412.8008">min_x : np.ndarray(dtype=float)</text><text fill="#000000" font-family="sans-serif" font-size="14" lengthAdjust="spacing" textLength="196" x="13" y="429.207">min_y : np.ndarray(dtype=float)</text><text fill="#000000" font-family="sans-serif" font-size="14" lengthAdjust="spacing" textLength="226" x="13" y="445.6133">max_value : np.ndarray(dtype=float)</text><text fill="#000000" font-family="sans-serif" font-size="14" lengthAdjust="spacing" textLength="200" x="13" y="462.0195">max_x : np.ndarray(dtype=float)</text><text fill="#000000" font-family="sans-serif" font-size="14" lengthAdjust="spacing" textLength="200" x="13" y="478.4258">max_y : np.ndarray(dtype=float)</text><text fill="#000000" font-family="sans-serif" font-size="14" lengthAdjust="spacing" textLength="195" x="13" y="494.832">mean : np.ndarray(dtype=float)</text><text fill="#000000" font-family="sans-serif" font-size="14" lengthAdjust="spacing" textLength="189" x="13" y="511.2383">total : np.ndarray(dtype=float)</text><text fill="#000000" font-family="sans-serif" font-size="14" lengthAdjust="spacing" textLength="180" x="13" y="527.6445">net : np.ndarray(dtype=float)</text><text fill="#000000" font-family="sans-serif" font-size="14" lengthAdjust="spacing" textLength="198" x="13" y="544.0508">sigma : np.ndarray(dtype=float)</text><text fill="#000000" font-family="sans-serif" font-size="14" lengthAdjust="spacing" textLength="154" x="13" y="560.457">centroid_threshold : float</text><text fill="#000000" font-family="sans-serif" font-size="14" lengthAdjust="spacing" textLength="224" x="13" y="576.8633">centroid_x : np.ndarray(dtype=float)</text><text fill="#000000" font-family="sans-serif" font-size="14" lengthAdjust="spacing" textLength="224" x="13" y="593.2695">centroid_y : np.ndarray(dtype=float)</text><text fill="#000000" font-family="sans-serif" font-size="14" lengthAdjust="spacing" textLength="268" x="13" y="609.6758">centroid_sigma_x : np.ndarray(dtype=float)</text><text fill="#000000" font-family="sans-serif" font-size="14" lengthAdjust="spacing" textLength="268" x="13" y="626.082">centroid_sigma_y : np.ndarray(dtype=float)</text><text fill="#000000" font-family="sans-serif" font-size="14" lengthAdjust="spacing" textLength="275" x="13" y="642.4883">centroid_sigma_xy : np.ndarray(dtype=float)</text><line style="stroke:#181818;stroke-width:0.5;" x1="8" x2="293" y1="649.9063" y2="649.9063"/></g><!--reverse link MeasureData to ChannelData--><g id="link_MeasureData_ChannelData"><path d="M488.1566,63.6659 C520.4166,81.3859 549.05,97.11 581.37,114.86 " fill="none" id="MeasureData-backto-ChannelData" style="stroke:#181818;stroke-width:1.0;"/><polygon fill="none" points="472.38,55,485.268,68.9248,491.0453,58.407,472.38,55" style="stroke:#181818;stroke-width:1.0;"/></g><!--reverse link ChannelData to AreaChannelData--><g id="link_ChannelData_AreaChannelData"><path d="M652.6081,177.1715 C666.4381,194.8315 674.35,204.94 688.24,222.68 " fill="none" id="ChannelData-backto-AreaChannelData" style="stroke:#181818;stroke-width:1.0;"/><polygon fill="none" points="641.51,163,647.8842,180.8709,657.3319,173.4722,641.51,163" style="stroke:#181818;stroke-width:1.0;"/></g><!--reverse link AreaChannelData to SampleCameraData--><g id="link_AreaChannelData_SampleCameraData"><path d="M784.5849,278.3988 C815.7949,292.2888 836.28,305.04 863.5,331 C900.25,366.05 927.69,418.23 943.62,453.95 " fill="none" id="AreaChannelData-backto-SampleCameraData" style="stroke:#181818;stroke-width:1.0;"/><polygon fill="none" points="768.14,271.08,782.1453,283.8804,787.0245,272.9172,768.14,271.08" style="stroke:#181818;stroke-width:1.0;"/></g><!--reverse link AreaChannelData to ScientificCameraData--><g id="link_AreaChannelData_ScientificCameraData"><path d="M706.5,289.1 C706.5,324.96 706.5,377.34 706.5,429.36 " fill="none" id="AreaChannelData-backto-ScientificCameraData" style="stroke:#181818;stroke-width:1.0;"/><polygon fill="none" points="706.5,271.1,700.5,289.1,712.5,289.1,706.5,271.1" style="stroke:#181818;stroke-width:1.0;"/></g><!--link ScientificCameraStatisticsData to ScientificCameraROIData--><!--link ScientificCameraStatisticsData to ScientificCameraData--><g id="link_ScientificCameraStatisticsData_ScientificCameraData"><path codeLine="26" d="M281.2,330.83 C296.76,318.95 313.41,308.65 331,301 C412.11,265.74 449.09,265.29 530,301 C589.07,327.07 630.1489,373.846 661.0489,419.156 " fill="none" id="ScientificCameraStatisticsData-to-ScientificCameraData" style="stroke:#181818;stroke-width:1.0;"/><polygon fill="#181818" points="667.81,429.07,667.7341,421.8593,661.0489,419.156,661.1248,426.3667,667.81,429.07" style="stroke:#181818;stroke-width:1.0;"/><text fill="#000000" font-family="sans-serif" font-size="13" lengthAdjust="spacing" textLength="20" x="267.0464" y="319.6074">0..n</text></g><!--link ScientificCameraROIData to ScientificCameraData--><!--link ScientificCameraROIData to ScientificCameraData--><g id="link_ScientificCameraROIData_ScientificCameraData"><path codeLine="28" d="M532.11,494.5 C543.69,494.5 543.27,494.5 554.85,494.5 " fill="none" id="ScientificCameraROIData-to-ScientificCameraData-1" style="stroke:#181818;stroke-width:1.0;"/><polygon fill="#181818" points="566.85,494.5,560.85,490.5,554.85,494.5,560.85,498.5,566.85,494.5" style="stroke:#181818;stroke-width:1.0;"/><text fill="#000000" font-family="sans-serif" font-size="13" lengthAdjust="spacing" textLength="20" x="539.9576" y="491.048">0..n</text></g><!--link ScientificCameraROIData to ScientificCameraData--><!--reverse link MeasureData to ScientificCameraROIData--><g id="link_MeasureData_ScientificCameraROIData"><path d="M430.5,73.2 C430.5,147.23 430.5,360.39 430.5,453.77 " fill="none" id="MeasureData-backto-ScientificCameraROIData" style="stroke:#181818;stroke-width:1.0;"/><polygon fill="none" points="430.5,55.2,424.5,73.2,436.5,73.2,430.5,55.2" style="stroke:#181818;stroke-width:1.0;"/></g><!--reverse link MeasureData to ScientificCameraStatisticsData--><g id="link_MeasureData_ScientificCameraStatisticsData"><path d="M407.083,70.589 C376.613,120.809 311.61,227.96 249.25,330.73 " fill="none" id="MeasureData-backto-ScientificCameraStatisticsData" style="stroke:#181818;stroke-width:1.0;"/><polygon fill="none" points="416.42,55.2,401.9534,67.4767,412.2127,73.7013,416.42,55.2" style="stroke:#181818;stroke-width:1.0;"/></g><!--SRC=[jPHDJyCm38Rl-nKH5pwaRPoHG4BZmW4XiUCqLLxZjTQIj2Gkj1hyTxAo5ZQrNOj4RqsUzxLZnpcFcLDtCvsc2WndMat2H4z31SwD9K5aGOz6vQ-OnM0CgWTW49Wp6kd44uBBBExMAkpU8ZIXlzOgT0uwLJW3ZHOEs6EFxKZuRuMWWrpS23Byir3i5pvhrv3GCAqfxEri4reilS-nzENviSntnpW69iSKkaPqNc_N2WXVCx8OC6dqYhLAWCM7CEd4IB0MYfBQhWcL_1ICElK-xClfuH_eGdAHucsflZnGn9acILnquBued4J8CThzKTjhrB5TrS7RTPzRZ1SnIObcUTTgSiBXx7eoCMTYVDMSP8jhL-1EtJ-56tKMicb-zlsfcgjWXSftrh4b4nriQR0Rty-6hlivk6mVXAD2j-UmWd0JsIGpCdWdoV6laQjp81EyWShwtjKTdmzWYxuivCFoy7m-WEsT1uBfYNB2e7go1hadwIZIS88D_NNmJvqCEBReuaJ9wbawiAgnleMg1SLGGPdry3ZVihz6wtumlm00]--></g></svg>