<?xml version="1.0" encoding="us-ascii" standalone="no"?><svg xmlns="http://www.w3.org/2000/svg" xmlns:xlink="http://www.w3.org/1999/xlink" contentStyleType="text/css" height="530.1px" preserveAspectRatio="none" style="width:699px;height:530px;background:#FFFFFF;" version="1.1" viewBox="0 0 699 530" width="699.3px" zoomAndPan="magnify"><defs/><g><!--class AreaChannelData--><g id="elem_AreaChannelData"><rect codeLine="3" fill="#F1F1F1" height="43.2" id="AreaChannelData" rx="2.25" ry="2.25" style="stroke:#181818;stroke-width:0.45;" width="127.8" x="344.25" y="103.5"/><ellipse cx="357.75" cy="117.9" fill="#ADD1B2" rx="9.9" ry="9.9" style="stroke:#181818;stroke-width:0.9;"/><path d="M357.7922,123.4828 C359.1422,123.4828 360.2531,122.9766 361.0688,122.0203 L359.8313,120.6563 C359.3391,121.1906 358.7484,121.5422 358.0313,121.5422 C356.5266,121.5422 355.4859,120.3469 355.4859,118.2938 C355.4859,116.2969 356.5266,115.0875 357.9328,115.0875 C358.6641,115.0875 359.1984,115.3688 359.6766,115.8047 L360.9141,114.4125 C360.2391,113.7516 359.1984,113.1469 357.9328,113.1469 C355.275,113.1469 353.1797,115.0734 353.1797,118.3781 C353.1797,121.725 355.3172,123.4828 357.7922,123.4828 Z " fill="#000000"/><text fill="#000000" font-family="sans-serif" font-size="12.6" lengthAdjust="spacing" textLength="99" x="370.35" y="122.2066">AreaChannelData</text><line style="stroke:#181818;stroke-width:0.45;" x1="345.15" x2="471.15" y1="132.3" y2="132.3"/><line style="stroke:#181818;stroke-width:0.45;" x1="345.15" x2="471.15" y1="139.5" y2="139.5"/></g><!--class ChannelData--><g id="elem_ChannelData"><rect fill="#F1F1F1" height="43.2" id="ChannelData" rx="2.25" ry="2.25" style="stroke:#181818;stroke-width:0.45;" width="101.7" x="221.4" y="6.3"/><ellipse cx="234.9" cy="20.7" fill="#ADD1B2" rx="9.9" ry="9.9" style="stroke:#181818;stroke-width:0.9;"/><path d="M234.9422,26.2828 C236.2922,26.2828 237.4031,25.7766 238.2188,24.8203 L236.9813,23.4563 C236.4891,23.9906 235.8984,24.3422 235.1813,24.3422 C233.6766,24.3422 232.6359,23.1469 232.6359,21.0938 C232.6359,19.0969 233.6766,17.8875 235.0828,17.8875 C235.8141,17.8875 236.3484,18.1688 236.8266,18.6047 L238.0641,17.2125 C237.3891,16.5516 236.3484,15.9469 235.0828,15.9469 C232.425,15.9469 230.3297,17.8734 230.3297,21.1781 C230.3297,24.525 232.4672,26.2828 234.9422,26.2828 Z " fill="#000000"/><text fill="#000000" font-family="sans-serif" font-size="12.6" lengthAdjust="spacing" textLength="72.9" x="247.5" y="25.0066">ChannelData</text><line style="stroke:#181818;stroke-width:0.45;" x1="222.3" x2="322.2" y1="35.1" y2="35.1"/><line style="stroke:#181818;stroke-width:0.45;" x1="222.3" x2="322.2" y1="42.3" y2="42.3"/></g><!--class SampleCameraData--><g id="elem_SampleCameraData"><rect codeLine="5" fill="#F1F1F1" height="72.7313" id="SampleCameraData" rx="2.25" ry="2.25" style="stroke:#181818;stroke-width:0.45;" width="141.3" x="551.7" y="326.25"/><ellipse cx="565.2" cy="340.65" fill="#ADD1B2" rx="9.9" ry="9.9" style="stroke:#181818;stroke-width:0.9;"/><path d="M565.2422,346.2328 C566.5922,346.2328 567.7031,345.7266 568.5188,344.7703 L567.2813,343.4063 C566.7891,343.9406 566.1984,344.2922 565.4813,344.2922 C563.9766,344.2922 562.9359,343.0969 562.9359,341.0438 C562.9359,339.0469 563.9766,337.8375 565.3828,337.8375 C566.1141,337.8375 566.6484,338.1188 567.1266,338.5547 L568.3641,337.1625 C567.6891,336.5016 566.6484,335.8969 565.3828,335.8969 C562.725,335.8969 560.6297,337.8234 560.6297,341.1281 C560.6297,344.475 562.7672,346.2328 565.2422,346.2328 Z " fill="#000000"/><text fill="#000000" font-family="sans-serif" font-size="12.6" lengthAdjust="spacing" textLength="112.5" x="577.8" y="344.9566">SampleCameraData</text><line style="stroke:#181818;stroke-width:0.45;" x1="552.6" x2="692.1" y1="355.05" y2="355.05"/><text fill="#000000" font-family="sans-serif" font-size="12.6" lengthAdjust="spacing" textLength="65.7" x="557.1" y="370.3395">beam_x : int</text><text fill="#000000" font-family="sans-serif" font-size="12.6" lengthAdjust="spacing" textLength="65.7" x="557.1" y="385.1051">beam_y : int</text><line style="stroke:#181818;stroke-width:0.45;" x1="552.6" x2="692.1" y1="391.7813" y2="391.7813"/></g><!--class ScientificCameraData--><g id="elem_ScientificCameraData"><rect codeLine="18" fill="#F1F1F1" height="102.2625" id="ScientificCameraData" rx="2.25" ry="2.25" style="stroke:#181818;stroke-width:0.45;" width="224.1" x="296.1" y="311.4"/><ellipse cx="343.575" cy="325.8" fill="#ADD1B2" rx="9.9" ry="9.9" style="stroke:#181818;stroke-width:0.9;"/><path d="M343.6172,331.3828 C344.9672,331.3828 346.0781,330.8766 346.8938,329.9203 L345.6563,328.5563 C345.1641,329.0906 344.5734,329.4422 343.8563,329.4422 C342.3516,329.4422 341.3109,328.2469 341.3109,326.1938 C341.3109,324.1969 342.3516,322.9875 343.7578,322.9875 C344.4891,322.9875 345.0234,323.2688 345.5016,323.7047 L346.7391,322.3125 C346.0641,321.6516 345.0234,321.0469 343.7578,321.0469 C341.1,321.0469 339.0047,322.9734 339.0047,326.2781 C339.0047,329.625 341.1422,331.3828 343.6172,331.3828 Z " fill="#000000"/><text fill="#000000" font-family="sans-serif" font-size="12.6" lengthAdjust="spacing" textLength="121.5" x="362.025" y="330.1066">ScientificCameraData</text><line style="stroke:#181818;stroke-width:0.45;" x1="297" x2="519.3" y1="340.2" y2="340.2"/><text fill="#000000" font-family="sans-serif" font-size="12.6" lengthAdjust="spacing" textLength="171.9" x="301.5" y="355.4895">roi[] : ScientificCameraROIData</text><text fill="#000000" font-family="sans-serif" font-size="12.6" lengthAdjust="spacing" textLength="175.5" x="301.5" y="370.2551">acquire_time : float | np.ndarray</text><text fill="#000000" font-family="sans-serif" font-size="12.6" lengthAdjust="spacing" textLength="213.3" x="301.5" y="385.0207">temperature : np.ndarray(dtype=float)</text><text fill="#000000" font-family="sans-serif" font-size="12.6" lengthAdjust="spacing" textLength="192.6" x="301.5" y="399.7863">humidity : np.ndarray(dtype=float)</text><line style="stroke:#181818;stroke-width:0.45;" x1="297" x2="519.3" y1="406.4625" y2="406.4625"/></g><!--class ScientificCameraROIData--><g id="elem_ScientificCameraROIData"><rect codeLine="26" fill="#F1F1F1" height="323.7469" id="ScientificCameraROIData" rx="2.25" ry="2.25" style="stroke:#181818;stroke-width:0.45;" width="258.3" x="6.3" y="200.7"/><ellipse cx="60.525" cy="215.1" fill="#ADD1B2" rx="9.9" ry="9.9" style="stroke:#181818;stroke-width:0.9;"/><path d="M60.5672,220.6828 C61.9172,220.6828 63.0281,220.1766 63.8438,219.2203 L62.6063,217.8563 C62.1141,218.3906 61.5234,218.7422 60.8063,218.7422 C59.3016,218.7422 58.2609,217.5469 58.2609,215.4938 C58.2609,213.4969 59.3016,212.2875 60.7078,212.2875 C61.4391,212.2875 61.9734,212.5688 62.4516,213.0047 L63.6891,211.6125 C63.0141,210.9516 61.9734,210.3469 60.7078,210.3469 C58.05,210.3469 55.9547,212.2734 55.9547,215.5781 C55.9547,218.925 58.0922,220.6828 60.5672,220.6828 Z " fill="#000000"/><text fill="#000000" font-family="sans-serif" font-size="12.6" lengthAdjust="spacing" textLength="142.2" x="78.975" y="219.4066">ScientificCameraROIData</text><line style="stroke:#181818;stroke-width:0.45;" x1="7.2" x2="263.7" y1="229.5" y2="229.5"/><text fill="#000000" font-family="sans-serif" font-size="12.6" lengthAdjust="spacing" textLength="66.6" x="11.7" y="244.7895">label : string</text><text fill="#000000" font-family="sans-serif" font-size="12.6" lengthAdjust="spacing" textLength="171.9" x="11.7" y="259.5551">marker : np.ndarray(dtype=int)</text><text fill="#000000" font-family="sans-serif" font-size="12.6" lengthAdjust="spacing" textLength="126.9" x="11.7" y="274.3207">background_width : int</text><text fill="#000000" font-family="sans-serif" font-size="12.6" lengthAdjust="spacing" textLength="199.8" x="11.7" y="289.0863">min_value : np.ndarray(dtype=float)</text><text fill="#000000" font-family="sans-serif" font-size="12.6" lengthAdjust="spacing" textLength="176.4" x="11.7" y="303.852">min_x : np.ndarray(dtype=float)</text><text fill="#000000" font-family="sans-serif" font-size="12.6" lengthAdjust="spacing" textLength="176.4" x="11.7" y="318.6176">min_y : np.ndarray(dtype=float)</text><text fill="#000000" font-family="sans-serif" font-size="12.6" lengthAdjust="spacing" textLength="203.4" x="11.7" y="333.3832">max_value : np.ndarray(dtype=float)</text><text fill="#000000" font-family="sans-serif" font-size="12.6" lengthAdjust="spacing" textLength="180" x="11.7" y="348.1488">max_x : np.ndarray(dtype=float)</text><text fill="#000000" font-family="sans-serif" font-size="12.6" lengthAdjust="spacing" textLength="180" x="11.7" y="362.9145">max_y : np.ndarray(dtype=float)</text><text fill="#000000" font-family="sans-serif" font-size="12.6" lengthAdjust="spacing" textLength="175.5" x="11.7" y="377.6801">mean : np.ndarray(dtype=float)</text><text fill="#000000" font-family="sans-serif" font-size="12.6" lengthAdjust="spacing" textLength="170.1" x="11.7" y="392.4457">total : np.ndarray(dtype=float)</text><text fill="#000000" font-family="sans-serif" font-size="12.6" lengthAdjust="spacing" textLength="162" x="11.7" y="407.2113">net : np.ndarray(dtype=float)</text><text fill="#000000" font-family="sans-serif" font-size="12.6" lengthAdjust="spacing" textLength="178.2" x="11.7" y="421.977">sigma : np.ndarray(dtype=float)</text><text fill="#000000" font-family="sans-serif" font-size="12.6" lengthAdjust="spacing" textLength="138.6" x="11.7" y="436.7426">centroid_threshold : float</text><text fill="#000000" font-family="sans-serif" font-size="12.6" lengthAdjust="spacing" textLength="201.6" x="11.7" y="451.5082">centroid_x : np.ndarray(dtype=float)</text><text fill="#000000" font-family="sans-serif" font-size="12.6" lengthAdjust="spacing" textLength="201.6" x="11.7" y="466.2738">centroid_y : np.ndarray(dtype=float)</text><text fill="#000000" font-family="sans-serif" font-size="12.6" lengthAdjust="spacing" textLength="241.2" x="11.7" y="481.0395">centroid_sigma_x : np.ndarray(dtype=float)</text><text fill="#000000" font-family="sans-serif" font-size="12.6" lengthAdjust="spacing" textLength="241.2" x="11.7" y="495.8051">centroid_sigma_y : np.ndarray(dtype=float)</text><text fill="#000000" font-family="sans-serif" font-size="12.6" lengthAdjust="spacing" textLength="247.5" x="11.7" y="510.5707">centroid_sigma_xy : np.ndarray(dtype=float)</text><line style="stroke:#181818;stroke-width:0.45;" x1="7.2" x2="263.7" y1="517.2469" y2="517.2469"/></g><!--reverse link ChannelData to AreaChannelData--><g id="link_ChannelData_AreaChannelData"><path d="M314.9944,58.8059 C337.7194,74.7539 355.725,87.399 378.486,103.374 " fill="none" id="ChannelData-backto-AreaChannelData" style="stroke:#181818;stroke-width:0.9;"/><polygon fill="none" points="301.734,49.5,311.8925,63.2261,318.0964,54.3858,301.734,49.5" style="stroke:#181818;stroke-width:0.9;"/></g><!--reverse link AreaChannelData to SampleCameraData--><g id="link_AreaChannelData_SampleCameraData"><path d="M479.3122,153.4995 C503.5222,164.5335 516.015,173.331 535.95,193.5 C573.471,231.462 598.167,289.044 611.208,326.034 " fill="none" id="AreaChannelData-backto-SampleCameraData" style="stroke:#181818;stroke-width:0.9;"/><polygon fill="none" points="464.571,146.781,477.0727,158.4132,481.5517,148.5857,464.571,146.781" style="stroke:#181818;stroke-width:0.9;"/></g><!--reverse link AreaChannelData to ScientificCameraData--><g id="link_AreaChannelData_ScientificCameraData"><path d="M408.15,163.125 C408.15,199.701 408.15,260.028 408.15,311.175 " fill="none" id="AreaChannelData-backto-ScientificCameraData" style="stroke:#181818;stroke-width:0.9;"/><polygon fill="none" points="408.15,146.925,402.75,163.125,413.55,163.125,408.15,146.925" style="stroke:#181818;stroke-width:0.9;"/></g><!--link ScientificCameraROIData to ScientificCameraData--><!--link ScientificCameraROIData to ScientificCameraData--><g id="link_ScientificCameraROIData_ScientificCameraData"><path codeLine="23" d="M264.609,362.7 C275.076,362.7 274.743,362.7 285.21,362.7 " fill="none" id="ScientificCameraROIData-to-ScientificCameraData-1" style="stroke:#181818;stroke-width:0.9;"/><polygon fill="#181818" points="296.01,362.7,290.61,359.1,285.21,362.7,290.61,366.3,296.01,362.7" style="stroke:#181818;stroke-width:0.9;"/><text fill="#000000" font-family="sans-serif" font-size="11.7" lengthAdjust="spacing" textLength="18" x="271.7328" y="359.7184">0..n</text></g><!--link ScientificCameraROIData to ScientificCameraData--><!--reverse link ChannelData to ScientificCameraROIData--><g id="link_ChannelData_ScientificCameraROIData"><path d="M257.5352,64.6199 C244.8722,95.4449 226.143,141.03 201.636,200.682 " fill="none" id="ChannelData-backto-ScientificCameraROIData" style="stroke:#181818;stroke-width:0.9;"/><polygon fill="none" points="263.691,49.635,252.5402,62.5679,262.5301,66.6718,263.691,49.635" style="stroke:#181818;stroke-width:0.9;"/></g><!--SRC=[dPJBReCm44NtV8NLJHzIIDUHMgbADrrLQfTHX2Pu0gFOXfgX1QNvzphaIPGGKtQspxtpy9ZRb3alHiDXhi1mgLKOPteOAoYAWIH8BEWWQ9RYnIACKp06rIim2AmOZIp4qTuE_GITAno3HWijzjHZ6GZtpH1qL8cH8CE7ZNgxiTgxneI6QKwnjxFDQ39rFgVIZ_Ut9jyr0_5NIHOZ9eqEdQiCMFmAauT6WhLGDzHoJgZaIZ3gt1bmQTVm0RgJNEVurAZlMugqr2I9wmxSbSXPWfoYtIP-kUAEurrLpkx2aHXCKf8IpVJvlFabtSrZ69eRCNZe9xiMBkWivDo8BLkzLJ13vHfRi2MJj8uqs8Lhvvcckw7QtD0CuaLYizB8w8SafqSJk7SX4ts3AdqlUyrNFTZQbuMgNnwEhtgmtdaW64-KCmRboHfaJxAWHCCLDdR3v5w-Z3YrMAIPahjttRBQOxwDsWlgle8cw_vnDhB_Hkl-u_m1]--></g></svg>