<?xml version="1.0" encoding="us-ascii" standalone="no"?><svg xmlns="http://www.w3.org/2000/svg" xmlns:xlink="http://www.w3.org/1999/xlink" contentStyleType="text/css" height="663px" preserveAspectRatio="none" style="width:1175px;height:663px;background:#FFFFFF;" version="1.1" viewBox="0 0 1175 663" width="1175px" zoomAndPan="magnify"><defs/><g><!--class ChannelData--><g id="elem_ChannelData"><rect codeLine="3" fill="#F1F1F1" height="48" id="ChannelData" rx="2.5" ry="2.5" style="stroke:#181818;stroke-width:0.5;" width="125" x="639" y="115"/><ellipse cx="654" cy="131" fill="#ADD1B2" rx="11" ry="11" style="stroke:#181818;stroke-width:1.0;"/><path d="M656.9844,136.6406 Q656.4063,136.9375 655.7656,137.0781 Q655.125,137.2344 654.4219,137.2344 Q651.9063,137.2344 650.5781,135.5938 Q649.2656,133.9375 649.2656,130.8125 Q649.2656,127.6719 650.5781,126.0313 Q651.9063,124.375 654.4219,124.375 Q655.125,124.375 655.7656,124.5313 Q656.4219,124.6719 656.9844,124.9688 L656.9844,127.6875 Q656.3438,127.1094 655.75,126.8438 Q655.1563,126.5781 654.5313,126.5781 Q653.1875,126.5781 652.5,127.6406 Q651.8125,128.7031 651.8125,130.8125 Q651.8125,132.9063 652.5,133.9844 Q653.1875,135.0469 654.5313,135.0469 Q655.1563,135.0469 655.75,134.7813 Q656.3438,134.5 656.9844,133.9219 L656.9844,136.6406 Z " fill="#000000"/><text fill="#000000" font-family="sans-serif" font-size="14" lengthAdjust="spacing" textLength="93" x="668" y="135.8467">ChannelData</text><line style="stroke:#181818;stroke-width:0.5;" x1="640" x2="763" y1="147" y2="147"/><line style="stroke:#181818;stroke-width:0.5;" x1="640" x2="763" y1="155" y2="155"/></g><!--class MeasureData--><g id="elem_MeasureData"><rect fill="#F1F1F1" height="48" id="MeasureData" rx="2.5" ry="2.5" style="stroke:#181818;stroke-width:0.5;" width="127" x="425" y="7"/><ellipse cx="440" cy="23" fill="#ADD1B2" rx="11" ry="11" style="stroke:#181818;stroke-width:1.0;"/><path d="M442.9844,28.6406 Q442.4063,28.9375 441.7656,29.0781 Q441.125,29.2344 440.4219,29.2344 Q437.9063,29.2344 436.5781,27.5938 Q435.2656,25.9375 435.2656,22.8125 Q435.2656,19.6719 436.5781,18.0313 Q437.9063,16.375 440.4219,16.375 Q441.125,16.375 441.7656,16.5313 Q442.4219,16.6719 442.9844,16.9688 L442.9844,19.6875 Q442.3438,19.1094 441.75,18.8438 Q441.1563,18.5781 440.5313,18.5781 Q439.1875,18.5781 438.5,19.6406 Q437.8125,20.7031 437.8125,22.8125 Q437.8125,24.9063 438.5,25.9844 Q439.1875,27.0469 440.5313,27.0469 Q441.1563,27.0469 441.75,26.7813 Q442.3438,26.5 442.9844,25.9219 L442.9844,28.6406 Z " fill="#000000"/><text fill="#000000" font-family="sans-serif" font-size="14" lengthAdjust="spacing" textLength="95" x="454" y="27.8467">MeasureData</text><line style="stroke:#181818;stroke-width:0.5;" x1="426" x2="551" y1="39" y2="39"/><line style="stroke:#181818;stroke-width:0.5;" x1="426" x2="551" y1="47" y2="47"/></g><!--class AreaChannelData--><g id="elem_AreaChannelData"><rect codeLine="5" fill="#F1F1F1" height="48" id="AreaChannelData" rx="2.5" ry="2.5" style="stroke:#181818;stroke-width:0.5;" width="159" x="719" y="223"/><ellipse cx="734" cy="239" fill="#ADD1B2" rx="11" ry="11" style="stroke:#181818;stroke-width:1.0;"/><path d="M736.9844,244.6406 Q736.4063,244.9375 735.7656,245.0781 Q735.125,245.2344 734.4219,245.2344 Q731.9063,245.2344 730.5781,243.5938 Q729.2656,241.9375 729.2656,238.8125 Q729.2656,235.6719 730.5781,234.0313 Q731.9063,232.375 734.4219,232.375 Q735.125,232.375 735.7656,232.5313 Q736.4219,232.6719 736.9844,232.9688 L736.9844,235.6875 Q736.3438,235.1094 735.75,234.8438 Q735.1563,234.5781 734.5313,234.5781 Q733.1875,234.5781 732.5,235.6406 Q731.8125,236.7031 731.8125,238.8125 Q731.8125,240.9063 732.5,241.9844 Q733.1875,243.0469 734.5313,243.0469 Q735.1563,243.0469 735.75,242.7813 Q736.3438,242.5 736.9844,241.9219 L736.9844,244.6406 Z " fill="#000000"/><text fill="#000000" font-family="sans-serif" font-size="14" lengthAdjust="spacing" textLength="127" x="748" y="243.8467">AreaChannelData</text><line style="stroke:#181818;stroke-width:0.5;" x1="720" x2="877" y1="255" y2="255"/><line style="stroke:#181818;stroke-width:0.5;" x1="720" x2="877" y1="263" y2="263"/></g><!--class SampleCameraData--><g id="elem_SampleCameraData"><rect codeLine="7" fill="#F1F1F1" height="48" id="SampleCameraData" rx="2.5" ry="2.5" style="stroke:#181818;stroke-width:0.5;" width="177" x="991" y="469.5"/><ellipse cx="1006" cy="485.5" fill="#ADD1B2" rx="11" ry="11" style="stroke:#181818;stroke-width:1.0;"/><path d="M1008.9844,491.1406 Q1008.4063,491.4375 1007.7656,491.5781 Q1007.125,491.7344 1006.4219,491.7344 Q1003.9063,491.7344 1002.5781,490.0938 Q1001.2656,488.4375 1001.2656,485.3125 Q1001.2656,482.1719 1002.5781,480.5313 Q1003.9063,478.875 1006.4219,478.875 Q1007.125,478.875 1007.7656,479.0313 Q1008.4219,479.1719 1008.9844,479.4688 L1008.9844,482.1875 Q1008.3438,481.6094 1007.75,481.3438 Q1007.1563,481.0781 1006.5313,481.0781 Q1005.1875,481.0781 1004.5,482.1406 Q1003.8125,483.2031 1003.8125,485.3125 Q1003.8125,487.4063 1004.5,488.4844 Q1005.1875,489.5469 1006.5313,489.5469 Q1007.1563,489.5469 1007.75,489.2813 Q1008.3438,489 1008.9844,488.4219 L1008.9844,491.1406 Z " fill="#000000"/><text fill="#000000" font-family="sans-serif" font-size="14" lengthAdjust="spacing" textLength="145" x="1020" y="490.3467">SampleCameraData</text><line style="stroke:#181818;stroke-width:0.5;" x1="992" x2="1167" y1="501.5" y2="501.5"/><line style="stroke:#181818;stroke-width:0.5;" x1="992" x2="1167" y1="509.5" y2="509.5"/></g><!--class ScientificCameraData--><g id="elem_ScientificCameraData"><rect codeLine="19" fill="#F1F1F1" height="129.4844" id="ScientificCameraData" rx="2.5" ry="2.5" style="stroke:#181818;stroke-width:0.5;" width="315" x="641" y="429"/><ellipse cx="716.25" cy="445" fill="#ADD1B2" rx="11" ry="11" style="stroke:#181818;stroke-width:1.0;"/><path d="M719.2344,450.6406 Q718.6563,450.9375 718.0156,451.0781 Q717.375,451.2344 716.6719,451.2344 Q714.1563,451.2344 712.8281,449.5938 Q711.5156,447.9375 711.5156,444.8125 Q711.5156,441.6719 712.8281,440.0313 Q714.1563,438.375 716.6719,438.375 Q717.375,438.375 718.0156,438.5313 Q718.6719,438.6719 719.2344,438.9688 L719.2344,441.6875 Q718.5938,441.1094 718,440.8438 Q717.4063,440.5781 716.7813,440.5781 Q715.4375,440.5781 714.75,441.6406 Q714.0625,442.7031 714.0625,444.8125 Q714.0625,446.9063 714.75,447.9844 Q715.4375,449.0469 716.7813,449.0469 Q717.4063,449.0469 718,448.7813 Q718.5938,448.5 719.2344,447.9219 L719.2344,450.6406 Z " fill="#000000"/><text fill="#000000" font-family="sans-serif" font-size="14" lengthAdjust="spacing" textLength="156" x="736.75" y="449.8467">ScientificCameraData</text><line style="stroke:#181818;stroke-width:0.5;" x1="642" x2="955" y1="461" y2="461"/><text fill="#000000" font-family="sans-serif" font-size="14" lengthAdjust="spacing" textLength="223" x="647" y="477.9951">roi[] : ScientificCameraROIData</text><text fill="#000000" font-family="sans-serif" font-size="14" lengthAdjust="spacing" textLength="303" x="647" y="494.292">statistics[] : ScientificCameraStatisticsData</text><text fill="#000000" font-family="sans-serif" font-size="14" lengthAdjust="spacing" textLength="229" x="647" y="510.5889">acquire_time : float | np.ndarray</text><text fill="#000000" font-family="sans-serif" font-size="14" lengthAdjust="spacing" textLength="275" x="647" y="526.8857">temperature : np.ndarray(dtype=float)</text><text fill="#000000" font-family="sans-serif" font-size="14" lengthAdjust="spacing" textLength="247" x="647" y="543.1826">humidity : np.ndarray(dtype=float)</text><line style="stroke:#181818;stroke-width:0.5;" x1="642" x2="955" y1="550.4844" y2="550.4844"/></g><!--class ScientificCameraROIData--><g id="elem_ScientificCameraROIData"><rect codeLine="29" fill="#F1F1F1" height="80.5938" id="ScientificCameraROIData" rx="2.5" ry="2.5" style="stroke:#181818;stroke-width:0.5;" width="235" x="371" y="453"/><ellipse cx="395.9" cy="469" fill="#ADD1B2" rx="11" ry="11" style="stroke:#181818;stroke-width:1.0;"/><path d="M398.8844,474.6406 Q398.3063,474.9375 397.6656,475.0781 Q397.025,475.2344 396.3219,475.2344 Q393.8063,475.2344 392.4781,473.5938 Q391.1656,471.9375 391.1656,468.8125 Q391.1656,465.6719 392.4781,464.0313 Q393.8063,462.375 396.3219,462.375 Q397.025,462.375 397.6656,462.5313 Q398.3219,462.6719 398.8844,462.9688 L398.8844,465.6875 Q398.2438,465.1094 397.65,464.8438 Q397.0563,464.5781 396.4313,464.5781 Q395.0875,464.5781 394.4,465.6406 Q393.7125,466.7031 393.7125,468.8125 Q393.7125,470.9063 394.4,471.9844 Q395.0875,473.0469 396.4313,473.0469 Q397.0563,473.0469 397.65,472.7813 Q398.2438,472.5 398.8844,471.9219 L398.8844,474.6406 Z " fill="#000000"/><text fill="#000000" font-family="sans-serif" font-size="14" lengthAdjust="spacing" textLength="181" x="412.1" y="473.8467">ScientificCameraROIData</text><line style="stroke:#181818;stroke-width:0.5;" x1="372" x2="605" y1="485" y2="485"/><text fill="#000000" font-family="sans-serif" font-size="14" lengthAdjust="spacing" textLength="88" x="377" y="501.9951">label : string</text><text fill="#000000" font-family="sans-serif" font-size="14" lengthAdjust="spacing" textLength="223" x="377" y="518.292">marker : np.ndarray(dtype=int)</text><line style="stroke:#181818;stroke-width:0.5;" x1="372" x2="605" y1="525.5938" y2="525.5938"/></g><!--class ScientificCameraStatisticsData--><g id="elem_ScientificCameraStatisticsData"><rect codeLine="34" fill="#F1F1F1" height="325.0469" id="ScientificCameraStatisticsData" rx="2.5" ry="2.5" style="stroke:#181818;stroke-width:0.5;" width="329" x="7" y="331"/><ellipse cx="57.75" cy="347" fill="#ADD1B2" rx="11" ry="11" style="stroke:#181818;stroke-width:1.0;"/><path d="M60.7344,352.6406 Q60.1563,352.9375 59.5156,353.0781 Q58.875,353.2344 58.1719,353.2344 Q55.6563,353.2344 54.3281,351.5938 Q53.0156,349.9375 53.0156,346.8125 Q53.0156,343.6719 54.3281,342.0313 Q55.6563,340.375 58.1719,340.375 Q58.875,340.375 59.5156,340.5313 Q60.1719,340.6719 60.7344,340.9688 L60.7344,343.6875 Q60.0938,343.1094 59.5,342.8438 Q58.9063,342.5781 58.2813,342.5781 Q56.9375,342.5781 56.25,343.6406 Q55.5625,344.7031 55.5625,346.8125 Q55.5625,348.9063 56.25,349.9844 Q56.9375,351.0469 58.2813,351.0469 Q58.9063,351.0469 59.5,350.7813 Q60.0938,350.5 60.7344,349.9219 L60.7344,352.6406 Z " fill="#000000"/><text fill="#000000" font-family="sans-serif" font-size="14" lengthAdjust="spacing" textLength="219" x="78.25" y="351.8467">ScientificCameraStatisticsData</text><line style="stroke:#181818;stroke-width:0.5;" x1="8" x2="335" y1="363" y2="363"/><text fill="#000000" font-family="sans-serif" font-size="14" lengthAdjust="spacing" textLength="161" x="13" y="379.9951">background_width : int</text><text fill="#000000" font-family="sans-serif" font-size="14" lengthAdjust="spacing" textLength="258" x="13" y="396.292">min_value : np.ndarray(dtype=float)</text><text fill="#000000" font-family="sans-serif" font-size="14" lengthAdjust="spacing" textLength="227" x="13" y="412.5889">min_x : np.ndarray(dtype=float)</text><text fill="#000000" font-family="sans-serif" font-size="14" lengthAdjust="spacing" textLength="227" x="13" y="428.8857">min_y : np.ndarray(dtype=float)</text><text fill="#000000" font-family="sans-serif" font-size="14" lengthAdjust="spacing" textLength="262" x="13" y="445.1826">max_value : np.ndarray(dtype=float)</text><text fill="#000000" font-family="sans-serif" font-size="14" lengthAdjust="spacing" textLength="231" x="13" y="461.4795">max_x : np.ndarray(dtype=float)</text><text fill="#000000" font-family="sans-serif" font-size="14" lengthAdjust="spacing" textLength="231" x="13" y="477.7764">max_y : np.ndarray(dtype=float)</text><text fill="#000000" font-family="sans-serif" font-size="14" lengthAdjust="spacing" textLength="226" x="13" y="494.0732">mean : np.ndarray(dtype=float)</text><text fill="#000000" font-family="sans-serif" font-size="14" lengthAdjust="spacing" textLength="217" x="13" y="510.3701">total : np.ndarray(dtype=float)</text><text fill="#000000" font-family="sans-serif" font-size="14" lengthAdjust="spacing" textLength="208" x="13" y="526.667">net : np.ndarray(dtype=float)</text><text fill="#000000" font-family="sans-serif" font-size="14" lengthAdjust="spacing" textLength="228" x="13" y="542.9639">sigma : np.ndarray(dtype=float)</text><text fill="#000000" font-family="sans-serif" font-size="14" lengthAdjust="spacing" textLength="178" x="13" y="559.2607">centroid_threshold : float</text><text fill="#000000" font-family="sans-serif" font-size="14" lengthAdjust="spacing" textLength="259" x="13" y="575.5576">centroid_x : np.ndarray(dtype=float)</text><text fill="#000000" font-family="sans-serif" font-size="14" lengthAdjust="spacing" textLength="259" x="13" y="591.8545">centroid_y : np.ndarray(dtype=float)</text><text fill="#000000" font-family="sans-serif" font-size="14" lengthAdjust="spacing" textLength="309" x="13" y="608.1514">centroid_sigma_x : np.ndarray(dtype=float)</text><text fill="#000000" font-family="sans-serif" font-size="14" lengthAdjust="spacing" textLength="309" x="13" y="624.4482">centroid_sigma_y : np.ndarray(dtype=float)</text><text fill="#000000" font-family="sans-serif" font-size="14" lengthAdjust="spacing" textLength="317" x="13" y="640.7451">centroid_sigma_xy : np.ndarray(dtype=float)</text><line style="stroke:#181818;stroke-width:0.5;" x1="8" x2="335" y1="648.0469" y2="648.0469"/></g><!--reverse link MeasureData to ChannelData--><g id="link_MeasureData_ChannelData"><path d="M550.8341,63.0209 C586.4341,80.7409 619.33,97.11 655.01,114.86 " fill="none" id="MeasureData-backto-ChannelData" style="stroke:#181818;stroke-width:1.0;"/><polygon fill="none" points="534.72,55,548.1605,68.3922,553.5078,57.6495,534.72,55" style="stroke:#181818;stroke-width:1.0;"/></g><!--reverse link ChannelData to AreaChannelData--><g id="link_ChannelData_AreaChannelData"><path d="M734.7015,176.2794 C750.8615,193.9394 760.93,204.94 777.16,222.68 " fill="none" id="ChannelData-backto-AreaChannelData" style="stroke:#181818;stroke-width:1.0;"/><polygon fill="none" points="722.55,163,730.275,180.3299,739.1279,172.2289,722.55,163" style="stroke:#181818;stroke-width:1.0;"/></g><!--reverse link AreaChannelData to SampleCameraData--><g id="link_AreaChannelData_SampleCameraData"><path d="M885.577,277.7941 C919.767,291.4441 943.2,304.61 973.5,331 C1019.28,370.86 1053.31,435.09 1069.32,469.3 " fill="none" id="AreaChannelData-backto-SampleCameraData" style="stroke:#181818;stroke-width:1.0;"/><polygon fill="none" points="868.86,271.12,883.3523,283.3664,887.8017,272.2218,868.86,271.12" style="stroke:#181818;stroke-width:1.0;"/></g><!--reverse link AreaChannelData to ScientificCameraData--><g id="link_AreaChannelData_ScientificCameraData"><path d="M798.5,289 C798.5,324.78 798.5,377.05 798.5,428.88 " fill="none" id="AreaChannelData-backto-ScientificCameraData" style="stroke:#181818;stroke-width:1.0;"/><polygon fill="none" points="798.5,271,792.5,289,804.5,289,798.5,271" style="stroke:#181818;stroke-width:1.0;"/></g><!--link ScientificCameraStatisticsData to ScientificCameraROIData--><!--link ScientificCameraStatisticsData to ScientificCameraData--><g id="link_ScientificCameraStatisticsData_ScientificCameraData"><path codeLine="24" d="M317.86,330.92 C334.95,318.95 353.09,308.61 372,301 C468.07,262.35 509.28,261.49 605,301 C667.42,326.76 713.006,373.9612 747.636,419.2012 " fill="none" id="ScientificCameraStatisticsData-to-ScientificCameraData" style="stroke:#181818;stroke-width:1.0;"/><polygon fill="#181818" points="754.93,428.73,754.4592,421.5343,747.636,419.2012,748.1067,426.397,754.93,428.73" style="stroke:#181818;stroke-width:1.0;"/><text fill="#000000" font-family="sans-serif" font-size="13" lengthAdjust="spacing" textLength="24" x="300.3681" y="319.7507">0..n</text></g><!--link ScientificCameraROIData to ScientificCameraData--><!--link ScientificCameraROIData to ScientificCameraData--><g id="link_ScientificCameraROIData_ScientificCameraData"><path codeLine="26" d="M606.26,493.5 C617.78,493.5 617.29,493.5 628.81,493.5 " fill="none" id="ScientificCameraROIData-to-ScientificCameraData-1" style="stroke:#181818;stroke-width:1.0;"/><polygon fill="#181818" points="640.81,493.5,634.81,489.5,628.81,493.5,634.81,497.5,640.81,493.5" style="stroke:#181818;stroke-width:1.0;"/><text fill="#000000" font-family="sans-serif" font-size="13" lengthAdjust="spacing" textLength="24" x="614.1673" y="490.1263">0..n</text></g><!--link ScientificCameraROIData to ScientificCameraData--><!--reverse link MeasureData to ScientificCameraROIData--><g id="link_MeasureData_ScientificCameraROIData"><path d="M488.5,73.15 C488.5,147.02 488.5,359.68 488.5,452.86 " fill="none" id="MeasureData-backto-ScientificCameraROIData" style="stroke:#181818;stroke-width:1.0;"/><polygon fill="none" points="488.5,55.15,482.5,73.15,494.5,73.15,488.5,55.15" style="stroke:#181818;stroke-width:1.0;"/></g><!--reverse link MeasureData to ScientificCameraStatisticsData--><g id="link_MeasureData_ScientificCameraStatisticsData"><path d="M462.3538,69.9768 C427.7638,120.2268 353.44,228.2 282.72,330.93 " fill="none" id="MeasureData-backto-ScientificCameraStatisticsData" style="stroke:#181818;stroke-width:1.0;"/><polygon fill="none" points="472.56,55.15,457.4116,66.5748,467.2961,73.3789,472.56,55.15" style="stroke:#181818;stroke-width:1.0;"/></g><!--SRC=[jPHFJy904CNlV8gD5_yaW6SIJGnUF1WJEH92XkxGJjZTrjsfqY3VtQNGQh6KriJUslszDszdjdiPCITkD1mc2WodMWs2M0y31Sxr9K5eGVTw-QiOHs0CgaTW4BXcDDA9PmINMjnzAx07Yr27_lXMe1FGYS8nQBHGOOyzDhrjgGa83TEIWbOwuHyRqtGcHh-ahozFUPeTunYO75FWQj59kLmg87XBoUASIQDNB5KCB3w5IGP6WhMGvTHcIQZaLZ3gnFkmRvQ7lw4hoLc2TxdwkgA8KasIE6l0VLCu3f4Zj8UjdkvHmtBH1s_Nl6_HdqOa9PhP_KcJCmuNjuE1kH3zc_gG9roR2ZVg_gbShx6HTN_7OJx5S1KiKFd9EhPamigI1hloywoPEfdzpEkB7pNwT8O51AlGngcHym-I7FbIthcQWSpy7LJQzgpk-7K7DclBmhfR3i-lEx2jSo2ObYZ73AebQv1Raev23MVOm1y7VzN9EKSMNHGhMLnB5QiIQzkeKf1r5UIfkzVPo_vQhVd2_080]--></g></svg>