<?xml version="1.0" encoding="us-ascii" standalone="no"?><svg xmlns="http://www.w3.org/2000/svg" xmlns:xlink="http://www.w3.org/1999/xlink" contentStyleType="text/css" height="1032px" preserveAspectRatio="none" style="width:1036px;height:1032px;background:#FFFFFF;" version="1.1" viewBox="0 0 1036 1032" width="1036px" zoomAndPan="magnify"><defs/><g><!--class Data--><g id="elem_Data"><rect codeLine="3" fill="#F1F1F1" height="129.4844" id="Data" rx="2.5" ry="2.5" style="stroke:#181818;stroke-width:0.5;" width="190" x="446.5" y="7"/><ellipse cx="520.25" cy="23" fill="#ADD1B2" rx="11" ry="11" style="stroke:#181818;stroke-width:1.0;"/><path d="M523.2344,28.6406 Q522.6563,28.9375 522.0156,29.0781 Q521.375,29.2344 520.6719,29.2344 Q518.1563,29.2344 516.8281,27.5938 Q515.5156,25.9375 515.5156,22.8125 Q515.5156,19.6719 516.8281,18.0313 Q518.1563,16.375 520.6719,16.375 Q521.375,16.375 522.0156,16.5313 Q522.6719,16.6719 523.2344,16.9688 L523.2344,19.6875 Q522.5938,19.1094 522,18.8438 Q521.4063,18.5781 520.7813,18.5781 Q519.4375,18.5781 518.75,19.6406 Q518.0625,20.7031 518.0625,22.8125 Q518.0625,24.9063 518.75,25.9844 Q519.4375,27.0469 520.7813,27.0469 Q521.4063,27.0469 522,26.7813 Q522.5938,26.5 523.2344,25.9219 L523.2344,28.6406 Z " fill="#000000"/><text fill="#000000" font-family="sans-serif" font-size="14" lengthAdjust="spacing" textLength="34" x="540.75" y="27.8467">Data</text><line style="stroke:#181818;stroke-width:0.5;" x1="447.5" x2="635.5" y1="39" y2="39"/><text fill="#000000" font-family="sans-serif" font-size="14" lengthAdjust="spacing" textLength="149" x="452.5" y="55.9951">metadata : Metadata</text><text fill="#000000" font-family="sans-serif" font-size="14" lengthAdjust="spacing" textLength="91" x="452.5" y="72.292">options : dict</text><text fill="#000000" font-family="sans-serif" font-size="14" lengthAdjust="spacing" textLength="130" x="452.5" y="88.5889">_data : np.ndarray</text><text fill="#000000" font-family="sans-serif" font-size="14" lengthAdjust="spacing" textLength="178" x="452.5" y="104.8857">_importer : DataImporter</text><line style="stroke:#181818;stroke-width:0.5;" x1="447.5" x2="635.5" y1="112.1875" y2="112.1875"/><text fill="#000000" font-family="sans-serif" font-size="14" lengthAdjust="spacing" textLength="42" x="452.5" y="129.1826">data()</text></g><!--class Metadata--><g id="elem_Metadata"><rect codeLine="77" fill="#F1F1F1" height="80.5938" id="Metadata" rx="2.5" ry="2.5" style="stroke:#181818;stroke-width:0.5;" width="106" x="685.5" y="31"/><ellipse cx="703.65" cy="47" fill="#ADD1B2" rx="11" ry="11" style="stroke:#181818;stroke-width:1.0;"/><path d="M706.6344,52.6406 Q706.0563,52.9375 705.4156,53.0781 Q704.775,53.2344 704.0719,53.2344 Q701.5563,53.2344 700.2281,51.5938 Q698.9156,49.9375 698.9156,46.8125 Q698.9156,43.6719 700.2281,42.0313 Q701.5563,40.375 704.0719,40.375 Q704.775,40.375 705.4156,40.5313 Q706.0719,40.6719 706.6344,40.9688 L706.6344,43.6875 Q705.9938,43.1094 705.4,42.8438 Q704.8063,42.5781 704.1813,42.5781 Q702.8375,42.5781 702.15,43.6406 Q701.4625,44.7031 701.4625,46.8125 Q701.4625,48.9063 702.15,49.9844 Q702.8375,51.0469 704.1813,51.0469 Q704.8063,51.0469 705.4,50.7813 Q705.9938,50.5 706.6344,49.9219 L706.6344,52.6406 Z " fill="#000000"/><text fill="#000000" font-family="sans-serif" font-size="14" lengthAdjust="spacing" textLength="67" x="718.35" y="51.8467">Metadata</text><line style="stroke:#181818;stroke-width:0.5;" x1="686.5" x2="790.5" y1="63" y2="63"/><text fill="#000000" font-family="sans-serif" font-size="14" lengthAdjust="spacing" textLength="94" x="691.5" y="79.9951">name : string</text><text fill="#000000" font-family="sans-serif" font-size="14" lengthAdjust="spacing" textLength="91" x="691.5" y="96.292">options : dict</text><line style="stroke:#181818;stroke-width:0.5;" x1="686.5" x2="790.5" y1="103.5938" y2="103.5938"/></g><!--class MeasureData--><g id="elem_MeasureData"><rect codeLine="13" fill="#F1F1F1" height="64.2969" id="MeasureData" rx="2.5" ry="2.5" style="stroke:#181818;stroke-width:0.5;" width="246" x="391.5" y="212.5"/><ellipse cx="462.75" cy="228.5" fill="#ADD1B2" rx="11" ry="11" style="stroke:#181818;stroke-width:1.0;"/><path d="M465.7344,234.1406 Q465.1563,234.4375 464.5156,234.5781 Q463.875,234.7344 463.1719,234.7344 Q460.6563,234.7344 459.3281,233.0938 Q458.0156,231.4375 458.0156,228.3125 Q458.0156,225.1719 459.3281,223.5313 Q460.6563,221.875 463.1719,221.875 Q463.875,221.875 464.5156,222.0313 Q465.1719,222.1719 465.7344,222.4688 L465.7344,225.1875 Q465.0938,224.6094 464.5,224.3438 Q463.9063,224.0781 463.2813,224.0781 Q461.9375,224.0781 461.25,225.1406 Q460.5625,226.2031 460.5625,228.3125 Q460.5625,230.4063 461.25,231.4844 Q461.9375,232.5469 463.2813,232.5469 Q463.9063,232.5469 464.5,232.2813 Q465.0938,232 465.7344,231.4219 L465.7344,234.1406 Z " fill="#000000"/><text fill="#000000" font-family="sans-serif" font-size="14" lengthAdjust="spacing" textLength="95" x="483.25" y="233.3467">MeasureData</text><line style="stroke:#181818;stroke-width:0.5;" x1="392.5" x2="636.5" y1="244.5" y2="244.5"/><text fill="#000000" font-family="sans-serif" font-size="14" lengthAdjust="spacing" textLength="234" x="397.5" y="261.4951">positions : np.ndarray(dtype=int)</text><line style="stroke:#181818;stroke-width:0.5;" x1="392.5" x2="636.5" y1="268.7969" y2="268.7969"/></g><!--class MeasureMetadata--><g id="elem_MeasureMetadata"><rect codeLine="82" fill="#F1F1F1" height="64.2969" id="MeasureMetadata" rx="2.5" ry="2.5" style="stroke:#181818;stroke-width:0.5;" width="160" x="672.5" y="212.5"/><ellipse cx="687.5" cy="228.5" fill="#ADD1B2" rx="11" ry="11" style="stroke:#181818;stroke-width:1.0;"/><path d="M690.4844,234.1406 Q689.9063,234.4375 689.2656,234.5781 Q688.625,234.7344 687.9219,234.7344 Q685.4063,234.7344 684.0781,233.0938 Q682.7656,231.4375 682.7656,228.3125 Q682.7656,225.1719 684.0781,223.5313 Q685.4063,221.875 687.9219,221.875 Q688.625,221.875 689.2656,222.0313 Q689.9219,222.1719 690.4844,222.4688 L690.4844,225.1875 Q689.8438,224.6094 689.25,224.3438 Q688.6563,224.0781 688.0313,224.0781 Q686.6875,224.0781 686,225.1406 Q685.3125,226.2031 685.3125,228.3125 Q685.3125,230.4063 686,231.4844 Q686.6875,232.5469 688.0313,232.5469 Q688.6563,232.5469 689.25,232.2813 Q689.8438,232 690.4844,231.4219 L690.4844,234.1406 Z " fill="#000000"/><text fill="#000000" font-family="sans-serif" font-size="14" lengthAdjust="spacing" textLength="128" x="701.5" y="233.3467">MeasureMetadata</text><line style="stroke:#181818;stroke-width:0.5;" x1="673.5" x2="831.5" y1="244.5" y2="244.5"/><text fill="#000000" font-family="sans-serif" font-size="14" lengthAdjust="spacing" textLength="80" x="678.5" y="261.4951">unit : string</text><line style="stroke:#181818;stroke-width:0.5;" x1="673.5" x2="831.5" y1="268.7969" y2="268.7969"/></g><!--class ChannelData--><g id="elem_ChannelData"><rect codeLine="19" fill="#F1F1F1" height="48" id="ChannelData" rx="2.5" ry="2.5" style="stroke:#181818;stroke-width:0.5;" width="125" x="452" y="353"/><ellipse cx="467" cy="369" fill="#ADD1B2" rx="11" ry="11" style="stroke:#181818;stroke-width:1.0;"/><path d="M469.9844,374.6406 Q469.4063,374.9375 468.7656,375.0781 Q468.125,375.2344 467.4219,375.2344 Q464.9063,375.2344 463.5781,373.5938 Q462.2656,371.9375 462.2656,368.8125 Q462.2656,365.6719 463.5781,364.0313 Q464.9063,362.375 467.4219,362.375 Q468.125,362.375 468.7656,362.5313 Q469.4219,362.6719 469.9844,362.9688 L469.9844,365.6875 Q469.3438,365.1094 468.75,364.8438 Q468.1563,364.5781 467.5313,364.5781 Q466.1875,364.5781 465.5,365.6406 Q464.8125,366.7031 464.8125,368.8125 Q464.8125,370.9063 465.5,371.9844 Q466.1875,373.0469 467.5313,373.0469 Q468.1563,373.0469 468.75,372.7813 Q469.3438,372.5 469.9844,371.9219 L469.9844,374.6406 Z " fill="#000000"/><text fill="#000000" font-family="sans-serif" font-size="14" lengthAdjust="spacing" textLength="93" x="481" y="373.8467">ChannelData</text><line style="stroke:#181818;stroke-width:0.5;" x1="453" x2="576" y1="385" y2="385"/><line style="stroke:#181818;stroke-width:0.5;" x1="453" x2="576" y1="393" y2="393"/></g><!--class ChannelMetadata--><g id="elem_ChannelMetadata"><rect codeLine="92" fill="#F1F1F1" height="48" id="ChannelMetadata" rx="2.5" ry="2.5" style="stroke:#181818;stroke-width:0.5;" width="158" x="691.5" y="353"/><ellipse cx="706.5" cy="369" fill="#ADD1B2" rx="11" ry="11" style="stroke:#181818;stroke-width:1.0;"/><path d="M709.4844,374.6406 Q708.9063,374.9375 708.2656,375.0781 Q707.625,375.2344 706.9219,375.2344 Q704.4063,375.2344 703.0781,373.5938 Q701.7656,371.9375 701.7656,368.8125 Q701.7656,365.6719 703.0781,364.0313 Q704.4063,362.375 706.9219,362.375 Q707.625,362.375 708.2656,362.5313 Q708.9219,362.6719 709.4844,362.9688 L709.4844,365.6875 Q708.8438,365.1094 708.25,364.8438 Q707.6563,364.5781 707.0313,364.5781 Q705.6875,364.5781 705,365.6406 Q704.3125,366.7031 704.3125,368.8125 Q704.3125,370.9063 705,371.9844 Q705.6875,373.0469 707.0313,373.0469 Q707.6563,373.0469 708.25,372.7813 Q708.8438,372.5 709.4844,371.9219 L709.4844,374.6406 Z " fill="#000000"/><text fill="#000000" font-family="sans-serif" font-size="14" lengthAdjust="spacing" textLength="126" x="720.5" y="373.8467">ChannelMetadata</text><line style="stroke:#181818;stroke-width:0.5;" x1="692.5" x2="848.5" y1="385" y2="385"/><line style="stroke:#181818;stroke-width:0.5;" x1="692.5" x2="848.5" y1="393" y2="393"/></g><!--class AreaChannelData--><g id="elem_AreaChannelData"><rect codeLine="23" fill="#F1F1F1" height="113.1875" id="AreaChannelData" rx="2.5" ry="2.5" style="stroke:#181818;stroke-width:0.5;" width="287" x="371" y="583.5"/><ellipse cx="446.75" cy="599.5" fill="#ADD1B2" rx="11" ry="11" style="stroke:#181818;stroke-width:1.0;"/><path d="M449.7344,605.1406 Q449.1563,605.4375 448.5156,605.5781 Q447.875,605.7344 447.1719,605.7344 Q444.6563,605.7344 443.3281,604.0938 Q442.0156,602.4375 442.0156,599.3125 Q442.0156,596.1719 443.3281,594.5313 Q444.6563,592.875 447.1719,592.875 Q447.875,592.875 448.5156,593.0313 Q449.1719,593.1719 449.7344,593.4688 L449.7344,596.1875 Q449.0938,595.6094 448.5,595.3438 Q447.9063,595.0781 447.2813,595.0781 Q445.9375,595.0781 445.25,596.1406 Q444.5625,597.2031 444.5625,599.3125 Q444.5625,601.4063 445.25,602.4844 Q445.9375,603.5469 447.2813,603.5469 Q447.9063,603.5469 448.5,603.2813 Q449.0938,603 449.7344,602.4219 L449.7344,605.1406 Z " fill="#000000"/><text fill="#000000" font-family="sans-serif" font-size="14" lengthAdjust="spacing" textLength="127" x="467.25" y="604.3467">AreaChannelData</text><line style="stroke:#181818;stroke-width:0.5;" x1="372" x2="657" y1="615.5" y2="615.5"/><text fill="#000000" font-family="sans-serif" font-size="14" lengthAdjust="spacing" textLength="194" x="377" y="632.4951">roi[] : AreaChannelROIData</text><text fill="#000000" font-family="sans-serif" font-size="14" lengthAdjust="spacing" textLength="229" x="377" y="648.792">acquire_time : float | np.ndarray</text><text fill="#000000" font-family="sans-serif" font-size="14" lengthAdjust="spacing" textLength="275" x="377" y="665.0889">temperature : np.ndarray(dtype=float)</text><text fill="#000000" font-family="sans-serif" font-size="14" lengthAdjust="spacing" textLength="247" x="377" y="681.3857">humidity : np.ndarray(dtype=float)</text><line style="stroke:#181818;stroke-width:0.5;" x1="372" x2="657" y1="688.6875" y2="688.6875"/></g><g id="elem_GMN15"><path d="M339.5,879 L339.5,1025.1953 A0,0 0 0 0 339.5,1025.1953 L705.5,1025.1953 A0,0 0 0 0 705.5,1025.1953 L705.5,889 L695.5,879 L524.63,879 L515.94,696.78 L516.63,879 L339.5,879 A0,0 0 0 0 339.5,879 " fill="#FEFFDD" style="stroke:#181818;stroke-width:0.5;"/><path d="M695.5,879 L695.5,889 L705.5,889 L695.5,879 " fill="#FEFFDD" style="stroke:#181818;stroke-width:0.5;"/><text fill="#000000" font-family="sans-serif" font-size="13" lengthAdjust="spacing" textLength="337" x="345.5" y="896.0669">acquire_time can be a static or dynamic parameter.</text><text fill="#000000" font-family="sans-serif" font-size="13" lengthAdjust="spacing" textLength="8" x="345.5" y="911.1997">&#160;</text><text fill="#000000" font-family="sans-serif" font-size="13" lengthAdjust="spacing" textLength="160" x="345.5" y="926.3325">What about the different</text><text fill="#000000" font-family="monospace" font-size="13" lengthAdjust="spacing" textLength="88" x="509.5" y="926.3325">temperature</text><text fill="#000000" font-family="sans-serif" font-size="13" lengthAdjust="spacing" textLength="82" x="601.5" y="926.3325">parameters?</text><text fill="#000000" font-family="sans-serif" font-size="13" lengthAdjust="spacing" textLength="52" x="345.5" y="941.4653">There is</text><text fill="#000000" font-family="monospace" font-size="13" lengthAdjust="spacing" textLength="88" x="401.5" y="941.4653">Temperature</text><text fill="#000000" font-family="sans-serif" font-size="13" lengthAdjust="spacing" textLength="4" x="489.5" y="941.4653">,</text><text fill="#000000" font-family="monospace" font-size="13" lengthAdjust="spacing" textLength="136" x="497.5" y="941.4653">TemperatureActual</text><text fill="#000000" font-family="sans-serif" font-size="13" lengthAdjust="spacing" textLength="4" x="633.5" y="941.4653">,</text><text fill="#000000" font-family="monospace" font-size="13" lengthAdjust="spacing" textLength="120" x="345.5" y="956.5981">Temperature_RBV</text><text fill="#000000" font-family="sans-serif" font-size="13" lengthAdjust="spacing" textLength="101" x="469.5" y="956.5981">and sometimes</text><text fill="#000000" font-family="monospace" font-size="13" lengthAdjust="spacing" textLength="80" x="574.5" y="956.5981">XXX_Cooler</text><text fill="#000000" font-family="sans-serif" font-size="13" lengthAdjust="spacing" textLength="4" x="654.5" y="956.5981">.</text><text fill="#000000" font-family="sans-serif" font-size="13" lengthAdjust="spacing" textLength="8" x="345.5" y="971.731">&#160;</text><text fill="#000000" font-family="sans-serif" font-size="13" lengthAdjust="spacing" textLength="345" x="345.5" y="986.8638">For Pilatus, there seem to be three temperatures and</text><text fill="#000000" font-family="sans-serif" font-size="13" lengthAdjust="spacing" textLength="331" x="345.5" y="1001.9966">three humidity detectors. Are all these values read</text><text fill="#000000" font-family="sans-serif" font-size="13" lengthAdjust="spacing" textLength="199" x="345.5" y="1017.1294">for each PositionCount/image?</text></g><!--class AreaChannelMetadata--><g id="elem_AreaChannelMetadata"><rect codeLine="94" fill="#F1F1F1" height="113.1875" id="AreaChannelMetadata" rx="2.5" ry="2.5" style="stroke:#181818;stroke-width:0.5;" width="192" x="693.5" y="583.5"/><ellipse cx="708.5" cy="599.5" fill="#ADD1B2" rx="11" ry="11" style="stroke:#181818;stroke-width:1.0;"/><path d="M711.4844,605.1406 Q710.9063,605.4375 710.2656,605.5781 Q709.625,605.7344 708.9219,605.7344 Q706.4063,605.7344 705.0781,604.0938 Q703.7656,602.4375 703.7656,599.3125 Q703.7656,596.1719 705.0781,594.5313 Q706.4063,592.875 708.9219,592.875 Q709.625,592.875 710.2656,593.0313 Q710.9219,593.1719 711.4844,593.4688 L711.4844,596.1875 Q710.8438,595.6094 710.25,595.3438 Q709.6563,595.0781 709.0313,595.0781 Q707.6875,595.0781 707,596.1406 Q706.3125,597.2031 706.3125,599.3125 Q706.3125,601.4063 707,602.4844 Q707.6875,603.5469 709.0313,603.5469 Q709.6563,603.5469 710.25,603.2813 Q710.8438,603 711.4844,602.4219 L711.4844,605.1406 Z " fill="#000000"/><text fill="#000000" font-family="sans-serif" font-size="14" lengthAdjust="spacing" textLength="160" x="722.5" y="604.3467">AreaChannelMetadata</text><line style="stroke:#181818;stroke-width:0.5;" x1="694.5" x2="884.5" y1="615.5" y2="615.5"/><text fill="#000000" font-family="sans-serif" font-size="14" lengthAdjust="spacing" textLength="76" x="699.5" y="632.4951">gain : float</text><text fill="#000000" font-family="sans-serif" font-size="14" lengthAdjust="spacing" textLength="140" x="699.5" y="648.792">reverse_x : boolean</text><text fill="#000000" font-family="sans-serif" font-size="14" lengthAdjust="spacing" textLength="140" x="699.5" y="665.0889">reverse_y : boolean</text><text fill="#000000" font-family="sans-serif" font-size="14" lengthAdjust="spacing" textLength="106" x="699.5" y="681.3857">filetype : string</text><line style="stroke:#181818;stroke-width:0.5;" x1="694.5" x2="884.5" y1="688.6875" y2="688.6875"/></g><!--class AreaChannelROIData--><g id="elem_AreaChannelROIData"><rect codeLine="45" fill="#F1F1F1" height="357.6406" id="AreaChannelROIData" rx="2.5" ry="2.5" style="stroke:#181818;stroke-width:0.5;" width="329" x="7" y="461"/><ellipse cx="91.25" cy="477" fill="#ADD1B2" rx="11" ry="11" style="stroke:#181818;stroke-width:1.0;"/><path d="M94.2344,482.6406 Q93.6563,482.9375 93.0156,483.0781 Q92.375,483.2344 91.6719,483.2344 Q89.1563,483.2344 87.8281,481.5938 Q86.5156,479.9375 86.5156,476.8125 Q86.5156,473.6719 87.8281,472.0313 Q89.1563,470.375 91.6719,470.375 Q92.375,470.375 93.0156,470.5313 Q93.6719,470.6719 94.2344,470.9688 L94.2344,473.6875 Q93.5938,473.1094 93,472.8438 Q92.4063,472.5781 91.7813,472.5781 Q90.4375,472.5781 89.75,473.6406 Q89.0625,474.7031 89.0625,476.8125 Q89.0625,478.9063 89.75,479.9844 Q90.4375,481.0469 91.7813,481.0469 Q92.4063,481.0469 93,480.7813 Q93.5938,480.5 94.2344,479.9219 L94.2344,482.6406 Z " fill="#000000"/><text fill="#000000" font-family="sans-serif" font-size="14" lengthAdjust="spacing" textLength="152" x="111.75" y="481.8467">AreaChannelROIData</text><line style="stroke:#181818;stroke-width:0.5;" x1="8" x2="335" y1="493" y2="493"/><text fill="#000000" font-family="sans-serif" font-size="14" lengthAdjust="spacing" textLength="88" x="13" y="509.9951">label : string</text><text fill="#000000" font-family="sans-serif" font-size="14" lengthAdjust="spacing" textLength="223" x="13" y="526.292">marker : np.ndarray(dtype=int)</text><text fill="#000000" font-family="sans-serif" font-size="14" lengthAdjust="spacing" textLength="161" x="13" y="542.5889">background_width : int</text><text fill="#000000" font-family="sans-serif" font-size="14" lengthAdjust="spacing" textLength="258" x="13" y="558.8857">min_value : np.ndarray(dtype=float)</text><text fill="#000000" font-family="sans-serif" font-size="14" lengthAdjust="spacing" textLength="227" x="13" y="575.1826">min_x : np.ndarray(dtype=float)</text><text fill="#000000" font-family="sans-serif" font-size="14" lengthAdjust="spacing" textLength="227" x="13" y="591.4795">min_y : np.ndarray(dtype=float)</text><text fill="#000000" font-family="sans-serif" font-size="14" lengthAdjust="spacing" textLength="262" x="13" y="607.7764">max_value : np.ndarray(dtype=float)</text><text fill="#000000" font-family="sans-serif" font-size="14" lengthAdjust="spacing" textLength="231" x="13" y="624.0732">max_x : np.ndarray(dtype=float)</text><text fill="#000000" font-family="sans-serif" font-size="14" lengthAdjust="spacing" textLength="231" x="13" y="640.3701">max_y : np.ndarray(dtype=float)</text><text fill="#000000" font-family="sans-serif" font-size="14" lengthAdjust="spacing" textLength="226" x="13" y="656.667">mean : np.ndarray(dtype=float)</text><text fill="#000000" font-family="sans-serif" font-size="14" lengthAdjust="spacing" textLength="217" x="13" y="672.9639">total : np.ndarray(dtype=float)</text><text fill="#000000" font-family="sans-serif" font-size="14" lengthAdjust="spacing" textLength="208" x="13" y="689.2607">net : np.ndarray(dtype=float)</text><text fill="#000000" font-family="sans-serif" font-size="14" lengthAdjust="spacing" textLength="228" x="13" y="705.5576">sigma : np.ndarray(dtype=float)</text><text fill="#000000" font-family="sans-serif" font-size="14" lengthAdjust="spacing" textLength="178" x="13" y="721.8545">centroid_threshold : float</text><text fill="#000000" font-family="sans-serif" font-size="14" lengthAdjust="spacing" textLength="259" x="13" y="738.1514">centroid_x : np.ndarray(dtype=float)</text><text fill="#000000" font-family="sans-serif" font-size="14" lengthAdjust="spacing" textLength="259" x="13" y="754.4482">centroid_y : np.ndarray(dtype=float)</text><text fill="#000000" font-family="sans-serif" font-size="14" lengthAdjust="spacing" textLength="309" x="13" y="770.7451">centroid_sigma_x : np.ndarray(dtype=float)</text><text fill="#000000" font-family="sans-serif" font-size="14" lengthAdjust="spacing" textLength="309" x="13" y="787.042">centroid_sigma_y : np.ndarray(dtype=float)</text><text fill="#000000" font-family="sans-serif" font-size="14" lengthAdjust="spacing" textLength="317" x="13" y="803.3389">centroid_sigma_xy : np.ndarray(dtype=float)</text><line style="stroke:#181818;stroke-width:0.5;" x1="8" x2="335" y1="810.6406" y2="810.6406"/></g><g id="elem_GMN23"><path d="M25,894 L25,1009.9297 A0,0 0 0 0 25,1009.9297 L304,1009.9297 A0,0 0 0 0 304,1009.9297 L304,904 L294,894 L169.79,894 L167.48,819.08 L161.79,894 L25,894 A0,0 0 0 0 25,894 " fill="#FEFFDD" style="stroke:#181818;stroke-width:0.5;"/><path d="M294,894 L294,904 L304,904 L294,894 " fill="#FEFFDD" style="stroke:#181818;stroke-width:0.5;"/><text fill="#000000" font-family="sans-serif" font-size="13" lengthAdjust="spacing" textLength="258" x="31" y="911.0669">Marker should be a four-element vector</text><text fill="#000000" font-family="sans-serif" font-size="13" lengthAdjust="spacing" textLength="232" x="31" y="926.1997">with coordinates of the image area.</text><text fill="#000000" font-family="sans-serif" font-size="13" lengthAdjust="spacing" textLength="179" x="31" y="941.3325">Is "marker" the best name?</text><text fill="#000000" font-family="sans-serif" font-size="13" lengthAdjust="spacing" textLength="8" x="31" y="956.4653">&#160;</text><text fill="#000000" font-family="sans-serif" font-size="13" lengthAdjust="spacing" textLength="244" x="31" y="971.5981">What other attributes are relevant for</text><text fill="#000000" font-family="sans-serif" font-size="13" lengthAdjust="spacing" textLength="128" x="31" y="986.731">Area Channel ROIs?</text><text fill="#000000" font-family="sans-serif" font-size="13" lengthAdjust="spacing" textLength="222" x="31" y="1001.8638">How about binning and reversing?</text></g><!--class DeviceMetadata--><g id="elem_DeviceMetadata"><rect codeLine="86" fill="#F1F1F1" height="96.8906" id="DeviceMetadata" rx="2.5" ry="2.5" style="stroke:#181818;stroke-width:0.5;" width="161" x="868" y="196"/><ellipse cx="888.85" cy="212" fill="#B4A7E5" rx="11" ry="11" style="stroke:#181818;stroke-width:1.0;"/><path d="M884.7719,207.75 L884.7719,205.5938 L892.1625,205.5938 L892.1625,207.75 L889.6938,207.75 L889.6938,215.8438 L892.1625,215.8438 L892.1625,218 L884.7719,218 L884.7719,215.8438 L887.2406,215.8438 L887.2406,207.75 L884.7719,207.75 Z " fill="#000000"/><text fill="#000000" font-family="sans-serif" font-size="14" font-style="italic" lengthAdjust="spacing" textLength="116" x="904.15" y="216.8467">DeviceMetadata</text><line style="stroke:#181818;stroke-width:0.5;" x1="869" x2="1028" y1="228" y2="228"/><text fill="#000000" font-family="sans-serif" font-size="14" lengthAdjust="spacing" textLength="66" x="874" y="244.9951">id : string</text><text fill="#000000" font-family="sans-serif" font-size="14" lengthAdjust="spacing" textLength="70" x="874" y="261.292">pv : string</text><text fill="#000000" font-family="sans-serif" font-size="14" lengthAdjust="spacing" textLength="149" x="874" y="277.5889">access_mode : string</text><line style="stroke:#181818;stroke-width:0.5;" x1="869" x2="1028" y1="284.8906" y2="284.8906"/></g><!--reverse link Data to Metadata--><g id="link_Data_Metadata"><path codeLine="11" d="M648.54,71.5 C664.73,71.5 668.93,71.5 685.13,71.5 " fill="none" id="Data-backto-Metadata" style="stroke:#181818;stroke-width:1.0;"/><polygon fill="#181818" points="636.54,71.5,642.54,75.5,648.54,71.5,642.54,67.5,636.54,71.5" style="stroke:#181818;stroke-width:1.0;"/></g><!--reverse link Data to MeasureData--><g id="link_Data_MeasureData"><path d="M528.6416,153.9496 C524.5316,179.9696 522.77,191.1 519.42,212.35 " fill="none" id="Data-backto-MeasureData" style="stroke:#181818;stroke-width:1.0;"/><polygon fill="none" points="531.45,136.17,522.7151,153.0134,534.5681,154.8857,531.45,136.17" style="stroke:#181818;stroke-width:1.0;"/></g><!--reverse link MeasureData to MeasureMetadata--><g id="link_MeasureData_MeasureMetadata"><path codeLine="17" d="M649.68,244.5 C661.2,244.5 660.71,244.5 672.22,244.5 " fill="none" id="MeasureData-backto-MeasureMetadata" style="stroke:#181818;stroke-width:1.0;"/><polygon fill="#181818" points="637.68,244.5,643.68,248.5,649.68,244.5,643.68,240.5,637.68,244.5" style="stroke:#181818;stroke-width:1.0;"/></g><!--reverse link MeasureData to ChannelData--><g id="link_MeasureData_ChannelData"><path d="M514.5,294.76 C514.5,318.13 514.5,331.58 514.5,352.76 " fill="none" id="MeasureData-backto-ChannelData" style="stroke:#181818;stroke-width:1.0;"/><polygon fill="none" points="514.5,276.76,508.5,294.76,520.5,294.76,514.5,276.76" style="stroke:#181818;stroke-width:1.0;"/></g><!--reverse link ChannelData to ChannelMetadata--><g id="link_ChannelData_ChannelMetadata"><path codeLine="21" d="M589.5,377 C627.45,377 653.39,377 691.34,377 " fill="none" id="ChannelData-backto-ChannelMetadata" style="stroke:#181818;stroke-width:1.0;"/><polygon fill="#181818" points="577.5,377,583.5,381,589.5,377,583.5,373,577.5,377" style="stroke:#181818;stroke-width:1.0;"/></g><!--reverse link ChannelData to AreaChannelData--><g id="link_ChannelData_AreaChannelData"><path d="M514.5,419.16 C514.5,459.77 514.5,526.87 514.5,583.48 " fill="none" id="ChannelData-backto-AreaChannelData" style="stroke:#181818;stroke-width:1.0;"/><polygon fill="none" points="514.5,401.16,508.5,419.16,520.5,419.16,514.5,401.16" style="stroke:#181818;stroke-width:1.0;"/></g><!--reverse link AreaChannelData to AreaChannelMetadata--><g id="link_AreaChannelData_AreaChannelMetadata"><path codeLine="41" d="M670.18,640 C681.89,640 681.6,640 693.32,640 " fill="none" id="AreaChannelData-backto-AreaChannelMetadata" style="stroke:#181818;stroke-width:1.0;"/><polygon fill="#181818" points="658.18,640,664.18,644,670.18,640,664.18,636,658.18,640" style="stroke:#181818;stroke-width:1.0;"/></g><!--link AreaChannelROIData to AreaChannelData--><g id="link_AreaChannelROIData_AreaChannelData"><path codeLine="43" d="M336.3,640 C347.79,640 347.27,640 358.76,640 " fill="none" id="AreaChannelROIData-to-AreaChannelData" style="stroke:#181818;stroke-width:1.0;"/><polygon fill="#181818" points="370.76,640,364.76,636,358.76,640,364.76,644,370.76,640" style="stroke:#181818;stroke-width:1.0;"/><text fill="#000000" font-family="sans-serif" font-size="13" lengthAdjust="spacing" textLength="24" x="343.7588" y="636.7609">0..n</text></g><!--reverse link ChannelData to AreaChannelROIData--><g id="link_ChannelData_AreaChannelROIData"><path d="M443.6345,408.6782 C411.3045,423.5882 386.65,437.08 353.5,461 C347.68,465.2 341.86,469.59 336.07,474.12 " fill="none" id="ChannelData-backto-AreaChannelROIData" style="stroke:#181818;stroke-width:1.0;"/><polygon fill="none" points="459.98,401.14,441.1218,403.2297,446.1473,414.1267,459.98,401.14" style="stroke:#181818;stroke-width:1.0;"/></g><!--reverse link Metadata to MeasureMetadata--><g id="link_Metadata_MeasureMetadata"><path d="M743.2151,130.1003 C745.7051,160.5903 747.64,184.17 749.95,212.31 " fill="none" id="Metadata-backto-MeasureMetadata" style="stroke:#181818;stroke-width:1.0;"/><polygon fill="none" points="741.75,112.16,737.235,130.5886,749.1952,129.6119,741.75,112.16" style="stroke:#181818;stroke-width:1.0;"/></g><!--reverse link MeasureMetadata to ChannelMetadata--><g id="link_MeasureMetadata_ChannelMetadata"><path d="M759.2744,294.5905 C762.5044,317.9605 764.37,331.58 767.29,352.76 " fill="none" id="MeasureMetadata-backto-ChannelMetadata" style="stroke:#181818;stroke-width:1.0;"/><polygon fill="none" points="756.81,276.76,753.3309,295.412,765.2179,293.769,756.81,276.76" style="stroke:#181818;stroke-width:1.0;"/></g><!--reverse link DeviceMetadata to ChannelMetadata--><g id="link_DeviceMetadata_ChannelMetadata"><path d="M868.9612,303.8098 C841.1512,324.1898 824.49,336.42 801.94,352.95 " fill="none" id="DeviceMetadata-backto-ChannelMetadata" style="stroke:#181818;stroke-width:1.0;stroke-dasharray:7.0,7.0;"/><polygon fill="none" points="883.48,293.17,865.4146,298.9702,872.5078,308.6494,883.48,293.17" style="stroke:#181818;stroke-width:1.0;"/></g><!--reverse link ChannelMetadata to AreaChannelMetadata--><g id="link_ChannelMetadata_AreaChannelMetadata"><path d="M773.4941,419.1127 C776.4441,459.7227 781.34,526.87 785.46,583.48 " fill="none" id="ChannelMetadata-backto-AreaChannelMetadata" style="stroke:#181818;stroke-width:1.0;"/><polygon fill="none" points="772.19,401.16,767.5099,419.5474,779.4784,418.678,772.19,401.16" style="stroke:#181818;stroke-width:1.0;"/></g><!--SRC=[dLPHRzCm47xFhx3oma2iutaIGcCJOWyJQ9fW4aBL9RuqrXmxs9TkrTX_v-oaRPnMqDAd-lpTtUVBtMU_gebQVtvsrcemr3LwLjhchDJW_QbKi73GP5bSYYiW4C-Pu5-3138ipyNDy3VQRKlA6izcgKgAflc0C-tCI70ELhrPDQrrX8wtGk3hOHatWyl9w-mbosBEDwVRB0EN6mJVEOpR-4HePCBlkLAevOjehLThHbi29v9MBRvNXcAESQoOAYwd6IzhC0Prad7acMLZ08SPbjCm5mvXNwYnhJ-3i-h7J-OzyhZzSdsrBZMKlphbS4wgGKPLsWA9tzCohmj1sBJeW9Zjlb94xzU9HzqrIYfQ_GN-aXbBA0fBP1jXg-dXTdcMO4I10eGd85KAwuHS6MZuRmlSQiWTCCkYt_UQpmE5xKXGZTnFLOKE3Oay7nqcpxUE_aDqlAiP9vHduDqO-3OrN9JKWMPpT4gsvhSVlt5WC59uow6PUOXsVty_lxHMeylpWUGdFi1NfTdBlmqqER57R0JPS4og7UAuz3x4Z8xzrgR6alcNP9sVXHeAq3f4yoYMe3jsuxhsVXKdH2XhyNNex4lR6JfJ3IpmGyQT9C8doR9fct53ZapRfjnjBf6_cyrCBaxVx7pEtHPU- -pfudGGDHIekPKyEMKMoLO3xY7AmFu13T02oeU5uvFA-QEIL3EOzz8eoinZiGvixu1_EWAxEXGBJyVnOFpJ4TY3UI2Fsc5GiWJwGAn1EX3frQA1Vs1BdcUMEJaFu-1hg-LQoP9G6zYXXTeuh8vrYAoFpzEx_M-s_zNOyNLmqqyH5x7ZAaQDhMpdJb5Z4rHp6VKbGXyLJr1fhPFA0B6wSDGWiL54173yMSHTi-Zrmvd7_G8z2HPh5fgjGjkWUWA8vxheGZ3sPxdIkEJdH92h20sar-8WcFOWrP_juo3nXJA6XI5ghiCbYpclneAskVU7XqSlBu5DgYgJ5yZBvC6myTzUuKd0pYZQ1cHlrXbq5PGehd2fIfpWbKpJjyjq3MM9tiyRAp49cxmfzf1AoV9RgV-CVi9YZoJl19lQU-8BK2OPjhxg67k_2BSScCI-cjWhfJ4qwlXOVm00]--></g></svg>