<?xml version="1.0" encoding="us-ascii" standalone="no"?><svg xmlns="http://www.w3.org/2000/svg" xmlns:xlink="http://www.w3.org/1999/xlink" contentStyleType="text/css" height="791px" preserveAspectRatio="none" style="width:1009px;height:791px;background:#FFFFFF;" version="1.1" viewBox="0 0 1009 791" width="1009px" zoomAndPan="magnify"><defs/><g><!--class Data--><g id="elem_Data"><rect codeLine="3" fill="#F1F1F1" height="113.625" id="Data" rx="2.5" ry="2.5" style="stroke:#181818;stroke-width:0.5;" width="164" x="344" y="7"/><ellipse cx="406.75" cy="23" fill="#ADD1B2" rx="11" ry="11" style="stroke:#181818;stroke-width:1.0;"/><path d="M406.7969,29.2031 C408.2969,29.2031 409.5313,28.6406 410.4375,27.5781 L409.0625,26.0625 C408.5156,26.6563 407.8594,27.0469 407.0625,27.0469 C405.3906,27.0469 404.2344,25.7188 404.2344,23.4375 C404.2344,21.2188 405.3906,19.875 406.9531,19.875 C407.7656,19.875 408.3594,20.1875 408.8906,20.6719 L410.2656,19.125 C409.5156,18.3906 408.3594,17.7188 406.9531,17.7188 C404,17.7188 401.6719,19.8594 401.6719,23.5313 C401.6719,27.25 404.0469,29.2031 406.7969,29.2031 Z " fill="#000000"/><text fill="#000000" font-family="sans-serif" font-size="14" lengthAdjust="spacing" textLength="30" x="427.25" y="27.7852">Data</text><line style="stroke:#181818;stroke-width:0.5;" x1="345" x2="507" y1="39" y2="39"/><text fill="#000000" font-family="sans-serif" font-size="14" lengthAdjust="spacing" textLength="131" x="350" y="55.9883">metadata : Metadata</text><text fill="#000000" font-family="sans-serif" font-size="14" lengthAdjust="spacing" textLength="113" x="350" y="72.3945">_data : np.ndarray</text><text fill="#000000" font-family="sans-serif" font-size="14" lengthAdjust="spacing" textLength="152" x="350" y="88.8008">_importer : DataImporter</text><line style="stroke:#181818;stroke-width:0.5;" x1="345" x2="507" y1="96.2188" y2="96.2188"/><text fill="#000000" font-family="sans-serif" font-size="14" lengthAdjust="spacing" textLength="39" x="350" y="113.207">data()</text></g><!--class Metadata--><g id="elem_Metadata"><rect codeLine="60" fill="#F1F1F1" height="64.4063" id="Metadata" rx="2.5" ry="2.5" style="stroke:#181818;stroke-width:0.5;" width="93" x="556.5" y="32"/><ellipse cx="571.5" cy="48" fill="#ADD1B2" rx="11" ry="11" style="stroke:#181818;stroke-width:1.0;"/><path d="M571.5469,54.2031 C573.0469,54.2031 574.2813,53.6406 575.1875,52.5781 L573.8125,51.0625 C573.2656,51.6563 572.6094,52.0469 571.8125,52.0469 C570.1406,52.0469 568.9844,50.7188 568.9844,48.4375 C568.9844,46.2188 570.1406,44.875 571.7031,44.875 C572.5156,44.875 573.1094,45.1875 573.6406,45.6719 L575.0156,44.125 C574.2656,43.3906 573.1094,42.7188 571.7031,42.7188 C568.75,42.7188 566.4219,44.8594 566.4219,48.5313 C566.4219,52.25 568.7969,54.2031 571.5469,54.2031 Z " fill="#000000"/><text fill="#000000" font-family="sans-serif" font-size="14" lengthAdjust="spacing" textLength="61" x="585.5" y="52.7852">Metadata</text><line style="stroke:#181818;stroke-width:0.5;" x1="557.5" x2="648.5" y1="64" y2="64"/><text fill="#000000" font-family="sans-serif" font-size="14" lengthAdjust="spacing" textLength="80" x="562.5" y="80.9883">name : string</text><line style="stroke:#181818;stroke-width:0.5;" x1="557.5" x2="648.5" y1="88.4063" y2="88.4063"/></g><!--class MeasureData--><g id="elem_MeasureData"><rect codeLine="12" fill="#F1F1F1" height="64.4063" id="MeasureData" rx="2.5" ry="2.5" style="stroke:#181818;stroke-width:0.5;" width="216" x="292" y="197.5"/><ellipse cx="353.75" cy="213.5" fill="#ADD1B2" rx="11" ry="11" style="stroke:#181818;stroke-width:1.0;"/><path d="M353.7969,219.7031 C355.2969,219.7031 356.5313,219.1406 357.4375,218.0781 L356.0625,216.5625 C355.5156,217.1563 354.8594,217.5469 354.0625,217.5469 C352.3906,217.5469 351.2344,216.2188 351.2344,213.9375 C351.2344,211.7188 352.3906,210.375 353.9531,210.375 C354.7656,210.375 355.3594,210.6875 355.8906,211.1719 L357.2656,209.625 C356.5156,208.8906 355.3594,208.2188 353.9531,208.2188 C351,208.2188 348.6719,210.3594 348.6719,214.0313 C348.6719,217.75 351.0469,219.7031 353.7969,219.7031 Z " fill="#000000"/><text fill="#000000" font-family="sans-serif" font-size="14" lengthAdjust="spacing" textLength="84" x="374.25" y="218.2852">MeasureData</text><line style="stroke:#181818;stroke-width:0.5;" x1="293" x2="507" y1="229.5" y2="229.5"/><text fill="#000000" font-family="sans-serif" font-size="14" lengthAdjust="spacing" textLength="204" x="298" y="246.4883">positions : np.ndarray(dtype=int)</text><line style="stroke:#181818;stroke-width:0.5;" x1="293" x2="507" y1="253.9063" y2="253.9063"/></g><!--class MeasureMetadata--><g id="elem_MeasureMetadata"><rect codeLine="64" fill="#F1F1F1" height="64.4063" id="MeasureMetadata" rx="2.5" ry="2.5" style="stroke:#181818;stroke-width:0.5;" width="147" x="543.5" y="197.5"/><ellipse cx="558.5" cy="213.5" fill="#ADD1B2" rx="11" ry="11" style="stroke:#181818;stroke-width:1.0;"/><path d="M558.5469,219.7031 C560.0469,219.7031 561.2813,219.1406 562.1875,218.0781 L560.8125,216.5625 C560.2656,217.1563 559.6094,217.5469 558.8125,217.5469 C557.1406,217.5469 555.9844,216.2188 555.9844,213.9375 C555.9844,211.7188 557.1406,210.375 558.7031,210.375 C559.5156,210.375 560.1094,210.6875 560.6406,211.1719 L562.0156,209.625 C561.2656,208.8906 560.1094,208.2188 558.7031,208.2188 C555.75,208.2188 553.4219,210.3594 553.4219,214.0313 C553.4219,217.75 555.7969,219.7031 558.5469,219.7031 Z " fill="#000000"/><text fill="#000000" font-family="sans-serif" font-size="14" lengthAdjust="spacing" textLength="115" x="572.5" y="218.2852">MeasureMetadata</text><line style="stroke:#181818;stroke-width:0.5;" x1="544.5" x2="689.5" y1="229.5" y2="229.5"/><text fill="#000000" font-family="sans-serif" font-size="14" lengthAdjust="spacing" textLength="69" x="549.5" y="246.4883">unit : string</text><line style="stroke:#181818;stroke-width:0.5;" x1="544.5" x2="689.5" y1="253.9063" y2="253.9063"/></g><!--class ChannelData--><g id="elem_ChannelData"><rect codeLine="18" fill="#F1F1F1" height="48" id="ChannelData" rx="2.5" ry="2.5" style="stroke:#181818;stroke-width:0.5;" width="113" x="343.5" y="338"/><ellipse cx="358.5" cy="354" fill="#ADD1B2" rx="11" ry="11" style="stroke:#181818;stroke-width:1.0;"/><path d="M358.5469,360.2031 C360.0469,360.2031 361.2813,359.6406 362.1875,358.5781 L360.8125,357.0625 C360.2656,357.6563 359.6094,358.0469 358.8125,358.0469 C357.1406,358.0469 355.9844,356.7188 355.9844,354.4375 C355.9844,352.2188 357.1406,350.875 358.7031,350.875 C359.5156,350.875 360.1094,351.1875 360.6406,351.6719 L362.0156,350.125 C361.2656,349.3906 360.1094,348.7188 358.7031,348.7188 C355.75,348.7188 353.4219,350.8594 353.4219,354.5313 C353.4219,358.25 355.7969,360.2031 358.5469,360.2031 Z " fill="#000000"/><text fill="#000000" font-family="sans-serif" font-size="14" lengthAdjust="spacing" textLength="81" x="372.5" y="358.7852">ChannelData</text><line style="stroke:#181818;stroke-width:0.5;" x1="344.5" x2="455.5" y1="370" y2="370"/><line style="stroke:#181818;stroke-width:0.5;" x1="344.5" x2="455.5" y1="378" y2="378"/></g><!--class ChannelMetadata--><g id="elem_ChannelMetadata"><rect codeLine="74" fill="#F1F1F1" height="48" id="ChannelMetadata" rx="2.5" ry="2.5" style="stroke:#181818;stroke-width:0.5;" width="144" x="562" y="338"/><ellipse cx="577" cy="354" fill="#ADD1B2" rx="11" ry="11" style="stroke:#181818;stroke-width:1.0;"/><path d="M577.0469,360.2031 C578.5469,360.2031 579.7813,359.6406 580.6875,358.5781 L579.3125,357.0625 C578.7656,357.6563 578.1094,358.0469 577.3125,358.0469 C575.6406,358.0469 574.4844,356.7188 574.4844,354.4375 C574.4844,352.2188 575.6406,350.875 577.2031,350.875 C578.0156,350.875 578.6094,351.1875 579.1406,351.6719 L580.5156,350.125 C579.7656,349.3906 578.6094,348.7188 577.2031,348.7188 C574.25,348.7188 571.9219,350.8594 571.9219,354.5313 C571.9219,358.25 574.2969,360.2031 577.0469,360.2031 Z " fill="#000000"/><text fill="#000000" font-family="sans-serif" font-size="14" lengthAdjust="spacing" textLength="112" x="591" y="358.7852">ChannelMetadata</text><line style="stroke:#181818;stroke-width:0.5;" x1="563" x2="705" y1="370" y2="370"/><line style="stroke:#181818;stroke-width:0.5;" x1="563" x2="705" y1="378" y2="378"/></g><!--class ArrayChannelData--><g id="elem_ArrayChannelData"><rect codeLine="22" fill="#F1F1F1" height="130.0313" id="ArrayChannelData" rx="2.5" ry="2.5" style="stroke:#181818;stroke-width:0.5;" width="191" x="304.5" y="446"/><ellipse cx="339.3" cy="462" fill="#ADD1B2" rx="11" ry="11" style="stroke:#181818;stroke-width:1.0;"/><path d="M339.3469,468.2031 C340.8469,468.2031 342.0813,467.6406 342.9875,466.5781 L341.6125,465.0625 C341.0656,465.6563 340.4094,466.0469 339.6125,466.0469 C337.9406,466.0469 336.7844,464.7188 336.7844,462.4375 C336.7844,460.2188 337.9406,458.875 339.5031,458.875 C340.3156,458.875 340.9094,459.1875 341.4406,459.6719 L342.8156,458.125 C342.0656,457.3906 340.9094,456.7188 339.5031,456.7188 C336.55,456.7188 334.2219,458.8594 334.2219,462.5313 C334.2219,466.25 336.5969,468.2031 339.3469,468.2031 Z " fill="#000000"/><text fill="#000000" font-family="sans-serif" font-size="14" lengthAdjust="spacing" textLength="115" x="357.7" y="466.7852">ArrayChannelData</text><line style="stroke:#181818;stroke-width:0.5;" x1="305.5" x2="494.5" y1="478" y2="478"/><text fill="#000000" font-family="sans-serif" font-size="14" lengthAdjust="spacing" textLength="171" x="310.5" y="494.9883">roi[] : ArrayChannelROIData</text><text fill="#000000" font-family="sans-serif" font-size="14" lengthAdjust="spacing" textLength="129" x="310.5" y="511.3945">life_time : np.ndarray</text><text fill="#000000" font-family="sans-serif" font-size="14" lengthAdjust="spacing" textLength="134" x="310.5" y="527.8008">real_time : np.ndarray</text><text fill="#000000" font-family="sans-serif" font-size="14" lengthAdjust="spacing" textLength="174" x="310.5" y="544.207">preset_life_time : np.ndarray</text><text fill="#000000" font-family="sans-serif" font-size="14" lengthAdjust="spacing" textLength="179" x="310.5" y="560.6133">preset_real_time : np.ndarray</text><line style="stroke:#181818;stroke-width:0.5;" x1="305.5" x2="494.5" y1="568.0313" y2="568.0313"/></g><g id="elem_GMN15"><path d="M321,636 L321,784.216 A0,0 0 0 0 321,784.216 L523,784.216 A0,0 0 0 0 523,784.216 L523,646 L513,636 L417.84,636 L407.17,576.23 L409.84,636 L321,636 A0,0 0 0 0 321,636 " fill="#FEFFDD" style="stroke:#181818;stroke-width:0.5;"/><path d="M513,636 L513,646 L523,646 L513,636 " fill="#FEFFDD" style="stroke:#181818;stroke-width:0.5;"/><text fill="#000000" font-family="sans-serif" font-size="13" lengthAdjust="spacing" textLength="164" x="327" y="653.0605">Can the "preset_" parameters</text><text fill="#000000" font-family="sans-serif" font-size="13" lengthAdjust="spacing" textLength="153" x="327" y="668.2949">change for each position in</text><text fill="#000000" font-family="sans-serif" font-size="13" lengthAdjust="spacing" textLength="110" x="327" y="683.5293">real measurements</text><text fill="#000000" font-family="sans-serif" font-size="13" font-style="italic" lengthAdjust="spacing" textLength="33" x="440" y="683.5293">within</text><text fill="#000000" font-family="sans-serif" font-size="13" lengthAdjust="spacing" textLength="21" x="476" y="683.5293">one</text><text fill="#000000" font-family="sans-serif" font-size="13" lengthAdjust="spacing" textLength="79" x="327" y="698.7637">scan module?</text><text fill="#000000" font-family="sans-serif" font-size="13" lengthAdjust="spacing" textLength="3" x="327" y="713.998">&#160;</text><text fill="#000000" font-family="sans-serif" font-size="13" lengthAdjust="spacing" textLength="181" x="327" y="729.2324">If not, they are "static" attributes</text><text fill="#000000" font-family="sans-serif" font-size="13" lengthAdjust="spacing" textLength="165" x="327" y="744.4668">and should probably go to the</text><text fill="#000000" font-family="sans-serif" font-size="13" lengthAdjust="spacing" textLength="172" x="327" y="759.7012">corresponding metadata class</text><text fill="#000000" font-family="monospace" font-size="13" lengthAdjust="spacing" textLength="160" x="327" y="775.667">ArrayChannelMetadata</text><text fill="#000000" font-family="sans-serif" font-size="13" lengthAdjust="spacing" textLength="3" x="487" y="776.0422">.</text></g><!--class ArrayChannelMetadata--><g id="elem_ArrayChannelMetadata"><rect codeLine="76" fill="#F1F1F1" height="64.4063" id="ArrayChannelMetadata" rx="2.5" ry="2.5" style="stroke:#181818;stroke-width:0.5;" width="240" x="531" y="479"/><ellipse cx="573.9" cy="495" fill="#ADD1B2" rx="11" ry="11" style="stroke:#181818;stroke-width:1.0;"/><path d="M573.9469,501.2031 C575.4469,501.2031 576.6813,500.6406 577.5875,499.5781 L576.2125,498.0625 C575.6656,498.6563 575.0094,499.0469 574.2125,499.0469 C572.5406,499.0469 571.3844,497.7188 571.3844,495.4375 C571.3844,493.2188 572.5406,491.875 574.1031,491.875 C574.9156,491.875 575.5094,492.1875 576.0406,492.6719 L577.4156,491.125 C576.6656,490.3906 575.5094,489.7188 574.1031,489.7188 C571.15,489.7188 568.8219,491.8594 568.8219,495.5313 C568.8219,499.25 571.1969,501.2031 573.9469,501.2031 Z " fill="#000000"/><text fill="#000000" font-family="sans-serif" font-size="14" lengthAdjust="spacing" textLength="146" x="594.1" y="499.7852">ArrayChannelMetadata</text><line style="stroke:#181818;stroke-width:0.5;" x1="532" x2="770" y1="511" y2="511"/><text fill="#000000" font-family="sans-serif" font-size="14" lengthAdjust="spacing" textLength="228" x="537" y="527.9883">calibration : ArrayChannelCalibration</text><line style="stroke:#181818;stroke-width:0.5;" x1="532" x2="770" y1="535.4063" y2="535.4063"/></g><!--class ArrayChannelROIData--><g id="elem_ArrayChannelROIData"><rect codeLine="45" fill="#F1F1F1" height="80.8125" id="ArrayChannelROIData" rx="2.5" ry="2.5" style="stroke:#181818;stroke-width:0.5;" width="203" x="66.5" y="470.5"/><ellipse cx="96.35" cy="486.5" fill="#ADD1B2" rx="11" ry="11" style="stroke:#181818;stroke-width:1.0;"/><path d="M96.3969,492.7031 C97.8969,492.7031 99.1313,492.1406 100.0375,491.0781 L98.6625,489.5625 C98.1156,490.1563 97.4594,490.5469 96.6625,490.5469 C94.9906,490.5469 93.8344,489.2188 93.8344,486.9375 C93.8344,484.7188 94.9906,483.375 96.5531,483.375 C97.3656,483.375 97.9594,483.6875 98.4906,484.1719 L99.8656,482.625 C99.1156,481.8906 97.9594,481.2188 96.5531,481.2188 C93.6,481.2188 91.2719,483.3594 91.2719,487.0313 C91.2719,490.75 93.6469,492.7031 96.3969,492.7031 Z " fill="#000000"/><text fill="#000000" font-family="sans-serif" font-size="14" lengthAdjust="spacing" textLength="138" x="113.65" y="491.2852">ArrayChannelROIData</text><line style="stroke:#181818;stroke-width:0.5;" x1="67.5" x2="268.5" y1="502.5" y2="502.5"/><text fill="#000000" font-family="sans-serif" font-size="14" lengthAdjust="spacing" textLength="74" x="72.5" y="519.4883">label : string</text><text fill="#000000" font-family="sans-serif" font-size="14" lengthAdjust="spacing" textLength="191" x="72.5" y="535.8945">marker : np.ndarray(dtype=int)</text><line style="stroke:#181818;stroke-width:0.5;" x1="67.5" x2="268.5" y1="543.3125" y2="543.3125"/></g><g id="elem_GMN23"><path d="M6,651 L6,768.7473 A0,0 0 0 0 6,768.7473 L286,768.7473 A0,0 0 0 0 286,768.7473 L286,661 L276,651 L156.49,651 L163.55,551.87 L148.49,651 L6,651 A0,0 0 0 0 6,651 " fill="#FEFFDD" style="stroke:#181818;stroke-width:0.5;"/><path d="M276,651 L276,661 L286,661 L276,651 " fill="#FEFFDD" style="stroke:#181818;stroke-width:0.5;"/><text fill="#000000" font-family="sans-serif" font-size="13" lengthAdjust="spacing" textLength="220" x="12" y="668.0605">Marker should be a two-element vector</text><text fill="#000000" font-family="sans-serif" font-size="13" lengthAdjust="spacing" textLength="248" x="12" y="683.2949">with positions on the x axis of the spectrum.</text><text fill="#000000" font-family="sans-serif" font-size="13" lengthAdjust="spacing" textLength="259" x="12" y="698.5293">Is "marker" the best name? Can we generalise</text><text fill="#000000" font-family="sans-serif" font-size="13" lengthAdjust="spacing" textLength="40" x="12" y="714.8703">to fit to</text><text fill="#000000" font-family="monospace" font-size="13" lengthAdjust="spacing" textLength="144" x="55" y="714.4951">AreaChannelROIData</text><text fill="#000000" font-family="sans-serif" font-size="13" lengthAdjust="spacing" textLength="46" x="202" y="714.8703">as well?</text><text fill="#000000" font-family="sans-serif" font-size="13" lengthAdjust="spacing" textLength="3" x="12" y="730.1047">&#160;</text><text fill="#000000" font-family="sans-serif" font-size="13" lengthAdjust="spacing" textLength="207" x="12" y="745.3391">What other attributes are relevant for</text><text fill="#000000" font-family="sans-serif" font-size="13" lengthAdjust="spacing" textLength="115" x="12" y="760.5734">Array Channel ROIs?</text></g><!--class DeviceMetadata--><g id="elem_DeviceMetadata"><rect codeLine="68" fill="#F1F1F1" height="97.2188" id="DeviceMetadata" rx="2.5" ry="2.5" style="stroke:#181818;stroke-width:0.5;" width="141" x="725.5" y="181"/><ellipse cx="746.35" cy="197" fill="#B4A7E5" rx="11" ry="11" style="stroke:#181818;stroke-width:1.0;"/><path d="M742.6156,203 L750.2875,203 L750.2875,200.8906 L747.7094,200.8906 L747.7094,194.0313 L750.2875,194.0313 L750.2875,191.9219 L742.6156,191.9219 L742.6156,194.0313 L745.1938,194.0313 L745.1938,200.8906 L742.6156,200.8906 L742.6156,203 Z " fill="#000000"/><text fill="#000000" font-family="sans-serif" font-size="14" font-style="italic" lengthAdjust="spacing" textLength="96" x="761.65" y="201.7852">DeviceMetadata</text><line style="stroke:#181818;stroke-width:0.5;" x1="726.5" x2="865.5" y1="213" y2="213"/><text fill="#000000" font-family="sans-serif" font-size="14" lengthAdjust="spacing" textLength="56" x="731.5" y="229.9883">id : string</text><text fill="#000000" font-family="sans-serif" font-size="14" lengthAdjust="spacing" textLength="60" x="731.5" y="246.3945">pv : string</text><text fill="#000000" font-family="sans-serif" font-size="14" lengthAdjust="spacing" textLength="129" x="731.5" y="262.8008">access_mode : string</text><line style="stroke:#181818;stroke-width:0.5;" x1="726.5" x2="865.5" y1="270.2188" y2="270.2188"/></g><!--class ArrayChannelCalibration--><g id="elem_ArrayChannelCalibration"><rect codeLine="82" fill="#F1F1F1" height="97.2188" id="ArrayChannelCalibration" rx="2.5" ry="2.5" style="stroke:#181818;stroke-width:0.5;" width="185" x="805.5" y="462.5"/><ellipse cx="820.5" cy="478.5" fill="#ADD1B2" rx="11" ry="11" style="stroke:#181818;stroke-width:1.0;"/><path d="M820.5469,484.7031 C822.0469,484.7031 823.2813,484.1406 824.1875,483.0781 L822.8125,481.5625 C822.2656,482.1563 821.6094,482.5469 820.8125,482.5469 C819.1406,482.5469 817.9844,481.2188 817.9844,478.9375 C817.9844,476.7188 819.1406,475.375 820.7031,475.375 C821.5156,475.375 822.1094,475.6875 822.6406,476.1719 L824.0156,474.625 C823.2656,473.8906 822.1094,473.2188 820.7031,473.2188 C817.75,473.2188 815.4219,475.3594 815.4219,479.0313 C815.4219,482.75 817.7969,484.7031 820.5469,484.7031 Z " fill="#000000"/><text fill="#000000" font-family="sans-serif" font-size="14" lengthAdjust="spacing" textLength="153" x="834.5" y="483.2852">ArrayChannelCalibration</text><line style="stroke:#181818;stroke-width:0.5;" x1="806.5" x2="989.5" y1="494.5" y2="494.5"/><text fill="#000000" font-family="sans-serif" font-size="14" lengthAdjust="spacing" textLength="75" x="811.5" y="511.4883">offset : float</text><text fill="#000000" font-family="sans-serif" font-size="14" lengthAdjust="spacing" textLength="71" x="811.5" y="527.8945">slope : float</text><text fill="#000000" font-family="sans-serif" font-size="14" lengthAdjust="spacing" textLength="98" x="811.5" y="544.3008">quadratic : float</text><line style="stroke:#181818;stroke-width:0.5;" x1="806.5" x2="989.5" y1="551.7188" y2="551.7188"/></g><g id="elem_GMN33"><path d="M794,674.5 L794,745.4375 A0,0 0 0 0 794,745.4375 L1002,745.4375 A0,0 0 0 0 1002,745.4375 L1002,684.5 L992,674.5 L902,674.5 L898,559.69 L894,674.5 L794,674.5 A0,0 0 0 0 794,674.5 " fill="#FEFFDD" style="stroke:#181818;stroke-width:0.5;"/><path d="M992,674.5 L992,684.5 L1002,684.5 L992,674.5 " fill="#FEFFDD" style="stroke:#181818;stroke-width:0.5;"/><text fill="#000000" font-family="sans-serif" font-size="13" lengthAdjust="spacing" textLength="169" x="800" y="691.5605">Shall this class have methods</text><text fill="#000000" font-family="sans-serif" font-size="13" lengthAdjust="spacing" textLength="177" x="800" y="706.7949">performing some operations on</text><text fill="#000000" font-family="sans-serif" font-size="13" lengthAdjust="spacing" textLength="187" x="800" y="722.0293">the calibration parameters stored</text><text fill="#000000" font-family="sans-serif" font-size="13" lengthAdjust="spacing" textLength="90" x="800" y="737.2637">in its attributes?</text></g><!--reverse link Data to Metadata--><g id="link_Data_Metadata"><path codeLine="10" d="M520.28,64 C536.31,64 540.34,64 556.38,64 " fill="none" id="Data-backto-Metadata" style="stroke:#181818;stroke-width:1.0;"/><polygon fill="#181818" points="508.28,64,514.28,68,520.28,64,514.28,60,508.28,64" style="stroke:#181818;stroke-width:1.0;"/></g><!--reverse link Data to MeasureData--><g id="link_Data_MeasureData"><path d="M414.2255,139.047 C410.1755,164.537 408.36,175.93 404.94,197.4 " fill="none" id="Data-backto-MeasureData" style="stroke:#181818;stroke-width:1.0;"/><polygon fill="none" points="417.05,121.27,408.2998,138.1055,420.1512,139.9885,417.05,121.27" style="stroke:#181818;stroke-width:1.0;"/></g><!--reverse link MeasureData to MeasureMetadata--><g id="link_MeasureData_MeasureMetadata"><path codeLine="16" d="M520.08,229.5 C531.85,229.5 531.62,229.5 543.39,229.5 " fill="none" id="MeasureData-backto-MeasureMetadata" style="stroke:#181818;stroke-width:1.0;"/><polygon fill="#181818" points="508.08,229.5,514.08,233.5,520.08,229.5,514.08,225.5,508.08,229.5" style="stroke:#181818;stroke-width:1.0;"/></g><!--reverse link MeasureData to ChannelData--><g id="link_MeasureData_ChannelData"><path d="M400,279.76 C400,303.13 400,316.58 400,337.76 " fill="none" id="MeasureData-backto-ChannelData" style="stroke:#181818;stroke-width:1.0;"/><polygon fill="none" points="400,261.76,394,279.76,406,279.76,400,261.76" style="stroke:#181818;stroke-width:1.0;"/></g><!--reverse link ChannelData to ChannelMetadata--><g id="link_ChannelData_ChannelMetadata"><path codeLine="20" d="M468.67,362 C503.77,362 526.86,362 561.96,362 " fill="none" id="ChannelData-backto-ChannelMetadata" style="stroke:#181818;stroke-width:1.0;"/><polygon fill="#181818" points="456.67,362,462.67,366,468.67,362,462.67,358,456.67,362" style="stroke:#181818;stroke-width:1.0;"/></g><!--reverse link ChannelData to ArrayChannelData--><g id="link_ChannelData_ArrayChannelData"><path d="M400,404.29 C400,420.4 400,424.68 400,445.89 " fill="none" id="ChannelData-backto-ArrayChannelData" style="stroke:#181818;stroke-width:1.0;"/><polygon fill="none" points="400,386.29,394,404.29,406,404.29,400,386.29" style="stroke:#181818;stroke-width:1.0;"/></g><!--reverse link ArrayChannelData to ArrayChannelMetadata--><g id="link_ArrayChannelData_ArrayChannelMetadata"><path codeLine="41" d="M507.6,511 C519.33,511 519.07,511 530.8,511 " fill="none" id="ArrayChannelData-backto-ArrayChannelMetadata" style="stroke:#181818;stroke-width:1.0;"/><polygon fill="#181818" points="495.6,511,501.6,515,507.6,511,501.6,507,495.6,511" style="stroke:#181818;stroke-width:1.0;"/></g><!--link ArrayChannelROIData to ArrayChannelData--><g id="link_ArrayChannelROIData_ArrayChannelData"><path codeLine="43" d="M269.5,511 C281.14,511 280.78,511 292.42,511 " fill="none" id="ArrayChannelROIData-to-ArrayChannelData" style="stroke:#181818;stroke-width:1.0;"/><polygon fill="#181818" points="304.42,511,298.42,507,292.42,511,298.42,515,304.42,511" style="stroke:#181818;stroke-width:1.0;"/><text fill="#000000" font-family="sans-serif" font-size="13" lengthAdjust="spacing" textLength="20" x="277.3398" y="507.548">0..n</text></g><!--reverse link ChannelData to ArrayChannelROIData--><g id="link_ChannelData_ArrayChannelROIData"><path d="M348.2858,395.765 C312.6858,418.325 273.04,443.44 230.49,470.4 " fill="none" id="ChannelData-backto-ArrayChannelROIData" style="stroke:#181818;stroke-width:1.0;"/><polygon fill="none" points="363.49,386.13,345.0742,390.6969,351.4975,400.8331,363.49,386.13" style="stroke:#181818;stroke-width:1.0;"/></g><!--reverse link Metadata to MeasureMetadata--><g id="link_Metadata_MeasureMetadata"><path d="M607.2051,114.0744 C609.6951,143.1644 611.86,168.42 614.34,197.48 " fill="none" id="Metadata-backto-MeasureMetadata" style="stroke:#181818;stroke-width:1.0;"/><polygon fill="none" points="605.67,96.14,601.227,114.5861,613.1833,113.5627,605.67,96.14" style="stroke:#181818;stroke-width:1.0;"/></g><!--reverse link MeasureMetadata to ChannelMetadata--><g id="link_MeasureMetadata_ChannelMetadata"><path d="M623.3994,279.6086 C626.4494,302.9786 628.21,316.58 630.97,337.76 " fill="none" id="MeasureMetadata-backto-ChannelMetadata" style="stroke:#181818;stroke-width:1.0;"/><polygon fill="none" points="621.07,261.76,617.4499,280.3851,629.349,278.8322,621.07,261.76" style="stroke:#181818;stroke-width:1.0;"/></g><!--reverse link DeviceMetadata to ChannelMetadata--><g id="link_DeviceMetadata_ChannelMetadata"><path d="M722.5831,289.6428 C697.4731,309.8728 683.4,321.2 662.97,337.66 " fill="none" id="DeviceMetadata-backto-ChannelMetadata" style="stroke:#181818;stroke-width:1.0;stroke-dasharray:7.0,7.0;"/><polygon fill="none" points="736.6,278.35,718.8189,284.9705,726.3474,294.3151,736.6,278.35" style="stroke:#181818;stroke-width:1.0;"/></g><!--reverse link ChannelMetadata to ArrayChannelMetadata--><g id="link_ChannelMetadata_ArrayChannelMetadata"><path d="M638.7625,404.1703 C641.6625,429.1903 644.2,451.19 647.4,478.88 " fill="none" id="ChannelMetadata-backto-ArrayChannelMetadata" style="stroke:#181818;stroke-width:1.0;"/><polygon fill="none" points="636.69,386.29,632.8024,404.8611,644.7226,403.4795,636.69,386.29" style="stroke:#181818;stroke-width:1.0;"/></g><!--reverse link ArrayChannelMetadata to ArrayChannelCalibration--><g id="link_ArrayChannelMetadata_ArrayChannelCalibration"><path codeLine="80" d="M783.12,511 C794.52,511 793.92,511 805.32,511 " fill="none" id="ArrayChannelMetadata-backto-ArrayChannelCalibration" style="stroke:#181818;stroke-width:1.0;"/><polygon fill="#181818" points="771.12,511,777.12,515,783.12,511,777.12,507,771.12,511" style="stroke:#181818;stroke-width:1.0;"/></g><!--SRC=[VLHDRzim3BtxLn2-h1kMPEUYQp6qbnwA0TjXXs48Q9kEXScI9ybfWoB_VPJanBBZDXT753-U-1xveN6kizURJITHkRwLwrAtcrAYjQjAuCvWcsNX20_e45upu5zB3Yj_l8QduM-mRmUZwjQgGcFm4CsYxRHnPFZAPtaSZk7IXrnzp8vP5WfyMeqfXy9FXBOt5AxfnP6g9c1UQq6oEaAdhN12Api1S5MvGqTVXNAXHfehb0h7USNx1fKYEQcOH6PPwi1fXkCypJSFO2bNQekFC5hy_iF0qv0VtnyVJfsLegQj4orTTjSGoZUkEaEMtFQTuC7ZZHp7J6b7K6ZdT0kwldXHo76F2bn3a0_9SkYGTKFCi0qE9GVi26fjWB1ipao1KESNiAP2VrjIpiADk7qMhX7gPYDkGIiAVhRaIgskUabtMR0yri08F_lo1q336An39yeSq3aZYjvHX82g0jleNbRyP5rW8G-mq-2q3uqWjM7udLQLKBjHuO79u93dwUjFNEVvEcDEFGpAiWl6MHnBKLFFWMZ8lwpNAeVLfyi-BoZg5BKWgkbWI2n8Ch6MEw9sawiMpTymbcyDp3lyf_9yYdc63XS42EvPhqW6Fc5FfTDnt3sjoQZgA9qNm1TXVGL_iXtxcxvTHuujv15d7cuBiWuKw-ikAE-PO4UA34fX8vDCQYsS_tZA2ATuSzQ6vIWf1mtzQj21vimc4KqGas7yUrwBNhd1DJp_r6ZWXFOk8V-yhWRfH1Oyqh7vnzbIEpkFQsOItIj-IHhDl92fiIHueBqeQUOlgYdHtNvwnh8aQxSyH4kWPYgTxxwpdVUv72PrYc99fnVPvlQ8l6G22uDXBqptuFruuw4kvfxDMHgo02cv7ghhkkRLnOLhgT75RIDrHnFBlnuh7rMUhUyEI0h2X_ziK4gMC0izGcfmJtxJDBgAAwPZQhLf_GAoccN306Ay7vIeRHw0j5FZfcKojQ4gge1NAtCpoZcHwNy0]--></g></svg>