<?xml version="1.0" encoding="us-ascii" standalone="no"?><svg xmlns="http://www.w3.org/2000/svg" xmlns:xlink="http://www.w3.org/1999/xlink" contentStyleType="text/css" height="776px" preserveAspectRatio="none" style="width:975px;height:776px;background:#FFFFFF;" version="1.1" viewBox="0 0 975 776" width="975px" zoomAndPan="magnify"><defs/><g><!--class Data--><g id="elem_Data"><rect codeLine="3" fill="#F1F1F1" height="130.0313" id="Data" rx="2.5" ry="2.5" style="stroke:#181818;stroke-width:0.5;" width="164" x="322" y="7"/><ellipse cx="384.75" cy="23" fill="#ADD1B2" rx="11" ry="11" style="stroke:#181818;stroke-width:1.0;"/><path d="M384.7969,29.2031 C386.2969,29.2031 387.5313,28.6406 388.4375,27.5781 L387.0625,26.0625 C386.5156,26.6563 385.8594,27.0469 385.0625,27.0469 C383.3906,27.0469 382.2344,25.7188 382.2344,23.4375 C382.2344,21.2188 383.3906,19.875 384.9531,19.875 C385.7656,19.875 386.3594,20.1875 386.8906,20.6719 L388.2656,19.125 C387.5156,18.3906 386.3594,17.7188 384.9531,17.7188 C382,17.7188 379.6719,19.8594 379.6719,23.5313 C379.6719,27.25 382.0469,29.2031 384.7969,29.2031 Z " fill="#000000"/><text fill="#000000" font-family="sans-serif" font-size="14" lengthAdjust="spacing" textLength="30" x="405.25" y="27.7852">Data</text><line style="stroke:#181818;stroke-width:0.5;" x1="323" x2="485" y1="39" y2="39"/><text fill="#000000" font-family="sans-serif" font-size="14" lengthAdjust="spacing" textLength="131" x="328" y="55.9883">metadata : Metadata</text><text fill="#000000" font-family="sans-serif" font-size="14" lengthAdjust="spacing" textLength="79" x="328" y="72.3945">options : dict</text><text fill="#000000" font-family="sans-serif" font-size="14" lengthAdjust="spacing" textLength="113" x="328" y="88.8008">_data : np.ndarray</text><text fill="#000000" font-family="sans-serif" font-size="14" lengthAdjust="spacing" textLength="152" x="328" y="105.207">_importer : DataImporter</text><line style="stroke:#181818;stroke-width:0.5;" x1="323" x2="485" y1="112.625" y2="112.625"/><text fill="#000000" font-family="sans-serif" font-size="14" lengthAdjust="spacing" textLength="39" x="328" y="129.6133">data()</text></g><!--class Metadata--><g id="elem_Metadata"><rect codeLine="50" fill="#F1F1F1" height="80.8125" id="Metadata" rx="2.5" ry="2.5" style="stroke:#181818;stroke-width:0.5;" width="93" x="534.5" y="31.5"/><ellipse cx="549.5" cy="47.5" fill="#ADD1B2" rx="11" ry="11" style="stroke:#181818;stroke-width:1.0;"/><path d="M549.5469,53.7031 C551.0469,53.7031 552.2813,53.1406 553.1875,52.0781 L551.8125,50.5625 C551.2656,51.1563 550.6094,51.5469 549.8125,51.5469 C548.1406,51.5469 546.9844,50.2188 546.9844,47.9375 C546.9844,45.7188 548.1406,44.375 549.7031,44.375 C550.5156,44.375 551.1094,44.6875 551.6406,45.1719 L553.0156,43.625 C552.2656,42.8906 551.1094,42.2188 549.7031,42.2188 C546.75,42.2188 544.4219,44.3594 544.4219,48.0313 C544.4219,51.75 546.7969,53.7031 549.5469,53.7031 Z " fill="#000000"/><text fill="#000000" font-family="sans-serif" font-size="14" lengthAdjust="spacing" textLength="61" x="563.5" y="52.2852">Metadata</text><line style="stroke:#181818;stroke-width:0.5;" x1="535.5" x2="626.5" y1="63.5" y2="63.5"/><text fill="#000000" font-family="sans-serif" font-size="14" lengthAdjust="spacing" textLength="80" x="540.5" y="80.4883">name : string</text><text fill="#000000" font-family="sans-serif" font-size="14" lengthAdjust="spacing" textLength="79" x="540.5" y="96.8945">options : dict</text><line style="stroke:#181818;stroke-width:0.5;" x1="535.5" x2="626.5" y1="104.3125" y2="104.3125"/></g><!--class MeasureData--><g id="elem_MeasureData"><rect codeLine="13" fill="#F1F1F1" height="64.4063" id="MeasureData" rx="2.5" ry="2.5" style="stroke:#181818;stroke-width:0.5;" width="216" x="270" y="213.5"/><ellipse cx="331.75" cy="229.5" fill="#ADD1B2" rx="11" ry="11" style="stroke:#181818;stroke-width:1.0;"/><path d="M331.7969,235.7031 C333.2969,235.7031 334.5313,235.1406 335.4375,234.0781 L334.0625,232.5625 C333.5156,233.1563 332.8594,233.5469 332.0625,233.5469 C330.3906,233.5469 329.2344,232.2188 329.2344,229.9375 C329.2344,227.7188 330.3906,226.375 331.9531,226.375 C332.7656,226.375 333.3594,226.6875 333.8906,227.1719 L335.2656,225.625 C334.5156,224.8906 333.3594,224.2188 331.9531,224.2188 C329,224.2188 326.6719,226.3594 326.6719,230.0313 C326.6719,233.75 329.0469,235.7031 331.7969,235.7031 Z " fill="#000000"/><text fill="#000000" font-family="sans-serif" font-size="14" lengthAdjust="spacing" textLength="84" x="352.25" y="234.2852">MeasureData</text><line style="stroke:#181818;stroke-width:0.5;" x1="271" x2="485" y1="245.5" y2="245.5"/><text fill="#000000" font-family="sans-serif" font-size="14" lengthAdjust="spacing" textLength="204" x="276" y="262.4883">positions : np.ndarray(dtype=int)</text><line style="stroke:#181818;stroke-width:0.5;" x1="271" x2="485" y1="269.9063" y2="269.9063"/></g><!--class MeasureMetadata--><g id="elem_MeasureMetadata"><rect codeLine="55" fill="#F1F1F1" height="64.4063" id="MeasureMetadata" rx="2.5" ry="2.5" style="stroke:#181818;stroke-width:0.5;" width="147" x="521.5" y="213.5"/><ellipse cx="536.5" cy="229.5" fill="#ADD1B2" rx="11" ry="11" style="stroke:#181818;stroke-width:1.0;"/><path d="M536.5469,235.7031 C538.0469,235.7031 539.2813,235.1406 540.1875,234.0781 L538.8125,232.5625 C538.2656,233.1563 537.6094,233.5469 536.8125,233.5469 C535.1406,233.5469 533.9844,232.2188 533.9844,229.9375 C533.9844,227.7188 535.1406,226.375 536.7031,226.375 C537.5156,226.375 538.1094,226.6875 538.6406,227.1719 L540.0156,225.625 C539.2656,224.8906 538.1094,224.2188 536.7031,224.2188 C533.75,224.2188 531.4219,226.3594 531.4219,230.0313 C531.4219,233.75 533.7969,235.7031 536.5469,235.7031 Z " fill="#000000"/><text fill="#000000" font-family="sans-serif" font-size="14" lengthAdjust="spacing" textLength="115" x="550.5" y="234.2852">MeasureMetadata</text><line style="stroke:#181818;stroke-width:0.5;" x1="522.5" x2="667.5" y1="245.5" y2="245.5"/><text fill="#000000" font-family="sans-serif" font-size="14" lengthAdjust="spacing" textLength="69" x="527.5" y="262.4883">unit : string</text><line style="stroke:#181818;stroke-width:0.5;" x1="522.5" x2="667.5" y1="269.9063" y2="269.9063"/></g><!--class ChannelData--><g id="elem_ChannelData"><rect codeLine="19" fill="#F1F1F1" height="48" id="ChannelData" rx="2.5" ry="2.5" style="stroke:#181818;stroke-width:0.5;" width="113" x="321.5" y="354"/><ellipse cx="336.5" cy="370" fill="#ADD1B2" rx="11" ry="11" style="stroke:#181818;stroke-width:1.0;"/><path d="M336.5469,376.2031 C338.0469,376.2031 339.2813,375.6406 340.1875,374.5781 L338.8125,373.0625 C338.2656,373.6563 337.6094,374.0469 336.8125,374.0469 C335.1406,374.0469 333.9844,372.7188 333.9844,370.4375 C333.9844,368.2188 335.1406,366.875 336.7031,366.875 C337.5156,366.875 338.1094,367.1875 338.6406,367.6719 L340.0156,366.125 C339.2656,365.3906 338.1094,364.7188 336.7031,364.7188 C333.75,364.7188 331.4219,366.8594 331.4219,370.5313 C331.4219,374.25 333.7969,376.2031 336.5469,376.2031 Z " fill="#000000"/><text fill="#000000" font-family="sans-serif" font-size="14" lengthAdjust="spacing" textLength="81" x="350.5" y="374.7852">ChannelData</text><line style="stroke:#181818;stroke-width:0.5;" x1="322.5" x2="433.5" y1="386" y2="386"/><line style="stroke:#181818;stroke-width:0.5;" x1="322.5" x2="433.5" y1="394" y2="394"/></g><!--class ChannelMetadata--><g id="elem_ChannelMetadata"><rect codeLine="65" fill="#F1F1F1" height="48" id="ChannelMetadata" rx="2.5" ry="2.5" style="stroke:#181818;stroke-width:0.5;" width="144" x="540" y="354"/><ellipse cx="555" cy="370" fill="#ADD1B2" rx="11" ry="11" style="stroke:#181818;stroke-width:1.0;"/><path d="M555.0469,376.2031 C556.5469,376.2031 557.7813,375.6406 558.6875,374.5781 L557.3125,373.0625 C556.7656,373.6563 556.1094,374.0469 555.3125,374.0469 C553.6406,374.0469 552.4844,372.7188 552.4844,370.4375 C552.4844,368.2188 553.6406,366.875 555.2031,366.875 C556.0156,366.875 556.6094,367.1875 557.1406,367.6719 L558.5156,366.125 C557.7656,365.3906 556.6094,364.7188 555.2031,364.7188 C552.25,364.7188 549.9219,366.8594 549.9219,370.5313 C549.9219,374.25 552.2969,376.2031 555.0469,376.2031 Z " fill="#000000"/><text fill="#000000" font-family="sans-serif" font-size="14" lengthAdjust="spacing" textLength="112" x="569" y="374.7852">ChannelMetadata</text><line style="stroke:#181818;stroke-width:0.5;" x1="541" x2="683" y1="386" y2="386"/><line style="stroke:#181818;stroke-width:0.5;" x1="541" x2="683" y1="394" y2="394"/></g><!--class ArrayChannelData--><g id="elem_ArrayChannelData"><rect codeLine="23" fill="#F1F1F1" height="130.0313" id="ArrayChannelData" rx="2.5" ry="2.5" style="stroke:#181818;stroke-width:0.5;" width="191" x="282.5" y="462"/><ellipse cx="317.3" cy="478" fill="#ADD1B2" rx="11" ry="11" style="stroke:#181818;stroke-width:1.0;"/><path d="M317.3469,484.2031 C318.8469,484.2031 320.0813,483.6406 320.9875,482.5781 L319.6125,481.0625 C319.0656,481.6563 318.4094,482.0469 317.6125,482.0469 C315.9406,482.0469 314.7844,480.7188 314.7844,478.4375 C314.7844,476.2188 315.9406,474.875 317.5031,474.875 C318.3156,474.875 318.9094,475.1875 319.4406,475.6719 L320.8156,474.125 C320.0656,473.3906 318.9094,472.7188 317.5031,472.7188 C314.55,472.7188 312.2219,474.8594 312.2219,478.5313 C312.2219,482.25 314.5969,484.2031 317.3469,484.2031 Z " fill="#000000"/><text fill="#000000" font-family="sans-serif" font-size="14" lengthAdjust="spacing" textLength="115" x="335.7" y="482.7852">ArrayChannelData</text><line style="stroke:#181818;stroke-width:0.5;" x1="283.5" x2="472.5" y1="494" y2="494"/><text fill="#000000" font-family="sans-serif" font-size="14" lengthAdjust="spacing" textLength="171" x="288.5" y="510.9883">roi[] : ArrayChannelROIData</text><text fill="#000000" font-family="sans-serif" font-size="14" lengthAdjust="spacing" textLength="129" x="288.5" y="527.3945">life_time : np.ndarray</text><text fill="#000000" font-family="sans-serif" font-size="14" lengthAdjust="spacing" textLength="134" x="288.5" y="543.8008">real_time : np.ndarray</text><text fill="#000000" font-family="sans-serif" font-size="14" lengthAdjust="spacing" textLength="174" x="288.5" y="560.207">preset_life_time : np.ndarray</text><text fill="#000000" font-family="sans-serif" font-size="14" lengthAdjust="spacing" textLength="179" x="288.5" y="576.6133">preset_real_time : np.ndarray</text><line style="stroke:#181818;stroke-width:0.5;" x1="283.5" x2="472.5" y1="584.0313" y2="584.0313"/></g><!--class ArrayChannelMetadata--><g id="elem_ArrayChannelMetadata"><rect codeLine="67" fill="#F1F1F1" height="64.4063" id="ArrayChannelMetadata" rx="2.5" ry="2.5" style="stroke:#181818;stroke-width:0.5;" width="240" x="509" y="495"/><ellipse cx="551.9" cy="511" fill="#ADD1B2" rx="11" ry="11" style="stroke:#181818;stroke-width:1.0;"/><path d="M551.9469,517.2031 C553.4469,517.2031 554.6813,516.6406 555.5875,515.5781 L554.2125,514.0625 C553.6656,514.6563 553.0094,515.0469 552.2125,515.0469 C550.5406,515.0469 549.3844,513.7188 549.3844,511.4375 C549.3844,509.2188 550.5406,507.875 552.1031,507.875 C552.9156,507.875 553.5094,508.1875 554.0406,508.6719 L555.4156,507.125 C554.6656,506.3906 553.5094,505.7188 552.1031,505.7188 C549.15,505.7188 546.8219,507.8594 546.8219,511.5313 C546.8219,515.25 549.1969,517.2031 551.9469,517.2031 Z " fill="#000000"/><text fill="#000000" font-family="sans-serif" font-size="14" lengthAdjust="spacing" textLength="146" x="572.1" y="515.7852">ArrayChannelMetadata</text><line style="stroke:#181818;stroke-width:0.5;" x1="510" x2="748" y1="527" y2="527"/><text fill="#000000" font-family="sans-serif" font-size="14" lengthAdjust="spacing" textLength="228" x="515" y="543.9883">calibration : ArrayChannelCalibration</text><line style="stroke:#181818;stroke-width:0.5;" x1="510" x2="748" y1="551.4063" y2="551.4063"/></g><!--class ArrayChannelROIData--><g id="elem_ArrayChannelROIData"><rect codeLine="35" fill="#F1F1F1" height="80.8125" id="ArrayChannelROIData" rx="2.5" ry="2.5" style="stroke:#181818;stroke-width:0.5;" width="203" x="44.5" y="486.5"/><ellipse cx="74.35" cy="502.5" fill="#ADD1B2" rx="11" ry="11" style="stroke:#181818;stroke-width:1.0;"/><path d="M74.3969,508.7031 C75.8969,508.7031 77.1313,508.1406 78.0375,507.0781 L76.6625,505.5625 C76.1156,506.1563 75.4594,506.5469 74.6625,506.5469 C72.9906,506.5469 71.8344,505.2188 71.8344,502.9375 C71.8344,500.7188 72.9906,499.375 74.5531,499.375 C75.3656,499.375 75.9594,499.6875 76.4906,500.1719 L77.8656,498.625 C77.1156,497.8906 75.9594,497.2188 74.5531,497.2188 C71.6,497.2188 69.2719,499.3594 69.2719,503.0313 C69.2719,506.75 71.6469,508.7031 74.3969,508.7031 Z " fill="#000000"/><text fill="#000000" font-family="sans-serif" font-size="14" lengthAdjust="spacing" textLength="138" x="91.65" y="507.2852">ArrayChannelROIData</text><line style="stroke:#181818;stroke-width:0.5;" x1="45.5" x2="246.5" y1="518.5" y2="518.5"/><text fill="#000000" font-family="sans-serif" font-size="14" lengthAdjust="spacing" textLength="74" x="50.5" y="535.4883">label : string</text><text fill="#000000" font-family="sans-serif" font-size="14" lengthAdjust="spacing" textLength="191" x="50.5" y="551.8945">marker : np.ndarray(dtype=int)</text><line style="stroke:#181818;stroke-width:0.5;" x1="45.5" x2="246.5" y1="559.3125" y2="559.3125"/></g><g id="elem_GMN20"><path d="M6,652 L6,769.7473 A0,0 0 0 0 6,769.7473 L286,769.7473 A0,0 0 0 0 286,769.7473 L286,662 L276,652 L150,652 L146,567.94 L142,652 L6,652 A0,0 0 0 0 6,652 " fill="#FEFFDD" style="stroke:#181818;stroke-width:0.5;"/><path d="M276,652 L276,662 L286,662 L276,652 " fill="#FEFFDD" style="stroke:#181818;stroke-width:0.5;"/><text fill="#000000" font-family="sans-serif" font-size="13" lengthAdjust="spacing" textLength="220" x="12" y="669.0605">Marker should be a two-element vector</text><text fill="#000000" font-family="sans-serif" font-size="13" lengthAdjust="spacing" textLength="248" x="12" y="684.2949">with positions on the x axis of the spectrum.</text><text fill="#000000" font-family="sans-serif" font-size="13" lengthAdjust="spacing" textLength="259" x="12" y="699.5293">Is "marker" the best name? Can we generalise</text><text fill="#000000" font-family="sans-serif" font-size="13" lengthAdjust="spacing" textLength="40" x="12" y="715.8703">to fit to</text><text fill="#000000" font-family="monospace" font-size="13" lengthAdjust="spacing" textLength="144" x="55" y="715.4951">AreaChannelROIData</text><text fill="#000000" font-family="sans-serif" font-size="13" lengthAdjust="spacing" textLength="46" x="202" y="715.8703">as well?</text><text fill="#000000" font-family="sans-serif" font-size="13" lengthAdjust="spacing" textLength="3" x="12" y="731.1047">&#160;</text><text fill="#000000" font-family="sans-serif" font-size="13" lengthAdjust="spacing" textLength="207" x="12" y="746.3391">What other attributes are relevant for</text><text fill="#000000" font-family="sans-serif" font-size="13" lengthAdjust="spacing" textLength="115" x="12" y="761.5734">Array Channel ROIs?</text></g><!--class DeviceMetadata--><g id="elem_DeviceMetadata"><rect codeLine="59" fill="#F1F1F1" height="97.2188" id="DeviceMetadata" rx="2.5" ry="2.5" style="stroke:#181818;stroke-width:0.5;" width="141" x="703.5" y="197"/><ellipse cx="724.35" cy="213" fill="#B4A7E5" rx="11" ry="11" style="stroke:#181818;stroke-width:1.0;"/><path d="M720.6156,219 L728.2875,219 L728.2875,216.8906 L725.7094,216.8906 L725.7094,210.0313 L728.2875,210.0313 L728.2875,207.9219 L720.6156,207.9219 L720.6156,210.0313 L723.1938,210.0313 L723.1938,216.8906 L720.6156,216.8906 L720.6156,219 Z " fill="#000000"/><text fill="#000000" font-family="sans-serif" font-size="14" font-style="italic" lengthAdjust="spacing" textLength="96" x="739.65" y="217.7852">DeviceMetadata</text><line style="stroke:#181818;stroke-width:0.5;" x1="704.5" x2="843.5" y1="229" y2="229"/><text fill="#000000" font-family="sans-serif" font-size="14" lengthAdjust="spacing" textLength="56" x="709.5" y="245.9883">id : string</text><text fill="#000000" font-family="sans-serif" font-size="14" lengthAdjust="spacing" textLength="60" x="709.5" y="262.3945">pv : string</text><text fill="#000000" font-family="sans-serif" font-size="14" lengthAdjust="spacing" textLength="129" x="709.5" y="278.8008">access_mode : string</text><line style="stroke:#181818;stroke-width:0.5;" x1="704.5" x2="843.5" y1="286.2188" y2="286.2188"/></g><!--class ArrayChannelCalibration--><g id="elem_ArrayChannelCalibration"><rect codeLine="73" fill="#F1F1F1" height="97.2188" id="ArrayChannelCalibration" rx="2.5" ry="2.5" style="stroke:#181818;stroke-width:0.5;" width="185" x="783.5" y="478.5"/><ellipse cx="798.5" cy="494.5" fill="#ADD1B2" rx="11" ry="11" style="stroke:#181818;stroke-width:1.0;"/><path d="M798.5469,500.7031 C800.0469,500.7031 801.2813,500.1406 802.1875,499.0781 L800.8125,497.5625 C800.2656,498.1563 799.6094,498.5469 798.8125,498.5469 C797.1406,498.5469 795.9844,497.2188 795.9844,494.9375 C795.9844,492.7188 797.1406,491.375 798.7031,491.375 C799.5156,491.375 800.1094,491.6875 800.6406,492.1719 L802.0156,490.625 C801.2656,489.8906 800.1094,489.2188 798.7031,489.2188 C795.75,489.2188 793.4219,491.3594 793.4219,495.0313 C793.4219,498.75 795.7969,500.7031 798.5469,500.7031 Z " fill="#000000"/><text fill="#000000" font-family="sans-serif" font-size="14" lengthAdjust="spacing" textLength="153" x="812.5" y="499.2852">ArrayChannelCalibration</text><line style="stroke:#181818;stroke-width:0.5;" x1="784.5" x2="967.5" y1="510.5" y2="510.5"/><text fill="#000000" font-family="sans-serif" font-size="14" lengthAdjust="spacing" textLength="75" x="789.5" y="527.4883">offset : float</text><text fill="#000000" font-family="sans-serif" font-size="14" lengthAdjust="spacing" textLength="71" x="789.5" y="543.8945">slope : float</text><text fill="#000000" font-family="sans-serif" font-size="14" lengthAdjust="spacing" textLength="98" x="789.5" y="560.3008">quadratic : float</text><line style="stroke:#181818;stroke-width:0.5;" x1="784.5" x2="967.5" y1="567.7188" y2="567.7188"/></g><g id="elem_GMN30"><path d="M783.5,683 L783.5,738.7031 A0,0 0 0 0 783.5,738.7031 L968.5,738.7031 A0,0 0 0 0 968.5,738.7031 L968.5,693 L958.5,683 L880,683 L876,575.82 L872,683 L783.5,683 A0,0 0 0 0 783.5,683 " fill="#FEFFDD" style="stroke:#181818;stroke-width:0.5;"/><path d="M958.5,683 L958.5,693 L968.5,693 L958.5,683 " fill="#FEFFDD" style="stroke:#181818;stroke-width:0.5;"/><text fill="#000000" font-family="sans-serif" font-size="13" lengthAdjust="spacing" textLength="164" x="789.5" y="700.0605">This class will have methods</text><text fill="#000000" font-family="sans-serif" font-size="13" lengthAdjust="spacing" textLength="163" x="789.5" y="715.2949">performing operations on the</text><text fill="#000000" font-family="sans-serif" font-size="13" lengthAdjust="spacing" textLength="130" x="789.5" y="730.5293">calibration parameters.</text></g><!--reverse link Data to Metadata--><g id="link_Data_Metadata"><path codeLine="11" d="M498.28,72 C514.31,72 518.34,72 534.38,72 " fill="none" id="Data-backto-Metadata" style="stroke:#181818;stroke-width:1.0;"/><polygon fill="#181818" points="486.28,72,492.28,76,498.28,72,492.28,68,486.28,72" style="stroke:#181818;stroke-width:1.0;"/></g><!--reverse link Data to MeasureData--><g id="link_Data_MeasureData"><path d="M391.5471,155.1474 C387.6071,181.1874 385.92,192.25 382.71,213.45 " fill="none" id="Data-backto-MeasureData" style="stroke:#181818;stroke-width:1.0;"/><polygon fill="none" points="394.24,137.35,385.6147,154.2498,397.4796,156.045,394.24,137.35" style="stroke:#181818;stroke-width:1.0;"/></g><!--reverse link MeasureData to MeasureMetadata--><g id="link_MeasureData_MeasureMetadata"><path codeLine="17" d="M498.08,245.5 C509.85,245.5 509.62,245.5 521.39,245.5 " fill="none" id="MeasureData-backto-MeasureMetadata" style="stroke:#181818;stroke-width:1.0;"/><polygon fill="#181818" points="486.08,245.5,492.08,249.5,498.08,245.5,492.08,241.5,486.08,245.5" style="stroke:#181818;stroke-width:1.0;"/></g><!--reverse link MeasureData to ChannelData--><g id="link_MeasureData_ChannelData"><path d="M378,295.76 C378,319.13 378,332.58 378,353.76 " fill="none" id="MeasureData-backto-ChannelData" style="stroke:#181818;stroke-width:1.0;"/><polygon fill="none" points="378,277.76,372,295.76,384,295.76,378,277.76" style="stroke:#181818;stroke-width:1.0;"/></g><!--reverse link ChannelData to ChannelMetadata--><g id="link_ChannelData_ChannelMetadata"><path codeLine="21" d="M446.67,378 C481.77,378 504.86,378 539.96,378 " fill="none" id="ChannelData-backto-ChannelMetadata" style="stroke:#181818;stroke-width:1.0;"/><polygon fill="#181818" points="434.67,378,440.67,382,446.67,378,440.67,374,434.67,378" style="stroke:#181818;stroke-width:1.0;"/></g><!--reverse link ChannelData to ArrayChannelData--><g id="link_ChannelData_ArrayChannelData"><path d="M378,420.29 C378,436.4 378,440.68 378,461.89 " fill="none" id="ChannelData-backto-ArrayChannelData" style="stroke:#181818;stroke-width:1.0;"/><polygon fill="none" points="378,402.29,372,420.29,384,420.29,378,402.29" style="stroke:#181818;stroke-width:1.0;"/></g><!--reverse link ArrayChannelData to ArrayChannelMetadata--><g id="link_ArrayChannelData_ArrayChannelMetadata"><path codeLine="31" d="M485.6,527 C497.33,527 497.07,527 508.8,527 " fill="none" id="ArrayChannelData-backto-ArrayChannelMetadata" style="stroke:#181818;stroke-width:1.0;"/><polygon fill="#181818" points="473.6,527,479.6,531,485.6,527,479.6,523,473.6,527" style="stroke:#181818;stroke-width:1.0;"/></g><!--link ArrayChannelROIData to ArrayChannelData--><g id="link_ArrayChannelROIData_ArrayChannelData"><path codeLine="33" d="M247.5,527 C259.14,527 258.78,527 270.42,527 " fill="none" id="ArrayChannelROIData-to-ArrayChannelData" style="stroke:#181818;stroke-width:1.0;"/><polygon fill="#181818" points="282.42,527,276.42,523,270.42,527,276.42,531,282.42,527" style="stroke:#181818;stroke-width:1.0;"/><text fill="#000000" font-family="sans-serif" font-size="13" lengthAdjust="spacing" textLength="20" x="255.3398" y="523.548">0..n</text></g><!--reverse link ChannelData to ArrayChannelROIData--><g id="link_ChannelData_ArrayChannelROIData"><path d="M326.2858,411.765 C290.6858,434.325 251.04,459.44 208.49,486.4 " fill="none" id="ChannelData-backto-ArrayChannelROIData" style="stroke:#181818;stroke-width:1.0;"/><polygon fill="none" points="341.49,402.13,323.0742,406.6969,329.4975,416.8331,341.49,402.13" style="stroke:#181818;stroke-width:1.0;"/></g><!--reverse link Metadata to MeasureMetadata--><g id="link_Metadata_MeasureMetadata"><path d="M585.7124,130.7205 C588.2124,161.3905 590.16,185.27 592.47,213.49 " fill="none" id="Metadata-backto-MeasureMetadata" style="stroke:#181818;stroke-width:1.0;"/><polygon fill="none" points="584.25,112.78,579.7322,131.208,591.6925,130.233,584.25,112.78" style="stroke:#181818;stroke-width:1.0;"/></g><!--reverse link MeasureMetadata to ChannelMetadata--><g id="link_MeasureMetadata_ChannelMetadata"><path d="M601.3994,295.6086 C604.4494,318.9786 606.21,332.58 608.97,353.76 " fill="none" id="MeasureMetadata-backto-ChannelMetadata" style="stroke:#181818;stroke-width:1.0;"/><polygon fill="none" points="599.07,277.76,595.4499,296.3851,607.349,294.8322,599.07,277.76" style="stroke:#181818;stroke-width:1.0;"/></g><!--reverse link DeviceMetadata to ChannelMetadata--><g id="link_DeviceMetadata_ChannelMetadata"><path d="M700.5831,305.6428 C675.4731,325.8728 661.4,337.2 640.97,353.66 " fill="none" id="DeviceMetadata-backto-ChannelMetadata" style="stroke:#181818;stroke-width:1.0;stroke-dasharray:7.0,7.0;"/><polygon fill="none" points="714.6,294.35,696.8189,300.9705,704.3474,310.3151,714.6,294.35" style="stroke:#181818;stroke-width:1.0;"/></g><!--reverse link ChannelMetadata to ArrayChannelMetadata--><g id="link_ChannelMetadata_ArrayChannelMetadata"><path d="M616.7625,420.1703 C619.6625,445.1903 622.2,467.19 625.4,494.88 " fill="none" id="ChannelMetadata-backto-ArrayChannelMetadata" style="stroke:#181818;stroke-width:1.0;"/><polygon fill="none" points="614.69,402.29,610.8024,420.8611,622.7226,419.4795,614.69,402.29" style="stroke:#181818;stroke-width:1.0;"/></g><!--reverse link ArrayChannelMetadata to ArrayChannelCalibration--><g id="link_ArrayChannelMetadata_ArrayChannelCalibration"><path codeLine="71" d="M761.12,527 C772.52,527 771.92,527 783.32,527 " fill="none" id="ArrayChannelMetadata-backto-ArrayChannelCalibration" style="stroke:#181818;stroke-width:1.0;"/><polygon fill="#181818" points="749.12,527,755.12,531,761.12,527,755.12,523,749.12,527" style="stroke:#181818;stroke-width:1.0;"/></g><!--SRC=[VLLDQzj04BthLmowD0tOwJbGGaWkEOH2AVHGYXbB8sl9VgYx8piXvBztj98jhIp75tjczhrvEn_hBpLp4svlRXgDbbkZruKpDuN645Qbmfr7asNHX4TaXFSCv6E8iUpCMtWUVaQ_QrWv6yHTgeAZQpESiytQbkWzllLkPHhdcRo4EkAdmOp13dBrDVl8ifZpUZLc6RGy4uRMKmpJAvCj4ttlbI9TVa3ZWZeg6WLSbVpMq7TbEUQOSiLKqPndVAZHMj99nWaoowO7X6OmvpJtdO0bhgclluHtwizV4Jw5_Fpnz7WijbOLRLWPEg-k9zGNGesdGBpv13oSkC0X1JkxWrntwXlll20Tyc_hjSrXTNrMYwKQ7L4BPKfRhN5BMgG6zihkaf11_n87xT88MCS4MyVi3BZgOi6VUvvGkrQNi2L0u8DRaIP3bc5F1Rj-W0-AwydmEGjS4xm2lghGPUYiqCXvtvfrH3m5o7kTUOnkAJ1OD7G73sZXGB0ZInwr2XG1xA1It7tb-RtqAjMRvu11K5hVPV7uxnePd31xG9OIRLkc0EX9PaNJNdOVga5ylFwnq224uIwJsaDNfMnSmE45wBlGAKsBFtiAFcQRUyAFkvGGjbOkTo8KjBIAV8K5mIFjLK6pywfCqpVxrCQYe10snfMKq2RBlI0g5IkFLj_iC5EnDBfdR7D_hxoGdcuzTjMQBVl369cltObZjdfJo8AaINZ8xgfAbbqILzfX_s87xHfAFFzQB3jKSV9-kZDJ4HtyLorJtuivAAsXnZrrVo6rAqFVBEciyqPQ8cD3FVAuDMSrQb3-aqY68Qp7iVmF]--></g></svg>