<?xml version="1.0" encoding="us-ascii" standalone="no"?><svg xmlns="http://www.w3.org/2000/svg" xmlns:xlink="http://www.w3.org/1999/xlink" contentStyleType="text/css" height="468px" preserveAspectRatio="none" style="width:868px;height:468px;background:#FFFFFF;" version="1.1" viewBox="0 0 868 468" width="868px" zoomAndPan="magnify"><defs/><g><!--class ChannelData--><g id="elem_ChannelData"><rect codeLine="3" fill="#F1F1F1" height="48" id="ChannelData" rx="2.5" ry="2.5" style="stroke:#181818;stroke-width:0.5;" width="113" x="249" y="115"/><ellipse cx="264" cy="131" fill="#ADD1B2" rx="11" ry="11" style="stroke:#181818;stroke-width:1.0;"/><path d="M264.0469,137.2031 C265.5469,137.2031 266.7813,136.6406 267.6875,135.5781 L266.3125,134.0625 C265.7656,134.6563 265.1094,135.0469 264.3125,135.0469 C262.6406,135.0469 261.4844,133.7188 261.4844,131.4375 C261.4844,129.2188 262.6406,127.875 264.2031,127.875 C265.0156,127.875 265.6094,128.1875 266.1406,128.6719 L267.5156,127.125 C266.7656,126.3906 265.6094,125.7188 264.2031,125.7188 C261.25,125.7188 258.9219,127.8594 258.9219,131.5313 C258.9219,135.25 261.2969,137.2031 264.0469,137.2031 Z " fill="#000000"/><text fill="#000000" font-family="sans-serif" font-size="14" lengthAdjust="spacing" textLength="81" x="278" y="135.7852">ChannelData</text><line style="stroke:#181818;stroke-width:0.5;" x1="250" x2="361" y1="147" y2="147"/><line style="stroke:#181818;stroke-width:0.5;" x1="250" x2="361" y1="155" y2="155"/></g><!--class MeasureData--><g id="elem_MeasureData"><rect fill="#F1F1F1" height="48" id="MeasureData" rx="2.5" ry="2.5" style="stroke:#181818;stroke-width:0.5;" width="116" x="158.5" y="7"/><ellipse cx="173.5" cy="23" fill="#ADD1B2" rx="11" ry="11" style="stroke:#181818;stroke-width:1.0;"/><path d="M173.5469,29.2031 C175.0469,29.2031 176.2813,28.6406 177.1875,27.5781 L175.8125,26.0625 C175.2656,26.6563 174.6094,27.0469 173.8125,27.0469 C172.1406,27.0469 170.9844,25.7188 170.9844,23.4375 C170.9844,21.2188 172.1406,19.875 173.7031,19.875 C174.5156,19.875 175.1094,20.1875 175.6406,20.6719 L177.0156,19.125 C176.2656,18.3906 175.1094,17.7188 173.7031,17.7188 C170.75,17.7188 168.4219,19.8594 168.4219,23.5313 C168.4219,27.25 170.7969,29.2031 173.5469,29.2031 Z " fill="#000000"/><text fill="#000000" font-family="sans-serif" font-size="14" lengthAdjust="spacing" textLength="84" x="187.5" y="27.7852">MeasureData</text><line style="stroke:#181818;stroke-width:0.5;" x1="159.5" x2="273.5" y1="39" y2="39"/><line style="stroke:#181818;stroke-width:0.5;" x1="159.5" x2="273.5" y1="47" y2="47"/></g><!--class ArrayChannelData--><g id="elem_ArrayChannelData"><rect codeLine="5" fill="#F1F1F1" height="48" id="ArrayChannelData" rx="2.5" ry="2.5" style="stroke:#181818;stroke-width:0.5;" width="147" x="267" y="223"/><ellipse cx="282" cy="239" fill="#ADD1B2" rx="11" ry="11" style="stroke:#181818;stroke-width:1.0;"/><path d="M282.0469,245.2031 C283.5469,245.2031 284.7813,244.6406 285.6875,243.5781 L284.3125,242.0625 C283.7656,242.6563 283.1094,243.0469 282.3125,243.0469 C280.6406,243.0469 279.4844,241.7188 279.4844,239.4375 C279.4844,237.2188 280.6406,235.875 282.2031,235.875 C283.0156,235.875 283.6094,236.1875 284.1406,236.6719 L285.5156,235.125 C284.7656,234.3906 283.6094,233.7188 282.2031,233.7188 C279.25,233.7188 276.9219,235.8594 276.9219,239.5313 C276.9219,243.25 279.2969,245.2031 282.0469,245.2031 Z " fill="#000000"/><text fill="#000000" font-family="sans-serif" font-size="14" lengthAdjust="spacing" textLength="115" x="296" y="243.7852">ArrayChannelData</text><line style="stroke:#181818;stroke-width:0.5;" x1="268" x2="413" y1="255" y2="255"/><line style="stroke:#181818;stroke-width:0.5;" x1="268" x2="413" y1="263" y2="263"/></g><!--class ScopeChannelData--><g id="elem_ScopeChannelData"><rect codeLine="8" fill="#F1F1F1" height="48" id="ScopeChannelData" rx="2.5" ry="2.5" style="stroke:#181818;stroke-width:0.5;" width="151" x="471" y="372"/><ellipse cx="486" cy="388" fill="#ADD1B2" rx="11" ry="11" style="stroke:#181818;stroke-width:1.0;"/><path d="M486.0469,394.2031 C487.5469,394.2031 488.7813,393.6406 489.6875,392.5781 L488.3125,391.0625 C487.7656,391.6563 487.1094,392.0469 486.3125,392.0469 C484.6406,392.0469 483.4844,390.7188 483.4844,388.4375 C483.4844,386.2188 484.6406,384.875 486.2031,384.875 C487.0156,384.875 487.6094,385.1875 488.1406,385.6719 L489.5156,384.125 C488.7656,383.3906 487.6094,382.7188 486.2031,382.7188 C483.25,382.7188 480.9219,384.8594 480.9219,388.5313 C480.9219,392.25 483.2969,394.2031 486.0469,394.2031 Z " fill="#000000"/><text fill="#000000" font-family="sans-serif" font-size="14" lengthAdjust="spacing" textLength="119" x="500" y="392.7852">ScopeChannelData</text><line style="stroke:#181818;stroke-width:0.5;" x1="472" x2="621" y1="404" y2="404"/><line style="stroke:#181818;stroke-width:0.5;" x1="472" x2="621" y1="412" y2="412"/></g><!--class MCAChannelData--><g id="elem_MCAChannelData"><rect codeLine="10" fill="#F1F1F1" height="130.0313" id="MCAChannelData" rx="2.5" ry="2.5" style="stroke:#181818;stroke-width:0.5;" width="191" x="245" y="331"/><ellipse cx="281.6" cy="347" fill="#ADD1B2" rx="11" ry="11" style="stroke:#181818;stroke-width:1.0;"/><path d="M281.6469,353.2031 C283.1469,353.2031 284.3813,352.6406 285.2875,351.5781 L283.9125,350.0625 C283.3656,350.6563 282.7094,351.0469 281.9125,351.0469 C280.2406,351.0469 279.0844,349.7188 279.0844,347.4375 C279.0844,345.2188 280.2406,343.875 281.8031,343.875 C282.6156,343.875 283.2094,344.1875 283.7406,344.6719 L285.1156,343.125 C284.3656,342.3906 283.2094,341.7188 281.8031,341.7188 C278.85,341.7188 276.5219,343.8594 276.5219,347.5313 C276.5219,351.25 278.8969,353.2031 281.6469,353.2031 Z " fill="#000000"/><text fill="#000000" font-family="sans-serif" font-size="14" lengthAdjust="spacing" textLength="111" x="300.4" y="351.7852">MCAChannelData</text><line style="stroke:#181818;stroke-width:0.5;" x1="246" x2="435" y1="363" y2="363"/><text fill="#000000" font-family="sans-serif" font-size="14" lengthAdjust="spacing" textLength="167" x="251" y="379.9883">roi[] : MCAChannelROIData</text><text fill="#000000" font-family="sans-serif" font-size="14" lengthAdjust="spacing" textLength="129" x="251" y="396.3945">life_time : np.ndarray</text><text fill="#000000" font-family="sans-serif" font-size="14" lengthAdjust="spacing" textLength="134" x="251" y="412.8008">real_time : np.ndarray</text><text fill="#000000" font-family="sans-serif" font-size="14" lengthAdjust="spacing" textLength="174" x="251" y="429.207">preset_life_time : np.ndarray</text><text fill="#000000" font-family="sans-serif" font-size="14" lengthAdjust="spacing" textLength="179" x="251" y="445.6133">preset_real_time : np.ndarray</text><line style="stroke:#181818;stroke-width:0.5;" x1="246" x2="435" y1="453.0313" y2="453.0313"/></g><!--class MCAChannelROIData--><g id="elem_MCAChannelROIData"><rect codeLine="20" fill="#F1F1F1" height="80.8125" id="MCAChannelROIData" rx="2.5" ry="2.5" style="stroke:#181818;stroke-width:0.5;" width="203" x="7" y="355.5"/><ellipse cx="38.65" cy="371.5" fill="#ADD1B2" rx="11" ry="11" style="stroke:#181818;stroke-width:1.0;"/><path d="M38.6969,377.7031 C40.1969,377.7031 41.4313,377.1406 42.3375,376.0781 L40.9625,374.5625 C40.4156,375.1563 39.7594,375.5469 38.9625,375.5469 C37.2906,375.5469 36.1344,374.2188 36.1344,371.9375 C36.1344,369.7188 37.2906,368.375 38.8531,368.375 C39.6656,368.375 40.2594,368.6875 40.7906,369.1719 L42.1656,367.625 C41.4156,366.8906 40.2594,366.2188 38.8531,366.2188 C35.9,366.2188 33.5719,368.3594 33.5719,372.0313 C33.5719,375.75 35.9469,377.7031 38.6969,377.7031 Z " fill="#000000"/><text fill="#000000" font-family="sans-serif" font-size="14" lengthAdjust="spacing" textLength="134" x="56.35" y="376.2852">MCAChannelROIData</text><line style="stroke:#181818;stroke-width:0.5;" x1="8" x2="209" y1="387.5" y2="387.5"/><text fill="#000000" font-family="sans-serif" font-size="14" lengthAdjust="spacing" textLength="74" x="13" y="404.4883">label : string</text><text fill="#000000" font-family="sans-serif" font-size="14" lengthAdjust="spacing" textLength="191" x="13" y="420.8945">marker : np.ndarray(dtype=int)</text><line style="stroke:#181818;stroke-width:0.5;" x1="8" x2="209" y1="428.3125" y2="428.3125"/></g><!--class ScopeData--><g id="elem_ScopeData"><rect codeLine="25" fill="#F1F1F1" height="64.4063" id="ScopeData" rx="2.5" ry="2.5" style="stroke:#181818;stroke-width:0.5;" width="204" x="657.5" y="364"/><ellipse cx="721.25" cy="380" fill="#ADD1B2" rx="11" ry="11" style="stroke:#181818;stroke-width:1.0;"/><path d="M721.2969,386.2031 C722.7969,386.2031 724.0313,385.6406 724.9375,384.5781 L723.5625,383.0625 C723.0156,383.6563 722.3594,384.0469 721.5625,384.0469 C719.8906,384.0469 718.7344,382.7188 718.7344,380.4375 C718.7344,378.2188 719.8906,376.875 721.4531,376.875 C722.2656,376.875 722.8594,377.1875 723.3906,377.6719 L724.7656,376.125 C724.0156,375.3906 722.8594,374.7188 721.4531,374.7188 C718.5,374.7188 716.1719,376.8594 716.1719,380.5313 C716.1719,384.25 718.5469,386.2031 721.2969,386.2031 Z " fill="#000000"/><text fill="#000000" font-family="sans-serif" font-size="14" lengthAdjust="spacing" textLength="68" x="741.75" y="384.7852">ScopeData</text><line style="stroke:#181818;stroke-width:0.5;" x1="658.5" x2="860.5" y1="396" y2="396"/><text fill="#000000" font-family="sans-serif" font-size="14" lengthAdjust="spacing" textLength="192" x="663.5" y="412.9883">channels[] : ScopeChannelData</text><line style="stroke:#181818;stroke-width:0.5;" x1="658.5" x2="860.5" y1="420.4063" y2="420.4063"/></g><!--reverse link MeasureData to ChannelData--><g id="link_MeasureData_ChannelData"><path d="M247.3854,68.7844 C262.2154,86.4444 271.03,96.94 285.92,114.68 " fill="none" id="MeasureData-backto-ChannelData" style="stroke:#181818;stroke-width:1.0;"/><polygon fill="none" points="235.81,55,242.7907,72.6429,251.9802,64.9259,235.81,55" style="stroke:#181818;stroke-width:1.0;"/></g><!--reverse link ChannelData to ArrayChannelData--><g id="link_ChannelData_ArrayChannelData"><path d="M318.7327,180.0927 C324.5627,197.7527 326.94,204.94 332.8,222.68 " fill="none" id="ChannelData-backto-ArrayChannelData" style="stroke:#181818;stroke-width:1.0;"/><polygon fill="none" points="313.09,163,313.0352,181.9736,324.4303,178.2118,313.09,163" style="stroke:#181818;stroke-width:1.0;"/></g><!--reverse link ArrayChannelData to ScopeChannelData--><g id="link_ArrayChannelData_ScopeChannelData"><path d="M391.9365,280.9375 C414.3165,295.4375 428.34,304.95 453.5,323 C475.4,338.71 499.44,357.36 517.59,371.75 " fill="none" id="ArrayChannelData-backto-ScopeChannelData" style="stroke:#181818;stroke-width:1.0;"/><polygon fill="none" points="376.83,271.15,388.674,285.973,395.199,275.902,376.83,271.15" style="stroke:#181818;stroke-width:1.0;"/></g><!--reverse link ArrayChannelData to MCAChannelData--><g id="link_ArrayChannelData_MCAChannelData"><path d="M340.5,289.29 C340.5,305.4 340.5,309.68 340.5,330.89 " fill="none" id="ArrayChannelData-backto-MCAChannelData" style="stroke:#181818;stroke-width:1.0;"/><polygon fill="none" points="340.5,271.29,334.5,289.29,346.5,289.29,340.5,271.29" style="stroke:#181818;stroke-width:1.0;"/></g><!--link MCAChannelROIData to MCAChannelData--><g id="link_MCAChannelROIData_MCAChannelData"><path codeLine="18" d="M210,396 C221.64,396 221.28,396 232.92,396 " fill="none" id="MCAChannelROIData-to-MCAChannelData" style="stroke:#181818;stroke-width:1.0;"/><polygon fill="#181818" points="244.92,396,238.92,392,232.92,396,238.92,400,244.92,396" style="stroke:#181818;stroke-width:1.0;"/><text fill="#000000" font-family="sans-serif" font-size="13" lengthAdjust="spacing" textLength="20" x="217.8398" y="392.548">0..n</text></g><!--reverse link MeasureData to MCAChannelROIData--><g id="link_MeasureData_MCAChannelROIData"><path d="M204.4474,72.5127 C186.4074,133.1527 142.91,279.35 120.32,355.26 " fill="none" id="MeasureData-backto-MCAChannelROIData" style="stroke:#181818;stroke-width:1.0;"/><polygon fill="none" points="209.58,55.26,198.6965,70.8019,210.1983,74.2236,209.58,55.26" style="stroke:#181818;stroke-width:1.0;"/></g><!--link ScopeChannelData to ScopeData--><g id="link_ScopeChannelData_ScopeData"><path codeLine="29" d="M622.21,396 C633.92,396 633.63,396 645.34,396 " fill="none" id="ScopeChannelData-to-ScopeData" style="stroke:#181818;stroke-width:1.0;"/><polygon fill="#181818" points="657.34,396,651.34,392,645.34,396,651.34,400,657.34,396" style="stroke:#181818;stroke-width:1.0;"/><text fill="#000000" font-family="sans-serif" font-size="13" lengthAdjust="spacing" textLength="20" x="629.5518" y="392.3412">0..n</text></g><!--SRC=[ZL6nQiCm4Dtr5I9BqqBipe4E8LqwX48xXXAkriKMbMGXNI31vDyZENQhsawfDjszz-xTlRkAoFfbdbi5XWvQPKMjyqA1zmiXeNIW6Mk_V5s1CQYUWO3ZaT08ppS8_k0mrdhOoZauJM7JMdDcZEeIgKB7cuxvNjGMfvX3oNxKPhtw3pmCuE6vMcu_-39XlRs-j7Ang-GUToGr1eIncH4GLQv417MZPHrwfDqVv0vnGoESOMI7pnwppCpuuc6mu7ZjdZ4HHxTqivUen9ah-4GLPdjoqfI_MXhSLqWXzJKNTBBu90tTHuj9F8bqSVNWswCEiukqKPu_YtrhiG2y0000]--></g></svg>