<?xml version="1.0" encoding="us-ascii" standalone="no"?><svg xmlns="http://www.w3.org/2000/svg" xmlns:xlink="http://www.w3.org/1999/xlink" contentStyleType="text/css" height="360px" preserveAspectRatio="none" style="width:868px;height:360px;background:#FFFFFF;" version="1.1" viewBox="0 0 868 360" width="868px" zoomAndPan="magnify"><defs/><g><!--class ArrayChannelData--><g id="elem_ArrayChannelData"><rect codeLine="3" fill="#F1F1F1" height="48" id="ArrayChannelData" rx="2.5" ry="2.5" style="stroke:#181818;stroke-width:0.5;" width="147" x="267" y="115"/><ellipse cx="282" cy="131" fill="#ADD1B2" rx="11" ry="11" style="stroke:#181818;stroke-width:1.0;"/><path d="M282.0469,137.2031 C283.5469,137.2031 284.7813,136.6406 285.6875,135.5781 L284.3125,134.0625 C283.7656,134.6563 283.1094,135.0469 282.3125,135.0469 C280.6406,135.0469 279.4844,133.7188 279.4844,131.4375 C279.4844,129.2188 280.6406,127.875 282.2031,127.875 C283.0156,127.875 283.6094,128.1875 284.1406,128.6719 L285.5156,127.125 C284.7656,126.3906 283.6094,125.7188 282.2031,125.7188 C279.25,125.7188 276.9219,127.8594 276.9219,131.5313 C276.9219,135.25 279.2969,137.2031 282.0469,137.2031 Z " fill="#000000"/><text fill="#000000" font-family="sans-serif" font-size="14" lengthAdjust="spacing" textLength="115" x="296" y="135.7852">ArrayChannelData</text><line style="stroke:#181818;stroke-width:0.5;" x1="268" x2="413" y1="147" y2="147"/><line style="stroke:#181818;stroke-width:0.5;" x1="268" x2="413" y1="155" y2="155"/></g><!--class ChannelData--><g id="elem_ChannelData"><rect fill="#F1F1F1" height="48" id="ChannelData" rx="2.5" ry="2.5" style="stroke:#181818;stroke-width:0.5;" width="113" x="168" y="7"/><ellipse cx="183" cy="23" fill="#ADD1B2" rx="11" ry="11" style="stroke:#181818;stroke-width:1.0;"/><path d="M183.0469,29.2031 C184.5469,29.2031 185.7813,28.6406 186.6875,27.5781 L185.3125,26.0625 C184.7656,26.6563 184.1094,27.0469 183.3125,27.0469 C181.6406,27.0469 180.4844,25.7188 180.4844,23.4375 C180.4844,21.2188 181.6406,19.875 183.2031,19.875 C184.0156,19.875 184.6094,20.1875 185.1406,20.6719 L186.5156,19.125 C185.7656,18.3906 184.6094,17.7188 183.2031,17.7188 C180.25,17.7188 177.9219,19.8594 177.9219,23.5313 C177.9219,27.25 180.2969,29.2031 183.0469,29.2031 Z " fill="#000000"/><text fill="#000000" font-family="sans-serif" font-size="14" lengthAdjust="spacing" textLength="81" x="197" y="27.7852">ChannelData</text><line style="stroke:#181818;stroke-width:0.5;" x1="169" x2="280" y1="39" y2="39"/><line style="stroke:#181818;stroke-width:0.5;" x1="169" x2="280" y1="47" y2="47"/></g><!--class ScopeChannelData--><g id="elem_ScopeChannelData"><rect codeLine="6" fill="#F1F1F1" height="48" id="ScopeChannelData" rx="2.5" ry="2.5" style="stroke:#181818;stroke-width:0.5;" width="151" x="471" y="264"/><ellipse cx="486" cy="280" fill="#ADD1B2" rx="11" ry="11" style="stroke:#181818;stroke-width:1.0;"/><path d="M486.0469,286.2031 C487.5469,286.2031 488.7813,285.6406 489.6875,284.5781 L488.3125,283.0625 C487.7656,283.6563 487.1094,284.0469 486.3125,284.0469 C484.6406,284.0469 483.4844,282.7188 483.4844,280.4375 C483.4844,278.2188 484.6406,276.875 486.2031,276.875 C487.0156,276.875 487.6094,277.1875 488.1406,277.6719 L489.5156,276.125 C488.7656,275.3906 487.6094,274.7188 486.2031,274.7188 C483.25,274.7188 480.9219,276.8594 480.9219,280.5313 C480.9219,284.25 483.2969,286.2031 486.0469,286.2031 Z " fill="#000000"/><text fill="#000000" font-family="sans-serif" font-size="14" lengthAdjust="spacing" textLength="119" x="500" y="284.7852">ScopeChannelData</text><line style="stroke:#181818;stroke-width:0.5;" x1="472" x2="621" y1="296" y2="296"/><line style="stroke:#181818;stroke-width:0.5;" x1="472" x2="621" y1="304" y2="304"/></g><!--class MCAChannelData--><g id="elem_MCAChannelData"><rect codeLine="8" fill="#F1F1F1" height="130.0313" id="MCAChannelData" rx="2.5" ry="2.5" style="stroke:#181818;stroke-width:0.5;" width="191" x="245" y="223"/><ellipse cx="281.6" cy="239" fill="#ADD1B2" rx="11" ry="11" style="stroke:#181818;stroke-width:1.0;"/><path d="M281.6469,245.2031 C283.1469,245.2031 284.3813,244.6406 285.2875,243.5781 L283.9125,242.0625 C283.3656,242.6563 282.7094,243.0469 281.9125,243.0469 C280.2406,243.0469 279.0844,241.7188 279.0844,239.4375 C279.0844,237.2188 280.2406,235.875 281.8031,235.875 C282.6156,235.875 283.2094,236.1875 283.7406,236.6719 L285.1156,235.125 C284.3656,234.3906 283.2094,233.7188 281.8031,233.7188 C278.85,233.7188 276.5219,235.8594 276.5219,239.5313 C276.5219,243.25 278.8969,245.2031 281.6469,245.2031 Z " fill="#000000"/><text fill="#000000" font-family="sans-serif" font-size="14" lengthAdjust="spacing" textLength="111" x="300.4" y="243.7852">MCAChannelData</text><line style="stroke:#181818;stroke-width:0.5;" x1="246" x2="435" y1="255" y2="255"/><text fill="#000000" font-family="sans-serif" font-size="14" lengthAdjust="spacing" textLength="167" x="251" y="271.9883">roi[] : MCAChannelROIData</text><text fill="#000000" font-family="sans-serif" font-size="14" lengthAdjust="spacing" textLength="129" x="251" y="288.3945">life_time : np.ndarray</text><text fill="#000000" font-family="sans-serif" font-size="14" lengthAdjust="spacing" textLength="134" x="251" y="304.8008">real_time : np.ndarray</text><text fill="#000000" font-family="sans-serif" font-size="14" lengthAdjust="spacing" textLength="174" x="251" y="321.207">preset_life_time : np.ndarray</text><text fill="#000000" font-family="sans-serif" font-size="14" lengthAdjust="spacing" textLength="179" x="251" y="337.6133">preset_real_time : np.ndarray</text><line style="stroke:#181818;stroke-width:0.5;" x1="246" x2="435" y1="345.0313" y2="345.0313"/></g><!--class MCAChannelROIData--><g id="elem_MCAChannelROIData"><rect codeLine="18" fill="#F1F1F1" height="80.8125" id="MCAChannelROIData" rx="2.5" ry="2.5" style="stroke:#181818;stroke-width:0.5;" width="203" x="7" y="247.5"/><ellipse cx="38.65" cy="263.5" fill="#ADD1B2" rx="11" ry="11" style="stroke:#181818;stroke-width:1.0;"/><path d="M38.6969,269.7031 C40.1969,269.7031 41.4313,269.1406 42.3375,268.0781 L40.9625,266.5625 C40.4156,267.1563 39.7594,267.5469 38.9625,267.5469 C37.2906,267.5469 36.1344,266.2188 36.1344,263.9375 C36.1344,261.7188 37.2906,260.375 38.8531,260.375 C39.6656,260.375 40.2594,260.6875 40.7906,261.1719 L42.1656,259.625 C41.4156,258.8906 40.2594,258.2188 38.8531,258.2188 C35.9,258.2188 33.5719,260.3594 33.5719,264.0313 C33.5719,267.75 35.9469,269.7031 38.6969,269.7031 Z " fill="#000000"/><text fill="#000000" font-family="sans-serif" font-size="14" lengthAdjust="spacing" textLength="134" x="56.35" y="268.2852">MCAChannelROIData</text><line style="stroke:#181818;stroke-width:0.5;" x1="8" x2="209" y1="279.5" y2="279.5"/><text fill="#000000" font-family="sans-serif" font-size="14" lengthAdjust="spacing" textLength="74" x="13" y="296.4883">label : string</text><text fill="#000000" font-family="sans-serif" font-size="14" lengthAdjust="spacing" textLength="191" x="13" y="312.8945">marker : np.ndarray(dtype=int)</text><line style="stroke:#181818;stroke-width:0.5;" x1="8" x2="209" y1="320.3125" y2="320.3125"/></g><!--class ScopeData--><g id="elem_ScopeData"><rect codeLine="23" fill="#F1F1F1" height="64.4063" id="ScopeData" rx="2.5" ry="2.5" style="stroke:#181818;stroke-width:0.5;" width="204" x="657.5" y="256"/><ellipse cx="721.25" cy="272" fill="#ADD1B2" rx="11" ry="11" style="stroke:#181818;stroke-width:1.0;"/><path d="M721.2969,278.2031 C722.7969,278.2031 724.0313,277.6406 724.9375,276.5781 L723.5625,275.0625 C723.0156,275.6563 722.3594,276.0469 721.5625,276.0469 C719.8906,276.0469 718.7344,274.7188 718.7344,272.4375 C718.7344,270.2188 719.8906,268.875 721.4531,268.875 C722.2656,268.875 722.8594,269.1875 723.3906,269.6719 L724.7656,268.125 C724.0156,267.3906 722.8594,266.7188 721.4531,266.7188 C718.5,266.7188 716.1719,268.8594 716.1719,272.5313 C716.1719,276.25 718.5469,278.2031 721.2969,278.2031 Z " fill="#000000"/><text fill="#000000" font-family="sans-serif" font-size="14" lengthAdjust="spacing" textLength="68" x="741.75" y="276.7852">ScopeData</text><line style="stroke:#181818;stroke-width:0.5;" x1="658.5" x2="860.5" y1="288" y2="288"/><text fill="#000000" font-family="sans-serif" font-size="14" lengthAdjust="spacing" textLength="192" x="663.5" y="304.9883">channels[] : ScopeChannelData</text><line style="stroke:#181818;stroke-width:0.5;" x1="658.5" x2="860.5" y1="312.4063" y2="312.4063"/></g><!--reverse link ChannelData to ArrayChannelData--><g id="link_ChannelData_ArrayChannelData"><path d="M262.9559,67.1443 C282.2759,84.8043 295.57,96.94 314.98,114.68 " fill="none" id="ChannelData-backto-ArrayChannelData" style="stroke:#181818;stroke-width:1.0;"/><polygon fill="none" points="249.67,55,258.9078,71.573,267.004,62.7157,249.67,55" style="stroke:#181818;stroke-width:1.0;"/></g><!--reverse link ArrayChannelData to ScopeChannelData--><g id="link_ArrayChannelData_ScopeChannelData"><path d="M391.9365,172.9375 C414.3165,187.4375 428.34,196.95 453.5,215 C475.4,230.71 499.44,249.36 517.59,263.75 " fill="none" id="ArrayChannelData-backto-ScopeChannelData" style="stroke:#181818;stroke-width:1.0;"/><polygon fill="none" points="376.83,163.15,388.674,177.973,395.199,167.902,376.83,163.15" style="stroke:#181818;stroke-width:1.0;"/></g><!--reverse link ArrayChannelData to MCAChannelData--><g id="link_ArrayChannelData_MCAChannelData"><path d="M340.5,181.29 C340.5,197.4 340.5,201.68 340.5,222.89 " fill="none" id="ArrayChannelData-backto-MCAChannelData" style="stroke:#181818;stroke-width:1.0;"/><polygon fill="none" points="340.5,163.29,334.5,181.29,346.5,181.29,340.5,163.29" style="stroke:#181818;stroke-width:1.0;"/></g><!--link MCAChannelROIData to MCAChannelData--><g id="link_MCAChannelROIData_MCAChannelData"><path codeLine="16" d="M210,288 C221.64,288 221.28,288 232.92,288 " fill="none" id="MCAChannelROIData-to-MCAChannelData" style="stroke:#181818;stroke-width:1.0;"/><polygon fill="#181818" points="244.92,288,238.92,284,232.92,288,238.92,292,244.92,288" style="stroke:#181818;stroke-width:1.0;"/><text fill="#000000" font-family="sans-serif" font-size="13" lengthAdjust="spacing" textLength="20" x="217.8398" y="284.548">0..n</text></g><!--reverse link ChannelData to MCAChannelROIData--><g id="link_ChannelData_MCAChannelROIData"><path d="M206.5459,71.464 C186.7459,114.984 151.14,193.27 126.59,247.23 " fill="none" id="ChannelData-backto-MCAChannelROIData" style="stroke:#181818;stroke-width:1.0;"/><polygon fill="none" points="214,55.08,201.0845,68.9793,212.0072,73.9487,214,55.08" style="stroke:#181818;stroke-width:1.0;"/></g><!--link ScopeChannelData to ScopeData--><g id="link_ScopeChannelData_ScopeData"><path codeLine="27" d="M622.21,288 C633.92,288 633.63,288 645.34,288 " fill="none" id="ScopeChannelData-to-ScopeData" style="stroke:#181818;stroke-width:1.0;"/><polygon fill="#181818" points="657.34,288,651.34,284,645.34,288,651.34,292,657.34,288" style="stroke:#181818;stroke-width:1.0;"/><text fill="#000000" font-family="sans-serif" font-size="13" lengthAdjust="spacing" textLength="20" x="629.5518" y="284.3412">0..n</text></g><!--SRC=[ZL5BJyCm3BxdLqIxy93MSfx4OHeN3WW9ZWXDfl7Q2CUD4YCnLVllfDq6eTqGkJd-7hQ_YqR4nqLPUWAM3qT5rRgo8eXnRYpK0PnIGwcN8S1srG0pqXq8QFmKP1Dr_jVjb9AsHcamwEx0VAvQZwUOOycZrSDg-HzuCj3fXTQ-lEf5ndfwl1_a-YxP3Qx5Eam8zWKRw5NsH0Gwq_818yhw3_81SKOZdM4oZfxT50NFzFnwjE1qxIFZv8a7-svZaSnE4xmX9UyemNBzg-KWlASKyhakZMmztbgMgtx4B9vCkjgRnU6eu-nwsYJFdyM-jLG2VW40]--></g></svg>