<?xml version="1.0" encoding="us-ascii" standalone="no"?><svg xmlns="http://www.w3.org/2000/svg" xmlns:xlink="http://www.w3.org/1999/xlink" contentStyleType="text/css" height="803px" preserveAspectRatio="none" style="width:1146px;height:803px;background:#FFFFFF;" version="1.1" viewBox="0 0 1146 803" width="1146px" zoomAndPan="magnify"><defs/><g><!--class Data--><g id="elem_Data"><rect codeLine="3" fill="#F1F1F1" height="129.4844" id="Data" rx="2.5" ry="2.5" style="stroke:#181818;stroke-width:0.5;" width="190" x="389" y="7"/><ellipse cx="462.75" cy="23" fill="#ADD1B2" rx="11" ry="11" style="stroke:#181818;stroke-width:1.0;"/><path d="M465.7344,28.6406 Q465.1563,28.9375 464.5156,29.0781 Q463.875,29.2344 463.1719,29.2344 Q460.6563,29.2344 459.3281,27.5938 Q458.0156,25.9375 458.0156,22.8125 Q458.0156,19.6719 459.3281,18.0313 Q460.6563,16.375 463.1719,16.375 Q463.875,16.375 464.5156,16.5313 Q465.1719,16.6719 465.7344,16.9688 L465.7344,19.6875 Q465.0938,19.1094 464.5,18.8438 Q463.9063,18.5781 463.2813,18.5781 Q461.9375,18.5781 461.25,19.6406 Q460.5625,20.7031 460.5625,22.8125 Q460.5625,24.9063 461.25,25.9844 Q461.9375,27.0469 463.2813,27.0469 Q463.9063,27.0469 464.5,26.7813 Q465.0938,26.5 465.7344,25.9219 L465.7344,28.6406 Z " fill="#000000"/><text fill="#000000" font-family="sans-serif" font-size="14" lengthAdjust="spacing" textLength="34" x="483.25" y="27.8467">Data</text><line style="stroke:#181818;stroke-width:0.5;" x1="390" x2="578" y1="39" y2="39"/><text fill="#000000" font-family="sans-serif" font-size="14" lengthAdjust="spacing" textLength="149" x="395" y="55.9951">metadata : Metadata</text><text fill="#000000" font-family="sans-serif" font-size="14" lengthAdjust="spacing" textLength="91" x="395" y="72.292">options : dict</text><text fill="#000000" font-family="sans-serif" font-size="14" lengthAdjust="spacing" textLength="130" x="395" y="88.5889">_data : np.ndarray</text><text fill="#000000" font-family="sans-serif" font-size="14" lengthAdjust="spacing" textLength="178" x="395" y="104.8857">_importer : DataImporter</text><line style="stroke:#181818;stroke-width:0.5;" x1="390" x2="578" y1="112.1875" y2="112.1875"/><text fill="#000000" font-family="sans-serif" font-size="14" lengthAdjust="spacing" textLength="42" x="395" y="129.1826">data()</text></g><!--class Metadata--><g id="elem_Metadata"><rect codeLine="61" fill="#F1F1F1" height="80.5938" id="Metadata" rx="2.5" ry="2.5" style="stroke:#181818;stroke-width:0.5;" width="106" x="628" y="31"/><ellipse cx="646.15" cy="47" fill="#ADD1B2" rx="11" ry="11" style="stroke:#181818;stroke-width:1.0;"/><path d="M649.1344,52.6406 Q648.5563,52.9375 647.9156,53.0781 Q647.275,53.2344 646.5719,53.2344 Q644.0563,53.2344 642.7281,51.5938 Q641.4156,49.9375 641.4156,46.8125 Q641.4156,43.6719 642.7281,42.0313 Q644.0563,40.375 646.5719,40.375 Q647.275,40.375 647.9156,40.5313 Q648.5719,40.6719 649.1344,40.9688 L649.1344,43.6875 Q648.4938,43.1094 647.9,42.8438 Q647.3063,42.5781 646.6813,42.5781 Q645.3375,42.5781 644.65,43.6406 Q643.9625,44.7031 643.9625,46.8125 Q643.9625,48.9063 644.65,49.9844 Q645.3375,51.0469 646.6813,51.0469 Q647.3063,51.0469 647.9,50.7813 Q648.4938,50.5 649.1344,49.9219 L649.1344,52.6406 Z " fill="#000000"/><text fill="#000000" font-family="sans-serif" font-size="14" lengthAdjust="spacing" textLength="67" x="660.85" y="51.8467">Metadata</text><line style="stroke:#181818;stroke-width:0.5;" x1="629" x2="733" y1="63" y2="63"/><text fill="#000000" font-family="sans-serif" font-size="14" lengthAdjust="spacing" textLength="94" x="634" y="79.9951">name : string</text><text fill="#000000" font-family="sans-serif" font-size="14" lengthAdjust="spacing" textLength="91" x="634" y="96.292">options : dict</text><line style="stroke:#181818;stroke-width:0.5;" x1="629" x2="733" y1="103.5938" y2="103.5938"/></g><!--class MeasureData--><g id="elem_MeasureData"><rect codeLine="13" fill="#F1F1F1" height="64.2969" id="MeasureData" rx="2.5" ry="2.5" style="stroke:#181818;stroke-width:0.5;" width="246" x="334" y="212.5"/><ellipse cx="405.25" cy="228.5" fill="#ADD1B2" rx="11" ry="11" style="stroke:#181818;stroke-width:1.0;"/><path d="M408.2344,234.1406 Q407.6563,234.4375 407.0156,234.5781 Q406.375,234.7344 405.6719,234.7344 Q403.1563,234.7344 401.8281,233.0938 Q400.5156,231.4375 400.5156,228.3125 Q400.5156,225.1719 401.8281,223.5313 Q403.1563,221.875 405.6719,221.875 Q406.375,221.875 407.0156,222.0313 Q407.6719,222.1719 408.2344,222.4688 L408.2344,225.1875 Q407.5938,224.6094 407,224.3438 Q406.4063,224.0781 405.7813,224.0781 Q404.4375,224.0781 403.75,225.1406 Q403.0625,226.2031 403.0625,228.3125 Q403.0625,230.4063 403.75,231.4844 Q404.4375,232.5469 405.7813,232.5469 Q406.4063,232.5469 407,232.2813 Q407.5938,232 408.2344,231.4219 L408.2344,234.1406 Z " fill="#000000"/><text fill="#000000" font-family="sans-serif" font-size="14" lengthAdjust="spacing" textLength="95" x="425.75" y="233.3467">MeasureData</text><line style="stroke:#181818;stroke-width:0.5;" x1="335" x2="579" y1="244.5" y2="244.5"/><text fill="#000000" font-family="sans-serif" font-size="14" lengthAdjust="spacing" textLength="234" x="340" y="261.4951">positions : np.ndarray(dtype=int)</text><line style="stroke:#181818;stroke-width:0.5;" x1="335" x2="579" y1="268.7969" y2="268.7969"/></g><!--class MeasureMetadata--><g id="elem_MeasureMetadata"><rect codeLine="66" fill="#F1F1F1" height="64.2969" id="MeasureMetadata" rx="2.5" ry="2.5" style="stroke:#181818;stroke-width:0.5;" width="160" x="615" y="212.5"/><ellipse cx="630" cy="228.5" fill="#ADD1B2" rx="11" ry="11" style="stroke:#181818;stroke-width:1.0;"/><path d="M632.9844,234.1406 Q632.4063,234.4375 631.7656,234.5781 Q631.125,234.7344 630.4219,234.7344 Q627.9063,234.7344 626.5781,233.0938 Q625.2656,231.4375 625.2656,228.3125 Q625.2656,225.1719 626.5781,223.5313 Q627.9063,221.875 630.4219,221.875 Q631.125,221.875 631.7656,222.0313 Q632.4219,222.1719 632.9844,222.4688 L632.9844,225.1875 Q632.3438,224.6094 631.75,224.3438 Q631.1563,224.0781 630.5313,224.0781 Q629.1875,224.0781 628.5,225.1406 Q627.8125,226.2031 627.8125,228.3125 Q627.8125,230.4063 628.5,231.4844 Q629.1875,232.5469 630.5313,232.5469 Q631.1563,232.5469 631.75,232.2813 Q632.3438,232 632.9844,231.4219 L632.9844,234.1406 Z " fill="#000000"/><text fill="#000000" font-family="sans-serif" font-size="14" lengthAdjust="spacing" textLength="128" x="644" y="233.3467">MeasureMetadata</text><line style="stroke:#181818;stroke-width:0.5;" x1="616" x2="774" y1="244.5" y2="244.5"/><text fill="#000000" font-family="sans-serif" font-size="14" lengthAdjust="spacing" textLength="80" x="621" y="261.4951">unit : string</text><line style="stroke:#181818;stroke-width:0.5;" x1="616" x2="774" y1="268.7969" y2="268.7969"/></g><!--class ChannelData--><g id="elem_ChannelData"><rect codeLine="19" fill="#F1F1F1" height="48" id="ChannelData" rx="2.5" ry="2.5" style="stroke:#181818;stroke-width:0.5;" width="125" x="394.5" y="353"/><ellipse cx="409.5" cy="369" fill="#ADD1B2" rx="11" ry="11" style="stroke:#181818;stroke-width:1.0;"/><path d="M412.4844,374.6406 Q411.9063,374.9375 411.2656,375.0781 Q410.625,375.2344 409.9219,375.2344 Q407.4063,375.2344 406.0781,373.5938 Q404.7656,371.9375 404.7656,368.8125 Q404.7656,365.6719 406.0781,364.0313 Q407.4063,362.375 409.9219,362.375 Q410.625,362.375 411.2656,362.5313 Q411.9219,362.6719 412.4844,362.9688 L412.4844,365.6875 Q411.8438,365.1094 411.25,364.8438 Q410.6563,364.5781 410.0313,364.5781 Q408.6875,364.5781 408,365.6406 Q407.3125,366.7031 407.3125,368.8125 Q407.3125,370.9063 408,371.9844 Q408.6875,373.0469 410.0313,373.0469 Q410.6563,373.0469 411.25,372.7813 Q411.8438,372.5 412.4844,371.9219 L412.4844,374.6406 Z " fill="#000000"/><text fill="#000000" font-family="sans-serif" font-size="14" lengthAdjust="spacing" textLength="93" x="423.5" y="373.8467">ChannelData</text><line style="stroke:#181818;stroke-width:0.5;" x1="395.5" x2="518.5" y1="385" y2="385"/><line style="stroke:#181818;stroke-width:0.5;" x1="395.5" x2="518.5" y1="393" y2="393"/></g><!--class ChannelMetadata--><g id="elem_ChannelMetadata"><rect codeLine="76" fill="#F1F1F1" height="48" id="ChannelMetadata" rx="2.5" ry="2.5" style="stroke:#181818;stroke-width:0.5;" width="158" x="639" y="353"/><ellipse cx="654" cy="369" fill="#ADD1B2" rx="11" ry="11" style="stroke:#181818;stroke-width:1.0;"/><path d="M656.9844,374.6406 Q656.4063,374.9375 655.7656,375.0781 Q655.125,375.2344 654.4219,375.2344 Q651.9063,375.2344 650.5781,373.5938 Q649.2656,371.9375 649.2656,368.8125 Q649.2656,365.6719 650.5781,364.0313 Q651.9063,362.375 654.4219,362.375 Q655.125,362.375 655.7656,362.5313 Q656.4219,362.6719 656.9844,362.9688 L656.9844,365.6875 Q656.3438,365.1094 655.75,364.8438 Q655.1563,364.5781 654.5313,364.5781 Q653.1875,364.5781 652.5,365.6406 Q651.8125,366.7031 651.8125,368.8125 Q651.8125,370.9063 652.5,371.9844 Q653.1875,373.0469 654.5313,373.0469 Q655.1563,373.0469 655.75,372.7813 Q656.3438,372.5 656.9844,371.9219 L656.9844,374.6406 Z " fill="#000000"/><text fill="#000000" font-family="sans-serif" font-size="14" lengthAdjust="spacing" textLength="126" x="668" y="373.8467">ChannelMetadata</text><line style="stroke:#181818;stroke-width:0.5;" x1="640" x2="796" y1="385" y2="385"/><line style="stroke:#181818;stroke-width:0.5;" x1="640" x2="796" y1="393" y2="393"/></g><!--class ArrayChannelData--><g id="elem_ArrayChannelData"><rect codeLine="23" fill="#F1F1F1" height="129.4844" id="ArrayChannelData" rx="2.5" ry="2.5" style="stroke:#181818;stroke-width:0.5;" width="222" x="346" y="461"/><ellipse cx="387.1" cy="477" fill="#ADD1B2" rx="11" ry="11" style="stroke:#181818;stroke-width:1.0;"/><path d="M390.0844,482.6406 Q389.5063,482.9375 388.8656,483.0781 Q388.225,483.2344 387.5219,483.2344 Q385.0063,483.2344 383.6781,481.5938 Q382.3656,479.9375 382.3656,476.8125 Q382.3656,473.6719 383.6781,472.0313 Q385.0063,470.375 387.5219,470.375 Q388.225,470.375 388.8656,470.5313 Q389.5219,470.6719 390.0844,470.9688 L390.0844,473.6875 Q389.4438,473.1094 388.85,472.8438 Q388.2563,472.5781 387.6313,472.5781 Q386.2875,472.5781 385.6,473.6406 Q384.9125,474.7031 384.9125,476.8125 Q384.9125,478.9063 385.6,479.9844 Q386.2875,481.0469 387.6313,481.0469 Q388.2563,481.0469 388.85,480.7813 Q389.4438,480.5 390.0844,479.9219 L390.0844,482.6406 Z " fill="#000000"/><text fill="#000000" font-family="sans-serif" font-size="14" lengthAdjust="spacing" textLength="132" x="406.9" y="481.8467">ArrayChannelData</text><line style="stroke:#181818;stroke-width:0.5;" x1="347" x2="567" y1="493" y2="493"/><text fill="#000000" font-family="sans-serif" font-size="14" lengthAdjust="spacing" textLength="199" x="352" y="509.9951">roi[] : ArrayChannelROIData</text><text fill="#000000" font-family="sans-serif" font-size="14" lengthAdjust="spacing" textLength="152" x="352" y="526.292">life_time : np.ndarray</text><text fill="#000000" font-family="sans-serif" font-size="14" lengthAdjust="spacing" textLength="158" x="352" y="542.5889">real_time : np.ndarray</text><text fill="#000000" font-family="sans-serif" font-size="14" lengthAdjust="spacing" textLength="204" x="352" y="558.8857">preset_life_time : np.ndarray</text><text fill="#000000" font-family="sans-serif" font-size="14" lengthAdjust="spacing" textLength="210" x="352" y="575.1826">preset_real_time : np.ndarray</text><line style="stroke:#181818;stroke-width:0.5;" x1="347" x2="567" y1="582.4844" y2="582.4844"/></g><g id="elem_GMN15"><path d="M365,650 L365,796.1953 A0,0 0 0 0 365,796.1953 L601,796.1953 A0,0 0 0 0 601,796.1953 L601,660 L591,650 L477.41,650 L465.48,590.24 L469.41,650 L365,650 A0,0 0 0 0 365,650 " fill="#FEFFDD" style="stroke:#181818;stroke-width:0.5;"/><path d="M591,650 L591,660 L601,660 L591,650 " fill="#FEFFDD" style="stroke:#181818;stroke-width:0.5;"/><text fill="#000000" font-family="sans-serif" font-size="13" lengthAdjust="spacing" textLength="193" x="371" y="667.0669">Can the "preset_" parameters</text><text fill="#000000" font-family="sans-serif" font-size="13" lengthAdjust="spacing" textLength="176" x="371" y="682.1997">change for each position in</text><text fill="#000000" font-family="sans-serif" font-size="13" lengthAdjust="spacing" textLength="127" x="371" y="697.3325">real measurements</text><text fill="#000000" font-family="sans-serif" font-size="13" font-style="italic" lengthAdjust="spacing" textLength="40" x="502" y="697.3325">within</text><text fill="#000000" font-family="sans-serif" font-size="13" lengthAdjust="spacing" textLength="24" x="546" y="697.3325">one</text><text fill="#000000" font-family="sans-serif" font-size="13" lengthAdjust="spacing" textLength="90" x="371" y="712.4653">scan module?</text><text fill="#000000" font-family="sans-serif" font-size="13" lengthAdjust="spacing" textLength="8" x="371" y="727.5981">&#160;</text><text fill="#000000" font-family="sans-serif" font-size="13" lengthAdjust="spacing" textLength="215" x="371" y="742.731">If not, they are "static" attributes</text><text fill="#000000" font-family="sans-serif" font-size="13" lengthAdjust="spacing" textLength="194" x="371" y="757.8638">and should probably go to the</text><text fill="#000000" font-family="sans-serif" font-size="13" lengthAdjust="spacing" textLength="196" x="371" y="772.9966">corresponding metadata class</text><text fill="#000000" font-family="monospace" font-size="13" lengthAdjust="spacing" textLength="160" x="371" y="788.1294">ArrayChannelMetadata</text><text fill="#000000" font-family="sans-serif" font-size="13" lengthAdjust="spacing" textLength="4" x="531" y="788.1294">.</text></g><!--class ArrayChannelMetadata--><g id="elem_ArrayChannelMetadata"><rect codeLine="78" fill="#F1F1F1" height="64.2969" id="ArrayChannelMetadata" rx="2.5" ry="2.5" style="stroke:#181818;stroke-width:0.5;" width="277" x="603.5" y="493.5"/><ellipse cx="655.25" cy="509.5" fill="#ADD1B2" rx="11" ry="11" style="stroke:#181818;stroke-width:1.0;"/><path d="M658.2344,515.1406 Q657.6563,515.4375 657.0156,515.5781 Q656.375,515.7344 655.6719,515.7344 Q653.1563,515.7344 651.8281,514.0938 Q650.5156,512.4375 650.5156,509.3125 Q650.5156,506.1719 651.8281,504.5313 Q653.1563,502.875 655.6719,502.875 Q656.375,502.875 657.0156,503.0313 Q657.6719,503.1719 658.2344,503.4688 L658.2344,506.1875 Q657.5938,505.6094 657,505.3438 Q656.4063,505.0781 655.7813,505.0781 Q654.4375,505.0781 653.75,506.1406 Q653.0625,507.2031 653.0625,509.3125 Q653.0625,511.4063 653.75,512.4844 Q654.4375,513.5469 655.7813,513.5469 Q656.4063,513.5469 657,513.2813 Q657.5938,513 658.2344,512.4219 L658.2344,515.1406 Z " fill="#000000"/><text fill="#000000" font-family="sans-serif" font-size="14" lengthAdjust="spacing" textLength="165" x="675.75" y="514.3467">ArrayChannelMetadata</text><line style="stroke:#181818;stroke-width:0.5;" x1="604.5" x2="879.5" y1="525.5" y2="525.5"/><text fill="#000000" font-family="sans-serif" font-size="14" lengthAdjust="spacing" textLength="265" x="609.5" y="542.4951">calibration : ArrayChannelCalibration</text><line style="stroke:#181818;stroke-width:0.5;" x1="604.5" x2="879.5" y1="549.7969" y2="549.7969"/></g><!--class ArrayChannelROIData--><g id="elem_ArrayChannelROIData"><rect codeLine="46" fill="#F1F1F1" height="80.5938" id="ArrayChannelROIData" rx="2.5" ry="2.5" style="stroke:#181818;stroke-width:0.5;" width="235" x="75.5" y="485"/><ellipse cx="111.2" cy="501" fill="#ADD1B2" rx="11" ry="11" style="stroke:#181818;stroke-width:1.0;"/><path d="M114.1844,506.6406 Q113.6063,506.9375 112.9656,507.0781 Q112.325,507.2344 111.6219,507.2344 Q109.1063,507.2344 107.7781,505.5938 Q106.4656,503.9375 106.4656,500.8125 Q106.4656,497.6719 107.7781,496.0313 Q109.1063,494.375 111.6219,494.375 Q112.325,494.375 112.9656,494.5313 Q113.6219,494.6719 114.1844,494.9688 L114.1844,497.6875 Q113.5438,497.1094 112.95,496.8438 Q112.3563,496.5781 111.7313,496.5781 Q110.3875,496.5781 109.7,497.6406 Q109.0125,498.7031 109.0125,500.8125 Q109.0125,502.9063 109.7,503.9844 Q110.3875,505.0469 111.7313,505.0469 Q112.3563,505.0469 112.95,504.7813 Q113.5438,504.5 114.1844,503.9219 L114.1844,506.6406 Z " fill="#000000"/><text fill="#000000" font-family="sans-serif" font-size="14" lengthAdjust="spacing" textLength="157" x="129.8" y="505.8467">ArrayChannelROIData</text><line style="stroke:#181818;stroke-width:0.5;" x1="76.5" x2="309.5" y1="517" y2="517"/><text fill="#000000" font-family="sans-serif" font-size="14" lengthAdjust="spacing" textLength="88" x="81.5" y="533.9951">label : string</text><text fill="#000000" font-family="sans-serif" font-size="14" lengthAdjust="spacing" textLength="223" x="81.5" y="550.292">marker : np.ndarray(dtype=int)</text><line style="stroke:#181818;stroke-width:0.5;" x1="76.5" x2="309.5" y1="557.5938" y2="557.5938"/></g><g id="elem_GMN23"><path d="M6,665 L6,780.9297 A0,0 0 0 0 6,780.9297 L330,780.9297 A0,0 0 0 0 330,780.9297 L330,675 L320,665 L179.33,665 L187.94,566.06 L171.33,665 L6,665 A0,0 0 0 0 6,665 " fill="#FEFFDD" style="stroke:#181818;stroke-width:0.5;"/><path d="M320,665 L320,675 L330,675 L320,665 " fill="#FEFFDD" style="stroke:#181818;stroke-width:0.5;"/><text fill="#000000" font-family="sans-serif" font-size="13" lengthAdjust="spacing" textLength="256" x="12" y="682.0669">Marker should be a two-element vector</text><text fill="#000000" font-family="sans-serif" font-size="13" lengthAdjust="spacing" textLength="290" x="12" y="697.1997">with positions on the x axis of the spectrum.</text><text fill="#000000" font-family="sans-serif" font-size="13" lengthAdjust="spacing" textLength="303" x="12" y="712.3325">Is "marker" the best name? Can we generalise</text><text fill="#000000" font-family="sans-serif" font-size="13" lengthAdjust="spacing" textLength="48" x="12" y="727.4653">to fit to</text><text fill="#000000" font-family="monospace" font-size="13" lengthAdjust="spacing" textLength="144" x="64" y="727.4653">AreaChannelROIData</text><text fill="#000000" font-family="sans-serif" font-size="13" lengthAdjust="spacing" textLength="53" x="212" y="727.4653">as well?</text><text fill="#000000" font-family="sans-serif" font-size="13" lengthAdjust="spacing" textLength="8" x="12" y="742.5981">&#160;</text><text fill="#000000" font-family="sans-serif" font-size="13" lengthAdjust="spacing" textLength="244" x="12" y="757.731">What other attributes are relevant for</text><text fill="#000000" font-family="sans-serif" font-size="13" lengthAdjust="spacing" textLength="133" x="12" y="772.8638">Array Channel ROIs?</text></g><!--class DeviceMetadata--><g id="elem_DeviceMetadata"><rect codeLine="70" fill="#F1F1F1" height="96.8906" id="DeviceMetadata" rx="2.5" ry="2.5" style="stroke:#181818;stroke-width:0.5;" width="161" x="810.5" y="196"/><ellipse cx="831.35" cy="212" fill="#B4A7E5" rx="11" ry="11" style="stroke:#181818;stroke-width:1.0;"/><path d="M827.2719,207.75 L827.2719,205.5938 L834.6625,205.5938 L834.6625,207.75 L832.1938,207.75 L832.1938,215.8438 L834.6625,215.8438 L834.6625,218 L827.2719,218 L827.2719,215.8438 L829.7406,215.8438 L829.7406,207.75 L827.2719,207.75 Z " fill="#000000"/><text fill="#000000" font-family="sans-serif" font-size="14" font-style="italic" lengthAdjust="spacing" textLength="116" x="846.65" y="216.8467">DeviceMetadata</text><line style="stroke:#181818;stroke-width:0.5;" x1="811.5" x2="970.5" y1="228" y2="228"/><text fill="#000000" font-family="sans-serif" font-size="14" lengthAdjust="spacing" textLength="66" x="816.5" y="244.9951">id : string</text><text fill="#000000" font-family="sans-serif" font-size="14" lengthAdjust="spacing" textLength="70" x="816.5" y="261.292">pv : string</text><text fill="#000000" font-family="sans-serif" font-size="14" lengthAdjust="spacing" textLength="149" x="816.5" y="277.5889">access_mode : string</text><line style="stroke:#181818;stroke-width:0.5;" x1="811.5" x2="970.5" y1="284.8906" y2="284.8906"/></g><!--class ArrayChannelCalibration--><g id="elem_ArrayChannelCalibration"><rect codeLine="84" fill="#F1F1F1" height="96.8906" id="ArrayChannelCalibration" rx="2.5" ry="2.5" style="stroke:#181818;stroke-width:0.5;" width="208" x="916" y="477"/><ellipse cx="931" cy="493" fill="#ADD1B2" rx="11" ry="11" style="stroke:#181818;stroke-width:1.0;"/><path d="M933.9844,498.6406 Q933.4063,498.9375 932.7656,499.0781 Q932.125,499.2344 931.4219,499.2344 Q928.9063,499.2344 927.5781,497.5938 Q926.2656,495.9375 926.2656,492.8125 Q926.2656,489.6719 927.5781,488.0313 Q928.9063,486.375 931.4219,486.375 Q932.125,486.375 932.7656,486.5313 Q933.4219,486.6719 933.9844,486.9688 L933.9844,489.6875 Q933.3438,489.1094 932.75,488.8438 Q932.1563,488.5781 931.5313,488.5781 Q930.1875,488.5781 929.5,489.6406 Q928.8125,490.7031 928.8125,492.8125 Q928.8125,494.9063 929.5,495.9844 Q930.1875,497.0469 931.5313,497.0469 Q932.1563,497.0469 932.75,496.7813 Q933.3438,496.5 933.9844,495.9219 L933.9844,498.6406 Z " fill="#000000"/><text fill="#000000" font-family="sans-serif" font-size="14" lengthAdjust="spacing" textLength="176" x="945" y="497.8467">ArrayChannelCalibration</text><line style="stroke:#181818;stroke-width:0.5;" x1="917" x2="1123" y1="509" y2="509"/><text fill="#000000" font-family="sans-serif" font-size="14" lengthAdjust="spacing" textLength="85" x="922" y="525.9951">offset : float</text><text fill="#000000" font-family="sans-serif" font-size="14" lengthAdjust="spacing" textLength="83" x="922" y="542.292">slope : float</text><text fill="#000000" font-family="sans-serif" font-size="14" lengthAdjust="spacing" textLength="113" x="922" y="558.5889">quadratic : float</text><line style="stroke:#181818;stroke-width:0.5;" x1="917" x2="1123" y1="565.8906" y2="565.8906"/></g><g id="elem_GMN33"><path d="M900.5,687.5 L900.5,758.0313 A0,0 0 0 0 900.5,758.0313 L1139.5,758.0313 A0,0 0 0 0 1139.5,758.0313 L1139.5,697.5 L1129.5,687.5 L1024,687.5 L1020,574.07 L1016,687.5 L900.5,687.5 A0,0 0 0 0 900.5,687.5 " fill="#FEFFDD" style="stroke:#181818;stroke-width:0.5;"/><path d="M1129.5,687.5 L1129.5,697.5 L1139.5,697.5 L1129.5,687.5 " fill="#FEFFDD" style="stroke:#181818;stroke-width:0.5;"/><text fill="#000000" font-family="sans-serif" font-size="13" lengthAdjust="spacing" textLength="194" x="906.5" y="704.5669">Shall this class have methods</text><text fill="#000000" font-family="sans-serif" font-size="13" lengthAdjust="spacing" textLength="205" x="906.5" y="719.6997">performing some operations on</text><text fill="#000000" font-family="sans-serif" font-size="13" lengthAdjust="spacing" textLength="218" x="906.5" y="734.8325">the calibration parameters stored</text><text fill="#000000" font-family="sans-serif" font-size="13" lengthAdjust="spacing" textLength="106" x="906.5" y="749.9653">in its attributes?</text></g><!--reverse link Data to Metadata--><g id="link_Data_Metadata"><path codeLine="11" d="M591.04,71.5 C607.23,71.5 611.43,71.5 627.63,71.5 " fill="none" id="Data-backto-Metadata" style="stroke:#181818;stroke-width:1.0;"/><polygon fill="#181818" points="579.04,71.5,585.04,75.5,591.04,71.5,585.04,67.5,579.04,71.5" style="stroke:#181818;stroke-width:1.0;"/></g><!--reverse link Data to MeasureData--><g id="link_Data_MeasureData"><path d="M471.1416,153.9496 C467.0316,179.9696 465.27,191.1 461.92,212.35 " fill="none" id="Data-backto-MeasureData" style="stroke:#181818;stroke-width:1.0;"/><polygon fill="none" points="473.95,136.17,465.2151,153.0134,477.0681,154.8857,473.95,136.17" style="stroke:#181818;stroke-width:1.0;"/></g><!--reverse link MeasureData to MeasureMetadata--><g id="link_MeasureData_MeasureMetadata"><path codeLine="17" d="M592.18,244.5 C603.7,244.5 603.21,244.5 614.72,244.5 " fill="none" id="MeasureData-backto-MeasureMetadata" style="stroke:#181818;stroke-width:1.0;"/><polygon fill="#181818" points="580.18,244.5,586.18,248.5,592.18,244.5,586.18,240.5,580.18,244.5" style="stroke:#181818;stroke-width:1.0;"/></g><!--reverse link MeasureData to ChannelData--><g id="link_MeasureData_ChannelData"><path d="M457,294.76 C457,318.13 457,331.58 457,352.76 " fill="none" id="MeasureData-backto-ChannelData" style="stroke:#181818;stroke-width:1.0;"/><polygon fill="none" points="457,276.76,451,294.76,463,294.76,457,276.76" style="stroke:#181818;stroke-width:1.0;"/></g><!--reverse link ChannelData to ChannelMetadata--><g id="link_ChannelData_ChannelMetadata"><path codeLine="21" d="M531.7,377 C571.46,377 599.23,377 638.99,377 " fill="none" id="ChannelData-backto-ChannelMetadata" style="stroke:#181818;stroke-width:1.0;"/><polygon fill="#181818" points="519.7,377,525.7,381,531.7,377,525.7,373,519.7,377" style="stroke:#181818;stroke-width:1.0;"/></g><!--reverse link ChannelData to ArrayChannelData--><g id="link_ChannelData_ArrayChannelData"><path d="M457,419.21 C457,435.35 457,439.69 457,460.93 " fill="none" id="ChannelData-backto-ArrayChannelData" style="stroke:#181818;stroke-width:1.0;"/><polygon fill="none" points="457,401.21,451,419.21,463,419.21,457,401.21" style="stroke:#181818;stroke-width:1.0;"/></g><!--reverse link ArrayChannelData to ArrayChannelMetadata--><g id="link_ArrayChannelData_ArrayChannelMetadata"><path codeLine="42" d="M580.05,525.5 C591.83,525.5 591.61,525.5 603.38,525.5 " fill="none" id="ArrayChannelData-backto-ArrayChannelMetadata" style="stroke:#181818;stroke-width:1.0;"/><polygon fill="#181818" points="568.05,525.5,574.05,529.5,580.05,525.5,574.05,521.5,568.05,525.5" style="stroke:#181818;stroke-width:1.0;"/></g><!--link ArrayChannelROIData to ArrayChannelData--><g id="link_ArrayChannelROIData_ArrayChannelData"><path codeLine="44" d="M310.56,525.5 C322.29,525.5 322.02,525.5 333.74,525.5 " fill="none" id="ArrayChannelROIData-to-ArrayChannelData" style="stroke:#181818;stroke-width:1.0;"/><polygon fill="#181818" points="345.74,525.5,339.74,521.5,333.74,525.5,339.74,529.5,345.74,525.5" style="stroke:#181818;stroke-width:1.0;"/><text fill="#000000" font-family="sans-serif" font-size="13" lengthAdjust="spacing" textLength="24" x="318.4551" y="522.1263">0..n</text></g><!--reverse link ChannelData to ArrayChannelROIData--><g id="link_ChannelData_ArrayChannelROIData"><path d="M399.7208,409.7836 C359.2808,432.2236 312.75,458.05 264.37,484.89 " fill="none" id="ChannelData-backto-ArrayChannelROIData" style="stroke:#181818;stroke-width:1.0;"/><polygon fill="none" points="415.46,401.05,396.8096,404.5372,402.632,415.0301,415.46,401.05" style="stroke:#181818;stroke-width:1.0;"/></g><!--reverse link Metadata to MeasureMetadata--><g id="link_Metadata_MeasureMetadata"><path d="M685.7151,130.1003 C688.2051,160.5903 690.14,184.17 692.45,212.31 " fill="none" id="Metadata-backto-MeasureMetadata" style="stroke:#181818;stroke-width:1.0;"/><polygon fill="none" points="684.25,112.16,679.735,130.5886,691.6952,129.6119,684.25,112.16" style="stroke:#181818;stroke-width:1.0;"/></g><!--reverse link MeasureMetadata to ChannelMetadata--><g id="link_MeasureMetadata_ChannelMetadata"><path d="M703.6351,294.4866 C707.7551,317.8566 710.17,331.58 713.9,352.76 " fill="none" id="MeasureMetadata-backto-ChannelMetadata" style="stroke:#181818;stroke-width:1.0;"/><polygon fill="none" points="700.51,276.76,697.7262,295.5283,709.544,293.4449,700.51,276.76" style="stroke:#181818;stroke-width:1.0;"/></g><!--reverse link DeviceMetadata to ChannelMetadata--><g id="link_DeviceMetadata_ChannelMetadata"><path d="M813.1916,304.192 C786.3816,324.422 770.76,336.2 748.94,352.66 " fill="none" id="DeviceMetadata-backto-ChannelMetadata" style="stroke:#181818;stroke-width:1.0;stroke-dasharray:7.0,7.0;"/><polygon fill="none" points="827.56,293.35,809.5776,299.4025,816.8056,308.9814,827.56,293.35" style="stroke:#181818;stroke-width:1.0;"/></g><!--reverse link ChannelMetadata to ArrayChannelMetadata--><g id="link_ChannelMetadata_ArrayChannelMetadata"><path d="M724.7141,418.9725 C728.8041,443.9025 732.4,465.89 736.92,493.48 " fill="none" id="ChannelMetadata-backto-ArrayChannelMetadata" style="stroke:#181818;stroke-width:1.0;"/><polygon fill="none" points="721.8,401.21,718.7933,419.9439,730.635,418.0012,721.8,401.21" style="stroke:#181818;stroke-width:1.0;"/></g><!--reverse link ArrayChannelMetadata to ArrayChannelCalibration--><g id="link_ArrayChannelMetadata_ArrayChannelCalibration"><path codeLine="82" d="M892.73,525.5 C904.43,525.5 904.12,525.5 915.82,525.5 " fill="none" id="ArrayChannelMetadata-backto-ArrayChannelCalibration" style="stroke:#181818;stroke-width:1.0;"/><polygon fill="#181818" points="880.73,525.5,886.73,529.5,892.73,525.5,886.73,521.5,880.73,525.5" style="stroke:#181818;stroke-width:1.0;"/></g><!--SRC=[VLLDRzim3BtxLn2-h1kMPEUYQp6qbnwA0TjXXs48Q9kEXScI9ybfWoB_VPJa95BYDfT453-U-1wP3vrpWxrUhGQ9oeszNDQwNzKIhLqq0ZS6-w88HtX0X_1Q07zwSjZuupKyJJ-3NGzEQ6NPt8ZQ1TDwybF3KZLe3EwYMVI3DeuCN_d4ZzCnNFgGgu_5lYX2pK-BKvK9onEX7Gs5Qtfnf9eCtsihI3Px6BGL1qGd05UDsmtqLIWNQgIvGgbmFAzutw5I9BEAIMHHf0wSPZgUf_dc0SpbIctn4KQBttyOU1hou_lZmw7PKhIqTgAdo-uQGld6rM38abk_4pnvl95ZNoZj22hjdEv1jnSl2ZdkKO7h2CefMGa3ifI86RR1eUQ03K6h3H3MtP4f4Ehu0fPPw6zFobcu4RVFmdL2tQp4BMX5mS_MNAdNpIZfhWYMnnOOuMTVVWTe68Drw4HT0ZfdH3KwYX1GDM0xFSg6dwmhhEGEDXgSzg4Hf3OCVz2g4Mfp4drWCZYKPVhw0zTbkIoOKm-3YkA2SHR7N5JkEH4DvPVbKfMm-7JPvnb57Q9cH9KFXiIA91DhkIDgartrQFw6iNnhODxXFvNdKympTRWYG73FUa4oy0bRgfsEu-vfJKPLH-cy0Bu8woluantOtupzCd9ieOmuot1RaNMWM5ztGNdF11jIP50A6vbaKblX_9UdZ337Mx8sB4T9EMdeLuSED6SsYMY2c0pZt_AczCeDhk7vXqO39xHt2Vd7TJL99xBWaURDFrkS-xCzTum_RPuiuQZuSSU47CrKaMcn9dYWhQZfp5yqUVbXcv-nhidQDSyLPMcpLJW3AWVBArvEmvkZc9FkHRPpUqHUCwULmR0gyjLuVxhnK6TpdurU6Z83ARcUgkksvMt6XLkfCVw_MQa7oYp_HcnyL7sqlZipAGWV_hD3ALdLhFq8gSCj-UNJwIPkdO6frQRtEybgLX83YF5-TgBSUIRIJfsMBvEf3JLH1RnjcPkJmXFb_WS0]--></g></svg>