<?xml version="1.0" encoding="us-ascii" standalone="no"?><svg xmlns="http://www.w3.org/2000/svg" xmlns:xlink="http://www.w3.org/1999/xlink" contentStyleType="text/css" height="278px" preserveAspectRatio="none" style="width:481px;height:278px;background:#FFFFFF;" version="1.1" viewBox="0 0 481 278" width="481px" zoomAndPan="magnify"><defs/><g><!--class Channel--><g id="elem_Channel"><rect codeLine="3" fill="#F1F1F1" height="48" id="Channel" rx="2.5" ry="2.5" style="stroke:#181818;stroke-width:0.5;" width="83" x="268.5" y="7"/><ellipse cx="283.5" cy="23" fill="#ADD1B2" rx="11" ry="11" style="stroke:#181818;stroke-width:1.0;"/><path d="M283.5469,29.2031 C285.0469,29.2031 286.2813,28.6406 287.1875,27.5781 L285.8125,26.0625 C285.2656,26.6563 284.6094,27.0469 283.8125,27.0469 C282.1406,27.0469 280.9844,25.7188 280.9844,23.4375 C280.9844,21.2188 282.1406,19.875 283.7031,19.875 C284.5156,19.875 285.1094,20.1875 285.6406,20.6719 L287.0156,19.125 C286.2656,18.3906 285.1094,17.7188 283.7031,17.7188 C280.75,17.7188 278.4219,19.8594 278.4219,23.5313 C278.4219,27.25 280.7969,29.2031 283.5469,29.2031 Z " fill="#000000"/><text fill="#000000" font-family="sans-serif" font-size="14" lengthAdjust="spacing" textLength="51" x="297.5" y="27.7852">Channel</text><line style="stroke:#181818;stroke-width:0.5;" x1="269.5" x2="350.5" y1="39" y2="39"/><line style="stroke:#181818;stroke-width:0.5;" x1="269.5" x2="350.5" y1="47" y2="47"/></g><!--class Point_0D--><g id="elem_Point_0D"><rect codeLine="5" fill="#F1F1F1" height="48" id="Point_0D" rx="2.5" ry="2.5" style="stroke:#181818;stroke-width:0.5;" width="88" x="142" y="115"/><ellipse cx="157" cy="131" fill="#ADD1B2" rx="11" ry="11" style="stroke:#181818;stroke-width:1.0;"/><path d="M157.0469,137.2031 C158.5469,137.2031 159.7813,136.6406 160.6875,135.5781 L159.3125,134.0625 C158.7656,134.6563 158.1094,135.0469 157.3125,135.0469 C155.6406,135.0469 154.4844,133.7188 154.4844,131.4375 C154.4844,129.2188 155.6406,127.875 157.2031,127.875 C158.0156,127.875 158.6094,128.1875 159.1406,128.6719 L160.5156,127.125 C159.7656,126.3906 158.6094,125.7188 157.2031,125.7188 C154.25,125.7188 151.9219,127.8594 151.9219,131.5313 C151.9219,135.25 154.2969,137.2031 157.0469,137.2031 Z " fill="#000000"/><text fill="#000000" font-family="sans-serif" font-size="14" lengthAdjust="spacing" textLength="56" x="171" y="135.7852">Point_0D</text><line style="stroke:#181818;stroke-width:0.5;" x1="143" x2="229" y1="147" y2="147"/><line style="stroke:#181818;stroke-width:0.5;" x1="143" x2="229" y1="155" y2="155"/></g><!--class SinglePoint--><g id="elem_SinglePoint"><rect codeLine="7" fill="#F1F1F1" height="48" id="SinglePoint" rx="2.5" ry="2.5" style="stroke:#181818;stroke-width:0.5;" width="102" x="7" y="223"/><ellipse cx="22" cy="239" fill="#ADD1B2" rx="11" ry="11" style="stroke:#181818;stroke-width:1.0;"/><path d="M22.0469,245.2031 C23.5469,245.2031 24.7813,244.6406 25.6875,243.5781 L24.3125,242.0625 C23.7656,242.6563 23.1094,243.0469 22.3125,243.0469 C20.6406,243.0469 19.4844,241.7188 19.4844,239.4375 C19.4844,237.2188 20.6406,235.875 22.2031,235.875 C23.0156,235.875 23.6094,236.1875 24.1406,236.6719 L25.5156,235.125 C24.7656,234.3906 23.6094,233.7188 22.2031,233.7188 C19.25,233.7188 16.9219,235.8594 16.9219,239.5313 C16.9219,243.25 19.2969,245.2031 22.0469,245.2031 Z " fill="#000000"/><text fill="#000000" font-family="sans-serif" font-size="14" lengthAdjust="spacing" textLength="70" x="36" y="243.7852">SinglePoint</text><line style="stroke:#181818;stroke-width:0.5;" x1="8" x2="108" y1="255" y2="255"/><line style="stroke:#181818;stroke-width:0.5;" x1="8" x2="108" y1="263" y2="263"/></g><!--class Average--><g id="elem_Average"><rect codeLine="9" fill="#F1F1F1" height="48" id="Average" rx="2.5" ry="2.5" style="stroke:#181818;stroke-width:0.5;" width="83" x="144.5" y="223"/><ellipse cx="159.5" cy="239" fill="#ADD1B2" rx="11" ry="11" style="stroke:#181818;stroke-width:1.0;"/><path d="M159.5469,245.2031 C161.0469,245.2031 162.2813,244.6406 163.1875,243.5781 L161.8125,242.0625 C161.2656,242.6563 160.6094,243.0469 159.8125,243.0469 C158.1406,243.0469 156.9844,241.7188 156.9844,239.4375 C156.9844,237.2188 158.1406,235.875 159.7031,235.875 C160.5156,235.875 161.1094,236.1875 161.6406,236.6719 L163.0156,235.125 C162.2656,234.3906 161.1094,233.7188 159.7031,233.7188 C156.75,233.7188 154.4219,235.8594 154.4219,239.5313 C154.4219,243.25 156.7969,245.2031 159.5469,245.2031 Z " fill="#000000"/><text fill="#000000" font-family="sans-serif" font-size="14" lengthAdjust="spacing" textLength="51" x="173.5" y="243.7852">Average</text><line style="stroke:#181818;stroke-width:0.5;" x1="145.5" x2="226.5" y1="255" y2="255"/><line style="stroke:#181818;stroke-width:0.5;" x1="145.5" x2="226.5" y1="263" y2="263"/></g><!--class Interval--><g id="elem_Interval"><rect codeLine="11" fill="#F1F1F1" height="48" id="Interval" rx="2.5" ry="2.5" style="stroke:#181818;stroke-width:0.5;" width="79" x="262.5" y="223"/><ellipse cx="277.5" cy="239" fill="#ADD1B2" rx="11" ry="11" style="stroke:#181818;stroke-width:1.0;"/><path d="M277.5469,245.2031 C279.0469,245.2031 280.2813,244.6406 281.1875,243.5781 L279.8125,242.0625 C279.2656,242.6563 278.6094,243.0469 277.8125,243.0469 C276.1406,243.0469 274.9844,241.7188 274.9844,239.4375 C274.9844,237.2188 276.1406,235.875 277.7031,235.875 C278.5156,235.875 279.1094,236.1875 279.6406,236.6719 L281.0156,235.125 C280.2656,234.3906 279.1094,233.7188 277.7031,233.7188 C274.75,233.7188 272.4219,235.8594 272.4219,239.5313 C272.4219,243.25 274.7969,245.2031 277.5469,245.2031 Z " fill="#000000"/><text fill="#000000" font-family="sans-serif" font-size="14" lengthAdjust="spacing" textLength="47" x="291.5" y="243.7852">Interval</text><line style="stroke:#181818;stroke-width:0.5;" x1="263.5" x2="340.5" y1="255" y2="255"/><line style="stroke:#181818;stroke-width:0.5;" x1="263.5" x2="340.5" y1="263" y2="263"/></g><!--class Array_1D--><g id="elem_Array_1D"><rect codeLine="13" fill="#F1F1F1" height="48" id="Array_1D" rx="2.5" ry="2.5" style="stroke:#181818;stroke-width:0.5;" width="89" x="265.5" y="115"/><ellipse cx="280.5" cy="131" fill="#ADD1B2" rx="11" ry="11" style="stroke:#181818;stroke-width:1.0;"/><path d="M280.5469,137.2031 C282.0469,137.2031 283.2813,136.6406 284.1875,135.5781 L282.8125,134.0625 C282.2656,134.6563 281.6094,135.0469 280.8125,135.0469 C279.1406,135.0469 277.9844,133.7188 277.9844,131.4375 C277.9844,129.2188 279.1406,127.875 280.7031,127.875 C281.5156,127.875 282.1094,128.1875 282.6406,128.6719 L284.0156,127.125 C283.2656,126.3906 282.1094,125.7188 280.7031,125.7188 C277.75,125.7188 275.4219,127.8594 275.4219,131.5313 C275.4219,135.25 277.7969,137.2031 280.5469,137.2031 Z " fill="#000000"/><text fill="#000000" font-family="sans-serif" font-size="14" lengthAdjust="spacing" textLength="57" x="294.5" y="135.7852">Array_1D</text><line style="stroke:#181818;stroke-width:0.5;" x1="266.5" x2="353.5" y1="147" y2="147"/><line style="stroke:#181818;stroke-width:0.5;" x1="266.5" x2="353.5" y1="155" y2="155"/></g><!--class Area_2D--><g id="elem_Area_2D"><rect codeLine="15" fill="#F1F1F1" height="48" id="Area_2D" rx="2.5" ry="2.5" style="stroke:#181818;stroke-width:0.5;" width="84" x="390" y="115"/><ellipse cx="405" cy="131" fill="#ADD1B2" rx="11" ry="11" style="stroke:#181818;stroke-width:1.0;"/><path d="M405.0469,137.2031 C406.5469,137.2031 407.7813,136.6406 408.6875,135.5781 L407.3125,134.0625 C406.7656,134.6563 406.1094,135.0469 405.3125,135.0469 C403.6406,135.0469 402.4844,133.7188 402.4844,131.4375 C402.4844,129.2188 403.6406,127.875 405.2031,127.875 C406.0156,127.875 406.6094,128.1875 407.1406,128.6719 L408.5156,127.125 C407.7656,126.3906 406.6094,125.7188 405.2031,125.7188 C402.25,125.7188 399.9219,127.8594 399.9219,131.5313 C399.9219,135.25 402.2969,137.2031 405.0469,137.2031 Z " fill="#000000"/><text fill="#000000" font-family="sans-serif" font-size="14" lengthAdjust="spacing" textLength="52" x="419" y="135.7852">Area_2D</text><line style="stroke:#181818;stroke-width:0.5;" x1="391" x2="473" y1="147" y2="147"/><line style="stroke:#181818;stroke-width:0.5;" x1="391" x2="473" y1="155" y2="155"/></g><!--reverse link Channel to Point_0D--><g id="link_Channel_Point_0D"><path d="M269.4103,66.699 C248.7603,84.359 234.03,96.94 213.28,114.68 " fill="none" id="Channel-backto-Point_0D" style="stroke:#181818;stroke-width:1.0;"/><polygon fill="none" points="283.09,55,265.5106,62.1391,273.31,71.2589,283.09,55" style="stroke:#181818;stroke-width:1.0;"/></g><!--reverse link Point_0D to SinglePoint--><g id="link_Point_0D_SinglePoint"><path d="M144.3653,174.4791 C123.0353,192.1391 107.58,204.94 86.16,222.68 " fill="none" id="Point_0D-backto-SinglePoint" style="stroke:#181818;stroke-width:1.0;"/><polygon fill="none" points="158.23,163,140.5389,169.8576,148.1917,179.1007,158.23,163" style="stroke:#181818;stroke-width:1.0;"/></g><!--reverse link Point_0D to Average--><g id="link_Point_0D_Average"><path d="M186,181 C186,198.66 186,204.94 186,222.68 " fill="none" id="Point_0D-backto-Average" style="stroke:#181818;stroke-width:1.0;"/><polygon fill="none" points="186,163,180,181,192,181,186,163" style="stroke:#181818;stroke-width:1.0;"/></g><!--reverse link Point_0D to Interval--><g id="link_Point_0D_Interval"><path d="M224.4559,175.1443 C243.7759,192.8043 257.07,204.94 276.48,222.68 " fill="none" id="Point_0D-backto-Interval" style="stroke:#181818;stroke-width:1.0;"/><polygon fill="none" points="211.17,163,220.4078,179.573,228.504,170.7157,211.17,163" style="stroke:#181818;stroke-width:1.0;"/></g><!--reverse link Channel to Array_1D--><g id="link_Channel_Array_1D"><path d="M310,73 C310,90.66 310,96.94 310,114.68 " fill="none" id="Channel-backto-Array_1D" style="stroke:#181818;stroke-width:1.0;"/><polygon fill="none" points="310,55,304,73,316,73,310,55" style="stroke:#181818;stroke-width:1.0;"/></g><!--reverse link Channel to Area_2D--><g id="link_Channel_Area_2D"><path d="M350.0589,66.8043 C370.3889,84.4643 384.74,96.94 405.16,114.68 " fill="none" id="Channel-backto-Area_2D" style="stroke:#181818;stroke-width:1.0;"/><polygon fill="none" points="336.47,55,346.1242,71.3339,353.9937,62.2746,336.47,55" style="stroke:#181818;stroke-width:1.0;"/></g><!--SRC=[KyyeAIaejjBNByX9p2ifpStHIyxFrK_EIImkrat9J4mlIipbuW9p5Pmp4lFoKdCKgcjX8W7vcNabyGOk2gaL9QbvATYK16VcfUUaWXN2LS6r8PGvbgKM9QQdubFYcLUIMbIMc8FNcAAYnCfuGtmESYnAJOmtmgO20000]--></g></svg>