<?xml version="1.0" encoding="us-ascii" standalone="no"?><svg xmlns="http://www.w3.org/2000/svg" xmlns:xlink="http://www.w3.org/1999/xlink" contentStyleType="text/css" height="863px" preserveAspectRatio="none" style="width:721px;height:863px;background:#FFFFFF;" version="1.1" viewBox="0 0 721 863" width="721px" zoomAndPan="magnify"><defs/><g><!--class Data--><g id="elem_Data"><rect codeLine="3" fill="#F1F1F1" height="64.4063" id="Data" rx="2.5" ry="2.5" style="stroke:#181818;stroke-width:0.5;" width="62" x="416.5" y="7"/><ellipse cx="431.5" cy="23" fill="#ADD1B2" rx="11" ry="11" style="stroke:#181818;stroke-width:1.0;"/><path d="M431.5469,29.2031 C433.0469,29.2031 434.2813,28.6406 435.1875,27.5781 L433.8125,26.0625 C433.2656,26.6563 432.6094,27.0469 431.8125,27.0469 C430.1406,27.0469 428.9844,25.7188 428.9844,23.4375 C428.9844,21.2188 430.1406,19.875 431.7031,19.875 C432.5156,19.875 433.1094,20.1875 433.6406,20.6719 L435.0156,19.125 C434.2656,18.3906 433.1094,17.7188 431.7031,17.7188 C428.75,17.7188 426.4219,19.8594 426.4219,23.5313 C426.4219,27.25 428.7969,29.2031 431.5469,29.2031 Z " fill="#000000"/><text fill="#000000" font-family="sans-serif" font-size="14" lengthAdjust="spacing" textLength="30" x="445.5" y="27.7852">Data</text><line style="stroke:#181818;stroke-width:0.5;" x1="417.5" x2="477.5" y1="39" y2="39"/><text fill="#000000" font-family="sans-serif" font-size="14" lengthAdjust="spacing" textLength="40" x="422.5" y="55.9883">values</text><line style="stroke:#181818;stroke-width:0.5;" x1="417.5" x2="477.5" y1="63.4063" y2="63.4063"/></g><!--class MeasureData--><g id="elem_MeasureData"><rect codeLine="7" fill="#F1F1F1" height="64.4063" id="MeasureData" rx="2.5" ry="2.5" style="stroke:#181818;stroke-width:0.5;" width="116" x="315.5" y="131"/><ellipse cx="330.5" cy="147" fill="#ADD1B2" rx="11" ry="11" style="stroke:#181818;stroke-width:1.0;"/><path d="M330.5469,153.2031 C332.0469,153.2031 333.2813,152.6406 334.1875,151.5781 L332.8125,150.0625 C332.2656,150.6563 331.6094,151.0469 330.8125,151.0469 C329.1406,151.0469 327.9844,149.7188 327.9844,147.4375 C327.9844,145.2188 329.1406,143.875 330.7031,143.875 C331.5156,143.875 332.1094,144.1875 332.6406,144.6719 L334.0156,143.125 C333.2656,142.3906 332.1094,141.7188 330.7031,141.7188 C327.75,141.7188 325.4219,143.8594 325.4219,147.5313 C325.4219,151.25 327.7969,153.2031 330.5469,153.2031 Z " fill="#000000"/><text fill="#000000" font-family="sans-serif" font-size="14" lengthAdjust="spacing" textLength="84" x="344.5" y="151.7852">MeasureData</text><line style="stroke:#181818;stroke-width:0.5;" x1="316.5" x2="430.5" y1="163" y2="163"/><text fill="#000000" font-family="sans-serif" font-size="14" lengthAdjust="spacing" textLength="99" x="321.5" y="179.9883">position_counts</text><line style="stroke:#181818;stroke-width:0.5;" x1="316.5" x2="430.5" y1="187.4063" y2="187.4063"/></g><g id="elem_GMN5"><path d="M84.5,143 L84.5,183.4688 A0,0 0 0 0 84.5,183.4688 L280.5,183.4688 A0,0 0 0 0 280.5,183.4688 L280.5,167 L315.44,163 L280.5,159 L280.5,153 L270.5,143 L84.5,143 A0,0 0 0 0 84.5,143 " fill="#FEFFDD" style="stroke:#181818;stroke-width:0.5;"/><path d="M270.5,143 L270.5,153 L280.5,153 L270.5,143 " fill="#FEFFDD" style="stroke:#181818;stroke-width:0.5;"/><text fill="#000000" font-family="sans-serif" font-size="13" lengthAdjust="spacing" textLength="155" x="90.5" y="160.0605">Values are always numeric,</text><text fill="#000000" font-family="sans-serif" font-size="13" lengthAdjust="spacing" textLength="175" x="90.5" y="175.2949">but can be 0D...2D per position.</text></g><!--class MonitorData--><g id="elem_MonitorData"><rect codeLine="16" fill="#F1F1F1" height="64.4063" id="MonitorData" rx="2.5" ry="2.5" style="stroke:#181818;stroke-width:0.5;" width="111" x="467" y="131"/><ellipse cx="482" cy="147" fill="#ADD1B2" rx="11" ry="11" style="stroke:#181818;stroke-width:1.0;"/><path d="M482.0469,153.2031 C483.5469,153.2031 484.7813,152.6406 485.6875,151.5781 L484.3125,150.0625 C483.7656,150.6563 483.1094,151.0469 482.3125,151.0469 C480.6406,151.0469 479.4844,149.7188 479.4844,147.4375 C479.4844,145.2188 480.6406,143.875 482.2031,143.875 C483.0156,143.875 483.6094,144.1875 484.1406,144.6719 L485.5156,143.125 C484.7656,142.3906 483.6094,141.7188 482.2031,141.7188 C479.25,141.7188 476.9219,143.8594 476.9219,147.5313 C476.9219,151.25 479.2969,153.2031 482.0469,153.2031 Z " fill="#000000"/><text fill="#000000" font-family="sans-serif" font-size="14" lengthAdjust="spacing" textLength="79" x="496" y="151.7852">MonitorData</text><line style="stroke:#181818;stroke-width:0.5;" x1="468" x2="577" y1="163" y2="163"/><text fill="#000000" font-family="sans-serif" font-size="14" lengthAdjust="spacing" textLength="76" x="473" y="179.9883">milliseconds</text><line style="stroke:#181818;stroke-width:0.5;" x1="468" x2="577" y1="187.4063" y2="187.4063"/></g><g id="elem_GMN10"><path d="M613,143 L613,159 L578.13,163 L613,167 L613,183.4688 A0,0 0 0 0 613,183.4688 L714,183.4688 A0,0 0 0 0 714,183.4688 L714,153 L704,143 L613,143 A0,0 0 0 0 613,143 " fill="#FEFFDD" style="stroke:#181818;stroke-width:0.5;"/><path d="M704,143 L704,153 L714,153 L704,143 " fill="#FEFFDD" style="stroke:#181818;stroke-width:0.5;"/><text fill="#000000" font-family="sans-serif" font-size="13" lengthAdjust="spacing" textLength="80" x="619" y="160.0605">Values can be</text><text fill="#000000" font-family="sans-serif" font-size="13" lengthAdjust="spacing" textLength="65" x="619" y="175.2949">of any type.</text></g><!--class Axis--><g id="elem_Axis"><rect codeLine="25" fill="#F1F1F1" height="48" id="Axis" rx="2.5" ry="2.5" style="stroke:#181818;stroke-width:0.5;" width="58" x="291.5" y="255"/><ellipse cx="306.5" cy="271" fill="#ADD1B2" rx="11" ry="11" style="stroke:#181818;stroke-width:1.0;"/><path d="M306.5469,277.2031 C308.0469,277.2031 309.2813,276.6406 310.1875,275.5781 L308.8125,274.0625 C308.2656,274.6563 307.6094,275.0469 306.8125,275.0469 C305.1406,275.0469 303.9844,273.7188 303.9844,271.4375 C303.9844,269.2188 305.1406,267.875 306.7031,267.875 C307.5156,267.875 308.1094,268.1875 308.6406,268.6719 L310.0156,267.125 C309.2656,266.3906 308.1094,265.7188 306.7031,265.7188 C303.75,265.7188 301.4219,267.8594 301.4219,271.5313 C301.4219,275.25 303.7969,277.2031 306.5469,277.2031 Z " fill="#000000"/><text fill="#000000" font-family="sans-serif" font-size="14" lengthAdjust="spacing" textLength="26" x="320.5" y="275.7852">Axis</text><line style="stroke:#181818;stroke-width:0.5;" x1="292.5" x2="348.5" y1="287" y2="287"/><line style="stroke:#181818;stroke-width:0.5;" x1="292.5" x2="348.5" y1="295" y2="295"/></g><g id="elem_GMN15"><path d="M132.5,259 L132.5,299.4688 A0,0 0 0 0 132.5,299.4688 L256.5,299.4688 A0,0 0 0 0 256.5,299.4688 L256.5,283 L291.01,279 L256.5,275 L256.5,269 L246.5,259 L132.5,259 A0,0 0 0 0 132.5,259 " fill="#FEFFDD" style="stroke:#181818;stroke-width:0.5;"/><path d="M246.5,259 L246.5,269 L256.5,269 L246.5,259 " fill="#FEFFDD" style="stroke:#181818;stroke-width:0.5;"/><text fill="#000000" font-family="sans-serif" font-size="13" lengthAdjust="spacing" textLength="103" x="138.5" y="276.0605">Values are always</text><text fill="#000000" font-family="sans-serif" font-size="13" lengthAdjust="spacing" textLength="88" x="138.5" y="291.2949">0D per position.</text></g><!--class Channel--><g id="elem_Channel"><rect codeLine="32" fill="#F1F1F1" height="48" id="Channel" rx="2.5" ry="2.5" style="stroke:#181818;stroke-width:0.5;" width="83" x="385" y="255"/><ellipse cx="400" cy="271" fill="#ADD1B2" rx="11" ry="11" style="stroke:#181818;stroke-width:1.0;"/><path d="M400.0469,277.2031 C401.5469,277.2031 402.7813,276.6406 403.6875,275.5781 L402.3125,274.0625 C401.7656,274.6563 401.1094,275.0469 400.3125,275.0469 C398.6406,275.0469 397.4844,273.7188 397.4844,271.4375 C397.4844,269.2188 398.6406,267.875 400.2031,267.875 C401.0156,267.875 401.6094,268.1875 402.1406,268.6719 L403.5156,267.125 C402.7656,266.3906 401.6094,265.7188 400.2031,265.7188 C397.25,265.7188 394.9219,267.8594 394.9219,271.5313 C394.9219,275.25 397.2969,277.2031 400.0469,277.2031 Z " fill="#000000"/><text fill="#000000" font-family="sans-serif" font-size="14" lengthAdjust="spacing" textLength="51" x="414" y="275.7852">Channel</text><line style="stroke:#181818;stroke-width:0.5;" x1="386" x2="467" y1="287" y2="287"/><line style="stroke:#181818;stroke-width:0.5;" x1="386" x2="467" y1="295" y2="295"/></g><g id="elem_GMN20"><path d="M503.5,259 L503.5,275 L468.12,279 L503.5,283 L503.5,299.4688 A0,0 0 0 0 503.5,299.4688 L637.5,299.4688 A0,0 0 0 0 637.5,299.4688 L637.5,269 L627.5,259 L503.5,259 A0,0 0 0 0 503.5,259 " fill="#FEFFDD" style="stroke:#181818;stroke-width:0.5;"/><path d="M627.5,259 L627.5,269 L637.5,269 L627.5,259 " fill="#FEFFDD" style="stroke:#181818;stroke-width:0.5;"/><text fill="#000000" font-family="sans-serif" font-size="13" lengthAdjust="spacing" textLength="80" x="509.5" y="276.0605">Values can be</text><text fill="#000000" font-family="sans-serif" font-size="13" lengthAdjust="spacing" textLength="113" x="509.5" y="291.2949">0D...2D per position.</text></g><!--class Point (0D)--><g id="elem_Point (0D)"><rect codeLine="39" fill="#F1F1F1" height="48" id="Point (0D)" rx="2.5" ry="2.5" style="stroke:#181818;stroke-width:0.5;" width="95" x="248" y="363"/><ellipse cx="263" cy="379" fill="#ADD1B2" rx="11" ry="11" style="stroke:#181818;stroke-width:1.0;"/><path d="M263.0469,385.2031 C264.5469,385.2031 265.7813,384.6406 266.6875,383.5781 L265.3125,382.0625 C264.7656,382.6563 264.1094,383.0469 263.3125,383.0469 C261.6406,383.0469 260.4844,381.7188 260.4844,379.4375 C260.4844,377.2188 261.6406,375.875 263.2031,375.875 C264.0156,375.875 264.6094,376.1875 265.1406,376.6719 L266.5156,375.125 C265.7656,374.3906 264.6094,373.7188 263.2031,373.7188 C260.25,373.7188 257.9219,375.8594 257.9219,379.5313 C257.9219,383.25 260.2969,385.2031 263.0469,385.2031 Z " fill="#000000"/><text fill="#000000" font-family="sans-serif" font-size="14" lengthAdjust="spacing" textLength="63" x="277" y="383.7852">Point (0D)</text><line style="stroke:#181818;stroke-width:0.5;" x1="249" x2="342" y1="395" y2="395"/><line style="stroke:#181818;stroke-width:0.5;" x1="249" x2="342" y1="403" y2="403"/></g><!--class SinglePoint--><g id="elem_SinglePoint"><rect codeLine="41" fill="#F1F1F1" height="48" id="SinglePoint" rx="2.5" ry="2.5" style="stroke:#181818;stroke-width:0.5;" width="102" x="79.5" y="487.5"/><ellipse cx="94.5" cy="503.5" fill="#ADD1B2" rx="11" ry="11" style="stroke:#181818;stroke-width:1.0;"/><path d="M94.5469,509.7031 C96.0469,509.7031 97.2813,509.1406 98.1875,508.0781 L96.8125,506.5625 C96.2656,507.1563 95.6094,507.5469 94.8125,507.5469 C93.1406,507.5469 91.9844,506.2188 91.9844,503.9375 C91.9844,501.7188 93.1406,500.375 94.7031,500.375 C95.5156,500.375 96.1094,500.6875 96.6406,501.1719 L98.0156,499.625 C97.2656,498.8906 96.1094,498.2188 94.7031,498.2188 C91.75,498.2188 89.4219,500.3594 89.4219,504.0313 C89.4219,507.75 91.7969,509.7031 94.5469,509.7031 Z " fill="#000000"/><text fill="#000000" font-family="sans-serif" font-size="14" lengthAdjust="spacing" textLength="70" x="108.5" y="508.2852">SinglePoint</text><line style="stroke:#181818;stroke-width:0.5;" x1="80.5" x2="180.5" y1="519.5" y2="519.5"/><line style="stroke:#181818;stroke-width:0.5;" x1="80.5" x2="180.5" y1="527.5" y2="527.5"/></g><!--class SinglePointNormalized--><g id="elem_SinglePointNormalized"><rect codeLine="43" fill="#F1F1F1" height="80.8125" id="SinglePointNormalized" rx="2.5" ry="2.5" style="stroke:#181818;stroke-width:0.5;" width="173" x="7" y="612"/><ellipse cx="22" cy="628" fill="#ADD1B2" rx="11" ry="11" style="stroke:#181818;stroke-width:1.0;"/><path d="M22.0469,634.2031 C23.5469,634.2031 24.7813,633.6406 25.6875,632.5781 L24.3125,631.0625 C23.7656,631.6563 23.1094,632.0469 22.3125,632.0469 C20.6406,632.0469 19.4844,630.7188 19.4844,628.4375 C19.4844,626.2188 20.6406,624.875 22.2031,624.875 C23.0156,624.875 23.6094,625.1875 24.1406,625.6719 L25.5156,624.125 C24.7656,623.3906 23.6094,622.7188 22.2031,622.7188 C19.25,622.7188 16.9219,624.8594 16.9219,628.5313 C16.9219,632.25 19.2969,634.2031 22.0469,634.2031 Z " fill="#000000"/><text fill="#000000" font-family="sans-serif" font-size="14" lengthAdjust="spacing" textLength="141" x="36" y="632.7852">SinglePointNormalized</text><line style="stroke:#181818;stroke-width:0.5;" x1="8" x2="179" y1="644" y2="644"/><text fill="#000000" font-family="sans-serif" font-size="14" lengthAdjust="spacing" textLength="115" x="13" y="660.9883">normalized_values</text><text fill="#000000" font-family="sans-serif" font-size="14" lengthAdjust="spacing" textLength="119" x="13" y="677.3945">normalizing_values</text><line style="stroke:#181818;stroke-width:0.5;" x1="8" x2="179" y1="684.8125" y2="684.8125"/></g><!--class Average--><g id="elem_Average"><rect codeLine="48" fill="#F1F1F1" height="80.8125" id="Average" rx="2.5" ry="2.5" style="stroke:#181818;stroke-width:0.5;" width="83" x="254" y="471"/><ellipse cx="269" cy="487" fill="#ADD1B2" rx="11" ry="11" style="stroke:#181818;stroke-width:1.0;"/><path d="M269.0469,493.2031 C270.5469,493.2031 271.7813,492.6406 272.6875,491.5781 L271.3125,490.0625 C270.7656,490.6563 270.1094,491.0469 269.3125,491.0469 C267.6406,491.0469 266.4844,489.7188 266.4844,487.4375 C266.4844,485.2188 267.6406,483.875 269.2031,483.875 C270.0156,483.875 270.6094,484.1875 271.1406,484.6719 L272.5156,483.125 C271.7656,482.3906 270.6094,481.7188 269.2031,481.7188 C266.25,481.7188 263.9219,483.8594 263.9219,487.5313 C263.9219,491.25 266.2969,493.2031 269.0469,493.2031 Z " fill="#000000"/><text fill="#000000" font-family="sans-serif" font-size="14" lengthAdjust="spacing" textLength="51" x="283" y="491.7852">Average</text><line style="stroke:#181818;stroke-width:0.5;" x1="255" x2="336" y1="503" y2="503"/><text fill="#000000" font-family="sans-serif" font-size="14" lengthAdjust="spacing" textLength="70" x="260" y="519.9883">raw_values</text><text fill="#000000" font-family="sans-serif" font-size="14" lengthAdjust="spacing" textLength="57" x="260" y="536.3945">attempts</text><line style="stroke:#181818;stroke-width:0.5;" x1="255" x2="336" y1="543.8125" y2="543.8125"/></g><!--class AverageNormalized--><g id="elem_AverageNormalized"><rect codeLine="53" fill="#F1F1F1" height="80.8125" id="AverageNormalized" rx="2.5" ry="2.5" style="stroke:#181818;stroke-width:0.5;" width="161" x="215" y="612"/><ellipse cx="233.15" cy="628" fill="#ADD1B2" rx="11" ry="11" style="stroke:#181818;stroke-width:1.0;"/><path d="M233.1969,634.2031 C234.6969,634.2031 235.9313,633.6406 236.8375,632.5781 L235.4625,631.0625 C234.9156,631.6563 234.2594,632.0469 233.4625,632.0469 C231.7906,632.0469 230.6344,630.7188 230.6344,628.4375 C230.6344,626.2188 231.7906,624.875 233.3531,624.875 C234.1656,624.875 234.7594,625.1875 235.2906,625.6719 L236.6656,624.125 C235.9156,623.3906 234.7594,622.7188 233.3531,622.7188 C230.4,622.7188 228.0719,624.8594 228.0719,628.5313 C228.0719,632.25 230.4469,634.2031 233.1969,634.2031 Z " fill="#000000"/><text fill="#000000" font-family="sans-serif" font-size="14" lengthAdjust="spacing" textLength="122" x="247.85" y="632.7852">AverageNormalized</text><line style="stroke:#181818;stroke-width:0.5;" x1="216" x2="375" y1="644" y2="644"/><text fill="#000000" font-family="sans-serif" font-size="14" lengthAdjust="spacing" textLength="145" x="221" y="660.9883">normalized_raw_values</text><text fill="#000000" font-family="sans-serif" font-size="14" lengthAdjust="spacing" textLength="149" x="221" y="677.3945">normalizing_raw_values</text><line style="stroke:#181818;stroke-width:0.5;" x1="216" x2="375" y1="684.8125" y2="684.8125"/></g><!--class Interval--><g id="elem_Interval"><rect codeLine="58" fill="#F1F1F1" height="80.8125" id="Interval" rx="2.5" ry="2.5" style="stroke:#181818;stroke-width:0.5;" width="82" x="411.5" y="471"/><ellipse cx="427.85" cy="487" fill="#ADD1B2" rx="11" ry="11" style="stroke:#181818;stroke-width:1.0;"/><path d="M427.8969,493.2031 C429.3969,493.2031 430.6313,492.6406 431.5375,491.5781 L430.1625,490.0625 C429.6156,490.6563 428.9594,491.0469 428.1625,491.0469 C426.4906,491.0469 425.3344,489.7188 425.3344,487.4375 C425.3344,485.2188 426.4906,483.875 428.0531,483.875 C428.8656,483.875 429.4594,484.1875 429.9906,484.6719 L431.3656,483.125 C430.6156,482.3906 429.4594,481.7188 428.0531,481.7188 C425.1,481.7188 422.7719,483.8594 422.7719,487.5313 C422.7719,491.25 425.1469,493.2031 427.8969,493.2031 Z " fill="#000000"/><text fill="#000000" font-family="sans-serif" font-size="14" lengthAdjust="spacing" textLength="47" x="442.15" y="491.7852">Interval</text><line style="stroke:#181818;stroke-width:0.5;" x1="412.5" x2="492.5" y1="503" y2="503"/><text fill="#000000" font-family="sans-serif" font-size="14" lengthAdjust="spacing" textLength="70" x="417.5" y="519.9883">raw_values</text><text fill="#000000" font-family="sans-serif" font-size="14" lengthAdjust="spacing" textLength="43" x="417.5" y="536.3945">counts</text><line style="stroke:#181818;stroke-width:0.5;" x1="412.5" x2="492.5" y1="543.8125" y2="543.8125"/></g><!--class IntervalNormalized--><g id="elem_IntervalNormalized"><rect codeLine="63" fill="#F1F1F1" height="80.8125" id="IntervalNormalized" rx="2.5" ry="2.5" style="stroke:#181818;stroke-width:0.5;" width="161" x="411" y="612"/><ellipse cx="430.95" cy="628" fill="#ADD1B2" rx="11" ry="11" style="stroke:#181818;stroke-width:1.0;"/><path d="M430.9969,634.2031 C432.4969,634.2031 433.7313,633.6406 434.6375,632.5781 L433.2625,631.0625 C432.7156,631.6563 432.0594,632.0469 431.2625,632.0469 C429.5906,632.0469 428.4344,630.7188 428.4344,628.4375 C428.4344,626.2188 429.5906,624.875 431.1531,624.875 C431.9656,624.875 432.5594,625.1875 433.0906,625.6719 L434.4656,624.125 C433.7156,623.3906 432.5594,622.7188 431.1531,622.7188 C428.2,622.7188 425.8719,624.8594 425.8719,628.5313 C425.8719,632.25 428.2469,634.2031 430.9969,634.2031 Z " fill="#000000"/><text fill="#000000" font-family="sans-serif" font-size="14" lengthAdjust="spacing" textLength="118" x="446.05" y="632.7852">IntervalNormalized</text><line style="stroke:#181818;stroke-width:0.5;" x1="412" x2="571" y1="644" y2="644"/><text fill="#000000" font-family="sans-serif" font-size="14" lengthAdjust="spacing" textLength="145" x="417" y="660.9883">normalized_raw_values</text><text fill="#000000" font-family="sans-serif" font-size="14" lengthAdjust="spacing" textLength="149" x="417" y="677.3945">normalizing_raw_values</text><line style="stroke:#181818;stroke-width:0.5;" x1="412" x2="571" y1="684.8125" y2="684.8125"/></g><g id="elem_NormalizeNote"><path d="M149.5,753 L149.5,856.6195 L441.5,856.6195 L441.5,763 L431.5,753 L149.5,753 " fill="#FEFFDD" style="stroke:#181818;stroke-width:0.5;"/><path d="M431.5,753 L431.5,763 L441.5,763 L431.5,753 " fill="#FEFFDD" style="stroke:#181818;stroke-width:1.0;"/><text fill="#000000" font-family="sans-serif" font-size="13" lengthAdjust="spacing" textLength="222" x="155.5" y="770.0605">Normalized data store additionally both,</text><text fill="#000000" font-family="sans-serif" font-size="13" lengthAdjust="spacing" textLength="239" x="155.5" y="785.2949">the normalized and the normalizing values.</text><text fill="#000000" font-family="sans-serif" font-size="13" lengthAdjust="spacing" textLength="3" x="155.5" y="800.5293">&#160;</text><text fill="#000000" font-family="sans-serif" font-size="13" lengthAdjust="spacing" textLength="18" x="155.5" y="816.8703">For</text><text fill="#000000" font-family="monospace" font-size="13" lengthAdjust="spacing" textLength="56" x="176.5" y="816.4951">Average</text><text fill="#000000" font-family="sans-serif" font-size="13" lengthAdjust="spacing" textLength="21" x="235.5" y="816.8703">and</text><text fill="#000000" font-family="monospace" font-size="13" lengthAdjust="spacing" textLength="64" x="259.5" y="816.4951">Interval</text><text fill="#000000" font-family="sans-serif" font-size="13" lengthAdjust="spacing" textLength="103" x="323.5" y="816.8703">, probably both are</text><text fill="#000000" font-family="sans-serif" font-size="13" lengthAdjust="spacing" textLength="245" x="155.5" y="832.1047">vectors of the same length as the individual</text><text fill="#000000" font-family="monospace" font-size="13" lengthAdjust="spacing" textLength="80" x="155.5" y="848.0705">raw_values</text><text fill="#000000" font-family="sans-serif" font-size="13" lengthAdjust="spacing" textLength="107" x="238.5" y="848.4457">vector per position.</text></g><!--class Array (1D)--><g id="elem_Array (1D)"><rect codeLine="81" fill="#F1F1F1" height="48" id="Array (1D)" rx="2.5" ry="2.5" style="stroke:#181818;stroke-width:0.5;" width="96" x="378.5" y="363"/><ellipse cx="393.5" cy="379" fill="#ADD1B2" rx="11" ry="11" style="stroke:#181818;stroke-width:1.0;"/><path d="M393.5469,385.2031 C395.0469,385.2031 396.2813,384.6406 397.1875,383.5781 L395.8125,382.0625 C395.2656,382.6563 394.6094,383.0469 393.8125,383.0469 C392.1406,383.0469 390.9844,381.7188 390.9844,379.4375 C390.9844,377.2188 392.1406,375.875 393.7031,375.875 C394.5156,375.875 395.1094,376.1875 395.6406,376.6719 L397.0156,375.125 C396.2656,374.3906 395.1094,373.7188 393.7031,373.7188 C390.75,373.7188 388.4219,375.8594 388.4219,379.5313 C388.4219,383.25 390.7969,385.2031 393.5469,385.2031 Z " fill="#000000"/><text fill="#000000" font-family="sans-serif" font-size="14" lengthAdjust="spacing" textLength="64" x="407.5" y="383.7852">Array (1D)</text><line style="stroke:#181818;stroke-width:0.5;" x1="379.5" x2="473.5" y1="395" y2="395"/><line style="stroke:#181818;stroke-width:0.5;" x1="379.5" x2="473.5" y1="403" y2="403"/></g><!--class Area (2D)--><g id="elem_Area (2D)"><rect codeLine="83" fill="#F1F1F1" height="48" id="Area (2D)" rx="2.5" ry="2.5" style="stroke:#181818;stroke-width:0.5;" width="91" x="510" y="363"/><ellipse cx="525" cy="379" fill="#ADD1B2" rx="11" ry="11" style="stroke:#181818;stroke-width:1.0;"/><path d="M525.0469,385.2031 C526.5469,385.2031 527.7813,384.6406 528.6875,383.5781 L527.3125,382.0625 C526.7656,382.6563 526.1094,383.0469 525.3125,383.0469 C523.6406,383.0469 522.4844,381.7188 522.4844,379.4375 C522.4844,377.2188 523.6406,375.875 525.2031,375.875 C526.0156,375.875 526.6094,376.1875 527.1406,376.6719 L528.5156,375.125 C527.7656,374.3906 526.6094,373.7188 525.2031,373.7188 C522.25,373.7188 519.9219,375.8594 519.9219,379.5313 C519.9219,383.25 522.2969,385.2031 525.0469,385.2031 Z " fill="#000000"/><text fill="#000000" font-family="sans-serif" font-size="14" lengthAdjust="spacing" textLength="59" x="539" y="383.7852">Area (2D)</text><line style="stroke:#181818;stroke-width:0.5;" x1="511" x2="600" y1="395" y2="395"/><line style="stroke:#181818;stroke-width:0.5;" x1="511" x2="600" y1="403" y2="403"/></g><!--reverse link Data to MeasureData--><g id="link_Data_MeasureData"><path d="M419.3028,86.4888 C408.1628,104.8488 403.46,112.61 392.33,130.96 " fill="none" id="Data-backto-MeasureData" style="stroke:#181818;stroke-width:1.0;"/><polygon fill="none" points="428.64,71.1,414.1732,83.3764,424.4324,89.6012,428.64,71.1" style="stroke:#181818;stroke-width:1.0;"/></g><!--reverse link Data to MonitorData--><g id="link_Data_MonitorData"><path d="M476.0426,86.4367 C487.3226,104.7967 492.14,112.61 503.42,130.96 " fill="none" id="Data-backto-MonitorData" style="stroke:#181818;stroke-width:1.0;"/><polygon fill="none" points="466.62,71.1,470.9303,89.5776,481.1548,83.2959,466.62,71.1" style="stroke:#181818;stroke-width:1.0;"/></g><!--reverse link MeasureData to Axis--><g id="link_MeasureData_Axis"><path d="M351.4303,211.4717 C342.6603,230.3317 339.26,237.65 331.27,254.84 " fill="none" id="MeasureData-backto-Axis" style="stroke:#181818;stroke-width:1.0;"/><polygon fill="none" points="359.02,195.15,345.9898,208.9418,356.8709,214.0016,359.02,195.15" style="stroke:#181818;stroke-width:1.0;"/></g><!--reverse link MeasureData to Channel--><g id="link_MeasureData_Channel"><path d="M395.5697,211.4717 C404.3397,230.3317 407.74,237.65 415.73,254.84 " fill="none" id="MeasureData-backto-Channel" style="stroke:#181818;stroke-width:1.0;"/><polygon fill="none" points="387.98,195.15,390.1291,214.0016,401.0102,208.9418,387.98,195.15" style="stroke:#181818;stroke-width:1.0;"/></g><!--reverse link Channel to Point (0D)--><g id="link_Channel_Point (0D)"><path d="M384.0784,314.3241 C362.2584,331.9841 346.24,344.94 324.32,362.68 " fill="none" id="Channel-backto-Point (0D)" style="stroke:#181818;stroke-width:1.0;"/><polygon fill="none" points="398.07,303,380.3037,309.6602,387.8531,318.988,398.07,303" style="stroke:#181818;stroke-width:1.0;"/></g><!--reverse link Point (0D) to SinglePoint--><g id="link_Point (0D)_SinglePoint"><path d="M250.0083,421.7707 C220.6083,443.6007 191.13,465.49 161.68,487.35 " fill="none" id="Point (0D)-backto-SinglePoint" style="stroke:#181818;stroke-width:1.0;"/><polygon fill="none" points="264.46,411.04,246.4314,416.9534,253.5851,426.5879,264.46,411.04" style="stroke:#181818;stroke-width:1.0;"/></g><!--reverse link SinglePoint to SinglePointNormalized--><g id="link_SinglePoint_SinglePointNormalized"><path d="M119.6742,553.1628 C114.1542,573.8728 110.61,587.22 104.06,611.81 " fill="none" id="SinglePoint-backto-SinglePointNormalized" style="stroke:#181818;stroke-width:1.0;"/><polygon fill="none" points="124.31,535.77,113.8766,551.6175,125.4718,554.7081,124.31,535.77" style="stroke:#181818;stroke-width:1.0;"/></g><!--reverse link Point (0D) to Average--><g id="link_Point (0D)_Average"><path d="M295.5,429.04 C295.5,445.81 295.5,450.95 295.5,470.69 " fill="none" id="Point (0D)-backto-Average" style="stroke:#181818;stroke-width:1.0;"/><polygon fill="none" points="295.5,411.04,289.5,429.04,301.5,429.04,295.5,411.04" style="stroke:#181818;stroke-width:1.0;"/></g><!--reverse link Average to AverageNormalized--><g id="link_Average_AverageNormalized"><path d="M295.5,570.33 C295.5,588.94 295.5,593.05 295.5,611.66 " fill="none" id="Average-backto-AverageNormalized" style="stroke:#181818;stroke-width:1.0;"/><polygon fill="none" points="295.5,552.33,289.5,570.33,301.5,570.33,295.5,552.33" style="stroke:#181818;stroke-width:1.0;"/></g><!--reverse link Point (0D) to Interval--><g id="link_Point (0D)_Interval"><path d="M339.2217,422.1123 C363.5617,441.1023 384.16,457.18 411.25,478.32 " fill="none" id="Point (0D)-backto-Interval" style="stroke:#181818;stroke-width:1.0;"/><polygon fill="none" points="325.03,411.04,335.5309,426.8429,342.9125,417.3818,325.03,411.04" style="stroke:#181818;stroke-width:1.0;"/></g><!--reverse link Interval to IntervalNormalized--><g id="link_Interval_IntervalNormalized"><path d="M468.5413,569.6611 C473.7613,588.2711 475.1,593.05 480.32,611.66 " fill="none" id="Interval-backto-IntervalNormalized" style="stroke:#181818;stroke-width:1.0;"/><polygon fill="none" points="463.68,552.33,462.7642,571.2816,474.3183,568.0407,463.68,552.33" style="stroke:#181818;stroke-width:1.0;"/></g><!--link SinglePointNormalized to NormalizeNote--><g id="link_SinglePointNormalized_NormalizeNote"><path codeLine="77" d="M146.57,693.04 C171.12,711.33 200.59,733.28 226.8,752.82 " fill="none" id="SinglePointNormalized-NormalizeNote" style="stroke:#181818;stroke-width:1.0;stroke-dasharray:7.0,7.0;"/></g><!--link AverageNormalized to NormalizeNote--><g id="link_AverageNormalized_NormalizeNote"><path codeLine="78" d="M295.5,693.04 C295.5,711.33 295.5,733.28 295.5,752.82 " fill="none" id="AverageNormalized-NormalizeNote" style="stroke:#181818;stroke-width:1.0;stroke-dasharray:7.0,7.0;"/></g><!--link IntervalNormalized to NormalizeNote--><g id="link_IntervalNormalized_NormalizeNote"><path codeLine="79" d="M440,693.04 C416.18,711.33 387.6,733.28 362.16,752.82 " fill="none" id="IntervalNormalized-NormalizeNote" style="stroke:#181818;stroke-width:1.0;stroke-dasharray:7.0,7.0;"/></g><!--reverse link Channel to Array (1D)--><g id="link_Channel_Array (1D)"><path d="M426.5,321 C426.5,338.66 426.5,344.94 426.5,362.68 " fill="none" id="Channel-backto-Array (1D)" style="stroke:#181818;stroke-width:1.0;"/><polygon fill="none" points="426.5,303,420.5,321,432.5,321,426.5,303" style="stroke:#181818;stroke-width:1.0;"/></g><!--reverse link Channel to Area (2D)--><g id="link_Channel_Area (2D)"><path d="M468.3967,314.4282 C489.8867,332.0882 505.53,344.94 527.12,362.68 " fill="none" id="Channel-backto-Area (2D)" style="stroke:#181818;stroke-width:1.0;"/><polygon fill="none" points="454.49,303,464.5873,319.0638,472.2061,309.7926,454.49,303" style="stroke:#181818;stroke-width:1.0;"/></g><!--SRC=[dLJ1Zfim4Btp5IDVcafRakwnjwZHIdlegbAbNgC1PeabOoFRP9T6_VVQ1XmdaDsst1Y_UU-DUSE7WxMj-R9UjmAbxHgHbwfPbmAD-LHnh3KsMHPUOOSMuPI1UuueEZBPx-de6w7fD0K4lLgIrGMyLOPRhkI-L9sqeKygIo3esO9wJji3_cUW1zG4A5wmDo2xXZGlxy9nqLaeKK91iDdbUNw_WvPqLCapfmzU8DfJabkbRzbhk13SKAbSFNhJl3uCvixDgRd1GAWu4CeURD_IN7lxoaqKJU_fT7qB7hayVgXktflowm6b9F6sM1nhHDyOwU_kbNrNN5fORNOVMPITR9nYEdvmMGiQi1FgedKH-gHqWuB_eYesfKJ3fvCHj1ypcLOTV7yTrUsHDDPqmqXer_YIig6rrBHsph7WS6AVkRlYJ1qcHr7XKLhIhlWFDi-xTKcnu3Ao_x_D42Oq4DcVV2vyJw9N-UWPjpmEMbKXH2X43uMoXs6LxO4IURT6rKN9wOx_cZmB-0UbWR7nbXaB3OnDyp1s1wrM1HQZYD-XuOT5fRDXVF0zly76xvsiFSI44fSLF_Agms4b63lFwtI6_flhi1pRFB-wddbkPf25hpR3JDktrHfxM7r-U_iSZ11MzykeFm00]--></g></svg>