<?xml version="1.0" encoding="us-ascii" standalone="no"?><svg xmlns="http://www.w3.org/2000/svg" xmlns:xlink="http://www.w3.org/1999/xlink" contentStyleType="text/css" height="604.1px" preserveAspectRatio="none" style="width:504px;height:604px;background:#FFFFFF;" version="1.1" viewBox="0 0 504 604" width="504.7px" zoomAndPan="magnify"><defs/><g><!--class Data--><g id="elem_Data"><rect codeLine="3" fill="#F1F1F1" height="45.0844" id="Data" rx="1.75" ry="1.75" style="stroke:#181818;stroke-width:0.3499999999999999;" width="43.4" x="291.55" y="4.9"/><ellipse cx="302.05" cy="16.1" fill="#ADD1B2" rx="7.7" ry="7.7" style="stroke:#181818;stroke-width:0.6999999999999998;"/><path d="M302.0828,20.4422 C303.1328,20.4422 303.9969,20.0484 304.6312,19.3047 L303.6687,18.2437 C303.2859,18.6594 302.8266,18.9328 302.2687,18.9328 C301.0984,18.9328 300.2891,18.0031 300.2891,16.4062 C300.2891,14.8531 301.0984,13.9125 302.1922,13.9125 C302.7609,13.9125 303.1766,14.1312 303.5484,14.4703 L304.5109,13.3875 C303.9859,12.8734 303.1766,12.4031 302.1922,12.4031 C300.125,12.4031 298.4953,13.9016 298.4953,16.4719 C298.4953,19.075 300.1578,20.4422 302.0828,20.4422 Z " fill="#000000"/><text fill="#000000" font-family="sans-serif" font-size="9.8" lengthAdjust="spacing" textLength="21" x="311.85" y="19.4496">Data</text><line style="stroke:#181818;stroke-width:0.3499999999999999;" x1="292.25" x2="334.25" y1="27.3" y2="27.3"/><text fill="#000000" font-family="sans-serif" font-size="9.8" lengthAdjust="spacing" textLength="28" x="295.75" y="39.1918">values</text><line style="stroke:#181818;stroke-width:0.3499999999999999;" x1="292.25" x2="334.25" y1="44.3844" y2="44.3844"/></g><!--class MeasureData--><g id="elem_MeasureData"><rect codeLine="7" fill="#F1F1F1" height="45.0844" id="MeasureData" rx="1.75" ry="1.75" style="stroke:#181818;stroke-width:0.3499999999999999;" width="81.2" x="220.85" y="91.7"/><ellipse cx="231.35" cy="102.9" fill="#ADD1B2" rx="7.7" ry="7.7" style="stroke:#181818;stroke-width:0.6999999999999998;"/><path d="M231.3828,107.2422 C232.4328,107.2422 233.2969,106.8484 233.9312,106.1047 L232.9687,105.0437 C232.5859,105.4594 232.1266,105.7328 231.5687,105.7328 C230.3984,105.7328 229.5891,104.8031 229.5891,103.2062 C229.5891,101.6531 230.3984,100.7125 231.4922,100.7125 C232.0609,100.7125 232.4766,100.9312 232.8484,101.2703 L233.8109,100.1875 C233.2859,99.6734 232.4766,99.2031 231.4922,99.2031 C229.425,99.2031 227.7953,100.7016 227.7953,103.2719 C227.7953,105.875 229.4578,107.2422 231.3828,107.2422 Z " fill="#000000"/><text fill="#000000" font-family="sans-serif" font-size="9.8" lengthAdjust="spacing" textLength="58.8" x="241.15" y="106.2496">MeasureData</text><line style="stroke:#181818;stroke-width:0.3499999999999999;" x1="221.55" x2="301.35" y1="114.1" y2="114.1"/><text fill="#000000" font-family="sans-serif" font-size="9.8" lengthAdjust="spacing" textLength="39.9" x="225.05" y="125.9918">positions</text><line style="stroke:#181818;stroke-width:0.3499999999999999;" x1="221.55" x2="301.35" y1="131.1844" y2="131.1844"/></g><g id="elem_GMN5"><path d="M59.15,100.1 L59.15,128.4281 A0,0 0 0 0 59.15,128.4281 L196.35,128.4281 A0,0 0 0 0 196.35,128.4281 L196.35,116.9 L220.808,114.1 L196.35,111.3 L196.35,107.1 L189.35,100.1 L59.15,100.1 A0,0 0 0 0 59.15,100.1 " fill="#FEFFDD" style="stroke:#181818;stroke-width:0.3499999999999999;"/><path d="M189.35,100.1 L189.35,107.1 L196.35,107.1 L189.35,100.1 " fill="#FEFFDD" style="stroke:#181818;stroke-width:0.3499999999999999;"/><text fill="#000000" font-family="sans-serif" font-size="9.1" lengthAdjust="spacing" textLength="108.5" x="63.35" y="112.0424">Values are always numeric,</text><text fill="#000000" font-family="sans-serif" font-size="9.1" lengthAdjust="spacing" textLength="122.5" x="63.35" y="122.7064">but can be 0D...2D per position.</text></g><!--class MonitorData--><g id="elem_MonitorData"><rect codeLine="16" fill="#F1F1F1" height="45.0844" id="MonitorData" rx="1.75" ry="1.75" style="stroke:#181818;stroke-width:0.3499999999999999;" width="77.7" x="326.9" y="91.7"/><ellipse cx="337.4" cy="102.9" fill="#ADD1B2" rx="7.7" ry="7.7" style="stroke:#181818;stroke-width:0.6999999999999998;"/><path d="M337.4328,107.2422 C338.4828,107.2422 339.3469,106.8484 339.9812,106.1047 L339.0187,105.0437 C338.6359,105.4594 338.1766,105.7328 337.6187,105.7328 C336.4484,105.7328 335.6391,104.8031 335.6391,103.2062 C335.6391,101.6531 336.4484,100.7125 337.5422,100.7125 C338.1109,100.7125 338.5266,100.9312 338.8984,101.2703 L339.8609,100.1875 C339.3359,99.6734 338.5266,99.2031 337.5422,99.2031 C335.475,99.2031 333.8453,100.7016 333.8453,103.2719 C333.8453,105.875 335.5078,107.2422 337.4328,107.2422 Z " fill="#000000"/><text fill="#000000" font-family="sans-serif" font-size="9.8" lengthAdjust="spacing" textLength="55.3" x="347.2" y="106.2496">MonitorData</text><line style="stroke:#181818;stroke-width:0.3499999999999999;" x1="327.6" x2="403.9" y1="114.1" y2="114.1"/><text fill="#000000" font-family="sans-serif" font-size="9.8" lengthAdjust="spacing" textLength="53.2" x="331.1" y="125.9918">milliseconds</text><line style="stroke:#181818;stroke-width:0.3499999999999999;" x1="327.6" x2="403.9" y1="131.1844" y2="131.1844"/></g><g id="elem_GMN10"><path d="M429.1,100.1 L429.1,111.3 L404.691,114.1 L429.1,116.9 L429.1,128.4281 A0,0 0 0 0 429.1,128.4281 L499.8,128.4281 A0,0 0 0 0 499.8,128.4281 L499.8,107.1 L492.8,100.1 L429.1,100.1 A0,0 0 0 0 429.1,100.1 " fill="#FEFFDD" style="stroke:#181818;stroke-width:0.3499999999999999;"/><path d="M492.8,100.1 L492.8,107.1 L499.8,107.1 L492.8,100.1 " fill="#FEFFDD" style="stroke:#181818;stroke-width:0.3499999999999999;"/><text fill="#000000" font-family="sans-serif" font-size="9.1" lengthAdjust="spacing" textLength="56" x="433.3" y="112.0424">Values can be</text><text fill="#000000" font-family="sans-serif" font-size="9.1" lengthAdjust="spacing" textLength="45.5" x="433.3" y="122.7064">of any type.</text></g><!--class Axis--><g id="elem_Axis"><rect codeLine="25" fill="#F1F1F1" height="33.6" id="Axis" rx="1.75" ry="1.75" style="stroke:#181818;stroke-width:0.3499999999999999;" width="40.6" x="204.05" y="178.5"/><ellipse cx="214.55" cy="189.7" fill="#ADD1B2" rx="7.7" ry="7.7" style="stroke:#181818;stroke-width:0.6999999999999998;"/><path d="M214.5828,194.0422 C215.6328,194.0422 216.4969,193.6484 217.1312,192.9047 L216.1687,191.8437 C215.7859,192.2594 215.3266,192.5328 214.7687,192.5328 C213.5984,192.5328 212.7891,191.6031 212.7891,190.0062 C212.7891,188.4531 213.5984,187.5125 214.6922,187.5125 C215.2609,187.5125 215.6766,187.7312 216.0484,188.0703 L217.0109,186.9875 C216.4859,186.4734 215.6766,186.0031 214.6922,186.0031 C212.625,186.0031 210.9953,187.5016 210.9953,190.0719 C210.9953,192.675 212.6578,194.0422 214.5828,194.0422 Z " fill="#000000"/><text fill="#000000" font-family="sans-serif" font-size="9.8" lengthAdjust="spacing" textLength="18.2" x="224.35" y="193.0496">Axis</text><line style="stroke:#181818;stroke-width:0.3499999999999999;" x1="204.75" x2="243.95" y1="200.9" y2="200.9"/><line style="stroke:#181818;stroke-width:0.3499999999999999;" x1="204.75" x2="243.95" y1="206.5" y2="206.5"/></g><g id="elem_GMN15"><path d="M92.75,181.3 L92.75,209.6281 A0,0 0 0 0 92.75,209.6281 L179.55,209.6281 A0,0 0 0 0 179.55,209.6281 L179.55,198.1 L203.707,195.3 L179.55,192.5 L179.55,188.3 L172.55,181.3 L92.75,181.3 A0,0 0 0 0 92.75,181.3 " fill="#FEFFDD" style="stroke:#181818;stroke-width:0.3499999999999999;"/><path d="M172.55,181.3 L172.55,188.3 L179.55,188.3 L172.55,181.3 " fill="#FEFFDD" style="stroke:#181818;stroke-width:0.3499999999999999;"/><text fill="#000000" font-family="sans-serif" font-size="9.1" lengthAdjust="spacing" textLength="72.1" x="96.95" y="193.2424">Values are always</text><text fill="#000000" font-family="sans-serif" font-size="9.1" lengthAdjust="spacing" textLength="61.6" x="96.95" y="203.9064">0D per position.</text></g><!--class Channel--><g id="elem_Channel"><rect codeLine="32" fill="#F1F1F1" height="33.6" id="Channel" rx="1.75" ry="1.75" style="stroke:#181818;stroke-width:0.3499999999999999;" width="58.1" x="269.5" y="178.5"/><ellipse cx="280" cy="189.7" fill="#ADD1B2" rx="7.7" ry="7.7" style="stroke:#181818;stroke-width:0.6999999999999998;"/><path d="M280.0328,194.0422 C281.0828,194.0422 281.9469,193.6484 282.5812,192.9047 L281.6187,191.8437 C281.2359,192.2594 280.7766,192.5328 280.2187,192.5328 C279.0484,192.5328 278.2391,191.6031 278.2391,190.0062 C278.2391,188.4531 279.0484,187.5125 280.1422,187.5125 C280.7109,187.5125 281.1266,187.7312 281.4984,188.0703 L282.4609,186.9875 C281.9359,186.4734 281.1266,186.0031 280.1422,186.0031 C278.075,186.0031 276.4453,187.5016 276.4453,190.0719 C276.4453,192.675 278.1078,194.0422 280.0328,194.0422 Z " fill="#000000"/><text fill="#000000" font-family="sans-serif" font-size="9.8" lengthAdjust="spacing" textLength="35.7" x="289.8" y="193.0496">Channel</text><line style="stroke:#181818;stroke-width:0.3499999999999999;" x1="270.2" x2="326.9" y1="200.9" y2="200.9"/><line style="stroke:#181818;stroke-width:0.3499999999999999;" x1="270.2" x2="326.9" y1="206.5" y2="206.5"/></g><g id="elem_GMN20"><path d="M352.45,181.3 L352.45,192.5 L327.684,195.3 L352.45,198.1 L352.45,209.6281 A0,0 0 0 0 352.45,209.6281 L446.25,209.6281 A0,0 0 0 0 446.25,209.6281 L446.25,188.3 L439.25,181.3 L352.45,181.3 A0,0 0 0 0 352.45,181.3 " fill="#FEFFDD" style="stroke:#181818;stroke-width:0.3499999999999999;"/><path d="M439.25,181.3 L439.25,188.3 L446.25,188.3 L439.25,181.3 " fill="#FEFFDD" style="stroke:#181818;stroke-width:0.3499999999999999;"/><text fill="#000000" font-family="sans-serif" font-size="9.1" lengthAdjust="spacing" textLength="56" x="356.65" y="193.2424">Values can be</text><text fill="#000000" font-family="sans-serif" font-size="9.1" lengthAdjust="spacing" textLength="79.1" x="356.65" y="203.9064">0D...2D per position.</text></g><!--class Point (0D)--><g id="elem_Point (0D)"><rect codeLine="39" fill="#F1F1F1" height="33.6" id="Point (0D)" rx="1.75" ry="1.75" style="stroke:#181818;stroke-width:0.3499999999999999;" width="66.5" x="173.6" y="254.1"/><ellipse cx="184.1" cy="265.3" fill="#ADD1B2" rx="7.7" ry="7.7" style="stroke:#181818;stroke-width:0.6999999999999998;"/><path d="M184.1328,269.6422 C185.1828,269.6422 186.0469,269.2484 186.6812,268.5047 L185.7187,267.4437 C185.3359,267.8594 184.8766,268.1328 184.3187,268.1328 C183.1484,268.1328 182.3391,267.2031 182.3391,265.6062 C182.3391,264.0531 183.1484,263.1125 184.2422,263.1125 C184.8109,263.1125 185.2266,263.3312 185.5984,263.6703 L186.5609,262.5875 C186.0359,262.0734 185.2266,261.6031 184.2422,261.6031 C182.175,261.6031 180.5453,263.1016 180.5453,265.6719 C180.5453,268.275 182.2078,269.6422 184.1328,269.6422 Z " fill="#000000"/><text fill="#000000" font-family="sans-serif" font-size="9.8" lengthAdjust="spacing" textLength="44.1" x="193.9" y="268.6496">Point (0D)</text><line style="stroke:#181818;stroke-width:0.3499999999999999;" x1="174.3" x2="239.4" y1="276.5" y2="276.5"/><line style="stroke:#181818;stroke-width:0.3499999999999999;" x1="174.3" x2="239.4" y1="282.1" y2="282.1"/></g><!--class SinglePoint--><g id="elem_SinglePoint"><rect codeLine="41" fill="#F1F1F1" height="33.6" id="SinglePoint" rx="1.75" ry="1.75" style="stroke:#181818;stroke-width:0.3499999999999999;" width="71.4" x="55.65" y="341.25"/><ellipse cx="66.15" cy="352.45" fill="#ADD1B2" rx="7.7" ry="7.7" style="stroke:#181818;stroke-width:0.6999999999999998;"/><path d="M66.1828,356.7922 C67.2328,356.7922 68.0969,356.3984 68.7312,355.6547 L67.7687,354.5937 C67.3859,355.0094 66.9266,355.2828 66.3687,355.2828 C65.1984,355.2828 64.3891,354.3531 64.3891,352.7562 C64.3891,351.2031 65.1984,350.2625 66.2922,350.2625 C66.8609,350.2625 67.2766,350.4812 67.6484,350.8203 L68.6109,349.7375 C68.0859,349.2234 67.2766,348.7531 66.2922,348.7531 C64.225,348.7531 62.5953,350.2516 62.5953,352.8219 C62.5953,355.425 64.2578,356.7922 66.1828,356.7922 Z " fill="#000000"/><text fill="#000000" font-family="sans-serif" font-size="9.8" lengthAdjust="spacing" textLength="49" x="75.95" y="355.7996">SinglePoint</text><line style="stroke:#181818;stroke-width:0.3499999999999999;" x1="56.35" x2="126.35" y1="363.65" y2="363.65"/><line style="stroke:#181818;stroke-width:0.3499999999999999;" x1="56.35" x2="126.35" y1="369.25" y2="369.25"/></g><!--class SinglePointNormalized--><g id="elem_SinglePointNormalized"><rect codeLine="43" fill="#F1F1F1" height="56.5687" id="SinglePointNormalized" rx="1.75" ry="1.75" style="stroke:#181818;stroke-width:0.3499999999999999;" width="121.1" x="4.9" y="428.4"/><ellipse cx="15.4" cy="439.6" fill="#ADD1B2" rx="7.7" ry="7.7" style="stroke:#181818;stroke-width:0.6999999999999998;"/><path d="M15.4328,443.9422 C16.4828,443.9422 17.3469,443.5484 17.9812,442.8047 L17.0187,441.7437 C16.6359,442.1594 16.1766,442.4328 15.6187,442.4328 C14.4484,442.4328 13.6391,441.5031 13.6391,439.9062 C13.6391,438.3531 14.4484,437.4125 15.5422,437.4125 C16.1109,437.4125 16.5266,437.6312 16.8984,437.9703 L17.8609,436.8875 C17.3359,436.3734 16.5266,435.9031 15.5422,435.9031 C13.475,435.9031 11.8453,437.4016 11.8453,439.9719 C11.8453,442.575 13.5078,443.9422 15.4328,443.9422 Z " fill="#000000"/><text fill="#000000" font-family="sans-serif" font-size="9.8" lengthAdjust="spacing" textLength="98.7" x="25.2" y="442.9496">SinglePointNormalized</text><line style="stroke:#181818;stroke-width:0.3499999999999999;" x1="5.6" x2="125.3" y1="450.8" y2="450.8"/><text fill="#000000" font-family="sans-serif" font-size="9.8" lengthAdjust="spacing" textLength="80.5" x="9.1" y="462.6918">normalized_values</text><text fill="#000000" font-family="sans-serif" font-size="9.8" lengthAdjust="spacing" textLength="83.3" x="9.1" y="474.1762">normalizing_values</text><line style="stroke:#181818;stroke-width:0.3499999999999999;" x1="5.6" x2="125.3" y1="479.3687" y2="479.3687"/></g><!--class Average--><g id="elem_Average"><rect codeLine="48" fill="#F1F1F1" height="56.5687" id="Average" rx="1.75" ry="1.75" style="stroke:#181818;stroke-width:0.3499999999999999;" width="58.1" x="177.8" y="329.7"/><ellipse cx="188.3" cy="340.9" fill="#ADD1B2" rx="7.7" ry="7.7" style="stroke:#181818;stroke-width:0.6999999999999998;"/><path d="M188.3328,345.2422 C189.3828,345.2422 190.2469,344.8484 190.8812,344.1047 L189.9187,343.0437 C189.5359,343.4594 189.0766,343.7328 188.5187,343.7328 C187.3484,343.7328 186.5391,342.8031 186.5391,341.2062 C186.5391,339.6531 187.3484,338.7125 188.4422,338.7125 C189.0109,338.7125 189.4266,338.9312 189.7984,339.2703 L190.7609,338.1875 C190.2359,337.6734 189.4266,337.2031 188.4422,337.2031 C186.375,337.2031 184.7453,338.7016 184.7453,341.2719 C184.7453,343.875 186.4078,345.2422 188.3328,345.2422 Z " fill="#000000"/><text fill="#000000" font-family="sans-serif" font-size="9.8" lengthAdjust="spacing" textLength="35.7" x="198.1" y="344.2496">Average</text><line style="stroke:#181818;stroke-width:0.3499999999999999;" x1="178.5" x2="235.2" y1="352.1" y2="352.1"/><text fill="#000000" font-family="sans-serif" font-size="9.8" lengthAdjust="spacing" textLength="49" x="182" y="363.9918">raw_values</text><text fill="#000000" font-family="sans-serif" font-size="9.8" lengthAdjust="spacing" textLength="39.9" x="182" y="375.4762">attempts</text><line style="stroke:#181818;stroke-width:0.3499999999999999;" x1="178.5" x2="235.2" y1="380.6687" y2="380.6687"/></g><!--class AverageNormalized--><g id="elem_AverageNormalized"><rect codeLine="53" fill="#F1F1F1" height="56.5687" id="AverageNormalized" rx="1.75" ry="1.75" style="stroke:#181818;stroke-width:0.3499999999999999;" width="112.7" x="150.5" y="428.4"/><ellipse cx="163.205" cy="439.6" fill="#ADD1B2" rx="7.7" ry="7.7" style="stroke:#181818;stroke-width:0.6999999999999998;"/><path d="M163.2378,443.9422 C164.2878,443.9422 165.1519,443.5484 165.7862,442.8047 L164.8237,441.7437 C164.4409,442.1594 163.9816,442.4328 163.4237,442.4328 C162.2534,442.4328 161.4441,441.5031 161.4441,439.9062 C161.4441,438.3531 162.2534,437.4125 163.3472,437.4125 C163.9159,437.4125 164.3316,437.6312 164.7034,437.9703 L165.6659,436.8875 C165.1409,436.3734 164.3316,435.9031 163.3472,435.9031 C161.28,435.9031 159.6503,437.4016 159.6503,439.9719 C159.6503,442.575 161.3128,443.9422 163.2378,443.9422 Z " fill="#000000"/><text fill="#000000" font-family="sans-serif" font-size="9.8" lengthAdjust="spacing" textLength="85.4" x="173.495" y="442.9496">AverageNormalized</text><line style="stroke:#181818;stroke-width:0.3499999999999999;" x1="151.2" x2="262.5" y1="450.8" y2="450.8"/><text fill="#000000" font-family="sans-serif" font-size="9.8" lengthAdjust="spacing" textLength="101.5" x="154.7" y="462.6918">normalized_raw_values</text><text fill="#000000" font-family="sans-serif" font-size="9.8" lengthAdjust="spacing" textLength="104.3" x="154.7" y="474.1762">normalizing_raw_values</text><line style="stroke:#181818;stroke-width:0.3499999999999999;" x1="151.2" x2="262.5" y1="479.3687" y2="479.3687"/></g><!--class Interval--><g id="elem_Interval"><rect codeLine="58" fill="#F1F1F1" height="56.5687" id="Interval" rx="1.75" ry="1.75" style="stroke:#181818;stroke-width:0.3499999999999999;" width="57.4" x="288.05" y="329.7"/><ellipse cx="299.495" cy="340.9" fill="#ADD1B2" rx="7.7" ry="7.7" style="stroke:#181818;stroke-width:0.6999999999999998;"/><path d="M299.5278,345.2422 C300.5778,345.2422 301.4419,344.8484 302.0762,344.1047 L301.1137,343.0437 C300.7309,343.4594 300.2716,343.7328 299.7137,343.7328 C298.5434,343.7328 297.7341,342.8031 297.7341,341.2062 C297.7341,339.6531 298.5434,338.7125 299.6372,338.7125 C300.2059,338.7125 300.6216,338.9312 300.9934,339.2703 L301.9559,338.1875 C301.4309,337.6734 300.6216,337.2031 299.6372,337.2031 C297.57,337.2031 295.9403,338.7016 295.9403,341.2719 C295.9403,343.875 297.6028,345.2422 299.5278,345.2422 Z " fill="#000000"/><text fill="#000000" font-family="sans-serif" font-size="9.8" lengthAdjust="spacing" textLength="32.9" x="309.505" y="344.2496">Interval</text><line style="stroke:#181818;stroke-width:0.3499999999999999;" x1="288.75" x2="344.75" y1="352.1" y2="352.1"/><text fill="#000000" font-family="sans-serif" font-size="9.8" lengthAdjust="spacing" textLength="49" x="292.25" y="363.9918">raw_values</text><text fill="#000000" font-family="sans-serif" font-size="9.8" lengthAdjust="spacing" textLength="30.1" x="292.25" y="375.4762">counts</text><line style="stroke:#181818;stroke-width:0.3499999999999999;" x1="288.75" x2="344.75" y1="380.6687" y2="380.6687"/></g><!--class IntervalNormalized--><g id="elem_IntervalNormalized"><rect codeLine="63" fill="#F1F1F1" height="56.5687" id="IntervalNormalized" rx="1.75" ry="1.75" style="stroke:#181818;stroke-width:0.3499999999999999;" width="112.7" x="287.7" y="428.4"/><ellipse cx="301.665" cy="439.6" fill="#ADD1B2" rx="7.7" ry="7.7" style="stroke:#181818;stroke-width:0.6999999999999998;"/><path d="M301.6978,443.9422 C302.7478,443.9422 303.6119,443.5484 304.2462,442.8047 L303.2837,441.7437 C302.9009,442.1594 302.4416,442.4328 301.8837,442.4328 C300.7134,442.4328 299.9041,441.5031 299.9041,439.9062 C299.9041,438.3531 300.7134,437.4125 301.8072,437.4125 C302.3759,437.4125 302.7916,437.6312 303.1634,437.9703 L304.1259,436.8875 C303.6009,436.3734 302.7916,435.9031 301.8072,435.9031 C299.74,435.9031 298.1103,437.4016 298.1103,439.9719 C298.1103,442.575 299.7728,443.9422 301.6978,443.9422 Z " fill="#000000"/><text fill="#000000" font-family="sans-serif" font-size="9.8" lengthAdjust="spacing" textLength="82.6" x="312.235" y="442.9496">IntervalNormalized</text><line style="stroke:#181818;stroke-width:0.3499999999999999;" x1="288.4" x2="399.7" y1="450.8" y2="450.8"/><text fill="#000000" font-family="sans-serif" font-size="9.8" lengthAdjust="spacing" textLength="101.5" x="291.9" y="462.6918">normalized_raw_values</text><text fill="#000000" font-family="sans-serif" font-size="9.8" lengthAdjust="spacing" textLength="104.3" x="291.9" y="474.1762">normalizing_raw_values</text><line style="stroke:#181818;stroke-width:0.3499999999999999;" x1="288.4" x2="399.7" y1="479.3687" y2="479.3687"/></g><g id="elem_NormalizeNote"><path d="M104.65,527.1 L104.65,599.6337 L309.05,599.6337 L309.05,534.1 L302.05,527.1 L104.65,527.1 " fill="#FEFFDD" style="stroke:#181818;stroke-width:0.3499999999999999;"/><path d="M302.05,527.1 L302.05,534.1 L309.05,534.1 L302.05,527.1 " fill="#FEFFDD" style="stroke:#181818;stroke-width:0.6999999999999998;"/><text fill="#000000" font-family="sans-serif" font-size="9.1" lengthAdjust="spacing" textLength="155.4" x="108.85" y="539.0424">Normalized data store additionally both,</text><text fill="#000000" font-family="sans-serif" font-size="9.1" lengthAdjust="spacing" textLength="167.3" x="108.85" y="549.7064">the normalized and the normalizing values.</text><text fill="#000000" font-family="sans-serif" font-size="9.1" lengthAdjust="spacing" textLength="2.1" x="108.85" y="560.3705">&#160;</text><text fill="#000000" font-family="sans-serif" font-size="9.1" lengthAdjust="spacing" textLength="12.6" x="108.85" y="571.8092">For</text><text fill="#000000" font-family="monospace" font-size="9.1" lengthAdjust="spacing" textLength="39.2" x="123.55" y="571.5466">Average</text><text fill="#000000" font-family="sans-serif" font-size="9.1" lengthAdjust="spacing" textLength="14.7" x="164.85" y="571.8092">and</text><text fill="#000000" font-family="monospace" font-size="9.1" lengthAdjust="spacing" textLength="44.8" x="181.65" y="571.5466">Interval</text><text fill="#000000" font-family="sans-serif" font-size="9.1" lengthAdjust="spacing" textLength="72.1" x="226.45" y="571.8092">, probably both are</text><text fill="#000000" font-family="sans-serif" font-size="9.1" lengthAdjust="spacing" textLength="171.5" x="108.85" y="582.4733">vectors of the same length as the individual</text><text fill="#000000" font-family="monospace" font-size="9.1" lengthAdjust="spacing" textLength="56" x="108.85" y="593.6494">raw_values</text><text fill="#000000" font-family="sans-serif" font-size="9.1" lengthAdjust="spacing" textLength="74.9" x="166.95" y="593.912">vector per position.</text></g><!--class Array (1D)--><g id="elem_Array (1D)"><rect codeLine="81" fill="#F1F1F1" height="33.6" id="Array (1D)" rx="1.75" ry="1.75" style="stroke:#181818;stroke-width:0.3499999999999999;" width="67.2" x="264.95" y="254.1"/><ellipse cx="275.45" cy="265.3" fill="#ADD1B2" rx="7.7" ry="7.7" style="stroke:#181818;stroke-width:0.6999999999999998;"/><path d="M275.4828,269.6422 C276.5328,269.6422 277.3969,269.2484 278.0312,268.5047 L277.0687,267.4437 C276.6859,267.8594 276.2266,268.1328 275.6687,268.1328 C274.4984,268.1328 273.6891,267.2031 273.6891,265.6062 C273.6891,264.0531 274.4984,263.1125 275.5922,263.1125 C276.1609,263.1125 276.5766,263.3312 276.9484,263.6703 L277.9109,262.5875 C277.3859,262.0734 276.5766,261.6031 275.5922,261.6031 C273.525,261.6031 271.8953,263.1016 271.8953,265.6719 C271.8953,268.275 273.5578,269.6422 275.4828,269.6422 Z " fill="#000000"/><text fill="#000000" font-family="sans-serif" font-size="9.8" lengthAdjust="spacing" textLength="44.8" x="285.25" y="268.6496">Array (1D)</text><line style="stroke:#181818;stroke-width:0.3499999999999999;" x1="265.65" x2="331.45" y1="276.5" y2="276.5"/><line style="stroke:#181818;stroke-width:0.3499999999999999;" x1="265.65" x2="331.45" y1="282.1" y2="282.1"/></g><!--class Area (2D)--><g id="elem_Area (2D)"><rect codeLine="83" fill="#F1F1F1" height="33.6" id="Area (2D)" rx="1.75" ry="1.75" style="stroke:#181818;stroke-width:0.3499999999999999;" width="63.7" x="357" y="254.1"/><ellipse cx="367.5" cy="265.3" fill="#ADD1B2" rx="7.7" ry="7.7" style="stroke:#181818;stroke-width:0.6999999999999998;"/><path d="M367.5328,269.6422 C368.5828,269.6422 369.4469,269.2484 370.0812,268.5047 L369.1187,267.4437 C368.7359,267.8594 368.2766,268.1328 367.7187,268.1328 C366.5484,268.1328 365.7391,267.2031 365.7391,265.6062 C365.7391,264.0531 366.5484,263.1125 367.6422,263.1125 C368.2109,263.1125 368.6266,263.3312 368.9984,263.6703 L369.9609,262.5875 C369.4359,262.0734 368.6266,261.6031 367.6422,261.6031 C365.575,261.6031 363.9453,263.1016 363.9453,265.6719 C363.9453,268.275 365.6078,269.6422 367.5328,269.6422 Z " fill="#000000"/><text fill="#000000" font-family="sans-serif" font-size="9.8" lengthAdjust="spacing" textLength="41.3" x="377.3" y="268.6496">Area (2D)</text><line style="stroke:#181818;stroke-width:0.3499999999999999;" x1="357.7" x2="420" y1="276.5" y2="276.5"/><line style="stroke:#181818;stroke-width:0.3499999999999999;" x1="357.7" x2="420" y1="282.1" y2="282.1"/></g><!--reverse link Data to MeasureData--><g id="link_Data_MeasureData"><path d="M293.5119,60.5422 C285.7139,73.3942 282.422,78.827 274.631,91.672 " fill="none" id="Data-backto-MeasureData" style="stroke:#181818;stroke-width:0.6999999999999998;"/><polygon fill="none" points="300.048,49.77,289.9212,58.3635,297.1027,62.7209,300.048,49.77" style="stroke:#181818;stroke-width:0.6999999999999998;"/></g><!--reverse link Data to MonitorData--><g id="link_Data_MonitorData"><path d="M333.2298,60.5057 C341.1258,73.3577 344.498,78.827 352.394,91.672 " fill="none" id="Data-backto-MonitorData" style="stroke:#181818;stroke-width:0.6999999999999998;"/><polygon fill="none" points="326.634,49.77,329.6512,62.7043,336.8084,58.3071,326.634,49.77" style="stroke:#181818;stroke-width:0.6999999999999998;"/></g><!--reverse link MeasureData to Axis--><g id="link_MeasureData_Axis"><path d="M246.0012,148.0302 C239.8622,161.2322 237.482,166.355 231.889,178.388 " fill="none" id="MeasureData-backto-Axis" style="stroke:#181818;stroke-width:0.6999999999999998;"/><polygon fill="none" points="251.314,136.605,242.1928,146.2592,249.8096,149.8011,251.314,136.605" style="stroke:#181818;stroke-width:0.6999999999999998;"/></g><!--reverse link MeasureData to Channel--><g id="link_MeasureData_Channel"><path d="M276.8988,148.0302 C283.0378,161.2322 285.418,166.355 291.011,178.388 " fill="none" id="MeasureData-backto-Channel" style="stroke:#181818;stroke-width:0.6999999999999998;"/><polygon fill="none" points="271.586,136.605,273.0904,149.8011,280.7072,146.2592,271.586,136.605" style="stroke:#181818;stroke-width:0.6999999999999998;"/></g><!--reverse link Channel to Point (0D)--><g id="link_Channel_Point (0D)"><path d="M268.8549,220.0269 C253.5809,232.3889 242.368,241.458 227.024,253.876 " fill="none" id="Channel-backto-Point (0D)" style="stroke:#181818;stroke-width:0.6999999999999998;"/><polygon fill="none" points="278.649,212.1,266.2126,216.7622,271.4972,223.2916,278.649,212.1" style="stroke:#181818;stroke-width:0.6999999999999998;"/></g><!--reverse link Point (0D) to SinglePoint--><g id="link_Point (0D)_SinglePoint"><path d="M175.0058,295.2395 C154.4258,310.5205 133.791,325.843 113.176,341.145 " fill="none" id="Point (0D)-backto-SinglePoint" style="stroke:#181818;stroke-width:0.6999999999999998;"/><polygon fill="none" points="185.122,287.728,172.502,291.8674,177.5096,298.6115,185.122,287.728" style="stroke:#181818;stroke-width:0.6999999999999998;"/></g><!--reverse link SinglePoint to SinglePointNormalized--><g id="link_SinglePoint_SinglePointNormalized"><path d="M83.7719,387.214 C79.9079,401.711 77.427,411.054 72.842,428.267 " fill="none" id="SinglePoint-backto-SinglePointNormalized" style="stroke:#181818;stroke-width:0.6999999999999998;"/><polygon fill="none" points="87.017,375.039,79.7136,386.1323,87.8302,388.2956,87.017,375.039" style="stroke:#181818;stroke-width:0.6999999999999998;"/></g><!--reverse link Point (0D) to Average--><g id="link_Point (0D)_Average"><path d="M206.85,300.328 C206.85,312.067 206.85,315.665 206.85,329.483 " fill="none" id="Point (0D)-backto-Average" style="stroke:#181818;stroke-width:0.6999999999999998;"/><polygon fill="none" points="206.85,287.728,202.65,300.328,211.05,300.328,206.85,287.728" style="stroke:#181818;stroke-width:0.6999999999999998;"/></g><!--reverse link Average to AverageNormalized--><g id="link_Average_AverageNormalized"><path d="M206.85,399.231 C206.85,412.258 206.85,415.135 206.85,428.162 " fill="none" id="Average-backto-AverageNormalized" style="stroke:#181818;stroke-width:0.6999999999999998;"/><polygon fill="none" points="206.85,386.631,202.65,399.231,211.05,399.231,206.85,386.631" style="stroke:#181818;stroke-width:0.6999999999999998;"/></g><!--reverse link Point (0D) to Interval--><g id="link_Point (0D)_Interval"><path d="M237.4552,295.4786 C254.4932,308.7716 268.912,320.026 287.875,334.824 " fill="none" id="Point (0D)-backto-Interval" style="stroke:#181818;stroke-width:0.6999999999999998;"/><polygon fill="none" points="227.521,287.728,234.8716,298.79,240.0387,292.1672,227.521,287.728" style="stroke:#181818;stroke-width:0.6999999999999998;"/></g><!--reverse link Interval to IntervalNormalized--><g id="link_Interval_IntervalNormalized"><path d="M327.9789,398.7628 C331.6329,411.7898 332.57,415.135 336.224,428.162 " fill="none" id="Interval-backto-IntervalNormalized" style="stroke:#181818;stroke-width:0.6999999999999998;"/><polygon fill="none" points="324.576,386.631,323.935,399.8971,332.0228,397.6285,324.576,386.631" style="stroke:#181818;stroke-width:0.6999999999999998;"/></g><!--link SinglePointNormalized to NormalizeNote--><g id="link_SinglePointNormalized_NormalizeNote"><path codeLine="77" d="M102.599,485.128 C119.784,497.931 140.413,513.296 158.76,526.974 " fill="none" id="SinglePointNormalized-NormalizeNote" style="stroke:#181818;stroke-width:0.6999999999999998;stroke-dasharray:7.0,7.0;"/></g><!--link AverageNormalized to NormalizeNote--><g id="link_AverageNormalized_NormalizeNote"><path codeLine="78" d="M206.85,485.128 C206.85,497.931 206.85,513.296 206.85,526.974 " fill="none" id="AverageNormalized-NormalizeNote" style="stroke:#181818;stroke-width:0.6999999999999998;stroke-dasharray:7.0,7.0;"/></g><!--link IntervalNormalized to NormalizeNote--><g id="link_IntervalNormalized_NormalizeNote"><path codeLine="79" d="M308,485.128 C291.326,497.931 271.32,513.296 253.512,526.974 " fill="none" id="IntervalNormalized-NormalizeNote" style="stroke:#181818;stroke-width:0.6999999999999998;stroke-dasharray:7.0,7.0;"/></g><!--reverse link Channel to Array (1D)--><g id="link_Channel_Array (1D)"><path d="M298.55,224.7 C298.55,237.062 298.55,241.458 298.55,253.876 " fill="none" id="Channel-backto-Array (1D)" style="stroke:#181818;stroke-width:0.6999999999999998;"/><polygon fill="none" points="298.55,212.1,294.35,224.7,302.75,224.7,298.55,212.1" style="stroke:#181818;stroke-width:0.6999999999999998;"/></g><!--reverse link Channel to Area (2D)--><g id="link_Channel_Area (2D)"><path d="M327.8777,220.0997 C342.9207,232.4617 353.871,241.458 368.984,253.876 " fill="none" id="Channel-backto-Area (2D)" style="stroke:#181818;stroke-width:0.6999999999999998;"/><polygon fill="none" points="318.143,212.1,325.2111,223.3446,330.5443,216.8549,318.143,212.1" style="stroke:#181818;stroke-width:0.6999999999999998;"/></g><!--SRC=[dLJ1Rfmm4Btp5IDVkfLITfjZRwkk8kNGg5AbNgC19c39sCWscz1L_xss0SUxi4bRRepVlFV6lE53OsrdlcotdK1f-rRafMgtfK1ZFbKSQurjbeLNEA15E6NWdYEAdapsUpxwHcXwJG51BvPaTGRlbE6MAnawfB84WfuigAUqCI1_1c90JO3Y6GS3icz9y_8c71UzXH8b50IxGvxdjmVeI4V-F7FAu0MYCIMvLVgQiPOBmGsLojMZDythPZJtsfoQ6ms4YWEX7C0E7Isrzo_SHD7qXawNj-2Hw-E7wkwzARysA2M9jyNYM1FwoaX_Tw_ik-BImcPt-CYYx6pZ57FnWyjQq8YTKMUjgz07fLiK_1TLiIab6Z-TZA37AOrfrS4VBqEwFvB6cguO2UqQdrCsj9RQpYuvLXpEx0jt5vofm-GeAjnBIzeL_y5cgNffLoXMN4Rs_xSPmeG68lk3puNlIVGg7ptZbiT1gog428KOe52s6LVPDfJ8kpMgpafET_hBv5d0toaDZ4stp5XeO6oUXx4RwBGgi9X4_0wDloegdGtZW-_v3RP-xsJj8IQKkApuaLSzZYl1sEkyJcVilxeEwx7DyulhMUPc0LdvQWlCl7rxhN60pUUtjy_1265pkuxw0m00]--></g></svg>