<?xml version="1.0" encoding="us-ascii" standalone="no"?><svg xmlns="http://www.w3.org/2000/svg" xmlns:xlink="http://www.w3.org/1999/xlink" contentStyleType="text/css" height="352px" preserveAspectRatio="none" style="width:373px;height:352px;background:#FFFFFF;" version="1.1" viewBox="0 0 373 352" width="373px" zoomAndPan="magnify"><defs/><g><!--class File--><g id="elem_File"><rect codeLine="2" fill="#F1F1F1" height="130.0313" id="File" rx="2.5" ry="2.5" style="stroke:#181818;stroke-width:0.5;" width="113" x="129.5" y="7"/><ellipse cx="171.5" cy="23" fill="#ADD1B2" rx="11" ry="11" style="stroke:#181818;stroke-width:1.0;"/><path d="M171.5469,29.2031 C173.0469,29.2031 174.2813,28.6406 175.1875,27.5781 L173.8125,26.0625 C173.2656,26.6563 172.6094,27.0469 171.8125,27.0469 C170.1406,27.0469 168.9844,25.7188 168.9844,23.4375 C168.9844,21.2188 170.1406,19.875 171.7031,19.875 C172.5156,19.875 173.1094,20.1875 173.6406,20.6719 L175.0156,19.125 C174.2656,18.3906 173.1094,17.7188 171.7031,17.7188 C168.75,17.7188 166.4219,19.8594 166.4219,23.5313 C166.4219,27.25 168.7969,29.2031 171.5469,29.2031 Z " fill="#000000"/><text fill="#000000" font-family="sans-serif" font-size="14" lengthAdjust="spacing" textLength="21" x="191.5" y="27.7852">File</text><line style="stroke:#181818;stroke-width:0.5;" x1="130.5" x2="241.5" y1="39" y2="39"/><text fill="#000000" font-family="sans-serif" font-size="14" lengthAdjust="spacing" textLength="95" x="135.5" y="55.9883">location : string</text><text fill="#000000" font-family="sans-serif" font-size="14" lengthAdjust="spacing" textLength="90" x="135.5" y="72.3945">version : string</text><text fill="#000000" font-family="sans-serif" font-size="14" lengthAdjust="spacing" textLength="70" x="135.5" y="88.8008">scan : Scan</text><text fill="#000000" font-family="sans-serif" font-size="14" lengthAdjust="spacing" textLength="80" x="135.5" y="105.207">setup : Setup</text><text fill="#000000" font-family="sans-serif" font-size="14" lengthAdjust="spacing" textLength="101" x="135.5" y="121.6133">plugins : Plugin[]</text><line style="stroke:#181818;stroke-width:0.5;" x1="130.5" x2="241.5" y1="129.0313" y2="129.0313"/></g><!--class Scan--><g id="elem_Scan"><rect fill="#F1F1F1" height="48" id="Scan" rx="2.5" ry="2.5" style="stroke:#181818;stroke-width:0.5;" width="63" x="38.5" y="197"/><ellipse cx="53.5" cy="213" fill="#ADD1B2" rx="11" ry="11" style="stroke:#181818;stroke-width:1.0;"/><path d="M53.5469,219.2031 C55.0469,219.2031 56.2813,218.6406 57.1875,217.5781 L55.8125,216.0625 C55.2656,216.6563 54.6094,217.0469 53.8125,217.0469 C52.1406,217.0469 50.9844,215.7188 50.9844,213.4375 C50.9844,211.2188 52.1406,209.875 53.7031,209.875 C54.5156,209.875 55.1094,210.1875 55.6406,210.6719 L57.0156,209.125 C56.2656,208.3906 55.1094,207.7188 53.7031,207.7188 C50.75,207.7188 48.4219,209.8594 48.4219,213.5313 C48.4219,217.25 50.7969,219.2031 53.5469,219.2031 Z " fill="#000000"/><text fill="#000000" font-family="sans-serif" font-size="14" lengthAdjust="spacing" textLength="31" x="67.5" y="217.7852">Scan</text><line style="stroke:#181818;stroke-width:0.5;" x1="39.5" x2="100.5" y1="229" y2="229"/><line style="stroke:#181818;stroke-width:0.5;" x1="39.5" x2="100.5" y1="237" y2="237"/></g><!--class Setup--><g id="elem_Setup"><rect fill="#F1F1F1" height="48" id="Setup" rx="2.5" ry="2.5" style="stroke:#181818;stroke-width:0.5;" width="68" x="152" y="197"/><ellipse cx="167" cy="213" fill="#ADD1B2" rx="11" ry="11" style="stroke:#181818;stroke-width:1.0;"/><path d="M167.0469,219.2031 C168.5469,219.2031 169.7813,218.6406 170.6875,217.5781 L169.3125,216.0625 C168.7656,216.6563 168.1094,217.0469 167.3125,217.0469 C165.6406,217.0469 164.4844,215.7188 164.4844,213.4375 C164.4844,211.2188 165.6406,209.875 167.2031,209.875 C168.0156,209.875 168.6094,210.1875 169.1406,210.6719 L170.5156,209.125 C169.7656,208.3906 168.6094,207.7188 167.2031,207.7188 C164.25,207.7188 161.9219,209.8594 161.9219,213.5313 C161.9219,217.25 164.2969,219.2031 167.0469,219.2031 Z " fill="#000000"/><text fill="#000000" font-family="sans-serif" font-size="14" lengthAdjust="spacing" textLength="36" x="181" y="217.7852">Setup</text><line style="stroke:#181818;stroke-width:0.5;" x1="153" x2="219" y1="229" y2="229"/><line style="stroke:#181818;stroke-width:0.5;" x1="153" x2="219" y1="237" y2="237"/></g><!--class Plugin--><g id="elem_Plugin"><rect fill="#F1F1F1" height="48" id="Plugin" rx="2.5" ry="2.5" style="stroke:#181818;stroke-width:0.5;" width="71" x="268.5" y="197"/><ellipse cx="283.5" cy="213" fill="#ADD1B2" rx="11" ry="11" style="stroke:#181818;stroke-width:1.0;"/><path d="M283.5469,219.2031 C285.0469,219.2031 286.2813,218.6406 287.1875,217.5781 L285.8125,216.0625 C285.2656,216.6563 284.6094,217.0469 283.8125,217.0469 C282.1406,217.0469 280.9844,215.7188 280.9844,213.4375 C280.9844,211.2188 282.1406,209.875 283.7031,209.875 C284.5156,209.875 285.1094,210.1875 285.6406,210.6719 L287.0156,209.125 C286.2656,208.3906 285.1094,207.7188 283.7031,207.7188 C280.75,207.7188 278.4219,209.8594 278.4219,213.5313 C278.4219,217.25 280.7969,219.2031 283.5469,219.2031 Z " fill="#000000"/><text fill="#000000" font-family="sans-serif" font-size="14" lengthAdjust="spacing" textLength="39" x="297.5" y="217.7852">Plugin</text><line style="stroke:#181818;stroke-width:0.5;" x1="269.5" x2="338.5" y1="229" y2="229"/><line style="stroke:#181818;stroke-width:0.5;" x1="269.5" x2="338.5" y1="237" y2="237"/></g><g id="elem_GMN9"><path d="M6,305 L6,345.4688 A0,0 0 0 0 6,345.4688 L102,345.4688 A0,0 0 0 0 102,345.4688 L102,315 L92,305 L61.03,305 L66.37,245.15 L53.03,305 L6,305 A0,0 0 0 0 6,305 " fill="#FEFFDD" style="stroke:#181818;stroke-width:0.5;"/><path d="M92,305 L92,315 L102,315 L92,305 " fill="#FEFFDD" style="stroke:#181818;stroke-width:0.5;"/><text fill="#000000" font-family="sans-serif" font-size="13" lengthAdjust="spacing" textLength="75" x="12" y="322.0605">See separate</text><text fill="#000000" font-family="sans-serif" font-size="13" lengthAdjust="spacing" textLength="73" x="12" y="337.2949">scan module</text></g><g id="elem_GMN12"><path d="M137,305 L137,345.4688 A0,0 0 0 0 137,345.4688 L235,345.4688 A0,0 0 0 0 235,345.4688 L235,315 L225,305 L190,305 L186,245.15 L182,305 L137,305 A0,0 0 0 0 137,305 " fill="#FEFFDD" style="stroke:#181818;stroke-width:0.5;"/><path d="M225,305 L225,315 L235,315 L225,305 " fill="#FEFFDD" style="stroke:#181818;stroke-width:0.5;"/><text fill="#000000" font-family="sans-serif" font-size="13" lengthAdjust="spacing" textLength="75" x="143" y="322.0605">See separate</text><text fill="#000000" font-family="sans-serif" font-size="13" lengthAdjust="spacing" textLength="77" x="143" y="337.2949">setup module</text></g><g id="elem_GMN15"><path d="M270,305 L270,345.4688 A0,0 0 0 0 270,345.4688 L366,345.4688 A0,0 0 0 0 366,345.4688 L366,315 L356,305 L319.35,305 L307.18,245.15 L311.35,305 L270,305 A0,0 0 0 0 270,305 " fill="#FEFFDD" style="stroke:#181818;stroke-width:0.5;"/><path d="M356,305 L356,315 L366,315 L356,305 " fill="#FEFFDD" style="stroke:#181818;stroke-width:0.5;"/><text fill="#000000" font-family="sans-serif" font-size="13" lengthAdjust="spacing" textLength="75" x="276" y="322.0605">See separate</text><text fill="#000000" font-family="sans-serif" font-size="13" lengthAdjust="spacing" textLength="46" x="276" y="337.2949">diagram</text></g><!--reverse link File to Scan--><g id="link_File_Scan"><path codeLine="9" d="M128.0257,146.4697 C111.1757,167.8197 100.9,180.84 88.16,196.99 " fill="none" id="File-backto-Scan" style="stroke:#181818;stroke-width:1.0;"/><polygon fill="#181818" points="135.46,137.05,128.6029,139.2818,128.0257,146.4697,134.8828,144.238,135.46,137.05" style="stroke:#181818;stroke-width:1.0;"/></g><!--reverse link File to Setup--><g id="link_File_Setup"><path codeLine="10" d="M186,149.05 C186,170.4 186,180.84 186,196.99 " fill="none" id="File-backto-Setup" style="stroke:#181818;stroke-width:1.0;"/><polygon fill="#181818" points="186,137.05,182,143.05,186,149.05,190,143.05,186,137.05" style="stroke:#181818;stroke-width:1.0;"/></g><!--reverse link File to Plugin--><g id="link_File_Plugin"><path codeLine="11" d="M244.9224,146.4076 C262.0624,167.7576 272.56,180.84 285.53,196.99 " fill="none" id="File-backto-Plugin" style="stroke:#181818;stroke-width:1.0;"/><polygon fill="#181818" points="237.41,137.05,238.047,144.2329,244.9224,146.4076,244.2854,139.2247,237.41,137.05" style="stroke:#181818;stroke-width:1.0;"/><text fill="#000000" font-family="sans-serif" font-size="13" lengthAdjust="spacing" textLength="7" x="272.9002" y="186.0061">n</text></g><!--SRC=[TOun3i8m34LtdyBgYDGBS01c94PWCAsf8gLnb3Wig7SdSH58L6Hn_bDUlWTFEUF1USOdO3rU1b8d0VUODRam6NrmoXkO1shaLCUQMKjie4qZqPV9XLpPqMxdAonWPRk-NyLlCkiJkz2z9O0WodWJLPbHxkQr5gwDaH8fNuBjCijOF6_VjvytWYtxnrYBVvNHqPHeXXS0]--></g></svg>