<?xml version="1.0" encoding="us-ascii" standalone="no"?><svg xmlns="http://www.w3.org/2000/svg" xmlns:xlink="http://www.w3.org/1999/xlink" contentStyleType="text/css" height="1067px" preserveAspectRatio="none" style="width:2011px;height:1067px;background:#FFFFFF;" version="1.1" viewBox="0 0 2011 1067" width="2011px" zoomAndPan="magnify"><defs/><g><!--class Data--><g id="elem_Data"><rect codeLine="3" fill="#F1F1F1" height="129.4844" id="Data" rx="2.5" ry="2.5" style="stroke:#181818;stroke-width:0.5;" width="190" x="1051.5" y="27"/><ellipse cx="1125.25" cy="43" fill="#ADD1B2" rx="11" ry="11" style="stroke:#181818;stroke-width:1.0;"/><path d="M1128.2344,48.6406 Q1127.6563,48.9375 1127.0156,49.0781 Q1126.375,49.2344 1125.6719,49.2344 Q1123.1563,49.2344 1121.8281,47.5938 Q1120.5156,45.9375 1120.5156,42.8125 Q1120.5156,39.6719 1121.8281,38.0313 Q1123.1563,36.375 1125.6719,36.375 Q1126.375,36.375 1127.0156,36.5313 Q1127.6719,36.6719 1128.2344,36.9688 L1128.2344,39.6875 Q1127.5938,39.1094 1127,38.8438 Q1126.4063,38.5781 1125.7813,38.5781 Q1124.4375,38.5781 1123.75,39.6406 Q1123.0625,40.7031 1123.0625,42.8125 Q1123.0625,44.9063 1123.75,45.9844 Q1124.4375,47.0469 1125.7813,47.0469 Q1126.4063,47.0469 1127,46.7813 Q1127.5938,46.5 1128.2344,45.9219 L1128.2344,48.6406 Z " fill="#000000"/><text fill="#000000" font-family="sans-serif" font-size="14" lengthAdjust="spacing" textLength="34" x="1145.75" y="47.8467">Data</text><line style="stroke:#181818;stroke-width:0.5;" x1="1052.5" x2="1240.5" y1="59" y2="59"/><text fill="#000000" font-family="sans-serif" font-size="14" lengthAdjust="spacing" textLength="149" x="1057.5" y="75.9951">metadata : Metadata</text><text fill="#000000" font-family="sans-serif" font-size="14" lengthAdjust="spacing" textLength="91" x="1057.5" y="92.292">options : dict</text><text fill="#000000" font-family="sans-serif" font-size="14" lengthAdjust="spacing" textLength="130" x="1057.5" y="108.5889">_data : np.ndarray</text><text fill="#000000" font-family="sans-serif" font-size="14" lengthAdjust="spacing" textLength="178" x="1057.5" y="124.8857">_importer : DataImporter</text><line style="stroke:#181818;stroke-width:0.5;" x1="1052.5" x2="1240.5" y1="132.1875" y2="132.1875"/><text fill="#000000" font-family="sans-serif" font-size="14" lengthAdjust="spacing" textLength="42" x="1057.5" y="149.1826">data()</text></g><path d="M594.5,6 L594.5,167.3281 A0,0 0 0 0 594.5,167.3281 L1016.5,167.3281 A0,0 0 0 0 1016.5,167.3281 L1016.5,90.6641 L1055.5,103.7422 L1016.5,82.6641 L1016.5,16 L1006.5,6 L594.5,6 A0,0 0 0 0 594.5,6 " fill="#FEFFDD" style="stroke:#181818;stroke-width:0.5;"/><path d="M1006.5,6 L1006.5,16 L1016.5,16 L1006.5,6 " fill="#FEFFDD" style="stroke:#181818;stroke-width:0.5;"/><text fill="#000000" font-family="sans-serif" font-size="13" lengthAdjust="spacing" textLength="337" x="600.5" y="23.0669">"_data" usually contains a 1D array and is accessed</text><text fill="#000000" font-family="sans-serif" font-size="13" lengthAdjust="spacing" textLength="333" x="600.5" y="38.1997">via the data() getter method (Python property) that</text><text fill="#000000" font-family="sans-serif" font-size="13" lengthAdjust="spacing" textLength="331" x="600.5" y="53.3325">calls the DataImporter on first access if necessary.</text><text fill="#000000" font-family="sans-serif" font-size="13" lengthAdjust="spacing" textLength="8" x="600.5" y="68.4653">&#160;</text><text fill="#000000" font-family="sans-serif" font-size="13" lengthAdjust="spacing" textLength="322" x="600.5" y="83.5981">For individual channel values see derived classes</text><text fill="#000000" font-family="sans-serif" font-size="13" lengthAdjust="spacing" textLength="308" x="600.5" y="98.731">AverageChannelData and IntervalChannelData.</text><text fill="#000000" font-family="sans-serif" font-size="13" lengthAdjust="spacing" textLength="8" x="600.5" y="113.8638">&#160;</text><text fill="#000000" font-family="sans-serif" font-size="13" lengthAdjust="spacing" textLength="362" x="600.5" y="128.9966">ArrayChannelData and AreaChannelData are somewhat</text><text fill="#000000" font-family="sans-serif" font-size="13" lengthAdjust="spacing" textLength="401" x="600.5" y="144.1294">special as they contain either 2D data or a list of data objects</text><text fill="#000000" font-family="sans-serif" font-size="13" lengthAdjust="spacing" textLength="193" x="600.5" y="159.2622">(in case of images and alike).</text><!--class DataImporter--><g id="elem_DataImporter"><rect codeLine="23" fill="#F1F1F1" height="80.5938" id="DataImporter" rx="2.5" ry="2.5" style="stroke:#181818;stroke-width:0.5;" width="128" x="1276.5" y="51"/><ellipse cx="1291.5" cy="67" fill="#ADD1B2" rx="11" ry="11" style="stroke:#181818;stroke-width:1.0;"/><path d="M1294.4844,72.6406 Q1293.9063,72.9375 1293.2656,73.0781 Q1292.625,73.2344 1291.9219,73.2344 Q1289.4063,73.2344 1288.0781,71.5938 Q1286.7656,69.9375 1286.7656,66.8125 Q1286.7656,63.6719 1288.0781,62.0313 Q1289.4063,60.375 1291.9219,60.375 Q1292.625,60.375 1293.2656,60.5313 Q1293.9219,60.6719 1294.4844,60.9688 L1294.4844,63.6875 Q1293.8438,63.1094 1293.25,62.8438 Q1292.6563,62.5781 1292.0313,62.5781 Q1290.6875,62.5781 1290,63.6406 Q1289.3125,64.7031 1289.3125,66.8125 Q1289.3125,68.9063 1290,69.9844 Q1290.6875,71.0469 1292.0313,71.0469 Q1292.6563,71.0469 1293.25,70.7813 Q1293.8438,70.5 1294.4844,69.9219 L1294.4844,72.6406 Z " fill="#000000"/><text fill="#000000" font-family="sans-serif" font-size="14" lengthAdjust="spacing" textLength="96" x="1305.5" y="71.8467">DataImporter</text><line style="stroke:#181818;stroke-width:0.5;" x1="1277.5" x2="1403.5" y1="83" y2="83"/><text fill="#000000" font-family="sans-serif" font-size="14" lengthAdjust="spacing" textLength="48" x="1282.5" y="99.9951">source</text><line style="stroke:#181818;stroke-width:0.5;" x1="1277.5" x2="1403.5" y1="107.2969" y2="107.2969"/><text fill="#000000" font-family="sans-serif" font-size="14" lengthAdjust="spacing" textLength="57" x="1282.5" y="124.292">import()</text></g><!--class Metadata--><g id="elem_Metadata"><rect codeLine="28" fill="#F1F1F1" height="48" id="Metadata" rx="2.5" ry="2.5" style="stroke:#181818;stroke-width:0.5;" width="99" x="713" y="245"/><ellipse cx="728" cy="261" fill="#ADD1B2" rx="11" ry="11" style="stroke:#181818;stroke-width:1.0;"/><path d="M730.9844,266.6406 Q730.4063,266.9375 729.7656,267.0781 Q729.125,267.2344 728.4219,267.2344 Q725.9063,267.2344 724.5781,265.5938 Q723.2656,263.9375 723.2656,260.8125 Q723.2656,257.6719 724.5781,256.0313 Q725.9063,254.375 728.4219,254.375 Q729.125,254.375 729.7656,254.5313 Q730.4219,254.6719 730.9844,254.9688 L730.9844,257.6875 Q730.3438,257.1094 729.75,256.8438 Q729.1563,256.5781 728.5313,256.5781 Q727.1875,256.5781 726.5,257.6406 Q725.8125,258.7031 725.8125,260.8125 Q725.8125,262.9063 726.5,263.9844 Q727.1875,265.0469 728.5313,265.0469 Q729.1563,265.0469 729.75,264.7813 Q730.3438,264.5 730.9844,263.9219 L730.9844,266.6406 Z " fill="#000000"/><text fill="#000000" font-family="sans-serif" font-size="14" lengthAdjust="spacing" textLength="67" x="742" y="265.8467">Metadata</text><line style="stroke:#181818;stroke-width:0.5;" x1="714" x2="811" y1="277" y2="277"/><line style="stroke:#181818;stroke-width:0.5;" x1="714" x2="811" y1="285" y2="285"/></g><g id="elem_GMN7"><path d="M847,249 L847,265 L812.15,269 L847,273 L847,289.2656 A0,0 0 0 0 847,289.2656 L988,289.2656 A0,0 0 0 0 988,289.2656 L988,259 L978,249 L847,249 A0,0 0 0 0 847,249 " fill="#FEFFDD" style="stroke:#181818;stroke-width:0.5;"/><path d="M978,249 L978,259 L988,259 L978,249 " fill="#FEFFDD" style="stroke:#181818;stroke-width:0.5;"/><text fill="#000000" font-family="sans-serif" font-size="13" lengthAdjust="spacing" textLength="104" x="853" y="266.0669">See diagram for</text><text fill="#000000" font-family="sans-serif" font-size="13" lengthAdjust="spacing" textLength="120" x="853" y="281.1997">metadata module.</text></g><!--class MeasureData--><g id="elem_MeasureData"><rect codeLine="35" fill="#F1F1F1" height="64.2969" id="MeasureData" rx="2.5" ry="2.5" style="stroke:#181818;stroke-width:0.5;" width="246" x="1023.5" y="237"/><ellipse cx="1094.75" cy="253" fill="#ADD1B2" rx="11" ry="11" style="stroke:#181818;stroke-width:1.0;"/><path d="M1097.7344,258.6406 Q1097.1563,258.9375 1096.5156,259.0781 Q1095.875,259.2344 1095.1719,259.2344 Q1092.6563,259.2344 1091.3281,257.5938 Q1090.0156,255.9375 1090.0156,252.8125 Q1090.0156,249.6719 1091.3281,248.0313 Q1092.6563,246.375 1095.1719,246.375 Q1095.875,246.375 1096.5156,246.5313 Q1097.1719,246.6719 1097.7344,246.9688 L1097.7344,249.6875 Q1097.0938,249.1094 1096.5,248.8438 Q1095.9063,248.5781 1095.2813,248.5781 Q1093.9375,248.5781 1093.25,249.6406 Q1092.5625,250.7031 1092.5625,252.8125 Q1092.5625,254.9063 1093.25,255.9844 Q1093.9375,257.0469 1095.2813,257.0469 Q1095.9063,257.0469 1096.5,256.7813 Q1097.0938,256.5 1097.7344,255.9219 L1097.7344,258.6406 Z " fill="#000000"/><text fill="#000000" font-family="sans-serif" font-size="14" lengthAdjust="spacing" textLength="95" x="1115.25" y="257.8467">MeasureData</text><line style="stroke:#181818;stroke-width:0.5;" x1="1024.5" x2="1268.5" y1="269" y2="269"/><text fill="#000000" font-family="sans-serif" font-size="14" lengthAdjust="spacing" textLength="234" x="1029.5" y="285.9951">positions : np.ndarray(dtype=int)</text><line style="stroke:#181818;stroke-width:0.5;" x1="1024.5" x2="1268.5" y1="293.2969" y2="293.2969"/></g><!--class MonitorData--><g id="elem_MonitorData"><rect codeLine="39" fill="#F1F1F1" height="64.2969" id="MonitorData" rx="2.5" ry="2.5" style="stroke:#181818;stroke-width:0.5;" width="271" x="1305" y="237"/><ellipse cx="1392.25" cy="253" fill="#ADD1B2" rx="11" ry="11" style="stroke:#181818;stroke-width:1.0;"/><path d="M1395.2344,258.6406 Q1394.6563,258.9375 1394.0156,259.0781 Q1393.375,259.2344 1392.6719,259.2344 Q1390.1563,259.2344 1388.8281,257.5938 Q1387.5156,255.9375 1387.5156,252.8125 Q1387.5156,249.6719 1388.8281,248.0313 Q1390.1563,246.375 1392.6719,246.375 Q1393.375,246.375 1394.0156,246.5313 Q1394.6719,246.6719 1395.2344,246.9688 L1395.2344,249.6875 Q1394.5938,249.1094 1394,248.8438 Q1393.4063,248.5781 1392.7813,248.5781 Q1391.4375,248.5781 1390.75,249.6406 Q1390.0625,250.7031 1390.0625,252.8125 Q1390.0625,254.9063 1390.75,255.9844 Q1391.4375,257.0469 1392.7813,257.0469 Q1393.4063,257.0469 1394,256.7813 Q1394.5938,256.5 1395.2344,255.9219 L1395.2344,258.6406 Z " fill="#000000"/><text fill="#000000" font-family="sans-serif" font-size="14" lengthAdjust="spacing" textLength="88" x="1412.75" y="257.8467">MonitorData</text><line style="stroke:#181818;stroke-width:0.5;" x1="1306" x2="1575" y1="269" y2="269"/><text fill="#000000" font-family="sans-serif" font-size="14" lengthAdjust="spacing" textLength="259" x="1311" y="285.9951">milliseconds : np.ndarray(dtype=int)</text><line style="stroke:#181818;stroke-width:0.5;" x1="1306" x2="1575" y1="293.2969" y2="293.2969"/></g><!--class DeviceData--><g id="elem_DeviceData"><rect codeLine="43" fill="#F1F1F1" height="48" id="DeviceData" rx="2.5" ry="2.5" style="stroke:#181818;stroke-width:0.5;" width="115" x="876" y="385.5"/><ellipse cx="891" cy="401.5" fill="#ADD1B2" rx="11" ry="11" style="stroke:#181818;stroke-width:1.0;"/><path d="M893.9844,407.1406 Q893.4063,407.4375 892.7656,407.5781 Q892.125,407.7344 891.4219,407.7344 Q888.9063,407.7344 887.5781,406.0938 Q886.2656,404.4375 886.2656,401.3125 Q886.2656,398.1719 887.5781,396.5313 Q888.9063,394.875 891.4219,394.875 Q892.125,394.875 892.7656,395.0313 Q893.4219,395.1719 893.9844,395.4688 L893.9844,398.1875 Q893.3438,397.6094 892.75,397.3438 Q892.1563,397.0781 891.5313,397.0781 Q890.1875,397.0781 889.5,398.1406 Q888.8125,399.2031 888.8125,401.3125 Q888.8125,403.4063 889.5,404.4844 Q890.1875,405.5469 891.5313,405.5469 Q892.1563,405.5469 892.75,405.2813 Q893.3438,405 893.9844,404.4219 L893.9844,407.1406 Z " fill="#000000"/><text fill="#000000" font-family="sans-serif" font-size="14" lengthAdjust="spacing" textLength="83" x="905" y="406.3467">DeviceData</text><line style="stroke:#181818;stroke-width:0.5;" x1="877" x2="990" y1="417.5" y2="417.5"/><line style="stroke:#181818;stroke-width:0.5;" x1="877" x2="990" y1="425.5" y2="425.5"/></g><!--class AxisData--><g id="elem_AxisData"><rect codeLine="45" fill="#F1F1F1" height="64.2969" id="AxisData" rx="2.5" ry="2.5" style="stroke:#181818;stroke-width:0.5;" width="95" x="1026" y="377.5"/><ellipse cx="1041" cy="393.5" fill="#ADD1B2" rx="11" ry="11" style="stroke:#181818;stroke-width:1.0;"/><path d="M1043.9844,399.1406 Q1043.4063,399.4375 1042.7656,399.5781 Q1042.125,399.7344 1041.4219,399.7344 Q1038.9063,399.7344 1037.5781,398.0938 Q1036.2656,396.4375 1036.2656,393.3125 Q1036.2656,390.1719 1037.5781,388.5313 Q1038.9063,386.875 1041.4219,386.875 Q1042.125,386.875 1042.7656,387.0313 Q1043.4219,387.1719 1043.9844,387.4688 L1043.9844,390.1875 Q1043.3438,389.6094 1042.75,389.3438 Q1042.1563,389.0781 1041.5313,389.0781 Q1040.1875,389.0781 1039.5,390.1406 Q1038.8125,391.2031 1038.8125,393.3125 Q1038.8125,395.4063 1039.5,396.4844 Q1040.1875,397.5469 1041.5313,397.5469 Q1042.1563,397.5469 1042.75,397.2813 Q1043.3438,397 1043.9844,396.4219 L1043.9844,399.1406 Z " fill="#000000"/><text fill="#000000" font-family="sans-serif" font-size="14" lengthAdjust="spacing" textLength="63" x="1055" y="398.3467">AxisData</text><line style="stroke:#181818;stroke-width:0.5;" x1="1027" x2="1120" y1="409.5" y2="409.5"/><text fill="#000000" font-family="sans-serif" font-size="14" lengthAdjust="spacing" textLength="74" x="1032" y="426.4951">set_values</text><line style="stroke:#181818;stroke-width:0.5;" x1="1027" x2="1120" y1="433.7969" y2="433.7969"/></g><!--class NonencodedAxisData--><g id="elem_NonencodedAxisData"><rect codeLine="49" fill="#F1F1F1" height="80.5938" id="NonencodedAxisData" rx="2.5" ry="2.5" style="stroke:#181818;stroke-width:0.5;" width="185" x="167" y="566.5"/><ellipse cx="182" cy="582.5" fill="#ADD1B2" rx="11" ry="11" style="stroke:#181818;stroke-width:1.0;"/><path d="M184.9844,588.1406 Q184.4063,588.4375 183.7656,588.5781 Q183.125,588.7344 182.4219,588.7344 Q179.9063,588.7344 178.5781,587.0938 Q177.2656,585.4375 177.2656,582.3125 Q177.2656,579.1719 178.5781,577.5313 Q179.9063,575.875 182.4219,575.875 Q183.125,575.875 183.7656,576.0313 Q184.4219,576.1719 184.9844,576.4688 L184.9844,579.1875 Q184.3438,578.6094 183.75,578.3438 Q183.1563,578.0781 182.5313,578.0781 Q181.1875,578.0781 180.5,579.1406 Q179.8125,580.2031 179.8125,582.3125 Q179.8125,584.4063 180.5,585.4844 Q181.1875,586.5469 182.5313,586.5469 Q183.1563,586.5469 183.75,586.2813 Q184.3438,586 184.9844,585.4219 L184.9844,588.1406 Z " fill="#000000"/><text fill="#000000" font-family="sans-serif" font-size="14" lengthAdjust="spacing" textLength="153" x="196" y="587.3467">NonencodedAxisData</text><line style="stroke:#181818;stroke-width:0.5;" x1="168" x2="351" y1="598.5" y2="598.5"/><text fill="#000000" font-family="sans-serif" font-size="14" lengthAdjust="spacing" textLength="81" x="173" y="615.4951">_filled_data</text><line style="stroke:#181818;stroke-width:0.5;" x1="168" x2="351" y1="622.7969" y2="622.7969"/><text fill="#000000" font-family="sans-serif" font-size="14" lengthAdjust="spacing" textLength="84" x="173" y="639.792">filled_data()</text></g><g id="elem_GMN22"><path d="M6,769.5 L6,855.1641 A0,0 0 0 0 6,855.1641 L293,855.1641 A0,0 0 0 0 293,855.1641 L293,779.5 L283,769.5 L176.24,769.5 L238.03,647.72 L168.24,769.5 L6,769.5 A0,0 0 0 0 6,769.5 " fill="#FEFFDD" style="stroke:#181818;stroke-width:0.5;"/><path d="M283,769.5 L283,779.5 L293,779.5 L283,769.5 " fill="#FEFFDD" style="stroke:#181818;stroke-width:0.5;"/><text fill="#000000" font-family="sans-serif" font-size="13" lengthAdjust="spacing" textLength="266" x="12" y="786.5669">Data for axes without encoders are filled</text><text fill="#000000" font-family="sans-serif" font-size="13" lengthAdjust="spacing" textLength="259" x="12" y="801.6997">depending on the ChannelData they are</text><text fill="#000000" font-family="sans-serif" font-size="13" lengthAdjust="spacing" textLength="102" x="12" y="816.8325">plotted against.</text><text fill="#000000" font-family="sans-serif" font-size="13" lengthAdjust="spacing" textLength="254" x="12" y="831.9653">Hence for different channels, generally</text><text fill="#000000" font-family="sans-serif" font-size="13" lengthAdjust="spacing" textLength="193" x="12" y="847.0981">different filled data will exist.</text></g><!--class ChannelData--><g id="elem_ChannelData"><rect codeLine="61" fill="#F1F1F1" height="48" id="ChannelData" rx="2.5" ry="2.5" style="stroke:#181818;stroke-width:0.5;" width="125" x="1156" y="385.5"/><ellipse cx="1171" cy="401.5" fill="#ADD1B2" rx="11" ry="11" style="stroke:#181818;stroke-width:1.0;"/><path d="M1173.9844,407.1406 Q1173.4063,407.4375 1172.7656,407.5781 Q1172.125,407.7344 1171.4219,407.7344 Q1168.9063,407.7344 1167.5781,406.0938 Q1166.2656,404.4375 1166.2656,401.3125 Q1166.2656,398.1719 1167.5781,396.5313 Q1168.9063,394.875 1171.4219,394.875 Q1172.125,394.875 1172.7656,395.0313 Q1173.4219,395.1719 1173.9844,395.4688 L1173.9844,398.1875 Q1173.3438,397.6094 1172.75,397.3438 Q1172.1563,397.0781 1171.5313,397.0781 Q1170.1875,397.0781 1169.5,398.1406 Q1168.8125,399.2031 1168.8125,401.3125 Q1168.8125,403.4063 1169.5,404.4844 Q1170.1875,405.5469 1171.5313,405.5469 Q1172.1563,405.5469 1172.75,405.2813 Q1173.3438,405 1173.9844,404.4219 L1173.9844,407.1406 Z " fill="#000000"/><text fill="#000000" font-family="sans-serif" font-size="14" lengthAdjust="spacing" textLength="93" x="1185" y="406.3467">ChannelData</text><line style="stroke:#181818;stroke-width:0.5;" x1="1157" x2="1280" y1="417.5" y2="417.5"/><line style="stroke:#181818;stroke-width:0.5;" x1="1157" x2="1280" y1="425.5" y2="425.5"/></g><!--class TimestampData--><g id="elem_TimestampData"><rect codeLine="64" fill="#F1F1F1" height="96.8906" id="TimestampData" rx="2.5" ry="2.5" style="stroke:#181818;stroke-width:0.5;" width="287" x="1316" y="361"/><ellipse cx="1398.25" cy="377" fill="#ADD1B2" rx="11" ry="11" style="stroke:#181818;stroke-width:1.0;"/><path d="M1401.2344,382.6406 Q1400.6563,382.9375 1400.0156,383.0781 Q1399.375,383.2344 1398.6719,383.2344 Q1396.1563,383.2344 1394.8281,381.5938 Q1393.5156,379.9375 1393.5156,376.8125 Q1393.5156,373.6719 1394.8281,372.0313 Q1396.1563,370.375 1398.6719,370.375 Q1399.375,370.375 1400.0156,370.5313 Q1400.6719,370.6719 1401.2344,370.9688 L1401.2344,373.6875 Q1400.5938,373.1094 1400,372.8438 Q1399.4063,372.5781 1398.7813,372.5781 Q1397.4375,372.5781 1396.75,373.6406 Q1396.0625,374.7031 1396.0625,376.8125 Q1396.0625,378.9063 1396.75,379.9844 Q1397.4375,381.0469 1398.7813,381.0469 Q1399.4063,381.0469 1400,380.7813 Q1400.5938,380.5 1401.2344,379.9219 L1401.2344,382.6406 Z " fill="#000000"/><text fill="#000000" font-family="sans-serif" font-size="14" lengthAdjust="spacing" textLength="114" x="1418.75" y="381.8467">TimestampData</text><line style="stroke:#181818;stroke-width:0.5;" x1="1317" x2="1602" y1="393" y2="393"/><text fill="#000000" font-family="sans-serif" font-size="14" lengthAdjust="spacing" textLength="275" x="1322" y="409.9951">_first_positions : np.ndarray(dtype=int)</text><text fill="#000000" font-family="sans-serif" font-size="14" lengthAdjust="spacing" textLength="273" x="1322" y="426.292">_last_positions : np.ndarray(dtype=int)</text><line style="stroke:#181818;stroke-width:0.5;" x1="1317" x2="1602" y1="433.5938" y2="433.5938"/><text fill="#000000" font-family="sans-serif" font-size="14" lengthAdjust="spacing" textLength="258" x="1322" y="450.5889">get_position(timestamp, mode=last)</text></g><!--class SinglePointChannelData--><g id="elem_SinglePointChannelData"><rect codeLine="70" fill="#F1F1F1" height="48" id="SinglePointChannelData" rx="2.5" ry="2.5" style="stroke:#181818;stroke-width:0.5;" width="204" x="605.5" y="583"/><ellipse cx="620.5" cy="599" fill="#ADD1B2" rx="11" ry="11" style="stroke:#181818;stroke-width:1.0;"/><path d="M623.4844,604.6406 Q622.9063,604.9375 622.2656,605.0781 Q621.625,605.2344 620.9219,605.2344 Q618.4063,605.2344 617.0781,603.5938 Q615.7656,601.9375 615.7656,598.8125 Q615.7656,595.6719 617.0781,594.0313 Q618.4063,592.375 620.9219,592.375 Q621.625,592.375 622.2656,592.5313 Q622.9219,592.6719 623.4844,592.9688 L623.4844,595.6875 Q622.8438,595.1094 622.25,594.8438 Q621.6563,594.5781 621.0313,594.5781 Q619.6875,594.5781 619,595.6406 Q618.3125,596.7031 618.3125,598.8125 Q618.3125,600.9063 619,601.9844 Q619.6875,603.0469 621.0313,603.0469 Q621.6563,603.0469 622.25,602.7813 Q622.8438,602.5 623.4844,601.9219 L623.4844,604.6406 Z " fill="#000000"/><text fill="#000000" font-family="sans-serif" font-size="14" lengthAdjust="spacing" textLength="172" x="634.5" y="603.8467">SinglePointChannelData</text><line style="stroke:#181818;stroke-width:0.5;" x1="606.5" x2="808.5" y1="615" y2="615"/><line style="stroke:#181818;stroke-width:0.5;" x1="606.5" x2="808.5" y1="623" y2="623"/></g><!--class SinglePointNormalizedChannelData--><g id="elem_SinglePointNormalizedChannelData"><rect codeLine="72" fill="#F1F1F1" height="80.5938" id="SinglePointNormalizedChannelData" rx="2.5" ry="2.5" style="stroke:#181818;stroke-width:0.5;" width="285" x="328" y="772"/><ellipse cx="343" cy="788" fill="#ADD1B2" rx="11" ry="11" style="stroke:#181818;stroke-width:1.0;"/><path d="M345.9844,793.6406 Q345.4063,793.9375 344.7656,794.0781 Q344.125,794.2344 343.4219,794.2344 Q340.9063,794.2344 339.5781,792.5938 Q338.2656,790.9375 338.2656,787.8125 Q338.2656,784.6719 339.5781,783.0313 Q340.9063,781.375 343.4219,781.375 Q344.125,781.375 344.7656,781.5313 Q345.4219,781.6719 345.9844,781.9688 L345.9844,784.6875 Q345.3438,784.1094 344.75,783.8438 Q344.1563,783.5781 343.5313,783.5781 Q342.1875,783.5781 341.5,784.6406 Q340.8125,785.7031 340.8125,787.8125 Q340.8125,789.9063 341.5,790.9844 Q342.1875,792.0469 343.5313,792.0469 Q344.1563,792.0469 344.75,791.7813 Q345.3438,791.5 345.9844,790.9219 L345.9844,793.6406 Z " fill="#000000"/><text fill="#000000" font-family="sans-serif" font-size="14" lengthAdjust="spacing" textLength="253" x="357" y="792.8467">SinglePointNormalizedChannelData</text><line style="stroke:#181818;stroke-width:0.5;" x1="329" x2="612" y1="804" y2="804"/><text fill="#000000" font-family="sans-serif" font-size="14" lengthAdjust="spacing" textLength="210" x="334" y="820.9951">normalized_data : np.ndarray</text><text fill="#000000" font-family="sans-serif" font-size="14" lengthAdjust="spacing" textLength="214" x="334" y="837.292">normalizing_data : np.ndarray</text><line style="stroke:#181818;stroke-width:0.5;" x1="329" x2="612" y1="844.5938" y2="844.5938"/></g><!--class AverageChannelData--><g id="elem_AverageChannelData"><rect codeLine="77" fill="#F1F1F1" height="178.375" id="AverageChannelData" rx="2.5" ry="2.5" style="stroke:#181818;stroke-width:0.5;" width="246" x="953.5" y="518"/><ellipse cx="995.95" cy="534" fill="#ADD1B2" rx="11" ry="11" style="stroke:#181818;stroke-width:1.0;"/><path d="M998.9344,539.6406 Q998.3563,539.9375 997.7156,540.0781 Q997.075,540.2344 996.3719,540.2344 Q993.8563,540.2344 992.5281,538.5938 Q991.2156,536.9375 991.2156,533.8125 Q991.2156,530.6719 992.5281,529.0313 Q993.8563,527.375 996.3719,527.375 Q997.075,527.375 997.7156,527.5313 Q998.3719,527.6719 998.9344,527.9688 L998.9344,530.6875 Q998.2938,530.1094 997.7,529.8438 Q997.1063,529.5781 996.4813,529.5781 Q995.1375,529.5781 994.45,530.6406 Q993.7625,531.7031 993.7625,533.8125 Q993.7625,535.9063 994.45,536.9844 Q995.1375,538.0469 996.4813,538.0469 Q997.1063,538.0469 997.7,537.7813 Q998.2938,537.5 998.9344,536.9219 L998.9344,539.6406 Z " fill="#000000"/><text fill="#000000" font-family="sans-serif" font-size="14" lengthAdjust="spacing" textLength="153" x="1016.05" y="538.8467">AverageChannelData</text><line style="stroke:#181818;stroke-width:0.5;" x1="954.5" x2="1198.5" y1="550" y2="550"/><text fill="#000000" font-family="sans-serif" font-size="14" lengthAdjust="spacing" textLength="167" x="959.5" y="566.9951">raw_data : raggedarray</text><text fill="#000000" font-family="sans-serif" font-size="14" lengthAdjust="spacing" textLength="234" x="959.5" y="583.292">attempts : np.ndarray(dtype=int)</text><text fill="#000000" font-family="sans-serif" font-size="14" lengthAdjust="spacing" textLength="139" x="959.5" y="599.5889">_mean : np.ndarray</text><text fill="#000000" font-family="sans-serif" font-size="14" lengthAdjust="spacing" textLength="119" x="959.5" y="615.8857">_std : np.ndarray</text><line style="stroke:#181818;stroke-width:0.5;" x1="954.5" x2="1198.5" y1="623.1875" y2="623.1875"/><text fill="#000000" font-family="sans-serif" font-size="14" lengthAdjust="spacing" textLength="51" x="959.5" y="640.1826">mean()</text><text fill="#000000" font-family="sans-serif" font-size="14" lengthAdjust="spacing" textLength="31" x="959.5" y="656.4795">std()</text><text fill="#000000" font-family="sans-serif" font-size="14" lengthAdjust="spacing" textLength="117" x="959.5" y="672.7764">averaged_data()</text><text fill="#000000" font-family="sans-serif" font-size="14" lengthAdjust="spacing" textLength="107" x="959.5" y="689.0732">has_raw_data()</text></g><g id="elem_GMN35"><path d="M648.5,762 L648.5,862.7969 A0,0 0 0 0 648.5,862.7969 L908.5,862.7969 A0,0 0 0 0 908.5,862.7969 L908.5,772 L898.5,762 L855.02,762 L953.14,692.24 L847.02,762 L648.5,762 A0,0 0 0 0 648.5,762 " fill="#FEFFDD" style="stroke:#181818;stroke-width:0.5;"/><path d="M898.5,762 L898.5,772 L908.5,772 L898.5,762 " fill="#FEFFDD" style="stroke:#181818;stroke-width:0.5;"/><text fill="#000000" font-family="sans-serif" font-size="13" lengthAdjust="spacing" textLength="203" x="654.5" y="779.0669">averaged_values() returns only</text><text fill="#000000" font-family="sans-serif" font-size="13" lengthAdjust="spacing" textLength="229" x="654.5" y="794.1997">those values used to average over.</text><text fill="#000000" font-family="sans-serif" font-size="13" lengthAdjust="spacing" textLength="8" x="654.5" y="809.3325">&#160;</text><text fill="#000000" font-family="sans-serif" font-size="13" lengthAdjust="spacing" textLength="239" x="654.5" y="824.4653">How does mean() differ from data()?</text><text fill="#000000" font-family="sans-serif" font-size="13" lengthAdjust="spacing" textLength="219" x="654.5" y="839.5981">Probably, data() should return the</text><text fill="#000000" font-family="sans-serif" font-size="13" lengthAdjust="spacing" textLength="103" x="654.5" y="854.731">averaged data -</text><text fill="#000000" font-family="sans-serif" font-size="13" font-style="italic" lengthAdjust="spacing" textLength="20" x="761.5" y="854.731">i.e.</text><text fill="#000000" font-family="sans-serif" font-size="13" lengthAdjust="spacing" textLength="59" x="781.5" y="854.731">, mean().</text></g><!--class AverageNormalizedChannelData--><g id="elem_AverageNormalizedChannelData"><rect codeLine="96" fill="#F1F1F1" height="80.5938" id="AverageNormalizedChannelData" rx="2.5" ry="2.5" style="stroke:#181818;stroke-width:0.5;" width="266" x="943.5" y="772"/><ellipse cx="958.5" cy="788" fill="#ADD1B2" rx="11" ry="11" style="stroke:#181818;stroke-width:1.0;"/><path d="M961.4844,793.6406 Q960.9063,793.9375 960.2656,794.0781 Q959.625,794.2344 958.9219,794.2344 Q956.4063,794.2344 955.0781,792.5938 Q953.7656,790.9375 953.7656,787.8125 Q953.7656,784.6719 955.0781,783.0313 Q956.4063,781.375 958.9219,781.375 Q959.625,781.375 960.2656,781.5313 Q960.9219,781.6719 961.4844,781.9688 L961.4844,784.6875 Q960.8438,784.1094 960.25,783.8438 Q959.6563,783.5781 959.0313,783.5781 Q957.6875,783.5781 957,784.6406 Q956.3125,785.7031 956.3125,787.8125 Q956.3125,789.9063 957,790.9844 Q957.6875,792.0469 959.0313,792.0469 Q959.6563,792.0469 960.25,791.7813 Q960.8438,791.5 961.4844,790.9219 L961.4844,793.6406 Z " fill="#000000"/><text fill="#000000" font-family="sans-serif" font-size="14" lengthAdjust="spacing" textLength="234" x="972.5" y="792.8467">AverageNormalizedChannelData</text><line style="stroke:#181818;stroke-width:0.5;" x1="944.5" x2="1208.5" y1="804" y2="804"/><text fill="#000000" font-family="sans-serif" font-size="14" lengthAdjust="spacing" textLength="221" x="949.5" y="820.9951">normalized_data : raggedarray</text><text fill="#000000" font-family="sans-serif" font-size="14" lengthAdjust="spacing" textLength="225" x="949.5" y="837.292">normalizing_data : raggedarray</text><line style="stroke:#181818;stroke-width:0.5;" x1="944.5" x2="1208.5" y1="844.5938" y2="844.5938"/></g><!--class IntervalChannelData--><g id="elem_IntervalChannelData"><rect codeLine="102" fill="#F1F1F1" height="162.0781" id="IntervalChannelData" rx="2.5" ry="2.5" style="stroke:#181818;stroke-width:0.5;" width="230" x="1246.5" y="526"/><ellipse cx="1284.45" cy="542" fill="#ADD1B2" rx="11" ry="11" style="stroke:#181818;stroke-width:1.0;"/><path d="M1287.4344,547.6406 Q1286.8563,547.9375 1286.2156,548.0781 Q1285.575,548.2344 1284.8719,548.2344 Q1282.3563,548.2344 1281.0281,546.5938 Q1279.7156,544.9375 1279.7156,541.8125 Q1279.7156,538.6719 1281.0281,537.0313 Q1282.3563,535.375 1284.8719,535.375 Q1285.575,535.375 1286.2156,535.5313 Q1286.8719,535.6719 1287.4344,535.9688 L1287.4344,538.6875 Q1286.7938,538.1094 1286.2,537.8438 Q1285.6063,537.5781 1284.9813,537.5781 Q1283.6375,537.5781 1282.95,538.6406 Q1282.2625,539.7031 1282.2625,541.8125 Q1282.2625,543.9063 1282.95,544.9844 Q1283.6375,546.0469 1284.9813,546.0469 Q1285.6063,546.0469 1286.2,545.7813 Q1286.7938,545.5 1287.4344,544.9219 L1287.4344,547.6406 Z " fill="#000000"/><text fill="#000000" font-family="sans-serif" font-size="14" lengthAdjust="spacing" textLength="147" x="1303.55" y="546.8467">IntervalChannelData</text><line style="stroke:#181818;stroke-width:0.5;" x1="1247.5" x2="1475.5" y1="558" y2="558"/><text fill="#000000" font-family="sans-serif" font-size="14" lengthAdjust="spacing" textLength="167" x="1252.5" y="574.9951">raw_data : raggedarray</text><text fill="#000000" font-family="sans-serif" font-size="14" lengthAdjust="spacing" textLength="218" x="1252.5" y="591.292">counts : np.ndarray(dtype=int)</text><text fill="#000000" font-family="sans-serif" font-size="14" lengthAdjust="spacing" textLength="139" x="1252.5" y="607.5889">_mean : np.ndarray</text><text fill="#000000" font-family="sans-serif" font-size="14" lengthAdjust="spacing" textLength="119" x="1252.5" y="623.8857">_std : np.ndarray</text><line style="stroke:#181818;stroke-width:0.5;" x1="1247.5" x2="1475.5" y1="631.1875" y2="631.1875"/><text fill="#000000" font-family="sans-serif" font-size="14" lengthAdjust="spacing" textLength="51" x="1252.5" y="648.1826">mean()</text><text fill="#000000" font-family="sans-serif" font-size="14" lengthAdjust="spacing" textLength="31" x="1252.5" y="664.4795">std()</text><text fill="#000000" font-family="sans-serif" font-size="14" lengthAdjust="spacing" textLength="107" x="1252.5" y="680.7764">has_raw_data()</text></g><!--class IntervalNormalizedChannelData--><g id="elem_IntervalNormalizedChannelData"><rect codeLine="112" fill="#F1F1F1" height="80.5938" id="IntervalNormalizedChannelData" rx="2.5" ry="2.5" style="stroke:#181818;stroke-width:0.5;" width="260" x="1244.5" y="772"/><ellipse cx="1259.5" cy="788" fill="#ADD1B2" rx="11" ry="11" style="stroke:#181818;stroke-width:1.0;"/><path d="M1262.4844,793.6406 Q1261.9063,793.9375 1261.2656,794.0781 Q1260.625,794.2344 1259.9219,794.2344 Q1257.4063,794.2344 1256.0781,792.5938 Q1254.7656,790.9375 1254.7656,787.8125 Q1254.7656,784.6719 1256.0781,783.0313 Q1257.4063,781.375 1259.9219,781.375 Q1260.625,781.375 1261.2656,781.5313 Q1261.9219,781.6719 1262.4844,781.9688 L1262.4844,784.6875 Q1261.8438,784.1094 1261.25,783.8438 Q1260.6563,783.5781 1260.0313,783.5781 Q1258.6875,783.5781 1258,784.6406 Q1257.3125,785.7031 1257.3125,787.8125 Q1257.3125,789.9063 1258,790.9844 Q1258.6875,792.0469 1260.0313,792.0469 Q1260.6563,792.0469 1261.25,791.7813 Q1261.8438,791.5 1262.4844,790.9219 L1262.4844,793.6406 Z " fill="#000000"/><text fill="#000000" font-family="sans-serif" font-size="14" lengthAdjust="spacing" textLength="228" x="1273.5" y="792.8467">IntervalNormalizedChannelData</text><line style="stroke:#181818;stroke-width:0.5;" x1="1245.5" x2="1503.5" y1="804" y2="804"/><text fill="#000000" font-family="sans-serif" font-size="14" lengthAdjust="spacing" textLength="221" x="1250.5" y="820.9951">normalized_data : raggedarray</text><text fill="#000000" font-family="sans-serif" font-size="14" lengthAdjust="spacing" textLength="225" x="1250.5" y="837.292">normalizing_data : raggedarray</text><line style="stroke:#181818;stroke-width:0.5;" x1="1245.5" x2="1503.5" y1="844.5938" y2="844.5938"/></g><!--class ArrayChannelData--><g id="elem_ArrayChannelData"><rect codeLine="117" fill="#F1F1F1" height="64.2969" id="ArrayChannelData" rx="2.5" ry="2.5" style="stroke:#181818;stroke-width:0.5;" width="211" x="1534" y="575"/><ellipse cx="1570.15" cy="591" fill="#ADD1B2" rx="11" ry="11" style="stroke:#181818;stroke-width:1.0;"/><path d="M1573.1344,596.6406 Q1572.5563,596.9375 1571.9156,597.0781 Q1571.275,597.2344 1570.5719,597.2344 Q1568.0563,597.2344 1566.7281,595.5938 Q1565.4156,593.9375 1565.4156,590.8125 Q1565.4156,587.6719 1566.7281,586.0313 Q1568.0563,584.375 1570.5719,584.375 Q1571.275,584.375 1571.9156,584.5313 Q1572.5719,584.6719 1573.1344,584.9688 L1573.1344,587.6875 Q1572.4938,587.1094 1571.9,586.8438 Q1571.3063,586.5781 1570.6813,586.5781 Q1569.3375,586.5781 1568.65,587.6406 Q1567.9625,588.7031 1567.9625,590.8125 Q1567.9625,592.9063 1568.65,593.9844 Q1569.3375,595.0469 1570.6813,595.0469 Q1571.3063,595.0469 1571.9,594.7813 Q1572.4938,594.5 1573.1344,593.9219 L1573.1344,596.6406 Z " fill="#000000"/><text fill="#000000" font-family="sans-serif" font-size="14" lengthAdjust="spacing" textLength="132" x="1588.85" y="595.8467">ArrayChannelData</text><line style="stroke:#181818;stroke-width:0.5;" x1="1535" x2="1744" y1="607" y2="607"/><text fill="#000000" font-family="sans-serif" font-size="14" lengthAdjust="spacing" textLength="199" x="1540" y="623.9951">roi[] : ArrayChannelROIData</text><line style="stroke:#181818;stroke-width:0.5;" x1="1535" x2="1744" y1="631.2969" y2="631.2969"/></g><!--class ArrayChannelROIData--><g id="elem_ArrayChannelROIData"><rect codeLine="123" fill="#F1F1F1" height="113.1875" id="ArrayChannelROIData" rx="2.5" ry="2.5" style="stroke:#181818;stroke-width:0.5;" width="246" x="1539.5" y="756"/><ellipse cx="1580.15" cy="772" fill="#ADD1B2" rx="11" ry="11" style="stroke:#181818;stroke-width:1.0;"/><path d="M1583.1344,777.6406 Q1582.5563,777.9375 1581.9156,778.0781 Q1581.275,778.2344 1580.5719,778.2344 Q1578.0563,778.2344 1576.7281,776.5938 Q1575.4156,774.9375 1575.4156,771.8125 Q1575.4156,768.6719 1576.7281,767.0313 Q1578.0563,765.375 1580.5719,765.375 Q1581.275,765.375 1581.9156,765.5313 Q1582.5719,765.6719 1583.1344,765.9688 L1583.1344,768.6875 Q1582.4938,768.1094 1581.9,767.8438 Q1581.3063,767.5781 1580.6813,767.5781 Q1579.3375,767.5781 1578.65,768.6406 Q1577.9625,769.7031 1577.9625,771.8125 Q1577.9625,773.9063 1578.65,774.9844 Q1579.3375,776.0469 1580.6813,776.0469 Q1581.3063,776.0469 1581.9,775.7813 Q1582.4938,775.5 1583.1344,774.9219 L1583.1344,777.6406 Z " fill="#000000"/><text fill="#000000" font-family="sans-serif" font-size="14" lengthAdjust="spacing" textLength="157" x="1599.85" y="776.8467">ArrayChannelROIData</text><line style="stroke:#181818;stroke-width:0.5;" x1="1540.5" x2="1784.5" y1="788" y2="788"/><text fill="#000000" font-family="sans-serif" font-size="14" lengthAdjust="spacing" textLength="88" x="1545.5" y="804.9951">label : string</text><text fill="#000000" font-family="sans-serif" font-size="14" lengthAdjust="spacing" textLength="223" x="1545.5" y="821.292">marker : np.ndarray(dtype=int)</text><text fill="#000000" font-family="sans-serif" font-size="14" lengthAdjust="spacing" textLength="234" x="1545.5" y="837.5889">positions : np.ndarray(dtype=int)</text><text fill="#000000" font-family="sans-serif" font-size="14" lengthAdjust="spacing" textLength="133" x="1545.5" y="853.8857">data : np.ndarray()</text><line style="stroke:#181818;stroke-width:0.5;" x1="1540.5" x2="1784.5" y1="861.1875" y2="861.1875"/></g><g id="elem_GMN48"><path d="M1500.5,929 L1500.5,1060.0625 A0,0 0 0 0 1500.5,1060.0625 L1824.5,1060.0625 A0,0 0 0 0 1824.5,1060.0625 L1824.5,939 L1814.5,929 L1666.5,929 L1662.5,869.47 L1658.5,929 L1500.5,929 A0,0 0 0 0 1500.5,929 " fill="#FEFFDD" style="stroke:#181818;stroke-width:0.5;"/><path d="M1814.5,929 L1814.5,939 L1824.5,939 L1814.5,929 " fill="#FEFFDD" style="stroke:#181818;stroke-width:0.5;"/><text fill="#000000" font-family="sans-serif" font-size="13" lengthAdjust="spacing" textLength="256" x="1506.5" y="946.0669">Marker should be a two-element vector</text><text fill="#000000" font-family="sans-serif" font-size="13" lengthAdjust="spacing" textLength="290" x="1506.5" y="961.1997">with positions on the x axis of the spectrum.</text><text fill="#000000" font-family="sans-serif" font-size="13" lengthAdjust="spacing" textLength="303" x="1506.5" y="976.3325">Is "marker" the best name? Can we generalise</text><text fill="#000000" font-family="sans-serif" font-size="13" lengthAdjust="spacing" textLength="246" x="1506.5" y="991.4653">to fit to AreaChannelROIData as well?</text><text fill="#000000" font-family="sans-serif" font-size="13" lengthAdjust="spacing" textLength="8" x="1506.5" y="1006.5981">&#160;</text><text fill="#000000" font-family="sans-serif" font-size="13" lengthAdjust="spacing" textLength="244" x="1506.5" y="1021.731">What other attributes are relevant for</text><text fill="#000000" font-family="sans-serif" font-size="13" lengthAdjust="spacing" textLength="267" x="1506.5" y="1036.8638">Array Channel ROIs? What datasets exist</text><text fill="#000000" font-family="sans-serif" font-size="13" lengthAdjust="spacing" textLength="110" x="1506.5" y="1051.9966">in an eveH5 file?</text></g><!--class AreaChannelData--><g id="elem_AreaChannelData"><rect codeLine="140" fill="#F1F1F1" height="64.2969" id="AreaChannelData" rx="2.5" ry="2.5" style="stroke:#181818;stroke-width:0.5;" width="206" x="1794.5" y="575"/><ellipse cx="1830.65" cy="591" fill="#ADD1B2" rx="11" ry="11" style="stroke:#181818;stroke-width:1.0;"/><path d="M1833.6344,596.6406 Q1833.0563,596.9375 1832.4156,597.0781 Q1831.775,597.2344 1831.0719,597.2344 Q1828.5563,597.2344 1827.2281,595.5938 Q1825.9156,593.9375 1825.9156,590.8125 Q1825.9156,587.6719 1827.2281,586.0313 Q1828.5563,584.375 1831.0719,584.375 Q1831.775,584.375 1832.4156,584.5313 Q1833.0719,584.6719 1833.6344,584.9688 L1833.6344,587.6875 Q1832.9938,587.1094 1832.4,586.8438 Q1831.8063,586.5781 1831.1813,586.5781 Q1829.8375,586.5781 1829.15,587.6406 Q1828.4625,588.7031 1828.4625,590.8125 Q1828.4625,592.9063 1829.15,593.9844 Q1829.8375,595.0469 1831.1813,595.0469 Q1831.8063,595.0469 1832.4,594.7813 Q1832.9938,594.5 1833.6344,593.9219 L1833.6344,596.6406 Z " fill="#000000"/><text fill="#000000" font-family="sans-serif" font-size="14" lengthAdjust="spacing" textLength="127" x="1849.35" y="595.8467">AreaChannelData</text><line style="stroke:#181818;stroke-width:0.5;" x1="1795.5" x2="1999.5" y1="607" y2="607"/><text fill="#000000" font-family="sans-serif" font-size="14" lengthAdjust="spacing" textLength="194" x="1800.5" y="623.9951">roi[] : AreaChannelROIData</text><line style="stroke:#181818;stroke-width:0.5;" x1="1795.5" x2="1999.5" y1="631.2969" y2="631.2969"/></g><!--class AreaChannelROIData--><g id="elem_AreaChannelROIData"><rect codeLine="146" fill="#F1F1F1" height="48" id="AreaChannelROIData" rx="2.5" ry="2.5" style="stroke:#181818;stroke-width:0.5;" width="184" x="1820.5" y="788.5"/><ellipse cx="1835.5" cy="804.5" fill="#ADD1B2" rx="11" ry="11" style="stroke:#181818;stroke-width:1.0;"/><path d="M1838.4844,810.1406 Q1837.9063,810.4375 1837.2656,810.5781 Q1836.625,810.7344 1835.9219,810.7344 Q1833.4063,810.7344 1832.0781,809.0938 Q1830.7656,807.4375 1830.7656,804.3125 Q1830.7656,801.1719 1832.0781,799.5313 Q1833.4063,797.875 1835.9219,797.875 Q1836.625,797.875 1837.2656,798.0313 Q1837.9219,798.1719 1838.4844,798.4688 L1838.4844,801.1875 Q1837.8438,800.6094 1837.25,800.3438 Q1836.6563,800.0781 1836.0313,800.0781 Q1834.6875,800.0781 1834,801.1406 Q1833.3125,802.2031 1833.3125,804.3125 Q1833.3125,806.4063 1834,807.4844 Q1834.6875,808.5469 1836.0313,808.5469 Q1836.6563,808.5469 1837.25,808.2813 Q1837.8438,808 1838.4844,807.4219 L1838.4844,810.1406 Z " fill="#000000"/><text fill="#000000" font-family="sans-serif" font-size="14" lengthAdjust="spacing" textLength="152" x="1849.5" y="809.3467">AreaChannelROIData</text><line style="stroke:#181818;stroke-width:0.5;" x1="1821.5" x2="2003.5" y1="820.5" y2="820.5"/><line style="stroke:#181818;stroke-width:0.5;" x1="1821.5" x2="2003.5" y1="828.5" y2="828.5"/></g><!--reverse link Data to DataImporter--><g id="link_Data_DataImporter"><path codeLine="32" d="M1253.61,91.5 C1265.19,91.5 1264.78,91.5 1276.37,91.5 " fill="none" id="Data-backto-DataImporter" style="stroke:#181818;stroke-width:1.0;"/><polygon fill="#181818" points="1241.61,91.5,1247.61,95.5,1253.61,91.5,1247.61,87.5,1241.61,91.5" style="stroke:#181818;stroke-width:1.0;"/></g><!--reverse link Data to Metadata--><g id="link_Data_Metadata"><path codeLine="33" d="M1058.9203,162.7484 C1047.4703,170.4684 1045.44,171.02 1033.5,177 C948.99,219.3 917.96,203.73 829.5,237 C823.14,239.39 816.54,242.12 810.08,244.95 " fill="none" id="Data-backto-Metadata" style="stroke:#181818;stroke-width:1.0;"/><polygon fill="#181818" points="1068.87,156.04,1061.659,156.0777,1058.9203,162.7484,1066.1313,162.7108,1068.87,156.04" style="stroke:#181818;stroke-width:1.0;"/></g><!--reverse link Data to MeasureData--><g id="link_Data_MeasureData"><path d="M1146.5,174.36 C1146.5,201.8 1146.5,214.61 1146.5,236.91 " fill="none" id="Data-backto-MeasureData" style="stroke:#181818;stroke-width:1.0;"/><polygon fill="none" points="1146.5,156.36,1140.5,174.36,1152.5,174.36,1146.5,156.36" style="stroke:#181818;stroke-width:1.0;"/></g><!--reverse link Data to MonitorData--><g id="link_Data_MonitorData"><path d="M1241.9198,166.5365 C1252.2498,173.8665 1248.15,170.58 1258.5,177 C1294.38,199.25 1336.42,220.55 1371.05,236.95 " fill="none" id="Data-backto-MonitorData" style="stroke:#181818;stroke-width:1.0;"/><polygon fill="none" points="1227.24,156.12,1238.4476,171.4298,1245.392,161.6433,1227.24,156.12" style="stroke:#181818;stroke-width:1.0;"/></g><!--reverse link MeasureData to DeviceData--><g id="link_MeasureData_DeviceData"><path d="M1083.6097,310.8923 C1044.2397,336.4923 1004.39,362.41 968.88,385.5 " fill="none" id="MeasureData-backto-DeviceData" style="stroke:#181818;stroke-width:1.0;"/><polygon fill="none" points="1098.7,301.08,1080.3389,305.8622,1086.8805,315.9225,1098.7,301.08" style="stroke:#181818;stroke-width:1.0;"/></g><!--reverse link MeasureData to AxisData--><g id="link_MeasureData_AxisData"><path d="M1121.7261,317.003 C1109.7861,339.653 1102.06,354.31 1090.08,377.04 " fill="none" id="MeasureData-backto-AxisData" style="stroke:#181818;stroke-width:1.0;"/><polygon fill="none" points="1130.12,301.08,1116.4185,314.2051,1127.0338,319.801,1130.12,301.08" style="stroke:#181818;stroke-width:1.0;"/></g><!--reverse link AxisData to NonencodedAxisData--><g id="link_AxisData_NonencodedAxisData"><path d="M1022.8909,451.9174 C1013.9009,458.2974 1018.6,453.89 1008.5,458 C833.43,529.21 772.66,480.11 587.5,518 C507.21,534.43 417.41,558.96 352.1,577.95 " fill="none" id="AxisData-backto-NonencodedAxisData" style="stroke:#181818;stroke-width:1.0;"/><polygon fill="none" points="1037.57,441.5,1019.4184,447.0244,1026.3634,456.8105,1037.57,441.5" style="stroke:#181818;stroke-width:1.0;"/></g><!--reverse link MeasureData to ChannelData--><g id="link_MeasureData_ChannelData"><path d="M1170.9642,317.05 C1184.2342,342.57 1194.42,362.18 1206.43,385.28 " fill="none" id="MeasureData-backto-ChannelData" style="stroke:#181818;stroke-width:1.0;"/><polygon fill="none" points="1162.66,301.08,1165.6408,319.8181,1176.2875,314.282,1162.66,301.08" style="stroke:#181818;stroke-width:1.0;"/></g><!--reverse link MeasureData to TimestampData--><g id="link_MeasureData_TimestampData"><path d="M1233.2003,308.364 C1273.0403,325.994 1307.25,341.13 1351.99,360.93 " fill="none" id="MeasureData-backto-TimestampData" style="stroke:#181818;stroke-width:1.0;"/><polygon fill="none" points="1216.74,301.08,1230.7723,313.8508,1235.6284,302.8773,1216.74,301.08" style="stroke:#181818;stroke-width:1.0;"/></g><!--reverse link ChannelData to SinglePointChannelData--><g id="link_ChannelData_SinglePointChannelData"><path d="M1168.7462,442.9598 C1154.9862,451.4598 1154.04,451.21 1138.5,458 C1052.28,495.64 1024.57,487.7 935.5,518 C876.25,538.15 809.59,564.3 763.72,582.84 " fill="none" id="ChannelData-backto-SinglePointChannelData" style="stroke:#181818;stroke-width:1.0;"/><polygon fill="none" points="1184.06,433.5,1165.5929,437.8552,1171.8995,448.0644,1184.06,433.5" style="stroke:#181818;stroke-width:1.0;"/></g><!--reverse link SinglePointChannelData to SinglePointNormalizedChannelData--><g id="link_SinglePointChannelData_SinglePointNormalizedChannelData"><path d="M666.6547,643.0675 C626.7747,677.3175 565.54,729.89 516.86,771.69 " fill="none" id="SinglePointChannelData-backto-SinglePointNormalizedChannelData" style="stroke:#181818;stroke-width:1.0;"/><polygon fill="none" points="680.31,631.34,662.7456,638.5157,670.5639,647.6192,680.31,631.34" style="stroke:#181818;stroke-width:1.0;"/></g><!--reverse link ChannelData to AverageChannelData--><g id="link_ChannelData_AverageChannelData"><path d="M1191.0761,448.2569 C1175.8761,469.1969 1163.08,486.8 1140.63,517.7 " fill="none" id="ChannelData-backto-AverageChannelData" style="stroke:#181818;stroke-width:1.0;"/><polygon fill="none" points="1201.65,433.69,1186.2205,444.7323,1195.9318,451.7815,1201.65,433.69" style="stroke:#181818;stroke-width:1.0;"/></g><!--reverse link AverageChannelData to AverageNormalizedChannelData--><g id="link_AverageChannelData_AverageNormalizedChannelData"><path d="M1076.5,714.07 C1076.5,740.5 1076.5,750.18 1076.5,771.8 " fill="none" id="AverageChannelData-backto-AverageNormalizedChannelData" style="stroke:#181818;stroke-width:1.0;"/><polygon fill="none" points="1076.5,696.07,1070.5,714.07,1082.5,714.07,1076.5,696.07" style="stroke:#181818;stroke-width:1.0;"/></g><!--reverse link ChannelData to IntervalChannelData--><g id="link_ChannelData_IntervalChannelData"><path d="M1246.0935,448.2207 C1262.7335,470.9807 1278.47,492.48 1302.78,525.73 " fill="none" id="ChannelData-backto-IntervalChannelData" style="stroke:#181818;stroke-width:1.0;"/><polygon fill="none" points="1235.47,433.69,1241.2499,451.7619,1250.9371,444.6795,1235.47,433.69" style="stroke:#181818;stroke-width:1.0;"/></g><!--reverse link IntervalChannelData to IntervalNormalizedChannelData--><g id="link_IntervalChannelData_IntervalNormalizedChannelData"><path d="M1367.7658,706.1035 C1369.5958,734.7935 1370.44,747.93 1371.96,771.73 " fill="none" id="IntervalChannelData-backto-IntervalNormalizedChannelData" style="stroke:#181818;stroke-width:1.0;"/><polygon fill="none" points="1366.62,688.14,1361.778,706.4854,1373.7536,705.7216,1366.62,688.14" style="stroke:#181818;stroke-width:1.0;"/></g><!--reverse link ChannelData to ArrayChannelData--><g id="link_ChannelData_ArrayChannelData"><path d="M1268.7041,443.0931 C1282.3841,451.5231 1283.14,451.19 1298.5,458 C1381.4,494.74 1410.72,480.99 1493.5,518 C1528.89,533.83 1566.29,556.5 1594.38,574.87 " fill="none" id="ChannelData-backto-ArrayChannelData" style="stroke:#181818;stroke-width:1.0;"/><polygon fill="none" points="1253.38,433.65,1265.5564,448.2012,1271.8518,437.9851,1253.38,433.65" style="stroke:#181818;stroke-width:1.0;"/></g><!--reverse link ArrayChannelData to ArrayChannelROIData--><g id="link_ArrayChannelData_ArrayChannelROIData"><path codeLine="121" d="M1644.3901,651.2738 C1647.9001,682.2738 1651.98,718.43 1656.22,755.92 " fill="none" id="ArrayChannelData-backto-ArrayChannelROIData" style="stroke:#181818;stroke-width:1.0;"/><polygon fill="#181818" points="1643.04,639.35,1639.7404,645.7619,1644.3901,651.2738,1647.6896,644.8619,1643.04,639.35" style="stroke:#181818;stroke-width:1.0;"/><text fill="#000000" font-family="sans-serif" font-size="13" lengthAdjust="spacing" textLength="24" x="1629.8779" y="744.7731">0..n</text></g><!--reverse link ChannelData to AreaChannelData--><g id="link_ChannelData_AreaChannelData"><path d="M1265.6319,443.3025 C1279.7119,452.3525 1281.7,452.21 1298.5,458 C1495.07,525.81 1567.39,446.09 1762.5,518 C1798.2,531.16 1834.07,555.17 1859.85,574.79 " fill="none" id="ChannelData-backto-AreaChannelData" style="stroke:#181818;stroke-width:1.0;"/><polygon fill="none" points="1250.49,433.57,1262.3877,448.3499,1268.8761,438.2552,1250.49,433.57" style="stroke:#181818;stroke-width:1.0;"/></g><!--reverse link AreaChannelData to AreaChannelROIData--><g id="link_AreaChannelData_AreaChannelROIData"><path codeLine="144" d="M1900.6914,651.3176 C1903.7214,692.4576 1908.1,751.75 1910.79,788.34 " fill="none" id="AreaChannelData-backto-AreaChannelROIData" style="stroke:#181818;stroke-width:1.0;"/><polygon fill="#181818" points="1899.81,639.35,1896.2615,645.6276,1900.6914,651.3176,1904.2399,645.04,1899.81,639.35" style="stroke:#181818;stroke-width:1.0;"/><text fill="#000000" font-family="sans-serif" font-size="13" lengthAdjust="spacing" textLength="24" x="1883.2768" y="777.311">0..n</text></g><!--SRC=[jLPBRzj64BxhLmnqgLpOQb8W5o69OSGex4DIeodGGri8A-v8tfhS9NQNabN3_ptVFaXH4lqeskeYSdSUtmo_UNpdxfIkXHKLoLhHstTlHgEY5CxHfV227aQ4NyLUoF0wey_vCPwRsYkZ7OwbAdmyccSvNK-r5DQARJfMLMsiPukhOFWwlyRBe38v6JsEjF5C9IyzcMKKcytcdRDnV1nJunfHbbigZFP2mRkWjvSKNP7GaXHEYeATOndrragGl-NiXLRi0mo4T6iaJMws-DTKMrEpzTiJY8eKIG4lBchs0HE4byewdvsGMfBcy2JiTZgAcZyPIqfBjLOIKAcu5LfpIMjHDkp8CR2mLMkM53FDBcfThDcA5NzAqZ7x8Pnh3QzGxPrdDnSXv4Fn2yjYxymoELFnfWtBrLmee18njYwDn0glbdwyZ8aYX22eL2v-YdIo-8iBdx1Ee508n-5ILK3jedDHgZi-cOuOp-5RzgdK9J1Hofd65XmV4pKY0R9yIpB8Pb9OjRhrC_eQSgV4Aj1rQUmVkcDcPMHJCZ8Je_x-R9zb-V1iHz_Eat2DvNZFznx0zuZ_i5HSoaUgZLCjrNVCdaY_hVc3qhwFtMZbZNt9OgLAP9UHVVaAevUyLiK-oXxoLkhYNhcdPDgqivyd7kwCVp6QTM4aooC3tK7IdY-1ckMk9dllkm9U6EzD5QXnR3bgHOlBmB1x46S3ufd6KvAqBb8s6KxTWMjWKNeLIY-KOv_UaS9GY99r2S-eAh4AVS5Fu-4Lx7Bq9jLooPQrRolIdQ8RQ5GTsaborKaa_udu6pmZ8ofO198-iVjGXfFUPVbNLR7pegfV-48jGUQnoynVPjwU4bozLWUDi9ES-1RTQQWa_X3izFZt5Ual-SP0UIZa_jd3aD8NOoiqXxzP3ga_OJtbGtUgJuoMLW161YGwD0FjTH1-j6d5fhK5fHNttBMf5g1QLVldSpolMEY1QUYyF3uDifEaX_ly91BihiR2sQrmynRXKDaTXxflAZK0p4BBlh6WYT6v0529QEfvK3MOeEHDgqS6_tdqN9aDIGEPX3aN3Yqj02HKvr7knfg5M9JRqtRwEfHwARFZKBrxo5AzdT5xzL5DUVh-1_NnDBiu7YevokUfDV3LdwBLuOSUu5LV1CJAG0OczB-ZLc4Q_RyJwuX41z4ydzUXcF-xnEOFVBZVF9DKetx_4tRwAh_yV1sf3tj7bi8gC7updUhneCe0W7nrqAHBiS1YDqDQBQBP7_32tiLrz-Mk_Szw_56F6sm10r458vyJgbo62yQIvpVcZ4kkmjXROyCpQIaFOxc7BC_UUyniBDZm4Dx2BkbjKwL9U-redA8Unzi59WffKV4vVG9PDznEM-mzgTiOp5aV_dfRQvjexASRBilpr71-m_fA9cweQBnMBHhFQLEmmBuMOMHdu37qbYC4S-uygOV4OVznQPQdrLDZRoLUyzMxCFBv_7307wxJhw7WOIY9WVjszWXuf73iV4U_nz4t]--></g></svg>