<?xml version="1.0" encoding="us-ascii" standalone="no"?><svg xmlns="http://www.w3.org/2000/svg" xmlns:xlink="http://www.w3.org/1999/xlink" contentStyleType="text/css" height="597px" preserveAspectRatio="none" style="width:824px;height:597px;background:#FFFFFF;" version="1.1" viewBox="0 0 824 597" width="824px" zoomAndPan="magnify"><defs/><g><!--class EveMetadata--><g id="elem_EveMetadata"><rect codeLine="2" fill="#F1F1F1" height="129.4844" id="EveMetadata" rx="2.5" ry="2.5" style="stroke:#181818;stroke-width:0.5;" width="170" x="203" y="7"/><ellipse cx="238.25" cy="23" fill="#ADD1B2" rx="11" ry="11" style="stroke:#181818;stroke-width:1.0;"/><path d="M241.2344,28.6406 Q240.6563,28.9375 240.0156,29.0781 Q239.375,29.2344 238.6719,29.2344 Q236.1563,29.2344 234.8281,27.5938 Q233.5156,25.9375 233.5156,22.8125 Q233.5156,19.6719 234.8281,18.0313 Q236.1563,16.375 238.6719,16.375 Q239.375,16.375 240.0156,16.5313 Q240.6719,16.6719 241.2344,16.9688 L241.2344,19.6875 Q240.5938,19.1094 240,18.8438 Q239.4063,18.5781 238.7813,18.5781 Q237.4375,18.5781 236.75,19.6406 Q236.0625,20.7031 236.0625,22.8125 Q236.0625,24.9063 236.75,25.9844 Q237.4375,27.0469 238.7813,27.0469 Q239.4063,27.0469 240,26.7813 Q240.5938,26.5 241.2344,25.9219 L241.2344,28.6406 Z " fill="#000000"/><text fill="#000000" font-family="sans-serif" font-size="14" lengthAdjust="spacing" textLength="93" x="256.75" y="27.8467">EveMetadata</text><line style="stroke:#181818;stroke-width:0.5;" x1="204" x2="372" y1="39" y2="39"/><text fill="#000000" font-family="sans-serif" font-size="14" lengthAdjust="spacing" textLength="68" x="209" y="55.9951">id : String</text><text fill="#000000" font-family="sans-serif" font-size="14" lengthAdjust="spacing" textLength="96" x="209" y="72.292">name : String</text><text fill="#000000" font-family="sans-serif" font-size="14" lengthAdjust="spacing" textLength="72" x="209" y="88.5889">pv : String</text><text fill="#000000" font-family="sans-serif" font-size="14" lengthAdjust="spacing" textLength="158" x="209" y="104.8857">transport_type : String</text><text fill="#000000" font-family="sans-serif" font-size="14" lengthAdjust="spacing" textLength="117" x="209" y="121.1826">section : Section</text><line style="stroke:#181818;stroke-width:0.5;" x1="204" x2="372" y1="128.4844" y2="128.4844"/></g><!--class EveData--><g id="elem_EveData"><rect codeLine="10" fill="#F1F1F1" height="48" id="EveData" rx="2.5" ry="2.5" style="stroke:#181818;stroke-width:0.5;" width="92" x="55" y="220.5"/><ellipse cx="70" cy="236.5" fill="#ADD1B2" rx="11" ry="11" style="stroke:#181818;stroke-width:1.0;"/><path d="M72.9844,242.1406 Q72.4063,242.4375 71.7656,242.5781 Q71.125,242.7344 70.4219,242.7344 Q67.9063,242.7344 66.5781,241.0938 Q65.2656,239.4375 65.2656,236.3125 Q65.2656,233.1719 66.5781,231.5313 Q67.9063,229.875 70.4219,229.875 Q71.125,229.875 71.7656,230.0313 Q72.4219,230.1719 72.9844,230.4688 L72.9844,233.1875 Q72.3438,232.6094 71.75,232.3438 Q71.1563,232.0781 70.5313,232.0781 Q69.1875,232.0781 68.5,233.1406 Q67.8125,234.2031 67.8125,236.3125 Q67.8125,238.4063 68.5,239.4844 Q69.1875,240.5469 70.5313,240.5469 Q71.1563,240.5469 71.75,240.2813 Q72.3438,240 72.9844,239.4219 L72.9844,242.1406 Z " fill="#000000"/><text fill="#000000" font-family="sans-serif" font-size="14" lengthAdjust="spacing" textLength="60" x="84" y="241.3467">EveData</text><line style="stroke:#181818;stroke-width:0.5;" x1="56" x2="146" y1="252.5" y2="252.5"/><line style="stroke:#181818;stroke-width:0.5;" x1="56" x2="146" y1="260.5" y2="260.5"/></g><g id="elem_GMN4"><path d="M6,365 L6,405.2656 A0,0 0 0 0 6,405.2656 L170,405.2656 A0,0 0 0 0 170,405.2656 L170,375 L160,365 L93.81,365 L98.82,268.68 L85.81,365 L6,365 A0,0 0 0 0 6,365 " fill="#FEFFDD" style="stroke:#181818;stroke-width:0.5;"/><path d="M160,365 L160,375 L170,375 L160,365 " fill="#FEFFDD" style="stroke:#181818;stroke-width:0.5;"/><text fill="#000000" font-family="sans-serif" font-size="13" lengthAdjust="spacing" textLength="143" x="12" y="382.0669">See separate diagram</text><text fill="#000000" font-family="sans-serif" font-size="13" lengthAdjust="spacing" textLength="120" x="12" y="397.1997">for class hierarchy</text></g><!--class Section--><g id="elem_Section"><rect codeLine="14" fill="#F1F1F1" height="96.8906" id="Section" rx="2.5" ry="2.5" style="stroke:#181818;stroke-width:0.5;" width="85" x="630.5" y="196"/><ellipse cx="645.5" cy="212" fill="#EB937F" rx="11" ry="11" style="stroke:#181818;stroke-width:1.0;"/><path d="M649.625,218 L641.8906,218 L641.8906,205.5938 L649.625,205.5938 L649.625,207.75 L644.3438,207.75 L644.3438,210.4375 L649.125,210.4375 L649.125,212.5938 L644.3438,212.5938 L644.3438,215.8438 L649.625,215.8438 L649.625,218 Z " fill="#000000"/><text fill="#000000" font-family="sans-serif" font-size="14" lengthAdjust="spacing" textLength="53" x="659.5" y="216.8467">Section</text><line style="stroke:#181818;stroke-width:0.5;" x1="631.5" x2="714.5" y1="228" y2="228"/><text fill="#000000" font-family="sans-serif" font-size="14" lengthAdjust="spacing" textLength="63" x="636.5" y="244.9951">standard</text><text fill="#000000" font-family="sans-serif" font-size="14" lengthAdjust="spacing" textLength="56" x="636.5" y="261.292">monitor</text><text fill="#000000" font-family="sans-serif" font-size="14" lengthAdjust="spacing" textLength="64" x="636.5" y="277.5889">snapshot</text><line style="stroke:#181818;stroke-width:0.5;" x1="631.5" x2="714.5" y1="284.8906" y2="284.8906"/></g><g id="elem_GMN8"><path d="M528.5,51.5 L528.5,91.7656 A0,0 0 0 0 528.5,91.7656 L669,91.7656 L673,195.88 L677,91.7656 L817.5,91.7656 A0,0 0 0 0 817.5,91.7656 L817.5,61.5 L807.5,51.5 L528.5,51.5 A0,0 0 0 0 528.5,51.5 " fill="#FEFFDD" style="stroke:#181818;stroke-width:0.5;"/><path d="M807.5,51.5 L807.5,61.5 L817.5,61.5 L807.5,51.5 " fill="#FEFFDD" style="stroke:#181818;stroke-width:0.5;"/><text fill="#000000" font-family="sans-serif" font-size="13" lengthAdjust="spacing" textLength="263" x="534.5" y="68.5669">These sections may change their names</text><text fill="#000000" font-family="sans-serif" font-size="13" lengthAdjust="spacing" textLength="268" x="534.5" y="83.6997">and need not reflect the eveH5 structure.</text></g><!--class EveMeasureMetadata--><g id="elem_EveMeasureMetadata"><rect codeLine="21" fill="#F1F1F1" height="64.2969" id="EveMeasureMetadata" rx="2.5" ry="2.5" style="stroke:#181818;stroke-width:0.5;" width="186" x="195" y="212.5"/><ellipse cx="210" cy="228.5" fill="#ADD1B2" rx="11" ry="11" style="stroke:#181818;stroke-width:1.0;"/><path d="M212.9844,234.1406 Q212.4063,234.4375 211.7656,234.5781 Q211.125,234.7344 210.4219,234.7344 Q207.9063,234.7344 206.5781,233.0938 Q205.2656,231.4375 205.2656,228.3125 Q205.2656,225.1719 206.5781,223.5313 Q207.9063,221.875 210.4219,221.875 Q211.125,221.875 211.7656,222.0313 Q212.4219,222.1719 212.9844,222.4688 L212.9844,225.1875 Q212.3438,224.6094 211.75,224.3438 Q211.1563,224.0781 210.5313,224.0781 Q209.1875,224.0781 208.5,225.1406 Q207.8125,226.2031 207.8125,228.3125 Q207.8125,230.4063 208.5,231.4844 Q209.1875,232.5469 210.5313,232.5469 Q211.1563,232.5469 211.75,232.2813 Q212.3438,232 212.9844,231.4219 L212.9844,234.1406 Z " fill="#000000"/><text fill="#000000" font-family="sans-serif" font-size="14" lengthAdjust="spacing" textLength="154" x="224" y="233.3467">EveMeasureMetadata</text><line style="stroke:#181818;stroke-width:0.5;" x1="196" x2="380" y1="244.5" y2="244.5"/><text fill="#000000" font-family="sans-serif" font-size="14" lengthAdjust="spacing" textLength="82" x="201" y="261.4951">unit : String</text><line style="stroke:#181818;stroke-width:0.5;" x1="196" x2="380" y1="268.7969" y2="268.7969"/></g><!--class EveMonitorMetadata--><g id="elem_EveMonitorMetadata"><rect codeLine="25" fill="#F1F1F1" height="48" id="EveMonitorMetadata" rx="2.5" ry="2.5" style="stroke:#181818;stroke-width:0.5;" width="179" x="416.5" y="220.5"/><ellipse cx="431.5" cy="236.5" fill="#ADD1B2" rx="11" ry="11" style="stroke:#181818;stroke-width:1.0;"/><path d="M434.4844,242.1406 Q433.9063,242.4375 433.2656,242.5781 Q432.625,242.7344 431.9219,242.7344 Q429.4063,242.7344 428.0781,241.0938 Q426.7656,239.4375 426.7656,236.3125 Q426.7656,233.1719 428.0781,231.5313 Q429.4063,229.875 431.9219,229.875 Q432.625,229.875 433.2656,230.0313 Q433.9219,230.1719 434.4844,230.4688 L434.4844,233.1875 Q433.8438,232.6094 433.25,232.3438 Q432.6563,232.0781 432.0313,232.0781 Q430.6875,232.0781 430,233.1406 Q429.3125,234.2031 429.3125,236.3125 Q429.3125,238.4063 430,239.4844 Q430.6875,240.5469 432.0313,240.5469 Q432.6563,240.5469 433.25,240.2813 Q433.8438,240 434.4844,239.4219 L434.4844,242.1406 Z " fill="#000000"/><text fill="#000000" font-family="sans-serif" font-size="14" lengthAdjust="spacing" textLength="147" x="445.5" y="241.3467">EveMonitorMetadata</text><line style="stroke:#181818;stroke-width:0.5;" x1="417.5" x2="594.5" y1="252.5" y2="252.5"/><line style="stroke:#181818;stroke-width:0.5;" x1="417.5" x2="594.5" y1="260.5" y2="260.5"/></g><!--class EveMotorMetadata--><g id="elem_EveMotorMetadata"><rect codeLine="28" fill="#F1F1F1" height="48" id="EveMotorMetadata" rx="2.5" ry="2.5" style="stroke:#181818;stroke-width:0.5;" width="166" x="205" y="361"/><ellipse cx="220" cy="377" fill="#ADD1B2" rx="11" ry="11" style="stroke:#181818;stroke-width:1.0;"/><path d="M222.9844,382.6406 Q222.4063,382.9375 221.7656,383.0781 Q221.125,383.2344 220.4219,383.2344 Q217.9063,383.2344 216.5781,381.5938 Q215.2656,379.9375 215.2656,376.8125 Q215.2656,373.6719 216.5781,372.0313 Q217.9063,370.375 220.4219,370.375 Q221.125,370.375 221.7656,370.5313 Q222.4219,370.6719 222.9844,370.9688 L222.9844,373.6875 Q222.3438,373.1094 221.75,372.8438 Q221.1563,372.5781 220.5313,372.5781 Q219.1875,372.5781 218.5,373.6406 Q217.8125,374.7031 217.8125,376.8125 Q217.8125,378.9063 218.5,379.9844 Q219.1875,381.0469 220.5313,381.0469 Q221.1563,381.0469 221.75,380.7813 Q222.3438,380.5 222.9844,379.9219 L222.9844,382.6406 Z " fill="#000000"/><text fill="#000000" font-family="sans-serif" font-size="14" lengthAdjust="spacing" textLength="134" x="234" y="381.8467">EveMotorMetadata</text><line style="stroke:#181818;stroke-width:0.5;" x1="206" x2="370" y1="393" y2="393"/><line style="stroke:#181818;stroke-width:0.5;" x1="206" x2="370" y1="401" y2="401"/></g><!--class EveDetectorMetadata--><g id="elem_EveDetectorMetadata"><rect codeLine="31" fill="#F1F1F1" height="64.2969" id="EveDetectorMetadata" rx="2.5" ry="2.5" style="stroke:#181818;stroke-width:0.5;" width="187" x="406.5" y="353"/><ellipse cx="421.5" cy="369" fill="#ADD1B2" rx="11" ry="11" style="stroke:#181818;stroke-width:1.0;"/><path d="M424.4844,374.6406 Q423.9063,374.9375 423.2656,375.0781 Q422.625,375.2344 421.9219,375.2344 Q419.4063,375.2344 418.0781,373.5938 Q416.7656,371.9375 416.7656,368.8125 Q416.7656,365.6719 418.0781,364.0313 Q419.4063,362.375 421.9219,362.375 Q422.625,362.375 423.2656,362.5313 Q423.9219,362.6719 424.4844,362.9688 L424.4844,365.6875 Q423.8438,365.1094 423.25,364.8438 Q422.6563,364.5781 422.0313,364.5781 Q420.6875,364.5781 420,365.6406 Q419.3125,366.7031 419.3125,368.8125 Q419.3125,370.9063 420,371.9844 Q420.6875,373.0469 422.0313,373.0469 Q422.6563,373.0469 423.25,372.7813 Q423.8438,372.5 424.4844,371.9219 L424.4844,374.6406 Z " fill="#000000"/><text fill="#000000" font-family="sans-serif" font-size="14" lengthAdjust="spacing" textLength="155" x="435.5" y="373.8467">EveDetectorMetadata</text><line style="stroke:#181818;stroke-width:0.5;" x1="407.5" x2="592.5" y1="385" y2="385"/><text fill="#000000" font-family="sans-serif" font-size="14" lengthAdjust="spacing" textLength="146" x="412.5" y="401.9951">normalise_id : String</text><line style="stroke:#181818;stroke-width:0.5;" x1="407.5" x2="592.5" y1="409.2969" y2="409.2969"/></g><!--class EveAverageDetectorMetadata--><g id="elem_EveAverageDetectorMetadata"><rect codeLine="35" fill="#F1F1F1" height="113.1875" id="EveAverageDetectorMetadata" rx="2.5" ry="2.5" style="stroke:#181818;stroke-width:0.5;" width="247" x="237.5" y="477"/><ellipse cx="252.5" cy="493" fill="#ADD1B2" rx="11" ry="11" style="stroke:#181818;stroke-width:1.0;"/><path d="M255.4844,498.6406 Q254.9063,498.9375 254.2656,499.0781 Q253.625,499.2344 252.9219,499.2344 Q250.4063,499.2344 249.0781,497.5938 Q247.7656,495.9375 247.7656,492.8125 Q247.7656,489.6719 249.0781,488.0313 Q250.4063,486.375 252.9219,486.375 Q253.625,486.375 254.2656,486.5313 Q254.9219,486.6719 255.4844,486.9688 L255.4844,489.6875 Q254.8438,489.1094 254.25,488.8438 Q253.6563,488.5781 253.0313,488.5781 Q251.6875,488.5781 251,489.6406 Q250.3125,490.7031 250.3125,492.8125 Q250.3125,494.9063 251,495.9844 Q251.6875,497.0469 253.0313,497.0469 Q253.6563,497.0469 254.25,496.7813 Q254.8438,496.5 255.4844,495.9219 L255.4844,498.6406 Z " fill="#000000"/><text fill="#000000" font-family="sans-serif" font-size="14" lengthAdjust="spacing" textLength="215" x="266.5" y="497.8467">EveAverageDetectorMetadata</text><line style="stroke:#181818;stroke-width:0.5;" x1="238.5" x2="483.5" y1="509" y2="509"/><text fill="#000000" font-family="sans-serif" font-size="14" lengthAdjust="spacing" textLength="113" x="243.5" y="525.9951">n_averages : int</text><text fill="#000000" font-family="sans-serif" font-size="14" lengthAdjust="spacing" textLength="107" x="243.5" y="542.292">low_limit : float</text><text fill="#000000" font-family="sans-serif" font-size="14" lengthAdjust="spacing" textLength="132" x="243.5" y="558.5889">max_attempts : int</text><text fill="#000000" font-family="sans-serif" font-size="14" lengthAdjust="spacing" textLength="149" x="243.5" y="574.8857">max_deviation : float</text><line style="stroke:#181818;stroke-width:0.5;" x1="238.5" x2="483.5" y1="582.1875" y2="582.1875"/></g><!--class EveIntervalDetectorMetadata--><g id="elem_EveIntervalDetectorMetadata"><rect codeLine="42" fill="#F1F1F1" height="64.2969" id="EveIntervalDetectorMetadata" rx="2.5" ry="2.5" style="stroke:#181818;stroke-width:0.5;" width="241" x="519.5" y="501.5"/><ellipse cx="534.5" cy="517.5" fill="#ADD1B2" rx="11" ry="11" style="stroke:#181818;stroke-width:1.0;"/><path d="M537.4844,523.1406 Q536.9063,523.4375 536.2656,523.5781 Q535.625,523.7344 534.9219,523.7344 Q532.4063,523.7344 531.0781,522.0938 Q529.7656,520.4375 529.7656,517.3125 Q529.7656,514.1719 531.0781,512.5313 Q532.4063,510.875 534.9219,510.875 Q535.625,510.875 536.2656,511.0313 Q536.9219,511.1719 537.4844,511.4688 L537.4844,514.1875 Q536.8438,513.6094 536.25,513.3438 Q535.6563,513.0781 535.0313,513.0781 Q533.6875,513.0781 533,514.1406 Q532.3125,515.2031 532.3125,517.3125 Q532.3125,519.4063 533,520.4844 Q533.6875,521.5469 535.0313,521.5469 Q535.6563,521.5469 536.25,521.2813 Q536.8438,521 537.4844,520.4219 L537.4844,523.1406 Z " fill="#000000"/><text fill="#000000" font-family="sans-serif" font-size="14" lengthAdjust="spacing" textLength="209" x="548.5" y="522.3467">EveIntervalDetectorMetadata</text><line style="stroke:#181818;stroke-width:0.5;" x1="520.5" x2="759.5" y1="533.5" y2="533.5"/><text fill="#000000" font-family="sans-serif" font-size="14" lengthAdjust="spacing" textLength="154" x="525.5" y="550.4951">trigger_interval : float</text><line style="stroke:#181818;stroke-width:0.5;" x1="520.5" x2="759.5" y1="557.7969" y2="557.7969"/></g><!--reverse link EveMetadata to EveData--><g id="link_EveMetadata_EveData"><path codeLine="46" d="M209.5149,144.2686 C177.3249,173.7086 149.94,198.75 126.36,220.31 " fill="none" id="EveMetadata-backto-EveData" style="stroke:#181818;stroke-width:1.0;"/><polygon fill="#181818" points="218.37,136.17,211.2429,137.2676,209.5149,144.2686,216.642,143.171,218.37,136.17" style="stroke:#181818;stroke-width:1.0;"/></g><!--reverse link EveMetadata to EveMeasureMetadata--><g id="link_EveMetadata_EveMeasureMetadata"><path codeLine="47" d="M288,154.17 C288,180.19 288,191.1 288,212.35 " fill="none" id="EveMetadata-backto-EveMeasureMetadata" style="stroke:#181818;stroke-width:1.0;"/><polygon fill="none" points="288,136.17,282,154.17,294,154.17,288,136.17" style="stroke:#181818;stroke-width:1.0;"/></g><!--reverse link EveMetadata to EveMonitorMetadata--><g id="link_EveMetadata_EveMonitorMetadata"><path codeLine="48" d="M383.3411,147.2815 C420.8611,176.7215 448.95,198.75 476.44,220.31 " fill="none" id="EveMetadata-backto-EveMonitorMetadata" style="stroke:#181818;stroke-width:1.0;"/><polygon fill="none" points="369.18,136.17,379.6372,152.0018,387.0449,142.5611,369.18,136.17" style="stroke:#181818;stroke-width:1.0;"/></g><!--reverse link EveMeasureMetadata to EveDetectorMetadata--><g id="link_EveMeasureMetadata_EveDetectorMetadata"><path codeLine="49" d="M350.6489,286.4252 C385.4389,309.1552 417.37,330.02 452.22,352.78 " fill="none" id="EveMeasureMetadata-backto-EveDetectorMetadata" style="stroke:#181818;stroke-width:1.0;"/><polygon fill="none" points="335.58,276.58,347.3671,291.4482,353.9306,281.4023,335.58,276.58" style="stroke:#181818;stroke-width:1.0;"/></g><!--reverse link EveMeasureMetadata to EveMotorMetadata--><g id="link_EveMeasureMetadata_EveMotorMetadata"><path codeLine="50" d="M288,294.58 C288,320.1 288,337.68 288,360.78 " fill="none" id="EveMeasureMetadata-backto-EveMotorMetadata" style="stroke:#181818;stroke-width:1.0;"/><polygon fill="none" points="288,276.58,282,294.58,294,294.58,288,276.58" style="stroke:#181818;stroke-width:1.0;"/></g><!--reverse link EveDetectorMetadata to EveAverageDetectorMetadata--><g id="link_EveDetectorMetadata_EveAverageDetectorMetadata"><path codeLine="51" d="M458.1346,430.1314 C441.6446,447.5214 432.97,456.65 413.73,476.93 " fill="none" id="EveDetectorMetadata-backto-EveAverageDetectorMetadata" style="stroke:#181818;stroke-width:1.0;"/><polygon fill="none" points="470.52,417.07,453.7807,426.0029,462.4884,434.2599,470.52,417.07" style="stroke:#181818;stroke-width:1.0;"/></g><!--reverse link EveDetectorMetadata to EveIntervalDetectorMetadata--><g id="link_EveDetectorMetadata_EveIntervalDetectorMetadata"><path codeLine="52" d="M542.1268,430.0826 C565.8868,454.9426 586.61,476.63 610.35,501.48 " fill="none" id="EveDetectorMetadata-backto-EveIntervalDetectorMetadata" style="stroke:#181818;stroke-width:1.0;"/><polygon fill="none" points="529.69,417.07,537.7893,434.2281,546.4643,425.937,529.69,417.07" style="stroke:#181818;stroke-width:1.0;"/></g><!--SRC=[VL8zQyCm4DtrApGNqgrBw598eHqojMF0NEsBBR1EvdHs6zByzyfMH6KJnuEmteVkwKvb2zxhrm7tA521W3uh7JvJwQt-43PKJti2YtEa6-PxOI3VEPP2Jjr2wx4KusW4uv-wA5McqhjOzgB82Uel9-BigCJWwu0XW9M1ci4UwEXOHsDZa87BvgGKKc_JoTVyNe0gu6hQM4T674U2eFEDarHENBVLdmrwJ2czjd3IPGDK1xf1mzFj_O72aPeGm-94CnxRO1WL6WTyUmerkI-bPtpCBhT7y05QjBSFWVvRb3TZ7xCc_Nb1PfIUSpkK46T6JuDpRA4r7ejyfBdnPGYDh5Vz1KJU1xSXcS3MVHUjiTCTZgs3Y5huAK04RIUvU8Gh70nSdq0qv0dUIP07Q5SYXCXrZLoOgom_8t-v3vjDUaup_Fat4ejHtDRCswzkJ319bsdlQMU3KxUcbPGhqxZhMUkVKdy0]--></g></svg>