<?xml version="1.0" encoding="us-ascii" standalone="no"?><svg xmlns="http://www.w3.org/2000/svg" xmlns:xlink="http://www.w3.org/1999/xlink" contentStyleType="text/css" height="727px" preserveAspectRatio="none" style="width:973px;height:727px;background:#FFFFFF;" version="1.1" viewBox="0 0 973 727" width="973px" zoomAndPan="magnify"><defs/><g><!--class Metadata--><g id="elem_Metadata"><rect codeLine="2" fill="#F1F1F1" height="80.8125" id="Metadata" rx="2.5" ry="2.5" style="stroke:#181818;stroke-width:0.5;" width="112" x="127.5" y="23.5"/><ellipse cx="151.05" cy="39.5" fill="#ADD1B2" rx="11" ry="11" style="stroke:#181818;stroke-width:1.0;"/><path d="M151.0969,45.7031 C152.5969,45.7031 153.8313,45.1406 154.7375,44.0781 L153.3625,42.5625 C152.8156,43.1563 152.1594,43.5469 151.3625,43.5469 C149.6906,43.5469 148.5344,42.2188 148.5344,39.9375 C148.5344,37.7188 149.6906,36.375 151.2531,36.375 C152.0656,36.375 152.6594,36.6875 153.1906,37.1719 L154.5656,35.625 C153.8156,34.8906 152.6594,34.2188 151.2531,34.2188 C148.3,34.2188 145.9719,36.3594 145.9719,40.0313 C145.9719,43.75 148.3469,45.7031 151.0969,45.7031 Z " fill="#000000"/><text fill="#000000" font-family="sans-serif" font-size="14" lengthAdjust="spacing" textLength="61" x="166.95" y="44.2852">Metadata</text><line style="stroke:#181818;stroke-width:0.5;" x1="128.5" x2="238.5" y1="55.5" y2="55.5"/><text fill="#000000" font-family="sans-serif" font-size="14" lengthAdjust="spacing" textLength="80" x="133.5" y="72.4883">name : string</text><text fill="#000000" font-family="sans-serif" font-size="14" lengthAdjust="spacing" textLength="100" x="133.5" y="88.8945">section : Section</text><line style="stroke:#181818;stroke-width:0.5;" x1="128.5" x2="238.5" y1="96.3125" y2="96.3125"/></g><!--class Data--><g id="elem_Data"><rect codeLine="7" fill="#F1F1F1" height="48" id="Data" rx="2.5" ry="2.5" style="stroke:#181818;stroke-width:0.5;" width="62" x="30.5" y="40"/><ellipse cx="45.5" cy="56" fill="#ADD1B2" rx="11" ry="11" style="stroke:#181818;stroke-width:1.0;"/><path d="M45.5469,62.2031 C47.0469,62.2031 48.2813,61.6406 49.1875,60.5781 L47.8125,59.0625 C47.2656,59.6563 46.6094,60.0469 45.8125,60.0469 C44.1406,60.0469 42.9844,58.7188 42.9844,56.4375 C42.9844,54.2188 44.1406,52.875 45.7031,52.875 C46.5156,52.875 47.1094,53.1875 47.6406,53.6719 L49.0156,52.125 C48.2656,51.3906 47.1094,50.7188 45.7031,50.7188 C42.75,50.7188 40.4219,52.8594 40.4219,56.5313 C40.4219,60.25 42.7969,62.2031 45.5469,62.2031 Z " fill="#000000"/><text fill="#000000" font-family="sans-serif" font-size="14" lengthAdjust="spacing" textLength="30" x="59.5" y="60.7852">Data</text><line style="stroke:#181818;stroke-width:0.5;" x1="31.5" x2="91.5" y1="72" y2="72"/><line style="stroke:#181818;stroke-width:0.5;" x1="31.5" x2="91.5" y1="80" y2="80"/></g><g id="elem_GMN4"><path d="M6,209.5 L6,249.9688 A0,0 0 0 0 6,249.9688 L117,249.9688 A0,0 0 0 0 117,249.9688 L117,219.5 L107,209.5 L65.5,209.5 L61.5,88.08 L57.5,209.5 L6,209.5 A0,0 0 0 0 6,209.5 " fill="#FEFFDD" style="stroke:#181818;stroke-width:0.5;"/><path d="M107,209.5 L107,219.5 L117,219.5 L107,209.5 " fill="#FEFFDD" style="stroke:#181818;stroke-width:0.5;"/><text fill="#000000" font-family="sans-serif" font-size="13" lengthAdjust="spacing" textLength="90" x="12" y="226.5605">See diagram for</text><text fill="#000000" font-family="sans-serif" font-size="13" lengthAdjust="spacing" textLength="73" x="12" y="241.7949">data module.</text></g><!--class Section--><g id="elem_Section"><rect codeLine="11" fill="#F1F1F1" height="113.625" id="Section" rx="2.5" ry="2.5" style="stroke:#181818;stroke-width:0.5;" width="84" x="433.5" y="7"/><ellipse cx="451.2" cy="23" fill="#EB937F" rx="11" ry="11" style="stroke:#181818;stroke-width:1.0;"/><path d="M447.2625,29 L454.7781,29 L454.7781,26.8906 L449.7781,26.8906 L449.7781,24.3438 L453.8719,24.3438 L453.8719,22.25 L449.7781,22.25 L449.7781,20.0313 L454.6063,20.0313 L454.6063,17.9219 L447.2625,17.9219 L447.2625,29 Z " fill="#000000"/><text fill="#000000" font-family="sans-serif" font-size="14" lengthAdjust="spacing" textLength="46" x="465.8" y="27.7852">Section</text><line style="stroke:#181818;stroke-width:0.5;" x1="434.5" x2="516.5" y1="39" y2="39"/><text fill="#000000" font-family="sans-serif" font-size="14" lengthAdjust="spacing" textLength="71" x="439.5" y="55.9883">STANDARD</text><text fill="#000000" font-family="sans-serif" font-size="14" lengthAdjust="spacing" textLength="72" x="439.5" y="72.3945">SNAPSHOT</text><text fill="#000000" font-family="sans-serif" font-size="14" lengthAdjust="spacing" textLength="63" x="439.5" y="88.8008">MONITOR</text><text fill="#000000" font-family="sans-serif" font-size="14" lengthAdjust="spacing" textLength="37" x="439.5" y="105.207">META</text><line style="stroke:#181818;stroke-width:0.5;" x1="434.5" x2="516.5" y1="112.625" y2="112.625"/></g><!--class Transport--><g id="elem_Transport"><rect codeLine="18" fill="#F1F1F1" height="80.8125" id="Transport" rx="2.5" ry="2.5" style="stroke:#181818;stroke-width:0.5;" width="94" x="680.5" y="23.5"/><ellipse cx="695.5" cy="39.5" fill="#EB937F" rx="11" ry="11" style="stroke:#181818;stroke-width:1.0;"/><path d="M691.5625,45.5 L699.0781,45.5 L699.0781,43.3906 L694.0781,43.3906 L694.0781,40.8438 L698.1719,40.8438 L698.1719,38.75 L694.0781,38.75 L694.0781,36.5313 L698.9063,36.5313 L698.9063,34.4219 L691.5625,34.4219 L691.5625,45.5 Z " fill="#000000"/><text fill="#000000" font-family="sans-serif" font-size="14" lengthAdjust="spacing" textLength="62" x="709.5" y="44.2852">Transport</text><line style="stroke:#181818;stroke-width:0.5;" x1="681.5" x2="773.5" y1="55.5" y2="55.5"/><text fill="#000000" font-family="sans-serif" font-size="14" lengthAdjust="spacing" textLength="18" x="686.5" y="72.4883">CA</text><text fill="#000000" font-family="sans-serif" font-size="14" lengthAdjust="spacing" textLength="44" x="686.5" y="88.8945">LOCAL</text><line style="stroke:#181818;stroke-width:0.5;" x1="681.5" x2="773.5" y1="96.3125" y2="96.3125"/></g><g id="elem_GMN9"><path d="M646,194 L646,264.9375 A0,0 0 0 0 646,264.9375 L809,264.9375 A0,0 0 0 0 809,264.9375 L809,204 L799,194 L731.5,194 L727.5,104.58 L723.5,194 L646,194 A0,0 0 0 0 646,194 " fill="#FEFFDD" style="stroke:#181818;stroke-width:0.5;"/><path d="M799,194 L799,204 L809,204 L799,194 " fill="#FEFFDD" style="stroke:#181818;stroke-width:0.5;"/><text fill="#000000" font-family="sans-serif" font-size="13" lengthAdjust="spacing" textLength="118" x="652" y="211.0605">This is defined in the</text><text fill="#000000" font-family="sans-serif" font-size="13" lengthAdjust="spacing" textLength="108" x="652" y="226.2949">scml.setup module</text><text fill="#000000" font-family="sans-serif" font-size="13" lengthAdjust="spacing" textLength="113" x="652" y="241.5293">as well. Generalise?</text><text fill="#000000" font-family="sans-serif" font-size="13" lengthAdjust="spacing" textLength="142" x="652" y="256.7637">Use instance from there?</text></g><!--class DeviceMetadata--><g id="elem_DeviceMetadata"><rect codeLine="24" fill="#F1F1F1" height="97.2188" id="DeviceMetadata" rx="2.5" ry="2.5" style="stroke:#181818;stroke-width:0.5;" width="175" x="254" y="181"/><ellipse cx="290.15" cy="197" fill="#B4A7E5" rx="11" ry="11" style="stroke:#181818;stroke-width:1.0;"/><path d="M286.4156,203 L294.0875,203 L294.0875,200.8906 L291.5094,200.8906 L291.5094,194.0313 L294.0875,194.0313 L294.0875,191.9219 L286.4156,191.9219 L286.4156,194.0313 L288.9938,194.0313 L288.9938,200.8906 L286.4156,200.8906 L286.4156,203 Z " fill="#000000"/><text fill="#000000" font-family="sans-serif" font-size="14" font-style="italic" lengthAdjust="spacing" textLength="96" x="308.85" y="201.7852">DeviceMetadata</text><line style="stroke:#181818;stroke-width:0.5;" x1="255" x2="428" y1="213" y2="213"/><text fill="#000000" font-family="sans-serif" font-size="14" lengthAdjust="spacing" textLength="56" x="260" y="229.9883">id : string</text><text fill="#000000" font-family="sans-serif" font-size="14" lengthAdjust="spacing" textLength="60" x="260" y="246.3945">pv : string</text><text fill="#000000" font-family="sans-serif" font-size="14" lengthAdjust="spacing" textLength="163" x="260" y="262.8008">transport_type : Transport</text><line style="stroke:#181818;stroke-width:0.5;" x1="255" x2="428" y1="270.2188" y2="270.2188"/></g><!--class MeasureMetadata--><g id="elem_MeasureMetadata"><rect codeLine="30" fill="#F1F1F1" height="64.4063" id="MeasureMetadata" rx="2.5" ry="2.5" style="stroke:#181818;stroke-width:0.5;" width="147" x="464" y="197.5"/><ellipse cx="479" cy="213.5" fill="#ADD1B2" rx="11" ry="11" style="stroke:#181818;stroke-width:1.0;"/><path d="M479.0469,219.7031 C480.5469,219.7031 481.7813,219.1406 482.6875,218.0781 L481.3125,216.5625 C480.7656,217.1563 480.1094,217.5469 479.3125,217.5469 C477.6406,217.5469 476.4844,216.2188 476.4844,213.9375 C476.4844,211.7188 477.6406,210.375 479.2031,210.375 C480.0156,210.375 480.6094,210.6875 481.1406,211.1719 L482.5156,209.625 C481.7656,208.8906 480.6094,208.2188 479.2031,208.2188 C476.25,208.2188 473.9219,210.3594 473.9219,214.0313 C473.9219,217.75 476.2969,219.7031 479.0469,219.7031 Z " fill="#000000"/><text fill="#000000" font-family="sans-serif" font-size="14" lengthAdjust="spacing" textLength="115" x="493" y="218.2852">MeasureMetadata</text><line style="stroke:#181818;stroke-width:0.5;" x1="465" x2="610" y1="229.5" y2="229.5"/><text fill="#000000" font-family="sans-serif" font-size="14" lengthAdjust="spacing" textLength="69" x="470" y="246.4883">unit : string</text><line style="stroke:#181818;stroke-width:0.5;" x1="465" x2="610" y1="253.9063" y2="253.9063"/></g><!--class MonitorMetadata--><g id="elem_MonitorMetadata"><rect codeLine="34" fill="#F1F1F1" height="64.4063" id="MonitorMetadata" rx="2.5" ry="2.5" style="stroke:#181818;stroke-width:0.5;" width="179" x="62" y="338"/><ellipse cx="93.65" cy="354" fill="#ADD1B2" rx="11" ry="11" style="stroke:#181818;stroke-width:1.0;"/><path d="M93.6969,360.2031 C95.1969,360.2031 96.4313,359.6406 97.3375,358.5781 L95.9625,357.0625 C95.4156,357.6563 94.7594,358.0469 93.9625,358.0469 C92.2906,358.0469 91.1344,356.7188 91.1344,354.4375 C91.1344,352.2188 92.2906,350.875 93.8531,350.875 C94.6656,350.875 95.2594,351.1875 95.7906,351.6719 L97.1656,350.125 C96.4156,349.3906 95.2594,348.7188 93.8531,348.7188 C90.9,348.7188 88.5719,350.8594 88.5719,354.5313 C88.5719,358.25 90.9469,360.2031 93.6969,360.2031 Z " fill="#000000"/><text fill="#000000" font-family="sans-serif" font-size="14" lengthAdjust="spacing" textLength="110" x="111.35" y="358.7852">MonitorMetadata</text><line style="stroke:#181818;stroke-width:0.5;" x1="63" x2="240" y1="370" y2="370"/><text fill="#000000" font-family="sans-serif" font-size="14" lengthAdjust="spacing" textLength="167" x="68" y="386.9883">section : Section.MONITOR</text><line style="stroke:#181818;stroke-width:0.5;" x1="63" x2="240" y1="394.4063" y2="394.4063"/></g><!--class MotorMetadata--><g id="elem_MotorMetadata"><rect codeLine="38" fill="#F1F1F1" height="48" id="MotorMetadata" rx="2.5" ry="2.5" style="stroke:#181818;stroke-width:0.5;" width="131" x="276" y="346"/><ellipse cx="291" cy="362" fill="#ADD1B2" rx="11" ry="11" style="stroke:#181818;stroke-width:1.0;"/><path d="M291.0469,368.2031 C292.5469,368.2031 293.7813,367.6406 294.6875,366.5781 L293.3125,365.0625 C292.7656,365.6563 292.1094,366.0469 291.3125,366.0469 C289.6406,366.0469 288.4844,364.7188 288.4844,362.4375 C288.4844,360.2188 289.6406,358.875 291.2031,358.875 C292.0156,358.875 292.6094,359.1875 293.1406,359.6719 L294.5156,358.125 C293.7656,357.3906 292.6094,356.7188 291.2031,356.7188 C288.25,356.7188 285.9219,358.8594 285.9219,362.5313 C285.9219,366.25 288.2969,368.2031 291.0469,368.2031 Z " fill="#000000"/><text fill="#000000" font-family="sans-serif" font-size="14" lengthAdjust="spacing" textLength="99" x="305" y="366.7852">MotorMetadata</text><line style="stroke:#181818;stroke-width:0.5;" x1="277" x2="406" y1="378" y2="378"/><line style="stroke:#181818;stroke-width:0.5;" x1="277" x2="406" y1="386" y2="386"/></g><!--class DetectorMetadata--><g id="elem_DetectorMetadata"><rect codeLine="41" fill="#F1F1F1" height="64.4063" id="DetectorMetadata" rx="2.5" ry="2.5" style="stroke:#181818;stroke-width:0.5;" width="146" x="442.5" y="338"/><ellipse cx="457.5" cy="354" fill="#ADD1B2" rx="11" ry="11" style="stroke:#181818;stroke-width:1.0;"/><path d="M457.5469,360.2031 C459.0469,360.2031 460.2813,359.6406 461.1875,358.5781 L459.8125,357.0625 C459.2656,357.6563 458.6094,358.0469 457.8125,358.0469 C456.1406,358.0469 454.9844,356.7188 454.9844,354.4375 C454.9844,352.2188 456.1406,350.875 457.7031,350.875 C458.5156,350.875 459.1094,351.1875 459.6406,351.6719 L461.0156,350.125 C460.2656,349.3906 459.1094,348.7188 457.7031,348.7188 C454.75,348.7188 452.4219,350.8594 452.4219,354.5313 C452.4219,358.25 454.7969,360.2031 457.5469,360.2031 Z " fill="#000000"/><text fill="#000000" font-family="sans-serif" font-size="14" lengthAdjust="spacing" textLength="114" x="471.5" y="358.7852">DetectorMetadata</text><line style="stroke:#181818;stroke-width:0.5;" x1="443.5" x2="587.5" y1="370" y2="370"/><text fill="#000000" font-family="sans-serif" font-size="14" lengthAdjust="spacing" textLength="123" x="448.5" y="386.9883">normalise_id : string</text><line style="stroke:#181818;stroke-width:0.5;" x1="443.5" x2="587.5" y1="394.4063" y2="394.4063"/></g><!--class TimestampMetadata--><g id="elem_TimestampMetadata"><rect codeLine="45" fill="#F1F1F1" height="64.4063" id="TimestampMetadata" rx="2.5" ry="2.5" style="stroke:#181818;stroke-width:0.5;" width="163" x="803" y="338"/><ellipse cx="818" cy="354" fill="#ADD1B2" rx="11" ry="11" style="stroke:#181818;stroke-width:1.0;"/><path d="M818.0469,360.2031 C819.5469,360.2031 820.7813,359.6406 821.6875,358.5781 L820.3125,357.0625 C819.7656,357.6563 819.1094,358.0469 818.3125,358.0469 C816.6406,358.0469 815.4844,356.7188 815.4844,354.4375 C815.4844,352.2188 816.6406,350.875 818.2031,350.875 C819.0156,350.875 819.6094,351.1875 820.1406,351.6719 L821.5156,350.125 C820.7656,349.3906 819.6094,348.7188 818.2031,348.7188 C815.25,348.7188 812.9219,350.8594 812.9219,354.5313 C812.9219,358.25 815.2969,360.2031 818.0469,360.2031 Z " fill="#000000"/><text fill="#000000" font-family="sans-serif" font-size="14" lengthAdjust="spacing" textLength="131" x="832" y="358.7852">TimestampMetadata</text><line style="stroke:#181818;stroke-width:0.5;" x1="804" x2="965" y1="370" y2="370"/><text fill="#000000" font-family="sans-serif" font-size="14" lengthAdjust="spacing" textLength="141" x="809" y="386.9883">section : Section.META</text><line style="stroke:#181818;stroke-width:0.5;" x1="804" x2="965" y1="394.4063" y2="394.4063"/></g><!--class ExternalMetadata--><g id="elem_ExternalMetadata"><rect codeLine="49" fill="#F1F1F1" height="64.4063" id="ExternalMetadata" rx="2.5" ry="2.5" style="stroke:#181818;stroke-width:0.5;" width="144" x="623.5" y="338"/><ellipse cx="638.5" cy="354" fill="#ADD1B2" rx="11" ry="11" style="stroke:#181818;stroke-width:1.0;"/><path d="M638.5469,360.2031 C640.0469,360.2031 641.2813,359.6406 642.1875,358.5781 L640.8125,357.0625 C640.2656,357.6563 639.6094,358.0469 638.8125,358.0469 C637.1406,358.0469 635.9844,356.7188 635.9844,354.4375 C635.9844,352.2188 637.1406,350.875 638.7031,350.875 C639.5156,350.875 640.1094,351.1875 640.6406,351.6719 L642.0156,350.125 C641.2656,349.3906 640.1094,348.7188 638.7031,348.7188 C635.75,348.7188 633.4219,350.8594 633.4219,354.5313 C633.4219,358.25 635.7969,360.2031 638.5469,360.2031 Z " fill="#000000"/><text fill="#000000" font-family="sans-serif" font-size="14" lengthAdjust="spacing" textLength="112" x="652.5" y="358.7852">ExternalMetadata</text><line style="stroke:#181818;stroke-width:0.5;" x1="624.5" x2="766.5" y1="370" y2="370"/><text fill="#000000" font-family="sans-serif" font-size="14" lengthAdjust="spacing" textLength="88" x="629.5" y="386.9883">format : string</text><line style="stroke:#181818;stroke-width:0.5;" x1="624.5" x2="766.5" y1="394.4063" y2="394.4063"/></g><!--class AverageDetectorMetadata--><g id="elem_AverageDetectorMetadata"><rect codeLine="53" fill="#F1F1F1" height="97.2188" id="AverageDetectorMetadata" rx="2.5" ry="2.5" style="stroke:#181818;stroke-width:0.5;" width="197" x="76" y="462"/><ellipse cx="91" cy="478" fill="#ADD1B2" rx="11" ry="11" style="stroke:#181818;stroke-width:1.0;"/><path d="M91.0469,484.2031 C92.5469,484.2031 93.7813,483.6406 94.6875,482.5781 L93.3125,481.0625 C92.7656,481.6563 92.1094,482.0469 91.3125,482.0469 C89.6406,482.0469 88.4844,480.7188 88.4844,478.4375 C88.4844,476.2188 89.6406,474.875 91.2031,474.875 C92.0156,474.875 92.6094,475.1875 93.1406,475.6719 L94.5156,474.125 C93.7656,473.3906 92.6094,472.7188 91.2031,472.7188 C88.25,472.7188 85.9219,474.8594 85.9219,478.5313 C85.9219,482.25 88.2969,484.2031 91.0469,484.2031 Z " fill="#000000"/><text fill="#000000" font-family="sans-serif" font-size="14" lengthAdjust="spacing" textLength="165" x="105" y="482.7852">AverageDetectorMetadata</text><line style="stroke:#181818;stroke-width:0.5;" x1="77" x2="272" y1="494" y2="494"/><text fill="#000000" font-family="sans-serif" font-size="14" lengthAdjust="spacing" textLength="92" x="82" y="510.9883">low_limit : float</text><text fill="#000000" font-family="sans-serif" font-size="14" lengthAdjust="spacing" textLength="142" x="82" y="527.3945">max_attempts : integer</text><text fill="#000000" font-family="sans-serif" font-size="14" lengthAdjust="spacing" textLength="128" x="82" y="543.8008">max_deviation : float</text><line style="stroke:#181818;stroke-width:0.5;" x1="77" x2="272" y1="551.2188" y2="551.2188"/></g><g id="elem_GMN31"><path d="M22,619 L22,720.4063 A0,0 0 0 0 22,720.4063 L327,720.4063 A0,0 0 0 0 327,720.4063 L327,629 L317,619 L178.5,619 L174.5,559.03 L170.5,619 L22,619 A0,0 0 0 0 22,619 " fill="#FEFFDD" style="stroke:#181818;stroke-width:0.5;"/><path d="M317,619 L317,629 L327,629 L317,619 " fill="#FEFFDD" style="stroke:#181818;stroke-width:0.5;"/><text fill="#000000" font-family="sans-serif" font-size="13" lengthAdjust="spacing" textLength="280" x="28" y="636.0605">These attributes may change for individual values</text><text fill="#000000" font-family="sans-serif" font-size="13" lengthAdjust="spacing" textLength="284" x="28" y="651.2949">and are currently saved in eveH5 for each position.</text><text fill="#000000" font-family="sans-serif" font-size="13" lengthAdjust="spacing" textLength="3" x="28" y="666.5293">&#160;</text><text fill="#000000" font-family="sans-serif" font-size="13" lengthAdjust="spacing" textLength="234" x="28" y="681.7637">If we go for separate detectors if they are</text><text fill="#000000" font-family="sans-serif" font-size="13" lengthAdjust="spacing" textLength="205" x="28" y="696.998">redefined in different scan modules,</text><text fill="#000000" font-family="sans-serif" font-size="13" lengthAdjust="spacing" textLength="167" x="28" y="712.2324">would this solve the problem?</text></g><!--class IntervalDetectorMetadata--><g id="elem_IntervalDetectorMetadata"><rect codeLine="67" fill="#F1F1F1" height="64.4063" id="IntervalDetectorMetadata" rx="2.5" ry="2.5" style="stroke:#181818;stroke-width:0.5;" width="193" x="308" y="478.5"/><ellipse cx="323" cy="494.5" fill="#ADD1B2" rx="11" ry="11" style="stroke:#181818;stroke-width:1.0;"/><path d="M323.0469,500.7031 C324.5469,500.7031 325.7813,500.1406 326.6875,499.0781 L325.3125,497.5625 C324.7656,498.1563 324.1094,498.5469 323.3125,498.5469 C321.6406,498.5469 320.4844,497.2188 320.4844,494.9375 C320.4844,492.7188 321.6406,491.375 323.2031,491.375 C324.0156,491.375 324.6094,491.6875 325.1406,492.1719 L326.5156,490.625 C325.7656,489.8906 324.6094,489.2188 323.2031,489.2188 C320.25,489.2188 317.9219,491.3594 317.9219,495.0313 C317.9219,498.75 320.2969,500.7031 323.0469,500.7031 Z " fill="#000000"/><text fill="#000000" font-family="sans-serif" font-size="14" lengthAdjust="spacing" textLength="161" x="337" y="499.2852">IntervalDetectorMetadata</text><line style="stroke:#181818;stroke-width:0.5;" x1="309" x2="500" y1="510.5" y2="510.5"/><text fill="#000000" font-family="sans-serif" font-size="14" lengthAdjust="spacing" textLength="131" x="314" y="527.4883">trigger_interval : float</text><line style="stroke:#181818;stroke-width:0.5;" x1="309" x2="500" y1="534.9063" y2="534.9063"/></g><!--class ArrayDetectorMetadata--><g id="elem_ArrayDetectorMetadata"><rect codeLine="71" fill="#F1F1F1" height="48" id="ArrayDetectorMetadata" rx="2.5" ry="2.5" style="stroke:#181818;stroke-width:0.5;" width="180" x="536.5" y="486.5"/><ellipse cx="551.5" cy="502.5" fill="#ADD1B2" rx="11" ry="11" style="stroke:#181818;stroke-width:1.0;"/><path d="M551.5469,508.7031 C553.0469,508.7031 554.2813,508.1406 555.1875,507.0781 L553.8125,505.5625 C553.2656,506.1563 552.6094,506.5469 551.8125,506.5469 C550.1406,506.5469 548.9844,505.2188 548.9844,502.9375 C548.9844,500.7188 550.1406,499.375 551.7031,499.375 C552.5156,499.375 553.1094,499.6875 553.6406,500.1719 L555.0156,498.625 C554.2656,497.8906 553.1094,497.2188 551.7031,497.2188 C548.75,497.2188 546.4219,499.3594 546.4219,503.0313 C546.4219,506.75 548.7969,508.7031 551.5469,508.7031 Z " fill="#000000"/><text fill="#000000" font-family="sans-serif" font-size="14" lengthAdjust="spacing" textLength="148" x="565.5" y="507.2852">ArrayDetectorMetadata</text><line style="stroke:#181818;stroke-width:0.5;" x1="537.5" x2="715.5" y1="518.5" y2="518.5"/><line style="stroke:#181818;stroke-width:0.5;" x1="537.5" x2="715.5" y1="526.5" y2="526.5"/></g><!--class AreaDetectorMetadata--><g id="elem_AreaDetectorMetadata"><rect codeLine="74" fill="#F1F1F1" height="48" id="AreaDetectorMetadata" rx="2.5" ry="2.5" style="stroke:#181818;stroke-width:0.5;" width="175" x="752" y="486.5"/><ellipse cx="767" cy="502.5" fill="#ADD1B2" rx="11" ry="11" style="stroke:#181818;stroke-width:1.0;"/><path d="M767.0469,508.7031 C768.5469,508.7031 769.7813,508.1406 770.6875,507.0781 L769.3125,505.5625 C768.7656,506.1563 768.1094,506.5469 767.3125,506.5469 C765.6406,506.5469 764.4844,505.2188 764.4844,502.9375 C764.4844,500.7188 765.6406,499.375 767.2031,499.375 C768.0156,499.375 768.6094,499.6875 769.1406,500.1719 L770.5156,498.625 C769.7656,497.8906 768.6094,497.2188 767.2031,497.2188 C764.25,497.2188 761.9219,499.3594 761.9219,503.0313 C761.9219,506.75 764.2969,508.7031 767.0469,508.7031 Z " fill="#000000"/><text fill="#000000" font-family="sans-serif" font-size="14" lengthAdjust="spacing" textLength="143" x="781" y="507.2852">AreaDetectorMetadata</text><line style="stroke:#181818;stroke-width:0.5;" x1="753" x2="926" y1="518.5" y2="518.5"/><line style="stroke:#181818;stroke-width:0.5;" x1="753" x2="926" y1="526.5" y2="526.5"/></g><!--reverse link Metadata to MeasureMetadata--><g id="link_Metadata_MeasureMetadata"><path d="M256.2217,95.527 C309.8017,118.247 376,147.1 446.5,181 C457.1,186.1 468.28,191.72 479.04,197.27 " fill="none" id="Metadata-backto-MeasureMetadata" style="stroke:#181818;stroke-width:1.0;"/><polygon fill="none" points="239.65,88.5,253.8793,101.0509,258.564,90.0031,239.65,88.5" style="stroke:#181818;stroke-width:1.0;"/></g><!--reverse link Metadata to MonitorMetadata--><g id="link_Metadata_MonitorMetadata"><path d="M177.4342,122.6409 C170.9742,183.9609 160.61,282.45 154.76,338 " fill="none" id="Metadata-backto-MonitorMetadata" style="stroke:#181818;stroke-width:1.0;"/><polygon fill="none" points="179.32,104.74,171.4672,122.0123,183.4011,123.2696,179.32,104.74" style="stroke:#181818;stroke-width:1.0;"/></g><!--reverse link DeviceMetadata to MonitorMetadata--><g id="link_DeviceMetadata_MonitorMetadata"><path d="M261.5648,288.7636 C234.4048,308.5636 218.21,320.37 194.05,337.98 " fill="none" id="DeviceMetadata-backto-MonitorMetadata" style="stroke:#181818;stroke-width:1.0;stroke-dasharray:7.0,7.0;"/><polygon fill="none" points="276.11,278.16,258.0303,283.9152,265.0993,293.612,276.11,278.16" style="stroke:#181818;stroke-width:1.0;"/></g><!--reverse link MeasureMetadata to MotorMetadata--><g id="link_MeasureMetadata_MotorMetadata"><path d="M478.8095,271.9673 C442.5795,297.5673 406.73,322.91 374.06,346 " fill="none" id="MeasureMetadata-backto-MotorMetadata" style="stroke:#181818;stroke-width:1.0;"/><polygon fill="none" points="493.51,261.58,475.3471,267.0671,482.272,276.8675,493.51,261.58" style="stroke:#181818;stroke-width:1.0;"/></g><!--reverse link DeviceMetadata to MotorMetadata--><g id="link_DeviceMetadata_MotorMetadata"><path d="M341.5,296.16 C341.5,319.01 341.5,327.34 341.5,345.75 " fill="none" id="DeviceMetadata-backto-MotorMetadata" style="stroke:#181818;stroke-width:1.0;stroke-dasharray:7.0,7.0;"/><polygon fill="none" points="341.5,278.16,335.5,296.16,347.5,296.16,341.5,278.16" style="stroke:#181818;stroke-width:1.0;"/></g><!--reverse link MeasureMetadata to DetectorMetadata--><g id="link_MeasureMetadata_DetectorMetadata"><path d="M529.7345,279.3569 C526.1345,302.0069 524.11,314.81 520.5,337.54 " fill="none" id="MeasureMetadata-backto-DetectorMetadata" style="stroke:#181818;stroke-width:1.0;"/><polygon fill="none" points="532.56,261.58,523.8089,278.415,535.6602,280.2987,532.56,261.58" style="stroke:#181818;stroke-width:1.0;"/></g><!--reverse link DeviceMetadata to DetectorMetadata--><g id="link_DeviceMetadata_DetectorMetadata"><path d="M415.4621,289.3713 C440.3321,309.1713 454.41,320.37 476.53,337.98 " fill="none" id="DeviceMetadata-backto-DetectorMetadata" style="stroke:#181818;stroke-width:1.0;stroke-dasharray:7.0,7.0;"/><polygon fill="none" points="401.38,278.16,411.725,294.0654,419.1992,284.6773,401.38,278.16" style="stroke:#181818;stroke-width:1.0;"/></g><!--reverse link MeasureMetadata to TimestampMetadata--><g id="link_MeasureMetadata_TimestampMetadata"><path d="M610.2235,269.8209 C621.4535,275.5509 617.23,273.08 628.5,278 C685.68,302.94 752.1,326.4 802.96,343.25 " fill="none" id="MeasureMetadata-backto-TimestampMetadata" style="stroke:#181818;stroke-width:1.0;"/><polygon fill="none" points="594.19,261.64,607.4965,275.1654,612.9505,264.4764,594.19,261.64" style="stroke:#181818;stroke-width:1.0;"/></g><!--reverse link MeasureMetadata to ExternalMetadata--><g id="link_MeasureMetadata_ExternalMetadata"><path d="M586.4957,273.4453 C612.4257,296.1753 633.92,315.02 659.89,337.78 " fill="none" id="MeasureMetadata-backto-ExternalMetadata" style="stroke:#181818;stroke-width:1.0;"/><polygon fill="none" points="572.96,261.58,582.5406,277.9572,590.4508,268.9334,572.96,261.58" style="stroke:#181818;stroke-width:1.0;"/></g><!--reverse link DeviceMetadata to ExternalMetadata--><g id="link_DeviceMetadata_ExternalMetadata"><path d="M445.7834,277.84 C451.6134,280.33 440.85,275.69 446.5,278 C479.2,291.35 562.21,321.41 623.44,343.34 " fill="none" id="DeviceMetadata-backto-ExternalMetadata" style="stroke:#181818;stroke-width:1.0;stroke-dasharray:7.0,7.0;"/><polygon fill="none" points="429.23,270.77,443.4267,283.3578,448.1401,272.3222,429.23,270.77" style="stroke:#181818;stroke-width:1.0;"/></g><!--reverse link DetectorMetadata to AverageDetectorMetadata--><g id="link_DetectorMetadata_AverageDetectorMetadata"><path d="M425.5597,407.2706 C381.5597,425.0406 341.14,441.39 290.5,462 C284.86,464.3 279.06,466.66 273.21,469.05 " fill="none" id="DetectorMetadata-backto-AverageDetectorMetadata" style="stroke:#181818;stroke-width:1.0;"/><polygon fill="none" points="442.25,400.53,423.3129,401.7072,427.8066,412.834,442.25,400.53" style="stroke:#181818;stroke-width:1.0;"/></g><!--reverse link DetectorMetadata to IntervalDetectorMetadata--><g id="link_DetectorMetadata_IntervalDetectorMetadata"><path d="M479.3341,416.1266 C461.1841,438.7766 447.93,455.31 429.71,478.04 " fill="none" id="DetectorMetadata-backto-IntervalDetectorMetadata" style="stroke:#181818;stroke-width:1.0;"/><polygon fill="none" points="490.59,402.08,474.652,412.3746,484.0163,419.8785,490.59,402.08" style="stroke:#181818;stroke-width:1.0;"/></g><!--reverse link DetectorMetadata to ArrayDetectorMetadata--><g id="link_DetectorMetadata_ArrayDetectorMetadata"><path d="M551.6659,416.1265 C572.1159,441.6465 589.38,463.18 607.89,486.28 " fill="none" id="DetectorMetadata-backto-ArrayDetectorMetadata" style="stroke:#181818;stroke-width:1.0;"/><polygon fill="none" points="540.41,402.08,546.9837,419.8785,556.3481,412.3745,540.41,402.08" style="stroke:#181818;stroke-width:1.0;"/></g><!--reverse link DetectorMetadata to AreaDetectorMetadata--><g id="link_DetectorMetadata_AreaDetectorMetadata"><path d="M605.3919,407.6048 C648.0519,425.1148 686.15,441.03 734.5,462 C752.49,469.8 772.09,478.59 789.44,486.47 " fill="none" id="DetectorMetadata-backto-AreaDetectorMetadata" style="stroke:#181818;stroke-width:1.0;"/><polygon fill="none" points="588.74,400.77,603.1136,413.1555,607.6702,402.0542,588.74,400.77" style="stroke:#181818;stroke-width:1.0;"/></g><!--reverse link Data to Metadata--><g id="link_Data_Metadata"><path codeLine="77" d="M104.95,64 C116.39,64 115.83,64 127.26,64 " fill="none" id="Data-backto-Metadata" style="stroke:#181818;stroke-width:1.0;"/><polygon fill="#181818" points="92.95,64,98.95,68,104.95,64,98.95,60,92.95,64" style="stroke:#181818;stroke-width:1.0;"/></g><!--SRC=[fLHDQ-Cm4BtxLynvsSrjBxq4qvHje4cMndiBXAarTWJwC9BiD2pzxpkIdQycOGaDXbYotfkPzsPKAlGUPXHGO43ucm7_36g21_31ILEd7KzbaDRmvh9_opwoh4pOIO_xo8mD16ys1AlZCG8XiNQeeR9kPHAzjg9LDCeoCgtUKmr1bqK-d-IlatunptyldnT5MimMyscnUEtVdueynau4XKFZ6-l2GF6Ofx-NnMF-yZcXOYCzy2EeaeO4I0DXGolZIwr6daBR3Dcj37hOab8Z-4M672hfQRmoVpmno0Sq9K7bh8vuH-CiaoQGgv2t9zJ9aZwfASMvbartlWxxAjPXrqJT3sKTHPuH-jOTcUaza14NnhL6XYFv4MrvtxhRQAaRHPfCyDTBkB1_jFVa9CRr2ETvtmwKMcZVKXGup5VfKYTRfvE1wrCN3e4AgOaTrSr_8ztKOUZ7dk-9qSwW-aBYVQ0gvdtDohpZZgpffa8N7te-PRTh9NNgZafP36bNu_iQGo3TS1uF4Fku9dVu93Wp7EhjGMSpbSuL6-AvO18dtzf0de4xA3TeQef5CAUGdHGjAkXGjUGJ2eq0T0HbwnoBe7RWiUk7aZfw_fcWXEK66kjb4ZfBm6d5emcrJGSyDUYGyn53qJpWLPpANIHFvnsTpBkGLKKn7lWIpJ3k_diwkBMj4epb6y9RrL6aWSRPDxPfpBUDW5ZvteLfd7YkvruRMAMQ5LxB0NyYxDvVvt1t3-q9al1EOBgwl_qut0FPFm00]--></g></svg>