<?xml version="1.0" encoding="us-ascii" standalone="no"?><svg xmlns="http://www.w3.org/2000/svg" xmlns:xlink="http://www.w3.org/1999/xlink" contentStyleType="text/css" height="660px" preserveAspectRatio="none" style="width:1035px;height:660px;background:#FFFFFF;" version="1.1" viewBox="0 0 1035 660" width="1035px" zoomAndPan="magnify"><defs/><g><!--cluster scan--><g id="cluster_scan"><path d="M727,6 L758,6 A3.75,3.75 0 0 1 760.5,8.5 L767.5,28.4063 L1026,28.4063 A2.5,2.5 0 0 1 1028.5,30.9063 L1028.5,236.5 A2.5,2.5 0 0 1 1026,239 L727,239 A2.5,2.5 0 0 1 724.5,236.5 L724.5,8.5 A2.5,2.5 0 0 1 727,6 " fill="none" style="stroke:#000000;stroke-width:1.5;"/><line style="stroke:#000000;stroke-width:1.5;" x1="724.5" x2="767.5" y1="28.4063" y2="28.4063"/><text fill="#000000" font-family="sans-serif" font-size="14" font-weight="bold" lengthAdjust="spacing" textLength="30" x="728.5" y="20.9883">scan</text></g><!--cluster boundaries--><g id="cluster_boundaries"><path d="M751,49 L824,49 A3.75,3.75 0 0 1 826.5,51.5 L833.5,71.4063 L1002,71.4063 A2.5,2.5 0 0 1 1004.5,73.9063 L1004.5,212.5 A2.5,2.5 0 0 1 1002,215 L751,215 A2.5,2.5 0 0 1 748.5,212.5 L748.5,51.5 A2.5,2.5 0 0 1 751,49 " fill="none" style="stroke:#000000;stroke-width:1.5;"/><line style="stroke:#000000;stroke-width:1.5;" x1="748.5" x2="833.5" y1="71.4063" y2="71.4063"/><text fill="#000000" font-family="sans-serif" font-size="14" font-weight="bold" lengthAdjust="spacing" textLength="72" x="752.5" y="63.9883">boundaries</text></g><!--cluster scan--><g id="cluster_scan"><path d="M775,92 L806,92 A3.75,3.75 0 0 1 808.5,94.5 L815.5,114.4063 L978,114.4063 A2.5,2.5 0 0 1 980.5,116.9063 L980.5,188.5 A2.5,2.5 0 0 1 978,191 L775,191 A2.5,2.5 0 0 1 772.5,188.5 L772.5,94.5 A2.5,2.5 0 0 1 775,92 " fill="none" style="stroke:#000000;stroke-width:1.5;"/><line style="stroke:#000000;stroke-width:1.5;" x1="772.5" x2="815.5" y1="114.4063" y2="114.4063"/><text fill="#000000" font-family="sans-serif" font-size="14" font-weight="bold" lengthAdjust="spacing" textLength="30" x="776.5" y="106.9883">scan</text></g><!--class Scan--><g id="elem_Scan"><rect fill="#F1F1F1" height="48" id="Scan" rx="2.5" ry="2.5" style="stroke:#181818;stroke-width:0.5;" width="63" x="789" y="127"/><ellipse cx="804" cy="143" fill="#ADD1B2" rx="11" ry="11" style="stroke:#181818;stroke-width:1.0;"/><path d="M804.0469,149.2031 C805.5469,149.2031 806.7813,148.6406 807.6875,147.5781 L806.3125,146.0625 C805.7656,146.6563 805.1094,147.0469 804.3125,147.0469 C802.6406,147.0469 801.4844,145.7188 801.4844,143.4375 C801.4844,141.2188 802.6406,139.875 804.2031,139.875 C805.0156,139.875 805.6094,140.1875 806.1406,140.6719 L807.5156,139.125 C806.7656,138.3906 805.6094,137.7188 804.2031,137.7188 C801.25,137.7188 798.9219,139.8594 798.9219,143.5313 C798.9219,147.25 801.2969,149.2031 804.0469,149.2031 Z " fill="#000000"/><text fill="#000000" font-family="sans-serif" font-size="14" lengthAdjust="spacing" textLength="31" x="818" y="147.7852">Scan</text><line style="stroke:#181818;stroke-width:0.5;" x1="790" x2="851" y1="159" y2="159"/><line style="stroke:#181818;stroke-width:0.5;" x1="790" x2="851" y1="167" y2="167"/></g><!--class Station--><g id="elem_Station"><rect fill="#F1F1F1" height="48" id="Station" rx="2.5" ry="2.5" style="stroke:#181818;stroke-width:0.5;" width="77" x="887" y="127"/><ellipse cx="902" cy="143" fill="#ADD1B2" rx="11" ry="11" style="stroke:#181818;stroke-width:1.0;"/><path d="M902.0469,149.2031 C903.5469,149.2031 904.7813,148.6406 905.6875,147.5781 L904.3125,146.0625 C903.7656,146.6563 903.1094,147.0469 902.3125,147.0469 C900.6406,147.0469 899.4844,145.7188 899.4844,143.4375 C899.4844,141.2188 900.6406,139.875 902.2031,139.875 C903.0156,139.875 903.6094,140.1875 904.1406,140.6719 L905.5156,139.125 C904.7656,138.3906 903.6094,137.7188 902.2031,137.7188 C899.25,137.7188 896.9219,139.8594 896.9219,143.5313 C896.9219,147.25 899.2969,149.2031 902.0469,149.2031 Z " fill="#000000"/><text fill="#000000" font-family="sans-serif" font-size="14" lengthAdjust="spacing" textLength="45" x="916" y="147.7852">Station</text><line style="stroke:#181818;stroke-width:0.5;" x1="888" x2="963" y1="159" y2="159"/><line style="stroke:#181818;stroke-width:0.5;" x1="888" x2="963" y1="167" y2="167"/></g><!--class File--><g id="elem_File"><rect codeLine="2" fill="#F1F1F1" height="179.25" id="File" rx="2.5" ry="2.5" style="stroke:#181818;stroke-width:0.5;" width="251" x="405" y="61.5"/><ellipse cx="515.75" cy="77.5" fill="#ADD1B2" rx="11" ry="11" style="stroke:#181818;stroke-width:1.0;"/><path d="M515.7969,83.7031 C517.2969,83.7031 518.5313,83.1406 519.4375,82.0781 L518.0625,80.5625 C517.5156,81.1563 516.8594,81.5469 516.0625,81.5469 C514.3906,81.5469 513.2344,80.2188 513.2344,77.9375 C513.2344,75.7188 514.3906,74.375 515.9531,74.375 C516.7656,74.375 517.3594,74.6875 517.8906,75.1719 L519.2656,73.625 C518.5156,72.8906 517.3594,72.2188 515.9531,72.2188 C513,72.2188 510.6719,74.3594 510.6719,78.0313 C510.6719,81.75 513.0469,83.7031 515.7969,83.7031 Z " fill="#000000"/><text fill="#000000" font-family="sans-serif" font-size="14" lengthAdjust="spacing" textLength="21" x="536.25" y="82.2852">File</text><line style="stroke:#181818;stroke-width:0.5;" x1="406" x2="655" y1="93.5" y2="93.5"/><text fill="#000000" font-family="sans-serif" font-size="14" lengthAdjust="spacing" textLength="131" x="411" y="110.4883">metadata : Metadata</text><text fill="#000000" font-family="sans-serif" font-size="14" lengthAdjust="spacing" textLength="185" x="411" y="126.8945">log_messages : LogMessage[]</text><text fill="#000000" font-family="sans-serif" font-size="14" lengthAdjust="spacing" textLength="70" x="411" y="143.3008">scan : Scan</text><text fill="#000000" font-family="sans-serif" font-size="14" lengthAdjust="spacing" textLength="98" x="411" y="159.707">station : Station</text><text fill="#000000" font-family="sans-serif" font-size="14" lengthAdjust="spacing" textLength="185" x="411" y="176.1133">scan_modules : ScanModule{}</text><text fill="#000000" font-family="sans-serif" font-size="14" lengthAdjust="spacing" textLength="115" x="411" y="192.5195">snapshots : Data{}</text><text fill="#000000" font-family="sans-serif" font-size="14" lengthAdjust="spacing" textLength="105" x="411" y="208.9258">monitors : Data{}</text><text fill="#000000" font-family="sans-serif" font-size="14" lengthAdjust="spacing" textLength="239" x="411" y="225.332">position_timestamps : TimestampData</text><line style="stroke:#181818;stroke-width:0.5;" x1="406" x2="655" y1="232.75" y2="232.75"/></g><!--class ScanModule--><g id="elem_ScanModule"><rect codeLine="37" fill="#F1F1F1" height="162.8438" id="ScanModule" rx="2.5" ry="2.5" style="stroke:#181818;stroke-width:0.5;" width="158" x="552.5" y="341.5"/><ellipse cx="589.55" cy="357.5" fill="#ADD1B2" rx="11" ry="11" style="stroke:#181818;stroke-width:1.0;"/><path d="M589.5969,363.7031 C591.0969,363.7031 592.3313,363.1406 593.2375,362.0781 L591.8625,360.5625 C591.3156,361.1563 590.6594,361.5469 589.8625,361.5469 C588.1906,361.5469 587.0344,360.2188 587.0344,357.9375 C587.0344,355.7188 588.1906,354.375 589.7531,354.375 C590.5656,354.375 591.1594,354.6875 591.6906,355.1719 L593.0656,353.625 C592.3156,352.8906 591.1594,352.2188 589.7531,352.2188 C586.8,352.2188 584.4719,354.3594 584.4719,358.0313 C584.4719,361.75 586.8469,363.7031 589.5969,363.7031 Z " fill="#000000"/><text fill="#000000" font-family="sans-serif" font-size="14" lengthAdjust="spacing" textLength="77" x="608.45" y="362.2852">ScanModule</text><line style="stroke:#181818;stroke-width:0.5;" x1="553.5" x2="709.5" y1="373.5" y2="373.5"/><text fill="#000000" font-family="sans-serif" font-size="14" lengthAdjust="spacing" textLength="80" x="558.5" y="390.4883">name : string</text><text fill="#000000" font-family="sans-serif" font-size="14" lengthAdjust="spacing" textLength="36" x="558.5" y="406.8945">id : int</text><text fill="#000000" font-family="sans-serif" font-size="14" lengthAdjust="spacing" textLength="66" x="558.5" y="423.3008">parent : int</text><text fill="#000000" font-family="sans-serif" font-size="14" lengthAdjust="spacing" textLength="87" x="558.5" y="439.707">appended : int</text><text fill="#000000" font-family="sans-serif" font-size="14" lengthAdjust="spacing" textLength="67" x="558.5" y="456.1133">nested : int</text><text fill="#000000" font-family="sans-serif" font-size="14" lengthAdjust="spacing" textLength="78" x="558.5" y="472.5195">data : Data{}</text><text fill="#000000" font-family="sans-serif" font-size="14" lengthAdjust="spacing" textLength="146" x="558.5" y="488.9258">positions : numpy.array</text><line style="stroke:#181818;stroke-width:0.5;" x1="553.5" x2="709.5" y1="496.3438" y2="496.3438"/></g><!--class Data--><g id="elem_Data"><rect fill="#F1F1F1" height="48" id="Data" rx="2.5" ry="2.5" style="stroke:#181818;stroke-width:0.5;" width="62" x="534.5" y="605.5"/><ellipse cx="549.5" cy="621.5" fill="#ADD1B2" rx="11" ry="11" style="stroke:#181818;stroke-width:1.0;"/><path d="M549.5469,627.7031 C551.0469,627.7031 552.2813,627.1406 553.1875,626.0781 L551.8125,624.5625 C551.2656,625.1563 550.6094,625.5469 549.8125,625.5469 C548.1406,625.5469 546.9844,624.2188 546.9844,621.9375 C546.9844,619.7188 548.1406,618.375 549.7031,618.375 C550.5156,618.375 551.1094,618.6875 551.6406,619.1719 L553.0156,617.625 C552.2656,616.8906 551.1094,616.2188 549.7031,616.2188 C546.75,616.2188 544.4219,618.3594 544.4219,622.0313 C544.4219,625.75 546.7969,627.7031 549.5469,627.7031 Z " fill="#000000"/><text fill="#000000" font-family="sans-serif" font-size="14" lengthAdjust="spacing" textLength="30" x="563.5" y="626.2852">Data</text><line style="stroke:#181818;stroke-width:0.5;" x1="535.5" x2="595.5" y1="637.5" y2="637.5"/><line style="stroke:#181818;stroke-width:0.5;" x1="535.5" x2="595.5" y1="645.5" y2="645.5"/></g><!--class Metadata--><g id="elem_Metadata"><rect codeLine="16" fill="#F1F1F1" height="244.875" id="Metadata" rx="2.5" ry="2.5" style="stroke:#181818;stroke-width:0.5;" width="261" x="7" y="300.5"/><ellipse cx="102.75" cy="316.5" fill="#ADD1B2" rx="11" ry="11" style="stroke:#181818;stroke-width:1.0;"/><path d="M102.7969,322.7031 C104.2969,322.7031 105.5313,322.1406 106.4375,321.0781 L105.0625,319.5625 C104.5156,320.1563 103.8594,320.5469 103.0625,320.5469 C101.3906,320.5469 100.2344,319.2188 100.2344,316.9375 C100.2344,314.7188 101.3906,313.375 102.9531,313.375 C103.7656,313.375 104.3594,313.6875 104.8906,314.1719 L106.2656,312.625 C105.5156,311.8906 104.3594,311.2188 102.9531,311.2188 C100,311.2188 97.6719,313.3594 97.6719,317.0313 C97.6719,320.75 100.0469,322.7031 102.7969,322.7031 Z " fill="#000000"/><text fill="#000000" font-family="sans-serif" font-size="14" lengthAdjust="spacing" textLength="61" x="123.25" y="321.2852">Metadata</text><line style="stroke:#181818;stroke-width:0.5;" x1="8" x2="267" y1="332.5" y2="332.5"/><text fill="#000000" font-family="sans-serif" font-size="14" lengthAdjust="spacing" textLength="98" x="13" y="349.4883">filename : string</text><text fill="#000000" font-family="sans-serif" font-size="14" lengthAdjust="spacing" textLength="133" x="13" y="365.8945">eveh5_version : string</text><text fill="#000000" font-family="sans-serif" font-size="14" lengthAdjust="spacing" textLength="117" x="13" y="382.3008">eve_version : string</text><text fill="#000000" font-family="sans-serif" font-size="14" lengthAdjust="spacing" textLength="115" x="13" y="398.707">xml_version: string</text><text fill="#000000" font-family="sans-serif" font-size="14" lengthAdjust="spacing" textLength="181" x="13" y="415.1133">measurement_station : string</text><text fill="#000000" font-family="sans-serif" font-size="14" lengthAdjust="spacing" textLength="94" x="13" y="431.5195">start : datetime</text><text fill="#000000" font-family="sans-serif" font-size="14" lengthAdjust="spacing" textLength="87" x="13" y="447.9258">end : datetime</text><text fill="#000000" font-family="sans-serif" font-size="14" lengthAdjust="spacing" textLength="114" x="13" y="464.332">description : string</text><text fill="#000000" font-family="sans-serif" font-size="14" lengthAdjust="spacing" textLength="124" x="13" y="480.7383">simulation : boolean</text><text fill="#000000" font-family="sans-serif" font-size="14" lengthAdjust="spacing" textLength="133" x="13" y="497.1445">preferred_axis : string</text><text fill="#000000" font-family="sans-serif" font-size="14" lengthAdjust="spacing" textLength="157" x="13" y="513.5508">preferred_channel : string</text><text fill="#000000" font-family="sans-serif" font-size="14" lengthAdjust="spacing" textLength="249" x="13" y="529.957">preferred_normalisation_channel : string</text><line style="stroke:#181818;stroke-width:0.5;" x1="8" x2="267" y1="537.375" y2="537.375"/></g><!--class LogMessage--><g id="elem_LogMessage"><rect codeLine="31" fill="#F1F1F1" height="80.8125" id="LogMessage" rx="2.5" ry="2.5" style="stroke:#181818;stroke-width:0.5;" width="143" x="303" y="382.5"/><ellipse cx="331.95" cy="398.5" fill="#ADD1B2" rx="11" ry="11" style="stroke:#181818;stroke-width:1.0;"/><path d="M331.9969,404.7031 C333.4969,404.7031 334.7313,404.1406 335.6375,403.0781 L334.2625,401.5625 C333.7156,402.1563 333.0594,402.5469 332.2625,402.5469 C330.5906,402.5469 329.4344,401.2188 329.4344,398.9375 C329.4344,396.7188 330.5906,395.375 332.1531,395.375 C332.9656,395.375 333.5594,395.6875 334.0906,396.1719 L335.4656,394.625 C334.7156,393.8906 333.5594,393.2188 332.1531,393.2188 C329.2,393.2188 326.8719,395.3594 326.8719,399.0313 C326.8719,402.75 329.2469,404.7031 331.9969,404.7031 Z " fill="#000000"/><text fill="#000000" font-family="sans-serif" font-size="14" lengthAdjust="spacing" textLength="80" x="349.05" y="403.2852">LogMessage</text><line style="stroke:#181818;stroke-width:0.5;" x1="304" x2="445" y1="414.5" y2="414.5"/><text fill="#000000" font-family="sans-serif" font-size="14" lengthAdjust="spacing" textLength="131" x="309" y="431.4883">timestamp : datetime</text><text fill="#000000" font-family="sans-serif" font-size="14" lengthAdjust="spacing" textLength="101" x="309" y="447.8945">message : string</text><line style="stroke:#181818;stroke-width:0.5;" x1="304" x2="445" y1="455.3125" y2="455.3125"/></g><g id="elem_GMN10"><path d="M632,609.5 L632,625.5 L596.95,629.5 L632,633.5 L632,649.9688 A0,0 0 0 0 632,649.9688 L743,649.9688 A0,0 0 0 0 743,649.9688 L743,619.5 L733,609.5 L632,609.5 A0,0 0 0 0 632,609.5 " fill="#FEFFDD" style="stroke:#181818;stroke-width:0.5;"/><path d="M733,609.5 L733,619.5 L743,619.5 L733,609.5 " fill="#FEFFDD" style="stroke:#181818;stroke-width:0.5;"/><text fill="#000000" font-family="sans-serif" font-size="13" lengthAdjust="spacing" textLength="90" x="638" y="626.5605">See diagram for</text><text fill="#000000" font-family="sans-serif" font-size="13" lengthAdjust="spacing" textLength="73" x="638" y="641.7949">data module.</text></g><!--class Scan--><g id="elem_Scan"><rect codeLine="50" fill="#F1F1F1" height="80.8125" id="Scan" rx="2.5" ry="2.5" style="stroke:#181818;stroke-width:0.5;" width="110" x="745.5" y="382.5"/><ellipse cx="781.65" cy="398.5" fill="#ADD1B2" rx="11" ry="11" style="stroke:#181818;stroke-width:1.0;"/><path d="M781.6969,404.7031 C783.1969,404.7031 784.4313,404.1406 785.3375,403.0781 L783.9625,401.5625 C783.4156,402.1563 782.7594,402.5469 781.9625,402.5469 C780.2906,402.5469 779.1344,401.2188 779.1344,398.9375 C779.1344,396.7188 780.2906,395.375 781.8531,395.375 C782.6656,395.375 783.2594,395.6875 783.7906,396.1719 L785.1656,394.625 C784.4156,393.8906 783.2594,393.2188 781.8531,393.2188 C778.9,393.2188 776.5719,395.3594 776.5719,399.0313 C776.5719,402.75 778.9469,404.7031 781.6969,404.7031 Z " fill="#000000"/><text fill="#000000" font-family="sans-serif" font-size="14" lengthAdjust="spacing" textLength="31" x="800.35" y="403.2852">Scan</text><line style="stroke:#181818;stroke-width:0.5;" x1="746.5" x2="854.5" y1="414.5" y2="414.5"/><text fill="#000000" font-family="sans-serif" font-size="14" lengthAdjust="spacing" textLength="87" x="751.5" y="431.4883">author : string</text><text fill="#000000" font-family="sans-serif" font-size="14" lengthAdjust="spacing" textLength="98" x="751.5" y="447.8945">filename : string</text><line style="stroke:#181818;stroke-width:0.5;" x1="746.5" x2="854.5" y1="455.3125" y2="455.3125"/></g><!--class Station--><g id="elem_Station"><rect codeLine="56" fill="#F1F1F1" height="64.4063" id="Station" rx="2.5" ry="2.5" style="stroke:#181818;stroke-width:0.5;" width="110" x="890.5" y="391"/><ellipse cx="920.35" cy="407" fill="#ADD1B2" rx="11" ry="11" style="stroke:#181818;stroke-width:1.0;"/><path d="M920.3969,413.2031 C921.8969,413.2031 923.1313,412.6406 924.0375,411.5781 L922.6625,410.0625 C922.1156,410.6563 921.4594,411.0469 920.6625,411.0469 C918.9906,411.0469 917.8344,409.7188 917.8344,407.4375 C917.8344,405.2188 918.9906,403.875 920.5531,403.875 C921.3656,403.875 921.9594,404.1875 922.4906,404.6719 L923.8656,403.125 C923.1156,402.3906 921.9594,401.7188 920.5531,401.7188 C917.6,401.7188 915.2719,403.8594 915.2719,407.5313 C915.2719,411.25 917.6469,413.2031 920.3969,413.2031 Z " fill="#000000"/><text fill="#000000" font-family="sans-serif" font-size="14" lengthAdjust="spacing" textLength="45" x="937.65" y="411.7852">Station</text><line style="stroke:#181818;stroke-width:0.5;" x1="891.5" x2="999.5" y1="423" y2="423"/><text fill="#000000" font-family="sans-serif" font-size="14" lengthAdjust="spacing" textLength="98" x="896.5" y="439.9883">filename : string</text><line style="stroke:#181818;stroke-width:0.5;" x1="891.5" x2="999.5" y1="447.4063" y2="447.4063"/></g><!--reverse link File to ScanModule--><g id="link_File_ScanModule"><path codeLine="13" d="M567.914,252.0195 C580.044,284.4495 589.49,309.69 601.34,341.37 " fill="none" id="File-backto-ScanModule" style="stroke:#181818;stroke-width:1.0;"/><polygon fill="#181818" points="563.71,240.78,562.0655,247.8011,567.914,252.0195,569.5585,244.9984,563.71,240.78" style="stroke:#181818;stroke-width:1.0;"/><text fill="#000000" font-family="sans-serif" font-size="13" lengthAdjust="spacing" textLength="7" x="591.237" y="330.2319">n</text></g><!--reverse link File to Data--><g id="link_File_Data"><path codeLine="14" d="M521.9744,252.7268 C516.9744,333.0468 515.3,442.23 534.5,545.5 C538.38,566.37 547.08,588.86 554.29,605.16 " fill="none" id="File-backto-Data" style="stroke:#181818;stroke-width:1.0;"/><polygon fill="#181818" points="522.72,240.75,518.3549,246.4899,521.9744,252.7268,526.3395,246.9869,522.72,240.75" style="stroke:#181818;stroke-width:1.0;"/><text fill="#000000" font-family="sans-serif" font-size="13" lengthAdjust="spacing" textLength="7" x="543.7044" y="594.4881">n</text></g><!--reverse link ScanModule to Data--><g id="link_ScanModule_Data"><path codeLine="47" d="M601.8233,515.9496 C590.1333,552.1596 580.9,580.77 572.99,605.28 " fill="none" id="ScanModule-backto-Data" style="stroke:#181818;stroke-width:1.0;"/><polygon fill="#181818" points="605.51,504.53,599.8601,509.0109,601.8233,515.9496,607.4732,511.4687,605.51,504.53" style="stroke:#181818;stroke-width:1.0;"/><text fill="#000000" font-family="sans-serif" font-size="13" lengthAdjust="spacing" textLength="7" x="567.0124" y="594.2423">n</text></g><!--reverse link Scan to Scan--><g id="link_Scan_Scan"><path d="M817.4605,192.9708 C814.0505,239.0108 807.69,324.96 803.45,382.24 " fill="none" id="Scan-backto-Scan" style="stroke:#181818;stroke-width:1.0;"/><polygon fill="none" points="818.79,175.02,811.4768,192.5276,823.4441,193.414,818.79,175.02" style="stroke:#181818;stroke-width:1.0;"/></g><!--reverse link Station to Station--><g id="link_Station_Station"><path d="M928.5361,192.9711 C932.1161,241.4311 939.13,336.05 943.19,390.88 " fill="none" id="Station-backto-Station" style="stroke:#181818;stroke-width:1.0;"/><polygon fill="none" points="927.21,175.02,922.5524,193.4131,934.5198,192.529,927.21,175.02" style="stroke:#181818;stroke-width:1.0;"/></g><!--reverse link File to Metadata--><g id="link_File_Metadata"><path codeLine="60" d="M394.6329,229.6086 C355.6229,253.0386 323.25,273.77 285.5,300.5 C279.8,304.53 274.04,308.72 268.27,313.02 " fill="none" id="File-backto-Metadata" style="stroke:#181818;stroke-width:1.0;"/><polygon fill="#181818" points="404.92,223.43,397.7169,223.0903,394.6329,229.6086,401.836,229.9483,404.92,223.43" style="stroke:#181818;stroke-width:1.0;"/></g><!--reverse link File to LogMessage--><g id="link_File_LogMessage"><path codeLine="61" d="M473.1979,251.1711 C445.5879,298.9711 418.89,345.18 397.47,382.24 " fill="none" id="File-backto-LogMessage" style="stroke:#181818;stroke-width:1.0;"/><polygon fill="#181818" points="479.2,240.78,472.7353,243.9749,473.1979,251.1711,479.6627,247.9762,479.2,240.78" style="stroke:#181818;stroke-width:1.0;"/><text fill="#000000" font-family="sans-serif" font-size="13" lengthAdjust="spacing" textLength="7" x="467.6619" y="260.8959">1</text><text fill="#000000" font-family="sans-serif" font-size="13" lengthAdjust="spacing" textLength="7" x="393.6947" y="371.3424">n</text></g><!--reverse link File to Scan--><g id="link_File_Scan"><path codeLine="62" d="M665.6951,242.7421 C690.8451,262.4521 706.51,277.18 727.5,300.5 C749.64,325.1 768.67,357.39 781.74,382.5 " fill="none" id="File-backto-Scan" style="stroke:#181818;stroke-width:1.0;"/><polygon fill="#181818" points="656.25,235.34,658.5052,242.1894,665.6951,242.7421,663.4399,235.8927,656.25,235.34" style="stroke:#181818;stroke-width:1.0;"/></g><!--reverse link File to Station--><g id="link_File_Station"><path codeLine="63" d="M667.3385,206.5343 C757.7785,243.2543 855.73,284.84 873.5,300.5 C901.65,325.3 921.87,363.85 933.58,390.86 " fill="none" id="File-backto-Station" style="stroke:#181818;stroke-width:1.0;"/><polygon fill="#181818" points="656.22,202.02,660.2745,207.9833,667.3385,206.5343,663.284,200.571,656.22,202.02" style="stroke:#181818;stroke-width:1.0;"/></g><!--SRC=[VLGzZzim3DtzAuGi1Gwu01swT2vkQgRhrXO6OzEsSFg2A1zo2FBVArDoP2MvPedv-4m-Fb7k51295wbGd1iHVne3z110V1U7_CYuicEhaGX6f9ZxQST3Ydx_vJnrO2B-6lzI7218or1wkh9QRVjPSPM5VU3eV4bv0uuc6vRaZzWwmzeQ6Qo_GPqbkLHkWupA0cYt47wjmS9iBat3mpqzFukTsMqwrZYJcuxTMETEXWoHPa1ZB4t1IpCoYkyuVMlVqLCQiauzJfoqMXCLhX5ezgZHXBROjY54q8S8HL6up9hQcFuMwf4wBzs30bBFQYryj5PXFYNdSK3liM_X9Ab-gUIw2On1zLdQMAz1IU86z-JBwclPcRnhrtEx7IGlMbKZ5oa7c8lSdurSZ94c99dWewyR09oBrk6MOwAA2iWNuC6kBHwPMRkFFNWF7ukmZQ9gcumDABmSfo3im51SU4JHInWzQ35O_yTmftGXzjiH1Pv2b4byO_P7EqUcbqXxZfcHneSvJDRN1jolxANvmd8K3g5IGKa6trwQZmwwjsXyaPBNyVzgCkdyQVDorwxV54PsNtTNpyfs53P_JKgKFoJ_0000]--></g></svg>