<?xml version="1.0" encoding="us-ascii" standalone="no"?><svg xmlns="http://www.w3.org/2000/svg" xmlns:xlink="http://www.w3.org/1999/xlink" contentStyleType="text/css" height="452.8px" preserveAspectRatio="none" style="width:680px;height:452px;background:#FFFFFF;" version="1.1" viewBox="0 0 680 452" width="680.8px" zoomAndPan="magnify"><defs/><g><!--class Event--><g id="elem_Event"><rect codeLine="3" fill="#F1F1F1" height="38.4" id="Event" rx="2" ry="2" style="stroke:#181818;stroke-width:0.4000000000000001;" width="53.6" x="149.2" y="25.2"/><ellipse cx="161.2" cy="38" fill="#ADD1B2" rx="8.8" ry="8.8" style="stroke:#181818;stroke-width:0.8000000000000002;"/><path d="M161.2375,42.9625 C162.4375,42.9625 163.425,42.5125 164.15,41.6625 L163.05,40.45 C162.6125,40.925 162.0875,41.2375 161.45,41.2375 C160.1125,41.2375 159.1875,40.175 159.1875,38.35 C159.1875,36.575 160.1125,35.5 161.3625,35.5 C162.0125,35.5 162.4875,35.75 162.9125,36.1375 L164.0125,34.9 C163.4125,34.3125 162.4875,33.775 161.3625,33.775 C159,33.775 157.1375,35.4875 157.1375,38.425 C157.1375,41.4 159.0375,42.9625 161.2375,42.9625 Z " fill="#000000"/><text fill="#000000" font-family="sans-serif" font-size="11.2" lengthAdjust="spacing" textLength="28" x="172.4" y="41.8281">Event</text><line style="stroke:#181818;stroke-width:0.4000000000000001;" x1="150" x2="202" y1="50.8" y2="50.8"/><line style="stroke:#181818;stroke-width:0.4000000000000001;" x1="150" x2="202" y1="57.2" y2="57.2"/></g><!--class DetectorEvent--><g id="elem_DetectorEvent"><rect codeLine="9" fill="#F1F1F1" height="51.525" id="DetectorEvent" rx="2" ry="2" style="stroke:#181818;stroke-width:0.4000000000000001;" width="96" x="5.6" y="138"/><ellipse cx="17.6" cy="150.8" fill="#ADD1B2" rx="8.8" ry="8.8" style="stroke:#181818;stroke-width:0.8000000000000002;"/><path d="M17.6375,155.7625 C18.8375,155.7625 19.825,155.3125 20.55,154.4625 L19.45,153.25 C19.0125,153.725 18.4875,154.0375 17.85,154.0375 C16.5125,154.0375 15.5875,152.975 15.5875,151.15 C15.5875,149.375 16.5125,148.3 17.7625,148.3 C18.4125,148.3 18.8875,148.55 19.3125,148.9375 L20.4125,147.7 C19.8125,147.1125 18.8875,146.575 17.7625,146.575 C15.4,146.575 13.5375,148.2875 13.5375,151.225 C13.5375,154.2 15.4375,155.7625 17.6375,155.7625 Z " fill="#000000"/><text fill="#000000" font-family="sans-serif" font-size="11.2" lengthAdjust="spacing" textLength="70.4" x="28.8" y="154.6281">DetectorEvent</text><line style="stroke:#181818;stroke-width:0.4000000000000001;" x1="6.4" x2="100.8" y1="163.6" y2="163.6"/><text fill="#000000" font-family="sans-serif" font-size="11.2" lengthAdjust="spacing" textLength="44.8" x="10.4" y="177.1906">id : string</text><line style="stroke:#181818;stroke-width:0.4000000000000001;" x1="6.4" x2="100.8" y1="183.125" y2="183.125"/></g><!--class MonitorEvent--><g id="elem_MonitorEvent"><rect codeLine="13" fill="#F1F1F1" height="64.65" id="MonitorEvent" rx="2" ry="2" style="stroke:#181818;stroke-width:0.4000000000000001;" width="92.8" x="129.6" y="131.2"/><ellipse cx="141.6" cy="144" fill="#ADD1B2" rx="8.8" ry="8.8" style="stroke:#181818;stroke-width:0.8000000000000002;"/><path d="M141.6375,148.9625 C142.8375,148.9625 143.825,148.5125 144.55,147.6625 L143.45,146.45 C143.0125,146.925 142.4875,147.2375 141.85,147.2375 C140.5125,147.2375 139.5875,146.175 139.5875,144.35 C139.5875,142.575 140.5125,141.5 141.7625,141.5 C142.4125,141.5 142.8875,141.75 143.3125,142.1375 L144.4125,140.9 C143.8125,140.3125 142.8875,139.775 141.7625,139.775 C139.4,139.775 137.5375,141.4875 137.5375,144.425 C137.5375,147.4 139.4375,148.9625 141.6375,148.9625 Z " fill="#000000"/><text fill="#000000" font-family="sans-serif" font-size="11.2" lengthAdjust="spacing" textLength="67.2" x="152.8" y="147.8281">MonitorEvent</text><line style="stroke:#181818;stroke-width:0.4000000000000001;" x1="130.4" x2="221.6" y1="156.8" y2="156.8"/><text fill="#000000" font-family="sans-serif" font-size="11.2" lengthAdjust="spacing" textLength="44.8" x="134.4" y="170.3906">id : string</text><text fill="#000000" font-family="sans-serif" font-size="11.2" lengthAdjust="spacing" textLength="48.8" x="134.4" y="183.5156">limit : limit</text><line style="stroke:#181818;stroke-width:0.4000000000000001;" x1="130.4" x2="221.6" y1="189.45" y2="189.45"/></g><!--class ScheduleEvent--><g id="elem_ScheduleEvent"><rect codeLine="19" fill="#F1F1F1" height="64.65" id="ScheduleEvent" rx="2" ry="2" style="stroke:#181818;stroke-width:0.4000000000000001;" width="125.6" x="250.8" y="131.2"/><ellipse cx="275.04" cy="144" fill="#ADD1B2" rx="8.8" ry="8.8" style="stroke:#181818;stroke-width:0.8000000000000002;"/><path d="M275.0775,148.9625 C276.2775,148.9625 277.265,148.5125 277.99,147.6625 L276.89,146.45 C276.4525,146.925 275.9275,147.2375 275.29,147.2375 C273.9525,147.2375 273.0275,146.175 273.0275,144.35 C273.0275,142.575 273.9525,141.5 275.2025,141.5 C275.8525,141.5 276.3275,141.75 276.7525,142.1375 L277.8525,140.9 C277.2525,140.3125 276.3275,139.775 275.2025,139.775 C272.84,139.775 270.9775,141.4875 270.9775,144.425 C270.9775,147.4 272.8775,148.9625 275.0775,148.9625 Z " fill="#000000"/><text fill="#000000" font-family="sans-serif" font-size="11.2" lengthAdjust="spacing" textLength="72.8" x="288.96" y="147.8281">ScheduleEvent</text><line style="stroke:#181818;stroke-width:0.4000000000000001;" x1="251.6" x2="375.6" y1="156.8" y2="156.8"/><text fill="#000000" font-family="sans-serif" font-size="11.2" lengthAdjust="spacing" textLength="86.4" x="255.6" y="170.3906">incident : Incident</text><text fill="#000000" font-family="sans-serif" font-size="11.2" lengthAdjust="spacing" textLength="116" x="255.6" y="183.5156">scanmodule_id : integer</text><line style="stroke:#181818;stroke-width:0.4000000000000001;" x1="251.6" x2="375.6" y1="189.45" y2="189.45"/></g><!--class Limit--><g id="elem_Limit"><rect codeLine="30" fill="#F1F1F1" height="64.65" id="Limit" rx="2" ry="2" style="stroke:#181818;stroke-width:0.4000000000000001;" width="136.8" x="107.6" y="244"/><ellipse cx="160.2" cy="256.8" fill="#ADD1B2" rx="8.8" ry="8.8" style="stroke:#181818;stroke-width:0.8000000000000002;"/><path d="M160.2375,261.7625 C161.4375,261.7625 162.425,261.3125 163.15,260.4625 L162.05,259.25 C161.6125,259.725 161.0875,260.0375 160.45,260.0375 C159.1125,260.0375 158.1875,258.975 158.1875,257.15 C158.1875,255.375 159.1125,254.3 160.3625,254.3 C161.0125,254.3 161.4875,254.55 161.9125,254.9375 L163.0125,253.7 C162.4125,253.1125 161.4875,252.575 160.3625,252.575 C158,252.575 156.1375,254.2875 156.1375,257.225 C156.1375,260.2 158.0375,261.7625 160.2375,261.7625 Z " fill="#000000"/><text fill="#000000" font-family="sans-serif" font-size="11.2" lengthAdjust="spacing" textLength="24.8" x="176.6" y="260.6281">Limit</text><line style="stroke:#181818;stroke-width:0.4000000000000001;" x1="108.4" x2="243.6" y1="269.6" y2="269.6"/><text fill="#000000" font-family="sans-serif" font-size="11.2" lengthAdjust="spacing" textLength="81.6" x="112.4" y="283.1906">value : typevalue</text><text fill="#000000" font-family="sans-serif" font-size="11.2" lengthAdjust="spacing" textLength="127.2" x="112.4" y="296.3156">comparison : Comparison</text><line style="stroke:#181818;stroke-width:0.4000000000000001;" x1="108.4" x2="243.6" y1="302.25" y2="302.25"/></g><!--class Incident--><g id="elem_Incident"><rect codeLine="25" fill="#F1F1F1" height="64.65" id="Incident" rx="2" ry="2" style="stroke:#181818;stroke-width:0.4000000000000001;" width="70.4" x="278.4" y="244"/><ellipse cx="292.56" cy="256.8" fill="#EB937F" rx="8.8" ry="8.8" style="stroke:#181818;stroke-width:0.8000000000000002;"/><path d="M289.41,261.6 L295.4225,261.6 L295.4225,259.9125 L291.4225,259.9125 L291.4225,257.875 L294.6975,257.875 L294.6975,256.2 L291.4225,256.2 L291.4225,254.425 L295.285,254.425 L295.285,252.7375 L289.41,252.7375 L289.41,261.6 Z " fill="#000000"/><text fill="#000000" font-family="sans-serif" font-size="11.2" lengthAdjust="spacing" textLength="40" x="304.24" y="260.6281">Incident</text><line style="stroke:#181818;stroke-width:0.4000000000000001;" x1="279.2" x2="348" y1="269.6" y2="269.6"/><text fill="#000000" font-family="sans-serif" font-size="11.2" lengthAdjust="spacing" textLength="60.8" x="283.2" y="283.1906">Start = Start</text><text fill="#000000" font-family="sans-serif" font-size="11.2" lengthAdjust="spacing" textLength="49.6" x="283.2" y="296.3156">End = End</text><line style="stroke:#181818;stroke-width:0.4000000000000001;" x1="279.2" x2="348" y1="302.25" y2="302.25"/></g><!--class Comparison--><g id="elem_Comparison"><rect codeLine="36" fill="#F1F1F1" height="90.9" id="Comparison" rx="2" ry="2" style="stroke:#181818;stroke-width:0.4000000000000001;" width="86.4" x="132.8" y="356.8"/><ellipse cx="144.8" cy="369.6" fill="#EB937F" rx="8.8" ry="8.8" style="stroke:#181818;stroke-width:0.8000000000000002;"/><path d="M141.65,374.4 L147.6625,374.4 L147.6625,372.7125 L143.6625,372.7125 L143.6625,370.675 L146.9375,370.675 L146.9375,369 L143.6625,369 L143.6625,367.225 L147.525,367.225 L147.525,365.5375 L141.65,365.5375 L141.65,374.4 Z " fill="#000000"/><text fill="#000000" font-family="sans-serif" font-size="11.2" lengthAdjust="spacing" textLength="60.8" x="156" y="373.4281">Comparison</text><line style="stroke:#181818;stroke-width:0.4000000000000001;" x1="133.6" x2="218.4" y1="382.4" y2="382.4"/><text fill="#000000" font-family="sans-serif" font-size="11.2" lengthAdjust="spacing" textLength="35.2" x="137.6" y="395.9906">eq = eq</text><text fill="#000000" font-family="sans-serif" font-size="11.2" lengthAdjust="spacing" textLength="35.2" x="137.6" y="409.1156">ne = ne</text><text fill="#000000" font-family="sans-serif" font-size="11.2" lengthAdjust="spacing" textLength="32" x="137.6" y="422.2406">gt = gt</text><text fill="#000000" font-family="sans-serif" font-size="11.2" lengthAdjust="spacing" textLength="24" x="137.6" y="435.3656">lt = lt</text><line style="stroke:#181818;stroke-width:0.4000000000000001;" x1="133.6" x2="218.4" y1="441.3" y2="441.3"/></g><!--class PauseCondition--><g id="elem_PauseCondition"><rect codeLine="44" fill="#F1F1F1" height="77.775" id="PauseCondition" rx="2" ry="2" style="stroke:#181818;stroke-width:0.4000000000000001;" width="116" x="478" y="5.6"/><ellipse cx="495.04" cy="18.4" fill="#ADD1B2" rx="8.8" ry="8.8" style="stroke:#181818;stroke-width:0.8000000000000002;"/><path d="M495.0775,23.3625 C496.2775,23.3625 497.265,22.9125 497.99,22.0625 L496.89,20.85 C496.4525,21.325 495.9275,21.6375 495.29,21.6375 C493.9525,21.6375 493.0275,20.575 493.0275,18.75 C493.0275,16.975 493.9525,15.9 495.2025,15.9 C495.8525,15.9 496.3275,16.15 496.7525,16.5375 L497.8525,15.3 C497.2525,14.7125 496.3275,14.175 495.2025,14.175 C492.84,14.175 490.9775,15.8875 490.9775,18.825 C490.9775,21.8 492.8775,23.3625 495.0775,23.3625 Z " fill="#000000"/><text fill="#000000" font-family="sans-serif" font-size="11.2" lengthAdjust="spacing" textLength="79.2" x="507.36" y="22.2281">PauseCondition</text><line style="stroke:#181818;stroke-width:0.4000000000000001;" x1="478.8" x2="593.2" y1="31.2" y2="31.2"/><text fill="#000000" font-family="sans-serif" font-size="11.2" lengthAdjust="spacing" textLength="76" x="482.8" y="44.7906">deviceid : string</text><text fill="#000000" font-family="sans-serif" font-size="11.2" lengthAdjust="spacing" textLength="50.4" x="482.8" y="57.9156">id : integer</text><text fill="#000000" font-family="sans-serif" font-size="11.2" lengthAdjust="spacing" textLength="106.4" x="482.8" y="71.0406">pauselimit : typevalue</text><line style="stroke:#181818;stroke-width:0.4000000000000001;" x1="478.8" x2="593.2" y1="76.975" y2="76.975"/></g><!--class EqualityCondition--><g id="elem_EqualityCondition"><rect codeLine="52" fill="#F1F1F1" height="51.525" id="EqualityCondition" rx="2" ry="2" style="stroke:#181818;stroke-width:0.4000000000000001;" width="113.6" x="404.8" y="138"/><ellipse cx="416.8" cy="150.8" fill="#ADD1B2" rx="8.8" ry="8.8" style="stroke:#181818;stroke-width:0.8000000000000002;"/><path d="M416.8375,155.7625 C418.0375,155.7625 419.025,155.3125 419.75,154.4625 L418.65,153.25 C418.2125,153.725 417.6875,154.0375 417.05,154.0375 C415.7125,154.0375 414.7875,152.975 414.7875,151.15 C414.7875,149.375 415.7125,148.3 416.9625,148.3 C417.6125,148.3 418.0875,148.55 418.5125,148.9375 L419.6125,147.7 C419.0125,147.1125 418.0875,146.575 416.9625,146.575 C414.6,146.575 412.7375,148.2875 412.7375,151.225 C412.7375,154.2 414.6375,155.7625 416.8375,155.7625 Z " fill="#000000"/><text fill="#000000" font-family="sans-serif" font-size="11.2" lengthAdjust="spacing" textLength="88" x="428" y="154.6281">EqualityCondition</text><line style="stroke:#181818;stroke-width:0.4000000000000001;" x1="405.6" x2="517.6" y1="163.6" y2="163.6"/><text fill="#000000" font-family="sans-serif" font-size="11.2" lengthAdjust="spacing" textLength="90.4" x="409.6" y="177.1906">operator : Equality</text><line style="stroke:#181818;stroke-width:0.4000000000000001;" x1="405.6" x2="517.6" y1="183.125" y2="183.125"/></g><!--class InequalityCondition--><g id="elem_InequalityCondition"><rect codeLine="62" fill="#F1F1F1" height="64.65" id="InequalityCondition" rx="2" ry="2" style="stroke:#181818;stroke-width:0.4000000000000001;" width="128.8" x="546.8" y="131.2"/><ellipse cx="561.68" cy="144" fill="#ADD1B2" rx="8.8" ry="8.8" style="stroke:#181818;stroke-width:0.8000000000000002;"/><path d="M561.7175,148.9625 C562.9175,148.9625 563.905,148.5125 564.63,147.6625 L563.53,146.45 C563.0925,146.925 562.5675,147.2375 561.93,147.2375 C560.5925,147.2375 559.6675,146.175 559.6675,144.35 C559.6675,142.575 560.5925,141.5 561.8425,141.5 C562.4925,141.5 562.9675,141.75 563.3925,142.1375 L564.4925,140.9 C563.8925,140.3125 562.9675,139.775 561.8425,139.775 C559.48,139.775 557.6175,141.4875 557.6175,144.425 C557.6175,147.4 559.5175,148.9625 561.7175,148.9625 Z " fill="#000000"/><text fill="#000000" font-family="sans-serif" font-size="11.2" lengthAdjust="spacing" textLength="96.8" x="573.52" y="147.8281">InequalityCondition</text><line style="stroke:#181818;stroke-width:0.4000000000000001;" x1="547.6" x2="674.8" y1="156.8" y2="156.8"/><text fill="#000000" font-family="sans-serif" font-size="11.2" lengthAdjust="spacing" textLength="99.2" x="551.6" y="170.3906">operator : Inequality</text><text fill="#000000" font-family="sans-serif" font-size="11.2" lengthAdjust="spacing" textLength="119.2" x="551.6" y="183.5156">continuelimit : typevalue</text><line style="stroke:#181818;stroke-width:0.4000000000000001;" x1="547.6" x2="674.8" y1="189.45" y2="189.45"/></g><!--class Equality--><g id="elem_Equality"><rect codeLine="57" fill="#F1F1F1" height="64.65" id="Equality" rx="2" ry="2" style="stroke:#181818;stroke-width:0.4000000000000001;" width="65.6" x="428.8" y="244"/><ellipse cx="440.8" cy="256.8" fill="#EB937F" rx="8.8" ry="8.8" style="stroke:#181818;stroke-width:0.8000000000000002;"/><path d="M437.65,261.6 L443.6625,261.6 L443.6625,259.9125 L439.6625,259.9125 L439.6625,257.875 L442.9375,257.875 L442.9375,256.2 L439.6625,256.2 L439.6625,254.425 L443.525,254.425 L443.525,252.7375 L437.65,252.7375 L437.65,261.6 Z " fill="#000000"/><text fill="#000000" font-family="sans-serif" font-size="11.2" lengthAdjust="spacing" textLength="40" x="452" y="260.6281">Equality</text><line style="stroke:#181818;stroke-width:0.4000000000000001;" x1="429.6" x2="493.6" y1="269.6" y2="269.6"/><text fill="#000000" font-family="sans-serif" font-size="11.2" lengthAdjust="spacing" textLength="35.2" x="433.6" y="283.1906">eq = eq</text><text fill="#000000" font-family="sans-serif" font-size="11.2" lengthAdjust="spacing" textLength="35.2" x="433.6" y="296.3156">ne = ne</text><line style="stroke:#181818;stroke-width:0.4000000000000001;" x1="429.6" x2="493.6" y1="302.25" y2="302.25"/></g><!--class Inequality--><g id="elem_Inequality"><rect codeLine="68" fill="#F1F1F1" height="64.65" id="Inequality" rx="2" ry="2" style="stroke:#181818;stroke-width:0.4000000000000001;" width="74.4" x="574" y="244"/><ellipse cx="586" cy="256.8" fill="#EB937F" rx="8.8" ry="8.8" style="stroke:#181818;stroke-width:0.8000000000000002;"/><path d="M582.85,261.6 L588.8625,261.6 L588.8625,259.9125 L584.8625,259.9125 L584.8625,257.875 L588.1375,257.875 L588.1375,256.2 L584.8625,256.2 L584.8625,254.425 L588.725,254.425 L588.725,252.7375 L582.85,252.7375 L582.85,261.6 Z " fill="#000000"/><text fill="#000000" font-family="sans-serif" font-size="11.2" lengthAdjust="spacing" textLength="48.8" x="597.2" y="260.6281">Inequality</text><line style="stroke:#181818;stroke-width:0.4000000000000001;" x1="574.8" x2="647.6" y1="269.6" y2="269.6"/><text fill="#000000" font-family="sans-serif" font-size="11.2" lengthAdjust="spacing" textLength="32" x="578.8" y="283.1906">gt = gt</text><text fill="#000000" font-family="sans-serif" font-size="11.2" lengthAdjust="spacing" textLength="24" x="578.8" y="296.3156">lt = lt</text><line style="stroke:#181818;stroke-width:0.4000000000000001;" x1="574.8" x2="647.6" y1="302.25" y2="302.25"/></g><!--reverse link Event to DetectorEvent--><g id="link_Event_DetectorEvent"><path codeLine="5" d="M146.2243,73.8089 C125.3923,93.8249 102.568,115.752 79.512,137.904 " fill="none" id="Event-backto-DetectorEvent" style="stroke:#181818;stroke-width:0.8000000000000002;"/><polygon fill="none" points="156.608,63.832,142.8987,70.3477,149.55,77.2702,156.608,63.832" style="stroke:#181818;stroke-width:0.8000000000000002;"/></g><!--reverse link Event to MonitorEvent--><g id="link_Event_MonitorEvent"><path codeLine="6" d="M176,78.232 C176,96.304 176,109.664 176,131.192 " fill="none" id="Event-backto-MonitorEvent" style="stroke:#181818;stroke-width:0.8000000000000002;"/><polygon fill="none" points="176,63.832,171.2,78.232,180.8,78.232,176,63.832" style="stroke:#181818;stroke-width:0.8000000000000002;"/></g><!--reverse link Event to ScheduleEvent--><g id="link_Event_ScheduleEvent"><path codeLine="7" d="M208.7464,73.188 C229.8904,91.26 251.432,109.664 276.616,131.192 " fill="none" id="Event-backto-ScheduleEvent" style="stroke:#181818;stroke-width:0.8000000000000002;"/><polygon fill="none" points="197.8,63.832,205.6278,76.8369,211.8651,69.5392,197.8,63.832" style="stroke:#181818;stroke-width:0.8000000000000002;"/></g><!--reverse link MonitorEvent to Limit--><g id="link_MonitorEvent_Limit"><path codeLine="17" d="M176,205.864 C176,220.752 176,228.84 176,243.728 " fill="none" id="MonitorEvent-backto-Limit" style="stroke:#181818;stroke-width:0.8000000000000002;"/><polygon fill="#181818" points="176,196.264,172.8,201.064,176,205.864,179.2,201.064,176,196.264" style="stroke:#181818;stroke-width:0.8000000000000002;"/></g><!--reverse link ScheduleEvent to Incident--><g id="link_ScheduleEvent_Incident"><path codeLine="23" d="M313.6,205.864 C313.6,220.752 313.6,228.84 313.6,243.728 " fill="none" id="ScheduleEvent-backto-Incident" style="stroke:#181818;stroke-width:0.8000000000000002;"/><polygon fill="#181818" points="313.6,196.264,310.4,201.064,313.6,205.864,316.8,201.064,313.6,196.264" style="stroke:#181818;stroke-width:0.8000000000000002;"/></g><!--reverse link Limit to Comparison--><g id="link_Limit_Comparison"><path codeLine="34" d="M176,318.512 C176,332.984 176,340.776 176,356.568 " fill="none" id="Limit-backto-Comparison" style="stroke:#181818;stroke-width:0.8000000000000002;"/><polygon fill="#181818" points="176,308.912,172.8,313.712,176,318.512,179.2,313.712,176,308.912" style="stroke:#181818;stroke-width:0.8000000000000002;"/></g><!--reverse link PauseCondition to EqualityCondition--><g id="link_PauseCondition_EqualityCondition"><path codeLine="49" d="M504.1484,95.5527 C492.8604,113.3927 487.44,121.96 477.432,137.768 " fill="none" id="PauseCondition-backto-EqualityCondition" style="stroke:#181818;stroke-width:0.8000000000000002;"/><polygon fill="none" points="511.848,83.384,500.0922,92.9862,508.2047,98.1192,511.848,83.384" style="stroke:#181818;stroke-width:0.8000000000000002;"/></g><!--reverse link PauseCondition to InequalityCondition--><g id="link_PauseCondition_InequalityCondition"><path codeLine="50" d="M568.1743,95.5153 C578.0383,110.9393 581.528,116.4 590.928,131.104 " fill="none" id="PauseCondition-backto-InequalityCondition" style="stroke:#181818;stroke-width:0.8000000000000002;"/><polygon fill="none" points="560.416,83.384,564.1305,98.1014,572.218,92.9292,560.416,83.384" style="stroke:#181818;stroke-width:0.8000000000000002;"/></g><!--reverse link EqualityCondition to Equality--><g id="link_EqualityCondition_Equality"><path codeLine="55" d="M461.6,198.952 C461.6,215.096 461.6,226.64 461.6,243.952 " fill="none" id="EqualityCondition-backto-Equality" style="stroke:#181818;stroke-width:0.8000000000000002;"/><polygon fill="#181818" points="461.6,189.352,458.4,194.152,461.6,198.952,464.8,194.152,461.6,189.352" style="stroke:#181818;stroke-width:0.8000000000000002;"/></g><!--reverse link InequalityCondition to Inequality--><g id="link_InequalityCondition_Inequality"><path codeLine="66" d="M611.2,205.864 C611.2,220.752 611.2,228.84 611.2,243.728 " fill="none" id="InequalityCondition-backto-Inequality" style="stroke:#181818;stroke-width:0.8000000000000002;"/><polygon fill="#181818" points="611.2,196.264,608,201.064,611.2,205.864,614.4,201.064,611.2,196.264" style="stroke:#181818;stroke-width:0.8000000000000002;"/></g><!--SRC=[VL9DQyCm3BtdL_WsA7Izb-tKzL1OOT0VC8mjKeCZfxPIA5l_-sJ7-N0RbaCYFKbFBv9UpaHjs6ushPL8NMDVbMisoieGrjh8sikcgf8hzbT04Z_LlUgjjz_rMdm0WIBd4pGF71sQ9Voapg0x2tqWKnSit4BmOxJOYa3UOCqjS-ASTI4l-jOqXXXANwuiIbQiu3C5Cc4XPs14PNHqj-AGpOG79R5nCVixDJL8K8Fd7YLBR38MLe1TCxgvmuca9_7UVnEoHyq-lwT_JJfpmLNQ3hWbtLf8Ta9vLQtq9ZZaq6vqcAAlZK9cS2zb0Z8tNBWpN9ADm3Rsx7LKMFVoRBHj7EUWxajs0NOEjI4pKccu6WMF6oc65O4srWvxcdxfNZsGfeFPNpff3Tr6U37hWF2KDzpjOo2BTIruoPV16eQKUDjFsQkPY3p3mVrdWkCQ5vGz2vYIycAH37QBCrhYMnKJ66yEIfdB2_q3]--></g></svg>