<?xml version="1.0" encoding="us-ascii" standalone="no"?><svg xmlns="http://www.w3.org/2000/svg" xmlns:xlink="http://www.w3.org/1999/xlink" contentStyleType="text/css" height="467px" preserveAspectRatio="none" style="width:430px;height:467px;background:#FFFFFF;" version="1.1" viewBox="0 0 430 467" width="430px" zoomAndPan="magnify"><defs/><g><!--cluster evefile--><g id="cluster_evefile"><path d="M110.5,6 L166.5,6 A3.75,3.75 0 0 1 169,8.5 L176,28.2969 L333.5,28.2969 A2.5,2.5 0 0 1 336,30.7969 L336,236.5 A2.5,2.5 0 0 1 333.5,239 L110.5,239 A2.5,2.5 0 0 1 108,236.5 L108,8.5 A2.5,2.5 0 0 1 110.5,6 " fill="none" style="stroke:#000000;stroke-width:1.5;"/><line style="stroke:#000000;stroke-width:1.5;" x1="108" x2="176" y1="28.2969" y2="28.2969"/><text fill="#000000" font-family="sans-serif" font-size="14" font-weight="bold" lengthAdjust="spacing" textLength="55" x="112" y="20.9951">evefile</text></g><!--cluster entitites--><g id="cluster_entitites"><path d="M134.5,49 L204.5,49 A3.75,3.75 0 0 1 207,51.5 L214,71.2969 L309.5,71.2969 A2.5,2.5 0 0 1 312,73.7969 L312,212.5 A2.5,2.5 0 0 1 309.5,215 L134.5,215 A2.5,2.5 0 0 1 132,212.5 L132,51.5 A2.5,2.5 0 0 1 134.5,49 " fill="none" style="stroke:#000000;stroke-width:1.5;"/><line style="stroke:#000000;stroke-width:1.5;" x1="132" x2="214" y1="71.2969" y2="71.2969"/><text fill="#000000" font-family="sans-serif" font-size="14" font-weight="bold" lengthAdjust="spacing" textLength="69" x="136" y="63.9951">entitites</text></g><!--cluster file--><g id="cluster_file"><path d="M158.5,92 L185.5,92 A3.75,3.75 0 0 1 188,94.5 L195,114.2969 L285.5,114.2969 A2.5,2.5 0 0 1 288,116.7969 L288,188.5 A2.5,2.5 0 0 1 285.5,191 L158.5,191 A2.5,2.5 0 0 1 156,188.5 L156,94.5 A2.5,2.5 0 0 1 158.5,92 " fill="none" style="stroke:#000000;stroke-width:1.5;"/><line style="stroke:#000000;stroke-width:1.5;" x1="156" x2="195" y1="114.2969" y2="114.2969"/><text fill="#000000" font-family="sans-serif" font-size="14" font-weight="bold" lengthAdjust="spacing" textLength="26" x="160" y="106.9951">file</text></g><!--class Metadata--><g id="elem_Metadata"><rect fill="#F1F1F1" height="48" id="Metadata" rx="2.5" ry="2.5" style="stroke:#181818;stroke-width:0.5;" width="99" x="172.5" y="127"/><ellipse cx="187.5" cy="143" fill="#ADD1B2" rx="11" ry="11" style="stroke:#181818;stroke-width:1.0;"/><path d="M190.4688,148.6406 Q189.8906,148.9375 189.25,149.0781 Q188.6094,149.2344 187.9063,149.2344 Q185.4063,149.2344 184.0781,147.5938 Q182.7656,145.9375 182.7656,142.8125 Q182.7656,139.6875 184.0781,138.0313 Q185.4063,136.375 187.9063,136.375 Q188.6094,136.375 189.25,136.5313 Q189.9063,136.6875 190.4688,136.9844 L190.4688,139.7031 Q189.8438,139.125 189.25,138.8594 Q188.6563,138.5781 188.0313,138.5781 Q186.6875,138.5781 186,139.6563 Q185.3125,140.7188 185.3125,142.8125 Q185.3125,144.9063 186,145.9844 Q186.6875,147.0469 188.0313,147.0469 Q188.6563,147.0469 189.25,146.7813 Q189.8438,146.5 190.4688,145.9219 L190.4688,148.6406 Z " fill="#000000"/><text fill="#000000" font-family="sans-serif" font-size="14" lengthAdjust="spacing" textLength="67" x="201.5" y="147.8467">Metadata</text><line style="stroke:#181818;stroke-width:0.5;" x1="173.5" x2="270.5" y1="159" y2="159"/><line style="stroke:#181818;stroke-width:0.5;" x1="173.5" x2="270.5" y1="167" y2="167"/></g><!--class Metadata--><g id="elem_Metadata"><rect codeLine="3" fill="#F1F1F1" height="96.8906" id="Metadata" rx="2.5" ry="2.5" style="stroke:#181818;stroke-width:0.5;" width="160" x="142" y="255"/><ellipse cx="184.45" cy="271" fill="#ADD1B2" rx="11" ry="11" style="stroke:#181818;stroke-width:1.0;"/><path d="M187.4188,276.6406 Q186.8406,276.9375 186.2,277.0781 Q185.5594,277.2344 184.8563,277.2344 Q182.3563,277.2344 181.0281,275.5938 Q179.7156,273.9375 179.7156,270.8125 Q179.7156,267.6875 181.0281,266.0313 Q182.3563,264.375 184.8563,264.375 Q185.5594,264.375 186.2,264.5313 Q186.8563,264.6875 187.4188,264.9844 L187.4188,267.7031 Q186.7938,267.125 186.2,266.8594 Q185.6063,266.5781 184.9813,266.5781 Q183.6375,266.5781 182.95,267.6563 Q182.2625,268.7188 182.2625,270.8125 Q182.2625,272.9063 182.95,273.9844 Q183.6375,275.0469 184.9813,275.0469 Q185.6063,275.0469 186.2,274.7813 Q186.7938,274.5 187.4188,273.9219 L187.4188,276.6406 Z " fill="#000000"/><text fill="#000000" font-family="sans-serif" font-size="14" lengthAdjust="spacing" textLength="67" x="204.55" y="275.8467">Metadata</text><line style="stroke:#181818;stroke-width:0.5;" x1="143" x2="301" y1="287" y2="287"/><text fill="#000000" font-family="sans-serif" font-size="14" lengthAdjust="spacing" textLength="129" x="148" y="303.9951">sample[] : Sample</text><text fill="#000000" font-family="sans-serif" font-size="14" lengthAdjust="spacing" textLength="135" x="148" y="320.292">machine : Machine</text><text fill="#000000" font-family="sans-serif" font-size="14" lengthAdjust="spacing" textLength="148" x="148" y="336.5889">beamline : Beamline</text><line style="stroke:#181818;stroke-width:0.5;" x1="143" x2="301" y1="343.8906" y2="343.8906"/></g><!--class Sample--><g id="elem_Sample"><rect codeLine="9" fill="#F1F1F1" height="48" id="Sample" rx="2.5" ry="2.5" style="stroke:#181818;stroke-width:0.5;" width="86" x="337" y="279.5"/><ellipse cx="352" cy="295.5" fill="#ADD1B2" rx="11" ry="11" style="stroke:#181818;stroke-width:1.0;"/><path d="M354.9688,301.1406 Q354.3906,301.4375 353.75,301.5781 Q353.1094,301.7344 352.4063,301.7344 Q349.9063,301.7344 348.5781,300.0938 Q347.2656,298.4375 347.2656,295.3125 Q347.2656,292.1875 348.5781,290.5313 Q349.9063,288.875 352.4063,288.875 Q353.1094,288.875 353.75,289.0313 Q354.4063,289.1875 354.9688,289.4844 L354.9688,292.2031 Q354.3438,291.625 353.75,291.3594 Q353.1563,291.0781 352.5313,291.0781 Q351.1875,291.0781 350.5,292.1563 Q349.8125,293.2188 349.8125,295.3125 Q349.8125,297.4063 350.5,298.4844 Q351.1875,299.5469 352.5313,299.5469 Q353.1563,299.5469 353.75,299.2813 Q354.3438,299 354.9688,298.4219 L354.9688,301.1406 Z " fill="#000000"/><text fill="#000000" font-family="sans-serif" font-size="14" lengthAdjust="spacing" textLength="54" x="366" y="300.3467">Sample</text><line style="stroke:#181818;stroke-width:0.5;" x1="338" x2="422" y1="311.5" y2="311.5"/><line style="stroke:#181818;stroke-width:0.5;" x1="338" x2="422" y1="319.5" y2="319.5"/></g><!--class Machine--><g id="elem_Machine"><rect codeLine="12" fill="#F1F1F1" height="48" id="Machine" rx="2.5" ry="2.5" style="stroke:#181818;stroke-width:0.5;" width="92" x="176" y="412"/><ellipse cx="191" cy="428" fill="#ADD1B2" rx="11" ry="11" style="stroke:#181818;stroke-width:1.0;"/><path d="M193.9688,433.6406 Q193.3906,433.9375 192.75,434.0781 Q192.1094,434.2344 191.4063,434.2344 Q188.9063,434.2344 187.5781,432.5938 Q186.2656,430.9375 186.2656,427.8125 Q186.2656,424.6875 187.5781,423.0313 Q188.9063,421.375 191.4063,421.375 Q192.1094,421.375 192.75,421.5313 Q193.4063,421.6875 193.9688,421.9844 L193.9688,424.7031 Q193.3438,424.125 192.75,423.8594 Q192.1563,423.5781 191.5313,423.5781 Q190.1875,423.5781 189.5,424.6563 Q188.8125,425.7188 188.8125,427.8125 Q188.8125,429.9063 189.5,430.9844 Q190.1875,432.0469 191.5313,432.0469 Q192.1563,432.0469 192.75,431.7813 Q193.3438,431.5 193.9688,430.9219 L193.9688,433.6406 Z " fill="#000000"/><text fill="#000000" font-family="sans-serif" font-size="14" lengthAdjust="spacing" textLength="60" x="205" y="432.8467">Machine</text><line style="stroke:#181818;stroke-width:0.5;" x1="177" x2="267" y1="444" y2="444"/><line style="stroke:#181818;stroke-width:0.5;" x1="177" x2="267" y1="452" y2="452"/></g><!--class Beamline--><g id="elem_Beamline"><rect codeLine="15" fill="#F1F1F1" height="48" id="Beamline" rx="2.5" ry="2.5" style="stroke:#181818;stroke-width:0.5;" width="100" x="7" y="279.5"/><ellipse cx="22" cy="295.5" fill="#ADD1B2" rx="11" ry="11" style="stroke:#181818;stroke-width:1.0;"/><path d="M24.9688,301.1406 Q24.3906,301.4375 23.75,301.5781 Q23.1094,301.7344 22.4063,301.7344 Q19.9063,301.7344 18.5781,300.0938 Q17.2656,298.4375 17.2656,295.3125 Q17.2656,292.1875 18.5781,290.5313 Q19.9063,288.875 22.4063,288.875 Q23.1094,288.875 23.75,289.0313 Q24.4063,289.1875 24.9688,289.4844 L24.9688,292.2031 Q24.3438,291.625 23.75,291.3594 Q23.1563,291.0781 22.5313,291.0781 Q21.1875,291.0781 20.5,292.1563 Q19.8125,293.2188 19.8125,295.3125 Q19.8125,297.4063 20.5,298.4844 Q21.1875,299.5469 22.5313,299.5469 Q23.1563,299.5469 23.75,299.2813 Q24.3438,299 24.9688,298.4219 L24.9688,301.1406 Z " fill="#000000"/><text fill="#000000" font-family="sans-serif" font-size="14" lengthAdjust="spacing" textLength="68" x="36" y="300.3467">Beamline</text><line style="stroke:#181818;stroke-width:0.5;" x1="8" x2="106" y1="311.5" y2="311.5"/><line style="stroke:#181818;stroke-width:0.5;" x1="8" x2="106" y1="319.5" y2="319.5"/></g><!--reverse link Metadata to Metadata--><g id="link_Metadata_Metadata"><path d="M222,193.19 C222,214.38 222,228.37 222,254.98 " fill="none" id="Metadata-backto-Metadata" style="stroke:#181818;stroke-width:1.0;"/><polygon fill="none" points="222,175.19,216,193.19,228,193.19,222,175.19" style="stroke:#181818;stroke-width:1.0;"/></g><!--reverse link Metadata to Sample--><g id="link_Metadata_Sample"><path codeLine="18" d="M314.23,303.5 C325.78,303.5 325.32,303.5 336.86,303.5 " fill="none" id="Metadata-backto-Sample" style="stroke:#181818;stroke-width:1.0;"/><polygon fill="#181818" points="302.23,303.5,308.23,307.5,314.23,303.5,308.23,299.5,302.23,303.5" style="stroke:#181818;stroke-width:1.0;"/></g><!--reverse link Metadata to Machine--><g id="link_Metadata_Machine"><path codeLine="19" d="M222,364.35 C222,384.58 222,395.2 222,411.66 " fill="none" id="Metadata-backto-Machine" style="stroke:#181818;stroke-width:1.0;"/><polygon fill="#181818" points="222,352.35,218,358.35,222,364.35,226,358.35,222,352.35" style="stroke:#181818;stroke-width:1.0;"/></g><!--link Beamline to Metadata--><g id="link_Beamline_Metadata"><path codeLine="20" d="M107.27,303.5 C118.78,303.5 118.28,303.5 129.78,303.5 " fill="none" id="Beamline-to-Metadata" style="stroke:#181818;stroke-width:1.0;"/><polygon fill="#181818" points="141.78,303.5,135.78,299.5,129.78,303.5,135.78,307.5,141.78,303.5" style="stroke:#181818;stroke-width:1.0;"/></g><!--SRC=[JO-n3W8X44HxleBEv1AWlzB-AajZiSBgaG0ITpKcnd-Nm44EcfaNPcSvhCoPPcDoWCIl6BHzH6C342dduVw4A4IrSa461mmIFup9aSGttdn0ZObzkKYwsl7kAsGv1347F5_aB4zLLXh1hZvXWKjJbLuHOcZuk4dnw_qjNQOEiaNtgCSQ6wjCgfVla1hT8wMcyKtn1m00]--></g></svg>