<?xml version="1.0" encoding="us-ascii" standalone="no"?><svg xmlns="http://www.w3.org/2000/svg" xmlns:xlink="http://www.w3.org/1999/xlink" contentStyleType="text/css" height="504.6px" preserveAspectRatio="none" style="width:661px;height:504px;background:#FFFFFF;" version="1.1" viewBox="0 0 661 504" width="661.8px" zoomAndPan="magnify"><defs/><g><!--cluster evedata--><g id="cluster_evedata"><path d="M5.1,3.6 L36.9,3.6 A2.25,2.25 0 0 1 38.4,5.1 L42.6,17.0438 L656.1,17.0438 A1.5,1.5 0 0 1 657.6,18.5438 L657.6,498.9 A1.5,1.5 0 0 1 656.1,500.4 L5.1,500.4 A1.5,1.5 0 0 1 3.6,498.9 L3.6,5.1 A1.5,1.5 0 0 1 5.1,3.6 " fill="none" style="stroke:#000000;stroke-width:0.8999999999999999;"/><line style="stroke:#000000;stroke-width:0.8999999999999999;" x1="3.6" x2="42.6" y1="17.0438" y2="17.0438"/><text fill="#000000" font-family="sans-serif" font-size="8.4" font-weight="bold" lengthAdjust="spacing" textLength="31.2" x="6" y="12.593">evedata</text></g><!--cluster scan--><g id="cluster_scan"><path d="M483.9,29.4 L502.5,29.4 A2.25,2.25 0 0 1 504,30.9 L508.2,42.8438 L641.7,42.8438 A1.5,1.5 0 0 1 643.2,44.3438 L643.2,484.5 A1.5,1.5 0 0 1 641.7,486 L483.9,486 A1.5,1.5 0 0 1 482.4,484.5 L482.4,30.9 A1.5,1.5 0 0 1 483.9,29.4 " fill="none" style="stroke:#000000;stroke-width:0.8999999999999999;"/><line style="stroke:#000000;stroke-width:0.8999999999999999;" x1="482.4" x2="508.2" y1="42.8438" y2="42.8438"/><text fill="#000000" font-family="sans-serif" font-size="8.4" font-weight="bold" lengthAdjust="spacing" textLength="18" x="484.8" y="38.393">scan</text></g><!--cluster boundaries--><g id="cluster_boundaries"><path d="M503.1,60 L546.9,60 A2.25,2.25 0 0 1 548.4,61.5 L552.6,73.4438 L621.3,73.4438 A1.5,1.5 0 0 1 622.8,74.9438 L622.8,130.5 A1.5,1.5 0 0 1 621.3,132 L503.1,132 A1.5,1.5 0 0 1 501.6,130.5 L501.6,61.5 A1.5,1.5 0 0 1 503.1,60 " fill="none" style="stroke:#000000;stroke-width:0.8999999999999999;"/><line style="stroke:#000000;stroke-width:0.8999999999999999;" x1="501.6" x2="552.6" y1="73.4438" y2="73.4438"/><text fill="#000000" font-family="sans-serif" font-size="8.4" font-weight="bold" lengthAdjust="spacing" textLength="43.2" x="504" y="68.993">boundaries</text></g><!--cluster controllers--><g id="cluster_controllers"><path d="M503.1,156 L545.1,156 A2.25,2.25 0 0 1 546.6,157.5 L550.8,169.4438 L618.3,169.4438 A1.5,1.5 0 0 1 619.8,170.9438 L619.8,226.5 A1.5,1.5 0 0 1 618.3,228 L503.1,228 A1.5,1.5 0 0 1 501.6,226.5 L501.6,157.5 A1.5,1.5 0 0 1 503.1,156 " fill="none" style="stroke:#000000;stroke-width:0.8999999999999999;"/><line style="stroke:#000000;stroke-width:0.8999999999999999;" x1="501.6" x2="550.8" y1="169.4438" y2="169.4438"/><text fill="#000000" font-family="sans-serif" font-size="8.4" font-weight="bold" lengthAdjust="spacing" textLength="41.4" x="504" y="164.993">controllers</text></g><!--cluster entities--><g id="cluster_entities"><path d="M503.1,252 L533.1,252 A2.25,2.25 0 0 1 534.6,253.5 L538.8,265.4437 L622.5,265.4437 A1.5,1.5 0 0 1 624,266.9437 L624,465.3 A1.5,1.5 0 0 1 622.5,466.8 L503.1,466.8 A1.5,1.5 0 0 1 501.6,465.3 L501.6,253.5 A1.5,1.5 0 0 1 503.1,252 " fill="none" style="stroke:#000000;stroke-width:0.8999999999999999;"/><line style="stroke:#000000;stroke-width:0.8999999999999999;" x1="501.6" x2="538.8" y1="265.4437" y2="265.4437"/><text fill="#000000" font-family="sans-serif" font-size="8.4" font-weight="bold" lengthAdjust="spacing" textLength="29.4" x="504" y="260.993">entities</text></g><!--cluster evefile--><g id="cluster_evefile"><path d="M230.1,29.4 L257.1,29.4 A2.25,2.25 0 0 1 258.6,30.9 L262.8,42.8438 L466.5,42.8438 A1.5,1.5 0 0 1 468,44.3438 L468,484.5 A1.5,1.5 0 0 1 466.5,486 L230.1,486 A1.5,1.5 0 0 1 228.6,484.5 L228.6,30.9 A1.5,1.5 0 0 1 230.1,29.4 " fill="none" style="stroke:#000000;stroke-width:0.8999999999999999;"/><line style="stroke:#000000;stroke-width:0.8999999999999999;" x1="228.6" x2="262.8" y1="42.8438" y2="42.8438"/><text fill="#000000" font-family="sans-serif" font-size="8.4" font-weight="bold" lengthAdjust="spacing" textLength="26.4" x="231" y="38.393">evefile</text></g><!--cluster boundaries--><g id="cluster_boundaries"><path d="M249.3,60 L293.1,60 A2.25,2.25 0 0 1 294.6,61.5 L298.8,73.4438 L383.1,73.4438 A1.5,1.5 0 0 1 384.6,74.9438 L384.6,130.5 A1.5,1.5 0 0 1 383.1,132 L249.3,132 A1.5,1.5 0 0 1 247.8,130.5 L247.8,61.5 A1.5,1.5 0 0 1 249.3,60 " fill="none" style="stroke:#000000;stroke-width:0.8999999999999999;"/><line style="stroke:#000000;stroke-width:0.8999999999999999;" x1="247.8" x2="298.8" y1="73.4438" y2="73.4438"/><text fill="#000000" font-family="sans-serif" font-size="8.4" font-weight="bold" lengthAdjust="spacing" textLength="43.2" x="250.2" y="68.993">boundaries</text></g><!--cluster controllers--><g id="cluster_controllers"><path d="M249.3,156 L291.3,156 A2.25,2.25 0 0 1 292.8,157.5 L297,169.4438 L447.3,169.4438 A1.5,1.5 0 0 1 448.8,170.9438 L448.8,226.5 A1.5,1.5 0 0 1 447.3,228 L249.3,228 A1.5,1.5 0 0 1 247.8,226.5 L247.8,157.5 A1.5,1.5 0 0 1 249.3,156 " fill="none" style="stroke:#000000;stroke-width:0.8999999999999999;"/><line style="stroke:#000000;stroke-width:0.8999999999999999;" x1="247.8" x2="297" y1="169.4438" y2="169.4438"/><text fill="#000000" font-family="sans-serif" font-size="8.4" font-weight="bold" lengthAdjust="spacing" textLength="41.4" x="250.2" y="164.993">controllers</text></g><!--cluster entities--><g id="cluster_entities"><path d="M249.3,252 L279.3,252 A2.25,2.25 0 0 1 280.8,253.5 L285,265.4437 L335.7,265.4437 A1.5,1.5 0 0 1 337.2,266.9437 L337.2,465.3 A1.5,1.5 0 0 1 335.7,466.8 L249.3,466.8 A1.5,1.5 0 0 1 247.8,465.3 L247.8,253.5 A1.5,1.5 0 0 1 249.3,252 " fill="none" style="stroke:#000000;stroke-width:0.8999999999999999;"/><line style="stroke:#000000;stroke-width:0.8999999999999999;" x1="247.8" x2="285" y1="265.4437" y2="265.4437"/><text fill="#000000" font-family="sans-serif" font-size="8.4" font-weight="bold" lengthAdjust="spacing" textLength="29.4" x="250.2" y="260.993">entities</text></g><!--cluster dataset--><g id="cluster_dataset"><path d="M19.5,29.4 L49.5,29.4 A2.25,2.25 0 0 1 51,30.9 L55.2,42.8438 L212.7,42.8438 A1.5,1.5 0 0 1 214.2,44.3438 L214.2,341.7 A1.5,1.5 0 0 1 212.7,343.2 L19.5,343.2 A1.5,1.5 0 0 1 18,341.7 L18,30.9 A1.5,1.5 0 0 1 19.5,29.4 " fill="none" style="stroke:#000000;stroke-width:0.8999999999999999;"/><line style="stroke:#000000;stroke-width:0.8999999999999999;" x1="18" x2="55.2" y1="42.8438" y2="42.8438"/><text fill="#000000" font-family="sans-serif" font-size="8.4" font-weight="bold" lengthAdjust="spacing" textLength="29.4" x="20.4" y="38.393">dataset</text></g><!--cluster boundaries--><g id="cluster_boundaries"><path d="M38.7,60 L82.5,60 A2.25,2.25 0 0 1 84,61.5 L88.2,73.4438 L117.9,73.4438 A1.5,1.5 0 0 1 119.4,74.9438 L119.4,130.5 A1.5,1.5 0 0 1 117.9,132 L38.7,132 A1.5,1.5 0 0 1 37.2,130.5 L37.2,61.5 A1.5,1.5 0 0 1 38.7,60 " fill="none" style="stroke:#000000;stroke-width:0.8999999999999999;"/><line style="stroke:#000000;stroke-width:0.8999999999999999;" x1="37.2" x2="88.2" y1="73.4438" y2="73.4438"/><text fill="#000000" font-family="sans-serif" font-size="8.4" font-weight="bold" lengthAdjust="spacing" textLength="43.2" x="39.6" y="68.993">boundaries</text></g><!--cluster controllers--><g id="cluster_controllers"><path d="M38.7,156 L80.7,156 A2.25,2.25 0 0 1 82.2,157.5 L86.4,169.4438 L193.5,169.4438 A1.5,1.5 0 0 1 195,170.9438 L195,226.5 A1.5,1.5 0 0 1 193.5,228 L38.7,228 A1.5,1.5 0 0 1 37.2,226.5 L37.2,157.5 A1.5,1.5 0 0 1 38.7,156 " fill="none" style="stroke:#000000;stroke-width:0.8999999999999999;"/><line style="stroke:#000000;stroke-width:0.8999999999999999;" x1="37.2" x2="86.4" y1="169.4438" y2="169.4438"/><text fill="#000000" font-family="sans-serif" font-size="8.4" font-weight="bold" lengthAdjust="spacing" textLength="41.4" x="39.6" y="164.993">controllers</text></g><!--cluster entities--><g id="cluster_entities"><path d="M38.7,252 L68.7,252 A2.25,2.25 0 0 1 70.2,253.5 L74.4,265.4437 L176.1,265.4437 A1.5,1.5 0 0 1 177.6,266.9437 L177.6,322.5 A1.5,1.5 0 0 1 176.1,324 L38.7,324 A1.5,1.5 0 0 1 37.2,322.5 L37.2,253.5 A1.5,1.5 0 0 1 38.7,252 " fill="none" style="stroke:#000000;stroke-width:0.8999999999999999;"/><line style="stroke:#000000;stroke-width:0.8999999999999999;" x1="37.2" x2="74.4" y1="265.4437" y2="265.4437"/><text fill="#000000" font-family="sans-serif" font-size="8.4" font-weight="bold" lengthAdjust="spacing" textLength="29.4" x="39.6" y="260.993">entities</text></g><path d="M579.9,85.8 L598.5,85.8 A2.25,2.25 0 0 1 600,87.3 L604.2,99.2437 L606.9,99.2437 A1.5,1.5 0 0 1 608.4,100.7437 L608.4,115.9875 A1.5,1.5 0 0 1 606.9,117.4875 L579.9,117.4875 A1.5,1.5 0 0 1 578.4,115.9875 L578.4,87.3 A1.5,1.5 0 0 1 579.9,85.8 " fill="#F1F1F1" style="stroke:#181818;stroke-width:0.3;"/><line style="stroke:#181818;stroke-width:0.3;" x1="578.4" x2="604.2" y1="99.2437" y2="99.2437"/><text fill="#000000" font-family="sans-serif" font-size="8.4" font-weight="bold" lengthAdjust="spacing" textLength="18" x="580.8" y="94.793">scan</text><path d="M528.9,85.8 L547.5,85.8 A2.25,2.25 0 0 1 549,87.3 L553.2,99.2437 L555.9,99.2437 A1.5,1.5 0 0 1 557.4,100.7437 L557.4,115.9875 A1.5,1.5 0 0 1 555.9,117.4875 L528.9,117.4875 A1.5,1.5 0 0 1 527.4,115.9875 L527.4,87.3 A1.5,1.5 0 0 1 528.9,85.8 " fill="#F1F1F1" style="stroke:#181818;stroke-width:0.3;"/><line style="stroke:#181818;stroke-width:0.3;" x1="527.4" x2="553.2" y1="99.2437" y2="99.2437"/><text fill="#000000" font-family="sans-serif" font-size="8.4" font-weight="bold" lengthAdjust="spacing" textLength="18" x="529.8" y="94.793">scml</text><path d="M529.2,181.8 L595.2,181.8 A2.25,2.25 0 0 1 596.7,183.3 L600.9,195.2438 L603.6,195.2438 A1.5,1.5 0 0 1 605.1,196.7438 L605.1,211.9875 A1.5,1.5 0 0 1 603.6,213.4875 L529.2,213.4875 A1.5,1.5 0 0 1 527.7,211.9875 L527.7,183.3 A1.5,1.5 0 0 1 529.2,181.8 " fill="#F1F1F1" style="stroke:#181818;stroke-width:0.3;"/><line style="stroke:#181818;stroke-width:0.3;" x1="527.7" x2="600.9" y1="195.2438" y2="195.2438"/><text fill="#000000" font-family="sans-serif" font-size="8.4" font-weight="bold" lengthAdjust="spacing" textLength="65.4" x="530.1" y="190.793">version_mapping</text><path d="M555.6,420.6 L568.8,420.6 A2.25,2.25 0 0 1 570.3,422.1 L574.5,434.0438 L577.2,434.0438 A1.5,1.5 0 0 1 578.7,435.5438 L578.7,450.7875 A1.5,1.5 0 0 1 577.2,452.2875 L555.6,452.2875 A1.5,1.5 0 0 1 554.1,450.7875 L554.1,422.1 A1.5,1.5 0 0 1 555.6,420.6 " fill="#F1F1F1" style="stroke:#181818;stroke-width:0.3;"/><line style="stroke:#181818;stroke-width:0.3;" x1="554.1" x2="574.5" y1="434.0438" y2="434.0438"/><text fill="#000000" font-family="sans-serif" font-size="8.4" font-weight="bold" lengthAdjust="spacing" textLength="12.6" x="556.5" y="429.593">file</text><path d="M577.5,352.8 L599.7,352.8 A2.25,2.25 0 0 1 601.2,354.3 L605.4,366.2438 L608.1,366.2438 A1.5,1.5 0 0 1 609.6,367.7438 L609.6,382.9875 A1.5,1.5 0 0 1 608.1,384.4875 L577.5,384.4875 A1.5,1.5 0 0 1 576,382.9875 L576,354.3 A1.5,1.5 0 0 1 577.5,352.8 " fill="#F1F1F1" style="stroke:#181818;stroke-width:0.3;"/><line style="stroke:#181818;stroke-width:0.3;" x1="576" x2="605.4" y1="366.2438" y2="366.2438"/><text fill="#000000" font-family="sans-serif" font-size="8.4" font-weight="bold" lengthAdjust="spacing" textLength="21.6" x="578.4" y="361.793">setup</text><path d="M526.5,352.8 L545.1,352.8 A2.25,2.25 0 0 1 546.6,354.3 L550.8,366.2438 L553.5,366.2438 A1.5,1.5 0 0 1 555,367.7438 L555,382.9875 A1.5,1.5 0 0 1 553.5,384.4875 L526.5,384.4875 A1.5,1.5 0 0 1 525,382.9875 L525,354.3 A1.5,1.5 0 0 1 526.5,352.8 " fill="#F1F1F1" style="stroke:#181818;stroke-width:0.3;"/><line style="stroke:#181818;stroke-width:0.3;" x1="525" x2="550.8" y1="366.2438" y2="366.2438"/><text fill="#000000" font-family="sans-serif" font-size="8.4" font-weight="bold" lengthAdjust="spacing" textLength="18" x="527.4" y="361.793">scan</text><path d="M577.5,277.8 L599.7,277.8 A2.25,2.25 0 0 1 601.2,279.3 L605.4,291.2438 L608.1,291.2438 A1.5,1.5 0 0 1 609.6,292.7438 L609.6,307.9875 A1.5,1.5 0 0 1 608.1,309.4875 L577.5,309.4875 A1.5,1.5 0 0 1 576,307.9875 L576,279.3 A1.5,1.5 0 0 1 577.5,277.8 " fill="#F1F1F1" style="stroke:#181818;stroke-width:0.3;"/><line style="stroke:#181818;stroke-width:0.3;" x1="576" x2="605.4" y1="291.2438" y2="291.2438"/><text fill="#000000" font-family="sans-serif" font-size="8.4" font-weight="bold" lengthAdjust="spacing" textLength="21.6" x="578.4" y="286.793">event</text><path d="M529.2,277.8 L544.8,277.8 A2.25,2.25 0 0 1 546.3,279.3 L550.5,291.2438 L553.2,291.2438 A1.5,1.5 0 0 1 554.7,292.7438 L554.7,307.9875 A1.5,1.5 0 0 1 553.2,309.4875 L529.2,309.4875 A1.5,1.5 0 0 1 527.7,307.9875 L527.7,279.3 A1.5,1.5 0 0 1 529.2,277.8 " fill="#F1F1F1" style="stroke:#181818;stroke-width:0.3;"/><line style="stroke:#181818;stroke-width:0.3;" x1="527.7" x2="550.5" y1="291.2438" y2="291.2438"/><text fill="#000000" font-family="sans-serif" font-size="8.4" font-weight="bold" lengthAdjust="spacing" textLength="15" x="530.1" y="286.793">plot</text><path d="M333.3,85.8 L360.3,85.8 A2.25,2.25 0 0 1 361.8,87.3 L366,99.2437 L368.7,99.2437 A1.5,1.5 0 0 1 370.2,100.7437 L370.2,115.9875 A1.5,1.5 0 0 1 368.7,117.4875 L333.3,117.4875 A1.5,1.5 0 0 1 331.8,115.9875 L331.8,87.3 A1.5,1.5 0 0 1 333.3,85.8 " fill="#F1F1F1" style="stroke:#181818;stroke-width:0.3;"/><line style="stroke:#181818;stroke-width:0.3;" x1="331.8" x2="366" y1="99.2437" y2="99.2437"/><text fill="#000000" font-family="sans-serif" font-size="8.4" font-weight="bold" lengthAdjust="spacing" textLength="26.4" x="334.2" y="94.793">evefile</text><path d="M275.4,85.8 L300.6,85.8 A2.25,2.25 0 0 1 302.1,87.3 L306.3,99.2437 L309,99.2437 A1.5,1.5 0 0 1 310.5,100.7437 L310.5,115.9875 A1.5,1.5 0 0 1 309,117.4875 L275.4,117.4875 A1.5,1.5 0 0 1 273.9,115.9875 L273.9,87.3 A1.5,1.5 0 0 1 275.4,85.8 " fill="#F1F1F1" style="stroke:#181818;stroke-width:0.3;"/><line style="stroke:#181818;stroke-width:0.3;" x1="273.9" x2="306.3" y1="99.2437" y2="99.2437"/><text fill="#000000" font-family="sans-serif" font-size="8.4" font-weight="bold" lengthAdjust="spacing" textLength="24.6" x="276.3" y="94.793">eveH5</text><path d="M358.2,181.8 L424.2,181.8 A2.25,2.25 0 0 1 425.7,183.3 L429.9,195.2438 L432.6,195.2438 A1.5,1.5 0 0 1 434.1,196.7438 L434.1,211.9875 A1.5,1.5 0 0 1 432.6,213.4875 L358.2,213.4875 A1.5,1.5 0 0 1 356.7,211.9875 L356.7,183.3 A1.5,1.5 0 0 1 358.2,181.8 " fill="#F1F1F1" style="stroke:#181818;stroke-width:0.3;"/><line style="stroke:#181818;stroke-width:0.3;" x1="356.7" x2="429.9" y1="195.2438" y2="195.2438"/><text fill="#000000" font-family="sans-serif" font-size="8.4" font-weight="bold" lengthAdjust="spacing" textLength="65.4" x="359.1" y="190.793">version_mapping</text><path d="M275.4,181.8 L325.8,181.8 A2.25,2.25 0 0 1 327.3,183.3 L331.5,195.2438 L334.2,195.2438 A1.5,1.5 0 0 1 335.7,196.7438 L335.7,211.9875 A1.5,1.5 0 0 1 334.2,213.4875 L275.4,213.4875 A1.5,1.5 0 0 1 273.9,211.9875 L273.9,183.3 A1.5,1.5 0 0 1 275.4,181.8 " fill="#F1F1F1" style="stroke:#181818;stroke-width:0.3;"/><line style="stroke:#181818;stroke-width:0.3;" x1="273.9" x2="331.5" y1="195.2438" y2="195.2438"/><text fill="#000000" font-family="sans-serif" font-size="8.4" font-weight="bold" lengthAdjust="spacing" textLength="49.8" x="276.3" y="190.793">transforming</text><path d="M287.4,420.6 L300.6,420.6 A2.25,2.25 0 0 1 302.1,422.1 L306.3,434.0438 L309,434.0438 A1.5,1.5 0 0 1 310.5,435.5438 L310.5,450.7875 A1.5,1.5 0 0 1 309,452.2875 L287.4,452.2875 A1.5,1.5 0 0 1 285.9,450.7875 L285.9,422.1 A1.5,1.5 0 0 1 287.4,420.6 " fill="#F1F1F1" style="stroke:#181818;stroke-width:0.3;"/><line style="stroke:#181818;stroke-width:0.3;" x1="285.9" x2="306.3" y1="434.0438" y2="434.0438"/><text fill="#000000" font-family="sans-serif" font-size="8.4" font-weight="bold" lengthAdjust="spacing" textLength="12.6" x="288.3" y="429.593">file</text><path d="M285,352.8 L303,352.8 A2.25,2.25 0 0 1 304.5,354.3 L308.7,366.2438 L311.4,366.2438 A1.5,1.5 0 0 1 312.9,367.7438 L312.9,382.9875 A1.5,1.5 0 0 1 311.4,384.4875 L285,384.4875 A1.5,1.5 0 0 1 283.5,382.9875 L283.5,354.3 A1.5,1.5 0 0 1 285,352.8 " fill="#F1F1F1" style="stroke:#181818;stroke-width:0.3;"/><line style="stroke:#181818;stroke-width:0.3;" x1="283.5" x2="308.7" y1="366.2438" y2="366.2438"/><text fill="#000000" font-family="sans-serif" font-size="8.4" font-weight="bold" lengthAdjust="spacing" textLength="17.4" x="285.9" y="361.793">data</text><path d="M275.1,277.8 L312.9,277.8 A2.25,2.25 0 0 1 314.4,279.3 L318.6,291.2438 L321.3,291.2438 A1.5,1.5 0 0 1 322.8,292.7438 L322.8,307.9875 A1.5,1.5 0 0 1 321.3,309.4875 L275.1,309.4875 A1.5,1.5 0 0 1 273.6,307.9875 L273.6,279.3 A1.5,1.5 0 0 1 275.1,277.8 " fill="#F1F1F1" style="stroke:#181818;stroke-width:0.3;"/><line style="stroke:#181818;stroke-width:0.3;" x1="273.6" x2="318.6" y1="291.2438" y2="291.2438"/><text fill="#000000" font-family="sans-serif" font-size="8.4" font-weight="bold" lengthAdjust="spacing" textLength="37.2" x="276" y="286.793">metadata</text><path d="M64.8,85.8 L94.8,85.8 A2.25,2.25 0 0 1 96.3,87.3 L100.5,99.2437 L103.2,99.2437 A1.5,1.5 0 0 1 104.7,100.7437 L104.7,115.9875 A1.5,1.5 0 0 1 103.2,117.4875 L64.8,117.4875 A1.5,1.5 0 0 1 63.3,115.9875 L63.3,87.3 A1.5,1.5 0 0 1 64.8,85.8 " fill="#F1F1F1" style="stroke:#181818;stroke-width:0.3;"/><line style="stroke:#181818;stroke-width:0.3;" x1="63.3" x2="100.5" y1="99.2437" y2="99.2437"/><text fill="#000000" font-family="sans-serif" font-size="8.4" font-weight="bold" lengthAdjust="spacing" textLength="29.4" x="65.7" y="94.793">dataset</text><path d="M120,181.8 L170.4,181.8 A2.25,2.25 0 0 1 171.9,183.3 L176.1,195.2438 L178.8,195.2438 A1.5,1.5 0 0 1 180.3,196.7438 L180.3,211.9875 A1.5,1.5 0 0 1 178.8,213.4875 L120,213.4875 A1.5,1.5 0 0 1 118.5,211.9875 L118.5,183.3 A1.5,1.5 0 0 1 120,181.8 " fill="#F1F1F1" style="stroke:#181818;stroke-width:0.3;"/><line style="stroke:#181818;stroke-width:0.3;" x1="118.5" x2="176.1" y1="195.2438" y2="195.2438"/><text fill="#000000" font-family="sans-serif" font-size="8.4" font-weight="bold" lengthAdjust="spacing" textLength="49.8" x="120.9" y="190.793">transforming</text><path d="M64.8,181.8 L87.6,181.8 A2.25,2.25 0 0 1 89.1,183.3 L93.3,195.2438 L96,195.2438 A1.5,1.5 0 0 1 97.5,196.7438 L97.5,211.9875 A1.5,1.5 0 0 1 96,213.4875 L64.8,213.4875 A1.5,1.5 0 0 1 63.3,211.9875 L63.3,183.3 A1.5,1.5 0 0 1 64.8,181.8 " fill="#F1F1F1" style="stroke:#181818;stroke-width:0.3;"/><line style="stroke:#181818;stroke-width:0.3;" x1="63.3" x2="93.3" y1="195.2438" y2="195.2438"/><text fill="#000000" font-family="sans-serif" font-size="8.4" font-weight="bold" lengthAdjust="spacing" textLength="22.2" x="65.7" y="190.793">filling</text><path d="M135,277.8 L153,277.8 A2.25,2.25 0 0 1 154.5,279.3 L158.7,291.2438 L161.4,291.2438 A1.5,1.5 0 0 1 162.9,292.7438 L162.9,307.9875 A1.5,1.5 0 0 1 161.4,309.4875 L135,309.4875 A1.5,1.5 0 0 1 133.5,307.9875 L133.5,279.3 A1.5,1.5 0 0 1 135,277.8 " fill="#F1F1F1" style="stroke:#181818;stroke-width:0.3;"/><line style="stroke:#181818;stroke-width:0.3;" x1="133.5" x2="158.7" y1="291.2438" y2="291.2438"/><text fill="#000000" font-family="sans-serif" font-size="8.4" font-weight="bold" lengthAdjust="spacing" textLength="17.4" x="135.9" y="286.793">data</text><path d="M64.5,277.8 L102.3,277.8 A2.25,2.25 0 0 1 103.8,279.3 L108,291.2438 L110.7,291.2438 A1.5,1.5 0 0 1 112.2,292.7438 L112.2,307.9875 A1.5,1.5 0 0 1 110.7,309.4875 L64.5,309.4875 A1.5,1.5 0 0 1 63,307.9875 L63,279.3 A1.5,1.5 0 0 1 64.5,277.8 " fill="#F1F1F1" style="stroke:#181818;stroke-width:0.3;"/><line style="stroke:#181818;stroke-width:0.3;" x1="63" x2="108" y1="291.2438" y2="291.2438"/><text fill="#000000" font-family="sans-serif" font-size="8.4" font-weight="bold" lengthAdjust="spacing" textLength="37.2" x="65.4" y="286.793">metadata</text><!--reverse link setup to file--><g id="link_setup_file"><path codeLine="24" d="M585.3492,388.0914 C581.0892,398.8554 576.75,409.794 572.49,420.534 " fill="none" id="setup-backto-file" style="stroke:#181818;stroke-width:0.6;"/><polygon fill="#181818" points="586.674,384.744,582.4553,388.8819,585.57,387.5335,586.9184,390.6483,586.674,384.744" style="stroke:#181818;stroke-width:0.6;"/></g><!--reverse link scan to file--><g id="link_scan_file"><path codeLine="25" d="M547.4508,388.0914 C551.7108,398.8554 556.05,409.794 560.31,420.534 " fill="none" id="scan-backto-file" style="stroke:#181818;stroke-width:0.6;"/><polygon fill="#181818" points="546.126,384.744,545.8816,390.6483,547.23,387.5335,550.3447,388.8819,546.126,384.744" style="stroke:#181818;stroke-width:0.6;"/></g><!--reverse link event to scan--><g id="link_event_scan"><path codeLine="26" d="M585.5715,312.9901 C580.8015,324.3241 574.698,336.402 565.2,348 C562.29,351.552 558.66,354.888 555.072,357.786 " fill="none" id="event-backto-scan" style="stroke:#181818;stroke-width:0.6;"/><polygon fill="#181818" points="586.968,309.672,582.6612,313.7182,585.8043,312.4371,587.0854,315.5801,586.968,309.672" style="stroke:#181818;stroke-width:0.6;"/></g><!--reverse link plot to scan--><g id="link_plot_scan"><path codeLine="27" d="M540.8897,313.3675 C540.6857,325.9675 540.456,340.062 540.252,352.65 " fill="none" id="plot-backto-scan" style="stroke:#181818;stroke-width:0.6;"/><polygon fill="#181818" points="540.948,309.768,538.4609,315.1284,540.8994,312.7676,543.2603,315.2061,540.948,309.768" style="stroke:#181818;stroke-width:0.6;"/></g><!--link boundaries to controllers--><g id="link_boundaries_controllers"><path codeLine="29" d="M506.4,132.3216 C506.4,132.4899 506.4,132.6585 506.4,132.8274 C506.4,138.2325 506.4,143.9743 506.4,149.7157 C506.4,151.1511 506.4,152.5864 506.4,154.0165 C506.4,154.374 506.4,154.7312 506.4,155.088 C506.4,155.2664 506.4,155.4446 506.4,155.6228 C506.4,155.7119 506.4,152.2009 506.4,152.29 " fill="none" id="boundaries-to-controllers" style="stroke:#181818;stroke-width:0.6;"/><polygon fill="#181818" points="506.4,155.89,508.8,150.49,506.4,152.89,504,150.49,506.4,155.89" style="stroke:#181818;stroke-width:0.6;"/></g><!--link controllers to entities--><g id="link_controllers_entities"><path codeLine="30" d="M506.4,228.3216 C506.4,228.4899 506.4,228.6585 506.4,228.8274 C506.4,234.2325 506.4,239.9743 506.4,245.7157 C506.4,247.1511 506.4,248.5864 506.4,250.0165 C506.4,250.374 506.4,250.7312 506.4,251.088 C506.4,251.2664 506.4,251.4446 506.4,251.6228 C506.4,251.7119 506.4,248.2009 506.4,248.29 " fill="none" id="controllers-to-entities" style="stroke:#181818;stroke-width:0.6;"/><polygon fill="#181818" points="506.4,251.89,508.8,246.49,506.4,248.89,504,246.49,506.4,251.89" style="stroke:#181818;stroke-width:0.6;"/></g><!--reverse link metadata to data--><g id="link_metadata_data"><path codeLine="50" d="M298.2,313.368 C298.2,325.968 298.2,340.062 298.2,352.65 " fill="none" id="metadata-backto-data" style="stroke:#181818;stroke-width:0.6;"/><polygon fill="#181818" points="298.2,309.768,295.8,315.168,298.2,312.768,300.6,315.168,298.2,309.768" style="stroke:#181818;stroke-width:0.6;"/></g><!--reverse link data to file--><g id="link_data_file"><path codeLine="51" d="M298.2,388.344 C298.2,399.108 298.2,409.794 298.2,420.534 " fill="none" id="data-backto-file" style="stroke:#181818;stroke-width:0.6;"/><polygon fill="#181818" points="298.2,384.744,295.8,390.144,298.2,387.744,300.6,390.144,298.2,384.744" style="stroke:#181818;stroke-width:0.6;"/></g><!--link boundaries to controllers--><g id="link_boundaries_controllers"><path codeLine="53" d="M252.6,132.3216 C252.6,132.4899 252.6,132.6585 252.6,132.8274 C252.6,138.2325 252.6,143.9743 252.6,149.7157 C252.6,151.1511 252.6,152.5864 252.6,154.0165 C252.6,154.374 252.6,154.7312 252.6,155.088 C252.6,155.2664 252.6,155.4446 252.6,155.6228 C252.6,155.7119 252.6,152.2009 252.6,152.29 " fill="none" id="boundaries-to-controllers-1" style="stroke:#181818;stroke-width:0.6;"/><polygon fill="#181818" points="252.6,155.89,255,150.49,252.6,152.89,250.2,150.49,252.6,155.89" style="stroke:#181818;stroke-width:0.6;"/></g><!--link controllers to entities--><g id="link_controllers_entities"><path codeLine="54" d="M252.6,228.3216 C252.6,228.4899 252.6,228.6585 252.6,228.8274 C252.6,234.2325 252.6,239.9743 252.6,245.7157 C252.6,247.1511 252.6,248.5864 252.6,250.0165 C252.6,250.374 252.6,250.7312 252.6,251.088 C252.6,251.2664 252.6,251.4446 252.6,251.6228 C252.6,251.7119 252.6,248.2009 252.6,248.29 " fill="none" id="controllers-to-entities-1" style="stroke:#181818;stroke-width:0.6;"/><polygon fill="#181818" points="252.6,251.89,255,246.49,252.6,248.89,250.2,246.49,252.6,251.89" style="stroke:#181818;stroke-width:0.6;"/></g><!--link boundaries to controllers--><g id="link_boundaries_controllers"><path codeLine="70" d="M42,132.3216 C42,132.4899 42,132.6585 42,132.8274 C42,138.2325 42,143.9743 42,149.7157 C42,151.1511 42,152.5864 42,154.0165 C42,154.374 42,154.7312 42,155.088 C42,155.2664 42,155.4446 42,155.6228 C42,155.7119 42,152.2009 42,152.29 " fill="none" id="boundaries-to-controllers-2" style="stroke:#181818;stroke-width:0.6;"/><polygon fill="#181818" points="42,155.89,44.4,150.49,42,152.89,39.6,150.49,42,155.89" style="stroke:#181818;stroke-width:0.6;"/></g><!--link controllers to entities--><g id="link_controllers_entities"><path codeLine="71" d="M42,228.3216 C42,228.4899 42,228.6585 42,228.8274 C42,234.2325 42,239.9743 42,245.7157 C42,247.1511 42,248.5864 42,250.0165 C42,250.374 42,250.7312 42,251.088 C42,251.2664 42,251.4446 42,251.6228 C42,251.7119 42,248.2009 42,248.29 " fill="none" id="controllers-to-entities-2" style="stroke:#181818;stroke-width:0.6;"/><polygon fill="#181818" points="42,251.89,44.4,246.49,42,248.89,39.6,246.49,42,251.89" style="stroke:#181818;stroke-width:0.6;"/></g><!--SRC=[fLIxSeCm4Epr5NIfO9B2NSQr_o9p0TcZiLuZP3SP_ZqeW7q87L8I2ZDuLtidtQvU-glG5XoeghEYUZkyCcQXlSA5L_pEE_1GVR5gVA9_cxu5FKCKt7oQc-x02TuZ9cPF8WE1AOcnORzMQxHtHahkg6Bt4H96VoYmLkZBBxIvziBJkpWBoIE8s1BtDrl6N9ykJHpxrBw8QQNP4bUVKtllTVspepKK-aaYKmC12fnrvL1nWpoxexnIrqTojkd5UFYRrSlq6DfoFERn7KsHOEGz_P0Y1tOwb7blAValQsEQTw3xit6gsFvB2va4KFIcE1ga0hg2_gYWk8UaIkpZpFBWvDqso_JoMgkCRUEIS2BsVC8rf0ILcxYblUY4d_7cs8dEpCX7vo5LOir5DPyEolRH7IwBKx6KpgHYCbswtjEKkE1cK8cZmtDAd04fGSqwtimywu5z0m00]--></g></svg>