<?xml version="1.0" encoding="us-ascii" standalone="no"?><svg xmlns="http://www.w3.org/2000/svg" xmlns:xlink="http://www.w3.org/1999/xlink" contentStyleType="text/css" height="460.6px" preserveAspectRatio="none" style="width:1274px;height:460px;background:#FFFFFF;" version="1.1" viewBox="0 0 1274 460" width="1274.7px" zoomAndPan="magnify"><defs/><g><!--class Metadata--><g id="elem_Metadata"><rect codeLine="2" fill="#F1F1F1" height="56.5687" id="Metadata" rx="1.75" ry="1.75" style="stroke:#181818;stroke-width:0.3499999999999999;" width="65.1" x="273" y="4.9"/><ellipse cx="283.5" cy="16.1" fill="#ADD1B2" rx="7.7" ry="7.7" style="stroke:#181818;stroke-width:0.6999999999999998;"/><path d="M283.5328,20.4422 C284.5828,20.4422 285.4469,20.0484 286.0812,19.3047 L285.1187,18.2437 C284.7359,18.6594 284.2766,18.9328 283.7187,18.9328 C282.5484,18.9328 281.7391,18.0031 281.7391,16.4062 C281.7391,14.8531 282.5484,13.9125 283.6422,13.9125 C284.2109,13.9125 284.6266,14.1312 284.9984,14.4703 L285.9609,13.3875 C285.4359,12.8734 284.6266,12.4031 283.6422,12.4031 C281.575,12.4031 279.9453,13.9016 279.9453,16.4719 C279.9453,19.075 281.6078,20.4422 283.5328,20.4422 Z " fill="#000000"/><text fill="#000000" font-family="sans-serif" font-size="9.8" lengthAdjust="spacing" textLength="42.7" x="293.3" y="19.4496">Metadata</text><line style="stroke:#181818;stroke-width:0.3499999999999999;" x1="273.7" x2="337.4" y1="27.3" y2="27.3"/><text fill="#000000" font-family="sans-serif" font-size="9.8" lengthAdjust="spacing" textLength="56" x="277.2" y="39.1918">name : string</text><text fill="#000000" font-family="sans-serif" font-size="9.8" lengthAdjust="spacing" textLength="55.3" x="277.2" y="50.6762">options : dict</text><line style="stroke:#181818;stroke-width:0.3499999999999999;" x1="273.7" x2="337.4" y1="55.8687" y2="55.8687"/></g><path d="M362.6,9.8 L362.6,26.8834 L332.5,47.3266 L362.6,32.4834 L362.6,49.5668 A0,0 0 0 0 362.6,49.5668 L672.7,49.5668 A0,0 0 0 0 672.7,49.5668 L672.7,16.8 L665.7,9.8 L362.6,9.8 A0,0 0 0 0 362.6,9.8 " fill="#FEFFDD" style="stroke:#181818;stroke-width:0.3499999999999999;"/><path d="M665.7,9.8 L665.7,16.8 L672.7,16.8 L665.7,9.8 " fill="#FEFFDD" style="stroke:#181818;stroke-width:0.3499999999999999;"/><text fill="#000000" font-family="sans-serif" font-size="9.1" lengthAdjust="spacing" textLength="95.2" x="366.8" y="22.517">The difference between</text><text fill="#000000" font-family="monospace" font-size="9.1" lengthAdjust="spacing" textLength="39.2" x="464.1" y="22.2544">options</text><text fill="#000000" font-family="sans-serif" font-size="9.1" lengthAdjust="spacing" textLength="83.3" x="505.4" y="22.517">here in Metadata and</text><text fill="#000000" font-family="monospace" font-size="9.1" lengthAdjust="spacing" textLength="39.2" x="590.8" y="22.2544">options</text><text fill="#000000" font-family="sans-serif" font-size="9.1" lengthAdjust="spacing" textLength="30.1" x="632.1" y="22.517">in Data:</text><text fill="#000000" font-family="sans-serif" font-size="9.1" lengthAdjust="spacing" textLength="270.2" x="366.8" y="33.1811">Options in Data vary potentially for each data point, hence are arrays,</text><text fill="#000000" font-family="sans-serif" font-size="9.1" lengthAdjust="spacing" textLength="282.1" x="366.8" y="43.8452">while options in Metadata are scalar and don't change for a Data object.</text><!--class Data--><g id="elem_Data"><rect codeLine="12" fill="#F1F1F1" height="33.6" id="Data" rx="1.75" ry="1.75" style="stroke:#181818;stroke-width:0.3499999999999999;" width="43.4" x="204.75" y="16.45"/><ellipse cx="215.25" cy="27.65" fill="#ADD1B2" rx="7.7" ry="7.7" style="stroke:#181818;stroke-width:0.6999999999999998;"/><path d="M215.2828,31.9922 C216.3328,31.9922 217.1969,31.5984 217.8312,30.8547 L216.8687,29.7937 C216.4859,30.2094 216.0266,30.4828 215.4687,30.4828 C214.2984,30.4828 213.4891,29.5531 213.4891,27.9562 C213.4891,26.4031 214.2984,25.4625 215.3922,25.4625 C215.9609,25.4625 216.3766,25.6812 216.7484,26.0203 L217.7109,24.9375 C217.1859,24.4234 216.3766,23.9531 215.3922,23.9531 C213.325,23.9531 211.6953,25.4516 211.6953,28.0219 C211.6953,30.625 213.3578,31.9922 215.2828,31.9922 Z " fill="#000000"/><text fill="#000000" font-family="sans-serif" font-size="9.8" lengthAdjust="spacing" textLength="21" x="225.05" y="30.9996">Data</text><line style="stroke:#181818;stroke-width:0.3499999999999999;" x1="205.45" x2="247.45" y1="38.85" y2="38.85"/><line style="stroke:#181818;stroke-width:0.3499999999999999;" x1="205.45" x2="247.45" y1="44.45" y2="44.45"/></g><g id="elem_GMN6"><path d="M187.6,123.55 L187.6,151.8781 A0,0 0 0 0 187.6,151.8781 L265.3,151.8781 A0,0 0 0 0 265.3,151.8781 L265.3,130.55 L258.3,123.55 L229.25,123.55 L226.45,50.253 L223.65,123.55 L187.6,123.55 A0,0 0 0 0 187.6,123.55 " fill="#FEFFDD" style="stroke:#181818;stroke-width:0.3499999999999999;"/><path d="M258.3,123.55 L258.3,130.55 L265.3,130.55 L258.3,123.55 " fill="#FEFFDD" style="stroke:#181818;stroke-width:0.3499999999999999;"/><text fill="#000000" font-family="sans-serif" font-size="9.1" lengthAdjust="spacing" textLength="63" x="191.8" y="135.4924">See diagram for</text><text fill="#000000" font-family="sans-serif" font-size="9.1" lengthAdjust="spacing" textLength="51.1" x="191.8" y="146.1564">data module.</text></g><!--class AbstractDeviceMetadata--><g id="elem_AbstractDeviceMetadata"><rect codeLine="16" fill="#F1F1F1" height="68.0531" id="AbstractDeviceMetadata" rx="1.75" ry="1.75" style="stroke:#181818;stroke-width:0.3499999999999999;" width="125.3" x="352.1" y="103.6"/><ellipse cx="362.6" cy="114.8" fill="#B4A7E5" rx="7.7" ry="7.7" style="stroke:#181818;stroke-width:0.6999999999999998;"/><path d="M359.9859,119 L365.3562,119 L365.3562,117.5234 L363.5516,117.5234 L363.5516,112.7219 L365.3562,112.7219 L365.3562,111.2453 L359.9859,111.2453 L359.9859,112.7219 L361.7906,112.7219 L361.7906,117.5234 L359.9859,117.5234 L359.9859,119 Z " fill="#000000"/><text fill="#000000" font-family="sans-serif" font-size="9.8" font-style="italic" lengthAdjust="spacing" textLength="102.9" x="372.4" y="118.1496">AbstractDeviceMetadata</text><line style="stroke:#181818;stroke-width:0.3499999999999999;" x1="352.8" x2="476.7" y1="126" y2="126"/><text fill="#000000" font-family="sans-serif" font-size="9.8" lengthAdjust="spacing" textLength="39.2" x="356.3" y="137.8918">id : string</text><text fill="#000000" font-family="sans-serif" font-size="9.8" lengthAdjust="spacing" textLength="42" x="356.3" y="149.3762">pv : string</text><text fill="#000000" font-family="sans-serif" font-size="9.8" lengthAdjust="spacing" textLength="90.3" x="356.3" y="160.8605">access_mode : string</text><line style="stroke:#181818;stroke-width:0.3499999999999999;" x1="352.8" x2="476.7" y1="166.0531" y2="166.0531"/></g><!--class MeasureMetadata--><g id="elem_MeasureMetadata"><rect codeLine="22" fill="#F1F1F1" height="45.0844" id="MeasureMetadata" rx="1.75" ry="1.75" style="stroke:#181818;stroke-width:0.3499999999999999;" width="102.9" x="501.9" y="115.15"/><ellipse cx="512.4" cy="126.35" fill="#ADD1B2" rx="7.7" ry="7.7" style="stroke:#181818;stroke-width:0.6999999999999998;"/><path d="M512.4328,130.6922 C513.4828,130.6922 514.3469,130.2984 514.9812,129.5547 L514.0187,128.4937 C513.6359,128.9094 513.1766,129.1828 512.6187,129.1828 C511.4484,129.1828 510.6391,128.2531 510.6391,126.6562 C510.6391,125.1031 511.4484,124.1625 512.5422,124.1625 C513.1109,124.1625 513.5266,124.3812 513.8984,124.7203 L514.8609,123.6375 C514.3359,123.1234 513.5266,122.6531 512.5422,122.6531 C510.475,122.6531 508.8453,124.1516 508.8453,126.7219 C508.8453,129.325 510.5078,130.6922 512.4328,130.6922 Z " fill="#000000"/><text fill="#000000" font-family="sans-serif" font-size="9.8" lengthAdjust="spacing" textLength="80.5" x="522.2" y="129.6996">MeasureMetadata</text><line style="stroke:#181818;stroke-width:0.3499999999999999;" x1="502.6" x2="604.1" y1="137.55" y2="137.55"/><text fill="#000000" font-family="sans-serif" font-size="9.8" lengthAdjust="spacing" textLength="48.3" x="506.1" y="149.4418">unit : string</text><line style="stroke:#181818;stroke-width:0.3499999999999999;" x1="502.6" x2="604.1" y1="154.6344" y2="154.6344"/></g><!--class MonitorMetadata--><g id="elem_MonitorMetadata"><rect codeLine="26" fill="#F1F1F1" height="33.6" id="MonitorMetadata" rx="1.75" ry="1.75" style="stroke:#181818;stroke-width:0.3499999999999999;" width="99.4" x="243.95" y="219.1"/><ellipse cx="254.45" cy="230.3" fill="#ADD1B2" rx="7.7" ry="7.7" style="stroke:#181818;stroke-width:0.6999999999999998;"/><path d="M254.4828,234.6422 C255.5328,234.6422 256.3969,234.2484 257.0312,233.5047 L256.0687,232.4437 C255.6859,232.8594 255.2266,233.1328 254.6687,233.1328 C253.4984,233.1328 252.6891,232.2031 252.6891,230.6062 C252.6891,229.0531 253.4984,228.1125 254.5922,228.1125 C255.1609,228.1125 255.5766,228.3312 255.9484,228.6703 L256.9109,227.5875 C256.3859,227.0734 255.5766,226.6031 254.5922,226.6031 C252.525,226.6031 250.8953,228.1016 250.8953,230.6719 C250.8953,233.275 252.5578,234.6422 254.4828,234.6422 Z " fill="#000000"/><text fill="#000000" font-family="sans-serif" font-size="9.8" lengthAdjust="spacing" textLength="77" x="264.25" y="233.6496">MonitorMetadata</text><line style="stroke:#181818;stroke-width:0.3499999999999999;" x1="244.65" x2="342.65" y1="241.5" y2="241.5"/><line style="stroke:#181818;stroke-width:0.3499999999999999;" x1="244.65" x2="342.65" y1="247.1" y2="247.1"/></g><!--class DeviceMetadata--><g id="elem_DeviceMetadata"><rect codeLine="29" fill="#F1F1F1" height="33.6" id="DeviceMetadata" rx="1.75" ry="1.75" style="stroke:#181818;stroke-width:0.3499999999999999;" width="93.1" x="368.2" y="219.1"/><ellipse cx="378.7" cy="230.3" fill="#ADD1B2" rx="7.7" ry="7.7" style="stroke:#181818;stroke-width:0.6999999999999998;"/><path d="M378.7328,234.6422 C379.7828,234.6422 380.6469,234.2484 381.2812,233.5047 L380.3187,232.4437 C379.9359,232.8594 379.4766,233.1328 378.9187,233.1328 C377.7484,233.1328 376.9391,232.2031 376.9391,230.6062 C376.9391,229.0531 377.7484,228.1125 378.8422,228.1125 C379.4109,228.1125 379.8266,228.3312 380.1984,228.6703 L381.1609,227.5875 C380.6359,227.0734 379.8266,226.6031 378.8422,226.6031 C376.775,226.6031 375.1453,228.1016 375.1453,230.6719 C375.1453,233.275 376.8078,234.6422 378.7328,234.6422 Z " fill="#000000"/><text fill="#000000" font-family="sans-serif" font-size="9.8" lengthAdjust="spacing" textLength="70.7" x="388.5" y="233.6496">DeviceMetadata</text><line style="stroke:#181818;stroke-width:0.3499999999999999;" x1="368.9" x2="460.6" y1="241.5" y2="241.5"/><line style="stroke:#181818;stroke-width:0.3499999999999999;" x1="368.9" x2="460.6" y1="247.1" y2="247.1"/></g><!--class AxisMetadata--><g id="elem_AxisMetadata"><rect codeLine="32" fill="#F1F1F1" height="45.0844" id="AxisMetadata" rx="1.75" ry="1.75" style="stroke:#181818;stroke-width:0.3499999999999999;" width="83.3" x="485.8" y="213.5"/><ellipse cx="496.3" cy="224.7" fill="#ADD1B2" rx="7.7" ry="7.7" style="stroke:#181818;stroke-width:0.6999999999999998;"/><path d="M496.3328,229.0422 C497.3828,229.0422 498.2469,228.6484 498.8812,227.9047 L497.9187,226.8437 C497.5359,227.2594 497.0766,227.5328 496.5187,227.5328 C495.3484,227.5328 494.5391,226.6031 494.5391,225.0062 C494.5391,223.4531 495.3484,222.5125 496.4422,222.5125 C497.0109,222.5125 497.4266,222.7312 497.7984,223.0703 L498.7609,221.9875 C498.2359,221.4734 497.4266,221.0031 496.4422,221.0031 C494.375,221.0031 492.7453,222.5016 492.7453,225.0719 C492.7453,227.675 494.4078,229.0422 496.3328,229.0422 Z " fill="#000000"/><text fill="#000000" font-family="sans-serif" font-size="9.8" lengthAdjust="spacing" textLength="60.9" x="506.1" y="228.0496">AxisMetadata</text><line style="stroke:#181818;stroke-width:0.3499999999999999;" x1="486.5" x2="568.4" y1="235.9" y2="235.9"/><text fill="#000000" font-family="sans-serif" font-size="9.8" lengthAdjust="spacing" textLength="70.7" x="490" y="247.7918">deadband : float</text><line style="stroke:#181818;stroke-width:0.3499999999999999;" x1="486.5" x2="568.4" y1="252.9844" y2="252.9844"/></g><!--class ChannelMetadata--><g id="elem_ChannelMetadata"><rect codeLine="36" fill="#F1F1F1" height="33.6" id="ChannelMetadata" rx="1.75" ry="1.75" style="stroke:#181818;stroke-width:0.3499999999999999;" width="100.8" x="593.95" y="219.1"/><ellipse cx="604.45" cy="230.3" fill="#ADD1B2" rx="7.7" ry="7.7" style="stroke:#181818;stroke-width:0.6999999999999998;"/><path d="M604.4828,234.6422 C605.5328,234.6422 606.3969,234.2484 607.0312,233.5047 L606.0687,232.4437 C605.6859,232.8594 605.2266,233.1328 604.6687,233.1328 C603.4984,233.1328 602.6891,232.2031 602.6891,230.6062 C602.6891,229.0531 603.4984,228.1125 604.5922,228.1125 C605.1609,228.1125 605.5766,228.3312 605.9484,228.6703 L606.9109,227.5875 C606.3859,227.0734 605.5766,226.6031 604.5922,226.6031 C602.525,226.6031 600.8953,228.1016 600.8953,230.6719 C600.8953,233.275 602.5578,234.6422 604.4828,234.6422 Z " fill="#000000"/><text fill="#000000" font-family="sans-serif" font-size="9.8" lengthAdjust="spacing" textLength="78.4" x="614.25" y="233.6496">ChannelMetadata</text><line style="stroke:#181818;stroke-width:0.3499999999999999;" x1="594.65" x2="694.05" y1="241.5" y2="241.5"/><line style="stroke:#181818;stroke-width:0.3499999999999999;" x1="594.65" x2="694.05" y1="247.1" y2="247.1"/></g><!--class TimestampMetadata--><g id="elem_TimestampMetadata"><rect codeLine="39" fill="#F1F1F1" height="33.6" id="TimestampMetadata" rx="1.75" ry="1.75" style="stroke:#181818;stroke-width:0.3499999999999999;" width="114.1" x="719.6" y="219.1"/><ellipse cx="730.1" cy="230.3" fill="#ADD1B2" rx="7.7" ry="7.7" style="stroke:#181818;stroke-width:0.6999999999999998;"/><path d="M730.1328,234.6422 C731.1828,234.6422 732.0469,234.2484 732.6812,233.5047 L731.7187,232.4437 C731.3359,232.8594 730.8766,233.1328 730.3187,233.1328 C729.1484,233.1328 728.3391,232.2031 728.3391,230.6062 C728.3391,229.0531 729.1484,228.1125 730.2422,228.1125 C730.8109,228.1125 731.2266,228.3312 731.5984,228.6703 L732.5609,227.5875 C732.0359,227.0734 731.2266,226.6031 730.2422,226.6031 C728.175,226.6031 726.5453,228.1016 726.5453,230.6719 C726.5453,233.275 728.2078,234.6422 730.1328,234.6422 Z " fill="#000000"/><text fill="#000000" font-family="sans-serif" font-size="9.8" lengthAdjust="spacing" textLength="91.7" x="739.9" y="233.6496">TimestampMetadata</text><line style="stroke:#181818;stroke-width:0.3499999999999999;" x1="720.3" x2="833" y1="241.5" y2="241.5"/><line style="stroke:#181818;stroke-width:0.3499999999999999;" x1="720.3" x2="833" y1="247.1" y2="247.1"/></g><!--class NonnumericChannelMetadata--><g id="elem_NonnumericChannelMetadata"><rect codeLine="45" fill="#F1F1F1" height="33.6" id="NonnumericChannelMetadata" rx="1.75" ry="1.75" style="stroke:#181818;stroke-width:0.3499999999999999;" width="154" x="652.05" y="323.4"/><ellipse cx="662.55" cy="334.6" fill="#ADD1B2" rx="7.7" ry="7.7" style="stroke:#181818;stroke-width:0.6999999999999998;"/><path d="M662.5828,338.9422 C663.6328,338.9422 664.4969,338.5484 665.1312,337.8047 L664.1687,336.7437 C663.7859,337.1594 663.3266,337.4328 662.7687,337.4328 C661.5984,337.4328 660.7891,336.5031 660.7891,334.9062 C660.7891,333.3531 661.5984,332.4125 662.6922,332.4125 C663.2609,332.4125 663.6766,332.6312 664.0484,332.9703 L665.0109,331.8875 C664.4859,331.3734 663.6766,330.9031 662.6922,330.9031 C660.625,330.9031 658.9953,332.4016 658.9953,334.9719 C658.9953,337.575 660.6578,338.9422 662.5828,338.9422 Z " fill="#000000"/><text fill="#000000" font-family="sans-serif" font-size="9.8" lengthAdjust="spacing" textLength="131.6" x="672.35" y="337.9496">NonnumericChannelMetadata</text><line style="stroke:#181818;stroke-width:0.3499999999999999;" x1="652.75" x2="805.35" y1="345.8" y2="345.8"/><line style="stroke:#181818;stroke-width:0.3499999999999999;" x1="652.75" x2="805.35" y1="351.4" y2="351.4"/></g><!--class ArrayChannelMetadata--><g id="elem_ArrayChannelMetadata"><rect codeLine="61" fill="#F1F1F1" height="33.6" id="ArrayChannelMetadata" rx="1.75" ry="1.75" style="stroke:#181818;stroke-width:0.3499999999999999;" width="124.6" x="830.55" y="323.4"/><ellipse cx="841.05" cy="334.6" fill="#ADD1B2" rx="7.7" ry="7.7" style="stroke:#181818;stroke-width:0.6999999999999998;"/><path d="M841.0828,338.9422 C842.1328,338.9422 842.9969,338.5484 843.6312,337.8047 L842.6687,336.7437 C842.2859,337.1594 841.8266,337.4328 841.2687,337.4328 C840.0984,337.4328 839.2891,336.5031 839.2891,334.9062 C839.2891,333.3531 840.0984,332.4125 841.1922,332.4125 C841.7609,332.4125 842.1766,332.6312 842.5484,332.9703 L843.5109,331.8875 C842.9859,331.3734 842.1766,330.9031 841.1922,330.9031 C839.125,330.9031 837.4953,332.4016 837.4953,334.9719 C837.4953,337.575 839.1578,338.9422 841.0828,338.9422 Z " fill="#000000"/><text fill="#000000" font-family="sans-serif" font-size="9.8" lengthAdjust="spacing" textLength="102.2" x="850.85" y="337.9496">ArrayChannelMetadata</text><line style="stroke:#181818;stroke-width:0.3499999999999999;" x1="831.25" x2="954.45" y1="345.8" y2="345.8"/><line style="stroke:#181818;stroke-width:0.3499999999999999;" x1="831.25" x2="954.45" y1="351.4" y2="351.4"/></g><!--class AreaChannelMetadata--><g id="elem_AreaChannelMetadata"><rect codeLine="64" fill="#F1F1F1" height="33.6" id="AreaChannelMetadata" rx="1.75" ry="1.75" style="stroke:#181818;stroke-width:0.3499999999999999;" width="121.1" x="981.4" y="323.4"/><ellipse cx="991.9" cy="334.6" fill="#ADD1B2" rx="7.7" ry="7.7" style="stroke:#181818;stroke-width:0.6999999999999998;"/><path d="M991.9328,338.9422 C992.9828,338.9422 993.8469,338.5484 994.4812,337.8047 L993.5187,336.7437 C993.1359,337.1594 992.6766,337.4328 992.1187,337.4328 C990.9484,337.4328 990.1391,336.5031 990.1391,334.9062 C990.1391,333.3531 990.9484,332.4125 992.0422,332.4125 C992.6109,332.4125 993.0266,332.6312 993.3984,332.9703 L994.3609,331.8875 C993.8359,331.3734 993.0266,330.9031 992.0422,330.9031 C989.975,330.9031 988.3453,332.4016 988.3453,334.9719 C988.3453,337.575 990.0078,338.9422 991.9328,338.9422 Z " fill="#000000"/><text fill="#000000" font-family="sans-serif" font-size="9.8" lengthAdjust="spacing" textLength="98.7" x="1001.7" y="337.9496">AreaChannelMetadata</text><line style="stroke:#181818;stroke-width:0.3499999999999999;" x1="982.1" x2="1101.8" y1="345.8" y2="345.8"/><line style="stroke:#181818;stroke-width:0.3499999999999999;" x1="982.1" x2="1101.8" y1="351.4" y2="351.4"/></g><!--class SinglePointChannelMetadata--><g id="elem_SinglePointChannelMetadata"><rect codeLine="48" fill="#F1F1F1" height="33.6" id="SinglePointChannelMetadata" rx="1.75" ry="1.75" style="stroke:#181818;stroke-width:0.3499999999999999;" width="149.8" x="22.75" y="323.4"/><ellipse cx="33.25" cy="334.6" fill="#ADD1B2" rx="7.7" ry="7.7" style="stroke:#181818;stroke-width:0.6999999999999998;"/><path d="M33.2828,338.9422 C34.3328,338.9422 35.1969,338.5484 35.8312,337.8047 L34.8687,336.7437 C34.4859,337.1594 34.0266,337.4328 33.4687,337.4328 C32.2984,337.4328 31.4891,336.5031 31.4891,334.9062 C31.4891,333.3531 32.2984,332.4125 33.3922,332.4125 C33.9609,332.4125 34.3766,332.6312 34.7484,332.9703 L35.7109,331.8875 C35.1859,331.3734 34.3766,330.9031 33.3922,330.9031 C31.325,330.9031 29.6953,332.4016 29.6953,334.9719 C29.6953,337.575 31.3578,338.9422 33.2828,338.9422 Z " fill="#000000"/><text fill="#000000" font-family="sans-serif" font-size="9.8" lengthAdjust="spacing" textLength="127.4" x="43.05" y="337.9496">SinglePointChannelMetadata</text><line style="stroke:#181818;stroke-width:0.3499999999999999;" x1="23.45" x2="171.85" y1="345.8" y2="345.8"/><line style="stroke:#181818;stroke-width:0.3499999999999999;" x1="23.45" x2="171.85" y1="351.4" y2="351.4"/></g><!--class AverageChannelMetadata--><g id="elem_AverageChannelMetadata"><rect codeLine="50" fill="#F1F1F1" height="79.5375" id="AverageChannelMetadata" rx="1.75" ry="1.75" style="stroke:#181818;stroke-width:0.3499999999999999;" width="136.5" x="332.5" y="300.3"/><ellipse cx="343" cy="311.5" fill="#ADD1B2" rx="7.7" ry="7.7" style="stroke:#181818;stroke-width:0.6999999999999998;"/><path d="M343.0328,315.8422 C344.0828,315.8422 344.9469,315.4484 345.5812,314.7047 L344.6187,313.6437 C344.2359,314.0594 343.7766,314.3328 343.2187,314.3328 C342.0484,314.3328 341.2391,313.4031 341.2391,311.8062 C341.2391,310.2531 342.0484,309.3125 343.1422,309.3125 C343.7109,309.3125 344.1266,309.5312 344.4984,309.8703 L345.4609,308.7875 C344.9359,308.2734 344.1266,307.8031 343.1422,307.8031 C341.075,307.8031 339.4453,309.3016 339.4453,311.8719 C339.4453,314.475 341.1078,315.8422 343.0328,315.8422 Z " fill="#000000"/><text fill="#000000" font-family="sans-serif" font-size="9.8" lengthAdjust="spacing" textLength="114.1" x="352.8" y="314.8496">AverageChannelMetadata</text><line style="stroke:#181818;stroke-width:0.3499999999999999;" x1="333.2" x2="468.3" y1="322.7" y2="322.7"/><text fill="#000000" font-family="sans-serif" font-size="9.8" lengthAdjust="spacing" textLength="86.1" x="336.7" y="334.5918">n_averages : integer</text><text fill="#000000" font-family="sans-serif" font-size="9.8" lengthAdjust="spacing" textLength="64.4" x="336.7" y="346.0762">low_limit : float</text><text fill="#000000" font-family="sans-serif" font-size="9.8" lengthAdjust="spacing" textLength="99.4" x="336.7" y="357.5605">max_attempts : integer</text><text fill="#000000" font-family="sans-serif" font-size="9.8" lengthAdjust="spacing" textLength="89.6" x="336.7" y="369.0449">max_deviation : float</text><line style="stroke:#181818;stroke-width:0.3499999999999999;" x1="333.2" x2="468.3" y1="374.2375" y2="374.2375"/></g><!--class IntervalChannelMetadata--><g id="elem_IntervalChannelMetadata"><rect codeLine="57" fill="#F1F1F1" height="45.0844" id="IntervalChannelMetadata" rx="1.75" ry="1.75" style="stroke:#181818;stroke-width:0.3499999999999999;" width="133.7" x="493.5" y="317.8"/><ellipse cx="504" cy="329" fill="#ADD1B2" rx="7.7" ry="7.7" style="stroke:#181818;stroke-width:0.6999999999999998;"/><path d="M504.0328,333.3422 C505.0828,333.3422 505.9469,332.9484 506.5812,332.2047 L505.6187,331.1437 C505.2359,331.5594 504.7766,331.8328 504.2187,331.8328 C503.0484,331.8328 502.2391,330.9031 502.2391,329.3062 C502.2391,327.7531 503.0484,326.8125 504.1422,326.8125 C504.7109,326.8125 505.1266,327.0312 505.4984,327.3703 L506.4609,326.2875 C505.9359,325.7734 505.1266,325.3031 504.1422,325.3031 C502.075,325.3031 500.4453,326.8016 500.4453,329.3719 C500.4453,331.975 502.1078,333.3422 504.0328,333.3422 Z " fill="#000000"/><text fill="#000000" font-family="sans-serif" font-size="9.8" lengthAdjust="spacing" textLength="111.3" x="513.8" y="332.3496">IntervalChannelMetadata</text><line style="stroke:#181818;stroke-width:0.3499999999999999;" x1="494.2" x2="626.5" y1="340.2" y2="340.2"/><text fill="#000000" font-family="sans-serif" font-size="9.8" lengthAdjust="spacing" textLength="91.7" x="497.7" y="352.0918">trigger_interval : float</text><line style="stroke:#181818;stroke-width:0.3499999999999999;" x1="494.2" x2="626.5" y1="357.2844" y2="357.2844"/></g><!--class NormalizedMetadata--><g id="elem_NormalizedMetadata"><rect codeLine="69" fill="#F1F1F1" height="45.0844" id="NormalizedMetadata" rx="1.75" ry="1.75" style="stroke:#181818;stroke-width:0.3499999999999999;" width="110.6" x="197.05" y="317.8"/><ellipse cx="207.55" cy="329" fill="#B4A7E5" rx="7.7" ry="7.7" style="stroke:#181818;stroke-width:0.6999999999999998;"/><path d="M204.9359,333.2 L210.3062,333.2 L210.3062,331.7234 L208.5016,331.7234 L208.5016,326.9219 L210.3062,326.9219 L210.3062,325.4453 L204.9359,325.4453 L204.9359,326.9219 L206.7406,326.9219 L206.7406,331.7234 L204.9359,331.7234 L204.9359,333.2 Z " fill="#000000"/><text fill="#000000" font-family="sans-serif" font-size="9.8" font-style="italic" lengthAdjust="spacing" textLength="88.2" x="217.35" y="332.3496">NormalizedMetadata</text><line style="stroke:#181818;stroke-width:0.3499999999999999;" x1="197.75" x2="306.95" y1="340.2" y2="340.2"/><text fill="#000000" font-family="sans-serif" font-size="9.8" lengthAdjust="spacing" textLength="86.1" x="201.25" y="352.0918">normalize_id : string</text><line style="stroke:#181818;stroke-width:0.3499999999999999;" x1="197.75" x2="306.95" y1="357.2844" y2="357.2844"/></g><!--class SinglePointNormalizedChannelMetadata--><g id="elem_SinglePointNormalizedChannelMetadata"><rect codeLine="73" fill="#F1F1F1" height="33.6" id="SinglePointNormalizedChannelMetadata" rx="1.75" ry="1.75" style="stroke:#181818;stroke-width:0.3499999999999999;" width="199.5" x="4.9" y="422.1"/><ellipse cx="15.4" cy="433.3" fill="#ADD1B2" rx="7.7" ry="7.7" style="stroke:#181818;stroke-width:0.6999999999999998;"/><path d="M15.4328,437.6422 C16.4828,437.6422 17.3469,437.2484 17.9812,436.5047 L17.0187,435.4437 C16.6359,435.8594 16.1766,436.1328 15.6187,436.1328 C14.4484,436.1328 13.6391,435.2031 13.6391,433.6062 C13.6391,432.0531 14.4484,431.1125 15.5422,431.1125 C16.1109,431.1125 16.5266,431.3312 16.8984,431.6703 L17.8609,430.5875 C17.3359,430.0734 16.5266,429.6031 15.5422,429.6031 C13.475,429.6031 11.8453,431.1016 11.8453,433.6719 C11.8453,436.275 13.5078,437.6422 15.4328,437.6422 Z " fill="#000000"/><text fill="#000000" font-family="sans-serif" font-size="9.8" lengthAdjust="spacing" textLength="177.1" x="25.2" y="436.6496">SinglePointNormalizedChannelMetadata</text><line style="stroke:#181818;stroke-width:0.3499999999999999;" x1="5.6" x2="203.7" y1="444.5" y2="444.5"/><line style="stroke:#181818;stroke-width:0.3499999999999999;" x1="5.6" x2="203.7" y1="450.1" y2="450.1"/></g><!--class AverageNormalizedChannelMetadata--><g id="elem_AverageNormalizedChannelMetadata"><rect codeLine="75" fill="#F1F1F1" height="33.6" id="AverageNormalizedChannelMetadata" rx="1.75" ry="1.75" style="stroke:#181818;stroke-width:0.3499999999999999;" width="186.2" x="246.05" y="422.1"/><ellipse cx="256.55" cy="433.3" fill="#ADD1B2" rx="7.7" ry="7.7" style="stroke:#181818;stroke-width:0.6999999999999998;"/><path d="M256.5828,437.6422 C257.6328,437.6422 258.4969,437.2484 259.1312,436.5047 L258.1687,435.4437 C257.7859,435.8594 257.3266,436.1328 256.7687,436.1328 C255.5984,436.1328 254.7891,435.2031 254.7891,433.6062 C254.7891,432.0531 255.5984,431.1125 256.6922,431.1125 C257.2609,431.1125 257.6766,431.3312 258.0484,431.6703 L259.0109,430.5875 C258.4859,430.0734 257.6766,429.6031 256.6922,429.6031 C254.625,429.6031 252.9953,431.1016 252.9953,433.6719 C252.9953,436.275 254.6578,437.6422 256.5828,437.6422 Z " fill="#000000"/><text fill="#000000" font-family="sans-serif" font-size="9.8" lengthAdjust="spacing" textLength="163.8" x="266.35" y="436.6496">AverageNormalizedChannelMetadata</text><line style="stroke:#181818;stroke-width:0.3499999999999999;" x1="246.75" x2="431.55" y1="444.5" y2="444.5"/><line style="stroke:#181818;stroke-width:0.3499999999999999;" x1="246.75" x2="431.55" y1="450.1" y2="450.1"/></g><!--class IntervalNormalizedChannelMetadata--><g id="elem_IntervalNormalizedChannelMetadata"><rect codeLine="77" fill="#F1F1F1" height="33.6" id="IntervalNormalizedChannelMetadata" rx="1.75" ry="1.75" style="stroke:#181818;stroke-width:0.3499999999999999;" width="183.4" x="465.15" y="422.1"/><ellipse cx="475.65" cy="433.3" fill="#ADD1B2" rx="7.7" ry="7.7" style="stroke:#181818;stroke-width:0.6999999999999998;"/><path d="M475.6828,437.6422 C476.7328,437.6422 477.5969,437.2484 478.2312,436.5047 L477.2687,435.4437 C476.8859,435.8594 476.4266,436.1328 475.8687,436.1328 C474.6984,436.1328 473.8891,435.2031 473.8891,433.6062 C473.8891,432.0531 474.6984,431.1125 475.7922,431.1125 C476.3609,431.1125 476.7766,431.3312 477.1484,431.6703 L478.1109,430.5875 C477.5859,430.0734 476.7766,429.6031 475.7922,429.6031 C473.725,429.6031 472.0953,431.1016 472.0953,433.6719 C472.0953,436.275 473.7578,437.6422 475.6828,437.6422 Z " fill="#000000"/><text fill="#000000" font-family="sans-serif" font-size="9.8" lengthAdjust="spacing" textLength="161" x="485.45" y="436.6496">IntervalNormalizedChannelMetadata</text><line style="stroke:#181818;stroke-width:0.3499999999999999;" x1="465.85" x2="647.85" y1="444.5" y2="444.5"/><line style="stroke:#181818;stroke-width:0.3499999999999999;" x1="465.85" x2="647.85" y1="450.1" y2="450.1"/></g><!--class MCAChannelMetadata--><g id="elem_MCAChannelMetadata"><rect codeLine="79" fill="#F1F1F1" height="33.6" id="MCAChannelMetadata" rx="1.75" ry="1.75" style="stroke:#181818;stroke-width:0.3499999999999999;" width="121.8" x="829.15" y="422.1"/><ellipse cx="839.65" cy="433.3" fill="#ADD1B2" rx="7.7" ry="7.7" style="stroke:#181818;stroke-width:0.6999999999999998;"/><path d="M839.6828,437.6422 C840.7328,437.6422 841.5969,437.2484 842.2312,436.5047 L841.2687,435.4437 C840.8859,435.8594 840.4266,436.1328 839.8687,436.1328 C838.6984,436.1328 837.8891,435.2031 837.8891,433.6062 C837.8891,432.0531 838.6984,431.1125 839.7922,431.1125 C840.3609,431.1125 840.7766,431.3312 841.1484,431.6703 L842.1109,430.5875 C841.5859,430.0734 840.7766,429.6031 839.7922,429.6031 C837.725,429.6031 836.0953,431.1016 836.0953,433.6719 C836.0953,436.275 837.7578,437.6422 839.6828,437.6422 Z " fill="#000000"/><text fill="#000000" font-family="sans-serif" font-size="9.8" lengthAdjust="spacing" textLength="99.4" x="849.45" y="436.6496">MCAChannelMetadata</text><line style="stroke:#181818;stroke-width:0.3499999999999999;" x1="829.85" x2="950.25" y1="444.5" y2="444.5"/><line style="stroke:#181818;stroke-width:0.3499999999999999;" x1="829.85" x2="950.25" y1="450.1" y2="450.1"/></g><!--class ScopeChannelMetadata--><g id="elem_ScopeChannelMetadata"><rect codeLine="81" fill="#F1F1F1" height="33.6" id="ScopeChannelMetadata" rx="1.75" ry="1.75" style="stroke:#181818;stroke-width:0.3499999999999999;" width="127.4" x="677.25" y="422.1"/><ellipse cx="687.75" cy="433.3" fill="#ADD1B2" rx="7.7" ry="7.7" style="stroke:#181818;stroke-width:0.6999999999999998;"/><path d="M687.7828,437.6422 C688.8328,437.6422 689.6969,437.2484 690.3312,436.5047 L689.3687,435.4437 C688.9859,435.8594 688.5266,436.1328 687.9687,436.1328 C686.7984,436.1328 685.9891,435.2031 685.9891,433.6062 C685.9891,432.0531 686.7984,431.1125 687.8922,431.1125 C688.4609,431.1125 688.8766,431.3312 689.2484,431.6703 L690.2109,430.5875 C689.6859,430.0734 688.8766,429.6031 687.8922,429.6031 C685.825,429.6031 684.1953,431.1016 684.1953,433.6719 C684.1953,436.275 685.8578,437.6422 687.7828,437.6422 Z " fill="#000000"/><text fill="#000000" font-family="sans-serif" font-size="9.8" lengthAdjust="spacing" textLength="105" x="697.55" y="436.6496">ScopeChannelMetadata</text><line style="stroke:#181818;stroke-width:0.3499999999999999;" x1="677.95" x2="803.95" y1="444.5" y2="444.5"/><line style="stroke:#181818;stroke-width:0.3499999999999999;" x1="677.95" x2="803.95" y1="450.1" y2="450.1"/></g><!--class SampleCameraMetadata--><g id="elem_SampleCameraMetadata"><rect codeLine="83" fill="#F1F1F1" height="33.6" id="SampleCameraMetadata" rx="1.75" ry="1.75" style="stroke:#181818;stroke-width:0.3499999999999999;" width="131.6" x="1138.55" y="422.1"/><ellipse cx="1149.05" cy="433.3" fill="#ADD1B2" rx="7.7" ry="7.7" style="stroke:#181818;stroke-width:0.6999999999999998;"/><path d="M1149.0828,437.6422 C1150.1328,437.6422 1150.9969,437.2484 1151.6312,436.5047 L1150.6687,435.4437 C1150.2859,435.8594 1149.8266,436.1328 1149.2687,436.1328 C1148.0984,436.1328 1147.2891,435.2031 1147.2891,433.6062 C1147.2891,432.0531 1148.0984,431.1125 1149.1922,431.1125 C1149.7609,431.1125 1150.1766,431.3312 1150.5484,431.6703 L1151.5109,430.5875 C1150.9859,430.0734 1150.1766,429.6031 1149.1922,429.6031 C1147.125,429.6031 1145.4953,431.1016 1145.4953,433.6719 C1145.4953,436.275 1147.1578,437.6422 1149.0828,437.6422 Z " fill="#000000"/><text fill="#000000" font-family="sans-serif" font-size="9.8" lengthAdjust="spacing" textLength="109.2" x="1158.85" y="436.6496">SampleCameraMetadata</text><line style="stroke:#181818;stroke-width:0.3499999999999999;" x1="1139.25" x2="1269.45" y1="444.5" y2="444.5"/><line style="stroke:#181818;stroke-width:0.3499999999999999;" x1="1139.25" x2="1269.45" y1="450.1" y2="450.1"/></g><!--class ScientificCameraMetadata--><g id="elem_ScientificCameraMetadata"><rect codeLine="85" fill="#F1F1F1" height="33.6" id="ScientificCameraMetadata" rx="1.75" ry="1.75" style="stroke:#181818;stroke-width:0.3499999999999999;" width="138.6" x="975.45" y="422.1"/><ellipse cx="985.95" cy="433.3" fill="#ADD1B2" rx="7.7" ry="7.7" style="stroke:#181818;stroke-width:0.6999999999999998;"/><path d="M985.9828,437.6422 C987.0328,437.6422 987.8969,437.2484 988.5312,436.5047 L987.5687,435.4437 C987.1859,435.8594 986.7266,436.1328 986.1687,436.1328 C984.9984,436.1328 984.1891,435.2031 984.1891,433.6062 C984.1891,432.0531 984.9984,431.1125 986.0922,431.1125 C986.6609,431.1125 987.0766,431.3312 987.4484,431.6703 L988.4109,430.5875 C987.8859,430.0734 987.0766,429.6031 986.0922,429.6031 C984.025,429.6031 982.3953,431.1016 982.3953,433.6719 C982.3953,436.275 984.0578,437.6422 985.9828,437.6422 Z " fill="#000000"/><text fill="#000000" font-family="sans-serif" font-size="9.8" lengthAdjust="spacing" textLength="116.2" x="995.75" y="436.6496">ScientificCameraMetadata</text><line style="stroke:#181818;stroke-width:0.3499999999999999;" x1="976.15" x2="1113.35" y1="444.5" y2="444.5"/><line style="stroke:#181818;stroke-width:0.3499999999999999;" x1="976.15" x2="1113.35" y1="450.1" y2="450.1"/></g><!--reverse link Metadata to MeasureMetadata--><g id="link_Metadata_MeasureMetadata"><path d="M349.2961,61.6142 C353.2791,63.8332 346.346,59.801 350.35,61.6 C409.318,88.137 429.765,79.198 489.65,103.6 C497.854,106.939 506.408,110.985 514.479,115.094 " fill="none" id="Metadata-backto-MeasureMetadata" style="stroke:#181818;stroke-width:0.6999999999999998;"/><polygon fill="none" points="338.289,55.482,347.252,65.2833,351.3402,57.9452,338.289,55.482" style="stroke:#181818;stroke-width:0.6999999999999998;"/></g><!--reverse link Metadata to MonitorMetadata--><g id="link_Metadata_MonitorMetadata"><path d="M303.1627,74.2971 C300.6427,116.9971 296.625,184.849 294.602,219.093 " fill="none" id="Metadata-backto-MonitorMetadata" style="stroke:#181818;stroke-width:0.6999999999999998;"/><polygon fill="none" points="303.905,61.719,298.97,74.0497,307.3554,74.5446,303.905,61.719" style="stroke:#181818;stroke-width:0.6999999999999998;"/></g><!--reverse link AbstractDeviceMetadata to MonitorMetadata--><g id="link_AbstractDeviceMetadata_MonitorMetadata"><path d="M363.2361,179.4869 C343.2581,195.4819 330.071,206.038 313.978,218.925 " fill="none" id="AbstractDeviceMetadata-backto-MonitorMetadata" style="stroke:#181818;stroke-width:0.6999999999999998;stroke-dasharray:7.0,7.0;"/><polygon fill="none" points="373.072,171.612,360.6111,176.2083,365.8611,182.7656,373.072,171.612" style="stroke:#181818;stroke-width:0.6999999999999998;"/></g><!--reverse link MeasureMetadata to DeviceMetadata--><g id="link_MeasureMetadata_DeviceMetadata"><path d="M511.918,167.2292 C486.305,185.1492 460.88,202.937 437.773,219.1 " fill="none" id="MeasureMetadata-backto-DeviceMetadata" style="stroke:#181818;stroke-width:0.6999999999999998;"/><polygon fill="none" points="522.242,160.006,509.5102,163.7878,514.3257,170.6705,522.242,160.006" style="stroke:#181818;stroke-width:0.6999999999999998;"/></g><!--reverse link AbstractDeviceMetadata to DeviceMetadata--><g id="link_AbstractDeviceMetadata_DeviceMetadata"><path d="M414.75,184.212 C414.75,200.207 414.75,206.038 414.75,218.925 " fill="none" id="AbstractDeviceMetadata-backto-DeviceMetadata" style="stroke:#181818;stroke-width:0.6999999999999998;stroke-dasharray:7.0,7.0;"/><polygon fill="none" points="414.75,171.612,410.55,184.212,418.95,184.212,414.75,171.612" style="stroke:#181818;stroke-width:0.6999999999999998;"/></g><!--reverse link MeasureMetadata to AxisMetadata--><g id="link_MeasureMetadata_AxisMetadata"><path d="M544.2884,172.1792 C540.0534,188.0342 537.586,197.267 533.33,213.178 " fill="none" id="MeasureMetadata-backto-AxisMetadata" style="stroke:#181818;stroke-width:0.6999999999999998;"/><polygon fill="none" points="547.54,160.006,540.2307,171.0954,548.3462,173.2631,547.54,160.006" style="stroke:#181818;stroke-width:0.6999999999999998;"/></g><!--reverse link AbstractDeviceMetadata to AxisMetadata--><g id="link_AbstractDeviceMetadata_AxisMetadata"><path d="M463.0883,179.8298 C479.1323,193.6338 487.739,201.04 502.04,213.339 " fill="none" id="AbstractDeviceMetadata-backto-AxisMetadata" style="stroke:#181818;stroke-width:0.6999999999999998;stroke-dasharray:7.0,7.0;"/><polygon fill="none" points="453.537,171.612,460.3491,183.0136,465.8276,176.646,453.537,171.612" style="stroke:#181818;stroke-width:0.6999999999999998;"/></g><!--reverse link MeasureMetadata to ChannelMetadata--><g id="link_MeasureMetadata_ChannelMetadata"><path d="M582.3934,169.1919 C599.1654,187.0559 613.921,202.776 629.09,218.946 " fill="none" id="MeasureMetadata-backto-ChannelMetadata" style="stroke:#181818;stroke-width:0.6999999999999998;"/><polygon fill="none" points="573.769,160.006,579.3314,172.0667,585.4553,166.3171,573.769,160.006" style="stroke:#181818;stroke-width:0.6999999999999998;"/></g><!--reverse link AbstractDeviceMetadata to ChannelMetadata--><g id="link_AbstractDeviceMetadata_ChannelMetadata"><path d="M488.9797,171.2538 C493.1097,173.0528 485.66,169.792 489.65,171.5 C528.374,188.062 572.859,206.297 604.156,219.002 " fill="none" id="AbstractDeviceMetadata-backto-ChannelMetadata" style="stroke:#181818;stroke-width:0.6999999999999998;stroke-dasharray:7.0,7.0;"/><polygon fill="none" points="477.428,166.222,487.3024,175.1044,490.6569,167.4033,477.428,166.222" style="stroke:#181818;stroke-width:0.6999999999999998;"/></g><!--reverse link MeasureMetadata to TimestampMetadata--><g id="link_MeasureMetadata_TimestampMetadata"><path d="M615.0209,165.0235 C656.2999,182.9435 702.331,202.937 739.557,219.1 " fill="none" id="MeasureMetadata-backto-TimestampMetadata" style="stroke:#181818;stroke-width:0.6999999999999998;"/><polygon fill="none" points="603.463,160.006,613.3484,168.8761,616.6934,161.1709,603.463,160.006" style="stroke:#181818;stroke-width:0.6999999999999998;"/></g><!--link NonnumericChannelMetadata to ArrayChannelMetadata--><!--link ArrayChannelMetadata to AreaChannelMetadata--><!--reverse link ChannelMetadata to NonnumericChannelMetadata--><g id="link_ChannelMetadata_NonnumericChannelMetadata"><path d="M665.7764,262.6314 C681.6384,281.9024 699.86,304.038 715.694,323.274 " fill="none" id="ChannelMetadata-backto-NonnumericChannelMetadata" style="stroke:#181818;stroke-width:0.6999999999999998;"/><polygon fill="none" points="657.769,252.903,662.5336,265.3005,669.0192,259.9622,657.769,252.903" style="stroke:#181818;stroke-width:0.6999999999999998;"/></g><!--reverse link ChannelMetadata to SinglePointChannelMetadata--><g id="link_ChannelMetadata_SinglePointChannelMetadata"><path d="M589.6706,256.5386 C582.9366,258.6666 588.014,256.823 581.35,258.3 C408.184,296.765 355.649,253.876 184.45,300.3 C164.584,305.69 143.507,315.105 127.099,323.358 " fill="none" id="ChannelMetadata-backto-SinglePointChannelMetadata" style="stroke:#181818;stroke-width:0.6999999999999998;"/><polygon fill="none" points="601.685,252.742,588.4051,252.5339,590.9362,260.5434,601.685,252.742" style="stroke:#181818;stroke-width:0.6999999999999998;"/></g><!--reverse link ChannelMetadata to AverageChannelMetadata--><g id="link_ChannelMetadata_AverageChannelMetadata"><path d="M588.1951,257.2224 C555.1691,269.5634 520.933,282.926 481.25,300.3 C477.26,302.043 473.186,303.877 469.084,305.76 " fill="none" id="ChannelMetadata-backto-AverageChannelMetadata" style="stroke:#181818;stroke-width:0.6999999999999998;"/><polygon fill="none" points="599.998,252.812,586.725,253.2882,589.6653,261.1567,599.998,252.812" style="stroke:#181818;stroke-width:0.6999999999999998;"/></g><!--reverse link ChannelMetadata to IntervalChannelMetadata--><g id="link_ChannelMetadata_IntervalChannelMetadata"><path d="M623.0738,262.6627 C608.7728,280.1767 593.957,298.333 578.137,317.716 " fill="none" id="ChannelMetadata-backto-IntervalChannelMetadata" style="stroke:#181818;stroke-width:0.6999999999999998;"/><polygon fill="none" points="631.043,252.903,619.8205,260.0063,626.327,265.3191,631.043,252.903" style="stroke:#181818;stroke-width:0.6999999999999998;"/></g><!--reverse link ChannelMetadata to ArrayChannelMetadata--><g id="link_ChannelMetadata_ArrayChannelMetadata"><path d="M702.2683,256.9283 C745.3673,272.1673 794.647,289.982 817.95,300.3 C833.518,307.195 850.353,315.889 864.115,323.337 " fill="none" id="ChannelMetadata-backto-ArrayChannelMetadata" style="stroke:#181818;stroke-width:0.6999999999999998;"/><polygon fill="none" points="690.389,252.728,700.8682,260.8881,703.6684,252.9685,690.389,252.728" style="stroke:#181818;stroke-width:0.6999999999999998;"/></g><!--reverse link ChannelMetadata to AreaChannelMetadata--><g id="link_ChannelMetadata_AreaChannelMetadata"><path d="M700.1234,256.5835 C706.5214,258.6275 701.064,256.725 707.35,258.3 C820.75,286.776 856.107,263.382 967.05,300.3 C984.179,305.998 1002.141,315.273 1016.176,323.365 " fill="none" id="ChannelMetadata-backto-AreaChannelMetadata" style="stroke:#181818;stroke-width:0.6999999999999998;"/><polygon fill="none" points="688.121,252.749,698.8452,260.5842,701.4015,252.5827,688.121,252.749" style="stroke:#181818;stroke-width:0.6999999999999998;"/></g><!--reverse link Data to Metadata--><g id="link_Data_Metadata"><path codeLine="67" d="M256.788,33.25 C264.978,33.25 264.761,33.25 272.951,33.25 " fill="none" id="Data-backto-Metadata" style="stroke:#181818;stroke-width:0.6999999999999998;"/><polygon fill="#181818" points="248.388,33.25,252.588,36.05,256.788,33.25,252.588,30.45,248.388,33.25" style="stroke:#181818;stroke-width:0.6999999999999998;"/></g><!--reverse link SinglePointChannelMetadata to SinglePointNormalizedChannelMetadata--><g id="link_SinglePointChannelMetadata_SinglePointNormalizedChannelMetadata"><path d="M99.7254,369.7564 C101.0204,387.7114 102.179,403.879 103.474,421.862 " fill="none" id="SinglePointChannelMetadata-backto-SinglePointNormalizedChannelMetadata" style="stroke:#181818;stroke-width:0.6999999999999998;"/><polygon fill="none" points="98.819,357.189,95.5363,370.0585,103.9145,369.4542,98.819,357.189" style="stroke:#181818;stroke-width:0.6999999999999998;"/></g><!--reverse link NormalizedMetadata to SinglePointNormalizedChannelMetadata--><g id="link_NormalizedMetadata_SinglePointNormalizedChannelMetadata"><path d="M208.8655,369.5465 C181.5725,387.5295 153.923,405.741 129.248,421.995 " fill="none" id="NormalizedMetadata-backto-SinglePointNormalizedChannelMetadata" style="stroke:#181818;stroke-width:0.6999999999999998;stroke-dasharray:7.0,7.0;"/><polygon fill="none" points="219.387,362.614,206.5547,366.0393,211.1764,373.0536,219.387,362.614" style="stroke:#181818;stroke-width:0.6999999999999998;"/></g><!--reverse link AverageChannelMetadata to AverageNormalizedChannelMetadata--><g id="link_AverageChannelMetadata_AverageNormalizedChannelMetadata"><path d="M369.1329,390.8443 C359.9209,405.3973 356.706,410.473 349.489,421.869 " fill="none" id="AverageChannelMetadata-backto-AverageNormalizedChannelMetadata" style="stroke:#181818;stroke-width:0.6999999999999998;"/><polygon fill="none" points="375.872,380.198,365.5841,388.598,372.6817,393.0907,375.872,380.198" style="stroke:#181818;stroke-width:0.6999999999999998;"/></g><!--reverse link NormalizedMetadata to AverageNormalizedChannelMetadata--><g id="link_NormalizedMetadata_AverageNormalizedChannelMetadata"><path d="M280.2177,372.1364 C296.2127,390.0704 310.121,405.664 324.597,421.89 " fill="none" id="NormalizedMetadata-backto-AverageNormalizedChannelMetadata" style="stroke:#181818;stroke-width:0.6999999999999998;stroke-dasharray:7.0,7.0;"/><polygon fill="none" points="271.831,362.733,277.0832,374.9319,283.3521,369.3408,271.831,362.733" style="stroke:#181818;stroke-width:0.6999999999999998;"/></g><!--reverse link IntervalChannelMetadata to IntervalNormalizedChannelMetadata--><g id="link_IntervalChannelMetadata_IntervalNormalizedChannelMetadata"><path d="M559.1138,375.3249 C558.4698,393.2589 558.019,405.664 557.438,421.89 " fill="none" id="IntervalChannelMetadata-backto-IntervalNormalizedChannelMetadata" style="stroke:#181818;stroke-width:0.6999999999999998;"/><polygon fill="none" points="559.566,362.733,554.9165,375.1742,563.3111,375.4756,559.566,362.733" style="stroke:#181818;stroke-width:0.6999999999999998;"/></g><!--reverse link NormalizedMetadata to IntervalNormalizedChannelMetadata--><g id="link_NormalizedMetadata_IntervalNormalizedChannelMetadata"><path d="M296.8054,369.1762 C307.4664,375.4272 308.63,375.431 320.25,380.1 C366.758,398.79 420.903,412.629 465.654,422.1 " fill="none" id="NormalizedMetadata-backto-IntervalNormalizedChannelMetadata" style="stroke:#181818;stroke-width:0.6999999999999998;stroke-dasharray:7.0,7.0;"/><polygon fill="none" points="285.936,362.803,294.681,372.7993,298.9297,365.553,285.936,362.803" style="stroke:#181818;stroke-width:0.6999999999999998;"/></g><!--reverse link ArrayChannelMetadata to MCAChannelMetadata--><g id="link_ArrayChannelMetadata_MCAChannelMetadata"><path d="M892.0176,369.7838 C891.4996,387.7388 891.037,403.879 890.519,421.862 " fill="none" id="ArrayChannelMetadata-backto-MCAChannelMetadata" style="stroke:#181818;stroke-width:0.6999999999999998;"/><polygon fill="none" points="892.381,357.189,887.8194,369.6626,896.2159,369.9049,892.381,357.189" style="stroke:#181818;stroke-width:0.6999999999999998;"/></g><!--reverse link ArrayChannelMetadata to ScopeChannelMetadata--><g id="link_ArrayChannelMetadata_ScopeChannelMetadata"><path d="M856.8152,363.9838 C828.6892,381.9948 794.262,404.054 766.206,422.023 " fill="none" id="ArrayChannelMetadata-backto-ScopeChannelMetadata" style="stroke:#181818;stroke-width:0.6999999999999998;"/><polygon fill="none" points="867.426,357.189,854.5502,360.4469,859.0801,367.5208,867.426,357.189" style="stroke:#181818;stroke-width:0.6999999999999998;"/></g><!--reverse link AreaChannelMetadata to SampleCameraMetadata--><g id="link_AreaChannelMetadata_SampleCameraMetadata"><path d="M1079.7574,363.553 C1109.7944,381.55 1147.223,403.977 1177.288,421.988 " fill="none" id="AreaChannelMetadata-backto-SampleCameraMetadata" style="stroke:#181818;stroke-width:0.6999999999999998;"/><polygon fill="none" points="1068.949,357.077,1077.5988,367.1558,1081.9161,359.9502,1068.949,357.077" style="stroke:#181818;stroke-width:0.6999999999999998;"/></g><!--reverse link AreaChannelMetadata to ScientificCameraMetadata--><g id="link_AreaChannelMetadata_ScientificCameraMetadata"><path d="M1042.7824,369.7838 C1043.3004,387.7388 1043.763,403.879 1044.281,421.862 " fill="none" id="AreaChannelMetadata-backto-ScientificCameraMetadata" style="stroke:#181818;stroke-width:0.6999999999999998;"/><polygon fill="none" points="1042.419,357.189,1038.5841,369.9049,1046.9806,369.6626,1042.419,357.189" style="stroke:#181818;stroke-width:0.6999999999999998;"/></g><!--SRC=[hLLDZzem4BtdLrXSAbMx-mCuL49mwO5j9VRMLj5WJnAl_17PvglL_lUEJI0GaYMj5ea3CtvldkUD1wx0UxR40082i3yPeuy1ZMpAV73Ib2bYwo2jyHGKaeViBJCs87Eoh0ApnHa_dJO74-YbGZfU5EZGS6Hh33j4moQJvj1amYhACMbQ0M34rG7ABI9n8lpMg6Y2R0lkm6fIOe84fGwii8uXy8ebhjfA4nweHgmEBduT7Fn3ujfLKk7vNbSIwAJdeC0bDSAQJu7n2ao9gG0SYzlrA_Bmb26TYTt8CfvwkJZsiMdHsePWzPIjCFO2IWSwalmqgPIsOgFmASj8ABe2IETiJMq77XQubHmxnaXnRKkzlVuDdAFtET5U-FTsKhP4y1lNSkAUEYTktDyO6VhGbkBM3QEbhXLgyi8FN-BCricqPDSIxtDUaixsqdyCPUo3G13hE05JLYWBeQqpfs4mg3vO_OlKw0Fe-Yvl0ZrROpOQdUHTEOy_AYa4cbzVPd7WE-ciBtY1OJE7qCKq4eThdgHsunVtMz4uAVmU7-LeT6lj5XsKEBviscCv765nSSKdLg9B2MLtkP8wpVdHsnZLiCyX1DHrw09YIf1r4DV5xK1yZSzt2-hVvD43Awb0BXlqBM-lLIDQtMFX-x2qj3u_ijRmTYCzMwT1oTyekkqz9VBBlTJdTqinfEgTuRXuHNrIkYDolzR0B8sjSpBxVg6XiHXRQJcV3TwXxsMV6izjZVy5X2XiJl_-3dg0WsjXnMNy2oveBOp7_WK0]--></g></svg>