<?xml version="1.0" encoding="us-ascii" standalone="no"?><svg xmlns="http://www.w3.org/2000/svg" xmlns:xlink="http://www.w3.org/1999/xlink" contentStyleType="text/css" height="625px" preserveAspectRatio="none" style="width:1402px;height:625px;background:#FFFFFF;" version="1.1" viewBox="0 0 1402 625" width="1402px" zoomAndPan="magnify"><defs/><g><!--class Metadata--><g id="elem_Metadata"><rect codeLine="2" fill="#F1F1F1" height="64.4063" id="Metadata" rx="2.5" ry="2.5" style="stroke:#181818;stroke-width:0.5;" width="93" x="128" y="7"/><ellipse cx="143" cy="23" fill="#ADD1B2" rx="11" ry="11" style="stroke:#181818;stroke-width:1.0;"/><path d="M143.0469,29.2031 C144.5469,29.2031 145.7813,28.6406 146.6875,27.5781 L145.3125,26.0625 C144.7656,26.6563 144.1094,27.0469 143.3125,27.0469 C141.6406,27.0469 140.4844,25.7188 140.4844,23.4375 C140.4844,21.2188 141.6406,19.875 143.2031,19.875 C144.0156,19.875 144.6094,20.1875 145.1406,20.6719 L146.5156,19.125 C145.7656,18.3906 144.6094,17.7188 143.2031,17.7188 C140.25,17.7188 137.9219,19.8594 137.9219,23.5313 C137.9219,27.25 140.2969,29.2031 143.0469,29.2031 Z " fill="#000000"/><text fill="#000000" font-family="sans-serif" font-size="14" lengthAdjust="spacing" textLength="61" x="157" y="27.7852">Metadata</text><line style="stroke:#181818;stroke-width:0.5;" x1="129" x2="220" y1="39" y2="39"/><text fill="#000000" font-family="sans-serif" font-size="14" lengthAdjust="spacing" textLength="80" x="134" y="55.9883">name : string</text><line style="stroke:#181818;stroke-width:0.5;" x1="129" x2="220" y1="63.4063" y2="63.4063"/></g><!--class Data--><g id="elem_Data"><rect codeLine="6" fill="#F1F1F1" height="48" id="Data" rx="2.5" ry="2.5" style="stroke:#181818;stroke-width:0.5;" width="62" x="30.5" y="15"/><ellipse cx="45.5" cy="31" fill="#ADD1B2" rx="11" ry="11" style="stroke:#181818;stroke-width:1.0;"/><path d="M45.5469,37.2031 C47.0469,37.2031 48.2813,36.6406 49.1875,35.5781 L47.8125,34.0625 C47.2656,34.6563 46.6094,35.0469 45.8125,35.0469 C44.1406,35.0469 42.9844,33.7188 42.9844,31.4375 C42.9844,29.2188 44.1406,27.875 45.7031,27.875 C46.5156,27.875 47.1094,28.1875 47.6406,28.6719 L49.0156,27.125 C48.2656,26.3906 47.1094,25.7188 45.7031,25.7188 C42.75,25.7188 40.4219,27.8594 40.4219,31.5313 C40.4219,35.25 42.7969,37.2031 45.5469,37.2031 Z " fill="#000000"/><text fill="#000000" font-family="sans-serif" font-size="14" lengthAdjust="spacing" textLength="30" x="59.5" y="35.7852">Data</text><line style="stroke:#181818;stroke-width:0.5;" x1="31.5" x2="91.5" y1="47" y2="47"/><line style="stroke:#181818;stroke-width:0.5;" x1="31.5" x2="91.5" y1="55" y2="55"/></g><g id="elem_GMN4"><path d="M6,159.5 L6,199.9688 A0,0 0 0 0 6,199.9688 L117,199.9688 A0,0 0 0 0 117,199.9688 L117,169.5 L107,159.5 L65.5,159.5 L61.5,63.18 L57.5,159.5 L6,159.5 A0,0 0 0 0 6,159.5 " fill="#FEFFDD" style="stroke:#181818;stroke-width:0.5;"/><path d="M107,159.5 L107,169.5 L117,169.5 L107,159.5 " fill="#FEFFDD" style="stroke:#181818;stroke-width:0.5;"/><text fill="#000000" font-family="sans-serif" font-size="13" lengthAdjust="spacing" textLength="90" x="12" y="176.5605">See diagram for</text><text fill="#000000" font-family="sans-serif" font-size="13" lengthAdjust="spacing" textLength="73" x="12" y="191.7949">data module.</text></g><!--class AbstractDeviceMetadata--><g id="elem_AbstractDeviceMetadata"><rect codeLine="10" fill="#F1F1F1" height="97.2188" id="AbstractDeviceMetadata" rx="2.5" ry="2.5" style="stroke:#181818;stroke-width:0.5;" width="179" x="241" y="131"/><ellipse cx="256" cy="147" fill="#B4A7E5" rx="11" ry="11" style="stroke:#181818;stroke-width:1.0;"/><path d="M252.2656,153 L259.9375,153 L259.9375,150.8906 L257.3594,150.8906 L257.3594,144.0313 L259.9375,144.0313 L259.9375,141.9219 L252.2656,141.9219 L252.2656,144.0313 L254.8438,144.0313 L254.8438,150.8906 L252.2656,150.8906 L252.2656,153 Z " fill="#000000"/><text fill="#000000" font-family="sans-serif" font-size="14" font-style="italic" lengthAdjust="spacing" textLength="147" x="270" y="151.7852">AbstractDeviceMetadata</text><line style="stroke:#181818;stroke-width:0.5;" x1="242" x2="419" y1="163" y2="163"/><text fill="#000000" font-family="sans-serif" font-size="14" lengthAdjust="spacing" textLength="56" x="247" y="179.9883">id : string</text><text fill="#000000" font-family="sans-serif" font-size="14" lengthAdjust="spacing" textLength="60" x="247" y="196.3945">pv : string</text><text fill="#000000" font-family="sans-serif" font-size="14" lengthAdjust="spacing" textLength="129" x="247" y="212.8008">access_mode : string</text><line style="stroke:#181818;stroke-width:0.5;" x1="242" x2="419" y1="220.2188" y2="220.2188"/></g><!--class MeasureMetadata--><g id="elem_MeasureMetadata"><rect codeLine="16" fill="#F1F1F1" height="64.4063" id="MeasureMetadata" rx="2.5" ry="2.5" style="stroke:#181818;stroke-width:0.5;" width="147" x="455" y="147.5"/><ellipse cx="470" cy="163.5" fill="#ADD1B2" rx="11" ry="11" style="stroke:#181818;stroke-width:1.0;"/><path d="M470.0469,169.7031 C471.5469,169.7031 472.7813,169.1406 473.6875,168.0781 L472.3125,166.5625 C471.7656,167.1563 471.1094,167.5469 470.3125,167.5469 C468.6406,167.5469 467.4844,166.2188 467.4844,163.9375 C467.4844,161.7188 468.6406,160.375 470.2031,160.375 C471.0156,160.375 471.6094,160.6875 472.1406,161.1719 L473.5156,159.625 C472.7656,158.8906 471.6094,158.2188 470.2031,158.2188 C467.25,158.2188 464.9219,160.3594 464.9219,164.0313 C464.9219,167.75 467.2969,169.7031 470.0469,169.7031 Z " fill="#000000"/><text fill="#000000" font-family="sans-serif" font-size="14" lengthAdjust="spacing" textLength="115" x="484" y="168.2852">MeasureMetadata</text><line style="stroke:#181818;stroke-width:0.5;" x1="456" x2="601" y1="179.5" y2="179.5"/><text fill="#000000" font-family="sans-serif" font-size="14" lengthAdjust="spacing" textLength="69" x="461" y="196.4883">unit : string</text><line style="stroke:#181818;stroke-width:0.5;" x1="456" x2="601" y1="203.9063" y2="203.9063"/></g><!--class MonitorMetadata--><g id="elem_MonitorMetadata"><rect codeLine="20" fill="#F1F1F1" height="48" id="MonitorMetadata" rx="2.5" ry="2.5" style="stroke:#181818;stroke-width:0.5;" width="142" x="86.5" y="288"/><ellipse cx="101.5" cy="304" fill="#ADD1B2" rx="11" ry="11" style="stroke:#181818;stroke-width:1.0;"/><path d="M101.5469,310.2031 C103.0469,310.2031 104.2813,309.6406 105.1875,308.5781 L103.8125,307.0625 C103.2656,307.6563 102.6094,308.0469 101.8125,308.0469 C100.1406,308.0469 98.9844,306.7188 98.9844,304.4375 C98.9844,302.2188 100.1406,300.875 101.7031,300.875 C102.5156,300.875 103.1094,301.1875 103.6406,301.6719 L105.0156,300.125 C104.2656,299.3906 103.1094,298.7188 101.7031,298.7188 C98.75,298.7188 96.4219,300.8594 96.4219,304.5313 C96.4219,308.25 98.7969,310.2031 101.5469,310.2031 Z " fill="#000000"/><text fill="#000000" font-family="sans-serif" font-size="14" lengthAdjust="spacing" textLength="110" x="115.5" y="308.7852">MonitorMetadata</text><line style="stroke:#181818;stroke-width:0.5;" x1="87.5" x2="227.5" y1="320" y2="320"/><line style="stroke:#181818;stroke-width:0.5;" x1="87.5" x2="227.5" y1="328" y2="328"/></g><!--class DeviceMetadata--><g id="elem_DeviceMetadata"><rect codeLine="23" fill="#F1F1F1" height="48" id="DeviceMetadata" rx="2.5" ry="2.5" style="stroke:#181818;stroke-width:0.5;" width="133" x="264" y="288"/><ellipse cx="279" cy="304" fill="#ADD1B2" rx="11" ry="11" style="stroke:#181818;stroke-width:1.0;"/><path d="M279.0469,310.2031 C280.5469,310.2031 281.7813,309.6406 282.6875,308.5781 L281.3125,307.0625 C280.7656,307.6563 280.1094,308.0469 279.3125,308.0469 C277.6406,308.0469 276.4844,306.7188 276.4844,304.4375 C276.4844,302.2188 277.6406,300.875 279.2031,300.875 C280.0156,300.875 280.6094,301.1875 281.1406,301.6719 L282.5156,300.125 C281.7656,299.3906 280.6094,298.7188 279.2031,298.7188 C276.25,298.7188 273.9219,300.8594 273.9219,304.5313 C273.9219,308.25 276.2969,310.2031 279.0469,310.2031 Z " fill="#000000"/><text fill="#000000" font-family="sans-serif" font-size="14" lengthAdjust="spacing" textLength="101" x="293" y="308.7852">DeviceMetadata</text><line style="stroke:#181818;stroke-width:0.5;" x1="265" x2="396" y1="320" y2="320"/><line style="stroke:#181818;stroke-width:0.5;" x1="265" x2="396" y1="328" y2="328"/></g><!--class AxisMetadata--><g id="elem_AxisMetadata"><rect codeLine="26" fill="#F1F1F1" height="48" id="AxisMetadata" rx="2.5" ry="2.5" style="stroke:#181818;stroke-width:0.5;" width="119" x="432" y="288"/><ellipse cx="447" cy="304" fill="#ADD1B2" rx="11" ry="11" style="stroke:#181818;stroke-width:1.0;"/><path d="M447.0469,310.2031 C448.5469,310.2031 449.7813,309.6406 450.6875,308.5781 L449.3125,307.0625 C448.7656,307.6563 448.1094,308.0469 447.3125,308.0469 C445.6406,308.0469 444.4844,306.7188 444.4844,304.4375 C444.4844,302.2188 445.6406,300.875 447.2031,300.875 C448.0156,300.875 448.6094,301.1875 449.1406,301.6719 L450.5156,300.125 C449.7656,299.3906 448.6094,298.7188 447.2031,298.7188 C444.25,298.7188 441.9219,300.8594 441.9219,304.5313 C441.9219,308.25 444.2969,310.2031 447.0469,310.2031 Z " fill="#000000"/><text fill="#000000" font-family="sans-serif" font-size="14" lengthAdjust="spacing" textLength="87" x="461" y="308.7852">AxisMetadata</text><line style="stroke:#181818;stroke-width:0.5;" x1="433" x2="550" y1="320" y2="320"/><line style="stroke:#181818;stroke-width:0.5;" x1="433" x2="550" y1="328" y2="328"/></g><!--class ChannelMetadata--><g id="elem_ChannelMetadata"><rect codeLine="29" fill="#F1F1F1" height="48" id="ChannelMetadata" rx="2.5" ry="2.5" style="stroke:#181818;stroke-width:0.5;" width="144" x="586.5" y="288"/><ellipse cx="601.5" cy="304" fill="#ADD1B2" rx="11" ry="11" style="stroke:#181818;stroke-width:1.0;"/><path d="M601.5469,310.2031 C603.0469,310.2031 604.2813,309.6406 605.1875,308.5781 L603.8125,307.0625 C603.2656,307.6563 602.6094,308.0469 601.8125,308.0469 C600.1406,308.0469 598.9844,306.7188 598.9844,304.4375 C598.9844,302.2188 600.1406,300.875 601.7031,300.875 C602.5156,300.875 603.1094,301.1875 603.6406,301.6719 L605.0156,300.125 C604.2656,299.3906 603.1094,298.7188 601.7031,298.7188 C598.75,298.7188 596.4219,300.8594 596.4219,304.5313 C596.4219,308.25 598.7969,310.2031 601.5469,310.2031 Z " fill="#000000"/><text fill="#000000" font-family="sans-serif" font-size="14" lengthAdjust="spacing" textLength="112" x="615.5" y="308.7852">ChannelMetadata</text><line style="stroke:#181818;stroke-width:0.5;" x1="587.5" x2="729.5" y1="320" y2="320"/><line style="stroke:#181818;stroke-width:0.5;" x1="587.5" x2="729.5" y1="328" y2="328"/></g><!--class TimestampMetadata--><g id="elem_TimestampMetadata"><rect codeLine="32" fill="#F1F1F1" height="48" id="TimestampMetadata" rx="2.5" ry="2.5" style="stroke:#181818;stroke-width:0.5;" width="163" x="766" y="288"/><ellipse cx="781" cy="304" fill="#ADD1B2" rx="11" ry="11" style="stroke:#181818;stroke-width:1.0;"/><path d="M781.0469,310.2031 C782.5469,310.2031 783.7813,309.6406 784.6875,308.5781 L783.3125,307.0625 C782.7656,307.6563 782.1094,308.0469 781.3125,308.0469 C779.6406,308.0469 778.4844,306.7188 778.4844,304.4375 C778.4844,302.2188 779.6406,300.875 781.2031,300.875 C782.0156,300.875 782.6094,301.1875 783.1406,301.6719 L784.5156,300.125 C783.7656,299.3906 782.6094,298.7188 781.2031,298.7188 C778.25,298.7188 775.9219,300.8594 775.9219,304.5313 C775.9219,308.25 778.2969,310.2031 781.0469,310.2031 Z " fill="#000000"/><text fill="#000000" font-family="sans-serif" font-size="14" lengthAdjust="spacing" textLength="131" x="795" y="308.7852">TimestampMetadata</text><line style="stroke:#181818;stroke-width:0.5;" x1="767" x2="928" y1="320" y2="320"/><line style="stroke:#181818;stroke-width:0.5;" x1="767" x2="928" y1="328" y2="328"/></g><!--class SinglePointChannelMetadata--><g id="elem_SinglePointChannelMetadata"><rect codeLine="35" fill="#F1F1F1" height="48" id="SinglePointChannelMetadata" rx="2.5" ry="2.5" style="stroke:#181818;stroke-width:0.5;" width="214" x="322.5" y="429"/><ellipse cx="337.5" cy="445" fill="#ADD1B2" rx="11" ry="11" style="stroke:#181818;stroke-width:1.0;"/><path d="M337.5469,451.2031 C339.0469,451.2031 340.2813,450.6406 341.1875,449.5781 L339.8125,448.0625 C339.2656,448.6563 338.6094,449.0469 337.8125,449.0469 C336.1406,449.0469 334.9844,447.7188 334.9844,445.4375 C334.9844,443.2188 336.1406,441.875 337.7031,441.875 C338.5156,441.875 339.1094,442.1875 339.6406,442.6719 L341.0156,441.125 C340.2656,440.3906 339.1094,439.7188 337.7031,439.7188 C334.75,439.7188 332.4219,441.8594 332.4219,445.5313 C332.4219,449.25 334.7969,451.2031 337.5469,451.2031 Z " fill="#000000"/><text fill="#000000" font-family="sans-serif" font-size="14" lengthAdjust="spacing" textLength="182" x="351.5" y="449.7852">SinglePointChannelMetadata</text><line style="stroke:#181818;stroke-width:0.5;" x1="323.5" x2="535.5" y1="461" y2="461"/><line style="stroke:#181818;stroke-width:0.5;" x1="323.5" x2="535.5" y1="469" y2="469"/></g><!--class AverageChannelMetadata--><g id="elem_AverageChannelMetadata"><rect codeLine="37" fill="#F1F1F1" height="113.625" id="AverageChannelMetadata" rx="2.5" ry="2.5" style="stroke:#181818;stroke-width:0.5;" width="195" x="974" y="396"/><ellipse cx="989" cy="412" fill="#ADD1B2" rx="11" ry="11" style="stroke:#181818;stroke-width:1.0;"/><path d="M989.0469,418.2031 C990.5469,418.2031 991.7813,417.6406 992.6875,416.5781 L991.3125,415.0625 C990.7656,415.6563 990.1094,416.0469 989.3125,416.0469 C987.6406,416.0469 986.4844,414.7188 986.4844,412.4375 C986.4844,410.2188 987.6406,408.875 989.2031,408.875 C990.0156,408.875 990.6094,409.1875 991.1406,409.6719 L992.5156,408.125 C991.7656,407.3906 990.6094,406.7188 989.2031,406.7188 C986.25,406.7188 983.9219,408.8594 983.9219,412.5313 C983.9219,416.25 986.2969,418.2031 989.0469,418.2031 Z " fill="#000000"/><text fill="#000000" font-family="sans-serif" font-size="14" lengthAdjust="spacing" textLength="163" x="1003" y="416.7852">AverageChannelMetadata</text><line style="stroke:#181818;stroke-width:0.5;" x1="975" x2="1168" y1="428" y2="428"/><text fill="#000000" font-family="sans-serif" font-size="14" lengthAdjust="spacing" textLength="123" x="980" y="444.9883">n_averages : integer</text><text fill="#000000" font-family="sans-serif" font-size="14" lengthAdjust="spacing" textLength="92" x="980" y="461.3945">low_limit : float</text><text fill="#000000" font-family="sans-serif" font-size="14" lengthAdjust="spacing" textLength="142" x="980" y="477.8008">max_attempts : integer</text><text fill="#000000" font-family="sans-serif" font-size="14" lengthAdjust="spacing" textLength="128" x="980" y="494.207">max_deviation : float</text><line style="stroke:#181818;stroke-width:0.5;" x1="975" x2="1168" y1="501.625" y2="501.625"/></g><!--class IntervalChannelMetadata--><g id="elem_IntervalChannelMetadata"><rect codeLine="44" fill="#F1F1F1" height="64.4063" id="IntervalChannelMetadata" rx="2.5" ry="2.5" style="stroke:#181818;stroke-width:0.5;" width="191" x="1204" y="421"/><ellipse cx="1219" cy="437" fill="#ADD1B2" rx="11" ry="11" style="stroke:#181818;stroke-width:1.0;"/><path d="M1219.0469,443.2031 C1220.5469,443.2031 1221.7813,442.6406 1222.6875,441.5781 L1221.3125,440.0625 C1220.7656,440.6563 1220.1094,441.0469 1219.3125,441.0469 C1217.6406,441.0469 1216.4844,439.7188 1216.4844,437.4375 C1216.4844,435.2188 1217.6406,433.875 1219.2031,433.875 C1220.0156,433.875 1220.6094,434.1875 1221.1406,434.6719 L1222.5156,433.125 C1221.7656,432.3906 1220.6094,431.7188 1219.2031,431.7188 C1216.25,431.7188 1213.9219,433.8594 1213.9219,437.5313 C1213.9219,441.25 1216.2969,443.2031 1219.0469,443.2031 Z " fill="#000000"/><text fill="#000000" font-family="sans-serif" font-size="14" lengthAdjust="spacing" textLength="159" x="1233" y="441.7852">IntervalChannelMetadata</text><line style="stroke:#181818;stroke-width:0.5;" x1="1205" x2="1394" y1="453" y2="453"/><text fill="#000000" font-family="sans-serif" font-size="14" lengthAdjust="spacing" textLength="131" x="1210" y="469.9883">trigger_interval : float</text><line style="stroke:#181818;stroke-width:0.5;" x1="1205" x2="1394" y1="477.4063" y2="477.4063"/></g><!--class ArrayChannelMetadata--><g id="elem_ArrayChannelMetadata"><rect codeLine="48" fill="#F1F1F1" height="48" id="ArrayChannelMetadata" rx="2.5" ry="2.5" style="stroke:#181818;stroke-width:0.5;" width="178" x="109.5" y="429"/><ellipse cx="124.5" cy="445" fill="#ADD1B2" rx="11" ry="11" style="stroke:#181818;stroke-width:1.0;"/><path d="M124.5469,451.2031 C126.0469,451.2031 127.2813,450.6406 128.1875,449.5781 L126.8125,448.0625 C126.2656,448.6563 125.6094,449.0469 124.8125,449.0469 C123.1406,449.0469 121.9844,447.7188 121.9844,445.4375 C121.9844,443.2188 123.1406,441.875 124.7031,441.875 C125.5156,441.875 126.1094,442.1875 126.6406,442.6719 L128.0156,441.125 C127.2656,440.3906 126.1094,439.7188 124.7031,439.7188 C121.75,439.7188 119.4219,441.8594 119.4219,445.5313 C119.4219,449.25 121.7969,451.2031 124.5469,451.2031 Z " fill="#000000"/><text fill="#000000" font-family="sans-serif" font-size="14" lengthAdjust="spacing" textLength="146" x="138.5" y="449.7852">ArrayChannelMetadata</text><line style="stroke:#181818;stroke-width:0.5;" x1="110.5" x2="286.5" y1="461" y2="461"/><line style="stroke:#181818;stroke-width:0.5;" x1="110.5" x2="286.5" y1="469" y2="469"/></g><!--class AreaChannelMetadata--><g id="elem_AreaChannelMetadata"><rect codeLine="51" fill="#F1F1F1" height="48" id="AreaChannelMetadata" rx="2.5" ry="2.5" style="stroke:#181818;stroke-width:0.5;" width="173" x="572" y="429"/><ellipse cx="587" cy="445" fill="#ADD1B2" rx="11" ry="11" style="stroke:#181818;stroke-width:1.0;"/><path d="M587.0469,451.2031 C588.5469,451.2031 589.7813,450.6406 590.6875,449.5781 L589.3125,448.0625 C588.7656,448.6563 588.1094,449.0469 587.3125,449.0469 C585.6406,449.0469 584.4844,447.7188 584.4844,445.4375 C584.4844,443.2188 585.6406,441.875 587.2031,441.875 C588.0156,441.875 588.6094,442.1875 589.1406,442.6719 L590.5156,441.125 C589.7656,440.3906 588.6094,439.7188 587.2031,439.7188 C584.25,439.7188 581.9219,441.8594 581.9219,445.5313 C581.9219,449.25 584.2969,451.2031 587.0469,451.2031 Z " fill="#000000"/><text fill="#000000" font-family="sans-serif" font-size="14" lengthAdjust="spacing" textLength="141" x="601" y="449.7852">AreaChannelMetadata</text><line style="stroke:#181818;stroke-width:0.5;" x1="573" x2="744" y1="461" y2="461"/><line style="stroke:#181818;stroke-width:0.5;" x1="573" x2="744" y1="469" y2="469"/></g><!--class NormalizedMetadata--><g id="elem_NormalizedMetadata"><rect codeLine="56" fill="#F1F1F1" height="64.4063" id="NormalizedMetadata" rx="2.5" ry="2.5" style="stroke:#181818;stroke-width:0.5;" width="158" x="780.5" y="421"/><ellipse cx="795.5" cy="437" fill="#B4A7E5" rx="11" ry="11" style="stroke:#181818;stroke-width:1.0;"/><path d="M791.7656,443 L799.4375,443 L799.4375,440.8906 L796.8594,440.8906 L796.8594,434.0313 L799.4375,434.0313 L799.4375,431.9219 L791.7656,431.9219 L791.7656,434.0313 L794.3438,434.0313 L794.3438,440.8906 L791.7656,440.8906 L791.7656,443 Z " fill="#000000"/><text fill="#000000" font-family="sans-serif" font-size="14" font-style="italic" lengthAdjust="spacing" textLength="126" x="809.5" y="441.7852">NormalizedMetadata</text><line style="stroke:#181818;stroke-width:0.5;" x1="781.5" x2="937.5" y1="453" y2="453"/><text fill="#000000" font-family="sans-serif" font-size="14" lengthAdjust="spacing" textLength="123" x="786.5" y="469.9883">normalize_id : string</text><line style="stroke:#181818;stroke-width:0.5;" x1="781.5" x2="937.5" y1="477.4063" y2="477.4063"/></g><!--class SinglePointNormalizedChannelMetadata--><g id="elem_SinglePointNormalizedChannelMetadata"><rect codeLine="60" fill="#F1F1F1" height="48" id="SinglePointNormalizedChannelMetadata" rx="2.5" ry="2.5" style="stroke:#181818;stroke-width:0.5;" width="285" x="382" y="570"/><ellipse cx="397" cy="586" fill="#ADD1B2" rx="11" ry="11" style="stroke:#181818;stroke-width:1.0;"/><path d="M397.0469,592.2031 C398.5469,592.2031 399.7813,591.6406 400.6875,590.5781 L399.3125,589.0625 C398.7656,589.6563 398.1094,590.0469 397.3125,590.0469 C395.6406,590.0469 394.4844,588.7188 394.4844,586.4375 C394.4844,584.2188 395.6406,582.875 397.2031,582.875 C398.0156,582.875 398.6094,583.1875 399.1406,583.6719 L400.5156,582.125 C399.7656,581.3906 398.6094,580.7188 397.2031,580.7188 C394.25,580.7188 391.9219,582.8594 391.9219,586.5313 C391.9219,590.25 394.2969,592.2031 397.0469,592.2031 Z " fill="#000000"/><text fill="#000000" font-family="sans-serif" font-size="14" lengthAdjust="spacing" textLength="253" x="411" y="590.7852">SinglePointNormalizedChannelMetadata</text><line style="stroke:#181818;stroke-width:0.5;" x1="383" x2="666" y1="602" y2="602"/><line style="stroke:#181818;stroke-width:0.5;" x1="383" x2="666" y1="610" y2="610"/></g><!--class AverageNormalizedChannelMetadata--><g id="elem_AverageNormalizedChannelMetadata"><rect codeLine="62" fill="#F1F1F1" height="48" id="AverageNormalizedChannelMetadata" rx="2.5" ry="2.5" style="stroke:#181818;stroke-width:0.5;" width="266" x="761.5" y="570"/><ellipse cx="776.5" cy="586" fill="#ADD1B2" rx="11" ry="11" style="stroke:#181818;stroke-width:1.0;"/><path d="M776.5469,592.2031 C778.0469,592.2031 779.2813,591.6406 780.1875,590.5781 L778.8125,589.0625 C778.2656,589.6563 777.6094,590.0469 776.8125,590.0469 C775.1406,590.0469 773.9844,588.7188 773.9844,586.4375 C773.9844,584.2188 775.1406,582.875 776.7031,582.875 C777.5156,582.875 778.1094,583.1875 778.6406,583.6719 L780.0156,582.125 C779.2656,581.3906 778.1094,580.7188 776.7031,580.7188 C773.75,580.7188 771.4219,582.8594 771.4219,586.5313 C771.4219,590.25 773.7969,592.2031 776.5469,592.2031 Z " fill="#000000"/><text fill="#000000" font-family="sans-serif" font-size="14" lengthAdjust="spacing" textLength="234" x="790.5" y="590.7852">AverageNormalizedChannelMetadata</text><line style="stroke:#181818;stroke-width:0.5;" x1="762.5" x2="1026.5" y1="602" y2="602"/><line style="stroke:#181818;stroke-width:0.5;" x1="762.5" x2="1026.5" y1="610" y2="610"/></g><!--class IntervalNormalizedChannelMetadata--><g id="elem_IntervalNormalizedChannelMetadata"><rect codeLine="64" fill="#F1F1F1" height="48" id="IntervalNormalizedChannelMetadata" rx="2.5" ry="2.5" style="stroke:#181818;stroke-width:0.5;" width="262" x="1132.5" y="570"/><ellipse cx="1147.5" cy="586" fill="#ADD1B2" rx="11" ry="11" style="stroke:#181818;stroke-width:1.0;"/><path d="M1147.5469,592.2031 C1149.0469,592.2031 1150.2813,591.6406 1151.1875,590.5781 L1149.8125,589.0625 C1149.2656,589.6563 1148.6094,590.0469 1147.8125,590.0469 C1146.1406,590.0469 1144.9844,588.7188 1144.9844,586.4375 C1144.9844,584.2188 1146.1406,582.875 1147.7031,582.875 C1148.5156,582.875 1149.1094,583.1875 1149.6406,583.6719 L1151.0156,582.125 C1150.2656,581.3906 1149.1094,580.7188 1147.7031,580.7188 C1144.75,580.7188 1142.4219,582.8594 1142.4219,586.5313 C1142.4219,590.25 1144.7969,592.2031 1147.5469,592.2031 Z " fill="#000000"/><text fill="#000000" font-family="sans-serif" font-size="14" lengthAdjust="spacing" textLength="230" x="1161.5" y="590.7852">IntervalNormalizedChannelMetadata</text><line style="stroke:#181818;stroke-width:0.5;" x1="1133.5" x2="1393.5" y1="602" y2="602"/><line style="stroke:#181818;stroke-width:0.5;" x1="1133.5" x2="1393.5" y1="610" y2="610"/></g><!--reverse link Metadata to MeasureMetadata--><g id="link_Metadata_MeasureMetadata"><path d="M238.5793,59.1863 C291.8093,75.5063 363.63,99.15 437.5,131 C448.79,135.87 460.61,141.56 471.84,147.29 " fill="none" id="Metadata-backto-MeasureMetadata" style="stroke:#181818;stroke-width:1.0;"/><polygon fill="none" points="221.37,53.91,236.8206,64.9227,240.3381,53.4498,221.37,53.91" style="stroke:#181818;stroke-width:1.0;"/></g><!--reverse link Metadata to MonitorMetadata--><g id="link_Metadata_MonitorMetadata"><path d="M171.4213,89.0546 C167.9713,143.9646 162.02,238.98 158.96,287.74 " fill="none" id="Metadata-backto-MonitorMetadata" style="stroke:#181818;stroke-width:1.0;"/><polygon fill="none" points="172.55,71.09,165.4331,88.6783,177.4095,89.4308,172.55,71.09" style="stroke:#181818;stroke-width:1.0;"/></g><!--reverse link AbstractDeviceMetadata to MonitorMetadata--><g id="link_AbstractDeviceMetadata_MonitorMetadata"><path d="M252.6916,239.192 C225.8816,259.422 210.26,271.2 188.44,287.66 " fill="none" id="AbstractDeviceMetadata-backto-MonitorMetadata" style="stroke:#181818;stroke-width:1.0;stroke-dasharray:7.0,7.0;"/><polygon fill="none" points="267.06,228.35,249.0776,234.4025,256.3056,243.9814,267.06,228.35" style="stroke:#181818;stroke-width:1.0;"/></g><!--reverse link MeasureMetadata to DeviceMetadata--><g id="link_MeasureMetadata_DeviceMetadata"><path d="M466.3007,221.4955 C430.7207,244.9455 397.75,266.68 365.54,287.91 " fill="none" id="MeasureMetadata-backto-DeviceMetadata" style="stroke:#181818;stroke-width:1.0;"/><polygon fill="none" points="481.33,211.59,462.9988,216.4857,469.6025,226.5053,481.33,211.59" style="stroke:#181818;stroke-width:1.0;"/></g><!--reverse link AbstractDeviceMetadata to DeviceMetadata--><g id="link_AbstractDeviceMetadata_DeviceMetadata"><path d="M330.5,246.35 C330.5,266.58 330.5,271.2 330.5,287.66 " fill="none" id="AbstractDeviceMetadata-backto-DeviceMetadata" style="stroke:#181818;stroke-width:1.0;stroke-dasharray:7.0,7.0;"/><polygon fill="none" points="330.5,228.35,324.5,246.35,336.5,246.35,330.5,228.35" style="stroke:#181818;stroke-width:1.0;"/></g><!--reverse link MeasureMetadata to AxisMetadata--><g id="link_MeasureMetadata_AxisMetadata"><path d="M514.7273,229.0766 C508.0973,252.4466 504.09,266.58 498.09,287.76 " fill="none" id="MeasureMetadata-backto-AxisMetadata" style="stroke:#181818;stroke-width:1.0;"/><polygon fill="none" points="519.64,211.76,508.9551,227.4391,520.4995,230.7142,519.64,211.76" style="stroke:#181818;stroke-width:1.0;"/></g><!--reverse link AbstractDeviceMetadata to AxisMetadata--><g id="link_AbstractDeviceMetadata_AxisMetadata"><path d="M403.5215,239.6865 C428.4715,259.9165 442.4,271.2 462.71,287.66 " fill="none" id="AbstractDeviceMetadata-backto-AxisMetadata" style="stroke:#181818;stroke-width:1.0;stroke-dasharray:7.0,7.0;"/><polygon fill="none" points="389.54,228.35,399.7427,244.347,407.3004,235.026,389.54,228.35" style="stroke:#181818;stroke-width:1.0;"/></g><!--reverse link MeasureMetadata to ChannelMetadata--><g id="link_MeasureMetadata_ChannelMetadata"><path d="M572.3433,224.5125 C595.6233,247.8825 614.25,266.58 635.35,287.76 " fill="none" id="MeasureMetadata-backto-ChannelMetadata" style="stroke:#181818;stroke-width:1.0;"/><polygon fill="none" points="559.64,211.76,568.0925,228.7469,576.5942,220.278,559.64,211.76" style="stroke:#181818;stroke-width:1.0;"/></g><!--reverse link AbstractDeviceMetadata to ChannelMetadata--><g id="link_AbstractDeviceMetadata_ChannelMetadata"><path d="M436.8139,227.8219 C442.6439,230.2919 431.86,225.69 437.5,228 C489.65,249.35 549.54,271.71 593.8,287.83 " fill="none" id="AbstractDeviceMetadata-backto-ChannelMetadata" style="stroke:#181818;stroke-width:1.0;stroke-dasharray:7.0,7.0;"/><polygon fill="none" points="420.24,220.8,434.4733,233.3465,439.1545,222.2972,420.24,220.8" style="stroke:#181818;stroke-width:1.0;"/></g><!--reverse link MeasureMetadata to TimestampMetadata--><g id="link_MeasureMetadata_TimestampMetadata"><path d="M618.7498,217.4155 C676.3398,240.9755 738.57,266.44 791.2,287.97 " fill="none" id="MeasureMetadata-backto-TimestampMetadata" style="stroke:#181818;stroke-width:1.0;"/><polygon fill="none" points="602.09,210.6,616.478,222.9688,621.0216,211.8622,602.09,210.6" style="stroke:#181818;stroke-width:1.0;"/></g><!--reverse link ChannelMetadata to SinglePointChannelMetadata--><g id="link_ChannelMetadata_SinglePointChannelMetadata"><path d="M605.0434,345.4509 C562.6934,371.1609 510.05,403.11 467.66,428.84 " fill="none" id="ChannelMetadata-backto-SinglePointChannelMetadata" style="stroke:#181818;stroke-width:1.0;"/><polygon fill="none" points="620.43,336.11,601.9298,340.3221,608.1571,350.5798,620.43,336.11" style="stroke:#181818;stroke-width:1.0;"/></g><!--reverse link ChannelMetadata to AverageChannelMetadata--><g id="link_ChannelMetadata_AverageChannelMetadata"><path d="M748.1843,336.1742 C822.1743,355.5242 914.56,380.54 955.5,396 C961.57,398.29 967.75,400.78 973.94,403.4 " fill="none" id="ChannelMetadata-backto-AverageChannelMetadata" style="stroke:#181818;stroke-width:1.0;"/><polygon fill="none" points="730.77,331.62,746.6663,341.979,749.7024,330.3695,730.77,331.62" style="stroke:#181818;stroke-width:1.0;"/></g><!--reverse link ChannelMetadata to IntervalChannelMetadata--><g id="link_ChannelMetadata_IntervalChannelMetadata"><path d="M748.0993,336.183 C754.1493,337.563 742.64,334.85 748.5,336 C941.33,373.72 998.68,338.29 1186.5,396 C1206.59,402.17 1227.51,411.59 1245.8,420.95 " fill="none" id="ChannelMetadata-backto-IntervalChannelMetadata" style="stroke:#181818;stroke-width:1.0;"/><polygon fill="none" points="730.55,332.18,746.7649,342.0327,749.4336,330.3332,730.55,332.18" style="stroke:#181818;stroke-width:1.0;"/></g><!--reverse link ChannelMetadata to ArrayChannelMetadata--><g id="link_ChannelMetadata_ArrayChannelMetadata"><path d="M568.8623,335.9652 C562.8323,337.4652 574.3,334.6 568.5,336 C451.53,364.23 417.33,354.2 304.5,396 C281.08,404.68 256.32,417.52 236.63,428.72 " fill="none" id="ChannelMetadata-backto-ArrayChannelMetadata" style="stroke:#181818;stroke-width:1.0;"/><polygon fill="none" points="586.33,331.62,567.4139,330.1426,570.3107,341.7877,586.33,331.62" style="stroke:#181818;stroke-width:1.0;"/></g><!--reverse link ChannelMetadata to AreaChannelMetadata--><g id="link_ChannelMetadata_AreaChannelMetadata"><path d="M658.5,354.27 C658.5,379.92 658.5,402.97 658.5,428.66 " fill="none" id="ChannelMetadata-backto-AreaChannelMetadata" style="stroke:#181818;stroke-width:1.0;"/><polygon fill="none" points="658.5,336.27,652.5,354.27,664.5,354.27,658.5,336.27" style="stroke:#181818;stroke-width:1.0;"/></g><!--reverse link Data to Metadata--><g id="link_Data_Metadata"><path codeLine="54" d="M104.84,39 C116.54,39 116.23,39 127.93,39 " fill="none" id="Data-backto-Metadata" style="stroke:#181818;stroke-width:1.0;"/><polygon fill="#181818" points="92.84,39,98.84,43,104.84,39,98.84,35,92.84,39" style="stroke:#181818;stroke-width:1.0;"/></g><!--reverse link SinglePointChannelMetadata to SinglePointNormalizedChannelMetadata--><g id="link_SinglePointChannelMetadata_SinglePointNormalizedChannelMetadata"><path d="M455.5604,492.1282 C473.1004,517.7782 490.99,543.97 508.55,569.66 " fill="none" id="SinglePointChannelMetadata-backto-SinglePointNormalizedChannelMetadata" style="stroke:#181818;stroke-width:1.0;"/><polygon fill="none" points="445.4,477.27,450.6076,495.515,460.5131,488.7414,445.4,477.27" style="stroke:#181818;stroke-width:1.0;"/></g><!--reverse link NormalizedMetadata to SinglePointNormalizedChannelMetadata--><g id="link_NormalizedMetadata_SinglePointNormalizedChannelMetadata"><path d="M794.3014,494.1015 C779.3814,502.7815 778.32,502.75 762.5,510 C710.48,533.83 649.52,554.97 602.31,569.95 " fill="none" id="NormalizedMetadata-backto-SinglePointNormalizedChannelMetadata" style="stroke:#181818;stroke-width:1.0;stroke-dasharray:7.0,7.0;"/><polygon fill="none" points="809.86,485.05,791.2842,488.9153,797.3186,499.2877,809.86,485.05" style="stroke:#181818;stroke-width:1.0;"/></g><!--reverse link AverageChannelMetadata to AverageNormalizedChannelMetadata--><g id="link_AverageChannelMetadata_AverageNormalizedChannelMetadata"><path d="M985.8622,521.2556 C959.3822,542.0456 944.94,553.39 924.21,569.67 " fill="none" id="AverageChannelMetadata-backto-AverageNormalizedChannelMetadata" style="stroke:#181818;stroke-width:1.0;"/><polygon fill="none" points="1000.02,510.14,982.157,516.5363,989.5674,525.9749,1000.02,510.14" style="stroke:#181818;stroke-width:1.0;"/></g><!--reverse link NormalizedMetadata to AverageNormalizedChannelMetadata--><g id="link_NormalizedMetadata_AverageNormalizedChannelMetadata"><path d="M871.7445,502.6453 C878.1945,528.2653 882.8,546.52 888.63,569.7 " fill="none" id="NormalizedMetadata-backto-AverageNormalizedChannelMetadata" style="stroke:#181818;stroke-width:1.0;stroke-dasharray:7.0,7.0;"/><polygon fill="none" points="867.35,485.19,865.926,504.1102,877.5629,501.1805,867.35,485.19" style="stroke:#181818;stroke-width:1.0;"/></g><!--reverse link IntervalChannelMetadata to IntervalNormalizedChannelMetadata--><g id="link_IntervalChannelMetadata_IntervalNormalizedChannelMetadata"><path d="M1286.9105,502.616 C1280.2805,528.236 1275.54,546.52 1269.54,569.7 " fill="none" id="IntervalChannelMetadata-backto-IntervalNormalizedChannelMetadata" style="stroke:#181818;stroke-width:1.0;"/><polygon fill="none" points="1291.42,485.19,1281.1018,501.1128,1292.7191,504.1191,1291.42,485.19" style="stroke:#181818;stroke-width:1.0;"/></g><!--reverse link NormalizedMetadata to IntervalNormalizedChannelMetadata--><g id="link_NormalizedMetadata_IntervalNormalizedChannelMetadata"><path d="M923.1121,494.1469 C938.3421,503.0669 939.98,503.14 956.5,510 C1018.96,535.95 1091.94,556.07 1151.07,570 " fill="none" id="NormalizedMetadata-backto-IntervalNormalizedChannelMetadata" style="stroke:#181818;stroke-width:1.0;stroke-dasharray:7.0,7.0;"/><polygon fill="none" points="907.58,485.05,920.0798,499.3243,926.1444,488.9696,907.58,485.05" style="stroke:#181818;stroke-width:1.0;"/></g><!--SRC=[hLDBRi8m4Dtx55vNQW_03fLD5rILwB9IDDX3Ef8_aJr9QH5thnCA2I5fGC8xU_m-7hzH1cAKIsJGm21tGgRbmAASoSY1N2xsGgZcrk9mOo-SPvHhp-pjJAuGfIR80rYvyU73DKJMwzBWan3a6CC65ChvEX62uWLMfB0dIReLhFT5TRu7fJ36BD4EELiYn3AqdBXbTFhYNQKZ7aBxTEx3E9fiOT2YupZ-YBPBvvMMxDpYD6UNTBwbU6VAvqzm3isTMT_9OcImnIHl1xHAts7mpQUiZBdgd-_QrbGO8CUhWOU4Pt20nPI7Eg8vXgPW_5Tco3OvsHWFt9nQs6R0ZBRWFg0kwTGFOFBk13gvUwdZNu6vpLuAQ9u4Clf3N_BEGu3lwqaxE8IROCtGFpoUXg4xqQy-M33qWxhVtcCXwyxrq7-t56Ek_Wb79vf3LleHcTOQoTArEiVFdXOQYyMaqYy0]--></g></svg>