<?xml version="1.0" encoding="us-ascii" standalone="no"?><svg xmlns="http://www.w3.org/2000/svg" xmlns:xlink="http://www.w3.org/1999/xlink" contentStyleType="text/css" height="593px" preserveAspectRatio="none" style="width:848px;height:593px;background:#FFFFFF;" version="1.1" viewBox="0 0 848 593" width="848px" zoomAndPan="magnify"><defs/><g><!--cluster scan--><g id="cluster_scan"><path d="M150,6 L181,6 A3.75,3.75 0 0 1 183.5,8.5 L190.5,28.4063 L289,28.4063 A2.5,2.5 0 0 1 291.5,30.9063 L291.5,169.5 A2.5,2.5 0 0 1 289,172 L150,172 A2.5,2.5 0 0 1 147.5,169.5 L147.5,8.5 A2.5,2.5 0 0 1 150,6 " fill="none" style="stroke:#000000;stroke-width:1.5;"/><line style="stroke:#000000;stroke-width:1.5;" x1="147.5" x2="190.5" y1="28.4063" y2="28.4063"/><text fill="#000000" font-family="sans-serif" font-size="14" font-weight="bold" lengthAdjust="spacing" textLength="30" x="151.5" y="20.9883">scan</text></g><!--cluster boundaries--><g id="cluster_boundaries"><path d="M174,49 L247,49 A3.75,3.75 0 0 1 249.5,51.5 L256.5,71.4063 L265,71.4063 A2.5,2.5 0 0 1 267.5,73.9063 L267.5,145.5 A2.5,2.5 0 0 1 265,148 L174,148 A2.5,2.5 0 0 1 171.5,145.5 L171.5,51.5 A2.5,2.5 0 0 1 174,49 " fill="none" style="stroke:#000000;stroke-width:1.5;"/><line style="stroke:#000000;stroke-width:1.5;" x1="171.5" x2="256.5" y1="71.4063" y2="71.4063"/><text fill="#000000" font-family="sans-serif" font-size="14" font-weight="bold" lengthAdjust="spacing" textLength="72" x="175.5" y="63.9883">boundaries</text></g><!--class Scan--><g id="elem_Scan"><rect fill="#F1F1F1" height="48" id="Scan" rx="2.5" ry="2.5" style="stroke:#181818;stroke-width:0.5;" width="63" x="188" y="84"/><ellipse cx="203" cy="100" fill="#ADD1B2" rx="11" ry="11" style="stroke:#181818;stroke-width:1.0;"/><path d="M203.0469,106.2031 C204.5469,106.2031 205.7813,105.6406 206.6875,104.5781 L205.3125,103.0625 C204.7656,103.6563 204.1094,104.0469 203.3125,104.0469 C201.6406,104.0469 200.4844,102.7188 200.4844,100.4375 C200.4844,98.2188 201.6406,96.875 203.2031,96.875 C204.0156,96.875 204.6094,97.1875 205.1406,97.6719 L206.5156,96.125 C205.7656,95.3906 204.6094,94.7188 203.2031,94.7188 C200.25,94.7188 197.9219,96.8594 197.9219,100.5313 C197.9219,104.25 200.2969,106.2031 203.0469,106.2031 Z " fill="#000000"/><text fill="#000000" font-family="sans-serif" font-size="14" lengthAdjust="spacing" textLength="31" x="217" y="104.7852">Scan</text><line style="stroke:#181818;stroke-width:0.5;" x1="189" x2="250" y1="116" y2="116"/><line style="stroke:#181818;stroke-width:0.5;" x1="189" x2="250" y1="124" y2="124"/></g><!--class File--><g id="elem_File"><rect codeLine="2" fill="#F1F1F1" height="146.4375" id="File" rx="2.5" ry="2.5" style="stroke:#181818;stroke-width:0.5;" width="197" x="371" y="35"/><ellipse cx="454.75" cy="51" fill="#ADD1B2" rx="11" ry="11" style="stroke:#181818;stroke-width:1.0;"/><path d="M454.7969,57.2031 C456.2969,57.2031 457.5313,56.6406 458.4375,55.5781 L457.0625,54.0625 C456.5156,54.6563 455.8594,55.0469 455.0625,55.0469 C453.3906,55.0469 452.2344,53.7188 452.2344,51.4375 C452.2344,49.2188 453.3906,47.875 454.9531,47.875 C455.7656,47.875 456.3594,48.1875 456.8906,48.6719 L458.2656,47.125 C457.5156,46.3906 456.3594,45.7188 454.9531,45.7188 C452,45.7188 449.6719,47.8594 449.6719,51.5313 C449.6719,55.25 452.0469,57.2031 454.7969,57.2031 Z " fill="#000000"/><text fill="#000000" font-family="sans-serif" font-size="14" lengthAdjust="spacing" textLength="21" x="475.25" y="55.7852">File</text><line style="stroke:#181818;stroke-width:0.5;" x1="372" x2="567" y1="67" y2="67"/><text fill="#000000" font-family="sans-serif" font-size="14" lengthAdjust="spacing" textLength="131" x="377" y="83.9883">metadata : Metadata</text><text fill="#000000" font-family="sans-serif" font-size="14" lengthAdjust="spacing" textLength="185" x="377" y="100.3945">log_messages : LogMessage[]</text><text fill="#000000" font-family="sans-serif" font-size="14" lengthAdjust="spacing" textLength="70" x="377" y="116.8008">scan : Scan</text><text fill="#000000" font-family="sans-serif" font-size="14" lengthAdjust="spacing" textLength="76" x="377" y="133.207">data : Data[]</text><text fill="#000000" font-family="sans-serif" font-size="14" lengthAdjust="spacing" textLength="113" x="377" y="149.6133">snapshots : Data[]</text><text fill="#000000" font-family="sans-serif" font-size="14" lengthAdjust="spacing" textLength="103" x="377" y="166.0195">monitors : Data[]</text><line style="stroke:#181818;stroke-width:0.5;" x1="372" x2="567" y1="173.4375" y2="173.4375"/></g><!--class Data--><g id="elem_Data"><rect fill="#F1F1F1" height="48" id="Data" rx="2.5" ry="2.5" style="stroke:#181818;stroke-width:0.5;" width="62" x="304.5" y="339.5"/><ellipse cx="319.5" cy="355.5" fill="#ADD1B2" rx="11" ry="11" style="stroke:#181818;stroke-width:1.0;"/><path d="M319.5469,361.7031 C321.0469,361.7031 322.2813,361.1406 323.1875,360.0781 L321.8125,358.5625 C321.2656,359.1563 320.6094,359.5469 319.8125,359.5469 C318.1406,359.5469 316.9844,358.2188 316.9844,355.9375 C316.9844,353.7188 318.1406,352.375 319.7031,352.375 C320.5156,352.375 321.1094,352.6875 321.6406,353.1719 L323.0156,351.625 C322.2656,350.8906 321.1094,350.2188 319.7031,350.2188 C316.75,350.2188 314.4219,352.3594 314.4219,356.0313 C314.4219,359.75 316.7969,361.7031 319.5469,361.7031 Z " fill="#000000"/><text fill="#000000" font-family="sans-serif" font-size="14" lengthAdjust="spacing" textLength="30" x="333.5" y="360.2852">Data</text><line style="stroke:#181818;stroke-width:0.5;" x1="305.5" x2="365.5" y1="371.5" y2="371.5"/><line style="stroke:#181818;stroke-width:0.5;" x1="305.5" x2="365.5" y1="379.5" y2="379.5"/></g><g id="elem_GMN5"><path d="M280,546 L280,586.4688 A0,0 0 0 0 280,586.4688 L391,586.4688 A0,0 0 0 0 391,586.4688 L391,556 L381,546 L339.5,546 L335.5,387.89 L331.5,546 L280,546 A0,0 0 0 0 280,546 " fill="#FEFFDD" style="stroke:#181818;stroke-width:0.5;"/><path d="M381,546 L381,556 L391,556 L381,546 " fill="#FEFFDD" style="stroke:#181818;stroke-width:0.5;"/><text fill="#000000" font-family="sans-serif" font-size="13" lengthAdjust="spacing" textLength="90" x="286" y="563.0605">See diagram for</text><text fill="#000000" font-family="sans-serif" font-size="13" lengthAdjust="spacing" textLength="73" x="286" y="578.2949">data module.</text></g><!--class Metadata--><g id="elem_Metadata"><rect codeLine="14" fill="#F1F1F1" height="244.875" id="Metadata" rx="2.5" ry="2.5" style="stroke:#181818;stroke-width:0.5;" width="261" x="402" y="241"/><ellipse cx="497.75" cy="257" fill="#ADD1B2" rx="11" ry="11" style="stroke:#181818;stroke-width:1.0;"/><path d="M497.7969,263.2031 C499.2969,263.2031 500.5313,262.6406 501.4375,261.5781 L500.0625,260.0625 C499.5156,260.6563 498.8594,261.0469 498.0625,261.0469 C496.3906,261.0469 495.2344,259.7188 495.2344,257.4375 C495.2344,255.2188 496.3906,253.875 497.9531,253.875 C498.7656,253.875 499.3594,254.1875 499.8906,254.6719 L501.2656,253.125 C500.5156,252.3906 499.3594,251.7188 497.9531,251.7188 C495,251.7188 492.6719,253.8594 492.6719,257.5313 C492.6719,261.25 495.0469,263.2031 497.7969,263.2031 Z " fill="#000000"/><text fill="#000000" font-family="sans-serif" font-size="14" lengthAdjust="spacing" textLength="61" x="518.25" y="261.7852">Metadata</text><line style="stroke:#181818;stroke-width:0.5;" x1="403" x2="662" y1="273" y2="273"/><text fill="#000000" font-family="sans-serif" font-size="14" lengthAdjust="spacing" textLength="98" x="408" y="289.9883">filename : string</text><text fill="#000000" font-family="sans-serif" font-size="14" lengthAdjust="spacing" textLength="133" x="408" y="306.3945">eveh5_version : string</text><text fill="#000000" font-family="sans-serif" font-size="14" lengthAdjust="spacing" textLength="117" x="408" y="322.8008">eve_version : string</text><text fill="#000000" font-family="sans-serif" font-size="14" lengthAdjust="spacing" textLength="115" x="408" y="339.207">xml_version: string</text><text fill="#000000" font-family="sans-serif" font-size="14" lengthAdjust="spacing" textLength="181" x="408" y="355.6133">measurement_station : string</text><text fill="#000000" font-family="sans-serif" font-size="14" lengthAdjust="spacing" textLength="94" x="408" y="372.0195">start : datetime</text><text fill="#000000" font-family="sans-serif" font-size="14" lengthAdjust="spacing" textLength="87" x="408" y="388.4258">end : datetime</text><text fill="#000000" font-family="sans-serif" font-size="14" lengthAdjust="spacing" textLength="114" x="408" y="404.832">description : string</text><text fill="#000000" font-family="sans-serif" font-size="14" lengthAdjust="spacing" textLength="124" x="408" y="421.2383">simulation : boolean</text><text fill="#000000" font-family="sans-serif" font-size="14" lengthAdjust="spacing" textLength="133" x="408" y="437.6445">preferred_axis : string</text><text fill="#000000" font-family="sans-serif" font-size="14" lengthAdjust="spacing" textLength="157" x="408" y="454.0508">preferred_channel : string</text><text fill="#000000" font-family="sans-serif" font-size="14" lengthAdjust="spacing" textLength="249" x="408" y="470.457">preferred_normalisation_channel : string</text><line style="stroke:#181818;stroke-width:0.5;" x1="403" x2="662" y1="477.875" y2="477.875"/></g><!--class LogMessage--><g id="elem_LogMessage"><rect codeLine="29" fill="#F1F1F1" height="80.8125" id="LogMessage" rx="2.5" ry="2.5" style="stroke:#181818;stroke-width:0.5;" width="143" x="698" y="323"/><ellipse cx="726.95" cy="339" fill="#ADD1B2" rx="11" ry="11" style="stroke:#181818;stroke-width:1.0;"/><path d="M726.9969,345.2031 C728.4969,345.2031 729.7313,344.6406 730.6375,343.5781 L729.2625,342.0625 C728.7156,342.6563 728.0594,343.0469 727.2625,343.0469 C725.5906,343.0469 724.4344,341.7188 724.4344,339.4375 C724.4344,337.2188 725.5906,335.875 727.1531,335.875 C727.9656,335.875 728.5594,336.1875 729.0906,336.6719 L730.4656,335.125 C729.7156,334.3906 728.5594,333.7188 727.1531,333.7188 C724.2,333.7188 721.8719,335.8594 721.8719,339.5313 C721.8719,343.25 724.2469,345.2031 726.9969,345.2031 Z " fill="#000000"/><text fill="#000000" font-family="sans-serif" font-size="14" lengthAdjust="spacing" textLength="80" x="744.05" y="343.7852">LogMessage</text><line style="stroke:#181818;stroke-width:0.5;" x1="699" x2="840" y1="355" y2="355"/><text fill="#000000" font-family="sans-serif" font-size="14" lengthAdjust="spacing" textLength="131" x="704" y="371.9883">timestamp : datetime</text><text fill="#000000" font-family="sans-serif" font-size="14" lengthAdjust="spacing" textLength="104" x="704" y="388.3945">comment : string</text><line style="stroke:#181818;stroke-width:0.5;" x1="699" x2="840" y1="395.8125" y2="395.8125"/></g><!--class Scan--><g id="elem_Scan"><rect codeLine="34" fill="#F1F1F1" height="64.4063" id="Scan" rx="2.5" ry="2.5" style="stroke:#181818;stroke-width:0.5;" width="99" x="170" y="331.5"/><ellipse cx="201.2" cy="347.5" fill="#ADD1B2" rx="11" ry="11" style="stroke:#181818;stroke-width:1.0;"/><path d="M201.2469,353.7031 C202.7469,353.7031 203.9813,353.1406 204.8875,352.0781 L203.5125,350.5625 C202.9656,351.1563 202.3094,351.5469 201.5125,351.5469 C199.8406,351.5469 198.6844,350.2188 198.6844,347.9375 C198.6844,345.7188 199.8406,344.375 201.4031,344.375 C202.2156,344.375 202.8094,344.6875 203.3406,345.1719 L204.7156,343.625 C203.9656,342.8906 202.8094,342.2188 201.4031,342.2188 C198.45,342.2188 196.1219,344.3594 196.1219,348.0313 C196.1219,351.75 198.4969,353.7031 201.2469,353.7031 Z " fill="#000000"/><text fill="#000000" font-family="sans-serif" font-size="14" lengthAdjust="spacing" textLength="31" x="218.8" y="352.2852">Scan</text><line style="stroke:#181818;stroke-width:0.5;" x1="171" x2="268" y1="363.5" y2="363.5"/><text fill="#000000" font-family="sans-serif" font-size="14" lengthAdjust="spacing" textLength="87" x="176" y="380.4883">author : string</text><line style="stroke:#181818;stroke-width:0.5;" x1="171" x2="268" y1="387.9063" y2="387.9063"/></g><g id="elem_GMN15"><path d="M6,88 L6,128.4688 A0,0 0 0 0 6,128.4688 L131,128.4688 A0,0 0 0 0 131,128.4688 L131,112 L187.7,108 L131,104 L131,98 L121,88 L6,88 A0,0 0 0 0 6,88 " fill="#FEFFDD" style="stroke:#181818;stroke-width:0.5;"/><path d="M121,88 L121,98 L131,98 L121,88 " fill="#FEFFDD" style="stroke:#181818;stroke-width:0.5;"/><text fill="#000000" font-family="sans-serif" font-size="13" lengthAdjust="spacing" textLength="97" x="12" y="105.0605">See diagrams for</text><text fill="#000000" font-family="sans-serif" font-size="13" lengthAdjust="spacing" textLength="104" x="12" y="120.2949">scan subpackage.</text></g><!--reverse link File to Data--><g id="link_File_Data"><path codeLine="11" d="M413.0635,191.2922 C400.8635,210.3222 394.84,221.03 384.5,241 C367.46,273.92 352.25,314.18 343.45,339.08 " fill="none" id="File-backto-Data" style="stroke:#181818;stroke-width:1.0;"/><polygon fill="#181818" points="419.54,181.19,412.9343,184.0823,413.0635,191.2922,419.6692,188.3999,419.54,181.19" style="stroke:#181818;stroke-width:1.0;"/><text fill="#000000" font-family="sans-serif" font-size="13" lengthAdjust="spacing" textLength="7" x="337.5347" y="328.3886">n</text></g><!--reverse link Scan to Scan--><g id="link_Scan_Scan"><path d="M219.5,150.39 C219.5,196.24 219.5,279.89 219.5,331.35 " fill="none" id="Scan-backto-Scan" style="stroke:#181818;stroke-width:1.0;"/><polygon fill="none" points="219.5,132.39,213.5,150.39,225.5,150.39,219.5,132.39" style="stroke:#181818;stroke-width:1.0;"/></g><!--reverse link File to Metadata--><g id="link_File_Metadata"><path codeLine="39" d="M490.3642,192.9458 C494.9842,211.5358 497.19,220.4 502.24,240.75 " fill="none" id="File-backto-Metadata" style="stroke:#181818;stroke-width:1.0;"/><polygon fill="#181818" points="487.47,181.3,485.0352,188.0876,490.3642,192.9458,492.799,186.1581,487.47,181.3" style="stroke:#181818;stroke-width:1.0;"/></g><!--reverse link File to LogMessage--><g id="link_File_LogMessage"><path codeLine="40" d="M578.521,166.288 C615.941,188.318 647.19,210.04 680.5,241 C706.36,265.03 729.69,297.5 745.98,322.83 " fill="none" id="File-backto-LogMessage" style="stroke:#181818;stroke-width:1.0;"/><polygon fill="#181818" points="568.18,160.2,571.3212,166.691,578.521,166.288,575.3798,159.797,568.18,160.2" style="stroke:#181818;stroke-width:1.0;"/><text fill="#000000" font-family="sans-serif" font-size="13" lengthAdjust="spacing" textLength="7" x="576.0032" y="160.6751">1</text><text fill="#000000" font-family="sans-serif" font-size="13" lengthAdjust="spacing" textLength="7" x="734.5048" y="311.9473">n</text></g><!--reverse link File to Scan--><g id="link_File_Scan"><path codeLine="41" d="M360.9677,175.1237 C331.5877,195.7437 310.66,213.73 286.5,241 C262.46,268.14 243.53,305.36 232.01,331.43 " fill="none" id="File-backto-Scan" style="stroke:#181818;stroke-width:1.0;"/><polygon fill="#181818" points="370.79,168.23,363.581,168.4027,360.9677,175.1237,368.1767,174.9509,370.79,168.23" style="stroke:#181818;stroke-width:1.0;"/></g><!--SRC=[TLAnReCm4Dtv2eknKf0wTEbSTMgdZcs53ZZ0gkr3lYEALENVwnmGGfAo6BzdlxjtVhK3PlDg7PhVpAJFeq030kRPlC-_YZlgIe_Cq24dxeswzsdt-Qqyrn0I_f4MtSyQBsbPJWGOk2VXBUmfMA5uWHwpJ1jwsErC7dA5iq22fY8HygaAecaiT16yQIb-1QtcgHaT5bbMgwcb_SbNcnG3U4nbMA8DdQAun_wft6DaI-66kaySl5k83UuHU8peCKZ90d9pCO5H4fIQGh4UfpAXkOOQv3hQuOw0zQDRX2iYX_EmXuWjneXD2GVBsqihL_SG0hh_w43HWxEi1MuF7vUvhay_H-RKUFBcXsiZDVdJDEved69Yy239FMjqYeh6z8hH8XTAJj8mIa_nKa1puB2LJGfuYe66aCTgWFedzLTS1EaSPaNon_mShzNFUbfZ_0S0]--></g></svg>