<?xml version="1.0" encoding="us-ascii" standalone="no"?><svg xmlns="http://www.w3.org/2000/svg" xmlns:xlink="http://www.w3.org/1999/xlink" contentStyleType="text/css" height="521px" preserveAspectRatio="none" style="width:866px;height:521px;background:#FFFFFF;" version="1.1" viewBox="0 0 866 521" width="866px" zoomAndPan="magnify"><defs/><g><!--cluster evefile--><g id="cluster_evefile"><path d="M331.5,6 L387.5,6 A3.75,3.75 0 0 1 390,8.5 L397,28.2969 L630.5,28.2969 A2.5,2.5 0 0 1 633,30.7969 L633,236.5 A2.5,2.5 0 0 1 630.5,239 L331.5,239 A2.5,2.5 0 0 1 329,236.5 L329,8.5 A2.5,2.5 0 0 1 331.5,6 " fill="none" style="stroke:#000000;stroke-width:1.5;"/><line style="stroke:#000000;stroke-width:1.5;" x1="329" x2="397" y1="28.2969" y2="28.2969"/><text fill="#000000" font-family="sans-serif" font-size="14" font-weight="bold" lengthAdjust="spacing" textLength="55" x="333" y="20.9951">evefile</text></g><!--cluster entities--><g id="cluster_entities"><path d="M355.5,49 L418.5,49 A3.75,3.75 0 0 1 421,51.5 L428,71.2969 L606.5,71.2969 A2.5,2.5 0 0 1 609,73.7969 L609,212.5 A2.5,2.5 0 0 1 606.5,215 L355.5,215 A2.5,2.5 0 0 1 353,212.5 L353,51.5 A2.5,2.5 0 0 1 355.5,49 " fill="none" style="stroke:#000000;stroke-width:1.5;"/><line style="stroke:#000000;stroke-width:1.5;" x1="353" x2="428" y1="71.2969" y2="71.2969"/><text fill="#000000" font-family="sans-serif" font-size="14" font-weight="bold" lengthAdjust="spacing" textLength="62" x="357" y="63.9951">entities</text></g><!--cluster file--><g id="cluster_file"><path d="M379.5,92 L406.5,92 A3.75,3.75 0 0 1 409,94.5 L416,114.2969 L582.5,114.2969 A2.5,2.5 0 0 1 585,116.7969 L585,188.5 A2.5,2.5 0 0 1 582.5,191 L379.5,191 A2.5,2.5 0 0 1 377,188.5 L377,94.5 A2.5,2.5 0 0 1 379.5,92 " fill="none" style="stroke:#000000;stroke-width:1.5;"/><line style="stroke:#000000;stroke-width:1.5;" x1="377" x2="416" y1="114.2969" y2="114.2969"/><text fill="#000000" font-family="sans-serif" font-size="14" font-weight="bold" lengthAdjust="spacing" textLength="26" x="381" y="106.9951">file</text></g><!--class Scan--><g id="elem_Scan"><rect codeLine="26" fill="#F1F1F1" height="48" id="Scan" rx="2.5" ry="2.5" style="stroke:#181818;stroke-width:0.5;" width="67" x="501.5" y="127"/><ellipse cx="516.5" cy="143" fill="#ADD1B2" rx="11" ry="11" style="stroke:#181818;stroke-width:1.0;"/><path d="M519.4844,148.6406 Q518.9063,148.9375 518.2656,149.0781 Q517.625,149.2344 516.9219,149.2344 Q514.4063,149.2344 513.0781,147.5938 Q511.7656,145.9375 511.7656,142.8125 Q511.7656,139.6719 513.0781,138.0313 Q514.4063,136.375 516.9219,136.375 Q517.625,136.375 518.2656,136.5313 Q518.9219,136.6719 519.4844,136.9688 L519.4844,139.6875 Q518.8438,139.1094 518.25,138.8438 Q517.6563,138.5781 517.0313,138.5781 Q515.6875,138.5781 515,139.6406 Q514.3125,140.7031 514.3125,142.8125 Q514.3125,144.9063 515,145.9844 Q515.6875,147.0469 517.0313,147.0469 Q517.6563,147.0469 518.25,146.7813 Q518.8438,146.5 519.4844,145.9219 L519.4844,148.6406 Z " fill="#000000"/><text fill="#000000" font-family="sans-serif" font-size="14" lengthAdjust="spacing" textLength="35" x="530.5" y="147.8467">Scan</text><line style="stroke:#181818;stroke-width:0.5;" x1="502.5" x2="567.5" y1="159" y2="159"/><line style="stroke:#181818;stroke-width:0.5;" x1="502.5" x2="567.5" y1="167" y2="167"/></g><!--class Setup--><g id="elem_Setup"><rect codeLine="29" fill="#F1F1F1" height="48" id="Setup" rx="2.5" ry="2.5" style="stroke:#181818;stroke-width:0.5;" width="73" x="393.5" y="127"/><ellipse cx="408.5" cy="143" fill="#ADD1B2" rx="11" ry="11" style="stroke:#181818;stroke-width:1.0;"/><path d="M411.4844,148.6406 Q410.9063,148.9375 410.2656,149.0781 Q409.625,149.2344 408.9219,149.2344 Q406.4063,149.2344 405.0781,147.5938 Q403.7656,145.9375 403.7656,142.8125 Q403.7656,139.6719 405.0781,138.0313 Q406.4063,136.375 408.9219,136.375 Q409.625,136.375 410.2656,136.5313 Q410.9219,136.6719 411.4844,136.9688 L411.4844,139.6875 Q410.8438,139.1094 410.25,138.8438 Q409.6563,138.5781 409.0313,138.5781 Q407.6875,138.5781 407,139.6406 Q406.3125,140.7031 406.3125,142.8125 Q406.3125,144.9063 407,145.9844 Q407.6875,147.0469 409.0313,147.0469 Q409.6563,147.0469 410.25,146.7813 Q410.8438,146.5 411.4844,145.9219 L411.4844,148.6406 Z " fill="#000000"/><text fill="#000000" font-family="sans-serif" font-size="14" lengthAdjust="spacing" textLength="41" x="422.5" y="147.8467">Setup</text><line style="stroke:#181818;stroke-width:0.5;" x1="394.5" x2="465.5" y1="159" y2="159"/><line style="stroke:#181818;stroke-width:0.5;" x1="394.5" x2="465.5" y1="167" y2="167"/></g><!--class Measurement--><g id="elem_Measurement"><rect codeLine="3" fill="#F1F1F1" height="178.375" id="Measurement" rx="2.5" ry="2.5" style="stroke:#181818;stroke-width:0.5;" width="306" x="7" y="62"/><ellipse cx="106.75" cy="78" fill="#ADD1B2" rx="11" ry="11" style="stroke:#181818;stroke-width:1.0;"/><path d="M109.7344,83.6406 Q109.1563,83.9375 108.5156,84.0781 Q107.875,84.2344 107.1719,84.2344 Q104.6563,84.2344 103.3281,82.5938 Q102.0156,80.9375 102.0156,77.8125 Q102.0156,74.6719 103.3281,73.0313 Q104.6563,71.375 107.1719,71.375 Q107.875,71.375 108.5156,71.5313 Q109.1719,71.6719 109.7344,71.9688 L109.7344,74.6875 Q109.0938,74.1094 108.5,73.8438 Q107.9063,73.5781 107.2813,73.5781 Q105.9375,73.5781 105.25,74.6406 Q104.5625,75.7031 104.5625,77.8125 Q104.5625,79.9063 105.25,80.9844 Q105.9375,82.0469 107.2813,82.0469 Q107.9063,82.0469 108.5,81.7813 Q109.0938,81.5 109.7344,80.9219 L109.7344,83.6406 Z " fill="#000000"/><text fill="#000000" font-family="sans-serif" font-size="14" lengthAdjust="spacing" textLength="98" x="127.25" y="82.8467">Measurement</text><line style="stroke:#181818;stroke-width:0.5;" x1="8" x2="312" y1="94" y2="94"/><text fill="#000000" font-family="sans-serif" font-size="14" lengthAdjust="spacing" textLength="191" x="13" y="110.9951">detectors{} : ChannelData</text><text fill="#000000" font-family="sans-serif" font-size="14" lengthAdjust="spacing" textLength="144" x="13" y="127.292">motors{} : AxisData</text><text fill="#000000" font-family="sans-serif" font-size="14" lengthAdjust="spacing" textLength="289" x="13" y="143.5889">machine{} : MeasureData | MonitorData</text><text fill="#000000" font-family="sans-serif" font-size="14" lengthAdjust="spacing" textLength="294" x="13" y="159.8857">beamline{} : MeasureData | MonitorData</text><text fill="#000000" font-family="sans-serif" font-size="14" lengthAdjust="spacing" textLength="149" x="13" y="176.1826">metadata : Metadata</text><text fill="#000000" font-family="sans-serif" font-size="14" lengthAdjust="spacing" textLength="81" x="13" y="192.4795">scan : Scan</text><text fill="#000000" font-family="sans-serif" font-size="14" lengthAdjust="spacing" textLength="93" x="13" y="208.7764">setup : Setup</text><text fill="#000000" font-family="sans-serif" font-size="14" lengthAdjust="spacing" textLength="211" x="13" y="225.0732">log_messages[] : LogMessage</text><line style="stroke:#181818;stroke-width:0.5;" x1="8" x2="312" y1="232.375" y2="232.375"/></g><!--class Metadata--><g id="elem_Metadata"><rect codeLine="18" fill="#F1F1F1" height="48" id="Metadata" rx="2.5" ry="2.5" style="stroke:#181818;stroke-width:0.5;" width="99" x="110.5" y="340.5"/><ellipse cx="125.5" cy="356.5" fill="#ADD1B2" rx="11" ry="11" style="stroke:#181818;stroke-width:1.0;"/><path d="M128.4844,362.1406 Q127.9063,362.4375 127.2656,362.5781 Q126.625,362.7344 125.9219,362.7344 Q123.4063,362.7344 122.0781,361.0938 Q120.7656,359.4375 120.7656,356.3125 Q120.7656,353.1719 122.0781,351.5313 Q123.4063,349.875 125.9219,349.875 Q126.625,349.875 127.2656,350.0313 Q127.9219,350.1719 128.4844,350.4688 L128.4844,353.1875 Q127.8438,352.6094 127.25,352.3438 Q126.6563,352.0781 126.0313,352.0781 Q124.6875,352.0781 124,353.1406 Q123.3125,354.2031 123.3125,356.3125 Q123.3125,358.4063 124,359.4844 Q124.6875,360.5469 126.0313,360.5469 Q126.6563,360.5469 127.25,360.2813 Q127.8438,360 128.4844,359.4219 L128.4844,362.1406 Z " fill="#000000"/><text fill="#000000" font-family="sans-serif" font-size="14" lengthAdjust="spacing" textLength="67" x="139.5" y="361.3467">Metadata</text><line style="stroke:#181818;stroke-width:0.5;" x1="111.5" x2="208.5" y1="372.5" y2="372.5"/><line style="stroke:#181818;stroke-width:0.5;" x1="111.5" x2="208.5" y1="380.5" y2="380.5"/></g><!--class Scan--><g id="elem_Scan"><rect codeLine="32" fill="#F1F1F1" height="48" id="Scan" rx="2.5" ry="2.5" style="stroke:#181818;stroke-width:0.5;" width="67" x="427.5" y="340.5"/><ellipse cx="442.5" cy="356.5" fill="#ADD1B2" rx="11" ry="11" style="stroke:#181818;stroke-width:1.0;"/><path d="M445.4844,362.1406 Q444.9063,362.4375 444.2656,362.5781 Q443.625,362.7344 442.9219,362.7344 Q440.4063,362.7344 439.0781,361.0938 Q437.7656,359.4375 437.7656,356.3125 Q437.7656,353.1719 439.0781,351.5313 Q440.4063,349.875 442.9219,349.875 Q443.625,349.875 444.2656,350.0313 Q444.9219,350.1719 445.4844,350.4688 L445.4844,353.1875 Q444.8438,352.6094 444.25,352.3438 Q443.6563,352.0781 443.0313,352.0781 Q441.6875,352.0781 441,353.1406 Q440.3125,354.2031 440.3125,356.3125 Q440.3125,358.4063 441,359.4844 Q441.6875,360.5469 443.0313,360.5469 Q443.6563,360.5469 444.25,360.2813 Q444.8438,360 445.4844,359.4219 L445.4844,362.1406 Z " fill="#000000"/><text fill="#000000" font-family="sans-serif" font-size="14" lengthAdjust="spacing" textLength="35" x="456.5" y="361.3467">Scan</text><line style="stroke:#181818;stroke-width:0.5;" x1="428.5" x2="493.5" y1="372.5" y2="372.5"/><line style="stroke:#181818;stroke-width:0.5;" x1="428.5" x2="493.5" y1="380.5" y2="380.5"/></g><!--class Setup--><g id="elem_Setup"><rect codeLine="34" fill="#F1F1F1" height="48" id="Setup" rx="2.5" ry="2.5" style="stroke:#181818;stroke-width:0.5;" width="73" x="282.5" y="340.5"/><ellipse cx="297.5" cy="356.5" fill="#ADD1B2" rx="11" ry="11" style="stroke:#181818;stroke-width:1.0;"/><path d="M300.4844,362.1406 Q299.9063,362.4375 299.2656,362.5781 Q298.625,362.7344 297.9219,362.7344 Q295.4063,362.7344 294.0781,361.0938 Q292.7656,359.4375 292.7656,356.3125 Q292.7656,353.1719 294.0781,351.5313 Q295.4063,349.875 297.9219,349.875 Q298.625,349.875 299.2656,350.0313 Q299.9219,350.1719 300.4844,350.4688 L300.4844,353.1875 Q299.8438,352.6094 299.25,352.3438 Q298.6563,352.0781 298.0313,352.0781 Q296.6875,352.0781 296,353.1406 Q295.3125,354.2031 295.3125,356.3125 Q295.3125,358.4063 296,359.4844 Q296.6875,360.5469 298.0313,360.5469 Q298.6563,360.5469 299.25,360.2813 Q299.8438,360 300.4844,359.4219 L300.4844,362.1406 Z " fill="#000000"/><text fill="#000000" font-family="sans-serif" font-size="14" lengthAdjust="spacing" textLength="41" x="311.5" y="361.3467">Setup</text><line style="stroke:#181818;stroke-width:0.5;" x1="283.5" x2="354.5" y1="372.5" y2="372.5"/><line style="stroke:#181818;stroke-width:0.5;" x1="283.5" x2="354.5" y1="380.5" y2="380.5"/></g><g id="elem_GMN9"><path d="M76,489 L76,514.1328 A0,0 0 0 0 76,514.1328 L244,514.1328 A0,0 0 0 0 244,514.1328 L244,499 L234,489 L164,489 L160,388.71 L156,489 L76,489 A0,0 0 0 0 76,489 " fill="#FEFFDD" style="stroke:#181818;stroke-width:0.5;"/><path d="M234,489 L234,499 L244,499 L234,489 " fill="#FEFFDD" style="stroke:#181818;stroke-width:0.5;"/><text fill="#000000" font-family="sans-serif" font-size="13" lengthAdjust="spacing" textLength="147" x="82" y="506.0669">See separate diagram.</text></g><!--class Data--><g id="elem_Data"><rect codeLine="36" fill="#F1F1F1" height="96.8906" id="Data" rx="2.5" ry="2.5" style="stroke:#181818;stroke-width:0.5;" width="210" x="649" y="102.5"/><ellipse cx="732.75" cy="118.5" fill="#ADD1B2" rx="11" ry="11" style="stroke:#181818;stroke-width:1.0;"/><path d="M735.7344,124.1406 Q735.1563,124.4375 734.5156,124.5781 Q733.875,124.7344 733.1719,124.7344 Q730.6563,124.7344 729.3281,123.0938 Q728.0156,121.4375 728.0156,118.3125 Q728.0156,115.1719 729.3281,113.5313 Q730.6563,111.875 733.1719,111.875 Q733.875,111.875 734.5156,112.0313 Q735.1719,112.1719 735.7344,112.4688 L735.7344,115.1875 Q735.0938,114.6094 734.5,114.3438 Q733.9063,114.0781 733.2813,114.0781 Q731.9375,114.0781 731.25,115.1406 Q730.5625,116.2031 730.5625,118.3125 Q730.5625,120.4063 731.25,121.4844 Q731.9375,122.5469 733.2813,122.5469 Q733.9063,122.5469 734.5,122.2813 Q735.0938,122 735.7344,121.4219 L735.7344,124.1406 Z " fill="#000000"/><text fill="#000000" font-family="sans-serif" font-size="14" lengthAdjust="spacing" textLength="34" x="753.25" y="123.3467">Data</text><line style="stroke:#181818;stroke-width:0.5;" x1="650" x2="858" y1="134.5" y2="134.5"/><text fill="#000000" font-family="sans-serif" font-size="14" lengthAdjust="spacing" textLength="123" x="655" y="151.4951">data : np.ndarray</text><text fill="#000000" font-family="sans-serif" font-size="14" lengthAdjust="spacing" textLength="115" x="655" y="167.792">axes[]: AxisData</text><text fill="#000000" font-family="sans-serif" font-size="14" lengthAdjust="spacing" textLength="198" x="655" y="184.0889">metadata : DeviceMetadata</text><line style="stroke:#181818;stroke-width:0.5;" x1="650" x2="858" y1="191.3906" y2="191.3906"/></g><!--class Axis--><g id="elem_Axis"><rect codeLine="42" fill="#F1F1F1" height="129.4844" id="Axis" rx="2.5" ry="2.5" style="stroke:#181818;stroke-width:0.5;" width="135" x="686.5" y="300"/><ellipse cx="735.25" cy="316" fill="#ADD1B2" rx="11" ry="11" style="stroke:#181818;stroke-width:1.0;"/><path d="M738.2344,321.6406 Q737.6563,321.9375 737.0156,322.0781 Q736.375,322.2344 735.6719,322.2344 Q733.1563,322.2344 731.8281,320.5938 Q730.5156,318.9375 730.5156,315.8125 Q730.5156,312.6719 731.8281,311.0313 Q733.1563,309.375 735.6719,309.375 Q736.375,309.375 737.0156,309.5313 Q737.6719,309.6719 738.2344,309.9688 L738.2344,312.6875 Q737.5938,312.1094 737,311.8438 Q736.4063,311.5781 735.7813,311.5781 Q734.4375,311.5781 733.75,312.6406 Q733.0625,313.7031 733.0625,315.8125 Q733.0625,317.9063 733.75,318.9844 Q734.4375,320.0469 735.7813,320.0469 Q736.4063,320.0469 737,319.7813 Q737.5938,319.5 738.2344,318.9219 L738.2344,321.6406 Z " fill="#000000"/><text fill="#000000" font-family="sans-serif" font-size="14" lengthAdjust="spacing" textLength="29" x="755.75" y="320.8467">Axis</text><line style="stroke:#181818;stroke-width:0.5;" x1="687.5" x2="820.5" y1="332" y2="332"/><text fill="#000000" font-family="sans-serif" font-size="14" lengthAdjust="spacing" textLength="123" x="692.5" y="348.9951">data : np.ndarray</text><text fill="#000000" font-family="sans-serif" font-size="14" lengthAdjust="spacing" textLength="84" x="692.5" y="365.292">label: string</text><text fill="#000000" font-family="sans-serif" font-size="14" lengthAdjust="spacing" textLength="116" x="692.5" y="381.5889">measure : string</text><text fill="#000000" font-family="sans-serif" font-size="14" lengthAdjust="spacing" textLength="104" x="692.5" y="397.8857">symbol : string</text><text fill="#000000" font-family="sans-serif" font-size="14" lengthAdjust="spacing" textLength="80" x="692.5" y="414.1826">unit : string</text><line style="stroke:#181818;stroke-width:0.5;" x1="687.5" x2="820.5" y1="421.4844" y2="421.4844"/></g><!--reverse link Measurement to Metadata--><g id="link_Measurement_Metadata"><path codeLine="14" d="M160,252.16 C160,288.66 160,316.03 160,340.23 " fill="none" id="Measurement-backto-Metadata" style="stroke:#181818;stroke-width:1.0;"/><polygon fill="#181818" points="160,240.16,156,246.16,160,252.16,164,246.16,160,240.16" style="stroke:#181818;stroke-width:1.0;"/></g><!--reverse link Measurement to Scan--><g id="link_Measurement_Scan"><path codeLine="15" d="M297.3783,246.9165 C325.5883,266.5565 345.44,280.48 373,300 C391.76,313.28 412.62,328.33 429.33,340.44 " fill="none" id="Measurement-backto-Scan" style="stroke:#181818;stroke-width:1.0;"/><polygon fill="#181818" points="287.53,240.06,290.1687,246.771,297.3783,246.9165,294.7396,240.2055,287.53,240.06" style="stroke:#181818;stroke-width:1.0;"/></g><!--reverse link Measurement to Setup--><g id="link_Measurement_Setup"><path codeLine="16" d="M233.4909,249.7518 C260.9309,286.2518 283.32,316.03 301.51,340.23 " fill="none" id="Measurement-backto-Setup" style="stroke:#181818;stroke-width:1.0;"/><polygon fill="#181818" points="226.28,240.16,226.6882,247.3595,233.4909,249.7518,233.0827,242.5523,226.28,240.16" style="stroke:#181818;stroke-width:1.0;"/></g><!--reverse link Scan to Scan--><g id="link_Scan_Scan"><path d="M520.9967,192.0305 C506.7667,232.7105 483.28,299.83 469.05,340.49 " fill="none" id="Scan-backto-Scan" style="stroke:#181818;stroke-width:1.0;"/><polygon fill="none" points="526.94,175.04,515.3332,190.0494,526.6602,194.0116,526.94,175.04" style="stroke:#181818;stroke-width:1.0;"/></g><!--reverse link Setup to Setup--><g id="link_Setup_Setup"><path d="M409.5451,190.9783 C388.1951,231.6583 352.42,299.83 331.08,340.49 " fill="none" id="Setup-backto-Setup" style="stroke:#181818;stroke-width:1.0;"/><polygon fill="none" points="417.91,175.04,404.2324,188.19,414.8579,193.7666,417.91,175.04" style="stroke:#181818;stroke-width:1.0;"/></g><!--reverse link Data to Axis--><g id="link_Data_Axis"><path codeLine="50" d="M754,211.73 C754,241.33 754,267.73 754,299.9 " fill="none" id="Data-backto-Axis" style="stroke:#181818;stroke-width:1.0;"/><polygon fill="#181818" points="754,199.73,750,205.73,754,211.73,758,205.73,754,199.73" style="stroke:#181818;stroke-width:1.0;"/><text fill="#000000" font-family="sans-serif" font-size="13" lengthAdjust="spacing" textLength="8" x="745.5625" y="289.0617">n</text></g><!--SRC=[ZL9DRy8m3BtdLqHS9asYtBbDupXE7ATfSbjJ8kMZYbq4Olpt9MxNKYQnzPBw-Vdvy-d0tD9wjMejUEwSBQhWLfK5ecLje8dWb19JRn6eY-ZGixuedRuQ6IiEaIvNlTQl1_0UxGOOnEl2w7ev6Pfmg0x6epW6pUpJNteRl4an8xD4SFP_L8SCTNPbOlyhE5NW4xPBJsyZTsq6yYk83SsdGo9eaDu_akijDDlULbUbRhj-NYudzNk7fFW5IffnW4EDbopi0wCk0tDmEkpdLUyGKwKjH4YSOGs5Gb_d8FMZXqVS6uj5IcRO81LYvJhw30zPCeSRceJXYLEIHyeZNUB_uDysl-aRbxFfz-JRmjSG8vm5XLEU__sjJ6lTuD5KE8vfB3pp7mfRAD6kDN4qlXbKPKjw1jBPbS7EiIuTsOIabD95Mkp2BoIn-WO0]--></g></svg>