<?xml version="1.0" encoding="us-ascii" standalone="no"?><svg xmlns="http://www.w3.org/2000/svg" xmlns:xlink="http://www.w3.org/1999/xlink" contentStyleType="text/css" height="310px" preserveAspectRatio="none" style="width:403px;height:310px;background:#FFFFFF;" version="1.1" viewBox="0 0 403 310" width="403px" zoomAndPan="magnify"><defs/><g><!--cluster scan--><g id="cluster_scan"><path d="M83,6 L114,6 A3.75,3.75 0 0 1 116.5,8.5 L123.5,28.4063 L394,28.4063 A2.5,2.5 0 0 1 396.5,30.9063 L396.5,236.5 A2.5,2.5 0 0 1 394,239 L83,239 A2.5,2.5 0 0 1 80.5,236.5 L80.5,8.5 A2.5,2.5 0 0 1 83,6 " fill="none" style="stroke:#000000;stroke-width:1.5;"/><line style="stroke:#000000;stroke-width:1.5;" x1="80.5" x2="123.5" y1="28.4063" y2="28.4063"/><text fill="#000000" font-family="sans-serif" font-size="14" font-weight="bold" lengthAdjust="spacing" textLength="30" x="84.5" y="20.9883">scan</text></g><!--cluster entities--><g id="cluster_entities"><path d="M107,49 L157,49 A3.75,3.75 0 0 1 159.5,51.5 L166.5,71.4063 L370,71.4063 A2.5,2.5 0 0 1 372.5,73.9063 L372.5,212.5 A2.5,2.5 0 0 1 370,215 L107,215 A2.5,2.5 0 0 1 104.5,212.5 L104.5,51.5 A2.5,2.5 0 0 1 107,49 " fill="none" style="stroke:#000000;stroke-width:1.5;"/><line style="stroke:#000000;stroke-width:1.5;" x1="104.5" x2="166.5" y1="71.4063" y2="71.4063"/><text fill="#000000" font-family="sans-serif" font-size="14" font-weight="bold" lengthAdjust="spacing" textLength="49" x="108.5" y="63.9883">entities</text></g><!--cluster scan--><g id="cluster_scan"><path d="M131,92 L162,92 A3.75,3.75 0 0 1 164.5,94.5 L171.5,114.4063 L222,114.4063 A2.5,2.5 0 0 1 224.5,116.9063 L224.5,188.5 A2.5,2.5 0 0 1 222,191 L131,191 A2.5,2.5 0 0 1 128.5,188.5 L128.5,94.5 A2.5,2.5 0 0 1 131,92 " fill="none" style="stroke:#000000;stroke-width:1.5;"/><line style="stroke:#000000;stroke-width:1.5;" x1="128.5" x2="171.5" y1="114.4063" y2="114.4063"/><text fill="#000000" font-family="sans-serif" font-size="14" font-weight="bold" lengthAdjust="spacing" textLength="30" x="132.5" y="106.9883">scan</text></g><!--cluster setup--><g id="cluster_setup"><path d="M251,92 L288,92 A3.75,3.75 0 0 1 290.5,94.5 L297.5,114.4063 L346,114.4063 A2.5,2.5 0 0 1 348.5,116.9063 L348.5,188.5 A2.5,2.5 0 0 1 346,191 L251,191 A2.5,2.5 0 0 1 248.5,188.5 L248.5,94.5 A2.5,2.5 0 0 1 251,92 " fill="none" style="stroke:#000000;stroke-width:1.5;"/><line style="stroke:#000000;stroke-width:1.5;" x1="248.5" x2="297.5" y1="114.4063" y2="114.4063"/><text fill="#000000" font-family="sans-serif" font-size="14" font-weight="bold" lengthAdjust="spacing" textLength="36" x="252.5" y="106.9883">setup</text></g><!--class Scan--><g id="elem_Scan"><rect fill="#F1F1F1" height="48" id="Scan" rx="2.5" ry="2.5" style="stroke:#181818;stroke-width:0.5;" width="63" x="145" y="127"/><ellipse cx="160" cy="143" fill="#ADD1B2" rx="11" ry="11" style="stroke:#181818;stroke-width:1.0;"/><path d="M160.0469,149.2031 C161.5469,149.2031 162.7813,148.6406 163.6875,147.5781 L162.3125,146.0625 C161.7656,146.6563 161.1094,147.0469 160.3125,147.0469 C158.6406,147.0469 157.4844,145.7188 157.4844,143.4375 C157.4844,141.2188 158.6406,139.875 160.2031,139.875 C161.0156,139.875 161.6094,140.1875 162.1406,140.6719 L163.5156,139.125 C162.7656,138.3906 161.6094,137.7188 160.2031,137.7188 C157.25,137.7188 154.9219,139.8594 154.9219,143.5313 C154.9219,147.25 157.2969,149.2031 160.0469,149.2031 Z " fill="#000000"/><text fill="#000000" font-family="sans-serif" font-size="14" lengthAdjust="spacing" textLength="31" x="174" y="147.7852">Scan</text><line style="stroke:#181818;stroke-width:0.5;" x1="146" x2="207" y1="159" y2="159"/><line style="stroke:#181818;stroke-width:0.5;" x1="146" x2="207" y1="167" y2="167"/></g><!--class Setup--><g id="elem_Setup"><rect fill="#F1F1F1" height="48" id="Setup" rx="2.5" ry="2.5" style="stroke:#181818;stroke-width:0.5;" width="68" x="264.5" y="127"/><ellipse cx="279.5" cy="143" fill="#ADD1B2" rx="11" ry="11" style="stroke:#181818;stroke-width:1.0;"/><path d="M279.5469,149.2031 C281.0469,149.2031 282.2813,148.6406 283.1875,147.5781 L281.8125,146.0625 C281.2656,146.6563 280.6094,147.0469 279.8125,147.0469 C278.1406,147.0469 276.9844,145.7188 276.9844,143.4375 C276.9844,141.2188 278.1406,139.875 279.7031,139.875 C280.5156,139.875 281.1094,140.1875 281.6406,140.6719 L283.0156,139.125 C282.2656,138.3906 281.1094,137.7188 279.7031,137.7188 C276.75,137.7188 274.4219,139.8594 274.4219,143.5313 C274.4219,147.25 276.7969,149.2031 279.5469,149.2031 Z " fill="#000000"/><text fill="#000000" font-family="sans-serif" font-size="14" lengthAdjust="spacing" textLength="36" x="293.5" y="147.7852">Setup</text><line style="stroke:#181818;stroke-width:0.5;" x1="265.5" x2="331.5" y1="159" y2="159"/><line style="stroke:#181818;stroke-width:0.5;" x1="265.5" x2="331.5" y1="167" y2="167"/></g><!--class File--><g id="elem_File"><rect codeLine="3" fill="#F1F1F1" height="80.8125" id="File" rx="2.5" ry="2.5" style="stroke:#181818;stroke-width:0.5;" width="57" x="7" y="110.5"/><ellipse cx="23.8" cy="126.5" fill="#B4A7E5" rx="11" ry="11" style="stroke:#181818;stroke-width:1.0;"/><path d="M20.0656,132.5 L27.7375,132.5 L27.7375,130.3906 L25.1594,130.3906 L25.1594,123.5313 L27.7375,123.5313 L27.7375,121.4219 L20.0656,121.4219 L20.0656,123.5313 L22.6438,123.5313 L22.6438,130.3906 L20.0656,130.3906 L20.0656,132.5 Z " fill="#000000"/><text fill="#000000" font-family="sans-serif" font-size="14" font-style="italic" lengthAdjust="spacing" textLength="21" x="38.2" y="131.2852">File</text><line style="stroke:#181818;stroke-width:0.5;" x1="8" x2="63" y1="142.5" y2="142.5"/><text fill="#000000" font-family="sans-serif" font-size="14" lengthAdjust="spacing" textLength="45" x="13" y="159.4883">version</text><line style="stroke:#181818;stroke-width:0.5;" x1="8" x2="63" y1="166.9063" y2="166.9063"/><text fill="#000000" font-family="sans-serif" font-size="14" lengthAdjust="spacing" textLength="37" x="13" y="183.8945">load()</text></g><!--class Scan--><g id="elem_Scan"><rect codeLine="8" fill="#F1F1F1" height="48" id="Scan" rx="2.5" ry="2.5" style="stroke:#181818;stroke-width:0.5;" width="63" x="74" y="255"/><ellipse cx="89" cy="271" fill="#ADD1B2" rx="11" ry="11" style="stroke:#181818;stroke-width:1.0;"/><path d="M89.0469,277.2031 C90.5469,277.2031 91.7813,276.6406 92.6875,275.5781 L91.3125,274.0625 C90.7656,274.6563 90.1094,275.0469 89.3125,275.0469 C87.6406,275.0469 86.4844,273.7188 86.4844,271.4375 C86.4844,269.2188 87.6406,267.875 89.2031,267.875 C90.0156,267.875 90.6094,268.1875 91.1406,268.6719 L92.5156,267.125 C91.7656,266.3906 90.6094,265.7188 89.2031,265.7188 C86.25,265.7188 83.9219,267.8594 83.9219,271.5313 C83.9219,275.25 86.2969,277.2031 89.0469,277.2031 Z " fill="#000000"/><text fill="#000000" font-family="sans-serif" font-size="14" lengthAdjust="spacing" textLength="31" x="103" y="275.7852">Scan</text><line style="stroke:#181818;stroke-width:0.5;" x1="75" x2="136" y1="287" y2="287"/><line style="stroke:#181818;stroke-width:0.5;" x1="75" x2="136" y1="295" y2="295"/></g><!--class Station--><g id="elem_Station"><rect codeLine="11" fill="#F1F1F1" height="48" id="Station" rx="2.5" ry="2.5" style="stroke:#181818;stroke-width:0.5;" width="77" x="216" y="255"/><ellipse cx="231" cy="271" fill="#ADD1B2" rx="11" ry="11" style="stroke:#181818;stroke-width:1.0;"/><path d="M231.0469,277.2031 C232.5469,277.2031 233.7813,276.6406 234.6875,275.5781 L233.3125,274.0625 C232.7656,274.6563 232.1094,275.0469 231.3125,275.0469 C229.6406,275.0469 228.4844,273.7188 228.4844,271.4375 C228.4844,269.2188 229.6406,267.875 231.2031,267.875 C232.0156,267.875 232.6094,268.1875 233.1406,268.6719 L234.5156,267.125 C233.7656,266.3906 232.6094,265.7188 231.2031,265.7188 C228.25,265.7188 225.9219,267.8594 225.9219,271.5313 C225.9219,275.25 228.2969,277.2031 231.0469,277.2031 Z " fill="#000000"/><text fill="#000000" font-family="sans-serif" font-size="14" lengthAdjust="spacing" textLength="45" x="245" y="275.7852">Station</text><line style="stroke:#181818;stroke-width:0.5;" x1="217" x2="292" y1="287" y2="287"/><line style="stroke:#181818;stroke-width:0.5;" x1="217" x2="292" y1="295" y2="295"/></g><!--reverse link Scan to Scan--><g id="link_Scan_Scan"><path d="M154.6431,190.7915 C141.9131,213.3815 131.46,231.92 118.68,254.61 " fill="none" id="Scan-backto-Scan" style="stroke:#181818;stroke-width:1.0;"/><polygon fill="none" points="163.48,175.11,149.4159,187.8459,159.8703,193.7371,163.48,175.11" style="stroke:#181818;stroke-width:1.0;"/></g><!--reverse link File to Scan--><g id="link_File_Scan"><path d="M66.1958,207.258 C77.7358,228.048 82.76,237.07 92.59,254.76 " fill="none" id="File-backto-Scan" style="stroke:#181818;stroke-width:1.0;stroke-dasharray:7.0,7.0;"/><polygon fill="none" points="57.46,191.52,60.9498,210.17,71.4418,204.3461,57.46,191.52" style="stroke:#181818;stroke-width:1.0;"/></g><!--reverse link Setup to Station--><g id="link_Setup_Station"><path d="M284.4948,192.1033 C276.6048,214.6933 270.59,231.92 262.67,254.61 " fill="none" id="Setup-backto-Station" style="stroke:#181818;stroke-width:1.0;"/><polygon fill="none" points="290.43,175.11,278.8303,190.1249,290.1592,194.0817,290.43,175.11" style="stroke:#181818;stroke-width:1.0;"/></g><!--reverse link File to Station--><g id="link_File_Station"><path d="M75.9998,204.1316 C92.6998,223.8016 103.64,232.81 128.5,247 C132.4,249.23 180.35,260.71 215.95,269.06 " fill="none" id="File-backto-Station" style="stroke:#181818;stroke-width:1.0;stroke-dasharray:7.0,7.0;"/><polygon fill="none" points="64.35,190.41,71.4259,208.0149,80.5736,200.2484,64.35,190.41" style="stroke:#181818;stroke-width:1.0;"/></g><!--SRC=[TOnD2a8n38JtFKLswi9sxm6ym3j1QAC6qX-QF17atTrQ43SwYs66ORxTpQpfAOGcM6pDucFD8Ggg7XFZjMDsZejHls0aEBCGF1qCtQahrpApL4pxWzkScqzO8XQWXr592ZgAfs9iJEfdcpld9fJ7e1_izszeW_qFGROslxpz9-G5]--></g></svg>