<?xml version="1.0" encoding="us-ascii" standalone="no"?><svg xmlns="http://www.w3.org/2000/svg" xmlns:xlink="http://www.w3.org/1999/xlink" contentStyleType="text/css" height="508.2px" preserveAspectRatio="none" style="width:580px;height:508px;background:#FFFFFF;" version="1.1" viewBox="0 0 580 508" width="581px" zoomAndPan="magnify"><defs/><g><!--class Data--><g id="elem_Data"><rect codeLine="3" fill="#F1F1F1" height="56.5687" id="Data" rx="1.75" ry="1.75" style="stroke:#181818;stroke-width:0.3499999999999999;" width="100.1" x="261.45" y="25.55"/><ellipse cx="298.025" cy="36.75" fill="#ADD1B2" rx="7.7" ry="7.7" style="stroke:#181818;stroke-width:0.6999999999999998;"/><path d="M298.0578,41.0922 C299.1078,41.0922 299.9719,40.6984 300.6062,39.9547 L299.6437,38.8937 C299.2609,39.3094 298.8016,39.5828 298.2437,39.5828 C297.0734,39.5828 296.2641,38.6531 296.2641,37.0562 C296.2641,35.5031 297.0734,34.5625 298.1672,34.5625 C298.7359,34.5625 299.1516,34.7812 299.5234,35.1203 L300.4859,34.0375 C299.9609,33.5234 299.1516,33.0531 298.1672,33.0531 C296.1,33.0531 294.4703,34.5516 294.4703,37.1219 C294.4703,39.725 296.1328,41.0922 298.0578,41.0922 Z " fill="#000000"/><text fill="#000000" font-family="sans-serif" font-size="9.8" lengthAdjust="spacing" textLength="21" x="312.375" y="40.0996">Data</text><line style="stroke:#181818;stroke-width:0.3499999999999999;" x1="262.15" x2="360.85" y1="47.95" y2="47.95"/><text fill="#000000" font-family="sans-serif" font-size="9.8" lengthAdjust="spacing" textLength="91.7" x="265.65" y="59.8418">metadata : Metadata</text><text fill="#000000" font-family="sans-serif" font-size="9.8" lengthAdjust="spacing" textLength="74.9" x="265.65" y="71.3262">data : np.ndarray</text><line style="stroke:#181818;stroke-width:0.3499999999999999;" x1="262.15" x2="360.85" y1="76.5187" y2="76.5187"/></g><path d="M20.65,4.2 L20.65,96.5125 A0,0 0 0 0 20.65,96.5125 L236.95,96.5125 A0,0 0 0 0 236.95,96.5125 L236.95,53.1562 L264.25,67.9766 L236.95,47.5562 L236.95,11.2 L229.95,4.2 L20.65,4.2 A0,0 0 0 0 20.65,4.2 " fill="#FEFFDD" style="stroke:#181818;stroke-width:0.3499999999999999;"/><path d="M229.95,4.2 L229.95,11.2 L236.95,11.2 L229.95,4.2 " fill="#FEFFDD" style="stroke:#181818;stroke-width:0.3499999999999999;"/><text fill="#000000" font-family="sans-serif" font-size="9.1" lengthAdjust="spacing" textLength="133.7" x="24.85" y="16.1424">"data" usually contains a 1D array.</text><text fill="#000000" font-family="sans-serif" font-size="9.1" lengthAdjust="spacing" textLength="2.1" x="24.85" y="26.8064">&#160;</text><text fill="#000000" font-family="sans-serif" font-size="9.1" lengthAdjust="spacing" textLength="196" x="24.85" y="37.4705">For individual detector values see derived classes</text><text fill="#000000" font-family="sans-serif" font-size="9.1" lengthAdjust="spacing" textLength="189" x="24.85" y="48.1346">AverageDetectorData and IntervalDetectorData.</text><text fill="#000000" font-family="sans-serif" font-size="9.1" lengthAdjust="spacing" textLength="2.1" x="24.85" y="58.7986">&#160;</text><text fill="#000000" font-family="sans-serif" font-size="9.1" lengthAdjust="spacing" textLength="201.6" x="24.85" y="69.4627">ArrayDetectorData and ExternalData are somewhat</text><text fill="#000000" font-family="sans-serif" font-size="9.1" lengthAdjust="spacing" textLength="189.7" x="24.85" y="80.1268">special as they contain either 2D data or a list of</text><text fill="#000000" font-family="sans-serif" font-size="9.1" lengthAdjust="spacing" textLength="168" x="24.85" y="90.7908">data objects (in case of images and alike).</text><!--class Metadata--><g id="elem_Metadata"><rect codeLine="18" fill="#F1F1F1" height="33.6" id="Metadata" rx="1.75" ry="1.75" style="stroke:#181818;stroke-width:0.3499999999999999;" width="65.1" x="110.95" y="151.2"/><ellipse cx="121.45" cy="162.4" fill="#ADD1B2" rx="7.7" ry="7.7" style="stroke:#181818;stroke-width:0.6999999999999998;"/><path d="M121.4828,166.7422 C122.5328,166.7422 123.3969,166.3484 124.0312,165.6047 L123.0687,164.5437 C122.6859,164.9594 122.2266,165.2328 121.6687,165.2328 C120.4984,165.2328 119.6891,164.3031 119.6891,162.7062 C119.6891,161.1531 120.4984,160.2125 121.5922,160.2125 C122.1609,160.2125 122.5766,160.4312 122.9484,160.7703 L123.9109,159.6875 C123.3859,159.1734 122.5766,158.7031 121.5922,158.7031 C119.525,158.7031 117.8953,160.2016 117.8953,162.7719 C117.8953,165.375 119.5578,166.7422 121.4828,166.7422 Z " fill="#000000"/><text fill="#000000" font-family="sans-serif" font-size="9.8" lengthAdjust="spacing" textLength="42.7" x="131.25" y="165.7496">Metadata</text><line style="stroke:#181818;stroke-width:0.3499999999999999;" x1="111.65" x2="175.35" y1="173.6" y2="173.6"/><line style="stroke:#181818;stroke-width:0.3499999999999999;" x1="111.65" x2="175.35" y1="179.2" y2="179.2"/></g><g id="elem_GMN6"><path d="M65.45,240.8 L65.45,269.1281 A0,0 0 0 0 65.45,269.1281 L151.55,269.1281 A0,0 0 0 0 151.55,269.1281 L151.55,247.8 L144.55,240.8 L116.788,240.8 L136.836,184.961 L111.188,240.8 L65.45,240.8 A0,0 0 0 0 65.45,240.8 " fill="#FEFFDD" style="stroke:#181818;stroke-width:0.3499999999999999;"/><path d="M144.55,240.8 L144.55,247.8 L151.55,247.8 L144.55,240.8 " fill="#FEFFDD" style="stroke:#181818;stroke-width:0.3499999999999999;"/><text fill="#000000" font-family="sans-serif" font-size="9.1" lengthAdjust="spacing" textLength="63" x="69.65" y="252.7424">See diagram for</text><text fill="#000000" font-family="sans-serif" font-size="9.1" lengthAdjust="spacing" textLength="71.4" x="69.65" y="263.4064">metadata module.</text></g><!--class MeasureData--><g id="elem_MeasureData"><rect codeLine="22" fill="#F1F1F1" height="45.0844" id="MeasureData" rx="1.75" ry="1.75" style="stroke:#181818;stroke-width:0.3499999999999999;" width="151.2" x="235.9" y="145.6"/><ellipse cx="279.125" cy="156.8" fill="#ADD1B2" rx="7.7" ry="7.7" style="stroke:#181818;stroke-width:0.6999999999999998;"/><path d="M279.1578,161.1422 C280.2078,161.1422 281.0719,160.7484 281.7062,160.0047 L280.7437,158.9437 C280.3609,159.3594 279.9016,159.6328 279.3437,159.6328 C278.1734,159.6328 277.3641,158.7031 277.3641,157.1062 C277.3641,155.5531 278.1734,154.6125 279.2672,154.6125 C279.8359,154.6125 280.2516,154.8312 280.6234,155.1703 L281.5859,154.0875 C281.0609,153.5734 280.2516,153.1031 279.2672,153.1031 C277.2,153.1031 275.5703,154.6016 275.5703,157.1719 C275.5703,159.775 277.2328,161.1422 279.1578,161.1422 Z " fill="#000000"/><text fill="#000000" font-family="sans-serif" font-size="9.8" lengthAdjust="spacing" textLength="58.8" x="293.475" y="160.1496">MeasureData</text><line style="stroke:#181818;stroke-width:0.3499999999999999;" x1="236.6" x2="386.4" y1="168" y2="168"/><text fill="#000000" font-family="sans-serif" font-size="9.8" lengthAdjust="spacing" textLength="142.8" x="240.1" y="179.8918">positions : np.ndarray(dtype=int)</text><line style="stroke:#181818;stroke-width:0.3499999999999999;" x1="236.6" x2="386.4" y1="185.0844" y2="185.0844"/></g><!--class MonitorData--><g id="elem_MonitorData"><rect codeLine="26" fill="#F1F1F1" height="45.0844" id="MonitorData" rx="1.75" ry="1.75" style="stroke:#181818;stroke-width:0.3499999999999999;" width="164.5" x="411.95" y="145.6"/><ellipse cx="463.575" cy="156.8" fill="#ADD1B2" rx="7.7" ry="7.7" style="stroke:#181818;stroke-width:0.6999999999999998;"/><path d="M463.6078,161.1422 C464.6578,161.1422 465.5219,160.7484 466.1562,160.0047 L465.1937,158.9437 C464.8109,159.3594 464.3516,159.6328 463.7937,159.6328 C462.6234,159.6328 461.8141,158.7031 461.8141,157.1062 C461.8141,155.5531 462.6234,154.6125 463.7172,154.6125 C464.2859,154.6125 464.7016,154.8312 465.0734,155.1703 L466.0359,154.0875 C465.5109,153.5734 464.7016,153.1031 463.7172,153.1031 C461.65,153.1031 460.0203,154.6016 460.0203,157.1719 C460.0203,159.775 461.6828,161.1422 463.6078,161.1422 Z " fill="#000000"/><text fill="#000000" font-family="sans-serif" font-size="9.8" lengthAdjust="spacing" textLength="55.3" x="477.925" y="160.1496">MonitorData</text><line style="stroke:#181818;stroke-width:0.3499999999999999;" x1="412.65" x2="575.75" y1="168" y2="168"/><text fill="#000000" font-family="sans-serif" font-size="9.8" lengthAdjust="spacing" textLength="156.1" x="416.15" y="179.8918">milliseconds : np.ndarray(dtype=int)</text><line style="stroke:#181818;stroke-width:0.3499999999999999;" x1="412.65" x2="575.75" y1="185.0844" y2="185.0844"/></g><!--class MotorData--><g id="elem_MotorData"><rect codeLine="30" fill="#F1F1F1" height="33.6" id="MotorData" rx="1.75" ry="1.75" style="stroke:#181818;stroke-width:0.3499999999999999;" width="70" x="176.4" y="238"/><ellipse cx="186.9" cy="249.2" fill="#ADD1B2" rx="7.7" ry="7.7" style="stroke:#181818;stroke-width:0.6999999999999998;"/><path d="M186.9328,253.5422 C187.9828,253.5422 188.8469,253.1484 189.4812,252.4047 L188.5187,251.3437 C188.1359,251.7594 187.6766,252.0328 187.1187,252.0328 C185.9484,252.0328 185.1391,251.1031 185.1391,249.5062 C185.1391,247.9531 185.9484,247.0125 187.0422,247.0125 C187.6109,247.0125 188.0266,247.2312 188.3984,247.5703 L189.3609,246.4875 C188.8359,245.9734 188.0266,245.5031 187.0422,245.5031 C184.975,245.5031 183.3453,247.0016 183.3453,249.5719 C183.3453,252.175 185.0078,253.5422 186.9328,253.5422 Z " fill="#000000"/><text fill="#000000" font-family="sans-serif" font-size="9.8" lengthAdjust="spacing" textLength="47.6" x="196.7" y="252.5496">MotorData</text><line style="stroke:#181818;stroke-width:0.3499999999999999;" x1="177.1" x2="245.7" y1="260.4" y2="260.4"/><line style="stroke:#181818;stroke-width:0.3499999999999999;" x1="177.1" x2="245.7" y1="266" y2="266"/></g><!--class DetectorData--><g id="elem_DetectorData"><rect codeLine="33" fill="#F1F1F1" height="33.6" id="DetectorData" rx="1.75" ry="1.75" style="stroke:#181818;stroke-width:0.3499999999999999;" width="80.5" x="271.25" y="238"/><ellipse cx="281.75" cy="249.2" fill="#ADD1B2" rx="7.7" ry="7.7" style="stroke:#181818;stroke-width:0.6999999999999998;"/><path d="M281.7828,253.5422 C282.8328,253.5422 283.6969,253.1484 284.3312,252.4047 L283.3687,251.3437 C282.9859,251.7594 282.5266,252.0328 281.9687,252.0328 C280.7984,252.0328 279.9891,251.1031 279.9891,249.5062 C279.9891,247.9531 280.7984,247.0125 281.8922,247.0125 C282.4609,247.0125 282.8766,247.2312 283.2484,247.5703 L284.2109,246.4875 C283.6859,245.9734 282.8766,245.5031 281.8922,245.5031 C279.825,245.5031 278.1953,247.0016 278.1953,249.5719 C278.1953,252.175 279.8578,253.5422 281.7828,253.5422 Z " fill="#000000"/><text fill="#000000" font-family="sans-serif" font-size="9.8" lengthAdjust="spacing" textLength="58.1" x="291.55" y="252.5496">DetectorData</text><line style="stroke:#181818;stroke-width:0.3499999999999999;" x1="271.95" x2="351.05" y1="260.4" y2="260.4"/><line style="stroke:#181818;stroke-width:0.3499999999999999;" x1="271.95" x2="351.05" y1="266" y2="266"/></g><!--class ExternalData--><g id="elem_ExternalData"><rect codeLine="36" fill="#F1F1F1" height="45.0844" id="ExternalData" rx="1.75" ry="1.75" style="stroke:#181818;stroke-width:0.3499999999999999;" width="79.1" x="376.25" y="232.4"/><ellipse cx="386.75" cy="243.6" fill="#ADD1B2" rx="7.7" ry="7.7" style="stroke:#181818;stroke-width:0.6999999999999998;"/><path d="M386.7828,247.9422 C387.8328,247.9422 388.6969,247.5484 389.3312,246.8047 L388.3687,245.7437 C387.9859,246.1594 387.5266,246.4328 386.9687,246.4328 C385.7984,246.4328 384.9891,245.5031 384.9891,243.9062 C384.9891,242.3531 385.7984,241.4125 386.8922,241.4125 C387.4609,241.4125 387.8766,241.6312 388.2484,241.9703 L389.2109,240.8875 C388.6859,240.3734 387.8766,239.9031 386.8922,239.9031 C384.825,239.9031 383.1953,241.4016 383.1953,243.9719 C383.1953,246.575 384.8578,247.9422 386.7828,247.9422 Z " fill="#000000"/><text fill="#000000" font-family="sans-serif" font-size="9.8" lengthAdjust="spacing" textLength="56.7" x="396.55" y="246.9496">ExternalData</text><line style="stroke:#181818;stroke-width:0.3499999999999999;" x1="376.95" x2="454.65" y1="254.8" y2="254.8"/><text fill="#000000" font-family="sans-serif" font-size="9.8" lengthAdjust="spacing" textLength="58.8" x="380.45" y="266.6918">data : object[]</text><line style="stroke:#181818;stroke-width:0.3499999999999999;" x1="376.95" x2="454.65" y1="271.8844" y2="271.8844"/></g><!--class TimestampData--><g id="elem_TimestampData"><rect codeLine="40" fill="#F1F1F1" height="33.6" id="TimestampData" rx="1.75" ry="1.75" style="stroke:#181818;stroke-width:0.3499999999999999;" width="92.4" x="480.2" y="238"/><ellipse cx="490.7" cy="249.2" fill="#ADD1B2" rx="7.7" ry="7.7" style="stroke:#181818;stroke-width:0.6999999999999998;"/><path d="M490.7328,253.5422 C491.7828,253.5422 492.6469,253.1484 493.2812,252.4047 L492.3187,251.3437 C491.9359,251.7594 491.4766,252.0328 490.9187,252.0328 C489.7484,252.0328 488.9391,251.1031 488.9391,249.5062 C488.9391,247.9531 489.7484,247.0125 490.8422,247.0125 C491.4109,247.0125 491.8266,247.2312 492.1984,247.5703 L493.1609,246.4875 C492.6359,245.9734 491.8266,245.5031 490.8422,245.5031 C488.775,245.5031 487.1453,247.0016 487.1453,249.5719 C487.1453,252.175 488.8078,253.5422 490.7328,253.5422 Z " fill="#000000"/><text fill="#000000" font-family="sans-serif" font-size="9.8" lengthAdjust="spacing" textLength="70" x="500.5" y="252.5496">TimestampData</text><line style="stroke:#181818;stroke-width:0.3499999999999999;" x1="480.9" x2="571.9" y1="260.4" y2="260.4"/><line style="stroke:#181818;stroke-width:0.3499999999999999;" x1="480.9" x2="571.9" y1="266" y2="266"/></g><!--class AverageDetectorData--><g id="elem_AverageDetectorData"><rect codeLine="43" fill="#F1F1F1" height="113.9906" id="AverageDetectorData" rx="1.75" ry="1.75" style="stroke:#181818;stroke-width:0.3499999999999999;" width="161" x="55.3" y="319.2"/><ellipse cx="85.96" cy="330.4" fill="#ADD1B2" rx="7.7" ry="7.7" style="stroke:#181818;stroke-width:0.6999999999999998;"/><path d="M85.9928,334.7422 C87.0428,334.7422 87.9069,334.3484 88.5412,333.6047 L87.5787,332.5437 C87.1959,332.9594 86.7366,333.2328 86.1787,333.2328 C85.0084,333.2328 84.1991,332.3031 84.1991,330.7062 C84.1991,329.1531 85.0084,328.2125 86.1022,328.2125 C86.6709,328.2125 87.0866,328.4312 87.4584,328.7703 L88.4209,327.6875 C87.8959,327.1734 87.0866,326.7031 86.1022,326.7031 C84.035,326.7031 82.4053,328.2016 82.4053,330.7719 C82.4053,333.375 84.0678,334.7422 85.9928,334.7422 Z " fill="#000000"/><text fill="#000000" font-family="sans-serif" font-size="9.8" lengthAdjust="spacing" textLength="93.8" x="100.24" y="333.7496">AverageDetectorData</text><line style="stroke:#181818;stroke-width:0.3499999999999999;" x1="56" x2="215.6" y1="341.6" y2="341.6"/><text fill="#000000" font-family="sans-serif" font-size="9.8" lengthAdjust="spacing" textLength="109.2" x="59.5" y="353.4918">raw_values : raggedarray</text><text fill="#000000" font-family="sans-serif" font-size="9.8" lengthAdjust="spacing" textLength="142.8" x="59.5" y="364.9762">attempts : np.ndarray(dtype=int)</text><text fill="#000000" font-family="sans-serif" font-size="9.8" lengthAdjust="spacing" textLength="152.6" x="59.5" y="376.4605">n_averages : np.ndarray(dtype=int)</text><line style="stroke:#181818;stroke-width:0.3499999999999999;" x1="56" x2="215.6" y1="381.6531" y2="381.6531"/><text fill="#000000" font-family="sans-serif" font-size="9.8" lengthAdjust="spacing" textLength="31.5" x="59.5" y="393.5449">mean()</text><text fill="#000000" font-family="sans-serif" font-size="9.8" lengthAdjust="spacing" textLength="21" x="59.5" y="405.0293">std()</text><text fill="#000000" font-family="sans-serif" font-size="9.8" lengthAdjust="spacing" textLength="79.8" x="59.5" y="416.5137">averaged_values()</text><text fill="#000000" font-family="sans-serif" font-size="9.8" lengthAdjust="spacing" textLength="76.3" x="59.5" y="427.998">has_raw_values()</text></g><g id="elem_GMN16"><path d="M4.2,475.3 L4.2,503.6281 A0,0 0 0 0 4.2,503.6281 L113.4,503.6281 A0,0 0 0 0 113.4,503.6281 L113.4,482.3 L106.4,475.3 L70.91,475.3 L96.852,433.426 L65.31,475.3 L4.2,475.3 A0,0 0 0 0 4.2,475.3 " fill="#FEFFDD" style="stroke:#181818;stroke-width:0.3499999999999999;"/><path d="M106.4,475.3 L106.4,482.3 L113.4,482.3 L106.4,475.3 " fill="#FEFFDD" style="stroke:#181818;stroke-width:0.3499999999999999;"/><text fill="#000000" font-family="sans-serif" font-size="9.1" lengthAdjust="spacing" textLength="94.5" x="8.4" y="487.2424">How does mean() differ</text><text fill="#000000" font-family="sans-serif" font-size="9.1" lengthAdjust="spacing" textLength="81.2" x="8.4" y="497.9064">from values in Data?</text></g><g id="elem_GMN19"><path d="M138.25,475.3 L138.25,503.6281 A0,0 0 0 0 138.25,503.6281 L287.35,503.6281 A0,0 0 0 0 287.35,503.6281 L287.35,482.3 L280.35,475.3 L206.29,475.3 L174.748,433.426 L200.69,475.3 L138.25,475.3 A0,0 0 0 0 138.25,475.3 " fill="#FEFFDD" style="stroke:#181818;stroke-width:0.3499999999999999;"/><path d="M280.35,475.3 L280.35,482.3 L287.35,482.3 L280.35,475.3 " fill="#FEFFDD" style="stroke:#181818;stroke-width:0.3499999999999999;"/><text fill="#000000" font-family="sans-serif" font-size="9.1" lengthAdjust="spacing" textLength="121.1" x="142.45" y="487.2424">averaged_values() returns only</text><text fill="#000000" font-family="sans-serif" font-size="9.1" lengthAdjust="spacing" textLength="134.4" x="142.45" y="497.9064">those values used to average over</text></g><!--class IntervalDetectorData--><g id="elem_IntervalDetectorData"><rect codeLine="55" fill="#F1F1F1" height="91.0219" id="IntervalDetectorData" rx="1.75" ry="1.75" style="stroke:#181818;stroke-width:0.3499999999999999;" width="141.4" x="240.8" y="330.75"/><ellipse cx="263.9" cy="341.95" fill="#ADD1B2" rx="7.7" ry="7.7" style="stroke:#181818;stroke-width:0.6999999999999998;"/><path d="M263.9328,346.2922 C264.9828,346.2922 265.8469,345.8984 266.4812,345.1547 L265.5187,344.0937 C265.1359,344.5094 264.6766,344.7828 264.1187,344.7828 C262.9484,344.7828 262.1391,343.8531 262.1391,342.2562 C262.1391,340.7031 262.9484,339.7625 264.0422,339.7625 C264.6109,339.7625 265.0266,339.9812 265.3984,340.3203 L266.3609,339.2375 C265.8359,338.7234 265.0266,338.2531 264.0422,338.2531 C261.975,338.2531 260.3453,339.7516 260.3453,342.3219 C260.3453,344.925 262.0078,346.2922 263.9328,346.2922 Z " fill="#000000"/><text fill="#000000" font-family="sans-serif" font-size="9.8" lengthAdjust="spacing" textLength="91" x="276.5" y="345.2996">IntervalDetectorData</text><line style="stroke:#181818;stroke-width:0.3499999999999999;" x1="241.5" x2="381.5" y1="353.15" y2="353.15"/><text fill="#000000" font-family="sans-serif" font-size="9.8" lengthAdjust="spacing" textLength="109.2" x="245" y="365.0418">raw_values : raggedarray</text><text fill="#000000" font-family="sans-serif" font-size="9.8" lengthAdjust="spacing" textLength="133" x="245" y="376.5262">counts : np.ndarray(dtype=int)</text><line style="stroke:#181818;stroke-width:0.3499999999999999;" x1="241.5" x2="381.5" y1="381.7187" y2="381.7187"/><text fill="#000000" font-family="sans-serif" font-size="9.8" lengthAdjust="spacing" textLength="31.5" x="245" y="393.6105">mean()</text><text fill="#000000" font-family="sans-serif" font-size="9.8" lengthAdjust="spacing" textLength="21" x="245" y="405.0949">std()</text><text fill="#000000" font-family="sans-serif" font-size="9.8" lengthAdjust="spacing" textLength="76.3" x="245" y="416.5793">has_raw_values()</text></g><!--class ArrayDetectorData--><g id="elem_ArrayDetectorData"><rect codeLine="63" fill="#F1F1F1" height="33.6" id="ArrayDetectorData" rx="1.75" ry="1.75" style="stroke:#181818;stroke-width:0.3499999999999999;" width="104.3" x="407.05" y="359.45"/><ellipse cx="417.55" cy="370.65" fill="#ADD1B2" rx="7.7" ry="7.7" style="stroke:#181818;stroke-width:0.6999999999999998;"/><path d="M417.5828,374.9922 C418.6328,374.9922 419.4969,374.5984 420.1312,373.8547 L419.1687,372.7937 C418.7859,373.2094 418.3266,373.4828 417.7687,373.4828 C416.5984,373.4828 415.7891,372.5531 415.7891,370.9562 C415.7891,369.4031 416.5984,368.4625 417.6922,368.4625 C418.2609,368.4625 418.6766,368.6812 419.0484,369.0203 L420.0109,367.9375 C419.4859,367.4234 418.6766,366.9531 417.6922,366.9531 C415.625,366.9531 413.9953,368.4516 413.9953,371.0219 C413.9953,373.625 415.6578,374.9922 417.5828,374.9922 Z " fill="#000000"/><text fill="#000000" font-family="sans-serif" font-size="9.8" lengthAdjust="spacing" textLength="81.9" x="427.35" y="373.9996">ArrayDetectorData</text><line style="stroke:#181818;stroke-width:0.3499999999999999;" x1="407.75" x2="510.65" y1="381.85" y2="381.85"/><line style="stroke:#181818;stroke-width:0.3499999999999999;" x1="407.75" x2="510.65" y1="387.45" y2="387.45"/></g><!--reverse link Data to Metadata--><g id="link_Data_Metadata"><path codeLine="66" d="M271.1945,87.5276 C262.0805,94.6816 258.713,97.034 249.2,103.6 C224.077,120.953 194.173,138.719 172.592,151.067 " fill="none" id="Data-backto-Metadata" style="stroke:#181818;stroke-width:0.6999999999999998;"/><polygon fill="#181818" points="277.802,82.341,272.7694,82.7318,271.1945,87.5276,276.2271,87.1368,277.802,82.341" style="stroke:#181818;stroke-width:0.6999999999999998;"/></g><!--reverse link Data to MeasureData--><g id="link_Data_MeasureData"><path codeLine="67" d="M311.5,95.06 C311.5,114.548 311.5,127.61 311.5,145.586 " fill="none" id="Data-backto-MeasureData" style="stroke:#181818;stroke-width:0.6999999999999998;"/><polygon fill="none" points="311.5,82.46,307.3,95.06,315.7,95.06,311.5,82.46" style="stroke:#181818;stroke-width:0.6999999999999998;"/></g><!--reverse link Data to MonitorData--><g id="link_Data_MonitorData"><path codeLine="68" d="M367.1497,88.9283 C398.7407,108.4163 429.695,127.512 458.906,145.53 " fill="none" id="Data-backto-MonitorData" style="stroke:#181818;stroke-width:0.6999999999999998;"/><polygon fill="none" points="356.426,82.313,364.9446,92.5029,369.3548,85.3537,356.426,82.313" style="stroke:#181818;stroke-width:0.6999999999999998;"/></g><!--reverse link MeasureData to MotorData--><g id="link_MeasureData_MotorData"><path codeLine="69" d="M276.3997,198.6482 C259.1377,213.3762 246.288,224.336 230.552,237.762 " fill="none" id="MeasureData-backto-MotorData" style="stroke:#181818;stroke-width:0.6999999999999998;"/><polygon fill="none" points="285.985,190.47,273.6737,195.4531,279.1258,201.8433,285.985,190.47" style="stroke:#181818;stroke-width:0.6999999999999998;"/></g><!--reverse link MeasureData to DetectorData--><g id="link_MeasureData_DetectorData"><path codeLine="70" d="M311.5,203.07 C311.5,217.798 311.5,224.336 311.5,237.762 " fill="none" id="MeasureData-backto-DetectorData" style="stroke:#181818;stroke-width:0.6999999999999998;"/><polygon fill="none" points="311.5,190.47,307.3,203.07,315.7,203.07,311.5,190.47" style="stroke:#181818;stroke-width:0.6999999999999998;"/></g><!--reverse link MeasureData to ExternalData--><g id="link_MeasureData_ExternalData"><path codeLine="71" d="M347.8344,198.4531 C363.5284,211.3051 373.576,219.527 389.256,232.372 " fill="none" id="MeasureData-backto-ExternalData" style="stroke:#181818;stroke-width:0.6999999999999998;"/><polygon fill="none" points="338.086,190.47,345.1734,201.7025,350.4954,195.2036,338.086,190.47" style="stroke:#181818;stroke-width:0.6999999999999998;"/></g><!--reverse link MeasureData to TimestampData--><g id="link_MeasureData_TimestampData"><path codeLine="72" d="M377.9913,195.1233 C415.1753,209.9003 451.829,224.462 485.625,237.895 " fill="none" id="MeasureData-backto-TimestampData" style="stroke:#181818;stroke-width:0.6999999999999998;"/><polygon fill="none" points="366.282,190.47,376.4402,199.0264,379.5424,191.2202,366.282,190.47" style="stroke:#181818;stroke-width:0.6999999999999998;"/></g><!--reverse link DetectorData to AverageDetectorData--><g id="link_DetectorData_AverageDetectorData"><path codeLine="73" d="M277.4018,278.7997 C258.9008,291.4417 242.459,302.673 216.461,320.439 " fill="none" id="DetectorData-backto-AverageDetectorData" style="stroke:#181818;stroke-width:0.6999999999999998;"/><polygon fill="none" points="287.805,271.691,275.0322,275.3319,279.7713,282.2674,287.805,271.691" style="stroke:#181818;stroke-width:0.6999999999999998;"/></g><!--reverse link DetectorData to IntervalDetectorData--><g id="link_DetectorData_IntervalDetectorData"><path codeLine="74" d="M311.5,284.291 C311.5,299.397 311.5,310.044 311.5,330.715 " fill="none" id="DetectorData-backto-IntervalDetectorData" style="stroke:#181818;stroke-width:0.6999999999999998;"/><polygon fill="none" points="311.5,271.691,307.3,284.291,315.7,284.291,311.5,271.691" style="stroke:#181818;stroke-width:0.6999999999999998;"/></g><!--reverse link DetectorData to ArrayDetectorData--><g id="link_DetectorData_ArrayDetectorData"><path codeLine="75" d="M343.4854,279.1426 C360.4604,291.7916 374.374,302.484 394.8,319.2 C410.893,332.374 428.645,347.991 441.427,359.436 " fill="none" id="DetectorData-backto-ArrayDetectorData" style="stroke:#181818;stroke-width:0.6999999999999998;"/><polygon fill="none" points="333.382,271.614,340.9759,282.5104,345.995,275.7748,333.382,271.614" style="stroke:#181818;stroke-width:0.6999999999999998;"/></g><!--SRC=[dLHDZzCm4BtdLupsGekq5Ol4fG8Xf8BWm0bkB5hDnfFMR6n7zgIbAllVcJXEuxPP1FJIyNpFcpTv5XwqRT2Z0TLek7dreYZA6aE05JB2eG3v6M9KtNC9dvCOzKbdcuLLw3tkYyV2EYQegM9mLSonN1xzhphf2jhGObtleNIMKTi023ShY0aMHNJyu3neg_HMAt45HKmbYswBTKi10f7elDwIWjWiXHZsRaiUrxHAxd42j0e-MIOliRbX4IFwiAxoHT3xdn9a9IWgF45mXdORv1WJ6Ygrj8O1U4F7MO2qF3syNFNWICy8jGuT6YDaxlw7r0emau0I0tLGQIETXrWPQ_r0yqL18dTm3XiPi9Uj99pl7RCpI_ZI0Q9ntQsnSlxM7ZTcd6fhMemfCBIUijqUAasrUeJ61StQoJRoXSuKxnjweotFfUQGn5az87MQnEXQXYK1G_rLdZ7BKNcoXqn_iev3JhyUpM_VHz-lsb1WDCrvaYc2zBayxkuIkvRoMAyfCJeV3vd9DFpqQBcplSE-sf_T3Q6TzM9WbQGKgL9BIRl1S3VsEPkVi-2Zsu5oKg_FAOoeAX8oLDwPuNI4STtKR_F8ZduJo2mlsm1Ft7hXYBFr_jRonWbvK-Oso3Mo6uB0oV-0-zG1_WlmfMij_mUE4uWDJBYu-KYJA3s_lXw_Sr7p-bTK7Mydrux7KEJNbOnFclBQbzQSxPVM4tuN9rD4-yGo9xocbZALx1ofuZS0]--></g></svg>