<?xml version="1.0" encoding="us-ascii" standalone="no"?><svg xmlns="http://www.w3.org/2000/svg" xmlns:xlink="http://www.w3.org/1999/xlink" contentStyleType="text/css" height="614px" preserveAspectRatio="none" style="width:1038px;height:614px;background:#FFFFFF;" version="1.1" viewBox="0 0 1038 614" width="1038px" zoomAndPan="magnify"><defs/><g><!--class Metadata--><g id="elem_Metadata"><rect codeLine="2" fill="#F1F1F1" height="96.8906" id="Metadata" rx="2.5" ry="2.5" style="stroke:#181818;stroke-width:0.5;" width="223" x="338.5" y="7"/><ellipse cx="412.25" cy="23" fill="#ADD1B2" rx="11" ry="11" style="stroke:#181818;stroke-width:1.0;"/><path d="M415.2344,28.6406 Q414.6563,28.9375 414.0156,29.0781 Q413.375,29.2344 412.6719,29.2344 Q410.1563,29.2344 408.8281,27.5938 Q407.5156,25.9375 407.5156,22.8125 Q407.5156,19.6719 408.8281,18.0313 Q410.1563,16.375 412.6719,16.375 Q413.375,16.375 414.0156,16.5313 Q414.6719,16.6719 415.2344,16.9688 L415.2344,19.6875 Q414.5938,19.1094 414,18.8438 Q413.4063,18.5781 412.7813,18.5781 Q411.4375,18.5781 410.75,19.6406 Q410.0625,20.7031 410.0625,22.8125 Q410.0625,24.9063 410.75,25.9844 Q411.4375,27.0469 412.7813,27.0469 Q413.4063,27.0469 414,26.7813 Q414.5938,26.5 415.2344,25.9219 L415.2344,28.6406 Z " fill="#000000"/><text fill="#000000" font-family="sans-serif" font-size="14" lengthAdjust="spacing" textLength="67" x="432.75" y="27.8467">Metadata</text><line style="stroke:#181818;stroke-width:0.5;" x1="339.5" x2="560.5" y1="39" y2="39"/><text fill="#000000" font-family="sans-serif" font-size="14" lengthAdjust="spacing" textLength="211" x="344.5" y="55.9951">measurement : Measurement</text><text fill="#000000" font-family="sans-serif" font-size="14" lengthAdjust="spacing" textLength="60" x="344.5" y="72.292">file : File</text><text fill="#000000" font-family="sans-serif" font-size="14" lengthAdjust="spacing" textLength="134" x="344.5" y="88.5889">devices : Device{}</text><line style="stroke:#181818;stroke-width:0.5;" x1="339.5" x2="560.5" y1="95.8906" y2="95.8906"/></g><!--class Dataset--><g id="elem_Dataset"><rect codeLine="8" fill="#F1F1F1" height="48" id="Dataset" rx="2.5" ry="2.5" style="stroke:#181818;stroke-width:0.5;" width="87" x="44.5" y="213"/><ellipse cx="59.5" cy="229" fill="#ADD1B2" rx="11" ry="11" style="stroke:#181818;stroke-width:1.0;"/><path d="M62.4844,234.6406 Q61.9063,234.9375 61.2656,235.0781 Q60.625,235.2344 59.9219,235.2344 Q57.4063,235.2344 56.0781,233.5938 Q54.7656,231.9375 54.7656,228.8125 Q54.7656,225.6719 56.0781,224.0313 Q57.4063,222.375 59.9219,222.375 Q60.625,222.375 61.2656,222.5313 Q61.9219,222.6719 62.4844,222.9688 L62.4844,225.6875 Q61.8438,225.1094 61.25,224.8438 Q60.6563,224.5781 60.0313,224.5781 Q58.6875,224.5781 58,225.6406 Q57.3125,226.7031 57.3125,228.8125 Q57.3125,230.9063 58,231.9844 Q58.6875,233.0469 60.0313,233.0469 Q60.6563,233.0469 61.25,232.7813 Q61.8438,232.5 62.4844,231.9219 L62.4844,234.6406 Z " fill="#000000"/><text fill="#000000" font-family="sans-serif" font-size="14" lengthAdjust="spacing" textLength="55" x="73.5" y="233.8467">Dataset</text><line style="stroke:#181818;stroke-width:0.5;" x1="45.5" x2="130.5" y1="245" y2="245"/><line style="stroke:#181818;stroke-width:0.5;" x1="45.5" x2="130.5" y1="253" y2="253"/></g><g id="elem_GMN4"><path d="M6,382 L6,422.2656 A0,0 0 0 0 6,422.2656 L170,422.2656 A0,0 0 0 0 170,422.2656 L170,392 L160,382 L92,382 L88,261.01 L84,382 L6,382 A0,0 0 0 0 6,382 " fill="#FEFFDD" style="stroke:#181818;stroke-width:0.5;"/><path d="M160,382 L160,392 L170,392 L160,382 " fill="#FEFFDD" style="stroke:#181818;stroke-width:0.5;"/><text fill="#000000" font-family="sans-serif" font-size="13" lengthAdjust="spacing" textLength="143" x="12" y="399.0669">See separate diagram</text><text fill="#000000" font-family="sans-serif" font-size="13" lengthAdjust="spacing" textLength="120" x="12" y="414.1997">for class hierarchy</text></g><!--class Measurement--><g id="elem_Measurement"><rect codeLine="11" fill="#F1F1F1" height="145.7813" id="Measurement" rx="2.5" ry="2.5" style="stroke:#181818;stroke-width:0.5;" width="304" x="167" y="164"/><ellipse cx="265.75" cy="180" fill="#ADD1B2" rx="11" ry="11" style="stroke:#181818;stroke-width:1.0;"/><path d="M268.7344,185.6406 Q268.1563,185.9375 267.5156,186.0781 Q266.875,186.2344 266.1719,186.2344 Q263.6563,186.2344 262.3281,184.5938 Q261.0156,182.9375 261.0156,179.8125 Q261.0156,176.6719 262.3281,175.0313 Q263.6563,173.375 266.1719,173.375 Q266.875,173.375 267.5156,173.5313 Q268.1719,173.6719 268.7344,173.9688 L268.7344,176.6875 Q268.0938,176.1094 267.5,175.8438 Q266.9063,175.5781 266.2813,175.5781 Q264.9375,175.5781 264.25,176.6406 Q263.5625,177.7031 263.5625,179.8125 Q263.5625,181.9063 264.25,182.9844 Q264.9375,184.0469 266.2813,184.0469 Q266.9063,184.0469 267.5,183.7813 Q268.0938,183.5 268.7344,182.9219 L268.7344,185.6406 Z " fill="#000000"/><text fill="#000000" font-family="sans-serif" font-size="14" lengthAdjust="spacing" textLength="98" x="286.25" y="184.8467">Measurement</text><line style="stroke:#181818;stroke-width:0.5;" x1="168" x2="470" y1="196" y2="196"/><text fill="#000000" font-family="sans-serif" font-size="14" lengthAdjust="spacing" textLength="115" x="173" y="212.9951">start : DateTime</text><text fill="#000000" font-family="sans-serif" font-size="14" lengthAdjust="spacing" textLength="110" x="173" y="229.292">end : DateTime</text><text fill="#000000" font-family="sans-serif" font-size="14" lengthAdjust="spacing" textLength="112" x="173" y="245.5889">location : String</text><text fill="#000000" font-family="sans-serif" font-size="14" lengthAdjust="spacing" textLength="158" x="173" y="261.8857">preferred_axis : String</text><text fill="#000000" font-family="sans-serif" font-size="14" lengthAdjust="spacing" textLength="187" x="173" y="278.1826">preferred_channel : String</text><text fill="#000000" font-family="sans-serif" font-size="14" lengthAdjust="spacing" textLength="292" x="173" y="294.4795">preferred_normalisation_channel : String</text><line style="stroke:#181818;stroke-width:0.5;" x1="168" x2="470" y1="301.7813" y2="301.7813"/></g><!--class File--><g id="elem_File"><rect codeLine="20" fill="#F1F1F1" height="113.1875" id="File" rx="2.5" ry="2.5" style="stroke:#181818;stroke-width:0.5;" width="152" x="506" y="180.5"/><ellipse cx="565.25" cy="196.5" fill="#ADD1B2" rx="11" ry="11" style="stroke:#181818;stroke-width:1.0;"/><path d="M568.2344,202.1406 Q567.6563,202.4375 567.0156,202.5781 Q566.375,202.7344 565.6719,202.7344 Q563.1563,202.7344 561.8281,201.0938 Q560.5156,199.4375 560.5156,196.3125 Q560.5156,193.1719 561.8281,191.5313 Q563.1563,189.875 565.6719,189.875 Q566.375,189.875 567.0156,190.0313 Q567.6719,190.1719 568.2344,190.4688 L568.2344,193.1875 Q567.5938,192.6094 567,192.3438 Q566.4063,192.0781 565.7813,192.0781 Q564.4375,192.0781 563.75,193.1406 Q563.0625,194.2031 563.0625,196.3125 Q563.0625,198.4063 563.75,199.4844 Q564.4375,200.5469 565.7813,200.5469 Q566.4063,200.5469 567,200.2813 Q567.5938,200 568.2344,199.4219 L568.2344,202.1406 Z " fill="#000000"/><text fill="#000000" font-family="sans-serif" font-size="14" lengthAdjust="spacing" textLength="25" x="585.75" y="201.3467">File</text><line style="stroke:#181818;stroke-width:0.5;" x1="507" x2="657" y1="212.5" y2="212.5"/><text fill="#000000" font-family="sans-serif" font-size="14" lengthAdjust="spacing" textLength="118" x="512" y="229.4951">filename : String</text><text fill="#000000" font-family="sans-serif" font-size="14" lengthAdjust="spacing" textLength="132" x="512" y="245.792">h5_version : String</text><text fill="#000000" font-family="sans-serif" font-size="14" lengthAdjust="spacing" textLength="140" x="512" y="262.0889">eve_version : String</text><text fill="#000000" font-family="sans-serif" font-size="14" lengthAdjust="spacing" textLength="136" x="512" y="278.3857">xml_version: String</text><line style="stroke:#181818;stroke-width:0.5;" x1="507" x2="657" y1="285.6875" y2="285.6875"/></g><!--class Device--><g id="elem_Device"><rect codeLine="27" fill="#F1F1F1" height="129.4844" id="Device" rx="2.5" ry="2.5" style="stroke:#181818;stroke-width:0.5;" width="170" x="693" y="172.5"/><ellipse cx="749.25" cy="188.5" fill="#ADD1B2" rx="11" ry="11" style="stroke:#181818;stroke-width:1.0;"/><path d="M752.2344,194.1406 Q751.6563,194.4375 751.0156,194.5781 Q750.375,194.7344 749.6719,194.7344 Q747.1563,194.7344 745.8281,193.0938 Q744.5156,191.4375 744.5156,188.3125 Q744.5156,185.1719 745.8281,183.5313 Q747.1563,181.875 749.6719,181.875 Q750.375,181.875 751.0156,182.0313 Q751.6719,182.1719 752.2344,182.4688 L752.2344,185.1875 Q751.5938,184.6094 751,184.3438 Q750.4063,184.0781 749.7813,184.0781 Q748.4375,184.0781 747.75,185.1406 Q747.0625,186.2031 747.0625,188.3125 Q747.0625,190.4063 747.75,191.4844 Q748.4375,192.5469 749.7813,192.5469 Q750.4063,192.5469 751,192.2813 Q751.5938,192 752.2344,191.4219 L752.2344,194.1406 Z " fill="#000000"/><text fill="#000000" font-family="sans-serif" font-size="14" lengthAdjust="spacing" textLength="49" x="769.75" y="193.3467">Device</text><line style="stroke:#181818;stroke-width:0.5;" x1="694" x2="862" y1="204.5" y2="204.5"/><text fill="#000000" font-family="sans-serif" font-size="14" lengthAdjust="spacing" textLength="68" x="699" y="221.4951">id : String</text><text fill="#000000" font-family="sans-serif" font-size="14" lengthAdjust="spacing" textLength="96" x="699" y="237.792">name : String</text><text fill="#000000" font-family="sans-serif" font-size="14" lengthAdjust="spacing" textLength="72" x="699" y="254.0889">pv : String</text><text fill="#000000" font-family="sans-serif" font-size="14" lengthAdjust="spacing" textLength="158" x="699" y="270.3857">transport_type : String</text><text fill="#000000" font-family="sans-serif" font-size="14" lengthAdjust="spacing" textLength="117" x="699" y="286.6826">section : Section</text><line style="stroke:#181818;stroke-width:0.5;" x1="694" x2="862" y1="293.9844" y2="293.9844"/></g><!--class Motor--><g id="elem_Motor"><rect codeLine="35" fill="#F1F1F1" height="48" id="Motor" rx="2.5" ry="2.5" style="stroke:#181818;stroke-width:0.5;" width="73" x="590.5" y="378"/><ellipse cx="605.5" cy="394" fill="#ADD1B2" rx="11" ry="11" style="stroke:#181818;stroke-width:1.0;"/><path d="M608.4844,399.6406 Q607.9063,399.9375 607.2656,400.0781 Q606.625,400.2344 605.9219,400.2344 Q603.4063,400.2344 602.0781,398.5938 Q600.7656,396.9375 600.7656,393.8125 Q600.7656,390.6719 602.0781,389.0313 Q603.4063,387.375 605.9219,387.375 Q606.625,387.375 607.2656,387.5313 Q607.9219,387.6719 608.4844,387.9688 L608.4844,390.6875 Q607.8438,390.1094 607.25,389.8438 Q606.6563,389.5781 606.0313,389.5781 Q604.6875,389.5781 604,390.6406 Q603.3125,391.7031 603.3125,393.8125 Q603.3125,395.9063 604,396.9844 Q604.6875,398.0469 606.0313,398.0469 Q606.6563,398.0469 607.25,397.7813 Q607.8438,397.5 608.4844,396.9219 L608.4844,399.6406 Z " fill="#000000"/><text fill="#000000" font-family="sans-serif" font-size="14" lengthAdjust="spacing" textLength="41" x="619.5" y="398.8467">Motor</text><line style="stroke:#181818;stroke-width:0.5;" x1="591.5" x2="662.5" y1="410" y2="410"/><line style="stroke:#181818;stroke-width:0.5;" x1="591.5" x2="662.5" y1="418" y2="418"/></g><!--class Detector--><g id="elem_Detector"><rect codeLine="38" fill="#F1F1F1" height="64.2969" id="Detector" rx="2.5" ry="2.5" style="stroke:#181818;stroke-width:0.5;" width="158" x="699" y="370"/><ellipse cx="742.8" cy="386" fill="#ADD1B2" rx="11" ry="11" style="stroke:#181818;stroke-width:1.0;"/><path d="M745.7844,391.6406 Q745.2063,391.9375 744.5656,392.0781 Q743.925,392.2344 743.2219,392.2344 Q740.7063,392.2344 739.3781,390.5938 Q738.0656,388.9375 738.0656,385.8125 Q738.0656,382.6719 739.3781,381.0313 Q740.7063,379.375 743.2219,379.375 Q743.925,379.375 744.5656,379.5313 Q745.2219,379.6719 745.7844,379.9688 L745.7844,382.6875 Q745.1438,382.1094 744.55,381.8438 Q743.9563,381.5781 743.3313,381.5781 Q741.9875,381.5781 741.3,382.6406 Q740.6125,383.7031 740.6125,385.8125 Q740.6125,387.9063 741.3,388.9844 Q741.9875,390.0469 743.3313,390.0469 Q743.9563,390.0469 744.55,389.7813 Q745.1438,389.5 745.7844,388.9219 L745.7844,391.6406 Z " fill="#000000"/><text fill="#000000" font-family="sans-serif" font-size="14" lengthAdjust="spacing" textLength="62" x="763.2" y="390.8467">Detector</text><line style="stroke:#181818;stroke-width:0.5;" x1="700" x2="856" y1="402" y2="402"/><text fill="#000000" font-family="sans-serif" font-size="14" lengthAdjust="spacing" textLength="146" x="705" y="418.9951">normalise_id : String</text><line style="stroke:#181818;stroke-width:0.5;" x1="700" x2="856" y1="426.2969" y2="426.2969"/></g><!--class AverageDetector--><g id="elem_AverageDetector"><rect codeLine="42" fill="#F1F1F1" height="113.1875" id="AverageDetector" rx="2.5" ry="2.5" style="stroke:#181818;stroke-width:0.5;" width="161" x="498.5" y="494"/><ellipse cx="516.65" cy="510" fill="#ADD1B2" rx="11" ry="11" style="stroke:#181818;stroke-width:1.0;"/><path d="M519.6344,515.6406 Q519.0563,515.9375 518.4156,516.0781 Q517.775,516.2344 517.0719,516.2344 Q514.5563,516.2344 513.2281,514.5938 Q511.9156,512.9375 511.9156,509.8125 Q511.9156,506.6719 513.2281,505.0313 Q514.5563,503.375 517.0719,503.375 Q517.775,503.375 518.4156,503.5313 Q519.0719,503.6719 519.6344,503.9688 L519.6344,506.6875 Q518.9938,506.1094 518.4,505.8438 Q517.8063,505.5781 517.1813,505.5781 Q515.8375,505.5781 515.15,506.6406 Q514.4625,507.7031 514.4625,509.8125 Q514.4625,511.9063 515.15,512.9844 Q515.8375,514.0469 517.1813,514.0469 Q517.8063,514.0469 518.4,513.7813 Q518.9938,513.5 519.6344,512.9219 L519.6344,515.6406 Z " fill="#000000"/><text fill="#000000" font-family="sans-serif" font-size="14" lengthAdjust="spacing" textLength="122" x="531.35" y="514.8467">AverageDetector</text><line style="stroke:#181818;stroke-width:0.5;" x1="499.5" x2="658.5" y1="526" y2="526"/><text fill="#000000" font-family="sans-serif" font-size="14" lengthAdjust="spacing" textLength="113" x="504.5" y="542.9951">n_averages : int</text><text fill="#000000" font-family="sans-serif" font-size="14" lengthAdjust="spacing" textLength="107" x="504.5" y="559.292">low_limit : float</text><text fill="#000000" font-family="sans-serif" font-size="14" lengthAdjust="spacing" textLength="132" x="504.5" y="575.5889">max_attempts : int</text><text fill="#000000" font-family="sans-serif" font-size="14" lengthAdjust="spacing" textLength="149" x="504.5" y="591.8857">max_deviation : float</text><line style="stroke:#181818;stroke-width:0.5;" x1="499.5" x2="658.5" y1="599.1875" y2="599.1875"/></g><!--class IntervalDetector--><g id="elem_IntervalDetector"><rect codeLine="49" fill="#F1F1F1" height="64.2969" id="IntervalDetector" rx="2.5" ry="2.5" style="stroke:#181818;stroke-width:0.5;" width="166" x="695" y="518.5"/><ellipse cx="718.1" cy="534.5" fill="#ADD1B2" rx="11" ry="11" style="stroke:#181818;stroke-width:1.0;"/><path d="M721.0844,540.1406 Q720.5063,540.4375 719.8656,540.5781 Q719.225,540.7344 718.5219,540.7344 Q716.0063,540.7344 714.6781,539.0938 Q713.3656,537.4375 713.3656,534.3125 Q713.3656,531.1719 714.6781,529.5313 Q716.0063,527.875 718.5219,527.875 Q719.225,527.875 719.8656,528.0313 Q720.5219,528.1719 721.0844,528.4688 L721.0844,531.1875 Q720.4438,530.6094 719.85,530.3438 Q719.2563,530.0781 718.6313,530.0781 Q717.2875,530.0781 716.6,531.1406 Q715.9125,532.2031 715.9125,534.3125 Q715.9125,536.4063 716.6,537.4844 Q717.2875,538.5469 718.6313,538.5469 Q719.2563,538.5469 719.85,538.2813 Q720.4438,538 721.0844,537.4219 L721.0844,540.1406 Z " fill="#000000"/><text fill="#000000" font-family="sans-serif" font-size="14" lengthAdjust="spacing" textLength="116" x="733.9" y="539.3467">IntervalDetector</text><line style="stroke:#181818;stroke-width:0.5;" x1="696" x2="860" y1="550.5" y2="550.5"/><text fill="#000000" font-family="sans-serif" font-size="14" lengthAdjust="spacing" textLength="154" x="701" y="567.4951">trigger_interval : float</text><line style="stroke:#181818;stroke-width:0.5;" x1="696" x2="860" y1="574.7969" y2="574.7969"/></g><!--class DumbDevice--><g id="elem_DumbDevice"><rect codeLine="53" fill="#F1F1F1" height="48" id="DumbDevice" rx="2.5" ry="2.5" style="stroke:#181818;stroke-width:0.5;" width="124" x="897" y="378"/><ellipse cx="912" cy="394" fill="#ADD1B2" rx="11" ry="11" style="stroke:#181818;stroke-width:1.0;"/><path d="M914.9844,399.6406 Q914.4063,399.9375 913.7656,400.0781 Q913.125,400.2344 912.4219,400.2344 Q909.9063,400.2344 908.5781,398.5938 Q907.2656,396.9375 907.2656,393.8125 Q907.2656,390.6719 908.5781,389.0313 Q909.9063,387.375 912.4219,387.375 Q913.125,387.375 913.7656,387.5313 Q914.4219,387.6719 914.9844,387.9688 L914.9844,390.6875 Q914.3438,390.1094 913.75,389.8438 Q913.1563,389.5781 912.5313,389.5781 Q911.1875,389.5781 910.5,390.6406 Q909.8125,391.7031 909.8125,393.8125 Q909.8125,395.9063 910.5,396.9844 Q911.1875,398.0469 912.5313,398.0469 Q913.1563,398.0469 913.75,397.7813 Q914.3438,397.5 914.9844,396.9219 L914.9844,399.6406 Z " fill="#000000"/><text fill="#000000" font-family="sans-serif" font-size="14" lengthAdjust="spacing" textLength="92" x="926" y="398.8467">DumbDevice</text><line style="stroke:#181818;stroke-width:0.5;" x1="898" x2="1020" y1="410" y2="410"/><line style="stroke:#181818;stroke-width:0.5;" x1="898" x2="1020" y1="418" y2="418"/></g><g id="elem_GMN15"><path d="M896.5,530.5 L896.5,570.7656 A0,0 0 0 0 896.5,570.7656 L1031.5,570.7656 A0,0 0 0 0 1031.5,570.7656 L1031.5,540.5 L1021.5,530.5 L967.34,530.5 L959.79,426.21 L959.34,530.5 L896.5,530.5 A0,0 0 0 0 896.5,530.5 " fill="#FEFFDD" style="stroke:#181818;stroke-width:0.5;"/><path d="M1021.5,530.5 L1021.5,540.5 L1031.5,540.5 L1021.5,530.5 " fill="#FEFFDD" style="stroke:#181818;stroke-width:0.5;"/><text fill="#000000" font-family="sans-serif" font-size="13" lengthAdjust="spacing" textLength="103" x="902.5" y="547.5669">We need to find</text><text fill="#000000" font-family="sans-serif" font-size="13" lengthAdjust="spacing" textLength="114" x="902.5" y="562.6997">a better name. ;-)</text></g><!--reverse link Metadata to Dataset--><g id="link_Metadata_Dataset"><path codeLine="57" d="M326.7406,84.5876 C267.0006,101.4376 205.8,124.68 149,164 C130.28,176.96 113.9,197.07 102.84,212.75 " fill="none" id="Metadata-backto-Dataset" style="stroke:#181818;stroke-width:1.0;"/><polygon fill="#181818" points="338.29,81.33,331.4295,79.109,326.7406,84.5876,333.6012,86.8086,338.29,81.33" style="stroke:#181818;stroke-width:1.0;"/></g><!--reverse link Metadata to Measurement--><g id="link_Metadata_Measurement"><path codeLine="58" d="M408.1662,113.8234 C394.8262,132.1034 386.36,143.71 371.7,163.78 " fill="none" id="Metadata-backto-Measurement" style="stroke:#181818;stroke-width:1.0;"/><polygon fill="#181818" points="415.24,104.13,408.472,106.6187,408.1662,113.8234,414.9342,111.3346,415.24,104.13" style="stroke:#181818;stroke-width:1.0;"/></g><!--reverse link Metadata to Device--><g id="link_Metadata_Device"><path codeLine="59" d="M569.7381,109.1976 C607.2281,126.7476 638.16,142.52 675,164 C680.94,167.46 686.97,171.16 692.99,174.99 " fill="none" id="Metadata-backto-Device" style="stroke:#181818;stroke-width:1.0;"/><polygon fill="#181818" points="558.87,104.11,562.6082,110.2765,569.7381,109.1976,565.9999,103.0311,558.87,104.11" style="stroke:#181818;stroke-width:1.0;"/><text fill="#000000" font-family="sans-serif" font-size="13" lengthAdjust="spacing" textLength="8" x="565.6173" y="124.0844">1</text><text fill="#000000" font-family="sans-serif" font-size="13" lengthAdjust="spacing" textLength="8" x="677.0625" y="165.8505">n</text></g><!--reverse link Metadata to File--><g id="link_Metadata_File"><path codeLine="60" d="M492.1377,113.7986 C509.3177,137.1686 523.02,155.8 540.95,180.18 " fill="none" id="Metadata-backto-File" style="stroke:#181818;stroke-width:1.0;"/><polygon fill="#181818" points="485.03,104.13,485.361,111.3335,492.1377,113.7986,491.8067,106.5951,485.03,104.13" style="stroke:#181818;stroke-width:1.0;"/></g><!--reverse link Device to Motor--><g id="link_Device_Motor"><path codeLine="62" d="M706.5201,315.1571 C681.7401,341.9171 666.73,358.12 648.42,377.88 " fill="none" id="Device-backto-Motor" style="stroke:#181818;stroke-width:1.0;"/><polygon fill="none" points="718.75,301.95,702.1177,311.0805,710.9224,319.2338,718.75,301.95" style="stroke:#181818;stroke-width:1.0;"/></g><!--reverse link Device to Detector--><g id="link_Device_Detector"><path codeLine="63" d="M778,319.95 C778,343.32 778,350.71 778,369.93 " fill="none" id="Device-backto-Detector" style="stroke:#181818;stroke-width:1.0;"/><polygon fill="none" points="778,301.95,772,319.95,784,319.95,778,301.95" style="stroke:#181818;stroke-width:1.0;"/></g><!--reverse link Device to DumbDevice--><g id="link_Device_DumbDevice"><path codeLine="64" d="M862.1339,313.7673 C891.8739,340.5573 911.24,357.99 933.25,377.81 " fill="none" id="Device-backto-DumbDevice" style="stroke:#181818;stroke-width:1.0;"/><polygon fill="none" points="848.76,301.72,858.1182,318.2253,866.1497,309.3094,848.76,301.72" style="stroke:#181818;stroke-width:1.0;"/></g><!--reverse link Detector to AverageDetector--><g id="link_Detector_AverageDetector"><path codeLine="66" d="M721.3048,444.7419 C697.6848,462.1319 682.03,473.65 654.49,493.93 " fill="none" id="Detector-backto-AverageDetector" style="stroke:#181818;stroke-width:1.0;"/><polygon fill="none" points="735.8,434.07,717.7475,439.9102,724.8621,449.5737,735.8,434.07" style="stroke:#181818;stroke-width:1.0;"/></g><!--reverse link Detector to IntervalDetector--><g id="link_Detector_IntervalDetector"><path codeLine="67" d="M778,452.07 C778,476.93 778,493.63 778,518.48 " fill="none" id="Detector-backto-IntervalDetector" style="stroke:#181818;stroke-width:1.0;"/><polygon fill="none" points="778,434.07,772,452.07,784,452.07,778,434.07" style="stroke:#181818;stroke-width:1.0;"/></g><!--SRC=[TLExJkmm4Etz5TPs8EsLA6ZWDbTQNOc22YGQf6WscSrQyYCQ3s7Hil-ExJWc3qWJ-vnv79-nQmtUoqTaQ811deKCdq7mRuG6BSkxG9PTOWzAOu3_Xr_QDzYh6ds0TcbrleYB47Kgl0j5FRAmZb7k7RCpT_89KNhiW220ZOAMmBpQWoCv91qL4b1z_1YhJ1HaXPw1ehPG7v-L6OIWRPQGTZMmSZRWJqpAjWdj20z8X4q59-L_u-eZM8lwDzewCg2LJ_NNmSM2w5DM7PspO71UydXRzKX-fH9x_9au6JqIwtR33793rSmprysxVhvd0kixHrpnHxU8zLYFNWwhxwwFZiFupbCP768IbXfdix2QIYhH_y9neCLbKWK37aUayktJxhtIogWu_ODsCA06JXKme-bu6XpXU3t7Ep0abBOFbf5wq8k-GLpR8bKgq-l4tPlP5wClyzlzWj8YDf9TcBTjNYt8FGPfbDp_8- -tLqAK1tUztPP7CWEdhwuGcvjD8ZTsamSzJqflKcHbVpzZcJYO6J8UTWwM0yNqx4PY5gDPi4i7nHS0]--></g></svg>