<?xml version="1.0" encoding="us-ascii" standalone="no"?><svg xmlns="http://www.w3.org/2000/svg" xmlns:xlink="http://www.w3.org/1999/xlink" contentStyleType="text/css" height="491.2px" preserveAspectRatio="none" style="width:649px;height:491px;background:#FFFFFF;" version="1.1" viewBox="0 0 649 491" width="649.6px" zoomAndPan="magnify"><defs/><g><!--class Metadata--><g id="elem_Metadata"><rect codeLine="2" fill="#F1F1F1" height="77.775" id="Metadata" rx="2" ry="2" style="stroke:#181818;stroke-width:0.4000000000000001;" width="154.4" x="268" y="5.6"/><ellipse cx="317.4" cy="18.4" fill="#ADD1B2" rx="8.8" ry="8.8" style="stroke:#181818;stroke-width:0.8000000000000002;"/><path d="M317.4375,23.3625 C318.6375,23.3625 319.625,22.9125 320.35,22.0625 L319.25,20.85 C318.8125,21.325 318.2875,21.6375 317.65,21.6375 C316.3125,21.6375 315.3875,20.575 315.3875,18.75 C315.3875,16.975 316.3125,15.9 317.5625,15.9 C318.2125,15.9 318.6875,16.15 319.1125,16.5375 L320.2125,15.3 C319.6125,14.7125 318.6875,14.175 317.5625,14.175 C315.2,14.175 313.3375,15.8875 313.3375,18.825 C313.3375,21.8 315.2375,23.3625 317.4375,23.3625 Z " fill="#000000"/><text fill="#000000" font-family="sans-serif" font-size="11.2" lengthAdjust="spacing" textLength="48.8" x="333.8" y="22.2281">Metadata</text><line style="stroke:#181818;stroke-width:0.4000000000000001;" x1="268.8" x2="421.6" y1="31.2" y2="31.2"/><text fill="#000000" font-family="sans-serif" font-size="11.2" lengthAdjust="spacing" textLength="144.8" x="272.8" y="44.7906">measurement : Measurement</text><text fill="#000000" font-family="sans-serif" font-size="11.2" lengthAdjust="spacing" textLength="38.4" x="272.8" y="57.9156">file : File</text><text fill="#000000" font-family="sans-serif" font-size="11.2" lengthAdjust="spacing" textLength="84" x="272.8" y="71.0406">devices : Device{}</text><line style="stroke:#181818;stroke-width:0.4000000000000001;" x1="268.8" x2="421.6" y1="76.975" y2="76.975"/></g><!--class Dataset--><g id="elem_Dataset"><rect codeLine="8" fill="#F1F1F1" height="38.4" id="Dataset" rx="2" ry="2" style="stroke:#181818;stroke-width:0.4000000000000001;" width="64.8" x="476" y="25.2"/><ellipse cx="488" cy="38" fill="#ADD1B2" rx="8.8" ry="8.8" style="stroke:#181818;stroke-width:0.8000000000000002;"/><path d="M488.0375,42.9625 C489.2375,42.9625 490.225,42.5125 490.95,41.6625 L489.85,40.45 C489.4125,40.925 488.8875,41.2375 488.25,41.2375 C486.9125,41.2375 485.9875,40.175 485.9875,38.35 C485.9875,36.575 486.9125,35.5 488.1625,35.5 C488.8125,35.5 489.2875,35.75 489.7125,36.1375 L490.8125,34.9 C490.2125,34.3125 489.2875,33.775 488.1625,33.775 C485.8,33.775 483.9375,35.4875 483.9375,38.425 C483.9375,41.4 485.8375,42.9625 488.0375,42.9625 Z " fill="#000000"/><text fill="#000000" font-family="sans-serif" font-size="11.2" lengthAdjust="spacing" textLength="39.2" x="499.2" y="41.8281">Dataset</text><line style="stroke:#181818;stroke-width:0.4000000000000001;" x1="476.8" x2="540" y1="50.8" y2="50.8"/><line style="stroke:#181818;stroke-width:0.4000000000000001;" x1="476.8" x2="540" y1="57.2" y2="57.2"/></g><g id="elem_GMN4"><path d="M476,173.6 L476,205.975 A0,0 0 0 0 476,205.975 L592,205.975 A0,0 0 0 0 592,205.975 L592,181.6 L584,173.6 L534.464,173.6 L511.696,63.68 L528.064,173.6 L476,173.6 A0,0 0 0 0 476,173.6 " fill="#FEFFDD" style="stroke:#181818;stroke-width:0.4000000000000001;"/><path d="M584,173.6 L584,181.6 L592,181.6 L584,173.6 " fill="#FEFFDD" style="stroke:#181818;stroke-width:0.4000000000000001;"/><text fill="#000000" font-family="sans-serif" font-size="10.4" lengthAdjust="spacing" textLength="99.2" x="480.8" y="187.2484">See separate diagram</text><text fill="#000000" font-family="sans-serif" font-size="10.4" lengthAdjust="spacing" textLength="84" x="480.8" y="199.4359">for class hierarchy</text></g><!--class Measurement--><g id="elem_Measurement"><rect codeLine="11" fill="#F1F1F1" height="117.15" id="Measurement" rx="2" ry="2" style="stroke:#181818;stroke-width:0.4000000000000001;" width="208.8" x="5.6" y="131.2"/><ellipse cx="72.2" cy="144" fill="#ADD1B2" rx="8.8" ry="8.8" style="stroke:#181818;stroke-width:0.8000000000000002;"/><path d="M72.2375,148.9625 C73.4375,148.9625 74.425,148.5125 75.15,147.6625 L74.05,146.45 C73.6125,146.925 73.0875,147.2375 72.45,147.2375 C71.1125,147.2375 70.1875,146.175 70.1875,144.35 C70.1875,142.575 71.1125,141.5 72.3625,141.5 C73.0125,141.5 73.4875,141.75 73.9125,142.1375 L75.0125,140.9 C74.4125,140.3125 73.4875,139.775 72.3625,139.775 C70,139.775 68.1375,141.4875 68.1375,144.425 C68.1375,147.4 70.0375,148.9625 72.2375,148.9625 Z " fill="#000000"/><text fill="#000000" font-family="sans-serif" font-size="11.2" lengthAdjust="spacing" textLength="68.8" x="88.6" y="147.8281">Measurement</text><line style="stroke:#181818;stroke-width:0.4000000000000001;" x1="6.4" x2="213.6" y1="156.8" y2="156.8"/><text fill="#000000" font-family="sans-serif" font-size="11.2" lengthAdjust="spacing" textLength="75.2" x="10.4" y="170.3906">start : datetime</text><text fill="#000000" font-family="sans-serif" font-size="11.2" lengthAdjust="spacing" textLength="69.6" x="10.4" y="183.5156">end : datetime</text><text fill="#000000" font-family="sans-serif" font-size="11.2" lengthAdjust="spacing" textLength="76" x="10.4" y="196.6406">location : string</text><text fill="#000000" font-family="sans-serif" font-size="11.2" lengthAdjust="spacing" textLength="106.4" x="10.4" y="209.7656">preferred_axis : string</text><text fill="#000000" font-family="sans-serif" font-size="11.2" lengthAdjust="spacing" textLength="125.6" x="10.4" y="222.8906">preferred_channel : string</text><text fill="#000000" font-family="sans-serif" font-size="11.2" lengthAdjust="spacing" textLength="199.2" x="10.4" y="236.0156">preferred_normalisation_channel : string</text><line style="stroke:#181818;stroke-width:0.4000000000000001;" x1="6.4" x2="213.6" y1="241.95" y2="241.95"/></g><!--class File--><g id="elem_File"><rect codeLine="20" fill="#F1F1F1" height="90.9" id="File" rx="2" ry="2" style="stroke:#181818;stroke-width:0.4000000000000001;" width="103.2" x="242.4" y="144"/><ellipse cx="282.2" cy="156.8" fill="#ADD1B2" rx="8.8" ry="8.8" style="stroke:#181818;stroke-width:0.8000000000000002;"/><path d="M282.2375,161.7625 C283.4375,161.7625 284.425,161.3125 285.15,160.4625 L284.05,159.25 C283.6125,159.725 283.0875,160.0375 282.45,160.0375 C281.1125,160.0375 280.1875,158.975 280.1875,157.15 C280.1875,155.375 281.1125,154.3 282.3625,154.3 C283.0125,154.3 283.4875,154.55 283.9125,154.9375 L285.0125,153.7 C284.4125,153.1125 283.4875,152.575 282.3625,152.575 C280,152.575 278.1375,154.2875 278.1375,157.225 C278.1375,160.2 280.0375,161.7625 282.2375,161.7625 Z " fill="#000000"/><text fill="#000000" font-family="sans-serif" font-size="11.2" lengthAdjust="spacing" textLength="16.8" x="298.6" y="160.6281">File</text><line style="stroke:#181818;stroke-width:0.4000000000000001;" x1="243.2" x2="344.8" y1="169.6" y2="169.6"/><text fill="#000000" font-family="sans-serif" font-size="11.2" lengthAdjust="spacing" textLength="78.4" x="247.2" y="183.1906">filename : string</text><text fill="#000000" font-family="sans-serif" font-size="11.2" lengthAdjust="spacing" textLength="89.6" x="247.2" y="196.3156">h5_version : string</text><text fill="#000000" font-family="sans-serif" font-size="11.2" lengthAdjust="spacing" textLength="93.6" x="247.2" y="209.4406">eve_version : string</text><text fill="#000000" font-family="sans-serif" font-size="11.2" lengthAdjust="spacing" textLength="92" x="247.2" y="222.5656">xml_version: string</text><line style="stroke:#181818;stroke-width:0.4000000000000001;" x1="243.2" x2="344.8" y1="228.5" y2="228.5"/></g><!--class Device--><g id="elem_Device"><rect codeLine="27" fill="#F1F1F1" height="64.65" id="Device" rx="2" ry="2" style="stroke:#181818;stroke-width:0.4000000000000001;" width="73.6" x="374" y="157.2"/><ellipse cx="393.2" cy="170" fill="#ADD1B2" rx="8.8" ry="8.8" style="stroke:#181818;stroke-width:0.8000000000000002;"/><path d="M393.2375,174.9625 C394.4375,174.9625 395.425,174.5125 396.15,173.6625 L395.05,172.45 C394.6125,172.925 394.0875,173.2375 393.45,173.2375 C392.1125,173.2375 391.1875,172.175 391.1875,170.35 C391.1875,168.575 392.1125,167.5 393.3625,167.5 C394.0125,167.5 394.4875,167.75 394.9125,168.1375 L396.0125,166.9 C395.4125,166.3125 394.4875,165.775 393.3625,165.775 C391,165.775 389.1375,167.4875 389.1375,170.425 C389.1375,173.4 391.0375,174.9625 393.2375,174.9625 Z " fill="#000000"/><text fill="#000000" font-family="sans-serif" font-size="11.2" lengthAdjust="spacing" textLength="32" x="406" y="173.8281">Device</text><line style="stroke:#181818;stroke-width:0.4000000000000001;" x1="374.8" x2="446.8" y1="182.8" y2="182.8"/><text fill="#000000" font-family="sans-serif" font-size="11.2" lengthAdjust="spacing" textLength="44.8" x="378.8" y="196.3906">id : string</text><text fill="#000000" font-family="sans-serif" font-size="11.2" lengthAdjust="spacing" textLength="64" x="378.8" y="209.5156">name : string</text><line style="stroke:#181818;stroke-width:0.4000000000000001;" x1="374.8" x2="446.8" y1="215.45" y2="215.45"/></g><!--class Motor--><g id="elem_Motor"><rect codeLine="32" fill="#F1F1F1" height="38.4" id="Motor" rx="2" ry="2" style="stroke:#181818;stroke-width:0.4000000000000001;" width="56" x="272.4" y="302.4"/><ellipse cx="284.4" cy="315.2" fill="#ADD1B2" rx="8.8" ry="8.8" style="stroke:#181818;stroke-width:0.8000000000000002;"/><path d="M284.4375,320.1625 C285.6375,320.1625 286.625,319.7125 287.35,318.8625 L286.25,317.65 C285.8125,318.125 285.2875,318.4375 284.65,318.4375 C283.3125,318.4375 282.3875,317.375 282.3875,315.55 C282.3875,313.775 283.3125,312.7 284.5625,312.7 C285.2125,312.7 285.6875,312.95 286.1125,313.3375 L287.2125,312.1 C286.6125,311.5125 285.6875,310.975 284.5625,310.975 C282.2,310.975 280.3375,312.6875 280.3375,315.625 C280.3375,318.6 282.2375,320.1625 284.4375,320.1625 Z " fill="#000000"/><text fill="#000000" font-family="sans-serif" font-size="11.2" lengthAdjust="spacing" textLength="30.4" x="295.6" y="319.0281">Motor</text><line style="stroke:#181818;stroke-width:0.4000000000000001;" x1="273.2" x2="327.6" y1="328" y2="328"/><line style="stroke:#181818;stroke-width:0.4000000000000001;" x1="273.2" x2="327.6" y1="334.4" y2="334.4"/></g><!--class Detector--><g id="elem_Detector"><rect codeLine="35" fill="#F1F1F1" height="51.525" id="Detector" rx="2" ry="2" style="stroke:#181818;stroke-width:0.4000000000000001;" width="108" x="356.8" y="296"/><ellipse cx="386.8" cy="308.8" fill="#ADD1B2" rx="8.8" ry="8.8" style="stroke:#181818;stroke-width:0.8000000000000002;"/><path d="M386.8375,313.7625 C388.0375,313.7625 389.025,313.3125 389.75,312.4625 L388.65,311.25 C388.2125,311.725 387.6875,312.0375 387.05,312.0375 C385.7125,312.0375 384.7875,310.975 384.7875,309.15 C384.7875,307.375 385.7125,306.3 386.9625,306.3 C387.6125,306.3 388.0875,306.55 388.5125,306.9375 L389.6125,305.7 C389.0125,305.1125 388.0875,304.575 386.9625,304.575 C384.6,304.575 382.7375,306.2875 382.7375,309.225 C382.7375,312.2 384.6375,313.7625 386.8375,313.7625 Z " fill="#000000"/><text fill="#000000" font-family="sans-serif" font-size="11.2" lengthAdjust="spacing" textLength="42.4" x="402" y="312.6281">Detector</text><line style="stroke:#181818;stroke-width:0.4000000000000001;" x1="357.6" x2="464" y1="321.6" y2="321.6"/><text fill="#000000" font-family="sans-serif" font-size="11.2" lengthAdjust="spacing" textLength="98.4" x="361.6" y="335.1906">normalise_id : string</text><line style="stroke:#181818;stroke-width:0.4000000000000001;" x1="357.6" x2="464" y1="341.125" y2="341.125"/></g><!--class AverageDetector--><g id="elem_AverageDetector"><rect codeLine="39" fill="#F1F1F1" height="90.9" id="AverageDetector" rx="2" ry="2" style="stroke:#181818;stroke-width:0.4000000000000001;" width="112" x="146.8" y="395.2"/><ellipse cx="160.24" cy="408" fill="#ADD1B2" rx="8.8" ry="8.8" style="stroke:#181818;stroke-width:0.8000000000000002;"/><path d="M160.2775,412.9625 C161.4775,412.9625 162.465,412.5125 163.19,411.6625 L162.09,410.45 C161.6525,410.925 161.1275,411.2375 160.49,411.2375 C159.1525,411.2375 158.2275,410.175 158.2275,408.35 C158.2275,406.575 159.1525,405.5 160.4025,405.5 C161.0525,405.5 161.5275,405.75 161.9525,406.1375 L163.0525,404.9 C162.4525,404.3125 161.5275,403.775 160.4025,403.775 C158.04,403.775 156.1775,405.4875 156.1775,408.425 C156.1775,411.4 158.0775,412.9625 160.2775,412.9625 Z " fill="#000000"/><text fill="#000000" font-family="sans-serif" font-size="11.2" lengthAdjust="spacing" textLength="83.2" x="171.76" y="411.8281">AverageDetector</text><line style="stroke:#181818;stroke-width:0.4000000000000001;" x1="147.6" x2="258" y1="420.8" y2="420.8"/><text fill="#000000" font-family="sans-serif" font-size="11.2" lengthAdjust="spacing" textLength="76.8" x="151.6" y="434.3906">n_averages : int</text><text fill="#000000" font-family="sans-serif" font-size="11.2" lengthAdjust="spacing" textLength="73.6" x="151.6" y="447.5156">low_limit : float</text><text fill="#000000" font-family="sans-serif" font-size="11.2" lengthAdjust="spacing" textLength="92" x="151.6" y="460.6406">max_attempts : int</text><text fill="#000000" font-family="sans-serif" font-size="11.2" lengthAdjust="spacing" textLength="102.4" x="151.6" y="473.7656">max_deviation : float</text><line style="stroke:#181818;stroke-width:0.4000000000000001;" x1="147.6" x2="258" y1="479.7" y2="479.7"/></g><!--class IntervalDetector--><g id="elem_IntervalDetector"><rect codeLine="46" fill="#F1F1F1" height="51.525" id="IntervalDetector" rx="2" ry="2" style="stroke:#181818;stroke-width:0.4000000000000001;" width="114.4" x="287.2" y="415.2"/><ellipse cx="303.16" cy="428" fill="#ADD1B2" rx="8.8" ry="8.8" style="stroke:#181818;stroke-width:0.8000000000000002;"/><path d="M303.1975,432.9625 C304.3975,432.9625 305.385,432.5125 306.11,431.6625 L305.01,430.45 C304.5725,430.925 304.0475,431.2375 303.41,431.2375 C302.0725,431.2375 301.1475,430.175 301.1475,428.35 C301.1475,426.575 302.0725,425.5 303.3225,425.5 C303.9725,425.5 304.4475,425.75 304.8725,426.1375 L305.9725,424.9 C305.3725,424.3125 304.4475,423.775 303.3225,423.775 C300.96,423.775 299.0975,425.4875 299.0975,428.425 C299.0975,431.4 300.9975,432.9625 303.1975,432.9625 Z " fill="#000000"/><text fill="#000000" font-family="sans-serif" font-size="11.2" lengthAdjust="spacing" textLength="80" x="315.24" y="431.8281">IntervalDetector</text><line style="stroke:#181818;stroke-width:0.4000000000000001;" x1="288" x2="400.8" y1="440.8" y2="440.8"/><text fill="#000000" font-family="sans-serif" font-size="11.2" lengthAdjust="spacing" textLength="104.8" x="292" y="454.3906">trigger_interval : float</text><line style="stroke:#181818;stroke-width:0.4000000000000001;" x1="288" x2="400.8" y1="460.325" y2="460.325"/></g><!--class ArrayDetector--><g id="elem_ArrayDetector"><rect codeLine="50" fill="#F1F1F1" height="38.4" id="ArrayDetector" rx="2" ry="2" style="stroke:#181818;stroke-width:0.4000000000000001;" width="95.2" x="429.6" y="421.6"/><ellipse cx="441.6" cy="434.4" fill="#ADD1B2" rx="8.8" ry="8.8" style="stroke:#181818;stroke-width:0.8000000000000002;"/><path d="M441.6375,439.3625 C442.8375,439.3625 443.825,438.9125 444.55,438.0625 L443.45,436.85 C443.0125,437.325 442.4875,437.6375 441.85,437.6375 C440.5125,437.6375 439.5875,436.575 439.5875,434.75 C439.5875,432.975 440.5125,431.9 441.7625,431.9 C442.4125,431.9 442.8875,432.15 443.3125,432.5375 L444.4125,431.3 C443.8125,430.7125 442.8875,430.175 441.7625,430.175 C439.4,430.175 437.5375,431.8875 437.5375,434.825 C437.5375,437.8 439.4375,439.3625 441.6375,439.3625 Z " fill="#000000"/><text fill="#000000" font-family="sans-serif" font-size="11.2" lengthAdjust="spacing" textLength="69.6" x="452.8" y="438.2281">ArrayDetector</text><line style="stroke:#181818;stroke-width:0.4000000000000001;" x1="430.4" x2="524" y1="447.2" y2="447.2"/><line style="stroke:#181818;stroke-width:0.4000000000000001;" x1="430.4" x2="524" y1="453.6" y2="453.6"/></g><!--class AreaDetector--><g id="elem_AreaDetector"><rect codeLine="53" fill="#F1F1F1" height="38.4" id="AreaDetector" rx="2" ry="2" style="stroke:#181818;stroke-width:0.4000000000000001;" width="91.2" x="553.2" y="421.6"/><ellipse cx="565.2" cy="434.4" fill="#ADD1B2" rx="8.8" ry="8.8" style="stroke:#181818;stroke-width:0.8000000000000002;"/><path d="M565.2375,439.3625 C566.4375,439.3625 567.425,438.9125 568.15,438.0625 L567.05,436.85 C566.6125,437.325 566.0875,437.6375 565.45,437.6375 C564.1125,437.6375 563.1875,436.575 563.1875,434.75 C563.1875,432.975 564.1125,431.9 565.3625,431.9 C566.0125,431.9 566.4875,432.15 566.9125,432.5375 L568.0125,431.3 C567.4125,430.7125 566.4875,430.175 565.3625,430.175 C563,430.175 561.1375,431.8875 561.1375,434.825 C561.1375,437.8 563.0375,439.3625 565.2375,439.3625 Z " fill="#000000"/><text fill="#000000" font-family="sans-serif" font-size="11.2" lengthAdjust="spacing" textLength="65.6" x="576.4" y="438.2281">AreaDetector</text><line style="stroke:#181818;stroke-width:0.4000000000000001;" x1="554" x2="643.6" y1="447.2" y2="447.2"/><line style="stroke:#181818;stroke-width:0.4000000000000001;" x1="554" x2="643.6" y1="453.6" y2="453.6"/></g><!--class Monitor--><g id="elem_Monitor"><rect codeLine="56" fill="#F1F1F1" height="38.4" id="Monitor" rx="2" ry="2" style="stroke:#181818;stroke-width:0.4000000000000001;" width="64.8" x="492.8" y="302.4"/><ellipse cx="504.8" cy="315.2" fill="#ADD1B2" rx="8.8" ry="8.8" style="stroke:#181818;stroke-width:0.8000000000000002;"/><path d="M504.8375,320.1625 C506.0375,320.1625 507.025,319.7125 507.75,318.8625 L506.65,317.65 C506.2125,318.125 505.6875,318.4375 505.05,318.4375 C503.7125,318.4375 502.7875,317.375 502.7875,315.55 C502.7875,313.775 503.7125,312.7 504.9625,312.7 C505.6125,312.7 506.0875,312.95 506.5125,313.3375 L507.6125,312.1 C507.0125,311.5125 506.0875,310.975 504.9625,310.975 C502.6,310.975 500.7375,312.6875 500.7375,315.625 C500.7375,318.6 502.6375,320.1625 504.8375,320.1625 Z " fill="#000000"/><text fill="#000000" font-family="sans-serif" font-size="11.2" lengthAdjust="spacing" textLength="39.2" x="516" y="319.0281">Monitor</text><line style="stroke:#181818;stroke-width:0.4000000000000001;" x1="493.6" x2="556.8" y1="328" y2="328"/><line style="stroke:#181818;stroke-width:0.4000000000000001;" x1="493.6" x2="556.8" y1="334.4" y2="334.4"/></g><!--reverse link Device to Motor--><g id="link_Device_Motor"><path d="M374.4893,233.2878 C353.2973,258.3278 333.824,281.32 316.216,302.12 " fill="none" id="Device-backto-Motor" style="stroke:#181818;stroke-width:0.8000000000000002;"/><polygon fill="none" points="383.792,222.296,370.8254,230.1869,378.1533,236.3887,383.792,222.296" style="stroke:#181818;stroke-width:0.8000000000000002;"/></g><!--reverse link Device to Detector--><g id="link_Device_Detector"><path d="M410.8,236.696 C410.8,259.392 410.8,275.048 410.8,295.968 " fill="none" id="Device-backto-Detector" style="stroke:#181818;stroke-width:0.8000000000000002;"/><polygon fill="none" points="410.8,222.296,406,236.696,415.6,236.696,410.8,222.296" style="stroke:#181818;stroke-width:0.8000000000000002;"/></g><!--reverse link Detector to AverageDetector--><g id="link_Detector_AverageDetector"><path d="M348.7633,353.8354 C322.2993,367.4914 302.056,378.424 273.2,395.2 C268.568,397.896 263.8,400.744 259.04,403.656 " fill="none" id="Detector-backto-AverageDetector" style="stroke:#181818;stroke-width:0.8000000000000002;"/><polygon fill="none" points="361.56,347.232,346.5622,349.5698,350.9644,358.1009,361.56,347.232" style="stroke:#181818;stroke-width:0.8000000000000002;"/></g><!--reverse link Detector to IntervalDetector--><g id="link_Detector_IntervalDetector"><path d="M389.639,359.8747 C378.367,379.8347 369.728,395.152 358.464,415.096 " fill="none" id="Detector-backto-IntervalDetector" style="stroke:#181818;stroke-width:0.8000000000000002;"/><polygon fill="none" points="396.72,347.336,385.4594,357.5144,393.8186,362.2351,396.72,347.336" style="stroke:#181818;stroke-width:0.8000000000000002;"/></g><!--reverse link Detector to ArrayDetector--><g id="link_Detector_ArrayDetector"><path d="M431.9593,359.8757 C444.4473,381.9957 455.328,401.264 466.624,421.272 " fill="none" id="Detector-backto-ArrayDetector" style="stroke:#181818;stroke-width:0.8000000000000002;"/><polygon fill="none" points="424.88,347.336,427.7795,362.2354,436.1392,357.5159,424.88,347.336" style="stroke:#181818;stroke-width:0.8000000000000002;"/></g><!--reverse link Detector to AreaDetector--><g id="link_Detector_AreaDetector"><path d="M470.468,354.2485 C495.036,367.7125 512.696,378.128 538.8,395.2 C551.2,403.312 564.456,413.08 575.344,421.424 " fill="none" id="Detector-backto-AreaDetector" style="stroke:#181818;stroke-width:0.8000000000000002;"/><polygon fill="none" points="457.84,347.328,468.1612,358.4579,472.7748,350.0392,457.84,347.328" style="stroke:#181818;stroke-width:0.8000000000000002;"/></g><!--reverse link Device to Monitor--><g id="link_Device_Monitor"><path d="M448.2787,233.1224 C470.2387,258.1624 490.56,281.32 508.808,302.12 " fill="none" id="Device-backto-Monitor" style="stroke:#181818;stroke-width:0.8000000000000002;"/><polygon fill="none" points="438.784,222.296,444.6699,236.2873,451.8875,229.9575,438.784,222.296" style="stroke:#181818;stroke-width:0.8000000000000002;"/></g><!--link Metadata to Dataset--><g id="link_Metadata_Dataset"><path codeLine="59" d="M422.656,44.4 C440.408,44.4 448.56,44.4 466.312,44.4 " fill="none" id="Metadata-to-Dataset" style="stroke:#181818;stroke-width:0.8000000000000002;"/><polygon fill="#181818" points="475.912,44.4,471.112,41.2,466.312,44.4,471.112,47.6,475.912,44.4" style="stroke:#181818;stroke-width:0.8000000000000002;"/></g><!--reverse link Metadata to Measurement--><g id="link_Metadata_Measurement"><path codeLine="60" d="M274.5979,88.3056 C250.5739,102.9696 230.776,115.064 204.4,131.16 " fill="none" id="Metadata-backto-Measurement" style="stroke:#181818;stroke-width:0.8000000000000002;"/><polygon fill="#181818" points="282.792,83.304,277.0277,83.0734,274.5979,88.3056,280.3621,88.5362,282.792,83.304" style="stroke:#181818;stroke-width:0.8000000000000002;"/></g><!--reverse link Metadata to Device--><g id="link_Metadata_Device"><path codeLine="61" d="M366.5963,92.0363 C377.1083,115.0523 386.368,135.312 396.304,157.072 " fill="none" id="Metadata-backto-Device" style="stroke:#181818;stroke-width:0.8000000000000002;"/><polygon fill="#181818" points="362.608,83.304,361.6914,88.9996,366.5963,92.0363,367.5129,86.3407,362.608,83.304" style="stroke:#181818;stroke-width:0.8000000000000002;"/><text fill="#000000" font-family="sans-serif" font-size="10.4" lengthAdjust="spacing" textLength="5.6" x="359.1536" y="99.5486">1</text><text fill="#000000" font-family="sans-serif" font-size="10.4" lengthAdjust="spacing" textLength="5.6" x="387.8394" y="148.3672">n</text></g><!--reverse link Metadata to File--><g id="link_Metadata_File"><path codeLine="62" d="M328.3909,92.346 C321.7509,110.962 316.952,124.44 310.016,143.88 " fill="none" id="Metadata-backto-File" style="stroke:#181818;stroke-width:0.8000000000000002;"/><polygon fill="#181818" points="331.616,83.304,326.9894,86.75,328.3909,92.346,333.0174,88.9001,331.616,83.304" style="stroke:#181818;stroke-width:0.8000000000000002;"/></g><!--SRC=[ZLCzQyCm4DtzAuJ7G8OENR85Gg53fgu5SRNFja0VuNHr7KB-UsLP4NQTjFKYwxsxTuyxNQN1Ut54XXeOnAKGuJC8_fFGe6Mn2sI-HRPH6WFy4evuhx5N5Ve07UBVvLfSYwAAmeSWwf4BwnZ5XsDsPYVU48N74n04i5RG4fXtspWIKrAda82gxdnJcJb83Zq3ZTw2QMHb9YDewv-GTXMmSZRWdadPDg8dmWQ9i9OmAF-8gpgm5lKZsZeoe9MF-klWt8AnJydrs3aB1fUItRFiaVpA9VPudnYClX7hSjCCKa5LBpENnNFEqN5eFWuSEZXJc6aoLdT3ecXg1CfvkPoy3rQXnJiQ2KWg4gR0SHugFJNjlgHMHesZRhI32JKmI616S-9vy0YFR_4sy2aX-tYrZDI3_ij8iD-sI5Ab-BNIdWZElydC8X7-5NXqLZsQGLxExIRlKyOss-rYGJDHFfMHB6sPr9P9SNs_0G00]--></g></svg>