<?xml version="1.0" encoding="us-ascii" standalone="no"?><svg xmlns="http://www.w3.org/2000/svg" xmlns:xlink="http://www.w3.org/1999/xlink" contentStyleType="text/css" height="441.7px" preserveAspectRatio="none" style="width:561px;height:441px;background:#FFFFFF;" version="1.1" viewBox="0 0 561 441" width="561.4px" zoomAndPan="magnify"><defs/><g><!--class Metadata--><g id="elem_Metadata"><rect codeLine="2" fill="#F1F1F1" height="68.0531" id="Metadata" rx="1.75" ry="1.75" style="stroke:#181818;stroke-width:0.3499999999999999;" width="135.1" x="198.8" y="10.85"/><ellipse cx="242.025" cy="22.05" fill="#ADD1B2" rx="7.7" ry="7.7" style="stroke:#181818;stroke-width:0.6999999999999998;"/><path d="M242.0578,26.3922 C243.1078,26.3922 243.9719,25.9984 244.6062,25.2547 L243.6437,24.1937 C243.2609,24.6094 242.8016,24.8828 242.2437,24.8828 C241.0734,24.8828 240.2641,23.9531 240.2641,22.3562 C240.2641,20.8031 241.0734,19.8625 242.1672,19.8625 C242.7359,19.8625 243.1516,20.0812 243.5234,20.4203 L244.4859,19.3375 C243.9609,18.8234 243.1516,18.3531 242.1672,18.3531 C240.1,18.3531 238.4703,19.8516 238.4703,22.4219 C238.4703,25.025 240.1328,26.3922 242.0578,26.3922 Z " fill="#000000"/><text fill="#000000" font-family="sans-serif" font-size="9.8" lengthAdjust="spacing" textLength="42.7" x="256.375" y="25.3996">Metadata</text><line style="stroke:#181818;stroke-width:0.3499999999999999;" x1="199.5" x2="333.2" y1="33.25" y2="33.25"/><text fill="#000000" font-family="sans-serif" font-size="9.8" lengthAdjust="spacing" textLength="126.7" x="203" y="45.1418">measurement : Measurement</text><text fill="#000000" font-family="sans-serif" font-size="9.8" lengthAdjust="spacing" textLength="33.6" x="203" y="56.6262">file : File</text><text fill="#000000" font-family="sans-serif" font-size="9.8" lengthAdjust="spacing" textLength="73.5" x="203" y="68.1105">devices : Device{}</text><line style="stroke:#181818;stroke-width:0.3499999999999999;" x1="199.5" x2="333.2" y1="73.3031" y2="73.3031"/></g><!--class Section--><g id="elem_Section"><rect codeLine="8" fill="#F1F1F1" height="79.5375" id="Section" rx="1.75" ry="1.75" style="stroke:#181818;stroke-width:0.3499999999999999;" width="58.8" x="358.75" y="4.9"/><ellipse cx="371.14" cy="16.1" fill="#EB937F" rx="7.7" ry="7.7" style="stroke:#181818;stroke-width:0.6999999999999998;"/><path d="M368.3837,20.3 L373.6447,20.3 L373.6447,18.8234 L370.1447,18.8234 L370.1447,17.0406 L373.0103,17.0406 L373.0103,15.575 L370.1447,15.575 L370.1447,14.0219 L373.5244,14.0219 L373.5244,12.5453 L368.3837,12.5453 L368.3837,20.3 Z " fill="#000000"/><text fill="#000000" font-family="sans-serif" font-size="9.8" lengthAdjust="spacing" textLength="32.2" x="381.36" y="19.4496">Section</text><line style="stroke:#181818;stroke-width:0.3499999999999999;" x1="359.45" x2="416.85" y1="27.3" y2="27.3"/><text fill="#000000" font-family="sans-serif" font-size="9.8" lengthAdjust="spacing" textLength="49.7" x="362.95" y="39.1918">STANDARD</text><text fill="#000000" font-family="sans-serif" font-size="9.8" lengthAdjust="spacing" textLength="50.4" x="362.95" y="50.6762">SNAPSHOT</text><text fill="#000000" font-family="sans-serif" font-size="9.8" lengthAdjust="spacing" textLength="44.1" x="362.95" y="62.1605">MONITOR</text><text fill="#000000" font-family="sans-serif" font-size="9.8" lengthAdjust="spacing" textLength="25.9" x="362.95" y="73.6449">META</text><line style="stroke:#181818;stroke-width:0.3499999999999999;" x1="359.45" x2="416.85" y1="78.8375" y2="78.8375"/></g><g id="elem_GMN4"><path d="M442.4,25.2 L442.4,42 L417.746,44.8 L442.4,47.6 L442.4,64.1922 A0,0 0 0 0 442.4,64.1922 L555.1,64.1922 A0,0 0 0 0 555.1,64.1922 L555.1,32.2 L548.1,25.2 L442.4,25.2 A0,0 0 0 0 442.4,25.2 " fill="#FEFFDD" style="stroke:#181818;stroke-width:0.3499999999999999;"/><path d="M548.1,25.2 L548.1,32.2 L555.1,32.2 L548.1,25.2 " fill="#FEFFDD" style="stroke:#181818;stroke-width:0.3499999999999999;"/><text fill="#000000" font-family="sans-serif" font-size="9.1" lengthAdjust="spacing" textLength="82.6" x="446.6" y="37.1424">This is defined in the</text><text fill="#000000" font-family="sans-serif" font-size="9.1" lengthAdjust="spacing" textLength="98" x="446.6" y="47.8064">evefile.metadata module</text><text fill="#000000" font-family="sans-serif" font-size="9.1" lengthAdjust="spacing" textLength="79.1" x="446.6" y="58.4705">as well. Generalise?</text></g><!--class Dataset--><g id="elem_Dataset"><rect codeLine="17" fill="#F1F1F1" height="33.6" id="Dataset" rx="1.75" ry="1.75" style="stroke:#181818;stroke-width:0.3499999999999999;" width="56.7" x="87.5" y="28"/><ellipse cx="98" cy="39.2" fill="#ADD1B2" rx="7.7" ry="7.7" style="stroke:#181818;stroke-width:0.6999999999999998;"/><path d="M98.0328,43.5422 C99.0828,43.5422 99.9469,43.1484 100.5812,42.4047 L99.6187,41.3437 C99.2359,41.7594 98.7766,42.0328 98.2187,42.0328 C97.0484,42.0328 96.2391,41.1031 96.2391,39.5062 C96.2391,37.9531 97.0484,37.0125 98.1422,37.0125 C98.7109,37.0125 99.1266,37.2312 99.4984,37.5703 L100.4609,36.4875 C99.9359,35.9734 99.1266,35.5031 98.1422,35.5031 C96.075,35.5031 94.4453,37.0016 94.4453,39.5719 C94.4453,42.175 96.1078,43.5422 98.0328,43.5422 Z " fill="#000000"/><text fill="#000000" font-family="sans-serif" font-size="9.8" lengthAdjust="spacing" textLength="34.3" x="107.8" y="42.5496">Dataset</text><line style="stroke:#181818;stroke-width:0.3499999999999999;" x1="88.2" x2="143.5" y1="50.4" y2="50.4"/><line style="stroke:#181818;stroke-width:0.3499999999999999;" x1="88.2" x2="143.5" y1="56" y2="56"/></g><g id="elem_GMN9"><path d="M4.2,163.8 L4.2,192.1281 A0,0 0 0 0 4.2,192.1281 L105.7,192.1281 A0,0 0 0 0 105.7,192.1281 L105.7,170.8 L98.7,163.8 L63.987,163.8 L108.381,61.635 L58.387,163.8 L4.2,163.8 A0,0 0 0 0 4.2,163.8 " fill="#FEFFDD" style="stroke:#181818;stroke-width:0.3499999999999999;"/><path d="M98.7,163.8 L98.7,170.8 L105.7,170.8 L98.7,163.8 " fill="#FEFFDD" style="stroke:#181818;stroke-width:0.3499999999999999;"/><text fill="#000000" font-family="sans-serif" font-size="9.1" lengthAdjust="spacing" textLength="86.8" x="8.4" y="175.7424">See separate diagram</text><text fill="#000000" font-family="sans-serif" font-size="9.1" lengthAdjust="spacing" textLength="73.5" x="8.4" y="186.4064">for class hierarchy</text></g><!--class Measurement--><g id="elem_Measurement"><rect codeLine="20" fill="#F1F1F1" height="102.5062" id="Measurement" rx="1.75" ry="1.75" style="stroke:#181818;stroke-width:0.3499999999999999;" width="182.7" x="373.8" y="126.7"/><ellipse cx="432.075" cy="137.9" fill="#ADD1B2" rx="7.7" ry="7.7" style="stroke:#181818;stroke-width:0.6999999999999998;"/><path d="M432.1078,142.2422 C433.1578,142.2422 434.0219,141.8484 434.6562,141.1047 L433.6937,140.0437 C433.3109,140.4594 432.8516,140.7328 432.2937,140.7328 C431.1234,140.7328 430.3141,139.8031 430.3141,138.2062 C430.3141,136.6531 431.1234,135.7125 432.2172,135.7125 C432.7859,135.7125 433.2016,135.9312 433.5734,136.2703 L434.5359,135.1875 C434.0109,134.6734 433.2016,134.2031 432.2172,134.2031 C430.15,134.2031 428.5203,135.7016 428.5203,138.2719 C428.5203,140.875 430.1828,142.2422 432.1078,142.2422 Z " fill="#000000"/><text fill="#000000" font-family="sans-serif" font-size="9.8" lengthAdjust="spacing" textLength="60.2" x="446.425" y="141.2496">Measurement</text><line style="stroke:#181818;stroke-width:0.3499999999999999;" x1="374.5" x2="555.8" y1="149.1" y2="149.1"/><text fill="#000000" font-family="sans-serif" font-size="9.8" lengthAdjust="spacing" textLength="65.8" x="378" y="160.9918">start : datetime</text><text fill="#000000" font-family="sans-serif" font-size="9.8" lengthAdjust="spacing" textLength="60.9" x="378" y="172.4762">end : datetime</text><text fill="#000000" font-family="sans-serif" font-size="9.8" lengthAdjust="spacing" textLength="66.5" x="378" y="183.9605">location : string</text><text fill="#000000" font-family="sans-serif" font-size="9.8" lengthAdjust="spacing" textLength="93.1" x="378" y="195.4449">preferred_axis : string</text><text fill="#000000" font-family="sans-serif" font-size="9.8" lengthAdjust="spacing" textLength="109.9" x="378" y="206.9293">preferred_channel : string</text><text fill="#000000" font-family="sans-serif" font-size="9.8" lengthAdjust="spacing" textLength="174.3" x="378" y="218.4137">preferred_normalisation_channel : string</text><line style="stroke:#181818;stroke-width:0.3499999999999999;" x1="374.5" x2="555.8" y1="223.6062" y2="223.6062"/></g><!--class File--><g id="elem_File"><rect codeLine="29" fill="#F1F1F1" height="79.5375" id="File" rx="1.75" ry="1.75" style="stroke:#181818;stroke-width:0.3499999999999999;" width="90.3" x="130.2" y="137.9"/><ellipse cx="165.025" cy="149.1" fill="#ADD1B2" rx="7.7" ry="7.7" style="stroke:#181818;stroke-width:0.6999999999999998;"/><path d="M165.0578,153.4422 C166.1078,153.4422 166.9719,153.0484 167.6062,152.3047 L166.6437,151.2437 C166.2609,151.6594 165.8016,151.9328 165.2437,151.9328 C164.0734,151.9328 163.2641,151.0031 163.2641,149.4062 C163.2641,147.8531 164.0734,146.9125 165.1672,146.9125 C165.7359,146.9125 166.1516,147.1312 166.5234,147.4703 L167.4859,146.3875 C166.9609,145.8734 166.1516,145.4031 165.1672,145.4031 C163.1,145.4031 161.4703,146.9016 161.4703,149.4719 C161.4703,152.075 163.1328,153.4422 165.0578,153.4422 Z " fill="#000000"/><text fill="#000000" font-family="sans-serif" font-size="9.8" lengthAdjust="spacing" textLength="14.7" x="179.375" y="152.4496">File</text><line style="stroke:#181818;stroke-width:0.3499999999999999;" x1="130.9" x2="219.8" y1="160.3" y2="160.3"/><text fill="#000000" font-family="sans-serif" font-size="9.8" lengthAdjust="spacing" textLength="68.6" x="134.4" y="172.1918">filename : string</text><text fill="#000000" font-family="sans-serif" font-size="9.8" lengthAdjust="spacing" textLength="78.4" x="134.4" y="183.6762">h5_version : string</text><text fill="#000000" font-family="sans-serif" font-size="9.8" lengthAdjust="spacing" textLength="81.9" x="134.4" y="195.1605">eve_version : string</text><text fill="#000000" font-family="sans-serif" font-size="9.8" lengthAdjust="spacing" textLength="80.5" x="134.4" y="206.6449">xml_version: string</text><line style="stroke:#181818;stroke-width:0.3499999999999999;" x1="130.9" x2="219.8" y1="211.8375" y2="211.8375"/></g><!--class Device--><g id="elem_Device"><rect codeLine="36" fill="#F1F1F1" height="91.0219" id="Device" rx="1.75" ry="1.75" style="stroke:#181818;stroke-width:0.3499999999999999;" width="104.3" x="245" y="132.3"/><ellipse cx="280.175" cy="143.5" fill="#ADD1B2" rx="7.7" ry="7.7" style="stroke:#181818;stroke-width:0.6999999999999998;"/><path d="M280.2078,147.8422 C281.2578,147.8422 282.1219,147.4484 282.7562,146.7047 L281.7937,145.6437 C281.4109,146.0594 280.9516,146.3328 280.3937,146.3328 C279.2234,146.3328 278.4141,145.4031 278.4141,143.8062 C278.4141,142.2531 279.2234,141.3125 280.3172,141.3125 C280.8859,141.3125 281.3016,141.5312 281.6734,141.8703 L282.6359,140.7875 C282.1109,140.2734 281.3016,139.8031 280.3172,139.8031 C278.25,139.8031 276.6203,141.3016 276.6203,143.8719 C276.6203,146.475 278.2828,147.8422 280.2078,147.8422 Z " fill="#000000"/><text fill="#000000" font-family="sans-serif" font-size="9.8" lengthAdjust="spacing" textLength="28" x="294.525" y="146.8496">Device</text><line style="stroke:#181818;stroke-width:0.3499999999999999;" x1="245.7" x2="348.6" y1="154.7" y2="154.7"/><text fill="#000000" font-family="sans-serif" font-size="9.8" lengthAdjust="spacing" textLength="39.2" x="249.2" y="166.5918">id : string</text><text fill="#000000" font-family="sans-serif" font-size="9.8" lengthAdjust="spacing" textLength="56" x="249.2" y="178.0762">name : string</text><text fill="#000000" font-family="sans-serif" font-size="9.8" lengthAdjust="spacing" textLength="42" x="249.2" y="189.5605">pv : string</text><text fill="#000000" font-family="sans-serif" font-size="9.8" lengthAdjust="spacing" textLength="95.9" x="249.2" y="201.0449">transport_type : string</text><text fill="#000000" font-family="sans-serif" font-size="9.8" lengthAdjust="spacing" textLength="70" x="249.2" y="212.5293">section : Section</text><line style="stroke:#181818;stroke-width:0.3499999999999999;" x1="245.7" x2="348.6" y1="217.7219" y2="217.7219"/></g><!--class Motor--><g id="elem_Motor"><rect codeLine="44" fill="#F1F1F1" height="33.6" id="Motor" rx="1.75" ry="1.75" style="stroke:#181818;stroke-width:0.3499999999999999;" width="49" x="176.05" y="276.5"/><ellipse cx="186.55" cy="287.7" fill="#ADD1B2" rx="7.7" ry="7.7" style="stroke:#181818;stroke-width:0.6999999999999998;"/><path d="M186.5828,292.0422 C187.6328,292.0422 188.4969,291.6484 189.1312,290.9047 L188.1687,289.8437 C187.7859,290.2594 187.3266,290.5328 186.7687,290.5328 C185.5984,290.5328 184.7891,289.6031 184.7891,288.0062 C184.7891,286.4531 185.5984,285.5125 186.6922,285.5125 C187.2609,285.5125 187.6766,285.7312 188.0484,286.0703 L189.0109,284.9875 C188.4859,284.4734 187.6766,284.0031 186.6922,284.0031 C184.625,284.0031 182.9953,285.5016 182.9953,288.0719 C182.9953,290.675 184.6578,292.0422 186.5828,292.0422 Z " fill="#000000"/><text fill="#000000" font-family="sans-serif" font-size="9.8" lengthAdjust="spacing" textLength="26.6" x="196.35" y="291.0496">Motor</text><line style="stroke:#181818;stroke-width:0.3499999999999999;" x1="176.75" x2="224.35" y1="298.9" y2="298.9"/><line style="stroke:#181818;stroke-width:0.3499999999999999;" x1="176.75" x2="224.35" y1="304.5" y2="304.5"/></g><!--class Detector--><g id="elem_Detector"><rect codeLine="47" fill="#F1F1F1" height="45.0844" id="Detector" rx="1.75" ry="1.75" style="stroke:#181818;stroke-width:0.3499999999999999;" width="94.5" x="249.9" y="270.9"/><ellipse cx="276.15" cy="282.1" fill="#ADD1B2" rx="7.7" ry="7.7" style="stroke:#181818;stroke-width:0.6999999999999998;"/><path d="M276.1828,286.4422 C277.2328,286.4422 278.0969,286.0484 278.7312,285.3047 L277.7687,284.2437 C277.3859,284.6594 276.9266,284.9328 276.3687,284.9328 C275.1984,284.9328 274.3891,284.0031 274.3891,282.4062 C274.3891,280.8531 275.1984,279.9125 276.2922,279.9125 C276.8609,279.9125 277.2766,280.1312 277.6484,280.4703 L278.6109,279.3875 C278.0859,278.8734 277.2766,278.4031 276.2922,278.4031 C274.225,278.4031 272.5953,279.9016 272.5953,282.4719 C272.5953,285.075 274.2578,286.4422 276.1828,286.4422 Z " fill="#000000"/><text fill="#000000" font-family="sans-serif" font-size="9.8" lengthAdjust="spacing" textLength="37.1" x="289.45" y="285.4496">Detector</text><line style="stroke:#181818;stroke-width:0.3499999999999999;" x1="250.6" x2="343.7" y1="293.3" y2="293.3"/><text fill="#000000" font-family="sans-serif" font-size="9.8" lengthAdjust="spacing" textLength="86.1" x="254.1" y="305.1918">normalise_id : string</text><line style="stroke:#181818;stroke-width:0.3499999999999999;" x1="250.6" x2="343.7" y1="310.3844" y2="310.3844"/></g><!--class AverageDetector--><g id="elem_AverageDetector"><rect codeLine="51" fill="#F1F1F1" height="79.5375" id="AverageDetector" rx="1.75" ry="1.75" style="stroke:#181818;stroke-width:0.3499999999999999;" width="98" x="186.55" y="357.7"/><ellipse cx="198.31" cy="368.9" fill="#ADD1B2" rx="7.7" ry="7.7" style="stroke:#181818;stroke-width:0.6999999999999998;"/><path d="M198.3428,373.2422 C199.3928,373.2422 200.2569,372.8484 200.8912,372.1047 L199.9287,371.0437 C199.5459,371.4594 199.0866,371.7328 198.5287,371.7328 C197.3584,371.7328 196.5491,370.8031 196.5491,369.2062 C196.5491,367.6531 197.3584,366.7125 198.4522,366.7125 C199.0209,366.7125 199.4366,366.9312 199.8084,367.2703 L200.7709,366.1875 C200.2459,365.6734 199.4366,365.2031 198.4522,365.2031 C196.385,365.2031 194.7553,366.7016 194.7553,369.2719 C194.7553,371.875 196.4178,373.2422 198.3428,373.2422 Z " fill="#000000"/><text fill="#000000" font-family="sans-serif" font-size="9.8" lengthAdjust="spacing" textLength="72.8" x="208.39" y="372.2496">AverageDetector</text><line style="stroke:#181818;stroke-width:0.3499999999999999;" x1="187.25" x2="283.85" y1="380.1" y2="380.1"/><text fill="#000000" font-family="sans-serif" font-size="9.8" lengthAdjust="spacing" textLength="67.2" x="190.75" y="391.9918">n_averages : int</text><text fill="#000000" font-family="sans-serif" font-size="9.8" lengthAdjust="spacing" textLength="64.4" x="190.75" y="403.4762">low_limit : float</text><text fill="#000000" font-family="sans-serif" font-size="9.8" lengthAdjust="spacing" textLength="80.5" x="190.75" y="414.9605">max_attempts : int</text><text fill="#000000" font-family="sans-serif" font-size="9.8" lengthAdjust="spacing" textLength="89.6" x="190.75" y="426.4449">max_deviation : float</text><line style="stroke:#181818;stroke-width:0.3499999999999999;" x1="187.25" x2="283.85" y1="431.6375" y2="431.6375"/></g><!--class IntervalDetector--><g id="elem_IntervalDetector"><rect codeLine="58" fill="#F1F1F1" height="45.0844" id="IntervalDetector" rx="1.75" ry="1.75" style="stroke:#181818;stroke-width:0.3499999999999999;" width="100.1" x="309.4" y="375.2"/><ellipse cx="323.365" cy="386.4" fill="#ADD1B2" rx="7.7" ry="7.7" style="stroke:#181818;stroke-width:0.6999999999999998;"/><path d="M323.3978,390.7422 C324.4478,390.7422 325.3119,390.3484 325.9462,389.6047 L324.9837,388.5437 C324.6009,388.9594 324.1416,389.2328 323.5837,389.2328 C322.4134,389.2328 321.6041,388.3031 321.6041,386.7062 C321.6041,385.1531 322.4134,384.2125 323.5072,384.2125 C324.0759,384.2125 324.4916,384.4312 324.8634,384.7703 L325.8259,383.6875 C325.3009,383.1734 324.4916,382.7031 323.5072,382.7031 C321.44,382.7031 319.8103,384.2016 319.8103,386.7719 C319.8103,389.375 321.4728,390.7422 323.3978,390.7422 Z " fill="#000000"/><text fill="#000000" font-family="sans-serif" font-size="9.8" lengthAdjust="spacing" textLength="70" x="333.935" y="389.7496">IntervalDetector</text><line style="stroke:#181818;stroke-width:0.3499999999999999;" x1="310.1" x2="408.8" y1="397.6" y2="397.6"/><text fill="#000000" font-family="sans-serif" font-size="9.8" lengthAdjust="spacing" textLength="91.7" x="313.6" y="409.4918">trigger_interval : float</text><line style="stroke:#181818;stroke-width:0.3499999999999999;" x1="310.1" x2="408.8" y1="414.6844" y2="414.6844"/></g><!--class Monitor--><g id="elem_Monitor"><rect codeLine="62" fill="#F1F1F1" height="33.6" id="Monitor" rx="1.75" ry="1.75" style="stroke:#181818;stroke-width:0.3499999999999999;" width="56.7" x="368.9" y="276.5"/><ellipse cx="379.4" cy="287.7" fill="#ADD1B2" rx="7.7" ry="7.7" style="stroke:#181818;stroke-width:0.6999999999999998;"/><path d="M379.4328,292.0422 C380.4828,292.0422 381.3469,291.6484 381.9812,290.9047 L381.0187,289.8437 C380.6359,290.2594 380.1766,290.5328 379.6187,290.5328 C378.4484,290.5328 377.6391,289.6031 377.6391,288.0062 C377.6391,286.4531 378.4484,285.5125 379.5422,285.5125 C380.1109,285.5125 380.5266,285.7312 380.8984,286.0703 L381.8609,284.9875 C381.3359,284.4734 380.5266,284.0031 379.5422,284.0031 C377.475,284.0031 375.8453,285.5016 375.8453,288.0719 C375.8453,290.675 377.5078,292.0422 379.4328,292.0422 Z " fill="#000000"/><text fill="#000000" font-family="sans-serif" font-size="9.8" lengthAdjust="spacing" textLength="34.3" x="389.2" y="291.0496">Monitor</text><line style="stroke:#181818;stroke-width:0.3499999999999999;" x1="369.6" x2="424.9" y1="298.9" y2="298.9"/><line style="stroke:#181818;stroke-width:0.3499999999999999;" x1="369.6" x2="424.9" y1="304.5" y2="304.5"/></g><!--link Metadata to Section--><!--link Dataset to Metadata--><g id="link_Dataset_Metadata"><path codeLine="65" d="M144.361,44.8 C162.47,44.8 172.179,44.8 190.288,44.8 " fill="none" id="Dataset-to-Metadata" style="stroke:#181818;stroke-width:0.6999999999999998;"/><polygon fill="#181818" points="198.688,44.8,194.488,42,190.288,44.8,194.488,47.6,198.688,44.8" style="stroke:#181818;stroke-width:0.6999999999999998;"/></g><!--reverse link Metadata to Measurement--><g id="link_Metadata_Measurement"><path codeLine="66" d="M323.7757,83.5122 C345.6367,97.9812 364.7,110.6 388.843,126.588 " fill="none" id="Metadata-backto-Measurement" style="stroke:#181818;stroke-width:0.6999999999999998;"/><polygon fill="#181818" points="316.771,78.876,318.728,83.529,323.7757,83.5122,321.8187,78.8592,316.771,78.876" style="stroke:#181818;stroke-width:0.6999999999999998;"/></g><!--reverse link Metadata to Device--><g id="link_Metadata_Device"><path codeLine="67" d="M276.1159,87.2305 C279.8889,103.3725 282.562,114.779 286.636,132.188 " fill="none" id="Metadata-backto-Device" style="stroke:#181818;stroke-width:0.6999999999999998;"/><polygon fill="#181818" points="274.204,79.051,272.4334,83.7781,276.1159,87.2305,277.8864,82.5035,274.204,79.051" style="stroke:#181818;stroke-width:0.6999999999999998;"/><text fill="#000000" font-family="sans-serif" font-size="9.1" lengthAdjust="spacing" textLength="4.9" x="270.0639" y="93.049">1</text><text fill="#000000" font-family="sans-serif" font-size="9.1" lengthAdjust="spacing" textLength="4.9" x="280.3181" y="124.5751">n</text></g><!--reverse link Metadata to File--><g id="link_Metadata_File"><path codeLine="68" d="M238.3734,85.9594 C225.9974,103.8514 215.481,119.07 202.545,137.767 " fill="none" id="Metadata-backto-File" style="stroke:#181818;stroke-width:0.6999999999999998;"/><polygon fill="#181818" points="243.152,79.051,238.4599,80.9123,238.3734,85.9594,243.0655,84.098,243.152,79.051" style="stroke:#181818;stroke-width:0.6999999999999998;"/></g><!--reverse link Device to Motor--><g id="link_Device_Motor"><path codeLine="70" d="M250.831,233.2109 C235.116,251.7749 226.044,262.486 214.403,276.241 " fill="none" id="Device-backto-Motor" style="stroke:#181818;stroke-width:0.6999999999999998;"/><polygon fill="none" points="258.972,223.594,247.6254,230.4972,254.0366,235.9245,258.972,223.594" style="stroke:#181818;stroke-width:0.6999999999999998;"/></g><!--reverse link Device to Detector--><g id="link_Device_Detector"><path codeLine="71" d="M297.15,236.194 C297.15,252.392 297.15,257.334 297.15,270.676 " fill="none" id="Device-backto-Detector" style="stroke:#181818;stroke-width:0.6999999999999998;"/><polygon fill="none" points="297.15,223.594,292.95,236.194,301.35,236.194,297.15,223.594" style="stroke:#181818;stroke-width:0.6999999999999998;"/></g><!--reverse link Device to Monitor--><g id="link_Device_Monitor"><path codeLine="72" d="M345.0223,233.0667 C361.3043,251.6307 370.832,262.486 382.9,276.241 " fill="none" id="Device-backto-Monitor" style="stroke:#181818;stroke-width:0.6999999999999998;"/><polygon fill="none" points="336.714,223.594,341.8647,235.8362,348.1799,230.2973,336.714,223.594" style="stroke:#181818;stroke-width:0.6999999999999998;"/></g><!--reverse link Detector to AverageDetector--><g id="link_Detector_AverageDetector"><path codeLine="74" d="M277.6154,326.6294 C270.3354,338.7884 267.533,343.476 259.042,357.658 " fill="none" id="Detector-backto-AverageDetector" style="stroke:#181818;stroke-width:0.6999999999999998;"/><polygon fill="none" points="284.088,315.819,274.0119,324.4719,281.2189,328.787,284.088,315.819" style="stroke:#181818;stroke-width:0.6999999999999998;"/></g><!--reverse link Detector to IntervalDetector--><g id="link_Detector_IntervalDetector"><path codeLine="75" d="M316.8861,326.5966 C327.4631,344.0616 335.692,357.658 346.255,375.109 " fill="none" id="Detector-backto-IntervalDetector" style="stroke:#181818;stroke-width:0.6999999999999998;"/><polygon fill="none" points="310.359,315.819,313.2935,328.7723,320.4786,324.421,310.359,315.819" style="stroke:#181818;stroke-width:0.6999999999999998;"/></g><!--SRC=[TLHDYzim4BtxLuWS5xBGmrvCQGcaxUuXITdarYrcQerjWJwCDF5cIVFVAycoDtQw9c1htdoyUQD9AS4vja423WJid37_A0HtjAXG4yizE9uYMWc9tlpTl-APOoTATDwqZb_dItR9CjH7nVPOaZ0wfTqVLjlrwddT7xQhd_l7tI4UDhljqs7tt7z_Ewny0cq8cHLrGpaxDC8n_-DO2OsS2SsemHUD7GOozsgWhmm_IW-0OwyevJtxWHejIE7mQpOskVpL2CvH__wI-6LP6MLOUzGXzRN_62AZSjy3CeSjMF16Bg2se5vqPIphWnhXAzYoUHkoNEcL6dS4DYZfgoC9rSk6cizDqfGGzSfzY1MwZjRMOeNM8Y_W9Dn7MDc0rYW_WhMnAkWGyzywNmRoOQg9TP1MWy9fokQXwD2w6vP-5ly7JaeEm6sv_iQaWe9F8s-BjztqJ1QqQusbWjxQcQzBToyVRk5xrOqXFxxpDGtoFj4M2oUniBYcD7glV3jGupoeWDuUHYJIhaZpMaYXH9X-9GtqLWMd0eXGjNJj7CnXcOOxq0UCPPyqeUr0pkfwSdMDjX09lWtS62t6XjCTPykxSUlVD-DkkPoi-mWiFYqYkD2BDBDfKFmpoD8qF_yDQOB64yl0U-OMkONOr5KqpoIUeNCbidy0]--></g></svg>