<?xml version="1.0" encoding="us-ascii" standalone="no"?><svg xmlns="http://www.w3.org/2000/svg" xmlns:xlink="http://www.w3.org/1999/xlink" contentStyleType="text/css" height="1400px" preserveAspectRatio="none" style="width:1761px;height:1400px;background:#FFFFFF;" version="1.1" viewBox="0 0 1761 1400" width="1761px" zoomAndPan="magnify"><defs/><g><!--class Scan--><g id="elem_Scan"><rect codeLine="3" fill="#F1F1F1" height="243.5625" id="Scan" rx="2.5" ry="2.5" style="stroke:#181818;stroke-width:0.5;" width="261" x="1158.5" y="7"/><ellipse cx="1267.25" cy="23" fill="#ADD1B2" rx="11" ry="11" style="stroke:#181818;stroke-width:1.0;"/><path d="M1270.2344,28.6406 Q1269.6563,28.9375 1269.0156,29.0781 Q1268.375,29.2344 1267.6719,29.2344 Q1265.1563,29.2344 1263.8281,27.5938 Q1262.5156,25.9375 1262.5156,22.8125 Q1262.5156,19.6719 1263.8281,18.0313 Q1265.1563,16.375 1267.6719,16.375 Q1268.375,16.375 1269.0156,16.5313 Q1269.6719,16.6719 1270.2344,16.9688 L1270.2344,19.6875 Q1269.5938,19.1094 1269,18.8438 Q1268.4063,18.5781 1267.7813,18.5781 Q1266.4375,18.5781 1265.75,19.6406 Q1265.0625,20.7031 1265.0625,22.8125 Q1265.0625,24.9063 1265.75,25.9844 Q1266.4375,27.0469 1267.7813,27.0469 Q1268.4063,27.0469 1269,26.7813 Q1269.5938,26.5 1270.2344,25.9219 L1270.2344,28.6406 Z " fill="#000000"/><text fill="#000000" font-family="sans-serif" font-size="14" lengthAdjust="spacing" textLength="35" x="1287.75" y="27.8467">Scan</text><line style="stroke:#181818;stroke-width:0.5;" x1="1159.5" x2="1418.5" y1="39" y2="39"/><text fill="#000000" font-family="sans-serif" font-size="14" lengthAdjust="spacing" textLength="151" x="1164.5" y="55.9951">repeatcount : integer</text><text fill="#000000" font-family="sans-serif" font-size="14" lengthAdjust="spacing" textLength="121" x="1164.5" y="72.292">comment : string</text><text fill="#000000" font-family="sans-serif" font-size="14" lengthAdjust="spacing" textLength="149" x="1164.5" y="88.5889">savefilename : string</text><text fill="#000000" font-family="sans-serif" font-size="14" lengthAdjust="spacing" textLength="159" x="1164.5" y="104.8857">confirmsave : boolean</text><text fill="#000000" font-family="sans-serif" font-size="14" lengthAdjust="spacing" textLength="161" x="1164.5" y="121.1826">saveplugin : Controller</text><text fill="#000000" font-family="sans-serif" font-size="14" lengthAdjust="spacing" textLength="171" x="1164.5" y="137.4795">monitoroptions : string[]</text><text fill="#000000" font-family="sans-serif" font-size="14" lengthAdjust="spacing" textLength="125" x="1164.5" y="153.7764">startevent : Event</text><text fill="#000000" font-family="sans-serif" font-size="14" lengthAdjust="spacing" textLength="143" x="1164.5" y="170.0732">redoevents : Event[]</text><text fill="#000000" font-family="sans-serif" font-size="14" lengthAdjust="spacing" textLength="151" x="1164.5" y="186.3701">breakevents : Event[]</text><text fill="#000000" font-family="sans-serif" font-size="14" lengthAdjust="spacing" textLength="140" x="1164.5" y="202.667">stopevents : Event[]</text><text fill="#000000" font-family="sans-serif" font-size="14" lengthAdjust="spacing" textLength="249" x="1164.5" y="218.9639">pauseconditions : PauseCondition[]</text><text fill="#000000" font-family="sans-serif" font-size="14" lengthAdjust="spacing" textLength="204" x="1164.5" y="235.2607">scanmodules : ScanModule[]</text><line style="stroke:#181818;stroke-width:0.5;" x1="1159.5" x2="1418.5" y1="242.5625" y2="242.5625"/></g><!--class Controller--><g id="elem_Controller"><rect codeLine="42" fill="#F1F1F1" height="80.5938" id="Controller" rx="2.5" ry="2.5" style="stroke:#181818;stroke-width:0.5;" width="186" x="7" y="1139.5"/><ellipse cx="60.25" cy="1155.5" fill="#ADD1B2" rx="11" ry="11" style="stroke:#181818;stroke-width:1.0;"/><path d="M63.2344,1161.1406 Q62.6563,1161.4375 62.0156,1161.5781 Q61.375,1161.7344 60.6719,1161.7344 Q58.1563,1161.7344 56.8281,1160.0938 Q55.5156,1158.4375 55.5156,1155.3125 Q55.5156,1152.1719 56.8281,1150.5313 Q58.1563,1148.875 60.6719,1148.875 Q61.375,1148.875 62.0156,1149.0313 Q62.6719,1149.1719 63.2344,1149.4688 L63.2344,1152.1875 Q62.5938,1151.6094 62,1151.3438 Q61.4063,1151.0781 60.7813,1151.0781 Q59.4375,1151.0781 58.75,1152.1406 Q58.0625,1153.2031 58.0625,1155.3125 Q58.0625,1157.4063 58.75,1158.4844 Q59.4375,1159.5469 60.7813,1159.5469 Q61.4063,1159.5469 62,1159.2813 Q62.5938,1159 63.2344,1158.4219 L63.2344,1161.1406 Z " fill="#000000"/><text fill="#000000" font-family="sans-serif" font-size="14" lengthAdjust="spacing" textLength="71" x="80.75" y="1160.3467">Controller</text><line style="stroke:#181818;stroke-width:0.5;" x1="8" x2="192" y1="1171.5" y2="1171.5"/><text fill="#000000" font-family="sans-serif" font-size="14" lengthAdjust="spacing" textLength="174" x="13" y="1188.4951">parameter : Parameter[]</text><text fill="#000000" font-family="sans-serif" font-size="14" lengthAdjust="spacing" textLength="94" x="13" y="1204.792">name : string</text><line style="stroke:#181818;stroke-width:0.5;" x1="8" x2="192" y1="1212.0938" y2="1212.0938"/></g><!--class ScanModule--><g id="elem_ScanModule"><rect codeLine="27" fill="#F1F1F1" height="162.0781" id="ScanModule" rx="2.5" ry="2.5" style="stroke:#181818;stroke-width:0.5;" width="148" x="842" y="311"/><ellipse cx="870.05" cy="327" fill="#ADD1B2" rx="11" ry="11" style="stroke:#181818;stroke-width:1.0;"/><path d="M873.0344,332.6406 Q872.4563,332.9375 871.8156,333.0781 Q871.175,333.2344 870.4719,333.2344 Q867.9563,333.2344 866.6281,331.5938 Q865.3156,329.9375 865.3156,326.8125 Q865.3156,323.6719 866.6281,322.0313 Q867.9563,320.375 870.4719,320.375 Q871.175,320.375 871.8156,320.5313 Q872.4719,320.6719 873.0344,320.9688 L873.0344,323.6875 Q872.3938,323.1094 871.8,322.8438 Q871.2063,322.5781 870.5813,322.5781 Q869.2375,322.5781 868.55,323.6406 Q867.8625,324.7031 867.8625,326.8125 Q867.8625,328.9063 868.55,329.9844 Q869.2375,331.0469 870.5813,331.0469 Q871.2063,331.0469 871.8,330.7813 Q872.3938,330.5 873.0344,329.9219 L873.0344,332.6406 Z " fill="#000000"/><text fill="#000000" font-family="sans-serif" font-size="14" lengthAdjust="spacing" textLength="87" x="886.95" y="331.8467">ScanModule</text><line style="stroke:#181818;stroke-width:0.5;" x1="843" x2="989" y1="343" y2="343"/><text fill="#000000" font-family="sans-serif" font-size="14" lengthAdjust="spacing" textLength="94" x="848" y="359.9951">name : string</text><text fill="#000000" font-family="sans-serif" font-size="14" lengthAdjust="spacing" textLength="97" x="848" y="376.292">xpos : integer</text><text fill="#000000" font-family="sans-serif" font-size="14" lengthAdjust="spacing" textLength="97" x="848" y="392.5889">ypos : integer</text><text fill="#000000" font-family="sans-serif" font-size="14" lengthAdjust="spacing" textLength="111" x="848" y="408.8857">parent : integer</text><text fill="#000000" font-family="sans-serif" font-size="14" lengthAdjust="spacing" textLength="112" x="848" y="425.1826">nested : integer</text><text fill="#000000" font-family="sans-serif" font-size="14" lengthAdjust="spacing" textLength="136" x="848" y="441.4795">appended : integer</text><text fill="#000000" font-family="sans-serif" font-size="14" lengthAdjust="spacing" textLength="77" x="848" y="457.7764">id : integer</text><line style="stroke:#181818;stroke-width:0.5;" x1="843" x2="989" y1="465.0781" y2="465.0781"/></g><!--class PauseCondition--><g id="elem_PauseCondition"><rect fill="#F1F1F1" height="48" id="PauseCondition" rx="2.5" ry="2.5" style="stroke:#181818;stroke-width:0.5;" width="142" x="1612" y="368"/><ellipse cx="1627" cy="384" fill="#ADD1B2" rx="11" ry="11" style="stroke:#181818;stroke-width:1.0;"/><path d="M1629.9844,389.6406 Q1629.4063,389.9375 1628.7656,390.0781 Q1628.125,390.2344 1627.4219,390.2344 Q1624.9063,390.2344 1623.5781,388.5938 Q1622.2656,386.9375 1622.2656,383.8125 Q1622.2656,380.6719 1623.5781,379.0313 Q1624.9063,377.375 1627.4219,377.375 Q1628.125,377.375 1628.7656,377.5313 Q1629.4219,377.6719 1629.9844,377.9688 L1629.9844,380.6875 Q1629.3438,380.1094 1628.75,379.8438 Q1628.1563,379.5781 1627.5313,379.5781 Q1626.1875,379.5781 1625.5,380.6406 Q1624.8125,381.7031 1624.8125,383.8125 Q1624.8125,385.9063 1625.5,386.9844 Q1626.1875,388.0469 1627.5313,388.0469 Q1628.1563,388.0469 1628.75,387.7813 Q1629.3438,387.5 1629.9844,386.9219 L1629.9844,389.6406 Z " fill="#000000"/><text fill="#000000" font-family="sans-serif" font-size="14" lengthAdjust="spacing" textLength="110" x="1641" y="388.8467">PauseCondition</text><line style="stroke:#181818;stroke-width:0.5;" x1="1613" x2="1753" y1="400" y2="400"/><line style="stroke:#181818;stroke-width:0.5;" x1="1613" x2="1753" y1="408" y2="408"/></g><!--class Event--><g id="elem_Event"><rect fill="#F1F1F1" height="48" id="Event" rx="2.5" ry="2.5" style="stroke:#181818;stroke-width:0.5;" width="72" x="1523" y="1156"/><ellipse cx="1538" cy="1172" fill="#ADD1B2" rx="11" ry="11" style="stroke:#181818;stroke-width:1.0;"/><path d="M1540.9844,1177.6406 Q1540.4063,1177.9375 1539.7656,1178.0781 Q1539.125,1178.2344 1538.4219,1178.2344 Q1535.9063,1178.2344 1534.5781,1176.5938 Q1533.2656,1174.9375 1533.2656,1171.8125 Q1533.2656,1168.6719 1534.5781,1167.0313 Q1535.9063,1165.375 1538.4219,1165.375 Q1539.125,1165.375 1539.7656,1165.5313 Q1540.4219,1165.6719 1540.9844,1165.9688 L1540.9844,1168.6875 Q1540.3438,1168.1094 1539.75,1167.8438 Q1539.1563,1167.5781 1538.5313,1167.5781 Q1537.1875,1167.5781 1536.5,1168.6406 Q1535.8125,1169.7031 1535.8125,1171.8125 Q1535.8125,1173.9063 1536.5,1174.9844 Q1537.1875,1176.0469 1538.5313,1176.0469 Q1539.1563,1176.0469 1539.75,1175.7813 Q1540.3438,1175.5 1540.9844,1174.9219 L1540.9844,1177.6406 Z " fill="#000000"/><text fill="#000000" font-family="sans-serif" font-size="14" lengthAdjust="spacing" textLength="40" x="1552" y="1176.8467">Event</text><line style="stroke:#181818;stroke-width:0.5;" x1="1524" x2="1594" y1="1188" y2="1188"/><line style="stroke:#181818;stroke-width:0.5;" x1="1524" x2="1594" y1="1196" y2="1196"/></g><g id="elem_GMN11"><path d="M1625.5,651 L1625.5,691.2656 A0,0 0 0 0 1625.5,691.2656 L1740.5,691.2656 A0,0 0 0 0 1740.5,691.2656 L1740.5,661 L1730.5,651 L1687,651 L1683,416.14 L1679,651 L1625.5,651 A0,0 0 0 0 1625.5,651 " fill="#FEFFDD" style="stroke:#181818;stroke-width:0.5;"/><path d="M1730.5,651 L1730.5,661 L1740.5,661 L1730.5,651 " fill="#FEFFDD" style="stroke:#181818;stroke-width:0.5;"/><text fill="#000000" font-family="sans-serif" font-size="13" lengthAdjust="spacing" textLength="85" x="1631.5" y="668.0669">See separate</text><text fill="#000000" font-family="sans-serif" font-size="13" lengthAdjust="spacing" textLength="94" x="1631.5" y="683.1997">event module.</text></g><!--class File--><g id="elem_File"><rect fill="#F1F1F1" height="48" id="File" rx="2.5" ry="2.5" style="stroke:#181818;stroke-width:0.5;" width="57" x="1066.5" y="105"/><ellipse cx="1081.5" cy="121" fill="#ADD1B2" rx="11" ry="11" style="stroke:#181818;stroke-width:1.0;"/><path d="M1084.4844,126.6406 Q1083.9063,126.9375 1083.2656,127.0781 Q1082.625,127.2344 1081.9219,127.2344 Q1079.4063,127.2344 1078.0781,125.5938 Q1076.7656,123.9375 1076.7656,120.8125 Q1076.7656,117.6719 1078.0781,116.0313 Q1079.4063,114.375 1081.9219,114.375 Q1082.625,114.375 1083.2656,114.5313 Q1083.9219,114.6719 1084.4844,114.9688 L1084.4844,117.6875 Q1083.8438,117.1094 1083.25,116.8438 Q1082.6563,116.5781 1082.0313,116.5781 Q1080.6875,116.5781 1080,117.6406 Q1079.3125,118.7031 1079.3125,120.8125 Q1079.3125,122.9063 1080,123.9844 Q1080.6875,125.0469 1082.0313,125.0469 Q1082.6563,125.0469 1083.25,124.7813 Q1083.8438,124.5 1084.4844,123.9219 L1084.4844,126.6406 Z " fill="#000000"/><text fill="#000000" font-family="sans-serif" font-size="14" lengthAdjust="spacing" textLength="25" x="1095.5" y="125.8467">File</text><line style="stroke:#181818;stroke-width:0.5;" x1="1067.5" x2="1122.5" y1="137" y2="137"/><line style="stroke:#181818;stroke-width:0.5;" x1="1067.5" x2="1122.5" y1="145" y2="145"/></g><g id="elem_GMN16"><path d="M925,109 L925,149.2656 A0,0 0 0 0 925,149.2656 L1031,149.2656 A0,0 0 0 0 1031,149.2656 L1031,133 L1066.01,129 L1031,125 L1031,119 L1021,109 L925,109 A0,0 0 0 0 925,109 " fill="#FEFFDD" style="stroke:#181818;stroke-width:0.5;"/><path d="M1021,109 L1021,119 L1031,119 L1021,109 " fill="#FEFFDD" style="stroke:#181818;stroke-width:0.5;"/><text fill="#000000" font-family="sans-serif" font-size="13" lengthAdjust="spacing" textLength="85" x="931" y="126.0669">See separate</text><text fill="#000000" font-family="sans-serif" font-size="13" lengthAdjust="spacing" textLength="78" x="931" y="141.1997">file module.</text></g><!--class ClassicScanModule--><g id="elem_ClassicScanModule"><rect codeLine="66" fill="#F1F1F1" height="276.1563" id="ClassicScanModule" rx="2.5" ry="2.5" style="stroke:#181818;stroke-width:0.5;" width="243" x="914.5" y="533"/><ellipse cx="963.75" cy="549" fill="#ADD1B2" rx="11" ry="11" style="stroke:#181818;stroke-width:1.0;"/><path d="M966.7344,554.6406 Q966.1563,554.9375 965.5156,555.0781 Q964.875,555.2344 964.1719,555.2344 Q961.6563,555.2344 960.3281,553.5938 Q959.0156,551.9375 959.0156,548.8125 Q959.0156,545.6719 960.3281,544.0313 Q961.6563,542.375 964.1719,542.375 Q964.875,542.375 965.5156,542.5313 Q966.1719,542.6719 966.7344,542.9688 L966.7344,545.6875 Q966.0938,545.1094 965.5,544.8438 Q964.9063,544.5781 964.2813,544.5781 Q962.9375,544.5781 962.25,545.6406 Q961.5625,546.7031 961.5625,548.8125 Q961.5625,550.9063 962.25,551.9844 Q962.9375,553.0469 964.2813,553.0469 Q964.9063,553.0469 965.5,552.7813 Q966.0938,552.5 966.7344,551.9219 L966.7344,554.6406 Z " fill="#000000"/><text fill="#000000" font-family="sans-serif" font-size="14" lengthAdjust="spacing" textLength="136" x="984.25" y="553.8467">ClassicScanModule</text><line style="stroke:#181818;stroke-width:0.5;" x1="915.5" x2="1156.5" y1="565" y2="565"/><text fill="#000000" font-family="sans-serif" font-size="14" lengthAdjust="spacing" textLength="143" x="920.5" y="581.9951">valuecount : integer</text><text fill="#000000" font-family="sans-serif" font-size="14" lengthAdjust="spacing" textLength="116" x="920.5" y="598.292">settletime : float</text><text fill="#000000" font-family="sans-serif" font-size="14" lengthAdjust="spacing" textLength="132" x="920.5" y="614.5889">triggerdelay : float</text><text fill="#000000" font-family="sans-serif" font-size="14" lengthAdjust="spacing" textLength="202" x="920.5" y="630.8857">triggerconfirmaxis : boolean</text><text fill="#000000" font-family="sans-serif" font-size="14" lengthAdjust="spacing" textLength="231" x="920.5" y="647.1826">triggerconfirmchannel : boolean</text><text fill="#000000" font-family="sans-serif" font-size="14" lengthAdjust="spacing" textLength="158" x="920.5" y="663.4795">triggerevents : Event[]</text><text fill="#000000" font-family="sans-serif" font-size="14" lengthAdjust="spacing" textLength="143" x="920.5" y="679.7764">redoevents : Event[]</text><text fill="#000000" font-family="sans-serif" font-size="14" lengthAdjust="spacing" textLength="151" x="920.5" y="696.0732">breakevents : Event[]</text><text fill="#000000" font-family="sans-serif" font-size="14" lengthAdjust="spacing" textLength="145" x="920.5" y="712.3701">prescans : PreScan[]</text><text fill="#000000" font-family="sans-serif" font-size="14" lengthAdjust="spacing" textLength="85" x="920.5" y="728.667">axes : Axis[]</text><text fill="#000000" font-family="sans-serif" font-size="14" lengthAdjust="spacing" textLength="146" x="920.5" y="744.9639">channels : Channel[]</text><text fill="#000000" font-family="sans-serif" font-size="14" lengthAdjust="spacing" textLength="157" x="920.5" y="761.2607">postscans : PostScan[]</text><text fill="#000000" font-family="sans-serif" font-size="14" lengthAdjust="spacing" textLength="185" x="920.5" y="777.5576">positionings : Positioning[]</text><text fill="#000000" font-family="sans-serif" font-size="14" lengthAdjust="spacing" textLength="83" x="920.5" y="793.8545">plots : Plot[]</text><line style="stroke:#181818;stroke-width:0.5;" x1="915.5" x2="1156.5" y1="801.1563" y2="801.1563"/></g><!--class StaticAxisSnapshot--><g id="elem_StaticAxisSnapshot"><rect codeLine="110" fill="#F1F1F1" height="64.2969" id="StaticAxisSnapshot" rx="2.5" ry="2.5" style="stroke:#181818;stroke-width:0.5;" width="167" x="712.5" y="639"/><ellipse cx="727.5" cy="655" fill="#ADD1B2" rx="11" ry="11" style="stroke:#181818;stroke-width:1.0;"/><path d="M730.4844,660.6406 Q729.9063,660.9375 729.2656,661.0781 Q728.625,661.2344 727.9219,661.2344 Q725.4063,661.2344 724.0781,659.5938 Q722.7656,657.9375 722.7656,654.8125 Q722.7656,651.6719 724.0781,650.0313 Q725.4063,648.375 727.9219,648.375 Q728.625,648.375 729.2656,648.5313 Q729.9219,648.6719 730.4844,648.9688 L730.4844,651.6875 Q729.8438,651.1094 729.25,650.8438 Q728.6563,650.5781 728.0313,650.5781 Q726.6875,650.5781 726,651.6406 Q725.3125,652.7031 725.3125,654.8125 Q725.3125,656.9063 726,657.9844 Q726.6875,659.0469 728.0313,659.0469 Q728.6563,659.0469 729.25,658.7813 Q729.8438,658.5 730.4844,657.9219 L730.4844,660.6406 Z " fill="#000000"/><text fill="#000000" font-family="sans-serif" font-size="14" lengthAdjust="spacing" textLength="135" x="741.5" y="659.8467">StaticAxisSnapshot</text><line style="stroke:#181818;stroke-width:0.5;" x1="713.5" x2="878.5" y1="671" y2="671"/><text fill="#000000" font-family="sans-serif" font-size="14" lengthAdjust="spacing" textLength="85" x="718.5" y="687.9951">axes : Axis[]</text><line style="stroke:#181818;stroke-width:0.5;" x1="713.5" x2="878.5" y1="695.2969" y2="695.2969"/></g><!--class StaticChannelSnapshot--><g id="elem_StaticChannelSnapshot"><rect codeLine="115" fill="#F1F1F1" height="64.2969" id="StaticChannelSnapshot" rx="2.5" ry="2.5" style="stroke:#181818;stroke-width:0.5;" width="197" x="1223.5" y="639"/><ellipse cx="1238.5" cy="655" fill="#ADD1B2" rx="11" ry="11" style="stroke:#181818;stroke-width:1.0;"/><path d="M1241.4844,660.6406 Q1240.9063,660.9375 1240.2656,661.0781 Q1239.625,661.2344 1238.9219,661.2344 Q1236.4063,661.2344 1235.0781,659.5938 Q1233.7656,657.9375 1233.7656,654.8125 Q1233.7656,651.6719 1235.0781,650.0313 Q1236.4063,648.375 1238.9219,648.375 Q1239.625,648.375 1240.2656,648.5313 Q1240.9219,648.6719 1241.4844,648.9688 L1241.4844,651.6875 Q1240.8438,651.1094 1240.25,650.8438 Q1239.6563,650.5781 1239.0313,650.5781 Q1237.6875,650.5781 1237,651.6406 Q1236.3125,652.7031 1236.3125,654.8125 Q1236.3125,656.9063 1237,657.9844 Q1237.6875,659.0469 1239.0313,659.0469 Q1239.6563,659.0469 1240.25,658.7813 Q1240.8438,658.5 1241.4844,657.9219 L1241.4844,660.6406 Z " fill="#000000"/><text fill="#000000" font-family="sans-serif" font-size="14" lengthAdjust="spacing" textLength="165" x="1252.5" y="659.8467">StaticChannelSnapshot</text><line style="stroke:#181818;stroke-width:0.5;" x1="1224.5" x2="1419.5" y1="671" y2="671"/><text fill="#000000" font-family="sans-serif" font-size="14" lengthAdjust="spacing" textLength="146" x="1229.5" y="687.9951">channels : Channel[]</text><line style="stroke:#181818;stroke-width:0.5;" x1="1224.5" x2="1419.5" y1="695.2969" y2="695.2969"/></g><!--class DynamicAxisSnapshot--><g id="elem_DynamicAxisSnapshot"><rect codeLine="104" fill="#F1F1F1" height="48" id="DynamicAxisSnapshot" rx="2.5" ry="2.5" style="stroke:#181818;stroke-width:0.5;" width="190" x="232" y="647"/><ellipse cx="247" cy="663" fill="#ADD1B2" rx="11" ry="11" style="stroke:#181818;stroke-width:1.0;"/><path d="M249.9844,668.6406 Q249.4063,668.9375 248.7656,669.0781 Q248.125,669.2344 247.4219,669.2344 Q244.9063,669.2344 243.5781,667.5938 Q242.2656,665.9375 242.2656,662.8125 Q242.2656,659.6719 243.5781,658.0313 Q244.9063,656.375 247.4219,656.375 Q248.125,656.375 248.7656,656.5313 Q249.4219,656.6719 249.9844,656.9688 L249.9844,659.6875 Q249.3438,659.1094 248.75,658.8438 Q248.1563,658.5781 247.5313,658.5781 Q246.1875,658.5781 245.5,659.6406 Q244.8125,660.7031 244.8125,662.8125 Q244.8125,664.9063 245.5,665.9844 Q246.1875,667.0469 247.5313,667.0469 Q248.1563,667.0469 248.75,666.7813 Q249.3438,666.5 249.9844,665.9219 L249.9844,668.6406 Z " fill="#000000"/><text fill="#000000" font-family="sans-serif" font-size="14" lengthAdjust="spacing" textLength="158" x="261" y="667.8467">DynamicAxisSnapshot</text><line style="stroke:#181818;stroke-width:0.5;" x1="233" x2="421" y1="679" y2="679"/><line style="stroke:#181818;stroke-width:0.5;" x1="233" x2="421" y1="687" y2="687"/></g><!--class DynamicChannelSnapshot--><g id="elem_DynamicChannelSnapshot"><rect codeLine="107" fill="#F1F1F1" height="48" id="DynamicChannelSnapshot" rx="2.5" ry="2.5" style="stroke:#181818;stroke-width:0.5;" width="220" x="457" y="647"/><ellipse cx="472" cy="663" fill="#ADD1B2" rx="11" ry="11" style="stroke:#181818;stroke-width:1.0;"/><path d="M474.9844,668.6406 Q474.4063,668.9375 473.7656,669.0781 Q473.125,669.2344 472.4219,669.2344 Q469.9063,669.2344 468.5781,667.5938 Q467.2656,665.9375 467.2656,662.8125 Q467.2656,659.6719 468.5781,658.0313 Q469.9063,656.375 472.4219,656.375 Q473.125,656.375 473.7656,656.5313 Q474.4219,656.6719 474.9844,656.9688 L474.9844,659.6875 Q474.3438,659.1094 473.75,658.8438 Q473.1563,658.5781 472.5313,658.5781 Q471.1875,658.5781 470.5,659.6406 Q469.8125,660.7031 469.8125,662.8125 Q469.8125,664.9063 470.5,665.9844 Q471.1875,667.0469 472.5313,667.0469 Q473.1563,667.0469 473.75,666.7813 Q474.3438,666.5 474.9844,665.9219 L474.9844,668.6406 Z " fill="#000000"/><text fill="#000000" font-family="sans-serif" font-size="14" lengthAdjust="spacing" textLength="188" x="486" y="667.8467">DynamicChannelSnapshot</text><line style="stroke:#181818;stroke-width:0.5;" x1="458" x2="676" y1="679" y2="679"/><line style="stroke:#181818;stroke-width:0.5;" x1="458" x2="676" y1="687" y2="687"/></g><!--class Parameter--><g id="elem_Parameter"><rect codeLine="53" fill="#F1F1F1" height="80.5938" id="Parameter" rx="2.5" ry="2.5" style="stroke:#181818;stroke-width:0.5;" width="107" x="46.5" y="1313"/><ellipse cx="61.5" cy="1329" fill="#ADD1B2" rx="11" ry="11" style="stroke:#181818;stroke-width:1.0;"/><path d="M64.4844,1334.6406 Q63.9063,1334.9375 63.2656,1335.0781 Q62.625,1335.2344 61.9219,1335.2344 Q59.4063,1335.2344 58.0781,1333.5938 Q56.7656,1331.9375 56.7656,1328.8125 Q56.7656,1325.6719 58.0781,1324.0313 Q59.4063,1322.375 61.9219,1322.375 Q62.625,1322.375 63.2656,1322.5313 Q63.9219,1322.6719 64.4844,1322.9688 L64.4844,1325.6875 Q63.8438,1325.1094 63.25,1324.8438 Q62.6563,1324.5781 62.0313,1324.5781 Q60.6875,1324.5781 60,1325.6406 Q59.3125,1326.7031 59.3125,1328.8125 Q59.3125,1330.9063 60,1331.9844 Q60.6875,1333.0469 62.0313,1333.0469 Q62.6563,1333.0469 63.25,1332.7813 Q63.8438,1332.5 64.4844,1331.9219 L64.4844,1334.6406 Z " fill="#000000"/><text fill="#000000" font-family="sans-serif" font-size="14" lengthAdjust="spacing" textLength="75" x="75.5" y="1333.8467">Parameter</text><line style="stroke:#181818;stroke-width:0.5;" x1="47.5" x2="152.5" y1="1345" y2="1345"/><text fill="#000000" font-family="sans-serif" font-size="14" lengthAdjust="spacing" textLength="92" x="52.5" y="1361.9951">value : string</text><text fill="#000000" font-family="sans-serif" font-size="14" lengthAdjust="spacing" textLength="94" x="52.5" y="1378.292">name : string</text><line style="stroke:#181818;stroke-width:0.5;" x1="47.5" x2="152.5" y1="1385.5938" y2="1385.5938"/></g><!--class IntervalChannel--><g id="elem_IntervalChannel"><rect codeLine="48" fill="#F1F1F1" height="80.5938" id="IntervalChannel" rx="2.5" ry="2.5" style="stroke:#181818;stroke-width:0.5;" width="159" x="1095.5" y="1139.5"/><ellipse cx="1116.8" cy="1155.5" fill="#ADD1B2" rx="11" ry="11" style="stroke:#181818;stroke-width:1.0;"/><path d="M1119.7844,1161.1406 Q1119.2063,1161.4375 1118.5656,1161.5781 Q1117.925,1161.7344 1117.2219,1161.7344 Q1114.7063,1161.7344 1113.3781,1160.0938 Q1112.0656,1158.4375 1112.0656,1155.3125 Q1112.0656,1152.1719 1113.3781,1150.5313 Q1114.7063,1148.875 1117.2219,1148.875 Q1117.925,1148.875 1118.5656,1149.0313 Q1119.2219,1149.1719 1119.7844,1149.4688 L1119.7844,1152.1875 Q1119.1438,1151.6094 1118.55,1151.3438 Q1117.9563,1151.0781 1117.3313,1151.0781 Q1115.9875,1151.0781 1115.3,1152.1406 Q1114.6125,1153.2031 1114.6125,1155.3125 Q1114.6125,1157.4063 1115.3,1158.4844 Q1115.9875,1159.5469 1117.3313,1159.5469 Q1117.9563,1159.5469 1118.55,1159.2813 Q1119.1438,1159 1119.7844,1158.4219 L1119.7844,1161.1406 Z " fill="#000000"/><text fill="#000000" font-family="sans-serif" font-size="14" lengthAdjust="spacing" textLength="113" x="1132.2" y="1160.3467">IntervalChannel</text><line style="stroke:#181818;stroke-width:0.5;" x1="1096.5" x2="1253.5" y1="1171.5" y2="1171.5"/><text fill="#000000" font-family="sans-serif" font-size="14" lengthAdjust="spacing" textLength="147" x="1101.5" y="1188.4951">triggerinterval : float</text><text fill="#000000" font-family="sans-serif" font-size="14" lengthAdjust="spacing" textLength="127" x="1101.5" y="1204.792">stoppedby : string</text><line style="stroke:#181818;stroke-width:0.5;" x1="1096.5" x2="1253.5" y1="1212.0938" y2="1212.0938"/></g><!--class Positioning--><g id="elem_Positioning"><rect codeLine="58" fill="#F1F1F1" height="113.1875" id="Positioning" rx="2.5" ry="2.5" style="stroke:#181818;stroke-width:0.5;" width="156" x="234" y="901.5"/><ellipse cx="270.15" cy="917.5" fill="#ADD1B2" rx="11" ry="11" style="stroke:#181818;stroke-width:1.0;"/><path d="M273.1344,923.1406 Q272.5563,923.4375 271.9156,923.5781 Q271.275,923.7344 270.5719,923.7344 Q268.0563,923.7344 266.7281,922.0938 Q265.4156,920.4375 265.4156,917.3125 Q265.4156,914.1719 266.7281,912.5313 Q268.0563,910.875 270.5719,910.875 Q271.275,910.875 271.9156,911.0313 Q272.5719,911.1719 273.1344,911.4688 L273.1344,914.1875 Q272.4938,913.6094 271.9,913.3438 Q271.3063,913.0781 270.6813,913.0781 Q269.3375,913.0781 268.65,914.1406 Q267.9625,915.2031 267.9625,917.3125 Q267.9625,919.4063 268.65,920.4844 Q269.3375,921.5469 270.6813,921.5469 Q271.3063,921.5469 271.9,921.2813 Q272.4938,921 273.1344,920.4219 L273.1344,923.1406 Z " fill="#000000"/><text fill="#000000" font-family="sans-serif" font-size="14" lengthAdjust="spacing" textLength="77" x="288.85" y="922.3467">Positioning</text><line style="stroke:#181818;stroke-width:0.5;" x1="235" x2="389" y1="933.5" y2="933.5"/><text fill="#000000" font-family="sans-serif" font-size="14" lengthAdjust="spacing" textLength="101" x="240" y="950.4951">axis_id : string</text><text fill="#000000" font-family="sans-serif" font-size="14" lengthAdjust="spacing" textLength="130" x="240" y="966.792">channel_id : string</text><text fill="#000000" font-family="sans-serif" font-size="14" lengthAdjust="spacing" textLength="144" x="240" y="983.0889">normalize_id : string</text><text fill="#000000" font-family="sans-serif" font-size="14" lengthAdjust="spacing" textLength="128" x="240" y="999.3857">plugin : Controller</text><line style="stroke:#181818;stroke-width:0.5;" x1="235" x2="389" y1="1006.6875" y2="1006.6875"/></g><!--class PreScan--><g id="elem_PreScan"><rect codeLine="93" fill="#F1F1F1" height="80.5938" id="PreScan" rx="2.5" ry="2.5" style="stroke:#181818;stroke-width:0.5;" width="134" x="818" y="917.5"/><ellipse cx="852.8" cy="933.5" fill="#ADD1B2" rx="11" ry="11" style="stroke:#181818;stroke-width:1.0;"/><path d="M855.7844,939.1406 Q855.2063,939.4375 854.5656,939.5781 Q853.925,939.7344 853.2219,939.7344 Q850.7063,939.7344 849.3781,938.0938 Q848.0656,936.4375 848.0656,933.3125 Q848.0656,930.1719 849.3781,928.5313 Q850.7063,926.875 853.2219,926.875 Q853.925,926.875 854.5656,927.0313 Q855.2219,927.1719 855.7844,927.4688 L855.7844,930.1875 Q855.1438,929.6094 854.55,929.3438 Q853.9563,929.0781 853.3313,929.0781 Q851.9875,929.0781 851.3,930.1406 Q850.6125,931.2031 850.6125,933.3125 Q850.6125,935.4063 851.3,936.4844 Q851.9875,937.5469 853.3313,937.5469 Q853.9563,937.5469 854.55,937.2813 Q855.1438,937 855.7844,936.4219 L855.7844,939.1406 Z " fill="#000000"/><text fill="#000000" font-family="sans-serif" font-size="14" lengthAdjust="spacing" textLength="58" x="871.2" y="938.3467">PreScan</text><line style="stroke:#181818;stroke-width:0.5;" x1="819" x2="951" y1="949.5" y2="949.5"/><text fill="#000000" font-family="sans-serif" font-size="14" lengthAdjust="spacing" textLength="66" x="824" y="966.4951">id : string</text><text fill="#000000" font-family="sans-serif" font-size="14" lengthAdjust="spacing" textLength="122" x="824" y="982.792">value : typevalue</text><line style="stroke:#181818;stroke-width:0.5;" x1="819" x2="951" y1="990.0938" y2="990.0938"/></g><!--class Axis--><g id="elem_Axis"><rect codeLine="120" fill="#F1F1F1" height="178.375" id="Axis" rx="2.5" ry="2.5" style="stroke:#181818;stroke-width:0.5;" width="216" x="474" y="869"/><ellipse cx="563.25" cy="885" fill="#ADD1B2" rx="11" ry="11" style="stroke:#181818;stroke-width:1.0;"/><path d="M566.2344,890.6406 Q565.6563,890.9375 565.0156,891.0781 Q564.375,891.2344 563.6719,891.2344 Q561.1563,891.2344 559.8281,889.5938 Q558.5156,887.9375 558.5156,884.8125 Q558.5156,881.6719 559.8281,880.0313 Q561.1563,878.375 563.6719,878.375 Q564.375,878.375 565.0156,878.5313 Q565.6719,878.6719 566.2344,878.9688 L566.2344,881.6875 Q565.5938,881.1094 565,880.8438 Q564.4063,880.5781 563.7813,880.5781 Q562.4375,880.5781 561.75,881.6406 Q561.0625,882.7031 561.0625,884.8125 Q561.0625,886.9063 561.75,887.9844 Q562.4375,889.0469 563.7813,889.0469 Q564.4063,889.0469 565,888.7813 Q565.5938,888.5 566.2344,887.9219 L566.2344,890.6406 Z " fill="#000000"/><text fill="#000000" font-family="sans-serif" font-size="14" lengthAdjust="spacing" textLength="29" x="583.75" y="889.8467">Axis</text><line style="stroke:#181818;stroke-width:0.5;" x1="475" x2="689" y1="901" y2="901"/><text fill="#000000" font-family="sans-serif" font-size="14" lengthAdjust="spacing" textLength="101" x="480" y="917.9951">axis_id : string</text><text fill="#000000" font-family="sans-serif" font-size="14" lengthAdjust="spacing" textLength="194" x="480" y="934.292">stepfunction : StepFunction</text><text fill="#000000" font-family="sans-serif" font-size="14" lengthAdjust="spacing" textLength="204" x="480" y="950.5889">positionmode : PositionMode</text><text fill="#000000" font-family="sans-serif" font-size="14" lengthAdjust="spacing" textLength="203" x="480" y="966.8857">startstopstep : StartStopStep</text><text fill="#000000" font-family="sans-serif" font-size="14" lengthAdjust="spacing" textLength="146" x="480" y="983.1826">stepfilename : string</text><text fill="#000000" font-family="sans-serif" font-size="14" lengthAdjust="spacing" textLength="128" x="480" y="999.4795">plugin : Controller</text><text fill="#000000" font-family="sans-serif" font-size="14" lengthAdjust="spacing" textLength="129" x="480" y="1015.7764">positionlist : string</text><text fill="#000000" font-family="sans-serif" font-size="14" lengthAdjust="spacing" textLength="194" x="480" y="1032.0732">range : StepFunctionRange</text><line style="stroke:#181818;stroke-width:0.5;" x1="475" x2="689" y1="1039.375" y2="1039.375"/></g><!--class Channel--><g id="elem_Channel"><rect codeLine="141" fill="#F1F1F1" height="113.1875" id="Channel" rx="2.5" ry="2.5" style="stroke:#181818;stroke-width:0.5;" width="193" x="1241.5" y="901.5"/><ellipse cx="1304.25" cy="917.5" fill="#ADD1B2" rx="11" ry="11" style="stroke:#181818;stroke-width:1.0;"/><path d="M1307.2344,923.1406 Q1306.6563,923.4375 1306.0156,923.5781 Q1305.375,923.7344 1304.6719,923.7344 Q1302.1563,923.7344 1300.8281,922.0938 Q1299.5156,920.4375 1299.5156,917.3125 Q1299.5156,914.1719 1300.8281,912.5313 Q1302.1563,910.875 1304.6719,910.875 Q1305.375,910.875 1306.0156,911.0313 Q1306.6719,911.1719 1307.2344,911.4688 L1307.2344,914.1875 Q1306.5938,913.6094 1306,913.3438 Q1305.4063,913.0781 1304.7813,913.0781 Q1303.4375,913.0781 1302.75,914.1406 Q1302.0625,915.2031 1302.0625,917.3125 Q1302.0625,919.4063 1302.75,920.4844 Q1303.4375,921.5469 1304.7813,921.5469 Q1305.4063,921.5469 1306,921.2813 Q1306.5938,921 1307.2344,920.4219 L1307.2344,923.1406 Z " fill="#000000"/><text fill="#000000" font-family="sans-serif" font-size="14" lengthAdjust="spacing" textLength="59" x="1324.75" y="922.3467">Channel</text><line style="stroke:#181818;stroke-width:0.5;" x1="1242.5" x2="1433.5" y1="933.5" y2="933.5"/><text fill="#000000" font-family="sans-serif" font-size="14" lengthAdjust="spacing" textLength="123" x="1247.5" y="950.4951">channelid : string</text><text fill="#000000" font-family="sans-serif" font-size="14" lengthAdjust="spacing" textLength="144" x="1247.5" y="966.792">normalize_id : string</text><text fill="#000000" font-family="sans-serif" font-size="14" lengthAdjust="spacing" textLength="143" x="1247.5" y="983.0889">redoevents : Event[]</text><text fill="#000000" font-family="sans-serif" font-size="14" lengthAdjust="spacing" textLength="181" x="1247.5" y="999.3857">deferredtrigger : boolean</text><line style="stroke:#181818;stroke-width:0.5;" x1="1242.5" x2="1433.5" y1="1006.6875" y2="1006.6875"/></g><!--class PostScan--><g id="elem_PostScan"><rect codeLine="98" fill="#F1F1F1" height="96.8906" id="PostScan" rx="2.5" ry="2.5" style="stroke:#181818;stroke-width:0.5;" width="219" x="987.5" y="909.5"/><ellipse cx="1060.75" cy="925.5" fill="#ADD1B2" rx="11" ry="11" style="stroke:#181818;stroke-width:1.0;"/><path d="M1063.7344,931.1406 Q1063.1563,931.4375 1062.5156,931.5781 Q1061.875,931.7344 1061.1719,931.7344 Q1058.6563,931.7344 1057.3281,930.0938 Q1056.0156,928.4375 1056.0156,925.3125 Q1056.0156,922.1719 1057.3281,920.5313 Q1058.6563,918.875 1061.1719,918.875 Q1061.875,918.875 1062.5156,919.0313 Q1063.1719,919.1719 1063.7344,919.4688 L1063.7344,922.1875 Q1063.0938,921.6094 1062.5,921.3438 Q1061.9063,921.0781 1061.2813,921.0781 Q1059.9375,921.0781 1059.25,922.1406 Q1058.5625,923.2031 1058.5625,925.3125 Q1058.5625,927.4063 1059.25,928.4844 Q1059.9375,929.5469 1061.2813,929.5469 Q1061.9063,929.5469 1062.5,929.2813 Q1063.0938,929 1063.7344,928.4219 L1063.7344,931.1406 Z " fill="#000000"/><text fill="#000000" font-family="sans-serif" font-size="14" lengthAdjust="spacing" textLength="64" x="1081.25" y="930.3467">PostScan</text><line style="stroke:#181818;stroke-width:0.5;" x1="988.5" x2="1205.5" y1="941.5" y2="941.5"/><text fill="#000000" font-family="sans-serif" font-size="14" lengthAdjust="spacing" textLength="66" x="993.5" y="958.4951">id : string</text><text fill="#000000" font-family="sans-serif" font-size="14" lengthAdjust="spacing" textLength="122" x="993.5" y="974.792">value : typevalue</text><text fill="#000000" font-family="sans-serif" font-size="14" lengthAdjust="spacing" textLength="207" x="993.5" y="991.0889">reset_originalvalue : boolean</text><line style="stroke:#181818;stroke-width:0.5;" x1="988.5" x2="1205.5" y1="998.3906" y2="998.3906"/></g><!--class Plot--><g id="elem_Plot"><rect fill="#F1F1F1" height="48" id="Plot" rx="2.5" ry="2.5" style="stroke:#181818;stroke-width:0.5;" width="58" x="725" y="934"/><ellipse cx="740" cy="950" fill="#ADD1B2" rx="11" ry="11" style="stroke:#181818;stroke-width:1.0;"/><path d="M742.9844,955.6406 Q742.4063,955.9375 741.7656,956.0781 Q741.125,956.2344 740.4219,956.2344 Q737.9063,956.2344 736.5781,954.5938 Q735.2656,952.9375 735.2656,949.8125 Q735.2656,946.6719 736.5781,945.0313 Q737.9063,943.375 740.4219,943.375 Q741.125,943.375 741.7656,943.5313 Q742.4219,943.6719 742.9844,943.9688 L742.9844,946.6875 Q742.3438,946.1094 741.75,945.8438 Q741.1563,945.5781 740.5313,945.5781 Q739.1875,945.5781 738.5,946.6406 Q737.8125,947.7031 737.8125,949.8125 Q737.8125,951.9063 738.5,952.9844 Q739.1875,954.0469 740.5313,954.0469 Q741.1563,954.0469 741.75,953.7813 Q742.3438,953.5 742.9844,952.9219 L742.9844,955.6406 Z " fill="#000000"/><text fill="#000000" font-family="sans-serif" font-size="14" lengthAdjust="spacing" textLength="26" x="754" y="954.8467">Plot</text><line style="stroke:#181818;stroke-width:0.5;" x1="726" x2="782" y1="966" y2="966"/><line style="stroke:#181818;stroke-width:0.5;" x1="726" x2="782" y1="974" y2="974"/></g><g id="elem_GMN46"><path d="M954,1160 L954,1200.2656 L1060,1200.2656 L1060,1170 L1050,1160 L954,1160 " fill="#FEFFDD" style="stroke:#181818;stroke-width:0.5;"/><path d="M1050,1160 L1050,1170 L1060,1170 L1050,1160 " fill="#FEFFDD" style="stroke:#181818;stroke-width:1.0;"/><text fill="#000000" font-family="sans-serif" font-size="13" lengthAdjust="spacing" textLength="85" x="960" y="1177.0669">See separate</text><text fill="#000000" font-family="sans-serif" font-size="13" lengthAdjust="spacing" textLength="82" x="960" y="1192.1997">plot module.</text></g><g id="elem_GMN49"><path d="M1501.5,1333.5 L1501.5,1373.7656 A0,0 0 0 0 1501.5,1373.7656 L1616.5,1373.7656 A0,0 0 0 0 1616.5,1373.7656 L1616.5,1343.5 L1606.5,1333.5 L1563,1333.5 L1559,1204.13 L1555,1333.5 L1501.5,1333.5 A0,0 0 0 0 1501.5,1333.5 " fill="#FEFFDD" style="stroke:#181818;stroke-width:0.5;"/><path d="M1606.5,1333.5 L1606.5,1343.5 L1616.5,1343.5 L1606.5,1333.5 " fill="#FEFFDD" style="stroke:#181818;stroke-width:0.5;"/><text fill="#000000" font-family="sans-serif" font-size="13" lengthAdjust="spacing" textLength="85" x="1507.5" y="1350.5669">See separate</text><text fill="#000000" font-family="sans-serif" font-size="13" lengthAdjust="spacing" textLength="94" x="1507.5" y="1365.6997">event module.</text></g><!--class StepFunction--><g id="elem_StepFunction"><rect codeLine="166" fill="#F1F1F1" height="145.7813" id="StepFunction" rx="2.5" ry="2.5" style="stroke:#181818;stroke-width:0.5;" width="125" x="793.5" y="1107"/><ellipse cx="808.5" cy="1123" fill="#EB937F" rx="11" ry="11" style="stroke:#181818;stroke-width:1.0;"/><path d="M812.625,1129 L804.8906,1129 L804.8906,1116.5938 L812.625,1116.5938 L812.625,1118.75 L807.3438,1118.75 L807.3438,1121.4375 L812.125,1121.4375 L812.125,1123.5938 L807.3438,1123.5938 L807.3438,1126.8438 L812.625,1126.8438 L812.625,1129 Z " fill="#000000"/><text fill="#000000" font-family="sans-serif" font-size="14" lengthAdjust="spacing" textLength="93" x="822.5" y="1127.8467">StepFunction</text><line style="stroke:#181818;stroke-width:0.5;" x1="794.5" x2="917.5" y1="1139" y2="1139"/><text fill="#000000" font-family="sans-serif" font-size="14" lengthAdjust="spacing" textLength="28" x="799.5" y="1155.9951">Add</text><text fill="#000000" font-family="sans-serif" font-size="14" lengthAdjust="spacing" textLength="55" x="799.5" y="1172.292">Multiply</text><text fill="#000000" font-family="sans-serif" font-size="14" lengthAdjust="spacing" textLength="25" x="799.5" y="1188.5889">File</text><text fill="#000000" font-family="sans-serif" font-size="14" lengthAdjust="spacing" textLength="43" x="799.5" y="1204.8857">Plugin</text><text fill="#000000" font-family="sans-serif" font-size="14" lengthAdjust="spacing" textLength="75" x="799.5" y="1221.1826">Positionlist</text><text fill="#000000" font-family="sans-serif" font-size="14" lengthAdjust="spacing" textLength="46" x="799.5" y="1237.4795">Range</text><line style="stroke:#181818;stroke-width:0.5;" x1="794.5" x2="917.5" y1="1244.7813" y2="1244.7813"/></g><!--class PositionMode--><g id="elem_PositionMode"><rect codeLine="136" fill="#F1F1F1" height="80.5938" id="PositionMode" rx="2.5" ry="2.5" style="stroke:#181818;stroke-width:0.5;" width="126" x="228" y="1139.5"/><ellipse cx="243" cy="1155.5" fill="#EB937F" rx="11" ry="11" style="stroke:#181818;stroke-width:1.0;"/><path d="M247.125,1161.5 L239.3906,1161.5 L239.3906,1149.0938 L247.125,1149.0938 L247.125,1151.25 L241.8438,1151.25 L241.8438,1153.9375 L246.625,1153.9375 L246.625,1156.0938 L241.8438,1156.0938 L241.8438,1159.3438 L247.125,1159.3438 L247.125,1161.5 Z " fill="#000000"/><text fill="#000000" font-family="sans-serif" font-size="14" lengthAdjust="spacing" textLength="94" x="257" y="1160.3467">PositionMode</text><line style="stroke:#181818;stroke-width:0.5;" x1="229" x2="353" y1="1171.5" y2="1171.5"/><text fill="#000000" font-family="sans-serif" font-size="14" lengthAdjust="spacing" textLength="54" x="234" y="1188.4951">relative</text><text fill="#000000" font-family="sans-serif" font-size="14" lengthAdjust="spacing" textLength="61" x="234" y="1204.792">absolute</text><line style="stroke:#181818;stroke-width:0.5;" x1="229" x2="353" y1="1212.0938" y2="1212.0938"/></g><!--class StartStopStep--><g id="elem_StartStopStep"><rect codeLine="159" fill="#F1F1F1" height="113.1875" id="StartStopStep" rx="2.5" ry="2.5" style="stroke:#181818;stroke-width:0.5;" width="163" x="389.5" y="1123.5"/><ellipse cx="419.35" cy="1139.5" fill="#ADD1B2" rx="11" ry="11" style="stroke:#181818;stroke-width:1.0;"/><path d="M422.3344,1145.1406 Q421.7563,1145.4375 421.1156,1145.5781 Q420.475,1145.7344 419.7719,1145.7344 Q417.2563,1145.7344 415.9281,1144.0938 Q414.6156,1142.4375 414.6156,1139.3125 Q414.6156,1136.1719 415.9281,1134.5313 Q417.2563,1132.875 419.7719,1132.875 Q420.475,1132.875 421.1156,1133.0313 Q421.7719,1133.1719 422.3344,1133.4688 L422.3344,1136.1875 Q421.6938,1135.6094 421.1,1135.3438 Q420.5063,1135.0781 419.8813,1135.0781 Q418.5375,1135.0781 417.85,1136.1406 Q417.1625,1137.2031 417.1625,1139.3125 Q417.1625,1141.4063 417.85,1142.4844 Q418.5375,1143.5469 419.8813,1143.5469 Q420.5063,1143.5469 421.1,1143.2813 Q421.6938,1143 422.3344,1142.4219 L422.3344,1145.1406 Z " fill="#000000"/><text fill="#000000" font-family="sans-serif" font-size="14" lengthAdjust="spacing" textLength="98" x="436.65" y="1144.3467">StartStopStep</text><line style="stroke:#181818;stroke-width:0.5;" x1="390.5" x2="551.5" y1="1155.5" y2="1155.5"/><text fill="#000000" font-family="sans-serif" font-size="14" lengthAdjust="spacing" textLength="115" x="395.5" y="1172.4951">start : typevalue</text><text fill="#000000" font-family="sans-serif" font-size="14" lengthAdjust="spacing" textLength="113" x="395.5" y="1188.792">stop : typevalue</text><text fill="#000000" font-family="sans-serif" font-size="14" lengthAdjust="spacing" textLength="151" x="395.5" y="1205.0889">stepwidth : typevalue</text><text fill="#000000" font-family="sans-serif" font-size="14" lengthAdjust="spacing" textLength="146" x="395.5" y="1221.3857">ismainaxis : boolean</text><line style="stroke:#181818;stroke-width:0.5;" x1="390.5" x2="551.5" y1="1228.6875" y2="1228.6875"/></g><!--class StepFunctionRange--><g id="elem_StepFunctionRange"><rect codeLine="175" fill="#F1F1F1" height="80.5938" id="StepFunctionRange" rx="2.5" ry="2.5" style="stroke:#181818;stroke-width:0.5;" width="171" x="587.5" y="1139.5"/><ellipse cx="602.5" cy="1155.5" fill="#ADD1B2" rx="11" ry="11" style="stroke:#181818;stroke-width:1.0;"/><path d="M605.4844,1161.1406 Q604.9063,1161.4375 604.2656,1161.5781 Q603.625,1161.7344 602.9219,1161.7344 Q600.4063,1161.7344 599.0781,1160.0938 Q597.7656,1158.4375 597.7656,1155.3125 Q597.7656,1152.1719 599.0781,1150.5313 Q600.4063,1148.875 602.9219,1148.875 Q603.625,1148.875 604.2656,1149.0313 Q604.9219,1149.1719 605.4844,1149.4688 L605.4844,1152.1875 Q604.8438,1151.6094 604.25,1151.3438 Q603.6563,1151.0781 603.0313,1151.0781 Q601.6875,1151.0781 601,1152.1406 Q600.3125,1153.2031 600.3125,1155.3125 Q600.3125,1157.4063 601,1158.4844 Q601.6875,1159.5469 603.0313,1159.5469 Q603.6563,1159.5469 604.25,1159.2813 Q604.8438,1159 605.4844,1158.4219 L605.4844,1161.1406 Z " fill="#000000"/><text fill="#000000" font-family="sans-serif" font-size="14" lengthAdjust="spacing" textLength="139" x="616.5" y="1160.3467">StepFunctionRange</text><line style="stroke:#181818;stroke-width:0.5;" x1="588.5" x2="757.5" y1="1171.5" y2="1171.5"/><text fill="#000000" font-family="sans-serif" font-size="14" lengthAdjust="spacing" textLength="130" x="593.5" y="1188.4951">expression : string</text><text fill="#000000" font-family="sans-serif" font-size="14" lengthAdjust="spacing" textLength="129" x="593.5" y="1204.792">positionlist : string</text><line style="stroke:#181818;stroke-width:0.5;" x1="588.5" x2="757.5" y1="1212.0938" y2="1212.0938"/></g><!--class StandardChannel--><g id="elem_StandardChannel"><rect codeLine="151" fill="#F1F1F1" height="129.4844" id="StandardChannel" rx="2.5" ry="2.5" style="stroke:#181818;stroke-width:0.5;" width="198" x="1290" y="1115.5"/><ellipse cx="1323.9" cy="1131.5" fill="#ADD1B2" rx="11" ry="11" style="stroke:#181818;stroke-width:1.0;"/><path d="M1326.8844,1137.1406 Q1326.3063,1137.4375 1325.6656,1137.5781 Q1325.025,1137.7344 1324.3219,1137.7344 Q1321.8063,1137.7344 1320.4781,1136.0938 Q1319.1656,1134.4375 1319.1656,1131.3125 Q1319.1656,1128.1719 1320.4781,1126.5313 Q1321.8063,1124.875 1324.3219,1124.875 Q1325.025,1124.875 1325.6656,1125.0313 Q1326.3219,1125.1719 1326.8844,1125.4688 L1326.8844,1128.1875 Q1326.2438,1127.6094 1325.65,1127.3438 Q1325.0563,1127.0781 1324.4313,1127.0781 Q1323.0875,1127.0781 1322.4,1128.1406 Q1321.7125,1129.2031 1321.7125,1131.3125 Q1321.7125,1133.4063 1322.4,1134.4844 Q1323.0875,1135.5469 1324.4313,1135.5469 Q1325.0563,1135.5469 1325.65,1135.2813 Q1326.2438,1135 1326.8844,1134.4219 L1326.8844,1137.1406 Z " fill="#000000"/><text fill="#000000" font-family="sans-serif" font-size="14" lengthAdjust="spacing" textLength="124" x="1342.1" y="1136.3467">StandardChannel</text><line style="stroke:#181818;stroke-width:0.5;" x1="1291" x2="1487" y1="1147.5" y2="1147.5"/><text fill="#000000" font-family="sans-serif" font-size="14" lengthAdjust="spacing" textLength="163" x="1296" y="1164.4951">averagecount : integer</text><text fill="#000000" font-family="sans-serif" font-size="14" lengthAdjust="spacing" textLength="142" x="1296" y="1180.792">maxdeviation : float</text><text fill="#000000" font-family="sans-serif" font-size="14" lengthAdjust="spacing" textLength="113" x="1296" y="1197.0889">minimum : float</text><text fill="#000000" font-family="sans-serif" font-size="14" lengthAdjust="spacing" textLength="158" x="1296" y="1213.3857">maxattempts : integer</text><text fill="#000000" font-family="sans-serif" font-size="14" lengthAdjust="spacing" textLength="186" x="1296" y="1229.6826">sendreadyevent : boolean</text><line style="stroke:#181818;stroke-width:0.5;" x1="1291" x2="1487" y1="1236.9844" y2="1236.9844"/></g><!--reverse link Scan to Controller--><g id="link_Scan_Controller"><path codeLine="17" d="M1148.0089,247.8969 C1142.2489,251.1469 1146.87,248.27 1141,251 C1011.04,311.58 962.27,273.02 824,311 C545.8,387.41 399.47,312.01 214,533 C61.35,714.89 81.73,1029.01 94.55,1139.32 " fill="none" id="Scan-backto-Controller" style="stroke:#181818;stroke-width:1.0;"/><polygon fill="#181818" points="1158.46,242,1151.2688,241.4647,1148.0089,247.8969,1155.2001,248.4322,1158.46,242" style="stroke:#181818;stroke-width:1.0;"/></g><!--reverse link Scan to ScanModule--><g id="link_Scan_ScanModule"><path codeLine="18" d="M1148.54,245.6266 C1142.79,249.9266 1146.67,246.94 1141,251 C1092.26,285.87 1034.88,321.49 990.26,348.08 " fill="none" id="Scan-backto-ScanModule" style="stroke:#181818;stroke-width:1.0;"/><polygon fill="#181818" points="1158.15,238.44,1150.9494,238.83,1148.54,245.6266,1155.7405,245.2367,1158.15,238.44" style="stroke:#181818;stroke-width:1.0;"/><text fill="#000000" font-family="sans-serif" font-size="13" lengthAdjust="spacing" textLength="8" x="997.9637" y="340.0879">n</text></g><!--reverse link Scan to PauseCondition--><g id="link_Scan_PauseCondition"><path codeLine="19" d="M1429.9636,210.8411 C1482.3936,242.1411 1532.42,273.72 1585,311 C1610.26,328.91 1637.43,351.36 1656.73,367.92 " fill="none" id="Scan-backto-PauseCondition" style="stroke:#181818;stroke-width:1.0;"/><polygon fill="#181818" points="1419.66,204.69,1422.7614,211.2001,1429.9636,210.8411,1426.8622,204.331,1419.66,204.69" style="stroke:#181818;stroke-width:1.0;"/><text fill="#000000" font-family="sans-serif" font-size="13" lengthAdjust="spacing" textLength="8" x="1640.9733" y="356.9115">n</text></g><!--reverse link Scan to Event--><g id="link_Scan_Event"><path codeLine="20" d="M1342.8535,262.3568 C1374.0535,341.6568 1409.34,436.85 1438,533 C1481.77,679.82 1487.1,718.36 1515,869 C1534.75,975.63 1550.44,1104.33 1556.4,1155.95 " fill="none" id="Scan-backto-Event" style="stroke:#181818;stroke-width:1.0;"/><polygon fill="#181818" points="1338.46,251.19,1336.9345,258.2379,1342.8535,262.3568,1344.379,255.3089,1338.46,251.19" style="stroke:#181818;stroke-width:1.0;"/><text fill="#000000" font-family="sans-serif" font-size="13" lengthAdjust="spacing" textLength="8" x="1556.7588" y="1144.9492">n</text></g><!--reverse link File to Scan--><g id="link_File_Scan"><path codeLine="24" d="M1135.8,129 C1147.31,129 1146.81,129 1158.32,129 " fill="none" id="File-backto-Scan" style="stroke:#181818;stroke-width:1.0;"/><polygon fill="#181818" points="1123.8,129,1129.8,133,1135.8,129,1129.8,125,1123.8,129" style="stroke:#181818;stroke-width:1.0;"/></g><!--reverse link ScanModule to ClassicScanModule--><g id="link_ScanModule_ClassicScanModule"><path codeLine="36" d="M957.8642,489.6372 C965.9942,508.4072 967.73,512.42 976.61,532.91 " fill="none" id="ScanModule-backto-ClassicScanModule" style="stroke:#181818;stroke-width:1.0;"/><polygon fill="none" points="950.71,473.12,952.3585,492.0219,963.3699,487.2524,950.71,473.12" style="stroke:#181818;stroke-width:1.0;"/></g><!--reverse link ScanModule to StaticAxisSnapshot--><g id="link_ScanModule_StaticAxisSnapshot"><path codeLine="37" d="M874.1342,489.6365 C850.1842,544.9165 826.81,598.88 809.53,638.77 " fill="none" id="ScanModule-backto-StaticAxisSnapshot" style="stroke:#181818;stroke-width:1.0;"/><polygon fill="none" points="881.29,473.12,868.6287,487.2513,879.6397,492.0218,881.29,473.12" style="stroke:#181818;stroke-width:1.0;"/></g><!--reverse link ScanModule to StaticChannelSnapshot--><g id="link_ScanModule_StaticChannelSnapshot"><path codeLine="38" d="M1006.3262,434.6133 C1059.7862,460.4533 1116.36,490.88 1175,533 C1219.63,565.05 1264.98,609.52 1293.28,639 " fill="none" id="ScanModule-backto-StaticChannelSnapshot" style="stroke:#181818;stroke-width:1.0;"/><polygon fill="none" points="990.12,426.78,1003.7151,440.0153,1008.9373,429.2112,990.12,426.78" style="stroke:#181818;stroke-width:1.0;"/></g><!--reverse link ScanModule to DynamicAxisSnapshot--><g id="link_ScanModule_DynamicAxisSnapshot"><path codeLine="39" d="M823.7766,403.4334 C724.7366,417.0034 565.24,449.3 439,533 C393.94,562.88 357.9,616.43 339.77,646.98 " fill="none" id="ScanModule-backto-DynamicAxisSnapshot" style="stroke:#181818;stroke-width:1.0;"/><polygon fill="none" points="841.61,400.99,822.9621,397.489,824.5911,409.3779,841.61,400.99" style="stroke:#181818;stroke-width:1.0;"/></g><!--reverse link ScanModule to DynamicChannelSnapshot--><g id="link_ScanModule_DynamicChannelSnapshot"><path codeLine="40" d="M826.3377,442.5751 C781.8277,468.4451 740.72,495.11 695,533 C651.89,568.72 608.93,618.29 585.38,646.97 " fill="none" id="ScanModule-backto-DynamicChannelSnapshot" style="stroke:#181818;stroke-width:1.0;"/><polygon fill="none" points="841.9,433.53,823.3226,437.3877,829.3527,447.7625,841.9,433.53" style="stroke:#181818;stroke-width:1.0;"/></g><!--reverse link Controller to Parameter--><g id="link_Controller_Parameter"><path codeLine="46" d="M100,1232.78 C100,1260.48 100,1285.28 100,1312.94 " fill="none" id="Controller-backto-Parameter" style="stroke:#181818;stroke-width:1.0;"/><polygon fill="#181818" points="100,1220.78,96,1226.78,100,1232.78,104,1226.78,100,1220.78" style="stroke:#181818;stroke-width:1.0;"/><text fill="#000000" font-family="sans-serif" font-size="13" lengthAdjust="spacing" textLength="8" x="91.3125" y="1301.7929">n</text></g><!--reverse link Positioning to Controller--><g id="link_Positioning_Controller"><path codeLine="64" d="M250.1737,1023.1613 C212.6437,1062.1113 171.68,1104.61 138.1,1139.46 " fill="none" id="Positioning-backto-Controller" style="stroke:#181818;stroke-width:1.0;"/><polygon fill="#181818" points="258.5,1014.52,251.4564,1016.0652,250.1737,1023.1613,257.2173,1021.6161,258.5,1014.52" style="stroke:#181818;stroke-width:1.0;"/></g><!--reverse link ClassicScanModule to Event--><g id="link_ClassicScanModule_Event"><path codeLine="82" d="M1167.3956,786.8871 C1183.0556,797.6971 1189.52,800.86 1206,809 C1306.9,858.84 1368.81,793.21 1452,869 C1495.98,909.07 1539.47,1090.33 1553.95,1155.54 " fill="none" id="ClassicScanModule-backto-Event" style="stroke:#181818;stroke-width:1.0;"/><polygon fill="#181818" points="1157.52,780.07,1160.1854,786.7704,1167.3956,786.8871,1164.7302,780.1867,1157.52,780.07" style="stroke:#181818;stroke-width:1.0;"/><text fill="#000000" font-family="sans-serif" font-size="13" lengthAdjust="spacing" textLength="8" x="1543.7441" y="1144.8328">n</text></g><!--reverse link ClassicScanModule to PreScan--><g id="link_ClassicScanModule_PreScan"><path codeLine="83" d="M957.7535,819.6745 C936.7535,859.3245 921.07,888.92 905.99,917.39 " fill="none" id="ClassicScanModule-backto-PreScan" style="stroke:#181818;stroke-width:1.0;"/><polygon fill="#181818" points="963.37,809.07,957.0269,812.5001,957.7535,819.6745,964.0966,816.2444,963.37,809.07" style="stroke:#181818;stroke-width:1.0;"/><text fill="#000000" font-family="sans-serif" font-size="13" lengthAdjust="spacing" textLength="8" x="900.804" y="906.5333">n</text></g><!--reverse link ClassicScanModule to Axis--><g id="link_ClassicScanModule_Axis"><path codeLine="84" d="M904.4184,804.6472 C898.7584,808.6572 902.81,805.5 897,809 C821.14,854.68 786.36,829.71 707,869 C701.41,871.77 695.79,874.77 690.2,877.94 " fill="none" id="ClassicScanModule-backto-Axis" style="stroke:#181818;stroke-width:1.0;"/><polygon fill="#181818" points="914.21,797.71,907.0018,797.9147,904.4184,804.6472,911.6266,804.4425,914.21,797.71" style="stroke:#181818;stroke-width:1.0;"/><text fill="#000000" font-family="sans-serif" font-size="13" lengthAdjust="spacing" textLength="8" x="698.0891" y="868.8418">n</text></g><!--reverse link ClassicScanModule to Channel--><g id="link_ClassicScanModule_Channel"><path codeLine="85" d="M1166.2571,794.9264 C1208.0471,834.3664 1244.25,868.53 1278.83,901.16 " fill="none" id="ClassicScanModule-backto-Channel" style="stroke:#181818;stroke-width:1.0;"/><polygon fill="#181818" points="1157.53,786.69,1159.1481,793.7172,1166.2571,794.9264,1164.639,787.8991,1157.53,786.69" style="stroke:#181818;stroke-width:1.0;"/><text fill="#000000" font-family="sans-serif" font-size="13" lengthAdjust="spacing" textLength="8" x="1263.1312" y="890.3821">n</text></g><!--reverse link ClassicScanModule to PostScan--><g id="link_ClassicScanModule_PostScan"><path codeLine="86" d="M1067.8508,820.8044 C1075.5708,856.8844 1080.88,881.69 1086.82,909.43 " fill="none" id="ClassicScanModule-backto-PostScan" style="stroke:#181818;stroke-width:1.0;"/><polygon fill="#181818" points="1065.34,809.07,1062.6839,815.7741,1067.8508,820.8044,1070.5069,814.1003,1065.34,809.07" style="stroke:#181818;stroke-width:1.0;"/><text fill="#000000" font-family="sans-serif" font-size="13" lengthAdjust="spacing" textLength="8" x="1076.7373" y="898.2794">n</text></g><!--reverse link ClassicScanModule to Positioning--><g id="link_ClassicScanModule_Positioning"><path codeLine="87" d="M904.2761,805.595 C898.5561,809.135 902.93,806.09 897,809 C719.47,896.23 642.36,802.68 456,869 C433.37,877.05 410.46,888.98 389.77,901.47 " fill="none" id="ClassicScanModule-backto-Positioning" style="stroke:#181818;stroke-width:1.0;"/><polygon fill="#181818" points="914.48,799.28,907.273,799.0362,904.2761,805.595,911.483,805.8388,914.48,799.28" style="stroke:#181818;stroke-width:1.0;"/><text fill="#000000" font-family="sans-serif" font-size="13" lengthAdjust="spacing" textLength="8" x="391.2218" y="890.3295">n</text></g><!--reverse link ClassicScanModule to Plot--><g id="link_ClassicScanModule_Plot"><path codeLine="88" d="M905.0485,802.692 C899.3185,807.552 902.73,804.5 897,809 C857.14,840.32 834.53,831.88 800,869 C782.39,887.93 769.62,914.89 762.07,933.97 " fill="none" id="ClassicScanModule-backto-Plot" style="stroke:#181818;stroke-width:1.0;"/><polygon fill="#181818" points="914.2,794.93,907.0369,795.7605,905.0485,802.692,912.2116,801.8615,914.2,794.93" style="stroke:#181818;stroke-width:1.0;"/><text fill="#000000" font-family="sans-serif" font-size="13" lengthAdjust="spacing" textLength="8" x="755.1129" y="922.9743">n</text></g><!--link Plot to GMN46--><g id="link_Plot_GMN46"><path d="M761.28,982.29 C768.41,1001.79 780.99,1029.21 800,1047 C848.24,1092.14 881.62,1069.48 936,1107 C957.67,1121.95 978.33,1144.1 991.71,1159.88 " fill="none" id="Plot-GMN46" style="stroke:#181818;stroke-width:1.0;stroke-dasharray:7.0,7.0;"/></g><!--reverse link StaticAxisSnapshot to Axis--><g id="link_StaticAxisSnapshot_Axis"><path codeLine="113" d="M765.8289,712.7065 C745.1989,740.5065 721.24,772.72 694,809 C679.49,828.33 663.87,849.03 649.04,868.65 " fill="none" id="StaticAxisSnapshot-backto-Axis" style="stroke:#181818;stroke-width:1.0;"/><polygon fill="#181818" points="772.98,703.07,766.1923,705.5045,765.8289,712.7065,772.6166,710.2719,772.98,703.07" style="stroke:#181818;stroke-width:1.0;"/><text fill="#000000" font-family="sans-serif" font-size="13" lengthAdjust="spacing" textLength="8" x="646.0635" y="857.9895">n</text></g><!--reverse link StaticChannelSnapshot to Channel--><g id="link_StaticChannelSnapshot_Channel"><path codeLine="118" d="M1324.4129,715.0211 C1327.0829,762.5611 1331.55,842.11 1334.87,901.32 " fill="none" id="StaticChannelSnapshot-backto-Channel" style="stroke:#181818;stroke-width:1.0;"/><polygon fill="#181818" points="1323.74,703.04,1320.0827,709.2549,1324.4129,715.0211,1328.0702,708.8063,1323.74,703.04" style="stroke:#181818;stroke-width:1.0;"/><text fill="#000000" font-family="sans-serif" font-size="13" lengthAdjust="spacing" textLength="8" x="1326.001" y="890.5616">n</text></g><!--reverse link Axis to StepFunction--><g id="link_Axis_StepFunction"><path codeLine="130" d="M699.7365,1046.3739 C728.0165,1067.9739 748.69,1084.35 776,1107 C781.61,1111.65 787.37,1116.56 793.1,1121.53 " fill="none" id="Axis-backto-StepFunction" style="stroke:#181818;stroke-width:1.0;"/><polygon fill="#181818" points="690.2,1039.09,692.5403,1045.9108,699.7365,1046.3739,697.3962,1039.5531,690.2,1039.09" style="stroke:#181818;stroke-width:1.0;"/></g><!--reverse link Axis to PositionMode--><g id="link_Axis_PositionMode"><path codeLine="131" d="M463.901,1038.7041 C430.691,1061.9641 404.24,1081.44 372,1107 C359.32,1117.05 346.02,1128.48 333.94,1139.21 " fill="none" id="Axis-backto-PositionMode" style="stroke:#181818;stroke-width:1.0;"/><polygon fill="#181818" points="473.73,1031.82,466.5208,1031.9857,463.901,1038.7041,471.1102,1038.5384,473.73,1031.82" style="stroke:#181818;stroke-width:1.0;"/></g><!--reverse link Axis to StartStopStep--><g id="link_Axis_StartStopStep"><path codeLine="132" d="M532.0851,1057.9239 C519.1151,1083.6339 510.72,1100.27 499.07,1123.36 " fill="none" id="Axis-backto-StartStopStep" style="stroke:#181818;stroke-width:1.0;"/><polygon fill="#181818" points="537.49,1047.21,531.2163,1050.7653,532.0851,1057.9239,538.3589,1054.3686,537.49,1047.21" style="stroke:#181818;stroke-width:1.0;"/></g><!--reverse link Axis to Controller--><g id="link_Axis_Controller"><path codeLine="133" d="M462.8497,1022.3512 C441.0897,1032.9912 428.94,1038.22 407,1047 C322.03,1081.02 292.9,1068.21 210,1107 C190.88,1115.95 171.21,1127.83 153.89,1139.36 " fill="none" id="Axis-backto-Controller" style="stroke:#181818;stroke-width:1.0;"/><polygon fill="#181818" points="473.63,1017.08,466.4828,1016.1222,462.8497,1022.3512,469.9969,1023.309,473.63,1017.08" style="stroke:#181818;stroke-width:1.0;"/></g><!--reverse link Axis to StepFunctionRange--><g id="link_Axis_StepFunctionRange"><path codeLine="134" d="M623.0758,1058.2992 C636.2758,1090.2192 645.95,1113.6 656.57,1139.28 " fill="none" id="Axis-backto-StepFunctionRange" style="stroke:#181818;stroke-width:1.0;"/><polygon fill="#181818" points="618.49,1047.21,617.0865,1054.2832,623.0758,1058.2992,624.4793,1051.226,618.49,1047.21" style="stroke:#181818;stroke-width:1.0;"/></g><!--reverse link Channel to StandardChannel--><g id="link_Channel_StandardChannel"><path codeLine="147" d="M1354.935,1032.055 C1362.045,1062.725 1366.85,1083.43 1374.24,1115.32 " fill="none" id="Channel-backto-StandardChannel" style="stroke:#181818;stroke-width:1.0;"/><polygon fill="none" points="1350.87,1014.52,1349.09,1033.41,1360.78,1030.7,1350.87,1014.52" style="stroke:#181818;stroke-width:1.0;"/></g><!--reverse link Channel to IntervalChannel--><g id="link_Channel_IntervalChannel"><path codeLine="148" d="M1286.154,1028.9826 C1257.294,1067.9326 1230.12,1104.61 1204.29,1139.46 " fill="none" id="Channel-backto-IntervalChannel" style="stroke:#181818;stroke-width:1.0;"/><polygon fill="none" points="1296.87,1014.52,1281.3331,1025.4106,1290.9748,1032.5546,1296.87,1014.52" style="stroke:#181818;stroke-width:1.0;"/></g><!--reverse link Channel to Event--><g id="link_Channel_Event"><path codeLine="149" d="M1416.2536,1022.5414 C1447.5036,1049.1014 1474.94,1074.38 1505,1107 C1519.08,1122.28 1533.11,1141.12 1543.33,1155.69 " fill="none" id="Channel-backto-Event" style="stroke:#181818;stroke-width:1.0;"/><polygon fill="#181818" points="1407.11,1014.77,1409.0914,1021.7036,1416.2536,1022.5414,1414.2723,1015.6078,1407.11,1014.77" style="stroke:#181818;stroke-width:1.0;"/><text fill="#000000" font-family="sans-serif" font-size="13" lengthAdjust="spacing" textLength="8" x="1530.5354" y="1145.0194">n</text></g><!--SRC=[dLRDRXiv3BxFKnYz52YGvbxq4cItG0y1WkRONHIAHJj2DP8WSRpsjdxtKXfgHjACdUxwuX7_INqazVO5qOKFjxTE2uD3hzzlRN-xrIA46wd4tek-wz9nyxGLPlEZsz3FWmE1MpiOt7pOA8Em1vyufDr3eWRqokmJCOW3x9G68tgeELjhTihtKO0OpzPg46RISNhOAqECUslGMwtPIM-DGkkjGsLDc2n-_NlKHE4H3cCKVyP_ZbdQH0sPpFBF7iJtLKv0wrOPJWm1A7QfSWIFaNAVALcVAjPREMY88h5-3-b4x7ENoldkvgPCRgAzCMyA-PfUkwfvOxgTiGXKJKJRR-okqQ1803O1dF02uIypbcgCyttNVQAB8dl9_MX8mmwZcSXfbUErphepKCR06IxBUpyw6nhad9OaSW8BX1a82B8X2kV0o0LPbOInv1pOnv-nyZ5SjMqANKeyeK2rlJkgy6I42oyMBuZSlmXZG5-K-kD4HNZ54ikqfhYgCqougl4AUa0wH_ZnDoElhlYvAvHd6B5ATl2PwkGFGhD_za8MzbGznKmokjDMuDGV3kJpgNJ5rYRpR8TqXmO4RP1PquQ4KoAohg2gVKjtMOwECSm5tLZV2wt-XGLdRPoSkz9TquwvyYrCofJMXc00H0seKdfpkRYK4hGuhJ5u6CPics5O2t3cwpAhy-f_p3xd8OwlDDiynDoP8OvfcaKaCuNZYLJ6JhPX0qv6wBkmukQgCpSViu2sAQP7-a_pSdaBzT2xpEVuhqZ4PAwmEQjhBZYxwo8vnMjIsgxCRoAsWpVMPngyZNmgo2jZddjjB0q3kcsOtBDueZKOlwicnV-aESAGEkER9Q0g8tIMoI2URA_CIdBJifinMKeif_OqI4hiqa9O2bQGgEmj7Lu4VxRSghI0OllHrxLHHmlFxGQpZV293mawVk9ZrKnqkL0q4q4BvXTH7DRHK390voSwHqkpXzKNsgKtMFQfLMXUUrwOFJHXVeaqAalAz5tQcaKE4xMAl90jmvt8HK2hPaUV7PYXhmnFRrXDLtGOAoIUWzK35W2ljo3Vyk_lceiJLy8EF75vN5Vuppxpky98uUKqV4fciwidPlCEdE1RMif8Eu0N-zNzHIj8ma49njkyg7fbL4_bh6ZYA12XTnWMQz18sY_ob1_ZYqwlRfRZIc1TZ8w8tXKYk7-Kn9S5HuLUq8ofD-cPmL22X9tUIRb97m-3HkNqAHtYWpTzFAOc63yBt2T2XlQKKeD0zW37k573MD6olrRxwDpz0W00]--></g></svg>