<?xml version="1.0" encoding="us-ascii" standalone="no"?><svg xmlns="http://www.w3.org/2000/svg" xmlns:xlink="http://www.w3.org/1999/xlink" contentStyleType="text/css" height="592px" preserveAspectRatio="none" style="width:935px;height:592px;background:#FFFFFF;" version="1.1" viewBox="0 0 935 592" width="935px" zoomAndPan="magnify"><defs/><g><!--cluster scan--><g id="cluster_scan"><path d="M162,6 L198,6 A3.75,3.75 0 0 1 200.5,8.5 L207.5,28.2969 L310,28.2969 A2.5,2.5 0 0 1 312.5,30.7969 L312.5,169.5 A2.5,2.5 0 0 1 310,172 L162,172 A2.5,2.5 0 0 1 159.5,169.5 L159.5,8.5 A2.5,2.5 0 0 1 162,6 " fill="none" style="stroke:#000000;stroke-width:1.5;"/><line style="stroke:#000000;stroke-width:1.5;" x1="159.5" x2="207.5" y1="28.2969" y2="28.2969"/><text fill="#000000" font-family="sans-serif" font-size="14" font-weight="bold" lengthAdjust="spacing" textLength="35" x="163.5" y="20.9951">scan</text></g><!--cluster boundaries--><g id="cluster_boundaries"><path d="M186,49 L276,49 A3.75,3.75 0 0 1 278.5,51.5 L285.5,71.2969 L286,71.2969 A2.5,2.5 0 0 1 288.5,73.7969 L288.5,145.5 A2.5,2.5 0 0 1 286,148 L186,148 A2.5,2.5 0 0 1 183.5,145.5 L183.5,51.5 A2.5,2.5 0 0 1 186,49 " fill="none" style="stroke:#000000;stroke-width:1.5;"/><line style="stroke:#000000;stroke-width:1.5;" x1="183.5" x2="285.5" y1="71.2969" y2="71.2969"/><text fill="#000000" font-family="sans-serif" font-size="14" font-weight="bold" lengthAdjust="spacing" textLength="89" x="187.5" y="63.9951">boundaries</text></g><!--class Scan--><g id="elem_Scan"><rect fill="#F1F1F1" height="48" id="Scan" rx="2.5" ry="2.5" style="stroke:#181818;stroke-width:0.5;" width="67" x="200" y="84"/><ellipse cx="215" cy="100" fill="#ADD1B2" rx="11" ry="11" style="stroke:#181818;stroke-width:1.0;"/><path d="M217.9844,105.6406 Q217.4063,105.9375 216.7656,106.0781 Q216.125,106.2344 215.4219,106.2344 Q212.9063,106.2344 211.5781,104.5938 Q210.2656,102.9375 210.2656,99.8125 Q210.2656,96.6719 211.5781,95.0313 Q212.9063,93.375 215.4219,93.375 Q216.125,93.375 216.7656,93.5313 Q217.4219,93.6719 217.9844,93.9688 L217.9844,96.6875 Q217.3438,96.1094 216.75,95.8438 Q216.1563,95.5781 215.5313,95.5781 Q214.1875,95.5781 213.5,96.6406 Q212.8125,97.7031 212.8125,99.8125 Q212.8125,101.9063 213.5,102.9844 Q214.1875,104.0469 215.5313,104.0469 Q216.1563,104.0469 216.75,103.7813 Q217.3438,103.5 217.9844,102.9219 L217.9844,105.6406 Z " fill="#000000"/><text fill="#000000" font-family="sans-serif" font-size="14" lengthAdjust="spacing" textLength="35" x="229" y="104.8467">Scan</text><line style="stroke:#181818;stroke-width:0.5;" x1="201" x2="266" y1="116" y2="116"/><line style="stroke:#181818;stroke-width:0.5;" x1="201" x2="266" y1="124" y2="124"/></g><!--class File--><g id="elem_File"><rect codeLine="2" fill="#F1F1F1" height="145.7813" id="File" rx="2.5" ry="2.5" style="stroke:#181818;stroke-width:0.5;" width="223" x="397" y="35"/><ellipse cx="491.75" cy="51" fill="#ADD1B2" rx="11" ry="11" style="stroke:#181818;stroke-width:1.0;"/><path d="M494.7344,56.6406 Q494.1563,56.9375 493.5156,57.0781 Q492.875,57.2344 492.1719,57.2344 Q489.6563,57.2344 488.3281,55.5938 Q487.0156,53.9375 487.0156,50.8125 Q487.0156,47.6719 488.3281,46.0313 Q489.6563,44.375 492.1719,44.375 Q492.875,44.375 493.5156,44.5313 Q494.1719,44.6719 494.7344,44.9688 L494.7344,47.6875 Q494.0938,47.1094 493.5,46.8438 Q492.9063,46.5781 492.2813,46.5781 Q490.9375,46.5781 490.25,47.6406 Q489.5625,48.7031 489.5625,50.8125 Q489.5625,52.9063 490.25,53.9844 Q490.9375,55.0469 492.2813,55.0469 Q492.9063,55.0469 493.5,54.7813 Q494.0938,54.5 494.7344,53.9219 L494.7344,56.6406 Z " fill="#000000"/><text fill="#000000" font-family="sans-serif" font-size="14" lengthAdjust="spacing" textLength="25" x="512.25" y="55.8467">File</text><line style="stroke:#181818;stroke-width:0.5;" x1="398" x2="619" y1="67" y2="67"/><text fill="#000000" font-family="sans-serif" font-size="14" lengthAdjust="spacing" textLength="149" x="403" y="83.9951">metadata : Metadata</text><text fill="#000000" font-family="sans-serif" font-size="14" lengthAdjust="spacing" textLength="211" x="403" y="100.292">log_messages : LogMessage[]</text><text fill="#000000" font-family="sans-serif" font-size="14" lengthAdjust="spacing" textLength="81" x="403" y="116.5889">scan : Scan</text><text fill="#000000" font-family="sans-serif" font-size="14" lengthAdjust="spacing" textLength="89" x="403" y="132.8857">data : Data[]</text><text fill="#000000" font-family="sans-serif" font-size="14" lengthAdjust="spacing" textLength="128" x="403" y="149.1826">snapshots : Data[]</text><text fill="#000000" font-family="sans-serif" font-size="14" lengthAdjust="spacing" textLength="120" x="403" y="165.4795">monitors : Data[]</text><line style="stroke:#181818;stroke-width:0.5;" x1="398" x2="619" y1="172.7813" y2="172.7813"/></g><!--class Data--><g id="elem_Data"><rect fill="#F1F1F1" height="48" id="Data" rx="2.5" ry="2.5" style="stroke:#181818;stroke-width:0.5;" width="66" x="324.5" y="339"/><ellipse cx="339.5" cy="355" fill="#ADD1B2" rx="11" ry="11" style="stroke:#181818;stroke-width:1.0;"/><path d="M342.4844,360.6406 Q341.9063,360.9375 341.2656,361.0781 Q340.625,361.2344 339.9219,361.2344 Q337.4063,361.2344 336.0781,359.5938 Q334.7656,357.9375 334.7656,354.8125 Q334.7656,351.6719 336.0781,350.0313 Q337.4063,348.375 339.9219,348.375 Q340.625,348.375 341.2656,348.5313 Q341.9219,348.6719 342.4844,348.9688 L342.4844,351.6875 Q341.8438,351.1094 341.25,350.8438 Q340.6563,350.5781 340.0313,350.5781 Q338.6875,350.5781 338,351.6406 Q337.3125,352.7031 337.3125,354.8125 Q337.3125,356.9063 338,357.9844 Q338.6875,359.0469 340.0313,359.0469 Q340.6563,359.0469 341.25,358.7813 Q341.8438,358.5 342.4844,357.9219 L342.4844,360.6406 Z " fill="#000000"/><text fill="#000000" font-family="sans-serif" font-size="14" lengthAdjust="spacing" textLength="34" x="353.5" y="359.8467">Data</text><line style="stroke:#181818;stroke-width:0.5;" x1="325.5" x2="389.5" y1="371" y2="371"/><line style="stroke:#181818;stroke-width:0.5;" x1="325.5" x2="389.5" y1="379" y2="379"/></g><g id="elem_GMN5"><path d="M295,545 L295,585.2656 A0,0 0 0 0 295,585.2656 L420,585.2656 A0,0 0 0 0 420,585.2656 L420,555 L410,545 L361.5,545 L357.5,387.33 L353.5,545 L295,545 A0,0 0 0 0 295,545 " fill="#FEFFDD" style="stroke:#181818;stroke-width:0.5;"/><path d="M410,545 L410,555 L420,555 L410,545 " fill="#FEFFDD" style="stroke:#181818;stroke-width:0.5;"/><text fill="#000000" font-family="sans-serif" font-size="13" lengthAdjust="spacing" textLength="104" x="301" y="562.0669">See diagram for</text><text fill="#000000" font-family="sans-serif" font-size="13" lengthAdjust="spacing" textLength="86" x="301" y="577.1997">data module.</text></g><!--class Metadata--><g id="elem_Metadata"><rect codeLine="14" fill="#F1F1F1" height="243.5625" id="Metadata" rx="2.5" ry="2.5" style="stroke:#181818;stroke-width:0.5;" width="302" x="425.5" y="241"/><ellipse cx="538.75" cy="257" fill="#ADD1B2" rx="11" ry="11" style="stroke:#181818;stroke-width:1.0;"/><path d="M541.7344,262.6406 Q541.1563,262.9375 540.5156,263.0781 Q539.875,263.2344 539.1719,263.2344 Q536.6563,263.2344 535.3281,261.5938 Q534.0156,259.9375 534.0156,256.8125 Q534.0156,253.6719 535.3281,252.0313 Q536.6563,250.375 539.1719,250.375 Q539.875,250.375 540.5156,250.5313 Q541.1719,250.6719 541.7344,250.9688 L541.7344,253.6875 Q541.0938,253.1094 540.5,252.8438 Q539.9063,252.5781 539.2813,252.5781 Q537.9375,252.5781 537.25,253.6406 Q536.5625,254.7031 536.5625,256.8125 Q536.5625,258.9063 537.25,259.9844 Q537.9375,261.0469 539.2813,261.0469 Q539.9063,261.0469 540.5,260.7813 Q541.0938,260.5 541.7344,259.9219 L541.7344,262.6406 Z " fill="#000000"/><text fill="#000000" font-family="sans-serif" font-size="14" lengthAdjust="spacing" textLength="67" x="559.25" y="261.8467">Metadata</text><line style="stroke:#181818;stroke-width:0.5;" x1="426.5" x2="726.5" y1="273" y2="273"/><text fill="#000000" font-family="sans-serif" font-size="14" lengthAdjust="spacing" textLength="116" x="431.5" y="289.9951">filename : string</text><text fill="#000000" font-family="sans-serif" font-size="14" lengthAdjust="spacing" textLength="156" x="431.5" y="306.292">eveh5_version : string</text><text fill="#000000" font-family="sans-serif" font-size="14" lengthAdjust="spacing" textLength="138" x="431.5" y="322.5889">eve_version : string</text><text fill="#000000" font-family="sans-serif" font-size="14" lengthAdjust="spacing" textLength="134" x="431.5" y="338.8857">xml_version: string</text><text fill="#000000" font-family="sans-serif" font-size="14" lengthAdjust="spacing" textLength="208" x="431.5" y="355.1826">measurement_station : string</text><text fill="#000000" font-family="sans-serif" font-size="14" lengthAdjust="spacing" textLength="109" x="431.5" y="371.4795">start : datetime</text><text fill="#000000" font-family="sans-serif" font-size="14" lengthAdjust="spacing" textLength="104" x="431.5" y="387.7764">end : datetime</text><text fill="#000000" font-family="sans-serif" font-size="14" lengthAdjust="spacing" textLength="132" x="431.5" y="404.0732">description : string</text><text fill="#000000" font-family="sans-serif" font-size="14" lengthAdjust="spacing" textLength="145" x="431.5" y="420.3701">simulation : boolean</text><text fill="#000000" font-family="sans-serif" font-size="14" lengthAdjust="spacing" textLength="156" x="431.5" y="436.667">preferred_axis : string</text><text fill="#000000" font-family="sans-serif" font-size="14" lengthAdjust="spacing" textLength="185" x="431.5" y="452.9639">preferred_channel : string</text><text fill="#000000" font-family="sans-serif" font-size="14" lengthAdjust="spacing" textLength="290" x="431.5" y="469.2607">preferred_normalisation_channel : string</text><line style="stroke:#181818;stroke-width:0.5;" x1="426.5" x2="726.5" y1="476.5625" y2="476.5625"/></g><!--class LogMessage--><g id="elem_LogMessage"><rect codeLine="29" fill="#F1F1F1" height="80.5938" id="LogMessage" rx="2.5" ry="2.5" style="stroke:#181818;stroke-width:0.5;" width="165" x="763" y="322.5"/><ellipse cx="798.25" cy="338.5" fill="#ADD1B2" rx="11" ry="11" style="stroke:#181818;stroke-width:1.0;"/><path d="M801.2344,344.1406 Q800.6563,344.4375 800.0156,344.5781 Q799.375,344.7344 798.6719,344.7344 Q796.1563,344.7344 794.8281,343.0938 Q793.5156,341.4375 793.5156,338.3125 Q793.5156,335.1719 794.8281,333.5313 Q796.1563,331.875 798.6719,331.875 Q799.375,331.875 800.0156,332.0313 Q800.6719,332.1719 801.2344,332.4688 L801.2344,335.1875 Q800.5938,334.6094 800,334.3438 Q799.4063,334.0781 798.7813,334.0781 Q797.4375,334.0781 796.75,335.1406 Q796.0625,336.2031 796.0625,338.3125 Q796.0625,340.4063 796.75,341.4844 Q797.4375,342.5469 798.7813,342.5469 Q799.4063,342.5469 800,342.2813 Q800.5938,342 801.2344,341.4219 L801.2344,344.1406 Z " fill="#000000"/><text fill="#000000" font-family="sans-serif" font-size="14" lengthAdjust="spacing" textLength="88" x="816.75" y="343.3467">LogMessage</text><line style="stroke:#181818;stroke-width:0.5;" x1="764" x2="927" y1="354.5" y2="354.5"/><text fill="#000000" font-family="sans-serif" font-size="14" lengthAdjust="spacing" textLength="153" x="769" y="371.4951">timestamp : datetime</text><text fill="#000000" font-family="sans-serif" font-size="14" lengthAdjust="spacing" textLength="117" x="769" y="387.792">message : string</text><line style="stroke:#181818;stroke-width:0.5;" x1="764" x2="927" y1="395.0938" y2="395.0938"/></g><!--class Scan--><g id="elem_Scan"><rect codeLine="34" fill="#F1F1F1" height="64.2969" id="Scan" rx="2.5" ry="2.5" style="stroke:#181818;stroke-width:0.5;" width="112" x="177.5" y="331"/><ellipse cx="212.75" cy="347" fill="#ADD1B2" rx="11" ry="11" style="stroke:#181818;stroke-width:1.0;"/><path d="M215.7344,352.6406 Q215.1563,352.9375 214.5156,353.0781 Q213.875,353.2344 213.1719,353.2344 Q210.6563,353.2344 209.3281,351.5938 Q208.0156,349.9375 208.0156,346.8125 Q208.0156,343.6719 209.3281,342.0313 Q210.6563,340.375 213.1719,340.375 Q213.875,340.375 214.5156,340.5313 Q215.1719,340.6719 215.7344,340.9688 L215.7344,343.6875 Q215.0938,343.1094 214.5,342.8438 Q213.9063,342.5781 213.2813,342.5781 Q211.9375,342.5781 211.25,343.6406 Q210.5625,344.7031 210.5625,346.8125 Q210.5625,348.9063 211.25,349.9844 Q211.9375,351.0469 213.2813,351.0469 Q213.9063,351.0469 214.5,350.7813 Q215.0938,350.5 215.7344,349.9219 L215.7344,352.6406 Z " fill="#000000"/><text fill="#000000" font-family="sans-serif" font-size="14" lengthAdjust="spacing" textLength="35" x="231.25" y="351.8467">Scan</text><line style="stroke:#181818;stroke-width:0.5;" x1="178.5" x2="288.5" y1="363" y2="363"/><text fill="#000000" font-family="sans-serif" font-size="14" lengthAdjust="spacing" textLength="100" x="183.5" y="379.9951">author : string</text><line style="stroke:#181818;stroke-width:0.5;" x1="178.5" x2="288.5" y1="387.2969" y2="387.2969"/></g><g id="elem_GMN15"><path d="M6,88 L6,128.2656 A0,0 0 0 0 6,128.2656 L143,128.2656 A0,0 0 0 0 143,128.2656 L143,112 L199.96,108 L143,104 L143,98 L133,88 L6,88 A0,0 0 0 0 6,88 " fill="#FEFFDD" style="stroke:#181818;stroke-width:0.5;"/><path d="M133,88 L133,98 L143,98 L133,88 " fill="#FEFFDD" style="stroke:#181818;stroke-width:0.5;"/><text fill="#000000" font-family="sans-serif" font-size="13" lengthAdjust="spacing" textLength="111" x="12" y="105.0669">See diagrams for</text><text fill="#000000" font-family="sans-serif" font-size="13" lengthAdjust="spacing" textLength="116" x="12" y="120.1997">scan subpackage.</text></g><!--reverse link File to Data--><g id="link_File_Data"><path codeLine="11" d="M440.5404,190.8826 C426.3104,209.6526 419.16,220.75 407.5,241 C388.9,273.3 373.61,313.88 365.02,338.87 " fill="none" id="File-backto-Data" style="stroke:#181818;stroke-width:1.0;"/><polygon fill="#181818" points="447.79,181.32,440.9777,183.6847,440.5404,190.8826,447.3527,188.5178,447.79,181.32" style="stroke:#181818;stroke-width:1.0;"/><text fill="#000000" font-family="sans-serif" font-size="13" lengthAdjust="spacing" textLength="8" x="357.922" y="327.8487">n</text></g><!--reverse link Scan to Scan--><g id="link_Scan_Scan"><path d="M233.5,150.35 C233.5,196.1 233.5,279.55 233.5,330.91 " fill="none" id="Scan-backto-Scan" style="stroke:#181818;stroke-width:1.0;"/><polygon fill="none" points="233.5,132.35,227.5,150.35,239.5,150.35,233.5,132.35" style="stroke:#181818;stroke-width:1.0;"/></g><!--reverse link File to Metadata--><g id="link_File_Metadata"><path codeLine="39" d="M531.0112,192.7497 C536.0312,211.4497 538.47,220.51 543.97,240.96 " fill="none" id="File-backto-Metadata" style="stroke:#181818;stroke-width:1.0;"/><polygon fill="#181818" points="527.9,181.16,525.5924,187.9919,531.0112,192.7497,533.3188,185.9178,527.9,181.16" style="stroke:#181818;stroke-width:1.0;"/></g><!--reverse link File to LogMessage--><g id="link_File_LogMessage"><path codeLine="40" d="M630.7468,165.7742 C672.3068,187.5742 707.85,209.66 745.5,241 C773.78,264.54 800.04,296.9 818.55,322.23 " fill="none" id="File-backto-LogMessage" style="stroke:#181818;stroke-width:1.0;"/><polygon fill="#181818" points="620.12,160.2,623.5753,166.5294,630.7468,165.7742,627.2915,159.4448,620.12,160.2" style="stroke:#181818;stroke-width:1.0;"/><text fill="#000000" font-family="sans-serif" font-size="13" lengthAdjust="spacing" textLength="8" x="627.8882" y="160.282">1</text><text fill="#000000" font-family="sans-serif" font-size="13" lengthAdjust="spacing" textLength="8" x="805.4239" y="311.3468">n</text></g><!--reverse link File to Scan--><g id="link_File_Scan"><path codeLine="41" d="M386.7618,175.7828 C355.3118,195.9728 332.68,213.86 306.5,241 C280.86,267.57 260.14,304.72 247.41,330.83 " fill="none" id="File-backto-Scan" style="stroke:#181818;stroke-width:1.0;"/><polygon fill="#181818" points="396.86,169.3,389.65,169.1753,386.7618,175.7828,393.9718,175.9074,396.86,169.3" style="stroke:#181818;stroke-width:1.0;"/></g><!--SRC=[TLAnReCm4Dtv2eknKf0wTEbSTMgdZcs53ZZ0gkr3lYEALENVUp4GGfAo6BztVk_EVhK3PlDg7PhVpEZdKQ010VDitkVVX3lgIe_Cq24hzqRT-xJx_4uyrn0K_z0bxMUD5rsMYW03zoIyXJq5AnGlq6EMfOOUTZkJXpp1MI11Kv48UNL1D8s5Be8tBSMlaDmyDQF38ilgDDJI_ZHNgue1FAeDIxIXIoZkiNygznZPKhYXxXC7xnPYWti47YDw35AoWDmSL32AGjeKYlKusOJc6cgGwsY7EmBMZsuHheWSpfSzH6mnHcnAE5ZU7bgvkeSGqFr71ueUdELaS5jyNEvrVVevCgV6TJO_N0yov-MEnYac1W-YqtEAJb7HgAyOBNAHo4aQHkafNWga73XiPPC2dcAGGiXZDK3zeyR5HP3EOKv8_fYVuxNEirQd6Fy1]--></g></svg>