<?xml version="1.0" encoding="us-ascii" standalone="no"?><svg xmlns="http://www.w3.org/2000/svg" xmlns:xlink="http://www.w3.org/1999/xlink" contentStyleType="text/css" height="326px" preserveAspectRatio="none" style="width:195px;height:326px;background:#FFFFFF;" version="1.1" viewBox="0 0 195 326" width="195px" zoomAndPan="magnify"><defs/><g><!--cluster evefile--><g id="cluster_evefile"><path d="M8.5,6 L53.5,6 A3.75,3.75 0 0 1 56,8.5 L63,28.4063 L185.5,28.4063 A2.5,2.5 0 0 1 188,30.9063 L188,236.5 A2.5,2.5 0 0 1 185.5,239 L8.5,239 A2.5,2.5 0 0 1 6,236.5 L6,8.5 A2.5,2.5 0 0 1 8.5,6 " fill="none" style="stroke:#000000;stroke-width:1.5;"/><line style="stroke:#000000;stroke-width:1.5;" x1="6" x2="63" y1="28.4063" y2="28.4063"/><text fill="#000000" font-family="sans-serif" font-size="14" font-weight="bold" lengthAdjust="spacing" textLength="44" x="10" y="20.9883">evefile</text></g><!--cluster entities--><g id="cluster_entities"><path d="M32.5,49 L82.5,49 A3.75,3.75 0 0 1 85,51.5 L92,71.4063 L161.5,71.4063 A2.5,2.5 0 0 1 164,73.9063 L164,212.5 A2.5,2.5 0 0 1 161.5,215 L32.5,215 A2.5,2.5 0 0 1 30,212.5 L30,51.5 A2.5,2.5 0 0 1 32.5,49 " fill="none" style="stroke:#000000;stroke-width:1.5;"/><line style="stroke:#000000;stroke-width:1.5;" x1="30" x2="92" y1="71.4063" y2="71.4063"/><text fill="#000000" font-family="sans-serif" font-size="14" font-weight="bold" lengthAdjust="spacing" textLength="49" x="34" y="63.9883">entities</text></g><!--cluster file--><g id="cluster_file"><path d="M56.5,92 L78.5,92 A3.75,3.75 0 0 1 81,94.5 L88,114.4063 L137.5,114.4063 A2.5,2.5 0 0 1 140,116.9063 L140,188.5 A2.5,2.5 0 0 1 137.5,191 L56.5,191 A2.5,2.5 0 0 1 54,188.5 L54,94.5 A2.5,2.5 0 0 1 56.5,92 " fill="none" style="stroke:#000000;stroke-width:1.5;"/><line style="stroke:#000000;stroke-width:1.5;" x1="54" x2="88" y1="114.4063" y2="114.4063"/><text fill="#000000" font-family="sans-serif" font-size="14" font-weight="bold" lengthAdjust="spacing" textLength="21" x="58" y="106.9883">file</text></g><!--class File--><g id="elem_File"><rect fill="#F1F1F1" height="48" id="File" rx="2.5" ry="2.5" style="stroke:#181818;stroke-width:0.5;" width="53" x="70.5" y="127"/><ellipse cx="85.5" cy="143" fill="#ADD1B2" rx="11" ry="11" style="stroke:#181818;stroke-width:1.0;"/><path d="M85.5469,149.2031 C87.0469,149.2031 88.2813,148.6406 89.1875,147.5781 L87.8125,146.0625 C87.2656,146.6563 86.6094,147.0469 85.8125,147.0469 C84.1406,147.0469 82.9844,145.7188 82.9844,143.4375 C82.9844,141.2188 84.1406,139.875 85.7031,139.875 C86.5156,139.875 87.1094,140.1875 87.6406,140.6719 L89.0156,139.125 C88.2656,138.3906 87.1094,137.7188 85.7031,137.7188 C82.75,137.7188 80.4219,139.8594 80.4219,143.5313 C80.4219,147.25 82.7969,149.2031 85.5469,149.2031 Z " fill="#000000"/><text fill="#000000" font-family="sans-serif" font-size="14" lengthAdjust="spacing" textLength="21" x="99.5" y="147.7852">File</text><line style="stroke:#181818;stroke-width:0.5;" x1="71.5" x2="122.5" y1="159" y2="159"/><line style="stroke:#181818;stroke-width:0.5;" x1="71.5" x2="122.5" y1="167" y2="167"/></g><!--class EveFile--><g id="elem_EveFile"><rect codeLine="3" fill="#F1F1F1" height="64.4063" id="EveFile" rx="2.5" ry="2.5" style="stroke:#181818;stroke-width:0.5;" width="75" x="59.5" y="255"/><ellipse cx="74.5" cy="271" fill="#ADD1B2" rx="11" ry="11" style="stroke:#181818;stroke-width:1.0;"/><path d="M74.5469,277.2031 C76.0469,277.2031 77.2813,276.6406 78.1875,275.5781 L76.8125,274.0625 C76.2656,274.6563 75.6094,275.0469 74.8125,275.0469 C73.1406,275.0469 71.9844,273.7188 71.9844,271.4375 C71.9844,269.2188 73.1406,267.875 74.7031,267.875 C75.5156,267.875 76.1094,268.1875 76.6406,268.6719 L78.0156,267.125 C77.2656,266.3906 76.1094,265.7188 74.7031,265.7188 C71.75,265.7188 69.4219,267.8594 69.4219,271.5313 C69.4219,275.25 71.7969,277.2031 74.5469,277.2031 Z " fill="#000000"/><text fill="#000000" font-family="sans-serif" font-size="14" lengthAdjust="spacing" textLength="43" x="88.5" y="275.7852">EveFile</text><line style="stroke:#181818;stroke-width:0.5;" x1="60.5" x2="133.5" y1="287" y2="287"/><line style="stroke:#181818;stroke-width:0.5;" x1="60.5" x2="133.5" y1="295" y2="295"/><text fill="#000000" font-family="sans-serif" font-size="14" lengthAdjust="spacing" textLength="37" x="65.5" y="311.9883">load()</text></g><!--reverse link File to EveFile--><g id="link_File_EveFile"><path d="M97,193.04 C97,215.04 97,230.36 97,254.75 " fill="none" id="File-backto-EveFile" style="stroke:#181818;stroke-width:1.0;"/><polygon fill="none" points="97,175.04,91,193.04,103,193.04,97,175.04" style="stroke:#181818;stroke-width:1.0;"/></g><!--SRC=[7Sez2e0m343XFQVefWwskxlU8zYeXVG74qKGxsxfspvutQ5QP7AkC2Qz8jirHxSoYem-u7vY16WqyqrBO3BqA2KlXcxQgYqb3Hf8R5DRNZ0rpkZx0Jxu0G00]--></g></svg>