<?xml version="1.0" encoding="us-ascii" standalone="no"?><svg xmlns="http://www.w3.org/2000/svg" xmlns:xlink="http://www.w3.org/1999/xlink" contentStyleType="text/css" height="474px" preserveAspectRatio="none" style="width:595px;height:474px;background:#FFFFFF;" version="1.1" viewBox="0 0 595 474" width="595px" zoomAndPan="magnify"><defs/><g><!--class Plot--><g id="elem_Plot"><rect codeLine="3" fill="#F1F1F1" height="130.0313" id="Plot" rx="2.5" ry="2.5" style="stroke:#181818;stroke-width:0.5;" width="95" x="195" y="7"/><ellipse cx="227.1" cy="23" fill="#ADD1B2" rx="11" ry="11" style="stroke:#181818;stroke-width:1.0;"/><path d="M227.1469,29.2031 C228.6469,29.2031 229.8813,28.6406 230.7875,27.5781 L229.4125,26.0625 C228.8656,26.6563 228.2094,27.0469 227.4125,27.0469 C225.7406,27.0469 224.5844,25.7188 224.5844,23.4375 C224.5844,21.2188 225.7406,19.875 227.3031,19.875 C228.1156,19.875 228.7094,20.1875 229.2406,20.6719 L230.6156,19.125 C229.8656,18.3906 228.7094,17.7188 227.3031,17.7188 C224.35,17.7188 222.0219,19.8594 222.0219,23.5313 C222.0219,27.25 224.3969,29.2031 227.1469,29.2031 Z " fill="#000000"/><text fill="#000000" font-family="sans-serif" font-size="14" lengthAdjust="spacing" textLength="25" x="244.9" y="27.7852">Plot</text><line style="stroke:#181818;stroke-width:0.5;" x1="196" x2="289" y1="39" y2="39"/><text fill="#000000" font-family="sans-serif" font-size="14" lengthAdjust="spacing" textLength="80" x="201" y="55.9883">name : string</text><text fill="#000000" font-family="sans-serif" font-size="14" lengthAdjust="spacing" textLength="76" x="201" y="72.3945">xaxis : XAxis</text><text fill="#000000" font-family="sans-serif" font-size="14" lengthAdjust="spacing" textLength="78" x="201" y="88.8008">init : boolean</text><text fill="#000000" font-family="sans-serif" font-size="14" lengthAdjust="spacing" textLength="83" x="201" y="105.207">yaxis : YAxis[]</text><text fill="#000000" font-family="sans-serif" font-size="14" lengthAdjust="spacing" textLength="63" x="201" y="121.6133">id : integer</text><line style="stroke:#181818;stroke-width:0.5;" x1="196" x2="289" y1="129.0313" y2="129.0313"/></g><!--class XAxis--><g id="elem_XAxis"><rect codeLine="24" fill="#F1F1F1" height="48" id="XAxis" rx="2.5" ry="2.5" style="stroke:#181818;stroke-width:0.5;" width="67" x="208" y="238"/><ellipse cx="223" cy="254" fill="#ADD1B2" rx="11" ry="11" style="stroke:#181818;stroke-width:1.0;"/><path d="M223.0469,260.2031 C224.5469,260.2031 225.7813,259.6406 226.6875,258.5781 L225.3125,257.0625 C224.7656,257.6563 224.1094,258.0469 223.3125,258.0469 C221.6406,258.0469 220.4844,256.7188 220.4844,254.4375 C220.4844,252.2188 221.6406,250.875 223.2031,250.875 C224.0156,250.875 224.6094,251.1875 225.1406,251.6719 L226.5156,250.125 C225.7656,249.3906 224.6094,248.7188 223.2031,248.7188 C220.25,248.7188 217.9219,250.8594 217.9219,254.5313 C217.9219,258.25 220.2969,260.2031 223.0469,260.2031 Z " fill="#000000"/><text fill="#000000" font-family="sans-serif" font-size="14" lengthAdjust="spacing" textLength="35" x="237" y="258.7852">XAxis</text><line style="stroke:#181818;stroke-width:0.5;" x1="209" x2="274" y1="270" y2="270"/><line style="stroke:#181818;stroke-width:0.5;" x1="209" x2="274" y1="278" y2="278"/></g><!--class YAxis--><g id="elem_YAxis"><rect codeLine="27" fill="#F1F1F1" height="130.0313" id="YAxis" rx="2.5" ry="2.5" style="stroke:#181818;stroke-width:0.5;" width="149" x="310" y="197"/><ellipse cx="363.25" cy="213" fill="#ADD1B2" rx="11" ry="11" style="stroke:#181818;stroke-width:1.0;"/><path d="M363.2969,219.2031 C364.7969,219.2031 366.0313,218.6406 366.9375,217.5781 L365.5625,216.0625 C365.0156,216.6563 364.3594,217.0469 363.5625,217.0469 C361.8906,217.0469 360.7344,215.7188 360.7344,213.4375 C360.7344,211.2188 361.8906,209.875 363.4531,209.875 C364.2656,209.875 364.8594,210.1875 365.3906,210.6719 L366.7656,209.125 C366.0156,208.3906 364.8594,207.7188 363.4531,207.7188 C360.5,207.7188 358.1719,209.8594 358.1719,213.5313 C358.1719,217.25 360.5469,219.2031 363.2969,219.2031 Z " fill="#000000"/><text fill="#000000" font-family="sans-serif" font-size="14" lengthAdjust="spacing" textLength="34" x="383.75" y="217.7852">YAxis</text><line style="stroke:#181818;stroke-width:0.5;" x1="311" x2="458" y1="229" y2="229"/><text fill="#000000" font-family="sans-serif" font-size="14" lengthAdjust="spacing" textLength="137" x="316" y="245.9883">modifier : AxisModifier</text><text fill="#000000" font-family="sans-serif" font-size="14" lengthAdjust="spacing" textLength="123" x="316" y="262.3945">normalize_id : string</text><text fill="#000000" font-family="sans-serif" font-size="14" lengthAdjust="spacing" textLength="95" x="316" y="278.8008">linestyle : string</text><text fill="#000000" font-family="sans-serif" font-size="14" lengthAdjust="spacing" textLength="76" x="316" y="295.207">color : string</text><text fill="#000000" font-family="sans-serif" font-size="14" lengthAdjust="spacing" textLength="106" x="316" y="311.6133">markstyle : string</text><line style="stroke:#181818;stroke-width:0.5;" x1="311" x2="458" y1="319.0313" y2="319.0313"/></g><!--class ClassicScanModule--><g id="elem_ClassicScanModule"><rect fill="#F1F1F1" height="48" id="ClassicScanModule" rx="2.5" ry="2.5" style="stroke:#181818;stroke-width:0.5;" width="153" x="7" y="48"/><ellipse cx="22" cy="64" fill="#ADD1B2" rx="11" ry="11" style="stroke:#181818;stroke-width:1.0;"/><path d="M22.0469,70.2031 C23.5469,70.2031 24.7813,69.6406 25.6875,68.5781 L24.3125,67.0625 C23.7656,67.6563 23.1094,68.0469 22.3125,68.0469 C20.6406,68.0469 19.4844,66.7188 19.4844,64.4375 C19.4844,62.2188 20.6406,60.875 22.2031,60.875 C23.0156,60.875 23.6094,61.1875 24.1406,61.6719 L25.5156,60.125 C24.7656,59.3906 23.6094,58.7188 22.2031,58.7188 C19.25,58.7188 16.9219,60.8594 16.9219,64.5313 C16.9219,68.25 19.2969,70.2031 22.0469,70.2031 Z " fill="#000000"/><text fill="#000000" font-family="sans-serif" font-size="14" lengthAdjust="spacing" textLength="121" x="36" y="68.7852">ClassicScanModule</text><line style="stroke:#181818;stroke-width:0.5;" x1="8" x2="159" y1="80" y2="80"/><line style="stroke:#181818;stroke-width:0.5;" x1="8" x2="159" y1="88" y2="88"/></g><g id="elem_GMN9"><path d="M35.5,242 L35.5,282.4688 A0,0 0 0 0 35.5,282.4688 L131.5,282.4688 A0,0 0 0 0 131.5,282.4688 L131.5,252 L121.5,242 L87.5,242 L83.5,96.05 L79.5,242 L35.5,242 A0,0 0 0 0 35.5,242 " fill="#FEFFDD" style="stroke:#181818;stroke-width:0.5;"/><path d="M121.5,242 L121.5,252 L131.5,252 L121.5,242 " fill="#FEFFDD" style="stroke:#181818;stroke-width:0.5;"/><text fill="#000000" font-family="sans-serif" font-size="13" lengthAdjust="spacing" textLength="75" x="41.5" y="259.0605">See separate</text><text fill="#000000" font-family="sans-serif" font-size="13" lengthAdjust="spacing" textLength="73" x="41.5" y="274.2949">scan module</text></g><!--class PlotAxis--><g id="elem_PlotAxis"><rect codeLine="16" fill="#F1F1F1" height="80.8125" id="PlotAxis" rx="2.5" ry="2.5" style="stroke:#181818;stroke-width:0.5;" width="116" x="326.5" y="31.5"/><ellipse cx="356.35" cy="47.5" fill="#ADD1B2" rx="11" ry="11" style="stroke:#181818;stroke-width:1.0;"/><path d="M356.3969,53.7031 C357.8969,53.7031 359.1313,53.1406 360.0375,52.0781 L358.6625,50.5625 C358.1156,51.1563 357.4594,51.5469 356.6625,51.5469 C354.9906,51.5469 353.8344,50.2188 353.8344,47.9375 C353.8344,45.7188 354.9906,44.375 356.5531,44.375 C357.3656,44.375 357.9594,44.6875 358.4906,45.1719 L359.8656,43.625 C359.1156,42.8906 357.9594,42.2188 356.5531,42.2188 C353.6,42.2188 351.2719,44.3594 351.2719,48.0313 C351.2719,51.75 353.6469,53.7031 356.3969,53.7031 Z " fill="#000000"/><text fill="#000000" font-family="sans-serif" font-size="14" lengthAdjust="spacing" textLength="51" x="373.65" y="52.2852">PlotAxis</text><line style="stroke:#181818;stroke-width:0.5;" x1="327.5" x2="441.5" y1="63.5" y2="63.5"/><text fill="#000000" font-family="sans-serif" font-size="14" lengthAdjust="spacing" textLength="56" x="332.5" y="80.4883">id : string</text><text fill="#000000" font-family="sans-serif" font-size="14" lengthAdjust="spacing" textLength="104" x="332.5" y="96.8945">mode : PlotMode</text><line style="stroke:#181818;stroke-width:0.5;" x1="327.5" x2="441.5" y1="104.3125" y2="104.3125"/></g><!--class PlotMode--><g id="elem_PlotMode"><rect codeLine="41" fill="#F1F1F1" height="80.8125" id="PlotMode" rx="2.5" ry="2.5" style="stroke:#181818;stroke-width:0.5;" width="94" x="494.5" y="221.5"/><ellipse cx="510.4" cy="237.5" fill="#EB937F" rx="11" ry="11" style="stroke:#181818;stroke-width:1.0;"/><path d="M506.4625,243.5 L513.9781,243.5 L513.9781,241.3906 L508.9781,241.3906 L508.9781,238.8438 L513.0719,238.8438 L513.0719,236.75 L508.9781,236.75 L508.9781,234.5313 L513.8063,234.5313 L513.8063,232.4219 L506.4625,232.4219 L506.4625,243.5 Z " fill="#000000"/><text fill="#000000" font-family="sans-serif" font-size="14" lengthAdjust="spacing" textLength="60" x="524.6" y="242.2852">PlotMode</text><line style="stroke:#181818;stroke-width:0.5;" x1="495.5" x2="587.5" y1="253.5" y2="253.5"/><text fill="#000000" font-family="sans-serif" font-size="14" lengthAdjust="spacing" textLength="82" x="500.5" y="270.4883">linear = linear</text><text fill="#000000" font-family="sans-serif" font-size="14" lengthAdjust="spacing" textLength="52" x="500.5" y="286.8945">log = log</text><line style="stroke:#181818;stroke-width:0.5;" x1="495.5" x2="587.5" y1="294.3125" y2="294.3125"/></g><!--class AxisModifier--><g id="elem_AxisModifier"><rect codeLine="36" fill="#F1F1F1" height="80.8125" id="AxisModifier" rx="2.5" ry="2.5" style="stroke:#181818;stroke-width:0.5;" width="138" x="315.5" y="387"/><ellipse cx="343.55" cy="403" fill="#EB937F" rx="11" ry="11" style="stroke:#181818;stroke-width:1.0;"/><path d="M339.6125,409 L347.1281,409 L347.1281,406.8906 L342.1281,406.8906 L342.1281,404.3438 L346.2219,404.3438 L346.2219,402.25 L342.1281,402.25 L342.1281,400.0313 L346.9563,400.0313 L346.9563,397.9219 L339.6125,397.9219 L339.6125,409 Z " fill="#000000"/><text fill="#000000" font-family="sans-serif" font-size="14" lengthAdjust="spacing" textLength="77" x="360.45" y="407.7852">AxisModifier</text><line style="stroke:#181818;stroke-width:0.5;" x1="316.5" x2="452.5" y1="419" y2="419"/><text fill="#000000" font-family="sans-serif" font-size="14" lengthAdjust="spacing" textLength="90" x="321.5" y="435.9883">NONE = NONE</text><text fill="#000000" font-family="sans-serif" font-size="14" lengthAdjust="spacing" textLength="126" x="321.5" y="452.3945">INVERSE = INVERSE</text><line style="stroke:#181818;stroke-width:0.5;" x1="316.5" x2="452.5" y1="459.8125" y2="459.8125"/></g><!--reverse link Plot to XAxis--><g id="link_Plot_XAxis"><path codeLine="10" d="M242.0943,149.1698 C241.9043,183.8498 241.76,212.57 241.62,237.58 " fill="none" id="Plot-backto-XAxis" style="stroke:#181818;stroke-width:1.0;"/><polygon fill="#181818" points="242.16,137.17,238.1272,143.148,242.0943,149.1698,246.1271,143.1918,242.16,137.17" style="stroke:#181818;stroke-width:1.0;"/></g><!--reverse link Plot to YAxis--><g id="link_Plot_YAxis"><path codeLine="11" d="M297.409,145.6982 C312.149,165.2282 321.18,177.16 335.98,196.76 " fill="none" id="Plot-backto-YAxis" style="stroke:#181818;stroke-width:1.0;"/><polygon fill="#181818" points="290.18,136.12,290.6018,143.3188,297.409,145.6982,296.9872,138.4994,290.18,136.12" style="stroke:#181818;stroke-width:1.0;"/><text fill="#000000" font-family="sans-serif" font-size="13" lengthAdjust="spacing" textLength="20" x="309.5794" y="185.8757">1..2</text></g><!--reverse link ClassicScanModule to Plot--><g id="link_ClassicScanModule_Plot"><path codeLine="12" d="M172.21,72 C183.78,72 183.35,72 194.92,72 " fill="none" id="ClassicScanModule-backto-Plot" style="stroke:#181818;stroke-width:1.0;"/><polygon fill="#181818" points="160.21,72,166.21,76,172.21,72,166.21,68,160.21,72" style="stroke:#181818;stroke-width:1.0;"/><text fill="#000000" font-family="sans-serif" font-size="13" lengthAdjust="spacing" textLength="7" x="180.0984" y="67.9277">n</text></g><!--reverse link PlotAxis to XAxis--><g id="link_PlotAxis_XAxis"><path codeLine="20" d="M343.2724,127.1963 C314.4124,165.1363 282.88,206.6 259.18,237.76 " fill="none" id="PlotAxis-backto-XAxis" style="stroke:#181818;stroke-width:1.0;"/><polygon fill="none" points="354.17,112.87,338.497,123.5637,348.0478,130.8288,354.17,112.87" style="stroke:#181818;stroke-width:1.0;"/></g><!--reverse link PlotAxis to YAxis--><g id="link_PlotAxis_YAxis"><path codeLine="21" d="M384.5,130.87 C384.5,155.23 384.5,168.95 384.5,196.78 " fill="none" id="PlotAxis-backto-YAxis" style="stroke:#181818;stroke-width:1.0;"/><polygon fill="none" points="384.5,112.87,378.5,130.87,390.5,130.87,384.5,112.87" style="stroke:#181818;stroke-width:1.0;"/></g><!--reverse link PlotAxis to PlotMode--><g id="link_PlotAxis_PlotMode"><path codeLine="22" d="M425.4919,122.0806 C452.1319,153.9806 481.62,189.3 508.25,221.19 " fill="none" id="PlotAxis-backto-PlotMode" style="stroke:#181818;stroke-width:1.0;"/><polygon fill="#181818" points="417.8,112.87,418.5757,120.0393,425.4919,122.0806,424.7161,114.9113,417.8,112.87" style="stroke:#181818;stroke-width:1.0;"/></g><!--reverse link YAxis to AxisModifier--><g id="link_YAxis_AxisModifier"><path codeLine="34" d="M384.5,339.15 C384.5,359.19 384.5,368.71 384.5,386.58 " fill="none" id="YAxis-backto-AxisModifier" style="stroke:#181818;stroke-width:1.0;"/><polygon fill="#181818" points="384.5,327.15,380.5,333.15,384.5,339.15,388.5,333.15,384.5,327.15" style="stroke:#181818;stroke-width:1.0;"/></g><!--SRC=[PP51ImCn48Nl-HLXBuBG5ZqkUX3fmKEhM90kAZ9kfsimoIn92gtQ_-uaczRkkfSaNzxalSUUVOJG-d8oQJNOi35wN9EPr1gy7wqKD0wC4Eae7pG5-IqaVnOCobBwu9Hj4jd2Ldb6onjU4r5M1GRlH1h19hJBeYgAdbyxsOg1iW4RT68laidvQ9GVEXwBY_7uikWcnMtCe-f53NP6gur6biZ25YcY49O2icy8P2IjvJzrAHU8qcCB3WA-MCytqgIhqwxHAlTD8K_QiZZsZof-4dFkD73rqml_nwe-YwMEyzbrcItt1r2TP61FjLRes3VIMJvs_uES0Qs-y6sOL2kBFkpqu7VLfCaDEe7x72ZteZfcxNaAj1lJGpda_7u-bTTfIUUx-TFqSH5HtiLkQVZGFG_6dE1OrsqwHaq458Fy0W00]--></g></svg>