<?xml version="1.0" encoding="us-ascii" standalone="no"?><svg xmlns="http://www.w3.org/2000/svg" xmlns:xlink="http://www.w3.org/1999/xlink" contentStyleType="text/css" height="643px" preserveAspectRatio="none" style="width:978px;height:643px;background:#FFFFFF;" version="1.1" viewBox="0 0 978 643" width="978px" zoomAndPan="magnify"><defs/><g><!--cluster scan--><g id="cluster_scan"><path d="M647.5,6 L683.5,6 A3.75,3.75 0 0 1 686,8.5 L693,28.2969 L968.5,28.2969 A2.5,2.5 0 0 1 971,30.7969 L971,236.5 A2.5,2.5 0 0 1 968.5,239 L647.5,239 A2.5,2.5 0 0 1 645,236.5 L645,8.5 A2.5,2.5 0 0 1 647.5,6 " fill="none" style="stroke:#000000;stroke-width:1.5;"/><line style="stroke:#000000;stroke-width:1.5;" x1="645" x2="693" y1="28.2969" y2="28.2969"/><text fill="#000000" font-family="sans-serif" font-size="14" font-weight="bold" lengthAdjust="spacing" textLength="35" x="649" y="20.9951">scan</text></g><!--cluster boundaries--><g id="cluster_boundaries"><path d="M671.5,49 L761.5,49 A3.75,3.75 0 0 1 764,51.5 L771,71.2969 L944.5,71.2969 A2.5,2.5 0 0 1 947,73.7969 L947,212.5 A2.5,2.5 0 0 1 944.5,215 L671.5,215 A2.5,2.5 0 0 1 669,212.5 L669,51.5 A2.5,2.5 0 0 1 671.5,49 " fill="none" style="stroke:#000000;stroke-width:1.5;"/><line style="stroke:#000000;stroke-width:1.5;" x1="669" x2="771" y1="71.2969" y2="71.2969"/><text fill="#000000" font-family="sans-serif" font-size="14" font-weight="bold" lengthAdjust="spacing" textLength="89" x="673" y="63.9951">boundaries</text></g><!--cluster scan--><g id="cluster_scan"><path d="M825.5,92 L861.5,92 A3.75,3.75 0 0 1 864,94.5 L871,114.2969 L920.5,114.2969 A2.5,2.5 0 0 1 923,116.7969 L923,188.5 A2.5,2.5 0 0 1 920.5,191 L825.5,191 A2.5,2.5 0 0 1 823,188.5 L823,94.5 A2.5,2.5 0 0 1 825.5,92 " fill="none" style="stroke:#000000;stroke-width:1.5;"/><line style="stroke:#000000;stroke-width:1.5;" x1="823" x2="871" y1="114.2969" y2="114.2969"/><text fill="#000000" font-family="sans-serif" font-size="14" font-weight="bold" lengthAdjust="spacing" textLength="35" x="827" y="106.9951">scan</text></g><!--cluster setup--><g id="cluster_setup"><path d="M695.5,92 L741.5,92 A3.75,3.75 0 0 1 744,94.5 L751,114.2969 L796.5,114.2969 A2.5,2.5 0 0 1 799,116.7969 L799,188.5 A2.5,2.5 0 0 1 796.5,191 L695.5,191 A2.5,2.5 0 0 1 693,188.5 L693,94.5 A2.5,2.5 0 0 1 695.5,92 " fill="none" style="stroke:#000000;stroke-width:1.5;"/><line style="stroke:#000000;stroke-width:1.5;" x1="693" x2="751" y1="114.2969" y2="114.2969"/><text fill="#000000" font-family="sans-serif" font-size="14" font-weight="bold" lengthAdjust="spacing" textLength="45" x="697" y="106.9951">setup</text></g><!--class Scan--><g id="elem_Scan"><rect fill="#F1F1F1" height="48" id="Scan" rx="2.5" ry="2.5" style="stroke:#181818;stroke-width:0.5;" width="67" x="839.5" y="127"/><ellipse cx="854.5" cy="143" fill="#ADD1B2" rx="11" ry="11" style="stroke:#181818;stroke-width:1.0;"/><path d="M857.4844,148.6406 Q856.9063,148.9375 856.2656,149.0781 Q855.625,149.2344 854.9219,149.2344 Q852.4063,149.2344 851.0781,147.5938 Q849.7656,145.9375 849.7656,142.8125 Q849.7656,139.6719 851.0781,138.0313 Q852.4063,136.375 854.9219,136.375 Q855.625,136.375 856.2656,136.5313 Q856.9219,136.6719 857.4844,136.9688 L857.4844,139.6875 Q856.8438,139.1094 856.25,138.8438 Q855.6563,138.5781 855.0313,138.5781 Q853.6875,138.5781 853,139.6406 Q852.3125,140.7031 852.3125,142.8125 Q852.3125,144.9063 853,145.9844 Q853.6875,147.0469 855.0313,147.0469 Q855.6563,147.0469 856.25,146.7813 Q856.8438,146.5 857.4844,145.9219 L857.4844,148.6406 Z " fill="#000000"/><text fill="#000000" font-family="sans-serif" font-size="14" lengthAdjust="spacing" textLength="35" x="868.5" y="147.8467">Scan</text><line style="stroke:#181818;stroke-width:0.5;" x1="840.5" x2="905.5" y1="159" y2="159"/><line style="stroke:#181818;stroke-width:0.5;" x1="840.5" x2="905.5" y1="167" y2="167"/></g><!--class Setup--><g id="elem_Setup"><rect fill="#F1F1F1" height="48" id="Setup" rx="2.5" ry="2.5" style="stroke:#181818;stroke-width:0.5;" width="73" x="709.5" y="127"/><ellipse cx="724.5" cy="143" fill="#ADD1B2" rx="11" ry="11" style="stroke:#181818;stroke-width:1.0;"/><path d="M727.4844,148.6406 Q726.9063,148.9375 726.2656,149.0781 Q725.625,149.2344 724.9219,149.2344 Q722.4063,149.2344 721.0781,147.5938 Q719.7656,145.9375 719.7656,142.8125 Q719.7656,139.6719 721.0781,138.0313 Q722.4063,136.375 724.9219,136.375 Q725.625,136.375 726.2656,136.5313 Q726.9219,136.6719 727.4844,136.9688 L727.4844,139.6875 Q726.8438,139.1094 726.25,138.8438 Q725.6563,138.5781 725.0313,138.5781 Q723.6875,138.5781 723,139.6406 Q722.3125,140.7031 722.3125,142.8125 Q722.3125,144.9063 723,145.9844 Q723.6875,147.0469 725.0313,147.0469 Q725.6563,147.0469 726.25,146.7813 Q726.8438,146.5 727.4844,145.9219 L727.4844,148.6406 Z " fill="#000000"/><text fill="#000000" font-family="sans-serif" font-size="14" lengthAdjust="spacing" textLength="41" x="738.5" y="147.8467">Setup</text><line style="stroke:#181818;stroke-width:0.5;" x1="710.5" x2="781.5" y1="159" y2="159"/><line style="stroke:#181818;stroke-width:0.5;" x1="710.5" x2="781.5" y1="167" y2="167"/></g><!--class File--><g id="elem_File"><rect codeLine="2" fill="#F1F1F1" height="162.0781" id="File" rx="2.5" ry="2.5" style="stroke:#181818;stroke-width:0.5;" width="285" x="343.5" y="70"/><ellipse cx="469.25" cy="86" fill="#ADD1B2" rx="11" ry="11" style="stroke:#181818;stroke-width:1.0;"/><path d="M472.2344,91.6406 Q471.6563,91.9375 471.0156,92.0781 Q470.375,92.2344 469.6719,92.2344 Q467.1563,92.2344 465.8281,90.5938 Q464.5156,88.9375 464.5156,85.8125 Q464.5156,82.6719 465.8281,81.0313 Q467.1563,79.375 469.6719,79.375 Q470.375,79.375 471.0156,79.5313 Q471.6719,79.6719 472.2344,79.9688 L472.2344,82.6875 Q471.5938,82.1094 471,81.8438 Q470.4063,81.5781 469.7813,81.5781 Q468.4375,81.5781 467.75,82.6406 Q467.0625,83.7031 467.0625,85.8125 Q467.0625,87.9063 467.75,88.9844 Q468.4375,90.0469 469.7813,90.0469 Q470.4063,90.0469 471,89.7813 Q471.5938,89.5 472.2344,88.9219 L472.2344,91.6406 Z " fill="#000000"/><text fill="#000000" font-family="sans-serif" font-size="14" lengthAdjust="spacing" textLength="25" x="489.75" y="90.8467">File</text><line style="stroke:#181818;stroke-width:0.5;" x1="344.5" x2="627.5" y1="102" y2="102"/><text fill="#000000" font-family="sans-serif" font-size="14" lengthAdjust="spacing" textLength="149" x="349.5" y="118.9951">metadata : Metadata</text><text fill="#000000" font-family="sans-serif" font-size="14" lengthAdjust="spacing" textLength="211" x="349.5" y="135.292">log_messages : LogMessage[]</text><text fill="#000000" font-family="sans-serif" font-size="14" lengthAdjust="spacing" textLength="81" x="349.5" y="151.5889">scan : Scan</text><text fill="#000000" font-family="sans-serif" font-size="14" lengthAdjust="spacing" textLength="97" x="349.5" y="167.8857">data : Data{}</text><text fill="#000000" font-family="sans-serif" font-size="14" lengthAdjust="spacing" textLength="136" x="349.5" y="184.1826">snapshots : Data{}</text><text fill="#000000" font-family="sans-serif" font-size="14" lengthAdjust="spacing" textLength="128" x="349.5" y="200.4795">monitors : Data{}</text><text fill="#000000" font-family="sans-serif" font-size="14" lengthAdjust="spacing" textLength="273" x="349.5" y="216.7764">position_timestamps : TimestampData</text><line style="stroke:#181818;stroke-width:0.5;" x1="344.5" x2="627.5" y1="224.0781" y2="224.0781"/></g><!--class Data--><g id="elem_Data"><rect fill="#F1F1F1" height="48" id="Data" rx="2.5" ry="2.5" style="stroke:#181818;stroke-width:0.5;" width="66" x="545" y="390"/><ellipse cx="560" cy="406" fill="#ADD1B2" rx="11" ry="11" style="stroke:#181818;stroke-width:1.0;"/><path d="M562.9844,411.6406 Q562.4063,411.9375 561.7656,412.0781 Q561.125,412.2344 560.4219,412.2344 Q557.9063,412.2344 556.5781,410.5938 Q555.2656,408.9375 555.2656,405.8125 Q555.2656,402.6719 556.5781,401.0313 Q557.9063,399.375 560.4219,399.375 Q561.125,399.375 561.7656,399.5313 Q562.4219,399.6719 562.9844,399.9688 L562.9844,402.6875 Q562.3438,402.1094 561.75,401.8438 Q561.1563,401.5781 560.5313,401.5781 Q559.1875,401.5781 558.5,402.6406 Q557.8125,403.7031 557.8125,405.8125 Q557.8125,407.9063 558.5,408.9844 Q559.1875,410.0469 560.5313,410.0469 Q561.1563,410.0469 561.75,409.7813 Q562.3438,409.5 562.9844,408.9219 L562.9844,411.6406 Z " fill="#000000"/><text fill="#000000" font-family="sans-serif" font-size="14" lengthAdjust="spacing" textLength="34" x="574" y="410.8467">Data</text><line style="stroke:#181818;stroke-width:0.5;" x1="546" x2="610" y1="422" y2="422"/><line style="stroke:#181818;stroke-width:0.5;" x1="546" x2="610" y1="430" y2="430"/></g><g id="elem_GMN5"><path d="M515.5,596 L515.5,636.2656 A0,0 0 0 0 515.5,636.2656 L640.5,636.2656 A0,0 0 0 0 640.5,636.2656 L640.5,606 L630.5,596 L582,596 L578,438.33 L574,596 L515.5,596 A0,0 0 0 0 515.5,596 " fill="#FEFFDD" style="stroke:#181818;stroke-width:0.5;"/><path d="M630.5,596 L630.5,606 L640.5,606 L630.5,596 " fill="#FEFFDD" style="stroke:#181818;stroke-width:0.5;"/><text fill="#000000" font-family="sans-serif" font-size="13" lengthAdjust="spacing" textLength="104" x="521.5" y="613.0669">See diagram for</text><text fill="#000000" font-family="sans-serif" font-size="13" lengthAdjust="spacing" textLength="86" x="521.5" y="628.1997">data module.</text></g><!--class Metadata--><g id="elem_Metadata"><rect codeLine="15" fill="#F1F1F1" height="243.5625" id="Metadata" rx="2.5" ry="2.5" style="stroke:#181818;stroke-width:0.5;" width="302" x="7" y="292"/><ellipse cx="120.25" cy="308" fill="#ADD1B2" rx="11" ry="11" style="stroke:#181818;stroke-width:1.0;"/><path d="M123.2344,313.6406 Q122.6563,313.9375 122.0156,314.0781 Q121.375,314.2344 120.6719,314.2344 Q118.1563,314.2344 116.8281,312.5938 Q115.5156,310.9375 115.5156,307.8125 Q115.5156,304.6719 116.8281,303.0313 Q118.1563,301.375 120.6719,301.375 Q121.375,301.375 122.0156,301.5313 Q122.6719,301.6719 123.2344,301.9688 L123.2344,304.6875 Q122.5938,304.1094 122,303.8438 Q121.4063,303.5781 120.7813,303.5781 Q119.4375,303.5781 118.75,304.6406 Q118.0625,305.7031 118.0625,307.8125 Q118.0625,309.9063 118.75,310.9844 Q119.4375,312.0469 120.7813,312.0469 Q121.4063,312.0469 122,311.7813 Q122.5938,311.5 123.2344,310.9219 L123.2344,313.6406 Z " fill="#000000"/><text fill="#000000" font-family="sans-serif" font-size="14" lengthAdjust="spacing" textLength="67" x="140.75" y="312.8467">Metadata</text><line style="stroke:#181818;stroke-width:0.5;" x1="8" x2="308" y1="324" y2="324"/><text fill="#000000" font-family="sans-serif" font-size="14" lengthAdjust="spacing" textLength="116" x="13" y="340.9951">filename : string</text><text fill="#000000" font-family="sans-serif" font-size="14" lengthAdjust="spacing" textLength="156" x="13" y="357.292">eveh5_version : string</text><text fill="#000000" font-family="sans-serif" font-size="14" lengthAdjust="spacing" textLength="138" x="13" y="373.5889">eve_version : string</text><text fill="#000000" font-family="sans-serif" font-size="14" lengthAdjust="spacing" textLength="134" x="13" y="389.8857">xml_version: string</text><text fill="#000000" font-family="sans-serif" font-size="14" lengthAdjust="spacing" textLength="208" x="13" y="406.1826">measurement_station : string</text><text fill="#000000" font-family="sans-serif" font-size="14" lengthAdjust="spacing" textLength="109" x="13" y="422.4795">start : datetime</text><text fill="#000000" font-family="sans-serif" font-size="14" lengthAdjust="spacing" textLength="104" x="13" y="438.7764">end : datetime</text><text fill="#000000" font-family="sans-serif" font-size="14" lengthAdjust="spacing" textLength="132" x="13" y="455.0732">description : string</text><text fill="#000000" font-family="sans-serif" font-size="14" lengthAdjust="spacing" textLength="145" x="13" y="471.3701">simulation : boolean</text><text fill="#000000" font-family="sans-serif" font-size="14" lengthAdjust="spacing" textLength="156" x="13" y="487.667">preferred_axis : string</text><text fill="#000000" font-family="sans-serif" font-size="14" lengthAdjust="spacing" textLength="185" x="13" y="503.9639">preferred_channel : string</text><text fill="#000000" font-family="sans-serif" font-size="14" lengthAdjust="spacing" textLength="290" x="13" y="520.2607">preferred_normalisation_channel : string</text><line style="stroke:#181818;stroke-width:0.5;" x1="8" x2="308" y1="527.5625" y2="527.5625"/></g><!--class LogMessage--><g id="elem_LogMessage"><rect codeLine="30" fill="#F1F1F1" height="80.5938" id="LogMessage" rx="2.5" ry="2.5" style="stroke:#181818;stroke-width:0.5;" width="165" x="344.5" y="373.5"/><ellipse cx="379.75" cy="389.5" fill="#ADD1B2" rx="11" ry="11" style="stroke:#181818;stroke-width:1.0;"/><path d="M382.7344,395.1406 Q382.1563,395.4375 381.5156,395.5781 Q380.875,395.7344 380.1719,395.7344 Q377.6563,395.7344 376.3281,394.0938 Q375.0156,392.4375 375.0156,389.3125 Q375.0156,386.1719 376.3281,384.5313 Q377.6563,382.875 380.1719,382.875 Q380.875,382.875 381.5156,383.0313 Q382.1719,383.1719 382.7344,383.4688 L382.7344,386.1875 Q382.0938,385.6094 381.5,385.3438 Q380.9063,385.0781 380.2813,385.0781 Q378.9375,385.0781 378.25,386.1406 Q377.5625,387.2031 377.5625,389.3125 Q377.5625,391.4063 378.25,392.4844 Q378.9375,393.5469 380.2813,393.5469 Q380.9063,393.5469 381.5,393.2813 Q382.0938,393 382.7344,392.4219 L382.7344,395.1406 Z " fill="#000000"/><text fill="#000000" font-family="sans-serif" font-size="14" lengthAdjust="spacing" textLength="88" x="398.25" y="394.3467">LogMessage</text><line style="stroke:#181818;stroke-width:0.5;" x1="345.5" x2="508.5" y1="405.5" y2="405.5"/><text fill="#000000" font-family="sans-serif" font-size="14" lengthAdjust="spacing" textLength="153" x="350.5" y="422.4951">timestamp : datetime</text><text fill="#000000" font-family="sans-serif" font-size="14" lengthAdjust="spacing" textLength="117" x="350.5" y="438.792">message : string</text><line style="stroke:#181818;stroke-width:0.5;" x1="345.5" x2="508.5" y1="446.0938" y2="446.0938"/></g><!--class Scan--><g id="elem_Scan"><rect codeLine="35" fill="#F1F1F1" height="80.5938" id="Scan" rx="2.5" ry="2.5" style="stroke:#181818;stroke-width:0.5;" width="128" x="809" y="373.5"/><ellipse cx="851.45" cy="389.5" fill="#ADD1B2" rx="11" ry="11" style="stroke:#181818;stroke-width:1.0;"/><path d="M854.4344,395.1406 Q853.8563,395.4375 853.2156,395.5781 Q852.575,395.7344 851.8719,395.7344 Q849.3563,395.7344 848.0281,394.0938 Q846.7156,392.4375 846.7156,389.3125 Q846.7156,386.1719 848.0281,384.5313 Q849.3563,382.875 851.8719,382.875 Q852.575,382.875 853.2156,383.0313 Q853.8719,383.1719 854.4344,383.4688 L854.4344,386.1875 Q853.7938,385.6094 853.2,385.3438 Q852.6063,385.0781 851.9813,385.0781 Q850.6375,385.0781 849.95,386.1406 Q849.2625,387.2031 849.2625,389.3125 Q849.2625,391.4063 849.95,392.4844 Q850.6375,393.5469 851.9813,393.5469 Q852.6063,393.5469 853.2,393.2813 Q853.7938,393 854.4344,392.4219 L854.4344,395.1406 Z " fill="#000000"/><text fill="#000000" font-family="sans-serif" font-size="14" lengthAdjust="spacing" textLength="35" x="871.55" y="394.3467">Scan</text><line style="stroke:#181818;stroke-width:0.5;" x1="810" x2="936" y1="405.5" y2="405.5"/><text fill="#000000" font-family="sans-serif" font-size="14" lengthAdjust="spacing" textLength="100" x="815" y="422.4951">author : string</text><text fill="#000000" font-family="sans-serif" font-size="14" lengthAdjust="spacing" textLength="116" x="815" y="438.792">filename : string</text><line style="stroke:#181818;stroke-width:0.5;" x1="810" x2="936" y1="446.0938" y2="446.0938"/></g><!--class Setup--><g id="elem_Setup"><rect codeLine="41" fill="#F1F1F1" height="80.5938" id="Setup" rx="2.5" ry="2.5" style="stroke:#181818;stroke-width:0.5;" width="128" x="646" y="373.5"/><ellipse cx="685.75" cy="389.5" fill="#ADD1B2" rx="11" ry="11" style="stroke:#181818;stroke-width:1.0;"/><path d="M688.7344,395.1406 Q688.1563,395.4375 687.5156,395.5781 Q686.875,395.7344 686.1719,395.7344 Q683.6563,395.7344 682.3281,394.0938 Q681.0156,392.4375 681.0156,389.3125 Q681.0156,386.1719 682.3281,384.5313 Q683.6563,382.875 686.1719,382.875 Q686.875,382.875 687.5156,383.0313 Q688.1719,383.1719 688.7344,383.4688 L688.7344,386.1875 Q688.0938,385.6094 687.5,385.3438 Q686.9063,385.0781 686.2813,385.0781 Q684.9375,385.0781 684.25,386.1406 Q683.5625,387.2031 683.5625,389.3125 Q683.5625,391.4063 684.25,392.4844 Q684.9375,393.5469 686.2813,393.5469 Q686.9063,393.5469 687.5,393.2813 Q688.0938,393 688.7344,392.4219 L688.7344,395.1406 Z " fill="#000000"/><text fill="#000000" font-family="sans-serif" font-size="14" lengthAdjust="spacing" textLength="41" x="705.25" y="394.3467">Setup</text><line style="stroke:#181818;stroke-width:0.5;" x1="647" x2="773" y1="405.5" y2="405.5"/><text fill="#000000" font-family="sans-serif" font-size="14" lengthAdjust="spacing" textLength="100" x="652" y="422.4951">author : string</text><text fill="#000000" font-family="sans-serif" font-size="14" lengthAdjust="spacing" textLength="116" x="652" y="438.792">filename : string</text><line style="stroke:#181818;stroke-width:0.5;" x1="647" x2="773" y1="446.0938" y2="446.0938"/></g><!--reverse link File to Data--><g id="link_File_Data"><path codeLine="12" d="M518.2183,243.3978 C537.3883,297.7978 557.44,354.68 569.81,389.77 " fill="none" id="File-backto-Data" style="stroke:#181818;stroke-width:1.0;"/><polygon fill="#181818" points="514.23,232.08,512.4515,239.0684,518.2183,243.3978,519.9968,236.4095,514.23,232.08" style="stroke:#181818;stroke-width:1.0;"/><text fill="#000000" font-family="sans-serif" font-size="13" lengthAdjust="spacing" textLength="8" x="558.8387" y="379.1189">n</text></g><!--reverse link Scan to Scan--><g id="link_Scan_Scan"><path d="M873,193.16 C873,237.7 873,317.76 873,373.05 " fill="none" id="Scan-backto-Scan" style="stroke:#181818;stroke-width:1.0;"/><polygon fill="none" points="873,175.16,867,193.16,879,193.16,873,175.16" style="stroke:#181818;stroke-width:1.0;"/></g><!--reverse link Setup to Setup--><g id="link_Setup_Setup"><path d="M740.348,192.9908 C734.198,237.5308 723.14,317.76 715.51,373.05 " fill="none" id="Setup-backto-Setup" style="stroke:#181818;stroke-width:1.0;"/><polygon fill="none" points="742.81,175.16,734.4043,192.1701,746.2916,193.8115,742.81,175.16" style="stroke:#181818;stroke-width:1.0;"/></g><!--reverse link File to Metadata--><g id="link_File_Metadata"><path codeLine="46" d="M375.9706,239.5526 C351.8706,258.7326 334.99,272.16 309.16,292.72 " fill="none" id="File-backto-Metadata" style="stroke:#181818;stroke-width:1.0;"/><polygon fill="#181818" points="385.36,232.08,378.1744,232.6865,375.9706,239.5526,383.1562,238.9461,385.36,232.08" style="stroke:#181818;stroke-width:1.0;"/></g><!--reverse link File to LogMessage--><g id="link_File_LogMessage"><path codeLine="47" d="M465.2536,243.7846 C454.6836,290.5346 444.45,335.79 436.01,373.15 " fill="none" id="File-backto-LogMessage" style="stroke:#181818;stroke-width:1.0;"/><polygon fill="#181818" points="467.9,232.08,462.6753,237.0502,465.2536,243.7846,470.4783,238.8144,467.9,232.08" style="stroke:#181818;stroke-width:1.0;"/><text fill="#000000" font-family="sans-serif" font-size="13" lengthAdjust="spacing" textLength="8" x="457.9317" y="252.0385">1</text><text fill="#000000" font-family="sans-serif" font-size="13" lengthAdjust="spacing" textLength="8" x="428.8085" y="362.5541">n</text></g><!--reverse link File to Scan--><g id="link_File_Scan"><path codeLine="48" d="M639.4097,222.4779 C661.0197,232.3779 672.14,237.47 693,247 C736.96,267.08 755.15,260.72 792,292 C818.4,314.41 839.75,347.49 853.88,373.4 " fill="none" id="File-backto-Scan" style="stroke:#181818;stroke-width:1.0;"/><polygon fill="#181818" points="628.5,217.48,632.2888,223.6155,639.4097,222.4779,635.6208,216.3424,628.5,217.48" style="stroke:#181818;stroke-width:1.0;"/></g><!--reverse link File to Setup--><g id="link_File_Setup"><path codeLine="49" d="M581.403,240.7975 C600.303,259.7075 611.17,271.78 628,292 C649.43,317.75 670.56,349.11 686,373.46 " fill="none" id="File-backto-Setup" style="stroke:#181818;stroke-width:1.0;"/><polygon fill="#181818" points="572.92,232.31,574.3323,239.3814,581.403,240.7975,579.9907,233.7261,572.92,232.31" style="stroke:#181818;stroke-width:1.0;"/></g><!--SRC=[bLExRiCm3Dpr5KAM0WKIe4ENpaMdPcgtjZ0Oct64Ig8Xqa608FzUMhPZE8-XNcJUKUHHEfKUcEsRysYFnkeNKA020VjYryDlnZtLHK1cg96LUwTwtKTVFvdd4gBY7xhaUAZngilnr6T4Q7X7mdCuK7H2wG9jY9quYeKuxIeGcYxXSmowJ7Co9Wj_N2xj8YxoTXD9q6v8X8AgGRILWpf1i5jAtp6h2bIr7bV6b7duSSn-_grMZ11Gkx4a5-kCuXvtpyKU4wkcA-esSGX-96PuGE0sOS0eXGuZLniLJAAGYi9k_BvDh2wX2hbChhbHm8NMZuKtH1w7IsaIRZ4bh0euE9vlchXo1p6YlqT7IW6yuzpWElaqdkjaaS5Qvwky76JmrOqQdPqi7aIdvsonrOPQlSNaa5SvpXbzVMXbHsak-_ewJ-OXUyJZLcOEuTuYsSZSRXeeVrNKsIOVA6rpNql7hlgS_wcPF7n-RnbPF2tEpfwESihEBssAkixc3m00]--></g></svg>