<?xml version="1.0" encoding="us-ascii" standalone="no"?><svg xmlns="http://www.w3.org/2000/svg" xmlns:xlink="http://www.w3.org/1999/xlink" contentStyleType="text/css" height="281px" preserveAspectRatio="none" style="width:471px;height:281px;background:#FFFFFF;" version="1.1" viewBox="0 0 471 281" width="471.5px" zoomAndPan="magnify"><defs/><g><!--cluster evedata--><g id="cluster_evedata"><path d="M4.25,3 L30.75,3 A1.875,1.875 0 0 1 32,4.25 L35.5,14.2031 L466.75,14.2031 A1.25,1.25 0 0 1 468,15.4531 L468,276.25 A1.25,1.25 0 0 1 466.75,277.5 L4.25,277.5 A1.25,1.25 0 0 1 3,276.25 L3,4.25 A1.25,1.25 0 0 1 4.25,3 " fill="none" style="stroke:#000000;stroke-width:0.75;"/><line style="stroke:#000000;stroke-width:0.75;" x1="3" x2="35.5" y1="14.2031" y2="14.2031"/><text fill="#000000" font-family="sans-serif" font-size="7" font-weight="bold" lengthAdjust="spacing" textLength="26" x="5" y="10.4941">evedata</text></g><!--cluster io--><g id="cluster_io"><path d="M407.25,32.5 L413.75,32.5 A1.875,1.875 0 0 1 415,33.75 L418.5,43.7031 L454.75,43.7031 A1.25,1.25 0 0 1 456,44.9531 L456,199.75 A1.25,1.25 0 0 1 454.75,201 L407.25,201 A1.25,1.25 0 0 1 406,199.75 L406,33.75 A1.25,1.25 0 0 1 407.25,32.5 " fill="none" style="stroke:#000000;stroke-width:0.75;"/><line style="stroke:#000000;stroke-width:0.75;" x1="406" x2="418.5" y1="43.7031" y2="43.7031"/><text fill="#000000" font-family="sans-serif" font-size="7" font-weight="bold" lengthAdjust="spacing" textLength="6" x="408" y="39.9941">io</text></g><!--cluster operations--><g id="cluster_operations"><path d="M327.25,32.5 L362.25,32.5 A1.875,1.875 0 0 1 363.5,33.75 L367,43.7031 L392.75,43.7031 A1.25,1.25 0 0 1 394,44.9531 L394,199.75 A1.25,1.25 0 0 1 392.75,201 L327.25,201 A1.25,1.25 0 0 1 326,199.75 L326,33.75 A1.25,1.25 0 0 1 327.25,32.5 " fill="none" style="stroke:#000000;stroke-width:0.75;"/><line style="stroke:#000000;stroke-width:0.75;" x1="326" x2="367" y1="43.7031" y2="43.7031"/><text fill="#000000" font-family="sans-serif" font-size="7" font-weight="bold" lengthAdjust="spacing" textLength="34.5" x="328" y="39.9941">operations</text></g><!--cluster evefile--><g id="cluster_evefile"><path d="M20.25,28.5 L42.75,28.5 A1.875,1.875 0 0 1 44,29.75 L47.5,39.7031 L92.25,39.7031 A1.25,1.25 0 0 1 93.5,40.9531 L93.5,203.75 A1.25,1.25 0 0 1 92.25,205 L20.25,205 A1.25,1.25 0 0 1 19,203.75 L19,29.75 A1.25,1.25 0 0 1 20.25,28.5 " fill="none" style="stroke:#000000;stroke-width:0.75;"/><line style="stroke:#000000;stroke-width:0.75;" x1="19" x2="47.5" y1="39.7031" y2="39.7031"/><text fill="#000000" font-family="sans-serif" font-size="7" font-weight="bold" lengthAdjust="spacing" textLength="22" x="21" y="35.9941">evefile</text></g><!--cluster scml--><g id="cluster_scml"><path d="M114.75,88.5 L130.25,88.5 A1.875,1.875 0 0 1 131.5,89.75 L135,99.7031 L214.25,99.7031 A1.25,1.25 0 0 1 215.5,100.9531 L215.5,260.25 A1.25,1.25 0 0 1 214.25,261.5 L114.75,261.5 A1.25,1.25 0 0 1 113.5,260.25 L113.5,89.75 A1.25,1.25 0 0 1 114.75,88.5 " fill="none" style="stroke:#000000;stroke-width:0.75;"/><line style="stroke:#000000;stroke-width:0.75;" x1="113.5" x2="135" y1="99.7031" y2="99.7031"/><text fill="#000000" font-family="sans-serif" font-size="7" font-weight="bold" lengthAdjust="spacing" textLength="15" x="115.5" y="95.9941">scml</text></g><!--cluster dataset--><g id="cluster_dataset"><path d="M236.75,88.5 L261.75,88.5 A1.875,1.875 0 0 1 263,89.75 L266.5,99.7031 L308.75,99.7031 A1.25,1.25 0 0 1 310,100.9531 L310,203.75 A1.25,1.25 0 0 1 308.75,205 L236.75,205 A1.25,1.25 0 0 1 235.5,203.75 L235.5,89.75 A1.25,1.25 0 0 1 236.75,88.5 " fill="none" style="stroke:#000000;stroke-width:0.75;"/><line style="stroke:#000000;stroke-width:0.75;" x1="235.5" x2="266.5" y1="99.7031" y2="99.7031"/><text fill="#000000" font-family="sans-serif" font-size="7" font-weight="bold" lengthAdjust="spacing" textLength="24.5" x="237.5" y="95.9941">dataset</text></g><path d="M417,50 L438,50 A1.875,1.875 0 0 1 439.25,51.25 L442.75,61.2031 L445,61.2031 A1.25,1.25 0 0 1 446.25,62.4531 L446.25,75.1563 A1.25,1.25 0 0 1 445,76.4063 L417,76.4063 A1.25,1.25 0 0 1 415.75,75.1563 L415.75,51.25 A1.25,1.25 0 0 1 417,50 " fill="#F1F1F1" style="stroke:#181818;stroke-width:0.25;"/><line style="stroke:#181818;stroke-width:0.25;" x1="415.75" x2="442.75" y1="61.2031" y2="61.2031"/><text fill="#000000" font-family="sans-serif" font-size="7" font-weight="bold" lengthAdjust="spacing" textLength="20.5" x="417.75" y="57.4941">eveH5</text><path d="M419.75,110 L435.25,110 A1.875,1.875 0 0 1 436.5,111.25 L440,121.2031 L442.25,121.2031 A1.25,1.25 0 0 1 443.5,122.4531 L443.5,135.1563 A1.25,1.25 0 0 1 442.25,136.4063 L419.75,136.4063 A1.25,1.25 0 0 1 418.5,135.1563 L418.5,111.25 A1.25,1.25 0 0 1 419.75,110 " fill="#F1F1F1" style="stroke:#181818;stroke-width:0.25;"/><line style="stroke:#181818;stroke-width:0.25;" x1="418.5" x2="440" y1="121.2031" y2="121.2031"/><text fill="#000000" font-family="sans-serif" font-size="7" font-weight="bold" lengthAdjust="spacing" textLength="15" x="420.5" y="117.4941">scml</text><path d="M415.5,166.5 L439.5,166.5 A1.875,1.875 0 0 1 440.75,167.75 L444.25,177.7031 L446.5,177.7031 A1.25,1.25 0 0 1 447.75,178.9531 L447.75,191.6563 A1.25,1.25 0 0 1 446.5,192.9063 L415.5,192.9063 A1.25,1.25 0 0 1 414.25,191.6563 L414.25,167.75 A1.25,1.25 0 0 1 415.5,166.5 " fill="#F1F1F1" style="stroke:#181818;stroke-width:0.25;"/><line style="stroke:#181818;stroke-width:0.25;" x1="414.25" x2="444.25" y1="177.7031" y2="177.7031"/><text fill="#000000" font-family="sans-serif" font-size="7" font-weight="bold" lengthAdjust="spacing" textLength="23.5" x="416.25" y="173.9941">images</text><path d="M347,50 L366,50 A1.875,1.875 0 0 1 367.25,51.25 L370.75,61.2031 L373,61.2031 A1.25,1.25 0 0 1 374.25,62.4531 L374.25,75.1563 A1.25,1.25 0 0 1 373,76.4063 L347,76.4063 A1.25,1.25 0 0 1 345.75,75.1563 L345.75,51.25 A1.25,1.25 0 0 1 347,50 " fill="#F1F1F1" style="stroke:#181818;stroke-width:0.25;"/><line style="stroke:#181818;stroke-width:0.25;" x1="345.75" x2="370.75" y1="61.2031" y2="61.2031"/><text fill="#000000" font-family="sans-serif" font-size="7" font-weight="bold" lengthAdjust="spacing" textLength="18.5" x="347.75" y="57.4941">filling</text><path d="M335.5,110 L377.5,110 A1.875,1.875 0 0 1 378.75,111.25 L382.25,121.2031 L384.5,121.2031 A1.25,1.25 0 0 1 385.75,122.4531 L385.75,135.1563 A1.25,1.25 0 0 1 384.5,136.4063 L335.5,136.4063 A1.25,1.25 0 0 1 334.25,135.1563 L334.25,111.25 A1.25,1.25 0 0 1 335.5,110 " fill="#F1F1F1" style="stroke:#181818;stroke-width:0.25;"/><line style="stroke:#181818;stroke-width:0.25;" x1="334.25" x2="382.25" y1="121.2031" y2="121.2031"/><text fill="#000000" font-family="sans-serif" font-size="7" font-weight="bold" lengthAdjust="spacing" textLength="41.5" x="336.25" y="117.4941">transforming</text><path d="M342.25,166.5 L370.75,166.5 A1.875,1.875 0 0 1 372,167.75 L375.5,177.7031 L377.75,177.7031 A1.25,1.25 0 0 1 379,178.9531 L379,191.6563 A1.25,1.25 0 0 1 377.75,192.9063 L342.25,192.9063 A1.25,1.25 0 0 1 341,191.6563 L341,167.75 A1.25,1.25 0 0 1 342.25,166.5 " fill="#F1F1F1" style="stroke:#181818;stroke-width:0.25;"/><line style="stroke:#181818;stroke-width:0.25;" x1="341" x2="375.5" y1="177.7031" y2="177.7031"/><text fill="#000000" font-family="sans-serif" font-size="7" font-weight="bold" lengthAdjust="spacing" textLength="28" x="343" y="173.9941">mapping</text><path d="M42.5,166.5 L53.5,166.5 A1.875,1.875 0 0 1 54.75,167.75 L58.25,177.7031 L60.5,177.7031 A1.25,1.25 0 0 1 61.75,178.9531 L61.75,191.6563 A1.25,1.25 0 0 1 60.5,192.9063 L42.5,192.9063 A1.25,1.25 0 0 1 41.25,191.6563 L41.25,167.75 A1.25,1.25 0 0 1 42.5,166.5 " fill="#F1F1F1" style="stroke:#181818;stroke-width:0.25;"/><line style="stroke:#181818;stroke-width:0.25;" x1="41.25" x2="58.25" y1="177.7031" y2="177.7031"/><text fill="#000000" font-family="sans-serif" font-size="7" font-weight="bold" lengthAdjust="spacing" textLength="10.5" x="43.25" y="173.9941">file</text><path d="M40.5,110 L55.5,110 A1.875,1.875 0 0 1 56.75,111.25 L60.25,121.2031 L62.5,121.2031 A1.25,1.25 0 0 1 63.75,122.4531 L63.75,135.1563 A1.25,1.25 0 0 1 62.5,136.4063 L40.5,136.4063 A1.25,1.25 0 0 1 39.25,135.1563 L39.25,111.25 A1.25,1.25 0 0 1 40.5,110 " fill="#F1F1F1" style="stroke:#181818;stroke-width:0.25;"/><line style="stroke:#181818;stroke-width:0.25;" x1="39.25" x2="60.25" y1="121.2031" y2="121.2031"/><text fill="#000000" font-family="sans-serif" font-size="7" font-weight="bold" lengthAdjust="spacing" textLength="14.5" x="41.25" y="117.4941">data</text><path d="M32.25,50 L63.75,50 A1.875,1.875 0 0 1 65,51.25 L68.5,61.2031 L70.75,61.2031 A1.25,1.25 0 0 1 72,62.4531 L72,75.1563 A1.25,1.25 0 0 1 70.75,76.4063 L32.25,76.4063 A1.25,1.25 0 0 1 31,75.1563 L31,51.25 A1.25,1.25 0 0 1 32.25,50 " fill="#F1F1F1" style="stroke:#181818;stroke-width:0.25;"/><line style="stroke:#181818;stroke-width:0.25;" x1="31" x2="68.5" y1="61.2031" y2="61.2031"/><text fill="#000000" font-family="sans-serif" font-size="7" font-weight="bold" lengthAdjust="spacing" textLength="31" x="33" y="57.4941">metadata</text><path d="M156.25,223 L171.75,223 A1.875,1.875 0 0 1 173,224.25 L176.5,234.2031 L178.75,234.2031 A1.25,1.25 0 0 1 180,235.4531 L180,248.1563 A1.25,1.25 0 0 1 178.75,249.4063 L156.25,249.4063 A1.25,1.25 0 0 1 155,248.1563 L155,224.25 A1.25,1.25 0 0 1 156.25,223 " fill="#F1F1F1" style="stroke:#181818;stroke-width:0.25;"/><line style="stroke:#181818;stroke-width:0.25;" x1="155" x2="176.5" y1="234.2031" y2="234.2031"/><text fill="#000000" font-family="sans-serif" font-size="7" font-weight="bold" lengthAdjust="spacing" textLength="15" x="157" y="230.4941">scml</text><path d="M176.75,166.5 L195.25,166.5 A1.875,1.875 0 0 1 196.5,167.75 L200,177.7031 L202.25,177.7031 A1.25,1.25 0 0 1 203.5,178.9531 L203.5,191.6563 A1.25,1.25 0 0 1 202.25,192.9063 L176.75,192.9063 A1.25,1.25 0 0 1 175.5,191.6563 L175.5,167.75 A1.25,1.25 0 0 1 176.75,166.5 " fill="#F1F1F1" style="stroke:#181818;stroke-width:0.25;"/><line style="stroke:#181818;stroke-width:0.25;" x1="175.5" x2="200" y1="177.7031" y2="177.7031"/><text fill="#000000" font-family="sans-serif" font-size="7" font-weight="bold" lengthAdjust="spacing" textLength="18" x="177.5" y="173.9941">setup</text><path d="M134.25,166.5 L149.75,166.5 A1.875,1.875 0 0 1 151,167.75 L154.5,177.7031 L156.75,177.7031 A1.25,1.25 0 0 1 158,178.9531 L158,191.6563 A1.25,1.25 0 0 1 156.75,192.9063 L134.25,192.9063 A1.25,1.25 0 0 1 133,191.6563 L133,167.75 A1.25,1.25 0 0 1 134.25,166.5 " fill="#F1F1F1" style="stroke:#181818;stroke-width:0.25;"/><line style="stroke:#181818;stroke-width:0.25;" x1="133" x2="154.5" y1="177.7031" y2="177.7031"/><text fill="#000000" font-family="sans-serif" font-size="7" font-weight="bold" lengthAdjust="spacing" textLength="15" x="135" y="173.9941">scan</text><path d="M176.75,110 L195.25,110 A1.875,1.875 0 0 1 196.5,111.25 L200,121.2031 L202.25,121.2031 A1.25,1.25 0 0 1 203.5,122.4531 L203.5,135.1563 A1.25,1.25 0 0 1 202.25,136.4063 L176.75,136.4063 A1.25,1.25 0 0 1 175.5,135.1563 L175.5,111.25 A1.25,1.25 0 0 1 176.75,110 " fill="#F1F1F1" style="stroke:#181818;stroke-width:0.25;"/><line style="stroke:#181818;stroke-width:0.25;" x1="175.5" x2="200" y1="121.2031" y2="121.2031"/><text fill="#000000" font-family="sans-serif" font-size="7" font-weight="bold" lengthAdjust="spacing" textLength="18" x="177.5" y="117.4941">event</text><path d="M136.5,110 L149.5,110 A1.875,1.875 0 0 1 150.75,111.25 L154.25,121.2031 L156.5,121.2031 A1.25,1.25 0 0 1 157.75,122.4531 L157.75,135.1563 A1.25,1.25 0 0 1 156.5,136.4063 L136.5,136.4063 A1.25,1.25 0 0 1 135.25,135.1563 L135.25,111.25 A1.25,1.25 0 0 1 136.5,110 " fill="#F1F1F1" style="stroke:#181818;stroke-width:0.25;"/><line style="stroke:#181818;stroke-width:0.25;" x1="135.25" x2="154.25" y1="121.2031" y2="121.2031"/><text fill="#000000" font-family="sans-serif" font-size="7" font-weight="bold" lengthAdjust="spacing" textLength="12.5" x="137.25" y="117.4941">plot</text><path d="M261.5,166.5 L286.5,166.5 A1.875,1.875 0 0 1 287.75,167.75 L291.25,177.7031 L293.5,177.7031 A1.25,1.25 0 0 1 294.75,178.9531 L294.75,191.6563 A1.25,1.25 0 0 1 293.5,192.9063 L261.5,192.9063 A1.25,1.25 0 0 1 260.25,191.6563 L260.25,167.75 A1.25,1.25 0 0 1 261.5,166.5 " fill="#F1F1F1" style="stroke:#181818;stroke-width:0.25;"/><line style="stroke:#181818;stroke-width:0.25;" x1="260.25" x2="291.25" y1="177.7031" y2="177.7031"/><text fill="#000000" font-family="sans-serif" font-size="7" font-weight="bold" lengthAdjust="spacing" textLength="24.5" x="262.25" y="173.9941">dataset</text><path d="M258.25,110 L289.75,110 A1.875,1.875 0 0 1 291,111.25 L294.5,121.2031 L296.75,121.2031 A1.25,1.25 0 0 1 298,122.4531 L298,135.1563 A1.25,1.25 0 0 1 296.75,136.4063 L258.25,136.4063 A1.25,1.25 0 0 1 257,135.1563 L257,111.25 A1.25,1.25 0 0 1 258.25,110 " fill="#F1F1F1" style="stroke:#181818;stroke-width:0.25;"/><line style="stroke:#181818;stroke-width:0.25;" x1="257" x2="294.5" y1="121.2031" y2="121.2031"/><text fill="#000000" font-family="sans-serif" font-size="7" font-weight="bold" lengthAdjust="spacing" textLength="31" x="259" y="117.4941">metadata</text><!--link eveH5 to scml--><!--link scml to images--><!--link filling to transforming--><!--link transforming to mapping--><!--reverse link metadata to data--><g id="link_metadata_data"><path codeLine="41" d="M51.5,79.55 C51.5,89.45 51.5,100.085 51.5,109.975 " fill="none" id="metadata-backto-data" style="stroke:#181818;stroke-width:0.5;"/><polygon fill="#181818" points="51.5,76.55,49.5,81.05,51.5,79.05,53.5,81.05,51.5,76.55" style="stroke:#181818;stroke-width:0.5;"/></g><!--reverse link data to file--><g id="link_data_file"><path codeLine="42" d="M51.5,139.62 C51.5,148.59 51.5,157.495 51.5,166.445 " fill="none" id="data-backto-file" style="stroke:#181818;stroke-width:0.5;"/><polygon fill="#181818" points="51.5,136.62,49.5,141.12,51.5,139.12,53.5,141.12,51.5,136.62" style="stroke:#181818;stroke-width:0.5;"/></g><!--reverse link setup to scml--><g id="link_setup_scml"><path codeLine="59" d="M183.291,195.9095 C179.741,204.8795 176.125,213.995 172.575,222.945 " fill="none" id="setup-backto-scml" style="stroke:#181818;stroke-width:0.5;"/><polygon fill="#181818" points="184.395,193.12,180.8794,196.5682,183.475,195.4446,184.5987,198.0402,184.395,193.12" style="stroke:#181818;stroke-width:0.5;"/></g><!--reverse link scan to scml--><g id="link_scan_scml"><path codeLine="60" d="M151.709,195.9095 C155.259,204.8795 158.875,213.995 162.425,222.945 " fill="none" id="scan-backto-scml" style="stroke:#181818;stroke-width:0.5;"/><polygon fill="#181818" points="150.605,193.12,150.4013,198.0402,151.525,195.4446,154.1206,196.5682,150.605,193.12" style="stroke:#181818;stroke-width:0.5;"/></g><!--reverse link event to scan--><g id="link_event_scan"><path codeLine="61" d="M177.4315,138.971 C170.3215,147.941 162.745,157.495 155.65,166.445 " fill="none" id="event-backto-scan" style="stroke:#181818;stroke-width:0.5;"/><polygon fill="#181818" points="179.295,136.62,174.9324,138.9042,177.7421,138.5792,178.0671,141.3889,179.295,136.62" style="stroke:#181818;stroke-width:0.5;"/></g><!--reverse link plot to scan--><g id="link_plot_scan"><path codeLine="62" d="M146.2148,139.6195 C146.0498,148.5895 145.89,157.495 145.73,166.445 " fill="none" id="plot-backto-scan" style="stroke:#181818;stroke-width:0.5;"/><polygon fill="#181818" points="146.27,136.62,144.1876,141.0825,146.224,139.1196,148.1869,141.156,146.27,136.62" style="stroke:#181818;stroke-width:0.5;"/></g><!--link evefile to scml--><g id="link_evefile_scml"><path codeLine="66" d="M93.5321,72.2463 C93.5707,72.3276 93.6094,72.4092 93.6484,72.4913 C93.8043,72.8197 93.9634,73.155 94.1257,73.4969 C96.722,78.9669 100.1141,86.1138 103.5056,93.26 C106.8972,100.4063 110.2883,107.5519 112.8827,113.0194 C113.0449,113.3611 113.2039,113.6963 113.3597,114.0245 C113.3986,114.1065 112.1512,111.4778 112.1898,111.5589 " fill="none" id="evefile-to-scml" style="stroke:#181818;stroke-width:0.5;"/><polygon fill="#181818" points="113.4758,114.2693,113.3536,109.3464,112.4041,112.0107,109.7398,111.0612,113.4758,114.2693" style="stroke:#181818;stroke-width:0.5;"/></g><!--reverse link metadata to dataset--><g id="link_metadata_dataset"><path codeLine="75" d="M277.5,139.62 C277.5,148.59 277.5,157.495 277.5,166.445 " fill="none" id="metadata-backto-dataset" style="stroke:#181818;stroke-width:0.5;"/><polygon fill="#181818" points="277.5,136.62,275.5,141.12,277.5,139.12,279.5,141.12,277.5,136.62" style="stroke:#181818;stroke-width:0.5;"/></g><!--reverse link evefile to dataset--><g id="link_evefile_dataset"><path codeLine="79" d="M96.677,63.9635 C99.637,64.0625 101.7848,64.1545 106.6795,64.3816 C116.4691,64.8356 129.4781,65.5837 143.1063,66.7775 C170.3625,69.165 200.095,73.335 211.5,80.5 C220.8875,86.4 227.8175,96.7275 232.435,105.695 C233.5894,107.9369 234.5992,110.0937 235.4668,112.0752 " fill="none" id="evefile-backto-dataset" style="stroke:#181818;stroke-width:0.5;"/><polygon fill="#181818" points="93.6786,63.8675,98.1122,66.0105,96.1773,63.9475,98.2403,62.0126,93.6786,63.8675" style="stroke:#181818;stroke-width:0.5;"/></g><!--SRC=[dPCzSiCW48LxJa6N2arIkCkupXqoANOax30MFoCHDndVFI1X6yE2S5H8I7nF-_O1B_D9A0CJI3eOGTzshuGOw4zmv9IV-G0Mw2-Xxag-TaAxYMK6d-tSy6CNnFwwrE2vbsChAwJxC3_Gjs5Mdtr-Ys7WweljqtgOQF5HqAnrrrgXPEfE6pw15LhDjN3kL7SGuoZKiQdrI6OdKFD1J_8VMWd6fB8i2iGYbah1Kkrt3zOt_XciLYDtJ-UGr_8EI1UuxRIkWcZxjmaajv29iZGo-fqnj7PHMLJvMpMkSD2AdVZvzjEuqjp-c2Vm7bGxxLwKRSVDg6qz_CXo7E2jxuB0ctw2NsqZ0b2uO36Ey_5ofhkUHGTdSOCkkh-vbclh7f08tKxygcdRzHaTTvkKh_QCw0Yva3y0]--></g></svg>