<?xml version="1.0" encoding="us-ascii" standalone="no"?><svg xmlns="http://www.w3.org/2000/svg" xmlns:xlink="http://www.w3.org/1999/xlink" contentStyleType="text/css" height="531px" preserveAspectRatio="none" style="width:703px;height:531px;background:#FFFFFF;" version="1.1" viewBox="0 0 703 531" width="703px" zoomAndPan="magnify"><defs/><g><!--class EveFile--><g id="elem_EveFile"><rect codeLine="2" fill="#F1F1F1" height="130.0313" id="EveFile" rx="2.5" ry="2.5" style="stroke:#181818;stroke-width:0.5;" width="186" x="305.5" y="7"/><ellipse cx="372.75" cy="23" fill="#ADD1B2" rx="11" ry="11" style="stroke:#181818;stroke-width:1.0;"/><path d="M372.7969,29.2031 C374.2969,29.2031 375.5313,28.6406 376.4375,27.5781 L375.0625,26.0625 C374.5156,26.6563 373.8594,27.0469 373.0625,27.0469 C371.3906,27.0469 370.2344,25.7188 370.2344,23.4375 C370.2344,21.2188 371.3906,19.875 372.9531,19.875 C373.7656,19.875 374.3594,20.1875 374.8906,20.6719 L376.2656,19.125 C375.5156,18.3906 374.3594,17.7188 372.9531,17.7188 C370,17.7188 367.6719,19.8594 367.6719,23.5313 C367.6719,27.25 370.0469,29.2031 372.7969,29.2031 Z " fill="#000000"/><text fill="#000000" font-family="sans-serif" font-size="14" lengthAdjust="spacing" textLength="43" x="393.25" y="27.7852">EveFile</text><line style="stroke:#181818;stroke-width:0.5;" x1="306.5" x2="490.5" y1="39" y2="39"/><text fill="#000000" font-family="sans-serif" font-size="14" lengthAdjust="spacing" textLength="174" x="311.5" y="55.9883">metadata : EveFileMetadata</text><text fill="#000000" font-family="sans-serif" font-size="14" lengthAdjust="spacing" textLength="144" x="311.5" y="72.3945">comments : Comment[]</text><text fill="#000000" font-family="sans-serif" font-size="14" lengthAdjust="spacing" textLength="75" x="311.5" y="88.8008">scml : SCML</text><text fill="#000000" font-family="sans-serif" font-size="14" lengthAdjust="spacing" textLength="98" x="311.5" y="105.207">data : EveData[]</text><text fill="#000000" font-family="sans-serif" font-size="14" lengthAdjust="spacing" textLength="135" x="311.5" y="121.6133">snapshots : EveData[]</text><line style="stroke:#181818;stroke-width:0.5;" x1="306.5" x2="490.5" y1="129.0313" y2="129.0313"/></g><path d="M68,8.5 L68,125.1406 A0,0 0 0 0 68,125.1406 L271,125.1406 A0,0 0 0 0 271,125.1406 L271,70.8203 L309.5,116.8281 L271,62.8203 L271,18.5 L261,8.5 L68,8.5 A0,0 0 0 0 68,8.5 " fill="#FEFFDD" style="stroke:#181818;stroke-width:0.5;"/><path d="M261,8.5 L261,18.5 L271,18.5 L261,8.5 " fill="#FEFFDD" style="stroke:#181818;stroke-width:0.5;"/><text fill="#000000" font-family="sans-serif" font-size="13" lengthAdjust="spacing" textLength="161" x="74" y="25.5605">Snapshot datasets can have</text><text fill="#000000" font-family="sans-serif" font-size="13" lengthAdjust="spacing" textLength="182" x="74" y="40.7949">identical names/IDs to datasets</text><text fill="#000000" font-family="sans-serif" font-size="13" lengthAdjust="spacing" textLength="132" x="74" y="56.0293">in the standard section.</text><text fill="#000000" font-family="sans-serif" font-size="13" lengthAdjust="spacing" textLength="150" x="74" y="71.2637">This makes a separate list</text><text fill="#000000" font-family="sans-serif" font-size="13" lengthAdjust="spacing" textLength="122" x="74" y="86.498">probably unavoidable.</text><text fill="#000000" font-family="sans-serif" font-size="13" lengthAdjust="spacing" textLength="3" x="74" y="101.7324">&#160;</text><text fill="#000000" font-family="sans-serif" font-size="13" lengthAdjust="spacing" textLength="153" x="74" y="116.9668">How to deal with monitors?</text><!--class EveData--><g id="elem_EveData"><rect fill="#F1F1F1" height="48" id="EveData" rx="2.5" ry="2.5" style="stroke:#181818;stroke-width:0.5;" width="84" x="574.5" y="48"/><ellipse cx="589.5" cy="64" fill="#ADD1B2" rx="11" ry="11" style="stroke:#181818;stroke-width:1.0;"/><path d="M589.5469,70.2031 C591.0469,70.2031 592.2813,69.6406 593.1875,68.5781 L591.8125,67.0625 C591.2656,67.6563 590.6094,68.0469 589.8125,68.0469 C588.1406,68.0469 586.9844,66.7188 586.9844,64.4375 C586.9844,62.2188 588.1406,60.875 589.7031,60.875 C590.5156,60.875 591.1094,61.1875 591.6406,61.6719 L593.0156,60.125 C592.2656,59.3906 591.1094,58.7188 589.7031,58.7188 C586.75,58.7188 584.4219,60.8594 584.4219,64.5313 C584.4219,68.25 586.7969,70.2031 589.5469,70.2031 Z " fill="#000000"/><text fill="#000000" font-family="sans-serif" font-size="14" lengthAdjust="spacing" textLength="52" x="603.5" y="68.7852">EveData</text><line style="stroke:#181818;stroke-width:0.5;" x1="575.5" x2="657.5" y1="80" y2="80"/><line style="stroke:#181818;stroke-width:0.5;" x1="575.5" x2="657.5" y1="88" y2="88"/></g><g id="elem_GMN7"><path d="M585,283 L585,323.4688 A0,0 0 0 0 585,323.4688 L696,323.4688 A0,0 0 0 0 696,323.4688 L696,293 L686,283 L642.51,283 L618.93,96.22 L634.51,283 L585,283 A0,0 0 0 0 585,283 " fill="#FEFFDD" style="stroke:#181818;stroke-width:0.5;"/><path d="M686,283 L686,293 L696,293 L686,283 " fill="#FEFFDD" style="stroke:#181818;stroke-width:0.5;"/><text fill="#000000" font-family="sans-serif" font-size="13" lengthAdjust="spacing" textLength="90" x="591" y="300.0605">See diagram for</text><text fill="#000000" font-family="sans-serif" font-size="13" lengthAdjust="spacing" textLength="73" x="591" y="315.2949">data module.</text></g><!--class EveFileMetadata--><g id="elem_EveFileMetadata"><rect codeLine="22" fill="#F1F1F1" height="212.0625" id="EveFileMetadata" rx="2.5" ry="2.5" style="stroke:#181818;stroke-width:0.5;" width="261" x="7" y="197"/><ellipse cx="81.25" cy="213" fill="#ADD1B2" rx="11" ry="11" style="stroke:#181818;stroke-width:1.0;"/><path d="M81.2969,219.2031 C82.7969,219.2031 84.0313,218.6406 84.9375,217.5781 L83.5625,216.0625 C83.0156,216.6563 82.3594,217.0469 81.5625,217.0469 C79.8906,217.0469 78.7344,215.7188 78.7344,213.4375 C78.7344,211.2188 79.8906,209.875 81.4531,209.875 C82.2656,209.875 82.8594,210.1875 83.3906,210.6719 L84.7656,209.125 C84.0156,208.3906 82.8594,207.7188 81.4531,207.7188 C78.5,207.7188 76.1719,209.8594 76.1719,213.5313 C76.1719,217.25 78.5469,219.2031 81.2969,219.2031 Z " fill="#000000"/><text fill="#000000" font-family="sans-serif" font-size="14" lengthAdjust="spacing" textLength="104" x="101.75" y="217.7852">EveFileMetadata</text><line style="stroke:#181818;stroke-width:0.5;" x1="8" x2="267" y1="229" y2="229"/><text fill="#000000" font-family="sans-serif" font-size="14" lengthAdjust="spacing" textLength="98" x="13" y="245.9883">filename : string</text><text fill="#000000" font-family="sans-serif" font-size="14" lengthAdjust="spacing" textLength="112" x="13" y="262.3945">h5_version : string</text><text fill="#000000" font-family="sans-serif" font-size="14" lengthAdjust="spacing" textLength="117" x="13" y="278.8008">eve_version : string</text><text fill="#000000" font-family="sans-serif" font-size="14" lengthAdjust="spacing" textLength="115" x="13" y="295.207">xml_version: string</text><text fill="#000000" font-family="sans-serif" font-size="14" lengthAdjust="spacing" textLength="95" x="13" y="311.6133">location : string</text><text fill="#000000" font-family="sans-serif" font-size="14" lengthAdjust="spacing" textLength="94" x="13" y="328.0195">start : datetime</text><text fill="#000000" font-family="sans-serif" font-size="14" lengthAdjust="spacing" textLength="87" x="13" y="344.4258">end : datetime</text><text fill="#000000" font-family="sans-serif" font-size="14" lengthAdjust="spacing" textLength="133" x="13" y="360.832">preferred_axis : string</text><text fill="#000000" font-family="sans-serif" font-size="14" lengthAdjust="spacing" textLength="157" x="13" y="377.2383">preferred_channel : string</text><text fill="#000000" font-family="sans-serif" font-size="14" lengthAdjust="spacing" textLength="249" x="13" y="393.6445">preferred_normalisation_channel : string</text><line style="stroke:#181818;stroke-width:0.5;" x1="8" x2="267" y1="401.0625" y2="401.0625"/></g><!--class Comment--><g id="elem_Comment"><rect codeLine="35" fill="#F1F1F1" height="80.8125" id="Comment" rx="2.5" ry="2.5" style="stroke:#181818;stroke-width:0.5;" width="143" x="303" y="262.5"/><ellipse cx="340.5" cy="278.5" fill="#ADD1B2" rx="11" ry="11" style="stroke:#181818;stroke-width:1.0;"/><path d="M340.5469,284.7031 C342.0469,284.7031 343.2813,284.1406 344.1875,283.0781 L342.8125,281.5625 C342.2656,282.1563 341.6094,282.5469 340.8125,282.5469 C339.1406,282.5469 337.9844,281.2188 337.9844,278.9375 C337.9844,276.7188 339.1406,275.375 340.7031,275.375 C341.5156,275.375 342.1094,275.6875 342.6406,276.1719 L344.0156,274.625 C343.2656,273.8906 342.1094,273.2188 340.7031,273.2188 C337.75,273.2188 335.4219,275.3594 335.4219,279.0313 C335.4219,282.75 337.7969,284.7031 340.5469,284.7031 Z " fill="#000000"/><text fill="#000000" font-family="sans-serif" font-size="14" lengthAdjust="spacing" textLength="61" x="359.5" y="283.2852">Comment</text><line style="stroke:#181818;stroke-width:0.5;" x1="304" x2="445" y1="294.5" y2="294.5"/><text fill="#000000" font-family="sans-serif" font-size="14" lengthAdjust="spacing" textLength="131" x="309" y="311.4883">timestamp : datetime</text><text fill="#000000" font-family="sans-serif" font-size="14" lengthAdjust="spacing" textLength="104" x="309" y="327.8945">comment : string</text><line style="stroke:#181818;stroke-width:0.5;" x1="304" x2="445" y1="335.3125" y2="335.3125"/></g><g id="elem_GMN12"><path d="M235.5,469 L235.5,524.7031 A0,0 0 0 0 235.5,524.7031 L449.5,524.7031 A0,0 0 0 0 449.5,524.7031 L449.5,479 L439.5,469 L351.01,469 L367.87,343.78 L343.01,469 L235.5,469 A0,0 0 0 0 235.5,469 " fill="#FEFFDD" style="stroke:#181818;stroke-width:0.5;"/><path d="M439.5,469 L439.5,479 L449.5,479 L439.5,469 " fill="#FEFFDD" style="stroke:#181818;stroke-width:0.5;"/><text fill="#000000" font-family="sans-serif" font-size="13" lengthAdjust="spacing" textLength="192" x="241.5" y="486.0605">Comments are both, file comment</text><text fill="#000000" font-family="sans-serif" font-size="13" lengthAdjust="spacing" textLength="192" x="241.5" y="501.2949">and log messages. Discriminating</text><text fill="#000000" font-family="sans-serif" font-size="13" lengthAdjust="spacing" textLength="193" x="241.5" y="516.5293">could be done in the EveFile class.</text></g><!--class SCML--><g id="elem_SCML"><rect codeLine="41" fill="#F1F1F1" height="48" id="SCML" rx="2.5" ry="2.5" style="stroke:#181818;stroke-width:0.5;" width="69" x="481" y="279"/><ellipse cx="496" cy="295" fill="#ADD1B2" rx="11" ry="11" style="stroke:#181818;stroke-width:1.0;"/><path d="M496.0469,301.2031 C497.5469,301.2031 498.7813,300.6406 499.6875,299.5781 L498.3125,298.0625 C497.7656,298.6563 497.1094,299.0469 496.3125,299.0469 C494.6406,299.0469 493.4844,297.7188 493.4844,295.4375 C493.4844,293.2188 494.6406,291.875 496.2031,291.875 C497.0156,291.875 497.6094,292.1875 498.1406,292.6719 L499.5156,291.125 C498.7656,290.3906 497.6094,289.7188 496.2031,289.7188 C493.25,289.7188 490.9219,291.8594 490.9219,295.5313 C490.9219,299.25 493.2969,301.2031 496.0469,301.2031 Z " fill="#000000"/><text fill="#000000" font-family="sans-serif" font-size="14" lengthAdjust="spacing" textLength="37" x="510" y="299.7852">SCML</text><line style="stroke:#181818;stroke-width:0.5;" x1="482" x2="549" y1="311" y2="311"/><line style="stroke:#181818;stroke-width:0.5;" x1="482" x2="549" y1="319" y2="319"/></g><g id="elem_GMN16"><path d="M485,477 L485,517.4688 A0,0 0 0 0 485,517.4688 L610,517.4688 A0,0 0 0 0 610,517.4688 L610,487 L600,477 L548.3,477 L519.36,327.16 L540.3,477 L485,477 A0,0 0 0 0 485,477 " fill="#FEFFDD" style="stroke:#181818;stroke-width:0.5;"/><path d="M600,477 L600,487 L610,487 L600,477 " fill="#FEFFDD" style="stroke:#181818;stroke-width:0.5;"/><text fill="#000000" font-family="sans-serif" font-size="13" lengthAdjust="spacing" textLength="90" x="491" y="494.0605">See diagram for</text><text fill="#000000" font-family="sans-serif" font-size="13" lengthAdjust="spacing" textLength="104" x="491" y="509.2949">scml subpackage.</text></g><!--reverse link EveFile to EveData--><g id="link_EveFile_EveData"><path codeLine="19" d="M503.75,72 C531.2,72 546.65,72 574.1,72 " fill="none" id="EveFile-backto-EveData" style="stroke:#181818;stroke-width:1.0;"/><polygon fill="#181818" points="491.75,72,497.75,76,503.75,72,497.75,68,491.75,72" style="stroke:#181818;stroke-width:1.0;"/><text fill="#000000" font-family="sans-serif" font-size="13" lengthAdjust="spacing" textLength="7" x="559.4978" y="67.8378">n</text></g><!--reverse link EveFile to EveFileMetadata--><g id="link_EveFile_EveFileMetadata"><path codeLine="45" d="M316.4315,145.0063 C295.3215,163.5363 280.72,176.34 257.54,196.68 " fill="none" id="EveFile-backto-EveFileMetadata" style="stroke:#181818;stroke-width:1.0;"/><polygon fill="#181818" points="325.45,137.09,318.302,138.042,316.4315,145.0063,323.5795,144.0543,325.45,137.09" style="stroke:#181818;stroke-width:1.0;"/></g><!--reverse link EveFile to Comment--><g id="link_EveFile_Comment"><path codeLine="46" d="M390.531,149.0248 C386.321,189.2548 382.26,227.91 378.65,262.38 " fill="none" id="EveFile-backto-Comment" style="stroke:#181818;stroke-width:1.0;"/><polygon fill="#181818" points="391.78,137.09,387.1772,142.6411,390.531,149.0248,395.1338,143.4737,391.78,137.09" style="stroke:#181818;stroke-width:1.0;"/><text fill="#000000" font-family="sans-serif" font-size="13" lengthAdjust="spacing" textLength="7" x="383.6622" y="157.1012">1</text><text fill="#000000" font-family="sans-serif" font-size="13" lengthAdjust="spacing" textLength="7" x="371.7617" y="251.2062">n</text></g><!--reverse link EveFile to SCML--><g id="link_EveFile_SCML"><path codeLine="47" d="M438.0916,147.8381 C448.1516,167.0281 453.57,177.51 463.5,197 C477.82,225.09 493.86,257.66 504.29,278.98 " fill="none" id="EveFile-backto-SCML" style="stroke:#181818;stroke-width:1.0;"/><polygon fill="#181818" points="432.52,137.21,431.7631,144.3813,438.0916,147.8381,438.8485,140.6669,432.52,137.21" style="stroke:#181818;stroke-width:1.0;"/></g><!--SRC=[XLCzRzj03DtrAmYFHUCYGnSl7UmMBP1CwLON0NsYh4DqFE5uLb8K_k-bA5rinosgwSJ7ZqVoqNKe0fy7-k8xWjyLw1SeOuqPOLM0-zbYi8iX46THU3qzV_mqG5perFYmlh-p_rEEZRwA4sClRRJm4tAiE6Q2ZfeCiIbbLwjNRujzcFyiiv3cSCZGua06-rgvU8STC0QI3zys0Zc-Eay-3Baba8nSOwf1o6KVUMdWzzOB17mY0LIanuGZAI_Pu3x57UwwNt1W7AAlzKtBog2lyTbAaHP_zhc54DddcEHJHLp3s5nLbIc_ku45BqhtK-Uxc7CCEZmYg3tk4mPeOjgo3J74-c2rtFcwobQchJLg6VlMkKfEdlTcRJy-3fH4Mxoqqq1_1rv2Lu0BUnSTvYjldMFAQb8Qb7sOzZ1s_CRK9see9QeVySNBPOuJvbfafkvVCCSKKBTXFAwTZsKyiofdDOySb6RettAQTNoUu68Lww9pJ6PitzkCIzoMLK8wbhtUYmZkIPQmyUAI3vwL8k-txEAXgs6dAurCHNj51aPs2ONrU3PA-VWVFTYHoM7NetlIeijpMTrStMl15hSBmqVTpNrTnDdD_W40]--></g></svg>