<?xml version="1.0" encoding="us-ascii" standalone="no"?><svg xmlns="http://www.w3.org/2000/svg" xmlns:xlink="http://www.w3.org/1999/xlink" contentStyleType="text/css" height="504.8px" preserveAspectRatio="none" style="width:641px;height:504px;background:#FFFFFF;" version="1.1" viewBox="0 0 641 504" width="641.6px" zoomAndPan="magnify"><defs/><g><!--class Metadata--><g id="elem_Metadata"><rect codeLine="2" fill="#F1F1F1" height="77.775" id="Metadata" rx="2" ry="2" style="stroke:#181818;stroke-width:0.4000000000000001;" width="154.4" x="227.2" y="12.4"/><ellipse cx="276.6" cy="25.2" fill="#ADD1B2" rx="8.8" ry="8.8" style="stroke:#181818;stroke-width:0.8000000000000002;"/><path d="M276.6375,30.1625 C277.8375,30.1625 278.825,29.7125 279.55,28.8625 L278.45,27.65 C278.0125,28.125 277.4875,28.4375 276.85,28.4375 C275.5125,28.4375 274.5875,27.375 274.5875,25.55 C274.5875,23.775 275.5125,22.7 276.7625,22.7 C277.4125,22.7 277.8875,22.95 278.3125,23.3375 L279.4125,22.1 C278.8125,21.5125 277.8875,20.975 276.7625,20.975 C274.4,20.975 272.5375,22.6875 272.5375,25.625 C272.5375,28.6 274.4375,30.1625 276.6375,30.1625 Z " fill="#000000"/><text fill="#000000" font-family="sans-serif" font-size="11.2" lengthAdjust="spacing" textLength="48.8" x="293" y="29.0281">Metadata</text><line style="stroke:#181818;stroke-width:0.4000000000000001;" x1="228" x2="380.8" y1="38" y2="38"/><text fill="#000000" font-family="sans-serif" font-size="11.2" lengthAdjust="spacing" textLength="144.8" x="232" y="51.5906">measurement : Measurement</text><text fill="#000000" font-family="sans-serif" font-size="11.2" lengthAdjust="spacing" textLength="38.4" x="232" y="64.7156">file : File</text><text fill="#000000" font-family="sans-serif" font-size="11.2" lengthAdjust="spacing" textLength="84" x="232" y="77.8406">devices : Device{}</text><line style="stroke:#181818;stroke-width:0.4000000000000001;" x1="228" x2="380.8" y1="83.775" y2="83.775"/></g><!--class Section--><g id="elem_Section"><rect codeLine="8" fill="#F1F1F1" height="90.9" id="Section" rx="2" ry="2" style="stroke:#181818;stroke-width:0.4000000000000001;" width="67.2" x="410" y="5.6"/><ellipse cx="424.16" cy="18.4" fill="#EB937F" rx="8.8" ry="8.8" style="stroke:#181818;stroke-width:0.8000000000000002;"/><path d="M421.01,23.2 L427.0225,23.2 L427.0225,21.5125 L423.0225,21.5125 L423.0225,19.475 L426.2975,19.475 L426.2975,17.8 L423.0225,17.8 L423.0225,16.025 L426.885,16.025 L426.885,14.3375 L421.01,14.3375 L421.01,23.2 Z " fill="#000000"/><text fill="#000000" font-family="sans-serif" font-size="11.2" lengthAdjust="spacing" textLength="36.8" x="435.84" y="22.2281">Section</text><line style="stroke:#181818;stroke-width:0.4000000000000001;" x1="410.8" x2="476.4" y1="31.2" y2="31.2"/><text fill="#000000" font-family="sans-serif" font-size="11.2" lengthAdjust="spacing" textLength="56.8" x="414.8" y="44.7906">STANDARD</text><text fill="#000000" font-family="sans-serif" font-size="11.2" lengthAdjust="spacing" textLength="57.6" x="414.8" y="57.9156">SNAPSHOT</text><text fill="#000000" font-family="sans-serif" font-size="11.2" lengthAdjust="spacing" textLength="50.4" x="414.8" y="71.0406">MONITOR</text><text fill="#000000" font-family="sans-serif" font-size="11.2" lengthAdjust="spacing" textLength="29.6" x="414.8" y="84.1656">META</text><line style="stroke:#181818;stroke-width:0.4000000000000001;" x1="410.8" x2="476.4" y1="90.1" y2="90.1"/></g><g id="elem_GMN4"><path d="M505.6,28.8 L505.6,48 L477.424,51.2 L505.6,54.4 L505.6,73.3625 A0,0 0 0 0 505.6,73.3625 L634.4,73.3625 A0,0 0 0 0 634.4,73.3625 L634.4,36.8 L626.4,28.8 L505.6,28.8 A0,0 0 0 0 505.6,28.8 " fill="#FEFFDD" style="stroke:#181818;stroke-width:0.4000000000000001;"/><path d="M626.4,28.8 L626.4,36.8 L634.4,36.8 L626.4,28.8 " fill="#FEFFDD" style="stroke:#181818;stroke-width:0.4000000000000001;"/><text fill="#000000" font-family="sans-serif" font-size="10.4" lengthAdjust="spacing" textLength="94.4" x="510.4" y="42.4484">This is defined in the</text><text fill="#000000" font-family="sans-serif" font-size="10.4" lengthAdjust="spacing" textLength="112" x="510.4" y="54.6359">evefile.metadata module</text><text fill="#000000" font-family="sans-serif" font-size="10.4" lengthAdjust="spacing" textLength="90.4" x="510.4" y="66.8234">as well. Generalise?</text></g><!--class Dataset--><g id="elem_Dataset"><rect codeLine="17" fill="#F1F1F1" height="38.4" id="Dataset" rx="2" ry="2" style="stroke:#181818;stroke-width:0.4000000000000001;" width="64.8" x="100" y="32"/><ellipse cx="112" cy="44.8" fill="#ADD1B2" rx="8.8" ry="8.8" style="stroke:#181818;stroke-width:0.8000000000000002;"/><path d="M112.0375,49.7625 C113.2375,49.7625 114.225,49.3125 114.95,48.4625 L113.85,47.25 C113.4125,47.725 112.8875,48.0375 112.25,48.0375 C110.9125,48.0375 109.9875,46.975 109.9875,45.15 C109.9875,43.375 110.9125,42.3 112.1625,42.3 C112.8125,42.3 113.2875,42.55 113.7125,42.9375 L114.8125,41.7 C114.2125,41.1125 113.2875,40.575 112.1625,40.575 C109.8,40.575 107.9375,42.2875 107.9375,45.225 C107.9375,48.2 109.8375,49.7625 112.0375,49.7625 Z " fill="#000000"/><text fill="#000000" font-family="sans-serif" font-size="11.2" lengthAdjust="spacing" textLength="39.2" x="123.2" y="48.6281">Dataset</text><line style="stroke:#181818;stroke-width:0.4000000000000001;" x1="100.8" x2="164" y1="57.6" y2="57.6"/><line style="stroke:#181818;stroke-width:0.4000000000000001;" x1="100.8" x2="164" y1="64" y2="64"/></g><g id="elem_GMN9"><path d="M4.8,187.2 L4.8,219.575 A0,0 0 0 0 4.8,219.575 L120.8,219.575 A0,0 0 0 0 120.8,219.575 L120.8,195.2 L112.8,187.2 L73.128,187.2 L123.864,70.44 L66.728,187.2 L4.8,187.2 A0,0 0 0 0 4.8,187.2 " fill="#FEFFDD" style="stroke:#181818;stroke-width:0.4000000000000001;"/><path d="M112.8,187.2 L112.8,195.2 L120.8,195.2 L112.8,187.2 " fill="#FEFFDD" style="stroke:#181818;stroke-width:0.4000000000000001;"/><text fill="#000000" font-family="sans-serif" font-size="10.4" lengthAdjust="spacing" textLength="99.2" x="9.6" y="200.8484">See separate diagram</text><text fill="#000000" font-family="sans-serif" font-size="10.4" lengthAdjust="spacing" textLength="84" x="9.6" y="213.0359">for class hierarchy</text></g><!--class Measurement--><g id="elem_Measurement"><rect codeLine="20" fill="#F1F1F1" height="117.15" id="Measurement" rx="2" ry="2" style="stroke:#181818;stroke-width:0.4000000000000001;" width="208.8" x="427.2" y="144.8"/><ellipse cx="493.8" cy="157.6" fill="#ADD1B2" rx="8.8" ry="8.8" style="stroke:#181818;stroke-width:0.8000000000000002;"/><path d="M493.8375,162.5625 C495.0375,162.5625 496.025,162.1125 496.75,161.2625 L495.65,160.05 C495.2125,160.525 494.6875,160.8375 494.05,160.8375 C492.7125,160.8375 491.7875,159.775 491.7875,157.95 C491.7875,156.175 492.7125,155.1 493.9625,155.1 C494.6125,155.1 495.0875,155.35 495.5125,155.7375 L496.6125,154.5 C496.0125,153.9125 495.0875,153.375 493.9625,153.375 C491.6,153.375 489.7375,155.0875 489.7375,158.025 C489.7375,161 491.6375,162.5625 493.8375,162.5625 Z " fill="#000000"/><text fill="#000000" font-family="sans-serif" font-size="11.2" lengthAdjust="spacing" textLength="68.8" x="510.2" y="161.4281">Measurement</text><line style="stroke:#181818;stroke-width:0.4000000000000001;" x1="428" x2="635.2" y1="170.4" y2="170.4"/><text fill="#000000" font-family="sans-serif" font-size="11.2" lengthAdjust="spacing" textLength="75.2" x="432" y="183.9906">start : datetime</text><text fill="#000000" font-family="sans-serif" font-size="11.2" lengthAdjust="spacing" textLength="69.6" x="432" y="197.1156">end : datetime</text><text fill="#000000" font-family="sans-serif" font-size="11.2" lengthAdjust="spacing" textLength="76" x="432" y="210.2406">location : string</text><text fill="#000000" font-family="sans-serif" font-size="11.2" lengthAdjust="spacing" textLength="106.4" x="432" y="223.3656">preferred_axis : string</text><text fill="#000000" font-family="sans-serif" font-size="11.2" lengthAdjust="spacing" textLength="125.6" x="432" y="236.4906">preferred_channel : string</text><text fill="#000000" font-family="sans-serif" font-size="11.2" lengthAdjust="spacing" textLength="199.2" x="432" y="249.6156">preferred_normalisation_channel : string</text><line style="stroke:#181818;stroke-width:0.4000000000000001;" x1="428" x2="635.2" y1="255.55" y2="255.55"/></g><!--class File--><g id="elem_File"><rect codeLine="29" fill="#F1F1F1" height="90.9" id="File" rx="2" ry="2" style="stroke:#181818;stroke-width:0.4000000000000001;" width="103.2" x="148.8" y="157.6"/><ellipse cx="188.6" cy="170.4" fill="#ADD1B2" rx="8.8" ry="8.8" style="stroke:#181818;stroke-width:0.8000000000000002;"/><path d="M188.6375,175.3625 C189.8375,175.3625 190.825,174.9125 191.55,174.0625 L190.45,172.85 C190.0125,173.325 189.4875,173.6375 188.85,173.6375 C187.5125,173.6375 186.5875,172.575 186.5875,170.75 C186.5875,168.975 187.5125,167.9 188.7625,167.9 C189.4125,167.9 189.8875,168.15 190.3125,168.5375 L191.4125,167.3 C190.8125,166.7125 189.8875,166.175 188.7625,166.175 C186.4,166.175 184.5375,167.8875 184.5375,170.825 C184.5375,173.8 186.4375,175.3625 188.6375,175.3625 Z " fill="#000000"/><text fill="#000000" font-family="sans-serif" font-size="11.2" lengthAdjust="spacing" textLength="16.8" x="205" y="174.2281">File</text><line style="stroke:#181818;stroke-width:0.4000000000000001;" x1="149.6" x2="251.2" y1="183.2" y2="183.2"/><text fill="#000000" font-family="sans-serif" font-size="11.2" lengthAdjust="spacing" textLength="78.4" x="153.6" y="196.7906">filename : string</text><text fill="#000000" font-family="sans-serif" font-size="11.2" lengthAdjust="spacing" textLength="89.6" x="153.6" y="209.9156">h5_version : string</text><text fill="#000000" font-family="sans-serif" font-size="11.2" lengthAdjust="spacing" textLength="93.6" x="153.6" y="223.0406">eve_version : string</text><text fill="#000000" font-family="sans-serif" font-size="11.2" lengthAdjust="spacing" textLength="92" x="153.6" y="236.1656">xml_version: string</text><line style="stroke:#181818;stroke-width:0.4000000000000001;" x1="149.6" x2="251.2" y1="242.1" y2="242.1"/></g><!--class Device--><g id="elem_Device"><rect codeLine="36" fill="#F1F1F1" height="104.025" id="Device" rx="2" ry="2" style="stroke:#181818;stroke-width:0.4000000000000001;" width="119.2" x="280" y="151.2"/><ellipse cx="320.2" cy="164" fill="#ADD1B2" rx="8.8" ry="8.8" style="stroke:#181818;stroke-width:0.8000000000000002;"/><path d="M320.2375,168.9625 C321.4375,168.9625 322.425,168.5125 323.15,167.6625 L322.05,166.45 C321.6125,166.925 321.0875,167.2375 320.45,167.2375 C319.1125,167.2375 318.1875,166.175 318.1875,164.35 C318.1875,162.575 319.1125,161.5 320.3625,161.5 C321.0125,161.5 321.4875,161.75 321.9125,162.1375 L323.0125,160.9 C322.4125,160.3125 321.4875,159.775 320.3625,159.775 C318,159.775 316.1375,161.4875 316.1375,164.425 C316.1375,167.4 318.0375,168.9625 320.2375,168.9625 Z " fill="#000000"/><text fill="#000000" font-family="sans-serif" font-size="11.2" lengthAdjust="spacing" textLength="32" x="336.6" y="167.8281">Device</text><line style="stroke:#181818;stroke-width:0.4000000000000001;" x1="280.8" x2="398.4" y1="176.8" y2="176.8"/><text fill="#000000" font-family="sans-serif" font-size="11.2" lengthAdjust="spacing" textLength="44.8" x="284.8" y="190.3906">id : string</text><text fill="#000000" font-family="sans-serif" font-size="11.2" lengthAdjust="spacing" textLength="64" x="284.8" y="203.5156">name : string</text><text fill="#000000" font-family="sans-serif" font-size="11.2" lengthAdjust="spacing" textLength="48" x="284.8" y="216.6406">pv : string</text><text fill="#000000" font-family="sans-serif" font-size="11.2" lengthAdjust="spacing" textLength="109.6" x="284.8" y="229.7656">transport_type : string</text><text fill="#000000" font-family="sans-serif" font-size="11.2" lengthAdjust="spacing" textLength="80" x="284.8" y="242.8906">section : Section</text><line style="stroke:#181818;stroke-width:0.4000000000000001;" x1="280.8" x2="398.4" y1="248.825" y2="248.825"/></g><!--class Motor--><g id="elem_Motor"><rect codeLine="44" fill="#F1F1F1" height="38.4" id="Motor" rx="2" ry="2" style="stroke:#181818;stroke-width:0.4000000000000001;" width="56" x="201.2" y="316"/><ellipse cx="213.2" cy="328.8" fill="#ADD1B2" rx="8.8" ry="8.8" style="stroke:#181818;stroke-width:0.8000000000000002;"/><path d="M213.2375,333.7625 C214.4375,333.7625 215.425,333.3125 216.15,332.4625 L215.05,331.25 C214.6125,331.725 214.0875,332.0375 213.45,332.0375 C212.1125,332.0375 211.1875,330.975 211.1875,329.15 C211.1875,327.375 212.1125,326.3 213.3625,326.3 C214.0125,326.3 214.4875,326.55 214.9125,326.9375 L216.0125,325.7 C215.4125,325.1125 214.4875,324.575 213.3625,324.575 C211,324.575 209.1375,326.2875 209.1375,329.225 C209.1375,332.2 211.0375,333.7625 213.2375,333.7625 Z " fill="#000000"/><text fill="#000000" font-family="sans-serif" font-size="11.2" lengthAdjust="spacing" textLength="30.4" x="224.4" y="332.6281">Motor</text><line style="stroke:#181818;stroke-width:0.4000000000000001;" x1="202" x2="256.4" y1="341.6" y2="341.6"/><line style="stroke:#181818;stroke-width:0.4000000000000001;" x1="202" x2="256.4" y1="348" y2="348"/></g><!--class Detector--><g id="elem_Detector"><rect codeLine="47" fill="#F1F1F1" height="51.525" id="Detector" rx="2" ry="2" style="stroke:#181818;stroke-width:0.4000000000000001;" width="108" x="285.6" y="309.6"/><ellipse cx="315.6" cy="322.4" fill="#ADD1B2" rx="8.8" ry="8.8" style="stroke:#181818;stroke-width:0.8000000000000002;"/><path d="M315.6375,327.3625 C316.8375,327.3625 317.825,326.9125 318.55,326.0625 L317.45,324.85 C317.0125,325.325 316.4875,325.6375 315.85,325.6375 C314.5125,325.6375 313.5875,324.575 313.5875,322.75 C313.5875,320.975 314.5125,319.9 315.7625,319.9 C316.4125,319.9 316.8875,320.15 317.3125,320.5375 L318.4125,319.3 C317.8125,318.7125 316.8875,318.175 315.7625,318.175 C313.4,318.175 311.5375,319.8875 311.5375,322.825 C311.5375,325.8 313.4375,327.3625 315.6375,327.3625 Z " fill="#000000"/><text fill="#000000" font-family="sans-serif" font-size="11.2" lengthAdjust="spacing" textLength="42.4" x="330.8" y="326.2281">Detector</text><line style="stroke:#181818;stroke-width:0.4000000000000001;" x1="286.4" x2="392.8" y1="335.2" y2="335.2"/><text fill="#000000" font-family="sans-serif" font-size="11.2" lengthAdjust="spacing" textLength="98.4" x="290.4" y="348.7906">normalise_id : string</text><line style="stroke:#181818;stroke-width:0.4000000000000001;" x1="286.4" x2="392.8" y1="354.725" y2="354.725"/></g><!--class AverageDetector--><g id="elem_AverageDetector"><rect codeLine="51" fill="#F1F1F1" height="90.9" id="AverageDetector" rx="2" ry="2" style="stroke:#181818;stroke-width:0.4000000000000001;" width="112" x="75.6" y="408.8"/><ellipse cx="89.04" cy="421.6" fill="#ADD1B2" rx="8.8" ry="8.8" style="stroke:#181818;stroke-width:0.8000000000000002;"/><path d="M89.0775,426.5625 C90.2775,426.5625 91.265,426.1125 91.99,425.2625 L90.89,424.05 C90.4525,424.525 89.9275,424.8375 89.29,424.8375 C87.9525,424.8375 87.0275,423.775 87.0275,421.95 C87.0275,420.175 87.9525,419.1 89.2025,419.1 C89.8525,419.1 90.3275,419.35 90.7525,419.7375 L91.8525,418.5 C91.2525,417.9125 90.3275,417.375 89.2025,417.375 C86.84,417.375 84.9775,419.0875 84.9775,422.025 C84.9775,425 86.8775,426.5625 89.0775,426.5625 Z " fill="#000000"/><text fill="#000000" font-family="sans-serif" font-size="11.2" lengthAdjust="spacing" textLength="83.2" x="100.56" y="425.4281">AverageDetector</text><line style="stroke:#181818;stroke-width:0.4000000000000001;" x1="76.4" x2="186.8" y1="434.4" y2="434.4"/><text fill="#000000" font-family="sans-serif" font-size="11.2" lengthAdjust="spacing" textLength="76.8" x="80.4" y="447.9906">n_averages : int</text><text fill="#000000" font-family="sans-serif" font-size="11.2" lengthAdjust="spacing" textLength="73.6" x="80.4" y="461.1156">low_limit : float</text><text fill="#000000" font-family="sans-serif" font-size="11.2" lengthAdjust="spacing" textLength="92" x="80.4" y="474.2406">max_attempts : int</text><text fill="#000000" font-family="sans-serif" font-size="11.2" lengthAdjust="spacing" textLength="102.4" x="80.4" y="487.3656">max_deviation : float</text><line style="stroke:#181818;stroke-width:0.4000000000000001;" x1="76.4" x2="186.8" y1="493.3" y2="493.3"/></g><!--class IntervalDetector--><g id="elem_IntervalDetector"><rect codeLine="58" fill="#F1F1F1" height="51.525" id="IntervalDetector" rx="2" ry="2" style="stroke:#181818;stroke-width:0.4000000000000001;" width="114.4" x="216" y="428.8"/><ellipse cx="231.96" cy="441.6" fill="#ADD1B2" rx="8.8" ry="8.8" style="stroke:#181818;stroke-width:0.8000000000000002;"/><path d="M231.9975,446.5625 C233.1975,446.5625 234.185,446.1125 234.91,445.2625 L233.81,444.05 C233.3725,444.525 232.8475,444.8375 232.21,444.8375 C230.8725,444.8375 229.9475,443.775 229.9475,441.95 C229.9475,440.175 230.8725,439.1 232.1225,439.1 C232.7725,439.1 233.2475,439.35 233.6725,439.7375 L234.7725,438.5 C234.1725,437.9125 233.2475,437.375 232.1225,437.375 C229.76,437.375 227.8975,439.0875 227.8975,442.025 C227.8975,445 229.7975,446.5625 231.9975,446.5625 Z " fill="#000000"/><text fill="#000000" font-family="sans-serif" font-size="11.2" lengthAdjust="spacing" textLength="80" x="244.04" y="445.4281">IntervalDetector</text><line style="stroke:#181818;stroke-width:0.4000000000000001;" x1="216.8" x2="329.6" y1="454.4" y2="454.4"/><text fill="#000000" font-family="sans-serif" font-size="11.2" lengthAdjust="spacing" textLength="104.8" x="220.8" y="467.9906">trigger_interval : float</text><line style="stroke:#181818;stroke-width:0.4000000000000001;" x1="216.8" x2="329.6" y1="473.925" y2="473.925"/></g><!--class ArrayDetector--><g id="elem_ArrayDetector"><rect codeLine="62" fill="#F1F1F1" height="38.4" id="ArrayDetector" rx="2" ry="2" style="stroke:#181818;stroke-width:0.4000000000000001;" width="95.2" x="358.4" y="435.2"/><ellipse cx="370.4" cy="448" fill="#ADD1B2" rx="8.8" ry="8.8" style="stroke:#181818;stroke-width:0.8000000000000002;"/><path d="M370.4375,452.9625 C371.6375,452.9625 372.625,452.5125 373.35,451.6625 L372.25,450.45 C371.8125,450.925 371.2875,451.2375 370.65,451.2375 C369.3125,451.2375 368.3875,450.175 368.3875,448.35 C368.3875,446.575 369.3125,445.5 370.5625,445.5 C371.2125,445.5 371.6875,445.75 372.1125,446.1375 L373.2125,444.9 C372.6125,444.3125 371.6875,443.775 370.5625,443.775 C368.2,443.775 366.3375,445.4875 366.3375,448.425 C366.3375,451.4 368.2375,452.9625 370.4375,452.9625 Z " fill="#000000"/><text fill="#000000" font-family="sans-serif" font-size="11.2" lengthAdjust="spacing" textLength="69.6" x="381.6" y="451.8281">ArrayDetector</text><line style="stroke:#181818;stroke-width:0.4000000000000001;" x1="359.2" x2="452.8" y1="460.8" y2="460.8"/><line style="stroke:#181818;stroke-width:0.4000000000000001;" x1="359.2" x2="452.8" y1="467.2" y2="467.2"/></g><!--class AreaDetector--><g id="elem_AreaDetector"><rect codeLine="65" fill="#F1F1F1" height="38.4" id="AreaDetector" rx="2" ry="2" style="stroke:#181818;stroke-width:0.4000000000000001;" width="91.2" x="482" y="435.2"/><ellipse cx="494" cy="448" fill="#ADD1B2" rx="8.8" ry="8.8" style="stroke:#181818;stroke-width:0.8000000000000002;"/><path d="M494.0375,452.9625 C495.2375,452.9625 496.225,452.5125 496.95,451.6625 L495.85,450.45 C495.4125,450.925 494.8875,451.2375 494.25,451.2375 C492.9125,451.2375 491.9875,450.175 491.9875,448.35 C491.9875,446.575 492.9125,445.5 494.1625,445.5 C494.8125,445.5 495.2875,445.75 495.7125,446.1375 L496.8125,444.9 C496.2125,444.3125 495.2875,443.775 494.1625,443.775 C491.8,443.775 489.9375,445.4875 489.9375,448.425 C489.9375,451.4 491.8375,452.9625 494.0375,452.9625 Z " fill="#000000"/><text fill="#000000" font-family="sans-serif" font-size="11.2" lengthAdjust="spacing" textLength="65.6" x="505.2" y="451.8281">AreaDetector</text><line style="stroke:#181818;stroke-width:0.4000000000000001;" x1="482.8" x2="572.4" y1="460.8" y2="460.8"/><line style="stroke:#181818;stroke-width:0.4000000000000001;" x1="482.8" x2="572.4" y1="467.2" y2="467.2"/></g><!--class Monitor--><g id="elem_Monitor"><rect codeLine="68" fill="#F1F1F1" height="38.4" id="Monitor" rx="2" ry="2" style="stroke:#181818;stroke-width:0.4000000000000001;" width="64.8" x="421.6" y="316"/><ellipse cx="433.6" cy="328.8" fill="#ADD1B2" rx="8.8" ry="8.8" style="stroke:#181818;stroke-width:0.8000000000000002;"/><path d="M433.6375,333.7625 C434.8375,333.7625 435.825,333.3125 436.55,332.4625 L435.45,331.25 C435.0125,331.725 434.4875,332.0375 433.85,332.0375 C432.5125,332.0375 431.5875,330.975 431.5875,329.15 C431.5875,327.375 432.5125,326.3 433.7625,326.3 C434.4125,326.3 434.8875,326.55 435.3125,326.9375 L436.4125,325.7 C435.8125,325.1125 434.8875,324.575 433.7625,324.575 C431.4,324.575 429.5375,326.2875 429.5375,329.225 C429.5375,332.2 431.4375,333.7625 433.6375,333.7625 Z " fill="#000000"/><text fill="#000000" font-family="sans-serif" font-size="11.2" lengthAdjust="spacing" textLength="39.2" x="444.8" y="332.6281">Monitor</text><line style="stroke:#181818;stroke-width:0.4000000000000001;" x1="422.4" x2="485.6" y1="341.6" y2="341.6"/><line style="stroke:#181818;stroke-width:0.4000000000000001;" x1="422.4" x2="485.6" y1="348" y2="348"/></g><!--link Metadata to Section--><!--reverse link Device to Motor--><g id="link_Device_Motor"><path d="M286.664,266.5267 C268.704,287.7427 258.336,299.984 245.032,315.704 " fill="none" id="Device-backto-Motor" style="stroke:#181818;stroke-width:0.8000000000000002;"/><polygon fill="none" points="295.968,255.536,283.0004,263.4254,290.3276,269.628,295.968,255.536" style="stroke:#181818;stroke-width:0.8000000000000002;"/></g><!--reverse link Device to Detector--><g id="link_Device_Detector"><path d="M339.6,269.936 C339.6,288.448 339.6,294.096 339.6,309.344 " fill="none" id="Device-backto-Detector" style="stroke:#181818;stroke-width:0.8000000000000002;"/><polygon fill="none" points="339.6,255.536,334.8,269.936,344.4,269.936,339.6,255.536" style="stroke:#181818;stroke-width:0.8000000000000002;"/></g><!--reverse link Detector to AverageDetector--><g id="link_Detector_AverageDetector"><path d="M277.5633,367.4354 C251.0993,381.0914 230.856,392.024 202,408.8 C197.368,411.496 192.6,414.344 187.84,417.256 " fill="none" id="Detector-backto-AverageDetector" style="stroke:#181818;stroke-width:0.8000000000000002;"/><polygon fill="none" points="290.36,360.832,275.3622,363.1698,279.7644,371.7009,290.36,360.832" style="stroke:#181818;stroke-width:0.8000000000000002;"/></g><!--reverse link Detector to IntervalDetector--><g id="link_Detector_IntervalDetector"><path d="M318.439,373.4747 C307.167,393.4347 298.528,408.752 287.264,428.696 " fill="none" id="Detector-backto-IntervalDetector" style="stroke:#181818;stroke-width:0.8000000000000002;"/><polygon fill="none" points="325.52,360.936,314.2594,371.1144,322.6186,375.8351,325.52,360.936" style="stroke:#181818;stroke-width:0.8000000000000002;"/></g><!--reverse link Detector to ArrayDetector--><g id="link_Detector_ArrayDetector"><path d="M360.7593,373.4757 C373.2473,395.5957 384.128,414.864 395.424,434.872 " fill="none" id="Detector-backto-ArrayDetector" style="stroke:#181818;stroke-width:0.8000000000000002;"/><polygon fill="none" points="353.68,360.936,356.5795,375.8354,364.9392,371.1159,353.68,360.936" style="stroke:#181818;stroke-width:0.8000000000000002;"/></g><!--reverse link Detector to AreaDetector--><g id="link_Detector_AreaDetector"><path d="M399.268,367.8485 C423.836,381.3125 441.496,391.728 467.6,408.8 C480,416.912 493.256,426.68 504.144,435.024 " fill="none" id="Detector-backto-AreaDetector" style="stroke:#181818;stroke-width:0.8000000000000002;"/><polygon fill="none" points="386.64,360.928,396.9612,372.0579,401.5748,363.6392,386.64,360.928" style="stroke:#181818;stroke-width:0.8000000000000002;"/></g><!--reverse link Device to Monitor--><g id="link_Device_Monitor"><path d="M394.3112,266.362 C412.9192,287.578 423.808,299.984 437.6,315.704 " fill="none" id="Device-backto-Monitor" style="stroke:#181818;stroke-width:0.8000000000000002;"/><polygon fill="none" points="384.816,255.536,390.7025,269.527,397.9198,263.1969,384.816,255.536" style="stroke:#181818;stroke-width:0.8000000000000002;"/></g><!--link Dataset to Metadata--><g id="link_Dataset_Metadata"><path codeLine="71" d="M164.984,51.2 C185.68,51.2 196.776,51.2 217.472,51.2 " fill="none" id="Dataset-to-Metadata" style="stroke:#181818;stroke-width:0.8000000000000002;"/><polygon fill="#181818" points="227.072,51.2,222.272,48,217.472,51.2,222.272,54.4,227.072,51.2" style="stroke:#181818;stroke-width:0.8000000000000002;"/></g><!--reverse link Metadata to Measurement--><g id="link_Metadata_Measurement"><path codeLine="72" d="M370.0294,95.4425 C395.0134,111.9785 416.8,126.4 444.392,144.672 " fill="none" id="Metadata-backto-Measurement" style="stroke:#181818;stroke-width:0.8000000000000002;"/><polygon fill="#181818" points="362.024,90.144,364.2605,95.4617,370.0294,95.4425,367.7929,90.1248,362.024,90.144" style="stroke:#181818;stroke-width:0.8000000000000002;"/></g><!--reverse link Metadata to Device--><g id="link_Metadata_Device"><path codeLine="73" d="M315.561,99.692 C319.873,118.14 322.928,131.176 327.584,151.072 " fill="none" id="Metadata-backto-Device" style="stroke:#181818;stroke-width:0.8000000000000002;"/><polygon fill="#181818" points="313.376,90.344,311.3525,95.7463,315.561,99.692,317.5845,94.2897,313.376,90.344" style="stroke:#181818;stroke-width:0.8000000000000002;"/><text fill="#000000" font-family="sans-serif" font-size="10.4" lengthAdjust="spacing" textLength="5.6" x="308.6445" y="106.3417">1</text><text fill="#000000" font-family="sans-serif" font-size="10.4" lengthAdjust="spacing" textLength="5.6" x="320.3635" y="142.3716">n</text></g><!--reverse link Metadata to File--><g id="link_Metadata_File"><path codeLine="74" d="M272.4268,98.2393 C258.2828,118.6873 246.264,136.08 231.48,157.448 " fill="none" id="Metadata-backto-File" style="stroke:#181818;stroke-width:0.8000000000000002;"/><polygon fill="#181818" points="277.888,90.344,272.5256,92.4712,272.4268,98.2393,277.7892,96.112,277.888,90.344" style="stroke:#181818;stroke-width:0.8000000000000002;"/></g><!--SRC=[ZLHDRzim3BtxLmWv5aY17NhnOOE1R6iFIOR6jtKmE8ks1UZ3a1WtGP7_FbcMNQT9jXa6RF6HZqyafLA2SsoD11m8s5l2_ACGtDwYGaqizU2q2cWb97hpD_y9QuwTAD5vqohylPsIKvAWtYksmvA4qP5sbsURLVQy6XQRxCVkSPk7nNgxUSgtpyF_rppp1DeGCYlgXbAMDy8n_tAiX4REX6RKu8l63dinzsgKhmpVIm-0OwyevJtxZXejIE7mIp9jSlcp4PoZ_lKvwakICfHXvL67DEJ-ROYCIlqUa3bimO8tSW6r1VMYAsFP4DG8dy6MpN5acTKhRjmHsBwIFZkIK4FPKFEF9cbA2FLAVOWLkWxMrcA5rY8lu23SBQniG6kKjs1jhEhh4FWldK-Z-BwhKNLVMWqApocRXw93wovK-bvS1mvAZi1bkc5YOaB1poClaxVT-PeiQDSQImKTsm- -BivUEaxXUzQr8Ty-F93lmKp3J1Nva6ikGLOi9HPpmLDmvZSBDLxXY8R8Ki3Ws7TKnACbpMiXXHBzi5JIm61LS2Y025LBS-VUt9-zSMI6W4d7aoQq7SX_2V7ownfj8QB_9LDcBHp_HZFpHFWlnxNHubOFuYbaoxlfNde_ktVBvTc5D06BJui0BlGYifq7XUlg3m00]--></g></svg>