<?xml version="1.0" encoding="us-ascii" standalone="no"?><svg xmlns="http://www.w3.org/2000/svg" xmlns:xlink="http://www.w3.org/1999/xlink" contentStyleType="text/css" height="491px" preserveAspectRatio="none" style="width:657px;height:491px;background:#FFFFFF;" version="1.1" viewBox="0 0 657 491" width="657px" zoomAndPan="magnify"><defs/><g><!--class Dataset--><g id="elem_Dataset"><rect codeLine="2" fill="#F1F1F1" height="146.4375" id="Dataset" rx="2.5" ry="2.5" style="stroke:#181818;stroke-width:0.5;" width="143" x="231.5" y="7"/><ellipse cx="274.4" cy="23" fill="#ADD1B2" rx="11" ry="11" style="stroke:#181818;stroke-width:1.0;"/><path d="M274.4469,29.2031 C275.9469,29.2031 277.1813,28.6406 278.0875,27.5781 L276.7125,26.0625 C276.1656,26.6563 275.5094,27.0469 274.7125,27.0469 C273.0406,27.0469 271.8844,25.7188 271.8844,23.4375 C271.8844,21.2188 273.0406,19.875 274.6031,19.875 C275.4156,19.875 276.0094,20.1875 276.5406,20.6719 L277.9156,19.125 C277.1656,18.3906 276.0094,17.7188 274.6031,17.7188 C271.65,17.7188 269.3219,19.8594 269.3219,23.5313 C269.3219,27.25 271.6969,29.2031 274.4469,29.2031 Z " fill="#000000"/><text fill="#000000" font-family="sans-serif" font-size="14" lengthAdjust="spacing" textLength="49" x="294.6" y="27.7852">Dataset</text><line style="stroke:#181818;stroke-width:0.5;" x1="232.5" x2="373.5" y1="39" y2="39"/><text fill="#000000" font-family="sans-serif" font-size="14" lengthAdjust="spacing" textLength="68" x="237.5" y="55.9883">data : Data</text><text fill="#000000" font-family="sans-serif" font-size="14" lengthAdjust="spacing" textLength="123" x="237.5" y="72.3945">device_data : Data{}</text><text fill="#000000" font-family="sans-serif" font-size="14" lengthAdjust="spacing" textLength="108" x="237.5" y="88.8008">raw_data : Data{}</text><text fill="#000000" font-family="sans-serif" font-size="14" lengthAdjust="spacing" textLength="131" x="237.5" y="105.207">metadata : Metadata</text><text fill="#000000" font-family="sans-serif" font-size="14" lengthAdjust="spacing" textLength="116" x="237.5" y="121.6133">fill_mode : FillMode</text><line style="stroke:#181818;stroke-width:0.5;" x1="232.5" x2="373.5" y1="129.0313" y2="129.0313"/><text fill="#000000" font-family="sans-serif" font-size="14" lengthAdjust="spacing" textLength="102" x="237.5" y="146.0195">preferred_data()</text></g><g id="elem_GMN3"><path d="M38,21.5 L38,138.1406 A0,0 0 0 0 38,138.1406 L196,138.1406 A0,0 0 0 0 196,138.1406 L196,84 L231.24,80 L196,76 L196,31.5 L186,21.5 L38,21.5 A0,0 0 0 0 38,21.5 " fill="#FEFFDD" style="stroke:#181818;stroke-width:0.5;"/><path d="M186,21.5 L186,31.5 L196,31.5 L186,21.5 " fill="#FEFFDD" style="stroke:#181818;stroke-width:0.5;"/><text fill="#000000" font-family="sans-serif" font-size="13" lengthAdjust="spacing" textLength="118" x="44" y="38.5605">raw_data contain the</text><text fill="#000000" font-family="sans-serif" font-size="13" lengthAdjust="spacing" textLength="113" x="44" y="53.7949">unfilled values of all</text><text fill="#000000" font-family="sans-serif" font-size="13" lengthAdjust="spacing" textLength="127" x="44" y="69.0293">device_data and share</text><text fill="#000000" font-family="sans-serif" font-size="13" lengthAdjust="spacing" textLength="79" x="44" y="84.2637">the same key.</text><text fill="#000000" font-family="sans-serif" font-size="13" lengthAdjust="spacing" textLength="3" x="44" y="99.498">&#160;</text><text fill="#000000" font-family="sans-serif" font-size="13" lengthAdjust="spacing" textLength="122" x="44" y="114.7324">Data and device_data</text><text fill="#000000" font-family="sans-serif" font-size="13" lengthAdjust="spacing" textLength="137" x="44" y="129.9668">contain the filled values.</text></g><!--class FillMode--><g id="elem_FillMode"><rect codeLine="13" fill="#F1F1F1" height="113.625" id="FillMode" rx="2.5" ry="2.5" style="stroke:#181818;stroke-width:0.5;" width="102" x="509" y="23"/><ellipse cx="532.1" cy="39" fill="#EB937F" rx="11" ry="11" style="stroke:#181818;stroke-width:1.0;"/><path d="M528.1625,45 L535.6781,45 L535.6781,42.8906 L530.6781,42.8906 L530.6781,40.3438 L534.7719,40.3438 L534.7719,38.25 L530.6781,38.25 L530.6781,36.0313 L535.5063,36.0313 L535.5063,33.9219 L528.1625,33.9219 L528.1625,45 Z " fill="#000000"/><text fill="#000000" font-family="sans-serif" font-size="14" lengthAdjust="spacing" textLength="52" x="547.9" y="43.7852">FillMode</text><line style="stroke:#181818;stroke-width:0.5;" x1="510" x2="610" y1="55" y2="55"/><text fill="#000000" font-family="sans-serif" font-size="14" lengthAdjust="spacing" textLength="61" x="515" y="71.9883">LASTFILL</text><text fill="#000000" font-family="sans-serif" font-size="14" lengthAdjust="spacing" textLength="57" x="515" y="88.3945">NANFILL</text><text fill="#000000" font-family="sans-serif" font-size="14" lengthAdjust="spacing" textLength="90" x="515" y="104.8008">LASTNANFILL</text><text fill="#000000" font-family="sans-serif" font-size="14" lengthAdjust="spacing" textLength="48" x="515" y="121.207">NOFILL</text><line style="stroke:#181818;stroke-width:0.5;" x1="510" x2="610" y1="128.625" y2="128.625"/></g><g id="elem_GMN7"><path d="M469.5,225.5 L469.5,281.2031 A0,0 0 0 0 469.5,281.2031 L650.5,281.2031 A0,0 0 0 0 650.5,281.2031 L650.5,235.5 L640.5,225.5 L564,225.5 L560,137.16 L556,225.5 L469.5,225.5 A0,0 0 0 0 469.5,225.5 " fill="#FEFFDD" style="stroke:#181818;stroke-width:0.5;"/><path d="M640.5,225.5 L640.5,235.5 L650.5,235.5 L640.5,225.5 " fill="#FEFFDD" style="stroke:#181818;stroke-width:0.5;"/><text fill="#000000" font-family="sans-serif" font-size="13" lengthAdjust="spacing" textLength="160" x="475.5" y="242.5605">Are these modes sufficient?</text><text fill="#000000" font-family="sans-serif" font-size="13" lengthAdjust="spacing" textLength="113" x="475.5" y="257.7949">Are they all needed?</text><text fill="#000000" font-family="sans-serif" font-size="13" lengthAdjust="spacing" textLength="128" x="475.5" y="273.0293">Is something missing?</text></g><!--class Metadata--><g id="elem_Metadata"><rect codeLine="21" fill="#F1F1F1" height="48" id="Metadata" rx="2.5" ry="2.5" style="stroke:#181818;stroke-width:0.5;" width="93" x="341.5" y="229.5"/><ellipse cx="356.5" cy="245.5" fill="#ADD1B2" rx="11" ry="11" style="stroke:#181818;stroke-width:1.0;"/><path d="M356.5469,251.7031 C358.0469,251.7031 359.2813,251.1406 360.1875,250.0781 L358.8125,248.5625 C358.2656,249.1563 357.6094,249.5469 356.8125,249.5469 C355.1406,249.5469 353.9844,248.2188 353.9844,245.9375 C353.9844,243.7188 355.1406,242.375 356.7031,242.375 C357.5156,242.375 358.1094,242.6875 358.6406,243.1719 L360.0156,241.625 C359.2656,240.8906 358.1094,240.2188 356.7031,240.2188 C353.75,240.2188 351.4219,242.3594 351.4219,246.0313 C351.4219,249.75 353.7969,251.7031 356.5469,251.7031 Z " fill="#000000"/><text fill="#000000" font-family="sans-serif" font-size="14" lengthAdjust="spacing" textLength="61" x="370.5" y="250.2852">Metadata</text><line style="stroke:#181818;stroke-width:0.5;" x1="342.5" x2="433.5" y1="261.5" y2="261.5"/><line style="stroke:#181818;stroke-width:0.5;" x1="342.5" x2="433.5" y1="269.5" y2="269.5"/></g><g id="elem_GMN11"><path d="M323.5,399 L323.5,439.4688 A0,0 0 0 0 323.5,439.4688 L468.5,439.4688 A0,0 0 0 0 468.5,439.4688 L468.5,409 L458.5,399 L399.05,399 L389.13,277.58 L391.05,399 L323.5,399 A0,0 0 0 0 323.5,399 " fill="#FEFFDD" style="stroke:#181818;stroke-width:0.5;"/><path d="M458.5,399 L458.5,409 L468.5,409 L458.5,399 " fill="#FEFFDD" style="stroke:#181818;stroke-width:0.5;"/><text fill="#000000" font-family="sans-serif" font-size="13" lengthAdjust="spacing" textLength="124" x="329.5" y="416.0605">See separate diagram</text><text fill="#000000" font-family="sans-serif" font-size="13" lengthAdjust="spacing" textLength="105" x="329.5" y="431.2949">for class hierarchy</text></g><!--class Data--><g id="elem_Data"><rect codeLine="25" fill="#F1F1F1" height="80.8125" id="Data" rx="2.5" ry="2.5" style="stroke:#181818;stroke-width:0.5;" width="146" x="145" y="213"/><ellipse cx="198.75" cy="229" fill="#ADD1B2" rx="11" ry="11" style="stroke:#181818;stroke-width:1.0;"/><path d="M198.7969,235.2031 C200.2969,235.2031 201.5313,234.6406 202.4375,233.5781 L201.0625,232.0625 C200.5156,232.6563 199.8594,233.0469 199.0625,233.0469 C197.3906,233.0469 196.2344,231.7188 196.2344,229.4375 C196.2344,227.2188 197.3906,225.875 198.9531,225.875 C199.7656,225.875 200.3594,226.1875 200.8906,226.6719 L202.2656,225.125 C201.5156,224.3906 200.3594,223.7188 198.9531,223.7188 C196,223.7188 193.6719,225.8594 193.6719,229.5313 C193.6719,233.25 196.0469,235.2031 198.7969,235.2031 Z " fill="#000000"/><text fill="#000000" font-family="sans-serif" font-size="14" lengthAdjust="spacing" textLength="30" x="219.25" y="233.7852">Data</text><line style="stroke:#181818;stroke-width:0.5;" x1="146" x2="290" y1="245" y2="245"/><text fill="#000000" font-family="sans-serif" font-size="14" lengthAdjust="spacing" textLength="134" x="151" y="261.9883">data : numpy.ndarray</text><text fill="#000000" font-family="sans-serif" font-size="14" lengthAdjust="spacing" textLength="72" x="151" y="278.3945">axes : Axis[]</text><line style="stroke:#181818;stroke-width:0.5;" x1="146" x2="290" y1="285.8125" y2="285.8125"/></g><g id="elem_GMN15"><path d="M6,233.5 L6,273.9688 A0,0 0 0 0 6,273.9688 L110,273.9688 A0,0 0 0 0 110,273.9688 L110,257.5 L144.72,253.5 L110,249.5 L110,243.5 L100,233.5 L6,233.5 A0,0 0 0 0 6,233.5 " fill="#FEFFDD" style="stroke:#181818;stroke-width:0.5;"/><path d="M100,233.5 L100,243.5 L110,243.5 L100,233.5 " fill="#FEFFDD" style="stroke:#181818;stroke-width:0.5;"/><text fill="#000000" font-family="sans-serif" font-size="13" lengthAdjust="spacing" textLength="67" x="12" y="250.5605">Can data be</text><text fill="#000000" font-family="sans-serif" font-size="13" lengthAdjust="spacing" textLength="83" x="12" y="265.7949">ragged arrays?</text></g><!--class Axis--><g id="elem_Axis"><rect codeLine="31" fill="#F1F1F1" height="130.0313" id="Axis" rx="2.5" ry="2.5" style="stroke:#181818;stroke-width:0.5;" width="157" x="131.5" y="354"/><ellipse cx="192.75" cy="370" fill="#ADD1B2" rx="11" ry="11" style="stroke:#181818;stroke-width:1.0;"/><path d="M192.7969,376.2031 C194.2969,376.2031 195.5313,375.6406 196.4375,374.5781 L195.0625,373.0625 C194.5156,373.6563 193.8594,374.0469 193.0625,374.0469 C191.3906,374.0469 190.2344,372.7188 190.2344,370.4375 C190.2344,368.2188 191.3906,366.875 192.9531,366.875 C193.7656,366.875 194.3594,367.1875 194.8906,367.6719 L196.2656,366.125 C195.5156,365.3906 194.3594,364.7188 192.9531,364.7188 C190,364.7188 187.6719,366.8594 187.6719,370.5313 C187.6719,374.25 190.0469,376.2031 192.7969,376.2031 Z " fill="#000000"/><text fill="#000000" font-family="sans-serif" font-size="14" lengthAdjust="spacing" textLength="26" x="213.25" y="374.7852">Axis</text><line style="stroke:#181818;stroke-width:0.5;" x1="132.5" x2="287.5" y1="386" y2="386"/><text fill="#000000" font-family="sans-serif" font-size="14" lengthAdjust="spacing" textLength="97" x="137.5" y="402.9883">quantity : string</text><text fill="#000000" font-family="sans-serif" font-size="14" lengthAdjust="spacing" textLength="90" x="137.5" y="419.3945">symbol : string</text><text fill="#000000" font-family="sans-serif" font-size="14" lengthAdjust="spacing" textLength="69" x="137.5" y="435.8008">unit : string</text><text fill="#000000" font-family="sans-serif" font-size="14" lengthAdjust="spacing" textLength="145" x="137.5" y="452.207">values : numpy.ndarray</text><line style="stroke:#181818;stroke-width:0.5;" x1="132.5" x2="287.5" y1="459.625" y2="459.625"/><text fill="#000000" font-family="sans-serif" font-size="14" lengthAdjust="spacing" textLength="39" x="137.5" y="476.6133">label()</text></g><!--reverse link Dataset to Metadata--><g id="link_Dataset_Metadata"><path codeLine="40" d="M344.1287,163.982 C357.6487,191.262 366.77,209.67 376.49,229.27 " fill="none" id="Dataset-backto-Metadata" style="stroke:#181818;stroke-width:1.0;"/><polygon fill="#181818" points="338.8,153.23,337.8804,160.3822,344.1287,163.982,345.0483,156.8298,338.8,153.23" style="stroke:#181818;stroke-width:1.0;"/></g><!--reverse link Dataset to Data--><g id="link_Dataset_Data"><path codeLine="41" d="M261.8737,163.9832 C251.8037,184.3132 246.54,194.92 237.78,212.6 " fill="none" id="Dataset-backto-Data" style="stroke:#181818;stroke-width:1.0;"/><polygon fill="#181818" points="267.2,153.23,260.9525,156.8311,261.8737,163.9832,268.1212,160.382,267.2,153.23" style="stroke:#181818;stroke-width:1.0;"/></g><!--reverse link Data to Axis--><g id="link_Data_Axis"><path codeLine="42" d="M215.4727,306.0656 C214.5927,324.0256 214.12,333.73 213.14,353.92 " fill="none" id="Data-backto-Axis" style="stroke:#181818;stroke-width:1.0;"/><polygon fill="#181818" points="216.06,294.08,211.7712,299.8771,215.4727,306.0656,219.7616,300.2686,216.06,294.08" style="stroke:#181818;stroke-width:1.0;"/></g><!--SRC=[RL9DRy8m3BtdL_YuJHe_WCk4XYOXCNPWjtL2RkFIQAd3afHH8Vxxt52WdTPBxVVy-UB2OWWmnuY18XmLoAV5Wsa2ppxjJK6R0Nmy9SBZppzeJH5xzBKt4ruQQpUrqoJ4YzYlOgh4x3oLv3tfLEtkNfqKkqXWgOpJMvV2SKJ342lAkE6k7cdOesqeW2i1hSruE2ooXb2Xbt39WO0rmHUraumpdby21WaP3rh0gFv4AUAclWxUIxMShTzV5ijbSbQprTNkYA6_UajclrZkOdJr56QUkbQ1eDCbG6ZAqXI6E3vbt9DjjnSmaIOjw4AYd4XS6Tv2RKAG_vDIHNh7gzwZBckItMc77WNK1hSUwunBv-6SLHdow8kgLPSwIPpHCSZkktR26ht7DX5ua85bXOC97v_Z5tj6FkVbehp7xLPaJ8dXEccNrdVuRf2ZYQqK2z7BEWaDRPqxEyOQDd6Cz8__Txx4MSp9fcDIb_j-U7oyQJG4vnSWUTrmwXS0]--></g></svg>