<?xml version="1.0" encoding="us-ascii" standalone="no"?><svg xmlns="http://www.w3.org/2000/svg" xmlns:xlink="http://www.w3.org/1999/xlink" contentStyleType="text/css" height="729px" preserveAspectRatio="none" style="width:1008px;height:729px;background:#FFFFFF;" version="1.1" viewBox="0 0 1008 729" width="1008px" zoomAndPan="magnify"><defs/><g><!--class Metadata--><g id="elem_Metadata"><rect codeLine="2" fill="#F1F1F1" height="80.8125" id="Metadata" rx="2.5" ry="2.5" style="stroke:#181818;stroke-width:0.5;" width="112" x="127.5" y="23.5"/><ellipse cx="151.05" cy="39.5" fill="#ADD1B2" rx="11" ry="11" style="stroke:#181818;stroke-width:1.0;"/><path d="M151.0969,45.7031 C152.5969,45.7031 153.8313,45.1406 154.7375,44.0781 L153.3625,42.5625 C152.8156,43.1563 152.1594,43.5469 151.3625,43.5469 C149.6906,43.5469 148.5344,42.2188 148.5344,39.9375 C148.5344,37.7188 149.6906,36.375 151.2531,36.375 C152.0656,36.375 152.6594,36.6875 153.1906,37.1719 L154.5656,35.625 C153.8156,34.8906 152.6594,34.2188 151.2531,34.2188 C148.3,34.2188 145.9719,36.3594 145.9719,40.0313 C145.9719,43.75 148.3469,45.7031 151.0969,45.7031 Z " fill="#000000"/><text fill="#000000" font-family="sans-serif" font-size="14" lengthAdjust="spacing" textLength="61" x="166.95" y="44.2852">Metadata</text><line style="stroke:#181818;stroke-width:0.5;" x1="128.5" x2="238.5" y1="55.5" y2="55.5"/><text fill="#000000" font-family="sans-serif" font-size="14" lengthAdjust="spacing" textLength="80" x="133.5" y="72.4883">name : string</text><text fill="#000000" font-family="sans-serif" font-size="14" lengthAdjust="spacing" textLength="100" x="133.5" y="88.8945">section : Section</text><line style="stroke:#181818;stroke-width:0.5;" x1="128.5" x2="238.5" y1="96.3125" y2="96.3125"/></g><!--class Data--><g id="elem_Data"><rect codeLine="7" fill="#F1F1F1" height="48" id="Data" rx="2.5" ry="2.5" style="stroke:#181818;stroke-width:0.5;" width="62" x="30.5" y="40"/><ellipse cx="45.5" cy="56" fill="#ADD1B2" rx="11" ry="11" style="stroke:#181818;stroke-width:1.0;"/><path d="M45.5469,62.2031 C47.0469,62.2031 48.2813,61.6406 49.1875,60.5781 L47.8125,59.0625 C47.2656,59.6563 46.6094,60.0469 45.8125,60.0469 C44.1406,60.0469 42.9844,58.7188 42.9844,56.4375 C42.9844,54.2188 44.1406,52.875 45.7031,52.875 C46.5156,52.875 47.1094,53.1875 47.6406,53.6719 L49.0156,52.125 C48.2656,51.3906 47.1094,50.7188 45.7031,50.7188 C42.75,50.7188 40.4219,52.8594 40.4219,56.5313 C40.4219,60.25 42.7969,62.2031 45.5469,62.2031 Z " fill="#000000"/><text fill="#000000" font-family="sans-serif" font-size="14" lengthAdjust="spacing" textLength="30" x="59.5" y="60.7852">Data</text><line style="stroke:#181818;stroke-width:0.5;" x1="31.5" x2="91.5" y1="72" y2="72"/><line style="stroke:#181818;stroke-width:0.5;" x1="31.5" x2="91.5" y1="80" y2="80"/></g><g id="elem_GMN4"><path d="M6,209.5 L6,249.9688 A0,0 0 0 0 6,249.9688 L117,249.9688 A0,0 0 0 0 117,249.9688 L117,219.5 L107,209.5 L65.5,209.5 L61.5,88.08 L57.5,209.5 L6,209.5 A0,0 0 0 0 6,209.5 " fill="#FEFFDD" style="stroke:#181818;stroke-width:0.5;"/><path d="M107,209.5 L107,219.5 L117,219.5 L107,209.5 " fill="#FEFFDD" style="stroke:#181818;stroke-width:0.5;"/><text fill="#000000" font-family="sans-serif" font-size="13" lengthAdjust="spacing" textLength="90" x="12" y="226.5605">See diagram for</text><text fill="#000000" font-family="sans-serif" font-size="13" lengthAdjust="spacing" textLength="73" x="12" y="241.7949">data module.</text></g><!--class Section--><g id="elem_Section"><rect codeLine="11" fill="#F1F1F1" height="113.625" id="Section" rx="2.5" ry="2.5" style="stroke:#181818;stroke-width:0.5;" width="84" x="414.5" y="7"/><ellipse cx="432.2" cy="23" fill="#EB937F" rx="11" ry="11" style="stroke:#181818;stroke-width:1.0;"/><path d="M428.2625,29 L435.7781,29 L435.7781,26.8906 L430.7781,26.8906 L430.7781,24.3438 L434.8719,24.3438 L434.8719,22.25 L430.7781,22.25 L430.7781,20.0313 L435.6063,20.0313 L435.6063,17.9219 L428.2625,17.9219 L428.2625,29 Z " fill="#000000"/><text fill="#000000" font-family="sans-serif" font-size="14" lengthAdjust="spacing" textLength="46" x="446.8" y="27.7852">Section</text><line style="stroke:#181818;stroke-width:0.5;" x1="415.5" x2="497.5" y1="39" y2="39"/><text fill="#000000" font-family="sans-serif" font-size="14" lengthAdjust="spacing" textLength="71" x="420.5" y="55.9883">STANDARD</text><text fill="#000000" font-family="sans-serif" font-size="14" lengthAdjust="spacing" textLength="72" x="420.5" y="72.3945">SNAPSHOT</text><text fill="#000000" font-family="sans-serif" font-size="14" lengthAdjust="spacing" textLength="63" x="420.5" y="88.8008">MONITOR</text><text fill="#000000" font-family="sans-serif" font-size="14" lengthAdjust="spacing" textLength="37" x="420.5" y="105.207">META</text><line style="stroke:#181818;stroke-width:0.5;" x1="415.5" x2="497.5" y1="112.625" y2="112.625"/></g><!--class Transport--><g id="elem_Transport"><rect codeLine="18" fill="#F1F1F1" height="80.8125" id="Transport" rx="2.5" ry="2.5" style="stroke:#181818;stroke-width:0.5;" width="94" x="673.5" y="23.5"/><ellipse cx="688.5" cy="39.5" fill="#EB937F" rx="11" ry="11" style="stroke:#181818;stroke-width:1.0;"/><path d="M684.5625,45.5 L692.0781,45.5 L692.0781,43.3906 L687.0781,43.3906 L687.0781,40.8438 L691.1719,40.8438 L691.1719,38.75 L687.0781,38.75 L687.0781,36.5313 L691.9063,36.5313 L691.9063,34.4219 L684.5625,34.4219 L684.5625,45.5 Z " fill="#000000"/><text fill="#000000" font-family="sans-serif" font-size="14" lengthAdjust="spacing" textLength="62" x="702.5" y="44.2852">Transport</text><line style="stroke:#181818;stroke-width:0.5;" x1="674.5" x2="766.5" y1="55.5" y2="55.5"/><text fill="#000000" font-family="sans-serif" font-size="14" lengthAdjust="spacing" textLength="18" x="679.5" y="72.4883">CA</text><text fill="#000000" font-family="sans-serif" font-size="14" lengthAdjust="spacing" textLength="44" x="679.5" y="88.8945">LOCAL</text><line style="stroke:#181818;stroke-width:0.5;" x1="674.5" x2="766.5" y1="96.3125" y2="96.3125"/></g><g id="elem_GMN9"><path d="M651,201.5 L651,257.2031 A0,0 0 0 0 651,257.2031 L790,257.2031 A0,0 0 0 0 790,257.2031 L790,211.5 L780,201.5 L724.5,201.5 L720.5,104.58 L716.5,201.5 L651,201.5 A0,0 0 0 0 651,201.5 " fill="#FEFFDD" style="stroke:#181818;stroke-width:0.5;"/><path d="M780,201.5 L780,211.5 L790,211.5 L780,201.5 " fill="#FEFFDD" style="stroke:#181818;stroke-width:0.5;"/><text fill="#000000" font-family="sans-serif" font-size="13" lengthAdjust="spacing" textLength="118" x="657" y="218.5605">This is defined in the</text><text fill="#000000" font-family="sans-serif" font-size="13" lengthAdjust="spacing" textLength="108" x="657" y="233.7949">scml.setup module</text><text fill="#000000" font-family="sans-serif" font-size="13" lengthAdjust="spacing" textLength="113" x="657" y="249.0293">as well. Generalise?</text></g><!--class DeviceMetadata--><g id="elem_DeviceMetadata"><rect codeLine="24" fill="#F1F1F1" height="97.2188" id="DeviceMetadata" rx="2.5" ry="2.5" style="stroke:#181818;stroke-width:0.5;" width="175" x="259" y="181"/><ellipse cx="295.15" cy="197" fill="#B4A7E5" rx="11" ry="11" style="stroke:#181818;stroke-width:1.0;"/><path d="M291.4156,203 L299.0875,203 L299.0875,200.8906 L296.5094,200.8906 L296.5094,194.0313 L299.0875,194.0313 L299.0875,191.9219 L291.4156,191.9219 L291.4156,194.0313 L293.9938,194.0313 L293.9938,200.8906 L291.4156,200.8906 L291.4156,203 Z " fill="#000000"/><text fill="#000000" font-family="sans-serif" font-size="14" font-style="italic" lengthAdjust="spacing" textLength="96" x="313.85" y="201.7852">DeviceMetadata</text><line style="stroke:#181818;stroke-width:0.5;" x1="260" x2="433" y1="213" y2="213"/><text fill="#000000" font-family="sans-serif" font-size="14" lengthAdjust="spacing" textLength="56" x="265" y="229.9883">id : string</text><text fill="#000000" font-family="sans-serif" font-size="14" lengthAdjust="spacing" textLength="60" x="265" y="246.3945">pv : string</text><text fill="#000000" font-family="sans-serif" font-size="14" lengthAdjust="spacing" textLength="163" x="265" y="262.8008">transport_type : Transport</text><line style="stroke:#181818;stroke-width:0.5;" x1="260" x2="433" y1="270.2188" y2="270.2188"/></g><!--class MeasureMetadata--><g id="elem_MeasureMetadata"><rect codeLine="30" fill="#F1F1F1" height="64.4063" id="MeasureMetadata" rx="2.5" ry="2.5" style="stroke:#181818;stroke-width:0.5;" width="147" x="469" y="197.5"/><ellipse cx="484" cy="213.5" fill="#ADD1B2" rx="11" ry="11" style="stroke:#181818;stroke-width:1.0;"/><path d="M484.0469,219.7031 C485.5469,219.7031 486.7813,219.1406 487.6875,218.0781 L486.3125,216.5625 C485.7656,217.1563 485.1094,217.5469 484.3125,217.5469 C482.6406,217.5469 481.4844,216.2188 481.4844,213.9375 C481.4844,211.7188 482.6406,210.375 484.2031,210.375 C485.0156,210.375 485.6094,210.6875 486.1406,211.1719 L487.5156,209.625 C486.7656,208.8906 485.6094,208.2188 484.2031,208.2188 C481.25,208.2188 478.9219,210.3594 478.9219,214.0313 C478.9219,217.75 481.2969,219.7031 484.0469,219.7031 Z " fill="#000000"/><text fill="#000000" font-family="sans-serif" font-size="14" lengthAdjust="spacing" textLength="115" x="498" y="218.2852">MeasureMetadata</text><line style="stroke:#181818;stroke-width:0.5;" x1="470" x2="615" y1="229.5" y2="229.5"/><text fill="#000000" font-family="sans-serif" font-size="14" lengthAdjust="spacing" textLength="69" x="475" y="246.4883">unit : string</text><line style="stroke:#181818;stroke-width:0.5;" x1="470" x2="615" y1="253.9063" y2="253.9063"/></g><!--class MonitorMetadata--><g id="elem_MonitorMetadata"><rect codeLine="34" fill="#F1F1F1" height="64.4063" id="MonitorMetadata" rx="2.5" ry="2.5" style="stroke:#181818;stroke-width:0.5;" width="179" x="70" y="338"/><ellipse cx="101.65" cy="354" fill="#ADD1B2" rx="11" ry="11" style="stroke:#181818;stroke-width:1.0;"/><path d="M101.6969,360.2031 C103.1969,360.2031 104.4313,359.6406 105.3375,358.5781 L103.9625,357.0625 C103.4156,357.6563 102.7594,358.0469 101.9625,358.0469 C100.2906,358.0469 99.1344,356.7188 99.1344,354.4375 C99.1344,352.2188 100.2906,350.875 101.8531,350.875 C102.6656,350.875 103.2594,351.1875 103.7906,351.6719 L105.1656,350.125 C104.4156,349.3906 103.2594,348.7188 101.8531,348.7188 C98.9,348.7188 96.5719,350.8594 96.5719,354.5313 C96.5719,358.25 98.9469,360.2031 101.6969,360.2031 Z " fill="#000000"/><text fill="#000000" font-family="sans-serif" font-size="14" lengthAdjust="spacing" textLength="110" x="119.35" y="358.7852">MonitorMetadata</text><line style="stroke:#181818;stroke-width:0.5;" x1="71" x2="248" y1="370" y2="370"/><text fill="#000000" font-family="sans-serif" font-size="14" lengthAdjust="spacing" textLength="167" x="76" y="386.9883">section : Section.MONITOR</text><line style="stroke:#181818;stroke-width:0.5;" x1="71" x2="248" y1="394.4063" y2="394.4063"/></g><!--class MotorMetadata--><g id="elem_MotorMetadata"><rect codeLine="38" fill="#F1F1F1" height="48" id="MotorMetadata" rx="2.5" ry="2.5" style="stroke:#181818;stroke-width:0.5;" width="131" x="466" y="346"/><ellipse cx="481" cy="362" fill="#ADD1B2" rx="11" ry="11" style="stroke:#181818;stroke-width:1.0;"/><path d="M481.0469,368.2031 C482.5469,368.2031 483.7813,367.6406 484.6875,366.5781 L483.3125,365.0625 C482.7656,365.6563 482.1094,366.0469 481.3125,366.0469 C479.6406,366.0469 478.4844,364.7188 478.4844,362.4375 C478.4844,360.2188 479.6406,358.875 481.2031,358.875 C482.0156,358.875 482.6094,359.1875 483.1406,359.6719 L484.5156,358.125 C483.7656,357.3906 482.6094,356.7188 481.2031,356.7188 C478.25,356.7188 475.9219,358.8594 475.9219,362.5313 C475.9219,366.25 478.2969,368.2031 481.0469,368.2031 Z " fill="#000000"/><text fill="#000000" font-family="sans-serif" font-size="14" lengthAdjust="spacing" textLength="99" x="495" y="366.7852">MotorMetadata</text><line style="stroke:#181818;stroke-width:0.5;" x1="467" x2="596" y1="378" y2="378"/><line style="stroke:#181818;stroke-width:0.5;" x1="467" x2="596" y1="386" y2="386"/></g><!--class DetectorMetadata--><g id="elem_DetectorMetadata"><rect codeLine="41" fill="#F1F1F1" height="64.4063" id="DetectorMetadata" rx="2.5" ry="2.5" style="stroke:#181818;stroke-width:0.5;" width="146" x="284.5" y="338"/><ellipse cx="299.5" cy="354" fill="#ADD1B2" rx="11" ry="11" style="stroke:#181818;stroke-width:1.0;"/><path d="M299.5469,360.2031 C301.0469,360.2031 302.2813,359.6406 303.1875,358.5781 L301.8125,357.0625 C301.2656,357.6563 300.6094,358.0469 299.8125,358.0469 C298.1406,358.0469 296.9844,356.7188 296.9844,354.4375 C296.9844,352.2188 298.1406,350.875 299.7031,350.875 C300.5156,350.875 301.1094,351.1875 301.6406,351.6719 L303.0156,350.125 C302.2656,349.3906 301.1094,348.7188 299.7031,348.7188 C296.75,348.7188 294.4219,350.8594 294.4219,354.5313 C294.4219,358.25 296.7969,360.2031 299.5469,360.2031 Z " fill="#000000"/><text fill="#000000" font-family="sans-serif" font-size="14" lengthAdjust="spacing" textLength="114" x="313.5" y="358.7852">DetectorMetadata</text><line style="stroke:#181818;stroke-width:0.5;" x1="285.5" x2="429.5" y1="370" y2="370"/><text fill="#000000" font-family="sans-serif" font-size="14" lengthAdjust="spacing" textLength="123" x="290.5" y="386.9883">normalise_id : string</text><line style="stroke:#181818;stroke-width:0.5;" x1="285.5" x2="429.5" y1="394.4063" y2="394.4063"/></g><!--class TimestampMetadata--><g id="elem_TimestampMetadata"><rect codeLine="45" fill="#F1F1F1" height="64.4063" id="TimestampMetadata" rx="2.5" ry="2.5" style="stroke:#181818;stroke-width:0.5;" width="163" x="838" y="338"/><ellipse cx="853" cy="354" fill="#ADD1B2" rx="11" ry="11" style="stroke:#181818;stroke-width:1.0;"/><path d="M853.0469,360.2031 C854.5469,360.2031 855.7813,359.6406 856.6875,358.5781 L855.3125,357.0625 C854.7656,357.6563 854.1094,358.0469 853.3125,358.0469 C851.6406,358.0469 850.4844,356.7188 850.4844,354.4375 C850.4844,352.2188 851.6406,350.875 853.2031,350.875 C854.0156,350.875 854.6094,351.1875 855.1406,351.6719 L856.5156,350.125 C855.7656,349.3906 854.6094,348.7188 853.2031,348.7188 C850.25,348.7188 847.9219,350.8594 847.9219,354.5313 C847.9219,358.25 850.2969,360.2031 853.0469,360.2031 Z " fill="#000000"/><text fill="#000000" font-family="sans-serif" font-size="14" lengthAdjust="spacing" textLength="131" x="867" y="358.7852">TimestampMetadata</text><line style="stroke:#181818;stroke-width:0.5;" x1="839" x2="1000" y1="370" y2="370"/><text fill="#000000" font-family="sans-serif" font-size="14" lengthAdjust="spacing" textLength="141" x="844" y="386.9883">section : Section.META</text><line style="stroke:#181818;stroke-width:0.5;" x1="839" x2="1000" y1="394.4063" y2="394.4063"/></g><!--class ScanModuleMetadata--><g id="elem_ScanModuleMetadata"><rect codeLine="49" fill="#F1F1F1" height="64.4063" id="ScanModuleMetadata" rx="2.5" ry="2.5" style="stroke:#181818;stroke-width:0.5;" width="170" x="632.5" y="338"/><ellipse cx="647.5" cy="354" fill="#ADD1B2" rx="11" ry="11" style="stroke:#181818;stroke-width:1.0;"/><path d="M647.5469,360.2031 C649.0469,360.2031 650.2813,359.6406 651.1875,358.5781 L649.8125,357.0625 C649.2656,357.6563 648.6094,358.0469 647.8125,358.0469 C646.1406,358.0469 644.9844,356.7188 644.9844,354.4375 C644.9844,352.2188 646.1406,350.875 647.7031,350.875 C648.5156,350.875 649.1094,351.1875 649.6406,351.6719 L651.0156,350.125 C650.2656,349.3906 649.1094,348.7188 647.7031,348.7188 C644.75,348.7188 642.4219,350.8594 642.4219,354.5313 C642.4219,358.25 644.7969,360.2031 647.5469,360.2031 Z " fill="#000000"/><text fill="#000000" font-family="sans-serif" font-size="14" lengthAdjust="spacing" textLength="138" x="661.5" y="358.7852">ScanModuleMetadata</text><line style="stroke:#181818;stroke-width:0.5;" x1="633.5" x2="801.5" y1="370" y2="370"/><text fill="#000000" font-family="sans-serif" font-size="14" lengthAdjust="spacing" textLength="141" x="638.5" y="386.9883">section : Section.META</text><line style="stroke:#181818;stroke-width:0.5;" x1="633.5" x2="801.5" y1="394.4063" y2="394.4063"/></g><!--class AverageDetectorMetadata--><g id="elem_AverageDetectorMetadata"><rect codeLine="53" fill="#F1F1F1" height="113.625" id="AverageDetectorMetadata" rx="2.5" ry="2.5" style="stroke:#181818;stroke-width:0.5;" width="197" x="144" y="462"/><ellipse cx="159" cy="478" fill="#ADD1B2" rx="11" ry="11" style="stroke:#181818;stroke-width:1.0;"/><path d="M159.0469,484.2031 C160.5469,484.2031 161.7813,483.6406 162.6875,482.5781 L161.3125,481.0625 C160.7656,481.6563 160.1094,482.0469 159.3125,482.0469 C157.6406,482.0469 156.4844,480.7188 156.4844,478.4375 C156.4844,476.2188 157.6406,474.875 159.2031,474.875 C160.0156,474.875 160.6094,475.1875 161.1406,475.6719 L162.5156,474.125 C161.7656,473.3906 160.6094,472.7188 159.2031,472.7188 C156.25,472.7188 153.9219,474.8594 153.9219,478.5313 C153.9219,482.25 156.2969,484.2031 159.0469,484.2031 Z " fill="#000000"/><text fill="#000000" font-family="sans-serif" font-size="14" lengthAdjust="spacing" textLength="165" x="173" y="482.7852">AverageDetectorMetadata</text><line style="stroke:#181818;stroke-width:0.5;" x1="145" x2="340" y1="494" y2="494"/><text fill="#000000" font-family="sans-serif" font-size="14" lengthAdjust="spacing" textLength="123" x="150" y="510.9883">n_averages : integer</text><text fill="#000000" font-family="sans-serif" font-size="14" lengthAdjust="spacing" textLength="92" x="150" y="527.3945">low_limit : float</text><text fill="#000000" font-family="sans-serif" font-size="14" lengthAdjust="spacing" textLength="142" x="150" y="543.8008">max_attempts : integer</text><text fill="#000000" font-family="sans-serif" font-size="14" lengthAdjust="spacing" textLength="128" x="150" y="560.207">max_deviation : float</text><line style="stroke:#181818;stroke-width:0.5;" x1="145" x2="340" y1="567.625" y2="567.625"/></g><g id="elem_GMN23"><path d="M66,636 L66,722.1719 A0,0 0 0 0 66,722.1719 L419,722.1719 A0,0 0 0 0 419,722.1719 L419,646 L409,636 L246.5,636 L242.5,576.15 L238.5,636 L66,636 A0,0 0 0 0 66,636 " fill="#FEFFDD" style="stroke:#181818;stroke-width:0.5;"/><path d="M409,636 L409,646 L419,646 L409,636 " fill="#FEFFDD" style="stroke:#181818;stroke-width:0.5;"/><text fill="#000000" font-family="sans-serif" font-size="13" lengthAdjust="spacing" textLength="298" x="72" y="653.0605">These attributes may change      for individual values.</text><text fill="#000000" font-family="sans-serif" font-size="13" lengthAdjust="spacing" textLength="3" x="72" y="668.2949">&#160;</text><text fill="#000000" font-family="sans-serif" font-size="13" lengthAdjust="spacing" textLength="329" x="75" y="683.5293">Is that true even for only one detector in one scan module?</text><text fill="#000000" font-family="sans-serif" font-size="13" lengthAdjust="spacing" textLength="326" x="75" y="698.7637">If we go for separate detectors in this case, would it solve</text><text fill="#000000" font-family="sans-serif" font-size="13" lengthAdjust="spacing" textLength="73" x="75" y="713.998">the problem?</text></g><!--class IntervalDetectorMetadata--><g id="elem_IntervalDetectorMetadata"><rect codeLine="67" fill="#F1F1F1" height="64.4063" id="IntervalDetectorMetadata" rx="2.5" ry="2.5" style="stroke:#181818;stroke-width:0.5;" width="193" x="376" y="487"/><ellipse cx="391" cy="503" fill="#ADD1B2" rx="11" ry="11" style="stroke:#181818;stroke-width:1.0;"/><path d="M391.0469,509.2031 C392.5469,509.2031 393.7813,508.6406 394.6875,507.5781 L393.3125,506.0625 C392.7656,506.6563 392.1094,507.0469 391.3125,507.0469 C389.6406,507.0469 388.4844,505.7188 388.4844,503.4375 C388.4844,501.2188 389.6406,499.875 391.2031,499.875 C392.0156,499.875 392.6094,500.1875 393.1406,500.6719 L394.5156,499.125 C393.7656,498.3906 392.6094,497.7188 391.2031,497.7188 C388.25,497.7188 385.9219,499.8594 385.9219,503.5313 C385.9219,507.25 388.2969,509.2031 391.0469,509.2031 Z " fill="#000000"/><text fill="#000000" font-family="sans-serif" font-size="14" lengthAdjust="spacing" textLength="161" x="405" y="507.7852">IntervalDetectorMetadata</text><line style="stroke:#181818;stroke-width:0.5;" x1="377" x2="568" y1="519" y2="519"/><text fill="#000000" font-family="sans-serif" font-size="14" lengthAdjust="spacing" textLength="131" x="382" y="535.9883">trigger_interval : float</text><line style="stroke:#181818;stroke-width:0.5;" x1="377" x2="568" y1="543.4063" y2="543.4063"/></g><!--reverse link DeviceMetadata to MonitorMetadata--><g id="link_DeviceMetadata_MonitorMetadata"><path d="M267.686,288.8741 C240.956,308.6741 225.16,320.37 201.38,337.98 " fill="none" id="DeviceMetadata-backto-MonitorMetadata" style="stroke:#181818;stroke-width:1.0;stroke-dasharray:7.0,7.0;"/><polygon fill="none" points="282.15,278.16,264.1146,284.0528,271.2573,293.6954,282.15,278.16" style="stroke:#181818;stroke-width:1.0;"/></g><!--reverse link DeviceMetadata to MotorMetadata--><g id="link_DeviceMetadata_MotorMetadata"><path d="M424.5779,288.9495 C455.1979,311.8795 476.1,327.52 500.7,345.94 " fill="none" id="DeviceMetadata-backto-MotorMetadata" style="stroke:#181818;stroke-width:1.0;stroke-dasharray:7.0,7.0;"/><polygon fill="none" points="410.17,278.16,420.9814,293.7521,428.1744,284.1468,410.17,278.16" style="stroke:#181818;stroke-width:1.0;"/></g><!--reverse link DeviceMetadata to DetectorMetadata--><g id="link_DeviceMetadata_DetectorMetadata"><path d="M351.7095,296.1039 C353.2695,315.8239 353.62,320.2 355.02,337.77 " fill="none" id="DeviceMetadata-backto-DetectorMetadata" style="stroke:#181818;stroke-width:1.0;stroke-dasharray:7.0,7.0;"/><polygon fill="none" points="350.29,278.16,345.7282,296.5771,357.6908,295.6308,350.29,278.16" style="stroke:#181818;stroke-width:1.0;"/></g><!--reverse link Data to Metadata--><g id="link_Data_Metadata"><path codeLine="71" d="M104.95,64 C116.39,64 115.83,64 127.26,64 " fill="none" id="Data-backto-Metadata" style="stroke:#181818;stroke-width:1.0;"/><polygon fill="#181818" points="92.95,64,98.95,68,104.95,64,98.95,60,92.95,64" style="stroke:#181818;stroke-width:1.0;"/></g><!--reverse link Metadata to MeasureMetadata--><g id="link_Metadata_MeasureMetadata"><path codeLine="72" d="M256.3516,94.8241 C310.9516,117.4241 379.3,146.59 451.5,181 C462.28,186.14 473.65,191.84 484.56,197.46 " fill="none" id="Metadata-backto-MeasureMetadata" style="stroke:#181818;stroke-width:1.0;"/><polygon fill="none" points="239.72,87.94,254.0569,100.368,258.6463,89.2803,239.72,87.94" style="stroke:#181818;stroke-width:1.0;"/></g><!--reverse link Metadata to MonitorMetadata--><g id="link_Metadata_MonitorMetadata"><path codeLine="73" d="M178.9437,122.6842 C174.1037,184.0042 166.33,282.45 161.95,338 " fill="none" id="Metadata-backto-MonitorMetadata" style="stroke:#181818;stroke-width:1.0;"/><polygon fill="none" points="180.36,104.74,172.9623,122.2121,184.9251,123.1563,180.36,104.74" style="stroke:#181818;stroke-width:1.0;"/></g><!--reverse link MeasureMetadata to DetectorMetadata--><g id="link_MeasureMetadata_DetectorMetadata"><path codeLine="74" d="M486.5709,272.3678 C456.2109,295.0978 429.6,315.02 399.2,337.78 " fill="none" id="MeasureMetadata-backto-DetectorMetadata" style="stroke:#181818;stroke-width:1.0;"/><polygon fill="none" points="500.98,261.58,482.9749,267.5648,490.1668,277.1709,500.98,261.58" style="stroke:#181818;stroke-width:1.0;"/></g><!--reverse link MeasureMetadata to MotorMetadata--><g id="link_MeasureMetadata_MotorMetadata"><path codeLine="75" d="M538.6027,279.5233 C536.5727,305.0433 535.18,322.68 533.34,345.78 " fill="none" id="MeasureMetadata-backto-MotorMetadata" style="stroke:#181818;stroke-width:1.0;"/><polygon fill="none" points="540.03,261.58,532.6216,279.0476,544.5838,279.9991,540.03,261.58" style="stroke:#181818;stroke-width:1.0;"/></g><!--reverse link MeasureMetadata to TimestampMetadata--><g id="link_MeasureMetadata_TimestampMetadata"><path codeLine="76" d="M614.6158,269.8467 C626.0058,275.6367 621.98,273.2 633.5,278 C643.32,282.09 756.92,317.97 837.94,343.43 " fill="none" id="MeasureMetadata-backto-TimestampMetadata" style="stroke:#181818;stroke-width:1.0;"/><polygon fill="none" points="598.57,261.69,611.8969,275.1953,617.3347,264.4981,598.57,261.69" style="stroke:#181818;stroke-width:1.0;"/></g><!--reverse link MeasureMetadata to ScanModuleMetadata--><g id="link_MeasureMetadata_ScanModuleMetadata"><path codeLine="77" d="M595.8844,272.7506 C624.6044,295.4806 649.29,315.02 678.06,337.78 " fill="none" id="MeasureMetadata-backto-ScanModuleMetadata" style="stroke:#181818;stroke-width:1.0;"/><polygon fill="none" points="581.77,261.58,592.1609,277.4554,599.608,268.0458,581.77,261.58" style="stroke:#181818;stroke-width:1.0;"/></g><!--reverse link DetectorMetadata to AverageDetectorMetadata--><g id="link_DetectorMetadata_AverageDetectorMetadata"><path codeLine="78" d="M322.0235,416.3506 C308.4435,433.7206 302.21,441.68 286.36,461.94 " fill="none" id="DetectorMetadata-backto-AverageDetectorMetadata" style="stroke:#181818;stroke-width:1.0;"/><polygon fill="none" points="333.11,402.17,317.2966,412.6551,326.7504,420.0461,333.11,402.17" style="stroke:#181818;stroke-width:1.0;"/></g><!--reverse link DetectorMetadata to IntervalDetectorMetadata--><g id="link_DetectorMetadata_IntervalDetectorMetadata"><path codeLine="79" d="M392.9779,416.3495 C412.4879,441.2995 428.64,461.94 448.15,486.87 " fill="none" id="DetectorMetadata-backto-IntervalDetectorMetadata" style="stroke:#181818;stroke-width:1.0;"/><polygon fill="none" points="381.89,402.17,388.2514,420.0455,397.7044,412.6536,381.89,402.17" style="stroke:#181818;stroke-width:1.0;"/></g><!--SRC=[bLJRYjim47tNLynpwUO3Ic4ncz86DfkoyMCWJEo98z35I6DlGxl_th7it9o4Ras8BUdCyUZe71S6OuGvCPR82ByLoENG4do1o46xAir4AbXx9vFB_aczArMascbVzwwSPuADP_QsWn6K6gk05hO-h5oYjxvi34sK8jVO0zNmqcMUlKoprsa_UCb-BdyiyZIOBrvc-UArV_wMPzsx4q4UqCNQ1nuedh9qUruyPS_ZXlATZY2_ahRQKGdQ0UzevM9XpIGID_NGtSfXX3SoPWBVoL50eoCzAgKTKzXYGJ2bLXSqqaoNbuhLxUMO3xskULztwXwRFqav9unD63CtJlE9wmJsCk_34QnjRSYIutYxmQiZd1nqFQFy664wxiFn4mlTHykIktomITJrkMP7mbnRYeos_dV_WnVwkcM1RfvEy3yBirOEkQAhZGpThh5VZqBGUQ2Ya1QCVriRRTFPR8r7JhCMVwsHcMpDuu9kgHH5SEYcBxgmQSBbEue4GXBqfc5vhyKz53jq5K6w94z2NEfMbmqQQD4q52LKQN4MnTV8uhU6W5fo2UwTsSkVP7BOPUV_RXn5jS7uZmF1LjmFbKzraMeCoAUws0T7WbHWfC_mvXiZOMA8thJKCqYke0v-8pPubA2MqEtmeFQiYv6qV4TksNGbWgtr03lJIQKlpQU7uzTA7Mk__dbu6ATdl7eP5pNEMWADcxgDkeZ9RSYLYM_3hZshhdH9m3iUlOE-fx7w2m00]--></g></svg>