<?xml version="1.0" encoding="us-ascii" standalone="no"?><svg xmlns="http://www.w3.org/2000/svg" xmlns:xlink="http://www.w3.org/1999/xlink" contentStyleType="text/css" height="332px" preserveAspectRatio="none" style="width:637px;height:332px;background:#FFFFFF;" version="1.1" viewBox="0 0 637 332" width="637px" zoomAndPan="magnify"><defs/><g><!--class Plugin--><g id="elem_Plugin"><rect codeLine="4" fill="#F1F1F1" height="113.1875" id="Plugin" rx="2.5" ry="2.5" style="stroke:#181818;stroke-width:0.5;" width="236" x="394.5" y="7"/><ellipse cx="486.75" cy="23" fill="#ADD1B2" rx="11" ry="11" style="stroke:#181818;stroke-width:1.0;"/><path d="M489.7344,28.6406 Q489.1563,28.9375 488.5156,29.0781 Q487.875,29.2344 487.1719,29.2344 Q484.6563,29.2344 483.3281,27.5938 Q482.0156,25.9375 482.0156,22.8125 Q482.0156,19.6719 483.3281,18.0313 Q484.6563,16.375 487.1719,16.375 Q487.875,16.375 488.5156,16.5313 Q489.1719,16.6719 489.7344,16.9688 L489.7344,19.6875 Q489.0938,19.1094 488.5,18.8438 Q487.9063,18.5781 487.2813,18.5781 Q485.9375,18.5781 485.25,19.6406 Q484.5625,20.7031 484.5625,22.8125 Q484.5625,24.9063 485.25,25.9844 Q485.9375,27.0469 487.2813,27.0469 Q487.9063,27.0469 488.5,26.7813 Q489.0938,26.5 489.7344,25.9219 L489.7344,28.6406 Z " fill="#000000"/><text fill="#000000" font-family="sans-serif" font-size="14" lengthAdjust="spacing" textLength="43" x="507.25" y="27.8467">Plugin</text><line style="stroke:#181818;stroke-width:0.5;" x1="395.5" x2="629.5" y1="39" y2="39"/><text fill="#000000" font-family="sans-serif" font-size="14" lengthAdjust="spacing" textLength="94" x="400.5" y="55.9951">name : string</text><text fill="#000000" font-family="sans-serif" font-size="14" lengthAdjust="spacing" textLength="110" x="400.5" y="72.292">location : string</text><text fill="#000000" font-family="sans-serif" font-size="14" lengthAdjust="spacing" textLength="224" x="400.5" y="88.5889">parameters : PluginParameter[]</text><text fill="#000000" font-family="sans-serif" font-size="14" lengthAdjust="spacing" textLength="122" x="400.5" y="104.8857">type : PluginType</text><line style="stroke:#181818;stroke-width:0.5;" x1="395.5" x2="629.5" y1="112.1875" y2="112.1875"/></g><!--class PluginParameter--><g id="elem_PluginParameter"><rect codeLine="37" fill="#F1F1F1" height="129.4844" id="PluginParameter" rx="2.5" ry="2.5" style="stroke:#181818;stroke-width:0.5;" width="165" x="430" y="188.5"/><ellipse cx="451.75" cy="204.5" fill="#ADD1B2" rx="11" ry="11" style="stroke:#181818;stroke-width:1.0;"/><path d="M454.7344,210.1406 Q454.1563,210.4375 453.5156,210.5781 Q452.875,210.7344 452.1719,210.7344 Q449.6563,210.7344 448.3281,209.0938 Q447.0156,207.4375 447.0156,204.3125 Q447.0156,201.1719 448.3281,199.5313 Q449.6563,197.875 452.1719,197.875 Q452.875,197.875 453.5156,198.0313 Q454.1719,198.1719 454.7344,198.4688 L454.7344,201.1875 Q454.0938,200.6094 453.5,200.3438 Q452.9063,200.0781 452.2813,200.0781 Q450.9375,200.0781 450.25,201.1406 Q449.5625,202.2031 449.5625,204.3125 Q449.5625,206.4063 450.25,207.4844 Q450.9375,208.5469 452.2813,208.5469 Q452.9063,208.5469 453.5,208.2813 Q454.0938,208 454.7344,207.4219 L454.7344,210.1406 Z " fill="#000000"/><text fill="#000000" font-family="sans-serif" font-size="14" lengthAdjust="spacing" textLength="118" x="467.25" y="209.3467">PluginParameter</text><line style="stroke:#181818;stroke-width:0.5;" x1="431" x2="594" y1="220.5" y2="220.5"/><text fill="#000000" font-family="sans-serif" font-size="14" lengthAdjust="spacing" textLength="92" x="436" y="237.4951">value : string</text><text fill="#000000" font-family="sans-serif" font-size="14" lengthAdjust="spacing" textLength="94" x="436" y="253.792">name : string</text><text fill="#000000" font-family="sans-serif" font-size="14" lengthAdjust="spacing" textLength="153" x="436" y="270.0889">datatype : PluginData</text><text fill="#000000" font-family="sans-serif" font-size="14" lengthAdjust="spacing" textLength="103" x="436" y="286.3857">default : string</text><text fill="#000000" font-family="sans-serif" font-size="14" lengthAdjust="spacing" textLength="149" x="436" y="302.6826">mandatory : boolean</text><line style="stroke:#181818;stroke-width:0.5;" x1="431" x2="594" y1="309.9844" y2="309.9844"/></g><!--class PluginType--><g id="elem_PluginType"><rect codeLine="14" fill="#F1F1F1" height="113.1875" id="PluginType" rx="2.5" ry="2.5" style="stroke:#181818;stroke-width:0.5;" width="153" x="206" y="7"/><ellipse cx="240.35" cy="23" fill="#EB937F" rx="11" ry="11" style="stroke:#181818;stroke-width:1.0;"/><path d="M244.475,29 L236.7406,29 L236.7406,16.5938 L244.475,16.5938 L244.475,18.75 L239.1938,18.75 L239.1938,21.4375 L243.975,21.4375 L243.975,23.5938 L239.1938,23.5938 L239.1938,26.8438 L244.475,26.8438 L244.475,29 Z " fill="#000000"/><text fill="#000000" font-family="sans-serif" font-size="14" lengthAdjust="spacing" textLength="78" x="258.65" y="27.8467">PluginType</text><line style="stroke:#181818;stroke-width:0.5;" x1="207" x2="358" y1="39" y2="39"/><text fill="#000000" font-family="sans-serif" font-size="14" lengthAdjust="spacing" textLength="56" x="212" y="55.9951">position</text><text fill="#000000" font-family="sans-serif" font-size="14" lengthAdjust="spacing" textLength="104" x="212" y="72.292">save = "HDF5"</text><text fill="#000000" font-family="sans-serif" font-size="14" lengthAdjust="spacing" textLength="50" x="212" y="88.5889">display</text><text fill="#000000" font-family="sans-serif" font-size="14" lengthAdjust="spacing" textLength="141" x="212" y="104.8857">postscanpositioning</text><line style="stroke:#181818;stroke-width:0.5;" x1="207" x2="358" y1="112.1875" y2="112.1875"/></g><path d="M6,21 L6,61.2656 A0,0 0 0 0 6,61.2656 L171,61.2656 A0,0 0 0 0 171,61.2656 L171,45.1328 L210,67.4453 L171,37.1328 L171,31 L161,21 L6,21 A0,0 0 0 0 6,21 " fill="#FEFFDD" style="stroke:#181818;stroke-width:0.5;"/><path d="M161,21 L161,31 L171,31 L161,21 " fill="#FEFFDD" style="stroke:#181818;stroke-width:0.5;"/><text fill="#000000" font-family="sans-serif" font-size="13" lengthAdjust="spacing" textLength="112" x="12" y="38.0669">There is only one</text><text fill="#000000" font-family="sans-serif" font-size="13" lengthAdjust="spacing" textLength="144" x="12" y="53.1997">save plugin left: HDF5</text><path d="M6,71.2656 L6,96.3984 A0,0 0 0 0 6,96.3984 L133,96.3984 A0,0 0 0 0 133,96.3984 L133,89.2656 L210,83.7422 L133,81.2656 L133,81.2656 L123,71.2656 L6,71.2656 A0,0 0 0 0 6,71.2656 " fill="#FEFFDD" style="stroke:#181818;stroke-width:0.5;"/><path d="M123,71.2656 L123,81.2656 L133,81.2656 L123,71.2656 " fill="#FEFFDD" style="stroke:#181818;stroke-width:0.5;"/><text fill="#000000" font-family="sans-serif" font-size="13" lengthAdjust="spacing" textLength="106" x="12" y="88.3325">What are these?</text><!--class PluginData--><g id="elem_PluginData"><rect codeLine="28" fill="#F1F1F1" height="145.7813" id="PluginData" rx="2.5" ry="2.5" style="stroke:#181818;stroke-width:0.5;" width="109" x="286" y="180"/><ellipse cx="301" cy="196" fill="#EB937F" rx="11" ry="11" style="stroke:#181818;stroke-width:1.0;"/><path d="M305.125,202 L297.3906,202 L297.3906,189.5938 L305.125,189.5938 L305.125,191.75 L299.8438,191.75 L299.8438,194.4375 L304.625,194.4375 L304.625,196.5938 L299.8438,196.5938 L299.8438,199.8438 L305.125,199.8438 L305.125,202 Z " fill="#000000"/><text fill="#000000" font-family="sans-serif" font-size="14" lengthAdjust="spacing" textLength="77" x="315" y="200.8467">PluginData</text><line style="stroke:#181818;stroke-width:0.5;" x1="287" x2="394" y1="212" y2="212"/><text fill="#000000" font-family="sans-serif" font-size="14" lengthAdjust="spacing" textLength="18" x="292" y="228.9951">int</text><text fill="#000000" font-family="sans-serif" font-size="14" lengthAdjust="spacing" textLength="49" x="292" y="245.292">double</text><text fill="#000000" font-family="sans-serif" font-size="14" lengthAdjust="spacing" textLength="40" x="292" y="261.5889">string</text><text fill="#000000" font-family="sans-serif" font-size="14" lengthAdjust="spacing" textLength="48" x="292" y="277.8857">axis_id</text><text fill="#000000" font-family="sans-serif" font-size="14" lengthAdjust="spacing" textLength="77" x="292" y="294.1826">channel_id</text><text fill="#000000" font-family="sans-serif" font-size="14" lengthAdjust="spacing" textLength="67" x="292" y="310.4795">device_id</text><line style="stroke:#181818;stroke-width:0.5;" x1="287" x2="394" y1="317.7813" y2="317.7813"/></g><!--reverse link Plugin to PluginParameter--><g id="link_Plugin_PluginParameter"><path codeLine="11" d="M512.5,132.25 C512.5,153.62 512.5,166.17 512.5,188.24 " fill="none" id="Plugin-backto-PluginParameter" style="stroke:#181818;stroke-width:1.0;"/><polygon fill="#181818" points="512.5,120.25,508.5,126.25,512.5,132.25,516.5,126.25,512.5,120.25" style="stroke:#181818;stroke-width:1.0;"/><text fill="#000000" font-family="sans-serif" font-size="13" lengthAdjust="spacing" textLength="8" x="504.0625" y="177.3842">n</text></g><!--reverse link PluginType to Plugin--><g id="link_PluginType_Plugin"><path codeLine="12" d="M371.32,63.5 C382.98,63.5 382.65,63.5 394.32,63.5 " fill="none" id="PluginType-backto-Plugin" style="stroke:#181818;stroke-width:1.0;"/><polygon fill="#181818" points="359.32,63.5,365.32,67.5,371.32,63.5,365.32,59.5,359.32,63.5" style="stroke:#181818;stroke-width:1.0;"/></g><!--reverse link PluginData to PluginParameter--><g id="link_PluginData_PluginParameter"><path codeLine="44" d="M407.26,253 C418.71,253 418.16,253 429.61,253 " fill="none" id="PluginData-backto-PluginParameter" style="stroke:#181818;stroke-width:1.0;"/><polygon fill="#181818" points="395.26,253,401.26,257,407.26,253,401.26,249,395.26,253" style="stroke:#181818;stroke-width:1.0;"/></g><!--SRC=[TL8zQyCm4DtrAmulXKBggOkXT0cbOuP0XbBAnJhR0lbah7EeAVdlbVmHEwRr87mVxzqxFJrK8etFqhInoDBLzYbtTPfRz7wd3POjragf8OQ3xKh3yACWVemrGGPUMiFbcB8kHp6ED-a60mi9jJuKHfB3dFhu77kaR-XMFOP0NPMQ1ZxkTf1mieMgfJcqJ5MbYBjwnJF9RPmtKTeGUBmGl43oldzxJeQCDZvSG3-tYi-HPqZSuwhO2O6bGi0LA_eiYsG3xbXHIs0yEBPzE6YPrOoBH7W6SMfGgI5I_i-xbdIgK003krJawNL1hxVTe-2qhM4PrtBTsKuw5aFms_WleuV_l49cidEewM9oYj7rtlNRhS_sNz1sM___U18wYBhpDggSIbHWPsK3g943nhLzo9-TiuGSjAmsl5czF8HV]--></g></svg>