<?xml version="1.0" encoding="us-ascii" standalone="no"?><svg xmlns="http://www.w3.org/2000/svg" xmlns:xlink="http://www.w3.org/1999/xlink" contentStyleType="text/css" height="490px" preserveAspectRatio="none" style="width:723px;height:490px;background:#FFFFFF;" version="1.1" viewBox="0 0 723 490" width="723px" zoomAndPan="magnify"><defs/><g><!--class Dataset--><g id="elem_Dataset"><rect codeLine="2" fill="#F1F1F1" height="145.7813" id="Dataset" rx="2.5" ry="2.5" style="stroke:#181818;stroke-width:0.5;" width="163" x="254.5" y="7"/><ellipse cx="304.25" cy="23" fill="#ADD1B2" rx="11" ry="11" style="stroke:#181818;stroke-width:1.0;"/><path d="M307.2344,28.6406 Q306.6563,28.9375 306.0156,29.0781 Q305.375,29.2344 304.6719,29.2344 Q302.1563,29.2344 300.8281,27.5938 Q299.5156,25.9375 299.5156,22.8125 Q299.5156,19.6719 300.8281,18.0313 Q302.1563,16.375 304.6719,16.375 Q305.375,16.375 306.0156,16.5313 Q306.6719,16.6719 307.2344,16.9688 L307.2344,19.6875 Q306.5938,19.1094 306,18.8438 Q305.4063,18.5781 304.7813,18.5781 Q303.4375,18.5781 302.75,19.6406 Q302.0625,20.7031 302.0625,22.8125 Q302.0625,24.9063 302.75,25.9844 Q303.4375,27.0469 304.7813,27.0469 Q305.4063,27.0469 306,26.7813 Q306.5938,26.5 307.2344,25.9219 L307.2344,28.6406 Z " fill="#000000"/><text fill="#000000" font-family="sans-serif" font-size="14" lengthAdjust="spacing" textLength="55" x="324.75" y="27.8467">Dataset</text><line style="stroke:#181818;stroke-width:0.5;" x1="255.5" x2="416.5" y1="39" y2="39"/><text fill="#000000" font-family="sans-serif" font-size="14" lengthAdjust="spacing" textLength="79" x="260.5" y="55.9951">data : Data</text><text fill="#000000" font-family="sans-serif" font-size="14" lengthAdjust="spacing" textLength="151" x="260.5" y="72.292">device_data : Data{}</text><text fill="#000000" font-family="sans-serif" font-size="14" lengthAdjust="spacing" textLength="130" x="260.5" y="88.5889">raw_data : Data{}</text><text fill="#000000" font-family="sans-serif" font-size="14" lengthAdjust="spacing" textLength="149" x="260.5" y="104.8857">metadata : Metadata</text><text fill="#000000" font-family="sans-serif" font-size="14" lengthAdjust="spacing" textLength="137" x="260.5" y="121.1826">fill_mode : FillMode</text><line style="stroke:#181818;stroke-width:0.5;" x1="255.5" x2="416.5" y1="128.4844" y2="128.4844"/><text fill="#000000" font-family="sans-serif" font-size="14" lengthAdjust="spacing" textLength="117" x="260.5" y="145.4795">preferred_data()</text></g><g id="elem_GMN3"><path d="M37,22 L37,137.9297 A0,0 0 0 0 37,137.9297 L219,137.9297 A0,0 0 0 0 219,137.9297 L219,84 L254.48,80 L219,76 L219,32 L209,22 L37,22 A0,0 0 0 0 37,22 " fill="#FEFFDD" style="stroke:#181818;stroke-width:0.5;"/><path d="M209,22 L209,32 L219,32 L209,22 " fill="#FEFFDD" style="stroke:#181818;stroke-width:0.5;"/><text fill="#000000" font-family="sans-serif" font-size="13" lengthAdjust="spacing" textLength="137" x="43" y="39.0669">raw_data contain the</text><text fill="#000000" font-family="sans-serif" font-size="13" lengthAdjust="spacing" textLength="133" x="43" y="54.1997">unfilled values of all</text><text fill="#000000" font-family="sans-serif" font-size="13" lengthAdjust="spacing" textLength="147" x="43" y="69.3325">device_data and share</text><text fill="#000000" font-family="sans-serif" font-size="13" lengthAdjust="spacing" textLength="93" x="43" y="84.4653">the same key.</text><text fill="#000000" font-family="sans-serif" font-size="13" lengthAdjust="spacing" textLength="8" x="43" y="99.5981">&#160;</text><text fill="#000000" font-family="sans-serif" font-size="13" lengthAdjust="spacing" textLength="142" x="43" y="114.731">Data and device_data</text><text fill="#000000" font-family="sans-serif" font-size="13" lengthAdjust="spacing" textLength="161" x="43" y="129.8638">contain the filled values.</text></g><!--class FillMode--><g id="elem_FillMode"><rect codeLine="13" fill="#F1F1F1" height="113.1875" id="FillMode" rx="2.5" ry="2.5" style="stroke:#181818;stroke-width:0.5;" width="106" x="562" y="23.5"/><ellipse cx="583.75" cy="39.5" fill="#EB937F" rx="11" ry="11" style="stroke:#181818;stroke-width:1.0;"/><path d="M587.875,45.5 L580.1406,45.5 L580.1406,33.0938 L587.875,33.0938 L587.875,35.25 L582.5938,35.25 L582.5938,37.9375 L587.375,37.9375 L587.375,40.0938 L582.5938,40.0938 L582.5938,43.3438 L587.875,43.3438 L587.875,45.5 Z " fill="#000000"/><text fill="#000000" font-family="sans-serif" font-size="14" lengthAdjust="spacing" textLength="59" x="599.25" y="44.3467">FillMode</text><line style="stroke:#181818;stroke-width:0.5;" x1="563" x2="667" y1="55.5" y2="55.5"/><text fill="#000000" font-family="sans-serif" font-size="14" lengthAdjust="spacing" textLength="64" x="568" y="72.4951">LASTFILL</text><text fill="#000000" font-family="sans-serif" font-size="14" lengthAdjust="spacing" textLength="58" x="568" y="88.792">NANFILL</text><text fill="#000000" font-family="sans-serif" font-size="14" lengthAdjust="spacing" textLength="94" x="568" y="105.0889">LASTNANFILL</text><text fill="#000000" font-family="sans-serif" font-size="14" lengthAdjust="spacing" textLength="49" x="568" y="121.3857">NOFILL</text><line style="stroke:#181818;stroke-width:0.5;" x1="563" x2="667" y1="128.6875" y2="128.6875"/></g><g id="elem_GMN7"><path d="M513.5,226 L513.5,281.3984 A0,0 0 0 0 513.5,281.3984 L716.5,281.3984 A0,0 0 0 0 716.5,281.3984 L716.5,236 L706.5,226 L619,226 L615,136.68 L611,226 L513.5,226 A0,0 0 0 0 513.5,226 " fill="#FEFFDD" style="stroke:#181818;stroke-width:0.5;"/><path d="M706.5,226 L706.5,236 L716.5,236 L706.5,226 " fill="#FEFFDD" style="stroke:#181818;stroke-width:0.5;"/><text fill="#000000" font-family="sans-serif" font-size="13" lengthAdjust="spacing" textLength="182" x="519.5" y="243.0669">Are these modes sufficient?</text><text fill="#000000" font-family="sans-serif" font-size="13" lengthAdjust="spacing" textLength="134" x="519.5" y="258.1997">Are they all needed?</text><text fill="#000000" font-family="sans-serif" font-size="13" lengthAdjust="spacing" textLength="146" x="519.5" y="273.3325">Is something missing?</text></g><!--class Metadata--><g id="elem_Metadata"><rect codeLine="21" fill="#F1F1F1" height="48" id="Metadata" rx="2.5" ry="2.5" style="stroke:#181818;stroke-width:0.5;" width="99" x="379.5" y="229.5"/><ellipse cx="394.5" cy="245.5" fill="#ADD1B2" rx="11" ry="11" style="stroke:#181818;stroke-width:1.0;"/><path d="M397.4844,251.1406 Q396.9063,251.4375 396.2656,251.5781 Q395.625,251.7344 394.9219,251.7344 Q392.4063,251.7344 391.0781,250.0938 Q389.7656,248.4375 389.7656,245.3125 Q389.7656,242.1719 391.0781,240.5313 Q392.4063,238.875 394.9219,238.875 Q395.625,238.875 396.2656,239.0313 Q396.9219,239.1719 397.4844,239.4688 L397.4844,242.1875 Q396.8438,241.6094 396.25,241.3438 Q395.6563,241.0781 395.0313,241.0781 Q393.6875,241.0781 393,242.1406 Q392.3125,243.2031 392.3125,245.3125 Q392.3125,247.4063 393,248.4844 Q393.6875,249.5469 395.0313,249.5469 Q395.6563,249.5469 396.25,249.2813 Q396.8438,249 397.4844,248.4219 L397.4844,251.1406 Z " fill="#000000"/><text fill="#000000" font-family="sans-serif" font-size="14" lengthAdjust="spacing" textLength="67" x="408.5" y="250.3467">Metadata</text><line style="stroke:#181818;stroke-width:0.5;" x1="380.5" x2="477.5" y1="261.5" y2="261.5"/><line style="stroke:#181818;stroke-width:0.5;" x1="380.5" x2="477.5" y1="269.5" y2="269.5"/></g><g id="elem_GMN11"><path d="M357,398.5 L357,438.7656 A0,0 0 0 0 357,438.7656 L521,438.7656 A0,0 0 0 0 521,438.7656 L521,408.5 L511,398.5 L441.81,398.5 L430.41,277.51 L433.81,398.5 L357,398.5 A0,0 0 0 0 357,398.5 " fill="#FEFFDD" style="stroke:#181818;stroke-width:0.5;"/><path d="M511,398.5 L511,408.5 L521,408.5 L511,398.5 " fill="#FEFFDD" style="stroke:#181818;stroke-width:0.5;"/><text fill="#000000" font-family="sans-serif" font-size="13" lengthAdjust="spacing" textLength="143" x="363" y="415.5669">See separate diagram</text><text fill="#000000" font-family="sans-serif" font-size="13" lengthAdjust="spacing" textLength="120" x="363" y="430.6997">for class hierarchy</text></g><!--class Data--><g id="elem_Data"><rect codeLine="25" fill="#F1F1F1" height="80.5938" id="Data" rx="2.5" ry="2.5" style="stroke:#181818;stroke-width:0.5;" width="166" x="159" y="213"/><ellipse cx="220.75" cy="229" fill="#ADD1B2" rx="11" ry="11" style="stroke:#181818;stroke-width:1.0;"/><path d="M223.7344,234.6406 Q223.1563,234.9375 222.5156,235.0781 Q221.875,235.2344 221.1719,235.2344 Q218.6563,235.2344 217.3281,233.5938 Q216.0156,231.9375 216.0156,228.8125 Q216.0156,225.6719 217.3281,224.0313 Q218.6563,222.375 221.1719,222.375 Q221.875,222.375 222.5156,222.5313 Q223.1719,222.6719 223.7344,222.9688 L223.7344,225.6875 Q223.0938,225.1094 222.5,224.8438 Q221.9063,224.5781 221.2813,224.5781 Q219.9375,224.5781 219.25,225.6406 Q218.5625,226.7031 218.5625,228.8125 Q218.5625,230.9063 219.25,231.9844 Q219.9375,233.0469 221.2813,233.0469 Q221.9063,233.0469 222.5,232.7813 Q223.0938,232.5 223.7344,231.9219 L223.7344,234.6406 Z " fill="#000000"/><text fill="#000000" font-family="sans-serif" font-size="14" lengthAdjust="spacing" textLength="34" x="241.25" y="233.8467">Data</text><line style="stroke:#181818;stroke-width:0.5;" x1="160" x2="324" y1="245" y2="245"/><text fill="#000000" font-family="sans-serif" font-size="14" lengthAdjust="spacing" textLength="154" x="165" y="261.9951">data : numpy.ndarray</text><text fill="#000000" font-family="sans-serif" font-size="14" lengthAdjust="spacing" textLength="85" x="165" y="278.292">axes : Axis[]</text><line style="stroke:#181818;stroke-width:0.5;" x1="160" x2="324" y1="285.5938" y2="285.5938"/></g><g id="elem_GMN15"><path d="M6,233.5 L6,273.7656 A0,0 0 0 0 6,273.7656 L124,273.7656 A0,0 0 0 0 124,273.7656 L124,257.5 L158.65,253.5 L124,249.5 L124,243.5 L114,233.5 L6,233.5 A0,0 0 0 0 6,233.5 " fill="#FEFFDD" style="stroke:#181818;stroke-width:0.5;"/><path d="M114,233.5 L114,243.5 L124,243.5 L114,233.5 " fill="#FEFFDD" style="stroke:#181818;stroke-width:0.5;"/><text fill="#000000" font-family="sans-serif" font-size="13" lengthAdjust="spacing" textLength="78" x="12" y="250.5669">Can data be</text><text fill="#000000" font-family="sans-serif" font-size="13" lengthAdjust="spacing" textLength="97" x="12" y="265.6997">ragged arrays?</text></g><!--class Axis--><g id="elem_Axis"><rect codeLine="31" fill="#F1F1F1" height="129.4844" id="Axis" rx="2.5" ry="2.5" style="stroke:#181818;stroke-width:0.5;" width="180" x="142" y="354"/><ellipse cx="213.25" cy="370" fill="#ADD1B2" rx="11" ry="11" style="stroke:#181818;stroke-width:1.0;"/><path d="M216.2344,375.6406 Q215.6563,375.9375 215.0156,376.0781 Q214.375,376.2344 213.6719,376.2344 Q211.1563,376.2344 209.8281,374.5938 Q208.5156,372.9375 208.5156,369.8125 Q208.5156,366.6719 209.8281,365.0313 Q211.1563,363.375 213.6719,363.375 Q214.375,363.375 215.0156,363.5313 Q215.6719,363.6719 216.2344,363.9688 L216.2344,366.6875 Q215.5938,366.1094 215,365.8438 Q214.4063,365.5781 213.7813,365.5781 Q212.4375,365.5781 211.75,366.6406 Q211.0625,367.7031 211.0625,369.8125 Q211.0625,371.9063 211.75,372.9844 Q212.4375,374.0469 213.7813,374.0469 Q214.4063,374.0469 215,373.7813 Q215.5938,373.5 216.2344,372.9219 L216.2344,375.6406 Z " fill="#000000"/><text fill="#000000" font-family="sans-serif" font-size="14" lengthAdjust="spacing" textLength="29" x="233.75" y="374.8467">Axis</text><line style="stroke:#181818;stroke-width:0.5;" x1="143" x2="321" y1="386" y2="386"/><text fill="#000000" font-family="sans-serif" font-size="14" lengthAdjust="spacing" textLength="113" x="148" y="402.9951">quantity : String</text><text fill="#000000" font-family="sans-serif" font-size="14" lengthAdjust="spacing" textLength="106" x="148" y="419.292">symbol : String</text><text fill="#000000" font-family="sans-serif" font-size="14" lengthAdjust="spacing" textLength="82" x="148" y="435.5889">unit : String</text><text fill="#000000" font-family="sans-serif" font-size="14" lengthAdjust="spacing" textLength="168" x="148" y="451.8857">values : numpy.ndarray</text><line style="stroke:#181818;stroke-width:0.5;" x1="143" x2="321" y1="459.1875" y2="459.1875"/><text fill="#000000" font-family="sans-serif" font-size="14" lengthAdjust="spacing" textLength="45" x="148" y="476.1826">label()</text></g><!--reverse link Dataset to Metadata--><g id="link_Dataset_Metadata"><path codeLine="40" d="M380.8894,163.7793 C395.6794,191.0593 405.77,209.67 416.4,229.27 " fill="none" id="Dataset-backto-Metadata" style="stroke:#181818;stroke-width:1.0;"/><polygon fill="#181818" points="375.17,153.23,374.5132,160.4111,380.8894,163.7793,381.5461,156.5982,375.17,153.23" style="stroke:#181818;stroke-width:1.0;"/></g><!--reverse link Dataset to Data--><g id="link_Dataset_Data"><path codeLine="41" d="M290.6435,163.7536 C279.5035,184.0836 273.56,194.92 263.87,212.6 " fill="none" id="Dataset-backto-Data" style="stroke:#181818;stroke-width:1.0;"/><polygon fill="#181818" points="296.41,153.23,290.0189,156.5696,290.6435,163.7536,297.0346,160.414,296.41,153.23" style="stroke:#181818;stroke-width:1.0;"/></g><!--reverse link Data to Axis--><g id="link_Data_Axis"><path codeLine="42" d="M238.821,306.3478 C237.731,324.2578 237.13,333.85 235.9,353.91 " fill="none" id="Data-backto-Axis" style="stroke:#181818;stroke-width:1.0;"/><polygon fill="#181818" points="239.55,294.37,235.1929,300.1159,238.821,306.3478,243.1781,300.6019,239.55,294.37" style="stroke:#181818;stroke-width:1.0;"/></g><!--SRC=[RL9DRy8m3BtdL_YuJO8Vm6L2GqX8m0xijax8RLmQBNLOacwh9lxxt52WdTPBxVVy-UB2OWYmm8Y18lmea4-B1xC4ddtwD0Nj1_3FAH4Ul_v1QuhOevlUJ7XfhDtNJfCGIx4tOgh473sLv3tfLEtkNfqKkqXWgOopMvV2SKJ342lAkE6k7cduHDjG05S2MflnS5Xa3Q52B-6I0m5hWdTgfnbdlBW4318o7hI0KVsfKiHDVHsybseztxqiL-jrShRpxTNkYA6_VKvclrZkOdJr3EQUkbQ1eDCbG6ZAqXI6E3vct9DjjnSmaIOjw4gYd4XS6Jv0RKAG_wDIHNh7gzwZBZkItUc87WNK1WyUwunBv-6SLHdow8kgLPSwIPpHCSZkntRA6ht7DX7uBGFB2jyclBwDN-m9-PoNY_8U3mUHCIM6wwHTMj_Xeq6E9hPIR1Uzh9FGqDQvisEiOHF7IF_uV-TBdCMSR3ecTRdlXydafj4GN5o0v7N3gLy0]--></g></svg>