<?xml version="1.0" encoding="us-ascii" standalone="no"?><svg xmlns="http://www.w3.org/2000/svg" xmlns:xlink="http://www.w3.org/1999/xlink" contentStyleType="text/css" height="618px" preserveAspectRatio="none" style="width:759px;height:618px;background:#FFFFFF;" version="1.1" viewBox="0 0 759 618" width="759px" zoomAndPan="magnify"><defs/><g><!--class EveMetadata--><g id="elem_EveMetadata"><rect codeLine="2" fill="#F1F1F1" height="130.0313" id="EveMetadata" rx="2.5" ry="2.5" style="stroke:#181818;stroke-width:0.5;" width="150" x="187.5" y="7"/><ellipse cx="218.25" cy="23" fill="#ADD1B2" rx="11" ry="11" style="stroke:#181818;stroke-width:1.0;"/><path d="M218.2969,29.2031 C219.7969,29.2031 221.0313,28.6406 221.9375,27.5781 L220.5625,26.0625 C220.0156,26.6563 219.3594,27.0469 218.5625,27.0469 C216.8906,27.0469 215.7344,25.7188 215.7344,23.4375 C215.7344,21.2188 216.8906,19.875 218.4531,19.875 C219.2656,19.875 219.8594,20.1875 220.3906,20.6719 L221.7656,19.125 C221.0156,18.3906 219.8594,17.7188 218.4531,17.7188 C215.5,17.7188 213.1719,19.8594 213.1719,23.5313 C213.1719,27.25 215.5469,29.2031 218.2969,29.2031 Z " fill="#000000"/><text fill="#000000" font-family="sans-serif" font-size="14" lengthAdjust="spacing" textLength="83" x="235.75" y="27.7852">EveMetadata</text><line style="stroke:#181818;stroke-width:0.5;" x1="188.5" x2="336.5" y1="39" y2="39"/><text fill="#000000" font-family="sans-serif" font-size="14" lengthAdjust="spacing" textLength="57" x="193.5" y="55.9883">id : String</text><text fill="#000000" font-family="sans-serif" font-size="14" lengthAdjust="spacing" textLength="81" x="193.5" y="72.3945">name : String</text><text fill="#000000" font-family="sans-serif" font-size="14" lengthAdjust="spacing" textLength="61" x="193.5" y="88.8008">pv : String</text><text fill="#000000" font-family="sans-serif" font-size="14" lengthAdjust="spacing" textLength="138" x="193.5" y="105.207">transport_type : String</text><text fill="#000000" font-family="sans-serif" font-size="14" lengthAdjust="spacing" textLength="100" x="193.5" y="121.6133">section : Section</text><line style="stroke:#181818;stroke-width:0.5;" x1="188.5" x2="336.5" y1="129.0313" y2="129.0313"/></g><!--class EveData--><g id="elem_EveData"><rect codeLine="10" fill="#F1F1F1" height="48" id="EveData" rx="2.5" ry="2.5" style="stroke:#181818;stroke-width:0.5;" width="84" x="48.5" y="230"/><ellipse cx="63.5" cy="246" fill="#ADD1B2" rx="11" ry="11" style="stroke:#181818;stroke-width:1.0;"/><path d="M63.5469,252.2031 C65.0469,252.2031 66.2813,251.6406 67.1875,250.5781 L65.8125,249.0625 C65.2656,249.6563 64.6094,250.0469 63.8125,250.0469 C62.1406,250.0469 60.9844,248.7188 60.9844,246.4375 C60.9844,244.2188 62.1406,242.875 63.7031,242.875 C64.5156,242.875 65.1094,243.1875 65.6406,243.6719 L67.0156,242.125 C66.2656,241.3906 65.1094,240.7188 63.7031,240.7188 C60.75,240.7188 58.4219,242.8594 58.4219,246.5313 C58.4219,250.25 60.7969,252.2031 63.5469,252.2031 Z " fill="#000000"/><text fill="#000000" font-family="sans-serif" font-size="14" lengthAdjust="spacing" textLength="52" x="77.5" y="250.7852">EveData</text><line style="stroke:#181818;stroke-width:0.5;" x1="49.5" x2="131.5" y1="262" y2="262"/><line style="stroke:#181818;stroke-width:0.5;" x1="49.5" x2="131.5" y1="270" y2="270"/></g><g id="elem_GMN4"><path d="M6,383 L6,423.4688 A0,0 0 0 0 6,423.4688 L151,423.4688 A0,0 0 0 0 151,423.4688 L151,393 L141,383 L84.09,383 L88.6,278.29 L76.09,383 L6,383 A0,0 0 0 0 6,383 " fill="#FEFFDD" style="stroke:#181818;stroke-width:0.5;"/><path d="M141,383 L141,393 L151,393 L141,383 " fill="#FEFFDD" style="stroke:#181818;stroke-width:0.5;"/><text fill="#000000" font-family="sans-serif" font-size="13" lengthAdjust="spacing" textLength="124" x="12" y="400.0605">See separate diagram</text><text fill="#000000" font-family="sans-serif" font-size="13" lengthAdjust="spacing" textLength="105" x="12" y="415.2949">for class hierarchy</text></g><!--class Section--><g id="elem_Section"><rect codeLine="14" fill="#F1F1F1" height="113.625" id="Section" rx="2.5" ry="2.5" style="stroke:#181818;stroke-width:0.5;" width="90" x="581.5" y="197"/><ellipse cx="601.9" cy="213" fill="#EB937F" rx="11" ry="11" style="stroke:#181818;stroke-width:1.0;"/><path d="M597.9625,219 L605.4781,219 L605.4781,216.8906 L600.4781,216.8906 L600.4781,214.3438 L604.5719,214.3438 L604.5719,212.25 L600.4781,212.25 L600.4781,210.0313 L605.3063,210.0313 L605.3063,207.9219 L597.9625,207.9219 L597.9625,219 Z " fill="#000000"/><text fill="#000000" font-family="sans-serif" font-size="14" lengthAdjust="spacing" textLength="46" x="617.1" y="217.7852">Section</text><line style="stroke:#181818;stroke-width:0.5;" x1="582.5" x2="670.5" y1="229" y2="229"/><text fill="#000000" font-family="sans-serif" font-size="14" lengthAdjust="spacing" textLength="71" x="587.5" y="245.9883">STANDARD</text><text fill="#000000" font-family="sans-serif" font-size="14" lengthAdjust="spacing" textLength="72" x="587.5" y="262.3945">SNAPSHOT</text><text fill="#000000" font-family="sans-serif" font-size="14" lengthAdjust="spacing" textLength="63" x="587.5" y="278.8008">MONITOR</text><text fill="#000000" font-family="sans-serif" font-size="14" lengthAdjust="spacing" textLength="78" x="587.5" y="295.207">TIMESTAMP</text><line style="stroke:#181818;stroke-width:0.5;" x1="582.5" x2="670.5" y1="302.625" y2="302.625"/></g><g id="elem_GMN8"><path d="M501,44 L501,99.7031 A0,0 0 0 0 501,99.7031 L622.5,99.7031 L626.5,196.67 L630.5,99.7031 L752,99.7031 A0,0 0 0 0 752,99.7031 L752,54 L742,44 L501,44 A0,0 0 0 0 501,44 " fill="#FEFFDD" style="stroke:#181818;stroke-width:0.5;"/><path d="M742,44 L742,54 L752,54 L742,44 " fill="#FEFFDD" style="stroke:#181818;stroke-width:0.5;"/><text fill="#000000" font-family="sans-serif" font-size="13" lengthAdjust="spacing" textLength="197" x="507" y="61.0605">These sections may have different</text><text fill="#000000" font-family="sans-serif" font-size="13" lengthAdjust="spacing" textLength="167" x="507" y="76.2949">names in the final data model</text><text fill="#000000" font-family="sans-serif" font-size="13" lengthAdjust="spacing" textLength="230" x="507" y="91.5293">and need not reflect the eveH5 structure.</text></g><!--class EveMeasureMetadata--><g id="elem_EveMeasureMetadata"><rect codeLine="22" fill="#F1F1F1" height="64.4063" id="EveMeasureMetadata" rx="2.5" ry="2.5" style="stroke:#181818;stroke-width:0.5;" width="169" x="178" y="222"/><ellipse cx="193" cy="238" fill="#ADD1B2" rx="11" ry="11" style="stroke:#181818;stroke-width:1.0;"/><path d="M193.0469,244.2031 C194.5469,244.2031 195.7813,243.6406 196.6875,242.5781 L195.3125,241.0625 C194.7656,241.6563 194.1094,242.0469 193.3125,242.0469 C191.6406,242.0469 190.4844,240.7188 190.4844,238.4375 C190.4844,236.2188 191.6406,234.875 193.2031,234.875 C194.0156,234.875 194.6094,235.1875 195.1406,235.6719 L196.5156,234.125 C195.7656,233.3906 194.6094,232.7188 193.2031,232.7188 C190.25,232.7188 187.9219,234.8594 187.9219,238.5313 C187.9219,242.25 190.2969,244.2031 193.0469,244.2031 Z " fill="#000000"/><text fill="#000000" font-family="sans-serif" font-size="14" lengthAdjust="spacing" textLength="137" x="207" y="242.7852">EveMeasureMetadata</text><line style="stroke:#181818;stroke-width:0.5;" x1="179" x2="346" y1="254" y2="254"/><text fill="#000000" font-family="sans-serif" font-size="14" lengthAdjust="spacing" textLength="70" x="184" y="270.9883">unit : String</text><line style="stroke:#181818;stroke-width:0.5;" x1="179" x2="346" y1="278.4063" y2="278.4063"/></g><!--class EveMonitorMetadata--><g id="elem_EveMonitorMetadata"><rect codeLine="26" fill="#F1F1F1" height="48" id="EveMonitorMetadata" rx="2.5" ry="2.5" style="stroke:#181818;stroke-width:0.5;" width="164" x="382.5" y="230"/><ellipse cx="397.5" cy="246" fill="#ADD1B2" rx="11" ry="11" style="stroke:#181818;stroke-width:1.0;"/><path d="M397.5469,252.2031 C399.0469,252.2031 400.2813,251.6406 401.1875,250.5781 L399.8125,249.0625 C399.2656,249.6563 398.6094,250.0469 397.8125,250.0469 C396.1406,250.0469 394.9844,248.7188 394.9844,246.4375 C394.9844,244.2188 396.1406,242.875 397.7031,242.875 C398.5156,242.875 399.1094,243.1875 399.6406,243.6719 L401.0156,242.125 C400.2656,241.3906 399.1094,240.7188 397.7031,240.7188 C394.75,240.7188 392.4219,242.8594 392.4219,246.5313 C392.4219,250.25 394.7969,252.2031 397.5469,252.2031 Z " fill="#000000"/><text fill="#000000" font-family="sans-serif" font-size="14" lengthAdjust="spacing" textLength="132" x="411.5" y="250.7852">EveMonitorMetadata</text><line style="stroke:#181818;stroke-width:0.5;" x1="383.5" x2="545.5" y1="262" y2="262"/><line style="stroke:#181818;stroke-width:0.5;" x1="383.5" x2="545.5" y1="270" y2="270"/></g><!--class EveMotorMetadata--><g id="elem_EveMotorMetadata"><rect codeLine="29" fill="#F1F1F1" height="48" id="EveMotorMetadata" rx="2.5" ry="2.5" style="stroke:#181818;stroke-width:0.5;" width="153" x="186" y="379"/><ellipse cx="201" cy="395" fill="#ADD1B2" rx="11" ry="11" style="stroke:#181818;stroke-width:1.0;"/><path d="M201.0469,401.2031 C202.5469,401.2031 203.7813,400.6406 204.6875,399.5781 L203.3125,398.0625 C202.7656,398.6563 202.1094,399.0469 201.3125,399.0469 C199.6406,399.0469 198.4844,397.7188 198.4844,395.4375 C198.4844,393.2188 199.6406,391.875 201.2031,391.875 C202.0156,391.875 202.6094,392.1875 203.1406,392.6719 L204.5156,391.125 C203.7656,390.3906 202.6094,389.7188 201.2031,389.7188 C198.25,389.7188 195.9219,391.8594 195.9219,395.5313 C195.9219,399.25 198.2969,401.2031 201.0469,401.2031 Z " fill="#000000"/><text fill="#000000" font-family="sans-serif" font-size="14" lengthAdjust="spacing" textLength="121" x="215" y="399.7852">EveMotorMetadata</text><line style="stroke:#181818;stroke-width:0.5;" x1="187" x2="338" y1="411" y2="411"/><line style="stroke:#181818;stroke-width:0.5;" x1="187" x2="338" y1="419" y2="419"/></g><!--class EveDetectorMetadata--><g id="elem_EveDetectorMetadata"><rect codeLine="32" fill="#F1F1F1" height="64.4063" id="EveDetectorMetadata" rx="2.5" ry="2.5" style="stroke:#181818;stroke-width:0.5;" width="168" x="374.5" y="371"/><ellipse cx="389.5" cy="387" fill="#ADD1B2" rx="11" ry="11" style="stroke:#181818;stroke-width:1.0;"/><path d="M389.5469,393.2031 C391.0469,393.2031 392.2813,392.6406 393.1875,391.5781 L391.8125,390.0625 C391.2656,390.6563 390.6094,391.0469 389.8125,391.0469 C388.1406,391.0469 386.9844,389.7188 386.9844,387.4375 C386.9844,385.2188 388.1406,383.875 389.7031,383.875 C390.5156,383.875 391.1094,384.1875 391.6406,384.6719 L393.0156,383.125 C392.2656,382.3906 391.1094,381.7188 389.7031,381.7188 C386.75,381.7188 384.4219,383.8594 384.4219,387.5313 C384.4219,391.25 386.7969,393.2031 389.5469,393.2031 Z " fill="#000000"/><text fill="#000000" font-family="sans-serif" font-size="14" lengthAdjust="spacing" textLength="136" x="403.5" y="391.7852">EveDetectorMetadata</text><line style="stroke:#181818;stroke-width:0.5;" x1="375.5" x2="541.5" y1="403" y2="403"/><text fill="#000000" font-family="sans-serif" font-size="14" lengthAdjust="spacing" textLength="124" x="380.5" y="419.9883">normalise_id : String</text><line style="stroke:#181818;stroke-width:0.5;" x1="375.5" x2="541.5" y1="427.4063" y2="427.4063"/></g><!--class EveAverageDetectorMetadata--><g id="elem_EveAverageDetectorMetadata"><rect codeLine="36" fill="#F1F1F1" height="113.625" id="EveAverageDetectorMetadata" rx="2.5" ry="2.5" style="stroke:#181818;stroke-width:0.5;" width="219" x="223" y="496.5"/><ellipse cx="238" cy="512.5" fill="#ADD1B2" rx="11" ry="11" style="stroke:#181818;stroke-width:1.0;"/><path d="M238.0469,518.7031 C239.5469,518.7031 240.7813,518.1406 241.6875,517.0781 L240.3125,515.5625 C239.7656,516.1563 239.1094,516.5469 238.3125,516.5469 C236.6406,516.5469 235.4844,515.2188 235.4844,512.9375 C235.4844,510.7188 236.6406,509.375 238.2031,509.375 C239.0156,509.375 239.6094,509.6875 240.1406,510.1719 L241.5156,508.625 C240.7656,507.8906 239.6094,507.2188 238.2031,507.2188 C235.25,507.2188 232.9219,509.3594 232.9219,513.0313 C232.9219,516.75 235.2969,518.7031 238.0469,518.7031 Z " fill="#000000"/><text fill="#000000" font-family="sans-serif" font-size="14" lengthAdjust="spacing" textLength="187" x="252" y="517.2852">EveAverageDetectorMetadata</text><line style="stroke:#181818;stroke-width:0.5;" x1="224" x2="441" y1="528.5" y2="528.5"/><text fill="#000000" font-family="sans-serif" font-size="14" lengthAdjust="spacing" textLength="96" x="229" y="545.4883">n_averages : int</text><text fill="#000000" font-family="sans-serif" font-size="14" lengthAdjust="spacing" textLength="92" x="229" y="561.8945">low_limit : float</text><text fill="#000000" font-family="sans-serif" font-size="14" lengthAdjust="spacing" textLength="115" x="229" y="578.3008">max_attempts : int</text><text fill="#000000" font-family="sans-serif" font-size="14" lengthAdjust="spacing" textLength="128" x="229" y="594.707">max_deviation : float</text><line style="stroke:#181818;stroke-width:0.5;" x1="224" x2="441" y1="602.125" y2="602.125"/></g><g id="elem_GMN16"><path d="M47,495 L47,611.6406 A0,0 0 0 0 47,611.6406 L188,611.6406 A0,0 0 0 0 188,611.6406 L188,557.5 L222.75,553.5 L188,549.5 L188,505 L178,495 L47,495 A0,0 0 0 0 47,495 " fill="#FEFFDD" style="stroke:#181818;stroke-width:0.5;"/><path d="M178,495 L178,505 L188,505 L178,495 " fill="#FEFFDD" style="stroke:#181818;stroke-width:0.5;"/><text fill="#000000" font-family="sans-serif" font-size="13" lengthAdjust="spacing" textLength="120" x="53" y="512.0605">These attributes may</text><text fill="#000000" font-family="sans-serif" font-size="13" lengthAdjust="spacing" textLength="117" x="53" y="527.2949">change for individual</text><text fill="#000000" font-family="sans-serif" font-size="13" lengthAdjust="spacing" textLength="40" x="53" y="542.5293">values.</text><text fill="#000000" font-family="sans-serif" font-size="13" lengthAdjust="spacing" textLength="3" x="53" y="557.7637">&#160;</text><text fill="#000000" font-family="sans-serif" font-size="13" lengthAdjust="spacing" textLength="110" x="53" y="572.998">Is that true even for</text><text fill="#000000" font-family="sans-serif" font-size="13" lengthAdjust="spacing" textLength="97" x="56" y="588.2324">only one detector</text><text fill="#000000" font-family="sans-serif" font-size="13" lengthAdjust="spacing" textLength="116" x="56" y="603.4668">in one scan module?</text></g><!--class EveIntervalDetectorMetadata--><g id="elem_EveIntervalDetectorMetadata"><rect codeLine="44" fill="#F1F1F1" height="64.4063" id="EveIntervalDetectorMetadata" rx="2.5" ry="2.5" style="stroke:#181818;stroke-width:0.5;" width="215" x="477" y="521.5"/><ellipse cx="492" cy="537.5" fill="#ADD1B2" rx="11" ry="11" style="stroke:#181818;stroke-width:1.0;"/><path d="M492.0469,543.7031 C493.5469,543.7031 494.7813,543.1406 495.6875,542.0781 L494.3125,540.5625 C493.7656,541.1563 493.1094,541.5469 492.3125,541.5469 C490.6406,541.5469 489.4844,540.2188 489.4844,537.9375 C489.4844,535.7188 490.6406,534.375 492.2031,534.375 C493.0156,534.375 493.6094,534.6875 494.1406,535.1719 L495.5156,533.625 C494.7656,532.8906 493.6094,532.2188 492.2031,532.2188 C489.25,532.2188 486.9219,534.3594 486.9219,538.0313 C486.9219,541.75 489.2969,543.7031 492.0469,543.7031 Z " fill="#000000"/><text fill="#000000" font-family="sans-serif" font-size="14" lengthAdjust="spacing" textLength="183" x="506" y="542.2852">EveIntervalDetectorMetadata</text><line style="stroke:#181818;stroke-width:0.5;" x1="478" x2="691" y1="553.5" y2="553.5"/><text fill="#000000" font-family="sans-serif" font-size="14" lengthAdjust="spacing" textLength="131" x="483" y="570.4883">trigger_interval : float</text><line style="stroke:#181818;stroke-width:0.5;" x1="478" x2="691" y1="577.9063" y2="577.9063"/></g><!--reverse link EveMetadata to EveData--><g id="link_EveMetadata_EveData"><path codeLine="48" d="M192.8403,145.8964 C161.9703,178.2064 134.76,206.68 112.48,230 " fill="none" id="EveMetadata-backto-EveData" style="stroke:#181818;stroke-width:1.0;"/><polygon fill="#181818" points="201.13,137.22,194.093,138.795,192.8403,145.8964,199.8773,144.3215,201.13,137.22" style="stroke:#181818;stroke-width:1.0;"/></g><!--reverse link EveMetadata to EveMeasureMetadata--><g id="link_EveMetadata_EveMeasureMetadata"><path codeLine="49" d="M262.5,155.22 C262.5,183.9 262.5,198.38 262.5,221.63 " fill="none" id="EveMetadata-backto-EveMeasureMetadata" style="stroke:#181818;stroke-width:1.0;"/><polygon fill="none" points="262.5,137.22,256.5,155.22,268.5,155.22,262.5,137.22" style="stroke:#181818;stroke-width:1.0;"/></g><!--reverse link EveMetadata to EveMonitorMetadata--><g id="link_EveMetadata_EveMonitorMetadata"><path codeLine="50" d="M348.0088,149.1949 C384.2688,181.5049 412.52,206.68 438.69,230 " fill="none" id="EveMetadata-backto-EveMonitorMetadata" style="stroke:#181818;stroke-width:1.0;"/><polygon fill="none" points="334.57,137.22,344.0172,153.6745,352.0005,144.7153,334.57,137.22" style="stroke:#181818;stroke-width:1.0;"/></g><!--reverse link EveMeasureMetadata to EveDetectorMetadata--><g id="link_EveMeasureMetadata_EveDetectorMetadata"><path codeLine="51" d="M318.469,296.9714 C351.729,321.9214 383.75,345.94 416.99,370.87 " fill="none" id="EveMeasureMetadata-backto-EveDetectorMetadata" style="stroke:#181818;stroke-width:1.0;"/><polygon fill="none" points="304.07,286.17,314.8685,301.771,322.0694,292.1717,304.07,286.17" style="stroke:#181818;stroke-width:1.0;"/></g><!--reverse link EveMeasureMetadata to EveMotorMetadata--><g id="link_EveMeasureMetadata_EveMotorMetadata"><path codeLine="52" d="M262.5,304.17 C262.5,331.82 262.5,353.58 262.5,378.59 " fill="none" id="EveMeasureMetadata-backto-EveMotorMetadata" style="stroke:#181818;stroke-width:1.0;"/><polygon fill="none" points="262.5,286.17,256.5,304.17,268.5,304.17,262.5,286.17" style="stroke:#181818;stroke-width:1.0;"/></g><!--reverse link EveDetectorMetadata to EveAverageDetectorMetadata--><g id="link_EveDetectorMetadata_EveAverageDetectorMetadata"><path codeLine="53" d="M420.4443,448.855 C405.4343,466.545 397.83,475.51 380.26,496.21 " fill="none" id="EveDetectorMetadata-backto-EveAverageDetectorMetadata" style="stroke:#181818;stroke-width:1.0;"/><polygon fill="none" points="432.09,435.13,415.8693,444.9731,425.0193,452.737,432.09,435.13" style="stroke:#181818;stroke-width:1.0;"/></g><!--reverse link EveDetectorMetadata to EveIntervalDetectorMetadata--><g id="link_EveDetectorMetadata_EveIntervalDetectorMetadata"><path codeLine="54" d="M496.5586,448.8527 C518.0686,474.1927 536.63,496.08 558.12,521.41 " fill="none" id="EveDetectorMetadata-backto-EveIntervalDetectorMetadata" style="stroke:#181818;stroke-width:1.0;"/><polygon fill="none" points="484.91,435.13,491.9843,452.7355,501.1328,444.9698,484.91,435.13" style="stroke:#181818;stroke-width:1.0;"/></g><!--SRC=[VLF1RgCm4BtxAtnUgRtjfQgqYfHApO6aQZWYeIaCOCcCaJsm6tNxxpiOq4AKb0F2RzxOu_SUXOKGzCk02JAKmA0_bPR7bFf9dzaRgkEQeCKjqWtRDNkWq3dFEL-wAsx0WesZ4Po-r9TInNBqVZhsIv5Zr1-EsRKZ4wMl0my2bWPg3sr6bVDwQcmCUl15Sr4AgM-NdUVvp-dkkD-zxwV5SVTsVZsbSP6SZeVqz1w_qqFo8ipaRJcSNVUaqmO3BZC7tS95Dp2CGrGLUYJEQ9GZQ4EQ6zIL8R0wYjUw4cr6GAKcH7avrXuhAtj5AWxu-bC7zdt1lSV7bGe9GX3eoeUU3F_NSgrQugJa_CB_l2gkIdfRsoFBE9joTDZv5gm9cA-zNpVk1b6yljkVmrGFqcs88sZTxzoQDjwXiWucj8K_EJ1Zs_6QFC8b3WRch4mDipCMArwiaLvlFdh6Q4v6HGDKYm-I3KEb6KpPWxWmWEqnF6QKqI68_20U-3wQG2Cv8-t8NkGbtiwN4inGH481DFhPM_or4k50Z5vslgE235RNw7CpqrRNKEk_xCV3mnBz3VxyTofSfU4sPvi0TID42_Lwsk-uc-oeMu5Pc7S2yMtFFVsK-WS0]--></g></svg>