<?xml version="1.0" encoding="us-ascii" standalone="no"?><svg xmlns="http://www.w3.org/2000/svg" xmlns:xlink="http://www.w3.org/1999/xlink" contentStyleType="text/css" height="649px" preserveAspectRatio="none" style="width:890px;height:649px;background:#FFFFFF;" version="1.1" viewBox="0 0 890 649" width="890px" zoomAndPan="magnify"><defs/><g><!--class EveData--><g id="elem_EveData"><rect codeLine="3" fill="#F1F1F1" height="96.8906" id="EveData" rx="2.5" ry="2.5" style="stroke:#181818;stroke-width:0.5;" width="187" x="329.5" y="7"/><ellipse cx="388.75" cy="23" fill="#ADD1B2" rx="11" ry="11" style="stroke:#181818;stroke-width:1.0;"/><path d="M391.7344,28.6406 Q391.1563,28.9375 390.5156,29.0781 Q389.875,29.2344 389.1719,29.2344 Q386.6563,29.2344 385.3281,27.5938 Q384.0156,25.9375 384.0156,22.8125 Q384.0156,19.6719 385.3281,18.0313 Q386.6563,16.375 389.1719,16.375 Q389.875,16.375 390.5156,16.5313 Q391.1719,16.6719 391.7344,16.9688 L391.7344,19.6875 Q391.0938,19.1094 390.5,18.8438 Q389.9063,18.5781 389.2813,18.5781 Q387.9375,18.5781 387.25,19.6406 Q386.5625,20.7031 386.5625,22.8125 Q386.5625,24.9063 387.25,25.9844 Q387.9375,27.0469 389.2813,27.0469 Q389.9063,27.0469 390.5,26.7813 Q391.0938,26.5 391.7344,25.9219 L391.7344,28.6406 Z " fill="#000000"/><text fill="#000000" font-family="sans-serif" font-size="14" lengthAdjust="spacing" textLength="60" x="409.25" y="27.8467">EveData</text><line style="stroke:#181818;stroke-width:0.5;" x1="330.5" x2="515.5" y1="39" y2="39"/><text fill="#000000" font-family="sans-serif" font-size="14" lengthAdjust="spacing" textLength="175" x="335.5" y="55.9951">metadata : EveMetadata</text><text fill="#000000" font-family="sans-serif" font-size="14" lengthAdjust="spacing" textLength="137" x="335.5" y="72.292">values : np.ndarray</text><text fill="#000000" font-family="sans-serif" font-size="14" lengthAdjust="spacing" textLength="128" x="335.5" y="88.5889">type : DeviceType</text><line style="stroke:#181818;stroke-width:0.5;" x1="330.5" x2="515.5" y1="95.8906" y2="95.8906"/></g><g id="elem_GMN3"><path d="M6,20 L6,90.5313 A0,0 0 0 0 6,90.5313 L294,90.5313 A0,0 0 0 0 294,90.5313 L294,59.5 L329.44,55.5 L294,51.5 L294,30 L284,20 L6,20 A0,0 0 0 0 6,20 " fill="#FEFFDD" style="stroke:#181818;stroke-width:0.5;"/><path d="M284,20 L284,30 L294,30 L284,20 " fill="#FEFFDD" style="stroke:#181818;stroke-width:0.5;"/><text fill="#000000" font-family="sans-serif" font-size="13" lengthAdjust="spacing" textLength="190" x="12" y="37.0669">"values" contains a 1D array.</text><text fill="#000000" font-family="sans-serif" font-size="13" lengthAdjust="spacing" textLength="267" x="12" y="52.1997">For individual values see derived classes</text><text fill="#000000" font-family="sans-serif" font-size="13" lengthAdjust="spacing" textLength="193" x="12" y="67.3325">EveAverageDetectorData and</text><text fill="#000000" font-family="sans-serif" font-size="13" lengthAdjust="spacing" textLength="161" x="12" y="82.4653">EveIntervalDetectorData</text></g><!--class DeviceType--><g id="elem_DeviceType"><rect codeLine="10" fill="#F1F1F1" height="96.8906" id="DeviceType" rx="2.5" ry="2.5" style="stroke:#181818;stroke-width:0.5;" width="116" x="552" y="7"/><ellipse cx="567" cy="23" fill="#EB937F" rx="11" ry="11" style="stroke:#181818;stroke-width:1.0;"/><path d="M571.125,29 L563.3906,29 L563.3906,16.5938 L571.125,16.5938 L571.125,18.75 L565.8438,18.75 L565.8438,21.4375 L570.625,21.4375 L570.625,23.5938 L565.8438,23.5938 L565.8438,26.8438 L571.125,26.8438 L571.125,29 Z " fill="#000000"/><text fill="#000000" font-family="sans-serif" font-size="14" lengthAdjust="spacing" textLength="84" x="581" y="27.8467">DeviceType</text><line style="stroke:#181818;stroke-width:0.5;" x1="553" x2="667" y1="39" y2="39"/><text fill="#000000" font-family="sans-serif" font-size="14" lengthAdjust="spacing" textLength="43" x="558" y="55.9951">motor</text><text fill="#000000" font-family="sans-serif" font-size="14" lengthAdjust="spacing" textLength="60" x="558" y="72.292">detector</text><text fill="#000000" font-family="sans-serif" font-size="14" lengthAdjust="spacing" textLength="95" x="558" y="88.5889">dumb_device</text><line style="stroke:#181818;stroke-width:0.5;" x1="553" x2="667" y1="95.8906" y2="95.8906"/></g><g id="elem_GMN7"><path d="M703,20 L703,51.5 L668.26,55.5 L703,59.5 L703,90.5313 A0,0 0 0 0 703,90.5313 L883,90.5313 A0,0 0 0 0 883,90.5313 L883,30 L873,20 L703,20 A0,0 0 0 0 703,20 " fill="#FEFFDD" style="stroke:#181818;stroke-width:0.5;"/><path d="M873,20 L873,30 L883,30 L873,20 " fill="#FEFFDD" style="stroke:#181818;stroke-width:0.5;"/><text fill="#000000" font-family="sans-serif" font-size="13" lengthAdjust="spacing" textLength="130" x="709" y="37.0669">dumb_device needs</text><text fill="#000000" font-family="sans-serif" font-size="13" lengthAdjust="spacing" textLength="99" x="709" y="52.1997">to be renamed.</text><text fill="#000000" font-family="sans-serif" font-size="13" lengthAdjust="spacing" textLength="147" x="709" y="67.3325">Does it occur in eveH5</text><text fill="#000000" font-family="sans-serif" font-size="13" lengthAdjust="spacing" textLength="155" x="713" y="82.4653">files with data anyway?</text></g><!--class EveMetadata--><g id="elem_EveMetadata"><rect codeLine="17" fill="#F1F1F1" height="48" id="EveMetadata" rx="2.5" ry="2.5" style="stroke:#181818;stroke-width:0.5;" width="125" x="112.5" y="172"/><ellipse cx="127.5" cy="188" fill="#ADD1B2" rx="11" ry="11" style="stroke:#181818;stroke-width:1.0;"/><path d="M130.4844,193.6406 Q129.9063,193.9375 129.2656,194.0781 Q128.625,194.2344 127.9219,194.2344 Q125.4063,194.2344 124.0781,192.5938 Q122.7656,190.9375 122.7656,187.8125 Q122.7656,184.6719 124.0781,183.0313 Q125.4063,181.375 127.9219,181.375 Q128.625,181.375 129.2656,181.5313 Q129.9219,181.6719 130.4844,181.9688 L130.4844,184.6875 Q129.8438,184.1094 129.25,183.8438 Q128.6563,183.5781 128.0313,183.5781 Q126.6875,183.5781 126,184.6406 Q125.3125,185.7031 125.3125,187.8125 Q125.3125,189.9063 126,190.9844 Q126.6875,192.0469 128.0313,192.0469 Q128.6563,192.0469 129.25,191.7813 Q129.8438,191.5 130.4844,190.9219 L130.4844,193.6406 Z " fill="#000000"/><text fill="#000000" font-family="sans-serif" font-size="14" lengthAdjust="spacing" textLength="93" x="141.5" y="192.8467">EveMetadata</text><line style="stroke:#181818;stroke-width:0.5;" x1="113.5" x2="236.5" y1="204" y2="204"/><line style="stroke:#181818;stroke-width:0.5;" x1="113.5" x2="236.5" y1="212" y2="212"/></g><g id="elem_GMN11"><path d="M93,292 L93,332.2656 A0,0 0 0 0 93,332.2656 L257,332.2656 A0,0 0 0 0 257,332.2656 L257,302 L247,292 L179,292 L175,220.07 L171,292 L93,292 A0,0 0 0 0 93,292 " fill="#FEFFDD" style="stroke:#181818;stroke-width:0.5;"/><path d="M247,292 L247,302 L257,302 L247,292 " fill="#FEFFDD" style="stroke:#181818;stroke-width:0.5;"/><text fill="#000000" font-family="sans-serif" font-size="13" lengthAdjust="spacing" textLength="143" x="99" y="309.0669">See separate diagram</text><text fill="#000000" font-family="sans-serif" font-size="13" lengthAdjust="spacing" textLength="120" x="99" y="324.1997">for class hierarchy</text></g><!--class EveMeasureData--><g id="elem_EveMeasureData"><rect codeLine="21" fill="#F1F1F1" height="64.2969" id="EveMeasureData" rx="2.5" ry="2.5" style="stroke:#181818;stroke-width:0.5;" width="301" x="272.5" y="164"/><ellipse cx="358.25" cy="180" fill="#ADD1B2" rx="11" ry="11" style="stroke:#181818;stroke-width:1.0;"/><path d="M361.2344,185.6406 Q360.6563,185.9375 360.0156,186.0781 Q359.375,186.2344 358.6719,186.2344 Q356.1563,186.2344 354.8281,184.5938 Q353.5156,182.9375 353.5156,179.8125 Q353.5156,176.6719 354.8281,175.0313 Q356.1563,173.375 358.6719,173.375 Q359.375,173.375 360.0156,173.5313 Q360.6719,173.6719 361.2344,173.9688 L361.2344,176.6875 Q360.5938,176.1094 360,175.8438 Q359.4063,175.5781 358.7813,175.5781 Q357.4375,175.5781 356.75,176.6406 Q356.0625,177.7031 356.0625,179.8125 Q356.0625,181.9063 356.75,182.9844 Q357.4375,184.0469 358.7813,184.0469 Q359.4063,184.0469 360,183.7813 Q360.5938,183.5 361.2344,182.9219 L361.2344,185.6406 Z " fill="#000000"/><text fill="#000000" font-family="sans-serif" font-size="14" lengthAdjust="spacing" textLength="121" x="378.75" y="184.8467">EveMeasureData</text><line style="stroke:#181818;stroke-width:0.5;" x1="273.5" x2="572.5" y1="196" y2="196"/><text fill="#000000" font-family="sans-serif" font-size="14" lengthAdjust="spacing" textLength="289" x="278.5" y="212.9951">position_counter : np.ndarray(dtype=int)</text><line style="stroke:#181818;stroke-width:0.5;" x1="273.5" x2="572.5" y1="220.2969" y2="220.2969"/></g><!--class EveMonitorData--><g id="elem_EveMonitorData"><rect codeLine="25" fill="#F1F1F1" height="64.2969" id="EveMonitorData" rx="2.5" ry="2.5" style="stroke:#181818;stroke-width:0.5;" width="271" x="608.5" y="164"/><ellipse cx="682.75" cy="180" fill="#ADD1B2" rx="11" ry="11" style="stroke:#181818;stroke-width:1.0;"/><path d="M685.7344,185.6406 Q685.1563,185.9375 684.5156,186.0781 Q683.875,186.2344 683.1719,186.2344 Q680.6563,186.2344 679.3281,184.5938 Q678.0156,182.9375 678.0156,179.8125 Q678.0156,176.6719 679.3281,175.0313 Q680.6563,173.375 683.1719,173.375 Q683.875,173.375 684.5156,173.5313 Q685.1719,173.6719 685.7344,173.9688 L685.7344,176.6875 Q685.0938,176.1094 684.5,175.8438 Q683.9063,175.5781 683.2813,175.5781 Q681.9375,175.5781 681.25,176.6406 Q680.5625,177.7031 680.5625,179.8125 Q680.5625,181.9063 681.25,182.9844 Q681.9375,184.0469 683.2813,184.0469 Q683.9063,184.0469 684.5,183.7813 Q685.0938,183.5 685.7344,182.9219 L685.7344,185.6406 Z " fill="#000000"/><text fill="#000000" font-family="sans-serif" font-size="14" lengthAdjust="spacing" textLength="114" x="703.25" y="184.8467">EveMonitorData</text><line style="stroke:#181818;stroke-width:0.5;" x1="609.5" x2="878.5" y1="196" y2="196"/><text fill="#000000" font-family="sans-serif" font-size="14" lengthAdjust="spacing" textLength="259" x="614.5" y="212.9951">milliseconds : np.ndarray(dtype=int)</text><line style="stroke:#181818;stroke-width:0.5;" x1="609.5" x2="878.5" y1="220.2969" y2="220.2969"/></g><!--class EveMotorData--><g id="elem_EveMotorData"><rect codeLine="29" fill="#F1F1F1" height="48" id="EveMotorData" rx="2.5" ry="2.5" style="stroke:#181818;stroke-width:0.5;" width="133" x="324.5" y="288"/><ellipse cx="339.5" cy="304" fill="#ADD1B2" rx="11" ry="11" style="stroke:#181818;stroke-width:1.0;"/><path d="M342.4844,309.6406 Q341.9063,309.9375 341.2656,310.0781 Q340.625,310.2344 339.9219,310.2344 Q337.4063,310.2344 336.0781,308.5938 Q334.7656,306.9375 334.7656,303.8125 Q334.7656,300.6719 336.0781,299.0313 Q337.4063,297.375 339.9219,297.375 Q340.625,297.375 341.2656,297.5313 Q341.9219,297.6719 342.4844,297.9688 L342.4844,300.6875 Q341.8438,300.1094 341.25,299.8438 Q340.6563,299.5781 340.0313,299.5781 Q338.6875,299.5781 338,300.6406 Q337.3125,301.7031 337.3125,303.8125 Q337.3125,305.9063 338,306.9844 Q338.6875,308.0469 340.0313,308.0469 Q340.6563,308.0469 341.25,307.7813 Q341.8438,307.5 342.4844,306.9219 L342.4844,309.6406 Z " fill="#000000"/><text fill="#000000" font-family="sans-serif" font-size="14" lengthAdjust="spacing" textLength="101" x="353.5" y="308.8467">EveMotorData</text><line style="stroke:#181818;stroke-width:0.5;" x1="325.5" x2="456.5" y1="320" y2="320"/><line style="stroke:#181818;stroke-width:0.5;" x1="325.5" x2="456.5" y1="328" y2="328"/></g><!--class EveDetectorData--><g id="elem_EveDetectorData"><rect codeLine="32" fill="#F1F1F1" height="48" id="EveDetectorData" rx="2.5" ry="2.5" style="stroke:#181818;stroke-width:0.5;" width="154" x="493" y="288"/><ellipse cx="508" cy="304" fill="#ADD1B2" rx="11" ry="11" style="stroke:#181818;stroke-width:1.0;"/><path d="M510.9844,309.6406 Q510.4063,309.9375 509.7656,310.0781 Q509.125,310.2344 508.4219,310.2344 Q505.9063,310.2344 504.5781,308.5938 Q503.2656,306.9375 503.2656,303.8125 Q503.2656,300.6719 504.5781,299.0313 Q505.9063,297.375 508.4219,297.375 Q509.125,297.375 509.7656,297.5313 Q510.4219,297.6719 510.9844,297.9688 L510.9844,300.6875 Q510.3438,300.1094 509.75,299.8438 Q509.1563,299.5781 508.5313,299.5781 Q507.1875,299.5781 506.5,300.6406 Q505.8125,301.7031 505.8125,303.8125 Q505.8125,305.9063 506.5,306.9844 Q507.1875,308.0469 508.5313,308.0469 Q509.1563,308.0469 509.75,307.7813 Q510.3438,307.5 510.9844,306.9219 L510.9844,309.6406 Z " fill="#000000"/><text fill="#000000" font-family="sans-serif" font-size="14" lengthAdjust="spacing" textLength="122" x="522" y="308.8467">EveDetectorData</text><line style="stroke:#181818;stroke-width:0.5;" x1="494" x2="646" y1="320" y2="320"/><line style="stroke:#181818;stroke-width:0.5;" x1="494" x2="646" y1="328" y2="328"/></g><!--class EveAverageDetectorData--><g id="elem_EveAverageDetectorData"><rect codeLine="35" fill="#F1F1F1" height="145.7813" id="EveAverageDetectorData" rx="2.5" ry="2.5" style="stroke:#181818;stroke-width:0.5;" width="246" x="310" y="396"/><ellipse cx="339.4" cy="412" fill="#ADD1B2" rx="11" ry="11" style="stroke:#181818;stroke-width:1.0;"/><path d="M342.3844,417.6406 Q341.8063,417.9375 341.1656,418.0781 Q340.525,418.2344 339.8219,418.2344 Q337.3063,418.2344 335.9781,416.5938 Q334.6656,414.9375 334.6656,411.8125 Q334.6656,408.6719 335.9781,407.0313 Q337.3063,405.375 339.8219,405.375 Q340.525,405.375 341.1656,405.5313 Q341.8219,405.6719 342.3844,405.9688 L342.3844,408.6875 Q341.7438,408.1094 341.15,407.8438 Q340.5563,407.5781 339.9313,407.5781 Q338.5875,407.5781 337.9,408.6406 Q337.2125,409.7031 337.2125,411.8125 Q337.2125,413.9063 337.9,414.9844 Q338.5875,416.0469 339.9313,416.0469 Q340.5563,416.0469 341.15,415.7813 Q341.7438,415.5 342.3844,414.9219 L342.3844,417.6406 Z " fill="#000000"/><text fill="#000000" font-family="sans-serif" font-size="14" lengthAdjust="spacing" textLength="182" x="356.6" y="416.8467">EveAverageDetectorData</text><line style="stroke:#181818;stroke-width:0.5;" x1="311" x2="555" y1="428" y2="428"/><text fill="#000000" font-family="sans-serif" font-size="14" lengthAdjust="spacing" textLength="181" x="316" y="444.9951">raw_values : raggedarray</text><text fill="#000000" font-family="sans-serif" font-size="14" lengthAdjust="spacing" textLength="234" x="316" y="461.292">attempts : np.ndarray(dtype=int)</text><line style="stroke:#181818;stroke-width:0.5;" x1="311" x2="555" y1="468.5938" y2="468.5938"/><text fill="#000000" font-family="sans-serif" font-size="14" lengthAdjust="spacing" textLength="51" x="316" y="485.5889">mean()</text><text fill="#000000" font-family="sans-serif" font-size="14" lengthAdjust="spacing" textLength="31" x="316" y="501.8857">std()</text><text fill="#000000" font-family="sans-serif" font-size="14" lengthAdjust="spacing" textLength="131" x="316" y="518.1826">averaged_values()</text><text fill="#000000" font-family="sans-serif" font-size="14" lengthAdjust="spacing" textLength="121" x="316" y="534.4795">has_raw_values()</text></g><g id="elem_GMN19"><path d="M218.5,602 L218.5,642.2656 A0,0 0 0 0 218.5,642.2656 L399.5,642.2656 A0,0 0 0 0 399.5,642.2656 L399.5,612 L389.5,602 L328.71,602 L373.54,542.4 L320.71,602 L218.5,602 A0,0 0 0 0 218.5,602 " fill="#FEFFDD" style="stroke:#181818;stroke-width:0.5;"/><path d="M389.5,602 L389.5,612 L399.5,612 L389.5,602 " fill="#FEFFDD" style="stroke:#181818;stroke-width:0.5;"/><text fill="#000000" font-family="sans-serif" font-size="13" lengthAdjust="spacing" textLength="154" x="224.5" y="619.0669">How does mean() differ</text><text fill="#000000" font-family="sans-serif" font-size="13" lengthAdjust="spacing" textLength="160" x="224.5" y="634.1997">from values in EveData?</text></g><g id="elem_GMN22"><path d="M435,602 L435,642.2656 A0,0 0 0 0 435,642.2656 L681,642.2656 A0,0 0 0 0 681,642.2656 L681,612 L671,602 L546.16,602 L492.94,542.4 L538.16,602 L435,602 A0,0 0 0 0 435,602 " fill="#FEFFDD" style="stroke:#181818;stroke-width:0.5;"/><path d="M671,602 L671,612 L681,612 L671,602 " fill="#FEFFDD" style="stroke:#181818;stroke-width:0.5;"/><text fill="#000000" font-family="sans-serif" font-size="13" lengthAdjust="spacing" textLength="203" x="441" y="619.0669">averaged_values() returns only</text><text fill="#000000" font-family="sans-serif" font-size="13" lengthAdjust="spacing" textLength="225" x="441" y="634.1997">those values used to average over</text></g><!--class EveIntervalDetectorData--><g id="elem_EveIntervalDetectorData"><rect codeLine="46" fill="#F1F1F1" height="129.4844" id="EveIntervalDetectorData" rx="2.5" ry="2.5" style="stroke:#181818;stroke-width:0.5;" width="230" x="591" y="404.5"/><ellipse cx="615.9" cy="420.5" fill="#ADD1B2" rx="11" ry="11" style="stroke:#181818;stroke-width:1.0;"/><path d="M618.8844,426.1406 Q618.3063,426.4375 617.6656,426.5781 Q617.025,426.7344 616.3219,426.7344 Q613.8063,426.7344 612.4781,425.0938 Q611.1656,423.4375 611.1656,420.3125 Q611.1656,417.1719 612.4781,415.5313 Q613.8063,413.875 616.3219,413.875 Q617.025,413.875 617.6656,414.0313 Q618.3219,414.1719 618.8844,414.4688 L618.8844,417.1875 Q618.2438,416.6094 617.65,416.3438 Q617.0563,416.0781 616.4313,416.0781 Q615.0875,416.0781 614.4,417.1406 Q613.7125,418.2031 613.7125,420.3125 Q613.7125,422.4063 614.4,423.4844 Q615.0875,424.5469 616.4313,424.5469 Q617.0563,424.5469 617.65,424.2813 Q618.2438,424 618.8844,423.4219 L618.8844,426.1406 Z " fill="#000000"/><text fill="#000000" font-family="sans-serif" font-size="14" lengthAdjust="spacing" textLength="176" x="632.1" y="425.3467">EveIntervalDetectorData</text><line style="stroke:#181818;stroke-width:0.5;" x1="592" x2="820" y1="436.5" y2="436.5"/><text fill="#000000" font-family="sans-serif" font-size="14" lengthAdjust="spacing" textLength="181" x="597" y="453.4951">raw_values : raggedarray</text><text fill="#000000" font-family="sans-serif" font-size="14" lengthAdjust="spacing" textLength="218" x="597" y="469.792">counts : np.ndarray(dtype=int)</text><line style="stroke:#181818;stroke-width:0.5;" x1="592" x2="820" y1="477.0938" y2="477.0938"/><text fill="#000000" font-family="sans-serif" font-size="14" lengthAdjust="spacing" textLength="51" x="597" y="494.0889">mean()</text><text fill="#000000" font-family="sans-serif" font-size="14" lengthAdjust="spacing" textLength="31" x="597" y="510.3857">std()</text><text fill="#000000" font-family="sans-serif" font-size="14" lengthAdjust="spacing" textLength="121" x="597" y="526.6826">has_raw_values()</text></g><!--reverse link EveData to EveMetadata--><g id="link_EveData_EveMetadata"><path codeLine="54" d="M327.1736,110.012 C286.1236,132.942 249.27,153.52 216.29,171.94 " fill="none" id="EveData-backto-EveMetadata" style="stroke:#181818;stroke-width:1.0;"/><polygon fill="#181818" points="337.65,104.16,330.4612,103.5939,327.1736,110.012,334.3625,110.5781,337.65,104.16" style="stroke:#181818;stroke-width:1.0;"/></g><!--reverse link EveData to EveMeasureData--><g id="link_EveData_EveMeasureData"><path codeLine="55" d="M423,122.16 C423,141.88 423,146.2 423,163.77 " fill="none" id="EveData-backto-EveMeasureData" style="stroke:#181818;stroke-width:1.0;"/><polygon fill="none" points="423,104.16,417,122.16,429,122.16,423,104.16" style="stroke:#181818;stroke-width:1.0;"/></g><!--reverse link EveData to EveMonitorData--><g id="link_EveData_EveMonitorData"><path codeLine="56" d="M533.2368,104.062 C582.8268,125.462 626.25,144.2 672.13,163.99 " fill="none" id="EveData-backto-EveMonitorData" style="stroke:#181818;stroke-width:1.0;"/><polygon fill="none" points="516.71,96.93,530.8595,109.5709,535.6141,98.553,516.71,96.93" style="stroke:#181818;stroke-width:1.0;"/></g><!--reverse link EveMeasureData to EveMotorData--><g id="link_EveMeasureData_EveMotorData"><path codeLine="57" d="M409.3903,245.4788 C404.0903,264.3388 402.33,270.65 397.5,287.84 " fill="none" id="EveMeasureData-backto-EveMotorData" style="stroke:#181818;stroke-width:1.0;"/><polygon fill="none" points="414.26,228.15,403.6141,243.8555,415.1666,247.102,414.26,228.15" style="stroke:#181818;stroke-width:1.0;"/></g><!--reverse link EveMeasureData to EveDetectorData--><g id="link_EveMeasureData_EveDetectorData"><path codeLine="58" d="M477.3919,239.1835 C501.7019,258.0435 517.97,270.65 540.14,287.84 " fill="none" id="EveMeasureData-backto-EveDetectorData" style="stroke:#181818;stroke-width:1.0;"/><polygon fill="none" points="463.17,228.15,473.714,243.9241,481.0697,234.4429,463.17,228.15" style="stroke:#181818;stroke-width:1.0;"/></g><!--reverse link EveDetectorData to EveAverageDetectorData--><g id="link_EveDetectorData_EveAverageDetectorData"><path codeLine="59" d="M537.5677,349.6955 C523.4577,365.6555 515.82,374.3 496.74,395.88 " fill="none" id="EveDetectorData-backto-EveAverageDetectorData" style="stroke:#181818;stroke-width:1.0;"/><polygon fill="none" points="549.49,336.21,533.0725,345.7214,542.0628,353.6696,549.49,336.21" style="stroke:#181818;stroke-width:1.0;"/></g><!--reverse link EveDetectorData to EveIntervalDetectorData--><g id="link_EveDetectorData_EveIntervalDetectorData"><path codeLine="60" d="M602.2337,349.7383 C618.0937,367.8083 629.02,380.27 650.19,404.4 " fill="none" id="EveDetectorData-backto-EveIntervalDetectorData" style="stroke:#181818;stroke-width:1.0;"/><polygon fill="none" points="590.36,336.21,597.7243,353.6962,606.7432,345.7804,590.36,336.21" style="stroke:#181818;stroke-width:1.0;"/></g><!--SRC=[dLHDRzim3BtxLn2zB1tGOZtq4cme1dX3TzXfEmO868kEYTcI8T4EZAx_VVI76ZjDi6w-MEAN7lcUz2xyObkZnmfCpN1t_o59iX93W2yjfIW8JmdeLv6WwRVhtl5zsWsk5ik6WZfiVMiDUe_TO9Uk9hMcr796FtMJF2VM2K59kQpXQioxWinPGRO14EvI6F9lD_Qhyy3MSCkcmJ8U4eZ0aEUM30mmAMoi0lhSaiSzfIIKYVC3SBHcy7spGbxpvyua8TjKCsonJQS1myfCqUEcgNPRCmJ79Zpl2-rYvW5BP1IEEDYfdonMPBIJr2bm5d1PrlGz0RNqUB-na7EfdWDB0MO4t1smUvWH4EUiwAPZTqx4LMlueOC8r1EdHiEuLmOtDjUXZSa5wq1yLdIBQXWQFsVrAMSgpJFKBh2mizlCDVsq5cIkJC_a9xPohIXcvPpbEEjbkOhBaWCfiIQyiTInqDo-u7FfEiVuYCBZOVkYIOtPqqoK4IAAK5NBPNYZwD6kncKGCwrmFDXCPqpM0iFsUF3g-fIlHtS0qmjXhAcKvJbvPSoxAefRfJ5TkeTvChZyGiFhrs1KTz9ulKpEbfrgiN21OlqcwArHTKv9uFG_c-YvU_8l8nsqyny3FJEw93u-xszk5kzDj7_y7HqladxjE-epEL7_CUGl0OiturIGCUWCCnTZppv6Vm00]--></g></svg>