<?xml version="1.0" encoding="us-ascii" standalone="no"?><svg xmlns="http://www.w3.org/2000/svg" xmlns:xlink="http://www.w3.org/1999/xlink" contentStyleType="text/css" height="368px" preserveAspectRatio="none" style="width:447px;height:368px;background:#FFFFFF;" version="1.1" viewBox="0 0 447 368" width="447px" zoomAndPan="magnify"><defs/><g><!--class SCML--><g id="elem_SCML"><rect codeLine="2" fill="#F1F1F1" height="146.4375" id="SCML" rx="2.5" ry="2.5" style="stroke:#181818;stroke-width:0.5;" width="113" x="129.5" y="7"/><ellipse cx="164.3" cy="23" fill="#ADD1B2" rx="11" ry="11" style="stroke:#181818;stroke-width:1.0;"/><path d="M164.3469,29.2031 C165.8469,29.2031 167.0813,28.6406 167.9875,27.5781 L166.6125,26.0625 C166.0656,26.6563 165.4094,27.0469 164.6125,27.0469 C162.9406,27.0469 161.7844,25.7188 161.7844,23.4375 C161.7844,21.2188 162.9406,19.875 164.5031,19.875 C165.3156,19.875 165.9094,20.1875 166.4406,20.6719 L167.8156,19.125 C167.0656,18.3906 165.9094,17.7188 164.5031,17.7188 C161.55,17.7188 159.2219,19.8594 159.2219,23.5313 C159.2219,27.25 161.5969,29.2031 164.3469,29.2031 Z " fill="#000000"/><text fill="#000000" font-family="sans-serif" font-size="14" lengthAdjust="spacing" textLength="37" x="182.7" y="27.7852">SCML</text><line style="stroke:#181818;stroke-width:0.5;" x1="130.5" x2="241.5" y1="39" y2="39"/><text fill="#000000" font-family="sans-serif" font-size="14" lengthAdjust="spacing" textLength="95" x="135.5" y="55.9883">location : string</text><text fill="#000000" font-family="sans-serif" font-size="14" lengthAdjust="spacing" textLength="90" x="135.5" y="72.3945">version : string</text><text fill="#000000" font-family="sans-serif" font-size="14" lengthAdjust="spacing" textLength="84" x="135.5" y="88.8008">author: string</text><text fill="#000000" font-family="sans-serif" font-size="14" lengthAdjust="spacing" textLength="70" x="135.5" y="105.207">scan : Scan</text><text fill="#000000" font-family="sans-serif" font-size="14" lengthAdjust="spacing" textLength="80" x="135.5" y="121.6133">setup : Setup</text><text fill="#000000" font-family="sans-serif" font-size="14" lengthAdjust="spacing" textLength="101" x="135.5" y="138.0195">plugins : Plugin[]</text><line style="stroke:#181818;stroke-width:0.5;" x1="130.5" x2="241.5" y1="145.4375" y2="145.4375"/></g><!--class Scan--><g id="elem_Scan"><rect fill="#F1F1F1" height="48" id="Scan" rx="2.5" ry="2.5" style="stroke:#181818;stroke-width:0.5;" width="63" x="38.5" y="213"/><ellipse cx="53.5" cy="229" fill="#ADD1B2" rx="11" ry="11" style="stroke:#181818;stroke-width:1.0;"/><path d="M53.5469,235.2031 C55.0469,235.2031 56.2813,234.6406 57.1875,233.5781 L55.8125,232.0625 C55.2656,232.6563 54.6094,233.0469 53.8125,233.0469 C52.1406,233.0469 50.9844,231.7188 50.9844,229.4375 C50.9844,227.2188 52.1406,225.875 53.7031,225.875 C54.5156,225.875 55.1094,226.1875 55.6406,226.6719 L57.0156,225.125 C56.2656,224.3906 55.1094,223.7188 53.7031,223.7188 C50.75,223.7188 48.4219,225.8594 48.4219,229.5313 C48.4219,233.25 50.7969,235.2031 53.5469,235.2031 Z " fill="#000000"/><text fill="#000000" font-family="sans-serif" font-size="14" lengthAdjust="spacing" textLength="31" x="67.5" y="233.7852">Scan</text><line style="stroke:#181818;stroke-width:0.5;" x1="39.5" x2="100.5" y1="245" y2="245"/><line style="stroke:#181818;stroke-width:0.5;" x1="39.5" x2="100.5" y1="253" y2="253"/></g><!--class Setup--><g id="elem_Setup"><rect fill="#F1F1F1" height="48" id="Setup" rx="2.5" ry="2.5" style="stroke:#181818;stroke-width:0.5;" width="68" x="152" y="213"/><ellipse cx="167" cy="229" fill="#ADD1B2" rx="11" ry="11" style="stroke:#181818;stroke-width:1.0;"/><path d="M167.0469,235.2031 C168.5469,235.2031 169.7813,234.6406 170.6875,233.5781 L169.3125,232.0625 C168.7656,232.6563 168.1094,233.0469 167.3125,233.0469 C165.6406,233.0469 164.4844,231.7188 164.4844,229.4375 C164.4844,227.2188 165.6406,225.875 167.2031,225.875 C168.0156,225.875 168.6094,226.1875 169.1406,226.6719 L170.5156,225.125 C169.7656,224.3906 168.6094,223.7188 167.2031,223.7188 C164.25,223.7188 161.9219,225.8594 161.9219,229.5313 C161.9219,233.25 164.2969,235.2031 167.0469,235.2031 Z " fill="#000000"/><text fill="#000000" font-family="sans-serif" font-size="14" lengthAdjust="spacing" textLength="36" x="181" y="233.7852">Setup</text><line style="stroke:#181818;stroke-width:0.5;" x1="153" x2="219" y1="245" y2="245"/><line style="stroke:#181818;stroke-width:0.5;" x1="153" x2="219" y1="253" y2="253"/></g><!--class Plugin--><g id="elem_Plugin"><rect fill="#F1F1F1" height="48" id="Plugin" rx="2.5" ry="2.5" style="stroke:#181818;stroke-width:0.5;" width="71" x="268.5" y="213"/><ellipse cx="283.5" cy="229" fill="#ADD1B2" rx="11" ry="11" style="stroke:#181818;stroke-width:1.0;"/><path d="M283.5469,235.2031 C285.0469,235.2031 286.2813,234.6406 287.1875,233.5781 L285.8125,232.0625 C285.2656,232.6563 284.6094,233.0469 283.8125,233.0469 C282.1406,233.0469 280.9844,231.7188 280.9844,229.4375 C280.9844,227.2188 282.1406,225.875 283.7031,225.875 C284.5156,225.875 285.1094,226.1875 285.6406,226.6719 L287.0156,225.125 C286.2656,224.3906 285.1094,223.7188 283.7031,223.7188 C280.75,223.7188 278.4219,225.8594 278.4219,229.5313 C278.4219,233.25 280.7969,235.2031 283.5469,235.2031 Z " fill="#000000"/><text fill="#000000" font-family="sans-serif" font-size="14" lengthAdjust="spacing" textLength="39" x="297.5" y="233.7852">Plugin</text><line style="stroke:#181818;stroke-width:0.5;" x1="269.5" x2="338.5" y1="245" y2="245"/><line style="stroke:#181818;stroke-width:0.5;" x1="269.5" x2="338.5" y1="253" y2="253"/></g><path d="M278,39.5 L278,70.9688 L219.5,84.0156 L278,78.9688 L278,110.4375 A0,0 0 0 0 278,110.4375 L440,110.4375 A0,0 0 0 0 440,110.4375 L440,49.5 L430,39.5 L278,39.5 A0,0 0 0 0 278,39.5 " fill="#FEFFDD" style="stroke:#181818;stroke-width:0.5;"/><path d="M430,39.5 L430,49.5 L440,49.5 L430,39.5 " fill="#FEFFDD" style="stroke:#181818;stroke-width:0.5;"/><text fill="#000000" font-family="sans-serif" font-size="13" lengthAdjust="spacing" textLength="124" x="284" y="56.5605">The author attribute is</text><text fill="#000000" font-family="sans-serif" font-size="13" lengthAdjust="spacing" textLength="135" x="284" y="71.7949">not present in the SCML</text><text fill="#000000" font-family="sans-serif" font-size="13" lengthAdjust="spacing" textLength="141" x="284" y="87.0293">file, but in the HDF5 layer</text><text fill="#000000" font-family="sans-serif" font-size="13" lengthAdjust="spacing" textLength="92" x="284" y="102.2637">of an eveH5 file.</text><g id="elem_GMN11"><path d="M6,321 L6,361.4688 A0,0 0 0 0 6,361.4688 L102,361.4688 A0,0 0 0 0 102,361.4688 L102,331 L92,321 L61.03,321 L66.37,261.15 L53.03,321 L6,321 A0,0 0 0 0 6,321 " fill="#FEFFDD" style="stroke:#181818;stroke-width:0.5;"/><path d="M92,321 L92,331 L102,331 L92,321 " fill="#FEFFDD" style="stroke:#181818;stroke-width:0.5;"/><text fill="#000000" font-family="sans-serif" font-size="13" lengthAdjust="spacing" textLength="75" x="12" y="338.0605">See separate</text><text fill="#000000" font-family="sans-serif" font-size="13" lengthAdjust="spacing" textLength="73" x="12" y="353.2949">scan module</text></g><g id="elem_GMN14"><path d="M137,321 L137,361.4688 A0,0 0 0 0 137,361.4688 L235,361.4688 A0,0 0 0 0 235,361.4688 L235,331 L225,321 L190,321 L186,261.15 L182,321 L137,321 A0,0 0 0 0 137,321 " fill="#FEFFDD" style="stroke:#181818;stroke-width:0.5;"/><path d="M225,321 L225,331 L235,331 L225,321 " fill="#FEFFDD" style="stroke:#181818;stroke-width:0.5;"/><text fill="#000000" font-family="sans-serif" font-size="13" lengthAdjust="spacing" textLength="75" x="143" y="338.0605">See separate</text><text fill="#000000" font-family="sans-serif" font-size="13" lengthAdjust="spacing" textLength="77" x="143" y="353.2949">setup module</text></g><g id="elem_GMN17"><path d="M270,321 L270,361.4688 A0,0 0 0 0 270,361.4688 L366,361.4688 A0,0 0 0 0 366,361.4688 L366,331 L356,321 L319.35,321 L307.18,261.15 L311.35,321 L270,321 A0,0 0 0 0 270,321 " fill="#FEFFDD" style="stroke:#181818;stroke-width:0.5;"/><path d="M356,321 L356,331 L366,331 L356,321 " fill="#FEFFDD" style="stroke:#181818;stroke-width:0.5;"/><text fill="#000000" font-family="sans-serif" font-size="13" lengthAdjust="spacing" textLength="75" x="276" y="338.0605">See separate</text><text fill="#000000" font-family="sans-serif" font-size="13" lengthAdjust="spacing" textLength="46" x="276" y="353.2949">diagram</text></g><!--reverse link SCML to Scan--><g id="link_SCML_Scan"><path codeLine="10" d="M124.8892,162.6569 C108.6692,184.3269 99.23,196.95 87.26,212.94 " fill="none" id="SCML-backto-Scan" style="stroke:#181818;stroke-width:1.0;"/><polygon fill="#181818" points="132.08,153.05,125.2823,155.4565,124.8892,162.6569,131.6869,160.2504,132.08,153.05" style="stroke:#181818;stroke-width:1.0;"/></g><!--reverse link SCML to Setup--><g id="link_SCML_Setup"><path codeLine="11" d="M186,165.05 C186,186.72 186,196.95 186,212.94 " fill="none" id="SCML-backto-Setup" style="stroke:#181818;stroke-width:1.0;"/><polygon fill="#181818" points="186,153.05,182,159.05,186,165.05,190,159.05,186,153.05" style="stroke:#181818;stroke-width:1.0;"/></g><!--reverse link SCML to Plugin--><g id="link_SCML_Plugin"><path codeLine="12" d="M248.1196,162.5974 C264.6196,184.2674 274.27,196.95 286.44,212.94 " fill="none" id="SCML-backto-Plugin" style="stroke:#181818;stroke-width:1.0;"/><polygon fill="#181818" points="240.85,153.05,241.3023,160.2469,248.1196,162.5974,247.6673,155.4005,240.85,153.05" style="stroke:#181818;stroke-width:1.0;"/><text fill="#000000" font-family="sans-serif" font-size="13" lengthAdjust="spacing" textLength="7" x="274.0434" y="201.9433">n</text></g><!--SRC=[TL2nJWCn3Dtp5LR7gcNhSYiLwW0IKjaAWtldtaNA9QV4gOGG_rx7kOAWaCNnytlsirk7AS7-_kaHFWp8Sw55ji530ucZzRsYPuhf1iJCGuW_eDHY8Uqbr9muJmKeKP79vTxw9DYp_WvlvjFe_ELwNONVcQg-qeLVp29ZV622QFk18PpKVzDKFphbPQ3P7Y2BlMCMkarQ4obCaH9v1kk1XLhqMZjPHoiGzhMospvimE4xrRuoInQaC-qsohqpvBlIaMPBny0SHlKagvJ5IOumOKIcLw_d6KENtH_yikoDGE_tZwBUuhUaizX77Cq5]--></g></svg>