<?xml version="1.0" encoding="us-ascii" standalone="no"?><svg xmlns="http://www.w3.org/2000/svg" xmlns:xlink="http://www.w3.org/1999/xlink" contentStyleType="text/css" height="385px" preserveAspectRatio="none" style="width:540px;height:385px;background:#FFFFFF;" version="1.1" viewBox="0 0 540 385" width="540px" zoomAndPan="magnify"><defs/><g><!--class SCML--><g id="elem_SCML"><rect codeLine="2" fill="#F1F1F1" height="162.8438" id="SCML" rx="2.5" ry="2.5" style="stroke:#181818;stroke-width:0.5;" width="141" x="198.5" y="7"/><ellipse cx="246.25" cy="23" fill="#ADD1B2" rx="11" ry="11" style="stroke:#181818;stroke-width:1.0;"/><path d="M246.2969,29.2031 C247.7969,29.2031 249.0313,28.6406 249.9375,27.5781 L248.5625,26.0625 C248.0156,26.6563 247.3594,27.0469 246.5625,27.0469 C244.8906,27.0469 243.7344,25.7188 243.7344,23.4375 C243.7344,21.2188 244.8906,19.875 246.4531,19.875 C247.2656,19.875 247.8594,20.1875 248.3906,20.6719 L249.7656,19.125 C249.0156,18.3906 247.8594,17.7188 246.4531,17.7188 C243.5,17.7188 241.1719,19.8594 241.1719,23.5313 C241.1719,27.25 243.5469,29.2031 246.2969,29.2031 Z " fill="#000000"/><text fill="#000000" font-family="sans-serif" font-size="14" lengthAdjust="spacing" textLength="37" x="266.75" y="27.7852">SCML</text><line style="stroke:#181818;stroke-width:0.5;" x1="199.5" x2="338.5" y1="39" y2="39"/><text fill="#000000" font-family="sans-serif" font-size="14" lengthAdjust="spacing" textLength="95" x="204.5" y="55.9883">location : string</text><text fill="#000000" font-family="sans-serif" font-size="14" lengthAdjust="spacing" textLength="90" x="204.5" y="72.3945">version : string</text><text fill="#000000" font-family="sans-serif" font-size="14" lengthAdjust="spacing" textLength="70" x="204.5" y="88.8008">scan : Scan</text><text fill="#000000" font-family="sans-serif" font-size="14" lengthAdjust="spacing" textLength="101" x="204.5" y="105.207">plugins : Plugin[]</text><text fill="#000000" font-family="sans-serif" font-size="14" lengthAdjust="spacing" textLength="129" x="204.5" y="121.6133">detectors : Detector[]</text><text fill="#000000" font-family="sans-serif" font-size="14" lengthAdjust="spacing" textLength="100" x="204.5" y="138.0195">motors : Motor[]</text><text fill="#000000" font-family="sans-serif" font-size="14" lengthAdjust="spacing" textLength="122" x="204.5" y="154.4258">monitors : Monitor[]</text><line style="stroke:#181818;stroke-width:0.5;" x1="199.5" x2="338.5" y1="161.8438" y2="161.8438"/></g><!--class Scan--><g id="elem_Scan"><rect fill="#F1F1F1" height="48" id="Scan" rx="2.5" ry="2.5" style="stroke:#181818;stroke-width:0.5;" width="63" x="22.5" y="230"/><ellipse cx="37.5" cy="246" fill="#ADD1B2" rx="11" ry="11" style="stroke:#181818;stroke-width:1.0;"/><path d="M37.5469,252.2031 C39.0469,252.2031 40.2813,251.6406 41.1875,250.5781 L39.8125,249.0625 C39.2656,249.6563 38.6094,250.0469 37.8125,250.0469 C36.1406,250.0469 34.9844,248.7188 34.9844,246.4375 C34.9844,244.2188 36.1406,242.875 37.7031,242.875 C38.5156,242.875 39.1094,243.1875 39.6406,243.6719 L41.0156,242.125 C40.2656,241.3906 39.1094,240.7188 37.7031,240.7188 C34.75,240.7188 32.4219,242.8594 32.4219,246.5313 C32.4219,250.25 34.7969,252.2031 37.5469,252.2031 Z " fill="#000000"/><text fill="#000000" font-family="sans-serif" font-size="14" lengthAdjust="spacing" textLength="31" x="51.5" y="250.7852">Scan</text><line style="stroke:#181818;stroke-width:0.5;" x1="23.5" x2="84.5" y1="262" y2="262"/><line style="stroke:#181818;stroke-width:0.5;" x1="23.5" x2="84.5" y1="270" y2="270"/></g><!--class Plugin--><g id="elem_Plugin"><rect fill="#F1F1F1" height="48" id="Plugin" rx="2.5" ry="2.5" style="stroke:#181818;stroke-width:0.5;" width="71" x="120.5" y="230"/><ellipse cx="135.5" cy="246" fill="#ADD1B2" rx="11" ry="11" style="stroke:#181818;stroke-width:1.0;"/><path d="M135.5469,252.2031 C137.0469,252.2031 138.2813,251.6406 139.1875,250.5781 L137.8125,249.0625 C137.2656,249.6563 136.6094,250.0469 135.8125,250.0469 C134.1406,250.0469 132.9844,248.7188 132.9844,246.4375 C132.9844,244.2188 134.1406,242.875 135.7031,242.875 C136.5156,242.875 137.1094,243.1875 137.6406,243.6719 L139.0156,242.125 C138.2656,241.3906 137.1094,240.7188 135.7031,240.7188 C132.75,240.7188 130.4219,242.8594 130.4219,246.5313 C130.4219,250.25 132.7969,252.2031 135.5469,252.2031 Z " fill="#000000"/><text fill="#000000" font-family="sans-serif" font-size="14" lengthAdjust="spacing" textLength="39" x="149.5" y="250.7852">Plugin</text><line style="stroke:#181818;stroke-width:0.5;" x1="121.5" x2="190.5" y1="262" y2="262"/><line style="stroke:#181818;stroke-width:0.5;" x1="121.5" x2="190.5" y1="270" y2="270"/></g><!--class Detector--><g id="elem_Detector"><rect fill="#F1F1F1" height="48" id="Detector" rx="2.5" ry="2.5" style="stroke:#181818;stroke-width:0.5;" width="85" x="226.5" y="230"/><ellipse cx="241.5" cy="246" fill="#ADD1B2" rx="11" ry="11" style="stroke:#181818;stroke-width:1.0;"/><path d="M241.5469,252.2031 C243.0469,252.2031 244.2813,251.6406 245.1875,250.5781 L243.8125,249.0625 C243.2656,249.6563 242.6094,250.0469 241.8125,250.0469 C240.1406,250.0469 238.9844,248.7188 238.9844,246.4375 C238.9844,244.2188 240.1406,242.875 241.7031,242.875 C242.5156,242.875 243.1094,243.1875 243.6406,243.6719 L245.0156,242.125 C244.2656,241.3906 243.1094,240.7188 241.7031,240.7188 C238.75,240.7188 236.4219,242.8594 236.4219,246.5313 C236.4219,250.25 238.7969,252.2031 241.5469,252.2031 Z " fill="#000000"/><text fill="#000000" font-family="sans-serif" font-size="14" lengthAdjust="spacing" textLength="53" x="255.5" y="250.7852">Detector</text><line style="stroke:#181818;stroke-width:0.5;" x1="227.5" x2="310.5" y1="262" y2="262"/><line style="stroke:#181818;stroke-width:0.5;" x1="227.5" x2="310.5" y1="270" y2="270"/></g><!--class Motor--><g id="elem_Motor"><rect fill="#F1F1F1" height="48" id="Motor" rx="2.5" ry="2.5" style="stroke:#181818;stroke-width:0.5;" width="70" x="347" y="230"/><ellipse cx="362" cy="246" fill="#ADD1B2" rx="11" ry="11" style="stroke:#181818;stroke-width:1.0;"/><path d="M362.0469,252.2031 C363.5469,252.2031 364.7813,251.6406 365.6875,250.5781 L364.3125,249.0625 C363.7656,249.6563 363.1094,250.0469 362.3125,250.0469 C360.6406,250.0469 359.4844,248.7188 359.4844,246.4375 C359.4844,244.2188 360.6406,242.875 362.2031,242.875 C363.0156,242.875 363.6094,243.1875 364.1406,243.6719 L365.5156,242.125 C364.7656,241.3906 363.6094,240.7188 362.2031,240.7188 C359.25,240.7188 356.9219,242.8594 356.9219,246.5313 C356.9219,250.25 359.2969,252.2031 362.0469,252.2031 Z " fill="#000000"/><text fill="#000000" font-family="sans-serif" font-size="14" lengthAdjust="spacing" textLength="38" x="376" y="250.7852">Motor</text><line style="stroke:#181818;stroke-width:0.5;" x1="348" x2="416" y1="262" y2="262"/><line style="stroke:#181818;stroke-width:0.5;" x1="348" x2="416" y1="270" y2="270"/></g><!--class Monitor--><g id="elem_Monitor"><rect fill="#F1F1F1" height="48" id="Monitor" rx="2.5" ry="2.5" style="stroke:#181818;stroke-width:0.5;" width="81" x="452.5" y="230"/><ellipse cx="467.5" cy="246" fill="#ADD1B2" rx="11" ry="11" style="stroke:#181818;stroke-width:1.0;"/><path d="M467.5469,252.2031 C469.0469,252.2031 470.2813,251.6406 471.1875,250.5781 L469.8125,249.0625 C469.2656,249.6563 468.6094,250.0469 467.8125,250.0469 C466.1406,250.0469 464.9844,248.7188 464.9844,246.4375 C464.9844,244.2188 466.1406,242.875 467.7031,242.875 C468.5156,242.875 469.1094,243.1875 469.6406,243.6719 L471.0156,242.125 C470.2656,241.3906 469.1094,240.7188 467.7031,240.7188 C464.75,240.7188 462.4219,242.8594 462.4219,246.5313 C462.4219,250.25 464.7969,252.2031 467.5469,252.2031 Z " fill="#000000"/><text fill="#000000" font-family="sans-serif" font-size="14" lengthAdjust="spacing" textLength="49" x="481.5" y="250.7852">Monitor</text><line style="stroke:#181818;stroke-width:0.5;" x1="453.5" x2="532.5" y1="262" y2="262"/><line style="stroke:#181818;stroke-width:0.5;" x1="453.5" x2="532.5" y1="270" y2="270"/></g><g id="elem_GMN13"><path d="M6,338 L6,378.4688 A0,0 0 0 0 6,378.4688 L102,378.4688 A0,0 0 0 0 102,378.4688 L102,348 L92,338 L58,338 L54,278.15 L50,338 L6,338 A0,0 0 0 0 6,338 " fill="#FEFFDD" style="stroke:#181818;stroke-width:0.5;"/><path d="M92,338 L92,348 L102,348 L92,338 " fill="#FEFFDD" style="stroke:#181818;stroke-width:0.5;"/><text fill="#000000" font-family="sans-serif" font-size="13" lengthAdjust="spacing" textLength="75" x="12" y="355.0605">See separate</text><text fill="#000000" font-family="sans-serif" font-size="13" lengthAdjust="spacing" textLength="73" x="12" y="370.2949">scan module</text></g><g id="elem_SetupNote"><path d="M333,338 L333,378.4688 L431,378.4688 L431,348 L421,338 L333,338 " fill="#FEFFDD" style="stroke:#181818;stroke-width:0.5;"/><path d="M421,338 L421,348 L431,348 L421,338 " fill="#FEFFDD" style="stroke:#181818;stroke-width:1.0;"/><text fill="#000000" font-family="sans-serif" font-size="13" lengthAdjust="spacing" textLength="75" x="339" y="355.0605">See separate</text><text fill="#000000" font-family="sans-serif" font-size="13" lengthAdjust="spacing" textLength="77" x="339" y="370.2949">setup module</text></g><!--reverse link SCML to Scan--><g id="link_SCML_Scan"><path codeLine="11" d="M188.7485,150.5243 C150.0785,179.9343 113.72,207.58 84.25,230 " fill="none" id="SCML-backto-Scan" style="stroke:#181818;stroke-width:1.0;"/><polygon fill="#181818" points="198.3,143.26,191.1028,143.7083,188.7485,150.5243,195.9457,150.076,198.3,143.26" style="stroke:#181818;stroke-width:1.0;"/></g><!--reverse link SCML to Plugin--><g id="link_SCML_Plugin"><path codeLine="12" d="M206.34,180.1636 C191.22,202.0536 182.85,214.15 171.94,229.94 " fill="none" id="SCML-backto-Plugin" style="stroke:#181818;stroke-width:1.0;"/><polygon fill="#181818" points="213.16,170.29,206.4588,172.9535,206.34,180.1636,213.0412,177.5001,213.16,170.29" style="stroke:#181818;stroke-width:1.0;"/><text fill="#000000" font-family="sans-serif" font-size="13" lengthAdjust="spacing" textLength="7" x="168.1278" y="218.9433">n</text></g><!--reverse link SCML to Detector--><g id="link_SCML_Detector"><path codeLine="13" d="M269,182.29 C269,204.18 269,214.15 269,229.94 " fill="none" id="SCML-backto-Detector" style="stroke:#181818;stroke-width:1.0;"/><polygon fill="#181818" points="269,170.29,265,176.29,269,182.29,273,176.29,269,170.29" style="stroke:#181818;stroke-width:1.0;"/><text fill="#000000" font-family="sans-serif" font-size="13" lengthAdjust="spacing" textLength="7" x="261.1031" y="218.9433">n</text></g><!--reverse link SCML to Motor--><g id="link_SCML_Motor"><path codeLine="14" d="M331.66,180.1636 C346.78,202.0536 355.15,214.15 366.06,229.94 " fill="none" id="SCML-backto-Motor" style="stroke:#181818;stroke-width:1.0;"/><polygon fill="#181818" points="324.84,170.29,324.9588,177.5001,331.66,180.1636,331.5412,172.9535,324.84,170.29" style="stroke:#181818;stroke-width:1.0;"/><text fill="#000000" font-family="sans-serif" font-size="13" lengthAdjust="spacing" textLength="7" x="354.0785" y="218.9433">n</text></g><!--reverse link SCML to Monitor--><g id="link_SCML_Monitor"><path codeLine="15" d="M349.2627,148.0847 C390.1727,177.9447 429.97,206.99 461.47,229.99 " fill="none" id="SCML-backto-Monitor" style="stroke:#181818;stroke-width:1.0;"/><polygon fill="#181818" points="339.57,141.01,342.0581,147.7782,349.2627,148.0847,346.7746,141.3164,339.57,141.01" style="stroke:#181818;stroke-width:1.0;"/><text fill="#000000" font-family="sans-serif" font-size="13" lengthAdjust="spacing" textLength="7" x="445.4936" y="219.0061">n</text></g><!--link Detector to SetupNote--><g id="link_Detector_SetupNote"><path codeLine="24" d="M294.64,278.15 C314.57,296.13 341.88,320.78 360.63,337.71 " fill="none" id="Detector-SetupNote" style="stroke:#181818;stroke-width:1.0;stroke-dasharray:7.0,7.0;"/></g><!--link Motor to SetupNote--><g id="link_Motor_SetupNote"><path codeLine="25" d="M382,278.15 C382,296.13 382,320.78 382,337.71 " fill="none" id="Motor-SetupNote" style="stroke:#181818;stroke-width:1.0;stroke-dasharray:7.0,7.0;"/></g><!--link Monitor to SetupNote--><g id="link_Monitor_SetupNote"><path codeLine="26" d="M467.81,278.15 C448.24,296.13 421.41,320.78 402.99,337.71 " fill="none" id="Monitor-SetupNote" style="stroke:#181818;stroke-width:1.0;stroke-dasharray:7.0,7.0;"/></g><!--SRC=[PP313e8m38RlUuh6emayW5SzYZ7Xg1xcg6G9h8GLByPtTok30Ewozkkw_szDexs7ybYSuQCWd8QCPaiE3k2vjwuM-iRU_q5lT2Hbk2Jlcg6spWTqbUZs45mXes7gO-6KubHgAV62bj3P6KiO2byb7lTPDkhDsSxjajoQJKfhAZfR91fAEMA49p5J2_GIcJ0S8dZiTAyPxqucRgaQ6aplTLWUyj1TGYBkbmtZbc9vQa9NGUnJQl87URxuGVnjaVXRmny0]--></g></svg>