<?xml version="1.0" encoding="us-ascii" standalone="no"?><svg xmlns="http://www.w3.org/2000/svg" xmlns:xlink="http://www.w3.org/1999/xlink" contentStyleType="text/css" height="464.4px" preserveAspectRatio="none" style="width:670px;height:464px;background:#FFFFFF;" version="1.1" viewBox="0 0 670 464" width="670.2px" zoomAndPan="magnify"><defs/><g><!--class EveMetadata--><g id="elem_EveMetadata"><rect codeLine="2" fill="#F1F1F1" height="48.4875" id="EveMetadata" rx="1.5" ry="1.5" style="stroke:#181818;stroke-width:0.3;" width="69" x="93.6" y="14.1"/><ellipse cx="102.6" cy="23.7" fill="#ADD1B2" rx="6.6" ry="6.6" style="stroke:#181818;stroke-width:0.6;"/><path d="M102.6281,27.4219 C103.5281,27.4219 104.2688,27.0844 104.8125,26.4469 L103.9875,25.5375 C103.6594,25.8938 103.2656,26.1281 102.7875,26.1281 C101.7844,26.1281 101.0906,25.3313 101.0906,23.9625 C101.0906,22.6312 101.7844,21.825 102.7219,21.825 C103.2094,21.825 103.5656,22.0125 103.8844,22.3031 L104.7094,21.375 C104.2594,20.9344 103.5656,20.5313 102.7219,20.5313 C100.95,20.5313 99.5531,21.8156 99.5531,24.0188 C99.5531,26.25 100.9781,27.4219 102.6281,27.4219 Z " fill="#000000"/><text fill="#000000" font-family="sans-serif" font-size="8.4" lengthAdjust="spacing" textLength="49.8" x="111" y="26.5711">EveMetadata</text><line style="stroke:#181818;stroke-width:0.3;" x1="94.2" x2="162" y1="33.3" y2="33.3"/><text fill="#000000" font-family="sans-serif" font-size="8.4" lengthAdjust="spacing" textLength="48" x="97.2" y="43.493">name : string</text><text fill="#000000" font-family="sans-serif" font-size="8.4" lengthAdjust="spacing" textLength="60" x="97.2" y="53.3367">section : Section</text><line style="stroke:#181818;stroke-width:0.3;" x1="94.2" x2="162" y1="57.7875" y2="57.7875"/></g><!--class EveData--><g id="elem_EveData"><rect codeLine="7" fill="#F1F1F1" height="28.8" id="EveData" rx="1.5" ry="1.5" style="stroke:#181818;stroke-width:0.3;" width="50.4" x="21.9" y="24"/><ellipse cx="30.9" cy="33.6" fill="#ADD1B2" rx="6.6" ry="6.6" style="stroke:#181818;stroke-width:0.6;"/><path d="M30.9281,37.3219 C31.8281,37.3219 32.5688,36.9844 33.1125,36.3469 L32.2875,35.4375 C31.9594,35.7937 31.5656,36.0281 31.0875,36.0281 C30.0844,36.0281 29.3906,35.2312 29.3906,33.8625 C29.3906,32.5313 30.0844,31.725 31.0219,31.725 C31.5094,31.725 31.8656,31.9125 32.1844,32.2031 L33.0094,31.275 C32.5594,30.8344 31.8656,30.4313 31.0219,30.4313 C29.25,30.4313 27.8531,31.7156 27.8531,33.9187 C27.8531,36.15 29.2781,37.3219 30.9281,37.3219 Z " fill="#000000"/><text fill="#000000" font-family="sans-serif" font-size="8.4" lengthAdjust="spacing" textLength="31.2" x="39.3" y="36.4711">EveData</text><line style="stroke:#181818;stroke-width:0.3;" x1="22.5" x2="71.7" y1="43.2" y2="43.2"/><line style="stroke:#181818;stroke-width:0.3;" x1="22.5" x2="71.7" y1="48" y2="48"/></g><g id="elem_GMN4"><path d="M3.6,125.7 L3.6,149.9813 A0,0 0 0 0 3.6,149.9813 L90.6,149.9813 A0,0 0 0 0 90.6,149.9813 L90.6,131.7 L84.6,125.7 L49.5,125.7 L47.1,52.848 L44.7,125.7 L3.6,125.7 A0,0 0 0 0 3.6,125.7 " fill="#FEFFDD" style="stroke:#181818;stroke-width:0.3;"/><path d="M84.6,125.7 L84.6,131.7 L90.6,131.7 L84.6,125.7 " fill="#FEFFDD" style="stroke:#181818;stroke-width:0.3;"/><text fill="#000000" font-family="sans-serif" font-size="7.8" lengthAdjust="spacing" textLength="74.4" x="7.2" y="135.9363">See separate diagram</text><text fill="#000000" font-family="sans-serif" font-size="7.8" lengthAdjust="spacing" textLength="63" x="7.2" y="145.077">for class hierarchy</text></g><!--class Section--><g id="elem_Section"><rect codeLine="11" fill="#F1F1F1" height="68.175" id="Section" rx="1.5" ry="1.5" style="stroke:#181818;stroke-width:0.3;" width="50.4" x="270.3" y="4.2"/><ellipse cx="280.92" cy="13.8" fill="#EB937F" rx="6.6" ry="6.6" style="stroke:#181818;stroke-width:0.6;"/><path d="M278.5575,17.4 L283.0669,17.4 L283.0669,16.1344 L280.0669,16.1344 L280.0669,14.6063 L282.5231,14.6063 L282.5231,13.35 L280.0669,13.35 L280.0669,12.0187 L282.9638,12.0187 L282.9638,10.7531 L278.5575,10.7531 L278.5575,17.4 Z " fill="#000000"/><text fill="#000000" font-family="sans-serif" font-size="8.4" lengthAdjust="spacing" textLength="27.6" x="289.68" y="16.6711">Section</text><line style="stroke:#181818;stroke-width:0.3;" x1="270.9" x2="320.1" y1="23.4" y2="23.4"/><text fill="#000000" font-family="sans-serif" font-size="8.4" lengthAdjust="spacing" textLength="42.6" x="273.9" y="33.593">STANDARD</text><text fill="#000000" font-family="sans-serif" font-size="8.4" lengthAdjust="spacing" textLength="43.2" x="273.9" y="43.4367">SNAPSHOT</text><text fill="#000000" font-family="sans-serif" font-size="8.4" lengthAdjust="spacing" textLength="37.8" x="273.9" y="53.2805">MONITOR</text><text fill="#000000" font-family="sans-serif" font-size="8.4" lengthAdjust="spacing" textLength="22.2" x="273.9" y="63.1242">META</text><line style="stroke:#181818;stroke-width:0.3;" x1="270.9" x2="320.1" y1="67.575" y2="67.575"/></g><!--class Transport--><g id="elem_Transport"><rect codeLine="18" fill="#F1F1F1" height="48.4875" id="Transport" rx="1.5" ry="1.5" style="stroke:#181818;stroke-width:0.3;" width="56.4" x="439.5" y="14.1"/><ellipse cx="448.5" cy="23.7" fill="#EB937F" rx="6.6" ry="6.6" style="stroke:#181818;stroke-width:0.6;"/><path d="M446.1375,27.3 L450.6469,27.3 L450.6469,26.0344 L447.6469,26.0344 L447.6469,24.5062 L450.1031,24.5062 L450.1031,23.25 L447.6469,23.25 L447.6469,21.9188 L450.5438,21.9188 L450.5438,20.6531 L446.1375,20.6531 L446.1375,27.3 Z " fill="#000000"/><text fill="#000000" font-family="sans-serif" font-size="8.4" lengthAdjust="spacing" textLength="37.2" x="456.9" y="26.5711">Transport</text><line style="stroke:#181818;stroke-width:0.3;" x1="440.1" x2="495.3" y1="33.3" y2="33.3"/><text fill="#000000" font-family="sans-serif" font-size="8.4" lengthAdjust="spacing" textLength="10.8" x="443.1" y="43.493">CA</text><text fill="#000000" font-family="sans-serif" font-size="8.4" lengthAdjust="spacing" textLength="26.4" x="443.1" y="53.3367">LOCAL</text><line style="stroke:#181818;stroke-width:0.3;" x1="440.1" x2="495.3" y1="57.7875" y2="57.7875"/></g><g id="elem_GMN9"><path d="M426,120.9 L426,154.3219 A0,0 0 0 0 426,154.3219 L509.4,154.3219 A0,0 0 0 0 509.4,154.3219 L509.4,126.9 L503.4,120.9 L470.1,120.9 L467.7,62.748 L465.3,120.9 L426,120.9 A0,0 0 0 0 426,120.9 " fill="#FEFFDD" style="stroke:#181818;stroke-width:0.3;"/><path d="M503.4,120.9 L503.4,126.9 L509.4,126.9 L503.4,120.9 " fill="#FEFFDD" style="stroke:#181818;stroke-width:0.3;"/><text fill="#000000" font-family="sans-serif" font-size="7.8" lengthAdjust="spacing" textLength="70.8" x="429.6" y="131.1363">This is defined in the</text><text fill="#000000" font-family="sans-serif" font-size="7.8" lengthAdjust="spacing" textLength="64.8" x="429.6" y="140.277">scml.setup module</text><text fill="#000000" font-family="sans-serif" font-size="7.8" lengthAdjust="spacing" textLength="67.8" x="429.6" y="149.4176">as well. Generalise?</text></g><!--class DeviceMetadata--><g id="elem_DeviceMetadata"><rect codeLine="24" fill="#F1F1F1" height="58.3313" id="DeviceMetadata" rx="1.5" ry="1.5" style="stroke:#181818;stroke-width:0.3;" width="105" x="177.6" y="108.6"/><ellipse cx="199.29" cy="118.2" fill="#B4A7E5" rx="6.6" ry="6.6" style="stroke:#181818;stroke-width:0.6;"/><path d="M197.0494,121.8 L201.6525,121.8 L201.6525,120.5344 L200.1056,120.5344 L200.1056,116.4187 L201.6525,116.4187 L201.6525,115.1531 L197.0494,115.1531 L197.0494,116.4187 L198.5962,116.4187 L198.5962,120.5344 L197.0494,120.5344 L197.0494,121.8 Z " fill="#000000"/><text fill="#000000" font-family="sans-serif" font-size="8.4" font-style="italic" lengthAdjust="spacing" textLength="57.6" x="210.51" y="121.0711">DeviceMetadata</text><line style="stroke:#181818;stroke-width:0.3;" x1="178.2" x2="282" y1="127.8" y2="127.8"/><text fill="#000000" font-family="sans-serif" font-size="8.4" lengthAdjust="spacing" textLength="33.6" x="181.2" y="137.993">id : string</text><text fill="#000000" font-family="sans-serif" font-size="8.4" lengthAdjust="spacing" textLength="36" x="181.2" y="147.8367">pv : string</text><text fill="#000000" font-family="sans-serif" font-size="8.4" lengthAdjust="spacing" textLength="97.8" x="181.2" y="157.6805">transport_type : Transport</text><line style="stroke:#181818;stroke-width:0.3;" x1="178.2" x2="282" y1="162.1313" y2="162.1313"/></g><!--class EveMeasureMetadata--><g id="elem_EveMeasureMetadata"><rect codeLine="30" fill="#F1F1F1" height="38.6438" id="EveMeasureMetadata" rx="1.5" ry="1.5" style="stroke:#181818;stroke-width:0.3;" width="101.4" x="303.6" y="118.5"/><ellipse cx="312.6" cy="128.1" fill="#ADD1B2" rx="6.6" ry="6.6" style="stroke:#181818;stroke-width:0.6;"/><path d="M312.6281,131.8219 C313.5281,131.8219 314.2688,131.4844 314.8125,130.8469 L313.9875,129.9375 C313.6594,130.2938 313.2656,130.5281 312.7875,130.5281 C311.7844,130.5281 311.0906,129.7313 311.0906,128.3625 C311.0906,127.0313 311.7844,126.225 312.7219,126.225 C313.2094,126.225 313.5656,126.4125 313.8844,126.7031 L314.7094,125.775 C314.2594,125.3344 313.5656,124.9312 312.7219,124.9312 C310.95,124.9312 309.5531,126.2156 309.5531,128.4188 C309.5531,130.65 310.9781,131.8219 312.6281,131.8219 Z " fill="#000000"/><text fill="#000000" font-family="sans-serif" font-size="8.4" lengthAdjust="spacing" textLength="82.2" x="321" y="130.9711">EveMeasureMetadata</text><line style="stroke:#181818;stroke-width:0.3;" x1="304.2" x2="404.4" y1="137.7" y2="137.7"/><text fill="#000000" font-family="sans-serif" font-size="8.4" lengthAdjust="spacing" textLength="41.4" x="307.2" y="147.893">unit : string</text><line style="stroke:#181818;stroke-width:0.3;" x1="304.2" x2="404.4" y1="152.3438" y2="152.3438"/></g><!--class EveMonitorMetadata--><g id="elem_EveMonitorMetadata"><rect codeLine="34" fill="#F1F1F1" height="38.6438" id="EveMonitorMetadata" rx="1.5" ry="1.5" style="stroke:#181818;stroke-width:0.3;" width="107.4" x="54.6" y="202.8"/><ellipse cx="67.65" cy="212.4" fill="#ADD1B2" rx="6.6" ry="6.6" style="stroke:#181818;stroke-width:0.6;"/><path d="M67.6781,216.1219 C68.5781,216.1219 69.3188,215.7844 69.8625,215.1469 L69.0375,214.2375 C68.7094,214.5938 68.3156,214.8281 67.8375,214.8281 C66.8344,214.8281 66.1406,214.0313 66.1406,212.6625 C66.1406,211.3312 66.8344,210.525 67.7719,210.525 C68.2594,210.525 68.6156,210.7125 68.9344,211.0031 L69.7594,210.075 C69.3094,209.6344 68.6156,209.2313 67.7719,209.2313 C66,209.2313 64.6031,210.5156 64.6031,212.7188 C64.6031,214.95 66.0281,216.1219 67.6781,216.1219 Z " fill="#000000"/><text fill="#000000" font-family="sans-serif" font-size="8.4" lengthAdjust="spacing" textLength="79.2" x="76.95" y="215.2711">EveMonitorMetadata</text><line style="stroke:#181818;stroke-width:0.3;" x1="55.2" x2="161.4" y1="222" y2="222"/><text fill="#000000" font-family="sans-serif" font-size="8.4" lengthAdjust="spacing" textLength="100.2" x="58.2" y="232.193">section : Section.MONITOR</text><line style="stroke:#181818;stroke-width:0.3;" x1="55.2" x2="161.4" y1="236.6437" y2="236.6437"/></g><!--class EveMotorMetadata--><g id="elem_EveMotorMetadata"><rect codeLine="38" fill="#F1F1F1" height="28.8" id="EveMotorMetadata" rx="1.5" ry="1.5" style="stroke:#181818;stroke-width:0.3;" width="91.8" x="305.4" y="207.6"/><ellipse cx="314.4" cy="217.2" fill="#ADD1B2" rx="6.6" ry="6.6" style="stroke:#181818;stroke-width:0.6;"/><path d="M314.4281,220.9219 C315.3281,220.9219 316.0687,220.5844 316.6125,219.9469 L315.7875,219.0375 C315.4594,219.3937 315.0656,219.6281 314.5875,219.6281 C313.5844,219.6281 312.8906,218.8312 312.8906,217.4625 C312.8906,216.1313 313.5844,215.325 314.5219,215.325 C315.0094,215.325 315.3656,215.5125 315.6844,215.8031 L316.5094,214.875 C316.0594,214.4344 315.3656,214.0313 314.5219,214.0313 C312.75,214.0313 311.3531,215.3156 311.3531,217.5187 C311.3531,219.75 312.7781,220.9219 314.4281,220.9219 Z " fill="#000000"/><text fill="#000000" font-family="sans-serif" font-size="8.4" lengthAdjust="spacing" textLength="72.6" x="322.8" y="220.0711">EveMotorMetadata</text><line style="stroke:#181818;stroke-width:0.3;" x1="306" x2="396.6" y1="226.8" y2="226.8"/><line style="stroke:#181818;stroke-width:0.3;" x1="306" x2="396.6" y1="231.6" y2="231.6"/></g><!--class EveDetectorMetadata--><g id="elem_EveDetectorMetadata"><rect codeLine="41" fill="#F1F1F1" height="38.6438" id="EveDetectorMetadata" rx="1.5" ry="1.5" style="stroke:#181818;stroke-width:0.3;" width="100.8" x="183.3" y="202.8"/><ellipse cx="192.3" cy="212.4" fill="#ADD1B2" rx="6.6" ry="6.6" style="stroke:#181818;stroke-width:0.6;"/><path d="M192.3281,216.1219 C193.2281,216.1219 193.9688,215.7844 194.5125,215.1469 L193.6875,214.2375 C193.3594,214.5938 192.9656,214.8281 192.4875,214.8281 C191.4844,214.8281 190.7906,214.0313 190.7906,212.6625 C190.7906,211.3312 191.4844,210.525 192.4219,210.525 C192.9094,210.525 193.2656,210.7125 193.5844,211.0031 L194.4094,210.075 C193.9594,209.6344 193.2656,209.2313 192.4219,209.2313 C190.65,209.2313 189.2531,210.5156 189.2531,212.7188 C189.2531,214.95 190.6781,216.1219 192.3281,216.1219 Z " fill="#000000"/><text fill="#000000" font-family="sans-serif" font-size="8.4" lengthAdjust="spacing" textLength="81.6" x="200.7" y="215.2711">EveDetectorMetadata</text><line style="stroke:#181818;stroke-width:0.3;" x1="183.9" x2="283.5" y1="222" y2="222"/><text fill="#000000" font-family="sans-serif" font-size="8.4" lengthAdjust="spacing" textLength="73.8" x="186.9" y="232.193">normalise_id : string</text><line style="stroke:#181818;stroke-width:0.3;" x1="183.9" x2="283.5" y1="236.6437" y2="236.6437"/></g><!--class EveTimestampMetadata--><g id="elem_EveTimestampMetadata"><rect codeLine="45" fill="#F1F1F1" height="38.6438" id="EveTimestampMetadata" rx="1.5" ry="1.5" style="stroke:#181818;stroke-width:0.3;" width="111" x="555" y="202.8"/><ellipse cx="564" cy="212.4" fill="#ADD1B2" rx="6.6" ry="6.6" style="stroke:#181818;stroke-width:0.6;"/><path d="M564.0281,216.1219 C564.9281,216.1219 565.6687,215.7844 566.2125,215.1469 L565.3875,214.2375 C565.0594,214.5938 564.6656,214.8281 564.1875,214.8281 C563.1844,214.8281 562.4906,214.0313 562.4906,212.6625 C562.4906,211.3312 563.1844,210.525 564.1219,210.525 C564.6094,210.525 564.9656,210.7125 565.2844,211.0031 L566.1094,210.075 C565.6594,209.6344 564.9656,209.2313 564.1219,209.2313 C562.35,209.2313 560.9531,210.5156 560.9531,212.7188 C560.9531,214.95 562.3781,216.1219 564.0281,216.1219 Z " fill="#000000"/><text fill="#000000" font-family="sans-serif" font-size="8.4" lengthAdjust="spacing" textLength="91.8" x="572.4" y="215.2711">EveTimestampMetadata</text><line style="stroke:#181818;stroke-width:0.3;" x1="555.6" x2="665.4" y1="222" y2="222"/><text fill="#000000" font-family="sans-serif" font-size="8.4" lengthAdjust="spacing" textLength="84.6" x="558.6" y="232.193">section : Section.META</text><line style="stroke:#181818;stroke-width:0.3;" x1="555.6" x2="665.4" y1="236.6437" y2="236.6437"/></g><!--class EveScanModuleMetadata--><g id="elem_EveScanModuleMetadata"><rect codeLine="49" fill="#F1F1F1" height="38.6438" id="EveScanModuleMetadata" rx="1.5" ry="1.5" style="stroke:#181818;stroke-width:0.3;" width="115.2" x="418.5" y="202.8"/><ellipse cx="427.5" cy="212.4" fill="#ADD1B2" rx="6.6" ry="6.6" style="stroke:#181818;stroke-width:0.6;"/><path d="M427.5281,216.1219 C428.4281,216.1219 429.1688,215.7844 429.7125,215.1469 L428.8875,214.2375 C428.5594,214.5938 428.1656,214.8281 427.6875,214.8281 C426.6844,214.8281 425.9906,214.0313 425.9906,212.6625 C425.9906,211.3312 426.6844,210.525 427.6219,210.525 C428.1094,210.525 428.4656,210.7125 428.7844,211.0031 L429.6094,210.075 C429.1594,209.6344 428.4656,209.2313 427.6219,209.2313 C425.85,209.2313 424.4531,210.5156 424.4531,212.7188 C424.4531,214.95 425.8781,216.1219 427.5281,216.1219 Z " fill="#000000"/><text fill="#000000" font-family="sans-serif" font-size="8.4" lengthAdjust="spacing" textLength="96" x="435.9" y="215.2711">EveScanModuleMetadata</text><line style="stroke:#181818;stroke-width:0.3;" x1="419.1" x2="533.1" y1="222" y2="222"/><text fill="#000000" font-family="sans-serif" font-size="8.4" lengthAdjust="spacing" textLength="84.6" x="422.1" y="232.193">section : Section.META</text><line style="stroke:#181818;stroke-width:0.3;" x1="419.1" x2="533.1" y1="236.6437" y2="236.6437"/></g><!--class EveAverageDetectorMetadata--><g id="elem_EveAverageDetectorMetadata"><rect codeLine="53" fill="#F1F1F1" height="68.175" id="EveAverageDetectorMetadata" rx="1.5" ry="1.5" style="stroke:#181818;stroke-width:0.3;" width="131.4" x="92.4" y="277.2"/><ellipse cx="101.4" cy="286.8" fill="#ADD1B2" rx="6.6" ry="6.6" style="stroke:#181818;stroke-width:0.6;"/><path d="M101.4281,290.5219 C102.3281,290.5219 103.0688,290.1844 103.6125,289.5469 L102.7875,288.6375 C102.4594,288.9938 102.0656,289.2281 101.5875,289.2281 C100.5844,289.2281 99.8906,288.4313 99.8906,287.0625 C99.8906,285.7313 100.5844,284.925 101.5219,284.925 C102.0094,284.925 102.3656,285.1125 102.6844,285.4031 L103.5094,284.475 C103.0594,284.0344 102.3656,283.6312 101.5219,283.6312 C99.75,283.6312 98.3531,284.9156 98.3531,287.1188 C98.3531,289.35 99.7781,290.5219 101.4281,290.5219 Z " fill="#000000"/><text fill="#000000" font-family="sans-serif" font-size="8.4" lengthAdjust="spacing" textLength="112.2" x="109.8" y="289.6711">EveAverageDetectorMetadata</text><line style="stroke:#181818;stroke-width:0.3;" x1="93" x2="223.2" y1="296.4" y2="296.4"/><text fill="#000000" font-family="sans-serif" font-size="8.4" lengthAdjust="spacing" textLength="73.8" x="96" y="306.593">n_averages : integer</text><text fill="#000000" font-family="sans-serif" font-size="8.4" lengthAdjust="spacing" textLength="55.2" x="96" y="316.4367">low_limit : float</text><text fill="#000000" font-family="sans-serif" font-size="8.4" lengthAdjust="spacing" textLength="85.2" x="96" y="326.2805">max_attempts : integer</text><text fill="#000000" font-family="sans-serif" font-size="8.4" lengthAdjust="spacing" textLength="76.8" x="96" y="336.1242">max_deviation : float</text><line style="stroke:#181818;stroke-width:0.3;" x1="93" x2="223.2" y1="340.575" y2="340.575"/></g><g id="elem_GMN23"><path d="M98.4,381.6 L98.4,460.725 A0,0 0 0 0 98.4,460.725 L217.8,460.725 A0,0 0 0 0 217.8,460.725 L217.8,387.6 L211.8,381.6 L160.5,381.6 L158.1,345.768 L155.7,381.6 L98.4,381.6 A0,0 0 0 0 98.4,381.6 " fill="#FEFFDD" style="stroke:#181818;stroke-width:0.3;"/><path d="M211.8,381.6 L211.8,387.6 L217.8,387.6 L211.8,381.6 " fill="#FEFFDD" style="stroke:#181818;stroke-width:0.3;"/><text fill="#000000" font-family="sans-serif" font-size="7.8" lengthAdjust="spacing" textLength="99" x="102" y="391.8363">These attributes may change</text><text fill="#000000" font-family="sans-serif" font-size="7.8" lengthAdjust="spacing" textLength="69" x="103.8" y="400.977">for individual values.</text><text fill="#000000" font-family="sans-serif" font-size="7.8" lengthAdjust="spacing" textLength="1.8" x="102" y="410.1176">&#160;</text><text fill="#000000" font-family="sans-serif" font-size="7.8" lengthAdjust="spacing" textLength="96" x="103.8" y="419.2582">Is that true even for only one</text><text fill="#000000" font-family="sans-serif" font-size="7.8" lengthAdjust="spacing" textLength="99.6" x="103.8" y="428.3988">detector in one scan module?</text><text fill="#000000" font-family="sans-serif" font-size="7.8" lengthAdjust="spacing" textLength="105" x="103.8" y="437.5395">If we go for separate detectors</text><text fill="#000000" font-family="sans-serif" font-size="7.8" lengthAdjust="spacing" textLength="88.8" x="103.8" y="446.6801">in this case, would it solve</text><text fill="#000000" font-family="sans-serif" font-size="7.8" lengthAdjust="spacing" textLength="43.8" x="103.8" y="455.8207">the problem?</text></g><!--class EveIntervalDetectorMetadata--><g id="elem_EveIntervalDetectorMetadata"><rect codeLine="70" fill="#F1F1F1" height="38.6438" id="EveIntervalDetectorMetadata" rx="1.5" ry="1.5" style="stroke:#181818;stroke-width:0.3;" width="129" x="244.8" y="292.2"/><ellipse cx="253.8" cy="301.8" fill="#ADD1B2" rx="6.6" ry="6.6" style="stroke:#181818;stroke-width:0.6;"/><path d="M253.8281,305.5219 C254.7281,305.5219 255.4688,305.1844 256.0125,304.5469 L255.1875,303.6375 C254.8594,303.9938 254.4656,304.2281 253.9875,304.2281 C252.9844,304.2281 252.2906,303.4313 252.2906,302.0625 C252.2906,300.7313 252.9844,299.925 253.9219,299.925 C254.4094,299.925 254.7656,300.1125 255.0844,300.4031 L255.9094,299.475 C255.4594,299.0344 254.7656,298.6312 253.9219,298.6312 C252.15,298.6312 250.7531,299.9156 250.7531,302.1188 C250.7531,304.35 252.1781,305.5219 253.8281,305.5219 Z " fill="#000000"/><text fill="#000000" font-family="sans-serif" font-size="8.4" lengthAdjust="spacing" textLength="109.8" x="262.2" y="304.6711">EveIntervalDetectorMetadata</text><line style="stroke:#181818;stroke-width:0.3;" x1="245.4" x2="373.2" y1="311.4" y2="311.4"/><text fill="#000000" font-family="sans-serif" font-size="8.4" lengthAdjust="spacing" textLength="78.6" x="248.4" y="321.593">trigger_interval : float</text><line style="stroke:#181818;stroke-width:0.3;" x1="245.4" x2="373.2" y1="326.0438" y2="326.0438"/></g><!--reverse link DeviceMetadata to EveMonitorMetadata--><g id="link_DeviceMetadata_EveMonitorMetadata"><path d="M179.2627,172.9829 C161.8507,184.8629 151.062,192.222 135.576,202.788 " fill="none" id="DeviceMetadata-backto-EveMonitorMetadata" style="stroke:#181818;stroke-width:0.6;stroke-dasharray:7.0,7.0;"/><polygon fill="none" points="188.184,166.896,177.2337,170.0091,181.2917,175.9567,188.184,166.896" style="stroke:#181818;stroke-width:0.6;"/></g><!--reverse link DeviceMetadata to EveMotorMetadata--><g id="link_DeviceMetadata_EveMotorMetadata"><path d="M280.7191,173.0037 C300.7831,186.7617 315.006,196.512 331.122,207.564 " fill="none" id="DeviceMetadata-backto-EveMotorMetadata" style="stroke:#181818;stroke-width:0.6;stroke-dasharray:7.0,7.0;"/><polygon fill="none" points="271.812,166.896,278.6832,175.9727,282.755,170.0346,271.812,166.896" style="stroke:#181818;stroke-width:0.6;"/></g><!--reverse link DeviceMetadata to EveDetectorMetadata--><g id="link_DeviceMetadata_EveDetectorMetadata"><path d="M231.8065,177.6857 C232.3225,189.5177 232.434,192.12 232.89,202.662 " fill="none" id="DeviceMetadata-backto-EveDetectorMetadata" style="stroke:#181818;stroke-width:0.6;stroke-dasharray:7.0,7.0;"/><polygon fill="none" points="231.336,166.896,228.21,177.8426,235.4031,177.5289,231.336,166.896" style="stroke:#181818;stroke-width:0.6;"/></g><!--reverse link EveData to EveMetadata--><g id="link_EveData_EveMetadata"><path codeLine="74" d="M79.614,38.4 C86.646,38.4 86.478,38.4 93.51,38.4 " fill="none" id="EveData-backto-EveMetadata" style="stroke:#181818;stroke-width:0.6;"/><polygon fill="#181818" points="72.414,38.4,76.014,40.8,79.614,38.4,76.014,36,72.414,38.4" style="stroke:#181818;stroke-width:0.6;"/></g><!--reverse link EveMetadata to EveMeasureMetadata--><g id="link_EveMetadata_EveMeasureMetadata"><path codeLine="75" d="M172.6866,57.2829 C206.1846,71.0949 248.34,88.746 293.1,108.6 C300.174,111.738 307.662,115.152 314.892,118.488 " fill="none" id="EveMetadata-backto-EveMeasureMetadata" style="stroke:#181818;stroke-width:0.6;"/><polygon fill="none" points="162.702,53.166,171.3143,60.6111,174.0588,53.9547,162.702,53.166" style="stroke:#181818;stroke-width:0.6;"/></g><!--reverse link EveMetadata to EveMonitorMetadata--><g id="link_EveMetadata_EveMonitorMetadata"><path codeLine="76" d="M124.3479,73.5809 C120.3519,110.3729 113.934,169.47 110.322,202.8 " fill="none" id="EveMetadata-backto-EveMonitorMetadata" style="stroke:#181818;stroke-width:0.6;"/><polygon fill="none" points="125.514,62.844,120.7689,73.1921,127.9268,73.9696,125.514,62.844" style="stroke:#181818;stroke-width:0.6;"/></g><!--reverse link EveMeasureMetadata to EveDetectorMetadata--><g id="link_EveMeasureMetadata_EveDetectorMetadata"><path codeLine="77" d="M318.3406,163.0755 C298.5466,176.7135 280.704,189.012 260.886,202.668 " fill="none" id="EveMeasureMetadata-backto-EveDetectorMetadata" style="stroke:#181818;stroke-width:0.6;"/><polygon fill="none" points="327.234,156.948,316.2981,160.1111,320.3831,166.04,327.234,156.948" style="stroke:#181818;stroke-width:0.6;"/></g><!--reverse link EveMeasureMetadata to EveMotorMetadata--><g id="link_EveMeasureMetadata_EveMotorMetadata"><path codeLine="78" d="M353.2389,167.741 C352.6869,183.053 352.302,193.608 351.804,207.468 " fill="none" id="EveMeasureMetadata-backto-EveMotorMetadata" style="stroke:#181818;stroke-width:0.6;"/><polygon fill="none" points="353.628,156.948,349.6412,167.6113,356.8366,167.8707,353.628,156.948" style="stroke:#181818;stroke-width:0.6;"/></g><!--reverse link EveMeasureMetadata to EveTimestampMetadata--><g id="link_EveMeasureMetadata_EveTimestampMetadata"><path codeLine="79" d="M401.5907,161.3854 C409.3427,164.9074 407.694,163.914 415.5,166.8 C471.336,187.434 487.188,186.726 544.5,202.8 C547.884,203.748 551.358,204.726 554.868,205.71 " fill="none" id="EveMeasureMetadata-backto-EveTimestampMetadata" style="stroke:#181818;stroke-width:0.6;"/><polygon fill="none" points="391.758,156.918,400.1016,164.6629,403.0799,158.1078,391.758,156.918" style="stroke:#181818;stroke-width:0.6;"/></g><!--reverse link EveMeasureMetadata to EveScanModuleMetadata--><g id="link_EveMeasureMetadata_EveScanModuleMetadata"><path codeLine="80" d="M390.5569,163.0354 C410.5429,176.6734 428.628,189.012 448.644,202.668 " fill="none" id="EveMeasureMetadata-backto-EveScanModuleMetadata" style="stroke:#181818;stroke-width:0.6;"/><polygon fill="none" points="381.636,156.948,388.5278,166.0091,392.5861,160.0618,381.636,156.948" style="stroke:#181818;stroke-width:0.6;"/></g><!--reverse link EveDetectorMetadata to EveAverageDetectorMetadata--><g id="link_EveDetectorMetadata_EveAverageDetectorMetadata"><path codeLine="81" d="M210.6418,249.504 C201.7138,259.926 197.352,265.008 186.93,277.164 " fill="none" id="EveDetectorMetadata-backto-EveAverageDetectorMetadata" style="stroke:#181818;stroke-width:0.6;"/><polygon fill="none" points="217.668,241.302,207.9078,247.1619,213.3758,251.846,217.668,241.302" style="stroke:#181818;stroke-width:0.6;"/></g><!--reverse link EveDetectorMetadata to EveIntervalDetectorMetadata--><g id="link_EveDetectorMetadata_EveIntervalDetectorMetadata"><path codeLine="82" d="M256.7595,249.5029 C269.5875,264.4729 280.464,277.164 293.292,292.122 " fill="none" id="EveDetectorMetadata-backto-EveIntervalDetectorMetadata" style="stroke:#181818;stroke-width:0.6;"/><polygon fill="none" points="249.732,241.302,254.0258,251.8454,259.4931,247.1604,249.732,241.302" style="stroke:#181818;stroke-width:0.6;"/></g><!--SRC=[bLJRZjem47ttLynpLVY0gXAAbbMBj42rv74bD2H3iEHBP3kXgDr_xyH9TXDkkqK8ufap9-FZESuKUW-FDIqfO8u1uOy0_XZK1D_01oTD4IEUiY2juU2cVHAlGcHz-RmjVHN61eAT3S7g1abSLw933kOI2uVwnUojWxRm8CcXomud8SXKkcVkUjYaoMgUFC_RnIhvjVcvJkDYkLujqlLp-_oO9aqhaI1rQ7nfNUWe7fBuzxH-I9xEcqiFqWD_SzfBGpb80-50ByPdMaqzXQe4RVDASGWz74cfAVmWmnqhwMacX3I1t1upWZdLCZkNKEPZ0Sjwl0vzhzjmAXkntveVARiaz9Kx9w-C3Ezq8xpbb7LlUAbBHPfCyDVRl3ZNQQ_kcFLpd7461cD1WKa_Mna7ppeT1TuEzHjofbAJ3wZBZpVIZSPRwIP3iund-l-rISqdNrpkg6jxYstUCqSp60Mvc53sk5LInzFQAuiXHZN-tc88fCjmNj2aSfO6kuRQej7iHbnw84_094xkgi3lrNY2x82ce9Y7ncRIvBAMUOKAQbGL-QbeamlFmuw1Xx0Ye9fCX5kZJlpJ4UJTLXjdS10ygzTPOjQnxDaNKDXO_6xqhiwteEWhzbc6dhx2qLQAlHR0MrLtBsBRGUdiZYTZnZxEeTdhGFf5OpJk_uRsh431wcrb1nk89lghwSjaUCc9uONt_UzaSiLerp5ZSuah_koXvytUmuxSTGzuCVltm9VJBgvPieVV6F2xDRTEHlm3]--></g></svg>