<?xml version="1.0" encoding="us-ascii" standalone="no"?><svg xmlns="http://www.w3.org/2000/svg" xmlns:xlink="http://www.w3.org/1999/xlink" contentStyleType="text/css" height="508.9px" preserveAspectRatio="none" style="width:708px;height:508px;background:#FFFFFF;" version="1.1" viewBox="0 0 708 508" width="708.4px" zoomAndPan="magnify"><defs/><g><!--class Metadata--><g id="elem_Metadata"><rect codeLine="2" fill="#F1F1F1" height="56.5687" id="Metadata" rx="1.75" ry="1.75" style="stroke:#181818;stroke-width:0.3499999999999999;" width="78.4" x="111.65" y="16.45"/><ellipse cx="128.135" cy="27.65" fill="#ADD1B2" rx="7.7" ry="7.7" style="stroke:#181818;stroke-width:0.6999999999999998;"/><path d="M128.1678,31.9922 C129.2178,31.9922 130.0819,31.5984 130.7162,30.8547 L129.7537,29.7937 C129.3709,30.2094 128.9116,30.4828 128.3538,30.4828 C127.1834,30.4828 126.3741,29.5531 126.3741,27.9562 C126.3741,26.4031 127.1834,25.4625 128.2772,25.4625 C128.8459,25.4625 129.2616,25.6812 129.6334,26.0203 L130.5959,24.9375 C130.0709,24.4234 129.2616,23.9531 128.2772,23.9531 C126.21,23.9531 124.5803,25.4516 124.5803,28.0219 C124.5803,30.625 126.2428,31.9922 128.1678,31.9922 Z " fill="#000000"/><text fill="#000000" font-family="sans-serif" font-size="9.8" lengthAdjust="spacing" textLength="42.7" x="139.265" y="30.9996">Metadata</text><line style="stroke:#181818;stroke-width:0.3499999999999999;" x1="112.35" x2="189.35" y1="38.85" y2="38.85"/><text fill="#000000" font-family="sans-serif" font-size="9.8" lengthAdjust="spacing" textLength="56" x="115.85" y="50.7418">name : string</text><text fill="#000000" font-family="sans-serif" font-size="9.8" lengthAdjust="spacing" textLength="70" x="115.85" y="62.2262">section : Section</text><line style="stroke:#181818;stroke-width:0.3499999999999999;" x1="112.35" x2="189.35" y1="67.4187" y2="67.4187"/></g><!--class Data--><g id="elem_Data"><rect codeLine="7" fill="#F1F1F1" height="33.6" id="Data" rx="1.75" ry="1.75" style="stroke:#181818;stroke-width:0.3499999999999999;" width="43.4" x="43.75" y="28"/><ellipse cx="54.25" cy="39.2" fill="#ADD1B2" rx="7.7" ry="7.7" style="stroke:#181818;stroke-width:0.6999999999999998;"/><path d="M54.2828,43.5422 C55.3328,43.5422 56.1969,43.1484 56.8312,42.4047 L55.8687,41.3437 C55.4859,41.7594 55.0266,42.0328 54.4687,42.0328 C53.2984,42.0328 52.4891,41.1031 52.4891,39.5062 C52.4891,37.9531 53.2984,37.0125 54.3922,37.0125 C54.9609,37.0125 55.3766,37.2312 55.7484,37.5703 L56.7109,36.4875 C56.1859,35.9734 55.3766,35.5031 54.3922,35.5031 C52.325,35.5031 50.6953,37.0016 50.6953,39.5719 C50.6953,42.175 52.3578,43.5422 54.2828,43.5422 Z " fill="#000000"/><text fill="#000000" font-family="sans-serif" font-size="9.8" lengthAdjust="spacing" textLength="21" x="64.05" y="42.5496">Data</text><line style="stroke:#181818;stroke-width:0.3499999999999999;" x1="44.45" x2="86.45" y1="50.4" y2="50.4"/><line style="stroke:#181818;stroke-width:0.3499999999999999;" x1="44.45" x2="86.45" y1="56" y2="56"/></g><g id="elem_GMN4"><path d="M26.6,146.65 L26.6,174.9781 A0,0 0 0 0 26.6,174.9781 L104.3,174.9781 A0,0 0 0 0 104.3,174.9781 L104.3,153.65 L97.3,146.65 L68.25,146.65 L65.45,61.656 L62.65,146.65 L26.6,146.65 A0,0 0 0 0 26.6,146.65 " fill="#FEFFDD" style="stroke:#181818;stroke-width:0.3499999999999999;"/><path d="M97.3,146.65 L97.3,153.65 L104.3,153.65 L97.3,146.65 " fill="#FEFFDD" style="stroke:#181818;stroke-width:0.3499999999999999;"/><text fill="#000000" font-family="sans-serif" font-size="9.1" lengthAdjust="spacing" textLength="63" x="30.8" y="158.5924">See diagram for</text><text fill="#000000" font-family="sans-serif" font-size="9.1" lengthAdjust="spacing" textLength="51.1" x="30.8" y="169.2564">data module.</text></g><!--class Section--><g id="elem_Section"><rect codeLine="11" fill="#F1F1F1" height="79.5375" id="Section" rx="1.75" ry="1.75" style="stroke:#181818;stroke-width:0.3499999999999999;" width="58.8" x="324.45" y="4.9"/><ellipse cx="336.84" cy="16.1" fill="#EB937F" rx="7.7" ry="7.7" style="stroke:#181818;stroke-width:0.6999999999999998;"/><path d="M334.0837,20.3 L339.3447,20.3 L339.3447,18.8234 L335.8447,18.8234 L335.8447,17.0406 L338.7103,17.0406 L338.7103,15.575 L335.8447,15.575 L335.8447,14.0219 L339.2244,14.0219 L339.2244,12.5453 L334.0837,12.5453 L334.0837,20.3 Z " fill="#000000"/><text fill="#000000" font-family="sans-serif" font-size="9.8" lengthAdjust="spacing" textLength="32.2" x="347.06" y="19.4496">Section</text><line style="stroke:#181818;stroke-width:0.3499999999999999;" x1="325.15" x2="382.55" y1="27.3" y2="27.3"/><text fill="#000000" font-family="sans-serif" font-size="9.8" lengthAdjust="spacing" textLength="49.7" x="328.65" y="39.1918">STANDARD</text><text fill="#000000" font-family="sans-serif" font-size="9.8" lengthAdjust="spacing" textLength="50.4" x="328.65" y="50.6762">SNAPSHOT</text><text fill="#000000" font-family="sans-serif" font-size="9.8" lengthAdjust="spacing" textLength="44.1" x="328.65" y="62.1605">MONITOR</text><text fill="#000000" font-family="sans-serif" font-size="9.8" lengthAdjust="spacing" textLength="25.9" x="328.65" y="73.6449">META</text><line style="stroke:#181818;stroke-width:0.3499999999999999;" x1="325.15" x2="382.55" y1="78.8375" y2="78.8375"/></g><!--class Transport--><g id="elem_Transport"><rect codeLine="18" fill="#F1F1F1" height="56.5687" id="Transport" rx="1.75" ry="1.75" style="stroke:#181818;stroke-width:0.3499999999999999;" width="65.8" x="493.15" y="16.45"/><ellipse cx="503.65" cy="27.65" fill="#EB937F" rx="7.7" ry="7.7" style="stroke:#181818;stroke-width:0.6999999999999998;"/><path d="M500.8937,31.85 L506.1547,31.85 L506.1547,30.3734 L502.6547,30.3734 L502.6547,28.5906 L505.5203,28.5906 L505.5203,27.125 L502.6547,27.125 L502.6547,25.5719 L506.0344,25.5719 L506.0344,24.0953 L500.8937,24.0953 L500.8937,31.85 Z " fill="#000000"/><text fill="#000000" font-family="sans-serif" font-size="9.8" lengthAdjust="spacing" textLength="43.4" x="513.45" y="30.9996">Transport</text><line style="stroke:#181818;stroke-width:0.3499999999999999;" x1="493.85" x2="558.25" y1="38.85" y2="38.85"/><text fill="#000000" font-family="sans-serif" font-size="9.8" lengthAdjust="spacing" textLength="12.6" x="497.35" y="50.7418">CA</text><text fill="#000000" font-family="sans-serif" font-size="9.8" lengthAdjust="spacing" textLength="30.8" x="497.35" y="62.2262">LOCAL</text><line style="stroke:#181818;stroke-width:0.3499999999999999;" x1="493.85" x2="558.25" y1="67.4187" y2="67.4187"/></g><g id="elem_GMN9"><path d="M477.4,141.05 L477.4,180.0422 A0,0 0 0 0 477.4,180.0422 L574.7,180.0422 A0,0 0 0 0 574.7,180.0422 L574.7,148.05 L567.7,141.05 L528.85,141.05 L526.05,73.206 L523.25,141.05 L477.4,141.05 A0,0 0 0 0 477.4,141.05 " fill="#FEFFDD" style="stroke:#181818;stroke-width:0.3499999999999999;"/><path d="M567.7,141.05 L567.7,148.05 L574.7,148.05 L567.7,141.05 " fill="#FEFFDD" style="stroke:#181818;stroke-width:0.3499999999999999;"/><text fill="#000000" font-family="sans-serif" font-size="9.1" lengthAdjust="spacing" textLength="82.6" x="481.6" y="152.9924">This is defined in the</text><text fill="#000000" font-family="sans-serif" font-size="9.1" lengthAdjust="spacing" textLength="75.6" x="481.6" y="163.6564">scml.setup module</text><text fill="#000000" font-family="sans-serif" font-size="9.1" lengthAdjust="spacing" textLength="79.1" x="481.6" y="174.3205">as well. Generalise?</text></g><!--class DeviceMetadata--><g id="elem_DeviceMetadata"><rect codeLine="24" fill="#F1F1F1" height="68.0531" id="DeviceMetadata" rx="1.75" ry="1.75" style="stroke:#181818;stroke-width:0.3499999999999999;" width="122.5" x="203" y="126.7"/><ellipse cx="228.305" cy="137.9" fill="#B4A7E5" rx="7.7" ry="7.7" style="stroke:#181818;stroke-width:0.6999999999999998;"/><path d="M225.6909,142.1 L231.0612,142.1 L231.0612,140.6234 L229.2566,140.6234 L229.2566,135.8219 L231.0612,135.8219 L231.0612,134.3453 L225.6909,134.3453 L225.6909,135.8219 L227.4956,135.8219 L227.4956,140.6234 L225.6909,140.6234 L225.6909,142.1 Z " fill="#000000"/><text fill="#000000" font-family="sans-serif" font-size="9.8" font-style="italic" lengthAdjust="spacing" textLength="67.2" x="241.395" y="141.2496">DeviceMetadata</text><line style="stroke:#181818;stroke-width:0.3499999999999999;" x1="203.7" x2="324.8" y1="149.1" y2="149.1"/><text fill="#000000" font-family="sans-serif" font-size="9.8" lengthAdjust="spacing" textLength="39.2" x="207.2" y="160.9918">id : string</text><text fill="#000000" font-family="sans-serif" font-size="9.8" lengthAdjust="spacing" textLength="42" x="207.2" y="172.4762">pv : string</text><text fill="#000000" font-family="sans-serif" font-size="9.8" lengthAdjust="spacing" textLength="114.1" x="207.2" y="183.9605">transport_type : Transport</text><line style="stroke:#181818;stroke-width:0.3499999999999999;" x1="203.7" x2="324.8" y1="189.1531" y2="189.1531"/></g><!--class MeasureMetadata--><g id="elem_MeasureMetadata"><rect codeLine="30" fill="#F1F1F1" height="45.0844" id="MeasureMetadata" rx="1.75" ry="1.75" style="stroke:#181818;stroke-width:0.3499999999999999;" width="102.9" x="350" y="138.25"/><ellipse cx="360.5" cy="149.45" fill="#ADD1B2" rx="7.7" ry="7.7" style="stroke:#181818;stroke-width:0.6999999999999998;"/><path d="M360.5328,153.7922 C361.5828,153.7922 362.4469,153.3984 363.0812,152.6547 L362.1187,151.5937 C361.7359,152.0094 361.2766,152.2828 360.7187,152.2828 C359.5484,152.2828 358.7391,151.3531 358.7391,149.7562 C358.7391,148.2031 359.5484,147.2625 360.6422,147.2625 C361.2109,147.2625 361.6266,147.4812 361.9984,147.8203 L362.9609,146.7375 C362.4359,146.2234 361.6266,145.7531 360.6422,145.7531 C358.575,145.7531 356.9453,147.2516 356.9453,149.8219 C356.9453,152.425 358.6078,153.7922 360.5328,153.7922 Z " fill="#000000"/><text fill="#000000" font-family="sans-serif" font-size="9.8" lengthAdjust="spacing" textLength="80.5" x="370.3" y="152.7996">MeasureMetadata</text><line style="stroke:#181818;stroke-width:0.3499999999999999;" x1="350.7" x2="452.2" y1="160.65" y2="160.65"/><text fill="#000000" font-family="sans-serif" font-size="9.8" lengthAdjust="spacing" textLength="48.3" x="354.2" y="172.5418">unit : string</text><line style="stroke:#181818;stroke-width:0.3499999999999999;" x1="350.7" x2="452.2" y1="177.7344" y2="177.7344"/></g><!--class MonitorMetadata--><g id="elem_MonitorMetadata"><rect codeLine="34" fill="#F1F1F1" height="45.0844" id="MonitorMetadata" rx="1.75" ry="1.75" style="stroke:#181818;stroke-width:0.3499999999999999;" width="125.3" x="70.7" y="236.6"/><ellipse cx="92.855" cy="247.8" fill="#ADD1B2" rx="7.7" ry="7.7" style="stroke:#181818;stroke-width:0.6999999999999998;"/><path d="M92.8878,252.1422 C93.9378,252.1422 94.8019,251.7484 95.4362,251.0047 L94.4737,249.9437 C94.0909,250.3594 93.6316,250.6328 93.0737,250.6328 C91.9034,250.6328 91.0941,249.7031 91.0941,248.1062 C91.0941,246.5531 91.9034,245.6125 92.9972,245.6125 C93.5659,245.6125 93.9816,245.8312 94.3534,246.1703 L95.3159,245.0875 C94.7909,244.5734 93.9816,244.1031 92.9972,244.1031 C90.93,244.1031 89.3003,245.6016 89.3003,248.1719 C89.3003,250.775 90.9628,252.1422 92.8878,252.1422 Z " fill="#000000"/><text fill="#000000" font-family="sans-serif" font-size="9.8" lengthAdjust="spacing" textLength="77" x="105.245" y="251.1496">MonitorMetadata</text><line style="stroke:#181818;stroke-width:0.3499999999999999;" x1="71.4" x2="195.3" y1="259" y2="259"/><text fill="#000000" font-family="sans-serif" font-size="9.8" lengthAdjust="spacing" textLength="116.9" x="74.9" y="270.8918">section : Section.MONITOR</text><line style="stroke:#181818;stroke-width:0.3499999999999999;" x1="71.4" x2="195.3" y1="276.0844" y2="276.0844"/></g><!--class MotorMetadata--><g id="elem_MotorMetadata"><rect codeLine="38" fill="#F1F1F1" height="33.6" id="MotorMetadata" rx="1.75" ry="1.75" style="stroke:#181818;stroke-width:0.3499999999999999;" width="91.7" x="347.9" y="242.2"/><ellipse cx="358.4" cy="253.4" fill="#ADD1B2" rx="7.7" ry="7.7" style="stroke:#181818;stroke-width:0.6999999999999998;"/><path d="M358.4328,257.7422 C359.4828,257.7422 360.3469,257.3484 360.9812,256.6047 L360.0187,255.5437 C359.6359,255.9594 359.1766,256.2328 358.6187,256.2328 C357.4484,256.2328 356.6391,255.3031 356.6391,253.7062 C356.6391,252.1531 357.4484,251.2125 358.5422,251.2125 C359.1109,251.2125 359.5266,251.4312 359.8984,251.7703 L360.8609,250.6875 C360.3359,250.1734 359.5266,249.7031 358.5422,249.7031 C356.475,249.7031 354.8453,251.2016 354.8453,253.7719 C354.8453,256.375 356.5078,257.7422 358.4328,257.7422 Z " fill="#000000"/><text fill="#000000" font-family="sans-serif" font-size="9.8" lengthAdjust="spacing" textLength="69.3" x="368.2" y="256.7496">MotorMetadata</text><line style="stroke:#181818;stroke-width:0.3499999999999999;" x1="348.6" x2="438.9" y1="264.6" y2="264.6"/><line style="stroke:#181818;stroke-width:0.3499999999999999;" x1="348.6" x2="438.9" y1="270.2" y2="270.2"/></g><!--class DetectorMetadata--><g id="elem_DetectorMetadata"><rect codeLine="41" fill="#F1F1F1" height="45.0844" id="DetectorMetadata" rx="1.75" ry="1.75" style="stroke:#181818;stroke-width:0.3499999999999999;" width="102.2" x="220.85" y="236.6"/><ellipse cx="231.35" cy="247.8" fill="#ADD1B2" rx="7.7" ry="7.7" style="stroke:#181818;stroke-width:0.6999999999999998;"/><path d="M231.3828,252.1422 C232.4328,252.1422 233.2969,251.7484 233.9312,251.0047 L232.9687,249.9437 C232.5859,250.3594 232.1266,250.6328 231.5687,250.6328 C230.3984,250.6328 229.5891,249.7031 229.5891,248.1062 C229.5891,246.5531 230.3984,245.6125 231.4922,245.6125 C232.0609,245.6125 232.4766,245.8312 232.8484,246.1703 L233.8109,245.0875 C233.2859,244.5734 232.4766,244.1031 231.4922,244.1031 C229.425,244.1031 227.7953,245.6016 227.7953,248.1719 C227.7953,250.775 229.4578,252.1422 231.3828,252.1422 Z " fill="#000000"/><text fill="#000000" font-family="sans-serif" font-size="9.8" lengthAdjust="spacing" textLength="79.8" x="241.15" y="251.1496">DetectorMetadata</text><line style="stroke:#181818;stroke-width:0.3499999999999999;" x1="221.55" x2="322.35" y1="259" y2="259"/><text fill="#000000" font-family="sans-serif" font-size="9.8" lengthAdjust="spacing" textLength="86.1" x="225.05" y="270.8918">normalise_id : string</text><line style="stroke:#181818;stroke-width:0.3499999999999999;" x1="221.55" x2="322.35" y1="276.0844" y2="276.0844"/></g><!--class ExternalMetadata--><g id="elem_ExternalMetadata"><rect codeLine="45" fill="#F1F1F1" height="45.0844" id="ExternalMetadata" rx="1.75" ry="1.75" style="stroke:#181818;stroke-width:0.3499999999999999;" width="100.8" x="603.05" y="236.6"/><ellipse cx="613.55" cy="247.8" fill="#ADD1B2" rx="7.7" ry="7.7" style="stroke:#181818;stroke-width:0.6999999999999998;"/><path d="M613.5828,252.1422 C614.6328,252.1422 615.4969,251.7484 616.1312,251.0047 L615.1687,249.9437 C614.7859,250.3594 614.3266,250.6328 613.7687,250.6328 C612.5984,250.6328 611.7891,249.7031 611.7891,248.1062 C611.7891,246.5531 612.5984,245.6125 613.6922,245.6125 C614.2609,245.6125 614.6766,245.8312 615.0484,246.1703 L616.0109,245.0875 C615.4859,244.5734 614.6766,244.1031 613.6922,244.1031 C611.625,244.1031 609.9953,245.6016 609.9953,248.1719 C609.9953,250.775 611.6578,252.1422 613.5828,252.1422 Z " fill="#000000"/><text fill="#000000" font-family="sans-serif" font-size="9.8" lengthAdjust="spacing" textLength="78.4" x="623.35" y="251.1496">ExternalMetadata</text><line style="stroke:#181818;stroke-width:0.3499999999999999;" x1="603.75" x2="703.15" y1="259" y2="259"/><text fill="#000000" font-family="sans-serif" font-size="9.8" lengthAdjust="spacing" textLength="61.6" x="607.25" y="270.8918">format : string</text><line style="stroke:#181818;stroke-width:0.3499999999999999;" x1="603.75" x2="703.15" y1="276.0844" y2="276.0844"/></g><!--class TimestampMetadata--><g id="elem_TimestampMetadata"><rect codeLine="49" fill="#F1F1F1" height="45.0844" id="TimestampMetadata" rx="1.75" ry="1.75" style="stroke:#181818;stroke-width:0.3499999999999999;" width="114.1" x="464.1" y="236.6"/><ellipse cx="474.6" cy="247.8" fill="#ADD1B2" rx="7.7" ry="7.7" style="stroke:#181818;stroke-width:0.6999999999999998;"/><path d="M474.6328,252.1422 C475.6828,252.1422 476.5469,251.7484 477.1812,251.0047 L476.2187,249.9437 C475.8359,250.3594 475.3766,250.6328 474.8187,250.6328 C473.6484,250.6328 472.8391,249.7031 472.8391,248.1062 C472.8391,246.5531 473.6484,245.6125 474.7422,245.6125 C475.3109,245.6125 475.7266,245.8312 476.0984,246.1703 L477.0609,245.0875 C476.5359,244.5734 475.7266,244.1031 474.7422,244.1031 C472.675,244.1031 471.0453,245.6016 471.0453,248.1719 C471.0453,250.775 472.7078,252.1422 474.6328,252.1422 Z " fill="#000000"/><text fill="#000000" font-family="sans-serif" font-size="9.8" lengthAdjust="spacing" textLength="91.7" x="484.4" y="251.1496">TimestampMetadata</text><line style="stroke:#181818;stroke-width:0.3499999999999999;" x1="464.8" x2="577.5" y1="259" y2="259"/><text fill="#000000" font-family="sans-serif" font-size="9.8" lengthAdjust="spacing" textLength="98.7" x="468.3" y="270.8918">section : Section.META</text><line style="stroke:#181818;stroke-width:0.3499999999999999;" x1="464.8" x2="577.5" y1="276.0844" y2="276.0844"/></g><!--class AverageDetectorMetadata--><g id="elem_AverageDetectorMetadata"><rect codeLine="53" fill="#F1F1F1" height="68.0531" id="AverageDetectorMetadata" rx="1.75" ry="1.75" style="stroke:#181818;stroke-width:0.3499999999999999;" width="137.9" x="42" y="323.4"/><ellipse cx="52.5" cy="334.6" fill="#ADD1B2" rx="7.7" ry="7.7" style="stroke:#181818;stroke-width:0.6999999999999998;"/><path d="M52.5328,338.9422 C53.5828,338.9422 54.4469,338.5484 55.0812,337.8047 L54.1187,336.7437 C53.7359,337.1594 53.2766,337.4328 52.7187,337.4328 C51.5484,337.4328 50.7391,336.5031 50.7391,334.9062 C50.7391,333.3531 51.5484,332.4125 52.6422,332.4125 C53.2109,332.4125 53.6266,332.6312 53.9984,332.9703 L54.9609,331.8875 C54.4359,331.3734 53.6266,330.9031 52.6422,330.9031 C50.575,330.9031 48.9453,332.4016 48.9453,334.9719 C48.9453,337.575 50.6078,338.9422 52.5328,338.9422 Z " fill="#000000"/><text fill="#000000" font-family="sans-serif" font-size="9.8" lengthAdjust="spacing" textLength="115.5" x="62.3" y="337.9496">AverageDetectorMetadata</text><line style="stroke:#181818;stroke-width:0.3499999999999999;" x1="42.7" x2="179.2" y1="345.8" y2="345.8"/><text fill="#000000" font-family="sans-serif" font-size="9.8" lengthAdjust="spacing" textLength="64.4" x="46.2" y="357.6918">low_limit : float</text><text fill="#000000" font-family="sans-serif" font-size="9.8" lengthAdjust="spacing" textLength="99.4" x="46.2" y="369.1762">max_attempts : integer</text><text fill="#000000" font-family="sans-serif" font-size="9.8" lengthAdjust="spacing" textLength="89.6" x="46.2" y="380.6605">max_deviation : float</text><line style="stroke:#181818;stroke-width:0.3499999999999999;" x1="42.7" x2="179.2" y1="385.8531" y2="385.8531"/></g><g id="elem_GMN23"><path d="M4.2,433.3 L4.2,504.2844 A0,0 0 0 0 4.2,504.2844 L217.7,504.2844 A0,0 0 0 0 217.7,504.2844 L217.7,440.3 L210.7,433.3 L113.75,433.3 L110.95,391.321 L108.15,433.3 L4.2,433.3 A0,0 0 0 0 4.2,433.3 " fill="#FEFFDD" style="stroke:#181818;stroke-width:0.3499999999999999;"/><path d="M210.7,433.3 L210.7,440.3 L217.7,440.3 L210.7,433.3 " fill="#FEFFDD" style="stroke:#181818;stroke-width:0.3499999999999999;"/><text fill="#000000" font-family="sans-serif" font-size="9.1" lengthAdjust="spacing" textLength="196" x="8.4" y="445.2424">These attributes may change for individual values</text><text fill="#000000" font-family="sans-serif" font-size="9.1" lengthAdjust="spacing" textLength="198.8" x="8.4" y="455.9064">and are currently saved in eveH5 for each position.</text><text fill="#000000" font-family="sans-serif" font-size="9.1" lengthAdjust="spacing" textLength="2.1" x="8.4" y="466.5705">&#160;</text><text fill="#000000" font-family="sans-serif" font-size="9.1" lengthAdjust="spacing" textLength="163.8" x="8.4" y="477.2346">If we go for separate detectors if they are</text><text fill="#000000" font-family="sans-serif" font-size="9.1" lengthAdjust="spacing" textLength="143.5" x="8.4" y="487.8986">redefined in different scan modules,</text><text fill="#000000" font-family="sans-serif" font-size="9.1" lengthAdjust="spacing" textLength="116.9" x="8.4" y="498.5627">would this solve the problem?</text></g><!--class IntervalDetectorMetadata--><g id="elem_IntervalDetectorMetadata"><rect codeLine="67" fill="#F1F1F1" height="45.0844" id="IntervalDetectorMetadata" rx="1.75" ry="1.75" style="stroke:#181818;stroke-width:0.3499999999999999;" width="135.1" x="204.4" y="334.95"/><ellipse cx="214.9" cy="346.15" fill="#ADD1B2" rx="7.7" ry="7.7" style="stroke:#181818;stroke-width:0.6999999999999998;"/><path d="M214.9328,350.4922 C215.9828,350.4922 216.8469,350.0984 217.4812,349.3547 L216.5187,348.2937 C216.1359,348.7094 215.6766,348.9828 215.1187,348.9828 C213.9484,348.9828 213.1391,348.0531 213.1391,346.4562 C213.1391,344.9031 213.9484,343.9625 215.0422,343.9625 C215.6109,343.9625 216.0266,344.1812 216.3984,344.5203 L217.3609,343.4375 C216.8359,342.9234 216.0266,342.4531 215.0422,342.4531 C212.975,342.4531 211.3453,343.9516 211.3453,346.5219 C211.3453,349.125 213.0078,350.4922 214.9328,350.4922 Z " fill="#000000"/><text fill="#000000" font-family="sans-serif" font-size="9.8" lengthAdjust="spacing" textLength="112.7" x="224.7" y="349.4996">IntervalDetectorMetadata</text><line style="stroke:#181818;stroke-width:0.3499999999999999;" x1="205.1" x2="338.8" y1="357.35" y2="357.35"/><text fill="#000000" font-family="sans-serif" font-size="9.8" lengthAdjust="spacing" textLength="91.7" x="208.6" y="369.2418">trigger_interval : float</text><line style="stroke:#181818;stroke-width:0.3499999999999999;" x1="205.1" x2="338.8" y1="374.4344" y2="374.4344"/></g><!--class ArrayDetectorMetadata--><g id="elem_ArrayDetectorMetadata"><rect codeLine="71" fill="#F1F1F1" height="33.6" id="ArrayDetectorMetadata" rx="1.75" ry="1.75" style="stroke:#181818;stroke-width:0.3499999999999999;" width="126" x="364.35" y="340.55"/><ellipse cx="374.85" cy="351.75" fill="#ADD1B2" rx="7.7" ry="7.7" style="stroke:#181818;stroke-width:0.6999999999999998;"/><path d="M374.8828,356.0922 C375.9328,356.0922 376.7969,355.6984 377.4312,354.9547 L376.4687,353.8937 C376.0859,354.3094 375.6266,354.5828 375.0687,354.5828 C373.8984,354.5828 373.0891,353.6531 373.0891,352.0562 C373.0891,350.5031 373.8984,349.5625 374.9922,349.5625 C375.5609,349.5625 375.9766,349.7812 376.3484,350.1203 L377.3109,349.0375 C376.7859,348.5234 375.9766,348.0531 374.9922,348.0531 C372.925,348.0531 371.2953,349.5516 371.2953,352.1219 C371.2953,354.725 372.9578,356.0922 374.8828,356.0922 Z " fill="#000000"/><text fill="#000000" font-family="sans-serif" font-size="9.8" lengthAdjust="spacing" textLength="103.6" x="384.65" y="355.0996">ArrayDetectorMetadata</text><line style="stroke:#181818;stroke-width:0.3499999999999999;" x1="365.05" x2="489.65" y1="362.95" y2="362.95"/><line style="stroke:#181818;stroke-width:0.3499999999999999;" x1="365.05" x2="489.65" y1="368.55" y2="368.55"/></g><!--reverse link DeviceMetadata to MonitorMetadata--><g id="link_DeviceMetadata_MonitorMetadata"><path d="M209.0802,202.2119 C190.3692,216.0719 179.312,224.259 162.666,236.586 " fill="none" id="DeviceMetadata-backto-MonitorMetadata" style="stroke:#181818;stroke-width:0.6999999999999998;stroke-dasharray:7.0,7.0;"/><polygon fill="none" points="219.205,194.712,206.5802,198.8369,211.5801,205.5868,219.205,194.712" style="stroke:#181818;stroke-width:0.6999999999999998;"/></g><!--reverse link DeviceMetadata to MotorMetadata--><g id="link_DeviceMetadata_MotorMetadata"><path d="M318.9045,202.2646 C340.3385,218.3156 354.97,229.264 372.19,242.158 " fill="none" id="DeviceMetadata-backto-MotorMetadata" style="stroke:#181818;stroke-width:0.6999999999999998;stroke-dasharray:7.0,7.0;"/><polygon fill="none" points="308.819,194.712,316.387,205.6265,321.4221,198.9028,308.819,194.712" style="stroke:#181818;stroke-width:0.6999999999999998;"/></g><!--reverse link DeviceMetadata to DetectorMetadata--><g id="link_DeviceMetadata_DetectorMetadata"><path d="M267.8967,207.2728 C268.9887,221.0768 269.234,224.14 270.214,236.439 " fill="none" id="DeviceMetadata-backto-DetectorMetadata" style="stroke:#181818;stroke-width:0.6999999999999998;stroke-dasharray:7.0,7.0;"/><polygon fill="none" points="266.903,194.712,263.7097,207.604,272.0836,206.9415,266.903,194.712" style="stroke:#181818;stroke-width:0.6999999999999998;"/></g><!--reverse link Data to Metadata--><g id="link_Data_Metadata"><path codeLine="74" d="M95.865,44.8 C103.873,44.8 103.481,44.8 111.482,44.8 " fill="none" id="Data-backto-Metadata" style="stroke:#181818;stroke-width:0.6999999999999998;"/><polygon fill="#181818" points="87.465,44.8,91.665,47.6,95.865,44.8,91.665,42,87.465,44.8" style="stroke:#181818;stroke-width:0.6999999999999998;"/></g><!--reverse link Metadata to MeasureMetadata--><g id="link_Metadata_MeasureMetadata"><path codeLine="75" d="M201.684,66.4104 C239.757,82.2444 287.385,102.655 337.75,126.7 C345.296,130.298 353.248,134.295 360.892,138.229 " fill="none" id="Metadata-backto-MeasureMetadata" style="stroke:#181818;stroke-width:0.6999999999999998;"/><polygon fill="none" points="190.05,61.572,200.0712,70.2884,203.2968,62.5324,190.05,61.572" style="stroke:#181818;stroke-width:0.6999999999999998;"/></g><!--reverse link Metadata to MonitorMetadata--><g id="link_Metadata_MonitorMetadata"><path codeLine="76" d="M147.5289,85.8757 C144.0009,128.7997 138.334,197.715 135.135,236.6 " fill="none" id="Metadata-backto-MonitorMetadata" style="stroke:#181818;stroke-width:0.6999999999999998;"/><polygon fill="none" points="148.561,73.318,143.343,85.5316,151.7147,86.2197,148.561,73.318" style="stroke:#181818;stroke-width:0.6999999999999998;"/></g><!--reverse link MeasureMetadata to DetectorMetadata--><g id="link_MeasureMetadata_DetectorMetadata"><path codeLine="77" d="M362.2996,190.6575 C341.0476,206.5685 322.42,220.514 301.14,236.446 " fill="none" id="MeasureMetadata-backto-DetectorMetadata" style="stroke:#181818;stroke-width:0.6999999999999998;"/><polygon fill="none" points="372.386,183.106,359.7825,187.2954,364.8168,194.0196,372.386,183.106" style="stroke:#181818;stroke-width:0.6999999999999998;"/></g><!--reverse link MeasureMetadata to MotorMetadata--><g id="link_MeasureMetadata_MotorMetadata"><path codeLine="78" d="M398.7219,195.6663 C397.3009,213.5303 396.326,225.876 395.038,242.046 " fill="none" id="MeasureMetadata-backto-MotorMetadata" style="stroke:#181818;stroke-width:0.6999999999999998;"/><polygon fill="none" points="399.721,183.106,394.5351,195.3333,402.9087,195.9994,399.721,183.106" style="stroke:#181818;stroke-width:0.6999999999999998;"/></g><!--reverse link MeasureMetadata to ExternalMetadata--><g id="link_MeasureMetadata_ExternalMetadata"><path codeLine="79" d="M451.9691,188.8025 C459.9421,192.8625 457.114,191.184 465.15,194.6 C519.197,217.595 534.842,217.7 590.45,236.6 C594.503,237.979 598.703,239.407 602.917,240.849 " fill="none" id="MeasureMetadata-backto-ExternalMetadata" style="stroke:#181818;stroke-width:0.6999999999999998;"/><polygon fill="none" points="440.741,183.085,450.0632,192.5452,453.8749,185.0599,440.741,183.085" style="stroke:#181818;stroke-width:0.6999999999999998;"/></g><!--reverse link MeasureMetadata to TimestampMetadata--><g id="link_MeasureMetadata_TimestampMetadata"><path codeLine="80" d="M438.1068,191.037 C457.7488,206.948 474.495,220.514 494.172,236.446 " fill="none" id="MeasureMetadata-backto-TimestampMetadata" style="stroke:#181818;stroke-width:0.6999999999999998;"/><polygon fill="none" points="428.316,183.106,435.4631,194.3006,440.7504,187.7734,428.316,183.106" style="stroke:#181818;stroke-width:0.6999999999999998;"/></g><!--reverse link DetectorMetadata to AverageDetectorMetadata--><g id="link_DetectorMetadata_AverageDetectorMetadata"><path codeLine="81" d="M225.0227,287.9571 C204.5337,300.2981 189.266,309.491 166.25,323.351 " fill="none" id="DetectorMetadata-backto-AverageDetectorMetadata" style="stroke:#181818;stroke-width:0.6999999999999998;"/><polygon fill="none" points="235.816,281.456,222.8556,284.3593,227.1897,291.5549,235.816,281.456" style="stroke:#181818;stroke-width:0.6999999999999998;"/></g><!--reverse link DetectorMetadata to IntervalDetectorMetadata--><g id="link_DetectorMetadata_IntervalDetectorMetadata"><path codeLine="82" d="M271.95,294.056 C271.95,309.911 271.95,318.717 271.95,334.628 " fill="none" id="DetectorMetadata-backto-IntervalDetectorMetadata" style="stroke:#181818;stroke-width:0.6999999999999998;"/><polygon fill="none" points="271.95,281.456,267.75,294.056,276.15,294.056,271.95,281.456" style="stroke:#181818;stroke-width:0.6999999999999998;"/></g><!--reverse link DetectorMetadata to ArrayDetectorMetadata--><g id="link_DetectorMetadata_ArrayDetectorMetadata"><path codeLine="83" d="M317.5146,288.1246 C346.2426,306.0446 375.634,324.387 401.541,340.55 " fill="none" id="DetectorMetadata-backto-ArrayDetectorMetadata" style="stroke:#181818;stroke-width:0.6999999999999998;"/><polygon fill="none" points="306.824,281.456,315.2918,291.6882,319.7375,284.5611,306.824,281.456" style="stroke:#181818;stroke-width:0.6999999999999998;"/></g><!--SRC=[ZLHDQ-Cm4BthLynvsUIsbx9GJ5EsWIPP6Xy3OMAD7O4-Z2Gx3RlzxolB7qqSXsqmn9BUUvfvC-DCedEm8eySFS8V1k6dKH4yWFDMw2BkECgyC3fiRjitzi5O5hcBblV1jF441-EzKGsCW0iiB2h8ZTtfAAyChoJD6IDTgLwgktIR9kj5yhPe5-laz_PbayR5QhDUffktzlqvJPgxeq1gKRlIMDz9F2NnxtNpbBoE0qgFma5uEEL24mUXmHzffrscvDoHhyekkfr61oUISWw_I9D5AHmzCYQq9vjZHh2WMcGqyapmQyVA-dhj-rZt_bmsxWx1Vrgv8dIL7IjNMlXFhK-m2Vl63c2XIacAj7VJ0TwKSDxxUY7vDS5Oxhxyv8FSLscnkunLqTJzfMU3uFDxy5cZ78MVDwmf7rAXo7bKvV_pxNgdvILrg6r1D_6tR6bEUobKT3wN1dtSLVY-H-z9bI6x1sXQeY0x7F6GBtQNjgIh9eouz4YE88XOSQWykK0yGtP4NL2JOz3aeXQyGWaroefSPA7cW9OWgwmDriepEApRBgQQNdv4Ac5sXD8u4RDbaRZCGoz3OIB0KOaMGpoyIpfCHDwCmRaHZtXB5mF2HPvJSn-u37Kt7-vx19vC9NdWXf5oHjRKo41fpI4K_p6C9uScyzxiPJCy8PyxRWSpYc3aNdIm2__wQbcBvmbs0CGFqBVPy15Zm_7FlxFPUAZ6fzTJnCOZ647ZUwTHLzCp3HdtzZJgfgFPJU8HTwU3xw3lbU2U-9JXx1y0]--></g></svg>