<?xml version="1.0" encoding="us-ascii" standalone="no"?><svg xmlns="http://www.w3.org/2000/svg" xmlns:xlink="http://www.w3.org/1999/xlink" contentStyleType="text/css" height="334px" preserveAspectRatio="none" style="width:708px;height:334px;background:#FFFFFF;" version="1.1" viewBox="0 0 708 334" width="708px" zoomAndPan="magnify"><defs/><g><!--class Plugin--><g id="elem_Plugin"><rect codeLine="4" fill="#F1F1F1" height="113.625" id="Plugin" rx="2.5" ry="2.5" style="stroke:#181818;stroke-width:0.5;" width="199" x="502" y="7"/><ellipse cx="577.75" cy="23" fill="#ADD1B2" rx="11" ry="11" style="stroke:#181818;stroke-width:1.0;"/><path d="M577.7969,29.2031 C579.2969,29.2031 580.5313,28.6406 581.4375,27.5781 L580.0625,26.0625 C579.5156,26.6563 578.8594,27.0469 578.0625,27.0469 C576.3906,27.0469 575.2344,25.7188 575.2344,23.4375 C575.2344,21.2188 576.3906,19.875 577.9531,19.875 C578.7656,19.875 579.3594,20.1875 579.8906,20.6719 L581.2656,19.125 C580.5156,18.3906 579.3594,17.7188 577.9531,17.7188 C575,17.7188 572.6719,19.8594 572.6719,23.5313 C572.6719,27.25 575.0469,29.2031 577.7969,29.2031 Z " fill="#000000"/><text fill="#000000" font-family="sans-serif" font-size="14" lengthAdjust="spacing" textLength="39" x="598.25" y="27.7852">Plugin</text><line style="stroke:#181818;stroke-width:0.5;" x1="503" x2="700" y1="39" y2="39"/><text fill="#000000" font-family="sans-serif" font-size="14" lengthAdjust="spacing" textLength="80" x="508" y="55.9883">name : string</text><text fill="#000000" font-family="sans-serif" font-size="14" lengthAdjust="spacing" textLength="95" x="508" y="72.3945">location : string</text><text fill="#000000" font-family="sans-serif" font-size="14" lengthAdjust="spacing" textLength="187" x="508" y="88.8008">parameter : PluginParameter[]</text><text fill="#000000" font-family="sans-serif" font-size="14" lengthAdjust="spacing" textLength="105" x="508" y="105.207">type : PluginType</text><line style="stroke:#181818;stroke-width:0.5;" x1="503" x2="700" y1="112.625" y2="112.625"/></g><!--class PluginParameter--><g id="elem_PluginParameter"><rect codeLine="37" fill="#F1F1F1" height="130.0313" id="PluginParameter" rx="2.5" ry="2.5" style="stroke:#181818;stroke-width:0.5;" width="146" x="528.5" y="189"/><ellipse cx="547.55" cy="205" fill="#ADD1B2" rx="11" ry="11" style="stroke:#181818;stroke-width:1.0;"/><path d="M547.5969,211.2031 C549.0969,211.2031 550.3313,210.6406 551.2375,209.5781 L549.8625,208.0625 C549.3156,208.6563 548.6594,209.0469 547.8625,209.0469 C546.1906,209.0469 545.0344,207.7188 545.0344,205.4375 C545.0344,203.2188 546.1906,201.875 547.7531,201.875 C548.5656,201.875 549.1594,202.1875 549.6906,202.6719 L551.0656,201.125 C550.3156,200.3906 549.1594,199.7188 547.7531,199.7188 C544.8,199.7188 542.4719,201.8594 542.4719,205.5313 C542.4719,209.25 544.8469,211.2031 547.5969,211.2031 Z " fill="#000000"/><text fill="#000000" font-family="sans-serif" font-size="14" lengthAdjust="spacing" textLength="105" x="562.45" y="209.7852">PluginParameter</text><line style="stroke:#181818;stroke-width:0.5;" x1="529.5" x2="673.5" y1="221" y2="221"/><text fill="#000000" font-family="sans-serif" font-size="14" lengthAdjust="spacing" textLength="78" x="534.5" y="237.9883">value : string</text><text fill="#000000" font-family="sans-serif" font-size="14" lengthAdjust="spacing" textLength="80" x="534.5" y="254.3945">name : string</text><text fill="#000000" font-family="sans-serif" font-size="14" lengthAdjust="spacing" textLength="134" x="534.5" y="270.8008">datatype : PluginData</text><text fill="#000000" font-family="sans-serif" font-size="14" lengthAdjust="spacing" textLength="89" x="534.5" y="287.207">default : string</text><text fill="#000000" font-family="sans-serif" font-size="14" lengthAdjust="spacing" textLength="128" x="534.5" y="303.6133">mandatory : boolean</text><line style="stroke:#181818;stroke-width:0.5;" x1="529.5" x2="673.5" y1="311.0313" y2="311.0313"/></g><!--class PluginType--><g id="elem_PluginType"><rect codeLine="14" fill="#F1F1F1" height="113.625" id="PluginType" rx="2.5" ry="2.5" style="stroke:#181818;stroke-width:0.5;" width="280" x="186.5" y="7"/><ellipse cx="287.75" cy="23" fill="#EB937F" rx="11" ry="11" style="stroke:#181818;stroke-width:1.0;"/><path d="M283.8125,29 L291.3281,29 L291.3281,26.8906 L286.3281,26.8906 L286.3281,24.3438 L290.4219,24.3438 L290.4219,22.25 L286.3281,22.25 L286.3281,20.0313 L291.1563,20.0313 L291.1563,17.9219 L283.8125,17.9219 L283.8125,29 Z " fill="#000000"/><text fill="#000000" font-family="sans-serif" font-size="14" lengthAdjust="spacing" textLength="69" x="308.25" y="27.7852">PluginType</text><line style="stroke:#181818;stroke-width:0.5;" x1="187.5" x2="465.5" y1="39" y2="39"/><text fill="#000000" font-family="sans-serif" font-size="14" lengthAdjust="spacing" textLength="114" x="192.5" y="55.9883">position = position</text><text fill="#000000" font-family="sans-serif" font-size="14" lengthAdjust="spacing" textLength="70" x="192.5" y="72.3945">save = HDF</text><text fill="#000000" font-family="sans-serif" font-size="14" lengthAdjust="spacing" textLength="102" x="192.5" y="88.8008">display = display</text><text fill="#000000" font-family="sans-serif" font-size="14" lengthAdjust="spacing" textLength="268" x="192.5" y="105.207">postscanpositioning = postscanpositioning</text><line style="stroke:#181818;stroke-width:0.5;" x1="187.5" x2="465.5" y1="112.625" y2="112.625"/></g><path d="M6,21 L6,61.4688 A0,0 0 0 0 6,61.4688 L151,61.4688 A0,0 0 0 0 151,61.4688 L151,45.2344 L190.5,67.6094 L151,37.2344 L151,31 L141,21 L6,21 A0,0 0 0 0 6,21 " fill="#FEFFDD" style="stroke:#181818;stroke-width:0.5;"/><path d="M141,21 L141,31 L151,31 L141,21 " fill="#FEFFDD" style="stroke:#181818;stroke-width:0.5;"/><text fill="#000000" font-family="sans-serif" font-size="13" lengthAdjust="spacing" textLength="96" x="12" y="38.0605">There is only one</text><text fill="#000000" font-family="sans-serif" font-size="13" lengthAdjust="spacing" textLength="124" x="12" y="53.2949">save plugin left: HDF5</text><path d="M6,71.4688 L6,96.7031 A0,0 0 0 0 6,96.7031 L119,96.7031 A0,0 0 0 0 119,96.7031 L119,89.4688 L190.5,84.0156 L119,81.4688 L119,81.4688 L109,71.4688 L6,71.4688 A0,0 0 0 0 6,71.4688 " fill="#FEFFDD" style="stroke:#181818;stroke-width:0.5;"/><path d="M109,71.4688 L109,81.4688 L119,81.4688 L109,71.4688 " fill="#FEFFDD" style="stroke:#181818;stroke-width:0.5;"/><text fill="#000000" font-family="sans-serif" font-size="13" lengthAdjust="spacing" textLength="92" x="12" y="88.5293">What are these?</text><!--class PluginData--><g id="elem_PluginData"><rect codeLine="28" fill="#F1F1F1" height="146.4375" id="PluginData" rx="2.5" ry="2.5" style="stroke:#181818;stroke-width:0.5;" width="146" x="347.5" y="181"/><ellipse cx="382.75" cy="197" fill="#EB937F" rx="11" ry="11" style="stroke:#181818;stroke-width:1.0;"/><path d="M378.8125,203 L386.3281,203 L386.3281,200.8906 L381.3281,200.8906 L381.3281,198.3438 L385.4219,198.3438 L385.4219,196.25 L381.3281,196.25 L381.3281,194.0313 L386.1563,194.0313 L386.1563,191.9219 L378.8125,191.9219 L378.8125,203 Z " fill="#000000"/><text fill="#000000" font-family="sans-serif" font-size="14" lengthAdjust="spacing" textLength="69" x="401.25" y="201.7852">PluginData</text><line style="stroke:#181818;stroke-width:0.5;" x1="348.5" x2="492.5" y1="213" y2="213"/><text fill="#000000" font-family="sans-serif" font-size="14" lengthAdjust="spacing" textLength="46" x="353.5" y="229.9883">int = int</text><text fill="#000000" font-family="sans-serif" font-size="14" lengthAdjust="spacing" textLength="98" x="353.5" y="246.3945">double = double</text><text fill="#000000" font-family="sans-serif" font-size="14" lengthAdjust="spacing" textLength="86" x="353.5" y="262.8008">string = string</text><text fill="#000000" font-family="sans-serif" font-size="14" lengthAdjust="spacing" textLength="86" x="353.5" y="279.207">axisid = axisid</text><text fill="#000000" font-family="sans-serif" font-size="14" lengthAdjust="spacing" textLength="134" x="353.5" y="295.6133">channelid = channelid</text><text fill="#000000" font-family="sans-serif" font-size="14" lengthAdjust="spacing" textLength="114" x="353.5" y="312.0195">deviceid = deviceid</text><line style="stroke:#181818;stroke-width:0.5;" x1="348.5" x2="492.5" y1="319.4375" y2="319.4375"/></g><!--reverse link Plugin to PluginParameter--><g id="link_Plugin_PluginParameter"><path codeLine="11" d="M601.5,133.15 C601.5,154.47 601.5,166.9 601.5,188.89 " fill="none" id="Plugin-backto-PluginParameter" style="stroke:#181818;stroke-width:1.0;"/><polygon fill="#181818" points="601.5,121.15,597.5,127.15,601.5,133.15,605.5,127.15,601.5,121.15" style="stroke:#181818;stroke-width:1.0;"/><text fill="#000000" font-family="sans-serif" font-size="13" lengthAdjust="spacing" textLength="7" x="594.1172" y="178.0199">n</text></g><!--reverse link PluginType to Plugin--><g id="link_PluginType_Plugin"><path codeLine="12" d="M478.69,64 C490.45,64 490.21,64 501.97,64 " fill="none" id="PluginType-backto-Plugin" style="stroke:#181818;stroke-width:1.0;"/><polygon fill="#181818" points="466.69,64,472.69,68,478.69,64,472.69,60,466.69,64" style="stroke:#181818;stroke-width:1.0;"/></g><!--reverse link PluginData to PluginParameter--><g id="link_PluginData_PluginParameter"><path codeLine="44" d="M505.68,254 C517.19,254 516.7,254 528.21,254 " fill="none" id="PluginData-backto-PluginParameter" style="stroke:#181818;stroke-width:1.0;"/><polygon fill="#181818" points="493.68,254,499.68,258,505.68,254,499.68,250,493.68,254" style="stroke:#181818;stroke-width:1.0;"/></g><!--SRC=[TL8zQyCm4DtrAqIMGY7rrCLGkeJICKEWG-bmiI-nG3uPwnngIlzxJv8_LDDwCATtUa_lFkuQviwNHT5P81vQ-r2vjgWiUB-l3LnxQ9LIyQoFThWQqbzAXu-WHLrgpxsXQuAigu2DemtSWQWWOozuqZZEoFj7ki9ZXqls90VrhTJqtlr-htUqsrBLUbckJ5cba8OsqvdSTiwRwEnf2IFkuOQ2lHvUuh4sNlem2Z95Cvbz1JGpfR2aiqN5D3b6RV72sbqo6sKPNefgfmPxrCPhHtQK7wv6kbHme9V1qwDKK-iW-RzkRlIj0TOWwjoWn-ULdNVb00nJLmon52B_LBmRpZPq8mN9LXoZODayuTDuKmkMWeXL3H2XZV0I9rMycGfZOWx3RFEDMaOwhzODxB3ThJ_MhPPAVYrEA6rAuGK6onj22oGSru-2dvsp22HUihOiUxHksGy0]--></g></svg>