<?xml version="1.0" encoding="us-ascii" standalone="no"?><svg xmlns="http://www.w3.org/2000/svg" xmlns:xlink="http://www.w3.org/1999/xlink" contentStyleType="text/css" height="379.8px" preserveAspectRatio="none" style="width:510px;height:379px;background:#FFFFFF;" version="1.1" viewBox="0 0 510 379" width="510.6px" zoomAndPan="magnify"><defs/><g><!--class Data--><g id="elem_Data"><rect codeLine="3" fill="#F1F1F1" height="48.4875" id="Data" rx="1.5" ry="1.5" style="stroke:#181818;stroke-width:0.3;" width="85.8" x="196.5" y="4.2"/><ellipse cx="227.85" cy="13.8" fill="#ADD1B2" rx="6.6" ry="6.6" style="stroke:#181818;stroke-width:0.6;"/><path d="M227.8781,17.5219 C228.7781,17.5219 229.5187,17.1844 230.0625,16.5469 L229.2375,15.6375 C228.9094,15.9937 228.5156,16.2281 228.0375,16.2281 C227.0344,16.2281 226.3406,15.4312 226.3406,14.0625 C226.3406,12.7313 227.0344,11.925 227.9719,11.925 C228.4594,11.925 228.8156,12.1125 229.1344,12.4031 L229.9594,11.475 C229.5094,11.0344 228.8156,10.6313 227.9719,10.6313 C226.2,10.6313 224.8031,11.9156 224.8031,14.1188 C224.8031,16.35 226.2281,17.5219 227.8781,17.5219 Z " fill="#000000"/><text fill="#000000" font-family="sans-serif" font-size="8.4" lengthAdjust="spacing" textLength="18" x="240.15" y="16.6711">Data</text><line style="stroke:#181818;stroke-width:0.3;" x1="197.1" x2="281.7" y1="23.4" y2="23.4"/><text fill="#000000" font-family="sans-serif" font-size="8.4" lengthAdjust="spacing" textLength="78.6" x="200.1" y="33.593">metadata : Metadata</text><text fill="#000000" font-family="sans-serif" font-size="8.4" lengthAdjust="spacing" textLength="70.8" x="200.1" y="43.4367">values : np.ndarray</text><line style="stroke:#181818;stroke-width:0.3;" x1="197.1" x2="281.7" y1="47.8875" y2="47.8875"/></g><path d="M24.9,4.2 L24.9,46.7625 A0,0 0 0 0 24.9,46.7625 L175.5,46.7625 A0,0 0 0 0 175.5,46.7625 L175.5,27.8812 L198.9,40.5656 L175.5,23.0813 L175.5,10.2 L169.5,4.2 L24.9,4.2 A0,0 0 0 0 24.9,4.2 " fill="#FEFFDD" style="stroke:#181818;stroke-width:0.3;"/><path d="M169.5,4.2 L169.5,10.2 L175.5,10.2 L169.5,4.2 " fill="#FEFFDD" style="stroke:#181818;stroke-width:0.3;"/><text fill="#000000" font-family="sans-serif" font-size="7.8" lengthAdjust="spacing" textLength="96" x="28.5" y="14.4363">"values" contains a 1D array.</text><text fill="#000000" font-family="sans-serif" font-size="7.8" lengthAdjust="spacing" textLength="138" x="28.5" y="23.577">For individual values see derived classes</text><text fill="#000000" font-family="sans-serif" font-size="7.8" lengthAdjust="spacing" textLength="87.6" x="28.5" y="32.7176">AverageDetectorData and</text><text fill="#000000" font-family="sans-serif" font-size="7.8" lengthAdjust="spacing" textLength="70.8" x="28.5" y="41.8582">IntervalDetectorData</text><!--class Metadata--><g id="elem_Metadata"><rect codeLine="14" fill="#F1F1F1" height="28.8" id="Metadata" rx="1.5" ry="1.5" style="stroke:#181818;stroke-width:0.3;" width="55.8" x="57.3" y="93.6"/><ellipse cx="66.3" cy="103.2" fill="#ADD1B2" rx="6.6" ry="6.6" style="stroke:#181818;stroke-width:0.6;"/><path d="M66.3281,106.9219 C67.2281,106.9219 67.9688,106.5844 68.5125,105.9469 L67.6875,105.0375 C67.3594,105.3938 66.9656,105.6281 66.4875,105.6281 C65.4844,105.6281 64.7906,104.8313 64.7906,103.4625 C64.7906,102.1313 65.4844,101.325 66.4219,101.325 C66.9094,101.325 67.2656,101.5125 67.5844,101.8031 L68.4094,100.875 C67.9594,100.4344 67.2656,100.0313 66.4219,100.0313 C64.65,100.0313 63.2531,101.3156 63.2531,103.5188 C63.2531,105.75 64.6781,106.9219 66.3281,106.9219 Z " fill="#000000"/><text fill="#000000" font-family="sans-serif" font-size="8.4" lengthAdjust="spacing" textLength="36.6" x="74.7" y="106.0711">Metadata</text><line style="stroke:#181818;stroke-width:0.3;" x1="57.9" x2="112.5" y1="112.8" y2="112.8"/><line style="stroke:#181818;stroke-width:0.3;" x1="57.9" x2="112.5" y1="117.6" y2="117.6"/></g><g id="elem_GMN6"><path d="M15.3,165.6 L15.3,189.8813 A0,0 0 0 0 15.3,189.8813 L102.3,189.8813 A0,0 0 0 0 102.3,189.8813 L102.3,171.6 L96.3,165.6 L65.658,165.6 L79.86,122.442 L60.858,165.6 L15.3,165.6 A0,0 0 0 0 15.3,165.6 " fill="#FEFFDD" style="stroke:#181818;stroke-width:0.3;"/><path d="M96.3,165.6 L96.3,171.6 L102.3,171.6 L96.3,165.6 " fill="#FEFFDD" style="stroke:#181818;stroke-width:0.3;"/><text fill="#000000" font-family="sans-serif" font-size="7.8" lengthAdjust="spacing" textLength="74.4" x="18.9" y="175.8363">See separate diagram</text><text fill="#000000" font-family="sans-serif" font-size="7.8" lengthAdjust="spacing" textLength="63" x="18.9" y="184.977">for class hierarchy</text></g><!--class MeasureData--><g id="elem_MeasureData"><rect codeLine="18" fill="#F1F1F1" height="38.6438" id="MeasureData" rx="1.5" ry="1.5" style="stroke:#181818;stroke-width:0.3;" width="157.8" x="160.5" y="88.8"/><ellipse cx="211.65" cy="98.4" fill="#ADD1B2" rx="6.6" ry="6.6" style="stroke:#181818;stroke-width:0.6;"/><path d="M211.6781,102.1219 C212.5781,102.1219 213.3188,101.7844 213.8625,101.1469 L213.0375,100.2375 C212.7094,100.5938 212.3156,100.8281 211.8375,100.8281 C210.8344,100.8281 210.1406,100.0313 210.1406,98.6625 C210.1406,97.3313 210.8344,96.525 211.7719,96.525 C212.2594,96.525 212.6156,96.7125 212.9344,97.0031 L213.7594,96.075 C213.3094,95.6344 212.6156,95.2313 211.7719,95.2313 C210,95.2313 208.6031,96.5156 208.6031,98.7188 C208.6031,100.95 210.0281,102.1219 211.6781,102.1219 Z " fill="#000000"/><text fill="#000000" font-family="sans-serif" font-size="8.4" lengthAdjust="spacing" textLength="50.4" x="223.95" y="101.2711">MeasureData</text><line style="stroke:#181818;stroke-width:0.3;" x1="161.1" x2="317.7" y1="108" y2="108"/><text fill="#000000" font-family="sans-serif" font-size="8.4" lengthAdjust="spacing" textLength="150.6" x="164.1" y="118.193">position_counter : np.ndarray(dtype=int)</text><line style="stroke:#181818;stroke-width:0.3;" x1="161.1" x2="317.7" y1="122.6438" y2="122.6438"/></g><!--class MonitorData--><g id="elem_MonitorData"><rect codeLine="22" fill="#F1F1F1" height="38.6438" id="MonitorData" rx="1.5" ry="1.5" style="stroke:#181818;stroke-width:0.3;" width="141" x="339.3" y="88.8"/><ellipse cx="383.55" cy="98.4" fill="#ADD1B2" rx="6.6" ry="6.6" style="stroke:#181818;stroke-width:0.6;"/><path d="M383.5781,102.1219 C384.4781,102.1219 385.2188,101.7844 385.7625,101.1469 L384.9375,100.2375 C384.6094,100.5938 384.2156,100.8281 383.7375,100.8281 C382.7344,100.8281 382.0406,100.0313 382.0406,98.6625 C382.0406,97.3313 382.7344,96.525 383.6719,96.525 C384.1594,96.525 384.5156,96.7125 384.8344,97.0031 L385.6594,96.075 C385.2094,95.6344 384.5156,95.2313 383.6719,95.2313 C381.9,95.2313 380.5031,96.5156 380.5031,98.7188 C380.5031,100.95 381.9281,102.1219 383.5781,102.1219 Z " fill="#000000"/><text fill="#000000" font-family="sans-serif" font-size="8.4" lengthAdjust="spacing" textLength="47.4" x="395.85" y="101.2711">MonitorData</text><line style="stroke:#181818;stroke-width:0.3;" x1="339.9" x2="479.7" y1="108" y2="108"/><text fill="#000000" font-family="sans-serif" font-size="8.4" lengthAdjust="spacing" textLength="133.8" x="342.9" y="118.193">milliseconds : np.ndarray(dtype=int)</text><line style="stroke:#181818;stroke-width:0.3;" x1="339.9" x2="479.7" y1="122.6438" y2="122.6438"/></g><!--class MotorData--><g id="elem_MotorData"><rect codeLine="26" fill="#F1F1F1" height="28.8" id="MotorData" rx="1.5" ry="1.5" style="stroke:#181818;stroke-width:0.3;" width="60" x="123.6" y="163.2"/><ellipse cx="132.6" cy="172.8" fill="#ADD1B2" rx="6.6" ry="6.6" style="stroke:#181818;stroke-width:0.6;"/><path d="M132.6281,176.5219 C133.5281,176.5219 134.2687,176.1844 134.8125,175.5469 L133.9875,174.6375 C133.6594,174.9938 133.2656,175.2281 132.7875,175.2281 C131.7844,175.2281 131.0906,174.4313 131.0906,173.0625 C131.0906,171.7313 131.7844,170.925 132.7219,170.925 C133.2094,170.925 133.5656,171.1125 133.8844,171.4031 L134.7094,170.475 C134.2594,170.0344 133.5656,169.6313 132.7219,169.6313 C130.95,169.6313 129.5531,170.9156 129.5531,173.1188 C129.5531,175.35 130.9781,176.5219 132.6281,176.5219 Z " fill="#000000"/><text fill="#000000" font-family="sans-serif" font-size="8.4" lengthAdjust="spacing" textLength="40.8" x="141" y="175.6711">MotorData</text><line style="stroke:#181818;stroke-width:0.3;" x1="124.2" x2="183" y1="182.4" y2="182.4"/><line style="stroke:#181818;stroke-width:0.3;" x1="124.2" x2="183" y1="187.2" y2="187.2"/></g><!--class DetectorData--><g id="elem_DetectorData"><rect codeLine="29" fill="#F1F1F1" height="28.8" id="DetectorData" rx="1.5" ry="1.5" style="stroke:#181818;stroke-width:0.3;" width="69" x="204.9" y="163.2"/><ellipse cx="213.9" cy="172.8" fill="#ADD1B2" rx="6.6" ry="6.6" style="stroke:#181818;stroke-width:0.6;"/><path d="M213.9281,176.5219 C214.8281,176.5219 215.5688,176.1844 216.1125,175.5469 L215.2875,174.6375 C214.9594,174.9938 214.5656,175.2281 214.0875,175.2281 C213.0844,175.2281 212.3906,174.4313 212.3906,173.0625 C212.3906,171.7313 213.0844,170.925 214.0219,170.925 C214.5094,170.925 214.8656,171.1125 215.1844,171.4031 L216.0094,170.475 C215.5594,170.0344 214.8656,169.6313 214.0219,169.6313 C212.25,169.6313 210.8531,170.9156 210.8531,173.1188 C210.8531,175.35 212.2781,176.5219 213.9281,176.5219 Z " fill="#000000"/><text fill="#000000" font-family="sans-serif" font-size="8.4" lengthAdjust="spacing" textLength="49.8" x="222.3" y="175.6711">DetectorData</text><line style="stroke:#181818;stroke-width:0.3;" x1="205.5" x2="273.3" y1="182.4" y2="182.4"/><line style="stroke:#181818;stroke-width:0.3;" x1="205.5" x2="273.3" y1="187.2" y2="187.2"/></g><!--class TimestampData--><g id="elem_TimestampData"><rect codeLine="32" fill="#F1F1F1" height="28.8" id="TimestampData" rx="1.5" ry="1.5" style="stroke:#181818;stroke-width:0.3;" width="79.2" x="295.2" y="163.2"/><ellipse cx="304.2" cy="172.8" fill="#ADD1B2" rx="6.6" ry="6.6" style="stroke:#181818;stroke-width:0.6;"/><path d="M304.2281,176.5219 C305.1281,176.5219 305.8688,176.1844 306.4125,175.5469 L305.5875,174.6375 C305.2594,174.9938 304.8656,175.2281 304.3875,175.2281 C303.3844,175.2281 302.6906,174.4313 302.6906,173.0625 C302.6906,171.7313 303.3844,170.925 304.3219,170.925 C304.8094,170.925 305.1656,171.1125 305.4844,171.4031 L306.3094,170.475 C305.8594,170.0344 305.1656,169.6313 304.3219,169.6313 C302.55,169.6313 301.1531,170.9156 301.1531,173.1188 C301.1531,175.35 302.5781,176.5219 304.2281,176.5219 Z " fill="#000000"/><text fill="#000000" font-family="sans-serif" font-size="8.4" lengthAdjust="spacing" textLength="60" x="312.6" y="175.6711">TimestampData</text><line style="stroke:#181818;stroke-width:0.3;" x1="295.8" x2="373.8" y1="182.4" y2="182.4"/><line style="stroke:#181818;stroke-width:0.3;" x1="295.8" x2="373.8" y1="187.2" y2="187.2"/></g><!--class ScanModuleData--><g id="elem_ScanModuleData"><rect codeLine="35" fill="#F1F1F1" height="28.8" id="ScanModuleData" rx="1.5" ry="1.5" style="stroke:#181818;stroke-width:0.3;" width="83.4" x="395.7" y="163.2"/><ellipse cx="404.7" cy="172.8" fill="#ADD1B2" rx="6.6" ry="6.6" style="stroke:#181818;stroke-width:0.6;"/><path d="M404.7281,176.5219 C405.6281,176.5219 406.3688,176.1844 406.9125,175.5469 L406.0875,174.6375 C405.7594,174.9938 405.3656,175.2281 404.8875,175.2281 C403.8844,175.2281 403.1906,174.4313 403.1906,173.0625 C403.1906,171.7313 403.8844,170.925 404.8219,170.925 C405.3094,170.925 405.6656,171.1125 405.9844,171.4031 L406.8094,170.475 C406.3594,170.0344 405.6656,169.6313 404.8219,169.6313 C403.05,169.6313 401.6531,170.9156 401.6531,173.1188 C401.6531,175.35 403.0781,176.5219 404.7281,176.5219 Z " fill="#000000"/><text fill="#000000" font-family="sans-serif" font-size="8.4" lengthAdjust="spacing" textLength="64.2" x="413.1" y="175.6711">ScanModuleData</text><line style="stroke:#181818;stroke-width:0.3;" x1="396.3" x2="478.5" y1="182.4" y2="182.4"/><line style="stroke:#181818;stroke-width:0.3;" x1="396.3" x2="478.5" y1="187.2" y2="187.2"/></g><g id="elem_GMN15"><path d="M368.4,246 L368.4,297.7031 A0,0 0 0 0 368.4,297.7031 L506.4,297.7031 A0,0 0 0 0 506.4,297.7031 L506.4,252 L500.4,246 L439.8,246 L437.4,192.126 L435,246 L368.4,246 A0,0 0 0 0 368.4,246 " fill="#FEFFDD" style="stroke:#181818;stroke-width:0.3;"/><path d="M500.4,246 L500.4,252 L506.4,252 L500.4,246 " fill="#FEFFDD" style="stroke:#181818;stroke-width:0.3;"/><text fill="#000000" font-family="sans-serif" font-size="7.8" lengthAdjust="spacing" textLength="111.6" x="372" y="256.2363">The corresponding dataset in the</text><text fill="#000000" font-family="sans-serif" font-size="7.8" lengthAdjust="spacing" textLength="97.2" x="372" y="265.377">eveH5 file does not exist yet.</text><text fill="#000000" font-family="sans-serif" font-size="7.8" lengthAdjust="spacing" textLength="1.8" x="372" y="274.5176">&#160;</text><text fill="#000000" font-family="sans-serif" font-size="7.8" lengthAdjust="spacing" textLength="106.8" x="372" y="283.6582">The idea is to store the id of the</text><text fill="#000000" font-family="sans-serif" font-size="7.8" lengthAdjust="spacing" textLength="125.4" x="372" y="292.7988">scan module for each position count.</text></g><!--class AverageDetectorData--><g id="elem_AverageDetectorData"><rect codeLine="45" fill="#F1F1F1" height="87.8625" id="AverageDetectorData" rx="1.5" ry="1.5" style="stroke:#181818;stroke-width:0.3;" width="129.6" x="51.6" y="228"/><ellipse cx="74.1" cy="237.6" fill="#ADD1B2" rx="6.6" ry="6.6" style="stroke:#181818;stroke-width:0.6;"/><path d="M74.1281,241.3219 C75.0281,241.3219 75.7688,240.9844 76.3125,240.3469 L75.4875,239.4375 C75.1594,239.7938 74.7656,240.0281 74.2875,240.0281 C73.2844,240.0281 72.5906,239.2313 72.5906,237.8625 C72.5906,236.5313 73.2844,235.725 74.2219,235.725 C74.7094,235.725 75.0656,235.9125 75.3844,236.2031 L76.2094,235.275 C75.7594,234.8344 75.0656,234.4312 74.2219,234.4312 C72.45,234.4312 71.0531,235.7156 71.0531,237.9188 C71.0531,240.15 72.4781,241.3219 74.1281,241.3219 Z " fill="#000000"/><text fill="#000000" font-family="sans-serif" font-size="8.4" lengthAdjust="spacing" textLength="80.4" x="85.5" y="240.4711">AverageDetectorData</text><line style="stroke:#181818;stroke-width:0.3;" x1="52.2" x2="180.6" y1="247.2" y2="247.2"/><text fill="#000000" font-family="sans-serif" font-size="8.4" lengthAdjust="spacing" textLength="93.6" x="55.2" y="257.393">raw_values : raggedarray</text><text fill="#000000" font-family="sans-serif" font-size="8.4" lengthAdjust="spacing" textLength="122.4" x="55.2" y="267.2367">attempts : np.ndarray(dtype=int)</text><line style="stroke:#181818;stroke-width:0.3;" x1="52.2" x2="180.6" y1="271.6875" y2="271.6875"/><text fill="#000000" font-family="sans-serif" font-size="8.4" lengthAdjust="spacing" textLength="27" x="55.2" y="281.8805">mean()</text><text fill="#000000" font-family="sans-serif" font-size="8.4" lengthAdjust="spacing" textLength="18" x="55.2" y="291.7242">std()</text><text fill="#000000" font-family="sans-serif" font-size="8.4" lengthAdjust="spacing" textLength="68.4" x="55.2" y="301.568">averaged_values()</text><text fill="#000000" font-family="sans-serif" font-size="8.4" lengthAdjust="spacing" textLength="65.4" x="55.2" y="311.4117">has_raw_values()</text></g><g id="elem_GMN19"><path d="M3.6,351.6 L3.6,375.8812 A0,0 0 0 0 3.6,375.8812 L97.2,375.8812 A0,0 0 0 0 97.2,375.8812 L97.2,357.6 L91.2,351.6 L61.164,351.6 L84.756,315.84 L56.364,351.6 L3.6,351.6 A0,0 0 0 0 3.6,351.6 " fill="#FEFFDD" style="stroke:#181818;stroke-width:0.3;"/><path d="M91.2,351.6 L91.2,357.6 L97.2,357.6 L91.2,351.6 " fill="#FEFFDD" style="stroke:#181818;stroke-width:0.3;"/><text fill="#000000" font-family="sans-serif" font-size="7.8" lengthAdjust="spacing" textLength="81" x="7.2" y="361.8363">How does mean() differ</text><text fill="#000000" font-family="sans-serif" font-size="7.8" lengthAdjust="spacing" textLength="69.6" x="7.2" y="370.977">from values in Data?</text></g><g id="elem_GMN22"><path d="M118.5,351.6 L118.5,375.8812 A0,0 0 0 0 118.5,375.8812 L246.3,375.8812 A0,0 0 0 0 246.3,375.8812 L246.3,357.6 L240.3,351.6 L176.436,351.6 L148.044,315.84 L171.636,351.6 L118.5,351.6 A0,0 0 0 0 118.5,351.6 " fill="#FEFFDD" style="stroke:#181818;stroke-width:0.3;"/><path d="M240.3,351.6 L240.3,357.6 L246.3,357.6 L240.3,351.6 " fill="#FEFFDD" style="stroke:#181818;stroke-width:0.3;"/><text fill="#000000" font-family="sans-serif" font-size="7.8" lengthAdjust="spacing" textLength="103.8" x="122.1" y="361.8363">averaged_values() returns only</text><text fill="#000000" font-family="sans-serif" font-size="7.8" lengthAdjust="spacing" textLength="115.2" x="122.1" y="370.977">those values used to average over</text></g><!--class IntervalDetectorData--><g id="elem_IntervalDetectorData"><rect codeLine="56" fill="#F1F1F1" height="78.0188" id="IntervalDetectorData" rx="1.5" ry="1.5" style="stroke:#181818;stroke-width:0.3;" width="121.2" x="202.2" y="232.8"/><ellipse cx="222" cy="242.4" fill="#ADD1B2" rx="6.6" ry="6.6" style="stroke:#181818;stroke-width:0.6;"/><path d="M222.0281,246.1219 C222.9281,246.1219 223.6688,245.7844 224.2125,245.1469 L223.3875,244.2375 C223.0594,244.5938 222.6656,244.8281 222.1875,244.8281 C221.1844,244.8281 220.4906,244.0313 220.4906,242.6625 C220.4906,241.3312 221.1844,240.525 222.1219,240.525 C222.6094,240.525 222.9656,240.7125 223.2844,241.0031 L224.1094,240.075 C223.6594,239.6344 222.9656,239.2313 222.1219,239.2313 C220.35,239.2313 218.9531,240.5156 218.9531,242.7188 C218.9531,244.95 220.3781,246.1219 222.0281,246.1219 Z " fill="#000000"/><text fill="#000000" font-family="sans-serif" font-size="8.4" lengthAdjust="spacing" textLength="78" x="232.8" y="245.2711">IntervalDetectorData</text><line style="stroke:#181818;stroke-width:0.3;" x1="202.8" x2="322.8" y1="252" y2="252"/><text fill="#000000" font-family="sans-serif" font-size="8.4" lengthAdjust="spacing" textLength="93.6" x="205.8" y="262.193">raw_values : raggedarray</text><text fill="#000000" font-family="sans-serif" font-size="8.4" lengthAdjust="spacing" textLength="114" x="205.8" y="272.0367">counts : np.ndarray(dtype=int)</text><line style="stroke:#181818;stroke-width:0.3;" x1="202.8" x2="322.8" y1="276.4875" y2="276.4875"/><text fill="#000000" font-family="sans-serif" font-size="8.4" lengthAdjust="spacing" textLength="27" x="205.8" y="286.6805">mean()</text><text fill="#000000" font-family="sans-serif" font-size="8.4" lengthAdjust="spacing" textLength="18" x="205.8" y="296.5242">std()</text><text fill="#000000" font-family="sans-serif" font-size="8.4" lengthAdjust="spacing" textLength="65.4" x="205.8" y="306.368">has_raw_values()</text></g><!--reverse link Data to Metadata--><g id="link_Data_Metadata"><path codeLine="64" d="M190.0266,54.1705 C163.1166,67.8385 135.666,81.774 112.41,93.582 " fill="none" id="Data-backto-Metadata" style="stroke:#181818;stroke-width:0.6;"/><polygon fill="#181818" points="196.446,50.91,192.1494,50.4005,190.0266,54.1705,194.3231,54.6801,196.446,50.91" style="stroke:#181818;stroke-width:0.6;"/></g><!--reverse link Data to MeasureData--><g id="link_Data_MeasureData"><path codeLine="65" d="M239.4,63.606 C239.4,75.126 239.4,77.976 239.4,88.746 " fill="none" id="Data-backto-MeasureData" style="stroke:#181818;stroke-width:0.6;"/><polygon fill="none" points="239.4,52.806,235.8,63.606,243,63.606,239.4,52.806" style="stroke:#181818;stroke-width:0.6;"/></g><!--reverse link Data to MonitorData--><g id="link_Data_MonitorData"><path codeLine="66" d="M292.215,53.3685 C318.831,65.6025 342.99,76.704 369.162,88.728 " fill="none" id="Data-backto-MonitorData" style="stroke:#181818;stroke-width:0.6;"/><polygon fill="none" points="282.402,48.858,290.7115,56.6395,293.7185,50.0975,282.402,48.858" style="stroke:#181818;stroke-width:0.6;"/></g><!--reverse link MeasureData to MotorData--><g id="link_MeasureData_MotorData"><path codeLine="67" d="M207.5082,134.0236 C193.3182,145.3396 183.972,152.79 171.03,163.104 " fill="none" id="MeasureData-backto-MotorData" style="stroke:#181818;stroke-width:0.6;"/><polygon fill="none" points="215.952,127.29,205.2636,131.209,209.7527,136.8382,215.952,127.29" style="stroke:#181818;stroke-width:0.6;"/></g><!--reverse link MeasureData to DetectorData--><g id="link_MeasureData_DetectorData"><path codeLine="68" d="M239.4,138.09 C239.4,149.406 239.4,152.79 239.4,163.104 " fill="none" id="MeasureData-backto-DetectorData" style="stroke:#181818;stroke-width:0.6;"/><polygon fill="none" points="239.4,127.29,235.8,138.09,243,138.09,239.4,127.29" style="stroke:#181818;stroke-width:0.6;"/></g><!--reverse link MeasureData to TimestampData--><g id="link_MeasureData_TimestampData"><path codeLine="69" d="M274.2454,133.5854 C290.0194,144.9014 301.032,152.79 315.42,163.104 " fill="none" id="MeasureData-backto-TimestampData" style="stroke:#181818;stroke-width:0.6;"/><polygon fill="none" points="265.47,127.29,272.147,136.5105,276.3439,130.6602,265.47,127.29" style="stroke:#181818;stroke-width:0.6;"/></g><!--reverse link MeasureData to ScanModuleData--><g id="link_MeasureData_ScanModuleData"><path codeLine="70" d="M303.4521,130.7263 C336.3141,142.0783 367.422,152.826 397.392,163.176 " fill="none" id="MeasureData-backto-ScanModuleData" style="stroke:#181818;stroke-width:0.6;"/><polygon fill="none" points="293.244,127.2,302.2766,134.129,304.6275,127.3236,293.244,127.2" style="stroke:#181818;stroke-width:0.6;"/></g><!--reverse link DetectorData to AverageDetectorData--><g id="link_DetectorData_AverageDetectorData"><path codeLine="71" d="M212.371,198.6393 C199.705,208.2153 190.752,214.98 173.628,227.928 " fill="none" id="DetectorData-backto-AverageDetectorData" style="stroke:#181818;stroke-width:0.6;"/><polygon fill="none" points="220.986,192.126,210.2,195.7676,214.5421,201.5109,220.986,192.126" style="stroke:#181818;stroke-width:0.6;"/></g><!--reverse link DetectorData to IntervalDetectorData--><g id="link_DetectorData_IntervalDetectorData"><path codeLine="72" d="M245.5372,202.6001 C248.2372,213.3401 249.48,218.268 253.098,232.632 " fill="none" id="DetectorData-backto-IntervalDetectorData" style="stroke:#181818;stroke-width:0.6;"/><polygon fill="none" points="242.904,192.126,242.0458,203.4778,249.0285,201.7224,242.904,192.126" style="stroke:#181818;stroke-width:0.6;"/></g><!--SRC=[dLInRjj03Dtr5KIM9WLYD4CMeqLGm2ZI8LCo1WXO7MKHbUw48-NKIFFlfKwIBSKAqDQBJ-JnyV6Hl0_oats34Mjm3SFLzQSiooiKWGqgmai6zgj9qNMVQxWRZic-mwebCQjlLjvXZBZFNZCVbA2YGY4K2MMzxY-ccBF-V0Pvy8hi1H2kDf22L-d6jn21lUCTknQhCOaGWQF8EtAG20vuNtSKSKiRKiernCGQlKk-xrufMlpKcP5tq54Swnmhibe7xZ-2QgZNS6yfXJfnpEWOjwRIeo-CNXzPigMEURa_Gg6qaIRAlHHCbNk59WWh1_-KXxOZDTFitEc-eI_izS8eZ5Z1yrZF7Alcgc8Xqy_9t-0SKGx6cLeJ-mFN98fryzPndwE_2wwjQBCWLQBtK9BrD4QInfYntqAdgf1QCq5BIfTeHxVNK71bWWRhge40_M9Hs9EkiWCGEq9W0GqWnfCw03Ds4pL2YL62Ed62hYU4UNdG6PBEgvDcBqrBhsx4vwV3FDkTBGq3FPKULQbkz7tP-sr1VzuVHTrmmZwn6t8CrXBbwPZu_EBj1Dw6vrwd7jE6i2WesWp6K8-BOUfsPTnC8pkT5afTdzA0IDf6syBWg_sZrp88ZSYjsAvP1uOW2FO_2hcqMl-YPEhFV-Yue5YMSd-yl3m-Jido-NSo7LPoQZqkLpPTsi7vhclsa9nuPzjpwfxlK3PJBbrOwDZ2hSL7xGy0]--></g></svg>