<?xml version="1.0" encoding="us-ascii" standalone="no"?><svg xmlns="http://www.w3.org/2000/svg" xmlns:xlink="http://www.w3.org/1999/xlink" contentStyleType="text/css" height="869px" preserveAspectRatio="none" style="width:2172px;height:869px;background:#FFFFFF;" version="1.1" viewBox="0 0 2172 869" width="2172px" zoomAndPan="magnify"><defs/><g><!--class Data--><g id="elem_Data"><rect codeLine="3" fill="#F1F1F1" height="145.7813" id="Data" rx="2.5" ry="2.5" style="stroke:#181818;stroke-width:0.5;" width="193" x="784" y="18.5"/><ellipse cx="859.25" cy="34.5" fill="#ADD1B2" rx="11" ry="11" style="stroke:#181818;stroke-width:1.0;"/><path d="M862.2344,40.1406 Q861.6563,40.4375 861.0156,40.5781 Q860.375,40.7344 859.6719,40.7344 Q857.1563,40.7344 855.8281,39.0938 Q854.5156,37.4375 854.5156,34.3125 Q854.5156,31.1719 855.8281,29.5313 Q857.1563,27.875 859.6719,27.875 Q860.375,27.875 861.0156,28.0313 Q861.6719,28.1719 862.2344,28.4688 L862.2344,31.1875 Q861.5938,30.6094 861,30.3438 Q860.4063,30.0781 859.7813,30.0781 Q858.4375,30.0781 857.75,31.1406 Q857.0625,32.2031 857.0625,34.3125 Q857.0625,36.4063 857.75,37.4844 Q858.4375,38.5469 859.7813,38.5469 Q860.4063,38.5469 861,38.2813 Q861.5938,38 862.2344,37.4219 L862.2344,40.1406 Z " fill="#000000"/><text fill="#000000" font-family="sans-serif" font-size="14" lengthAdjust="spacing" textLength="34" x="879.75" y="39.3467">Data</text><line style="stroke:#181818;stroke-width:0.5;" x1="785" x2="976" y1="50.5" y2="50.5"/><text fill="#000000" font-family="sans-serif" font-size="14" lengthAdjust="spacing" textLength="149" x="790" y="67.4951">metadata : Metadata</text><text fill="#000000" font-family="sans-serif" font-size="14" lengthAdjust="spacing" textLength="91" x="790" y="83.792">options : dict</text><text fill="#000000" font-family="sans-serif" font-size="14" lengthAdjust="spacing" textLength="181" x="790" y="100.0889">importer[] : DataImporter</text><text fill="#000000" font-family="sans-serif" font-size="14" lengthAdjust="spacing" textLength="130" x="790" y="116.3857">_data : np.ndarray</text><line style="stroke:#181818;stroke-width:0.5;" x1="785" x2="976" y1="123.6875" y2="123.6875"/><text fill="#000000" font-family="sans-serif" font-size="14" lengthAdjust="spacing" textLength="42" x="790" y="140.6826">data()</text><text fill="#000000" font-family="sans-serif" font-size="14" lengthAdjust="spacing" textLength="72" x="790" y="156.9795">get_data()</text></g><path d="M326.5,6 L326.5,167.3281 A0,0 0 0 0 326.5,167.3281 L748.5,167.3281 A0,0 0 0 0 748.5,167.3281 L748.5,90.6641 L788,111.5391 L748.5,82.6641 L748.5,16 L738.5,6 L326.5,6 A0,0 0 0 0 326.5,6 " fill="#FEFFDD" style="stroke:#181818;stroke-width:0.5;"/><path d="M738.5,6 L738.5,16 L748.5,16 L738.5,6 " fill="#FEFFDD" style="stroke:#181818;stroke-width:0.5;"/><text fill="#000000" font-family="sans-serif" font-size="13" lengthAdjust="spacing" textLength="337" x="332.5" y="23.0669">"_data" usually contains a 1D array and is accessed</text><text fill="#000000" font-family="sans-serif" font-size="13" lengthAdjust="spacing" textLength="333" x="332.5" y="38.1997">via the data() getter method (Python property) that</text><text fill="#000000" font-family="sans-serif" font-size="13" lengthAdjust="spacing" textLength="331" x="332.5" y="53.3325">calls the DataImporter on first access if necessary.</text><text fill="#000000" font-family="sans-serif" font-size="13" lengthAdjust="spacing" textLength="8" x="332.5" y="68.4653">&#160;</text><text fill="#000000" font-family="sans-serif" font-size="13" lengthAdjust="spacing" textLength="322" x="332.5" y="83.5981">For individual channel values see derived classes</text><text fill="#000000" font-family="sans-serif" font-size="13" lengthAdjust="spacing" textLength="308" x="332.5" y="98.731">AverageChannelData and IntervalChannelData.</text><text fill="#000000" font-family="sans-serif" font-size="13" lengthAdjust="spacing" textLength="8" x="332.5" y="113.8638">&#160;</text><text fill="#000000" font-family="sans-serif" font-size="13" lengthAdjust="spacing" textLength="362" x="332.5" y="128.9966">ArrayChannelData and AreaChannelData are somewhat</text><text fill="#000000" font-family="sans-serif" font-size="13" lengthAdjust="spacing" textLength="401" x="332.5" y="144.1294">special as they contain either 2D data or a list of data objects</text><text fill="#000000" font-family="sans-serif" font-size="13" lengthAdjust="spacing" textLength="193" x="332.5" y="159.2622">(in case of images and alike).</text><!--class DataImporter--><g id="elem_DataImporter"><rect codeLine="24" fill="#F1F1F1" height="80.5938" id="DataImporter" rx="2.5" ry="2.5" style="stroke:#181818;stroke-width:0.5;" width="128" x="1205.5" y="51"/><ellipse cx="1220.5" cy="67" fill="#ADD1B2" rx="11" ry="11" style="stroke:#181818;stroke-width:1.0;"/><path d="M1223.4844,72.6406 Q1222.9063,72.9375 1222.2656,73.0781 Q1221.625,73.2344 1220.9219,73.2344 Q1218.4063,73.2344 1217.0781,71.5938 Q1215.7656,69.9375 1215.7656,66.8125 Q1215.7656,63.6719 1217.0781,62.0313 Q1218.4063,60.375 1220.9219,60.375 Q1221.625,60.375 1222.2656,60.5313 Q1222.9219,60.6719 1223.4844,60.9688 L1223.4844,63.6875 Q1222.8438,63.1094 1222.25,62.8438 Q1221.6563,62.5781 1221.0313,62.5781 Q1219.6875,62.5781 1219,63.6406 Q1218.3125,64.7031 1218.3125,66.8125 Q1218.3125,68.9063 1219,69.9844 Q1219.6875,71.0469 1221.0313,71.0469 Q1221.6563,71.0469 1222.25,70.7813 Q1222.8438,70.5 1223.4844,69.9219 L1223.4844,72.6406 Z " fill="#000000"/><text fill="#000000" font-family="sans-serif" font-size="14" lengthAdjust="spacing" textLength="96" x="1234.5" y="71.8467">DataImporter</text><line style="stroke:#181818;stroke-width:0.5;" x1="1206.5" x2="1332.5" y1="83" y2="83"/><text fill="#000000" font-family="sans-serif" font-size="14" lengthAdjust="spacing" textLength="101" x="1211.5" y="99.9951">source : string</text><line style="stroke:#181818;stroke-width:0.5;" x1="1206.5" x2="1332.5" y1="107.2969" y2="107.2969"/><text fill="#000000" font-family="sans-serif" font-size="14" lengthAdjust="spacing" textLength="41" x="1211.5" y="124.292">load()</text></g><!--class HDF5DataImporter--><g id="elem_HDF5DataImporter"><rect codeLine="29" fill="#F1F1F1" height="80.5938" id="HDF5DataImporter" rx="2.5" ry="2.5" style="stroke:#181818;stroke-width:0.5;" width="167" x="1186" y="237"/><ellipse cx="1201" cy="253" fill="#ADD1B2" rx="11" ry="11" style="stroke:#181818;stroke-width:1.0;"/><path d="M1203.9844,258.6406 Q1203.4063,258.9375 1202.7656,259.0781 Q1202.125,259.2344 1201.4219,259.2344 Q1198.9063,259.2344 1197.5781,257.5938 Q1196.2656,255.9375 1196.2656,252.8125 Q1196.2656,249.6719 1197.5781,248.0313 Q1198.9063,246.375 1201.4219,246.375 Q1202.125,246.375 1202.7656,246.5313 Q1203.4219,246.6719 1203.9844,246.9688 L1203.9844,249.6875 Q1203.3438,249.1094 1202.75,248.8438 Q1202.1563,248.5781 1201.5313,248.5781 Q1200.1875,248.5781 1199.5,249.6406 Q1198.8125,250.7031 1198.8125,252.8125 Q1198.8125,254.9063 1199.5,255.9844 Q1200.1875,257.0469 1201.5313,257.0469 Q1202.1563,257.0469 1202.75,256.7813 Q1203.3438,256.5 1203.9844,255.9219 L1203.9844,258.6406 Z " fill="#000000"/><text fill="#000000" font-family="sans-serif" font-size="14" lengthAdjust="spacing" textLength="135" x="1215" y="257.8467">HDF5DataImporter</text><line style="stroke:#181818;stroke-width:0.5;" x1="1187" x2="1352" y1="269" y2="269"/><text fill="#000000" font-family="sans-serif" font-size="14" lengthAdjust="spacing" textLength="85" x="1192" y="285.9951">item : string</text><text fill="#000000" font-family="sans-serif" font-size="14" lengthAdjust="spacing" textLength="102" x="1192" y="302.292">mapping : dict</text><line style="stroke:#181818;stroke-width:0.5;" x1="1187" x2="1352" y1="309.5938" y2="309.5938"/></g><!--class ImageDataImporter--><g id="elem_ImageDataImporter"><rect codeLine="34" fill="#F1F1F1" height="48" id="ImageDataImporter" rx="2.5" ry="2.5" style="stroke:#181818;stroke-width:0.5;" width="173" x="1388" y="253.5"/><ellipse cx="1403" cy="269.5" fill="#ADD1B2" rx="11" ry="11" style="stroke:#181818;stroke-width:1.0;"/><path d="M1405.9844,275.1406 Q1405.4063,275.4375 1404.7656,275.5781 Q1404.125,275.7344 1403.4219,275.7344 Q1400.9063,275.7344 1399.5781,274.0938 Q1398.2656,272.4375 1398.2656,269.3125 Q1398.2656,266.1719 1399.5781,264.5313 Q1400.9063,262.875 1403.4219,262.875 Q1404.125,262.875 1404.7656,263.0313 Q1405.4219,263.1719 1405.9844,263.4688 L1405.9844,266.1875 Q1405.3438,265.6094 1404.75,265.3438 Q1404.1563,265.0781 1403.5313,265.0781 Q1402.1875,265.0781 1401.5,266.1406 Q1400.8125,267.2031 1400.8125,269.3125 Q1400.8125,271.4063 1401.5,272.4844 Q1402.1875,273.5469 1403.5313,273.5469 Q1404.1563,273.5469 1404.75,273.2813 Q1405.3438,273 1405.9844,272.4219 L1405.9844,275.1406 Z " fill="#000000"/><text fill="#000000" font-family="sans-serif" font-size="14" lengthAdjust="spacing" textLength="141" x="1417" y="274.3467">ImageDataImporter</text><line style="stroke:#181818;stroke-width:0.5;" x1="1389" x2="1560" y1="285.5" y2="285.5"/><line style="stroke:#181818;stroke-width:0.5;" x1="1389" x2="1560" y1="293.5" y2="293.5"/></g><g id="elem_GMN10"><path d="M1596.5,257.5 L1596.5,273.5 L1561,277.5 L1596.5,281.5 L1596.5,297.7656 A0,0 0 0 0 1596.5,297.7656 L1918.5,297.7656 A0,0 0 0 0 1918.5,297.7656 L1918.5,267.5 L1908.5,257.5 L1596.5,257.5 A0,0 0 0 0 1596.5,257.5 " fill="#FEFFDD" style="stroke:#181818;stroke-width:0.5;"/><path d="M1908.5,257.5 L1908.5,267.5 L1918.5,267.5 L1908.5,257.5 " fill="#FEFFDD" style="stroke:#181818;stroke-width:0.5;"/><text fill="#000000" font-family="sans-serif" font-size="13" lengthAdjust="spacing" textLength="277" x="1602.5" y="274.5669">Needs to handle a list of image filenames,</text><text fill="#000000" font-family="sans-serif" font-size="13" lengthAdjust="spacing" textLength="301" x="1602.5" y="289.6997">as per position one image needs to be loaded.</text></g><!--class Metadata--><g id="elem_Metadata"><rect codeLine="43" fill="#F1F1F1" height="48" id="Metadata" rx="2.5" ry="2.5" style="stroke:#181818;stroke-width:0.5;" width="99" x="464" y="253.5"/><ellipse cx="479" cy="269.5" fill="#ADD1B2" rx="11" ry="11" style="stroke:#181818;stroke-width:1.0;"/><path d="M481.9844,275.1406 Q481.4063,275.4375 480.7656,275.5781 Q480.125,275.7344 479.4219,275.7344 Q476.9063,275.7344 475.5781,274.0938 Q474.2656,272.4375 474.2656,269.3125 Q474.2656,266.1719 475.5781,264.5313 Q476.9063,262.875 479.4219,262.875 Q480.125,262.875 480.7656,263.0313 Q481.4219,263.1719 481.9844,263.4688 L481.9844,266.1875 Q481.3438,265.6094 480.75,265.3438 Q480.1563,265.0781 479.5313,265.0781 Q478.1875,265.0781 477.5,266.1406 Q476.8125,267.2031 476.8125,269.3125 Q476.8125,271.4063 477.5,272.4844 Q478.1875,273.5469 479.5313,273.5469 Q480.1563,273.5469 480.75,273.2813 Q481.3438,273 481.9844,272.4219 L481.9844,275.1406 Z " fill="#000000"/><text fill="#000000" font-family="sans-serif" font-size="14" lengthAdjust="spacing" textLength="67" x="493" y="274.3467">Metadata</text><line style="stroke:#181818;stroke-width:0.5;" x1="465" x2="562" y1="285.5" y2="285.5"/><line style="stroke:#181818;stroke-width:0.5;" x1="465" x2="562" y1="293.5" y2="293.5"/></g><g id="elem_GMN15"><path d="M288,257.5 L288,297.7656 A0,0 0 0 0 288,297.7656 L429,297.7656 A0,0 0 0 0 429,297.7656 L429,281.5 L463.68,277.5 L429,273.5 L429,267.5 L419,257.5 L288,257.5 A0,0 0 0 0 288,257.5 " fill="#FEFFDD" style="stroke:#181818;stroke-width:0.5;"/><path d="M419,257.5 L419,267.5 L429,267.5 L419,257.5 " fill="#FEFFDD" style="stroke:#181818;stroke-width:0.5;"/><text fill="#000000" font-family="sans-serif" font-size="13" lengthAdjust="spacing" textLength="104" x="294" y="274.5669">See diagram for</text><text fill="#000000" font-family="sans-serif" font-size="13" lengthAdjust="spacing" textLength="120" x="294" y="289.6997">metadata module.</text></g><!--class MeasureData--><g id="elem_MeasureData"><rect codeLine="50" fill="#F1F1F1" height="64.2969" id="MeasureData" rx="2.5" ry="2.5" style="stroke:#181818;stroke-width:0.5;" width="246" x="904.5" y="245.5"/><ellipse cx="975.75" cy="261.5" fill="#ADD1B2" rx="11" ry="11" style="stroke:#181818;stroke-width:1.0;"/><path d="M978.7344,267.1406 Q978.1563,267.4375 977.5156,267.5781 Q976.875,267.7344 976.1719,267.7344 Q973.6563,267.7344 972.3281,266.0938 Q971.0156,264.4375 971.0156,261.3125 Q971.0156,258.1719 972.3281,256.5313 Q973.6563,254.875 976.1719,254.875 Q976.875,254.875 977.5156,255.0313 Q978.1719,255.1719 978.7344,255.4688 L978.7344,258.1875 Q978.0938,257.6094 977.5,257.3438 Q976.9063,257.0781 976.2813,257.0781 Q974.9375,257.0781 974.25,258.1406 Q973.5625,259.2031 973.5625,261.3125 Q973.5625,263.4063 974.25,264.4844 Q974.9375,265.5469 976.2813,265.5469 Q976.9063,265.5469 977.5,265.2813 Q978.0938,265 978.7344,264.4219 L978.7344,267.1406 Z " fill="#000000"/><text fill="#000000" font-family="sans-serif" font-size="14" lengthAdjust="spacing" textLength="95" x="996.25" y="266.3467">MeasureData</text><line style="stroke:#181818;stroke-width:0.5;" x1="905.5" x2="1149.5" y1="277.5" y2="277.5"/><text fill="#000000" font-family="sans-serif" font-size="14" lengthAdjust="spacing" textLength="234" x="910.5" y="294.4951">positions : np.ndarray(dtype=int)</text><line style="stroke:#181818;stroke-width:0.5;" x1="905.5" x2="1149.5" y1="301.7969" y2="301.7969"/></g><!--class MonitorData--><g id="elem_MonitorData"><rect codeLine="54" fill="#F1F1F1" height="64.2969" id="MonitorData" rx="2.5" ry="2.5" style="stroke:#181818;stroke-width:0.5;" width="271" x="598" y="245.5"/><ellipse cx="685.25" cy="261.5" fill="#ADD1B2" rx="11" ry="11" style="stroke:#181818;stroke-width:1.0;"/><path d="M688.2344,267.1406 Q687.6563,267.4375 687.0156,267.5781 Q686.375,267.7344 685.6719,267.7344 Q683.1563,267.7344 681.8281,266.0938 Q680.5156,264.4375 680.5156,261.3125 Q680.5156,258.1719 681.8281,256.5313 Q683.1563,254.875 685.6719,254.875 Q686.375,254.875 687.0156,255.0313 Q687.6719,255.1719 688.2344,255.4688 L688.2344,258.1875 Q687.5938,257.6094 687,257.3438 Q686.4063,257.0781 685.7813,257.0781 Q684.4375,257.0781 683.75,258.1406 Q683.0625,259.2031 683.0625,261.3125 Q683.0625,263.4063 683.75,264.4844 Q684.4375,265.5469 685.7813,265.5469 Q686.4063,265.5469 687,265.2813 Q687.5938,265 688.2344,264.4219 L688.2344,267.1406 Z " fill="#000000"/><text fill="#000000" font-family="sans-serif" font-size="14" lengthAdjust="spacing" textLength="88" x="705.75" y="266.3467">MonitorData</text><line style="stroke:#181818;stroke-width:0.5;" x1="599" x2="868" y1="277.5" y2="277.5"/><text fill="#000000" font-family="sans-serif" font-size="14" lengthAdjust="spacing" textLength="259" x="604" y="294.4951">milliseconds : np.ndarray(dtype=int)</text><line style="stroke:#181818;stroke-width:0.5;" x1="599" x2="868" y1="301.7969" y2="301.7969"/></g><!--class DeviceData--><g id="elem_DeviceData"><rect codeLine="61" fill="#F1F1F1" height="48" id="DeviceData" rx="2.5" ry="2.5" style="stroke:#181818;stroke-width:0.5;" width="115" x="1088" y="404.5"/><ellipse cx="1103" cy="420.5" fill="#ADD1B2" rx="11" ry="11" style="stroke:#181818;stroke-width:1.0;"/><path d="M1105.9844,426.1406 Q1105.4063,426.4375 1104.7656,426.5781 Q1104.125,426.7344 1103.4219,426.7344 Q1100.9063,426.7344 1099.5781,425.0938 Q1098.2656,423.4375 1098.2656,420.3125 Q1098.2656,417.1719 1099.5781,415.5313 Q1100.9063,413.875 1103.4219,413.875 Q1104.125,413.875 1104.7656,414.0313 Q1105.4219,414.1719 1105.9844,414.4688 L1105.9844,417.1875 Q1105.3438,416.6094 1104.75,416.3438 Q1104.1563,416.0781 1103.5313,416.0781 Q1102.1875,416.0781 1101.5,417.1406 Q1100.8125,418.2031 1100.8125,420.3125 Q1100.8125,422.4063 1101.5,423.4844 Q1102.1875,424.5469 1103.5313,424.5469 Q1104.1563,424.5469 1104.75,424.2813 Q1105.3438,424 1105.9844,423.4219 L1105.9844,426.1406 Z " fill="#000000"/><text fill="#000000" font-family="sans-serif" font-size="14" lengthAdjust="spacing" textLength="83" x="1117" y="425.3467">DeviceData</text><line style="stroke:#181818;stroke-width:0.5;" x1="1089" x2="1202" y1="436.5" y2="436.5"/><line style="stroke:#181818;stroke-width:0.5;" x1="1089" x2="1202" y1="444.5" y2="444.5"/></g><!--class AxisData--><g id="elem_AxisData"><rect codeLine="63" fill="#F1F1F1" height="64.2969" id="AxisData" rx="2.5" ry="2.5" style="stroke:#181818;stroke-width:0.5;" width="177" x="224" y="396.5"/><ellipse cx="276.75" cy="412.5" fill="#ADD1B2" rx="11" ry="11" style="stroke:#181818;stroke-width:1.0;"/><path d="M279.7344,418.1406 Q279.1563,418.4375 278.5156,418.5781 Q277.875,418.7344 277.1719,418.7344 Q274.6563,418.7344 273.3281,417.0938 Q272.0156,415.4375 272.0156,412.3125 Q272.0156,409.1719 273.3281,407.5313 Q274.6563,405.875 277.1719,405.875 Q277.875,405.875 278.5156,406.0313 Q279.1719,406.1719 279.7344,406.4688 L279.7344,409.1875 Q279.0938,408.6094 278.5,408.3438 Q277.9063,408.0781 277.2813,408.0781 Q275.9375,408.0781 275.25,409.1406 Q274.5625,410.2031 274.5625,412.3125 Q274.5625,414.4063 275.25,415.4844 Q275.9375,416.5469 277.2813,416.5469 Q277.9063,416.5469 278.5,416.2813 Q279.0938,416 279.7344,415.4219 L279.7344,418.1406 Z " fill="#000000"/><text fill="#000000" font-family="sans-serif" font-size="14" lengthAdjust="spacing" textLength="63" x="297.25" y="417.3467">AxisData</text><line style="stroke:#181818;stroke-width:0.5;" x1="225" x2="400" y1="428.5" y2="428.5"/><text fill="#000000" font-family="sans-serif" font-size="14" lengthAdjust="spacing" textLength="165" x="230" y="445.4951">set_values : np.ndarray</text><line style="stroke:#181818;stroke-width:0.5;" x1="225" x2="400" y1="452.7969" y2="452.7969"/></g><!--class NonencodedAxisData--><g id="elem_NonencodedAxisData"><rect codeLine="67" fill="#F1F1F1" height="80.5938" id="NonencodedAxisData" rx="2.5" ry="2.5" style="stroke:#181818;stroke-width:0.5;" width="185" x="57" y="587.5"/><ellipse cx="72" cy="603.5" fill="#ADD1B2" rx="11" ry="11" style="stroke:#181818;stroke-width:1.0;"/><path d="M74.9844,609.1406 Q74.4063,609.4375 73.7656,609.5781 Q73.125,609.7344 72.4219,609.7344 Q69.9063,609.7344 68.5781,608.0938 Q67.2656,606.4375 67.2656,603.3125 Q67.2656,600.1719 68.5781,598.5313 Q69.9063,596.875 72.4219,596.875 Q73.125,596.875 73.7656,597.0313 Q74.4219,597.1719 74.9844,597.4688 L74.9844,600.1875 Q74.3438,599.6094 73.75,599.3438 Q73.1563,599.0781 72.5313,599.0781 Q71.1875,599.0781 70.5,600.1406 Q69.8125,601.2031 69.8125,603.3125 Q69.8125,605.4063 70.5,606.4844 Q71.1875,607.5469 72.5313,607.5469 Q73.1563,607.5469 73.75,607.2813 Q74.3438,607 74.9844,606.4219 L74.9844,609.1406 Z " fill="#000000"/><text fill="#000000" font-family="sans-serif" font-size="14" lengthAdjust="spacing" textLength="153" x="86" y="608.3467">NonencodedAxisData</text><line style="stroke:#181818;stroke-width:0.5;" x1="58" x2="241" y1="619.5" y2="619.5"/><text fill="#000000" font-family="sans-serif" font-size="14" lengthAdjust="spacing" textLength="172" x="63" y="636.4951">_filled_data : np.ndarray</text><line style="stroke:#181818;stroke-width:0.5;" x1="58" x2="241" y1="643.7969" y2="643.7969"/><text fill="#000000" font-family="sans-serif" font-size="14" lengthAdjust="spacing" textLength="84" x="63" y="660.792">filled_data()</text></g><g id="elem_GMN32"><path d="M6,777 L6,862.6641 A0,0 0 0 0 6,862.6641 L293,862.6641 A0,0 0 0 0 293,862.6641 L293,787 L283,777 L153.5,777 L149.5,668.83 L145.5,777 L6,777 A0,0 0 0 0 6,777 " fill="#FEFFDD" style="stroke:#181818;stroke-width:0.5;"/><path d="M283,777 L283,787 L293,787 L283,777 " fill="#FEFFDD" style="stroke:#181818;stroke-width:0.5;"/><text fill="#000000" font-family="sans-serif" font-size="13" lengthAdjust="spacing" textLength="266" x="12" y="794.0669">Data for axes without encoders are filled</text><text fill="#000000" font-family="sans-serif" font-size="13" lengthAdjust="spacing" textLength="259" x="12" y="809.1997">depending on the ChannelData they are</text><text fill="#000000" font-family="sans-serif" font-size="13" lengthAdjust="spacing" textLength="102" x="12" y="824.3325">plotted against.</text><text fill="#000000" font-family="sans-serif" font-size="13" lengthAdjust="spacing" textLength="254" x="12" y="839.4653">Hence for different channels, generally</text><text fill="#000000" font-family="sans-serif" font-size="13" lengthAdjust="spacing" textLength="193" x="12" y="854.5981">different filled data will exist.</text></g><!--class ChannelData--><g id="elem_ChannelData"><rect codeLine="79" fill="#F1F1F1" height="48" id="ChannelData" rx="2.5" ry="2.5" style="stroke:#181818;stroke-width:0.5;" width="125" x="1238" y="404.5"/><ellipse cx="1253" cy="420.5" fill="#ADD1B2" rx="11" ry="11" style="stroke:#181818;stroke-width:1.0;"/><path d="M1255.9844,426.1406 Q1255.4063,426.4375 1254.7656,426.5781 Q1254.125,426.7344 1253.4219,426.7344 Q1250.9063,426.7344 1249.5781,425.0938 Q1248.2656,423.4375 1248.2656,420.3125 Q1248.2656,417.1719 1249.5781,415.5313 Q1250.9063,413.875 1253.4219,413.875 Q1254.125,413.875 1254.7656,414.0313 Q1255.4219,414.1719 1255.9844,414.4688 L1255.9844,417.1875 Q1255.3438,416.6094 1254.75,416.3438 Q1254.1563,416.0781 1253.5313,416.0781 Q1252.1875,416.0781 1251.5,417.1406 Q1250.8125,418.2031 1250.8125,420.3125 Q1250.8125,422.4063 1251.5,423.4844 Q1252.1875,424.5469 1253.5313,424.5469 Q1254.1563,424.5469 1254.75,424.2813 Q1255.3438,424 1255.9844,423.4219 L1255.9844,426.1406 Z " fill="#000000"/><text fill="#000000" font-family="sans-serif" font-size="14" lengthAdjust="spacing" textLength="93" x="1267" y="425.3467">ChannelData</text><line style="stroke:#181818;stroke-width:0.5;" x1="1239" x2="1362" y1="436.5" y2="436.5"/><line style="stroke:#181818;stroke-width:0.5;" x1="1239" x2="1362" y1="444.5" y2="444.5"/></g><!--class TimestampData--><g id="elem_TimestampData"><rect codeLine="82" fill="#F1F1F1" height="96.8906" id="TimestampData" rx="2.5" ry="2.5" style="stroke:#181818;stroke-width:0.5;" width="287" x="766" y="380"/><ellipse cx="848.25" cy="396" fill="#ADD1B2" rx="11" ry="11" style="stroke:#181818;stroke-width:1.0;"/><path d="M851.2344,401.6406 Q850.6563,401.9375 850.0156,402.0781 Q849.375,402.2344 848.6719,402.2344 Q846.1563,402.2344 844.8281,400.5938 Q843.5156,398.9375 843.5156,395.8125 Q843.5156,392.6719 844.8281,391.0313 Q846.1563,389.375 848.6719,389.375 Q849.375,389.375 850.0156,389.5313 Q850.6719,389.6719 851.2344,389.9688 L851.2344,392.6875 Q850.5938,392.1094 850,391.8438 Q849.4063,391.5781 848.7813,391.5781 Q847.4375,391.5781 846.75,392.6406 Q846.0625,393.7031 846.0625,395.8125 Q846.0625,397.9063 846.75,398.9844 Q847.4375,400.0469 848.7813,400.0469 Q849.4063,400.0469 850,399.7813 Q850.5938,399.5 851.2344,398.9219 L851.2344,401.6406 Z " fill="#000000"/><text fill="#000000" font-family="sans-serif" font-size="14" lengthAdjust="spacing" textLength="114" x="868.75" y="400.8467">TimestampData</text><line style="stroke:#181818;stroke-width:0.5;" x1="767" x2="1052" y1="412" y2="412"/><text fill="#000000" font-family="sans-serif" font-size="14" lengthAdjust="spacing" textLength="275" x="772" y="428.9951">_first_positions : np.ndarray(dtype=int)</text><text fill="#000000" font-family="sans-serif" font-size="14" lengthAdjust="spacing" textLength="273" x="772" y="445.292">_last_positions : np.ndarray(dtype=int)</text><line style="stroke:#181818;stroke-width:0.5;" x1="767" x2="1052" y1="452.5938" y2="452.5938"/><text fill="#000000" font-family="sans-serif" font-size="14" lengthAdjust="spacing" textLength="258" x="772" y="469.5889">get_position(timestamp, mode=last)</text></g><!--class NonnumericChannelData--><g id="elem_NonnumericChannelData"><rect codeLine="88" fill="#F1F1F1" height="48" id="NonnumericChannelData" rx="2.5" ry="2.5" style="stroke:#181818;stroke-width:0.5;" width="212" x="1322.5" y="604"/><ellipse cx="1337.5" cy="620" fill="#ADD1B2" rx="11" ry="11" style="stroke:#181818;stroke-width:1.0;"/><path d="M1340.4844,625.6406 Q1339.9063,625.9375 1339.2656,626.0781 Q1338.625,626.2344 1337.9219,626.2344 Q1335.4063,626.2344 1334.0781,624.5938 Q1332.7656,622.9375 1332.7656,619.8125 Q1332.7656,616.6719 1334.0781,615.0313 Q1335.4063,613.375 1337.9219,613.375 Q1338.625,613.375 1339.2656,613.5313 Q1339.9219,613.6719 1340.4844,613.9688 L1340.4844,616.6875 Q1339.8438,616.1094 1339.25,615.8438 Q1338.6563,615.5781 1338.0313,615.5781 Q1336.6875,615.5781 1336,616.6406 Q1335.3125,617.7031 1335.3125,619.8125 Q1335.3125,621.9063 1336,622.9844 Q1336.6875,624.0469 1338.0313,624.0469 Q1338.6563,624.0469 1339.25,623.7813 Q1339.8438,623.5 1340.4844,622.9219 L1340.4844,625.6406 Z " fill="#000000"/><text fill="#000000" font-family="sans-serif" font-size="14" lengthAdjust="spacing" textLength="180" x="1351.5" y="624.8467">NonnumericChannelData</text><line style="stroke:#181818;stroke-width:0.5;" x1="1323.5" x2="1533.5" y1="636" y2="636"/><line style="stroke:#181818;stroke-width:0.5;" x1="1323.5" x2="1533.5" y1="644" y2="644"/></g><!--class SinglePointChannelData--><g id="elem_SinglePointChannelData"><rect codeLine="97" fill="#F1F1F1" height="48" id="SinglePointChannelData" rx="2.5" ry="2.5" style="stroke:#181818;stroke-width:0.5;" width="204" x="276.5" y="604"/><ellipse cx="291.5" cy="620" fill="#ADD1B2" rx="11" ry="11" style="stroke:#181818;stroke-width:1.0;"/><path d="M294.4844,625.6406 Q293.9063,625.9375 293.2656,626.0781 Q292.625,626.2344 291.9219,626.2344 Q289.4063,626.2344 288.0781,624.5938 Q286.7656,622.9375 286.7656,619.8125 Q286.7656,616.6719 288.0781,615.0313 Q289.4063,613.375 291.9219,613.375 Q292.625,613.375 293.2656,613.5313 Q293.9219,613.6719 294.4844,613.9688 L294.4844,616.6875 Q293.8438,616.1094 293.25,615.8438 Q292.6563,615.5781 292.0313,615.5781 Q290.6875,615.5781 290,616.6406 Q289.3125,617.7031 289.3125,619.8125 Q289.3125,621.9063 290,622.9844 Q290.6875,624.0469 292.0313,624.0469 Q292.6563,624.0469 293.25,623.7813 Q293.8438,623.5 294.4844,622.9219 L294.4844,625.6406 Z " fill="#000000"/><text fill="#000000" font-family="sans-serif" font-size="14" lengthAdjust="spacing" textLength="172" x="305.5" y="624.8467">SinglePointChannelData</text><line style="stroke:#181818;stroke-width:0.5;" x1="277.5" x2="479.5" y1="636" y2="636"/><line style="stroke:#181818;stroke-width:0.5;" x1="277.5" x2="479.5" y1="644" y2="644"/></g><!--class AverageChannelData--><g id="elem_AverageChannelData"><rect codeLine="107" fill="#F1F1F1" height="178.375" id="AverageChannelData" rx="2.5" ry="2.5" style="stroke:#181818;stroke-width:0.5;" width="246" x="776.5" y="539"/><ellipse cx="818.95" cy="555" fill="#ADD1B2" rx="11" ry="11" style="stroke:#181818;stroke-width:1.0;"/><path d="M821.9344,560.6406 Q821.3563,560.9375 820.7156,561.0781 Q820.075,561.2344 819.3719,561.2344 Q816.8563,561.2344 815.5281,559.5938 Q814.2156,557.9375 814.2156,554.8125 Q814.2156,551.6719 815.5281,550.0313 Q816.8563,548.375 819.3719,548.375 Q820.075,548.375 820.7156,548.5313 Q821.3719,548.6719 821.9344,548.9688 L821.9344,551.6875 Q821.2938,551.1094 820.7,550.8438 Q820.1063,550.5781 819.4813,550.5781 Q818.1375,550.5781 817.45,551.6406 Q816.7625,552.7031 816.7625,554.8125 Q816.7625,556.9063 817.45,557.9844 Q818.1375,559.0469 819.4813,559.0469 Q820.1063,559.0469 820.7,558.7813 Q821.2938,558.5 821.9344,557.9219 L821.9344,560.6406 Z " fill="#000000"/><text fill="#000000" font-family="sans-serif" font-size="14" lengthAdjust="spacing" textLength="153" x="839.05" y="559.8467">AverageChannelData</text><line style="stroke:#181818;stroke-width:0.5;" x1="777.5" x2="1021.5" y1="571" y2="571"/><text fill="#000000" font-family="sans-serif" font-size="14" lengthAdjust="spacing" textLength="167" x="782.5" y="587.9951">raw_data : raggedarray</text><text fill="#000000" font-family="sans-serif" font-size="14" lengthAdjust="spacing" textLength="234" x="782.5" y="604.292">attempts : np.ndarray(dtype=int)</text><text fill="#000000" font-family="sans-serif" font-size="14" lengthAdjust="spacing" textLength="139" x="782.5" y="620.5889">_mean : np.ndarray</text><text fill="#000000" font-family="sans-serif" font-size="14" lengthAdjust="spacing" textLength="119" x="782.5" y="636.8857">_std : np.ndarray</text><line style="stroke:#181818;stroke-width:0.5;" x1="777.5" x2="1021.5" y1="644.1875" y2="644.1875"/><text fill="#000000" font-family="sans-serif" font-size="14" lengthAdjust="spacing" textLength="51" x="782.5" y="661.1826">mean()</text><text fill="#000000" font-family="sans-serif" font-size="14" lengthAdjust="spacing" textLength="31" x="782.5" y="677.4795">std()</text><text fill="#000000" font-family="sans-serif" font-size="14" lengthAdjust="spacing" textLength="117" x="782.5" y="693.7764">averaged_data()</text><text fill="#000000" font-family="sans-serif" font-size="14" lengthAdjust="spacing" textLength="107" x="782.5" y="710.0732">has_raw_data()</text></g><!--class IntervalChannelData--><g id="elem_IntervalChannelData"><rect codeLine="130" fill="#F1F1F1" height="162.0781" id="IntervalChannelData" rx="2.5" ry="2.5" style="stroke:#181818;stroke-width:0.5;" width="230" x="1057.5" y="547"/><ellipse cx="1095.45" cy="563" fill="#ADD1B2" rx="11" ry="11" style="stroke:#181818;stroke-width:1.0;"/><path d="M1098.4344,568.6406 Q1097.8563,568.9375 1097.2156,569.0781 Q1096.575,569.2344 1095.8719,569.2344 Q1093.3563,569.2344 1092.0281,567.5938 Q1090.7156,565.9375 1090.7156,562.8125 Q1090.7156,559.6719 1092.0281,558.0313 Q1093.3563,556.375 1095.8719,556.375 Q1096.575,556.375 1097.2156,556.5313 Q1097.8719,556.6719 1098.4344,556.9688 L1098.4344,559.6875 Q1097.7938,559.1094 1097.2,558.8438 Q1096.6063,558.5781 1095.9813,558.5781 Q1094.6375,558.5781 1093.95,559.6406 Q1093.2625,560.7031 1093.2625,562.8125 Q1093.2625,564.9063 1093.95,565.9844 Q1094.6375,567.0469 1095.9813,567.0469 Q1096.6063,567.0469 1097.2,566.7813 Q1097.7938,566.5 1098.4344,565.9219 L1098.4344,568.6406 Z " fill="#000000"/><text fill="#000000" font-family="sans-serif" font-size="14" lengthAdjust="spacing" textLength="147" x="1114.55" y="567.8467">IntervalChannelData</text><line style="stroke:#181818;stroke-width:0.5;" x1="1058.5" x2="1286.5" y1="579" y2="579"/><text fill="#000000" font-family="sans-serif" font-size="14" lengthAdjust="spacing" textLength="167" x="1063.5" y="595.9951">raw_data : raggedarray</text><text fill="#000000" font-family="sans-serif" font-size="14" lengthAdjust="spacing" textLength="218" x="1063.5" y="612.292">counts : np.ndarray(dtype=int)</text><text fill="#000000" font-family="sans-serif" font-size="14" lengthAdjust="spacing" textLength="139" x="1063.5" y="628.5889">_mean : np.ndarray</text><text fill="#000000" font-family="sans-serif" font-size="14" lengthAdjust="spacing" textLength="119" x="1063.5" y="644.8857">_std : np.ndarray</text><line style="stroke:#181818;stroke-width:0.5;" x1="1058.5" x2="1286.5" y1="652.1875" y2="652.1875"/><text fill="#000000" font-family="sans-serif" font-size="14" lengthAdjust="spacing" textLength="51" x="1063.5" y="669.1826">mean()</text><text fill="#000000" font-family="sans-serif" font-size="14" lengthAdjust="spacing" textLength="31" x="1063.5" y="685.4795">std()</text><text fill="#000000" font-family="sans-serif" font-size="14" lengthAdjust="spacing" textLength="107" x="1063.5" y="701.7764">has_raw_data()</text></g><!--class ArrayChannelData--><g id="elem_ArrayChannelData"><rect codeLine="143" fill="#F1F1F1" height="48" id="ArrayChannelData" rx="2.5" ry="2.5" style="stroke:#181818;stroke-width:0.5;" width="164" x="1569.5" y="604"/><ellipse cx="1584.5" cy="620" fill="#ADD1B2" rx="11" ry="11" style="stroke:#181818;stroke-width:1.0;"/><path d="M1587.4844,625.6406 Q1586.9063,625.9375 1586.2656,626.0781 Q1585.625,626.2344 1584.9219,626.2344 Q1582.4063,626.2344 1581.0781,624.5938 Q1579.7656,622.9375 1579.7656,619.8125 Q1579.7656,616.6719 1581.0781,615.0313 Q1582.4063,613.375 1584.9219,613.375 Q1585.625,613.375 1586.2656,613.5313 Q1586.9219,613.6719 1587.4844,613.9688 L1587.4844,616.6875 Q1586.8438,616.1094 1586.25,615.8438 Q1585.6563,615.5781 1585.0313,615.5781 Q1583.6875,615.5781 1583,616.6406 Q1582.3125,617.7031 1582.3125,619.8125 Q1582.3125,621.9063 1583,622.9844 Q1583.6875,624.0469 1585.0313,624.0469 Q1585.6563,624.0469 1586.25,623.7813 Q1586.8438,623.5 1587.4844,622.9219 L1587.4844,625.6406 Z " fill="#000000"/><text fill="#000000" font-family="sans-serif" font-size="14" lengthAdjust="spacing" textLength="132" x="1598.5" y="624.8467">ArrayChannelData</text><line style="stroke:#181818;stroke-width:0.5;" x1="1570.5" x2="1732.5" y1="636" y2="636"/><line style="stroke:#181818;stroke-width:0.5;" x1="1570.5" x2="1732.5" y1="644" y2="644"/></g><!--class AreaChannelData--><g id="elem_AreaChannelData"><rect codeLine="150" fill="#F1F1F1" height="48" id="AreaChannelData" rx="2.5" ry="2.5" style="stroke:#181818;stroke-width:0.5;" width="159" x="1769" y="604"/><ellipse cx="1784" cy="620" fill="#ADD1B2" rx="11" ry="11" style="stroke:#181818;stroke-width:1.0;"/><path d="M1786.9844,625.6406 Q1786.4063,625.9375 1785.7656,626.0781 Q1785.125,626.2344 1784.4219,626.2344 Q1781.9063,626.2344 1780.5781,624.5938 Q1779.2656,622.9375 1779.2656,619.8125 Q1779.2656,616.6719 1780.5781,615.0313 Q1781.9063,613.375 1784.4219,613.375 Q1785.125,613.375 1785.7656,613.5313 Q1786.4219,613.6719 1786.9844,613.9688 L1786.9844,616.6875 Q1786.3438,616.1094 1785.75,615.8438 Q1785.1563,615.5781 1784.5313,615.5781 Q1783.1875,615.5781 1782.5,616.6406 Q1781.8125,617.7031 1781.8125,619.8125 Q1781.8125,621.9063 1782.5,622.9844 Q1783.1875,624.0469 1784.5313,624.0469 Q1785.1563,624.0469 1785.75,623.7813 Q1786.3438,623.5 1786.9844,622.9219 L1786.9844,625.6406 Z " fill="#000000"/><text fill="#000000" font-family="sans-serif" font-size="14" lengthAdjust="spacing" textLength="127" x="1798" y="624.8467">AreaChannelData</text><line style="stroke:#181818;stroke-width:0.5;" x1="1770" x2="1927" y1="636" y2="636"/><line style="stroke:#181818;stroke-width:0.5;" x1="1770" x2="1927" y1="644" y2="644"/></g><!--class NormalizedData--><g id="elem_NormalizedData"><rect codeLine="99" fill="#F1F1F1" height="80.5938" id="NormalizedData" rx="2.5" ry="2.5" style="stroke:#181818;stroke-width:0.5;" width="226" x="515.5" y="587.5"/><ellipse cx="566.75" cy="603.5" fill="#B4A7E5" rx="11" ry="11" style="stroke:#181818;stroke-width:1.0;"/><path d="M562.6719,599.25 L562.6719,597.0938 L570.0625,597.0938 L570.0625,599.25 L567.5938,599.25 L567.5938,607.3438 L570.0625,607.3438 L570.0625,609.5 L562.6719,609.5 L562.6719,607.3438 L565.1406,607.3438 L565.1406,599.25 L562.6719,599.25 Z " fill="#000000"/><text fill="#000000" font-family="sans-serif" font-size="14" font-style="italic" lengthAdjust="spacing" textLength="115" x="587.25" y="608.3467">NormalizedData</text><line style="stroke:#181818;stroke-width:0.5;" x1="516.5" x2="740.5" y1="619.5" y2="619.5"/><text fill="#000000" font-family="sans-serif" font-size="14" lengthAdjust="spacing" textLength="210" x="521.5" y="636.4951">normalized_data : np.ndarray</text><text fill="#000000" font-family="sans-serif" font-size="14" lengthAdjust="spacing" textLength="214" x="521.5" y="652.792">normalizing_data : np.ndarray</text><line style="stroke:#181818;stroke-width:0.5;" x1="516.5" x2="740.5" y1="660.0938" y2="660.0938"/></g><!--class SinglePointNormalizedChannelData--><g id="elem_SinglePointNormalizedChannelData"><rect codeLine="104" fill="#F1F1F1" height="48" id="SinglePointNormalizedChannelData" rx="2.5" ry="2.5" style="stroke:#181818;stroke-width:0.5;" width="285" x="340" y="796"/><ellipse cx="355" cy="812" fill="#ADD1B2" rx="11" ry="11" style="stroke:#181818;stroke-width:1.0;"/><path d="M357.9844,817.6406 Q357.4063,817.9375 356.7656,818.0781 Q356.125,818.2344 355.4219,818.2344 Q352.9063,818.2344 351.5781,816.5938 Q350.2656,814.9375 350.2656,811.8125 Q350.2656,808.6719 351.5781,807.0313 Q352.9063,805.375 355.4219,805.375 Q356.125,805.375 356.7656,805.5313 Q357.4219,805.6719 357.9844,805.9688 L357.9844,808.6875 Q357.3438,808.1094 356.75,807.8438 Q356.1563,807.5781 355.5313,807.5781 Q354.1875,807.5781 353.5,808.6406 Q352.8125,809.7031 352.8125,811.8125 Q352.8125,813.9063 353.5,814.9844 Q354.1875,816.0469 355.5313,816.0469 Q356.1563,816.0469 356.75,815.7813 Q357.3438,815.5 357.9844,814.9219 L357.9844,817.6406 Z " fill="#000000"/><text fill="#000000" font-family="sans-serif" font-size="14" lengthAdjust="spacing" textLength="253" x="369" y="816.8467">SinglePointNormalizedChannelData</text><line style="stroke:#181818;stroke-width:0.5;" x1="341" x2="624" y1="828" y2="828"/><line style="stroke:#181818;stroke-width:0.5;" x1="341" x2="624" y1="836" y2="836"/></g><g id="elem_GMN57"><path d="M470.5,378 L470.5,478.7969 A0,0 0 0 0 470.5,478.7969 L671.56,478.7969 L776.38,545.68 L679.56,478.7969 L730.5,478.7969 A0,0 0 0 0 730.5,478.7969 L730.5,388 L720.5,378 L470.5,378 A0,0 0 0 0 470.5,378 " fill="#FEFFDD" style="stroke:#181818;stroke-width:0.5;"/><path d="M720.5,378 L720.5,388 L730.5,388 L720.5,378 " fill="#FEFFDD" style="stroke:#181818;stroke-width:0.5;"/><text fill="#000000" font-family="sans-serif" font-size="13" lengthAdjust="spacing" textLength="203" x="476.5" y="395.0669">averaged_values() returns only</text><text fill="#000000" font-family="sans-serif" font-size="13" lengthAdjust="spacing" textLength="229" x="476.5" y="410.1997">those values used to average over.</text><text fill="#000000" font-family="sans-serif" font-size="13" lengthAdjust="spacing" textLength="8" x="476.5" y="425.3325">&#160;</text><text fill="#000000" font-family="sans-serif" font-size="13" lengthAdjust="spacing" textLength="239" x="476.5" y="440.4653">How does mean() differ from data()?</text><text fill="#000000" font-family="sans-serif" font-size="13" lengthAdjust="spacing" textLength="219" x="476.5" y="455.5981">Probably, data() should return the</text><text fill="#000000" font-family="sans-serif" font-size="13" lengthAdjust="spacing" textLength="103" x="476.5" y="470.731">averaged data -</text><text fill="#000000" font-family="sans-serif" font-size="13" font-style="italic" lengthAdjust="spacing" textLength="20" x="583.5" y="470.731">i.e.</text><text fill="#000000" font-family="sans-serif" font-size="13" lengthAdjust="spacing" textLength="59" x="603.5" y="470.731">, mean().</text></g><!--class AverageNormalizedChannelData--><g id="elem_AverageNormalizedChannelData"><rect codeLine="126" fill="#F1F1F1" height="48" id="AverageNormalizedChannelData" rx="2.5" ry="2.5" style="stroke:#181818;stroke-width:0.5;" width="266" x="683.5" y="796"/><ellipse cx="698.5" cy="812" fill="#ADD1B2" rx="11" ry="11" style="stroke:#181818;stroke-width:1.0;"/><path d="M701.4844,817.6406 Q700.9063,817.9375 700.2656,818.0781 Q699.625,818.2344 698.9219,818.2344 Q696.4063,818.2344 695.0781,816.5938 Q693.7656,814.9375 693.7656,811.8125 Q693.7656,808.6719 695.0781,807.0313 Q696.4063,805.375 698.9219,805.375 Q699.625,805.375 700.2656,805.5313 Q700.9219,805.6719 701.4844,805.9688 L701.4844,808.6875 Q700.8438,808.1094 700.25,807.8438 Q699.6563,807.5781 699.0313,807.5781 Q697.6875,807.5781 697,808.6406 Q696.3125,809.7031 696.3125,811.8125 Q696.3125,813.9063 697,814.9844 Q697.6875,816.0469 699.0313,816.0469 Q699.6563,816.0469 700.25,815.7813 Q700.8438,815.5 701.4844,814.9219 L701.4844,817.6406 Z " fill="#000000"/><text fill="#000000" font-family="sans-serif" font-size="14" lengthAdjust="spacing" textLength="234" x="712.5" y="816.8467">AverageNormalizedChannelData</text><line style="stroke:#181818;stroke-width:0.5;" x1="684.5" x2="948.5" y1="828" y2="828"/><line style="stroke:#181818;stroke-width:0.5;" x1="684.5" x2="948.5" y1="836" y2="836"/></g><!--class IntervalNormalizedChannelData--><g id="elem_IntervalNormalizedChannelData"><rect codeLine="140" fill="#F1F1F1" height="48" id="IntervalNormalizedChannelData" rx="2.5" ry="2.5" style="stroke:#181818;stroke-width:0.5;" width="260" x="996.5" y="796"/><ellipse cx="1011.5" cy="812" fill="#ADD1B2" rx="11" ry="11" style="stroke:#181818;stroke-width:1.0;"/><path d="M1014.4844,817.6406 Q1013.9063,817.9375 1013.2656,818.0781 Q1012.625,818.2344 1011.9219,818.2344 Q1009.4063,818.2344 1008.0781,816.5938 Q1006.7656,814.9375 1006.7656,811.8125 Q1006.7656,808.6719 1008.0781,807.0313 Q1009.4063,805.375 1011.9219,805.375 Q1012.625,805.375 1013.2656,805.5313 Q1013.9219,805.6719 1014.4844,805.9688 L1014.4844,808.6875 Q1013.8438,808.1094 1013.25,807.8438 Q1012.6563,807.5781 1012.0313,807.5781 Q1010.6875,807.5781 1010,808.6406 Q1009.3125,809.7031 1009.3125,811.8125 Q1009.3125,813.9063 1010,814.9844 Q1010.6875,816.0469 1012.0313,816.0469 Q1012.6563,816.0469 1013.25,815.7813 Q1013.8438,815.5 1014.4844,814.9219 L1014.4844,817.6406 Z " fill="#000000"/><text fill="#000000" font-family="sans-serif" font-size="14" lengthAdjust="spacing" textLength="228" x="1025.5" y="816.8467">IntervalNormalizedChannelData</text><line style="stroke:#181818;stroke-width:0.5;" x1="997.5" x2="1255.5" y1="828" y2="828"/><line style="stroke:#181818;stroke-width:0.5;" x1="997.5" x2="1255.5" y1="836" y2="836"/></g><!--class MCAChannelData--><g id="elem_MCAChannelData"><rect codeLine="146" fill="#F1F1F1" height="48" id="MCAChannelData" rx="2.5" ry="2.5" style="stroke:#181818;stroke-width:0.5;" width="157" x="1369" y="796"/><ellipse cx="1384" cy="812" fill="#ADD1B2" rx="11" ry="11" style="stroke:#181818;stroke-width:1.0;"/><path d="M1386.9844,817.6406 Q1386.4063,817.9375 1385.7656,818.0781 Q1385.125,818.2344 1384.4219,818.2344 Q1381.9063,818.2344 1380.5781,816.5938 Q1379.2656,814.9375 1379.2656,811.8125 Q1379.2656,808.6719 1380.5781,807.0313 Q1381.9063,805.375 1384.4219,805.375 Q1385.125,805.375 1385.7656,805.5313 Q1386.4219,805.6719 1386.9844,805.9688 L1386.9844,808.6875 Q1386.3438,808.1094 1385.75,807.8438 Q1385.1563,807.5781 1384.5313,807.5781 Q1383.1875,807.5781 1382.5,808.6406 Q1381.8125,809.7031 1381.8125,811.8125 Q1381.8125,813.9063 1382.5,814.9844 Q1383.1875,816.0469 1384.5313,816.0469 Q1385.1563,816.0469 1385.75,815.7813 Q1386.3438,815.5 1386.9844,814.9219 L1386.9844,817.6406 Z " fill="#000000"/><text fill="#000000" font-family="sans-serif" font-size="14" lengthAdjust="spacing" textLength="125" x="1398" y="816.8467">MCAChannelData</text><line style="stroke:#181818;stroke-width:0.5;" x1="1370" x2="1525" y1="828" y2="828"/><line style="stroke:#181818;stroke-width:0.5;" x1="1370" x2="1525" y1="836" y2="836"/></g><!--class ScopeChannelData--><g id="elem_ScopeChannelData"><rect codeLine="148" fill="#F1F1F1" height="48" id="ScopeChannelData" rx="2.5" ry="2.5" style="stroke:#181818;stroke-width:0.5;" width="169" x="1561" y="796"/><ellipse cx="1576" cy="812" fill="#ADD1B2" rx="11" ry="11" style="stroke:#181818;stroke-width:1.0;"/><path d="M1578.9844,817.6406 Q1578.4063,817.9375 1577.7656,818.0781 Q1577.125,818.2344 1576.4219,818.2344 Q1573.9063,818.2344 1572.5781,816.5938 Q1571.2656,814.9375 1571.2656,811.8125 Q1571.2656,808.6719 1572.5781,807.0313 Q1573.9063,805.375 1576.4219,805.375 Q1577.125,805.375 1577.7656,805.5313 Q1578.4219,805.6719 1578.9844,805.9688 L1578.9844,808.6875 Q1578.3438,808.1094 1577.75,807.8438 Q1577.1563,807.5781 1576.5313,807.5781 Q1575.1875,807.5781 1574.5,808.6406 Q1573.8125,809.7031 1573.8125,811.8125 Q1573.8125,813.9063 1574.5,814.9844 Q1575.1875,816.0469 1576.5313,816.0469 Q1577.1563,816.0469 1577.75,815.7813 Q1578.3438,815.5 1578.9844,814.9219 L1578.9844,817.6406 Z " fill="#000000"/><text fill="#000000" font-family="sans-serif" font-size="14" lengthAdjust="spacing" textLength="137" x="1590" y="816.8467">ScopeChannelData</text><line style="stroke:#181818;stroke-width:0.5;" x1="1562" x2="1729" y1="828" y2="828"/><line style="stroke:#181818;stroke-width:0.5;" x1="1562" x2="1729" y1="836" y2="836"/></g><!--class SampleCameraData--><g id="elem_SampleCameraData"><rect codeLine="153" fill="#F1F1F1" height="48" id="SampleCameraData" rx="2.5" ry="2.5" style="stroke:#181818;stroke-width:0.5;" width="177" x="1765" y="796"/><ellipse cx="1780" cy="812" fill="#ADD1B2" rx="11" ry="11" style="stroke:#181818;stroke-width:1.0;"/><path d="M1782.9844,817.6406 Q1782.4063,817.9375 1781.7656,818.0781 Q1781.125,818.2344 1780.4219,818.2344 Q1777.9063,818.2344 1776.5781,816.5938 Q1775.2656,814.9375 1775.2656,811.8125 Q1775.2656,808.6719 1776.5781,807.0313 Q1777.9063,805.375 1780.4219,805.375 Q1781.125,805.375 1781.7656,805.5313 Q1782.4219,805.6719 1782.9844,805.9688 L1782.9844,808.6875 Q1782.3438,808.1094 1781.75,807.8438 Q1781.1563,807.5781 1780.5313,807.5781 Q1779.1875,807.5781 1778.5,808.6406 Q1777.8125,809.7031 1777.8125,811.8125 Q1777.8125,813.9063 1778.5,814.9844 Q1779.1875,816.0469 1780.5313,816.0469 Q1781.1563,816.0469 1781.75,815.7813 Q1782.3438,815.5 1782.9844,814.9219 L1782.9844,817.6406 Z " fill="#000000"/><text fill="#000000" font-family="sans-serif" font-size="14" lengthAdjust="spacing" textLength="145" x="1794" y="816.8467">SampleCameraData</text><line style="stroke:#181818;stroke-width:0.5;" x1="1766" x2="1941" y1="828" y2="828"/><line style="stroke:#181818;stroke-width:0.5;" x1="1766" x2="1941" y1="836" y2="836"/></g><!--class ScientificCameraData--><g id="elem_ScientificCameraData"><rect codeLine="155" fill="#F1F1F1" height="48" id="ScientificCameraData" rx="2.5" ry="2.5" style="stroke:#181818;stroke-width:0.5;" width="188" x="1977.5" y="796"/><ellipse cx="1992.5" cy="812" fill="#ADD1B2" rx="11" ry="11" style="stroke:#181818;stroke-width:1.0;"/><path d="M1995.4844,817.6406 Q1994.9063,817.9375 1994.2656,818.0781 Q1993.625,818.2344 1992.9219,818.2344 Q1990.4063,818.2344 1989.0781,816.5938 Q1987.7656,814.9375 1987.7656,811.8125 Q1987.7656,808.6719 1989.0781,807.0313 Q1990.4063,805.375 1992.9219,805.375 Q1993.625,805.375 1994.2656,805.5313 Q1994.9219,805.6719 1995.4844,805.9688 L1995.4844,808.6875 Q1994.8438,808.1094 1994.25,807.8438 Q1993.6563,807.5781 1993.0313,807.5781 Q1991.6875,807.5781 1991,808.6406 Q1990.3125,809.7031 1990.3125,811.8125 Q1990.3125,813.9063 1991,814.9844 Q1991.6875,816.0469 1993.0313,816.0469 Q1993.6563,816.0469 1994.25,815.7813 Q1994.8438,815.5 1995.4844,814.9219 L1995.4844,817.6406 Z " fill="#000000"/><text fill="#000000" font-family="sans-serif" font-size="14" lengthAdjust="spacing" textLength="156" x="2006.5" y="816.8467">ScientificCameraData</text><line style="stroke:#181818;stroke-width:0.5;" x1="1978.5" x2="2164.5" y1="828" y2="828"/><line style="stroke:#181818;stroke-width:0.5;" x1="1978.5" x2="2164.5" y1="836" y2="836"/></g><g id="elem_array_area_channels_note"><path d="M1587,401 L1587,456.3984 L1912,456.3984 L1912,411 L1902,401 L1587,401 " fill="#FEFFDD" style="stroke:#181818;stroke-width:0.5;"/><path d="M1902,401 L1902,411 L1912,411 L1902,401 " fill="#FEFFDD" style="stroke:#181818;stroke-width:1.0;"/><text fill="#000000" font-family="sans-serif" font-size="13" lengthAdjust="spacing" textLength="20" x="1593" y="418.0669">For</text><text fill="#000000" font-family="monospace" font-size="13" lengthAdjust="spacing" textLength="128" x="1617" y="418.0669">ArrayChannelData</text><text fill="#000000" font-family="sans-serif" font-size="13" lengthAdjust="spacing" textLength="24" x="1749" y="418.0669">and</text><text fill="#000000" font-family="monospace" font-size="13" lengthAdjust="spacing" textLength="120" x="1777" y="418.0669">AreaChannelData</text><text fill="#000000" font-family="sans-serif" font-size="13" lengthAdjust="spacing" textLength="289" x="1593" y="433.1997">see separate diagrams, as these classes are</text><text fill="#000000" font-family="sans-serif" font-size="13" lengthAdjust="spacing" textLength="241" x="1593" y="448.3325">slightly more complex compositions.</text></g><!--reverse link DataImporter to HDF5DataImporter--><g id="link_DataImporter_HDF5DataImporter"><path d="M1269.5,150.43 C1269.5,181.39 1269.5,206.1 1269.5,236.97 " fill="none" id="DataImporter-backto-HDF5DataImporter" style="stroke:#181818;stroke-width:1.0;"/><polygon fill="none" points="1269.5,132.43,1263.5,150.43,1275.5,150.43,1269.5,132.43" style="stroke:#181818;stroke-width:1.0;"/></g><!--reverse link DataImporter to ImageDataImporter--><g id="link_DataImporter_ImageDataImporter"><path d="M1327.1271,144.2216 C1368.3271,181.1916 1414.93,223.03 1448.77,253.41 " fill="none" id="DataImporter-backto-ImageDataImporter" style="stroke:#181818;stroke-width:1.0;"/><polygon fill="none" points="1313.73,132.2,1323.1199,148.6873,1331.1343,139.7559,1313.73,132.2" style="stroke:#181818;stroke-width:1.0;"/></g><!--link HDF5DataImporter to ImageDataImporter--><!--reverse link Data to DataImporter--><g id="link_Data_DataImporter"><path codeLine="47" d="M989.37,91.5 C1065.35,91.5 1129.33,91.5 1205.31,91.5 " fill="none" id="Data-backto-DataImporter" style="stroke:#181818;stroke-width:1.0;"/><polygon fill="#181818" points="977.37,91.5,983.37,95.5,989.37,91.5,983.37,87.5,977.37,91.5" style="stroke:#181818;stroke-width:1.0;"/><text fill="#000000" font-family="sans-serif" font-size="13" lengthAdjust="spacing" textLength="8" x="1189.4255" y="87.7309">n</text></g><!--reverse link Data to Metadata--><g id="link_Data_Metadata"><path codeLine="48" d="M777.082,170.9523 C769.872,175.3923 772.78,173.27 765.5,177 C688.58,216.43 659.31,201.5 580.5,237 C570.03,241.71 559.13,247.65 549.24,253.48 " fill="none" id="Data-backto-Metadata" style="stroke:#181818;stroke-width:1.0;"/><polygon fill="#181818" points="787.3,164.66,780.0936,164.4002,777.082,170.9523,784.2885,171.2122,787.3,164.66" style="stroke:#181818;stroke-width:1.0;"/></g><!--reverse link Data to MeasureData--><g id="link_Data_MeasureData"><path d="M949.4147,178.7535 C971.7747,206.7435 984.95,223.24 1002.59,245.32 " fill="none" id="Data-backto-MeasureData" style="stroke:#181818;stroke-width:1.0;"/><polygon fill="none" points="938.18,164.69,944.7269,182.4984,954.1025,175.0086,938.18,164.69" style="stroke:#181818;stroke-width:1.0;"/></g><!--reverse link Data to MonitorData--><g id="link_Data_MonitorData"><path d="M811.5853,178.7535 C789.2253,206.7435 776.05,223.24 758.41,245.32 " fill="none" id="Data-backto-MonitorData" style="stroke:#181818;stroke-width:1.0;"/><polygon fill="none" points="822.82,164.69,806.8975,175.0086,816.2731,182.4984,822.82,164.69" style="stroke:#181818;stroke-width:1.0;"/></g><!--link Metadata to MonitorData--><!--link MonitorData to MeasureData--><!--reverse link MeasureData to DeviceData--><g id="link_MeasureData_DeviceData"><path d="M1063.4147,323.8512 C1085.7147,352.0112 1106.84,378.68 1126.98,404.11 " fill="none" id="MeasureData-backto-DeviceData" style="stroke:#181818;stroke-width:1.0;"/><polygon fill="none" points="1052.24,309.74,1058.711,327.5761,1068.1184,320.1263,1052.24,309.74" style="stroke:#181818;stroke-width:1.0;"/></g><!--reverse link MeasureData to AxisData--><g id="link_MeasureData_AxisData"><path d="M905.3461,313.9697 C893.1661,317.0697 898.32,315.54 886.5,318 C695.86,357.69 641.71,331.98 452.5,378 C432.46,382.87 411.27,389.54 391.61,396.39 " fill="none" id="MeasureData-backto-AxisData" style="stroke:#181818;stroke-width:1.0;"/><polygon fill="none" points="922.79,309.53,903.8662,308.1551,906.826,319.7844,922.79,309.53" style="stroke:#181818;stroke-width:1.0;"/></g><!--reverse link AxisData to NonencodedAxisData--><g id="link_AxisData_NonencodedAxisData"><path d="M275.2158,474.6753 C246.9458,508.9453 212.99,550.07 182.24,587.33 " fill="none" id="AxisData-backto-NonencodedAxisData" style="stroke:#181818;stroke-width:1.0;"/><polygon fill="none" points="286.67,460.79,270.5873,470.8572,279.8442,478.4933,286.67,460.79" style="stroke:#181818;stroke-width:1.0;"/></g><!--reverse link MeasureData to ChannelData--><g id="link_MeasureData_ChannelData"><path d="M1106.8338,317.6017 C1144.8438,336.6417 1177.85,353.86 1220.5,378 C1235.14,386.29 1250.95,395.92 1264.62,404.47 " fill="none" id="MeasureData-backto-ChannelData" style="stroke:#181818;stroke-width:1.0;"/><polygon fill="none" points="1090.74,309.54,1104.1465,322.9663,1109.521,312.2371,1090.74,309.54" style="stroke:#181818;stroke-width:1.0;"/></g><!--reverse link MeasureData to TimestampData--><g id="link_MeasureData_TimestampData"><path d="M991.5868,323.8524 C975.5068,344.1624 965.4,356.92 947.22,379.87 " fill="none" id="MeasureData-backto-TimestampData" style="stroke:#181818;stroke-width:1.0;"/><polygon fill="none" points="1002.76,309.74,986.8827,320.128,996.2909,327.5768,1002.76,309.74" style="stroke:#181818;stroke-width:1.0;"/></g><!--reverse link ChannelData to NonnumericChannelData--><g id="link_ChannelData_NonnumericChannelData"><path d="M1325.2191,467.6454 C1349.8191,505.6054 1388.8,565.74 1413.46,603.8 " fill="none" id="ChannelData-backto-NonnumericChannelData" style="stroke:#181818;stroke-width:1.0;"/><polygon fill="none" points="1315.43,452.54,1320.1839,470.9085,1330.2542,464.3824,1315.43,452.54" style="stroke:#181818;stroke-width:1.0;"/></g><!--link NonnumericChannelData to SinglePointChannelData--><!--link SinglePointChannelData to AverageChannelData--><!--link AverageChannelData to IntervalChannelData--><!--link IntervalChannelData to ArrayChannelData--><!--link ArrayChannelData to AreaChannelData--><!--reverse link ChannelData to SinglePointChannelData--><g id="link_ChannelData_SinglePointChannelData"><path d="M1255.8227,462.8509 C1241.4527,472.7209 1238.34,473.12 1220.5,479 C914.27,579.95 799.29,425.48 497.5,539 C459.98,553.11 424,582.7 401.61,603.67 " fill="none" id="ChannelData-backto-SinglePointChannelData" style="stroke:#181818;stroke-width:1.0;"/><polygon fill="none" points="1270.66,452.66,1252.4257,457.9052,1259.2197,467.7967,1270.66,452.66" style="stroke:#181818;stroke-width:1.0;"/></g><!--reverse link SinglePointChannelData to SinglePointNormalizedChannelData--><g id="link_SinglePointChannelData_SinglePointNormalizedChannelData"><path d="M399.8953,668.0879 C419.9153,704.6479 449.83,759.31 469.81,795.81 " fill="none" id="SinglePointChannelData-backto-SinglePointNormalizedChannelData" style="stroke:#181818;stroke-width:1.0;"/><polygon fill="none" points="391.25,652.3,394.6327,670.9697,405.158,665.2061,391.25,652.3" style="stroke:#181818;stroke-width:1.0;"/></g><!--reverse link NormalizedData to SinglePointNormalizedChannelData--><g id="link_NormalizedData_SinglePointNormalizedChannelData"><path d="M586.9224,683.1027 C557.3224,721.6227 524.46,764.39 500.23,795.93 " fill="none" id="NormalizedData-backto-SinglePointNormalizedChannelData" style="stroke:#181818;stroke-width:1.0;stroke-dasharray:7.0,7.0;"/><polygon fill="none" points="597.89,668.83,582.1648,679.4469,591.68,686.7586,597.89,668.83" style="stroke:#181818;stroke-width:1.0;"/></g><!--reverse link ChannelData to AverageChannelData--><g id="link_ChannelData_AverageChannelData"><path d="M1252.1053,462.2793 C1238.0953,471.3193 1236.48,471.53 1220.5,479 C1143.72,514.87 1116.15,502.85 1039.5,539 C1033.92,541.63 1028.28,544.44 1022.65,547.38 " fill="none" id="ChannelData-backto-AverageChannelData" style="stroke:#181818;stroke-width:1.0;"/><polygon fill="none" points="1267.23,452.52,1248.8522,457.2377,1255.3584,467.3208,1267.23,452.52" style="stroke:#181818;stroke-width:1.0;"/></g><!--reverse link AverageChannelData to AverageNormalizedChannelData--><g id="link_AverageChannelData_AverageNormalizedChannelData"><path d="M853.8312,733.5434 C841.1912,762.4634 835.39,775.77 826.71,795.62 " fill="none" id="AverageChannelData-backto-AverageNormalizedChannelData" style="stroke:#181818;stroke-width:1.0;"/><polygon fill="none" points="861.04,717.05,848.3334,731.1405,859.3291,735.9464,861.04,717.05" style="stroke:#181818;stroke-width:1.0;"/></g><!--reverse link NormalizedData to AverageNormalizedChannelData--><g id="link_NormalizedData_AverageNormalizedChannelData"><path d="M680.5713,681.6242 C718.6913,720.1442 762.47,764.39 793.67,795.93 " fill="none" id="NormalizedData-backto-AverageNormalizedChannelData" style="stroke:#181818;stroke-width:1.0;stroke-dasharray:7.0,7.0;"/><polygon fill="none" points="667.91,668.83,676.3066,685.8446,684.836,677.4037,667.91,668.83" style="stroke:#181818;stroke-width:1.0;"/></g><!--reverse link ChannelData to IntervalChannelData--><g id="link_ChannelData_IntervalChannelData"><path d="M1275.7785,467.6439 C1260.7385,490.8439 1246.46,512.88 1224.39,546.93 " fill="none" id="ChannelData-backto-IntervalChannelData" style="stroke:#181818;stroke-width:1.0;"/><polygon fill="none" points="1285.57,452.54,1270.7439,464.38,1280.8131,470.9077,1285.57,452.54" style="stroke:#181818;stroke-width:1.0;"/></g><!--reverse link IntervalChannelData to IntervalNormalizedChannelData--><g id="link_IntervalChannelData_IntervalNormalizedChannelData"><path d="M1148.8902,726.5235 C1141.2702,757.9635 1137.36,774.15 1132.11,795.83 " fill="none" id="IntervalChannelData-backto-IntervalNormalizedChannelData" style="stroke:#181818;stroke-width:1.0;"/><polygon fill="none" points="1153.13,709.03,1143.059,725.1103,1154.7213,727.9368,1153.13,709.03" style="stroke:#181818;stroke-width:1.0;"/></g><!--reverse link NormalizedData to IntervalNormalizedChannelData--><g id="link_NormalizedData_IntervalNormalizedChannelData"><path d="M693.2816,679.1635 C716.5216,695.9835 730.54,704.09 758.5,717 C771.55,723.03 935.94,767.74 1040.54,795.93 " fill="none" id="NormalizedData-backto-IntervalNormalizedChannelData" style="stroke:#181818;stroke-width:1.0;stroke-dasharray:7.0,7.0;"/><polygon fill="none" points="678.7,668.61,689.7638,684.024,696.7995,674.3029,678.7,668.61" style="stroke:#181818;stroke-width:1.0;"/></g><!--reverse link ChannelData to ArrayChannelData--><g id="link_ChannelData_ArrayChannelData"><path d="M1379.9805,456.4822 C1432.7205,475.5222 1492.09,500.43 1552.5,539 C1581.57,557.56 1610.56,584.59 1629.59,603.78 " fill="none" id="ChannelData-backto-ArrayChannelData" style="stroke:#181818;stroke-width:1.0;"/><polygon fill="none" points="1363.05,450.37,1377.9431,462.1257,1382.0179,450.8387,1363.05,450.37" style="stroke:#181818;stroke-width:1.0;"/></g><!--reverse link ArrayChannelData to MCAChannelData--><g id="link_ArrayChannelData_MCAChannelData"><path d="M1613.3172,664.5669 C1574.0572,701.1269 1511.59,759.31 1472.4,795.81 " fill="none" id="ArrayChannelData-backto-MCAChannelData" style="stroke:#181818;stroke-width:1.0;"/><polygon fill="none" points="1626.49,652.3,1609.2282,660.176,1617.4061,668.9578,1626.49,652.3" style="stroke:#181818;stroke-width:1.0;"/></g><!--reverse link ArrayChannelData to ScopeChannelData--><g id="link_ArrayChannelData_ScopeChannelData"><path d="M1650.1941,670.2911 C1649.0441,706.8511 1647.38,759.31 1646.23,795.81 " fill="none" id="ArrayChannelData-backto-ScopeChannelData" style="stroke:#181818;stroke-width:1.0;"/><polygon fill="none" points="1650.76,652.3,1644.1971,670.1025,1656.1911,670.4797,1650.76,652.3" style="stroke:#181818;stroke-width:1.0;"/></g><!--reverse link ChannelData to AreaChannelData--><g id="link_ChannelData_AreaChannelData"><path d="M1380.8781,444.0326 C1488.1681,463.9326 1684.23,503.33 1751.5,539 C1782.24,555.3 1810.88,583.55 1828.96,603.64 " fill="none" id="ChannelData-backto-AreaChannelData" style="stroke:#181818;stroke-width:1.0;"/><polygon fill="none" points="1363.18,440.75,1379.7839,449.932,1381.9724,438.1332,1363.18,440.75" style="stroke:#181818;stroke-width:1.0;"/></g><!--reverse link AreaChannelData to SampleCameraData--><g id="link_AreaChannelData_SampleCameraData"><path d="M1849.5874,670.2937 C1850.5574,706.8537 1851.93,759.31 1852.89,795.81 " fill="none" id="AreaChannelData-backto-SampleCameraData" style="stroke:#181818;stroke-width:1.0;"/><polygon fill="none" points="1849.11,652.3,1843.5895,670.4528,1855.5853,670.1345,1849.11,652.3" style="stroke:#181818;stroke-width:1.0;"/></g><!--reverse link AreaChannelData to ScientificCameraData--><g id="link_AreaChannelData_ScientificCameraData"><path d="M1889.5426,663.9721 C1932.4626,700.5321 2001.44,759.31 2044.28,795.81 " fill="none" id="AreaChannelData-backto-ScientificCameraData" style="stroke:#181818;stroke-width:1.0;"/><polygon fill="none" points="1875.84,652.3,1885.6519,668.5397,1893.4333,659.4046,1875.84,652.3" style="stroke:#181818;stroke-width:1.0;"/></g><!--link array_area_channels_note to AreaChannelData--><g id="link_array_area_channels_note_AreaChannelData"><path codeLine="163" d="M1762.85,456.14 C1782.38,495.09 1818.41,566.98 1836.9,603.85 " fill="none" id="array_area_channels_note-AreaChannelData" style="stroke:#181818;stroke-width:1.0;stroke-dasharray:7.0,7.0;"/></g><!--link array_area_channels_note to ArrayChannelData--><g id="link_array_area_channels_note_ArrayChannelData"><path codeLine="164" d="M1736.28,456.14 C1716.95,495.09 1681.28,566.98 1662.99,603.85 " fill="none" id="array_area_channels_note-ArrayChannelData" style="stroke:#181818;stroke-width:1.0;stroke-dasharray:7.0,7.0;"/></g><!--SRC=[jLTDRziu4BthLn2-D5authP0Bq6RHP2WI0uD0cHlRI6CnP7DBKKA9EN46-I_xv2YPCgIuomMcqleqNpppIFvpluIgWO35UErO1y-lS-oGeArx1eSiEUCqL-53hZ_USw-nMMGwze9hIo9kIXS48cgriQX-VwJfDx5RHI4htdqekg5uc0CR8FOIqzEmtA5Bey_NpAb7JA9fMEw3CxEp_C- -2miPwon3KYvPOLM3WHb0-p3DGlE6IZE14cA0gr57kms0fXROmpg0r9sliIrvkpaVal_5QkDhj6uxIcfGbjPGL5ii4pBOgHS2cDT3C94oHJw5PZj8WkMNxLXGd6n4PnIPSKQb4B9DY0RjCmYvO96R92pq7cqmUfoWmPMUDLgXztmvTmgYagcYJo6kVGbxwjV6eI1p22pkiB7hYnROo4eAmYrzMraAEYdOH-lGwCObG1C2XksefKi_yB2jRcUa4415lr7KL7MDWG7ANxXwI93MlkzJA7LDx25cDMDAP2WOPqHQXLaKWCFE8XcDzTVFmrCyScHwqb_mc4rz5P1NTEw0sllzTRdUzHjreBHYDKwj61a5MBS8PATqumwpYKcBGjT8QH8L52XdGTrwZcXZDNQ2Zz8X2MCYgfpjCJG1kHf5qUDEFk-5foZ-danaLYiivjSQb0oMUVimUDFmCfJGAdD3zLFUwLv8v7G5P3psncRgTcmAV73sOuM-c1W6nFo6BGpxivpAL3obxvoE-244-wsDNuHoYMR_qqhuRGvvh4IabgEX6B-gjE-6qdhaX1P6YvLsTNLWnateXXMEg5r-IJi8Prk18Zw8YSC6B9lmHtXGnMQm33orWjQLpa1JI8_GBV9nntDBhLpkl9G7OS9Li5zwNdWYJ9y97hGZMEjfh61M5h7BQLZJOdvUIDSUz9CIIWG3Ha4pLfIPE8-M7dsTeiWl26_6A9nKPPeKBcED-sSE5iHDnBfjw5wZJP-Iq-FjARs2E-HCadf9qrbUZlwblyfQ5WTLFMHlUlWbuUp83-Ewu4HXNghZJyVEyqJrsKtzxEANxoVqm5UL5FHqL9CLPpAdidctGtAcadO-cq5jXGkctQGZCC3RR34Uqtf9HhPj3Wr71zksSHvbzBQ-DZB9cI367ldOJOw80VAWtEoQ-61IWxrKFYCIY3etcbJqV7tD_849QeN7fZCJe6YJcYyJ6IrYpELtu7qwP8ciQA9iUCy-o0J-p5PTaZSm6ENC1cjCAcfGpdGb5UrUntUUOMWndt9hUDZgTUDrqRw7bVGfjtJcvUjmUPTXZl6SxhsT3S1nO6VbfBffcZGDOR6Kwj8FCI0TEM9bDtG_T8VsD6EQVeVBsOt-f5nJJfjmf6mM6c8RzkK_WXwzqOlOIcty-vkQebY9O-1FMiECcjvxenz5XTYWOlFlukBUGmnldB5Ab-7oyIM7u5ATuUQcCJ_19P2D-f_Xye85dlLlDwigPhVDbZxD3JTgTtDv-foShFswQqZXuAUBl_6OF-9S2IT1_15Nj4jri2U_saABGGrH9HqYBp19amcsFRzbjCT0VBktCy3dhi7rMosNyzi5XuT_iF0wMmMhrVqya7_r7NzXPVk4ksxX-OulhtwUucL_gvF3yjAqzMcqBxgf_2_EwZJATjlugAf5uUB647WTVL_0000]--></g></svg>