<?xml version="1.0" encoding="us-ascii" standalone="no"?><svg xmlns="http://www.w3.org/2000/svg" xmlns:xlink="http://www.w3.org/1999/xlink" contentStyleType="text/css" height="669.6px" preserveAspectRatio="none" style="width:702px;height:669px;background:#FFFFFF;" version="1.1" viewBox="0 0 702 669" width="702px" zoomAndPan="magnify"><defs/><g><!--cluster measurement--><g id="cluster_measurement"><path d="M7.65,5.4 L88.65,5.4 A3.375,3.375 0 0 1 90.9,7.65 L97.2,25.5656 L693.45,25.5656 A2.25,2.25 0 0 1 695.7,27.8156 L695.7,286.65 A2.25,2.25 0 0 1 693.45,288.9 L7.65,288.9 A2.25,2.25 0 0 1 5.4,286.65 L5.4,7.65 A2.25,2.25 0 0 1 7.65,5.4 " fill="none" style="stroke:#000000;stroke-width:1.35;"/><line style="stroke:#000000;stroke-width:1.35;" x1="5.4" x2="97.2" y1="25.5656" y2="25.5656"/><text fill="#000000" font-family="sans-serif" font-size="12.6" font-weight="bold" lengthAdjust="spacing" textLength="80.1" x="9" y="18.8895">measurement</text></g><!--cluster entities--><g id="cluster_entities"><path d="M29.25,44.1 L74.25,44.1 A3.375,3.375 0 0 1 76.5,46.35 L82.8,64.2656 L671.85,64.2656 A2.25,2.25 0 0 1 674.1,66.5156 L674.1,265.05 A2.25,2.25 0 0 1 671.85,267.3 L29.25,267.3 A2.25,2.25 0 0 1 27,265.05 L27,46.35 A2.25,2.25 0 0 1 29.25,44.1 " fill="none" style="stroke:#000000;stroke-width:1.35;"/><line style="stroke:#000000;stroke-width:1.35;" x1="27" x2="82.8" y1="64.2656" y2="64.2656"/><text fill="#000000" font-family="sans-serif" font-size="12.6" font-weight="bold" lengthAdjust="spacing" textLength="44.1" x="30.6" y="57.5895">entities</text></g><!--cluster measurement--><g id="cluster_measurement"><path d="M184.05,82.8 L265.05,82.8 A3.375,3.375 0 0 1 267.3,85.05 L273.6,102.9656 L650.25,102.9656 A2.25,2.25 0 0 1 652.5,105.2156 L652.5,243.45 A2.25,2.25 0 0 1 650.25,245.7 L184.05,245.7 A2.25,2.25 0 0 1 181.8,243.45 L181.8,85.05 A2.25,2.25 0 0 1 184.05,82.8 " fill="none" style="stroke:#000000;stroke-width:1.35;"/><line style="stroke:#000000;stroke-width:1.35;" x1="181.8" x2="273.6" y1="102.9656" y2="102.9656"/><text fill="#000000" font-family="sans-serif" font-size="12.6" font-weight="bold" lengthAdjust="spacing" textLength="80.1" x="185.4" y="96.2895">measurement</text></g><!--cluster metadata--><g id="cluster_metadata"><path d="M50.85,119.7 L107.55,119.7 A3.375,3.375 0 0 1 109.8,121.95 L116.1,139.8656 L157.95,139.8656 A2.25,2.25 0 0 1 160.2,142.1156 L160.2,206.55 A2.25,2.25 0 0 1 157.95,208.8 L50.85,208.8 A2.25,2.25 0 0 1 48.6,206.55 L48.6,121.95 A2.25,2.25 0 0 1 50.85,119.7 " fill="none" style="stroke:#000000;stroke-width:1.35;"/><line style="stroke:#000000;stroke-width:1.35;" x1="48.6" x2="116.1" y1="139.8656" y2="139.8656"/><text fill="#000000" font-family="sans-serif" font-size="12.6" font-weight="bold" lengthAdjust="spacing" textLength="55.8" x="52.2" y="133.1895">metadata</text></g><!--cluster evefile--><g id="cluster_evefile"><path d="M403.65,310.5 L444.15,310.5 A3.375,3.375 0 0 1 446.4,312.75 L452.7,330.6656 L672.75,330.6656 A2.25,2.25 0 0 1 675,332.9156 L675,517.95 A2.25,2.25 0 0 1 672.75,520.2 L403.65,520.2 A2.25,2.25 0 0 1 401.4,517.95 L401.4,312.75 A2.25,2.25 0 0 1 403.65,310.5 " fill="none" style="stroke:#000000;stroke-width:1.35;"/><line style="stroke:#000000;stroke-width:1.35;" x1="401.4" x2="452.7" y1="330.6656" y2="330.6656"/><text fill="#000000" font-family="sans-serif" font-size="12.6" font-weight="bold" lengthAdjust="spacing" textLength="39.6" x="405" y="323.9895">evefile</text></g><!--cluster entities--><g id="cluster_entities"><path d="M425.25,349.2 L470.25,349.2 A3.375,3.375 0 0 1 472.5,351.45 L478.8,369.3656 L651.15,369.3656 A2.25,2.25 0 0 1 653.4,371.6156 L653.4,496.35 A2.25,2.25 0 0 1 651.15,498.6 L425.25,498.6 A2.25,2.25 0 0 1 423,496.35 L423,351.45 A2.25,2.25 0 0 1 425.25,349.2 " fill="none" style="stroke:#000000;stroke-width:1.35;"/><line style="stroke:#000000;stroke-width:1.35;" x1="423" x2="478.8" y1="369.3656" y2="369.3656"/><text fill="#000000" font-family="sans-serif" font-size="12.6" font-weight="bold" lengthAdjust="spacing" textLength="44.1" x="426.6" y="362.6895">entities</text></g><!--cluster file--><g id="cluster_file"><path d="M446.85,387.9 L466.65,387.9 A3.375,3.375 0 0 1 468.9,390.15 L475.2,408.0656 L629.55,408.0656 A2.25,2.25 0 0 1 631.8,410.3156 L631.8,474.75 A2.25,2.25 0 0 1 629.55,477 L446.85,477 A2.25,2.25 0 0 1 444.6,474.75 L444.6,390.15 A2.25,2.25 0 0 1 446.85,387.9 " fill="none" style="stroke:#000000;stroke-width:1.35;"/><line style="stroke:#000000;stroke-width:1.35;" x1="444.6" x2="475.2" y1="408.0656" y2="408.0656"/><text fill="#000000" font-family="sans-serif" font-size="12.6" font-weight="bold" lengthAdjust="spacing" textLength="18.9" x="448.2" y="401.3895">file</text></g><!--class Measurement--><g id="elem_Measurement"><rect fill="#F1F1F1" height="43.2" id="Measurement" rx="2.25" ry="2.25" style="stroke:#181818;stroke-width:0.45;" width="106.2" x="196.2" y="151.2"/><ellipse cx="209.7" cy="165.6" fill="#ADD1B2" rx="9.9" ry="9.9" style="stroke:#181818;stroke-width:0.9;"/><path d="M209.7422,171.1828 C211.0922,171.1828 212.2031,170.6766 213.0188,169.7203 L211.7813,168.3563 C211.2891,168.8906 210.6984,169.2422 209.9813,169.2422 C208.4766,169.2422 207.4359,168.0469 207.4359,165.9938 C207.4359,163.9969 208.4766,162.7875 209.8828,162.7875 C210.6141,162.7875 211.1484,163.0688 211.6266,163.5047 L212.8641,162.1125 C212.1891,161.4516 211.1484,160.8469 209.8828,160.8469 C207.225,160.8469 205.1297,162.7734 205.1297,166.0781 C205.1297,169.425 207.2672,171.1828 209.7422,171.1828 Z " fill="#000000"/><text fill="#000000" font-family="sans-serif" font-size="12.6" lengthAdjust="spacing" textLength="77.4" x="222.3" y="169.9066">Measurement</text><line style="stroke:#181818;stroke-width:0.45;" x1="197.1" x2="301.5" y1="180" y2="180"/><line style="stroke:#181818;stroke-width:0.45;" x1="197.1" x2="301.5" y1="187.2" y2="187.2"/></g><!--class Data--><g id="elem_Data"><rect codeLine="35" fill="#F1F1F1" height="87.4969" id="Data" rx="2.25" ry="2.25" style="stroke:#181818;stroke-width:0.45;" width="164.7" x="334.35" y="129.15"/><ellipse cx="399.375" cy="143.55" fill="#ADD1B2" rx="9.9" ry="9.9" style="stroke:#181818;stroke-width:0.9;"/><path d="M399.4172,149.1328 C400.7672,149.1328 401.8781,148.6266 402.6938,147.6703 L401.4563,146.3063 C400.9641,146.8406 400.3734,147.1922 399.6563,147.1922 C398.1516,147.1922 397.1109,145.9969 397.1109,143.9438 C397.1109,141.9469 398.1516,140.7375 399.5578,140.7375 C400.2891,140.7375 400.8234,141.0188 401.3016,141.4547 L402.5391,140.0625 C401.8641,139.4016 400.8234,138.7969 399.5578,138.7969 C396.9,138.7969 394.8047,140.7234 394.8047,144.0281 C394.8047,147.375 396.9422,149.1328 399.4172,149.1328 Z " fill="#000000"/><text fill="#000000" font-family="sans-serif" font-size="12.6" lengthAdjust="spacing" textLength="27" x="417.825" y="147.8566">Data</text><line style="stroke:#181818;stroke-width:0.45;" x1="335.25" x2="498.15" y1="157.95" y2="157.95"/><text fill="#000000" font-family="sans-serif" font-size="12.6" lengthAdjust="spacing" textLength="96.3" x="339.75" y="173.2395">data : np.ndarray</text><text fill="#000000" font-family="sans-serif" font-size="12.6" lengthAdjust="spacing" textLength="89.1" x="339.75" y="188.0051">axes[]: AxisData</text><text fill="#000000" font-family="sans-serif" font-size="12.6" lengthAdjust="spacing" textLength="153.9" x="339.75" y="202.7707">metadata : DeviceMetadata</text><line style="stroke:#181818;stroke-width:0.45;" x1="335.25" x2="498.15" y1="209.4469" y2="209.4469"/></g><!--class Axis--><g id="elem_Axis"><rect codeLine="41" fill="#F1F1F1" height="117.0281" id="Axis" rx="2.25" ry="2.25" style="stroke:#181818;stroke-width:0.45;" width="107.1" x="530.55" y="114.3"/><ellipse cx="568.755" cy="128.7" fill="#ADD1B2" rx="9.9" ry="9.9" style="stroke:#181818;stroke-width:0.9;"/><path d="M568.7972,134.2828 C570.1472,134.2828 571.2581,133.7766 572.0738,132.8203 L570.8363,131.4563 C570.3441,131.9906 569.7534,132.3422 569.0363,132.3422 C567.5316,132.3422 566.4909,131.1469 566.4909,129.0938 C566.4909,127.0969 567.5316,125.8875 568.9378,125.8875 C569.6691,125.8875 570.2034,126.1688 570.6816,126.6047 L571.9191,125.2125 C571.2441,124.5516 570.2034,123.9469 568.9378,123.9469 C566.28,123.9469 564.1847,125.8734 564.1847,129.1781 C564.1847,132.525 566.3222,134.2828 568.7972,134.2828 Z " fill="#000000"/><text fill="#000000" font-family="sans-serif" font-size="12.6" lengthAdjust="spacing" textLength="23.4" x="586.845" y="133.0066">Axis</text><line style="stroke:#181818;stroke-width:0.45;" x1="531.45" x2="636.75" y1="143.1" y2="143.1"/><text fill="#000000" font-family="sans-serif" font-size="12.6" lengthAdjust="spacing" textLength="96.3" x="535.95" y="158.3895">data : np.ndarray</text><text fill="#000000" font-family="sans-serif" font-size="12.6" lengthAdjust="spacing" textLength="63.9" x="535.95" y="173.1551">label: string</text><text fill="#000000" font-family="sans-serif" font-size="12.6" lengthAdjust="spacing" textLength="87.3" x="535.95" y="187.9207">quantity : string</text><text fill="#000000" font-family="sans-serif" font-size="12.6" lengthAdjust="spacing" textLength="81" x="535.95" y="202.6863">symbol : string</text><text fill="#000000" font-family="sans-serif" font-size="12.6" lengthAdjust="spacing" textLength="62.1" x="535.95" y="217.452">unit : string</text><line style="stroke:#181818;stroke-width:0.45;" x1="531.45" x2="636.75" y1="224.1281" y2="224.1281"/></g><!--class Metadata--><g id="elem_Metadata"><rect fill="#F1F1F1" height="43.2" id="Metadata" rx="2.25" ry="2.25" style="stroke:#181818;stroke-width:0.45;" width="83.7" x="62.55" y="151.2"/><ellipse cx="76.05" cy="165.6" fill="#ADD1B2" rx="9.9" ry="9.9" style="stroke:#181818;stroke-width:0.9;"/><path d="M76.0922,171.1828 C77.4422,171.1828 78.5531,170.6766 79.3688,169.7203 L78.1313,168.3563 C77.6391,168.8906 77.0484,169.2422 76.3313,169.2422 C74.8266,169.2422 73.7859,168.0469 73.7859,165.9938 C73.7859,163.9969 74.8266,162.7875 76.2328,162.7875 C76.9641,162.7875 77.4984,163.0688 77.9766,163.5047 L79.2141,162.1125 C78.5391,161.4516 77.4984,160.8469 76.2328,160.8469 C73.575,160.8469 71.4797,162.7734 71.4797,166.0781 C71.4797,169.425 73.6172,171.1828 76.0922,171.1828 Z " fill="#000000"/><text fill="#000000" font-family="sans-serif" font-size="12.6" lengthAdjust="spacing" textLength="54.9" x="88.65" y="169.9066">Metadata</text><line style="stroke:#181818;stroke-width:0.45;" x1="63.45" x2="145.35" y1="180" y2="180"/><line style="stroke:#181818;stroke-width:0.45;" x1="63.45" x2="145.35" y1="187.2" y2="187.2"/></g><!--class Scan--><g id="elem_Scan"><rect codeLine="25" fill="#F1F1F1" height="43.2" id="Scan" rx="2.25" ry="2.25" style="stroke:#181818;stroke-width:0.45;" width="56.7" x="459.45" y="419.4"/><ellipse cx="472.95" cy="433.8" fill="#ADD1B2" rx="9.9" ry="9.9" style="stroke:#181818;stroke-width:0.9;"/><path d="M472.9922,439.3828 C474.3422,439.3828 475.4531,438.8766 476.2688,437.9203 L475.0313,436.5563 C474.5391,437.0906 473.9484,437.4422 473.2313,437.4422 C471.7266,437.4422 470.6859,436.2469 470.6859,434.1938 C470.6859,432.1969 471.7266,430.9875 473.1328,430.9875 C473.8641,430.9875 474.3984,431.2688 474.8766,431.7047 L476.1141,430.3125 C475.4391,429.6516 474.3984,429.0469 473.1328,429.0469 C470.475,429.0469 468.3797,430.9734 468.3797,434.2781 C468.3797,437.625 470.5172,439.3828 472.9922,439.3828 Z " fill="#000000"/><text fill="#000000" font-family="sans-serif" font-size="12.6" lengthAdjust="spacing" textLength="27.9" x="485.55" y="438.1066">Scan</text><line style="stroke:#181818;stroke-width:0.45;" x1="460.35" x2="515.25" y1="448.2" y2="448.2"/><line style="stroke:#181818;stroke-width:0.45;" x1="460.35" x2="515.25" y1="455.4" y2="455.4"/></g><!--class Station--><g id="elem_Station"><rect codeLine="28" fill="#F1F1F1" height="43.2" id="Station" rx="2.25" ry="2.25" style="stroke:#181818;stroke-width:0.45;" width="69.3" x="547.65" y="419.4"/><ellipse cx="561.15" cy="433.8" fill="#ADD1B2" rx="9.9" ry="9.9" style="stroke:#181818;stroke-width:0.9;"/><path d="M561.1922,439.3828 C562.5422,439.3828 563.6531,438.8766 564.4688,437.9203 L563.2313,436.5563 C562.7391,437.0906 562.1484,437.4422 561.4313,437.4422 C559.9266,437.4422 558.8859,436.2469 558.8859,434.1938 C558.8859,432.1969 559.9266,430.9875 561.3328,430.9875 C562.0641,430.9875 562.5984,431.2688 563.0766,431.7047 L564.3141,430.3125 C563.6391,429.6516 562.5984,429.0469 561.3328,429.0469 C558.675,429.0469 556.5797,430.9734 556.5797,434.2781 C556.5797,437.625 558.7172,439.3828 561.1922,439.3828 Z " fill="#000000"/><text fill="#000000" font-family="sans-serif" font-size="12.6" lengthAdjust="spacing" textLength="40.5" x="573.75" y="438.1066">Station</text><line style="stroke:#181818;stroke-width:0.45;" x1="548.55" x2="616.05" y1="448.2" y2="448.2"/><line style="stroke:#181818;stroke-width:0.45;" x1="548.55" x2="616.05" y1="455.4" y2="455.4"/></g><!--class Measurement--><g id="elem_Measurement"><rect codeLine="3" fill="#F1F1F1" height="249.9188" id="Measurement" rx="2.25" ry="2.25" style="stroke:#181818;stroke-width:0.45;" width="233.1" x="153.45" y="315.9"/><ellipse cx="227.475" cy="330.3" fill="#ADD1B2" rx="9.9" ry="9.9" style="stroke:#181818;stroke-width:0.9;"/><path d="M227.5172,335.8828 C228.8672,335.8828 229.9781,335.3766 230.7938,334.4203 L229.5563,333.0563 C229.0641,333.5906 228.4734,333.9422 227.7563,333.9422 C226.2516,333.9422 225.2109,332.7469 225.2109,330.6938 C225.2109,328.6969 226.2516,327.4875 227.6578,327.4875 C228.3891,327.4875 228.9234,327.7688 229.4016,328.2047 L230.6391,326.8125 C229.9641,326.1516 228.9234,325.5469 227.6578,325.5469 C225,325.5469 222.9047,327.4734 222.9047,330.7781 C222.9047,334.125 225.0422,335.8828 227.5172,335.8828 Z " fill="#000000"/><text fill="#000000" font-family="sans-serif" font-size="12.6" lengthAdjust="spacing" textLength="77.4" x="245.925" y="334.6066">Measurement</text><line style="stroke:#181818;stroke-width:0.45;" x1="154.35" x2="385.65" y1="344.7" y2="344.7"/><text fill="#000000" font-family="sans-serif" font-size="12.6" lengthAdjust="spacing" textLength="134.1" x="158.85" y="359.9895">devices{} : MeasureData</text><text fill="#000000" font-family="sans-serif" font-size="12.6" lengthAdjust="spacing" textLength="219.6" x="158.85" y="374.7551">machine{} : MeasureData | MonitorData</text><text fill="#000000" font-family="sans-serif" font-size="12.6" lengthAdjust="spacing" textLength="222.3" x="158.85" y="389.5207">beamline{} : MeasureData | MonitorData</text><text fill="#000000" font-family="sans-serif" font-size="12.6" lengthAdjust="spacing" textLength="192.6" x="158.85" y="404.2863">device_snapshots{} : MeasureData</text><text fill="#000000" font-family="sans-serif" font-size="12.6" lengthAdjust="spacing" textLength="117.9" x="158.85" y="419.052">metadata : Metadata</text><text fill="#000000" font-family="sans-serif" font-size="12.6" lengthAdjust="spacing" textLength="63" x="158.85" y="433.8176">scan : Scan</text><text fill="#000000" font-family="sans-serif" font-size="12.6" lengthAdjust="spacing" textLength="88.2" x="158.85" y="448.5832">station : Station</text><text fill="#000000" font-family="sans-serif" font-size="12.6" lengthAdjust="spacing" textLength="166.5" x="158.85" y="463.3488">log_messages[] : LogMessage</text><text fill="#000000" font-family="sans-serif" font-size="12.6" lengthAdjust="spacing" textLength="61.2" x="158.85" y="478.1145">data : Data</text><line style="stroke:#181818;stroke-width:0.45;" x1="154.35" x2="385.65" y1="484.7906" y2="484.7906"/><text fill="#000000" font-family="sans-serif" font-size="12.6" lengthAdjust="spacing" textLength="81" x="158.85" y="500.0801">load(filename)</text><text fill="#000000" font-family="sans-serif" font-size="12.6" lengthAdjust="spacing" textLength="82.8" x="158.85" y="514.8457">save(filename)</text><text fill="#000000" font-family="sans-serif" font-size="12.6" lengthAdjust="spacing" textLength="136.8" x="158.85" y="529.6113">export(filename, format)</text><text fill="#000000" font-family="sans-serif" font-size="12.6" lengthAdjust="spacing" textLength="117.9" x="158.85" y="544.377">set_data(name, field)</text><text fill="#000000" font-family="sans-serif" font-size="12.6" lengthAdjust="spacing" textLength="144.9" x="158.85" y="559.1426">set_axes(names[], fields[])</text></g><!--class Scan--><g id="elem_Scan"><rect codeLine="31" fill="#F1F1F1" height="43.2" id="Scan" rx="2.25" ry="2.25" style="stroke:#181818;stroke-width:0.45;" width="56.7" x="350.55" y="620.1"/><ellipse cx="364.05" cy="634.5" fill="#ADD1B2" rx="9.9" ry="9.9" style="stroke:#181818;stroke-width:0.9;"/><path d="M364.0922,640.0828 C365.4422,640.0828 366.5531,639.5766 367.3688,638.6203 L366.1313,637.2563 C365.6391,637.7906 365.0484,638.1422 364.3313,638.1422 C362.8266,638.1422 361.7859,636.9469 361.7859,634.8938 C361.7859,632.8969 362.8266,631.6875 364.2328,631.6875 C364.9641,631.6875 365.4984,631.9688 365.9766,632.4047 L367.2141,631.0125 C366.5391,630.3516 365.4984,629.7469 364.2328,629.7469 C361.575,629.7469 359.4797,631.6734 359.4797,634.9781 C359.4797,638.325 361.6172,640.0828 364.0922,640.0828 Z " fill="#000000"/><text fill="#000000" font-family="sans-serif" font-size="12.6" lengthAdjust="spacing" textLength="27.9" x="376.65" y="638.8066">Scan</text><line style="stroke:#181818;stroke-width:0.45;" x1="351.45" x2="406.35" y1="648.9" y2="648.9"/><line style="stroke:#181818;stroke-width:0.45;" x1="351.45" x2="406.35" y1="656.1" y2="656.1"/></g><!--class Station--><g id="elem_Station"><rect codeLine="33" fill="#F1F1F1" height="43.2" id="Station" rx="2.25" ry="2.25" style="stroke:#181818;stroke-width:0.45;" width="69.3" x="492.75" y="620.1"/><ellipse cx="506.25" cy="634.5" fill="#ADD1B2" rx="9.9" ry="9.9" style="stroke:#181818;stroke-width:0.9;"/><path d="M506.2922,640.0828 C507.6422,640.0828 508.7531,639.5766 509.5688,638.6203 L508.3313,637.2563 C507.8391,637.7906 507.2484,638.1422 506.5313,638.1422 C505.0266,638.1422 503.9859,636.9469 503.9859,634.8938 C503.9859,632.8969 505.0266,631.6875 506.4328,631.6875 C507.1641,631.6875 507.6984,631.9688 508.1766,632.4047 L509.4141,631.0125 C508.7391,630.3516 507.6984,629.7469 506.4328,629.7469 C503.775,629.7469 501.6797,631.6734 501.6797,634.9781 C501.6797,638.325 503.8172,640.0828 506.2922,640.0828 Z " fill="#000000"/><text fill="#000000" font-family="sans-serif" font-size="12.6" lengthAdjust="spacing" textLength="40.5" x="518.85" y="638.8066">Station</text><line style="stroke:#181818;stroke-width:0.45;" x1="493.65" x2="561.15" y1="648.9" y2="648.9"/><line style="stroke:#181818;stroke-width:0.45;" x1="493.65" x2="561.15" y1="656.1" y2="656.1"/></g><!--reverse link Measurement to Measurement--><g id="link_Measurement_Measurement"><path d="M252.1792,210.758 C254.2492,237.308 256.716,269.154 260.334,315.702 " fill="none" id="Measurement-backto-Measurement" style="stroke:#181818;stroke-width:0.9;"/><polygon fill="none" points="250.92,194.607,246.7956,211.1777,257.5629,210.3382,250.92,194.607" style="stroke:#181818;stroke-width:0.9;"/></g><!--reverse link Measurement to Metadata--><g id="link_Measurement_Metadata"><path codeLine="21" d="M199.137,306.5082 C170.445,259.9602 144.54,221.157 124.308,194.607 " fill="none" id="Measurement-backto-Metadata" style="stroke:#181818;stroke-width:0.9;"/><polygon fill="#181818" points="204.804,315.702,205.0351,309.2161,199.137,306.5082,198.9059,312.9941,204.804,315.702" style="stroke:#181818;stroke-width:0.9;"/></g><!--link Metadata to Measurement--><!--reverse link Measurement to Scan--><g id="link_Measurement_Scan"><path codeLine="22" d="M343.2269,575.6449 C354.5759,596.3719 359.901,606.096 367.416,619.83 " fill="none" id="Measurement-backto-Scan" style="stroke:#181818;stroke-width:0.9;"/><polygon fill="#181818" points="338.04,566.172,337.4758,572.6374,343.2269,575.6449,343.7911,569.1795,338.04,566.172" style="stroke:#181818;stroke-width:0.9;"/></g><!--reverse link Measurement to Station--><g id="link_Measurement_Station"><path codeLine="23" d="M395.1944,538.6393 C437.6294,571.4353 473.274,598.977 500.571,620.064 " fill="none" id="Measurement-backto-Station" style="stroke:#181818;stroke-width:0.9;"/><polygon fill="#181818" points="386.649,532.035,388.7202,538.1856,395.1944,538.6393,393.1231,532.4887,386.649,532.035" style="stroke:#181818;stroke-width:0.9;"/></g><!--reverse link Scan to Scan--><g id="link_Scan_Scan"><path d="M468.5726,477.0169 C447.6566,515.2219 411.282,581.661 390.357,619.875 " fill="none" id="Scan-backto-Scan" style="stroke:#181818;stroke-width:0.9;"/><polygon fill="none" points="476.352,462.807,463.8359,474.4237,473.3092,479.61,476.352,462.807" style="stroke:#181818;stroke-width:0.9;"/></g><!--reverse link Station to Station--><g id="link_Station_Station"><path d="M572.2196,478.4228 C561.6716,516.6278 543.726,581.661 533.178,619.875 " fill="none" id="Station-backto-Station" style="stroke:#181818;stroke-width:0.9;"/><polygon fill="none" points="576.531,462.807,567.0144,476.9857,577.4249,479.8599,576.531,462.807" style="stroke:#181818;stroke-width:0.9;"/></g><!--reverse link Data to Axis--><g id="link_Data_Axis"><path codeLine="49" d="M509.895,172.8 C520.299,172.8 519.903,172.8 530.307,172.8 " fill="none" id="Data-backto-Axis" style="stroke:#181818;stroke-width:0.9;"/><polygon fill="#181818" points="499.095,172.8,504.495,176.4,509.895,172.8,504.495,169.2,499.095,172.8" style="stroke:#181818;stroke-width:0.9;"/><text fill="#000000" font-family="sans-serif" font-size="11.7" lengthAdjust="spacing" textLength="6.3" x="517.0671" y="169.343">n</text></g><!--link Data to Measurement--><g id="link_Data_Measurement"><path codeLine="51" d="M384.435,216.504 C367.515,243.567 351.6724,270.5722 332.2234,306.2212 " fill="none" id="Data-to-Measurement" style="stroke:#181818;stroke-width:0.9;"/><polygon fill="#181818" points="327.051,315.702,332.7975,312.6857,332.2234,306.2212,326.4769,309.2374,327.051,315.702" style="stroke:#181818;stroke-width:0.9;"/></g><!--link Data to Measurement--><!--SRC=[ZLHDZu8m4BtpAnelgsR1EuTDDl6udlPeZ1df24twmT9YC2x_VKjR4TbrXOJGlfdtPfW-U2cCANMwMfKSfAa5Jp8bLXa7hMFA8Az0H97RaWs2hYiKA0t1ng2aceWRbjYR6OOw6O93qYKYzg9uOXdgIqlIg-GQ3BYOWAnW4iSnyaqsIZAZgZxpW23uj5HVSAybbBfGva5bD40xVXVoIuVh3AJ5Fkt3xmqOfXpaLmxbAjyBr1forDkT3NweVEFtlWMlxAe50j3vaN6K873XbU648mYRKbMc1r_9KLK2JCX7i-zqvo74aDDR11hKBcBx2K6xMaHj50sFP1d7ZyxG3o7ffp6ckP7y0iDGWcNmX5tpDrctwvZM3EsJh33fGQ8ZNgttMBjF3mfF6FSjFtMqSzbbUAooJ2I5geApGxlHRtSfUM-O_ijVQ-V7VgxjvCgTuB-LEHoGfzQZ5PEvGxvgw9JEv0xLPt5G_1whxKTpGsnJxZsNyKpEt9i485uE_mDHDCqy9DuMZ5AKk_Xj4dyqxfv-p_u1]--></g></svg>