<?xml version="1.0" encoding="us-ascii" standalone="no"?><svg xmlns="http://www.w3.org/2000/svg" xmlns:xlink="http://www.w3.org/1999/xlink" contentStyleType="text/css" height="773px" preserveAspectRatio="none" style="width:1053px;height:773px;background:#FFFFFF;" version="1.1" viewBox="0 0 1053 773" width="1053px" zoomAndPan="magnify"><defs/><g><!--class Data--><g id="elem_Data"><rect codeLine="3" fill="#F1F1F1" height="113.625" id="Data" rx="2.5" ry="2.5" style="stroke:#181818;stroke-width:0.5;" width="164" x="499.5" y="35"/><ellipse cx="562.25" cy="51" fill="#ADD1B2" rx="11" ry="11" style="stroke:#181818;stroke-width:1.0;"/><path d="M562.2969,57.2031 C563.7969,57.2031 565.0313,56.6406 565.9375,55.5781 L564.5625,54.0625 C564.0156,54.6563 563.3594,55.0469 562.5625,55.0469 C560.8906,55.0469 559.7344,53.7188 559.7344,51.4375 C559.7344,49.2188 560.8906,47.875 562.4531,47.875 C563.2656,47.875 563.8594,48.1875 564.3906,48.6719 L565.7656,47.125 C565.0156,46.3906 563.8594,45.7188 562.4531,45.7188 C559.5,45.7188 557.1719,47.8594 557.1719,51.5313 C557.1719,55.25 559.5469,57.2031 562.2969,57.2031 Z " fill="#000000"/><text fill="#000000" font-family="sans-serif" font-size="14" lengthAdjust="spacing" textLength="30" x="582.75" y="55.7852">Data</text><line style="stroke:#181818;stroke-width:0.5;" x1="500.5" x2="662.5" y1="67" y2="67"/><text fill="#000000" font-family="sans-serif" font-size="14" lengthAdjust="spacing" textLength="131" x="505.5" y="83.9883">metadata : Metadata</text><text fill="#000000" font-family="sans-serif" font-size="14" lengthAdjust="spacing" textLength="113" x="505.5" y="100.3945">_data : np.ndarray</text><text fill="#000000" font-family="sans-serif" font-size="14" lengthAdjust="spacing" textLength="152" x="505.5" y="116.8008">_importer : DataImporter</text><line style="stroke:#181818;stroke-width:0.5;" x1="500.5" x2="662.5" y1="124.2188" y2="124.2188"/><text fill="#000000" font-family="sans-serif" font-size="14" lengthAdjust="spacing" textLength="39" x="505.5" y="141.207">data()</text></g><path d="M153,6 L153,168.3438 A0,0 0 0 0 153,168.3438 L464,168.3438 A0,0 0 0 0 464,168.3438 L464,91.1719 L503.5,95.6094 L464,83.1719 L464,16 L454,6 L153,6 A0,0 0 0 0 153,6 " fill="#FEFFDD" style="stroke:#181818;stroke-width:0.5;"/><path d="M454,6 L454,16 L464,16 L454,6 " fill="#FEFFDD" style="stroke:#181818;stroke-width:0.5;"/><text fill="#000000" font-family="sans-serif" font-size="13" lengthAdjust="spacing" textLength="290" x="159" y="23.0605">"_data" usually contains a 1D array and is accessed</text><text fill="#000000" font-family="sans-serif" font-size="13" lengthAdjust="spacing" textLength="281" x="159" y="38.2949">via the data() getter method (Python property) that</text><text fill="#000000" font-family="sans-serif" font-size="13" lengthAdjust="spacing" textLength="129" x="159" y="53.5293">calls the DataImporter.</text><text fill="#000000" font-family="sans-serif" font-size="13" lengthAdjust="spacing" textLength="3" x="159" y="68.7637">&#160;</text><text fill="#000000" font-family="sans-serif" font-size="13" lengthAdjust="spacing" textLength="280" x="159" y="83.998">For individual detector values see derived classes</text><text fill="#000000" font-family="sans-serif" font-size="13" lengthAdjust="spacing" textLength="270" x="159" y="99.2324">AverageDetectorData and IntervalDetectorData.</text><text fill="#000000" font-family="sans-serif" font-size="13" lengthAdjust="spacing" textLength="3" x="159" y="114.4668">&#160;</text><text fill="#000000" font-family="sans-serif" font-size="13" lengthAdjust="spacing" textLength="288" x="159" y="129.7012">ArrayDetectorData and ExternalData are somewhat</text><text fill="#000000" font-family="sans-serif" font-size="13" lengthAdjust="spacing" textLength="271" x="159" y="144.9355">special as they contain either 2D data or a list of</text><text fill="#000000" font-family="sans-serif" font-size="13" lengthAdjust="spacing" textLength="240" x="159" y="160.1699">data objects (in case of images and alike).</text><!--class DataImporter--><g id="elem_DataImporter"><rect codeLine="22" fill="#F1F1F1" height="80.8125" id="DataImporter" rx="2.5" ry="2.5" style="stroke:#181818;stroke-width:0.5;" width="116" x="698.5" y="51.5"/><ellipse cx="713.5" cy="67.5" fill="#ADD1B2" rx="11" ry="11" style="stroke:#181818;stroke-width:1.0;"/><path d="M713.5469,73.7031 C715.0469,73.7031 716.2813,73.1406 717.1875,72.0781 L715.8125,70.5625 C715.2656,71.1563 714.6094,71.5469 713.8125,71.5469 C712.1406,71.5469 710.9844,70.2188 710.9844,67.9375 C710.9844,65.7188 712.1406,64.375 713.7031,64.375 C714.5156,64.375 715.1094,64.6875 715.6406,65.1719 L717.0156,63.625 C716.2656,62.8906 715.1094,62.2188 713.7031,62.2188 C710.75,62.2188 708.4219,64.3594 708.4219,68.0313 C708.4219,71.75 710.7969,73.7031 713.5469,73.7031 Z " fill="#000000"/><text fill="#000000" font-family="sans-serif" font-size="14" lengthAdjust="spacing" textLength="84" x="727.5" y="72.2852">DataImporter</text><line style="stroke:#181818;stroke-width:0.5;" x1="699.5" x2="813.5" y1="83.5" y2="83.5"/><text fill="#000000" font-family="sans-serif" font-size="14" lengthAdjust="spacing" textLength="42" x="704.5" y="100.4883">source</text><line style="stroke:#181818;stroke-width:0.5;" x1="699.5" x2="813.5" y1="107.9063" y2="107.9063"/><text fill="#000000" font-family="sans-serif" font-size="14" lengthAdjust="spacing" textLength="51" x="704.5" y="124.8945">import()</text></g><!--class Metadata--><g id="elem_Metadata"><rect codeLine="27" fill="#F1F1F1" height="48" id="Metadata" rx="2.5" ry="2.5" style="stroke:#181818;stroke-width:0.5;" width="93" x="295" y="246"/><ellipse cx="310" cy="262" fill="#ADD1B2" rx="11" ry="11" style="stroke:#181818;stroke-width:1.0;"/><path d="M310.0469,268.2031 C311.5469,268.2031 312.7813,267.6406 313.6875,266.5781 L312.3125,265.0625 C311.7656,265.6563 311.1094,266.0469 310.3125,266.0469 C308.6406,266.0469 307.4844,264.7188 307.4844,262.4375 C307.4844,260.2188 308.6406,258.875 310.2031,258.875 C311.0156,258.875 311.6094,259.1875 312.1406,259.6719 L313.5156,258.125 C312.7656,257.3906 311.6094,256.7188 310.2031,256.7188 C307.25,256.7188 304.9219,258.8594 304.9219,262.5313 C304.9219,266.25 307.2969,268.2031 310.0469,268.2031 Z " fill="#000000"/><text fill="#000000" font-family="sans-serif" font-size="14" lengthAdjust="spacing" textLength="61" x="324" y="266.7852">Metadata</text><line style="stroke:#181818;stroke-width:0.5;" x1="296" x2="387" y1="278" y2="278"/><line style="stroke:#181818;stroke-width:0.5;" x1="296" x2="387" y1="286" y2="286"/></g><g id="elem_GMN7"><path d="M230,366 L230,406.4688 A0,0 0 0 0 230,406.4688 L353,406.4688 A0,0 0 0 0 353,406.4688 L353,376 L343,366 L303.94,366 L331.38,294.07 L295.94,366 L230,366 A0,0 0 0 0 230,366 " fill="#FEFFDD" style="stroke:#181818;stroke-width:0.5;"/><path d="M343,366 L343,376 L353,376 L343,366 " fill="#FEFFDD" style="stroke:#181818;stroke-width:0.5;"/><text fill="#000000" font-family="sans-serif" font-size="13" lengthAdjust="spacing" textLength="90" x="236" y="383.0605">See diagram for</text><text fill="#000000" font-family="sans-serif" font-size="13" lengthAdjust="spacing" textLength="102" x="236" y="398.2949">metadata module.</text></g><!--class MeasureData--><g id="elem_MeasureData"><rect codeLine="34" fill="#F1F1F1" height="64.4063" id="MeasureData" rx="2.5" ry="2.5" style="stroke:#181818;stroke-width:0.5;" width="216" x="473.5" y="238"/><ellipse cx="535.25" cy="254" fill="#ADD1B2" rx="11" ry="11" style="stroke:#181818;stroke-width:1.0;"/><path d="M535.2969,260.2031 C536.7969,260.2031 538.0313,259.6406 538.9375,258.5781 L537.5625,257.0625 C537.0156,257.6563 536.3594,258.0469 535.5625,258.0469 C533.8906,258.0469 532.7344,256.7188 532.7344,254.4375 C532.7344,252.2188 533.8906,250.875 535.4531,250.875 C536.2656,250.875 536.8594,251.1875 537.3906,251.6719 L538.7656,250.125 C538.0156,249.3906 536.8594,248.7188 535.4531,248.7188 C532.5,248.7188 530.1719,250.8594 530.1719,254.5313 C530.1719,258.25 532.5469,260.2031 535.2969,260.2031 Z " fill="#000000"/><text fill="#000000" font-family="sans-serif" font-size="14" lengthAdjust="spacing" textLength="84" x="555.75" y="258.7852">MeasureData</text><line style="stroke:#181818;stroke-width:0.5;" x1="474.5" x2="688.5" y1="270" y2="270"/><text fill="#000000" font-family="sans-serif" font-size="14" lengthAdjust="spacing" textLength="204" x="479.5" y="286.9883">positions : np.ndarray(dtype=int)</text><line style="stroke:#181818;stroke-width:0.5;" x1="474.5" x2="688.5" y1="294.4063" y2="294.4063"/></g><!--class MonitorData--><g id="elem_MonitorData"><rect codeLine="38" fill="#F1F1F1" height="64.4063" id="MonitorData" rx="2.5" ry="2.5" style="stroke:#181818;stroke-width:0.5;" width="235" x="725" y="238"/><ellipse cx="798.75" cy="254" fill="#ADD1B2" rx="11" ry="11" style="stroke:#181818;stroke-width:1.0;"/><path d="M798.7969,260.2031 C800.2969,260.2031 801.5313,259.6406 802.4375,258.5781 L801.0625,257.0625 C800.5156,257.6563 799.8594,258.0469 799.0625,258.0469 C797.3906,258.0469 796.2344,256.7188 796.2344,254.4375 C796.2344,252.2188 797.3906,250.875 798.9531,250.875 C799.7656,250.875 800.3594,251.1875 800.8906,251.6719 L802.2656,250.125 C801.5156,249.3906 800.3594,248.7188 798.9531,248.7188 C796,248.7188 793.6719,250.8594 793.6719,254.5313 C793.6719,258.25 796.0469,260.2031 798.7969,260.2031 Z " fill="#000000"/><text fill="#000000" font-family="sans-serif" font-size="14" lengthAdjust="spacing" textLength="79" x="819.25" y="258.7852">MonitorData</text><line style="stroke:#181818;stroke-width:0.5;" x1="726" x2="959" y1="270" y2="270"/><text fill="#000000" font-family="sans-serif" font-size="14" lengthAdjust="spacing" textLength="223" x="731" y="286.9883">milliseconds : np.ndarray(dtype=int)</text><line style="stroke:#181818;stroke-width:0.5;" x1="726" x2="959" y1="294.4063" y2="294.4063"/></g><!--class MotorData--><g id="elem_MotorData"><rect codeLine="42" fill="#F1F1F1" height="48" id="MotorData" rx="2.5" ry="2.5" style="stroke:#181818;stroke-width:0.5;" width="100" x="388.5" y="362"/><ellipse cx="403.5" cy="378" fill="#ADD1B2" rx="11" ry="11" style="stroke:#181818;stroke-width:1.0;"/><path d="M403.5469,384.2031 C405.0469,384.2031 406.2813,383.6406 407.1875,382.5781 L405.8125,381.0625 C405.2656,381.6563 404.6094,382.0469 403.8125,382.0469 C402.1406,382.0469 400.9844,380.7188 400.9844,378.4375 C400.9844,376.2188 402.1406,374.875 403.7031,374.875 C404.5156,374.875 405.1094,375.1875 405.6406,375.6719 L407.0156,374.125 C406.2656,373.3906 405.1094,372.7188 403.7031,372.7188 C400.75,372.7188 398.4219,374.8594 398.4219,378.5313 C398.4219,382.25 400.7969,384.2031 403.5469,384.2031 Z " fill="#000000"/><text fill="#000000" font-family="sans-serif" font-size="14" lengthAdjust="spacing" textLength="68" x="417.5" y="382.7852">MotorData</text><line style="stroke:#181818;stroke-width:0.5;" x1="389.5" x2="487.5" y1="394" y2="394"/><line style="stroke:#181818;stroke-width:0.5;" x1="389.5" x2="487.5" y1="402" y2="402"/></g><!--class DetectorData--><g id="elem_DetectorData"><rect codeLine="45" fill="#F1F1F1" height="48" id="DetectorData" rx="2.5" ry="2.5" style="stroke:#181818;stroke-width:0.5;" width="115" x="524" y="362"/><ellipse cx="539" cy="378" fill="#ADD1B2" rx="11" ry="11" style="stroke:#181818;stroke-width:1.0;"/><path d="M539.0469,384.2031 C540.5469,384.2031 541.7813,383.6406 542.6875,382.5781 L541.3125,381.0625 C540.7656,381.6563 540.1094,382.0469 539.3125,382.0469 C537.6406,382.0469 536.4844,380.7188 536.4844,378.4375 C536.4844,376.2188 537.6406,374.875 539.2031,374.875 C540.0156,374.875 540.6094,375.1875 541.1406,375.6719 L542.5156,374.125 C541.7656,373.3906 540.6094,372.7188 539.2031,372.7188 C536.25,372.7188 533.9219,374.8594 533.9219,378.5313 C533.9219,382.25 536.2969,384.2031 539.0469,384.2031 Z " fill="#000000"/><text fill="#000000" font-family="sans-serif" font-size="14" lengthAdjust="spacing" textLength="83" x="553" y="382.7852">DetectorData</text><line style="stroke:#181818;stroke-width:0.5;" x1="525" x2="638" y1="394" y2="394"/><line style="stroke:#181818;stroke-width:0.5;" x1="525" x2="638" y1="402" y2="402"/></g><!--class ExternalData--><g id="elem_ExternalData"><rect codeLine="48" fill="#F1F1F1" height="48" id="ExternalData" rx="2.5" ry="2.5" style="stroke:#181818;stroke-width:0.5;" width="113" x="674" y="362"/><ellipse cx="689" cy="378" fill="#ADD1B2" rx="11" ry="11" style="stroke:#181818;stroke-width:1.0;"/><path d="M689.0469,384.2031 C690.5469,384.2031 691.7813,383.6406 692.6875,382.5781 L691.3125,381.0625 C690.7656,381.6563 690.1094,382.0469 689.3125,382.0469 C687.6406,382.0469 686.4844,380.7188 686.4844,378.4375 C686.4844,376.2188 687.6406,374.875 689.2031,374.875 C690.0156,374.875 690.6094,375.1875 691.1406,375.6719 L692.5156,374.125 C691.7656,373.3906 690.6094,372.7188 689.2031,372.7188 C686.25,372.7188 683.9219,374.8594 683.9219,378.5313 C683.9219,382.25 686.2969,384.2031 689.0469,384.2031 Z " fill="#000000"/><text fill="#000000" font-family="sans-serif" font-size="14" lengthAdjust="spacing" textLength="81" x="703" y="382.7852">ExternalData</text><line style="stroke:#181818;stroke-width:0.5;" x1="675" x2="786" y1="394" y2="394"/><line style="stroke:#181818;stroke-width:0.5;" x1="675" x2="786" y1="402" y2="402"/></g><!--class TimestampData--><g id="elem_TimestampData"><rect codeLine="50" fill="#F1F1F1" height="48" id="TimestampData" rx="2.5" ry="2.5" style="stroke:#181818;stroke-width:0.5;" width="132" x="822.5" y="362"/><ellipse cx="837.5" cy="378" fill="#ADD1B2" rx="11" ry="11" style="stroke:#181818;stroke-width:1.0;"/><path d="M837.5469,384.2031 C839.0469,384.2031 840.2813,383.6406 841.1875,382.5781 L839.8125,381.0625 C839.2656,381.6563 838.6094,382.0469 837.8125,382.0469 C836.1406,382.0469 834.9844,380.7188 834.9844,378.4375 C834.9844,376.2188 836.1406,374.875 837.7031,374.875 C838.5156,374.875 839.1094,375.1875 839.6406,375.6719 L841.0156,374.125 C840.2656,373.3906 839.1094,372.7188 837.7031,372.7188 C834.75,372.7188 832.4219,374.8594 832.4219,378.5313 C832.4219,382.25 834.7969,384.2031 837.5469,384.2031 Z " fill="#000000"/><text fill="#000000" font-family="sans-serif" font-size="14" lengthAdjust="spacing" textLength="100" x="851.5" y="382.7852">TimestampData</text><line style="stroke:#181818;stroke-width:0.5;" x1="823.5" x2="953.5" y1="394" y2="394"/><line style="stroke:#181818;stroke-width:0.5;" x1="823.5" x2="953.5" y1="402" y2="402"/></g><!--class StandardDetectorData--><g id="elem_StandardDetectorData"><rect codeLine="53" fill="#F1F1F1" height="48" id="StandardDetectorData" rx="2.5" ry="2.5" style="stroke:#181818;stroke-width:0.5;" width="173" x="7" y="544"/><ellipse cx="22" cy="560" fill="#ADD1B2" rx="11" ry="11" style="stroke:#181818;stroke-width:1.0;"/><path d="M22.0469,566.2031 C23.5469,566.2031 24.7813,565.6406 25.6875,564.5781 L24.3125,563.0625 C23.7656,563.6563 23.1094,564.0469 22.3125,564.0469 C20.6406,564.0469 19.4844,562.7188 19.4844,560.4375 C19.4844,558.2188 20.6406,556.875 22.2031,556.875 C23.0156,556.875 23.6094,557.1875 24.1406,557.6719 L25.5156,556.125 C24.7656,555.3906 23.6094,554.7188 22.2031,554.7188 C19.25,554.7188 16.9219,556.8594 16.9219,560.5313 C16.9219,564.25 19.2969,566.2031 22.0469,566.2031 Z " fill="#000000"/><text fill="#000000" font-family="sans-serif" font-size="14" lengthAdjust="spacing" textLength="141" x="36" y="564.7852">StandardDetectorData</text><line style="stroke:#181818;stroke-width:0.5;" x1="8" x2="179" y1="576" y2="576"/><line style="stroke:#181818;stroke-width:0.5;" x1="8" x2="179" y1="584" y2="584"/></g><!--class AverageDetectorData--><g id="elem_AverageDetectorData"><rect codeLine="55" fill="#F1F1F1" height="195.6563" id="AverageDetectorData" rx="2.5" ry="2.5" style="stroke:#181818;stroke-width:0.5;" width="230" x="215.5" y="470"/><ellipse cx="259.3" cy="486" fill="#ADD1B2" rx="11" ry="11" style="stroke:#181818;stroke-width:1.0;"/><path d="M259.3469,492.2031 C260.8469,492.2031 262.0813,491.6406 262.9875,490.5781 L261.6125,489.0625 C261.0656,489.6563 260.4094,490.0469 259.6125,490.0469 C257.9406,490.0469 256.7844,488.7188 256.7844,486.4375 C256.7844,484.2188 257.9406,482.875 259.5031,482.875 C260.3156,482.875 260.9094,483.1875 261.4406,483.6719 L262.8156,482.125 C262.0656,481.3906 260.9094,480.7188 259.5031,480.7188 C256.55,480.7188 254.2219,482.8594 254.2219,486.5313 C254.2219,490.25 256.5969,492.2031 259.3469,492.2031 Z " fill="#000000"/><text fill="#000000" font-family="sans-serif" font-size="14" lengthAdjust="spacing" textLength="134" x="279.7" y="490.7852">AverageDetectorData</text><line style="stroke:#181818;stroke-width:0.5;" x1="216.5" x2="444.5" y1="502" y2="502"/><text fill="#000000" font-family="sans-serif" font-size="14" lengthAdjust="spacing" textLength="145" x="221.5" y="518.9883">raw_data : raggedarray</text><text fill="#000000" font-family="sans-serif" font-size="14" lengthAdjust="spacing" textLength="204" x="221.5" y="535.3945">attempts : np.ndarray(dtype=int)</text><text fill="#000000" font-family="sans-serif" font-size="14" lengthAdjust="spacing" textLength="218" x="221.5" y="551.8008">n_averages : np.ndarray(dtype=int)</text><text fill="#000000" font-family="sans-serif" font-size="14" lengthAdjust="spacing" textLength="119" x="221.5" y="568.207">_mean : np.ndarray</text><text fill="#000000" font-family="sans-serif" font-size="14" lengthAdjust="spacing" textLength="104" x="221.5" y="584.6133">_std : np.ndarray</text><line style="stroke:#181818;stroke-width:0.5;" x1="216.5" x2="444.5" y1="592.0313" y2="592.0313"/><text fill="#000000" font-family="sans-serif" font-size="14" lengthAdjust="spacing" textLength="45" x="221.5" y="609.0195">mean()</text><text fill="#000000" font-family="sans-serif" font-size="14" lengthAdjust="spacing" textLength="30" x="221.5" y="625.4258">std()</text><text fill="#000000" font-family="sans-serif" font-size="14" lengthAdjust="spacing" textLength="103" x="221.5" y="641.832">averaged_data()</text><text fill="#000000" font-family="sans-serif" font-size="14" lengthAdjust="spacing" textLength="98" x="221.5" y="658.2383">has_raw_data()</text></g><g id="elem_GMN28"><path d="M142.5,726 L142.5,766.4688 A0,0 0 0 0 142.5,766.4688 L298.5,766.4688 A0,0 0 0 0 298.5,766.4688 L298.5,736 L288.5,726 L236.54,726 L269.87,666.01 L228.54,726 L142.5,726 A0,0 0 0 0 142.5,726 " fill="#FEFFDD" style="stroke:#181818;stroke-width:0.5;"/><path d="M288.5,726 L288.5,736 L298.5,736 L288.5,726 " fill="#FEFFDD" style="stroke:#181818;stroke-width:0.5;"/><text fill="#000000" font-family="sans-serif" font-size="13" lengthAdjust="spacing" textLength="135" x="148.5" y="743.0605">How does mean() differ</text><text fill="#000000" font-family="sans-serif" font-size="13" lengthAdjust="spacing" textLength="116" x="148.5" y="758.2949">from values in Data?</text></g><g id="elem_GMN31"><path d="M334,726 L334,766.4688 A0,0 0 0 0 334,766.4688 L547,766.4688 A0,0 0 0 0 547,766.4688 L547,736 L537,726 L432.46,726 L391.13,666.01 L424.46,726 L334,726 A0,0 0 0 0 334,726 " fill="#FEFFDD" style="stroke:#181818;stroke-width:0.5;"/><path d="M537,726 L537,736 L547,736 L537,726 " fill="#FEFFDD" style="stroke:#181818;stroke-width:0.5;"/><text fill="#000000" font-family="sans-serif" font-size="13" lengthAdjust="spacing" textLength="173" x="340" y="743.0605">averaged_values() returns only</text><text fill="#000000" font-family="sans-serif" font-size="13" lengthAdjust="spacing" textLength="192" x="340" y="758.2949">those values used to average over</text></g><!--class IntervalDetectorData--><g id="elem_IntervalDetectorData"><rect codeLine="69" fill="#F1F1F1" height="162.8438" id="IntervalDetectorData" rx="2.5" ry="2.5" style="stroke:#181818;stroke-width:0.5;" width="202" x="480.5" y="486.5"/><ellipse cx="513.5" cy="502.5" fill="#ADD1B2" rx="11" ry="11" style="stroke:#181818;stroke-width:1.0;"/><path d="M513.5469,508.7031 C515.0469,508.7031 516.2813,508.1406 517.1875,507.0781 L515.8125,505.5625 C515.2656,506.1563 514.6094,506.5469 513.8125,506.5469 C512.1406,506.5469 510.9844,505.2188 510.9844,502.9375 C510.9844,500.7188 512.1406,499.375 513.7031,499.375 C514.5156,499.375 515.1094,499.6875 515.6406,500.1719 L517.0156,498.625 C516.2656,497.8906 515.1094,497.2188 513.7031,497.2188 C510.75,497.2188 508.4219,499.3594 508.4219,503.0313 C508.4219,506.75 510.7969,508.7031 513.5469,508.7031 Z " fill="#000000"/><text fill="#000000" font-family="sans-serif" font-size="14" lengthAdjust="spacing" textLength="130" x="531.5" y="507.2852">IntervalDetectorData</text><line style="stroke:#181818;stroke-width:0.5;" x1="481.5" x2="681.5" y1="518.5" y2="518.5"/><text fill="#000000" font-family="sans-serif" font-size="14" lengthAdjust="spacing" textLength="145" x="486.5" y="535.4883">raw_data : raggedarray</text><text fill="#000000" font-family="sans-serif" font-size="14" lengthAdjust="spacing" textLength="190" x="486.5" y="551.8945">counts : np.ndarray(dtype=int)</text><text fill="#000000" font-family="sans-serif" font-size="14" lengthAdjust="spacing" textLength="119" x="486.5" y="568.3008">_mean : np.ndarray</text><text fill="#000000" font-family="sans-serif" font-size="14" lengthAdjust="spacing" textLength="104" x="486.5" y="584.707">_std : np.ndarray</text><line style="stroke:#181818;stroke-width:0.5;" x1="481.5" x2="681.5" y1="592.125" y2="592.125"/><text fill="#000000" font-family="sans-serif" font-size="14" lengthAdjust="spacing" textLength="45" x="486.5" y="609.1133">mean()</text><text fill="#000000" font-family="sans-serif" font-size="14" lengthAdjust="spacing" textLength="30" x="486.5" y="625.5195">std()</text><text fill="#000000" font-family="sans-serif" font-size="14" lengthAdjust="spacing" textLength="98" x="486.5" y="641.9258">has_raw_data()</text></g><!--class ArrayDetectorData--><g id="elem_ArrayDetectorData"><rect codeLine="79" fill="#F1F1F1" height="48" id="ArrayDetectorData" rx="2.5" ry="2.5" style="stroke:#181818;stroke-width:0.5;" width="149" x="718" y="544"/><ellipse cx="733" cy="560" fill="#ADD1B2" rx="11" ry="11" style="stroke:#181818;stroke-width:1.0;"/><path d="M733.0469,566.2031 C734.5469,566.2031 735.7813,565.6406 736.6875,564.5781 L735.3125,563.0625 C734.7656,563.6563 734.1094,564.0469 733.3125,564.0469 C731.6406,564.0469 730.4844,562.7188 730.4844,560.4375 C730.4844,558.2188 731.6406,556.875 733.2031,556.875 C734.0156,556.875 734.6094,557.1875 735.1406,557.6719 L736.5156,556.125 C735.7656,555.3906 734.6094,554.7188 733.2031,554.7188 C730.25,554.7188 727.9219,556.8594 727.9219,560.5313 C727.9219,564.25 730.2969,566.2031 733.0469,566.2031 Z " fill="#000000"/><text fill="#000000" font-family="sans-serif" font-size="14" lengthAdjust="spacing" textLength="117" x="747" y="564.7852">ArrayDetectorData</text><line style="stroke:#181818;stroke-width:0.5;" x1="719" x2="866" y1="576" y2="576"/><line style="stroke:#181818;stroke-width:0.5;" x1="719" x2="866" y1="584" y2="584"/></g><!--class AreaDetectorData--><g id="elem_AreaDetectorData"><rect codeLine="82" fill="#F1F1F1" height="48" id="AreaDetectorData" rx="2.5" ry="2.5" style="stroke:#181818;stroke-width:0.5;" width="144" x="902.5" y="544"/><ellipse cx="917.5" cy="560" fill="#ADD1B2" rx="11" ry="11" style="stroke:#181818;stroke-width:1.0;"/><path d="M917.5469,566.2031 C919.0469,566.2031 920.2813,565.6406 921.1875,564.5781 L919.8125,563.0625 C919.2656,563.6563 918.6094,564.0469 917.8125,564.0469 C916.1406,564.0469 914.9844,562.7188 914.9844,560.4375 C914.9844,558.2188 916.1406,556.875 917.7031,556.875 C918.5156,556.875 919.1094,557.1875 919.6406,557.6719 L921.0156,556.125 C920.2656,555.3906 919.1094,554.7188 917.7031,554.7188 C914.75,554.7188 912.4219,556.8594 912.4219,560.5313 C912.4219,564.25 914.7969,566.2031 917.5469,566.2031 Z " fill="#000000"/><text fill="#000000" font-family="sans-serif" font-size="14" lengthAdjust="spacing" textLength="112" x="931.5" y="564.7852">AreaDetectorData</text><line style="stroke:#181818;stroke-width:0.5;" x1="903.5" x2="1045.5" y1="576" y2="576"/><line style="stroke:#181818;stroke-width:0.5;" x1="903.5" x2="1045.5" y1="584" y2="584"/></g><!--reverse link Data to DataImporter--><g id="link_Data_DataImporter"><path codeLine="31" d="M675.53,92 C687.15,92 686.77,92 698.39,92 " fill="none" id="Data-backto-DataImporter" style="stroke:#181818;stroke-width:1.0;"/><polygon fill="#181818" points="663.53,92,669.53,96,675.53,92,669.53,88,663.53,92" style="stroke:#181818;stroke-width:1.0;"/></g><!--reverse link Data to Metadata--><g id="link_Data_Metadata"><path codeLine="32" d="M508.7182,156.7884 C496.8282,166.6884 493.56,169.01 481.5,178 C448.26,202.77 408.47,228.26 379.82,245.94 " fill="none" id="Data-backto-Metadata" style="stroke:#181818;stroke-width:1.0;"/><polygon fill="#181818" points="517.94,149.11,510.7696,149.8753,508.7182,156.7884,515.8885,156.0231,517.94,149.11" style="stroke:#181818;stroke-width:1.0;"/></g><!--reverse link Data to MeasureData--><g id="link_Data_MeasureData"><path d="M581.5,167.17 C581.5,196.55 581.5,213.39 581.5,237.91 " fill="none" id="Data-backto-MeasureData" style="stroke:#181818;stroke-width:1.0;"/><polygon fill="none" points="581.5,149.17,575.5,167.17,587.5,167.17,581.5,149.17" style="stroke:#181818;stroke-width:1.0;"/></g><!--reverse link Data to MonitorData--><g id="link_Data_MonitorData"><path d="M657.6783,160.5327 C669.8583,170.5927 668.89,169.2 681.5,178 C713.09,200.06 750.44,221.43 781.21,237.91 " fill="none" id="Data-backto-MonitorData" style="stroke:#181818;stroke-width:1.0;"/><polygon fill="none" points="643.8,149.07,653.8574,165.1588,661.4992,155.9066,643.8,149.07" style="stroke:#181818;stroke-width:1.0;"/></g><!--reverse link MeasureData to MotorData--><g id="link_MeasureData_MotorData"><path d="M528.347,313.3727 C504.697,332.2327 489.12,344.65 467.55,361.84 " fill="none" id="MeasureData-backto-MotorData" style="stroke:#181818;stroke-width:1.0;"/><polygon fill="none" points="542.42,302.15,524.6061,308.6817,532.0879,318.0637,542.42,302.15" style="stroke:#181818;stroke-width:1.0;"/></g><!--reverse link MeasureData to DetectorData--><g id="link_MeasureData_DetectorData"><path d="M581.5,320.15 C581.5,339.01 581.5,344.65 581.5,361.84 " fill="none" id="MeasureData-backto-DetectorData" style="stroke:#181818;stroke-width:1.0;"/><polygon fill="none" points="581.5,302.15,575.5,320.15,587.5,320.15,581.5,302.15" style="stroke:#181818;stroke-width:1.0;"/></g><!--reverse link MeasureData to ExternalData--><g id="link_MeasureData_ExternalData"><path d="M636.5056,313.0878 C661.1556,331.9478 677.76,344.65 700.24,361.84 " fill="none" id="MeasureData-backto-ExternalData" style="stroke:#181818;stroke-width:1.0;"/><polygon fill="none" points="622.21,302.15,632.8597,317.853,640.1516,308.3225,622.21,302.15" style="stroke:#181818;stroke-width:1.0;"/></g><!--reverse link MeasureData to TimestampData--><g id="link_MeasureData_TimestampData"><path d="M681.8545,308.265 C732.8145,327.185 780,344.71 826.47,361.96 " fill="none" id="MeasureData-backto-TimestampData" style="stroke:#181818;stroke-width:1.0;"/><polygon fill="none" points="664.98,302,679.7662,313.8899,683.9429,302.6402,664.98,302" style="stroke:#181818;stroke-width:1.0;"/></g><!--reverse link DetectorData to StandardDetectorData--><g id="link_DetectorData_StandardDetectorData"><path d="M506.627,410.2455 C500.757,411.9155 512.18,408.58 506.5,410 C371.2,443.82 322.9,406.95 198.5,470 C163.08,487.95 130.92,521.35 111.78,543.88 " fill="none" id="DetectorData-backto-StandardDetectorData" style="stroke:#181818;stroke-width:1.0;"/><polygon fill="none" points="523.94,405.32,504.9852,404.4745,508.2688,416.0165,523.94,405.32" style="stroke:#181818;stroke-width:1.0;"/></g><!--reverse link DetectorData to AverageDetectorData--><g id="link_DetectorData_AverageDetectorData"><path d="M533.5759,420.411 C509.8659,436.981 492.01,449.58 463.5,470 C457.69,474.16 451.75,478.43 445.75,482.76 " fill="none" id="DetectorData-backto-AverageDetectorData" style="stroke:#181818;stroke-width:1.0;"/><polygon fill="none" points="548.33,410.1,530.1389,415.493,537.013,425.3291,548.33,410.1" style="stroke:#181818;stroke-width:1.0;"/></g><!--reverse link DetectorData to IntervalDetectorData--><g id="link_DetectorData_IntervalDetectorData"><path d="M581.5,428.16 C581.5,447.63 581.5,458.65 581.5,486.45 " fill="none" id="DetectorData-backto-IntervalDetectorData" style="stroke:#181818;stroke-width:1.0;"/><polygon fill="none" points="581.5,410.16,575.5,428.16,587.5,428.16,581.5,410.16" style="stroke:#181818;stroke-width:1.0;"/></g><!--reverse link DetectorData to ArrayDetectorData--><g id="link_DetectorData_ArrayDetectorData"><path d="M633.6757,419.8641 C657.8957,435.5941 674.63,447.74 700.5,470 C727.42,493.16 755.02,523.28 772.88,543.78 " fill="none" id="DetectorData-backto-ArrayDetectorData" style="stroke:#181818;stroke-width:1.0;"/><polygon fill="none" points="618.58,410.06,630.4077,424.896,636.9437,414.8322,618.58,410.06" style="stroke:#181818;stroke-width:1.0;"/></g><!--reverse link DetectorData to AreaDetectorData--><g id="link_DetectorData_AreaDetectorData"><path d="M656.4206,410.0797 C662.2606,411.8197 650.87,408.4 656.5,410 C757.28,438.7 794.63,416.12 884.5,470 C915.83,488.78 942.96,521.65 959.02,543.86 " fill="none" id="DetectorData-backto-AreaDetectorData" style="stroke:#181818;stroke-width:1.0;"/><polygon fill="none" points="639.17,404.94,654.7074,415.8299,658.1338,404.3295,639.17,404.94" style="stroke:#181818;stroke-width:1.0;"/></g><!--SRC=[jLJ1Yjim4BtxAuQzD2biw1Pw2PIoa9RkeL3O7XVCh3LErBKa8yb9JTX_xqYH7AVnRWEbkSGUpPjvUlCyRzoJr2rQL21Q2JSVtXL5rQ1pi4AFi2-0VueyYl2wX6_fCSRB5DJjGWkq5lj3MAhMM4-MZqALk_GQ3mDaDY-U2sqyGKEr1rF7jEMo72fVnSShw5o7JTD3PRH7gHqWtAmWjWBK0YH7gegS8n5nMudWDvIwm9fyeC7yDqR0x7lF_nfQQrgolfzpAlg8gxYBYyWnuKKH3xyO2r8BkPM2sO0WJvNds1QRZXmuudvavPO4HEd8HTZjbYokQPNIevw1yvtcqemT7wHEj-5YPu3FlnYW6H03bi0PHRjCtRLKIQQ5aVyW5P3aLmllLr4COBu8ZNH1xc4GO1v_SYy7CmPKw2ZCGYfcxM9dREGJpHS5yNEOrzWRMQJa4MSwMr5yF8m_3ZdbPzTmRXhye_7Ug2NS1_4aheC1QsCVzE0rPKJN40iJh_ts-jHAANXzDEJG2brdAPuJ2wV5YPNtjQH6F4DhdFJIiAF6zfq9txVqKMe_9c-qpEDufQAI3SjBBB-ugEYV9SV4zyV44pVy9VV4A9EvG-eFgSXvLEqbTUyzXhk8IIudmME3AVTFGwAA5dTvcp1iJQDraWL6_fPLwryMTvoiIpmGU3szL8HwOeCvBywZ8NTsmF5vUafjH9aMMuXjq9NvGiTTbot_rUn062PsgCVshsjYvzVMgBnJ-7CCudmQ8yEtEQ7gyaZX0EQIbdndsTj6D_s3vgN7NtQgtF6g16yo20p_vvbDRQP_75fbEkt_zmpEzCuUF5kdBrncX22y3F0R]--></g></svg>