<?xml version="1.0" encoding="us-ascii" standalone="no"?><svg xmlns="http://www.w3.org/2000/svg" xmlns:xlink="http://www.w3.org/1999/xlink" contentStyleType="text/css" height="467px" preserveAspectRatio="none" style="width:436px;height:467px;background:#FFFFFF;" version="1.1" viewBox="0 0 436 467" width="436px" zoomAndPan="magnify"><defs/><g><!--cluster evefile--><g id="cluster_evefile"><path d="M102.5,6 L158.5,6 A3.75,3.75 0 0 1 161,8.5 L168,28.2969 L325.5,28.2969 A2.5,2.5 0 0 1 328,30.7969 L328,236.5 A2.5,2.5 0 0 1 325.5,239 L102.5,239 A2.5,2.5 0 0 1 100,236.5 L100,8.5 A2.5,2.5 0 0 1 102.5,6 " fill="none" style="stroke:#000000;stroke-width:1.5;"/><line style="stroke:#000000;stroke-width:1.5;" x1="100" x2="168" y1="28.2969" y2="28.2969"/><text fill="#000000" font-family="sans-serif" font-size="14" font-weight="bold" lengthAdjust="spacing" textLength="55" x="104" y="20.9951">evefile</text></g><!--cluster entitites--><g id="cluster_entitites"><path d="M126.5,49 L196.5,49 A3.75,3.75 0 0 1 199,51.5 L206,71.2969 L301.5,71.2969 A2.5,2.5 0 0 1 304,73.7969 L304,212.5 A2.5,2.5 0 0 1 301.5,215 L126.5,215 A2.5,2.5 0 0 1 124,212.5 L124,51.5 A2.5,2.5 0 0 1 126.5,49 " fill="none" style="stroke:#000000;stroke-width:1.5;"/><line style="stroke:#000000;stroke-width:1.5;" x1="124" x2="206" y1="71.2969" y2="71.2969"/><text fill="#000000" font-family="sans-serif" font-size="14" font-weight="bold" lengthAdjust="spacing" textLength="69" x="128" y="63.9951">entitites</text></g><!--cluster file--><g id="cluster_file"><path d="M150.5,92 L177.5,92 A3.75,3.75 0 0 1 180,94.5 L187,114.2969 L277.5,114.2969 A2.5,2.5 0 0 1 280,116.7969 L280,188.5 A2.5,2.5 0 0 1 277.5,191 L150.5,191 A2.5,2.5 0 0 1 148,188.5 L148,94.5 A2.5,2.5 0 0 1 150.5,92 " fill="none" style="stroke:#000000;stroke-width:1.5;"/><line style="stroke:#000000;stroke-width:1.5;" x1="148" x2="187" y1="114.2969" y2="114.2969"/><text fill="#000000" font-family="sans-serif" font-size="14" font-weight="bold" lengthAdjust="spacing" textLength="26" x="152" y="106.9951">file</text></g><!--class Metadata--><g id="elem_Metadata"><rect fill="#F1F1F1" height="48" id="Metadata" rx="2.5" ry="2.5" style="stroke:#181818;stroke-width:0.5;" width="99" x="164.5" y="127"/><ellipse cx="179.5" cy="143" fill="#ADD1B2" rx="11" ry="11" style="stroke:#181818;stroke-width:1.0;"/><path d="M182.4844,148.6406 Q181.9063,148.9375 181.2656,149.0781 Q180.625,149.2344 179.9219,149.2344 Q177.4063,149.2344 176.0781,147.5938 Q174.7656,145.9375 174.7656,142.8125 Q174.7656,139.6719 176.0781,138.0313 Q177.4063,136.375 179.9219,136.375 Q180.625,136.375 181.2656,136.5313 Q181.9219,136.6719 182.4844,136.9688 L182.4844,139.6875 Q181.8438,139.1094 181.25,138.8438 Q180.6563,138.5781 180.0313,138.5781 Q178.6875,138.5781 178,139.6406 Q177.3125,140.7031 177.3125,142.8125 Q177.3125,144.9063 178,145.9844 Q178.6875,147.0469 180.0313,147.0469 Q180.6563,147.0469 181.25,146.7813 Q181.8438,146.5 182.4844,145.9219 L182.4844,148.6406 Z " fill="#000000"/><text fill="#000000" font-family="sans-serif" font-size="14" lengthAdjust="spacing" textLength="67" x="193.5" y="147.8467">Metadata</text><line style="stroke:#181818;stroke-width:0.5;" x1="165.5" x2="262.5" y1="159" y2="159"/><line style="stroke:#181818;stroke-width:0.5;" x1="165.5" x2="262.5" y1="167" y2="167"/></g><!--class Metadata--><g id="elem_Metadata"><rect codeLine="3" fill="#F1F1F1" height="96.8906" id="Metadata" rx="2.5" ry="2.5" style="stroke:#181818;stroke-width:0.5;" width="160" x="134" y="255"/><ellipse cx="176.45" cy="271" fill="#ADD1B2" rx="11" ry="11" style="stroke:#181818;stroke-width:1.0;"/><path d="M179.4344,276.6406 Q178.8563,276.9375 178.2156,277.0781 Q177.575,277.2344 176.8719,277.2344 Q174.3563,277.2344 173.0281,275.5938 Q171.7156,273.9375 171.7156,270.8125 Q171.7156,267.6719 173.0281,266.0313 Q174.3563,264.375 176.8719,264.375 Q177.575,264.375 178.2156,264.5313 Q178.8719,264.6719 179.4344,264.9688 L179.4344,267.6875 Q178.7938,267.1094 178.2,266.8438 Q177.6063,266.5781 176.9813,266.5781 Q175.6375,266.5781 174.95,267.6406 Q174.2625,268.7031 174.2625,270.8125 Q174.2625,272.9063 174.95,273.9844 Q175.6375,275.0469 176.9813,275.0469 Q177.6063,275.0469 178.2,274.7813 Q178.7938,274.5 179.4344,273.9219 L179.4344,276.6406 Z " fill="#000000"/><text fill="#000000" font-family="sans-serif" font-size="14" lengthAdjust="spacing" textLength="67" x="196.55" y="275.8467">Metadata</text><line style="stroke:#181818;stroke-width:0.5;" x1="135" x2="293" y1="287" y2="287"/><text fill="#000000" font-family="sans-serif" font-size="14" lengthAdjust="spacing" textLength="129" x="140" y="303.9951">sample[] : Sample</text><text fill="#000000" font-family="sans-serif" font-size="14" lengthAdjust="spacing" textLength="135" x="140" y="320.292">machine : Machine</text><text fill="#000000" font-family="sans-serif" font-size="14" lengthAdjust="spacing" textLength="148" x="140" y="336.5889">beamline : Beamline</text><line style="stroke:#181818;stroke-width:0.5;" x1="135" x2="293" y1="343.8906" y2="343.8906"/></g><!--class Sample--><g id="elem_Sample"><rect codeLine="9" fill="#F1F1F1" height="48" id="Sample" rx="2.5" ry="2.5" style="stroke:#181818;stroke-width:0.5;" width="86" x="171" y="412"/><ellipse cx="186" cy="428" fill="#ADD1B2" rx="11" ry="11" style="stroke:#181818;stroke-width:1.0;"/><path d="M188.9844,433.6406 Q188.4063,433.9375 187.7656,434.0781 Q187.125,434.2344 186.4219,434.2344 Q183.9063,434.2344 182.5781,432.5938 Q181.2656,430.9375 181.2656,427.8125 Q181.2656,424.6719 182.5781,423.0313 Q183.9063,421.375 186.4219,421.375 Q187.125,421.375 187.7656,421.5313 Q188.4219,421.6719 188.9844,421.9688 L188.9844,424.6875 Q188.3438,424.1094 187.75,423.8438 Q187.1563,423.5781 186.5313,423.5781 Q185.1875,423.5781 184.5,424.6406 Q183.8125,425.7031 183.8125,427.8125 Q183.8125,429.9063 184.5,430.9844 Q185.1875,432.0469 186.5313,432.0469 Q187.1563,432.0469 187.75,431.7813 Q188.3438,431.5 188.9844,430.9219 L188.9844,433.6406 Z " fill="#000000"/><text fill="#000000" font-family="sans-serif" font-size="14" lengthAdjust="spacing" textLength="54" x="200" y="432.8467">Sample</text><line style="stroke:#181818;stroke-width:0.5;" x1="172" x2="256" y1="444" y2="444"/><line style="stroke:#181818;stroke-width:0.5;" x1="172" x2="256" y1="452" y2="452"/></g><!--class Machine--><g id="elem_Machine"><rect codeLine="12" fill="#F1F1F1" height="48" id="Machine" rx="2.5" ry="2.5" style="stroke:#181818;stroke-width:0.5;" width="92" x="7" y="279.5"/><ellipse cx="22" cy="295.5" fill="#ADD1B2" rx="11" ry="11" style="stroke:#181818;stroke-width:1.0;"/><path d="M24.9844,301.1406 Q24.4063,301.4375 23.7656,301.5781 Q23.125,301.7344 22.4219,301.7344 Q19.9063,301.7344 18.5781,300.0938 Q17.2656,298.4375 17.2656,295.3125 Q17.2656,292.1719 18.5781,290.5313 Q19.9063,288.875 22.4219,288.875 Q23.125,288.875 23.7656,289.0313 Q24.4219,289.1719 24.9844,289.4688 L24.9844,292.1875 Q24.3438,291.6094 23.75,291.3438 Q23.1563,291.0781 22.5313,291.0781 Q21.1875,291.0781 20.5,292.1406 Q19.8125,293.2031 19.8125,295.3125 Q19.8125,297.4063 20.5,298.4844 Q21.1875,299.5469 22.5313,299.5469 Q23.1563,299.5469 23.75,299.2813 Q24.3438,299 24.9844,298.4219 L24.9844,301.1406 Z " fill="#000000"/><text fill="#000000" font-family="sans-serif" font-size="14" lengthAdjust="spacing" textLength="60" x="36" y="300.3467">Machine</text><line style="stroke:#181818;stroke-width:0.5;" x1="8" x2="98" y1="311.5" y2="311.5"/><line style="stroke:#181818;stroke-width:0.5;" x1="8" x2="98" y1="319.5" y2="319.5"/></g><!--class Beamline--><g id="elem_Beamline"><rect codeLine="15" fill="#F1F1F1" height="48" id="Beamline" rx="2.5" ry="2.5" style="stroke:#181818;stroke-width:0.5;" width="100" x="329" y="279.5"/><ellipse cx="344" cy="295.5" fill="#ADD1B2" rx="11" ry="11" style="stroke:#181818;stroke-width:1.0;"/><path d="M346.9844,301.1406 Q346.4063,301.4375 345.7656,301.5781 Q345.125,301.7344 344.4219,301.7344 Q341.9063,301.7344 340.5781,300.0938 Q339.2656,298.4375 339.2656,295.3125 Q339.2656,292.1719 340.5781,290.5313 Q341.9063,288.875 344.4219,288.875 Q345.125,288.875 345.7656,289.0313 Q346.4219,289.1719 346.9844,289.4688 L346.9844,292.1875 Q346.3438,291.6094 345.75,291.3438 Q345.1563,291.0781 344.5313,291.0781 Q343.1875,291.0781 342.5,292.1406 Q341.8125,293.2031 341.8125,295.3125 Q341.8125,297.4063 342.5,298.4844 Q343.1875,299.5469 344.5313,299.5469 Q345.1563,299.5469 345.75,299.2813 Q346.3438,299 346.9844,298.4219 L346.9844,301.1406 Z " fill="#000000"/><text fill="#000000" font-family="sans-serif" font-size="14" lengthAdjust="spacing" textLength="68" x="358" y="300.3467">Beamline</text><line style="stroke:#181818;stroke-width:0.5;" x1="330" x2="428" y1="311.5" y2="311.5"/><line style="stroke:#181818;stroke-width:0.5;" x1="330" x2="428" y1="319.5" y2="319.5"/></g><!--reverse link Metadata to Metadata--><g id="link_Metadata_Metadata"><path d="M214,193.19 C214,214.38 214,228.37 214,254.98 " fill="none" id="Metadata-backto-Metadata" style="stroke:#181818;stroke-width:1.0;"/><polygon fill="none" points="214,175.19,208,193.19,220,193.19,214,175.19" style="stroke:#181818;stroke-width:1.0;"/></g><!--reverse link Metadata to Beamline--><g id="link_Metadata_Beamline"><path codeLine="18" d="M306.24,303.5 C317.72,303.5 317.2,303.5 328.68,303.5 " fill="none" id="Metadata-backto-Beamline" style="stroke:#181818;stroke-width:1.0;"/><polygon fill="#181818" points="294.24,303.5,300.24,307.5,306.24,303.5,300.24,299.5,294.24,303.5" style="stroke:#181818;stroke-width:1.0;"/></g><!--reverse link Metadata to Sample--><g id="link_Metadata_Sample"><path codeLine="19" d="M214,364.35 C214,384.58 214,395.2 214,411.66 " fill="none" id="Metadata-backto-Sample" style="stroke:#181818;stroke-width:1.0;"/><polygon fill="#181818" points="214,352.35,210,358.35,214,364.35,218,358.35,214,352.35" style="stroke:#181818;stroke-width:1.0;"/><text fill="#000000" font-family="sans-serif" font-size="13" lengthAdjust="spacing" textLength="8" x="205.025" y="400.9821">n</text></g><!--link Machine to Metadata--><g id="link_Machine_Metadata"><path codeLine="20" d="M99.22,303.5 C110.73,303.5 110.24,303.5 121.75,303.5 " fill="none" id="Machine-to-Metadata" style="stroke:#181818;stroke-width:1.0;"/><polygon fill="#181818" points="133.75,303.5,127.75,299.5,121.75,303.5,127.75,307.5,133.75,303.5" style="stroke:#181818;stroke-width:1.0;"/></g><!--SRC=[JOyn3y8W48LtViMbYqaJojxHlPEZSJZXj2I0ZLoDYV6_Iw1WZ-NTbtllZiFClCHHgSLXuDMxGJ-yqWvZbCRY_ObUYDp2H8m66O7UJC54e1VThAE10jlqA0wvRNCV0QaY-iNH-G8ZdBBCrAEURQ04fw8olH9wL_1na-9RznTtIcrai-vHjHNMJkdbFt079NIXgsVLDDcthueV]--></g></svg>