<?xml version="1.0" encoding="us-ascii" standalone="no"?><svg xmlns="http://www.w3.org/2000/svg" xmlns:xlink="http://www.w3.org/1999/xlink" contentStyleType="text/css" height="524px" preserveAspectRatio="none" style="width:657px;height:524px;background:#FFFFFF;" version="1.1" viewBox="0 0 657 524" width="657px" zoomAndPan="magnify"><defs/><g><!--class Dataset--><g id="elem_Dataset"><rect codeLine="2" fill="#F1F1F1" height="146.4375" id="Dataset" rx="2.5" ry="2.5" style="stroke:#181818;stroke-width:0.5;" width="143" x="231.5" y="7"/><ellipse cx="274.4" cy="23" fill="#ADD1B2" rx="11" ry="11" style="stroke:#181818;stroke-width:1.0;"/><path d="M274.4469,29.2031 C275.9469,29.2031 277.1813,28.6406 278.0875,27.5781 L276.7125,26.0625 C276.1656,26.6563 275.5094,27.0469 274.7125,27.0469 C273.0406,27.0469 271.8844,25.7188 271.8844,23.4375 C271.8844,21.2188 273.0406,19.875 274.6031,19.875 C275.4156,19.875 276.0094,20.1875 276.5406,20.6719 L277.9156,19.125 C277.1656,18.3906 276.0094,17.7188 274.6031,17.7188 C271.65,17.7188 269.3219,19.8594 269.3219,23.5313 C269.3219,27.25 271.6969,29.2031 274.4469,29.2031 Z " fill="#000000"/><text fill="#000000" font-family="sans-serif" font-size="14" lengthAdjust="spacing" textLength="49" x="294.6" y="27.7852">Dataset</text><line style="stroke:#181818;stroke-width:0.5;" x1="232.5" x2="373.5" y1="39" y2="39"/><text fill="#000000" font-family="sans-serif" font-size="14" lengthAdjust="spacing" textLength="68" x="237.5" y="55.9883">data : Data</text><text fill="#000000" font-family="sans-serif" font-size="14" lengthAdjust="spacing" textLength="123" x="237.5" y="72.3945">device_data : Data{}</text><text fill="#000000" font-family="sans-serif" font-size="14" lengthAdjust="spacing" textLength="108" x="237.5" y="88.8008">raw_data : Data{}</text><text fill="#000000" font-family="sans-serif" font-size="14" lengthAdjust="spacing" textLength="131" x="237.5" y="105.207">metadata : Metadata</text><text fill="#000000" font-family="sans-serif" font-size="14" lengthAdjust="spacing" textLength="116" x="237.5" y="121.6133">fill_mode : FillMode</text><line style="stroke:#181818;stroke-width:0.5;" x1="232.5" x2="373.5" y1="129.0313" y2="129.0313"/><text fill="#000000" font-family="sans-serif" font-size="14" lengthAdjust="spacing" textLength="102" x="237.5" y="146.0195">preferred_data()</text></g><g id="elem_GMN3"><path d="M38,21.5 L38,138.1406 A0,0 0 0 0 38,138.1406 L196,138.1406 A0,0 0 0 0 196,138.1406 L196,84 L231.24,80 L196,76 L196,31.5 L186,21.5 L38,21.5 A0,0 0 0 0 38,21.5 " fill="#FEFFDD" style="stroke:#181818;stroke-width:0.5;"/><path d="M186,21.5 L186,31.5 L196,31.5 L186,21.5 " fill="#FEFFDD" style="stroke:#181818;stroke-width:0.5;"/><text fill="#000000" font-family="sans-serif" font-size="13" lengthAdjust="spacing" textLength="118" x="44" y="38.5605">raw_data contain the</text><text fill="#000000" font-family="sans-serif" font-size="13" lengthAdjust="spacing" textLength="113" x="44" y="53.7949">unfilled values of all</text><text fill="#000000" font-family="sans-serif" font-size="13" lengthAdjust="spacing" textLength="127" x="44" y="69.0293">device_data and share</text><text fill="#000000" font-family="sans-serif" font-size="13" lengthAdjust="spacing" textLength="79" x="44" y="84.2637">the same key.</text><text fill="#000000" font-family="sans-serif" font-size="13" lengthAdjust="spacing" textLength="3" x="44" y="99.498">&#160;</text><text fill="#000000" font-family="sans-serif" font-size="13" lengthAdjust="spacing" textLength="122" x="44" y="114.7324">Data and device_data</text><text fill="#000000" font-family="sans-serif" font-size="13" lengthAdjust="spacing" textLength="137" x="44" y="129.9668">contain the filled values.</text></g><!--class FillMode--><g id="elem_FillMode"><rect codeLine="13" fill="#F1F1F1" height="113.625" id="FillMode" rx="2.5" ry="2.5" style="stroke:#181818;stroke-width:0.5;" width="102" x="509" y="23"/><ellipse cx="532.1" cy="39" fill="#EB937F" rx="11" ry="11" style="stroke:#181818;stroke-width:1.0;"/><path d="M528.1625,45 L535.6781,45 L535.6781,42.8906 L530.6781,42.8906 L530.6781,40.3438 L534.7719,40.3438 L534.7719,38.25 L530.6781,38.25 L530.6781,36.0313 L535.5063,36.0313 L535.5063,33.9219 L528.1625,33.9219 L528.1625,45 Z " fill="#000000"/><text fill="#000000" font-family="sans-serif" font-size="14" lengthAdjust="spacing" textLength="52" x="547.9" y="43.7852">FillMode</text><line style="stroke:#181818;stroke-width:0.5;" x1="510" x2="610" y1="55" y2="55"/><text fill="#000000" font-family="sans-serif" font-size="14" lengthAdjust="spacing" textLength="61" x="515" y="71.9883">LASTFILL</text><text fill="#000000" font-family="sans-serif" font-size="14" lengthAdjust="spacing" textLength="57" x="515" y="88.3945">NANFILL</text><text fill="#000000" font-family="sans-serif" font-size="14" lengthAdjust="spacing" textLength="90" x="515" y="104.8008">LASTNANFILL</text><text fill="#000000" font-family="sans-serif" font-size="14" lengthAdjust="spacing" textLength="48" x="515" y="121.207">NOFILL</text><line style="stroke:#181818;stroke-width:0.5;" x1="510" x2="610" y1="128.625" y2="128.625"/></g><g id="elem_GMN7"><path d="M469.5,242 L469.5,297.7031 A0,0 0 0 0 469.5,297.7031 L650.5,297.7031 A0,0 0 0 0 650.5,297.7031 L650.5,252 L640.5,242 L564,242 L560,137.15 L556,242 L469.5,242 A0,0 0 0 0 469.5,242 " fill="#FEFFDD" style="stroke:#181818;stroke-width:0.5;"/><path d="M640.5,242 L640.5,252 L650.5,252 L640.5,242 " fill="#FEFFDD" style="stroke:#181818;stroke-width:0.5;"/><text fill="#000000" font-family="sans-serif" font-size="13" lengthAdjust="spacing" textLength="160" x="475.5" y="259.0605">Are these modes sufficient?</text><text fill="#000000" font-family="sans-serif" font-size="13" lengthAdjust="spacing" textLength="113" x="475.5" y="274.2949">Are they all needed?</text><text fill="#000000" font-family="sans-serif" font-size="13" lengthAdjust="spacing" textLength="128" x="475.5" y="289.5293">Is something missing?</text></g><!--class Metadata--><g id="elem_Metadata"><rect codeLine="21" fill="#F1F1F1" height="48" id="Metadata" rx="2.5" ry="2.5" style="stroke:#181818;stroke-width:0.5;" width="93" x="341.5" y="246"/><ellipse cx="356.5" cy="262" fill="#ADD1B2" rx="11" ry="11" style="stroke:#181818;stroke-width:1.0;"/><path d="M356.5469,268.2031 C358.0469,268.2031 359.2813,267.6406 360.1875,266.5781 L358.8125,265.0625 C358.2656,265.6563 357.6094,266.0469 356.8125,266.0469 C355.1406,266.0469 353.9844,264.7188 353.9844,262.4375 C353.9844,260.2188 355.1406,258.875 356.7031,258.875 C357.5156,258.875 358.1094,259.1875 358.6406,259.6719 L360.0156,258.125 C359.2656,257.3906 358.1094,256.7188 356.7031,256.7188 C353.75,256.7188 351.4219,258.8594 351.4219,262.5313 C351.4219,266.25 353.7969,268.2031 356.5469,268.2031 Z " fill="#000000"/><text fill="#000000" font-family="sans-serif" font-size="14" lengthAdjust="spacing" textLength="61" x="370.5" y="266.7852">Metadata</text><line style="stroke:#181818;stroke-width:0.5;" x1="342.5" x2="433.5" y1="278" y2="278"/><line style="stroke:#181818;stroke-width:0.5;" x1="342.5" x2="433.5" y1="286" y2="286"/></g><g id="elem_GMN11"><path d="M323.5,432 L323.5,472.4688 A0,0 0 0 0 323.5,472.4688 L468.5,472.4688 A0,0 0 0 0 468.5,472.4688 L468.5,442 L458.5,432 L399.15,432 L389.03,294.16 L391.15,432 L323.5,432 A0,0 0 0 0 323.5,432 " fill="#FEFFDD" style="stroke:#181818;stroke-width:0.5;"/><path d="M458.5,432 L458.5,442 L468.5,442 L458.5,432 " fill="#FEFFDD" style="stroke:#181818;stroke-width:0.5;"/><text fill="#000000" font-family="sans-serif" font-size="13" lengthAdjust="spacing" textLength="124" x="329.5" y="449.0605">See separate diagram</text><text fill="#000000" font-family="sans-serif" font-size="13" lengthAdjust="spacing" textLength="105" x="329.5" y="464.2949">for class hierarchy</text></g><!--class Data--><g id="elem_Data"><rect codeLine="25" fill="#F1F1F1" height="113.625" id="Data" rx="2.5" ry="2.5" style="stroke:#181818;stroke-width:0.5;" width="146" x="145" y="213"/><ellipse cx="198.75" cy="229" fill="#ADD1B2" rx="11" ry="11" style="stroke:#181818;stroke-width:1.0;"/><path d="M198.7969,235.2031 C200.2969,235.2031 201.5313,234.6406 202.4375,233.5781 L201.0625,232.0625 C200.5156,232.6563 199.8594,233.0469 199.0625,233.0469 C197.3906,233.0469 196.2344,231.7188 196.2344,229.4375 C196.2344,227.2188 197.3906,225.875 198.9531,225.875 C199.7656,225.875 200.3594,226.1875 200.8906,226.6719 L202.2656,225.125 C201.5156,224.3906 200.3594,223.7188 198.9531,223.7188 C196,223.7188 193.6719,225.8594 193.6719,229.5313 C193.6719,233.25 196.0469,235.2031 198.7969,235.2031 Z " fill="#000000"/><text fill="#000000" font-family="sans-serif" font-size="14" lengthAdjust="spacing" textLength="30" x="219.25" y="233.7852">Data</text><line style="stroke:#181818;stroke-width:0.5;" x1="146" x2="290" y1="245" y2="245"/><text fill="#000000" font-family="sans-serif" font-size="14" lengthAdjust="spacing" textLength="134" x="151" y="261.9883">data : numpy.ndarray</text><text fill="#000000" font-family="sans-serif" font-size="14" lengthAdjust="spacing" textLength="72" x="151" y="278.3945">axes : Axis[]</text><line style="stroke:#181818;stroke-width:0.5;" x1="146" x2="290" y1="285.8125" y2="285.8125"/><ellipse cx="156" cy="299.5156" fill="#84BE84" rx="3" ry="3" style="stroke:#038048;stroke-width:1.0;"/><text fill="#000000" font-family="sans-serif" font-size="14" lengthAdjust="spacing" textLength="97" x="165" y="302.8008">get_metadata()</text><rect fill="#F24D5C" height="6" style="stroke:#C82930;stroke-width:1.0;" width="6" x="153" y="312.9219"/><text fill="#000000" font-family="sans-serif" font-size="14" lengthAdjust="spacing" textLength="71" x="165" y="319.207">_get_data()</text></g><g id="elem_GMN15"><path d="M6,250 L6,290.4688 A0,0 0 0 0 6,290.4688 L110,290.4688 A0,0 0 0 0 110,290.4688 L110,274 L144.72,270 L110,266 L110,260 L100,250 L6,250 A0,0 0 0 0 6,250 " fill="#FEFFDD" style="stroke:#181818;stroke-width:0.5;"/><path d="M100,250 L100,260 L110,260 L100,250 " fill="#FEFFDD" style="stroke:#181818;stroke-width:0.5;"/><text fill="#000000" font-family="sans-serif" font-size="13" lengthAdjust="spacing" textLength="67" x="12" y="267.0605">Can data be</text><text fill="#000000" font-family="sans-serif" font-size="13" lengthAdjust="spacing" textLength="83" x="12" y="282.2949">ragged arrays?</text></g><!--class Axis--><g id="elem_Axis"><rect codeLine="34" fill="#F1F1F1" height="130.0313" id="Axis" rx="2.5" ry="2.5" style="stroke:#181818;stroke-width:0.5;" width="157" x="131.5" y="387"/><ellipse cx="192.75" cy="403" fill="#ADD1B2" rx="11" ry="11" style="stroke:#181818;stroke-width:1.0;"/><path d="M192.7969,409.2031 C194.2969,409.2031 195.5313,408.6406 196.4375,407.5781 L195.0625,406.0625 C194.5156,406.6563 193.8594,407.0469 193.0625,407.0469 C191.3906,407.0469 190.2344,405.7188 190.2344,403.4375 C190.2344,401.2188 191.3906,399.875 192.9531,399.875 C193.7656,399.875 194.3594,400.1875 194.8906,400.6719 L196.2656,399.125 C195.5156,398.3906 194.3594,397.7188 192.9531,397.7188 C190,397.7188 187.6719,399.8594 187.6719,403.5313 C187.6719,407.25 190.0469,409.2031 192.7969,409.2031 Z " fill="#000000"/><text fill="#000000" font-family="sans-serif" font-size="14" lengthAdjust="spacing" textLength="26" x="213.25" y="407.7852">Axis</text><line style="stroke:#181818;stroke-width:0.5;" x1="132.5" x2="287.5" y1="419" y2="419"/><text fill="#000000" font-family="sans-serif" font-size="14" lengthAdjust="spacing" textLength="97" x="137.5" y="435.9883">quantity : string</text><text fill="#000000" font-family="sans-serif" font-size="14" lengthAdjust="spacing" textLength="90" x="137.5" y="452.3945">symbol : string</text><text fill="#000000" font-family="sans-serif" font-size="14" lengthAdjust="spacing" textLength="69" x="137.5" y="468.8008">unit : string</text><text fill="#000000" font-family="sans-serif" font-size="14" lengthAdjust="spacing" textLength="145" x="137.5" y="485.207">values : numpy.ndarray</text><line style="stroke:#181818;stroke-width:0.5;" x1="132.5" x2="287.5" y1="492.625" y2="492.625"/><text fill="#000000" font-family="sans-serif" font-size="14" lengthAdjust="spacing" textLength="39" x="137.5" y="509.6133">label()</text></g><!--reverse link Dataset to Metadata--><g id="link_Dataset_Metadata"><path codeLine="43" d="M340.5641,164.0842 C355.4541,197.0142 367.11,222.79 377.55,245.89 " fill="none" id="Dataset-backto-Metadata" style="stroke:#181818;stroke-width:1.0;"/><polygon fill="#181818" points="335.62,153.15,334.4473,160.2651,340.5641,164.0842,341.7368,156.969,335.62,153.15" style="stroke:#181818;stroke-width:1.0;"/></g><!--reverse link Dataset to Data--><g id="link_Dataset_Data"><path codeLine="44" d="M265.4377,164.085 C256.4977,183.865 251.88,194.07 243.41,212.81 " fill="none" id="Dataset-backto-Data" style="stroke:#181818;stroke-width:1.0;"/><polygon fill="#181818" points="270.38,153.15,264.2639,156.9701,265.4377,164.085,271.5538,160.2649,270.38,153.15" style="stroke:#181818;stroke-width:1.0;"/></g><!--reverse link Data to Axis--><g id="link_Data_Axis"><path codeLine="45" d="M214.9563,339.4481 C214.1163,358.3181 213.71,367.49 212.85,386.9 " fill="none" id="Data-backto-Axis" style="stroke:#181818;stroke-width:1.0;"/><polygon fill="#181818" points="215.49,327.46,211.2271,333.2762,214.9563,339.4481,219.2192,333.6319,215.49,327.46" style="stroke:#181818;stroke-width:1.0;"/></g><!--SRC=[RLFHJkim37tFL_YH2ze-O2zeOa926kE1-tQB9gznsuZKsKrIe4ByEqxMZXQjBxNFIMoVuxQq609iC6AW29yAvD6ImIg3fvpUJ4dx2VpvbGcFxnVGbY8EwECGPhmorkvRfqc8UuaV9LIPENggo7lIkThL7_Mbs4K2IrLS_NGf7KSq3B6XWZjEzKZ36zgE0hWAqDg2fyCYQmWDUZakTo1WI_1A_RBWWZVZWSc5WYSjO5P_gHHnrvu77wpQhf__tZzijpdPhNVdE17JVFUKmq7OmSNesXMiFQLMWI3v4Y1qLMLAGnnl2nx8Fka29jAa1NsGKquiRWpNq9eGv7shL9dtUFPxrkMPH3iTqQE0sc3jiIsuSXvEjnf37dtPz6giaysPVGoY_TWlMQFts6S2FsHWaV1Xmh-NqnvleAQu7_SlUqpW0lO9lRJPE-HJ_ODio6DTYzsvGJWhIkM7IVvtoD74Nfg6w4LsHaFV7foTOnsRE4U6Z-ItZinPF93DewdnFxXUB7wyd8AR4SXP6avz0m00]--></g></svg>