<?xml version="1.0" encoding="us-ascii" standalone="no"?><svg xmlns="http://www.w3.org/2000/svg" xmlns:xlink="http://www.w3.org/1999/xlink" contentStyleType="text/css" height="841px" preserveAspectRatio="none" style="width:1208px;height:841px;background:#FFFFFF;" version="1.1" viewBox="0 0 1208 841" width="1208px" zoomAndPan="magnify"><defs/><g><!--cluster evedata--><g id="cluster_evedata"><path d="M8.5,6 L73.5,6 A3.75,3.75 0 0 1 76,8.5 L83,28.2969 L1198.5,28.2969 A2.5,2.5 0 0 1 1201,30.7969 L1201,831.5 A2.5,2.5 0 0 1 1198.5,834 L8.5,834 A2.5,2.5 0 0 1 6,831.5 L6,8.5 A2.5,2.5 0 0 1 8.5,6 " fill="none" style="stroke:#000000;stroke-width:1.5;"/><line style="stroke:#000000;stroke-width:1.5;" x1="6" x2="83" y1="28.2969" y2="28.2969"/><text fill="#000000" font-family="sans-serif" font-size="14" font-weight="bold" lengthAdjust="spacing" textLength="64" x="10" y="20.9951">evedata</text></g><!--cluster scan--><g id="cluster_scan"><path d="M892.5,49 L928.5,49 A3.75,3.75 0 0 1 931,51.5 L938,71.2969 L1174.5,71.2969 A2.5,2.5 0 0 1 1177,73.7969 L1177,807.5 A2.5,2.5 0 0 1 1174.5,810 L892.5,810 A2.5,2.5 0 0 1 890,807.5 L890,51.5 A2.5,2.5 0 0 1 892.5,49 " fill="none" style="stroke:#000000;stroke-width:1.5;"/><line style="stroke:#000000;stroke-width:1.5;" x1="890" x2="938" y1="71.2969" y2="71.2969"/><text fill="#000000" font-family="sans-serif" font-size="14" font-weight="bold" lengthAdjust="spacing" textLength="35" x="894" y="63.9951">scan</text></g><!--cluster boundaries--><g id="cluster_boundaries"><path d="M924.5,100 L1014.5,100 A3.75,3.75 0 0 1 1017,102.5 L1024,122.2969 L1133.5,122.2969 A2.5,2.5 0 0 1 1136,124.7969 L1136,217.5 A2.5,2.5 0 0 1 1133.5,220 L924.5,220 A2.5,2.5 0 0 1 922,217.5 L922,102.5 A2.5,2.5 0 0 1 924.5,100 " fill="none" style="stroke:#000000;stroke-width:1.5;"/><line style="stroke:#000000;stroke-width:1.5;" x1="922" x2="1024" y1="122.2969" y2="122.2969"/><text fill="#000000" font-family="sans-serif" font-size="14" font-weight="bold" lengthAdjust="spacing" textLength="89" x="926" y="114.9951">boundaries</text></g><!--cluster controllers--><g id="cluster_controllers"><path d="M924.5,260 L1012.5,260 A3.75,3.75 0 0 1 1015,262.5 L1022,282.2969 L1142.5,282.2969 A2.5,2.5 0 0 1 1145,284.7969 L1145,377.5 A2.5,2.5 0 0 1 1142.5,380 L924.5,380 A2.5,2.5 0 0 1 922,377.5 L922,262.5 A2.5,2.5 0 0 1 924.5,260 " fill="none" style="stroke:#000000;stroke-width:1.5;"/><line style="stroke:#000000;stroke-width:1.5;" x1="922" x2="1022" y1="282.2969" y2="282.2969"/><text fill="#000000" font-family="sans-serif" font-size="14" font-weight="bold" lengthAdjust="spacing" textLength="87" x="926" y="274.9951">controllers</text></g><!--cluster entities--><g id="cluster_entities"><path d="M924.5,420 L987.5,420 A3.75,3.75 0 0 1 990,422.5 L997,442.2969 L1131.5,442.2969 A2.5,2.5 0 0 1 1134,444.7969 L1134,775.5 A2.5,2.5 0 0 1 1131.5,778 L924.5,778 A2.5,2.5 0 0 1 922,775.5 L922,422.5 A2.5,2.5 0 0 1 924.5,420 " fill="none" style="stroke:#000000;stroke-width:1.5;"/><line style="stroke:#000000;stroke-width:1.5;" x1="922" x2="997" y1="442.2969" y2="442.2969"/><text fill="#000000" font-family="sans-serif" font-size="14" font-weight="bold" lengthAdjust="spacing" textLength="62" x="926" y="434.9951">entities</text></g><!--cluster evefile--><g id="cluster_evefile"><path d="M422.5,49 L478.5,49 A3.75,3.75 0 0 1 481,51.5 L488,71.2969 L863.5,71.2969 A2.5,2.5 0 0 1 866,73.7969 L866,807.5 A2.5,2.5 0 0 1 863.5,810 L422.5,810 A2.5,2.5 0 0 1 420,807.5 L420,51.5 A2.5,2.5 0 0 1 422.5,49 " fill="none" style="stroke:#000000;stroke-width:1.5;"/><line style="stroke:#000000;stroke-width:1.5;" x1="420" x2="488" y1="71.2969" y2="71.2969"/><text fill="#000000" font-family="sans-serif" font-size="14" font-weight="bold" lengthAdjust="spacing" textLength="55" x="424" y="63.9951">evefile</text></g><!--cluster boundaries--><g id="cluster_boundaries"><path d="M454.5,100 L544.5,100 A3.75,3.75 0 0 1 547,102.5 L554,122.2969 L696.5,122.2969 A2.5,2.5 0 0 1 699,124.7969 L699,217.5 A2.5,2.5 0 0 1 696.5,220 L454.5,220 A2.5,2.5 0 0 1 452,217.5 L452,102.5 A2.5,2.5 0 0 1 454.5,100 " fill="none" style="stroke:#000000;stroke-width:1.5;"/><line style="stroke:#000000;stroke-width:1.5;" x1="452" x2="554" y1="122.2969" y2="122.2969"/><text fill="#000000" font-family="sans-serif" font-size="14" font-weight="bold" lengthAdjust="spacing" textLength="89" x="456" y="114.9951">boundaries</text></g><!--cluster controllers--><g id="cluster_controllers"><path d="M454.5,260 L542.5,260 A3.75,3.75 0 0 1 545,262.5 L552,282.2969 L831.5,282.2969 A2.5,2.5 0 0 1 834,284.7969 L834,377.5 A2.5,2.5 0 0 1 831.5,380 L454.5,380 A2.5,2.5 0 0 1 452,377.5 L452,262.5 A2.5,2.5 0 0 1 454.5,260 " fill="none" style="stroke:#000000;stroke-width:1.5;"/><line style="stroke:#000000;stroke-width:1.5;" x1="452" x2="552" y1="282.2969" y2="282.2969"/><text fill="#000000" font-family="sans-serif" font-size="14" font-weight="bold" lengthAdjust="spacing" textLength="87" x="456" y="274.9951">controllers</text></g><!--cluster entities--><g id="cluster_entities"><path d="M454.5,420 L517.5,420 A3.75,3.75 0 0 1 520,422.5 L527,442.2969 L601.5,442.2969 A2.5,2.5 0 0 1 604,444.7969 L604,775.5 A2.5,2.5 0 0 1 601.5,778 L454.5,778 A2.5,2.5 0 0 1 452,775.5 L452,422.5 A2.5,2.5 0 0 1 454.5,420 " fill="none" style="stroke:#000000;stroke-width:1.5;"/><line style="stroke:#000000;stroke-width:1.5;" x1="452" x2="527" y1="442.2969" y2="442.2969"/><text fill="#000000" font-family="sans-serif" font-size="14" font-weight="bold" lengthAdjust="spacing" textLength="62" x="456" y="434.9951">entities</text></g><!--cluster measurement--><g id="cluster_measurement"><path d="M32.5,49 L144.5,49 A3.75,3.75 0 0 1 147,51.5 L154,71.2969 L393.5,71.2969 A2.5,2.5 0 0 1 396,73.7969 L396,682.5 A2.5,2.5 0 0 1 393.5,685 L32.5,685 A2.5,2.5 0 0 1 30,682.5 L30,51.5 A2.5,2.5 0 0 1 32.5,49 " fill="none" style="stroke:#000000;stroke-width:1.5;"/><line style="stroke:#000000;stroke-width:1.5;" x1="30" x2="154" y1="71.2969" y2="71.2969"/><text fill="#000000" font-family="sans-serif" font-size="14" font-weight="bold" lengthAdjust="spacing" textLength="111" x="34" y="63.9951">measurement</text></g><!--cluster boundaries--><g id="cluster_boundaries"><path d="M64.5,100 L154.5,100 A3.75,3.75 0 0 1 157,102.5 L164,122.2969 L258.5,122.2969 A2.5,2.5 0 0 1 261,124.7969 L261,217.5 A2.5,2.5 0 0 1 258.5,220 L64.5,220 A2.5,2.5 0 0 1 62,217.5 L62,102.5 A2.5,2.5 0 0 1 64.5,100 " fill="none" style="stroke:#000000;stroke-width:1.5;"/><line style="stroke:#000000;stroke-width:1.5;" x1="62" x2="164" y1="122.2969" y2="122.2969"/><text fill="#000000" font-family="sans-serif" font-size="14" font-weight="bold" lengthAdjust="spacing" textLength="89" x="66" y="114.9951">boundaries</text></g><!--cluster controllers--><g id="cluster_controllers"><path d="M64.5,260 L152.5,260 A3.75,3.75 0 0 1 155,262.5 L162,282.2969 L361.5,282.2969 A2.5,2.5 0 0 1 364,284.7969 L364,377.5 A2.5,2.5 0 0 1 361.5,380 L64.5,380 A2.5,2.5 0 0 1 62,377.5 L62,262.5 A2.5,2.5 0 0 1 64.5,260 " fill="none" style="stroke:#000000;stroke-width:1.5;"/><line style="stroke:#000000;stroke-width:1.5;" x1="62" x2="162" y1="282.2969" y2="282.2969"/><text fill="#000000" font-family="sans-serif" font-size="14" font-weight="bold" lengthAdjust="spacing" textLength="87" x="66" y="274.9951">controllers</text></g><!--cluster entities--><g id="cluster_entities"><path d="M64.5,420 L127.5,420 A3.75,3.75 0 0 1 130,422.5 L137,442.2969 L258.5,442.2969 A2.5,2.5 0 0 1 261,444.7969 L261,650.5 A2.5,2.5 0 0 1 258.5,653 L64.5,653 A2.5,2.5 0 0 1 62,650.5 L62,422.5 A2.5,2.5 0 0 1 64.5,420 " fill="none" style="stroke:#000000;stroke-width:1.5;"/><line style="stroke:#000000;stroke-width:1.5;" x1="62" x2="137" y1="442.2969" y2="442.2969"/><text fill="#000000" font-family="sans-serif" font-size="14" font-weight="bold" lengthAdjust="spacing" textLength="62" x="66" y="434.9951">entities</text></g><path d="M968,143 L1004,143 A3.75,3.75 0 0 1 1006.5,145.5 L1013.5,165.2969 L1018,165.2969 A2.5,2.5 0 0 1 1020.5,167.7969 L1020.5,193.0938 A2.5,2.5 0 0 1 1018,195.5938 L968,195.5938 A2.5,2.5 0 0 1 965.5,193.0938 L965.5,145.5 A2.5,2.5 0 0 1 968,143 " fill="#F1F1F1" style="stroke:#181818;stroke-width:0.5;"/><line style="stroke:#181818;stroke-width:0.5;" x1="965.5" x2="1013.5" y1="165.2969" y2="165.2969"/><text fill="#000000" font-family="sans-serif" font-size="14" font-weight="bold" lengthAdjust="spacing" textLength="35" x="969.5" y="157.9951">scan</text><path d="M1058.5,143 L1095.5,143 A3.75,3.75 0 0 1 1098,145.5 L1105,165.2969 L1109.5,165.2969 A2.5,2.5 0 0 1 1112,167.7969 L1112,193.0938 A2.5,2.5 0 0 1 1109.5,195.5938 L1058.5,195.5938 A2.5,2.5 0 0 1 1056,193.0938 L1056,145.5 A2.5,2.5 0 0 1 1058.5,143 " fill="#F1F1F1" style="stroke:#181818;stroke-width:0.5;"/><line style="stroke:#181818;stroke-width:0.5;" x1="1056" x2="1105" y1="165.2969" y2="165.2969"/><text fill="#000000" font-family="sans-serif" font-size="14" font-weight="bold" lengthAdjust="spacing" textLength="36" x="1060" y="157.9951">scml</text><path d="M968,303 L1104,303 A3.75,3.75 0 0 1 1106.5,305.5 L1113.5,325.2969 L1118,325.2969 A2.5,2.5 0 0 1 1120.5,327.7969 L1120.5,353.0938 A2.5,2.5 0 0 1 1118,355.5938 L968,355.5938 A2.5,2.5 0 0 1 965.5,353.0938 L965.5,305.5 A2.5,2.5 0 0 1 968,303 " fill="#F1F1F1" style="stroke:#181818;stroke-width:0.5;"/><line style="stroke:#181818;stroke-width:0.5;" x1="965.5" x2="1113.5" y1="325.2969" y2="325.2969"/><text fill="#000000" font-family="sans-serif" font-size="14" font-weight="bold" lengthAdjust="spacing" textLength="135" x="969.5" y="317.9951">version_mapping</text><path d="M1014.5,463 L1041.5,463 A3.75,3.75 0 0 1 1044,465.5 L1051,485.2969 L1055.5,485.2969 A2.5,2.5 0 0 1 1058,487.7969 L1058,513.0938 A2.5,2.5 0 0 1 1055.5,515.5938 L1014.5,515.5938 A2.5,2.5 0 0 1 1012,513.0938 L1012,465.5 A2.5,2.5 0 0 1 1014.5,463 " fill="#F1F1F1" style="stroke:#181818;stroke-width:0.5;"/><line style="stroke:#181818;stroke-width:0.5;" x1="1012" x2="1051" y1="485.2969" y2="485.2969"/><text fill="#000000" font-family="sans-serif" font-size="14" font-weight="bold" lengthAdjust="spacing" textLength="26" x="1016" y="477.9951">file</text><path d="M957,576 L1003,576 A3.75,3.75 0 0 1 1005.5,578.5 L1012.5,598.2969 L1017,598.2969 A2.5,2.5 0 0 1 1019.5,600.7969 L1019.5,626.0938 A2.5,2.5 0 0 1 1017,628.5938 L957,628.5938 A2.5,2.5 0 0 1 954.5,626.0938 L954.5,578.5 A2.5,2.5 0 0 1 957,576 " fill="#F1F1F1" style="stroke:#181818;stroke-width:0.5;"/><line style="stroke:#181818;stroke-width:0.5;" x1="954.5" x2="1012.5" y1="598.2969" y2="598.2969"/><text fill="#000000" font-family="sans-serif" font-size="14" font-weight="bold" lengthAdjust="spacing" textLength="45" x="958.5" y="590.9951">setup</text><path d="M1057,576 L1093,576 A3.75,3.75 0 0 1 1095.5,578.5 L1102.5,598.2969 L1107,598.2969 A2.5,2.5 0 0 1 1109.5,600.7969 L1109.5,626.0938 A2.5,2.5 0 0 1 1107,628.5938 L1057,628.5938 A2.5,2.5 0 0 1 1054.5,626.0938 L1054.5,578.5 A2.5,2.5 0 0 1 1057,576 " fill="#F1F1F1" style="stroke:#181818;stroke-width:0.5;"/><line style="stroke:#181818;stroke-width:0.5;" x1="1054.5" x2="1102.5" y1="598.2969" y2="598.2969"/><text fill="#000000" font-family="sans-serif" font-size="14" font-weight="bold" lengthAdjust="spacing" textLength="35" x="1058.5" y="590.9951">scan</text><path d="M958.5,701 L1005.5,701 A3.75,3.75 0 0 1 1008,703.5 L1015,723.2969 L1019.5,723.2969 A2.5,2.5 0 0 1 1022,725.7969 L1022,751.0938 A2.5,2.5 0 0 1 1019.5,753.5938 L958.5,753.5938 A2.5,2.5 0 0 1 956,751.0938 L956,703.5 A2.5,2.5 0 0 1 958.5,701 " fill="#F1F1F1" style="stroke:#181818;stroke-width:0.5;"/><line style="stroke:#181818;stroke-width:0.5;" x1="956" x2="1015" y1="723.2969" y2="723.2969"/><text fill="#000000" font-family="sans-serif" font-size="14" font-weight="bold" lengthAdjust="spacing" textLength="46" x="960" y="715.9951">event</text><path d="M1059.5,701 L1092.5,701 A3.75,3.75 0 0 1 1095,703.5 L1102,723.2969 L1106.5,723.2969 A2.5,2.5 0 0 1 1109,725.7969 L1109,751.0938 A2.5,2.5 0 0 1 1106.5,753.5938 L1059.5,753.5938 A2.5,2.5 0 0 1 1057,751.0938 L1057,703.5 A2.5,2.5 0 0 1 1059.5,701 " fill="#F1F1F1" style="stroke:#181818;stroke-width:0.5;"/><line style="stroke:#181818;stroke-width:0.5;" x1="1057" x2="1102" y1="723.2969" y2="723.2969"/><text fill="#000000" font-family="sans-serif" font-size="14" font-weight="bold" lengthAdjust="spacing" textLength="32" x="1061" y="715.9951">plot</text><path d="M498,143 L554,143 A3.75,3.75 0 0 1 556.5,145.5 L563.5,165.2969 L568,165.2969 A2.5,2.5 0 0 1 570.5,167.7969 L570.5,193.0938 A2.5,2.5 0 0 1 568,195.5938 L498,195.5938 A2.5,2.5 0 0 1 495.5,193.0938 L495.5,145.5 A2.5,2.5 0 0 1 498,143 " fill="#F1F1F1" style="stroke:#181818;stroke-width:0.5;"/><line style="stroke:#181818;stroke-width:0.5;" x1="495.5" x2="563.5" y1="165.2969" y2="165.2969"/><text fill="#000000" font-family="sans-serif" font-size="14" font-weight="bold" lengthAdjust="spacing" textLength="55" x="499.5" y="157.9951">evefile</text><path d="M608,143 L658,143 A3.75,3.75 0 0 1 660.5,145.5 L667.5,165.2969 L672,165.2969 A2.5,2.5 0 0 1 674.5,167.7969 L674.5,193.0938 A2.5,2.5 0 0 1 672,195.5938 L608,195.5938 A2.5,2.5 0 0 1 605.5,193.0938 L605.5,145.5 A2.5,2.5 0 0 1 608,143 " fill="#F1F1F1" style="stroke:#181818;stroke-width:0.5;"/><line style="stroke:#181818;stroke-width:0.5;" x1="605.5" x2="667.5" y1="165.2969" y2="165.2969"/><text fill="#000000" font-family="sans-serif" font-size="14" font-weight="bold" lengthAdjust="spacing" textLength="49" x="609.5" y="157.9951">eveh5</text><path d="M688.5,303 L793.5,303 A3.75,3.75 0 0 1 796,305.5 L803,325.2969 L807.5,325.2969 A2.5,2.5 0 0 1 810,327.7969 L810,353.0938 A2.5,2.5 0 0 1 807.5,355.5938 L688.5,355.5938 A2.5,2.5 0 0 1 686,353.0938 L686,305.5 A2.5,2.5 0 0 1 688.5,303 " fill="#F1F1F1" style="stroke:#181818;stroke-width:0.5;"/><line style="stroke:#181818;stroke-width:0.5;" x1="686" x2="803" y1="325.2969" y2="325.2969"/><text fill="#000000" font-family="sans-serif" font-size="14" font-weight="bold" lengthAdjust="spacing" textLength="104" x="690" y="317.9951">transforming</text><path d="M498,303 L634,303 A3.75,3.75 0 0 1 636.5,305.5 L643.5,325.2969 L648,325.2969 A2.5,2.5 0 0 1 650.5,327.7969 L650.5,353.0938 A2.5,2.5 0 0 1 648,355.5938 L498,355.5938 A2.5,2.5 0 0 1 495.5,353.0938 L495.5,305.5 A2.5,2.5 0 0 1 498,303 " fill="#F1F1F1" style="stroke:#181818;stroke-width:0.5;"/><line style="stroke:#181818;stroke-width:0.5;" x1="495.5" x2="643.5" y1="325.2969" y2="325.2969"/><text fill="#000000" font-family="sans-serif" font-size="14" font-weight="bold" lengthAdjust="spacing" textLength="135" x="499.5" y="317.9951">version_mapping</text><path d="M511.5,463 L538.5,463 A3.75,3.75 0 0 1 541,465.5 L548,485.2969 L552.5,485.2969 A2.5,2.5 0 0 1 555,487.7969 L555,513.0938 A2.5,2.5 0 0 1 552.5,515.5938 L511.5,515.5938 A2.5,2.5 0 0 1 509,513.0938 L509,465.5 A2.5,2.5 0 0 1 511.5,463 " fill="#F1F1F1" style="stroke:#181818;stroke-width:0.5;"/><line style="stroke:#181818;stroke-width:0.5;" x1="509" x2="548" y1="485.2969" y2="485.2969"/><text fill="#000000" font-family="sans-serif" font-size="14" font-weight="bold" lengthAdjust="spacing" textLength="26" x="513" y="477.9951">file</text><path d="M507,576 L543,576 A3.75,3.75 0 0 1 545.5,578.5 L552.5,598.2969 L557,598.2969 A2.5,2.5 0 0 1 559.5,600.7969 L559.5,626.0938 A2.5,2.5 0 0 1 557,628.5938 L507,628.5938 A2.5,2.5 0 0 1 504.5,626.0938 L504.5,578.5 A2.5,2.5 0 0 1 507,576 " fill="#F1F1F1" style="stroke:#181818;stroke-width:0.5;"/><line style="stroke:#181818;stroke-width:0.5;" x1="504.5" x2="552.5" y1="598.2969" y2="598.2969"/><text fill="#000000" font-family="sans-serif" font-size="14" font-weight="bold" lengthAdjust="spacing" textLength="35" x="508.5" y="590.9951">data</text><path d="M486.5,701 L563.5,701 A3.75,3.75 0 0 1 566,703.5 L573,723.2969 L577.5,723.2969 A2.5,2.5 0 0 1 580,725.7969 L580,751.0938 A2.5,2.5 0 0 1 577.5,753.5938 L486.5,753.5938 A2.5,2.5 0 0 1 484,751.0938 L484,703.5 A2.5,2.5 0 0 1 486.5,701 " fill="#F1F1F1" style="stroke:#181818;stroke-width:0.5;"/><line style="stroke:#181818;stroke-width:0.5;" x1="484" x2="573" y1="723.2969" y2="723.2969"/><text fill="#000000" font-family="sans-serif" font-size="14" font-weight="bold" lengthAdjust="spacing" textLength="76" x="488" y="715.9951">metadata</text><path d="M108,143 L220,143 A3.75,3.75 0 0 1 222.5,145.5 L229.5,165.2969 L234,165.2969 A2.5,2.5 0 0 1 236.5,167.7969 L236.5,193.0938 A2.5,2.5 0 0 1 234,195.5938 L108,195.5938 A2.5,2.5 0 0 1 105.5,193.0938 L105.5,145.5 A2.5,2.5 0 0 1 108,143 " fill="#F1F1F1" style="stroke:#181818;stroke-width:0.5;"/><line style="stroke:#181818;stroke-width:0.5;" x1="105.5" x2="229.5" y1="165.2969" y2="165.2969"/><text fill="#000000" font-family="sans-serif" font-size="14" font-weight="bold" lengthAdjust="spacing" textLength="111" x="109.5" y="157.9951">measurement</text><path d="M218.5,303 L323.5,303 A3.75,3.75 0 0 1 326,305.5 L333,325.2969 L337.5,325.2969 A2.5,2.5 0 0 1 340,327.7969 L340,353.0938 A2.5,2.5 0 0 1 337.5,355.5938 L218.5,355.5938 A2.5,2.5 0 0 1 216,353.0938 L216,305.5 A2.5,2.5 0 0 1 218.5,303 " fill="#F1F1F1" style="stroke:#181818;stroke-width:0.5;"/><line style="stroke:#181818;stroke-width:0.5;" x1="216" x2="333" y1="325.2969" y2="325.2969"/><text fill="#000000" font-family="sans-serif" font-size="14" font-weight="bold" lengthAdjust="spacing" textLength="104" x="220" y="317.9951">transforming</text><path d="M108,303 L164,303 A3.75,3.75 0 0 1 166.5,305.5 L173.5,325.2969 L178,325.2969 A2.5,2.5 0 0 1 180.5,327.7969 L180.5,353.0938 A2.5,2.5 0 0 1 178,355.5938 L108,355.5938 A2.5,2.5 0 0 1 105.5,353.0938 L105.5,305.5 A2.5,2.5 0 0 1 108,303 " fill="#F1F1F1" style="stroke:#181818;stroke-width:0.5;"/><line style="stroke:#181818;stroke-width:0.5;" x1="105.5" x2="173.5" y1="325.2969" y2="325.2969"/><text fill="#000000" font-family="sans-serif" font-size="14" font-weight="bold" lengthAdjust="spacing" textLength="55" x="109.5" y="317.9951">joining</text><path d="M108,463 L220,463 A3.75,3.75 0 0 1 222.5,465.5 L229.5,485.2969 L234,485.2969 A2.5,2.5 0 0 1 236.5,487.7969 L236.5,513.0938 A2.5,2.5 0 0 1 234,515.5938 L108,515.5938 A2.5,2.5 0 0 1 105.5,513.0938 L105.5,465.5 A2.5,2.5 0 0 1 108,463 " fill="#F1F1F1" style="stroke:#181818;stroke-width:0.5;"/><line style="stroke:#181818;stroke-width:0.5;" x1="105.5" x2="229.5" y1="485.2969" y2="485.2969"/><text fill="#000000" font-family="sans-serif" font-size="14" font-weight="bold" lengthAdjust="spacing" textLength="111" x="109.5" y="477.9951">measurement</text><path d="M125.5,576 L202.5,576 A3.75,3.75 0 0 1 205,578.5 L212,598.2969 L216.5,598.2969 A2.5,2.5 0 0 1 219,600.7969 L219,626.0938 A2.5,2.5 0 0 1 216.5,628.5938 L125.5,628.5938 A2.5,2.5 0 0 1 123,626.0938 L123,578.5 A2.5,2.5 0 0 1 125.5,576 " fill="#F1F1F1" style="stroke:#181818;stroke-width:0.5;"/><line style="stroke:#181818;stroke-width:0.5;" x1="123" x2="212" y1="598.2969" y2="598.2969"/><text fill="#000000" font-family="sans-serif" font-size="14" font-weight="bold" lengthAdjust="spacing" textLength="76" x="127" y="590.9951">metadata</text><!--link scan to scml--><g id="link_scan_scml"><path codeLine="8" d="M1020.73,169.5 C1032.43,169.5 1038.12,169.5 1049.82,169.5 " fill="none" id="scan-to-scml" style="stroke:#181818;stroke-width:1.0;"/><polygon fill="#181818" points="1055.82,169.5,1046.82,165.5,1050.82,169.5,1046.82,173.5,1055.82,169.5" style="stroke:#181818;stroke-width:1.0;"/></g><!--link file to setup--><g id="link_file_setup"><path codeLine="25" d="M1023.87,516.24 C1016.11,534.18 1008.1913,552.4828 1000.4513,570.3828 " fill="none" id="file-to-setup" style="stroke:#181818;stroke-width:1.0;"/><polygon fill="#181818" points="998.07,575.89,1005.3135,569.2167,1000.0544,571.3007,997.9705,566.0416,998.07,575.89" style="stroke:#181818;stroke-width:1.0;"/></g><!--link file to scan--><g id="link_file_scan"><path codeLine="26" d="M1045.9,516.24 C1053.49,534.18 1061.2403,552.465 1068.8203,570.365 " fill="none" id="file-to-scan" style="stroke:#181818;stroke-width:1.0;"/><polygon fill="#181818" points="1071.16,575.89,1071.3339,566.0427,1069.2103,571.2858,1063.9672,569.1622,1071.16,575.89" style="stroke:#181818;stroke-width:1.0;"/></g><!--link scan to event--><g id="link_scan_event"><path codeLine="27" d="M1073.11,629.03 C1065.58,648.12 1053.39,674.07 1037,693 C1032.74,697.92 1032.3698,698.817 1027.0798,702.877 " fill="none" id="scan-to-event" style="stroke:#181818;stroke-width:1.0;"/><polygon fill="#181818" points="1022.32,706.53,1031.895,704.2236,1026.2865,703.4858,1027.0243,697.8773,1022.32,706.53" style="stroke:#181818;stroke-width:1.0;"/></g><!--link scan to plot--><g id="link_scan_plot"><path codeLine="28" d="M1082.21,629.28 C1082.38,650.28 1082.5714,673.7702 1082.7414,694.7502 " fill="none" id="scan-to-plot" style="stroke:#181818;stroke-width:1.0;"/><polygon fill="#181818" points="1082.79,700.75,1086.7169,691.7179,1082.7495,695.7502,1078.7172,691.7827,1082.79,700.75" style="stroke:#181818;stroke-width:1.0;"/></g><!--link boundaries to controllers--><g id="link_boundaries_controllers"><path codeLine="30" d="M930,220.5361 C930,220.8165 930,221.0974 930,221.379 C930,230.3876 930,239.9572 930,249.5263 C930,251.9185 930,254.3107 930,256.6942 C930,257.29 930,257.8853 930,258.4799 C930,258.7773 930,259.0744 930,259.3713 C930,259.5198 930,253.6682 930,253.8166 " fill="none" id="boundaries-to-controllers" style="stroke:#181818;stroke-width:1.0;"/><polygon fill="#181818" points="930,259.8166,934,250.8166,930,254.8166,926,250.8166,930,259.8166" style="stroke:#181818;stroke-width:1.0;"/></g><!--link controllers to entities--><g id="link_controllers_entities"><path codeLine="31" d="M930,380.5361 C930,380.8165 930,381.0974 930,381.379 C930,390.3876 930,399.9572 930,409.5263 C930,411.9185 930,414.3107 930,416.6942 C930,417.29 930,417.8853 930,418.4799 C930,418.7773 930,419.0744 930,419.3713 C930,419.5198 930,413.6682 930,413.8166 " fill="none" id="controllers-to-entities" style="stroke:#181818;stroke-width:1.0;"/><polygon fill="#181818" points="930,419.8166,934,410.8166,930,414.8166,926,410.8166,930,419.8166" style="stroke:#181818;stroke-width:1.0;"/></g><!--link evefile to eveh5--><g id="link_evefile_eveh5"><path codeLine="38" d="M570.62,169.5 C582.18,169.5 587.74,169.5 599.31,169.5 " fill="none" id="evefile-to-eveh5" style="stroke:#181818;stroke-width:1.0;"/><polygon fill="#181818" points="605.31,169.5,596.31,165.5,600.31,169.5,596.31,173.5,605.31,169.5" style="stroke:#181818;stroke-width:1.0;"/></g><!--link file to data--><g id="link_file_data"><path codeLine="51" d="M532,516.24 C532,534.18 532,551.99 532,569.89 " fill="none" id="file-to-data" style="stroke:#181818;stroke-width:1.0;"/><polygon fill="#181818" points="532,575.89,536,566.89,532,570.89,528,566.89,532,575.89" style="stroke:#181818;stroke-width:1.0;"/></g><!--link data to metadata--><g id="link_data_metadata"><path codeLine="52" d="M532,629.28 C532,650.28 532,673.77 532,694.75 " fill="none" id="data-to-metadata" style="stroke:#181818;stroke-width:1.0;"/><polygon fill="#181818" points="532,700.75,536,691.75,532,695.75,528,691.75,532,700.75" style="stroke:#181818;stroke-width:1.0;"/></g><!--link boundaries to controllers--><g id="link_boundaries_controllers"><path codeLine="55" d="M460,220.5361 C460,220.8165 460,221.0974 460,221.379 C460,230.3876 460,239.9572 460,249.5263 C460,251.9185 460,254.3107 460,256.6942 C460,257.29 460,257.8853 460,258.4799 C460,258.7773 460,259.0744 460,259.3713 C460,259.5198 460,253.6682 460,253.8166 " fill="none" id="boundaries-to-controllers-1" style="stroke:#181818;stroke-width:1.0;"/><polygon fill="#181818" points="460,259.8166,464,250.8166,460,254.8166,456,250.8166,460,259.8166" style="stroke:#181818;stroke-width:1.0;"/></g><!--link controllers to entities--><g id="link_controllers_entities"><path codeLine="56" d="M460,380.5361 C460,380.8165 460,381.0974 460,381.379 C460,390.3876 460,399.9572 460,409.5263 C460,411.9185 460,414.3107 460,416.6942 C460,417.29 460,417.8853 460,418.4799 C460,418.7773 460,419.0744 460,419.3713 C460,419.5198 460,413.6682 460,413.8166 " fill="none" id="controllers-to-entities-1" style="stroke:#181818;stroke-width:1.0;"/><polygon fill="#181818" points="460,419.8166,464,410.8166,460,414.8166,456,410.8166,460,419.8166" style="stroke:#181818;stroke-width:1.0;"/></g><!--link measurement to metadata--><g id="link_measurement_metadata"><path codeLine="70" d="M171,516.24 C171,534.18 171,551.99 171,569.89 " fill="none" id="measurement-to-metadata" style="stroke:#181818;stroke-width:1.0;"/><polygon fill="#181818" points="171,575.89,175,566.89,171,570.89,167,566.89,171,575.89" style="stroke:#181818;stroke-width:1.0;"/></g><!--link boundaries to controllers--><g id="link_boundaries_controllers"><path codeLine="73" d="M70,220.5361 C70,220.8165 70,221.0974 70,221.379 C70,230.3876 70,239.9572 70,249.5263 C70,251.9185 70,254.3107 70,256.6942 C70,257.29 70,257.8853 70,258.4799 C70,258.7773 70,259.0744 70,259.3713 C70,259.5198 70,253.6682 70,253.8166 " fill="none" id="boundaries-to-controllers-2" style="stroke:#181818;stroke-width:1.0;"/><polygon fill="#181818" points="70,259.8166,74,250.8166,70,254.8166,66,250.8166,70,259.8166" style="stroke:#181818;stroke-width:1.0;"/></g><!--link controllers to entities--><g id="link_controllers_entities"><path codeLine="74" d="M70,380.5361 C70,380.8165 70,381.0974 70,381.379 C70,390.3876 70,399.9572 70,409.5263 C70,411.9185 70,414.3107 70,416.6942 C70,417.29 70,417.8853 70,418.4799 C70,418.7773 70,419.0744 70,419.3713 C70,419.5198 70,413.6682 70,413.8166 " fill="none" id="controllers-to-entities-2" style="stroke:#181818;stroke-width:1.0;"/><polygon fill="#181818" points="70,419.8166,74,410.8166,70,414.8166,66,410.8166,70,419.8166" style="stroke:#181818;stroke-width:1.0;"/></g><!--SRC=[hLIxSiCW4Epv2dMff4aAjVcLp4N2Dh5u3C9saT6_HoyyW3XWagZnoBkizkxsU1clJ2ZGmAjUiUgjVIL4GNU5CwtedVPWeFecrVm4_pPZ1sA7CBZvb3VHWsPqT9WkUnEP48mF8RRow_SLUm9JsaGdXT5o6AZ6NDndY4dnmK4f9ixkHpFQL1XcyF9ERA01XDHApKsLCVssuyJPfp15J3N88z5xNUkeU_aGI-yNhmbuDXYPsOwkhd1uiHBfFHQgUbECpZf-s0t3uRIT9d5Q48vz_WscYZ3ouNzAeGEyj25epspMBsr1KAsV_1uO3M8yISs39VZphbWBcNN1w4tn7g4ApaNsImLE3MHLl4rOs1ww7hUerIE9l4UYv8OsCbbK0Wj-M6Sg-vp2UDEK-nTBWfNV0K-o94gk-lya-aioKPnaz_EPD2Eb-HIRAHztZnxo4hcZCwrtvutqBoc5PIVMZ3q_4_a1]--></g></svg>