<?xml version="1.0" encoding="us-ascii" standalone="no"?><svg xmlns="http://www.w3.org/2000/svg" xmlns:xlink="http://www.w3.org/1999/xlink" contentStyleType="text/css" height="521px" preserveAspectRatio="none" style="width:782px;height:521px;background:#FFFFFF;" version="1.1" viewBox="0 0 782 521" width="782px" zoomAndPan="magnify"><defs/><g><!--cluster evefile--><g id="cluster_evefile"><path d="M248,6 L304,6 A3.75,3.75 0 0 1 306.5,8.5 L313.5,28.2969 L547,28.2969 A2.5,2.5 0 0 1 549.5,30.7969 L549.5,236.5 A2.5,2.5 0 0 1 547,239 L248,239 A2.5,2.5 0 0 1 245.5,236.5 L245.5,8.5 A2.5,2.5 0 0 1 248,6 " fill="none" style="stroke:#000000;stroke-width:1.5;"/><line style="stroke:#000000;stroke-width:1.5;" x1="245.5" x2="313.5" y1="28.2969" y2="28.2969"/><text fill="#000000" font-family="sans-serif" font-size="14" font-weight="bold" lengthAdjust="spacing" textLength="55" x="249.5" y="20.9951">evefile</text></g><!--cluster entities--><g id="cluster_entities"><path d="M272,49 L335,49 A3.75,3.75 0 0 1 337.5,51.5 L344.5,71.2969 L523,71.2969 A2.5,2.5 0 0 1 525.5,73.7969 L525.5,212.5 A2.5,2.5 0 0 1 523,215 L272,215 A2.5,2.5 0 0 1 269.5,212.5 L269.5,51.5 A2.5,2.5 0 0 1 272,49 " fill="none" style="stroke:#000000;stroke-width:1.5;"/><line style="stroke:#000000;stroke-width:1.5;" x1="269.5" x2="344.5" y1="71.2969" y2="71.2969"/><text fill="#000000" font-family="sans-serif" font-size="14" font-weight="bold" lengthAdjust="spacing" textLength="62" x="273.5" y="63.9951">entities</text></g><!--cluster file--><g id="cluster_file"><path d="M296,92 L323,92 A3.75,3.75 0 0 1 325.5,94.5 L332.5,114.2969 L499,114.2969 A2.5,2.5 0 0 1 501.5,116.7969 L501.5,188.5 A2.5,2.5 0 0 1 499,191 L296,191 A2.5,2.5 0 0 1 293.5,188.5 L293.5,94.5 A2.5,2.5 0 0 1 296,92 " fill="none" style="stroke:#000000;stroke-width:1.5;"/><line style="stroke:#000000;stroke-width:1.5;" x1="293.5" x2="332.5" y1="114.2969" y2="114.2969"/><text fill="#000000" font-family="sans-serif" font-size="14" font-weight="bold" lengthAdjust="spacing" textLength="26" x="297.5" y="106.9951">file</text></g><!--class Scan--><g id="elem_Scan"><rect codeLine="26" fill="#F1F1F1" height="48" id="Scan" rx="2.5" ry="2.5" style="stroke:#181818;stroke-width:0.5;" width="67" x="418" y="127"/><ellipse cx="433" cy="143" fill="#ADD1B2" rx="11" ry="11" style="stroke:#181818;stroke-width:1.0;"/><path d="M435.9688,148.6406 Q435.3906,148.9375 434.75,149.0781 Q434.1094,149.2344 433.4063,149.2344 Q430.9063,149.2344 429.5781,147.5938 Q428.2656,145.9375 428.2656,142.8125 Q428.2656,139.6875 429.5781,138.0313 Q430.9063,136.375 433.4063,136.375 Q434.1094,136.375 434.75,136.5313 Q435.4063,136.6875 435.9688,136.9844 L435.9688,139.7031 Q435.3438,139.125 434.75,138.8594 Q434.1563,138.5781 433.5313,138.5781 Q432.1875,138.5781 431.5,139.6563 Q430.8125,140.7188 430.8125,142.8125 Q430.8125,144.9063 431.5,145.9844 Q432.1875,147.0469 433.5313,147.0469 Q434.1563,147.0469 434.75,146.7813 Q435.3438,146.5 435.9688,145.9219 L435.9688,148.6406 Z " fill="#000000"/><text fill="#000000" font-family="sans-serif" font-size="14" lengthAdjust="spacing" textLength="35" x="447" y="147.8467">Scan</text><line style="stroke:#181818;stroke-width:0.5;" x1="419" x2="484" y1="159" y2="159"/><line style="stroke:#181818;stroke-width:0.5;" x1="419" x2="484" y1="167" y2="167"/></g><!--class Setup--><g id="elem_Setup"><rect codeLine="29" fill="#F1F1F1" height="48" id="Setup" rx="2.5" ry="2.5" style="stroke:#181818;stroke-width:0.5;" width="73" x="310" y="127"/><ellipse cx="325" cy="143" fill="#ADD1B2" rx="11" ry="11" style="stroke:#181818;stroke-width:1.0;"/><path d="M327.9688,148.6406 Q327.3906,148.9375 326.75,149.0781 Q326.1094,149.2344 325.4063,149.2344 Q322.9063,149.2344 321.5781,147.5938 Q320.2656,145.9375 320.2656,142.8125 Q320.2656,139.6875 321.5781,138.0313 Q322.9063,136.375 325.4063,136.375 Q326.1094,136.375 326.75,136.5313 Q327.4063,136.6875 327.9688,136.9844 L327.9688,139.7031 Q327.3438,139.125 326.75,138.8594 Q326.1563,138.5781 325.5313,138.5781 Q324.1875,138.5781 323.5,139.6563 Q322.8125,140.7188 322.8125,142.8125 Q322.8125,144.9063 323.5,145.9844 Q324.1875,147.0469 325.5313,147.0469 Q326.1563,147.0469 326.75,146.7813 Q327.3438,146.5 327.9688,145.9219 L327.9688,148.6406 Z " fill="#000000"/><text fill="#000000" font-family="sans-serif" font-size="14" lengthAdjust="spacing" textLength="41" x="339" y="147.8467">Setup</text><line style="stroke:#181818;stroke-width:0.5;" x1="311" x2="382" y1="159" y2="159"/><line style="stroke:#181818;stroke-width:0.5;" x1="311" x2="382" y1="167" y2="167"/></g><!--class Measurement--><g id="elem_Measurement"><rect codeLine="3" fill="#F1F1F1" height="178.375" id="Measurement" rx="2.5" ry="2.5" style="stroke:#181818;stroke-width:0.5;" width="223" x="7" y="62"/><ellipse cx="65.25" cy="78" fill="#ADD1B2" rx="11" ry="11" style="stroke:#181818;stroke-width:1.0;"/><path d="M68.2188,83.6406 Q67.6406,83.9375 67,84.0781 Q66.3594,84.2344 65.6563,84.2344 Q63.1563,84.2344 61.8281,82.5938 Q60.5156,80.9375 60.5156,77.8125 Q60.5156,74.6875 61.8281,73.0313 Q63.1563,71.375 65.6563,71.375 Q66.3594,71.375 67,71.5313 Q67.6563,71.6875 68.2188,71.9844 L68.2188,74.7031 Q67.5938,74.125 67,73.8594 Q66.4063,73.5781 65.7813,73.5781 Q64.4375,73.5781 63.75,74.6563 Q63.0625,75.7188 63.0625,77.8125 Q63.0625,79.9063 63.75,80.9844 Q64.4375,82.0469 65.7813,82.0469 Q66.4063,82.0469 67,81.7813 Q67.5938,81.5 68.2188,80.9219 L68.2188,83.6406 Z " fill="#000000"/><text fill="#000000" font-family="sans-serif" font-size="14" lengthAdjust="spacing" textLength="98" x="85.75" y="82.8467">Measurement</text><line style="stroke:#181818;stroke-width:0.5;" x1="8" x2="229" y1="94" y2="94"/><text fill="#000000" font-family="sans-serif" font-size="14" lengthAdjust="spacing" textLength="191" x="13" y="110.9951">detectors{} : ChannelData</text><text fill="#000000" font-family="sans-serif" font-size="14" lengthAdjust="spacing" textLength="144" x="13" y="127.292">motors{} : AxisData</text><text fill="#000000" font-family="sans-serif" font-size="14" lengthAdjust="spacing" textLength="176" x="13" y="143.5889">machine{} : DeviceData</text><text fill="#000000" font-family="sans-serif" font-size="14" lengthAdjust="spacing" textLength="181" x="13" y="159.8857">beamline{} : DeviceData</text><text fill="#000000" font-family="sans-serif" font-size="14" lengthAdjust="spacing" textLength="149" x="13" y="176.1826">metadata : Metadata</text><text fill="#000000" font-family="sans-serif" font-size="14" lengthAdjust="spacing" textLength="81" x="13" y="192.4795">scan : Scan</text><text fill="#000000" font-family="sans-serif" font-size="14" lengthAdjust="spacing" textLength="93" x="13" y="208.7764">setup : Setup</text><text fill="#000000" font-family="sans-serif" font-size="14" lengthAdjust="spacing" textLength="211" x="13" y="225.0732">log_messages[] : LogMessage</text><line style="stroke:#181818;stroke-width:0.5;" x1="8" x2="229" y1="232.375" y2="232.375"/></g><!--class Metadata--><g id="elem_Metadata"><rect codeLine="18" fill="#F1F1F1" height="48" id="Metadata" rx="2.5" ry="2.5" style="stroke:#181818;stroke-width:0.5;" width="99" x="69" y="340.5"/><ellipse cx="84" cy="356.5" fill="#ADD1B2" rx="11" ry="11" style="stroke:#181818;stroke-width:1.0;"/><path d="M86.9688,362.1406 Q86.3906,362.4375 85.75,362.5781 Q85.1094,362.7344 84.4063,362.7344 Q81.9063,362.7344 80.5781,361.0938 Q79.2656,359.4375 79.2656,356.3125 Q79.2656,353.1875 80.5781,351.5313 Q81.9063,349.875 84.4063,349.875 Q85.1094,349.875 85.75,350.0313 Q86.4063,350.1875 86.9688,350.4844 L86.9688,353.2031 Q86.3438,352.625 85.75,352.3594 Q85.1563,352.0781 84.5313,352.0781 Q83.1875,352.0781 82.5,353.1563 Q81.8125,354.2188 81.8125,356.3125 Q81.8125,358.4063 82.5,359.4844 Q83.1875,360.5469 84.5313,360.5469 Q85.1563,360.5469 85.75,360.2813 Q86.3438,360 86.9688,359.4219 L86.9688,362.1406 Z " fill="#000000"/><text fill="#000000" font-family="sans-serif" font-size="14" lengthAdjust="spacing" textLength="67" x="98" y="361.3467">Metadata</text><line style="stroke:#181818;stroke-width:0.5;" x1="70" x2="167" y1="372.5" y2="372.5"/><line style="stroke:#181818;stroke-width:0.5;" x1="70" x2="167" y1="380.5" y2="380.5"/></g><!--class Scan--><g id="elem_Scan"><rect codeLine="32" fill="#F1F1F1" height="48" id="Scan" rx="2.5" ry="2.5" style="stroke:#181818;stroke-width:0.5;" width="67" x="365" y="340.5"/><ellipse cx="380" cy="356.5" fill="#ADD1B2" rx="11" ry="11" style="stroke:#181818;stroke-width:1.0;"/><path d="M382.9688,362.1406 Q382.3906,362.4375 381.75,362.5781 Q381.1094,362.7344 380.4063,362.7344 Q377.9063,362.7344 376.5781,361.0938 Q375.2656,359.4375 375.2656,356.3125 Q375.2656,353.1875 376.5781,351.5313 Q377.9063,349.875 380.4063,349.875 Q381.1094,349.875 381.75,350.0313 Q382.4063,350.1875 382.9688,350.4844 L382.9688,353.2031 Q382.3438,352.625 381.75,352.3594 Q381.1563,352.0781 380.5313,352.0781 Q379.1875,352.0781 378.5,353.1563 Q377.8125,354.2188 377.8125,356.3125 Q377.8125,358.4063 378.5,359.4844 Q379.1875,360.5469 380.5313,360.5469 Q381.1563,360.5469 381.75,360.2813 Q382.3438,360 382.9688,359.4219 L382.9688,362.1406 Z " fill="#000000"/><text fill="#000000" font-family="sans-serif" font-size="14" lengthAdjust="spacing" textLength="35" x="394" y="361.3467">Scan</text><line style="stroke:#181818;stroke-width:0.5;" x1="366" x2="431" y1="372.5" y2="372.5"/><line style="stroke:#181818;stroke-width:0.5;" x1="366" x2="431" y1="380.5" y2="380.5"/></g><!--class Setup--><g id="elem_Setup"><rect codeLine="34" fill="#F1F1F1" height="48" id="Setup" rx="2.5" ry="2.5" style="stroke:#181818;stroke-width:0.5;" width="73" x="230" y="340.5"/><ellipse cx="245" cy="356.5" fill="#ADD1B2" rx="11" ry="11" style="stroke:#181818;stroke-width:1.0;"/><path d="M247.9688,362.1406 Q247.3906,362.4375 246.75,362.5781 Q246.1094,362.7344 245.4063,362.7344 Q242.9063,362.7344 241.5781,361.0938 Q240.2656,359.4375 240.2656,356.3125 Q240.2656,353.1875 241.5781,351.5313 Q242.9063,349.875 245.4063,349.875 Q246.1094,349.875 246.75,350.0313 Q247.4063,350.1875 247.9688,350.4844 L247.9688,353.2031 Q247.3438,352.625 246.75,352.3594 Q246.1563,352.0781 245.5313,352.0781 Q244.1875,352.0781 243.5,353.1563 Q242.8125,354.2188 242.8125,356.3125 Q242.8125,358.4063 243.5,359.4844 Q244.1875,360.5469 245.5313,360.5469 Q246.1563,360.5469 246.75,360.2813 Q247.3438,360 247.9688,359.4219 L247.9688,362.1406 Z " fill="#000000"/><text fill="#000000" font-family="sans-serif" font-size="14" lengthAdjust="spacing" textLength="41" x="259" y="361.3467">Setup</text><line style="stroke:#181818;stroke-width:0.5;" x1="231" x2="302" y1="372.5" y2="372.5"/><line style="stroke:#181818;stroke-width:0.5;" x1="231" x2="302" y1="380.5" y2="380.5"/></g><g id="elem_GMN9"><path d="M34.5,489 L34.5,514.1328 A0,0 0 0 0 34.5,514.1328 L202.5,514.1328 A0,0 0 0 0 202.5,514.1328 L202.5,499 L192.5,489 L122.5,489 L118.5,388.71 L114.5,489 L34.5,489 A0,0 0 0 0 34.5,489 " fill="#FEFFDD" style="stroke:#181818;stroke-width:0.5;"/><path d="M192.5,489 L192.5,499 L202.5,499 L192.5,489 " fill="#FEFFDD" style="stroke:#181818;stroke-width:0.5;"/><text fill="#000000" font-family="sans-serif" font-size="13" lengthAdjust="spacing" textLength="147" x="40.5" y="506.0669">See separate diagram.</text></g><!--class Data--><g id="elem_Data"><rect codeLine="36" fill="#F1F1F1" height="96.8906" id="Data" rx="2.5" ry="2.5" style="stroke:#181818;stroke-width:0.5;" width="210" x="565.5" y="102.5"/><ellipse cx="649.25" cy="118.5" fill="#ADD1B2" rx="11" ry="11" style="stroke:#181818;stroke-width:1.0;"/><path d="M652.2188,124.1406 Q651.6406,124.4375 651,124.5781 Q650.3594,124.7344 649.6563,124.7344 Q647.1563,124.7344 645.8281,123.0938 Q644.5156,121.4375 644.5156,118.3125 Q644.5156,115.1875 645.8281,113.5313 Q647.1563,111.875 649.6563,111.875 Q650.3594,111.875 651,112.0313 Q651.6563,112.1875 652.2188,112.4844 L652.2188,115.2031 Q651.5938,114.625 651,114.3594 Q650.4063,114.0781 649.7813,114.0781 Q648.4375,114.0781 647.75,115.1563 Q647.0625,116.2188 647.0625,118.3125 Q647.0625,120.4063 647.75,121.4844 Q648.4375,122.5469 649.7813,122.5469 Q650.4063,122.5469 651,122.2813 Q651.5938,122 652.2188,121.4219 L652.2188,124.1406 Z " fill="#000000"/><text fill="#000000" font-family="sans-serif" font-size="14" lengthAdjust="spacing" textLength="34" x="669.75" y="123.3467">Data</text><line style="stroke:#181818;stroke-width:0.5;" x1="566.5" x2="774.5" y1="134.5" y2="134.5"/><text fill="#000000" font-family="sans-serif" font-size="14" lengthAdjust="spacing" textLength="123" x="571.5" y="151.4951">data : np.ndarray</text><text fill="#000000" font-family="sans-serif" font-size="14" lengthAdjust="spacing" textLength="115" x="571.5" y="167.792">axes[]: AxisData</text><text fill="#000000" font-family="sans-serif" font-size="14" lengthAdjust="spacing" textLength="198" x="571.5" y="184.0889">metadata : DeviceMetadata</text><line style="stroke:#181818;stroke-width:0.5;" x1="566.5" x2="774.5" y1="191.3906" y2="191.3906"/></g><!--class Axis--><g id="elem_Axis"><rect codeLine="42" fill="#F1F1F1" height="129.4844" id="Axis" rx="2.5" ry="2.5" style="stroke:#181818;stroke-width:0.5;" width="135" x="603" y="300"/><ellipse cx="651.75" cy="316" fill="#ADD1B2" rx="11" ry="11" style="stroke:#181818;stroke-width:1.0;"/><path d="M654.7188,321.6406 Q654.1406,321.9375 653.5,322.0781 Q652.8594,322.2344 652.1563,322.2344 Q649.6563,322.2344 648.3281,320.5938 Q647.0156,318.9375 647.0156,315.8125 Q647.0156,312.6875 648.3281,311.0313 Q649.6563,309.375 652.1563,309.375 Q652.8594,309.375 653.5,309.5313 Q654.1563,309.6875 654.7188,309.9844 L654.7188,312.7031 Q654.0938,312.125 653.5,311.8594 Q652.9063,311.5781 652.2813,311.5781 Q650.9375,311.5781 650.25,312.6563 Q649.5625,313.7188 649.5625,315.8125 Q649.5625,317.9063 650.25,318.9844 Q650.9375,320.0469 652.2813,320.0469 Q652.9063,320.0469 653.5,319.7813 Q654.0938,319.5 654.7188,318.9219 L654.7188,321.6406 Z " fill="#000000"/><text fill="#000000" font-family="sans-serif" font-size="14" lengthAdjust="spacing" textLength="29" x="672.25" y="320.8467">Axis</text><line style="stroke:#181818;stroke-width:0.5;" x1="604" x2="737" y1="332" y2="332"/><text fill="#000000" font-family="sans-serif" font-size="14" lengthAdjust="spacing" textLength="123" x="609" y="348.9951">data : np.ndarray</text><text fill="#000000" font-family="sans-serif" font-size="14" lengthAdjust="spacing" textLength="84" x="609" y="365.292">label: string</text><text fill="#000000" font-family="sans-serif" font-size="14" lengthAdjust="spacing" textLength="116" x="609" y="381.5889">measure : string</text><text fill="#000000" font-family="sans-serif" font-size="14" lengthAdjust="spacing" textLength="104" x="609" y="397.8857">symbol : string</text><text fill="#000000" font-family="sans-serif" font-size="14" lengthAdjust="spacing" textLength="80" x="609" y="414.1826">unit : string</text><line style="stroke:#181818;stroke-width:0.5;" x1="604" x2="737" y1="421.4844" y2="421.4844"/></g><!--reverse link Measurement to Metadata--><g id="link_Measurement_Metadata"><path codeLine="14" d="M118.5,252.16 C118.5,288.66 118.5,316.03 118.5,340.23 " fill="none" id="Measurement-backto-Metadata" style="stroke:#181818;stroke-width:1.0;"/><polygon fill="#181818" points="118.5,240.16,114.5,246.16,118.5,252.16,122.5,246.16,118.5,240.16" style="stroke:#181818;stroke-width:1.0;"/></g><!--reverse link Measurement to Scan--><g id="link_Measurement_Scan"><path codeLine="15" d="M239.8079,239.3149 C269.4079,261.0149 291.52,277.61 320.5,300 C337.36,313.02 355.86,328.06 370.62,340.22 " fill="none" id="Measurement-backto-Scan" style="stroke:#181818;stroke-width:1.0;"/><polygon fill="#181818" points="230.13,232.22,232.604,238.9934,239.8079,239.3149,237.3339,232.5415,230.13,232.22" style="stroke:#181818;stroke-width:1.0;"/></g><!--reverse link Measurement to Setup--><g id="link_Measurement_Setup"><path codeLine="16" d="M187.0697,249.992 C212.6097,286.492 233.28,316.03 250.22,340.23 " fill="none" id="Measurement-backto-Setup" style="stroke:#181818;stroke-width:1.0;"/><polygon fill="#181818" points="180.19,240.16,180.3525,247.3693,187.0697,249.992,186.9072,242.7828,180.19,240.16" style="stroke:#181818;stroke-width:1.0;"/></g><!--reverse link Scan to Scan--><g id="link_Scan_Scan"><path d="M441.3522,192.4995 C431.1522,233.1795 414.46,299.83 404.27,340.49 " fill="none" id="Scan-backto-Scan" style="stroke:#181818;stroke-width:1.0;"/><polygon fill="none" points="445.73,175.04,435.5324,191.0403,447.1721,193.9588,445.73,175.04" style="stroke:#181818;stroke-width:1.0;"/></g><!--reverse link Setup to Setup--><g id="link_Setup_Setup"><path d="M331.4208,191.8755 C316.0308,232.5555 290.58,299.83 275.2,340.49 " fill="none" id="Setup-backto-Setup" style="stroke:#181818;stroke-width:1.0;"/><polygon fill="none" points="337.79,175.04,325.809,189.7524,337.0327,193.9985,337.79,175.04" style="stroke:#181818;stroke-width:1.0;"/></g><!--reverse link Data to Axis--><g id="link_Data_Axis"><path codeLine="50" d="M670.5,211.73 C670.5,241.33 670.5,267.73 670.5,299.9 " fill="none" id="Data-backto-Axis" style="stroke:#181818;stroke-width:1.0;"/><polygon fill="#181818" points="670.5,199.73,666.5,205.73,670.5,211.73,674.5,205.73,670.5,199.73" style="stroke:#181818;stroke-width:1.0;"/><text fill="#000000" font-family="sans-serif" font-size="13" lengthAdjust="spacing" textLength="8" x="662.0625" y="289.0617">n</text></g><!--SRC=[XLBBRi8m4BpxAomkbIgHtBbLvLXE755LRP8bMF8ZycuG2F7ljJTf0bIbkJWxCzxPXryEp1sjohApuBbtjgY3AsiBHCl6G1l1AIMXtY1G7z6XPtrHEdqDCjOS8bskUgNV3-0zsZKm2El2HBsT3Cqur0VZKOWr7asD4rKXEFi7vv2XIK5YDkElu5I3JzWs7KECt7SPoASWDhHV3ecWHTfz9keZj9iXLbUbRljwNIxdx8-4MFm2nMOQqLZZ9IVsWL5NWJau7VRtLMyHKwKTH4YQST25Gj_aI-ed7nvnRomMoSomGIeaodKC3azLCeSRcLp34oUJPvadkTp_Ht_R_7feN1x6i2VV5Rw16E4iA9po_1zVmxpMOU7JcAR2i_vfOWiLsfKcZiQtOrRPahu3wUogOE-ntXkUaMGfNQJ5Bln2ZDKt]--></g></svg>