<?xml version="1.0" encoding="us-ascii" standalone="no"?><svg xmlns="http://www.w3.org/2000/svg" xmlns:xlink="http://www.w3.org/1999/xlink" contentStyleType="text/css" height="471px" preserveAspectRatio="none" style="width:296px;height:471px;background:#FFFFFF;" version="1.1" viewBox="0 0 296 471" width="296px" zoomAndPan="magnify"><defs/><g><!--cluster evedata--><g id="cluster_evedata"><path d="M46.5,131 L99.5,131 A3.75,3.75 0 0 1 102,133.5 L109,153.4063 L259.5,153.4063 A2.5,2.5 0 0 1 262,155.9063 L262,317.5 A2.5,2.5 0 0 1 259.5,320 L46.5,320 A2.5,2.5 0 0 1 44,317.5 L44,133.5 A2.5,2.5 0 0 1 46.5,131 " fill="none" style="stroke:#000000;stroke-width:1.5;"/><line style="stroke:#000000;stroke-width:1.5;" x1="44" x2="109" y1="153.4063" y2="153.4063"/><text fill="#000000" font-family="sans-serif" font-size="14" font-weight="bold" lengthAdjust="spacing" textLength="52" x="48" y="145.9883">evedata</text></g><!--entity evedata.evefile--><g id="elem_evedata.evefile"><path d="M84.5,166 L197.5,166 A3.75,3.75 0 0 1 200,168.5 L207,188.4063 L221.5,188.4063 A2.5,2.5 0 0 1 224,190.9063 L224,202.9063 A2.5,2.5 0 0 1 221.5,205.4063 L84.5,205.4063 A2.5,2.5 0 0 1 82,202.9063 L82,168.5 A2.5,2.5 0 0 1 84.5,166 " fill="#F1F1F1" style="stroke:#181818;stroke-width:0.5;"/><line style="stroke:#181818;stroke-width:0.5;" x1="82" x2="207" y1="188.4063" y2="188.4063"/><text fill="#000000" font-family="sans-serif" font-size="14" font-weight="bold" lengthAdjust="spacing" textLength="100" x="92" y="181.9883">evedata.evefile</text></g><!--entity evedata.measurement--><g id="elem_evedata.measurement"><path d="M62,265 L220,265 A3.75,3.75 0 0 1 222.5,267.5 L229.5,287.4063 L244,287.4063 A2.5,2.5 0 0 1 246.5,289.9063 L246.5,301.9063 A2.5,2.5 0 0 1 244,304.4063 L62,304.4063 A2.5,2.5 0 0 1 59.5,301.9063 L59.5,267.5 A2.5,2.5 0 0 1 62,265 " fill="#F1F1F1" style="stroke:#181818;stroke-width:0.5;"/><line style="stroke:#181818;stroke-width:0.5;" x1="59.5" x2="229.5" y1="287.4063" y2="287.4063"/><text fill="#000000" font-family="sans-serif" font-size="14" font-weight="bold" lengthAdjust="spacing" textLength="145" x="69.5" y="280.9883">evedata.measurement</text></g><!--entity eveH5--><g id="elem_eveH5"><path d="M56,6 L110,6 A3.75,3.75 0 0 1 112.5,8.5 L119.5,28.4063 L134,28.4063 A2.5,2.5 0 0 1 136.5,30.9063 L136.5,42.9063 A2.5,2.5 0 0 1 134,45.4063 L56,45.4063 A2.5,2.5 0 0 1 53.5,42.9063 L53.5,8.5 A2.5,2.5 0 0 1 56,6 " fill="#FFF9C4" style="stroke:#181818;stroke-width:0.5;"/><line style="stroke:#181818;stroke-width:0.5;" x1="53.5" x2="119.5" y1="28.4063" y2="28.4063"/><text fill="#000000" font-family="sans-serif" font-size="14" font-weight="bold" lengthAdjust="spacing" textLength="41" x="63.5" y="21.9883">eveH5</text></g><!--entity SCML--><g id="elem_SCML"><path d="M174.5,6 L225.5,6 A3.75,3.75 0 0 1 228,8.5 L235,28.4063 L249.5,28.4063 A2.5,2.5 0 0 1 252,30.9063 L252,42.9063 A2.5,2.5 0 0 1 249.5,45.4063 L174.5,45.4063 A2.5,2.5 0 0 1 172,42.9063 L172,8.5 A2.5,2.5 0 0 1 174.5,6 " fill="#FFF9C4" style="stroke:#181818;stroke-width:0.5;"/><line style="stroke:#181818;stroke-width:0.5;" x1="172" x2="235" y1="28.4063" y2="28.4063"/><text fill="#000000" font-family="sans-serif" font-size="14" font-weight="bold" lengthAdjust="spacing" textLength="38" x="182" y="21.9883">SCML</text></g><!--entity evedataviewer--><g id="elem_evedataviewer"><path d="M8.5,425 L115.5,425 A3.75,3.75 0 0 1 118,427.5 L125,447.4063 L139.5,447.4063 A2.5,2.5 0 0 1 142,449.9063 L142,461.9063 A2.5,2.5 0 0 1 139.5,464.4063 L8.5,464.4063 A2.5,2.5 0 0 1 6,461.9063 L6,427.5 A2.5,2.5 0 0 1 8.5,425 " fill="#FFF9C4" style="stroke:#181818;stroke-width:0.5;"/><line style="stroke:#181818;stroke-width:0.5;" x1="6" x2="125" y1="447.4063" y2="447.4063"/><text fill="#000000" font-family="sans-serif" font-size="14" font-weight="bold" lengthAdjust="spacing" textLength="94" x="16" y="440.9883">evedataviewer</text></g><!--entity radiometry--><g id="elem_radiometry"><path d="M179.5,425 L262.5,425 A3.75,3.75 0 0 1 265,427.5 L272,447.4063 L286.5,447.4063 A2.5,2.5 0 0 1 289,449.9063 L289,461.9063 A2.5,2.5 0 0 1 286.5,464.4063 L179.5,464.4063 A2.5,2.5 0 0 1 177,461.9063 L177,427.5 A2.5,2.5 0 0 1 179.5,425 " fill="#FFF9C4" style="stroke:#181818;stroke-width:0.5;"/><line style="stroke:#181818;stroke-width:0.5;" x1="177" x2="272" y1="447.4063" y2="447.4063"/><text fill="#000000" font-family="sans-serif" font-size="14" font-weight="bold" lengthAdjust="spacing" textLength="70" x="187" y="440.9883">radiometry</text></g><!--reverse link evedata.evefile to evedata.measurement--><g id="link_evedata.evefile_evedata.measurement"><path d="M153,211.2 C153,228.38 153,247.7 153,264.85 " fill="none" id="evedata.evefile-backto-evedata.measurement" style="stroke:#181818;stroke-width:1.0;"/><polygon fill="#181818" points="153,205.2,149,214.2,153,210.2,157,214.2,153,205.2" style="stroke:#181818;stroke-width:1.0;"/></g><!--link eveH5 to evedata.evefile--><g id="link_eveH5_evedata.evefile"><path d="M101.88,45.25 C113.04,75.65 134.97,135.39 146.13,165.78 " fill="none" id="eveH5-evedata.evefile" style="stroke:#181818;stroke-width:1.0;"/><path d="M119.804,114.5935 A10,10 0 0 0 133.0798 109.7198" fill="none" style="stroke:#181818;stroke-width:1.5;"/><ellipse cx="124.005" cy="105.5187" fill="#FFFFFF" rx="6" ry="6" style="stroke:#181818;stroke-width:1.5;"/></g><!--link SCML to evedata.evefile--><g id="link_SCML_evedata.evefile"><path d="M205,45.25 C193.65,75.65 171.34,135.39 159.99,165.78 " fill="none" id="SCML-evedata.evefile" style="stroke:#181818;stroke-width:1.0;"/><path d="M173.397,109.6692 A10,10 0 0 0 186.6455 114.6167" fill="none" style="stroke:#181818;stroke-width:1.5;"/><ellipse cx="182.495" cy="105.5187" fill="#FFFFFF" rx="6" ry="6" style="stroke:#181818;stroke-width:1.5;"/></g><!--link evedata.measurement to evedataviewer--><g id="link_evedata.measurement_evedataviewer"><path d="M143.63,304.25 C128.42,334.65 98.56,394.39 83.36,424.78 " fill="none" id="evedata.measurement-evedataviewer" style="stroke:#181818;stroke-width:1.0;"/><path d="M122.978,361.3563 A10,10 0 0 0 110.3288 355.032" fill="none" style="stroke:#181818;stroke-width:1.5;"/><ellipse cx="113.4913" cy="364.5188" fill="#FFFFFF" rx="6" ry="6" style="stroke:#181818;stroke-width:1.5;"/></g><!--link evedata.measurement to radiometry--><g id="link_evedata.measurement_radiometry"><path d="M162.49,304.25 C177.89,334.65 208.13,394.39 223.52,424.78 " fill="none" id="evedata.measurement-radiometry" style="stroke:#181818;stroke-width:1.0;"/><path d="M196.1233,355.0161 A10,10 0 0 0 183.5061 361.4042" fill="none" style="stroke:#181818;stroke-width:1.5;"/><ellipse cx="193.0088" cy="364.5188" fill="#FFFFFF" rx="6" ry="6" style="stroke:#181818;stroke-width:1.5;"/></g><!--SRC=[Ko_EpimhI2nAp5L8ASXKC3GruE8gI4pEJanFLKWjIqr9B4bKgERYKW02D64z89sMcPCAb0R9rc9Nb9kQM5nQb9gRcbU2gX3T51jTNMoQkBXgKHpaOQgWd9QMPfbimWNXwHfe8kc4ceRG4kpiwmFN0UOGq02LACjCBKyjGhOBmpkwkXe6kgZg4SOK9QPavkUcbXHL4c46GZ4N0000]--></g></svg>