<?xml version="1.0" encoding="us-ascii" standalone="no"?><svg xmlns="http://www.w3.org/2000/svg" xmlns:xlink="http://www.w3.org/1999/xlink" contentStyleType="text/css" height="852px" preserveAspectRatio="none" style="width:2172px;height:852px;background:#FFFFFF;" version="1.1" viewBox="0 0 2172 852" width="2172px" zoomAndPan="magnify"><defs/><g><!--class Data--><g id="elem_Data"><rect codeLine="3" fill="#F1F1F1" height="129.4844" id="Data" rx="2.5" ry="2.5" style="stroke:#181818;stroke-width:0.5;" width="208" x="776.5" y="27"/><ellipse cx="859.25" cy="43" fill="#ADD1B2" rx="11" ry="11" style="stroke:#181818;stroke-width:1.0;"/><path d="M862.2344,48.6406 Q861.6563,48.9375 861.0156,49.0781 Q860.375,49.2344 859.6719,49.2344 Q857.1563,49.2344 855.8281,47.5938 Q854.5156,45.9375 854.5156,42.8125 Q854.5156,39.6719 855.8281,38.0313 Q857.1563,36.375 859.6719,36.375 Q860.375,36.375 861.0156,36.5313 Q861.6719,36.6719 862.2344,36.9688 L862.2344,39.6875 Q861.5938,39.1094 861,38.8438 Q860.4063,38.5781 859.7813,38.5781 Q858.4375,38.5781 857.75,39.6406 Q857.0625,40.7031 857.0625,42.8125 Q857.0625,44.9063 857.75,45.9844 Q858.4375,47.0469 859.7813,47.0469 Q860.4063,47.0469 861,46.7813 Q861.5938,46.5 862.2344,45.9219 L862.2344,48.6406 Z " fill="#000000"/><text fill="#000000" font-family="sans-serif" font-size="14" lengthAdjust="spacing" textLength="34" x="879.75" y="47.8467">Data</text><line style="stroke:#181818;stroke-width:0.5;" x1="777.5" x2="983.5" y1="59" y2="59"/><text fill="#000000" font-family="sans-serif" font-size="14" lengthAdjust="spacing" textLength="149" x="782.5" y="75.9951">metadata : Metadata</text><text fill="#000000" font-family="sans-serif" font-size="14" lengthAdjust="spacing" textLength="91" x="782.5" y="92.292">options : dict</text><text fill="#000000" font-family="sans-serif" font-size="14" lengthAdjust="spacing" textLength="130" x="782.5" y="108.5889">_data : np.ndarray</text><text fill="#000000" font-family="sans-serif" font-size="14" lengthAdjust="spacing" textLength="196" x="782.5" y="124.8857">_importer{} : DataImporter</text><line style="stroke:#181818;stroke-width:0.5;" x1="777.5" x2="983.5" y1="132.1875" y2="132.1875"/><text fill="#000000" font-family="sans-serif" font-size="14" lengthAdjust="spacing" textLength="42" x="782.5" y="149.1826">data()</text></g><path d="M319.5,6 L319.5,167.3281 A0,0 0 0 0 319.5,167.3281 L741.5,167.3281 A0,0 0 0 0 741.5,167.3281 L741.5,90.6641 L780.5,103.7422 L741.5,82.6641 L741.5,16 L731.5,6 L319.5,6 A0,0 0 0 0 319.5,6 " fill="#FEFFDD" style="stroke:#181818;stroke-width:0.5;"/><path d="M731.5,6 L731.5,16 L741.5,16 L731.5,6 " fill="#FEFFDD" style="stroke:#181818;stroke-width:0.5;"/><text fill="#000000" font-family="sans-serif" font-size="13" lengthAdjust="spacing" textLength="337" x="325.5" y="23.0669">"_data" usually contains a 1D array and is accessed</text><text fill="#000000" font-family="sans-serif" font-size="13" lengthAdjust="spacing" textLength="333" x="325.5" y="38.1997">via the data() getter method (Python property) that</text><text fill="#000000" font-family="sans-serif" font-size="13" lengthAdjust="spacing" textLength="331" x="325.5" y="53.3325">calls the DataImporter on first access if necessary.</text><text fill="#000000" font-family="sans-serif" font-size="13" lengthAdjust="spacing" textLength="8" x="325.5" y="68.4653">&#160;</text><text fill="#000000" font-family="sans-serif" font-size="13" lengthAdjust="spacing" textLength="322" x="325.5" y="83.5981">For individual channel values see derived classes</text><text fill="#000000" font-family="sans-serif" font-size="13" lengthAdjust="spacing" textLength="308" x="325.5" y="98.731">AverageChannelData and IntervalChannelData.</text><text fill="#000000" font-family="sans-serif" font-size="13" lengthAdjust="spacing" textLength="8" x="325.5" y="113.8638">&#160;</text><text fill="#000000" font-family="sans-serif" font-size="13" lengthAdjust="spacing" textLength="362" x="325.5" y="128.9966">ArrayChannelData and AreaChannelData are somewhat</text><text fill="#000000" font-family="sans-serif" font-size="13" lengthAdjust="spacing" textLength="401" x="325.5" y="144.1294">special as they contain either 2D data or a list of data objects</text><text fill="#000000" font-family="sans-serif" font-size="13" lengthAdjust="spacing" textLength="193" x="325.5" y="159.2622">(in case of images and alike).</text><!--class DataImporter--><g id="elem_DataImporter"><rect codeLine="23" fill="#F1F1F1" height="80.5938" id="DataImporter" rx="2.5" ry="2.5" style="stroke:#181818;stroke-width:0.5;" width="128" x="1205.5" y="51"/><ellipse cx="1220.5" cy="67" fill="#ADD1B2" rx="11" ry="11" style="stroke:#181818;stroke-width:1.0;"/><path d="M1223.4844,72.6406 Q1222.9063,72.9375 1222.2656,73.0781 Q1221.625,73.2344 1220.9219,73.2344 Q1218.4063,73.2344 1217.0781,71.5938 Q1215.7656,69.9375 1215.7656,66.8125 Q1215.7656,63.6719 1217.0781,62.0313 Q1218.4063,60.375 1220.9219,60.375 Q1221.625,60.375 1222.2656,60.5313 Q1222.9219,60.6719 1223.4844,60.9688 L1223.4844,63.6875 Q1222.8438,63.1094 1222.25,62.8438 Q1221.6563,62.5781 1221.0313,62.5781 Q1219.6875,62.5781 1219,63.6406 Q1218.3125,64.7031 1218.3125,66.8125 Q1218.3125,68.9063 1219,69.9844 Q1219.6875,71.0469 1221.0313,71.0469 Q1221.6563,71.0469 1222.25,70.7813 Q1222.8438,70.5 1223.4844,69.9219 L1223.4844,72.6406 Z " fill="#000000"/><text fill="#000000" font-family="sans-serif" font-size="14" lengthAdjust="spacing" textLength="96" x="1234.5" y="71.8467">DataImporter</text><line style="stroke:#181818;stroke-width:0.5;" x1="1206.5" x2="1332.5" y1="83" y2="83"/><text fill="#000000" font-family="sans-serif" font-size="14" lengthAdjust="spacing" textLength="48" x="1211.5" y="99.9951">source</text><line style="stroke:#181818;stroke-width:0.5;" x1="1206.5" x2="1332.5" y1="107.2969" y2="107.2969"/><text fill="#000000" font-family="sans-serif" font-size="14" lengthAdjust="spacing" textLength="41" x="1211.5" y="124.292">load()</text></g><!--class HDF5DataImporter--><g id="elem_HDF5DataImporter"><rect codeLine="28" fill="#F1F1F1" height="64.2969" id="HDF5DataImporter" rx="2.5" ry="2.5" style="stroke:#181818;stroke-width:0.5;" width="167" x="1186" y="237"/><ellipse cx="1201" cy="253" fill="#ADD1B2" rx="11" ry="11" style="stroke:#181818;stroke-width:1.0;"/><path d="M1203.9844,258.6406 Q1203.4063,258.9375 1202.7656,259.0781 Q1202.125,259.2344 1201.4219,259.2344 Q1198.9063,259.2344 1197.5781,257.5938 Q1196.2656,255.9375 1196.2656,252.8125 Q1196.2656,249.6719 1197.5781,248.0313 Q1198.9063,246.375 1201.4219,246.375 Q1202.125,246.375 1202.7656,246.5313 Q1203.4219,246.6719 1203.9844,246.9688 L1203.9844,249.6875 Q1203.3438,249.1094 1202.75,248.8438 Q1202.1563,248.5781 1201.5313,248.5781 Q1200.1875,248.5781 1199.5,249.6406 Q1198.8125,250.7031 1198.8125,252.8125 Q1198.8125,254.9063 1199.5,255.9844 Q1200.1875,257.0469 1201.5313,257.0469 Q1202.1563,257.0469 1202.75,256.7813 Q1203.3438,256.5 1203.9844,255.9219 L1203.9844,258.6406 Z " fill="#000000"/><text fill="#000000" font-family="sans-serif" font-size="14" lengthAdjust="spacing" textLength="135" x="1215" y="257.8467">HDF5DataImporter</text><line style="stroke:#181818;stroke-width:0.5;" x1="1187" x2="1352" y1="269" y2="269"/><text fill="#000000" font-family="sans-serif" font-size="14" lengthAdjust="spacing" textLength="32" x="1192" y="285.9951">item</text><line style="stroke:#181818;stroke-width:0.5;" x1="1187" x2="1352" y1="293.2969" y2="293.2969"/></g><!--class ImageDataImporter--><g id="elem_ImageDataImporter"><rect codeLine="32" fill="#F1F1F1" height="48" id="ImageDataImporter" rx="2.5" ry="2.5" style="stroke:#181818;stroke-width:0.5;" width="173" x="1388" y="245"/><ellipse cx="1403" cy="261" fill="#ADD1B2" rx="11" ry="11" style="stroke:#181818;stroke-width:1.0;"/><path d="M1405.9844,266.6406 Q1405.4063,266.9375 1404.7656,267.0781 Q1404.125,267.2344 1403.4219,267.2344 Q1400.9063,267.2344 1399.5781,265.5938 Q1398.2656,263.9375 1398.2656,260.8125 Q1398.2656,257.6719 1399.5781,256.0313 Q1400.9063,254.375 1403.4219,254.375 Q1404.125,254.375 1404.7656,254.5313 Q1405.4219,254.6719 1405.9844,254.9688 L1405.9844,257.6875 Q1405.3438,257.1094 1404.75,256.8438 Q1404.1563,256.5781 1403.5313,256.5781 Q1402.1875,256.5781 1401.5,257.6406 Q1400.8125,258.7031 1400.8125,260.8125 Q1400.8125,262.9063 1401.5,263.9844 Q1402.1875,265.0469 1403.5313,265.0469 Q1404.1563,265.0469 1404.75,264.7813 Q1405.3438,264.5 1405.9844,263.9219 L1405.9844,266.6406 Z " fill="#000000"/><text fill="#000000" font-family="sans-serif" font-size="14" lengthAdjust="spacing" textLength="141" x="1417" y="265.8467">ImageDataImporter</text><line style="stroke:#181818;stroke-width:0.5;" x1="1389" x2="1560" y1="277" y2="277"/><line style="stroke:#181818;stroke-width:0.5;" x1="1389" x2="1560" y1="285" y2="285"/></g><g id="elem_GMN10"><path d="M1596.5,249 L1596.5,265 L1561,269 L1596.5,273 L1596.5,289.2656 A0,0 0 0 0 1596.5,289.2656 L1918.5,289.2656 A0,0 0 0 0 1918.5,289.2656 L1918.5,259 L1908.5,249 L1596.5,249 A0,0 0 0 0 1596.5,249 " fill="#FEFFDD" style="stroke:#181818;stroke-width:0.5;"/><path d="M1908.5,249 L1908.5,259 L1918.5,259 L1908.5,249 " fill="#FEFFDD" style="stroke:#181818;stroke-width:0.5;"/><text fill="#000000" font-family="sans-serif" font-size="13" lengthAdjust="spacing" textLength="277" x="1602.5" y="266.0669">Needs to handle a list of image filenames,</text><text fill="#000000" font-family="sans-serif" font-size="13" lengthAdjust="spacing" textLength="301" x="1602.5" y="281.1997">as per position one image needs to be loaded.</text></g><!--class Metadata--><g id="elem_Metadata"><rect codeLine="41" fill="#F1F1F1" height="48" id="Metadata" rx="2.5" ry="2.5" style="stroke:#181818;stroke-width:0.5;" width="99" x="464" y="245"/><ellipse cx="479" cy="261" fill="#ADD1B2" rx="11" ry="11" style="stroke:#181818;stroke-width:1.0;"/><path d="M481.9844,266.6406 Q481.4063,266.9375 480.7656,267.0781 Q480.125,267.2344 479.4219,267.2344 Q476.9063,267.2344 475.5781,265.5938 Q474.2656,263.9375 474.2656,260.8125 Q474.2656,257.6719 475.5781,256.0313 Q476.9063,254.375 479.4219,254.375 Q480.125,254.375 480.7656,254.5313 Q481.4219,254.6719 481.9844,254.9688 L481.9844,257.6875 Q481.3438,257.1094 480.75,256.8438 Q480.1563,256.5781 479.5313,256.5781 Q478.1875,256.5781 477.5,257.6406 Q476.8125,258.7031 476.8125,260.8125 Q476.8125,262.9063 477.5,263.9844 Q478.1875,265.0469 479.5313,265.0469 Q480.1563,265.0469 480.75,264.7813 Q481.3438,264.5 481.9844,263.9219 L481.9844,266.6406 Z " fill="#000000"/><text fill="#000000" font-family="sans-serif" font-size="14" lengthAdjust="spacing" textLength="67" x="493" y="265.8467">Metadata</text><line style="stroke:#181818;stroke-width:0.5;" x1="465" x2="562" y1="277" y2="277"/><line style="stroke:#181818;stroke-width:0.5;" x1="465" x2="562" y1="285" y2="285"/></g><g id="elem_GMN15"><path d="M288,249 L288,289.2656 A0,0 0 0 0 288,289.2656 L429,289.2656 A0,0 0 0 0 429,289.2656 L429,273 L463.68,269 L429,265 L429,259 L419,249 L288,249 A0,0 0 0 0 288,249 " fill="#FEFFDD" style="stroke:#181818;stroke-width:0.5;"/><path d="M419,249 L419,259 L429,259 L419,249 " fill="#FEFFDD" style="stroke:#181818;stroke-width:0.5;"/><text fill="#000000" font-family="sans-serif" font-size="13" lengthAdjust="spacing" textLength="104" x="294" y="266.0669">See diagram for</text><text fill="#000000" font-family="sans-serif" font-size="13" lengthAdjust="spacing" textLength="120" x="294" y="281.1997">metadata module.</text></g><!--class MeasureData--><g id="elem_MeasureData"><rect codeLine="48" fill="#F1F1F1" height="64.2969" id="MeasureData" rx="2.5" ry="2.5" style="stroke:#181818;stroke-width:0.5;" width="246" x="904.5" y="237"/><ellipse cx="975.75" cy="253" fill="#ADD1B2" rx="11" ry="11" style="stroke:#181818;stroke-width:1.0;"/><path d="M978.7344,258.6406 Q978.1563,258.9375 977.5156,259.0781 Q976.875,259.2344 976.1719,259.2344 Q973.6563,259.2344 972.3281,257.5938 Q971.0156,255.9375 971.0156,252.8125 Q971.0156,249.6719 972.3281,248.0313 Q973.6563,246.375 976.1719,246.375 Q976.875,246.375 977.5156,246.5313 Q978.1719,246.6719 978.7344,246.9688 L978.7344,249.6875 Q978.0938,249.1094 977.5,248.8438 Q976.9063,248.5781 976.2813,248.5781 Q974.9375,248.5781 974.25,249.6406 Q973.5625,250.7031 973.5625,252.8125 Q973.5625,254.9063 974.25,255.9844 Q974.9375,257.0469 976.2813,257.0469 Q976.9063,257.0469 977.5,256.7813 Q978.0938,256.5 978.7344,255.9219 L978.7344,258.6406 Z " fill="#000000"/><text fill="#000000" font-family="sans-serif" font-size="14" lengthAdjust="spacing" textLength="95" x="996.25" y="257.8467">MeasureData</text><line style="stroke:#181818;stroke-width:0.5;" x1="905.5" x2="1149.5" y1="269" y2="269"/><text fill="#000000" font-family="sans-serif" font-size="14" lengthAdjust="spacing" textLength="234" x="910.5" y="285.9951">positions : np.ndarray(dtype=int)</text><line style="stroke:#181818;stroke-width:0.5;" x1="905.5" x2="1149.5" y1="293.2969" y2="293.2969"/></g><!--class MonitorData--><g id="elem_MonitorData"><rect codeLine="52" fill="#F1F1F1" height="64.2969" id="MonitorData" rx="2.5" ry="2.5" style="stroke:#181818;stroke-width:0.5;" width="271" x="598" y="237"/><ellipse cx="685.25" cy="253" fill="#ADD1B2" rx="11" ry="11" style="stroke:#181818;stroke-width:1.0;"/><path d="M688.2344,258.6406 Q687.6563,258.9375 687.0156,259.0781 Q686.375,259.2344 685.6719,259.2344 Q683.1563,259.2344 681.8281,257.5938 Q680.5156,255.9375 680.5156,252.8125 Q680.5156,249.6719 681.8281,248.0313 Q683.1563,246.375 685.6719,246.375 Q686.375,246.375 687.0156,246.5313 Q687.6719,246.6719 688.2344,246.9688 L688.2344,249.6875 Q687.5938,249.1094 687,248.8438 Q686.4063,248.5781 685.7813,248.5781 Q684.4375,248.5781 683.75,249.6406 Q683.0625,250.7031 683.0625,252.8125 Q683.0625,254.9063 683.75,255.9844 Q684.4375,257.0469 685.7813,257.0469 Q686.4063,257.0469 687,256.7813 Q687.5938,256.5 688.2344,255.9219 L688.2344,258.6406 Z " fill="#000000"/><text fill="#000000" font-family="sans-serif" font-size="14" lengthAdjust="spacing" textLength="88" x="705.75" y="257.8467">MonitorData</text><line style="stroke:#181818;stroke-width:0.5;" x1="599" x2="868" y1="269" y2="269"/><text fill="#000000" font-family="sans-serif" font-size="14" lengthAdjust="spacing" textLength="259" x="604" y="285.9951">milliseconds : np.ndarray(dtype=int)</text><line style="stroke:#181818;stroke-width:0.5;" x1="599" x2="868" y1="293.2969" y2="293.2969"/></g><!--class DeviceData--><g id="elem_DeviceData"><rect codeLine="59" fill="#F1F1F1" height="48" id="DeviceData" rx="2.5" ry="2.5" style="stroke:#181818;stroke-width:0.5;" width="115" x="1088" y="387.5"/><ellipse cx="1103" cy="403.5" fill="#ADD1B2" rx="11" ry="11" style="stroke:#181818;stroke-width:1.0;"/><path d="M1105.9844,409.1406 Q1105.4063,409.4375 1104.7656,409.5781 Q1104.125,409.7344 1103.4219,409.7344 Q1100.9063,409.7344 1099.5781,408.0938 Q1098.2656,406.4375 1098.2656,403.3125 Q1098.2656,400.1719 1099.5781,398.5313 Q1100.9063,396.875 1103.4219,396.875 Q1104.125,396.875 1104.7656,397.0313 Q1105.4219,397.1719 1105.9844,397.4688 L1105.9844,400.1875 Q1105.3438,399.6094 1104.75,399.3438 Q1104.1563,399.0781 1103.5313,399.0781 Q1102.1875,399.0781 1101.5,400.1406 Q1100.8125,401.2031 1100.8125,403.3125 Q1100.8125,405.4063 1101.5,406.4844 Q1102.1875,407.5469 1103.5313,407.5469 Q1104.1563,407.5469 1104.75,407.2813 Q1105.3438,407 1105.9844,406.4219 L1105.9844,409.1406 Z " fill="#000000"/><text fill="#000000" font-family="sans-serif" font-size="14" lengthAdjust="spacing" textLength="83" x="1117" y="408.3467">DeviceData</text><line style="stroke:#181818;stroke-width:0.5;" x1="1089" x2="1202" y1="419.5" y2="419.5"/><line style="stroke:#181818;stroke-width:0.5;" x1="1089" x2="1202" y1="427.5" y2="427.5"/></g><!--class AxisData--><g id="elem_AxisData"><rect codeLine="61" fill="#F1F1F1" height="64.2969" id="AxisData" rx="2.5" ry="2.5" style="stroke:#181818;stroke-width:0.5;" width="95" x="285" y="379.5"/><ellipse cx="300" cy="395.5" fill="#ADD1B2" rx="11" ry="11" style="stroke:#181818;stroke-width:1.0;"/><path d="M302.9844,401.1406 Q302.4063,401.4375 301.7656,401.5781 Q301.125,401.7344 300.4219,401.7344 Q297.9063,401.7344 296.5781,400.0938 Q295.2656,398.4375 295.2656,395.3125 Q295.2656,392.1719 296.5781,390.5313 Q297.9063,388.875 300.4219,388.875 Q301.125,388.875 301.7656,389.0313 Q302.4219,389.1719 302.9844,389.4688 L302.9844,392.1875 Q302.3438,391.6094 301.75,391.3438 Q301.1563,391.0781 300.5313,391.0781 Q299.1875,391.0781 298.5,392.1406 Q297.8125,393.2031 297.8125,395.3125 Q297.8125,397.4063 298.5,398.4844 Q299.1875,399.5469 300.5313,399.5469 Q301.1563,399.5469 301.75,399.2813 Q302.3438,399 302.9844,398.4219 L302.9844,401.1406 Z " fill="#000000"/><text fill="#000000" font-family="sans-serif" font-size="14" lengthAdjust="spacing" textLength="63" x="314" y="400.3467">AxisData</text><line style="stroke:#181818;stroke-width:0.5;" x1="286" x2="379" y1="411.5" y2="411.5"/><text fill="#000000" font-family="sans-serif" font-size="14" lengthAdjust="spacing" textLength="74" x="291" y="428.4951">set_values</text><line style="stroke:#181818;stroke-width:0.5;" x1="286" x2="379" y1="435.7969" y2="435.7969"/></g><!--class NonencodedAxisData--><g id="elem_NonencodedAxisData"><rect codeLine="65" fill="#F1F1F1" height="80.5938" id="NonencodedAxisData" rx="2.5" ry="2.5" style="stroke:#181818;stroke-width:0.5;" width="185" x="57" y="570.5"/><ellipse cx="72" cy="586.5" fill="#ADD1B2" rx="11" ry="11" style="stroke:#181818;stroke-width:1.0;"/><path d="M74.9844,592.1406 Q74.4063,592.4375 73.7656,592.5781 Q73.125,592.7344 72.4219,592.7344 Q69.9063,592.7344 68.5781,591.0938 Q67.2656,589.4375 67.2656,586.3125 Q67.2656,583.1719 68.5781,581.5313 Q69.9063,579.875 72.4219,579.875 Q73.125,579.875 73.7656,580.0313 Q74.4219,580.1719 74.9844,580.4688 L74.9844,583.1875 Q74.3438,582.6094 73.75,582.3438 Q73.1563,582.0781 72.5313,582.0781 Q71.1875,582.0781 70.5,583.1406 Q69.8125,584.2031 69.8125,586.3125 Q69.8125,588.4063 70.5,589.4844 Q71.1875,590.5469 72.5313,590.5469 Q73.1563,590.5469 73.75,590.2813 Q74.3438,590 74.9844,589.4219 L74.9844,592.1406 Z " fill="#000000"/><text fill="#000000" font-family="sans-serif" font-size="14" lengthAdjust="spacing" textLength="153" x="86" y="591.3467">NonencodedAxisData</text><line style="stroke:#181818;stroke-width:0.5;" x1="58" x2="241" y1="602.5" y2="602.5"/><text fill="#000000" font-family="sans-serif" font-size="14" lengthAdjust="spacing" textLength="81" x="63" y="619.4951">_filled_data</text><line style="stroke:#181818;stroke-width:0.5;" x1="58" x2="241" y1="626.7969" y2="626.7969"/><text fill="#000000" font-family="sans-serif" font-size="14" lengthAdjust="spacing" textLength="84" x="63" y="643.792">filled_data()</text></g><g id="elem_GMN32"><path d="M6,760 L6,845.6641 A0,0 0 0 0 6,845.6641 L293,845.6641 A0,0 0 0 0 293,845.6641 L293,770 L283,760 L153.5,760 L149.5,651.83 L145.5,760 L6,760 A0,0 0 0 0 6,760 " fill="#FEFFDD" style="stroke:#181818;stroke-width:0.5;"/><path d="M283,760 L283,770 L293,770 L283,760 " fill="#FEFFDD" style="stroke:#181818;stroke-width:0.5;"/><text fill="#000000" font-family="sans-serif" font-size="13" lengthAdjust="spacing" textLength="266" x="12" y="777.0669">Data for axes without encoders are filled</text><text fill="#000000" font-family="sans-serif" font-size="13" lengthAdjust="spacing" textLength="259" x="12" y="792.1997">depending on the ChannelData they are</text><text fill="#000000" font-family="sans-serif" font-size="13" lengthAdjust="spacing" textLength="102" x="12" y="807.3325">plotted against.</text><text fill="#000000" font-family="sans-serif" font-size="13" lengthAdjust="spacing" textLength="254" x="12" y="822.4653">Hence for different channels, generally</text><text fill="#000000" font-family="sans-serif" font-size="13" lengthAdjust="spacing" textLength="193" x="12" y="837.5981">different filled data will exist.</text></g><!--class ChannelData--><g id="elem_ChannelData"><rect codeLine="77" fill="#F1F1F1" height="48" id="ChannelData" rx="2.5" ry="2.5" style="stroke:#181818;stroke-width:0.5;" width="125" x="1238" y="387.5"/><ellipse cx="1253" cy="403.5" fill="#ADD1B2" rx="11" ry="11" style="stroke:#181818;stroke-width:1.0;"/><path d="M1255.9844,409.1406 Q1255.4063,409.4375 1254.7656,409.5781 Q1254.125,409.7344 1253.4219,409.7344 Q1250.9063,409.7344 1249.5781,408.0938 Q1248.2656,406.4375 1248.2656,403.3125 Q1248.2656,400.1719 1249.5781,398.5313 Q1250.9063,396.875 1253.4219,396.875 Q1254.125,396.875 1254.7656,397.0313 Q1255.4219,397.1719 1255.9844,397.4688 L1255.9844,400.1875 Q1255.3438,399.6094 1254.75,399.3438 Q1254.1563,399.0781 1253.5313,399.0781 Q1252.1875,399.0781 1251.5,400.1406 Q1250.8125,401.2031 1250.8125,403.3125 Q1250.8125,405.4063 1251.5,406.4844 Q1252.1875,407.5469 1253.5313,407.5469 Q1254.1563,407.5469 1254.75,407.2813 Q1255.3438,407 1255.9844,406.4219 L1255.9844,409.1406 Z " fill="#000000"/><text fill="#000000" font-family="sans-serif" font-size="14" lengthAdjust="spacing" textLength="93" x="1267" y="408.3467">ChannelData</text><line style="stroke:#181818;stroke-width:0.5;" x1="1239" x2="1362" y1="419.5" y2="419.5"/><line style="stroke:#181818;stroke-width:0.5;" x1="1239" x2="1362" y1="427.5" y2="427.5"/></g><!--class TimestampData--><g id="elem_TimestampData"><rect codeLine="80" fill="#F1F1F1" height="96.8906" id="TimestampData" rx="2.5" ry="2.5" style="stroke:#181818;stroke-width:0.5;" width="287" x="766" y="363"/><ellipse cx="848.25" cy="379" fill="#ADD1B2" rx="11" ry="11" style="stroke:#181818;stroke-width:1.0;"/><path d="M851.2344,384.6406 Q850.6563,384.9375 850.0156,385.0781 Q849.375,385.2344 848.6719,385.2344 Q846.1563,385.2344 844.8281,383.5938 Q843.5156,381.9375 843.5156,378.8125 Q843.5156,375.6719 844.8281,374.0313 Q846.1563,372.375 848.6719,372.375 Q849.375,372.375 850.0156,372.5313 Q850.6719,372.6719 851.2344,372.9688 L851.2344,375.6875 Q850.5938,375.1094 850,374.8438 Q849.4063,374.5781 848.7813,374.5781 Q847.4375,374.5781 846.75,375.6406 Q846.0625,376.7031 846.0625,378.8125 Q846.0625,380.9063 846.75,381.9844 Q847.4375,383.0469 848.7813,383.0469 Q849.4063,383.0469 850,382.7813 Q850.5938,382.5 851.2344,381.9219 L851.2344,384.6406 Z " fill="#000000"/><text fill="#000000" font-family="sans-serif" font-size="14" lengthAdjust="spacing" textLength="114" x="868.75" y="383.8467">TimestampData</text><line style="stroke:#181818;stroke-width:0.5;" x1="767" x2="1052" y1="395" y2="395"/><text fill="#000000" font-family="sans-serif" font-size="14" lengthAdjust="spacing" textLength="275" x="772" y="411.9951">_first_positions : np.ndarray(dtype=int)</text><text fill="#000000" font-family="sans-serif" font-size="14" lengthAdjust="spacing" textLength="273" x="772" y="428.292">_last_positions : np.ndarray(dtype=int)</text><line style="stroke:#181818;stroke-width:0.5;" x1="767" x2="1052" y1="435.5938" y2="435.5938"/><text fill="#000000" font-family="sans-serif" font-size="14" lengthAdjust="spacing" textLength="258" x="772" y="452.5889">get_position(timestamp, mode=last)</text></g><!--class NonnumericChannelData--><g id="elem_NonnumericChannelData"><rect codeLine="86" fill="#F1F1F1" height="48" id="NonnumericChannelData" rx="2.5" ry="2.5" style="stroke:#181818;stroke-width:0.5;" width="212" x="1322.5" y="587"/><ellipse cx="1337.5" cy="603" fill="#ADD1B2" rx="11" ry="11" style="stroke:#181818;stroke-width:1.0;"/><path d="M1340.4844,608.6406 Q1339.9063,608.9375 1339.2656,609.0781 Q1338.625,609.2344 1337.9219,609.2344 Q1335.4063,609.2344 1334.0781,607.5938 Q1332.7656,605.9375 1332.7656,602.8125 Q1332.7656,599.6719 1334.0781,598.0313 Q1335.4063,596.375 1337.9219,596.375 Q1338.625,596.375 1339.2656,596.5313 Q1339.9219,596.6719 1340.4844,596.9688 L1340.4844,599.6875 Q1339.8438,599.1094 1339.25,598.8438 Q1338.6563,598.5781 1338.0313,598.5781 Q1336.6875,598.5781 1336,599.6406 Q1335.3125,600.7031 1335.3125,602.8125 Q1335.3125,604.9063 1336,605.9844 Q1336.6875,607.0469 1338.0313,607.0469 Q1338.6563,607.0469 1339.25,606.7813 Q1339.8438,606.5 1340.4844,605.9219 L1340.4844,608.6406 Z " fill="#000000"/><text fill="#000000" font-family="sans-serif" font-size="14" lengthAdjust="spacing" textLength="180" x="1351.5" y="607.8467">NonnumericChannelData</text><line style="stroke:#181818;stroke-width:0.5;" x1="1323.5" x2="1533.5" y1="619" y2="619"/><line style="stroke:#181818;stroke-width:0.5;" x1="1323.5" x2="1533.5" y1="627" y2="627"/></g><!--class SinglePointChannelData--><g id="elem_SinglePointChannelData"><rect codeLine="95" fill="#F1F1F1" height="48" id="SinglePointChannelData" rx="2.5" ry="2.5" style="stroke:#181818;stroke-width:0.5;" width="204" x="276.5" y="587"/><ellipse cx="291.5" cy="603" fill="#ADD1B2" rx="11" ry="11" style="stroke:#181818;stroke-width:1.0;"/><path d="M294.4844,608.6406 Q293.9063,608.9375 293.2656,609.0781 Q292.625,609.2344 291.9219,609.2344 Q289.4063,609.2344 288.0781,607.5938 Q286.7656,605.9375 286.7656,602.8125 Q286.7656,599.6719 288.0781,598.0313 Q289.4063,596.375 291.9219,596.375 Q292.625,596.375 293.2656,596.5313 Q293.9219,596.6719 294.4844,596.9688 L294.4844,599.6875 Q293.8438,599.1094 293.25,598.8438 Q292.6563,598.5781 292.0313,598.5781 Q290.6875,598.5781 290,599.6406 Q289.3125,600.7031 289.3125,602.8125 Q289.3125,604.9063 290,605.9844 Q290.6875,607.0469 292.0313,607.0469 Q292.6563,607.0469 293.25,606.7813 Q293.8438,606.5 294.4844,605.9219 L294.4844,608.6406 Z " fill="#000000"/><text fill="#000000" font-family="sans-serif" font-size="14" lengthAdjust="spacing" textLength="172" x="305.5" y="607.8467">SinglePointChannelData</text><line style="stroke:#181818;stroke-width:0.5;" x1="277.5" x2="479.5" y1="619" y2="619"/><line style="stroke:#181818;stroke-width:0.5;" x1="277.5" x2="479.5" y1="627" y2="627"/></g><!--class AverageChannelData--><g id="elem_AverageChannelData"><rect codeLine="105" fill="#F1F1F1" height="178.375" id="AverageChannelData" rx="2.5" ry="2.5" style="stroke:#181818;stroke-width:0.5;" width="246" x="776.5" y="522"/><ellipse cx="818.95" cy="538" fill="#ADD1B2" rx="11" ry="11" style="stroke:#181818;stroke-width:1.0;"/><path d="M821.9344,543.6406 Q821.3563,543.9375 820.7156,544.0781 Q820.075,544.2344 819.3719,544.2344 Q816.8563,544.2344 815.5281,542.5938 Q814.2156,540.9375 814.2156,537.8125 Q814.2156,534.6719 815.5281,533.0313 Q816.8563,531.375 819.3719,531.375 Q820.075,531.375 820.7156,531.5313 Q821.3719,531.6719 821.9344,531.9688 L821.9344,534.6875 Q821.2938,534.1094 820.7,533.8438 Q820.1063,533.5781 819.4813,533.5781 Q818.1375,533.5781 817.45,534.6406 Q816.7625,535.7031 816.7625,537.8125 Q816.7625,539.9063 817.45,540.9844 Q818.1375,542.0469 819.4813,542.0469 Q820.1063,542.0469 820.7,541.7813 Q821.2938,541.5 821.9344,540.9219 L821.9344,543.6406 Z " fill="#000000"/><text fill="#000000" font-family="sans-serif" font-size="14" lengthAdjust="spacing" textLength="153" x="839.05" y="542.8467">AverageChannelData</text><line style="stroke:#181818;stroke-width:0.5;" x1="777.5" x2="1021.5" y1="554" y2="554"/><text fill="#000000" font-family="sans-serif" font-size="14" lengthAdjust="spacing" textLength="167" x="782.5" y="570.9951">raw_data : raggedarray</text><text fill="#000000" font-family="sans-serif" font-size="14" lengthAdjust="spacing" textLength="234" x="782.5" y="587.292">attempts : np.ndarray(dtype=int)</text><text fill="#000000" font-family="sans-serif" font-size="14" lengthAdjust="spacing" textLength="139" x="782.5" y="603.5889">_mean : np.ndarray</text><text fill="#000000" font-family="sans-serif" font-size="14" lengthAdjust="spacing" textLength="119" x="782.5" y="619.8857">_std : np.ndarray</text><line style="stroke:#181818;stroke-width:0.5;" x1="777.5" x2="1021.5" y1="627.1875" y2="627.1875"/><text fill="#000000" font-family="sans-serif" font-size="14" lengthAdjust="spacing" textLength="51" x="782.5" y="644.1826">mean()</text><text fill="#000000" font-family="sans-serif" font-size="14" lengthAdjust="spacing" textLength="31" x="782.5" y="660.4795">std()</text><text fill="#000000" font-family="sans-serif" font-size="14" lengthAdjust="spacing" textLength="117" x="782.5" y="676.7764">averaged_data()</text><text fill="#000000" font-family="sans-serif" font-size="14" lengthAdjust="spacing" textLength="107" x="782.5" y="693.0732">has_raw_data()</text></g><!--class IntervalChannelData--><g id="elem_IntervalChannelData"><rect codeLine="128" fill="#F1F1F1" height="162.0781" id="IntervalChannelData" rx="2.5" ry="2.5" style="stroke:#181818;stroke-width:0.5;" width="230" x="1057.5" y="530"/><ellipse cx="1095.45" cy="546" fill="#ADD1B2" rx="11" ry="11" style="stroke:#181818;stroke-width:1.0;"/><path d="M1098.4344,551.6406 Q1097.8563,551.9375 1097.2156,552.0781 Q1096.575,552.2344 1095.8719,552.2344 Q1093.3563,552.2344 1092.0281,550.5938 Q1090.7156,548.9375 1090.7156,545.8125 Q1090.7156,542.6719 1092.0281,541.0313 Q1093.3563,539.375 1095.8719,539.375 Q1096.575,539.375 1097.2156,539.5313 Q1097.8719,539.6719 1098.4344,539.9688 L1098.4344,542.6875 Q1097.7938,542.1094 1097.2,541.8438 Q1096.6063,541.5781 1095.9813,541.5781 Q1094.6375,541.5781 1093.95,542.6406 Q1093.2625,543.7031 1093.2625,545.8125 Q1093.2625,547.9063 1093.95,548.9844 Q1094.6375,550.0469 1095.9813,550.0469 Q1096.6063,550.0469 1097.2,549.7813 Q1097.7938,549.5 1098.4344,548.9219 L1098.4344,551.6406 Z " fill="#000000"/><text fill="#000000" font-family="sans-serif" font-size="14" lengthAdjust="spacing" textLength="147" x="1114.55" y="550.8467">IntervalChannelData</text><line style="stroke:#181818;stroke-width:0.5;" x1="1058.5" x2="1286.5" y1="562" y2="562"/><text fill="#000000" font-family="sans-serif" font-size="14" lengthAdjust="spacing" textLength="167" x="1063.5" y="578.9951">raw_data : raggedarray</text><text fill="#000000" font-family="sans-serif" font-size="14" lengthAdjust="spacing" textLength="218" x="1063.5" y="595.292">counts : np.ndarray(dtype=int)</text><text fill="#000000" font-family="sans-serif" font-size="14" lengthAdjust="spacing" textLength="139" x="1063.5" y="611.5889">_mean : np.ndarray</text><text fill="#000000" font-family="sans-serif" font-size="14" lengthAdjust="spacing" textLength="119" x="1063.5" y="627.8857">_std : np.ndarray</text><line style="stroke:#181818;stroke-width:0.5;" x1="1058.5" x2="1286.5" y1="635.1875" y2="635.1875"/><text fill="#000000" font-family="sans-serif" font-size="14" lengthAdjust="spacing" textLength="51" x="1063.5" y="652.1826">mean()</text><text fill="#000000" font-family="sans-serif" font-size="14" lengthAdjust="spacing" textLength="31" x="1063.5" y="668.4795">std()</text><text fill="#000000" font-family="sans-serif" font-size="14" lengthAdjust="spacing" textLength="107" x="1063.5" y="684.7764">has_raw_data()</text></g><!--class ArrayChannelData--><g id="elem_ArrayChannelData"><rect codeLine="141" fill="#F1F1F1" height="48" id="ArrayChannelData" rx="2.5" ry="2.5" style="stroke:#181818;stroke-width:0.5;" width="164" x="1569.5" y="587"/><ellipse cx="1584.5" cy="603" fill="#ADD1B2" rx="11" ry="11" style="stroke:#181818;stroke-width:1.0;"/><path d="M1587.4844,608.6406 Q1586.9063,608.9375 1586.2656,609.0781 Q1585.625,609.2344 1584.9219,609.2344 Q1582.4063,609.2344 1581.0781,607.5938 Q1579.7656,605.9375 1579.7656,602.8125 Q1579.7656,599.6719 1581.0781,598.0313 Q1582.4063,596.375 1584.9219,596.375 Q1585.625,596.375 1586.2656,596.5313 Q1586.9219,596.6719 1587.4844,596.9688 L1587.4844,599.6875 Q1586.8438,599.1094 1586.25,598.8438 Q1585.6563,598.5781 1585.0313,598.5781 Q1583.6875,598.5781 1583,599.6406 Q1582.3125,600.7031 1582.3125,602.8125 Q1582.3125,604.9063 1583,605.9844 Q1583.6875,607.0469 1585.0313,607.0469 Q1585.6563,607.0469 1586.25,606.7813 Q1586.8438,606.5 1587.4844,605.9219 L1587.4844,608.6406 Z " fill="#000000"/><text fill="#000000" font-family="sans-serif" font-size="14" lengthAdjust="spacing" textLength="132" x="1598.5" y="607.8467">ArrayChannelData</text><line style="stroke:#181818;stroke-width:0.5;" x1="1570.5" x2="1732.5" y1="619" y2="619"/><line style="stroke:#181818;stroke-width:0.5;" x1="1570.5" x2="1732.5" y1="627" y2="627"/></g><!--class AreaChannelData--><g id="elem_AreaChannelData"><rect codeLine="148" fill="#F1F1F1" height="48" id="AreaChannelData" rx="2.5" ry="2.5" style="stroke:#181818;stroke-width:0.5;" width="159" x="1769" y="587"/><ellipse cx="1784" cy="603" fill="#ADD1B2" rx="11" ry="11" style="stroke:#181818;stroke-width:1.0;"/><path d="M1786.9844,608.6406 Q1786.4063,608.9375 1785.7656,609.0781 Q1785.125,609.2344 1784.4219,609.2344 Q1781.9063,609.2344 1780.5781,607.5938 Q1779.2656,605.9375 1779.2656,602.8125 Q1779.2656,599.6719 1780.5781,598.0313 Q1781.9063,596.375 1784.4219,596.375 Q1785.125,596.375 1785.7656,596.5313 Q1786.4219,596.6719 1786.9844,596.9688 L1786.9844,599.6875 Q1786.3438,599.1094 1785.75,598.8438 Q1785.1563,598.5781 1784.5313,598.5781 Q1783.1875,598.5781 1782.5,599.6406 Q1781.8125,600.7031 1781.8125,602.8125 Q1781.8125,604.9063 1782.5,605.9844 Q1783.1875,607.0469 1784.5313,607.0469 Q1785.1563,607.0469 1785.75,606.7813 Q1786.3438,606.5 1786.9844,605.9219 L1786.9844,608.6406 Z " fill="#000000"/><text fill="#000000" font-family="sans-serif" font-size="14" lengthAdjust="spacing" textLength="127" x="1798" y="607.8467">AreaChannelData</text><line style="stroke:#181818;stroke-width:0.5;" x1="1770" x2="1927" y1="619" y2="619"/><line style="stroke:#181818;stroke-width:0.5;" x1="1770" x2="1927" y1="627" y2="627"/></g><!--class NormalizedData--><g id="elem_NormalizedData"><rect codeLine="97" fill="#F1F1F1" height="80.5938" id="NormalizedData" rx="2.5" ry="2.5" style="stroke:#181818;stroke-width:0.5;" width="226" x="515.5" y="570.5"/><ellipse cx="566.75" cy="586.5" fill="#B4A7E5" rx="11" ry="11" style="stroke:#181818;stroke-width:1.0;"/><path d="M562.6719,582.25 L562.6719,580.0938 L570.0625,580.0938 L570.0625,582.25 L567.5938,582.25 L567.5938,590.3438 L570.0625,590.3438 L570.0625,592.5 L562.6719,592.5 L562.6719,590.3438 L565.1406,590.3438 L565.1406,582.25 L562.6719,582.25 Z " fill="#000000"/><text fill="#000000" font-family="sans-serif" font-size="14" font-style="italic" lengthAdjust="spacing" textLength="115" x="587.25" y="591.3467">NormalizedData</text><line style="stroke:#181818;stroke-width:0.5;" x1="516.5" x2="740.5" y1="602.5" y2="602.5"/><text fill="#000000" font-family="sans-serif" font-size="14" lengthAdjust="spacing" textLength="210" x="521.5" y="619.4951">normalized_data : np.ndarray</text><text fill="#000000" font-family="sans-serif" font-size="14" lengthAdjust="spacing" textLength="214" x="521.5" y="635.792">normalizing_data : np.ndarray</text><line style="stroke:#181818;stroke-width:0.5;" x1="516.5" x2="740.5" y1="643.0938" y2="643.0938"/></g><!--class SinglePointNormalizedChannelData--><g id="elem_SinglePointNormalizedChannelData"><rect codeLine="102" fill="#F1F1F1" height="48" id="SinglePointNormalizedChannelData" rx="2.5" ry="2.5" style="stroke:#181818;stroke-width:0.5;" width="285" x="340" y="779"/><ellipse cx="355" cy="795" fill="#ADD1B2" rx="11" ry="11" style="stroke:#181818;stroke-width:1.0;"/><path d="M357.9844,800.6406 Q357.4063,800.9375 356.7656,801.0781 Q356.125,801.2344 355.4219,801.2344 Q352.9063,801.2344 351.5781,799.5938 Q350.2656,797.9375 350.2656,794.8125 Q350.2656,791.6719 351.5781,790.0313 Q352.9063,788.375 355.4219,788.375 Q356.125,788.375 356.7656,788.5313 Q357.4219,788.6719 357.9844,788.9688 L357.9844,791.6875 Q357.3438,791.1094 356.75,790.8438 Q356.1563,790.5781 355.5313,790.5781 Q354.1875,790.5781 353.5,791.6406 Q352.8125,792.7031 352.8125,794.8125 Q352.8125,796.9063 353.5,797.9844 Q354.1875,799.0469 355.5313,799.0469 Q356.1563,799.0469 356.75,798.7813 Q357.3438,798.5 357.9844,797.9219 L357.9844,800.6406 Z " fill="#000000"/><text fill="#000000" font-family="sans-serif" font-size="14" lengthAdjust="spacing" textLength="253" x="369" y="799.8467">SinglePointNormalizedChannelData</text><line style="stroke:#181818;stroke-width:0.5;" x1="341" x2="624" y1="811" y2="811"/><line style="stroke:#181818;stroke-width:0.5;" x1="341" x2="624" y1="819" y2="819"/></g><g id="elem_GMN57"><path d="M470.5,361 L470.5,461.7969 A0,0 0 0 0 470.5,461.7969 L671.56,461.7969 L776.38,528.68 L679.56,461.7969 L730.5,461.7969 A0,0 0 0 0 730.5,461.7969 L730.5,371 L720.5,361 L470.5,361 A0,0 0 0 0 470.5,361 " fill="#FEFFDD" style="stroke:#181818;stroke-width:0.5;"/><path d="M720.5,361 L720.5,371 L730.5,371 L720.5,361 " fill="#FEFFDD" style="stroke:#181818;stroke-width:0.5;"/><text fill="#000000" font-family="sans-serif" font-size="13" lengthAdjust="spacing" textLength="203" x="476.5" y="378.0669">averaged_values() returns only</text><text fill="#000000" font-family="sans-serif" font-size="13" lengthAdjust="spacing" textLength="229" x="476.5" y="393.1997">those values used to average over.</text><text fill="#000000" font-family="sans-serif" font-size="13" lengthAdjust="spacing" textLength="8" x="476.5" y="408.3325">&#160;</text><text fill="#000000" font-family="sans-serif" font-size="13" lengthAdjust="spacing" textLength="239" x="476.5" y="423.4653">How does mean() differ from data()?</text><text fill="#000000" font-family="sans-serif" font-size="13" lengthAdjust="spacing" textLength="219" x="476.5" y="438.5981">Probably, data() should return the</text><text fill="#000000" font-family="sans-serif" font-size="13" lengthAdjust="spacing" textLength="103" x="476.5" y="453.731">averaged data -</text><text fill="#000000" font-family="sans-serif" font-size="13" font-style="italic" lengthAdjust="spacing" textLength="20" x="583.5" y="453.731">i.e.</text><text fill="#000000" font-family="sans-serif" font-size="13" lengthAdjust="spacing" textLength="59" x="603.5" y="453.731">, mean().</text></g><!--class AverageNormalizedChannelData--><g id="elem_AverageNormalizedChannelData"><rect codeLine="124" fill="#F1F1F1" height="48" id="AverageNormalizedChannelData" rx="2.5" ry="2.5" style="stroke:#181818;stroke-width:0.5;" width="266" x="683.5" y="779"/><ellipse cx="698.5" cy="795" fill="#ADD1B2" rx="11" ry="11" style="stroke:#181818;stroke-width:1.0;"/><path d="M701.4844,800.6406 Q700.9063,800.9375 700.2656,801.0781 Q699.625,801.2344 698.9219,801.2344 Q696.4063,801.2344 695.0781,799.5938 Q693.7656,797.9375 693.7656,794.8125 Q693.7656,791.6719 695.0781,790.0313 Q696.4063,788.375 698.9219,788.375 Q699.625,788.375 700.2656,788.5313 Q700.9219,788.6719 701.4844,788.9688 L701.4844,791.6875 Q700.8438,791.1094 700.25,790.8438 Q699.6563,790.5781 699.0313,790.5781 Q697.6875,790.5781 697,791.6406 Q696.3125,792.7031 696.3125,794.8125 Q696.3125,796.9063 697,797.9844 Q697.6875,799.0469 699.0313,799.0469 Q699.6563,799.0469 700.25,798.7813 Q700.8438,798.5 701.4844,797.9219 L701.4844,800.6406 Z " fill="#000000"/><text fill="#000000" font-family="sans-serif" font-size="14" lengthAdjust="spacing" textLength="234" x="712.5" y="799.8467">AverageNormalizedChannelData</text><line style="stroke:#181818;stroke-width:0.5;" x1="684.5" x2="948.5" y1="811" y2="811"/><line style="stroke:#181818;stroke-width:0.5;" x1="684.5" x2="948.5" y1="819" y2="819"/></g><!--class IntervalNormalizedChannelData--><g id="elem_IntervalNormalizedChannelData"><rect codeLine="138" fill="#F1F1F1" height="48" id="IntervalNormalizedChannelData" rx="2.5" ry="2.5" style="stroke:#181818;stroke-width:0.5;" width="260" x="996.5" y="779"/><ellipse cx="1011.5" cy="795" fill="#ADD1B2" rx="11" ry="11" style="stroke:#181818;stroke-width:1.0;"/><path d="M1014.4844,800.6406 Q1013.9063,800.9375 1013.2656,801.0781 Q1012.625,801.2344 1011.9219,801.2344 Q1009.4063,801.2344 1008.0781,799.5938 Q1006.7656,797.9375 1006.7656,794.8125 Q1006.7656,791.6719 1008.0781,790.0313 Q1009.4063,788.375 1011.9219,788.375 Q1012.625,788.375 1013.2656,788.5313 Q1013.9219,788.6719 1014.4844,788.9688 L1014.4844,791.6875 Q1013.8438,791.1094 1013.25,790.8438 Q1012.6563,790.5781 1012.0313,790.5781 Q1010.6875,790.5781 1010,791.6406 Q1009.3125,792.7031 1009.3125,794.8125 Q1009.3125,796.9063 1010,797.9844 Q1010.6875,799.0469 1012.0313,799.0469 Q1012.6563,799.0469 1013.25,798.7813 Q1013.8438,798.5 1014.4844,797.9219 L1014.4844,800.6406 Z " fill="#000000"/><text fill="#000000" font-family="sans-serif" font-size="14" lengthAdjust="spacing" textLength="228" x="1025.5" y="799.8467">IntervalNormalizedChannelData</text><line style="stroke:#181818;stroke-width:0.5;" x1="997.5" x2="1255.5" y1="811" y2="811"/><line style="stroke:#181818;stroke-width:0.5;" x1="997.5" x2="1255.5" y1="819" y2="819"/></g><!--class MCAChannelData--><g id="elem_MCAChannelData"><rect codeLine="144" fill="#F1F1F1" height="48" id="MCAChannelData" rx="2.5" ry="2.5" style="stroke:#181818;stroke-width:0.5;" width="157" x="1369" y="779"/><ellipse cx="1384" cy="795" fill="#ADD1B2" rx="11" ry="11" style="stroke:#181818;stroke-width:1.0;"/><path d="M1386.9844,800.6406 Q1386.4063,800.9375 1385.7656,801.0781 Q1385.125,801.2344 1384.4219,801.2344 Q1381.9063,801.2344 1380.5781,799.5938 Q1379.2656,797.9375 1379.2656,794.8125 Q1379.2656,791.6719 1380.5781,790.0313 Q1381.9063,788.375 1384.4219,788.375 Q1385.125,788.375 1385.7656,788.5313 Q1386.4219,788.6719 1386.9844,788.9688 L1386.9844,791.6875 Q1386.3438,791.1094 1385.75,790.8438 Q1385.1563,790.5781 1384.5313,790.5781 Q1383.1875,790.5781 1382.5,791.6406 Q1381.8125,792.7031 1381.8125,794.8125 Q1381.8125,796.9063 1382.5,797.9844 Q1383.1875,799.0469 1384.5313,799.0469 Q1385.1563,799.0469 1385.75,798.7813 Q1386.3438,798.5 1386.9844,797.9219 L1386.9844,800.6406 Z " fill="#000000"/><text fill="#000000" font-family="sans-serif" font-size="14" lengthAdjust="spacing" textLength="125" x="1398" y="799.8467">MCAChannelData</text><line style="stroke:#181818;stroke-width:0.5;" x1="1370" x2="1525" y1="811" y2="811"/><line style="stroke:#181818;stroke-width:0.5;" x1="1370" x2="1525" y1="819" y2="819"/></g><!--class ScopeChannelData--><g id="elem_ScopeChannelData"><rect codeLine="146" fill="#F1F1F1" height="48" id="ScopeChannelData" rx="2.5" ry="2.5" style="stroke:#181818;stroke-width:0.5;" width="169" x="1561" y="779"/><ellipse cx="1576" cy="795" fill="#ADD1B2" rx="11" ry="11" style="stroke:#181818;stroke-width:1.0;"/><path d="M1578.9844,800.6406 Q1578.4063,800.9375 1577.7656,801.0781 Q1577.125,801.2344 1576.4219,801.2344 Q1573.9063,801.2344 1572.5781,799.5938 Q1571.2656,797.9375 1571.2656,794.8125 Q1571.2656,791.6719 1572.5781,790.0313 Q1573.9063,788.375 1576.4219,788.375 Q1577.125,788.375 1577.7656,788.5313 Q1578.4219,788.6719 1578.9844,788.9688 L1578.9844,791.6875 Q1578.3438,791.1094 1577.75,790.8438 Q1577.1563,790.5781 1576.5313,790.5781 Q1575.1875,790.5781 1574.5,791.6406 Q1573.8125,792.7031 1573.8125,794.8125 Q1573.8125,796.9063 1574.5,797.9844 Q1575.1875,799.0469 1576.5313,799.0469 Q1577.1563,799.0469 1577.75,798.7813 Q1578.3438,798.5 1578.9844,797.9219 L1578.9844,800.6406 Z " fill="#000000"/><text fill="#000000" font-family="sans-serif" font-size="14" lengthAdjust="spacing" textLength="137" x="1590" y="799.8467">ScopeChannelData</text><line style="stroke:#181818;stroke-width:0.5;" x1="1562" x2="1729" y1="811" y2="811"/><line style="stroke:#181818;stroke-width:0.5;" x1="1562" x2="1729" y1="819" y2="819"/></g><!--class SampleCameraData--><g id="elem_SampleCameraData"><rect codeLine="151" fill="#F1F1F1" height="48" id="SampleCameraData" rx="2.5" ry="2.5" style="stroke:#181818;stroke-width:0.5;" width="177" x="1765" y="779"/><ellipse cx="1780" cy="795" fill="#ADD1B2" rx="11" ry="11" style="stroke:#181818;stroke-width:1.0;"/><path d="M1782.9844,800.6406 Q1782.4063,800.9375 1781.7656,801.0781 Q1781.125,801.2344 1780.4219,801.2344 Q1777.9063,801.2344 1776.5781,799.5938 Q1775.2656,797.9375 1775.2656,794.8125 Q1775.2656,791.6719 1776.5781,790.0313 Q1777.9063,788.375 1780.4219,788.375 Q1781.125,788.375 1781.7656,788.5313 Q1782.4219,788.6719 1782.9844,788.9688 L1782.9844,791.6875 Q1782.3438,791.1094 1781.75,790.8438 Q1781.1563,790.5781 1780.5313,790.5781 Q1779.1875,790.5781 1778.5,791.6406 Q1777.8125,792.7031 1777.8125,794.8125 Q1777.8125,796.9063 1778.5,797.9844 Q1779.1875,799.0469 1780.5313,799.0469 Q1781.1563,799.0469 1781.75,798.7813 Q1782.3438,798.5 1782.9844,797.9219 L1782.9844,800.6406 Z " fill="#000000"/><text fill="#000000" font-family="sans-serif" font-size="14" lengthAdjust="spacing" textLength="145" x="1794" y="799.8467">SampleCameraData</text><line style="stroke:#181818;stroke-width:0.5;" x1="1766" x2="1941" y1="811" y2="811"/><line style="stroke:#181818;stroke-width:0.5;" x1="1766" x2="1941" y1="819" y2="819"/></g><!--class ScientificCameraData--><g id="elem_ScientificCameraData"><rect codeLine="153" fill="#F1F1F1" height="48" id="ScientificCameraData" rx="2.5" ry="2.5" style="stroke:#181818;stroke-width:0.5;" width="188" x="1977.5" y="779"/><ellipse cx="1992.5" cy="795" fill="#ADD1B2" rx="11" ry="11" style="stroke:#181818;stroke-width:1.0;"/><path d="M1995.4844,800.6406 Q1994.9063,800.9375 1994.2656,801.0781 Q1993.625,801.2344 1992.9219,801.2344 Q1990.4063,801.2344 1989.0781,799.5938 Q1987.7656,797.9375 1987.7656,794.8125 Q1987.7656,791.6719 1989.0781,790.0313 Q1990.4063,788.375 1992.9219,788.375 Q1993.625,788.375 1994.2656,788.5313 Q1994.9219,788.6719 1995.4844,788.9688 L1995.4844,791.6875 Q1994.8438,791.1094 1994.25,790.8438 Q1993.6563,790.5781 1993.0313,790.5781 Q1991.6875,790.5781 1991,791.6406 Q1990.3125,792.7031 1990.3125,794.8125 Q1990.3125,796.9063 1991,797.9844 Q1991.6875,799.0469 1993.0313,799.0469 Q1993.6563,799.0469 1994.25,798.7813 Q1994.8438,798.5 1995.4844,797.9219 L1995.4844,800.6406 Z " fill="#000000"/><text fill="#000000" font-family="sans-serif" font-size="14" lengthAdjust="spacing" textLength="156" x="2006.5" y="799.8467">ScientificCameraData</text><line style="stroke:#181818;stroke-width:0.5;" x1="1978.5" x2="2164.5" y1="811" y2="811"/><line style="stroke:#181818;stroke-width:0.5;" x1="1978.5" x2="2164.5" y1="819" y2="819"/></g><g id="elem_array_area_channels_note"><path d="M1587,384 L1587,439.3984 L1912,439.3984 L1912,394 L1902,384 L1587,384 " fill="#FEFFDD" style="stroke:#181818;stroke-width:0.5;"/><path d="M1902,384 L1902,394 L1912,394 L1902,384 " fill="#FEFFDD" style="stroke:#181818;stroke-width:1.0;"/><text fill="#000000" font-family="sans-serif" font-size="13" lengthAdjust="spacing" textLength="20" x="1593" y="401.0669">For</text><text fill="#000000" font-family="monospace" font-size="13" lengthAdjust="spacing" textLength="128" x="1617" y="401.0669">ArrayChannelData</text><text fill="#000000" font-family="sans-serif" font-size="13" lengthAdjust="spacing" textLength="24" x="1749" y="401.0669">and</text><text fill="#000000" font-family="monospace" font-size="13" lengthAdjust="spacing" textLength="120" x="1777" y="401.0669">AreaChannelData</text><text fill="#000000" font-family="sans-serif" font-size="13" lengthAdjust="spacing" textLength="289" x="1593" y="416.1997">see separate diagrams, as these classes are</text><text fill="#000000" font-family="sans-serif" font-size="13" lengthAdjust="spacing" textLength="241" x="1593" y="431.3325">slightly more complex compositions.</text></g><!--reverse link DataImporter to HDF5DataImporter--><g id="link_DataImporter_HDF5DataImporter"><path d="M1269.5,150.32 C1269.5,181.98 1269.5,207.64 1269.5,236.79 " fill="none" id="DataImporter-backto-HDF5DataImporter" style="stroke:#181818;stroke-width:1.0;"/><polygon fill="none" points="1269.5,132.32,1263.5,150.32,1275.5,150.32,1269.5,132.32" style="stroke:#181818;stroke-width:1.0;"/></g><!--reverse link DataImporter to ImageDataImporter--><g id="link_DataImporter_ImageDataImporter"><path d="M1329.4328,143.807 C1370.0528,178.587 1414.08,216.27 1447.56,244.94 " fill="none" id="DataImporter-backto-ImageDataImporter" style="stroke:#181818;stroke-width:1.0;"/><polygon fill="none" points="1315.76,132.1,1325.5304,148.3646,1333.3351,139.2494,1315.76,132.1" style="stroke:#181818;stroke-width:1.0;"/></g><!--link HDF5DataImporter to ImageDataImporter--><!--reverse link Data to DataImporter--><g id="link_Data_DataImporter"><path codeLine="45" d="M996.59,91.5 C1070.13,91.5 1131.68,91.5 1205.23,91.5 " fill="none" id="Data-backto-DataImporter" style="stroke:#181818;stroke-width:1.0;"/><polygon fill="#181818" points="984.59,91.5,990.59,95.5,996.59,91.5,990.59,87.5,984.59,91.5" style="stroke:#181818;stroke-width:1.0;"/><text fill="#000000" font-family="sans-serif" font-size="13" lengthAdjust="spacing" textLength="8" x="1189.3363" y="87.7309">n</text></g><!--reverse link Data to Metadata--><g id="link_Data_Metadata"><path codeLine="46" d="M784.908,162.4999 C772.948,170.0899 770.7,170.87 758.5,177 C683.9,214.47 658.05,206.09 580.5,237 C574.43,239.42 568.12,242.11 561.9,244.86 " fill="none" id="Data-backto-Metadata" style="stroke:#181818;stroke-width:1.0;"/><polygon fill="#181818" points="795.04,156.07,787.8307,155.9076,784.908,162.4999,792.1173,162.6623,795.04,156.07" style="stroke:#181818;stroke-width:1.0;"/></g><!--reverse link Data to MeasureData--><g id="link_Data_MeasureData"><path d="M945.5469,170.1599 C968.5269,197.5999 982.78,214.61 1001.46,236.91 " fill="none" id="Data-backto-MeasureData" style="stroke:#181818;stroke-width:1.0;"/><polygon fill="none" points="933.99,156.36,940.947,174.0122,950.1469,166.3076,933.99,156.36" style="stroke:#181818;stroke-width:1.0;"/></g><!--reverse link Data to MonitorData--><g id="link_Data_MonitorData"><path d="M815.4531,170.1599 C792.4731,197.5999 778.22,214.61 759.54,236.91 " fill="none" id="Data-backto-MonitorData" style="stroke:#181818;stroke-width:1.0;"/><polygon fill="none" points="827.01,156.36,810.8531,166.3076,820.053,174.0122,827.01,156.36" style="stroke:#181818;stroke-width:1.0;"/></g><!--link Metadata to MonitorData--><!--link MonitorData to MeasureData--><!--reverse link MeasureData to DeviceData--><g id="link_MeasureData_DeviceData"><path d="M1065.2658,314.964 C1087.1258,340.994 1106.23,363.74 1125.99,387.26 " fill="none" id="MeasureData-backto-DeviceData" style="stroke:#181818;stroke-width:1.0;"/><polygon fill="none" points="1053.69,301.18,1060.6712,318.8227,1069.8605,311.1054,1053.69,301.18" style="stroke:#181818;stroke-width:1.0;"/></g><!--reverse link MeasureData to AxisData--><g id="link_MeasureData_AxisData"><path d="M886.5205,301.1333 C694.8405,335.4033 640.46,310.13 452.5,361 C428.03,367.62 401.89,377.98 380.28,387.52 " fill="none" id="MeasureData-backto-AxisData" style="stroke:#181818;stroke-width:1.0;"/><polygon fill="none" points="904.19,297.7,885.376,295.2434,887.6649,307.0231,904.19,297.7" style="stroke:#181818;stroke-width:1.0;"/></g><!--reverse link AxisData to NonencodedAxisData--><g id="link_AxisData_NonencodedAxisData"><path d="M291.2689,456.9961 C259.5289,491.2661 220.78,533.07 186.25,570.33 " fill="none" id="AxisData-backto-NonencodedAxisData" style="stroke:#181818;stroke-width:1.0;"/><polygon fill="none" points="303.5,443.79,286.8669,452.919,295.6709,461.0731,303.5,443.79" style="stroke:#181818;stroke-width:1.0;"/></g><!--reverse link MeasureData to ChannelData--><g id="link_MeasureData_ChannelData"><path d="M1114.9764,308.6288 C1151.8464,325.3888 1180.94,339.53 1220.5,361 C1235.43,369.1 1251.43,378.79 1265.17,387.44 " fill="none" id="MeasureData-backto-ChannelData" style="stroke:#181818;stroke-width:1.0;"/><polygon fill="none" points="1098.59,301.18,1112.4935,314.0909,1117.4594,303.1666,1098.59,301.18" style="stroke:#181818;stroke-width:1.0;"/></g><!--reverse link MeasureData to TimestampData--><g id="link_MeasureData_TimestampData"><path d="M989.7336,314.9636 C974.5236,333.0736 966.63,342.48 949.53,362.84 " fill="none" id="MeasureData-backto-TimestampData" style="stroke:#181818;stroke-width:1.0;"/><polygon fill="none" points="1001.31,301.18,985.1391,311.1048,994.3281,318.8224,1001.31,301.18" style="stroke:#181818;stroke-width:1.0;"/></g><!--reverse link ChannelData to NonnumericChannelData--><g id="link_ChannelData_NonnumericChannelData"><path d="M1325.2191,450.6454 C1349.8191,488.6054 1388.8,548.74 1413.46,586.8 " fill="none" id="ChannelData-backto-NonnumericChannelData" style="stroke:#181818;stroke-width:1.0;"/><polygon fill="none" points="1315.43,435.54,1320.1839,453.9085,1330.2542,447.3824,1315.43,435.54" style="stroke:#181818;stroke-width:1.0;"/></g><!--link NonnumericChannelData to SinglePointChannelData--><!--link SinglePointChannelData to AverageChannelData--><!--link AverageChannelData to IntervalChannelData--><!--link IntervalChannelData to ArrayChannelData--><!--link ArrayChannelData to AreaChannelData--><!--reverse link ChannelData to SinglePointChannelData--><g id="link_ChannelData_SinglePointChannelData"><path d="M1255.8227,445.8509 C1241.4527,455.7209 1238.34,456.12 1220.5,462 C914.27,562.95 799.29,408.48 497.5,522 C459.98,536.11 424,565.7 401.61,586.67 " fill="none" id="ChannelData-backto-SinglePointChannelData" style="stroke:#181818;stroke-width:1.0;"/><polygon fill="none" points="1270.66,435.66,1252.4257,440.9052,1259.2197,450.7967,1270.66,435.66" style="stroke:#181818;stroke-width:1.0;"/></g><!--reverse link SinglePointChannelData to SinglePointNormalizedChannelData--><g id="link_SinglePointChannelData_SinglePointNormalizedChannelData"><path d="M399.8953,651.0879 C419.9153,687.6479 449.83,742.31 469.81,778.81 " fill="none" id="SinglePointChannelData-backto-SinglePointNormalizedChannelData" style="stroke:#181818;stroke-width:1.0;"/><polygon fill="none" points="391.25,635.3,394.6327,653.9697,405.158,648.2061,391.25,635.3" style="stroke:#181818;stroke-width:1.0;"/></g><!--reverse link NormalizedData to SinglePointNormalizedChannelData--><g id="link_NormalizedData_SinglePointNormalizedChannelData"><path d="M586.9224,666.1027 C557.3224,704.6227 524.46,747.39 500.23,778.93 " fill="none" id="NormalizedData-backto-SinglePointNormalizedChannelData" style="stroke:#181818;stroke-width:1.0;stroke-dasharray:7.0,7.0;"/><polygon fill="none" points="597.89,651.83,582.1648,662.4469,591.68,669.7586,597.89,651.83" style="stroke:#181818;stroke-width:1.0;"/></g><!--reverse link ChannelData to AverageChannelData--><g id="link_ChannelData_AverageChannelData"><path d="M1252.1053,445.2793 C1238.0953,454.3193 1236.48,454.53 1220.5,462 C1143.72,497.87 1116.15,485.85 1039.5,522 C1033.92,524.63 1028.28,527.44 1022.65,530.38 " fill="none" id="ChannelData-backto-AverageChannelData" style="stroke:#181818;stroke-width:1.0;"/><polygon fill="none" points="1267.23,435.52,1248.8522,440.2377,1255.3584,450.3208,1267.23,435.52" style="stroke:#181818;stroke-width:1.0;"/></g><!--reverse link AverageChannelData to AverageNormalizedChannelData--><g id="link_AverageChannelData_AverageNormalizedChannelData"><path d="M853.8312,716.5434 C841.1912,745.4634 835.39,758.77 826.71,778.62 " fill="none" id="AverageChannelData-backto-AverageNormalizedChannelData" style="stroke:#181818;stroke-width:1.0;"/><polygon fill="none" points="861.04,700.05,848.3334,714.1405,859.3291,718.9464,861.04,700.05" style="stroke:#181818;stroke-width:1.0;"/></g><!--reverse link NormalizedData to AverageNormalizedChannelData--><g id="link_NormalizedData_AverageNormalizedChannelData"><path d="M680.5713,664.6242 C718.6913,703.1442 762.47,747.39 793.67,778.93 " fill="none" id="NormalizedData-backto-AverageNormalizedChannelData" style="stroke:#181818;stroke-width:1.0;stroke-dasharray:7.0,7.0;"/><polygon fill="none" points="667.91,651.83,676.3066,668.8446,684.836,660.4037,667.91,651.83" style="stroke:#181818;stroke-width:1.0;"/></g><!--reverse link ChannelData to IntervalChannelData--><g id="link_ChannelData_IntervalChannelData"><path d="M1275.7785,450.6439 C1260.7385,473.8439 1246.46,495.88 1224.39,529.93 " fill="none" id="ChannelData-backto-IntervalChannelData" style="stroke:#181818;stroke-width:1.0;"/><polygon fill="none" points="1285.57,435.54,1270.7439,447.38,1280.8131,453.9077,1285.57,435.54" style="stroke:#181818;stroke-width:1.0;"/></g><!--reverse link IntervalChannelData to IntervalNormalizedChannelData--><g id="link_IntervalChannelData_IntervalNormalizedChannelData"><path d="M1148.8902,709.5235 C1141.2702,740.9635 1137.36,757.15 1132.11,778.83 " fill="none" id="IntervalChannelData-backto-IntervalNormalizedChannelData" style="stroke:#181818;stroke-width:1.0;"/><polygon fill="none" points="1153.13,692.03,1143.059,708.1103,1154.7213,710.9368,1153.13,692.03" style="stroke:#181818;stroke-width:1.0;"/></g><!--reverse link NormalizedData to IntervalNormalizedChannelData--><g id="link_NormalizedData_IntervalNormalizedChannelData"><path d="M693.2816,662.1635 C716.5216,678.9835 730.54,687.09 758.5,700 C771.55,706.03 935.94,750.74 1040.54,778.93 " fill="none" id="NormalizedData-backto-IntervalNormalizedChannelData" style="stroke:#181818;stroke-width:1.0;stroke-dasharray:7.0,7.0;"/><polygon fill="none" points="678.7,651.61,689.7638,667.024,696.7995,657.3029,678.7,651.61" style="stroke:#181818;stroke-width:1.0;"/></g><!--reverse link ChannelData to ArrayChannelData--><g id="link_ChannelData_ArrayChannelData"><path d="M1379.9805,439.4822 C1432.7205,458.5222 1492.09,483.43 1552.5,522 C1581.57,540.56 1610.56,567.59 1629.59,586.78 " fill="none" id="ChannelData-backto-ArrayChannelData" style="stroke:#181818;stroke-width:1.0;"/><polygon fill="none" points="1363.05,433.37,1377.9431,445.1257,1382.0179,433.8387,1363.05,433.37" style="stroke:#181818;stroke-width:1.0;"/></g><!--reverse link ArrayChannelData to MCAChannelData--><g id="link_ArrayChannelData_MCAChannelData"><path d="M1613.3172,647.5669 C1574.0572,684.1269 1511.59,742.31 1472.4,778.81 " fill="none" id="ArrayChannelData-backto-MCAChannelData" style="stroke:#181818;stroke-width:1.0;"/><polygon fill="none" points="1626.49,635.3,1609.2282,643.176,1617.4061,651.9578,1626.49,635.3" style="stroke:#181818;stroke-width:1.0;"/></g><!--reverse link ArrayChannelData to ScopeChannelData--><g id="link_ArrayChannelData_ScopeChannelData"><path d="M1650.1941,653.2911 C1649.0441,689.8511 1647.38,742.31 1646.23,778.81 " fill="none" id="ArrayChannelData-backto-ScopeChannelData" style="stroke:#181818;stroke-width:1.0;"/><polygon fill="none" points="1650.76,635.3,1644.1971,653.1025,1656.1911,653.4797,1650.76,635.3" style="stroke:#181818;stroke-width:1.0;"/></g><!--reverse link ChannelData to AreaChannelData--><g id="link_ChannelData_AreaChannelData"><path d="M1380.8781,427.0326 C1488.1681,446.9326 1684.23,486.33 1751.5,522 C1782.24,538.3 1810.88,566.55 1828.96,586.64 " fill="none" id="ChannelData-backto-AreaChannelData" style="stroke:#181818;stroke-width:1.0;"/><polygon fill="none" points="1363.18,423.75,1379.7839,432.932,1381.9724,421.1332,1363.18,423.75" style="stroke:#181818;stroke-width:1.0;"/></g><!--reverse link AreaChannelData to SampleCameraData--><g id="link_AreaChannelData_SampleCameraData"><path d="M1849.5874,653.2937 C1850.5574,689.8537 1851.93,742.31 1852.89,778.81 " fill="none" id="AreaChannelData-backto-SampleCameraData" style="stroke:#181818;stroke-width:1.0;"/><polygon fill="none" points="1849.11,635.3,1843.5895,653.4528,1855.5853,653.1345,1849.11,635.3" style="stroke:#181818;stroke-width:1.0;"/></g><!--reverse link AreaChannelData to ScientificCameraData--><g id="link_AreaChannelData_ScientificCameraData"><path d="M1889.5426,646.9721 C1932.4626,683.5321 2001.44,742.31 2044.28,778.81 " fill="none" id="AreaChannelData-backto-ScientificCameraData" style="stroke:#181818;stroke-width:1.0;"/><polygon fill="none" points="1875.84,635.3,1885.6519,651.5397,1893.4333,642.4046,1875.84,635.3" style="stroke:#181818;stroke-width:1.0;"/></g><!--link array_area_channels_note to AreaChannelData--><g id="link_array_area_channels_note_AreaChannelData"><path codeLine="161" d="M1762.85,439.14 C1782.38,478.09 1818.41,549.98 1836.9,586.85 " fill="none" id="array_area_channels_note-AreaChannelData" style="stroke:#181818;stroke-width:1.0;stroke-dasharray:7.0,7.0;"/></g><!--link array_area_channels_note to ArrayChannelData--><g id="link_array_area_channels_note_ArrayChannelData"><path codeLine="162" d="M1736.28,439.14 C1716.95,478.09 1681.28,549.98 1662.99,586.85 " fill="none" id="array_area_channels_note-ArrayChannelData" style="stroke:#181818;stroke-width:1.0;stroke-dasharray:7.0,7.0;"/></g><!--SRC=[jLTBR-Cs4BxhLn2-h5CuRhV0NeBT5462HNBO841wsnO2BOviTYbI82adRf3_tk53CcNHSOgYkKGUpPlVV1nzC3-uRAcc3M4j9ny__L8KbQ36a1jgANaf2FurO2bpFo_8j_ZevQgrN4c3OiOhwqLbr9FjKZAgDTq5CMzQfItebrTywLpVHO5_xOpcPyLh8PK58g2sHDLUxUAY7CBD_EECTAQZGkn8fQIb7EDJyl66-624IaOuIgeAZ07cxRQS4hk168MimM9SLzH6CJ9_sE5_ILgjMj1sTuQgDDHIOHJZBTE42IhNN1iRWn1U4mdkYUhTil2MNvKcN3A-vGnJ9TM6IWc2RAdem103c0jelWL6VA_1UAkhBMYwXkkWxVllohcJ61LD4taCS-LAFbI_qa17CWt4g0QU-h9C2nN7hAYlRMWZ0Ou_DVdrnZUAO0cK26xyKGJ9wY-eRCXrZWOLDU1UyWQpDZuu5Vm7d2qBm6TtbYcOXWO6K1dLwGhyer2K-UEFshStNp-DBE3PeiUi6swXsLlUkLHEcXO1PvglDxwwYPNtV0-0TbOHR2OJa7J35umW421f0sRXrR6T223IAiFTL21C82hAtj4AVAd0qWPDYZt_lk6CWVppCfDOhBCVGsn2CZGNvD51YzErc-TQwJ_aCBgDOfq018u7nK_dP2PduwR45-Vx6H-2KTDfdyUedV44NceEWhqEbPlH-C-PtRNmXKkR7F0t9RbL-fJ7XWjiEI10sPjEXsuahKj256cuL6LVru1JsF9gN6b6w-gPcsCwFRh1bc7SzrNV8oHafV3y9mu6GR0k4Li2s9xwajzxdbmfQrNZ03drxAsynzeDyZFEvnFEj-ei2PhQU6O8ZWC9GukvSBbs3ETOBsKHpnHeu3LRWP6HlEZQqQzTUk4j-WKVZV6w1WtIziHd5aYw4iaDMJk46ZH2_C0lJ_YC7U7E8sQIyaUQIhxfGvT_vpYIbZRjYHFgGLPwCYzFetTaXA7UQuFtpQ0vjtrs2pUHyCNvEHj1H7ODtWrLhk9Kze8s7sv1j4JGdJjMIbRS5da72UWVyO05F2XCBz4eykBKS7ex5PaBAoMlwRrLP6IZ60SNMZ6vuKRAeukkR-6HIexraBkCQehGlLUwmVlhRs09IkGWFBBPz0eODQFncibg7oUNtv7qSNyIqE34c6cUGv3CUMJBzebh-jGdZ4PhI6hgKKvnoflMlWtliW4gCnkViMmgTRhpO8VlunCDQG_qvcGRQie-mptZMTKwkij0SUGd42-kUXfift4ybOp4Wmo8EqlSmpfS4Dsr7Es8mlznixfLJuGfr0a9Hy8YjKQ-3IdzvlKUj5hHbTWj-kNI8CKA5WCxrXnb5dZkd7pcbtm9oyy_yyj5337TcMALRyCbS-GdeD9lIfb9_4zWgLGd_tUeJ61nKCtRpShL_Bx1EgIXVAVs-ytrLVQm3kcj9uSAlpt-ZS7XZdyYdKVgYhp6NLNJ0_zv2gquDeJNU8cymyPF9ZNX0wp47O6M_RrVUZptNqIpsM4zivd_Qd0lHavdixX4uQSBkAzJEwork4k43nUSu_ZnDEmbHhYD7hyC6uMhJQLSrS_-VtzHfrDssCHbrowF5p61mDlg_m00]--></g></svg>