<?xml version="1.0" encoding="us-ascii" standalone="no"?><svg xmlns="http://www.w3.org/2000/svg" xmlns:xlink="http://www.w3.org/1999/xlink" contentStyleType="text/css" height="401px" preserveAspectRatio="none" style="width:544px;height:401px;background:#FFFFFF;" version="1.1" viewBox="0 0 544 401" width="544px" zoomAndPan="magnify"><defs/><g><!--class SCML--><g id="elem_SCML"><rect codeLine="2" fill="#F1F1F1" height="179.25" id="SCML" rx="2.5" ry="2.5" style="stroke:#181818;stroke-width:0.5;" width="141" x="198.5" y="7"/><ellipse cx="246.25" cy="23" fill="#ADD1B2" rx="11" ry="11" style="stroke:#181818;stroke-width:1.0;"/><path d="M246.2969,29.2031 C247.7969,29.2031 249.0313,28.6406 249.9375,27.5781 L248.5625,26.0625 C248.0156,26.6563 247.3594,27.0469 246.5625,27.0469 C244.8906,27.0469 243.7344,25.7188 243.7344,23.4375 C243.7344,21.2188 244.8906,19.875 246.4531,19.875 C247.2656,19.875 247.8594,20.1875 248.3906,20.6719 L249.7656,19.125 C249.0156,18.3906 247.8594,17.7188 246.4531,17.7188 C243.5,17.7188 241.1719,19.8594 241.1719,23.5313 C241.1719,27.25 243.5469,29.2031 246.2969,29.2031 Z " fill="#000000"/><text fill="#000000" font-family="sans-serif" font-size="14" lengthAdjust="spacing" textLength="37" x="266.75" y="27.7852">SCML</text><line style="stroke:#181818;stroke-width:0.5;" x1="199.5" x2="338.5" y1="39" y2="39"/><text fill="#000000" font-family="sans-serif" font-size="14" lengthAdjust="spacing" textLength="95" x="204.5" y="55.9883">location : string</text><text fill="#000000" font-family="sans-serif" font-size="14" lengthAdjust="spacing" textLength="90" x="204.5" y="72.3945">version : string</text><text fill="#000000" font-family="sans-serif" font-size="14" lengthAdjust="spacing" textLength="84" x="204.5" y="88.8008">author: string</text><text fill="#000000" font-family="sans-serif" font-size="14" lengthAdjust="spacing" textLength="70" x="204.5" y="105.207">scan : Scan</text><text fill="#000000" font-family="sans-serif" font-size="14" lengthAdjust="spacing" textLength="101" x="204.5" y="121.6133">plugins : Plugin[]</text><text fill="#000000" font-family="sans-serif" font-size="14" lengthAdjust="spacing" textLength="129" x="204.5" y="138.0195">detectors : Detector[]</text><text fill="#000000" font-family="sans-serif" font-size="14" lengthAdjust="spacing" textLength="100" x="204.5" y="154.4258">motors : Motor[]</text><text fill="#000000" font-family="sans-serif" font-size="14" lengthAdjust="spacing" textLength="122" x="204.5" y="170.832">monitors : Monitor[]</text><line style="stroke:#181818;stroke-width:0.5;" x1="199.5" x2="338.5" y1="178.25" y2="178.25"/></g><!--class Scan--><g id="elem_Scan"><rect fill="#F1F1F1" height="48" id="Scan" rx="2.5" ry="2.5" style="stroke:#181818;stroke-width:0.5;" width="63" x="22.5" y="246"/><ellipse cx="37.5" cy="262" fill="#ADD1B2" rx="11" ry="11" style="stroke:#181818;stroke-width:1.0;"/><path d="M37.5469,268.2031 C39.0469,268.2031 40.2813,267.6406 41.1875,266.5781 L39.8125,265.0625 C39.2656,265.6563 38.6094,266.0469 37.8125,266.0469 C36.1406,266.0469 34.9844,264.7188 34.9844,262.4375 C34.9844,260.2188 36.1406,258.875 37.7031,258.875 C38.5156,258.875 39.1094,259.1875 39.6406,259.6719 L41.0156,258.125 C40.2656,257.3906 39.1094,256.7188 37.7031,256.7188 C34.75,256.7188 32.4219,258.8594 32.4219,262.5313 C32.4219,266.25 34.7969,268.2031 37.5469,268.2031 Z " fill="#000000"/><text fill="#000000" font-family="sans-serif" font-size="14" lengthAdjust="spacing" textLength="31" x="51.5" y="266.7852">Scan</text><line style="stroke:#181818;stroke-width:0.5;" x1="23.5" x2="84.5" y1="278" y2="278"/><line style="stroke:#181818;stroke-width:0.5;" x1="23.5" x2="84.5" y1="286" y2="286"/></g><!--class Plugin--><g id="elem_Plugin"><rect fill="#F1F1F1" height="48" id="Plugin" rx="2.5" ry="2.5" style="stroke:#181818;stroke-width:0.5;" width="71" x="120.5" y="246"/><ellipse cx="135.5" cy="262" fill="#ADD1B2" rx="11" ry="11" style="stroke:#181818;stroke-width:1.0;"/><path d="M135.5469,268.2031 C137.0469,268.2031 138.2813,267.6406 139.1875,266.5781 L137.8125,265.0625 C137.2656,265.6563 136.6094,266.0469 135.8125,266.0469 C134.1406,266.0469 132.9844,264.7188 132.9844,262.4375 C132.9844,260.2188 134.1406,258.875 135.7031,258.875 C136.5156,258.875 137.1094,259.1875 137.6406,259.6719 L139.0156,258.125 C138.2656,257.3906 137.1094,256.7188 135.7031,256.7188 C132.75,256.7188 130.4219,258.8594 130.4219,262.5313 C130.4219,266.25 132.7969,268.2031 135.5469,268.2031 Z " fill="#000000"/><text fill="#000000" font-family="sans-serif" font-size="14" lengthAdjust="spacing" textLength="39" x="149.5" y="266.7852">Plugin</text><line style="stroke:#181818;stroke-width:0.5;" x1="121.5" x2="190.5" y1="278" y2="278"/><line style="stroke:#181818;stroke-width:0.5;" x1="121.5" x2="190.5" y1="286" y2="286"/></g><!--class Detector--><g id="elem_Detector"><rect fill="#F1F1F1" height="48" id="Detector" rx="2.5" ry="2.5" style="stroke:#181818;stroke-width:0.5;" width="85" x="226.5" y="246"/><ellipse cx="241.5" cy="262" fill="#ADD1B2" rx="11" ry="11" style="stroke:#181818;stroke-width:1.0;"/><path d="M241.5469,268.2031 C243.0469,268.2031 244.2813,267.6406 245.1875,266.5781 L243.8125,265.0625 C243.2656,265.6563 242.6094,266.0469 241.8125,266.0469 C240.1406,266.0469 238.9844,264.7188 238.9844,262.4375 C238.9844,260.2188 240.1406,258.875 241.7031,258.875 C242.5156,258.875 243.1094,259.1875 243.6406,259.6719 L245.0156,258.125 C244.2656,257.3906 243.1094,256.7188 241.7031,256.7188 C238.75,256.7188 236.4219,258.8594 236.4219,262.5313 C236.4219,266.25 238.7969,268.2031 241.5469,268.2031 Z " fill="#000000"/><text fill="#000000" font-family="sans-serif" font-size="14" lengthAdjust="spacing" textLength="53" x="255.5" y="266.7852">Detector</text><line style="stroke:#181818;stroke-width:0.5;" x1="227.5" x2="310.5" y1="278" y2="278"/><line style="stroke:#181818;stroke-width:0.5;" x1="227.5" x2="310.5" y1="286" y2="286"/></g><!--class Motor--><g id="elem_Motor"><rect fill="#F1F1F1" height="48" id="Motor" rx="2.5" ry="2.5" style="stroke:#181818;stroke-width:0.5;" width="70" x="347" y="246"/><ellipse cx="362" cy="262" fill="#ADD1B2" rx="11" ry="11" style="stroke:#181818;stroke-width:1.0;"/><path d="M362.0469,268.2031 C363.5469,268.2031 364.7813,267.6406 365.6875,266.5781 L364.3125,265.0625 C363.7656,265.6563 363.1094,266.0469 362.3125,266.0469 C360.6406,266.0469 359.4844,264.7188 359.4844,262.4375 C359.4844,260.2188 360.6406,258.875 362.2031,258.875 C363.0156,258.875 363.6094,259.1875 364.1406,259.6719 L365.5156,258.125 C364.7656,257.3906 363.6094,256.7188 362.2031,256.7188 C359.25,256.7188 356.9219,258.8594 356.9219,262.5313 C356.9219,266.25 359.2969,268.2031 362.0469,268.2031 Z " fill="#000000"/><text fill="#000000" font-family="sans-serif" font-size="14" lengthAdjust="spacing" textLength="38" x="376" y="266.7852">Motor</text><line style="stroke:#181818;stroke-width:0.5;" x1="348" x2="416" y1="278" y2="278"/><line style="stroke:#181818;stroke-width:0.5;" x1="348" x2="416" y1="286" y2="286"/></g><!--class Monitor--><g id="elem_Monitor"><rect fill="#F1F1F1" height="48" id="Monitor" rx="2.5" ry="2.5" style="stroke:#181818;stroke-width:0.5;" width="81" x="452.5" y="246"/><ellipse cx="467.5" cy="262" fill="#ADD1B2" rx="11" ry="11" style="stroke:#181818;stroke-width:1.0;"/><path d="M467.5469,268.2031 C469.0469,268.2031 470.2813,267.6406 471.1875,266.5781 L469.8125,265.0625 C469.2656,265.6563 468.6094,266.0469 467.8125,266.0469 C466.1406,266.0469 464.9844,264.7188 464.9844,262.4375 C464.9844,260.2188 466.1406,258.875 467.7031,258.875 C468.5156,258.875 469.1094,259.1875 469.6406,259.6719 L471.0156,258.125 C470.2656,257.3906 469.1094,256.7188 467.7031,256.7188 C464.75,256.7188 462.4219,258.8594 462.4219,262.5313 C462.4219,266.25 464.7969,268.2031 467.5469,268.2031 Z " fill="#000000"/><text fill="#000000" font-family="sans-serif" font-size="14" lengthAdjust="spacing" textLength="49" x="481.5" y="266.7852">Monitor</text><line style="stroke:#181818;stroke-width:0.5;" x1="453.5" x2="532.5" y1="278" y2="278"/><line style="stroke:#181818;stroke-width:0.5;" x1="453.5" x2="532.5" y1="286" y2="286"/></g><path d="M375,56 L375,87.4688 L288.5,84.0156 L375,95.4688 L375,126.9375 A0,0 0 0 0 375,126.9375 L537,126.9375 A0,0 0 0 0 537,126.9375 L537,66 L527,56 L375,56 A0,0 0 0 0 375,56 " fill="#FEFFDD" style="stroke:#181818;stroke-width:0.5;"/><path d="M527,56 L527,66 L537,66 L527,56 " fill="#FEFFDD" style="stroke:#181818;stroke-width:0.5;"/><text fill="#000000" font-family="sans-serif" font-size="13" lengthAdjust="spacing" textLength="124" x="381" y="73.0605">The author attribute is</text><text fill="#000000" font-family="sans-serif" font-size="13" lengthAdjust="spacing" textLength="135" x="381" y="88.2949">not present in the SCML</text><text fill="#000000" font-family="sans-serif" font-size="13" lengthAdjust="spacing" textLength="141" x="381" y="103.5293">file, but in the HDF5 layer</text><text fill="#000000" font-family="sans-serif" font-size="13" lengthAdjust="spacing" textLength="92" x="381" y="118.7637">of an eveH5 file.</text><g id="elem_GMN15"><path d="M6,354 L6,394.4688 A0,0 0 0 0 6,394.4688 L102,394.4688 A0,0 0 0 0 102,394.4688 L102,364 L92,354 L58,354 L54,294.15 L50,354 L6,354 A0,0 0 0 0 6,354 " fill="#FEFFDD" style="stroke:#181818;stroke-width:0.5;"/><path d="M92,354 L92,364 L102,364 L92,354 " fill="#FEFFDD" style="stroke:#181818;stroke-width:0.5;"/><text fill="#000000" font-family="sans-serif" font-size="13" lengthAdjust="spacing" textLength="75" x="12" y="371.0605">See separate</text><text fill="#000000" font-family="sans-serif" font-size="13" lengthAdjust="spacing" textLength="73" x="12" y="386.2949">scan module</text></g><g id="elem_SetupNote"><path d="M333,354 L333,394.4688 L431,394.4688 L431,364 L421,354 L333,354 " fill="#FEFFDD" style="stroke:#181818;stroke-width:0.5;"/><path d="M421,354 L421,364 L431,364 L421,354 " fill="#FEFFDD" style="stroke:#181818;stroke-width:1.0;"/><text fill="#000000" font-family="sans-serif" font-size="13" lengthAdjust="spacing" textLength="75" x="339" y="371.0605">See separate</text><text fill="#000000" font-family="sans-serif" font-size="13" lengthAdjust="spacing" textLength="77" x="339" y="386.2949">setup module</text></g><!--reverse link SCML to Scan--><g id="link_SCML_Scan"><path codeLine="12" d="M188.9198,161.3741 C149.6398,192.7141 112.27,222.52 82.86,245.98 " fill="none" id="SCML-backto-Scan" style="stroke:#181818;stroke-width:1.0;"/><polygon fill="#181818" points="198.3,153.89,191.1152,154.5053,188.9198,161.3741,196.1046,160.7588,198.3,153.89" style="stroke:#181818;stroke-width:1.0;"/></g><!--reverse link SCML to Plugin--><g id="link_SCML_Plugin"><path codeLine="13" d="M204.0791,196.0314 C189.5091,218.1514 181.7,230 171.33,245.73 " fill="none" id="SCML-backto-Plugin" style="stroke:#181818;stroke-width:1.0;"/><polygon fill="#181818" points="210.68,186.01,204.0391,188.8204,204.0791,196.0314,210.72,193.221,210.68,186.01" style="stroke:#181818;stroke-width:1.0;"/><text fill="#000000" font-family="sans-serif" font-size="13" lengthAdjust="spacing" textLength="7" x="167.3614" y="234.6795">n</text></g><!--reverse link SCML to Detector--><g id="link_SCML_Detector"><path codeLine="14" d="M269,198.01 C269,220.13 269,230 269,245.73 " fill="none" id="SCML-backto-Detector" style="stroke:#181818;stroke-width:1.0;"/><polygon fill="#181818" points="269,186.01,265,192.01,269,198.01,273,192.01,269,186.01" style="stroke:#181818;stroke-width:1.0;"/><text fill="#000000" font-family="sans-serif" font-size="13" lengthAdjust="spacing" textLength="7" x="261.1031" y="234.6795">n</text></g><!--reverse link SCML to Motor--><g id="link_SCML_Motor"><path codeLine="15" d="M333.9209,196.0314 C348.4909,218.1514 356.3,230 366.67,245.73 " fill="none" id="SCML-backto-Motor" style="stroke:#181818;stroke-width:1.0;"/><polygon fill="#181818" points="327.32,186.01,327.28,193.221,333.9209,196.0314,333.9609,188.8204,327.32,186.01" style="stroke:#181818;stroke-width:1.0;"/><text fill="#000000" font-family="sans-serif" font-size="13" lengthAdjust="spacing" textLength="7" x="354.8448" y="234.6795">n</text></g><!--reverse link SCML to Monitor--><g id="link_SCML_Monitor"><path codeLine="16" d="M348.6754,179.4163 C354.3854,184.4963 351.22,181.44 357,186 C387.07,209.73 424.41,232.08 452.36,247.59 " fill="none" id="SCML-backto-Monitor" style="stroke:#181818;stroke-width:1.0;"/><polygon fill="#181818" points="339.71,171.44,341.534,178.4166,348.6754,179.4163,346.8515,172.4396,339.71,171.44" style="stroke:#181818;stroke-width:1.0;"/><text fill="#000000" font-family="sans-serif" font-size="13" lengthAdjust="spacing" textLength="7" x="437.4976" y="239.3437">n</text></g><!--link Detector to SetupNote--><g id="link_Detector_SetupNote"><path codeLine="32" d="M294.64,294.15 C314.57,312.13 341.88,336.78 360.63,353.71 " fill="none" id="Detector-SetupNote" style="stroke:#181818;stroke-width:1.0;stroke-dasharray:7.0,7.0;"/></g><!--link Motor to SetupNote--><g id="link_Motor_SetupNote"><path codeLine="33" d="M382,294.15 C382,312.13 382,336.78 382,353.71 " fill="none" id="Motor-SetupNote" style="stroke:#181818;stroke-width:1.0;stroke-dasharray:7.0,7.0;"/></g><!--link Monitor to SetupNote--><g id="link_Monitor_SetupNote"><path codeLine="34" d="M467.81,294.15 C448.24,312.13 421.41,336.78 402.99,353.71 " fill="none" id="Monitor-SetupNote" style="stroke:#181818;stroke-width:1.0;stroke-dasharray:7.0,7.0;"/></g><!--SRC=[PL4nRiCm3Dpz2Y9ZqNZBuhL1aQ492gHRsq6n6KU0B1eI7Q0e-lTIj9pQgHTJTqSUTQgTYH6EJ_iN-2v0FaUrOKiUAeWSh6yLlMA8_q0py8N20egrIQAZ_FJSkw6rFWhqgjNxfy8DCjPC8H7RN6UgeuplQGvwUuEr5EAdqBKVrklHxtPQ-LMsMsAJqn9Ldtj8FOh24oC4sruOwAmfLTLuQrthxO8v130i8Pm6aTkedBH27p2YPx0UMAIfNxcpTVW8efwOtVPv0yvyuJXNl2H6lE9kezgoGD-aYPXNEX4pTRgJt5poHeI8lGc6ySFh8tJK36xI6tbYvA4_f179OTumFboYfwO_joaoAClP18ti7jB8bk0l]--></g></svg>