<?xml version="1.0" encoding="us-ascii" standalone="no"?><svg xmlns="http://www.w3.org/2000/svg" xmlns:xlink="http://www.w3.org/1999/xlink" contentStyleType="text/css" height="350px" preserveAspectRatio="none" style="width:662px;height:350px;background:#FFFFFF;" version="1.1" viewBox="0 0 662 350" width="662px" zoomAndPan="magnify"><defs/><g><!--class Measurement--><g id="elem_Measurement"><rect codeLine="3" fill="#F1F1F1" height="179.25" id="Measurement" rx="2.5" ry="2.5" style="stroke:#181818;stroke-width:0.5;" width="197" x="247" y="7"/><ellipse cx="298.25" cy="23" fill="#ADD1B2" rx="11" ry="11" style="stroke:#181818;stroke-width:1.0;"/><path d="M298.2969,29.2031 C299.7969,29.2031 301.0313,28.6406 301.9375,27.5781 L300.5625,26.0625 C300.0156,26.6563 299.3594,27.0469 298.5625,27.0469 C296.8906,27.0469 295.7344,25.7188 295.7344,23.4375 C295.7344,21.2188 296.8906,19.875 298.4531,19.875 C299.2656,19.875 299.8594,20.1875 300.3906,20.6719 L301.7656,19.125 C301.0156,18.3906 299.8594,17.7188 298.4531,17.7188 C295.5,17.7188 293.1719,19.8594 293.1719,23.5313 C293.1719,27.25 295.5469,29.2031 298.2969,29.2031 Z " fill="#000000"/><text fill="#000000" font-family="sans-serif" font-size="14" lengthAdjust="spacing" textLength="86" x="318.75" y="27.7852">Measurement</text><line style="stroke:#181818;stroke-width:0.5;" x1="248" x2="443" y1="39" y2="39"/><text fill="#000000" font-family="sans-serif" font-size="14" lengthAdjust="spacing" textLength="129" x="253" y="55.9883">detectors[] : Detector</text><text fill="#000000" font-family="sans-serif" font-size="14" lengthAdjust="spacing" textLength="100" x="253" y="72.3945">motors[] : Motor</text><text fill="#000000" font-family="sans-serif" font-size="14" lengthAdjust="spacing" textLength="110" x="253" y="88.8008">machine[] : Device</text><text fill="#000000" font-family="sans-serif" font-size="14" lengthAdjust="spacing" textLength="113" x="253" y="105.207">beamline[] : Device</text><text fill="#000000" font-family="sans-serif" font-size="14" lengthAdjust="spacing" textLength="131" x="253" y="121.6133">metadata : Metadata</text><text fill="#000000" font-family="sans-serif" font-size="14" lengthAdjust="spacing" textLength="70" x="253" y="138.0195">scan : Scan</text><text fill="#000000" font-family="sans-serif" font-size="14" lengthAdjust="spacing" textLength="80" x="253" y="154.4258">setup : Setup</text><text fill="#000000" font-family="sans-serif" font-size="14" lengthAdjust="spacing" textLength="185" x="253" y="170.832">log_messages[] : LogMessage</text><line style="stroke:#181818;stroke-width:0.5;" x1="248" x2="443" y1="178.25" y2="178.25"/></g><!--class Metadata--><g id="elem_Metadata"><rect codeLine="19" fill="#F1F1F1" height="48" id="Metadata" rx="2.5" ry="2.5" style="stroke:#181818;stroke-width:0.5;" width="93" x="7" y="270.5"/><ellipse cx="22" cy="286.5" fill="#ADD1B2" rx="11" ry="11" style="stroke:#181818;stroke-width:1.0;"/><path d="M22.0469,292.7031 C23.5469,292.7031 24.7813,292.1406 25.6875,291.0781 L24.3125,289.5625 C23.7656,290.1563 23.1094,290.5469 22.3125,290.5469 C20.6406,290.5469 19.4844,289.2188 19.4844,286.9375 C19.4844,284.7188 20.6406,283.375 22.2031,283.375 C23.0156,283.375 23.6094,283.6875 24.1406,284.1719 L25.5156,282.625 C24.7656,281.8906 23.6094,281.2188 22.2031,281.2188 C19.25,281.2188 16.9219,283.3594 16.9219,287.0313 C16.9219,290.75 19.2969,292.7031 22.0469,292.7031 Z " fill="#000000"/><text fill="#000000" font-family="sans-serif" font-size="14" lengthAdjust="spacing" textLength="61" x="36" y="291.2852">Metadata</text><line style="stroke:#181818;stroke-width:0.5;" x1="8" x2="99" y1="302.5" y2="302.5"/><line style="stroke:#181818;stroke-width:0.5;" x1="8" x2="99" y1="310.5" y2="310.5"/></g><!--class Detector--><g id="elem_Detector"><rect codeLine="22" fill="#F1F1F1" height="97.2188" id="Detector" rx="2.5" ry="2.5" style="stroke:#181818;stroke-width:0.5;" width="196" x="135.5" y="246"/><ellipse cx="202.75" cy="262" fill="#ADD1B2" rx="11" ry="11" style="stroke:#181818;stroke-width:1.0;"/><path d="M202.7969,268.2031 C204.2969,268.2031 205.5313,267.6406 206.4375,266.5781 L205.0625,265.0625 C204.5156,265.6563 203.8594,266.0469 203.0625,266.0469 C201.3906,266.0469 200.2344,264.7188 200.2344,262.4375 C200.2344,260.2188 201.3906,258.875 202.9531,258.875 C203.7656,258.875 204.3594,259.1875 204.8906,259.6719 L206.2656,258.125 C205.5156,257.3906 204.3594,256.7188 202.9531,256.7188 C200,256.7188 197.6719,258.8594 197.6719,262.5313 C197.6719,266.25 200.0469,268.2031 202.7969,268.2031 Z " fill="#000000"/><text fill="#000000" font-family="sans-serif" font-size="14" lengthAdjust="spacing" textLength="53" x="223.25" y="266.7852">Detector</text><line style="stroke:#181818;stroke-width:0.5;" x1="136.5" x2="330.5" y1="278" y2="278"/><text fill="#000000" font-family="sans-serif" font-size="14" lengthAdjust="spacing" textLength="154" x="141.5" y="294.9883">channels[] : ChannelData</text><text fill="#000000" font-family="sans-serif" font-size="14" lengthAdjust="spacing" textLength="136" x="141.5" y="311.3945">options[] : OptionData</text><text fill="#000000" font-family="sans-serif" font-size="14" lengthAdjust="spacing" textLength="184" x="141.5" y="327.8008">metadata : DetectorMetadata</text><line style="stroke:#181818;stroke-width:0.5;" x1="136.5" x2="330.5" y1="335.2188" y2="335.2188"/></g><!--class Motor--><g id="elem_Motor"><rect codeLine="28" fill="#F1F1F1" height="97.2188" id="Motor" rx="2.5" ry="2.5" style="stroke:#181818;stroke-width:0.5;" width="181" x="367" y="246"/><ellipse cx="434.25" cy="262" fill="#ADD1B2" rx="11" ry="11" style="stroke:#181818;stroke-width:1.0;"/><path d="M434.2969,268.2031 C435.7969,268.2031 437.0313,267.6406 437.9375,266.5781 L436.5625,265.0625 C436.0156,265.6563 435.3594,266.0469 434.5625,266.0469 C432.8906,266.0469 431.7344,264.7188 431.7344,262.4375 C431.7344,260.2188 432.8906,258.875 434.4531,258.875 C435.2656,258.875 435.8594,259.1875 436.3906,259.6719 L437.7656,258.125 C437.0156,257.3906 435.8594,256.7188 434.4531,256.7188 C431.5,256.7188 429.1719,258.8594 429.1719,262.5313 C429.1719,266.25 431.5469,268.2031 434.2969,268.2031 Z " fill="#000000"/><text fill="#000000" font-family="sans-serif" font-size="14" lengthAdjust="spacing" textLength="38" x="454.75" y="266.7852">Motor</text><line style="stroke:#181818;stroke-width:0.5;" x1="368" x2="547" y1="278" y2="278"/><text fill="#000000" font-family="sans-serif" font-size="14" lengthAdjust="spacing" textLength="102" x="373" y="294.9883">axes[] : AxisData</text><text fill="#000000" font-family="sans-serif" font-size="14" lengthAdjust="spacing" textLength="136" x="373" y="311.3945">options[] : OptionData</text><text fill="#000000" font-family="sans-serif" font-size="14" lengthAdjust="spacing" textLength="169" x="373" y="327.8008">metadata : MotorMetadata</text><line style="stroke:#181818;stroke-width:0.5;" x1="368" x2="547" y1="335.2188" y2="335.2188"/></g><!--class Device--><g id="elem_Device"><rect codeLine="34" fill="#F1F1F1" height="48" id="Device" rx="2.5" ry="2.5" style="stroke:#181818;stroke-width:0.5;" width="72" x="583.5" y="270.5"/><ellipse cx="598.5" cy="286.5" fill="#ADD1B2" rx="11" ry="11" style="stroke:#181818;stroke-width:1.0;"/><path d="M598.5469,292.7031 C600.0469,292.7031 601.2813,292.1406 602.1875,291.0781 L600.8125,289.5625 C600.2656,290.1563 599.6094,290.5469 598.8125,290.5469 C597.1406,290.5469 595.9844,289.2188 595.9844,286.9375 C595.9844,284.7188 597.1406,283.375 598.7031,283.375 C599.5156,283.375 600.1094,283.6875 600.6406,284.1719 L602.0156,282.625 C601.2656,281.8906 600.1094,281.2188 598.7031,281.2188 C595.75,281.2188 593.4219,283.3594 593.4219,287.0313 C593.4219,290.75 595.7969,292.7031 598.5469,292.7031 Z " fill="#000000"/><text fill="#000000" font-family="sans-serif" font-size="14" lengthAdjust="spacing" textLength="40" x="612.5" y="291.2852">Device</text><line style="stroke:#181818;stroke-width:0.5;" x1="584.5" x2="654.5" y1="302.5" y2="302.5"/><line style="stroke:#181818;stroke-width:0.5;" x1="584.5" x2="654.5" y1="310.5" y2="310.5"/></g><!--reverse link Measurement to Metadata--><g id="link_Measurement_Metadata"><path codeLine="14" d="M236.9027,166.2898 C196.4127,192.3798 159.38,216.86 117.5,246 C106.37,253.74 94.38,262.52 83.82,270.4 " fill="none" id="Measurement-backto-Metadata" style="stroke:#181818;stroke-width:1.0;"/><polygon fill="#181818" points="246.99,159.79,239.7798,159.6775,236.9027,166.2898,244.113,166.4023,246.99,159.79" style="stroke:#181818;stroke-width:1.0;"/></g><!--reverse link Measurement to Detector--><g id="link_Measurement_Detector"><path codeLine="15" d="M288.9547,196.458 C277.1847,217.048 271.05,227.79 260.74,245.82 " fill="none" id="Measurement-backto-Detector" style="stroke:#181818;stroke-width:1.0;"/><polygon fill="#181818" points="294.91,186.04,288.4597,189.2639,288.9547,196.458,295.405,193.2341,294.91,186.04" style="stroke:#181818;stroke-width:1.0;"/></g><!--reverse link Measurement to Motor--><g id="link_Measurement_Motor"><path codeLine="16" d="M402.0453,196.458 C413.8153,217.048 419.95,227.79 430.26,245.82 " fill="none" id="Measurement-backto-Motor" style="stroke:#181818;stroke-width:1.0;"/><polygon fill="#181818" points="396.09,186.04,395.595,193.2341,402.0453,196.458,402.5403,189.2639,396.09,186.04" style="stroke:#181818;stroke-width:1.0;"/></g><!--reverse link Measurement to Device--><g id="link_Measurement_Device"><path codeLine="17" d="M454.048,166.7511 C492.698,192.3211 526.93,216.21 565.5,246 C575.28,253.56 585.58,262.37 594.52,270.34 " fill="none" id="Measurement-backto-Device" style="stroke:#181818;stroke-width:1.0;"/><polygon fill="#181818" points="444.04,160.13,446.837,166.7766,454.048,166.7511,451.2511,160.1045,444.04,160.13" style="stroke:#181818;stroke-width:1.0;"/></g><!--SRC=[bP0nJyGm38Nt_8fiI4Yb-ss86waO61529hNQI4bSrIuwwSH_ftNISE9keKloFZVFVhuRHIO-jEqK8CaImuEZsBe0p4tlOPWX6gFITWYyp1WnYJqRktuz2ZgXcT_UxS4UYz9IfCexgX3Sw1EMlx-yGyMV237Su145UX3OFCfLEJj8AtjTZwnHbca3swaaqF0HaHa6p3Cyqz1bRRwDkKnotpI_xdyBDTBL2xf5o-nrNsNyyzOpizsmBD2Da1A6FEDJ5iSz9atYAUNQYzvhwM8pksFDK7lfZAKHdCeY7a-U_zb1VQxjSrWDzmC0]--></g></svg>