<?xml version="1.0" encoding="us-ascii" standalone="no"?><svg xmlns="http://www.w3.org/2000/svg" xmlns:xlink="http://www.w3.org/1999/xlink" contentStyleType="text/css" height="393px" preserveAspectRatio="none" style="width:604px;height:393px;background:#FFFFFF;" version="1.1" viewBox="0 0 604 393" width="604px" zoomAndPan="magnify"><defs/><g><!--class HDF5Item--><g id="elem_HDF5Item"><rect codeLine="3" fill="#F1F1F1" height="113.625" id="HDF5Item" rx="2.5" ry="2.5" style="stroke:#181818;stroke-width:0.5;" width="110" x="220.5" y="7"/><ellipse cx="242.25" cy="23" fill="#ADD1B2" rx="11" ry="11" style="stroke:#181818;stroke-width:1.0;"/><path d="M242.2969,29.2031 C243.7969,29.2031 245.0313,28.6406 245.9375,27.5781 L244.5625,26.0625 C244.0156,26.6563 243.3594,27.0469 242.5625,27.0469 C240.8906,27.0469 239.7344,25.7188 239.7344,23.4375 C239.7344,21.2188 240.8906,19.875 242.4531,19.875 C243.2656,19.875 243.8594,20.1875 244.3906,20.6719 L245.7656,19.125 C245.0156,18.3906 243.8594,17.7188 242.4531,17.7188 C239.5,17.7188 237.1719,19.8594 237.1719,23.5313 C237.1719,27.25 239.5469,29.2031 242.2969,29.2031 Z " fill="#000000"/><text fill="#000000" font-family="sans-serif" font-size="14" lengthAdjust="spacing" textLength="63" x="257.75" y="27.7852">HDF5Item</text><line style="stroke:#181818;stroke-width:0.5;" x1="221.5" x2="329.5" y1="39" y2="39"/><text fill="#000000" font-family="sans-serif" font-size="14" lengthAdjust="spacing" textLength="98" x="226.5" y="55.9883">filename : string</text><text fill="#000000" font-family="sans-serif" font-size="14" lengthAdjust="spacing" textLength="80" x="226.5" y="72.3945">name : string</text><text fill="#000000" font-family="sans-serif" font-size="14" lengthAdjust="spacing" textLength="93" x="226.5" y="88.8008">attributes : dict</text><line style="stroke:#181818;stroke-width:0.5;" x1="221.5" x2="329.5" y1="96.2188" y2="96.2188"/><text fill="#000000" font-family="sans-serif" font-size="14" lengthAdjust="spacing" textLength="97" x="226.5" y="113.207">get_attributes()</text></g><path d="M366,16 L366,55.0859 L324.5,51.2031 L366,63.0859 L366,102.1719 A0,0 0 0 0 366,102.1719 L597,102.1719 A0,0 0 0 0 597,102.1719 L597,26 L587,16 L366,16 A0,0 0 0 0 366,16 " fill="#FEFFDD" style="stroke:#181818;stroke-width:0.5;"/><path d="M587,16 L587,26 L597,26 L587,16 " fill="#FEFFDD" style="stroke:#181818;stroke-width:0.5;"/><text fill="#000000" font-family="sans-serif" font-size="13" lengthAdjust="spacing" textLength="210" x="372" y="33.0605">filename is the name (including path)</text><text fill="#000000" font-family="sans-serif" font-size="13" lengthAdjust="spacing" textLength="173" x="372" y="48.2949">of the HDF5 file originally read.</text><text fill="#000000" font-family="sans-serif" font-size="13" lengthAdjust="spacing" textLength="187" x="372" y="63.5293">Together with the name attribute,</text><text fill="#000000" font-family="sans-serif" font-size="13" lengthAdjust="spacing" textLength="178" x="372" y="78.7637">this makes accessing contents</text><text fill="#000000" font-family="sans-serif" font-size="13" lengthAdjust="spacing" textLength="186" x="372" y="93.998">on demand (deferred load) trivial.</text><path d="M24,23.5 L24,94.4375 A0,0 0 0 0 24,94.4375 L185,94.4375 A0,0 0 0 0 185,94.4375 L185,62.9688 L224.5,67.6094 L185,54.9688 L185,33.5 L175,23.5 L24,23.5 A0,0 0 0 0 24,23.5 " fill="#FEFFDD" style="stroke:#181818;stroke-width:0.5;"/><path d="M175,23.5 L175,33.5 L185,33.5 L175,23.5 " fill="#FEFFDD" style="stroke:#181818;stroke-width:0.5;"/><text fill="#000000" font-family="sans-serif" font-size="13" lengthAdjust="spacing" textLength="115" x="30" y="40.5605">name is the full path</text><text fill="#000000" font-family="sans-serif" font-size="13" lengthAdjust="spacing" textLength="98" x="30" y="55.7949">to the HDF5 item,</text><text fill="#000000" font-family="sans-serif" font-size="13" lengthAdjust="spacing" textLength="140" x="30" y="71.0293">necessary for accessing</text><text fill="#000000" font-family="sans-serif" font-size="13" lengthAdjust="spacing" textLength="49" x="30" y="86.2637">via h5py.</text><!--class HDF5Group--><g id="elem_HDF5Group"><rect codeLine="25" fill="#F1F1F1" height="64.4063" id="HDF5Group" rx="2.5" ry="2.5" style="stroke:#181818;stroke-width:0.5;" width="141" x="7" y="189.5"/><ellipse cx="37.75" cy="205.5" fill="#ADD1B2" rx="11" ry="11" style="stroke:#181818;stroke-width:1.0;"/><path d="M37.7969,211.7031 C39.2969,211.7031 40.5313,211.1406 41.4375,210.0781 L40.0625,208.5625 C39.5156,209.1563 38.8594,209.5469 38.0625,209.5469 C36.3906,209.5469 35.2344,208.2188 35.2344,205.9375 C35.2344,203.7188 36.3906,202.375 37.9531,202.375 C38.7656,202.375 39.3594,202.6875 39.8906,203.1719 L41.2656,201.625 C40.5156,200.8906 39.3594,200.2188 37.9531,200.2188 C35,200.2188 32.6719,202.3594 32.6719,206.0313 C32.6719,209.75 35.0469,211.7031 37.7969,211.7031 Z " fill="#000000"/><text fill="#000000" font-family="sans-serif" font-size="14" lengthAdjust="spacing" textLength="74" x="55.25" y="210.2852">HDF5Group</text><line style="stroke:#181818;stroke-width:0.5;" x1="8" x2="147" y1="221.5" y2="221.5"/><text fill="#000000" font-family="sans-serif" font-size="14" lengthAdjust="spacing" textLength="129" x="13" y="238.4883">children[] : HDF5Item</text><line style="stroke:#181818;stroke-width:0.5;" x1="8" x2="147" y1="245.9063" y2="245.9063"/></g><path d="M183,181 L183,212.4688 L142,233.7031 L183,220.4688 L183,251.9375 A0,0 0 0 0 183,251.9375 L380,251.9375 A0,0 0 0 0 380,251.9375 L380,191 L370,181 L183,181 A0,0 0 0 0 183,181 " fill="#FEFFDD" style="stroke:#181818;stroke-width:0.5;"/><path d="M370,181 L370,191 L380,191 L370,181 " fill="#FEFFDD" style="stroke:#181818;stroke-width:0.5;"/><text fill="#000000" font-family="sans-serif" font-size="13" lengthAdjust="spacing" textLength="141" x="189" y="198.0605">Make children a dict with</text><text fill="#000000" font-family="sans-serif" font-size="13" lengthAdjust="spacing" textLength="141" x="189" y="213.2949">the item names as keys?</text><text fill="#000000" font-family="sans-serif" font-size="13" lengthAdjust="spacing" textLength="176" x="189" y="228.5293">Alternatively, make HDF5Group</text><text fill="#000000" font-family="sans-serif" font-size="13" lengthAdjust="spacing" textLength="146" x="189" y="243.7637">behave like a Python dict?</text><!--class HDF5Dataset--><g id="elem_HDF5Dataset"><rect codeLine="36" fill="#F1F1F1" height="80.8125" id="HDF5Dataset" rx="2.5" ry="2.5" style="stroke:#181818;stroke-width:0.5;" width="116" x="415.5" y="181"/><ellipse cx="430.5" cy="197" fill="#ADD1B2" rx="11" ry="11" style="stroke:#181818;stroke-width:1.0;"/><path d="M430.5469,203.2031 C432.0469,203.2031 433.2813,202.6406 434.1875,201.5781 L432.8125,200.0625 C432.2656,200.6563 431.6094,201.0469 430.8125,201.0469 C429.1406,201.0469 427.9844,199.7188 427.9844,197.4375 C427.9844,195.2188 429.1406,193.875 430.7031,193.875 C431.5156,193.875 432.1094,194.1875 432.6406,194.6719 L434.0156,193.125 C433.2656,192.3906 432.1094,191.7188 430.7031,191.7188 C427.75,191.7188 425.4219,193.8594 425.4219,197.5313 C425.4219,201.25 427.7969,203.2031 430.5469,203.2031 Z " fill="#000000"/><text fill="#000000" font-family="sans-serif" font-size="14" lengthAdjust="spacing" textLength="84" x="444.5" y="201.7852">HDF5Dataset</text><line style="stroke:#181818;stroke-width:0.5;" x1="416.5" x2="530.5" y1="213" y2="213"/><text fill="#000000" font-family="sans-serif" font-size="14" lengthAdjust="spacing" textLength="91" x="421.5" y="229.9883">data : nd.array</text><line style="stroke:#181818;stroke-width:0.5;" x1="416.5" x2="530.5" y1="237.4063" y2="237.4063"/><text fill="#000000" font-family="sans-serif" font-size="14" lengthAdjust="spacing" textLength="65" x="421.5" y="254.3945">get_data()</text></g><!--class HDF5File--><g id="elem_HDF5File"><rect codeLine="42" fill="#F1F1F1" height="64.4063" id="HDF5File" rx="2.5" ry="2.5" style="stroke:#181818;stroke-width:0.5;" width="88" x="33.5" y="322"/><ellipse cx="48.5" cy="338" fill="#ADD1B2" rx="11" ry="11" style="stroke:#181818;stroke-width:1.0;"/><path d="M48.5469,344.2031 C50.0469,344.2031 51.2813,343.6406 52.1875,342.5781 L50.8125,341.0625 C50.2656,341.6563 49.6094,342.0469 48.8125,342.0469 C47.1406,342.0469 45.9844,340.7188 45.9844,338.4375 C45.9844,336.2188 47.1406,334.875 48.7031,334.875 C49.5156,334.875 50.1094,335.1875 50.6406,335.6719 L52.0156,334.125 C51.2656,333.3906 50.1094,332.7188 48.7031,332.7188 C45.75,332.7188 43.4219,334.8594 43.4219,338.5313 C43.4219,342.25 45.7969,344.2031 48.5469,344.2031 Z " fill="#000000"/><text fill="#000000" font-family="sans-serif" font-size="14" lengthAdjust="spacing" textLength="56" x="62.5" y="342.7852">HDF5File</text><line style="stroke:#181818;stroke-width:0.5;" x1="34.5" x2="120.5" y1="354" y2="354"/><line style="stroke:#181818;stroke-width:0.5;" x1="34.5" x2="120.5" y1="362" y2="362"/><text fill="#000000" font-family="sans-serif" font-size="14" lengthAdjust="spacing" textLength="38" x="39.5" y="378.9883">read()</text></g><!--reverse link HDF5Item to HDF5Group--><g id="link_HDF5Item_HDF5Group"><path d="M206.1936,119.4374 C173.3536,145.2274 146.6,166.23 116.99,189.49 " fill="none" id="HDF5Item-backto-HDF5Group" style="stroke:#181818;stroke-width:1.0;"/><polygon fill="none" points="220.35,108.32,202.4878,114.7186,209.8994,124.1562,220.35,108.32" style="stroke:#181818;stroke-width:1.0;"/></g><!--reverse link HDF5Item to HDF5Dataset--><g id="link_HDF5Item_HDF5Dataset"><path d="M344.8076,119.4358 C373.7576,142.1658 394.82,158.71 423.05,180.88 " fill="none" id="HDF5Item-backto-HDF5Dataset" style="stroke:#181818;stroke-width:1.0;"/><polygon fill="none" points="330.65,108.32,341.1024,124.155,348.5129,114.7166,330.65,108.32" style="stroke:#181818;stroke-width:1.0;"/></g><!--reverse link HDF5Group to HDF5File--><g id="link_HDF5Group_HDF5File"><path d="M77.5,271.76 C77.5,292.42 77.5,301.39 77.5,322 " fill="none" id="HDF5Group-backto-HDF5File" style="stroke:#181818;stroke-width:1.0;"/><polygon fill="none" points="77.5,253.76,71.5,271.76,83.5,271.76,77.5,253.76" style="stroke:#181818;stroke-width:1.0;"/></g><!--SRC=[TL8xRzim4DxrAswh3RZsv4MBKS18sY50Xcv5KLp4aqcO8WNov5Oe-jzxFCMIwpIUv7jyh-C7ozpdUhVhFGOUEhzjOhThFERyqJWy9UogIl_2v-F3_WjJ1xyha5_hF0Ni26h8d5muQVLj1Lc-NmQcB7NZ6jRgYVZ7qbcjgpzL5I8J97Uo3B6TwUfwPheZTXdOqaIvSg7nWn5Iw97jMYS5fGmK9Ds2AEWkeFSZ94AprQclKSHOIl3JiLqGPtKRdM8hT1sUnGOs3ULSg9eOc0BdYIs0eGw3WPMXbb8Y0pwYMOC0NHpwxMpIKtldySRVhRTsy5uDJHhYuiV9sgGiK963QOGsfaMSzeGMxBuVbNevusEAGm_qIyIRDuTjhFCcKVZsNGvsxVt_FefJrzUDLu0dIMb60TIZQxYlGPAALvyIPeOpZVcWlK-UAGLaTo4_RZJkXKSdNiZYHG9qqa5u7jcMs8NWyA_38p9culSy6ccBks2sc1AEyvCizUantc0zbATp2pJ5Do6LTrGs_W80]--></g></svg>