<?xml version="1.0" encoding="us-ascii" standalone="no"?><svg xmlns="http://www.w3.org/2000/svg" xmlns:xlink="http://www.w3.org/1999/xlink" contentStyleType="text/css" height="394.8px" preserveAspectRatio="none" style="width:939px;height:394px;background:#FFFFFF;" version="1.1" viewBox="0 0 939 394" width="939px" zoomAndPan="magnify"><defs/><g><!--class Metadata--><g id="elem_Metadata"><rect codeLine="2" fill="#F1F1F1" height="48.4875" id="Metadata" rx="1.5" ry="1.5" style="stroke:#181818;stroke-width:0.3;" width="55.8" x="225" y="4.2"/><ellipse cx="234" cy="13.8" fill="#ADD1B2" rx="6.6" ry="6.6" style="stroke:#181818;stroke-width:0.6;"/><path d="M234.0281,17.5219 C234.9281,17.5219 235.6688,17.1844 236.2125,16.5469 L235.3875,15.6375 C235.0594,15.9937 234.6656,16.2281 234.1875,16.2281 C233.1844,16.2281 232.4906,15.4312 232.4906,14.0625 C232.4906,12.7313 233.1844,11.925 234.1219,11.925 C234.6094,11.925 234.9656,12.1125 235.2844,12.4031 L236.1094,11.475 C235.6594,11.0344 234.9656,10.6313 234.1219,10.6313 C232.35,10.6313 230.9531,11.9156 230.9531,14.1188 C230.9531,16.35 232.3781,17.5219 234.0281,17.5219 Z " fill="#000000"/><text fill="#000000" font-family="sans-serif" font-size="8.4" lengthAdjust="spacing" textLength="36.6" x="242.4" y="16.6711">Metadata</text><line style="stroke:#181818;stroke-width:0.3;" x1="225.6" x2="280.2" y1="23.4" y2="23.4"/><text fill="#000000" font-family="sans-serif" font-size="8.4" lengthAdjust="spacing" textLength="48" x="228.6" y="33.593">name : string</text><text fill="#000000" font-family="sans-serif" font-size="8.4" lengthAdjust="spacing" textLength="47.4" x="228.6" y="43.4367">options : dict</text><line style="stroke:#181818;stroke-width:0.3;" x1="225.6" x2="280.2" y1="47.8875" y2="47.8875"/></g><path d="M301.8,8.4 L301.8,23.0429 L276,40.5656 L301.8,27.8429 L301.8,42.4859 A0,0 0 0 0 301.8,42.4859 L567.6,42.4859 A0,0 0 0 0 567.6,42.4859 L567.6,14.4 L561.6,8.4 L301.8,8.4 A0,0 0 0 0 301.8,8.4 " fill="#FEFFDD" style="stroke:#181818;stroke-width:0.3;"/><path d="M561.6,8.4 L561.6,14.4 L567.6,14.4 L561.6,8.4 " fill="#FEFFDD" style="stroke:#181818;stroke-width:0.3;"/><text fill="#000000" font-family="sans-serif" font-size="7.8" lengthAdjust="spacing" textLength="81.6" x="305.4" y="19.3003">The difference between</text><text fill="#000000" font-family="monospace" font-size="7.8" lengthAdjust="spacing" textLength="33.6" x="388.8" y="19.0752">options</text><text fill="#000000" font-family="sans-serif" font-size="7.8" lengthAdjust="spacing" textLength="71.4" x="424.2" y="19.3003">here in Metadata and</text><text fill="#000000" font-family="monospace" font-size="7.8" lengthAdjust="spacing" textLength="33.6" x="497.4" y="19.0752">options</text><text fill="#000000" font-family="sans-serif" font-size="7.8" lengthAdjust="spacing" textLength="25.8" x="532.8" y="19.3003">in Data:</text><text fill="#000000" font-family="sans-serif" font-size="7.8" lengthAdjust="spacing" textLength="231.6" x="305.4" y="28.4409">Options in Data vary potentially for each data point, hence are arrays,</text><text fill="#000000" font-family="sans-serif" font-size="7.8" lengthAdjust="spacing" textLength="241.8" x="305.4" y="37.5816">while options in Metadata are scalar and don't change for a Data object.</text><!--class Data--><g id="elem_Data"><rect codeLine="12" fill="#F1F1F1" height="28.8" id="Data" rx="1.5" ry="1.5" style="stroke:#181818;stroke-width:0.3;" width="37.2" x="166.5" y="14.1"/><ellipse cx="175.5" cy="23.7" fill="#ADD1B2" rx="6.6" ry="6.6" style="stroke:#181818;stroke-width:0.6;"/><path d="M175.5281,27.4219 C176.4281,27.4219 177.1688,27.0844 177.7125,26.4469 L176.8875,25.5375 C176.5594,25.8938 176.1656,26.1281 175.6875,26.1281 C174.6844,26.1281 173.9906,25.3313 173.9906,23.9625 C173.9906,22.6312 174.6844,21.825 175.6219,21.825 C176.1094,21.825 176.4656,22.0125 176.7844,22.3031 L177.6094,21.375 C177.1594,20.9344 176.4656,20.5313 175.6219,20.5313 C173.85,20.5313 172.4531,21.8156 172.4531,24.0188 C172.4531,26.25 173.8781,27.4219 175.5281,27.4219 Z " fill="#000000"/><text fill="#000000" font-family="sans-serif" font-size="8.4" lengthAdjust="spacing" textLength="18" x="183.9" y="26.5711">Data</text><line style="stroke:#181818;stroke-width:0.3;" x1="167.1" x2="203.1" y1="33.3" y2="33.3"/><line style="stroke:#181818;stroke-width:0.3;" x1="167.1" x2="203.1" y1="38.1" y2="38.1"/></g><g id="elem_GMN6"><path d="M151.8,105.9 L151.8,130.1813 A0,0 0 0 0 151.8,130.1813 L218.4,130.1813 A0,0 0 0 0 218.4,130.1813 L218.4,111.9 L212.4,105.9 L187.5,105.9 L185.1,43.074 L182.7,105.9 L151.8,105.9 A0,0 0 0 0 151.8,105.9 " fill="#FEFFDD" style="stroke:#181818;stroke-width:0.3;"/><path d="M212.4,105.9 L212.4,111.9 L218.4,111.9 L212.4,105.9 " fill="#FEFFDD" style="stroke:#181818;stroke-width:0.3;"/><text fill="#000000" font-family="sans-serif" font-size="7.8" lengthAdjust="spacing" textLength="54" x="155.4" y="116.1363">See diagram for</text><text fill="#000000" font-family="sans-serif" font-size="7.8" lengthAdjust="spacing" textLength="43.8" x="155.4" y="125.277">data module.</text></g><!--class AbstractDeviceMetadata--><g id="elem_AbstractDeviceMetadata"><rect codeLine="16" fill="#F1F1F1" height="58.3313" id="AbstractDeviceMetadata" rx="1.5" ry="1.5" style="stroke:#181818;stroke-width:0.3;" width="107.4" x="292.8" y="88.8"/><ellipse cx="301.8" cy="98.4" fill="#B4A7E5" rx="6.6" ry="6.6" style="stroke:#181818;stroke-width:0.6;"/><path d="M299.5594,102 L304.1625,102 L304.1625,100.7344 L302.6156,100.7344 L302.6156,96.6187 L304.1625,96.6187 L304.1625,95.3531 L299.5594,95.3531 L299.5594,96.6187 L301.1063,96.6187 L301.1063,100.7344 L299.5594,100.7344 L299.5594,102 Z " fill="#000000"/><text fill="#000000" font-family="sans-serif" font-size="8.4" font-style="italic" lengthAdjust="spacing" textLength="88.2" x="310.2" y="101.2711">AbstractDeviceMetadata</text><line style="stroke:#181818;stroke-width:0.3;" x1="293.4" x2="399.6" y1="108" y2="108"/><text fill="#000000" font-family="sans-serif" font-size="8.4" lengthAdjust="spacing" textLength="33.6" x="296.4" y="118.193">id : string</text><text fill="#000000" font-family="sans-serif" font-size="8.4" lengthAdjust="spacing" textLength="36" x="296.4" y="128.0367">pv : string</text><text fill="#000000" font-family="sans-serif" font-size="8.4" lengthAdjust="spacing" textLength="77.4" x="296.4" y="137.8805">access_mode : string</text><line style="stroke:#181818;stroke-width:0.3;" x1="293.4" x2="399.6" y1="142.3312" y2="142.3312"/></g><!--class MeasureMetadata--><g id="elem_MeasureMetadata"><rect codeLine="22" fill="#F1F1F1" height="38.6438" id="MeasureMetadata" rx="1.5" ry="1.5" style="stroke:#181818;stroke-width:0.3;" width="88.2" x="421.2" y="98.7"/><ellipse cx="430.2" cy="108.3" fill="#ADD1B2" rx="6.6" ry="6.6" style="stroke:#181818;stroke-width:0.6;"/><path d="M430.2281,112.0219 C431.1281,112.0219 431.8688,111.6844 432.4125,111.0469 L431.5875,110.1375 C431.2594,110.4937 430.8656,110.7281 430.3875,110.7281 C429.3844,110.7281 428.6906,109.9312 428.6906,108.5625 C428.6906,107.2313 429.3844,106.425 430.3219,106.425 C430.8094,106.425 431.1656,106.6125 431.4844,106.9031 L432.3094,105.975 C431.8594,105.5344 431.1656,105.1313 430.3219,105.1313 C428.55,105.1313 427.1531,106.4156 427.1531,108.6187 C427.1531,110.85 428.5781,112.0219 430.2281,112.0219 Z " fill="#000000"/><text fill="#000000" font-family="sans-serif" font-size="8.4" lengthAdjust="spacing" textLength="69" x="438.6" y="111.1711">MeasureMetadata</text><line style="stroke:#181818;stroke-width:0.3;" x1="421.8" x2="508.8" y1="117.9" y2="117.9"/><text fill="#000000" font-family="sans-serif" font-size="8.4" lengthAdjust="spacing" textLength="41.4" x="424.8" y="128.093">unit : string</text><line style="stroke:#181818;stroke-width:0.3;" x1="421.8" x2="508.8" y1="132.5438" y2="132.5438"/></g><!--class MonitorMetadata--><g id="elem_MonitorMetadata"><rect codeLine="26" fill="#F1F1F1" height="28.8" id="MonitorMetadata" rx="1.5" ry="1.5" style="stroke:#181818;stroke-width:0.3;" width="85.2" x="200.1" y="187.8"/><ellipse cx="209.1" cy="197.4" fill="#ADD1B2" rx="6.6" ry="6.6" style="stroke:#181818;stroke-width:0.6;"/><path d="M209.1281,201.1219 C210.0281,201.1219 210.7687,200.7844 211.3125,200.1469 L210.4875,199.2375 C210.1594,199.5938 209.7656,199.8281 209.2875,199.8281 C208.2844,199.8281 207.5906,199.0313 207.5906,197.6625 C207.5906,196.3312 208.2844,195.525 209.2219,195.525 C209.7094,195.525 210.0656,195.7125 210.3844,196.0031 L211.2094,195.075 C210.7594,194.6344 210.0656,194.2313 209.2219,194.2313 C207.45,194.2313 206.0531,195.5156 206.0531,197.7188 C206.0531,199.95 207.4781,201.1219 209.1281,201.1219 Z " fill="#000000"/><text fill="#000000" font-family="sans-serif" font-size="8.4" lengthAdjust="spacing" textLength="66" x="217.5" y="200.2711">MonitorMetadata</text><line style="stroke:#181818;stroke-width:0.3;" x1="200.7" x2="284.7" y1="207" y2="207"/><line style="stroke:#181818;stroke-width:0.3;" x1="200.7" x2="284.7" y1="211.8" y2="211.8"/></g><!--class DeviceMetadata--><g id="elem_DeviceMetadata"><rect codeLine="29" fill="#F1F1F1" height="28.8" id="DeviceMetadata" rx="1.5" ry="1.5" style="stroke:#181818;stroke-width:0.3;" width="79.8" x="306.6" y="187.8"/><ellipse cx="315.6" cy="197.4" fill="#ADD1B2" rx="6.6" ry="6.6" style="stroke:#181818;stroke-width:0.6;"/><path d="M315.6281,201.1219 C316.5281,201.1219 317.2688,200.7844 317.8125,200.1469 L316.9875,199.2375 C316.6594,199.5938 316.2656,199.8281 315.7875,199.8281 C314.7844,199.8281 314.0906,199.0313 314.0906,197.6625 C314.0906,196.3312 314.7844,195.525 315.7219,195.525 C316.2094,195.525 316.5656,195.7125 316.8844,196.0031 L317.7094,195.075 C317.2594,194.6344 316.5656,194.2313 315.7219,194.2313 C313.95,194.2313 312.5531,195.5156 312.5531,197.7188 C312.5531,199.95 313.9781,201.1219 315.6281,201.1219 Z " fill="#000000"/><text fill="#000000" font-family="sans-serif" font-size="8.4" lengthAdjust="spacing" textLength="60.6" x="324" y="200.2711">DeviceMetadata</text><line style="stroke:#181818;stroke-width:0.3;" x1="307.2" x2="385.8" y1="207" y2="207"/><line style="stroke:#181818;stroke-width:0.3;" x1="307.2" x2="385.8" y1="211.8" y2="211.8"/></g><!--class AxisMetadata--><g id="elem_AxisMetadata"><rect codeLine="32" fill="#F1F1F1" height="38.6438" id="AxisMetadata" rx="1.5" ry="1.5" style="stroke:#181818;stroke-width:0.3;" width="71.4" x="407.4" y="183"/><ellipse cx="416.4" cy="192.6" fill="#ADD1B2" rx="6.6" ry="6.6" style="stroke:#181818;stroke-width:0.6;"/><path d="M416.4281,196.3219 C417.3281,196.3219 418.0687,195.9844 418.6125,195.3469 L417.7875,194.4375 C417.4594,194.7938 417.0656,195.0281 416.5875,195.0281 C415.5844,195.0281 414.8906,194.2313 414.8906,192.8625 C414.8906,191.5313 415.5844,190.725 416.5219,190.725 C417.0094,190.725 417.3656,190.9125 417.6844,191.2031 L418.5094,190.275 C418.0594,189.8344 417.3656,189.4313 416.5219,189.4313 C414.75,189.4313 413.3531,190.7156 413.3531,192.9188 C413.3531,195.15 414.7781,196.3219 416.4281,196.3219 Z " fill="#000000"/><text fill="#000000" font-family="sans-serif" font-size="8.4" lengthAdjust="spacing" textLength="52.2" x="424.8" y="195.4711">AxisMetadata</text><line style="stroke:#181818;stroke-width:0.3;" x1="408" x2="478.2" y1="202.2" y2="202.2"/><text fill="#000000" font-family="sans-serif" font-size="8.4" lengthAdjust="spacing" textLength="60.6" x="411" y="212.393">deadband : float</text><line style="stroke:#181818;stroke-width:0.3;" x1="408" x2="478.2" y1="216.8438" y2="216.8438"/></g><!--class ChannelMetadata--><g id="elem_ChannelMetadata"><rect codeLine="36" fill="#F1F1F1" height="28.8" id="ChannelMetadata" rx="1.5" ry="1.5" style="stroke:#181818;stroke-width:0.3;" width="86.4" x="500.1" y="187.8"/><ellipse cx="509.1" cy="197.4" fill="#ADD1B2" rx="6.6" ry="6.6" style="stroke:#181818;stroke-width:0.6;"/><path d="M509.1281,201.1219 C510.0281,201.1219 510.7687,200.7844 511.3125,200.1469 L510.4875,199.2375 C510.1594,199.5938 509.7656,199.8281 509.2875,199.8281 C508.2844,199.8281 507.5906,199.0313 507.5906,197.6625 C507.5906,196.3312 508.2844,195.525 509.2219,195.525 C509.7094,195.525 510.0656,195.7125 510.3844,196.0031 L511.2094,195.075 C510.7594,194.6344 510.0656,194.2313 509.2219,194.2313 C507.45,194.2313 506.0531,195.5156 506.0531,197.7188 C506.0531,199.95 507.4781,201.1219 509.1281,201.1219 Z " fill="#000000"/><text fill="#000000" font-family="sans-serif" font-size="8.4" lengthAdjust="spacing" textLength="67.2" x="517.5" y="200.2711">ChannelMetadata</text><line style="stroke:#181818;stroke-width:0.3;" x1="500.7" x2="585.9" y1="207" y2="207"/><line style="stroke:#181818;stroke-width:0.3;" x1="500.7" x2="585.9" y1="211.8" y2="211.8"/></g><!--class TimestampMetadata--><g id="elem_TimestampMetadata"><rect codeLine="39" fill="#F1F1F1" height="28.8" id="TimestampMetadata" rx="1.5" ry="1.5" style="stroke:#181818;stroke-width:0.3;" width="97.8" x="607.8" y="187.8"/><ellipse cx="616.8" cy="197.4" fill="#ADD1B2" rx="6.6" ry="6.6" style="stroke:#181818;stroke-width:0.6;"/><path d="M616.8281,201.1219 C617.7281,201.1219 618.4688,200.7844 619.0125,200.1469 L618.1875,199.2375 C617.8594,199.5938 617.4656,199.8281 616.9875,199.8281 C615.9844,199.8281 615.2906,199.0313 615.2906,197.6625 C615.2906,196.3312 615.9844,195.525 616.9219,195.525 C617.4094,195.525 617.7656,195.7125 618.0844,196.0031 L618.9094,195.075 C618.4594,194.6344 617.7656,194.2313 616.9219,194.2313 C615.15,194.2313 613.7531,195.5156 613.7531,197.7188 C613.7531,199.95 615.1781,201.1219 616.8281,201.1219 Z " fill="#000000"/><text fill="#000000" font-family="sans-serif" font-size="8.4" lengthAdjust="spacing" textLength="78.6" x="625.2" y="200.2711">TimestampMetadata</text><line style="stroke:#181818;stroke-width:0.3;" x1="608.4" x2="705" y1="207" y2="207"/><line style="stroke:#181818;stroke-width:0.3;" x1="608.4" x2="705" y1="211.8" y2="211.8"/></g><!--class NonnumericChannelMetadata--><g id="elem_NonnumericChannelMetadata"><rect codeLine="45" fill="#F1F1F1" height="28.8" id="NonnumericChannelMetadata" rx="1.5" ry="1.5" style="stroke:#181818;stroke-width:0.3;" width="132" x="549.9" y="277.2"/><ellipse cx="558.9" cy="286.8" fill="#ADD1B2" rx="6.6" ry="6.6" style="stroke:#181818;stroke-width:0.6;"/><path d="M558.9281,290.5219 C559.8281,290.5219 560.5688,290.1844 561.1125,289.5469 L560.2875,288.6375 C559.9594,288.9938 559.5656,289.2281 559.0875,289.2281 C558.0844,289.2281 557.3906,288.4313 557.3906,287.0625 C557.3906,285.7313 558.0844,284.925 559.0219,284.925 C559.5094,284.925 559.8656,285.1125 560.1844,285.4031 L561.0094,284.475 C560.5594,284.0344 559.8656,283.6312 559.0219,283.6312 C557.25,283.6312 555.8531,284.9156 555.8531,287.1188 C555.8531,289.35 557.2781,290.5219 558.9281,290.5219 Z " fill="#000000"/><text fill="#000000" font-family="sans-serif" font-size="8.4" lengthAdjust="spacing" textLength="112.8" x="567.3" y="289.6711">NonnumericChannelMetadata</text><line style="stroke:#181818;stroke-width:0.3;" x1="550.5" x2="681.3" y1="296.4" y2="296.4"/><line style="stroke:#181818;stroke-width:0.3;" x1="550.5" x2="681.3" y1="301.2" y2="301.2"/></g><!--class ArrayChannelMetadata--><g id="elem_ArrayChannelMetadata"><rect codeLine="61" fill="#F1F1F1" height="28.8" id="ArrayChannelMetadata" rx="1.5" ry="1.5" style="stroke:#181818;stroke-width:0.3;" width="106.8" x="702.9" y="277.2"/><ellipse cx="711.9" cy="286.8" fill="#ADD1B2" rx="6.6" ry="6.6" style="stroke:#181818;stroke-width:0.6;"/><path d="M711.9281,290.5219 C712.8281,290.5219 713.5688,290.1844 714.1125,289.5469 L713.2875,288.6375 C712.9594,288.9938 712.5656,289.2281 712.0875,289.2281 C711.0844,289.2281 710.3906,288.4313 710.3906,287.0625 C710.3906,285.7313 711.0844,284.925 712.0219,284.925 C712.5094,284.925 712.8656,285.1125 713.1844,285.4031 L714.0094,284.475 C713.5594,284.0344 712.8656,283.6312 712.0219,283.6312 C710.25,283.6312 708.8531,284.9156 708.8531,287.1188 C708.8531,289.35 710.2781,290.5219 711.9281,290.5219 Z " fill="#000000"/><text fill="#000000" font-family="sans-serif" font-size="8.4" lengthAdjust="spacing" textLength="87.6" x="720.3" y="289.6711">ArrayChannelMetadata</text><line style="stroke:#181818;stroke-width:0.3;" x1="703.5" x2="809.1" y1="296.4" y2="296.4"/><line style="stroke:#181818;stroke-width:0.3;" x1="703.5" x2="809.1" y1="301.2" y2="301.2"/></g><!--class AreaChannelMetadata--><g id="elem_AreaChannelMetadata"><rect codeLine="64" fill="#F1F1F1" height="28.8" id="AreaChannelMetadata" rx="1.5" ry="1.5" style="stroke:#181818;stroke-width:0.3;" width="103.8" x="831" y="277.2"/><ellipse cx="840" cy="286.8" fill="#ADD1B2" rx="6.6" ry="6.6" style="stroke:#181818;stroke-width:0.6;"/><path d="M840.0281,290.5219 C840.9281,290.5219 841.6687,290.1844 842.2125,289.5469 L841.3875,288.6375 C841.0594,288.9938 840.6656,289.2281 840.1875,289.2281 C839.1844,289.2281 838.4906,288.4313 838.4906,287.0625 C838.4906,285.7313 839.1844,284.925 840.1219,284.925 C840.6094,284.925 840.9656,285.1125 841.2844,285.4031 L842.1094,284.475 C841.6594,284.0344 840.9656,283.6312 840.1219,283.6312 C838.35,283.6312 836.9531,284.9156 836.9531,287.1188 C836.9531,289.35 838.3781,290.5219 840.0281,290.5219 Z " fill="#000000"/><text fill="#000000" font-family="sans-serif" font-size="8.4" lengthAdjust="spacing" textLength="84.6" x="848.4" y="289.6711">AreaChannelMetadata</text><line style="stroke:#181818;stroke-width:0.3;" x1="831.6" x2="934.2" y1="296.4" y2="296.4"/><line style="stroke:#181818;stroke-width:0.3;" x1="831.6" x2="934.2" y1="301.2" y2="301.2"/></g><!--class SinglePointChannelMetadata--><g id="elem_SinglePointChannelMetadata"><rect codeLine="48" fill="#F1F1F1" height="28.8" id="SinglePointChannelMetadata" rx="1.5" ry="1.5" style="stroke:#181818;stroke-width:0.3;" width="128.4" x="10.5" y="277.2"/><ellipse cx="19.5" cy="286.8" fill="#ADD1B2" rx="6.6" ry="6.6" style="stroke:#181818;stroke-width:0.6;"/><path d="M19.5281,290.5219 C20.4281,290.5219 21.1688,290.1844 21.7125,289.5469 L20.8875,288.6375 C20.5594,288.9938 20.1656,289.2281 19.6875,289.2281 C18.6844,289.2281 17.9906,288.4313 17.9906,287.0625 C17.9906,285.7313 18.6844,284.925 19.6219,284.925 C20.1094,284.925 20.4656,285.1125 20.7844,285.4031 L21.6094,284.475 C21.1594,284.0344 20.4656,283.6312 19.6219,283.6312 C17.85,283.6312 16.4531,284.9156 16.4531,287.1188 C16.4531,289.35 17.8781,290.5219 19.5281,290.5219 Z " fill="#000000"/><text fill="#000000" font-family="sans-serif" font-size="8.4" lengthAdjust="spacing" textLength="109.2" x="27.9" y="289.6711">SinglePointChannelMetadata</text><line style="stroke:#181818;stroke-width:0.3;" x1="11.1" x2="138.3" y1="296.4" y2="296.4"/><line style="stroke:#181818;stroke-width:0.3;" x1="11.1" x2="138.3" y1="301.2" y2="301.2"/></g><!--class AverageChannelMetadata--><g id="elem_AverageChannelMetadata"><rect codeLine="50" fill="#F1F1F1" height="68.175" id="AverageChannelMetadata" rx="1.5" ry="1.5" style="stroke:#181818;stroke-width:0.3;" width="117" x="276" y="257.4"/><ellipse cx="285" cy="267" fill="#ADD1B2" rx="6.6" ry="6.6" style="stroke:#181818;stroke-width:0.6;"/><path d="M285.0281,270.7219 C285.9281,270.7219 286.6688,270.3844 287.2125,269.7469 L286.3875,268.8375 C286.0594,269.1937 285.6656,269.4281 285.1875,269.4281 C284.1844,269.4281 283.4906,268.6312 283.4906,267.2625 C283.4906,265.9313 284.1844,265.125 285.1219,265.125 C285.6094,265.125 285.9656,265.3125 286.2844,265.6031 L287.1094,264.675 C286.6594,264.2344 285.9656,263.8313 285.1219,263.8313 C283.35,263.8313 281.9531,265.1156 281.9531,267.3187 C281.9531,269.55 283.3781,270.7219 285.0281,270.7219 Z " fill="#000000"/><text fill="#000000" font-family="sans-serif" font-size="8.4" lengthAdjust="spacing" textLength="97.8" x="293.4" y="269.8711">AverageChannelMetadata</text><line style="stroke:#181818;stroke-width:0.3;" x1="276.6" x2="392.4" y1="276.6" y2="276.6"/><text fill="#000000" font-family="sans-serif" font-size="8.4" lengthAdjust="spacing" textLength="73.8" x="279.6" y="286.793">n_averages : integer</text><text fill="#000000" font-family="sans-serif" font-size="8.4" lengthAdjust="spacing" textLength="55.2" x="279.6" y="296.6367">low_limit : float</text><text fill="#000000" font-family="sans-serif" font-size="8.4" lengthAdjust="spacing" textLength="85.2" x="279.6" y="306.4805">max_attempts : integer</text><text fill="#000000" font-family="sans-serif" font-size="8.4" lengthAdjust="spacing" textLength="76.8" x="279.6" y="316.3242">max_deviation : float</text><line style="stroke:#181818;stroke-width:0.3;" x1="276.6" x2="392.4" y1="320.775" y2="320.775"/></g><!--class IntervalChannelMetadata--><g id="elem_IntervalChannelMetadata"><rect codeLine="57" fill="#F1F1F1" height="38.6438" id="IntervalChannelMetadata" rx="1.5" ry="1.5" style="stroke:#181818;stroke-width:0.3;" width="114.6" x="414" y="272.4"/><ellipse cx="423" cy="282" fill="#ADD1B2" rx="6.6" ry="6.6" style="stroke:#181818;stroke-width:0.6;"/><path d="M423.0281,285.7219 C423.9281,285.7219 424.6688,285.3844 425.2125,284.7469 L424.3875,283.8375 C424.0594,284.1937 423.6656,284.4281 423.1875,284.4281 C422.1844,284.4281 421.4906,283.6312 421.4906,282.2625 C421.4906,280.9313 422.1844,280.125 423.1219,280.125 C423.6094,280.125 423.9656,280.3125 424.2844,280.6031 L425.1094,279.675 C424.6594,279.2344 423.9656,278.8313 423.1219,278.8313 C421.35,278.8313 419.9531,280.1156 419.9531,282.3187 C419.9531,284.55 421.3781,285.7219 423.0281,285.7219 Z " fill="#000000"/><text fill="#000000" font-family="sans-serif" font-size="8.4" lengthAdjust="spacing" textLength="95.4" x="431.4" y="284.8711">IntervalChannelMetadata</text><line style="stroke:#181818;stroke-width:0.3;" x1="414.6" x2="528" y1="291.6" y2="291.6"/><text fill="#000000" font-family="sans-serif" font-size="8.4" lengthAdjust="spacing" textLength="78.6" x="417.6" y="301.793">trigger_interval : float</text><line style="stroke:#181818;stroke-width:0.3;" x1="414.6" x2="528" y1="306.2438" y2="306.2438"/></g><!--class NormalizedMetadata--><g id="elem_NormalizedMetadata"><rect codeLine="69" fill="#F1F1F1" height="38.6438" id="NormalizedMetadata" rx="1.5" ry="1.5" style="stroke:#181818;stroke-width:0.3;" width="94.8" x="159.9" y="272.4"/><ellipse cx="168.9" cy="282" fill="#B4A7E5" rx="6.6" ry="6.6" style="stroke:#181818;stroke-width:0.6;"/><path d="M166.6594,285.6 L171.2625,285.6 L171.2625,284.3344 L169.7156,284.3344 L169.7156,280.2188 L171.2625,280.2188 L171.2625,278.9531 L166.6594,278.9531 L166.6594,280.2188 L168.2062,280.2188 L168.2062,284.3344 L166.6594,284.3344 L166.6594,285.6 Z " fill="#000000"/><text fill="#000000" font-family="sans-serif" font-size="8.4" font-style="italic" lengthAdjust="spacing" textLength="75.6" x="177.3" y="284.8711">NormalizedMetadata</text><line style="stroke:#181818;stroke-width:0.3;" x1="160.5" x2="254.1" y1="291.6" y2="291.6"/><text fill="#000000" font-family="sans-serif" font-size="8.4" lengthAdjust="spacing" textLength="73.8" x="163.5" y="301.793">normalize_id : string</text><line style="stroke:#181818;stroke-width:0.3;" x1="160.5" x2="254.1" y1="306.2438" y2="306.2438"/></g><!--class SinglePointNormalizedChannelMetadata--><g id="elem_SinglePointNormalizedChannelMetadata"><rect codeLine="73" fill="#F1F1F1" height="28.8" id="SinglePointNormalizedChannelMetadata" rx="1.5" ry="1.5" style="stroke:#181818;stroke-width:0.3;" width="171" x="4.2" y="361.8"/><ellipse cx="13.2" cy="371.4" fill="#ADD1B2" rx="6.6" ry="6.6" style="stroke:#181818;stroke-width:0.6;"/><path d="M13.2281,375.1219 C14.1281,375.1219 14.8687,374.7844 15.4125,374.1469 L14.5875,373.2375 C14.2594,373.5938 13.8656,373.8281 13.3875,373.8281 C12.3844,373.8281 11.6906,373.0313 11.6906,371.6625 C11.6906,370.3313 12.3844,369.525 13.3219,369.525 C13.8094,369.525 14.1656,369.7125 14.4844,370.0031 L15.3094,369.075 C14.8594,368.6344 14.1656,368.2313 13.3219,368.2313 C11.55,368.2313 10.1531,369.5156 10.1531,371.7188 C10.1531,373.95 11.5781,375.1219 13.2281,375.1219 Z " fill="#000000"/><text fill="#000000" font-family="sans-serif" font-size="8.4" lengthAdjust="spacing" textLength="151.8" x="21.6" y="374.2711">SinglePointNormalizedChannelMetadata</text><line style="stroke:#181818;stroke-width:0.3;" x1="4.8" x2="174.6" y1="381" y2="381"/><line style="stroke:#181818;stroke-width:0.3;" x1="4.8" x2="174.6" y1="385.8" y2="385.8"/></g><!--class AverageNormalizedChannelMetadata--><g id="elem_AverageNormalizedChannelMetadata"><rect codeLine="75" fill="#F1F1F1" height="28.8" id="AverageNormalizedChannelMetadata" rx="1.5" ry="1.5" style="stroke:#181818;stroke-width:0.3;" width="159.6" x="204.3" y="361.8"/><ellipse cx="213.3" cy="371.4" fill="#ADD1B2" rx="6.6" ry="6.6" style="stroke:#181818;stroke-width:0.6;"/><path d="M213.3281,375.1219 C214.2281,375.1219 214.9688,374.7844 215.5125,374.1469 L214.6875,373.2375 C214.3594,373.5938 213.9656,373.8281 213.4875,373.8281 C212.4844,373.8281 211.7906,373.0313 211.7906,371.6625 C211.7906,370.3313 212.4844,369.525 213.4219,369.525 C213.9094,369.525 214.2656,369.7125 214.5844,370.0031 L215.4094,369.075 C214.9594,368.6344 214.2656,368.2313 213.4219,368.2313 C211.65,368.2313 210.2531,369.5156 210.2531,371.7188 C210.2531,373.95 211.6781,375.1219 213.3281,375.1219 Z " fill="#000000"/><text fill="#000000" font-family="sans-serif" font-size="8.4" lengthAdjust="spacing" textLength="140.4" x="221.7" y="374.2711">AverageNormalizedChannelMetadata</text><line style="stroke:#181818;stroke-width:0.3;" x1="204.9" x2="363.3" y1="381" y2="381"/><line style="stroke:#181818;stroke-width:0.3;" x1="204.9" x2="363.3" y1="385.8" y2="385.8"/></g><!--class IntervalNormalizedChannelMetadata--><g id="elem_IntervalNormalizedChannelMetadata"><rect codeLine="77" fill="#F1F1F1" height="28.8" id="IntervalNormalizedChannelMetadata" rx="1.5" ry="1.5" style="stroke:#181818;stroke-width:0.3;" width="157.2" x="388.5" y="361.8"/><ellipse cx="397.5" cy="371.4" fill="#ADD1B2" rx="6.6" ry="6.6" style="stroke:#181818;stroke-width:0.6;"/><path d="M397.5281,375.1219 C398.4281,375.1219 399.1688,374.7844 399.7125,374.1469 L398.8875,373.2375 C398.5594,373.5938 398.1656,373.8281 397.6875,373.8281 C396.6844,373.8281 395.9906,373.0313 395.9906,371.6625 C395.9906,370.3313 396.6844,369.525 397.6219,369.525 C398.1094,369.525 398.4656,369.7125 398.7844,370.0031 L399.6094,369.075 C399.1594,368.6344 398.4656,368.2313 397.6219,368.2313 C395.85,368.2313 394.4531,369.5156 394.4531,371.7188 C394.4531,373.95 395.8781,375.1219 397.5281,375.1219 Z " fill="#000000"/><text fill="#000000" font-family="sans-serif" font-size="8.4" lengthAdjust="spacing" textLength="138" x="405.9" y="374.2711">IntervalNormalizedChannelMetadata</text><line style="stroke:#181818;stroke-width:0.3;" x1="389.1" x2="545.1" y1="381" y2="381"/><line style="stroke:#181818;stroke-width:0.3;" x1="389.1" x2="545.1" y1="385.8" y2="385.8"/></g><!--reverse link Metadata to MeasureMetadata--><g id="link_Metadata_MeasureMetadata"><path d="M290.3966,52.8122 C293.8106,54.7142 287.868,51.258 291.3,52.8 C341.844,75.546 359.37,67.884 410.7,88.8 C417.732,91.662 425.064,95.13 431.982,98.652 " fill="none" id="Metadata-backto-MeasureMetadata" style="stroke:#181818;stroke-width:0.6;"/><polygon fill="none" points="280.962,47.556,288.6446,55.9571,292.1487,49.6673,280.962,47.556" style="stroke:#181818;stroke-width:0.6;"/></g><!--reverse link Metadata to MonitorMetadata--><g id="link_Metadata_MonitorMetadata"><path d="M250.8537,63.6832 C248.6937,100.2832 245.25,158.442 243.516,187.794 " fill="none" id="Metadata-backto-MonitorMetadata" style="stroke:#181818;stroke-width:0.6;"/><polygon fill="none" points="251.49,52.902,247.26,63.4712,254.4475,63.8953,251.49,52.902" style="stroke:#181818;stroke-width:0.6;"/></g><!--reverse link AbstractDeviceMetadata to MonitorMetadata--><g id="link_AbstractDeviceMetadata_MonitorMetadata"><path d="M302.3452,153.8459 C285.2212,167.5559 273.918,176.604 260.124,187.65 " fill="none" id="AbstractDeviceMetadata-backto-MonitorMetadata" style="stroke:#181818;stroke-width:0.6;stroke-dasharray:7.0,7.0;"/><polygon fill="none" points="310.776,147.096,300.0952,151.0357,304.5952,156.6562,310.776,147.096" style="stroke:#181818;stroke-width:0.6;"/></g><!--reverse link MeasureMetadata to DeviceMetadata--><g id="link_MeasureMetadata_DeviceMetadata"><path d="M429.7868,143.3393 C407.8328,158.6993 386.04,173.946 366.234,187.8 " fill="none" id="MeasureMetadata-backto-DeviceMetadata" style="stroke:#181818;stroke-width:0.6;"/><polygon fill="none" points="438.636,137.148,427.7231,140.3896,431.8506,146.289,438.636,137.148" style="stroke:#181818;stroke-width:0.6;"/></g><!--reverse link AbstractDeviceMetadata to DeviceMetadata--><g id="link_AbstractDeviceMetadata_DeviceMetadata"><path d="M346.5,157.896 C346.5,171.606 346.5,176.604 346.5,187.65 " fill="none" id="AbstractDeviceMetadata-backto-DeviceMetadata" style="stroke:#181818;stroke-width:0.6;stroke-dasharray:7.0,7.0;"/><polygon fill="none" points="346.5,147.096,342.9,157.896,350.1,157.896,346.5,147.096" style="stroke:#181818;stroke-width:0.6;"/></g><!--reverse link MeasureMetadata to AxisMetadata--><g id="link_MeasureMetadata_AxisMetadata"><path d="M457.5329,147.5822 C453.9029,161.1722 451.788,169.086 448.14,182.724 " fill="none" id="MeasureMetadata-backto-AxisMetadata" style="stroke:#181818;stroke-width:0.6;"/><polygon fill="none" points="460.32,137.148,454.0549,146.6532,461.011,148.5112,460.32,137.148" style="stroke:#181818;stroke-width:0.6;"/></g><!--reverse link AbstractDeviceMetadata to AxisMetadata--><g id="link_AbstractDeviceMetadata_AxisMetadata"><path d="M387.9328,154.1398 C401.6848,165.9718 409.062,172.32 421.32,182.862 " fill="none" id="AbstractDeviceMetadata-backto-AxisMetadata" style="stroke:#181818;stroke-width:0.6;stroke-dasharray:7.0,7.0;"/><polygon fill="none" points="379.746,147.096,385.5849,156.8688,390.2808,151.4109,379.746,147.096" style="stroke:#181818;stroke-width:0.6;"/></g><!--reverse link MeasureMetadata to ChannelMetadata--><g id="link_MeasureMetadata_ChannelMetadata"><path d="M490.1943,145.0216 C504.5703,160.3336 517.218,173.808 530.22,187.668 " fill="none" id="MeasureMetadata-backto-ChannelMetadata" style="stroke:#181818;stroke-width:0.6;"/><polygon fill="none" points="482.802,137.148,487.5698,147.4857,492.8188,142.5575,482.802,137.148" style="stroke:#181818;stroke-width:0.6;"/></g><!--reverse link AbstractDeviceMetadata to ChannelMetadata--><g id="link_AbstractDeviceMetadata_ChannelMetadata"><path d="M410.1254,146.789 C413.6654,148.331 407.28,145.536 410.7,147 C443.892,161.196 482.022,176.826 508.848,187.716 " fill="none" id="AbstractDeviceMetadata-backto-ChannelMetadata" style="stroke:#181818;stroke-width:0.6;stroke-dasharray:7.0,7.0;"/><polygon fill="none" points="400.224,142.476,408.6878,150.0895,411.5631,143.4885,400.224,142.476" style="stroke:#181818;stroke-width:0.6;"/></g><!--reverse link MeasureMetadata to TimestampMetadata--><g id="link_MeasureMetadata_TimestampMetadata"><path d="M518.1608,141.4487 C553.5428,156.8087 592.998,173.946 624.906,187.8 " fill="none" id="MeasureMetadata-backto-TimestampMetadata" style="stroke:#181818;stroke-width:0.6;"/><polygon fill="none" points="508.254,137.148,516.7272,144.751,519.5943,138.1465,508.254,137.148" style="stroke:#181818;stroke-width:0.6;"/></g><!--link NonnumericChannelMetadata to ArrayChannelMetadata--><!--link ArrayChannelMetadata to AreaChannelMetadata--><!--reverse link ChannelMetadata to NonnumericChannelMetadata--><g id="link_ChannelMetadata_NonnumericChannelMetadata"><path d="M561.6655,225.1126 C575.2615,241.6306 590.88,260.604 604.452,277.092 " fill="none" id="ChannelMetadata-backto-NonnumericChannelMetadata" style="stroke:#181818;stroke-width:0.6;"/><polygon fill="none" points="554.802,216.774,558.886,227.4004,564.445,222.8248,554.802,216.774" style="stroke:#181818;stroke-width:0.6;"/></g><!--reverse link ChannelMetadata to SinglePointChannelMetadata--><g id="link_ChannelMetadata_SinglePointChannelMetadata"><path d="M496.432,219.8903 C490.66,221.7143 495.012,220.134 489.3,221.4 C340.872,254.37 295.842,217.608 149.1,257.4 C132.072,262.02 114.006,270.09 99.942,277.164 " fill="none" id="ChannelMetadata-backto-SinglePointChannelMetadata" style="stroke:#181818;stroke-width:0.6;"/><polygon fill="none" points="506.73,216.636,495.3472,216.4576,497.5167,223.3229,506.73,216.636" style="stroke:#181818;stroke-width:0.6;"/></g><!--reverse link ChannelMetadata to AverageChannelMetadata--><g id="link_ChannelMetadata_AverageChannelMetadata"><path d="M495.1672,220.4764 C466.8592,231.0544 437.514,242.508 403.5,257.4 C400.08,258.894 396.588,260.466 393.072,262.08 " fill="none" id="ChannelMetadata-backto-AverageChannelMetadata" style="stroke:#181818;stroke-width:0.6;"/><polygon fill="none" points="505.284,216.696,493.9071,217.1041,496.4274,223.8486,505.284,216.696" style="stroke:#181818;stroke-width:0.6;"/></g><!--reverse link ChannelMetadata to IntervalChannelMetadata--><g id="link_ChannelMetadata_IntervalChannelMetadata"><path d="M525.0632,225.1394 C512.8052,240.1514 500.106,255.714 486.546,272.328 " fill="none" id="ChannelMetadata-backto-IntervalChannelMetadata" style="stroke:#181818;stroke-width:0.6;"/><polygon fill="none" points="531.894,216.774,522.2747,222.8625,527.8517,227.4164,531.894,216.774" style="stroke:#181818;stroke-width:0.6;"/></g><!--reverse link ChannelMetadata to ArrayChannelMetadata--><g id="link_ChannelMetadata_ArrayChannelMetadata"><path d="M593.2929,220.2414 C630.3849,233.2794 672.702,248.514 692.7,257.4 C705.936,263.286 720.234,270.732 731.916,277.122 " fill="none" id="ChannelMetadata-backto-ArrayChannelMetadata" style="stroke:#181818;stroke-width:0.6;"/><polygon fill="none" points="583.104,216.66,592.0991,223.6377,594.4867,216.8451,583.104,216.66" style="stroke:#181818;stroke-width:0.6;"/></g><!--reverse link ChannelMetadata to AreaChannelMetadata--><g id="link_ChannelMetadata_AreaChannelMetadata"><path d="M591.1057,219.9347 C596.5897,221.6867 591.912,220.05 597.3,221.4 C694.764,245.85 725.34,225.132 820.5,257.4 C834.834,262.26 849.798,270.204 861.48,277.152 " fill="none" id="ChannelMetadata-backto-AreaChannelMetadata" style="stroke:#181818;stroke-width:0.6;"/><polygon fill="none" points="580.818,216.648,590.0102,223.3639,592.2013,216.5054,580.818,216.648" style="stroke:#181818;stroke-width:0.6;"/></g><!--reverse link Data to Metadata--><g id="link_Data_Metadata"><path codeLine="67" d="M211.104,28.5 C218.124,28.5 217.938,28.5 224.958,28.5 " fill="none" id="Data-backto-Metadata" style="stroke:#181818;stroke-width:0.6;"/><polygon fill="#181818" points="203.904,28.5,207.504,30.9,211.104,28.5,207.504,26.1,203.904,28.5" style="stroke:#181818;stroke-width:0.6;"/></g><!--reverse link SinglePointChannelMetadata to SinglePointNormalizedChannelMetadata--><g id="link_SinglePointChannelMetadata_SinglePointNormalizedChannelMetadata"><path d="M79.1225,316.791 C81.8945,332.181 84.408,346.182 87.18,361.596 " fill="none" id="SinglePointChannelMetadata-backto-SinglePointNormalizedChannelMetadata" style="stroke:#181818;stroke-width:0.6;"/><polygon fill="none" points="77.208,306.162,75.5795,317.4291,82.6654,316.1528,77.208,306.162" style="stroke:#181818;stroke-width:0.6;"/></g><!--reverse link NormalizedMetadata to SinglePointNormalizedChannelMetadata--><g id="link_NormalizedMetadata_SinglePointNormalizedChannelMetadata"><path d="M172.0972,317.1626 C150.3592,332.5826 128.838,347.844 109.236,361.746 " fill="none" id="NormalizedMetadata-backto-SinglePointNormalizedChannelMetadata" style="stroke:#181818;stroke-width:0.6;stroke-dasharray:7.0,7.0;"/><polygon fill="none" points="180.906,310.914,170.0143,314.2263,174.1801,320.0989,180.906,310.914" style="stroke:#181818;stroke-width:0.6;"/></g><!--reverse link AverageChannelMetadata to AverageNormalizedChannelMetadata--><g id="link_AverageChannelMetadata_AverageNormalizedChannelMetadata"><path d="M308.5601,335.126 C301.0181,347.6 298.464,351.834 292.56,361.602 " fill="none" id="AverageChannelMetadata-backto-AverageNormalizedChannelMetadata" style="stroke:#181818;stroke-width:0.6;"/><polygon fill="none" points="314.148,325.884,305.4794,333.2634,311.6408,336.9887,314.148,325.884" style="stroke:#181818;stroke-width:0.6;"/></g><!--reverse link NormalizedMetadata to AverageNormalizedChannelMetadata--><g id="link_NormalizedMetadata_AverageNormalizedChannelMetadata"><path d="M231.8518,318.8606 C245.9998,334.2326 258.414,347.712 271.224,361.62 " fill="none" id="NormalizedMetadata-backto-AverageNormalizedChannelMetadata" style="stroke:#181818;stroke-width:0.6;stroke-dasharray:7.0,7.0;"/><polygon fill="none" points="224.538,310.914,229.203,321.2985,234.5007,316.4226,224.538,310.914" style="stroke:#181818;stroke-width:0.6;"/></g><!--reverse link IntervalChannelMetadata to IntervalNormalizedChannelMetadata--><g id="link_IntervalChannelMetadata_IntervalNormalizedChannelMetadata"><path d="M469.8149,321.7003 C469.0409,337.0723 468.504,347.712 467.802,361.62 " fill="none" id="IntervalChannelMetadata-backto-IntervalNormalizedChannelMetadata" style="stroke:#181818;stroke-width:0.6;"/><polygon fill="none" points="470.358,310.914,466.2194,321.5193,473.4103,321.8814,470.358,310.914" style="stroke:#181818;stroke-width:0.6;"/></g><!--reverse link NormalizedMetadata to IntervalNormalizedChannelMetadata--><g id="link_NormalizedMetadata_IntervalNormalizedChannelMetadata"><path d="M245.409,316.4274 C254.541,321.7854 255.546,321.792 265.5,325.8 C305.214,341.796 351.462,353.664 389.634,361.8 " fill="none" id="NormalizedMetadata-backto-IntervalNormalizedChannelMetadata" style="stroke:#181818;stroke-width:0.6;stroke-dasharray:7.0,7.0;"/><polygon fill="none" points="236.094,310.962,243.5872,319.5324,247.2308,313.3224,236.094,310.962" style="stroke:#181818;stroke-width:0.6;"/></g><!--SRC=[hLHDRzim3BtxLmYv31ZQ_e0S1WJBPOTs0zhRDXYqHDiQz658YfDiw7yVfJYnuzXD2ZI03o75zvxuA785thD7320W0FkNCVePqCYMp0SdJPKYjWdI6az18Nd8NZDZ0p8dgpemMvxgbylkO2fwgP6EboKwD1nPWM6BQDXYqHrQB5XDEIPDBm2CE3j0kNK4Je3VEnLTaBNWzgmX9IP8K6hFIkiO0gzPmcgiDE6EE28xkFWvsFkxXBMjfSBJlSuaq4dFGO5BQeGrdmBZDPWA4m4So6tn1tbuo93En6va6K-zN1_wsBMei25OlMJF67i1bGCTGNwPHAMjs2Xyo38IYgu4qhaggEt0mnfRoN5aZ1JdjZJj-N_W7BtF2NRWt-jHsIE2txWU4tVKEN7X_iR8C5LjAMxTVBNKZK9DNlZvIvpGHfaUx5pYTSmXw6ed_ST0nZu815742LYoKba8FSzN6WQ3weFLlqYDFe1khkAceYThp4QZatmiv_vdBOL0y_lBAWxyA9rD1GSrREKGnZMTn7dEezHnV72_PnedXJ_YexovkhUsHGSLtawRzbWEXxAukE8Jgz2bXBBRN4cTvlpWROngsEKG0kecZ0jYIf1r4DV5vK1yYy-t1VK-UVJ0AYB8PLTzYJjfrGsjdh3mxRAqj3xVizxmVYCzMQT1oRyenkqz9lBXNfhokuUOK_N6S0nUqPIKyOXSvvgPfLjvZcPV9veRYwjC_m40]--></g></svg>