<?xml version="1.0" encoding="us-ascii" standalone="no"?><svg xmlns="http://www.w3.org/2000/svg" xmlns:xlink="http://www.w3.org/1999/xlink" contentStyleType="text/css" height="848px" preserveAspectRatio="none" style="width:1387px;height:848px;background:#FFFFFF;" version="1.1" viewBox="0 0 1387 848" width="1387px" zoomAndPan="magnify"><defs/><g><!--class Data--><g id="elem_Data"><rect codeLine="3" fill="#F1F1F1" height="113.1875" id="Data" rx="2.5" ry="2.5" style="stroke:#181818;stroke-width:0.5;" width="190" x="776.5" y="35"/><ellipse cx="850.25" cy="51" fill="#ADD1B2" rx="11" ry="11" style="stroke:#181818;stroke-width:1.0;"/><path d="M853.2344,56.6406 Q852.6563,56.9375 852.0156,57.0781 Q851.375,57.2344 850.6719,57.2344 Q848.1563,57.2344 846.8281,55.5938 Q845.5156,53.9375 845.5156,50.8125 Q845.5156,47.6719 846.8281,46.0313 Q848.1563,44.375 850.6719,44.375 Q851.375,44.375 852.0156,44.5313 Q852.6719,44.6719 853.2344,44.9688 L853.2344,47.6875 Q852.5938,47.1094 852,46.8438 Q851.4063,46.5781 850.7813,46.5781 Q849.4375,46.5781 848.75,47.6406 Q848.0625,48.7031 848.0625,50.8125 Q848.0625,52.9063 848.75,53.9844 Q849.4375,55.0469 850.7813,55.0469 Q851.4063,55.0469 852,54.7813 Q852.5938,54.5 853.2344,53.9219 L853.2344,56.6406 Z " fill="#000000"/><text fill="#000000" font-family="sans-serif" font-size="14" lengthAdjust="spacing" textLength="34" x="870.75" y="55.8467">Data</text><line style="stroke:#181818;stroke-width:0.5;" x1="777.5" x2="965.5" y1="67" y2="67"/><text fill="#000000" font-family="sans-serif" font-size="14" lengthAdjust="spacing" textLength="149" x="782.5" y="83.9951">metadata : Metadata</text><text fill="#000000" font-family="sans-serif" font-size="14" lengthAdjust="spacing" textLength="130" x="782.5" y="100.292">_data : np.ndarray</text><text fill="#000000" font-family="sans-serif" font-size="14" lengthAdjust="spacing" textLength="178" x="782.5" y="116.5889">_importer : DataImporter</text><line style="stroke:#181818;stroke-width:0.5;" x1="777.5" x2="965.5" y1="123.8906" y2="123.8906"/><text fill="#000000" font-family="sans-serif" font-size="14" lengthAdjust="spacing" textLength="42" x="782.5" y="140.8857">data()</text></g><path d="M319.5,6 L319.5,167.3281 A0,0 0 0 0 319.5,167.3281 L741.5,167.3281 A0,0 0 0 0 741.5,167.3281 L741.5,90.6641 L780.5,95.4453 L741.5,82.6641 L741.5,16 L731.5,6 L319.5,6 A0,0 0 0 0 319.5,6 " fill="#FEFFDD" style="stroke:#181818;stroke-width:0.5;"/><path d="M731.5,6 L731.5,16 L741.5,16 L731.5,6 " fill="#FEFFDD" style="stroke:#181818;stroke-width:0.5;"/><text fill="#000000" font-family="sans-serif" font-size="13" lengthAdjust="spacing" textLength="337" x="325.5" y="23.0669">"_data" usually contains a 1D array and is accessed</text><text fill="#000000" font-family="sans-serif" font-size="13" lengthAdjust="spacing" textLength="333" x="325.5" y="38.1997">via the data() getter method (Python property) that</text><text fill="#000000" font-family="sans-serif" font-size="13" lengthAdjust="spacing" textLength="331" x="325.5" y="53.3325">calls the DataImporter on first access if necessary.</text><text fill="#000000" font-family="sans-serif" font-size="13" lengthAdjust="spacing" textLength="8" x="325.5" y="68.4653">&#160;</text><text fill="#000000" font-family="sans-serif" font-size="13" lengthAdjust="spacing" textLength="322" x="325.5" y="83.5981">For individual channel values see derived classes</text><text fill="#000000" font-family="sans-serif" font-size="13" lengthAdjust="spacing" textLength="308" x="325.5" y="98.731">AverageChannelData and IntervalChannelData.</text><text fill="#000000" font-family="sans-serif" font-size="13" lengthAdjust="spacing" textLength="8" x="325.5" y="113.8638">&#160;</text><text fill="#000000" font-family="sans-serif" font-size="13" lengthAdjust="spacing" textLength="362" x="325.5" y="128.9966">ArrayChannelData and AreaChannelData are somewhat</text><text fill="#000000" font-family="sans-serif" font-size="13" lengthAdjust="spacing" textLength="401" x="325.5" y="144.1294">special as they contain either 2D data or a list of data objects</text><text fill="#000000" font-family="sans-serif" font-size="13" lengthAdjust="spacing" textLength="193" x="325.5" y="159.2622">(in case of images and alike).</text><!--class DataImporter--><g id="elem_DataImporter"><rect codeLine="22" fill="#F1F1F1" height="80.5938" id="DataImporter" rx="2.5" ry="2.5" style="stroke:#181818;stroke-width:0.5;" width="128" x="1001.5" y="51"/><ellipse cx="1016.5" cy="67" fill="#ADD1B2" rx="11" ry="11" style="stroke:#181818;stroke-width:1.0;"/><path d="M1019.4844,72.6406 Q1018.9063,72.9375 1018.2656,73.0781 Q1017.625,73.2344 1016.9219,73.2344 Q1014.4063,73.2344 1013.0781,71.5938 Q1011.7656,69.9375 1011.7656,66.8125 Q1011.7656,63.6719 1013.0781,62.0313 Q1014.4063,60.375 1016.9219,60.375 Q1017.625,60.375 1018.2656,60.5313 Q1018.9219,60.6719 1019.4844,60.9688 L1019.4844,63.6875 Q1018.8438,63.1094 1018.25,62.8438 Q1017.6563,62.5781 1017.0313,62.5781 Q1015.6875,62.5781 1015,63.6406 Q1014.3125,64.7031 1014.3125,66.8125 Q1014.3125,68.9063 1015,69.9844 Q1015.6875,71.0469 1017.0313,71.0469 Q1017.6563,71.0469 1018.25,70.7813 Q1018.8438,70.5 1019.4844,69.9219 L1019.4844,72.6406 Z " fill="#000000"/><text fill="#000000" font-family="sans-serif" font-size="14" lengthAdjust="spacing" textLength="96" x="1030.5" y="71.8467">DataImporter</text><line style="stroke:#181818;stroke-width:0.5;" x1="1002.5" x2="1128.5" y1="83" y2="83"/><text fill="#000000" font-family="sans-serif" font-size="14" lengthAdjust="spacing" textLength="48" x="1007.5" y="99.9951">source</text><line style="stroke:#181818;stroke-width:0.5;" x1="1002.5" x2="1128.5" y1="107.2969" y2="107.2969"/><text fill="#000000" font-family="sans-serif" font-size="14" lengthAdjust="spacing" textLength="57" x="1007.5" y="124.292">import()</text></g><!--class Metadata--><g id="elem_Metadata"><rect codeLine="27" fill="#F1F1F1" height="48" id="Metadata" rx="2.5" ry="2.5" style="stroke:#181818;stroke-width:0.5;" width="99" x="438" y="245"/><ellipse cx="453" cy="261" fill="#ADD1B2" rx="11" ry="11" style="stroke:#181818;stroke-width:1.0;"/><path d="M455.9844,266.6406 Q455.4063,266.9375 454.7656,267.0781 Q454.125,267.2344 453.4219,267.2344 Q450.9063,267.2344 449.5781,265.5938 Q448.2656,263.9375 448.2656,260.8125 Q448.2656,257.6719 449.5781,256.0313 Q450.9063,254.375 453.4219,254.375 Q454.125,254.375 454.7656,254.5313 Q455.4219,254.6719 455.9844,254.9688 L455.9844,257.6875 Q455.3438,257.1094 454.75,256.8438 Q454.1563,256.5781 453.5313,256.5781 Q452.1875,256.5781 451.5,257.6406 Q450.8125,258.7031 450.8125,260.8125 Q450.8125,262.9063 451.5,263.9844 Q452.1875,265.0469 453.5313,265.0469 Q454.1563,265.0469 454.75,264.7813 Q455.3438,264.5 455.9844,263.9219 L455.9844,266.6406 Z " fill="#000000"/><text fill="#000000" font-family="sans-serif" font-size="14" lengthAdjust="spacing" textLength="67" x="467" y="265.8467">Metadata</text><line style="stroke:#181818;stroke-width:0.5;" x1="439" x2="536" y1="277" y2="277"/><line style="stroke:#181818;stroke-width:0.5;" x1="439" x2="536" y1="285" y2="285"/></g><g id="elem_GMN7"><path d="M572,249 L572,265 L537.15,269 L572,273 L572,289.2656 A0,0 0 0 0 572,289.2656 L713,289.2656 A0,0 0 0 0 713,289.2656 L713,259 L703,249 L572,249 A0,0 0 0 0 572,249 " fill="#FEFFDD" style="stroke:#181818;stroke-width:0.5;"/><path d="M703,249 L703,259 L713,259 L703,249 " fill="#FEFFDD" style="stroke:#181818;stroke-width:0.5;"/><text fill="#000000" font-family="sans-serif" font-size="13" lengthAdjust="spacing" textLength="104" x="578" y="266.0669">See diagram for</text><text fill="#000000" font-family="sans-serif" font-size="13" lengthAdjust="spacing" textLength="120" x="578" y="281.1997">metadata module.</text></g><!--class MeasureData--><g id="elem_MeasureData"><rect codeLine="34" fill="#F1F1F1" height="64.2969" id="MeasureData" rx="2.5" ry="2.5" style="stroke:#181818;stroke-width:0.5;" width="246" x="748.5" y="237"/><ellipse cx="819.75" cy="253" fill="#ADD1B2" rx="11" ry="11" style="stroke:#181818;stroke-width:1.0;"/><path d="M822.7344,258.6406 Q822.1563,258.9375 821.5156,259.0781 Q820.875,259.2344 820.1719,259.2344 Q817.6563,259.2344 816.3281,257.5938 Q815.0156,255.9375 815.0156,252.8125 Q815.0156,249.6719 816.3281,248.0313 Q817.6563,246.375 820.1719,246.375 Q820.875,246.375 821.5156,246.5313 Q822.1719,246.6719 822.7344,246.9688 L822.7344,249.6875 Q822.0938,249.1094 821.5,248.8438 Q820.9063,248.5781 820.2813,248.5781 Q818.9375,248.5781 818.25,249.6406 Q817.5625,250.7031 817.5625,252.8125 Q817.5625,254.9063 818.25,255.9844 Q818.9375,257.0469 820.2813,257.0469 Q820.9063,257.0469 821.5,256.7813 Q822.0938,256.5 822.7344,255.9219 L822.7344,258.6406 Z " fill="#000000"/><text fill="#000000" font-family="sans-serif" font-size="14" lengthAdjust="spacing" textLength="95" x="840.25" y="257.8467">MeasureData</text><line style="stroke:#181818;stroke-width:0.5;" x1="749.5" x2="993.5" y1="269" y2="269"/><text fill="#000000" font-family="sans-serif" font-size="14" lengthAdjust="spacing" textLength="234" x="754.5" y="285.9951">positions : np.ndarray(dtype=int)</text><line style="stroke:#181818;stroke-width:0.5;" x1="749.5" x2="993.5" y1="293.2969" y2="293.2969"/></g><!--class MonitorData--><g id="elem_MonitorData"><rect codeLine="38" fill="#F1F1F1" height="64.2969" id="MonitorData" rx="2.5" ry="2.5" style="stroke:#181818;stroke-width:0.5;" width="271" x="1030" y="237"/><ellipse cx="1117.25" cy="253" fill="#ADD1B2" rx="11" ry="11" style="stroke:#181818;stroke-width:1.0;"/><path d="M1120.2344,258.6406 Q1119.6563,258.9375 1119.0156,259.0781 Q1118.375,259.2344 1117.6719,259.2344 Q1115.1563,259.2344 1113.8281,257.5938 Q1112.5156,255.9375 1112.5156,252.8125 Q1112.5156,249.6719 1113.8281,248.0313 Q1115.1563,246.375 1117.6719,246.375 Q1118.375,246.375 1119.0156,246.5313 Q1119.6719,246.6719 1120.2344,246.9688 L1120.2344,249.6875 Q1119.5938,249.1094 1119,248.8438 Q1118.4063,248.5781 1117.7813,248.5781 Q1116.4375,248.5781 1115.75,249.6406 Q1115.0625,250.7031 1115.0625,252.8125 Q1115.0625,254.9063 1115.75,255.9844 Q1116.4375,257.0469 1117.7813,257.0469 Q1118.4063,257.0469 1119,256.7813 Q1119.5938,256.5 1120.2344,255.9219 L1120.2344,258.6406 Z " fill="#000000"/><text fill="#000000" font-family="sans-serif" font-size="14" lengthAdjust="spacing" textLength="88" x="1137.75" y="257.8467">MonitorData</text><line style="stroke:#181818;stroke-width:0.5;" x1="1031" x2="1300" y1="269" y2="269"/><text fill="#000000" font-family="sans-serif" font-size="14" lengthAdjust="spacing" textLength="259" x="1036" y="285.9951">milliseconds : np.ndarray(dtype=int)</text><line style="stroke:#181818;stroke-width:0.5;" x1="1031" x2="1300" y1="293.2969" y2="293.2969"/></g><!--class AxisData--><g id="elem_AxisData"><rect codeLine="42" fill="#F1F1F1" height="80.5938" id="AxisData" rx="2.5" ry="2.5" style="stroke:#181818;stroke-width:0.5;" width="96" x="367.5" y="369"/><ellipse cx="382.95" cy="385" fill="#ADD1B2" rx="11" ry="11" style="stroke:#181818;stroke-width:1.0;"/><path d="M385.9344,390.6406 Q385.3563,390.9375 384.7156,391.0781 Q384.075,391.2344 383.3719,391.2344 Q380.8563,391.2344 379.5281,389.5938 Q378.2156,387.9375 378.2156,384.8125 Q378.2156,381.6719 379.5281,380.0313 Q380.8563,378.375 383.3719,378.375 Q384.075,378.375 384.7156,378.5313 Q385.3719,378.6719 385.9344,378.9688 L385.9344,381.6875 Q385.2938,381.1094 384.7,380.8438 Q384.1063,380.5781 383.4813,380.5781 Q382.1375,380.5781 381.45,381.6406 Q380.7625,382.7031 380.7625,384.8125 Q380.7625,386.9063 381.45,387.9844 Q382.1375,389.0469 383.4813,389.0469 Q384.1063,389.0469 384.7,388.7813 Q385.2938,388.5 385.9344,387.9219 L385.9344,390.6406 Z " fill="#000000"/><text fill="#000000" font-family="sans-serif" font-size="14" lengthAdjust="spacing" textLength="63" x="397.05" y="389.8467">AxisData</text><line style="stroke:#181818;stroke-width:0.5;" x1="368.5" x2="462.5" y1="401" y2="401"/><text fill="#000000" font-family="sans-serif" font-size="14" lengthAdjust="spacing" textLength="81" x="373.5" y="417.9951">_filled_data</text><line style="stroke:#181818;stroke-width:0.5;" x1="368.5" x2="462.5" y1="425.2969" y2="425.2969"/><text fill="#000000" font-family="sans-serif" font-size="14" lengthAdjust="spacing" textLength="84" x="373.5" y="442.292">filled_data()</text></g><g id="elem_GMN18"><path d="M499,374 L499,405.5 L463.84,409.5 L499,413.5 L499,444.5313 A0,0 0 0 0 499,444.5313 L774,444.5313 A0,0 0 0 0 774,444.5313 L774,384 L764,374 L499,374 A0,0 0 0 0 499,374 " fill="#FEFFDD" style="stroke:#181818;stroke-width:0.5;"/><path d="M764,374 L764,384 L774,384 L764,374 " fill="#FEFFDD" style="stroke:#181818;stroke-width:0.5;"/><text fill="#000000" font-family="sans-serif" font-size="13" lengthAdjust="spacing" textLength="210" x="505" y="391.0669">Data are filled depending on the</text><text fill="#000000" font-family="sans-serif" font-size="13" lengthAdjust="spacing" textLength="248" x="505" y="406.1997">ChannelData they are plotted against.</text><text fill="#000000" font-family="sans-serif" font-size="13" lengthAdjust="spacing" textLength="254" x="505" y="421.3325">Hence for different channels, generally</text><text fill="#000000" font-family="sans-serif" font-size="13" lengthAdjust="spacing" textLength="193" x="505" y="436.4653">different filled data will exist.</text></g><!--class ChannelData--><g id="elem_ChannelData"><rect codeLine="53" fill="#F1F1F1" height="48" id="ChannelData" rx="2.5" ry="2.5" style="stroke:#181818;stroke-width:0.5;" width="125" x="809" y="385.5"/><ellipse cx="824" cy="401.5" fill="#ADD1B2" rx="11" ry="11" style="stroke:#181818;stroke-width:1.0;"/><path d="M826.9844,407.1406 Q826.4063,407.4375 825.7656,407.5781 Q825.125,407.7344 824.4219,407.7344 Q821.9063,407.7344 820.5781,406.0938 Q819.2656,404.4375 819.2656,401.3125 Q819.2656,398.1719 820.5781,396.5313 Q821.9063,394.875 824.4219,394.875 Q825.125,394.875 825.7656,395.0313 Q826.4219,395.1719 826.9844,395.4688 L826.9844,398.1875 Q826.3438,397.6094 825.75,397.3438 Q825.1563,397.0781 824.5313,397.0781 Q823.1875,397.0781 822.5,398.1406 Q821.8125,399.2031 821.8125,401.3125 Q821.8125,403.4063 822.5,404.4844 Q823.1875,405.5469 824.5313,405.5469 Q825.1563,405.5469 825.75,405.2813 Q826.3438,405 826.9844,404.4219 L826.9844,407.1406 Z " fill="#000000"/><text fill="#000000" font-family="sans-serif" font-size="14" lengthAdjust="spacing" textLength="93" x="838" y="406.3467">ChannelData</text><line style="stroke:#181818;stroke-width:0.5;" x1="810" x2="933" y1="417.5" y2="417.5"/><line style="stroke:#181818;stroke-width:0.5;" x1="810" x2="933" y1="425.5" y2="425.5"/></g><!--class TimestampData--><g id="elem_TimestampData"><rect codeLine="56" fill="#F1F1F1" height="96.8906" id="TimestampData" rx="2.5" ry="2.5" style="stroke:#181818;stroke-width:0.5;" width="287" x="969" y="361"/><ellipse cx="1051.25" cy="377" fill="#ADD1B2" rx="11" ry="11" style="stroke:#181818;stroke-width:1.0;"/><path d="M1054.2344,382.6406 Q1053.6563,382.9375 1053.0156,383.0781 Q1052.375,383.2344 1051.6719,383.2344 Q1049.1563,383.2344 1047.8281,381.5938 Q1046.5156,379.9375 1046.5156,376.8125 Q1046.5156,373.6719 1047.8281,372.0313 Q1049.1563,370.375 1051.6719,370.375 Q1052.375,370.375 1053.0156,370.5313 Q1053.6719,370.6719 1054.2344,370.9688 L1054.2344,373.6875 Q1053.5938,373.1094 1053,372.8438 Q1052.4063,372.5781 1051.7813,372.5781 Q1050.4375,372.5781 1049.75,373.6406 Q1049.0625,374.7031 1049.0625,376.8125 Q1049.0625,378.9063 1049.75,379.9844 Q1050.4375,381.0469 1051.7813,381.0469 Q1052.4063,381.0469 1053,380.7813 Q1053.5938,380.5 1054.2344,379.9219 L1054.2344,382.6406 Z " fill="#000000"/><text fill="#000000" font-family="sans-serif" font-size="14" lengthAdjust="spacing" textLength="114" x="1071.75" y="381.8467">TimestampData</text><line style="stroke:#181818;stroke-width:0.5;" x1="970" x2="1255" y1="393" y2="393"/><text fill="#000000" font-family="sans-serif" font-size="14" lengthAdjust="spacing" textLength="275" x="975" y="409.9951">_first_positions : np.ndarray(dtype=int)</text><text fill="#000000" font-family="sans-serif" font-size="14" lengthAdjust="spacing" textLength="273" x="975" y="426.292">_last_positions : np.ndarray(dtype=int)</text><line style="stroke:#181818;stroke-width:0.5;" x1="970" x2="1255" y1="433.5938" y2="433.5938"/><text fill="#000000" font-family="sans-serif" font-size="14" lengthAdjust="spacing" textLength="258" x="975" y="450.5889">get_position(timestamp, mode=last)</text></g><!--class SinglePointChannelData--><g id="elem_SinglePointChannelData"><rect codeLine="62" fill="#F1F1F1" height="48" id="SinglePointChannelData" rx="2.5" ry="2.5" style="stroke:#181818;stroke-width:0.5;" width="204" x="215.5" y="583"/><ellipse cx="230.5" cy="599" fill="#ADD1B2" rx="11" ry="11" style="stroke:#181818;stroke-width:1.0;"/><path d="M233.4844,604.6406 Q232.9063,604.9375 232.2656,605.0781 Q231.625,605.2344 230.9219,605.2344 Q228.4063,605.2344 227.0781,603.5938 Q225.7656,601.9375 225.7656,598.8125 Q225.7656,595.6719 227.0781,594.0313 Q228.4063,592.375 230.9219,592.375 Q231.625,592.375 232.2656,592.5313 Q232.9219,592.6719 233.4844,592.9688 L233.4844,595.6875 Q232.8438,595.1094 232.25,594.8438 Q231.6563,594.5781 231.0313,594.5781 Q229.6875,594.5781 229,595.6406 Q228.3125,596.7031 228.3125,598.8125 Q228.3125,600.9063 229,601.9844 Q229.6875,603.0469 231.0313,603.0469 Q231.6563,603.0469 232.25,602.7813 Q232.8438,602.5 233.4844,601.9219 L233.4844,604.6406 Z " fill="#000000"/><text fill="#000000" font-family="sans-serif" font-size="14" lengthAdjust="spacing" textLength="172" x="244.5" y="603.8467">SinglePointChannelData</text><line style="stroke:#181818;stroke-width:0.5;" x1="216.5" x2="418.5" y1="615" y2="615"/><line style="stroke:#181818;stroke-width:0.5;" x1="216.5" x2="418.5" y1="623" y2="623"/></g><!--class SinglePointNormalizedChannelData--><g id="elem_SinglePointNormalizedChannelData"><rect codeLine="64" fill="#F1F1F1" height="80.5938" id="SinglePointNormalizedChannelData" rx="2.5" ry="2.5" style="stroke:#181818;stroke-width:0.5;" width="285" x="7" y="758.5"/><ellipse cx="22" cy="774.5" fill="#ADD1B2" rx="11" ry="11" style="stroke:#181818;stroke-width:1.0;"/><path d="M24.9844,780.1406 Q24.4063,780.4375 23.7656,780.5781 Q23.125,780.7344 22.4219,780.7344 Q19.9063,780.7344 18.5781,779.0938 Q17.2656,777.4375 17.2656,774.3125 Q17.2656,771.1719 18.5781,769.5313 Q19.9063,767.875 22.4219,767.875 Q23.125,767.875 23.7656,768.0313 Q24.4219,768.1719 24.9844,768.4688 L24.9844,771.1875 Q24.3438,770.6094 23.75,770.3438 Q23.1563,770.0781 22.5313,770.0781 Q21.1875,770.0781 20.5,771.1406 Q19.8125,772.2031 19.8125,774.3125 Q19.8125,776.4063 20.5,777.4844 Q21.1875,778.5469 22.5313,778.5469 Q23.1563,778.5469 23.75,778.2813 Q24.3438,778 24.9844,777.4219 L24.9844,780.1406 Z " fill="#000000"/><text fill="#000000" font-family="sans-serif" font-size="14" lengthAdjust="spacing" textLength="253" x="36" y="779.3467">SinglePointNormalizedChannelData</text><line style="stroke:#181818;stroke-width:0.5;" x1="8" x2="291" y1="790.5" y2="790.5"/><text fill="#000000" font-family="sans-serif" font-size="14" lengthAdjust="spacing" textLength="210" x="13" y="807.4951">normalized_data : np.ndarray</text><text fill="#000000" font-family="sans-serif" font-size="14" lengthAdjust="spacing" textLength="214" x="13" y="823.792">normalizing_data : np.ndarray</text><line style="stroke:#181818;stroke-width:0.5;" x1="8" x2="291" y1="831.0938" y2="831.0938"/></g><!--class AverageChannelData--><g id="elem_AverageChannelData"><rect codeLine="69" fill="#F1F1F1" height="178.375" id="AverageChannelData" rx="2.5" ry="2.5" style="stroke:#181818;stroke-width:0.5;" width="246" x="475.5" y="518"/><ellipse cx="517.95" cy="534" fill="#ADD1B2" rx="11" ry="11" style="stroke:#181818;stroke-width:1.0;"/><path d="M520.9344,539.6406 Q520.3563,539.9375 519.7156,540.0781 Q519.075,540.2344 518.3719,540.2344 Q515.8563,540.2344 514.5281,538.5938 Q513.2156,536.9375 513.2156,533.8125 Q513.2156,530.6719 514.5281,529.0313 Q515.8563,527.375 518.3719,527.375 Q519.075,527.375 519.7156,527.5313 Q520.3719,527.6719 520.9344,527.9688 L520.9344,530.6875 Q520.2938,530.1094 519.7,529.8438 Q519.1063,529.5781 518.4813,529.5781 Q517.1375,529.5781 516.45,530.6406 Q515.7625,531.7031 515.7625,533.8125 Q515.7625,535.9063 516.45,536.9844 Q517.1375,538.0469 518.4813,538.0469 Q519.1063,538.0469 519.7,537.7813 Q520.2938,537.5 520.9344,536.9219 L520.9344,539.6406 Z " fill="#000000"/><text fill="#000000" font-family="sans-serif" font-size="14" lengthAdjust="spacing" textLength="153" x="538.05" y="538.8467">AverageChannelData</text><line style="stroke:#181818;stroke-width:0.5;" x1="476.5" x2="720.5" y1="550" y2="550"/><text fill="#000000" font-family="sans-serif" font-size="14" lengthAdjust="spacing" textLength="167" x="481.5" y="566.9951">raw_data : raggedarray</text><text fill="#000000" font-family="sans-serif" font-size="14" lengthAdjust="spacing" textLength="234" x="481.5" y="583.292">attempts : np.ndarray(dtype=int)</text><text fill="#000000" font-family="sans-serif" font-size="14" lengthAdjust="spacing" textLength="139" x="481.5" y="599.5889">_mean : np.ndarray</text><text fill="#000000" font-family="sans-serif" font-size="14" lengthAdjust="spacing" textLength="119" x="481.5" y="615.8857">_std : np.ndarray</text><line style="stroke:#181818;stroke-width:0.5;" x1="476.5" x2="720.5" y1="623.1875" y2="623.1875"/><text fill="#000000" font-family="sans-serif" font-size="14" lengthAdjust="spacing" textLength="51" x="481.5" y="640.1826">mean()</text><text fill="#000000" font-family="sans-serif" font-size="14" lengthAdjust="spacing" textLength="31" x="481.5" y="656.4795">std()</text><text fill="#000000" font-family="sans-serif" font-size="14" lengthAdjust="spacing" textLength="117" x="481.5" y="672.7764">averaged_data()</text><text fill="#000000" font-family="sans-serif" font-size="14" lengthAdjust="spacing" textLength="107" x="481.5" y="689.0732">has_raw_data()</text></g><g id="elem_GMN31"><path d="M327.5,756 L327.5,841.6641 A0,0 0 0 0 327.5,841.6641 L577.5,841.6641 A0,0 0 0 0 577.5,841.6641 L577.5,766 L567.5,756 L489,756 L530.84,696.05 L481,756 L327.5,756 A0,0 0 0 0 327.5,756 " fill="#FEFFDD" style="stroke:#181818;stroke-width:0.5;"/><path d="M567.5,756 L567.5,766 L577.5,766 L567.5,756 " fill="#FEFFDD" style="stroke:#181818;stroke-width:0.5;"/><text fill="#000000" font-family="sans-serif" font-size="13" lengthAdjust="spacing" textLength="203" x="333.5" y="773.0669">averaged_values() returns only</text><text fill="#000000" font-family="sans-serif" font-size="13" lengthAdjust="spacing" textLength="229" x="333.5" y="788.1997">those values used to average over.</text><text fill="#000000" font-family="sans-serif" font-size="13" lengthAdjust="spacing" textLength="8" x="333.5" y="803.3325">&#160;</text><text fill="#000000" font-family="sans-serif" font-size="13" lengthAdjust="spacing" textLength="154" x="333.5" y="818.4653">How does mean() differ</text><text fill="#000000" font-family="sans-serif" font-size="13" lengthAdjust="spacing" textLength="136" x="333.5" y="833.5981">from values in Data?</text></g><!--class AverageNormalizedChannelData--><g id="elem_AverageNormalizedChannelData"><rect codeLine="87" fill="#F1F1F1" height="80.5938" id="AverageNormalizedChannelData" rx="2.5" ry="2.5" style="stroke:#181818;stroke-width:0.5;" width="266" x="612.5" y="758.5"/><ellipse cx="627.5" cy="774.5" fill="#ADD1B2" rx="11" ry="11" style="stroke:#181818;stroke-width:1.0;"/><path d="M630.4844,780.1406 Q629.9063,780.4375 629.2656,780.5781 Q628.625,780.7344 627.9219,780.7344 Q625.4063,780.7344 624.0781,779.0938 Q622.7656,777.4375 622.7656,774.3125 Q622.7656,771.1719 624.0781,769.5313 Q625.4063,767.875 627.9219,767.875 Q628.625,767.875 629.2656,768.0313 Q629.9219,768.1719 630.4844,768.4688 L630.4844,771.1875 Q629.8438,770.6094 629.25,770.3438 Q628.6563,770.0781 628.0313,770.0781 Q626.6875,770.0781 626,771.1406 Q625.3125,772.2031 625.3125,774.3125 Q625.3125,776.4063 626,777.4844 Q626.6875,778.5469 628.0313,778.5469 Q628.6563,778.5469 629.25,778.2813 Q629.8438,778 630.4844,777.4219 L630.4844,780.1406 Z " fill="#000000"/><text fill="#000000" font-family="sans-serif" font-size="14" lengthAdjust="spacing" textLength="234" x="641.5" y="779.3467">AverageNormalizedChannelData</text><line style="stroke:#181818;stroke-width:0.5;" x1="613.5" x2="877.5" y1="790.5" y2="790.5"/><text fill="#000000" font-family="sans-serif" font-size="14" lengthAdjust="spacing" textLength="221" x="618.5" y="807.4951">normalized_data : raggedarray</text><text fill="#000000" font-family="sans-serif" font-size="14" lengthAdjust="spacing" textLength="225" x="618.5" y="823.792">normalizing_data : raggedarray</text><line style="stroke:#181818;stroke-width:0.5;" x1="613.5" x2="877.5" y1="831.0938" y2="831.0938"/></g><!--class IntervalChannelData--><g id="elem_IntervalChannelData"><rect codeLine="93" fill="#F1F1F1" height="162.0781" id="IntervalChannelData" rx="2.5" ry="2.5" style="stroke:#181818;stroke-width:0.5;" width="230" x="756.5" y="526"/><ellipse cx="794.45" cy="542" fill="#ADD1B2" rx="11" ry="11" style="stroke:#181818;stroke-width:1.0;"/><path d="M797.4344,547.6406 Q796.8563,547.9375 796.2156,548.0781 Q795.575,548.2344 794.8719,548.2344 Q792.3563,548.2344 791.0281,546.5938 Q789.7156,544.9375 789.7156,541.8125 Q789.7156,538.6719 791.0281,537.0313 Q792.3563,535.375 794.8719,535.375 Q795.575,535.375 796.2156,535.5313 Q796.8719,535.6719 797.4344,535.9688 L797.4344,538.6875 Q796.7938,538.1094 796.2,537.8438 Q795.6063,537.5781 794.9813,537.5781 Q793.6375,537.5781 792.95,538.6406 Q792.2625,539.7031 792.2625,541.8125 Q792.2625,543.9063 792.95,544.9844 Q793.6375,546.0469 794.9813,546.0469 Q795.6063,546.0469 796.2,545.7813 Q796.7938,545.5 797.4344,544.9219 L797.4344,547.6406 Z " fill="#000000"/><text fill="#000000" font-family="sans-serif" font-size="14" lengthAdjust="spacing" textLength="147" x="813.55" y="546.8467">IntervalChannelData</text><line style="stroke:#181818;stroke-width:0.5;" x1="757.5" x2="985.5" y1="558" y2="558"/><text fill="#000000" font-family="sans-serif" font-size="14" lengthAdjust="spacing" textLength="167" x="762.5" y="574.9951">raw_data : raggedarray</text><text fill="#000000" font-family="sans-serif" font-size="14" lengthAdjust="spacing" textLength="218" x="762.5" y="591.292">counts : np.ndarray(dtype=int)</text><text fill="#000000" font-family="sans-serif" font-size="14" lengthAdjust="spacing" textLength="139" x="762.5" y="607.5889">_mean : np.ndarray</text><text fill="#000000" font-family="sans-serif" font-size="14" lengthAdjust="spacing" textLength="119" x="762.5" y="623.8857">_std : np.ndarray</text><line style="stroke:#181818;stroke-width:0.5;" x1="757.5" x2="985.5" y1="631.1875" y2="631.1875"/><text fill="#000000" font-family="sans-serif" font-size="14" lengthAdjust="spacing" textLength="51" x="762.5" y="648.1826">mean()</text><text fill="#000000" font-family="sans-serif" font-size="14" lengthAdjust="spacing" textLength="31" x="762.5" y="664.4795">std()</text><text fill="#000000" font-family="sans-serif" font-size="14" lengthAdjust="spacing" textLength="107" x="762.5" y="680.7764">has_raw_data()</text></g><!--class IntervalNormalizedChannelData--><g id="elem_IntervalNormalizedChannelData"><rect codeLine="103" fill="#F1F1F1" height="80.5938" id="IntervalNormalizedChannelData" rx="2.5" ry="2.5" style="stroke:#181818;stroke-width:0.5;" width="260" x="913.5" y="758.5"/><ellipse cx="928.5" cy="774.5" fill="#ADD1B2" rx="11" ry="11" style="stroke:#181818;stroke-width:1.0;"/><path d="M931.4844,780.1406 Q930.9063,780.4375 930.2656,780.5781 Q929.625,780.7344 928.9219,780.7344 Q926.4063,780.7344 925.0781,779.0938 Q923.7656,777.4375 923.7656,774.3125 Q923.7656,771.1719 925.0781,769.5313 Q926.4063,767.875 928.9219,767.875 Q929.625,767.875 930.2656,768.0313 Q930.9219,768.1719 931.4844,768.4688 L931.4844,771.1875 Q930.8438,770.6094 930.25,770.3438 Q929.6563,770.0781 929.0313,770.0781 Q927.6875,770.0781 927,771.1406 Q926.3125,772.2031 926.3125,774.3125 Q926.3125,776.4063 927,777.4844 Q927.6875,778.5469 929.0313,778.5469 Q929.6563,778.5469 930.25,778.2813 Q930.8438,778 931.4844,777.4219 L931.4844,780.1406 Z " fill="#000000"/><text fill="#000000" font-family="sans-serif" font-size="14" lengthAdjust="spacing" textLength="228" x="942.5" y="779.3467">IntervalNormalizedChannelData</text><line style="stroke:#181818;stroke-width:0.5;" x1="914.5" x2="1172.5" y1="790.5" y2="790.5"/><text fill="#000000" font-family="sans-serif" font-size="14" lengthAdjust="spacing" textLength="221" x="919.5" y="807.4951">normalized_data : raggedarray</text><text fill="#000000" font-family="sans-serif" font-size="14" lengthAdjust="spacing" textLength="225" x="919.5" y="823.792">normalizing_data : raggedarray</text><line style="stroke:#181818;stroke-width:0.5;" x1="914.5" x2="1172.5" y1="831.0938" y2="831.0938"/></g><!--class ArrayChannelData--><g id="elem_ArrayChannelData"><rect codeLine="108" fill="#F1F1F1" height="48" id="ArrayChannelData" rx="2.5" ry="2.5" style="stroke:#181818;stroke-width:0.5;" width="164" x="1021.5" y="583"/><ellipse cx="1036.5" cy="599" fill="#ADD1B2" rx="11" ry="11" style="stroke:#181818;stroke-width:1.0;"/><path d="M1039.4844,604.6406 Q1038.9063,604.9375 1038.2656,605.0781 Q1037.625,605.2344 1036.9219,605.2344 Q1034.4063,605.2344 1033.0781,603.5938 Q1031.7656,601.9375 1031.7656,598.8125 Q1031.7656,595.6719 1033.0781,594.0313 Q1034.4063,592.375 1036.9219,592.375 Q1037.625,592.375 1038.2656,592.5313 Q1038.9219,592.6719 1039.4844,592.9688 L1039.4844,595.6875 Q1038.8438,595.1094 1038.25,594.8438 Q1037.6563,594.5781 1037.0313,594.5781 Q1035.6875,594.5781 1035,595.6406 Q1034.3125,596.7031 1034.3125,598.8125 Q1034.3125,600.9063 1035,601.9844 Q1035.6875,603.0469 1037.0313,603.0469 Q1037.6563,603.0469 1038.25,602.7813 Q1038.8438,602.5 1039.4844,601.9219 L1039.4844,604.6406 Z " fill="#000000"/><text fill="#000000" font-family="sans-serif" font-size="14" lengthAdjust="spacing" textLength="132" x="1050.5" y="603.8467">ArrayChannelData</text><line style="stroke:#181818;stroke-width:0.5;" x1="1022.5" x2="1184.5" y1="615" y2="615"/><line style="stroke:#181818;stroke-width:0.5;" x1="1022.5" x2="1184.5" y1="623" y2="623"/></g><!--class AreaChannelData--><g id="elem_AreaChannelData"><rect codeLine="111" fill="#F1F1F1" height="48" id="AreaChannelData" rx="2.5" ry="2.5" style="stroke:#181818;stroke-width:0.5;" width="159" x="1221" y="583"/><ellipse cx="1236" cy="599" fill="#ADD1B2" rx="11" ry="11" style="stroke:#181818;stroke-width:1.0;"/><path d="M1238.9844,604.6406 Q1238.4063,604.9375 1237.7656,605.0781 Q1237.125,605.2344 1236.4219,605.2344 Q1233.9063,605.2344 1232.5781,603.5938 Q1231.2656,601.9375 1231.2656,598.8125 Q1231.2656,595.6719 1232.5781,594.0313 Q1233.9063,592.375 1236.4219,592.375 Q1237.125,592.375 1237.7656,592.5313 Q1238.4219,592.6719 1238.9844,592.9688 L1238.9844,595.6875 Q1238.3438,595.1094 1237.75,594.8438 Q1237.1563,594.5781 1236.5313,594.5781 Q1235.1875,594.5781 1234.5,595.6406 Q1233.8125,596.7031 1233.8125,598.8125 Q1233.8125,600.9063 1234.5,601.9844 Q1235.1875,603.0469 1236.5313,603.0469 Q1237.1563,603.0469 1237.75,602.7813 Q1238.3438,602.5 1238.9844,601.9219 L1238.9844,604.6406 Z " fill="#000000"/><text fill="#000000" font-family="sans-serif" font-size="14" lengthAdjust="spacing" textLength="127" x="1250" y="603.8467">AreaChannelData</text><line style="stroke:#181818;stroke-width:0.5;" x1="1222" x2="1379" y1="615" y2="615"/><line style="stroke:#181818;stroke-width:0.5;" x1="1222" x2="1379" y1="623" y2="623"/></g><!--reverse link Data to DataImporter--><g id="link_Data_DataImporter"><path codeLine="31" d="M978.61,91.5 C990.19,91.5 989.78,91.5 1001.37,91.5 " fill="none" id="Data-backto-DataImporter" style="stroke:#181818;stroke-width:1.0;"/><polygon fill="#181818" points="966.61,91.5,972.61,95.5,978.61,91.5,972.61,87.5,966.61,91.5" style="stroke:#181818;stroke-width:1.0;"/></g><!--reverse link Data to Metadata--><g id="link_Data_Metadata"><path codeLine="32" d="M796.2792,155.1198 C781.6092,165.7698 775.39,169.02 759.5,177 C674.67,219.62 643.38,203.64 554.5,237 C548.14,239.39 541.54,242.11 535.08,244.94 " fill="none" id="Data-backto-Metadata" style="stroke:#181818;stroke-width:1.0;"/><polygon fill="#181818" points="805.99,148.07,798.7846,148.3579,796.2792,155.1198,803.4845,154.8318,805.99,148.07" style="stroke:#181818;stroke-width:1.0;"/></g><!--reverse link Data to MeasureData--><g id="link_Data_MeasureData"><path d="M871.5,166.03 C871.5,195.35 871.5,212.25 871.5,236.83 " fill="none" id="Data-backto-MeasureData" style="stroke:#181818;stroke-width:1.0;"/><polygon fill="none" points="871.5,148.03,865.5,166.03,877.5,166.03,871.5,148.03" style="stroke:#181818;stroke-width:1.0;"/></g><!--reverse link Data to MonitorData--><g id="link_Data_MonitorData"><path d="M956.4477,158.7002 C970.2677,168.7702 970.33,168.24 984.5,177 C1020.24,199.11 1062.06,220.41 1096.49,236.83 " fill="none" id="Data-backto-MonitorData" style="stroke:#181818;stroke-width:1.0;"/><polygon fill="none" points="941.9,148.1,952.9143,163.5495,959.9811,153.851,941.9,148.1" style="stroke:#181818;stroke-width:1.0;"/></g><!--reverse link MeasureData to AxisData--><g id="link_MeasureData_AxisData"><path d="M730.6898,301.4848 C621.1498,326.1548 493.96,355.34 481.5,361 C475.46,363.75 469.41,367.08 463.56,370.7 " fill="none" id="MeasureData-backto-AxisData" style="stroke:#181818;stroke-width:1.0;"/><polygon fill="none" points="748.25,297.53,729.3716,295.6314,732.0081,307.3382,748.25,297.53" style="stroke:#181818;stroke-width:1.0;"/></g><!--reverse link MeasureData to ChannelData--><g id="link_MeasureData_ChannelData"><path d="M871.5,319.08 C871.5,344.6 871.5,362.18 871.5,385.28 " fill="none" id="MeasureData-backto-ChannelData" style="stroke:#181818;stroke-width:1.0;"/><polygon fill="none" points="871.5,301.08,865.5,319.08,877.5,319.08,871.5,301.08" style="stroke:#181818;stroke-width:1.0;"/></g><!--reverse link MeasureData to TimestampData--><g id="link_MeasureData_TimestampData"><path d="M941.1955,310.0505 C971.8655,327.6805 995.27,341.13 1029.72,360.93 " fill="none" id="MeasureData-backto-TimestampData" style="stroke:#181818;stroke-width:1.0;"/><polygon fill="none" points="925.59,301.08,938.2053,315.2523,944.1856,304.8487,925.59,301.08" style="stroke:#181818;stroke-width:1.0;"/></g><!--reverse link ChannelData to SinglePointChannelData--><g id="link_ChannelData_SinglePointChannelData"><path d="M823.3857,443.2948 C809.4357,452.1348 807.85,451.91 791.5,458 C650.18,510.68 598.14,463.54 457.5,518 C416.27,533.96 373.98,562.57 346.83,582.83 " fill="none" id="ChannelData-backto-SinglePointChannelData" style="stroke:#181818;stroke-width:1.0;"/><polygon fill="none" points="838.59,433.66,820.1741,438.2267,826.5973,448.3629,838.59,433.66" style="stroke:#181818;stroke-width:1.0;"/></g><!--reverse link SinglePointChannelData to SinglePointNormalizedChannelData--><g id="link_SinglePointChannelData_SinglePointNormalizedChannelData"><path d="M284.9767,644.7846 C257.0267,676.3946 218.61,719.84 184.63,758.27 " fill="none" id="SinglePointChannelData-backto-SinglePointNormalizedChannelData" style="stroke:#181818;stroke-width:1.0;"/><polygon fill="none" points="296.9,631.3,280.4818,640.8102,289.4716,648.7591,296.9,631.3" style="stroke:#181818;stroke-width:1.0;"/></g><!--reverse link ChannelData to AverageChannelData--><g id="link_ChannelData_AverageChannelData"><path d="M824.7463,443.9812 C795.4263,464.9812 764.81,486.9 721.41,517.98 " fill="none" id="ChannelData-backto-AverageChannelData" style="stroke:#181818;stroke-width:1.0;"/><polygon fill="none" points="839.38,433.5,821.2526,439.1033,828.24,448.8591,839.38,433.5" style="stroke:#181818;stroke-width:1.0;"/></g><!--reverse link AverageChannelData to AverageNormalizedChannelData--><g id="link_AverageChannelData_AverageNormalizedChannelData"><path d="M677.6346,710.2865 C694.4546,732.0265 700.64,740.02 714.67,758.16 " fill="none" id="AverageChannelData-backto-AverageNormalizedChannelData" style="stroke:#181818;stroke-width:1.0;"/><polygon fill="none" points="666.62,696.05,672.8891,713.958,682.3801,706.615,666.62,696.05" style="stroke:#181818;stroke-width:1.0;"/></g><!--reverse link ChannelData to IntervalChannelData--><g id="link_ChannelData_IntervalChannelData"><path d="M871.5,451.69 C871.5,474.45 871.5,492.48 871.5,525.73 " fill="none" id="ChannelData-backto-IntervalChannelData" style="stroke:#181818;stroke-width:1.0;"/><polygon fill="none" points="871.5,433.69,865.5,451.69,877.5,451.69,871.5,433.69" style="stroke:#181818;stroke-width:1.0;"/></g><!--reverse link IntervalChannelData to IntervalNormalizedChannelData--><g id="link_IntervalChannelData_IntervalNormalizedChannelData"><path d="M956.0219,701.3727 C978.0619,725.7127 989.23,738.05 1007.72,758.47 " fill="none" id="IntervalChannelData-backto-IntervalNormalizedChannelData" style="stroke:#181818;stroke-width:1.0;"/><polygon fill="none" points="943.94,688.03,951.5743,705.4,960.4695,697.3454,943.94,688.03" style="stroke:#181818;stroke-width:1.0;"/></g><!--reverse link ChannelData to ArrayChannelData--><g id="link_ChannelData_ArrayChannelData"><path d="M914.9927,444.7728 C942.1627,466.2828 969.4,488.24 1004.5,518 C1029.93,539.56 1058.32,564.93 1078.15,582.88 " fill="none" id="ChannelData-backto-ArrayChannelData" style="stroke:#181818;stroke-width:1.0;"/><polygon fill="none" points="900.88,433.6,911.2685,449.477,918.717,440.0685,900.88,433.6" style="stroke:#181818;stroke-width:1.0;"/></g><!--reverse link ChannelData to AreaChannelData--><g id="link_ChannelData_AreaChannelData"><path d="M920.6377,443.224 C934.4577,451.854 935.63,451.57 951.5,458 C1058.21,501.21 1101.66,464.3 1203.5,518 C1234.27,534.23 1262.91,562.49 1280.97,582.61 " fill="none" id="ChannelData-backto-AreaChannelData" style="stroke:#181818;stroke-width:1.0;"/><polygon fill="none" points="905.37,433.69,917.4597,448.3133,923.8157,438.1348,905.37,433.69" style="stroke:#181818;stroke-width:1.0;"/></g><!--SRC=[jLPBQnin4BxxLmovr2c9QGgz648n3IKvj0JIOy5CLhEscbrfaRHst93_tj5ZrxAzJW9jVR4qciStCzz8-yu-IDMWmHf48-7YquVHgAZGMhX2X_0q0lxLv53uxHI-fMMGpvDGDHCbq1ZSHB6i6sqS6JxoNcxIDXnwa_7fw7caj2Eeg7IWow0sdSvxpoTXUGAjRR6gDb1evL0g2mWNLn120Ie1aYL5GTQI27OhYU2MbAB0Wfo7mVYNMi3uTiF_2XgZ6p9kSyggw89TmL5iiCm10okNqbYNWe0iGP5VeTbCHi7ogpOWbP0hAHWg54jKYYfOOTMI1KkCXOnSaO1GLhB1QhOYWmlw4hL3gNqwDugZicacJs5cFkLzzPaXt94P0gjhMdTfsOOAoQWmvDQN4KZori37gr0eu1GGAcb3AwBa_XSLBc8Tiq61bloXh1cr3S6naWzqEXaHhtqlSzxq1OpyiRer1OLbf4OWGDBl6CMwYHH6BfPk2dU-TX8NdfkbDZzLJyDQYxOYhap8-ltvBikIy7pBrJuIsjPGEAT7ny1tMFvKIgh4CpJQIYSraordzbYuJKENKhaSkrRIQVEQnrfMN5tYweitE9qzIhlZCSST7SzBzaXYEo_PVZjSeOw-Qvt7eDep9TemFHkE8jN2ivrf4PHoLWNcU8EcqZnEtFc57qKt2PhNf0ho_U5UbIKPKguR0dl60wYOw3p1SVPxZIwszx_cDUSglKT6adCfXp5SZRvgFsHDrc7Tl5AwhYVpCDZprvkzOyIXtch3Tq-lENOTkZDFNhhqVhAMtt7vAxhLR3oKSYvx6ZBwhatDy_YRn93v4U-n7getFNARTmhiP41Zozh36sqGVl1fSDtvOgC5PU6wKYDJhMxSopMUruHgu06oJXnAlUuusl5vMc64tO-EbotHpZk4sscwP_BhEepJGQgxhkBTpy-F8TSQfebMQG3u-U5xDBqDBJzQu7Hd1vh_qsr_hTSWDEj4p6bmugGR1f4yyCNiety-k8CJmfTfCT2nOvJORz809t8L9aK2Cl2W_Hqj2jsg_qwA0mBiPVDoNOTo_dU5JGtU_nmOBcgcl_kbS4pz3m00]--></g></svg>