<?xml version="1.0" encoding="us-ascii" standalone="no"?><svg xmlns="http://www.w3.org/2000/svg" xmlns:xlink="http://www.w3.org/1999/xlink" contentStyleType="text/css" height="801px" preserveAspectRatio="none" style="width:1183px;height:801px;background:#FFFFFF;" version="1.1" viewBox="0 0 1183 801" width="1183px" zoomAndPan="magnify"><defs/><g><!--class Data--><g id="elem_Data"><rect codeLine="3" fill="#F1F1F1" height="113.1875" id="Data" rx="2.5" ry="2.5" style="stroke:#181818;stroke-width:0.5;" width="190" x="566.5" y="35"/><ellipse cx="640.25" cy="51" fill="#ADD1B2" rx="11" ry="11" style="stroke:#181818;stroke-width:1.0;"/><path d="M643.2344,56.6406 Q642.6563,56.9375 642.0156,57.0781 Q641.375,57.2344 640.6719,57.2344 Q638.1563,57.2344 636.8281,55.5938 Q635.5156,53.9375 635.5156,50.8125 Q635.5156,47.6719 636.8281,46.0313 Q638.1563,44.375 640.6719,44.375 Q641.375,44.375 642.0156,44.5313 Q642.6719,44.6719 643.2344,44.9688 L643.2344,47.6875 Q642.5938,47.1094 642,46.8438 Q641.4063,46.5781 640.7813,46.5781 Q639.4375,46.5781 638.75,47.6406 Q638.0625,48.7031 638.0625,50.8125 Q638.0625,52.9063 638.75,53.9844 Q639.4375,55.0469 640.7813,55.0469 Q641.4063,55.0469 642,54.7813 Q642.5938,54.5 643.2344,53.9219 L643.2344,56.6406 Z " fill="#000000"/><text fill="#000000" font-family="sans-serif" font-size="14" lengthAdjust="spacing" textLength="34" x="660.75" y="55.8467">Data</text><line style="stroke:#181818;stroke-width:0.5;" x1="567.5" x2="755.5" y1="67" y2="67"/><text fill="#000000" font-family="sans-serif" font-size="14" lengthAdjust="spacing" textLength="149" x="572.5" y="83.9951">metadata : Metadata</text><text fill="#000000" font-family="sans-serif" font-size="14" lengthAdjust="spacing" textLength="130" x="572.5" y="100.292">_data : np.ndarray</text><text fill="#000000" font-family="sans-serif" font-size="14" lengthAdjust="spacing" textLength="178" x="572.5" y="116.5889">_importer : DataImporter</text><line style="stroke:#181818;stroke-width:0.5;" x1="567.5" x2="755.5" y1="123.8906" y2="123.8906"/><text fill="#000000" font-family="sans-serif" font-size="14" lengthAdjust="spacing" textLength="42" x="572.5" y="140.8857">data()</text></g><path d="M173.5,6 L173.5,167.3281 A0,0 0 0 0 173.5,167.3281 L531.5,167.3281 A0,0 0 0 0 531.5,167.3281 L531.5,90.6641 L570.5,95.4453 L531.5,82.6641 L531.5,16 L521.5,6 L173.5,6 A0,0 0 0 0 173.5,6 " fill="#FEFFDD" style="stroke:#181818;stroke-width:0.5;"/><path d="M521.5,6 L521.5,16 L531.5,16 L521.5,6 " fill="#FEFFDD" style="stroke:#181818;stroke-width:0.5;"/><text fill="#000000" font-family="sans-serif" font-size="13" lengthAdjust="spacing" textLength="337" x="179.5" y="23.0669">"_data" usually contains a 1D array and is accessed</text><text fill="#000000" font-family="sans-serif" font-size="13" lengthAdjust="spacing" textLength="333" x="179.5" y="38.1997">via the data() getter method (Python property) that</text><text fill="#000000" font-family="sans-serif" font-size="13" lengthAdjust="spacing" textLength="150" x="179.5" y="53.3325">calls the DataImporter.</text><text fill="#000000" font-family="sans-serif" font-size="13" lengthAdjust="spacing" textLength="8" x="179.5" y="68.4653">&#160;</text><text fill="#000000" font-family="sans-serif" font-size="13" lengthAdjust="spacing" textLength="325" x="179.5" y="83.5981">For individual detector values see derived classes</text><text fill="#000000" font-family="sans-serif" font-size="13" lengthAdjust="spacing" textLength="314" x="179.5" y="98.731">AverageDetectorData and IntervalDetectorData.</text><text fill="#000000" font-family="sans-serif" font-size="13" lengthAdjust="spacing" textLength="8" x="179.5" y="113.8638">&#160;</text><text fill="#000000" font-family="sans-serif" font-size="13" lengthAdjust="spacing" textLength="336" x="179.5" y="128.9966">ArrayDetectorData and ExternalData are somewhat</text><text fill="#000000" font-family="sans-serif" font-size="13" lengthAdjust="spacing" textLength="317" x="179.5" y="144.1294">special as they contain either 2D data or a list of</text><text fill="#000000" font-family="sans-serif" font-size="13" lengthAdjust="spacing" textLength="277" x="179.5" y="159.2622">data objects (in case of images and alike).</text><!--class DataImporter--><g id="elem_DataImporter"><rect codeLine="22" fill="#F1F1F1" height="80.5938" id="DataImporter" rx="2.5" ry="2.5" style="stroke:#181818;stroke-width:0.5;" width="128" x="791.5" y="51"/><ellipse cx="806.5" cy="67" fill="#ADD1B2" rx="11" ry="11" style="stroke:#181818;stroke-width:1.0;"/><path d="M809.4844,72.6406 Q808.9063,72.9375 808.2656,73.0781 Q807.625,73.2344 806.9219,73.2344 Q804.4063,73.2344 803.0781,71.5938 Q801.7656,69.9375 801.7656,66.8125 Q801.7656,63.6719 803.0781,62.0313 Q804.4063,60.375 806.9219,60.375 Q807.625,60.375 808.2656,60.5313 Q808.9219,60.6719 809.4844,60.9688 L809.4844,63.6875 Q808.8438,63.1094 808.25,62.8438 Q807.6563,62.5781 807.0313,62.5781 Q805.6875,62.5781 805,63.6406 Q804.3125,64.7031 804.3125,66.8125 Q804.3125,68.9063 805,69.9844 Q805.6875,71.0469 807.0313,71.0469 Q807.6563,71.0469 808.25,70.7813 Q808.8438,70.5 809.4844,69.9219 L809.4844,72.6406 Z " fill="#000000"/><text fill="#000000" font-family="sans-serif" font-size="14" lengthAdjust="spacing" textLength="96" x="820.5" y="71.8467">DataImporter</text><line style="stroke:#181818;stroke-width:0.5;" x1="792.5" x2="918.5" y1="83" y2="83"/><text fill="#000000" font-family="sans-serif" font-size="14" lengthAdjust="spacing" textLength="48" x="797.5" y="99.9951">source</text><line style="stroke:#181818;stroke-width:0.5;" x1="792.5" x2="918.5" y1="107.2969" y2="107.2969"/><text fill="#000000" font-family="sans-serif" font-size="14" lengthAdjust="spacing" textLength="57" x="797.5" y="124.292">import()</text></g><!--class Metadata--><g id="elem_Metadata"><rect codeLine="27" fill="#F1F1F1" height="48" id="Metadata" rx="2.5" ry="2.5" style="stroke:#181818;stroke-width:0.5;" width="99" x="352" y="245"/><ellipse cx="367" cy="261" fill="#ADD1B2" rx="11" ry="11" style="stroke:#181818;stroke-width:1.0;"/><path d="M369.9844,266.6406 Q369.4063,266.9375 368.7656,267.0781 Q368.125,267.2344 367.4219,267.2344 Q364.9063,267.2344 363.5781,265.5938 Q362.2656,263.9375 362.2656,260.8125 Q362.2656,257.6719 363.5781,256.0313 Q364.9063,254.375 367.4219,254.375 Q368.125,254.375 368.7656,254.5313 Q369.4219,254.6719 369.9844,254.9688 L369.9844,257.6875 Q369.3438,257.1094 368.75,256.8438 Q368.1563,256.5781 367.5313,256.5781 Q366.1875,256.5781 365.5,257.6406 Q364.8125,258.7031 364.8125,260.8125 Q364.8125,262.9063 365.5,263.9844 Q366.1875,265.0469 367.5313,265.0469 Q368.1563,265.0469 368.75,264.7813 Q369.3438,264.5 369.9844,263.9219 L369.9844,266.6406 Z " fill="#000000"/><text fill="#000000" font-family="sans-serif" font-size="14" lengthAdjust="spacing" textLength="67" x="381" y="265.8467">Metadata</text><line style="stroke:#181818;stroke-width:0.5;" x1="353" x2="450" y1="277" y2="277"/><line style="stroke:#181818;stroke-width:0.5;" x1="353" x2="450" y1="285" y2="285"/></g><g id="elem_GMN7"><path d="M279,365 L279,405.2656 A0,0 0 0 0 279,405.2656 L420,405.2656 A0,0 0 0 0 420,405.2656 L420,375 L410,365 L362.28,365 L390.98,293.07 L354.28,365 L279,365 A0,0 0 0 0 279,365 " fill="#FEFFDD" style="stroke:#181818;stroke-width:0.5;"/><path d="M410,365 L410,375 L420,375 L410,365 " fill="#FEFFDD" style="stroke:#181818;stroke-width:0.5;"/><text fill="#000000" font-family="sans-serif" font-size="13" lengthAdjust="spacing" textLength="104" x="285" y="382.0669">See diagram for</text><text fill="#000000" font-family="sans-serif" font-size="13" lengthAdjust="spacing" textLength="120" x="285" y="397.1997">metadata module.</text></g><!--class MeasureData--><g id="elem_MeasureData"><rect codeLine="34" fill="#F1F1F1" height="64.2969" id="MeasureData" rx="2.5" ry="2.5" style="stroke:#181818;stroke-width:0.5;" width="246" x="538.5" y="237"/><ellipse cx="609.75" cy="253" fill="#ADD1B2" rx="11" ry="11" style="stroke:#181818;stroke-width:1.0;"/><path d="M612.7344,258.6406 Q612.1563,258.9375 611.5156,259.0781 Q610.875,259.2344 610.1719,259.2344 Q607.6563,259.2344 606.3281,257.5938 Q605.0156,255.9375 605.0156,252.8125 Q605.0156,249.6719 606.3281,248.0313 Q607.6563,246.375 610.1719,246.375 Q610.875,246.375 611.5156,246.5313 Q612.1719,246.6719 612.7344,246.9688 L612.7344,249.6875 Q612.0938,249.1094 611.5,248.8438 Q610.9063,248.5781 610.2813,248.5781 Q608.9375,248.5781 608.25,249.6406 Q607.5625,250.7031 607.5625,252.8125 Q607.5625,254.9063 608.25,255.9844 Q608.9375,257.0469 610.2813,257.0469 Q610.9063,257.0469 611.5,256.7813 Q612.0938,256.5 612.7344,255.9219 L612.7344,258.6406 Z " fill="#000000"/><text fill="#000000" font-family="sans-serif" font-size="14" lengthAdjust="spacing" textLength="95" x="630.25" y="257.8467">MeasureData</text><line style="stroke:#181818;stroke-width:0.5;" x1="539.5" x2="783.5" y1="269" y2="269"/><text fill="#000000" font-family="sans-serif" font-size="14" lengthAdjust="spacing" textLength="234" x="544.5" y="285.9951">positions : np.ndarray(dtype=int)</text><line style="stroke:#181818;stroke-width:0.5;" x1="539.5" x2="783.5" y1="293.2969" y2="293.2969"/></g><!--class MonitorData--><g id="elem_MonitorData"><rect codeLine="38" fill="#F1F1F1" height="64.2969" id="MonitorData" rx="2.5" ry="2.5" style="stroke:#181818;stroke-width:0.5;" width="271" x="820" y="237"/><ellipse cx="907.25" cy="253" fill="#ADD1B2" rx="11" ry="11" style="stroke:#181818;stroke-width:1.0;"/><path d="M910.2344,258.6406 Q909.6563,258.9375 909.0156,259.0781 Q908.375,259.2344 907.6719,259.2344 Q905.1563,259.2344 903.8281,257.5938 Q902.5156,255.9375 902.5156,252.8125 Q902.5156,249.6719 903.8281,248.0313 Q905.1563,246.375 907.6719,246.375 Q908.375,246.375 909.0156,246.5313 Q909.6719,246.6719 910.2344,246.9688 L910.2344,249.6875 Q909.5938,249.1094 909,248.8438 Q908.4063,248.5781 907.7813,248.5781 Q906.4375,248.5781 905.75,249.6406 Q905.0625,250.7031 905.0625,252.8125 Q905.0625,254.9063 905.75,255.9844 Q906.4375,257.0469 907.7813,257.0469 Q908.4063,257.0469 909,256.7813 Q909.5938,256.5 910.2344,255.9219 L910.2344,258.6406 Z " fill="#000000"/><text fill="#000000" font-family="sans-serif" font-size="14" lengthAdjust="spacing" textLength="88" x="927.75" y="257.8467">MonitorData</text><line style="stroke:#181818;stroke-width:0.5;" x1="821" x2="1090" y1="269" y2="269"/><text fill="#000000" font-family="sans-serif" font-size="14" lengthAdjust="spacing" textLength="259" x="826" y="285.9951">milliseconds : np.ndarray(dtype=int)</text><line style="stroke:#181818;stroke-width:0.5;" x1="821" x2="1090" y1="293.2969" y2="293.2969"/></g><!--class MotorData--><g id="elem_MotorData"><rect codeLine="42" fill="#F1F1F1" height="48" id="MotorData" rx="2.5" ry="2.5" style="stroke:#181818;stroke-width:0.5;" width="107" x="455" y="361"/><ellipse cx="470" cy="377" fill="#ADD1B2" rx="11" ry="11" style="stroke:#181818;stroke-width:1.0;"/><path d="M472.9844,382.6406 Q472.4063,382.9375 471.7656,383.0781 Q471.125,383.2344 470.4219,383.2344 Q467.9063,383.2344 466.5781,381.5938 Q465.2656,379.9375 465.2656,376.8125 Q465.2656,373.6719 466.5781,372.0313 Q467.9063,370.375 470.4219,370.375 Q471.125,370.375 471.7656,370.5313 Q472.4219,370.6719 472.9844,370.9688 L472.9844,373.6875 Q472.3438,373.1094 471.75,372.8438 Q471.1563,372.5781 470.5313,372.5781 Q469.1875,372.5781 468.5,373.6406 Q467.8125,374.7031 467.8125,376.8125 Q467.8125,378.9063 468.5,379.9844 Q469.1875,381.0469 470.5313,381.0469 Q471.1563,381.0469 471.75,380.7813 Q472.3438,380.5 472.9844,379.9219 L472.9844,382.6406 Z " fill="#000000"/><text fill="#000000" font-family="sans-serif" font-size="14" lengthAdjust="spacing" textLength="75" x="484" y="381.8467">MotorData</text><line style="stroke:#181818;stroke-width:0.5;" x1="456" x2="561" y1="393" y2="393"/><line style="stroke:#181818;stroke-width:0.5;" x1="456" x2="561" y1="401" y2="401"/></g><!--class DetectorData--><g id="elem_DetectorData"><rect codeLine="45" fill="#F1F1F1" height="48" id="DetectorData" rx="2.5" ry="2.5" style="stroke:#181818;stroke-width:0.5;" width="128" x="597.5" y="361"/><ellipse cx="612.5" cy="377" fill="#ADD1B2" rx="11" ry="11" style="stroke:#181818;stroke-width:1.0;"/><path d="M615.4844,382.6406 Q614.9063,382.9375 614.2656,383.0781 Q613.625,383.2344 612.9219,383.2344 Q610.4063,383.2344 609.0781,381.5938 Q607.7656,379.9375 607.7656,376.8125 Q607.7656,373.6719 609.0781,372.0313 Q610.4063,370.375 612.9219,370.375 Q613.625,370.375 614.2656,370.5313 Q614.9219,370.6719 615.4844,370.9688 L615.4844,373.6875 Q614.8438,373.1094 614.25,372.8438 Q613.6563,372.5781 613.0313,372.5781 Q611.6875,372.5781 611,373.6406 Q610.3125,374.7031 610.3125,376.8125 Q610.3125,378.9063 611,379.9844 Q611.6875,381.0469 613.0313,381.0469 Q613.6563,381.0469 614.25,380.7813 Q614.8438,380.5 615.4844,379.9219 L615.4844,382.6406 Z " fill="#000000"/><text fill="#000000" font-family="sans-serif" font-size="14" lengthAdjust="spacing" textLength="96" x="626.5" y="381.8467">DetectorData</text><line style="stroke:#181818;stroke-width:0.5;" x1="598.5" x2="724.5" y1="393" y2="393"/><line style="stroke:#181818;stroke-width:0.5;" x1="598.5" x2="724.5" y1="401" y2="401"/></g><!--class ExternalData--><g id="elem_ExternalData"><rect codeLine="48" fill="#F1F1F1" height="48" id="ExternalData" rx="2.5" ry="2.5" style="stroke:#181818;stroke-width:0.5;" width="125" x="761" y="361"/><ellipse cx="776" cy="377" fill="#ADD1B2" rx="11" ry="11" style="stroke:#181818;stroke-width:1.0;"/><path d="M778.9844,382.6406 Q778.4063,382.9375 777.7656,383.0781 Q777.125,383.2344 776.4219,383.2344 Q773.9063,383.2344 772.5781,381.5938 Q771.2656,379.9375 771.2656,376.8125 Q771.2656,373.6719 772.5781,372.0313 Q773.9063,370.375 776.4219,370.375 Q777.125,370.375 777.7656,370.5313 Q778.4219,370.6719 778.9844,370.9688 L778.9844,373.6875 Q778.3438,373.1094 777.75,372.8438 Q777.1563,372.5781 776.5313,372.5781 Q775.1875,372.5781 774.5,373.6406 Q773.8125,374.7031 773.8125,376.8125 Q773.8125,378.9063 774.5,379.9844 Q775.1875,381.0469 776.5313,381.0469 Q777.1563,381.0469 777.75,380.7813 Q778.3438,380.5 778.9844,379.9219 L778.9844,382.6406 Z " fill="#000000"/><text fill="#000000" font-family="sans-serif" font-size="14" lengthAdjust="spacing" textLength="93" x="790" y="381.8467">ExternalData</text><line style="stroke:#181818;stroke-width:0.5;" x1="762" x2="885" y1="393" y2="393"/><line style="stroke:#181818;stroke-width:0.5;" x1="762" x2="885" y1="401" y2="401"/></g><!--class TimestampData--><g id="elem_TimestampData"><rect codeLine="50" fill="#F1F1F1" height="48" id="TimestampData" rx="2.5" ry="2.5" style="stroke:#181818;stroke-width:0.5;" width="146" x="921.5" y="361"/><ellipse cx="936.5" cy="377" fill="#ADD1B2" rx="11" ry="11" style="stroke:#181818;stroke-width:1.0;"/><path d="M939.4844,382.6406 Q938.9063,382.9375 938.2656,383.0781 Q937.625,383.2344 936.9219,383.2344 Q934.4063,383.2344 933.0781,381.5938 Q931.7656,379.9375 931.7656,376.8125 Q931.7656,373.6719 933.0781,372.0313 Q934.4063,370.375 936.9219,370.375 Q937.625,370.375 938.2656,370.5313 Q938.9219,370.6719 939.4844,370.9688 L939.4844,373.6875 Q938.8438,373.1094 938.25,372.8438 Q937.6563,372.5781 937.0313,372.5781 Q935.6875,372.5781 935,373.6406 Q934.3125,374.7031 934.3125,376.8125 Q934.3125,378.9063 935,379.9844 Q935.6875,381.0469 937.0313,381.0469 Q937.6563,381.0469 938.25,380.7813 Q938.8438,380.5 939.4844,379.9219 L939.4844,382.6406 Z " fill="#000000"/><text fill="#000000" font-family="sans-serif" font-size="14" lengthAdjust="spacing" textLength="114" x="950.5" y="381.8467">TimestampData</text><line style="stroke:#181818;stroke-width:0.5;" x1="922.5" x2="1066.5" y1="393" y2="393"/><line style="stroke:#181818;stroke-width:0.5;" x1="922.5" x2="1066.5" y1="401" y2="401"/></g><!--class StandardDetectorData--><g id="elem_StandardDetectorData"><rect codeLine="53" fill="#F1F1F1" height="48" id="StandardDetectorData" rx="2.5" ry="2.5" style="stroke:#181818;stroke-width:0.5;" width="193" x="18" y="542.5"/><ellipse cx="33" cy="558.5" fill="#ADD1B2" rx="11" ry="11" style="stroke:#181818;stroke-width:1.0;"/><path d="M35.9844,564.1406 Q35.4063,564.4375 34.7656,564.5781 Q34.125,564.7344 33.4219,564.7344 Q30.9063,564.7344 29.5781,563.0938 Q28.2656,561.4375 28.2656,558.3125 Q28.2656,555.1719 29.5781,553.5313 Q30.9063,551.875 33.4219,551.875 Q34.125,551.875 34.7656,552.0313 Q35.4219,552.1719 35.9844,552.4688 L35.9844,555.1875 Q35.3438,554.6094 34.75,554.3438 Q34.1563,554.0781 33.5313,554.0781 Q32.1875,554.0781 31.5,555.1406 Q30.8125,556.2031 30.8125,558.3125 Q30.8125,560.4063 31.5,561.4844 Q32.1875,562.5469 33.5313,562.5469 Q34.1563,562.5469 34.75,562.2813 Q35.3438,562 35.9844,561.4219 L35.9844,564.1406 Z " fill="#000000"/><text fill="#000000" font-family="sans-serif" font-size="14" lengthAdjust="spacing" textLength="161" x="47" y="563.3467">StandardDetectorData</text><line style="stroke:#181818;stroke-width:0.5;" x1="19" x2="210" y1="574.5" y2="574.5"/><line style="stroke:#181818;stroke-width:0.5;" x1="19" x2="210" y1="582.5" y2="582.5"/></g><g id="elem_GMN26"><path d="M6,724 L6,794.5313 A0,0 0 0 0 6,794.5313 L223,794.5313 A0,0 0 0 0 223,794.5313 L223,734 L213,724 L118.5,724 L114.5,590.54 L110.5,724 L6,724 A0,0 0 0 0 6,724 " fill="#FEFFDD" style="stroke:#181818;stroke-width:0.5;"/><path d="M213,724 L213,734 L223,734 L213,724 " fill="#FEFFDD" style="stroke:#181818;stroke-width:0.5;"/><text fill="#000000" font-family="sans-serif" font-size="13" lengthAdjust="spacing" textLength="156" x="12" y="741.0669">This type does not exist</text><text fill="#000000" font-family="sans-serif" font-size="13" lengthAdjust="spacing" textLength="176" x="12" y="756.1997">in eve-gui and SCML, but is</text><text fill="#000000" font-family="sans-serif" font-size="13" lengthAdjust="spacing" textLength="196" x="12" y="771.3325">a logical functional distinction</text><text fill="#000000" font-family="sans-serif" font-size="13" lengthAdjust="spacing" textLength="174" x="12" y="786.4653">from the AverageDetector.</text></g><!--class AverageDetectorData--><g id="elem_AverageDetectorData"><rect codeLine="62" fill="#F1F1F1" height="194.6719" id="AverageDetectorData" rx="2.5" ry="2.5" style="stroke:#181818;stroke-width:0.5;" width="265" x="246" y="469"/><ellipse cx="296.25" cy="485" fill="#ADD1B2" rx="11" ry="11" style="stroke:#181818;stroke-width:1.0;"/><path d="M299.2344,490.6406 Q298.6563,490.9375 298.0156,491.0781 Q297.375,491.2344 296.6719,491.2344 Q294.1563,491.2344 292.8281,489.5938 Q291.5156,487.9375 291.5156,484.8125 Q291.5156,481.6719 292.8281,480.0313 Q294.1563,478.375 296.6719,478.375 Q297.375,478.375 298.0156,478.5313 Q298.6719,478.6719 299.2344,478.9688 L299.2344,481.6875 Q298.5938,481.1094 298,480.8438 Q297.4063,480.5781 296.7813,480.5781 Q295.4375,480.5781 294.75,481.6406 Q294.0625,482.7031 294.0625,484.8125 Q294.0625,486.9063 294.75,487.9844 Q295.4375,489.0469 296.7813,489.0469 Q297.4063,489.0469 298,488.7813 Q298.5938,488.5 299.2344,487.9219 L299.2344,490.6406 Z " fill="#000000"/><text fill="#000000" font-family="sans-serif" font-size="14" lengthAdjust="spacing" textLength="156" x="316.75" y="489.8467">AverageDetectorData</text><line style="stroke:#181818;stroke-width:0.5;" x1="247" x2="510" y1="501" y2="501"/><text fill="#000000" font-family="sans-serif" font-size="14" lengthAdjust="spacing" textLength="167" x="252" y="517.9951">raw_data : raggedarray</text><text fill="#000000" font-family="sans-serif" font-size="14" lengthAdjust="spacing" textLength="234" x="252" y="534.292">attempts : np.ndarray(dtype=int)</text><text fill="#000000" font-family="sans-serif" font-size="14" lengthAdjust="spacing" textLength="253" x="252" y="550.5889">n_averages : np.ndarray(dtype=int)</text><text fill="#000000" font-family="sans-serif" font-size="14" lengthAdjust="spacing" textLength="139" x="252" y="566.8857">_mean : np.ndarray</text><text fill="#000000" font-family="sans-serif" font-size="14" lengthAdjust="spacing" textLength="119" x="252" y="583.1826">_std : np.ndarray</text><line style="stroke:#181818;stroke-width:0.5;" x1="247" x2="510" y1="590.4844" y2="590.4844"/><text fill="#000000" font-family="sans-serif" font-size="14" lengthAdjust="spacing" textLength="51" x="252" y="607.4795">mean()</text><text fill="#000000" font-family="sans-serif" font-size="14" lengthAdjust="spacing" textLength="31" x="252" y="623.7764">std()</text><text fill="#000000" font-family="sans-serif" font-size="14" lengthAdjust="spacing" textLength="117" x="252" y="640.0732">averaged_data()</text><text fill="#000000" font-family="sans-serif" font-size="14" lengthAdjust="spacing" textLength="107" x="252" y="656.3701">has_raw_data()</text></g><g id="elem_GMN31"><path d="M274,739.5 L274,779.7656 A0,0 0 0 0 274,779.7656 L449,779.7656 A0,0 0 0 0 449,779.7656 L449,749.5 L439,739.5 L367.2,739.5 L369.9,664.12 L359.2,739.5 L274,739.5 A0,0 0 0 0 274,739.5 " fill="#FEFFDD" style="stroke:#181818;stroke-width:0.5;"/><path d="M439,739.5 L439,749.5 L449,749.5 L439,739.5 " fill="#FEFFDD" style="stroke:#181818;stroke-width:0.5;"/><text fill="#000000" font-family="sans-serif" font-size="13" lengthAdjust="spacing" textLength="154" x="280" y="756.5669">How does mean() differ</text><text fill="#000000" font-family="sans-serif" font-size="13" lengthAdjust="spacing" textLength="136" x="280" y="771.6997">from values in Data?</text></g><g id="elem_GMN34"><path d="M484.5,739.5 L484.5,779.7656 A0,0 0 0 0 484.5,779.7656 L730.5,779.7656 A0,0 0 0 0 730.5,779.7656 L730.5,749.5 L720.5,739.5 L588.62,739.5 L494.34,664.12 L580.62,739.5 L484.5,739.5 A0,0 0 0 0 484.5,739.5 " fill="#FEFFDD" style="stroke:#181818;stroke-width:0.5;"/><path d="M720.5,739.5 L720.5,749.5 L730.5,749.5 L720.5,739.5 " fill="#FEFFDD" style="stroke:#181818;stroke-width:0.5;"/><text fill="#000000" font-family="sans-serif" font-size="13" lengthAdjust="spacing" textLength="203" x="490.5" y="756.5669">averaged_values() returns only</text><text fill="#000000" font-family="sans-serif" font-size="13" lengthAdjust="spacing" textLength="225" x="490.5" y="771.6997">those values used to average over</text></g><!--class IntervalDetectorData--><g id="elem_IntervalDetectorData"><rect codeLine="76" fill="#F1F1F1" height="162.0781" id="IntervalDetectorData" rx="2.5" ry="2.5" style="stroke:#181818;stroke-width:0.5;" width="230" x="546.5" y="485.5"/><ellipse cx="583.1" cy="501.5" fill="#ADD1B2" rx="11" ry="11" style="stroke:#181818;stroke-width:1.0;"/><path d="M586.0844,507.1406 Q585.5063,507.4375 584.8656,507.5781 Q584.225,507.7344 583.5219,507.7344 Q581.0063,507.7344 579.6781,506.0938 Q578.3656,504.4375 578.3656,501.3125 Q578.3656,498.1719 579.6781,496.5313 Q581.0063,494.875 583.5219,494.875 Q584.225,494.875 584.8656,495.0313 Q585.5219,495.1719 586.0844,495.4688 L586.0844,498.1875 Q585.4438,497.6094 584.85,497.3438 Q584.2563,497.0781 583.6313,497.0781 Q582.2875,497.0781 581.6,498.1406 Q580.9125,499.2031 580.9125,501.3125 Q580.9125,503.4063 581.6,504.4844 Q582.2875,505.5469 583.6313,505.5469 Q584.2563,505.5469 584.85,505.2813 Q585.4438,505 586.0844,504.4219 L586.0844,507.1406 Z " fill="#000000"/><text fill="#000000" font-family="sans-serif" font-size="14" lengthAdjust="spacing" textLength="150" x="601.9" y="506.3467">IntervalDetectorData</text><line style="stroke:#181818;stroke-width:0.5;" x1="547.5" x2="775.5" y1="517.5" y2="517.5"/><text fill="#000000" font-family="sans-serif" font-size="14" lengthAdjust="spacing" textLength="167" x="552.5" y="534.4951">raw_data : raggedarray</text><text fill="#000000" font-family="sans-serif" font-size="14" lengthAdjust="spacing" textLength="218" x="552.5" y="550.792">counts : np.ndarray(dtype=int)</text><text fill="#000000" font-family="sans-serif" font-size="14" lengthAdjust="spacing" textLength="139" x="552.5" y="567.0889">_mean : np.ndarray</text><text fill="#000000" font-family="sans-serif" font-size="14" lengthAdjust="spacing" textLength="119" x="552.5" y="583.3857">_std : np.ndarray</text><line style="stroke:#181818;stroke-width:0.5;" x1="547.5" x2="775.5" y1="590.6875" y2="590.6875"/><text fill="#000000" font-family="sans-serif" font-size="14" lengthAdjust="spacing" textLength="51" x="552.5" y="607.6826">mean()</text><text fill="#000000" font-family="sans-serif" font-size="14" lengthAdjust="spacing" textLength="31" x="552.5" y="623.9795">std()</text><text fill="#000000" font-family="sans-serif" font-size="14" lengthAdjust="spacing" textLength="107" x="552.5" y="640.2764">has_raw_data()</text></g><!--class ArrayDetectorData--><g id="elem_ArrayDetectorData"><rect codeLine="86" fill="#F1F1F1" height="48" id="ArrayDetectorData" rx="2.5" ry="2.5" style="stroke:#181818;stroke-width:0.5;" width="167" x="812" y="542.5"/><ellipse cx="827" cy="558.5" fill="#ADD1B2" rx="11" ry="11" style="stroke:#181818;stroke-width:1.0;"/><path d="M829.9844,564.1406 Q829.4063,564.4375 828.7656,564.5781 Q828.125,564.7344 827.4219,564.7344 Q824.9063,564.7344 823.5781,563.0938 Q822.2656,561.4375 822.2656,558.3125 Q822.2656,555.1719 823.5781,553.5313 Q824.9063,551.875 827.4219,551.875 Q828.125,551.875 828.7656,552.0313 Q829.4219,552.1719 829.9844,552.4688 L829.9844,555.1875 Q829.3438,554.6094 828.75,554.3438 Q828.1563,554.0781 827.5313,554.0781 Q826.1875,554.0781 825.5,555.1406 Q824.8125,556.2031 824.8125,558.3125 Q824.8125,560.4063 825.5,561.4844 Q826.1875,562.5469 827.5313,562.5469 Q828.1563,562.5469 828.75,562.2813 Q829.3438,562 829.9844,561.4219 L829.9844,564.1406 Z " fill="#000000"/><text fill="#000000" font-family="sans-serif" font-size="14" lengthAdjust="spacing" textLength="135" x="841" y="563.3467">ArrayDetectorData</text><line style="stroke:#181818;stroke-width:0.5;" x1="813" x2="978" y1="574.5" y2="574.5"/><line style="stroke:#181818;stroke-width:0.5;" x1="813" x2="978" y1="582.5" y2="582.5"/></g><!--class AreaDetectorData--><g id="elem_AreaDetectorData"><rect codeLine="89" fill="#F1F1F1" height="48" id="AreaDetectorData" rx="2.5" ry="2.5" style="stroke:#181818;stroke-width:0.5;" width="162" x="1014.5" y="542.5"/><ellipse cx="1029.5" cy="558.5" fill="#ADD1B2" rx="11" ry="11" style="stroke:#181818;stroke-width:1.0;"/><path d="M1032.4844,564.1406 Q1031.9063,564.4375 1031.2656,564.5781 Q1030.625,564.7344 1029.9219,564.7344 Q1027.4063,564.7344 1026.0781,563.0938 Q1024.7656,561.4375 1024.7656,558.3125 Q1024.7656,555.1719 1026.0781,553.5313 Q1027.4063,551.875 1029.9219,551.875 Q1030.625,551.875 1031.2656,552.0313 Q1031.9219,552.1719 1032.4844,552.4688 L1032.4844,555.1875 Q1031.8438,554.6094 1031.25,554.3438 Q1030.6563,554.0781 1030.0313,554.0781 Q1028.6875,554.0781 1028,555.1406 Q1027.3125,556.2031 1027.3125,558.3125 Q1027.3125,560.4063 1028,561.4844 Q1028.6875,562.5469 1030.0313,562.5469 Q1030.6563,562.5469 1031.25,562.2813 Q1031.8438,562 1032.4844,561.4219 L1032.4844,564.1406 Z " fill="#000000"/><text fill="#000000" font-family="sans-serif" font-size="14" lengthAdjust="spacing" textLength="130" x="1043.5" y="563.3467">AreaDetectorData</text><line style="stroke:#181818;stroke-width:0.5;" x1="1015.5" x2="1175.5" y1="574.5" y2="574.5"/><line style="stroke:#181818;stroke-width:0.5;" x1="1015.5" x2="1175.5" y1="582.5" y2="582.5"/></g><!--reverse link Data to DataImporter--><g id="link_Data_DataImporter"><path codeLine="31" d="M768.61,91.5 C780.19,91.5 779.78,91.5 791.37,91.5 " fill="none" id="Data-backto-DataImporter" style="stroke:#181818;stroke-width:1.0;"/><polygon fill="#181818" points="756.61,91.5,762.61,95.5,768.61,91.5,762.61,87.5,756.61,91.5" style="stroke:#181818;stroke-width:1.0;"/></g><!--reverse link Data to Metadata--><g id="link_Data_Metadata"><path codeLine="32" d="M580.3053,155.2235 C567.0253,165.0835 562.78,167.94 549.5,177 C513.75,201.4 471.57,227.04 441.41,244.86 " fill="none" id="Data-backto-Metadata" style="stroke:#181818;stroke-width:1.0;"/><polygon fill="#181818" points="589.94,148.07,582.7381,148.4352,580.3053,155.2235,587.5071,154.8583,589.94,148.07" style="stroke:#181818;stroke-width:1.0;"/></g><!--reverse link Data to MeasureData--><g id="link_Data_MeasureData"><path d="M661.5,166.03 C661.5,195.35 661.5,212.25 661.5,236.83 " fill="none" id="Data-backto-MeasureData" style="stroke:#181818;stroke-width:1.0;"/><polygon fill="none" points="661.5,148.03,655.5,166.03,667.5,166.03,661.5,148.03" style="stroke:#181818;stroke-width:1.0;"/></g><!--reverse link Data to MonitorData--><g id="link_Data_MonitorData"><path d="M746.4477,158.7002 C760.2677,168.7702 760.33,168.24 774.5,177 C810.24,199.11 852.06,220.41 886.49,236.83 " fill="none" id="Data-backto-MonitorData" style="stroke:#181818;stroke-width:1.0;"/><polygon fill="none" points="731.9,148.1,742.9143,163.5495,749.9811,153.851,731.9,148.1" style="stroke:#181818;stroke-width:1.0;"/></g><!--reverse link MeasureData to MotorData--><g id="link_MeasureData_MotorData"><path d="M605.2586,311.908 C579.9586,330.768 562.66,343.65 539.58,360.84 " fill="none" id="MeasureData-backto-MotorData" style="stroke:#181818;stroke-width:1.0;"/><polygon fill="none" points="619.69,301.15,601.6726,307.0975,608.8446,316.7184,619.69,301.15" style="stroke:#181818;stroke-width:1.0;"/></g><!--reverse link MeasureData to DetectorData--><g id="link_MeasureData_DetectorData"><path d="M661.5,319.15 C661.5,338.01 661.5,343.65 661.5,360.84 " fill="none" id="MeasureData-backto-DetectorData" style="stroke:#181818;stroke-width:1.0;"/><polygon fill="none" points="661.5,301.15,655.5,319.15,667.5,319.15,661.5,301.15" style="stroke:#181818;stroke-width:1.0;"/></g><!--reverse link MeasureData to ExternalData--><g id="link_MeasureData_ExternalData"><path d="M720.4885,311.5117 C747.2785,330.3717 766.16,343.65 790.59,360.84 " fill="none" id="MeasureData-backto-ExternalData" style="stroke:#181818;stroke-width:1.0;"/><polygon fill="none" points="705.77,301.15,717.0346,316.4179,723.9424,306.6056,705.77,301.15" style="stroke:#181818;stroke-width:1.0;"/></g><!--reverse link MeasureData to TimestampData--><g id="link_MeasureData_TimestampData"><path d="M769.0802,306.8287 C824.3602,325.7487 876.81,343.71 927.21,360.96 " fill="none" id="MeasureData-backto-TimestampData" style="stroke:#181818;stroke-width:1.0;"/><polygon fill="none" points="752.05,301,767.1373,312.5054,771.0231,301.152,752.05,301" style="stroke:#181818;stroke-width:1.0;"/></g><!--reverse link DetectorData to StandardDetectorData--><g id="link_DetectorData_StandardDetectorData"><path d="M579.7653,409.1957 C573.8053,410.7257 585.27,407.7 579.5,409 C425.1,443.75 371.97,402.18 228.5,469 C190.89,486.52 155.76,519.83 134.7,542.36 " fill="none" id="DetectorData-backto-StandardDetectorData" style="stroke:#181818;stroke-width:1.0;"/><polygon fill="none" points="597.2,404.72,578.2734,403.3841,581.2572,415.0072,597.2,404.72" style="stroke:#181818;stroke-width:1.0;"/></g><!--reverse link DetectorData to AverageDetectorData--><g id="link_DetectorData_AverageDetectorData"><path d="M609.5009,418.5638 C583.0009,435.1838 561.62,448.64 529.5,469 C523.46,472.83 517.28,476.75 511.04,480.72 " fill="none" id="DetectorData-backto-AverageDetectorData" style="stroke:#181818;stroke-width:1.0;"/><polygon fill="none" points="624.75,409,606.313,413.4807,612.6888,423.6468,624.75,409" style="stroke:#181818;stroke-width:1.0;"/></g><!--reverse link DetectorData to IntervalDetectorData--><g id="link_DetectorData_IntervalDetectorData"><path d="M661.5,427.1 C661.5,446.51 661.5,457.45 661.5,485.18 " fill="none" id="DetectorData-backto-IntervalDetectorData" style="stroke:#181818;stroke-width:1.0;"/><polygon fill="none" points="661.5,409.1,655.5,427.1,667.5,427.1,661.5,409.1" style="stroke:#181818;stroke-width:1.0;"/></g><!--reverse link DetectorData to ArrayDetectorData--><g id="link_DetectorData_ArrayDetectorData"><path d="M718.9744,418.1943 C745.9144,433.8043 765.59,446.55 794.5,469 C823.81,491.76 854.16,521.78 873.84,542.26 " fill="none" id="DetectorData-backto-ArrayDetectorData" style="stroke:#181818;stroke-width:1.0;"/><polygon fill="none" points="703.4,409.17,715.9663,423.3858,721.9825,413.0029,703.4,409.17" style="stroke:#181818;stroke-width:1.0;"/></g><!--reverse link DetectorData to AreaDetectorData--><g id="link_DetectorData_AreaDetectorData"><path d="M743.2651,409.0315 C749.2151,410.6415 737.77,407.52 743.5,409 C855.38,437.94 895.24,413.32 996.5,469 C1029.94,487.39 1060.03,520.16 1078.03,542.36 " fill="none" id="DetectorData-backto-AreaDetectorData" style="stroke:#181818;stroke-width:1.0;"/><polygon fill="none" points="725.89,404.33,741.698,414.8232,744.8323,403.2398,725.89,404.33" style="stroke:#181818;stroke-width:1.0;"/></g><!--SRC=[jLHHQnin37xFhn1zMJhMiWxs4XYZB1ihh31e7mj1FUiIhNVsOVlIXTB_FbddIoxDjIkCvIK-MPyaV_gaD-6EROCUQp0Dmzd7zvD9KM48CCU8y301-TKKqQJF6LpcezeNsMYRKslGUznqPguRvoDvkKfHBlAdNYR8z7ZoEB4k4bHKHd2bkircYsta8pqUGHjQhAeD5Cv6P1i0uMmEcWhG6c2n50M5G4PnQqQ8AyfPO4anbI7rhvo1wS-D_5jel6l8nysnk69KN25PWYA71PzEzFARyy3My9gDL0E68XLHR6kiMWeGIFAHvpKPKEeeAEnyJHwNDC_kocUg-S9AQC4EBtAcy_Im0y3NtmAm0b239mYkflk-zD1GmL8MQlrRge1OFZryc2iP8FKYL1mItTj6WBlz9Ra2J0LGOA3K2wwbwg2PiU8xEZwTa9nJluRQw4dA6WckzGNfiMk_DZdxzweHtzpuMnUZgsTmbSXZN2O1bixVsAtMQcVQYeGOVVRRatqfPUF9Jf3RL1XQJtfFGfmrUr9-A9agymYD2npPYQA6yfsQk6de4ziuBDvPxjlnGiIQAw6NX7xpgg1FGmuBVzWvxgdXBxvxGXdrtRfUSqqXOjsy9kvLnFGMCrhBdZ4b6FGtoMaChCHThsHw4pLWdEXDO19J1DffI0IyffDbooh4go-NFzx1RHjbulLUjEoMB6CBPMkBrCaqcOBcxakTIYybfA5-CeegwA6UnqPr_7qQr-Dzl_e4jgJ1xklLWB9uwYO-huIXirrWLy3BxekQq8wisn3DeJNvJZkStETJJcCMUGidsmh3ed_GRZ7ty_dTtNVjwU89nML9CgPARLw0qgj4pkUddHzXTROheGDBI4-nzJA8pbQR6oiRMjPGZjpANeVeUX0u-UzxDhP6_x5fXMjj_DyzEE2xr-31xd_cCGC4uUi0Vm00]--></g></svg>