<?xml version="1.0" encoding="us-ascii" standalone="no"?><svg xmlns="http://www.w3.org/2000/svg" xmlns:xlink="http://www.w3.org/1999/xlink" contentStyleType="text/css" height="393px" preserveAspectRatio="none" style="width:591px;height:393px;background:#FFFFFF;" version="1.1" viewBox="0 0 591 393" width="591px" zoomAndPan="magnify"><defs/><g><!--class HDF5Item--><g id="elem_HDF5Item"><rect codeLine="3" fill="#F1F1F1" height="113.625" id="HDF5Item" rx="2.5" ry="2.5" style="stroke:#181818;stroke-width:0.5;" width="110" x="207.5" y="7"/><ellipse cx="229.25" cy="23" fill="#ADD1B2" rx="11" ry="11" style="stroke:#181818;stroke-width:1.0;"/><path d="M229.2969,29.2031 C230.7969,29.2031 232.0313,28.6406 232.9375,27.5781 L231.5625,26.0625 C231.0156,26.6563 230.3594,27.0469 229.5625,27.0469 C227.8906,27.0469 226.7344,25.7188 226.7344,23.4375 C226.7344,21.2188 227.8906,19.875 229.4531,19.875 C230.2656,19.875 230.8594,20.1875 231.3906,20.6719 L232.7656,19.125 C232.0156,18.3906 230.8594,17.7188 229.4531,17.7188 C226.5,17.7188 224.1719,19.8594 224.1719,23.5313 C224.1719,27.25 226.5469,29.2031 229.2969,29.2031 Z " fill="#000000"/><text fill="#000000" font-family="sans-serif" font-size="14" lengthAdjust="spacing" textLength="63" x="244.75" y="27.7852">HDF5Item</text><line style="stroke:#181818;stroke-width:0.5;" x1="208.5" x2="316.5" y1="39" y2="39"/><text fill="#000000" font-family="sans-serif" font-size="14" lengthAdjust="spacing" textLength="98" x="213.5" y="55.9883">filename : string</text><text fill="#000000" font-family="sans-serif" font-size="14" lengthAdjust="spacing" textLength="80" x="213.5" y="72.3945">name : string</text><text fill="#000000" font-family="sans-serif" font-size="14" lengthAdjust="spacing" textLength="93" x="213.5" y="88.8008">attributes : dict</text><line style="stroke:#181818;stroke-width:0.5;" x1="208.5" x2="316.5" y1="96.2188" y2="96.2188"/><text fill="#000000" font-family="sans-serif" font-size="14" lengthAdjust="spacing" textLength="97" x="213.5" y="113.207">get_attributes()</text></g><path d="M353,16 L353,55.0859 L311.5,51.2031 L353,63.0859 L353,102.1719 A0,0 0 0 0 353,102.1719 L584,102.1719 A0,0 0 0 0 584,102.1719 L584,26 L574,16 L353,16 A0,0 0 0 0 353,16 " fill="#FEFFDD" style="stroke:#181818;stroke-width:0.5;"/><path d="M574,16 L574,26 L584,26 L574,16 " fill="#FEFFDD" style="stroke:#181818;stroke-width:0.5;"/><text fill="#000000" font-family="sans-serif" font-size="13" lengthAdjust="spacing" textLength="210" x="359" y="33.0605">filename is the name (including path)</text><text fill="#000000" font-family="sans-serif" font-size="13" lengthAdjust="spacing" textLength="173" x="359" y="48.2949">of the HDF5 file originally read.</text><text fill="#000000" font-family="sans-serif" font-size="13" lengthAdjust="spacing" textLength="187" x="359" y="63.5293">Together with the name attribute,</text><text fill="#000000" font-family="sans-serif" font-size="13" lengthAdjust="spacing" textLength="178" x="359" y="78.7637">this makes accessing contents</text><text fill="#000000" font-family="sans-serif" font-size="13" lengthAdjust="spacing" textLength="186" x="359" y="93.998">on demand (deferred load) trivial.</text><path d="M11,23.5 L11,94.4375 A0,0 0 0 0 11,94.4375 L172,94.4375 A0,0 0 0 0 172,94.4375 L172,62.9688 L211.5,67.6094 L172,54.9688 L172,33.5 L162,23.5 L11,23.5 A0,0 0 0 0 11,23.5 " fill="#FEFFDD" style="stroke:#181818;stroke-width:0.5;"/><path d="M162,23.5 L162,33.5 L172,33.5 L162,23.5 " fill="#FEFFDD" style="stroke:#181818;stroke-width:0.5;"/><text fill="#000000" font-family="sans-serif" font-size="13" lengthAdjust="spacing" textLength="115" x="17" y="40.5605">name is the full path</text><text fill="#000000" font-family="sans-serif" font-size="13" lengthAdjust="spacing" textLength="98" x="17" y="55.7949">to the HDF5 item,</text><text fill="#000000" font-family="sans-serif" font-size="13" lengthAdjust="spacing" textLength="140" x="17" y="71.0293">necessary for accessing</text><text fill="#000000" font-family="sans-serif" font-size="13" lengthAdjust="spacing" textLength="49" x="17" y="86.2637">via h5py.</text><!--class HDF5Group--><g id="elem_HDF5Group"><rect codeLine="25" fill="#F1F1F1" height="80.8125" id="HDF5Group" rx="2.5" ry="2.5" style="stroke:#181818;stroke-width:0.5;" width="125" x="7" y="181"/><ellipse cx="30.55" cy="197" fill="#ADD1B2" rx="11" ry="11" style="stroke:#181818;stroke-width:1.0;"/><path d="M30.5969,203.2031 C32.0969,203.2031 33.3313,202.6406 34.2375,201.5781 L32.8625,200.0625 C32.3156,200.6563 31.6594,201.0469 30.8625,201.0469 C29.1906,201.0469 28.0344,199.7188 28.0344,197.4375 C28.0344,195.2188 29.1906,193.875 30.7531,193.875 C31.5656,193.875 32.1594,194.1875 32.6906,194.6719 L34.0656,193.125 C33.3156,192.3906 32.1594,191.7188 30.7531,191.7188 C27.8,191.7188 25.4719,193.8594 25.4719,197.5313 C25.4719,201.25 27.8469,203.2031 30.5969,203.2031 Z " fill="#000000"/><text fill="#000000" font-family="sans-serif" font-size="14" lengthAdjust="spacing" textLength="74" x="46.45" y="201.7852">HDF5Group</text><line style="stroke:#181818;stroke-width:0.5;" x1="8" x2="131" y1="213" y2="213"/><text fill="#000000" font-family="sans-serif" font-size="14" lengthAdjust="spacing" textLength="113" x="13" y="229.9883">&lt;item&gt; : HDF5Item</text><line style="stroke:#181818;stroke-width:0.5;" x1="8" x2="131" y1="237.4063" y2="237.4063"/><text fill="#000000" font-family="sans-serif" font-size="14" lengthAdjust="spacing" textLength="67" x="13" y="254.3945">add_item()</text></g><path d="M167,188.5 L167,212.3516 L126,225.2031 L167,220.3516 L167,244.2031 A0,0 0 0 0 167,244.2031 L362,244.2031 A0,0 0 0 0 362,244.2031 L362,198.5 L352,188.5 L167,188.5 A0,0 0 0 0 167,188.5 " fill="#FEFFDD" style="stroke:#181818;stroke-width:0.5;"/><path d="M352,188.5 L352,198.5 L362,198.5 L352,188.5 " fill="#FEFFDD" style="stroke:#181818;stroke-width:0.5;"/><text fill="#000000" font-family="sans-serif" font-size="13" lengthAdjust="spacing" textLength="174" x="173" y="205.5605">Each item is added as attribute</text><text fill="#000000" font-family="sans-serif" font-size="13" lengthAdjust="spacing" textLength="174" x="173" y="220.7949">to the class and accessible via</text><text fill="#000000" font-family="sans-serif" font-size="13" lengthAdjust="spacing" textLength="166" x="173" y="236.0293">an iterator: "for item in group".</text><!--class HDF5Dataset--><g id="elem_HDF5Dataset"><rect codeLine="36" fill="#F1F1F1" height="80.8125" id="HDF5Dataset" rx="2.5" ry="2.5" style="stroke:#181818;stroke-width:0.5;" width="116" x="397.5" y="181"/><ellipse cx="412.5" cy="197" fill="#ADD1B2" rx="11" ry="11" style="stroke:#181818;stroke-width:1.0;"/><path d="M412.5469,203.2031 C414.0469,203.2031 415.2813,202.6406 416.1875,201.5781 L414.8125,200.0625 C414.2656,200.6563 413.6094,201.0469 412.8125,201.0469 C411.1406,201.0469 409.9844,199.7188 409.9844,197.4375 C409.9844,195.2188 411.1406,193.875 412.7031,193.875 C413.5156,193.875 414.1094,194.1875 414.6406,194.6719 L416.0156,193.125 C415.2656,192.3906 414.1094,191.7188 412.7031,191.7188 C409.75,191.7188 407.4219,193.8594 407.4219,197.5313 C407.4219,201.25 409.7969,203.2031 412.5469,203.2031 Z " fill="#000000"/><text fill="#000000" font-family="sans-serif" font-size="14" lengthAdjust="spacing" textLength="84" x="426.5" y="201.7852">HDF5Dataset</text><line style="stroke:#181818;stroke-width:0.5;" x1="398.5" x2="512.5" y1="213" y2="213"/><text fill="#000000" font-family="sans-serif" font-size="14" lengthAdjust="spacing" textLength="91" x="403.5" y="229.9883">data : nd.array</text><line style="stroke:#181818;stroke-width:0.5;" x1="398.5" x2="512.5" y1="237.4063" y2="237.4063"/><text fill="#000000" font-family="sans-serif" font-size="14" lengthAdjust="spacing" textLength="65" x="403.5" y="254.3945">get_data()</text></g><!--class HDF5File--><g id="elem_HDF5File"><rect codeLine="42" fill="#F1F1F1" height="64.4063" id="HDF5File" rx="2.5" ry="2.5" style="stroke:#181818;stroke-width:0.5;" width="88" x="25.5" y="322"/><ellipse cx="40.5" cy="338" fill="#ADD1B2" rx="11" ry="11" style="stroke:#181818;stroke-width:1.0;"/><path d="M40.5469,344.2031 C42.0469,344.2031 43.2813,343.6406 44.1875,342.5781 L42.8125,341.0625 C42.2656,341.6563 41.6094,342.0469 40.8125,342.0469 C39.1406,342.0469 37.9844,340.7188 37.9844,338.4375 C37.9844,336.2188 39.1406,334.875 40.7031,334.875 C41.5156,334.875 42.1094,335.1875 42.6406,335.6719 L44.0156,334.125 C43.2656,333.3906 42.1094,332.7188 40.7031,332.7188 C37.75,332.7188 35.4219,334.8594 35.4219,338.5313 C35.4219,342.25 37.7969,344.2031 40.5469,344.2031 Z " fill="#000000"/><text fill="#000000" font-family="sans-serif" font-size="14" lengthAdjust="spacing" textLength="56" x="54.5" y="342.7852">HDF5File</text><line style="stroke:#181818;stroke-width:0.5;" x1="26.5" x2="112.5" y1="354" y2="354"/><line style="stroke:#181818;stroke-width:0.5;" x1="26.5" x2="112.5" y1="362" y2="362"/><text fill="#000000" font-family="sans-serif" font-size="14" lengthAdjust="spacing" textLength="38" x="31.5" y="378.9883">read()</text></g><!--reverse link HDF5Item to HDF5Group--><g id="link_HDF5Item_HDF5Group"><path d="M193.4341,120.644 C165.4741,143.174 145.79,159.04 118.7,180.86 " fill="none" id="HDF5Item-backto-HDF5Group" style="stroke:#181818;stroke-width:1.0;"/><polygon fill="none" points="207.45,109.35,189.6694,115.972,197.1987,125.3159,207.45,109.35" style="stroke:#181818;stroke-width:1.0;"/></g><!--reverse link HDF5Item to HDF5Dataset--><g id="link_HDF5Item_HDF5Dataset"><path d="M331.5659,120.644 C359.5259,143.174 379.21,159.04 406.3,180.86 " fill="none" id="HDF5Item-backto-HDF5Dataset" style="stroke:#181818;stroke-width:1.0;"/><polygon fill="none" points="317.55,109.35,327.8013,125.3159,335.3306,115.972,317.55,109.35" style="stroke:#181818;stroke-width:1.0;"/></g><!--reverse link HDF5Group to HDF5File--><g id="link_HDF5Group_HDF5File"><path d="M69.5,280.01 C69.5,299.21 69.5,303.96 69.5,321.91 " fill="none" id="HDF5Group-backto-HDF5File" style="stroke:#181818;stroke-width:1.0;"/><polygon fill="none" points="69.5,262.01,63.5,280.01,75.5,280.01,69.5,262.01" style="stroke:#181818;stroke-width:1.0;"/></g><!--SRC=[TP91JyCm38Nl_HNMBcmIRATTAiG91jovJwPncuWqgH8Nc13_7IU1jjh4JftjlFU-E5UQUOZrRZTOT3psTjluVjTOZF566Um2zbML_yBJ_M7_pDJ3LmNoQuqbXpr13P63SLskNbQGvVjrP8fILwRXNEs8ZtDdlQc-gyfv9WYcqmo-dUpgUd8wCpOHM5EnN1lNs569AGp8UfCdHIKD9ALy2hoe6uVMdY0GgcsUUl4IHbE03yDwLfpINUSfrcBNuvjWODDGZCcgyOx9SInk3XJrw1Ii5RKK0Ycm7jK6HEZTeDrEa9RQCyO5tvAj7QtDG2M3dtcC72l97AKu64xG-Z27opsn1RqVJjbwNkDZyEC0z2dXrSLYRvFqdIphhrxMgDGnDVvRLPQiwz_3HUa16vs39XmHa0l1E5_iagbaIvVt2_0gwvBqnTibbO3iGmshH5b47NJ9TNL6Tu-CaVW_FYLjeNDgYo7WQNgEgLxe5bg7z6oMGkNgYb9wG-d43m00]--></g></svg>