<?xml version="1.0" encoding="us-ascii" standalone="no"?><svg xmlns="http://www.w3.org/2000/svg" xmlns:xlink="http://www.w3.org/1999/xlink" contentStyleType="text/css" height="608px" preserveAspectRatio="none" style="width:872px;height:608px;background:#FFFFFF;" version="1.1" viewBox="0 0 872 608" width="872px" zoomAndPan="magnify"><defs/><g><!--cluster scan--><g id="cluster_scan"><path d="M582,6 L613,6 A3.75,3.75 0 0 1 615.5,8.5 L622.5,28.4063 L721,28.4063 A2.5,2.5 0 0 1 723.5,30.9063 L723.5,169.5 A2.5,2.5 0 0 1 721,172 L582,172 A2.5,2.5 0 0 1 579.5,169.5 L579.5,8.5 A2.5,2.5 0 0 1 582,6 " fill="none" style="stroke:#000000;stroke-width:1.5;"/><line style="stroke:#000000;stroke-width:1.5;" x1="579.5" x2="622.5" y1="28.4063" y2="28.4063"/><text fill="#000000" font-family="sans-serif" font-size="14" font-weight="bold" lengthAdjust="spacing" textLength="30" x="583.5" y="20.9883">scan</text></g><!--cluster boundaries--><g id="cluster_boundaries"><path d="M606,49 L679,49 A3.75,3.75 0 0 1 681.5,51.5 L688.5,71.4063 L697,71.4063 A2.5,2.5 0 0 1 699.5,73.9063 L699.5,145.5 A2.5,2.5 0 0 1 697,148 L606,148 A2.5,2.5 0 0 1 603.5,145.5 L603.5,51.5 A2.5,2.5 0 0 1 606,49 " fill="none" style="stroke:#000000;stroke-width:1.5;"/><line style="stroke:#000000;stroke-width:1.5;" x1="603.5" x2="688.5" y1="71.4063" y2="71.4063"/><text fill="#000000" font-family="sans-serif" font-size="14" font-weight="bold" lengthAdjust="spacing" textLength="72" x="607.5" y="63.9883">boundaries</text></g><!--class Scan--><g id="elem_Scan"><rect fill="#F1F1F1" height="48" id="Scan" rx="2.5" ry="2.5" style="stroke:#181818;stroke-width:0.5;" width="63" x="620" y="84"/><ellipse cx="635" cy="100" fill="#ADD1B2" rx="11" ry="11" style="stroke:#181818;stroke-width:1.0;"/><path d="M635.0469,106.2031 C636.5469,106.2031 637.7813,105.6406 638.6875,104.5781 L637.3125,103.0625 C636.7656,103.6563 636.1094,104.0469 635.3125,104.0469 C633.6406,104.0469 632.4844,102.7188 632.4844,100.4375 C632.4844,98.2188 633.6406,96.875 635.2031,96.875 C636.0156,96.875 636.6094,97.1875 637.1406,97.6719 L638.5156,96.125 C637.7656,95.3906 636.6094,94.7188 635.2031,94.7188 C632.25,94.7188 629.9219,96.8594 629.9219,100.5313 C629.9219,104.25 632.2969,106.2031 635.0469,106.2031 Z " fill="#000000"/><text fill="#000000" font-family="sans-serif" font-size="14" lengthAdjust="spacing" textLength="31" x="649" y="104.7852">Scan</text><line style="stroke:#181818;stroke-width:0.5;" x1="621" x2="682" y1="116" y2="116"/><line style="stroke:#181818;stroke-width:0.5;" x1="621" x2="682" y1="124" y2="124"/></g><!--class File--><g id="elem_File"><rect codeLine="2" fill="#F1F1F1" height="146.4375" id="File" rx="2.5" ry="2.5" style="stroke:#181818;stroke-width:0.5;" width="156" x="293.5" y="35"/><ellipse cx="356.75" cy="51" fill="#ADD1B2" rx="11" ry="11" style="stroke:#181818;stroke-width:1.0;"/><path d="M356.7969,57.2031 C358.2969,57.2031 359.5313,56.6406 360.4375,55.5781 L359.0625,54.0625 C358.5156,54.6563 357.8594,55.0469 357.0625,55.0469 C355.3906,55.0469 354.2344,53.7188 354.2344,51.4375 C354.2344,49.2188 355.3906,47.875 356.9531,47.875 C357.7656,47.875 358.3594,48.1875 358.8906,48.6719 L360.2656,47.125 C359.5156,46.3906 358.3594,45.7188 356.9531,45.7188 C354,45.7188 351.6719,47.8594 351.6719,51.5313 C351.6719,55.25 354.0469,57.2031 356.7969,57.2031 Z " fill="#000000"/><text fill="#000000" font-family="sans-serif" font-size="14" lengthAdjust="spacing" textLength="21" x="377.25" y="55.7852">File</text><line style="stroke:#181818;stroke-width:0.5;" x1="294.5" x2="448.5" y1="67" y2="67"/><text fill="#000000" font-family="sans-serif" font-size="14" lengthAdjust="spacing" textLength="131" x="299.5" y="83.9883">metadata : Metadata</text><text fill="#000000" font-family="sans-serif" font-size="14" lengthAdjust="spacing" textLength="144" x="299.5" y="100.3945">comments : Comment[]</text><text fill="#000000" font-family="sans-serif" font-size="14" lengthAdjust="spacing" textLength="70" x="299.5" y="116.8008">scan : Scan</text><text fill="#000000" font-family="sans-serif" font-size="14" lengthAdjust="spacing" textLength="76" x="299.5" y="133.207">data : Data[]</text><text fill="#000000" font-family="sans-serif" font-size="14" lengthAdjust="spacing" textLength="113" x="299.5" y="149.6133">snapshots : Data[]</text><text fill="#000000" font-family="sans-serif" font-size="14" lengthAdjust="spacing" textLength="103" x="299.5" y="166.0195">monitors : Data[]</text><line style="stroke:#181818;stroke-width:0.5;" x1="294.5" x2="448.5" y1="173.4375" y2="173.4375"/></g><path d="M55,44.5 L55,161.1406 A0,0 0 0 0 55,161.1406 L258,161.1406 A0,0 0 0 0 258,161.1406 L258,106.8203 L297.5,144.8281 L258,98.8203 L258,54.5 L248,44.5 L55,44.5 A0,0 0 0 0 55,44.5 " fill="#FEFFDD" style="stroke:#181818;stroke-width:0.5;"/><path d="M248,44.5 L248,54.5 L258,54.5 L248,44.5 " fill="#FEFFDD" style="stroke:#181818;stroke-width:0.5;"/><text fill="#000000" font-family="sans-serif" font-size="13" lengthAdjust="spacing" textLength="161" x="61" y="61.5605">Snapshot datasets can have</text><text fill="#000000" font-family="sans-serif" font-size="13" lengthAdjust="spacing" textLength="182" x="61" y="76.7949">identical names/IDs to datasets</text><text fill="#000000" font-family="sans-serif" font-size="13" lengthAdjust="spacing" textLength="132" x="61" y="92.0293">in the standard section.</text><text fill="#000000" font-family="sans-serif" font-size="13" lengthAdjust="spacing" textLength="150" x="61" y="107.2637">This makes a separate list</text><text fill="#000000" font-family="sans-serif" font-size="13" lengthAdjust="spacing" textLength="122" x="61" y="122.498">probably unavoidable.</text><text fill="#000000" font-family="sans-serif" font-size="13" lengthAdjust="spacing" textLength="3" x="61" y="137.7324">&#160;</text><text fill="#000000" font-family="sans-serif" font-size="13" lengthAdjust="spacing" textLength="153" x="61" y="152.9668">How to deal with monitors?</text><!--class Data--><g id="elem_Data"><rect fill="#F1F1F1" height="48" id="Data" rx="2.5" ry="2.5" style="stroke:#181818;stroke-width:0.5;" width="62" x="30.5" y="339.5"/><ellipse cx="45.5" cy="355.5" fill="#ADD1B2" rx="11" ry="11" style="stroke:#181818;stroke-width:1.0;"/><path d="M45.5469,361.7031 C47.0469,361.7031 48.2813,361.1406 49.1875,360.0781 L47.8125,358.5625 C47.2656,359.1563 46.6094,359.5469 45.8125,359.5469 C44.1406,359.5469 42.9844,358.2188 42.9844,355.9375 C42.9844,353.7188 44.1406,352.375 45.7031,352.375 C46.5156,352.375 47.1094,352.6875 47.6406,353.1719 L49.0156,351.625 C48.2656,350.8906 47.1094,350.2188 45.7031,350.2188 C42.75,350.2188 40.4219,352.3594 40.4219,356.0313 C40.4219,359.75 42.7969,361.7031 45.5469,361.7031 Z " fill="#000000"/><text fill="#000000" font-family="sans-serif" font-size="14" lengthAdjust="spacing" textLength="30" x="59.5" y="360.2852">Data</text><line style="stroke:#181818;stroke-width:0.5;" x1="31.5" x2="91.5" y1="371.5" y2="371.5"/><line style="stroke:#181818;stroke-width:0.5;" x1="31.5" x2="91.5" y1="379.5" y2="379.5"/></g><g id="elem_GMN7"><path d="M6,554 L6,594.4688 A0,0 0 0 0 6,594.4688 L117,594.4688 A0,0 0 0 0 117,594.4688 L117,564 L107,554 L65.5,554 L61.5,387.61 L57.5,554 L6,554 A0,0 0 0 0 6,554 " fill="#FEFFDD" style="stroke:#181818;stroke-width:0.5;"/><path d="M107,554 L107,564 L117,564 L107,554 " fill="#FEFFDD" style="stroke:#181818;stroke-width:0.5;"/><text fill="#000000" font-family="sans-serif" font-size="13" lengthAdjust="spacing" textLength="90" x="12" y="571.0605">See diagram for</text><text fill="#000000" font-family="sans-serif" font-size="13" lengthAdjust="spacing" textLength="73" x="12" y="586.2949">data module.</text></g><!--class Metadata--><g id="elem_Metadata"><rect codeLine="23" fill="#F1F1F1" height="244.875" id="Metadata" rx="2.5" ry="2.5" style="stroke:#181818;stroke-width:0.5;" width="261" x="128" y="241"/><ellipse cx="223.75" cy="257" fill="#ADD1B2" rx="11" ry="11" style="stroke:#181818;stroke-width:1.0;"/><path d="M223.7969,263.2031 C225.2969,263.2031 226.5313,262.6406 227.4375,261.5781 L226.0625,260.0625 C225.5156,260.6563 224.8594,261.0469 224.0625,261.0469 C222.3906,261.0469 221.2344,259.7188 221.2344,257.4375 C221.2344,255.2188 222.3906,253.875 223.9531,253.875 C224.7656,253.875 225.3594,254.1875 225.8906,254.6719 L227.2656,253.125 C226.5156,252.3906 225.3594,251.7188 223.9531,251.7188 C221,251.7188 218.6719,253.8594 218.6719,257.5313 C218.6719,261.25 221.0469,263.2031 223.7969,263.2031 Z " fill="#000000"/><text fill="#000000" font-family="sans-serif" font-size="14" lengthAdjust="spacing" textLength="61" x="244.25" y="261.7852">Metadata</text><line style="stroke:#181818;stroke-width:0.5;" x1="129" x2="388" y1="273" y2="273"/><text fill="#000000" font-family="sans-serif" font-size="14" lengthAdjust="spacing" textLength="98" x="134" y="289.9883">filename : string</text><text fill="#000000" font-family="sans-serif" font-size="14" lengthAdjust="spacing" textLength="112" x="134" y="306.3945">h5_version : string</text><text fill="#000000" font-family="sans-serif" font-size="14" lengthAdjust="spacing" textLength="117" x="134" y="322.8008">eve_version : string</text><text fill="#000000" font-family="sans-serif" font-size="14" lengthAdjust="spacing" textLength="115" x="134" y="339.207">xml_version: string</text><text fill="#000000" font-family="sans-serif" font-size="14" lengthAdjust="spacing" textLength="181" x="134" y="355.6133">measurement_station : string</text><text fill="#000000" font-family="sans-serif" font-size="14" lengthAdjust="spacing" textLength="94" x="134" y="372.0195">start : datetime</text><text fill="#000000" font-family="sans-serif" font-size="14" lengthAdjust="spacing" textLength="87" x="134" y="388.4258">end : datetime</text><text fill="#000000" font-family="sans-serif" font-size="14" lengthAdjust="spacing" textLength="114" x="134" y="404.832">description : string</text><text fill="#000000" font-family="sans-serif" font-size="14" lengthAdjust="spacing" textLength="124" x="134" y="421.2383">simulation : boolean</text><text fill="#000000" font-family="sans-serif" font-size="14" lengthAdjust="spacing" textLength="133" x="134" y="437.6445">preferred_axis : string</text><text fill="#000000" font-family="sans-serif" font-size="14" lengthAdjust="spacing" textLength="157" x="134" y="454.0508">preferred_channel : string</text><text fill="#000000" font-family="sans-serif" font-size="14" lengthAdjust="spacing" textLength="249" x="134" y="470.457">preferred_normalisation_channel : string</text><line style="stroke:#181818;stroke-width:0.5;" x1="129" x2="388" y1="477.875" y2="477.875"/></g><!--class Comment--><g id="elem_Comment"><rect codeLine="38" fill="#F1F1F1" height="80.8125" id="Comment" rx="2.5" ry="2.5" style="stroke:#181818;stroke-width:0.5;" width="143" x="424" y="323"/><ellipse cx="461.5" cy="339" fill="#ADD1B2" rx="11" ry="11" style="stroke:#181818;stroke-width:1.0;"/><path d="M461.5469,345.2031 C463.0469,345.2031 464.2813,344.6406 465.1875,343.5781 L463.8125,342.0625 C463.2656,342.6563 462.6094,343.0469 461.8125,343.0469 C460.1406,343.0469 458.9844,341.7188 458.9844,339.4375 C458.9844,337.2188 460.1406,335.875 461.7031,335.875 C462.5156,335.875 463.1094,336.1875 463.6406,336.6719 L465.0156,335.125 C464.2656,334.3906 463.1094,333.7188 461.7031,333.7188 C458.75,333.7188 456.4219,335.8594 456.4219,339.5313 C456.4219,343.25 458.7969,345.2031 461.5469,345.2031 Z " fill="#000000"/><text fill="#000000" font-family="sans-serif" font-size="14" lengthAdjust="spacing" textLength="61" x="480.5" y="343.7852">Comment</text><line style="stroke:#181818;stroke-width:0.5;" x1="425" x2="566" y1="355" y2="355"/><text fill="#000000" font-family="sans-serif" font-size="14" lengthAdjust="spacing" textLength="131" x="430" y="371.9883">timestamp : datetime</text><text fill="#000000" font-family="sans-serif" font-size="14" lengthAdjust="spacing" textLength="104" x="430" y="388.3945">comment : string</text><line style="stroke:#181818;stroke-width:0.5;" x1="425" x2="566" y1="395.8125" y2="395.8125"/></g><g id="elem_GMN12"><path d="M389,546 L389,601.7031 A0,0 0 0 0 389,601.7031 L602,601.7031 A0,0 0 0 0 602,601.7031 L602,556 L592,546 L499.5,546 L495.5,404.21 L491.5,546 L389,546 A0,0 0 0 0 389,546 " fill="#FEFFDD" style="stroke:#181818;stroke-width:0.5;"/><path d="M592,546 L592,556 L602,556 L592,546 " fill="#FEFFDD" style="stroke:#181818;stroke-width:0.5;"/><text fill="#000000" font-family="sans-serif" font-size="13" lengthAdjust="spacing" textLength="192" x="395" y="563.0605">Comments are both, file comment</text><text fill="#000000" font-family="sans-serif" font-size="13" lengthAdjust="spacing" textLength="192" x="395" y="578.2949">and log messages. Discriminating</text><text fill="#000000" font-family="sans-serif" font-size="13" lengthAdjust="spacing" textLength="173" x="395" y="593.5293">could be done in the File class.</text></g><!--class Scan--><g id="elem_Scan"><rect codeLine="48" fill="#F1F1F1" height="64.4063" id="Scan" rx="2.5" ry="2.5" style="stroke:#181818;stroke-width:0.5;" width="99" x="602" y="331.5"/><ellipse cx="633.2" cy="347.5" fill="#ADD1B2" rx="11" ry="11" style="stroke:#181818;stroke-width:1.0;"/><path d="M633.2469,353.7031 C634.7469,353.7031 635.9813,353.1406 636.8875,352.0781 L635.5125,350.5625 C634.9656,351.1563 634.3094,351.5469 633.5125,351.5469 C631.8406,351.5469 630.6844,350.2188 630.6844,347.9375 C630.6844,345.7188 631.8406,344.375 633.4031,344.375 C634.2156,344.375 634.8094,344.6875 635.3406,345.1719 L636.7156,343.625 C635.9656,342.8906 634.8094,342.2188 633.4031,342.2188 C630.45,342.2188 628.1219,344.3594 628.1219,348.0313 C628.1219,351.75 630.4969,353.7031 633.2469,353.7031 Z " fill="#000000"/><text fill="#000000" font-family="sans-serif" font-size="14" lengthAdjust="spacing" textLength="31" x="650.8" y="352.2852">Scan</text><line style="stroke:#181818;stroke-width:0.5;" x1="603" x2="700" y1="363.5" y2="363.5"/><text fill="#000000" font-family="sans-serif" font-size="14" lengthAdjust="spacing" textLength="87" x="608" y="380.4883">author : string</text><line style="stroke:#181818;stroke-width:0.5;" x1="603" x2="700" y1="387.9063" y2="387.9063"/></g><g id="elem_GMN20"><path d="M740,88 L740,104 L683.06,108 L740,112 L740,128.4688 A0,0 0 0 0 740,128.4688 L865,128.4688 A0,0 0 0 0 865,128.4688 L865,98 L855,88 L740,88 A0,0 0 0 0 740,88 " fill="#FEFFDD" style="stroke:#181818;stroke-width:0.5;"/><path d="M855,88 L855,98 L865,98 L855,88 " fill="#FEFFDD" style="stroke:#181818;stroke-width:0.5;"/><text fill="#000000" font-family="sans-serif" font-size="13" lengthAdjust="spacing" textLength="97" x="746" y="105.0605">See diagrams for</text><text fill="#000000" font-family="sans-serif" font-size="13" lengthAdjust="spacing" textLength="104" x="746" y="120.2949">scan subpackage.</text></g><!--reverse link File to Data--><g id="link_File_Data"><path codeLine="20" d="M283.2382,176.8858 C277.3182,180.6558 281.45,177.78 275.5,181 C206.88,218.15 166.62,186.79 110.5,241 C82.85,267.71 70.36,312.1 65.05,339.19 " fill="none" id="File-backto-Data" style="stroke:#181818;stroke-width:1.0;"/><polygon fill="#181818" points="293.36,170.44,286.1505,170.289,283.2382,176.8858,290.4477,177.0369,293.36,170.44" style="stroke:#181818;stroke-width:1.0;"/><text fill="#000000" font-family="sans-serif" font-size="13" lengthAdjust="spacing" textLength="7" x="58.0628" y="328.1293">n</text></g><!--reverse link Scan to Scan--><g id="link_Scan_Scan"><path d="M651.5,150.39 C651.5,196.24 651.5,279.89 651.5,331.35 " fill="none" id="Scan-backto-Scan" style="stroke:#181818;stroke-width:1.0;"/><polygon fill="none" points="651.5,132.39,645.5,150.39,657.5,150.39,651.5,132.39" style="stroke:#181818;stroke-width:1.0;"/></g><!--reverse link File to Metadata--><g id="link_File_Metadata"><path codeLine="53" d="M334.3876,192.2618 C326.1076,210.8518 321.84,220.4 312.77,240.75 " fill="none" id="File-backto-Metadata" style="stroke:#181818;stroke-width:1.0;"/><polygon fill="#181818" points="339.27,181.3,333.1748,185.1535,334.3876,192.2618,340.4827,188.4084,339.27,181.3" style="stroke:#181818;stroke-width:1.0;"/></g><!--reverse link File to Comment--><g id="link_File_Comment"><path codeLine="54" d="M412.1406,192.0806 C434.6106,238.0406 457.59,284.99 476.07,322.78 " fill="none" id="File-backto-Comment" style="stroke:#181818;stroke-width:1.0;"/><polygon fill="#181818" points="406.87,181.3,405.9118,188.4472,412.1406,192.0806,413.0988,184.9334,406.87,181.3" style="stroke:#181818;stroke-width:1.0;"/><text fill="#000000" font-family="sans-serif" font-size="13" lengthAdjust="spacing" textLength="7" x="403.1566" y="201.6826">1</text><text fill="#000000" font-family="sans-serif" font-size="13" lengthAdjust="spacing" textLength="7" x="465.2722" y="311.889">n</text></g><!--reverse link File to Scan--><g id="link_File_Scan"><path codeLine="55" d="M460.3627,150.582 C503.9227,173.472 546.29,200.79 584.5,241 C609.56,267.37 628.37,304.9 639.58,331.25 " fill="none" id="File-backto-Scan" style="stroke:#181818;stroke-width:1.0;"/><polygon fill="#181818" points="449.74,145,453.1907,151.3319,460.3627,150.582,456.912,144.2501,449.74,145" style="stroke:#181818;stroke-width:1.0;"/></g><!--SRC=[TLGzRzj03DtrAmYFHQEYGnSl7M8KxT0ftTh2e7IKTOZkA1nFZeiY_xqKzL4vJhJezFZvo7UgEnI1BxuZ-5k0Fe4oEim8U_W-7mslEGIAMHI_duu_Vvj1QemAFkZBlkVWWxuMZuYzj6on6pXmz9dJ1dqk8cU2ZfeCt5XN-_qQRK4FyvUL4TASO_aMpsHcxxGnNsC74GF9Xsy7WSohy-GJ8RS4aZ4wJ0w4wkmvbcRyqNg1W8yaW6hfCU7OaPTivZvnXLNt1uQ8P_PEprGMPlhAJrQAjFYJp-tAxtD1qS78h2XiqE_kxc0NTyPwObnnpXnqY4JWF9uI1cWu_OespC1ki3ArBMjPoxIlHZEEN7MAafEF9qFRJySp9L5QrpYTwNN39NIBuGeFX38a6lTzr8dbcq05KrP8EwBimxI6aV0Bo97KoVUl9F1Xw9R45ND7iv3wH0sbHEw85o_NGVzjTOinKlUMEN8AgEkp0hVEpyjGPqtFbs3iMec5_YMB-HPi4smME8fsJcJUzykTmMGkxNjRrvB5V5I4qF591os29v8I3dwSLF1HUvxvr3nq3YeL1qTQ16nQikxBZS8cEkDj1BfanSLkQ5dnCChTQmKpJaHno2sd6ph9dzfy9KUPz6YNNOQgn_fHkoqtYbx_5eRiFkvMdIyZMLtjN_4F]--></g></svg>