<?xml version="1.0" encoding="us-ascii" standalone="no"?><svg xmlns="http://www.w3.org/2000/svg" xmlns:xlink="http://www.w3.org/1999/xlink" contentStyleType="text/css" height="334px" preserveAspectRatio="none" style="width:603px;height:334px;background:#FFFFFF;" version="1.1" viewBox="0 0 603 334" width="603px" zoomAndPan="magnify"><defs/><g><!--class Plugin--><g id="elem_Plugin"><rect codeLine="4" fill="#F1F1F1" height="113.1875" id="Plugin" rx="2.5" ry="2.5" style="stroke:#181818;stroke-width:0.5;" width="236" x="360" y="7.5"/><ellipse cx="452.25" cy="23.5" fill="#ADD1B2" rx="11" ry="11" style="stroke:#181818;stroke-width:1.0;"/><path d="M455.2188,29.1406 Q454.6406,29.4375 454,29.5781 Q453.3594,29.7344 452.6563,29.7344 Q450.1563,29.7344 448.8281,28.0938 Q447.5156,26.4375 447.5156,23.3125 Q447.5156,20.1875 448.8281,18.5313 Q450.1563,16.875 452.6563,16.875 Q453.3594,16.875 454,17.0313 Q454.6563,17.1875 455.2188,17.4844 L455.2188,20.2031 Q454.5938,19.625 454,19.3594 Q453.4063,19.0781 452.7813,19.0781 Q451.4375,19.0781 450.75,20.1563 Q450.0625,21.2188 450.0625,23.3125 Q450.0625,25.4063 450.75,26.4844 Q451.4375,27.5469 452.7813,27.5469 Q453.4063,27.5469 454,27.2813 Q454.5938,27 455.2188,26.4219 L455.2188,29.1406 Z " fill="#000000"/><text fill="#000000" font-family="sans-serif" font-size="14" lengthAdjust="spacing" textLength="43" x="472.75" y="28.3467">Plugin</text><line style="stroke:#181818;stroke-width:0.5;" x1="361" x2="595" y1="39.5" y2="39.5"/><text fill="#000000" font-family="sans-serif" font-size="14" lengthAdjust="spacing" textLength="94" x="366" y="56.4951">name : string</text><text fill="#000000" font-family="sans-serif" font-size="14" lengthAdjust="spacing" textLength="110" x="366" y="72.792">location : string</text><text fill="#000000" font-family="sans-serif" font-size="14" lengthAdjust="spacing" textLength="224" x="366" y="89.0889">parameters : PluginParameter[]</text><text fill="#000000" font-family="sans-serif" font-size="14" lengthAdjust="spacing" textLength="122" x="366" y="105.3857">type : PluginType</text><line style="stroke:#181818;stroke-width:0.5;" x1="361" x2="595" y1="112.6875" y2="112.6875"/></g><!--class PluginParameter--><g id="elem_PluginParameter"><rect codeLine="38" fill="#F1F1F1" height="129.4844" id="PluginParameter" rx="2.5" ry="2.5" style="stroke:#181818;stroke-width:0.5;" width="165" x="395.5" y="190.5"/><ellipse cx="417.25" cy="206.5" fill="#ADD1B2" rx="11" ry="11" style="stroke:#181818;stroke-width:1.0;"/><path d="M420.2188,212.1406 Q419.6406,212.4375 419,212.5781 Q418.3594,212.7344 417.6563,212.7344 Q415.1563,212.7344 413.8281,211.0938 Q412.5156,209.4375 412.5156,206.3125 Q412.5156,203.1875 413.8281,201.5313 Q415.1563,199.875 417.6563,199.875 Q418.3594,199.875 419,200.0313 Q419.6563,200.1875 420.2188,200.4844 L420.2188,203.2031 Q419.5938,202.625 419,202.3594 Q418.4063,202.0781 417.7813,202.0781 Q416.4375,202.0781 415.75,203.1563 Q415.0625,204.2188 415.0625,206.3125 Q415.0625,208.4063 415.75,209.4844 Q416.4375,210.5469 417.7813,210.5469 Q418.4063,210.5469 419,210.2813 Q419.5938,210 420.2188,209.4219 L420.2188,212.1406 Z " fill="#000000"/><text fill="#000000" font-family="sans-serif" font-size="14" lengthAdjust="spacing" textLength="118" x="432.75" y="211.3467">PluginParameter</text><line style="stroke:#181818;stroke-width:0.5;" x1="396.5" x2="559.5" y1="222.5" y2="222.5"/><text fill="#000000" font-family="sans-serif" font-size="14" lengthAdjust="spacing" textLength="92" x="401.5" y="239.4951">value : string</text><text fill="#000000" font-family="sans-serif" font-size="14" lengthAdjust="spacing" textLength="94" x="401.5" y="255.792">name : string</text><text fill="#000000" font-family="sans-serif" font-size="14" lengthAdjust="spacing" textLength="153" x="401.5" y="272.0889">datatype : PluginData</text><text fill="#000000" font-family="sans-serif" font-size="14" lengthAdjust="spacing" textLength="103" x="401.5" y="288.3857">default : string</text><text fill="#000000" font-family="sans-serif" font-size="14" lengthAdjust="spacing" textLength="149" x="401.5" y="304.6826">mandatory : boolean</text><line style="stroke:#181818;stroke-width:0.5;" x1="396.5" x2="559.5" y1="311.9844" y2="311.9844"/></g><!--class PluginType--><g id="elem_PluginType"><rect codeLine="14" fill="#F1F1F1" height="96.8906" id="PluginType" rx="2.5" ry="2.5" style="stroke:#181818;stroke-width:0.5;" width="153" x="171.5" y="15.5"/><ellipse cx="205.85" cy="31.5" fill="#EB937F" rx="11" ry="11" style="stroke:#181818;stroke-width:1.0;"/><path d="M209.9594,37.5 L202.2406,37.5 L202.2406,25.1094 L209.9594,25.1094 L209.9594,27.2656 L204.6938,27.2656 L204.6938,29.9375 L209.4594,29.9375 L209.4594,32.0938 L204.6938,32.0938 L204.6938,35.3438 L209.9594,35.3438 L209.9594,37.5 Z " fill="#000000"/><text fill="#000000" font-family="sans-serif" font-size="14" lengthAdjust="spacing" textLength="78" x="224.15" y="36.3467">PluginType</text><line style="stroke:#181818;stroke-width:0.5;" x1="172.5" x2="323.5" y1="47.5" y2="47.5"/><text fill="#000000" font-family="sans-serif" font-size="14" lengthAdjust="spacing" textLength="56" x="177.5" y="64.4951">position</text><text fill="#000000" font-family="sans-serif" font-size="14" lengthAdjust="spacing" textLength="50" x="177.5" y="80.792">display</text><text fill="#000000" font-family="sans-serif" font-size="14" lengthAdjust="spacing" textLength="141" x="177.5" y="97.0889">postscanpositioning</text><line style="stroke:#181818;stroke-width:0.5;" x1="172.5" x2="323.5" y1="104.3906" y2="104.3906"/></g><path d="M6,6 L6,31.1328 A0,0 0 0 0 6,31.1328 L133,31.1328 A0,0 0 0 0 133,31.1328 L133,24 L175.5,75.9453 L133,16 L133,16 L123,6 L6,6 A0,0 0 0 0 6,6 " fill="#FEFFDD" style="stroke:#181818;stroke-width:0.5;"/><path d="M123,6 L123,16 L133,16 L123,6 " fill="#FEFFDD" style="stroke:#181818;stroke-width:0.5;"/><text fill="#000000" font-family="sans-serif" font-size="13" lengthAdjust="spacing" textLength="106" x="12" y="23.0669">What are these?</text><path d="M6,41.1328 L6,111.6641 A0,0 0 0 0 6,111.6641 L136,111.6641 A0,0 0 0 0 136,111.6641 L136,80.3984 L175.5,92.2422 L136,72.3984 L136,51.1328 L126,41.1328 L6,41.1328 A0,0 0 0 0 6,41.1328 " fill="#FEFFDD" style="stroke:#181818;stroke-width:0.5;"/><path d="M126,41.1328 L126,51.1328 L136,51.1328 L126,41.1328 " fill="#FEFFDD" style="stroke:#181818;stroke-width:0.5;"/><text fill="#000000" font-family="sans-serif" font-size="13" lengthAdjust="spacing" textLength="83" x="12" y="58.1997">Rename into</text><text fill="#000000" font-family="sans-serif" font-size="13" lengthAdjust="spacing" textLength="106" x="12" y="73.3325">"positioning" for</text><text fill="#000000" font-family="sans-serif" font-size="13" lengthAdjust="spacing" textLength="109" x="12" y="88.4653">consistency with</text><text fill="#000000" font-family="sans-serif" font-size="13" lengthAdjust="spacing" textLength="93" x="12" y="103.5981">other classes?</text><!--class PluginData--><g id="elem_PluginData"><rect codeLine="29" fill="#F1F1F1" height="145.7813" id="PluginData" rx="2.5" ry="2.5" style="stroke:#181818;stroke-width:0.5;" width="109" x="251.5" y="182"/><ellipse cx="266.5" cy="198" fill="#EB937F" rx="11" ry="11" style="stroke:#181818;stroke-width:1.0;"/><path d="M270.6094,204 L262.8906,204 L262.8906,191.6094 L270.6094,191.6094 L270.6094,193.7656 L265.3438,193.7656 L265.3438,196.4375 L270.1094,196.4375 L270.1094,198.5938 L265.3438,198.5938 L265.3438,201.8438 L270.6094,201.8438 L270.6094,204 Z " fill="#000000"/><text fill="#000000" font-family="sans-serif" font-size="14" lengthAdjust="spacing" textLength="77" x="280.5" y="202.8467">PluginData</text><line style="stroke:#181818;stroke-width:0.5;" x1="252.5" x2="359.5" y1="214" y2="214"/><text fill="#000000" font-family="sans-serif" font-size="14" lengthAdjust="spacing" textLength="18" x="257.5" y="230.9951">int</text><text fill="#000000" font-family="sans-serif" font-size="14" lengthAdjust="spacing" textLength="49" x="257.5" y="247.292">double</text><text fill="#000000" font-family="sans-serif" font-size="14" lengthAdjust="spacing" textLength="40" x="257.5" y="263.5889">string</text><text fill="#000000" font-family="sans-serif" font-size="14" lengthAdjust="spacing" textLength="48" x="257.5" y="279.8857">axis_id</text><text fill="#000000" font-family="sans-serif" font-size="14" lengthAdjust="spacing" textLength="77" x="257.5" y="296.1826">channel_id</text><text fill="#000000" font-family="sans-serif" font-size="14" lengthAdjust="spacing" textLength="67" x="257.5" y="312.4795">device_id</text><line style="stroke:#181818;stroke-width:0.5;" x1="252.5" x2="359.5" y1="319.7813" y2="319.7813"/></g><!--reverse link Plugin to PluginParameter--><g id="link_Plugin_PluginParameter"><path codeLine="11" d="M478,132.68 C478,154.57 478,167.82 478,190.42 " fill="none" id="Plugin-backto-PluginParameter" style="stroke:#181818;stroke-width:1.0;"/><polygon fill="#181818" points="478,120.68,474,126.68,478,132.68,482,126.68,478,120.68" style="stroke:#181818;stroke-width:1.0;"/><text fill="#000000" font-family="sans-serif" font-size="13" lengthAdjust="spacing" textLength="8" x="469.5625" y="179.5839">n</text></g><!--reverse link PluginType to Plugin--><g id="link_PluginType_Plugin"><path codeLine="12" d="M336.82,64 C348.48,64 348.15,64 359.82,64 " fill="none" id="PluginType-backto-Plugin" style="stroke:#181818;stroke-width:1.0;"/><polygon fill="#181818" points="324.82,64,330.82,68,336.82,64,330.82,60,324.82,64" style="stroke:#181818;stroke-width:1.0;"/></g><!--reverse link PluginData to PluginParameter--><g id="link_PluginData_PluginParameter"><path codeLine="45" d="M372.76,255 C384.21,255 383.66,255 395.11,255 " fill="none" id="PluginData-backto-PluginParameter" style="stroke:#181818;stroke-width:1.0;"/><polygon fill="#181818" points="360.76,255,366.76,259,372.76,255,366.76,251,360.76,255" style="stroke:#181818;stroke-width:1.0;"/></g><!--SRC=[TL9DQyCm3BtxLuXS1eEkzrnssGyeOx3364DrbCRWoC5MkeNH_px7-QWRkfpodlIaPqaFZKWNols-iyZIj_P9ktQlBOQmgmoUFBPAgOJXOFkJOVXLC7wCBK49GRpXqqHPfr6CumtTOQn2GZx4m5Jai50VdrEE31sjqRS8r4MfkU7ZRWS55rkfkYR7b3cg577VPdLckvqBPhIMG6L2VEwm12Hev2LXT7rHx8J0KYtWwgnOMURIzmO5q1D8Gu6UO-SAHk7_wdlDnaglbAPfM5p2HPPGGEryOhNZO88Gwm6-ZJI9TB6vXxGW2fc7V0ulA3ZF8RQOHk3wewNqcwqAVqpuCjNKhK5ciWkiw6mqZUXoUm_hFfR3EAFjjvTnvrYgQEfcwwFBEKGrzbOsWXOvQfmV8dzqpX9oz9AzS3s2wudy0G00]--></g></svg>