<?xml version="1.0" encoding="us-ascii" standalone="no"?><svg xmlns="http://www.w3.org/2000/svg" xmlns:xlink="http://www.w3.org/1999/xlink" contentStyleType="text/css" height="863px" preserveAspectRatio="none" style="width:1872px;height:863px;background:#FFFFFF;" version="1.1" viewBox="0 0 1872 863" width="1872px" zoomAndPan="magnify"><defs/><g><!--class Data--><g id="elem_Data"><rect codeLine="3" fill="#F1F1F1" height="129.4844" id="Data" rx="2.5" ry="2.5" style="stroke:#181818;stroke-width:0.5;" width="190" x="897.5" y="27"/><ellipse cx="971.25" cy="43" fill="#ADD1B2" rx="11" ry="11" style="stroke:#181818;stroke-width:1.0;"/><path d="M974.2344,48.6406 Q973.6563,48.9375 973.0156,49.0781 Q972.375,49.2344 971.6719,49.2344 Q969.1563,49.2344 967.8281,47.5938 Q966.5156,45.9375 966.5156,42.8125 Q966.5156,39.6719 967.8281,38.0313 Q969.1563,36.375 971.6719,36.375 Q972.375,36.375 973.0156,36.5313 Q973.6719,36.6719 974.2344,36.9688 L974.2344,39.6875 Q973.5938,39.1094 973,38.8438 Q972.4063,38.5781 971.7813,38.5781 Q970.4375,38.5781 969.75,39.6406 Q969.0625,40.7031 969.0625,42.8125 Q969.0625,44.9063 969.75,45.9844 Q970.4375,47.0469 971.7813,47.0469 Q972.4063,47.0469 973,46.7813 Q973.5938,46.5 974.2344,45.9219 L974.2344,48.6406 Z " fill="#000000"/><text fill="#000000" font-family="sans-serif" font-size="14" lengthAdjust="spacing" textLength="34" x="991.75" y="47.8467">Data</text><line style="stroke:#181818;stroke-width:0.5;" x1="898.5" x2="1086.5" y1="59" y2="59"/><text fill="#000000" font-family="sans-serif" font-size="14" lengthAdjust="spacing" textLength="149" x="903.5" y="75.9951">metadata : Metadata</text><text fill="#000000" font-family="sans-serif" font-size="14" lengthAdjust="spacing" textLength="91" x="903.5" y="92.292">options : dict</text><text fill="#000000" font-family="sans-serif" font-size="14" lengthAdjust="spacing" textLength="130" x="903.5" y="108.5889">_data : np.ndarray</text><text fill="#000000" font-family="sans-serif" font-size="14" lengthAdjust="spacing" textLength="178" x="903.5" y="124.8857">_importer : DataImporter</text><line style="stroke:#181818;stroke-width:0.5;" x1="898.5" x2="1086.5" y1="132.1875" y2="132.1875"/><text fill="#000000" font-family="sans-serif" font-size="14" lengthAdjust="spacing" textLength="42" x="903.5" y="149.1826">data()</text></g><path d="M440.5,6 L440.5,167.3281 A0,0 0 0 0 440.5,167.3281 L862.5,167.3281 A0,0 0 0 0 862.5,167.3281 L862.5,90.6641 L901.5,103.7422 L862.5,82.6641 L862.5,16 L852.5,6 L440.5,6 A0,0 0 0 0 440.5,6 " fill="#FEFFDD" style="stroke:#181818;stroke-width:0.5;"/><path d="M852.5,6 L852.5,16 L862.5,16 L852.5,6 " fill="#FEFFDD" style="stroke:#181818;stroke-width:0.5;"/><text fill="#000000" font-family="sans-serif" font-size="13" lengthAdjust="spacing" textLength="337" x="446.5" y="23.0669">"_data" usually contains a 1D array and is accessed</text><text fill="#000000" font-family="sans-serif" font-size="13" lengthAdjust="spacing" textLength="333" x="446.5" y="38.1997">via the data() getter method (Python property) that</text><text fill="#000000" font-family="sans-serif" font-size="13" lengthAdjust="spacing" textLength="331" x="446.5" y="53.3325">calls the DataImporter on first access if necessary.</text><text fill="#000000" font-family="sans-serif" font-size="13" lengthAdjust="spacing" textLength="8" x="446.5" y="68.4653">&#160;</text><text fill="#000000" font-family="sans-serif" font-size="13" lengthAdjust="spacing" textLength="322" x="446.5" y="83.5981">For individual channel values see derived classes</text><text fill="#000000" font-family="sans-serif" font-size="13" lengthAdjust="spacing" textLength="308" x="446.5" y="98.731">AverageChannelData and IntervalChannelData.</text><text fill="#000000" font-family="sans-serif" font-size="13" lengthAdjust="spacing" textLength="8" x="446.5" y="113.8638">&#160;</text><text fill="#000000" font-family="sans-serif" font-size="13" lengthAdjust="spacing" textLength="362" x="446.5" y="128.9966">ArrayChannelData and AreaChannelData are somewhat</text><text fill="#000000" font-family="sans-serif" font-size="13" lengthAdjust="spacing" textLength="401" x="446.5" y="144.1294">special as they contain either 2D data or a list of data objects</text><text fill="#000000" font-family="sans-serif" font-size="13" lengthAdjust="spacing" textLength="193" x="446.5" y="159.2622">(in case of images and alike).</text><!--class DataImporter--><g id="elem_DataImporter"><rect codeLine="23" fill="#F1F1F1" height="80.5938" id="DataImporter" rx="2.5" ry="2.5" style="stroke:#181818;stroke-width:0.5;" width="128" x="1122.5" y="51"/><ellipse cx="1137.5" cy="67" fill="#ADD1B2" rx="11" ry="11" style="stroke:#181818;stroke-width:1.0;"/><path d="M1140.4844,72.6406 Q1139.9063,72.9375 1139.2656,73.0781 Q1138.625,73.2344 1137.9219,73.2344 Q1135.4063,73.2344 1134.0781,71.5938 Q1132.7656,69.9375 1132.7656,66.8125 Q1132.7656,63.6719 1134.0781,62.0313 Q1135.4063,60.375 1137.9219,60.375 Q1138.625,60.375 1139.2656,60.5313 Q1139.9219,60.6719 1140.4844,60.9688 L1140.4844,63.6875 Q1139.8438,63.1094 1139.25,62.8438 Q1138.6563,62.5781 1138.0313,62.5781 Q1136.6875,62.5781 1136,63.6406 Q1135.3125,64.7031 1135.3125,66.8125 Q1135.3125,68.9063 1136,69.9844 Q1136.6875,71.0469 1138.0313,71.0469 Q1138.6563,71.0469 1139.25,70.7813 Q1139.8438,70.5 1140.4844,69.9219 L1140.4844,72.6406 Z " fill="#000000"/><text fill="#000000" font-family="sans-serif" font-size="14" lengthAdjust="spacing" textLength="96" x="1151.5" y="71.8467">DataImporter</text><line style="stroke:#181818;stroke-width:0.5;" x1="1123.5" x2="1249.5" y1="83" y2="83"/><text fill="#000000" font-family="sans-serif" font-size="14" lengthAdjust="spacing" textLength="48" x="1128.5" y="99.9951">source</text><line style="stroke:#181818;stroke-width:0.5;" x1="1123.5" x2="1249.5" y1="107.2969" y2="107.2969"/><text fill="#000000" font-family="sans-serif" font-size="14" lengthAdjust="spacing" textLength="57" x="1128.5" y="124.292">import()</text></g><!--class Metadata--><g id="elem_Metadata"><rect codeLine="28" fill="#F1F1F1" height="48" id="Metadata" rx="2.5" ry="2.5" style="stroke:#181818;stroke-width:0.5;" width="99" x="559" y="245"/><ellipse cx="574" cy="261" fill="#ADD1B2" rx="11" ry="11" style="stroke:#181818;stroke-width:1.0;"/><path d="M576.9844,266.6406 Q576.4063,266.9375 575.7656,267.0781 Q575.125,267.2344 574.4219,267.2344 Q571.9063,267.2344 570.5781,265.5938 Q569.2656,263.9375 569.2656,260.8125 Q569.2656,257.6719 570.5781,256.0313 Q571.9063,254.375 574.4219,254.375 Q575.125,254.375 575.7656,254.5313 Q576.4219,254.6719 576.9844,254.9688 L576.9844,257.6875 Q576.3438,257.1094 575.75,256.8438 Q575.1563,256.5781 574.5313,256.5781 Q573.1875,256.5781 572.5,257.6406 Q571.8125,258.7031 571.8125,260.8125 Q571.8125,262.9063 572.5,263.9844 Q573.1875,265.0469 574.5313,265.0469 Q575.1563,265.0469 575.75,264.7813 Q576.3438,264.5 576.9844,263.9219 L576.9844,266.6406 Z " fill="#000000"/><text fill="#000000" font-family="sans-serif" font-size="14" lengthAdjust="spacing" textLength="67" x="588" y="265.8467">Metadata</text><line style="stroke:#181818;stroke-width:0.5;" x1="560" x2="657" y1="277" y2="277"/><line style="stroke:#181818;stroke-width:0.5;" x1="560" x2="657" y1="285" y2="285"/></g><g id="elem_GMN7"><path d="M693,249 L693,265 L658.15,269 L693,273 L693,289.2656 A0,0 0 0 0 693,289.2656 L834,289.2656 A0,0 0 0 0 834,289.2656 L834,259 L824,249 L693,249 A0,0 0 0 0 693,249 " fill="#FEFFDD" style="stroke:#181818;stroke-width:0.5;"/><path d="M824,249 L824,259 L834,259 L824,249 " fill="#FEFFDD" style="stroke:#181818;stroke-width:0.5;"/><text fill="#000000" font-family="sans-serif" font-size="13" lengthAdjust="spacing" textLength="104" x="699" y="266.0669">See diagram for</text><text fill="#000000" font-family="sans-serif" font-size="13" lengthAdjust="spacing" textLength="120" x="699" y="281.1997">metadata module.</text></g><!--class MeasureData--><g id="elem_MeasureData"><rect codeLine="35" fill="#F1F1F1" height="64.2969" id="MeasureData" rx="2.5" ry="2.5" style="stroke:#181818;stroke-width:0.5;" width="246" x="869.5" y="237"/><ellipse cx="940.75" cy="253" fill="#ADD1B2" rx="11" ry="11" style="stroke:#181818;stroke-width:1.0;"/><path d="M943.7344,258.6406 Q943.1563,258.9375 942.5156,259.0781 Q941.875,259.2344 941.1719,259.2344 Q938.6563,259.2344 937.3281,257.5938 Q936.0156,255.9375 936.0156,252.8125 Q936.0156,249.6719 937.3281,248.0313 Q938.6563,246.375 941.1719,246.375 Q941.875,246.375 942.5156,246.5313 Q943.1719,246.6719 943.7344,246.9688 L943.7344,249.6875 Q943.0938,249.1094 942.5,248.8438 Q941.9063,248.5781 941.2813,248.5781 Q939.9375,248.5781 939.25,249.6406 Q938.5625,250.7031 938.5625,252.8125 Q938.5625,254.9063 939.25,255.9844 Q939.9375,257.0469 941.2813,257.0469 Q941.9063,257.0469 942.5,256.7813 Q943.0938,256.5 943.7344,255.9219 L943.7344,258.6406 Z " fill="#000000"/><text fill="#000000" font-family="sans-serif" font-size="14" lengthAdjust="spacing" textLength="95" x="961.25" y="257.8467">MeasureData</text><line style="stroke:#181818;stroke-width:0.5;" x1="870.5" x2="1114.5" y1="269" y2="269"/><text fill="#000000" font-family="sans-serif" font-size="14" lengthAdjust="spacing" textLength="234" x="875.5" y="285.9951">positions : np.ndarray(dtype=int)</text><line style="stroke:#181818;stroke-width:0.5;" x1="870.5" x2="1114.5" y1="293.2969" y2="293.2969"/></g><!--class MonitorData--><g id="elem_MonitorData"><rect codeLine="39" fill="#F1F1F1" height="64.2969" id="MonitorData" rx="2.5" ry="2.5" style="stroke:#181818;stroke-width:0.5;" width="271" x="1151" y="237"/><ellipse cx="1238.25" cy="253" fill="#ADD1B2" rx="11" ry="11" style="stroke:#181818;stroke-width:1.0;"/><path d="M1241.2344,258.6406 Q1240.6563,258.9375 1240.0156,259.0781 Q1239.375,259.2344 1238.6719,259.2344 Q1236.1563,259.2344 1234.8281,257.5938 Q1233.5156,255.9375 1233.5156,252.8125 Q1233.5156,249.6719 1234.8281,248.0313 Q1236.1563,246.375 1238.6719,246.375 Q1239.375,246.375 1240.0156,246.5313 Q1240.6719,246.6719 1241.2344,246.9688 L1241.2344,249.6875 Q1240.5938,249.1094 1240,248.8438 Q1239.4063,248.5781 1238.7813,248.5781 Q1237.4375,248.5781 1236.75,249.6406 Q1236.0625,250.7031 1236.0625,252.8125 Q1236.0625,254.9063 1236.75,255.9844 Q1237.4375,257.0469 1238.7813,257.0469 Q1239.4063,257.0469 1240,256.7813 Q1240.5938,256.5 1241.2344,255.9219 L1241.2344,258.6406 Z " fill="#000000"/><text fill="#000000" font-family="sans-serif" font-size="14" lengthAdjust="spacing" textLength="88" x="1258.75" y="257.8467">MonitorData</text><line style="stroke:#181818;stroke-width:0.5;" x1="1152" x2="1421" y1="269" y2="269"/><text fill="#000000" font-family="sans-serif" font-size="14" lengthAdjust="spacing" textLength="259" x="1157" y="285.9951">milliseconds : np.ndarray(dtype=int)</text><line style="stroke:#181818;stroke-width:0.5;" x1="1152" x2="1421" y1="293.2969" y2="293.2969"/></g><!--class DeviceData--><g id="elem_DeviceData"><rect codeLine="43" fill="#F1F1F1" height="48" id="DeviceData" rx="2.5" ry="2.5" style="stroke:#181818;stroke-width:0.5;" width="115" x="723" y="385.5"/><ellipse cx="738" cy="401.5" fill="#ADD1B2" rx="11" ry="11" style="stroke:#181818;stroke-width:1.0;"/><path d="M740.9844,407.1406 Q740.4063,407.4375 739.7656,407.5781 Q739.125,407.7344 738.4219,407.7344 Q735.9063,407.7344 734.5781,406.0938 Q733.2656,404.4375 733.2656,401.3125 Q733.2656,398.1719 734.5781,396.5313 Q735.9063,394.875 738.4219,394.875 Q739.125,394.875 739.7656,395.0313 Q740.4219,395.1719 740.9844,395.4688 L740.9844,398.1875 Q740.3438,397.6094 739.75,397.3438 Q739.1563,397.0781 738.5313,397.0781 Q737.1875,397.0781 736.5,398.1406 Q735.8125,399.2031 735.8125,401.3125 Q735.8125,403.4063 736.5,404.4844 Q737.1875,405.5469 738.5313,405.5469 Q739.1563,405.5469 739.75,405.2813 Q740.3438,405 740.9844,404.4219 L740.9844,407.1406 Z " fill="#000000"/><text fill="#000000" font-family="sans-serif" font-size="14" lengthAdjust="spacing" textLength="83" x="752" y="406.3467">DeviceData</text><line style="stroke:#181818;stroke-width:0.5;" x1="724" x2="837" y1="417.5" y2="417.5"/><line style="stroke:#181818;stroke-width:0.5;" x1="724" x2="837" y1="425.5" y2="425.5"/></g><!--class AxisData--><g id="elem_AxisData"><rect codeLine="45" fill="#F1F1F1" height="64.2969" id="AxisData" rx="2.5" ry="2.5" style="stroke:#181818;stroke-width:0.5;" width="95" x="873" y="377.5"/><ellipse cx="888" cy="393.5" fill="#ADD1B2" rx="11" ry="11" style="stroke:#181818;stroke-width:1.0;"/><path d="M890.9844,399.1406 Q890.4063,399.4375 889.7656,399.5781 Q889.125,399.7344 888.4219,399.7344 Q885.9063,399.7344 884.5781,398.0938 Q883.2656,396.4375 883.2656,393.3125 Q883.2656,390.1719 884.5781,388.5313 Q885.9063,386.875 888.4219,386.875 Q889.125,386.875 889.7656,387.0313 Q890.4219,387.1719 890.9844,387.4688 L890.9844,390.1875 Q890.3438,389.6094 889.75,389.3438 Q889.1563,389.0781 888.5313,389.0781 Q887.1875,389.0781 886.5,390.1406 Q885.8125,391.2031 885.8125,393.3125 Q885.8125,395.4063 886.5,396.4844 Q887.1875,397.5469 888.5313,397.5469 Q889.1563,397.5469 889.75,397.2813 Q890.3438,397 890.9844,396.4219 L890.9844,399.1406 Z " fill="#000000"/><text fill="#000000" font-family="sans-serif" font-size="14" lengthAdjust="spacing" textLength="63" x="902" y="398.3467">AxisData</text><line style="stroke:#181818;stroke-width:0.5;" x1="874" x2="967" y1="409.5" y2="409.5"/><text fill="#000000" font-family="sans-serif" font-size="14" lengthAdjust="spacing" textLength="74" x="879" y="426.4951">set_values</text><line style="stroke:#181818;stroke-width:0.5;" x1="874" x2="967" y1="433.7969" y2="433.7969"/></g><!--class NonencodedAxisData--><g id="elem_NonencodedAxisData"><rect codeLine="49" fill="#F1F1F1" height="80.5938" id="NonencodedAxisData" rx="2.5" ry="2.5" style="stroke:#181818;stroke-width:0.5;" width="185" x="130" y="566.5"/><ellipse cx="145" cy="582.5" fill="#ADD1B2" rx="11" ry="11" style="stroke:#181818;stroke-width:1.0;"/><path d="M147.9844,588.1406 Q147.4063,588.4375 146.7656,588.5781 Q146.125,588.7344 145.4219,588.7344 Q142.9063,588.7344 141.5781,587.0938 Q140.2656,585.4375 140.2656,582.3125 Q140.2656,579.1719 141.5781,577.5313 Q142.9063,575.875 145.4219,575.875 Q146.125,575.875 146.7656,576.0313 Q147.4219,576.1719 147.9844,576.4688 L147.9844,579.1875 Q147.3438,578.6094 146.75,578.3438 Q146.1563,578.0781 145.5313,578.0781 Q144.1875,578.0781 143.5,579.1406 Q142.8125,580.2031 142.8125,582.3125 Q142.8125,584.4063 143.5,585.4844 Q144.1875,586.5469 145.5313,586.5469 Q146.1563,586.5469 146.75,586.2813 Q147.3438,586 147.9844,585.4219 L147.9844,588.1406 Z " fill="#000000"/><text fill="#000000" font-family="sans-serif" font-size="14" lengthAdjust="spacing" textLength="153" x="159" y="587.3467">NonencodedAxisData</text><line style="stroke:#181818;stroke-width:0.5;" x1="131" x2="314" y1="598.5" y2="598.5"/><text fill="#000000" font-family="sans-serif" font-size="14" lengthAdjust="spacing" textLength="81" x="136" y="615.4951">_filled_data</text><line style="stroke:#181818;stroke-width:0.5;" x1="131" x2="314" y1="622.7969" y2="622.7969"/><text fill="#000000" font-family="sans-serif" font-size="14" lengthAdjust="spacing" textLength="84" x="136" y="639.792">filled_data()</text></g><g id="elem_GMN22"><path d="M6,763.5 L6,849.1641 A0,0 0 0 0 6,849.1641 L293,849.1641 A0,0 0 0 0 293,849.1641 L293,773.5 L283,763.5 L169.13,763.5 L207.73,647.97 L161.13,763.5 L6,763.5 A0,0 0 0 0 6,763.5 " fill="#FEFFDD" style="stroke:#181818;stroke-width:0.5;"/><path d="M283,763.5 L283,773.5 L293,773.5 L283,763.5 " fill="#FEFFDD" style="stroke:#181818;stroke-width:0.5;"/><text fill="#000000" font-family="sans-serif" font-size="13" lengthAdjust="spacing" textLength="266" x="12" y="780.5669">Data for axes without encoders are filled</text><text fill="#000000" font-family="sans-serif" font-size="13" lengthAdjust="spacing" textLength="259" x="12" y="795.6997">depending on the ChannelData they are</text><text fill="#000000" font-family="sans-serif" font-size="13" lengthAdjust="spacing" textLength="102" x="12" y="810.8325">plotted against.</text><text fill="#000000" font-family="sans-serif" font-size="13" lengthAdjust="spacing" textLength="254" x="12" y="825.9653">Hence for different channels, generally</text><text fill="#000000" font-family="sans-serif" font-size="13" lengthAdjust="spacing" textLength="193" x="12" y="841.0981">different filled data will exist.</text></g><!--class ChannelData--><g id="elem_ChannelData"><rect codeLine="61" fill="#F1F1F1" height="48" id="ChannelData" rx="2.5" ry="2.5" style="stroke:#181818;stroke-width:0.5;" width="125" x="1003" y="385.5"/><ellipse cx="1018" cy="401.5" fill="#ADD1B2" rx="11" ry="11" style="stroke:#181818;stroke-width:1.0;"/><path d="M1020.9844,407.1406 Q1020.4063,407.4375 1019.7656,407.5781 Q1019.125,407.7344 1018.4219,407.7344 Q1015.9063,407.7344 1014.5781,406.0938 Q1013.2656,404.4375 1013.2656,401.3125 Q1013.2656,398.1719 1014.5781,396.5313 Q1015.9063,394.875 1018.4219,394.875 Q1019.125,394.875 1019.7656,395.0313 Q1020.4219,395.1719 1020.9844,395.4688 L1020.9844,398.1875 Q1020.3438,397.6094 1019.75,397.3438 Q1019.1563,397.0781 1018.5313,397.0781 Q1017.1875,397.0781 1016.5,398.1406 Q1015.8125,399.2031 1015.8125,401.3125 Q1015.8125,403.4063 1016.5,404.4844 Q1017.1875,405.5469 1018.5313,405.5469 Q1019.1563,405.5469 1019.75,405.2813 Q1020.3438,405 1020.9844,404.4219 L1020.9844,407.1406 Z " fill="#000000"/><text fill="#000000" font-family="sans-serif" font-size="14" lengthAdjust="spacing" textLength="93" x="1032" y="406.3467">ChannelData</text><line style="stroke:#181818;stroke-width:0.5;" x1="1004" x2="1127" y1="417.5" y2="417.5"/><line style="stroke:#181818;stroke-width:0.5;" x1="1004" x2="1127" y1="425.5" y2="425.5"/></g><!--class TimestampData--><g id="elem_TimestampData"><rect codeLine="64" fill="#F1F1F1" height="96.8906" id="TimestampData" rx="2.5" ry="2.5" style="stroke:#181818;stroke-width:0.5;" width="287" x="1163" y="361"/><ellipse cx="1245.25" cy="377" fill="#ADD1B2" rx="11" ry="11" style="stroke:#181818;stroke-width:1.0;"/><path d="M1248.2344,382.6406 Q1247.6563,382.9375 1247.0156,383.0781 Q1246.375,383.2344 1245.6719,383.2344 Q1243.1563,383.2344 1241.8281,381.5938 Q1240.5156,379.9375 1240.5156,376.8125 Q1240.5156,373.6719 1241.8281,372.0313 Q1243.1563,370.375 1245.6719,370.375 Q1246.375,370.375 1247.0156,370.5313 Q1247.6719,370.6719 1248.2344,370.9688 L1248.2344,373.6875 Q1247.5938,373.1094 1247,372.8438 Q1246.4063,372.5781 1245.7813,372.5781 Q1244.4375,372.5781 1243.75,373.6406 Q1243.0625,374.7031 1243.0625,376.8125 Q1243.0625,378.9063 1243.75,379.9844 Q1244.4375,381.0469 1245.7813,381.0469 Q1246.4063,381.0469 1247,380.7813 Q1247.5938,380.5 1248.2344,379.9219 L1248.2344,382.6406 Z " fill="#000000"/><text fill="#000000" font-family="sans-serif" font-size="14" lengthAdjust="spacing" textLength="114" x="1265.75" y="381.8467">TimestampData</text><line style="stroke:#181818;stroke-width:0.5;" x1="1164" x2="1449" y1="393" y2="393"/><text fill="#000000" font-family="sans-serif" font-size="14" lengthAdjust="spacing" textLength="275" x="1169" y="409.9951">_first_positions : np.ndarray(dtype=int)</text><text fill="#000000" font-family="sans-serif" font-size="14" lengthAdjust="spacing" textLength="273" x="1169" y="426.292">_last_positions : np.ndarray(dtype=int)</text><line style="stroke:#181818;stroke-width:0.5;" x1="1164" x2="1449" y1="433.5938" y2="433.5938"/><text fill="#000000" font-family="sans-serif" font-size="14" lengthAdjust="spacing" textLength="258" x="1169" y="450.5889">get_position(timestamp, mode=last)</text></g><!--class SinglePointChannelData--><g id="elem_SinglePointChannelData"><rect codeLine="70" fill="#F1F1F1" height="48" id="SinglePointChannelData" rx="2.5" ry="2.5" style="stroke:#181818;stroke-width:0.5;" width="204" x="494.5" y="583"/><ellipse cx="509.5" cy="599" fill="#ADD1B2" rx="11" ry="11" style="stroke:#181818;stroke-width:1.0;"/><path d="M512.4844,604.6406 Q511.9063,604.9375 511.2656,605.0781 Q510.625,605.2344 509.9219,605.2344 Q507.4063,605.2344 506.0781,603.5938 Q504.7656,601.9375 504.7656,598.8125 Q504.7656,595.6719 506.0781,594.0313 Q507.4063,592.375 509.9219,592.375 Q510.625,592.375 511.2656,592.5313 Q511.9219,592.6719 512.4844,592.9688 L512.4844,595.6875 Q511.8438,595.1094 511.25,594.8438 Q510.6563,594.5781 510.0313,594.5781 Q508.6875,594.5781 508,595.6406 Q507.3125,596.7031 507.3125,598.8125 Q507.3125,600.9063 508,601.9844 Q508.6875,603.0469 510.0313,603.0469 Q510.6563,603.0469 511.25,602.7813 Q511.8438,602.5 512.4844,601.9219 L512.4844,604.6406 Z " fill="#000000"/><text fill="#000000" font-family="sans-serif" font-size="14" lengthAdjust="spacing" textLength="172" x="523.5" y="603.8467">SinglePointChannelData</text><line style="stroke:#181818;stroke-width:0.5;" x1="495.5" x2="697.5" y1="615" y2="615"/><line style="stroke:#181818;stroke-width:0.5;" x1="495.5" x2="697.5" y1="623" y2="623"/></g><!--class SinglePointNormalizedChannelData--><g id="elem_SinglePointNormalizedChannelData"><rect codeLine="72" fill="#F1F1F1" height="80.5938" id="SinglePointNormalizedChannelData" rx="2.5" ry="2.5" style="stroke:#181818;stroke-width:0.5;" width="285" x="328" y="766"/><ellipse cx="343" cy="782" fill="#ADD1B2" rx="11" ry="11" style="stroke:#181818;stroke-width:1.0;"/><path d="M345.9844,787.6406 Q345.4063,787.9375 344.7656,788.0781 Q344.125,788.2344 343.4219,788.2344 Q340.9063,788.2344 339.5781,786.5938 Q338.2656,784.9375 338.2656,781.8125 Q338.2656,778.6719 339.5781,777.0313 Q340.9063,775.375 343.4219,775.375 Q344.125,775.375 344.7656,775.5313 Q345.4219,775.6719 345.9844,775.9688 L345.9844,778.6875 Q345.3438,778.1094 344.75,777.8438 Q344.1563,777.5781 343.5313,777.5781 Q342.1875,777.5781 341.5,778.6406 Q340.8125,779.7031 340.8125,781.8125 Q340.8125,783.9063 341.5,784.9844 Q342.1875,786.0469 343.5313,786.0469 Q344.1563,786.0469 344.75,785.7813 Q345.3438,785.5 345.9844,784.9219 L345.9844,787.6406 Z " fill="#000000"/><text fill="#000000" font-family="sans-serif" font-size="14" lengthAdjust="spacing" textLength="253" x="357" y="786.8467">SinglePointNormalizedChannelData</text><line style="stroke:#181818;stroke-width:0.5;" x1="329" x2="612" y1="798" y2="798"/><text fill="#000000" font-family="sans-serif" font-size="14" lengthAdjust="spacing" textLength="210" x="334" y="814.9951">normalized_data : np.ndarray</text><text fill="#000000" font-family="sans-serif" font-size="14" lengthAdjust="spacing" textLength="214" x="334" y="831.292">normalizing_data : np.ndarray</text><line style="stroke:#181818;stroke-width:0.5;" x1="329" x2="612" y1="838.5938" y2="838.5938"/></g><!--class AverageChannelData--><g id="elem_AverageChannelData"><rect codeLine="77" fill="#F1F1F1" height="178.375" id="AverageChannelData" rx="2.5" ry="2.5" style="stroke:#181818;stroke-width:0.5;" width="246" x="806.5" y="518"/><ellipse cx="848.95" cy="534" fill="#ADD1B2" rx="11" ry="11" style="stroke:#181818;stroke-width:1.0;"/><path d="M851.9344,539.6406 Q851.3563,539.9375 850.7156,540.0781 Q850.075,540.2344 849.3719,540.2344 Q846.8563,540.2344 845.5281,538.5938 Q844.2156,536.9375 844.2156,533.8125 Q844.2156,530.6719 845.5281,529.0313 Q846.8563,527.375 849.3719,527.375 Q850.075,527.375 850.7156,527.5313 Q851.3719,527.6719 851.9344,527.9688 L851.9344,530.6875 Q851.2938,530.1094 850.7,529.8438 Q850.1063,529.5781 849.4813,529.5781 Q848.1375,529.5781 847.45,530.6406 Q846.7625,531.7031 846.7625,533.8125 Q846.7625,535.9063 847.45,536.9844 Q848.1375,538.0469 849.4813,538.0469 Q850.1063,538.0469 850.7,537.7813 Q851.2938,537.5 851.9344,536.9219 L851.9344,539.6406 Z " fill="#000000"/><text fill="#000000" font-family="sans-serif" font-size="14" lengthAdjust="spacing" textLength="153" x="869.05" y="538.8467">AverageChannelData</text><line style="stroke:#181818;stroke-width:0.5;" x1="807.5" x2="1051.5" y1="550" y2="550"/><text fill="#000000" font-family="sans-serif" font-size="14" lengthAdjust="spacing" textLength="167" x="812.5" y="566.9951">raw_data : raggedarray</text><text fill="#000000" font-family="sans-serif" font-size="14" lengthAdjust="spacing" textLength="234" x="812.5" y="583.292">attempts : np.ndarray(dtype=int)</text><text fill="#000000" font-family="sans-serif" font-size="14" lengthAdjust="spacing" textLength="139" x="812.5" y="599.5889">_mean : np.ndarray</text><text fill="#000000" font-family="sans-serif" font-size="14" lengthAdjust="spacing" textLength="119" x="812.5" y="615.8857">_std : np.ndarray</text><line style="stroke:#181818;stroke-width:0.5;" x1="807.5" x2="1051.5" y1="623.1875" y2="623.1875"/><text fill="#000000" font-family="sans-serif" font-size="14" lengthAdjust="spacing" textLength="51" x="812.5" y="640.1826">mean()</text><text fill="#000000" font-family="sans-serif" font-size="14" lengthAdjust="spacing" textLength="31" x="812.5" y="656.4795">std()</text><text fill="#000000" font-family="sans-serif" font-size="14" lengthAdjust="spacing" textLength="117" x="812.5" y="672.7764">averaged_data()</text><text fill="#000000" font-family="sans-serif" font-size="14" lengthAdjust="spacing" textLength="107" x="812.5" y="689.0732">has_raw_data()</text></g><g id="elem_GMN35"><path d="M648.5,756 L648.5,856.7969 A0,0 0 0 0 648.5,856.7969 L908.5,856.7969 A0,0 0 0 0 908.5,856.7969 L908.5,766 L898.5,756 L820.53,756 L862.17,696.06 L812.53,756 L648.5,756 A0,0 0 0 0 648.5,756 " fill="#FEFFDD" style="stroke:#181818;stroke-width:0.5;"/><path d="M898.5,756 L898.5,766 L908.5,766 L898.5,756 " fill="#FEFFDD" style="stroke:#181818;stroke-width:0.5;"/><text fill="#000000" font-family="sans-serif" font-size="13" lengthAdjust="spacing" textLength="203" x="654.5" y="773.0669">averaged_values() returns only</text><text fill="#000000" font-family="sans-serif" font-size="13" lengthAdjust="spacing" textLength="229" x="654.5" y="788.1997">those values used to average over.</text><text fill="#000000" font-family="sans-serif" font-size="13" lengthAdjust="spacing" textLength="8" x="654.5" y="803.3325">&#160;</text><text fill="#000000" font-family="sans-serif" font-size="13" lengthAdjust="spacing" textLength="239" x="654.5" y="818.4653">How does mean() differ from data()?</text><text fill="#000000" font-family="sans-serif" font-size="13" lengthAdjust="spacing" textLength="219" x="654.5" y="833.5981">Probably, data() should return the</text><text fill="#000000" font-family="sans-serif" font-size="13" lengthAdjust="spacing" textLength="103" x="654.5" y="848.731">averaged data -</text><text fill="#000000" font-family="sans-serif" font-size="13" font-style="italic" lengthAdjust="spacing" textLength="20" x="761.5" y="848.731">i.e.</text><text fill="#000000" font-family="sans-serif" font-size="13" lengthAdjust="spacing" textLength="59" x="781.5" y="848.731">, mean().</text></g><!--class AverageNormalizedChannelData--><g id="elem_AverageNormalizedChannelData"><rect codeLine="96" fill="#F1F1F1" height="80.5938" id="AverageNormalizedChannelData" rx="2.5" ry="2.5" style="stroke:#181818;stroke-width:0.5;" width="266" x="943.5" y="766"/><ellipse cx="958.5" cy="782" fill="#ADD1B2" rx="11" ry="11" style="stroke:#181818;stroke-width:1.0;"/><path d="M961.4844,787.6406 Q960.9063,787.9375 960.2656,788.0781 Q959.625,788.2344 958.9219,788.2344 Q956.4063,788.2344 955.0781,786.5938 Q953.7656,784.9375 953.7656,781.8125 Q953.7656,778.6719 955.0781,777.0313 Q956.4063,775.375 958.9219,775.375 Q959.625,775.375 960.2656,775.5313 Q960.9219,775.6719 961.4844,775.9688 L961.4844,778.6875 Q960.8438,778.1094 960.25,777.8438 Q959.6563,777.5781 959.0313,777.5781 Q957.6875,777.5781 957,778.6406 Q956.3125,779.7031 956.3125,781.8125 Q956.3125,783.9063 957,784.9844 Q957.6875,786.0469 959.0313,786.0469 Q959.6563,786.0469 960.25,785.7813 Q960.8438,785.5 961.4844,784.9219 L961.4844,787.6406 Z " fill="#000000"/><text fill="#000000" font-family="sans-serif" font-size="14" lengthAdjust="spacing" textLength="234" x="972.5" y="786.8467">AverageNormalizedChannelData</text><line style="stroke:#181818;stroke-width:0.5;" x1="944.5" x2="1208.5" y1="798" y2="798"/><text fill="#000000" font-family="sans-serif" font-size="14" lengthAdjust="spacing" textLength="221" x="949.5" y="814.9951">normalized_data : raggedarray</text><text fill="#000000" font-family="sans-serif" font-size="14" lengthAdjust="spacing" textLength="225" x="949.5" y="831.292">normalizing_data : raggedarray</text><line style="stroke:#181818;stroke-width:0.5;" x1="944.5" x2="1208.5" y1="838.5938" y2="838.5938"/></g><!--class IntervalChannelData--><g id="elem_IntervalChannelData"><rect codeLine="102" fill="#F1F1F1" height="162.0781" id="IntervalChannelData" rx="2.5" ry="2.5" style="stroke:#181818;stroke-width:0.5;" width="230" x="1087.5" y="526"/><ellipse cx="1125.45" cy="542" fill="#ADD1B2" rx="11" ry="11" style="stroke:#181818;stroke-width:1.0;"/><path d="M1128.4344,547.6406 Q1127.8563,547.9375 1127.2156,548.0781 Q1126.575,548.2344 1125.8719,548.2344 Q1123.3563,548.2344 1122.0281,546.5938 Q1120.7156,544.9375 1120.7156,541.8125 Q1120.7156,538.6719 1122.0281,537.0313 Q1123.3563,535.375 1125.8719,535.375 Q1126.575,535.375 1127.2156,535.5313 Q1127.8719,535.6719 1128.4344,535.9688 L1128.4344,538.6875 Q1127.7938,538.1094 1127.2,537.8438 Q1126.6063,537.5781 1125.9813,537.5781 Q1124.6375,537.5781 1123.95,538.6406 Q1123.2625,539.7031 1123.2625,541.8125 Q1123.2625,543.9063 1123.95,544.9844 Q1124.6375,546.0469 1125.9813,546.0469 Q1126.6063,546.0469 1127.2,545.7813 Q1127.7938,545.5 1128.4344,544.9219 L1128.4344,547.6406 Z " fill="#000000"/><text fill="#000000" font-family="sans-serif" font-size="14" lengthAdjust="spacing" textLength="147" x="1144.55" y="546.8467">IntervalChannelData</text><line style="stroke:#181818;stroke-width:0.5;" x1="1088.5" x2="1316.5" y1="558" y2="558"/><text fill="#000000" font-family="sans-serif" font-size="14" lengthAdjust="spacing" textLength="167" x="1093.5" y="574.9951">raw_data : raggedarray</text><text fill="#000000" font-family="sans-serif" font-size="14" lengthAdjust="spacing" textLength="218" x="1093.5" y="591.292">counts : np.ndarray(dtype=int)</text><text fill="#000000" font-family="sans-serif" font-size="14" lengthAdjust="spacing" textLength="139" x="1093.5" y="607.5889">_mean : np.ndarray</text><text fill="#000000" font-family="sans-serif" font-size="14" lengthAdjust="spacing" textLength="119" x="1093.5" y="623.8857">_std : np.ndarray</text><line style="stroke:#181818;stroke-width:0.5;" x1="1088.5" x2="1316.5" y1="631.1875" y2="631.1875"/><text fill="#000000" font-family="sans-serif" font-size="14" lengthAdjust="spacing" textLength="51" x="1093.5" y="648.1826">mean()</text><text fill="#000000" font-family="sans-serif" font-size="14" lengthAdjust="spacing" textLength="31" x="1093.5" y="664.4795">std()</text><text fill="#000000" font-family="sans-serif" font-size="14" lengthAdjust="spacing" textLength="107" x="1093.5" y="680.7764">has_raw_data()</text></g><!--class IntervalNormalizedChannelData--><g id="elem_IntervalNormalizedChannelData"><rect codeLine="112" fill="#F1F1F1" height="80.5938" id="IntervalNormalizedChannelData" rx="2.5" ry="2.5" style="stroke:#181818;stroke-width:0.5;" width="260" x="1244.5" y="766"/><ellipse cx="1259.5" cy="782" fill="#ADD1B2" rx="11" ry="11" style="stroke:#181818;stroke-width:1.0;"/><path d="M1262.4844,787.6406 Q1261.9063,787.9375 1261.2656,788.0781 Q1260.625,788.2344 1259.9219,788.2344 Q1257.4063,788.2344 1256.0781,786.5938 Q1254.7656,784.9375 1254.7656,781.8125 Q1254.7656,778.6719 1256.0781,777.0313 Q1257.4063,775.375 1259.9219,775.375 Q1260.625,775.375 1261.2656,775.5313 Q1261.9219,775.6719 1262.4844,775.9688 L1262.4844,778.6875 Q1261.8438,778.1094 1261.25,777.8438 Q1260.6563,777.5781 1260.0313,777.5781 Q1258.6875,777.5781 1258,778.6406 Q1257.3125,779.7031 1257.3125,781.8125 Q1257.3125,783.9063 1258,784.9844 Q1258.6875,786.0469 1260.0313,786.0469 Q1260.6563,786.0469 1261.25,785.7813 Q1261.8438,785.5 1262.4844,784.9219 L1262.4844,787.6406 Z " fill="#000000"/><text fill="#000000" font-family="sans-serif" font-size="14" lengthAdjust="spacing" textLength="228" x="1273.5" y="786.8467">IntervalNormalizedChannelData</text><line style="stroke:#181818;stroke-width:0.5;" x1="1245.5" x2="1503.5" y1="798" y2="798"/><text fill="#000000" font-family="sans-serif" font-size="14" lengthAdjust="spacing" textLength="221" x="1250.5" y="814.9951">normalized_data : raggedarray</text><text fill="#000000" font-family="sans-serif" font-size="14" lengthAdjust="spacing" textLength="225" x="1250.5" y="831.292">normalizing_data : raggedarray</text><line style="stroke:#181818;stroke-width:0.5;" x1="1245.5" x2="1503.5" y1="838.5938" y2="838.5938"/></g><!--class ArrayChannelData--><g id="elem_ArrayChannelData"><rect codeLine="117" fill="#F1F1F1" height="64.2969" id="ArrayChannelData" rx="2.5" ry="2.5" style="stroke:#181818;stroke-width:0.5;" width="211" x="1353" y="575"/><ellipse cx="1389.15" cy="591" fill="#ADD1B2" rx="11" ry="11" style="stroke:#181818;stroke-width:1.0;"/><path d="M1392.1344,596.6406 Q1391.5563,596.9375 1390.9156,597.0781 Q1390.275,597.2344 1389.5719,597.2344 Q1387.0563,597.2344 1385.7281,595.5938 Q1384.4156,593.9375 1384.4156,590.8125 Q1384.4156,587.6719 1385.7281,586.0313 Q1387.0563,584.375 1389.5719,584.375 Q1390.275,584.375 1390.9156,584.5313 Q1391.5719,584.6719 1392.1344,584.9688 L1392.1344,587.6875 Q1391.4938,587.1094 1390.9,586.8438 Q1390.3063,586.5781 1389.6813,586.5781 Q1388.3375,586.5781 1387.65,587.6406 Q1386.9625,588.7031 1386.9625,590.8125 Q1386.9625,592.9063 1387.65,593.9844 Q1388.3375,595.0469 1389.6813,595.0469 Q1390.3063,595.0469 1390.9,594.7813 Q1391.4938,594.5 1392.1344,593.9219 L1392.1344,596.6406 Z " fill="#000000"/><text fill="#000000" font-family="sans-serif" font-size="14" lengthAdjust="spacing" textLength="132" x="1407.85" y="595.8467">ArrayChannelData</text><line style="stroke:#181818;stroke-width:0.5;" x1="1354" x2="1563" y1="607" y2="607"/><text fill="#000000" font-family="sans-serif" font-size="14" lengthAdjust="spacing" textLength="199" x="1359" y="623.9951">roi[] : ArrayChannelROIData</text><line style="stroke:#181818;stroke-width:0.5;" x1="1354" x2="1563" y1="631.2969" y2="631.2969"/></g><!--class ArrayChannelROIData--><g id="elem_ArrayChannelROIData"><rect codeLine="121" fill="#F1F1F1" height="113.1875" id="ArrayChannelROIData" rx="2.5" ry="2.5" style="stroke:#181818;stroke-width:0.5;" width="246" x="1285.5" y="35"/><ellipse cx="1326.15" cy="51" fill="#ADD1B2" rx="11" ry="11" style="stroke:#181818;stroke-width:1.0;"/><path d="M1329.1344,56.6406 Q1328.5563,56.9375 1327.9156,57.0781 Q1327.275,57.2344 1326.5719,57.2344 Q1324.0563,57.2344 1322.7281,55.5938 Q1321.4156,53.9375 1321.4156,50.8125 Q1321.4156,47.6719 1322.7281,46.0313 Q1324.0563,44.375 1326.5719,44.375 Q1327.275,44.375 1327.9156,44.5313 Q1328.5719,44.6719 1329.1344,44.9688 L1329.1344,47.6875 Q1328.4938,47.1094 1327.9,46.8438 Q1327.3063,46.5781 1326.6813,46.5781 Q1325.3375,46.5781 1324.65,47.6406 Q1323.9625,48.7031 1323.9625,50.8125 Q1323.9625,52.9063 1324.65,53.9844 Q1325.3375,55.0469 1326.6813,55.0469 Q1327.3063,55.0469 1327.9,54.7813 Q1328.4938,54.5 1329.1344,53.9219 L1329.1344,56.6406 Z " fill="#000000"/><text fill="#000000" font-family="sans-serif" font-size="14" lengthAdjust="spacing" textLength="157" x="1345.85" y="55.8467">ArrayChannelROIData</text><line style="stroke:#181818;stroke-width:0.5;" x1="1286.5" x2="1530.5" y1="67" y2="67"/><text fill="#000000" font-family="sans-serif" font-size="14" lengthAdjust="spacing" textLength="88" x="1291.5" y="83.9951">label : string</text><text fill="#000000" font-family="sans-serif" font-size="14" lengthAdjust="spacing" textLength="223" x="1291.5" y="100.292">marker : np.ndarray(dtype=int)</text><text fill="#000000" font-family="sans-serif" font-size="14" lengthAdjust="spacing" textLength="234" x="1291.5" y="116.5889">positions : np.ndarray(dtype=int)</text><text fill="#000000" font-family="sans-serif" font-size="14" lengthAdjust="spacing" textLength="133" x="1291.5" y="132.8857">data : np.ndarray()</text><line style="stroke:#181818;stroke-width:0.5;" x1="1286.5" x2="1530.5" y1="140.1875" y2="140.1875"/></g><!--class AreaChannelData--><g id="elem_AreaChannelData"><rect codeLine="128" fill="#F1F1F1" height="64.2969" id="AreaChannelData" rx="2.5" ry="2.5" style="stroke:#181818;stroke-width:0.5;" width="206" x="1599.5" y="575"/><ellipse cx="1635.65" cy="591" fill="#ADD1B2" rx="11" ry="11" style="stroke:#181818;stroke-width:1.0;"/><path d="M1638.6344,596.6406 Q1638.0563,596.9375 1637.4156,597.0781 Q1636.775,597.2344 1636.0719,597.2344 Q1633.5563,597.2344 1632.2281,595.5938 Q1630.9156,593.9375 1630.9156,590.8125 Q1630.9156,587.6719 1632.2281,586.0313 Q1633.5563,584.375 1636.0719,584.375 Q1636.775,584.375 1637.4156,584.5313 Q1638.0719,584.6719 1638.6344,584.9688 L1638.6344,587.6875 Q1637.9938,587.1094 1637.4,586.8438 Q1636.8063,586.5781 1636.1813,586.5781 Q1634.8375,586.5781 1634.15,587.6406 Q1633.4625,588.7031 1633.4625,590.8125 Q1633.4625,592.9063 1634.15,593.9844 Q1634.8375,595.0469 1636.1813,595.0469 Q1636.8063,595.0469 1637.4,594.7813 Q1637.9938,594.5 1638.6344,593.9219 L1638.6344,596.6406 Z " fill="#000000"/><text fill="#000000" font-family="sans-serif" font-size="14" lengthAdjust="spacing" textLength="127" x="1654.35" y="595.8467">AreaChannelData</text><line style="stroke:#181818;stroke-width:0.5;" x1="1600.5" x2="1804.5" y1="607" y2="607"/><text fill="#000000" font-family="sans-serif" font-size="14" lengthAdjust="spacing" textLength="194" x="1605.5" y="623.9951">roi[] : AreaChannelROIData</text><line style="stroke:#181818;stroke-width:0.5;" x1="1600.5" x2="1804.5" y1="631.2969" y2="631.2969"/></g><g id="elem_array_area_channels_note"><path d="M1540,779 L1540,834.3984 L1865,834.3984 L1865,789 L1855,779 L1540,779 " fill="#FEFFDD" style="stroke:#181818;stroke-width:0.5;"/><path d="M1855,779 L1855,789 L1865,789 L1855,779 " fill="#FEFFDD" style="stroke:#181818;stroke-width:1.0;"/><text fill="#000000" font-family="sans-serif" font-size="13" lengthAdjust="spacing" textLength="20" x="1546" y="796.0669">For</text><text fill="#000000" font-family="monospace" font-size="13" lengthAdjust="spacing" textLength="128" x="1570" y="796.0669">ArrayChannelData</text><text fill="#000000" font-family="sans-serif" font-size="13" lengthAdjust="spacing" textLength="24" x="1702" y="796.0669">and</text><text fill="#000000" font-family="monospace" font-size="13" lengthAdjust="spacing" textLength="120" x="1730" y="796.0669">AreaChannelData</text><text fill="#000000" font-family="sans-serif" font-size="13" lengthAdjust="spacing" textLength="289" x="1546" y="811.1997">see separate diagrams, as these classes are</text><text fill="#000000" font-family="sans-serif" font-size="13" lengthAdjust="spacing" textLength="241" x="1546" y="826.3325">slightly more complex compositions.</text></g><!--reverse link Data to DataImporter--><g id="link_Data_DataImporter"><path codeLine="32" d="M1099.61,91.5 C1111.19,91.5 1110.78,91.5 1122.37,91.5 " fill="none" id="Data-backto-DataImporter" style="stroke:#181818;stroke-width:1.0;"/><polygon fill="#181818" points="1087.61,91.5,1093.61,95.5,1099.61,91.5,1093.61,87.5,1087.61,91.5" style="stroke:#181818;stroke-width:1.0;"/></g><!--reverse link Data to Metadata--><g id="link_Data_Metadata"><path codeLine="33" d="M904.9203,162.7484 C893.4703,170.4684 891.44,171.02 879.5,177 C794.99,219.3 763.96,203.73 675.5,237 C669.14,239.39 662.54,242.12 656.08,244.95 " fill="none" id="Data-backto-Metadata" style="stroke:#181818;stroke-width:1.0;"/><polygon fill="#181818" points="914.87,156.04,907.659,156.0777,904.9203,162.7484,912.1313,162.7108,914.87,156.04" style="stroke:#181818;stroke-width:1.0;"/></g><!--reverse link Data to MeasureData--><g id="link_Data_MeasureData"><path d="M992.5,174.36 C992.5,201.8 992.5,214.61 992.5,236.91 " fill="none" id="Data-backto-MeasureData" style="stroke:#181818;stroke-width:1.0;"/><polygon fill="none" points="992.5,156.36,986.5,174.36,998.5,174.36,992.5,156.36" style="stroke:#181818;stroke-width:1.0;"/></g><!--reverse link Data to MonitorData--><g id="link_Data_MonitorData"><path d="M1087.9198,166.5365 C1098.2498,173.8665 1094.15,170.58 1104.5,177 C1140.38,199.25 1182.42,220.55 1217.05,236.95 " fill="none" id="Data-backto-MonitorData" style="stroke:#181818;stroke-width:1.0;"/><polygon fill="none" points="1073.24,156.12,1084.4476,171.4298,1091.392,161.6433,1073.24,156.12" style="stroke:#181818;stroke-width:1.0;"/></g><!--reverse link MeasureData to DeviceData--><g id="link_MeasureData_DeviceData"><path d="M929.8514,310.9257 C890.6714,336.5257 851.06,362.41 815.71,385.5 " fill="none" id="MeasureData-backto-DeviceData" style="stroke:#181818;stroke-width:1.0;"/><polygon fill="none" points="944.92,301.08,926.5695,305.9029,933.1333,315.9486,944.92,301.08" style="stroke:#181818;stroke-width:1.0;"/></g><!--reverse link MeasureData to AxisData--><g id="link_MeasureData_AxisData"><path d="M968.0401,317.0522 C956.2701,339.7022 948.67,354.31 936.85,377.04 " fill="none" id="MeasureData-backto-AxisData" style="stroke:#181818;stroke-width:1.0;"/><polygon fill="none" points="976.34,301.08,962.716,314.2856,973.3642,319.8188,976.34,301.08" style="stroke:#181818;stroke-width:1.0;"/></g><!--reverse link AxisData to NonencodedAxisData--><g id="link_AxisData_NonencodedAxisData"><path d="M869.4805,452.0187 C860.5805,458.3087 865.44,453.87 855.5,458 C698.03,523.48 641.94,476.59 476.5,518 C422.06,531.63 362.72,551.87 315.1,569.5 " fill="none" id="AxisData-backto-NonencodedAxisData" style="stroke:#181818;stroke-width:1.0;"/><polygon fill="none" points="884.18,441.63,866.0176,447.1189,872.9434,456.9185,884.18,441.63" style="stroke:#181818;stroke-width:1.0;"/></g><!--reverse link MeasureData to ChannelData--><g id="link_MeasureData_ChannelData"><path d="M1017.2724,317.0038 C1030.7224,342.5238 1041.09,362.18 1053.26,385.28 " fill="none" id="MeasureData-backto-ChannelData" style="stroke:#181818;stroke-width:1.0;"/><polygon fill="none" points="1008.88,301.08,1011.9645,319.8013,1022.5804,314.2063,1008.88,301.08" style="stroke:#181818;stroke-width:1.0;"/></g><!--reverse link MeasureData to TimestampData--><g id="link_MeasureData_TimestampData"><path d="M1079.4384,308.3457 C1119.3984,325.9757 1153.76,341.13 1198.64,360.93 " fill="none" id="MeasureData-backto-TimestampData" style="stroke:#181818;stroke-width:1.0;"/><polygon fill="none" points="1062.97,301.08,1077.0165,313.8352,1081.8603,302.8562,1062.97,301.08" style="stroke:#181818;stroke-width:1.0;"/></g><!--reverse link ChannelData to SinglePointChannelData--><g id="link_ChannelData_SinglePointChannelData"><path d="M1015.3078,443.11 C1001.6178,451.53 1000.87,451.22 985.5,458 C901.77,494.96 874.07,485.53 788.5,518 C737.42,537.38 680.76,564.02 642.32,582.89 " fill="none" id="ChannelData-backto-SinglePointChannelData" style="stroke:#181818;stroke-width:1.0;"/><polygon fill="none" points="1030.64,433.68,1012.1645,437.9993,1018.4512,448.2207,1030.64,433.68" style="stroke:#181818;stroke-width:1.0;"/></g><!--reverse link SinglePointChannelData to SinglePointNormalizedChannelData--><g id="link_SinglePointChannelData_SinglePointNormalizedChannelData"><path d="M572.1181,646.2144 C551.0181,679.2844 521.54,725.49 495.75,765.92 " fill="none" id="SinglePointChannelData-backto-SinglePointNormalizedChannelData" style="stroke:#181818;stroke-width:1.0;"/><polygon fill="none" points="581.8,631.04,567.06,642.9871,577.1763,649.4417,581.8,631.04" style="stroke:#181818;stroke-width:1.0;"/></g><!--reverse link ChannelData to AverageChannelData--><g id="link_ChannelData_AverageChannelData"><path d="M1039.0841,448.4686 C1024.5241,469.4086 1012.42,486.8 990.92,517.7 " fill="none" id="ChannelData-backto-AverageChannelData" style="stroke:#181818;stroke-width:1.0;"/><polygon fill="none" points="1049.36,433.69,1034.1579,445.0433,1044.0103,451.8939,1049.36,433.69" style="stroke:#181818;stroke-width:1.0;"/></g><!--reverse link AverageChannelData to AverageNormalizedChannelData--><g id="link_AverageChannelData_AverageNormalizedChannelData"><path d="M1005.795,710.5011 C1023.935,734.8811 1031.99,745.7 1046.95,765.8 " fill="none" id="AverageChannelData-backto-AverageNormalizedChannelData" style="stroke:#181818;stroke-width:1.0;"/><polygon fill="none" points="995.05,696.06,1000.9812,714.0828,1010.6087,706.9195,995.05,696.06" style="stroke:#181818;stroke-width:1.0;"/></g><!--reverse link ChannelData to IntervalChannelData--><g id="link_ChannelData_IntervalChannelData"><path d="M1092.0801,448.4307 C1108.0301,471.1907 1122.95,492.48 1146.25,525.73 " fill="none" id="ChannelData-backto-IntervalChannelData" style="stroke:#181818;stroke-width:1.0;"/><polygon fill="none" points="1081.75,433.69,1087.1666,451.8741,1096.9937,444.9873,1081.75,433.69" style="stroke:#181818;stroke-width:1.0;"/></g><!--reverse link IntervalChannelData to IntervalNormalizedChannelData--><g id="link_IntervalChannelData_IntervalNormalizedChannelData"><path d="M1284.0326,701.623 C1307.4026,728.453 1320.62,743.64 1340.08,765.98 " fill="none" id="IntervalChannelData-backto-IntervalNormalizedChannelData" style="stroke:#181818;stroke-width:1.0;"/><polygon fill="none" points="1272.21,688.05,1279.5083,705.5639,1288.5569,697.6821,1272.21,688.05" style="stroke:#181818;stroke-width:1.0;"/></g><!--reverse link ChannelData to ArrayChannelData--><g id="link_ChannelData_ArrayChannelData"><path d="M1115.7422,443.01 C1129.4322,451.43 1130.17,451.13 1145.5,458 C1225.91,494.07 1255.62,478.69 1334.5,518 C1365.57,533.48 1397.44,556.28 1421.09,574.79 " fill="none" id="ChannelData-backto-ArrayChannelData" style="stroke:#181818;stroke-width:1.0;"/><polygon fill="none" points="1100.41,433.58,1112.5988,448.1207,1118.8855,437.8993,1100.41,433.58" style="stroke:#181818;stroke-width:1.0;"/></g><!--reverse link ChannelData to AreaChannelData--><g id="link_ChannelData_AreaChannelData"><path d="M1112.6717,443.2273 C1126.7517,452.2573 1128.73,452.14 1145.5,458 C1330.15,522.55 1400.05,444.94 1581.5,518 C1614.27,531.19 1646.37,555.21 1669.27,574.82 " fill="none" id="ChannelData-backto-AreaChannelData" style="stroke:#181818;stroke-width:1.0;"/><polygon fill="none" points="1097.52,433.51,1109.4326,448.2779,1115.9108,438.1768,1097.52,433.51" style="stroke:#181818;stroke-width:1.0;"/></g><!--link AreaChannelData to array_area_channels_note--><g id="link_AreaChannelData_array_area_channels_note"><path codeLine="138" d="M1702.5,639.29 C1702.5,677.8 1702.5,742.51 1702.5,778.79 " fill="none" id="AreaChannelData-array_area_channels_note" style="stroke:#181818;stroke-width:1.0;stroke-dasharray:7.0,7.0;"/></g><!--link ArrayChannelData to array_area_channels_note--><g id="link_ArrayChannelData_array_area_channels_note"><path codeLine="139" d="M1496.89,639.08 C1544.4,677.53 1624.5,742.37 1669.42,778.72 " fill="none" id="ArrayChannelData-array_area_channels_note" style="stroke:#181818;stroke-width:1.0;stroke-dasharray:7.0,7.0;"/></g><!--SRC=[jLTBR-Cs4BxxLmnygLCaRhT0ByRk5a63OdFeDkZsrXR2M1pPR2XI82axRh3_VOSFoR8jEodQvc9gE6z-yyXNxb7g1YtM81e9Rxx_TZ8f5Je7T-WHdYV0VpLv5E5p0J_dOwIRnakZ7PE5B7qa5PbFDtCjq5hS9RAi6sCzMRuAYk_pPxmC8hEhoUU9Dfv0KUN1L95jiIXwOzDud4BhMbHg1wNH7YLRHtXp1z4Ke1OWcLAMv1o9ABUH27vDsGgio0StEAIr4J1xsF6lXiQQXgpVNJ4hfaXAjkAYvD1XOEPAMkUp4P0LQ0edjBlv94h-P2n8BUH62dOLoZLgJGesg5fou8Xz8Iit921ccboKkjsGnHNzcBXZzaCuzvgjikY0ditSXf2FsMyjuG7D4ZXJqxOBopLKIlOAOsnz6e4aVrhuxYuc2ZW412LTV8f4MVv5fK- -pbYWH4VXKjRijOl6KSb7kffFYC_XBOTGwXEO8ELCQqkAnmID283Ctu6CUJCeh5oj_G8-XTn9N0MuLiR-eNjaraQqYZWpCUglRmvHbeatU_Zsbj2rbk8zFNbs_03upvKa9Jv3OvpieBv7zapuNKFlfFP3tusMtjYNDDPISNQ9iozUeVIEDh8yz7BWUSTr-oJTEPukxUIBXCEzyez6aowD876Ye2SawQ9YhqdiQtBmlI_WfV7Ur04QfvgZLDHO1OGzCN2s33pJUaYSraN89iMfEr33laYz2gKNod48xmXX5eYSZMBBN5Mu2dt1poFn0-kbQ4t8gY9BsdSLwQwv6sYkEcudoLJFaUmdu6_vp1cHGIDxCWJsq9NnfFTP_atMv3pMpGilr06aY5scU1bv1q9iwhKot0XxpfdllBiEbKJlWfu1_Zvn-XKz61OU2tb8UnuJ-cXipStXRn9ZucUqftpeNlJCQEaOMCa8H-_DI7iTTJ_gjBZjTB7GYWRckbGZGwrk_EKS5pMX7fc6pejJQk2T9Jc-poTCRlSr5cXhT4NduLZPdOPwg2er09w5bdnh6IP6vmBWIkIcdWTLonCKlEdamF1l7ZqVp1Q4OPxaSouSg2mxaBpw8V8zMBF4fTfTTzFNSQahaGs7wZtmBDNR3RoLx-MSvc-_aU-liudJePAZl0ojaLS_1wlZXnx1rP25WPKT6PdG_mvQfMdr_mwi4n0THNCvhsCn_tU9pGzylDzSIAgHl__9UeOYl_vo7w4_gYzV7lLSXKlUqnQS9SlE7Svhj8znUtsv2V-pbdtIieQFSRpDlIO3lSGW0R51e4jRSi7p4ejk1XQnfhgrTJezplfq6bUxS77WotIQ5mhUBody0-7xrOpdQjekkPVa3RUVqKw5JOxNzzhmc2zDtIXwYhzTreQLVXp_V7u-X1EuN6B-0W00]--></g></svg>