<?xml version="1.0" encoding="us-ascii" standalone="no"?><svg xmlns="http://www.w3.org/2000/svg" xmlns:xlink="http://www.w3.org/1999/xlink" contentStyleType="text/css" height="474px" preserveAspectRatio="none" style="width:596px;height:474px;background:#FFFFFF;" version="1.1" viewBox="0 0 596 474" width="596px" zoomAndPan="magnify"><defs/><g><!--class Plot--><g id="elem_Plot"><rect codeLine="3" fill="#F1F1F1" height="130.0313" id="Plot" rx="2.5" ry="2.5" style="stroke:#181818;stroke-width:0.5;" width="99" x="195" y="7"/><ellipse cx="228.9" cy="23" fill="#ADD1B2" rx="11" ry="11" style="stroke:#181818;stroke-width:1.0;"/><path d="M228.9469,29.2031 C230.4469,29.2031 231.6813,28.6406 232.5875,27.5781 L231.2125,26.0625 C230.6656,26.6563 230.0094,27.0469 229.2125,27.0469 C227.5406,27.0469 226.3844,25.7188 226.3844,23.4375 C226.3844,21.2188 227.5406,19.875 229.1031,19.875 C229.9156,19.875 230.5094,20.1875 231.0406,20.6719 L232.4156,19.125 C231.6656,18.3906 230.5094,17.7188 229.1031,17.7188 C226.15,17.7188 223.8219,19.8594 223.8219,23.5313 C223.8219,27.25 226.1969,29.2031 228.9469,29.2031 Z " fill="#000000"/><text fill="#000000" font-family="sans-serif" font-size="14" lengthAdjust="spacing" textLength="25" x="247.1" y="27.7852">Plot</text><line style="stroke:#181818;stroke-width:0.5;" x1="196" x2="293" y1="39" y2="39"/><text fill="#000000" font-family="sans-serif" font-size="14" lengthAdjust="spacing" textLength="80" x="201" y="55.9883">name : string</text><text fill="#000000" font-family="sans-serif" font-size="14" lengthAdjust="spacing" textLength="76" x="201" y="72.3945">xaxis : XAxis</text><text fill="#000000" font-family="sans-serif" font-size="14" lengthAdjust="spacing" textLength="78" x="201" y="88.8008">init : boolean</text><text fill="#000000" font-family="sans-serif" font-size="14" lengthAdjust="spacing" textLength="87" x="201" y="105.207">yaxes : YAxis[]</text><text fill="#000000" font-family="sans-serif" font-size="14" lengthAdjust="spacing" textLength="63" x="201" y="121.6133">id : integer</text><line style="stroke:#181818;stroke-width:0.5;" x1="196" x2="293" y1="129.0313" y2="129.0313"/></g><!--class XAxis--><g id="elem_XAxis"><rect codeLine="24" fill="#F1F1F1" height="48" id="XAxis" rx="2.5" ry="2.5" style="stroke:#181818;stroke-width:0.5;" width="67" x="211" y="238"/><ellipse cx="226" cy="254" fill="#ADD1B2" rx="11" ry="11" style="stroke:#181818;stroke-width:1.0;"/><path d="M226.0469,260.2031 C227.5469,260.2031 228.7813,259.6406 229.6875,258.5781 L228.3125,257.0625 C227.7656,257.6563 227.1094,258.0469 226.3125,258.0469 C224.6406,258.0469 223.4844,256.7188 223.4844,254.4375 C223.4844,252.2188 224.6406,250.875 226.2031,250.875 C227.0156,250.875 227.6094,251.1875 228.1406,251.6719 L229.5156,250.125 C228.7656,249.3906 227.6094,248.7188 226.2031,248.7188 C223.25,248.7188 220.9219,250.8594 220.9219,254.5313 C220.9219,258.25 223.2969,260.2031 226.0469,260.2031 Z " fill="#000000"/><text fill="#000000" font-family="sans-serif" font-size="14" lengthAdjust="spacing" textLength="35" x="240" y="258.7852">XAxis</text><line style="stroke:#181818;stroke-width:0.5;" x1="212" x2="277" y1="270" y2="270"/><line style="stroke:#181818;stroke-width:0.5;" x1="212" x2="277" y1="278" y2="278"/></g><!--class YAxis--><g id="elem_YAxis"><rect codeLine="27" fill="#F1F1F1" height="130.0313" id="YAxis" rx="2.5" ry="2.5" style="stroke:#181818;stroke-width:0.5;" width="149" x="313" y="197"/><ellipse cx="366.25" cy="213" fill="#ADD1B2" rx="11" ry="11" style="stroke:#181818;stroke-width:1.0;"/><path d="M366.2969,219.2031 C367.7969,219.2031 369.0313,218.6406 369.9375,217.5781 L368.5625,216.0625 C368.0156,216.6563 367.3594,217.0469 366.5625,217.0469 C364.8906,217.0469 363.7344,215.7188 363.7344,213.4375 C363.7344,211.2188 364.8906,209.875 366.4531,209.875 C367.2656,209.875 367.8594,210.1875 368.3906,210.6719 L369.7656,209.125 C369.0156,208.3906 367.8594,207.7188 366.4531,207.7188 C363.5,207.7188 361.1719,209.8594 361.1719,213.5313 C361.1719,217.25 363.5469,219.2031 366.2969,219.2031 Z " fill="#000000"/><text fill="#000000" font-family="sans-serif" font-size="14" lengthAdjust="spacing" textLength="34" x="386.75" y="217.7852">YAxis</text><line style="stroke:#181818;stroke-width:0.5;" x1="314" x2="461" y1="229" y2="229"/><text fill="#000000" font-family="sans-serif" font-size="14" lengthAdjust="spacing" textLength="137" x="319" y="245.9883">modifier : AxisModifier</text><text fill="#000000" font-family="sans-serif" font-size="14" lengthAdjust="spacing" textLength="123" x="319" y="262.3945">normalize_id : string</text><text fill="#000000" font-family="sans-serif" font-size="14" lengthAdjust="spacing" textLength="95" x="319" y="278.8008">linestyle : string</text><text fill="#000000" font-family="sans-serif" font-size="14" lengthAdjust="spacing" textLength="76" x="319" y="295.207">color : string</text><text fill="#000000" font-family="sans-serif" font-size="14" lengthAdjust="spacing" textLength="106" x="319" y="311.6133">markstyle : string</text><line style="stroke:#181818;stroke-width:0.5;" x1="314" x2="461" y1="319.0313" y2="319.0313"/></g><!--class ClassicScanModule--><g id="elem_ClassicScanModule"><rect fill="#F1F1F1" height="48" id="ClassicScanModule" rx="2.5" ry="2.5" style="stroke:#181818;stroke-width:0.5;" width="153" x="7" y="48"/><ellipse cx="22" cy="64" fill="#ADD1B2" rx="11" ry="11" style="stroke:#181818;stroke-width:1.0;"/><path d="M22.0469,70.2031 C23.5469,70.2031 24.7813,69.6406 25.6875,68.5781 L24.3125,67.0625 C23.7656,67.6563 23.1094,68.0469 22.3125,68.0469 C20.6406,68.0469 19.4844,66.7188 19.4844,64.4375 C19.4844,62.2188 20.6406,60.875 22.2031,60.875 C23.0156,60.875 23.6094,61.1875 24.1406,61.6719 L25.5156,60.125 C24.7656,59.3906 23.6094,58.7188 22.2031,58.7188 C19.25,58.7188 16.9219,60.8594 16.9219,64.5313 C16.9219,68.25 19.2969,70.2031 22.0469,70.2031 Z " fill="#000000"/><text fill="#000000" font-family="sans-serif" font-size="14" lengthAdjust="spacing" textLength="121" x="36" y="68.7852">ClassicScanModule</text><line style="stroke:#181818;stroke-width:0.5;" x1="8" x2="159" y1="80" y2="80"/><line style="stroke:#181818;stroke-width:0.5;" x1="8" x2="159" y1="88" y2="88"/></g><g id="elem_GMN9"><path d="M35.5,242 L35.5,282.4688 A0,0 0 0 0 35.5,282.4688 L131.5,282.4688 A0,0 0 0 0 131.5,282.4688 L131.5,252 L121.5,242 L87.5,242 L83.5,96.05 L79.5,242 L35.5,242 A0,0 0 0 0 35.5,242 " fill="#FEFFDD" style="stroke:#181818;stroke-width:0.5;"/><path d="M121.5,242 L121.5,252 L131.5,252 L121.5,242 " fill="#FEFFDD" style="stroke:#181818;stroke-width:0.5;"/><text fill="#000000" font-family="sans-serif" font-size="13" lengthAdjust="spacing" textLength="75" x="41.5" y="259.0605">See separate</text><text fill="#000000" font-family="sans-serif" font-size="13" lengthAdjust="spacing" textLength="73" x="41.5" y="274.2949">scan module</text></g><!--class PlotAxis--><g id="elem_PlotAxis"><rect codeLine="16" fill="#F1F1F1" height="80.8125" id="PlotAxis" rx="2.5" ry="2.5" style="stroke:#181818;stroke-width:0.5;" width="116" x="329.5" y="31.5"/><ellipse cx="359.35" cy="47.5" fill="#ADD1B2" rx="11" ry="11" style="stroke:#181818;stroke-width:1.0;"/><path d="M359.3969,53.7031 C360.8969,53.7031 362.1313,53.1406 363.0375,52.0781 L361.6625,50.5625 C361.1156,51.1563 360.4594,51.5469 359.6625,51.5469 C357.9906,51.5469 356.8344,50.2188 356.8344,47.9375 C356.8344,45.7188 357.9906,44.375 359.5531,44.375 C360.3656,44.375 360.9594,44.6875 361.4906,45.1719 L362.8656,43.625 C362.1156,42.8906 360.9594,42.2188 359.5531,42.2188 C356.6,42.2188 354.2719,44.3594 354.2719,48.0313 C354.2719,51.75 356.6469,53.7031 359.3969,53.7031 Z " fill="#000000"/><text fill="#000000" font-family="sans-serif" font-size="14" lengthAdjust="spacing" textLength="51" x="376.65" y="52.2852">PlotAxis</text><line style="stroke:#181818;stroke-width:0.5;" x1="330.5" x2="444.5" y1="63.5" y2="63.5"/><text fill="#000000" font-family="sans-serif" font-size="14" lengthAdjust="spacing" textLength="56" x="335.5" y="80.4883">id : string</text><text fill="#000000" font-family="sans-serif" font-size="14" lengthAdjust="spacing" textLength="104" x="335.5" y="96.8945">mode : PlotMode</text><line style="stroke:#181818;stroke-width:0.5;" x1="330.5" x2="444.5" y1="104.3125" y2="104.3125"/></g><!--class PlotMode--><g id="elem_PlotMode"><rect codeLine="41" fill="#F1F1F1" height="80.8125" id="PlotMode" rx="2.5" ry="2.5" style="stroke:#181818;stroke-width:0.5;" width="92" x="497.5" y="221.5"/><ellipse cx="512.5" cy="237.5" fill="#EB937F" rx="11" ry="11" style="stroke:#181818;stroke-width:1.0;"/><path d="M508.5625,243.5 L516.0781,243.5 L516.0781,241.3906 L511.0781,241.3906 L511.0781,238.8438 L515.1719,238.8438 L515.1719,236.75 L511.0781,236.75 L511.0781,234.5313 L515.9063,234.5313 L515.9063,232.4219 L508.5625,232.4219 L508.5625,243.5 Z " fill="#000000"/><text fill="#000000" font-family="sans-serif" font-size="14" lengthAdjust="spacing" textLength="60" x="526.5" y="242.2852">PlotMode</text><line style="stroke:#181818;stroke-width:0.5;" x1="498.5" x2="588.5" y1="253.5" y2="253.5"/><text fill="#000000" font-family="sans-serif" font-size="14" lengthAdjust="spacing" textLength="34" x="503.5" y="270.4883">linear</text><text fill="#000000" font-family="sans-serif" font-size="14" lengthAdjust="spacing" textLength="19" x="503.5" y="286.8945">log</text><line style="stroke:#181818;stroke-width:0.5;" x1="498.5" x2="588.5" y1="294.3125" y2="294.3125"/></g><!--class AxisModifier--><g id="elem_AxisModifier"><rect codeLine="36" fill="#F1F1F1" height="80.8125" id="AxisModifier" rx="2.5" ry="2.5" style="stroke:#181818;stroke-width:0.5;" width="109" x="333" y="387"/><ellipse cx="348" cy="403" fill="#EB937F" rx="11" ry="11" style="stroke:#181818;stroke-width:1.0;"/><path d="M344.0625,409 L351.5781,409 L351.5781,406.8906 L346.5781,406.8906 L346.5781,404.3438 L350.6719,404.3438 L350.6719,402.25 L346.5781,402.25 L346.5781,400.0313 L351.4063,400.0313 L351.4063,397.9219 L344.0625,397.9219 L344.0625,409 Z " fill="#000000"/><text fill="#000000" font-family="sans-serif" font-size="14" lengthAdjust="spacing" textLength="77" x="362" y="407.7852">AxisModifier</text><line style="stroke:#181818;stroke-width:0.5;" x1="334" x2="441" y1="419" y2="419"/><text fill="#000000" font-family="sans-serif" font-size="14" lengthAdjust="spacing" textLength="38" x="339" y="435.9883">NONE</text><text fill="#000000" font-family="sans-serif" font-size="14" lengthAdjust="spacing" textLength="56" x="339" y="452.3945">INVERSE</text><line style="stroke:#181818;stroke-width:0.5;" x1="334" x2="441" y1="459.8125" y2="459.8125"/></g><!--reverse link Plot to XAxis--><g id="link_Plot_XAxis"><path codeLine="10" d="M244.5,149.17 C244.5,183.85 244.5,212.57 244.5,237.58 " fill="none" id="Plot-backto-XAxis" style="stroke:#181818;stroke-width:1.0;"/><polygon fill="#181818" points="244.5,137.17,240.5,143.17,244.5,149.17,248.5,143.17,244.5,137.17" style="stroke:#181818;stroke-width:1.0;"/></g><!--reverse link Plot to YAxis--><g id="link_Plot_YAxis"><path codeLine="11" d="M300.5749,146.721 C315.2249,165.981 324.02,177.54 338.66,196.8 " fill="none" id="Plot-backto-YAxis" style="stroke:#181818;stroke-width:1.0;"/><polygon fill="#181818" points="293.31,137.17,293.7588,144.3671,300.5749,146.721,300.1261,139.5239,293.31,137.17" style="stroke:#181818;stroke-width:1.0;"/><text fill="#000000" font-family="sans-serif" font-size="13" lengthAdjust="spacing" textLength="20" x="312.2244" y="185.9201">1..2</text></g><!--reverse link ClassicScanModule to Plot--><g id="link_ClassicScanModule_Plot"><path codeLine="12" d="M172.23,72 C183.75,72 183.27,72 194.79,72 " fill="none" id="ClassicScanModule-backto-Plot" style="stroke:#181818;stroke-width:1.0;"/><polygon fill="#181818" points="160.23,72,166.23,76,172.23,72,166.23,68,160.23,72" style="stroke:#181818;stroke-width:1.0;"/><text fill="#000000" font-family="sans-serif" font-size="13" lengthAdjust="spacing" textLength="7" x="179.9748" y="67.9739">n</text></g><!--reverse link PlotAxis to XAxis--><g id="link_PlotAxis_XAxis"><path codeLine="20" d="M346.2724,127.1963 C317.4124,165.1363 285.88,206.6 262.18,237.76 " fill="none" id="PlotAxis-backto-XAxis" style="stroke:#181818;stroke-width:1.0;"/><polygon fill="none" points="357.17,112.87,341.497,123.5637,351.0478,130.8288,357.17,112.87" style="stroke:#181818;stroke-width:1.0;"/></g><!--reverse link PlotAxis to YAxis--><g id="link_PlotAxis_YAxis"><path codeLine="21" d="M387.5,130.87 C387.5,155.23 387.5,168.95 387.5,196.78 " fill="none" id="PlotAxis-backto-YAxis" style="stroke:#181818;stroke-width:1.0;"/><polygon fill="none" points="387.5,112.87,381.5,130.87,393.5,130.87,387.5,112.87" style="stroke:#181818;stroke-width:1.0;"/></g><!--reverse link PlotAxis to PlotMode--><g id="link_PlotAxis_PlotMode"><path codeLine="22" d="M428.2445,122.1033 C454.7245,154.0033 484,189.3 510.46,221.19 " fill="none" id="PlotAxis-backto-PlotMode" style="stroke:#181818;stroke-width:1.0;"/><polygon fill="#181818" points="420.58,112.87,421.3345,120.0415,428.2445,122.1033,427.4901,114.9318,420.58,112.87" style="stroke:#181818;stroke-width:1.0;"/></g><!--reverse link YAxis to AxisModifier--><g id="link_YAxis_AxisModifier"><path codeLine="34" d="M387.5,339.15 C387.5,359.19 387.5,368.71 387.5,386.58 " fill="none" id="YAxis-backto-AxisModifier" style="stroke:#181818;stroke-width:1.0;"/><polygon fill="#181818" points="387.5,327.15,383.5,333.15,387.5,339.15,391.5,333.15,387.5,327.15" style="stroke:#181818;stroke-width:1.0;"/></g><!--SRC=[PP5VIyCm5CNVyob2NmHX7VeuV17fWm-Rua1MLEJQtirW_fJa3ZgrtzqapMRRzINDB-Vcd4CkFeaQjvZF6mcQzahcbL7pIe9pirh0pe9YB6xvepJ4VnZtdmQ5VC4TMQ5taRJG2kVHvjQlaGWjo8CFOoI2ZkW0BGPH6KGlRxsiza1emXrQrh5eSZcRfOjEs-mgpw-pVfBTXJoYMbUWbwRUI_GIdkaiHcHC6qBlIsGKDrj-fbxmDI9ts805mbVj_0bNyMZODLYblZ7aeAqNX_v1vQ_4b3iEtFoEml-pSin2gTDySjqao-u8oa46xocs0gtt3NIPjlrx6Aj0YczydoQLGgEZWvmyLsMaiPDEOBycoewLfwmZJuPwhqOeXLmzh8huSxzwBfxMHQWIjSUgIHTYGPzTcc3q1m00]--></g></svg>