<?xml version="1.0" encoding="us-ascii" standalone="no"?><svg xmlns="http://www.w3.org/2000/svg" xmlns:xlink="http://www.w3.org/1999/xlink" contentStyleType="text/css" height="334px" preserveAspectRatio="none" style="width:714px;height:334px;background:#FFFFFF;" version="1.1" viewBox="0 0 714 334" width="714px" zoomAndPan="magnify"><defs/><g><!--class Plugin--><g id="elem_Plugin"><rect codeLine="4" fill="#F1F1F1" height="113.625" id="Plugin" rx="2.5" ry="2.5" style="stroke:#181818;stroke-width:0.5;" width="206" x="501.5" y="7"/><ellipse cx="580.75" cy="23" fill="#ADD1B2" rx="11" ry="11" style="stroke:#181818;stroke-width:1.0;"/><path d="M580.7969,29.2031 C582.2969,29.2031 583.5313,28.6406 584.4375,27.5781 L583.0625,26.0625 C582.5156,26.6563 581.8594,27.0469 581.0625,27.0469 C579.3906,27.0469 578.2344,25.7188 578.2344,23.4375 C578.2344,21.2188 579.3906,19.875 580.9531,19.875 C581.7656,19.875 582.3594,20.1875 582.8906,20.6719 L584.2656,19.125 C583.5156,18.3906 582.3594,17.7188 580.9531,17.7188 C578,17.7188 575.6719,19.8594 575.6719,23.5313 C575.6719,27.25 578.0469,29.2031 580.7969,29.2031 Z " fill="#000000"/><text fill="#000000" font-family="sans-serif" font-size="14" lengthAdjust="spacing" textLength="39" x="601.25" y="27.7852">Plugin</text><line style="stroke:#181818;stroke-width:0.5;" x1="502.5" x2="706.5" y1="39" y2="39"/><text fill="#000000" font-family="sans-serif" font-size="14" lengthAdjust="spacing" textLength="80" x="507.5" y="55.9883">name : string</text><text fill="#000000" font-family="sans-serif" font-size="14" lengthAdjust="spacing" textLength="95" x="507.5" y="72.3945">location : string</text><text fill="#000000" font-family="sans-serif" font-size="14" lengthAdjust="spacing" textLength="194" x="507.5" y="88.8008">parameters : PluginParameter[]</text><text fill="#000000" font-family="sans-serif" font-size="14" lengthAdjust="spacing" textLength="105" x="507.5" y="105.207">type : PluginType</text><line style="stroke:#181818;stroke-width:0.5;" x1="502.5" x2="706.5" y1="112.625" y2="112.625"/></g><!--class PluginParameter--><g id="elem_PluginParameter"><rect codeLine="37" fill="#F1F1F1" height="130.0313" id="PluginParameter" rx="2.5" ry="2.5" style="stroke:#181818;stroke-width:0.5;" width="146" x="531.5" y="189"/><ellipse cx="550.55" cy="205" fill="#ADD1B2" rx="11" ry="11" style="stroke:#181818;stroke-width:1.0;"/><path d="M550.5969,211.2031 C552.0969,211.2031 553.3313,210.6406 554.2375,209.5781 L552.8625,208.0625 C552.3156,208.6563 551.6594,209.0469 550.8625,209.0469 C549.1906,209.0469 548.0344,207.7188 548.0344,205.4375 C548.0344,203.2188 549.1906,201.875 550.7531,201.875 C551.5656,201.875 552.1594,202.1875 552.6906,202.6719 L554.0656,201.125 C553.3156,200.3906 552.1594,199.7188 550.7531,199.7188 C547.8,199.7188 545.4719,201.8594 545.4719,205.5313 C545.4719,209.25 547.8469,211.2031 550.5969,211.2031 Z " fill="#000000"/><text fill="#000000" font-family="sans-serif" font-size="14" lengthAdjust="spacing" textLength="105" x="565.45" y="209.7852">PluginParameter</text><line style="stroke:#181818;stroke-width:0.5;" x1="532.5" x2="676.5" y1="221" y2="221"/><text fill="#000000" font-family="sans-serif" font-size="14" lengthAdjust="spacing" textLength="78" x="537.5" y="237.9883">value : string</text><text fill="#000000" font-family="sans-serif" font-size="14" lengthAdjust="spacing" textLength="80" x="537.5" y="254.3945">name : string</text><text fill="#000000" font-family="sans-serif" font-size="14" lengthAdjust="spacing" textLength="134" x="537.5" y="270.8008">datatype : PluginData</text><text fill="#000000" font-family="sans-serif" font-size="14" lengthAdjust="spacing" textLength="89" x="537.5" y="287.207">default : string</text><text fill="#000000" font-family="sans-serif" font-size="14" lengthAdjust="spacing" textLength="128" x="537.5" y="303.6133">mandatory : boolean</text><line style="stroke:#181818;stroke-width:0.5;" x1="532.5" x2="676.5" y1="311.0313" y2="311.0313"/></g><!--class PluginType--><g id="elem_PluginType"><rect codeLine="14" fill="#F1F1F1" height="113.625" id="PluginType" rx="2.5" ry="2.5" style="stroke:#181818;stroke-width:0.5;" width="280" x="186.5" y="7"/><ellipse cx="287.75" cy="23" fill="#EB937F" rx="11" ry="11" style="stroke:#181818;stroke-width:1.0;"/><path d="M283.8125,29 L291.3281,29 L291.3281,26.8906 L286.3281,26.8906 L286.3281,24.3438 L290.4219,24.3438 L290.4219,22.25 L286.3281,22.25 L286.3281,20.0313 L291.1563,20.0313 L291.1563,17.9219 L283.8125,17.9219 L283.8125,29 Z " fill="#000000"/><text fill="#000000" font-family="sans-serif" font-size="14" lengthAdjust="spacing" textLength="69" x="308.25" y="27.7852">PluginType</text><line style="stroke:#181818;stroke-width:0.5;" x1="187.5" x2="465.5" y1="39" y2="39"/><text fill="#000000" font-family="sans-serif" font-size="14" lengthAdjust="spacing" textLength="114" x="192.5" y="55.9883">position = position</text><text fill="#000000" font-family="sans-serif" font-size="14" lengthAdjust="spacing" textLength="86" x="192.5" y="72.3945">save = "HDF5"</text><text fill="#000000" font-family="sans-serif" font-size="14" lengthAdjust="spacing" textLength="102" x="192.5" y="88.8008">display = display</text><text fill="#000000" font-family="sans-serif" font-size="14" lengthAdjust="spacing" textLength="268" x="192.5" y="105.207">postscanpositioning = postscanpositioning</text><line style="stroke:#181818;stroke-width:0.5;" x1="187.5" x2="465.5" y1="112.625" y2="112.625"/></g><path d="M6,21 L6,61.4688 A0,0 0 0 0 6,61.4688 L151,61.4688 A0,0 0 0 0 151,61.4688 L151,45.2344 L190.5,67.6094 L151,37.2344 L151,31 L141,21 L6,21 A0,0 0 0 0 6,21 " fill="#FEFFDD" style="stroke:#181818;stroke-width:0.5;"/><path d="M141,21 L141,31 L151,31 L141,21 " fill="#FEFFDD" style="stroke:#181818;stroke-width:0.5;"/><text fill="#000000" font-family="sans-serif" font-size="13" lengthAdjust="spacing" textLength="96" x="12" y="38.0605">There is only one</text><text fill="#000000" font-family="sans-serif" font-size="13" lengthAdjust="spacing" textLength="124" x="12" y="53.2949">save plugin left: HDF5</text><path d="M6,71.4688 L6,96.7031 A0,0 0 0 0 6,96.7031 L119,96.7031 A0,0 0 0 0 119,96.7031 L119,89.4688 L190.5,84.0156 L119,81.4688 L119,81.4688 L109,71.4688 L6,71.4688 A0,0 0 0 0 6,71.4688 " fill="#FEFFDD" style="stroke:#181818;stroke-width:0.5;"/><path d="M109,71.4688 L109,81.4688 L119,81.4688 L109,71.4688 " fill="#FEFFDD" style="stroke:#181818;stroke-width:0.5;"/><text fill="#000000" font-family="sans-serif" font-size="13" lengthAdjust="spacing" textLength="92" x="12" y="88.5293">What are these?</text><!--class PluginData--><g id="elem_PluginData"><rect codeLine="28" fill="#F1F1F1" height="146.4375" id="PluginData" rx="2.5" ry="2.5" style="stroke:#181818;stroke-width:0.5;" width="152" x="344.5" y="181"/><ellipse cx="382.45" cy="197" fill="#EB937F" rx="11" ry="11" style="stroke:#181818;stroke-width:1.0;"/><path d="M378.5125,203 L386.0281,203 L386.0281,200.8906 L381.0281,200.8906 L381.0281,198.3438 L385.1219,198.3438 L385.1219,196.25 L381.0281,196.25 L381.0281,194.0313 L385.8563,194.0313 L385.8563,191.9219 L378.5125,191.9219 L378.5125,203 Z " fill="#000000"/><text fill="#000000" font-family="sans-serif" font-size="14" lengthAdjust="spacing" textLength="69" x="401.55" y="201.7852">PluginData</text><line style="stroke:#181818;stroke-width:0.5;" x1="345.5" x2="495.5" y1="213" y2="213"/><text fill="#000000" font-family="sans-serif" font-size="14" lengthAdjust="spacing" textLength="46" x="350.5" y="229.9883">int = int</text><text fill="#000000" font-family="sans-serif" font-size="14" lengthAdjust="spacing" textLength="98" x="350.5" y="246.3945">double = double</text><text fill="#000000" font-family="sans-serif" font-size="14" lengthAdjust="spacing" textLength="86" x="350.5" y="262.8008">string = string</text><text fill="#000000" font-family="sans-serif" font-size="14" lengthAdjust="spacing" textLength="92" x="350.5" y="279.207">axis_id = axisid</text><text fill="#000000" font-family="sans-serif" font-size="14" lengthAdjust="spacing" textLength="140" x="350.5" y="295.6133">channel_id = channelid</text><text fill="#000000" font-family="sans-serif" font-size="14" lengthAdjust="spacing" textLength="120" x="350.5" y="312.0195">device_id = deviceid</text><line style="stroke:#181818;stroke-width:0.5;" x1="345.5" x2="495.5" y1="319.4375" y2="319.4375"/></g><!--reverse link Plugin to PluginParameter--><g id="link_Plugin_PluginParameter"><path codeLine="11" d="M604.5,133.15 C604.5,154.47 604.5,166.9 604.5,188.89 " fill="none" id="Plugin-backto-PluginParameter" style="stroke:#181818;stroke-width:1.0;"/><polygon fill="#181818" points="604.5,121.15,600.5,127.15,604.5,133.15,608.5,127.15,604.5,121.15" style="stroke:#181818;stroke-width:1.0;"/><text fill="#000000" font-family="sans-serif" font-size="13" lengthAdjust="spacing" textLength="7" x="597.1172" y="178.0199">n</text></g><!--reverse link PluginType to Plugin--><g id="link_PluginType_Plugin"><path codeLine="12" d="M478.59,64 C490.17,64 489.75,64 501.33,64 " fill="none" id="PluginType-backto-Plugin" style="stroke:#181818;stroke-width:1.0;"/><polygon fill="#181818" points="466.59,64,472.59,68,478.59,64,472.59,60,466.59,64" style="stroke:#181818;stroke-width:1.0;"/></g><!--reverse link PluginData to PluginParameter--><g id="link_PluginData_PluginParameter"><path codeLine="44" d="M508.69,254 C520.2,254 519.71,254 531.22,254 " fill="none" id="PluginData-backto-PluginParameter" style="stroke:#181818;stroke-width:1.0;"/><polygon fill="#181818" points="496.69,254,502.69,258,508.69,254,502.69,250,496.69,254" style="stroke:#181818;stroke-width:1.0;"/></g><!--SRC=[TL9DQyCm3BtxLvXS1eEkfrq2OvSoTkoXqCCOGqtKnk388LRAmkX_dnmx7msR3qP-ydj-alLGCJS-tsuR2yHTRPyALsyB2zvlIWEN5cgbr73MUzjT3EaVfSCYg57dsdDhw18XwmfWusW5Do0goDXwIKIH_GXzVCOxt3SuPGzoK3UbqeEFcutEA5jJrNnPhgIiKaXTlT19TXldpM3jPGe7tCCL1SlUTs_FsO2KnailUW5JDFBP5q0ZMOgBKcjKV9DZr1RFhDrvuIJFmsE3sg725hNnsf7jPSFPInDh3lHS1rTIKAc3vF-wIwF72bY3g7E57bzdzh8nEs18ZJ74KeZiiNZNdMneI0oYhU4h1LlyANmR_sLA0KDaoW4iAY126_5qIAaIhwR0c8cn96xtWpLzx3XXLx3TUiJ-cBfIYhaRdr1TIk4PEiihGWqa7DVsWf-SimWaNXQTcQPfdhLV]--></g></svg>