<?xml version="1.0" encoding="us-ascii" standalone="no"?><svg xmlns="http://www.w3.org/2000/svg" xmlns:xlink="http://www.w3.org/1999/xlink" contentStyleType="text/css" height="803px" preserveAspectRatio="none" style="width:1056px;height:803px;background:#FFFFFF;" version="1.1" viewBox="0 0 1056 803" width="1056px" zoomAndPan="magnify"><defs/><g><!--class Data--><g id="elem_Data"><rect codeLine="3" fill="#F1F1F1" height="113.625" id="Data" rx="2.5" ry="2.5" style="stroke:#181818;stroke-width:0.5;" width="164" x="506" y="35"/><ellipse cx="568.75" cy="51" fill="#ADD1B2" rx="11" ry="11" style="stroke:#181818;stroke-width:1.0;"/><path d="M568.7969,57.2031 C570.2969,57.2031 571.5313,56.6406 572.4375,55.5781 L571.0625,54.0625 C570.5156,54.6563 569.8594,55.0469 569.0625,55.0469 C567.3906,55.0469 566.2344,53.7188 566.2344,51.4375 C566.2344,49.2188 567.3906,47.875 568.9531,47.875 C569.7656,47.875 570.3594,48.1875 570.8906,48.6719 L572.2656,47.125 C571.5156,46.3906 570.3594,45.7188 568.9531,45.7188 C566,45.7188 563.6719,47.8594 563.6719,51.5313 C563.6719,55.25 566.0469,57.2031 568.7969,57.2031 Z " fill="#000000"/><text fill="#000000" font-family="sans-serif" font-size="14" lengthAdjust="spacing" textLength="30" x="589.25" y="55.7852">Data</text><line style="stroke:#181818;stroke-width:0.5;" x1="507" x2="669" y1="67" y2="67"/><text fill="#000000" font-family="sans-serif" font-size="14" lengthAdjust="spacing" textLength="131" x="512" y="83.9883">metadata : Metadata</text><text fill="#000000" font-family="sans-serif" font-size="14" lengthAdjust="spacing" textLength="113" x="512" y="100.3945">_data : np.ndarray</text><text fill="#000000" font-family="sans-serif" font-size="14" lengthAdjust="spacing" textLength="152" x="512" y="116.8008">_importer : DataImporter</text><line style="stroke:#181818;stroke-width:0.5;" x1="507" x2="669" y1="124.2188" y2="124.2188"/><text fill="#000000" font-family="sans-serif" font-size="14" lengthAdjust="spacing" textLength="39" x="512" y="141.207">data()</text></g><path d="M159.5,6 L159.5,168.3438 A0,0 0 0 0 159.5,168.3438 L470.5,168.3438 A0,0 0 0 0 470.5,168.3438 L470.5,91.1719 L510,95.6094 L470.5,83.1719 L470.5,16 L460.5,6 L159.5,6 A0,0 0 0 0 159.5,6 " fill="#FEFFDD" style="stroke:#181818;stroke-width:0.5;"/><path d="M460.5,6 L460.5,16 L470.5,16 L460.5,6 " fill="#FEFFDD" style="stroke:#181818;stroke-width:0.5;"/><text fill="#000000" font-family="sans-serif" font-size="13" lengthAdjust="spacing" textLength="290" x="165.5" y="23.0605">"_data" usually contains a 1D array and is accessed</text><text fill="#000000" font-family="sans-serif" font-size="13" lengthAdjust="spacing" textLength="281" x="165.5" y="38.2949">via the data() getter method (Python property) that</text><text fill="#000000" font-family="sans-serif" font-size="13" lengthAdjust="spacing" textLength="129" x="165.5" y="53.5293">calls the DataImporter.</text><text fill="#000000" font-family="sans-serif" font-size="13" lengthAdjust="spacing" textLength="3" x="165.5" y="68.7637">&#160;</text><text fill="#000000" font-family="sans-serif" font-size="13" lengthAdjust="spacing" textLength="278" x="165.5" y="83.998">For individual channel values see derived classes</text><text fill="#000000" font-family="sans-serif" font-size="13" lengthAdjust="spacing" textLength="264" x="165.5" y="99.2324">AverageChannelData and IntervalChannelData.</text><text fill="#000000" font-family="sans-serif" font-size="13" lengthAdjust="spacing" textLength="3" x="165.5" y="114.4668">&#160;</text><text fill="#000000" font-family="sans-serif" font-size="13" lengthAdjust="spacing" textLength="285" x="165.5" y="129.7012">ArrayChannelData and ExternalData are somewhat</text><text fill="#000000" font-family="sans-serif" font-size="13" lengthAdjust="spacing" textLength="271" x="165.5" y="144.9355">special as they contain either 2D data or a list of</text><text fill="#000000" font-family="sans-serif" font-size="13" lengthAdjust="spacing" textLength="240" x="165.5" y="160.1699">data objects (in case of images and alike).</text><!--class DataImporter--><g id="elem_DataImporter"><rect codeLine="22" fill="#F1F1F1" height="80.8125" id="DataImporter" rx="2.5" ry="2.5" style="stroke:#181818;stroke-width:0.5;" width="116" x="705" y="51.5"/><ellipse cx="720" cy="67.5" fill="#ADD1B2" rx="11" ry="11" style="stroke:#181818;stroke-width:1.0;"/><path d="M720.0469,73.7031 C721.5469,73.7031 722.7813,73.1406 723.6875,72.0781 L722.3125,70.5625 C721.7656,71.1563 721.1094,71.5469 720.3125,71.5469 C718.6406,71.5469 717.4844,70.2188 717.4844,67.9375 C717.4844,65.7188 718.6406,64.375 720.2031,64.375 C721.0156,64.375 721.6094,64.6875 722.1406,65.1719 L723.5156,63.625 C722.7656,62.8906 721.6094,62.2188 720.2031,62.2188 C717.25,62.2188 714.9219,64.3594 714.9219,68.0313 C714.9219,71.75 717.2969,73.7031 720.0469,73.7031 Z " fill="#000000"/><text fill="#000000" font-family="sans-serif" font-size="14" lengthAdjust="spacing" textLength="84" x="734" y="72.2852">DataImporter</text><line style="stroke:#181818;stroke-width:0.5;" x1="706" x2="820" y1="83.5" y2="83.5"/><text fill="#000000" font-family="sans-serif" font-size="14" lengthAdjust="spacing" textLength="42" x="711" y="100.4883">source</text><line style="stroke:#181818;stroke-width:0.5;" x1="706" x2="820" y1="107.9063" y2="107.9063"/><text fill="#000000" font-family="sans-serif" font-size="14" lengthAdjust="spacing" textLength="51" x="711" y="124.8945">import()</text></g><!--class Metadata--><g id="elem_Metadata"><rect codeLine="27" fill="#F1F1F1" height="48" id="Metadata" rx="2.5" ry="2.5" style="stroke:#181818;stroke-width:0.5;" width="93" x="308.5" y="246"/><ellipse cx="323.5" cy="262" fill="#ADD1B2" rx="11" ry="11" style="stroke:#181818;stroke-width:1.0;"/><path d="M323.5469,268.2031 C325.0469,268.2031 326.2813,267.6406 327.1875,266.5781 L325.8125,265.0625 C325.2656,265.6563 324.6094,266.0469 323.8125,266.0469 C322.1406,266.0469 320.9844,264.7188 320.9844,262.4375 C320.9844,260.2188 322.1406,258.875 323.7031,258.875 C324.5156,258.875 325.1094,259.1875 325.6406,259.6719 L327.0156,258.125 C326.2656,257.3906 325.1094,256.7188 323.7031,256.7188 C320.75,256.7188 318.4219,258.8594 318.4219,262.5313 C318.4219,266.25 320.7969,268.2031 323.5469,268.2031 Z " fill="#000000"/><text fill="#000000" font-family="sans-serif" font-size="14" lengthAdjust="spacing" textLength="61" x="337.5" y="266.7852">Metadata</text><line style="stroke:#181818;stroke-width:0.5;" x1="309.5" x2="400.5" y1="278" y2="278"/><line style="stroke:#181818;stroke-width:0.5;" x1="309.5" x2="400.5" y1="286" y2="286"/></g><g id="elem_GMN7"><path d="M249.5,366 L249.5,406.4688 A0,0 0 0 0 249.5,406.4688 L372.5,406.4688 A0,0 0 0 0 372.5,406.4688 L372.5,376 L362.5,366 L322.43,366 L346.1,294.07 L314.43,366 L249.5,366 A0,0 0 0 0 249.5,366 " fill="#FEFFDD" style="stroke:#181818;stroke-width:0.5;"/><path d="M362.5,366 L362.5,376 L372.5,376 L362.5,366 " fill="#FEFFDD" style="stroke:#181818;stroke-width:0.5;"/><text fill="#000000" font-family="sans-serif" font-size="13" lengthAdjust="spacing" textLength="90" x="255.5" y="383.0605">See diagram for</text><text fill="#000000" font-family="sans-serif" font-size="13" lengthAdjust="spacing" textLength="102" x="255.5" y="398.2949">metadata module.</text></g><!--class MeasureData--><g id="elem_MeasureData"><rect codeLine="34" fill="#F1F1F1" height="64.4063" id="MeasureData" rx="2.5" ry="2.5" style="stroke:#181818;stroke-width:0.5;" width="216" x="480" y="238"/><ellipse cx="541.75" cy="254" fill="#ADD1B2" rx="11" ry="11" style="stroke:#181818;stroke-width:1.0;"/><path d="M541.7969,260.2031 C543.2969,260.2031 544.5313,259.6406 545.4375,258.5781 L544.0625,257.0625 C543.5156,257.6563 542.8594,258.0469 542.0625,258.0469 C540.3906,258.0469 539.2344,256.7188 539.2344,254.4375 C539.2344,252.2188 540.3906,250.875 541.9531,250.875 C542.7656,250.875 543.3594,251.1875 543.8906,251.6719 L545.2656,250.125 C544.5156,249.3906 543.3594,248.7188 541.9531,248.7188 C539,248.7188 536.6719,250.8594 536.6719,254.5313 C536.6719,258.25 539.0469,260.2031 541.7969,260.2031 Z " fill="#000000"/><text fill="#000000" font-family="sans-serif" font-size="14" lengthAdjust="spacing" textLength="84" x="562.25" y="258.7852">MeasureData</text><line style="stroke:#181818;stroke-width:0.5;" x1="481" x2="695" y1="270" y2="270"/><text fill="#000000" font-family="sans-serif" font-size="14" lengthAdjust="spacing" textLength="204" x="486" y="286.9883">positions : np.ndarray(dtype=int)</text><line style="stroke:#181818;stroke-width:0.5;" x1="481" x2="695" y1="294.4063" y2="294.4063"/></g><!--class MonitorData--><g id="elem_MonitorData"><rect codeLine="38" fill="#F1F1F1" height="64.4063" id="MonitorData" rx="2.5" ry="2.5" style="stroke:#181818;stroke-width:0.5;" width="235" x="731.5" y="238"/><ellipse cx="805.25" cy="254" fill="#ADD1B2" rx="11" ry="11" style="stroke:#181818;stroke-width:1.0;"/><path d="M805.2969,260.2031 C806.7969,260.2031 808.0313,259.6406 808.9375,258.5781 L807.5625,257.0625 C807.0156,257.6563 806.3594,258.0469 805.5625,258.0469 C803.8906,258.0469 802.7344,256.7188 802.7344,254.4375 C802.7344,252.2188 803.8906,250.875 805.4531,250.875 C806.2656,250.875 806.8594,251.1875 807.3906,251.6719 L808.7656,250.125 C808.0156,249.3906 806.8594,248.7188 805.4531,248.7188 C802.5,248.7188 800.1719,250.8594 800.1719,254.5313 C800.1719,258.25 802.5469,260.2031 805.2969,260.2031 Z " fill="#000000"/><text fill="#000000" font-family="sans-serif" font-size="14" lengthAdjust="spacing" textLength="79" x="825.75" y="258.7852">MonitorData</text><line style="stroke:#181818;stroke-width:0.5;" x1="732.5" x2="965.5" y1="270" y2="270"/><text fill="#000000" font-family="sans-serif" font-size="14" lengthAdjust="spacing" textLength="223" x="737.5" y="286.9883">milliseconds : np.ndarray(dtype=int)</text><line style="stroke:#181818;stroke-width:0.5;" x1="732.5" x2="965.5" y1="294.4063" y2="294.4063"/></g><!--class AxisData--><g id="elem_AxisData"><rect codeLine="42" fill="#F1F1F1" height="48" id="AxisData" rx="2.5" ry="2.5" style="stroke:#181818;stroke-width:0.5;" width="88" x="408" y="362"/><ellipse cx="423" cy="378" fill="#ADD1B2" rx="11" ry="11" style="stroke:#181818;stroke-width:1.0;"/><path d="M423.0469,384.2031 C424.5469,384.2031 425.7813,383.6406 426.6875,382.5781 L425.3125,381.0625 C424.7656,381.6563 424.1094,382.0469 423.3125,382.0469 C421.6406,382.0469 420.4844,380.7188 420.4844,378.4375 C420.4844,376.2188 421.6406,374.875 423.2031,374.875 C424.0156,374.875 424.6094,375.1875 425.1406,375.6719 L426.5156,374.125 C425.7656,373.3906 424.6094,372.7188 423.2031,372.7188 C420.25,372.7188 417.9219,374.8594 417.9219,378.5313 C417.9219,382.25 420.2969,384.2031 423.0469,384.2031 Z " fill="#000000"/><text fill="#000000" font-family="sans-serif" font-size="14" lengthAdjust="spacing" textLength="56" x="437" y="382.7852">AxisData</text><line style="stroke:#181818;stroke-width:0.5;" x1="409" x2="495" y1="394" y2="394"/><line style="stroke:#181818;stroke-width:0.5;" x1="409" x2="495" y1="402" y2="402"/></g><!--class ChannelData--><g id="elem_ChannelData"><rect codeLine="45" fill="#F1F1F1" height="48" id="ChannelData" rx="2.5" ry="2.5" style="stroke:#181818;stroke-width:0.5;" width="113" x="531.5" y="362"/><ellipse cx="546.5" cy="378" fill="#ADD1B2" rx="11" ry="11" style="stroke:#181818;stroke-width:1.0;"/><path d="M546.5469,384.2031 C548.0469,384.2031 549.2813,383.6406 550.1875,382.5781 L548.8125,381.0625 C548.2656,381.6563 547.6094,382.0469 546.8125,382.0469 C545.1406,382.0469 543.9844,380.7188 543.9844,378.4375 C543.9844,376.2188 545.1406,374.875 546.7031,374.875 C547.5156,374.875 548.1094,375.1875 548.6406,375.6719 L550.0156,374.125 C549.2656,373.3906 548.1094,372.7188 546.7031,372.7188 C543.75,372.7188 541.4219,374.8594 541.4219,378.5313 C541.4219,382.25 543.7969,384.2031 546.5469,384.2031 Z " fill="#000000"/><text fill="#000000" font-family="sans-serif" font-size="14" lengthAdjust="spacing" textLength="81" x="560.5" y="382.7852">ChannelData</text><line style="stroke:#181818;stroke-width:0.5;" x1="532.5" x2="643.5" y1="394" y2="394"/><line style="stroke:#181818;stroke-width:0.5;" x1="532.5" x2="643.5" y1="402" y2="402"/></g><!--class ExternalData--><g id="elem_ExternalData"><rect codeLine="48" fill="#F1F1F1" height="48" id="ExternalData" rx="2.5" ry="2.5" style="stroke:#181818;stroke-width:0.5;" width="113" x="679.5" y="362"/><ellipse cx="694.5" cy="378" fill="#ADD1B2" rx="11" ry="11" style="stroke:#181818;stroke-width:1.0;"/><path d="M694.5469,384.2031 C696.0469,384.2031 697.2813,383.6406 698.1875,382.5781 L696.8125,381.0625 C696.2656,381.6563 695.6094,382.0469 694.8125,382.0469 C693.1406,382.0469 691.9844,380.7188 691.9844,378.4375 C691.9844,376.2188 693.1406,374.875 694.7031,374.875 C695.5156,374.875 696.1094,375.1875 696.6406,375.6719 L698.0156,374.125 C697.2656,373.3906 696.1094,372.7188 694.7031,372.7188 C691.75,372.7188 689.4219,374.8594 689.4219,378.5313 C689.4219,382.25 691.7969,384.2031 694.5469,384.2031 Z " fill="#000000"/><text fill="#000000" font-family="sans-serif" font-size="14" lengthAdjust="spacing" textLength="81" x="708.5" y="382.7852">ExternalData</text><line style="stroke:#181818;stroke-width:0.5;" x1="680.5" x2="791.5" y1="394" y2="394"/><line style="stroke:#181818;stroke-width:0.5;" x1="680.5" x2="791.5" y1="402" y2="402"/></g><!--class TimestampData--><g id="elem_TimestampData"><rect codeLine="50" fill="#F1F1F1" height="48" id="TimestampData" rx="2.5" ry="2.5" style="stroke:#181818;stroke-width:0.5;" width="132" x="828" y="362"/><ellipse cx="843" cy="378" fill="#ADD1B2" rx="11" ry="11" style="stroke:#181818;stroke-width:1.0;"/><path d="M843.0469,384.2031 C844.5469,384.2031 845.7813,383.6406 846.6875,382.5781 L845.3125,381.0625 C844.7656,381.6563 844.1094,382.0469 843.3125,382.0469 C841.6406,382.0469 840.4844,380.7188 840.4844,378.4375 C840.4844,376.2188 841.6406,374.875 843.2031,374.875 C844.0156,374.875 844.6094,375.1875 845.1406,375.6719 L846.5156,374.125 C845.7656,373.3906 844.6094,372.7188 843.2031,372.7188 C840.25,372.7188 837.9219,374.8594 837.9219,378.5313 C837.9219,382.25 840.2969,384.2031 843.0469,384.2031 Z " fill="#000000"/><text fill="#000000" font-family="sans-serif" font-size="14" lengthAdjust="spacing" textLength="100" x="857" y="382.7852">TimestampData</text><line style="stroke:#181818;stroke-width:0.5;" x1="829" x2="959" y1="394" y2="394"/><line style="stroke:#181818;stroke-width:0.5;" x1="829" x2="959" y1="402" y2="402"/></g><!--class StandardChannelData--><g id="elem_StandardChannelData"><rect codeLine="53" fill="#F1F1F1" height="48" id="StandardChannelData" rx="2.5" ry="2.5" style="stroke:#181818;stroke-width:0.5;" width="171" x="15.5" y="544"/><ellipse cx="30.5" cy="560" fill="#ADD1B2" rx="11" ry="11" style="stroke:#181818;stroke-width:1.0;"/><path d="M30.5469,566.2031 C32.0469,566.2031 33.2813,565.6406 34.1875,564.5781 L32.8125,563.0625 C32.2656,563.6563 31.6094,564.0469 30.8125,564.0469 C29.1406,564.0469 27.9844,562.7188 27.9844,560.4375 C27.9844,558.2188 29.1406,556.875 30.7031,556.875 C31.5156,556.875 32.1094,557.1875 32.6406,557.6719 L34.0156,556.125 C33.2656,555.3906 32.1094,554.7188 30.7031,554.7188 C27.75,554.7188 25.4219,556.8594 25.4219,560.5313 C25.4219,564.25 27.7969,566.2031 30.5469,566.2031 Z " fill="#000000"/><text fill="#000000" font-family="sans-serif" font-size="14" lengthAdjust="spacing" textLength="139" x="44.5" y="564.7852">StandardChannelData</text><line style="stroke:#181818;stroke-width:0.5;" x1="16.5" x2="185.5" y1="576" y2="576"/><line style="stroke:#181818;stroke-width:0.5;" x1="16.5" x2="185.5" y1="584" y2="584"/></g><g id="elem_GMN26"><path d="M6,726 L6,796.9375 A0,0 0 0 0 6,796.9375 L196,796.9375 A0,0 0 0 0 196,796.9375 L196,736 L186,726 L105,726 L101,592.1 L97,726 L6,726 A0,0 0 0 0 6,726 " fill="#FEFFDD" style="stroke:#181818;stroke-width:0.5;"/><path d="M186,726 L186,736 L196,736 L186,726 " fill="#FEFFDD" style="stroke:#181818;stroke-width:0.5;"/><text fill="#000000" font-family="sans-serif" font-size="13" lengthAdjust="spacing" textLength="134" x="12" y="743.0605">This type does not exist</text><text fill="#000000" font-family="sans-serif" font-size="13" lengthAdjust="spacing" textLength="152" x="12" y="758.2949">in eve-gui and SCML, but is</text><text fill="#000000" font-family="sans-serif" font-size="13" lengthAdjust="spacing" textLength="169" x="12" y="773.5293">a logical functional distinction</text><text fill="#000000" font-family="sans-serif" font-size="13" lengthAdjust="spacing" textLength="149" x="12" y="788.7637">from the AverageDetector.</text></g><!--class AverageChannelData--><g id="elem_AverageChannelData"><rect codeLine="62" fill="#F1F1F1" height="195.6563" id="AverageChannelData" rx="2.5" ry="2.5" style="stroke:#181818;stroke-width:0.5;" width="230" x="222" y="470"/><ellipse cx="266.75" cy="486" fill="#ADD1B2" rx="11" ry="11" style="stroke:#181818;stroke-width:1.0;"/><path d="M266.7969,492.2031 C268.2969,492.2031 269.5313,491.6406 270.4375,490.5781 L269.0625,489.0625 C268.5156,489.6563 267.8594,490.0469 267.0625,490.0469 C265.3906,490.0469 264.2344,488.7188 264.2344,486.4375 C264.2344,484.2188 265.3906,482.875 266.9531,482.875 C267.7656,482.875 268.3594,483.1875 268.8906,483.6719 L270.2656,482.125 C269.5156,481.3906 268.3594,480.7188 266.9531,480.7188 C264,480.7188 261.6719,482.8594 261.6719,486.5313 C261.6719,490.25 264.0469,492.2031 266.7969,492.2031 Z " fill="#000000"/><text fill="#000000" font-family="sans-serif" font-size="14" lengthAdjust="spacing" textLength="132" x="287.25" y="490.7852">AverageChannelData</text><line style="stroke:#181818;stroke-width:0.5;" x1="223" x2="451" y1="502" y2="502"/><text fill="#000000" font-family="sans-serif" font-size="14" lengthAdjust="spacing" textLength="145" x="228" y="518.9883">raw_data : raggedarray</text><text fill="#000000" font-family="sans-serif" font-size="14" lengthAdjust="spacing" textLength="204" x="228" y="535.3945">attempts : np.ndarray(dtype=int)</text><text fill="#000000" font-family="sans-serif" font-size="14" lengthAdjust="spacing" textLength="218" x="228" y="551.8008">n_averages : np.ndarray(dtype=int)</text><text fill="#000000" font-family="sans-serif" font-size="14" lengthAdjust="spacing" textLength="119" x="228" y="568.207">_mean : np.ndarray</text><text fill="#000000" font-family="sans-serif" font-size="14" lengthAdjust="spacing" textLength="104" x="228" y="584.6133">_std : np.ndarray</text><line style="stroke:#181818;stroke-width:0.5;" x1="223" x2="451" y1="592.0313" y2="592.0313"/><text fill="#000000" font-family="sans-serif" font-size="14" lengthAdjust="spacing" textLength="45" x="228" y="609.0195">mean()</text><text fill="#000000" font-family="sans-serif" font-size="14" lengthAdjust="spacing" textLength="30" x="228" y="625.4258">std()</text><text fill="#000000" font-family="sans-serif" font-size="14" lengthAdjust="spacing" textLength="103" x="228" y="641.832">averaged_data()</text><text fill="#000000" font-family="sans-serif" font-size="14" lengthAdjust="spacing" textLength="98" x="228" y="658.2383">has_raw_data()</text></g><g id="elem_GMN31"><path d="M245,741.5 L245,781.9688 A0,0 0 0 0 245,781.9688 L401,781.9688 A0,0 0 0 0 401,781.9688 L401,751.5 L391,741.5 L328.39,741.5 L329.9,666.15 L320.39,741.5 L245,741.5 A0,0 0 0 0 245,741.5 " fill="#FEFFDD" style="stroke:#181818;stroke-width:0.5;"/><path d="M391,741.5 L391,751.5 L401,751.5 L391,741.5 " fill="#FEFFDD" style="stroke:#181818;stroke-width:0.5;"/><text fill="#000000" font-family="sans-serif" font-size="13" lengthAdjust="spacing" textLength="135" x="251" y="758.5605">How does mean() differ</text><text fill="#000000" font-family="sans-serif" font-size="13" lengthAdjust="spacing" textLength="116" x="251" y="773.7949">from values in Data?</text></g><g id="elem_GMN34"><path d="M436.5,741.5 L436.5,781.9688 A0,0 0 0 0 436.5,781.9688 L649.5,781.9688 A0,0 0 0 0 649.5,781.9688 L649.5,751.5 L639.5,741.5 L526.49,741.5 L441.51,666.15 L518.49,741.5 L436.5,741.5 A0,0 0 0 0 436.5,741.5 " fill="#FEFFDD" style="stroke:#181818;stroke-width:0.5;"/><path d="M639.5,741.5 L639.5,751.5 L649.5,751.5 L639.5,741.5 " fill="#FEFFDD" style="stroke:#181818;stroke-width:0.5;"/><text fill="#000000" font-family="sans-serif" font-size="13" lengthAdjust="spacing" textLength="173" x="442.5" y="758.5605">averaged_values() returns only</text><text fill="#000000" font-family="sans-serif" font-size="13" lengthAdjust="spacing" textLength="192" x="442.5" y="773.7949">those values used to average over</text></g><!--class IntervalChannelData--><g id="elem_IntervalChannelData"><rect codeLine="76" fill="#F1F1F1" height="162.8438" id="IntervalChannelData" rx="2.5" ry="2.5" style="stroke:#181818;stroke-width:0.5;" width="202" x="487" y="486.5"/><ellipse cx="520.9" cy="502.5" fill="#ADD1B2" rx="11" ry="11" style="stroke:#181818;stroke-width:1.0;"/><path d="M520.9469,508.7031 C522.4469,508.7031 523.6813,508.1406 524.5875,507.0781 L523.2125,505.5625 C522.6656,506.1563 522.0094,506.5469 521.2125,506.5469 C519.5406,506.5469 518.3844,505.2188 518.3844,502.9375 C518.3844,500.7188 519.5406,499.375 521.1031,499.375 C521.9156,499.375 522.5094,499.6875 523.0406,500.1719 L524.4156,498.625 C523.6656,497.8906 522.5094,497.2188 521.1031,497.2188 C518.15,497.2188 515.8219,499.3594 515.8219,503.0313 C515.8219,506.75 518.1969,508.7031 520.9469,508.7031 Z " fill="#000000"/><text fill="#000000" font-family="sans-serif" font-size="14" lengthAdjust="spacing" textLength="128" x="539.1" y="507.2852">IntervalChannelData</text><line style="stroke:#181818;stroke-width:0.5;" x1="488" x2="688" y1="518.5" y2="518.5"/><text fill="#000000" font-family="sans-serif" font-size="14" lengthAdjust="spacing" textLength="145" x="493" y="535.4883">raw_data : raggedarray</text><text fill="#000000" font-family="sans-serif" font-size="14" lengthAdjust="spacing" textLength="190" x="493" y="551.8945">counts : np.ndarray(dtype=int)</text><text fill="#000000" font-family="sans-serif" font-size="14" lengthAdjust="spacing" textLength="119" x="493" y="568.3008">_mean : np.ndarray</text><text fill="#000000" font-family="sans-serif" font-size="14" lengthAdjust="spacing" textLength="104" x="493" y="584.707">_std : np.ndarray</text><line style="stroke:#181818;stroke-width:0.5;" x1="488" x2="688" y1="592.125" y2="592.125"/><text fill="#000000" font-family="sans-serif" font-size="14" lengthAdjust="spacing" textLength="45" x="493" y="609.1133">mean()</text><text fill="#000000" font-family="sans-serif" font-size="14" lengthAdjust="spacing" textLength="30" x="493" y="625.5195">std()</text><text fill="#000000" font-family="sans-serif" font-size="14" lengthAdjust="spacing" textLength="98" x="493" y="641.9258">has_raw_data()</text></g><!--class ArrayChannelData--><g id="elem_ArrayChannelData"><rect codeLine="86" fill="#F1F1F1" height="48" id="ArrayChannelData" rx="2.5" ry="2.5" style="stroke:#181818;stroke-width:0.5;" width="147" x="724.5" y="544"/><ellipse cx="739.5" cy="560" fill="#ADD1B2" rx="11" ry="11" style="stroke:#181818;stroke-width:1.0;"/><path d="M739.5469,566.2031 C741.0469,566.2031 742.2813,565.6406 743.1875,564.5781 L741.8125,563.0625 C741.2656,563.6563 740.6094,564.0469 739.8125,564.0469 C738.1406,564.0469 736.9844,562.7188 736.9844,560.4375 C736.9844,558.2188 738.1406,556.875 739.7031,556.875 C740.5156,556.875 741.1094,557.1875 741.6406,557.6719 L743.0156,556.125 C742.2656,555.3906 741.1094,554.7188 739.7031,554.7188 C736.75,554.7188 734.4219,556.8594 734.4219,560.5313 C734.4219,564.25 736.7969,566.2031 739.5469,566.2031 Z " fill="#000000"/><text fill="#000000" font-family="sans-serif" font-size="14" lengthAdjust="spacing" textLength="115" x="753.5" y="564.7852">ArrayChannelData</text><line style="stroke:#181818;stroke-width:0.5;" x1="725.5" x2="870.5" y1="576" y2="576"/><line style="stroke:#181818;stroke-width:0.5;" x1="725.5" x2="870.5" y1="584" y2="584"/></g><!--class AreaChannelData--><g id="elem_AreaChannelData"><rect codeLine="89" fill="#F1F1F1" height="48" id="AreaChannelData" rx="2.5" ry="2.5" style="stroke:#181818;stroke-width:0.5;" width="142" x="907" y="544"/><ellipse cx="922" cy="560" fill="#ADD1B2" rx="11" ry="11" style="stroke:#181818;stroke-width:1.0;"/><path d="M922.0469,566.2031 C923.5469,566.2031 924.7813,565.6406 925.6875,564.5781 L924.3125,563.0625 C923.7656,563.6563 923.1094,564.0469 922.3125,564.0469 C920.6406,564.0469 919.4844,562.7188 919.4844,560.4375 C919.4844,558.2188 920.6406,556.875 922.2031,556.875 C923.0156,556.875 923.6094,557.1875 924.1406,557.6719 L925.5156,556.125 C924.7656,555.3906 923.6094,554.7188 922.2031,554.7188 C919.25,554.7188 916.9219,556.8594 916.9219,560.5313 C916.9219,564.25 919.2969,566.2031 922.0469,566.2031 Z " fill="#000000"/><text fill="#000000" font-family="sans-serif" font-size="14" lengthAdjust="spacing" textLength="110" x="936" y="564.7852">AreaChannelData</text><line style="stroke:#181818;stroke-width:0.5;" x1="908" x2="1048" y1="576" y2="576"/><line style="stroke:#181818;stroke-width:0.5;" x1="908" x2="1048" y1="584" y2="584"/></g><!--reverse link Data to DataImporter--><g id="link_Data_DataImporter"><path codeLine="31" d="M682.03,92 C693.65,92 693.27,92 704.89,92 " fill="none" id="Data-backto-DataImporter" style="stroke:#181818;stroke-width:1.0;"/><polygon fill="#181818" points="670.03,92,676.03,96,682.03,92,676.03,88,670.03,92" style="stroke:#181818;stroke-width:1.0;"/></g><!--reverse link Data to Metadata--><g id="link_Data_Metadata"><path codeLine="32" d="M514.781,156.7937 C502.991,166.6437 499.86,168.94 488,178 C456.09,202.37 418.17,228.01 390.99,245.84 " fill="none" id="Data-backto-Metadata" style="stroke:#181818;stroke-width:1.0;"/><polygon fill="#181818" points="523.99,149.1,516.8209,149.8772,514.781,156.7937,521.9501,156.0165,523.99,149.1" style="stroke:#181818;stroke-width:1.0;"/></g><!--reverse link Data to MeasureData--><g id="link_Data_MeasureData"><path d="M588,167.17 C588,196.55 588,213.39 588,237.91 " fill="none" id="Data-backto-MeasureData" style="stroke:#181818;stroke-width:1.0;"/><polygon fill="none" points="588,149.17,582,167.17,594,167.17,588,149.17" style="stroke:#181818;stroke-width:1.0;"/></g><!--reverse link Data to MonitorData--><g id="link_Data_MonitorData"><path d="M664.1783,160.5327 C676.3583,170.5927 675.39,169.2 688,178 C719.59,200.06 756.94,221.43 787.71,237.91 " fill="none" id="Data-backto-MonitorData" style="stroke:#181818;stroke-width:1.0;"/><polygon fill="none" points="650.3,149.07,660.3574,165.1588,667.9992,155.9066,650.3,149.07" style="stroke:#181818;stroke-width:1.0;"/></g><!--reverse link MeasureData to AxisData--><g id="link_MeasureData_AxisData"><path d="M537.0452,313.7131 C514.5452,332.5731 500.14,344.65 479.62,361.84 " fill="none" id="MeasureData-backto-AxisData" style="stroke:#181818;stroke-width:1.0;"/><polygon fill="none" points="550.84,302.15,533.1909,309.1148,540.8996,318.3113,550.84,302.15" style="stroke:#181818;stroke-width:1.0;"/></g><!--reverse link MeasureData to ChannelData--><g id="link_MeasureData_ChannelData"><path d="M588,320.15 C588,339.01 588,344.65 588,361.84 " fill="none" id="MeasureData-backto-ChannelData" style="stroke:#181818;stroke-width:1.0;"/><polygon fill="none" points="588,302.15,582,320.15,594,320.15,588,302.15" style="stroke:#181818;stroke-width:1.0;"/></g><!--reverse link MeasureData to ExternalData--><g id="link_MeasureData_ExternalData"><path d="M642.699,313.1355 C667.179,331.9955 683.61,344.65 705.94,361.84 " fill="none" id="MeasureData-backto-ExternalData" style="stroke:#181818;stroke-width:1.0;"/><polygon fill="none" points="628.44,302.15,639.0372,317.8885,646.3608,308.3825,628.44,302.15" style="stroke:#181818;stroke-width:1.0;"/></g><!--reverse link MeasureData to TimestampData--><g id="link_MeasureData_TimestampData"><path d="M688.0777,308.2834 C738.8677,327.2034 785.86,344.71 832.17,361.96 " fill="none" id="MeasureData-backto-TimestampData" style="stroke:#181818;stroke-width:1.0;"/><polygon fill="none" points="671.21,302,685.9832,313.906,690.1722,302.6609,671.21,302" style="stroke:#181818;stroke-width:1.0;"/></g><!--reverse link ChannelData to StandardChannelData--><g id="link_ChannelData_StandardChannelData"><path d="M513.9071,410.3008 C378.2371,444.4508 329.65,406.49 205,470 C169.8,487.93 137.98,521.34 119.06,543.87 " fill="none" id="ChannelData-backto-StandardChannelData" style="stroke:#181818;stroke-width:1.0;"/><polygon fill="none" points="531.21,405.34,512.2535,404.5331,515.5607,416.0684,531.21,405.34" style="stroke:#181818;stroke-width:1.0;"/></g><!--reverse link ChannelData to AverageChannelData--><g id="link_ChannelData_AverageChannelData"><path d="M540.0759,420.411 C516.3659,436.981 498.51,449.58 470,470 C464.19,474.16 458.25,478.43 452.25,482.76 " fill="none" id="ChannelData-backto-AverageChannelData" style="stroke:#181818;stroke-width:1.0;"/><polygon fill="none" points="554.83,410.1,536.6389,415.493,543.513,425.3291,554.83,410.1" style="stroke:#181818;stroke-width:1.0;"/></g><!--reverse link ChannelData to IntervalChannelData--><g id="link_ChannelData_IntervalChannelData"><path d="M588,428.16 C588,447.63 588,458.65 588,486.45 " fill="none" id="ChannelData-backto-IntervalChannelData" style="stroke:#181818;stroke-width:1.0;"/><polygon fill="none" points="588,410.16,582,428.16,594,428.16,588,410.16" style="stroke:#181818;stroke-width:1.0;"/></g><!--reverse link ChannelData to ArrayChannelData--><g id="link_ChannelData_ArrayChannelData"><path d="M640.2222,419.804 C664.4622,435.524 681.19,447.67 707,470 C733.72,493.11 761.01,523.25 778.64,543.75 " fill="none" id="ChannelData-backto-ArrayChannelData" style="stroke:#181818;stroke-width:1.0;"/><polygon fill="none" points="625.12,410.01,636.9576,424.8381,643.4869,414.7699,625.12,410.01" style="stroke:#181818;stroke-width:1.0;"/></g><!--reverse link ChannelData to AreaChannelData--><g id="link_ChannelData_AreaChannelData"><path d="M662.1235,410.1469 C762.4135,438.9769 799.68,416.04 889,470 C920.1,488.79 946.9,521.66 962.75,543.87 " fill="none" id="ChannelData-backto-AreaChannelData" style="stroke:#181818;stroke-width:1.0;"/><polygon fill="none" points="644.89,404.95,660.3912,415.8914,663.8558,404.4024,644.89,404.95" style="stroke:#181818;stroke-width:1.0;"/></g><!--SRC=[jLHDQnin4BtlhnXogLDgqnHwCOGIufO66YWanu2Ph6RjQNQbHT8wCI7_lIEjrfQJRHCezSNQqPiFlNapxzmTwnOjDg1QXfFF7ukYhD4vMA17U2n0VWrvLE5p3fVf6EtBPDJjJ2kq5hUzcPlMM4zMhaAKY_GPBuFBvBXuAhJn13LL7amLOVFvSXVvA1wFe7CTrlKMIgCzidQ0SBA0c0fGAs2nb2KvHohwRHZ1hobbWHNvK8RKlpOA9Z-tyg-XjQObwxV70aKV_Kh9ug9dNl2iY9VVZ0NMYZUif1eerwWrrR31kYC7ZYGTMTwGWiWSkUXrjY6BAphlqP7DKF65bi3YcjbJchFmgkVmhmy2rvWCbi2PXkw7ibrB9Kj966lVqGJ4ycdXqo8I0L8_GiqkKBrh0fZRNrHw1nDnAD5Hw0CtKhABcR7cEpgU5IJdqAjS5mD1IH_ETBQaUEnR7nkSy8DY19kQVckyDyqShW9pZAiWlihO6xtJMMDKLvFm4f_zVdeeesISxiMuIuMkinJlIOZJwa36ZnLJhPwWDOuz6r5JBjs9yjkMJbdxl7YZsHlxMiI6Qw6NX7xrXg1d3-mE8kPrF-vnkHPUWHx8P1IxWrvpGyvZqxubxfN7y18rLafk2-6ptWOfZRX6pgxNChI15L16f2PU4b6qsSj7jBkXwQhZgC6hyyiV7-2sypBeyLvaR5OiqmfLfylGH3agyUR-Au8gAnM4MKuZk20lGZSsQZcNyiY8ZZukHhLuF-mxSLfHjl066Q1icwRrVvP03jPBxDF_7Rvi2FN8ZdLUlRG6xAJta_jqIcdKCgtUO5kZMmuFsc_ZOJ2_c_k-ENqy8RYgIEOp4flMddGgaFFbUTjVSZhVLz3xIaHBlhCoW4RNsnijMrdMJmhSoIu7RmOdCF8_D6naUVvRnqhJQV-_6_22x45-pnV- -5CoFE5RuBy1]--></g></svg>