<?xml version="1.0" encoding="us-ascii" standalone="no"?><svg xmlns="http://www.w3.org/2000/svg" xmlns:xlink="http://www.w3.org/1999/xlink" contentStyleType="text/css" height="464.4px" preserveAspectRatio="none" style="width:621px;height:464px;background:#FFFFFF;" version="1.1" viewBox="0 0 621 464" width="621.6px" zoomAndPan="magnify"><defs/><g><!--class Metadata--><g id="elem_Metadata"><rect codeLine="2" fill="#F1F1F1" height="48.4875" id="Metadata" rx="1.5" ry="1.5" style="stroke:#181818;stroke-width:0.3;" width="67.2" x="89.1" y="14.1"/><ellipse cx="103.23" cy="23.7" fill="#ADD1B2" rx="6.6" ry="6.6" style="stroke:#181818;stroke-width:0.6;"/><path d="M103.2581,27.4219 C104.1581,27.4219 104.8988,27.0844 105.4425,26.4469 L104.6175,25.5375 C104.2894,25.8938 103.8956,26.1281 103.4175,26.1281 C102.4144,26.1281 101.7206,25.3313 101.7206,23.9625 C101.7206,22.6312 102.4144,21.825 103.3519,21.825 C103.8394,21.825 104.1956,22.0125 104.5144,22.3031 L105.3394,21.375 C104.8894,20.9344 104.1956,20.5313 103.3519,20.5313 C101.58,20.5313 100.1831,21.8156 100.1831,24.0188 C100.1831,26.25 101.6081,27.4219 103.2581,27.4219 Z " fill="#000000"/><text fill="#000000" font-family="sans-serif" font-size="8.4" lengthAdjust="spacing" textLength="36.6" x="112.77" y="26.5711">Metadata</text><line style="stroke:#181818;stroke-width:0.3;" x1="89.7" x2="155.7" y1="33.3" y2="33.3"/><text fill="#000000" font-family="sans-serif" font-size="8.4" lengthAdjust="spacing" textLength="48" x="92.7" y="43.493">name : string</text><text fill="#000000" font-family="sans-serif" font-size="8.4" lengthAdjust="spacing" textLength="60" x="92.7" y="53.3367">section : Section</text><line style="stroke:#181818;stroke-width:0.3;" x1="89.7" x2="155.7" y1="57.7875" y2="57.7875"/></g><!--class Data--><g id="elem_Data"><rect codeLine="7" fill="#F1F1F1" height="28.8" id="Data" rx="1.5" ry="1.5" style="stroke:#181818;stroke-width:0.3;" width="37.2" x="29.7" y="24"/><ellipse cx="38.7" cy="33.6" fill="#ADD1B2" rx="6.6" ry="6.6" style="stroke:#181818;stroke-width:0.6;"/><path d="M38.7281,37.3219 C39.6281,37.3219 40.3688,36.9844 40.9125,36.3469 L40.0875,35.4375 C39.7594,35.7937 39.3656,36.0281 38.8875,36.0281 C37.8844,36.0281 37.1906,35.2312 37.1906,33.8625 C37.1906,32.5313 37.8844,31.725 38.8219,31.725 C39.3094,31.725 39.6656,31.9125 39.9844,32.2031 L40.8094,31.275 C40.3594,30.8344 39.6656,30.4313 38.8219,30.4313 C37.05,30.4313 35.6531,31.7156 35.6531,33.9187 C35.6531,36.15 37.0781,37.3219 38.7281,37.3219 Z " fill="#000000"/><text fill="#000000" font-family="sans-serif" font-size="8.4" lengthAdjust="spacing" textLength="18" x="47.1" y="36.4711">Data</text><line style="stroke:#181818;stroke-width:0.3;" x1="30.3" x2="66.3" y1="43.2" y2="43.2"/><line style="stroke:#181818;stroke-width:0.3;" x1="30.3" x2="66.3" y1="48" y2="48"/></g><g id="elem_GMN4"><path d="M3.6,125.7 L3.6,149.9813 A0,0 0 0 0 3.6,149.9813 L90.6,149.9813 A0,0 0 0 0 90.6,149.9813 L90.6,131.7 L84.6,125.7 L49.644,125.7 L48.132,52.848 L44.844,125.7 L3.6,125.7 A0,0 0 0 0 3.6,125.7 " fill="#FEFFDD" style="stroke:#181818;stroke-width:0.3;"/><path d="M84.6,125.7 L84.6,131.7 L90.6,131.7 L84.6,125.7 " fill="#FEFFDD" style="stroke:#181818;stroke-width:0.3;"/><text fill="#000000" font-family="sans-serif" font-size="7.8" lengthAdjust="spacing" textLength="74.4" x="7.2" y="135.9363">See separate diagram</text><text fill="#000000" font-family="sans-serif" font-size="7.8" lengthAdjust="spacing" textLength="63" x="7.2" y="145.077">for class hierarchy</text></g><!--class Section--><g id="elem_Section"><rect codeLine="11" fill="#F1F1F1" height="68.175" id="Section" rx="1.5" ry="1.5" style="stroke:#181818;stroke-width:0.3;" width="50.4" x="261.9" y="4.2"/><ellipse cx="272.52" cy="13.8" fill="#EB937F" rx="6.6" ry="6.6" style="stroke:#181818;stroke-width:0.6;"/><path d="M270.1575,17.4 L274.6669,17.4 L274.6669,16.1344 L271.6669,16.1344 L271.6669,14.6063 L274.1231,14.6063 L274.1231,13.35 L271.6669,13.35 L271.6669,12.0187 L274.5637,12.0187 L274.5637,10.7531 L270.1575,10.7531 L270.1575,17.4 Z " fill="#000000"/><text fill="#000000" font-family="sans-serif" font-size="8.4" lengthAdjust="spacing" textLength="27.6" x="281.28" y="16.6711">Section</text><line style="stroke:#181818;stroke-width:0.3;" x1="262.5" x2="311.7" y1="23.4" y2="23.4"/><text fill="#000000" font-family="sans-serif" font-size="8.4" lengthAdjust="spacing" textLength="42.6" x="265.5" y="33.593">STANDARD</text><text fill="#000000" font-family="sans-serif" font-size="8.4" lengthAdjust="spacing" textLength="43.2" x="265.5" y="43.4367">SNAPSHOT</text><text fill="#000000" font-family="sans-serif" font-size="8.4" lengthAdjust="spacing" textLength="37.8" x="265.5" y="53.2805">MONITOR</text><text fill="#000000" font-family="sans-serif" font-size="8.4" lengthAdjust="spacing" textLength="22.2" x="265.5" y="63.1242">META</text><line style="stroke:#181818;stroke-width:0.3;" x1="262.5" x2="311.7" y1="67.575" y2="67.575"/></g><!--class Transport--><g id="elem_Transport"><rect codeLine="18" fill="#F1F1F1" height="48.4875" id="Transport" rx="1.5" ry="1.5" style="stroke:#181818;stroke-width:0.3;" width="56.4" x="420.9" y="14.1"/><ellipse cx="429.9" cy="23.7" fill="#EB937F" rx="6.6" ry="6.6" style="stroke:#181818;stroke-width:0.6;"/><path d="M427.5375,27.3 L432.0469,27.3 L432.0469,26.0344 L429.0469,26.0344 L429.0469,24.5062 L431.5031,24.5062 L431.5031,23.25 L429.0469,23.25 L429.0469,21.9188 L431.9437,21.9188 L431.9437,20.6531 L427.5375,20.6531 L427.5375,27.3 Z " fill="#000000"/><text fill="#000000" font-family="sans-serif" font-size="8.4" lengthAdjust="spacing" textLength="37.2" x="438.3" y="26.5711">Transport</text><line style="stroke:#181818;stroke-width:0.3;" x1="421.5" x2="476.7" y1="33.3" y2="33.3"/><text fill="#000000" font-family="sans-serif" font-size="8.4" lengthAdjust="spacing" textLength="10.8" x="424.5" y="43.493">CA</text><text fill="#000000" font-family="sans-serif" font-size="8.4" lengthAdjust="spacing" textLength="26.4" x="424.5" y="53.3367">LOCAL</text><line style="stroke:#181818;stroke-width:0.3;" x1="421.5" x2="476.7" y1="57.7875" y2="57.7875"/></g><g id="elem_GMN9"><path d="M407.4,120.9 L407.4,154.3219 A0,0 0 0 0 407.4,154.3219 L490.8,154.3219 A0,0 0 0 0 490.8,154.3219 L490.8,126.9 L484.8,120.9 L451.5,120.9 L449.1,62.748 L446.7,120.9 L407.4,120.9 A0,0 0 0 0 407.4,120.9 " fill="#FEFFDD" style="stroke:#181818;stroke-width:0.3;"/><path d="M484.8,120.9 L484.8,126.9 L490.8,126.9 L484.8,120.9 " fill="#FEFFDD" style="stroke:#181818;stroke-width:0.3;"/><text fill="#000000" font-family="sans-serif" font-size="7.8" lengthAdjust="spacing" textLength="70.8" x="411" y="131.1363">This is defined in the</text><text fill="#000000" font-family="sans-serif" font-size="7.8" lengthAdjust="spacing" textLength="64.8" x="411" y="140.277">scml.setup module</text><text fill="#000000" font-family="sans-serif" font-size="7.8" lengthAdjust="spacing" textLength="67.8" x="411" y="149.4176">as well. Generalise?</text></g><!--class DeviceMetadata--><g id="elem_DeviceMetadata"><rect codeLine="24" fill="#F1F1F1" height="58.3313" id="DeviceMetadata" rx="1.5" ry="1.5" style="stroke:#181818;stroke-width:0.3;" width="105" x="172.2" y="108.6"/><ellipse cx="193.89" cy="118.2" fill="#B4A7E5" rx="6.6" ry="6.6" style="stroke:#181818;stroke-width:0.6;"/><path d="M191.6494,121.8 L196.2525,121.8 L196.2525,120.5344 L194.7056,120.5344 L194.7056,116.4187 L196.2525,116.4187 L196.2525,115.1531 L191.6494,115.1531 L191.6494,116.4187 L193.1963,116.4187 L193.1963,120.5344 L191.6494,120.5344 L191.6494,121.8 Z " fill="#000000"/><text fill="#000000" font-family="sans-serif" font-size="8.4" font-style="italic" lengthAdjust="spacing" textLength="57.6" x="205.11" y="121.0711">DeviceMetadata</text><line style="stroke:#181818;stroke-width:0.3;" x1="172.8" x2="276.6" y1="127.8" y2="127.8"/><text fill="#000000" font-family="sans-serif" font-size="8.4" lengthAdjust="spacing" textLength="33.6" x="175.8" y="137.993">id : string</text><text fill="#000000" font-family="sans-serif" font-size="8.4" lengthAdjust="spacing" textLength="36" x="175.8" y="147.8367">pv : string</text><text fill="#000000" font-family="sans-serif" font-size="8.4" lengthAdjust="spacing" textLength="97.8" x="175.8" y="157.6805">transport_type : Transport</text><line style="stroke:#181818;stroke-width:0.3;" x1="172.8" x2="276.6" y1="162.1313" y2="162.1313"/></g><!--class MeasureMetadata--><g id="elem_MeasureMetadata"><rect codeLine="30" fill="#F1F1F1" height="38.6438" id="MeasureMetadata" rx="1.5" ry="1.5" style="stroke:#181818;stroke-width:0.3;" width="88.2" x="298.2" y="118.5"/><ellipse cx="307.2" cy="128.1" fill="#ADD1B2" rx="6.6" ry="6.6" style="stroke:#181818;stroke-width:0.6;"/><path d="M307.2281,131.8219 C308.1281,131.8219 308.8688,131.4844 309.4125,130.8469 L308.5875,129.9375 C308.2594,130.2938 307.8656,130.5281 307.3875,130.5281 C306.3844,130.5281 305.6906,129.7313 305.6906,128.3625 C305.6906,127.0313 306.3844,126.225 307.3219,126.225 C307.8094,126.225 308.1656,126.4125 308.4844,126.7031 L309.3094,125.775 C308.8594,125.3344 308.1656,124.9312 307.3219,124.9312 C305.55,124.9312 304.1531,126.2156 304.1531,128.4188 C304.1531,130.65 305.5781,131.8219 307.2281,131.8219 Z " fill="#000000"/><text fill="#000000" font-family="sans-serif" font-size="8.4" lengthAdjust="spacing" textLength="69" x="315.6" y="130.9711">MeasureMetadata</text><line style="stroke:#181818;stroke-width:0.3;" x1="298.8" x2="385.8" y1="137.7" y2="137.7"/><text fill="#000000" font-family="sans-serif" font-size="8.4" lengthAdjust="spacing" textLength="41.4" x="301.8" y="147.893">unit : string</text><line style="stroke:#181818;stroke-width:0.3;" x1="298.8" x2="385.8" y1="152.3438" y2="152.3438"/></g><!--class MonitorMetadata--><g id="elem_MonitorMetadata"><rect codeLine="34" fill="#F1F1F1" height="38.6438" id="MonitorMetadata" rx="1.5" ry="1.5" style="stroke:#181818;stroke-width:0.3;" width="107.4" x="58.8" y="202.8"/><ellipse cx="77.79" cy="212.4" fill="#ADD1B2" rx="6.6" ry="6.6" style="stroke:#181818;stroke-width:0.6;"/><path d="M77.8181,216.1219 C78.7181,216.1219 79.4588,215.7844 80.0025,215.1469 L79.1775,214.2375 C78.8494,214.5938 78.4556,214.8281 77.9775,214.8281 C76.9744,214.8281 76.2806,214.0313 76.2806,212.6625 C76.2806,211.3312 76.9744,210.525 77.9119,210.525 C78.3994,210.525 78.7556,210.7125 79.0744,211.0031 L79.8994,210.075 C79.4494,209.6344 78.7556,209.2313 77.9119,209.2313 C76.14,209.2313 74.7431,210.5156 74.7431,212.7188 C74.7431,214.95 76.1681,216.1219 77.8181,216.1219 Z " fill="#000000"/><text fill="#000000" font-family="sans-serif" font-size="8.4" lengthAdjust="spacing" textLength="66" x="88.41" y="215.2711">MonitorMetadata</text><line style="stroke:#181818;stroke-width:0.3;" x1="59.4" x2="165.6" y1="222" y2="222"/><text fill="#000000" font-family="sans-serif" font-size="8.4" lengthAdjust="spacing" textLength="100.2" x="62.4" y="232.193">section : Section.MONITOR</text><line style="stroke:#181818;stroke-width:0.3;" x1="59.4" x2="165.6" y1="236.6437" y2="236.6437"/></g><!--class MotorMetadata--><g id="elem_MotorMetadata"><rect codeLine="38" fill="#F1F1F1" height="28.8" id="MotorMetadata" rx="1.5" ry="1.5" style="stroke:#181818;stroke-width:0.3;" width="78.6" x="296.4" y="207.6"/><ellipse cx="305.4" cy="217.2" fill="#ADD1B2" rx="6.6" ry="6.6" style="stroke:#181818;stroke-width:0.6;"/><path d="M305.4281,220.9219 C306.3281,220.9219 307.0687,220.5844 307.6125,219.9469 L306.7875,219.0375 C306.4594,219.3937 306.0656,219.6281 305.5875,219.6281 C304.5844,219.6281 303.8906,218.8312 303.8906,217.4625 C303.8906,216.1313 304.5844,215.325 305.5219,215.325 C306.0094,215.325 306.3656,215.5125 306.6844,215.8031 L307.5094,214.875 C307.0594,214.4344 306.3656,214.0313 305.5219,214.0313 C303.75,214.0313 302.3531,215.3156 302.3531,217.5187 C302.3531,219.75 303.7781,220.9219 305.4281,220.9219 Z " fill="#000000"/><text fill="#000000" font-family="sans-serif" font-size="8.4" lengthAdjust="spacing" textLength="59.4" x="313.8" y="220.0711">MotorMetadata</text><line style="stroke:#181818;stroke-width:0.3;" x1="297" x2="374.4" y1="226.8" y2="226.8"/><line style="stroke:#181818;stroke-width:0.3;" x1="297" x2="374.4" y1="231.6" y2="231.6"/></g><!--class DetectorMetadata--><g id="elem_DetectorMetadata"><rect codeLine="41" fill="#F1F1F1" height="38.6438" id="DetectorMetadata" rx="1.5" ry="1.5" style="stroke:#181818;stroke-width:0.3;" width="87.6" x="187.5" y="202.8"/><ellipse cx="196.5" cy="212.4" fill="#ADD1B2" rx="6.6" ry="6.6" style="stroke:#181818;stroke-width:0.6;"/><path d="M196.5281,216.1219 C197.4281,216.1219 198.1688,215.7844 198.7125,215.1469 L197.8875,214.2375 C197.5594,214.5938 197.1656,214.8281 196.6875,214.8281 C195.6844,214.8281 194.9906,214.0313 194.9906,212.6625 C194.9906,211.3312 195.6844,210.525 196.6219,210.525 C197.1094,210.525 197.4656,210.7125 197.7844,211.0031 L198.6094,210.075 C198.1594,209.6344 197.4656,209.2313 196.6219,209.2313 C194.85,209.2313 193.4531,210.5156 193.4531,212.7188 C193.4531,214.95 194.8781,216.1219 196.5281,216.1219 Z " fill="#000000"/><text fill="#000000" font-family="sans-serif" font-size="8.4" lengthAdjust="spacing" textLength="68.4" x="204.9" y="215.2711">DetectorMetadata</text><line style="stroke:#181818;stroke-width:0.3;" x1="188.1" x2="274.5" y1="222" y2="222"/><text fill="#000000" font-family="sans-serif" font-size="8.4" lengthAdjust="spacing" textLength="73.8" x="191.1" y="232.193">normalise_id : string</text><line style="stroke:#181818;stroke-width:0.3;" x1="188.1" x2="274.5" y1="236.6437" y2="236.6437"/></g><!--class TimestampMetadata--><g id="elem_TimestampMetadata"><rect codeLine="45" fill="#F1F1F1" height="38.6438" id="TimestampMetadata" rx="1.5" ry="1.5" style="stroke:#181818;stroke-width:0.3;" width="97.8" x="519.6" y="202.8"/><ellipse cx="528.6" cy="212.4" fill="#ADD1B2" rx="6.6" ry="6.6" style="stroke:#181818;stroke-width:0.6;"/><path d="M528.6281,216.1219 C529.5281,216.1219 530.2688,215.7844 530.8125,215.1469 L529.9875,214.2375 C529.6594,214.5938 529.2656,214.8281 528.7875,214.8281 C527.7844,214.8281 527.0906,214.0313 527.0906,212.6625 C527.0906,211.3312 527.7844,210.525 528.7219,210.525 C529.2094,210.525 529.5656,210.7125 529.8844,211.0031 L530.7094,210.075 C530.2594,209.6344 529.5656,209.2313 528.7219,209.2313 C526.95,209.2313 525.5531,210.5156 525.5531,212.7188 C525.5531,214.95 526.9781,216.1219 528.6281,216.1219 Z " fill="#000000"/><text fill="#000000" font-family="sans-serif" font-size="8.4" lengthAdjust="spacing" textLength="78.6" x="537" y="215.2711">TimestampMetadata</text><line style="stroke:#181818;stroke-width:0.3;" x1="520.2" x2="616.8" y1="222" y2="222"/><text fill="#000000" font-family="sans-serif" font-size="8.4" lengthAdjust="spacing" textLength="84.6" x="523.2" y="232.193">section : Section.META</text><line style="stroke:#181818;stroke-width:0.3;" x1="520.2" x2="616.8" y1="236.6437" y2="236.6437"/></g><!--class ScanModuleMetadata--><g id="elem_ScanModuleMetadata"><rect codeLine="49" fill="#F1F1F1" height="38.6438" id="ScanModuleMetadata" rx="1.5" ry="1.5" style="stroke:#181818;stroke-width:0.3;" width="102" x="396.3" y="202.8"/><ellipse cx="405.3" cy="212.4" fill="#ADD1B2" rx="6.6" ry="6.6" style="stroke:#181818;stroke-width:0.6;"/><path d="M405.3281,216.1219 C406.2281,216.1219 406.9688,215.7844 407.5125,215.1469 L406.6875,214.2375 C406.3594,214.5938 405.9656,214.8281 405.4875,214.8281 C404.4844,214.8281 403.7906,214.0313 403.7906,212.6625 C403.7906,211.3312 404.4844,210.525 405.4219,210.525 C405.9094,210.525 406.2656,210.7125 406.5844,211.0031 L407.4094,210.075 C406.9594,209.6344 406.2656,209.2313 405.4219,209.2313 C403.65,209.2313 402.2531,210.5156 402.2531,212.7188 C402.2531,214.95 403.6781,216.1219 405.3281,216.1219 Z " fill="#000000"/><text fill="#000000" font-family="sans-serif" font-size="8.4" lengthAdjust="spacing" textLength="82.8" x="413.7" y="215.2711">ScanModuleMetadata</text><line style="stroke:#181818;stroke-width:0.3;" x1="396.9" x2="497.7" y1="222" y2="222"/><text fill="#000000" font-family="sans-serif" font-size="8.4" lengthAdjust="spacing" textLength="84.6" x="399.9" y="232.193">section : Section.META</text><line style="stroke:#181818;stroke-width:0.3;" x1="396.9" x2="497.7" y1="236.6437" y2="236.6437"/></g><!--class AverageDetectorMetadata--><g id="elem_AverageDetectorMetadata"><rect codeLine="53" fill="#F1F1F1" height="68.175" id="AverageDetectorMetadata" rx="1.5" ry="1.5" style="stroke:#181818;stroke-width:0.3;" width="118.2" x="103.2" y="277.2"/><ellipse cx="112.2" cy="286.8" fill="#ADD1B2" rx="6.6" ry="6.6" style="stroke:#181818;stroke-width:0.6;"/><path d="M112.2281,290.5219 C113.1281,290.5219 113.8687,290.1844 114.4125,289.5469 L113.5875,288.6375 C113.2594,288.9938 112.8656,289.2281 112.3875,289.2281 C111.3844,289.2281 110.6906,288.4313 110.6906,287.0625 C110.6906,285.7313 111.3844,284.925 112.3219,284.925 C112.8094,284.925 113.1656,285.1125 113.4844,285.4031 L114.3094,284.475 C113.8594,284.0344 113.1656,283.6312 112.3219,283.6312 C110.55,283.6312 109.1531,284.9156 109.1531,287.1188 C109.1531,289.35 110.5781,290.5219 112.2281,290.5219 Z " fill="#000000"/><text fill="#000000" font-family="sans-serif" font-size="8.4" lengthAdjust="spacing" textLength="99" x="120.6" y="289.6711">AverageDetectorMetadata</text><line style="stroke:#181818;stroke-width:0.3;" x1="103.8" x2="220.8" y1="296.4" y2="296.4"/><text fill="#000000" font-family="sans-serif" font-size="8.4" lengthAdjust="spacing" textLength="73.8" x="106.8" y="306.593">n_averages : integer</text><text fill="#000000" font-family="sans-serif" font-size="8.4" lengthAdjust="spacing" textLength="55.2" x="106.8" y="316.4367">low_limit : float</text><text fill="#000000" font-family="sans-serif" font-size="8.4" lengthAdjust="spacing" textLength="85.2" x="106.8" y="326.2805">max_attempts : integer</text><text fill="#000000" font-family="sans-serif" font-size="8.4" lengthAdjust="spacing" textLength="76.8" x="106.8" y="336.1242">max_deviation : float</text><line style="stroke:#181818;stroke-width:0.3;" x1="103.8" x2="220.8" y1="340.575" y2="340.575"/></g><g id="elem_GMN23"><path d="M102.6,381.6 L102.6,460.725 A0,0 0 0 0 102.6,460.725 L222,460.725 A0,0 0 0 0 222,460.725 L222,387.6 L216,381.6 L164.7,381.6 L162.3,345.768 L159.9,381.6 L102.6,381.6 A0,0 0 0 0 102.6,381.6 " fill="#FEFFDD" style="stroke:#181818;stroke-width:0.3;"/><path d="M216,381.6 L216,387.6 L222,387.6 L216,381.6 " fill="#FEFFDD" style="stroke:#181818;stroke-width:0.3;"/><text fill="#000000" font-family="sans-serif" font-size="7.8" lengthAdjust="spacing" textLength="99" x="106.2" y="391.8363">These attributes may change</text><text fill="#000000" font-family="sans-serif" font-size="7.8" lengthAdjust="spacing" textLength="69" x="108" y="400.977">for individual values.</text><text fill="#000000" font-family="sans-serif" font-size="7.8" lengthAdjust="spacing" textLength="1.8" x="106.2" y="410.1176">&#160;</text><text fill="#000000" font-family="sans-serif" font-size="7.8" lengthAdjust="spacing" textLength="96" x="108" y="419.2582">Is that true even for only one</text><text fill="#000000" font-family="sans-serif" font-size="7.8" lengthAdjust="spacing" textLength="99.6" x="108" y="428.3988">detector in one scan module?</text><text fill="#000000" font-family="sans-serif" font-size="7.8" lengthAdjust="spacing" textLength="105" x="108" y="437.5395">If we go for separate detectors</text><text fill="#000000" font-family="sans-serif" font-size="7.8" lengthAdjust="spacing" textLength="88.8" x="108" y="446.6801">in this case, would it solve</text><text fill="#000000" font-family="sans-serif" font-size="7.8" lengthAdjust="spacing" textLength="43.8" x="108" y="455.8207">the problem?</text></g><!--class IntervalDetectorMetadata--><g id="elem_IntervalDetectorMetadata"><rect codeLine="70" fill="#F1F1F1" height="38.6438" id="IntervalDetectorMetadata" rx="1.5" ry="1.5" style="stroke:#181818;stroke-width:0.3;" width="115.8" x="242.4" y="292.2"/><ellipse cx="251.4" cy="301.8" fill="#ADD1B2" rx="6.6" ry="6.6" style="stroke:#181818;stroke-width:0.6;"/><path d="M251.4281,305.5219 C252.3281,305.5219 253.0688,305.1844 253.6125,304.5469 L252.7875,303.6375 C252.4594,303.9938 252.0656,304.2281 251.5875,304.2281 C250.5844,304.2281 249.8906,303.4313 249.8906,302.0625 C249.8906,300.7313 250.5844,299.925 251.5219,299.925 C252.0094,299.925 252.3656,300.1125 252.6844,300.4031 L253.5094,299.475 C253.0594,299.0344 252.3656,298.6312 251.5219,298.6312 C249.75,298.6312 248.3531,299.9156 248.3531,302.1188 C248.3531,304.35 249.7781,305.5219 251.4281,305.5219 Z " fill="#000000"/><text fill="#000000" font-family="sans-serif" font-size="8.4" lengthAdjust="spacing" textLength="96.6" x="259.8" y="304.6711">IntervalDetectorMetadata</text><line style="stroke:#181818;stroke-width:0.3;" x1="243" x2="357.6" y1="311.4" y2="311.4"/><text fill="#000000" font-family="sans-serif" font-size="8.4" lengthAdjust="spacing" textLength="78.6" x="246" y="321.593">trigger_interval : float</text><line style="stroke:#181818;stroke-width:0.3;" x1="243" x2="357.6" y1="326.0438" y2="326.0438"/></g><!--reverse link DeviceMetadata to MonitorMetadata--><g id="link_DeviceMetadata_MonitorMetadata"><path d="M177.4116,173.3245 C161.3736,185.2045 151.896,192.222 137.628,202.788 " fill="none" id="DeviceMetadata-backto-MonitorMetadata" style="stroke:#181818;stroke-width:0.6;stroke-dasharray:7.0,7.0;"/><polygon fill="none" points="186.09,166.896,175.2688,170.4317,179.5544,176.2173,186.09,166.896" style="stroke:#181818;stroke-width:0.6;"/></g><!--reverse link DeviceMetadata to MotorMetadata--><g id="link_DeviceMetadata_MotorMetadata"><path d="M271.5467,173.3697 C289.9187,187.1277 302.46,196.512 317.22,207.564 " fill="none" id="DeviceMetadata-backto-MotorMetadata" style="stroke:#181818;stroke-width:0.6;stroke-dasharray:7.0,7.0;"/><polygon fill="none" points="262.902,166.896,269.3888,176.2513,273.7046,170.4881,262.902,166.896" style="stroke:#181818;stroke-width:0.6;"/></g><!--reverse link DeviceMetadata to DetectorMetadata--><g id="link_DeviceMetadata_DetectorMetadata"><path d="M227.8257,177.6624 C228.7617,189.4944 228.972,192.12 229.812,202.662 " fill="none" id="DeviceMetadata-backto-DetectorMetadata" style="stroke:#181818;stroke-width:0.6;stroke-dasharray:7.0,7.0;"/><polygon fill="none" points="226.974,166.896,224.2369,177.9463,231.4145,177.3785,226.974,166.896" style="stroke:#181818;stroke-width:0.6;"/></g><!--reverse link Data to Metadata--><g id="link_Data_Metadata"><path codeLine="74" d="M74.1,38.4 C81.438,38.4 81.576,38.4 88.914,38.4 " fill="none" id="Data-backto-Metadata" style="stroke:#181818;stroke-width:0.6;"/><polygon fill="#181818" points="66.9,38.4,70.5,40.8,74.1,38.4,70.5,36,66.9,38.4" style="stroke:#181818;stroke-width:0.6;"/></g><!--reverse link Metadata to MeasureMetadata--><g id="link_Metadata_MeasureMetadata"><path codeLine="75" d="M166.4221,56.2867 C200.0161,69.7387 242.91,87.504 287.7,108.6 C294.18,111.654 301.008,115.062 307.56,118.428 " fill="none" id="Metadata-backto-MeasureMetadata" style="stroke:#181818;stroke-width:0.6;"/><polygon fill="none" points="156.396,52.272,165.0838,59.6287,167.7603,52.9447,156.396,52.272" style="stroke:#181818;stroke-width:0.6;"/></g><!--reverse link Metadata to MonitorMetadata--><g id="link_Metadata_MonitorMetadata"><path codeLine="76" d="M120.7648,73.6271 C118.7068,110.4191 115.404,169.47 113.538,202.8 " fill="none" id="Metadata-backto-MonitorMetadata" style="stroke:#181818;stroke-width:0.6;"/><polygon fill="none" points="121.368,62.844,117.1705,73.4261,124.3592,73.8282,121.368,62.844" style="stroke:#181818;stroke-width:0.6;"/></g><!--reverse link MeasureMetadata to DetectorMetadata--><g id="link_MeasureMetadata_DetectorMetadata"><path codeLine="77" d="M308.7425,163.4207 C290.5265,177.0587 274.56,189.012 256.32,202.668 " fill="none" id="MeasureMetadata-backto-DetectorMetadata" style="stroke:#181818;stroke-width:0.6;"/><polygon fill="none" points="317.388,156.948,306.585,160.5389,310.9001,166.3025,317.388,156.948" style="stroke:#181818;stroke-width:0.6;"/></g><!--reverse link MeasureMetadata to MotorMetadata--><g id="link_MeasureMetadata_MotorMetadata"><path codeLine="78" d="M339.9616,167.714 C338.7436,183.026 337.908,193.608 336.804,207.468 " fill="none" id="MeasureMetadata-backto-MotorMetadata" style="stroke:#181818;stroke-width:0.6;"/><polygon fill="none" points="340.818,156.948,336.3729,167.4285,343.5503,167.9995,340.818,156.948" style="stroke:#181818;stroke-width:0.6;"/></g><!--reverse link MeasureMetadata to TimestampMetadata--><g id="link_MeasureMetadata_TimestampMetadata"><path codeLine="79" d="M385.5695,161.908 C392.4035,165.382 389.988,163.92 396.9,166.8 C402.792,169.254 470.952,190.782 519.564,206.058 " fill="none" id="MeasureMetadata-backto-TimestampMetadata" style="stroke:#181818;stroke-width:0.6;"/><polygon fill="none" points="375.942,157.014,383.9381,165.1172,387.2008,158.6989,375.942,157.014" style="stroke:#181818;stroke-width:0.6;"/></g><!--reverse link MeasureMetadata to ScanModuleMetadata--><g id="link_MeasureMetadata_ScanModuleMetadata"><path codeLine="80" d="M374.3307,163.6504 C391.5627,177.2884 406.374,189.012 423.636,202.668 " fill="none" id="MeasureMetadata-backto-ScanModuleMetadata" style="stroke:#181818;stroke-width:0.6;"/><polygon fill="none" points="365.862,156.948,372.0965,166.4733,376.5648,160.8275,365.862,156.948" style="stroke:#181818;stroke-width:0.6;"/></g><!--reverse link DetectorMetadata to AverageDetectorMetadata--><g id="link_DetectorMetadata_AverageDetectorMetadata"><path codeLine="81" d="M210.0141,249.8104 C201.8661,260.2324 198.126,265.008 188.616,277.164 " fill="none" id="DetectorMetadata-backto-AverageDetectorMetadata" style="stroke:#181818;stroke-width:0.6;"/><polygon fill="none" points="216.666,241.302,207.178,247.5931,212.8502,252.0277,216.666,241.302" style="stroke:#181818;stroke-width:0.6;"/></g><!--reverse link DetectorMetadata to IntervalDetectorMetadata--><g id="link_DetectorMetadata_IntervalDetectorMetadata"><path codeLine="82" d="M252.5867,249.8097 C264.2927,264.7797 273.984,277.164 285.69,292.122 " fill="none" id="DetectorMetadata-backto-IntervalDetectorMetadata" style="stroke:#181818;stroke-width:0.6;"/><polygon fill="none" points="245.934,241.302,249.7508,252.0273,255.4226,247.5921,245.934,241.302" style="stroke:#181818;stroke-width:0.6;"/></g><!--SRC=[bLHTZzem47pthzZdgl03gaeeEgeMwO3goED9qP8imP8_8ji9HUtzzsuS0qS0zOeG9ElPoNeyarAXzx2aW1K6XDy2-6DG4tm17vmqTQnuAeEqXekRuKgy2L76tldGzoQC3GHR6uBLFOougK67NAmarWxrgzbP1qFNNf93L-wFGf1fzOas3R39izKyUvaFDwliv-R7Eeyto_LgaQzVXkjlUTRF4GboXyOtreL4yPJ5l-VrK_Oy7YxVIm_yhMWd3LKW3OGzlHfVQZNr5De6jArQnINqS22bfl2T34-ifAUP4D84SZii2URKoP96-idgMhsckxuFfrcBS6nwfS_3NsHT4lhMZPbR8yE5wmAsNBVk39QwKQJ917z_m9lZd9vqVKVvCS9uz2ShK62wZxP5frcdewZ5UytEXBdKv0Fgvj_p9oyCVPiIpJAUu7ysPXqVSaqt6qdJ5ZYiUoReFL2JYmlA7WebTJoRdR8OObNZhm938Ds4SKE_LB4YcAOPcgvi6d7vdZm1apYvRGC_L-CHoZsQck8wz8cIffATh5fKqA5goK_5iBZmx6iCxBUMW3eo4MwDEl9F8gZILliGS14yIvVSFqiiEuu0r3OsNpAT-lm0YX7YI9NewJCSRAiuLW6yLLrw42SC6cUtR8WPHxQ2VgydtHTze7Zu1yBpzckMhf09zaun4Ty_doRdTvWuztxzCvcCSpHUlGwE6ASkWiP3tKTT1UO-vCREzs6txXKtkaJW0xS-G3_IMFm5]--></g></svg>