<?xml version="1.0" encoding="us-ascii" standalone="no"?><svg xmlns="http://www.w3.org/2000/svg" xmlns:xlink="http://www.w3.org/1999/xlink" contentStyleType="text/css" height="314px" preserveAspectRatio="none" style="width:428px;height:314px;background:#FFFFFF;" version="1.1" viewBox="0 0 428 314" width="428px" zoomAndPan="magnify"><defs/><g><!--cluster scan--><g id="cluster_scan"><path d="M97.5,6 L133.5,6 A3.75,3.75 0 0 1 136,8.5 L143,28.2969 L418.5,28.2969 A2.5,2.5 0 0 1 421,30.7969 L421,236.5 A2.5,2.5 0 0 1 418.5,239 L97.5,239 A2.5,2.5 0 0 1 95,236.5 L95,8.5 A2.5,2.5 0 0 1 97.5,6 " fill="none" style="stroke:#000000;stroke-width:1.5;"/><line style="stroke:#000000;stroke-width:1.5;" x1="95" x2="143" y1="28.2969" y2="28.2969"/><text fill="#000000" font-family="sans-serif" font-size="14" font-weight="bold" lengthAdjust="spacing" textLength="35" x="99" y="20.9951">scan</text></g><!--cluster entities--><g id="cluster_entities"><path d="M121.5,49 L184.5,49 A3.75,3.75 0 0 1 187,51.5 L194,71.2969 L394.5,71.2969 A2.5,2.5 0 0 1 397,73.7969 L397,212.5 A2.5,2.5 0 0 1 394.5,215 L121.5,215 A2.5,2.5 0 0 1 119,212.5 L119,51.5 A2.5,2.5 0 0 1 121.5,49 " fill="none" style="stroke:#000000;stroke-width:1.5;"/><line style="stroke:#000000;stroke-width:1.5;" x1="119" x2="194" y1="71.2969" y2="71.2969"/><text fill="#000000" font-family="sans-serif" font-size="14" font-weight="bold" lengthAdjust="spacing" textLength="62" x="123" y="63.9951">entities</text></g><!--cluster scan--><g id="cluster_scan"><path d="M145.5,92 L181.5,92 A3.75,3.75 0 0 1 184,94.5 L191,114.2969 L240.5,114.2969 A2.5,2.5 0 0 1 243,116.7969 L243,188.5 A2.5,2.5 0 0 1 240.5,191 L145.5,191 A2.5,2.5 0 0 1 143,188.5 L143,94.5 A2.5,2.5 0 0 1 145.5,92 " fill="none" style="stroke:#000000;stroke-width:1.5;"/><line style="stroke:#000000;stroke-width:1.5;" x1="143" x2="191" y1="114.2969" y2="114.2969"/><text fill="#000000" font-family="sans-serif" font-size="14" font-weight="bold" lengthAdjust="spacing" textLength="35" x="147" y="106.9951">scan</text></g><!--cluster setup--><g id="cluster_setup"><path d="M269.5,92 L315.5,92 A3.75,3.75 0 0 1 318,94.5 L325,114.2969 L370.5,114.2969 A2.5,2.5 0 0 1 373,116.7969 L373,188.5 A2.5,2.5 0 0 1 370.5,191 L269.5,191 A2.5,2.5 0 0 1 267,188.5 L267,94.5 A2.5,2.5 0 0 1 269.5,92 " fill="none" style="stroke:#000000;stroke-width:1.5;"/><line style="stroke:#000000;stroke-width:1.5;" x1="267" x2="325" y1="114.2969" y2="114.2969"/><text fill="#000000" font-family="sans-serif" font-size="14" font-weight="bold" lengthAdjust="spacing" textLength="45" x="271" y="106.9951">setup</text></g><!--class Scan--><g id="elem_Scan"><rect fill="#F1F1F1" height="48" id="Scan" rx="2.5" ry="2.5" style="stroke:#181818;stroke-width:0.5;" width="67" x="159.5" y="127"/><ellipse cx="174.5" cy="143" fill="#ADD1B2" rx="11" ry="11" style="stroke:#181818;stroke-width:1.0;"/><path d="M177.4844,148.6406 Q176.9063,148.9375 176.2656,149.0781 Q175.625,149.2344 174.9219,149.2344 Q172.4063,149.2344 171.0781,147.5938 Q169.7656,145.9375 169.7656,142.8125 Q169.7656,139.6719 171.0781,138.0313 Q172.4063,136.375 174.9219,136.375 Q175.625,136.375 176.2656,136.5313 Q176.9219,136.6719 177.4844,136.9688 L177.4844,139.6875 Q176.8438,139.1094 176.25,138.8438 Q175.6563,138.5781 175.0313,138.5781 Q173.6875,138.5781 173,139.6406 Q172.3125,140.7031 172.3125,142.8125 Q172.3125,144.9063 173,145.9844 Q173.6875,147.0469 175.0313,147.0469 Q175.6563,147.0469 176.25,146.7813 Q176.8438,146.5 177.4844,145.9219 L177.4844,148.6406 Z " fill="#000000"/><text fill="#000000" font-family="sans-serif" font-size="14" lengthAdjust="spacing" textLength="35" x="188.5" y="147.8467">Scan</text><line style="stroke:#181818;stroke-width:0.5;" x1="160.5" x2="225.5" y1="159" y2="159"/><line style="stroke:#181818;stroke-width:0.5;" x1="160.5" x2="225.5" y1="167" y2="167"/></g><!--class Setup--><g id="elem_Setup"><rect fill="#F1F1F1" height="48" id="Setup" rx="2.5" ry="2.5" style="stroke:#181818;stroke-width:0.5;" width="73" x="283.5" y="127"/><ellipse cx="298.5" cy="143" fill="#ADD1B2" rx="11" ry="11" style="stroke:#181818;stroke-width:1.0;"/><path d="M301.4844,148.6406 Q300.9063,148.9375 300.2656,149.0781 Q299.625,149.2344 298.9219,149.2344 Q296.4063,149.2344 295.0781,147.5938 Q293.7656,145.9375 293.7656,142.8125 Q293.7656,139.6719 295.0781,138.0313 Q296.4063,136.375 298.9219,136.375 Q299.625,136.375 300.2656,136.5313 Q300.9219,136.6719 301.4844,136.9688 L301.4844,139.6875 Q300.8438,139.1094 300.25,138.8438 Q299.6563,138.5781 299.0313,138.5781 Q297.6875,138.5781 297,139.6406 Q296.3125,140.7031 296.3125,142.8125 Q296.3125,144.9063 297,145.9844 Q297.6875,147.0469 299.0313,147.0469 Q299.6563,147.0469 300.25,146.7813 Q300.8438,146.5 301.4844,145.9219 L301.4844,148.6406 Z " fill="#000000"/><text fill="#000000" font-family="sans-serif" font-size="14" lengthAdjust="spacing" textLength="41" x="312.5" y="147.8467">Setup</text><line style="stroke:#181818;stroke-width:0.5;" x1="284.5" x2="355.5" y1="159" y2="159"/><line style="stroke:#181818;stroke-width:0.5;" x1="284.5" x2="355.5" y1="167" y2="167"/></g><!--class File--><g id="elem_File"><rect codeLine="3" fill="#F1F1F1" height="96.8906" id="File" rx="2.5" ry="2.5" style="stroke:#181818;stroke-width:0.5;" width="72" x="7" y="102.5"/><ellipse cx="28.75" cy="118.5" fill="#B4A7E5" rx="11" ry="11" style="stroke:#181818;stroke-width:1.0;"/><path d="M24.6719,114.25 L24.6719,112.0938 L32.0625,112.0938 L32.0625,114.25 L29.5938,114.25 L29.5938,122.3438 L32.0625,122.3438 L32.0625,124.5 L24.6719,124.5 L24.6719,122.3438 L27.1406,122.3438 L27.1406,114.25 L24.6719,114.25 Z " fill="#000000"/><text fill="#000000" font-family="sans-serif" font-size="14" font-style="italic" lengthAdjust="spacing" textLength="25" x="44.25" y="123.3467">File</text><line style="stroke:#181818;stroke-width:0.5;" x1="8" x2="78" y1="134.5" y2="134.5"/><text fill="#000000" font-family="sans-serif" font-size="14" lengthAdjust="spacing" textLength="52" x="13" y="151.4951">version</text><line style="stroke:#181818;stroke-width:0.5;" x1="8" x2="78" y1="158.7969" y2="158.7969"/><text fill="#000000" font-family="sans-serif" font-size="14" lengthAdjust="spacing" textLength="60" x="13" y="175.792">extract()</text><text fill="#000000" font-family="sans-serif" font-size="14" lengthAdjust="spacing" textLength="41" x="13" y="192.0889">load()</text></g><!--class Scan--><g id="elem_Scan"><rect codeLine="9" fill="#F1F1F1" height="48" id="Scan" rx="2.5" ry="2.5" style="stroke:#181818;stroke-width:0.5;" width="67" x="84.5" y="259.5"/><ellipse cx="99.5" cy="275.5" fill="#ADD1B2" rx="11" ry="11" style="stroke:#181818;stroke-width:1.0;"/><path d="M102.4844,281.1406 Q101.9063,281.4375 101.2656,281.5781 Q100.625,281.7344 99.9219,281.7344 Q97.4063,281.7344 96.0781,280.0938 Q94.7656,278.4375 94.7656,275.3125 Q94.7656,272.1719 96.0781,270.5313 Q97.4063,268.875 99.9219,268.875 Q100.625,268.875 101.2656,269.0313 Q101.9219,269.1719 102.4844,269.4688 L102.4844,272.1875 Q101.8438,271.6094 101.25,271.3438 Q100.6563,271.0781 100.0313,271.0781 Q98.6875,271.0781 98,272.1406 Q97.3125,273.2031 97.3125,275.3125 Q97.3125,277.4063 98,278.4844 Q98.6875,279.5469 100.0313,279.5469 Q100.6563,279.5469 101.25,279.2813 Q101.8438,279 102.4844,278.4219 L102.4844,281.1406 Z " fill="#000000"/><text fill="#000000" font-family="sans-serif" font-size="14" lengthAdjust="spacing" textLength="35" x="113.5" y="280.3467">Scan</text><line style="stroke:#181818;stroke-width:0.5;" x1="85.5" x2="150.5" y1="291.5" y2="291.5"/><line style="stroke:#181818;stroke-width:0.5;" x1="85.5" x2="150.5" y1="299.5" y2="299.5"/></g><!--class Station--><g id="elem_Station"><rect codeLine="12" fill="#F1F1F1" height="48" id="Station" rx="2.5" ry="2.5" style="stroke:#181818;stroke-width:0.5;" width="82" x="233" y="259.5"/><ellipse cx="248" cy="275.5" fill="#ADD1B2" rx="11" ry="11" style="stroke:#181818;stroke-width:1.0;"/><path d="M250.9844,281.1406 Q250.4063,281.4375 249.7656,281.5781 Q249.125,281.7344 248.4219,281.7344 Q245.9063,281.7344 244.5781,280.0938 Q243.2656,278.4375 243.2656,275.3125 Q243.2656,272.1719 244.5781,270.5313 Q245.9063,268.875 248.4219,268.875 Q249.125,268.875 249.7656,269.0313 Q250.4219,269.1719 250.9844,269.4688 L250.9844,272.1875 Q250.3438,271.6094 249.75,271.3438 Q249.1563,271.0781 248.5313,271.0781 Q247.1875,271.0781 246.5,272.1406 Q245.8125,273.2031 245.8125,275.3125 Q245.8125,277.4063 246.5,278.4844 Q247.1875,279.5469 248.5313,279.5469 Q249.1563,279.5469 249.75,279.2813 Q250.3438,279 250.9844,278.4219 L250.9844,281.1406 Z " fill="#000000"/><text fill="#000000" font-family="sans-serif" font-size="14" lengthAdjust="spacing" textLength="50" x="262" y="280.3467">Station</text><line style="stroke:#181818;stroke-width:0.5;" x1="234" x2="314" y1="291.5" y2="291.5"/><line style="stroke:#181818;stroke-width:0.5;" x1="234" x2="314" y1="299.5" y2="299.5"/></g><!--reverse link Scan to Scan--><g id="link_Scan_Scan"><path d="M170.7941,190.6381 C157.1741,214.3481 145.02,235.48 131.36,259.26 " fill="none" id="Scan-backto-Scan" style="stroke:#181818;stroke-width:1.0;"/><polygon fill="none" points="179.76,175.03,165.5914,187.6494,175.9968,193.6267,179.76,175.03" style="stroke:#181818;stroke-width:1.0;"/></g><!--reverse link File to Scan--><g id="link_File_Scan"><path d="M79.4654,215.4584 C91.0854,235.6884 95.13,242.7 104.59,259.16 " fill="none" id="File-backto-Scan" style="stroke:#181818;stroke-width:1.0;stroke-dasharray:7.0,7.0;"/><polygon fill="none" points="70.5,199.85,74.2626,218.4469,84.6682,212.4699,70.5,199.85" style="stroke:#181818;stroke-width:1.0;"/></g><!--reverse link Setup to Station--><g id="link_Setup_Station"><path d="M305.9009,192.0079 C297.5509,215.7179 290.58,235.48 282.19,259.26 " fill="none" id="Setup-backto-Station" style="stroke:#181818;stroke-width:1.0;"/><polygon fill="none" points="311.88,175.03,300.2415,190.0149,311.5602,194.001,311.88,175.03" style="stroke:#181818;stroke-width:1.0;"/></g><!--reverse link File to Station--><g id="link_File_Station"><path d="M91.6337,207.9351 C109.1937,226.3451 119.2,233.62 143,247 C170.83,262.65 205.9,271.68 232.75,276.71 " fill="none" id="File-backto-Station" style="stroke:#181818;stroke-width:1.0;stroke-dasharray:7.0,7.0;"/><polygon fill="none" points="79.21,194.91,87.292,212.0763,95.9754,203.7938,79.21,194.91" style="stroke:#181818;stroke-width:1.0;"/></g><!--SRC=[TOr12a8n34JtFKLtwi9sxm6ym3z1QAC6qhGq-IA8TxU_86uqYp3396zsDxEcfnWRWzXQEAHQOc9GFMQ2QuVY78bXlq12VoP6_tH-p1sxKfMfyM4TakqFqt65FEJBkSdnImBPJb2oUXqce1WPeORfPawbCPOHwAVa-szWe-aV0crjOTdsJyWR]--></g></svg>