<?xml version="1.0" encoding="us-ascii" standalone="no"?><svg xmlns="http://www.w3.org/2000/svg" xmlns:xlink="http://www.w3.org/1999/xlink" contentStyleType="text/css" height="1269px" preserveAspectRatio="none" style="width:993px;height:1269px;background:#FFFFFF;" version="1.1" viewBox="0 0 993 1269" width="993px" zoomAndPan="magnify"><defs/><g><!--class Setup--><g id="elem_Setup"><rect codeLine="3" fill="#F1F1F1" height="96.8906" id="Setup" rx="2.5" ry="2.5" style="stroke:#181818;stroke-width:0.5;" width="164" x="536" y="15"/><ellipse cx="593.25" cy="31" fill="#ADD1B2" rx="11" ry="11" style="stroke:#181818;stroke-width:1.0;"/><path d="M596.2344,36.6406 Q595.6563,36.9375 595.0156,37.0781 Q594.375,37.2344 593.6719,37.2344 Q591.1563,37.2344 589.8281,35.5938 Q588.5156,33.9375 588.5156,30.8125 Q588.5156,27.6719 589.8281,26.0313 Q591.1563,24.375 593.6719,24.375 Q594.375,24.375 595.0156,24.5313 Q595.6719,24.6719 596.2344,24.9688 L596.2344,27.6875 Q595.5938,27.1094 595,26.8438 Q594.4063,26.5781 593.7813,26.5781 Q592.4375,26.5781 591.75,27.6406 Q591.0625,28.7031 591.0625,30.8125 Q591.0625,32.9063 591.75,33.9844 Q592.4375,35.0469 593.7813,35.0469 Q594.4063,35.0469 595,34.7813 Q595.5938,34.5 596.2344,33.9219 L596.2344,36.6406 Z " fill="#000000"/><text fill="#000000" font-family="sans-serif" font-size="14" lengthAdjust="spacing" textLength="41" x="613.75" y="35.8467">Setup</text><line style="stroke:#181818;stroke-width:0.5;" x1="537" x2="699" y1="47" y2="47"/><text fill="#000000" font-family="sans-serif" font-size="14" lengthAdjust="spacing" textLength="152" x="542" y="63.9951">detectors : Detector[]</text><text fill="#000000" font-family="sans-serif" font-size="14" lengthAdjust="spacing" textLength="114" x="542" y="80.292">motors : Motor[]</text><text fill="#000000" font-family="sans-serif" font-size="14" lengthAdjust="spacing" textLength="126" x="542" y="96.5889">devices : Device[]</text><line style="stroke:#181818;stroke-width:0.5;" x1="537" x2="699" y1="103.8906" y2="103.8906"/></g><!--class Detector--><g id="elem_Detector"><rect codeLine="80" fill="#F1F1F1" height="129.4844" id="Detector" rx="2.5" ry="2.5" style="stroke:#181818;stroke-width:0.5;" width="158" x="265" y="180"/><ellipse cx="308.8" cy="196" fill="#ADD1B2" rx="11" ry="11" style="stroke:#181818;stroke-width:1.0;"/><path d="M311.7844,201.6406 Q311.2063,201.9375 310.5656,202.0781 Q309.925,202.2344 309.2219,202.2344 Q306.7063,202.2344 305.3781,200.5938 Q304.0656,198.9375 304.0656,195.8125 Q304.0656,192.6719 305.3781,191.0313 Q306.7063,189.375 309.2219,189.375 Q309.925,189.375 310.5656,189.5313 Q311.2219,189.6719 311.7844,189.9688 L311.7844,192.6875 Q311.1438,192.1094 310.55,191.8438 Q309.9563,191.5781 309.3313,191.5781 Q307.9875,191.5781 307.3,192.6406 Q306.6125,193.7031 306.6125,195.8125 Q306.6125,197.9063 307.3,198.9844 Q307.9875,200.0469 309.3313,200.0469 Q309.9563,200.0469 310.55,199.7813 Q311.1438,199.5 311.7844,198.9219 L311.7844,201.6406 Z " fill="#000000"/><text fill="#000000" font-family="sans-serif" font-size="14" lengthAdjust="spacing" textLength="62" x="329.2" y="200.8467">Detector</text><line style="stroke:#181818;stroke-width:0.5;" x1="266" x2="422" y1="212" y2="212"/><text fill="#000000" font-family="sans-serif" font-size="14" lengthAdjust="spacing" textLength="110" x="271" y="228.9951">trigger : Access</text><text fill="#000000" font-family="sans-serif" font-size="14" lengthAdjust="spacing" textLength="92" x="271" y="245.292">stop : Access</text><text fill="#000000" font-family="sans-serif" font-size="14" lengthAdjust="spacing" textLength="104" x="271" y="261.5889">status : Access</text><text fill="#000000" font-family="sans-serif" font-size="14" lengthAdjust="spacing" textLength="146" x="271" y="277.8857">channels : Channel[]</text><text fill="#000000" font-family="sans-serif" font-size="14" lengthAdjust="spacing" textLength="122" x="271" y="294.1826">options : Option[]</text><line style="stroke:#181818;stroke-width:0.5;" x1="266" x2="422" y1="301.4844" y2="301.4844"/></g><!--class Motor--><g id="elem_Motor"><rect codeLine="108" fill="#F1F1F1" height="96.8906" id="Motor" rx="2.5" ry="2.5" style="stroke:#181818;stroke-width:0.5;" width="134" x="671" y="196"/><ellipse cx="713.45" cy="212" fill="#ADD1B2" rx="11" ry="11" style="stroke:#181818;stroke-width:1.0;"/><path d="M716.4344,217.6406 Q715.8563,217.9375 715.2156,218.0781 Q714.575,218.2344 713.8719,218.2344 Q711.3563,218.2344 710.0281,216.5938 Q708.7156,214.9375 708.7156,211.8125 Q708.7156,208.6719 710.0281,207.0313 Q711.3563,205.375 713.8719,205.375 Q714.575,205.375 715.2156,205.5313 Q715.8719,205.6719 716.4344,205.9688 L716.4344,208.6875 Q715.7938,208.1094 715.2,207.8438 Q714.6063,207.5781 713.9813,207.5781 Q712.6375,207.5781 711.95,208.6406 Q711.2625,209.7031 711.2625,211.8125 Q711.2625,213.9063 711.95,214.9844 Q712.6375,216.0469 713.9813,216.0469 Q714.6063,216.0469 715.2,215.7813 Q715.7938,215.5 716.4344,214.9219 L716.4344,217.6406 Z " fill="#000000"/><text fill="#000000" font-family="sans-serif" font-size="14" lengthAdjust="spacing" textLength="41" x="733.55" y="216.8467">Motor</text><line style="stroke:#181818;stroke-width:0.5;" x1="672" x2="804" y1="228" y2="228"/><text fill="#000000" font-family="sans-serif" font-size="14" lengthAdjust="spacing" textLength="110" x="677" y="244.9951">trigger : Access</text><text fill="#000000" font-family="sans-serif" font-size="14" lengthAdjust="spacing" textLength="85" x="677" y="261.292">axes : Axis[]</text><text fill="#000000" font-family="sans-serif" font-size="14" lengthAdjust="spacing" textLength="122" x="677" y="277.5889">options : Option[]</text><line style="stroke:#181818;stroke-width:0.5;" x1="672" x2="804" y1="284.8906" y2="284.8906"/></g><!--class Device--><g id="elem_Device"><rect codeLine="91" fill="#F1F1F1" height="96.8906" id="Device" rx="2.5" ry="2.5" style="stroke:#181818;stroke-width:0.5;" width="157" x="469.5" y="475"/><ellipse cx="519.25" cy="491" fill="#ADD1B2" rx="11" ry="11" style="stroke:#181818;stroke-width:1.0;"/><path d="M522.2344,496.6406 Q521.6563,496.9375 521.0156,497.0781 Q520.375,497.2344 519.6719,497.2344 Q517.1563,497.2344 515.8281,495.5938 Q514.5156,493.9375 514.5156,490.8125 Q514.5156,487.6719 515.8281,486.0313 Q517.1563,484.375 519.6719,484.375 Q520.375,484.375 521.0156,484.5313 Q521.6719,484.6719 522.2344,484.9688 L522.2344,487.6875 Q521.5938,487.1094 521,486.8438 Q520.4063,486.5781 519.7813,486.5781 Q518.4375,486.5781 517.75,487.6406 Q517.0625,488.7031 517.0625,490.8125 Q517.0625,492.9063 517.75,493.9844 Q518.4375,495.0469 519.7813,495.0469 Q520.4063,495.0469 521,494.7813 Q521.5938,494.5 522.2344,493.9219 L522.2344,496.6406 Z " fill="#000000"/><text fill="#000000" font-family="sans-serif" font-size="14" lengthAdjust="spacing" textLength="49" x="539.75" y="495.8467">Device</text><line style="stroke:#181818;stroke-width:0.5;" x1="470.5" x2="625.5" y1="507" y2="507"/><text fill="#000000" font-family="sans-serif" font-size="14" lengthAdjust="spacing" textLength="101" x="475.5" y="523.9951">value : Access</text><text fill="#000000" font-family="sans-serif" font-size="14" lengthAdjust="spacing" textLength="145" x="475.5" y="540.292">displaygroup : string</text><text fill="#000000" font-family="sans-serif" font-size="14" lengthAdjust="spacing" textLength="122" x="475.5" y="556.5889">options : Option[]</text><line style="stroke:#181818;stroke-width:0.5;" x1="470.5" x2="625.5" y1="563.8906" y2="563.8906"/></g><!--class File--><g id="elem_File"><rect fill="#F1F1F1" height="48" id="File" rx="2.5" ry="2.5" style="stroke:#181818;stroke-width:0.5;" width="57" x="735.5" y="39.5"/><ellipse cx="750.5" cy="55.5" fill="#ADD1B2" rx="11" ry="11" style="stroke:#181818;stroke-width:1.0;"/><path d="M753.4844,61.1406 Q752.9063,61.4375 752.2656,61.5781 Q751.625,61.7344 750.9219,61.7344 Q748.4063,61.7344 747.0781,60.0938 Q745.7656,58.4375 745.7656,55.3125 Q745.7656,52.1719 747.0781,50.5313 Q748.4063,48.875 750.9219,48.875 Q751.625,48.875 752.2656,49.0313 Q752.9219,49.1719 753.4844,49.4688 L753.4844,52.1875 Q752.8438,51.6094 752.25,51.3438 Q751.6563,51.0781 751.0313,51.0781 Q749.6875,51.0781 749,52.1406 Q748.3125,53.2031 748.3125,55.3125 Q748.3125,57.4063 749,58.4844 Q749.6875,59.5469 751.0313,59.5469 Q751.6563,59.5469 752.25,59.2813 Q752.8438,59 753.4844,58.4219 L753.4844,61.1406 Z " fill="#000000"/><text fill="#000000" font-family="sans-serif" font-size="14" lengthAdjust="spacing" textLength="25" x="764.5" y="60.3467">File</text><line style="stroke:#181818;stroke-width:0.5;" x1="736.5" x2="791.5" y1="71.5" y2="71.5"/><line style="stroke:#181818;stroke-width:0.5;" x1="736.5" x2="791.5" y1="79.5" y2="79.5"/></g><g id="elem_GMN11"><path d="M828,43.5 L828,59.5 L792.79,63.5 L828,67.5 L828,83.7656 A0,0 0 0 0 828,83.7656 L934,83.7656 A0,0 0 0 0 934,83.7656 L934,53.5 L924,43.5 L828,43.5 A0,0 0 0 0 828,43.5 " fill="#FEFFDD" style="stroke:#181818;stroke-width:0.5;"/><path d="M924,43.5 L924,53.5 L934,53.5 L924,43.5 " fill="#FEFFDD" style="stroke:#181818;stroke-width:0.5;"/><text fill="#000000" font-family="sans-serif" font-size="13" lengthAdjust="spacing" textLength="85" x="834" y="60.5669">See separate</text><text fill="#000000" font-family="sans-serif" font-size="13" lengthAdjust="spacing" textLength="78" x="834" y="75.6997">file module.</text></g><!--class AbstractDevice--><g id="elem_AbstractDevice"><rect codeLine="15" fill="#F1F1F1" height="113.1875" id="AbstractDevice" rx="2.5" ry="2.5" style="stroke:#181818;stroke-width:0.5;" width="140" x="274" y="7"/><ellipse cx="289" cy="23" fill="#ADD1B2" rx="11" ry="11" style="stroke:#181818;stroke-width:1.0;"/><path d="M291.9844,28.6406 Q291.4063,28.9375 290.7656,29.0781 Q290.125,29.2344 289.4219,29.2344 Q286.9063,29.2344 285.5781,27.5938 Q284.2656,25.9375 284.2656,22.8125 Q284.2656,19.6719 285.5781,18.0313 Q286.9063,16.375 289.4219,16.375 Q290.125,16.375 290.7656,16.5313 Q291.4219,16.6719 291.9844,16.9688 L291.9844,19.6875 Q291.3438,19.1094 290.75,18.8438 Q290.1563,18.5781 289.5313,18.5781 Q288.1875,18.5781 287.5,19.6406 Q286.8125,20.7031 286.8125,22.8125 Q286.8125,24.9063 287.5,25.9844 Q288.1875,27.0469 289.5313,27.0469 Q290.1563,27.0469 290.75,26.7813 Q291.3438,26.5 291.9844,25.9219 L291.9844,28.6406 Z " fill="#000000"/><text fill="#000000" font-family="sans-serif" font-size="14" lengthAdjust="spacing" textLength="108" x="303" y="27.8467">AbstractDevice</text><line style="stroke:#181818;stroke-width:0.5;" x1="275" x2="413" y1="39" y2="39"/><text fill="#000000" font-family="sans-serif" font-size="14" lengthAdjust="spacing" textLength="88" x="280" y="55.9951">class : string</text><text fill="#000000" font-family="sans-serif" font-size="14" lengthAdjust="spacing" textLength="94" x="280" y="72.292">name : string</text><text fill="#000000" font-family="sans-serif" font-size="14" lengthAdjust="spacing" textLength="66" x="280" y="88.5889">id : string</text><text fill="#000000" font-family="sans-serif" font-size="14" lengthAdjust="spacing" textLength="68" x="280" y="104.8857">unit : Unit</text><line style="stroke:#181818;stroke-width:0.5;" x1="275" x2="413" y1="112.1875" y2="112.1875"/></g><!--class Axis--><g id="elem_Axis"><rect codeLine="47" fill="#F1F1F1" height="308.75" id="Axis" rx="2.5" ry="2.5" style="stroke:#181818;stroke-width:0.5;" width="171" x="733.5" y="369"/><ellipse cx="800.25" cy="385" fill="#ADD1B2" rx="11" ry="11" style="stroke:#181818;stroke-width:1.0;"/><path d="M803.2344,390.6406 Q802.6563,390.9375 802.0156,391.0781 Q801.375,391.2344 800.6719,391.2344 Q798.1563,391.2344 796.8281,389.5938 Q795.5156,387.9375 795.5156,384.8125 Q795.5156,381.6719 796.8281,380.0313 Q798.1563,378.375 800.6719,378.375 Q801.375,378.375 802.0156,378.5313 Q802.6719,378.6719 803.2344,378.9688 L803.2344,381.6875 Q802.5938,381.1094 802,380.8438 Q801.4063,380.5781 800.7813,380.5781 Q799.4375,380.5781 798.75,381.6406 Q798.0625,382.7031 798.0625,384.8125 Q798.0625,386.9063 798.75,387.9844 Q799.4375,389.0469 800.7813,389.0469 Q801.4063,389.0469 802,388.7813 Q802.5938,388.5 803.2344,387.9219 L803.2344,390.6406 Z " fill="#000000"/><text fill="#000000" font-family="sans-serif" font-size="14" lengthAdjust="spacing" textLength="29" x="820.75" y="389.8467">Axis</text><line style="stroke:#181818;stroke-width:0.5;" x1="734.5" x2="903.5" y1="401" y2="401"/><text fill="#000000" font-family="sans-serif" font-size="14" lengthAdjust="spacing" textLength="94" x="739.5" y="417.9951">goto : Access</text><text fill="#000000" font-family="sans-serif" font-size="14" lengthAdjust="spacing" textLength="118" x="739.5" y="434.292">position : Access</text><text fill="#000000" font-family="sans-serif" font-size="14" lengthAdjust="spacing" textLength="92" x="739.5" y="450.5889">stop : Access</text><text fill="#000000" font-family="sans-serif" font-size="14" lengthAdjust="spacing" textLength="124" x="739.5" y="466.8857">highlimit : Access</text><text fill="#000000" font-family="sans-serif" font-size="14" lengthAdjust="spacing" textLength="117" x="739.5" y="483.1826">lowlimit : Access</text><text fill="#000000" font-family="sans-serif" font-size="14" lengthAdjust="spacing" textLength="154" x="739.5" y="499.4795">limitviolation : Access</text><text fill="#000000" font-family="sans-serif" font-size="14" lengthAdjust="spacing" textLength="104" x="739.5" y="515.7764">status : Access</text><text fill="#000000" font-family="sans-serif" font-size="14" lengthAdjust="spacing" textLength="138" x="739.5" y="532.0732">movedone : Access</text><text fill="#000000" font-family="sans-serif" font-size="14" lengthAdjust="spacing" textLength="110" x="739.5" y="548.3701">trigger : Access</text><text fill="#000000" font-family="sans-serif" font-size="14" lengthAdjust="spacing" textLength="134" x="739.5" y="564.667">deadband : Access</text><text fill="#000000" font-family="sans-serif" font-size="14" lengthAdjust="spacing" textLength="102" x="739.5" y="580.9639">offset : Access</text><text fill="#000000" font-family="sans-serif" font-size="14" lengthAdjust="spacing" textLength="143" x="739.5" y="597.2607">tweakvalue : Access</text><text fill="#000000" font-family="sans-serif" font-size="14" lengthAdjust="spacing" textLength="159" x="739.5" y="613.5576">tweakforward : Access</text><text fill="#000000" font-family="sans-serif" font-size="14" lengthAdjust="spacing" textLength="158" x="739.5" y="629.8545">tweakreverse : Access</text><text fill="#000000" font-family="sans-serif" font-size="14" lengthAdjust="spacing" textLength="122" x="739.5" y="646.1514">options : Option[]</text><text fill="#000000" font-family="sans-serif" font-size="14" lengthAdjust="spacing" textLength="150" x="739.5" y="662.4482">save_value : boolean</text><line style="stroke:#181818;stroke-width:0.5;" x1="734.5" x2="903.5" y1="669.75" y2="669.75"/></g><!--class Channel--><g id="elem_Channel"><rect codeLine="68" fill="#F1F1F1" height="162.0781" id="Channel" rx="2.5" ry="2.5" style="stroke:#181818;stroke-width:0.5;" width="162" x="130" y="442.5"/><ellipse cx="177.25" cy="458.5" fill="#ADD1B2" rx="11" ry="11" style="stroke:#181818;stroke-width:1.0;"/><path d="M180.2344,464.1406 Q179.6563,464.4375 179.0156,464.5781 Q178.375,464.7344 177.6719,464.7344 Q175.1563,464.7344 173.8281,463.0938 Q172.5156,461.4375 172.5156,458.3125 Q172.5156,455.1719 173.8281,453.5313 Q175.1563,451.875 177.6719,451.875 Q178.375,451.875 179.0156,452.0313 Q179.6719,452.1719 180.2344,452.4688 L180.2344,455.1875 Q179.5938,454.6094 179,454.3438 Q178.4063,454.0781 177.7813,454.0781 Q176.4375,454.0781 175.75,455.1406 Q175.0625,456.2031 175.0625,458.3125 Q175.0625,460.4063 175.75,461.4844 Q176.4375,462.5469 177.7813,462.5469 Q178.4063,462.5469 179,462.2813 Q179.5938,462 180.2344,461.4219 L180.2344,464.1406 Z " fill="#000000"/><text fill="#000000" font-family="sans-serif" font-size="14" lengthAdjust="spacing" textLength="59" x="197.75" y="463.3467">Channel</text><line style="stroke:#181818;stroke-width:0.5;" x1="131" x2="291" y1="474.5" y2="474.5"/><text fill="#000000" font-family="sans-serif" font-size="14" lengthAdjust="spacing" textLength="95" x="136" y="491.4951">read : Access</text><text fill="#000000" font-family="sans-serif" font-size="14" lengthAdjust="spacing" textLength="110" x="136" y="507.792">trigger : Access</text><text fill="#000000" font-family="sans-serif" font-size="14" lengthAdjust="spacing" textLength="92" x="136" y="524.0889">stop : Access</text><text fill="#000000" font-family="sans-serif" font-size="14" lengthAdjust="spacing" textLength="104" x="136" y="540.3857">status : Access</text><text fill="#000000" font-family="sans-serif" font-size="14" lengthAdjust="spacing" textLength="122" x="136" y="556.6826">options : Option[]</text><text fill="#000000" font-family="sans-serif" font-size="14" lengthAdjust="spacing" textLength="133" x="136" y="572.9795">deferred : boolean</text><text fill="#000000" font-family="sans-serif" font-size="14" lengthAdjust="spacing" textLength="150" x="136" y="589.2764">save_value : boolean</text><line style="stroke:#181818;stroke-width:0.5;" x1="131" x2="291" y1="596.5781" y2="596.5781"/></g><!--class Option--><g id="elem_Option"><rect codeLine="117" fill="#F1F1F1" height="113.1875" id="Option" rx="2.5" ry="2.5" style="stroke:#181818;stroke-width:0.5;" width="199" x="130.5" y="738"/><ellipse cx="202.25" cy="754" fill="#ADD1B2" rx="11" ry="11" style="stroke:#181818;stroke-width:1.0;"/><path d="M205.2344,759.6406 Q204.6563,759.9375 204.0156,760.0781 Q203.375,760.2344 202.6719,760.2344 Q200.1563,760.2344 198.8281,758.5938 Q197.5156,756.9375 197.5156,753.8125 Q197.5156,750.6719 198.8281,749.0313 Q200.1563,747.375 202.6719,747.375 Q203.375,747.375 204.0156,747.5313 Q204.6719,747.6719 205.2344,747.9688 L205.2344,750.6875 Q204.5938,750.1094 204,749.8438 Q203.4063,749.5781 202.7813,749.5781 Q201.4375,749.5781 200.75,750.6406 Q200.0625,751.7031 200.0625,753.8125 Q200.0625,755.9063 200.75,756.9844 Q201.4375,758.0469 202.7813,758.0469 Q203.4063,758.0469 204,757.7813 Q204.5938,757.5 205.2344,756.9219 L205.2344,759.6406 Z " fill="#000000"/><text fill="#000000" font-family="sans-serif" font-size="14" lengthAdjust="spacing" textLength="47" x="222.75" y="758.8467">Option</text><line style="stroke:#181818;stroke-width:0.5;" x1="131.5" x2="328.5" y1="770" y2="770"/><text fill="#000000" font-family="sans-serif" font-size="14" lengthAdjust="spacing" textLength="101" x="136.5" y="786.9951">value : Access</text><text fill="#000000" font-family="sans-serif" font-size="14" lengthAdjust="spacing" textLength="145" x="136.5" y="803.292">displaygroup : string</text><text fill="#000000" font-family="sans-serif" font-size="14" lengthAdjust="spacing" textLength="127" x="136.5" y="819.5889">monitor : boolean</text><text fill="#000000" font-family="sans-serif" font-size="14" lengthAdjust="spacing" textLength="187" x="136.5" y="835.8857">autoacquire : AutoAcquire</text><line style="stroke:#181818;stroke-width:0.5;" x1="131.5" x2="328.5" y1="843.1875" y2="843.1875"/></g><!--class Unit--><g id="elem_Unit"><rect codeLine="131" fill="#F1F1F1" height="64.2969" id="Unit" rx="2.5" ry="2.5" style="stroke:#181818;stroke-width:0.5;" width="132" x="69" y="1158"/><ellipse cx="116.75" cy="1174" fill="#ADD1B2" rx="11" ry="11" style="stroke:#181818;stroke-width:1.0;"/><path d="M119.7344,1179.6406 Q119.1563,1179.9375 118.5156,1180.0781 Q117.875,1180.2344 117.1719,1180.2344 Q114.6563,1180.2344 113.3281,1178.5938 Q112.0156,1176.9375 112.0156,1173.8125 Q112.0156,1170.6719 113.3281,1169.0313 Q114.6563,1167.375 117.1719,1167.375 Q117.875,1167.375 118.5156,1167.5313 Q119.1719,1167.6719 119.7344,1167.9688 L119.7344,1170.6875 Q119.0938,1170.1094 118.5,1169.8438 Q117.9063,1169.5781 117.2813,1169.5781 Q115.9375,1169.5781 115.25,1170.6406 Q114.5625,1171.7031 114.5625,1173.8125 Q114.5625,1175.9063 115.25,1176.9844 Q115.9375,1178.0469 117.2813,1178.0469 Q117.9063,1178.0469 118.5,1177.7813 Q119.0938,1177.5 119.7344,1176.9219 L119.7344,1179.6406 Z " fill="#000000"/><text fill="#000000" font-family="sans-serif" font-size="14" lengthAdjust="spacing" textLength="28" x="137.25" y="1178.8467">Unit</text><line style="stroke:#181818;stroke-width:0.5;" x1="70" x2="200" y1="1190" y2="1190"/><text fill="#000000" font-family="sans-serif" font-size="14" lengthAdjust="spacing" textLength="120" x="75" y="1206.9951">unitstring : string</text><line style="stroke:#181818;stroke-width:0.5;" x1="70" x2="200" y1="1214.2969" y2="1214.2969"/></g><!--class Access--><g id="elem_Access"><rect codeLine="29" fill="#F1F1F1" height="145.7813" id="Access" rx="2.5" ry="2.5" style="stroke:#181818;stroke-width:0.5;" width="159" x="458.5" y="911"/><ellipse cx="509.25" cy="927" fill="#ADD1B2" rx="11" ry="11" style="stroke:#181818;stroke-width:1.0;"/><path d="M512.2344,932.6406 Q511.6563,932.9375 511.0156,933.0781 Q510.375,933.2344 509.6719,933.2344 Q507.1563,933.2344 505.8281,931.5938 Q504.5156,929.9375 504.5156,926.8125 Q504.5156,923.6719 505.8281,922.0313 Q507.1563,920.375 509.6719,920.375 Q510.375,920.375 511.0156,920.5313 Q511.6719,920.6719 512.2344,920.9688 L512.2344,923.6875 Q511.5938,923.1094 511,922.8438 Q510.4063,922.5781 509.7813,922.5781 Q508.4375,922.5781 507.75,923.6406 Q507.0625,924.7031 507.0625,926.8125 Q507.0625,928.9063 507.75,929.9844 Q508.4375,931.0469 509.7813,931.0469 Q510.4063,931.0469 511,930.7813 Q511.5938,930.5 512.2344,929.9219 L512.2344,932.6406 Z " fill="#000000"/><text fill="#000000" font-family="sans-serif" font-size="14" lengthAdjust="spacing" textLength="49" x="529.75" y="931.8467">Access</text><line style="stroke:#181818;stroke-width:0.5;" x1="459.5" x2="616.5" y1="943" y2="943"/><text fill="#000000" font-family="sans-serif" font-size="14" lengthAdjust="spacing" textLength="122" x="464.5" y="959.9951">value : typevalue</text><text fill="#000000" font-family="sans-serif" font-size="14" lengthAdjust="spacing" textLength="121" x="464.5" y="976.292">method : Method</text><text fill="#000000" font-family="sans-serif" font-size="14" lengthAdjust="spacing" textLength="104" x="464.5" y="992.5889">count : integer</text><text fill="#000000" font-family="sans-serif" font-size="14" lengthAdjust="spacing" textLength="147" x="464.5" y="1008.8857">transport : Transport</text><text fill="#000000" font-family="sans-serif" font-size="14" lengthAdjust="spacing" textLength="100" x="464.5" y="1025.1826">timeout : float</text><text fill="#000000" font-family="sans-serif" font-size="14" lengthAdjust="spacing" textLength="127" x="464.5" y="1041.4795">monitor : boolean</text><line style="stroke:#181818;stroke-width:0.5;" x1="459.5" x2="616.5" y1="1048.7813" y2="1048.7813"/></g><!--class Method--><g id="elem_Method"><rect codeLine="99" fill="#F1F1F1" height="145.7813" id="Method" rx="2.5" ry="2.5" style="stroke:#181818;stroke-width:0.5;" width="88" x="429" y="1117"/><ellipse cx="445.35" cy="1133" fill="#EB937F" rx="11" ry="11" style="stroke:#181818;stroke-width:1.0;"/><path d="M449.475,1139 L441.7406,1139 L441.7406,1126.5938 L449.475,1126.5938 L449.475,1128.75 L444.1938,1128.75 L444.1938,1131.4375 L448.975,1131.4375 L448.975,1133.5938 L444.1938,1133.5938 L444.1938,1136.8438 L449.475,1136.8438 L449.475,1139 Z " fill="#000000"/><text fill="#000000" font-family="sans-serif" font-size="14" lengthAdjust="spacing" textLength="53" x="459.65" y="1137.8467">Method</text><line style="stroke:#181818;stroke-width:0.5;" x1="430" x2="516" y1="1149" y2="1149"/><text fill="#000000" font-family="sans-serif" font-size="14" lengthAdjust="spacing" textLength="27" x="435" y="1165.9951">PUT</text><text fill="#000000" font-family="sans-serif" font-size="14" lengthAdjust="spacing" textLength="47" x="435" y="1182.292">PUTCB</text><text fill="#000000" font-family="sans-serif" font-size="14" lengthAdjust="spacing" textLength="29" x="435" y="1198.5889">GET</text><text fill="#000000" font-family="sans-serif" font-size="14" lengthAdjust="spacing" textLength="49" x="435" y="1214.8857">GETCB</text><text fill="#000000" font-family="sans-serif" font-size="14" lengthAdjust="spacing" textLength="56" x="435" y="1231.1826">GETPUT</text><text fill="#000000" font-family="sans-serif" font-size="14" lengthAdjust="spacing" textLength="76" x="435" y="1247.4795">GETPUTCB</text><line style="stroke:#181818;stroke-width:0.5;" x1="430" x2="516" y1="1254.7813" y2="1254.7813"/></g><!--class Transport--><g id="elem_Transport"><rect codeLine="126" fill="#F1F1F1" height="80.5938" id="Transport" rx="2.5" ry="2.5" style="stroke:#181818;stroke-width:0.5;" width="101" x="552.5" y="1149.5"/><ellipse cx="567.5" cy="1165.5" fill="#EB937F" rx="11" ry="11" style="stroke:#181818;stroke-width:1.0;"/><path d="M571.625,1171.5 L563.8906,1171.5 L563.8906,1159.0938 L571.625,1159.0938 L571.625,1161.25 L566.3438,1161.25 L566.3438,1163.9375 L571.125,1163.9375 L571.125,1166.0938 L566.3438,1166.0938 L566.3438,1169.3438 L571.625,1169.3438 L571.625,1171.5 Z " fill="#000000"/><text fill="#000000" font-family="sans-serif" font-size="14" lengthAdjust="spacing" textLength="69" x="581.5" y="1170.3467">Transport</text><line style="stroke:#181818;stroke-width:0.5;" x1="553.5" x2="652.5" y1="1181.5" y2="1181.5"/><text fill="#000000" font-family="sans-serif" font-size="14" lengthAdjust="spacing" textLength="17" x="558.5" y="1198.4951">ca</text><text fill="#000000" font-family="sans-serif" font-size="14" lengthAdjust="spacing" textLength="34" x="558.5" y="1214.792">local</text><line style="stroke:#181818;stroke-width:0.5;" x1="553.5" x2="652.5" y1="1222.0938" y2="1222.0938"/></g><!--class AutoAcquire--><g id="elem_AutoAcquire"><rect codeLine="41" fill="#F1F1F1" height="96.8906" id="AutoAcquire" rx="2.5" ry="2.5" style="stroke:#181818;stroke-width:0.5;" width="120" x="365" y="746"/><ellipse cx="380" cy="762" fill="#EB937F" rx="11" ry="11" style="stroke:#181818;stroke-width:1.0;"/><path d="M384.125,768 L376.3906,768 L376.3906,755.5938 L384.125,755.5938 L384.125,757.75 L378.8438,757.75 L378.8438,760.4375 L383.625,760.4375 L383.625,762.5938 L378.8438,762.5938 L378.8438,765.8438 L384.125,765.8438 L384.125,768 Z " fill="#000000"/><text fill="#000000" font-family="sans-serif" font-size="14" lengthAdjust="spacing" textLength="88" x="394" y="766.8467">AutoAcquire</text><line style="stroke:#181818;stroke-width:0.5;" x1="366" x2="484" y1="778" y2="778"/><text fill="#000000" font-family="sans-serif" font-size="14" lengthAdjust="spacing" textLength="64" x="371" y="794.9951">snapshot</text><text fill="#000000" font-family="sans-serif" font-size="14" lengthAdjust="spacing" textLength="100" x="371" y="811.292">measurement</text><text fill="#000000" font-family="sans-serif" font-size="14" lengthAdjust="spacing" textLength="18" x="371" y="827.5889">no</text><line style="stroke:#181818;stroke-width:0.5;" x1="366" x2="484" y1="834.8906" y2="834.8906"/></g><!--reverse link Setup to Detector--><g id="link_Setup_Detector"><path codeLine="8" d="M534.8845,118.7942 C497.3145,143.3442 461.52,166.73 423.11,191.82 " fill="none" id="Setup-backto-Detector" style="stroke:#181818;stroke-width:1.0;"/><polygon fill="#181818" points="544.93,112.23,537.7192,112.1636,534.8845,118.7942,542.0953,118.8606,544.93,112.23" style="stroke:#181818;stroke-width:1.0;"/><text fill="#000000" font-family="sans-serif" font-size="13" lengthAdjust="spacing" textLength="8" x="431.0314" y="183.1342">n</text></g><!--reverse link Setup to Motor--><g id="link_Setup_Motor"><path codeLine="9" d="M656.8414,122.4379 C674.1214,148.2179 688.69,169.95 705.96,195.71 " fill="none" id="Setup-backto-Motor" style="stroke:#181818;stroke-width:1.0;"/><polygon fill="#181818" points="650.16,112.47,650.178,119.6811,656.8414,122.4379,656.8233,115.2268,650.16,112.47" style="stroke:#181818;stroke-width:1.0;"/><text fill="#000000" font-family="sans-serif" font-size="13" lengthAdjust="spacing" textLength="8" x="692.8919" y="184.8781">n</text></g><!--reverse link Setup to Device--><g id="link_Setup_Device"><path codeLine="10" d="M608.8966,124.0822 C595.4466,212.0622 568.71,386.99 555.28,474.89 " fill="none" id="Setup-backto-Device" style="stroke:#181818;stroke-width:1.0;"/><polygon fill="#181818" points="610.71,112.22,605.8492,117.5466,608.8966,124.0822,613.7573,118.7556,610.71,112.22" style="stroke:#181818;stroke-width:1.0;"/><text fill="#000000" font-family="sans-serif" font-size="13" lengthAdjust="spacing" textLength="8" x="547.7412" y="464.0835">n</text></g><!--link Setup to File--><g id="link_Setup_File"><path codeLine="12" d="M700.12,63.5 C711.77,63.5 711.41,63.5 723.06,63.5 " fill="none" id="Setup-to-File" style="stroke:#181818;stroke-width:1.0;"/><polygon fill="#181818" points="735.06,63.5,729.06,59.5,723.06,63.5,729.06,67.5,735.06,63.5" style="stroke:#181818;stroke-width:1.0;"/></g><!--reverse link AbstractDevice to Detector--><g id="link_AbstractDevice_Detector"><path codeLine="21" d="M344,138.16 C344,157.04 344,160.28 344,179.75 " fill="none" id="AbstractDevice-backto-Detector" style="stroke:#181818;stroke-width:1.0;"/><polygon fill="none" points="344,120.16,338,138.16,350,138.16,344,120.16" style="stroke:#181818;stroke-width:1.0;"/></g><!--reverse link AbstractDevice to Motor--><g id="link_AbstractDevice_Motor"><path codeLine="22" d="M430.8274,103.9466 C503.4274,136.9366 599.41,180.54 670.8,212.97 " fill="none" id="AbstractDevice-backto-Motor" style="stroke:#181818;stroke-width:1.0;"/><polygon fill="none" points="414.44,96.5,428.3453,109.4091,433.3096,98.4841,414.44,96.5" style="stroke:#181818;stroke-width:1.0;"/></g><!--reverse link AbstractDevice to Device--><g id="link_AbstractDevice_Device"><path codeLine="23" d="M410.1448,133.9247 C425.5348,151.9047 429.5,158.98 441,180 C494.53,277.82 525.51,406.3 539.31,474.73 " fill="none" id="AbstractDevice-backto-Device" style="stroke:#181818;stroke-width:1.0;"/><polygon fill="none" points="398.44,120.25,405.5866,137.8263,414.7031,130.0231,398.44,120.25" style="stroke:#181818;stroke-width:1.0;"/></g><!--reverse link AbstractDevice to Axis--><g id="link_AbstractDevice_Axis"><path codeLine="24" d="M428.6933,126.4915 C454.1433,145.8615 468.35,157.73 493,180 C579.19,257.87 669.7,354.3 733.42,424.98 " fill="none" id="AbstractDevice-backto-Axis" style="stroke:#181818;stroke-width:1.0;"/><polygon fill="none" points="414.37,115.59,425.0595,131.2659,432.3272,121.717,414.37,115.59" style="stroke:#181818;stroke-width:1.0;"/></g><!--reverse link AbstractDevice to Channel--><g id="link_AbstractDevice_Channel"><path codeLine="25" d="M274.9085,133.9871 C259.9385,151.6671 257.1,158.51 248,180 C212.2,264.54 206.03,370.84 206.83,442.41 " fill="none" id="AbstractDevice-backto-Channel" style="stroke:#181818;stroke-width:1.0;"/><polygon fill="none" points="286.54,120.25,270.3295,130.11,279.4876,137.8643,286.54,120.25" style="stroke:#181818;stroke-width:1.0;"/></g><!--reverse link AbstractDevice to Option--><g id="link_AbstractDevice_Option"><path codeLine="26" d="M259.8725,125.1047 C236.3325,143.9647 225.25,155.59 206,180 C147.91,253.67 133.46,277.67 112,369 C80.59,502.69 58.77,551.4 112,678 C121.45,700.46 137.63,720.74 155.03,737.81 " fill="none" id="AbstractDevice-backto-Option" style="stroke:#181818;stroke-width:1.0;"/><polygon fill="none" points="273.92,113.85,256.121,120.4222,263.6241,129.7872,273.92,113.85" style="stroke:#181818;stroke-width:1.0;"/></g><!--reverse link AbstractDevice to Unit--><g id="link_AbstractDevice_Unit"><path codeLine="27" d="M262.6173,89.2165 C213.5273,106.9965 161.07,133.23 121,180 C16.53,301.94 6,361.93 6,522.5 C6,522.5 6,522.5 6,795.5 C6,936.41 81.62,1092.21 117.06,1157.51 " fill="none" id="AbstractDevice-backto-Unit" style="stroke:#181818;stroke-width:1.0;"/><polygon fill="#181818" points="273.9,85.13,266.8965,83.4123,262.6173,89.2165,269.6208,90.9342,273.9,85.13" style="stroke:#181818;stroke-width:1.0;"/></g><!--reverse link Access to Unit--><g id="link_Access_Unit"><path codeLine="37" d="M442.3206,1033.4299 C365.3606,1072.3899 266.47,1122.45 196.36,1157.94 " fill="none" id="Access-backto-Unit" style="stroke:#181818;stroke-width:1.0;"/><polygon fill="none" points="458.38,1025.3,439.6106,1028.0767,445.0305,1038.783,458.38,1025.3" style="stroke:#181818;stroke-width:1.0;"/></g><!--reverse link Access to Method--><g id="link_Access_Method"><path codeLine="38" d="M511.3479,1068.6439 C505.1779,1088.0139 502.15,1097.52 495.98,1116.89 " fill="none" id="Access-backto-Method" style="stroke:#181818;stroke-width:1.0;"/><polygon fill="#181818" points="514.99,1057.21,509.3576,1061.7129,511.3479,1068.6439,516.9803,1064.141,514.99,1057.21" style="stroke:#181818;stroke-width:1.0;"/></g><!--reverse link Access to Transport--><g id="link_Access_Transport"><path codeLine="39" d="M564.6526,1068.6438 C574.5126,1099.5938 582.01,1123.11 590.33,1149.25 " fill="none" id="Access-backto-Transport" style="stroke:#181818;stroke-width:1.0;"/><polygon fill="#181818" points="561.01,1057.21,559.02,1064.1411,564.6526,1068.6438,566.6425,1061.7127,561.01,1057.21" style="stroke:#181818;stroke-width:1.0;"/></g><!--reverse link Axis to Access--><g id="link_Axis_Access"><path codeLine="65" d="M727.0893,674.4712 C677.1993,755.8712 622.64,844.89 582.25,910.79 " fill="none" id="Axis-backto-Access" style="stroke:#181818;stroke-width:1.0;"/><polygon fill="#181818" points="733.36,664.24,726.8142,667.2654,727.0893,674.4712,733.6351,671.4459,733.36,664.24" style="stroke:#181818;stroke-width:1.0;"/><text fill="#000000" font-family="sans-serif" font-size="13" lengthAdjust="spacing" textLength="8" x="578.2121" y="899.9293">n</text></g><!--reverse link Axis to Option--><g id="link_Axis_Option"><path codeLine="66" d="M724.632,665.0989 C716.062,673.0089 715.73,672.02 706,678 C568.56,762.48 501.99,689.89 348,738 C341.95,739.89 335.81,742.03 329.68,744.35 " fill="none" id="Axis-backto-Option" style="stroke:#181818;stroke-width:1.0;"/><polygon fill="#181818" points="733.45,656.96,726.328,658.0901,724.632,665.0989,731.754,663.9688,733.45,656.96" style="stroke:#181818;stroke-width:1.0;"/><text fill="#000000" font-family="sans-serif" font-size="13" lengthAdjust="spacing" textLength="8" x="337.618" y="753.1494">n</text></g><!--reverse link Channel to Access--><g id="link_Channel_Access"><path codeLine="77" d="M143.8308,614.8741 C98.4508,685.4641 59.21,777.97 113,851 C154.18,906.91 347.06,949.38 458.31,969.72 " fill="none" id="Channel-backto-Access" style="stroke:#181818;stroke-width:1.0;"/><polygon fill="#181818" points="150.32,604.78,143.7107,607.664,143.8308,614.8741,150.4401,611.9901,150.32,604.78" style="stroke:#181818;stroke-width:1.0;"/><text fill="#000000" font-family="sans-serif" font-size="13" lengthAdjust="spacing" textLength="8" x="442.5948" y="964.7953">n</text></g><!--reverse link Channel to Option--><g id="link_Channel_Option"><path codeLine="78" d="M217.5156,616.8102 C220.5456,659.7002 223.36,699.43 226.07,737.86 " fill="none" id="Channel-backto-Option" style="stroke:#181818;stroke-width:1.0;"/><polygon fill="#181818" points="216.67,604.84,213.1028,611.107,217.5156,616.8102,221.0829,610.5432,216.67,604.84" style="stroke:#181818;stroke-width:1.0;"/><text fill="#000000" font-family="sans-serif" font-size="13" lengthAdjust="spacing" textLength="8" x="217.1035" y="727.1065">n</text></g><!--reverse link Detector to Access--><g id="link_Detector_Access"><path codeLine="87" d="M352.189,321.1035 C363.329,408.4035 389.49,556.33 452,678 C467.99,709.13 488.63,706.09 503,738 C527.62,792.65 535.8,860.49 538.15,910.92 " fill="none" id="Detector-backto-Access" style="stroke:#181818;stroke-width:1.0;"/><polygon fill="#181818" points="350.67,309.2,347.4617,315.6581,352.189,321.1035,355.3973,314.6454,350.67,309.2" style="stroke:#181818;stroke-width:1.0;"/><text fill="#000000" font-family="sans-serif" font-size="13" lengthAdjust="spacing" textLength="8" x="529.753" y="899.6952">n</text></g><!--reverse link Detector to Channel--><g id="link_Detector_Channel"><path codeLine="88" d="M308.2956,319.8675 C289.2756,359.4775 269.83,399.98 249.47,442.37 " fill="none" id="Detector-backto-Channel" style="stroke:#181818;stroke-width:1.0;"/><polygon fill="#181818" points="313.49,309.05,307.287,312.7273,308.2956,319.8675,314.4987,316.1902,313.49,309.05" style="stroke:#181818;stroke-width:1.0;"/><text fill="#000000" font-family="sans-serif" font-size="13" lengthAdjust="spacing" textLength="8" x="244.54" y="431.5457">n</text></g><!--reverse link Detector to Option--><g id="link_Detector_Option"><path codeLine="89" d="M349.7953,321.2121 C354.5153,407.5121 354.47,553.12 310,678 C302.51,699.03 290.16,719.78 277.37,737.76 " fill="none" id="Detector-backto-Option" style="stroke:#181818;stroke-width:1.0;"/><polygon fill="#181818" points="349.14,309.23,345.4736,315.4395,349.7953,321.2121,353.4617,315.0026,349.14,309.23" style="stroke:#181818;stroke-width:1.0;"/><text fill="#000000" font-family="sans-serif" font-size="13" lengthAdjust="spacing" textLength="8" x="274.6557" y="726.9943">n</text></g><!--reverse link Device to Access--><g id="link_Device_Access"><path codeLine="96" d="M556.1729,584.098 C564.1029,647.778 573.64,752.15 564,851 C562.1,870.53 558.64,891.45 554.86,910.75 " fill="none" id="Device-backto-Access" style="stroke:#181818;stroke-width:1.0;"/><polygon fill="#181818" points="554.69,572.19,551.4621,578.6383,556.1729,584.098,559.4008,577.6497,554.69,572.19" style="stroke:#181818;stroke-width:1.0;"/></g><!--reverse link Device to Option--><g id="link_Device_Option"><path codeLine="97" d="M484.6886,580.1715 C449.8386,610.6615 412.52,643 371,678 C347.65,697.68 321.87,718.94 298.81,737.78 " fill="none" id="Device-backto-Option" style="stroke:#181818;stroke-width:1.0;"/><polygon fill="#181818" points="493.72,572.27,486.5705,573.2103,484.6886,580.1715,491.8381,579.2312,493.72,572.27" style="stroke:#181818;stroke-width:1.0;"/><text fill="#000000" font-family="sans-serif" font-size="13" lengthAdjust="spacing" textLength="8" x="298.7087" y="727.0167">n</text></g><!--reverse link Motor to Access--><g id="link_Motor_Access"><path codeLine="113" d="M816.0033,276.1704 C857.8333,296.0004 897.38,322.83 922,369 C986.61,490.18 981.71,554.33 922,678 C859.08,808.34 710.39,900.07 617.59,946.99 " fill="none" id="Motor-backto-Access" style="stroke:#181818;stroke-width:1.0;"/><polygon fill="#181818" points="805.16,271.03,808.8682,277.2146,816.0033,276.1704,812.2951,269.9858,805.16,271.03" style="stroke:#181818;stroke-width:1.0;"/></g><!--reverse link Motor to Axis--><g id="link_Motor_Axis"><path codeLine="114" d="M755.2895,304.6372 C761.5795,326.1372 766.03,341.35 774.08,368.89 " fill="none" id="Motor-backto-Axis" style="stroke:#181818;stroke-width:1.0;"/><polygon fill="#181818" points="751.92,293.12,749.7657,300.0018,755.2895,304.6372,757.4438,297.7555,751.92,293.12" style="stroke:#181818;stroke-width:1.0;"/><text fill="#000000" font-family="sans-serif" font-size="13" lengthAdjust="spacing" textLength="8" x="763.7104" y="358.114">n</text></g><!--reverse link Motor to Option--><g id="link_Motor_Option"><path codeLine="115" d="M726.8335,305.0816 C706.1235,414.7616 657.82,664.38 644,678 C548.42,772.25 475.42,695.8 348,738 C341.98,739.99 335.87,742.21 329.75,744.59 " fill="none" id="Motor-backto-Option" style="stroke:#181818;stroke-width:1.0;"/><polygon fill="#181818" points="729.06,293.29,724.0162,298.4436,726.8335,305.0816,731.8773,299.928,729.06,293.29" style="stroke:#181818;stroke-width:1.0;"/><text fill="#000000" font-family="sans-serif" font-size="13" lengthAdjust="spacing" textLength="8" x="337.3691" y="737.4388">n</text></g><!--reverse link Option to Access--><g id="link_Option_Access"><path codeLine="123" d="M331.8295,857.4908 C375.2695,883.9408 416.44,909 458.26,934.46 " fill="none" id="Option-backto-Access" style="stroke:#181818;stroke-width:1.0;"/><polygon fill="#181818" points="321.58,851.25,324.6245,857.7869,331.8295,857.4908,328.785,850.9539,321.58,851.25" style="stroke:#181818;stroke-width:1.0;"/></g><!--reverse link Option to AutoAcquire--><g id="link_Option_AutoAcquire"><path codeLine="124" d="M341.79,794.5 C353.44,794.5 353.09,794.5 364.75,794.5 " fill="none" id="Option-backto-AutoAcquire" style="stroke:#181818;stroke-width:1.0;"/><polygon fill="#181818" points="329.79,794.5,335.79,798.5,341.79,794.5,335.79,790.5,329.79,794.5" style="stroke:#181818;stroke-width:1.0;"/></g><!--SRC=[fPNBRjim44Nt-WeXcm81dEoDRjpqiGfQeCcgBGfQ7Cb4AOxAXvsWzRzt-995MJ6ArXjHPoJEdSlnwDNEsi6iRsy7oPHrlRnfiBzj93DcnGNhDEkhAjpMdy6weVvLrVJZOA6ng4szhj-czPTl8THZulTuWXpsee7uj5yHFbPnm-lLghvIL-CsCnnsENlKxr4bkhgktmi9bK8BjHRTpjRO1hGcpL0R69Xc5hwgbXZfuqx2JQvgipLMiyR6FLDvCRIkAIHK5v1YFPH4yFBUAM69FDA5Yflj-_etQHzBN0h6GfTV2-KkXJPFmYm6xdPCAP2BiO-35QZc8Mzkq9wDQUZ0J39apwJpvTld0S8w7ZNO7NeNxiCYMeTEUHk4ij213epIA3EWzlmXhsD4z83EyrOYiwc1I0LgObj42KnvDwEO83-8JC2BJiadv9IZ0kNwUkCiRfgVJkXym4QnmUmm9GHcd8OULBnNI1cp2sHmUgUZ0o9HCKyW0nhXhIofiJYKP4TDAKKVscE29HwMg4TxWP8jRSsiCoNhSGyS5PIKsh8Z-ql8WV4jKxoasBO6PYBi0TYFVEXptg8-CCqN8XhseCti7GpjvbN7naiZmR0zVCyf9YVj3Sz_zBHBmLBtflD9VPwEI5E1V-73-Gaj6Vk2RWujQ0ryelf2ELdVhA8vBelASo9LzHyrD36FfobbgcAXk6CrvfsfFUDvkfm5vdLCPkf2Dt5XwBFpt6bqGpbBNv0t3gfHs4YcsSEVFew5bFpJuqE-thq9gm_l7lBrHF9ZSKbyd0DXEbyw3_OKFc- -LIzP7FUPb702mN0_pqjKMXhl_iNIyx4QPDDeP6aqhgU3ahIcN1En8ocUZ7wFGpT_GraQSWsJ9n_zy4uF-Ezbr7SIUgp-0000]--></g></svg>