<?xml version="1.0" encoding="us-ascii" standalone="no"?><svg xmlns="http://www.w3.org/2000/svg" xmlns:xlink="http://www.w3.org/1999/xlink" contentStyleType="text/css" height="657px" preserveAspectRatio="none" style="width:1531px;height:657px;background:#FFFFFF;" version="1.1" viewBox="0 0 1531 657" width="1531px" zoomAndPan="magnify"><defs/><g><!--class Metadata--><g id="elem_Metadata"><rect codeLine="2" fill="#F1F1F1" height="80.5938" id="Metadata" rx="2.5" ry="2.5" style="stroke:#181818;stroke-width:0.5;" width="106" x="136.5" y="7"/><ellipse cx="154.65" cy="23" fill="#ADD1B2" rx="11" ry="11" style="stroke:#181818;stroke-width:1.0;"/><path d="M157.6344,28.6406 Q157.0563,28.9375 156.4156,29.0781 Q155.775,29.2344 155.0719,29.2344 Q152.5563,29.2344 151.2281,27.5938 Q149.9156,25.9375 149.9156,22.8125 Q149.9156,19.6719 151.2281,18.0313 Q152.5563,16.375 155.0719,16.375 Q155.775,16.375 156.4156,16.5313 Q157.0719,16.6719 157.6344,16.9688 L157.6344,19.6875 Q156.9938,19.1094 156.4,18.8438 Q155.8063,18.5781 155.1813,18.5781 Q153.8375,18.5781 153.15,19.6406 Q152.4625,20.7031 152.4625,22.8125 Q152.4625,24.9063 153.15,25.9844 Q153.8375,27.0469 155.1813,27.0469 Q155.8063,27.0469 156.4,26.7813 Q156.9938,26.5 157.6344,25.9219 L157.6344,28.6406 Z " fill="#000000"/><text fill="#000000" font-family="sans-serif" font-size="14" lengthAdjust="spacing" textLength="67" x="169.35" y="27.8467">Metadata</text><line style="stroke:#181818;stroke-width:0.5;" x1="137.5" x2="241.5" y1="39" y2="39"/><text fill="#000000" font-family="sans-serif" font-size="14" lengthAdjust="spacing" textLength="94" x="142.5" y="55.9951">name : string</text><text fill="#000000" font-family="sans-serif" font-size="14" lengthAdjust="spacing" textLength="91" x="142.5" y="72.292">options : dict</text><line style="stroke:#181818;stroke-width:0.5;" x1="137.5" x2="241.5" y1="79.5938" y2="79.5938"/></g><path d="M277.5,15 L277.5,38.6992 L233.5,67.4453 L277.5,46.6992 L277.5,70.3984 A0,0 0 0 0 277.5,70.3984 L769.5,70.3984 A0,0 0 0 0 769.5,70.3984 L769.5,25 L759.5,15 L277.5,15 A0,0 0 0 0 277.5,15 " fill="#FEFFDD" style="stroke:#181818;stroke-width:0.5;"/><path d="M759.5,15 L759.5,25 L769.5,25 L759.5,15 " fill="#FEFFDD" style="stroke:#181818;stroke-width:0.5;"/><text fill="#000000" font-family="sans-serif" font-size="13" lengthAdjust="spacing" textLength="154" x="283.5" y="32.0669">The difference between</text><text fill="#000000" font-family="monospace" font-size="13" lengthAdjust="spacing" textLength="56" x="441.5" y="32.0669">options</text><text fill="#000000" font-family="sans-serif" font-size="13" lengthAdjust="spacing" textLength="138" x="501.5" y="32.0669">here in Metadata and</text><text fill="#000000" font-family="monospace" font-size="13" lengthAdjust="spacing" textLength="56" x="643.5" y="32.0669">options</text><text fill="#000000" font-family="sans-serif" font-size="13" lengthAdjust="spacing" textLength="51" x="703.5" y="32.0669">in Data:</text><text fill="#000000" font-family="sans-serif" font-size="13" lengthAdjust="spacing" textLength="456" x="283.5" y="47.1997">Options in Data vary potentially for each data point, hence are arrays,</text><text fill="#000000" font-family="sans-serif" font-size="13" lengthAdjust="spacing" textLength="469" x="283.5" y="62.3325">while options in Metadata are scalar and don't change for a Data object.</text><!--class Data--><g id="elem_Data"><rect codeLine="12" fill="#F1F1F1" height="48" id="Data" rx="2.5" ry="2.5" style="stroke:#181818;stroke-width:0.5;" width="66" x="35.5" y="23.5"/><ellipse cx="50.5" cy="39.5" fill="#ADD1B2" rx="11" ry="11" style="stroke:#181818;stroke-width:1.0;"/><path d="M53.4844,45.1406 Q52.9063,45.4375 52.2656,45.5781 Q51.625,45.7344 50.9219,45.7344 Q48.4063,45.7344 47.0781,44.0938 Q45.7656,42.4375 45.7656,39.3125 Q45.7656,36.1719 47.0781,34.5313 Q48.4063,32.875 50.9219,32.875 Q51.625,32.875 52.2656,33.0313 Q52.9219,33.1719 53.4844,33.4688 L53.4844,36.1875 Q52.8438,35.6094 52.25,35.3438 Q51.6563,35.0781 51.0313,35.0781 Q49.6875,35.0781 49,36.1406 Q48.3125,37.2031 48.3125,39.3125 Q48.3125,41.4063 49,42.4844 Q49.6875,43.5469 51.0313,43.5469 Q51.6563,43.5469 52.25,43.2813 Q52.8438,43 53.4844,42.4219 L53.4844,45.1406 Z " fill="#000000"/><text fill="#000000" font-family="sans-serif" font-size="14" lengthAdjust="spacing" textLength="34" x="64.5" y="44.3467">Data</text><line style="stroke:#181818;stroke-width:0.5;" x1="36.5" x2="100.5" y1="55.5" y2="55.5"/><line style="stroke:#181818;stroke-width:0.5;" x1="36.5" x2="100.5" y1="63.5" y2="63.5"/></g><g id="elem_GMN6"><path d="M6,176.5 L6,216.7656 A0,0 0 0 0 6,216.7656 L131,216.7656 A0,0 0 0 0 131,216.7656 L131,186.5 L121,176.5 L72.5,176.5 L68.5,71.79 L64.5,176.5 L6,176.5 A0,0 0 0 0 6,176.5 " fill="#FEFFDD" style="stroke:#181818;stroke-width:0.5;"/><path d="M121,176.5 L121,186.5 L131,186.5 L121,176.5 " fill="#FEFFDD" style="stroke:#181818;stroke-width:0.5;"/><text fill="#000000" font-family="sans-serif" font-size="13" lengthAdjust="spacing" textLength="104" x="12" y="193.5669">See diagram for</text><text fill="#000000" font-family="sans-serif" font-size="13" lengthAdjust="spacing" textLength="86" x="12" y="208.6997">data module.</text></g><!--class AbstractDeviceMetadata--><g id="elem_AbstractDeviceMetadata"><rect codeLine="16" fill="#F1F1F1" height="96.8906" id="AbstractDeviceMetadata" rx="2.5" ry="2.5" style="stroke:#181818;stroke-width:0.5;" width="207" x="255" y="148"/><ellipse cx="270" cy="164" fill="#B4A7E5" rx="11" ry="11" style="stroke:#181818;stroke-width:1.0;"/><path d="M265.9219,159.75 L265.9219,157.5938 L273.3125,157.5938 L273.3125,159.75 L270.8438,159.75 L270.8438,167.8438 L273.3125,167.8438 L273.3125,170 L265.9219,170 L265.9219,167.8438 L268.3906,167.8438 L268.3906,159.75 L265.9219,159.75 Z " fill="#000000"/><text fill="#000000" font-family="sans-serif" font-size="14" font-style="italic" lengthAdjust="spacing" textLength="175" x="284" y="168.8467">AbstractDeviceMetadata</text><line style="stroke:#181818;stroke-width:0.5;" x1="256" x2="461" y1="180" y2="180"/><text fill="#000000" font-family="sans-serif" font-size="14" lengthAdjust="spacing" textLength="66" x="261" y="196.9951">id : string</text><text fill="#000000" font-family="sans-serif" font-size="14" lengthAdjust="spacing" textLength="70" x="261" y="213.292">pv : string</text><text fill="#000000" font-family="sans-serif" font-size="14" lengthAdjust="spacing" textLength="149" x="261" y="229.5889">access_mode : string</text><line style="stroke:#181818;stroke-width:0.5;" x1="256" x2="461" y1="236.8906" y2="236.8906"/></g><!--class MeasureMetadata--><g id="elem_MeasureMetadata"><rect codeLine="22" fill="#F1F1F1" height="64.2969" id="MeasureMetadata" rx="2.5" ry="2.5" style="stroke:#181818;stroke-width:0.5;" width="160" x="497.5" y="164.5"/><ellipse cx="512.5" cy="180.5" fill="#ADD1B2" rx="11" ry="11" style="stroke:#181818;stroke-width:1.0;"/><path d="M515.4844,186.1406 Q514.9063,186.4375 514.2656,186.5781 Q513.625,186.7344 512.9219,186.7344 Q510.4063,186.7344 509.0781,185.0938 Q507.7656,183.4375 507.7656,180.3125 Q507.7656,177.1719 509.0781,175.5313 Q510.4063,173.875 512.9219,173.875 Q513.625,173.875 514.2656,174.0313 Q514.9219,174.1719 515.4844,174.4688 L515.4844,177.1875 Q514.8438,176.6094 514.25,176.3438 Q513.6563,176.0781 513.0313,176.0781 Q511.6875,176.0781 511,177.1406 Q510.3125,178.2031 510.3125,180.3125 Q510.3125,182.4063 511,183.4844 Q511.6875,184.5469 513.0313,184.5469 Q513.6563,184.5469 514.25,184.2813 Q514.8438,184 515.4844,183.4219 L515.4844,186.1406 Z " fill="#000000"/><text fill="#000000" font-family="sans-serif" font-size="14" lengthAdjust="spacing" textLength="128" x="526.5" y="185.3467">MeasureMetadata</text><line style="stroke:#181818;stroke-width:0.5;" x1="498.5" x2="656.5" y1="196.5" y2="196.5"/><text fill="#000000" font-family="sans-serif" font-size="14" lengthAdjust="spacing" textLength="80" x="503.5" y="213.4951">unit : string</text><line style="stroke:#181818;stroke-width:0.5;" x1="498.5" x2="656.5" y1="220.7969" y2="220.7969"/></g><!--class MonitorMetadata--><g id="elem_MonitorMetadata"><rect codeLine="26" fill="#F1F1F1" height="48" id="MonitorMetadata" rx="2.5" ry="2.5" style="stroke:#181818;stroke-width:0.5;" width="153" x="96" y="313"/><ellipse cx="111" cy="329" fill="#ADD1B2" rx="11" ry="11" style="stroke:#181818;stroke-width:1.0;"/><path d="M113.9844,334.6406 Q113.4063,334.9375 112.7656,335.0781 Q112.125,335.2344 111.4219,335.2344 Q108.9063,335.2344 107.5781,333.5938 Q106.2656,331.9375 106.2656,328.8125 Q106.2656,325.6719 107.5781,324.0313 Q108.9063,322.375 111.4219,322.375 Q112.125,322.375 112.7656,322.5313 Q113.4219,322.6719 113.9844,322.9688 L113.9844,325.6875 Q113.3438,325.1094 112.75,324.8438 Q112.1563,324.5781 111.5313,324.5781 Q110.1875,324.5781 109.5,325.6406 Q108.8125,326.7031 108.8125,328.8125 Q108.8125,330.9063 109.5,331.9844 Q110.1875,333.0469 111.5313,333.0469 Q112.1563,333.0469 112.75,332.7813 Q113.3438,332.5 113.9844,331.9219 L113.9844,334.6406 Z " fill="#000000"/><text fill="#000000" font-family="sans-serif" font-size="14" lengthAdjust="spacing" textLength="121" x="125" y="333.8467">MonitorMetadata</text><line style="stroke:#181818;stroke-width:0.5;" x1="97" x2="248" y1="345" y2="345"/><line style="stroke:#181818;stroke-width:0.5;" x1="97" x2="248" y1="353" y2="353"/></g><!--class DeviceMetadata--><g id="elem_DeviceMetadata"><rect codeLine="29" fill="#F1F1F1" height="48" id="DeviceMetadata" rx="2.5" ry="2.5" style="stroke:#181818;stroke-width:0.5;" width="148" x="284.5" y="313"/><ellipse cx="299.5" cy="329" fill="#ADD1B2" rx="11" ry="11" style="stroke:#181818;stroke-width:1.0;"/><path d="M302.4844,334.6406 Q301.9063,334.9375 301.2656,335.0781 Q300.625,335.2344 299.9219,335.2344 Q297.4063,335.2344 296.0781,333.5938 Q294.7656,331.9375 294.7656,328.8125 Q294.7656,325.6719 296.0781,324.0313 Q297.4063,322.375 299.9219,322.375 Q300.625,322.375 301.2656,322.5313 Q301.9219,322.6719 302.4844,322.9688 L302.4844,325.6875 Q301.8438,325.1094 301.25,324.8438 Q300.6563,324.5781 300.0313,324.5781 Q298.6875,324.5781 298,325.6406 Q297.3125,326.7031 297.3125,328.8125 Q297.3125,330.9063 298,331.9844 Q298.6875,333.0469 300.0313,333.0469 Q300.6563,333.0469 301.25,332.7813 Q301.8438,332.5 302.4844,331.9219 L302.4844,334.6406 Z " fill="#000000"/><text fill="#000000" font-family="sans-serif" font-size="14" lengthAdjust="spacing" textLength="116" x="313.5" y="333.8467">DeviceMetadata</text><line style="stroke:#181818;stroke-width:0.5;" x1="285.5" x2="431.5" y1="345" y2="345"/><line style="stroke:#181818;stroke-width:0.5;" x1="285.5" x2="431.5" y1="353" y2="353"/></g><!--class AxisMetadata--><g id="elem_AxisMetadata"><rect codeLine="32" fill="#F1F1F1" height="64.2969" id="AxisMetadata" rx="2.5" ry="2.5" style="stroke:#181818;stroke-width:0.5;" width="129" x="468" y="305"/><ellipse cx="483.45" cy="321" fill="#ADD1B2" rx="11" ry="11" style="stroke:#181818;stroke-width:1.0;"/><path d="M486.4344,326.6406 Q485.8563,326.9375 485.2156,327.0781 Q484.575,327.2344 483.8719,327.2344 Q481.3563,327.2344 480.0281,325.5938 Q478.7156,323.9375 478.7156,320.8125 Q478.7156,317.6719 480.0281,316.0313 Q481.3563,314.375 483.8719,314.375 Q484.575,314.375 485.2156,314.5313 Q485.8719,314.6719 486.4344,314.9688 L486.4344,317.6875 Q485.7938,317.1094 485.2,316.8438 Q484.6063,316.5781 483.9813,316.5781 Q482.6375,316.5781 481.95,317.6406 Q481.2625,318.7031 481.2625,320.8125 Q481.2625,322.9063 481.95,323.9844 Q482.6375,325.0469 483.9813,325.0469 Q484.6063,325.0469 485.2,324.7813 Q485.7938,324.5 486.4344,323.9219 L486.4344,326.6406 Z " fill="#000000"/><text fill="#000000" font-family="sans-serif" font-size="14" lengthAdjust="spacing" textLength="96" x="497.55" y="325.8467">AxisMetadata</text><line style="stroke:#181818;stroke-width:0.5;" x1="469" x2="596" y1="337" y2="337"/><text fill="#000000" font-family="sans-serif" font-size="14" lengthAdjust="spacing" textLength="117" x="474" y="353.9951">deadband : float</text><line style="stroke:#181818;stroke-width:0.5;" x1="469" x2="596" y1="361.2969" y2="361.2969"/></g><!--class ChannelMetadata--><g id="elem_ChannelMetadata"><rect codeLine="36" fill="#F1F1F1" height="48" id="ChannelMetadata" rx="2.5" ry="2.5" style="stroke:#181818;stroke-width:0.5;" width="158" x="632.5" y="313"/><ellipse cx="647.5" cy="329" fill="#ADD1B2" rx="11" ry="11" style="stroke:#181818;stroke-width:1.0;"/><path d="M650.4844,334.6406 Q649.9063,334.9375 649.2656,335.0781 Q648.625,335.2344 647.9219,335.2344 Q645.4063,335.2344 644.0781,333.5938 Q642.7656,331.9375 642.7656,328.8125 Q642.7656,325.6719 644.0781,324.0313 Q645.4063,322.375 647.9219,322.375 Q648.625,322.375 649.2656,322.5313 Q649.9219,322.6719 650.4844,322.9688 L650.4844,325.6875 Q649.8438,325.1094 649.25,324.8438 Q648.6563,324.5781 648.0313,324.5781 Q646.6875,324.5781 646,325.6406 Q645.3125,326.7031 645.3125,328.8125 Q645.3125,330.9063 646,331.9844 Q646.6875,333.0469 648.0313,333.0469 Q648.6563,333.0469 649.25,332.7813 Q649.8438,332.5 650.4844,331.9219 L650.4844,334.6406 Z " fill="#000000"/><text fill="#000000" font-family="sans-serif" font-size="14" lengthAdjust="spacing" textLength="126" x="661.5" y="333.8467">ChannelMetadata</text><line style="stroke:#181818;stroke-width:0.5;" x1="633.5" x2="789.5" y1="345" y2="345"/><line style="stroke:#181818;stroke-width:0.5;" x1="633.5" x2="789.5" y1="353" y2="353"/></g><!--class TimestampMetadata--><g id="elem_TimestampMetadata"><rect codeLine="39" fill="#F1F1F1" height="48" id="TimestampMetadata" rx="2.5" ry="2.5" style="stroke:#181818;stroke-width:0.5;" width="179" x="826" y="313"/><ellipse cx="841" cy="329" fill="#ADD1B2" rx="11" ry="11" style="stroke:#181818;stroke-width:1.0;"/><path d="M843.9844,334.6406 Q843.4063,334.9375 842.7656,335.0781 Q842.125,335.2344 841.4219,335.2344 Q838.9063,335.2344 837.5781,333.5938 Q836.2656,331.9375 836.2656,328.8125 Q836.2656,325.6719 837.5781,324.0313 Q838.9063,322.375 841.4219,322.375 Q842.125,322.375 842.7656,322.5313 Q843.4219,322.6719 843.9844,322.9688 L843.9844,325.6875 Q843.3438,325.1094 842.75,324.8438 Q842.1563,324.5781 841.5313,324.5781 Q840.1875,324.5781 839.5,325.6406 Q838.8125,326.7031 838.8125,328.8125 Q838.8125,330.9063 839.5,331.9844 Q840.1875,333.0469 841.5313,333.0469 Q842.1563,333.0469 842.75,332.7813 Q843.3438,332.5 843.9844,331.9219 L843.9844,334.6406 Z " fill="#000000"/><text fill="#000000" font-family="sans-serif" font-size="14" lengthAdjust="spacing" textLength="147" x="855" y="333.8467">TimestampMetadata</text><line style="stroke:#181818;stroke-width:0.5;" x1="827" x2="1004" y1="345" y2="345"/><line style="stroke:#181818;stroke-width:0.5;" x1="827" x2="1004" y1="353" y2="353"/></g><!--class SinglePointChannelMetadata--><g id="elem_SinglePointChannelMetadata"><rect codeLine="42" fill="#F1F1F1" height="48" id="SinglePointChannelMetadata" rx="2.5" ry="2.5" style="stroke:#181818;stroke-width:0.5;" width="237" x="343" y="461.5"/><ellipse cx="358" cy="477.5" fill="#ADD1B2" rx="11" ry="11" style="stroke:#181818;stroke-width:1.0;"/><path d="M360.9844,483.1406 Q360.4063,483.4375 359.7656,483.5781 Q359.125,483.7344 358.4219,483.7344 Q355.9063,483.7344 354.5781,482.0938 Q353.2656,480.4375 353.2656,477.3125 Q353.2656,474.1719 354.5781,472.5313 Q355.9063,470.875 358.4219,470.875 Q359.125,470.875 359.7656,471.0313 Q360.4219,471.1719 360.9844,471.4688 L360.9844,474.1875 Q360.3438,473.6094 359.75,473.3438 Q359.1563,473.0781 358.5313,473.0781 Q357.1875,473.0781 356.5,474.1406 Q355.8125,475.2031 355.8125,477.3125 Q355.8125,479.4063 356.5,480.4844 Q357.1875,481.5469 358.5313,481.5469 Q359.1563,481.5469 359.75,481.2813 Q360.3438,481 360.9844,480.4219 L360.9844,483.1406 Z " fill="#000000"/><text fill="#000000" font-family="sans-serif" font-size="14" lengthAdjust="spacing" textLength="205" x="372" y="482.3467">SinglePointChannelMetadata</text><line style="stroke:#181818;stroke-width:0.5;" x1="344" x2="579" y1="493.5" y2="493.5"/><line style="stroke:#181818;stroke-width:0.5;" x1="344" x2="579" y1="501.5" y2="501.5"/></g><!--class AverageChannelMetadata--><g id="elem_AverageChannelMetadata"><rect codeLine="44" fill="#F1F1F1" height="113.1875" id="AverageChannelMetadata" rx="2.5" ry="2.5" style="stroke:#181818;stroke-width:0.5;" width="218" x="1057.5" y="429"/><ellipse cx="1072.5" cy="445" fill="#ADD1B2" rx="11" ry="11" style="stroke:#181818;stroke-width:1.0;"/><path d="M1075.4844,450.6406 Q1074.9063,450.9375 1074.2656,451.0781 Q1073.625,451.2344 1072.9219,451.2344 Q1070.4063,451.2344 1069.0781,449.5938 Q1067.7656,447.9375 1067.7656,444.8125 Q1067.7656,441.6719 1069.0781,440.0313 Q1070.4063,438.375 1072.9219,438.375 Q1073.625,438.375 1074.2656,438.5313 Q1074.9219,438.6719 1075.4844,438.9688 L1075.4844,441.6875 Q1074.8438,441.1094 1074.25,440.8438 Q1073.6563,440.5781 1073.0313,440.5781 Q1071.6875,440.5781 1071,441.6406 Q1070.3125,442.7031 1070.3125,444.8125 Q1070.3125,446.9063 1071,447.9844 Q1071.6875,449.0469 1073.0313,449.0469 Q1073.6563,449.0469 1074.25,448.7813 Q1074.8438,448.5 1075.4844,447.9219 L1075.4844,450.6406 Z " fill="#000000"/><text fill="#000000" font-family="sans-serif" font-size="14" lengthAdjust="spacing" textLength="186" x="1086.5" y="449.8467">AverageChannelMetadata</text><line style="stroke:#181818;stroke-width:0.5;" x1="1058.5" x2="1274.5" y1="461" y2="461"/><text fill="#000000" font-family="sans-serif" font-size="14" lengthAdjust="spacing" textLength="146" x="1063.5" y="477.9951">n_averages : integer</text><text fill="#000000" font-family="sans-serif" font-size="14" lengthAdjust="spacing" textLength="107" x="1063.5" y="494.292">low_limit : float</text><text fill="#000000" font-family="sans-serif" font-size="14" lengthAdjust="spacing" textLength="165" x="1063.5" y="510.5889">max_attempts : integer</text><text fill="#000000" font-family="sans-serif" font-size="14" lengthAdjust="spacing" textLength="149" x="1063.5" y="526.8857">max_deviation : float</text><line style="stroke:#181818;stroke-width:0.5;" x1="1058.5" x2="1274.5" y1="534.1875" y2="534.1875"/></g><!--class IntervalChannelMetadata--><g id="elem_IntervalChannelMetadata"><rect codeLine="51" fill="#F1F1F1" height="64.2969" id="IntervalChannelMetadata" rx="2.5" ry="2.5" style="stroke:#181818;stroke-width:0.5;" width="212" x="1310.5" y="453.5"/><ellipse cx="1325.5" cy="469.5" fill="#ADD1B2" rx="11" ry="11" style="stroke:#181818;stroke-width:1.0;"/><path d="M1328.4844,475.1406 Q1327.9063,475.4375 1327.2656,475.5781 Q1326.625,475.7344 1325.9219,475.7344 Q1323.4063,475.7344 1322.0781,474.0938 Q1320.7656,472.4375 1320.7656,469.3125 Q1320.7656,466.1719 1322.0781,464.5313 Q1323.4063,462.875 1325.9219,462.875 Q1326.625,462.875 1327.2656,463.0313 Q1327.9219,463.1719 1328.4844,463.4688 L1328.4844,466.1875 Q1327.8438,465.6094 1327.25,465.3438 Q1326.6563,465.0781 1326.0313,465.0781 Q1324.6875,465.0781 1324,466.1406 Q1323.3125,467.2031 1323.3125,469.3125 Q1323.3125,471.4063 1324,472.4844 Q1324.6875,473.5469 1326.0313,473.5469 Q1326.6563,473.5469 1327.25,473.2813 Q1327.8438,473 1328.4844,472.4219 L1328.4844,475.1406 Z " fill="#000000"/><text fill="#000000" font-family="sans-serif" font-size="14" lengthAdjust="spacing" textLength="180" x="1339.5" y="474.3467">IntervalChannelMetadata</text><line style="stroke:#181818;stroke-width:0.5;" x1="1311.5" x2="1521.5" y1="485.5" y2="485.5"/><text fill="#000000" font-family="sans-serif" font-size="14" lengthAdjust="spacing" textLength="154" x="1316.5" y="502.4951">trigger_interval : float</text><line style="stroke:#181818;stroke-width:0.5;" x1="1311.5" x2="1521.5" y1="509.7969" y2="509.7969"/></g><!--class ArrayChannelMetadata--><g id="elem_ArrayChannelMetadata"><rect codeLine="55" fill="#F1F1F1" height="48" id="ArrayChannelMetadata" rx="2.5" ry="2.5" style="stroke:#181818;stroke-width:0.5;" width="197" x="111" y="461.5"/><ellipse cx="126" cy="477.5" fill="#ADD1B2" rx="11" ry="11" style="stroke:#181818;stroke-width:1.0;"/><path d="M128.9844,483.1406 Q128.4063,483.4375 127.7656,483.5781 Q127.125,483.7344 126.4219,483.7344 Q123.9063,483.7344 122.5781,482.0938 Q121.2656,480.4375 121.2656,477.3125 Q121.2656,474.1719 122.5781,472.5313 Q123.9063,470.875 126.4219,470.875 Q127.125,470.875 127.7656,471.0313 Q128.4219,471.1719 128.9844,471.4688 L128.9844,474.1875 Q128.3438,473.6094 127.75,473.3438 Q127.1563,473.0781 126.5313,473.0781 Q125.1875,473.0781 124.5,474.1406 Q123.8125,475.2031 123.8125,477.3125 Q123.8125,479.4063 124.5,480.4844 Q125.1875,481.5469 126.5313,481.5469 Q127.1563,481.5469 127.75,481.2813 Q128.3438,481 128.9844,480.4219 L128.9844,483.1406 Z " fill="#000000"/><text fill="#000000" font-family="sans-serif" font-size="14" lengthAdjust="spacing" textLength="165" x="140" y="482.3467">ArrayChannelMetadata</text><line style="stroke:#181818;stroke-width:0.5;" x1="112" x2="307" y1="493.5" y2="493.5"/><line style="stroke:#181818;stroke-width:0.5;" x1="112" x2="307" y1="501.5" y2="501.5"/></g><!--class AreaChannelMetadata--><g id="elem_AreaChannelMetadata"><rect codeLine="58" fill="#F1F1F1" height="48" id="AreaChannelMetadata" rx="2.5" ry="2.5" style="stroke:#181818;stroke-width:0.5;" width="192" x="615.5" y="461.5"/><ellipse cx="630.5" cy="477.5" fill="#ADD1B2" rx="11" ry="11" style="stroke:#181818;stroke-width:1.0;"/><path d="M633.4844,483.1406 Q632.9063,483.4375 632.2656,483.5781 Q631.625,483.7344 630.9219,483.7344 Q628.4063,483.7344 627.0781,482.0938 Q625.7656,480.4375 625.7656,477.3125 Q625.7656,474.1719 627.0781,472.5313 Q628.4063,470.875 630.9219,470.875 Q631.625,470.875 632.2656,471.0313 Q632.9219,471.1719 633.4844,471.4688 L633.4844,474.1875 Q632.8438,473.6094 632.25,473.3438 Q631.6563,473.0781 631.0313,473.0781 Q629.6875,473.0781 629,474.1406 Q628.3125,475.2031 628.3125,477.3125 Q628.3125,479.4063 629,480.4844 Q629.6875,481.5469 631.0313,481.5469 Q631.6563,481.5469 632.25,481.2813 Q632.8438,481 633.4844,480.4219 L633.4844,483.1406 Z " fill="#000000"/><text fill="#000000" font-family="sans-serif" font-size="14" lengthAdjust="spacing" textLength="160" x="644.5" y="482.3467">AreaChannelMetadata</text><line style="stroke:#181818;stroke-width:0.5;" x1="616.5" x2="806.5" y1="493.5" y2="493.5"/><line style="stroke:#181818;stroke-width:0.5;" x1="616.5" x2="806.5" y1="501.5" y2="501.5"/></g><!--class NormalizedMetadata--><g id="elem_NormalizedMetadata"><rect codeLine="63" fill="#F1F1F1" height="64.2969" id="NormalizedMetadata" rx="2.5" ry="2.5" style="stroke:#181818;stroke-width:0.5;" width="180" x="842.5" y="453.5"/><ellipse cx="857.5" cy="469.5" fill="#B4A7E5" rx="11" ry="11" style="stroke:#181818;stroke-width:1.0;"/><path d="M853.4219,465.25 L853.4219,463.0938 L860.8125,463.0938 L860.8125,465.25 L858.3438,465.25 L858.3438,473.3438 L860.8125,473.3438 L860.8125,475.5 L853.4219,475.5 L853.4219,473.3438 L855.8906,473.3438 L855.8906,465.25 L853.4219,465.25 Z " fill="#000000"/><text fill="#000000" font-family="sans-serif" font-size="14" font-style="italic" lengthAdjust="spacing" textLength="148" x="871.5" y="474.3467">NormalizedMetadata</text><line style="stroke:#181818;stroke-width:0.5;" x1="843.5" x2="1021.5" y1="485.5" y2="485.5"/><text fill="#000000" font-family="sans-serif" font-size="14" lengthAdjust="spacing" textLength="144" x="848.5" y="502.4951">normalize_id : string</text><line style="stroke:#181818;stroke-width:0.5;" x1="843.5" x2="1021.5" y1="509.7969" y2="509.7969"/></g><!--class SinglePointNormalizedChannelMetadata--><g id="elem_SinglePointNormalizedChannelMetadata"><rect codeLine="67" fill="#F1F1F1" height="48" id="SinglePointNormalizedChannelMetadata" rx="2.5" ry="2.5" style="stroke:#181818;stroke-width:0.5;" width="318" x="404.5" y="602"/><ellipse cx="419.5" cy="618" fill="#ADD1B2" rx="11" ry="11" style="stroke:#181818;stroke-width:1.0;"/><path d="M422.4844,623.6406 Q421.9063,623.9375 421.2656,624.0781 Q420.625,624.2344 419.9219,624.2344 Q417.4063,624.2344 416.0781,622.5938 Q414.7656,620.9375 414.7656,617.8125 Q414.7656,614.6719 416.0781,613.0313 Q417.4063,611.375 419.9219,611.375 Q420.625,611.375 421.2656,611.5313 Q421.9219,611.6719 422.4844,611.9688 L422.4844,614.6875 Q421.8438,614.1094 421.25,613.8438 Q420.6563,613.5781 420.0313,613.5781 Q418.6875,613.5781 418,614.6406 Q417.3125,615.7031 417.3125,617.8125 Q417.3125,619.9063 418,620.9844 Q418.6875,622.0469 420.0313,622.0469 Q420.6563,622.0469 421.25,621.7813 Q421.8438,621.5 422.4844,620.9219 L422.4844,623.6406 Z " fill="#000000"/><text fill="#000000" font-family="sans-serif" font-size="14" lengthAdjust="spacing" textLength="286" x="433.5" y="622.8467">SinglePointNormalizedChannelMetadata</text><line style="stroke:#181818;stroke-width:0.5;" x1="405.5" x2="721.5" y1="634" y2="634"/><line style="stroke:#181818;stroke-width:0.5;" x1="405.5" x2="721.5" y1="642" y2="642"/></g><!--class AverageNormalizedChannelMetadata--><g id="elem_AverageNormalizedChannelMetadata"><rect codeLine="69" fill="#F1F1F1" height="48" id="AverageNormalizedChannelMetadata" rx="2.5" ry="2.5" style="stroke:#181818;stroke-width:0.5;" width="299" x="821" y="602"/><ellipse cx="836" cy="618" fill="#ADD1B2" rx="11" ry="11" style="stroke:#181818;stroke-width:1.0;"/><path d="M838.9844,623.6406 Q838.4063,623.9375 837.7656,624.0781 Q837.125,624.2344 836.4219,624.2344 Q833.9063,624.2344 832.5781,622.5938 Q831.2656,620.9375 831.2656,617.8125 Q831.2656,614.6719 832.5781,613.0313 Q833.9063,611.375 836.4219,611.375 Q837.125,611.375 837.7656,611.5313 Q838.4219,611.6719 838.9844,611.9688 L838.9844,614.6875 Q838.3438,614.1094 837.75,613.8438 Q837.1563,613.5781 836.5313,613.5781 Q835.1875,613.5781 834.5,614.6406 Q833.8125,615.7031 833.8125,617.8125 Q833.8125,619.9063 834.5,620.9844 Q835.1875,622.0469 836.5313,622.0469 Q837.1563,622.0469 837.75,621.7813 Q838.3438,621.5 838.9844,620.9219 L838.9844,623.6406 Z " fill="#000000"/><text fill="#000000" font-family="sans-serif" font-size="14" lengthAdjust="spacing" textLength="267" x="850" y="622.8467">AverageNormalizedChannelMetadata</text><line style="stroke:#181818;stroke-width:0.5;" x1="822" x2="1119" y1="634" y2="634"/><line style="stroke:#181818;stroke-width:0.5;" x1="822" x2="1119" y1="642" y2="642"/></g><!--class IntervalNormalizedChannelMetadata--><g id="elem_IntervalNormalizedChannelMetadata"><rect codeLine="71" fill="#F1F1F1" height="48" id="IntervalNormalizedChannelMetadata" rx="2.5" ry="2.5" style="stroke:#181818;stroke-width:0.5;" width="293" x="1231" y="602"/><ellipse cx="1246" cy="618" fill="#ADD1B2" rx="11" ry="11" style="stroke:#181818;stroke-width:1.0;"/><path d="M1248.9844,623.6406 Q1248.4063,623.9375 1247.7656,624.0781 Q1247.125,624.2344 1246.4219,624.2344 Q1243.9063,624.2344 1242.5781,622.5938 Q1241.2656,620.9375 1241.2656,617.8125 Q1241.2656,614.6719 1242.5781,613.0313 Q1243.9063,611.375 1246.4219,611.375 Q1247.125,611.375 1247.7656,611.5313 Q1248.4219,611.6719 1248.9844,611.9688 L1248.9844,614.6875 Q1248.3438,614.1094 1247.75,613.8438 Q1247.1563,613.5781 1246.5313,613.5781 Q1245.1875,613.5781 1244.5,614.6406 Q1243.8125,615.7031 1243.8125,617.8125 Q1243.8125,619.9063 1244.5,620.9844 Q1245.1875,622.0469 1246.5313,622.0469 Q1247.1563,622.0469 1247.75,621.7813 Q1248.3438,621.5 1248.9844,620.9219 L1248.9844,623.6406 Z " fill="#000000"/><text fill="#000000" font-family="sans-serif" font-size="14" lengthAdjust="spacing" textLength="261" x="1260" y="622.8467">IntervalNormalizedChannelMetadata</text><line style="stroke:#181818;stroke-width:0.5;" x1="1232" x2="1523" y1="634" y2="634"/><line style="stroke:#181818;stroke-width:0.5;" x1="1232" x2="1523" y1="642" y2="642"/></g><!--reverse link Metadata to MeasureMetadata--><g id="link_Metadata_MeasureMetadata"><path d="M258.7981,88.3629 C264.3781,91.1629 253.95,85.72 259.5,88 C353.24,126.53 384.6,112.41 479.5,148 C492.16,152.75 505.39,158.55 517.89,164.44 " fill="none" id="Metadata-backto-MeasureMetadata" style="stroke:#181818;stroke-width:1.0;"/><polygon fill="none" points="242.71,80.29,256.1072,93.7256,261.4891,83.0002,242.71,80.29" style="stroke:#181818;stroke-width:1.0;"/></g><!--reverse link Metadata to MonitorMetadata--><g id="link_Metadata_MonitorMetadata"><path d="M186.0896,106.1387 C182.4896,167.1387 176.75,264.07 173.86,312.99 " fill="none" id="Metadata-backto-MonitorMetadata" style="stroke:#181818;stroke-width:1.0;"/><polygon fill="none" points="187.15,88.17,180.1,105.7853,192.0791,106.4922,187.15,88.17" style="stroke:#181818;stroke-width:1.0;"/></g><!--reverse link AbstractDeviceMetadata to MonitorMetadata--><g id="link_AbstractDeviceMetadata_MonitorMetadata"><path d="M280.0535,255.9112 C249.2635,278.8412 228.2,294.52 203.46,312.94 " fill="none" id="AbstractDeviceMetadata-backto-MonitorMetadata" style="stroke:#181818;stroke-width:1.0;stroke-dasharray:7.0,7.0;"/><polygon fill="none" points="294.49,245.16,276.4698,251.099,283.6372,260.7233,294.49,245.16" style="stroke:#181818;stroke-width:1.0;"/></g><!--reverse link MeasureMetadata to DeviceMetadata--><g id="link_MeasureMetadata_DeviceMetadata"><path d="M513.1369,238.2009 C472.6569,263.8009 431.39,289.91 394.88,313 " fill="none" id="MeasureMetadata-backto-DeviceMetadata" style="stroke:#181818;stroke-width:1.0;"/><polygon fill="none" points="528.35,228.58,509.9299,233.1299,516.3439,243.2719,528.35,228.58" style="stroke:#181818;stroke-width:1.0;"/></g><!--reverse link AbstractDeviceMetadata to DeviceMetadata--><g id="link_AbstractDeviceMetadata_DeviceMetadata"><path d="M358.5,263.16 C358.5,286.01 358.5,294.34 358.5,312.75 " fill="none" id="AbstractDeviceMetadata-backto-DeviceMetadata" style="stroke:#181818;stroke-width:1.0;stroke-dasharray:7.0,7.0;"/><polygon fill="none" points="358.5,245.16,352.5,263.16,364.5,263.16,358.5,245.16" style="stroke:#181818;stroke-width:1.0;"/></g><!--reverse link MeasureMetadata to AxisMetadata--><g id="link_MeasureMetadata_AxisMetadata"><path d="M561.8373,245.6989 C554.4773,268.3489 550.11,281.81 542.72,304.54 " fill="none" id="MeasureMetadata-backto-AxisMetadata" style="stroke:#181818;stroke-width:1.0;"/><polygon fill="none" points="567.4,228.58,556.131,243.8447,567.5436,247.5531,567.4,228.58" style="stroke:#181818;stroke-width:1.0;"/></g><!--reverse link AbstractDeviceMetadata to AxisMetadata--><g id="link_AbstractDeviceMetadata_AxisMetadata"><path d="M432.4621,256.3713 C457.3321,276.1713 471.41,287.37 493.53,304.98 " fill="none" id="AbstractDeviceMetadata-backto-AxisMetadata" style="stroke:#181818;stroke-width:1.0;stroke-dasharray:7.0,7.0;"/><polygon fill="none" points="418.38,245.16,428.725,261.0654,436.1992,251.6773,418.38,245.16" style="stroke:#181818;stroke-width:1.0;"/></g><!--reverse link MeasureMetadata to ChannelMetadata--><g id="link_MeasureMetadata_ChannelMetadata"><path d="M620.0858,241.5166 C644.7758,267.0366 666.69,289.68 689.03,312.78 " fill="none" id="MeasureMetadata-backto-ChannelMetadata" style="stroke:#181818;stroke-width:1.0;"/><polygon fill="none" points="607.57,228.58,615.7736,245.6885,624.398,237.3446,607.57,228.58" style="stroke:#181818;stroke-width:1.0;"/></g><!--reverse link AbstractDeviceMetadata to ChannelMetadata--><g id="link_AbstractDeviceMetadata_ChannelMetadata"><path d="M478.8835,244.7617 C484.7635,247.0717 473.83,242.77 479.5,245 C538.3,268.07 605.49,294.43 652.38,312.82 " fill="none" id="AbstractDeviceMetadata-backto-ChannelMetadata" style="stroke:#181818;stroke-width:1.0;stroke-dasharray:7.0,7.0;"/><polygon fill="none" points="462.13,238.18,476.6896,250.3463,481.0774,239.1772,462.13,238.18" style="stroke:#181818;stroke-width:1.0;"/></g><!--reverse link MeasureMetadata to TimestampMetadata--><g id="link_MeasureMetadata_TimestampMetadata"><path d="M670.0061,235.4045 C732.4861,261.0045 803.01,289.91 859.36,313 " fill="none" id="MeasureMetadata-backto-TimestampMetadata" style="stroke:#181818;stroke-width:1.0;"/><polygon fill="none" points="653.35,228.58,667.7313,240.9566,672.2809,229.8525,653.35,228.58" style="stroke:#181818;stroke-width:1.0;"/></g><!--reverse link ChannelMetadata to SinglePointChannelMetadata--><g id="link_ChannelMetadata_SinglePointChannelMetadata"><path d="M656.6307,370.1517 C609.8807,397.5517 547.85,433.9 501.02,461.34 " fill="none" id="ChannelMetadata-backto-SinglePointChannelMetadata" style="stroke:#181818;stroke-width:1.0;"/><polygon fill="none" points="672.16,361.05,653.5968,364.9752,659.6646,375.3281,672.16,361.05" style="stroke:#181818;stroke-width:1.0;"/></g><!--reverse link ChannelMetadata to AverageChannelMetadata--><g id="link_ChannelMetadata_AverageChannelMetadata"><path d="M799.2827,366.3903 C808.1527,369.1403 799.92,366.52 808.5,369 C910.39,398.49 939.26,394.32 1039.5,429 C1045.41,431.05 1051.43,433.25 1057.48,435.55 " fill="none" id="ChannelMetadata-backto-AverageChannelMetadata" style="stroke:#181818;stroke-width:1.0;"/><polygon fill="none" points="782.09,361.06,797.5059,372.1212,801.0594,360.6594,782.09,361.06" style="stroke:#181818;stroke-width:1.0;"/></g><!--reverse link ChannelMetadata to IntervalChannelMetadata--><g id="link_ChannelMetadata_IntervalChannelMetadata"><path d="M795.3789,366.1581 C805.4789,369.1281 798.57,366.82 808.5,369 C1020.21,415.53 1083.72,370.75 1292.5,429 C1314.08,435.02 1336.72,444.22 1356.66,453.4 " fill="none" id="ChannelMetadata-backto-IntervalChannelMetadata" style="stroke:#181818;stroke-width:1.0;"/><polygon fill="none" points="778.11,361.08,793.6862,371.9144,797.0715,360.4018,778.11,361.08" style="stroke:#181818;stroke-width:1.0;"/></g><!--reverse link ChannelMetadata to ArrayChannelMetadata--><g id="link_ChannelMetadata_ArrayChannelMetadata"><path d="M625.1214,366.2829 C615.8014,369.1029 623.56,366.62 614.5,369 C487.63,402.35 449.8,387.05 325.5,429 C300.12,437.57 273.04,450.3 251.44,461.4 " fill="none" id="ChannelMetadata-backto-ArrayChannelMetadata" style="stroke:#181818;stroke-width:1.0;"/><polygon fill="none" points="642.35,361.07,623.3837,360.5401,626.859,372.0258,642.35,361.07" style="stroke:#181818;stroke-width:1.0;"/></g><!--reverse link ChannelMetadata to AreaChannelMetadata--><g id="link_ChannelMetadata_AreaChannelMetadata"><path d="M711.5,379.21 C711.5,406.65 711.5,434.01 711.5,461.4 " fill="none" id="ChannelMetadata-backto-AreaChannelMetadata" style="stroke:#181818;stroke-width:1.0;"/><polygon fill="none" points="711.5,361.21,705.5,379.21,717.5,379.21,711.5,361.21" style="stroke:#181818;stroke-width:1.0;"/></g><!--reverse link Data to Metadata--><g id="link_Data_Metadata"><path codeLine="61" d="M113.59,47.5 C125.15,47.5 124.71,47.5 136.27,47.5 " fill="none" id="Data-backto-Metadata" style="stroke:#181818;stroke-width:1.0;"/><polygon fill="#181818" points="101.59,47.5,107.59,51.5,113.59,47.5,107.59,43.5,101.59,47.5" style="stroke:#181818;stroke-width:1.0;"/></g><!--reverse link SinglePointChannelMetadata to SinglePointNormalizedChannelMetadata--><g id="link_SinglePointChannelMetadata_SinglePointNormalizedChannelMetadata"><path d="M489.2435,524.174 C508.0735,549.744 527.52,576.15 546.37,601.74 " fill="none" id="SinglePointChannelMetadata-backto-SinglePointNormalizedChannelMetadata" style="stroke:#181818;stroke-width:1.0;"/><polygon fill="none" points="478.57,509.68,484.4122,527.7318,494.0749,520.6162,478.57,509.68" style="stroke:#181818;stroke-width:1.0;"/></g><!--reverse link NormalizedMetadata to SinglePointNormalizedChannelMetadata--><g id="link_NormalizedMetadata_SinglePointNormalizedChannelMetadata"><path d="M860.4585,525.8127 C843.9885,534.3227 841.75,534.88 824.5,542 C766.92,565.76 699.92,586.93 648.23,601.95 " fill="none" id="NormalizedMetadata-backto-SinglePointNormalizedChannelMetadata" style="stroke:#181818;stroke-width:1.0;stroke-dasharray:7.0,7.0;"/><polygon fill="none" points="876.45,517.55,857.7043,520.4823,863.2128,531.1432,876.45,517.55" style="stroke:#181818;stroke-width:1.0;"/></g><!--reverse link AverageChannelMetadata to AverageNormalizedChannelMetadata--><g id="link_AverageChannelMetadata_AverageNormalizedChannelMetadata"><path d="M1073.209,552.4265 C1043.599,573.3465 1026.23,585.62 1003.1,601.96 " fill="none" id="AverageChannelMetadata-backto-AverageNormalizedChannelMetadata" style="stroke:#181818;stroke-width:1.0;"/><polygon fill="none" points="1087.91,542.04,1069.7468,547.5262,1076.6712,557.3269,1087.91,542.04" style="stroke:#181818;stroke-width:1.0;"/></g><!--reverse link NormalizedMetadata to AverageNormalizedChannelMetadata--><g id="link_NormalizedMetadata_AverageNormalizedChannelMetadata"><path d="M945.7914,534.9388 C952.7914,560.4588 957.79,578.68 964.13,601.78 " fill="none" id="NormalizedMetadata-backto-AverageNormalizedChannelMetadata" style="stroke:#181818;stroke-width:1.0;stroke-dasharray:7.0,7.0;"/><polygon fill="none" points="941.03,517.58,940.0052,536.526,951.5777,533.3517,941.03,517.58" style="stroke:#181818;stroke-width:1.0;"/></g><!--reverse link IntervalChannelMetadata to IntervalNormalizedChannelMetadata--><g id="link_IntervalChannelMetadata_IntervalNormalizedChannelMetadata"><path d="M1402.8687,534.9055 C1395.6787,560.4255 1390.54,578.68 1384.04,601.78 " fill="none" id="IntervalChannelMetadata-backto-IntervalNormalizedChannelMetadata" style="stroke:#181818;stroke-width:1.0;"/><polygon fill="none" points="1407.75,517.58,1397.0935,533.2784,1408.6439,536.5326,1407.75,517.58" style="stroke:#181818;stroke-width:1.0;"/></g><!--reverse link NormalizedMetadata to IntervalNormalizedChannelMetadata--><g id="link_NormalizedMetadata_IntervalNormalizedChannelMetadata"><path d="M1002.2718,525.9671 C1018.9318,534.7271 1021.68,535.3 1039.5,542 C1108.64,568 1188.83,588.09 1253.74,601.99 " fill="none" id="NormalizedMetadata-backto-IntervalNormalizedChannelMetadata" style="stroke:#181818;stroke-width:1.0;stroke-dasharray:7.0,7.0;"/><polygon fill="none" points="986.34,517.59,999.4795,531.2777,1005.0642,520.6565,986.34,517.59" style="stroke:#181818;stroke-width:1.0;"/></g><!--SRC=[hLJBRjim4BphAmXV2XHfFi0texxqaAP0SYmWhCcLn88FWLo_6kJVkwHbIvQjsW4YG0VjOtOqEwGq4ADuGW851EAj4Fmui2Zc8bBGhiuHtvBsBd9GQKd5U-4yeGYwRaZuwjG_dtU5kUcrGIwlAWpe98eLqXRHYTciAvhDHCCveLrF09mwA-3SCW5dmEUEHHSK6mXxqJ8JHngCsOlA1u4W6v6nMgyTFV2CD1r2UWFiuqF6sZRQuEc_pYXmPPHW86Gsohil96G3hiOy00x3_UeFIdeia6kI6aKXivRBWuwTH2jFvErSl63I0ke0De7yTdcKzMfjyB4ec2Y62fZdOiMoWwGbRhJ4qMAqEbzBkpd_1Yannf9X1_jxFp9xGeZhq6FYZfLJ5zjVEqtNkZt7VPZkrhOrQ7aNSVedJcYZJ0zsJl4svX1qiTFnSo2J3Wf1hP83vg8o7gYVyvtDuD1yCljNRJ4IsFOcxg3fXNTay5To-XIhSVojrsk30Mgyk_5mEPHmQ4ktGV9jZI4dZD-MHjjideDWAMfXLm8HsfR63IcbM0z8P_1IvH_fJ6p0V8mUkxRc0QNkkYzn5-aMk1zqq8VmeRPy4tpzTZeXmsF-qmSBHlz5DPRtc2Y7X_tQldk8ALR_CSV0cjUeZ2roUzQ4b-wTSrpsxK5JjhWvwHy0]--></g></svg>