<?xml version="1.0" encoding="us-ascii" standalone="no"?><svg xmlns="http://www.w3.org/2000/svg" xmlns:xlink="http://www.w3.org/1999/xlink" contentStyleType="text/css" height="742px" preserveAspectRatio="none" style="width:843px;height:742px;background:#FFFFFF;" version="1.1" viewBox="0 0 843 742" width="843px" zoomAndPan="magnify"><defs/><g><!--cluster measurement--><g id="cluster_measurement"><path d="M8.5,6 L120.5,6 A3.75,3.75 0 0 1 123,8.5 L130,28.2969 L833.5,28.2969 A2.5,2.5 0 0 1 836,30.7969 L836,317.5 A2.5,2.5 0 0 1 833.5,320 L8.5,320 A2.5,2.5 0 0 1 6,317.5 L6,8.5 A2.5,2.5 0 0 1 8.5,6 " fill="none" style="stroke:#000000;stroke-width:1.5;"/><line style="stroke:#000000;stroke-width:1.5;" x1="6" x2="130" y1="28.2969" y2="28.2969"/><text fill="#000000" font-family="sans-serif" font-size="14" font-weight="bold" lengthAdjust="spacing" textLength="111" x="10" y="20.9951">measurement</text></g><!--cluster entities--><g id="cluster_entities"><path d="M32.5,49 L95.5,49 A3.75,3.75 0 0 1 98,51.5 L105,71.2969 L809.5,71.2969 A2.5,2.5 0 0 1 812,73.7969 L812,293.5 A2.5,2.5 0 0 1 809.5,296 L32.5,296 A2.5,2.5 0 0 1 30,293.5 L30,51.5 A2.5,2.5 0 0 1 32.5,49 " fill="none" style="stroke:#000000;stroke-width:1.5;"/><line style="stroke:#000000;stroke-width:1.5;" x1="30" x2="105" y1="71.2969" y2="71.2969"/><text fill="#000000" font-family="sans-serif" font-size="14" font-weight="bold" lengthAdjust="spacing" textLength="62" x="34" y="63.9951">entities</text></g><!--cluster measurement--><g id="cluster_measurement"><path d="M212.5,92 L324.5,92 A3.75,3.75 0 0 1 327,94.5 L334,114.2969 L785.5,114.2969 A2.5,2.5 0 0 1 788,116.7969 L788,269.5 A2.5,2.5 0 0 1 785.5,272 L212.5,272 A2.5,2.5 0 0 1 210,269.5 L210,94.5 A2.5,2.5 0 0 1 212.5,92 " fill="none" style="stroke:#000000;stroke-width:1.5;"/><line style="stroke:#000000;stroke-width:1.5;" x1="210" x2="334" y1="114.2969" y2="114.2969"/><text fill="#000000" font-family="sans-serif" font-size="14" font-weight="bold" lengthAdjust="spacing" textLength="111" x="214" y="106.9951">measurement</text></g><!--cluster metadata--><g id="cluster_metadata"><path d="M56.5,132.5 L133.5,132.5 A3.75,3.75 0 0 1 136,135 L143,154.7969 L183.5,154.7969 A2.5,2.5 0 0 1 186,157.2969 L186,229 A2.5,2.5 0 0 1 183.5,231.5 L56.5,231.5 A2.5,2.5 0 0 1 54,229 L54,135 A2.5,2.5 0 0 1 56.5,132.5 " fill="none" style="stroke:#000000;stroke-width:1.5;"/><line style="stroke:#000000;stroke-width:1.5;" x1="54" x2="143" y1="154.7969" y2="154.7969"/><text fill="#000000" font-family="sans-serif" font-size="14" font-weight="bold" lengthAdjust="spacing" textLength="76" x="58" y="147.4951">metadata</text></g><!--cluster evefile--><g id="cluster_evefile"><path d="M498.5,344 L554.5,344 A3.75,3.75 0 0 1 557,346.5 L564,366.2969 L797.5,366.2969 A2.5,2.5 0 0 1 800,368.7969 L800,574.5 A2.5,2.5 0 0 1 797.5,577 L498.5,577 A2.5,2.5 0 0 1 496,574.5 L496,346.5 A2.5,2.5 0 0 1 498.5,344 " fill="none" style="stroke:#000000;stroke-width:1.5;"/><line style="stroke:#000000;stroke-width:1.5;" x1="496" x2="564" y1="366.2969" y2="366.2969"/><text fill="#000000" font-family="sans-serif" font-size="14" font-weight="bold" lengthAdjust="spacing" textLength="55" x="500" y="358.9951">evefile</text></g><!--cluster entities--><g id="cluster_entities"><path d="M522.5,387 L585.5,387 A3.75,3.75 0 0 1 588,389.5 L595,409.2969 L773.5,409.2969 A2.5,2.5 0 0 1 776,411.7969 L776,550.5 A2.5,2.5 0 0 1 773.5,553 L522.5,553 A2.5,2.5 0 0 1 520,550.5 L520,389.5 A2.5,2.5 0 0 1 522.5,387 " fill="none" style="stroke:#000000;stroke-width:1.5;"/><line style="stroke:#000000;stroke-width:1.5;" x1="520" x2="595" y1="409.2969" y2="409.2969"/><text fill="#000000" font-family="sans-serif" font-size="14" font-weight="bold" lengthAdjust="spacing" textLength="62" x="524" y="401.9951">entities</text></g><!--cluster file--><g id="cluster_file"><path d="M546.5,430 L573.5,430 A3.75,3.75 0 0 1 576,432.5 L583,452.2969 L749.5,452.2969 A2.5,2.5 0 0 1 752,454.7969 L752,526.5 A2.5,2.5 0 0 1 749.5,529 L546.5,529 A2.5,2.5 0 0 1 544,526.5 L544,432.5 A2.5,2.5 0 0 1 546.5,430 " fill="none" style="stroke:#000000;stroke-width:1.5;"/><line style="stroke:#000000;stroke-width:1.5;" x1="544" x2="583" y1="452.2969" y2="452.2969"/><text fill="#000000" font-family="sans-serif" font-size="14" font-weight="bold" lengthAdjust="spacing" textLength="26" x="548" y="444.9951">file</text></g><!--class Measurement--><g id="elem_Measurement"><rect fill="#F1F1F1" height="48" id="Measurement" rx="2.5" ry="2.5" style="stroke:#181818;stroke-width:0.5;" width="130" x="226" y="167.5"/><ellipse cx="241" cy="183.5" fill="#ADD1B2" rx="11" ry="11" style="stroke:#181818;stroke-width:1.0;"/><path d="M243.9844,189.1406 Q243.4063,189.4375 242.7656,189.5781 Q242.125,189.7344 241.4219,189.7344 Q238.9063,189.7344 237.5781,188.0938 Q236.2656,186.4375 236.2656,183.3125 Q236.2656,180.1719 237.5781,178.5313 Q238.9063,176.875 241.4219,176.875 Q242.125,176.875 242.7656,177.0313 Q243.4219,177.1719 243.9844,177.4688 L243.9844,180.1875 Q243.3438,179.6094 242.75,179.3438 Q242.1563,179.0781 241.5313,179.0781 Q240.1875,179.0781 239.5,180.1406 Q238.8125,181.2031 238.8125,183.3125 Q238.8125,185.4063 239.5,186.4844 Q240.1875,187.5469 241.5313,187.5469 Q242.1563,187.5469 242.75,187.2813 Q243.3438,187 243.9844,186.4219 L243.9844,189.1406 Z " fill="#000000"/><text fill="#000000" font-family="sans-serif" font-size="14" lengthAdjust="spacing" textLength="98" x="255" y="188.3467">Measurement</text><line style="stroke:#181818;stroke-width:0.5;" x1="227" x2="355" y1="199.5" y2="199.5"/><line style="stroke:#181818;stroke-width:0.5;" x1="227" x2="355" y1="207.5" y2="207.5"/></g><!--class Data--><g id="elem_Data"><rect codeLine="35" fill="#F1F1F1" height="96.8906" id="Data" rx="2.5" ry="2.5" style="stroke:#181818;stroke-width:0.5;" width="210" x="391" y="143"/><ellipse cx="474.75" cy="159" fill="#ADD1B2" rx="11" ry="11" style="stroke:#181818;stroke-width:1.0;"/><path d="M477.7344,164.6406 Q477.1563,164.9375 476.5156,165.0781 Q475.875,165.2344 475.1719,165.2344 Q472.6563,165.2344 471.3281,163.5938 Q470.0156,161.9375 470.0156,158.8125 Q470.0156,155.6719 471.3281,154.0313 Q472.6563,152.375 475.1719,152.375 Q475.875,152.375 476.5156,152.5313 Q477.1719,152.6719 477.7344,152.9688 L477.7344,155.6875 Q477.0938,155.1094 476.5,154.8438 Q475.9063,154.5781 475.2813,154.5781 Q473.9375,154.5781 473.25,155.6406 Q472.5625,156.7031 472.5625,158.8125 Q472.5625,160.9063 473.25,161.9844 Q473.9375,163.0469 475.2813,163.0469 Q475.9063,163.0469 476.5,162.7813 Q477.0938,162.5 477.7344,161.9219 L477.7344,164.6406 Z " fill="#000000"/><text fill="#000000" font-family="sans-serif" font-size="14" lengthAdjust="spacing" textLength="34" x="495.25" y="163.8467">Data</text><line style="stroke:#181818;stroke-width:0.5;" x1="392" x2="600" y1="175" y2="175"/><text fill="#000000" font-family="sans-serif" font-size="14" lengthAdjust="spacing" textLength="123" x="397" y="191.9951">data : np.ndarray</text><text fill="#000000" font-family="sans-serif" font-size="14" lengthAdjust="spacing" textLength="115" x="397" y="208.292">axes[]: AxisData</text><text fill="#000000" font-family="sans-serif" font-size="14" lengthAdjust="spacing" textLength="198" x="397" y="224.5889">metadata : DeviceMetadata</text><line style="stroke:#181818;stroke-width:0.5;" x1="392" x2="600" y1="231.8906" y2="231.8906"/></g><!--class Axis--><g id="elem_Axis"><rect codeLine="41" fill="#F1F1F1" height="129.4844" id="Axis" rx="2.5" ry="2.5" style="stroke:#181818;stroke-width:0.5;" width="135" x="636.5" y="127"/><ellipse cx="685.25" cy="143" fill="#ADD1B2" rx="11" ry="11" style="stroke:#181818;stroke-width:1.0;"/><path d="M688.2344,148.6406 Q687.6563,148.9375 687.0156,149.0781 Q686.375,149.2344 685.6719,149.2344 Q683.1563,149.2344 681.8281,147.5938 Q680.5156,145.9375 680.5156,142.8125 Q680.5156,139.6719 681.8281,138.0313 Q683.1563,136.375 685.6719,136.375 Q686.375,136.375 687.0156,136.5313 Q687.6719,136.6719 688.2344,136.9688 L688.2344,139.6875 Q687.5938,139.1094 687,138.8438 Q686.4063,138.5781 685.7813,138.5781 Q684.4375,138.5781 683.75,139.6406 Q683.0625,140.7031 683.0625,142.8125 Q683.0625,144.9063 683.75,145.9844 Q684.4375,147.0469 685.7813,147.0469 Q686.4063,147.0469 687,146.7813 Q687.5938,146.5 688.2344,145.9219 L688.2344,148.6406 Z " fill="#000000"/><text fill="#000000" font-family="sans-serif" font-size="14" lengthAdjust="spacing" textLength="29" x="705.75" y="147.8467">Axis</text><line style="stroke:#181818;stroke-width:0.5;" x1="637.5" x2="770.5" y1="159" y2="159"/><text fill="#000000" font-family="sans-serif" font-size="14" lengthAdjust="spacing" textLength="123" x="642.5" y="175.9951">data : np.ndarray</text><text fill="#000000" font-family="sans-serif" font-size="14" lengthAdjust="spacing" textLength="84" x="642.5" y="192.292">label: string</text><text fill="#000000" font-family="sans-serif" font-size="14" lengthAdjust="spacing" textLength="116" x="642.5" y="208.5889">measure : string</text><text fill="#000000" font-family="sans-serif" font-size="14" lengthAdjust="spacing" textLength="104" x="642.5" y="224.8857">symbol : string</text><text fill="#000000" font-family="sans-serif" font-size="14" lengthAdjust="spacing" textLength="80" x="642.5" y="241.1826">unit : string</text><line style="stroke:#181818;stroke-width:0.5;" x1="637.5" x2="770.5" y1="248.4844" y2="248.4844"/></g><!--class Metadata--><g id="elem_Metadata"><rect fill="#F1F1F1" height="48" id="Metadata" rx="2.5" ry="2.5" style="stroke:#181818;stroke-width:0.5;" width="99" x="70.5" y="167.5"/><ellipse cx="85.5" cy="183.5" fill="#ADD1B2" rx="11" ry="11" style="stroke:#181818;stroke-width:1.0;"/><path d="M88.4844,189.1406 Q87.9063,189.4375 87.2656,189.5781 Q86.625,189.7344 85.9219,189.7344 Q83.4063,189.7344 82.0781,188.0938 Q80.7656,186.4375 80.7656,183.3125 Q80.7656,180.1719 82.0781,178.5313 Q83.4063,176.875 85.9219,176.875 Q86.625,176.875 87.2656,177.0313 Q87.9219,177.1719 88.4844,177.4688 L88.4844,180.1875 Q87.8438,179.6094 87.25,179.3438 Q86.6563,179.0781 86.0313,179.0781 Q84.6875,179.0781 84,180.1406 Q83.3125,181.2031 83.3125,183.3125 Q83.3125,185.4063 84,186.4844 Q84.6875,187.5469 86.0313,187.5469 Q86.6563,187.5469 87.25,187.2813 Q87.8438,187 88.4844,186.4219 L88.4844,189.1406 Z " fill="#000000"/><text fill="#000000" font-family="sans-serif" font-size="14" lengthAdjust="spacing" textLength="67" x="99.5" y="188.3467">Metadata</text><line style="stroke:#181818;stroke-width:0.5;" x1="71.5" x2="168.5" y1="199.5" y2="199.5"/><line style="stroke:#181818;stroke-width:0.5;" x1="71.5" x2="168.5" y1="207.5" y2="207.5"/></g><!--class Scan--><g id="elem_Scan"><rect codeLine="25" fill="#F1F1F1" height="48" id="Scan" rx="2.5" ry="2.5" style="stroke:#181818;stroke-width:0.5;" width="67" x="560.5" y="465"/><ellipse cx="575.5" cy="481" fill="#ADD1B2" rx="11" ry="11" style="stroke:#181818;stroke-width:1.0;"/><path d="M578.4844,486.6406 Q577.9063,486.9375 577.2656,487.0781 Q576.625,487.2344 575.9219,487.2344 Q573.4063,487.2344 572.0781,485.5938 Q570.7656,483.9375 570.7656,480.8125 Q570.7656,477.6719 572.0781,476.0313 Q573.4063,474.375 575.9219,474.375 Q576.625,474.375 577.2656,474.5313 Q577.9219,474.6719 578.4844,474.9688 L578.4844,477.6875 Q577.8438,477.1094 577.25,476.8438 Q576.6563,476.5781 576.0313,476.5781 Q574.6875,476.5781 574,477.6406 Q573.3125,478.7031 573.3125,480.8125 Q573.3125,482.9063 574,483.9844 Q574.6875,485.0469 576.0313,485.0469 Q576.6563,485.0469 577.25,484.7813 Q577.8438,484.5 578.4844,483.9219 L578.4844,486.6406 Z " fill="#000000"/><text fill="#000000" font-family="sans-serif" font-size="14" lengthAdjust="spacing" textLength="35" x="589.5" y="485.8467">Scan</text><line style="stroke:#181818;stroke-width:0.5;" x1="561.5" x2="626.5" y1="497" y2="497"/><line style="stroke:#181818;stroke-width:0.5;" x1="561.5" x2="626.5" y1="505" y2="505"/></g><!--class Setup--><g id="elem_Setup"><rect codeLine="28" fill="#F1F1F1" height="48" id="Setup" rx="2.5" ry="2.5" style="stroke:#181818;stroke-width:0.5;" width="73" x="662.5" y="465"/><ellipse cx="677.5" cy="481" fill="#ADD1B2" rx="11" ry="11" style="stroke:#181818;stroke-width:1.0;"/><path d="M680.4844,486.6406 Q679.9063,486.9375 679.2656,487.0781 Q678.625,487.2344 677.9219,487.2344 Q675.4063,487.2344 674.0781,485.5938 Q672.7656,483.9375 672.7656,480.8125 Q672.7656,477.6719 674.0781,476.0313 Q675.4063,474.375 677.9219,474.375 Q678.625,474.375 679.2656,474.5313 Q679.9219,474.6719 680.4844,474.9688 L680.4844,477.6875 Q679.8438,477.1094 679.25,476.8438 Q678.6563,476.5781 678.0313,476.5781 Q676.6875,476.5781 676,477.6406 Q675.3125,478.7031 675.3125,480.8125 Q675.3125,482.9063 676,483.9844 Q676.6875,485.0469 678.0313,485.0469 Q678.6563,485.0469 679.25,484.7813 Q679.8438,484.5 680.4844,483.9219 L680.4844,486.6406 Z " fill="#000000"/><text fill="#000000" font-family="sans-serif" font-size="14" lengthAdjust="spacing" textLength="41" x="691.5" y="485.8467">Setup</text><line style="stroke:#181818;stroke-width:0.5;" x1="663.5" x2="734.5" y1="497" y2="497"/><line style="stroke:#181818;stroke-width:0.5;" x1="663.5" x2="734.5" y1="505" y2="505"/></g><!--class Measurement--><g id="elem_Measurement"><rect codeLine="3" fill="#F1F1F1" height="276.1563" id="Measurement" rx="2.5" ry="2.5" style="stroke:#181818;stroke-width:0.5;" width="306" x="174" y="351"/><ellipse cx="273.75" cy="367" fill="#ADD1B2" rx="11" ry="11" style="stroke:#181818;stroke-width:1.0;"/><path d="M276.7344,372.6406 Q276.1563,372.9375 275.5156,373.0781 Q274.875,373.2344 274.1719,373.2344 Q271.6563,373.2344 270.3281,371.5938 Q269.0156,369.9375 269.0156,366.8125 Q269.0156,363.6719 270.3281,362.0313 Q271.6563,360.375 274.1719,360.375 Q274.875,360.375 275.5156,360.5313 Q276.1719,360.6719 276.7344,360.9688 L276.7344,363.6875 Q276.0938,363.1094 275.5,362.8438 Q274.9063,362.5781 274.2813,362.5781 Q272.9375,362.5781 272.25,363.6406 Q271.5625,364.7031 271.5625,366.8125 Q271.5625,368.9063 272.25,369.9844 Q272.9375,371.0469 274.2813,371.0469 Q274.9063,371.0469 275.5,370.7813 Q276.0938,370.5 276.7344,369.9219 L276.7344,372.6406 Z " fill="#000000"/><text fill="#000000" font-family="sans-serif" font-size="14" lengthAdjust="spacing" textLength="98" x="294.25" y="371.8467">Measurement</text><line style="stroke:#181818;stroke-width:0.5;" x1="175" x2="479" y1="383" y2="383"/><text fill="#000000" font-family="sans-serif" font-size="14" lengthAdjust="spacing" textLength="191" x="180" y="399.9951">detectors{} : ChannelData</text><text fill="#000000" font-family="sans-serif" font-size="14" lengthAdjust="spacing" textLength="144" x="180" y="416.292">motors{} : AxisData</text><text fill="#000000" font-family="sans-serif" font-size="14" lengthAdjust="spacing" textLength="289" x="180" y="432.5889">machine{} : MeasureData | MonitorData</text><text fill="#000000" font-family="sans-serif" font-size="14" lengthAdjust="spacing" textLength="294" x="180" y="448.8857">beamline{} : MeasureData | MonitorData</text><text fill="#000000" font-family="sans-serif" font-size="14" lengthAdjust="spacing" textLength="149" x="180" y="465.1826">metadata : Metadata</text><text fill="#000000" font-family="sans-serif" font-size="14" lengthAdjust="spacing" textLength="81" x="180" y="481.4795">scan : Scan</text><text fill="#000000" font-family="sans-serif" font-size="14" lengthAdjust="spacing" textLength="93" x="180" y="497.7764">setup : Setup</text><text fill="#000000" font-family="sans-serif" font-size="14" lengthAdjust="spacing" textLength="211" x="180" y="514.0732">log_messages[] : LogMessage</text><text fill="#000000" font-family="sans-serif" font-size="14" lengthAdjust="spacing" textLength="79" x="180" y="530.3701">data : Data</text><line style="stroke:#181818;stroke-width:0.5;" x1="175" x2="479" y1="537.6719" y2="537.6719"/><text fill="#000000" font-family="sans-serif" font-size="14" lengthAdjust="spacing" textLength="104" x="180" y="554.667">load(filename)</text><text fill="#000000" font-family="sans-serif" font-size="14" lengthAdjust="spacing" textLength="106" x="180" y="570.9639">save(filename)</text><text fill="#000000" font-family="sans-serif" font-size="14" lengthAdjust="spacing" textLength="175" x="180" y="587.2607">export(filename, format)</text><text fill="#000000" font-family="sans-serif" font-size="14" lengthAdjust="spacing" textLength="150" x="180" y="603.5576">set_data(name, field)</text><text fill="#000000" font-family="sans-serif" font-size="14" lengthAdjust="spacing" textLength="122" x="180" y="619.8545">set_axes(name[])</text></g><!--class Scan--><g id="elem_Scan"><rect codeLine="31" fill="#F1F1F1" height="48" id="Scan" rx="2.5" ry="2.5" style="stroke:#181818;stroke-width:0.5;" width="67" x="426.5" y="687"/><ellipse cx="441.5" cy="703" fill="#ADD1B2" rx="11" ry="11" style="stroke:#181818;stroke-width:1.0;"/><path d="M444.4844,708.6406 Q443.9063,708.9375 443.2656,709.0781 Q442.625,709.2344 441.9219,709.2344 Q439.4063,709.2344 438.0781,707.5938 Q436.7656,705.9375 436.7656,702.8125 Q436.7656,699.6719 438.0781,698.0313 Q439.4063,696.375 441.9219,696.375 Q442.625,696.375 443.2656,696.5313 Q443.9219,696.6719 444.4844,696.9688 L444.4844,699.6875 Q443.8438,699.1094 443.25,698.8438 Q442.6563,698.5781 442.0313,698.5781 Q440.6875,698.5781 440,699.6406 Q439.3125,700.7031 439.3125,702.8125 Q439.3125,704.9063 440,705.9844 Q440.6875,707.0469 442.0313,707.0469 Q442.6563,707.0469 443.25,706.7813 Q443.8438,706.5 444.4844,705.9219 L444.4844,708.6406 Z " fill="#000000"/><text fill="#000000" font-family="sans-serif" font-size="14" lengthAdjust="spacing" textLength="35" x="455.5" y="707.8467">Scan</text><line style="stroke:#181818;stroke-width:0.5;" x1="427.5" x2="492.5" y1="719" y2="719"/><line style="stroke:#181818;stroke-width:0.5;" x1="427.5" x2="492.5" y1="727" y2="727"/></g><!--class Setup--><g id="elem_Setup"><rect codeLine="33" fill="#F1F1F1" height="48" id="Setup" rx="2.5" ry="2.5" style="stroke:#181818;stroke-width:0.5;" width="73" x="595.5" y="687"/><ellipse cx="610.5" cy="703" fill="#ADD1B2" rx="11" ry="11" style="stroke:#181818;stroke-width:1.0;"/><path d="M613.4844,708.6406 Q612.9063,708.9375 612.2656,709.0781 Q611.625,709.2344 610.9219,709.2344 Q608.4063,709.2344 607.0781,707.5938 Q605.7656,705.9375 605.7656,702.8125 Q605.7656,699.6719 607.0781,698.0313 Q608.4063,696.375 610.9219,696.375 Q611.625,696.375 612.2656,696.5313 Q612.9219,696.6719 613.4844,696.9688 L613.4844,699.6875 Q612.8438,699.1094 612.25,698.8438 Q611.6563,698.5781 611.0313,698.5781 Q609.6875,698.5781 609,699.6406 Q608.3125,700.7031 608.3125,702.8125 Q608.3125,704.9063 609,705.9844 Q609.6875,707.0469 611.0313,707.0469 Q611.6563,707.0469 612.25,706.7813 Q612.8438,706.5 613.4844,705.9219 L613.4844,708.6406 Z " fill="#000000"/><text fill="#000000" font-family="sans-serif" font-size="14" lengthAdjust="spacing" textLength="41" x="624.5" y="707.8467">Setup</text><line style="stroke:#181818;stroke-width:0.5;" x1="596.5" x2="667.5" y1="719" y2="719"/><line style="stroke:#181818;stroke-width:0.5;" x1="596.5" x2="667.5" y1="727" y2="727"/></g><!--reverse link Measurement to Measurement--><g id="link_Measurement_Measurement"><path d="M295.9998,233.5575 C299.6098,263.1475 303.96,298.87 310.28,350.73 " fill="none" id="Measurement-backto-Measurement" style="stroke:#181818;stroke-width:1.0;"/><polygon fill="none" points="293.82,215.69,290.044,234.2841,301.9557,232.8309,293.82,215.69" style="stroke:#181818;stroke-width:1.0;"/></g><!--reverse link Measurement to Metadata--><g id="link_Measurement_Metadata"><path codeLine="21" d="M237.1129,341.0355 C231.6529,333.3455 233.22,335.48 228,328 C200.87,289.08 170.59,242.89 147.89,215.73 " fill="none" id="Measurement-backto-Metadata" style="stroke:#181818;stroke-width:1.0;"/><polygon fill="#181818" points="244.06,350.82,243.8479,343.612,237.1129,341.0355,237.3249,348.2434,244.06,350.82" style="stroke:#181818;stroke-width:1.0;"/></g><!--link Metadata to Measurement--><!--reverse link Measurement to Scan--><g id="link_Measurement_Scan"><path codeLine="22" d="M416.1168,637.4102 C430.0168,660.4102 436.7,671.45 445.91,686.7 " fill="none" id="Measurement-backto-Scan" style="stroke:#181818;stroke-width:1.0;"/><polygon fill="#181818" points="409.91,627.14,409.59,634.344,416.1168,637.4102,416.4368,630.2062,409.91,627.14" style="stroke:#181818;stroke-width:1.0;"/></g><!--reverse link Measurement to Setup--><g id="link_Measurement_Setup"><path codeLine="23" d="M490.1223,607.6602 C535.3723,640.3002 570.78,665.84 599.88,686.83 " fill="none" id="Measurement-backto-Setup" style="stroke:#181818;stroke-width:1.0;"/><polygon fill="#181818" points="480.39,600.64,482.9161,607.3942,490.1223,607.6602,487.5962,600.906,480.39,600.64" style="stroke:#181818;stroke-width:1.0;"/></g><!--reverse link Scan to Scan--><g id="link_Scan_Scan"><path d="M570.5476,528.5035 C544.8176,570.7535 499.84,644.58 474.1,686.85 " fill="none" id="Scan-backto-Scan" style="stroke:#181818;stroke-width:1.0;"/><polygon fill="none" points="579.91,513.13,565.4231,525.3827,575.6721,531.6243,579.91,513.13" style="stroke:#181818;stroke-width:1.0;"/></g><!--reverse link Setup to Setup--><g id="link_Setup_Setup"><path d="M686.7149,530.3488 C673.8449,572.5988 651.92,644.58 639.05,686.85 " fill="none" id="Setup-backto-Setup" style="stroke:#181818;stroke-width:1.0;"/><polygon fill="none" points="691.96,513.13,680.9753,528.6005,692.4545,532.0972,691.96,513.13" style="stroke:#181818;stroke-width:1.0;"/></g><!--reverse link Data to Axis--><g id="link_Data_Axis"><path codeLine="49" d="M613.22,191.5 C624.86,191.5 624.51,191.5 636.15,191.5 " fill="none" id="Data-backto-Axis" style="stroke:#181818;stroke-width:1.0;"/><polygon fill="#181818" points="601.22,191.5,607.22,195.5,613.22,191.5,607.22,187.5,601.22,191.5" style="stroke:#181818;stroke-width:1.0;"/><text fill="#000000" font-family="sans-serif" font-size="13" lengthAdjust="spacing" textLength="8" x="620.2914" y="187.7274">n</text></g><!--link Data to Measurement--><g id="link_Data_Measurement"><path codeLine="51" d="M458.97,240.31 C439.45,270.52 421.064,300.7985 398.584,340.4885 " fill="none" id="Data-to-Measurement" style="stroke:#181818;stroke-width:1.0;"/><polygon fill="#181818" points="392.67,350.93,399.1075,347.6806,398.584,340.4885,392.1465,343.7379,392.67,350.93" style="stroke:#181818;stroke-width:1.0;"/></g><!--link Data to Measurement--><!--SRC=[ZLFBRi8m4BpdAwnU2gW9TmwLgd8ifnuHGaky14j-HBQ3G3J_NdiJaa15IQJ8sPcTVNdpUl2-T8lvl9IWVQLabXirpoKubt81XGML96Io5OAhB2hKdk79e-QEgHxBmYkyG9SDmQ7eah3mSFIOUsFTfMOBzda0hL4kmGEnodJKnqcu7eVy83GIqSQC7FjXAwD5q7IUEmGbnxagzC0Z5HsRJy9T3ZfWt-5eRFHL6O5u4Y9DiLNe71Jerfj0VPbYrTXDaqrKojGAW4_sGg86XTCcAXpn3i9JQQplm3UsDrQ1drwhsCQuavOIA7dFm0aTCUlDDAcJP3ZuMPe-kgccwwnh_rv6C_W3qXpQjS0Zndhxe6H5NRZm-eaN3NRWHhBhSZsEtBcJ_ed_iDYd-qgRSXdUeIuppS5QE1CQvxpUt6zdlqXBF8eSktdMepF7WFzcbh13kM3EMw6BDYt9sGtepcfdv2rMXRtlaL0JjJbBN_GBDT82wMpuaoV9k9rXwVeWE4UzITz7wU-ctSblrRy0]--></g></svg>