<?xml version="1.0" encoding="us-ascii" standalone="no"?><svg xmlns="http://www.w3.org/2000/svg" xmlns:xlink="http://www.w3.org/1999/xlink" contentStyleType="text/css" height="449px" preserveAspectRatio="none" style="width:415px;height:449px;background:#FFFFFF;" version="1.1" viewBox="0 0 415 449" width="415px" zoomAndPan="magnify"><defs/><g><!--cluster evedata--><g id="cluster_evedata"><path d="M8.5,6 L61.5,6 A3.75,3.75 0 0 1 64,8.5 L71,28.4063 L405.5,28.4063 A2.5,2.5 0 0 1 408,30.9063 L408,439.5 A2.5,2.5 0 0 1 405.5,442 L8.5,442 A2.5,2.5 0 0 1 6,439.5 L6,8.5 A2.5,2.5 0 0 1 8.5,6 " fill="none" style="stroke:#000000;stroke-width:1.5;"/><line style="stroke:#000000;stroke-width:1.5;" x1="6" x2="71" y1="28.4063" y2="28.4063"/><text fill="#000000" font-family="sans-serif" font-size="14" font-weight="bold" lengthAdjust="spacing" textLength="52" x="10" y="20.9883">evedata</text></g><!--cluster evefile--><g id="cluster_evefile"><path d="M40.5,57 L85.5,57 A3.75,3.75 0 0 1 88,59.5 L95,79.4063 L184.5,79.4063 A2.5,2.5 0 0 1 187,81.9063 L187,407.5 A2.5,2.5 0 0 1 184.5,410 L40.5,410 A2.5,2.5 0 0 1 38,407.5 L38,59.5 A2.5,2.5 0 0 1 40.5,57 " fill="none" style="stroke:#000000;stroke-width:1.5;"/><line style="stroke:#000000;stroke-width:1.5;" x1="38" x2="95" y1="79.4063" y2="79.4063"/><text fill="#000000" font-family="sans-serif" font-size="14" font-weight="bold" lengthAdjust="spacing" textLength="44" x="42" y="71.9883">evefile</text></g><!--cluster dataset--><g id="cluster_dataset"><path d="M229.5,177 L279.5,177 A3.75,3.75 0 0 1 282,179.5 L289,199.4063 L373.5,199.4063 A2.5,2.5 0 0 1 376,201.9063 L376,407.5 A2.5,2.5 0 0 1 373.5,410 L229.5,410 A2.5,2.5 0 0 1 227,407.5 L227,179.5 A2.5,2.5 0 0 1 229.5,177 " fill="none" style="stroke:#000000;stroke-width:1.5;"/><line style="stroke:#000000;stroke-width:1.5;" x1="227" x2="289" y1="199.4063" y2="199.4063"/><text fill="#000000" font-family="sans-serif" font-size="14" font-weight="bold" lengthAdjust="spacing" textLength="49" x="231" y="191.9883">dataset</text></g><path d="M85,333 L107,333 A3.75,3.75 0 0 1 109.5,335.5 L116.5,355.4063 L121,355.4063 A2.5,2.5 0 0 1 123.5,357.9063 L123.5,383.3125 A2.5,2.5 0 0 1 121,385.8125 L85,385.8125 A2.5,2.5 0 0 1 82.5,383.3125 L82.5,335.5 A2.5,2.5 0 0 1 85,333 " fill="#F1F1F1" style="stroke:#181818;stroke-width:0.5;"/><line style="stroke:#181818;stroke-width:0.5;" x1="82.5" x2="116.5" y1="355.4063" y2="355.4063"/><text fill="#000000" font-family="sans-serif" font-size="14" font-weight="bold" lengthAdjust="spacing" textLength="21" x="86.5" y="347.9883">file</text><path d="M81,220 L111,220 A3.75,3.75 0 0 1 113.5,222.5 L120.5,242.4063 L125,242.4063 A2.5,2.5 0 0 1 127.5,244.9063 L127.5,270.3125 A2.5,2.5 0 0 1 125,272.8125 L81,272.8125 A2.5,2.5 0 0 1 78.5,270.3125 L78.5,222.5 A2.5,2.5 0 0 1 81,220 " fill="#F1F1F1" style="stroke:#181818;stroke-width:0.5;"/><line style="stroke:#181818;stroke-width:0.5;" x1="78.5" x2="120.5" y1="242.4063" y2="242.4063"/><text fill="#000000" font-family="sans-serif" font-size="14" font-weight="bold" lengthAdjust="spacing" textLength="29" x="82.5" y="234.9883">data</text><path d="M64.5,100 L127.5,100 A3.75,3.75 0 0 1 130,102.5 L137,122.4063 L141.5,122.4063 A2.5,2.5 0 0 1 144,124.9063 L144,150.3125 A2.5,2.5 0 0 1 141.5,152.8125 L64.5,152.8125 A2.5,2.5 0 0 1 62,150.3125 L62,102.5 A2.5,2.5 0 0 1 64.5,100 " fill="#F1F1F1" style="stroke:#181818;stroke-width:0.5;"/><line style="stroke:#181818;stroke-width:0.5;" x1="62" x2="137" y1="122.4063" y2="122.4063"/><text fill="#000000" font-family="sans-serif" font-size="14" font-weight="bold" lengthAdjust="spacing" textLength="62" x="66" y="114.9883">metadata</text><path d="M279,333 L329,333 A3.75,3.75 0 0 1 331.5,335.5 L338.5,355.4063 L343,355.4063 A2.5,2.5 0 0 1 345.5,357.9063 L345.5,383.3125 A2.5,2.5 0 0 1 343,385.8125 L279,385.8125 A2.5,2.5 0 0 1 276.5,383.3125 L276.5,335.5 A2.5,2.5 0 0 1 279,333 " fill="#F1F1F1" style="stroke:#181818;stroke-width:0.5;"/><line style="stroke:#181818;stroke-width:0.5;" x1="276.5" x2="338.5" y1="355.4063" y2="355.4063"/><text fill="#000000" font-family="sans-serif" font-size="14" font-weight="bold" lengthAdjust="spacing" textLength="49" x="280.5" y="347.9883">dataset</text><path d="M272.5,220 L335.5,220 A3.75,3.75 0 0 1 338,222.5 L345,242.4063 L349.5,242.4063 A2.5,2.5 0 0 1 352,244.9063 L352,270.3125 A2.5,2.5 0 0 1 349.5,272.8125 L272.5,272.8125 A2.5,2.5 0 0 1 270,270.3125 L270,222.5 A2.5,2.5 0 0 1 272.5,220 " fill="#F1F1F1" style="stroke:#181818;stroke-width:0.5;"/><line style="stroke:#181818;stroke-width:0.5;" x1="270" x2="345" y1="242.4063" y2="242.4063"/><text fill="#000000" font-family="sans-serif" font-size="14" font-weight="bold" lengthAdjust="spacing" textLength="62" x="274" y="234.9883">metadata</text><!--reverse link metadata to data--><g id="link_metadata_data"><path codeLine="14" d="M103,159.1 C103,178.9 103,200.17 103,219.95 " fill="none" id="metadata-backto-data" style="stroke:#181818;stroke-width:1.0;"/><polygon fill="#181818" points="103,153.1,99,162.1,103,158.1,107,162.1,103,153.1" style="stroke:#181818;stroke-width:1.0;"/></g><!--reverse link data to file--><g id="link_data_file"><path codeLine="15" d="M103,279.24 C103,297.18 103,314.99 103,332.89 " fill="none" id="data-backto-file" style="stroke:#181818;stroke-width:1.0;"/><polygon fill="#181818" points="103,273.24,99,282.24,103,278.24,107,282.24,103,273.24" style="stroke:#181818;stroke-width:1.0;"/></g><!--reverse link metadata to dataset--><g id="link_metadata_dataset"><path codeLine="26" d="M311,279.24 C311,297.18 311,314.99 311,332.89 " fill="none" id="metadata-backto-dataset" style="stroke:#181818;stroke-width:1.0;"/><polygon fill="#181818" points="311,273.24,307,282.24,311,278.24,315,282.24,311,273.24" style="stroke:#181818;stroke-width:1.0;"/></g><!--reverse link evefile to dataset--><g id="link_evefile_dataset"><path codeLine="30" d="M189.6371,149.9131 C189.9488,150.5698 187.9269,146.31 188.2514,146.9937 C193.4441,157.9337 200.2281,172.2275 207.0113,186.52 C213.7944,200.8125 220.5766,215.1037 225.7655,226.0387 C226.0898,226.7222 226.4079,227.3925 226.7193,228.0489 C226.7972,228.213 226.8747,228.3762 226.9517,228.5386 " fill="none" id="evefile-backto-dataset" style="stroke:#181818;stroke-width:1.0;"/><polygon fill="#181818" points="187.0643,144.4927,187.3099,154.3385,189.2083,149.0097,194.5371,150.9081,187.0643,144.4927" style="stroke:#181818;stroke-width:1.0;"/></g><!--SRC=[Ko_EpimhI2nAp5L8ASXKC3GruE8gI4pEJanFLKWjIqr9B4bKgERYKW02D64z89sMcPCAb0R9WWayolIGr890BK4DKBk9rv2RMfA8eGdEnAdQHbSNgzquTUBK1I8W5jPY3p8GKPnQ0WjHF4gGb18E09WUuW80GpMoLz2iXsj6zXLw0i2YdukhbWi0]--></g></svg>