<?xml version="1.0" encoding="us-ascii" standalone="no"?><svg xmlns="http://www.w3.org/2000/svg" xmlns:xlink="http://www.w3.org/1999/xlink" contentStyleType="text/css" height="653.4px" preserveAspectRatio="none" style="width:758px;height:653px;background:#FFFFFF;" version="1.1" viewBox="0 0 758 653" width="758.7px" zoomAndPan="magnify"><defs/><g><!--cluster measurement--><g id="cluster_measurement"><path d="M7.65,5.4 L108.45,5.4 A3.375,3.375 0 0 1 110.7,7.65 L117,25.4672 L750.15,25.4672 A2.25,2.25 0 0 1 752.4,27.7172 L752.4,285.75 A2.25,2.25 0 0 1 750.15,288 L7.65,288 A2.25,2.25 0 0 1 5.4,285.75 L5.4,7.65 A2.25,2.25 0 0 1 7.65,5.4 " fill="none" style="stroke:#000000;stroke-width:1.35;"/><line style="stroke:#000000;stroke-width:1.35;" x1="5.4" x2="117" y1="25.4672" y2="25.4672"/><text fill="#000000" font-family="sans-serif" font-size="12.6" font-weight="bold" lengthAdjust="spacing" textLength="99.9" x="9" y="18.8956">measurement</text></g><!--cluster entities--><g id="cluster_entities"><path d="M29.25,44.1 L85.95,44.1 A3.375,3.375 0 0 1 88.2,46.35 L94.5,64.1672 L728.55,64.1672 A2.25,2.25 0 0 1 730.8,66.4172 L730.8,264.15 A2.25,2.25 0 0 1 728.55,266.4 L29.25,266.4 A2.25,2.25 0 0 1 27,264.15 L27,46.35 A2.25,2.25 0 0 1 29.25,44.1 " fill="none" style="stroke:#000000;stroke-width:1.35;"/><line style="stroke:#000000;stroke-width:1.35;" x1="27" x2="94.5" y1="64.1672" y2="64.1672"/><text fill="#000000" font-family="sans-serif" font-size="12.6" font-weight="bold" lengthAdjust="spacing" textLength="55.8" x="30.6" y="57.5956">entities</text></g><!--cluster measurement--><g id="cluster_measurement"><path d="M191.25,82.8 L292.05,82.8 A3.375,3.375 0 0 1 294.3,85.05 L300.6,102.8672 L706.95,102.8672 A2.25,2.25 0 0 1 709.2,105.1172 L709.2,242.55 A2.25,2.25 0 0 1 706.95,244.8 L191.25,244.8 A2.25,2.25 0 0 1 189,242.55 L189,85.05 A2.25,2.25 0 0 1 191.25,82.8 " fill="none" style="stroke:#000000;stroke-width:1.35;"/><line style="stroke:#000000;stroke-width:1.35;" x1="189" x2="300.6" y1="102.8672" y2="102.8672"/><text fill="#000000" font-family="sans-serif" font-size="12.6" font-weight="bold" lengthAdjust="spacing" textLength="99.9" x="192.6" y="96.2956">measurement</text></g><!--cluster metadata--><g id="cluster_metadata"><path d="M50.85,119.25 L120.15,119.25 A3.375,3.375 0 0 1 122.4,121.5 L128.7,139.3172 L165.15,139.3172 A2.25,2.25 0 0 1 167.4,141.5672 L167.4,206.1 A2.25,2.25 0 0 1 165.15,208.35 L50.85,208.35 A2.25,2.25 0 0 1 48.6,206.1 L48.6,121.5 A2.25,2.25 0 0 1 50.85,119.25 " fill="none" style="stroke:#000000;stroke-width:1.35;"/><line style="stroke:#000000;stroke-width:1.35;" x1="48.6" x2="128.7" y1="139.3172" y2="139.3172"/><text fill="#000000" font-family="sans-serif" font-size="12.6" font-weight="bold" lengthAdjust="spacing" textLength="68.4" x="52.2" y="132.7456">metadata</text></g><!--cluster evefile--><g id="cluster_evefile"><path d="M429.75,309.6 L480.15,309.6 A3.375,3.375 0 0 1 482.4,311.85 L488.7,329.6672 L698.85,329.6672 A2.25,2.25 0 0 1 701.1,331.9172 L701.1,517.05 A2.25,2.25 0 0 1 698.85,519.3 L429.75,519.3 A2.25,2.25 0 0 1 427.5,517.05 L427.5,311.85 A2.25,2.25 0 0 1 429.75,309.6 " fill="none" style="stroke:#000000;stroke-width:1.35;"/><line style="stroke:#000000;stroke-width:1.35;" x1="427.5" x2="488.7" y1="329.6672" y2="329.6672"/><text fill="#000000" font-family="sans-serif" font-size="12.6" font-weight="bold" lengthAdjust="spacing" textLength="49.5" x="431.1" y="323.0956">evefile</text></g><!--cluster entities--><g id="cluster_entities"><path d="M451.35,348.3 L508.05,348.3 A3.375,3.375 0 0 1 510.3,350.55 L516.6,368.3672 L677.25,368.3672 A2.25,2.25 0 0 1 679.5,370.6172 L679.5,495.45 A2.25,2.25 0 0 1 677.25,497.7 L451.35,497.7 A2.25,2.25 0 0 1 449.1,495.45 L449.1,350.55 A2.25,2.25 0 0 1 451.35,348.3 " fill="none" style="stroke:#000000;stroke-width:1.35;"/><line style="stroke:#000000;stroke-width:1.35;" x1="449.1" x2="516.6" y1="368.3672" y2="368.3672"/><text fill="#000000" font-family="sans-serif" font-size="12.6" font-weight="bold" lengthAdjust="spacing" textLength="55.8" x="452.7" y="361.7956">entities</text></g><!--cluster file--><g id="cluster_file"><path d="M472.95,387 L497.25,387 A3.375,3.375 0 0 1 499.5,389.25 L505.8,407.0672 L655.65,407.0672 A2.25,2.25 0 0 1 657.9,409.3172 L657.9,473.85 A2.25,2.25 0 0 1 655.65,476.1 L472.95,476.1 A2.25,2.25 0 0 1 470.7,473.85 L470.7,389.25 A2.25,2.25 0 0 1 472.95,387 " fill="none" style="stroke:#000000;stroke-width:1.35;"/><line style="stroke:#000000;stroke-width:1.35;" x1="470.7" x2="505.8" y1="407.0672" y2="407.0672"/><text fill="#000000" font-family="sans-serif" font-size="12.6" font-weight="bold" lengthAdjust="spacing" textLength="23.4" x="474.3" y="400.4956">file</text></g><!--class Measurement--><g id="elem_Measurement"><rect fill="#F1F1F1" height="43.2" id="Measurement" rx="2.25" ry="2.25" style="stroke:#181818;stroke-width:0.45;" width="117" x="203.4" y="150.75"/><ellipse cx="216.9" cy="165.15" fill="#ADD1B2" rx="9.9" ry="9.9" style="stroke:#181818;stroke-width:0.9;"/><path d="M219.5719,170.2266 Q219.0516,170.4938 218.475,170.6203 Q217.8984,170.7609 217.2656,170.7609 Q215.0156,170.7609 213.8203,169.2844 Q212.6391,167.7938 212.6391,164.9813 Q212.6391,162.1688 213.8203,160.6781 Q215.0156,159.1875 217.2656,159.1875 Q217.8984,159.1875 218.475,159.3281 Q219.0656,159.4688 219.5719,159.7359 L219.5719,162.1828 Q219.0094,161.6625 218.475,161.4234 Q217.9406,161.1703 217.3781,161.1703 Q216.1688,161.1703 215.55,162.1406 Q214.9313,163.0969 214.9313,164.9813 Q214.9313,166.8656 215.55,167.8359 Q216.1688,168.7922 217.3781,168.7922 Q217.9406,168.7922 218.475,168.5531 Q219.0094,168.3 219.5719,167.7797 L219.5719,170.2266 Z " fill="#000000"/><text fill="#000000" font-family="sans-serif" font-size="12.6" lengthAdjust="spacing" textLength="88.2" x="229.5" y="169.512">Measurement</text><line style="stroke:#181818;stroke-width:0.45;" x1="204.3" x2="319.5" y1="179.55" y2="179.55"/><line style="stroke:#181818;stroke-width:0.45;" x1="204.3" x2="319.5" y1="186.75" y2="186.75"/></g><!--class Data--><g id="elem_Data"><rect codeLine="33" fill="#F1F1F1" height="87.2016" id="Data" rx="2.25" ry="2.25" style="stroke:#181818;stroke-width:0.45;" width="189" x="351.9" y="128.7"/><ellipse cx="427.275" cy="143.1" fill="#ADD1B2" rx="9.9" ry="9.9" style="stroke:#181818;stroke-width:0.9;"/><path d="M429.9469,148.1766 Q429.4266,148.4438 428.85,148.5703 Q428.2734,148.7109 427.6406,148.7109 Q425.3906,148.7109 424.1953,147.2344 Q423.0141,145.7438 423.0141,142.9313 Q423.0141,140.1188 424.1953,138.6281 Q425.3906,137.1375 427.6406,137.1375 Q428.2734,137.1375 428.85,137.2781 Q429.4406,137.4188 429.9469,137.6859 L429.9469,140.1328 Q429.3844,139.6125 428.85,139.3734 Q428.3156,139.1203 427.7531,139.1203 Q426.5438,139.1203 425.925,140.0906 Q425.3063,141.0469 425.3063,142.9313 Q425.3063,144.8156 425.925,145.7859 Q426.5438,146.7422 427.7531,146.7422 Q428.3156,146.7422 428.85,146.5031 Q429.3844,146.25 429.9469,145.7297 L429.9469,148.1766 Z " fill="#000000"/><text fill="#000000" font-family="sans-serif" font-size="12.6" lengthAdjust="spacing" textLength="30.6" x="445.725" y="147.462">Data</text><line style="stroke:#181818;stroke-width:0.45;" x1="352.8" x2="540" y1="157.5" y2="157.5"/><text fill="#000000" font-family="sans-serif" font-size="12.6" lengthAdjust="spacing" textLength="110.7" x="357.3" y="172.7956">data : np.ndarray</text><text fill="#000000" font-family="sans-serif" font-size="12.6" lengthAdjust="spacing" textLength="103.5" x="357.3" y="187.4628">axes[]: AxisData</text><text fill="#000000" font-family="sans-serif" font-size="12.6" lengthAdjust="spacing" textLength="178.2" x="357.3" y="202.13">metadata : DeviceMetadata</text><line style="stroke:#181818;stroke-width:0.45;" x1="352.8" x2="540" y1="208.7016" y2="208.7016"/></g><!--class Axis--><g id="elem_Axis"><rect codeLine="39" fill="#F1F1F1" height="116.5359" id="Axis" rx="2.25" ry="2.25" style="stroke:#181818;stroke-width:0.45;" width="121.5" x="572.85" y="114.3"/><ellipse cx="616.725" cy="128.7" fill="#ADD1B2" rx="9.9" ry="9.9" style="stroke:#181818;stroke-width:0.9;"/><path d="M619.3969,133.7766 Q618.8766,134.0438 618.3,134.1703 Q617.7234,134.3109 617.0906,134.3109 Q614.8406,134.3109 613.6453,132.8344 Q612.4641,131.3438 612.4641,128.5313 Q612.4641,125.7188 613.6453,124.2281 Q614.8406,122.7375 617.0906,122.7375 Q617.7234,122.7375 618.3,122.8781 Q618.8906,123.0188 619.3969,123.2859 L619.3969,125.7328 Q618.8344,125.2125 618.3,124.9734 Q617.7656,124.7203 617.2031,124.7203 Q615.9938,124.7203 615.375,125.6906 Q614.7563,126.6469 614.7563,128.5313 Q614.7563,130.4156 615.375,131.3859 Q615.9938,132.3422 617.2031,132.3422 Q617.7656,132.3422 618.3,132.1031 Q618.8344,131.85 619.3969,131.3297 L619.3969,133.7766 Z " fill="#000000"/><text fill="#000000" font-family="sans-serif" font-size="12.6" lengthAdjust="spacing" textLength="26.1" x="635.175" y="133.062">Axis</text><line style="stroke:#181818;stroke-width:0.45;" x1="573.75" x2="693.45" y1="143.1" y2="143.1"/><text fill="#000000" font-family="sans-serif" font-size="12.6" lengthAdjust="spacing" textLength="110.7" x="578.25" y="158.3956">data : np.ndarray</text><text fill="#000000" font-family="sans-serif" font-size="12.6" lengthAdjust="spacing" textLength="75.6" x="578.25" y="173.0628">label: string</text><text fill="#000000" font-family="sans-serif" font-size="12.6" lengthAdjust="spacing" textLength="104.4" x="578.25" y="187.73">measure : string</text><text fill="#000000" font-family="sans-serif" font-size="12.6" lengthAdjust="spacing" textLength="93.6" x="578.25" y="202.3972">symbol : string</text><text fill="#000000" font-family="sans-serif" font-size="12.6" lengthAdjust="spacing" textLength="72" x="578.25" y="217.0644">unit : string</text><line style="stroke:#181818;stroke-width:0.45;" x1="573.75" x2="693.45" y1="223.6359" y2="223.6359"/></g><!--class Metadata--><g id="elem_Metadata"><rect fill="#F1F1F1" height="43.2" id="Metadata" rx="2.25" ry="2.25" style="stroke:#181818;stroke-width:0.45;" width="89.1" x="63.45" y="150.75"/><ellipse cx="76.95" cy="165.15" fill="#ADD1B2" rx="9.9" ry="9.9" style="stroke:#181818;stroke-width:0.9;"/><path d="M79.6219,170.2266 Q79.1016,170.4938 78.525,170.6203 Q77.9484,170.7609 77.3156,170.7609 Q75.0656,170.7609 73.8703,169.2844 Q72.6891,167.7938 72.6891,164.9813 Q72.6891,162.1688 73.8703,160.6781 Q75.0656,159.1875 77.3156,159.1875 Q77.9484,159.1875 78.525,159.3281 Q79.1156,159.4688 79.6219,159.7359 L79.6219,162.1828 Q79.0594,161.6625 78.525,161.4234 Q77.9906,161.1703 77.4281,161.1703 Q76.2188,161.1703 75.6,162.1406 Q74.9813,163.0969 74.9813,164.9813 Q74.9813,166.8656 75.6,167.8359 Q76.2188,168.7922 77.4281,168.7922 Q77.9906,168.7922 78.525,168.5531 Q79.0594,168.3 79.6219,167.7797 L79.6219,170.2266 Z " fill="#000000"/><text fill="#000000" font-family="sans-serif" font-size="12.6" lengthAdjust="spacing" textLength="60.3" x="89.55" y="169.512">Metadata</text><line style="stroke:#181818;stroke-width:0.45;" x1="64.35" x2="151.65" y1="179.55" y2="179.55"/><line style="stroke:#181818;stroke-width:0.45;" x1="64.35" x2="151.65" y1="186.75" y2="186.75"/></g><!--class Scan--><g id="elem_Scan"><rect codeLine="23" fill="#F1F1F1" height="43.2" id="Scan" rx="2.25" ry="2.25" style="stroke:#181818;stroke-width:0.45;" width="60.3" x="485.55" y="418.5"/><ellipse cx="499.05" cy="432.9" fill="#ADD1B2" rx="9.9" ry="9.9" style="stroke:#181818;stroke-width:0.9;"/><path d="M501.7219,437.9766 Q501.2016,438.2438 500.625,438.3703 Q500.0484,438.5109 499.4156,438.5109 Q497.1656,438.5109 495.9703,437.0344 Q494.7891,435.5438 494.7891,432.7313 Q494.7891,429.9188 495.9703,428.4281 Q497.1656,426.9375 499.4156,426.9375 Q500.0484,426.9375 500.625,427.0781 Q501.2156,427.2188 501.7219,427.4859 L501.7219,429.9328 Q501.1594,429.4125 500.625,429.1734 Q500.0906,428.9203 499.5281,428.9203 Q498.3188,428.9203 497.7,429.8906 Q497.0813,430.8469 497.0813,432.7313 Q497.0813,434.6156 497.7,435.5859 Q498.3188,436.5422 499.5281,436.5422 Q500.0906,436.5422 500.625,436.3031 Q501.1594,436.05 501.7219,435.5297 L501.7219,437.9766 Z " fill="#000000"/><text fill="#000000" font-family="sans-serif" font-size="12.6" lengthAdjust="spacing" textLength="31.5" x="511.65" y="437.262">Scan</text><line style="stroke:#181818;stroke-width:0.45;" x1="486.45" x2="544.95" y1="447.3" y2="447.3"/><line style="stroke:#181818;stroke-width:0.45;" x1="486.45" x2="544.95" y1="454.5" y2="454.5"/></g><!--class Setup--><g id="elem_Setup"><rect codeLine="26" fill="#F1F1F1" height="43.2" id="Setup" rx="2.25" ry="2.25" style="stroke:#181818;stroke-width:0.45;" width="65.7" x="577.35" y="418.5"/><ellipse cx="590.85" cy="432.9" fill="#ADD1B2" rx="9.9" ry="9.9" style="stroke:#181818;stroke-width:0.9;"/><path d="M593.5219,437.9766 Q593.0016,438.2438 592.425,438.3703 Q591.8484,438.5109 591.2156,438.5109 Q588.9656,438.5109 587.7703,437.0344 Q586.5891,435.5438 586.5891,432.7313 Q586.5891,429.9188 587.7703,428.4281 Q588.9656,426.9375 591.2156,426.9375 Q591.8484,426.9375 592.425,427.0781 Q593.0156,427.2188 593.5219,427.4859 L593.5219,429.9328 Q592.9594,429.4125 592.425,429.1734 Q591.8906,428.9203 591.3281,428.9203 Q590.1188,428.9203 589.5,429.8906 Q588.8813,430.8469 588.8813,432.7313 Q588.8813,434.6156 589.5,435.5859 Q590.1188,436.5422 591.3281,436.5422 Q591.8906,436.5422 592.425,436.3031 Q592.9594,436.05 593.5219,435.5297 L593.5219,437.9766 Z " fill="#000000"/><text fill="#000000" font-family="sans-serif" font-size="12.6" lengthAdjust="spacing" textLength="36.9" x="603.45" y="437.262">Setup</text><line style="stroke:#181818;stroke-width:0.45;" x1="578.25" x2="642.15" y1="447.3" y2="447.3"/><line style="stroke:#181818;stroke-width:0.45;" x1="578.25" x2="642.15" y1="454.5" y2="454.5"/></g><!--class Measurement--><g id="elem_Measurement"><rect codeLine="3" fill="#F1F1F1" height="219.2063" id="Measurement" rx="2.25" ry="2.25" style="stroke:#181818;stroke-width:0.45;" width="200.7" x="212.85" y="330.3"/><ellipse cx="265.275" cy="344.7" fill="#ADD1B2" rx="9.9" ry="9.9" style="stroke:#181818;stroke-width:0.9;"/><path d="M267.9469,349.7766 Q267.4266,350.0438 266.85,350.1703 Q266.2734,350.3109 265.6406,350.3109 Q263.3906,350.3109 262.1953,348.8344 Q261.0141,347.3438 261.0141,344.5313 Q261.0141,341.7188 262.1953,340.2281 Q263.3906,338.7375 265.6406,338.7375 Q266.2734,338.7375 266.85,338.8781 Q267.4406,339.0188 267.9469,339.2859 L267.9469,341.7328 Q267.3844,341.2125 266.85,340.9734 Q266.3156,340.7203 265.7531,340.7203 Q264.5438,340.7203 263.925,341.6906 Q263.3063,342.6469 263.3063,344.5313 Q263.3063,346.4156 263.925,347.3859 Q264.5438,348.3422 265.7531,348.3422 Q266.3156,348.3422 266.85,348.1031 Q267.3844,347.85 267.9469,347.3297 L267.9469,349.7766 Z " fill="#000000"/><text fill="#000000" font-family="sans-serif" font-size="12.6" lengthAdjust="spacing" textLength="88.2" x="283.725" y="349.062">Measurement</text><line style="stroke:#181818;stroke-width:0.45;" x1="213.75" x2="412.65" y1="359.1" y2="359.1"/><text fill="#000000" font-family="sans-serif" font-size="12.6" lengthAdjust="spacing" textLength="171.9" x="218.25" y="374.3956">detectors{} : ChannelData</text><text fill="#000000" font-family="sans-serif" font-size="12.6" lengthAdjust="spacing" textLength="129.6" x="218.25" y="389.0628">motors{} : AxisData</text><text fill="#000000" font-family="sans-serif" font-size="12.6" lengthAdjust="spacing" textLength="158.4" x="218.25" y="403.73">machine{} : DeviceData</text><text fill="#000000" font-family="sans-serif" font-size="12.6" lengthAdjust="spacing" textLength="162.9" x="218.25" y="418.3972">beamline{} : DeviceData</text><text fill="#000000" font-family="sans-serif" font-size="12.6" lengthAdjust="spacing" textLength="134.1" x="218.25" y="433.0644">metadata : Metadata</text><text fill="#000000" font-family="sans-serif" font-size="12.6" lengthAdjust="spacing" textLength="72.9" x="218.25" y="447.7315">scan : Scan</text><text fill="#000000" font-family="sans-serif" font-size="12.6" lengthAdjust="spacing" textLength="83.7" x="218.25" y="462.3987">setup : Setup</text><text fill="#000000" font-family="sans-serif" font-size="12.6" lengthAdjust="spacing" textLength="189.9" x="218.25" y="477.0659">log_messages[] : LogMessage</text><text fill="#000000" font-family="sans-serif" font-size="12.6" lengthAdjust="spacing" textLength="71.1" x="218.25" y="491.7331">data : Data</text><line style="stroke:#181818;stroke-width:0.45;" x1="213.75" x2="412.65" y1="498.3047" y2="498.3047"/><text fill="#000000" font-family="sans-serif" font-size="12.6" lengthAdjust="spacing" textLength="93.6" x="218.25" y="513.6003">load(filename)</text><text fill="#000000" font-family="sans-serif" font-size="12.6" lengthAdjust="spacing" textLength="135" x="218.25" y="528.2675">set_data(name, field)</text><text fill="#000000" font-family="sans-serif" font-size="12.6" lengthAdjust="spacing" textLength="109.8" x="218.25" y="542.9347">set_axes(name[])</text></g><!--class Scan--><g id="elem_Scan"><rect codeLine="29" fill="#F1F1F1" height="43.2" id="Scan" rx="2.25" ry="2.25" style="stroke:#181818;stroke-width:0.45;" width="60.3" x="383.85" y="603.9"/><ellipse cx="397.35" cy="618.3" fill="#ADD1B2" rx="9.9" ry="9.9" style="stroke:#181818;stroke-width:0.9;"/><path d="M400.0219,623.3766 Q399.5016,623.6438 398.925,623.7703 Q398.3484,623.9109 397.7156,623.9109 Q395.4656,623.9109 394.2703,622.4344 Q393.0891,620.9438 393.0891,618.1313 Q393.0891,615.3188 394.2703,613.8281 Q395.4656,612.3375 397.7156,612.3375 Q398.3484,612.3375 398.925,612.4781 Q399.5156,612.6188 400.0219,612.8859 L400.0219,615.3328 Q399.4594,614.8125 398.925,614.5734 Q398.3906,614.3203 397.8281,614.3203 Q396.6188,614.3203 396,615.2906 Q395.3813,616.2469 395.3813,618.1313 Q395.3813,620.0156 396,620.9859 Q396.6188,621.9422 397.8281,621.9422 Q398.3906,621.9422 398.925,621.7031 Q399.4594,621.45 400.0219,620.9297 L400.0219,623.3766 Z " fill="#000000"/><text fill="#000000" font-family="sans-serif" font-size="12.6" lengthAdjust="spacing" textLength="31.5" x="409.95" y="622.662">Scan</text><line style="stroke:#181818;stroke-width:0.45;" x1="384.75" x2="443.25" y1="632.7" y2="632.7"/><line style="stroke:#181818;stroke-width:0.45;" x1="384.75" x2="443.25" y1="639.9" y2="639.9"/></g><!--class Setup--><g id="elem_Setup"><rect codeLine="31" fill="#F1F1F1" height="43.2" id="Setup" rx="2.25" ry="2.25" style="stroke:#181818;stroke-width:0.45;" width="65.7" x="526.05" y="603.9"/><ellipse cx="539.55" cy="618.3" fill="#ADD1B2" rx="9.9" ry="9.9" style="stroke:#181818;stroke-width:0.9;"/><path d="M542.2219,623.3766 Q541.7016,623.6438 541.125,623.7703 Q540.5484,623.9109 539.9156,623.9109 Q537.6656,623.9109 536.4703,622.4344 Q535.2891,620.9438 535.2891,618.1313 Q535.2891,615.3188 536.4703,613.8281 Q537.6656,612.3375 539.9156,612.3375 Q540.5484,612.3375 541.125,612.4781 Q541.7156,612.6188 542.2219,612.8859 L542.2219,615.3328 Q541.6594,614.8125 541.125,614.5734 Q540.5906,614.3203 540.0281,614.3203 Q538.8188,614.3203 538.2,615.2906 Q537.5813,616.2469 537.5813,618.1313 Q537.5813,620.0156 538.2,620.9859 Q538.8188,621.9422 540.0281,621.9422 Q540.5906,621.9422 541.125,621.7031 Q541.6594,621.45 542.2219,620.9297 L542.2219,623.3766 Z " fill="#000000"/><text fill="#000000" font-family="sans-serif" font-size="12.6" lengthAdjust="spacing" textLength="36.9" x="552.15" y="622.662">Setup</text><line style="stroke:#181818;stroke-width:0.45;" x1="526.95" x2="590.85" y1="632.7" y2="632.7"/><line style="stroke:#181818;stroke-width:0.45;" x1="526.95" x2="590.85" y1="639.9" y2="639.9"/></g><!--reverse link Measurement to Measurement--><g id="link_Measurement_Measurement"><path d="M268.9923,210.0276 C274.6623,239.4126 282.339,279.198 292.149,330.066 " fill="none" id="Measurement-backto-Measurement" style="stroke:#181818;stroke-width:0.9;"/><polygon fill="none" points="265.923,194.121,263.6901,211.0507,274.2945,209.0045,265.923,194.121" style="stroke:#181818;stroke-width:0.9;"/></g><!--reverse link Measurement to Metadata--><g id="link_Measurement_Metadata"><path codeLine="19" d="M225.7909,321.534 C216.3859,309.969 213.876,306.639 205.2,295.2 C179.235,260.982 152.253,218.79 132.255,194.076 " fill="none" id="Measurement-backto-Metadata" style="stroke:#181818;stroke-width:0.9;"/><polygon fill="#181818" points="232.605,329.913,231.991,323.4521,225.7909,321.534,226.4049,327.9948,232.605,329.913" style="stroke:#181818;stroke-width:0.9;"/></g><!--link Metadata to Measurement--><!--reverse link Measurement to Scan--><g id="link_Measurement_Scan"><path codeLine="20" d="M378.1998,559.3956 C389.4678,579.9336 394.902,589.815 402.507,603.675 " fill="none" id="Measurement-backto-Scan" style="stroke:#181818;stroke-width:0.9;"/><polygon fill="#181818" points="373.005,549.927,372.4462,556.3929,378.1998,559.3956,378.7586,552.9297,373.005,549.927" style="stroke:#181818;stroke-width:0.9;"/></g><!--reverse link Measurement to Setup--><g id="link_Measurement_Setup"><path codeLine="21" d="M422.498,522.6693 C465.032,554.4573 502.605,582.534 531.162,603.873 " fill="none" id="Measurement-backto-Setup" style="stroke:#181818;stroke-width:0.9;"/><polygon fill="#181818" points="413.847,516.204,416.0174,522.3203,422.498,522.6693,420.3276,516.553,413.847,516.204" style="stroke:#181818;stroke-width:0.9;"/></g><!--reverse link Scan to Scan--><g id="link_Scan_Scan"><path d="M496.3823,475.87 C476.8433,511.132 445.194,568.287 425.583,603.693 " fill="none" id="Scan-backto-Scan" style="stroke:#181818;stroke-width:0.9;"/><polygon fill="none" points="504.234,461.7,491.6589,473.2528,501.1056,478.4873,504.234,461.7" style="stroke:#181818;stroke-width:0.9;"/></g><!--reverse link Setup to Setup--><g id="link_Setup_Setup"><path d="M600.0525,477.3021 C590.1975,512.5641 574.632,568.287 564.741,603.693 " fill="none" id="Setup-backto-Setup" style="stroke:#181818;stroke-width:0.9;"/><polygon fill="none" points="604.413,461.7,594.8518,475.8486,605.2532,478.7556,604.413,461.7" style="stroke:#181818;stroke-width:0.9;"/></g><!--reverse link Data to Axis--><g id="link_Data_Axis"><path codeLine="47" d="M551.898,172.35 C562.374,172.35 562.059,172.35 572.535,172.35 " fill="none" id="Data-backto-Axis" style="stroke:#181818;stroke-width:0.9;"/><polygon fill="#181818" points="541.098,172.35,546.498,175.95,551.898,172.35,546.498,168.75,541.098,172.35" style="stroke:#181818;stroke-width:0.9;"/><text fill="#000000" font-family="sans-serif" font-size="11.7" lengthAdjust="spacing" textLength="7.2" x="558.2623" y="168.9546">n</text></g><!--link Data to Measurement--><g id="link_Data_Measurement"><path codeLine="49" d="M416.133,216.279 C398.376,247.149 380.6845,280.4857 361.1905,320.5267 " fill="none" id="Data-to-Measurement" style="stroke:#181818;stroke-width:0.9;"/><polygon fill="#181818" points="356.463,330.237,362.0635,326.9577,361.1905,320.5267,355.59,323.806,356.463,330.237" style="stroke:#181818;stroke-width:0.9;"/></g><!--link Data to Measurement--><!--SRC=[ZLDDZu8m4BttLpHULis2Tm-RRDRZUjeZ8MQa8pHf2w75Q0p_VTi10TsuIaBAl3TlflF1M-5SPTUhLQN0k4QhE2lrAbDWRIGav3LeniZaMmJRrAZHE8udXqPOhaSizgzq4cqy1QUY2-F-4UWmSsLjBorVywy2Z46r0GV4wdAWFa_IZZXaXJH8n0QFCiE1sYDezO3Jw41umpFR_fDmcu7ns8y_EXjTKmKWd8IeCjzfj1Poj4dggUyottPsLqONbJBr0X3pWrHeGEFY6dKN_EO1UkS7YKgC39pG4fEa2zOoDctLCeeUzRQh8XxAkPTHJNz0ggiV91unt7CCIbRG-H6rJxoeKHCtabtNuN7amPtqJ_odbtswOM42rzNgPcAgs0YeQpWJ6lgSfFVxD2v6jp93FzkNCuU0_sPMi4UrvjRLqkHzMfBp6z2UzRvKjrXZf1iHVoSgSndDp8mAwO5eEVqj6NjjPtYK5588D6dqyPB-hjk3_5Rz2m00]--></g></svg>