<?xml version="1.0" encoding="us-ascii" standalone="no"?><svg xmlns="http://www.w3.org/2000/svg" xmlns:xlink="http://www.w3.org/1999/xlink" contentStyleType="text/css" height="1160px" preserveAspectRatio="none" style="width:1440px;height:1160px;background:#FFFFFF;" version="1.1" viewBox="0 0 1440 1160" width="1440px" zoomAndPan="magnify"><defs/><g><!--class Scan--><g id="elem_Scan"><rect codeLine="3" fill="#F1F1F1" height="113.625" id="Scan" rx="2.5" ry="2.5" style="stroke:#181818;stroke-width:0.5;" width="249" x="353.5" y="7"/><ellipse cx="458.25" cy="23" fill="#ADD1B2" rx="11" ry="11" style="stroke:#181818;stroke-width:1.0;"/><path d="M458.2969,29.2031 C459.7969,29.2031 461.0313,28.6406 461.9375,27.5781 L460.5625,26.0625 C460.0156,26.6563 459.3594,27.0469 458.5625,27.0469 C456.8906,27.0469 455.7344,25.7188 455.7344,23.4375 C455.7344,21.2188 456.8906,19.875 458.4531,19.875 C459.2656,19.875 459.8594,20.1875 460.3906,20.6719 L461.7656,19.125 C461.0156,18.3906 459.8594,17.7188 458.4531,17.7188 C455.5,17.7188 453.1719,19.8594 453.1719,23.5313 C453.1719,27.25 455.5469,29.2031 458.2969,29.2031 Z " fill="#000000"/><text fill="#000000" font-family="sans-serif" font-size="14" lengthAdjust="spacing" textLength="31" x="478.75" y="27.7852">Scan</text><line style="stroke:#181818;stroke-width:0.5;" x1="354.5" x2="601.5" y1="39" y2="39"/><text fill="#000000" font-family="sans-serif" font-size="14" lengthAdjust="spacing" textLength="134" x="359.5" y="55.9883">repeat_count : integer</text><text fill="#000000" font-family="sans-serif" font-size="14" lengthAdjust="spacing" textLength="114" x="359.5" y="72.3945">description : string</text><text fill="#000000" font-family="sans-serif" font-size="14" lengthAdjust="spacing" textLength="104" x="359.5" y="88.8008">comment : string</text><text fill="#000000" font-family="sans-serif" font-size="14" lengthAdjust="spacing" textLength="237" x="359.5" y="105.207">scan_modules : AbstractScanModule[]</text><line style="stroke:#181818;stroke-width:0.5;" x1="354.5" x2="601.5" y1="112.625" y2="112.625"/></g><!--class AbstractScanModule--><g id="elem_AbstractScanModule"><rect codeLine="18" fill="#F1F1F1" height="195.6563" id="AbstractScanModule" rx="2.5" ry="2.5" style="stroke:#181818;stroke-width:0.5;" width="256" x="350" y="181"/><ellipse cx="408.25" cy="197" fill="#ADD1B2" rx="11" ry="11" style="stroke:#181818;stroke-width:1.0;"/><path d="M408.2969,203.2031 C409.7969,203.2031 411.0313,202.6406 411.9375,201.5781 L410.5625,200.0625 C410.0156,200.6563 409.3594,201.0469 408.5625,201.0469 C406.8906,201.0469 405.7344,199.7188 405.7344,197.4375 C405.7344,195.2188 406.8906,193.875 408.4531,193.875 C409.2656,193.875 409.8594,194.1875 410.3906,194.6719 L411.7656,193.125 C411.0156,192.3906 409.8594,191.7188 408.4531,191.7188 C405.5,191.7188 403.1719,193.8594 403.1719,197.5313 C403.1719,201.25 405.5469,203.2031 408.2969,203.2031 Z " fill="#000000"/><text fill="#000000" font-family="sans-serif" font-size="14" lengthAdjust="spacing" textLength="131" x="428.75" y="201.7852">AbstractScanModule</text><line style="stroke:#181818;stroke-width:0.5;" x1="351" x2="605" y1="213" y2="213"/><text fill="#000000" font-family="sans-serif" font-size="14" lengthAdjust="spacing" textLength="63" x="356" y="229.9883">id : integer</text><text fill="#000000" font-family="sans-serif" font-size="14" lengthAdjust="spacing" textLength="80" x="356" y="246.3945">name : string</text><text fill="#000000" font-family="sans-serif" font-size="14" lengthAdjust="spacing" textLength="93" x="356" y="262.8008">parent : integer</text><text fill="#000000" font-family="sans-serif" font-size="14" lengthAdjust="spacing" textLength="114" x="356" y="279.207">appended : integer</text><text fill="#000000" font-family="sans-serif" font-size="14" lengthAdjust="spacing" textLength="94" x="356" y="295.6133">nested : integer</text><text fill="#000000" font-family="sans-serif" font-size="14" lengthAdjust="spacing" textLength="117" x="356" y="312.0195">is_nested : boolean</text><text fill="#000000" font-family="sans-serif" font-size="14" lengthAdjust="spacing" textLength="182" x="356" y="328.4258">number_of_positions : integer</text><text fill="#000000" font-family="sans-serif" font-size="14" lengthAdjust="spacing" textLength="244" x="356" y="344.832">number_of_positions_per_pass : integer</text><text fill="#000000" font-family="sans-serif" font-size="14" lengthAdjust="spacing" textLength="146" x="356" y="361.2383">positions : numpy.array</text><line style="stroke:#181818;stroke-width:0.5;" x1="351" x2="605" y1="368.6563" y2="368.6563"/></g><!--class File--><g id="elem_File"><rect fill="#F1F1F1" height="48" id="File" rx="2.5" ry="2.5" style="stroke:#181818;stroke-width:0.5;" width="53" x="265.5" y="40"/><ellipse cx="280.5" cy="56" fill="#ADD1B2" rx="11" ry="11" style="stroke:#181818;stroke-width:1.0;"/><path d="M280.5469,62.2031 C282.0469,62.2031 283.2813,61.6406 284.1875,60.5781 L282.8125,59.0625 C282.2656,59.6563 281.6094,60.0469 280.8125,60.0469 C279.1406,60.0469 277.9844,58.7188 277.9844,56.4375 C277.9844,54.2188 279.1406,52.875 280.7031,52.875 C281.5156,52.875 282.1094,53.1875 282.6406,53.6719 L284.0156,52.125 C283.2656,51.3906 282.1094,50.7188 280.7031,50.7188 C277.75,50.7188 275.4219,52.8594 275.4219,56.5313 C275.4219,60.25 277.7969,62.2031 280.5469,62.2031 Z " fill="#000000"/><text fill="#000000" font-family="sans-serif" font-size="14" lengthAdjust="spacing" textLength="21" x="294.5" y="60.7852">File</text><line style="stroke:#181818;stroke-width:0.5;" x1="266.5" x2="317.5" y1="72" y2="72"/><line style="stroke:#181818;stroke-width:0.5;" x1="266.5" x2="317.5" y1="80" y2="80"/></g><g id="elem_GMN7"><path d="M134,44 L134,84.4688 A0,0 0 0 0 134,84.4688 L230,84.4688 A0,0 0 0 0 230,84.4688 L230,68 L265.41,64 L230,60 L230,54 L220,44 L134,44 A0,0 0 0 0 134,44 " fill="#FEFFDD" style="stroke:#181818;stroke-width:0.5;"/><path d="M220,44 L220,54 L230,54 L220,44 " fill="#FEFFDD" style="stroke:#181818;stroke-width:0.5;"/><text fill="#000000" font-family="sans-serif" font-size="13" lengthAdjust="spacing" textLength="75" x="140" y="61.0605">See separate</text><text fill="#000000" font-family="sans-serif" font-size="13" lengthAdjust="spacing" textLength="66" x="140" y="76.2949">file module.</text></g><!--class ScanModule--><g id="elem_ScanModule"><rect codeLine="30" fill="#F1F1F1" height="146.4375" id="ScanModule" rx="2.5" ry="2.5" style="stroke:#181818;stroke-width:0.5;" width="230" x="701" y="437"/><ellipse cx="773.25" cy="453" fill="#ADD1B2" rx="11" ry="11" style="stroke:#181818;stroke-width:1.0;"/><path d="M773.2969,459.2031 C774.7969,459.2031 776.0313,458.6406 776.9375,457.5781 L775.5625,456.0625 C775.0156,456.6563 774.3594,457.0469 773.5625,457.0469 C771.8906,457.0469 770.7344,455.7188 770.7344,453.4375 C770.7344,451.2188 771.8906,449.875 773.4531,449.875 C774.2656,449.875 774.8594,450.1875 775.3906,450.6719 L776.7656,449.125 C776.0156,448.3906 774.8594,447.7188 773.4531,447.7188 C770.5,447.7188 768.1719,449.8594 768.1719,453.5313 C768.1719,457.25 770.5469,459.2031 773.2969,459.2031 Z " fill="#000000"/><text fill="#000000" font-family="sans-serif" font-size="14" lengthAdjust="spacing" textLength="77" x="793.75" y="457.7852">ScanModule</text><line style="stroke:#181818;stroke-width:0.5;" x1="702" x2="930" y1="469" y2="469"/><text fill="#000000" font-family="sans-serif" font-size="14" lengthAdjust="spacing" textLength="218" x="707" y="485.9883">number_of_measurements : integer</text><text fill="#000000" font-family="sans-serif" font-size="14" lengthAdjust="spacing" textLength="74" x="707" y="502.3945">axes : Axis{}</text><text fill="#000000" font-family="sans-serif" font-size="14" lengthAdjust="spacing" textLength="126" x="707" y="518.8008">channels : Channel{}</text><text fill="#000000" font-family="sans-serif" font-size="14" lengthAdjust="spacing" textLength="183" x="707" y="535.207">pre_scan_settings : PreScan{}</text><text fill="#000000" font-family="sans-serif" font-size="14" lengthAdjust="spacing" textLength="199" x="707" y="551.6133">post_scan_settings : PostScan{}</text><text fill="#000000" font-family="sans-serif" font-size="14" lengthAdjust="spacing" textLength="163" x="707" y="568.0195">positionings : Positioning[]</text><line style="stroke:#181818;stroke-width:0.5;" x1="702" x2="930" y1="575.4375" y2="575.4375"/></g><!--class Event--><g id="elem_Event"><rect fill="#F1F1F1" height="48" id="Event" rx="2.5" ry="2.5" style="stroke:#181818;stroke-width:0.5;" width="67" x="1340.5" y="692"/><ellipse cx="1355.5" cy="708" fill="#ADD1B2" rx="11" ry="11" style="stroke:#181818;stroke-width:1.0;"/><path d="M1355.5469,714.2031 C1357.0469,714.2031 1358.2813,713.6406 1359.1875,712.5781 L1357.8125,711.0625 C1357.2656,711.6563 1356.6094,712.0469 1355.8125,712.0469 C1354.1406,712.0469 1352.9844,710.7188 1352.9844,708.4375 C1352.9844,706.2188 1354.1406,704.875 1355.7031,704.875 C1356.5156,704.875 1357.1094,705.1875 1357.6406,705.6719 L1359.0156,704.125 C1358.2656,703.3906 1357.1094,702.7188 1355.7031,702.7188 C1352.75,702.7188 1350.4219,704.8594 1350.4219,708.5313 C1350.4219,712.25 1352.7969,714.2031 1355.5469,714.2031 Z " fill="#000000"/><text fill="#000000" font-family="sans-serif" font-size="14" lengthAdjust="spacing" textLength="35" x="1369.5" y="712.7852">Event</text><line style="stroke:#181818;stroke-width:0.5;" x1="1341.5" x2="1406.5" y1="724" y2="724"/><line style="stroke:#181818;stroke-width:0.5;" x1="1341.5" x2="1406.5" y1="732" y2="732"/></g><!--class Axis--><g id="elem_Axis"><rect codeLine="67" fill="#F1F1F1" height="113.625" id="Axis" rx="2.5" ry="2.5" style="stroke:#181818;stroke-width:0.5;" width="230" x="363" y="659"/><ellipse cx="460.75" cy="675" fill="#ADD1B2" rx="11" ry="11" style="stroke:#181818;stroke-width:1.0;"/><path d="M460.7969,681.2031 C462.2969,681.2031 463.5313,680.6406 464.4375,679.5781 L463.0625,678.0625 C462.5156,678.6563 461.8594,679.0469 461.0625,679.0469 C459.3906,679.0469 458.2344,677.7188 458.2344,675.4375 C458.2344,673.2188 459.3906,671.875 460.9531,671.875 C461.7656,671.875 462.3594,672.1875 462.8906,672.6719 L464.2656,671.125 C463.5156,670.3906 462.3594,669.7188 460.9531,669.7188 C458,669.7188 455.6719,671.8594 455.6719,675.5313 C455.6719,679.25 458.0469,681.2031 460.7969,681.2031 Z " fill="#000000"/><text fill="#000000" font-family="sans-serif" font-size="14" lengthAdjust="spacing" textLength="26" x="481.25" y="679.7852">Axis</text><line style="stroke:#181818;stroke-width:0.5;" x1="364" x2="592" y1="691" y2="691"/><text fill="#000000" font-family="sans-serif" font-size="14" lengthAdjust="spacing" textLength="56" x="369" y="707.9883">id : string</text><text fill="#000000" font-family="sans-serif" font-size="14" lengthAdjust="spacing" textLength="177" x="369" y="724.3945">step_function : StepFunction</text><text fill="#000000" font-family="sans-serif" font-size="14" lengthAdjust="spacing" textLength="218" x="369" y="740.8008">position_mode : "absolute"|"relative"</text><text fill="#000000" font-family="sans-serif" font-size="14" lengthAdjust="spacing" textLength="146" x="369" y="757.207">positions : numpy.array</text><line style="stroke:#181818;stroke-width:0.5;" x1="364" x2="592" y1="764.625" y2="764.625"/></g><!--class Channel--><g id="elem_Channel"><rect codeLine="75" fill="#F1F1F1" height="97.2188" id="Channel" rx="2.5" ry="2.5" style="stroke:#181818;stroke-width:0.5;" width="170" x="158" y="667.5"/><ellipse cx="213.25" cy="683.5" fill="#ADD1B2" rx="11" ry="11" style="stroke:#181818;stroke-width:1.0;"/><path d="M213.2969,689.7031 C214.7969,689.7031 216.0313,689.1406 216.9375,688.0781 L215.5625,686.5625 C215.0156,687.1563 214.3594,687.5469 213.5625,687.5469 C211.8906,687.5469 210.7344,686.2188 210.7344,683.9375 C210.7344,681.7188 211.8906,680.375 213.4531,680.375 C214.2656,680.375 214.8594,680.6875 215.3906,681.1719 L216.7656,679.625 C216.0156,678.8906 214.8594,678.2188 213.4531,678.2188 C210.5,678.2188 208.1719,680.3594 208.1719,684.0313 C208.1719,687.75 210.5469,689.7031 213.2969,689.7031 Z " fill="#000000"/><text fill="#000000" font-family="sans-serif" font-size="14" lengthAdjust="spacing" textLength="51" x="233.75" y="688.2852">Channel</text><line style="stroke:#181818;stroke-width:0.5;" x1="159" x2="327" y1="699.5" y2="699.5"/><text fill="#000000" font-family="sans-serif" font-size="14" lengthAdjust="spacing" textLength="56" x="164" y="716.4883">id : string</text><text fill="#000000" font-family="sans-serif" font-size="14" lengthAdjust="spacing" textLength="123" x="164" y="732.8945">normalize_id : string</text><text fill="#000000" font-family="sans-serif" font-size="14" lengthAdjust="spacing" textLength="158" x="164" y="749.3008">deferred_trigger : boolean</text><line style="stroke:#181818;stroke-width:0.5;" x1="159" x2="327" y1="756.7188" y2="756.7188"/></g><!--class Positioning--><g id="elem_Positioning"><rect codeLine="95" fill="#F1F1F1" height="146.4375" id="Positioning" rx="2.5" ry="2.5" style="stroke:#181818;stroke-width:0.5;" width="190" x="628" y="643"/><ellipse cx="683.75" cy="659" fill="#ADD1B2" rx="11" ry="11" style="stroke:#181818;stroke-width:1.0;"/><path d="M683.7969,665.2031 C685.2969,665.2031 686.5313,664.6406 687.4375,663.5781 L686.0625,662.0625 C685.5156,662.6563 684.8594,663.0469 684.0625,663.0469 C682.3906,663.0469 681.2344,661.7188 681.2344,659.4375 C681.2344,657.2188 682.3906,655.875 683.9531,655.875 C684.7656,655.875 685.3594,656.1875 685.8906,656.6719 L687.2656,655.125 C686.5156,654.3906 685.3594,653.7188 683.9531,653.7188 C681,653.7188 678.6719,655.8594 678.6719,659.5313 C678.6719,663.25 681.0469,665.2031 683.7969,665.2031 Z " fill="#000000"/><text fill="#000000" font-family="sans-serif" font-size="14" lengthAdjust="spacing" textLength="70" x="704.25" y="663.7852">Positioning</text><line style="stroke:#181818;stroke-width:0.5;" x1="629" x2="817" y1="675" y2="675"/><text fill="#000000" font-family="sans-serif" font-size="14" lengthAdjust="spacing" textLength="87" x="634" y="691.9883">axis_id : string</text><text fill="#000000" font-family="sans-serif" font-size="14" lengthAdjust="spacing" textLength="111" x="634" y="708.3945">channel_id : string</text><text fill="#000000" font-family="sans-serif" font-size="14" lengthAdjust="spacing" textLength="178" x="634" y="724.8008">normalize_channel_id : string</text><text fill="#000000" font-family="sans-serif" font-size="14" lengthAdjust="spacing" textLength="72" x="634" y="741.207">type : string</text><text fill="#000000" font-family="sans-serif" font-size="14" lengthAdjust="spacing" textLength="104" x="634" y="757.6133">parameters : dict</text><text fill="#000000" font-family="sans-serif" font-size="14" lengthAdjust="spacing" textLength="102" x="634" y="774.0195">position : integer</text><line style="stroke:#181818;stroke-width:0.5;" x1="629" x2="817" y1="781.4375" y2="781.4375"/></g><!--class PreScan--><g id="elem_PreScan"><rect codeLine="105" fill="#F1F1F1" height="80.8125" id="PreScan" rx="2.5" ry="2.5" style="stroke:#181818;stroke-width:0.5;" width="114" x="853" y="675.5"/><ellipse cx="881.5" cy="691.5" fill="#ADD1B2" rx="11" ry="11" style="stroke:#181818;stroke-width:1.0;"/><path d="M881.5469,697.7031 C883.0469,697.7031 884.2813,697.1406 885.1875,696.0781 L883.8125,694.5625 C883.2656,695.1563 882.6094,695.5469 881.8125,695.5469 C880.1406,695.5469 878.9844,694.2188 878.9844,691.9375 C878.9844,689.7188 880.1406,688.375 881.7031,688.375 C882.5156,688.375 883.1094,688.6875 883.6406,689.1719 L885.0156,687.625 C884.2656,686.8906 883.1094,686.2188 881.7031,686.2188 C878.75,686.2188 876.4219,688.3594 876.4219,692.0313 C876.4219,695.75 878.7969,697.7031 881.5469,697.7031 Z " fill="#000000"/><text fill="#000000" font-family="sans-serif" font-size="14" lengthAdjust="spacing" textLength="52" x="898.5" y="696.2852">PreScan</text><line style="stroke:#181818;stroke-width:0.5;" x1="854" x2="966" y1="707.5" y2="707.5"/><text fill="#000000" font-family="sans-serif" font-size="14" lengthAdjust="spacing" textLength="56" x="859" y="724.4883">id : string</text><text fill="#000000" font-family="sans-serif" font-size="14" lengthAdjust="spacing" textLength="102" x="859" y="740.8945">value : typevalue</text><line style="stroke:#181818;stroke-width:0.5;" x1="854" x2="966" y1="748.3125" y2="748.3125"/></g><!--class PostScan--><g id="elem_PostScan"><rect codeLine="110" fill="#F1F1F1" height="97.2188" id="PostScan" rx="2.5" ry="2.5" style="stroke:#181818;stroke-width:0.5;" width="193" x="1002.5" y="667.5"/><ellipse cx="1064.75" cy="683.5" fill="#ADD1B2" rx="11" ry="11" style="stroke:#181818;stroke-width:1.0;"/><path d="M1064.7969,689.7031 C1066.2969,689.7031 1067.5313,689.1406 1068.4375,688.0781 L1067.0625,686.5625 C1066.5156,687.1563 1065.8594,687.5469 1065.0625,687.5469 C1063.3906,687.5469 1062.2344,686.2188 1062.2344,683.9375 C1062.2344,681.7188 1063.3906,680.375 1064.9531,680.375 C1065.7656,680.375 1066.3594,680.6875 1066.8906,681.1719 L1068.2656,679.625 C1067.5156,678.8906 1066.3594,678.2188 1064.9531,678.2188 C1062,678.2188 1059.6719,680.3594 1059.6719,684.0313 C1059.6719,687.75 1062.0469,689.7031 1064.7969,689.7031 Z " fill="#000000"/><text fill="#000000" font-family="sans-serif" font-size="14" lengthAdjust="spacing" textLength="60" x="1085.25" y="688.2852">PostScan</text><line style="stroke:#181818;stroke-width:0.5;" x1="1003.5" x2="1194.5" y1="699.5" y2="699.5"/><text fill="#000000" font-family="sans-serif" font-size="14" lengthAdjust="spacing" textLength="56" x="1008.5" y="716.4883">id : string</text><text fill="#000000" font-family="sans-serif" font-size="14" lengthAdjust="spacing" textLength="102" x="1008.5" y="732.8945">value : typevalue</text><text fill="#000000" font-family="sans-serif" font-size="14" lengthAdjust="spacing" textLength="181" x="1008.5" y="749.3008">reset_original_value : boolean</text><line style="stroke:#181818;stroke-width:0.5;" x1="1003.5" x2="1194.5" y1="756.7188" y2="756.7188"/></g><!--class Plot--><g id="elem_Plot"><rect fill="#F1F1F1" height="48" id="Plot" rx="2.5" ry="2.5" style="stroke:#181818;stroke-width:0.5;" width="57" x="1230.5" y="692"/><ellipse cx="1245.5" cy="708" fill="#ADD1B2" rx="11" ry="11" style="stroke:#181818;stroke-width:1.0;"/><path d="M1245.5469,714.2031 C1247.0469,714.2031 1248.2813,713.6406 1249.1875,712.5781 L1247.8125,711.0625 C1247.2656,711.6563 1246.6094,712.0469 1245.8125,712.0469 C1244.1406,712.0469 1242.9844,710.7188 1242.9844,708.4375 C1242.9844,706.2188 1244.1406,704.875 1245.7031,704.875 C1246.5156,704.875 1247.1094,705.1875 1247.6406,705.6719 L1249.0156,704.125 C1248.2656,703.3906 1247.1094,702.7188 1245.7031,702.7188 C1242.75,702.7188 1240.4219,704.8594 1240.4219,708.5313 C1240.4219,712.25 1242.7969,714.2031 1245.5469,714.2031 Z " fill="#000000"/><text fill="#000000" font-family="sans-serif" font-size="14" lengthAdjust="spacing" textLength="25" x="1259.5" y="712.7852">Plot</text><line style="stroke:#181818;stroke-width:0.5;" x1="1231.5" x2="1286.5" y1="724" y2="724"/><line style="stroke:#181818;stroke-width:0.5;" x1="1231.5" x2="1286.5" y1="732" y2="732"/></g><g id="elem_GMN26"><path d="M1202,886 L1202,926.4688 A0,0 0 0 0 1202,926.4688 L1298,926.4688 A0,0 0 0 0 1298,926.4688 L1298,896 L1288,886 L1254.92,886 L1257.9,740.05 L1246.92,886 L1202,886 A0,0 0 0 0 1202,886 " fill="#FEFFDD" style="stroke:#181818;stroke-width:0.5;"/><path d="M1288,886 L1288,896 L1298,896 L1288,886 " fill="#FEFFDD" style="stroke:#181818;stroke-width:0.5;"/><text fill="#000000" font-family="sans-serif" font-size="13" lengthAdjust="spacing" textLength="75" x="1208" y="903.0605">See separate</text><text fill="#000000" font-family="sans-serif" font-size="13" lengthAdjust="spacing" textLength="69" x="1208" y="918.2949">plot module.</text></g><g id="elem_GMN29"><path d="M1333,886 L1333,926.4688 A0,0 0 0 0 1333,926.4688 L1433,926.4688 A0,0 0 0 0 1433,926.4688 L1433,896 L1423,886 L1386.08,886 L1375.1,740.05 L1378.08,886 L1333,886 A0,0 0 0 0 1333,886 " fill="#FEFFDD" style="stroke:#181818;stroke-width:0.5;"/><path d="M1423,886 L1423,896 L1433,896 L1423,886 " fill="#FEFFDD" style="stroke:#181818;stroke-width:0.5;"/><text fill="#000000" font-family="sans-serif" font-size="13" lengthAdjust="spacing" textLength="75" x="1339" y="903.0605">See separate</text><text fill="#000000" font-family="sans-serif" font-size="13" lengthAdjust="spacing" textLength="79" x="1339" y="918.2949">event module.</text></g><!--class DynamicSnapshotModule--><g id="elem_DynamicSnapshotModule"><rect codeLine="50" fill="#F1F1F1" height="48" id="DynamicSnapshotModule" rx="2.5" ry="2.5" style="stroke:#181818;stroke-width:0.5;" width="192" x="164" y="486"/><ellipse cx="179" cy="502" fill="#ADD1B2" rx="11" ry="11" style="stroke:#181818;stroke-width:1.0;"/><path d="M179.0469,508.2031 C180.5469,508.2031 181.7813,507.6406 182.6875,506.5781 L181.3125,505.0625 C180.7656,505.6563 180.1094,506.0469 179.3125,506.0469 C177.6406,506.0469 176.4844,504.7188 176.4844,502.4375 C176.4844,500.2188 177.6406,498.875 179.2031,498.875 C180.0156,498.875 180.6094,499.1875 181.1406,499.6719 L182.5156,498.125 C181.7656,497.3906 180.6094,496.7188 179.2031,496.7188 C176.25,496.7188 173.9219,498.8594 173.9219,502.5313 C173.9219,506.25 176.2969,508.2031 179.0469,508.2031 Z " fill="#000000"/><text fill="#000000" font-family="sans-serif" font-size="14" lengthAdjust="spacing" textLength="160" x="193" y="506.7852">DynamicSnapshotModule</text><line style="stroke:#181818;stroke-width:0.5;" x1="165" x2="355" y1="518" y2="518"/><line style="stroke:#181818;stroke-width:0.5;" x1="165" x2="355" y1="526" y2="526"/></g><!--class StaticSnapshotModule--><g id="elem_StaticSnapshotModule"><rect codeLine="64" fill="#F1F1F1" height="80.8125" id="StaticSnapshotModule" rx="2.5" ry="2.5" style="stroke:#181818;stroke-width:0.5;" width="174" x="391" y="469.5"/><ellipse cx="406" cy="485.5" fill="#ADD1B2" rx="11" ry="11" style="stroke:#181818;stroke-width:1.0;"/><path d="M406.0469,491.7031 C407.5469,491.7031 408.7813,491.1406 409.6875,490.0781 L408.3125,488.5625 C407.7656,489.1563 407.1094,489.5469 406.3125,489.5469 C404.6406,489.5469 403.4844,488.2188 403.4844,485.9375 C403.4844,483.7188 404.6406,482.375 406.2031,482.375 C407.0156,482.375 407.6094,482.6875 408.1406,483.1719 L409.5156,481.625 C408.7656,480.8906 407.6094,480.2188 406.2031,480.2188 C403.25,480.2188 400.9219,482.3594 400.9219,486.0313 C400.9219,489.75 403.2969,491.7031 406.0469,491.7031 Z " fill="#000000"/><text fill="#000000" font-family="sans-serif" font-size="14" lengthAdjust="spacing" textLength="142" x="420" y="490.2852">StaticSnapshotModule</text><line style="stroke:#181818;stroke-width:0.5;" x1="392" x2="564" y1="501.5" y2="501.5"/><text fill="#000000" font-family="sans-serif" font-size="14" lengthAdjust="spacing" textLength="74" x="397" y="518.4883">axes : Axis{}</text><text fill="#000000" font-family="sans-serif" font-size="14" lengthAdjust="spacing" textLength="126" x="397" y="534.8945">channels : Channel{}</text><line style="stroke:#181818;stroke-width:0.5;" x1="392" x2="564" y1="542.3125" y2="542.3125"/></g><!--class StepFunction--><g id="elem_StepFunction"><rect codeLine="116" fill="#F1F1F1" height="80.8125" id="StepFunction" rx="2.5" ry="2.5" style="stroke:#181818;stroke-width:0.5;" width="158" x="399" y="865.5"/><ellipse cx="433.35" cy="881.5" fill="#ADD1B2" rx="11" ry="11" style="stroke:#181818;stroke-width:1.0;"/><path d="M433.3969,887.7031 C434.8969,887.7031 436.1313,887.1406 437.0375,886.0781 L435.6625,884.5625 C435.1156,885.1563 434.4594,885.5469 433.6625,885.5469 C431.9906,885.5469 430.8344,884.2188 430.8344,881.9375 C430.8344,879.7188 431.9906,878.375 433.5531,878.375 C434.3656,878.375 434.9594,878.6875 435.4906,879.1719 L436.8656,877.625 C436.1156,876.8906 434.9594,876.2188 433.5531,876.2188 C430.6,876.2188 428.2719,878.3594 428.2719,882.0313 C428.2719,885.75 430.6469,887.7031 433.3969,887.7031 Z " fill="#000000"/><text fill="#000000" font-family="sans-serif" font-size="14" lengthAdjust="spacing" textLength="83" x="451.65" y="886.2852">StepFunction</text><line style="stroke:#181818;stroke-width:0.5;" x1="400" x2="556" y1="897.5" y2="897.5"/><text fill="#000000" font-family="sans-serif" font-size="14" lengthAdjust="spacing" textLength="146" x="405" y="914.4883">positions : numpy.array</text><line style="stroke:#181818;stroke-width:0.5;" x1="400" x2="556" y1="921.9063" y2="921.9063"/><text fill="#000000" font-family="sans-serif" font-size="14" lengthAdjust="spacing" textLength="129" x="405" y="938.8945">calculate_positions()</text></g><!--class IntervalChannel--><g id="elem_IntervalChannel"><rect codeLine="83" fill="#F1F1F1" height="80.8125" id="IntervalChannel" rx="2.5" ry="2.5" style="stroke:#181818;stroke-width:0.5;" width="143" x="196.5" y="865.5"/><ellipse cx="217.35" cy="881.5" fill="#ADD1B2" rx="11" ry="11" style="stroke:#181818;stroke-width:1.0;"/><path d="M217.3969,887.7031 C218.8969,887.7031 220.1313,887.1406 221.0375,886.0781 L219.6625,884.5625 C219.1156,885.1563 218.4594,885.5469 217.6625,885.5469 C215.9906,885.5469 214.8344,884.2188 214.8344,881.9375 C214.8344,879.7188 215.9906,878.375 217.5531,878.375 C218.3656,878.375 218.9594,878.6875 219.4906,879.1719 L220.8656,877.625 C220.1156,876.8906 218.9594,876.2188 217.5531,876.2188 C214.6,876.2188 212.2719,878.3594 212.2719,882.0313 C212.2719,885.75 214.6469,887.7031 217.3969,887.7031 Z " fill="#000000"/><text fill="#000000" font-family="sans-serif" font-size="14" lengthAdjust="spacing" textLength="98" x="232.65" y="886.2852">IntervalChannel</text><line style="stroke:#181818;stroke-width:0.5;" x1="197.5" x2="338.5" y1="897.5" y2="897.5"/><text fill="#000000" font-family="sans-serif" font-size="14" lengthAdjust="spacing" textLength="131" x="202.5" y="914.4883">trigger_interval : float</text><text fill="#000000" font-family="sans-serif" font-size="14" lengthAdjust="spacing" textLength="117" x="202.5" y="930.8945">stopped_by : string</text><line style="stroke:#181818;stroke-width:0.5;" x1="197.5" x2="338.5" y1="938.3125" y2="938.3125"/></g><!--class AverageChannel--><g id="elem_AverageChannel"><rect codeLine="88" fill="#F1F1F1" height="113.625" id="AverageChannel" rx="2.5" ry="2.5" style="stroke:#181818;stroke-width:0.5;" width="154" x="7" y="849"/><ellipse cx="31" cy="865" fill="#ADD1B2" rx="11" ry="11" style="stroke:#181818;stroke-width:1.0;"/><path d="M31.0469,871.2031 C32.5469,871.2031 33.7813,870.6406 34.6875,869.5781 L33.3125,868.0625 C32.7656,868.6563 32.1094,869.0469 31.3125,869.0469 C29.6406,869.0469 28.4844,867.7188 28.4844,865.4375 C28.4844,863.2188 29.6406,861.875 31.2031,861.875 C32.0156,861.875 32.6094,862.1875 33.1406,862.6719 L34.5156,861.125 C33.7656,860.3906 32.6094,859.7188 31.2031,859.7188 C28.25,859.7188 25.9219,861.8594 25.9219,865.5313 C25.9219,869.25 28.2969,871.2031 31.0469,871.2031 Z " fill="#000000"/><text fill="#000000" font-family="sans-serif" font-size="14" lengthAdjust="spacing" textLength="102" x="47" y="869.7852">AverageChannel</text><line style="stroke:#181818;stroke-width:0.5;" x1="8" x2="160" y1="881" y2="881"/><text fill="#000000" font-family="sans-serif" font-size="14" lengthAdjust="spacing" textLength="123" x="13" y="897.9883">n_averages : integer</text><text fill="#000000" font-family="sans-serif" font-size="14" lengthAdjust="spacing" textLength="92" x="13" y="914.3945">low_limit : float</text><text fill="#000000" font-family="sans-serif" font-size="14" lengthAdjust="spacing" textLength="142" x="13" y="930.8008">max_attempts : integer</text><text fill="#000000" font-family="sans-serif" font-size="14" lengthAdjust="spacing" textLength="128" x="13" y="947.207">max_deviation : float</text><line style="stroke:#181818;stroke-width:0.5;" x1="8" x2="160" y1="954.625" y2="954.625"/></g><!--class StepFile--><g id="elem_StepFile"><rect codeLine="121" fill="#F1F1F1" height="64.4063" id="StepFile" rx="2.5" ry="2.5" style="stroke:#181818;stroke-width:0.5;" width="110" x="163" y="1056"/><ellipse cx="191.05" cy="1072" fill="#ADD1B2" rx="11" ry="11" style="stroke:#181818;stroke-width:1.0;"/><path d="M191.0969,1078.2031 C192.5969,1078.2031 193.8313,1077.6406 194.7375,1076.5781 L193.3625,1075.0625 C192.8156,1075.6563 192.1594,1076.0469 191.3625,1076.0469 C189.6906,1076.0469 188.5344,1074.7188 188.5344,1072.4375 C188.5344,1070.2188 189.6906,1068.875 191.2531,1068.875 C192.0656,1068.875 192.6594,1069.1875 193.1906,1069.6719 L194.5656,1068.125 C193.8156,1067.3906 192.6594,1066.7188 191.2531,1066.7188 C188.3,1066.7188 185.9719,1068.8594 185.9719,1072.5313 C185.9719,1076.25 188.3469,1078.2031 191.0969,1078.2031 Z " fill="#000000"/><text fill="#000000" font-family="sans-serif" font-size="14" lengthAdjust="spacing" textLength="49" x="207.95" y="1076.7852">StepFile</text><line style="stroke:#181818;stroke-width:0.5;" x1="164" x2="272" y1="1088" y2="1088"/><text fill="#000000" font-family="sans-serif" font-size="14" lengthAdjust="spacing" textLength="98" x="169" y="1104.9883">filename : string</text><line style="stroke:#181818;stroke-width:0.5;" x1="164" x2="272" y1="1112.4063" y2="1112.4063"/></g><!--class StepRange--><g id="elem_StepRange"><rect codeLine="125" fill="#F1F1F1" height="130.0313" id="StepRange" rx="2.5" ry="2.5" style="stroke:#181818;stroke-width:0.5;" width="149" x="308.5" y="1023"/><ellipse cx="345.55" cy="1039" fill="#ADD1B2" rx="11" ry="11" style="stroke:#181818;stroke-width:1.0;"/><path d="M345.5969,1045.2031 C347.0969,1045.2031 348.3313,1044.6406 349.2375,1043.5781 L347.8625,1042.0625 C347.3156,1042.6563 346.6594,1043.0469 345.8625,1043.0469 C344.1906,1043.0469 343.0344,1041.7188 343.0344,1039.4375 C343.0344,1037.2188 344.1906,1035.875 345.7531,1035.875 C346.5656,1035.875 347.1594,1036.1875 347.6906,1036.6719 L349.0656,1035.125 C348.3156,1034.3906 347.1594,1033.7188 345.7531,1033.7188 C342.8,1033.7188 340.4719,1035.8594 340.4719,1039.5313 C340.4719,1043.25 342.8469,1045.2031 345.5969,1045.2031 Z " fill="#000000"/><text fill="#000000" font-family="sans-serif" font-size="14" lengthAdjust="spacing" textLength="68" x="364.45" y="1043.7852">StepRange</text><line style="stroke:#181818;stroke-width:0.5;" x1="309.5" x2="456.5" y1="1055" y2="1055"/><text fill="#000000" font-family="sans-serif" font-size="14" lengthAdjust="spacing" textLength="136" x="314.5" y="1071.9883">mode : "add"|"multiply"</text><text fill="#000000" font-family="sans-serif" font-size="14" lengthAdjust="spacing" textLength="68" x="314.5" y="1088.3945">start : float</text><text fill="#000000" font-family="sans-serif" font-size="14" lengthAdjust="spacing" textLength="66" x="314.5" y="1104.8008">stop : float</text><text fill="#000000" font-family="sans-serif" font-size="14" lengthAdjust="spacing" textLength="106" x="314.5" y="1121.207">step_width : float</text><text fill="#000000" font-family="sans-serif" font-size="14" lengthAdjust="spacing" textLength="137" x="314.5" y="1137.6133">is_main_axis : boolean</text><line style="stroke:#181818;stroke-width:0.5;" x1="309.5" x2="456.5" y1="1145.0313" y2="1145.0313"/></g><!--class StepRanges--><g id="elem_StepRanges"><rect codeLine="133" fill="#F1F1F1" height="80.8125" id="StepRanges" rx="2.5" ry="2.5" style="stroke:#181818;stroke-width:0.5;" width="161" x="492.5" y="1047.5"/><ellipse cx="531.8" cy="1063.5" fill="#ADD1B2" rx="11" ry="11" style="stroke:#181818;stroke-width:1.0;"/><path d="M531.8469,1069.7031 C533.3469,1069.7031 534.5813,1069.1406 535.4875,1068.0781 L534.1125,1066.5625 C533.5656,1067.1563 532.9094,1067.5469 532.1125,1067.5469 C530.4406,1067.5469 529.2844,1066.2188 529.2844,1063.9375 C529.2844,1061.7188 530.4406,1060.375 532.0031,1060.375 C532.8156,1060.375 533.4094,1060.6875 533.9406,1061.1719 L535.3156,1059.625 C534.5656,1058.8906 533.4094,1058.2188 532.0031,1058.2188 C529.05,1058.2188 526.7219,1060.3594 526.7219,1064.0313 C526.7219,1067.75 529.0969,1069.7031 531.8469,1069.7031 Z " fill="#000000"/><text fill="#000000" font-family="sans-serif" font-size="14" lengthAdjust="spacing" textLength="75" x="551.2" y="1068.2852">StepRanges</text><line style="stroke:#181818;stroke-width:0.5;" x1="493.5" x2="652.5" y1="1079.5" y2="1079.5"/><text fill="#000000" font-family="sans-serif" font-size="14" lengthAdjust="spacing" textLength="112" x="498.5" y="1096.4883">expression : string</text><text fill="#000000" font-family="sans-serif" font-size="14" lengthAdjust="spacing" textLength="149" x="498.5" y="1112.8945">positions :  numpy.array</text><line style="stroke:#181818;stroke-width:0.5;" x1="493.5" x2="652.5" y1="1120.3125" y2="1120.3125"/></g><!--class StepReference--><g id="elem_StepReference"><rect codeLine="138" fill="#F1F1F1" height="97.2188" id="StepReference" rx="2.5" ry="2.5" style="stroke:#181818;stroke-width:0.5;" width="148" x="689" y="1039.5"/><ellipse cx="715.7" cy="1055.5" fill="#ADD1B2" rx="11" ry="11" style="stroke:#181818;stroke-width:1.0;"/><path d="M715.7469,1061.7031 C717.2469,1061.7031 718.4813,1061.1406 719.3875,1060.0781 L718.0125,1058.5625 C717.4656,1059.1563 716.8094,1059.5469 716.0125,1059.5469 C714.3406,1059.5469 713.1844,1058.2188 713.1844,1055.9375 C713.1844,1053.7188 714.3406,1052.375 715.9031,1052.375 C716.7156,1052.375 717.3094,1052.6875 717.8406,1053.1719 L719.2156,1051.625 C718.4656,1050.8906 717.3094,1050.2188 715.9031,1050.2188 C712.95,1050.2188 710.6219,1052.3594 710.6219,1056.0313 C710.6219,1059.75 712.9969,1061.7031 715.7469,1061.7031 Z " fill="#000000"/><text fill="#000000" font-family="sans-serif" font-size="14" lengthAdjust="spacing" textLength="90" x="732.3" y="1060.2852">StepReference</text><line style="stroke:#181818;stroke-width:0.5;" x1="690" x2="836" y1="1071.5" y2="1071.5"/><text fill="#000000" font-family="sans-serif" font-size="14" lengthAdjust="spacing" textLength="136" x="695" y="1088.4883">mode : "add"|"multiply"</text><text fill="#000000" font-family="sans-serif" font-size="14" lengthAdjust="spacing" textLength="103" x="695" y="1104.8945">parameter : float</text><text fill="#000000" font-family="sans-serif" font-size="14" lengthAdjust="spacing" textLength="87" x="695" y="1121.3008">axis_id : string</text><line style="stroke:#181818;stroke-width:0.5;" x1="690" x2="836" y1="1128.7188" y2="1128.7188"/></g><!--reverse link Scan to AbstractScanModule--><g id="link_Scan_AbstractScanModule"><path codeLine="9" d="M478,133.24 C478,151.48 478,160.28 478,180.62 " fill="none" id="Scan-backto-AbstractScanModule" style="stroke:#181818;stroke-width:1.0;"/><polygon fill="#181818" points="478,121.24,474,127.24,478,133.24,482,127.24,478,121.24" style="stroke:#181818;stroke-width:1.0;"/><text fill="#000000" font-family="sans-serif" font-size="13" lengthAdjust="spacing" textLength="7" x="470.743" y="169.9262">n</text></g><!--reverse link File to Scan--><g id="link_File_Scan"><path codeLine="15" d="M330.52,64 C342.15,64 341.78,64 353.41,64 " fill="none" id="File-backto-Scan" style="stroke:#181818;stroke-width:1.0;"/><polygon fill="#181818" points="318.52,64,324.52,68,330.52,64,324.52,60,318.52,64" style="stroke:#181818;stroke-width:1.0;"/></g><!--reverse link AbstractScanModule to ScanModule--><g id="link_AbstractScanModule_ScanModule"><path d="M621.1718,376.9963 C655.2518,400.0863 676.78,414.68 709.56,436.88 " fill="none" id="AbstractScanModule-backto-ScanModule" style="stroke:#181818;stroke-width:1.0;"/><polygon fill="none" points="606.27,366.9,617.8064,381.9636,624.5373,372.0291,606.27,366.9" style="stroke:#181818;stroke-width:1.0;"/></g><!--reverse link ScanModule to Event--><g id="link_ScanModule_Event"><path codeLine="39" d="M942.9115,526.0181 C1046.5815,541.9081 1188.33,573.83 1305,643 C1325.85,655.36 1344.53,675.74 1357.18,691.66 " fill="none" id="ScanModule-backto-Event" style="stroke:#181818;stroke-width:1.0;"/><polygon fill="#181818" points="931.05,524.2,936.3747,529.0629,942.9115,526.0181,937.5868,521.1552,931.05,524.2" style="stroke:#181818;stroke-width:1.0;"/><text fill="#000000" font-family="sans-serif" font-size="13" lengthAdjust="spacing" textLength="7" x="1345.227" y="680.9881">n</text></g><!--reverse link ScanModule to Axis--><g id="link_ScanModule_Axis"><path codeLine="40" d="M690.3466,586.8315 C648.0866,612.3415 611.1,634.67 571.04,658.85 " fill="none" id="ScanModule-backto-Axis" style="stroke:#181818;stroke-width:1.0;"/><polygon fill="#181818" points="700.62,580.63,693.4162,580.3063,690.3466,586.8315,697.5505,587.1552,700.62,580.63" style="stroke:#181818;stroke-width:1.0;"/><text fill="#000000" font-family="sans-serif" font-size="13" lengthAdjust="spacing" textLength="7" x="575.5123" y="647.6663">n</text></g><!--reverse link ScanModule to Channel--><g id="link_ScanModule_Channel"><path codeLine="41" d="M689.4276,551.2316 C651.6676,562.9316 620.88,572.1 582,583 C477.37,612.32 443.71,597.58 345,643 C330.63,649.62 316.16,658.31 302.81,667.37 " fill="none" id="ScanModule-backto-Channel" style="stroke:#181818;stroke-width:1.0;"/><polygon fill="#181818" points="700.89,547.68,693.9749,545.635,689.4276,551.2316,696.3427,553.2766,700.89,547.68" style="stroke:#181818;stroke-width:1.0;"/><text fill="#000000" font-family="sans-serif" font-size="13" lengthAdjust="spacing" textLength="7" x="312.1087" y="656.1876">n</text></g><!--reverse link ScanModule to Positioning--><g id="link_ScanModule_Positioning"><path codeLine="42" d="M778.1025,594.129 C769.2725,613.499 764.7,623.52 755.87,642.89 " fill="none" id="ScanModule-backto-Positioning" style="stroke:#181818;stroke-width:1.0;"/><polygon fill="#181818" points="783.08,583.21,776.9516,587.0103,778.1025,594.129,784.2309,590.3287,783.08,583.21" style="stroke:#181818;stroke-width:1.0;"/><text fill="#000000" font-family="sans-serif" font-size="13" lengthAdjust="spacing" textLength="7" x="751.8988" y="631.6272">n</text></g><!--reverse link ScanModule to PreScan--><g id="link_ScanModule_PreScan"><path codeLine="43" d="M854.2916,594.1088 C868.5516,625.0588 879.64,649.11 891.68,675.25 " fill="none" id="ScanModule-backto-PreScan" style="stroke:#181818;stroke-width:1.0;"/><polygon fill="#181818" points="849.27,583.21,848.1478,590.3333,854.2916,594.1088,855.4137,586.9856,849.27,583.21" style="stroke:#181818;stroke-width:1.0;"/><text fill="#000000" font-family="sans-serif" font-size="13" lengthAdjust="spacing" textLength="7" x="881.0661" y="664.3541">n</text></g><!--reverse link ScanModule to PostScan--><g id="link_ScanModule_PostScan"><path codeLine="44" d="M925.9044,590.2273 C964.7044,618.1973 998.31,642.42 1033.05,667.46 " fill="none" id="ScanModule-backto-PostScan" style="stroke:#181818;stroke-width:1.0;"/><polygon fill="#181818" points="916.17,583.21,918.6981,589.9634,925.9044,590.2273,923.3763,583.4738,916.17,583.21" style="stroke:#181818;stroke-width:1.0;"/><text fill="#000000" font-family="sans-serif" font-size="13" lengthAdjust="spacing" textLength="7" x="1015.8495" y="656.2908">n</text></g><!--reverse link ScanModule to Plot--><g id="link_ScanModule_Plot"><path codeLine="45" d="M943.1787,530.4544 C1028.1387,547.7544 1130.91,579.07 1213,643 C1229.38,655.76 1241.61,676.1 1249.32,691.91 " fill="none" id="ScanModule-backto-Plot" style="stroke:#181818;stroke-width:1.0;"/><polygon fill="#181818" points="931.42,528.06,936.5012,533.1768,943.1787,530.4544,938.0975,525.3376,931.42,528.06" style="stroke:#181818;stroke-width:1.0;"/><text fill="#000000" font-family="sans-serif" font-size="13" lengthAdjust="spacing" textLength="7" x="1238.9426" y="680.9056">n</text></g><!--reverse link AbstractScanModule to DynamicSnapshotModule--><g id="link_AbstractScanModule_DynamicSnapshotModule"><path d="M373.139,390.1571 C335.079,430.1371 306.67,459.98 282.24,485.64 " fill="none" id="AbstractScanModule-backto-DynamicSnapshotModule" style="stroke:#181818;stroke-width:1.0;"/><polygon fill="none" points="385.55,377.12,368.7933,386.0201,377.4847,394.2941,385.55,377.12" style="stroke:#181818;stroke-width:1.0;"/></g><!--reverse link AbstractScanModule to StaticSnapshotModule--><g id="link_AbstractScanModule_StaticSnapshotModule"><path d="M478,395.12 C478,427.54 478,443.87 478,469.38 " fill="none" id="AbstractScanModule-backto-StaticSnapshotModule" style="stroke:#181818;stroke-width:1.0;"/><polygon fill="none" points="478,377.12,472,395.12,484,395.12,478,377.12" style="stroke:#181818;stroke-width:1.0;"/></g><!--reverse link StaticSnapshotModule to Axis--><g id="link_StaticSnapshotModule_Axis"><path codeLine="57" d="M478,562.82 C478,593.54 478,624.45 478,658.69 " fill="none" id="StaticSnapshotModule-backto-Axis" style="stroke:#181818;stroke-width:1.0;"/><polygon fill="#181818" points="478,550.82,474,556.82,478,562.82,482,556.82,478,550.82" style="stroke:#181818;stroke-width:1.0;"/><text fill="#000000" font-family="sans-serif" font-size="13" lengthAdjust="spacing" textLength="7" x="470.5734" y="647.889">n</text></g><!--reverse link StaticSnapshotModule to Channel--><g id="link_StaticSnapshotModule_Channel"><path codeLine="58" d="M423.3482,558.4466 C384.9082,591.8166 338.84,631.8 297.97,667.28 " fill="none" id="StaticSnapshotModule-backto-Channel" style="stroke:#181818;stroke-width:1.0;"/><polygon fill="#181818" points="432.41,550.58,425.2569,551.4927,423.3482,558.4466,430.5013,557.5339,432.41,550.58" style="stroke:#181818;stroke-width:1.0;"/><text fill="#000000" font-family="sans-serif" font-size="13" lengthAdjust="spacing" textLength="7" x="298.208" y="656.4357">n</text></g><!--link Channel to Axis--><!--link DynamicSnapshotModule to StaticSnapshotModule--><!--reverse link Axis to StepFunction--><g id="link_Axis_StepFunction"><path codeLine="73" d="M478,785.15 C478,814.8 478,838.47 478,865.24 " fill="none" id="Axis-backto-StepFunction" style="stroke:#181818;stroke-width:1.0;"/><polygon fill="#181818" points="478,773.15,474,779.15,478,785.15,482,779.15,478,773.15" style="stroke:#181818;stroke-width:1.0;"/></g><!--reverse link Channel to IntervalChannel--><g id="link_Channel_IntervalChannel"><path d="M251.7444,782.7727 C255.8844,813.8827 258.84,836.1 262.73,865.4 " fill="none" id="Channel-backto-IntervalChannel" style="stroke:#181818;stroke-width:1.0;"/><polygon fill="none" points="249.37,764.93,245.7969,783.5642,257.692,781.9812,249.37,764.93" style="stroke:#181818;stroke-width:1.0;"/></g><!--reverse link Channel to AverageChannel--><g id="link_Channel_AverageChannel"><path d="M190.8423,778.6703 C169.2123,804.2303 154.11,822.1 131.52,848.81 " fill="none" id="Channel-backto-AverageChannel" style="stroke:#181818;stroke-width:1.0;"/><polygon fill="none" points="202.47,764.93,186.2622,774.7944,195.4224,782.5462,202.47,764.93" style="stroke:#181818;stroke-width:1.0;"/></g><!--reverse link StepFunction to StepFile--><g id="link_StepFunction_StepFile"><path d="M392.7841,955.7153 C356.8341,977.0153 328.3,995.37 291,1023 C277.46,1033.03 263.35,1044.99 251.2,1055.84 " fill="none" id="StepFunction-backto-StepFile" style="stroke:#181818;stroke-width:1.0;"/><polygon fill="none" points="408.27,946.54,389.7256,950.5533,395.8425,960.8772,408.27,946.54" style="stroke:#181818;stroke-width:1.0;"/></g><!--reverse link StepFunction to StepRange--><g id="link_StepFunction_StepRange"><path d="M448.749,962.4193 C436.949,984.7793 430.31,997.35 416.87,1022.83 " fill="none" id="StepFunction-backto-StepRange" style="stroke:#181818;stroke-width:1.0;"/><polygon fill="none" points="457.15,946.5,443.4425,959.6189,454.0554,965.2196,457.15,946.5" style="stroke:#181818;stroke-width:1.0;"/></g><!--reverse link StepFunction to StepRanges--><g id="link_StepFunction_StepRanges"><path d="M507.2492,962.4202 C523.0292,992.3302 536.22,1017.32 552.04,1047.28 " fill="none" id="StepFunction-backto-StepRanges" style="stroke:#181818;stroke-width:1.0;"/><polygon fill="none" points="498.85,946.5,501.9425,965.2199,512.556,959.6205,498.85,946.5" style="stroke:#181818;stroke-width:1.0;"/></g><!--reverse link StepFunction to StepReference--><g id="link_StepFunction_StepReference"><path d="M562.0687,955.8467 C599.2587,977.7567 630.31,996.66 671,1023 C679.09,1028.23 687.48,1033.84 695.77,1039.47 " fill="none" id="StepFunction-backto-StepReference" style="stroke:#181818;stroke-width:1.0;"/><polygon fill="none" points="546.56,946.71,559.0231,961.0163,565.1143,950.6772,546.56,946.71" style="stroke:#181818;stroke-width:1.0;"/></g><!--SRC=[dLPBRzim3BxxLnYvP1lGzjx3WA5RWHq65CknAmJ6PX81iYH8T9giwtyV9SkENqdNvHAR_FZKHyhB7P7rjpStLe6ckbBNXQbk2WNUNvKIjWwgB8kl-Qe0dRzaEVySMWGIXQarvRUvr8HRT55LeY-Sj2IDPeqd9_KsAjXlXH7U4thsAIfJrWezQxwiMGS5XL0_elJnANlDOkHFLrVvGYzcCDbo07Y0skETqQKCIOoKt_QSGvOjjI7CruR8LBdPZ6nkynLYxj620y9V6eDHtgHvdMNtKY4xZ0t9eYE56mfkWcPil0dephPfvRI6r5XPZjgfeS9XozWlJheErg8kSMADdYP2wKKdNnkZaAk8uBfQenDc8wpniGz-x6wA49O5DjGqXFPTi9azNeDpSEJ3xB4fbOu7ukGlTEKKjqBmjSD0f754E3GKEaZ_yjemRWTQemhIk-OnAQn34PddaOZx6X0F3aFS5c4yJI4i769YYITj-yga3O2bLIQc-S3_7P5JPKD2pYX28NFoLCgSgfV2hBefyOmbdTLnzbas7XWMZfaUoksOFiB7Cj-OguOONu_CULciD5Y_C_GcHpf24T0xp1Ar_f4rJDjP_yF3keHeZorB3_dLuqwM9UgdpurrDbzu3pRd_sBrBwTn2o7wEwQ_WmcjsDIwI3jxnU_twNL0zB2emp9QmDeRLHCk_YmSAWwynyKRKn_ZXruClAVasfRCvwUDgq39toZ6cgN3qeZ8eX0nSYpDNeaRTAmMZDxoYkZjkjTisGOStGfDDjzvgRWzg1RKScYOPV8hP49pW8qoGAcbXXToATR7KyAdezYZWorUTgy5DB3ncbFcMIXPIHe4hE0WW0WhEzcBGLNYNa8wtiQeowQtCxgHu1jYtEeq5UByuPn3qD5ERp2-rRXj8TLI5ZJWJYzzFgb-Uk6q-8ucPvHYRLj0izNEa8TFfWxXGnRnUL0vlSko-VBX2q4OFdofGOaMTE9MDuydcgS0vuOZjXTKKVCauUbc_V1nv4tszjcC-_2TCVnQ69Z_1BszQDyDTrdoN5Ur8cdLSP7u38uc31y9U8iyov9s0p5JgGB9R0xpVwPFCJL_AJSyy9Nj_UIRij_ICvyPmN_O1QYB_ow_8-oWjCcSlFu5]--></g></svg>