<?xml version="1.0" encoding="us-ascii" standalone="no"?><svg xmlns="http://www.w3.org/2000/svg" xmlns:xlink="http://www.w3.org/1999/xlink" contentStyleType="text/css" height="312.5px" preserveAspectRatio="none" style="width:649px;height:312px;background:#FFFFFF;" version="1.1" viewBox="0 0 649 312" width="649.5px" zoomAndPan="magnify"><defs/><g><!--class Metadata--><g id="elem_Metadata"><rect codeLine="2" fill="#F1F1F1" height="32.2031" id="Metadata" rx="1.25" ry="1.25" style="stroke:#181818;stroke-width:0.25;" width="46.5" x="94.75" y="3.5"/><ellipse cx="102.25" cy="11.5" fill="#ADD1B2" rx="5.5" ry="5.5" style="stroke:#181818;stroke-width:0.5;"/><path d="M102.2734,14.6016 C103.0234,14.6016 103.6406,14.3203 104.0938,13.7891 L103.4063,13.0313 C103.1328,13.3281 102.8047,13.5234 102.4063,13.5234 C101.5703,13.5234 100.9922,12.8594 100.9922,11.7188 C100.9922,10.6094 101.5703,9.9375 102.3516,9.9375 C102.7578,9.9375 103.0547,10.0938 103.3203,10.3359 L104.0078,9.5625 C103.6328,9.1953 103.0547,8.8594 102.3516,8.8594 C100.875,8.8594 99.7109,9.9297 99.7109,11.7656 C99.7109,13.625 100.8984,14.6016 102.2734,14.6016 Z " fill="#000000"/><text fill="#000000" font-family="sans-serif" font-size="7" lengthAdjust="spacing" textLength="30.5" x="109.25" y="13.8926">Metadata</text><line style="stroke:#181818;stroke-width:0.25;" x1="95.25" x2="140.75" y1="19.5" y2="19.5"/><text fill="#000000" font-family="sans-serif" font-size="7" lengthAdjust="spacing" textLength="40" x="97.75" y="27.9941">name : string</text><line style="stroke:#181818;stroke-width:0.25;" x1="95.25" x2="140.75" y1="31.7031" y2="31.7031"/></g><!--class Data--><g id="elem_Data"><rect codeLine="6" fill="#F1F1F1" height="24" id="Data" rx="1.25" ry="1.25" style="stroke:#181818;stroke-width:0.25;" width="31" x="46" y="7.5"/><ellipse cx="53.5" cy="15.5" fill="#ADD1B2" rx="5.5" ry="5.5" style="stroke:#181818;stroke-width:0.5;"/><path d="M53.5234,18.6016 C54.2734,18.6016 54.8906,18.3203 55.3438,17.7891 L54.6563,17.0313 C54.3828,17.3281 54.0547,17.5234 53.6563,17.5234 C52.8203,17.5234 52.2422,16.8594 52.2422,15.7188 C52.2422,14.6094 52.8203,13.9375 53.6016,13.9375 C54.0078,13.9375 54.3047,14.0938 54.5703,14.3359 L55.2578,13.5625 C54.8828,13.1953 54.3047,12.8594 53.6016,12.8594 C52.125,12.8594 50.9609,13.9297 50.9609,15.7656 C50.9609,17.625 52.1484,18.6016 53.5234,18.6016 Z " fill="#000000"/><text fill="#000000" font-family="sans-serif" font-size="7" lengthAdjust="spacing" textLength="15" x="60.5" y="17.8926">Data</text><line style="stroke:#181818;stroke-width:0.25;" x1="46.5" x2="76.5" y1="23.5" y2="23.5"/><line style="stroke:#181818;stroke-width:0.25;" x1="46.5" x2="76.5" y1="27.5" y2="27.5"/></g><g id="elem_GMN4"><path d="M33.75,79.75 L33.75,99.9844 A0,0 0 0 0 33.75,99.9844 L89.25,99.9844 A0,0 0 0 0 89.25,99.9844 L89.25,84.75 L84.25,79.75 L63.5,79.75 L61.5,31.59 L59.5,79.75 L33.75,79.75 A0,0 0 0 0 33.75,79.75 " fill="#FEFFDD" style="stroke:#181818;stroke-width:0.25;"/><path d="M84.25,79.75 L84.25,84.75 L89.25,84.75 L84.25,79.75 " fill="#FEFFDD" style="stroke:#181818;stroke-width:0.25;"/><text fill="#000000" font-family="sans-serif" font-size="6.5" lengthAdjust="spacing" textLength="45" x="36.75" y="88.2803">See diagram for</text><text fill="#000000" font-family="sans-serif" font-size="6.5" lengthAdjust="spacing" textLength="36.5" x="36.75" y="95.8975">data module.</text></g><!--class DeviceMetadata--><g id="elem_DeviceMetadata"><rect codeLine="10" fill="#F1F1F1" height="48.6094" id="DeviceMetadata" rx="1.25" ry="1.25" style="stroke:#181818;stroke-width:0.25;" width="74.5" x="149.25" y="65.5"/><ellipse cx="161.475" cy="73.5" fill="#B4A7E5" rx="5.5" ry="5.5" style="stroke:#181818;stroke-width:0.5;"/><path d="M159.6078,76.5 L163.4438,76.5 L163.4438,75.4453 L162.1547,75.4453 L162.1547,72.0156 L163.4438,72.0156 L163.4438,70.9609 L159.6078,70.9609 L159.6078,72.0156 L160.8969,72.0156 L160.8969,75.4453 L159.6078,75.4453 L159.6078,76.5 Z " fill="#000000"/><text fill="#000000" font-family="sans-serif" font-size="7" font-style="italic" lengthAdjust="spacing" textLength="48" x="169.525" y="75.8926">DeviceMetadata</text><line style="stroke:#181818;stroke-width:0.25;" x1="149.75" x2="223.25" y1="81.5" y2="81.5"/><text fill="#000000" font-family="sans-serif" font-size="7" lengthAdjust="spacing" textLength="28" x="152.25" y="89.9941">id : string</text><text fill="#000000" font-family="sans-serif" font-size="7" lengthAdjust="spacing" textLength="30" x="152.25" y="98.1973">pv : string</text><text fill="#000000" font-family="sans-serif" font-size="7" lengthAdjust="spacing" textLength="68.5" x="152.25" y="106.4004">transport_type : string</text><line style="stroke:#181818;stroke-width:0.25;" x1="149.75" x2="223.25" y1="110.1094" y2="110.1094"/></g><!--class MeasureMetadata--><g id="elem_MeasureMetadata"><rect codeLine="16" fill="#F1F1F1" height="32.2031" id="MeasureMetadata" rx="1.25" ry="1.25" style="stroke:#181818;stroke-width:0.25;" width="73.5" x="241.25" y="73.75"/><ellipse cx="248.75" cy="81.75" fill="#ADD1B2" rx="5.5" ry="5.5" style="stroke:#181818;stroke-width:0.5;"/><path d="M248.7734,84.8516 C249.5234,84.8516 250.1406,84.5703 250.5938,84.0391 L249.9063,83.2813 C249.6328,83.5781 249.3047,83.7734 248.9063,83.7734 C248.0703,83.7734 247.4922,83.1094 247.4922,81.9688 C247.4922,80.8594 248.0703,80.1875 248.8516,80.1875 C249.2578,80.1875 249.5547,80.3438 249.8203,80.5859 L250.5078,79.8125 C250.1328,79.4453 249.5547,79.1094 248.8516,79.1094 C247.375,79.1094 246.2109,80.1797 246.2109,82.0156 C246.2109,83.875 247.3984,84.8516 248.7734,84.8516 Z " fill="#000000"/><text fill="#000000" font-family="sans-serif" font-size="7" lengthAdjust="spacing" textLength="57.5" x="255.75" y="84.1426">MeasureMetadata</text><line style="stroke:#181818;stroke-width:0.25;" x1="241.75" x2="314.25" y1="89.75" y2="89.75"/><text fill="#000000" font-family="sans-serif" font-size="7" lengthAdjust="spacing" textLength="34.5" x="244.25" y="98.2441">unit : string</text><line style="stroke:#181818;stroke-width:0.25;" x1="241.75" x2="314.25" y1="101.9531" y2="101.9531"/></g><!--class MonitorMetadata--><g id="elem_MonitorMetadata"><rect codeLine="20" fill="#F1F1F1" height="24" id="MonitorMetadata" rx="1.25" ry="1.25" style="stroke:#181818;stroke-width:0.25;" width="71" x="76" y="144"/><ellipse cx="83.5" cy="152" fill="#ADD1B2" rx="5.5" ry="5.5" style="stroke:#181818;stroke-width:0.5;"/><path d="M83.5234,155.1016 C84.2734,155.1016 84.8906,154.8203 85.3438,154.2891 L84.6563,153.5313 C84.3828,153.8281 84.0547,154.0234 83.6563,154.0234 C82.8203,154.0234 82.2422,153.3594 82.2422,152.2188 C82.2422,151.1094 82.8203,150.4375 83.6016,150.4375 C84.0078,150.4375 84.3047,150.5938 84.5703,150.8359 L85.2578,150.0625 C84.8828,149.6953 84.3047,149.3594 83.6016,149.3594 C82.125,149.3594 80.9609,150.4297 80.9609,152.2656 C80.9609,154.125 82.1484,155.1016 83.5234,155.1016 Z " fill="#000000"/><text fill="#000000" font-family="sans-serif" font-size="7" lengthAdjust="spacing" textLength="55" x="90.5" y="154.3926">MonitorMetadata</text><line style="stroke:#181818;stroke-width:0.25;" x1="76.5" x2="146.5" y1="160" y2="160"/><line style="stroke:#181818;stroke-width:0.25;" x1="76.5" x2="146.5" y1="164" y2="164"/></g><!--class AxisMetadata--><g id="elem_AxisMetadata"><rect codeLine="23" fill="#F1F1F1" height="24" id="AxisMetadata" rx="1.25" ry="1.25" style="stroke:#181818;stroke-width:0.25;" width="59.5" x="164.75" y="144"/><ellipse cx="172.25" cy="152" fill="#ADD1B2" rx="5.5" ry="5.5" style="stroke:#181818;stroke-width:0.5;"/><path d="M172.2734,155.1016 C173.0234,155.1016 173.6406,154.8203 174.0938,154.2891 L173.4063,153.5313 C173.1328,153.8281 172.8047,154.0234 172.4063,154.0234 C171.5703,154.0234 170.9922,153.3594 170.9922,152.2188 C170.9922,151.1094 171.5703,150.4375 172.3516,150.4375 C172.7578,150.4375 173.0547,150.5938 173.3203,150.8359 L174.0078,150.0625 C173.6328,149.6953 173.0547,149.3594 172.3516,149.3594 C170.875,149.3594 169.7109,150.4297 169.7109,152.2656 C169.7109,154.125 170.8984,155.1016 172.2734,155.1016 Z " fill="#000000"/><text fill="#000000" font-family="sans-serif" font-size="7" lengthAdjust="spacing" textLength="43.5" x="179.25" y="154.3926">AxisMetadata</text><line style="stroke:#181818;stroke-width:0.25;" x1="165.25" x2="223.75" y1="160" y2="160"/><line style="stroke:#181818;stroke-width:0.25;" x1="165.25" x2="223.75" y1="164" y2="164"/></g><!--class ChannelMetadata--><g id="elem_ChannelMetadata"><rect codeLine="26" fill="#F1F1F1" height="24" id="ChannelMetadata" rx="1.25" ry="1.25" style="stroke:#181818;stroke-width:0.25;" width="72" x="242" y="144"/><ellipse cx="249.5" cy="152" fill="#ADD1B2" rx="5.5" ry="5.5" style="stroke:#181818;stroke-width:0.5;"/><path d="M249.5234,155.1016 C250.2734,155.1016 250.8906,154.8203 251.3438,154.2891 L250.6563,153.5313 C250.3828,153.8281 250.0547,154.0234 249.6563,154.0234 C248.8203,154.0234 248.2422,153.3594 248.2422,152.2188 C248.2422,151.1094 248.8203,150.4375 249.6016,150.4375 C250.0078,150.4375 250.3047,150.5938 250.5703,150.8359 L251.2578,150.0625 C250.8828,149.6953 250.3047,149.3594 249.6016,149.3594 C248.125,149.3594 246.9609,150.4297 246.9609,152.2656 C246.9609,154.125 248.1484,155.1016 249.5234,155.1016 Z " fill="#000000"/><text fill="#000000" font-family="sans-serif" font-size="7" lengthAdjust="spacing" textLength="56" x="256.5" y="154.3926">ChannelMetadata</text><line style="stroke:#181818;stroke-width:0.25;" x1="242.5" x2="313.5" y1="160" y2="160"/><line style="stroke:#181818;stroke-width:0.25;" x1="242.5" x2="313.5" y1="164" y2="164"/></g><!--class TimestampMetadata--><g id="elem_TimestampMetadata"><rect codeLine="29" fill="#F1F1F1" height="24" id="TimestampMetadata" rx="1.25" ry="1.25" style="stroke:#181818;stroke-width:0.25;" width="81.5" x="331.75" y="144"/><ellipse cx="339.25" cy="152" fill="#ADD1B2" rx="5.5" ry="5.5" style="stroke:#181818;stroke-width:0.5;"/><path d="M339.2734,155.1016 C340.0234,155.1016 340.6406,154.8203 341.0938,154.2891 L340.4063,153.5313 C340.1328,153.8281 339.8047,154.0234 339.4063,154.0234 C338.5703,154.0234 337.9922,153.3594 337.9922,152.2188 C337.9922,151.1094 338.5703,150.4375 339.3516,150.4375 C339.7578,150.4375 340.0547,150.5938 340.3203,150.8359 L341.0078,150.0625 C340.6328,149.6953 340.0547,149.3594 339.3516,149.3594 C337.875,149.3594 336.7109,150.4297 336.7109,152.2656 C336.7109,154.125 337.8984,155.1016 339.2734,155.1016 Z " fill="#000000"/><text fill="#000000" font-family="sans-serif" font-size="7" lengthAdjust="spacing" textLength="65.5" x="346.25" y="154.3926">TimestampMetadata</text><line style="stroke:#181818;stroke-width:0.25;" x1="332.25" x2="412.75" y1="160" y2="160"/><line style="stroke:#181818;stroke-width:0.25;" x1="332.25" x2="412.75" y1="164" y2="164"/></g><!--class SinglePointChannelMetadata--><g id="elem_SinglePointChannelMetadata"><rect codeLine="32" fill="#F1F1F1" height="24" id="SinglePointChannelMetadata" rx="1.25" ry="1.25" style="stroke:#181818;stroke-width:0.25;" width="107" x="110" y="214.5"/><ellipse cx="117.5" cy="222.5" fill="#ADD1B2" rx="5.5" ry="5.5" style="stroke:#181818;stroke-width:0.5;"/><path d="M117.5234,225.6016 C118.2734,225.6016 118.8906,225.3203 119.3438,224.7891 L118.6563,224.0313 C118.3828,224.3281 118.0547,224.5234 117.6563,224.5234 C116.8203,224.5234 116.2422,223.8594 116.2422,222.7188 C116.2422,221.6094 116.8203,220.9375 117.6016,220.9375 C118.0078,220.9375 118.3047,221.0938 118.5703,221.3359 L119.2578,220.5625 C118.8828,220.1953 118.3047,219.8594 117.6016,219.8594 C116.125,219.8594 114.9609,220.9297 114.9609,222.7656 C114.9609,224.625 116.1484,225.6016 117.5234,225.6016 Z " fill="#000000"/><text fill="#000000" font-family="sans-serif" font-size="7" lengthAdjust="spacing" textLength="91" x="124.5" y="224.8926">SinglePointChannelMetadata</text><line style="stroke:#181818;stroke-width:0.25;" x1="110.5" x2="216.5" y1="230.5" y2="230.5"/><line style="stroke:#181818;stroke-width:0.25;" x1="110.5" x2="216.5" y1="234.5" y2="234.5"/></g><!--class AverageChannelMetadata--><g id="elem_AverageChannelMetadata"><rect codeLine="34" fill="#F1F1F1" height="56.8125" id="AverageChannelMetadata" rx="1.25" ry="1.25" style="stroke:#181818;stroke-width:0.25;" width="97.5" x="435.75" y="198"/><ellipse cx="443.25" cy="206" fill="#ADD1B2" rx="5.5" ry="5.5" style="stroke:#181818;stroke-width:0.5;"/><path d="M443.2734,209.1016 C444.0234,209.1016 444.6406,208.8203 445.0938,208.2891 L444.4063,207.5313 C444.1328,207.8281 443.8047,208.0234 443.4063,208.0234 C442.5703,208.0234 441.9922,207.3594 441.9922,206.2188 C441.9922,205.1094 442.5703,204.4375 443.3516,204.4375 C443.7578,204.4375 444.0547,204.5938 444.3203,204.8359 L445.0078,204.0625 C444.6328,203.6953 444.0547,203.3594 443.3516,203.3594 C441.875,203.3594 440.7109,204.4297 440.7109,206.2656 C440.7109,208.125 441.8984,209.1016 443.2734,209.1016 Z " fill="#000000"/><text fill="#000000" font-family="sans-serif" font-size="7" lengthAdjust="spacing" textLength="81.5" x="450.25" y="208.3926">AverageChannelMetadata</text><line style="stroke:#181818;stroke-width:0.25;" x1="436.25" x2="532.75" y1="214" y2="214"/><text fill="#000000" font-family="sans-serif" font-size="7" lengthAdjust="spacing" textLength="61.5" x="438.75" y="222.4941">n_averages : integer</text><text fill="#000000" font-family="sans-serif" font-size="7" lengthAdjust="spacing" textLength="46" x="438.75" y="230.6973">low_limit : float</text><text fill="#000000" font-family="sans-serif" font-size="7" lengthAdjust="spacing" textLength="71" x="438.75" y="238.9004">max_attempts : integer</text><text fill="#000000" font-family="sans-serif" font-size="7" lengthAdjust="spacing" textLength="64" x="438.75" y="247.1035">max_deviation : float</text><line style="stroke:#181818;stroke-width:0.25;" x1="436.25" x2="532.75" y1="250.8125" y2="250.8125"/></g><!--class IntervalChannelMetadata--><g id="elem_IntervalChannelMetadata"><rect codeLine="41" fill="#F1F1F1" height="32.2031" id="IntervalChannelMetadata" rx="1.25" ry="1.25" style="stroke:#181818;stroke-width:0.25;" width="95.5" x="550.75" y="210.5"/><ellipse cx="558.25" cy="218.5" fill="#ADD1B2" rx="5.5" ry="5.5" style="stroke:#181818;stroke-width:0.5;"/><path d="M558.2734,221.6016 C559.0234,221.6016 559.6406,221.3203 560.0938,220.7891 L559.4063,220.0313 C559.1328,220.3281 558.8047,220.5234 558.4063,220.5234 C557.5703,220.5234 556.9922,219.8594 556.9922,218.7188 C556.9922,217.6094 557.5703,216.9375 558.3516,216.9375 C558.7578,216.9375 559.0547,217.0938 559.3203,217.3359 L560.0078,216.5625 C559.6328,216.1953 559.0547,215.8594 558.3516,215.8594 C556.875,215.8594 555.7109,216.9297 555.7109,218.7656 C555.7109,220.625 556.8984,221.6016 558.2734,221.6016 Z " fill="#000000"/><text fill="#000000" font-family="sans-serif" font-size="7" lengthAdjust="spacing" textLength="79.5" x="565.25" y="220.8926">IntervalChannelMetadata</text><line style="stroke:#181818;stroke-width:0.25;" x1="551.25" x2="645.75" y1="226.5" y2="226.5"/><text fill="#000000" font-family="sans-serif" font-size="7" lengthAdjust="spacing" textLength="65.5" x="553.75" y="234.9941">trigger_interval : float</text><line style="stroke:#181818;stroke-width:0.25;" x1="551.25" x2="645.75" y1="238.7031" y2="238.7031"/></g><!--class ArrayChannelMetadata--><g id="elem_ArrayChannelMetadata"><rect codeLine="45" fill="#F1F1F1" height="24" id="ArrayChannelMetadata" rx="1.25" ry="1.25" style="stroke:#181818;stroke-width:0.25;" width="89" x="3.5" y="214.5"/><ellipse cx="11" cy="222.5" fill="#ADD1B2" rx="5.5" ry="5.5" style="stroke:#181818;stroke-width:0.5;"/><path d="M11.0234,225.6016 C11.7734,225.6016 12.3906,225.3203 12.8438,224.7891 L12.1563,224.0313 C11.8828,224.3281 11.5547,224.5234 11.1563,224.5234 C10.3203,224.5234 9.7422,223.8594 9.7422,222.7188 C9.7422,221.6094 10.3203,220.9375 11.1016,220.9375 C11.5078,220.9375 11.8047,221.0938 12.0703,221.3359 L12.7578,220.5625 C12.3828,220.1953 11.8047,219.8594 11.1016,219.8594 C9.625,219.8594 8.4609,220.9297 8.4609,222.7656 C8.4609,224.625 9.6484,225.6016 11.0234,225.6016 Z " fill="#000000"/><text fill="#000000" font-family="sans-serif" font-size="7" lengthAdjust="spacing" textLength="73" x="18" y="224.8926">ArrayChannelMetadata</text><line style="stroke:#181818;stroke-width:0.25;" x1="4" x2="92" y1="230.5" y2="230.5"/><line style="stroke:#181818;stroke-width:0.25;" x1="4" x2="92" y1="234.5" y2="234.5"/></g><!--class AreaChannelMetadata--><g id="elem_AreaChannelMetadata"><rect codeLine="48" fill="#F1F1F1" height="24" id="AreaChannelMetadata" rx="1.25" ry="1.25" style="stroke:#181818;stroke-width:0.25;" width="86.5" x="234.75" y="214.5"/><ellipse cx="242.25" cy="222.5" fill="#ADD1B2" rx="5.5" ry="5.5" style="stroke:#181818;stroke-width:0.5;"/><path d="M242.2734,225.6016 C243.0234,225.6016 243.6406,225.3203 244.0938,224.7891 L243.4063,224.0313 C243.1328,224.3281 242.8047,224.5234 242.4063,224.5234 C241.5703,224.5234 240.9922,223.8594 240.9922,222.7188 C240.9922,221.6094 241.5703,220.9375 242.3516,220.9375 C242.7578,220.9375 243.0547,221.0938 243.3203,221.3359 L244.0078,220.5625 C243.6328,220.1953 243.0547,219.8594 242.3516,219.8594 C240.875,219.8594 239.7109,220.9297 239.7109,222.7656 C239.7109,224.625 240.8984,225.6016 242.2734,225.6016 Z " fill="#000000"/><text fill="#000000" font-family="sans-serif" font-size="7" lengthAdjust="spacing" textLength="70.5" x="249.25" y="224.8926">AreaChannelMetadata</text><line style="stroke:#181818;stroke-width:0.25;" x1="235.25" x2="320.75" y1="230.5" y2="230.5"/><line style="stroke:#181818;stroke-width:0.25;" x1="235.25" x2="320.75" y1="234.5" y2="234.5"/></g><!--class NormalizedMetadata--><g id="elem_NormalizedMetadata"><rect codeLine="53" fill="#F1F1F1" height="32.2031" id="NormalizedMetadata" rx="1.25" ry="1.25" style="stroke:#181818;stroke-width:0.25;" width="79" x="339" y="210.5"/><ellipse cx="346.5" cy="218.5" fill="#B4A7E5" rx="5.5" ry="5.5" style="stroke:#181818;stroke-width:0.5;"/><path d="M344.6328,221.5 L348.4688,221.5 L348.4688,220.4453 L347.1797,220.4453 L347.1797,217.0156 L348.4688,217.0156 L348.4688,215.9609 L344.6328,215.9609 L344.6328,217.0156 L345.9219,217.0156 L345.9219,220.4453 L344.6328,220.4453 L344.6328,221.5 Z " fill="#000000"/><text fill="#000000" font-family="sans-serif" font-size="7" font-style="italic" lengthAdjust="spacing" textLength="63" x="353.5" y="220.8926">NormalizedMetadata</text><line style="stroke:#181818;stroke-width:0.25;" x1="339.5" x2="417.5" y1="226.5" y2="226.5"/><text fill="#000000" font-family="sans-serif" font-size="7" lengthAdjust="spacing" textLength="61.5" x="342" y="234.9941">normalize_id : string</text><line style="stroke:#181818;stroke-width:0.25;" x1="339.5" x2="417.5" y1="238.7031" y2="238.7031"/></g><!--class SinglePointNormalizedChannelMetadata--><g id="elem_SinglePointNormalizedChannelMetadata"><rect codeLine="57" fill="#F1F1F1" height="24" id="SinglePointNormalizedChannelMetadata" rx="1.25" ry="1.25" style="stroke:#181818;stroke-width:0.25;" width="142.5" x="139.75" y="285"/><ellipse cx="147.25" cy="293" fill="#ADD1B2" rx="5.5" ry="5.5" style="stroke:#181818;stroke-width:0.5;"/><path d="M147.2734,296.1016 C148.0234,296.1016 148.6406,295.8203 149.0938,295.2891 L148.4063,294.5313 C148.1328,294.8281 147.8047,295.0234 147.4063,295.0234 C146.5703,295.0234 145.9922,294.3594 145.9922,293.2188 C145.9922,292.1094 146.5703,291.4375 147.3516,291.4375 C147.7578,291.4375 148.0547,291.5938 148.3203,291.8359 L149.0078,291.0625 C148.6328,290.6953 148.0547,290.3594 147.3516,290.3594 C145.875,290.3594 144.7109,291.4297 144.7109,293.2656 C144.7109,295.125 145.8984,296.1016 147.2734,296.1016 Z " fill="#000000"/><text fill="#000000" font-family="sans-serif" font-size="7" lengthAdjust="spacing" textLength="126.5" x="154.25" y="295.3926">SinglePointNormalizedChannelMetadata</text><line style="stroke:#181818;stroke-width:0.25;" x1="140.25" x2="281.75" y1="301" y2="301"/><line style="stroke:#181818;stroke-width:0.25;" x1="140.25" x2="281.75" y1="305" y2="305"/></g><!--class AverageNormalizedChannelMetadata--><g id="elem_AverageNormalizedChannelMetadata"><rect codeLine="59" fill="#F1F1F1" height="24" id="AverageNormalizedChannelMetadata" rx="1.25" ry="1.25" style="stroke:#181818;stroke-width:0.25;" width="133" x="329.5" y="285"/><ellipse cx="337" cy="293" fill="#ADD1B2" rx="5.5" ry="5.5" style="stroke:#181818;stroke-width:0.5;"/><path d="M337.0234,296.1016 C337.7734,296.1016 338.3906,295.8203 338.8438,295.2891 L338.1563,294.5313 C337.8828,294.8281 337.5547,295.0234 337.1563,295.0234 C336.3203,295.0234 335.7422,294.3594 335.7422,293.2188 C335.7422,292.1094 336.3203,291.4375 337.1016,291.4375 C337.5078,291.4375 337.8047,291.5938 338.0703,291.8359 L338.7578,291.0625 C338.3828,290.6953 337.8047,290.3594 337.1016,290.3594 C335.625,290.3594 334.4609,291.4297 334.4609,293.2656 C334.4609,295.125 335.6484,296.1016 337.0234,296.1016 Z " fill="#000000"/><text fill="#000000" font-family="sans-serif" font-size="7" lengthAdjust="spacing" textLength="117" x="344" y="295.3926">AverageNormalizedChannelMetadata</text><line style="stroke:#181818;stroke-width:0.25;" x1="330" x2="462" y1="301" y2="301"/><line style="stroke:#181818;stroke-width:0.25;" x1="330" x2="462" y1="305" y2="305"/></g><!--class IntervalNormalizedChannelMetadata--><g id="elem_IntervalNormalizedChannelMetadata"><rect codeLine="61" fill="#F1F1F1" height="24" id="IntervalNormalizedChannelMetadata" rx="1.25" ry="1.25" style="stroke:#181818;stroke-width:0.25;" width="131" x="515" y="285"/><ellipse cx="522.5" cy="293" fill="#ADD1B2" rx="5.5" ry="5.5" style="stroke:#181818;stroke-width:0.5;"/><path d="M522.5234,296.1016 C523.2734,296.1016 523.8906,295.8203 524.3438,295.2891 L523.6563,294.5313 C523.3828,294.8281 523.0547,295.0234 522.6563,295.0234 C521.8203,295.0234 521.2422,294.3594 521.2422,293.2188 C521.2422,292.1094 521.8203,291.4375 522.6016,291.4375 C523.0078,291.4375 523.3047,291.5938 523.5703,291.8359 L524.2578,291.0625 C523.8828,290.6953 523.3047,290.3594 522.6016,290.3594 C521.125,290.3594 519.9609,291.4297 519.9609,293.2656 C519.9609,295.125 521.1484,296.1016 522.5234,296.1016 Z " fill="#000000"/><text fill="#000000" font-family="sans-serif" font-size="7" lengthAdjust="spacing" textLength="115" x="529.5" y="295.3926">IntervalNormalizedChannelMetadata</text><line style="stroke:#181818;stroke-width:0.25;" x1="515.5" x2="645.5" y1="301" y2="301"/><line style="stroke:#181818;stroke-width:0.25;" x1="515.5" x2="645.5" y1="305" y2="305"/></g><!--reverse link Metadata to MeasureMetadata--><g id="link_Metadata_MeasureMetadata"><path d="M149.7583,31.5946 C173.1083,40.2546 201.485,51.29 232.5,65.5 C238.01,68.025 243.8,70.885 249.34,73.72 " fill="none" id="Metadata-backto-MeasureMetadata" style="stroke:#181818;stroke-width:0.5;"/><polygon fill="none" points="141.32,28.465,148.7151,34.4074,150.8015,28.7818,141.32,28.465" style="stroke:#181818;stroke-width:0.5;"/></g><!--reverse link Metadata to MonitorMetadata--><g id="link_Metadata_MonitorMetadata"><path d="M116.8228,44.5346 C115.5028,71.9896 113.225,119.49 112.06,143.87 " fill="none" id="Metadata-backto-MonitorMetadata" style="stroke:#181818;stroke-width:0.5;"/><polygon fill="none" points="117.255,35.545,113.8263,44.3905,119.8193,44.6787,117.255,35.545" style="stroke:#181818;stroke-width:0.5;"/></g><!--reverse link DeviceMetadata to MonitorMetadata--><g id="link_DeviceMetadata_MonitorMetadata"><path d="M152.2104,120.0827 C140.5854,130.1977 134.37,135.6 124.915,143.83 " fill="none" id="DeviceMetadata-backto-MonitorMetadata" style="stroke:#181818;stroke-width:0.5;stroke-dasharray:7.0,7.0;"/><polygon fill="none" points="159,114.175,150.2411,117.8195,154.1796,122.3459,159,114.175" style="stroke:#181818;stroke-width:0.5;"/></g><!--reverse link MeasureMetadata to AxisMetadata--><g id="link_MeasureMetadata_AxisMetadata"><path d="M250.9083,111.4215 C235.9033,123.1465 222.79,133.395 209.24,143.985 " fill="none" id="MeasureMetadata-backto-AxisMetadata" style="stroke:#181818;stroke-width:0.5;"/><polygon fill="none" points="258,105.88,249.0612,109.0576,252.7555,113.7854,258,105.88" style="stroke:#181818;stroke-width:0.5;"/></g><!--reverse link DeviceMetadata to AxisMetadata--><g id="link_DeviceMetadata_AxisMetadata"><path d="M190.5301,123.1081 C191.7701,133.2231 192.06,135.6 193.07,143.83 " fill="none" id="DeviceMetadata-backto-AxisMetadata" style="stroke:#181818;stroke-width:0.5;stroke-dasharray:7.0,7.0;"/><polygon fill="none" points="189.435,114.175,187.5524,123.4732,193.5078,122.7431,189.435,114.175" style="stroke:#181818;stroke-width:0.5;"/></g><!--reverse link MeasureMetadata to ChannelMetadata--><g id="link_MeasureMetadata_ChannelMetadata"><path d="M278,114.88 C278,126.565 278,133.29 278,143.88 " fill="none" id="MeasureMetadata-backto-ChannelMetadata" style="stroke:#181818;stroke-width:0.5;"/><polygon fill="none" points="278,105.88,275,114.88,281,114.88,278,105.88" style="stroke:#181818;stroke-width:0.5;"/></g><!--reverse link DeviceMetadata to ChannelMetadata--><g id="link_DeviceMetadata_ChannelMetadata"><path d="M227.2486,119.3091 C241.5436,129.4991 250.245,135.71 261.835,143.975 " fill="none" id="DeviceMetadata-backto-ChannelMetadata" style="stroke:#181818;stroke-width:0.5;stroke-dasharray:7.0,7.0;"/><polygon fill="none" points="219.92,114.085,225.5073,121.752,228.99,116.8662,219.92,114.085" style="stroke:#181818;stroke-width:0.5;"/></g><!--reverse link MeasureMetadata to TimestampMetadata--><g id="link_MeasureMetadata_TimestampMetadata"><path d="M308.0409,110.9939 C325.0209,122.7189 340.485,133.395 355.82,143.985 " fill="none" id="MeasureMetadata-backto-TimestampMetadata" style="stroke:#181818;stroke-width:0.5;"/><polygon fill="none" points="300.635,105.88,306.3363,113.4626,309.7456,108.5253,300.635,105.88" style="stroke:#181818;stroke-width:0.5;"/></g><!--reverse link ChannelMetadata to SinglePointChannelMetadata--><g id="link_ChannelMetadata_SinglePointChannelMetadata"><path d="M251.2717,172.7255 C230.0967,185.5805 203.775,201.555 182.58,214.42 " fill="none" id="ChannelMetadata-backto-SinglePointChannelMetadata" style="stroke:#181818;stroke-width:0.5;"/><polygon fill="none" points="258.965,168.055,249.7149,170.161,252.8285,175.2899,258.965,168.055" style="stroke:#181818;stroke-width:0.5;"/></g><!--reverse link ChannelMetadata to AverageChannelMetadata--><g id="link_ChannelMetadata_AverageChannelMetadata"><path d="M322.8422,168.0871 C359.8372,177.7621 406.03,190.27 426.5,198 C429.535,199.145 432.625,200.39 435.72,201.7 " fill="none" id="ChannelMetadata-backto-AverageChannelMetadata" style="stroke:#181818;stroke-width:0.5;"/><polygon fill="none" points="314.135,165.81,322.0831,170.9895,323.6012,165.1847,314.135,165.81" style="stroke:#181818;stroke-width:0.5;"/></g><!--reverse link ChannelMetadata to IntervalChannelMetadata--><g id="link_ChannelMetadata_IntervalChannelMetadata"><path d="M322.7996,168.0915 C325.8246,168.7815 320.07,167.425 323,168 C419.415,186.86 448.09,169.145 542,198 C552.045,201.085 562.505,205.795 571.65,210.475 " fill="none" id="ChannelMetadata-backto-IntervalChannelMetadata" style="stroke:#181818;stroke-width:0.5;"/><polygon fill="none" points="314.025,166.09,322.1325,171.0164,323.4668,165.1666,314.025,166.09" style="stroke:#181818;stroke-width:0.5;"/></g><!--reverse link ChannelMetadata to ArrayChannelMetadata--><g id="link_ChannelMetadata_ArrayChannelMetadata"><path d="M233.1812,167.9826 C230.1662,168.7326 235.9,167.3 233,168 C174.515,182.115 157.415,177.1 101,198 C89.29,202.34 76.91,208.76 67.065,214.36 " fill="none" id="ChannelMetadata-backto-ArrayChannelMetadata" style="stroke:#181818;stroke-width:0.5;"/><polygon fill="none" points="241.915,165.81,232.457,165.0713,233.9054,170.8939,241.915,165.81" style="stroke:#181818;stroke-width:0.5;"/></g><!--reverse link ChannelMetadata to AreaChannelMetadata--><g id="link_ChannelMetadata_AreaChannelMetadata"><path d="M278,177.135 C278,189.96 278,201.485 278,214.33 " fill="none" id="ChannelMetadata-backto-AreaChannelMetadata" style="stroke:#181818;stroke-width:0.5;"/><polygon fill="none" points="278,168.135,275,177.135,281,177.135,278,168.135" style="stroke:#181818;stroke-width:0.5;"/></g><!--reverse link Data to Metadata--><g id="link_Data_Metadata"><path codeLine="51" d="M83.17,19.5 C89.02,19.5 88.865,19.5 94.715,19.5 " fill="none" id="Data-backto-Metadata" style="stroke:#181818;stroke-width:0.5;"/><polygon fill="#181818" points="77.17,19.5,80.17,21.5,83.17,19.5,80.17,17.5,77.17,19.5" style="stroke:#181818;stroke-width:0.5;"/></g><!--reverse link SinglePointChannelMetadata to SinglePointNormalizedChannelMetadata--><g id="link_SinglePointChannelMetadata_SinglePointNormalizedChannelMetadata"><path d="M176.5302,246.0641 C185.3002,258.8891 194.245,271.985 203.025,284.83 " fill="none" id="SinglePointChannelMetadata-backto-SinglePointNormalizedChannelMetadata" style="stroke:#181818;stroke-width:0.5;"/><polygon fill="none" points="171.45,238.635,174.0538,247.7575,179.0066,244.3707,171.45,238.635" style="stroke:#181818;stroke-width:0.5;"/></g><!--reverse link NormalizedMetadata to SinglePointNormalizedChannelMetadata--><g id="link_NormalizedMetadata_SinglePointNormalizedChannelMetadata"><path d="M345.9007,247.0508 C338.4407,251.3908 337.91,251.375 330,255 C303.99,266.915 273.51,277.485 249.905,284.975 " fill="none" id="NormalizedMetadata-backto-SinglePointNormalizedChannelMetadata" style="stroke:#181818;stroke-width:0.5;stroke-dasharray:7.0,7.0;"/><polygon fill="none" points="353.68,242.525,344.3921,244.4577,347.4093,249.6439,353.68,242.525" style="stroke:#181818;stroke-width:0.5;"/></g><!--reverse link AverageChannelMetadata to AverageNormalizedChannelMetadata--><g id="link_AverageChannelMetadata_AverageNormalizedChannelMetadata"><path d="M441.6811,260.6278 C428.4411,271.0228 421.22,276.695 410.855,284.835 " fill="none" id="AverageChannelMetadata-backto-AverageNormalizedChannelMetadata" style="stroke:#181818;stroke-width:0.5;"/><polygon fill="none" points="448.76,255.07,439.8285,258.2682,443.5337,262.9874,448.76,255.07" style="stroke:#181818;stroke-width:0.5;"/></g><!--reverse link NormalizedMetadata to AverageNormalizedChannelMetadata--><g id="link_NormalizedMetadata_AverageNormalizedChannelMetadata"><path d="M384.6222,251.3227 C387.8472,264.1327 390.15,273.26 393.065,284.85 " fill="none" id="NormalizedMetadata-backto-AverageNormalizedChannelMetadata" style="stroke:#181818;stroke-width:0.5;stroke-dasharray:7.0,7.0;"/><polygon fill="none" points="382.425,242.595,381.713,252.0551,387.5315,250.5902,382.425,242.595" style="stroke:#181818;stroke-width:0.5;"/></g><!--reverse link IntervalChannelMetadata to IntervalNormalizedChannelMetadata--><g id="link_IntervalChannelMetadata_IntervalNormalizedChannelMetadata"><path d="M592.2052,251.308 C588.8902,264.118 586.52,273.26 583.52,284.85 " fill="none" id="IntervalChannelMetadata-backto-IntervalNormalizedChannelMetadata" style="stroke:#181818;stroke-width:0.5;"/><polygon fill="none" points="594.46,242.595,589.3009,250.5564,595.1096,252.0596,594.46,242.595" style="stroke:#181818;stroke-width:0.5;"/></g><!--reverse link NormalizedMetadata to IntervalNormalizedChannelMetadata--><g id="link_NormalizedMetadata_IntervalNormalizedChannelMetadata"><path d="M410.306,247.0735 C417.921,251.5335 418.74,251.57 427,255 C458.23,267.975 494.72,278.035 524.285,285 " fill="none" id="NormalizedMetadata-backto-IntervalNormalizedChannelMetadata" style="stroke:#181818;stroke-width:0.5;stroke-dasharray:7.0,7.0;"/><polygon fill="none" points="402.54,242.525,408.7899,249.6621,411.8222,244.4848,402.54,242.525" style="stroke:#181818;stroke-width:0.5;"/></g><!--SRC=[hLFDReCm3BxdANAUj3r0RzLwsQ7JfEvO2Nd4C4lvGOdBsbLzzmLOWL8OhJHkYVFzO7zEDOGWryYWW44UXOoV1ODo8GDxihau2P7MhrRDYvEmZb5-E6Pd5dA3A1L1xi78pFcjhOcCKpkDJqAGPVGPf2XNM5AA0obIdL1rBihBCtkmeN2U4puKOwRM267dErhSCrfrzKixIpo6Tl7U-MaqcKAZGSlXsd_BijnJ6A6uD3RDrATw_WHhKVyJspiP30occENhWJQnGnhVN9pSb9lX_R5hHOaUShmPsEGjWGOMueYgmEJewu9sNuacKuykqmwulZMmJu0PJS53G5LIiH_0v6mBQjszL64iGTzdBsOcZm89_QAlUPVUm-5sqXuEuIvOlO8FZsq- -_lrwhm1JT-eXkqz5vB-jetDkwEOSlL7E7gH7BCoZCYyraIMRjKv3tjUQ2eMiqe_]--></g></svg>