<?xml version="1.0" encoding="us-ascii" standalone="no"?><svg xmlns="http://www.w3.org/2000/svg" xmlns:xlink="http://www.w3.org/1999/xlink" contentStyleType="text/css" height="726px" preserveAspectRatio="none" style="width:1273px;height:726px;background:#FFFFFF;" version="1.1" viewBox="0 0 1273 726" width="1273px" zoomAndPan="magnify"><defs/><g><!--class Metadata--><g id="elem_Metadata"><rect codeLine="2" fill="#F1F1F1" height="80.5938" id="Metadata" rx="2.5" ry="2.5" style="stroke:#181818;stroke-width:0.5;" width="129" x="137" y="23"/><ellipse cx="165.5" cy="39" fill="#ADD1B2" rx="11" ry="11" style="stroke:#181818;stroke-width:1.0;"/><path d="M168.4844,44.6406 Q167.9063,44.9375 167.2656,45.0781 Q166.625,45.2344 165.9219,45.2344 Q163.4063,45.2344 162.0781,43.5938 Q160.7656,41.9375 160.7656,38.8125 Q160.7656,35.6719 162.0781,34.0313 Q163.4063,32.375 165.9219,32.375 Q166.625,32.375 167.2656,32.5313 Q167.9219,32.6719 168.4844,32.9688 L168.4844,35.6875 Q167.8438,35.1094 167.25,34.8438 Q166.6563,34.5781 166.0313,34.5781 Q164.6875,34.5781 164,35.6406 Q163.3125,36.7031 163.3125,38.8125 Q163.3125,40.9063 164,41.9844 Q164.6875,43.0469 166.0313,43.0469 Q166.6563,43.0469 167.25,42.7813 Q167.8438,42.5 168.4844,41.9219 L168.4844,44.6406 Z " fill="#000000"/><text fill="#000000" font-family="sans-serif" font-size="14" lengthAdjust="spacing" textLength="67" x="182.5" y="43.8467">Metadata</text><line style="stroke:#181818;stroke-width:0.5;" x1="138" x2="265" y1="55" y2="55"/><text fill="#000000" font-family="sans-serif" font-size="14" lengthAdjust="spacing" textLength="94" x="143" y="71.9951">name : string</text><text fill="#000000" font-family="sans-serif" font-size="14" lengthAdjust="spacing" textLength="117" x="143" y="88.292">section : Section</text><line style="stroke:#181818;stroke-width:0.5;" x1="138" x2="265" y1="95.5938" y2="95.5938"/></g><!--class Data--><g id="elem_Data"><rect codeLine="7" fill="#F1F1F1" height="48" id="Data" rx="2.5" ry="2.5" style="stroke:#181818;stroke-width:0.5;" width="66" x="35.5" y="39.5"/><ellipse cx="50.5" cy="55.5" fill="#ADD1B2" rx="11" ry="11" style="stroke:#181818;stroke-width:1.0;"/><path d="M53.4844,61.1406 Q52.9063,61.4375 52.2656,61.5781 Q51.625,61.7344 50.9219,61.7344 Q48.4063,61.7344 47.0781,60.0938 Q45.7656,58.4375 45.7656,55.3125 Q45.7656,52.1719 47.0781,50.5313 Q48.4063,48.875 50.9219,48.875 Q51.625,48.875 52.2656,49.0313 Q52.9219,49.1719 53.4844,49.4688 L53.4844,52.1875 Q52.8438,51.6094 52.25,51.3438 Q51.6563,51.0781 51.0313,51.0781 Q49.6875,51.0781 49,52.1406 Q48.3125,53.2031 48.3125,55.3125 Q48.3125,57.4063 49,58.4844 Q49.6875,59.5469 51.0313,59.5469 Q51.6563,59.5469 52.25,59.2813 Q52.8438,59 53.4844,58.4219 L53.4844,61.1406 Z " fill="#000000"/><text fill="#000000" font-family="sans-serif" font-size="14" lengthAdjust="spacing" textLength="34" x="64.5" y="60.3467">Data</text><line style="stroke:#181818;stroke-width:0.5;" x1="36.5" x2="100.5" y1="71.5" y2="71.5"/><line style="stroke:#181818;stroke-width:0.5;" x1="36.5" x2="100.5" y1="79.5" y2="79.5"/></g><g id="elem_GMN4"><path d="M6,208.5 L6,248.7656 A0,0 0 0 0 6,248.7656 L131,248.7656 A0,0 0 0 0 131,248.7656 L131,218.5 L121,208.5 L72.5,208.5 L68.5,87.51 L64.5,208.5 L6,208.5 A0,0 0 0 0 6,208.5 " fill="#FEFFDD" style="stroke:#181818;stroke-width:0.5;"/><path d="M121,208.5 L121,218.5 L131,218.5 L121,208.5 " fill="#FEFFDD" style="stroke:#181818;stroke-width:0.5;"/><text fill="#000000" font-family="sans-serif" font-size="13" lengthAdjust="spacing" textLength="104" x="12" y="225.5669">See diagram for</text><text fill="#000000" font-family="sans-serif" font-size="13" lengthAdjust="spacing" textLength="86" x="12" y="240.6997">data module.</text></g><!--class Section--><g id="elem_Section"><rect codeLine="11" fill="#F1F1F1" height="113.1875" id="Section" rx="2.5" ry="2.5" style="stroke:#181818;stroke-width:0.5;" width="92" x="551.5" y="7"/><ellipse cx="569.65" cy="23" fill="#EB937F" rx="11" ry="11" style="stroke:#181818;stroke-width:1.0;"/><path d="M573.775,29 L566.0406,29 L566.0406,16.5938 L573.775,16.5938 L573.775,18.75 L568.4938,18.75 L568.4938,21.4375 L573.275,21.4375 L573.275,23.5938 L568.4938,23.5938 L568.4938,26.8438 L573.775,26.8438 L573.775,29 Z " fill="#000000"/><text fill="#000000" font-family="sans-serif" font-size="14" lengthAdjust="spacing" textLength="53" x="584.35" y="27.8467">Section</text><line style="stroke:#181818;stroke-width:0.5;" x1="552.5" x2="642.5" y1="39" y2="39"/><text fill="#000000" font-family="sans-serif" font-size="14" lengthAdjust="spacing" textLength="80" x="557.5" y="55.9951">STANDARD</text><text fill="#000000" font-family="sans-serif" font-size="14" lengthAdjust="spacing" textLength="77" x="557.5" y="72.292">SNAPSHOT</text><text fill="#000000" font-family="sans-serif" font-size="14" lengthAdjust="spacing" textLength="67" x="557.5" y="88.5889">MONITOR</text><text fill="#000000" font-family="sans-serif" font-size="14" lengthAdjust="spacing" textLength="40" x="557.5" y="104.8857">META</text><line style="stroke:#181818;stroke-width:0.5;" x1="552.5" x2="642.5" y1="112.1875" y2="112.1875"/></g><!--class Transport--><g id="elem_Transport"><rect codeLine="18" fill="#F1F1F1" height="80.5938" id="Transport" rx="2.5" ry="2.5" style="stroke:#181818;stroke-width:0.5;" width="101" x="811" y="23"/><ellipse cx="826" cy="39" fill="#EB937F" rx="11" ry="11" style="stroke:#181818;stroke-width:1.0;"/><path d="M830.125,45 L822.3906,45 L822.3906,32.5938 L830.125,32.5938 L830.125,34.75 L824.8438,34.75 L824.8438,37.4375 L829.625,37.4375 L829.625,39.5938 L824.8438,39.5938 L824.8438,42.8438 L830.125,42.8438 L830.125,45 Z " fill="#000000"/><text fill="#000000" font-family="sans-serif" font-size="14" lengthAdjust="spacing" textLength="69" x="840" y="43.8467">Transport</text><line style="stroke:#181818;stroke-width:0.5;" x1="812" x2="911" y1="55" y2="55"/><text fill="#000000" font-family="sans-serif" font-size="14" lengthAdjust="spacing" textLength="20" x="817" y="71.9951">CA</text><text fill="#000000" font-family="sans-serif" font-size="14" lengthAdjust="spacing" textLength="47" x="817" y="88.292">LOCAL</text><line style="stroke:#181818;stroke-width:0.5;" x1="812" x2="911" y1="95.5938" y2="95.5938"/></g><g id="elem_GMN9"><path d="M783,201 L783,256.3984 A0,0 0 0 0 783,256.3984 L940,256.3984 A0,0 0 0 0 940,256.3984 L940,211 L930,201 L865.5,201 L861.5,104.37 L857.5,201 L783,201 A0,0 0 0 0 783,201 " fill="#FEFFDD" style="stroke:#181818;stroke-width:0.5;"/><path d="M930,201 L930,211 L940,211 L930,201 " fill="#FEFFDD" style="stroke:#181818;stroke-width:0.5;"/><text fill="#000000" font-family="sans-serif" font-size="13" lengthAdjust="spacing" textLength="136" x="789" y="218.0669">This is defined in the</text><text fill="#000000" font-family="sans-serif" font-size="13" lengthAdjust="spacing" textLength="124" x="789" y="233.1997">scml.setup module</text><text fill="#000000" font-family="sans-serif" font-size="13" lengthAdjust="spacing" textLength="131" x="789" y="248.3325">as well. Generalise?</text></g><!--class DeviceMetadata--><g id="elem_DeviceMetadata"><rect codeLine="24" fill="#F1F1F1" height="96.8906" id="DeviceMetadata" rx="2.5" ry="2.5" style="stroke:#181818;stroke-width:0.5;" width="197" x="272" y="180"/><ellipse cx="309.05" cy="196" fill="#B4A7E5" rx="11" ry="11" style="stroke:#181818;stroke-width:1.0;"/><path d="M304.9719,191.75 L304.9719,189.5938 L312.3625,189.5938 L312.3625,191.75 L309.8938,191.75 L309.8938,199.8438 L312.3625,199.8438 L312.3625,202 L304.9719,202 L304.9719,199.8438 L307.4406,199.8438 L307.4406,191.75 L304.9719,191.75 Z " fill="#000000"/><text fill="#000000" font-family="sans-serif" font-size="14" font-style="italic" lengthAdjust="spacing" textLength="116" x="327.95" y="200.8467">DeviceMetadata</text><line style="stroke:#181818;stroke-width:0.5;" x1="273" x2="468" y1="212" y2="212"/><text fill="#000000" font-family="sans-serif" font-size="14" lengthAdjust="spacing" textLength="66" x="278" y="228.9951">id : string</text><text fill="#000000" font-family="sans-serif" font-size="14" lengthAdjust="spacing" textLength="70" x="278" y="245.292">pv : string</text><text fill="#000000" font-family="sans-serif" font-size="14" lengthAdjust="spacing" textLength="185" x="278" y="261.5889">transport_type : Transport</text><line style="stroke:#181818;stroke-width:0.5;" x1="273" x2="468" y1="268.8906" y2="268.8906"/></g><!--class MeasureMetadata--><g id="elem_MeasureMetadata"><rect codeLine="30" fill="#F1F1F1" height="64.2969" id="MeasureMetadata" rx="2.5" ry="2.5" style="stroke:#181818;stroke-width:0.5;" width="160" x="587.5" y="196.5"/><ellipse cx="602.5" cy="212.5" fill="#ADD1B2" rx="11" ry="11" style="stroke:#181818;stroke-width:1.0;"/><path d="M605.4844,218.1406 Q604.9063,218.4375 604.2656,218.5781 Q603.625,218.7344 602.9219,218.7344 Q600.4063,218.7344 599.0781,217.0938 Q597.7656,215.4375 597.7656,212.3125 Q597.7656,209.1719 599.0781,207.5313 Q600.4063,205.875 602.9219,205.875 Q603.625,205.875 604.2656,206.0313 Q604.9219,206.1719 605.4844,206.4688 L605.4844,209.1875 Q604.8438,208.6094 604.25,208.3438 Q603.6563,208.0781 603.0313,208.0781 Q601.6875,208.0781 601,209.1406 Q600.3125,210.2031 600.3125,212.3125 Q600.3125,214.4063 601,215.4844 Q601.6875,216.5469 603.0313,216.5469 Q603.6563,216.5469 604.25,216.2813 Q604.8438,216 605.4844,215.4219 L605.4844,218.1406 Z " fill="#000000"/><text fill="#000000" font-family="sans-serif" font-size="14" lengthAdjust="spacing" textLength="128" x="616.5" y="217.3467">MeasureMetadata</text><line style="stroke:#181818;stroke-width:0.5;" x1="588.5" x2="746.5" y1="228.5" y2="228.5"/><text fill="#000000" font-family="sans-serif" font-size="14" lengthAdjust="spacing" textLength="80" x="593.5" y="245.4951">unit : string</text><line style="stroke:#181818;stroke-width:0.5;" x1="588.5" x2="746.5" y1="252.7969" y2="252.7969"/></g><!--class MonitorMetadata--><g id="elem_MonitorMetadata"><rect codeLine="34" fill="#F1F1F1" height="64.2969" id="MonitorMetadata" rx="2.5" ry="2.5" style="stroke:#181818;stroke-width:0.5;" width="200" x="65.5" y="337"/><ellipse cx="101.65" cy="353" fill="#ADD1B2" rx="11" ry="11" style="stroke:#181818;stroke-width:1.0;"/><path d="M104.6344,358.6406 Q104.0563,358.9375 103.4156,359.0781 Q102.775,359.2344 102.0719,359.2344 Q99.5563,359.2344 98.2281,357.5938 Q96.9156,355.9375 96.9156,352.8125 Q96.9156,349.6719 98.2281,348.0313 Q99.5563,346.375 102.0719,346.375 Q102.775,346.375 103.4156,346.5313 Q104.0719,346.6719 104.6344,346.9688 L104.6344,349.6875 Q103.9938,349.1094 103.4,348.8438 Q102.8063,348.5781 102.1813,348.5781 Q100.8375,348.5781 100.15,349.6406 Q99.4625,350.7031 99.4625,352.8125 Q99.4625,354.9063 100.15,355.9844 Q100.8375,357.0469 102.1813,357.0469 Q102.8063,357.0469 103.4,356.7813 Q103.9938,356.5 104.6344,355.9219 L104.6344,358.6406 Z " fill="#000000"/><text fill="#000000" font-family="sans-serif" font-size="14" lengthAdjust="spacing" textLength="121" x="120.35" y="357.8467">MonitorMetadata</text><line style="stroke:#181818;stroke-width:0.5;" x1="66.5" x2="264.5" y1="369" y2="369"/><text fill="#000000" font-family="sans-serif" font-size="14" lengthAdjust="spacing" textLength="188" x="71.5" y="385.9951">section : Section.MONITOR</text><line style="stroke:#181818;stroke-width:0.5;" x1="66.5" x2="264.5" y1="393.2969" y2="393.2969"/></g><!--class MotorMetadata--><g id="elem_MotorMetadata"><rect codeLine="38" fill="#F1F1F1" height="48" id="MotorMetadata" rx="2.5" ry="2.5" style="stroke:#181818;stroke-width:0.5;" width="140" x="300.5" y="345"/><ellipse cx="315.5" cy="361" fill="#ADD1B2" rx="11" ry="11" style="stroke:#181818;stroke-width:1.0;"/><path d="M318.4844,366.6406 Q317.9063,366.9375 317.2656,367.0781 Q316.625,367.2344 315.9219,367.2344 Q313.4063,367.2344 312.0781,365.5938 Q310.7656,363.9375 310.7656,360.8125 Q310.7656,357.6719 312.0781,356.0313 Q313.4063,354.375 315.9219,354.375 Q316.625,354.375 317.2656,354.5313 Q317.9219,354.6719 318.4844,354.9688 L318.4844,357.6875 Q317.8438,357.1094 317.25,356.8438 Q316.6563,356.5781 316.0313,356.5781 Q314.6875,356.5781 314,357.6406 Q313.3125,358.7031 313.3125,360.8125 Q313.3125,362.9063 314,363.9844 Q314.6875,365.0469 316.0313,365.0469 Q316.6563,365.0469 317.25,364.7813 Q317.8438,364.5 318.4844,363.9219 L318.4844,366.6406 Z " fill="#000000"/><text fill="#000000" font-family="sans-serif" font-size="14" lengthAdjust="spacing" textLength="108" x="329.5" y="365.8467">MotorMetadata</text><line style="stroke:#181818;stroke-width:0.5;" x1="301.5" x2="439.5" y1="377" y2="377"/><line style="stroke:#181818;stroke-width:0.5;" x1="301.5" x2="439.5" y1="385" y2="385"/></g><!--class DetectorMetadata--><g id="elem_DetectorMetadata"><rect codeLine="41" fill="#F1F1F1" height="64.2969" id="DetectorMetadata" rx="2.5" ry="2.5" style="stroke:#181818;stroke-width:0.5;" width="161" x="476" y="337"/><ellipse cx="491" cy="353" fill="#ADD1B2" rx="11" ry="11" style="stroke:#181818;stroke-width:1.0;"/><path d="M493.9844,358.6406 Q493.4063,358.9375 492.7656,359.0781 Q492.125,359.2344 491.4219,359.2344 Q488.9063,359.2344 487.5781,357.5938 Q486.2656,355.9375 486.2656,352.8125 Q486.2656,349.6719 487.5781,348.0313 Q488.9063,346.375 491.4219,346.375 Q492.125,346.375 492.7656,346.5313 Q493.4219,346.6719 493.9844,346.9688 L493.9844,349.6875 Q493.3438,349.1094 492.75,348.8438 Q492.1563,348.5781 491.5313,348.5781 Q490.1875,348.5781 489.5,349.6406 Q488.8125,350.7031 488.8125,352.8125 Q488.8125,354.9063 489.5,355.9844 Q490.1875,357.0469 491.5313,357.0469 Q492.1563,357.0469 492.75,356.7813 Q493.3438,356.5 493.9844,355.9219 L493.9844,358.6406 Z " fill="#000000"/><text fill="#000000" font-family="sans-serif" font-size="14" lengthAdjust="spacing" textLength="129" x="505" y="357.8467">DetectorMetadata</text><line style="stroke:#181818;stroke-width:0.5;" x1="477" x2="636" y1="369" y2="369"/><text fill="#000000" font-family="sans-serif" font-size="14" lengthAdjust="spacing" textLength="144" x="482" y="385.9951">normalise_id : string</text><line style="stroke:#181818;stroke-width:0.5;" x1="477" x2="636" y1="393.2969" y2="393.2969"/></g><!--class ExternalMetadata--><g id="elem_ExternalMetadata"><rect codeLine="45" fill="#F1F1F1" height="64.2969" id="ExternalMetadata" rx="2.5" ry="2.5" style="stroke:#181818;stroke-width:0.5;" width="158" x="672.5" y="337"/><ellipse cx="687.5" cy="353" fill="#ADD1B2" rx="11" ry="11" style="stroke:#181818;stroke-width:1.0;"/><path d="M690.4844,358.6406 Q689.9063,358.9375 689.2656,359.0781 Q688.625,359.2344 687.9219,359.2344 Q685.4063,359.2344 684.0781,357.5938 Q682.7656,355.9375 682.7656,352.8125 Q682.7656,349.6719 684.0781,348.0313 Q685.4063,346.375 687.9219,346.375 Q688.625,346.375 689.2656,346.5313 Q689.9219,346.6719 690.4844,346.9688 L690.4844,349.6875 Q689.8438,349.1094 689.25,348.8438 Q688.6563,348.5781 688.0313,348.5781 Q686.6875,348.5781 686,349.6406 Q685.3125,350.7031 685.3125,352.8125 Q685.3125,354.9063 686,355.9844 Q686.6875,357.0469 688.0313,357.0469 Q688.6563,357.0469 689.25,356.7813 Q689.8438,356.5 690.4844,355.9219 L690.4844,358.6406 Z " fill="#000000"/><text fill="#000000" font-family="sans-serif" font-size="14" lengthAdjust="spacing" textLength="126" x="701.5" y="357.8467">ExternalMetadata</text><line style="stroke:#181818;stroke-width:0.5;" x1="673.5" x2="829.5" y1="369" y2="369"/><text fill="#000000" font-family="sans-serif" font-size="14" lengthAdjust="spacing" textLength="101" x="678.5" y="385.9951">format : string</text><line style="stroke:#181818;stroke-width:0.5;" x1="673.5" x2="829.5" y1="393.2969" y2="393.2969"/></g><!--class TimestampMetadata--><g id="elem_TimestampMetadata"><rect codeLine="49" fill="#F1F1F1" height="64.2969" id="TimestampMetadata" rx="2.5" ry="2.5" style="stroke:#181818;stroke-width:0.5;" width="179" x="866" y="337"/><ellipse cx="881" cy="353" fill="#ADD1B2" rx="11" ry="11" style="stroke:#181818;stroke-width:1.0;"/><path d="M883.9844,358.6406 Q883.4063,358.9375 882.7656,359.0781 Q882.125,359.2344 881.4219,359.2344 Q878.9063,359.2344 877.5781,357.5938 Q876.2656,355.9375 876.2656,352.8125 Q876.2656,349.6719 877.5781,348.0313 Q878.9063,346.375 881.4219,346.375 Q882.125,346.375 882.7656,346.5313 Q883.4219,346.6719 883.9844,346.9688 L883.9844,349.6875 Q883.3438,349.1094 882.75,348.8438 Q882.1563,348.5781 881.5313,348.5781 Q880.1875,348.5781 879.5,349.6406 Q878.8125,350.7031 878.8125,352.8125 Q878.8125,354.9063 879.5,355.9844 Q880.1875,357.0469 881.5313,357.0469 Q882.1563,357.0469 882.75,356.7813 Q883.3438,356.5 883.9844,355.9219 L883.9844,358.6406 Z " fill="#000000"/><text fill="#000000" font-family="sans-serif" font-size="14" lengthAdjust="spacing" textLength="147" x="895" y="357.8467">TimestampMetadata</text><line style="stroke:#181818;stroke-width:0.5;" x1="867" x2="1044" y1="369" y2="369"/><text fill="#000000" font-family="sans-serif" font-size="14" lengthAdjust="spacing" textLength="161" x="872" y="385.9951">section : Section.META</text><line style="stroke:#181818;stroke-width:0.5;" x1="867" x2="1044" y1="393.2969" y2="393.2969"/></g><!--class ScanModuleMetadata--><g id="elem_ScanModuleMetadata"><rect codeLine="53" fill="#F1F1F1" height="64.2969" id="ScanModuleMetadata" rx="2.5" ry="2.5" style="stroke:#181818;stroke-width:0.5;" width="186" x="1080.5" y="337"/><ellipse cx="1095.5" cy="353" fill="#ADD1B2" rx="11" ry="11" style="stroke:#181818;stroke-width:1.0;"/><path d="M1098.4844,358.6406 Q1097.9063,358.9375 1097.2656,359.0781 Q1096.625,359.2344 1095.9219,359.2344 Q1093.4063,359.2344 1092.0781,357.5938 Q1090.7656,355.9375 1090.7656,352.8125 Q1090.7656,349.6719 1092.0781,348.0313 Q1093.4063,346.375 1095.9219,346.375 Q1096.625,346.375 1097.2656,346.5313 Q1097.9219,346.6719 1098.4844,346.9688 L1098.4844,349.6875 Q1097.8438,349.1094 1097.25,348.8438 Q1096.6563,348.5781 1096.0313,348.5781 Q1094.6875,348.5781 1094,349.6406 Q1093.3125,350.7031 1093.3125,352.8125 Q1093.3125,354.9063 1094,355.9844 Q1094.6875,357.0469 1096.0313,357.0469 Q1096.6563,357.0469 1097.25,356.7813 Q1097.8438,356.5 1098.4844,355.9219 L1098.4844,358.6406 Z " fill="#000000"/><text fill="#000000" font-family="sans-serif" font-size="14" lengthAdjust="spacing" textLength="154" x="1109.5" y="357.8467">ScanModuleMetadata</text><line style="stroke:#181818;stroke-width:0.5;" x1="1081.5" x2="1265.5" y1="369" y2="369"/><text fill="#000000" font-family="sans-serif" font-size="14" lengthAdjust="spacing" textLength="161" x="1086.5" y="385.9951">section : Section.META</text><line style="stroke:#181818;stroke-width:0.5;" x1="1081.5" x2="1265.5" y1="393.2969" y2="393.2969"/></g><!--class AverageDetectorMetadata--><g id="elem_AverageDetectorMetadata"><rect codeLine="57" fill="#F1F1F1" height="113.1875" id="AverageDetectorMetadata" rx="2.5" ry="2.5" style="stroke:#181818;stroke-width:0.5;" width="221" x="319" y="461"/><ellipse cx="334" cy="477" fill="#ADD1B2" rx="11" ry="11" style="stroke:#181818;stroke-width:1.0;"/><path d="M336.9844,482.6406 Q336.4063,482.9375 335.7656,483.0781 Q335.125,483.2344 334.4219,483.2344 Q331.9063,483.2344 330.5781,481.5938 Q329.2656,479.9375 329.2656,476.8125 Q329.2656,473.6719 330.5781,472.0313 Q331.9063,470.375 334.4219,470.375 Q335.125,470.375 335.7656,470.5313 Q336.4219,470.6719 336.9844,470.9688 L336.9844,473.6875 Q336.3438,473.1094 335.75,472.8438 Q335.1563,472.5781 334.5313,472.5781 Q333.1875,472.5781 332.5,473.6406 Q331.8125,474.7031 331.8125,476.8125 Q331.8125,478.9063 332.5,479.9844 Q333.1875,481.0469 334.5313,481.0469 Q335.1563,481.0469 335.75,480.7813 Q336.3438,480.5 336.9844,479.9219 L336.9844,482.6406 Z " fill="#000000"/><text fill="#000000" font-family="sans-serif" font-size="14" lengthAdjust="spacing" textLength="189" x="348" y="481.8467">AverageDetectorMetadata</text><line style="stroke:#181818;stroke-width:0.5;" x1="320" x2="539" y1="493" y2="493"/><text fill="#000000" font-family="sans-serif" font-size="14" lengthAdjust="spacing" textLength="146" x="325" y="509.9951">n_averages : integer</text><text fill="#000000" font-family="sans-serif" font-size="14" lengthAdjust="spacing" textLength="107" x="325" y="526.292">low_limit : float</text><text fill="#000000" font-family="sans-serif" font-size="14" lengthAdjust="spacing" textLength="165" x="325" y="542.5889">max_attempts : integer</text><text fill="#000000" font-family="sans-serif" font-size="14" lengthAdjust="spacing" textLength="149" x="325" y="558.8857">max_deviation : float</text><line style="stroke:#181818;stroke-width:0.5;" x1="320" x2="539" y1="566.1875" y2="566.1875"/></g><g id="elem_GMN24"><path d="M224.5,634 L224.5,719.6641 A0,0 0 0 0 224.5,719.6641 L634.5,719.6641 A0,0 0 0 0 634.5,719.6641 L634.5,644 L624.5,634 L433.5,634 L429.5,574.03 L425.5,634 L224.5,634 A0,0 0 0 0 224.5,634 " fill="#FEFFDD" style="stroke:#181818;stroke-width:0.5;"/><path d="M624.5,634 L624.5,644 L634.5,644 L624.5,634 " fill="#FEFFDD" style="stroke:#181818;stroke-width:0.5;"/><text fill="#000000" font-family="sans-serif" font-size="13" lengthAdjust="spacing" textLength="351" x="230.5" y="651.0669">These attributes may change      for individual values.</text><text fill="#000000" font-family="sans-serif" font-size="13" lengthAdjust="spacing" textLength="8" x="230.5" y="666.1997">&#160;</text><text fill="#000000" font-family="sans-serif" font-size="13" lengthAdjust="spacing" textLength="385" x="234.5" y="681.3325">Is that true even for only one detector in one scan module?</text><text fill="#000000" font-family="sans-serif" font-size="13" lengthAdjust="spacing" textLength="377" x="234.5" y="696.4653">If we go for separate detectors in this case, would it solve</text><text fill="#000000" font-family="sans-serif" font-size="13" lengthAdjust="spacing" textLength="86" x="234.5" y="711.5981">the problem?</text></g><!--class IntervalDetectorMetadata--><g id="elem_IntervalDetectorMetadata"><rect codeLine="71" fill="#F1F1F1" height="64.2969" id="IntervalDetectorMetadata" rx="2.5" ry="2.5" style="stroke:#181818;stroke-width:0.5;" width="215" x="575" y="485.5"/><ellipse cx="590" cy="501.5" fill="#ADD1B2" rx="11" ry="11" style="stroke:#181818;stroke-width:1.0;"/><path d="M592.9844,507.1406 Q592.4063,507.4375 591.7656,507.5781 Q591.125,507.7344 590.4219,507.7344 Q587.9063,507.7344 586.5781,506.0938 Q585.2656,504.4375 585.2656,501.3125 Q585.2656,498.1719 586.5781,496.5313 Q587.9063,494.875 590.4219,494.875 Q591.125,494.875 591.7656,495.0313 Q592.4219,495.1719 592.9844,495.4688 L592.9844,498.1875 Q592.3438,497.6094 591.75,497.3438 Q591.1563,497.0781 590.5313,497.0781 Q589.1875,497.0781 588.5,498.1406 Q587.8125,499.2031 587.8125,501.3125 Q587.8125,503.4063 588.5,504.4844 Q589.1875,505.5469 590.5313,505.5469 Q591.1563,505.5469 591.75,505.2813 Q592.3438,505 592.9844,504.4219 L592.9844,507.1406 Z " fill="#000000"/><text fill="#000000" font-family="sans-serif" font-size="14" lengthAdjust="spacing" textLength="183" x="604" y="506.3467">IntervalDetectorMetadata</text><line style="stroke:#181818;stroke-width:0.5;" x1="576" x2="789" y1="517.5" y2="517.5"/><text fill="#000000" font-family="sans-serif" font-size="14" lengthAdjust="spacing" textLength="154" x="581" y="534.4951">trigger_interval : float</text><line style="stroke:#181818;stroke-width:0.5;" x1="576" x2="789" y1="541.7969" y2="541.7969"/></g><!--reverse link DeviceMetadata to MonitorMetadata--><g id="link_DeviceMetadata_MonitorMetadata"><path d="M285.036,287.2384 C255.736,307.0384 237.48,319.37 211.41,336.98 " fill="none" id="DeviceMetadata-backto-MonitorMetadata" style="stroke:#181818;stroke-width:1.0;stroke-dasharray:7.0,7.0;"/><polygon fill="none" points="299.95,277.16,281.6766,282.2671,288.3955,292.2097,299.95,277.16" style="stroke:#181818;stroke-width:1.0;"/></g><!--reverse link DeviceMetadata to MotorMetadata--><g id="link_DeviceMetadata_MotorMetadata"><path d="M370.5,295.16 C370.5,318.01 370.5,326.34 370.5,344.75 " fill="none" id="DeviceMetadata-backto-MotorMetadata" style="stroke:#181818;stroke-width:1.0;stroke-dasharray:7.0,7.0;"/><polygon fill="none" points="370.5,277.16,364.5,295.16,376.5,295.16,370.5,277.16" style="stroke:#181818;stroke-width:1.0;"/></g><!--reverse link DeviceMetadata to DetectorMetadata--><g id="link_DeviceMetadata_DetectorMetadata"><path d="M448.9471,287.9104 C475.5371,307.7104 491.2,319.37 514.84,336.98 " fill="none" id="DeviceMetadata-backto-DetectorMetadata" style="stroke:#181818;stroke-width:1.0;stroke-dasharray:7.0,7.0;"/><polygon fill="none" points="434.51,277.16,445.3636,292.7228,452.5305,283.0981,434.51,277.16" style="stroke:#181818;stroke-width:1.0;"/></g><!--reverse link Data to Metadata--><g id="link_Data_Metadata"><path codeLine="75" d="M113.75,63.5 C125.44,63.5 125.13,63.5 136.82,63.5 " fill="none" id="Data-backto-Metadata" style="stroke:#181818;stroke-width:1.0;"/><polygon fill="#181818" points="101.75,63.5,107.75,67.5,113.75,63.5,107.75,59.5,101.75,63.5" style="stroke:#181818;stroke-width:1.0;"/></g><!--reverse link Metadata to MeasureMetadata--><g id="link_Metadata_MeasureMetadata"><path codeLine="76" d="M283.2904,93.1036 C367.1904,122.4536 496.41,167.66 587.25,199.43 " fill="none" id="Metadata-backto-MeasureMetadata" style="stroke:#181818;stroke-width:1.0;"/><polygon fill="none" points="266.3,87.16,281.3092,98.7671,285.2716,87.4401,266.3,87.16" style="stroke:#181818;stroke-width:1.0;"/></g><!--reverse link Metadata to MonitorMetadata--><g id="link_Metadata_MonitorMetadata"><path codeLine="77" d="M194.6706,122.0548 C187.4306,183.1148 175.82,280.98 169.22,336.61 " fill="none" id="Metadata-backto-MonitorMetadata" style="stroke:#181818;stroke-width:1.0;"/><polygon fill="none" points="196.79,104.18,188.7123,121.3483,200.6288,122.7613,196.79,104.18" style="stroke:#181818;stroke-width:1.0;"/></g><!--reverse link MeasureMetadata to DetectorMetadata--><g id="link_MeasureMetadata_DetectorMetadata"><path codeLine="78" d="M631.3341,274.6266 C613.1841,297.2766 599.93,313.81 581.71,336.54 " fill="none" id="MeasureMetadata-backto-DetectorMetadata" style="stroke:#181818;stroke-width:1.0;"/><polygon fill="none" points="642.59,260.58,626.652,270.8746,636.0163,278.3785,642.59,260.58" style="stroke:#181818;stroke-width:1.0;"/></g><!--reverse link MeasureMetadata to MotorMetadata--><g id="link_MeasureMetadata_MotorMetadata"><path codeLine="79" d="M584.5364,268.1871 C529.6364,293.7871 469.34,321.91 419.83,345 " fill="none" id="MeasureMetadata-backto-MotorMetadata" style="stroke:#181818;stroke-width:1.0;"/><polygon fill="none" points="600.85,260.58,582.0007,262.7492,587.0721,273.6249,600.85,260.58" style="stroke:#181818;stroke-width:1.0;"/></g><!--reverse link MeasureMetadata to ExternalMetadata--><g id="link_MeasureMetadata_ExternalMetadata"><path codeLine="80" d="M695.6858,275.9697 C709.4258,298.6197 718.63,313.81 732.42,336.54 " fill="none" id="MeasureMetadata-backto-ExternalMetadata" style="stroke:#181818;stroke-width:1.0;"/><polygon fill="none" points="686.35,260.58,690.5558,279.0816,700.8157,272.8578,686.35,260.58" style="stroke:#181818;stroke-width:1.0;"/></g><!--reverse link MeasureMetadata to TimestampMetadata--><g id="link_MeasureMetadata_TimestampMetadata"><path codeLine="81" d="M747.7287,268.4387 C759.0387,273.9187 754.51,271.71 765.5,277 C807.02,297 853.69,319.36 890.39,336.91 " fill="none" id="MeasureMetadata-backto-TimestampMetadata" style="stroke:#181818;stroke-width:1.0;"/><polygon fill="none" points="731.53,260.59,745.1125,273.8383,750.3449,263.0391,731.53,260.59" style="stroke:#181818;stroke-width:1.0;"/></g><!--reverse link MeasureMetadata to ScanModuleMetadata--><g id="link_MeasureMetadata_ScanModuleMetadata"><path codeLine="82" d="M741.8596,268.2683 C754.7496,274.3283 752.24,272.53 765.5,277 C893.1,320.04 931.56,305.53 1062.5,337 C1068.34,338.4 1074.33,339.9 1080.36,341.46 " fill="none" id="MeasureMetadata-backto-ScanModuleMetadata" style="stroke:#181818;stroke-width:1.0;"/><polygon fill="none" points="725.57,260.61,739.3068,273.6981,744.4124,262.8384,725.57,260.61" style="stroke:#181818;stroke-width:1.0;"/></g><!--reverse link DetectorMetadata to AverageDetectorMetadata--><g id="link_DetectorMetadata_AverageDetectorMetadata"><path codeLine="83" d="M517.7774,414.669 C502.6974,432.059 495.25,440.65 477.68,460.93 " fill="none" id="DetectorMetadata-backto-AverageDetectorMetadata" style="stroke:#181818;stroke-width:1.0;"/><polygon fill="none" points="529.57,401.07,513.2444,410.7382,522.3104,418.5999,529.57,401.07" style="stroke:#181818;stroke-width:1.0;"/></g><!--reverse link DetectorMetadata to IntervalDetectorMetadata--><g id="link_DetectorMetadata_IntervalDetectorMetadata"><path codeLine="84" d="M594.9568,414.7172 C616.3368,439.5772 634.44,460.63 655.82,485.48 " fill="none" id="DetectorMetadata-backto-IntervalDetectorMetadata" style="stroke:#181818;stroke-width:1.0;"/><polygon fill="none" points="583.22,401.07,590.4078,418.6295,599.5059,410.8049,583.22,401.07" style="stroke:#181818;stroke-width:1.0;"/></g><!--SRC=[bLJRRjf047tVhvZdgk43gagH5Q8MAK0L_8Y41dimA-t5sXqxYThyUyTh0y60cY84tjqpPsVEp75XC4QO4sE9ZF1RWNmSMe9l43beLwMTI0LhxsHprJ-fTwMA53ljuzwLyqomzSpUTZ22KcCLqCBEXxLBzDQNZQ69KkGQUw0QBbtbsMAQFK_xnIBxjVgvpDDYlbpCykLp__oOPztTYI0Fw6Bj0myK3rdwUre-P4_ZXFAzZY3VadRQKGdQ0UzfxM9XpIGID_MGtTfXX1SoPW8_o550eoFTAwKTKzXXGJ2bLXSqqaoNvuhLxVcQ3xbk-Atkr3qcVv9oJXYRC6PkdEOJrmdiPT-78rZRsf0bn_5wWXSjd1nq_K3vESBKxaFxYONkis5fkdomITJDHysEX8-lehD3Cqf_rqLTqo7NbYAZhVzTxp0xVTogG3TF7V_FmAoLeQZeel2XkWtsvr48kfcfAAG3urysHjlKovtno6dNuki6cSdMF0xeZafH48Ti-g2piKwuV4-HG4Y2tZOizrfyWsAFhYA0GJeXBdMhomODj6WQYcB2T3YBuWCHbaD3G2sv1FVElCcFU7YeilDBjuwYsc2K-u5W9sw1ogUuI3K6v5DSx8qcnYimqbTuyOqHyp54Rrhg6SI7K0U_bR6v5sENq5LuK7lMsKvIlY6t55s9O1izm3xefDARwSlTyUscZh7V_zpTZTqsFZstbnfxCu76ILr7dTdgEcGyzDTH5wD-7NOvsUf2lGIyCSatqBSweVu2]--></g></svg>