<?xml version="1.0" encoding="us-ascii" standalone="no"?><svg xmlns="http://www.w3.org/2000/svg" xmlns:xlink="http://www.w3.org/1999/xlink" contentStyleType="text/css" height="522px" preserveAspectRatio="none" style="width:793px;height:522px;background:#FFFFFF;" version="1.1" viewBox="0 0 793 522" width="793px" zoomAndPan="magnify"><defs/><g><!--cluster evefile--><g id="cluster_evefile"><path d="M285,6 L330,6 A3.75,3.75 0 0 1 332.5,8.5 L339.5,28.4063 L584,28.4063 A2.5,2.5 0 0 1 586.5,30.9063 L586.5,236.5 A2.5,2.5 0 0 1 584,239 L285,239 A2.5,2.5 0 0 1 282.5,236.5 L282.5,8.5 A2.5,2.5 0 0 1 285,6 " fill="none" style="stroke:#000000;stroke-width:1.5;"/><line style="stroke:#000000;stroke-width:1.5;" x1="282.5" x2="339.5" y1="28.4063" y2="28.4063"/><text fill="#000000" font-family="sans-serif" font-size="14" font-weight="bold" lengthAdjust="spacing" textLength="44" x="286.5" y="20.9883">evefile</text></g><!--cluster entities--><g id="cluster_entities"><path d="M309,49 L359,49 A3.75,3.75 0 0 1 361.5,51.5 L368.5,71.4063 L560,71.4063 A2.5,2.5 0 0 1 562.5,73.9063 L562.5,212.5 A2.5,2.5 0 0 1 560,215 L309,215 A2.5,2.5 0 0 1 306.5,212.5 L306.5,51.5 A2.5,2.5 0 0 1 309,49 " fill="none" style="stroke:#000000;stroke-width:1.5;"/><line style="stroke:#000000;stroke-width:1.5;" x1="306.5" x2="368.5" y1="71.4063" y2="71.4063"/><text fill="#000000" font-family="sans-serif" font-size="14" font-weight="bold" lengthAdjust="spacing" textLength="49" x="310.5" y="63.9883">entities</text></g><!--cluster file--><g id="cluster_file"><path d="M333,92 L355,92 A3.75,3.75 0 0 1 357.5,94.5 L364.5,114.4063 L536,114.4063 A2.5,2.5 0 0 1 538.5,116.9063 L538.5,188.5 A2.5,2.5 0 0 1 536,191 L333,191 A2.5,2.5 0 0 1 330.5,188.5 L330.5,94.5 A2.5,2.5 0 0 1 333,92 " fill="none" style="stroke:#000000;stroke-width:1.5;"/><line style="stroke:#000000;stroke-width:1.5;" x1="330.5" x2="364.5" y1="114.4063" y2="114.4063"/><text fill="#000000" font-family="sans-serif" font-size="14" font-weight="bold" lengthAdjust="spacing" textLength="21" x="334.5" y="106.9883">file</text></g><!--class Scan--><g id="elem_Scan"><rect codeLine="26" fill="#F1F1F1" height="48" id="Scan" rx="2.5" ry="2.5" style="stroke:#181818;stroke-width:0.5;" width="63" x="459" y="127"/><ellipse cx="474" cy="143" fill="#ADD1B2" rx="11" ry="11" style="stroke:#181818;stroke-width:1.0;"/><path d="M474.0469,149.2031 C475.5469,149.2031 476.7813,148.6406 477.6875,147.5781 L476.3125,146.0625 C475.7656,146.6563 475.1094,147.0469 474.3125,147.0469 C472.6406,147.0469 471.4844,145.7188 471.4844,143.4375 C471.4844,141.2188 472.6406,139.875 474.2031,139.875 C475.0156,139.875 475.6094,140.1875 476.1406,140.6719 L477.5156,139.125 C476.7656,138.3906 475.6094,137.7188 474.2031,137.7188 C471.25,137.7188 468.9219,139.8594 468.9219,143.5313 C468.9219,147.25 471.2969,149.2031 474.0469,149.2031 Z " fill="#000000"/><text fill="#000000" font-family="sans-serif" font-size="14" lengthAdjust="spacing" textLength="31" x="488" y="147.7852">Scan</text><line style="stroke:#181818;stroke-width:0.5;" x1="460" x2="521" y1="159" y2="159"/><line style="stroke:#181818;stroke-width:0.5;" x1="460" x2="521" y1="167" y2="167"/></g><!--class Station--><g id="elem_Station"><rect codeLine="29" fill="#F1F1F1" height="48" id="Station" rx="2.5" ry="2.5" style="stroke:#181818;stroke-width:0.5;" width="77" x="347" y="127"/><ellipse cx="362" cy="143" fill="#ADD1B2" rx="11" ry="11" style="stroke:#181818;stroke-width:1.0;"/><path d="M362.0469,149.2031 C363.5469,149.2031 364.7813,148.6406 365.6875,147.5781 L364.3125,146.0625 C363.7656,146.6563 363.1094,147.0469 362.3125,147.0469 C360.6406,147.0469 359.4844,145.7188 359.4844,143.4375 C359.4844,141.2188 360.6406,139.875 362.2031,139.875 C363.0156,139.875 363.6094,140.1875 364.1406,140.6719 L365.5156,139.125 C364.7656,138.3906 363.6094,137.7188 362.2031,137.7188 C359.25,137.7188 356.9219,139.8594 356.9219,143.5313 C356.9219,147.25 359.2969,149.2031 362.0469,149.2031 Z " fill="#000000"/><text fill="#000000" font-family="sans-serif" font-size="14" lengthAdjust="spacing" textLength="45" x="376" y="147.7852">Station</text><line style="stroke:#181818;stroke-width:0.5;" x1="348" x2="423" y1="159" y2="159"/><line style="stroke:#181818;stroke-width:0.5;" x1="348" x2="423" y1="167" y2="167"/></g><!--class Measurement--><g id="elem_Measurement"><rect codeLine="3" fill="#F1F1F1" height="179.25" id="Measurement" rx="2.5" ry="2.5" style="stroke:#181818;stroke-width:0.5;" width="259" x="7" y="61.5"/><ellipse cx="89.25" cy="77.5" fill="#ADD1B2" rx="11" ry="11" style="stroke:#181818;stroke-width:1.0;"/><path d="M89.2969,83.7031 C90.7969,83.7031 92.0313,83.1406 92.9375,82.0781 L91.5625,80.5625 C91.0156,81.1563 90.3594,81.5469 89.5625,81.5469 C87.8906,81.5469 86.7344,80.2188 86.7344,77.9375 C86.7344,75.7188 87.8906,74.375 89.4531,74.375 C90.2656,74.375 90.8594,74.6875 91.3906,75.1719 L92.7656,73.625 C92.0156,72.8906 90.8594,72.2188 89.4531,72.2188 C86.5,72.2188 84.1719,74.3594 84.1719,78.0313 C84.1719,81.75 86.5469,83.7031 89.2969,83.7031 Z " fill="#000000"/><text fill="#000000" font-family="sans-serif" font-size="14" lengthAdjust="spacing" textLength="86" x="109.75" y="82.2852">Measurement</text><line style="stroke:#181818;stroke-width:0.5;" x1="8" x2="265" y1="93.5" y2="93.5"/><text fill="#000000" font-family="sans-serif" font-size="14" lengthAdjust="spacing" textLength="149" x="13" y="110.4883">devices{} : MeasureData</text><text fill="#000000" font-family="sans-serif" font-size="14" lengthAdjust="spacing" textLength="244" x="13" y="126.8945">machine{} : MeasureData | MonitorData</text><text fill="#000000" font-family="sans-serif" font-size="14" lengthAdjust="spacing" textLength="247" x="13" y="143.3008">beamline{} : MeasureData | MonitorData</text><text fill="#000000" font-family="sans-serif" font-size="14" lengthAdjust="spacing" textLength="214" x="13" y="159.707">device_snapshots{} : MeasureData</text><text fill="#000000" font-family="sans-serif" font-size="14" lengthAdjust="spacing" textLength="131" x="13" y="176.1133">metadata : Metadata</text><text fill="#000000" font-family="sans-serif" font-size="14" lengthAdjust="spacing" textLength="70" x="13" y="192.5195">scan : Scan</text><text fill="#000000" font-family="sans-serif" font-size="14" lengthAdjust="spacing" textLength="98" x="13" y="208.9258">station : Station</text><text fill="#000000" font-family="sans-serif" font-size="14" lengthAdjust="spacing" textLength="185" x="13" y="225.332">log_messages[] : LogMessage</text><line style="stroke:#181818;stroke-width:0.5;" x1="8" x2="265" y1="232.75" y2="232.75"/></g><!--class Metadata--><g id="elem_Metadata"><rect codeLine="18" fill="#F1F1F1" height="48" id="Metadata" rx="2.5" ry="2.5" style="stroke:#181818;stroke-width:0.5;" width="93" x="90" y="341.5"/><ellipse cx="105" cy="357.5" fill="#ADD1B2" rx="11" ry="11" style="stroke:#181818;stroke-width:1.0;"/><path d="M105.0469,363.7031 C106.5469,363.7031 107.7813,363.1406 108.6875,362.0781 L107.3125,360.5625 C106.7656,361.1563 106.1094,361.5469 105.3125,361.5469 C103.6406,361.5469 102.4844,360.2188 102.4844,357.9375 C102.4844,355.7188 103.6406,354.375 105.2031,354.375 C106.0156,354.375 106.6094,354.6875 107.1406,355.1719 L108.5156,353.625 C107.7656,352.8906 106.6094,352.2188 105.2031,352.2188 C102.25,352.2188 99.9219,354.3594 99.9219,358.0313 C99.9219,361.75 102.2969,363.7031 105.0469,363.7031 Z " fill="#000000"/><text fill="#000000" font-family="sans-serif" font-size="14" lengthAdjust="spacing" textLength="61" x="119" y="362.2852">Metadata</text><line style="stroke:#181818;stroke-width:0.5;" x1="91" x2="182" y1="373.5" y2="373.5"/><line style="stroke:#181818;stroke-width:0.5;" x1="91" x2="182" y1="381.5" y2="381.5"/></g><!--class Scan--><g id="elem_Scan"><rect codeLine="32" fill="#F1F1F1" height="48" id="Scan" rx="2.5" ry="2.5" style="stroke:#181818;stroke-width:0.5;" width="63" x="395" y="341.5"/><ellipse cx="410" cy="357.5" fill="#ADD1B2" rx="11" ry="11" style="stroke:#181818;stroke-width:1.0;"/><path d="M410.0469,363.7031 C411.5469,363.7031 412.7813,363.1406 413.6875,362.0781 L412.3125,360.5625 C411.7656,361.1563 411.1094,361.5469 410.3125,361.5469 C408.6406,361.5469 407.4844,360.2188 407.4844,357.9375 C407.4844,355.7188 408.6406,354.375 410.2031,354.375 C411.0156,354.375 411.6094,354.6875 412.1406,355.1719 L413.5156,353.625 C412.7656,352.8906 411.6094,352.2188 410.2031,352.2188 C407.25,352.2188 404.9219,354.3594 404.9219,358.0313 C404.9219,361.75 407.2969,363.7031 410.0469,363.7031 Z " fill="#000000"/><text fill="#000000" font-family="sans-serif" font-size="14" lengthAdjust="spacing" textLength="31" x="424" y="362.2852">Scan</text><line style="stroke:#181818;stroke-width:0.5;" x1="396" x2="457" y1="373.5" y2="373.5"/><line style="stroke:#181818;stroke-width:0.5;" x1="396" x2="457" y1="381.5" y2="381.5"/></g><!--class Station--><g id="elem_Station"><rect codeLine="34" fill="#F1F1F1" height="48" id="Station" rx="2.5" ry="2.5" style="stroke:#181818;stroke-width:0.5;" width="77" x="251" y="341.5"/><ellipse cx="266" cy="357.5" fill="#ADD1B2" rx="11" ry="11" style="stroke:#181818;stroke-width:1.0;"/><path d="M266.0469,363.7031 C267.5469,363.7031 268.7813,363.1406 269.6875,362.0781 L268.3125,360.5625 C267.7656,361.1563 267.1094,361.5469 266.3125,361.5469 C264.6406,361.5469 263.4844,360.2188 263.4844,357.9375 C263.4844,355.7188 264.6406,354.375 266.2031,354.375 C267.0156,354.375 267.6094,354.6875 268.1406,355.1719 L269.5156,353.625 C268.7656,352.8906 267.6094,352.2188 266.2031,352.2188 C263.25,352.2188 260.9219,354.3594 260.9219,358.0313 C260.9219,361.75 263.2969,363.7031 266.0469,363.7031 Z " fill="#000000"/><text fill="#000000" font-family="sans-serif" font-size="14" lengthAdjust="spacing" textLength="45" x="280" y="362.2852">Station</text><line style="stroke:#181818;stroke-width:0.5;" x1="252" x2="327" y1="373.5" y2="373.5"/><line style="stroke:#181818;stroke-width:0.5;" x1="252" x2="327" y1="381.5" y2="381.5"/></g><g id="elem_GMN9"><path d="M62.5,490.5 L62.5,515.7344 A0,0 0 0 0 62.5,515.7344 L210.5,515.7344 A0,0 0 0 0 210.5,515.7344 L210.5,500.5 L200.5,490.5 L140.5,490.5 L136.5,389.79 L132.5,490.5 L62.5,490.5 A0,0 0 0 0 62.5,490.5 " fill="#FEFFDD" style="stroke:#181818;stroke-width:0.5;"/><path d="M200.5,490.5 L200.5,500.5 L210.5,500.5 L200.5,490.5 " fill="#FEFFDD" style="stroke:#181818;stroke-width:0.5;"/><text fill="#000000" font-family="sans-serif" font-size="13" lengthAdjust="spacing" textLength="127" x="68.5" y="507.5605">See separate diagram.</text></g><!--class Data--><g id="elem_Data"><rect codeLine="36" fill="#F1F1F1" height="97.2188" id="Data" rx="2.5" ry="2.5" style="stroke:#181818;stroke-width:0.5;" width="183" x="603" y="102.5"/><ellipse cx="675.25" cy="118.5" fill="#ADD1B2" rx="11" ry="11" style="stroke:#181818;stroke-width:1.0;"/><path d="M675.2969,124.7031 C676.7969,124.7031 678.0313,124.1406 678.9375,123.0781 L677.5625,121.5625 C677.0156,122.1563 676.3594,122.5469 675.5625,122.5469 C673.8906,122.5469 672.7344,121.2188 672.7344,118.9375 C672.7344,116.7188 673.8906,115.375 675.4531,115.375 C676.2656,115.375 676.8594,115.6875 677.3906,116.1719 L678.7656,114.625 C678.0156,113.8906 676.8594,113.2188 675.4531,113.2188 C672.5,113.2188 670.1719,115.3594 670.1719,119.0313 C670.1719,122.75 672.5469,124.7031 675.2969,124.7031 Z " fill="#000000"/><text fill="#000000" font-family="sans-serif" font-size="14" lengthAdjust="spacing" textLength="30" x="695.75" y="123.2852">Data</text><line style="stroke:#181818;stroke-width:0.5;" x1="604" x2="785" y1="134.5" y2="134.5"/><text fill="#000000" font-family="sans-serif" font-size="14" lengthAdjust="spacing" textLength="107" x="609" y="151.4883">data : np.ndarray</text><text fill="#000000" font-family="sans-serif" font-size="14" lengthAdjust="spacing" textLength="99" x="609" y="167.8945">axes[]: AxisData</text><text fill="#000000" font-family="sans-serif" font-size="14" lengthAdjust="spacing" textLength="171" x="609" y="184.3008">metadata : DeviceMetadata</text><line style="stroke:#181818;stroke-width:0.5;" x1="604" x2="785" y1="191.7188" y2="191.7188"/></g><!--class Axis--><g id="elem_Axis"><rect codeLine="42" fill="#F1F1F1" height="130.0313" id="Axis" rx="2.5" ry="2.5" style="stroke:#181818;stroke-width:0.5;" width="130" x="629.5" y="300.5"/><ellipse cx="677.25" cy="316.5" fill="#ADD1B2" rx="11" ry="11" style="stroke:#181818;stroke-width:1.0;"/><path d="M677.2969,322.7031 C678.7969,322.7031 680.0313,322.1406 680.9375,321.0781 L679.5625,319.5625 C679.0156,320.1563 678.3594,320.5469 677.5625,320.5469 C675.8906,320.5469 674.7344,319.2188 674.7344,316.9375 C674.7344,314.7188 675.8906,313.375 677.4531,313.375 C678.2656,313.375 678.8594,313.6875 679.3906,314.1719 L680.7656,312.625 C680.0156,311.8906 678.8594,311.2188 677.4531,311.2188 C674.5,311.2188 672.1719,313.3594 672.1719,317.0313 C672.1719,320.75 674.5469,322.7031 677.2969,322.7031 Z " fill="#000000"/><text fill="#000000" font-family="sans-serif" font-size="14" lengthAdjust="spacing" textLength="26" x="697.75" y="321.2852">Axis</text><line style="stroke:#181818;stroke-width:0.5;" x1="630.5" x2="758.5" y1="332.5" y2="332.5"/><text fill="#000000" font-family="sans-serif" font-size="14" lengthAdjust="spacing" textLength="118" x="635.5" y="349.4883">values : np.ndarray</text><text fill="#000000" font-family="sans-serif" font-size="14" lengthAdjust="spacing" textLength="71" x="635.5" y="365.8945">label: string</text><text fill="#000000" font-family="sans-serif" font-size="14" lengthAdjust="spacing" textLength="97" x="635.5" y="382.3008">quantity : string</text><text fill="#000000" font-family="sans-serif" font-size="14" lengthAdjust="spacing" textLength="90" x="635.5" y="398.707">symbol : string</text><text fill="#000000" font-family="sans-serif" font-size="14" lengthAdjust="spacing" textLength="69" x="635.5" y="415.1133">unit : string</text><line style="stroke:#181818;stroke-width:0.5;" x1="630.5" x2="758.5" y1="422.5313" y2="422.5313"/></g><!--reverse link Measurement to Metadata--><g id="link_Measurement_Metadata"><path codeLine="14" d="M136.5,252.58 C136.5,289.25 136.5,316.81 136.5,341.12 " fill="none" id="Measurement-backto-Metadata" style="stroke:#181818;stroke-width:1.0;"/><polygon fill="#181818" points="136.5,240.58,132.5,246.58,136.5,252.58,140.5,246.58,136.5,240.58" style="stroke:#181818;stroke-width:1.0;"/></g><!--reverse link Measurement to Scan--><g id="link_Measurement_Scan"><path codeLine="15" d="M273.2848,247.6649 C300.5148,267.1149 319.23,280.81 345.5,300.5 C363.14,313.72 382.53,329.01 397.91,341.33 " fill="none" id="Measurement-backto-Scan" style="stroke:#181818;stroke-width:1.0;"/><polygon fill="#181818" points="263.52,240.69,266.0774,247.4324,273.2848,247.6649,270.7274,240.9225,263.52,240.69" style="stroke:#181818;stroke-width:1.0;"/></g><!--reverse link Measurement to Station--><g id="link_Measurement_Station"><path codeLine="16" d="M207.2912,250.3187 C233.6912,286.9887 255.16,316.81 272.67,341.12 " fill="none" id="Measurement-backto-Station" style="stroke:#181818;stroke-width:1.0;"/><polygon fill="#181818" points="200.28,240.58,200.5394,247.7864,207.2912,250.3187,207.0319,243.1123,200.28,240.58" style="stroke:#181818;stroke-width:1.0;"/></g><!--reverse link Scan to Scan--><g id="link_Scan_Scan"><path d="M478.3388,192.3852 C466.0288,233.2552 445.77,300.53 433.46,341.38 " fill="none" id="Scan-backto-Scan" style="stroke:#181818;stroke-width:1.0;"/><polygon fill="none" points="483.53,175.15,472.5937,190.6548,484.0838,194.1156,483.53,175.15" style="stroke:#181818;stroke-width:1.0;"/></g><!--reverse link Station to Station--><g id="link_Station_Station"><path d="M367.6306,191.5543 C349.1706,232.4243 318.4,300.53 299.94,341.38 " fill="none" id="Station-backto-Station" style="stroke:#181818;stroke-width:1.0;"/><polygon fill="none" points="375.04,175.15,362.1625,189.0845,373.0987,194.0241,375.04,175.15" style="stroke:#181818;stroke-width:1.0;"/></g><!--reverse link Data to Axis--><g id="link_Data_Axis"><path codeLine="50" d="M694.5,211.69 C694.5,241.42 694.5,268.06 694.5,300.45 " fill="none" id="Data-backto-Axis" style="stroke:#181818;stroke-width:1.0;"/><polygon fill="#181818" points="694.5,199.69,690.5,205.69,694.5,211.69,698.5,205.69,694.5,199.69" style="stroke:#181818;stroke-width:1.0;"/><text fill="#000000" font-family="sans-serif" font-size="13" lengthAdjust="spacing" textLength="7" x="687.0953" y="289.1337">n</text></g><!--SRC=[ZL9DRy8m3BtdLqIxJ9f4kVSsYUCuSPmcvBQcHCf75xi8nFZloqSf53QsNXe_Fx_ds7dUCdTKpkUT1ikzqKNjpBpMG3Hh5BGUZ10fb4i4wZqQj2oFGeQlmPsgaOudMPwp2s18EGFrLbcypSalkNHMiVCZiq8m-d_KRBWc2nrj7V_YZ0nDh8-fV4murM03jWg_73EmSWdAfuHgrwuD4a6BzFuHac-kNUPOd8Iu7iBBR7Pnk4qacpjmC1edEdHwZDBMCShACJiZtMRQ-mfH4dRW8N26lHG2RHEBn5aFTxXH6ejWfrWX5IcAdMI7XwnX6bV4L8Xx3ZQFj4VweF17nNG4YtpzjDoyCziLjW7luP1GsCSzbF9rh-Yd5I_IanY7DJOV-OFm3dIFT2-jeK9TXdVWbMqJyjb3RFOW9oWTJENq5El3mxmWmJLT9EpuoJubR_4D]--></g></svg>