<?xml version="1.0" encoding="us-ascii" standalone="no"?><svg xmlns="http://www.w3.org/2000/svg" xmlns:xlink="http://www.w3.org/1999/xlink" contentStyleType="text/css" height="562px" preserveAspectRatio="none" style="width:659px;height:562px;background:#FFFFFF;" version="1.1" viewBox="0 0 659 562" width="659px" zoomAndPan="magnify"><defs/><g><!--cluster evedata--><g id="cluster_evedata"><path d="M8.5,6 L61.5,6 A3.75,3.75 0 0 1 64,8.5 L71,28.4063 L649.5,28.4063 A2.5,2.5 0 0 1 652,30.9063 L652,552.5 A2.5,2.5 0 0 1 649.5,555 L8.5,555 A2.5,2.5 0 0 1 6,552.5 L6,8.5 A2.5,2.5 0 0 1 8.5,6 " fill="none" style="stroke:#000000;stroke-width:1.5;"/><line style="stroke:#000000;stroke-width:1.5;" x1="6" x2="71" y1="28.4063" y2="28.4063"/><text fill="#000000" font-family="sans-serif" font-size="14" font-weight="bold" lengthAdjust="spacing" textLength="52" x="10" y="20.9883">evedata</text></g><!--cluster evefile--><g id="cluster_evefile"><path d="M40.5,57 L85.5,57 A3.75,3.75 0 0 1 88,59.5 L95,79.4063 L184.5,79.4063 A2.5,2.5 0 0 1 187,81.9063 L187,407.5 A2.5,2.5 0 0 1 184.5,410 L40.5,410 A2.5,2.5 0 0 1 38,407.5 L38,59.5 A2.5,2.5 0 0 1 40.5,57 " fill="none" style="stroke:#000000;stroke-width:1.5;"/><line style="stroke:#000000;stroke-width:1.5;" x1="38" x2="95" y1="79.4063" y2="79.4063"/><text fill="#000000" font-family="sans-serif" font-size="14" font-weight="bold" lengthAdjust="spacing" textLength="44" x="42" y="71.9883">evefile</text></g><!--cluster scml--><g id="cluster_scml"><path d="M229.5,177 L260.5,177 A3.75,3.75 0 0 1 263,179.5 L270,199.4063 L428.5,199.4063 A2.5,2.5 0 0 1 431,201.9063 L431,520.5 A2.5,2.5 0 0 1 428.5,523 L229.5,523 A2.5,2.5 0 0 1 227,520.5 L227,179.5 A2.5,2.5 0 0 1 229.5,177 " fill="none" style="stroke:#000000;stroke-width:1.5;"/><line style="stroke:#000000;stroke-width:1.5;" x1="227" x2="270" y1="199.4063" y2="199.4063"/><text fill="#000000" font-family="sans-serif" font-size="14" font-weight="bold" lengthAdjust="spacing" textLength="30" x="231" y="191.9883">scml</text></g><!--cluster dataset--><g id="cluster_dataset"><path d="M473.5,177 L523.5,177 A3.75,3.75 0 0 1 526,179.5 L533,199.4063 L617.5,199.4063 A2.5,2.5 0 0 1 620,201.9063 L620,407.5 A2.5,2.5 0 0 1 617.5,410 L473.5,410 A2.5,2.5 0 0 1 471,407.5 L471,179.5 A2.5,2.5 0 0 1 473.5,177 " fill="none" style="stroke:#000000;stroke-width:1.5;"/><line style="stroke:#000000;stroke-width:1.5;" x1="471" x2="533" y1="199.4063" y2="199.4063"/><text fill="#000000" font-family="sans-serif" font-size="14" font-weight="bold" lengthAdjust="spacing" textLength="49" x="475" y="191.9883">dataset</text></g><path d="M85,333 L107,333 A3.75,3.75 0 0 1 109.5,335.5 L116.5,355.4063 L121,355.4063 A2.5,2.5 0 0 1 123.5,357.9063 L123.5,383.3125 A2.5,2.5 0 0 1 121,385.8125 L85,385.8125 A2.5,2.5 0 0 1 82.5,383.3125 L82.5,335.5 A2.5,2.5 0 0 1 85,333 " fill="#F1F1F1" style="stroke:#181818;stroke-width:0.5;"/><line style="stroke:#181818;stroke-width:0.5;" x1="82.5" x2="116.5" y1="355.4063" y2="355.4063"/><text fill="#000000" font-family="sans-serif" font-size="14" font-weight="bold" lengthAdjust="spacing" textLength="21" x="86.5" y="347.9883">file</text><path d="M81,220 L111,220 A3.75,3.75 0 0 1 113.5,222.5 L120.5,242.4063 L125,242.4063 A2.5,2.5 0 0 1 127.5,244.9063 L127.5,270.3125 A2.5,2.5 0 0 1 125,272.8125 L81,272.8125 A2.5,2.5 0 0 1 78.5,270.3125 L78.5,222.5 A2.5,2.5 0 0 1 81,220 " fill="#F1F1F1" style="stroke:#181818;stroke-width:0.5;"/><line style="stroke:#181818;stroke-width:0.5;" x1="78.5" x2="120.5" y1="242.4063" y2="242.4063"/><text fill="#000000" font-family="sans-serif" font-size="14" font-weight="bold" lengthAdjust="spacing" textLength="29" x="82.5" y="234.9883">data</text><path d="M64.5,100 L127.5,100 A3.75,3.75 0 0 1 130,102.5 L137,122.4063 L141.5,122.4063 A2.5,2.5 0 0 1 144,124.9063 L144,150.3125 A2.5,2.5 0 0 1 141.5,152.8125 L64.5,152.8125 A2.5,2.5 0 0 1 62,150.3125 L62,102.5 A2.5,2.5 0 0 1 64.5,100 " fill="#F1F1F1" style="stroke:#181818;stroke-width:0.5;"/><line style="stroke:#181818;stroke-width:0.5;" x1="62" x2="137" y1="122.4063" y2="122.4063"/><text fill="#000000" font-family="sans-serif" font-size="14" font-weight="bold" lengthAdjust="spacing" textLength="62" x="66" y="114.9883">metadata</text><path d="M312.5,446 L343.5,446 A3.75,3.75 0 0 1 346,448.5 L353,468.4063 L357.5,468.4063 A2.5,2.5 0 0 1 360,470.9063 L360,496.3125 A2.5,2.5 0 0 1 357.5,498.8125 L312.5,498.8125 A2.5,2.5 0 0 1 310,496.3125 L310,448.5 A2.5,2.5 0 0 1 312.5,446 " fill="#F1F1F1" style="stroke:#181818;stroke-width:0.5;"/><line style="stroke:#181818;stroke-width:0.5;" x1="310" x2="353" y1="468.4063" y2="468.4063"/><text fill="#000000" font-family="sans-serif" font-size="14" font-weight="bold" lengthAdjust="spacing" textLength="30" x="314" y="460.9883">scml</text><path d="M353.5,333 L390.5,333 A3.75,3.75 0 0 1 393,335.5 L400,355.4063 L404.5,355.4063 A2.5,2.5 0 0 1 407,357.9063 L407,383.3125 A2.5,2.5 0 0 1 404.5,385.8125 L353.5,385.8125 A2.5,2.5 0 0 1 351,383.3125 L351,335.5 A2.5,2.5 0 0 1 353.5,333 " fill="#F1F1F1" style="stroke:#181818;stroke-width:0.5;"/><line style="stroke:#181818;stroke-width:0.5;" x1="351" x2="400" y1="355.4063" y2="355.4063"/><text fill="#000000" font-family="sans-serif" font-size="14" font-weight="bold" lengthAdjust="spacing" textLength="36" x="355" y="347.9883">setup</text><path d="M268.5,333 L299.5,333 A3.75,3.75 0 0 1 302,335.5 L309,355.4063 L313.5,355.4063 A2.5,2.5 0 0 1 316,357.9063 L316,383.3125 A2.5,2.5 0 0 1 313.5,385.8125 L268.5,385.8125 A2.5,2.5 0 0 1 266,383.3125 L266,335.5 A2.5,2.5 0 0 1 268.5,333 " fill="#F1F1F1" style="stroke:#181818;stroke-width:0.5;"/><line style="stroke:#181818;stroke-width:0.5;" x1="266" x2="309" y1="355.4063" y2="355.4063"/><text fill="#000000" font-family="sans-serif" font-size="14" font-weight="bold" lengthAdjust="spacing" textLength="30" x="270" y="347.9883">scan</text><path d="M353.5,220 L390.5,220 A3.75,3.75 0 0 1 393,222.5 L400,242.4063 L404.5,242.4063 A2.5,2.5 0 0 1 407,244.9063 L407,270.3125 A2.5,2.5 0 0 1 404.5,272.8125 L353.5,272.8125 A2.5,2.5 0 0 1 351,270.3125 L351,222.5 A2.5,2.5 0 0 1 353.5,220 " fill="#F1F1F1" style="stroke:#181818;stroke-width:0.5;"/><line style="stroke:#181818;stroke-width:0.5;" x1="351" x2="400" y1="242.4063" y2="242.4063"/><text fill="#000000" font-family="sans-serif" font-size="14" font-weight="bold" lengthAdjust="spacing" textLength="36" x="355" y="234.9883">event</text><path d="M273,220 L299,220 A3.75,3.75 0 0 1 301.5,222.5 L308.5,242.4063 L313,242.4063 A2.5,2.5 0 0 1 315.5,244.9063 L315.5,270.3125 A2.5,2.5 0 0 1 313,272.8125 L273,272.8125 A2.5,2.5 0 0 1 270.5,270.3125 L270.5,222.5 A2.5,2.5 0 0 1 273,220 " fill="#F1F1F1" style="stroke:#181818;stroke-width:0.5;"/><line style="stroke:#181818;stroke-width:0.5;" x1="270.5" x2="308.5" y1="242.4063" y2="242.4063"/><text fill="#000000" font-family="sans-serif" font-size="14" font-weight="bold" lengthAdjust="spacing" textLength="25" x="274.5" y="234.9883">plot</text><path d="M523,333 L573,333 A3.75,3.75 0 0 1 575.5,335.5 L582.5,355.4063 L587,355.4063 A2.5,2.5 0 0 1 589.5,357.9063 L589.5,383.3125 A2.5,2.5 0 0 1 587,385.8125 L523,385.8125 A2.5,2.5 0 0 1 520.5,383.3125 L520.5,335.5 A2.5,2.5 0 0 1 523,333 " fill="#F1F1F1" style="stroke:#181818;stroke-width:0.5;"/><line style="stroke:#181818;stroke-width:0.5;" x1="520.5" x2="582.5" y1="355.4063" y2="355.4063"/><text fill="#000000" font-family="sans-serif" font-size="14" font-weight="bold" lengthAdjust="spacing" textLength="49" x="524.5" y="347.9883">dataset</text><path d="M516.5,220 L579.5,220 A3.75,3.75 0 0 1 582,222.5 L589,242.4063 L593.5,242.4063 A2.5,2.5 0 0 1 596,244.9063 L596,270.3125 A2.5,2.5 0 0 1 593.5,272.8125 L516.5,272.8125 A2.5,2.5 0 0 1 514,270.3125 L514,222.5 A2.5,2.5 0 0 1 516.5,220 " fill="#F1F1F1" style="stroke:#181818;stroke-width:0.5;"/><line style="stroke:#181818;stroke-width:0.5;" x1="514" x2="589" y1="242.4063" y2="242.4063"/><text fill="#000000" font-family="sans-serif" font-size="14" font-weight="bold" lengthAdjust="spacing" textLength="62" x="518" y="234.9883">metadata</text><!--reverse link metadata to data--><g id="link_metadata_data"><path codeLine="14" d="M103,159.1 C103,178.9 103,200.17 103,219.95 " fill="none" id="metadata-backto-data" style="stroke:#181818;stroke-width:1.0;"/><polygon fill="#181818" points="103,153.1,99,162.1,103,158.1,107,162.1,103,153.1" style="stroke:#181818;stroke-width:1.0;"/></g><!--reverse link data to file--><g id="link_data_file"><path codeLine="15" d="M103,279.24 C103,297.18 103,314.99 103,332.89 " fill="none" id="data-backto-file" style="stroke:#181818;stroke-width:1.0;"/><polygon fill="#181818" points="103,273.24,99,282.24,103,278.24,107,282.24,103,273.24" style="stroke:#181818;stroke-width:1.0;"/></g><!--reverse link setup to scml--><g id="link_setup_scml"><path codeLine="32" d="M366.582,391.819 C359.482,409.759 352.25,427.99 345.15,445.89 " fill="none" id="setup-backto-scml" style="stroke:#181818;stroke-width:1.0;"/><polygon fill="#181818" points="368.79,386.24,361.7588,393.1365,366.95,390.8891,369.1974,396.0804,368.79,386.24" style="stroke:#181818;stroke-width:1.0;"/></g><!--reverse link scan to scml--><g id="link_scan_scml"><path codeLine="33" d="M303.418,391.819 C310.518,409.759 317.75,427.99 324.85,445.89 " fill="none" id="scan-backto-scml" style="stroke:#181818;stroke-width:1.0;"/><polygon fill="#181818" points="301.21,386.24,300.8026,396.0804,303.05,390.8891,308.2412,393.1365,301.21,386.24" style="stroke:#181818;stroke-width:1.0;"/></g><!--reverse link event to scan--><g id="link_event_scan"><path codeLine="34" d="M354.863,277.942 C340.643,295.882 325.49,314.99 311.3,332.89 " fill="none" id="event-backto-scan" style="stroke:#181818;stroke-width:1.0;"/><polygon fill="#181818" points="358.59,273.24,349.8648,277.8084,355.4841,277.1584,356.1341,282.7778,358.59,273.24" style="stroke:#181818;stroke-width:1.0;"/></g><!--reverse link plot to scan--><g id="link_plot_scan"><path codeLine="35" d="M292.4297,279.239 C292.0997,297.179 291.78,314.99 291.46,332.89 " fill="none" id="plot-backto-scan" style="stroke:#181818;stroke-width:1.0;"/><polygon fill="#181818" points="292.54,273.24,288.3752,282.1649,292.448,278.2392,296.3738,282.312,292.54,273.24" style="stroke:#181818;stroke-width:1.0;"/></g><!--link evefile to scml--><g id="link_evefile_scml"><path codeLine="39" d="M187.0643,144.4927 C187.1414,144.6551 187.2189,144.8184 187.2968,144.9826 C187.6085,145.6394 187.9269,146.31 188.2514,146.9937 C193.4441,157.9338 200.2281,172.2275 207.0113,186.52 C213.7944,200.8125 220.5766,215.1038 225.7655,226.0388 C226.0898,226.7222 226.4079,227.3925 226.7193,228.0489 C226.7972,228.213 224.3025,222.9556 224.3795,223.1179 " fill="none" id="evefile-to-scml" style="stroke:#181818;stroke-width:1.0;"/><polygon fill="#181818" points="226.9517,228.5386,226.7072,218.6928,224.8082,224.0213,219.4796,222.1223,226.9517,228.5386" style="stroke:#181818;stroke-width:1.0;"/></g><!--reverse link metadata to dataset--><g id="link_metadata_dataset"><path codeLine="48" d="M555,279.24 C555,297.18 555,314.99 555,332.89 " fill="none" id="metadata-backto-dataset" style="stroke:#181818;stroke-width:1.0;"/><polygon fill="#181818" points="555,273.24,551,282.24,555,278.24,559,282.24,555,273.24" style="stroke:#181818;stroke-width:1.0;"/></g><!--reverse link evefile to dataset--><g id="link_evefile_dataset"><path codeLine="52" d="M193.3541,127.9271 C199.2739,128.125 203.5695,128.3091 213.3591,128.7631 C232.9381,129.6713 258.9562,131.1675 286.2125,133.555 C340.725,138.33 400.19,146.67 423,161 C441.775,172.8 455.635,193.455 464.87,211.39 C467.1788,215.8737 469.1984,220.1875 470.9336,224.1504 " fill="none" id="evefile-backto-dataset" style="stroke:#181818;stroke-width:1.0;"/><polygon fill="#181818" points="187.3571,127.735,196.2245,132.0211,192.3546,127.895,196.4806,124.0252,187.3571,127.735" style="stroke:#181818;stroke-width:1.0;"/></g><!--SRC=[bP9B3eCW443tSmfsNM7QHNTDxp9HQen8IQNTDDwzu2yK1qGM-E6zp8zJtpPAumixLkc6NQvd08rbYxLWuYCgDCY-0Coku7TXduz62dliJiSjWHKUwzQmAyonyuLE6Dn8wskKld5EnewQKSjjKy21RbbVTd9fP-nyWVRhdcXXtle0NgBAf-s7Clcuba-JRhwNij_0jUw8u98-m4zf4m8gMXWJftb_dE7Dv_p-Pz13TvijEJNt6V7G_OulJjwjtz1-jK7uLKxLJlW00_m0]--></g></svg>