<?xml version="1.0" encoding="us-ascii" standalone="no"?><svg xmlns="http://www.w3.org/2000/svg" xmlns:xlink="http://www.w3.org/1999/xlink" contentStyleType="text/css" height="841px" preserveAspectRatio="none" style="width:1251px;height:841px;background:#FFFFFF;" version="1.1" viewBox="0 0 1251 841" width="1251px" zoomAndPan="magnify"><defs/><g><!--cluster evedata--><g id="cluster_evedata"><path d="M8.5,6 L73.5,6 A3.75,3.75 0 0 1 76,8.5 L83,28.2969 L1241.5,28.2969 A2.5,2.5 0 0 1 1244,30.7969 L1244,831.5 A2.5,2.5 0 0 1 1241.5,834 L8.5,834 A2.5,2.5 0 0 1 6,831.5 L6,8.5 A2.5,2.5 0 0 1 8.5,6 " fill="none" style="stroke:#000000;stroke-width:1.5;"/><line style="stroke:#000000;stroke-width:1.5;" x1="6" x2="83" y1="28.2969" y2="28.2969"/><text fill="#000000" font-family="sans-serif" font-size="14" font-weight="bold" lengthAdjust="spacing" textLength="64" x="10" y="20.9951">evedata</text></g><!--cluster measurement--><g id="cluster_measurement"><path d="M844.5,49 L956.5,49 A3.75,3.75 0 0 1 959,51.5 L966,71.2969 L1217.5,71.2969 A2.5,2.5 0 0 1 1220,73.7969 L1220,807.5 A2.5,2.5 0 0 1 1217.5,810 L844.5,810 A2.5,2.5 0 0 1 842,807.5 L842,51.5 A2.5,2.5 0 0 1 844.5,49 " fill="none" style="stroke:#000000;stroke-width:1.5;"/><line style="stroke:#000000;stroke-width:1.5;" x1="842" x2="966" y1="71.2969" y2="71.2969"/><text fill="#000000" font-family="sans-serif" font-size="14" font-weight="bold" lengthAdjust="spacing" textLength="111" x="846" y="63.9951">measurement</text></g><!--cluster boundaries--><g id="cluster_boundaries"><path d="M876.5,100 L966.5,100 A3.75,3.75 0 0 1 969,102.5 L976,122.2969 L1185.5,122.2969 A2.5,2.5 0 0 1 1188,124.7969 L1188,217.5 A2.5,2.5 0 0 1 1185.5,220 L876.5,220 A2.5,2.5 0 0 1 874,217.5 L874,102.5 A2.5,2.5 0 0 1 876.5,100 " fill="none" style="stroke:#000000;stroke-width:1.5;"/><line style="stroke:#000000;stroke-width:1.5;" x1="874" x2="976" y1="122.2969" y2="122.2969"/><text fill="#000000" font-family="sans-serif" font-size="14" font-weight="bold" lengthAdjust="spacing" textLength="89" x="878" y="114.9951">boundaries</text></g><!--cluster controllers--><g id="cluster_controllers"><path d="M876.5,260 L964.5,260 A3.75,3.75 0 0 1 967,262.5 L974,282.2969 L1094.5,282.2969 A2.5,2.5 0 0 1 1097,284.7969 L1097,377.5 A2.5,2.5 0 0 1 1094.5,380 L876.5,380 A2.5,2.5 0 0 1 874,377.5 L874,262.5 A2.5,2.5 0 0 1 876.5,260 " fill="none" style="stroke:#000000;stroke-width:1.5;"/><line style="stroke:#000000;stroke-width:1.5;" x1="874" x2="974" y1="282.2969" y2="282.2969"/><text fill="#000000" font-family="sans-serif" font-size="14" font-weight="bold" lengthAdjust="spacing" textLength="87" x="878" y="274.9951">controllers</text></g><!--cluster entities--><g id="cluster_entities"><path d="M876.5,420 L939.5,420 A3.75,3.75 0 0 1 942,422.5 L949,442.2969 L1091.5,442.2969 A2.5,2.5 0 0 1 1094,444.7969 L1094,775.5 A2.5,2.5 0 0 1 1091.5,778 L876.5,778 A2.5,2.5 0 0 1 874,775.5 L874,422.5 A2.5,2.5 0 0 1 876.5,420 " fill="none" style="stroke:#000000;stroke-width:1.5;"/><line style="stroke:#000000;stroke-width:1.5;" x1="874" x2="949" y1="442.2969" y2="442.2969"/><text fill="#000000" font-family="sans-serif" font-size="14" font-weight="bold" lengthAdjust="spacing" textLength="62" x="878" y="434.9951">entities</text></g><!--cluster data--><g id="cluster_data"><path d="M374.5,49 L410.5,49 A3.75,3.75 0 0 1 413,51.5 L420,71.2969 L815.5,71.2969 A2.5,2.5 0 0 1 818,73.7969 L818,807.5 A2.5,2.5 0 0 1 815.5,810 L374.5,810 A2.5,2.5 0 0 1 372,807.5 L372,51.5 A2.5,2.5 0 0 1 374.5,49 " fill="none" style="stroke:#000000;stroke-width:1.5;"/><line style="stroke:#000000;stroke-width:1.5;" x1="372" x2="420" y1="71.2969" y2="71.2969"/><text fill="#000000" font-family="sans-serif" font-size="14" font-weight="bold" lengthAdjust="spacing" textLength="35" x="376" y="63.9951">data</text></g><!--cluster boundaries--><g id="cluster_boundaries"><path d="M406.5,100 L496.5,100 A3.75,3.75 0 0 1 499,102.5 L506,122.2969 L649.5,122.2969 A2.5,2.5 0 0 1 652,124.7969 L652,217.5 A2.5,2.5 0 0 1 649.5,220 L406.5,220 A2.5,2.5 0 0 1 404,217.5 L404,102.5 A2.5,2.5 0 0 1 406.5,100 " fill="none" style="stroke:#000000;stroke-width:1.5;"/><line style="stroke:#000000;stroke-width:1.5;" x1="404" x2="506" y1="122.2969" y2="122.2969"/><text fill="#000000" font-family="sans-serif" font-size="14" font-weight="bold" lengthAdjust="spacing" textLength="89" x="408" y="114.9951">boundaries</text></g><!--cluster controllers--><g id="cluster_controllers"><path d="M406.5,260 L494.5,260 A3.75,3.75 0 0 1 497,262.5 L504,282.2969 L783.5,282.2969 A2.5,2.5 0 0 1 786,284.7969 L786,377.5 A2.5,2.5 0 0 1 783.5,380 L406.5,380 A2.5,2.5 0 0 1 404,377.5 L404,262.5 A2.5,2.5 0 0 1 406.5,260 " fill="none" style="stroke:#000000;stroke-width:1.5;"/><line style="stroke:#000000;stroke-width:1.5;" x1="404" x2="504" y1="282.2969" y2="282.2969"/><text fill="#000000" font-family="sans-serif" font-size="14" font-weight="bold" lengthAdjust="spacing" textLength="87" x="408" y="274.9951">controllers</text></g><!--cluster entities--><g id="cluster_entities"><path d="M406.5,420 L469.5,420 A3.75,3.75 0 0 1 472,422.5 L479,442.2969 L564.5,442.2969 A2.5,2.5 0 0 1 567,444.7969 L567,775.5 A2.5,2.5 0 0 1 564.5,778 L406.5,778 A2.5,2.5 0 0 1 404,775.5 L404,422.5 A2.5,2.5 0 0 1 406.5,420 " fill="none" style="stroke:#000000;stroke-width:1.5;"/><line style="stroke:#000000;stroke-width:1.5;" x1="404" x2="479" y1="442.2969" y2="442.2969"/><text fill="#000000" font-family="sans-serif" font-size="14" font-weight="bold" lengthAdjust="spacing" textLength="62" x="408" y="434.9951">entities</text></g><!--cluster dataset--><g id="cluster_dataset"><path d="M32.5,49 L93.5,49 A3.75,3.75 0 0 1 96,51.5 L103,71.2969 L345.5,71.2969 A2.5,2.5 0 0 1 348,73.7969 L348,569.5 A2.5,2.5 0 0 1 345.5,572 L32.5,572 A2.5,2.5 0 0 1 30,569.5 L30,51.5 A2.5,2.5 0 0 1 32.5,49 " fill="none" style="stroke:#000000;stroke-width:1.5;"/><line style="stroke:#000000;stroke-width:1.5;" x1="30" x2="103" y1="71.2969" y2="71.2969"/><text fill="#000000" font-family="sans-serif" font-size="14" font-weight="bold" lengthAdjust="spacing" textLength="60" x="34" y="63.9951">dataset</text></g><!--cluster boundaries--><g id="cluster_boundaries"><path d="M64.5,100 L154.5,100 A3.75,3.75 0 0 1 157,102.5 L164,122.2969 L206.5,122.2969 A2.5,2.5 0 0 1 209,124.7969 L209,217.5 A2.5,2.5 0 0 1 206.5,220 L64.5,220 A2.5,2.5 0 0 1 62,217.5 L62,102.5 A2.5,2.5 0 0 1 64.5,100 " fill="none" style="stroke:#000000;stroke-width:1.5;"/><line style="stroke:#000000;stroke-width:1.5;" x1="62" x2="164" y1="122.2969" y2="122.2969"/><text fill="#000000" font-family="sans-serif" font-size="14" font-weight="bold" lengthAdjust="spacing" textLength="89" x="66" y="114.9951">boundaries</text></g><!--cluster controllers--><g id="cluster_controllers"><path d="M64.5,260 L152.5,260 A3.75,3.75 0 0 1 155,262.5 L162,282.2969 L192.5,282.2969 A2.5,2.5 0 0 1 195,284.7969 L195,377.5 A2.5,2.5 0 0 1 192.5,380 L64.5,380 A2.5,2.5 0 0 1 62,377.5 L62,262.5 A2.5,2.5 0 0 1 64.5,260 " fill="none" style="stroke:#000000;stroke-width:1.5;"/><line style="stroke:#000000;stroke-width:1.5;" x1="62" x2="162" y1="282.2969" y2="282.2969"/><text fill="#000000" font-family="sans-serif" font-size="14" font-weight="bold" lengthAdjust="spacing" textLength="87" x="66" y="274.9951">controllers</text></g><!--cluster entities--><g id="cluster_entities"><path d="M64.5,420 L127.5,420 A3.75,3.75 0 0 1 130,422.5 L137,442.2969 L313.5,442.2969 A2.5,2.5 0 0 1 316,444.7969 L316,537.5 A2.5,2.5 0 0 1 313.5,540 L64.5,540 A2.5,2.5 0 0 1 62,537.5 L62,422.5 A2.5,2.5 0 0 1 64.5,420 " fill="none" style="stroke:#000000;stroke-width:1.5;"/><line style="stroke:#000000;stroke-width:1.5;" x1="62" x2="137" y1="442.2969" y2="442.2969"/><text fill="#000000" font-family="sans-serif" font-size="14" font-weight="bold" lengthAdjust="spacing" textLength="62" x="66" y="434.9951">entities</text></g><path d="M1111,143 L1147,143 A3.75,3.75 0 0 1 1149.5,145.5 L1156.5,165.2969 L1161,165.2969 A2.5,2.5 0 0 1 1163.5,167.7969 L1163.5,193.0938 A2.5,2.5 0 0 1 1161,195.5938 L1111,195.5938 A2.5,2.5 0 0 1 1108.5,193.0938 L1108.5,145.5 A2.5,2.5 0 0 1 1111,143 " fill="#F1F1F1" style="stroke:#181818;stroke-width:0.5;"/><line style="stroke:#181818;stroke-width:0.5;" x1="1108.5" x2="1156.5" y1="165.2969" y2="165.2969"/><text fill="#000000" font-family="sans-serif" font-size="14" font-weight="bold" lengthAdjust="spacing" textLength="35" x="1112.5" y="157.9951">scan</text><path d="M1011,143 L1057,143 A3.75,3.75 0 0 1 1059.5,145.5 L1066.5,165.2969 L1071,165.2969 A2.5,2.5 0 0 1 1073.5,167.7969 L1073.5,193.0938 A2.5,2.5 0 0 1 1071,195.5938 L1011,195.5938 A2.5,2.5 0 0 1 1008.5,193.0938 L1008.5,145.5 A2.5,2.5 0 0 1 1011,143 " fill="#F1F1F1" style="stroke:#181818;stroke-width:0.5;"/><line style="stroke:#181818;stroke-width:0.5;" x1="1008.5" x2="1066.5" y1="165.2969" y2="165.2969"/><text fill="#000000" font-family="sans-serif" font-size="14" font-weight="bold" lengthAdjust="spacing" textLength="45" x="1012.5" y="157.9951">setup</text><path d="M919.5,143 L956.5,143 A3.75,3.75 0 0 1 959,145.5 L966,165.2969 L970.5,165.2969 A2.5,2.5 0 0 1 973,167.7969 L973,193.0938 A2.5,2.5 0 0 1 970.5,195.5938 L919.5,195.5938 A2.5,2.5 0 0 1 917,193.0938 L917,145.5 A2.5,2.5 0 0 1 919.5,143 " fill="#F1F1F1" style="stroke:#181818;stroke-width:0.5;"/><line style="stroke:#181818;stroke-width:0.5;" x1="917" x2="966" y1="165.2969" y2="165.2969"/><text fill="#000000" font-family="sans-serif" font-size="14" font-weight="bold" lengthAdjust="spacing" textLength="36" x="921" y="157.9951">scml</text><path d="M920,303 L1056,303 A3.75,3.75 0 0 1 1058.5,305.5 L1065.5,325.2969 L1070,325.2969 A2.5,2.5 0 0 1 1072.5,327.7969 L1072.5,353.0938 A2.5,2.5 0 0 1 1070,355.5938 L920,355.5938 A2.5,2.5 0 0 1 917.5,353.0938 L917.5,305.5 A2.5,2.5 0 0 1 920,303 " fill="#F1F1F1" style="stroke:#181818;stroke-width:0.5;"/><line style="stroke:#181818;stroke-width:0.5;" x1="917.5" x2="1065.5" y1="325.2969" y2="325.2969"/><text fill="#000000" font-family="sans-serif" font-size="14" font-weight="bold" lengthAdjust="spacing" textLength="135" x="921.5" y="317.9951">version_mapping</text><path d="M963.5,701 L1000.5,701 A3.75,3.75 0 0 1 1003,703.5 L1010,723.2969 L1014.5,723.2969 A2.5,2.5 0 0 1 1017,725.7969 L1017,751.0938 A2.5,2.5 0 0 1 1014.5,753.5938 L963.5,753.5938 A2.5,2.5 0 0 1 961,751.0938 L961,703.5 A2.5,2.5 0 0 1 963.5,701 " fill="#F1F1F1" style="stroke:#181818;stroke-width:0.5;"/><line style="stroke:#181818;stroke-width:0.5;" x1="961" x2="1010" y1="723.2969" y2="723.2969"/><text fill="#000000" font-family="sans-serif" font-size="14" font-weight="bold" lengthAdjust="spacing" textLength="36" x="965" y="715.9951">scml</text><path d="M1007,588 L1053,588 A3.75,3.75 0 0 1 1055.5,590.5 L1062.5,610.2969 L1067,610.2969 A2.5,2.5 0 0 1 1069.5,612.7969 L1069.5,638.0938 A2.5,2.5 0 0 1 1067,640.5938 L1007,640.5938 A2.5,2.5 0 0 1 1004.5,638.0938 L1004.5,590.5 A2.5,2.5 0 0 1 1007,588 " fill="#F1F1F1" style="stroke:#181818;stroke-width:0.5;"/><line style="stroke:#181818;stroke-width:0.5;" x1="1004.5" x2="1062.5" y1="610.2969" y2="610.2969"/><text fill="#000000" font-family="sans-serif" font-size="14" font-weight="bold" lengthAdjust="spacing" textLength="45" x="1008.5" y="602.9951">setup</text><path d="M917,588 L953,588 A3.75,3.75 0 0 1 955.5,590.5 L962.5,610.2969 L967,610.2969 A2.5,2.5 0 0 1 969.5,612.7969 L969.5,638.0938 A2.5,2.5 0 0 1 967,640.5938 L917,640.5938 A2.5,2.5 0 0 1 914.5,638.0938 L914.5,590.5 A2.5,2.5 0 0 1 917,588 " fill="#F1F1F1" style="stroke:#181818;stroke-width:0.5;"/><line style="stroke:#181818;stroke-width:0.5;" x1="914.5" x2="962.5" y1="610.2969" y2="610.2969"/><text fill="#000000" font-family="sans-serif" font-size="14" font-weight="bold" lengthAdjust="spacing" textLength="35" x="918.5" y="602.9951">scan</text><path d="M1006.5,463 L1053.5,463 A3.75,3.75 0 0 1 1056,465.5 L1063,485.2969 L1067.5,485.2969 A2.5,2.5 0 0 1 1070,487.7969 L1070,513.0938 A2.5,2.5 0 0 1 1067.5,515.5938 L1006.5,515.5938 A2.5,2.5 0 0 1 1004,513.0938 L1004,465.5 A2.5,2.5 0 0 1 1006.5,463 " fill="#F1F1F1" style="stroke:#181818;stroke-width:0.5;"/><line style="stroke:#181818;stroke-width:0.5;" x1="1004" x2="1063" y1="485.2969" y2="485.2969"/><text fill="#000000" font-family="sans-serif" font-size="14" font-weight="bold" lengthAdjust="spacing" textLength="46" x="1008" y="477.9951">event</text><path d="M919.5,463 L952.5,463 A3.75,3.75 0 0 1 955,465.5 L962,485.2969 L966.5,485.2969 A2.5,2.5 0 0 1 969,487.7969 L969,513.0938 A2.5,2.5 0 0 1 966.5,515.5938 L919.5,515.5938 A2.5,2.5 0 0 1 917,513.0938 L917,465.5 A2.5,2.5 0 0 1 919.5,463 " fill="#F1F1F1" style="stroke:#181818;stroke-width:0.5;"/><line style="stroke:#181818;stroke-width:0.5;" x1="917" x2="962" y1="485.2969" y2="485.2969"/><text fill="#000000" font-family="sans-serif" font-size="14" font-weight="bold" lengthAdjust="spacing" textLength="32" x="921" y="477.9951">plot</text><path d="M556,143 L612,143 A3.75,3.75 0 0 1 614.5,145.5 L621.5,165.2969 L626,165.2969 A2.5,2.5 0 0 1 628.5,167.7969 L628.5,193.0938 A2.5,2.5 0 0 1 626,195.5938 L556,195.5938 A2.5,2.5 0 0 1 553.5,193.0938 L553.5,145.5 A2.5,2.5 0 0 1 556,143 " fill="#F1F1F1" style="stroke:#181818;stroke-width:0.5;"/><line style="stroke:#181818;stroke-width:0.5;" x1="553.5" x2="621.5" y1="165.2969" y2="165.2969"/><text fill="#000000" font-family="sans-serif" font-size="14" font-weight="bold" lengthAdjust="spacing" textLength="55" x="557.5" y="157.9951">evefile</text><path d="M450,143 L502,143 A3.75,3.75 0 0 1 504.5,145.5 L511.5,165.2969 L516,165.2969 A2.5,2.5 0 0 1 518.5,167.7969 L518.5,193.0938 A2.5,2.5 0 0 1 516,195.5938 L450,195.5938 A2.5,2.5 0 0 1 447.5,193.0938 L447.5,145.5 A2.5,2.5 0 0 1 450,143 " fill="#F1F1F1" style="stroke:#181818;stroke-width:0.5;"/><line style="stroke:#181818;stroke-width:0.5;" x1="447.5" x2="511.5" y1="165.2969" y2="165.2969"/><text fill="#000000" font-family="sans-serif" font-size="14" font-weight="bold" lengthAdjust="spacing" textLength="51" x="451.5" y="157.9951">eveH5</text><path d="M609,303 L745,303 A3.75,3.75 0 0 1 747.5,305.5 L754.5,325.2969 L759,325.2969 A2.5,2.5 0 0 1 761.5,327.7969 L761.5,353.0938 A2.5,2.5 0 0 1 759,355.5938 L609,355.5938 A2.5,2.5 0 0 1 606.5,353.0938 L606.5,305.5 A2.5,2.5 0 0 1 609,303 " fill="#F1F1F1" style="stroke:#181818;stroke-width:0.5;"/><line style="stroke:#181818;stroke-width:0.5;" x1="606.5" x2="754.5" y1="325.2969" y2="325.2969"/><text fill="#000000" font-family="sans-serif" font-size="14" font-weight="bold" lengthAdjust="spacing" textLength="135" x="610.5" y="317.9951">version_mapping</text><path d="M449.5,303 L554.5,303 A3.75,3.75 0 0 1 557,305.5 L564,325.2969 L568.5,325.2969 A2.5,2.5 0 0 1 571,327.7969 L571,353.0938 A2.5,2.5 0 0 1 568.5,355.5938 L449.5,355.5938 A2.5,2.5 0 0 1 447,353.0938 L447,305.5 A2.5,2.5 0 0 1 449.5,303 " fill="#F1F1F1" style="stroke:#181818;stroke-width:0.5;"/><line style="stroke:#181818;stroke-width:0.5;" x1="447" x2="564" y1="325.2969" y2="325.2969"/><text fill="#000000" font-family="sans-serif" font-size="14" font-weight="bold" lengthAdjust="spacing" textLength="104" x="451" y="317.9951">transforming</text><path d="M474.5,701 L501.5,701 A3.75,3.75 0 0 1 504,703.5 L511,723.2969 L515.5,723.2969 A2.5,2.5 0 0 1 518,725.7969 L518,751.0938 A2.5,2.5 0 0 1 515.5,753.5938 L474.5,753.5938 A2.5,2.5 0 0 1 472,751.0938 L472,703.5 A2.5,2.5 0 0 1 474.5,701 " fill="#F1F1F1" style="stroke:#181818;stroke-width:0.5;"/><line style="stroke:#181818;stroke-width:0.5;" x1="472" x2="511" y1="723.2969" y2="723.2969"/><text fill="#000000" font-family="sans-serif" font-size="14" font-weight="bold" lengthAdjust="spacing" textLength="26" x="476" y="715.9951">file</text><path d="M470,588 L506,588 A3.75,3.75 0 0 1 508.5,590.5 L515.5,610.2969 L520,610.2969 A2.5,2.5 0 0 1 522.5,612.7969 L522.5,638.0938 A2.5,2.5 0 0 1 520,640.5938 L470,640.5938 A2.5,2.5 0 0 1 467.5,638.0938 L467.5,590.5 A2.5,2.5 0 0 1 470,588 " fill="#F1F1F1" style="stroke:#181818;stroke-width:0.5;"/><line style="stroke:#181818;stroke-width:0.5;" x1="467.5" x2="515.5" y1="610.2969" y2="610.2969"/><text fill="#000000" font-family="sans-serif" font-size="14" font-weight="bold" lengthAdjust="spacing" textLength="35" x="471.5" y="602.9951">data</text><path d="M449.5,463 L526.5,463 A3.75,3.75 0 0 1 529,465.5 L536,485.2969 L540.5,485.2969 A2.5,2.5 0 0 1 543,487.7969 L543,513.0938 A2.5,2.5 0 0 1 540.5,515.5938 L449.5,515.5938 A2.5,2.5 0 0 1 447,513.0938 L447,465.5 A2.5,2.5 0 0 1 449.5,463 " fill="#F1F1F1" style="stroke:#181818;stroke-width:0.5;"/><line style="stroke:#181818;stroke-width:0.5;" x1="447" x2="536" y1="485.2969" y2="485.2969"/><text fill="#000000" font-family="sans-serif" font-size="14" font-weight="bold" lengthAdjust="spacing" textLength="76" x="451" y="477.9951">metadata</text><path d="M107.5,143 L168.5,143 A3.75,3.75 0 0 1 171,145.5 L178,165.2969 L182.5,165.2969 A2.5,2.5 0 0 1 185,167.7969 L185,193.0938 A2.5,2.5 0 0 1 182.5,195.5938 L107.5,195.5938 A2.5,2.5 0 0 1 105,193.0938 L105,145.5 A2.5,2.5 0 0 1 107.5,143 " fill="#F1F1F1" style="stroke:#181818;stroke-width:0.5;"/><line style="stroke:#181818;stroke-width:0.5;" x1="105" x2="178" y1="165.2969" y2="165.2969"/><text fill="#000000" font-family="sans-serif" font-size="14" font-weight="bold" lengthAdjust="spacing" textLength="60" x="109" y="157.9951">dataset</text><path d="M107.5,303 L154.5,303 A3.75,3.75 0 0 1 157,305.5 L164,325.2969 L168.5,325.2969 A2.5,2.5 0 0 1 171,327.7969 L171,353.0938 A2.5,2.5 0 0 1 168.5,355.5938 L107.5,355.5938 A2.5,2.5 0 0 1 105,353.0938 L105,305.5 A2.5,2.5 0 0 1 107.5,303 " fill="#F1F1F1" style="stroke:#181818;stroke-width:0.5;"/><line style="stroke:#181818;stroke-width:0.5;" x1="105" x2="164" y1="325.2969" y2="325.2969"/><text fill="#000000" font-family="sans-serif" font-size="14" font-weight="bold" lengthAdjust="spacing" textLength="46" x="109" y="317.9951">filling</text><path d="M239,463 L275,463 A3.75,3.75 0 0 1 277.5,465.5 L284.5,485.2969 L289,485.2969 A2.5,2.5 0 0 1 291.5,487.7969 L291.5,513.0938 A2.5,2.5 0 0 1 289,515.5938 L239,515.5938 A2.5,2.5 0 0 1 236.5,513.0938 L236.5,465.5 A2.5,2.5 0 0 1 239,463 " fill="#F1F1F1" style="stroke:#181818;stroke-width:0.5;"/><line style="stroke:#181818;stroke-width:0.5;" x1="236.5" x2="284.5" y1="485.2969" y2="485.2969"/><text fill="#000000" font-family="sans-serif" font-size="14" font-weight="bold" lengthAdjust="spacing" textLength="35" x="240.5" y="477.9951">data</text><path d="M107.5,463 L184.5,463 A3.75,3.75 0 0 1 187,465.5 L194,485.2969 L198.5,485.2969 A2.5,2.5 0 0 1 201,487.7969 L201,513.0938 A2.5,2.5 0 0 1 198.5,515.5938 L107.5,515.5938 A2.5,2.5 0 0 1 105,513.0938 L105,465.5 A2.5,2.5 0 0 1 107.5,463 " fill="#F1F1F1" style="stroke:#181818;stroke-width:0.5;"/><line style="stroke:#181818;stroke-width:0.5;" x1="105" x2="194" y1="485.2969" y2="485.2969"/><text fill="#000000" font-family="sans-serif" font-size="14" font-weight="bold" lengthAdjust="spacing" textLength="76" x="109" y="477.9951">metadata</text><!--reverse link setup to scml--><g id="link_setup_scml"><path codeLine="25" d="M1023.488,646.7469 C1015.728,664.6869 1007.81,682.99 1000.07,700.89 " fill="none" id="setup-backto-scml" style="stroke:#181818;stroke-width:1.0;"/><polygon fill="#181818" points="1025.87,641.24,1018.6257,647.9123,1023.885,645.8291,1025.9682,651.0884,1025.87,641.24" style="stroke:#181818;stroke-width:1.0;"/></g><!--reverse link scan to scml--><g id="link_scan_scml"><path codeLine="26" d="M955.2378,646.7658 C962.8278,664.7058 970.58,682.99 978.16,700.89 " fill="none" id="scan-backto-scml" style="stroke:#181818;stroke-width:1.0;"/><polygon fill="#181818" points="952.9,641.24,952.7229,651.0873,954.8482,645.8448,960.0906,647.9701,952.9,641.24" style="stroke:#181818;stroke-width:1.0;"/></g><!--reverse link event to scan--><g id="link_event_scan"><path codeLine="27" d="M1023.6689,521.6846 C1014.8989,540.6246 1003.79,560.87 987,580 C981.99,585.71 975.86,591.05 969.75,595.72 " fill="none" id="event-backto-scan" style="stroke:#181818;stroke-width:1.0;"/><polygon fill="#181818" points="1026.19,516.24,1018.7786,522.7262,1024.0891,520.7772,1026.0381,526.0877,1026.19,516.24" style="stroke:#181818;stroke-width:1.0;"/></g><!--reverse link plot to scan--><g id="link_plot_scan"><path codeLine="28" d="M942.7414,522.2798 C942.5714,543.2798 942.38,566.77 942.21,587.75 " fill="none" id="plot-backto-scan" style="stroke:#181818;stroke-width:1.0;"/><polygon fill="#181818" points="942.79,516.28,938.7173,525.2473,942.7495,521.2798,946.717,525.3121,942.79,516.28" style="stroke:#181818;stroke-width:1.0;"/></g><!--link boundaries to controllers--><g id="link_boundaries_controllers"><path codeLine="30" d="M882,220.5361 C882,220.8165 882,221.0974 882,221.379 C882,230.3876 882,239.9572 882,249.5263 C882,251.9185 882,254.3107 882,256.6942 C882,257.29 882,257.8853 882,258.4799 C882,258.7773 882,259.0744 882,259.3713 C882,259.5198 882,253.6682 882,253.8166 " fill="none" id="boundaries-to-controllers" style="stroke:#181818;stroke-width:1.0;"/><polygon fill="#181818" points="882,259.8166,886,250.8166,882,254.8166,878,250.8166,882,259.8166" style="stroke:#181818;stroke-width:1.0;"/></g><!--link controllers to entities--><g id="link_controllers_entities"><path codeLine="31" d="M882,380.5361 C882,380.8165 882,381.0974 882,381.379 C882,390.3876 882,399.9572 882,409.5263 C882,411.9185 882,414.3107 882,416.6942 C882,417.29 882,417.8853 882,418.4799 C882,418.7773 882,419.0744 882,419.3713 C882,419.5198 882,413.6682 882,413.8166 " fill="none" id="controllers-to-entities" style="stroke:#181818;stroke-width:1.0;"/><polygon fill="#181818" points="882,419.8166,886,410.8166,882,414.8166,878,410.8166,882,419.8166" style="stroke:#181818;stroke-width:1.0;"/></g><!--reverse link metadata to data--><g id="link_metadata_data"><path codeLine="51" d="M495,522.28 C495,543.28 495,566.77 495,587.75 " fill="none" id="metadata-backto-data" style="stroke:#181818;stroke-width:1.0;"/><polygon fill="#181818" points="495,516.28,491,525.28,495,521.28,499,525.28,495,516.28" style="stroke:#181818;stroke-width:1.0;"/></g><!--reverse link data to file--><g id="link_data_file"><path codeLine="52" d="M495,647.24 C495,665.18 495,682.99 495,700.89 " fill="none" id="data-backto-file" style="stroke:#181818;stroke-width:1.0;"/><polygon fill="#181818" points="495,641.24,491,650.24,495,646.24,499,650.24,495,641.24" style="stroke:#181818;stroke-width:1.0;"/></g><!--link boundaries to controllers--><g id="link_boundaries_controllers"><path codeLine="54" d="M412,220.5361 C412,220.8165 412,221.0974 412,221.379 C412,230.3876 412,239.9572 412,249.5263 C412,251.9185 412,254.3107 412,256.6942 C412,257.29 412,257.8853 412,258.4799 C412,258.7773 412,259.0744 412,259.3713 C412,259.5198 412,253.6682 412,253.8166 " fill="none" id="boundaries-to-controllers-1" style="stroke:#181818;stroke-width:1.0;"/><polygon fill="#181818" points="412,259.8166,416,250.8166,412,254.8166,408,250.8166,412,259.8166" style="stroke:#181818;stroke-width:1.0;"/></g><!--link controllers to entities--><g id="link_controllers_entities"><path codeLine="55" d="M412,380.5361 C412,380.8165 412,381.0974 412,381.379 C412,390.3876 412,399.9572 412,409.5263 C412,411.9185 412,414.3107 412,416.6942 C412,417.29 412,417.8853 412,418.4799 C412,418.7773 412,419.0744 412,419.3713 C412,419.5198 412,413.6682 412,413.8166 " fill="none" id="controllers-to-entities-1" style="stroke:#181818;stroke-width:1.0;"/><polygon fill="#181818" points="412,419.8166,416,410.8166,412,414.8166,408,410.8166,412,419.8166" style="stroke:#181818;stroke-width:1.0;"/></g><!--link boundaries to controllers--><g id="link_boundaries_controllers"><path codeLine="70" d="M70,220.5361 C70,220.8165 70,221.0974 70,221.379 C70,230.3876 70,239.9572 70,249.5263 C70,251.9185 70,254.3107 70,256.6942 C70,257.29 70,257.8853 70,258.4799 C70,258.7773 70,259.0744 70,259.3713 C70,259.5198 70,253.6682 70,253.8166 " fill="none" id="boundaries-to-controllers-2" style="stroke:#181818;stroke-width:1.0;"/><polygon fill="#181818" points="70,259.8166,74,250.8166,70,254.8166,66,250.8166,70,259.8166" style="stroke:#181818;stroke-width:1.0;"/></g><!--link controllers to entities--><g id="link_controllers_entities"><path codeLine="71" d="M70,380.5361 C70,380.8165 70,381.0974 70,381.379 C70,390.3876 70,399.9572 70,409.5263 C70,411.9185 70,414.3107 70,416.6942 C70,417.29 70,417.8853 70,418.4799 C70,418.7773 70,419.0744 70,419.3713 C70,419.5198 70,413.6682 70,413.8166 " fill="none" id="controllers-to-entities-2" style="stroke:#181818;stroke-width:1.0;"/><polygon fill="#181818" points="70,419.8166,74,410.8166,70,414.8166,66,410.8166,70,419.8166" style="stroke:#181818;stroke-width:1.0;"/></g><!--SRC=[fLJBReCm4Bpp5Rxr16eFkLKzzo-gBMmYAtx9EBb4_7jjI1lRyGiL2IIOsVNixYmlyvaA1HeucHGbRuVNhbCmdk641AyuWG5owuYzegy3HvWl6ZaASsTKMCEtl8W9DCNP2_23vX44kIrf3Cr5PS6HCnzRclICKXWj6KET4tIr49NYYuDIL9ps7s5lQae5Ezq1LAo-XRdsi85evGQJopCLay_4u7MJzzxtQqKXvFGaaKt01e48JtOdFY4FTHLtzVr7RU35LBunShb-9zjvxOYTu6rF3gulXMKVASESzItyUMWpvlhub-bzcj4WvgFKl7anraTb8vBSOMj0cwaJuT4SzePpD91C4Tkv5ElSd5VNaAcInRMei2cnrtnRnxv81-UM8f1HsmRxewWiX6NKT-8lLQljNDQwysqFsIutkxGLGs_6ITljOIp_m6JxexR40uZgowOe3T4lvZx7fVi1]--></g></svg>