<?xml version="1.0" encoding="us-ascii" standalone="no"?><svg xmlns="http://www.w3.org/2000/svg" xmlns:xlink="http://www.w3.org/1999/xlink" contentStyleType="text/css" height="600px" preserveAspectRatio="none" style="width:943px;height:600px;background:#FFFFFF;" version="1.1" viewBox="0 0 943 600" width="943px" zoomAndPan="magnify"><defs/><g><!--cluster scan--><g id="cluster_scan"><path d="M162,6 L198,6 A3.75,3.75 0 0 1 200.5,8.5 L207.5,28.2969 L310,28.2969 A2.5,2.5 0 0 1 312.5,30.7969 L312.5,169.5 A2.5,2.5 0 0 1 310,172 L162,172 A2.5,2.5 0 0 1 159.5,169.5 L159.5,8.5 A2.5,2.5 0 0 1 162,6 " fill="none" style="stroke:#000000;stroke-width:1.5;"/><line style="stroke:#000000;stroke-width:1.5;" x1="159.5" x2="207.5" y1="28.2969" y2="28.2969"/><text fill="#000000" font-family="sans-serif" font-size="14" font-weight="bold" lengthAdjust="spacing" textLength="35" x="163.5" y="20.9951">scan</text></g><!--cluster boundaries--><g id="cluster_boundaries"><path d="M186,49 L276,49 A3.75,3.75 0 0 1 278.5,51.5 L285.5,71.2969 L286,71.2969 A2.5,2.5 0 0 1 288.5,73.7969 L288.5,145.5 A2.5,2.5 0 0 1 286,148 L186,148 A2.5,2.5 0 0 1 183.5,145.5 L183.5,51.5 A2.5,2.5 0 0 1 186,49 " fill="none" style="stroke:#000000;stroke-width:1.5;"/><line style="stroke:#000000;stroke-width:1.5;" x1="183.5" x2="285.5" y1="71.2969" y2="71.2969"/><text fill="#000000" font-family="sans-serif" font-size="14" font-weight="bold" lengthAdjust="spacing" textLength="89" x="187.5" y="63.9951">boundaries</text></g><!--class Scan--><g id="elem_Scan"><rect fill="#F1F1F1" height="48" id="Scan" rx="2.5" ry="2.5" style="stroke:#181818;stroke-width:0.5;" width="67" x="200" y="84"/><ellipse cx="215" cy="100" fill="#ADD1B2" rx="11" ry="11" style="stroke:#181818;stroke-width:1.0;"/><path d="M217.9844,105.6406 Q217.4063,105.9375 216.7656,106.0781 Q216.125,106.2344 215.4219,106.2344 Q212.9063,106.2344 211.5781,104.5938 Q210.2656,102.9375 210.2656,99.8125 Q210.2656,96.6719 211.5781,95.0313 Q212.9063,93.375 215.4219,93.375 Q216.125,93.375 216.7656,93.5313 Q217.4219,93.6719 217.9844,93.9688 L217.9844,96.6875 Q217.3438,96.1094 216.75,95.8438 Q216.1563,95.5781 215.5313,95.5781 Q214.1875,95.5781 213.5,96.6406 Q212.8125,97.7031 212.8125,99.8125 Q212.8125,101.9063 213.5,102.9844 Q214.1875,104.0469 215.5313,104.0469 Q216.1563,104.0469 216.75,103.7813 Q217.3438,103.5 217.9844,102.9219 L217.9844,105.6406 Z " fill="#000000"/><text fill="#000000" font-family="sans-serif" font-size="14" lengthAdjust="spacing" textLength="35" x="229" y="104.8467">Scan</text><line style="stroke:#181818;stroke-width:0.5;" x1="201" x2="266" y1="116" y2="116"/><line style="stroke:#181818;stroke-width:0.5;" x1="201" x2="266" y1="124" y2="124"/></g><!--class File--><g id="elem_File"><rect codeLine="2" fill="#F1F1F1" height="162.0781" id="File" rx="2.5" ry="2.5" style="stroke:#181818;stroke-width:0.5;" width="285" x="386" y="27"/><ellipse cx="511.75" cy="43" fill="#ADD1B2" rx="11" ry="11" style="stroke:#181818;stroke-width:1.0;"/><path d="M514.7344,48.6406 Q514.1563,48.9375 513.5156,49.0781 Q512.875,49.2344 512.1719,49.2344 Q509.6563,49.2344 508.3281,47.5938 Q507.0156,45.9375 507.0156,42.8125 Q507.0156,39.6719 508.3281,38.0313 Q509.6563,36.375 512.1719,36.375 Q512.875,36.375 513.5156,36.5313 Q514.1719,36.6719 514.7344,36.9688 L514.7344,39.6875 Q514.0938,39.1094 513.5,38.8438 Q512.9063,38.5781 512.2813,38.5781 Q510.9375,38.5781 510.25,39.6406 Q509.5625,40.7031 509.5625,42.8125 Q509.5625,44.9063 510.25,45.9844 Q510.9375,47.0469 512.2813,47.0469 Q512.9063,47.0469 513.5,46.7813 Q514.0938,46.5 514.7344,45.9219 L514.7344,48.6406 Z " fill="#000000"/><text fill="#000000" font-family="sans-serif" font-size="14" lengthAdjust="spacing" textLength="25" x="532.25" y="47.8467">File</text><line style="stroke:#181818;stroke-width:0.5;" x1="387" x2="670" y1="59" y2="59"/><text fill="#000000" font-family="sans-serif" font-size="14" lengthAdjust="spacing" textLength="149" x="392" y="75.9951">metadata : Metadata</text><text fill="#000000" font-family="sans-serif" font-size="14" lengthAdjust="spacing" textLength="211" x="392" y="92.292">log_messages : LogMessage[]</text><text fill="#000000" font-family="sans-serif" font-size="14" lengthAdjust="spacing" textLength="81" x="392" y="108.5889">scan : Scan</text><text fill="#000000" font-family="sans-serif" font-size="14" lengthAdjust="spacing" textLength="89" x="392" y="124.8857">data : Data[]</text><text fill="#000000" font-family="sans-serif" font-size="14" lengthAdjust="spacing" textLength="128" x="392" y="141.1826">snapshots : Data[]</text><text fill="#000000" font-family="sans-serif" font-size="14" lengthAdjust="spacing" textLength="120" x="392" y="157.4795">monitors : Data[]</text><text fill="#000000" font-family="sans-serif" font-size="14" lengthAdjust="spacing" textLength="273" x="392" y="173.7764">position_timestamps : TimestampData</text><line style="stroke:#181818;stroke-width:0.5;" x1="387" x2="670" y1="181.0781" y2="181.0781"/></g><!--class Data--><g id="elem_Data"><rect fill="#F1F1F1" height="48" id="Data" rx="2.5" ry="2.5" style="stroke:#181818;stroke-width:0.5;" width="66" x="332.5" y="347"/><ellipse cx="347.5" cy="363" fill="#ADD1B2" rx="11" ry="11" style="stroke:#181818;stroke-width:1.0;"/><path d="M350.4844,368.6406 Q349.9063,368.9375 349.2656,369.0781 Q348.625,369.2344 347.9219,369.2344 Q345.4063,369.2344 344.0781,367.5938 Q342.7656,365.9375 342.7656,362.8125 Q342.7656,359.6719 344.0781,358.0313 Q345.4063,356.375 347.9219,356.375 Q348.625,356.375 349.2656,356.5313 Q349.9219,356.6719 350.4844,356.9688 L350.4844,359.6875 Q349.8438,359.1094 349.25,358.8438 Q348.6563,358.5781 348.0313,358.5781 Q346.6875,358.5781 346,359.6406 Q345.3125,360.7031 345.3125,362.8125 Q345.3125,364.9063 346,365.9844 Q346.6875,367.0469 348.0313,367.0469 Q348.6563,367.0469 349.25,366.7813 Q349.8438,366.5 350.4844,365.9219 L350.4844,368.6406 Z " fill="#000000"/><text fill="#000000" font-family="sans-serif" font-size="14" lengthAdjust="spacing" textLength="34" x="361.5" y="367.8467">Data</text><line style="stroke:#181818;stroke-width:0.5;" x1="333.5" x2="397.5" y1="379" y2="379"/><line style="stroke:#181818;stroke-width:0.5;" x1="333.5" x2="397.5" y1="387" y2="387"/></g><g id="elem_GMN5"><path d="M303,553 L303,593.2656 A0,0 0 0 0 303,593.2656 L428,593.2656 A0,0 0 0 0 428,593.2656 L428,563 L418,553 L369.5,553 L365.5,395.33 L361.5,553 L303,553 A0,0 0 0 0 303,553 " fill="#FEFFDD" style="stroke:#181818;stroke-width:0.5;"/><path d="M418,553 L418,563 L428,563 L418,553 " fill="#FEFFDD" style="stroke:#181818;stroke-width:0.5;"/><text fill="#000000" font-family="sans-serif" font-size="13" lengthAdjust="spacing" textLength="104" x="309" y="570.0669">See diagram for</text><text fill="#000000" font-family="sans-serif" font-size="13" lengthAdjust="spacing" textLength="86" x="309" y="585.1997">data module.</text></g><!--class Metadata--><g id="elem_Metadata"><rect codeLine="15" fill="#F1F1F1" height="243.5625" id="Metadata" rx="2.5" ry="2.5" style="stroke:#181818;stroke-width:0.5;" width="302" x="433.5" y="249"/><ellipse cx="546.75" cy="265" fill="#ADD1B2" rx="11" ry="11" style="stroke:#181818;stroke-width:1.0;"/><path d="M549.7344,270.6406 Q549.1563,270.9375 548.5156,271.0781 Q547.875,271.2344 547.1719,271.2344 Q544.6563,271.2344 543.3281,269.5938 Q542.0156,267.9375 542.0156,264.8125 Q542.0156,261.6719 543.3281,260.0313 Q544.6563,258.375 547.1719,258.375 Q547.875,258.375 548.5156,258.5313 Q549.1719,258.6719 549.7344,258.9688 L549.7344,261.6875 Q549.0938,261.1094 548.5,260.8438 Q547.9063,260.5781 547.2813,260.5781 Q545.9375,260.5781 545.25,261.6406 Q544.5625,262.7031 544.5625,264.8125 Q544.5625,266.9063 545.25,267.9844 Q545.9375,269.0469 547.2813,269.0469 Q547.9063,269.0469 548.5,268.7813 Q549.0938,268.5 549.7344,267.9219 L549.7344,270.6406 Z " fill="#000000"/><text fill="#000000" font-family="sans-serif" font-size="14" lengthAdjust="spacing" textLength="67" x="567.25" y="269.8467">Metadata</text><line style="stroke:#181818;stroke-width:0.5;" x1="434.5" x2="734.5" y1="281" y2="281"/><text fill="#000000" font-family="sans-serif" font-size="14" lengthAdjust="spacing" textLength="116" x="439.5" y="297.9951">filename : string</text><text fill="#000000" font-family="sans-serif" font-size="14" lengthAdjust="spacing" textLength="156" x="439.5" y="314.292">eveh5_version : string</text><text fill="#000000" font-family="sans-serif" font-size="14" lengthAdjust="spacing" textLength="138" x="439.5" y="330.5889">eve_version : string</text><text fill="#000000" font-family="sans-serif" font-size="14" lengthAdjust="spacing" textLength="134" x="439.5" y="346.8857">xml_version: string</text><text fill="#000000" font-family="sans-serif" font-size="14" lengthAdjust="spacing" textLength="208" x="439.5" y="363.1826">measurement_station : string</text><text fill="#000000" font-family="sans-serif" font-size="14" lengthAdjust="spacing" textLength="109" x="439.5" y="379.4795">start : datetime</text><text fill="#000000" font-family="sans-serif" font-size="14" lengthAdjust="spacing" textLength="104" x="439.5" y="395.7764">end : datetime</text><text fill="#000000" font-family="sans-serif" font-size="14" lengthAdjust="spacing" textLength="132" x="439.5" y="412.0732">description : string</text><text fill="#000000" font-family="sans-serif" font-size="14" lengthAdjust="spacing" textLength="145" x="439.5" y="428.3701">simulation : boolean</text><text fill="#000000" font-family="sans-serif" font-size="14" lengthAdjust="spacing" textLength="156" x="439.5" y="444.667">preferred_axis : string</text><text fill="#000000" font-family="sans-serif" font-size="14" lengthAdjust="spacing" textLength="185" x="439.5" y="460.9639">preferred_channel : string</text><text fill="#000000" font-family="sans-serif" font-size="14" lengthAdjust="spacing" textLength="290" x="439.5" y="477.2607">preferred_normalisation_channel : string</text><line style="stroke:#181818;stroke-width:0.5;" x1="434.5" x2="734.5" y1="484.5625" y2="484.5625"/></g><!--class LogMessage--><g id="elem_LogMessage"><rect codeLine="30" fill="#F1F1F1" height="80.5938" id="LogMessage" rx="2.5" ry="2.5" style="stroke:#181818;stroke-width:0.5;" width="165" x="771" y="330.5"/><ellipse cx="806.25" cy="346.5" fill="#ADD1B2" rx="11" ry="11" style="stroke:#181818;stroke-width:1.0;"/><path d="M809.2344,352.1406 Q808.6563,352.4375 808.0156,352.5781 Q807.375,352.7344 806.6719,352.7344 Q804.1563,352.7344 802.8281,351.0938 Q801.5156,349.4375 801.5156,346.3125 Q801.5156,343.1719 802.8281,341.5313 Q804.1563,339.875 806.6719,339.875 Q807.375,339.875 808.0156,340.0313 Q808.6719,340.1719 809.2344,340.4688 L809.2344,343.1875 Q808.5938,342.6094 808,342.3438 Q807.4063,342.0781 806.7813,342.0781 Q805.4375,342.0781 804.75,343.1406 Q804.0625,344.2031 804.0625,346.3125 Q804.0625,348.4063 804.75,349.4844 Q805.4375,350.5469 806.7813,350.5469 Q807.4063,350.5469 808,350.2813 Q808.5938,350 809.2344,349.4219 L809.2344,352.1406 Z " fill="#000000"/><text fill="#000000" font-family="sans-serif" font-size="14" lengthAdjust="spacing" textLength="88" x="824.75" y="351.3467">LogMessage</text><line style="stroke:#181818;stroke-width:0.5;" x1="772" x2="935" y1="362.5" y2="362.5"/><text fill="#000000" font-family="sans-serif" font-size="14" lengthAdjust="spacing" textLength="153" x="777" y="379.4951">timestamp : datetime</text><text fill="#000000" font-family="sans-serif" font-size="14" lengthAdjust="spacing" textLength="117" x="777" y="395.792">message : string</text><line style="stroke:#181818;stroke-width:0.5;" x1="772" x2="935" y1="403.0938" y2="403.0938"/></g><!--class Scan--><g id="elem_Scan"><rect codeLine="35" fill="#F1F1F1" height="80.5938" id="Scan" rx="2.5" ry="2.5" style="stroke:#181818;stroke-width:0.5;" width="128" x="169.5" y="330.5"/><ellipse cx="211.95" cy="346.5" fill="#ADD1B2" rx="11" ry="11" style="stroke:#181818;stroke-width:1.0;"/><path d="M214.9344,352.1406 Q214.3563,352.4375 213.7156,352.5781 Q213.075,352.7344 212.3719,352.7344 Q209.8563,352.7344 208.5281,351.0938 Q207.2156,349.4375 207.2156,346.3125 Q207.2156,343.1719 208.5281,341.5313 Q209.8563,339.875 212.3719,339.875 Q213.075,339.875 213.7156,340.0313 Q214.3719,340.1719 214.9344,340.4688 L214.9344,343.1875 Q214.2938,342.6094 213.7,342.3438 Q213.1063,342.0781 212.4813,342.0781 Q211.1375,342.0781 210.45,343.1406 Q209.7625,344.2031 209.7625,346.3125 Q209.7625,348.4063 210.45,349.4844 Q211.1375,350.5469 212.4813,350.5469 Q213.1063,350.5469 213.7,350.2813 Q214.2938,350 214.9344,349.4219 L214.9344,352.1406 Z " fill="#000000"/><text fill="#000000" font-family="sans-serif" font-size="14" lengthAdjust="spacing" textLength="35" x="232.05" y="351.3467">Scan</text><line style="stroke:#181818;stroke-width:0.5;" x1="170.5" x2="296.5" y1="362.5" y2="362.5"/><text fill="#000000" font-family="sans-serif" font-size="14" lengthAdjust="spacing" textLength="100" x="175.5" y="379.4951">author : string</text><text fill="#000000" font-family="sans-serif" font-size="14" lengthAdjust="spacing" textLength="116" x="175.5" y="395.792">filename : string</text><line style="stroke:#181818;stroke-width:0.5;" x1="170.5" x2="296.5" y1="403.0938" y2="403.0938"/></g><g id="elem_GMN15"><path d="M6,88 L6,128.2656 A0,0 0 0 0 6,128.2656 L143,128.2656 A0,0 0 0 0 143,128.2656 L143,112 L199.96,108 L143,104 L143,98 L133,88 L6,88 A0,0 0 0 0 6,88 " fill="#FEFFDD" style="stroke:#181818;stroke-width:0.5;"/><path d="M133,88 L133,98 L143,98 L133,88 " fill="#FEFFDD" style="stroke:#181818;stroke-width:0.5;"/><text fill="#000000" font-family="sans-serif" font-size="13" lengthAdjust="spacing" textLength="111" x="12" y="105.0669">See diagrams for</text><text fill="#000000" font-family="sans-serif" font-size="13" lengthAdjust="spacing" textLength="116" x="12" y="120.1997">scan subpackage.</text></g><!--reverse link File to Data--><g id="link_File_Data"><path codeLine="12" d="M449.9933,198.4478 C435.0533,217.3678 427.61,228.58 415.5,249 C396.48,281.06 381.31,321.7 372.86,346.77 " fill="none" id="File-backto-Data" style="stroke:#181818;stroke-width:1.0;"/><polygon fill="#181818" points="457.43,189.03,450.5724,191.26,449.9933,198.4478,456.8509,196.2178,457.43,189.03" style="stroke:#181818;stroke-width:1.0;"/><text fill="#000000" font-family="sans-serif" font-size="13" lengthAdjust="spacing" textLength="8" x="365.679" y="336.1189">n</text></g><!--reverse link Scan to Scan--><g id="link_Scan_Scan"><path d="M233.5,150.16 C233.5,194.7 233.5,274.76 233.5,330.05 " fill="none" id="Scan-backto-Scan" style="stroke:#181818;stroke-width:1.0;"/><polygon fill="none" points="233.5,132.16,227.5,150.16,239.5,150.16,233.5,132.16" style="stroke:#181818;stroke-width:1.0;"/></g><!--reverse link File to Metadata--><g id="link_File_Metadata"><path codeLine="41" d="M548.1969,200.8131 C552.2469,219.6931 554.14,228.51 558.49,248.75 " fill="none" id="File-backto-Metadata" style="stroke:#181818;stroke-width:1.0;"/><polygon fill="#181818" points="545.68,189.08,543.0274,195.7855,548.1969,200.8131,550.8495,194.1076,545.68,189.08" style="stroke:#181818;stroke-width:1.0;"/></g><!--reverse link File to LogMessage--><g id="link_File_LogMessage"><path codeLine="42" d="M681.2478,194.5445 C709.7278,212.9545 728.47,227.12 753.5,249 C781.1,273.12 807.3,305.3 825.95,330.41 " fill="none" id="File-backto-LogMessage" style="stroke:#181818;stroke-width:1.0;"/><polygon fill="#181818" points="671.17,188.03,674.0374,194.6465,681.2478,194.5445,678.3804,187.928,671.17,188.03" style="stroke:#181818;stroke-width:1.0;"/><text fill="#000000" font-family="sans-serif" font-size="13" lengthAdjust="spacing" textLength="8" x="677.4703" y="209.1262">1</text><text fill="#000000" font-family="sans-serif" font-size="13" lengthAdjust="spacing" textLength="8" x="812.7245" y="319.5566">n</text></g><!--reverse link File to Scan--><g id="link_File_Scan"><path codeLine="43" d="M378.3145,195.9217 C352.3645,213.8917 336.43,227.3 314.5,249 C290.33,272.91 269.2,305.1 254.59,330.27 " fill="none" id="File-backto-Scan" style="stroke:#181818;stroke-width:1.0;"/><polygon fill="#181818" points="388.18,189.09,380.97,189.2174,378.3145,195.9217,385.5245,195.7943,388.18,189.09" style="stroke:#181818;stroke-width:1.0;"/></g><!--SRC=[TLEnReGm3DtvYeYnqY5rwDAvwjHExTPMo80FeYOnYitffEh-lIR0NJckB27lERPV_58xO3RFrg7voOn-7WKQ432FvdN-JRYZjlJ832soSY_KlawxZw_4Smr1yJTTqdxEyQJB4X6Wvuw4rx2dO8NY5TeJMx4KIh5QLS3tOy3xiXaZirEMfSRlTZkJXpmTpm89cef4o6itYAQnq4RmPa_nCwIkF3M3moBBwYH-aJdftsl601wr6akqeKqe7h1xA0yOMNlQKBU9etSBiS8z0WyHFGOfLOni3YeOHI5j2aVvKvdGN4CDSXrjVoE1zODR4bT43kUXz17t62Cs9HmjhmzTkBg34D3zHmUA7fpbL60RV5hkzMAHsLhdKLuBcNrr8yTe9uD7KVMSB5PKDEWKeqKk4ZcbXa4wYkkEjvCyJUvmk9ULDtWoHx8m3rKFzRUsK_onr_af92I_py-ckwYyHAT7y0i0]--></g></svg>