<?xml version="1.0" encoding="us-ascii" standalone="no"?><svg xmlns="http://www.w3.org/2000/svg" xmlns:xlink="http://www.w3.org/1999/xlink" contentStyleType="text/css" height="529px" preserveAspectRatio="none" style="width:782px;height:529px;background:#FFFFFF;" version="1.1" viewBox="0 0 782 529" width="782px" zoomAndPan="magnify"><defs/><g><!--class EveFile--><g id="elem_EveFile"><rect codeLine="2" fill="#F1F1F1" height="129.4844" id="EveFile" rx="2.5" ry="2.5" style="stroke:#181818;stroke-width:0.5;" width="212" x="346" y="7"/><ellipse cx="422.25" cy="23" fill="#ADD1B2" rx="11" ry="11" style="stroke:#181818;stroke-width:1.0;"/><path d="M425.2344,28.6406 Q424.6563,28.9375 424.0156,29.0781 Q423.375,29.2344 422.6719,29.2344 Q420.1563,29.2344 418.8281,27.5938 Q417.5156,25.9375 417.5156,22.8125 Q417.5156,19.6719 418.8281,18.0313 Q420.1563,16.375 422.6719,16.375 Q423.375,16.375 424.0156,16.5313 Q424.6719,16.6719 425.2344,16.9688 L425.2344,19.6875 Q424.5938,19.1094 424,18.8438 Q423.4063,18.5781 422.7813,18.5781 Q421.4375,18.5781 420.75,19.6406 Q420.0625,20.7031 420.0625,22.8125 Q420.0625,24.9063 420.75,25.9844 Q421.4375,27.0469 422.7813,27.0469 Q423.4063,27.0469 424,26.7813 Q424.5938,26.5 425.2344,25.9219 L425.2344,28.6406 Z " fill="#000000"/><text fill="#000000" font-family="sans-serif" font-size="14" lengthAdjust="spacing" textLength="51" x="442.75" y="27.8467">EveFile</text><line style="stroke:#181818;stroke-width:0.5;" x1="347" x2="557" y1="39" y2="39"/><text fill="#000000" font-family="sans-serif" font-size="14" lengthAdjust="spacing" textLength="200" x="352" y="55.9951">metadata : EveFileMetadata</text><text fill="#000000" font-family="sans-serif" font-size="14" lengthAdjust="spacing" textLength="168" x="352" y="72.292">comments : Comment[]</text><text fill="#000000" font-family="sans-serif" font-size="14" lengthAdjust="spacing" textLength="85" x="352" y="88.5889">scml : SCML</text><text fill="#000000" font-family="sans-serif" font-size="14" lengthAdjust="spacing" textLength="115" x="352" y="104.8857">data : EveData[]</text><text fill="#000000" font-family="sans-serif" font-size="14" lengthAdjust="spacing" textLength="154" x="352" y="121.1826">snapshots : EveData[]</text><line style="stroke:#181818;stroke-width:0.5;" x1="347" x2="557" y1="128.4844" y2="128.4844"/></g><path d="M83.5,8.5 L83.5,124.4297 A0,0 0 0 0 83.5,124.4297 L310.5,124.4297 A0,0 0 0 0 310.5,124.4297 L310.5,70.4648 L350,116.3359 L310.5,62.4648 L310.5,18.5 L300.5,8.5 L83.5,8.5 A0,0 0 0 0 83.5,8.5 " fill="#FEFFDD" style="stroke:#181818;stroke-width:0.5;"/><path d="M300.5,8.5 L300.5,18.5 L310.5,18.5 L300.5,8.5 " fill="#FEFFDD" style="stroke:#181818;stroke-width:0.5;"/><text fill="#000000" font-family="sans-serif" font-size="13" lengthAdjust="spacing" textLength="183" x="89.5" y="25.5669">Snapshot datasets can have</text><text fill="#000000" font-family="sans-serif" font-size="13" lengthAdjust="spacing" textLength="206" x="89.5" y="40.6997">identical names/IDs to datasets</text><text fill="#000000" font-family="sans-serif" font-size="13" lengthAdjust="spacing" textLength="153" x="89.5" y="55.8325">in the standard section.</text><text fill="#000000" font-family="sans-serif" font-size="13" lengthAdjust="spacing" textLength="172" x="89.5" y="70.9653">This makes a separate list</text><text fill="#000000" font-family="sans-serif" font-size="13" lengthAdjust="spacing" textLength="145" x="89.5" y="86.0981">probably unavoidable.</text><text fill="#000000" font-family="sans-serif" font-size="13" lengthAdjust="spacing" textLength="8" x="89.5" y="101.231">&#160;</text><text fill="#000000" font-family="sans-serif" font-size="13" lengthAdjust="spacing" textLength="179" x="89.5" y="116.3638">How to deal with monitors?</text><!--class EveData--><g id="elem_EveData"><rect fill="#F1F1F1" height="48" id="EveData" rx="2.5" ry="2.5" style="stroke:#181818;stroke-width:0.5;" width="92" x="642" y="47.5"/><ellipse cx="657" cy="63.5" fill="#ADD1B2" rx="11" ry="11" style="stroke:#181818;stroke-width:1.0;"/><path d="M659.9844,69.1406 Q659.4063,69.4375 658.7656,69.5781 Q658.125,69.7344 657.4219,69.7344 Q654.9063,69.7344 653.5781,68.0938 Q652.2656,66.4375 652.2656,63.3125 Q652.2656,60.1719 653.5781,58.5313 Q654.9063,56.875 657.4219,56.875 Q658.125,56.875 658.7656,57.0313 Q659.4219,57.1719 659.9844,57.4688 L659.9844,60.1875 Q659.3438,59.6094 658.75,59.3438 Q658.1563,59.0781 657.5313,59.0781 Q656.1875,59.0781 655.5,60.1406 Q654.8125,61.2031 654.8125,63.3125 Q654.8125,65.4063 655.5,66.4844 Q656.1875,67.5469 657.5313,67.5469 Q658.1563,67.5469 658.75,67.2813 Q659.3438,67 659.9844,66.4219 L659.9844,69.1406 Z " fill="#000000"/><text fill="#000000" font-family="sans-serif" font-size="14" lengthAdjust="spacing" textLength="60" x="671" y="68.3467">EveData</text><line style="stroke:#181818;stroke-width:0.5;" x1="643" x2="733" y1="79.5" y2="79.5"/><line style="stroke:#181818;stroke-width:0.5;" x1="643" x2="733" y1="87.5" y2="87.5"/></g><g id="elem_GMN7"><path d="M650.5,281.5 L650.5,321.7656 A0,0 0 0 0 650.5,321.7656 L775.5,321.7656 A0,0 0 0 0 775.5,321.7656 L775.5,291.5 L765.5,281.5 L714.89,281.5 L690.53,95.62 L706.89,281.5 L650.5,281.5 A0,0 0 0 0 650.5,281.5 " fill="#FEFFDD" style="stroke:#181818;stroke-width:0.5;"/><path d="M765.5,281.5 L765.5,291.5 L775.5,291.5 L765.5,281.5 " fill="#FEFFDD" style="stroke:#181818;stroke-width:0.5;"/><text fill="#000000" font-family="sans-serif" font-size="13" lengthAdjust="spacing" textLength="104" x="656.5" y="298.5669">See diagram for</text><text fill="#000000" font-family="sans-serif" font-size="13" lengthAdjust="spacing" textLength="86" x="656.5" y="313.6997">data module.</text></g><!--class EveFileMetadata--><g id="elem_EveFileMetadata"><rect codeLine="22" fill="#F1F1F1" height="210.9688" id="EveFileMetadata" rx="2.5" ry="2.5" style="stroke:#181818;stroke-width:0.5;" width="302" x="7" y="196"/><ellipse cx="94.75" cy="212" fill="#ADD1B2" rx="11" ry="11" style="stroke:#181818;stroke-width:1.0;"/><path d="M97.7344,217.6406 Q97.1563,217.9375 96.5156,218.0781 Q95.875,218.2344 95.1719,218.2344 Q92.6563,218.2344 91.3281,216.5938 Q90.0156,214.9375 90.0156,211.8125 Q90.0156,208.6719 91.3281,207.0313 Q92.6563,205.375 95.1719,205.375 Q95.875,205.375 96.5156,205.5313 Q97.1719,205.6719 97.7344,205.9688 L97.7344,208.6875 Q97.0938,208.1094 96.5,207.8438 Q95.9063,207.5781 95.2813,207.5781 Q93.9375,207.5781 93.25,208.6406 Q92.5625,209.7031 92.5625,211.8125 Q92.5625,213.9063 93.25,214.9844 Q93.9375,216.0469 95.2813,216.0469 Q95.9063,216.0469 96.5,215.7813 Q97.0938,215.5 97.7344,214.9219 L97.7344,217.6406 Z " fill="#000000"/><text fill="#000000" font-family="sans-serif" font-size="14" lengthAdjust="spacing" textLength="118" x="115.25" y="216.8467">EveFileMetadata</text><line style="stroke:#181818;stroke-width:0.5;" x1="8" x2="308" y1="228" y2="228"/><text fill="#000000" font-family="sans-serif" font-size="14" lengthAdjust="spacing" textLength="116" x="13" y="244.9951">filename : string</text><text fill="#000000" font-family="sans-serif" font-size="14" lengthAdjust="spacing" textLength="130" x="13" y="261.292">h5_version : string</text><text fill="#000000" font-family="sans-serif" font-size="14" lengthAdjust="spacing" textLength="138" x="13" y="277.5889">eve_version : string</text><text fill="#000000" font-family="sans-serif" font-size="14" lengthAdjust="spacing" textLength="134" x="13" y="293.8857">xml_version: string</text><text fill="#000000" font-family="sans-serif" font-size="14" lengthAdjust="spacing" textLength="110" x="13" y="310.1826">location : string</text><text fill="#000000" font-family="sans-serif" font-size="14" lengthAdjust="spacing" textLength="109" x="13" y="326.4795">start : datetime</text><text fill="#000000" font-family="sans-serif" font-size="14" lengthAdjust="spacing" textLength="104" x="13" y="342.7764">end : datetime</text><text fill="#000000" font-family="sans-serif" font-size="14" lengthAdjust="spacing" textLength="156" x="13" y="359.0732">preferred_axis : string</text><text fill="#000000" font-family="sans-serif" font-size="14" lengthAdjust="spacing" textLength="185" x="13" y="375.3701">preferred_channel : string</text><text fill="#000000" font-family="sans-serif" font-size="14" lengthAdjust="spacing" textLength="290" x="13" y="391.667">preferred_normalisation_channel : string</text><line style="stroke:#181818;stroke-width:0.5;" x1="8" x2="308" y1="398.9688" y2="398.9688"/></g><!--class Comment--><g id="elem_Comment"><rect codeLine="35" fill="#F1F1F1" height="80.5938" id="Comment" rx="2.5" ry="2.5" style="stroke:#181818;stroke-width:0.5;" width="165" x="344.5" y="261"/><ellipse cx="387.85" cy="277" fill="#ADD1B2" rx="11" ry="11" style="stroke:#181818;stroke-width:1.0;"/><path d="M390.8344,282.6406 Q390.2563,282.9375 389.6156,283.0781 Q388.975,283.2344 388.2719,283.2344 Q385.7563,283.2344 384.4281,281.5938 Q383.1156,279.9375 383.1156,276.8125 Q383.1156,273.6719 384.4281,272.0313 Q385.7563,270.375 388.2719,270.375 Q388.975,270.375 389.6156,270.5313 Q390.2719,270.6719 390.8344,270.9688 L390.8344,273.6875 Q390.1938,273.1094 389.6,272.8438 Q389.0063,272.5781 388.3813,272.5781 Q387.0375,272.5781 386.35,273.6406 Q385.6625,274.7031 385.6625,276.8125 Q385.6625,278.9063 386.35,279.9844 Q387.0375,281.0469 388.3813,281.0469 Q389.0063,281.0469 389.6,280.7813 Q390.1938,280.5 390.8344,279.9219 L390.8344,282.6406 Z " fill="#000000"/><text fill="#000000" font-family="sans-serif" font-size="14" lengthAdjust="spacing" textLength="70" x="408.15" y="281.8467">Comment</text><line style="stroke:#181818;stroke-width:0.5;" x1="345.5" x2="508.5" y1="293" y2="293"/><text fill="#000000" font-family="sans-serif" font-size="14" lengthAdjust="spacing" textLength="153" x="350.5" y="309.9951">timestamp : datetime</text><text fill="#000000" font-family="sans-serif" font-size="14" lengthAdjust="spacing" textLength="121" x="350.5" y="326.292">comment : string</text><line style="stroke:#181818;stroke-width:0.5;" x1="345.5" x2="508.5" y1="333.5938" y2="333.5938"/></g><g id="elem_GMN12"><path d="M267.5,467 L267.5,522.3984 A0,0 0 0 0 267.5,522.3984 L512.5,522.3984 A0,0 0 0 0 512.5,522.3984 L512.5,477 L502.5,467 L399.16,467 L419.33,342.08 L391.16,467 L267.5,467 A0,0 0 0 0 267.5,467 " fill="#FEFFDD" style="stroke:#181818;stroke-width:0.5;"/><path d="M502.5,467 L502.5,477 L512.5,477 L502.5,467 " fill="#FEFFDD" style="stroke:#181818;stroke-width:0.5;"/><text fill="#000000" font-family="sans-serif" font-size="13" lengthAdjust="spacing" textLength="224" x="273.5" y="484.0669">Comments are both, file comment</text><text fill="#000000" font-family="sans-serif" font-size="13" lengthAdjust="spacing" textLength="221" x="273.5" y="499.1997">and log messages. Discriminating</text><text fill="#000000" font-family="sans-serif" font-size="13" lengthAdjust="spacing" textLength="224" x="273.5" y="514.3325">could be done in the EveFile class.</text></g><!--class SCML--><g id="elem_SCML"><rect codeLine="41" fill="#F1F1F1" height="48" id="SCML" rx="2.5" ry="2.5" style="stroke:#181818;stroke-width:0.5;" width="71" x="544.5" y="277.5"/><ellipse cx="559.5" cy="293.5" fill="#ADD1B2" rx="11" ry="11" style="stroke:#181818;stroke-width:1.0;"/><path d="M562.4844,299.1406 Q561.9063,299.4375 561.2656,299.5781 Q560.625,299.7344 559.9219,299.7344 Q557.4063,299.7344 556.0781,298.0938 Q554.7656,296.4375 554.7656,293.3125 Q554.7656,290.1719 556.0781,288.5313 Q557.4063,286.875 559.9219,286.875 Q560.625,286.875 561.2656,287.0313 Q561.9219,287.1719 562.4844,287.4688 L562.4844,290.1875 Q561.8438,289.6094 561.25,289.3438 Q560.6563,289.0781 560.0313,289.0781 Q558.6875,289.0781 558,290.1406 Q557.3125,291.2031 557.3125,293.3125 Q557.3125,295.4063 558,296.4844 Q558.6875,297.5469 560.0313,297.5469 Q560.6563,297.5469 561.25,297.2813 Q561.8438,297 562.4844,296.4219 L562.4844,299.1406 Z " fill="#000000"/><text fill="#000000" font-family="sans-serif" font-size="14" lengthAdjust="spacing" textLength="39" x="573.5" y="298.3467">SCML</text><line style="stroke:#181818;stroke-width:0.5;" x1="545.5" x2="614.5" y1="309.5" y2="309.5"/><line style="stroke:#181818;stroke-width:0.5;" x1="545.5" x2="614.5" y1="317.5" y2="317.5"/></g><g id="elem_GMN16"><path d="M548,474.5 L548,514.7656 A0,0 0 0 0 548,514.7656 L686,514.7656 A0,0 0 0 0 686,514.7656 L686,484.5 L676,474.5 L617.3,474.5 L584.46,325.54 L609.3,474.5 L548,474.5 A0,0 0 0 0 548,474.5 " fill="#FEFFDD" style="stroke:#181818;stroke-width:0.5;"/><path d="M676,474.5 L676,484.5 L686,484.5 L676,474.5 " fill="#FEFFDD" style="stroke:#181818;stroke-width:0.5;"/><text fill="#000000" font-family="sans-serif" font-size="13" lengthAdjust="spacing" textLength="111" x="554" y="491.5669">See diagrams for</text><text fill="#000000" font-family="sans-serif" font-size="13" lengthAdjust="spacing" textLength="117" x="554" y="506.6997">scml subpackage.</text></g><!--reverse link EveFile to EveData--><g id="link_EveFile_EveData"><path codeLine="19" d="M570.02,71.5 C597.94,71.5 613.87,71.5 641.79,71.5 " fill="none" id="EveFile-backto-EveData" style="stroke:#181818;stroke-width:1.0;"/><polygon fill="#181818" points="558.02,71.5,564.02,75.5,570.02,71.5,564.02,67.5,558.02,71.5" style="stroke:#181818;stroke-width:1.0;"/><text fill="#000000" font-family="sans-serif" font-size="13" lengthAdjust="spacing" textLength="8" x="626.1016" y="67.4286">n</text></g><!--reverse link EveFile to EveFileMetadata--><g id="link_EveFile_EveFileMetadata"><path codeLine="45" d="M360.6186,143.3655 C336.6686,161.9455 319.3,175.41 292.97,195.83 " fill="none" id="EveFile-backto-EveFileMetadata" style="stroke:#181818;stroke-width:1.0;"/><polygon fill="#181818" points="370.1,136.01,362.9075,136.5273,360.6186,143.3655,367.8111,142.8482,370.1,136.01" style="stroke:#181818;stroke-width:1.0;"/></g><!--reverse link EveFile to Comment--><g id="link_EveFile_Comment"><path codeLine="46" d="M443.7299,147.9383 C439.3299,187.9983 435.11,226.55 431.34,260.95 " fill="none" id="EveFile-backto-Comment" style="stroke:#181818;stroke-width:1.0;"/><polygon fill="#181818" points="445.04,136.01,440.4088,141.5374,443.7299,147.9383,448.361,142.4108,445.04,136.01" style="stroke:#181818;stroke-width:1.0;"/><text fill="#000000" font-family="sans-serif" font-size="13" lengthAdjust="spacing" textLength="8" x="435.7728" y="156.3827">1</text><text fill="#000000" font-family="sans-serif" font-size="13" lengthAdjust="spacing" textLength="8" x="423.3984" y="249.8046">n</text></g><!--reverse link EveFile to SCML--><g id="link_EveFile_SCML"><path codeLine="47" d="M498.1109,146.2994 C509.7409,165.3994 516.03,176.27 527,196 C542.33,223.56 558.52,256.05 568.92,277.4 " fill="none" id="EveFile-backto-SCML" style="stroke:#181818;stroke-width:1.0;"/><polygon fill="#181818" points="491.87,136.05,491.574,143.255,498.1109,146.2994,498.4069,139.0944,491.87,136.05" style="stroke:#181818;stroke-width:1.0;"/></g><!--SRC=[TLCzRzj03DtrAmYFHUEYGnSl7UmM3P1CwLON0NMYhKDqFE5uLb8K_k-bA5rinusc4ny_7ib7rw48V1lek-y8_bQWNw2C3MQ4LG7kPul1BeP0d4NXzVJyzTi0SQ5JuyFw_ix-Jpas-YfEZBsqqS9FoB7Yc0awscM8kr9sjNhrjjY7-Syo2saEXmmj3cImRvIBTzW1Oo3vTBiHoF7LUV9Xo2s1PEG6KmD2Bll8ImD_jbuWu1C9e28z9Xn9USa6zodMM7T_uC0uHD_ecvQLGJ_YivKYBVxiSmiXiiynoTUAk86nkQegK_vm0mjUbEwdpkkOSmmwF29eFEuJ1jZ5j6KROeZDmMgvytMLhKnRswbbx5ldAZbvtfkr_V8uK19jyT9E0_qVU0bT0IxiNNIOhxnrZYchIMbGzc7QmzZn6rEVQ4SfKVE8BrukSvmmro8pTU_175D0tORnk7O-bl7CgfpLF79Gcg5_osdMyNc2YrMiYyuncR7zQ3CkSLjM2UbOzdel8hWdMSB6Yqi-U5QAlD-oYuUkWLfN6fcAzeeCZEmI2klnR9JoyLqzo2G8kp8vr3sw9wswFDVLpTN15cpnUM7uABoviOiuEzf_]--></g></svg>