<?xml version="1.0" encoding="us-ascii" standalone="no"?><svg xmlns="http://www.w3.org/2000/svg" xmlns:xlink="http://www.w3.org/1999/xlink" contentStyleType="text/css" height="499px" preserveAspectRatio="none" style="width:393px;height:499px;background:#FFFFFF;" version="1.1" viewBox="0 0 393 499" width="393px" zoomAndPan="magnify"><defs/><g><!--cluster evefile--><g id="cluster_evefile"><path d="M87,6 L132,6 A3.75,3.75 0 0 1 134.5,8.5 L141.5,28.4063 L302,28.4063 A2.5,2.5 0 0 1 304.5,30.9063 L304.5,236.5 A2.5,2.5 0 0 1 302,239 L87,239 A2.5,2.5 0 0 1 84.5,236.5 L84.5,8.5 A2.5,2.5 0 0 1 87,6 " fill="none" style="stroke:#000000;stroke-width:1.5;"/><line style="stroke:#000000;stroke-width:1.5;" x1="84.5" x2="141.5" y1="28.4063" y2="28.4063"/><text fill="#000000" font-family="sans-serif" font-size="14" font-weight="bold" lengthAdjust="spacing" textLength="44" x="88.5" y="20.9883">evefile</text></g><!--cluster entitites--><g id="cluster_entitites"><path d="M111,49 L166,49 A3.75,3.75 0 0 1 168.5,51.5 L175.5,71.4063 L278,71.4063 A2.5,2.5 0 0 1 280.5,73.9063 L280.5,212.5 A2.5,2.5 0 0 1 278,215 L111,215 A2.5,2.5 0 0 1 108.5,212.5 L108.5,51.5 A2.5,2.5 0 0 1 111,49 " fill="none" style="stroke:#000000;stroke-width:1.5;"/><line style="stroke:#000000;stroke-width:1.5;" x1="108.5" x2="175.5" y1="71.4063" y2="71.4063"/><text fill="#000000" font-family="sans-serif" font-size="14" font-weight="bold" lengthAdjust="spacing" textLength="54" x="112.5" y="63.9883">entitites</text></g><!--cluster file--><g id="cluster_file"><path d="M135,92 L157,92 A3.75,3.75 0 0 1 159.5,94.5 L166.5,114.4063 L254,114.4063 A2.5,2.5 0 0 1 256.5,116.9063 L256.5,188.5 A2.5,2.5 0 0 1 254,191 L135,191 A2.5,2.5 0 0 1 132.5,188.5 L132.5,94.5 A2.5,2.5 0 0 1 135,92 " fill="none" style="stroke:#000000;stroke-width:1.5;"/><line style="stroke:#000000;stroke-width:1.5;" x1="132.5" x2="166.5" y1="114.4063" y2="114.4063"/><text fill="#000000" font-family="sans-serif" font-size="14" font-weight="bold" lengthAdjust="spacing" textLength="21" x="136.5" y="106.9883">file</text></g><!--class Metadata--><g id="elem_Metadata"><rect fill="#F1F1F1" height="48" id="Metadata" rx="2.5" ry="2.5" style="stroke:#181818;stroke-width:0.5;" width="93" x="148" y="127"/><ellipse cx="163" cy="143" fill="#ADD1B2" rx="11" ry="11" style="stroke:#181818;stroke-width:1.0;"/><path d="M163.0469,149.2031 C164.5469,149.2031 165.7813,148.6406 166.6875,147.5781 L165.3125,146.0625 C164.7656,146.6563 164.1094,147.0469 163.3125,147.0469 C161.6406,147.0469 160.4844,145.7188 160.4844,143.4375 C160.4844,141.2188 161.6406,139.875 163.2031,139.875 C164.0156,139.875 164.6094,140.1875 165.1406,140.6719 L166.5156,139.125 C165.7656,138.3906 164.6094,137.7188 163.2031,137.7188 C160.25,137.7188 157.9219,139.8594 157.9219,143.5313 C157.9219,147.25 160.2969,149.2031 163.0469,149.2031 Z " fill="#000000"/><text fill="#000000" font-family="sans-serif" font-size="14" lengthAdjust="spacing" textLength="61" x="177" y="147.7852">Metadata</text><line style="stroke:#181818;stroke-width:0.5;" x1="149" x2="240" y1="159" y2="159"/><line style="stroke:#181818;stroke-width:0.5;" x1="149" x2="240" y1="167" y2="167"/></g><!--class Metadata--><g id="elem_Metadata"><rect codeLine="3" fill="#F1F1F1" height="97.2188" id="Metadata" rx="2.5" ry="2.5" style="stroke:#181818;stroke-width:0.5;" width="134" x="127.5" y="255"/><ellipse cx="160.95" cy="271" fill="#ADD1B2" rx="11" ry="11" style="stroke:#181818;stroke-width:1.0;"/><path d="M160.9969,277.2031 C162.4969,277.2031 163.7313,276.6406 164.6375,275.5781 L163.2625,274.0625 C162.7156,274.6563 162.0594,275.0469 161.2625,275.0469 C159.5906,275.0469 158.4344,273.7188 158.4344,271.4375 C158.4344,269.2188 159.5906,267.875 161.1531,267.875 C161.9656,267.875 162.5594,268.1875 163.0906,268.6719 L164.4656,267.125 C163.7156,266.3906 162.5594,265.7188 161.1531,265.7188 C158.2,265.7188 155.8719,267.8594 155.8719,271.5313 C155.8719,275.25 158.2469,277.2031 160.9969,277.2031 Z " fill="#000000"/><text fill="#000000" font-family="sans-serif" font-size="14" lengthAdjust="spacing" textLength="61" x="179.05" y="275.7852">Metadata</text><line style="stroke:#181818;stroke-width:0.5;" x1="128.5" x2="260.5" y1="287" y2="287"/><text fill="#000000" font-family="sans-serif" font-size="14" lengthAdjust="spacing" textLength="108" x="133.5" y="303.9883">sample[] : Sample</text><text fill="#000000" font-family="sans-serif" font-size="14" lengthAdjust="spacing" textLength="115" x="133.5" y="320.3945">machine : Machine</text><text fill="#000000" font-family="sans-serif" font-size="14" lengthAdjust="spacing" textLength="122" x="133.5" y="336.8008">beamline : Beamline</text><line style="stroke:#181818;stroke-width:0.5;" x1="128.5" x2="260.5" y1="344.2188" y2="344.2188"/></g><!--class Sample--><g id="elem_Sample"><rect codeLine="9" fill="#F1F1F1" height="80.8125" id="Sample" rx="2.5" ry="2.5" style="stroke:#181818;stroke-width:0.5;" width="78" x="155.5" y="412"/><ellipse cx="170.5" cy="428" fill="#ADD1B2" rx="11" ry="11" style="stroke:#181818;stroke-width:1.0;"/><path d="M170.5469,434.2031 C172.0469,434.2031 173.2813,433.6406 174.1875,432.5781 L172.8125,431.0625 C172.2656,431.6563 171.6094,432.0469 170.8125,432.0469 C169.1406,432.0469 167.9844,430.7188 167.9844,428.4375 C167.9844,426.2188 169.1406,424.875 170.7031,424.875 C171.5156,424.875 172.1094,425.1875 172.6406,425.6719 L174.0156,424.125 C173.2656,423.3906 172.1094,422.7188 170.7031,422.7188 C167.75,422.7188 165.4219,424.8594 165.4219,428.5313 C165.4219,432.25 167.7969,434.2031 170.5469,434.2031 Z " fill="#000000"/><text fill="#000000" font-family="sans-serif" font-size="14" lengthAdjust="spacing" textLength="46" x="184.5" y="432.7852">Sample</text><line style="stroke:#181818;stroke-width:0.5;" x1="156.5" x2="232.5" y1="444" y2="444"/><text fill="#000000" font-family="sans-serif" font-size="14" lengthAdjust="spacing" textLength="35" x="161.5" y="460.9883">name</text><text fill="#000000" font-family="sans-serif" font-size="14" lengthAdjust="spacing" textLength="11" x="161.5" y="477.3945">id</text><line style="stroke:#181818;stroke-width:0.5;" x1="156.5" x2="232.5" y1="484.8125" y2="484.8125"/></g><!--class Machine--><g id="elem_Machine"><rect codeLine="14" fill="#F1F1F1" height="48" id="Machine" rx="2.5" ry="2.5" style="stroke:#181818;stroke-width:0.5;" width="85" x="7" y="279.5"/><ellipse cx="22" cy="295.5" fill="#ADD1B2" rx="11" ry="11" style="stroke:#181818;stroke-width:1.0;"/><path d="M22.0469,301.7031 C23.5469,301.7031 24.7813,301.1406 25.6875,300.0781 L24.3125,298.5625 C23.7656,299.1563 23.1094,299.5469 22.3125,299.5469 C20.6406,299.5469 19.4844,298.2188 19.4844,295.9375 C19.4844,293.7188 20.6406,292.375 22.2031,292.375 C23.0156,292.375 23.6094,292.6875 24.1406,293.1719 L25.5156,291.625 C24.7656,290.8906 23.6094,290.2188 22.2031,290.2188 C19.25,290.2188 16.9219,292.3594 16.9219,296.0313 C16.9219,299.75 19.2969,301.7031 22.0469,301.7031 Z " fill="#000000"/><text fill="#000000" font-family="sans-serif" font-size="14" lengthAdjust="spacing" textLength="53" x="36" y="300.2852">Machine</text><line style="stroke:#181818;stroke-width:0.5;" x1="8" x2="91" y1="311.5" y2="311.5"/><line style="stroke:#181818;stroke-width:0.5;" x1="8" x2="91" y1="319.5" y2="319.5"/></g><!--class Beamline--><g id="elem_Beamline"><rect codeLine="17" fill="#F1F1F1" height="48" id="Beamline" rx="2.5" ry="2.5" style="stroke:#181818;stroke-width:0.5;" width="89" x="297" y="279.5"/><ellipse cx="312" cy="295.5" fill="#ADD1B2" rx="11" ry="11" style="stroke:#181818;stroke-width:1.0;"/><path d="M312.0469,301.7031 C313.5469,301.7031 314.7813,301.1406 315.6875,300.0781 L314.3125,298.5625 C313.7656,299.1563 313.1094,299.5469 312.3125,299.5469 C310.6406,299.5469 309.4844,298.2188 309.4844,295.9375 C309.4844,293.7188 310.6406,292.375 312.2031,292.375 C313.0156,292.375 313.6094,292.6875 314.1406,293.1719 L315.5156,291.625 C314.7656,290.8906 313.6094,290.2188 312.2031,290.2188 C309.25,290.2188 306.9219,292.3594 306.9219,296.0313 C306.9219,299.75 309.2969,301.7031 312.0469,301.7031 Z " fill="#000000"/><text fill="#000000" font-family="sans-serif" font-size="14" lengthAdjust="spacing" textLength="57" x="326" y="300.2852">Beamline</text><line style="stroke:#181818;stroke-width:0.5;" x1="298" x2="385" y1="311.5" y2="311.5"/><line style="stroke:#181818;stroke-width:0.5;" x1="298" x2="385" y1="319.5" y2="319.5"/></g><!--reverse link Metadata to Metadata--><g id="link_Metadata_Metadata"><path d="M194.5,193.19 C194.5,214.38 194.5,228.37 194.5,254.98 " fill="none" id="Metadata-backto-Metadata" style="stroke:#181818;stroke-width:1.0;"/><polygon fill="none" points="194.5,175.19,188.5,193.19,200.5,193.19,194.5,175.19" style="stroke:#181818;stroke-width:1.0;"/></g><!--reverse link Metadata to Beamline--><g id="link_Metadata_Beamline"><path codeLine="20" d="M273.68,303.5 C285.43,303.5 285.17,303.5 296.92,303.5 " fill="none" id="Metadata-backto-Beamline" style="stroke:#181818;stroke-width:1.0;"/><polygon fill="#181818" points="261.68,303.5,267.68,307.5,273.68,303.5,267.68,299.5,261.68,303.5" style="stroke:#181818;stroke-width:1.0;"/></g><!--reverse link Metadata to Sample--><g id="link_Metadata_Sample"><path codeLine="21" d="M194.5,364.23 C194.5,383.51 194.5,393.5 194.5,411.88 " fill="none" id="Metadata-backto-Sample" style="stroke:#181818;stroke-width:1.0;"/><polygon fill="#181818" points="194.5,352.23,190.5,358.23,194.5,364.23,198.5,358.23,194.5,352.23" style="stroke:#181818;stroke-width:1.0;"/><text fill="#000000" font-family="sans-serif" font-size="13" lengthAdjust="spacing" textLength="7" x="186.8984" y="400.7062">n</text></g><!--link Machine to Metadata--><g id="link_Machine_Metadata"><path codeLine="22" d="M92.26,303.5 C103.98,303.5 103.69,303.5 115.41,303.5 " fill="none" id="Machine-to-Metadata" style="stroke:#181818;stroke-width:1.0;"/><polygon fill="#181818" points="127.41,303.5,121.41,299.5,115.41,303.5,121.41,307.5,127.41,303.5" style="stroke:#181818;stroke-width:1.0;"/></g><!--SRC=[JO-n3i8m34JtV8NL1QbIshqZUoT6n60QGoF5eI8kGaByEr7If2JB-UbyjW-po1A6lbySUbdPTTE3-ybX2DfOl3-HbKebZ2HeK13eBUHD07hHpJhgo8kDdqANokhxA8Wl82-EpXSOu9HaeepJR3r5E6QLw9MGNSR7JQflcP-xjrIFd5kisHrRLBHKL68ogwkrUX_m1pKqlYbhbZJTrjFL3m00]--></g></svg>