<?xml version="1.0" encoding="us-ascii" standalone="no"?><svg xmlns="http://www.w3.org/2000/svg" xmlns:xlink="http://www.w3.org/1999/xlink" contentStyleType="text/css" height="510px" preserveAspectRatio="none" style="width:419px;height:510px;background:#FFFFFF;" version="1.1" viewBox="0 0 419 510" width="419.6px" zoomAndPan="magnify"><defs/><g><!--class Device--><g id="elem_Device"><rect codeLine="3" fill="#F1F1F1" height="45.45" id="Device" rx="1" ry="1" style="stroke:#181818;stroke-width:0.20000000000000004;" width="36.8" x="164.6" y="2.8"/><ellipse cx="174.2" cy="9.2" fill="#ADD1B2" rx="4.4" ry="4.4" style="stroke:#181818;stroke-width:0.4000000000000001;"/><path d="M174.2188,11.6813 C174.8188,11.6813 175.3125,11.4563 175.675,11.0313 L175.125,10.425 C174.9063,10.6625 174.6438,10.8188 174.325,10.8188 C173.6563,10.8188 173.1938,10.2875 173.1938,9.375 C173.1938,8.4875 173.6563,7.95 174.2813,7.95 C174.6063,7.95 174.8438,8.075 175.0563,8.2688 L175.6063,7.65 C175.3063,7.3563 174.8438,7.0875 174.2813,7.0875 C173.1,7.0875 172.1688,7.9438 172.1688,9.4125 C172.1688,10.9 173.1188,11.6813 174.2188,11.6813 Z " fill="#000000"/><text fill="#000000" font-family="sans-serif" font-size="5.6" lengthAdjust="spacing" textLength="16" x="180.6" y="11.1141">Device</text><line style="stroke:#181818;stroke-width:0.20000000000000004;" x1="165" x2="201" y1="15.6" y2="15.6"/><text fill="#000000" font-family="sans-serif" font-size="5.6" lengthAdjust="spacing" textLength="30.8" x="167" y="22.3953">class : string</text><text fill="#000000" font-family="sans-serif" font-size="5.6" lengthAdjust="spacing" textLength="32" x="167" y="28.9578">name : string</text><text fill="#000000" font-family="sans-serif" font-size="5.6" lengthAdjust="spacing" textLength="22.4" x="167" y="35.5203">id : string</text><text fill="#000000" font-family="sans-serif" font-size="5.6" lengthAdjust="spacing" textLength="23.2" x="167" y="42.0828">unit : Unit</text><line style="stroke:#181818;stroke-width:0.20000000000000004;" x1="165" x2="201" y1="45.05" y2="45.05"/></g><!--class Detector--><g id="elem_Detector"><rect codeLine="68" fill="#F1F1F1" height="52.0125" id="Detector" rx="1" ry="1" style="stroke:#181818;stroke-width:0.20000000000000004;" width="54.4" x="155.8" y="72.4"/><ellipse cx="170.98" cy="78.8" fill="#ADD1B2" rx="4.4" ry="4.4" style="stroke:#181818;stroke-width:0.4000000000000001;"/><path d="M170.9988,81.2813 C171.5988,81.2813 172.0925,81.0563 172.455,80.6313 L171.905,80.025 C171.6863,80.2625 171.4238,80.4188 171.105,80.4188 C170.4363,80.4188 169.9738,79.8875 169.9738,78.975 C169.9738,78.0875 170.4363,77.55 171.0613,77.55 C171.3863,77.55 171.6238,77.675 171.8363,77.8688 L172.3863,77.25 C172.0863,76.9563 171.6238,76.6875 171.0613,76.6875 C169.88,76.6875 168.9488,77.5438 168.9488,79.0125 C168.9488,80.5 169.8988,81.2813 170.9988,81.2813 Z " fill="#000000"/><text fill="#000000" font-family="sans-serif" font-size="5.6" lengthAdjust="spacing" textLength="21.2" x="178.62" y="80.7141">Detector</text><line style="stroke:#181818;stroke-width:0.20000000000000004;" x1="156.2" x2="209.8" y1="85.2" y2="85.2"/><text fill="#000000" font-family="sans-serif" font-size="5.6" lengthAdjust="spacing" textLength="37.6" x="158.2" y="91.9953">trigger : Access</text><text fill="#000000" font-family="sans-serif" font-size="5.6" lengthAdjust="spacing" textLength="32.4" x="158.2" y="98.5578">stop : Access</text><text fill="#000000" font-family="sans-serif" font-size="5.6" lengthAdjust="spacing" textLength="37.2" x="158.2" y="105.1203">status : Access</text><text fill="#000000" font-family="sans-serif" font-size="5.6" lengthAdjust="spacing" textLength="49.6" x="158.2" y="111.6828">channels : Channel[]</text><text fill="#000000" font-family="sans-serif" font-size="5.6" lengthAdjust="spacing" textLength="42.4" x="158.2" y="118.2453">options : Option[]</text><line style="stroke:#181818;stroke-width:0.20000000000000004;" x1="156.2" x2="209.8" y1="121.2125" y2="121.2125"/></g><!--class Motor--><g id="elem_Motor"><rect codeLine="96" fill="#F1F1F1" height="38.8875" id="Motor" rx="1" ry="1" style="stroke:#181818;stroke-width:0.20000000000000004;" width="47.2" x="258.6" y="79"/><ellipse cx="273.24" cy="85.4" fill="#ADD1B2" rx="4.4" ry="4.4" style="stroke:#181818;stroke-width:0.4000000000000001;"/><path d="M273.2588,87.8813 C273.8588,87.8813 274.3525,87.6563 274.715,87.2313 L274.165,86.625 C273.9463,86.8625 273.6838,87.0188 273.365,87.0188 C272.6963,87.0188 272.2338,86.4875 272.2338,85.575 C272.2338,84.6875 272.6963,84.15 273.3213,84.15 C273.6463,84.15 273.8838,84.275 274.0963,84.4688 L274.6463,83.85 C274.3463,83.5563 273.8838,83.2875 273.3213,83.2875 C272.14,83.2875 271.2088,84.1438 271.2088,85.6125 C271.2088,87.1 272.1588,87.8813 273.2588,87.8813 Z " fill="#000000"/><text fill="#000000" font-family="sans-serif" font-size="5.6" lengthAdjust="spacing" textLength="15.2" x="280.76" y="87.3141">Motor</text><line style="stroke:#181818;stroke-width:0.20000000000000004;" x1="259" x2="305.4" y1="91.8" y2="91.8"/><text fill="#000000" font-family="sans-serif" font-size="5.6" lengthAdjust="spacing" textLength="37.6" x="261" y="98.5953">trigger : Access</text><text fill="#000000" font-family="sans-serif" font-size="5.6" lengthAdjust="spacing" textLength="28.8" x="261" y="105.1578">axes : Axis[]</text><text fill="#000000" font-family="sans-serif" font-size="5.6" lengthAdjust="spacing" textLength="42.4" x="261" y="111.7203">options : Option[]</text><line style="stroke:#181818;stroke-width:0.20000000000000004;" x1="259" x2="305.4" y1="114.6875" y2="114.6875"/></g><!--class Monitor--><g id="elem_Monitor"><rect codeLine="79" fill="#F1F1F1" height="38.8875" id="Monitor" rx="1" ry="1" style="stroke:#181818;stroke-width:0.20000000000000004;" width="55.2" x="28.2" y="191.2"/><ellipse cx="44.46" cy="197.6" fill="#ADD1B2" rx="4.4" ry="4.4" style="stroke:#181818;stroke-width:0.4000000000000001;"/><path d="M44.4788,200.0813 C45.0788,200.0813 45.5725,199.8563 45.935,199.4313 L45.385,198.825 C45.1663,199.0625 44.9038,199.2188 44.585,199.2188 C43.9163,199.2188 43.4538,198.6875 43.4538,197.775 C43.4538,196.8875 43.9163,196.35 44.5413,196.35 C44.8663,196.35 45.1038,196.475 45.3163,196.6688 L45.8663,196.05 C45.5663,195.7563 45.1038,195.4875 44.5413,195.4875 C43.36,195.4875 42.4288,196.3438 42.4288,197.8125 C42.4288,199.3 43.3788,200.0813 44.4788,200.0813 Z " fill="#000000"/><text fill="#000000" font-family="sans-serif" font-size="5.6" lengthAdjust="spacing" textLength="19.6" x="52.34" y="199.5141">Monitor</text><line style="stroke:#181818;stroke-width:0.20000000000000004;" x1="28.6" x2="83" y1="204" y2="204"/><text fill="#000000" font-family="sans-serif" font-size="5.6" lengthAdjust="spacing" textLength="34.4" x="30.6" y="210.7953">value : Access</text><text fill="#000000" font-family="sans-serif" font-size="5.6" lengthAdjust="spacing" textLength="50.4" x="30.6" y="217.3578">displaygroup : string</text><text fill="#000000" font-family="sans-serif" font-size="5.6" lengthAdjust="spacing" textLength="42.4" x="30.6" y="223.9203">options : Option[]</text><line style="stroke:#181818;stroke-width:0.20000000000000004;" x1="28.6" x2="83" y1="226.8875" y2="226.8875"/></g><!--class Axis--><g id="elem_Axis"><rect codeLine="35" fill="#F1F1F1" height="124.2" id="Axis" rx="1" ry="1" style="stroke:#181818;stroke-width:0.20000000000000004;" width="61.2" x="309.6" y="148.4"/><ellipse cx="333.3" cy="154.8" fill="#ADD1B2" rx="4.4" ry="4.4" style="stroke:#181818;stroke-width:0.4000000000000001;"/><path d="M333.3188,157.2813 C333.9188,157.2813 334.4125,157.0563 334.775,156.6313 L334.225,156.025 C334.0063,156.2625 333.7438,156.4188 333.425,156.4188 C332.7563,156.4188 332.2938,155.8875 332.2938,154.975 C332.2938,154.0875 332.7563,153.55 333.3813,153.55 C333.7063,153.55 333.9438,153.675 334.1563,153.8688 L334.7063,153.25 C334.4063,152.9563 333.9438,152.6875 333.3813,152.6875 C332.2,152.6875 331.2688,153.5438 331.2688,155.0125 C331.2688,156.5 332.2188,157.2813 333.3188,157.2813 Z " fill="#000000"/><text fill="#000000" font-family="sans-serif" font-size="5.6" lengthAdjust="spacing" textLength="10.4" x="341.5" y="156.7141">Axis</text><line style="stroke:#181818;stroke-width:0.20000000000000004;" x1="310" x2="370.4" y1="161.2" y2="161.2"/><text fill="#000000" font-family="sans-serif" font-size="5.6" lengthAdjust="spacing" textLength="32.8" x="312" y="167.9953">goto : Access</text><text fill="#000000" font-family="sans-serif" font-size="5.6" lengthAdjust="spacing" textLength="41.2" x="312" y="174.5578">position : Access</text><text fill="#000000" font-family="sans-serif" font-size="5.6" lengthAdjust="spacing" textLength="32.4" x="312" y="181.1203">stop : Access</text><text fill="#000000" font-family="sans-serif" font-size="5.6" lengthAdjust="spacing" textLength="42.4" x="312" y="187.6828">highlimit : Access</text><text fill="#000000" font-family="sans-serif" font-size="5.6" lengthAdjust="spacing" textLength="40.4" x="312" y="194.2453">lowlimit : Access</text><text fill="#000000" font-family="sans-serif" font-size="5.6" lengthAdjust="spacing" textLength="52.8" x="312" y="200.8078">limitviolation : Access</text><text fill="#000000" font-family="sans-serif" font-size="5.6" lengthAdjust="spacing" textLength="37.2" x="312" y="207.3703">status : Access</text><text fill="#000000" font-family="sans-serif" font-size="5.6" lengthAdjust="spacing" textLength="47.2" x="312" y="213.9328">movedone : Access</text><text fill="#000000" font-family="sans-serif" font-size="5.6" lengthAdjust="spacing" textLength="37.6" x="312" y="220.4953">trigger : Access</text><text fill="#000000" font-family="sans-serif" font-size="5.6" lengthAdjust="spacing" textLength="46.4" x="312" y="227.0578">deadband : Access</text><text fill="#000000" font-family="sans-serif" font-size="5.6" lengthAdjust="spacing" textLength="36" x="312" y="233.6203">offset : Access</text><text fill="#000000" font-family="sans-serif" font-size="5.6" lengthAdjust="spacing" textLength="49.6" x="312" y="240.1828">tweakvalue : Access</text><text fill="#000000" font-family="sans-serif" font-size="5.6" lengthAdjust="spacing" textLength="56.4" x="312" y="246.7453">tweakforward : Access</text><text fill="#000000" font-family="sans-serif" font-size="5.6" lengthAdjust="spacing" textLength="54.4" x="312" y="253.3078">tweakreverse : Access</text><text fill="#000000" font-family="sans-serif" font-size="5.6" lengthAdjust="spacing" textLength="42.4" x="312" y="259.8703">options : Option[]</text><text fill="#000000" font-family="sans-serif" font-size="5.6" lengthAdjust="spacing" textLength="50.8" x="312" y="266.4328">save_value : boolean</text><line style="stroke:#181818;stroke-width:0.20000000000000004;" x1="310" x2="370.4" y1="269.4" y2="269.4"/></g><!--class Channel--><g id="elem_Channel"><rect codeLine="56" fill="#F1F1F1" height="65.1375" id="Channel" rx="1" ry="1" style="stroke:#181818;stroke-width:0.20000000000000004;" width="55.6" x="126" y="178"/><ellipse cx="142.08" cy="184.4" fill="#ADD1B2" rx="4.4" ry="4.4" style="stroke:#181818;stroke-width:0.4000000000000001;"/><path d="M142.0988,186.8813 C142.6988,186.8813 143.1925,186.6563 143.555,186.2313 L143.005,185.625 C142.7863,185.8625 142.5238,186.0188 142.205,186.0188 C141.5363,186.0188 141.0738,185.4875 141.0738,184.575 C141.0738,183.6875 141.5363,183.15 142.1613,183.15 C142.4863,183.15 142.7238,183.275 142.9363,183.4688 L143.4863,182.85 C143.1863,182.5563 142.7238,182.2875 142.1613,182.2875 C140.98,182.2875 140.0488,183.1438 140.0488,184.6125 C140.0488,186.1 140.9988,186.8813 142.0988,186.8813 Z " fill="#000000"/><text fill="#000000" font-family="sans-serif" font-size="5.6" lengthAdjust="spacing" textLength="20.4" x="149.92" y="186.3141">Channel</text><line style="stroke:#181818;stroke-width:0.20000000000000004;" x1="126.4" x2="181.2" y1="190.8" y2="190.8"/><text fill="#000000" font-family="sans-serif" font-size="5.6" lengthAdjust="spacing" textLength="32.4" x="128.4" y="197.5953">read : Access</text><text fill="#000000" font-family="sans-serif" font-size="5.6" lengthAdjust="spacing" textLength="37.6" x="128.4" y="204.1578">trigger : Access</text><text fill="#000000" font-family="sans-serif" font-size="5.6" lengthAdjust="spacing" textLength="32.4" x="128.4" y="210.7203">stop : Access</text><text fill="#000000" font-family="sans-serif" font-size="5.6" lengthAdjust="spacing" textLength="37.2" x="128.4" y="217.2828">status : Access</text><text fill="#000000" font-family="sans-serif" font-size="5.6" lengthAdjust="spacing" textLength="42.4" x="128.4" y="223.8453">options : Option[]</text><text fill="#000000" font-family="sans-serif" font-size="5.6" lengthAdjust="spacing" textLength="44.4" x="128.4" y="230.4078">deferred : boolean</text><text fill="#000000" font-family="sans-serif" font-size="5.6" lengthAdjust="spacing" textLength="50.8" x="128.4" y="236.9703">save_value : boolean</text><line style="stroke:#181818;stroke-width:0.20000000000000004;" x1="126.4" x2="181.2" y1="239.9375" y2="239.9375"/></g><!--class Option--><g id="elem_Option"><rect codeLine="105" fill="#F1F1F1" height="45.45" id="Option" rx="1" ry="1" style="stroke:#181818;stroke-width:0.20000000000000004;" width="69.2" x="186" y="296.8"/><ellipse cx="210.5" cy="303.2" fill="#ADD1B2" rx="4.4" ry="4.4" style="stroke:#181818;stroke-width:0.4000000000000001;"/><path d="M210.5188,305.6813 C211.1188,305.6813 211.6125,305.4563 211.975,305.0313 L211.425,304.425 C211.2063,304.6625 210.9438,304.8188 210.625,304.8188 C209.9563,304.8188 209.4938,304.2875 209.4938,303.375 C209.4938,302.4875 209.9563,301.95 210.5813,301.95 C210.9063,301.95 211.1438,302.075 211.3563,302.2688 L211.9063,301.65 C211.6063,301.3563 211.1438,301.0875 210.5813,301.0875 C209.4,301.0875 208.4688,301.9438 208.4688,303.4125 C208.4688,304.9 209.4188,305.6813 210.5188,305.6813 Z " fill="#000000"/><text fill="#000000" font-family="sans-serif" font-size="5.6" lengthAdjust="spacing" textLength="16.8" x="218.7" y="305.1141">Option</text><line style="stroke:#181818;stroke-width:0.20000000000000004;" x1="186.4" x2="254.8" y1="309.6" y2="309.6"/><text fill="#000000" font-family="sans-serif" font-size="5.6" lengthAdjust="spacing" textLength="34.4" x="188.4" y="316.3953">value : Access</text><text fill="#000000" font-family="sans-serif" font-size="5.6" lengthAdjust="spacing" textLength="50.4" x="188.4" y="322.9578">displaygroup : string</text><text fill="#000000" font-family="sans-serif" font-size="5.6" lengthAdjust="spacing" textLength="43.2" x="188.4" y="329.5203">monitor : boolean</text><text fill="#000000" font-family="sans-serif" font-size="5.6" lengthAdjust="spacing" textLength="64.4" x="188.4" y="336.0828">autoacquire : AutoAcquire</text><line style="stroke:#181818;stroke-width:0.20000000000000004;" x1="186.4" x2="254.8" y1="339.05" y2="339.05"/></g><!--class Unit--><g id="elem_Unit"><rect codeLine="119" fill="#F1F1F1" height="25.7625" id="Unit" rx="1" ry="1" style="stroke:#181818;stroke-width:0.20000000000000004;" width="46.8" x="2.8" y="465.2"/><ellipse cx="19.6" cy="471.6" fill="#ADD1B2" rx="4.4" ry="4.4" style="stroke:#181818;stroke-width:0.4000000000000001;"/><path d="M19.6188,474.0813 C20.2188,474.0813 20.7125,473.8563 21.075,473.4313 L20.525,472.825 C20.3063,473.0625 20.0438,473.2188 19.725,473.2188 C19.0563,473.2188 18.5938,472.6875 18.5938,471.775 C18.5938,470.8875 19.0563,470.35 19.6813,470.35 C20.0063,470.35 20.2438,470.475 20.4563,470.6688 L21.0063,470.05 C20.7063,469.7563 20.2438,469.4875 19.6813,469.4875 C18.5,469.4875 17.5688,470.3438 17.5688,471.8125 C17.5688,473.3 18.5188,474.0813 19.6188,474.0813 Z " fill="#000000"/><text fill="#000000" font-family="sans-serif" font-size="5.6" lengthAdjust="spacing" textLength="10" x="27.6" y="473.5141">Unit</text><line style="stroke:#181818;stroke-width:0.20000000000000004;" x1="3.2" x2="49.2" y1="478" y2="478"/><text fill="#000000" font-family="sans-serif" font-size="5.6" lengthAdjust="spacing" textLength="42" x="5.2" y="484.7953">unitstring : string</text><line style="stroke:#181818;stroke-width:0.20000000000000004;" x1="3.2" x2="49.2" y1="487.7625" y2="487.7625"/></g><!--class Access--><g id="elem_Access"><rect codeLine="17" fill="#F1F1F1" height="58.575" id="Access" rx="1" ry="1" style="stroke:#181818;stroke-width:0.20000000000000004;" width="56.8" x="125.4" y="366.4"/><ellipse cx="143.3" cy="372.8" fill="#ADD1B2" rx="4.4" ry="4.4" style="stroke:#181818;stroke-width:0.4000000000000001;"/><path d="M143.3188,375.2813 C143.9188,375.2813 144.4125,375.0563 144.775,374.6313 L144.225,374.025 C144.0063,374.2625 143.7438,374.4188 143.425,374.4188 C142.7563,374.4188 142.2938,373.8875 142.2938,372.975 C142.2938,372.0875 142.7563,371.55 143.3813,371.55 C143.7063,371.55 143.9438,371.675 144.1563,371.8688 L144.7063,371.25 C144.4063,370.9563 143.9438,370.6875 143.3813,370.6875 C142.2,370.6875 141.2688,371.5438 141.2688,373.0125 C141.2688,374.5 142.2188,375.2813 143.3188,375.2813 Z " fill="#000000"/><text fill="#000000" font-family="sans-serif" font-size="5.6" lengthAdjust="spacing" textLength="17.6" x="151.5" y="374.7141">Access</text><line style="stroke:#181818;stroke-width:0.20000000000000004;" x1="125.8" x2="181.8" y1="379.2" y2="379.2"/><text fill="#000000" font-family="sans-serif" font-size="5.6" lengthAdjust="spacing" textLength="40.8" x="127.8" y="385.9953">value : typevalue</text><text fill="#000000" font-family="sans-serif" font-size="5.6" lengthAdjust="spacing" textLength="42" x="127.8" y="392.5578">method : Method</text><text fill="#000000" font-family="sans-serif" font-size="5.6" lengthAdjust="spacing" textLength="35.2" x="127.8" y="399.1203">count : integer</text><text fill="#000000" font-family="sans-serif" font-size="5.6" lengthAdjust="spacing" textLength="52" x="127.8" y="405.6828">transport : Transport</text><text fill="#000000" font-family="sans-serif" font-size="5.6" lengthAdjust="spacing" textLength="34.4" x="127.8" y="412.2453">timeout : float</text><text fill="#000000" font-family="sans-serif" font-size="5.6" lengthAdjust="spacing" textLength="43.2" x="127.8" y="418.8078">monitor : boolean</text><line style="stroke:#181818;stroke-width:0.20000000000000004;" x1="125.8" x2="181.8" y1="421.775" y2="421.775"/></g><!--class Method--><g id="elem_Method"><rect codeLine="87" fill="#F1F1F1" height="58.575" id="Method" rx="1" ry="1" style="stroke:#181818;stroke-width:0.20000000000000004;" width="66.4" x="101.8" y="448.8"/><ellipse cx="123.7" cy="455.2" fill="#EB937F" rx="4.4" ry="4.4" style="stroke:#181818;stroke-width:0.4000000000000001;"/><path d="M122.125,457.6 L125.1313,457.6 L125.1313,456.7563 L123.1313,456.7563 L123.1313,455.7375 L124.7688,455.7375 L124.7688,454.9 L123.1313,454.9 L123.1313,454.0125 L125.0625,454.0125 L125.0625,453.1688 L122.125,453.1688 L122.125,457.6 Z " fill="#000000"/><text fill="#000000" font-family="sans-serif" font-size="5.6" lengthAdjust="spacing" textLength="19.2" x="131.9" y="457.1141">Method</text><line style="stroke:#181818;stroke-width:0.20000000000000004;" x1="102.2" x2="167.8" y1="461.6" y2="461.6"/><text fill="#000000" font-family="sans-serif" font-size="5.6" lengthAdjust="spacing" textLength="26.4" x="104.2" y="468.3953">PUT = PUT</text><text fill="#000000" font-family="sans-serif" font-size="5.6" lengthAdjust="spacing" textLength="40.8" x="104.2" y="474.9578">PUTCB = PUTCB</text><text fill="#000000" font-family="sans-serif" font-size="5.6" lengthAdjust="spacing" textLength="26.4" x="104.2" y="481.5203">GET = GET</text><text fill="#000000" font-family="sans-serif" font-size="5.6" lengthAdjust="spacing" textLength="40.8" x="104.2" y="488.0828">GETCB = GETCB</text><text fill="#000000" font-family="sans-serif" font-size="5.6" lengthAdjust="spacing" textLength="47.2" x="104.2" y="494.6453">GETPUT = GETPUT</text><text fill="#000000" font-family="sans-serif" font-size="5.6" lengthAdjust="spacing" textLength="61.6" x="104.2" y="501.2078">GETPUTCB = GETPUTCB</text><line style="stroke:#181818;stroke-width:0.20000000000000004;" x1="102.2" x2="167.8" y1="504.175" y2="504.175"/></g><!--class Transport--><g id="elem_Transport"><rect codeLine="114" fill="#F1F1F1" height="32.325" id="Transport" rx="1" ry="1" style="stroke:#181818;stroke-width:0.20000000000000004;" width="37.6" x="182.2" y="461.8"/><ellipse cx="188.2" cy="468.2" fill="#EB937F" rx="4.4" ry="4.4" style="stroke:#181818;stroke-width:0.4000000000000001;"/><path d="M186.625,470.6 L189.6313,470.6 L189.6313,469.7563 L187.6313,469.7563 L187.6313,468.7375 L189.2688,468.7375 L189.2688,467.9 L187.6313,467.9 L187.6313,467.0125 L189.5625,467.0125 L189.5625,466.1688 L186.625,466.1688 L186.625,470.6 Z " fill="#000000"/><text fill="#000000" font-family="sans-serif" font-size="5.6" lengthAdjust="spacing" textLength="24.8" x="193.8" y="470.1141">Transport</text><line style="stroke:#181818;stroke-width:0.20000000000000004;" x1="182.6" x2="219.4" y1="474.6" y2="474.6"/><text fill="#000000" font-family="sans-serif" font-size="5.6" lengthAdjust="spacing" textLength="17.6" x="184.6" y="481.3953">ca = ca</text><text fill="#000000" font-family="sans-serif" font-size="5.6" lengthAdjust="spacing" textLength="28.8" x="184.6" y="487.9578">local = local</text><line style="stroke:#181818;stroke-width:0.20000000000000004;" x1="182.6" x2="219.4" y1="490.925" y2="490.925"/></g><!--class AutoAcquire--><g id="elem_AutoAcquire"><rect codeLine="29" fill="#F1F1F1" height="38.8875" id="AutoAcquire" rx="1" ry="1" style="stroke:#181818;stroke-width:0.20000000000000004;" width="79.2" x="337.8" y="300.2"/><ellipse cx="360.3" cy="306.6" fill="#EB937F" rx="4.4" ry="4.4" style="stroke:#181818;stroke-width:0.4000000000000001;"/><path d="M358.725,309 L361.7313,309 L361.7313,308.1563 L359.7313,308.1563 L359.7313,307.1375 L361.3688,307.1375 L361.3688,306.3 L359.7313,306.3 L359.7313,305.4125 L361.6625,305.4125 L361.6625,304.5688 L358.725,304.5688 L358.725,309 Z " fill="#000000"/><text fill="#000000" font-family="sans-serif" font-size="5.6" lengthAdjust="spacing" textLength="30.8" x="368.5" y="308.5141">AutoAcquire</text><line style="stroke:#181818;stroke-width:0.20000000000000004;" x1="338.2" x2="416.6" y1="313" y2="313"/><text fill="#000000" font-family="sans-serif" font-size="5.6" lengthAdjust="spacing" textLength="52.8" x="340.2" y="319.7953">snapshot = snapshot</text><text fill="#000000" font-family="sans-serif" font-size="5.6" lengthAdjust="spacing" textLength="74.4" x="340.2" y="326.3578">measurement = measurement</text><text fill="#000000" font-family="sans-serif" font-size="5.6" lengthAdjust="spacing" textLength="18.4" x="340.2" y="332.9203">no = no</text><line style="stroke:#181818;stroke-width:0.20000000000000004;" x1="338.2" x2="416.6" y1="335.8875" y2="335.8875"/></g><!--reverse link Device to Detector--><g id="link_Device_Detector"><path codeLine="9" d="M183,55.784 C183,63.332 183,64.596 183,72.36 " fill="none" id="Device-backto-Detector" style="stroke:#181818;stroke-width:0.4000000000000001;"/><polygon fill="none" points="183,48.584,180.6,55.784,185.4,55.784,183,48.584" style="stroke:#181818;stroke-width:0.4000000000000001;"/></g><!--reverse link Device to Motor--><g id="link_Device_Motor"><path codeLine="10" d="M207.2548,43.6015 C223.3348,55.2735 240.94,68.052 258.428,80.748 " fill="none" id="Device-backto-Motor" style="stroke:#181818;stroke-width:0.4000000000000001;"/><polygon fill="none" points="201.428,39.372,205.845,45.5438,208.6646,41.6592,201.428,39.372" style="stroke:#181818;stroke-width:0.4000000000000001;"/></g><!--reverse link Device to Monitor--><g id="link_Device_Monitor"><path codeLine="11" d="M159.418,48.2561 C150.91,56.6481 146.096,62.088 138.2,72.4 C107.828,112.072 79.588,163.748 65.388,191.168 " fill="none" id="Device-backto-Monitor" style="stroke:#181818;stroke-width:0.4000000000000001;"/><polygon fill="none" points="164.544,43.2,157.7326,46.5474,161.1034,49.9648,164.544,43.2" style="stroke:#181818;stroke-width:0.4000000000000001;"/></g><!--reverse link Device to Axis--><g id="link_Device_Axis"><path codeLine="12" d="M208.633,27.7116 C237.113,30.3636 284.288,39.092 313,72.4 C330.872,93.132 338.3,122.176 341.008,148.26 " fill="none" id="Device-backto-Axis" style="stroke:#181818;stroke-width:0.4000000000000001;"/><polygon fill="none" points="201.464,27.044,208.4105,30.1012,208.8555,25.3219,201.464,27.044" style="stroke:#181818;stroke-width:0.4000000000000001;"/></g><!--reverse link Device to Channel--><g id="link_Device_Channel"><path codeLine="13" d="M160.0277,51.069 C153.8437,58.837 152.2,62.624 149,72.4 C137.632,107.152 141.536,149.492 146.54,177.996 " fill="none" id="Device-backto-Channel" style="stroke:#181818;stroke-width:0.4000000000000001;"/><polygon fill="none" points="164.512,45.436,158.15,49.5742,161.9053,52.5638,164.512,45.436" style="stroke:#181818;stroke-width:0.4000000000000001;"/></g><!--reverse link Device to Option--><g id="link_Device_Option"><path codeLine="14" d="M205.9793,50.7978 C212.2873,58.6098 214.064,62.52 217.4,72.4 C243.98,151.168 232.112,252.284 224.804,296.644 " fill="none" id="Device-backto-Option" style="stroke:#181818;stroke-width:0.4000000000000001;"/><polygon fill="none" points="201.456,45.196,204.112,52.3055,207.8465,49.29,201.456,45.196" style="stroke:#181818;stroke-width:0.4000000000000001;"/></g><!--reverse link Device to Unit--><g id="link_Device_Unit"><path codeLine="15" d="M160.2784,36.7336 C142.9384,45.2376 120.92,57.044 100.2,72.4 C40.796,116.424 7,136.264 7,210.2 C7,210.2 7,210.2 7,320 C7,374.368 18.4,438.52 23.632,465.1 " fill="none" id="Device-backto-Unit" style="stroke:#181818;stroke-width:0.4000000000000001;"/><polygon fill="#181818" points="164.588,34.62,161.7287,34.2402,160.2784,36.7336,163.1377,37.1133,164.588,34.62" style="stroke:#181818;stroke-width:0.4000000000000001;"/></g><!--reverse link Access to Unit--><g id="link_Access_Unit"><path codeLine="25" d="M119.2581,418.0908 C95.0181,433.5908 66.912,451.564 45.684,465.14 " fill="none" id="Access-backto-Unit" style="stroke:#181818;stroke-width:0.4000000000000001;"/><polygon fill="none" points="125.324,414.212,117.9652,416.0688,120.551,420.1127,125.324,414.212" style="stroke:#181818;stroke-width:0.4000000000000001;"/></g><!--reverse link Access to Method--><g id="link_Access_Method"><path codeLine="26" d="M146.067,429.5616 C144.283,437.3096 143.432,441.008 141.644,448.756 " fill="none" id="Access-backto-Method" style="stroke:#181818;stroke-width:0.4000000000000001;"/><polygon fill="#181818" points="147.144,424.884,145.0463,426.8638,146.067,429.5616,148.1647,427.5818,147.144,424.884" style="stroke:#181818;stroke-width:0.4000000000000001;"/></g><!--reverse link Access to Transport--><g id="link_Access_Transport"><path codeLine="27" d="M172.9111,429.0391 C180.0711,441.4191 185.756,451.244 191.804,461.7 " fill="none" id="Access-backto-Transport" style="stroke:#181818;stroke-width:0.4000000000000001;"/><polygon fill="#181818" points="170.508,424.884,170.3245,427.7626,172.9111,429.0391,173.0946,426.1605,170.508,424.884" style="stroke:#181818;stroke-width:0.4000000000000001;"/></g><!--reverse link Axis to Access--><g id="link_Axis_Access"><path codeLine="53" d="M331.4522,277.5925 C325.6522,301.8605 316.56,323.652 298.6,342.4 C267.504,374.864 214.86,387.456 182.344,392.28 " fill="none" id="Axis-backto-Access" style="stroke:#181818;stroke-width:0.4000000000000001;"/><polygon fill="#181818" points="332.568,272.924,330.4539,274.8863,331.4522,277.5925,333.5663,275.6302,332.568,272.924" style="stroke:#181818;stroke-width:0.4000000000000001;"/><text fill="#000000" font-family="sans-serif" font-size="5.2" lengthAdjust="spacing" textLength="2.8" x="185.432" y="390.4483">n</text></g><!--reverse link Axis to Option--><g id="link_Axis_Option"><path codeLine="54" d="M305.9963,241.944 C286.1323,259.912 264.148,279.804 245.532,296.648 " fill="none" id="Axis-backto-Option" style="stroke:#181818;stroke-width:0.4000000000000001;"/><polygon fill="#181818" points="309.556,238.724,306.7028,239.1474,305.9963,241.944,308.8495,241.5206,309.556,238.724" style="stroke:#181818;stroke-width:0.4000000000000001;"/><text fill="#000000" font-family="sans-serif" font-size="5.2" lengthAdjust="spacing" textLength="2.8" x="245.6" y="292.3242">n</text></g><!--reverse link Channel to Access--><g id="link_Channel_Access"><path codeLine="65" d="M153.8,248.096 C153.8,282.868 153.8,332.876 153.8,366.28 " fill="none" id="Channel-backto-Access" style="stroke:#181818;stroke-width:0.4000000000000001;"/><polygon fill="#181818" points="153.8,243.296,152.2,245.696,153.8,248.096,155.4,245.696,153.8,243.296" style="stroke:#181818;stroke-width:0.4000000000000001;"/><text fill="#000000" font-family="sans-serif" font-size="5.2" lengthAdjust="spacing" textLength="2.8" x="150.8622" y="361.9187">n</text></g><!--reverse link Channel to Option--><g id="link_Channel_Option"><path codeLine="66" d="M176.2737,247.4003 C186.8857,264.5883 197.148,281.212 206.68,296.652 " fill="none" id="Channel-backto-Option" style="stroke:#181818;stroke-width:0.4000000000000001;"/><polygon fill="#181818" points="173.752,243.316,173.6514,246.1987,176.2737,247.4003,176.3743,244.5176,173.752,243.316" style="stroke:#181818;stroke-width:0.4000000000000001;"/><text fill="#000000" font-family="sans-serif" font-size="5.2" lengthAdjust="spacing" textLength="2.8" x="202.0129" y="292.3287">n</text></g><!--reverse link Detector to Access--><g id="link_Detector_Access"><path codeLine="75" d="M151.6824,114.6694 C137.9504,123.0174 126.704,132.684 119,148.4 C83.528,220.768 118.092,318.468 139.56,366.336 " fill="none" id="Detector-backto-Access" style="stroke:#181818;stroke-width:0.4000000000000001;"/><polygon fill="#181818" points="155.784,112.176,152.9021,112.0555,151.6824,114.6694,154.5644,114.7899,155.784,112.176" style="stroke:#181818;stroke-width:0.4000000000000001;"/><text fill="#000000" font-family="sans-serif" font-size="5.2" lengthAdjust="spacing" textLength="2.8" x="135.2204" y="361.9802">n</text></g><!--reverse link Detector to Channel--><g id="link_Detector_Channel"><path codeLine="76" d="M175.0471,129.1392 C170.8791,145.0432 166.708,160.956 162.252,177.948 " fill="none" id="Detector-backto-Channel" style="stroke:#181818;stroke-width:0.4000000000000001;"/><polygon fill="#181818" points="176.264,124.496,174.1078,126.412,175.0471,129.1392,177.2033,127.2232,176.264,124.496" style="stroke:#181818;stroke-width:0.4000000000000001;"/><text fill="#000000" font-family="sans-serif" font-size="5.2" lengthAdjust="spacing" textLength="2.8" x="160.1021" y="173.4928">n</text></g><!--reverse link Detector to Option--><g id="link_Detector_Option"><path codeLine="77" d="M188.175,129.1357 C195.595,172.6397 209.736,255.528 216.772,296.768 " fill="none" id="Detector-backto-Option" style="stroke:#181818;stroke-width:0.4000000000000001;"/><polygon fill="#181818" points="187.368,124.404,186.1943,127.0388,188.175,129.1357,189.3487,126.5008,187.368,124.404" style="stroke:#181818;stroke-width:0.4000000000000001;"/><text fill="#000000" font-family="sans-serif" font-size="5.2" lengthAdjust="spacing" textLength="2.8" x="213.3022" y="292.2981">n</text></g><!--reverse link Monitor to Access--><g id="link_Monitor_Access"><path codeLine="84" d="M58.6697,234.8525 C62.4777,261.7165 71.516,306.62 94.2,342.4 C102.268,355.124 114.272,366.588 125.396,375.552 " fill="none" id="Monitor-backto-Access" style="stroke:#181818;stroke-width:0.4000000000000001;"/><polygon fill="#181818" points="57.996,230.1,56.7487,232.7008,58.6697,234.8525,59.917,232.2517,57.996,230.1" style="stroke:#181818;stroke-width:0.4000000000000001;"/></g><!--reverse link Monitor to Option--><g id="link_Monitor_Option"><path codeLine="85" d="M75.2798,233.6362 C87.2678,246.8602 101.284,260.644 119,272.8 C139.748,287.032 165.564,298.76 185.98,306.86 " fill="none" id="Monitor-backto-Option" style="stroke:#181818;stroke-width:0.4000000000000001;"/><polygon fill="#181818" points="72.056,230.08,72.4825,232.9327,75.2798,233.6362,74.8533,230.7835,72.056,230.08" style="stroke:#181818;stroke-width:0.4000000000000001;"/><text fill="#000000" font-family="sans-serif" font-size="5.2" lengthAdjust="spacing" textLength="2.8" x="179.972" y="304.2932">n</text></g><!--reverse link Motor to Access--><g id="link_Motor_Access"><path codeLine="101" d="M287.425,122.6604 C296.149,166.6844 310.34,271.992 262.2,342.4 C243.828,369.272 207.78,382.98 182.308,389.6 " fill="none" id="Motor-backto-Access" style="stroke:#181818;stroke-width:0.4000000000000001;"/><polygon fill="#181818" points="286.492,117.952,285.389,120.6172,287.425,122.6604,288.528,119.9952,286.492,117.952" style="stroke:#181818;stroke-width:0.4000000000000001;"/></g><!--reverse link Motor to Axis--><g id="link_Motor_Axis"><path codeLine="102" d="M294.3217,122.081 C299.2417,131.525 303.26,139.248 309.6,151.424 " fill="none" id="Motor-backto-Axis" style="stroke:#181818;stroke-width:0.4000000000000001;"/><polygon fill="#181818" points="292.104,117.824,291.7939,120.6917,294.3217,122.081,294.6318,119.2132,292.104,117.824" style="stroke:#181818;stroke-width:0.4000000000000001;"/><text fill="#000000" font-family="sans-serif" font-size="5.2" lengthAdjust="spacing" textLength="2.8" x="303.65" y="144.1422">n</text></g><!--reverse link Motor to Option--><g id="link_Motor_Option"><path codeLine="103" d="M278.2571,122.5456 C272.6531,154.9136 260.528,217.832 241.8,272.8 C239.072,280.808 235.428,289.296 231.932,296.796 " fill="none" id="Motor-backto-Option" style="stroke:#181818;stroke-width:0.4000000000000001;"/><polygon fill="#181818" points="279.076,117.816,277.09,119.9079,278.2571,122.5456,280.2431,120.4538,279.076,117.816" style="stroke:#181818;stroke-width:0.4000000000000001;"/><text fill="#000000" font-family="sans-serif" font-size="5.2" lengthAdjust="spacing" textLength="2.8" x="230.4045" y="292.3297">n</text></g><!--reverse link Option to Access--><g id="link_Option_Access"><path codeLine="111" d="M197.4601,346.0485 C190.8081,353.5365 186.492,358.396 179.468,366.304 " fill="none" id="Option-backto-Access" style="stroke:#181818;stroke-width:0.4000000000000001;"/><polygon fill="#181818" points="200.648,342.46,197.8579,343.1916,197.4601,346.0485,200.2502,345.3169,200.648,342.46" style="stroke:#181818;stroke-width:0.4000000000000001;"/></g><!--reverse link Option to AutoAcquire--><g id="link_Option_AutoAcquire"><path codeLine="112" d="M260.008,319.6 C287.532,319.6 310.256,319.6 337.784,319.6 " fill="none" id="Option-backto-AutoAcquire" style="stroke:#181818;stroke-width:0.4000000000000001;"/><polygon fill="#181818" points="255.208,319.6,257.608,321.2,260.008,319.6,257.608,318,255.208,319.6" style="stroke:#181818;stroke-width:0.4000000000000001;"/></g><!--SRC=[fPLDRzim38Rl_XL6BmC6PBa7so7DXfwAxT2UXc5WRSOMPecU93ijjlptKL-9vRZTiEOGMuySwdr9XdxJMjkRpNhTTw3i8Bjt5SbrrO4ngrf0eq4MXL-M7t4K5PQ_Yf8_0MrAOxLGZKSA9EP4rFbwKC8okUTBSInYlFU_LokERR6of3DuIvU4VpfZsqTXCh1hGIdiClQvju9KGc-PU17HsRQga2_1sGZTu7pOfnxzlQSIRKlEpgs_2JcWGJa_GbbiK7jcDIZJatRyBjs77I6H1iVt7K5WClXXza3K8IXEInJZPNkH4JZHyV09EPzHe1fakHqiRQkVWz2fKaP1RrgovOVJRNG4Pj0eKRcjoIeKanWgOZqfHvpc6B7Xkh3aeCAJdenm2SwfiTJdf1LDsmdfks22EpeiKOT6GHqiXGOxc9n96h4cXJdbxckuE3ci4Ue7K7LEQRytE1DX3mW_KalC-Pxq0NIziADnH6rclo7VX4vrQCUltu8N6F5xEcBI1oxXhiHNwYf5oLZiwLYVsFMnH9eD_aCUBYkqbDXdTDUuHwsndgX-mKxIDtCqnxcfD1QYgrTugC8vZiOZeui5SsuqnNDdQY_uUTRCDd8VSMxD9ioq8ONX0VpKQ1hwV6Okwalnt6anoXHD1VYf4EP6FFxB_Ht_j_axhNRNORsxzkJcazldxxJo-_wQI0WHRYOiFHXY7S_k_r92U4HVBkxkbweIucIUingv5q6EyYg4rVyKuN9EUzayQo7EsirqyhBMUDP4x8baJuRwdAPuUhi29xA2E1mhw7Zfh-UakbT3VDgzLeFOi-fZyGS0]--></g></svg>