<?xml version="1.0" encoding="us-ascii" standalone="no"?><svg xmlns="http://www.w3.org/2000/svg" xmlns:xlink="http://www.w3.org/1999/xlink" contentStyleType="text/css" height="868px" preserveAspectRatio="none" style="width:843px;height:868px;background:#FFFFFF;" version="1.1" viewBox="0 0 843 868" width="843px" zoomAndPan="magnify"><defs/><g><!--cluster measurement--><g id="cluster_measurement"><path d="M8.5,6 L120.5,6 A3.75,3.75 0 0 1 123,8.5 L130,28.2969 L833.5,28.2969 A2.5,2.5 0 0 1 836,30.7969 L836,317.5 A2.5,2.5 0 0 1 833.5,320 L8.5,320 A2.5,2.5 0 0 1 6,317.5 L6,8.5 A2.5,2.5 0 0 1 8.5,6 " fill="none" style="stroke:#000000;stroke-width:1.5;"/><line style="stroke:#000000;stroke-width:1.5;" x1="6" x2="130" y1="28.2969" y2="28.2969"/><text fill="#000000" font-family="sans-serif" font-size="14" font-weight="bold" lengthAdjust="spacing" textLength="111" x="10" y="20.9951">measurement</text></g><!--cluster entities--><g id="cluster_entities"><path d="M32.5,49 L95.5,49 A3.75,3.75 0 0 1 98,51.5 L105,71.2969 L809.5,71.2969 A2.5,2.5 0 0 1 812,73.7969 L812,293.5 A2.5,2.5 0 0 1 809.5,296 L32.5,296 A2.5,2.5 0 0 1 30,293.5 L30,51.5 A2.5,2.5 0 0 1 32.5,49 " fill="none" style="stroke:#000000;stroke-width:1.5;"/><line style="stroke:#000000;stroke-width:1.5;" x1="30" x2="105" y1="71.2969" y2="71.2969"/><text fill="#000000" font-family="sans-serif" font-size="14" font-weight="bold" lengthAdjust="spacing" textLength="62" x="34" y="63.9951">entities</text></g><!--cluster measurement--><g id="cluster_measurement"><path d="M212.5,92 L324.5,92 A3.75,3.75 0 0 1 327,94.5 L334,114.2969 L785.5,114.2969 A2.5,2.5 0 0 1 788,116.7969 L788,269.5 A2.5,2.5 0 0 1 785.5,272 L212.5,272 A2.5,2.5 0 0 1 210,269.5 L210,94.5 A2.5,2.5 0 0 1 212.5,92 " fill="none" style="stroke:#000000;stroke-width:1.5;"/><line style="stroke:#000000;stroke-width:1.5;" x1="210" x2="334" y1="114.2969" y2="114.2969"/><text fill="#000000" font-family="sans-serif" font-size="14" font-weight="bold" lengthAdjust="spacing" textLength="111" x="214" y="106.9951">measurement</text></g><!--cluster metadata--><g id="cluster_metadata"><path d="M56.5,132.5 L133.5,132.5 A3.75,3.75 0 0 1 136,135 L143,154.7969 L183.5,154.7969 A2.5,2.5 0 0 1 186,157.2969 L186,229 A2.5,2.5 0 0 1 183.5,231.5 L56.5,231.5 A2.5,2.5 0 0 1 54,229 L54,135 A2.5,2.5 0 0 1 56.5,132.5 " fill="none" style="stroke:#000000;stroke-width:1.5;"/><line style="stroke:#000000;stroke-width:1.5;" x1="54" x2="143" y1="154.7969" y2="154.7969"/><text fill="#000000" font-family="sans-serif" font-size="14" font-weight="bold" lengthAdjust="spacing" textLength="76" x="58" y="147.4951">metadata</text></g><!--cluster evefile--><g id="cluster_evefile"><path d="M235.5,628 L291.5,628 A3.75,3.75 0 0 1 294,630.5 L301,650.2969 L543.5,650.2969 A2.5,2.5 0 0 1 546,652.7969 L546,858.5 A2.5,2.5 0 0 1 543.5,861 L235.5,861 A2.5,2.5 0 0 1 233,858.5 L233,630.5 A2.5,2.5 0 0 1 235.5,628 " fill="none" style="stroke:#000000;stroke-width:1.5;"/><line style="stroke:#000000;stroke-width:1.5;" x1="233" x2="301" y1="650.2969" y2="650.2969"/><text fill="#000000" font-family="sans-serif" font-size="14" font-weight="bold" lengthAdjust="spacing" textLength="55" x="237" y="642.9951">evefile</text></g><!--cluster entities--><g id="cluster_entities"><path d="M259.5,671 L322.5,671 A3.75,3.75 0 0 1 325,673.5 L332,693.2969 L519.5,693.2969 A2.5,2.5 0 0 1 522,695.7969 L522,834.5 A2.5,2.5 0 0 1 519.5,837 L259.5,837 A2.5,2.5 0 0 1 257,834.5 L257,673.5 A2.5,2.5 0 0 1 259.5,671 " fill="none" style="stroke:#000000;stroke-width:1.5;"/><line style="stroke:#000000;stroke-width:1.5;" x1="257" x2="332" y1="693.2969" y2="693.2969"/><text fill="#000000" font-family="sans-serif" font-size="14" font-weight="bold" lengthAdjust="spacing" textLength="62" x="261" y="685.9951">entities</text></g><!--cluster file--><g id="cluster_file"><path d="M283.5,714 L310.5,714 A3.75,3.75 0 0 1 313,716.5 L320,736.2969 L495.5,736.2969 A2.5,2.5 0 0 1 498,738.7969 L498,810.5 A2.5,2.5 0 0 1 495.5,813 L283.5,813 A2.5,2.5 0 0 1 281,810.5 L281,716.5 A2.5,2.5 0 0 1 283.5,714 " fill="none" style="stroke:#000000;stroke-width:1.5;"/><line style="stroke:#000000;stroke-width:1.5;" x1="281" x2="320" y1="736.2969" y2="736.2969"/><text fill="#000000" font-family="sans-serif" font-size="14" font-weight="bold" lengthAdjust="spacing" textLength="26" x="285" y="728.9951">file</text></g><!--class Measurement--><g id="elem_Measurement"><rect fill="#F1F1F1" height="48" id="Measurement" rx="2.5" ry="2.5" style="stroke:#181818;stroke-width:0.5;" width="130" x="226" y="167.5"/><ellipse cx="241" cy="183.5" fill="#ADD1B2" rx="11" ry="11" style="stroke:#181818;stroke-width:1.0;"/><path d="M243.9844,189.1406 Q243.4063,189.4375 242.7656,189.5781 Q242.125,189.7344 241.4219,189.7344 Q238.9063,189.7344 237.5781,188.0938 Q236.2656,186.4375 236.2656,183.3125 Q236.2656,180.1719 237.5781,178.5313 Q238.9063,176.875 241.4219,176.875 Q242.125,176.875 242.7656,177.0313 Q243.4219,177.1719 243.9844,177.4688 L243.9844,180.1875 Q243.3438,179.6094 242.75,179.3438 Q242.1563,179.0781 241.5313,179.0781 Q240.1875,179.0781 239.5,180.1406 Q238.8125,181.2031 238.8125,183.3125 Q238.8125,185.4063 239.5,186.4844 Q240.1875,187.5469 241.5313,187.5469 Q242.1563,187.5469 242.75,187.2813 Q243.3438,187 243.9844,186.4219 L243.9844,189.1406 Z " fill="#000000"/><text fill="#000000" font-family="sans-serif" font-size="14" lengthAdjust="spacing" textLength="98" x="255" y="188.3467">Measurement</text><line style="stroke:#181818;stroke-width:0.5;" x1="227" x2="355" y1="199.5" y2="199.5"/><line style="stroke:#181818;stroke-width:0.5;" x1="227" x2="355" y1="207.5" y2="207.5"/></g><!--class Data--><g id="elem_Data"><rect codeLine="32" fill="#F1F1F1" height="96.8906" id="Data" rx="2.5" ry="2.5" style="stroke:#181818;stroke-width:0.5;" width="210" x="391" y="143"/><ellipse cx="474.75" cy="159" fill="#ADD1B2" rx="11" ry="11" style="stroke:#181818;stroke-width:1.0;"/><path d="M477.7344,164.6406 Q477.1563,164.9375 476.5156,165.0781 Q475.875,165.2344 475.1719,165.2344 Q472.6563,165.2344 471.3281,163.5938 Q470.0156,161.9375 470.0156,158.8125 Q470.0156,155.6719 471.3281,154.0313 Q472.6563,152.375 475.1719,152.375 Q475.875,152.375 476.5156,152.5313 Q477.1719,152.6719 477.7344,152.9688 L477.7344,155.6875 Q477.0938,155.1094 476.5,154.8438 Q475.9063,154.5781 475.2813,154.5781 Q473.9375,154.5781 473.25,155.6406 Q472.5625,156.7031 472.5625,158.8125 Q472.5625,160.9063 473.25,161.9844 Q473.9375,163.0469 475.2813,163.0469 Q475.9063,163.0469 476.5,162.7813 Q477.0938,162.5 477.7344,161.9219 L477.7344,164.6406 Z " fill="#000000"/><text fill="#000000" font-family="sans-serif" font-size="14" lengthAdjust="spacing" textLength="34" x="495.25" y="163.8467">Data</text><line style="stroke:#181818;stroke-width:0.5;" x1="392" x2="600" y1="175" y2="175"/><text fill="#000000" font-family="sans-serif" font-size="14" lengthAdjust="spacing" textLength="123" x="397" y="191.9951">data : np.ndarray</text><text fill="#000000" font-family="sans-serif" font-size="14" lengthAdjust="spacing" textLength="115" x="397" y="208.292">axes[]: AxisData</text><text fill="#000000" font-family="sans-serif" font-size="14" lengthAdjust="spacing" textLength="198" x="397" y="224.5889">metadata : DeviceMetadata</text><line style="stroke:#181818;stroke-width:0.5;" x1="392" x2="600" y1="231.8906" y2="231.8906"/></g><!--class Axis--><g id="elem_Axis"><rect codeLine="38" fill="#F1F1F1" height="129.4844" id="Axis" rx="2.5" ry="2.5" style="stroke:#181818;stroke-width:0.5;" width="135" x="636.5" y="127"/><ellipse cx="685.25" cy="143" fill="#ADD1B2" rx="11" ry="11" style="stroke:#181818;stroke-width:1.0;"/><path d="M688.2344,148.6406 Q687.6563,148.9375 687.0156,149.0781 Q686.375,149.2344 685.6719,149.2344 Q683.1563,149.2344 681.8281,147.5938 Q680.5156,145.9375 680.5156,142.8125 Q680.5156,139.6719 681.8281,138.0313 Q683.1563,136.375 685.6719,136.375 Q686.375,136.375 687.0156,136.5313 Q687.6719,136.6719 688.2344,136.9688 L688.2344,139.6875 Q687.5938,139.1094 687,138.8438 Q686.4063,138.5781 685.7813,138.5781 Q684.4375,138.5781 683.75,139.6406 Q683.0625,140.7031 683.0625,142.8125 Q683.0625,144.9063 683.75,145.9844 Q684.4375,147.0469 685.7813,147.0469 Q686.4063,147.0469 687,146.7813 Q687.5938,146.5 688.2344,145.9219 L688.2344,148.6406 Z " fill="#000000"/><text fill="#000000" font-family="sans-serif" font-size="14" lengthAdjust="spacing" textLength="29" x="705.75" y="147.8467">Axis</text><line style="stroke:#181818;stroke-width:0.5;" x1="637.5" x2="770.5" y1="159" y2="159"/><text fill="#000000" font-family="sans-serif" font-size="14" lengthAdjust="spacing" textLength="123" x="642.5" y="175.9951">data : np.ndarray</text><text fill="#000000" font-family="sans-serif" font-size="14" lengthAdjust="spacing" textLength="84" x="642.5" y="192.292">label: string</text><text fill="#000000" font-family="sans-serif" font-size="14" lengthAdjust="spacing" textLength="111" x="642.5" y="208.5889">quantity : string</text><text fill="#000000" font-family="sans-serif" font-size="14" lengthAdjust="spacing" textLength="104" x="642.5" y="224.8857">symbol : string</text><text fill="#000000" font-family="sans-serif" font-size="14" lengthAdjust="spacing" textLength="80" x="642.5" y="241.1826">unit : string</text><line style="stroke:#181818;stroke-width:0.5;" x1="637.5" x2="770.5" y1="248.4844" y2="248.4844"/></g><!--class Metadata--><g id="elem_Metadata"><rect fill="#F1F1F1" height="48" id="Metadata" rx="2.5" ry="2.5" style="stroke:#181818;stroke-width:0.5;" width="99" x="70.5" y="167.5"/><ellipse cx="85.5" cy="183.5" fill="#ADD1B2" rx="11" ry="11" style="stroke:#181818;stroke-width:1.0;"/><path d="M88.4844,189.1406 Q87.9063,189.4375 87.2656,189.5781 Q86.625,189.7344 85.9219,189.7344 Q83.4063,189.7344 82.0781,188.0938 Q80.7656,186.4375 80.7656,183.3125 Q80.7656,180.1719 82.0781,178.5313 Q83.4063,176.875 85.9219,176.875 Q86.625,176.875 87.2656,177.0313 Q87.9219,177.1719 88.4844,177.4688 L88.4844,180.1875 Q87.8438,179.6094 87.25,179.3438 Q86.6563,179.0781 86.0313,179.0781 Q84.6875,179.0781 84,180.1406 Q83.3125,181.2031 83.3125,183.3125 Q83.3125,185.4063 84,186.4844 Q84.6875,187.5469 86.0313,187.5469 Q86.6563,187.5469 87.25,187.2813 Q87.8438,187 88.4844,186.4219 L88.4844,189.1406 Z " fill="#000000"/><text fill="#000000" font-family="sans-serif" font-size="14" lengthAdjust="spacing" textLength="67" x="99.5" y="188.3467">Metadata</text><line style="stroke:#181818;stroke-width:0.5;" x1="71.5" x2="168.5" y1="199.5" y2="199.5"/><line style="stroke:#181818;stroke-width:0.5;" x1="71.5" x2="168.5" y1="207.5" y2="207.5"/></g><!--class Scan--><g id="elem_Scan"><rect codeLine="25" fill="#F1F1F1" height="48" id="Scan" rx="2.5" ry="2.5" style="stroke:#181818;stroke-width:0.5;" width="67" x="414.5" y="749"/><ellipse cx="429.5" cy="765" fill="#ADD1B2" rx="11" ry="11" style="stroke:#181818;stroke-width:1.0;"/><path d="M432.4844,770.6406 Q431.9063,770.9375 431.2656,771.0781 Q430.625,771.2344 429.9219,771.2344 Q427.4063,771.2344 426.0781,769.5938 Q424.7656,767.9375 424.7656,764.8125 Q424.7656,761.6719 426.0781,760.0313 Q427.4063,758.375 429.9219,758.375 Q430.625,758.375 431.2656,758.5313 Q431.9219,758.6719 432.4844,758.9688 L432.4844,761.6875 Q431.8438,761.1094 431.25,760.8438 Q430.6563,760.5781 430.0313,760.5781 Q428.6875,760.5781 428,761.6406 Q427.3125,762.7031 427.3125,764.8125 Q427.3125,766.9063 428,767.9844 Q428.6875,769.0469 430.0313,769.0469 Q430.6563,769.0469 431.25,768.7813 Q431.8438,768.5 432.4844,767.9219 L432.4844,770.6406 Z " fill="#000000"/><text fill="#000000" font-family="sans-serif" font-size="14" lengthAdjust="spacing" textLength="35" x="443.5" y="769.8467">Scan</text><line style="stroke:#181818;stroke-width:0.5;" x1="415.5" x2="480.5" y1="781" y2="781"/><line style="stroke:#181818;stroke-width:0.5;" x1="415.5" x2="480.5" y1="789" y2="789"/></g><!--class Station--><g id="elem_Station"><rect codeLine="28" fill="#F1F1F1" height="48" id="Station" rx="2.5" ry="2.5" style="stroke:#181818;stroke-width:0.5;" width="82" x="297" y="749"/><ellipse cx="312" cy="765" fill="#ADD1B2" rx="11" ry="11" style="stroke:#181818;stroke-width:1.0;"/><path d="M314.9844,770.6406 Q314.4063,770.9375 313.7656,771.0781 Q313.125,771.2344 312.4219,771.2344 Q309.9063,771.2344 308.5781,769.5938 Q307.2656,767.9375 307.2656,764.8125 Q307.2656,761.6719 308.5781,760.0313 Q309.9063,758.375 312.4219,758.375 Q313.125,758.375 313.7656,758.5313 Q314.4219,758.6719 314.9844,758.9688 L314.9844,761.6875 Q314.3438,761.1094 313.75,760.8438 Q313.1563,760.5781 312.5313,760.5781 Q311.1875,760.5781 310.5,761.6406 Q309.8125,762.7031 309.8125,764.8125 Q309.8125,766.9063 310.5,767.9844 Q311.1875,769.0469 312.5313,769.0469 Q313.1563,769.0469 313.75,768.7813 Q314.3438,768.5 314.9844,767.9219 L314.9844,770.6406 Z " fill="#000000"/><text fill="#000000" font-family="sans-serif" font-size="14" lengthAdjust="spacing" textLength="50" x="326" y="769.8467">Station</text><line style="stroke:#181818;stroke-width:0.5;" x1="298" x2="378" y1="781" y2="781"/><line style="stroke:#181818;stroke-width:0.5;" x1="298" x2="378" y1="789" y2="789"/></g><!--class Measurement--><g id="elem_Measurement"><rect codeLine="3" fill="#F1F1F1" height="276.1563" id="Measurement" rx="2.5" ry="2.5" style="stroke:#181818;stroke-width:0.5;" width="306" x="240" y="336"/><ellipse cx="339.75" cy="352" fill="#ADD1B2" rx="11" ry="11" style="stroke:#181818;stroke-width:1.0;"/><path d="M342.7344,357.6406 Q342.1563,357.9375 341.5156,358.0781 Q340.875,358.2344 340.1719,358.2344 Q337.6563,358.2344 336.3281,356.5938 Q335.0156,354.9375 335.0156,351.8125 Q335.0156,348.6719 336.3281,347.0313 Q337.6563,345.375 340.1719,345.375 Q340.875,345.375 341.5156,345.5313 Q342.1719,345.6719 342.7344,345.9688 L342.7344,348.6875 Q342.0938,348.1094 341.5,347.8438 Q340.9063,347.5781 340.2813,347.5781 Q338.9375,347.5781 338.25,348.6406 Q337.5625,349.7031 337.5625,351.8125 Q337.5625,353.9063 338.25,354.9844 Q338.9375,356.0469 340.2813,356.0469 Q340.9063,356.0469 341.5,355.7813 Q342.0938,355.5 342.7344,354.9219 L342.7344,357.6406 Z " fill="#000000"/><text fill="#000000" font-family="sans-serif" font-size="14" lengthAdjust="spacing" textLength="98" x="360.25" y="356.8467">Measurement</text><line style="stroke:#181818;stroke-width:0.5;" x1="241" x2="545" y1="368" y2="368"/><text fill="#000000" font-family="sans-serif" font-size="14" lengthAdjust="spacing" textLength="219" x="246" y="384.9951">scan_modules{} : ScanModule</text><text fill="#000000" font-family="sans-serif" font-size="14" lengthAdjust="spacing" textLength="289" x="246" y="401.292">machine{} : MeasureData | MonitorData</text><text fill="#000000" font-family="sans-serif" font-size="14" lengthAdjust="spacing" textLength="294" x="246" y="417.5889">beamline{} : MeasureData | MonitorData</text><text fill="#000000" font-family="sans-serif" font-size="14" lengthAdjust="spacing" textLength="251" x="246" y="433.8857">device_snapshots{} : MeasureData</text><text fill="#000000" font-family="sans-serif" font-size="14" lengthAdjust="spacing" textLength="149" x="246" y="450.1826">metadata : Metadata</text><text fill="#000000" font-family="sans-serif" font-size="14" lengthAdjust="spacing" textLength="81" x="246" y="466.4795">scan : Scan</text><text fill="#000000" font-family="sans-serif" font-size="14" lengthAdjust="spacing" textLength="111" x="246" y="482.7764">station : Station</text><text fill="#000000" font-family="sans-serif" font-size="14" lengthAdjust="spacing" textLength="211" x="246" y="499.0732">log_messages[] : LogMessage</text><text fill="#000000" font-family="sans-serif" font-size="14" lengthAdjust="spacing" textLength="79" x="246" y="515.3701">data : Data</text><line style="stroke:#181818;stroke-width:0.5;" x1="241" x2="545" y1="522.6719" y2="522.6719"/><text fill="#000000" font-family="sans-serif" font-size="14" lengthAdjust="spacing" textLength="104" x="246" y="539.667">load(filename)</text><text fill="#000000" font-family="sans-serif" font-size="14" lengthAdjust="spacing" textLength="106" x="246" y="555.9639">save(filename)</text><text fill="#000000" font-family="sans-serif" font-size="14" lengthAdjust="spacing" textLength="175" x="246" y="572.2607">export(filename, format)</text><text fill="#000000" font-family="sans-serif" font-size="14" lengthAdjust="spacing" textLength="150" x="246" y="588.5576">set_data(name, field)</text><text fill="#000000" font-family="sans-serif" font-size="14" lengthAdjust="spacing" textLength="185" x="246" y="604.8545">set_axes(names[], fields[])</text></g><!--reverse link Measurement to Measurement--><g id="link_Measurement_Measurement"><path d="M305.6724,232.8459 C315.4924,259.8459 326.28,289.51 343.07,335.68 " fill="none" id="Measurement-backto-Measurement" style="stroke:#181818;stroke-width:1.0;"/><polygon fill="none" points="299.52,215.93,300.0337,234.8967,311.311,230.7951,299.52,215.93" style="stroke:#181818;stroke-width:1.0;"/></g><!--reverse link Measurement to Metadata--><g id="link_Measurement_Metadata"><path codeLine="21" d="M231.4467,331.9131 C227.3767,327.7931 231.84,332.18 228,328 C195.31,292.45 166.14,243.94 145,215.64 " fill="none" id="Measurement-backto-Metadata" style="stroke:#181818;stroke-width:1.0;"/><polygon fill="#181818" points="239.88,340.45,238.509,333.3704,231.4467,331.9131,232.8177,338.9926,239.88,340.45" style="stroke:#181818;stroke-width:1.0;"/></g><!--link Metadata to Measurement--><!--reverse link Measurement to Scan--><g id="link_Measurement_Scan"><path codeLine="22" d="M420.5948,623.9994 C430.3048,676.4394 438.18,718.96 443.71,748.82 " fill="none" id="Measurement-backto-Scan" style="stroke:#181818;stroke-width:1.0;"/><polygon fill="#181818" points="418.41,612.2,415.5693,618.828,420.5948,623.9994,423.4356,617.3714,418.41,612.2" style="stroke:#181818;stroke-width:1.0;"/></g><!--reverse link Measurement to Station--><g id="link_Measurement_Station"><path codeLine="23" d="M365.4052,623.9994 C355.6952,676.4394 347.82,718.96 342.29,748.82 " fill="none" id="Measurement-backto-Station" style="stroke:#181818;stroke-width:1.0;"/><polygon fill="#181818" points="367.59,612.2,362.5644,617.3714,365.4052,623.9994,370.4307,618.828,367.59,612.2" style="stroke:#181818;stroke-width:1.0;"/></g><!--reverse link Data to Axis--><g id="link_Data_Axis"><path codeLine="46" d="M613.22,191.5 C624.86,191.5 624.51,191.5 636.15,191.5 " fill="none" id="Data-backto-Axis" style="stroke:#181818;stroke-width:1.0;"/><polygon fill="#181818" points="601.22,191.5,607.22,195.5,613.22,191.5,607.22,187.5,601.22,191.5" style="stroke:#181818;stroke-width:1.0;"/><text fill="#000000" font-family="sans-serif" font-size="13" lengthAdjust="spacing" textLength="8" x="620.2914" y="187.7274">n</text></g><!--link Data to Measurement--><g id="link_Data_Measurement"><path codeLine="48" d="M468.67,240.08 C456.9,266.73 447.2988,290.189 434.6988,324.669 " fill="none" id="Data-to-Measurement" style="stroke:#181818;stroke-width:1.0;"/><polygon fill="#181818" points="430.58,335.94,436.3964,331.6774,434.6988,324.669,428.8824,328.9316,430.58,335.94" style="stroke:#181818;stroke-width:1.0;"/></g><!--link Data to Measurement--><!--SRC=[ZLDDRy8m3BttLqHSDj1QxXmcJTfnd7P429d6Av7oqTKf0Z7- -r8dAWMDqKgLulVyRDTvVTfvNzDYFgyrMDyQNPJEp4iDHBbKK3LWien3iKIWja63rWiyUBIIXBbWHNYLLqZ541oAJfa83vLWDyR9LYETpc8XFWEmv9Xv0-LEMMGggT_1W_WHIsULTqqNSUOMmUXngHBtgiGDMQXfvppTIc9dz20xVKV5OpzncZF67hno3CKJezfL6uD4K26jre7ySDKond64M9cx9G78vo-bqOB1QQmCUxo1y52xnlVWY_XoZG6Vyj5lkhhFYLAevOM10n8pOPv4XjCqEsVPy5fcUNxl7kCIYduRjpBSOpVOHS8HBsfaQbfWijZzUi4yvmTPwLOuCMK-j2VRvJIy7riNLaBJm97HReUhzKAy7HJzPPHtDbQ_eFFepbt1VpjhsA9U1BCrobQCVBVGLJgAAvIEPklqDTO6zr-GC1H_vooVs0b_IGBosV2dph9nBX3vQgUaHBlENqVfRzRTow_Llm00]--></g></svg>