<?xml version="1.0" encoding="us-ascii" standalone="no"?><svg xmlns="http://www.w3.org/2000/svg" xmlns:xlink="http://www.w3.org/1999/xlink" contentStyleType="text/css" height="1100px" preserveAspectRatio="none" style="width:1686px;height:1100px;background:#FFFFFF;" version="1.1" viewBox="0 0 1686 1100" width="1686px" zoomAndPan="magnify"><defs/><g><!--class Data--><g id="elem_Data"><rect codeLine="3" fill="#F1F1F1" height="113.1875" id="Data" rx="2.5" ry="2.5" style="stroke:#181818;stroke-width:0.5;" width="190" x="948.5" y="35"/><ellipse cx="1022.25" cy="51" fill="#ADD1B2" rx="11" ry="11" style="stroke:#181818;stroke-width:1.0;"/><path d="M1025.2188,56.6406 Q1024.6406,56.9375 1024,57.0781 Q1023.3594,57.2344 1022.6563,57.2344 Q1020.1563,57.2344 1018.8281,55.5938 Q1017.5156,53.9375 1017.5156,50.8125 Q1017.5156,47.6875 1018.8281,46.0313 Q1020.1563,44.375 1022.6563,44.375 Q1023.3594,44.375 1024,44.5313 Q1024.6563,44.6875 1025.2188,44.9844 L1025.2188,47.7031 Q1024.5938,47.125 1024,46.8594 Q1023.4063,46.5781 1022.7813,46.5781 Q1021.4375,46.5781 1020.75,47.6563 Q1020.0625,48.7188 1020.0625,50.8125 Q1020.0625,52.9063 1020.75,53.9844 Q1021.4375,55.0469 1022.7813,55.0469 Q1023.4063,55.0469 1024,54.7813 Q1024.5938,54.5 1025.2188,53.9219 L1025.2188,56.6406 Z " fill="#000000"/><text fill="#000000" font-family="sans-serif" font-size="14" lengthAdjust="spacing" textLength="34" x="1042.75" y="55.8467">Data</text><line style="stroke:#181818;stroke-width:0.5;" x1="949.5" x2="1137.5" y1="67" y2="67"/><text fill="#000000" font-family="sans-serif" font-size="14" lengthAdjust="spacing" textLength="149" x="954.5" y="83.9951">metadata : Metadata</text><text fill="#000000" font-family="sans-serif" font-size="14" lengthAdjust="spacing" textLength="130" x="954.5" y="100.292">_data : np.ndarray</text><text fill="#000000" font-family="sans-serif" font-size="14" lengthAdjust="spacing" textLength="178" x="954.5" y="116.5889">_importer : DataImporter</text><line style="stroke:#181818;stroke-width:0.5;" x1="949.5" x2="1137.5" y1="123.8906" y2="123.8906"/><text fill="#000000" font-family="sans-serif" font-size="14" lengthAdjust="spacing" textLength="42" x="954.5" y="140.8857">data()</text></g><path d="M491.5,6 L491.5,167.3281 A0,0 0 0 0 491.5,167.3281 L913.5,167.3281 A0,0 0 0 0 913.5,167.3281 L913.5,90.6641 L952.5,95.4453 L913.5,82.6641 L913.5,16 L903.5,6 L491.5,6 A0,0 0 0 0 491.5,6 " fill="#FEFFDD" style="stroke:#181818;stroke-width:0.5;"/><path d="M903.5,6 L903.5,16 L913.5,16 L903.5,6 " fill="#FEFFDD" style="stroke:#181818;stroke-width:0.5;"/><text fill="#000000" font-family="sans-serif" font-size="13" lengthAdjust="spacing" textLength="337" x="497.5" y="23.0669">"_data" usually contains a 1D array and is accessed</text><text fill="#000000" font-family="sans-serif" font-size="13" lengthAdjust="spacing" textLength="333" x="497.5" y="38.1997">via the data() getter method (Python property) that</text><text fill="#000000" font-family="sans-serif" font-size="13" lengthAdjust="spacing" textLength="331" x="497.5" y="53.3325">calls the DataImporter on first access if necessary.</text><text fill="#000000" font-family="sans-serif" font-size="13" lengthAdjust="spacing" textLength="4" x="497.5" y="68.4653">&#160;</text><text fill="#000000" font-family="sans-serif" font-size="13" lengthAdjust="spacing" textLength="322" x="497.5" y="83.5981">For individual channel values see derived classes</text><text fill="#000000" font-family="sans-serif" font-size="13" lengthAdjust="spacing" textLength="308" x="497.5" y="98.731">AverageChannelData and IntervalChannelData.</text><text fill="#000000" font-family="sans-serif" font-size="13" lengthAdjust="spacing" textLength="4" x="497.5" y="113.8638">&#160;</text><text fill="#000000" font-family="sans-serif" font-size="13" lengthAdjust="spacing" textLength="362" x="497.5" y="128.9966">ArrayChannelData and AreaChannelData are somewhat</text><text fill="#000000" font-family="sans-serif" font-size="13" lengthAdjust="spacing" textLength="401" x="497.5" y="144.1294">special as they contain either 2D data or a list of data objects</text><text fill="#000000" font-family="sans-serif" font-size="13" lengthAdjust="spacing" textLength="193" x="497.5" y="159.2622">(in case of images and alike).</text><!--class DataImporter--><g id="elem_DataImporter"><rect codeLine="22" fill="#F1F1F1" height="80.5938" id="DataImporter" rx="2.5" ry="2.5" style="stroke:#181818;stroke-width:0.5;" width="128" x="1173.5" y="51"/><ellipse cx="1188.5" cy="67" fill="#ADD1B2" rx="11" ry="11" style="stroke:#181818;stroke-width:1.0;"/><path d="M1191.4688,72.6406 Q1190.8906,72.9375 1190.25,73.0781 Q1189.6094,73.2344 1188.9063,73.2344 Q1186.4063,73.2344 1185.0781,71.5938 Q1183.7656,69.9375 1183.7656,66.8125 Q1183.7656,63.6875 1185.0781,62.0313 Q1186.4063,60.375 1188.9063,60.375 Q1189.6094,60.375 1190.25,60.5313 Q1190.9063,60.6875 1191.4688,60.9844 L1191.4688,63.7031 Q1190.8438,63.125 1190.25,62.8594 Q1189.6563,62.5781 1189.0313,62.5781 Q1187.6875,62.5781 1187,63.6563 Q1186.3125,64.7188 1186.3125,66.8125 Q1186.3125,68.9063 1187,69.9844 Q1187.6875,71.0469 1189.0313,71.0469 Q1189.6563,71.0469 1190.25,70.7813 Q1190.8438,70.5 1191.4688,69.9219 L1191.4688,72.6406 Z " fill="#000000"/><text fill="#000000" font-family="sans-serif" font-size="14" lengthAdjust="spacing" textLength="96" x="1202.5" y="71.8467">DataImporter</text><line style="stroke:#181818;stroke-width:0.5;" x1="1174.5" x2="1300.5" y1="83" y2="83"/><text fill="#000000" font-family="sans-serif" font-size="14" lengthAdjust="spacing" textLength="48" x="1179.5" y="99.9951">source</text><line style="stroke:#181818;stroke-width:0.5;" x1="1174.5" x2="1300.5" y1="107.2969" y2="107.2969"/><text fill="#000000" font-family="sans-serif" font-size="14" lengthAdjust="spacing" textLength="57" x="1179.5" y="124.292">import()</text></g><!--class Metadata--><g id="elem_Metadata"><rect codeLine="27" fill="#F1F1F1" height="48" id="Metadata" rx="2.5" ry="2.5" style="stroke:#181818;stroke-width:0.5;" width="99" x="610" y="245"/><ellipse cx="625" cy="261" fill="#ADD1B2" rx="11" ry="11" style="stroke:#181818;stroke-width:1.0;"/><path d="M627.9688,266.6406 Q627.3906,266.9375 626.75,267.0781 Q626.1094,267.2344 625.4063,267.2344 Q622.9063,267.2344 621.5781,265.5938 Q620.2656,263.9375 620.2656,260.8125 Q620.2656,257.6875 621.5781,256.0313 Q622.9063,254.375 625.4063,254.375 Q626.1094,254.375 626.75,254.5313 Q627.4063,254.6875 627.9688,254.9844 L627.9688,257.7031 Q627.3438,257.125 626.75,256.8594 Q626.1563,256.5781 625.5313,256.5781 Q624.1875,256.5781 623.5,257.6563 Q622.8125,258.7188 622.8125,260.8125 Q622.8125,262.9063 623.5,263.9844 Q624.1875,265.0469 625.5313,265.0469 Q626.1563,265.0469 626.75,264.7813 Q627.3438,264.5 627.9688,263.9219 L627.9688,266.6406 Z " fill="#000000"/><text fill="#000000" font-family="sans-serif" font-size="14" lengthAdjust="spacing" textLength="67" x="639" y="265.8467">Metadata</text><line style="stroke:#181818;stroke-width:0.5;" x1="611" x2="708" y1="277" y2="277"/><line style="stroke:#181818;stroke-width:0.5;" x1="611" x2="708" y1="285" y2="285"/></g><g id="elem_GMN7"><path d="M744,249 L744,265 L709.15,269 L744,273 L744,289.2656 A0,0 0 0 0 744,289.2656 L885,289.2656 A0,0 0 0 0 885,289.2656 L885,259 L875,249 L744,249 A0,0 0 0 0 744,249 " fill="#FEFFDD" style="stroke:#181818;stroke-width:0.5;"/><path d="M875,249 L875,259 L885,259 L875,249 " fill="#FEFFDD" style="stroke:#181818;stroke-width:0.5;"/><text fill="#000000" font-family="sans-serif" font-size="13" lengthAdjust="spacing" textLength="104" x="750" y="266.0669">See diagram for</text><text fill="#000000" font-family="sans-serif" font-size="13" lengthAdjust="spacing" textLength="120" x="750" y="281.1997">metadata module.</text></g><!--class MeasureData--><g id="elem_MeasureData"><rect codeLine="34" fill="#F1F1F1" height="64.2969" id="MeasureData" rx="2.5" ry="2.5" style="stroke:#181818;stroke-width:0.5;" width="246" x="920.5" y="237"/><ellipse cx="991.75" cy="253" fill="#ADD1B2" rx="11" ry="11" style="stroke:#181818;stroke-width:1.0;"/><path d="M994.7188,258.6406 Q994.1406,258.9375 993.5,259.0781 Q992.8594,259.2344 992.1563,259.2344 Q989.6563,259.2344 988.3281,257.5938 Q987.0156,255.9375 987.0156,252.8125 Q987.0156,249.6875 988.3281,248.0313 Q989.6563,246.375 992.1563,246.375 Q992.8594,246.375 993.5,246.5313 Q994.1563,246.6875 994.7188,246.9844 L994.7188,249.7031 Q994.0938,249.125 993.5,248.8594 Q992.9063,248.5781 992.2813,248.5781 Q990.9375,248.5781 990.25,249.6563 Q989.5625,250.7188 989.5625,252.8125 Q989.5625,254.9063 990.25,255.9844 Q990.9375,257.0469 992.2813,257.0469 Q992.9063,257.0469 993.5,256.7813 Q994.0938,256.5 994.7188,255.9219 L994.7188,258.6406 Z " fill="#000000"/><text fill="#000000" font-family="sans-serif" font-size="14" lengthAdjust="spacing" textLength="95" x="1012.25" y="257.8467">MeasureData</text><line style="stroke:#181818;stroke-width:0.5;" x1="921.5" x2="1165.5" y1="269" y2="269"/><text fill="#000000" font-family="sans-serif" font-size="14" lengthAdjust="spacing" textLength="234" x="926.5" y="285.9951">positions : np.ndarray(dtype=int)</text><line style="stroke:#181818;stroke-width:0.5;" x1="921.5" x2="1165.5" y1="293.2969" y2="293.2969"/></g><!--class MonitorData--><g id="elem_MonitorData"><rect codeLine="38" fill="#F1F1F1" height="64.2969" id="MonitorData" rx="2.5" ry="2.5" style="stroke:#181818;stroke-width:0.5;" width="271" x="1202" y="237"/><ellipse cx="1289.25" cy="253" fill="#ADD1B2" rx="11" ry="11" style="stroke:#181818;stroke-width:1.0;"/><path d="M1292.2188,258.6406 Q1291.6406,258.9375 1291,259.0781 Q1290.3594,259.2344 1289.6563,259.2344 Q1287.1563,259.2344 1285.8281,257.5938 Q1284.5156,255.9375 1284.5156,252.8125 Q1284.5156,249.6875 1285.8281,248.0313 Q1287.1563,246.375 1289.6563,246.375 Q1290.3594,246.375 1291,246.5313 Q1291.6563,246.6875 1292.2188,246.9844 L1292.2188,249.7031 Q1291.5938,249.125 1291,248.8594 Q1290.4063,248.5781 1289.7813,248.5781 Q1288.4375,248.5781 1287.75,249.6563 Q1287.0625,250.7188 1287.0625,252.8125 Q1287.0625,254.9063 1287.75,255.9844 Q1288.4375,257.0469 1289.7813,257.0469 Q1290.4063,257.0469 1291,256.7813 Q1291.5938,256.5 1292.2188,255.9219 L1292.2188,258.6406 Z " fill="#000000"/><text fill="#000000" font-family="sans-serif" font-size="14" lengthAdjust="spacing" textLength="88" x="1309.75" y="257.8467">MonitorData</text><line style="stroke:#181818;stroke-width:0.5;" x1="1203" x2="1472" y1="269" y2="269"/><text fill="#000000" font-family="sans-serif" font-size="14" lengthAdjust="spacing" textLength="259" x="1208" y="285.9951">milliseconds : np.ndarray(dtype=int)</text><line style="stroke:#181818;stroke-width:0.5;" x1="1203" x2="1472" y1="293.2969" y2="293.2969"/></g><!--class AxisData--><g id="elem_AxisData"><rect codeLine="42" fill="#F1F1F1" height="80.5938" id="AxisData" rx="2.5" ry="2.5" style="stroke:#181818;stroke-width:0.5;" width="96" x="539.5" y="369"/><ellipse cx="554.95" cy="385" fill="#ADD1B2" rx="11" ry="11" style="stroke:#181818;stroke-width:1.0;"/><path d="M557.9188,390.6406 Q557.3406,390.9375 556.7,391.0781 Q556.0594,391.2344 555.3563,391.2344 Q552.8563,391.2344 551.5281,389.5938 Q550.2156,387.9375 550.2156,384.8125 Q550.2156,381.6875 551.5281,380.0313 Q552.8563,378.375 555.3563,378.375 Q556.0594,378.375 556.7,378.5313 Q557.3563,378.6875 557.9188,378.9844 L557.9188,381.7031 Q557.2938,381.125 556.7,380.8594 Q556.1063,380.5781 555.4813,380.5781 Q554.1375,380.5781 553.45,381.6563 Q552.7625,382.7188 552.7625,384.8125 Q552.7625,386.9063 553.45,387.9844 Q554.1375,389.0469 555.4813,389.0469 Q556.1063,389.0469 556.7,388.7813 Q557.2938,388.5 557.9188,387.9219 L557.9188,390.6406 Z " fill="#000000"/><text fill="#000000" font-family="sans-serif" font-size="14" lengthAdjust="spacing" textLength="63" x="569.05" y="389.8467">AxisData</text><line style="stroke:#181818;stroke-width:0.5;" x1="540.5" x2="634.5" y1="401" y2="401"/><text fill="#000000" font-family="sans-serif" font-size="14" lengthAdjust="spacing" textLength="81" x="545.5" y="417.9951">_filled_data</text><line style="stroke:#181818;stroke-width:0.5;" x1="540.5" x2="634.5" y1="425.2969" y2="425.2969"/><text fill="#000000" font-family="sans-serif" font-size="14" lengthAdjust="spacing" textLength="84" x="545.5" y="442.292">filled_data()</text></g><g id="elem_GMN18"><path d="M671,374 L671,405.5 L635.84,409.5 L671,413.5 L671,444.5313 A0,0 0 0 0 671,444.5313 L946,444.5313 A0,0 0 0 0 946,444.5313 L946,384 L936,374 L671,374 A0,0 0 0 0 671,374 " fill="#FEFFDD" style="stroke:#181818;stroke-width:0.5;"/><path d="M936,374 L936,384 L946,384 L936,374 " fill="#FEFFDD" style="stroke:#181818;stroke-width:0.5;"/><text fill="#000000" font-family="sans-serif" font-size="13" lengthAdjust="spacing" textLength="210" x="677" y="391.0669">Data are filled depending on the</text><text fill="#000000" font-family="sans-serif" font-size="13" lengthAdjust="spacing" textLength="248" x="677" y="406.1997">ChannelData they are plotted against.</text><text fill="#000000" font-family="sans-serif" font-size="13" lengthAdjust="spacing" textLength="254" x="677" y="421.3325">Hence for different channels, generally</text><text fill="#000000" font-family="sans-serif" font-size="13" lengthAdjust="spacing" textLength="193" x="677" y="436.4653">different filled data will exist.</text></g><!--class ChannelData--><g id="elem_ChannelData"><rect codeLine="53" fill="#F1F1F1" height="48" id="ChannelData" rx="2.5" ry="2.5" style="stroke:#181818;stroke-width:0.5;" width="125" x="981" y="385.5"/><ellipse cx="996" cy="401.5" fill="#ADD1B2" rx="11" ry="11" style="stroke:#181818;stroke-width:1.0;"/><path d="M998.9688,407.1406 Q998.3906,407.4375 997.75,407.5781 Q997.1094,407.7344 996.4063,407.7344 Q993.9063,407.7344 992.5781,406.0938 Q991.2656,404.4375 991.2656,401.3125 Q991.2656,398.1875 992.5781,396.5313 Q993.9063,394.875 996.4063,394.875 Q997.1094,394.875 997.75,395.0313 Q998.4063,395.1875 998.9688,395.4844 L998.9688,398.2031 Q998.3438,397.625 997.75,397.3594 Q997.1563,397.0781 996.5313,397.0781 Q995.1875,397.0781 994.5,398.1563 Q993.8125,399.2188 993.8125,401.3125 Q993.8125,403.4063 994.5,404.4844 Q995.1875,405.5469 996.5313,405.5469 Q997.1563,405.5469 997.75,405.2813 Q998.3438,405 998.9688,404.4219 L998.9688,407.1406 Z " fill="#000000"/><text fill="#000000" font-family="sans-serif" font-size="14" lengthAdjust="spacing" textLength="93" x="1010" y="406.3467">ChannelData</text><line style="stroke:#181818;stroke-width:0.5;" x1="982" x2="1105" y1="417.5" y2="417.5"/><line style="stroke:#181818;stroke-width:0.5;" x1="982" x2="1105" y1="425.5" y2="425.5"/></g><!--class TimestampData--><g id="elem_TimestampData"><rect codeLine="56" fill="#F1F1F1" height="96.8906" id="TimestampData" rx="2.5" ry="2.5" style="stroke:#181818;stroke-width:0.5;" width="287" x="1141" y="361"/><ellipse cx="1223.25" cy="377" fill="#ADD1B2" rx="11" ry="11" style="stroke:#181818;stroke-width:1.0;"/><path d="M1226.2188,382.6406 Q1225.6406,382.9375 1225,383.0781 Q1224.3594,383.2344 1223.6563,383.2344 Q1221.1563,383.2344 1219.8281,381.5938 Q1218.5156,379.9375 1218.5156,376.8125 Q1218.5156,373.6875 1219.8281,372.0313 Q1221.1563,370.375 1223.6563,370.375 Q1224.3594,370.375 1225,370.5313 Q1225.6563,370.6875 1226.2188,370.9844 L1226.2188,373.7031 Q1225.5938,373.125 1225,372.8594 Q1224.4063,372.5781 1223.7813,372.5781 Q1222.4375,372.5781 1221.75,373.6563 Q1221.0625,374.7188 1221.0625,376.8125 Q1221.0625,378.9063 1221.75,379.9844 Q1222.4375,381.0469 1223.7813,381.0469 Q1224.4063,381.0469 1225,380.7813 Q1225.5938,380.5 1226.2188,379.9219 L1226.2188,382.6406 Z " fill="#000000"/><text fill="#000000" font-family="sans-serif" font-size="14" lengthAdjust="spacing" textLength="114" x="1243.75" y="381.8467">TimestampData</text><line style="stroke:#181818;stroke-width:0.5;" x1="1142" x2="1427" y1="393" y2="393"/><text fill="#000000" font-family="sans-serif" font-size="14" lengthAdjust="spacing" textLength="275" x="1147" y="409.9951">_first_positions : np.ndarray(dtype=int)</text><text fill="#000000" font-family="sans-serif" font-size="14" lengthAdjust="spacing" textLength="273" x="1147" y="426.292">_last_positions : np.ndarray(dtype=int)</text><line style="stroke:#181818;stroke-width:0.5;" x1="1142" x2="1427" y1="433.5938" y2="433.5938"/><text fill="#000000" font-family="sans-serif" font-size="14" lengthAdjust="spacing" textLength="258" x="1147" y="450.5889">get_position(timestamp, mode=last)</text></g><!--class SinglePointChannelData--><g id="elem_SinglePointChannelData"><rect codeLine="62" fill="#F1F1F1" height="48" id="SinglePointChannelData" rx="2.5" ry="2.5" style="stroke:#181818;stroke-width:0.5;" width="204" x="215.5" y="583"/><ellipse cx="230.5" cy="599" fill="#ADD1B2" rx="11" ry="11" style="stroke:#181818;stroke-width:1.0;"/><path d="M233.4688,604.6406 Q232.8906,604.9375 232.25,605.0781 Q231.6094,605.2344 230.9063,605.2344 Q228.4063,605.2344 227.0781,603.5938 Q225.7656,601.9375 225.7656,598.8125 Q225.7656,595.6875 227.0781,594.0313 Q228.4063,592.375 230.9063,592.375 Q231.6094,592.375 232.25,592.5313 Q232.9063,592.6875 233.4688,592.9844 L233.4688,595.7031 Q232.8438,595.125 232.25,594.8594 Q231.6563,594.5781 231.0313,594.5781 Q229.6875,594.5781 229,595.6563 Q228.3125,596.7188 228.3125,598.8125 Q228.3125,600.9063 229,601.9844 Q229.6875,603.0469 231.0313,603.0469 Q231.6563,603.0469 232.25,602.7813 Q232.8438,602.5 233.4688,601.9219 L233.4688,604.6406 Z " fill="#000000"/><text fill="#000000" font-family="sans-serif" font-size="14" lengthAdjust="spacing" textLength="172" x="244.5" y="603.8467">SinglePointChannelData</text><line style="stroke:#181818;stroke-width:0.5;" x1="216.5" x2="418.5" y1="615" y2="615"/><line style="stroke:#181818;stroke-width:0.5;" x1="216.5" x2="418.5" y1="623" y2="623"/></g><!--class SinglePointNormalizedChannelData--><g id="elem_SinglePointNormalizedChannelData"><rect codeLine="64" fill="#F1F1F1" height="80.5938" id="SinglePointNormalizedChannelData" rx="2.5" ry="2.5" style="stroke:#181818;stroke-width:0.5;" width="285" x="7" y="758.5"/><ellipse cx="22" cy="774.5" fill="#ADD1B2" rx="11" ry="11" style="stroke:#181818;stroke-width:1.0;"/><path d="M24.9688,780.1406 Q24.3906,780.4375 23.75,780.5781 Q23.1094,780.7344 22.4063,780.7344 Q19.9063,780.7344 18.5781,779.0938 Q17.2656,777.4375 17.2656,774.3125 Q17.2656,771.1875 18.5781,769.5313 Q19.9063,767.875 22.4063,767.875 Q23.1094,767.875 23.75,768.0313 Q24.4063,768.1875 24.9688,768.4844 L24.9688,771.2031 Q24.3438,770.625 23.75,770.3594 Q23.1563,770.0781 22.5313,770.0781 Q21.1875,770.0781 20.5,771.1563 Q19.8125,772.2188 19.8125,774.3125 Q19.8125,776.4063 20.5,777.4844 Q21.1875,778.5469 22.5313,778.5469 Q23.1563,778.5469 23.75,778.2813 Q24.3438,778 24.9688,777.4219 L24.9688,780.1406 Z " fill="#000000"/><text fill="#000000" font-family="sans-serif" font-size="14" lengthAdjust="spacing" textLength="253" x="36" y="779.3467">SinglePointNormalizedChannelData</text><line style="stroke:#181818;stroke-width:0.5;" x1="8" x2="291" y1="790.5" y2="790.5"/><text fill="#000000" font-family="sans-serif" font-size="14" lengthAdjust="spacing" textLength="210" x="13" y="807.4951">normalized_data : np.ndarray</text><text fill="#000000" font-family="sans-serif" font-size="14" lengthAdjust="spacing" textLength="214" x="13" y="823.792">normalizing_data : np.ndarray</text><line style="stroke:#181818;stroke-width:0.5;" x1="8" x2="291" y1="831.0938" y2="831.0938"/></g><!--class AverageChannelData--><g id="elem_AverageChannelData"><rect codeLine="69" fill="#F1F1F1" height="178.375" id="AverageChannelData" rx="2.5" ry="2.5" style="stroke:#181818;stroke-width:0.5;" width="246" x="622.5" y="518"/><ellipse cx="664.95" cy="534" fill="#ADD1B2" rx="11" ry="11" style="stroke:#181818;stroke-width:1.0;"/><path d="M667.9188,539.6406 Q667.3406,539.9375 666.7,540.0781 Q666.0594,540.2344 665.3563,540.2344 Q662.8563,540.2344 661.5281,538.5938 Q660.2156,536.9375 660.2156,533.8125 Q660.2156,530.6875 661.5281,529.0313 Q662.8563,527.375 665.3563,527.375 Q666.0594,527.375 666.7,527.5313 Q667.3563,527.6875 667.9188,527.9844 L667.9188,530.7031 Q667.2938,530.125 666.7,529.8594 Q666.1063,529.5781 665.4813,529.5781 Q664.1375,529.5781 663.45,530.6563 Q662.7625,531.7188 662.7625,533.8125 Q662.7625,535.9063 663.45,536.9844 Q664.1375,538.0469 665.4813,538.0469 Q666.1063,538.0469 666.7,537.7813 Q667.2938,537.5 667.9188,536.9219 L667.9188,539.6406 Z " fill="#000000"/><text fill="#000000" font-family="sans-serif" font-size="14" lengthAdjust="spacing" textLength="153" x="685.05" y="538.8467">AverageChannelData</text><line style="stroke:#181818;stroke-width:0.5;" x1="623.5" x2="867.5" y1="550" y2="550"/><text fill="#000000" font-family="sans-serif" font-size="14" lengthAdjust="spacing" textLength="167" x="628.5" y="566.9951">raw_data : raggedarray</text><text fill="#000000" font-family="sans-serif" font-size="14" lengthAdjust="spacing" textLength="234" x="628.5" y="583.292">attempts : np.ndarray(dtype=int)</text><text fill="#000000" font-family="sans-serif" font-size="14" lengthAdjust="spacing" textLength="139" x="628.5" y="599.5889">_mean : np.ndarray</text><text fill="#000000" font-family="sans-serif" font-size="14" lengthAdjust="spacing" textLength="119" x="628.5" y="615.8857">_std : np.ndarray</text><line style="stroke:#181818;stroke-width:0.5;" x1="623.5" x2="867.5" y1="623.1875" y2="623.1875"/><text fill="#000000" font-family="sans-serif" font-size="14" lengthAdjust="spacing" textLength="51" x="628.5" y="640.1826">mean()</text><text fill="#000000" font-family="sans-serif" font-size="14" lengthAdjust="spacing" textLength="31" x="628.5" y="656.4795">std()</text><text fill="#000000" font-family="sans-serif" font-size="14" lengthAdjust="spacing" textLength="117" x="628.5" y="672.7764">averaged_data()</text><text fill="#000000" font-family="sans-serif" font-size="14" lengthAdjust="spacing" textLength="107" x="628.5" y="689.0732">has_raw_data()</text></g><g id="elem_GMN31"><path d="M327.5,756 L327.5,841.6641 A0,0 0 0 0 327.5,841.6641 L577.5,841.6641 A0,0 0 0 0 577.5,841.6641 L577.5,766 L567.5,756 L521.43,756 L622.09,688.03 L513.43,756 L327.5,756 A0,0 0 0 0 327.5,756 " fill="#FEFFDD" style="stroke:#181818;stroke-width:0.5;"/><path d="M567.5,756 L567.5,766 L577.5,766 L567.5,756 " fill="#FEFFDD" style="stroke:#181818;stroke-width:0.5;"/><text fill="#000000" font-family="sans-serif" font-size="13" lengthAdjust="spacing" textLength="203" x="333.5" y="773.0669">averaged_values() returns only</text><text fill="#000000" font-family="sans-serif" font-size="13" lengthAdjust="spacing" textLength="229" x="333.5" y="788.1997">those values used to average over.</text><text fill="#000000" font-family="sans-serif" font-size="13" lengthAdjust="spacing" textLength="4" x="333.5" y="803.3325">&#160;</text><text fill="#000000" font-family="sans-serif" font-size="13" lengthAdjust="spacing" textLength="154" x="333.5" y="818.4653">How does mean() differ</text><text fill="#000000" font-family="sans-serif" font-size="13" lengthAdjust="spacing" textLength="136" x="333.5" y="833.5981">from values in Data?</text></g><!--class AverageNormalizedChannelData--><g id="elem_AverageNormalizedChannelData"><rect codeLine="87" fill="#F1F1F1" height="80.5938" id="AverageNormalizedChannelData" rx="2.5" ry="2.5" style="stroke:#181818;stroke-width:0.5;" width="266" x="612.5" y="758.5"/><ellipse cx="627.5" cy="774.5" fill="#ADD1B2" rx="11" ry="11" style="stroke:#181818;stroke-width:1.0;"/><path d="M630.4688,780.1406 Q629.8906,780.4375 629.25,780.5781 Q628.6094,780.7344 627.9063,780.7344 Q625.4063,780.7344 624.0781,779.0938 Q622.7656,777.4375 622.7656,774.3125 Q622.7656,771.1875 624.0781,769.5313 Q625.4063,767.875 627.9063,767.875 Q628.6094,767.875 629.25,768.0313 Q629.9063,768.1875 630.4688,768.4844 L630.4688,771.2031 Q629.8438,770.625 629.25,770.3594 Q628.6563,770.0781 628.0313,770.0781 Q626.6875,770.0781 626,771.1563 Q625.3125,772.2188 625.3125,774.3125 Q625.3125,776.4063 626,777.4844 Q626.6875,778.5469 628.0313,778.5469 Q628.6563,778.5469 629.25,778.2813 Q629.8438,778 630.4688,777.4219 L630.4688,780.1406 Z " fill="#000000"/><text fill="#000000" font-family="sans-serif" font-size="14" lengthAdjust="spacing" textLength="234" x="641.5" y="779.3467">AverageNormalizedChannelData</text><line style="stroke:#181818;stroke-width:0.5;" x1="613.5" x2="877.5" y1="790.5" y2="790.5"/><text fill="#000000" font-family="sans-serif" font-size="14" lengthAdjust="spacing" textLength="221" x="618.5" y="807.4951">normalized_data : raggedarray</text><text fill="#000000" font-family="sans-serif" font-size="14" lengthAdjust="spacing" textLength="225" x="618.5" y="823.792">normalizing_data : raggedarray</text><line style="stroke:#181818;stroke-width:0.5;" x1="613.5" x2="877.5" y1="831.0938" y2="831.0938"/></g><!--class IntervalChannelData--><g id="elem_IntervalChannelData"><rect codeLine="93" fill="#F1F1F1" height="162.0781" id="IntervalChannelData" rx="2.5" ry="2.5" style="stroke:#181818;stroke-width:0.5;" width="230" x="928.5" y="526"/><ellipse cx="966.45" cy="542" fill="#ADD1B2" rx="11" ry="11" style="stroke:#181818;stroke-width:1.0;"/><path d="M969.4188,547.6406 Q968.8406,547.9375 968.2,548.0781 Q967.5594,548.2344 966.8563,548.2344 Q964.3563,548.2344 963.0281,546.5938 Q961.7156,544.9375 961.7156,541.8125 Q961.7156,538.6875 963.0281,537.0313 Q964.3563,535.375 966.8563,535.375 Q967.5594,535.375 968.2,535.5313 Q968.8563,535.6875 969.4188,535.9844 L969.4188,538.7031 Q968.7938,538.125 968.2,537.8594 Q967.6063,537.5781 966.9813,537.5781 Q965.6375,537.5781 964.95,538.6563 Q964.2625,539.7188 964.2625,541.8125 Q964.2625,543.9063 964.95,544.9844 Q965.6375,546.0469 966.9813,546.0469 Q967.6063,546.0469 968.2,545.7813 Q968.7938,545.5 969.4188,544.9219 L969.4188,547.6406 Z " fill="#000000"/><text fill="#000000" font-family="sans-serif" font-size="14" lengthAdjust="spacing" textLength="147" x="985.55" y="546.8467">IntervalChannelData</text><line style="stroke:#181818;stroke-width:0.5;" x1="929.5" x2="1157.5" y1="558" y2="558"/><text fill="#000000" font-family="sans-serif" font-size="14" lengthAdjust="spacing" textLength="167" x="934.5" y="574.9951">raw_data : raggedarray</text><text fill="#000000" font-family="sans-serif" font-size="14" lengthAdjust="spacing" textLength="218" x="934.5" y="591.292">counts : np.ndarray(dtype=int)</text><text fill="#000000" font-family="sans-serif" font-size="14" lengthAdjust="spacing" textLength="139" x="934.5" y="607.5889">_mean : np.ndarray</text><text fill="#000000" font-family="sans-serif" font-size="14" lengthAdjust="spacing" textLength="119" x="934.5" y="623.8857">_std : np.ndarray</text><line style="stroke:#181818;stroke-width:0.5;" x1="929.5" x2="1157.5" y1="631.1875" y2="631.1875"/><text fill="#000000" font-family="sans-serif" font-size="14" lengthAdjust="spacing" textLength="51" x="934.5" y="648.1826">mean()</text><text fill="#000000" font-family="sans-serif" font-size="14" lengthAdjust="spacing" textLength="31" x="934.5" y="664.4795">std()</text><text fill="#000000" font-family="sans-serif" font-size="14" lengthAdjust="spacing" textLength="107" x="934.5" y="680.7764">has_raw_data()</text></g><!--class IntervalNormalizedChannelData--><g id="elem_IntervalNormalizedChannelData"><rect codeLine="103" fill="#F1F1F1" height="80.5938" id="IntervalNormalizedChannelData" rx="2.5" ry="2.5" style="stroke:#181818;stroke-width:0.5;" width="260" x="913.5" y="758.5"/><ellipse cx="928.5" cy="774.5" fill="#ADD1B2" rx="11" ry="11" style="stroke:#181818;stroke-width:1.0;"/><path d="M931.4688,780.1406 Q930.8906,780.4375 930.25,780.5781 Q929.6094,780.7344 928.9063,780.7344 Q926.4063,780.7344 925.0781,779.0938 Q923.7656,777.4375 923.7656,774.3125 Q923.7656,771.1875 925.0781,769.5313 Q926.4063,767.875 928.9063,767.875 Q929.6094,767.875 930.25,768.0313 Q930.9063,768.1875 931.4688,768.4844 L931.4688,771.2031 Q930.8438,770.625 930.25,770.3594 Q929.6563,770.0781 929.0313,770.0781 Q927.6875,770.0781 927,771.1563 Q926.3125,772.2188 926.3125,774.3125 Q926.3125,776.4063 927,777.4844 Q927.6875,778.5469 929.0313,778.5469 Q929.6563,778.5469 930.25,778.2813 Q930.8438,778 931.4688,777.4219 L931.4688,780.1406 Z " fill="#000000"/><text fill="#000000" font-family="sans-serif" font-size="14" lengthAdjust="spacing" textLength="228" x="942.5" y="779.3467">IntervalNormalizedChannelData</text><line style="stroke:#181818;stroke-width:0.5;" x1="914.5" x2="1172.5" y1="790.5" y2="790.5"/><text fill="#000000" font-family="sans-serif" font-size="14" lengthAdjust="spacing" textLength="221" x="919.5" y="807.4951">normalized_data : raggedarray</text><text fill="#000000" font-family="sans-serif" font-size="14" lengthAdjust="spacing" textLength="225" x="919.5" y="823.792">normalizing_data : raggedarray</text><line style="stroke:#181818;stroke-width:0.5;" x1="914.5" x2="1172.5" y1="831.0938" y2="831.0938"/></g><!--class ArrayChannelData--><g id="elem_ArrayChannelData"><rect codeLine="108" fill="#F1F1F1" height="64.2969" id="ArrayChannelData" rx="2.5" ry="2.5" style="stroke:#181818;stroke-width:0.5;" width="211" x="1211" y="575"/><ellipse cx="1247.15" cy="591" fill="#ADD1B2" rx="11" ry="11" style="stroke:#181818;stroke-width:1.0;"/><path d="M1250.1188,596.6406 Q1249.5406,596.9375 1248.9,597.0781 Q1248.2594,597.2344 1247.5563,597.2344 Q1245.0563,597.2344 1243.7281,595.5938 Q1242.4156,593.9375 1242.4156,590.8125 Q1242.4156,587.6875 1243.7281,586.0313 Q1245.0563,584.375 1247.5563,584.375 Q1248.2594,584.375 1248.9,584.5313 Q1249.5563,584.6875 1250.1188,584.9844 L1250.1188,587.7031 Q1249.4938,587.125 1248.9,586.8594 Q1248.3063,586.5781 1247.6813,586.5781 Q1246.3375,586.5781 1245.65,587.6563 Q1244.9625,588.7188 1244.9625,590.8125 Q1244.9625,592.9063 1245.65,593.9844 Q1246.3375,595.0469 1247.6813,595.0469 Q1248.3063,595.0469 1248.9,594.7813 Q1249.4938,594.5 1250.1188,593.9219 L1250.1188,596.6406 Z " fill="#000000"/><text fill="#000000" font-family="sans-serif" font-size="14" lengthAdjust="spacing" textLength="132" x="1265.85" y="595.8467">ArrayChannelData</text><line style="stroke:#181818;stroke-width:0.5;" x1="1212" x2="1421" y1="607" y2="607"/><text fill="#000000" font-family="sans-serif" font-size="14" lengthAdjust="spacing" textLength="199" x="1217" y="623.9951">roi[] : ArrayChannelROIData</text><line style="stroke:#181818;stroke-width:0.5;" x1="1212" x2="1421" y1="631.2969" y2="631.2969"/></g><!--class ArrayChannelROIData--><g id="elem_ArrayChannelROIData"><rect codeLine="114" fill="#F1F1F1" height="80.5938" id="ArrayChannelROIData" rx="2.5" ry="2.5" style="stroke:#181818;stroke-width:0.5;" width="251" x="1209" y="758.5"/><ellipse cx="1251.9" cy="774.5" fill="#ADD1B2" rx="11" ry="11" style="stroke:#181818;stroke-width:1.0;"/><path d="M1254.8688,780.1406 Q1254.2906,780.4375 1253.65,780.5781 Q1253.0094,780.7344 1252.3063,780.7344 Q1249.8063,780.7344 1248.4781,779.0938 Q1247.1656,777.4375 1247.1656,774.3125 Q1247.1656,771.1875 1248.4781,769.5313 Q1249.8063,767.875 1252.3063,767.875 Q1253.0094,767.875 1253.65,768.0313 Q1254.3063,768.1875 1254.8688,768.4844 L1254.8688,771.2031 Q1254.2438,770.625 1253.65,770.3594 Q1253.0563,770.0781 1252.4313,770.0781 Q1251.0875,770.0781 1250.4,771.1563 Q1249.7125,772.2188 1249.7125,774.3125 Q1249.7125,776.4063 1250.4,777.4844 Q1251.0875,778.5469 1252.4313,778.5469 Q1253.0563,778.5469 1253.65,778.2813 Q1254.2438,778 1254.8688,777.4219 L1254.8688,780.1406 Z " fill="#000000"/><text fill="#000000" font-family="sans-serif" font-size="14" lengthAdjust="spacing" textLength="157" x="1272.1" y="779.3467">ArrayChannelROIData</text><line style="stroke:#181818;stroke-width:0.5;" x1="1210" x2="1459" y1="790.5" y2="790.5"/><line style="stroke:#181818;stroke-width:0.5;" x1="1210" x2="1459" y1="798.5" y2="798.5"/><text fill="#000000" font-family="sans-serif" font-size="14" lengthAdjust="spacing" textLength="228" x="1215" y="815.4951">marker : np.ndarray((dtype=int)</text><text fill="#000000" font-family="sans-serif" font-size="14" lengthAdjust="spacing" textLength="239" x="1215" y="831.792">positions : np.ndarray((dtype=int)</text></g><g id="elem_GMN44"><path d="M1172.5,902 L1172.5,1093.5938 A0,0 0 0 0 1172.5,1093.5938 L1496.5,1093.5938 A0,0 0 0 0 1496.5,1093.5938 L1496.5,912 L1486.5,902 L1338.5,902 L1334.5,839.87 L1330.5,902 L1172.5,902 A0,0 0 0 0 1172.5,902 " fill="#FEFFDD" style="stroke:#181818;stroke-width:0.5;"/><path d="M1486.5,902 L1486.5,912 L1496.5,912 L1486.5,902 " fill="#FEFFDD" style="stroke:#181818;stroke-width:0.5;"/><text fill="#000000" font-family="sans-serif" font-size="13" lengthAdjust="spacing" textLength="244" x="1178.5" y="919.0669">Should these ROI classes inherit from</text><text fill="#000000" font-family="sans-serif" font-size="13" lengthAdjust="spacing" textLength="258" x="1178.5" y="934.1997">ChannelData? In this case, the attribute</text><text fill="#000000" font-family="sans-serif" font-size="13" lengthAdjust="spacing" textLength="233" x="1178.5" y="949.3325">"positions" would not be necessary.</text><text fill="#000000" font-family="sans-serif" font-size="13" lengthAdjust="spacing" textLength="4" x="1178.5" y="964.4653">&#160;</text><text fill="#000000" font-family="sans-serif" font-size="13" lengthAdjust="spacing" textLength="256" x="1178.5" y="979.5981">Marker should be a two-element vector</text><text fill="#000000" font-family="sans-serif" font-size="13" lengthAdjust="spacing" textLength="290" x="1178.5" y="994.731">with positions on the x axis of the spectrum.</text><text fill="#000000" font-family="sans-serif" font-size="13" lengthAdjust="spacing" textLength="303" x="1178.5" y="1009.8638">Is "marker" the best name? Can we generalise</text><text fill="#000000" font-family="sans-serif" font-size="13" lengthAdjust="spacing" textLength="246" x="1178.5" y="1024.9966">to fit to AreaChannelROIData as well?</text><text fill="#000000" font-family="sans-serif" font-size="13" lengthAdjust="spacing" textLength="4" x="1178.5" y="1040.1294">&#160;</text><text fill="#000000" font-family="sans-serif" font-size="13" lengthAdjust="spacing" textLength="244" x="1178.5" y="1055.2622">What other attributes are relevant for</text><text fill="#000000" font-family="sans-serif" font-size="13" lengthAdjust="spacing" textLength="267" x="1178.5" y="1070.395">Array Channel ROIs? What datasets exist</text><text fill="#000000" font-family="sans-serif" font-size="13" lengthAdjust="spacing" textLength="110" x="1178.5" y="1085.5278">in an eveH5 file?</text></g><!--class AreaChannelData--><g id="elem_AreaChannelData"><rect codeLine="133" fill="#F1F1F1" height="64.2969" id="AreaChannelData" rx="2.5" ry="2.5" style="stroke:#181818;stroke-width:0.5;" width="206" x="1470.5" y="575"/><ellipse cx="1506.65" cy="591" fill="#ADD1B2" rx="11" ry="11" style="stroke:#181818;stroke-width:1.0;"/><path d="M1509.6188,596.6406 Q1509.0406,596.9375 1508.4,597.0781 Q1507.7594,597.2344 1507.0563,597.2344 Q1504.5563,597.2344 1503.2281,595.5938 Q1501.9156,593.9375 1501.9156,590.8125 Q1501.9156,587.6875 1503.2281,586.0313 Q1504.5563,584.375 1507.0563,584.375 Q1507.7594,584.375 1508.4,584.5313 Q1509.0563,584.6875 1509.6188,584.9844 L1509.6188,587.7031 Q1508.9938,587.125 1508.4,586.8594 Q1507.8063,586.5781 1507.1813,586.5781 Q1505.8375,586.5781 1505.15,587.6563 Q1504.4625,588.7188 1504.4625,590.8125 Q1504.4625,592.9063 1505.15,593.9844 Q1505.8375,595.0469 1507.1813,595.0469 Q1507.8063,595.0469 1508.4,594.7813 Q1508.9938,594.5 1509.6188,593.9219 L1509.6188,596.6406 Z " fill="#000000"/><text fill="#000000" font-family="sans-serif" font-size="14" lengthAdjust="spacing" textLength="127" x="1525.35" y="595.8467">AreaChannelData</text><line style="stroke:#181818;stroke-width:0.5;" x1="1471.5" x2="1675.5" y1="607" y2="607"/><text fill="#000000" font-family="sans-serif" font-size="14" lengthAdjust="spacing" textLength="194" x="1476.5" y="623.9951">roi[] : AreaChannelROIData</text><line style="stroke:#181818;stroke-width:0.5;" x1="1471.5" x2="1675.5" y1="631.2969" y2="631.2969"/></g><!--class AreaChannelROIData--><g id="elem_AreaChannelROIData"><rect codeLine="139" fill="#F1F1F1" height="48" id="AreaChannelROIData" rx="2.5" ry="2.5" style="stroke:#181818;stroke-width:0.5;" width="184" x="1495.5" y="775"/><ellipse cx="1510.5" cy="791" fill="#ADD1B2" rx="11" ry="11" style="stroke:#181818;stroke-width:1.0;"/><path d="M1513.4688,796.6406 Q1512.8906,796.9375 1512.25,797.0781 Q1511.6094,797.2344 1510.9063,797.2344 Q1508.4063,797.2344 1507.0781,795.5938 Q1505.7656,793.9375 1505.7656,790.8125 Q1505.7656,787.6875 1507.0781,786.0313 Q1508.4063,784.375 1510.9063,784.375 Q1511.6094,784.375 1512.25,784.5313 Q1512.9063,784.6875 1513.4688,784.9844 L1513.4688,787.7031 Q1512.8438,787.125 1512.25,786.8594 Q1511.6563,786.5781 1511.0313,786.5781 Q1509.6875,786.5781 1509,787.6563 Q1508.3125,788.7188 1508.3125,790.8125 Q1508.3125,792.9063 1509,793.9844 Q1509.6875,795.0469 1511.0313,795.0469 Q1511.6563,795.0469 1512.25,794.7813 Q1512.8438,794.5 1513.4688,793.9219 L1513.4688,796.6406 Z " fill="#000000"/><text fill="#000000" font-family="sans-serif" font-size="14" lengthAdjust="spacing" textLength="152" x="1524.5" y="795.8467">AreaChannelROIData</text><line style="stroke:#181818;stroke-width:0.5;" x1="1496.5" x2="1678.5" y1="807" y2="807"/><line style="stroke:#181818;stroke-width:0.5;" x1="1496.5" x2="1678.5" y1="815" y2="815"/></g><!--reverse link Data to DataImporter--><g id="link_Data_DataImporter"><path codeLine="31" d="M1150.61,91.5 C1162.19,91.5 1161.78,91.5 1173.37,91.5 " fill="none" id="Data-backto-DataImporter" style="stroke:#181818;stroke-width:1.0;"/><polygon fill="#181818" points="1138.61,91.5,1144.61,95.5,1150.61,91.5,1144.61,87.5,1138.61,91.5" style="stroke:#181818;stroke-width:1.0;"/></g><!--reverse link Data to Metadata--><g id="link_Data_Metadata"><path codeLine="32" d="M967.602,155.0522 C952.812,165.7022 946.49,169 930.5,177 C845.99,219.3 814.96,203.73 726.5,237 C720.14,239.39 713.54,242.12 707.08,244.95 " fill="none" id="Data-backto-Metadata" style="stroke:#181818;stroke-width:1.0;"/><polygon fill="#181818" points="977.34,148.04,970.1336,148.3001,967.602,155.0522,974.8084,154.7921,977.34,148.04" style="stroke:#181818;stroke-width:1.0;"/></g><!--reverse link Data to MeasureData--><g id="link_Data_MeasureData"><path d="M1043.5,166.03 C1043.5,195.35 1043.5,212.25 1043.5,236.83 " fill="none" id="Data-backto-MeasureData" style="stroke:#181818;stroke-width:1.0;"/><polygon fill="none" points="1043.5,148.03,1037.5,166.03,1049.5,166.03,1043.5,148.03" style="stroke:#181818;stroke-width:1.0;"/></g><!--reverse link Data to MonitorData--><g id="link_Data_MonitorData"><path d="M1127.7286,158.8137 C1141.4286,168.8737 1141.42,168.27 1155.5,177 C1191.38,199.25 1233.42,220.55 1268.05,236.95 " fill="none" id="Data-backto-MonitorData" style="stroke:#181818;stroke-width:1.0;"/><polygon fill="none" points="1113.22,148.16,1124.1773,163.6499,1131.2798,153.9775,1113.22,148.16" style="stroke:#181818;stroke-width:1.0;"/></g><!--reverse link MeasureData to AxisData--><g id="link_MeasureData_AxisData"><path d="M902.6898,301.4848 C793.1498,326.1548 665.96,355.34 653.5,361 C647.46,363.75 641.41,367.08 635.56,370.7 " fill="none" id="MeasureData-backto-AxisData" style="stroke:#181818;stroke-width:1.0;"/><polygon fill="none" points="920.25,297.53,901.3716,295.6314,904.0081,307.3382,920.25,297.53" style="stroke:#181818;stroke-width:1.0;"/></g><!--reverse link MeasureData to ChannelData--><g id="link_MeasureData_ChannelData"><path d="M1043.5,319.08 C1043.5,344.6 1043.5,362.18 1043.5,385.28 " fill="none" id="MeasureData-backto-ChannelData" style="stroke:#181818;stroke-width:1.0;"/><polygon fill="none" points="1043.5,301.08,1037.5,319.08,1049.5,319.08,1043.5,301.08" style="stroke:#181818;stroke-width:1.0;"/></g><!--reverse link MeasureData to TimestampData--><g id="link_MeasureData_TimestampData"><path d="M1113.1955,310.0505 C1143.8655,327.6805 1167.27,341.13 1201.72,360.93 " fill="none" id="MeasureData-backto-TimestampData" style="stroke:#181818;stroke-width:1.0;"/><polygon fill="none" points="1097.59,301.08,1110.2053,315.2523,1116.1856,304.8487,1097.59,301.08" style="stroke:#181818;stroke-width:1.0;"/></g><!--reverse link ChannelData to SinglePointChannelData--><g id="link_ChannelData_SinglePointChannelData"><path d="M995.8232,443.1824 C981.8032,452.1024 980.03,451.95 963.5,458 C811.58,513.58 761.95,480.87 604.5,518 C527.78,536.09 441.53,563.52 383.8,582.94 " fill="none" id="ChannelData-backto-SinglePointChannelData" style="stroke:#181818;stroke-width:1.0;"/><polygon fill="none" points="1011.01,433.52,992.6024,438.1201,999.044,448.2446,1011.01,433.52" style="stroke:#181818;stroke-width:1.0;"/></g><!--reverse link SinglePointChannelData to SinglePointNormalizedChannelData--><g id="link_SinglePointChannelData_SinglePointNormalizedChannelData"><path d="M284.9767,644.7846 C257.0267,676.3946 218.61,719.84 184.63,758.27 " fill="none" id="SinglePointChannelData-backto-SinglePointNormalizedChannelData" style="stroke:#181818;stroke-width:1.0;"/><polygon fill="none" points="296.9,631.3,280.4818,640.8102,289.4716,648.7591,296.9,631.3" style="stroke:#181818;stroke-width:1.0;"/></g><!--reverse link ChannelData to AverageChannelData--><g id="link_ChannelData_AverageChannelData"><path d="M993.3903,443.3745 C958.9303,465.9845 919.34,491.95 868.78,525.12 " fill="none" id="ChannelData-backto-AverageChannelData" style="stroke:#181818;stroke-width:1.0;"/><polygon fill="none" points="1008.44,433.5,990.0988,438.3579,996.6818,448.3911,1008.44,433.5" style="stroke:#181818;stroke-width:1.0;"/></g><!--reverse link AverageChannelData to AverageNormalizedChannelData--><g id="link_AverageChannelData_AverageNormalizedChannelData"><path d="M745.5,714.05 C745.5,735.79 745.5,740.02 745.5,758.16 " fill="none" id="AverageChannelData-backto-AverageNormalizedChannelData" style="stroke:#181818;stroke-width:1.0;"/><polygon fill="none" points="745.5,696.05,739.5,714.05,751.5,714.05,745.5,696.05" style="stroke:#181818;stroke-width:1.0;"/></g><!--reverse link ChannelData to IntervalChannelData--><g id="link_ChannelData_IntervalChannelData"><path d="M1043.5,451.69 C1043.5,474.45 1043.5,492.48 1043.5,525.73 " fill="none" id="ChannelData-backto-IntervalChannelData" style="stroke:#181818;stroke-width:1.0;"/><polygon fill="none" points="1043.5,433.69,1037.5,451.69,1049.5,451.69,1043.5,433.69" style="stroke:#181818;stroke-width:1.0;"/></g><!--reverse link IntervalChannelData to IntervalNormalizedChannelData--><g id="link_IntervalChannelData_IntervalNormalizedChannelData"><path d="M1043.5,706.03 C1043.5,730.37 1043.5,738.05 1043.5,758.47 " fill="none" id="IntervalChannelData-backto-IntervalNormalizedChannelData" style="stroke:#181818;stroke-width:1.0;"/><polygon fill="none" points="1043.5,688.03,1037.5,706.03,1049.5,706.03,1043.5,688.03" style="stroke:#181818;stroke-width:1.0;"/></g><!--reverse link ChannelData to ArrayChannelData--><g id="link_ChannelData_ArrayChannelData"><path d="M1090.2538,443.981 C1139.1638,479.011 1217.78,535.31 1272.81,574.71 " fill="none" id="ChannelData-backto-ArrayChannelData" style="stroke:#181818;stroke-width:1.0;"/><polygon fill="none" points="1075.62,433.5,1086.7602,448.8589,1093.7475,439.103,1075.62,433.5" style="stroke:#181818;stroke-width:1.0;"/></g><!--reverse link ArrayChannelData to ArrayChannelROIData--><g id="link_ArrayChannelData_ArrayChannelROIData"><path codeLine="112" d="M1320.6034,651.3164 C1323.6934,683.8864 1327.39,722.98 1330.74,758.33 " fill="none" id="ArrayChannelData-backto-ArrayChannelROIData" style="stroke:#181818;stroke-width:1.0;"/><polygon fill="#181818" points="1319.47,639.37,1316.0546,645.721,1320.6034,651.3164,1324.0188,644.9654,1319.47,639.37" style="stroke:#181818;stroke-width:1.0;"/><text fill="#000000" font-family="sans-serif" font-size="13" lengthAdjust="spacing" textLength="24" x="1304.1298" y="747.4634">0..n</text></g><!--reverse link ChannelData to AreaChannelData--><g id="link_ChannelData_AreaChannelData"><path d="M1091.6523,443.2021 C1105.6123,452.0321 1107.18,451.83 1123.5,458 C1257.2,508.59 1306.98,464.4 1439.5,518 C1474.2,532.04 1509.43,555.61 1535.05,574.83 " fill="none" id="ChannelData-backto-AreaChannelData" style="stroke:#181818;stroke-width:1.0;"/><polygon fill="none" points="1076.44,433.58,1088.4449,448.2729,1094.8597,438.1313,1076.44,433.58" style="stroke:#181818;stroke-width:1.0;"/></g><!--reverse link AreaChannelData to AreaChannelROIData--><g id="link_AreaChannelData_AreaChannelROIData"><path codeLine="137" d="M1576.6913,651.3376 C1579.5013,689.4976 1583.3,741.03 1585.8,774.96 " fill="none" id="AreaChannelData-backto-AreaChannelROIData" style="stroke:#181818;stroke-width:1.0;"/><polygon fill="#181818" points="1575.81,639.37,1572.2614,645.6476,1576.6913,651.3376,1580.2398,645.06,1575.81,639.37" style="stroke:#181818;stroke-width:1.0;"/><text fill="#000000" font-family="sans-serif" font-size="13" lengthAdjust="spacing" textLength="24" x="1558.2894" y="763.9618">0..n</text></g><!--SRC=[jLPDR-Cs4BtxLmnygLCancw1lGHO6C46Y-ImsqLJe8UsC6XfR7CZaG99sN63_FS-VaYMPEK3QDSNK-JCyCtC6yxyPE-bgeGH9UMLfFSVtaqcMI6ifMlX13rE2B-IdSZzvoLzISkmlqoRgfghN1WZ3d5RbfKsZWsEl9NRz1aElShiRF8qKTen5RnsfDT1xF9osLgUXkMKQbkBeZXGffKJKbaIzFwQmbKaL4uIErd6rd8Uz7PIaDjokeKsx3mCuD_gd6RV3lXNL1bTiN67CuWA5_Got6A3PXSmGNWjZNNf4f9hKknNmXpcaw3vMHkIAfSxcGCgPLkX51Uq4qNDbYm32nkvuvn2MDa6hQiT6x7XJr4wXDgxSwjmArGx- -cQA-_oKFpAiEZj6IQhIzutRjcACmbK8lZMXf5OujFGBzSXK0GN11NIXbJ4dTLtpbp4EeD29YpxGra2jGsNYqBUyzbymbZxN7PvqmOmyiVgscGSbf4QWG19lc4KP1CfZDnitINT-TX9iV7SN6lpbsffMEgyBXYH2Lx_VD5dMTgyE7ArlKdOsd0uvmS7u3sMFwub5_aJLTfA9pN8rcNsB7U7YZzAvRhOjP9EczSibh90T1dHpzzWzEf1sfx5BkveUBc6HSwFzTBvFXPNYAFFMcCnYBPCYJgWPuLRfDfujeCMGQZBgi0Shr0L6kM4p6zyARfvaBnXbR7F3tArNhDXvPeYiESeG0MYeu9ZxRSIpTtU_Xvh-2gzHI3fSgaBOpmQRTH-boLR9yhgbT0rELc6mbw-dkoU4gvwgmxUdbPovXfqvvwy_D7RwQJy3k4l-9k6yfZBtRt7CQMlsfIentyu7rD_ndgCXsfLdtdD6m4O6P4uilRqHHk57smQiMziGMd3dUkQK0jGhQpSop5UbYpKI0EoBZ_TzRApg8Vpj18HTbiwVcyhxB91UAoc5SYlor1E9wxsJSMt7-t7iAiDQA9LAW2q7xoZgJVKQ5haTAD76l_fjR_HUyerP2BcL3YnqWr090jucFtjYvCtE25ycHOZ6NkE4iCaZN2YAm9I920Z3Us_qIBJjVhXf3WXmC2Rb-CwvlF_5zYKuE4uy49GjVppRzZfglpswssWBUoTMFATS_fkFbVJKPKH0Ece6HQ5kG-ZNoT3mnGzyuBss-6mwaR0U5jtMrqNkUzIA2qSD7CMgWCpZdIXOePDRO4iGGNZevzipiFaXnV7o5NjOWUSjXYdj0yt00-j-6G0_1BzjH461D0nz_g22ovzfzjXZjAnTFUOkZgkntPB3oJG-xo7_ijFRCxKPMokjvQcCPxJSBf24o4bIbxG9t1ypqs3nNGH7nYDrkhyNsSsRFA3AN3FHR68kF_0a4Wwp86jvpRqUGFiE-6xT08UGj-4pyVOBgAwfwXbr6Dett70KvWEYNTyyy5tULuCU_fmQ7qBSuUkHEBsxVHuUw9mUlcHjK-JVm40]--></g></svg>