<?xml version="1.0" encoding="us-ascii" standalone="no"?><svg xmlns="http://www.w3.org/2000/svg" xmlns:xlink="http://www.w3.org/1999/xlink" contentStyleType="text/css" height="803px" preserveAspectRatio="none" style="width:1056px;height:803px;background:#FFFFFF;" version="1.1" viewBox="0 0 1056 803" width="1056px" zoomAndPan="magnify"><defs/><g><!--class Data--><g id="elem_Data"><rect codeLine="3" fill="#F1F1F1" height="113.625" id="Data" rx="2.5" ry="2.5" style="stroke:#181818;stroke-width:0.5;" width="164" x="484" y="35"/><ellipse cx="546.75" cy="51" fill="#ADD1B2" rx="11" ry="11" style="stroke:#181818;stroke-width:1.0;"/><path d="M546.7969,57.2031 C548.2969,57.2031 549.5313,56.6406 550.4375,55.5781 L549.0625,54.0625 C548.5156,54.6563 547.8594,55.0469 547.0625,55.0469 C545.3906,55.0469 544.2344,53.7188 544.2344,51.4375 C544.2344,49.2188 545.3906,47.875 546.9531,47.875 C547.7656,47.875 548.3594,48.1875 548.8906,48.6719 L550.2656,47.125 C549.5156,46.3906 548.3594,45.7188 546.9531,45.7188 C544,45.7188 541.6719,47.8594 541.6719,51.5313 C541.6719,55.25 544.0469,57.2031 546.7969,57.2031 Z " fill="#000000"/><text fill="#000000" font-family="sans-serif" font-size="14" lengthAdjust="spacing" textLength="30" x="567.25" y="55.7852">Data</text><line style="stroke:#181818;stroke-width:0.5;" x1="485" x2="647" y1="67" y2="67"/><text fill="#000000" font-family="sans-serif" font-size="14" lengthAdjust="spacing" textLength="131" x="490" y="83.9883">metadata : Metadata</text><text fill="#000000" font-family="sans-serif" font-size="14" lengthAdjust="spacing" textLength="113" x="490" y="100.3945">_data : np.ndarray</text><text fill="#000000" font-family="sans-serif" font-size="14" lengthAdjust="spacing" textLength="152" x="490" y="116.8008">_importer : DataImporter</text><line style="stroke:#181818;stroke-width:0.5;" x1="485" x2="647" y1="124.2188" y2="124.2188"/><text fill="#000000" font-family="sans-serif" font-size="14" lengthAdjust="spacing" textLength="39" x="490" y="141.207">data()</text></g><path d="M137.5,6 L137.5,168.3438 A0,0 0 0 0 137.5,168.3438 L448.5,168.3438 A0,0 0 0 0 448.5,168.3438 L448.5,91.1719 L488,95.6094 L448.5,83.1719 L448.5,16 L438.5,6 L137.5,6 A0,0 0 0 0 137.5,6 " fill="#FEFFDD" style="stroke:#181818;stroke-width:0.5;"/><path d="M438.5,6 L438.5,16 L448.5,16 L438.5,6 " fill="#FEFFDD" style="stroke:#181818;stroke-width:0.5;"/><text fill="#000000" font-family="sans-serif" font-size="13" lengthAdjust="spacing" textLength="290" x="143.5" y="23.0605">"_data" usually contains a 1D array and is accessed</text><text fill="#000000" font-family="sans-serif" font-size="13" lengthAdjust="spacing" textLength="281" x="143.5" y="38.2949">via the data() getter method (Python property) that</text><text fill="#000000" font-family="sans-serif" font-size="13" lengthAdjust="spacing" textLength="290" x="143.5" y="53.5293">calls the DataImporter on first access if necessary.</text><text fill="#000000" font-family="sans-serif" font-size="13" lengthAdjust="spacing" textLength="3" x="143.5" y="68.7637">&#160;</text><text fill="#000000" font-family="sans-serif" font-size="13" lengthAdjust="spacing" textLength="278" x="143.5" y="83.998">For individual channel values see derived classes</text><text fill="#000000" font-family="sans-serif" font-size="13" lengthAdjust="spacing" textLength="264" x="143.5" y="99.2324">AverageChannelData and IntervalChannelData.</text><text fill="#000000" font-family="sans-serif" font-size="13" lengthAdjust="spacing" textLength="3" x="143.5" y="114.4668">&#160;</text><text fill="#000000" font-family="sans-serif" font-size="13" lengthAdjust="spacing" textLength="271" x="143.5" y="129.7012">AreaChannelData are somewhat special as they</text><text fill="#000000" font-family="sans-serif" font-size="13" lengthAdjust="spacing" textLength="256" x="143.5" y="144.9355">contain either 2D data or a list of data objects</text><text fill="#000000" font-family="sans-serif" font-size="13" lengthAdjust="spacing" textLength="167" x="143.5" y="160.1699">(in case of images and alike).</text><!--class DataImporter--><g id="elem_DataImporter"><rect codeLine="22" fill="#F1F1F1" height="80.8125" id="DataImporter" rx="2.5" ry="2.5" style="stroke:#181818;stroke-width:0.5;" width="116" x="683" y="51.5"/><ellipse cx="698" cy="67.5" fill="#ADD1B2" rx="11" ry="11" style="stroke:#181818;stroke-width:1.0;"/><path d="M698.0469,73.7031 C699.5469,73.7031 700.7813,73.1406 701.6875,72.0781 L700.3125,70.5625 C699.7656,71.1563 699.1094,71.5469 698.3125,71.5469 C696.6406,71.5469 695.4844,70.2188 695.4844,67.9375 C695.4844,65.7188 696.6406,64.375 698.2031,64.375 C699.0156,64.375 699.6094,64.6875 700.1406,65.1719 L701.5156,63.625 C700.7656,62.8906 699.6094,62.2188 698.2031,62.2188 C695.25,62.2188 692.9219,64.3594 692.9219,68.0313 C692.9219,71.75 695.2969,73.7031 698.0469,73.7031 Z " fill="#000000"/><text fill="#000000" font-family="sans-serif" font-size="14" lengthAdjust="spacing" textLength="84" x="712" y="72.2852">DataImporter</text><line style="stroke:#181818;stroke-width:0.5;" x1="684" x2="798" y1="83.5" y2="83.5"/><text fill="#000000" font-family="sans-serif" font-size="14" lengthAdjust="spacing" textLength="42" x="689" y="100.4883">source</text><line style="stroke:#181818;stroke-width:0.5;" x1="684" x2="798" y1="107.9063" y2="107.9063"/><text fill="#000000" font-family="sans-serif" font-size="14" lengthAdjust="spacing" textLength="51" x="689" y="124.8945">import()</text></g><!--class Metadata--><g id="elem_Metadata"><rect codeLine="27" fill="#F1F1F1" height="48" id="Metadata" rx="2.5" ry="2.5" style="stroke:#181818;stroke-width:0.5;" width="93" x="307.5" y="246"/><ellipse cx="322.5" cy="262" fill="#ADD1B2" rx="11" ry="11" style="stroke:#181818;stroke-width:1.0;"/><path d="M322.5469,268.2031 C324.0469,268.2031 325.2813,267.6406 326.1875,266.5781 L324.8125,265.0625 C324.2656,265.6563 323.6094,266.0469 322.8125,266.0469 C321.1406,266.0469 319.9844,264.7188 319.9844,262.4375 C319.9844,260.2188 321.1406,258.875 322.7031,258.875 C323.5156,258.875 324.1094,259.1875 324.6406,259.6719 L326.0156,258.125 C325.2656,257.3906 324.1094,256.7188 322.7031,256.7188 C319.75,256.7188 317.4219,258.8594 317.4219,262.5313 C317.4219,266.25 319.7969,268.2031 322.5469,268.2031 Z " fill="#000000"/><text fill="#000000" font-family="sans-serif" font-size="14" lengthAdjust="spacing" textLength="61" x="336.5" y="266.7852">Metadata</text><line style="stroke:#181818;stroke-width:0.5;" x1="308.5" x2="399.5" y1="278" y2="278"/><line style="stroke:#181818;stroke-width:0.5;" x1="308.5" x2="399.5" y1="286" y2="286"/></g><g id="elem_GMN7"><path d="M249.5,366 L249.5,406.4688 A0,0 0 0 0 249.5,406.4688 L372.5,406.4688 A0,0 0 0 0 372.5,406.4688 L372.5,376 L362.5,366 L322.26,366 L345.3,294.07 L314.26,366 L249.5,366 A0,0 0 0 0 249.5,366 " fill="#FEFFDD" style="stroke:#181818;stroke-width:0.5;"/><path d="M362.5,366 L362.5,376 L372.5,376 L362.5,366 " fill="#FEFFDD" style="stroke:#181818;stroke-width:0.5;"/><text fill="#000000" font-family="sans-serif" font-size="13" lengthAdjust="spacing" textLength="90" x="255.5" y="383.0605">See diagram for</text><text fill="#000000" font-family="sans-serif" font-size="13" lengthAdjust="spacing" textLength="102" x="255.5" y="398.2949">metadata module.</text></g><!--class MeasureData--><g id="elem_MeasureData"><rect codeLine="34" fill="#F1F1F1" height="64.4063" id="MeasureData" rx="2.5" ry="2.5" style="stroke:#181818;stroke-width:0.5;" width="216" x="458" y="238"/><ellipse cx="519.75" cy="254" fill="#ADD1B2" rx="11" ry="11" style="stroke:#181818;stroke-width:1.0;"/><path d="M519.7969,260.2031 C521.2969,260.2031 522.5313,259.6406 523.4375,258.5781 L522.0625,257.0625 C521.5156,257.6563 520.8594,258.0469 520.0625,258.0469 C518.3906,258.0469 517.2344,256.7188 517.2344,254.4375 C517.2344,252.2188 518.3906,250.875 519.9531,250.875 C520.7656,250.875 521.3594,251.1875 521.8906,251.6719 L523.2656,250.125 C522.5156,249.3906 521.3594,248.7188 519.9531,248.7188 C517,248.7188 514.6719,250.8594 514.6719,254.5313 C514.6719,258.25 517.0469,260.2031 519.7969,260.2031 Z " fill="#000000"/><text fill="#000000" font-family="sans-serif" font-size="14" lengthAdjust="spacing" textLength="84" x="540.25" y="258.7852">MeasureData</text><line style="stroke:#181818;stroke-width:0.5;" x1="459" x2="673" y1="270" y2="270"/><text fill="#000000" font-family="sans-serif" font-size="14" lengthAdjust="spacing" textLength="204" x="464" y="286.9883">positions : np.ndarray(dtype=int)</text><line style="stroke:#181818;stroke-width:0.5;" x1="459" x2="673" y1="294.4063" y2="294.4063"/></g><!--class MonitorData--><g id="elem_MonitorData"><rect codeLine="38" fill="#F1F1F1" height="64.4063" id="MonitorData" rx="2.5" ry="2.5" style="stroke:#181818;stroke-width:0.5;" width="235" x="709.5" y="238"/><ellipse cx="783.25" cy="254" fill="#ADD1B2" rx="11" ry="11" style="stroke:#181818;stroke-width:1.0;"/><path d="M783.2969,260.2031 C784.7969,260.2031 786.0313,259.6406 786.9375,258.5781 L785.5625,257.0625 C785.0156,257.6563 784.3594,258.0469 783.5625,258.0469 C781.8906,258.0469 780.7344,256.7188 780.7344,254.4375 C780.7344,252.2188 781.8906,250.875 783.4531,250.875 C784.2656,250.875 784.8594,251.1875 785.3906,251.6719 L786.7656,250.125 C786.0156,249.3906 784.8594,248.7188 783.4531,248.7188 C780.5,248.7188 778.1719,250.8594 778.1719,254.5313 C778.1719,258.25 780.5469,260.2031 783.2969,260.2031 Z " fill="#000000"/><text fill="#000000" font-family="sans-serif" font-size="14" lengthAdjust="spacing" textLength="79" x="803.75" y="258.7852">MonitorData</text><line style="stroke:#181818;stroke-width:0.5;" x1="710.5" x2="943.5" y1="270" y2="270"/><text fill="#000000" font-family="sans-serif" font-size="14" lengthAdjust="spacing" textLength="223" x="715.5" y="286.9883">milliseconds : np.ndarray(dtype=int)</text><line style="stroke:#181818;stroke-width:0.5;" x1="710.5" x2="943.5" y1="294.4063" y2="294.4063"/></g><!--class AxisData--><g id="elem_AxisData"><rect codeLine="42" fill="#F1F1F1" height="48" id="AxisData" rx="2.5" ry="2.5" style="stroke:#181818;stroke-width:0.5;" width="88" x="408" y="362"/><ellipse cx="423" cy="378" fill="#ADD1B2" rx="11" ry="11" style="stroke:#181818;stroke-width:1.0;"/><path d="M423.0469,384.2031 C424.5469,384.2031 425.7813,383.6406 426.6875,382.5781 L425.3125,381.0625 C424.7656,381.6563 424.1094,382.0469 423.3125,382.0469 C421.6406,382.0469 420.4844,380.7188 420.4844,378.4375 C420.4844,376.2188 421.6406,374.875 423.2031,374.875 C424.0156,374.875 424.6094,375.1875 425.1406,375.6719 L426.5156,374.125 C425.7656,373.3906 424.6094,372.7188 423.2031,372.7188 C420.25,372.7188 417.9219,374.8594 417.9219,378.5313 C417.9219,382.25 420.2969,384.2031 423.0469,384.2031 Z " fill="#000000"/><text fill="#000000" font-family="sans-serif" font-size="14" lengthAdjust="spacing" textLength="56" x="437" y="382.7852">AxisData</text><line style="stroke:#181818;stroke-width:0.5;" x1="409" x2="495" y1="394" y2="394"/><line style="stroke:#181818;stroke-width:0.5;" x1="409" x2="495" y1="402" y2="402"/></g><!--class ChannelData--><g id="elem_ChannelData"><rect codeLine="45" fill="#F1F1F1" height="48" id="ChannelData" rx="2.5" ry="2.5" style="stroke:#181818;stroke-width:0.5;" width="113" x="531.5" y="362"/><ellipse cx="546.5" cy="378" fill="#ADD1B2" rx="11" ry="11" style="stroke:#181818;stroke-width:1.0;"/><path d="M546.5469,384.2031 C548.0469,384.2031 549.2813,383.6406 550.1875,382.5781 L548.8125,381.0625 C548.2656,381.6563 547.6094,382.0469 546.8125,382.0469 C545.1406,382.0469 543.9844,380.7188 543.9844,378.4375 C543.9844,376.2188 545.1406,374.875 546.7031,374.875 C547.5156,374.875 548.1094,375.1875 548.6406,375.6719 L550.0156,374.125 C549.2656,373.3906 548.1094,372.7188 546.7031,372.7188 C543.75,372.7188 541.4219,374.8594 541.4219,378.5313 C541.4219,382.25 543.7969,384.2031 546.5469,384.2031 Z " fill="#000000"/><text fill="#000000" font-family="sans-serif" font-size="14" lengthAdjust="spacing" textLength="81" x="560.5" y="382.7852">ChannelData</text><line style="stroke:#181818;stroke-width:0.5;" x1="532.5" x2="643.5" y1="394" y2="394"/><line style="stroke:#181818;stroke-width:0.5;" x1="532.5" x2="643.5" y1="402" y2="402"/></g><!--class TimestampData--><g id="elem_TimestampData"><rect codeLine="48" fill="#F1F1F1" height="48" id="TimestampData" rx="2.5" ry="2.5" style="stroke:#181818;stroke-width:0.5;" width="132" x="680" y="362"/><ellipse cx="695" cy="378" fill="#ADD1B2" rx="11" ry="11" style="stroke:#181818;stroke-width:1.0;"/><path d="M695.0469,384.2031 C696.5469,384.2031 697.7813,383.6406 698.6875,382.5781 L697.3125,381.0625 C696.7656,381.6563 696.1094,382.0469 695.3125,382.0469 C693.6406,382.0469 692.4844,380.7188 692.4844,378.4375 C692.4844,376.2188 693.6406,374.875 695.2031,374.875 C696.0156,374.875 696.6094,375.1875 697.1406,375.6719 L698.5156,374.125 C697.7656,373.3906 696.6094,372.7188 695.2031,372.7188 C692.25,372.7188 689.9219,374.8594 689.9219,378.5313 C689.9219,382.25 692.2969,384.2031 695.0469,384.2031 Z " fill="#000000"/><text fill="#000000" font-family="sans-serif" font-size="14" lengthAdjust="spacing" textLength="100" x="709" y="382.7852">TimestampData</text><line style="stroke:#181818;stroke-width:0.5;" x1="681" x2="811" y1="394" y2="394"/><line style="stroke:#181818;stroke-width:0.5;" x1="681" x2="811" y1="402" y2="402"/></g><!--class StandardChannelData--><g id="elem_StandardChannelData"><rect codeLine="51" fill="#F1F1F1" height="48" id="StandardChannelData" rx="2.5" ry="2.5" style="stroke:#181818;stroke-width:0.5;" width="171" x="15.5" y="544"/><ellipse cx="30.5" cy="560" fill="#ADD1B2" rx="11" ry="11" style="stroke:#181818;stroke-width:1.0;"/><path d="M30.5469,566.2031 C32.0469,566.2031 33.2813,565.6406 34.1875,564.5781 L32.8125,563.0625 C32.2656,563.6563 31.6094,564.0469 30.8125,564.0469 C29.1406,564.0469 27.9844,562.7188 27.9844,560.4375 C27.9844,558.2188 29.1406,556.875 30.7031,556.875 C31.5156,556.875 32.1094,557.1875 32.6406,557.6719 L34.0156,556.125 C33.2656,555.3906 32.1094,554.7188 30.7031,554.7188 C27.75,554.7188 25.4219,556.8594 25.4219,560.5313 C25.4219,564.25 27.7969,566.2031 30.5469,566.2031 Z " fill="#000000"/><text fill="#000000" font-family="sans-serif" font-size="14" lengthAdjust="spacing" textLength="139" x="44.5" y="564.7852">StandardChannelData</text><line style="stroke:#181818;stroke-width:0.5;" x1="16.5" x2="185.5" y1="576" y2="576"/><line style="stroke:#181818;stroke-width:0.5;" x1="16.5" x2="185.5" y1="584" y2="584"/></g><g id="elem_GMN24"><path d="M6,726 L6,796.9375 A0,0 0 0 0 6,796.9375 L196,796.9375 A0,0 0 0 0 196,796.9375 L196,736 L186,726 L105,726 L101,592.1 L97,726 L6,726 A0,0 0 0 0 6,726 " fill="#FEFFDD" style="stroke:#181818;stroke-width:0.5;"/><path d="M186,726 L186,736 L196,736 L186,726 " fill="#FEFFDD" style="stroke:#181818;stroke-width:0.5;"/><text fill="#000000" font-family="sans-serif" font-size="13" lengthAdjust="spacing" textLength="134" x="12" y="743.0605">This type does not exist</text><text fill="#000000" font-family="sans-serif" font-size="13" lengthAdjust="spacing" textLength="152" x="12" y="758.2949">in eve-gui and SCML, but is</text><text fill="#000000" font-family="sans-serif" font-size="13" lengthAdjust="spacing" textLength="169" x="12" y="773.5293">a logical functional distinction</text><text fill="#000000" font-family="sans-serif" font-size="13" lengthAdjust="spacing" textLength="149" x="12" y="788.7637">from the AverageDetector.</text></g><!--class AverageChannelData--><g id="elem_AverageChannelData"><rect codeLine="60" fill="#F1F1F1" height="195.6563" id="AverageChannelData" rx="2.5" ry="2.5" style="stroke:#181818;stroke-width:0.5;" width="230" x="222" y="470"/><ellipse cx="266.75" cy="486" fill="#ADD1B2" rx="11" ry="11" style="stroke:#181818;stroke-width:1.0;"/><path d="M266.7969,492.2031 C268.2969,492.2031 269.5313,491.6406 270.4375,490.5781 L269.0625,489.0625 C268.5156,489.6563 267.8594,490.0469 267.0625,490.0469 C265.3906,490.0469 264.2344,488.7188 264.2344,486.4375 C264.2344,484.2188 265.3906,482.875 266.9531,482.875 C267.7656,482.875 268.3594,483.1875 268.8906,483.6719 L270.2656,482.125 C269.5156,481.3906 268.3594,480.7188 266.9531,480.7188 C264,480.7188 261.6719,482.8594 261.6719,486.5313 C261.6719,490.25 264.0469,492.2031 266.7969,492.2031 Z " fill="#000000"/><text fill="#000000" font-family="sans-serif" font-size="14" lengthAdjust="spacing" textLength="132" x="287.25" y="490.7852">AverageChannelData</text><line style="stroke:#181818;stroke-width:0.5;" x1="223" x2="451" y1="502" y2="502"/><text fill="#000000" font-family="sans-serif" font-size="14" lengthAdjust="spacing" textLength="145" x="228" y="518.9883">raw_data : raggedarray</text><text fill="#000000" font-family="sans-serif" font-size="14" lengthAdjust="spacing" textLength="204" x="228" y="535.3945">attempts : np.ndarray(dtype=int)</text><text fill="#000000" font-family="sans-serif" font-size="14" lengthAdjust="spacing" textLength="218" x="228" y="551.8008">n_averages : np.ndarray(dtype=int)</text><text fill="#000000" font-family="sans-serif" font-size="14" lengthAdjust="spacing" textLength="119" x="228" y="568.207">_mean : np.ndarray</text><text fill="#000000" font-family="sans-serif" font-size="14" lengthAdjust="spacing" textLength="104" x="228" y="584.6133">_std : np.ndarray</text><line style="stroke:#181818;stroke-width:0.5;" x1="223" x2="451" y1="592.0313" y2="592.0313"/><text fill="#000000" font-family="sans-serif" font-size="14" lengthAdjust="spacing" textLength="45" x="228" y="609.0195">mean()</text><text fill="#000000" font-family="sans-serif" font-size="14" lengthAdjust="spacing" textLength="30" x="228" y="625.4258">std()</text><text fill="#000000" font-family="sans-serif" font-size="14" lengthAdjust="spacing" textLength="103" x="228" y="641.832">averaged_data()</text><text fill="#000000" font-family="sans-serif" font-size="14" lengthAdjust="spacing" textLength="98" x="228" y="658.2383">has_raw_data()</text></g><g id="elem_GMN29"><path d="M245,741.5 L245,781.9688 A0,0 0 0 0 245,781.9688 L401,781.9688 A0,0 0 0 0 401,781.9688 L401,751.5 L391,741.5 L328.39,741.5 L329.9,666.15 L320.39,741.5 L245,741.5 A0,0 0 0 0 245,741.5 " fill="#FEFFDD" style="stroke:#181818;stroke-width:0.5;"/><path d="M391,741.5 L391,751.5 L401,751.5 L391,741.5 " fill="#FEFFDD" style="stroke:#181818;stroke-width:0.5;"/><text fill="#000000" font-family="sans-serif" font-size="13" lengthAdjust="spacing" textLength="135" x="251" y="758.5605">How does mean() differ</text><text fill="#000000" font-family="sans-serif" font-size="13" lengthAdjust="spacing" textLength="116" x="251" y="773.7949">from values in Data?</text></g><g id="elem_GMN32"><path d="M436.5,741.5 L436.5,781.9688 A0,0 0 0 0 436.5,781.9688 L649.5,781.9688 A0,0 0 0 0 649.5,781.9688 L649.5,751.5 L639.5,741.5 L526.49,741.5 L441.51,666.15 L518.49,741.5 L436.5,741.5 A0,0 0 0 0 436.5,741.5 " fill="#FEFFDD" style="stroke:#181818;stroke-width:0.5;"/><path d="M639.5,741.5 L639.5,751.5 L649.5,751.5 L639.5,741.5 " fill="#FEFFDD" style="stroke:#181818;stroke-width:0.5;"/><text fill="#000000" font-family="sans-serif" font-size="13" lengthAdjust="spacing" textLength="173" x="442.5" y="758.5605">averaged_values() returns only</text><text fill="#000000" font-family="sans-serif" font-size="13" lengthAdjust="spacing" textLength="192" x="442.5" y="773.7949">those values used to average over</text></g><!--class IntervalChannelData--><g id="elem_IntervalChannelData"><rect codeLine="74" fill="#F1F1F1" height="162.8438" id="IntervalChannelData" rx="2.5" ry="2.5" style="stroke:#181818;stroke-width:0.5;" width="202" x="487" y="486.5"/><ellipse cx="520.9" cy="502.5" fill="#ADD1B2" rx="11" ry="11" style="stroke:#181818;stroke-width:1.0;"/><path d="M520.9469,508.7031 C522.4469,508.7031 523.6813,508.1406 524.5875,507.0781 L523.2125,505.5625 C522.6656,506.1563 522.0094,506.5469 521.2125,506.5469 C519.5406,506.5469 518.3844,505.2188 518.3844,502.9375 C518.3844,500.7188 519.5406,499.375 521.1031,499.375 C521.9156,499.375 522.5094,499.6875 523.0406,500.1719 L524.4156,498.625 C523.6656,497.8906 522.5094,497.2188 521.1031,497.2188 C518.15,497.2188 515.8219,499.3594 515.8219,503.0313 C515.8219,506.75 518.1969,508.7031 520.9469,508.7031 Z " fill="#000000"/><text fill="#000000" font-family="sans-serif" font-size="14" lengthAdjust="spacing" textLength="128" x="539.1" y="507.2852">IntervalChannelData</text><line style="stroke:#181818;stroke-width:0.5;" x1="488" x2="688" y1="518.5" y2="518.5"/><text fill="#000000" font-family="sans-serif" font-size="14" lengthAdjust="spacing" textLength="145" x="493" y="535.4883">raw_data : raggedarray</text><text fill="#000000" font-family="sans-serif" font-size="14" lengthAdjust="spacing" textLength="190" x="493" y="551.8945">counts : np.ndarray(dtype=int)</text><text fill="#000000" font-family="sans-serif" font-size="14" lengthAdjust="spacing" textLength="119" x="493" y="568.3008">_mean : np.ndarray</text><text fill="#000000" font-family="sans-serif" font-size="14" lengthAdjust="spacing" textLength="104" x="493" y="584.707">_std : np.ndarray</text><line style="stroke:#181818;stroke-width:0.5;" x1="488" x2="688" y1="592.125" y2="592.125"/><text fill="#000000" font-family="sans-serif" font-size="14" lengthAdjust="spacing" textLength="45" x="493" y="609.1133">mean()</text><text fill="#000000" font-family="sans-serif" font-size="14" lengthAdjust="spacing" textLength="30" x="493" y="625.5195">std()</text><text fill="#000000" font-family="sans-serif" font-size="14" lengthAdjust="spacing" textLength="98" x="493" y="641.9258">has_raw_data()</text></g><!--class ArrayChannelData--><g id="elem_ArrayChannelData"><rect codeLine="84" fill="#F1F1F1" height="48" id="ArrayChannelData" rx="2.5" ry="2.5" style="stroke:#181818;stroke-width:0.5;" width="147" x="724.5" y="544"/><ellipse cx="739.5" cy="560" fill="#ADD1B2" rx="11" ry="11" style="stroke:#181818;stroke-width:1.0;"/><path d="M739.5469,566.2031 C741.0469,566.2031 742.2813,565.6406 743.1875,564.5781 L741.8125,563.0625 C741.2656,563.6563 740.6094,564.0469 739.8125,564.0469 C738.1406,564.0469 736.9844,562.7188 736.9844,560.4375 C736.9844,558.2188 738.1406,556.875 739.7031,556.875 C740.5156,556.875 741.1094,557.1875 741.6406,557.6719 L743.0156,556.125 C742.2656,555.3906 741.1094,554.7188 739.7031,554.7188 C736.75,554.7188 734.4219,556.8594 734.4219,560.5313 C734.4219,564.25 736.7969,566.2031 739.5469,566.2031 Z " fill="#000000"/><text fill="#000000" font-family="sans-serif" font-size="14" lengthAdjust="spacing" textLength="115" x="753.5" y="564.7852">ArrayChannelData</text><line style="stroke:#181818;stroke-width:0.5;" x1="725.5" x2="870.5" y1="576" y2="576"/><line style="stroke:#181818;stroke-width:0.5;" x1="725.5" x2="870.5" y1="584" y2="584"/></g><!--class AreaChannelData--><g id="elem_AreaChannelData"><rect codeLine="87" fill="#F1F1F1" height="48" id="AreaChannelData" rx="2.5" ry="2.5" style="stroke:#181818;stroke-width:0.5;" width="142" x="907" y="544"/><ellipse cx="922" cy="560" fill="#ADD1B2" rx="11" ry="11" style="stroke:#181818;stroke-width:1.0;"/><path d="M922.0469,566.2031 C923.5469,566.2031 924.7813,565.6406 925.6875,564.5781 L924.3125,563.0625 C923.7656,563.6563 923.1094,564.0469 922.3125,564.0469 C920.6406,564.0469 919.4844,562.7188 919.4844,560.4375 C919.4844,558.2188 920.6406,556.875 922.2031,556.875 C923.0156,556.875 923.6094,557.1875 924.1406,557.6719 L925.5156,556.125 C924.7656,555.3906 923.6094,554.7188 922.2031,554.7188 C919.25,554.7188 916.9219,556.8594 916.9219,560.5313 C916.9219,564.25 919.2969,566.2031 922.0469,566.2031 Z " fill="#000000"/><text fill="#000000" font-family="sans-serif" font-size="14" lengthAdjust="spacing" textLength="110" x="936" y="564.7852">AreaChannelData</text><line style="stroke:#181818;stroke-width:0.5;" x1="908" x2="1048" y1="576" y2="576"/><line style="stroke:#181818;stroke-width:0.5;" x1="908" x2="1048" y1="584" y2="584"/></g><!--reverse link Data to DataImporter--><g id="link_Data_DataImporter"><path codeLine="31" d="M660.03,92 C671.65,92 671.27,92 682.89,92 " fill="none" id="Data-backto-DataImporter" style="stroke:#181818;stroke-width:1.0;"/><polygon fill="#181818" points="648.03,92,654.03,96,660.03,92,654.03,88,648.03,92" style="stroke:#181818;stroke-width:1.0;"/></g><!--reverse link Data to Metadata--><g id="link_Data_Metadata"><path codeLine="32" d="M491.1203,156.9724 C479.7303,166.6124 477.13,168.75 466,178 C437.87,201.38 405.4,227.69 382.68,245.98 " fill="none" id="Data-backto-Metadata" style="stroke:#181818;stroke-width:1.0;"/><polygon fill="#181818" points="500.28,149.22,493.116,150.043,491.1203,156.9724,498.2843,156.1494,500.28,149.22" style="stroke:#181818;stroke-width:1.0;"/></g><!--reverse link Data to MeasureData--><g id="link_Data_MeasureData"><path d="M566,167.17 C566,196.55 566,213.39 566,237.91 " fill="none" id="Data-backto-MeasureData" style="stroke:#181818;stroke-width:1.0;"/><polygon fill="none" points="566,149.17,560,167.17,572,167.17,566,149.17" style="stroke:#181818;stroke-width:1.0;"/></g><!--reverse link Data to MonitorData--><g id="link_Data_MonitorData"><path d="M642.1783,160.5327 C654.3583,170.5927 653.39,169.2 666,178 C697.59,200.06 734.94,221.43 765.71,237.91 " fill="none" id="Data-backto-MonitorData" style="stroke:#181818;stroke-width:1.0;"/><polygon fill="none" points="628.3,149.07,638.3574,165.1588,645.9992,155.9066,628.3,149.07" style="stroke:#181818;stroke-width:1.0;"/></g><!--reverse link MeasureData to AxisData--><g id="link_MeasureData_AxisData"><path d="M522.1221,314.8779 C503.2621,333.7379 492.35,344.65 475.16,361.84 " fill="none" id="MeasureData-backto-AxisData" style="stroke:#181818;stroke-width:1.0;"/><polygon fill="none" points="534.85,302.15,517.8794,310.6353,526.3647,319.1206,534.85,302.15" style="stroke:#181818;stroke-width:1.0;"/></g><!--reverse link MeasureData to ChannelData--><g id="link_MeasureData_ChannelData"><path d="M575.4211,319.8238 C579.0611,338.6838 580.21,344.65 583.53,361.84 " fill="none" id="MeasureData-backto-ChannelData" style="stroke:#181818;stroke-width:1.0;"/><polygon fill="none" points="572.01,302.15,569.5298,320.9609,581.3123,318.6868,572.01,302.15" style="stroke:#181818;stroke-width:1.0;"/></g><!--reverse link MeasureData to TimestampData--><g id="link_MeasureData_TimestampData"><path d="M630.3954,311.783 C660.1654,330.643 682.28,344.65 709.44,361.84 " fill="none" id="MeasureData-backto-TimestampData" style="stroke:#181818;stroke-width:1.0;"/><polygon fill="none" points="615.19,302.15,627.1844,316.8515,633.6064,306.7145,615.19,302.15" style="stroke:#181818;stroke-width:1.0;"/></g><!--reverse link ChannelData to StandardChannelData--><g id="link_ChannelData_StandardChannelData"><path d="M513.9071,410.3008 C378.2371,444.4508 329.65,406.49 205,470 C169.8,487.93 137.98,521.34 119.06,543.87 " fill="none" id="ChannelData-backto-StandardChannelData" style="stroke:#181818;stroke-width:1.0;"/><polygon fill="none" points="531.21,405.34,512.2535,404.5331,515.5607,416.0684,531.21,405.34" style="stroke:#181818;stroke-width:1.0;"/></g><!--reverse link ChannelData to AverageChannelData--><g id="link_ChannelData_AverageChannelData"><path d="M540.0759,420.411 C516.3659,436.981 498.51,449.58 470,470 C464.19,474.16 458.25,478.43 452.25,482.76 " fill="none" id="ChannelData-backto-AverageChannelData" style="stroke:#181818;stroke-width:1.0;"/><polygon fill="none" points="554.83,410.1,536.6389,415.493,543.513,425.3291,554.83,410.1" style="stroke:#181818;stroke-width:1.0;"/></g><!--reverse link ChannelData to IntervalChannelData--><g id="link_ChannelData_IntervalChannelData"><path d="M588,428.16 C588,447.63 588,458.65 588,486.45 " fill="none" id="ChannelData-backto-IntervalChannelData" style="stroke:#181818;stroke-width:1.0;"/><polygon fill="none" points="588,410.16,582,428.16,594,428.16,588,410.16" style="stroke:#181818;stroke-width:1.0;"/></g><!--reverse link ChannelData to ArrayChannelData--><g id="link_ChannelData_ArrayChannelData"><path d="M640.2222,419.804 C664.4622,435.524 681.19,447.67 707,470 C733.72,493.11 761.01,523.25 778.64,543.75 " fill="none" id="ChannelData-backto-ArrayChannelData" style="stroke:#181818;stroke-width:1.0;"/><polygon fill="none" points="625.12,410.01,636.9576,424.8381,643.4869,414.7699,625.12,410.01" style="stroke:#181818;stroke-width:1.0;"/></g><!--reverse link ChannelData to AreaChannelData--><g id="link_ChannelData_AreaChannelData"><path d="M662.0955,409.8367 C668.2155,411.6667 657.11,408.31 663,410 C762.92,438.57 800.07,416.22 889,470 C920.09,488.81 946.9,521.67 962.74,543.87 " fill="none" id="ChannelData-backto-AreaChannelData" style="stroke:#181818;stroke-width:1.0;"/><polygon fill="none" points="644.85,404.68,660.3766,415.5853,663.8144,404.0882,644.85,404.68" style="stroke:#181818;stroke-width:1.0;"/></g><!--SRC=[jLHHQnin37xFhn1zMJhMiWxs4XYZD8mLLXYqZuMWddM9rZlxi7LfZz3_FjddIovhkXR6yXAV_7sIB7tIkt3Fja6FDPY6uUppnycag304cACWR2QWlve4JVoSmLK-9liY6srpQWrwZrrlvhfnNiZhLVHocJ_JPQHCZoTF4-k4eA9Im9K9DfijjfwFql48sj1YLNLGE2l8DW32sHnIA41hWDLI51G2cSHRCuAiA4U19KbCG_DVEGFJdvt-MsYyQyXBTwnGbCGhD4f8p772eE2IVP0S1BW4I_64lZkT9EOtvu6juJKRJHMA5LfB5QonQYb08Cs5FA_9G2ehXSGwNvF79Ltqw5Jg-9nBgr6LEhBdCEUUS0_j2OAhwK5V0A6XWZKufYVqJSWL0s8rUVWqJpK1pHQXuf2gtblkVb4XVLfJ9HGOA5vohGc6b1PMV4_7fnFISspRM2BRMlLI2Qxr1QLZhuBKwumVnAFOtFyx9-Bg6Lp7EZ4kemvBvs_jLdArCsr5MeNqxFSd-uhAnfETBhUXCBIUqZqzYcQ-f-XDoLIP9sXSO66dmXghU6gaQ-WBMnadxooBywzvhBdIyfAMtxp1wVaZXpsFuxmtEzouzQz0RxYc85WtRm5V2yRqp27_Ozj66QE6HNqSeAP2tAnqAEDJmJZLZxBKemgkruGASaqdovQJiAulhdvyWBjMT93JlMhJBLcd4ShM5h4pUZJAvluhWKgl6SHPpLCq9r45Evy4EjRdWIax-BZarUF3iC-KjAJHGXjwYxfDwaPUxkiOR1VOX_yxV54JsWCxD8XvRetOQS_J-tpAOSmYhzPeMs5O30_QRTjXshwxXxuvlJyjS5cI3bqgRDvSsgbOdAz_jlrvJMUx37gkUlGahTUfShRgRgrkNTqfsN6hknh43IHm-ZyqxC3- -xUE5QwryhyRyApOW_mYxVMdZF3xE_ub-6y0]--></g></svg>