<?xml version="1.0" encoding="us-ascii" standalone="no"?><svg xmlns="http://www.w3.org/2000/svg" xmlns:xlink="http://www.w3.org/1999/xlink" contentStyleType="text/css" height="519.2px" preserveAspectRatio="none" style="width:628px;height:519px;background:#FFFFFF;" version="1.1" viewBox="0 0 628 519" width="628.8px" zoomAndPan="magnify"><defs/><g><!--class EveData--><g id="elem_EveData"><rect codeLine="3" fill="#F1F1F1" height="77.775" id="EveData" rx="2" ry="2" style="stroke:#181818;stroke-width:0.4000000000000001;" width="132" x="233.6" y="5.6"/><ellipse cx="275.4" cy="18.4" fill="#ADD1B2" rx="8.8" ry="8.8" style="stroke:#181818;stroke-width:0.8000000000000002;"/><path d="M275.4375,23.3625 C276.6375,23.3625 277.625,22.9125 278.35,22.0625 L277.25,20.85 C276.8125,21.325 276.2875,21.6375 275.65,21.6375 C274.3125,21.6375 273.3875,20.575 273.3875,18.75 C273.3875,16.975 274.3125,15.9 275.5625,15.9 C276.2125,15.9 276.6875,16.15 277.1125,16.5375 L278.2125,15.3 C277.6125,14.7125 276.6875,14.175 275.5625,14.175 C273.2,14.175 271.3375,15.8875 271.3375,18.825 C271.3375,21.8 273.2375,23.3625 275.4375,23.3625 Z " fill="#000000"/><text fill="#000000" font-family="sans-serif" font-size="11.2" lengthAdjust="spacing" textLength="41.6" x="291.8" y="22.2281">EveData</text><line style="stroke:#181818;stroke-width:0.4000000000000001;" x1="234.4" x2="364.8" y1="31.2" y2="31.2"/><text fill="#000000" font-family="sans-serif" font-size="11.2" lengthAdjust="spacing" textLength="122.4" x="238.4" y="44.7906">metadata : EveMetadata</text><text fill="#000000" font-family="sans-serif" font-size="11.2" lengthAdjust="spacing" textLength="94.4" x="238.4" y="57.9156">values : np.ndarray</text><text fill="#000000" font-family="sans-serif" font-size="11.2" lengthAdjust="spacing" textLength="84.8" x="238.4" y="71.0406">type : DeviceType</text><line style="stroke:#181818;stroke-width:0.4000000000000001;" x1="234.4" x2="364.8" y1="76.975" y2="76.975"/></g><g id="elem_GMN3"><path d="M4.8,16 L4.8,72.75 A0,0 0 0 0 4.8,72.75 L205.6,72.75 A0,0 0 0 0 205.6,72.75 L205.6,47.6 L233.296,44.4 L205.6,41.2 L205.6,24 L197.6,16 L4.8,16 A0,0 0 0 0 4.8,16 " fill="#FEFFDD" style="stroke:#181818;stroke-width:0.4000000000000001;"/><path d="M197.6,16 L197.6,24 L205.6,24 L197.6,16 " fill="#FEFFDD" style="stroke:#181818;stroke-width:0.4000000000000001;"/><text fill="#000000" font-family="sans-serif" font-size="10.4" lengthAdjust="spacing" textLength="128" x="9.6" y="29.6484">"values" contains a 1D array.</text><text fill="#000000" font-family="sans-serif" font-size="10.4" lengthAdjust="spacing" textLength="184" x="9.6" y="41.8359">For individual values see derived classes</text><text fill="#000000" font-family="sans-serif" font-size="10.4" lengthAdjust="spacing" textLength="132.8" x="9.6" y="54.0234">EveAverageDetectorData and</text><text fill="#000000" font-family="sans-serif" font-size="10.4" lengthAdjust="spacing" textLength="110.4" x="9.6" y="66.2109">EveIntervalDetectorData</text></g><!--class DeviceType--><g id="elem_DeviceType"><rect codeLine="10" fill="#F1F1F1" height="77.775" id="DeviceType" rx="2" ry="2" style="stroke:#181818;stroke-width:0.4000000000000001;" width="81.6" x="394" y="5.6"/><ellipse cx="406" cy="18.4" fill="#EB937F" rx="8.8" ry="8.8" style="stroke:#181818;stroke-width:0.8000000000000002;"/><path d="M402.85,23.2 L408.8625,23.2 L408.8625,21.5125 L404.8625,21.5125 L404.8625,19.475 L408.1375,19.475 L408.1375,17.8 L404.8625,17.8 L404.8625,16.025 L408.725,16.025 L408.725,14.3375 L402.85,14.3375 L402.85,23.2 Z " fill="#000000"/><text fill="#000000" font-family="sans-serif" font-size="11.2" lengthAdjust="spacing" textLength="56" x="417.2" y="22.2281">DeviceType</text><line style="stroke:#181818;stroke-width:0.4000000000000001;" x1="394.8" x2="474.8" y1="31.2" y2="31.2"/><text fill="#000000" font-family="sans-serif" font-size="11.2" lengthAdjust="spacing" textLength="39.2" x="398.8" y="44.7906">MOTOR</text><text fill="#000000" font-family="sans-serif" font-size="11.2" lengthAdjust="spacing" textLength="55.2" x="398.8" y="57.9156">DETECTOR</text><text fill="#000000" font-family="sans-serif" font-size="11.2" lengthAdjust="spacing" textLength="31.2" x="398.8" y="71.0406">DUMB</text><line style="stroke:#181818;stroke-width:0.4000000000000001;" x1="394.8" x2="474.8" y1="76.975" y2="76.975"/></g><g id="elem_GMN7"><path d="M503.6,22 L503.6,41.2 L475.808,44.4 L503.6,47.6 L503.6,66.5625 A0,0 0 0 0 503.6,66.5625 L623.6,66.5625 A0,0 0 0 0 623.6,66.5625 L623.6,30 L615.6,22 L503.6,22 A0,0 0 0 0 503.6,22 " fill="#FEFFDD" style="stroke:#181818;stroke-width:0.4000000000000001;"/><path d="M615.6,22 L615.6,30 L623.6,30 L615.6,22 " fill="#FEFFDD" style="stroke:#181818;stroke-width:0.4000000000000001;"/><text fill="#000000" font-family="sans-serif" font-size="10.4" lengthAdjust="spacing" textLength="103.2" x="508.4" y="35.6484">dumb needs renaming.</text><text fill="#000000" font-family="sans-serif" font-size="10.4" lengthAdjust="spacing" textLength="94.4" x="508.4" y="47.8359">How about "monitor",</text><text fill="#000000" font-family="sans-serif" font-size="10.4" lengthAdjust="spacing" textLength="96" x="508.4" y="60.0234">"device" or "passive"?</text></g><!--class EveMetadata--><g id="elem_EveMetadata"><rect codeLine="17" fill="#F1F1F1" height="38.4" id="EveMetadata" rx="2" ry="2" style="stroke:#181818;stroke-width:0.4000000000000001;" width="92" x="74.4" y="137.6"/><ellipse cx="86.4" cy="150.4" fill="#ADD1B2" rx="8.8" ry="8.8" style="stroke:#181818;stroke-width:0.8000000000000002;"/><path d="M86.4375,155.3625 C87.6375,155.3625 88.625,154.9125 89.35,154.0625 L88.25,152.85 C87.8125,153.325 87.2875,153.6375 86.65,153.6375 C85.3125,153.6375 84.3875,152.575 84.3875,150.75 C84.3875,148.975 85.3125,147.9 86.5625,147.9 C87.2125,147.9 87.6875,148.15 88.1125,148.5375 L89.2125,147.3 C88.6125,146.7125 87.6875,146.175 86.5625,146.175 C84.2,146.175 82.3375,147.8875 82.3375,150.825 C82.3375,153.8 84.2375,155.3625 86.4375,155.3625 Z " fill="#000000"/><text fill="#000000" font-family="sans-serif" font-size="11.2" lengthAdjust="spacing" textLength="66.4" x="97.6" y="154.2281">EveMetadata</text><line style="stroke:#181818;stroke-width:0.4000000000000001;" x1="75.2" x2="165.6" y1="163.2" y2="163.2"/><line style="stroke:#181818;stroke-width:0.4000000000000001;" x1="75.2" x2="165.6" y1="169.6" y2="169.6"/></g><g id="elem_GMN11"><path d="M62.4,233.6 L62.4,265.975 A0,0 0 0 0 62.4,265.975 L178.4,265.975 A0,0 0 0 0 178.4,265.975 L178.4,241.6 L170.4,233.6 L123.6,233.6 L120.4,176.056 L117.2,233.6 L62.4,233.6 A0,0 0 0 0 62.4,233.6 " fill="#FEFFDD" style="stroke:#181818;stroke-width:0.4000000000000001;"/><path d="M170.4,233.6 L170.4,241.6 L178.4,241.6 L170.4,233.6 " fill="#FEFFDD" style="stroke:#181818;stroke-width:0.4000000000000001;"/><text fill="#000000" font-family="sans-serif" font-size="10.4" lengthAdjust="spacing" textLength="99.2" x="67.2" y="247.2484">See separate diagram</text><text fill="#000000" font-family="sans-serif" font-size="10.4" lengthAdjust="spacing" textLength="84" x="67.2" y="259.4359">for class hierarchy</text></g><!--class EveMeasureData--><g id="elem_EveMeasureData"><rect codeLine="21" fill="#F1F1F1" height="51.525" id="EveMeasureData" rx="2" ry="2" style="stroke:#181818;stroke-width:0.4000000000000001;" width="210.4" x="194.4" y="131.2"/><ellipse cx="253.8" cy="144" fill="#ADD1B2" rx="8.8" ry="8.8" style="stroke:#181818;stroke-width:0.8000000000000002;"/><path d="M253.8375,148.9625 C255.0375,148.9625 256.025,148.5125 256.75,147.6625 L255.65,146.45 C255.2125,146.925 254.6875,147.2375 254.05,147.2375 C252.7125,147.2375 251.7875,146.175 251.7875,144.35 C251.7875,142.575 252.7125,141.5 253.9625,141.5 C254.6125,141.5 255.0875,141.75 255.5125,142.1375 L256.6125,140.9 C256.0125,140.3125 255.0875,139.775 253.9625,139.775 C251.6,139.775 249.7375,141.4875 249.7375,144.425 C249.7375,147.4 251.6375,148.9625 253.8375,148.9625 Z " fill="#000000"/><text fill="#000000" font-family="sans-serif" font-size="11.2" lengthAdjust="spacing" textLength="84.8" x="270.2" y="147.8281">EveMeasureData</text><line style="stroke:#181818;stroke-width:0.4000000000000001;" x1="195.2" x2="404" y1="156.8" y2="156.8"/><text fill="#000000" font-family="sans-serif" font-size="11.2" lengthAdjust="spacing" textLength="200.8" x="199.2" y="170.3906">position_counter : np.ndarray(dtype=int)</text><line style="stroke:#181818;stroke-width:0.4000000000000001;" x1="195.2" x2="404" y1="176.325" y2="176.325"/></g><!--class EveMonitorData--><g id="elem_EveMonitorData"><rect codeLine="25" fill="#F1F1F1" height="51.525" id="EveMonitorData" rx="2" ry="2" style="stroke:#181818;stroke-width:0.4000000000000001;" width="188" x="432.8" y="131.2"/><ellipse cx="483" cy="144" fill="#ADD1B2" rx="8.8" ry="8.8" style="stroke:#181818;stroke-width:0.8000000000000002;"/><path d="M483.0375,148.9625 C484.2375,148.9625 485.225,148.5125 485.95,147.6625 L484.85,146.45 C484.4125,146.925 483.8875,147.2375 483.25,147.2375 C481.9125,147.2375 480.9875,146.175 480.9875,144.35 C480.9875,142.575 481.9125,141.5 483.1625,141.5 C483.8125,141.5 484.2875,141.75 484.7125,142.1375 L485.8125,140.9 C485.2125,140.3125 484.2875,139.775 483.1625,139.775 C480.8,139.775 478.9375,141.4875 478.9375,144.425 C478.9375,147.4 480.8375,148.9625 483.0375,148.9625 Z " fill="#000000"/><text fill="#000000" font-family="sans-serif" font-size="11.2" lengthAdjust="spacing" textLength="80.8" x="499.4" y="147.8281">EveMonitorData</text><line style="stroke:#181818;stroke-width:0.4000000000000001;" x1="433.6" x2="620" y1="156.8" y2="156.8"/><text fill="#000000" font-family="sans-serif" font-size="11.2" lengthAdjust="spacing" textLength="178.4" x="437.6" y="170.3906">milliseconds : np.ndarray(dtype=int)</text><line style="stroke:#181818;stroke-width:0.4000000000000001;" x1="433.6" x2="620" y1="176.325" y2="176.325"/></g><!--class EveMotorData--><g id="elem_EveMotorData"><rect codeLine="29" fill="#F1F1F1" height="38.4" id="EveMotorData" rx="2" ry="2" style="stroke:#181818;stroke-width:0.4000000000000001;" width="97.6" x="228.4" y="230.4"/><ellipse cx="240.4" cy="243.2" fill="#ADD1B2" rx="8.8" ry="8.8" style="stroke:#181818;stroke-width:0.8000000000000002;"/><path d="M240.4375,248.1625 C241.6375,248.1625 242.625,247.7125 243.35,246.8625 L242.25,245.65 C241.8125,246.125 241.2875,246.4375 240.65,246.4375 C239.3125,246.4375 238.3875,245.375 238.3875,243.55 C238.3875,241.775 239.3125,240.7 240.5625,240.7 C241.2125,240.7 241.6875,240.95 242.1125,241.3375 L243.2125,240.1 C242.6125,239.5125 241.6875,238.975 240.5625,238.975 C238.2,238.975 236.3375,240.6875 236.3375,243.625 C236.3375,246.6 238.2375,248.1625 240.4375,248.1625 Z " fill="#000000"/><text fill="#000000" font-family="sans-serif" font-size="11.2" lengthAdjust="spacing" textLength="72" x="251.6" y="247.0281">EveMotorData</text><line style="stroke:#181818;stroke-width:0.4000000000000001;" x1="229.2" x2="325.2" y1="256" y2="256"/><line style="stroke:#181818;stroke-width:0.4000000000000001;" x1="229.2" x2="325.2" y1="262.4" y2="262.4"/></g><!--class EveDetectorData--><g id="elem_EveDetectorData"><rect codeLine="32" fill="#F1F1F1" height="38.4" id="EveDetectorData" rx="2" ry="2" style="stroke:#181818;stroke-width:0.4000000000000001;" width="109.6" x="354.4" y="230.4"/><ellipse cx="366.4" cy="243.2" fill="#ADD1B2" rx="8.8" ry="8.8" style="stroke:#181818;stroke-width:0.8000000000000002;"/><path d="M366.4375,248.1625 C367.6375,248.1625 368.625,247.7125 369.35,246.8625 L368.25,245.65 C367.8125,246.125 367.2875,246.4375 366.65,246.4375 C365.3125,246.4375 364.3875,245.375 364.3875,243.55 C364.3875,241.775 365.3125,240.7 366.5625,240.7 C367.2125,240.7 367.6875,240.95 368.1125,241.3375 L369.2125,240.1 C368.6125,239.5125 367.6875,238.975 366.5625,238.975 C364.2,238.975 362.3375,240.6875 362.3375,243.625 C362.3375,246.6 364.2375,248.1625 366.4375,248.1625 Z " fill="#000000"/><text fill="#000000" font-family="sans-serif" font-size="11.2" lengthAdjust="spacing" textLength="84" x="377.6" y="247.0281">EveDetectorData</text><line style="stroke:#181818;stroke-width:0.4000000000000001;" x1="355.2" x2="463.2" y1="256" y2="256"/><line style="stroke:#181818;stroke-width:0.4000000000000001;" x1="355.2" x2="463.2" y1="262.4" y2="262.4"/></g><!--class EveAverageDetectorData--><g id="elem_EveAverageDetectorData"><rect codeLine="35" fill="#F1F1F1" height="117.15" id="EveAverageDetectorData" rx="2" ry="2" style="stroke:#181818;stroke-width:0.4000000000000001;" width="172.8" x="225.2" y="316.8"/><ellipse cx="247.28" cy="329.6" fill="#ADD1B2" rx="8.8" ry="8.8" style="stroke:#181818;stroke-width:0.8000000000000002;"/><path d="M247.3175,334.5625 C248.5175,334.5625 249.505,334.1125 250.23,333.2625 L249.13,332.05 C248.6925,332.525 248.1675,332.8375 247.53,332.8375 C246.1925,332.8375 245.2675,331.775 245.2675,329.95 C245.2675,328.175 246.1925,327.1 247.4425,327.1 C248.0925,327.1 248.5675,327.35 248.9925,327.7375 L250.0925,326.5 C249.4925,325.9125 248.5675,325.375 247.4425,325.375 C245.08,325.375 243.2175,327.0875 243.2175,330.025 C243.2175,333 245.1175,334.5625 247.3175,334.5625 Z " fill="#000000"/><text fill="#000000" font-family="sans-serif" font-size="11.2" lengthAdjust="spacing" textLength="124.8" x="260.72" y="333.4281">EveAverageDetectorData</text><line style="stroke:#181818;stroke-width:0.4000000000000001;" x1="226" x2="397.2" y1="342.4" y2="342.4"/><text fill="#000000" font-family="sans-serif" font-size="11.2" lengthAdjust="spacing" textLength="124.8" x="230" y="355.9906">raw_values : raggedarray</text><text fill="#000000" font-family="sans-serif" font-size="11.2" lengthAdjust="spacing" textLength="163.2" x="230" y="369.1156">attempts : np.ndarray(dtype=int)</text><line style="stroke:#181818;stroke-width:0.4000000000000001;" x1="226" x2="397.2" y1="375.05" y2="375.05"/><text fill="#000000" font-family="sans-serif" font-size="11.2" lengthAdjust="spacing" textLength="36" x="230" y="388.6406">mean()</text><text fill="#000000" font-family="sans-serif" font-size="11.2" lengthAdjust="spacing" textLength="24" x="230" y="401.7656">std()</text><text fill="#000000" font-family="sans-serif" font-size="11.2" lengthAdjust="spacing" textLength="91.2" x="230" y="414.8906">averaged_values()</text><text fill="#000000" font-family="sans-serif" font-size="11.2" lengthAdjust="spacing" textLength="87.2" x="230" y="428.0156">has_raw_values()</text></g><g id="elem_GMN19"><path d="M160.8,481.6 L160.8,513.975 A0,0 0 0 0 160.8,513.975 L286.4,513.975 A0,0 0 0 0 286.4,513.975 L286.4,489.6 L278.4,481.6 L237.952,481.6 L269.408,433.92 L231.552,481.6 L160.8,481.6 A0,0 0 0 0 160.8,481.6 " fill="#FEFFDD" style="stroke:#181818;stroke-width:0.4000000000000001;"/><path d="M278.4,481.6 L278.4,489.6 L286.4,489.6 L278.4,481.6 " fill="#FEFFDD" style="stroke:#181818;stroke-width:0.4000000000000001;"/><text fill="#000000" font-family="sans-serif" font-size="10.4" lengthAdjust="spacing" textLength="108" x="165.6" y="495.2484">How does mean() differ</text><text fill="#000000" font-family="sans-serif" font-size="10.4" lengthAdjust="spacing" textLength="108.8" x="165.6" y="507.4359">from values in EveData?</text></g><g id="elem_GMN22"><path d="M314.4,481.6 L314.4,513.975 A0,0 0 0 0 314.4,513.975 L484.8,513.975 A0,0 0 0 0 484.8,513.975 L484.8,489.6 L476.8,481.6 L391.648,481.6 L353.792,433.92 L385.248,481.6 L314.4,481.6 A0,0 0 0 0 314.4,481.6 " fill="#FEFFDD" style="stroke:#181818;stroke-width:0.4000000000000001;"/><path d="M476.8,481.6 L476.8,489.6 L484.8,489.6 L476.8,481.6 " fill="#FEFFDD" style="stroke:#181818;stroke-width:0.4000000000000001;"/><text fill="#000000" font-family="sans-serif" font-size="10.4" lengthAdjust="spacing" textLength="138.4" x="319.2" y="495.2484">averaged_values() returns only</text><text fill="#000000" font-family="sans-serif" font-size="10.4" lengthAdjust="spacing" textLength="153.6" x="319.2" y="507.4359">those values used to average over</text></g><!--class EveIntervalDetectorData--><g id="elem_EveIntervalDetectorData"><rect codeLine="46" fill="#F1F1F1" height="104.025" id="EveIntervalDetectorData" rx="2" ry="2" style="stroke:#181818;stroke-width:0.4000000000000001;" width="161.6" x="426" y="323.2"/><ellipse cx="444.48" cy="336" fill="#ADD1B2" rx="8.8" ry="8.8" style="stroke:#181818;stroke-width:0.8000000000000002;"/><path d="M444.5175,340.9625 C445.7175,340.9625 446.705,340.5125 447.43,339.6625 L446.33,338.45 C445.8925,338.925 445.3675,339.2375 444.73,339.2375 C443.3925,339.2375 442.4675,338.175 442.4675,336.35 C442.4675,334.575 443.3925,333.5 444.6425,333.5 C445.2925,333.5 445.7675,333.75 446.1925,334.1375 L447.2925,332.9 C446.6925,332.3125 445.7675,331.775 444.6425,331.775 C442.28,331.775 440.4175,333.4875 440.4175,336.425 C440.4175,339.4 442.3175,340.9625 444.5175,340.9625 Z " fill="#000000"/><text fill="#000000" font-family="sans-serif" font-size="11.2" lengthAdjust="spacing" textLength="121.6" x="457.12" y="339.8281">EveIntervalDetectorData</text><line style="stroke:#181818;stroke-width:0.4000000000000001;" x1="426.8" x2="586.8" y1="348.8" y2="348.8"/><text fill="#000000" font-family="sans-serif" font-size="11.2" lengthAdjust="spacing" textLength="124.8" x="430.8" y="362.3906">raw_values : raggedarray</text><text fill="#000000" font-family="sans-serif" font-size="11.2" lengthAdjust="spacing" textLength="152" x="430.8" y="375.5156">counts : np.ndarray(dtype=int)</text><line style="stroke:#181818;stroke-width:0.4000000000000001;" x1="426.8" x2="586.8" y1="381.45" y2="381.45"/><text fill="#000000" font-family="sans-serif" font-size="11.2" lengthAdjust="spacing" textLength="36" x="430.8" y="395.0406">mean()</text><text fill="#000000" font-family="sans-serif" font-size="11.2" lengthAdjust="spacing" textLength="24" x="430.8" y="408.1656">std()</text><text fill="#000000" font-family="sans-serif" font-size="11.2" lengthAdjust="spacing" textLength="87.2" x="430.8" y="421.2906">has_raw_values()</text></g><!--reverse link EveData to EveMetadata--><g id="link_EveData_EveMetadata"><path codeLine="54" d="M229.7631,88.3771 C200.0991,106.7211 174.064,122.816 150.232,137.552 " fill="none" id="EveData-backto-EveMetadata" style="stroke:#181818;stroke-width:0.8000000000000002;"/><polygon fill="#181818" points="237.928,83.328,232.1625,83.1309,229.7631,88.3771,235.5286,88.5742,237.928,83.328" style="stroke:#181818;stroke-width:0.8000000000000002;"/></g><!--reverse link EveData to EveMeasureData--><g id="link_EveData_EveMeasureData"><path codeLine="55" d="M299.6,97.728 C299.6,113.504 299.6,116.96 299.6,131.016 " fill="none" id="EveData-backto-EveMeasureData" style="stroke:#181818;stroke-width:0.8000000000000002;"/><polygon fill="none" points="299.6,83.328,294.8,97.728,304.4,97.728,299.6,83.328" style="stroke:#181818;stroke-width:0.8000000000000002;"/></g><!--reverse link EveData to EveMonitorData--><g id="link_EveData_EveMonitorData"><path codeLine="56" d="M378.5674,83.711 C413.6794,100.831 443.248,115.256 475.8,131.128 " fill="none" id="EveData-backto-EveMonitorData" style="stroke:#181818;stroke-width:0.8000000000000002;"/><polygon fill="none" points="365.624,77.4,376.4637,88.0254,380.6711,79.3965,365.624,77.4" style="stroke:#181818;stroke-width:0.8000000000000002;"/></g><!--reverse link EveMeasureData to EveMotorData--><g id="link_EveMeasureData_EveMotorData"><path codeLine="57" d="M290.0468,196.5048 C286.3428,211.5928 285.128,216.52 281.752,230.272 " fill="none" id="EveMeasureData-backto-EveMotorData" style="stroke:#181818;stroke-width:0.8000000000000002;"/><polygon fill="none" points="293.48,182.52,285.3853,195.3604,294.7084,197.6491,293.48,182.52" style="stroke:#181818;stroke-width:0.8000000000000002;"/></g><!--reverse link EveMeasureData to EveDetectorData--><g id="link_EveMeasureData_EveDetectorData"><path codeLine="58" d="M340.618,191.7343 C358.738,206.8223 370.408,216.52 386.936,230.272 " fill="none" id="EveMeasureData-backto-EveDetectorData" style="stroke:#181818;stroke-width:0.8000000000000002;"/><polygon fill="none" points="329.552,182.52,337.5465,195.423,343.6894,188.0457,329.552,182.52" style="stroke:#181818;stroke-width:0.8000000000000002;"/></g><!--reverse link EveDetectorData to EveAverageDetectorData--><g id="link_EveDetectorData_EveAverageDetectorData"><path codeLine="59" d="M385.6822,280.2806 C375.6262,293.0486 370.6,299.44 357.008,316.704 " fill="none" id="EveDetectorData-backto-EveAverageDetectorData" style="stroke:#181818;stroke-width:0.8000000000000002;"/><polygon fill="none" points="394.592,268.968,381.9113,277.3107,389.4531,283.2506,394.592,268.968" style="stroke:#181818;stroke-width:0.8000000000000002;"/></g><!--reverse link EveDetectorData to EveIntervalDetectorData--><g id="link_EveDetectorData_EveIntervalDetectorData"><path codeLine="60" d="M432.7186,280.28 C443.9986,294.6 451.248,303.824 466.328,322.976 " fill="none" id="EveDetectorData-backto-EveIntervalDetectorData" style="stroke:#181818;stroke-width:0.8000000000000002;"/><polygon fill="none" points="423.808,268.968,428.9479,283.2502,436.4892,277.3098,423.808,268.968" style="stroke:#181818;stroke-width:0.8000000000000002;"/></g><!--SRC=[dLHDRzim3BtxLn2-B1tMOZti4gmejYN3TWWARDdDGC1OT2BCfWn9TX5q_U-ZFvJOgODz-6A95Cb7lYUzSZyrbsYn05Lgk7ttDehI79s3PKqBz0XF4SXNa4VLREUDOzNlMbUDUKLE75pUi49hyT3Q_Q4aiIwerYcjPHCzHsmyGKwPdqFSnSMG6lQesG72xGBQ-9k4FniBcfMkjQem3qKS4IYokYO5BKno2GkW3pLPtD62FANUs1OuicfzNzcJbVYXCug8gsA0hMzpzR1- -DQk5ilryjDnysFrCQ2tUhSN-Aegji14oe4bnaBpJb1_CO-0MrDvY0l3Mgh5RnAELLid1kafBWMru8_l1uCEynGKVPMjyTuKS_Wk3Jjg21AZqhWJfXBE954NlDVIk4ttXr4sT9KTilUKQShLCvJ6QQyDRr9JDLCPaJPJ3MDtclsLe1YawngPI5VeFDUEX43b_ZBLAT7GFk9jx9fYjaDXyN5pr9wSsT50V04YUaz5wI_3wyIDFEkMpgj-XLrXrTVehNjqcrFXsTKvNuq0b158NKwXBCl82cFM5474ciFbkXy6WyakD3n_2KP4voihbyPmVaZOxusZaBzoSZky2K5Wv3-OwDHz-9UHjjhvZu5EZ2uAZyphw-lHknBixty5nr7IBtqdVKPdwZyT-SE1qTjmBiXmQ8APYsSd7vtV]--></g></svg>