<?xml version="1.0" encoding="us-ascii" standalone="no"?><svg xmlns="http://www.w3.org/2000/svg" xmlns:xlink="http://www.w3.org/1999/xlink" contentStyleType="text/css" height="660px" preserveAspectRatio="none" style="width:987px;height:660px;background:#FFFFFF;" version="1.1" viewBox="0 0 987 660" width="987px" zoomAndPan="magnify"><defs/><g><!--cluster scan--><g id="cluster_scan"><path d="M679,6 L710,6 A3.75,3.75 0 0 1 712.5,8.5 L719.5,28.4063 L978,28.4063 A2.5,2.5 0 0 1 980.5,30.9063 L980.5,236.5 A2.5,2.5 0 0 1 978,239 L679,239 A2.5,2.5 0 0 1 676.5,236.5 L676.5,8.5 A2.5,2.5 0 0 1 679,6 " fill="none" style="stroke:#000000;stroke-width:1.5;"/><line style="stroke:#000000;stroke-width:1.5;" x1="676.5" x2="719.5" y1="28.4063" y2="28.4063"/><text fill="#000000" font-family="sans-serif" font-size="14" font-weight="bold" lengthAdjust="spacing" textLength="30" x="680.5" y="20.9883">scan</text></g><!--cluster boundaries--><g id="cluster_boundaries"><path d="M703,49 L776,49 A3.75,3.75 0 0 1 778.5,51.5 L785.5,71.4063 L954,71.4063 A2.5,2.5 0 0 1 956.5,73.9063 L956.5,212.5 A2.5,2.5 0 0 1 954,215 L703,215 A2.5,2.5 0 0 1 700.5,212.5 L700.5,51.5 A2.5,2.5 0 0 1 703,49 " fill="none" style="stroke:#000000;stroke-width:1.5;"/><line style="stroke:#000000;stroke-width:1.5;" x1="700.5" x2="785.5" y1="71.4063" y2="71.4063"/><text fill="#000000" font-family="sans-serif" font-size="14" font-weight="bold" lengthAdjust="spacing" textLength="72" x="704.5" y="63.9883">boundaries</text></g><!--cluster scan--><g id="cluster_scan"><path d="M727,92 L758,92 A3.75,3.75 0 0 1 760.5,94.5 L767.5,114.4063 L930,114.4063 A2.5,2.5 0 0 1 932.5,116.9063 L932.5,188.5 A2.5,2.5 0 0 1 930,191 L727,191 A2.5,2.5 0 0 1 724.5,188.5 L724.5,94.5 A2.5,2.5 0 0 1 727,92 " fill="none" style="stroke:#000000;stroke-width:1.5;"/><line style="stroke:#000000;stroke-width:1.5;" x1="724.5" x2="767.5" y1="114.4063" y2="114.4063"/><text fill="#000000" font-family="sans-serif" font-size="14" font-weight="bold" lengthAdjust="spacing" textLength="30" x="728.5" y="106.9883">scan</text></g><!--class Scan--><g id="elem_Scan"><rect fill="#F1F1F1" height="48" id="Scan" rx="2.5" ry="2.5" style="stroke:#181818;stroke-width:0.5;" width="63" x="741" y="127"/><ellipse cx="756" cy="143" fill="#ADD1B2" rx="11" ry="11" style="stroke:#181818;stroke-width:1.0;"/><path d="M756.0469,149.2031 C757.5469,149.2031 758.7813,148.6406 759.6875,147.5781 L758.3125,146.0625 C757.7656,146.6563 757.1094,147.0469 756.3125,147.0469 C754.6406,147.0469 753.4844,145.7188 753.4844,143.4375 C753.4844,141.2188 754.6406,139.875 756.2031,139.875 C757.0156,139.875 757.6094,140.1875 758.1406,140.6719 L759.5156,139.125 C758.7656,138.3906 757.6094,137.7188 756.2031,137.7188 C753.25,137.7188 750.9219,139.8594 750.9219,143.5313 C750.9219,147.25 753.2969,149.2031 756.0469,149.2031 Z " fill="#000000"/><text fill="#000000" font-family="sans-serif" font-size="14" lengthAdjust="spacing" textLength="31" x="770" y="147.7852">Scan</text><line style="stroke:#181818;stroke-width:0.5;" x1="742" x2="803" y1="159" y2="159"/><line style="stroke:#181818;stroke-width:0.5;" x1="742" x2="803" y1="167" y2="167"/></g><!--class Station--><g id="elem_Station"><rect fill="#F1F1F1" height="48" id="Station" rx="2.5" ry="2.5" style="stroke:#181818;stroke-width:0.5;" width="77" x="839" y="127"/><ellipse cx="854" cy="143" fill="#ADD1B2" rx="11" ry="11" style="stroke:#181818;stroke-width:1.0;"/><path d="M854.0469,149.2031 C855.5469,149.2031 856.7813,148.6406 857.6875,147.5781 L856.3125,146.0625 C855.7656,146.6563 855.1094,147.0469 854.3125,147.0469 C852.6406,147.0469 851.4844,145.7188 851.4844,143.4375 C851.4844,141.2188 852.6406,139.875 854.2031,139.875 C855.0156,139.875 855.6094,140.1875 856.1406,140.6719 L857.5156,139.125 C856.7656,138.3906 855.6094,137.7188 854.2031,137.7188 C851.25,137.7188 848.9219,139.8594 848.9219,143.5313 C848.9219,147.25 851.2969,149.2031 854.0469,149.2031 Z " fill="#000000"/><text fill="#000000" font-family="sans-serif" font-size="14" lengthAdjust="spacing" textLength="45" x="868" y="147.7852">Station</text><line style="stroke:#181818;stroke-width:0.5;" x1="840" x2="915" y1="159" y2="159"/><line style="stroke:#181818;stroke-width:0.5;" x1="840" x2="915" y1="167" y2="167"/></g><!--class File--><g id="elem_File"><rect codeLine="2" fill="#F1F1F1" height="179.25" id="File" rx="2.5" ry="2.5" style="stroke:#181818;stroke-width:0.5;" width="251" x="381" y="61.5"/><ellipse cx="491.75" cy="77.5" fill="#ADD1B2" rx="11" ry="11" style="stroke:#181818;stroke-width:1.0;"/><path d="M491.7969,83.7031 C493.2969,83.7031 494.5313,83.1406 495.4375,82.0781 L494.0625,80.5625 C493.5156,81.1563 492.8594,81.5469 492.0625,81.5469 C490.3906,81.5469 489.2344,80.2188 489.2344,77.9375 C489.2344,75.7188 490.3906,74.375 491.9531,74.375 C492.7656,74.375 493.3594,74.6875 493.8906,75.1719 L495.2656,73.625 C494.5156,72.8906 493.3594,72.2188 491.9531,72.2188 C489,72.2188 486.6719,74.3594 486.6719,78.0313 C486.6719,81.75 489.0469,83.7031 491.7969,83.7031 Z " fill="#000000"/><text fill="#000000" font-family="sans-serif" font-size="14" lengthAdjust="spacing" textLength="21" x="512.25" y="82.2852">File</text><line style="stroke:#181818;stroke-width:0.5;" x1="382" x2="631" y1="93.5" y2="93.5"/><text fill="#000000" font-family="sans-serif" font-size="14" lengthAdjust="spacing" textLength="131" x="387" y="110.4883">metadata : Metadata</text><text fill="#000000" font-family="sans-serif" font-size="14" lengthAdjust="spacing" textLength="185" x="387" y="126.8945">log_messages : LogMessage[]</text><text fill="#000000" font-family="sans-serif" font-size="14" lengthAdjust="spacing" textLength="70" x="387" y="143.3008">scan : Scan</text><text fill="#000000" font-family="sans-serif" font-size="14" lengthAdjust="spacing" textLength="98" x="387" y="159.707">station : Station</text><text fill="#000000" font-family="sans-serif" font-size="14" lengthAdjust="spacing" textLength="185" x="387" y="176.1133">scan_modules : ScanModule{}</text><text fill="#000000" font-family="sans-serif" font-size="14" lengthAdjust="spacing" textLength="115" x="387" y="192.5195">snapshots : Data{}</text><text fill="#000000" font-family="sans-serif" font-size="14" lengthAdjust="spacing" textLength="105" x="387" y="208.9258">monitors : Data{}</text><text fill="#000000" font-family="sans-serif" font-size="14" lengthAdjust="spacing" textLength="239" x="387" y="225.332">position_timestamps : TimestampData</text><line style="stroke:#181818;stroke-width:0.5;" x1="382" x2="631" y1="232.75" y2="232.75"/></g><!--class ScanModule--><g id="elem_ScanModule"><rect codeLine="37" fill="#F1F1F1" height="146.4375" id="ScanModule" rx="2.5" ry="2.5" style="stroke:#181818;stroke-width:0.5;" width="109" x="553" y="350"/><ellipse cx="568" cy="366" fill="#ADD1B2" rx="11" ry="11" style="stroke:#181818;stroke-width:1.0;"/><path d="M568.0469,372.2031 C569.5469,372.2031 570.7813,371.6406 571.6875,370.5781 L570.3125,369.0625 C569.7656,369.6563 569.1094,370.0469 568.3125,370.0469 C566.6406,370.0469 565.4844,368.7188 565.4844,366.4375 C565.4844,364.2188 566.6406,362.875 568.2031,362.875 C569.0156,362.875 569.6094,363.1875 570.1406,363.6719 L571.5156,362.125 C570.7656,361.3906 569.6094,360.7188 568.2031,360.7188 C565.25,360.7188 562.9219,362.8594 562.9219,366.5313 C562.9219,370.25 565.2969,372.2031 568.0469,372.2031 Z " fill="#000000"/><text fill="#000000" font-family="sans-serif" font-size="14" lengthAdjust="spacing" textLength="77" x="582" y="370.7852">ScanModule</text><line style="stroke:#181818;stroke-width:0.5;" x1="554" x2="661" y1="382" y2="382"/><text fill="#000000" font-family="sans-serif" font-size="14" lengthAdjust="spacing" textLength="80" x="559" y="398.9883">name : string</text><text fill="#000000" font-family="sans-serif" font-size="14" lengthAdjust="spacing" textLength="36" x="559" y="415.3945">id : int</text><text fill="#000000" font-family="sans-serif" font-size="14" lengthAdjust="spacing" textLength="66" x="559" y="431.8008">parent : int</text><text fill="#000000" font-family="sans-serif" font-size="14" lengthAdjust="spacing" textLength="87" x="559" y="448.207">appended : int</text><text fill="#000000" font-family="sans-serif" font-size="14" lengthAdjust="spacing" textLength="67" x="559" y="464.6133">nested : int</text><text fill="#000000" font-family="sans-serif" font-size="14" lengthAdjust="spacing" textLength="78" x="559" y="481.0195">data : Data{}</text><line style="stroke:#181818;stroke-width:0.5;" x1="554" x2="661" y1="488.4375" y2="488.4375"/></g><!--class Data--><g id="elem_Data"><rect fill="#F1F1F1" height="48" id="Data" rx="2.5" ry="2.5" style="stroke:#181818;stroke-width:0.5;" width="62" x="522.5" y="605.5"/><ellipse cx="537.5" cy="621.5" fill="#ADD1B2" rx="11" ry="11" style="stroke:#181818;stroke-width:1.0;"/><path d="M537.5469,627.7031 C539.0469,627.7031 540.2813,627.1406 541.1875,626.0781 L539.8125,624.5625 C539.2656,625.1563 538.6094,625.5469 537.8125,625.5469 C536.1406,625.5469 534.9844,624.2188 534.9844,621.9375 C534.9844,619.7188 536.1406,618.375 537.7031,618.375 C538.5156,618.375 539.1094,618.6875 539.6406,619.1719 L541.0156,617.625 C540.2656,616.8906 539.1094,616.2188 537.7031,616.2188 C534.75,616.2188 532.4219,618.3594 532.4219,622.0313 C532.4219,625.75 534.7969,627.7031 537.5469,627.7031 Z " fill="#000000"/><text fill="#000000" font-family="sans-serif" font-size="14" lengthAdjust="spacing" textLength="30" x="551.5" y="626.2852">Data</text><line style="stroke:#181818;stroke-width:0.5;" x1="523.5" x2="583.5" y1="637.5" y2="637.5"/><line style="stroke:#181818;stroke-width:0.5;" x1="523.5" x2="583.5" y1="645.5" y2="645.5"/></g><!--class Metadata--><g id="elem_Metadata"><rect codeLine="16" fill="#F1F1F1" height="244.875" id="Metadata" rx="2.5" ry="2.5" style="stroke:#181818;stroke-width:0.5;" width="261" x="7" y="300.5"/><ellipse cx="102.75" cy="316.5" fill="#ADD1B2" rx="11" ry="11" style="stroke:#181818;stroke-width:1.0;"/><path d="M102.7969,322.7031 C104.2969,322.7031 105.5313,322.1406 106.4375,321.0781 L105.0625,319.5625 C104.5156,320.1563 103.8594,320.5469 103.0625,320.5469 C101.3906,320.5469 100.2344,319.2188 100.2344,316.9375 C100.2344,314.7188 101.3906,313.375 102.9531,313.375 C103.7656,313.375 104.3594,313.6875 104.8906,314.1719 L106.2656,312.625 C105.5156,311.8906 104.3594,311.2188 102.9531,311.2188 C100,311.2188 97.6719,313.3594 97.6719,317.0313 C97.6719,320.75 100.0469,322.7031 102.7969,322.7031 Z " fill="#000000"/><text fill="#000000" font-family="sans-serif" font-size="14" lengthAdjust="spacing" textLength="61" x="123.25" y="321.2852">Metadata</text><line style="stroke:#181818;stroke-width:0.5;" x1="8" x2="267" y1="332.5" y2="332.5"/><text fill="#000000" font-family="sans-serif" font-size="14" lengthAdjust="spacing" textLength="98" x="13" y="349.4883">filename : string</text><text fill="#000000" font-family="sans-serif" font-size="14" lengthAdjust="spacing" textLength="133" x="13" y="365.8945">eveh5_version : string</text><text fill="#000000" font-family="sans-serif" font-size="14" lengthAdjust="spacing" textLength="117" x="13" y="382.3008">eve_version : string</text><text fill="#000000" font-family="sans-serif" font-size="14" lengthAdjust="spacing" textLength="115" x="13" y="398.707">xml_version: string</text><text fill="#000000" font-family="sans-serif" font-size="14" lengthAdjust="spacing" textLength="181" x="13" y="415.1133">measurement_station : string</text><text fill="#000000" font-family="sans-serif" font-size="14" lengthAdjust="spacing" textLength="94" x="13" y="431.5195">start : datetime</text><text fill="#000000" font-family="sans-serif" font-size="14" lengthAdjust="spacing" textLength="87" x="13" y="447.9258">end : datetime</text><text fill="#000000" font-family="sans-serif" font-size="14" lengthAdjust="spacing" textLength="114" x="13" y="464.332">description : string</text><text fill="#000000" font-family="sans-serif" font-size="14" lengthAdjust="spacing" textLength="124" x="13" y="480.7383">simulation : boolean</text><text fill="#000000" font-family="sans-serif" font-size="14" lengthAdjust="spacing" textLength="133" x="13" y="497.1445">preferred_axis : string</text><text fill="#000000" font-family="sans-serif" font-size="14" lengthAdjust="spacing" textLength="157" x="13" y="513.5508">preferred_channel : string</text><text fill="#000000" font-family="sans-serif" font-size="14" lengthAdjust="spacing" textLength="249" x="13" y="529.957">preferred_normalisation_channel : string</text><line style="stroke:#181818;stroke-width:0.5;" x1="8" x2="267" y1="537.375" y2="537.375"/></g><!--class LogMessage--><g id="elem_LogMessage"><rect codeLine="31" fill="#F1F1F1" height="80.8125" id="LogMessage" rx="2.5" ry="2.5" style="stroke:#181818;stroke-width:0.5;" width="143" x="303" y="382.5"/><ellipse cx="331.95" cy="398.5" fill="#ADD1B2" rx="11" ry="11" style="stroke:#181818;stroke-width:1.0;"/><path d="M331.9969,404.7031 C333.4969,404.7031 334.7313,404.1406 335.6375,403.0781 L334.2625,401.5625 C333.7156,402.1563 333.0594,402.5469 332.2625,402.5469 C330.5906,402.5469 329.4344,401.2188 329.4344,398.9375 C329.4344,396.7188 330.5906,395.375 332.1531,395.375 C332.9656,395.375 333.5594,395.6875 334.0906,396.1719 L335.4656,394.625 C334.7156,393.8906 333.5594,393.2188 332.1531,393.2188 C329.2,393.2188 326.8719,395.3594 326.8719,399.0313 C326.8719,402.75 329.2469,404.7031 331.9969,404.7031 Z " fill="#000000"/><text fill="#000000" font-family="sans-serif" font-size="14" lengthAdjust="spacing" textLength="80" x="349.05" y="403.2852">LogMessage</text><line style="stroke:#181818;stroke-width:0.5;" x1="304" x2="445" y1="414.5" y2="414.5"/><text fill="#000000" font-family="sans-serif" font-size="14" lengthAdjust="spacing" textLength="131" x="309" y="431.4883">timestamp : datetime</text><text fill="#000000" font-family="sans-serif" font-size="14" lengthAdjust="spacing" textLength="101" x="309" y="447.8945">message : string</text><line style="stroke:#181818;stroke-width:0.5;" x1="304" x2="445" y1="455.3125" y2="455.3125"/></g><g id="elem_GMN10"><path d="M620,609.5 L620,625.5 L584.95,629.5 L620,633.5 L620,649.9688 A0,0 0 0 0 620,649.9688 L731,649.9688 A0,0 0 0 0 731,649.9688 L731,619.5 L721,609.5 L620,609.5 A0,0 0 0 0 620,609.5 " fill="#FEFFDD" style="stroke:#181818;stroke-width:0.5;"/><path d="M721,609.5 L721,619.5 L731,619.5 L721,609.5 " fill="#FEFFDD" style="stroke:#181818;stroke-width:0.5;"/><text fill="#000000" font-family="sans-serif" font-size="13" lengthAdjust="spacing" textLength="90" x="626" y="626.5605">See diagram for</text><text fill="#000000" font-family="sans-serif" font-size="13" lengthAdjust="spacing" textLength="73" x="626" y="641.7949">data module.</text></g><!--class Scan--><g id="elem_Scan"><rect codeLine="49" fill="#F1F1F1" height="80.8125" id="Scan" rx="2.5" ry="2.5" style="stroke:#181818;stroke-width:0.5;" width="110" x="697.5" y="382.5"/><ellipse cx="733.65" cy="398.5" fill="#ADD1B2" rx="11" ry="11" style="stroke:#181818;stroke-width:1.0;"/><path d="M733.6969,404.7031 C735.1969,404.7031 736.4313,404.1406 737.3375,403.0781 L735.9625,401.5625 C735.4156,402.1563 734.7594,402.5469 733.9625,402.5469 C732.2906,402.5469 731.1344,401.2188 731.1344,398.9375 C731.1344,396.7188 732.2906,395.375 733.8531,395.375 C734.6656,395.375 735.2594,395.6875 735.7906,396.1719 L737.1656,394.625 C736.4156,393.8906 735.2594,393.2188 733.8531,393.2188 C730.9,393.2188 728.5719,395.3594 728.5719,399.0313 C728.5719,402.75 730.9469,404.7031 733.6969,404.7031 Z " fill="#000000"/><text fill="#000000" font-family="sans-serif" font-size="14" lengthAdjust="spacing" textLength="31" x="752.35" y="403.2852">Scan</text><line style="stroke:#181818;stroke-width:0.5;" x1="698.5" x2="806.5" y1="414.5" y2="414.5"/><text fill="#000000" font-family="sans-serif" font-size="14" lengthAdjust="spacing" textLength="87" x="703.5" y="431.4883">author : string</text><text fill="#000000" font-family="sans-serif" font-size="14" lengthAdjust="spacing" textLength="98" x="703.5" y="447.8945">filename : string</text><line style="stroke:#181818;stroke-width:0.5;" x1="698.5" x2="806.5" y1="455.3125" y2="455.3125"/></g><!--class Station--><g id="elem_Station"><rect codeLine="55" fill="#F1F1F1" height="64.4063" id="Station" rx="2.5" ry="2.5" style="stroke:#181818;stroke-width:0.5;" width="110" x="842.5" y="391"/><ellipse cx="872.35" cy="407" fill="#ADD1B2" rx="11" ry="11" style="stroke:#181818;stroke-width:1.0;"/><path d="M872.3969,413.2031 C873.8969,413.2031 875.1313,412.6406 876.0375,411.5781 L874.6625,410.0625 C874.1156,410.6563 873.4594,411.0469 872.6625,411.0469 C870.9906,411.0469 869.8344,409.7188 869.8344,407.4375 C869.8344,405.2188 870.9906,403.875 872.5531,403.875 C873.3656,403.875 873.9594,404.1875 874.4906,404.6719 L875.8656,403.125 C875.1156,402.3906 873.9594,401.7188 872.5531,401.7188 C869.6,401.7188 867.2719,403.8594 867.2719,407.5313 C867.2719,411.25 869.6469,413.2031 872.3969,413.2031 Z " fill="#000000"/><text fill="#000000" font-family="sans-serif" font-size="14" lengthAdjust="spacing" textLength="45" x="889.65" y="411.7852">Station</text><line style="stroke:#181818;stroke-width:0.5;" x1="843.5" x2="951.5" y1="423" y2="423"/><text fill="#000000" font-family="sans-serif" font-size="14" lengthAdjust="spacing" textLength="98" x="848.5" y="439.9883">filename : string</text><line style="stroke:#181818;stroke-width:0.5;" x1="843.5" x2="951.5" y1="447.4063" y2="447.4063"/></g><!--reverse link File to ScanModule--><g id="link_File_ScanModule"><path codeLine="13" d="M543.9162,252.0187 C557.1462,287.3687 567.96,316.29 580.49,349.81 " fill="none" id="File-backto-ScanModule" style="stroke:#181818;stroke-width:1.0;"/><polygon fill="#181818" points="539.71,240.78,538.0669,247.8014,543.9162,252.0187,545.5593,244.9973,539.71,240.78" style="stroke:#181818;stroke-width:1.0;"/><text fill="#000000" font-family="sans-serif" font-size="13" lengthAdjust="spacing" textLength="7" x="570.4867" y="338.9176">n</text></g><!--reverse link File to Data--><g id="link_File_Data"><path codeLine="14" d="M510.0204,252.6683 C513.5604,332.6783 520.46,441.43 535.5,545.5 C538.45,565.93 543.56,588.84 547.58,605.4 " fill="none" id="File-backto-Data" style="stroke:#181818;stroke-width:1.0;"/><polygon fill="#181818" points="509.49,240.68,505.7591,246.8509,510.0204,252.6683,513.7513,246.4973,509.49,240.68" style="stroke:#181818;stroke-width:1.0;"/><text fill="#000000" font-family="sans-serif" font-size="13" lengthAdjust="spacing" textLength="7" x="538.1661" y="594.3931">n</text></g><!--reverse link ScanModule to Data--><g id="link_ScanModule_Data"><path codeLine="46" d="M585.3968,507.7025 C575.3168,545.8825 566.67,578.61 559.69,605.07 " fill="none" id="ScanModule-backto-Data" style="stroke:#181818;stroke-width:1.0;"/><polygon fill="#181818" points="588.46,496.1,583.0609,500.8802,585.3968,507.7025,590.7959,502.9223,588.46,496.1" style="stroke:#181818;stroke-width:1.0;"/><text fill="#000000" font-family="sans-serif" font-size="13" lengthAdjust="spacing" textLength="7" x="553.3457" y="594.3762">n</text></g><!--reverse link Scan to Scan--><g id="link_Scan_Scan"><path d="M769.4605,192.9708 C766.0505,239.0108 759.69,324.96 755.45,382.24 " fill="none" id="Scan-backto-Scan" style="stroke:#181818;stroke-width:1.0;"/><polygon fill="none" points="770.79,175.02,763.4768,192.5276,775.4441,193.414,770.79,175.02" style="stroke:#181818;stroke-width:1.0;"/></g><!--reverse link Station to Station--><g id="link_Station_Station"><path d="M880.5361,192.9711 C884.1161,241.4311 891.13,336.05 895.19,390.88 " fill="none" id="Station-backto-Station" style="stroke:#181818;stroke-width:1.0;"/><polygon fill="none" points="879.21,175.02,874.5524,193.4131,886.5198,192.529,879.21,175.02" style="stroke:#181818;stroke-width:1.0;"/></g><!--reverse link File to Metadata--><g id="link_File_Metadata"><path codeLine="59" d="M370.9071,240.1036 C339.3571,261.3536 315.82,277.95 285.5,300.5 C279.77,304.77 273.95,309.17 268.11,313.66 " fill="none" id="File-backto-Metadata" style="stroke:#181818;stroke-width:1.0;"/><polygon fill="#181818" points="380.86,233.4,373.649,233.4342,370.9071,240.1036,378.1181,240.0695,380.86,233.4" style="stroke:#181818;stroke-width:1.0;"/></g><!--reverse link File to LogMessage--><g id="link_File_LogMessage"><path codeLine="60" d="M457.8293,251.5605 C434.4593,299.3605 412.06,345.18 393.94,382.24 " fill="none" id="File-backto-LogMessage" style="stroke:#181818;stroke-width:1.0;"/><polygon fill="#181818" points="463.1,240.78,456.8711,244.4133,457.8293,251.5605,464.0581,247.9272,463.1,240.78" style="stroke:#181818;stroke-width:1.0;"/><text fill="#000000" font-family="sans-serif" font-size="13" lengthAdjust="spacing" textLength="7" x="452.2161" y="260.8959">1</text><text fill="#000000" font-family="sans-serif" font-size="13" lengthAdjust="spacing" textLength="7" x="389.5801" y="371.3424">n</text></g><!--reverse link File to Scan--><g id="link_File_Scan"><path codeLine="61" d="M629.2938,248.5617 C650.1238,267.2417 661.88,279.63 679.5,300.5 C700.7,325.6 719.64,357.56 732.91,382.41 " fill="none" id="File-backto-Scan" style="stroke:#181818;stroke-width:1.0;"/><polygon fill="#181818" points="620.36,240.55,622.1563,247.5338,629.2938,248.5617,627.4975,241.5779,620.36,240.55" style="stroke:#181818;stroke-width:1.0;"/></g><!--reverse link File to Station--><g id="link_File_Station"><path codeLine="62" d="M643.1018,211.0675 C725.3718,247.3075 809.54,286.05 825.5,300.5 C853.22,325.6 873.46,363.91 885.3,390.79 " fill="none" id="File-backto-Station" style="stroke:#181818;stroke-width:1.0;"/><polygon fill="#181818" points="632.12,206.23,635.9984,212.3093,643.1018,211.0675,639.2234,204.9882,632.12,206.23" style="stroke:#181818;stroke-width:1.0;"/></g><!--SRC=[VLGzhzim3DpzAuGi1Ggy01swT2uwDLExjON1sBGjL1-6A3y42FBVIrDoP2NlDKlCuvayKYTt1eZKDsrGNHl5FuiHUeYWlgXJVXJS-B6rI0GZ4kU- -_6Kebz_94yTECP_y5-A8qJj1KfFTrPhVRyOgRAoJn9TRodlOAR9npNvbLjds7gdemyFwEn9hvNRg5bP13klX9zRi3ARMzF8S1zVNjJ17NOTQrp8JIVRsEPE2ncOvi0YbwOOj1i5nLUSFhUl62WDMQVUJboisH8LRX5e2MZHnRQiRKTWC4I6M1IkiwOshd-4UgGkwFcD0jekPYjyzjvWFgKvu80XOD_2HLFzKibr4pY7vhsqyy62qIGDdictRQ_5CzbhztDx72GRhQgHYvG3p4MUpqQlYz4k9faGUAyx0EQPLuTxZcCL5P0lGFOQDzzrhHpZV4GLz3X5vGU1sDI8gjSm1h1gyE6tash9zCVz60elaQMGt8hZsI_C31hfAB4mqeYmnCc7UiXdMzwQ3oB7u10h5PHao0sbvJn3zvUNMwHao_rVJIPTtsrUxjFzko78uTFXlhFYWCAMBqQ9yiVY7m00]--></g></svg>