<?xml version="1.0" encoding="us-ascii" standalone="no"?><svg xmlns="http://www.w3.org/2000/svg" xmlns:xlink="http://www.w3.org/1999/xlink" contentStyleType="text/css" height="541px" preserveAspectRatio="none" style="width:657px;height:541px;background:#FFFFFF;" version="1.1" viewBox="0 0 657 541" width="657px" zoomAndPan="magnify"><defs/><g><!--class Dataset--><g id="elem_Dataset"><rect codeLine="2" fill="#F1F1F1" height="162.8438" id="Dataset" rx="2.5" ry="2.5" style="stroke:#181818;stroke-width:0.5;" width="143" x="231.5" y="7"/><ellipse cx="274.4" cy="23" fill="#ADD1B2" rx="11" ry="11" style="stroke:#181818;stroke-width:1.0;"/><path d="M274.4469,29.2031 C275.9469,29.2031 277.1813,28.6406 278.0875,27.5781 L276.7125,26.0625 C276.1656,26.6563 275.5094,27.0469 274.7125,27.0469 C273.0406,27.0469 271.8844,25.7188 271.8844,23.4375 C271.8844,21.2188 273.0406,19.875 274.6031,19.875 C275.4156,19.875 276.0094,20.1875 276.5406,20.6719 L277.9156,19.125 C277.1656,18.3906 276.0094,17.7188 274.6031,17.7188 C271.65,17.7188 269.3219,19.8594 269.3219,23.5313 C269.3219,27.25 271.6969,29.2031 274.4469,29.2031 Z " fill="#000000"/><text fill="#000000" font-family="sans-serif" font-size="14" lengthAdjust="spacing" textLength="49" x="294.6" y="27.7852">Dataset</text><line style="stroke:#181818;stroke-width:0.5;" x1="232.5" x2="373.5" y1="39" y2="39"/><text fill="#000000" font-family="sans-serif" font-size="14" lengthAdjust="spacing" textLength="68" x="237.5" y="55.9883">data : Data</text><text fill="#000000" font-family="sans-serif" font-size="14" lengthAdjust="spacing" textLength="123" x="237.5" y="72.3945">device_data : Data{}</text><text fill="#000000" font-family="sans-serif" font-size="14" lengthAdjust="spacing" textLength="108" x="237.5" y="88.8008">raw_data : Data{}</text><text fill="#000000" font-family="sans-serif" font-size="14" lengthAdjust="spacing" textLength="131" x="237.5" y="105.207">metadata : Metadata</text><text fill="#000000" font-family="sans-serif" font-size="14" lengthAdjust="spacing" textLength="116" x="237.5" y="121.6133">fill_mode : FillMode</text><line style="stroke:#181818;stroke-width:0.5;" x1="232.5" x2="373.5" y1="129.0313" y2="129.0313"/><text fill="#000000" font-family="sans-serif" font-size="14" lengthAdjust="spacing" textLength="102" x="237.5" y="146.0195">preferred_data()</text><text fill="#000000" font-family="sans-serif" font-size="14" lengthAdjust="spacing" textLength="37" x="237.5" y="162.4258">load()</text></g><g id="elem_GMN3"><path d="M38,30 L38,146.6406 A0,0 0 0 0 38,146.6406 L196,146.6406 A0,0 0 0 0 196,146.6406 L196,92.5 L231.24,88.5 L196,84.5 L196,40 L186,30 L38,30 A0,0 0 0 0 38,30 " fill="#FEFFDD" style="stroke:#181818;stroke-width:0.5;"/><path d="M186,30 L186,40 L196,40 L186,30 " fill="#FEFFDD" style="stroke:#181818;stroke-width:0.5;"/><text fill="#000000" font-family="sans-serif" font-size="13" lengthAdjust="spacing" textLength="118" x="44" y="47.0605">raw_data contain the</text><text fill="#000000" font-family="sans-serif" font-size="13" lengthAdjust="spacing" textLength="113" x="44" y="62.2949">unfilled values of all</text><text fill="#000000" font-family="sans-serif" font-size="13" lengthAdjust="spacing" textLength="127" x="44" y="77.5293">device_data and share</text><text fill="#000000" font-family="sans-serif" font-size="13" lengthAdjust="spacing" textLength="79" x="44" y="92.7637">the same key.</text><text fill="#000000" font-family="sans-serif" font-size="13" lengthAdjust="spacing" textLength="3" x="44" y="107.998">&#160;</text><text fill="#000000" font-family="sans-serif" font-size="13" lengthAdjust="spacing" textLength="122" x="44" y="123.2324">Data and device_data</text><text fill="#000000" font-family="sans-serif" font-size="13" lengthAdjust="spacing" textLength="137" x="44" y="138.4668">contain the filled values.</text></g><!--class FillMode--><g id="elem_FillMode"><rect codeLine="14" fill="#F1F1F1" height="113.625" id="FillMode" rx="2.5" ry="2.5" style="stroke:#181818;stroke-width:0.5;" width="102" x="509" y="31.5"/><ellipse cx="532.1" cy="47.5" fill="#EB937F" rx="11" ry="11" style="stroke:#181818;stroke-width:1.0;"/><path d="M528.1625,53.5 L535.6781,53.5 L535.6781,51.3906 L530.6781,51.3906 L530.6781,48.8438 L534.7719,48.8438 L534.7719,46.75 L530.6781,46.75 L530.6781,44.5313 L535.5063,44.5313 L535.5063,42.4219 L528.1625,42.4219 L528.1625,53.5 Z " fill="#000000"/><text fill="#000000" font-family="sans-serif" font-size="14" lengthAdjust="spacing" textLength="52" x="547.9" y="52.2852">FillMode</text><line style="stroke:#181818;stroke-width:0.5;" x1="510" x2="610" y1="63.5" y2="63.5"/><text fill="#000000" font-family="sans-serif" font-size="14" lengthAdjust="spacing" textLength="61" x="515" y="80.4883">LASTFILL</text><text fill="#000000" font-family="sans-serif" font-size="14" lengthAdjust="spacing" textLength="57" x="515" y="96.8945">NANFILL</text><text fill="#000000" font-family="sans-serif" font-size="14" lengthAdjust="spacing" textLength="90" x="515" y="113.3008">LASTNANFILL</text><text fill="#000000" font-family="sans-serif" font-size="14" lengthAdjust="spacing" textLength="48" x="515" y="129.707">NOFILL</text><line style="stroke:#181818;stroke-width:0.5;" x1="510" x2="610" y1="137.125" y2="137.125"/></g><g id="elem_GMN7"><path d="M469.5,259 L469.5,314.7031 A0,0 0 0 0 469.5,314.7031 L650.5,314.7031 A0,0 0 0 0 650.5,314.7031 L650.5,269 L640.5,259 L564,259 L560,145.55 L556,259 L469.5,259 A0,0 0 0 0 469.5,259 " fill="#FEFFDD" style="stroke:#181818;stroke-width:0.5;"/><path d="M640.5,259 L640.5,269 L650.5,269 L640.5,259 " fill="#FEFFDD" style="stroke:#181818;stroke-width:0.5;"/><text fill="#000000" font-family="sans-serif" font-size="13" lengthAdjust="spacing" textLength="160" x="475.5" y="276.0605">Are these modes sufficient?</text><text fill="#000000" font-family="sans-serif" font-size="13" lengthAdjust="spacing" textLength="113" x="475.5" y="291.2949">Are they all needed?</text><text fill="#000000" font-family="sans-serif" font-size="13" lengthAdjust="spacing" textLength="128" x="475.5" y="306.5293">Is something missing?</text></g><!--class Metadata--><g id="elem_Metadata"><rect codeLine="22" fill="#F1F1F1" height="48" id="Metadata" rx="2.5" ry="2.5" style="stroke:#181818;stroke-width:0.5;" width="93" x="341.5" y="263"/><ellipse cx="356.5" cy="279" fill="#ADD1B2" rx="11" ry="11" style="stroke:#181818;stroke-width:1.0;"/><path d="M356.5469,285.2031 C358.0469,285.2031 359.2813,284.6406 360.1875,283.5781 L358.8125,282.0625 C358.2656,282.6563 357.6094,283.0469 356.8125,283.0469 C355.1406,283.0469 353.9844,281.7188 353.9844,279.4375 C353.9844,277.2188 355.1406,275.875 356.7031,275.875 C357.5156,275.875 358.1094,276.1875 358.6406,276.6719 L360.0156,275.125 C359.2656,274.3906 358.1094,273.7188 356.7031,273.7188 C353.75,273.7188 351.4219,275.8594 351.4219,279.5313 C351.4219,283.25 353.7969,285.2031 356.5469,285.2031 Z " fill="#000000"/><text fill="#000000" font-family="sans-serif" font-size="14" lengthAdjust="spacing" textLength="61" x="370.5" y="283.7852">Metadata</text><line style="stroke:#181818;stroke-width:0.5;" x1="342.5" x2="433.5" y1="295" y2="295"/><line style="stroke:#181818;stroke-width:0.5;" x1="342.5" x2="433.5" y1="303" y2="303"/></g><g id="elem_GMN11"><path d="M323.5,449 L323.5,489.4688 A0,0 0 0 0 323.5,489.4688 L468.5,489.4688 A0,0 0 0 0 468.5,489.4688 L468.5,459 L458.5,449 L399.15,449 L389.03,311.16 L391.15,449 L323.5,449 A0,0 0 0 0 323.5,449 " fill="#FEFFDD" style="stroke:#181818;stroke-width:0.5;"/><path d="M458.5,449 L458.5,459 L468.5,459 L458.5,449 " fill="#FEFFDD" style="stroke:#181818;stroke-width:0.5;"/><text fill="#000000" font-family="sans-serif" font-size="13" lengthAdjust="spacing" textLength="124" x="329.5" y="466.0605">See separate diagram</text><text fill="#000000" font-family="sans-serif" font-size="13" lengthAdjust="spacing" textLength="105" x="329.5" y="481.2949">for class hierarchy</text></g><!--class Data--><g id="elem_Data"><rect codeLine="26" fill="#F1F1F1" height="113.625" id="Data" rx="2.5" ry="2.5" style="stroke:#181818;stroke-width:0.5;" width="146" x="145" y="230"/><ellipse cx="198.75" cy="246" fill="#ADD1B2" rx="11" ry="11" style="stroke:#181818;stroke-width:1.0;"/><path d="M198.7969,252.2031 C200.2969,252.2031 201.5313,251.6406 202.4375,250.5781 L201.0625,249.0625 C200.5156,249.6563 199.8594,250.0469 199.0625,250.0469 C197.3906,250.0469 196.2344,248.7188 196.2344,246.4375 C196.2344,244.2188 197.3906,242.875 198.9531,242.875 C199.7656,242.875 200.3594,243.1875 200.8906,243.6719 L202.2656,242.125 C201.5156,241.3906 200.3594,240.7188 198.9531,240.7188 C196,240.7188 193.6719,242.8594 193.6719,246.5313 C193.6719,250.25 196.0469,252.2031 198.7969,252.2031 Z " fill="#000000"/><text fill="#000000" font-family="sans-serif" font-size="14" lengthAdjust="spacing" textLength="30" x="219.25" y="250.7852">Data</text><line style="stroke:#181818;stroke-width:0.5;" x1="146" x2="290" y1="262" y2="262"/><text fill="#000000" font-family="sans-serif" font-size="14" lengthAdjust="spacing" textLength="134" x="151" y="278.9883">data : numpy.ndarray</text><text fill="#000000" font-family="sans-serif" font-size="14" lengthAdjust="spacing" textLength="72" x="151" y="295.3945">axes : Axis[]</text><line style="stroke:#181818;stroke-width:0.5;" x1="146" x2="290" y1="302.8125" y2="302.8125"/><ellipse cx="156" cy="316.5156" fill="#84BE84" rx="3" ry="3" style="stroke:#038048;stroke-width:1.0;"/><text fill="#000000" font-family="sans-serif" font-size="14" lengthAdjust="spacing" textLength="97" x="165" y="319.8008">get_metadata()</text><rect fill="#F24D5C" height="6" style="stroke:#C82930;stroke-width:1.0;" width="6" x="153" y="329.9219"/><text fill="#000000" font-family="sans-serif" font-size="14" lengthAdjust="spacing" textLength="71" x="165" y="336.207">_get_data()</text></g><g id="elem_GMN15"><path d="M6,267 L6,307.4688 A0,0 0 0 0 6,307.4688 L110,307.4688 A0,0 0 0 0 110,307.4688 L110,291 L144.72,287 L110,283 L110,277 L100,267 L6,267 A0,0 0 0 0 6,267 " fill="#FEFFDD" style="stroke:#181818;stroke-width:0.5;"/><path d="M100,267 L100,277 L110,277 L100,267 " fill="#FEFFDD" style="stroke:#181818;stroke-width:0.5;"/><text fill="#000000" font-family="sans-serif" font-size="13" lengthAdjust="spacing" textLength="67" x="12" y="284.0605">Can data be</text><text fill="#000000" font-family="sans-serif" font-size="13" lengthAdjust="spacing" textLength="83" x="12" y="299.2949">ragged arrays?</text></g><!--class Axis--><g id="elem_Axis"><rect codeLine="35" fill="#F1F1F1" height="130.0313" id="Axis" rx="2.5" ry="2.5" style="stroke:#181818;stroke-width:0.5;" width="157" x="131.5" y="404"/><ellipse cx="192.75" cy="420" fill="#ADD1B2" rx="11" ry="11" style="stroke:#181818;stroke-width:1.0;"/><path d="M192.7969,426.2031 C194.2969,426.2031 195.5313,425.6406 196.4375,424.5781 L195.0625,423.0625 C194.5156,423.6563 193.8594,424.0469 193.0625,424.0469 C191.3906,424.0469 190.2344,422.7188 190.2344,420.4375 C190.2344,418.2188 191.3906,416.875 192.9531,416.875 C193.7656,416.875 194.3594,417.1875 194.8906,417.6719 L196.2656,416.125 C195.5156,415.3906 194.3594,414.7188 192.9531,414.7188 C190,414.7188 187.6719,416.8594 187.6719,420.5313 C187.6719,424.25 190.0469,426.2031 192.7969,426.2031 Z " fill="#000000"/><text fill="#000000" font-family="sans-serif" font-size="14" lengthAdjust="spacing" textLength="26" x="213.25" y="424.7852">Axis</text><line style="stroke:#181818;stroke-width:0.5;" x1="132.5" x2="287.5" y1="436" y2="436"/><text fill="#000000" font-family="sans-serif" font-size="14" lengthAdjust="spacing" textLength="97" x="137.5" y="452.9883">quantity : string</text><text fill="#000000" font-family="sans-serif" font-size="14" lengthAdjust="spacing" textLength="90" x="137.5" y="469.3945">symbol : string</text><text fill="#000000" font-family="sans-serif" font-size="14" lengthAdjust="spacing" textLength="69" x="137.5" y="485.8008">unit : string</text><text fill="#000000" font-family="sans-serif" font-size="14" lengthAdjust="spacing" textLength="145" x="137.5" y="502.207">values : numpy.ndarray</text><line style="stroke:#181818;stroke-width:0.5;" x1="132.5" x2="287.5" y1="509.625" y2="509.625"/><text fill="#000000" font-family="sans-serif" font-size="14" lengthAdjust="spacing" textLength="39" x="137.5" y="526.6133">label()</text></g><!--reverse link Dataset to Metadata--><g id="link_Dataset_Metadata"><path codeLine="44" d="M342.7044,181.2837 C357.1744,214.7337 368.09,239.97 377.97,262.81 " fill="none" id="Dataset-backto-Metadata" style="stroke:#181818;stroke-width:1.0;"/><polygon fill="#181818" points="337.94,170.27,336.651,177.365,342.7044,181.2837,343.9934,174.1887,337.94,170.27" style="stroke:#181818;stroke-width:1.0;"/></g><!--reverse link Dataset to Data--><g id="link_Dataset_Data"><path codeLine="45" d="M263.2984,181.2849 C254.6484,201.2949 250.32,211.29 242.3,229.83 " fill="none" id="Dataset-backto-Data" style="stroke:#181818;stroke-width:1.0;"/><polygon fill="#181818" points="268.06,170.27,262.0076,174.1903,263.2984,181.2849,269.3508,177.3646,268.06,170.27" style="stroke:#181818;stroke-width:1.0;"/></g><!--reverse link Data to Axis--><g id="link_Data_Axis"><path codeLine="46" d="M214.9563,356.4481 C214.1163,375.3181 213.71,384.49 212.85,403.9 " fill="none" id="Data-backto-Axis" style="stroke:#181818;stroke-width:1.0;"/><polygon fill="#181818" points="215.49,344.46,211.2271,350.2762,214.9563,356.4481,219.2192,350.6319,215.49,344.46" style="stroke:#181818;stroke-width:1.0;"/></g><!--SRC=[RPF1Rjim38RlUWeUrnN90-HI10iA54YoGtkhXu2nQ5kOJAMItDKe-kwbPJcrX-OIygD4yYVbqc88iCE8WIAyAv2V5Wys2Ou-lPgIJZFy_f427lzzGrkAcEaXcubNnjfJwpH9u5xiWvWgHIwUAlAUTChsuoP1wr2B-Q7OHG9BLTny5ImTHpGCiQ62EnvIauPNj1q5S1MWjGNF-qRM41hqSbpkGC2Mu2_rwu8Btaq7PXSAdfM0HVwrKiHTUzMGfxRVFZxTF-ptoJbkZrTx2Cpzu-zaPc5d5wDhDx3rD9GA1CE80eIkganfYEDTmJdO3xg0YJHfeGzooicq6yCrj2O4-RzJgamhlOv-KUMHH3jTqAD0RR3ss1PSEG_ZhSQGHryslPhofE4iteLel_HhrkWzzYc0RzAmI7WpuVdFkD9Rg2cUfgUGLxg2qq0pMMps5_AO_omRybZNCkvK85mL3Ubp9oyTSZInbw8XUf6TQEZRixDBrh69Iv8VoVywnZU7PxAfDJLz4ZzNgwzPpk5k0iaRcbEV]--></g></svg>