<?xml version="1.0" encoding="us-ascii" standalone="no"?><svg xmlns="http://www.w3.org/2000/svg" xmlns:xlink="http://www.w3.org/1999/xlink" contentStyleType="text/css" height="633px" preserveAspectRatio="none" style="width:783px;height:633px;background:#FFFFFF;" version="1.1" viewBox="0 0 783 633" width="783px" zoomAndPan="magnify"><defs/><g><!--class EveData--><g id="elem_EveData"><rect codeLine="3" fill="#F1F1F1" height="80.8125" id="EveData" rx="2.5" ry="2.5" style="stroke:#181818;stroke-width:0.5;" width="165" x="292" y="7"/><ellipse cx="344.25" cy="23" fill="#ADD1B2" rx="11" ry="11" style="stroke:#181818;stroke-width:1.0;"/><path d="M344.2969,29.2031 C345.7969,29.2031 347.0313,28.6406 347.9375,27.5781 L346.5625,26.0625 C346.0156,26.6563 345.3594,27.0469 344.5625,27.0469 C342.8906,27.0469 341.7344,25.7188 341.7344,23.4375 C341.7344,21.2188 342.8906,19.875 344.4531,19.875 C345.2656,19.875 345.8594,20.1875 346.3906,20.6719 L347.7656,19.125 C347.0156,18.3906 345.8594,17.7188 344.4531,17.7188 C341.5,17.7188 339.1719,19.8594 339.1719,23.5313 C339.1719,27.25 341.5469,29.2031 344.2969,29.2031 Z " fill="#000000"/><text fill="#000000" font-family="sans-serif" font-size="14" lengthAdjust="spacing" textLength="52" x="364.75" y="27.7852">EveData</text><line style="stroke:#181818;stroke-width:0.5;" x1="293" x2="456" y1="39" y2="39"/><text fill="#000000" font-family="sans-serif" font-size="14" lengthAdjust="spacing" textLength="153" x="298" y="55.9883">metadata : EveMetadata</text><text fill="#000000" font-family="sans-serif" font-size="14" lengthAdjust="spacing" textLength="118" x="298" y="72.3945">values : np.ndarray</text><line style="stroke:#181818;stroke-width:0.5;" x1="293" x2="456" y1="79.8125" y2="79.8125"/></g><path d="M6,7 L6,77.9375 A0,0 0 0 0 6,77.9375 L257,77.9375 A0,0 0 0 0 257,77.9375 L257,46.4688 L296,67.6094 L257,38.4688 L257,17 L247,7 L6,7 A0,0 0 0 0 6,7 " fill="#FEFFDD" style="stroke:#181818;stroke-width:0.5;"/><path d="M247,7 L247,17 L257,17 L247,7 " fill="#FEFFDD" style="stroke:#181818;stroke-width:0.5;"/><text fill="#000000" font-family="sans-serif" font-size="13" lengthAdjust="spacing" textLength="160" x="12" y="24.0605">"values" contains a 1D array.</text><text fill="#000000" font-family="sans-serif" font-size="13" lengthAdjust="spacing" textLength="230" x="12" y="39.2949">For individual values see derived classes</text><text fill="#000000" font-family="sans-serif" font-size="13" lengthAdjust="spacing" textLength="166" x="12" y="54.5293">EveAverageDetectorData and</text><text fill="#000000" font-family="sans-serif" font-size="13" lengthAdjust="spacing" textLength="138" x="12" y="69.7637">EveIntervalDetectorData</text><!--class EveMetadata--><g id="elem_EveMetadata"><rect codeLine="14" fill="#F1F1F1" height="48" id="EveMetadata" rx="2.5" ry="2.5" style="stroke:#181818;stroke-width:0.5;" width="115" x="93" y="156"/><ellipse cx="108" cy="172" fill="#ADD1B2" rx="11" ry="11" style="stroke:#181818;stroke-width:1.0;"/><path d="M108.0469,178.2031 C109.5469,178.2031 110.7813,177.6406 111.6875,176.5781 L110.3125,175.0625 C109.7656,175.6563 109.1094,176.0469 108.3125,176.0469 C106.6406,176.0469 105.4844,174.7188 105.4844,172.4375 C105.4844,170.2188 106.6406,168.875 108.2031,168.875 C109.0156,168.875 109.6094,169.1875 110.1406,169.6719 L111.5156,168.125 C110.7656,167.3906 109.6094,166.7188 108.2031,166.7188 C105.25,166.7188 102.9219,168.8594 102.9219,172.5313 C102.9219,176.25 105.2969,178.2031 108.0469,178.2031 Z " fill="#000000"/><text fill="#000000" font-family="sans-serif" font-size="14" lengthAdjust="spacing" textLength="83" x="122" y="176.7852">EveMetadata</text><line style="stroke:#181818;stroke-width:0.5;" x1="94" x2="207" y1="188" y2="188"/><line style="stroke:#181818;stroke-width:0.5;" x1="94" x2="207" y1="196" y2="196"/></g><g id="elem_GMN6"><path d="M78,276 L78,316.4688 A0,0 0 0 0 78,316.4688 L223,316.4688 A0,0 0 0 0 223,316.4688 L223,286 L213,276 L154.5,276 L150.5,204.07 L146.5,276 L78,276 A0,0 0 0 0 78,276 " fill="#FEFFDD" style="stroke:#181818;stroke-width:0.5;"/><path d="M213,276 L213,286 L223,286 L213,276 " fill="#FEFFDD" style="stroke:#181818;stroke-width:0.5;"/><text fill="#000000" font-family="sans-serif" font-size="13" lengthAdjust="spacing" textLength="124" x="84" y="293.0605">See separate diagram</text><text fill="#000000" font-family="sans-serif" font-size="13" lengthAdjust="spacing" textLength="105" x="84" y="308.2949">for class hierarchy</text></g><!--class EveMeasureData--><g id="elem_EveMeasureData"><rect codeLine="18" fill="#F1F1F1" height="64.4063" id="EveMeasureData" rx="2.5" ry="2.5" style="stroke:#181818;stroke-width:0.5;" width="263" x="243" y="148"/><ellipse cx="317.25" cy="164" fill="#ADD1B2" rx="11" ry="11" style="stroke:#181818;stroke-width:1.0;"/><path d="M317.2969,170.2031 C318.7969,170.2031 320.0313,169.6406 320.9375,168.5781 L319.5625,167.0625 C319.0156,167.6563 318.3594,168.0469 317.5625,168.0469 C315.8906,168.0469 314.7344,166.7188 314.7344,164.4375 C314.7344,162.2188 315.8906,160.875 317.4531,160.875 C318.2656,160.875 318.8594,161.1875 319.3906,161.6719 L320.7656,160.125 C320.0156,159.3906 318.8594,158.7188 317.4531,158.7188 C314.5,158.7188 312.1719,160.8594 312.1719,164.5313 C312.1719,168.25 314.5469,170.2031 317.2969,170.2031 Z " fill="#000000"/><text fill="#000000" font-family="sans-serif" font-size="14" lengthAdjust="spacing" textLength="106" x="337.75" y="168.7852">EveMeasureData</text><line style="stroke:#181818;stroke-width:0.5;" x1="244" x2="505" y1="180" y2="180"/><text fill="#000000" font-family="sans-serif" font-size="14" lengthAdjust="spacing" textLength="251" x="249" y="196.9883">position_counter : np.ndarray(dtype=int)</text><line style="stroke:#181818;stroke-width:0.5;" x1="244" x2="505" y1="204.4063" y2="204.4063"/></g><!--class EveMonitorData--><g id="elem_EveMonitorData"><rect codeLine="22" fill="#F1F1F1" height="64.4063" id="EveMonitorData" rx="2.5" ry="2.5" style="stroke:#181818;stroke-width:0.5;" width="235" x="541" y="148"/><ellipse cx="603.75" cy="164" fill="#ADD1B2" rx="11" ry="11" style="stroke:#181818;stroke-width:1.0;"/><path d="M603.7969,170.2031 C605.2969,170.2031 606.5313,169.6406 607.4375,168.5781 L606.0625,167.0625 C605.5156,167.6563 604.8594,168.0469 604.0625,168.0469 C602.3906,168.0469 601.2344,166.7188 601.2344,164.4375 C601.2344,162.2188 602.3906,160.875 603.9531,160.875 C604.7656,160.875 605.3594,161.1875 605.8906,161.6719 L607.2656,160.125 C606.5156,159.3906 605.3594,158.7188 603.9531,158.7188 C601,158.7188 598.6719,160.8594 598.6719,164.5313 C598.6719,168.25 601.0469,170.2031 603.7969,170.2031 Z " fill="#000000"/><text fill="#000000" font-family="sans-serif" font-size="14" lengthAdjust="spacing" textLength="101" x="624.25" y="168.7852">EveMonitorData</text><line style="stroke:#181818;stroke-width:0.5;" x1="542" x2="775" y1="180" y2="180"/><text fill="#000000" font-family="sans-serif" font-size="14" lengthAdjust="spacing" textLength="223" x="547" y="196.9883">milliseconds : np.ndarray(dtype=int)</text><line style="stroke:#181818;stroke-width:0.5;" x1="542" x2="775" y1="204.4063" y2="204.4063"/></g><!--class EveMotorData--><g id="elem_EveMotorData"><rect codeLine="26" fill="#F1F1F1" height="48" id="EveMotorData" rx="2.5" ry="2.5" style="stroke:#181818;stroke-width:0.5;" width="122" x="285.5" y="272"/><ellipse cx="300.5" cy="288" fill="#ADD1B2" rx="11" ry="11" style="stroke:#181818;stroke-width:1.0;"/><path d="M300.5469,294.2031 C302.0469,294.2031 303.2813,293.6406 304.1875,292.5781 L302.8125,291.0625 C302.2656,291.6563 301.6094,292.0469 300.8125,292.0469 C299.1406,292.0469 297.9844,290.7188 297.9844,288.4375 C297.9844,286.2188 299.1406,284.875 300.7031,284.875 C301.5156,284.875 302.1094,285.1875 302.6406,285.6719 L304.0156,284.125 C303.2656,283.3906 302.1094,282.7188 300.7031,282.7188 C297.75,282.7188 295.4219,284.8594 295.4219,288.5313 C295.4219,292.25 297.7969,294.2031 300.5469,294.2031 Z " fill="#000000"/><text fill="#000000" font-family="sans-serif" font-size="14" lengthAdjust="spacing" textLength="90" x="314.5" y="292.7852">EveMotorData</text><line style="stroke:#181818;stroke-width:0.5;" x1="286.5" x2="406.5" y1="304" y2="304"/><line style="stroke:#181818;stroke-width:0.5;" x1="286.5" x2="406.5" y1="312" y2="312"/></g><!--class EveDetectorData--><g id="elem_EveDetectorData"><rect codeLine="29" fill="#F1F1F1" height="48" id="EveDetectorData" rx="2.5" ry="2.5" style="stroke:#181818;stroke-width:0.5;" width="137" x="443" y="272"/><ellipse cx="458" cy="288" fill="#ADD1B2" rx="11" ry="11" style="stroke:#181818;stroke-width:1.0;"/><path d="M458.0469,294.2031 C459.5469,294.2031 460.7813,293.6406 461.6875,292.5781 L460.3125,291.0625 C459.7656,291.6563 459.1094,292.0469 458.3125,292.0469 C456.6406,292.0469 455.4844,290.7188 455.4844,288.4375 C455.4844,286.2188 456.6406,284.875 458.2031,284.875 C459.0156,284.875 459.6094,285.1875 460.1406,285.6719 L461.5156,284.125 C460.7656,283.3906 459.6094,282.7188 458.2031,282.7188 C455.25,282.7188 452.9219,284.8594 452.9219,288.5313 C452.9219,292.25 455.2969,294.2031 458.0469,294.2031 Z " fill="#000000"/><text fill="#000000" font-family="sans-serif" font-size="14" lengthAdjust="spacing" textLength="105" x="472" y="292.7852">EveDetectorData</text><line style="stroke:#181818;stroke-width:0.5;" x1="444" x2="579" y1="304" y2="304"/><line style="stroke:#181818;stroke-width:0.5;" x1="444" x2="579" y1="312" y2="312"/></g><!--class EveAverageDetectorData--><g id="elem_EveAverageDetectorData"><rect codeLine="32" fill="#F1F1F1" height="146.4375" id="EveAverageDetectorData" rx="2.5" ry="2.5" style="stroke:#181818;stroke-width:0.5;" width="216" x="281.5" y="380"/><ellipse cx="309.1" cy="396" fill="#ADD1B2" rx="11" ry="11" style="stroke:#181818;stroke-width:1.0;"/><path d="M309.1469,402.2031 C310.6469,402.2031 311.8813,401.6406 312.7875,400.5781 L311.4125,399.0625 C310.8656,399.6563 310.2094,400.0469 309.4125,400.0469 C307.7406,400.0469 306.5844,398.7188 306.5844,396.4375 C306.5844,394.2188 307.7406,392.875 309.3031,392.875 C310.1156,392.875 310.7094,393.1875 311.2406,393.6719 L312.6156,392.125 C311.8656,391.3906 310.7094,390.7188 309.3031,390.7188 C306.35,390.7188 304.0219,392.8594 304.0219,396.5313 C304.0219,400.25 306.3969,402.2031 309.1469,402.2031 Z " fill="#000000"/><text fill="#000000" font-family="sans-serif" font-size="14" lengthAdjust="spacing" textLength="156" x="325.9" y="400.7852">EveAverageDetectorData</text><line style="stroke:#181818;stroke-width:0.5;" x1="282.5" x2="496.5" y1="412" y2="412"/><text fill="#000000" font-family="sans-serif" font-size="14" lengthAdjust="spacing" textLength="156" x="287.5" y="428.9883">raw_values : raggedarray</text><text fill="#000000" font-family="sans-serif" font-size="14" lengthAdjust="spacing" textLength="204" x="287.5" y="445.3945">attempts : np.ndarray(dtype=int)</text><line style="stroke:#181818;stroke-width:0.5;" x1="282.5" x2="496.5" y1="452.8125" y2="452.8125"/><text fill="#000000" font-family="sans-serif" font-size="14" lengthAdjust="spacing" textLength="45" x="287.5" y="469.8008">mean()</text><text fill="#000000" font-family="sans-serif" font-size="14" lengthAdjust="spacing" textLength="30" x="287.5" y="486.207">std()</text><text fill="#000000" font-family="sans-serif" font-size="14" lengthAdjust="spacing" textLength="114" x="287.5" y="502.6133">averaged_values()</text><text fill="#000000" font-family="sans-serif" font-size="14" lengthAdjust="spacing" textLength="109" x="287.5" y="519.0195">has_raw_values()</text></g><g id="elem_GMN14"><path d="M201,586 L201,626.4688 A0,0 0 0 0 201,626.4688 L358,626.4688 A0,0 0 0 0 358,626.4688 L358,596 L348,586 L297.44,586 L336.76,526.4 L289.44,586 L201,586 A0,0 0 0 0 201,586 " fill="#FEFFDD" style="stroke:#181818;stroke-width:0.5;"/><path d="M348,586 L348,596 L358,596 L348,586 " fill="#FEFFDD" style="stroke:#181818;stroke-width:0.5;"/><text fill="#000000" font-family="sans-serif" font-size="13" lengthAdjust="spacing" textLength="135" x="207" y="603.0605">How does mean() differ</text><text fill="#000000" font-family="sans-serif" font-size="13" lengthAdjust="spacing" textLength="136" x="207" y="618.2949">from values in EveData?</text></g><g id="elem_GMN17"><path d="M393,586 L393,626.4688 A0,0 0 0 0 393,626.4688 L606,626.4688 A0,0 0 0 0 606,626.4688 L606,596 L596,586 L489.56,586 L442.24,526.4 L481.56,586 L393,586 A0,0 0 0 0 393,586 " fill="#FEFFDD" style="stroke:#181818;stroke-width:0.5;"/><path d="M596,586 L596,596 L606,596 L596,586 " fill="#FEFFDD" style="stroke:#181818;stroke-width:0.5;"/><text fill="#000000" font-family="sans-serif" font-size="13" lengthAdjust="spacing" textLength="173" x="399" y="603.0605">averaged_values() returns only</text><text fill="#000000" font-family="sans-serif" font-size="13" lengthAdjust="spacing" textLength="192" x="399" y="618.2949">those values used to average over</text></g><!--class EveIntervalDetectorData--><g id="elem_EveIntervalDetectorData"><rect codeLine="43" fill="#F1F1F1" height="130.0313" id="EveIntervalDetectorData" rx="2.5" ry="2.5" style="stroke:#181818;stroke-width:0.5;" width="202" x="532.5" y="388"/><ellipse cx="555.6" cy="404" fill="#ADD1B2" rx="11" ry="11" style="stroke:#181818;stroke-width:1.0;"/><path d="M555.6469,410.2031 C557.1469,410.2031 558.3813,409.6406 559.2875,408.5781 L557.9125,407.0625 C557.3656,407.6563 556.7094,408.0469 555.9125,408.0469 C554.2406,408.0469 553.0844,406.7188 553.0844,404.4375 C553.0844,402.2188 554.2406,400.875 555.8031,400.875 C556.6156,400.875 557.2094,401.1875 557.7406,401.6719 L559.1156,400.125 C558.3656,399.3906 557.2094,398.7188 555.8031,398.7188 C552.85,398.7188 550.5219,400.8594 550.5219,404.5313 C550.5219,408.25 552.8969,410.2031 555.6469,410.2031 Z " fill="#000000"/><text fill="#000000" font-family="sans-serif" font-size="14" lengthAdjust="spacing" textLength="152" x="571.4" y="408.7852">EveIntervalDetectorData</text><line style="stroke:#181818;stroke-width:0.5;" x1="533.5" x2="733.5" y1="420" y2="420"/><text fill="#000000" font-family="sans-serif" font-size="14" lengthAdjust="spacing" textLength="156" x="538.5" y="436.9883">raw_values : raggedarray</text><text fill="#000000" font-family="sans-serif" font-size="14" lengthAdjust="spacing" textLength="190" x="538.5" y="453.3945">counts : np.ndarray(dtype=int)</text><line style="stroke:#181818;stroke-width:0.5;" x1="533.5" x2="733.5" y1="460.8125" y2="460.8125"/><text fill="#000000" font-family="sans-serif" font-size="14" lengthAdjust="spacing" textLength="45" x="538.5" y="477.8008">mean()</text><text fill="#000000" font-family="sans-serif" font-size="14" lengthAdjust="spacing" textLength="30" x="538.5" y="494.207">std()</text><text fill="#000000" font-family="sans-serif" font-size="14" lengthAdjust="spacing" textLength="109" x="538.5" y="510.6133">has_raw_values()</text></g><!--reverse link EveData to EveMetadata--><g id="link_EveData_EveMetadata"><path codeLine="51" d="M296.311,94.0502 C258.201,116.2502 222.32,137.16 190.09,155.94 " fill="none" id="EveData-backto-EveMetadata" style="stroke:#181818;stroke-width:1.0;"/><polygon fill="#181818" points="306.68,88.01,299.4821,87.5738,296.311,94.0502,303.5089,94.4864,306.68,88.01" style="stroke:#181818;stroke-width:1.0;"/></g><!--reverse link EveData to EveMeasureData--><g id="link_EveData_EveMeasureData"><path codeLine="52" d="M374.5,106.01 C374.5,125.21 374.5,129.96 374.5,147.91 " fill="none" id="EveData-backto-EveMeasureData" style="stroke:#181818;stroke-width:1.0;"/><polygon fill="none" points="374.5,88.01,368.5,106.01,380.5,106.01,374.5,88.01" style="stroke:#181818;stroke-width:1.0;"/></g><!--reverse link EveData to EveMonitorData--><g id="link_EveData_EveMonitorData"><path codeLine="53" d="M473.3856,93.9364 C515.7956,113.4264 550.5,129.37 590.61,147.8 " fill="none" id="EveData-backto-EveMonitorData" style="stroke:#181818;stroke-width:1.0;"/><polygon fill="none" points="457.03,86.42,470.8801,99.3882,475.891,88.4845,457.03,86.42" style="stroke:#181818;stroke-width:1.0;"/></g><!--reverse link EveMeasureData to EveMotorData--><g id="link_EveMeasureData_EveMotorData"><path codeLine="54" d="M362.5585,229.6309 C357.9285,248.4909 356.41,254.65 352.19,271.84 " fill="none" id="EveMeasureData-backto-EveMotorData" style="stroke:#181818;stroke-width:1.0;"/><polygon fill="none" points="366.85,212.15,356.7316,228.2005,368.3855,231.0614,366.85,212.15" style="stroke:#181818;stroke-width:1.0;"/></g><!--reverse link EveMeasureData to EveDetectorData--><g id="link_EveMeasureData_EveDetectorData"><path codeLine="55" d="M425.7725,223.6679 C448.4225,242.5279 463.01,254.65 483.67,271.84 " fill="none" id="EveMeasureData-backto-EveDetectorData" style="stroke:#181818;stroke-width:1.0;"/><polygon fill="none" points="411.94,212.15,421.9332,228.2787,429.6118,219.0571,411.94,212.15" style="stroke:#181818;stroke-width:1.0;"/></g><!--reverse link EveDetectorData to EveAverageDetectorData--><g id="link_EveDetectorData_EveAverageDetectorData"><path codeLine="56" d="M482.1028,334.3508 C469.5328,350.3108 463.25,358.3 446.26,379.88 " fill="none" id="EveDetectorData-backto-EveAverageDetectorData" style="stroke:#181818;stroke-width:1.0;"/><polygon fill="none" points="493.24,320.21,477.3892,330.6384,486.8164,338.0632,493.24,320.21" style="stroke:#181818;stroke-width:1.0;"/></g><!--reverse link EveDetectorData to EveIntervalDetectorData--><g id="link_EveDetectorData_EveIntervalDetectorData"><path codeLine="57" d="M540.8982,334.35 C554.9982,352.25 564.06,363.78 582.91,387.72 " fill="none" id="EveDetectorData-backto-EveIntervalDetectorData" style="stroke:#181818;stroke-width:1.0;"/><polygon fill="none" points="529.76,320.21,536.1849,338.0628,545.6116,330.6373,529.76,320.21" style="stroke:#181818;stroke-width:1.0;"/></g><!--SRC=[dLFBRjmm3BpxAuXSkYcGe3dqOhGe0coBzj1Jhm4Mh4Nl2h59Gw8TBDByU-c7ilR6GH- -M1B9uN0qUXFlFJSOi0RNUBXv_oxBYWfZXCyTRL4H7ZEmhoP5rs_pFl1zsWsX3gkMeWMukMQ78U0nUyfObA2YKa7AX9NdO-vGTZ6kBw0GLlGS0U5c2qFzzP3nHG9uThxphiKgzOb4u2ZuZXmCJ2Sywt7RKS0zRKcfK0a3VMINmjzOAHZAF9uHE-YvpiPEqzdeqnm_HLNg77vOxqYzN7ReFEvDjpikZUTOVF1681I7um8DOnlcMZwMdYht18r4hrvuLqZRKrj8k75wREYZPxqq5ZCuOPzcMyBLlgfy99FJnR-4EW7DpnVwBKDh2eyi0ZxidfrWENkQh32dYAfKD_ewlT5go9jn6TLDAnmRkwd7T7h0k3irtboUtzTNUG0dHcd4j2ihImfsOq7gv2VFoPwVviMJRLS6pb-IWK3Q1hEmS7MyOpr8f8JVHZEgIYe2iVzCqJLJ_ekaWtV-Gz0LwRBqvDzUNIrUUJh_y2i5dYtzCdRoPtRc_bFA7n8M3_JSa2bfvMPUpLrz-Ry1]--></g></svg>