<?xml version="1.0" encoding="us-ascii" standalone="no"?><svg xmlns="http://www.w3.org/2000/svg" xmlns:xlink="http://www.w3.org/1999/xlink" contentStyleType="text/css" height="1275px" preserveAspectRatio="none" style="width:930px;height:1275px;background:#FFFFFF;" version="1.1" viewBox="0 0 930 1275" width="930px" zoomAndPan="magnify"><defs/><g><!--class Setup--><g id="elem_Setup"><rect codeLine="3" fill="#F1F1F1" height="97.2188" id="Setup" rx="2.5" ry="2.5" style="stroke:#181818;stroke-width:0.5;" width="141" x="514.5" y="15.5"/><ellipse cx="562.75" cy="31.5" fill="#ADD1B2" rx="11" ry="11" style="stroke:#181818;stroke-width:1.0;"/><path d="M562.7969,37.7031 C564.2969,37.7031 565.5313,37.1406 566.4375,36.0781 L565.0625,34.5625 C564.5156,35.1563 563.8594,35.5469 563.0625,35.5469 C561.3906,35.5469 560.2344,34.2188 560.2344,31.9375 C560.2344,29.7188 561.3906,28.375 562.9531,28.375 C563.7656,28.375 564.3594,28.6875 564.8906,29.1719 L566.2656,27.625 C565.5156,26.8906 564.3594,26.2188 562.9531,26.2188 C560,26.2188 557.6719,28.3594 557.6719,32.0313 C557.6719,35.75 560.0469,37.7031 562.7969,37.7031 Z " fill="#000000"/><text fill="#000000" font-family="sans-serif" font-size="14" lengthAdjust="spacing" textLength="36" x="583.25" y="36.2852">Setup</text><line style="stroke:#181818;stroke-width:0.5;" x1="515.5" x2="654.5" y1="47.5" y2="47.5"/><text fill="#000000" font-family="sans-serif" font-size="14" lengthAdjust="spacing" textLength="129" x="520.5" y="64.4883">detectors : Detector[]</text><text fill="#000000" font-family="sans-serif" font-size="14" lengthAdjust="spacing" textLength="100" x="520.5" y="80.8945">motors : Motor[]</text><text fill="#000000" font-family="sans-serif" font-size="14" lengthAdjust="spacing" textLength="103" x="520.5" y="97.3008">devices : Device[]</text><line style="stroke:#181818;stroke-width:0.5;" x1="515.5" x2="654.5" y1="104.7188" y2="104.7188"/></g><!--class Detector--><g id="elem_Detector"><rect codeLine="80" fill="#F1F1F1" height="130.0313" id="Detector" rx="2.5" ry="2.5" style="stroke:#181818;stroke-width:0.5;" width="136" x="254" y="181"/><ellipse cx="291.95" cy="197" fill="#ADD1B2" rx="11" ry="11" style="stroke:#181818;stroke-width:1.0;"/><path d="M291.9969,203.2031 C293.4969,203.2031 294.7313,202.6406 295.6375,201.5781 L294.2625,200.0625 C293.7156,200.6563 293.0594,201.0469 292.2625,201.0469 C290.5906,201.0469 289.4344,199.7188 289.4344,197.4375 C289.4344,195.2188 290.5906,193.875 292.1531,193.875 C292.9656,193.875 293.5594,194.1875 294.0906,194.6719 L295.4656,193.125 C294.7156,192.3906 293.5594,191.7188 292.1531,191.7188 C289.2,191.7188 286.8719,193.8594 286.8719,197.5313 C286.8719,201.25 289.2469,203.2031 291.9969,203.2031 Z " fill="#000000"/><text fill="#000000" font-family="sans-serif" font-size="14" lengthAdjust="spacing" textLength="53" x="311.05" y="201.7852">Detector</text><line style="stroke:#181818;stroke-width:0.5;" x1="255" x2="389" y1="213" y2="213"/><text fill="#000000" font-family="sans-serif" font-size="14" lengthAdjust="spacing" textLength="94" x="260" y="229.9883">trigger : Access</text><text fill="#000000" font-family="sans-serif" font-size="14" lengthAdjust="spacing" textLength="81" x="260" y="246.3945">stop : Access</text><text fill="#000000" font-family="sans-serif" font-size="14" lengthAdjust="spacing" textLength="93" x="260" y="262.8008">status : Access</text><text fill="#000000" font-family="sans-serif" font-size="14" lengthAdjust="spacing" textLength="124" x="260" y="279.207">channels : Channel[]</text><text fill="#000000" font-family="sans-serif" font-size="14" lengthAdjust="spacing" textLength="106" x="260" y="295.6133">options : Option[]</text><line style="stroke:#181818;stroke-width:0.5;" x1="255" x2="389" y1="303.0313" y2="303.0313"/></g><!--class Motor--><g id="elem_Motor"><rect codeLine="108" fill="#F1F1F1" height="97.2188" id="Motor" rx="2.5" ry="2.5" style="stroke:#181818;stroke-width:0.5;" width="118" x="638" y="197.5"/><ellipse cx="674.6" cy="213.5" fill="#ADD1B2" rx="11" ry="11" style="stroke:#181818;stroke-width:1.0;"/><path d="M674.6469,219.7031 C676.1469,219.7031 677.3813,219.1406 678.2875,218.0781 L676.9125,216.5625 C676.3656,217.1563 675.7094,217.5469 674.9125,217.5469 C673.2406,217.5469 672.0844,216.2188 672.0844,213.9375 C672.0844,211.7188 673.2406,210.375 674.8031,210.375 C675.6156,210.375 676.2094,210.6875 676.7406,211.1719 L678.1156,209.625 C677.3656,208.8906 676.2094,208.2188 674.8031,208.2188 C671.85,208.2188 669.5219,210.3594 669.5219,214.0313 C669.5219,217.75 671.8969,219.7031 674.6469,219.7031 Z " fill="#000000"/><text fill="#000000" font-family="sans-serif" font-size="14" lengthAdjust="spacing" textLength="38" x="693.4" y="218.2852">Motor</text><line style="stroke:#181818;stroke-width:0.5;" x1="639" x2="755" y1="229.5" y2="229.5"/><text fill="#000000" font-family="sans-serif" font-size="14" lengthAdjust="spacing" textLength="94" x="644" y="246.4883">trigger : Access</text><text fill="#000000" font-family="sans-serif" font-size="14" lengthAdjust="spacing" textLength="72" x="644" y="262.8945">axes : Axis[]</text><text fill="#000000" font-family="sans-serif" font-size="14" lengthAdjust="spacing" textLength="106" x="644" y="279.3008">options : Option[]</text><line style="stroke:#181818;stroke-width:0.5;" x1="639" x2="755" y1="286.7188" y2="286.7188"/></g><!--class Device--><g id="elem_Device"><rect codeLine="91" fill="#F1F1F1" height="97.2188" id="Device" rx="2.5" ry="2.5" style="stroke:#181818;stroke-width:0.5;" width="138" x="447" y="478"/><ellipse cx="491.75" cy="494" fill="#ADD1B2" rx="11" ry="11" style="stroke:#181818;stroke-width:1.0;"/><path d="M491.7969,500.2031 C493.2969,500.2031 494.5313,499.6406 495.4375,498.5781 L494.0625,497.0625 C493.5156,497.6563 492.8594,498.0469 492.0625,498.0469 C490.3906,498.0469 489.2344,496.7188 489.2344,494.4375 C489.2344,492.2188 490.3906,490.875 491.9531,490.875 C492.7656,490.875 493.3594,491.1875 493.8906,491.6719 L495.2656,490.125 C494.5156,489.3906 493.3594,488.7188 491.9531,488.7188 C489,488.7188 486.6719,490.8594 486.6719,494.5313 C486.6719,498.25 489.0469,500.2031 491.7969,500.2031 Z " fill="#000000"/><text fill="#000000" font-family="sans-serif" font-size="14" lengthAdjust="spacing" textLength="40" x="512.25" y="498.7852">Device</text><line style="stroke:#181818;stroke-width:0.5;" x1="448" x2="584" y1="510" y2="510"/><text fill="#000000" font-family="sans-serif" font-size="14" lengthAdjust="spacing" textLength="86" x="453" y="526.9883">value : Access</text><text fill="#000000" font-family="sans-serif" font-size="14" lengthAdjust="spacing" textLength="126" x="453" y="543.3945">displaygroup : string</text><text fill="#000000" font-family="sans-serif" font-size="14" lengthAdjust="spacing" textLength="106" x="453" y="559.8008">options : Option[]</text><line style="stroke:#181818;stroke-width:0.5;" x1="448" x2="584" y1="567.2188" y2="567.2188"/></g><!--class SCML--><g id="elem_SCML"><rect fill="#F1F1F1" height="48" id="SCML" rx="2.5" ry="2.5" style="stroke:#181818;stroke-width:0.5;" width="69" x="690.5" y="40"/><ellipse cx="705.5" cy="56" fill="#ADD1B2" rx="11" ry="11" style="stroke:#181818;stroke-width:1.0;"/><path d="M705.5469,62.2031 C707.0469,62.2031 708.2813,61.6406 709.1875,60.5781 L707.8125,59.0625 C707.2656,59.6563 706.6094,60.0469 705.8125,60.0469 C704.1406,60.0469 702.9844,58.7188 702.9844,56.4375 C702.9844,54.2188 704.1406,52.875 705.7031,52.875 C706.5156,52.875 707.1094,53.1875 707.6406,53.6719 L709.0156,52.125 C708.2656,51.3906 707.1094,50.7188 705.7031,50.7188 C702.75,50.7188 700.4219,52.8594 700.4219,56.5313 C700.4219,60.25 702.7969,62.2031 705.5469,62.2031 Z " fill="#000000"/><text fill="#000000" font-family="sans-serif" font-size="14" lengthAdjust="spacing" textLength="37" x="719.5" y="60.7852">SCML</text><line style="stroke:#181818;stroke-width:0.5;" x1="691.5" x2="758.5" y1="72" y2="72"/><line style="stroke:#181818;stroke-width:0.5;" x1="691.5" x2="758.5" y1="80" y2="80"/></g><g id="elem_GMN11"><path d="M794.5,44 L794.5,60 L759.57,64 L794.5,68 L794.5,84.4688 A0,0 0 0 0 794.5,84.4688 L891.5,84.4688 A0,0 0 0 0 891.5,84.4688 L891.5,54 L881.5,44 L794.5,44 A0,0 0 0 0 794.5,44 " fill="#FEFFDD" style="stroke:#181818;stroke-width:0.5;"/><path d="M881.5,44 L881.5,54 L891.5,54 L881.5,44 " fill="#FEFFDD" style="stroke:#181818;stroke-width:0.5;"/><text fill="#000000" font-family="sans-serif" font-size="13" lengthAdjust="spacing" textLength="75" x="800.5" y="61.0605">See separate</text><text fill="#000000" font-family="sans-serif" font-size="13" lengthAdjust="spacing" textLength="76" x="800.5" y="76.2949">scml module.</text></g><!--class AbstractDevice--><g id="elem_AbstractDevice"><rect codeLine="15" fill="#F1F1F1" height="113.625" id="AbstractDevice" rx="2.5" ry="2.5" style="stroke:#181818;stroke-width:0.5;" width="126" x="259" y="7"/><ellipse cx="274" cy="23" fill="#ADD1B2" rx="11" ry="11" style="stroke:#181818;stroke-width:1.0;"/><path d="M274.0469,29.2031 C275.5469,29.2031 276.7813,28.6406 277.6875,27.5781 L276.3125,26.0625 C275.7656,26.6563 275.1094,27.0469 274.3125,27.0469 C272.6406,27.0469 271.4844,25.7188 271.4844,23.4375 C271.4844,21.2188 272.6406,19.875 274.2031,19.875 C275.0156,19.875 275.6094,20.1875 276.1406,20.6719 L277.5156,19.125 C276.7656,18.3906 275.6094,17.7188 274.2031,17.7188 C271.25,17.7188 268.9219,19.8594 268.9219,23.5313 C268.9219,27.25 271.2969,29.2031 274.0469,29.2031 Z " fill="#000000"/><text fill="#000000" font-family="sans-serif" font-size="14" lengthAdjust="spacing" textLength="94" x="288" y="27.7852">AbstractDevice</text><line style="stroke:#181818;stroke-width:0.5;" x1="260" x2="384" y1="39" y2="39"/><text fill="#000000" font-family="sans-serif" font-size="14" lengthAdjust="spacing" textLength="77" x="265" y="55.9883">class : string</text><text fill="#000000" font-family="sans-serif" font-size="14" lengthAdjust="spacing" textLength="80" x="265" y="72.3945">name : string</text><text fill="#000000" font-family="sans-serif" font-size="14" lengthAdjust="spacing" textLength="56" x="265" y="88.8008">id : string</text><text fill="#000000" font-family="sans-serif" font-size="14" lengthAdjust="spacing" textLength="58" x="265" y="105.207">unit : Unit</text><line style="stroke:#181818;stroke-width:0.5;" x1="260" x2="384" y1="112.625" y2="112.625"/></g><!--class Axis--><g id="elem_Axis"><rect codeLine="47" fill="#F1F1F1" height="310.5" id="Axis" rx="2.5" ry="2.5" style="stroke:#181818;stroke-width:0.5;" width="153" x="691.5" y="371"/><ellipse cx="750.75" cy="387" fill="#ADD1B2" rx="11" ry="11" style="stroke:#181818;stroke-width:1.0;"/><path d="M750.7969,393.2031 C752.2969,393.2031 753.5313,392.6406 754.4375,391.5781 L753.0625,390.0625 C752.5156,390.6563 751.8594,391.0469 751.0625,391.0469 C749.3906,391.0469 748.2344,389.7188 748.2344,387.4375 C748.2344,385.2188 749.3906,383.875 750.9531,383.875 C751.7656,383.875 752.3594,384.1875 752.8906,384.6719 L754.2656,383.125 C753.5156,382.3906 752.3594,381.7188 750.9531,381.7188 C748,381.7188 745.6719,383.8594 745.6719,387.5313 C745.6719,391.25 748.0469,393.2031 750.7969,393.2031 Z " fill="#000000"/><text fill="#000000" font-family="sans-serif" font-size="14" lengthAdjust="spacing" textLength="26" x="771.25" y="391.7852">Axis</text><line style="stroke:#181818;stroke-width:0.5;" x1="692.5" x2="843.5" y1="403" y2="403"/><text fill="#000000" font-family="sans-serif" font-size="14" lengthAdjust="spacing" textLength="82" x="697.5" y="419.9883">goto : Access</text><text fill="#000000" font-family="sans-serif" font-size="14" lengthAdjust="spacing" textLength="103" x="697.5" y="436.3945">position : Access</text><text fill="#000000" font-family="sans-serif" font-size="14" lengthAdjust="spacing" textLength="81" x="697.5" y="452.8008">stop : Access</text><text fill="#000000" font-family="sans-serif" font-size="14" lengthAdjust="spacing" textLength="106" x="697.5" y="469.207">highlimit : Access</text><text fill="#000000" font-family="sans-serif" font-size="14" lengthAdjust="spacing" textLength="101" x="697.5" y="485.6133">lowlimit : Access</text><text fill="#000000" font-family="sans-serif" font-size="14" lengthAdjust="spacing" textLength="132" x="697.5" y="502.0195">limitviolation : Access</text><text fill="#000000" font-family="sans-serif" font-size="14" lengthAdjust="spacing" textLength="93" x="697.5" y="518.4258">status : Access</text><text fill="#000000" font-family="sans-serif" font-size="14" lengthAdjust="spacing" textLength="118" x="697.5" y="534.832">movedone : Access</text><text fill="#000000" font-family="sans-serif" font-size="14" lengthAdjust="spacing" textLength="94" x="697.5" y="551.2383">trigger : Access</text><text fill="#000000" font-family="sans-serif" font-size="14" lengthAdjust="spacing" textLength="116" x="697.5" y="567.6445">deadband : Access</text><text fill="#000000" font-family="sans-serif" font-size="14" lengthAdjust="spacing" textLength="90" x="697.5" y="584.0508">offset : Access</text><text fill="#000000" font-family="sans-serif" font-size="14" lengthAdjust="spacing" textLength="124" x="697.5" y="600.457">tweakvalue : Access</text><text fill="#000000" font-family="sans-serif" font-size="14" lengthAdjust="spacing" textLength="141" x="697.5" y="616.8633">tweakforward : Access</text><text fill="#000000" font-family="sans-serif" font-size="14" lengthAdjust="spacing" textLength="136" x="697.5" y="633.2695">tweakreverse : Access</text><text fill="#000000" font-family="sans-serif" font-size="14" lengthAdjust="spacing" textLength="106" x="697.5" y="649.6758">options : Option[]</text><text fill="#000000" font-family="sans-serif" font-size="14" lengthAdjust="spacing" textLength="127" x="697.5" y="666.082">save_value : boolean</text><line style="stroke:#181818;stroke-width:0.5;" x1="692.5" x2="843.5" y1="673.5" y2="673.5"/></g><!--class Channel--><g id="elem_Channel"><rect codeLine="68" fill="#F1F1F1" height="162.8438" id="Channel" rx="2.5" ry="2.5" style="stroke:#181818;stroke-width:0.5;" width="139" x="130.5" y="445"/><ellipse cx="170.7" cy="461" fill="#ADD1B2" rx="11" ry="11" style="stroke:#181818;stroke-width:1.0;"/><path d="M170.7469,467.2031 C172.2469,467.2031 173.4813,466.6406 174.3875,465.5781 L173.0125,464.0625 C172.4656,464.6563 171.8094,465.0469 171.0125,465.0469 C169.3406,465.0469 168.1844,463.7188 168.1844,461.4375 C168.1844,459.2188 169.3406,457.875 170.9031,457.875 C171.7156,457.875 172.3094,458.1875 172.8406,458.6719 L174.2156,457.125 C173.4656,456.3906 172.3094,455.7188 170.9031,455.7188 C167.95,455.7188 165.6219,457.8594 165.6219,461.5313 C165.6219,465.25 167.9969,467.2031 170.7469,467.2031 Z " fill="#000000"/><text fill="#000000" font-family="sans-serif" font-size="14" lengthAdjust="spacing" textLength="51" x="190.3" y="465.7852">Channel</text><line style="stroke:#181818;stroke-width:0.5;" x1="131.5" x2="268.5" y1="477" y2="477"/><text fill="#000000" font-family="sans-serif" font-size="14" lengthAdjust="spacing" textLength="81" x="136.5" y="493.9883">read : Access</text><text fill="#000000" font-family="sans-serif" font-size="14" lengthAdjust="spacing" textLength="94" x="136.5" y="510.3945">trigger : Access</text><text fill="#000000" font-family="sans-serif" font-size="14" lengthAdjust="spacing" textLength="81" x="136.5" y="526.8008">stop : Access</text><text fill="#000000" font-family="sans-serif" font-size="14" lengthAdjust="spacing" textLength="93" x="136.5" y="543.207">status : Access</text><text fill="#000000" font-family="sans-serif" font-size="14" lengthAdjust="spacing" textLength="106" x="136.5" y="559.6133">options : Option[]</text><text fill="#000000" font-family="sans-serif" font-size="14" lengthAdjust="spacing" textLength="111" x="136.5" y="576.0195">deferred : boolean</text><text fill="#000000" font-family="sans-serif" font-size="14" lengthAdjust="spacing" textLength="127" x="136.5" y="592.4258">save_value : boolean</text><line style="stroke:#181818;stroke-width:0.5;" x1="131.5" x2="268.5" y1="599.8438" y2="599.8438"/></g><!--class Option--><g id="elem_Option"><rect codeLine="117" fill="#F1F1F1" height="113.625" id="Option" rx="2.5" ry="2.5" style="stroke:#181818;stroke-width:0.5;" width="173" x="130.5" y="742"/><ellipse cx="191.75" cy="758" fill="#ADD1B2" rx="11" ry="11" style="stroke:#181818;stroke-width:1.0;"/><path d="M191.7969,764.2031 C193.2969,764.2031 194.5313,763.6406 195.4375,762.5781 L194.0625,761.0625 C193.5156,761.6563 192.8594,762.0469 192.0625,762.0469 C190.3906,762.0469 189.2344,760.7188 189.2344,758.4375 C189.2344,756.2188 190.3906,754.875 191.9531,754.875 C192.7656,754.875 193.3594,755.1875 193.8906,755.6719 L195.2656,754.125 C194.5156,753.3906 193.3594,752.7188 191.9531,752.7188 C189,752.7188 186.6719,754.8594 186.6719,758.5313 C186.6719,762.25 189.0469,764.2031 191.7969,764.2031 Z " fill="#000000"/><text fill="#000000" font-family="sans-serif" font-size="14" lengthAdjust="spacing" textLength="42" x="212.25" y="762.7852">Option</text><line style="stroke:#181818;stroke-width:0.5;" x1="131.5" x2="302.5" y1="774" y2="774"/><text fill="#000000" font-family="sans-serif" font-size="14" lengthAdjust="spacing" textLength="86" x="136.5" y="790.9883">value : Access</text><text fill="#000000" font-family="sans-serif" font-size="14" lengthAdjust="spacing" textLength="126" x="136.5" y="807.3945">displaygroup : string</text><text fill="#000000" font-family="sans-serif" font-size="14" lengthAdjust="spacing" textLength="108" x="136.5" y="823.8008">monitor : boolean</text><text fill="#000000" font-family="sans-serif" font-size="14" lengthAdjust="spacing" textLength="161" x="136.5" y="840.207">autoacquire : AutoAcquire</text><line style="stroke:#181818;stroke-width:0.5;" x1="131.5" x2="302.5" y1="847.625" y2="847.625"/></g><!--class Unit--><g id="elem_Unit"><rect codeLine="131" fill="#F1F1F1" height="64.4063" id="Unit" rx="2.5" ry="2.5" style="stroke:#181818;stroke-width:0.5;" width="117" x="69.5" y="1163"/><ellipse cx="111.5" cy="1179" fill="#ADD1B2" rx="11" ry="11" style="stroke:#181818;stroke-width:1.0;"/><path d="M111.5469,1185.2031 C113.0469,1185.2031 114.2813,1184.6406 115.1875,1183.5781 L113.8125,1182.0625 C113.2656,1182.6563 112.6094,1183.0469 111.8125,1183.0469 C110.1406,1183.0469 108.9844,1181.7188 108.9844,1179.4375 C108.9844,1177.2188 110.1406,1175.875 111.7031,1175.875 C112.5156,1175.875 113.1094,1176.1875 113.6406,1176.6719 L115.0156,1175.125 C114.2656,1174.3906 113.1094,1173.7188 111.7031,1173.7188 C108.75,1173.7188 106.4219,1175.8594 106.4219,1179.5313 C106.4219,1183.25 108.7969,1185.2031 111.5469,1185.2031 Z " fill="#000000"/><text fill="#000000" font-family="sans-serif" font-size="14" lengthAdjust="spacing" textLength="25" x="131.5" y="1183.7852">Unit</text><line style="stroke:#181818;stroke-width:0.5;" x1="70.5" x2="185.5" y1="1195" y2="1195"/><text fill="#000000" font-family="sans-serif" font-size="14" lengthAdjust="spacing" textLength="105" x="75.5" y="1211.9883">unitstring : string</text><line style="stroke:#181818;stroke-width:0.5;" x1="70.5" x2="185.5" y1="1219.4063" y2="1219.4063"/></g><!--class Access--><g id="elem_Access"><rect codeLine="29" fill="#F1F1F1" height="146.4375" id="Access" rx="2.5" ry="2.5" style="stroke:#181818;stroke-width:0.5;" width="142" x="519" y="916"/><ellipse cx="563.75" cy="932" fill="#ADD1B2" rx="11" ry="11" style="stroke:#181818;stroke-width:1.0;"/><path d="M563.7969,938.2031 C565.2969,938.2031 566.5313,937.6406 567.4375,936.5781 L566.0625,935.0625 C565.5156,935.6563 564.8594,936.0469 564.0625,936.0469 C562.3906,936.0469 561.2344,934.7188 561.2344,932.4375 C561.2344,930.2188 562.3906,928.875 563.9531,928.875 C564.7656,928.875 565.3594,929.1875 565.8906,929.6719 L567.2656,928.125 C566.5156,927.3906 565.3594,926.7188 563.9531,926.7188 C561,926.7188 558.6719,928.8594 558.6719,932.5313 C558.6719,936.25 561.0469,938.2031 563.7969,938.2031 Z " fill="#000000"/><text fill="#000000" font-family="sans-serif" font-size="14" lengthAdjust="spacing" textLength="44" x="584.25" y="936.7852">Access</text><line style="stroke:#181818;stroke-width:0.5;" x1="520" x2="660" y1="948" y2="948"/><text fill="#000000" font-family="sans-serif" font-size="14" lengthAdjust="spacing" textLength="102" x="525" y="964.9883">value : typevalue</text><text fill="#000000" font-family="sans-serif" font-size="14" lengthAdjust="spacing" textLength="105" x="525" y="981.3945">method : Method</text><text fill="#000000" font-family="sans-serif" font-size="14" lengthAdjust="spacing" textLength="88" x="525" y="997.8008">count : integer</text><text fill="#000000" font-family="sans-serif" font-size="14" lengthAdjust="spacing" textLength="130" x="525" y="1014.207">transport : Transport</text><text fill="#000000" font-family="sans-serif" font-size="14" lengthAdjust="spacing" textLength="86" x="525" y="1030.6133">timeout : float</text><text fill="#000000" font-family="sans-serif" font-size="14" lengthAdjust="spacing" textLength="108" x="525" y="1047.0195">monitor : boolean</text><line style="stroke:#181818;stroke-width:0.5;" x1="520" x2="660" y1="1054.4375" y2="1054.4375"/></g><!--class Method--><g id="elem_Method"><rect codeLine="99" fill="#F1F1F1" height="146.4375" id="Method" rx="2.5" ry="2.5" style="stroke:#181818;stroke-width:0.5;" width="166" x="425" y="1122"/><ellipse cx="479.75" cy="1138" fill="#EB937F" rx="11" ry="11" style="stroke:#181818;stroke-width:1.0;"/><path d="M475.8125,1144 L483.3281,1144 L483.3281,1141.8906 L478.3281,1141.8906 L478.3281,1139.3438 L482.4219,1139.3438 L482.4219,1137.25 L478.3281,1137.25 L478.3281,1135.0313 L483.1563,1135.0313 L483.1563,1132.9219 L475.8125,1132.9219 L475.8125,1144 Z " fill="#000000"/><text fill="#000000" font-family="sans-serif" font-size="14" lengthAdjust="spacing" textLength="48" x="500.25" y="1142.7852">Method</text><line style="stroke:#181818;stroke-width:0.5;" x1="426" x2="590" y1="1154" y2="1154"/><text fill="#000000" font-family="sans-serif" font-size="14" lengthAdjust="spacing" textLength="66" x="431" y="1170.9883">PUT = PUT</text><text fill="#000000" font-family="sans-serif" font-size="14" lengthAdjust="spacing" textLength="102" x="431" y="1187.3945">PUTCB = PUTCB</text><text fill="#000000" font-family="sans-serif" font-size="14" lengthAdjust="spacing" textLength="66" x="431" y="1203.8008">GET = GET</text><text fill="#000000" font-family="sans-serif" font-size="14" lengthAdjust="spacing" textLength="102" x="431" y="1220.207">GETCB = GETCB</text><text fill="#000000" font-family="sans-serif" font-size="14" lengthAdjust="spacing" textLength="118" x="431" y="1236.6133">GETPUT = GETPUT</text><text fill="#000000" font-family="sans-serif" font-size="14" lengthAdjust="spacing" textLength="154" x="431" y="1253.0195">GETPUTCB = GETPUTCB</text><line style="stroke:#181818;stroke-width:0.5;" x1="426" x2="590" y1="1260.4375" y2="1260.4375"/></g><!--class Transport--><g id="elem_Transport"><rect codeLine="126" fill="#F1F1F1" height="80.8125" id="Transport" rx="2.5" ry="2.5" style="stroke:#181818;stroke-width:0.5;" width="94" x="626" y="1154.5"/><ellipse cx="641" cy="1170.5" fill="#EB937F" rx="11" ry="11" style="stroke:#181818;stroke-width:1.0;"/><path d="M637.0625,1176.5 L644.5781,1176.5 L644.5781,1174.3906 L639.5781,1174.3906 L639.5781,1171.8438 L643.6719,1171.8438 L643.6719,1169.75 L639.5781,1169.75 L639.5781,1167.5313 L644.4063,1167.5313 L644.4063,1165.4219 L637.0625,1165.4219 L637.0625,1176.5 Z " fill="#000000"/><text fill="#000000" font-family="sans-serif" font-size="14" lengthAdjust="spacing" textLength="62" x="655" y="1175.2852">Transport</text><line style="stroke:#181818;stroke-width:0.5;" x1="627" x2="719" y1="1186.5" y2="1186.5"/><text fill="#000000" font-family="sans-serif" font-size="14" lengthAdjust="spacing" textLength="44" x="632" y="1203.4883">ca = ca</text><text fill="#000000" font-family="sans-serif" font-size="14" lengthAdjust="spacing" textLength="72" x="632" y="1219.8945">local = local</text><line style="stroke:#181818;stroke-width:0.5;" x1="627" x2="719" y1="1227.3125" y2="1227.3125"/></g><!--class AutoAcquire--><g id="elem_AutoAcquire"><rect codeLine="41" fill="#F1F1F1" height="97.2188" id="AutoAcquire" rx="2.5" ry="2.5" style="stroke:#181818;stroke-width:0.5;" width="198" x="339" y="750.5"/><ellipse cx="395.25" cy="766.5" fill="#EB937F" rx="11" ry="11" style="stroke:#181818;stroke-width:1.0;"/><path d="M391.3125,772.5 L398.8281,772.5 L398.8281,770.3906 L393.8281,770.3906 L393.8281,767.8438 L397.9219,767.8438 L397.9219,765.75 L393.8281,765.75 L393.8281,763.5313 L398.6563,763.5313 L398.6563,761.4219 L391.3125,761.4219 L391.3125,772.5 Z " fill="#000000"/><text fill="#000000" font-family="sans-serif" font-size="14" lengthAdjust="spacing" textLength="77" x="415.75" y="771.2852">AutoAcquire</text><line style="stroke:#181818;stroke-width:0.5;" x1="340" x2="536" y1="782.5" y2="782.5"/><text fill="#000000" font-family="sans-serif" font-size="14" lengthAdjust="spacing" textLength="132" x="345" y="799.4883">snapshot = snapshot</text><text fill="#000000" font-family="sans-serif" font-size="14" lengthAdjust="spacing" textLength="186" x="345" y="815.8945">measurement = measurement</text><text fill="#000000" font-family="sans-serif" font-size="14" lengthAdjust="spacing" textLength="46" x="345" y="832.3008">no = no</text><line style="stroke:#181818;stroke-width:0.5;" x1="340" x2="536" y1="839.7188" y2="839.7188"/></g><!--reverse link Setup to Detector--><g id="link_Setup_Detector"><path codeLine="8" d="M505.657,119.3072 C466.847,145.8672 428.59,172.05 390.01,198.45 " fill="none" id="Setup-backto-Detector" style="stroke:#181818;stroke-width:1.0;"/><polygon fill="#181818" points="515.56,112.53,508.3494,112.6176,505.657,119.3072,512.8676,119.2196,515.56,112.53" style="stroke:#181818;stroke-width:1.0;"/><text fill="#000000" font-family="sans-serif" font-size="13" lengthAdjust="spacing" textLength="7" x="397.8314" y="189.5006">n</text></g><!--reverse link Setup to Motor--><g id="link_Setup_Motor"><path codeLine="9" d="M621.0593,122.9489 C637.3293,149.0989 651.08,171.2 667.34,197.33 " fill="none" id="Setup-backto-Motor" style="stroke:#181818;stroke-width:1.0;"/><polygon fill="#181818" points="614.72,112.76,614.4934,119.9675,621.0593,122.9489,621.2859,115.7413,614.72,112.76" style="stroke:#181818;stroke-width:1.0;"/><text fill="#000000" font-family="sans-serif" font-size="13" lengthAdjust="spacing" textLength="7" x="655.6769" y="186.4927">n</text></g><!--reverse link Setup to Device--><g id="link_Setup_Device"><path codeLine="10" d="M576.1016,124.4175 C562.8616,212.7675 536.39,389.44 523.14,477.87 " fill="none" id="Setup-backto-Device" style="stroke:#181818;stroke-width:1.0;"/><polygon fill="#181818" points="577.88,112.55,573.035,117.8909,576.1016,124.4175,580.9466,119.0766,577.88,112.55" style="stroke:#181818;stroke-width:1.0;"/><text fill="#000000" font-family="sans-serif" font-size="13" lengthAdjust="spacing" textLength="7" x="516.6746" y="466.6876">n</text></g><!--link Setup to SCML--><g id="link_Setup_SCML"><path codeLine="12" d="M655.55,64 C667.12,64 666.7,64 678.27,64 " fill="none" id="Setup-to-SCML" style="stroke:#181818;stroke-width:1.0;"/><polygon fill="#181818" points="690.27,64,684.27,60,678.27,64,684.27,68,690.27,64" style="stroke:#181818;stroke-width:1.0;"/></g><!--reverse link AbstractDevice to Detector--><g id="link_AbstractDevice_Detector"><path codeLine="21" d="M322,139.46 C322,158.33 322,161.49 322,180.9 " fill="none" id="AbstractDevice-backto-Detector" style="stroke:#181818;stroke-width:1.0;"/><polygon fill="none" points="322,121.46,316,139.46,328,139.46,322,121.46" style="stroke:#181818;stroke-width:1.0;"/></g><!--reverse link AbstractDevice to Motor--><g id="link_AbstractDevice_Motor"><path codeLine="22" d="M401.4169,103.1203 C471.9669,136.9903 569.03,183.58 637.89,216.63 " fill="none" id="AbstractDevice-backto-Motor" style="stroke:#181818;stroke-width:1.0;"/><polygon fill="none" points="385.19,95.33,398.8201,108.5292,404.0136,97.7113,385.19,95.33" style="stroke:#181818;stroke-width:1.0;"/></g><!--reverse link AbstractDevice to Device--><g id="link_AbstractDevice_Device"><path codeLine="23" d="M380.4053,135.5859 C394.1753,153.8259 397.48,160.33 408,181 C458.9,280.99 491.42,409.58 506.38,477.89 " fill="none" id="AbstractDevice-backto-Device" style="stroke:#181818;stroke-width:1.0;"/><polygon fill="none" points="369.56,121.22,375.6167,139.201,385.1939,131.9708,369.56,121.22" style="stroke:#181818;stroke-width:1.0;"/></g><!--reverse link AbstractDevice to Axis--><g id="link_AbstractDevice_Axis"><path codeLine="24" d="M399.0139,126.3137 C423.1139,146.1637 436.52,158.23 460,181 C543.36,261.85 630.92,361.41 691.28,432.68 " fill="none" id="AbstractDevice-backto-Axis" style="stroke:#181818;stroke-width:1.0;"/><polygon fill="none" points="385.12,114.87,395.1993,130.945,402.8285,121.6824,385.12,114.87" style="stroke:#181818;stroke-width:1.0;"/></g><!--reverse link AbstractDevice to Channel--><g id="link_AbstractDevice_Channel"><path codeLine="25" d="M261.0123,135.4442 C247.5123,153.4242 245.21,159.82 237,181 C203.75,266.82 197.02,373.11 197,444.75 " fill="none" id="AbstractDevice-backto-Channel" style="stroke:#181818;stroke-width:1.0;"/><polygon fill="none" points="271.82,121.05,256.2142,131.8417,265.8104,139.0468,271.82,121.05" style="stroke:#181818;stroke-width:1.0;"/></g><!--reverse link AbstractDevice to Option--><g id="link_AbstractDevice_Option"><path codeLine="26" d="M245.3222,126.5322 C223.7822,145.6322 214.28,156.78 197,181 C143.39,256.17 132.08,280.66 113,371 C84.44,506.24 63.6,552.91 113,682 C121.41,703.98 136.11,724.41 151.86,741.82 " fill="none" id="AbstractDevice-backto-Option" style="stroke:#181818;stroke-width:1.0;"/><polygon fill="none" points="258.79,114.59,241.3414,122.043,249.3029,131.0215,258.79,114.59" style="stroke:#181818;stroke-width:1.0;"/></g><!--reverse link AbstractDevice to Unit--><g id="link_AbstractDevice_Unit"><path codeLine="27" d="M247.5608,91.8839 C203.0108,110.5339 156.18,136.67 120,181 C18.02,305.94 6,364.22 6,525.5 C6,525.5 6,525.5 6,800 C6,940.71 77.88,1097.54 111.29,1162.85 " fill="none" id="AbstractDevice-backto-Unit" style="stroke:#181818;stroke-width:1.0;"/><polygon fill="#181818" points="258.63,87.25,251.5508,85.8772,247.5608,91.8839,254.64,93.2567,258.63,87.25" style="stroke:#181818;stroke-width:1.0;"/></g><!--reverse link Access to Unit--><g id="link_Access_Unit"><path codeLine="37" d="M502.3535,1028.7001 C411.2335,1068.9301 271.5,1130.63 186.79,1168.04 " fill="none" id="Access-backto-Unit" style="stroke:#181818;stroke-width:1.0;"/><polygon fill="none" points="518.82,1021.43,499.9301,1023.2112,504.7768,1034.1889,518.82,1021.43" style="stroke:#181818;stroke-width:1.0;"/></g><!--reverse link Access to Method--><g id="link_Access_Method"><path codeLine="38" d="M556.4975,1073.3454 C548.7175,1092.7154 544.77,1102.52 536.99,1121.89 " fill="none" id="Access-backto-Method" style="stroke:#181818;stroke-width:1.0;"/><polygon fill="#181818" points="560.97,1062.21,555.0219,1066.2868,556.4975,1073.3454,562.4455,1069.2685,560.97,1062.21" style="stroke:#181818;stroke-width:1.0;"/></g><!--reverse link Access to Transport--><g id="link_Access_Transport"><path codeLine="39" d="M623.9016,1073.3255 C636.4916,1104.2755 646.19,1128.11 656.83,1154.25 " fill="none" id="Access-backto-Transport" style="stroke:#181818;stroke-width:1.0;"/><polygon fill="#181818" points="619.38,1062.21,617.9356,1069.275,623.9016,1073.3255,625.346,1066.2606,619.38,1062.21" style="stroke:#181818;stroke-width:1.0;"/></g><!--reverse link Axis to Access--><g id="link_Axis_Access"><path codeLine="65" d="M707.2447,693.3565 C686.7547,748.4165 667.34,799.51 645,856 C637.29,875.51 628.67,896.52 620.59,915.92 " fill="none" id="Axis-backto-Access" style="stroke:#181818;stroke-width:1.0;"/><polygon fill="#181818" points="711.43,682.11,705.5885,686.3382,707.2447,693.3565,713.0862,689.1283,711.43,682.11" style="stroke:#181818;stroke-width:1.0;"/><text fill="#000000" font-family="sans-serif" font-size="13" lengthAdjust="spacing" textLength="7" x="616.3837" y="904.6603">n</text></g><!--reverse link Axis to Option--><g id="link_Axis_Option"><path codeLine="66" d="M682.7448,668.1454 C674.3648,676.5454 673.76,675.66 664,682 C534.58,766.05 467.9,691.73 322,742 C315.94,744.09 309.82,746.49 303.72,749.1 " fill="none" id="Axis-backto-Option" style="stroke:#181818;stroke-width:1.0;"/><polygon fill="#181818" points="691.22,659.65,684.1506,661.0726,682.7448,668.1454,689.8142,666.7227,691.22,659.65" style="stroke:#181818;stroke-width:1.0;"/><text fill="#000000" font-family="sans-serif" font-size="13" lengthAdjust="spacing" textLength="7" x="311.4733" y="741.2539">n</text></g><!--reverse link Channel to Access--><g id="link_Channel_Access"><path codeLine="77" d="M137.0145,618.6169 C94.3645,690.1469 58.07,783.81 113,856 C162.1,920.54 398.1,961.66 518.71,978.82 " fill="none" id="Channel-backto-Access" style="stroke:#181818;stroke-width:1.0;"/><polygon fill="#181818" points="143.16,608.31,136.6516,611.4149,137.0145,618.6169,143.5229,615.512,143.16,608.31" style="stroke:#181818;stroke-width:1.0;"/><text fill="#000000" font-family="sans-serif" font-size="13" lengthAdjust="spacing" textLength="7" x="503.9973" y="974.0468">n</text></g><!--reverse link Channel to Option--><g id="link_Channel_Option"><path codeLine="78" d="M205.8325,620.2664 C208.5325,663.2364 211.03,703.03 213.46,741.63 " fill="none" id="Channel-backto-Option" style="stroke:#181818;stroke-width:1.0;"/><polygon fill="#181818" points="205.08,608.29,201.4641,614.529,205.8325,620.2664,209.4484,614.0273,205.08,608.29" style="stroke:#181818;stroke-width:1.0;"/><text fill="#000000" font-family="sans-serif" font-size="13" lengthAdjust="spacing" textLength="7" x="205.602" y="730.8216">n</text></g><!--reverse link Detector to Access--><g id="link_Detector_Access"><path codeLine="87" d="M332.9046,323.0535 C349.1246,429.6835 383.88,625.35 430,682 C468.91,729.79 518.58,692.29 555,742 C591.52,791.85 598.13,862.94 596.87,915.89 " fill="none" id="Detector-backto-Access" style="stroke:#181818;stroke-width:1.0;"/><polygon fill="#181818" points="331.1,311.19,328.0478,317.7233,332.9046,323.0535,335.9568,316.5202,331.1,311.19" style="stroke:#181818;stroke-width:1.0;"/><text fill="#000000" font-family="sans-serif" font-size="13" lengthAdjust="spacing" textLength="7" x="590.2175" y="904.6272">n</text></g><!--reverse link Detector to Channel--><g id="link_Detector_Channel"><path codeLine="88" d="M289.0444,322.2313 C271.6244,361.9913 253.93,402.39 235.32,444.87 " fill="none" id="Detector-backto-Channel" style="stroke:#181818;stroke-width:1.0;"/><polygon fill="#181818" points="293.86,311.24,287.7884,315.1305,289.0444,322.2313,295.116,318.3409,293.86,311.24" style="stroke:#181818;stroke-width:1.0;"/><text fill="#000000" font-family="sans-serif" font-size="13" lengthAdjust="spacing" textLength="7" x="231.2534" y="433.7319">n</text></g><!--reverse link Detector to Option--><g id="link_Detector_Option"><path codeLine="89" d="M326.3167,323.0617 C329.5367,409.5117 327.83,555.26 287,682 C280.33,702.71 269.34,723.6 258.02,741.83 " fill="none" id="Detector-backto-Option" style="stroke:#181818;stroke-width:1.0;"/><polygon fill="#181818" points="325.87,311.07,322.0961,317.2147,326.3167,323.0617,330.0906,316.917,325.87,311.07" style="stroke:#181818;stroke-width:1.0;"/><text fill="#000000" font-family="sans-serif" font-size="13" lengthAdjust="spacing" textLength="7" x="255.8273" y="730.6437">n</text></g><!--reverse link Device to Access--><g id="link_Device_Access"><path codeLine="96" d="M551.6554,585.5592 C575.9854,627.6492 602.53,681.23 616,742 C628.8,799.76 620.3,866.58 609.71,916 " fill="none" id="Device-backto-Access" style="stroke:#181818;stroke-width:1.0;"/><polygon fill="#181818" points="545.65,575.17,545.1897,582.3664,551.6554,585.5592,552.1158,578.3628,545.65,575.17" style="stroke:#181818;stroke-width:1.0;"/></g><!--reverse link Device to Option--><g id="link_Device_Option"><path codeLine="97" d="M456.3754,583.3557 C423.4454,614.0757 388.31,646.56 349,682 C327.14,701.72 303,723.05 281.41,741.98 " fill="none" id="Device-backto-Option" style="stroke:#181818;stroke-width:1.0;"/><polygon fill="#181818" points="465.15,575.17,458.0341,576.338,456.3754,583.3557,463.4913,582.1877,465.15,575.17" style="stroke:#181818;stroke-width:1.0;"/><text fill="#000000" font-family="sans-serif" font-size="13" lengthAdjust="spacing" textLength="7" x="282.2141" y="730.813">n</text></g><!--reverse link Motor to Access--><g id="link_Motor_Access"><path codeLine="113" d="M766.7147,279.5262 C804.5547,300.1662 839.99,326.92 862,371 C923.75,494.66 911.12,552.8 862,682 C822.03,787.14 727.53,879.22 661.2,934.22 " fill="none" id="Motor-backto-Access" style="stroke:#181818;stroke-width:1.0;"/><polygon fill="#181818" points="756.18,273.78,759.532,280.1647,766.7147,279.5262,763.3628,273.1415,756.18,273.78" style="stroke:#181818;stroke-width:1.0;"/></g><!--reverse link Motor to Axis--><g id="link_Motor_Axis"><path codeLine="114" d="M712.0874,306.1873 C717.5974,327.7773 721.49,343.04 728.55,370.76 " fill="none" id="Motor-backto-Axis" style="stroke:#181818;stroke-width:1.0;"/><polygon fill="#181818" points="709.12,294.56,706.7279,301.3628,712.0874,306.1873,714.4795,299.3845,709.12,294.56" style="stroke:#181818;stroke-width:1.0;"/><text fill="#000000" font-family="sans-serif" font-size="13" lengthAdjust="spacing" textLength="7" x="719.4696" y="359.9314">n</text></g><!--reverse link Motor to Option--><g id="link_Motor_Option"><path codeLine="115" d="M685.9259,306.444 C665.2659,416.494 616.83,668.2 603,682 C512.59,772.19 441.95,698.19 322,742 C315.89,744.23 309.69,746.76 303.52,749.49 " fill="none" id="Motor-backto-Option" style="stroke:#181818;stroke-width:1.0;"/><polygon fill="#181818" points="688.14,294.65,683.1016,299.8089,685.9259,306.444,690.9643,301.285,688.14,294.65" style="stroke:#181818;stroke-width:1.0;"/><text fill="#000000" font-family="sans-serif" font-size="13" lengthAdjust="spacing" textLength="7" x="311.5374" y="757.8362">n</text></g><!--reverse link Option to Access--><g id="link_Option_Access"><path codeLine="123" d="M314.3287,852.0714 C320.5187,855.3014 316.03,852.94 322,856 C388.34,890.02 464.68,927.45 518.87,953.74 " fill="none" id="Option-backto-Access" style="stroke:#181818;stroke-width:1.0;"/><polygon fill="#181818" points="303.69,846.52,307.1589,852.8419,314.3287,852.0714,310.8598,845.7495,303.69,846.52" style="stroke:#181818;stroke-width:1.0;"/></g><!--reverse link Option to AutoAcquire--><g id="link_Option_AutoAcquire"><path codeLine="124" d="M315.76,799 C327.47,799 327.18,799 338.89,799 " fill="none" id="Option-backto-AutoAcquire" style="stroke:#181818;stroke-width:1.0;"/><polygon fill="#181818" points="303.76,799,309.76,803,315.76,799,309.76,795,303.76,799" style="stroke:#181818;stroke-width:1.0;"/></g><!--SRC=[fPLBRnCn4CVl-ociNf0gXTuZEAG1SQ42gUq947BNaus5rxFuaRQ2VdV6hyrwiwqGv92rVxCP_-UHyQkzSuDTNrmCYcldU_MwnVwYLTpQbP2yCxnlchXbr-3ym7urZ3u27BGEZMLhzYwlltoBfXuply8Z572GBQItmuhmKvCSdgzMx4oVZMvcE7evUJNuQ39TdRFhxTN7HgC3PcItTmnt4Qr9Cp0B0pVSmLTjsrwHFk4Ll2vHRUwiCxnroMSEBvdMZ4nITn5ftaDDfAZtNaj7v9OU5DpCxvlVf7qCSScO0bt-MGntoRHva7RHiDrphK4jsZuDJgAUcq9oe_QIc9OAPdD23bpv4Bvx722kKwd1xJ5auIekKkhGwv06gHrqO2AZOxGTq0H-KzR98dj07_XE8NUvWKW56c9tY0gu3jbCOgByA3A383eVFY77CnhGlcSRxt3J_lJIb09RpGUxHyVUZiiS4RVUG0ywc2Qxr0D8K2FfAJcYz6UF7PMF92SLaGnePKXqJQt3eIPxQbab-zWy4wpmVea6T92e-99hxhojMOy74AYXfjIq7HMdXWAukEDQr1HtEmip4UuU-8_I4dE-GtFFZLYm63Y0iRFVO6p6e3grPHuObX_WUpbYqWSXuMKCP2yLoxsTwvF_1Rb4XWByYpoSLcWfiS_e5h03Oq1CLByGJj4tYsYEww3A5CbH_KSCRJedq7naZc8XkATcF7UczeINsNDYcCSncRWBtIIafKlfiJFeXthIFYDl76EZi95CJuyZ8GsDVFZdsnlwOzDtsMqlqtvx6Sc7zy5EtsKNxV5PI7AH5XDMNao-nhaHP_rBzUCFyR8ChVrIIPAVISX740iKReSQrIL8ktyfmUcGZh9fqF8yQDVJiKjQyraJiIEftapr6KTukP4v9RBbUJAsND4sFez93VT2VZjSnKdiKVLJymS0]--></g></svg>