<?xml version="1.0" encoding="us-ascii" standalone="no"?><svg xmlns="http://www.w3.org/2000/svg" xmlns:xlink="http://www.w3.org/1999/xlink" contentStyleType="text/css" height="1160px" preserveAspectRatio="none" style="width:1440px;height:1160px;background:#FFFFFF;" version="1.1" viewBox="0 0 1440 1160" width="1440px" zoomAndPan="magnify"><defs/><g><!--class Scan--><g id="elem_Scan"><rect codeLine="3" fill="#F1F1F1" height="113.625" id="Scan" rx="2.5" ry="2.5" style="stroke:#181818;stroke-width:0.5;" width="251" x="352.5" y="7"/><ellipse cx="458.25" cy="23" fill="#ADD1B2" rx="11" ry="11" style="stroke:#181818;stroke-width:1.0;"/><path d="M458.2969,29.2031 C459.7969,29.2031 461.0313,28.6406 461.9375,27.5781 L460.5625,26.0625 C460.0156,26.6563 459.3594,27.0469 458.5625,27.0469 C456.8906,27.0469 455.7344,25.7188 455.7344,23.4375 C455.7344,21.2188 456.8906,19.875 458.4531,19.875 C459.2656,19.875 459.8594,20.1875 460.3906,20.6719 L461.7656,19.125 C461.0156,18.3906 459.8594,17.7188 458.4531,17.7188 C455.5,17.7188 453.1719,19.8594 453.1719,23.5313 C453.1719,27.25 455.5469,29.2031 458.2969,29.2031 Z " fill="#000000"/><text fill="#000000" font-family="sans-serif" font-size="14" lengthAdjust="spacing" textLength="31" x="478.75" y="27.7852">Scan</text><line style="stroke:#181818;stroke-width:0.5;" x1="353.5" x2="602.5" y1="39" y2="39"/><text fill="#000000" font-family="sans-serif" font-size="14" lengthAdjust="spacing" textLength="134" x="358.5" y="55.9883">repeat_count : integer</text><text fill="#000000" font-family="sans-serif" font-size="14" lengthAdjust="spacing" textLength="114" x="358.5" y="72.3945">description : string</text><text fill="#000000" font-family="sans-serif" font-size="14" lengthAdjust="spacing" textLength="104" x="358.5" y="88.8008">comment : string</text><text fill="#000000" font-family="sans-serif" font-size="14" lengthAdjust="spacing" textLength="239" x="358.5" y="105.207">scan_modules : AbstractScanModule{}</text><line style="stroke:#181818;stroke-width:0.5;" x1="353.5" x2="602.5" y1="112.625" y2="112.625"/></g><!--class AbstractScanModule--><g id="elem_AbstractScanModule"><rect codeLine="18" fill="#F1F1F1" height="195.6563" id="AbstractScanModule" rx="2.5" ry="2.5" style="stroke:#181818;stroke-width:0.5;" width="256" x="350" y="181"/><ellipse cx="408.25" cy="197" fill="#ADD1B2" rx="11" ry="11" style="stroke:#181818;stroke-width:1.0;"/><path d="M408.2969,203.2031 C409.7969,203.2031 411.0313,202.6406 411.9375,201.5781 L410.5625,200.0625 C410.0156,200.6563 409.3594,201.0469 408.5625,201.0469 C406.8906,201.0469 405.7344,199.7188 405.7344,197.4375 C405.7344,195.2188 406.8906,193.875 408.4531,193.875 C409.2656,193.875 409.8594,194.1875 410.3906,194.6719 L411.7656,193.125 C411.0156,192.3906 409.8594,191.7188 408.4531,191.7188 C405.5,191.7188 403.1719,193.8594 403.1719,197.5313 C403.1719,201.25 405.5469,203.2031 408.2969,203.2031 Z " fill="#000000"/><text fill="#000000" font-family="sans-serif" font-size="14" lengthAdjust="spacing" textLength="131" x="428.75" y="201.7852">AbstractScanModule</text><line style="stroke:#181818;stroke-width:0.5;" x1="351" x2="605" y1="213" y2="213"/><text fill="#000000" font-family="sans-serif" font-size="14" lengthAdjust="spacing" textLength="63" x="356" y="229.9883">id : integer</text><text fill="#000000" font-family="sans-serif" font-size="14" lengthAdjust="spacing" textLength="80" x="356" y="246.3945">name : string</text><text fill="#000000" font-family="sans-serif" font-size="14" lengthAdjust="spacing" textLength="93" x="356" y="262.8008">parent : integer</text><text fill="#000000" font-family="sans-serif" font-size="14" lengthAdjust="spacing" textLength="114" x="356" y="279.207">appended : integer</text><text fill="#000000" font-family="sans-serif" font-size="14" lengthAdjust="spacing" textLength="94" x="356" y="295.6133">nested : integer</text><text fill="#000000" font-family="sans-serif" font-size="14" lengthAdjust="spacing" textLength="117" x="356" y="312.0195">is_nested : boolean</text><text fill="#000000" font-family="sans-serif" font-size="14" lengthAdjust="spacing" textLength="182" x="356" y="328.4258">number_of_positions : integer</text><text fill="#000000" font-family="sans-serif" font-size="14" lengthAdjust="spacing" textLength="244" x="356" y="344.832">number_of_positions_per_pass : integer</text><text fill="#000000" font-family="sans-serif" font-size="14" lengthAdjust="spacing" textLength="188" x="356" y="361.2383">position_counts : numpy.array</text><line style="stroke:#181818;stroke-width:0.5;" x1="351" x2="605" y1="368.6563" y2="368.6563"/></g><!--class File--><g id="elem_File"><rect fill="#F1F1F1" height="48" id="File" rx="2.5" ry="2.5" style="stroke:#181818;stroke-width:0.5;" width="53" x="264.5" y="40"/><ellipse cx="279.5" cy="56" fill="#ADD1B2" rx="11" ry="11" style="stroke:#181818;stroke-width:1.0;"/><path d="M279.5469,62.2031 C281.0469,62.2031 282.2813,61.6406 283.1875,60.5781 L281.8125,59.0625 C281.2656,59.6563 280.6094,60.0469 279.8125,60.0469 C278.1406,60.0469 276.9844,58.7188 276.9844,56.4375 C276.9844,54.2188 278.1406,52.875 279.7031,52.875 C280.5156,52.875 281.1094,53.1875 281.6406,53.6719 L283.0156,52.125 C282.2656,51.3906 281.1094,50.7188 279.7031,50.7188 C276.75,50.7188 274.4219,52.8594 274.4219,56.5313 C274.4219,60.25 276.7969,62.2031 279.5469,62.2031 Z " fill="#000000"/><text fill="#000000" font-family="sans-serif" font-size="14" lengthAdjust="spacing" textLength="21" x="293.5" y="60.7852">File</text><line style="stroke:#181818;stroke-width:0.5;" x1="265.5" x2="316.5" y1="72" y2="72"/><line style="stroke:#181818;stroke-width:0.5;" x1="265.5" x2="316.5" y1="80" y2="80"/></g><g id="elem_GMN7"><path d="M133,44 L133,84.4688 A0,0 0 0 0 133,84.4688 L229,84.4688 A0,0 0 0 0 229,84.4688 L229,68 L264.41,64 L229,60 L229,54 L219,44 L133,44 A0,0 0 0 0 133,44 " fill="#FEFFDD" style="stroke:#181818;stroke-width:0.5;"/><path d="M219,44 L219,54 L229,54 L219,44 " fill="#FEFFDD" style="stroke:#181818;stroke-width:0.5;"/><text fill="#000000" font-family="sans-serif" font-size="13" lengthAdjust="spacing" textLength="75" x="139" y="61.0605">See separate</text><text fill="#000000" font-family="sans-serif" font-size="13" lengthAdjust="spacing" textLength="66" x="139" y="76.2949">file module.</text></g><!--class ScanModule--><g id="elem_ScanModule"><rect codeLine="30" fill="#F1F1F1" height="146.4375" id="ScanModule" rx="2.5" ry="2.5" style="stroke:#181818;stroke-width:0.5;" width="230" x="701" y="437"/><ellipse cx="773.25" cy="453" fill="#ADD1B2" rx="11" ry="11" style="stroke:#181818;stroke-width:1.0;"/><path d="M773.2969,459.2031 C774.7969,459.2031 776.0313,458.6406 776.9375,457.5781 L775.5625,456.0625 C775.0156,456.6563 774.3594,457.0469 773.5625,457.0469 C771.8906,457.0469 770.7344,455.7188 770.7344,453.4375 C770.7344,451.2188 771.8906,449.875 773.4531,449.875 C774.2656,449.875 774.8594,450.1875 775.3906,450.6719 L776.7656,449.125 C776.0156,448.3906 774.8594,447.7188 773.4531,447.7188 C770.5,447.7188 768.1719,449.8594 768.1719,453.5313 C768.1719,457.25 770.5469,459.2031 773.2969,459.2031 Z " fill="#000000"/><text fill="#000000" font-family="sans-serif" font-size="14" lengthAdjust="spacing" textLength="77" x="793.75" y="457.7852">ScanModule</text><line style="stroke:#181818;stroke-width:0.5;" x1="702" x2="930" y1="469" y2="469"/><text fill="#000000" font-family="sans-serif" font-size="14" lengthAdjust="spacing" textLength="218" x="707" y="485.9883">number_of_measurements : integer</text><text fill="#000000" font-family="sans-serif" font-size="14" lengthAdjust="spacing" textLength="74" x="707" y="502.3945">axes : Axis{}</text><text fill="#000000" font-family="sans-serif" font-size="14" lengthAdjust="spacing" textLength="126" x="707" y="518.8008">channels : Channel{}</text><text fill="#000000" font-family="sans-serif" font-size="14" lengthAdjust="spacing" textLength="183" x="707" y="535.207">pre_scan_settings : PreScan{}</text><text fill="#000000" font-family="sans-serif" font-size="14" lengthAdjust="spacing" textLength="199" x="707" y="551.6133">post_scan_settings : PostScan{}</text><text fill="#000000" font-family="sans-serif" font-size="14" lengthAdjust="spacing" textLength="163" x="707" y="568.0195">positionings : Positioning[]</text><line style="stroke:#181818;stroke-width:0.5;" x1="702" x2="930" y1="575.4375" y2="575.4375"/></g><!--class Event--><g id="elem_Event"><rect fill="#F1F1F1" height="48" id="Event" rx="2.5" ry="2.5" style="stroke:#181818;stroke-width:0.5;" width="67" x="1340.5" y="692"/><ellipse cx="1355.5" cy="708" fill="#ADD1B2" rx="11" ry="11" style="stroke:#181818;stroke-width:1.0;"/><path d="M1355.5469,714.2031 C1357.0469,714.2031 1358.2813,713.6406 1359.1875,712.5781 L1357.8125,711.0625 C1357.2656,711.6563 1356.6094,712.0469 1355.8125,712.0469 C1354.1406,712.0469 1352.9844,710.7188 1352.9844,708.4375 C1352.9844,706.2188 1354.1406,704.875 1355.7031,704.875 C1356.5156,704.875 1357.1094,705.1875 1357.6406,705.6719 L1359.0156,704.125 C1358.2656,703.3906 1357.1094,702.7188 1355.7031,702.7188 C1352.75,702.7188 1350.4219,704.8594 1350.4219,708.5313 C1350.4219,712.25 1352.7969,714.2031 1355.5469,714.2031 Z " fill="#000000"/><text fill="#000000" font-family="sans-serif" font-size="14" lengthAdjust="spacing" textLength="35" x="1369.5" y="712.7852">Event</text><line style="stroke:#181818;stroke-width:0.5;" x1="1341.5" x2="1406.5" y1="724" y2="724"/><line style="stroke:#181818;stroke-width:0.5;" x1="1341.5" x2="1406.5" y1="732" y2="732"/></g><!--class Axis--><g id="elem_Axis"><rect codeLine="67" fill="#F1F1F1" height="113.625" id="Axis" rx="2.5" ry="2.5" style="stroke:#181818;stroke-width:0.5;" width="230" x="363" y="659"/><ellipse cx="460.75" cy="675" fill="#ADD1B2" rx="11" ry="11" style="stroke:#181818;stroke-width:1.0;"/><path d="M460.7969,681.2031 C462.2969,681.2031 463.5313,680.6406 464.4375,679.5781 L463.0625,678.0625 C462.5156,678.6563 461.8594,679.0469 461.0625,679.0469 C459.3906,679.0469 458.2344,677.7188 458.2344,675.4375 C458.2344,673.2188 459.3906,671.875 460.9531,671.875 C461.7656,671.875 462.3594,672.1875 462.8906,672.6719 L464.2656,671.125 C463.5156,670.3906 462.3594,669.7188 460.9531,669.7188 C458,669.7188 455.6719,671.8594 455.6719,675.5313 C455.6719,679.25 458.0469,681.2031 460.7969,681.2031 Z " fill="#000000"/><text fill="#000000" font-family="sans-serif" font-size="14" lengthAdjust="spacing" textLength="26" x="481.25" y="679.7852">Axis</text><line style="stroke:#181818;stroke-width:0.5;" x1="364" x2="592" y1="691" y2="691"/><text fill="#000000" font-family="sans-serif" font-size="14" lengthAdjust="spacing" textLength="56" x="369" y="707.9883">id : string</text><text fill="#000000" font-family="sans-serif" font-size="14" lengthAdjust="spacing" textLength="177" x="369" y="724.3945">step_function : StepFunction</text><text fill="#000000" font-family="sans-serif" font-size="14" lengthAdjust="spacing" textLength="218" x="369" y="740.8008">position_mode : "absolute"|"relative"</text><text fill="#000000" font-family="sans-serif" font-size="14" lengthAdjust="spacing" textLength="146" x="369" y="757.207">positions : numpy.array</text><line style="stroke:#181818;stroke-width:0.5;" x1="364" x2="592" y1="764.625" y2="764.625"/></g><!--class Channel--><g id="elem_Channel"><rect codeLine="75" fill="#F1F1F1" height="97.2188" id="Channel" rx="2.5" ry="2.5" style="stroke:#181818;stroke-width:0.5;" width="170" x="158" y="667.5"/><ellipse cx="213.25" cy="683.5" fill="#ADD1B2" rx="11" ry="11" style="stroke:#181818;stroke-width:1.0;"/><path d="M213.2969,689.7031 C214.7969,689.7031 216.0313,689.1406 216.9375,688.0781 L215.5625,686.5625 C215.0156,687.1563 214.3594,687.5469 213.5625,687.5469 C211.8906,687.5469 210.7344,686.2188 210.7344,683.9375 C210.7344,681.7188 211.8906,680.375 213.4531,680.375 C214.2656,680.375 214.8594,680.6875 215.3906,681.1719 L216.7656,679.625 C216.0156,678.8906 214.8594,678.2188 213.4531,678.2188 C210.5,678.2188 208.1719,680.3594 208.1719,684.0313 C208.1719,687.75 210.5469,689.7031 213.2969,689.7031 Z " fill="#000000"/><text fill="#000000" font-family="sans-serif" font-size="14" lengthAdjust="spacing" textLength="51" x="233.75" y="688.2852">Channel</text><line style="stroke:#181818;stroke-width:0.5;" x1="159" x2="327" y1="699.5" y2="699.5"/><text fill="#000000" font-family="sans-serif" font-size="14" lengthAdjust="spacing" textLength="56" x="164" y="716.4883">id : string</text><text fill="#000000" font-family="sans-serif" font-size="14" lengthAdjust="spacing" textLength="123" x="164" y="732.8945">normalize_id : string</text><text fill="#000000" font-family="sans-serif" font-size="14" lengthAdjust="spacing" textLength="158" x="164" y="749.3008">deferred_trigger : boolean</text><line style="stroke:#181818;stroke-width:0.5;" x1="159" x2="327" y1="756.7188" y2="756.7188"/></g><!--class Positioning--><g id="elem_Positioning"><rect codeLine="95" fill="#F1F1F1" height="146.4375" id="Positioning" rx="2.5" ry="2.5" style="stroke:#181818;stroke-width:0.5;" width="190" x="628" y="643"/><ellipse cx="683.75" cy="659" fill="#ADD1B2" rx="11" ry="11" style="stroke:#181818;stroke-width:1.0;"/><path d="M683.7969,665.2031 C685.2969,665.2031 686.5313,664.6406 687.4375,663.5781 L686.0625,662.0625 C685.5156,662.6563 684.8594,663.0469 684.0625,663.0469 C682.3906,663.0469 681.2344,661.7188 681.2344,659.4375 C681.2344,657.2188 682.3906,655.875 683.9531,655.875 C684.7656,655.875 685.3594,656.1875 685.8906,656.6719 L687.2656,655.125 C686.5156,654.3906 685.3594,653.7188 683.9531,653.7188 C681,653.7188 678.6719,655.8594 678.6719,659.5313 C678.6719,663.25 681.0469,665.2031 683.7969,665.2031 Z " fill="#000000"/><text fill="#000000" font-family="sans-serif" font-size="14" lengthAdjust="spacing" textLength="70" x="704.25" y="663.7852">Positioning</text><line style="stroke:#181818;stroke-width:0.5;" x1="629" x2="817" y1="675" y2="675"/><text fill="#000000" font-family="sans-serif" font-size="14" lengthAdjust="spacing" textLength="87" x="634" y="691.9883">axis_id : string</text><text fill="#000000" font-family="sans-serif" font-size="14" lengthAdjust="spacing" textLength="111" x="634" y="708.3945">channel_id : string</text><text fill="#000000" font-family="sans-serif" font-size="14" lengthAdjust="spacing" textLength="178" x="634" y="724.8008">normalize_channel_id : string</text><text fill="#000000" font-family="sans-serif" font-size="14" lengthAdjust="spacing" textLength="72" x="634" y="741.207">type : string</text><text fill="#000000" font-family="sans-serif" font-size="14" lengthAdjust="spacing" textLength="104" x="634" y="757.6133">parameters : dict</text><text fill="#000000" font-family="sans-serif" font-size="14" lengthAdjust="spacing" textLength="102" x="634" y="774.0195">position : integer</text><line style="stroke:#181818;stroke-width:0.5;" x1="629" x2="817" y1="781.4375" y2="781.4375"/></g><!--class PreScan--><g id="elem_PreScan"><rect codeLine="105" fill="#F1F1F1" height="80.8125" id="PreScan" rx="2.5" ry="2.5" style="stroke:#181818;stroke-width:0.5;" width="114" x="853" y="675.5"/><ellipse cx="881.5" cy="691.5" fill="#ADD1B2" rx="11" ry="11" style="stroke:#181818;stroke-width:1.0;"/><path d="M881.5469,697.7031 C883.0469,697.7031 884.2813,697.1406 885.1875,696.0781 L883.8125,694.5625 C883.2656,695.1563 882.6094,695.5469 881.8125,695.5469 C880.1406,695.5469 878.9844,694.2188 878.9844,691.9375 C878.9844,689.7188 880.1406,688.375 881.7031,688.375 C882.5156,688.375 883.1094,688.6875 883.6406,689.1719 L885.0156,687.625 C884.2656,686.8906 883.1094,686.2188 881.7031,686.2188 C878.75,686.2188 876.4219,688.3594 876.4219,692.0313 C876.4219,695.75 878.7969,697.7031 881.5469,697.7031 Z " fill="#000000"/><text fill="#000000" font-family="sans-serif" font-size="14" lengthAdjust="spacing" textLength="52" x="898.5" y="696.2852">PreScan</text><line style="stroke:#181818;stroke-width:0.5;" x1="854" x2="966" y1="707.5" y2="707.5"/><text fill="#000000" font-family="sans-serif" font-size="14" lengthAdjust="spacing" textLength="56" x="859" y="724.4883">id : string</text><text fill="#000000" font-family="sans-serif" font-size="14" lengthAdjust="spacing" textLength="102" x="859" y="740.8945">value : typevalue</text><line style="stroke:#181818;stroke-width:0.5;" x1="854" x2="966" y1="748.3125" y2="748.3125"/></g><!--class PostScan--><g id="elem_PostScan"><rect codeLine="110" fill="#F1F1F1" height="97.2188" id="PostScan" rx="2.5" ry="2.5" style="stroke:#181818;stroke-width:0.5;" width="193" x="1002.5" y="667.5"/><ellipse cx="1064.75" cy="683.5" fill="#ADD1B2" rx="11" ry="11" style="stroke:#181818;stroke-width:1.0;"/><path d="M1064.7969,689.7031 C1066.2969,689.7031 1067.5313,689.1406 1068.4375,688.0781 L1067.0625,686.5625 C1066.5156,687.1563 1065.8594,687.5469 1065.0625,687.5469 C1063.3906,687.5469 1062.2344,686.2188 1062.2344,683.9375 C1062.2344,681.7188 1063.3906,680.375 1064.9531,680.375 C1065.7656,680.375 1066.3594,680.6875 1066.8906,681.1719 L1068.2656,679.625 C1067.5156,678.8906 1066.3594,678.2188 1064.9531,678.2188 C1062,678.2188 1059.6719,680.3594 1059.6719,684.0313 C1059.6719,687.75 1062.0469,689.7031 1064.7969,689.7031 Z " fill="#000000"/><text fill="#000000" font-family="sans-serif" font-size="14" lengthAdjust="spacing" textLength="60" x="1085.25" y="688.2852">PostScan</text><line style="stroke:#181818;stroke-width:0.5;" x1="1003.5" x2="1194.5" y1="699.5" y2="699.5"/><text fill="#000000" font-family="sans-serif" font-size="14" lengthAdjust="spacing" textLength="56" x="1008.5" y="716.4883">id : string</text><text fill="#000000" font-family="sans-serif" font-size="14" lengthAdjust="spacing" textLength="102" x="1008.5" y="732.8945">value : typevalue</text><text fill="#000000" font-family="sans-serif" font-size="14" lengthAdjust="spacing" textLength="181" x="1008.5" y="749.3008">reset_original_value : boolean</text><line style="stroke:#181818;stroke-width:0.5;" x1="1003.5" x2="1194.5" y1="756.7188" y2="756.7188"/></g><!--class Plot--><g id="elem_Plot"><rect fill="#F1F1F1" height="48" id="Plot" rx="2.5" ry="2.5" style="stroke:#181818;stroke-width:0.5;" width="57" x="1230.5" y="692"/><ellipse cx="1245.5" cy="708" fill="#ADD1B2" rx="11" ry="11" style="stroke:#181818;stroke-width:1.0;"/><path d="M1245.5469,714.2031 C1247.0469,714.2031 1248.2813,713.6406 1249.1875,712.5781 L1247.8125,711.0625 C1247.2656,711.6563 1246.6094,712.0469 1245.8125,712.0469 C1244.1406,712.0469 1242.9844,710.7188 1242.9844,708.4375 C1242.9844,706.2188 1244.1406,704.875 1245.7031,704.875 C1246.5156,704.875 1247.1094,705.1875 1247.6406,705.6719 L1249.0156,704.125 C1248.2656,703.3906 1247.1094,702.7188 1245.7031,702.7188 C1242.75,702.7188 1240.4219,704.8594 1240.4219,708.5313 C1240.4219,712.25 1242.7969,714.2031 1245.5469,714.2031 Z " fill="#000000"/><text fill="#000000" font-family="sans-serif" font-size="14" lengthAdjust="spacing" textLength="25" x="1259.5" y="712.7852">Plot</text><line style="stroke:#181818;stroke-width:0.5;" x1="1231.5" x2="1286.5" y1="724" y2="724"/><line style="stroke:#181818;stroke-width:0.5;" x1="1231.5" x2="1286.5" y1="732" y2="732"/></g><g id="elem_GMN26"><path d="M1202,886 L1202,926.4688 A0,0 0 0 0 1202,926.4688 L1298,926.4688 A0,0 0 0 0 1298,926.4688 L1298,896 L1288,886 L1254.92,886 L1257.9,740.05 L1246.92,886 L1202,886 A0,0 0 0 0 1202,886 " fill="#FEFFDD" style="stroke:#181818;stroke-width:0.5;"/><path d="M1288,886 L1288,896 L1298,896 L1288,886 " fill="#FEFFDD" style="stroke:#181818;stroke-width:0.5;"/><text fill="#000000" font-family="sans-serif" font-size="13" lengthAdjust="spacing" textLength="75" x="1208" y="903.0605">See separate</text><text fill="#000000" font-family="sans-serif" font-size="13" lengthAdjust="spacing" textLength="69" x="1208" y="918.2949">plot module.</text></g><g id="elem_GMN29"><path d="M1333,886 L1333,926.4688 A0,0 0 0 0 1333,926.4688 L1433,926.4688 A0,0 0 0 0 1433,926.4688 L1433,896 L1423,886 L1386.08,886 L1375.1,740.05 L1378.08,886 L1333,886 A0,0 0 0 0 1333,886 " fill="#FEFFDD" style="stroke:#181818;stroke-width:0.5;"/><path d="M1423,886 L1423,896 L1433,896 L1423,886 " fill="#FEFFDD" style="stroke:#181818;stroke-width:0.5;"/><text fill="#000000" font-family="sans-serif" font-size="13" lengthAdjust="spacing" textLength="75" x="1339" y="903.0605">See separate</text><text fill="#000000" font-family="sans-serif" font-size="13" lengthAdjust="spacing" textLength="79" x="1339" y="918.2949">event module.</text></g><!--class DynamicSnapshotModule--><g id="elem_DynamicSnapshotModule"><rect codeLine="50" fill="#F1F1F1" height="48" id="DynamicSnapshotModule" rx="2.5" ry="2.5" style="stroke:#181818;stroke-width:0.5;" width="192" x="164" y="486"/><ellipse cx="179" cy="502" fill="#ADD1B2" rx="11" ry="11" style="stroke:#181818;stroke-width:1.0;"/><path d="M179.0469,508.2031 C180.5469,508.2031 181.7813,507.6406 182.6875,506.5781 L181.3125,505.0625 C180.7656,505.6563 180.1094,506.0469 179.3125,506.0469 C177.6406,506.0469 176.4844,504.7188 176.4844,502.4375 C176.4844,500.2188 177.6406,498.875 179.2031,498.875 C180.0156,498.875 180.6094,499.1875 181.1406,499.6719 L182.5156,498.125 C181.7656,497.3906 180.6094,496.7188 179.2031,496.7188 C176.25,496.7188 173.9219,498.8594 173.9219,502.5313 C173.9219,506.25 176.2969,508.2031 179.0469,508.2031 Z " fill="#000000"/><text fill="#000000" font-family="sans-serif" font-size="14" lengthAdjust="spacing" textLength="160" x="193" y="506.7852">DynamicSnapshotModule</text><line style="stroke:#181818;stroke-width:0.5;" x1="165" x2="355" y1="518" y2="518"/><line style="stroke:#181818;stroke-width:0.5;" x1="165" x2="355" y1="526" y2="526"/></g><!--class StaticSnapshotModule--><g id="elem_StaticSnapshotModule"><rect codeLine="64" fill="#F1F1F1" height="80.8125" id="StaticSnapshotModule" rx="2.5" ry="2.5" style="stroke:#181818;stroke-width:0.5;" width="174" x="391" y="469.5"/><ellipse cx="406" cy="485.5" fill="#ADD1B2" rx="11" ry="11" style="stroke:#181818;stroke-width:1.0;"/><path d="M406.0469,491.7031 C407.5469,491.7031 408.7813,491.1406 409.6875,490.0781 L408.3125,488.5625 C407.7656,489.1563 407.1094,489.5469 406.3125,489.5469 C404.6406,489.5469 403.4844,488.2188 403.4844,485.9375 C403.4844,483.7188 404.6406,482.375 406.2031,482.375 C407.0156,482.375 407.6094,482.6875 408.1406,483.1719 L409.5156,481.625 C408.7656,480.8906 407.6094,480.2188 406.2031,480.2188 C403.25,480.2188 400.9219,482.3594 400.9219,486.0313 C400.9219,489.75 403.2969,491.7031 406.0469,491.7031 Z " fill="#000000"/><text fill="#000000" font-family="sans-serif" font-size="14" lengthAdjust="spacing" textLength="142" x="420" y="490.2852">StaticSnapshotModule</text><line style="stroke:#181818;stroke-width:0.5;" x1="392" x2="564" y1="501.5" y2="501.5"/><text fill="#000000" font-family="sans-serif" font-size="14" lengthAdjust="spacing" textLength="74" x="397" y="518.4883">axes : Axis{}</text><text fill="#000000" font-family="sans-serif" font-size="14" lengthAdjust="spacing" textLength="126" x="397" y="534.8945">channels : Channel{}</text><line style="stroke:#181818;stroke-width:0.5;" x1="392" x2="564" y1="542.3125" y2="542.3125"/></g><!--class StepFunction--><g id="elem_StepFunction"><rect codeLine="116" fill="#F1F1F1" height="80.8125" id="StepFunction" rx="2.5" ry="2.5" style="stroke:#181818;stroke-width:0.5;" width="158" x="399" y="865.5"/><ellipse cx="433.35" cy="881.5" fill="#ADD1B2" rx="11" ry="11" style="stroke:#181818;stroke-width:1.0;"/><path d="M433.3969,887.7031 C434.8969,887.7031 436.1313,887.1406 437.0375,886.0781 L435.6625,884.5625 C435.1156,885.1563 434.4594,885.5469 433.6625,885.5469 C431.9906,885.5469 430.8344,884.2188 430.8344,881.9375 C430.8344,879.7188 431.9906,878.375 433.5531,878.375 C434.3656,878.375 434.9594,878.6875 435.4906,879.1719 L436.8656,877.625 C436.1156,876.8906 434.9594,876.2188 433.5531,876.2188 C430.6,876.2188 428.2719,878.3594 428.2719,882.0313 C428.2719,885.75 430.6469,887.7031 433.3969,887.7031 Z " fill="#000000"/><text fill="#000000" font-family="sans-serif" font-size="14" lengthAdjust="spacing" textLength="83" x="451.65" y="886.2852">StepFunction</text><line style="stroke:#181818;stroke-width:0.5;" x1="400" x2="556" y1="897.5" y2="897.5"/><text fill="#000000" font-family="sans-serif" font-size="14" lengthAdjust="spacing" textLength="146" x="405" y="914.4883">positions : numpy.array</text><line style="stroke:#181818;stroke-width:0.5;" x1="400" x2="556" y1="921.9063" y2="921.9063"/><text fill="#000000" font-family="sans-serif" font-size="14" lengthAdjust="spacing" textLength="129" x="405" y="938.8945">calculate_positions()</text></g><!--class IntervalChannel--><g id="elem_IntervalChannel"><rect codeLine="83" fill="#F1F1F1" height="80.8125" id="IntervalChannel" rx="2.5" ry="2.5" style="stroke:#181818;stroke-width:0.5;" width="143" x="196.5" y="865.5"/><ellipse cx="217.35" cy="881.5" fill="#ADD1B2" rx="11" ry="11" style="stroke:#181818;stroke-width:1.0;"/><path d="M217.3969,887.7031 C218.8969,887.7031 220.1313,887.1406 221.0375,886.0781 L219.6625,884.5625 C219.1156,885.1563 218.4594,885.5469 217.6625,885.5469 C215.9906,885.5469 214.8344,884.2188 214.8344,881.9375 C214.8344,879.7188 215.9906,878.375 217.5531,878.375 C218.3656,878.375 218.9594,878.6875 219.4906,879.1719 L220.8656,877.625 C220.1156,876.8906 218.9594,876.2188 217.5531,876.2188 C214.6,876.2188 212.2719,878.3594 212.2719,882.0313 C212.2719,885.75 214.6469,887.7031 217.3969,887.7031 Z " fill="#000000"/><text fill="#000000" font-family="sans-serif" font-size="14" lengthAdjust="spacing" textLength="98" x="232.65" y="886.2852">IntervalChannel</text><line style="stroke:#181818;stroke-width:0.5;" x1="197.5" x2="338.5" y1="897.5" y2="897.5"/><text fill="#000000" font-family="sans-serif" font-size="14" lengthAdjust="spacing" textLength="131" x="202.5" y="914.4883">trigger_interval : float</text><text fill="#000000" font-family="sans-serif" font-size="14" lengthAdjust="spacing" textLength="117" x="202.5" y="930.8945">stopped_by : string</text><line style="stroke:#181818;stroke-width:0.5;" x1="197.5" x2="338.5" y1="938.3125" y2="938.3125"/></g><!--class AverageChannel--><g id="elem_AverageChannel"><rect codeLine="88" fill="#F1F1F1" height="113.625" id="AverageChannel" rx="2.5" ry="2.5" style="stroke:#181818;stroke-width:0.5;" width="154" x="7" y="849"/><ellipse cx="31" cy="865" fill="#ADD1B2" rx="11" ry="11" style="stroke:#181818;stroke-width:1.0;"/><path d="M31.0469,871.2031 C32.5469,871.2031 33.7813,870.6406 34.6875,869.5781 L33.3125,868.0625 C32.7656,868.6563 32.1094,869.0469 31.3125,869.0469 C29.6406,869.0469 28.4844,867.7188 28.4844,865.4375 C28.4844,863.2188 29.6406,861.875 31.2031,861.875 C32.0156,861.875 32.6094,862.1875 33.1406,862.6719 L34.5156,861.125 C33.7656,860.3906 32.6094,859.7188 31.2031,859.7188 C28.25,859.7188 25.9219,861.8594 25.9219,865.5313 C25.9219,869.25 28.2969,871.2031 31.0469,871.2031 Z " fill="#000000"/><text fill="#000000" font-family="sans-serif" font-size="14" lengthAdjust="spacing" textLength="102" x="47" y="869.7852">AverageChannel</text><line style="stroke:#181818;stroke-width:0.5;" x1="8" x2="160" y1="881" y2="881"/><text fill="#000000" font-family="sans-serif" font-size="14" lengthAdjust="spacing" textLength="123" x="13" y="897.9883">n_averages : integer</text><text fill="#000000" font-family="sans-serif" font-size="14" lengthAdjust="spacing" textLength="92" x="13" y="914.3945">low_limit : float</text><text fill="#000000" font-family="sans-serif" font-size="14" lengthAdjust="spacing" textLength="142" x="13" y="930.8008">max_attempts : integer</text><text fill="#000000" font-family="sans-serif" font-size="14" lengthAdjust="spacing" textLength="128" x="13" y="947.207">max_deviation : float</text><line style="stroke:#181818;stroke-width:0.5;" x1="8" x2="160" y1="954.625" y2="954.625"/></g><!--class StepFile--><g id="elem_StepFile"><rect codeLine="121" fill="#F1F1F1" height="64.4063" id="StepFile" rx="2.5" ry="2.5" style="stroke:#181818;stroke-width:0.5;" width="110" x="68" y="1056"/><ellipse cx="96.05" cy="1072" fill="#ADD1B2" rx="11" ry="11" style="stroke:#181818;stroke-width:1.0;"/><path d="M96.0969,1078.2031 C97.5969,1078.2031 98.8313,1077.6406 99.7375,1076.5781 L98.3625,1075.0625 C97.8156,1075.6563 97.1594,1076.0469 96.3625,1076.0469 C94.6906,1076.0469 93.5344,1074.7188 93.5344,1072.4375 C93.5344,1070.2188 94.6906,1068.875 96.2531,1068.875 C97.0656,1068.875 97.6594,1069.1875 98.1906,1069.6719 L99.5656,1068.125 C98.8156,1067.3906 97.6594,1066.7188 96.2531,1066.7188 C93.3,1066.7188 90.9719,1068.8594 90.9719,1072.5313 C90.9719,1076.25 93.3469,1078.2031 96.0969,1078.2031 Z " fill="#000000"/><text fill="#000000" font-family="sans-serif" font-size="14" lengthAdjust="spacing" textLength="49" x="112.95" y="1076.7852">StepFile</text><line style="stroke:#181818;stroke-width:0.5;" x1="69" x2="177" y1="1088" y2="1088"/><text fill="#000000" font-family="sans-serif" font-size="14" lengthAdjust="spacing" textLength="98" x="74" y="1104.9883">filename : string</text><line style="stroke:#181818;stroke-width:0.5;" x1="69" x2="177" y1="1112.4063" y2="1112.4063"/></g><!--class StepRange--><g id="elem_StepRange"><rect codeLine="125" fill="#F1F1F1" height="130.0313" id="StepRange" rx="2.5" ry="2.5" style="stroke:#181818;stroke-width:0.5;" width="149" x="213.5" y="1023"/><ellipse cx="250.55" cy="1039" fill="#ADD1B2" rx="11" ry="11" style="stroke:#181818;stroke-width:1.0;"/><path d="M250.5969,1045.2031 C252.0969,1045.2031 253.3313,1044.6406 254.2375,1043.5781 L252.8625,1042.0625 C252.3156,1042.6563 251.6594,1043.0469 250.8625,1043.0469 C249.1906,1043.0469 248.0344,1041.7188 248.0344,1039.4375 C248.0344,1037.2188 249.1906,1035.875 250.7531,1035.875 C251.5656,1035.875 252.1594,1036.1875 252.6906,1036.6719 L254.0656,1035.125 C253.3156,1034.3906 252.1594,1033.7188 250.7531,1033.7188 C247.8,1033.7188 245.4719,1035.8594 245.4719,1039.5313 C245.4719,1043.25 247.8469,1045.2031 250.5969,1045.2031 Z " fill="#000000"/><text fill="#000000" font-family="sans-serif" font-size="14" lengthAdjust="spacing" textLength="68" x="269.45" y="1043.7852">StepRange</text><line style="stroke:#181818;stroke-width:0.5;" x1="214.5" x2="361.5" y1="1055" y2="1055"/><text fill="#000000" font-family="sans-serif" font-size="14" lengthAdjust="spacing" textLength="136" x="219.5" y="1071.9883">mode : "add"|"multiply"</text><text fill="#000000" font-family="sans-serif" font-size="14" lengthAdjust="spacing" textLength="68" x="219.5" y="1088.3945">start : float</text><text fill="#000000" font-family="sans-serif" font-size="14" lengthAdjust="spacing" textLength="66" x="219.5" y="1104.8008">stop : float</text><text fill="#000000" font-family="sans-serif" font-size="14" lengthAdjust="spacing" textLength="106" x="219.5" y="1121.207">step_width : float</text><text fill="#000000" font-family="sans-serif" font-size="14" lengthAdjust="spacing" textLength="137" x="219.5" y="1137.6133">is_main_axis : boolean</text><line style="stroke:#181818;stroke-width:0.5;" x1="214.5" x2="361.5" y1="1145.0313" y2="1145.0313"/></g><!--class StepRanges--><g id="elem_StepRanges"><rect codeLine="133" fill="#F1F1F1" height="97.2188" id="StepRanges" rx="2.5" ry="2.5" style="stroke:#181818;stroke-width:0.5;" width="161" x="397.5" y="1039.5"/><ellipse cx="436.8" cy="1055.5" fill="#ADD1B2" rx="11" ry="11" style="stroke:#181818;stroke-width:1.0;"/><path d="M436.8469,1061.7031 C438.3469,1061.7031 439.5813,1061.1406 440.4875,1060.0781 L439.1125,1058.5625 C438.5656,1059.1563 437.9094,1059.5469 437.1125,1059.5469 C435.4406,1059.5469 434.2844,1058.2188 434.2844,1055.9375 C434.2844,1053.7188 435.4406,1052.375 437.0031,1052.375 C437.8156,1052.375 438.4094,1052.6875 438.9406,1053.1719 L440.3156,1051.625 C439.5656,1050.8906 438.4094,1050.2188 437.0031,1050.2188 C434.05,1050.2188 431.7219,1052.3594 431.7219,1056.0313 C431.7219,1059.75 434.0969,1061.7031 436.8469,1061.7031 Z " fill="#000000"/><text fill="#000000" font-family="sans-serif" font-size="14" lengthAdjust="spacing" textLength="75" x="456.2" y="1060.2852">StepRanges</text><line style="stroke:#181818;stroke-width:0.5;" x1="398.5" x2="557.5" y1="1071.5" y2="1071.5"/><text fill="#000000" font-family="sans-serif" font-size="14" lengthAdjust="spacing" textLength="112" x="403.5" y="1088.4883">expression : string</text><text fill="#000000" font-family="sans-serif" font-size="14" lengthAdjust="spacing" textLength="113" x="403.5" y="1104.8945">positionlist : string</text><text fill="#000000" font-family="sans-serif" font-size="14" lengthAdjust="spacing" textLength="149" x="403.5" y="1121.3008">positions :  numpy.array</text><line style="stroke:#181818;stroke-width:0.5;" x1="398.5" x2="557.5" y1="1128.7188" y2="1128.7188"/></g><!--class StepReference--><g id="elem_StepReference"><rect codeLine="139" fill="#F1F1F1" height="97.2188" id="StepReference" rx="2.5" ry="2.5" style="stroke:#181818;stroke-width:0.5;" width="148" x="594" y="1039.5"/><ellipse cx="620.7" cy="1055.5" fill="#ADD1B2" rx="11" ry="11" style="stroke:#181818;stroke-width:1.0;"/><path d="M620.7469,1061.7031 C622.2469,1061.7031 623.4813,1061.1406 624.3875,1060.0781 L623.0125,1058.5625 C622.4656,1059.1563 621.8094,1059.5469 621.0125,1059.5469 C619.3406,1059.5469 618.1844,1058.2188 618.1844,1055.9375 C618.1844,1053.7188 619.3406,1052.375 620.9031,1052.375 C621.7156,1052.375 622.3094,1052.6875 622.8406,1053.1719 L624.2156,1051.625 C623.4656,1050.8906 622.3094,1050.2188 620.9031,1050.2188 C617.95,1050.2188 615.6219,1052.3594 615.6219,1056.0313 C615.6219,1059.75 617.9969,1061.7031 620.7469,1061.7031 Z " fill="#000000"/><text fill="#000000" font-family="sans-serif" font-size="14" lengthAdjust="spacing" textLength="90" x="637.3" y="1060.2852">StepReference</text><line style="stroke:#181818;stroke-width:0.5;" x1="595" x2="741" y1="1071.5" y2="1071.5"/><text fill="#000000" font-family="sans-serif" font-size="14" lengthAdjust="spacing" textLength="136" x="600" y="1088.4883">mode : "add"|"multiply"</text><text fill="#000000" font-family="sans-serif" font-size="14" lengthAdjust="spacing" textLength="103" x="600" y="1104.8945">parameter : float</text><text fill="#000000" font-family="sans-serif" font-size="14" lengthAdjust="spacing" textLength="87" x="600" y="1121.3008">axis_id : string</text><line style="stroke:#181818;stroke-width:0.5;" x1="595" x2="741" y1="1128.7188" y2="1128.7188"/></g><!--class StepList--><g id="elem_StepList"><rect codeLine="145" fill="#F1F1F1" height="64.4063" id="StepList" rx="2.5" ry="2.5" style="stroke:#181818;stroke-width:0.5;" width="125" x="777.5" y="1056"/><ellipse cx="811.4" cy="1072" fill="#ADD1B2" rx="11" ry="11" style="stroke:#181818;stroke-width:1.0;"/><path d="M811.4469,1078.2031 C812.9469,1078.2031 814.1813,1077.6406 815.0875,1076.5781 L813.7125,1075.0625 C813.1656,1075.6563 812.5094,1076.0469 811.7125,1076.0469 C810.0406,1076.0469 808.8844,1074.7188 808.8844,1072.4375 C808.8844,1070.2188 810.0406,1068.875 811.6031,1068.875 C812.4156,1068.875 813.0094,1069.1875 813.5406,1069.6719 L814.9156,1068.125 C814.1656,1067.3906 813.0094,1066.7188 811.6031,1066.7188 C808.65,1066.7188 806.3219,1068.8594 806.3219,1072.5313 C806.3219,1076.25 808.6969,1078.2031 811.4469,1078.2031 Z " fill="#000000"/><text fill="#000000" font-family="sans-serif" font-size="14" lengthAdjust="spacing" textLength="51" x="829.6" y="1076.7852">StepList</text><line style="stroke:#181818;stroke-width:0.5;" x1="778.5" x2="901.5" y1="1088" y2="1088"/><text fill="#000000" font-family="sans-serif" font-size="14" lengthAdjust="spacing" textLength="113" x="783.5" y="1104.9883">positionlist : string</text><line style="stroke:#181818;stroke-width:0.5;" x1="778.5" x2="901.5" y1="1112.4063" y2="1112.4063"/></g><!--reverse link Scan to AbstractScanModule--><g id="link_Scan_AbstractScanModule"><path codeLine="9" d="M478,133.24 C478,151.48 478,160.28 478,180.62 " fill="none" id="Scan-backto-AbstractScanModule" style="stroke:#181818;stroke-width:1.0;"/><polygon fill="#181818" points="478,121.24,474,127.24,478,133.24,482,127.24,478,121.24" style="stroke:#181818;stroke-width:1.0;"/><text fill="#000000" font-family="sans-serif" font-size="13" lengthAdjust="spacing" textLength="7" x="470.743" y="169.9262">n</text></g><!--reverse link File to Scan--><g id="link_File_Scan"><path codeLine="15" d="M329.66,64 C341.25,64 340.84,64 352.42,64 " fill="none" id="File-backto-Scan" style="stroke:#181818;stroke-width:1.0;"/><polygon fill="#181818" points="317.66,64,323.66,68,329.66,64,323.66,60,317.66,64" style="stroke:#181818;stroke-width:1.0;"/></g><!--reverse link AbstractScanModule to ScanModule--><g id="link_AbstractScanModule_ScanModule"><path d="M621.1718,376.9963 C655.2518,400.0863 676.78,414.68 709.56,436.88 " fill="none" id="AbstractScanModule-backto-ScanModule" style="stroke:#181818;stroke-width:1.0;"/><polygon fill="none" points="606.27,366.9,617.8064,381.9636,624.5373,372.0291,606.27,366.9" style="stroke:#181818;stroke-width:1.0;"/></g><!--reverse link ScanModule to Event--><g id="link_ScanModule_Event"><path codeLine="39" d="M942.9115,526.0181 C1046.5815,541.9081 1188.33,573.83 1305,643 C1325.85,655.36 1344.53,675.74 1357.18,691.66 " fill="none" id="ScanModule-backto-Event" style="stroke:#181818;stroke-width:1.0;"/><polygon fill="#181818" points="931.05,524.2,936.3747,529.0629,942.9115,526.0181,937.5868,521.1552,931.05,524.2" style="stroke:#181818;stroke-width:1.0;"/><text fill="#000000" font-family="sans-serif" font-size="13" lengthAdjust="spacing" textLength="7" x="1345.227" y="680.9881">n</text></g><!--reverse link ScanModule to Axis--><g id="link_ScanModule_Axis"><path codeLine="40" d="M690.3466,586.8315 C648.0866,612.3415 611.1,634.67 571.04,658.85 " fill="none" id="ScanModule-backto-Axis" style="stroke:#181818;stroke-width:1.0;"/><polygon fill="#181818" points="700.62,580.63,693.4162,580.3063,690.3466,586.8315,697.5505,587.1552,700.62,580.63" style="stroke:#181818;stroke-width:1.0;"/><text fill="#000000" font-family="sans-serif" font-size="13" lengthAdjust="spacing" textLength="7" x="575.5123" y="647.6663">n</text></g><!--reverse link ScanModule to Channel--><g id="link_ScanModule_Channel"><path codeLine="41" d="M689.4276,551.2316 C651.6676,562.9316 620.88,572.1 582,583 C477.37,612.32 443.71,597.58 345,643 C330.63,649.62 316.16,658.31 302.81,667.37 " fill="none" id="ScanModule-backto-Channel" style="stroke:#181818;stroke-width:1.0;"/><polygon fill="#181818" points="700.89,547.68,693.9749,545.635,689.4276,551.2316,696.3427,553.2766,700.89,547.68" style="stroke:#181818;stroke-width:1.0;"/><text fill="#000000" font-family="sans-serif" font-size="13" lengthAdjust="spacing" textLength="7" x="312.1087" y="656.1876">n</text></g><!--reverse link ScanModule to Positioning--><g id="link_ScanModule_Positioning"><path codeLine="42" d="M778.1025,594.129 C769.2725,613.499 764.7,623.52 755.87,642.89 " fill="none" id="ScanModule-backto-Positioning" style="stroke:#181818;stroke-width:1.0;"/><polygon fill="#181818" points="783.08,583.21,776.9516,587.0103,778.1025,594.129,784.2309,590.3287,783.08,583.21" style="stroke:#181818;stroke-width:1.0;"/><text fill="#000000" font-family="sans-serif" font-size="13" lengthAdjust="spacing" textLength="7" x="751.8988" y="631.6272">n</text></g><!--reverse link ScanModule to PreScan--><g id="link_ScanModule_PreScan"><path codeLine="43" d="M854.2916,594.1088 C868.5516,625.0588 879.64,649.11 891.68,675.25 " fill="none" id="ScanModule-backto-PreScan" style="stroke:#181818;stroke-width:1.0;"/><polygon fill="#181818" points="849.27,583.21,848.1478,590.3333,854.2916,594.1088,855.4137,586.9856,849.27,583.21" style="stroke:#181818;stroke-width:1.0;"/><text fill="#000000" font-family="sans-serif" font-size="13" lengthAdjust="spacing" textLength="7" x="881.0661" y="664.3541">n</text></g><!--reverse link ScanModule to PostScan--><g id="link_ScanModule_PostScan"><path codeLine="44" d="M925.9044,590.2273 C964.7044,618.1973 998.31,642.42 1033.05,667.46 " fill="none" id="ScanModule-backto-PostScan" style="stroke:#181818;stroke-width:1.0;"/><polygon fill="#181818" points="916.17,583.21,918.6981,589.9634,925.9044,590.2273,923.3763,583.4738,916.17,583.21" style="stroke:#181818;stroke-width:1.0;"/><text fill="#000000" font-family="sans-serif" font-size="13" lengthAdjust="spacing" textLength="7" x="1015.8495" y="656.2908">n</text></g><!--reverse link ScanModule to Plot--><g id="link_ScanModule_Plot"><path codeLine="45" d="M943.1787,530.4544 C1028.1387,547.7544 1130.91,579.07 1213,643 C1229.38,655.76 1241.61,676.1 1249.32,691.91 " fill="none" id="ScanModule-backto-Plot" style="stroke:#181818;stroke-width:1.0;"/><polygon fill="#181818" points="931.42,528.06,936.5012,533.1768,943.1787,530.4544,938.0975,525.3376,931.42,528.06" style="stroke:#181818;stroke-width:1.0;"/><text fill="#000000" font-family="sans-serif" font-size="13" lengthAdjust="spacing" textLength="7" x="1238.9426" y="680.9056">n</text></g><!--reverse link AbstractScanModule to DynamicSnapshotModule--><g id="link_AbstractScanModule_DynamicSnapshotModule"><path d="M373.139,390.1571 C335.079,430.1371 306.67,459.98 282.24,485.64 " fill="none" id="AbstractScanModule-backto-DynamicSnapshotModule" style="stroke:#181818;stroke-width:1.0;"/><polygon fill="none" points="385.55,377.12,368.7933,386.0201,377.4847,394.2941,385.55,377.12" style="stroke:#181818;stroke-width:1.0;"/></g><!--reverse link AbstractScanModule to StaticSnapshotModule--><g id="link_AbstractScanModule_StaticSnapshotModule"><path d="M478,395.12 C478,427.54 478,443.87 478,469.38 " fill="none" id="AbstractScanModule-backto-StaticSnapshotModule" style="stroke:#181818;stroke-width:1.0;"/><polygon fill="none" points="478,377.12,472,395.12,484,395.12,478,377.12" style="stroke:#181818;stroke-width:1.0;"/></g><!--reverse link StaticSnapshotModule to Axis--><g id="link_StaticSnapshotModule_Axis"><path codeLine="57" d="M478,562.82 C478,593.54 478,624.45 478,658.69 " fill="none" id="StaticSnapshotModule-backto-Axis" style="stroke:#181818;stroke-width:1.0;"/><polygon fill="#181818" points="478,550.82,474,556.82,478,562.82,482,556.82,478,550.82" style="stroke:#181818;stroke-width:1.0;"/><text fill="#000000" font-family="sans-serif" font-size="13" lengthAdjust="spacing" textLength="7" x="470.5734" y="647.889">n</text></g><!--reverse link StaticSnapshotModule to Channel--><g id="link_StaticSnapshotModule_Channel"><path codeLine="58" d="M423.3482,558.4466 C384.9082,591.8166 338.84,631.8 297.97,667.28 " fill="none" id="StaticSnapshotModule-backto-Channel" style="stroke:#181818;stroke-width:1.0;"/><polygon fill="#181818" points="432.41,550.58,425.2569,551.4927,423.3482,558.4466,430.5013,557.5339,432.41,550.58" style="stroke:#181818;stroke-width:1.0;"/><text fill="#000000" font-family="sans-serif" font-size="13" lengthAdjust="spacing" textLength="7" x="298.208" y="656.4357">n</text></g><!--link Channel to Axis--><!--link DynamicSnapshotModule to StaticSnapshotModule--><!--reverse link Axis to StepFunction--><g id="link_Axis_StepFunction"><path codeLine="73" d="M478,785.15 C478,814.8 478,838.47 478,865.24 " fill="none" id="Axis-backto-StepFunction" style="stroke:#181818;stroke-width:1.0;"/><polygon fill="#181818" points="478,773.15,474,779.15,478,785.15,482,779.15,478,773.15" style="stroke:#181818;stroke-width:1.0;"/></g><!--reverse link Channel to IntervalChannel--><g id="link_Channel_IntervalChannel"><path d="M251.7444,782.7727 C255.8844,813.8827 258.84,836.1 262.73,865.4 " fill="none" id="Channel-backto-IntervalChannel" style="stroke:#181818;stroke-width:1.0;"/><polygon fill="none" points="249.37,764.93,245.7969,783.5642,257.692,781.9812,249.37,764.93" style="stroke:#181818;stroke-width:1.0;"/></g><!--reverse link Channel to AverageChannel--><g id="link_Channel_AverageChannel"><path d="M190.8423,778.6703 C169.2123,804.2303 154.11,822.1 131.52,848.81 " fill="none" id="Channel-backto-AverageChannel" style="stroke:#181818;stroke-width:1.0;"/><polygon fill="none" points="202.47,764.93,186.2622,774.7944,195.4224,782.5462,202.47,764.93" style="stroke:#181818;stroke-width:1.0;"/></g><!--reverse link StepFunction to StepFile--><g id="link_StepFunction_StepFile"><path d="M382.5922,952.0758 C368.6822,958.3958 370.67,957.3 357,963 C286.52,992.39 261.57,983.85 196,1023 C180.81,1032.07 165.79,1044.47 153.37,1055.94 " fill="none" id="StepFunction-backto-StepFile" style="stroke:#181818;stroke-width:1.0;"/><polygon fill="none" points="398.98,944.63,380.1103,946.6132,385.0741,957.5384,398.98,944.63" style="stroke:#181818;stroke-width:1.0;"/></g><!--reverse link StepFunction to StepRange--><g id="link_StepFunction_StepRange"><path d="M423.2361,958.8828 C399.6461,981.2428 382.63,997.35 355.73,1022.83 " fill="none" id="StepFunction-backto-StepRange" style="stroke:#181818;stroke-width:1.0;"/><polygon fill="none" points="436.3,946.5,419.1085,954.5281,427.3636,963.2374,436.3,946.5" style="stroke:#181818;stroke-width:1.0;"/></g><!--reverse link StepFunction to StepRanges--><g id="link_StepFunction_StepRanges"><path d="M478,964.5 C478,991.82 478,1010.32 478,1039.27 " fill="none" id="StepFunction-backto-StepRanges" style="stroke:#181818;stroke-width:1.0;"/><polygon fill="none" points="478,946.5,472,964.5,484,964.5,478,946.5" style="stroke:#181818;stroke-width:1.0;"/></g><!--reverse link StepFunction to StepReference--><g id="link_StepFunction_StepReference"><path d="M532.7676,958.8789 C561.6076,986.1989 587.06,1010.32 617.62,1039.27 " fill="none" id="StepFunction-backto-StepReference" style="stroke:#181818;stroke-width:1.0;"/><polygon fill="none" points="519.7,946.5,528.6413,963.2348,536.8939,954.523,519.7,946.5" style="stroke:#181818;stroke-width:1.0;"/></g><!--reverse link StepFunction to StepList--><g id="link_StepFunction_StepList"><path d="M574.0302,939.0094 C631.9202,959.5894 694.34,985.11 759,1023 C774.93,1032.33 791.15,1044.52 804.85,1055.75 " fill="none" id="StepFunction-backto-StepList" style="stroke:#181818;stroke-width:1.0;"/><polygon fill="none" points="557.07,932.98,572.0204,944.6627,576.0399,933.356,557.07,932.98" style="stroke:#181818;stroke-width:1.0;"/></g><!--SRC=[dLPBZzCm4BxdLqIz591szxu79CH3GW9fnHu1MTDasbfoRCkUb9Pb_pjZnqdZ92sFNfhCVFFqD-EizqJMtz_TMGMQsaRTLgQvgnHuVrDBs3beYYA-beyLwFAfAFddq2AGg4ohgRmlfIRSeOkg6dtbf2LfD6iyEQbtKS5-6upmaT2pJz6OkbNeMVDcmpgeA8Jw7ALFpyLp4IE_khafLtgrW2dM6U01MezlZQvbI6AYV7_W78fYhGrXkJ54fYdDTc9pNpuYbXujE23yfZ4ObLsQjqNnGIfaXx4XHNIaS4l1JT1CZRS1FTXshPpNa1ehwqaxDJIOjupzugphO2tg6cVMw6acb5uCyeqn2hcA26wR3JfXji8Q7_lWf-xc265PO4DDERG7T1m9MZQsfrjm3avyf2DEfGRWaRY4AxqvHsyGVEimq6aQ5uuTaOxICtKYx_QWDQeWVTiz9eLrA2B_F19nTmFYmM68soECfpc4XJac5dhMzgzVlqV0sYeJqtpWVvPrT4wLvRHSK8H2bkIfb2NLA8L5TLVY1KkwgEFiYs8wDYoSyZsKE_1zWezb_c6wEcAyEp7pPVMemVgzeJzoP20K0Vs3MQBMNxA6QRleFp-iQuZ-s8hqKDvytSkwHltzTMTTB1S-WYtvlrhzqtdSGeZnfXblOa8hjgskqkP-vFSFwJMVQ3wfi99MiF56jOIhNok7YWCVS9KXvrCVuuTUPDvJSdrBblFJnZMWv4yKKytQOMr4P56863cMPg_6BJfM2qRlU4MCDjvpiUu3Jkw6BfkFl5JS0LGFwZcKPvdy2fdG762h351ggU6rN8lDwPpm-IWEw627rzrh0HrikkQK-I6KR2Hb0Hiu2Y32nixsOb3LU92GZhSp6h8PxOnX9FYUcBOwJOMuV3YN47IoytkCxpPkMqYrbXLbt1cbpoSrJY-S5j_Kv8nIhEqBwBRQ1VBmoRGXVCWYFcULqpzPTjy_V248muSlDIZHWyxS6kRnJFCKuD9mnFQ2gbgU93pVhozUJhp9qJvRS1- -Dl9lXipy2-ZTLVjXkEkQvxff5KchJgl4Pt0qO_X4m5laXwnfducPIWr8PdEO_mjzYgdvQxdXaQzixsTVbdspbFIqh0b1Bto0XCXXIw2k_hin0vMpecSJb0Nz59Az4c-vgEVV]--></g></svg>