<?xml version="1.0" encoding="us-ascii" standalone="no"?><svg xmlns="http://www.w3.org/2000/svg" xmlns:xlink="http://www.w3.org/1999/xlink" contentStyleType="text/css" height="580.8px" preserveAspectRatio="none" style="width:748px;height:580px;background:#FFFFFF;" version="1.1" viewBox="0 0 748 580" width="748px" zoomAndPan="magnify"><defs/><g><!--class Data--><g id="elem_Data"><rect codeLine="3" fill="#F1F1F1" height="64.65" id="Data" rx="2" ry="2" style="stroke:#181818;stroke-width:0.4000000000000001;" width="114.4" x="382.8" y="29.2"/><ellipse cx="424.6" cy="42" fill="#ADD1B2" rx="8.8" ry="8.8" style="stroke:#181818;stroke-width:0.8000000000000002;"/><path d="M424.6375,46.9625 C425.8375,46.9625 426.825,46.5125 427.55,45.6625 L426.45,44.45 C426.0125,44.925 425.4875,45.2375 424.85,45.2375 C423.5125,45.2375 422.5875,44.175 422.5875,42.35 C422.5875,40.575 423.5125,39.5 424.7625,39.5 C425.4125,39.5 425.8875,39.75 426.3125,40.1375 L427.4125,38.9 C426.8125,38.3125 425.8875,37.775 424.7625,37.775 C422.4,37.775 420.5375,39.4875 420.5375,42.425 C420.5375,45.4 422.4375,46.9625 424.6375,46.9625 Z " fill="#000000"/><text fill="#000000" font-family="sans-serif" font-size="11.2" lengthAdjust="spacing" textLength="24" x="441" y="45.8281">Data</text><line style="stroke:#181818;stroke-width:0.4000000000000001;" x1="383.6" x2="496.4" y1="54.8" y2="54.8"/><text fill="#000000" font-family="sans-serif" font-size="11.2" lengthAdjust="spacing" textLength="104.8" x="387.6" y="68.3906">metadata : Metadata</text><text fill="#000000" font-family="sans-serif" font-size="11.2" lengthAdjust="spacing" textLength="85.6" x="387.6" y="81.5156">data : np.ndarray</text><line style="stroke:#181818;stroke-width:0.4000000000000001;" x1="383.6" x2="496.4" y1="87.45" y2="87.45"/></g><path d="M107.6,4.8 L107.6,110.3 A0,0 0 0 0 107.6,110.3 L354.8,110.3 A0,0 0 0 0 354.8,110.3 L354.8,60.75 L386,77.6875 L354.8,54.35 L354.8,12.8 L346.8,4.8 L107.6,4.8 A0,0 0 0 0 107.6,4.8 " fill="#FEFFDD" style="stroke:#181818;stroke-width:0.4000000000000001;"/><path d="M346.8,4.8 L346.8,12.8 L354.8,12.8 L346.8,4.8 " fill="#FEFFDD" style="stroke:#181818;stroke-width:0.4000000000000001;"/><text fill="#000000" font-family="sans-serif" font-size="10.4" lengthAdjust="spacing" textLength="152.8" x="112.4" y="18.4484">"data" usually contains a 1D array.</text><text fill="#000000" font-family="sans-serif" font-size="10.4" lengthAdjust="spacing" textLength="2.4" x="112.4" y="30.6359">&#160;</text><text fill="#000000" font-family="sans-serif" font-size="10.4" lengthAdjust="spacing" textLength="224" x="112.4" y="42.8234">For individual detector values see derived classes</text><text fill="#000000" font-family="sans-serif" font-size="10.4" lengthAdjust="spacing" textLength="216" x="112.4" y="55.0109">AverageDetectorData and IntervalDetectorData.</text><text fill="#000000" font-family="sans-serif" font-size="10.4" lengthAdjust="spacing" textLength="2.4" x="112.4" y="67.1984">&#160;</text><text fill="#000000" font-family="sans-serif" font-size="10.4" lengthAdjust="spacing" textLength="230.4" x="112.4" y="79.3859">ArrayDetectorData and ExternalData are somewhat</text><text fill="#000000" font-family="sans-serif" font-size="10.4" lengthAdjust="spacing" textLength="216.8" x="112.4" y="91.5734">special as they contain either 2D data or a list of</text><text fill="#000000" font-family="sans-serif" font-size="10.4" lengthAdjust="spacing" textLength="192" x="112.4" y="103.7609">data objects (in case of images and alike).</text><!--class Metadata--><g id="elem_Metadata"><rect codeLine="18" fill="#F1F1F1" height="38.4" id="Metadata" rx="2" ry="2" style="stroke:#181818;stroke-width:0.4000000000000001;" width="74.4" x="210.8" y="172.8"/><ellipse cx="222.8" cy="185.6" fill="#ADD1B2" rx="8.8" ry="8.8" style="stroke:#181818;stroke-width:0.8000000000000002;"/><path d="M222.8375,190.5625 C224.0375,190.5625 225.025,190.1125 225.75,189.2625 L224.65,188.05 C224.2125,188.525 223.6875,188.8375 223.05,188.8375 C221.7125,188.8375 220.7875,187.775 220.7875,185.95 C220.7875,184.175 221.7125,183.1 222.9625,183.1 C223.6125,183.1 224.0875,183.35 224.5125,183.7375 L225.6125,182.5 C225.0125,181.9125 224.0875,181.375 222.9625,181.375 C220.6,181.375 218.7375,183.0875 218.7375,186.025 C218.7375,189 220.6375,190.5625 222.8375,190.5625 Z " fill="#000000"/><text fill="#000000" font-family="sans-serif" font-size="11.2" lengthAdjust="spacing" textLength="48.8" x="234" y="189.4281">Metadata</text><line style="stroke:#181818;stroke-width:0.4000000000000001;" x1="211.6" x2="284.4" y1="198.4" y2="198.4"/><line style="stroke:#181818;stroke-width:0.4000000000000001;" x1="211.6" x2="284.4" y1="204.8" y2="204.8"/></g><g id="elem_GMN6"><path d="M158.8,275.2 L158.8,307.575 A0,0 0 0 0 158.8,307.575 L257.2,307.575 A0,0 0 0 0 257.2,307.575 L257.2,283.2 L249.2,275.2 L217.472,275.2 L240.384,211.384 L211.072,275.2 L158.8,275.2 A0,0 0 0 0 158.8,275.2 " fill="#FEFFDD" style="stroke:#181818;stroke-width:0.4000000000000001;"/><path d="M249.2,275.2 L249.2,283.2 L257.2,283.2 L249.2,275.2 " fill="#FEFFDD" style="stroke:#181818;stroke-width:0.4000000000000001;"/><text fill="#000000" font-family="sans-serif" font-size="10.4" lengthAdjust="spacing" textLength="72" x="163.6" y="288.8484">See diagram for</text><text fill="#000000" font-family="sans-serif" font-size="10.4" lengthAdjust="spacing" textLength="81.6" x="163.6" y="301.0359">metadata module.</text></g><!--class MeasureData--><g id="elem_MeasureData"><rect codeLine="22" fill="#F1F1F1" height="51.525" id="MeasureData" rx="2" ry="2" style="stroke:#181818;stroke-width:0.4000000000000001;" width="172.8" x="353.6" y="166.4"/><ellipse cx="403" cy="179.2" fill="#ADD1B2" rx="8.8" ry="8.8" style="stroke:#181818;stroke-width:0.8000000000000002;"/><path d="M403.0375,184.1625 C404.2375,184.1625 405.225,183.7125 405.95,182.8625 L404.85,181.65 C404.4125,182.125 403.8875,182.4375 403.25,182.4375 C401.9125,182.4375 400.9875,181.375 400.9875,179.55 C400.9875,177.775 401.9125,176.7 403.1625,176.7 C403.8125,176.7 404.2875,176.95 404.7125,177.3375 L405.8125,176.1 C405.2125,175.5125 404.2875,174.975 403.1625,174.975 C400.8,174.975 398.9375,176.6875 398.9375,179.625 C398.9375,182.6 400.8375,184.1625 403.0375,184.1625 Z " fill="#000000"/><text fill="#000000" font-family="sans-serif" font-size="11.2" lengthAdjust="spacing" textLength="67.2" x="419.4" y="183.0281">MeasureData</text><line style="stroke:#181818;stroke-width:0.4000000000000001;" x1="354.4" x2="525.6" y1="192" y2="192"/><text fill="#000000" font-family="sans-serif" font-size="11.2" lengthAdjust="spacing" textLength="163.2" x="358.4" y="205.5906">positions : np.ndarray(dtype=int)</text><line style="stroke:#181818;stroke-width:0.4000000000000001;" x1="354.4" x2="525.6" y1="211.525" y2="211.525"/></g><!--class MonitorData--><g id="elem_MonitorData"><rect codeLine="26" fill="#F1F1F1" height="51.525" id="MonitorData" rx="2" ry="2" style="stroke:#181818;stroke-width:0.4000000000000001;" width="188" x="554.8" y="166.4"/><ellipse cx="613.8" cy="179.2" fill="#ADD1B2" rx="8.8" ry="8.8" style="stroke:#181818;stroke-width:0.8000000000000002;"/><path d="M613.8375,184.1625 C615.0375,184.1625 616.025,183.7125 616.75,182.8625 L615.65,181.65 C615.2125,182.125 614.6875,182.4375 614.05,182.4375 C612.7125,182.4375 611.7875,181.375 611.7875,179.55 C611.7875,177.775 612.7125,176.7 613.9625,176.7 C614.6125,176.7 615.0875,176.95 615.5125,177.3375 L616.6125,176.1 C616.0125,175.5125 615.0875,174.975 613.9625,174.975 C611.6,174.975 609.7375,176.6875 609.7375,179.625 C609.7375,182.6 611.6375,184.1625 613.8375,184.1625 Z " fill="#000000"/><text fill="#000000" font-family="sans-serif" font-size="11.2" lengthAdjust="spacing" textLength="63.2" x="630.2" y="183.0281">MonitorData</text><line style="stroke:#181818;stroke-width:0.4000000000000001;" x1="555.6" x2="742" y1="192" y2="192"/><text fill="#000000" font-family="sans-serif" font-size="11.2" lengthAdjust="spacing" textLength="178.4" x="559.6" y="205.5906">milliseconds : np.ndarray(dtype=int)</text><line style="stroke:#181818;stroke-width:0.4000000000000001;" x1="555.6" x2="742" y1="211.525" y2="211.525"/></g><!--class MotorData--><g id="elem_MotorData"><rect codeLine="30" fill="#F1F1F1" height="38.4" id="MotorData" rx="2" ry="2" style="stroke:#181818;stroke-width:0.4000000000000001;" width="80" x="285.6" y="272"/><ellipse cx="297.6" cy="284.8" fill="#ADD1B2" rx="8.8" ry="8.8" style="stroke:#181818;stroke-width:0.8000000000000002;"/><path d="M297.6375,289.7625 C298.8375,289.7625 299.825,289.3125 300.55,288.4625 L299.45,287.25 C299.0125,287.725 298.4875,288.0375 297.85,288.0375 C296.5125,288.0375 295.5875,286.975 295.5875,285.15 C295.5875,283.375 296.5125,282.3 297.7625,282.3 C298.4125,282.3 298.8875,282.55 299.3125,282.9375 L300.4125,281.7 C299.8125,281.1125 298.8875,280.575 297.7625,280.575 C295.4,280.575 293.5375,282.2875 293.5375,285.225 C293.5375,288.2 295.4375,289.7625 297.6375,289.7625 Z " fill="#000000"/><text fill="#000000" font-family="sans-serif" font-size="11.2" lengthAdjust="spacing" textLength="54.4" x="308.8" y="288.6281">MotorData</text><line style="stroke:#181818;stroke-width:0.4000000000000001;" x1="286.4" x2="364.8" y1="297.6" y2="297.6"/><line style="stroke:#181818;stroke-width:0.4000000000000001;" x1="286.4" x2="364.8" y1="304" y2="304"/></g><!--class DetectorData--><g id="elem_DetectorData"><rect codeLine="33" fill="#F1F1F1" height="38.4" id="DetectorData" rx="2" ry="2" style="stroke:#181818;stroke-width:0.4000000000000001;" width="92" x="394" y="272"/><ellipse cx="406" cy="284.8" fill="#ADD1B2" rx="8.8" ry="8.8" style="stroke:#181818;stroke-width:0.8000000000000002;"/><path d="M406.0375,289.7625 C407.2375,289.7625 408.225,289.3125 408.95,288.4625 L407.85,287.25 C407.4125,287.725 406.8875,288.0375 406.25,288.0375 C404.9125,288.0375 403.9875,286.975 403.9875,285.15 C403.9875,283.375 404.9125,282.3 406.1625,282.3 C406.8125,282.3 407.2875,282.55 407.7125,282.9375 L408.8125,281.7 C408.2125,281.1125 407.2875,280.575 406.1625,280.575 C403.8,280.575 401.9375,282.2875 401.9375,285.225 C401.9375,288.2 403.8375,289.7625 406.0375,289.7625 Z " fill="#000000"/><text fill="#000000" font-family="sans-serif" font-size="11.2" lengthAdjust="spacing" textLength="66.4" x="417.2" y="288.6281">DetectorData</text><line style="stroke:#181818;stroke-width:0.4000000000000001;" x1="394.8" x2="485.2" y1="297.6" y2="297.6"/><line style="stroke:#181818;stroke-width:0.4000000000000001;" x1="394.8" x2="485.2" y1="304" y2="304"/></g><!--class ExternalData--><g id="elem_ExternalData"><rect codeLine="36" fill="#F1F1F1" height="51.525" id="ExternalData" rx="2" ry="2" style="stroke:#181818;stroke-width:0.4000000000000001;" width="90.4" x="514" y="265.6"/><ellipse cx="526" cy="278.4" fill="#ADD1B2" rx="8.8" ry="8.8" style="stroke:#181818;stroke-width:0.8000000000000002;"/><path d="M526.0375,283.3625 C527.2375,283.3625 528.225,282.9125 528.95,282.0625 L527.85,280.85 C527.4125,281.325 526.8875,281.6375 526.25,281.6375 C524.9125,281.6375 523.9875,280.575 523.9875,278.75 C523.9875,276.975 524.9125,275.9 526.1625,275.9 C526.8125,275.9 527.2875,276.15 527.7125,276.5375 L528.8125,275.3 C528.2125,274.7125 527.2875,274.175 526.1625,274.175 C523.8,274.175 521.9375,275.8875 521.9375,278.825 C521.9375,281.8 523.8375,283.3625 526.0375,283.3625 Z " fill="#000000"/><text fill="#000000" font-family="sans-serif" font-size="11.2" lengthAdjust="spacing" textLength="64.8" x="537.2" y="282.2281">ExternalData</text><line style="stroke:#181818;stroke-width:0.4000000000000001;" x1="514.8" x2="603.6" y1="291.2" y2="291.2"/><text fill="#000000" font-family="sans-serif" font-size="11.2" lengthAdjust="spacing" textLength="67.2" x="518.8" y="304.7906">data : object[]</text><line style="stroke:#181818;stroke-width:0.4000000000000001;" x1="514.8" x2="603.6" y1="310.725" y2="310.725"/></g><!--class TimestampData--><g id="elem_TimestampData"><rect codeLine="40" fill="#F1F1F1" height="38.4" id="TimestampData" rx="2" ry="2" style="stroke:#181818;stroke-width:0.4000000000000001;" width="105.6" x="632.8" y="272"/><ellipse cx="644.8" cy="284.8" fill="#ADD1B2" rx="8.8" ry="8.8" style="stroke:#181818;stroke-width:0.8000000000000002;"/><path d="M644.8375,289.7625 C646.0375,289.7625 647.025,289.3125 647.75,288.4625 L646.65,287.25 C646.2125,287.725 645.6875,288.0375 645.05,288.0375 C643.7125,288.0375 642.7875,286.975 642.7875,285.15 C642.7875,283.375 643.7125,282.3 644.9625,282.3 C645.6125,282.3 646.0875,282.55 646.5125,282.9375 L647.6125,281.7 C647.0125,281.1125 646.0875,280.575 644.9625,280.575 C642.6,280.575 640.7375,282.2875 640.7375,285.225 C640.7375,288.2 642.6375,289.7625 644.8375,289.7625 Z " fill="#000000"/><text fill="#000000" font-family="sans-serif" font-size="11.2" lengthAdjust="spacing" textLength="80" x="656" y="288.6281">TimestampData</text><line style="stroke:#181818;stroke-width:0.4000000000000001;" x1="633.6" x2="737.6" y1="297.6" y2="297.6"/><line style="stroke:#181818;stroke-width:0.4000000000000001;" x1="633.6" x2="737.6" y1="304" y2="304"/></g><!--class AverageDetectorData--><g id="elem_AverageDetectorData"><rect codeLine="43" fill="#F1F1F1" height="130.275" id="AverageDetectorData" rx="2" ry="2" style="stroke:#181818;stroke-width:0.4000000000000001;" width="184" x="63.2" y="364.8"/><ellipse cx="98.24" cy="377.6" fill="#ADD1B2" rx="8.8" ry="8.8" style="stroke:#181818;stroke-width:0.8000000000000002;"/><path d="M98.2775,382.5625 C99.4775,382.5625 100.465,382.1125 101.19,381.2625 L100.09,380.05 C99.6525,380.525 99.1275,380.8375 98.49,380.8375 C97.1525,380.8375 96.2275,379.775 96.2275,377.95 C96.2275,376.175 97.1525,375.1 98.4025,375.1 C99.0525,375.1 99.5275,375.35 99.9525,375.7375 L101.0525,374.5 C100.4525,373.9125 99.5275,373.375 98.4025,373.375 C96.04,373.375 94.1775,375.0875 94.1775,378.025 C94.1775,381 96.0775,382.5625 98.2775,382.5625 Z " fill="#000000"/><text fill="#000000" font-family="sans-serif" font-size="11.2" lengthAdjust="spacing" textLength="107.2" x="114.56" y="381.4281">AverageDetectorData</text><line style="stroke:#181818;stroke-width:0.4000000000000001;" x1="64" x2="246.4" y1="390.4" y2="390.4"/><text fill="#000000" font-family="sans-serif" font-size="11.2" lengthAdjust="spacing" textLength="124.8" x="68" y="403.9906">raw_values : raggedarray</text><text fill="#000000" font-family="sans-serif" font-size="11.2" lengthAdjust="spacing" textLength="163.2" x="68" y="417.1156">attempts : np.ndarray(dtype=int)</text><text fill="#000000" font-family="sans-serif" font-size="11.2" lengthAdjust="spacing" textLength="174.4" x="68" y="430.2406">n_averages : np.ndarray(dtype=int)</text><line style="stroke:#181818;stroke-width:0.4000000000000001;" x1="64" x2="246.4" y1="436.175" y2="436.175"/><text fill="#000000" font-family="sans-serif" font-size="11.2" lengthAdjust="spacing" textLength="36" x="68" y="449.7656">mean()</text><text fill="#000000" font-family="sans-serif" font-size="11.2" lengthAdjust="spacing" textLength="24" x="68" y="462.8906">std()</text><text fill="#000000" font-family="sans-serif" font-size="11.2" lengthAdjust="spacing" textLength="91.2" x="68" y="476.0156">averaged_values()</text><text fill="#000000" font-family="sans-serif" font-size="11.2" lengthAdjust="spacing" textLength="87.2" x="68" y="489.1406">has_raw_values()</text></g><g id="elem_GMN17"><path d="M4.8,543.2 L4.8,575.575 A0,0 0 0 0 4.8,575.575 L129.6,575.575 A0,0 0 0 0 129.6,575.575 L129.6,551.2 L121.6,543.2 L81.04,543.2 L110.688,495.344 L74.64,543.2 L4.8,543.2 A0,0 0 0 0 4.8,543.2 " fill="#FEFFDD" style="stroke:#181818;stroke-width:0.4000000000000001;"/><path d="M121.6,543.2 L121.6,551.2 L129.6,551.2 L121.6,543.2 " fill="#FEFFDD" style="stroke:#181818;stroke-width:0.4000000000000001;"/><text fill="#000000" font-family="sans-serif" font-size="10.4" lengthAdjust="spacing" textLength="108" x="9.6" y="556.8484">How does mean() differ</text><text fill="#000000" font-family="sans-serif" font-size="10.4" lengthAdjust="spacing" textLength="92.8" x="9.6" y="569.0359">from values in Data?</text></g><g id="elem_GMN20"><path d="M158,543.2 L158,575.575 A0,0 0 0 0 158,575.575 L328.4,575.575 A0,0 0 0 0 328.4,575.575 L328.4,551.2 L320.4,543.2 L235.76,543.2 L199.712,495.344 L229.36,543.2 L158,543.2 A0,0 0 0 0 158,543.2 " fill="#FEFFDD" style="stroke:#181818;stroke-width:0.4000000000000001;"/><path d="M320.4,543.2 L320.4,551.2 L328.4,551.2 L320.4,543.2 " fill="#FEFFDD" style="stroke:#181818;stroke-width:0.4000000000000001;"/><text fill="#000000" font-family="sans-serif" font-size="10.4" lengthAdjust="spacing" textLength="138.4" x="162.8" y="556.8484">averaged_values() returns only</text><text fill="#000000" font-family="sans-serif" font-size="10.4" lengthAdjust="spacing" textLength="153.6" x="162.8" y="569.0359">those values used to average over</text></g><!--class IntervalDetectorData--><g id="elem_IntervalDetectorData"><rect codeLine="55" fill="#F1F1F1" height="104.025" id="IntervalDetectorData" rx="2" ry="2" style="stroke:#181818;stroke-width:0.4000000000000001;" width="161.6" x="275.2" y="378"/><ellipse cx="301.6" cy="390.8" fill="#ADD1B2" rx="8.8" ry="8.8" style="stroke:#181818;stroke-width:0.8000000000000002;"/><path d="M301.6375,395.7625 C302.8375,395.7625 303.825,395.3125 304.55,394.4625 L303.45,393.25 C303.0125,393.725 302.4875,394.0375 301.85,394.0375 C300.5125,394.0375 299.5875,392.975 299.5875,391.15 C299.5875,389.375 300.5125,388.3 301.7625,388.3 C302.4125,388.3 302.8875,388.55 303.3125,388.9375 L304.4125,387.7 C303.8125,387.1125 302.8875,386.575 301.7625,386.575 C299.4,386.575 297.5375,388.2875 297.5375,391.225 C297.5375,394.2 299.4375,395.7625 301.6375,395.7625 Z " fill="#000000"/><text fill="#000000" font-family="sans-serif" font-size="11.2" lengthAdjust="spacing" textLength="104" x="316" y="394.6281">IntervalDetectorData</text><line style="stroke:#181818;stroke-width:0.4000000000000001;" x1="276" x2="436" y1="403.6" y2="403.6"/><text fill="#000000" font-family="sans-serif" font-size="11.2" lengthAdjust="spacing" textLength="124.8" x="280" y="417.1906">raw_values : raggedarray</text><text fill="#000000" font-family="sans-serif" font-size="11.2" lengthAdjust="spacing" textLength="152" x="280" y="430.3156">counts : np.ndarray(dtype=int)</text><line style="stroke:#181818;stroke-width:0.4000000000000001;" x1="276" x2="436" y1="436.25" y2="436.25"/><text fill="#000000" font-family="sans-serif" font-size="11.2" lengthAdjust="spacing" textLength="36" x="280" y="449.8406">mean()</text><text fill="#000000" font-family="sans-serif" font-size="11.2" lengthAdjust="spacing" textLength="24" x="280" y="462.9656">std()</text><text fill="#000000" font-family="sans-serif" font-size="11.2" lengthAdjust="spacing" textLength="87.2" x="280" y="476.0906">has_raw_values()</text></g><!--class ArrayDetectorData--><g id="elem_ArrayDetectorData"><rect codeLine="63" fill="#F1F1F1" height="38.4" id="ArrayDetectorData" rx="2" ry="2" style="stroke:#181818;stroke-width:0.4000000000000001;" width="119.2" x="465.2" y="410.8"/><ellipse cx="477.2" cy="423.6" fill="#ADD1B2" rx="8.8" ry="8.8" style="stroke:#181818;stroke-width:0.8000000000000002;"/><path d="M477.2375,428.5625 C478.4375,428.5625 479.425,428.1125 480.15,427.2625 L479.05,426.05 C478.6125,426.525 478.0875,426.8375 477.45,426.8375 C476.1125,426.8375 475.1875,425.775 475.1875,423.95 C475.1875,422.175 476.1125,421.1 477.3625,421.1 C478.0125,421.1 478.4875,421.35 478.9125,421.7375 L480.0125,420.5 C479.4125,419.9125 478.4875,419.375 477.3625,419.375 C475,419.375 473.1375,421.0875 473.1375,424.025 C473.1375,427 475.0375,428.5625 477.2375,428.5625 Z " fill="#000000"/><text fill="#000000" font-family="sans-serif" font-size="11.2" lengthAdjust="spacing" textLength="93.6" x="488.4" y="427.4281">ArrayDetectorData</text><line style="stroke:#181818;stroke-width:0.4000000000000001;" x1="466" x2="583.6" y1="436.4" y2="436.4"/><line style="stroke:#181818;stroke-width:0.4000000000000001;" x1="466" x2="583.6" y1="442.8" y2="442.8"/></g><!--class AreaDetectorData--><g id="elem_AreaDetectorData"><rect codeLine="66" fill="#F1F1F1" height="38.4" id="AreaDetectorData" rx="2" ry="2" style="stroke:#181818;stroke-width:0.4000000000000001;" width="115.2" x="612.8" y="410.8"/><ellipse cx="624.8" cy="423.6" fill="#ADD1B2" rx="8.8" ry="8.8" style="stroke:#181818;stroke-width:0.8000000000000002;"/><path d="M624.8375,428.5625 C626.0375,428.5625 627.025,428.1125 627.75,427.2625 L626.65,426.05 C626.2125,426.525 625.6875,426.8375 625.05,426.8375 C623.7125,426.8375 622.7875,425.775 622.7875,423.95 C622.7875,422.175 623.7125,421.1 624.9625,421.1 C625.6125,421.1 626.0875,421.35 626.5125,421.7375 L627.6125,420.5 C627.0125,419.9125 626.0875,419.375 624.9625,419.375 C622.6,419.375 620.7375,421.0875 620.7375,424.025 C620.7375,427 622.6375,428.5625 624.8375,428.5625 Z " fill="#000000"/><text fill="#000000" font-family="sans-serif" font-size="11.2" lengthAdjust="spacing" textLength="89.6" x="636" y="427.4281">AreaDetectorData</text><line style="stroke:#181818;stroke-width:0.4000000000000001;" x1="613.6" x2="727.2" y1="436.4" y2="436.4"/><line style="stroke:#181818;stroke-width:0.4000000000000001;" x1="613.6" x2="727.2" y1="442.8" y2="442.8"/></g><!--reverse link DetectorData to AverageDetectorData--><g id="link_DetectorData_AverageDetectorData"><path d="M382.1402,315.9458 C376.9322,318.0898 385.008,314.76 380,316.8 C327.12,338.376 311.84,339.176 260.8,364.8 C256.384,367.016 251.912,369.352 247.424,371.776 " fill="none" id="DetectorData-backto-AverageDetectorData" style="stroke:#181818;stroke-width:0.8000000000000002;"/><polygon fill="none" points="395.456,310.464,380.313,311.5072,383.9675,320.3844,395.456,310.464" style="stroke:#181818;stroke-width:0.8000000000000002;"/></g><!--reverse link DetectorData to IntervalDetectorData--><g id="link_DetectorData_IntervalDetectorData"><path d="M421.1539,322.7856 C410.5859,340.0496 401.84,354.336 387.368,377.96 " fill="none" id="DetectorData-backto-IntervalDetectorData" style="stroke:#181818;stroke-width:0.8000000000000002;"/><polygon fill="none" points="428.672,310.504,417.06,320.2796,425.2478,325.2917,428.672,310.504" style="stroke:#181818;stroke-width:0.8000000000000002;"/></g><!--reverse link DetectorData to ArrayDetectorData--><g id="link_DetectorData_ArrayDetectorData"><path d="M459.0095,322.754 C475.2335,349.01 497.208,384.552 513.408,410.768 " fill="none" id="DetectorData-backto-ArrayDetectorData" style="stroke:#181818;stroke-width:0.8000000000000002;"/><polygon fill="none" points="451.44,310.504,454.9261,325.2772,463.0928,320.2309,451.44,310.504" style="stroke:#181818;stroke-width:0.8000000000000002;"/></g><!--reverse link DetectorData to AreaDetectorData--><g id="link_DetectorData_AreaDetectorData"><path d="M497.448,316.2224 C537.048,333.1584 578.592,351.816 598.4,364.8 C618.6,378.04 638.856,396.76 652.712,410.608 " fill="none" id="DetectorData-backto-AreaDetectorData" style="stroke:#181818;stroke-width:0.8000000000000002;"/><polygon fill="none" points="484.208,310.56,495.5605,320.6358,499.3354,311.8091,484.208,310.56" style="stroke:#181818;stroke-width:0.8000000000000002;"/></g><!--reverse link Data to Metadata--><g id="link_Data_Metadata"><path codeLine="69" d="M393.9365,100.0315 C383.5205,108.2075 379.672,110.896 368.8,118.4 C340.088,138.232 305.912,158.536 281.248,172.648 " fill="none" id="Data-backto-Metadata" style="stroke:#181818;stroke-width:0.8000000000000002;"/><polygon fill="#181818" points="401.488,94.104,395.7364,94.5506,393.9365,100.0315,399.6881,99.5849,401.488,94.104" style="stroke:#181818;stroke-width:0.8000000000000002;"/></g><!--reverse link Data to MeasureData--><g id="link_Data_MeasureData"><path codeLine="70" d="M440,108.64 C440,130.912 440,145.84 440,166.384 " fill="none" id="Data-backto-MeasureData" style="stroke:#181818;stroke-width:0.8000000000000002;"/><polygon fill="none" points="440,94.24,435.2,108.64,444.8,108.64,440,94.24" style="stroke:#181818;stroke-width:0.8000000000000002;"/></g><!--reverse link Data to MonitorData--><g id="link_Data_MonitorData"><path codeLine="71" d="M503.5997,101.6323 C539.7037,123.9043 575.08,145.728 608.464,166.32 " fill="none" id="Data-backto-MonitorData" style="stroke:#181818;stroke-width:0.8000000000000002;"/><polygon fill="none" points="491.344,94.072,501.0796,105.7176,506.1198,97.5471,491.344,94.072" style="stroke:#181818;stroke-width:0.8000000000000002;"/></g><!--reverse link MeasureData to MotorData--><g id="link_MeasureData_MotorData"><path codeLine="72" d="M399.8854,227.0265 C380.1574,243.8585 365.472,256.384 347.488,271.728 " fill="none" id="MeasureData-backto-MotorData" style="stroke:#181818;stroke-width:0.8000000000000002;"/><polygon fill="none" points="410.84,217.68,396.7699,223.375,403.0009,230.678,410.84,217.68" style="stroke:#181818;stroke-width:0.8000000000000002;"/></g><!--reverse link MeasureData to DetectorData--><g id="link_MeasureData_DetectorData"><path codeLine="73" d="M440,232.08 C440,248.912 440,256.384 440,271.728 " fill="none" id="MeasureData-backto-DetectorData" style="stroke:#181818;stroke-width:0.8000000000000002;"/><polygon fill="none" points="440,217.68,435.2,232.08,444.8,232.08,440,217.68" style="stroke:#181818;stroke-width:0.8000000000000002;"/></g><!--reverse link MeasureData to ExternalData--><g id="link_MeasureData_ExternalData"><path codeLine="74" d="M481.525,226.8035 C499.461,241.4915 510.944,250.888 528.864,265.568 " fill="none" id="MeasureData-backto-ExternalData" style="stroke:#181818;stroke-width:0.8000000000000002;"/><polygon fill="none" points="470.384,217.68,478.4838,230.5172,484.5662,223.0898,470.384,217.68" style="stroke:#181818;stroke-width:0.8000000000000002;"/></g><!--reverse link MeasureData to TimestampData--><g id="link_MeasureData_TimestampData"><path codeLine="75" d="M515.99,222.998 C558.486,239.886 600.376,256.528 639,271.88 " fill="none" id="MeasureData-backto-TimestampData" style="stroke:#181818;stroke-width:0.8000000000000002;"/><polygon fill="none" points="502.608,217.68,514.2173,227.4587,517.7627,218.5374,502.608,217.68" style="stroke:#181818;stroke-width:0.8000000000000002;"/></g><!--SRC=[fLHDZzCm4BtdLupsGekq5Ol49GAXbGg20oUuiMWr6qzQix4TsPEMgkn_P-8wZVk5Lj1BxV6y-NZp9Y_2exOjUZIWMWqtRruLHTLW2317HjWM83z3ZAg_bl0b7QCzsMmximgznqtnL5Z710tL3AwECSfoxt_LdwwW2nqspGOgPncr3O1mCuSOO5P4nu_EWxPAhxGILr34LB7OLjXq520GYSth5Ic8nLA8iDiLULpGFBd73j0g-6oPl63pXvJfjizw0lZmIm1M0D7W2O8pj5uYHqnegT9I5WRW9Utx0D9ozV1wlYD6waLeTEYP6Ebo3pybLu2902eCrDEaZLGTOcPiz2DDPmN9kQTocCR0kqmaSVpWc9qfuMjFXiP5FyBQ-JkxdvPngcjeDeR0q7dAvhgjDJNg2LeND6idayY7EL6yQUcTjZoLd4CGP_N0r64GenjfbeGCzQmuOvIzyM0EcVrW7DjSUZisl_yOVRzfGu7HjCT1pec3971Vxb7YFe77zNsIMocNnOAInFEUaPbCovVxpPtjFUvA-Bkx8RIJtJ6mIgU4LAcaP5rYk1_hd4oFfV79hK4voRUBAJAfQnA5rDwPOPT4XdtNxtDahyapT9MdPO0dxhm8nzbcSsTvwKJHAN8NP3tP3I1myZyCuzn6_lSqAjTP_WTopz0uQERawt2XnWn1-4n0FBsylXw_gT7ozdSqxNSrjuxBL-JRd1ulFkMvJr_pxJfzFTYduWy0]--></g></svg>