<?xml version="1.0" encoding="us-ascii" standalone="no"?><svg xmlns="http://www.w3.org/2000/svg" xmlns:xlink="http://www.w3.org/1999/xlink" contentStyleType="text/css" height="449px" preserveAspectRatio="none" style="width:473px;height:449px;background:#FFFFFF;" version="1.1" viewBox="0 0 473 449" width="473px" zoomAndPan="magnify"><defs/><g><!--cluster evedata--><g id="cluster_evedata"><path d="M8.5,6 L73.5,6 A3.75,3.75 0 0 1 76,8.5 L83,28.2969 L463.5,28.2969 A2.5,2.5 0 0 1 466,30.7969 L466,439.5 A2.5,2.5 0 0 1 463.5,442 L8.5,442 A2.5,2.5 0 0 1 6,439.5 L6,8.5 A2.5,2.5 0 0 1 8.5,6 " fill="none" style="stroke:#000000;stroke-width:1.5;"/><line style="stroke:#000000;stroke-width:1.5;" x1="6" x2="83" y1="28.2969" y2="28.2969"/><text fill="#000000" font-family="sans-serif" font-size="14" font-weight="bold" lengthAdjust="spacing" textLength="64" x="10" y="20.9951">evedata</text></g><!--cluster evefile--><g id="cluster_evefile"><path d="M40.5,57 L96.5,57 A3.75,3.75 0 0 1 99,59.5 L106,79.2969 L228.5,79.2969 A2.5,2.5 0 0 1 231,81.7969 L231,407.5 A2.5,2.5 0 0 1 228.5,410 L40.5,410 A2.5,2.5 0 0 1 38,407.5 L38,59.5 A2.5,2.5 0 0 1 40.5,57 " fill="none" style="stroke:#000000;stroke-width:1.5;"/><line style="stroke:#000000;stroke-width:1.5;" x1="38" x2="106" y1="79.2969" y2="79.2969"/><text fill="#000000" font-family="sans-serif" font-size="14" font-weight="bold" lengthAdjust="spacing" textLength="55" x="42" y="71.9951">evefile</text></g><!--cluster dataset--><g id="cluster_dataset"><path d="M273.5,177 L334.5,177 A3.75,3.75 0 0 1 337,179.5 L344,199.2969 L431.5,199.2969 A2.5,2.5 0 0 1 434,201.7969 L434,407.5 A2.5,2.5 0 0 1 431.5,410 L273.5,410 A2.5,2.5 0 0 1 271,407.5 L271,179.5 A2.5,2.5 0 0 1 273.5,177 " fill="none" style="stroke:#000000;stroke-width:1.5;"/><line style="stroke:#000000;stroke-width:1.5;" x1="271" x2="344" y1="199.2969" y2="199.2969"/><text fill="#000000" font-family="sans-serif" font-size="14" font-weight="bold" lengthAdjust="spacing" textLength="60" x="275" y="191.9951">dataset</text></g><path d="M90,333 L146,333 A3.75,3.75 0 0 1 148.5,335.5 L155.5,355.2969 L160,355.2969 A2.5,2.5 0 0 1 162.5,357.7969 L162.5,383.0938 A2.5,2.5 0 0 1 160,385.5938 L90,385.5938 A2.5,2.5 0 0 1 87.5,383.0938 L87.5,335.5 A2.5,2.5 0 0 1 90,333 " fill="#F1F1F1" style="stroke:#181818;stroke-width:0.5;"/><line style="stroke:#181818;stroke-width:0.5;" x1="87.5" x2="155.5" y1="355.2969" y2="355.2969"/><text fill="#000000" font-family="sans-serif" font-size="14" font-weight="bold" lengthAdjust="spacing" textLength="55" x="91.5" y="347.9951">evefile</text><path d="M85.5,220 L150.5,220 A3.75,3.75 0 0 1 153,222.5 L160,242.2969 L164.5,242.2969 A2.5,2.5 0 0 1 167,244.7969 L167,270.0938 A2.5,2.5 0 0 1 164.5,272.5938 L85.5,272.5938 A2.5,2.5 0 0 1 83,270.0938 L83,222.5 A2.5,2.5 0 0 1 85.5,220 " fill="#F1F1F1" style="stroke:#181818;stroke-width:0.5;"/><line style="stroke:#181818;stroke-width:0.5;" x1="83" x2="160" y1="242.2969" y2="242.2969"/><text fill="#000000" font-family="sans-serif" font-size="14" font-weight="bold" lengthAdjust="spacing" textLength="64" x="87" y="234.9951">evedata</text><path d="M65,100 L171,100 A3.75,3.75 0 0 1 173.5,102.5 L180.5,122.2969 L185,122.2969 A2.5,2.5 0 0 1 187.5,124.7969 L187.5,150.0938 A2.5,2.5 0 0 1 185,152.5938 L65,152.5938 A2.5,2.5 0 0 1 62.5,150.0938 L62.5,102.5 A2.5,2.5 0 0 1 65,100 " fill="#F1F1F1" style="stroke:#181818;stroke-width:0.5;"/><line style="stroke:#181818;stroke-width:0.5;" x1="62.5" x2="180.5" y1="122.2969" y2="122.2969"/><text fill="#000000" font-family="sans-serif" font-size="14" font-weight="bold" lengthAdjust="spacing" textLength="105" x="66.5" y="114.9951">evemetadata</text><path d="M324.5,333 L385.5,333 A3.75,3.75 0 0 1 388,335.5 L395,355.2969 L399.5,355.2969 A2.5,2.5 0 0 1 402,357.7969 L402,383.0938 A2.5,2.5 0 0 1 399.5,385.5938 L324.5,385.5938 A2.5,2.5 0 0 1 322,383.0938 L322,335.5 A2.5,2.5 0 0 1 324.5,333 " fill="#F1F1F1" style="stroke:#181818;stroke-width:0.5;"/><line style="stroke:#181818;stroke-width:0.5;" x1="322" x2="395" y1="355.2969" y2="355.2969"/><text fill="#000000" font-family="sans-serif" font-size="14" font-weight="bold" lengthAdjust="spacing" textLength="60" x="326" y="347.9951">dataset</text><path d="M316.5,220 L393.5,220 A3.75,3.75 0 0 1 396,222.5 L403,242.2969 L407.5,242.2969 A2.5,2.5 0 0 1 410,244.7969 L410,270.0938 A2.5,2.5 0 0 1 407.5,272.5938 L316.5,272.5938 A2.5,2.5 0 0 1 314,270.0938 L314,222.5 A2.5,2.5 0 0 1 316.5,220 " fill="#F1F1F1" style="stroke:#181818;stroke-width:0.5;"/><line style="stroke:#181818;stroke-width:0.5;" x1="314" x2="403" y1="242.2969" y2="242.2969"/><text fill="#000000" font-family="sans-serif" font-size="14" font-weight="bold" lengthAdjust="spacing" textLength="76" x="318" y="234.9951">metadata</text><!--reverse link evemetadata to evedata--><g id="link_evemetadata_evedata"><path codeLine="14" d="M125,159.1 C125,178.9 125,200.17 125,219.95 " fill="none" id="evemetadata-backto-evedata" style="stroke:#181818;stroke-width:1.0;"/><polygon fill="#181818" points="125,153.1,121,162.1,125,158.1,129,162.1,125,153.1" style="stroke:#181818;stroke-width:1.0;"/></g><!--reverse link evedata to evefile--><g id="link_evedata_evefile"><path codeLine="15" d="M125,279.24 C125,297.18 125,314.99 125,332.89 " fill="none" id="evedata-backto-evefile" style="stroke:#181818;stroke-width:1.0;"/><polygon fill="#181818" points="125,273.24,121,282.24,125,278.24,129,282.24,125,273.24" style="stroke:#181818;stroke-width:1.0;"/></g><!--reverse link metadata to dataset--><g id="link_metadata_dataset"><path codeLine="26" d="M362,279.24 C362,297.18 362,314.99 362,332.89 " fill="none" id="metadata-backto-dataset" style="stroke:#181818;stroke-width:1.0;"/><polygon fill="#181818" points="362,273.24,358,282.24,362,278.24,366,282.24,362,273.24" style="stroke:#181818;stroke-width:1.0;"/></g><!--reverse link evefile to dataset--><g id="link_evefile_dataset"><path codeLine="30" d="M233.6371,149.9131 C233.9488,150.5698 231.9269,146.31 232.2514,146.9937 C237.4441,157.9337 244.2281,172.2275 251.0113,186.52 C257.7944,200.8125 264.5766,215.1037 269.7655,226.0387 C270.0898,226.7222 270.4079,227.3925 270.7193,228.0489 C270.7972,228.213 270.8747,228.3762 270.9517,228.5386 " fill="none" id="evefile-backto-dataset" style="stroke:#181818;stroke-width:1.0;"/><polygon fill="#181818" points="231.0643,144.4927,231.3099,154.3385,233.2083,149.0097,238.5371,150.9081,231.0643,144.4927" style="stroke:#181818;stroke-width:1.0;"/></g><!--SRC=[Ko_EpimhI2nAp5L8ASXKC3GruE8gI4pEJanFLKWjIqr9B4bKgERYKW02D64z89sMcPCAb0R9WWayoj2KWq0jCNgWBY19JsvgIIA6FZWJdmORNLrSZi2d7vzU40snl1PxE8A8ujGIM33ZKOAab71umFGG5nWOgf5zWsOzN3Eohz1J1HRzN5orN000]--></g></svg>