<?xml version="1.0" encoding="us-ascii" standalone="no"?><svg xmlns="http://www.w3.org/2000/svg" xmlns:xlink="http://www.w3.org/1999/xlink" contentStyleType="text/css" height="473px" preserveAspectRatio="none" style="width:421px;height:473px;background:#FFFFFF;" version="1.1" viewBox="0 0 421 473" width="421px" zoomAndPan="magnify"><defs/><g><!--class Dataset--><g id="elem_Dataset"><rect codeLine="3" fill="#F1F1F1" height="129.4844" id="Dataset" rx="2.5" ry="2.5" style="stroke:#181818;stroke-width:0.5;" width="163" x="109.5" y="7"/><ellipse cx="159.25" cy="23" fill="#ADD1B2" rx="11" ry="11" style="stroke:#181818;stroke-width:1.0;"/><path d="M162.2344,28.6406 Q161.6563,28.9375 161.0156,29.0781 Q160.375,29.2344 159.6719,29.2344 Q157.1563,29.2344 155.8281,27.5938 Q154.5156,25.9375 154.5156,22.8125 Q154.5156,19.6719 155.8281,18.0313 Q157.1563,16.375 159.6719,16.375 Q160.375,16.375 161.0156,16.5313 Q161.6719,16.6719 162.2344,16.9688 L162.2344,19.6875 Q161.5938,19.1094 161,18.8438 Q160.4063,18.5781 159.7813,18.5781 Q158.4375,18.5781 157.75,19.6406 Q157.0625,20.7031 157.0625,22.8125 Q157.0625,24.9063 157.75,25.9844 Q158.4375,27.0469 159.7813,27.0469 Q160.4063,27.0469 161,26.7813 Q161.5938,26.5 162.2344,25.9219 L162.2344,28.6406 Z " fill="#000000"/><text fill="#000000" font-family="sans-serif" font-size="14" lengthAdjust="spacing" textLength="55" x="179.75" y="27.8467">Dataset</text><line style="stroke:#181818;stroke-width:0.5;" x1="110.5" x2="271.5" y1="39" y2="39"/><text fill="#000000" font-family="sans-serif" font-size="14" lengthAdjust="spacing" textLength="79" x="115.5" y="55.9951">data : Data</text><text fill="#000000" font-family="sans-serif" font-size="14" lengthAdjust="spacing" textLength="151" x="115.5" y="72.292">device_data{} : Data</text><text fill="#000000" font-family="sans-serif" font-size="14" lengthAdjust="spacing" textLength="149" x="115.5" y="88.5889">metadata : Metadata</text><text fill="#000000" font-family="sans-serif" font-size="14" lengthAdjust="spacing" textLength="137" x="115.5" y="104.8857">fill_mode : FillMode</text><line style="stroke:#181818;stroke-width:0.5;" x1="110.5" x2="271.5" y1="112.1875" y2="112.1875"/><text fill="#000000" font-family="sans-serif" font-size="14" lengthAdjust="spacing" textLength="117" x="115.5" y="129.1826">preferred_data()</text></g><!--class FillMode--><g id="elem_FillMode"><rect codeLine="12" fill="#F1F1F1" height="113.1875" id="FillMode" rx="2.5" ry="2.5" style="stroke:#181818;stroke-width:0.5;" width="106" x="308" y="15"/><ellipse cx="329.75" cy="31" fill="#EB937F" rx="11" ry="11" style="stroke:#181818;stroke-width:1.0;"/><path d="M333.875,37 L326.1406,37 L326.1406,24.5938 L333.875,24.5938 L333.875,26.75 L328.5938,26.75 L328.5938,29.4375 L333.375,29.4375 L333.375,31.5938 L328.5938,31.5938 L328.5938,34.8438 L333.875,34.8438 L333.875,37 Z " fill="#000000"/><text fill="#000000" font-family="sans-serif" font-size="14" lengthAdjust="spacing" textLength="59" x="345.25" y="35.8467">FillMode</text><line style="stroke:#181818;stroke-width:0.5;" x1="309" x2="413" y1="47" y2="47"/><text fill="#000000" font-family="sans-serif" font-size="14" lengthAdjust="spacing" textLength="64" x="314" y="63.9951">LASTFILL</text><text fill="#000000" font-family="sans-serif" font-size="14" lengthAdjust="spacing" textLength="58" x="314" y="80.292">NANFILL</text><text fill="#000000" font-family="sans-serif" font-size="14" lengthAdjust="spacing" textLength="94" x="314" y="96.5889">LASTNANFILL</text><text fill="#000000" font-family="sans-serif" font-size="14" lengthAdjust="spacing" textLength="49" x="314" y="112.8857">NOFILL</text><line style="stroke:#181818;stroke-width:0.5;" x1="309" x2="413" y1="120.1875" y2="120.1875"/></g><!--class Metadata--><g id="elem_Metadata"><rect codeLine="19" fill="#F1F1F1" height="48" id="Metadata" rx="2.5" ry="2.5" style="stroke:#181818;stroke-width:0.5;" width="99" x="57.5" y="212.5"/><ellipse cx="72.5" cy="228.5" fill="#ADD1B2" rx="11" ry="11" style="stroke:#181818;stroke-width:1.0;"/><path d="M75.4844,234.1406 Q74.9063,234.4375 74.2656,234.5781 Q73.625,234.7344 72.9219,234.7344 Q70.4063,234.7344 69.0781,233.0938 Q67.7656,231.4375 67.7656,228.3125 Q67.7656,225.1719 69.0781,223.5313 Q70.4063,221.875 72.9219,221.875 Q73.625,221.875 74.2656,222.0313 Q74.9219,222.1719 75.4844,222.4688 L75.4844,225.1875 Q74.8438,224.6094 74.25,224.3438 Q73.6563,224.0781 73.0313,224.0781 Q71.6875,224.0781 71,225.1406 Q70.3125,226.2031 70.3125,228.3125 Q70.3125,230.4063 71,231.4844 Q71.6875,232.5469 73.0313,232.5469 Q73.6563,232.5469 74.25,232.2813 Q74.8438,232 75.4844,231.4219 L75.4844,234.1406 Z " fill="#000000"/><text fill="#000000" font-family="sans-serif" font-size="14" lengthAdjust="spacing" textLength="67" x="86.5" y="233.3467">Metadata</text><line style="stroke:#181818;stroke-width:0.5;" x1="58.5" x2="155.5" y1="244.5" y2="244.5"/><line style="stroke:#181818;stroke-width:0.5;" x1="58.5" x2="155.5" y1="252.5" y2="252.5"/></g><g id="elem_GMN5"><path d="M6,381.5 L6,421.7656 A0,0 0 0 0 6,421.7656 L170,421.7656 A0,0 0 0 0 170,421.7656 L170,391.5 L160,381.5 L94.25,381.5 L104.32,260.51 L86.25,381.5 L6,381.5 A0,0 0 0 0 6,381.5 " fill="#FEFFDD" style="stroke:#181818;stroke-width:0.5;"/><path d="M160,381.5 L160,391.5 L170,391.5 L160,381.5 " fill="#FEFFDD" style="stroke:#181818;stroke-width:0.5;"/><text fill="#000000" font-family="sans-serif" font-size="13" lengthAdjust="spacing" textLength="143" x="12" y="398.5669">See separate diagram</text><text fill="#000000" font-family="sans-serif" font-size="13" lengthAdjust="spacing" textLength="120" x="12" y="413.6997">for class hierarchy</text></g><!--class Data--><g id="elem_Data"><rect codeLine="23" fill="#F1F1F1" height="80.5938" id="Data" rx="2.5" ry="2.5" style="stroke:#181818;stroke-width:0.5;" width="166" x="202" y="196"/><ellipse cx="263.75" cy="212" fill="#ADD1B2" rx="11" ry="11" style="stroke:#181818;stroke-width:1.0;"/><path d="M266.7344,217.6406 Q266.1563,217.9375 265.5156,218.0781 Q264.875,218.2344 264.1719,218.2344 Q261.6563,218.2344 260.3281,216.5938 Q259.0156,214.9375 259.0156,211.8125 Q259.0156,208.6719 260.3281,207.0313 Q261.6563,205.375 264.1719,205.375 Q264.875,205.375 265.5156,205.5313 Q266.1719,205.6719 266.7344,205.9688 L266.7344,208.6875 Q266.0938,208.1094 265.5,207.8438 Q264.9063,207.5781 264.2813,207.5781 Q262.9375,207.5781 262.25,208.6406 Q261.5625,209.7031 261.5625,211.8125 Q261.5625,213.9063 262.25,214.9844 Q262.9375,216.0469 264.2813,216.0469 Q264.9063,216.0469 265.5,215.7813 Q266.0938,215.5 266.7344,214.9219 L266.7344,217.6406 Z " fill="#000000"/><text fill="#000000" font-family="sans-serif" font-size="14" lengthAdjust="spacing" textLength="34" x="284.25" y="216.8467">Data</text><line style="stroke:#181818;stroke-width:0.5;" x1="203" x2="367" y1="228" y2="228"/><text fill="#000000" font-family="sans-serif" font-size="14" lengthAdjust="spacing" textLength="154" x="208" y="244.9951">data : numpy.ndarray</text><text fill="#000000" font-family="sans-serif" font-size="14" lengthAdjust="spacing" textLength="85" x="208" y="261.292">axes[] : Axis</text><line style="stroke:#181818;stroke-width:0.5;" x1="203" x2="367" y1="268.5938" y2="268.5938"/></g><!--class Axis--><g id="elem_Axis"><rect codeLine="28" fill="#F1F1F1" height="129.4844" id="Axis" rx="2.5" ry="2.5" style="stroke:#181818;stroke-width:0.5;" width="180" x="205" y="337"/><ellipse cx="276.25" cy="353" fill="#ADD1B2" rx="11" ry="11" style="stroke:#181818;stroke-width:1.0;"/><path d="M279.2344,358.6406 Q278.6563,358.9375 278.0156,359.0781 Q277.375,359.2344 276.6719,359.2344 Q274.1563,359.2344 272.8281,357.5938 Q271.5156,355.9375 271.5156,352.8125 Q271.5156,349.6719 272.8281,348.0313 Q274.1563,346.375 276.6719,346.375 Q277.375,346.375 278.0156,346.5313 Q278.6719,346.6719 279.2344,346.9688 L279.2344,349.6875 Q278.5938,349.1094 278,348.8438 Q277.4063,348.5781 276.7813,348.5781 Q275.4375,348.5781 274.75,349.6406 Q274.0625,350.7031 274.0625,352.8125 Q274.0625,354.9063 274.75,355.9844 Q275.4375,357.0469 276.7813,357.0469 Q277.4063,357.0469 278,356.7813 Q278.5938,356.5 279.2344,355.9219 L279.2344,358.6406 Z " fill="#000000"/><text fill="#000000" font-family="sans-serif" font-size="14" lengthAdjust="spacing" textLength="29" x="296.75" y="357.8467">Axis</text><line style="stroke:#181818;stroke-width:0.5;" x1="206" x2="384" y1="369" y2="369"/><text fill="#000000" font-family="sans-serif" font-size="14" lengthAdjust="spacing" textLength="113" x="211" y="385.9951">quantity : String</text><text fill="#000000" font-family="sans-serif" font-size="14" lengthAdjust="spacing" textLength="106" x="211" y="402.292">symbol : String</text><text fill="#000000" font-family="sans-serif" font-size="14" lengthAdjust="spacing" textLength="82" x="211" y="418.5889">unit : String</text><text fill="#000000" font-family="sans-serif" font-size="14" lengthAdjust="spacing" textLength="168" x="211" y="434.8857">values : numpy.ndarray</text><line style="stroke:#181818;stroke-width:0.5;" x1="206" x2="384" y1="442.1875" y2="442.1875"/><text fill="#000000" font-family="sans-serif" font-size="14" lengthAdjust="spacing" textLength="45" x="211" y="459.1826">label()</text></g><!--reverse link Dataset to Metadata--><g id="link_Dataset_Metadata"><path codeLine="37" d="M152.5431,147.117 C138.7531,173.877 129.1,192.62 118.91,212.38 " fill="none" id="Dataset-backto-Metadata" style="stroke:#181818;stroke-width:1.0;"/><polygon fill="#181818" points="158.04,136.45,151.7359,139.9512,152.5431,147.117,158.8472,143.6158,158.04,136.45" style="stroke:#181818;stroke-width:1.0;"/></g><!--reverse link Dataset to Data--><g id="link_Dataset_Data"><path codeLine="38" d="M233.874,146.8458 C245.394,166.8258 251.78,177.89 262.05,195.7 " fill="none" id="Dataset-backto-Data" style="stroke:#181818;stroke-width:1.0;"/><polygon fill="#181818" points="227.88,136.45,227.4117,143.6459,233.874,146.8458,234.3422,139.6499,227.88,136.45" style="stroke:#181818;stroke-width:1.0;"/></g><!--reverse link Data to Axis--><g id="link_Data_Axis"><path codeLine="39" d="M288.179,289.3478 C289.269,307.2578 289.87,316.85 291.1,336.91 " fill="none" id="Data-backto-Axis" style="stroke:#181818;stroke-width:1.0;"/><polygon fill="#181818" points="287.45,277.37,283.8219,283.6019,288.179,289.3478,291.8071,283.1159,287.45,277.37" style="stroke:#181818;stroke-width:1.0;"/></g><!--SRC=[PL79ReCm4BtxAtph8YNSkI55aIebv41lRHKDC0cMl53RH44H_rupB07LfxVCs6_6BvNtjOkZg9QWVQFajZ0gAYGujoa5N2qeneZo7NXmwFc3yN3Am7XCui3n9Weyz_AZMneAFOp5nn6IVX5IdfKfCHZxW8y1Cd9gYnUq5akwxVMDTOoXRjHSDaOu9Ddd_kDm898cwOnxOydJ4y5kccJEeOr7dXllZOfvXiWTrc0XYEFit_fYB1-wAe4MR56rRBcHzJf2ohhTwXAiXPOCkAFx-WbMSXVk6Q5dO-jl4pOlV1jgCc-5lfBgMfKRkTOQBVnQkO5iqFrxc3m9ESfXUzFNlMysp-6NucuIY57KFm00]--></g></svg>