<?xml version="1.0" encoding="us-ascii" standalone="no"?><svg xmlns="http://www.w3.org/2000/svg" xmlns:xlink="http://www.w3.org/1999/xlink" contentStyleType="text/css" height="351px" preserveAspectRatio="none" style="width:405px;height:351px;background:#FFFFFF;" version="1.1" viewBox="0 0 405 351" width="405px" zoomAndPan="magnify"><defs/><g><!--class File--><g id="elem_File"><rect codeLine="2" fill="#F1F1F1" height="129.4844" id="File" rx="2.5" ry="2.5" style="stroke:#181818;stroke-width:0.5;" width="129" x="137.5" y="7"/><ellipse cx="185.25" cy="23" fill="#ADD1B2" rx="11" ry="11" style="stroke:#181818;stroke-width:1.0;"/><path d="M188.2344,28.6406 Q187.6563,28.9375 187.0156,29.0781 Q186.375,29.2344 185.6719,29.2344 Q183.1563,29.2344 181.8281,27.5938 Q180.5156,25.9375 180.5156,22.8125 Q180.5156,19.6719 181.8281,18.0313 Q183.1563,16.375 185.6719,16.375 Q186.375,16.375 187.0156,16.5313 Q187.6719,16.6719 188.2344,16.9688 L188.2344,19.6875 Q187.5938,19.1094 187,18.8438 Q186.4063,18.5781 185.7813,18.5781 Q184.4375,18.5781 183.75,19.6406 Q183.0625,20.7031 183.0625,22.8125 Q183.0625,24.9063 183.75,25.9844 Q184.4375,27.0469 185.7813,27.0469 Q186.4063,27.0469 187,26.7813 Q187.5938,26.5 188.2344,25.9219 L188.2344,28.6406 Z " fill="#000000"/><text fill="#000000" font-family="sans-serif" font-size="14" lengthAdjust="spacing" textLength="25" x="205.75" y="27.8467">File</text><line style="stroke:#181818;stroke-width:0.5;" x1="138.5" x2="265.5" y1="39" y2="39"/><text fill="#000000" font-family="sans-serif" font-size="14" lengthAdjust="spacing" textLength="105" x="143.5" y="55.9951">version : string</text><text fill="#000000" font-family="sans-serif" font-size="14" lengthAdjust="spacing" textLength="110" x="143.5" y="72.292">location : string</text><text fill="#000000" font-family="sans-serif" font-size="14" lengthAdjust="spacing" textLength="81" x="143.5" y="88.5889">scan : Scan</text><text fill="#000000" font-family="sans-serif" font-size="14" lengthAdjust="spacing" textLength="93" x="143.5" y="104.8857">setup : Setup</text><text fill="#000000" font-family="sans-serif" font-size="14" lengthAdjust="spacing" textLength="117" x="143.5" y="121.1826">plugins : Plugin[]</text><line style="stroke:#181818;stroke-width:0.5;" x1="138.5" x2="265.5" y1="128.4844" y2="128.4844"/></g><!--class Scan--><g id="elem_Scan"><rect fill="#F1F1F1" height="48" id="Scan" rx="2.5" ry="2.5" style="stroke:#181818;stroke-width:0.5;" width="67" x="44.5" y="196"/><ellipse cx="59.5" cy="212" fill="#ADD1B2" rx="11" ry="11" style="stroke:#181818;stroke-width:1.0;"/><path d="M62.4844,217.6406 Q61.9063,217.9375 61.2656,218.0781 Q60.625,218.2344 59.9219,218.2344 Q57.4063,218.2344 56.0781,216.5938 Q54.7656,214.9375 54.7656,211.8125 Q54.7656,208.6719 56.0781,207.0313 Q57.4063,205.375 59.9219,205.375 Q60.625,205.375 61.2656,205.5313 Q61.9219,205.6719 62.4844,205.9688 L62.4844,208.6875 Q61.8438,208.1094 61.25,207.8438 Q60.6563,207.5781 60.0313,207.5781 Q58.6875,207.5781 58,208.6406 Q57.3125,209.7031 57.3125,211.8125 Q57.3125,213.9063 58,214.9844 Q58.6875,216.0469 60.0313,216.0469 Q60.6563,216.0469 61.25,215.7813 Q61.8438,215.5 62.4844,214.9219 L62.4844,217.6406 Z " fill="#000000"/><text fill="#000000" font-family="sans-serif" font-size="14" lengthAdjust="spacing" textLength="35" x="73.5" y="216.8467">Scan</text><line style="stroke:#181818;stroke-width:0.5;" x1="45.5" x2="110.5" y1="228" y2="228"/><line style="stroke:#181818;stroke-width:0.5;" x1="45.5" x2="110.5" y1="236" y2="236"/></g><!--class Setup--><g id="elem_Setup"><rect fill="#F1F1F1" height="48" id="Setup" rx="2.5" ry="2.5" style="stroke:#181818;stroke-width:0.5;" width="73" x="165.5" y="196"/><ellipse cx="180.5" cy="212" fill="#ADD1B2" rx="11" ry="11" style="stroke:#181818;stroke-width:1.0;"/><path d="M183.4844,217.6406 Q182.9063,217.9375 182.2656,218.0781 Q181.625,218.2344 180.9219,218.2344 Q178.4063,218.2344 177.0781,216.5938 Q175.7656,214.9375 175.7656,211.8125 Q175.7656,208.6719 177.0781,207.0313 Q178.4063,205.375 180.9219,205.375 Q181.625,205.375 182.2656,205.5313 Q182.9219,205.6719 183.4844,205.9688 L183.4844,208.6875 Q182.8438,208.1094 182.25,207.8438 Q181.6563,207.5781 181.0313,207.5781 Q179.6875,207.5781 179,208.6406 Q178.3125,209.7031 178.3125,211.8125 Q178.3125,213.9063 179,214.9844 Q179.6875,216.0469 181.0313,216.0469 Q181.6563,216.0469 182.25,215.7813 Q182.8438,215.5 183.4844,214.9219 L183.4844,217.6406 Z " fill="#000000"/><text fill="#000000" font-family="sans-serif" font-size="14" lengthAdjust="spacing" textLength="41" x="194.5" y="216.8467">Setup</text><line style="stroke:#181818;stroke-width:0.5;" x1="166.5" x2="237.5" y1="228" y2="228"/><line style="stroke:#181818;stroke-width:0.5;" x1="166.5" x2="237.5" y1="236" y2="236"/></g><!--class Plugin--><g id="elem_Plugin"><rect fill="#F1F1F1" height="48" id="Plugin" rx="2.5" ry="2.5" style="stroke:#181818;stroke-width:0.5;" width="75" x="290.5" y="196"/><ellipse cx="305.5" cy="212" fill="#ADD1B2" rx="11" ry="11" style="stroke:#181818;stroke-width:1.0;"/><path d="M308.4844,217.6406 Q307.9063,217.9375 307.2656,218.0781 Q306.625,218.2344 305.9219,218.2344 Q303.4063,218.2344 302.0781,216.5938 Q300.7656,214.9375 300.7656,211.8125 Q300.7656,208.6719 302.0781,207.0313 Q303.4063,205.375 305.9219,205.375 Q306.625,205.375 307.2656,205.5313 Q307.9219,205.6719 308.4844,205.9688 L308.4844,208.6875 Q307.8438,208.1094 307.25,207.8438 Q306.6563,207.5781 306.0313,207.5781 Q304.6875,207.5781 304,208.6406 Q303.3125,209.7031 303.3125,211.8125 Q303.3125,213.9063 304,214.9844 Q304.6875,216.0469 306.0313,216.0469 Q306.6563,216.0469 307.25,215.7813 Q307.8438,215.5 308.4844,214.9219 L308.4844,217.6406 Z " fill="#000000"/><text fill="#000000" font-family="sans-serif" font-size="14" lengthAdjust="spacing" textLength="43" x="319.5" y="216.8467">Plugin</text><line style="stroke:#181818;stroke-width:0.5;" x1="291.5" x2="364.5" y1="228" y2="228"/><line style="stroke:#181818;stroke-width:0.5;" x1="291.5" x2="364.5" y1="236" y2="236"/></g><g id="elem_GMN9"><path d="M6,304 L6,344.2656 A0,0 0 0 0 6,344.2656 L112,344.2656 A0,0 0 0 0 112,344.2656 L112,314 L102,304 L66.59,304 L73.69,244.15 L58.59,304 L6,304 A0,0 0 0 0 6,304 " fill="#FEFFDD" style="stroke:#181818;stroke-width:0.5;"/><path d="M102,304 L102,314 L112,314 L102,304 " fill="#FEFFDD" style="stroke:#181818;stroke-width:0.5;"/><text fill="#000000" font-family="sans-serif" font-size="13" lengthAdjust="spacing" textLength="85" x="12" y="321.0669">See separate</text><text fill="#000000" font-family="sans-serif" font-size="13" lengthAdjust="spacing" textLength="83" x="12" y="336.1997">scan module</text></g><g id="elem_GMN12"><path d="M147,304 L147,344.2656 A0,0 0 0 0 147,344.2656 L257,344.2656 A0,0 0 0 0 257,344.2656 L257,314 L247,304 L206,304 L202,244.15 L198,304 L147,304 A0,0 0 0 0 147,304 " fill="#FEFFDD" style="stroke:#181818;stroke-width:0.5;"/><path d="M247,304 L247,314 L257,314 L247,304 " fill="#FEFFDD" style="stroke:#181818;stroke-width:0.5;"/><text fill="#000000" font-family="sans-serif" font-size="13" lengthAdjust="spacing" textLength="85" x="153" y="321.0669">See separate</text><text fill="#000000" font-family="sans-serif" font-size="13" lengthAdjust="spacing" textLength="89" x="153" y="336.1997">setup module</text></g><g id="elem_GMN15"><path d="M292,304 L292,344.2656 A0,0 0 0 0 292,344.2656 L398,344.2656 A0,0 0 0 0 398,344.2656 L398,314 L388,304 L345.79,304 L331.86,244.15 L337.79,304 L292,304 A0,0 0 0 0 292,304 " fill="#FEFFDD" style="stroke:#181818;stroke-width:0.5;"/><path d="M388,304 L388,314 L398,314 L388,304 " fill="#FEFFDD" style="stroke:#181818;stroke-width:0.5;"/><text fill="#000000" font-family="sans-serif" font-size="13" lengthAdjust="spacing" textLength="85" x="298" y="321.0669">See separate</text><text fill="#000000" font-family="sans-serif" font-size="13" lengthAdjust="spacing" textLength="54" x="298" y="336.1997">diagram</text></g><!--reverse link File to Scan--><g id="link_File_Scan"><path codeLine="9" d="M140.2185,145.4905 C122.3385,166.6205 111.31,179.65 97.71,195.71 " fill="none" id="File-backto-Scan" style="stroke:#181818;stroke-width:1.0;"/><polygon fill="#181818" points="147.97,136.33,141.0408,138.3264,140.2185,145.4905,147.1477,143.4941,147.97,136.33" style="stroke:#181818;stroke-width:1.0;"/></g><!--reverse link File to Setup--><g id="link_File_Setup"><path codeLine="10" d="M202,148.33 C202,169.46 202,179.65 202,195.71 " fill="none" id="File-backto-Setup" style="stroke:#181818;stroke-width:1.0;"/><polygon fill="#181818" points="202,136.33,198,142.33,202,148.33,206,142.33,202,136.33" style="stroke:#181818;stroke-width:1.0;"/></g><!--reverse link File to Plugin--><g id="link_File_Plugin"><path codeLine="11" d="M264.724,145.4286 C282.894,166.5586 294.15,179.65 307.97,195.71 " fill="none" id="File-backto-Plugin" style="stroke:#181818;stroke-width:1.0;"/><polygon fill="#181818" points="256.9,136.33,257.7791,143.4873,264.724,145.4286,263.8449,138.2713,256.9,136.33" style="stroke:#181818;stroke-width:1.0;"/><text fill="#000000" font-family="sans-serif" font-size="13" lengthAdjust="spacing" textLength="8" x="294.1127" y="185.0443">n</text></g><!--SRC=[TOun3i8m34LtdyBgYDGBS01c94PWCAsf8gLnb3Wig7SdSH58L6Hn_bDUlWTFEUF1USOdO3qFJjb9m3rcJIvC1hqCf1kQ1shaLCUQMKjie4qZqPV9XLpPqMxdAonWPRk-NyLlCkiJkz2z9O0WodWJLPbHxkQr5gwDaH8fNuBjCijOF6_VjvytWYtxnrYBVvNHqPHeXXS0]--></g></svg>