<?xml version="1.0" encoding="us-ascii" standalone="no"?><svg xmlns="http://www.w3.org/2000/svg" xmlns:xlink="http://www.w3.org/1999/xlink" contentStyleType="text/css" height="1020px" preserveAspectRatio="none" style="width:744px;height:1020px;background:#FFFFFF;" version="1.1" viewBox="0 0 744 1020" width="744px" zoomAndPan="magnify"><defs/><g><!--class Setup--><g id="elem_Setup"><rect codeLine="3" fill="#F1F1F1" height="77.775" id="Setup" rx="2" ry="2" style="stroke:#181818;stroke-width:0.4000000000000001;" width="112.8" x="411.6" y="12.4"/><ellipse cx="450.2" cy="25.2" fill="#ADD1B2" rx="8.8" ry="8.8" style="stroke:#181818;stroke-width:0.8000000000000002;"/><path d="M450.2375,30.1625 C451.4375,30.1625 452.425,29.7125 453.15,28.8625 L452.05,27.65 C451.6125,28.125 451.0875,28.4375 450.45,28.4375 C449.1125,28.4375 448.1875,27.375 448.1875,25.55 C448.1875,23.775 449.1125,22.7 450.3625,22.7 C451.0125,22.7 451.4875,22.95 451.9125,23.3375 L453.0125,22.1 C452.4125,21.5125 451.4875,20.975 450.3625,20.975 C448,20.975 446.1375,22.6875 446.1375,25.625 C446.1375,28.6 448.0375,30.1625 450.2375,30.1625 Z " fill="#000000"/><text fill="#000000" font-family="sans-serif" font-size="11.2" lengthAdjust="spacing" textLength="28.8" x="466.6" y="29.0281">Setup</text><line style="stroke:#181818;stroke-width:0.4000000000000001;" x1="412.4" x2="523.6" y1="38" y2="38"/><text fill="#000000" font-family="sans-serif" font-size="11.2" lengthAdjust="spacing" textLength="103.2" x="416.4" y="51.5906">detectors : Detector[]</text><text fill="#000000" font-family="sans-serif" font-size="11.2" lengthAdjust="spacing" textLength="80" x="416.4" y="64.7156">motors : Motor[]</text><text fill="#000000" font-family="sans-serif" font-size="11.2" lengthAdjust="spacing" textLength="82.4" x="416.4" y="77.8406">devices : Device[]</text><line style="stroke:#181818;stroke-width:0.4000000000000001;" x1="412.4" x2="523.6" y1="83.775" y2="83.775"/></g><!--class Detector--><g id="elem_Detector"><rect codeLine="80" fill="#F1F1F1" height="104.025" id="Detector" rx="2" ry="2" style="stroke:#181818;stroke-width:0.4000000000000001;" width="108.8" x="203.2" y="144.8"/><ellipse cx="233.56" cy="157.6" fill="#ADD1B2" rx="8.8" ry="8.8" style="stroke:#181818;stroke-width:0.8000000000000002;"/><path d="M233.5975,162.5625 C234.7975,162.5625 235.785,162.1125 236.51,161.2625 L235.41,160.05 C234.9725,160.525 234.4475,160.8375 233.81,160.8375 C232.4725,160.8375 231.5475,159.775 231.5475,157.95 C231.5475,156.175 232.4725,155.1 233.7225,155.1 C234.3725,155.1 234.8475,155.35 235.2725,155.7375 L236.3725,154.5 C235.7725,153.9125 234.8475,153.375 233.7225,153.375 C231.36,153.375 229.4975,155.0875 229.4975,158.025 C229.4975,161 231.3975,162.5625 233.5975,162.5625 Z " fill="#000000"/><text fill="#000000" font-family="sans-serif" font-size="11.2" lengthAdjust="spacing" textLength="42.4" x="248.84" y="161.4281">Detector</text><line style="stroke:#181818;stroke-width:0.4000000000000001;" x1="204" x2="311.2" y1="170.4" y2="170.4"/><text fill="#000000" font-family="sans-serif" font-size="11.2" lengthAdjust="spacing" textLength="75.2" x="208" y="183.9906">trigger : Access</text><text fill="#000000" font-family="sans-serif" font-size="11.2" lengthAdjust="spacing" textLength="64.8" x="208" y="197.1156">stop : Access</text><text fill="#000000" font-family="sans-serif" font-size="11.2" lengthAdjust="spacing" textLength="74.4" x="208" y="210.2406">status : Access</text><text fill="#000000" font-family="sans-serif" font-size="11.2" lengthAdjust="spacing" textLength="99.2" x="208" y="223.3656">channels : Channel[]</text><text fill="#000000" font-family="sans-serif" font-size="11.2" lengthAdjust="spacing" textLength="84.8" x="208" y="236.4906">options : Option[]</text><line style="stroke:#181818;stroke-width:0.4000000000000001;" x1="204" x2="311.2" y1="242.425" y2="242.425"/></g><!--class Motor--><g id="elem_Motor"><rect codeLine="108" fill="#F1F1F1" height="77.775" id="Motor" rx="2" ry="2" style="stroke:#181818;stroke-width:0.4000000000000001;" width="94.4" x="510.4" y="158"/><ellipse cx="539.68" cy="170.8" fill="#ADD1B2" rx="8.8" ry="8.8" style="stroke:#181818;stroke-width:0.8000000000000002;"/><path d="M539.7175,175.7625 C540.9175,175.7625 541.905,175.3125 542.63,174.4625 L541.53,173.25 C541.0925,173.725 540.5675,174.0375 539.93,174.0375 C538.5925,174.0375 537.6675,172.975 537.6675,171.15 C537.6675,169.375 538.5925,168.3 539.8425,168.3 C540.4925,168.3 540.9675,168.55 541.3925,168.9375 L542.4925,167.7 C541.8925,167.1125 540.9675,166.575 539.8425,166.575 C537.48,166.575 535.6175,168.2875 535.6175,171.225 C535.6175,174.2 537.5175,175.7625 539.7175,175.7625 Z " fill="#000000"/><text fill="#000000" font-family="sans-serif" font-size="11.2" lengthAdjust="spacing" textLength="30.4" x="554.72" y="174.6281">Motor</text><line style="stroke:#181818;stroke-width:0.4000000000000001;" x1="511.2" x2="604" y1="183.6" y2="183.6"/><text fill="#000000" font-family="sans-serif" font-size="11.2" lengthAdjust="spacing" textLength="75.2" x="515.2" y="197.1906">trigger : Access</text><text fill="#000000" font-family="sans-serif" font-size="11.2" lengthAdjust="spacing" textLength="57.6" x="515.2" y="210.3156">axes : Axis[]</text><text fill="#000000" font-family="sans-serif" font-size="11.2" lengthAdjust="spacing" textLength="84.8" x="515.2" y="223.4406">options : Option[]</text><line style="stroke:#181818;stroke-width:0.4000000000000001;" x1="511.2" x2="604" y1="229.375" y2="229.375"/></g><!--class Device--><g id="elem_Device"><rect codeLine="91" fill="#F1F1F1" height="77.775" id="Device" rx="2" ry="2" style="stroke:#181818;stroke-width:0.4000000000000001;" width="110.4" x="357.6" y="382.4"/><ellipse cx="393.4" cy="395.2" fill="#ADD1B2" rx="8.8" ry="8.8" style="stroke:#181818;stroke-width:0.8000000000000002;"/><path d="M393.4375,400.1625 C394.6375,400.1625 395.625,399.7125 396.35,398.8625 L395.25,397.65 C394.8125,398.125 394.2875,398.4375 393.65,398.4375 C392.3125,398.4375 391.3875,397.375 391.3875,395.55 C391.3875,393.775 392.3125,392.7 393.5625,392.7 C394.2125,392.7 394.6875,392.95 395.1125,393.3375 L396.2125,392.1 C395.6125,391.5125 394.6875,390.975 393.5625,390.975 C391.2,390.975 389.3375,392.6875 389.3375,395.625 C389.3375,398.6 391.2375,400.1625 393.4375,400.1625 Z " fill="#000000"/><text fill="#000000" font-family="sans-serif" font-size="11.2" lengthAdjust="spacing" textLength="32" x="409.8" y="399.0281">Device</text><line style="stroke:#181818;stroke-width:0.4000000000000001;" x1="358.4" x2="467.2" y1="408" y2="408"/><text fill="#000000" font-family="sans-serif" font-size="11.2" lengthAdjust="spacing" textLength="68.8" x="362.4" y="421.5906">value : Access</text><text fill="#000000" font-family="sans-serif" font-size="11.2" lengthAdjust="spacing" textLength="100.8" x="362.4" y="434.7156">displaygroup : string</text><text fill="#000000" font-family="sans-serif" font-size="11.2" lengthAdjust="spacing" textLength="84.8" x="362.4" y="447.8406">options : Option[]</text><line style="stroke:#181818;stroke-width:0.4000000000000001;" x1="358.4" x2="467.2" y1="453.775" y2="453.775"/></g><!--class File--><g id="elem_File"><rect fill="#F1F1F1" height="38.4" id="File" rx="2" ry="2" style="stroke:#181818;stroke-width:0.4000000000000001;" width="42.4" x="552.4" y="32"/><ellipse cx="564.4" cy="44.8" fill="#ADD1B2" rx="8.8" ry="8.8" style="stroke:#181818;stroke-width:0.8000000000000002;"/><path d="M564.4375,49.7625 C565.6375,49.7625 566.625,49.3125 567.35,48.4625 L566.25,47.25 C565.8125,47.725 565.2875,48.0375 564.65,48.0375 C563.3125,48.0375 562.3875,46.975 562.3875,45.15 C562.3875,43.375 563.3125,42.3 564.5625,42.3 C565.2125,42.3 565.6875,42.55 566.1125,42.9375 L567.2125,41.7 C566.6125,41.1125 565.6875,40.575 564.5625,40.575 C562.2,40.575 560.3375,42.2875 560.3375,45.225 C560.3375,48.2 562.2375,49.7625 564.4375,49.7625 Z " fill="#000000"/><text fill="#000000" font-family="sans-serif" font-size="11.2" lengthAdjust="spacing" textLength="16.8" x="575.6" y="48.6281">File</text><line style="stroke:#181818;stroke-width:0.4000000000000001;" x1="553.2" x2="594" y1="57.6" y2="57.6"/><line style="stroke:#181818;stroke-width:0.4000000000000001;" x1="553.2" x2="594" y1="64" y2="64"/></g><g id="elem_GMN11"><path d="M623.2,35.2 L623.2,48 L594.912,51.2 L623.2,54.4 L623.2,67.575 A0,0 0 0 0 623.2,67.575 L700,67.575 A0,0 0 0 0 700,67.575 L700,43.2 L692,35.2 L623.2,35.2 A0,0 0 0 0 623.2,35.2 " fill="#FEFFDD" style="stroke:#181818;stroke-width:0.4000000000000001;"/><path d="M692,35.2 L692,43.2 L700,43.2 L692,35.2 " fill="#FEFFDD" style="stroke:#181818;stroke-width:0.4000000000000001;"/><text fill="#000000" font-family="sans-serif" font-size="10.4" lengthAdjust="spacing" textLength="60" x="628" y="48.8484">See separate</text><text fill="#000000" font-family="sans-serif" font-size="10.4" lengthAdjust="spacing" textLength="52.8" x="628" y="61.0359">file module.</text></g><!--class AbstractDevice--><g id="elem_AbstractDevice"><rect codeLine="15" fill="#F1F1F1" height="90.9" id="AbstractDevice" rx="2" ry="2" style="stroke:#181818;stroke-width:0.4000000000000001;" width="100.8" x="207.2" y="5.6"/><ellipse cx="219.2" cy="18.4" fill="#ADD1B2" rx="8.8" ry="8.8" style="stroke:#181818;stroke-width:0.8000000000000002;"/><path d="M219.2375,23.3625 C220.4375,23.3625 221.425,22.9125 222.15,22.0625 L221.05,20.85 C220.6125,21.325 220.0875,21.6375 219.45,21.6375 C218.1125,21.6375 217.1875,20.575 217.1875,18.75 C217.1875,16.975 218.1125,15.9 219.3625,15.9 C220.0125,15.9 220.4875,16.15 220.9125,16.5375 L222.0125,15.3 C221.4125,14.7125 220.4875,14.175 219.3625,14.175 C217,14.175 215.1375,15.8875 215.1375,18.825 C215.1375,21.8 217.0375,23.3625 219.2375,23.3625 Z " fill="#000000"/><text fill="#000000" font-family="sans-serif" font-size="11.2" lengthAdjust="spacing" textLength="75.2" x="230.4" y="22.2281">AbstractDevice</text><line style="stroke:#181818;stroke-width:0.4000000000000001;" x1="208" x2="307.2" y1="31.2" y2="31.2"/><text fill="#000000" font-family="sans-serif" font-size="11.2" lengthAdjust="spacing" textLength="61.6" x="212" y="44.7906">class : string</text><text fill="#000000" font-family="sans-serif" font-size="11.2" lengthAdjust="spacing" textLength="64" x="212" y="57.9156">name : string</text><text fill="#000000" font-family="sans-serif" font-size="11.2" lengthAdjust="spacing" textLength="44.8" x="212" y="71.0406">id : string</text><text fill="#000000" font-family="sans-serif" font-size="11.2" lengthAdjust="spacing" textLength="46.4" x="212" y="84.1656">unit : Unit</text><line style="stroke:#181818;stroke-width:0.4000000000000001;" x1="208" x2="307.2" y1="90.1" y2="90.1"/></g><!--class Axis--><g id="elem_Axis"><rect codeLine="47" fill="#F1F1F1" height="248.4" id="Axis" rx="2" ry="2" style="stroke:#181818;stroke-width:0.4000000000000001;" width="122.4" x="553.2" y="296.8"/><ellipse cx="600.6" cy="309.6" fill="#ADD1B2" rx="8.8" ry="8.8" style="stroke:#181818;stroke-width:0.8000000000000002;"/><path d="M600.6375,314.5625 C601.8375,314.5625 602.825,314.1125 603.55,313.2625 L602.45,312.05 C602.0125,312.525 601.4875,312.8375 600.85,312.8375 C599.5125,312.8375 598.5875,311.775 598.5875,309.95 C598.5875,308.175 599.5125,307.1 600.7625,307.1 C601.4125,307.1 601.8875,307.35 602.3125,307.7375 L603.4125,306.5 C602.8125,305.9125 601.8875,305.375 600.7625,305.375 C598.4,305.375 596.5375,307.0875 596.5375,310.025 C596.5375,313 598.4375,314.5625 600.6375,314.5625 Z " fill="#000000"/><text fill="#000000" font-family="sans-serif" font-size="11.2" lengthAdjust="spacing" textLength="20.8" x="617" y="313.4281">Axis</text><line style="stroke:#181818;stroke-width:0.4000000000000001;" x1="554" x2="674.8" y1="322.4" y2="322.4"/><text fill="#000000" font-family="sans-serif" font-size="11.2" lengthAdjust="spacing" textLength="65.6" x="558" y="335.9906">goto : Access</text><text fill="#000000" font-family="sans-serif" font-size="11.2" lengthAdjust="spacing" textLength="82.4" x="558" y="349.1156">position : Access</text><text fill="#000000" font-family="sans-serif" font-size="11.2" lengthAdjust="spacing" textLength="64.8" x="558" y="362.2406">stop : Access</text><text fill="#000000" font-family="sans-serif" font-size="11.2" lengthAdjust="spacing" textLength="84.8" x="558" y="375.3656">highlimit : Access</text><text fill="#000000" font-family="sans-serif" font-size="11.2" lengthAdjust="spacing" textLength="80.8" x="558" y="388.4906">lowlimit : Access</text><text fill="#000000" font-family="sans-serif" font-size="11.2" lengthAdjust="spacing" textLength="105.6" x="558" y="401.6156">limitviolation : Access</text><text fill="#000000" font-family="sans-serif" font-size="11.2" lengthAdjust="spacing" textLength="74.4" x="558" y="414.7406">status : Access</text><text fill="#000000" font-family="sans-serif" font-size="11.2" lengthAdjust="spacing" textLength="94.4" x="558" y="427.8656">movedone : Access</text><text fill="#000000" font-family="sans-serif" font-size="11.2" lengthAdjust="spacing" textLength="75.2" x="558" y="440.9906">trigger : Access</text><text fill="#000000" font-family="sans-serif" font-size="11.2" lengthAdjust="spacing" textLength="92.8" x="558" y="454.1156">deadband : Access</text><text fill="#000000" font-family="sans-serif" font-size="11.2" lengthAdjust="spacing" textLength="72" x="558" y="467.2406">offset : Access</text><text fill="#000000" font-family="sans-serif" font-size="11.2" lengthAdjust="spacing" textLength="99.2" x="558" y="480.3656">tweakvalue : Access</text><text fill="#000000" font-family="sans-serif" font-size="11.2" lengthAdjust="spacing" textLength="112.8" x="558" y="493.4906">tweakforward : Access</text><text fill="#000000" font-family="sans-serif" font-size="11.2" lengthAdjust="spacing" textLength="108.8" x="558" y="506.6156">tweakreverse : Access</text><text fill="#000000" font-family="sans-serif" font-size="11.2" lengthAdjust="spacing" textLength="84.8" x="558" y="519.7406">options : Option[]</text><text fill="#000000" font-family="sans-serif" font-size="11.2" lengthAdjust="spacing" textLength="101.6" x="558" y="532.8656">save_value : boolean</text><line style="stroke:#181818;stroke-width:0.4000000000000001;" x1="554" x2="674.8" y1="538.8" y2="538.8"/></g><!--class Channel--><g id="elem_Channel"><rect codeLine="68" fill="#F1F1F1" height="130.275" id="Channel" rx="2" ry="2" style="stroke:#181818;stroke-width:0.4000000000000001;" width="111.2" x="104.4" y="356"/><ellipse cx="136.56" cy="368.8" fill="#ADD1B2" rx="8.8" ry="8.8" style="stroke:#181818;stroke-width:0.8000000000000002;"/><path d="M136.5975,373.7625 C137.7975,373.7625 138.785,373.3125 139.51,372.4625 L138.41,371.25 C137.9725,371.725 137.4475,372.0375 136.81,372.0375 C135.4725,372.0375 134.5475,370.975 134.5475,369.15 C134.5475,367.375 135.4725,366.3 136.7225,366.3 C137.3725,366.3 137.8475,366.55 138.2725,366.9375 L139.3725,365.7 C138.7725,365.1125 137.8475,364.575 136.7225,364.575 C134.36,364.575 132.4975,366.2875 132.4975,369.225 C132.4975,372.2 134.3975,373.7625 136.5975,373.7625 Z " fill="#000000"/><text fill="#000000" font-family="sans-serif" font-size="11.2" lengthAdjust="spacing" textLength="40.8" x="152.24" y="372.6281">Channel</text><line style="stroke:#181818;stroke-width:0.4000000000000001;" x1="105.2" x2="214.8" y1="381.6" y2="381.6"/><text fill="#000000" font-family="sans-serif" font-size="11.2" lengthAdjust="spacing" textLength="64.8" x="109.2" y="395.1906">read : Access</text><text fill="#000000" font-family="sans-serif" font-size="11.2" lengthAdjust="spacing" textLength="75.2" x="109.2" y="408.3156">trigger : Access</text><text fill="#000000" font-family="sans-serif" font-size="11.2" lengthAdjust="spacing" textLength="64.8" x="109.2" y="421.4406">stop : Access</text><text fill="#000000" font-family="sans-serif" font-size="11.2" lengthAdjust="spacing" textLength="74.4" x="109.2" y="434.5656">status : Access</text><text fill="#000000" font-family="sans-serif" font-size="11.2" lengthAdjust="spacing" textLength="84.8" x="109.2" y="447.6906">options : Option[]</text><text fill="#000000" font-family="sans-serif" font-size="11.2" lengthAdjust="spacing" textLength="88.8" x="109.2" y="460.8156">deferred : boolean</text><text fill="#000000" font-family="sans-serif" font-size="11.2" lengthAdjust="spacing" textLength="101.6" x="109.2" y="473.9406">save_value : boolean</text><line style="stroke:#181818;stroke-width:0.4000000000000001;" x1="105.2" x2="214.8" y1="479.875" y2="479.875"/></g><!--class Option--><g id="elem_Option"><rect codeLine="117" fill="#F1F1F1" height="90.9" id="Option" rx="2" ry="2" style="stroke:#181818;stroke-width:0.4000000000000001;" width="138.4" x="104.4" y="593.6"/><ellipse cx="153.4" cy="606.4" fill="#ADD1B2" rx="8.8" ry="8.8" style="stroke:#181818;stroke-width:0.8000000000000002;"/><path d="M153.4375,611.3625 C154.6375,611.3625 155.625,610.9125 156.35,610.0625 L155.25,608.85 C154.8125,609.325 154.2875,609.6375 153.65,609.6375 C152.3125,609.6375 151.3875,608.575 151.3875,606.75 C151.3875,604.975 152.3125,603.9 153.5625,603.9 C154.2125,603.9 154.6875,604.15 155.1125,604.5375 L156.2125,603.3 C155.6125,602.7125 154.6875,602.175 153.5625,602.175 C151.2,602.175 149.3375,603.8875 149.3375,606.825 C149.3375,609.8 151.2375,611.3625 153.4375,611.3625 Z " fill="#000000"/><text fill="#000000" font-family="sans-serif" font-size="11.2" lengthAdjust="spacing" textLength="33.6" x="169.8" y="610.2281">Option</text><line style="stroke:#181818;stroke-width:0.4000000000000001;" x1="105.2" x2="242" y1="619.2" y2="619.2"/><text fill="#000000" font-family="sans-serif" font-size="11.2" lengthAdjust="spacing" textLength="68.8" x="109.2" y="632.7906">value : Access</text><text fill="#000000" font-family="sans-serif" font-size="11.2" lengthAdjust="spacing" textLength="100.8" x="109.2" y="645.9156">displaygroup : string</text><text fill="#000000" font-family="sans-serif" font-size="11.2" lengthAdjust="spacing" textLength="86.4" x="109.2" y="659.0406">monitor : boolean</text><text fill="#000000" font-family="sans-serif" font-size="11.2" lengthAdjust="spacing" textLength="128.8" x="109.2" y="672.1656">autoacquire : AutoAcquire</text><line style="stroke:#181818;stroke-width:0.4000000000000001;" x1="105.2" x2="242" y1="678.1" y2="678.1"/></g><!--class Unit--><g id="elem_Unit"><rect codeLine="131" fill="#F1F1F1" height="51.525" id="Unit" rx="2" ry="2" style="stroke:#181818;stroke-width:0.4000000000000001;" width="93.6" x="55.6" y="930.4"/><ellipse cx="89.2" cy="943.2" fill="#ADD1B2" rx="8.8" ry="8.8" style="stroke:#181818;stroke-width:0.8000000000000002;"/><path d="M89.2375,948.1625 C90.4375,948.1625 91.425,947.7125 92.15,946.8625 L91.05,945.65 C90.6125,946.125 90.0875,946.4375 89.45,946.4375 C88.1125,946.4375 87.1875,945.375 87.1875,943.55 C87.1875,941.775 88.1125,940.7 89.3625,940.7 C90.0125,940.7 90.4875,940.95 90.9125,941.3375 L92.0125,940.1 C91.4125,939.5125 90.4875,938.975 89.3625,938.975 C87,938.975 85.1375,940.6875 85.1375,943.625 C85.1375,946.6 87.0375,948.1625 89.2375,948.1625 Z " fill="#000000"/><text fill="#000000" font-family="sans-serif" font-size="11.2" lengthAdjust="spacing" textLength="20" x="105.2" y="947.0281">Unit</text><line style="stroke:#181818;stroke-width:0.4000000000000001;" x1="56.4" x2="148.4" y1="956" y2="956"/><text fill="#000000" font-family="sans-serif" font-size="11.2" lengthAdjust="spacing" textLength="84" x="60.4" y="969.5906">unitstring : string</text><line style="stroke:#181818;stroke-width:0.4000000000000001;" x1="56.4" x2="148.4" y1="975.525" y2="975.525"/></g><!--class Access--><g id="elem_Access"><rect codeLine="29" fill="#F1F1F1" height="117.15" id="Access" rx="2" ry="2" style="stroke:#181818;stroke-width:0.4000000000000001;" width="113.6" x="415.2" y="732.8"/><ellipse cx="451" cy="745.6" fill="#ADD1B2" rx="8.8" ry="8.8" style="stroke:#181818;stroke-width:0.8000000000000002;"/><path d="M451.0375,750.5625 C452.2375,750.5625 453.225,750.1125 453.95,749.2625 L452.85,748.05 C452.4125,748.525 451.8875,748.8375 451.25,748.8375 C449.9125,748.8375 448.9875,747.775 448.9875,745.95 C448.9875,744.175 449.9125,743.1 451.1625,743.1 C451.8125,743.1 452.2875,743.35 452.7125,743.7375 L453.8125,742.5 C453.2125,741.9125 452.2875,741.375 451.1625,741.375 C448.8,741.375 446.9375,743.0875 446.9375,746.025 C446.9375,749 448.8375,750.5625 451.0375,750.5625 Z " fill="#000000"/><text fill="#000000" font-family="sans-serif" font-size="11.2" lengthAdjust="spacing" textLength="35.2" x="467.4" y="749.4281">Access</text><line style="stroke:#181818;stroke-width:0.4000000000000001;" x1="416" x2="528" y1="758.4" y2="758.4"/><text fill="#000000" font-family="sans-serif" font-size="11.2" lengthAdjust="spacing" textLength="81.6" x="420" y="771.9906">value : typevalue</text><text fill="#000000" font-family="sans-serif" font-size="11.2" lengthAdjust="spacing" textLength="84" x="420" y="785.1156">method : Method</text><text fill="#000000" font-family="sans-serif" font-size="11.2" lengthAdjust="spacing" textLength="70.4" x="420" y="798.2406">count : integer</text><text fill="#000000" font-family="sans-serif" font-size="11.2" lengthAdjust="spacing" textLength="104" x="420" y="811.3656">transport : Transport</text><text fill="#000000" font-family="sans-serif" font-size="11.2" lengthAdjust="spacing" textLength="68.8" x="420" y="824.4906">timeout : float</text><text fill="#000000" font-family="sans-serif" font-size="11.2" lengthAdjust="spacing" textLength="86.4" x="420" y="837.6156">monitor : boolean</text><line style="stroke:#181818;stroke-width:0.4000000000000001;" x1="416" x2="528" y1="843.55" y2="843.55"/></g><!--class Method--><g id="elem_Method"><rect codeLine="99" fill="#F1F1F1" height="117.15" id="Method" rx="2" ry="2" style="stroke:#181818;stroke-width:0.4000000000000001;" width="132.8" x="340" y="897.6"/><ellipse cx="383.8" cy="910.4" fill="#EB937F" rx="8.8" ry="8.8" style="stroke:#181818;stroke-width:0.8000000000000002;"/><path d="M380.65,915.2 L386.6625,915.2 L386.6625,913.5125 L382.6625,913.5125 L382.6625,911.475 L385.9375,911.475 L385.9375,909.8 L382.6625,909.8 L382.6625,908.025 L386.525,908.025 L386.525,906.3375 L380.65,906.3375 L380.65,915.2 Z " fill="#000000"/><text fill="#000000" font-family="sans-serif" font-size="11.2" lengthAdjust="spacing" textLength="38.4" x="400.2" y="914.2281">Method</text><line style="stroke:#181818;stroke-width:0.4000000000000001;" x1="340.8" x2="472" y1="923.2" y2="923.2"/><text fill="#000000" font-family="sans-serif" font-size="11.2" lengthAdjust="spacing" textLength="52.8" x="344.8" y="936.7906">PUT = PUT</text><text fill="#000000" font-family="sans-serif" font-size="11.2" lengthAdjust="spacing" textLength="81.6" x="344.8" y="949.9156">PUTCB = PUTCB</text><text fill="#000000" font-family="sans-serif" font-size="11.2" lengthAdjust="spacing" textLength="52.8" x="344.8" y="963.0406">GET = GET</text><text fill="#000000" font-family="sans-serif" font-size="11.2" lengthAdjust="spacing" textLength="81.6" x="344.8" y="976.1656">GETCB = GETCB</text><text fill="#000000" font-family="sans-serif" font-size="11.2" lengthAdjust="spacing" textLength="94.4" x="344.8" y="989.2906">GETPUT = GETPUT</text><text fill="#000000" font-family="sans-serif" font-size="11.2" lengthAdjust="spacing" textLength="123.2" x="344.8" y="1002.4156">GETPUTCB = GETPUTCB</text><line style="stroke:#181818;stroke-width:0.4000000000000001;" x1="340.8" x2="472" y1="1008.35" y2="1008.35"/></g><!--class Transport--><g id="elem_Transport"><rect codeLine="126" fill="#F1F1F1" height="64.65" id="Transport" rx="2" ry="2" style="stroke:#181818;stroke-width:0.4000000000000001;" width="75.2" x="500.8" y="923.6"/><ellipse cx="512.8" cy="936.4" fill="#EB937F" rx="8.8" ry="8.8" style="stroke:#181818;stroke-width:0.8000000000000002;"/><path d="M509.65,941.2 L515.6625,941.2 L515.6625,939.5125 L511.6625,939.5125 L511.6625,937.475 L514.9375,937.475 L514.9375,935.8 L511.6625,935.8 L511.6625,934.025 L515.525,934.025 L515.525,932.3375 L509.65,932.3375 L509.65,941.2 Z " fill="#000000"/><text fill="#000000" font-family="sans-serif" font-size="11.2" lengthAdjust="spacing" textLength="49.6" x="524" y="940.2281">Transport</text><line style="stroke:#181818;stroke-width:0.4000000000000001;" x1="501.6" x2="575.2" y1="949.2" y2="949.2"/><text fill="#000000" font-family="sans-serif" font-size="11.2" lengthAdjust="spacing" textLength="35.2" x="505.6" y="962.7906">ca = ca</text><text fill="#000000" font-family="sans-serif" font-size="11.2" lengthAdjust="spacing" textLength="57.6" x="505.6" y="975.9156">local = local</text><line style="stroke:#181818;stroke-width:0.4000000000000001;" x1="501.6" x2="575.2" y1="981.85" y2="981.85"/></g><!--class AutoAcquire--><g id="elem_AutoAcquire"><rect codeLine="41" fill="#F1F1F1" height="77.775" id="AutoAcquire" rx="2" ry="2" style="stroke:#181818;stroke-width:0.4000000000000001;" width="158.4" x="271.2" y="600.4"/><ellipse cx="316.2" cy="613.2" fill="#EB937F" rx="8.8" ry="8.8" style="stroke:#181818;stroke-width:0.8000000000000002;"/><path d="M313.05,618 L319.0625,618 L319.0625,616.3125 L315.0625,616.3125 L315.0625,614.275 L318.3375,614.275 L318.3375,612.6 L315.0625,612.6 L315.0625,610.825 L318.925,610.825 L318.925,609.1375 L313.05,609.1375 L313.05,618 Z " fill="#000000"/><text fill="#000000" font-family="sans-serif" font-size="11.2" lengthAdjust="spacing" textLength="61.6" x="332.6" y="617.0281">AutoAcquire</text><line style="stroke:#181818;stroke-width:0.4000000000000001;" x1="272" x2="428.8" y1="626" y2="626"/><text fill="#000000" font-family="sans-serif" font-size="11.2" lengthAdjust="spacing" textLength="105.6" x="276" y="639.5906">snapshot = snapshot</text><text fill="#000000" font-family="sans-serif" font-size="11.2" lengthAdjust="spacing" textLength="148.8" x="276" y="652.7156">measurement = measurement</text><text fill="#000000" font-family="sans-serif" font-size="11.2" lengthAdjust="spacing" textLength="36.8" x="276" y="665.8406">no = no</text><line style="stroke:#181818;stroke-width:0.4000000000000001;" x1="272" x2="428.8" y1="671.775" y2="671.775"/></g><!--reverse link Setup to Detector--><g id="link_Setup_Detector"><path codeLine="8" d="M404.5256,95.4458 C373.4776,116.6938 342.872,137.64 312.008,158.76 " fill="none" id="Setup-backto-Detector" style="stroke:#181818;stroke-width:0.8000000000000002;"/><polygon fill="#181818" points="412.448,90.024,406.6795,90.0941,404.5256,95.4458,410.2941,95.3757,412.448,90.024" style="stroke:#181818;stroke-width:0.8000000000000002;"/><text fill="#000000" font-family="sans-serif" font-size="10.4" lengthAdjust="spacing" textLength="5.6" x="318.2651" y="151.6004">n</text></g><!--reverse link Setup to Motor--><g id="link_Setup_Motor"><path codeLine="9" d="M496.8474,98.3591 C509.8634,119.2791 520.864,136.96 533.872,157.864 " fill="none" id="Setup-backto-Motor" style="stroke:#181818;stroke-width:0.8000000000000002;"/><polygon fill="#181818" points="491.776,90.208,491.5947,95.974,496.8474,98.3591,497.0288,92.5931,491.776,90.208" style="stroke:#181818;stroke-width:0.8000000000000002;"/><text fill="#000000" font-family="sans-serif" font-size="10.4" lengthAdjust="spacing" textLength="5.6" x="524.5415" y="149.1942">n</text></g><!--reverse link Setup to Device--><g id="link_Setup_Device"><path codeLine="10" d="M460.8812,99.534 C450.2892,170.214 429.112,311.552 418.512,382.296 " fill="none" id="Setup-backto-Device" style="stroke:#181818;stroke-width:0.8000000000000002;"/><polygon fill="#181818" points="462.304,90.04,458.428,94.3127,460.8812,99.534,464.7573,95.2612,462.304,90.04" style="stroke:#181818;stroke-width:0.8000000000000002;"/><text fill="#000000" font-family="sans-serif" font-size="10.4" lengthAdjust="spacing" textLength="5.6" x="413.3397" y="373.3501">n</text></g><!--link Setup to File--><g id="link_Setup_File"><path codeLine="12" d="M524.512,51.2 C533.72,51.2 533.32,51.2 542.528,51.2 " fill="none" id="Setup-to-File" style="stroke:#181818;stroke-width:0.8000000000000002;"/><polygon fill="#181818" points="552.128,51.2,547.328,48,542.528,51.2,547.328,54.4,552.128,51.2" style="stroke:#181818;stroke-width:0.8000000000000002;"/></g><!--reverse link AbstractDevice to Detector--><g id="link_AbstractDevice_Detector"><path codeLine="21" d="M257.6,111.568 C257.6,126.664 257.6,129.192 257.6,144.72 " fill="none" id="AbstractDevice-backto-Detector" style="stroke:#181818;stroke-width:0.8000000000000002;"/><polygon fill="none" points="257.6,97.168,252.8,111.568,262.4,111.568,257.6,97.168" style="stroke:#181818;stroke-width:0.8000000000000002;"/></g><!--reverse link AbstractDevice to Motor--><g id="link_AbstractDevice_Motor"><path codeLine="22" d="M321.1335,82.4962 C377.5735,109.5922 455.224,146.864 510.312,173.304 " fill="none" id="AbstractDevice-backto-Motor" style="stroke:#181818;stroke-width:0.8000000000000002;"/><polygon fill="none" points="308.152,76.264,319.0561,86.8234,323.2109,78.1691,308.152,76.264" style="stroke:#181818;stroke-width:0.8000000000000002;"/></g><!--reverse link AbstractDevice to Device--><g id="link_AbstractDevice_Device"><path codeLine="23" d="M304.3242,108.4687 C315.3402,123.0607 317.984,128.264 326.4,144.8 C367.12,224.792 393.136,327.664 405.104,382.312 " fill="none" id="AbstractDevice-backto-Device" style="stroke:#181818;stroke-width:0.8000000000000002;"/><polygon fill="none" points="295.648,96.976,300.4933,111.3608,308.1552,105.5766,295.648,96.976" style="stroke:#181818;stroke-width:0.8000000000000002;"/></g><!--reverse link AbstractDevice to Axis--><g id="link_AbstractDevice_Axis"><path codeLine="24" d="M319.2111,101.051 C338.4911,116.931 349.216,126.584 368,144.8 C434.688,209.48 504.736,289.128 553.024,346.144 " fill="none" id="AbstractDevice-backto-Axis" style="stroke:#181818;stroke-width:0.8000000000000002;"/><polygon fill="none" points="308.096,91.896,316.1595,104.756,322.2628,97.3459,308.096,91.896" style="stroke:#181818;stroke-width:0.8000000000000002;"/></g><!--reverse link AbstractDevice to Channel--><g id="link_AbstractDevice_Channel"><path codeLine="25" d="M208.8099,108.3554 C198.0099,122.7394 196.168,127.856 189.6,144.8 C163,213.456 157.616,298.488 157.6,355.8 " fill="none" id="AbstractDevice-backto-Channel" style="stroke:#181818;stroke-width:0.8000000000000002;"/><polygon fill="none" points="217.456,96.84,204.9714,105.4733,212.6483,111.2374,217.456,96.84" style="stroke:#181818;stroke-width:0.8000000000000002;"/></g><!--reverse link AbstractDevice to Option--><g id="link_AbstractDevice_Option"><path codeLine="26" d="M196.2577,101.2258 C179.0257,116.5058 171.424,125.424 157.6,144.8 C114.712,204.936 105.664,224.528 90.4,296.8 C67.552,404.992 50.88,442.328 90.4,545.6 C97.128,563.184 108.888,579.528 121.488,593.456 " fill="none" id="AbstractDevice-backto-Option" style="stroke:#181818;stroke-width:0.8000000000000002;"/><polygon fill="none" points="207.032,91.672,193.0731,97.6344,199.4423,104.8172,207.032,91.672" style="stroke:#181818;stroke-width:0.8000000000000002;"/></g><!--reverse link AbstractDevice to Unit--><g id="link_AbstractDevice_Unit"><path codeLine="27" d="M198.0486,73.5071 C162.4086,88.4271 124.944,109.336 96,144.8 C14.416,244.752 4.8,291.376 4.8,420.4 C4.8,420.4 4.8,420.4 4.8,640 C4.8,752.568 62.304,878.032 89.032,930.28 " fill="none" id="AbstractDevice-backto-Unit" style="stroke:#181818;stroke-width:0.8000000000000002;"/><polygon fill="#181818" points="206.904,69.8,201.2406,68.7018,198.0486,73.5071,203.712,74.6053,206.904,69.8" style="stroke:#181818;stroke-width:0.8000000000000002;"/></g><!--reverse link Access to Unit--><g id="link_Access_Unit"><path codeLine="37" d="M401.8828,822.96 C328.9868,855.144 217.2,904.504 149.432,934.432 " fill="none" id="Access-backto-Unit" style="stroke:#181818;stroke-width:0.8000000000000002;"/><polygon fill="none" points="415.056,817.144,399.9441,818.569,403.8215,827.3511,415.056,817.144" style="stroke:#181818;stroke-width:0.8000000000000002;"/></g><!--reverse link Access to Method--><g id="link_Access_Method"><path codeLine="38" d="M445.198,858.6763 C438.974,874.1723 435.816,882.016 429.592,897.512 " fill="none" id="Access-backto-Method" style="stroke:#181818;stroke-width:0.8000000000000002;"/><polygon fill="#181818" points="448.776,849.768,444.0176,853.0295,445.198,858.6763,449.9564,855.4148,448.776,849.768" style="stroke:#181818;stroke-width:0.8000000000000002;"/></g><!--reverse link Access to Transport--><g id="link_Access_Transport"><path codeLine="39" d="M499.1213,858.6604 C509.1933,883.4204 516.952,902.488 525.464,923.4 " fill="none" id="Access-backto-Transport" style="stroke:#181818;stroke-width:0.8000000000000002;"/><polygon fill="#181818" points="495.504,849.768,494.3485,855.42,499.1213,858.6604,500.2768,853.0084,495.504,849.768" style="stroke:#181818;stroke-width:0.8000000000000002;"/></g><!--reverse link Axis to Access--><g id="link_Axis_Access"><path codeLine="65" d="M565.7958,554.6852 C549.4038,598.7332 533.872,639.608 516,684.8 C509.832,700.408 502.936,717.216 496.472,732.736 " fill="none" id="Axis-backto-Access" style="stroke:#181818;stroke-width:0.8000000000000002;"/><polygon fill="#181818" points="569.144,545.688,564.4708,549.0705,565.7958,554.6852,570.469,551.3027,569.144,545.688" style="stroke:#181818;stroke-width:0.8000000000000002;"/><text fill="#000000" font-family="sans-serif" font-size="10.4" lengthAdjust="spacing" textLength="5.6" x="493.1069" y="723.7282">n</text></g><!--reverse link Axis to Option--><g id="link_Axis_Option"><path codeLine="66" d="M546.1959,534.5163 C539.4919,541.2363 539.008,540.528 531.2,545.6 C427.664,612.84 374.32,553.384 257.6,593.6 C252.752,595.272 247.856,597.192 242.976,599.28 " fill="none" id="Axis-backto-Option" style="stroke:#181818;stroke-width:0.8000000000000002;"/><polygon fill="#181818" points="552.976,527.72,547.3205,528.8581,546.1959,534.5163,551.8514,533.3782,552.976,527.72" style="stroke:#181818;stroke-width:0.8000000000000002;"/><text fill="#000000" font-family="sans-serif" font-size="10.4" lengthAdjust="spacing" textLength="5.6" x="249.1786" y="593.0031">n</text></g><!--reverse link Channel to Access--><g id="link_Channel_Access"><path codeLine="77" d="M109.6116,494.8935 C75.4916,552.1175 46.456,627.048 90.4,684.8 C129.68,736.432 318.48,769.328 414.968,783.056 " fill="none" id="Channel-backto-Access" style="stroke:#181818;stroke-width:0.8000000000000002;"/><polygon fill="#181818" points="114.528,486.648,109.3213,489.132,109.6116,494.8935,114.8183,492.4096,114.528,486.648" style="stroke:#181818;stroke-width:0.8000000000000002;"/><text fill="#000000" font-family="sans-serif" font-size="10.4" lengthAdjust="spacing" textLength="5.6" x="403.1978" y="779.2375">n</text></g><!--reverse link Channel to Option--><g id="link_Channel_Option"><path codeLine="78" d="M164.666,496.2131 C166.826,530.5891 168.824,562.424 170.768,593.304 " fill="none" id="Channel-backto-Option" style="stroke:#181818;stroke-width:0.8000000000000002;"/><polygon fill="#181818" points="164.064,486.632,161.1713,491.6232,164.666,496.2131,167.5587,491.2219,164.064,486.632" style="stroke:#181818;stroke-width:0.8000000000000002;"/><text fill="#000000" font-family="sans-serif" font-size="10.4" lengthAdjust="spacing" textLength="5.6" x="164.4816" y="584.6573">n</text></g><!--reverse link Detector to Access--><g id="link_Detector_Access"><path codeLine="87" d="M266.3237,258.4428 C279.2997,343.7468 307.104,500.28 344,545.6 C375.128,583.832 414.864,553.832 444,593.6 C473.216,633.48 478.504,690.352 477.496,732.712 " fill="none" id="Detector-backto-Access" style="stroke:#181818;stroke-width:0.8000000000000002;"/><polygon fill="#181818" points="264.88,248.952,262.4382,254.1786,266.3237,258.4428,268.7655,253.2162,264.88,248.952" style="stroke:#181818;stroke-width:0.8000000000000002;"/><text fill="#000000" font-family="sans-serif" font-size="10.4" lengthAdjust="spacing" textLength="5.6" x="472.174" y="723.7017">n</text></g><!--reverse link Detector to Channel--><g id="link_Detector_Channel"><path codeLine="88" d="M231.2355,257.7851 C217.2995,289.5931 203.144,321.912 188.256,355.896 " fill="none" id="Detector-backto-Channel" style="stroke:#181818;stroke-width:0.8000000000000002;"/><polygon fill="#181818" points="235.088,248.992,230.2307,252.1044,231.2355,257.7851,236.0928,254.6727,235.088,248.992" style="stroke:#181818;stroke-width:0.8000000000000002;"/><text fill="#000000" font-family="sans-serif" font-size="10.4" lengthAdjust="spacing" textLength="5.6" x="185.0027" y="346.9855">n</text></g><!--reverse link Detector to Option--><g id="link_Detector_Option"><path codeLine="89" d="M261.0533,258.4493 C263.6293,327.6093 262.264,444.208 229.6,545.6 C224.264,562.168 215.472,578.88 206.416,593.464 " fill="none" id="Detector-backto-Option" style="stroke:#181818;stroke-width:0.8000000000000002;"/><polygon fill="#181818" points="260.696,248.856,257.6769,253.7718,261.0533,258.4493,264.0724,253.5336,260.696,248.856" style="stroke:#181818;stroke-width:0.8000000000000002;"/><text fill="#000000" font-family="sans-serif" font-size="10.4" lengthAdjust="spacing" textLength="5.6" x="204.6618" y="584.515">n</text></g><!--reverse link Device to Access--><g id="link_Device_Access"><path codeLine="96" d="M441.3243,468.4473 C460.7883,502.1193 482.024,544.984 492.8,593.6 C503.04,639.808 496.24,693.264 487.768,732.8 " fill="none" id="Device-backto-Access" style="stroke:#181818;stroke-width:0.8000000000000002;"/><polygon fill="#181818" points="436.52,460.136,436.1517,465.8931,441.3243,468.4473,441.6926,462.6902,436.52,460.136" style="stroke:#181818;stroke-width:0.8000000000000002;"/></g><!--reverse link Device to Option--><g id="link_Device_Option"><path codeLine="97" d="M365.1003,466.6846 C338.7563,491.2606 310.648,517.248 279.2,545.6 C261.712,561.376 242.4,578.44 225.128,593.584 " fill="none" id="Device-backto-Option" style="stroke:#181818;stroke-width:0.8000000000000002;"/><polygon fill="#181818" points="372.12,460.136,366.4273,461.0704,365.1003,466.6846,370.793,465.7502,372.12,460.136" style="stroke:#181818;stroke-width:0.8000000000000002;"/><text fill="#000000" font-family="sans-serif" font-size="10.4" lengthAdjust="spacing" textLength="5.6" x="225.7713" y="584.6504">n</text></g><!--reverse link Motor to Access--><g id="link_Motor_Access"><path codeLine="113" d="M613.3718,223.621 C643.6438,240.133 671.992,261.536 689.6,296.8 C739,395.728 728.896,442.24 689.6,545.6 C657.624,629.712 582.024,703.376 528.96,747.376 " fill="none" id="Motor-backto-Access" style="stroke:#181818;stroke-width:0.8000000000000002;"/><polygon fill="#181818" points="604.944,219.024,607.6256,224.1318,613.3718,223.621,610.6902,218.5132,604.944,219.024" style="stroke:#181818;stroke-width:0.8000000000000002;"/></g><!--reverse link Motor to Axis--><g id="link_Motor_Axis"><path codeLine="114" d="M569.6699,244.9499 C574.0779,262.2219 577.192,274.432 582.84,296.608 " fill="none" id="Motor-backto-Axis" style="stroke:#181818;stroke-width:0.8000000000000002;"/><polygon fill="#181818" points="567.296,235.648,565.3823,241.0902,569.6699,244.9499,571.5836,239.5076,567.296,235.648" style="stroke:#181818;stroke-width:0.8000000000000002;"/><text fill="#000000" font-family="sans-serif" font-size="10.4" lengthAdjust="spacing" textLength="5.6" x="575.5757" y="287.9451">n</text></g><!--reverse link Motor to Option--><g id="link_Motor_Option"><path codeLine="115" d="M548.7407,245.1552 C532.2127,333.1952 493.464,534.56 482.4,545.6 C410.072,617.752 353.56,558.552 257.6,593.6 C252.712,595.384 247.752,597.408 242.816,599.592 " fill="none" id="Motor-backto-Option" style="stroke:#181818;stroke-width:0.8000000000000002;"/><polygon fill="#181818" points="550.512,235.72,546.4813,239.8472,548.7407,245.1552,552.7714,241.028,550.512,235.72" style="stroke:#181818;stroke-width:0.8000000000000002;"/><text fill="#000000" font-family="sans-serif" font-size="10.4" lengthAdjust="spacing" textLength="5.6" x="249.2299" y="606.2689">n</text></g><!--reverse link Option to Access--><g id="link_Option_Access"><path codeLine="123" d="M251.463,681.6571 C256.415,684.2411 252.824,682.352 257.6,684.8 C310.672,712.016 371.744,741.96 415.096,762.992 " fill="none" id="Option-backto-Access" style="stroke:#181818;stroke-width:0.8000000000000002;"/><polygon fill="#181818" points="242.952,677.216,245.7271,682.2735,251.463,681.6571,248.6879,676.5996,242.952,677.216" style="stroke:#181818;stroke-width:0.8000000000000002;"/></g><!--reverse link Option to AutoAcquire--><g id="link_Option_AutoAcquire"><path codeLine="124" d="M252.608,639.2 C261.976,639.2 261.744,639.2 271.112,639.2 " fill="none" id="Option-backto-AutoAcquire" style="stroke:#181818;stroke-width:0.8000000000000002;"/><polygon fill="#181818" points="243.008,639.2,247.808,642.4,252.608,639.2,247.808,636,243.008,639.2" style="stroke:#181818;stroke-width:0.8000000000000002;"/></g><!--SRC=[fPN9Rjim48RlUWeYbm817D-Dzk2aoobeWIQdjYWOSIGJfJWgITa9shnxXviioefHj3vOv3Voy9_5mrSxvtgxMQzxnRKREdLLOxUk5RTs9IHl3U-gAcpPPt13ptvLZ3u27DGEZMKRzZQjltmBfWuJlyKZ5B2NDSIt_OhmSnKTNgvMx49VZ6vcE7WvUTNxg19TNRBtKa6bqG4pijqvXar06z8Cp4BF3NVmLJV4I9yO55pbgBOFrXbUk-WpXHTD6qOcgTk0DE-W95AK-q5BH-IU7XJSpE_htwHz377960DT_ba8TycqVPHsqN2purg3MhHzx9r4FJVvv0RjEJ4r5SocXEov6dpuxgc7i8wb1hT3duNRi8Yfmq7xD4Zje0KJ61sZRO_6yxkyZXRP0GwUDmgvImr4Aj0GUq1KmBNFPXGJv0UH2NZHwV09EPvHWHuwjXqSRkkVWpIvm5RptkxGiJVZCaN4xM2W0-rDarti0IIeaVJa757wayUMoaUIeuf0UhJI9xgarc5VaXsrh99TQ9u9LdXOeXxj9Ig-v9gxmPQimpq8r51IQjgMYbD20LmyS2rAYarZOIR27O3_o2qnvmsQ0pTYmM9W3yREVeEX6Rtgs9PfO5Y-X-_vY4aV-8JdCP2y52prTgfF-XUa4XaAy2_oS5gXfSI-e5j00yQ0cAW-4qxMDujeZikWyXH9KVr737KynzDqP8fY8RZdQZntflQ4vzbpOfZ7CPcu2zqafALBwQarEFJbf7r1tZZ6Hc4ZcPuUHa8S6kdmJ_TtzCUcxxoxkOxxc-j0FhppTlhEks0FpqoYYxYOiFnYz3NEZJ3hpzMFFuRBqhVskP94FvEGZo0KoDyE9IfB47V_KeBJ8Hraqw3bQT1kfcENjAQp9c97KhmPwpEEy7mZSqfapTDahBcYRNWUa-hlXVIslugZsAFgv-eF]--></g></svg>