<?xml version="1.0" encoding="us-ascii" standalone="no"?><svg xmlns="http://www.w3.org/2000/svg" xmlns:xlink="http://www.w3.org/1999/xlink" contentStyleType="text/css" height="871px" preserveAspectRatio="none" style="width:780px;height:871px;background:#FFFFFF;" version="1.1" viewBox="0 0 780 871" width="780px" zoomAndPan="magnify"><defs/><g><!--cluster measurement--><g id="cluster_measurement"><path d="M8.5,6 L98.5,6 A3.75,3.75 0 0 1 101,8.5 L108,28.4063 L770.5,28.4063 A2.5,2.5 0 0 1 773,30.9063 L773,318.5 A2.5,2.5 0 0 1 770.5,321 L8.5,321 A2.5,2.5 0 0 1 6,318.5 L6,8.5 A2.5,2.5 0 0 1 8.5,6 " fill="none" style="stroke:#000000;stroke-width:1.5;"/><line style="stroke:#000000;stroke-width:1.5;" x1="6" x2="108" y1="28.4063" y2="28.4063"/><text fill="#000000" font-family="sans-serif" font-size="14" font-weight="bold" lengthAdjust="spacing" textLength="89" x="10" y="20.9883">measurement</text></g><!--cluster entities--><g id="cluster_entities"><path d="M32.5,49 L82.5,49 A3.75,3.75 0 0 1 85,51.5 L92,71.4063 L746.5,71.4063 A2.5,2.5 0 0 1 749,73.9063 L749,294.5 A2.5,2.5 0 0 1 746.5,297 L32.5,297 A2.5,2.5 0 0 1 30,294.5 L30,51.5 A2.5,2.5 0 0 1 32.5,49 " fill="none" style="stroke:#000000;stroke-width:1.5;"/><line style="stroke:#000000;stroke-width:1.5;" x1="30" x2="92" y1="71.4063" y2="71.4063"/><text fill="#000000" font-family="sans-serif" font-size="14" font-weight="bold" lengthAdjust="spacing" textLength="49" x="34" y="63.9883">entities</text></g><!--cluster measurement--><g id="cluster_measurement"><path d="M204.5,92 L294.5,92 A3.75,3.75 0 0 1 297,94.5 L304,114.4063 L722.5,114.4063 A2.5,2.5 0 0 1 725,116.9063 L725,270.5 A2.5,2.5 0 0 1 722.5,273 L204.5,273 A2.5,2.5 0 0 1 202,270.5 L202,94.5 A2.5,2.5 0 0 1 204.5,92 " fill="none" style="stroke:#000000;stroke-width:1.5;"/><line style="stroke:#000000;stroke-width:1.5;" x1="202" x2="304" y1="114.4063" y2="114.4063"/><text fill="#000000" font-family="sans-serif" font-size="14" font-weight="bold" lengthAdjust="spacing" textLength="89" x="206" y="106.9883">measurement</text></g><!--cluster metadata--><g id="cluster_metadata"><path d="M56.5,133 L119.5,133 A3.75,3.75 0 0 1 122,135.5 L129,155.4063 L175.5,155.4063 A2.5,2.5 0 0 1 178,157.9063 L178,229.5 A2.5,2.5 0 0 1 175.5,232 L56.5,232 A2.5,2.5 0 0 1 54,229.5 L54,135.5 A2.5,2.5 0 0 1 56.5,133 " fill="none" style="stroke:#000000;stroke-width:1.5;"/><line style="stroke:#000000;stroke-width:1.5;" x1="54" x2="129" y1="155.4063" y2="155.4063"/><text fill="#000000" font-family="sans-serif" font-size="14" font-weight="bold" lengthAdjust="spacing" textLength="62" x="58" y="147.9883">metadata</text></g><!--cluster evefile--><g id="cluster_evefile"><path d="M217.5,631 L262.5,631 A3.75,3.75 0 0 1 265,633.5 L272,653.4063 L516.5,653.4063 A2.5,2.5 0 0 1 519,655.9063 L519,861.5 A2.5,2.5 0 0 1 516.5,864 L217.5,864 A2.5,2.5 0 0 1 215,861.5 L215,633.5 A2.5,2.5 0 0 1 217.5,631 " fill="none" style="stroke:#000000;stroke-width:1.5;"/><line style="stroke:#000000;stroke-width:1.5;" x1="215" x2="272" y1="653.4063" y2="653.4063"/><text fill="#000000" font-family="sans-serif" font-size="14" font-weight="bold" lengthAdjust="spacing" textLength="44" x="219" y="645.9883">evefile</text></g><!--cluster entities--><g id="cluster_entities"><path d="M241.5,674 L291.5,674 A3.75,3.75 0 0 1 294,676.5 L301,696.4063 L492.5,696.4063 A2.5,2.5 0 0 1 495,698.9063 L495,837.5 A2.5,2.5 0 0 1 492.5,840 L241.5,840 A2.5,2.5 0 0 1 239,837.5 L239,676.5 A2.5,2.5 0 0 1 241.5,674 " fill="none" style="stroke:#000000;stroke-width:1.5;"/><line style="stroke:#000000;stroke-width:1.5;" x1="239" x2="301" y1="696.4063" y2="696.4063"/><text fill="#000000" font-family="sans-serif" font-size="14" font-weight="bold" lengthAdjust="spacing" textLength="49" x="243" y="688.9883">entities</text></g><!--cluster file--><g id="cluster_file"><path d="M265.5,717 L287.5,717 A3.75,3.75 0 0 1 290,719.5 L297,739.4063 L468.5,739.4063 A2.5,2.5 0 0 1 471,741.9063 L471,813.5 A2.5,2.5 0 0 1 468.5,816 L265.5,816 A2.5,2.5 0 0 1 263,813.5 L263,719.5 A2.5,2.5 0 0 1 265.5,717 " fill="none" style="stroke:#000000;stroke-width:1.5;"/><line style="stroke:#000000;stroke-width:1.5;" x1="263" x2="297" y1="739.4063" y2="739.4063"/><text fill="#000000" font-family="sans-serif" font-size="14" font-weight="bold" lengthAdjust="spacing" textLength="21" x="267" y="731.9883">file</text></g><!--class Measurement--><g id="elem_Measurement"><rect fill="#F1F1F1" height="48" id="Measurement" rx="2.5" ry="2.5" style="stroke:#181818;stroke-width:0.5;" width="118" x="218" y="168"/><ellipse cx="233" cy="184" fill="#ADD1B2" rx="11" ry="11" style="stroke:#181818;stroke-width:1.0;"/><path d="M233.0469,190.2031 C234.5469,190.2031 235.7813,189.6406 236.6875,188.5781 L235.3125,187.0625 C234.7656,187.6563 234.1094,188.0469 233.3125,188.0469 C231.6406,188.0469 230.4844,186.7188 230.4844,184.4375 C230.4844,182.2188 231.6406,180.875 233.2031,180.875 C234.0156,180.875 234.6094,181.1875 235.1406,181.6719 L236.5156,180.125 C235.7656,179.3906 234.6094,178.7188 233.2031,178.7188 C230.25,178.7188 227.9219,180.8594 227.9219,184.5313 C227.9219,188.25 230.2969,190.2031 233.0469,190.2031 Z " fill="#000000"/><text fill="#000000" font-family="sans-serif" font-size="14" lengthAdjust="spacing" textLength="86" x="247" y="188.7852">Measurement</text><line style="stroke:#181818;stroke-width:0.5;" x1="219" x2="335" y1="200" y2="200"/><line style="stroke:#181818;stroke-width:0.5;" x1="219" x2="335" y1="208" y2="208"/></g><!--class Data--><g id="elem_Data"><rect codeLine="32" fill="#F1F1F1" height="97.2188" id="Data" rx="2.5" ry="2.5" style="stroke:#181818;stroke-width:0.5;" width="183" x="371.5" y="143.5"/><ellipse cx="443.75" cy="159.5" fill="#ADD1B2" rx="11" ry="11" style="stroke:#181818;stroke-width:1.0;"/><path d="M443.7969,165.7031 C445.2969,165.7031 446.5313,165.1406 447.4375,164.0781 L446.0625,162.5625 C445.5156,163.1563 444.8594,163.5469 444.0625,163.5469 C442.3906,163.5469 441.2344,162.2188 441.2344,159.9375 C441.2344,157.7188 442.3906,156.375 443.9531,156.375 C444.7656,156.375 445.3594,156.6875 445.8906,157.1719 L447.2656,155.625 C446.5156,154.8906 445.3594,154.2188 443.9531,154.2188 C441,154.2188 438.6719,156.3594 438.6719,160.0313 C438.6719,163.75 441.0469,165.7031 443.7969,165.7031 Z " fill="#000000"/><text fill="#000000" font-family="sans-serif" font-size="14" lengthAdjust="spacing" textLength="30" x="464.25" y="164.2852">Data</text><line style="stroke:#181818;stroke-width:0.5;" x1="372.5" x2="553.5" y1="175.5" y2="175.5"/><text fill="#000000" font-family="sans-serif" font-size="14" lengthAdjust="spacing" textLength="107" x="377.5" y="192.4883">data : np.ndarray</text><text fill="#000000" font-family="sans-serif" font-size="14" lengthAdjust="spacing" textLength="99" x="377.5" y="208.8945">axes[]: AxisData</text><text fill="#000000" font-family="sans-serif" font-size="14" lengthAdjust="spacing" textLength="171" x="377.5" y="225.3008">metadata : DeviceMetadata</text><line style="stroke:#181818;stroke-width:0.5;" x1="372.5" x2="553.5" y1="232.7188" y2="232.7188"/></g><!--class Axis--><g id="elem_Axis"><rect codeLine="38" fill="#F1F1F1" height="130.0313" id="Axis" rx="2.5" ry="2.5" style="stroke:#181818;stroke-width:0.5;" width="119" x="589.5" y="127"/><ellipse cx="631.95" cy="143" fill="#ADD1B2" rx="11" ry="11" style="stroke:#181818;stroke-width:1.0;"/><path d="M631.9969,149.2031 C633.4969,149.2031 634.7313,148.6406 635.6375,147.5781 L634.2625,146.0625 C633.7156,146.6563 633.0594,147.0469 632.2625,147.0469 C630.5906,147.0469 629.4344,145.7188 629.4344,143.4375 C629.4344,141.2188 630.5906,139.875 632.1531,139.875 C632.9656,139.875 633.5594,140.1875 634.0906,140.6719 L635.4656,139.125 C634.7156,138.3906 633.5594,137.7188 632.1531,137.7188 C629.2,137.7188 626.8719,139.8594 626.8719,143.5313 C626.8719,147.25 629.2469,149.2031 631.9969,149.2031 Z " fill="#000000"/><text fill="#000000" font-family="sans-serif" font-size="14" lengthAdjust="spacing" textLength="26" x="652.05" y="147.7852">Axis</text><line style="stroke:#181818;stroke-width:0.5;" x1="590.5" x2="707.5" y1="159" y2="159"/><text fill="#000000" font-family="sans-serif" font-size="14" lengthAdjust="spacing" textLength="107" x="595.5" y="175.9883">data : np.ndarray</text><text fill="#000000" font-family="sans-serif" font-size="14" lengthAdjust="spacing" textLength="71" x="595.5" y="192.3945">label: string</text><text fill="#000000" font-family="sans-serif" font-size="14" lengthAdjust="spacing" textLength="97" x="595.5" y="208.8008">quantity : string</text><text fill="#000000" font-family="sans-serif" font-size="14" lengthAdjust="spacing" textLength="90" x="595.5" y="225.207">symbol : string</text><text fill="#000000" font-family="sans-serif" font-size="14" lengthAdjust="spacing" textLength="69" x="595.5" y="241.6133">unit : string</text><line style="stroke:#181818;stroke-width:0.5;" x1="590.5" x2="707.5" y1="249.0313" y2="249.0313"/></g><!--class Metadata--><g id="elem_Metadata"><rect fill="#F1F1F1" height="48" id="Metadata" rx="2.5" ry="2.5" style="stroke:#181818;stroke-width:0.5;" width="93" x="69.5" y="168"/><ellipse cx="84.5" cy="184" fill="#ADD1B2" rx="11" ry="11" style="stroke:#181818;stroke-width:1.0;"/><path d="M84.5469,190.2031 C86.0469,190.2031 87.2813,189.6406 88.1875,188.5781 L86.8125,187.0625 C86.2656,187.6563 85.6094,188.0469 84.8125,188.0469 C83.1406,188.0469 81.9844,186.7188 81.9844,184.4375 C81.9844,182.2188 83.1406,180.875 84.7031,180.875 C85.5156,180.875 86.1094,181.1875 86.6406,181.6719 L88.0156,180.125 C87.2656,179.3906 86.1094,178.7188 84.7031,178.7188 C81.75,178.7188 79.4219,180.8594 79.4219,184.5313 C79.4219,188.25 81.7969,190.2031 84.5469,190.2031 Z " fill="#000000"/><text fill="#000000" font-family="sans-serif" font-size="14" lengthAdjust="spacing" textLength="61" x="98.5" y="188.7852">Metadata</text><line style="stroke:#181818;stroke-width:0.5;" x1="70.5" x2="161.5" y1="200" y2="200"/><line style="stroke:#181818;stroke-width:0.5;" x1="70.5" x2="161.5" y1="208" y2="208"/></g><!--class Scan--><g id="elem_Scan"><rect codeLine="25" fill="#F1F1F1" height="48" id="Scan" rx="2.5" ry="2.5" style="stroke:#181818;stroke-width:0.5;" width="63" x="391.5" y="752"/><ellipse cx="406.5" cy="768" fill="#ADD1B2" rx="11" ry="11" style="stroke:#181818;stroke-width:1.0;"/><path d="M406.5469,774.2031 C408.0469,774.2031 409.2813,773.6406 410.1875,772.5781 L408.8125,771.0625 C408.2656,771.6563 407.6094,772.0469 406.8125,772.0469 C405.1406,772.0469 403.9844,770.7188 403.9844,768.4375 C403.9844,766.2188 405.1406,764.875 406.7031,764.875 C407.5156,764.875 408.1094,765.1875 408.6406,765.6719 L410.0156,764.125 C409.2656,763.3906 408.1094,762.7188 406.7031,762.7188 C403.75,762.7188 401.4219,764.8594 401.4219,768.5313 C401.4219,772.25 403.7969,774.2031 406.5469,774.2031 Z " fill="#000000"/><text fill="#000000" font-family="sans-serif" font-size="14" lengthAdjust="spacing" textLength="31" x="420.5" y="772.7852">Scan</text><line style="stroke:#181818;stroke-width:0.5;" x1="392.5" x2="453.5" y1="784" y2="784"/><line style="stroke:#181818;stroke-width:0.5;" x1="392.5" x2="453.5" y1="792" y2="792"/></g><!--class Station--><g id="elem_Station"><rect codeLine="28" fill="#F1F1F1" height="48" id="Station" rx="2.5" ry="2.5" style="stroke:#181818;stroke-width:0.5;" width="77" x="279.5" y="752"/><ellipse cx="294.5" cy="768" fill="#ADD1B2" rx="11" ry="11" style="stroke:#181818;stroke-width:1.0;"/><path d="M294.5469,774.2031 C296.0469,774.2031 297.2813,773.6406 298.1875,772.5781 L296.8125,771.0625 C296.2656,771.6563 295.6094,772.0469 294.8125,772.0469 C293.1406,772.0469 291.9844,770.7188 291.9844,768.4375 C291.9844,766.2188 293.1406,764.875 294.7031,764.875 C295.5156,764.875 296.1094,765.1875 296.6406,765.6719 L298.0156,764.125 C297.2656,763.3906 296.1094,762.7188 294.7031,762.7188 C291.75,762.7188 289.4219,764.8594 289.4219,768.5313 C289.4219,772.25 291.7969,774.2031 294.5469,774.2031 Z " fill="#000000"/><text fill="#000000" font-family="sans-serif" font-size="14" lengthAdjust="spacing" textLength="45" x="308.5" y="772.7852">Station</text><line style="stroke:#181818;stroke-width:0.5;" x1="280.5" x2="355.5" y1="784" y2="784"/><line style="stroke:#181818;stroke-width:0.5;" x1="280.5" x2="355.5" y1="792" y2="792"/></g><!--class Measurement--><g id="elem_Measurement"><rect codeLine="3" fill="#F1F1F1" height="277.6875" id="Measurement" rx="2.5" ry="2.5" style="stroke:#181818;stroke-width:0.5;" width="259" x="240.5" y="337"/><ellipse cx="322.75" cy="353" fill="#ADD1B2" rx="11" ry="11" style="stroke:#181818;stroke-width:1.0;"/><path d="M322.7969,359.2031 C324.2969,359.2031 325.5313,358.6406 326.4375,357.5781 L325.0625,356.0625 C324.5156,356.6563 323.8594,357.0469 323.0625,357.0469 C321.3906,357.0469 320.2344,355.7188 320.2344,353.4375 C320.2344,351.2188 321.3906,349.875 322.9531,349.875 C323.7656,349.875 324.3594,350.1875 324.8906,350.6719 L326.2656,349.125 C325.5156,348.3906 324.3594,347.7188 322.9531,347.7188 C320,347.7188 317.6719,349.8594 317.6719,353.5313 C317.6719,357.25 320.0469,359.2031 322.7969,359.2031 Z " fill="#000000"/><text fill="#000000" font-family="sans-serif" font-size="14" lengthAdjust="spacing" textLength="86" x="343.25" y="357.7852">Measurement</text><line style="stroke:#181818;stroke-width:0.5;" x1="241.5" x2="498.5" y1="369" y2="369"/><text fill="#000000" font-family="sans-serif" font-size="14" lengthAdjust="spacing" textLength="149" x="246.5" y="385.9883">devices{} : MeasureData</text><text fill="#000000" font-family="sans-serif" font-size="14" lengthAdjust="spacing" textLength="244" x="246.5" y="402.3945">machine{} : MeasureData | MonitorData</text><text fill="#000000" font-family="sans-serif" font-size="14" lengthAdjust="spacing" textLength="247" x="246.5" y="418.8008">beamline{} : MeasureData | MonitorData</text><text fill="#000000" font-family="sans-serif" font-size="14" lengthAdjust="spacing" textLength="214" x="246.5" y="435.207">device_snapshots{} : MeasureData</text><text fill="#000000" font-family="sans-serif" font-size="14" lengthAdjust="spacing" textLength="131" x="246.5" y="451.6133">metadata : Metadata</text><text fill="#000000" font-family="sans-serif" font-size="14" lengthAdjust="spacing" textLength="70" x="246.5" y="468.0195">scan : Scan</text><text fill="#000000" font-family="sans-serif" font-size="14" lengthAdjust="spacing" textLength="98" x="246.5" y="484.4258">station : Station</text><text fill="#000000" font-family="sans-serif" font-size="14" lengthAdjust="spacing" textLength="185" x="246.5" y="500.832">log_messages[] : LogMessage</text><text fill="#000000" font-family="sans-serif" font-size="14" lengthAdjust="spacing" textLength="68" x="246.5" y="517.2383">data : Data</text><line style="stroke:#181818;stroke-width:0.5;" x1="241.5" x2="498.5" y1="524.6563" y2="524.6563"/><text fill="#000000" font-family="sans-serif" font-size="14" lengthAdjust="spacing" textLength="90" x="246.5" y="541.6445">load(filename)</text><text fill="#000000" font-family="sans-serif" font-size="14" lengthAdjust="spacing" textLength="92" x="246.5" y="558.0508">save(filename)</text><text fill="#000000" font-family="sans-serif" font-size="14" lengthAdjust="spacing" textLength="152" x="246.5" y="574.457">export(filename, format)</text><text fill="#000000" font-family="sans-serif" font-size="14" lengthAdjust="spacing" textLength="131" x="246.5" y="590.8633">set_data(name, field)</text><text fill="#000000" font-family="sans-serif" font-size="14" lengthAdjust="spacing" textLength="161" x="246.5" y="607.2695">set_axes(names[], fields[])</text></g><!--reverse link Measurement to Measurement--><g id="link_Measurement_Measurement"><path d="M290.2509,233.1733 C299.1709,260.2033 309.04,290.15 324.42,336.79 " fill="none" id="Measurement-backto-Measurement" style="stroke:#181818;stroke-width:1.0;"/><polygon fill="none" points="284.61,216.08,284.5531,235.0536,295.9486,231.293,284.61,216.08" style="stroke:#181818;stroke-width:1.0;"/></g><!--reverse link Measurement to Metadata--><g id="link_Measurement_Metadata"><path codeLine="21" d="M231.9538,342.5793 C224.9238,335.2493 226.42,336.48 220,329 C188.88,292.76 160.96,244.25 140.49,216.04 " fill="none" id="Measurement-backto-Metadata" style="stroke:#181818;stroke-width:1.0;"/><polygon fill="#181818" points="240.26,351.24,238.9938,344.1409,231.9538,342.5793,233.22,349.6784,240.26,351.24" style="stroke:#181818;stroke-width:1.0;"/></g><!--link Metadata to Measurement--><!--reverse link Measurement to Scan--><g id="link_Measurement_Scan"><path codeLine="22" d="M396.6611,626.9146 C406.0011,679.4346 413.57,721.96 418.88,751.83 " fill="none" id="Measurement-backto-Scan" style="stroke:#181818;stroke-width:1.0;"/><polygon fill="#181818" points="394.56,615.1,391.6723,621.7077,396.6611,626.9146,399.5487,620.307,394.56,615.1" style="stroke:#181818;stroke-width:1.0;"/></g><!--reverse link Measurement to Station--><g id="link_Measurement_Station"><path codeLine="23" d="M343.8382,626.9215 C334.6782,679.4415 327.25,721.96 322.04,751.83 " fill="none" id="Measurement-backto-Station" style="stroke:#181818;stroke-width:1.0;"/><polygon fill="#181818" points="345.9,615.1,340.9286,620.3235,343.8382,626.9215,348.8096,621.698,345.9,615.1" style="stroke:#181818;stroke-width:1.0;"/></g><!--reverse link Data to Axis--><g id="link_Data_Axis"><path codeLine="46" d="M566.55,192 C578.11,192 577.67,192 589.23,192 " fill="none" id="Data-backto-Axis" style="stroke:#181818;stroke-width:1.0;"/><polygon fill="#181818" points="554.55,192,560.55,196,566.55,192,560.55,188,554.55,192" style="stroke:#181818;stroke-width:1.0;"/><text fill="#000000" font-family="sans-serif" font-size="13" lengthAdjust="spacing" textLength="7" x="574.519" y="188.1589">n</text></g><!--link Data to Measurement--><g id="link_Data_Measurement"><path codeLine="48" d="M437.5,240.52 C426.67,267.28 417.9085,290.8172 406.5285,325.5272 " fill="none" id="Data-to-Measurement" style="stroke:#181818;stroke-width:1.0;"/><polygon fill="#181818" points="402.79,336.93,408.4602,332.4748,406.5285,325.5272,400.8583,329.9824,402.79,336.93" style="stroke:#181818;stroke-width:1.0;"/></g><!--link Data to Measurement--><!--SRC=[ZLDDRuCm3BtpAw9UrbQ3tZbCcjJZUjgngYgNk10f7uo4YghZloya6L2qhY0XucS_sx4VBuKnfKutcvA3DBNWIQR49kEWTKmPv1M8A78csI7ekaA1qX1i34ggYHYmnBxCCDJ961oJRX6n3yKBor3VMfB-fjo20USJa1LCujH7libEIMPKrKUU40IV5-eB7hM4KXVAFAYC1cZ7xrp-w72TWRJOf_rusu1Xoa7-v52kygD0hI57lJzOvuVATzxsBVZChbeW05sU6KS90bS-Crnm0c5Jgihqu2ivgqg02V5eZbtUPN0nv7JmG8FQUMm_mMbFgwYDel5Ard7yQ8T-24a_ZIaDBzWrDb2SvGOrCpGCCCZhSJuhdFP9LDYA2moHJwNfv78RxqUMYQHGLN1rQ3V3_I4bxmtJVmbbwuJL3wYTNRbB-6zb3YVagHLRnMJkaAyQkanNSeVggpWfVe_LLlq3Ofjozrp72xbmDmb0l1x_q54qJmKatXUCKfI7-6qMVpBkddxF_W40]--></g></svg>