<?xml version="1.0" encoding="us-ascii" standalone="no"?><svg xmlns="http://www.w3.org/2000/svg" xmlns:xlink="http://www.w3.org/1999/xlink" contentStyleType="text/css" height="460px" preserveAspectRatio="none" style="width:697px;height:460px;background:#FFFFFF;" version="1.1" viewBox="0 0 697 460" width="697.6px" zoomAndPan="magnify"><defs/><g><!--cluster scan--><g id="cluster_scan"><path d="M465.6,4.8 L490.4,4.8 A3,3 0 0 1 492.4,6.8 L498,22.725 L576.8,22.725 A2,2 0 0 1 578.8,24.725 L578.8,135.6 A2,2 0 0 1 576.8,137.6 L465.6,137.6 A2,2 0 0 1 463.6,135.6 L463.6,6.8 A2,2 0 0 1 465.6,4.8 " fill="none" style="stroke:#000000;stroke-width:1.2000000000000002;"/><line style="stroke:#000000;stroke-width:1.2000000000000002;" x1="463.6" x2="498" y1="22.725" y2="22.725"/><text fill="#000000" font-family="sans-serif" font-size="11.2" font-weight="bold" lengthAdjust="spacing" textLength="24" x="466.8" y="16.7906">scan</text></g><!--cluster boundaries--><g id="cluster_boundaries"><path d="M484.8,39.2 L543.2,39.2 A3,3 0 0 1 545.2,41.2 L550.8,57.125 L557.6,57.125 A2,2 0 0 1 559.6,59.125 L559.6,116.4 A2,2 0 0 1 557.6,118.4 L484.8,118.4 A2,2 0 0 1 482.8,116.4 L482.8,41.2 A2,2 0 0 1 484.8,39.2 " fill="none" style="stroke:#000000;stroke-width:1.2000000000000002;"/><line style="stroke:#000000;stroke-width:1.2000000000000002;" x1="482.8" x2="550.8" y1="57.125" y2="57.125"/><text fill="#000000" font-family="sans-serif" font-size="11.2" font-weight="bold" lengthAdjust="spacing" textLength="57.6" x="486" y="51.1906">boundaries</text></g><!--class Scan--><g id="elem_Scan"><rect fill="#F1F1F1" height="38.4" id="Scan" rx="2" ry="2" style="stroke:#181818;stroke-width:0.4000000000000001;" width="50.4" x="496" y="67.2"/><ellipse cx="508" cy="80" fill="#ADD1B2" rx="8.8" ry="8.8" style="stroke:#181818;stroke-width:0.8000000000000002;"/><path d="M508.0375,84.9625 C509.2375,84.9625 510.225,84.5125 510.95,83.6625 L509.85,82.45 C509.4125,82.925 508.8875,83.2375 508.25,83.2375 C506.9125,83.2375 505.9875,82.175 505.9875,80.35 C505.9875,78.575 506.9125,77.5 508.1625,77.5 C508.8125,77.5 509.2875,77.75 509.7125,78.1375 L510.8125,76.9 C510.2125,76.3125 509.2875,75.775 508.1625,75.775 C505.8,75.775 503.9375,77.4875 503.9375,80.425 C503.9375,83.4 505.8375,84.9625 508.0375,84.9625 Z " fill="#000000"/><text fill="#000000" font-family="sans-serif" font-size="11.2" lengthAdjust="spacing" textLength="24.8" x="519.2" y="83.8281">Scan</text><line style="stroke:#181818;stroke-width:0.4000000000000001;" x1="496.8" x2="545.6" y1="92.8" y2="92.8"/><line style="stroke:#181818;stroke-width:0.4000000000000001;" x1="496.8" x2="545.6" y1="99.2" y2="99.2"/></g><!--class File--><g id="elem_File"><rect codeLine="2" fill="#F1F1F1" height="117.15" id="File" rx="2" ry="2" style="stroke:#181818;stroke-width:0.4000000000000001;" width="124.8" x="234.8" y="28"/><ellipse cx="285.4" cy="40.8" fill="#ADD1B2" rx="8.8" ry="8.8" style="stroke:#181818;stroke-width:0.8000000000000002;"/><path d="M285.4375,45.7625 C286.6375,45.7625 287.625,45.3125 288.35,44.4625 L287.25,43.25 C286.8125,43.725 286.2875,44.0375 285.65,44.0375 C284.3125,44.0375 283.3875,42.975 283.3875,41.15 C283.3875,39.375 284.3125,38.3 285.5625,38.3 C286.2125,38.3 286.6875,38.55 287.1125,38.9375 L288.2125,37.7 C287.6125,37.1125 286.6875,36.575 285.5625,36.575 C283.2,36.575 281.3375,38.2875 281.3375,41.225 C281.3375,44.2 283.2375,45.7625 285.4375,45.7625 Z " fill="#000000"/><text fill="#000000" font-family="sans-serif" font-size="11.2" lengthAdjust="spacing" textLength="16.8" x="301.8" y="44.6281">File</text><line style="stroke:#181818;stroke-width:0.4000000000000001;" x1="235.6" x2="358.8" y1="53.6" y2="53.6"/><text fill="#000000" font-family="sans-serif" font-size="11.2" lengthAdjust="spacing" textLength="104.8" x="239.6" y="67.1906">metadata : Metadata</text><text fill="#000000" font-family="sans-serif" font-size="11.2" lengthAdjust="spacing" textLength="115.2" x="239.6" y="80.3156">comments : Comment[]</text><text fill="#000000" font-family="sans-serif" font-size="11.2" lengthAdjust="spacing" textLength="56" x="239.6" y="93.4406">scan : Scan</text><text fill="#000000" font-family="sans-serif" font-size="11.2" lengthAdjust="spacing" textLength="60.8" x="239.6" y="106.5656">data : Data[]</text><text fill="#000000" font-family="sans-serif" font-size="11.2" lengthAdjust="spacing" textLength="90.4" x="239.6" y="119.6906">snapshots : Data[]</text><text fill="#000000" font-family="sans-serif" font-size="11.2" lengthAdjust="spacing" textLength="82.4" x="239.6" y="132.8156">monitors : Data[]</text><line style="stroke:#181818;stroke-width:0.4000000000000001;" x1="235.6" x2="358.8" y1="138.75" y2="138.75"/></g><path d="M44,35.6 L44,128.9125 A0,0 0 0 0 44,128.9125 L206.4,128.9125 A0,0 0 0 0 206.4,128.9125 L206.4,85.4563 L238,115.8625 L206.4,79.0563 L206.4,43.6 L198.4,35.6 L44,35.6 A0,0 0 0 0 44,35.6 " fill="#FEFFDD" style="stroke:#181818;stroke-width:0.4000000000000001;"/><path d="M198.4,35.6 L198.4,43.6 L206.4,43.6 L198.4,35.6 " fill="#FEFFDD" style="stroke:#181818;stroke-width:0.4000000000000001;"/><text fill="#000000" font-family="sans-serif" font-size="10.4" lengthAdjust="spacing" textLength="128.8" x="48.8" y="49.2484">Snapshot datasets can have</text><text fill="#000000" font-family="sans-serif" font-size="10.4" lengthAdjust="spacing" textLength="145.6" x="48.8" y="61.4359">identical names/IDs to datasets</text><text fill="#000000" font-family="sans-serif" font-size="10.4" lengthAdjust="spacing" textLength="105.6" x="48.8" y="73.6234">in the standard section.</text><text fill="#000000" font-family="sans-serif" font-size="10.4" lengthAdjust="spacing" textLength="120" x="48.8" y="85.8109">This makes a separate list</text><text fill="#000000" font-family="sans-serif" font-size="10.4" lengthAdjust="spacing" textLength="97.6" x="48.8" y="97.9984">probably unavoidable.</text><text fill="#000000" font-family="sans-serif" font-size="10.4" lengthAdjust="spacing" textLength="2.4" x="48.8" y="110.1859">&#160;</text><text fill="#000000" font-family="sans-serif" font-size="10.4" lengthAdjust="spacing" textLength="122.4" x="48.8" y="122.3734">How to deal with monitors?</text><!--class Data--><g id="elem_Data"><rect fill="#F1F1F1" height="38.4" id="Data" rx="2" ry="2" style="stroke:#181818;stroke-width:0.4000000000000001;" width="49.6" x="24.4" y="258.4"/><ellipse cx="36.4" cy="271.2" fill="#ADD1B2" rx="8.8" ry="8.8" style="stroke:#181818;stroke-width:0.8000000000000002;"/><path d="M36.4375,276.1625 C37.6375,276.1625 38.625,275.7125 39.35,274.8625 L38.25,273.65 C37.8125,274.125 37.2875,274.4375 36.65,274.4375 C35.3125,274.4375 34.3875,273.375 34.3875,271.55 C34.3875,269.775 35.3125,268.7 36.5625,268.7 C37.2125,268.7 37.6875,268.95 38.1125,269.3375 L39.2125,268.1 C38.6125,267.5125 37.6875,266.975 36.5625,266.975 C34.2,266.975 32.3375,268.6875 32.3375,271.625 C32.3375,274.6 34.2375,276.1625 36.4375,276.1625 Z " fill="#000000"/><text fill="#000000" font-family="sans-serif" font-size="11.2" lengthAdjust="spacing" textLength="24" x="47.6" y="275.0281">Data</text><line style="stroke:#181818;stroke-width:0.4000000000000001;" x1="25.2" x2="73.2" y1="284" y2="284"/><line style="stroke:#181818;stroke-width:0.4000000000000001;" x1="25.2" x2="73.2" y1="290.4" y2="290.4"/></g><g id="elem_GMN7"><path d="M4.8,416.8 L4.8,449.175 A0,0 0 0 0 4.8,449.175 L93.6,449.175 A0,0 0 0 0 93.6,449.175 L93.6,424.8 L85.6,416.8 L52.4,416.8 L49.2,296.928 L46,416.8 L4.8,416.8 A0,0 0 0 0 4.8,416.8 " fill="#FEFFDD" style="stroke:#181818;stroke-width:0.4000000000000001;"/><path d="M85.6,416.8 L85.6,424.8 L93.6,424.8 L85.6,416.8 " fill="#FEFFDD" style="stroke:#181818;stroke-width:0.4000000000000001;"/><text fill="#000000" font-family="sans-serif" font-size="10.4" lengthAdjust="spacing" textLength="72" x="9.6" y="430.4484">See diagram for</text><text fill="#000000" font-family="sans-serif" font-size="10.4" lengthAdjust="spacing" textLength="58.4" x="9.6" y="442.6359">data module.</text></g><!--class Metadata--><g id="elem_Metadata"><rect codeLine="23" fill="#F1F1F1" height="169.65" id="Metadata" rx="2" ry="2" style="stroke:#181818;stroke-width:0.4000000000000001;" width="208.8" x="102.4" y="192.8"/><ellipse cx="179" cy="205.6" fill="#ADD1B2" rx="8.8" ry="8.8" style="stroke:#181818;stroke-width:0.8000000000000002;"/><path d="M179.0375,210.5625 C180.2375,210.5625 181.225,210.1125 181.95,209.2625 L180.85,208.05 C180.4125,208.525 179.8875,208.8375 179.25,208.8375 C177.9125,208.8375 176.9875,207.775 176.9875,205.95 C176.9875,204.175 177.9125,203.1 179.1625,203.1 C179.8125,203.1 180.2875,203.35 180.7125,203.7375 L181.8125,202.5 C181.2125,201.9125 180.2875,201.375 179.1625,201.375 C176.8,201.375 174.9375,203.0875 174.9375,206.025 C174.9375,209 176.8375,210.5625 179.0375,210.5625 Z " fill="#000000"/><text fill="#000000" font-family="sans-serif" font-size="11.2" lengthAdjust="spacing" textLength="48.8" x="195.4" y="209.4281">Metadata</text><line style="stroke:#181818;stroke-width:0.4000000000000001;" x1="103.2" x2="310.4" y1="218.4" y2="218.4"/><text fill="#000000" font-family="sans-serif" font-size="11.2" lengthAdjust="spacing" textLength="78.4" x="107.2" y="231.9906">filename : string</text><text fill="#000000" font-family="sans-serif" font-size="11.2" lengthAdjust="spacing" textLength="89.6" x="107.2" y="245.1156">h5_version : string</text><text fill="#000000" font-family="sans-serif" font-size="11.2" lengthAdjust="spacing" textLength="93.6" x="107.2" y="258.2406">eve_version : string</text><text fill="#000000" font-family="sans-serif" font-size="11.2" lengthAdjust="spacing" textLength="92" x="107.2" y="271.3656">xml_version: string</text><text fill="#000000" font-family="sans-serif" font-size="11.2" lengthAdjust="spacing" textLength="76" x="107.2" y="284.4906">location : string</text><text fill="#000000" font-family="sans-serif" font-size="11.2" lengthAdjust="spacing" textLength="75.2" x="107.2" y="297.6156">start : datetime</text><text fill="#000000" font-family="sans-serif" font-size="11.2" lengthAdjust="spacing" textLength="69.6" x="107.2" y="310.7406">end : datetime</text><text fill="#000000" font-family="sans-serif" font-size="11.2" lengthAdjust="spacing" textLength="106.4" x="107.2" y="323.8656">preferred_axis : string</text><text fill="#000000" font-family="sans-serif" font-size="11.2" lengthAdjust="spacing" textLength="125.6" x="107.2" y="336.9906">preferred_channel : string</text><text fill="#000000" font-family="sans-serif" font-size="11.2" lengthAdjust="spacing" textLength="199.2" x="107.2" y="350.1156">preferred_normalisation_channel : string</text><line style="stroke:#181818;stroke-width:0.4000000000000001;" x1="103.2" x2="310.4" y1="356.05" y2="356.05"/></g><!--class Comment--><g id="elem_Comment"><rect codeLine="36" fill="#F1F1F1" height="64.65" id="Comment" rx="2" ry="2" style="stroke:#181818;stroke-width:0.4000000000000001;" width="114.4" x="339.2" y="245.2"/><ellipse cx="369.2" cy="258" fill="#ADD1B2" rx="8.8" ry="8.8" style="stroke:#181818;stroke-width:0.8000000000000002;"/><path d="M369.2375,262.9625 C370.4375,262.9625 371.425,262.5125 372.15,261.6625 L371.05,260.45 C370.6125,260.925 370.0875,261.2375 369.45,261.2375 C368.1125,261.2375 367.1875,260.175 367.1875,258.35 C367.1875,256.575 368.1125,255.5 369.3625,255.5 C370.0125,255.5 370.4875,255.75 370.9125,256.1375 L372.0125,254.9 C371.4125,254.3125 370.4875,253.775 369.3625,253.775 C367,253.775 365.1375,255.4875 365.1375,258.425 C365.1375,261.4 367.0375,262.9625 369.2375,262.9625 Z " fill="#000000"/><text fill="#000000" font-family="sans-serif" font-size="11.2" lengthAdjust="spacing" textLength="48.8" x="384.4" y="261.8281">Comment</text><line style="stroke:#181818;stroke-width:0.4000000000000001;" x1="340" x2="452.8" y1="270.8" y2="270.8"/><text fill="#000000" font-family="sans-serif" font-size="11.2" lengthAdjust="spacing" textLength="104.8" x="344" y="284.3906">timestamp : datetime</text><text fill="#000000" font-family="sans-serif" font-size="11.2" lengthAdjust="spacing" textLength="83.2" x="344" y="297.5156">comment : string</text><line style="stroke:#181818;stroke-width:0.4000000000000001;" x1="340" x2="452.8" y1="303.45" y2="303.45"/></g><g id="elem_GMN12"><path d="M311.2,410.4 L311.2,454.9625 A0,0 0 0 0 311.2,454.9625 L481.6,454.9625 A0,0 0 0 0 481.6,454.9625 L481.6,418.4 L473.6,410.4 L399.6,410.4 L396.4,310.224 L393.2,410.4 L311.2,410.4 A0,0 0 0 0 311.2,410.4 " fill="#FEFFDD" style="stroke:#181818;stroke-width:0.4000000000000001;"/><path d="M473.6,410.4 L473.6,418.4 L481.6,418.4 L473.6,410.4 " fill="#FEFFDD" style="stroke:#181818;stroke-width:0.4000000000000001;"/><text fill="#000000" font-family="sans-serif" font-size="10.4" lengthAdjust="spacing" textLength="153.6" x="316" y="424.0484">Comments are both, file comment</text><text fill="#000000" font-family="sans-serif" font-size="10.4" lengthAdjust="spacing" textLength="153.6" x="316" y="436.2359">and log messages. Discriminating</text><text fill="#000000" font-family="sans-serif" font-size="10.4" lengthAdjust="spacing" textLength="138.4" x="316" y="448.4234">could be done in the File class.</text></g><!--class Scan--><g id="elem_Scan"><rect codeLine="46" fill="#F1F1F1" height="51.525" id="Scan" rx="2" ry="2" style="stroke:#181818;stroke-width:0.4000000000000001;" width="79.2" x="481.6" y="252"/><ellipse cx="506.56" cy="264.8" fill="#ADD1B2" rx="8.8" ry="8.8" style="stroke:#181818;stroke-width:0.8000000000000002;"/><path d="M506.5975,269.7625 C507.7975,269.7625 508.785,269.3125 509.51,268.4625 L508.41,267.25 C507.9725,267.725 507.4475,268.0375 506.81,268.0375 C505.4725,268.0375 504.5475,266.975 504.5475,265.15 C504.5475,263.375 505.4725,262.3 506.7225,262.3 C507.3725,262.3 507.8475,262.55 508.2725,262.9375 L509.3725,261.7 C508.7725,261.1125 507.8475,260.575 506.7225,260.575 C504.36,260.575 502.4975,262.2875 502.4975,265.225 C502.4975,268.2 504.3975,269.7625 506.5975,269.7625 Z " fill="#000000"/><text fill="#000000" font-family="sans-serif" font-size="11.2" lengthAdjust="spacing" textLength="24.8" x="520.64" y="268.6281">Scan</text><line style="stroke:#181818;stroke-width:0.4000000000000001;" x1="482.4" x2="560" y1="277.6" y2="277.6"/><text fill="#000000" font-family="sans-serif" font-size="11.2" lengthAdjust="spacing" textLength="69.6" x="486.4" y="291.1906">author : string</text><line style="stroke:#181818;stroke-width:0.4000000000000001;" x1="482.4" x2="560" y1="297.125" y2="297.125"/></g><g id="elem_GMN20"><path d="M592,70.4 L592,83.2 L546.448,86.4 L592,89.6 L592,102.775 A0,0 0 0 0 592,102.775 L692,102.775 A0,0 0 0 0 692,102.775 L692,78.4 L684,70.4 L592,70.4 A0,0 0 0 0 592,70.4 " fill="#FEFFDD" style="stroke:#181818;stroke-width:0.4000000000000001;"/><path d="M684,70.4 L684,78.4 L692,78.4 L684,70.4 " fill="#FEFFDD" style="stroke:#181818;stroke-width:0.4000000000000001;"/><text fill="#000000" font-family="sans-serif" font-size="10.4" lengthAdjust="spacing" textLength="77.6" x="596.8" y="84.0484">See diagrams for</text><text fill="#000000" font-family="sans-serif" font-size="10.4" lengthAdjust="spacing" textLength="83.2" x="596.8" y="96.2359">scan subpackage.</text></g><!--reverse link File to Data--><g id="link_File_Data"><path codeLine="20" d="M226.5905,141.5087 C221.8545,144.5247 225.16,142.224 220.4,144.8 C165.504,174.52 134.44,150.64 88.4,192.8 C69.176,210.408 58.584,239.368 53.4,258.264 " fill="none" id="File-backto-Data" style="stroke:#181818;stroke-width:0.8000000000000002;"/><polygon fill="#181818" points="234.688,136.352,228.9204,136.2312,226.5905,141.5087,232.3582,141.6295,234.688,136.352" style="stroke:#181818;stroke-width:0.8000000000000002;"/><text fill="#000000" font-family="sans-serif" font-size="10.4" lengthAdjust="spacing" textLength="5.6" x="48.1588" y="249.4441">n</text></g><!--reverse link Scan to Scan--><g id="link_Scan_Scan"><path d="M521.2,120.128 C521.2,154.416 521.2,213.392 521.2,251.952 " fill="none" id="Scan-backto-Scan" style="stroke:#181818;stroke-width:0.8000000000000002;"/><polygon fill="none" points="521.2,105.728,516.4,120.128,526,120.128,521.2,105.728" style="stroke:#181818;stroke-width:0.8000000000000002;"/></g><!--reverse link File to Metadata--><g id="link_File_Metadata"><path codeLine="51" d="M265.5818,153.5221 C258.4138,168.5621 254.664,176.408 246.984,192.512 " fill="none" id="File-backto-Metadata" style="stroke:#181818;stroke-width:0.8000000000000002;"/><polygon fill="#181818" points="269.712,144.856,264.7582,147.8123,265.5818,153.5221,270.5356,150.5658,269.712,144.856" style="stroke:#181818;stroke-width:0.8000000000000002;"/></g><!--reverse link File to Comment--><g id="link_File_Comment"><path codeLine="52" d="M331.8185,153.362 C349.0345,186.266 365.504,217.752 379.776,245.024 " fill="none" id="File-backto-Comment" style="stroke:#181818;stroke-width:0.8000000000000002;"/><polygon fill="#181818" points="327.368,144.856,326.7579,150.5925,331.8185,153.362,332.4286,147.6255,327.368,144.856" style="stroke:#181818;stroke-width:0.8000000000000002;"/><text fill="#000000" font-family="sans-serif" font-size="10.4" lengthAdjust="spacing" textLength="5.6" x="324.5903" y="161.1431">1</text><text fill="#000000" font-family="sans-serif" font-size="10.4" lengthAdjust="spacing" textLength="5.6" x="370.9589" y="236.3112">n</text></g><!--reverse link File to Scan--><g id="link_File_Scan"><path codeLine="53" d="M368.0948,121.6271 C402.5748,140.1711 436.2,161.816 467.6,192.8 C485.088,210.056 499.664,234.016 509.184,251.928 " fill="none" id="File-backto-Scan" style="stroke:#181818;stroke-width:0.8000000000000002;"/><polygon fill="#181818" points="359.64,117.08,362.3517,122.1718,368.0948,121.6271,365.3831,116.5353,359.64,117.08" style="stroke:#181818;stroke-width:0.8000000000000002;"/></g><!--SRC=[TLCzZzH03EtpAwmj4HT4GRCDnQqG55H71-ZaJ9naT9bnD9xiBKBttt6S3xAta2OppnxRptvsFOh09zyJ_2v0lq0PQym8H_Yw70rt70B5B8hVpyVlFyqW3gE23_gp-_BufB_L8-8W7TlR7Hmu-infXxuKaJD1Jqq6Rgogut5xROyUbfkb4TAOK_eEpsHcNsjXtc4F4GF9koydWSoRy-mJ8NS4aZ7Mc6eGSjbpBCtuhVC20Pz80DKoOCAf8Y_Pp4FY2gl-5umHp-nhFLDPcEapFrigqkJFFdSRluy5nHecPaLXZNvpTmU7U33MC-EAS-QWJII2scERC433wKUqPWQkHqlZR5ZhMEPvDHfnugfTb9nyR0tjFZoUAOdIkiRfJFysN4A_6gxmdXtc6s_jNSeAQHcKVPXxFx5y1Gs96ag9waUyUBcEyTVcEeoH-l-P8wU0EW6huzRvPUtB8ij5nrCDMcOONjUq27aVO3U3INTB8FE-NsMFoLowjzRnDOhvg8wqJwskZWYs92MSlBZaWuzQyyB7yTZNKEbyETAgGPE3LL_kH3BJcHOAw98L5rkoik9nKgpN36QSYUAOEqutT99lktobA9abPVigOpMWUz9govqejuKtvF3-i4brRSdcQkl-1m00]--></g></svg>