<?xml version="1.0" encoding="us-ascii" standalone="no"?><svg xmlns="http://www.w3.org/2000/svg" xmlns:xlink="http://www.w3.org/1999/xlink" contentStyleType="text/css" height="633px" preserveAspectRatio="none" style="width:851px;height:633px;background:#FFFFFF;" version="1.1" viewBox="0 0 851 633" width="851px" zoomAndPan="magnify"><defs/><g><!--class Data--><g id="elem_Data"><rect codeLine="3" fill="#F1F1F1" height="80.8125" id="Data" rx="2.5" ry="2.5" style="stroke:#181818;stroke-width:0.5;" width="143" x="327.5" y="7"/><ellipse cx="379.75" cy="23" fill="#ADD1B2" rx="11" ry="11" style="stroke:#181818;stroke-width:1.0;"/><path d="M379.7969,29.2031 C381.2969,29.2031 382.5313,28.6406 383.4375,27.5781 L382.0625,26.0625 C381.5156,26.6563 380.8594,27.0469 380.0625,27.0469 C378.3906,27.0469 377.2344,25.7188 377.2344,23.4375 C377.2344,21.2188 378.3906,19.875 379.9531,19.875 C380.7656,19.875 381.3594,20.1875 381.8906,20.6719 L383.2656,19.125 C382.5156,18.3906 381.3594,17.7188 379.9531,17.7188 C377,17.7188 374.6719,19.8594 374.6719,23.5313 C374.6719,27.25 377.0469,29.2031 379.7969,29.2031 Z " fill="#000000"/><text fill="#000000" font-family="sans-serif" font-size="14" lengthAdjust="spacing" textLength="30" x="400.25" y="27.7852">Data</text><line style="stroke:#181818;stroke-width:0.5;" x1="328.5" x2="469.5" y1="39" y2="39"/><text fill="#000000" font-family="sans-serif" font-size="14" lengthAdjust="spacing" textLength="131" x="333.5" y="55.9883">metadata : Metadata</text><text fill="#000000" font-family="sans-serif" font-size="14" lengthAdjust="spacing" textLength="118" x="333.5" y="72.3945">values : np.ndarray</text><line style="stroke:#181818;stroke-width:0.5;" x1="328.5" x2="469.5" y1="79.8125" y2="79.8125"/></g><path d="M41.5,7 L41.5,77.9375 A0,0 0 0 0 41.5,77.9375 L292.5,77.9375 A0,0 0 0 0 292.5,77.9375 L292.5,46.4688 L331.5,67.6094 L292.5,38.4688 L292.5,17 L282.5,7 L41.5,7 A0,0 0 0 0 41.5,7 " fill="#FEFFDD" style="stroke:#181818;stroke-width:0.5;"/><path d="M282.5,7 L282.5,17 L292.5,17 L282.5,7 " fill="#FEFFDD" style="stroke:#181818;stroke-width:0.5;"/><text fill="#000000" font-family="sans-serif" font-size="13" lengthAdjust="spacing" textLength="160" x="47.5" y="24.0605">"values" contains a 1D array.</text><text fill="#000000" font-family="sans-serif" font-size="13" lengthAdjust="spacing" textLength="230" x="47.5" y="39.2949">For individual values see derived classes</text><text fill="#000000" font-family="sans-serif" font-size="13" lengthAdjust="spacing" textLength="146" x="47.5" y="54.5293">AverageDetectorData and</text><text fill="#000000" font-family="sans-serif" font-size="13" lengthAdjust="spacing" textLength="118" x="47.5" y="69.7637">IntervalDetectorData</text><!--class Metadata--><g id="elem_Metadata"><rect codeLine="14" fill="#F1F1F1" height="48" id="Metadata" rx="2.5" ry="2.5" style="stroke:#181818;stroke-width:0.5;" width="93" x="112.5" y="156"/><ellipse cx="127.5" cy="172" fill="#ADD1B2" rx="11" ry="11" style="stroke:#181818;stroke-width:1.0;"/><path d="M127.5469,178.2031 C129.0469,178.2031 130.2813,177.6406 131.1875,176.5781 L129.8125,175.0625 C129.2656,175.6563 128.6094,176.0469 127.8125,176.0469 C126.1406,176.0469 124.9844,174.7188 124.9844,172.4375 C124.9844,170.2188 126.1406,168.875 127.7031,168.875 C128.5156,168.875 129.1094,169.1875 129.6406,169.6719 L131.0156,168.125 C130.2656,167.3906 129.1094,166.7188 127.7031,166.7188 C124.75,166.7188 122.4219,168.8594 122.4219,172.5313 C122.4219,176.25 124.7969,178.2031 127.5469,178.2031 Z " fill="#000000"/><text fill="#000000" font-family="sans-serif" font-size="14" lengthAdjust="spacing" textLength="61" x="141.5" y="176.7852">Metadata</text><line style="stroke:#181818;stroke-width:0.5;" x1="113.5" x2="204.5" y1="188" y2="188"/><line style="stroke:#181818;stroke-width:0.5;" x1="113.5" x2="204.5" y1="196" y2="196"/></g><g id="elem_GMN6"><path d="M47.5,276 L47.5,316.4688 A0,0 0 0 0 47.5,316.4688 L170.5,316.4688 A0,0 0 0 0 170.5,316.4688 L170.5,286 L160.5,276 L121.44,276 L148.88,204.07 L113.44,276 L47.5,276 A0,0 0 0 0 47.5,276 " fill="#FEFFDD" style="stroke:#181818;stroke-width:0.5;"/><path d="M160.5,276 L160.5,286 L170.5,286 L160.5,276 " fill="#FEFFDD" style="stroke:#181818;stroke-width:0.5;"/><text fill="#000000" font-family="sans-serif" font-size="13" lengthAdjust="spacing" textLength="90" x="53.5" y="293.0605">See diagram for</text><text fill="#000000" font-family="sans-serif" font-size="13" lengthAdjust="spacing" textLength="102" x="53.5" y="308.2949">metadata module.</text></g><!--class MeasureData--><g id="elem_MeasureData"><rect codeLine="18" fill="#F1F1F1" height="64.4063" id="MeasureData" rx="2.5" ry="2.5" style="stroke:#181818;stroke-width:0.5;" width="216" x="291" y="148"/><ellipse cx="352.75" cy="164" fill="#ADD1B2" rx="11" ry="11" style="stroke:#181818;stroke-width:1.0;"/><path d="M352.7969,170.2031 C354.2969,170.2031 355.5313,169.6406 356.4375,168.5781 L355.0625,167.0625 C354.5156,167.6563 353.8594,168.0469 353.0625,168.0469 C351.3906,168.0469 350.2344,166.7188 350.2344,164.4375 C350.2344,162.2188 351.3906,160.875 352.9531,160.875 C353.7656,160.875 354.3594,161.1875 354.8906,161.6719 L356.2656,160.125 C355.5156,159.3906 354.3594,158.7188 352.9531,158.7188 C350,158.7188 347.6719,160.8594 347.6719,164.5313 C347.6719,168.25 350.0469,170.2031 352.7969,170.2031 Z " fill="#000000"/><text fill="#000000" font-family="sans-serif" font-size="14" lengthAdjust="spacing" textLength="84" x="373.25" y="168.7852">MeasureData</text><line style="stroke:#181818;stroke-width:0.5;" x1="292" x2="506" y1="180" y2="180"/><text fill="#000000" font-family="sans-serif" font-size="14" lengthAdjust="spacing" textLength="204" x="297" y="196.9883">positions : np.ndarray(dtype=int)</text><line style="stroke:#181818;stroke-width:0.5;" x1="292" x2="506" y1="204.4063" y2="204.4063"/></g><!--class MonitorData--><g id="elem_MonitorData"><rect codeLine="22" fill="#F1F1F1" height="64.4063" id="MonitorData" rx="2.5" ry="2.5" style="stroke:#181818;stroke-width:0.5;" width="235" x="542.5" y="148"/><ellipse cx="616.25" cy="164" fill="#ADD1B2" rx="11" ry="11" style="stroke:#181818;stroke-width:1.0;"/><path d="M616.2969,170.2031 C617.7969,170.2031 619.0313,169.6406 619.9375,168.5781 L618.5625,167.0625 C618.0156,167.6563 617.3594,168.0469 616.5625,168.0469 C614.8906,168.0469 613.7344,166.7188 613.7344,164.4375 C613.7344,162.2188 614.8906,160.875 616.4531,160.875 C617.2656,160.875 617.8594,161.1875 618.3906,161.6719 L619.7656,160.125 C619.0156,159.3906 617.8594,158.7188 616.4531,158.7188 C613.5,158.7188 611.1719,160.8594 611.1719,164.5313 C611.1719,168.25 613.5469,170.2031 616.2969,170.2031 Z " fill="#000000"/><text fill="#000000" font-family="sans-serif" font-size="14" lengthAdjust="spacing" textLength="79" x="636.75" y="168.7852">MonitorData</text><line style="stroke:#181818;stroke-width:0.5;" x1="543.5" x2="776.5" y1="180" y2="180"/><text fill="#000000" font-family="sans-serif" font-size="14" lengthAdjust="spacing" textLength="223" x="548.5" y="196.9883">milliseconds : np.ndarray(dtype=int)</text><line style="stroke:#181818;stroke-width:0.5;" x1="543.5" x2="776.5" y1="204.4063" y2="204.4063"/></g><!--class MotorData--><g id="elem_MotorData"><rect codeLine="26" fill="#F1F1F1" height="48" id="MotorData" rx="2.5" ry="2.5" style="stroke:#181818;stroke-width:0.5;" width="100" x="206" y="272"/><ellipse cx="221" cy="288" fill="#ADD1B2" rx="11" ry="11" style="stroke:#181818;stroke-width:1.0;"/><path d="M221.0469,294.2031 C222.5469,294.2031 223.7813,293.6406 224.6875,292.5781 L223.3125,291.0625 C222.7656,291.6563 222.1094,292.0469 221.3125,292.0469 C219.6406,292.0469 218.4844,290.7188 218.4844,288.4375 C218.4844,286.2188 219.6406,284.875 221.2031,284.875 C222.0156,284.875 222.6094,285.1875 223.1406,285.6719 L224.5156,284.125 C223.7656,283.3906 222.6094,282.7188 221.2031,282.7188 C218.25,282.7188 215.9219,284.8594 215.9219,288.5313 C215.9219,292.25 218.2969,294.2031 221.0469,294.2031 Z " fill="#000000"/><text fill="#000000" font-family="sans-serif" font-size="14" lengthAdjust="spacing" textLength="68" x="235" y="292.7852">MotorData</text><line style="stroke:#181818;stroke-width:0.5;" x1="207" x2="305" y1="304" y2="304"/><line style="stroke:#181818;stroke-width:0.5;" x1="207" x2="305" y1="312" y2="312"/></g><!--class DetectorData--><g id="elem_DetectorData"><rect codeLine="29" fill="#F1F1F1" height="48" id="DetectorData" rx="2.5" ry="2.5" style="stroke:#181818;stroke-width:0.5;" width="115" x="341.5" y="272"/><ellipse cx="356.5" cy="288" fill="#ADD1B2" rx="11" ry="11" style="stroke:#181818;stroke-width:1.0;"/><path d="M356.5469,294.2031 C358.0469,294.2031 359.2813,293.6406 360.1875,292.5781 L358.8125,291.0625 C358.2656,291.6563 357.6094,292.0469 356.8125,292.0469 C355.1406,292.0469 353.9844,290.7188 353.9844,288.4375 C353.9844,286.2188 355.1406,284.875 356.7031,284.875 C357.5156,284.875 358.1094,285.1875 358.6406,285.6719 L360.0156,284.125 C359.2656,283.3906 358.1094,282.7188 356.7031,282.7188 C353.75,282.7188 351.4219,284.8594 351.4219,288.5313 C351.4219,292.25 353.7969,294.2031 356.5469,294.2031 Z " fill="#000000"/><text fill="#000000" font-family="sans-serif" font-size="14" lengthAdjust="spacing" textLength="83" x="370.5" y="292.7852">DetectorData</text><line style="stroke:#181818;stroke-width:0.5;" x1="342.5" x2="455.5" y1="304" y2="304"/><line style="stroke:#181818;stroke-width:0.5;" x1="342.5" x2="455.5" y1="312" y2="312"/></g><!--class TimestampData--><g id="elem_TimestampData"><rect codeLine="32" fill="#F1F1F1" height="48" id="TimestampData" rx="2.5" ry="2.5" style="stroke:#181818;stroke-width:0.5;" width="132" x="492" y="272"/><ellipse cx="507" cy="288" fill="#ADD1B2" rx="11" ry="11" style="stroke:#181818;stroke-width:1.0;"/><path d="M507.0469,294.2031 C508.5469,294.2031 509.7813,293.6406 510.6875,292.5781 L509.3125,291.0625 C508.7656,291.6563 508.1094,292.0469 507.3125,292.0469 C505.6406,292.0469 504.4844,290.7188 504.4844,288.4375 C504.4844,286.2188 505.6406,284.875 507.2031,284.875 C508.0156,284.875 508.6094,285.1875 509.1406,285.6719 L510.5156,284.125 C509.7656,283.3906 508.6094,282.7188 507.2031,282.7188 C504.25,282.7188 501.9219,284.8594 501.9219,288.5313 C501.9219,292.25 504.2969,294.2031 507.0469,294.2031 Z " fill="#000000"/><text fill="#000000" font-family="sans-serif" font-size="14" lengthAdjust="spacing" textLength="100" x="521" y="292.7852">TimestampData</text><line style="stroke:#181818;stroke-width:0.5;" x1="493" x2="623" y1="304" y2="304"/><line style="stroke:#181818;stroke-width:0.5;" x1="493" x2="623" y1="312" y2="312"/></g><!--class ScanModuleData--><g id="elem_ScanModuleData"><rect codeLine="35" fill="#F1F1F1" height="48" id="ScanModuleData" rx="2.5" ry="2.5" style="stroke:#181818;stroke-width:0.5;" width="139" x="659.5" y="272"/><ellipse cx="674.5" cy="288" fill="#ADD1B2" rx="11" ry="11" style="stroke:#181818;stroke-width:1.0;"/><path d="M674.5469,294.2031 C676.0469,294.2031 677.2813,293.6406 678.1875,292.5781 L676.8125,291.0625 C676.2656,291.6563 675.6094,292.0469 674.8125,292.0469 C673.1406,292.0469 671.9844,290.7188 671.9844,288.4375 C671.9844,286.2188 673.1406,284.875 674.7031,284.875 C675.5156,284.875 676.1094,285.1875 676.6406,285.6719 L678.0156,284.125 C677.2656,283.3906 676.1094,282.7188 674.7031,282.7188 C671.75,282.7188 669.4219,284.8594 669.4219,288.5313 C669.4219,292.25 671.7969,294.2031 674.5469,294.2031 Z " fill="#000000"/><text fill="#000000" font-family="sans-serif" font-size="14" lengthAdjust="spacing" textLength="107" x="688.5" y="292.7852">ScanModuleData</text><line style="stroke:#181818;stroke-width:0.5;" x1="660.5" x2="797.5" y1="304" y2="304"/><line style="stroke:#181818;stroke-width:0.5;" x1="660.5" x2="797.5" y1="312" y2="312"/></g><g id="elem_GMN15"><path d="M614,410 L614,496.1719 A0,0 0 0 0 614,496.1719 L844,496.1719 A0,0 0 0 0 844,496.1719 L844,420 L834,410 L733,410 L729,320.21 L725,410 L614,410 A0,0 0 0 0 614,410 " fill="#FEFFDD" style="stroke:#181818;stroke-width:0.5;"/><path d="M834,410 L834,420 L844,420 L834,410 " fill="#FEFFDD" style="stroke:#181818;stroke-width:0.5;"/><text fill="#000000" font-family="sans-serif" font-size="13" lengthAdjust="spacing" textLength="186" x="620" y="427.0605">The corresponding dataset in the</text><text fill="#000000" font-family="sans-serif" font-size="13" lengthAdjust="spacing" textLength="162" x="620" y="442.2949">eveH5 file does not exist yet.</text><text fill="#000000" font-family="sans-serif" font-size="13" lengthAdjust="spacing" textLength="3" x="620" y="457.5293">&#160;</text><text fill="#000000" font-family="sans-serif" font-size="13" lengthAdjust="spacing" textLength="178" x="620" y="472.7637">The idea is to store the id of the</text><text fill="#000000" font-family="sans-serif" font-size="13" lengthAdjust="spacing" textLength="209" x="620" y="487.998">scan module for each position count.</text></g><!--class AverageDetectorData--><g id="elem_AverageDetectorData"><rect codeLine="45" fill="#F1F1F1" height="146.4375" id="AverageDetectorData" rx="2.5" ry="2.5" style="stroke:#181818;stroke-width:0.5;" width="216" x="86" y="380"/><ellipse cx="123.5" cy="396" fill="#ADD1B2" rx="11" ry="11" style="stroke:#181818;stroke-width:1.0;"/><path d="M123.5469,402.2031 C125.0469,402.2031 126.2813,401.6406 127.1875,400.5781 L125.8125,399.0625 C125.2656,399.6563 124.6094,400.0469 123.8125,400.0469 C122.1406,400.0469 120.9844,398.7188 120.9844,396.4375 C120.9844,394.2188 122.1406,392.875 123.7031,392.875 C124.5156,392.875 125.1094,393.1875 125.6406,393.6719 L127.0156,392.125 C126.2656,391.3906 125.1094,390.7188 123.7031,390.7188 C120.75,390.7188 118.4219,392.8594 118.4219,396.5313 C118.4219,400.25 120.7969,402.2031 123.5469,402.2031 Z " fill="#000000"/><text fill="#000000" font-family="sans-serif" font-size="14" lengthAdjust="spacing" textLength="134" x="142.5" y="400.7852">AverageDetectorData</text><line style="stroke:#181818;stroke-width:0.5;" x1="87" x2="301" y1="412" y2="412"/><text fill="#000000" font-family="sans-serif" font-size="14" lengthAdjust="spacing" textLength="156" x="92" y="428.9883">raw_values : raggedarray</text><text fill="#000000" font-family="sans-serif" font-size="14" lengthAdjust="spacing" textLength="204" x="92" y="445.3945">attempts : np.ndarray(dtype=int)</text><line style="stroke:#181818;stroke-width:0.5;" x1="87" x2="301" y1="452.8125" y2="452.8125"/><text fill="#000000" font-family="sans-serif" font-size="14" lengthAdjust="spacing" textLength="45" x="92" y="469.8008">mean()</text><text fill="#000000" font-family="sans-serif" font-size="14" lengthAdjust="spacing" textLength="30" x="92" y="486.207">std()</text><text fill="#000000" font-family="sans-serif" font-size="14" lengthAdjust="spacing" textLength="114" x="92" y="502.6133">averaged_values()</text><text fill="#000000" font-family="sans-serif" font-size="14" lengthAdjust="spacing" textLength="109" x="92" y="519.0195">has_raw_values()</text></g><g id="elem_GMN19"><path d="M6,586 L6,626.4688 A0,0 0 0 0 6,626.4688 L162,626.4688 A0,0 0 0 0 162,626.4688 L162,596 L152,586 L101.94,586 L141.26,526.4 L93.94,586 L6,586 A0,0 0 0 0 6,586 " fill="#FEFFDD" style="stroke:#181818;stroke-width:0.5;"/><path d="M152,586 L152,596 L162,596 L152,586 " fill="#FEFFDD" style="stroke:#181818;stroke-width:0.5;"/><text fill="#000000" font-family="sans-serif" font-size="13" lengthAdjust="spacing" textLength="135" x="12" y="603.0605">How does mean() differ</text><text fill="#000000" font-family="sans-serif" font-size="13" lengthAdjust="spacing" textLength="116" x="12" y="618.2949">from values in Data?</text></g><g id="elem_GMN22"><path d="M197.5,586 L197.5,626.4688 A0,0 0 0 0 197.5,626.4688 L410.5,626.4688 A0,0 0 0 0 410.5,626.4688 L410.5,596 L400.5,586 L294.06,586 L246.74,526.4 L286.06,586 L197.5,586 A0,0 0 0 0 197.5,586 " fill="#FEFFDD" style="stroke:#181818;stroke-width:0.5;"/><path d="M400.5,586 L400.5,596 L410.5,596 L400.5,586 " fill="#FEFFDD" style="stroke:#181818;stroke-width:0.5;"/><text fill="#000000" font-family="sans-serif" font-size="13" lengthAdjust="spacing" textLength="173" x="203.5" y="603.0605">averaged_values() returns only</text><text fill="#000000" font-family="sans-serif" font-size="13" lengthAdjust="spacing" textLength="192" x="203.5" y="618.2949">those values used to average over</text></g><!--class IntervalDetectorData--><g id="elem_IntervalDetectorData"><rect codeLine="56" fill="#F1F1F1" height="130.0313" id="IntervalDetectorData" rx="2.5" ry="2.5" style="stroke:#181818;stroke-width:0.5;" width="202" x="337" y="388"/><ellipse cx="370" cy="404" fill="#ADD1B2" rx="11" ry="11" style="stroke:#181818;stroke-width:1.0;"/><path d="M370.0469,410.2031 C371.5469,410.2031 372.7813,409.6406 373.6875,408.5781 L372.3125,407.0625 C371.7656,407.6563 371.1094,408.0469 370.3125,408.0469 C368.6406,408.0469 367.4844,406.7188 367.4844,404.4375 C367.4844,402.2188 368.6406,400.875 370.2031,400.875 C371.0156,400.875 371.6094,401.1875 372.1406,401.6719 L373.5156,400.125 C372.7656,399.3906 371.6094,398.7188 370.2031,398.7188 C367.25,398.7188 364.9219,400.8594 364.9219,404.5313 C364.9219,408.25 367.2969,410.2031 370.0469,410.2031 Z " fill="#000000"/><text fill="#000000" font-family="sans-serif" font-size="14" lengthAdjust="spacing" textLength="130" x="388" y="408.7852">IntervalDetectorData</text><line style="stroke:#181818;stroke-width:0.5;" x1="338" x2="538" y1="420" y2="420"/><text fill="#000000" font-family="sans-serif" font-size="14" lengthAdjust="spacing" textLength="156" x="343" y="436.9883">raw_values : raggedarray</text><text fill="#000000" font-family="sans-serif" font-size="14" lengthAdjust="spacing" textLength="190" x="343" y="453.3945">counts : np.ndarray(dtype=int)</text><line style="stroke:#181818;stroke-width:0.5;" x1="338" x2="538" y1="460.8125" y2="460.8125"/><text fill="#000000" font-family="sans-serif" font-size="14" lengthAdjust="spacing" textLength="45" x="343" y="477.8008">mean()</text><text fill="#000000" font-family="sans-serif" font-size="14" lengthAdjust="spacing" textLength="30" x="343" y="494.207">std()</text><text fill="#000000" font-family="sans-serif" font-size="14" lengthAdjust="spacing" textLength="109" x="343" y="510.6133">has_raw_values()</text></g><!--reverse link Data to Metadata--><g id="link_Data_Metadata"><path codeLine="64" d="M316.7766,93.2104 C275.7466,115.5104 236.23,137.01 201.41,155.94 " fill="none" id="Data-backto-Metadata" style="stroke:#181818;stroke-width:1.0;"/><polygon fill="#181818" points="327.32,87.48,320.1382,86.8307,316.7766,93.2104,323.9584,93.8596,327.32,87.48" style="stroke:#181818;stroke-width:1.0;"/></g><!--reverse link Data to MeasureData--><g id="link_Data_MeasureData"><path codeLine="65" d="M399,106.01 C399,125.21 399,129.96 399,147.91 " fill="none" id="Data-backto-MeasureData" style="stroke:#181818;stroke-width:1.0;"/><polygon fill="none" points="399,88.01,393,106.01,405,106.01,399,88.01" style="stroke:#181818;stroke-width:1.0;"/></g><!--reverse link Data to MonitorData--><g id="link_Data_MonitorData"><path codeLine="66" d="M486.7605,92.3782 C526.6105,112.2982 559.6,128.8 597.81,147.91 " fill="none" id="Data-backto-MonitorData" style="stroke:#181818;stroke-width:1.0;"/><polygon fill="none" points="470.66,84.33,484.0778,97.7451,489.4432,87.0114,470.66,84.33" style="stroke:#181818;stroke-width:1.0;"/></g><!--reverse link MeasureData to MotorData--><g id="link_MeasureData_MotorData"><path codeLine="67" d="M345.847,223.3727 C322.197,242.2327 306.62,254.65 285.05,271.84 " fill="none" id="MeasureData-backto-MotorData" style="stroke:#181818;stroke-width:1.0;"/><polygon fill="none" points="359.92,212.15,342.1061,218.6817,349.5879,228.0637,359.92,212.15" style="stroke:#181818;stroke-width:1.0;"/></g><!--reverse link MeasureData to DetectorData--><g id="link_MeasureData_DetectorData"><path codeLine="68" d="M399,230.15 C399,249.01 399,254.65 399,271.84 " fill="none" id="MeasureData-backto-DetectorData" style="stroke:#181818;stroke-width:1.0;"/><polygon fill="none" points="399,212.15,393,230.15,405,230.15,399,212.15" style="stroke:#181818;stroke-width:1.0;"/></g><!--reverse link MeasureData to TimestampData--><g id="link_MeasureData_TimestampData"><path codeLine="69" d="M457.0757,222.6423 C483.3657,241.5023 501.72,254.65 525.7,271.84 " fill="none" id="MeasureData-backto-TimestampData" style="stroke:#181818;stroke-width:1.0;"/><polygon fill="none" points="442.45,212.15,453.5783,227.5175,460.5732,217.767,442.45,212.15" style="stroke:#181818;stroke-width:1.0;"/></g><!--reverse link MeasureData to ScanModuleData--><g id="link_MeasureData_ScanModuleData"><path codeLine="70" d="M505.7535,217.8772 C560.5235,236.7972 612.37,254.71 662.32,271.96 " fill="none" id="MeasureData-backto-ScanModuleData" style="stroke:#181818;stroke-width:1.0;"/><polygon fill="none" points="488.74,212,503.7944,223.5484,507.7125,212.2061,488.74,212" style="stroke:#181818;stroke-width:1.0;"/></g><!--reverse link DetectorData to AverageDetectorData--><g id="link_DetectorData_AverageDetectorData"><path codeLine="71" d="M353.9517,331.0654 C332.8417,347.0254 317.92,358.3 289.38,379.88 " fill="none" id="DetectorData-backto-AverageDetectorData" style="stroke:#181818;stroke-width:1.0;"/><polygon fill="none" points="368.31,320.21,350.3333,326.2793,357.5702,335.8515,368.31,320.21" style="stroke:#181818;stroke-width:1.0;"/></g><!--reverse link DetectorData to IntervalDetectorData--><g id="link_DetectorData_IntervalDetectorData"><path codeLine="72" d="M409.2286,337.6668 C413.7286,355.5668 415.8,363.78 421.83,387.72 " fill="none" id="DetectorData-backto-IntervalDetectorData" style="stroke:#181818;stroke-width:1.0;"/><polygon fill="none" points="404.84,320.21,403.4096,339.1297,415.0475,336.204,404.84,320.21" style="stroke:#181818;stroke-width:1.0;"/></g><!--SRC=[dPHDQzn038Rl_XKYbsuAMPf3BgOb59QI7d9AZe6WUkIrg3rZPcIdIvh_NddyiVQk0srpoQmqyqfw9Fb3-CcsHeyLc9hX-kPJacGbXW0x58JN1FIl8a7J_KpXVZX6UujbGq6jjjvQWzxZ8NbBh1E2ad81bqULDEqlnZSN_Va2CcS5sGP0kDv1VBoDDxuv3smDjsmQBCSWWGWCUMx9G4nmqFlQaiSzxKWe4-TZrcXDz7stGbxVpvq9MGDTYcETOqLQwv3x3oVYgXGUkf2C-mvExloJdJXKpZGbROyI61fFCsAlELDftg1sWOMTNKBQ63dKz8MjN6hCKSHP7WjOYbHSbXn8WPc_qZcgJCO5dfdzaIiAWbLzwdZ8qDx7AdShR69wZmLf4xsdK6jcRFVGiGaasZsGWk8bQkdk1d8k5QNJDge8q2yE0WSI1JWAiI443Y0EWkP9dO0Qkn4QfOAcD93lsW64MJ41ramQguAdtLqRZvwknvVdQO3rpfw62PwZHn6gQdaVUxyUQ3VzCOWPJjW7DaECmLfWU3u6tboUZjoTU-avzPewVdbEEdcvTzMu2KgtA-Ds_hBZj59gUfu6U9B6wq0wMnwUh1GkqAZS15qkxS3m29p-7q6kxTA_a8pz-G-EAyII6FlZrTNnQnGjdtz7qxIBS-jnkPBvjWxETrsBByUPTx4zv-xb3YKBSl72IiTMRgr-nVu0]--></g></svg>