<?xml version="1.0" encoding="us-ascii" standalone="no"?><svg xmlns="http://www.w3.org/2000/svg" xmlns:xlink="http://www.w3.org/1999/xlink" contentStyleType="text/css" height="735px" preserveAspectRatio="none" style="width:780px;height:735px;background:#FFFFFF;" version="1.1" viewBox="0 0 780 735" width="780px" zoomAndPan="magnify"><defs/><g><!--cluster measurement--><g id="cluster_measurement"><path d="M8.5,6 L98.5,6 A3.75,3.75 0 0 1 101,8.5 L108,28.4063 L770.5,28.4063 A2.5,2.5 0 0 1 773,30.9063 L773,318.5 A2.5,2.5 0 0 1 770.5,321 L8.5,321 A2.5,2.5 0 0 1 6,318.5 L6,8.5 A2.5,2.5 0 0 1 8.5,6 " fill="none" style="stroke:#000000;stroke-width:1.5;"/><line style="stroke:#000000;stroke-width:1.5;" x1="6" x2="108" y1="28.4063" y2="28.4063"/><text fill="#000000" font-family="sans-serif" font-size="14" font-weight="bold" lengthAdjust="spacing" textLength="89" x="10" y="20.9883">measurement</text></g><!--cluster entities--><g id="cluster_entities"><path d="M32.5,49 L82.5,49 A3.75,3.75 0 0 1 85,51.5 L92,71.4063 L746.5,71.4063 A2.5,2.5 0 0 1 749,73.9063 L749,294.5 A2.5,2.5 0 0 1 746.5,297 L32.5,297 A2.5,2.5 0 0 1 30,294.5 L30,51.5 A2.5,2.5 0 0 1 32.5,49 " fill="none" style="stroke:#000000;stroke-width:1.5;"/><line style="stroke:#000000;stroke-width:1.5;" x1="30" x2="92" y1="71.4063" y2="71.4063"/><text fill="#000000" font-family="sans-serif" font-size="14" font-weight="bold" lengthAdjust="spacing" textLength="49" x="34" y="63.9883">entities</text></g><!--cluster measurement--><g id="cluster_measurement"><path d="M204.5,92 L294.5,92 A3.75,3.75 0 0 1 297,94.5 L304,114.4063 L722.5,114.4063 A2.5,2.5 0 0 1 725,116.9063 L725,270.5 A2.5,2.5 0 0 1 722.5,273 L204.5,273 A2.5,2.5 0 0 1 202,270.5 L202,94.5 A2.5,2.5 0 0 1 204.5,92 " fill="none" style="stroke:#000000;stroke-width:1.5;"/><line style="stroke:#000000;stroke-width:1.5;" x1="202" x2="304" y1="114.4063" y2="114.4063"/><text fill="#000000" font-family="sans-serif" font-size="14" font-weight="bold" lengthAdjust="spacing" textLength="89" x="206" y="106.9883">measurement</text></g><!--cluster metadata--><g id="cluster_metadata"><path d="M56.5,133 L119.5,133 A3.75,3.75 0 0 1 122,135.5 L129,155.4063 L175.5,155.4063 A2.5,2.5 0 0 1 178,157.9063 L178,229.5 A2.5,2.5 0 0 1 175.5,232 L56.5,232 A2.5,2.5 0 0 1 54,229.5 L54,135.5 A2.5,2.5 0 0 1 56.5,133 " fill="none" style="stroke:#000000;stroke-width:1.5;"/><line style="stroke:#000000;stroke-width:1.5;" x1="54" x2="129" y1="155.4063" y2="155.4063"/><text fill="#000000" font-family="sans-serif" font-size="14" font-weight="bold" lengthAdjust="spacing" textLength="62" x="58" y="147.9883">metadata</text></g><!--cluster evefile--><g id="cluster_evefile"><path d="M452.5,345 L497.5,345 A3.75,3.75 0 0 1 500,347.5 L507,367.4063 L742.5,367.4063 A2.5,2.5 0 0 1 745,369.9063 L745,575.5 A2.5,2.5 0 0 1 742.5,578 L452.5,578 A2.5,2.5 0 0 1 450,575.5 L450,347.5 A2.5,2.5 0 0 1 452.5,345 " fill="none" style="stroke:#000000;stroke-width:1.5;"/><line style="stroke:#000000;stroke-width:1.5;" x1="450" x2="507" y1="367.4063" y2="367.4063"/><text fill="#000000" font-family="sans-serif" font-size="14" font-weight="bold" lengthAdjust="spacing" textLength="44" x="454" y="359.9883">evefile</text></g><!--cluster entities--><g id="cluster_entities"><path d="M476.5,388 L526.5,388 A3.75,3.75 0 0 1 529,390.5 L536,410.4063 L718.5,410.4063 A2.5,2.5 0 0 1 721,412.9063 L721,551.5 A2.5,2.5 0 0 1 718.5,554 L476.5,554 A2.5,2.5 0 0 1 474,551.5 L474,390.5 A2.5,2.5 0 0 1 476.5,388 " fill="none" style="stroke:#000000;stroke-width:1.5;"/><line style="stroke:#000000;stroke-width:1.5;" x1="474" x2="536" y1="410.4063" y2="410.4063"/><text fill="#000000" font-family="sans-serif" font-size="14" font-weight="bold" lengthAdjust="spacing" textLength="49" x="478" y="402.9883">entities</text></g><!--cluster file--><g id="cluster_file"><path d="M500.5,431 L522.5,431 A3.75,3.75 0 0 1 525,433.5 L532,453.4063 L694.5,453.4063 A2.5,2.5 0 0 1 697,455.9063 L697,527.5 A2.5,2.5 0 0 1 694.5,530 L500.5,530 A2.5,2.5 0 0 1 498,527.5 L498,433.5 A2.5,2.5 0 0 1 500.5,431 " fill="none" style="stroke:#000000;stroke-width:1.5;"/><line style="stroke:#000000;stroke-width:1.5;" x1="498" x2="532" y1="453.4063" y2="453.4063"/><text fill="#000000" font-family="sans-serif" font-size="14" font-weight="bold" lengthAdjust="spacing" textLength="21" x="502" y="445.9883">file</text></g><!--class Measurement--><g id="elem_Measurement"><rect fill="#F1F1F1" height="48" id="Measurement" rx="2.5" ry="2.5" style="stroke:#181818;stroke-width:0.5;" width="118" x="218" y="168"/><ellipse cx="233" cy="184" fill="#ADD1B2" rx="11" ry="11" style="stroke:#181818;stroke-width:1.0;"/><path d="M233.0469,190.2031 C234.5469,190.2031 235.7813,189.6406 236.6875,188.5781 L235.3125,187.0625 C234.7656,187.6563 234.1094,188.0469 233.3125,188.0469 C231.6406,188.0469 230.4844,186.7188 230.4844,184.4375 C230.4844,182.2188 231.6406,180.875 233.2031,180.875 C234.0156,180.875 234.6094,181.1875 235.1406,181.6719 L236.5156,180.125 C235.7656,179.3906 234.6094,178.7188 233.2031,178.7188 C230.25,178.7188 227.9219,180.8594 227.9219,184.5313 C227.9219,188.25 230.2969,190.2031 233.0469,190.2031 Z " fill="#000000"/><text fill="#000000" font-family="sans-serif" font-size="14" lengthAdjust="spacing" textLength="86" x="247" y="188.7852">Measurement</text><line style="stroke:#181818;stroke-width:0.5;" x1="219" x2="335" y1="200" y2="200"/><line style="stroke:#181818;stroke-width:0.5;" x1="219" x2="335" y1="208" y2="208"/></g><!--class Data--><g id="elem_Data"><rect codeLine="34" fill="#F1F1F1" height="97.2188" id="Data" rx="2.5" ry="2.5" style="stroke:#181818;stroke-width:0.5;" width="183" x="371.5" y="143.5"/><ellipse cx="443.75" cy="159.5" fill="#ADD1B2" rx="11" ry="11" style="stroke:#181818;stroke-width:1.0;"/><path d="M443.7969,165.7031 C445.2969,165.7031 446.5313,165.1406 447.4375,164.0781 L446.0625,162.5625 C445.5156,163.1563 444.8594,163.5469 444.0625,163.5469 C442.3906,163.5469 441.2344,162.2188 441.2344,159.9375 C441.2344,157.7188 442.3906,156.375 443.9531,156.375 C444.7656,156.375 445.3594,156.6875 445.8906,157.1719 L447.2656,155.625 C446.5156,154.8906 445.3594,154.2188 443.9531,154.2188 C441,154.2188 438.6719,156.3594 438.6719,160.0313 C438.6719,163.75 441.0469,165.7031 443.7969,165.7031 Z " fill="#000000"/><text fill="#000000" font-family="sans-serif" font-size="14" lengthAdjust="spacing" textLength="30" x="464.25" y="164.2852">Data</text><line style="stroke:#181818;stroke-width:0.5;" x1="372.5" x2="553.5" y1="175.5" y2="175.5"/><text fill="#000000" font-family="sans-serif" font-size="14" lengthAdjust="spacing" textLength="107" x="377.5" y="192.4883">data : np.ndarray</text><text fill="#000000" font-family="sans-serif" font-size="14" lengthAdjust="spacing" textLength="99" x="377.5" y="208.8945">axes[]: AxisData</text><text fill="#000000" font-family="sans-serif" font-size="14" lengthAdjust="spacing" textLength="171" x="377.5" y="225.3008">metadata : DeviceMetadata</text><line style="stroke:#181818;stroke-width:0.5;" x1="372.5" x2="553.5" y1="232.7188" y2="232.7188"/></g><!--class Axis--><g id="elem_Axis"><rect codeLine="40" fill="#F1F1F1" height="130.0313" id="Axis" rx="2.5" ry="2.5" style="stroke:#181818;stroke-width:0.5;" width="119" x="589.5" y="127"/><ellipse cx="631.95" cy="143" fill="#ADD1B2" rx="11" ry="11" style="stroke:#181818;stroke-width:1.0;"/><path d="M631.9969,149.2031 C633.4969,149.2031 634.7313,148.6406 635.6375,147.5781 L634.2625,146.0625 C633.7156,146.6563 633.0594,147.0469 632.2625,147.0469 C630.5906,147.0469 629.4344,145.7188 629.4344,143.4375 C629.4344,141.2188 630.5906,139.875 632.1531,139.875 C632.9656,139.875 633.5594,140.1875 634.0906,140.6719 L635.4656,139.125 C634.7156,138.3906 633.5594,137.7188 632.1531,137.7188 C629.2,137.7188 626.8719,139.8594 626.8719,143.5313 C626.8719,147.25 629.2469,149.2031 631.9969,149.2031 Z " fill="#000000"/><text fill="#000000" font-family="sans-serif" font-size="14" lengthAdjust="spacing" textLength="26" x="652.05" y="147.7852">Axis</text><line style="stroke:#181818;stroke-width:0.5;" x1="590.5" x2="707.5" y1="159" y2="159"/><text fill="#000000" font-family="sans-serif" font-size="14" lengthAdjust="spacing" textLength="107" x="595.5" y="175.9883">data : np.ndarray</text><text fill="#000000" font-family="sans-serif" font-size="14" lengthAdjust="spacing" textLength="71" x="595.5" y="192.3945">label: string</text><text fill="#000000" font-family="sans-serif" font-size="14" lengthAdjust="spacing" textLength="97" x="595.5" y="208.8008">quantity : string</text><text fill="#000000" font-family="sans-serif" font-size="14" lengthAdjust="spacing" textLength="90" x="595.5" y="225.207">symbol : string</text><text fill="#000000" font-family="sans-serif" font-size="14" lengthAdjust="spacing" textLength="69" x="595.5" y="241.6133">unit : string</text><line style="stroke:#181818;stroke-width:0.5;" x1="590.5" x2="707.5" y1="249.0313" y2="249.0313"/></g><!--class Metadata--><g id="elem_Metadata"><rect fill="#F1F1F1" height="48" id="Metadata" rx="2.5" ry="2.5" style="stroke:#181818;stroke-width:0.5;" width="93" x="69.5" y="168"/><ellipse cx="84.5" cy="184" fill="#ADD1B2" rx="11" ry="11" style="stroke:#181818;stroke-width:1.0;"/><path d="M84.5469,190.2031 C86.0469,190.2031 87.2813,189.6406 88.1875,188.5781 L86.8125,187.0625 C86.2656,187.6563 85.6094,188.0469 84.8125,188.0469 C83.1406,188.0469 81.9844,186.7188 81.9844,184.4375 C81.9844,182.2188 83.1406,180.875 84.7031,180.875 C85.5156,180.875 86.1094,181.1875 86.6406,181.6719 L88.0156,180.125 C87.2656,179.3906 86.1094,178.7188 84.7031,178.7188 C81.75,178.7188 79.4219,180.8594 79.4219,184.5313 C79.4219,188.25 81.7969,190.2031 84.5469,190.2031 Z " fill="#000000"/><text fill="#000000" font-family="sans-serif" font-size="14" lengthAdjust="spacing" textLength="61" x="98.5" y="188.7852">Metadata</text><line style="stroke:#181818;stroke-width:0.5;" x1="70.5" x2="161.5" y1="200" y2="200"/><line style="stroke:#181818;stroke-width:0.5;" x1="70.5" x2="161.5" y1="208" y2="208"/></g><!--class Scan--><g id="elem_Scan"><rect codeLine="24" fill="#F1F1F1" height="48" id="Scan" rx="2.5" ry="2.5" style="stroke:#181818;stroke-width:0.5;" width="63" x="514.5" y="466"/><ellipse cx="529.5" cy="482" fill="#ADD1B2" rx="11" ry="11" style="stroke:#181818;stroke-width:1.0;"/><path d="M529.5469,488.2031 C531.0469,488.2031 532.2813,487.6406 533.1875,486.5781 L531.8125,485.0625 C531.2656,485.6563 530.6094,486.0469 529.8125,486.0469 C528.1406,486.0469 526.9844,484.7188 526.9844,482.4375 C526.9844,480.2188 528.1406,478.875 529.7031,478.875 C530.5156,478.875 531.1094,479.1875 531.6406,479.6719 L533.0156,478.125 C532.2656,477.3906 531.1094,476.7188 529.7031,476.7188 C526.75,476.7188 524.4219,478.8594 524.4219,482.5313 C524.4219,486.25 526.7969,488.2031 529.5469,488.2031 Z " fill="#000000"/><text fill="#000000" font-family="sans-serif" font-size="14" lengthAdjust="spacing" textLength="31" x="543.5" y="486.7852">Scan</text><line style="stroke:#181818;stroke-width:0.5;" x1="515.5" x2="576.5" y1="498" y2="498"/><line style="stroke:#181818;stroke-width:0.5;" x1="515.5" x2="576.5" y1="506" y2="506"/></g><!--class Setup--><g id="elem_Setup"><rect codeLine="27" fill="#F1F1F1" height="48" id="Setup" rx="2.5" ry="2.5" style="stroke:#181818;stroke-width:0.5;" width="68" x="613" y="466"/><ellipse cx="628" cy="482" fill="#ADD1B2" rx="11" ry="11" style="stroke:#181818;stroke-width:1.0;"/><path d="M628.0469,488.2031 C629.5469,488.2031 630.7813,487.6406 631.6875,486.5781 L630.3125,485.0625 C629.7656,485.6563 629.1094,486.0469 628.3125,486.0469 C626.6406,486.0469 625.4844,484.7188 625.4844,482.4375 C625.4844,480.2188 626.6406,478.875 628.2031,478.875 C629.0156,478.875 629.6094,479.1875 630.1406,479.6719 L631.5156,478.125 C630.7656,477.3906 629.6094,476.7188 628.2031,476.7188 C625.25,476.7188 622.9219,478.8594 622.9219,482.5313 C622.9219,486.25 625.2969,488.2031 628.0469,488.2031 Z " fill="#000000"/><text fill="#000000" font-family="sans-serif" font-size="14" lengthAdjust="spacing" textLength="36" x="642" y="486.7852">Setup</text><line style="stroke:#181818;stroke-width:0.5;" x1="614" x2="680" y1="498" y2="498"/><line style="stroke:#181818;stroke-width:0.5;" x1="614" x2="680" y1="506" y2="506"/></g><!--class Measurement--><g id="elem_Measurement"><rect codeLine="3" fill="#F1F1F1" height="261.2813" id="Measurement" rx="2.5" ry="2.5" style="stroke:#181818;stroke-width:0.5;" width="259" x="174.5" y="359.5"/><ellipse cx="256.75" cy="375.5" fill="#ADD1B2" rx="11" ry="11" style="stroke:#181818;stroke-width:1.0;"/><path d="M256.7969,381.7031 C258.2969,381.7031 259.5313,381.1406 260.4375,380.0781 L259.0625,378.5625 C258.5156,379.1563 257.8594,379.5469 257.0625,379.5469 C255.3906,379.5469 254.2344,378.2188 254.2344,375.9375 C254.2344,373.7188 255.3906,372.375 256.9531,372.375 C257.7656,372.375 258.3594,372.6875 258.8906,373.1719 L260.2656,371.625 C259.5156,370.8906 258.3594,370.2188 256.9531,370.2188 C254,370.2188 251.6719,372.3594 251.6719,376.0313 C251.6719,379.75 254.0469,381.7031 256.7969,381.7031 Z " fill="#000000"/><text fill="#000000" font-family="sans-serif" font-size="14" lengthAdjust="spacing" textLength="86" x="277.25" y="380.2852">Measurement</text><line style="stroke:#181818;stroke-width:0.5;" x1="175.5" x2="432.5" y1="391.5" y2="391.5"/><text fill="#000000" font-family="sans-serif" font-size="14" lengthAdjust="spacing" textLength="149" x="180.5" y="408.4883">devices{} : MeasureData</text><text fill="#000000" font-family="sans-serif" font-size="14" lengthAdjust="spacing" textLength="244" x="180.5" y="424.8945">machine{} : MeasureData | MonitorData</text><text fill="#000000" font-family="sans-serif" font-size="14" lengthAdjust="spacing" textLength="247" x="180.5" y="441.3008">beamline{} : MeasureData | MonitorData</text><text fill="#000000" font-family="sans-serif" font-size="14" lengthAdjust="spacing" textLength="131" x="180.5" y="457.707">metadata : Metadata</text><text fill="#000000" font-family="sans-serif" font-size="14" lengthAdjust="spacing" textLength="70" x="180.5" y="474.1133">scan : Scan</text><text fill="#000000" font-family="sans-serif" font-size="14" lengthAdjust="spacing" textLength="80" x="180.5" y="490.5195">setup : Setup</text><text fill="#000000" font-family="sans-serif" font-size="14" lengthAdjust="spacing" textLength="185" x="180.5" y="506.9258">log_messages[] : LogMessage</text><text fill="#000000" font-family="sans-serif" font-size="14" lengthAdjust="spacing" textLength="68" x="180.5" y="523.332">data : Data</text><line style="stroke:#181818;stroke-width:0.5;" x1="175.5" x2="432.5" y1="530.75" y2="530.75"/><text fill="#000000" font-family="sans-serif" font-size="14" lengthAdjust="spacing" textLength="90" x="180.5" y="547.7383">load(filename)</text><text fill="#000000" font-family="sans-serif" font-size="14" lengthAdjust="spacing" textLength="92" x="180.5" y="564.1445">save(filename)</text><text fill="#000000" font-family="sans-serif" font-size="14" lengthAdjust="spacing" textLength="152" x="180.5" y="580.5508">export(filename, format)</text><text fill="#000000" font-family="sans-serif" font-size="14" lengthAdjust="spacing" textLength="131" x="180.5" y="596.957">set_data(name, field)</text><text fill="#000000" font-family="sans-serif" font-size="14" lengthAdjust="spacing" textLength="161" x="180.5" y="613.3633">set_axes(names[], fields[])</text></g><!--class Scan--><g id="elem_Scan"><rect codeLine="30" fill="#F1F1F1" height="48" id="Scan" rx="2.5" ry="2.5" style="stroke:#181818;stroke-width:0.5;" width="63" x="393.5" y="680.5"/><ellipse cx="408.5" cy="696.5" fill="#ADD1B2" rx="11" ry="11" style="stroke:#181818;stroke-width:1.0;"/><path d="M408.5469,702.7031 C410.0469,702.7031 411.2813,702.1406 412.1875,701.0781 L410.8125,699.5625 C410.2656,700.1563 409.6094,700.5469 408.8125,700.5469 C407.1406,700.5469 405.9844,699.2188 405.9844,696.9375 C405.9844,694.7188 407.1406,693.375 408.7031,693.375 C409.5156,693.375 410.1094,693.6875 410.6406,694.1719 L412.0156,692.625 C411.2656,691.8906 410.1094,691.2188 408.7031,691.2188 C405.75,691.2188 403.4219,693.3594 403.4219,697.0313 C403.4219,700.75 405.7969,702.7031 408.5469,702.7031 Z " fill="#000000"/><text fill="#000000" font-family="sans-serif" font-size="14" lengthAdjust="spacing" textLength="31" x="422.5" y="701.2852">Scan</text><line style="stroke:#181818;stroke-width:0.5;" x1="394.5" x2="455.5" y1="712.5" y2="712.5"/><line style="stroke:#181818;stroke-width:0.5;" x1="394.5" x2="455.5" y1="720.5" y2="720.5"/></g><!--class Setup--><g id="elem_Setup"><rect codeLine="32" fill="#F1F1F1" height="48" id="Setup" rx="2.5" ry="2.5" style="stroke:#181818;stroke-width:0.5;" width="68" x="552" y="680.5"/><ellipse cx="567" cy="696.5" fill="#ADD1B2" rx="11" ry="11" style="stroke:#181818;stroke-width:1.0;"/><path d="M567.0469,702.7031 C568.5469,702.7031 569.7813,702.1406 570.6875,701.0781 L569.3125,699.5625 C568.7656,700.1563 568.1094,700.5469 567.3125,700.5469 C565.6406,700.5469 564.4844,699.2188 564.4844,696.9375 C564.4844,694.7188 565.6406,693.375 567.2031,693.375 C568.0156,693.375 568.6094,693.6875 569.1406,694.1719 L570.5156,692.625 C569.7656,691.8906 568.6094,691.2188 567.2031,691.2188 C564.25,691.2188 561.9219,693.3594 561.9219,697.0313 C561.9219,700.75 564.2969,702.7031 567.0469,702.7031 Z " fill="#000000"/><text fill="#000000" font-family="sans-serif" font-size="14" lengthAdjust="spacing" textLength="36" x="581" y="701.2852">Setup</text><line style="stroke:#181818;stroke-width:0.5;" x1="553" x2="619" y1="712.5" y2="712.5"/><line style="stroke:#181818;stroke-width:0.5;" x1="553" x2="619" y1="720.5" y2="720.5"/></g><!--reverse link Measurement to Measurement--><g id="link_Measurement_Measurement"><path d="M280.7548,234.1556 C283.5948,265.2956 287.22,305.04 292.18,359.37 " fill="none" id="Measurement-backto-Measurement" style="stroke:#181818;stroke-width:1.0;"/><polygon fill="none" points="279.12,216.23,274.7796,234.7005,286.73,233.6107,279.12,216.23" style="stroke:#181818;stroke-width:1.0;"/></g><!--reverse link Measurement to Metadata--><g id="link_Measurement_Metadata"><path codeLine="20" d="M232.8365,349.2013 C226.3565,338.9313 226.27,338.87 220,329 C194.84,289.38 165.67,243.19 143.5,216.12 " fill="none" id="Measurement-backto-Metadata" style="stroke:#181818;stroke-width:1.0;"/><polygon fill="#181818" points="239.24,359.35,239.4212,352.1412,232.8365,349.2013,232.6554,356.4101,239.24,359.35" style="stroke:#181818;stroke-width:1.0;"/></g><!--link Metadata to Measurement--><!--reverse link Measurement to Scan--><g id="link_Measurement_Scan"><path codeLine="21" d="M383.8075,631.1581 C396.8975,654.1481 403.17,665.16 411.88,680.46 " fill="none" id="Measurement-backto-Scan" style="stroke:#181818;stroke-width:1.0;"/><polygon fill="#181818" points="377.87,620.73,377.3627,627.9232,383.8075,631.1581,384.3148,623.9649,377.87,620.73" style="stroke:#181818;stroke-width:1.0;"/></g><!--reverse link Measurement to Setup--><g id="link_Measurement_Setup"><path codeLine="22" d="M443.4427,596.073 C488.6827,630.173 525.89,658.2 555.42,680.46 " fill="none" id="Measurement-backto-Setup" style="stroke:#181818;stroke-width:1.0;"/><polygon fill="#181818" points="433.86,588.85,436.2437,595.6557,443.4427,596.073,441.059,589.2673,433.86,588.85" style="stroke:#181818;stroke-width:1.0;"/></g><!--reverse link Scan to Scan--><g id="link_Scan_Scan"><path d="M523.9138,529.7923 C500.6438,570.6623 461.43,639.53 438.16,680.38 " fill="none" id="Scan-backto-Scan" style="stroke:#181818;stroke-width:1.0;"/><polygon fill="none" points="532.82,514.15,518.6997,526.8235,529.1279,532.761,532.82,514.15" style="stroke:#181818;stroke-width:1.0;"/></g><!--reverse link Setup to Setup--><g id="link_Setup_Setup"><path d="M635.3904,531.4504 C623.6504,572.3204 604.36,639.53 592.64,680.38 " fill="none" id="Setup-backto-Setup" style="stroke:#181818;stroke-width:1.0;"/><polygon fill="none" points="640.36,514.15,629.6236,529.7939,641.1572,533.1069,640.36,514.15" style="stroke:#181818;stroke-width:1.0;"/></g><!--reverse link Data to Axis--><g id="link_Data_Axis"><path codeLine="48" d="M566.55,192 C578.11,192 577.67,192 589.23,192 " fill="none" id="Data-backto-Axis" style="stroke:#181818;stroke-width:1.0;"/><polygon fill="#181818" points="554.55,192,560.55,196,566.55,192,560.55,188,554.55,192" style="stroke:#181818;stroke-width:1.0;"/><text fill="#000000" font-family="sans-serif" font-size="13" lengthAdjust="spacing" textLength="7" x="574.519" y="188.1589">n</text></g><!--link Data to Measurement--><g id="link_Data_Measurement"><path codeLine="50" d="M427.79,240.56 C408.05,272.83 388.8312,306.5674 366.5112,348.8574 " fill="none" id="Data-to-Measurement" style="stroke:#181818;stroke-width:1.0;"/><polygon fill="#181818" points="360.91,359.47,367.2481,356.0308,366.5112,348.8574,360.173,352.2967,360.91,359.47" style="stroke:#181818;stroke-width:1.0;"/></g><!--link Data to Measurement--><!--SRC=[ZLF1Ze8m4Btp5OsNLRFWdSCcctXSJtiqnenqn2PjOMan69T_ttP0G7PT8I5jtynxdRvENqxMvYPUhN89sfPAHaccLea4Oq8k82r01G4jsGR1b0Kgr9PXPL5pmrIFHUuNLg29Xk2GT0sO-pYUHOBcMhFu9ha62nHJa9o4nd6CVRDDfeNDYYxpWA3aj5I55hWF-SHcIhX9G3liqmtD6csPUy2FXCWitIiq1b8qsvqBVMJffbatHsbKQQUM07n-518rA5mqgd364OHLdXMs0r_PCIiKsCMjYhtNdRSXWPBt4QZGKCJLqmRTR17KGJ1qUXc6ZwwcCI3gd1ZJo8vV85dIzW6UqPVUYzBAyzmDrq-ooED16j5ktVHOkKid_fFyOR5F6vIQvZgyJfr7caDHm8LGR_bs5xFtIfY_UcfD_TpvMK_UsGl-kxE40ygO6Li8dHBoLO9Nkh0xr5pK8PFtMEdUG8-uekYSot2cPtII5WYNmsST1DEQXeNRa-0SzIvycyGVsTtHxza_]--></g></svg>