<?xml version="1.0" encoding="us-ascii" standalone="no"?><svg xmlns="http://www.w3.org/2000/svg" xmlns:xlink="http://www.w3.org/1999/xlink" contentStyleType="text/css" height="869px" preserveAspectRatio="none" style="width:2303px;height:869px;background:#FFFFFF;" version="1.1" viewBox="0 0 2303 869" width="2303px" zoomAndPan="magnify"><defs/><g><!--class Data--><g id="elem_Data"><rect codeLine="3" fill="#F1F1F1" height="145.7813" id="Data" rx="2.5" ry="2.5" style="stroke:#181818;stroke-width:0.5;" width="193" x="788" y="18.5"/><ellipse cx="863.25" cy="34.5" fill="#ADD1B2" rx="11" ry="11" style="stroke:#181818;stroke-width:1.0;"/><path d="M866.2344,40.1406 Q865.6563,40.4375 865.0156,40.5781 Q864.375,40.7344 863.6719,40.7344 Q861.1563,40.7344 859.8281,39.0938 Q858.5156,37.4375 858.5156,34.3125 Q858.5156,31.1719 859.8281,29.5313 Q861.1563,27.875 863.6719,27.875 Q864.375,27.875 865.0156,28.0313 Q865.6719,28.1719 866.2344,28.4688 L866.2344,31.1875 Q865.5938,30.6094 865,30.3438 Q864.4063,30.0781 863.7813,30.0781 Q862.4375,30.0781 861.75,31.1406 Q861.0625,32.2031 861.0625,34.3125 Q861.0625,36.4063 861.75,37.4844 Q862.4375,38.5469 863.7813,38.5469 Q864.4063,38.5469 865,38.2813 Q865.5938,38 866.2344,37.4219 L866.2344,40.1406 Z " fill="#000000"/><text fill="#000000" font-family="sans-serif" font-size="14" lengthAdjust="spacing" textLength="34" x="883.75" y="39.3467">Data</text><line style="stroke:#181818;stroke-width:0.5;" x1="789" x2="980" y1="50.5" y2="50.5"/><text fill="#000000" font-family="sans-serif" font-size="14" lengthAdjust="spacing" textLength="149" x="794" y="67.4951">metadata : Metadata</text><text fill="#000000" font-family="sans-serif" font-size="14" lengthAdjust="spacing" textLength="91" x="794" y="83.792">options : dict</text><text fill="#000000" font-family="sans-serif" font-size="14" lengthAdjust="spacing" textLength="181" x="794" y="100.0889">importer[] : DataImporter</text><text fill="#000000" font-family="sans-serif" font-size="14" lengthAdjust="spacing" textLength="130" x="794" y="116.3857">_data : np.ndarray</text><line style="stroke:#181818;stroke-width:0.5;" x1="789" x2="980" y1="123.6875" y2="123.6875"/><text fill="#000000" font-family="sans-serif" font-size="14" lengthAdjust="spacing" textLength="42" x="794" y="140.6826">data()</text><text fill="#000000" font-family="sans-serif" font-size="14" lengthAdjust="spacing" textLength="72" x="794" y="156.9795">get_data()</text></g><path d="M330.5,6 L330.5,167.3281 A0,0 0 0 0 330.5,167.3281 L752.5,167.3281 A0,0 0 0 0 752.5,167.3281 L752.5,90.6641 L792,111.5391 L752.5,82.6641 L752.5,16 L742.5,6 L330.5,6 A0,0 0 0 0 330.5,6 " fill="#FEFFDD" style="stroke:#181818;stroke-width:0.5;"/><path d="M742.5,6 L742.5,16 L752.5,16 L742.5,6 " fill="#FEFFDD" style="stroke:#181818;stroke-width:0.5;"/><text fill="#000000" font-family="sans-serif" font-size="13" lengthAdjust="spacing" textLength="337" x="336.5" y="23.0669">"_data" usually contains a 1D array and is accessed</text><text fill="#000000" font-family="sans-serif" font-size="13" lengthAdjust="spacing" textLength="333" x="336.5" y="38.1997">via the data() getter method (Python property) that</text><text fill="#000000" font-family="sans-serif" font-size="13" lengthAdjust="spacing" textLength="331" x="336.5" y="53.3325">calls the DataImporter on first access if necessary.</text><text fill="#000000" font-family="sans-serif" font-size="13" lengthAdjust="spacing" textLength="8" x="336.5" y="68.4653">&#160;</text><text fill="#000000" font-family="sans-serif" font-size="13" lengthAdjust="spacing" textLength="322" x="336.5" y="83.5981">For individual channel values see derived classes</text><text fill="#000000" font-family="sans-serif" font-size="13" lengthAdjust="spacing" textLength="308" x="336.5" y="98.731">AverageChannelData and IntervalChannelData.</text><text fill="#000000" font-family="sans-serif" font-size="13" lengthAdjust="spacing" textLength="8" x="336.5" y="113.8638">&#160;</text><text fill="#000000" font-family="sans-serif" font-size="13" lengthAdjust="spacing" textLength="362" x="336.5" y="128.9966">ArrayChannelData and AreaChannelData are somewhat</text><text fill="#000000" font-family="sans-serif" font-size="13" lengthAdjust="spacing" textLength="401" x="336.5" y="144.1294">special as they contain either 2D data or a list of data objects</text><text fill="#000000" font-family="sans-serif" font-size="13" lengthAdjust="spacing" textLength="193" x="336.5" y="159.2622">(in case of images and alike).</text><!--class DataImporter--><g id="elem_DataImporter"><rect codeLine="24" fill="#F1F1F1" height="80.5938" id="DataImporter" rx="2.5" ry="2.5" style="stroke:#181818;stroke-width:0.5;" width="128" x="1209.5" y="51"/><ellipse cx="1224.5" cy="67" fill="#ADD1B2" rx="11" ry="11" style="stroke:#181818;stroke-width:1.0;"/><path d="M1227.4844,72.6406 Q1226.9063,72.9375 1226.2656,73.0781 Q1225.625,73.2344 1224.9219,73.2344 Q1222.4063,73.2344 1221.0781,71.5938 Q1219.7656,69.9375 1219.7656,66.8125 Q1219.7656,63.6719 1221.0781,62.0313 Q1222.4063,60.375 1224.9219,60.375 Q1225.625,60.375 1226.2656,60.5313 Q1226.9219,60.6719 1227.4844,60.9688 L1227.4844,63.6875 Q1226.8438,63.1094 1226.25,62.8438 Q1225.6563,62.5781 1225.0313,62.5781 Q1223.6875,62.5781 1223,63.6406 Q1222.3125,64.7031 1222.3125,66.8125 Q1222.3125,68.9063 1223,69.9844 Q1223.6875,71.0469 1225.0313,71.0469 Q1225.6563,71.0469 1226.25,70.7813 Q1226.8438,70.5 1227.4844,69.9219 L1227.4844,72.6406 Z " fill="#000000"/><text fill="#000000" font-family="sans-serif" font-size="14" lengthAdjust="spacing" textLength="96" x="1238.5" y="71.8467">DataImporter</text><line style="stroke:#181818;stroke-width:0.5;" x1="1210.5" x2="1336.5" y1="83" y2="83"/><text fill="#000000" font-family="sans-serif" font-size="14" lengthAdjust="spacing" textLength="101" x="1215.5" y="99.9951">source : string</text><line style="stroke:#181818;stroke-width:0.5;" x1="1210.5" x2="1336.5" y1="107.2969" y2="107.2969"/><text fill="#000000" font-family="sans-serif" font-size="14" lengthAdjust="spacing" textLength="41" x="1215.5" y="124.292">load()</text></g><!--class HDF5DataImporter--><g id="elem_HDF5DataImporter"><rect codeLine="29" fill="#F1F1F1" height="80.5938" id="HDF5DataImporter" rx="2.5" ry="2.5" style="stroke:#181818;stroke-width:0.5;" width="167" x="1190" y="237"/><ellipse cx="1205" cy="253" fill="#ADD1B2" rx="11" ry="11" style="stroke:#181818;stroke-width:1.0;"/><path d="M1207.9844,258.6406 Q1207.4063,258.9375 1206.7656,259.0781 Q1206.125,259.2344 1205.4219,259.2344 Q1202.9063,259.2344 1201.5781,257.5938 Q1200.2656,255.9375 1200.2656,252.8125 Q1200.2656,249.6719 1201.5781,248.0313 Q1202.9063,246.375 1205.4219,246.375 Q1206.125,246.375 1206.7656,246.5313 Q1207.4219,246.6719 1207.9844,246.9688 L1207.9844,249.6875 Q1207.3438,249.1094 1206.75,248.8438 Q1206.1563,248.5781 1205.5313,248.5781 Q1204.1875,248.5781 1203.5,249.6406 Q1202.8125,250.7031 1202.8125,252.8125 Q1202.8125,254.9063 1203.5,255.9844 Q1204.1875,257.0469 1205.5313,257.0469 Q1206.1563,257.0469 1206.75,256.7813 Q1207.3438,256.5 1207.9844,255.9219 L1207.9844,258.6406 Z " fill="#000000"/><text fill="#000000" font-family="sans-serif" font-size="14" lengthAdjust="spacing" textLength="135" x="1219" y="257.8467">HDF5DataImporter</text><line style="stroke:#181818;stroke-width:0.5;" x1="1191" x2="1356" y1="269" y2="269"/><text fill="#000000" font-family="sans-serif" font-size="14" lengthAdjust="spacing" textLength="85" x="1196" y="285.9951">item : string</text><text fill="#000000" font-family="sans-serif" font-size="14" lengthAdjust="spacing" textLength="102" x="1196" y="302.292">mapping : dict</text><line style="stroke:#181818;stroke-width:0.5;" x1="1191" x2="1356" y1="309.5938" y2="309.5938"/></g><!--class ImageDataImporter--><g id="elem_ImageDataImporter"><rect codeLine="34" fill="#F1F1F1" height="48" id="ImageDataImporter" rx="2.5" ry="2.5" style="stroke:#181818;stroke-width:0.5;" width="173" x="1392" y="253.5"/><ellipse cx="1407" cy="269.5" fill="#ADD1B2" rx="11" ry="11" style="stroke:#181818;stroke-width:1.0;"/><path d="M1409.9844,275.1406 Q1409.4063,275.4375 1408.7656,275.5781 Q1408.125,275.7344 1407.4219,275.7344 Q1404.9063,275.7344 1403.5781,274.0938 Q1402.2656,272.4375 1402.2656,269.3125 Q1402.2656,266.1719 1403.5781,264.5313 Q1404.9063,262.875 1407.4219,262.875 Q1408.125,262.875 1408.7656,263.0313 Q1409.4219,263.1719 1409.9844,263.4688 L1409.9844,266.1875 Q1409.3438,265.6094 1408.75,265.3438 Q1408.1563,265.0781 1407.5313,265.0781 Q1406.1875,265.0781 1405.5,266.1406 Q1404.8125,267.2031 1404.8125,269.3125 Q1404.8125,271.4063 1405.5,272.4844 Q1406.1875,273.5469 1407.5313,273.5469 Q1408.1563,273.5469 1408.75,273.2813 Q1409.3438,273 1409.9844,272.4219 L1409.9844,275.1406 Z " fill="#000000"/><text fill="#000000" font-family="sans-serif" font-size="14" lengthAdjust="spacing" textLength="141" x="1421" y="274.3467">ImageDataImporter</text><line style="stroke:#181818;stroke-width:0.5;" x1="1393" x2="1564" y1="285.5" y2="285.5"/><line style="stroke:#181818;stroke-width:0.5;" x1="1393" x2="1564" y1="293.5" y2="293.5"/></g><g id="elem_GMN10"><path d="M1600.5,257.5 L1600.5,273.5 L1565,277.5 L1600.5,281.5 L1600.5,297.7656 A0,0 0 0 0 1600.5,297.7656 L1922.5,297.7656 A0,0 0 0 0 1922.5,297.7656 L1922.5,267.5 L1912.5,257.5 L1600.5,257.5 A0,0 0 0 0 1600.5,257.5 " fill="#FEFFDD" style="stroke:#181818;stroke-width:0.5;"/><path d="M1912.5,257.5 L1912.5,267.5 L1922.5,267.5 L1912.5,257.5 " fill="#FEFFDD" style="stroke:#181818;stroke-width:0.5;"/><text fill="#000000" font-family="sans-serif" font-size="13" lengthAdjust="spacing" textLength="277" x="1606.5" y="274.5669">Needs to handle a list of image filenames,</text><text fill="#000000" font-family="sans-serif" font-size="13" lengthAdjust="spacing" textLength="301" x="1606.5" y="289.6997">as per position one image needs to be loaded.</text></g><!--class Metadata--><g id="elem_Metadata"><rect codeLine="43" fill="#F1F1F1" height="48" id="Metadata" rx="2.5" ry="2.5" style="stroke:#181818;stroke-width:0.5;" width="99" x="468" y="253.5"/><ellipse cx="483" cy="269.5" fill="#ADD1B2" rx="11" ry="11" style="stroke:#181818;stroke-width:1.0;"/><path d="M485.9844,275.1406 Q485.4063,275.4375 484.7656,275.5781 Q484.125,275.7344 483.4219,275.7344 Q480.9063,275.7344 479.5781,274.0938 Q478.2656,272.4375 478.2656,269.3125 Q478.2656,266.1719 479.5781,264.5313 Q480.9063,262.875 483.4219,262.875 Q484.125,262.875 484.7656,263.0313 Q485.4219,263.1719 485.9844,263.4688 L485.9844,266.1875 Q485.3438,265.6094 484.75,265.3438 Q484.1563,265.0781 483.5313,265.0781 Q482.1875,265.0781 481.5,266.1406 Q480.8125,267.2031 480.8125,269.3125 Q480.8125,271.4063 481.5,272.4844 Q482.1875,273.5469 483.5313,273.5469 Q484.1563,273.5469 484.75,273.2813 Q485.3438,273 485.9844,272.4219 L485.9844,275.1406 Z " fill="#000000"/><text fill="#000000" font-family="sans-serif" font-size="14" lengthAdjust="spacing" textLength="67" x="497" y="274.3467">Metadata</text><line style="stroke:#181818;stroke-width:0.5;" x1="469" x2="566" y1="285.5" y2="285.5"/><line style="stroke:#181818;stroke-width:0.5;" x1="469" x2="566" y1="293.5" y2="293.5"/></g><g id="elem_GMN15"><path d="M292,257.5 L292,297.7656 A0,0 0 0 0 292,297.7656 L433,297.7656 A0,0 0 0 0 433,297.7656 L433,281.5 L467.68,277.5 L433,273.5 L433,267.5 L423,257.5 L292,257.5 A0,0 0 0 0 292,257.5 " fill="#FEFFDD" style="stroke:#181818;stroke-width:0.5;"/><path d="M423,257.5 L423,267.5 L433,267.5 L423,257.5 " fill="#FEFFDD" style="stroke:#181818;stroke-width:0.5;"/><text fill="#000000" font-family="sans-serif" font-size="13" lengthAdjust="spacing" textLength="104" x="298" y="274.5669">See diagram for</text><text fill="#000000" font-family="sans-serif" font-size="13" lengthAdjust="spacing" textLength="120" x="298" y="289.6997">metadata module.</text></g><!--class MeasureData--><g id="elem_MeasureData"><rect codeLine="50" fill="#F1F1F1" height="64.2969" id="MeasureData" rx="2.5" ry="2.5" style="stroke:#181818;stroke-width:0.5;" width="246" x="908.5" y="245.5"/><ellipse cx="979.75" cy="261.5" fill="#ADD1B2" rx="11" ry="11" style="stroke:#181818;stroke-width:1.0;"/><path d="M982.7344,267.1406 Q982.1563,267.4375 981.5156,267.5781 Q980.875,267.7344 980.1719,267.7344 Q977.6563,267.7344 976.3281,266.0938 Q975.0156,264.4375 975.0156,261.3125 Q975.0156,258.1719 976.3281,256.5313 Q977.6563,254.875 980.1719,254.875 Q980.875,254.875 981.5156,255.0313 Q982.1719,255.1719 982.7344,255.4688 L982.7344,258.1875 Q982.0938,257.6094 981.5,257.3438 Q980.9063,257.0781 980.2813,257.0781 Q978.9375,257.0781 978.25,258.1406 Q977.5625,259.2031 977.5625,261.3125 Q977.5625,263.4063 978.25,264.4844 Q978.9375,265.5469 980.2813,265.5469 Q980.9063,265.5469 981.5,265.2813 Q982.0938,265 982.7344,264.4219 L982.7344,267.1406 Z " fill="#000000"/><text fill="#000000" font-family="sans-serif" font-size="14" lengthAdjust="spacing" textLength="95" x="1000.25" y="266.3467">MeasureData</text><line style="stroke:#181818;stroke-width:0.5;" x1="909.5" x2="1153.5" y1="277.5" y2="277.5"/><text fill="#000000" font-family="sans-serif" font-size="14" lengthAdjust="spacing" textLength="234" x="914.5" y="294.4951">positions : np.ndarray(dtype=int)</text><line style="stroke:#181818;stroke-width:0.5;" x1="909.5" x2="1153.5" y1="301.7969" y2="301.7969"/></g><!--class MonitorData--><g id="elem_MonitorData"><rect codeLine="54" fill="#F1F1F1" height="64.2969" id="MonitorData" rx="2.5" ry="2.5" style="stroke:#181818;stroke-width:0.5;" width="271" x="602" y="245.5"/><ellipse cx="689.25" cy="261.5" fill="#ADD1B2" rx="11" ry="11" style="stroke:#181818;stroke-width:1.0;"/><path d="M692.2344,267.1406 Q691.6563,267.4375 691.0156,267.5781 Q690.375,267.7344 689.6719,267.7344 Q687.1563,267.7344 685.8281,266.0938 Q684.5156,264.4375 684.5156,261.3125 Q684.5156,258.1719 685.8281,256.5313 Q687.1563,254.875 689.6719,254.875 Q690.375,254.875 691.0156,255.0313 Q691.6719,255.1719 692.2344,255.4688 L692.2344,258.1875 Q691.5938,257.6094 691,257.3438 Q690.4063,257.0781 689.7813,257.0781 Q688.4375,257.0781 687.75,258.1406 Q687.0625,259.2031 687.0625,261.3125 Q687.0625,263.4063 687.75,264.4844 Q688.4375,265.5469 689.7813,265.5469 Q690.4063,265.5469 691,265.2813 Q691.5938,265 692.2344,264.4219 L692.2344,267.1406 Z " fill="#000000"/><text fill="#000000" font-family="sans-serif" font-size="14" lengthAdjust="spacing" textLength="88" x="709.75" y="266.3467">MonitorData</text><line style="stroke:#181818;stroke-width:0.5;" x1="603" x2="872" y1="277.5" y2="277.5"/><text fill="#000000" font-family="sans-serif" font-size="14" lengthAdjust="spacing" textLength="259" x="608" y="294.4951">milliseconds : np.ndarray(dtype=int)</text><line style="stroke:#181818;stroke-width:0.5;" x1="603" x2="872" y1="301.7969" y2="301.7969"/></g><!--class DeviceData--><g id="elem_DeviceData"><rect codeLine="61" fill="#F1F1F1" height="48" id="DeviceData" rx="2.5" ry="2.5" style="stroke:#181818;stroke-width:0.5;" width="115" x="705" y="404.5"/><ellipse cx="720" cy="420.5" fill="#ADD1B2" rx="11" ry="11" style="stroke:#181818;stroke-width:1.0;"/><path d="M722.9844,426.1406 Q722.4063,426.4375 721.7656,426.5781 Q721.125,426.7344 720.4219,426.7344 Q717.9063,426.7344 716.5781,425.0938 Q715.2656,423.4375 715.2656,420.3125 Q715.2656,417.1719 716.5781,415.5313 Q717.9063,413.875 720.4219,413.875 Q721.125,413.875 721.7656,414.0313 Q722.4219,414.1719 722.9844,414.4688 L722.9844,417.1875 Q722.3438,416.6094 721.75,416.3438 Q721.1563,416.0781 720.5313,416.0781 Q719.1875,416.0781 718.5,417.1406 Q717.8125,418.2031 717.8125,420.3125 Q717.8125,422.4063 718.5,423.4844 Q719.1875,424.5469 720.5313,424.5469 Q721.1563,424.5469 721.75,424.2813 Q722.3438,424 722.9844,423.4219 L722.9844,426.1406 Z " fill="#000000"/><text fill="#000000" font-family="sans-serif" font-size="14" lengthAdjust="spacing" textLength="83" x="734" y="425.3467">DeviceData</text><line style="stroke:#181818;stroke-width:0.5;" x1="706" x2="819" y1="436.5" y2="436.5"/><line style="stroke:#181818;stroke-width:0.5;" x1="706" x2="819" y1="444.5" y2="444.5"/></g><!--class AxisData--><g id="elem_AxisData"><rect codeLine="63" fill="#F1F1F1" height="64.2969" id="AxisData" rx="2.5" ry="2.5" style="stroke:#181818;stroke-width:0.5;" width="177" x="320" y="396.5"/><ellipse cx="372.75" cy="412.5" fill="#ADD1B2" rx="11" ry="11" style="stroke:#181818;stroke-width:1.0;"/><path d="M375.7344,418.1406 Q375.1563,418.4375 374.5156,418.5781 Q373.875,418.7344 373.1719,418.7344 Q370.6563,418.7344 369.3281,417.0938 Q368.0156,415.4375 368.0156,412.3125 Q368.0156,409.1719 369.3281,407.5313 Q370.6563,405.875 373.1719,405.875 Q373.875,405.875 374.5156,406.0313 Q375.1719,406.1719 375.7344,406.4688 L375.7344,409.1875 Q375.0938,408.6094 374.5,408.3438 Q373.9063,408.0781 373.2813,408.0781 Q371.9375,408.0781 371.25,409.1406 Q370.5625,410.2031 370.5625,412.3125 Q370.5625,414.4063 371.25,415.4844 Q371.9375,416.5469 373.2813,416.5469 Q373.9063,416.5469 374.5,416.2813 Q375.0938,416 375.7344,415.4219 L375.7344,418.1406 Z " fill="#000000"/><text fill="#000000" font-family="sans-serif" font-size="14" lengthAdjust="spacing" textLength="63" x="393.25" y="417.3467">AxisData</text><line style="stroke:#181818;stroke-width:0.5;" x1="321" x2="496" y1="428.5" y2="428.5"/><text fill="#000000" font-family="sans-serif" font-size="14" lengthAdjust="spacing" textLength="165" x="326" y="445.4951">set_values : np.ndarray</text><line style="stroke:#181818;stroke-width:0.5;" x1="321" x2="496" y1="452.7969" y2="452.7969"/></g><!--class NonencodedAxisData--><g id="elem_NonencodedAxisData"><rect codeLine="67" fill="#F1F1F1" height="80.5938" id="NonencodedAxisData" rx="2.5" ry="2.5" style="stroke:#181818;stroke-width:0.5;" width="185" x="57" y="587.5"/><ellipse cx="72" cy="603.5" fill="#ADD1B2" rx="11" ry="11" style="stroke:#181818;stroke-width:1.0;"/><path d="M74.9844,609.1406 Q74.4063,609.4375 73.7656,609.5781 Q73.125,609.7344 72.4219,609.7344 Q69.9063,609.7344 68.5781,608.0938 Q67.2656,606.4375 67.2656,603.3125 Q67.2656,600.1719 68.5781,598.5313 Q69.9063,596.875 72.4219,596.875 Q73.125,596.875 73.7656,597.0313 Q74.4219,597.1719 74.9844,597.4688 L74.9844,600.1875 Q74.3438,599.6094 73.75,599.3438 Q73.1563,599.0781 72.5313,599.0781 Q71.1875,599.0781 70.5,600.1406 Q69.8125,601.2031 69.8125,603.3125 Q69.8125,605.4063 70.5,606.4844 Q71.1875,607.5469 72.5313,607.5469 Q73.1563,607.5469 73.75,607.2813 Q74.3438,607 74.9844,606.4219 L74.9844,609.1406 Z " fill="#000000"/><text fill="#000000" font-family="sans-serif" font-size="14" lengthAdjust="spacing" textLength="153" x="86" y="608.3467">NonencodedAxisData</text><line style="stroke:#181818;stroke-width:0.5;" x1="58" x2="241" y1="619.5" y2="619.5"/><text fill="#000000" font-family="sans-serif" font-size="14" lengthAdjust="spacing" textLength="172" x="63" y="636.4951">_filled_data : np.ndarray</text><line style="stroke:#181818;stroke-width:0.5;" x1="58" x2="241" y1="643.7969" y2="643.7969"/><text fill="#000000" font-family="sans-serif" font-size="14" lengthAdjust="spacing" textLength="84" x="63" y="660.792">filled_data()</text></g><g id="elem_GMN32"><path d="M6,777 L6,862.6641 A0,0 0 0 0 6,862.6641 L293,862.6641 A0,0 0 0 0 293,862.6641 L293,787 L283,777 L153.5,777 L149.5,668.83 L145.5,777 L6,777 A0,0 0 0 0 6,777 " fill="#FEFFDD" style="stroke:#181818;stroke-width:0.5;"/><path d="M283,777 L283,787 L293,787 L283,777 " fill="#FEFFDD" style="stroke:#181818;stroke-width:0.5;"/><text fill="#000000" font-family="sans-serif" font-size="13" lengthAdjust="spacing" textLength="266" x="12" y="794.0669">Data for axes without encoders are filled</text><text fill="#000000" font-family="sans-serif" font-size="13" lengthAdjust="spacing" textLength="259" x="12" y="809.1997">depending on the ChannelData they are</text><text fill="#000000" font-family="sans-serif" font-size="13" lengthAdjust="spacing" textLength="102" x="12" y="824.3325">plotted against.</text><text fill="#000000" font-family="sans-serif" font-size="13" lengthAdjust="spacing" textLength="254" x="12" y="839.4653">Hence for different channels, generally</text><text fill="#000000" font-family="sans-serif" font-size="13" lengthAdjust="spacing" textLength="193" x="12" y="854.5981">different filled data will exist.</text></g><!--class ChannelData--><g id="elem_ChannelData"><rect codeLine="79" fill="#F1F1F1" height="48" id="ChannelData" rx="2.5" ry="2.5" style="stroke:#181818;stroke-width:0.5;" width="125" x="1238" y="404.5"/><ellipse cx="1253" cy="420.5" fill="#ADD1B2" rx="11" ry="11" style="stroke:#181818;stroke-width:1.0;"/><path d="M1255.9844,426.1406 Q1255.4063,426.4375 1254.7656,426.5781 Q1254.125,426.7344 1253.4219,426.7344 Q1250.9063,426.7344 1249.5781,425.0938 Q1248.2656,423.4375 1248.2656,420.3125 Q1248.2656,417.1719 1249.5781,415.5313 Q1250.9063,413.875 1253.4219,413.875 Q1254.125,413.875 1254.7656,414.0313 Q1255.4219,414.1719 1255.9844,414.4688 L1255.9844,417.1875 Q1255.3438,416.6094 1254.75,416.3438 Q1254.1563,416.0781 1253.5313,416.0781 Q1252.1875,416.0781 1251.5,417.1406 Q1250.8125,418.2031 1250.8125,420.3125 Q1250.8125,422.4063 1251.5,423.4844 Q1252.1875,424.5469 1253.5313,424.5469 Q1254.1563,424.5469 1254.75,424.2813 Q1255.3438,424 1255.9844,423.4219 L1255.9844,426.1406 Z " fill="#000000"/><text fill="#000000" font-family="sans-serif" font-size="14" lengthAdjust="spacing" textLength="93" x="1267" y="425.3467">ChannelData</text><line style="stroke:#181818;stroke-width:0.5;" x1="1239" x2="1362" y1="436.5" y2="436.5"/><line style="stroke:#181818;stroke-width:0.5;" x1="1239" x2="1362" y1="444.5" y2="444.5"/></g><!--class TimestampData--><g id="elem_TimestampData"><rect codeLine="82" fill="#F1F1F1" height="96.8906" id="TimestampData" rx="2.5" ry="2.5" style="stroke:#181818;stroke-width:0.5;" width="287" x="1980" y="380"/><ellipse cx="2062.25" cy="396" fill="#ADD1B2" rx="11" ry="11" style="stroke:#181818;stroke-width:1.0;"/><path d="M2065.2344,401.6406 Q2064.6563,401.9375 2064.0156,402.0781 Q2063.375,402.2344 2062.6719,402.2344 Q2060.1563,402.2344 2058.8281,400.5938 Q2057.5156,398.9375 2057.5156,395.8125 Q2057.5156,392.6719 2058.8281,391.0313 Q2060.1563,389.375 2062.6719,389.375 Q2063.375,389.375 2064.0156,389.5313 Q2064.6719,389.6719 2065.2344,389.9688 L2065.2344,392.6875 Q2064.5938,392.1094 2064,391.8438 Q2063.4063,391.5781 2062.7813,391.5781 Q2061.4375,391.5781 2060.75,392.6406 Q2060.0625,393.7031 2060.0625,395.8125 Q2060.0625,397.9063 2060.75,398.9844 Q2061.4375,400.0469 2062.7813,400.0469 Q2063.4063,400.0469 2064,399.7813 Q2064.5938,399.5 2065.2344,398.9219 L2065.2344,401.6406 Z " fill="#000000"/><text fill="#000000" font-family="sans-serif" font-size="14" lengthAdjust="spacing" textLength="114" x="2082.75" y="400.8467">TimestampData</text><line style="stroke:#181818;stroke-width:0.5;" x1="1981" x2="2266" y1="412" y2="412"/><text fill="#000000" font-family="sans-serif" font-size="14" lengthAdjust="spacing" textLength="275" x="1986" y="428.9951">_first_positions : np.ndarray(dtype=int)</text><text fill="#000000" font-family="sans-serif" font-size="14" lengthAdjust="spacing" textLength="273" x="1986" y="445.292">_last_positions : np.ndarray(dtype=int)</text><line style="stroke:#181818;stroke-width:0.5;" x1="1981" x2="2266" y1="452.5938" y2="452.5938"/><text fill="#000000" font-family="sans-serif" font-size="14" lengthAdjust="spacing" textLength="258" x="1986" y="469.5889">get_position(timestamp, mode=last)</text></g><!--class NonnumericChannelData--><g id="elem_NonnumericChannelData"><rect codeLine="88" fill="#F1F1F1" height="48" id="NonnumericChannelData" rx="2.5" ry="2.5" style="stroke:#181818;stroke-width:0.5;" width="212" x="1322.5" y="604"/><ellipse cx="1337.5" cy="620" fill="#ADD1B2" rx="11" ry="11" style="stroke:#181818;stroke-width:1.0;"/><path d="M1340.4844,625.6406 Q1339.9063,625.9375 1339.2656,626.0781 Q1338.625,626.2344 1337.9219,626.2344 Q1335.4063,626.2344 1334.0781,624.5938 Q1332.7656,622.9375 1332.7656,619.8125 Q1332.7656,616.6719 1334.0781,615.0313 Q1335.4063,613.375 1337.9219,613.375 Q1338.625,613.375 1339.2656,613.5313 Q1339.9219,613.6719 1340.4844,613.9688 L1340.4844,616.6875 Q1339.8438,616.1094 1339.25,615.8438 Q1338.6563,615.5781 1338.0313,615.5781 Q1336.6875,615.5781 1336,616.6406 Q1335.3125,617.7031 1335.3125,619.8125 Q1335.3125,621.9063 1336,622.9844 Q1336.6875,624.0469 1338.0313,624.0469 Q1338.6563,624.0469 1339.25,623.7813 Q1339.8438,623.5 1340.4844,622.9219 L1340.4844,625.6406 Z " fill="#000000"/><text fill="#000000" font-family="sans-serif" font-size="14" lengthAdjust="spacing" textLength="180" x="1351.5" y="624.8467">NonnumericChannelData</text><line style="stroke:#181818;stroke-width:0.5;" x1="1323.5" x2="1533.5" y1="636" y2="636"/><line style="stroke:#181818;stroke-width:0.5;" x1="1323.5" x2="1533.5" y1="644" y2="644"/></g><!--class SinglePointChannelData--><g id="elem_SinglePointChannelData"><rect codeLine="99" fill="#F1F1F1" height="48" id="SinglePointChannelData" rx="2.5" ry="2.5" style="stroke:#181818;stroke-width:0.5;" width="204" x="276.5" y="604"/><ellipse cx="291.5" cy="620" fill="#ADD1B2" rx="11" ry="11" style="stroke:#181818;stroke-width:1.0;"/><path d="M294.4844,625.6406 Q293.9063,625.9375 293.2656,626.0781 Q292.625,626.2344 291.9219,626.2344 Q289.4063,626.2344 288.0781,624.5938 Q286.7656,622.9375 286.7656,619.8125 Q286.7656,616.6719 288.0781,615.0313 Q289.4063,613.375 291.9219,613.375 Q292.625,613.375 293.2656,613.5313 Q293.9219,613.6719 294.4844,613.9688 L294.4844,616.6875 Q293.8438,616.1094 293.25,615.8438 Q292.6563,615.5781 292.0313,615.5781 Q290.6875,615.5781 290,616.6406 Q289.3125,617.7031 289.3125,619.8125 Q289.3125,621.9063 290,622.9844 Q290.6875,624.0469 292.0313,624.0469 Q292.6563,624.0469 293.25,623.7813 Q293.8438,623.5 294.4844,622.9219 L294.4844,625.6406 Z " fill="#000000"/><text fill="#000000" font-family="sans-serif" font-size="14" lengthAdjust="spacing" textLength="172" x="305.5" y="624.8467">SinglePointChannelData</text><line style="stroke:#181818;stroke-width:0.5;" x1="277.5" x2="479.5" y1="636" y2="636"/><line style="stroke:#181818;stroke-width:0.5;" x1="277.5" x2="479.5" y1="644" y2="644"/></g><!--class AverageChannelData--><g id="elem_AverageChannelData"><rect codeLine="109" fill="#F1F1F1" height="178.375" id="AverageChannelData" rx="2.5" ry="2.5" style="stroke:#181818;stroke-width:0.5;" width="246" x="776.5" y="539"/><ellipse cx="818.95" cy="555" fill="#ADD1B2" rx="11" ry="11" style="stroke:#181818;stroke-width:1.0;"/><path d="M821.9344,560.6406 Q821.3563,560.9375 820.7156,561.0781 Q820.075,561.2344 819.3719,561.2344 Q816.8563,561.2344 815.5281,559.5938 Q814.2156,557.9375 814.2156,554.8125 Q814.2156,551.6719 815.5281,550.0313 Q816.8563,548.375 819.3719,548.375 Q820.075,548.375 820.7156,548.5313 Q821.3719,548.6719 821.9344,548.9688 L821.9344,551.6875 Q821.2938,551.1094 820.7,550.8438 Q820.1063,550.5781 819.4813,550.5781 Q818.1375,550.5781 817.45,551.6406 Q816.7625,552.7031 816.7625,554.8125 Q816.7625,556.9063 817.45,557.9844 Q818.1375,559.0469 819.4813,559.0469 Q820.1063,559.0469 820.7,558.7813 Q821.2938,558.5 821.9344,557.9219 L821.9344,560.6406 Z " fill="#000000"/><text fill="#000000" font-family="sans-serif" font-size="14" lengthAdjust="spacing" textLength="153" x="839.05" y="559.8467">AverageChannelData</text><line style="stroke:#181818;stroke-width:0.5;" x1="777.5" x2="1021.5" y1="571" y2="571"/><text fill="#000000" font-family="sans-serif" font-size="14" lengthAdjust="spacing" textLength="167" x="782.5" y="587.9951">raw_data : raggedarray</text><text fill="#000000" font-family="sans-serif" font-size="14" lengthAdjust="spacing" textLength="234" x="782.5" y="604.292">attempts : np.ndarray(dtype=int)</text><text fill="#000000" font-family="sans-serif" font-size="14" lengthAdjust="spacing" textLength="139" x="782.5" y="620.5889">_mean : np.ndarray</text><text fill="#000000" font-family="sans-serif" font-size="14" lengthAdjust="spacing" textLength="119" x="782.5" y="636.8857">_std : np.ndarray</text><line style="stroke:#181818;stroke-width:0.5;" x1="777.5" x2="1021.5" y1="644.1875" y2="644.1875"/><text fill="#000000" font-family="sans-serif" font-size="14" lengthAdjust="spacing" textLength="51" x="782.5" y="661.1826">mean()</text><text fill="#000000" font-family="sans-serif" font-size="14" lengthAdjust="spacing" textLength="31" x="782.5" y="677.4795">std()</text><text fill="#000000" font-family="sans-serif" font-size="14" lengthAdjust="spacing" textLength="117" x="782.5" y="693.7764">averaged_data()</text><text fill="#000000" font-family="sans-serif" font-size="14" lengthAdjust="spacing" textLength="107" x="782.5" y="710.0732">has_raw_data()</text></g><!--class IntervalChannelData--><g id="elem_IntervalChannelData"><rect codeLine="132" fill="#F1F1F1" height="162.0781" id="IntervalChannelData" rx="2.5" ry="2.5" style="stroke:#181818;stroke-width:0.5;" width="230" x="1057.5" y="547"/><ellipse cx="1095.45" cy="563" fill="#ADD1B2" rx="11" ry="11" style="stroke:#181818;stroke-width:1.0;"/><path d="M1098.4344,568.6406 Q1097.8563,568.9375 1097.2156,569.0781 Q1096.575,569.2344 1095.8719,569.2344 Q1093.3563,569.2344 1092.0281,567.5938 Q1090.7156,565.9375 1090.7156,562.8125 Q1090.7156,559.6719 1092.0281,558.0313 Q1093.3563,556.375 1095.8719,556.375 Q1096.575,556.375 1097.2156,556.5313 Q1097.8719,556.6719 1098.4344,556.9688 L1098.4344,559.6875 Q1097.7938,559.1094 1097.2,558.8438 Q1096.6063,558.5781 1095.9813,558.5781 Q1094.6375,558.5781 1093.95,559.6406 Q1093.2625,560.7031 1093.2625,562.8125 Q1093.2625,564.9063 1093.95,565.9844 Q1094.6375,567.0469 1095.9813,567.0469 Q1096.6063,567.0469 1097.2,566.7813 Q1097.7938,566.5 1098.4344,565.9219 L1098.4344,568.6406 Z " fill="#000000"/><text fill="#000000" font-family="sans-serif" font-size="14" lengthAdjust="spacing" textLength="147" x="1114.55" y="567.8467">IntervalChannelData</text><line style="stroke:#181818;stroke-width:0.5;" x1="1058.5" x2="1286.5" y1="579" y2="579"/><text fill="#000000" font-family="sans-serif" font-size="14" lengthAdjust="spacing" textLength="167" x="1063.5" y="595.9951">raw_data : raggedarray</text><text fill="#000000" font-family="sans-serif" font-size="14" lengthAdjust="spacing" textLength="218" x="1063.5" y="612.292">counts : np.ndarray(dtype=int)</text><text fill="#000000" font-family="sans-serif" font-size="14" lengthAdjust="spacing" textLength="139" x="1063.5" y="628.5889">_mean : np.ndarray</text><text fill="#000000" font-family="sans-serif" font-size="14" lengthAdjust="spacing" textLength="119" x="1063.5" y="644.8857">_std : np.ndarray</text><line style="stroke:#181818;stroke-width:0.5;" x1="1058.5" x2="1286.5" y1="652.1875" y2="652.1875"/><text fill="#000000" font-family="sans-serif" font-size="14" lengthAdjust="spacing" textLength="51" x="1063.5" y="669.1826">mean()</text><text fill="#000000" font-family="sans-serif" font-size="14" lengthAdjust="spacing" textLength="31" x="1063.5" y="685.4795">std()</text><text fill="#000000" font-family="sans-serif" font-size="14" lengthAdjust="spacing" textLength="107" x="1063.5" y="701.7764">has_raw_data()</text></g><!--class ArrayChannelData--><g id="elem_ArrayChannelData"><rect codeLine="145" fill="#F1F1F1" height="48" id="ArrayChannelData" rx="2.5" ry="2.5" style="stroke:#181818;stroke-width:0.5;" width="164" x="1700.5" y="604"/><ellipse cx="1715.5" cy="620" fill="#ADD1B2" rx="11" ry="11" style="stroke:#181818;stroke-width:1.0;"/><path d="M1718.4844,625.6406 Q1717.9063,625.9375 1717.2656,626.0781 Q1716.625,626.2344 1715.9219,626.2344 Q1713.4063,626.2344 1712.0781,624.5938 Q1710.7656,622.9375 1710.7656,619.8125 Q1710.7656,616.6719 1712.0781,615.0313 Q1713.4063,613.375 1715.9219,613.375 Q1716.625,613.375 1717.2656,613.5313 Q1717.9219,613.6719 1718.4844,613.9688 L1718.4844,616.6875 Q1717.8438,616.1094 1717.25,615.8438 Q1716.6563,615.5781 1716.0313,615.5781 Q1714.6875,615.5781 1714,616.6406 Q1713.3125,617.7031 1713.3125,619.8125 Q1713.3125,621.9063 1714,622.9844 Q1714.6875,624.0469 1716.0313,624.0469 Q1716.6563,624.0469 1717.25,623.7813 Q1717.8438,623.5 1718.4844,622.9219 L1718.4844,625.6406 Z " fill="#000000"/><text fill="#000000" font-family="sans-serif" font-size="14" lengthAdjust="spacing" textLength="132" x="1729.5" y="624.8467">ArrayChannelData</text><line style="stroke:#181818;stroke-width:0.5;" x1="1701.5" x2="1863.5" y1="636" y2="636"/><line style="stroke:#181818;stroke-width:0.5;" x1="1701.5" x2="1863.5" y1="644" y2="644"/></g><!--class AreaChannelData--><g id="elem_AreaChannelData"><rect codeLine="152" fill="#F1F1F1" height="48" id="AreaChannelData" rx="2.5" ry="2.5" style="stroke:#181818;stroke-width:0.5;" width="159" x="1900" y="604"/><ellipse cx="1915" cy="620" fill="#ADD1B2" rx="11" ry="11" style="stroke:#181818;stroke-width:1.0;"/><path d="M1917.9844,625.6406 Q1917.4063,625.9375 1916.7656,626.0781 Q1916.125,626.2344 1915.4219,626.2344 Q1912.9063,626.2344 1911.5781,624.5938 Q1910.2656,622.9375 1910.2656,619.8125 Q1910.2656,616.6719 1911.5781,615.0313 Q1912.9063,613.375 1915.4219,613.375 Q1916.125,613.375 1916.7656,613.5313 Q1917.4219,613.6719 1917.9844,613.9688 L1917.9844,616.6875 Q1917.3438,616.1094 1916.75,615.8438 Q1916.1563,615.5781 1915.5313,615.5781 Q1914.1875,615.5781 1913.5,616.6406 Q1912.8125,617.7031 1912.8125,619.8125 Q1912.8125,621.9063 1913.5,622.9844 Q1914.1875,624.0469 1915.5313,624.0469 Q1916.1563,624.0469 1916.75,623.7813 Q1917.3438,623.5 1917.9844,622.9219 L1917.9844,625.6406 Z " fill="#000000"/><text fill="#000000" font-family="sans-serif" font-size="14" lengthAdjust="spacing" textLength="127" x="1929" y="624.8467">AreaChannelData</text><line style="stroke:#181818;stroke-width:0.5;" x1="1901" x2="2058" y1="636" y2="636"/><line style="stroke:#181818;stroke-width:0.5;" x1="1901" x2="2058" y1="644" y2="644"/></g><!--class SkipData--><g id="elem_SkipData"><rect codeLine="97" fill="#F1F1F1" height="48" id="SkipData" rx="2.5" ry="2.5" style="stroke:#181818;stroke-width:0.5;" width="96" x="1569.5" y="604"/><ellipse cx="1584.5" cy="620" fill="#ADD1B2" rx="11" ry="11" style="stroke:#181818;stroke-width:1.0;"/><path d="M1587.4844,625.6406 Q1586.9063,625.9375 1586.2656,626.0781 Q1585.625,626.2344 1584.9219,626.2344 Q1582.4063,626.2344 1581.0781,624.5938 Q1579.7656,622.9375 1579.7656,619.8125 Q1579.7656,616.6719 1581.0781,615.0313 Q1582.4063,613.375 1584.9219,613.375 Q1585.625,613.375 1586.2656,613.5313 Q1586.9219,613.6719 1587.4844,613.9688 L1587.4844,616.6875 Q1586.8438,616.1094 1586.25,615.8438 Q1585.6563,615.5781 1585.0313,615.5781 Q1583.6875,615.5781 1583,616.6406 Q1582.3125,617.7031 1582.3125,619.8125 Q1582.3125,621.9063 1583,622.9844 Q1583.6875,624.0469 1585.0313,624.0469 Q1585.6563,624.0469 1586.25,623.7813 Q1586.8438,623.5 1587.4844,622.9219 L1587.4844,625.6406 Z " fill="#000000"/><text fill="#000000" font-family="sans-serif" font-size="14" lengthAdjust="spacing" textLength="64" x="1598.5" y="624.8467">SkipData</text><line style="stroke:#181818;stroke-width:0.5;" x1="1570.5" x2="1664.5" y1="636" y2="636"/><line style="stroke:#181818;stroke-width:0.5;" x1="1570.5" x2="1664.5" y1="644" y2="644"/></g><!--class NormalizedChannelData--><g id="elem_NormalizedChannelData"><rect codeLine="101" fill="#F1F1F1" height="80.5938" id="NormalizedChannelData" rx="2.5" ry="2.5" style="stroke:#181818;stroke-width:0.5;" width="226" x="515.5" y="587.5"/><ellipse cx="539.5" cy="603.5" fill="#B4A7E5" rx="11" ry="11" style="stroke:#181818;stroke-width:1.0;"/><path d="M535.4219,599.25 L535.4219,597.0938 L542.8125,597.0938 L542.8125,599.25 L540.3438,599.25 L540.3438,607.3438 L542.8125,607.3438 L542.8125,609.5 L535.4219,609.5 L535.4219,607.3438 L537.8906,607.3438 L537.8906,599.25 L535.4219,599.25 Z " fill="#000000"/><text fill="#000000" font-family="sans-serif" font-size="14" font-style="italic" lengthAdjust="spacing" textLength="174" x="555.5" y="608.3467">NormalizedChannelData</text><line style="stroke:#181818;stroke-width:0.5;" x1="516.5" x2="740.5" y1="619.5" y2="619.5"/><text fill="#000000" font-family="sans-serif" font-size="14" lengthAdjust="spacing" textLength="210" x="521.5" y="636.4951">normalized_data : np.ndarray</text><text fill="#000000" font-family="sans-serif" font-size="14" lengthAdjust="spacing" textLength="214" x="521.5" y="652.792">normalizing_data : np.ndarray</text><line style="stroke:#181818;stroke-width:0.5;" x1="516.5" x2="740.5" y1="660.0938" y2="660.0938"/></g><!--class SinglePointNormalizedChannelData--><g id="elem_SinglePointNormalizedChannelData"><rect codeLine="106" fill="#F1F1F1" height="48" id="SinglePointNormalizedChannelData" rx="2.5" ry="2.5" style="stroke:#181818;stroke-width:0.5;" width="285" x="340" y="796"/><ellipse cx="355" cy="812" fill="#ADD1B2" rx="11" ry="11" style="stroke:#181818;stroke-width:1.0;"/><path d="M357.9844,817.6406 Q357.4063,817.9375 356.7656,818.0781 Q356.125,818.2344 355.4219,818.2344 Q352.9063,818.2344 351.5781,816.5938 Q350.2656,814.9375 350.2656,811.8125 Q350.2656,808.6719 351.5781,807.0313 Q352.9063,805.375 355.4219,805.375 Q356.125,805.375 356.7656,805.5313 Q357.4219,805.6719 357.9844,805.9688 L357.9844,808.6875 Q357.3438,808.1094 356.75,807.8438 Q356.1563,807.5781 355.5313,807.5781 Q354.1875,807.5781 353.5,808.6406 Q352.8125,809.7031 352.8125,811.8125 Q352.8125,813.9063 353.5,814.9844 Q354.1875,816.0469 355.5313,816.0469 Q356.1563,816.0469 356.75,815.7813 Q357.3438,815.5 357.9844,814.9219 L357.9844,817.6406 Z " fill="#000000"/><text fill="#000000" font-family="sans-serif" font-size="14" lengthAdjust="spacing" textLength="253" x="369" y="816.8467">SinglePointNormalizedChannelData</text><line style="stroke:#181818;stroke-width:0.5;" x1="341" x2="624" y1="828" y2="828"/><line style="stroke:#181818;stroke-width:0.5;" x1="341" x2="624" y1="836" y2="836"/></g><g id="elem_GMN59"><path d="M855.5,378 L855.5,478.7969 A0,0 0 0 0 855.5,478.7969 L959.91,478.7969 L937.85,538.93 L967.91,478.7969 L1115.5,478.7969 A0,0 0 0 0 1115.5,478.7969 L1115.5,388 L1105.5,378 L855.5,378 A0,0 0 0 0 855.5,378 " fill="#FEFFDD" style="stroke:#181818;stroke-width:0.5;"/><path d="M1105.5,378 L1105.5,388 L1115.5,388 L1105.5,378 " fill="#FEFFDD" style="stroke:#181818;stroke-width:0.5;"/><text fill="#000000" font-family="sans-serif" font-size="13" lengthAdjust="spacing" textLength="203" x="861.5" y="395.0669">averaged_values() returns only</text><text fill="#000000" font-family="sans-serif" font-size="13" lengthAdjust="spacing" textLength="229" x="861.5" y="410.1997">those values used to average over.</text><text fill="#000000" font-family="sans-serif" font-size="13" lengthAdjust="spacing" textLength="8" x="861.5" y="425.3325">&#160;</text><text fill="#000000" font-family="sans-serif" font-size="13" lengthAdjust="spacing" textLength="239" x="861.5" y="440.4653">How does mean() differ from data()?</text><text fill="#000000" font-family="sans-serif" font-size="13" lengthAdjust="spacing" textLength="219" x="861.5" y="455.5981">Probably, data() should return the</text><text fill="#000000" font-family="sans-serif" font-size="13" lengthAdjust="spacing" textLength="103" x="861.5" y="470.731">averaged data -</text><text fill="#000000" font-family="sans-serif" font-size="13" font-style="italic" lengthAdjust="spacing" textLength="20" x="968.5" y="470.731">i.e.</text><text fill="#000000" font-family="sans-serif" font-size="13" lengthAdjust="spacing" textLength="59" x="988.5" y="470.731">, mean().</text></g><!--class AverageNormalizedChannelData--><g id="elem_AverageNormalizedChannelData"><rect codeLine="128" fill="#F1F1F1" height="48" id="AverageNormalizedChannelData" rx="2.5" ry="2.5" style="stroke:#181818;stroke-width:0.5;" width="266" x="706.5" y="796"/><ellipse cx="721.5" cy="812" fill="#ADD1B2" rx="11" ry="11" style="stroke:#181818;stroke-width:1.0;"/><path d="M724.4844,817.6406 Q723.9063,817.9375 723.2656,818.0781 Q722.625,818.2344 721.9219,818.2344 Q719.4063,818.2344 718.0781,816.5938 Q716.7656,814.9375 716.7656,811.8125 Q716.7656,808.6719 718.0781,807.0313 Q719.4063,805.375 721.9219,805.375 Q722.625,805.375 723.2656,805.5313 Q723.9219,805.6719 724.4844,805.9688 L724.4844,808.6875 Q723.8438,808.1094 723.25,807.8438 Q722.6563,807.5781 722.0313,807.5781 Q720.6875,807.5781 720,808.6406 Q719.3125,809.7031 719.3125,811.8125 Q719.3125,813.9063 720,814.9844 Q720.6875,816.0469 722.0313,816.0469 Q722.6563,816.0469 723.25,815.7813 Q723.8438,815.5 724.4844,814.9219 L724.4844,817.6406 Z " fill="#000000"/><text fill="#000000" font-family="sans-serif" font-size="14" lengthAdjust="spacing" textLength="234" x="735.5" y="816.8467">AverageNormalizedChannelData</text><line style="stroke:#181818;stroke-width:0.5;" x1="707.5" x2="971.5" y1="828" y2="828"/><line style="stroke:#181818;stroke-width:0.5;" x1="707.5" x2="971.5" y1="836" y2="836"/></g><!--class IntervalNormalizedChannelData--><g id="elem_IntervalNormalizedChannelData"><rect codeLine="142" fill="#F1F1F1" height="48" id="IntervalNormalizedChannelData" rx="2.5" ry="2.5" style="stroke:#181818;stroke-width:0.5;" width="260" x="1030.5" y="796"/><ellipse cx="1045.5" cy="812" fill="#ADD1B2" rx="11" ry="11" style="stroke:#181818;stroke-width:1.0;"/><path d="M1048.4844,817.6406 Q1047.9063,817.9375 1047.2656,818.0781 Q1046.625,818.2344 1045.9219,818.2344 Q1043.4063,818.2344 1042.0781,816.5938 Q1040.7656,814.9375 1040.7656,811.8125 Q1040.7656,808.6719 1042.0781,807.0313 Q1043.4063,805.375 1045.9219,805.375 Q1046.625,805.375 1047.2656,805.5313 Q1047.9219,805.6719 1048.4844,805.9688 L1048.4844,808.6875 Q1047.8438,808.1094 1047.25,807.8438 Q1046.6563,807.5781 1046.0313,807.5781 Q1044.6875,807.5781 1044,808.6406 Q1043.3125,809.7031 1043.3125,811.8125 Q1043.3125,813.9063 1044,814.9844 Q1044.6875,816.0469 1046.0313,816.0469 Q1046.6563,816.0469 1047.25,815.7813 Q1047.8438,815.5 1048.4844,814.9219 L1048.4844,817.6406 Z " fill="#000000"/><text fill="#000000" font-family="sans-serif" font-size="14" lengthAdjust="spacing" textLength="228" x="1059.5" y="816.8467">IntervalNormalizedChannelData</text><line style="stroke:#181818;stroke-width:0.5;" x1="1031.5" x2="1289.5" y1="828" y2="828"/><line style="stroke:#181818;stroke-width:0.5;" x1="1031.5" x2="1289.5" y1="836" y2="836"/></g><!--class MCAChannelData--><g id="elem_MCAChannelData"><rect codeLine="148" fill="#F1F1F1" height="48" id="MCAChannelData" rx="2.5" ry="2.5" style="stroke:#181818;stroke-width:0.5;" width="157" x="1500" y="796"/><ellipse cx="1515" cy="812" fill="#ADD1B2" rx="11" ry="11" style="stroke:#181818;stroke-width:1.0;"/><path d="M1517.9844,817.6406 Q1517.4063,817.9375 1516.7656,818.0781 Q1516.125,818.2344 1515.4219,818.2344 Q1512.9063,818.2344 1511.5781,816.5938 Q1510.2656,814.9375 1510.2656,811.8125 Q1510.2656,808.6719 1511.5781,807.0313 Q1512.9063,805.375 1515.4219,805.375 Q1516.125,805.375 1516.7656,805.5313 Q1517.4219,805.6719 1517.9844,805.9688 L1517.9844,808.6875 Q1517.3438,808.1094 1516.75,807.8438 Q1516.1563,807.5781 1515.5313,807.5781 Q1514.1875,807.5781 1513.5,808.6406 Q1512.8125,809.7031 1512.8125,811.8125 Q1512.8125,813.9063 1513.5,814.9844 Q1514.1875,816.0469 1515.5313,816.0469 Q1516.1563,816.0469 1516.75,815.7813 Q1517.3438,815.5 1517.9844,814.9219 L1517.9844,817.6406 Z " fill="#000000"/><text fill="#000000" font-family="sans-serif" font-size="14" lengthAdjust="spacing" textLength="125" x="1529" y="816.8467">MCAChannelData</text><line style="stroke:#181818;stroke-width:0.5;" x1="1501" x2="1656" y1="828" y2="828"/><line style="stroke:#181818;stroke-width:0.5;" x1="1501" x2="1656" y1="836" y2="836"/></g><!--class ScopeChannelData--><g id="elem_ScopeChannelData"><rect codeLine="150" fill="#F1F1F1" height="48" id="ScopeChannelData" rx="2.5" ry="2.5" style="stroke:#181818;stroke-width:0.5;" width="169" x="1692" y="796"/><ellipse cx="1707" cy="812" fill="#ADD1B2" rx="11" ry="11" style="stroke:#181818;stroke-width:1.0;"/><path d="M1709.9844,817.6406 Q1709.4063,817.9375 1708.7656,818.0781 Q1708.125,818.2344 1707.4219,818.2344 Q1704.9063,818.2344 1703.5781,816.5938 Q1702.2656,814.9375 1702.2656,811.8125 Q1702.2656,808.6719 1703.5781,807.0313 Q1704.9063,805.375 1707.4219,805.375 Q1708.125,805.375 1708.7656,805.5313 Q1709.4219,805.6719 1709.9844,805.9688 L1709.9844,808.6875 Q1709.3438,808.1094 1708.75,807.8438 Q1708.1563,807.5781 1707.5313,807.5781 Q1706.1875,807.5781 1705.5,808.6406 Q1704.8125,809.7031 1704.8125,811.8125 Q1704.8125,813.9063 1705.5,814.9844 Q1706.1875,816.0469 1707.5313,816.0469 Q1708.1563,816.0469 1708.75,815.7813 Q1709.3438,815.5 1709.9844,814.9219 L1709.9844,817.6406 Z " fill="#000000"/><text fill="#000000" font-family="sans-serif" font-size="14" lengthAdjust="spacing" textLength="137" x="1721" y="816.8467">ScopeChannelData</text><line style="stroke:#181818;stroke-width:0.5;" x1="1693" x2="1860" y1="828" y2="828"/><line style="stroke:#181818;stroke-width:0.5;" x1="1693" x2="1860" y1="836" y2="836"/></g><!--class SampleCameraData--><g id="elem_SampleCameraData"><rect codeLine="155" fill="#F1F1F1" height="48" id="SampleCameraData" rx="2.5" ry="2.5" style="stroke:#181818;stroke-width:0.5;" width="177" x="1896" y="796"/><ellipse cx="1911" cy="812" fill="#ADD1B2" rx="11" ry="11" style="stroke:#181818;stroke-width:1.0;"/><path d="M1913.9844,817.6406 Q1913.4063,817.9375 1912.7656,818.0781 Q1912.125,818.2344 1911.4219,818.2344 Q1908.9063,818.2344 1907.5781,816.5938 Q1906.2656,814.9375 1906.2656,811.8125 Q1906.2656,808.6719 1907.5781,807.0313 Q1908.9063,805.375 1911.4219,805.375 Q1912.125,805.375 1912.7656,805.5313 Q1913.4219,805.6719 1913.9844,805.9688 L1913.9844,808.6875 Q1913.3438,808.1094 1912.75,807.8438 Q1912.1563,807.5781 1911.5313,807.5781 Q1910.1875,807.5781 1909.5,808.6406 Q1908.8125,809.7031 1908.8125,811.8125 Q1908.8125,813.9063 1909.5,814.9844 Q1910.1875,816.0469 1911.5313,816.0469 Q1912.1563,816.0469 1912.75,815.7813 Q1913.3438,815.5 1913.9844,814.9219 L1913.9844,817.6406 Z " fill="#000000"/><text fill="#000000" font-family="sans-serif" font-size="14" lengthAdjust="spacing" textLength="145" x="1925" y="816.8467">SampleCameraData</text><line style="stroke:#181818;stroke-width:0.5;" x1="1897" x2="2072" y1="828" y2="828"/><line style="stroke:#181818;stroke-width:0.5;" x1="1897" x2="2072" y1="836" y2="836"/></g><!--class ScientificCameraData--><g id="elem_ScientificCameraData"><rect codeLine="157" fill="#F1F1F1" height="48" id="ScientificCameraData" rx="2.5" ry="2.5" style="stroke:#181818;stroke-width:0.5;" width="188" x="2108.5" y="796"/><ellipse cx="2123.5" cy="812" fill="#ADD1B2" rx="11" ry="11" style="stroke:#181818;stroke-width:1.0;"/><path d="M2126.4844,817.6406 Q2125.9063,817.9375 2125.2656,818.0781 Q2124.625,818.2344 2123.9219,818.2344 Q2121.4063,818.2344 2120.0781,816.5938 Q2118.7656,814.9375 2118.7656,811.8125 Q2118.7656,808.6719 2120.0781,807.0313 Q2121.4063,805.375 2123.9219,805.375 Q2124.625,805.375 2125.2656,805.5313 Q2125.9219,805.6719 2126.4844,805.9688 L2126.4844,808.6875 Q2125.8438,808.1094 2125.25,807.8438 Q2124.6563,807.5781 2124.0313,807.5781 Q2122.6875,807.5781 2122,808.6406 Q2121.3125,809.7031 2121.3125,811.8125 Q2121.3125,813.9063 2122,814.9844 Q2122.6875,816.0469 2124.0313,816.0469 Q2124.6563,816.0469 2125.25,815.7813 Q2125.8438,815.5 2126.4844,814.9219 L2126.4844,817.6406 Z " fill="#000000"/><text fill="#000000" font-family="sans-serif" font-size="14" lengthAdjust="spacing" textLength="156" x="2137.5" y="816.8467">ScientificCameraData</text><line style="stroke:#181818;stroke-width:0.5;" x1="2109.5" x2="2295.5" y1="828" y2="828"/><line style="stroke:#181818;stroke-width:0.5;" x1="2109.5" x2="2295.5" y1="836" y2="836"/></g><g id="elem_array_area_channels_note"><path d="M1620,401 L1620,456.3984 L1945,456.3984 L1945,411 L1935,401 L1620,401 " fill="#FEFFDD" style="stroke:#181818;stroke-width:0.5;"/><path d="M1935,401 L1935,411 L1945,411 L1935,401 " fill="#FEFFDD" style="stroke:#181818;stroke-width:1.0;"/><text fill="#000000" font-family="sans-serif" font-size="13" lengthAdjust="spacing" textLength="20" x="1626" y="418.0669">For</text><text fill="#000000" font-family="monospace" font-size="13" lengthAdjust="spacing" textLength="128" x="1650" y="418.0669">ArrayChannelData</text><text fill="#000000" font-family="sans-serif" font-size="13" lengthAdjust="spacing" textLength="24" x="1782" y="418.0669">and</text><text fill="#000000" font-family="monospace" font-size="13" lengthAdjust="spacing" textLength="120" x="1810" y="418.0669">AreaChannelData</text><text fill="#000000" font-family="sans-serif" font-size="13" lengthAdjust="spacing" textLength="289" x="1626" y="433.1997">see separate diagrams, as these classes are</text><text fill="#000000" font-family="sans-serif" font-size="13" lengthAdjust="spacing" textLength="241" x="1626" y="448.3325">slightly more complex compositions.</text></g><!--reverse link DataImporter to HDF5DataImporter--><g id="link_DataImporter_HDF5DataImporter"><path d="M1273.5,150.43 C1273.5,181.39 1273.5,206.1 1273.5,236.97 " fill="none" id="DataImporter-backto-HDF5DataImporter" style="stroke:#181818;stroke-width:1.0;"/><polygon fill="none" points="1273.5,132.43,1267.5,150.43,1279.5,150.43,1273.5,132.43" style="stroke:#181818;stroke-width:1.0;"/></g><!--reverse link DataImporter to ImageDataImporter--><g id="link_DataImporter_ImageDataImporter"><path d="M1331.1271,144.2216 C1372.3271,181.1916 1418.93,223.03 1452.77,253.41 " fill="none" id="DataImporter-backto-ImageDataImporter" style="stroke:#181818;stroke-width:1.0;"/><polygon fill="none" points="1317.73,132.2,1327.1199,148.6873,1335.1343,139.7559,1317.73,132.2" style="stroke:#181818;stroke-width:1.0;"/></g><!--link HDF5DataImporter to ImageDataImporter--><!--reverse link Data to DataImporter--><g id="link_Data_DataImporter"><path codeLine="47" d="M993.37,91.5 C1069.35,91.5 1133.33,91.5 1209.31,91.5 " fill="none" id="Data-backto-DataImporter" style="stroke:#181818;stroke-width:1.0;"/><polygon fill="#181818" points="981.37,91.5,987.37,95.5,993.37,91.5,987.37,87.5,981.37,91.5" style="stroke:#181818;stroke-width:1.0;"/><text fill="#000000" font-family="sans-serif" font-size="13" lengthAdjust="spacing" textLength="8" x="1193.4255" y="87.7309">n</text></g><!--reverse link Data to Metadata--><g id="link_Data_Metadata"><path codeLine="48" d="M781.082,170.9523 C773.872,175.3923 776.78,173.27 769.5,177 C692.58,216.43 663.31,201.5 584.5,237 C574.03,241.71 563.13,247.65 553.24,253.48 " fill="none" id="Data-backto-Metadata" style="stroke:#181818;stroke-width:1.0;"/><polygon fill="#181818" points="791.3,164.66,784.0936,164.4002,781.082,170.9523,788.2885,171.2122,791.3,164.66" style="stroke:#181818;stroke-width:1.0;"/></g><!--reverse link Data to MeasureData--><g id="link_Data_MeasureData"><path d="M953.4147,178.7535 C975.7747,206.7435 988.95,223.24 1006.59,245.32 " fill="none" id="Data-backto-MeasureData" style="stroke:#181818;stroke-width:1.0;"/><polygon fill="none" points="942.18,164.69,948.7269,182.4984,958.1025,175.0086,942.18,164.69" style="stroke:#181818;stroke-width:1.0;"/></g><!--reverse link Data to MonitorData--><g id="link_Data_MonitorData"><path d="M815.5853,178.7535 C793.2253,206.7435 780.05,223.24 762.41,245.32 " fill="none" id="Data-backto-MonitorData" style="stroke:#181818;stroke-width:1.0;"/><polygon fill="none" points="826.82,164.69,810.8975,175.0086,820.2731,182.4984,826.82,164.69" style="stroke:#181818;stroke-width:1.0;"/></g><!--link Metadata to MonitorData--><!--link MonitorData to MeasureData--><!--reverse link MeasureData to DeviceData--><g id="link_MeasureData_DeviceData"><path d="M950.1765,317.6616 C912.0765,336.4516 879.5,353.47 837.5,378 C823.62,386.1 808.77,395.7 795.98,404.28 " fill="none" id="MeasureData-backto-DeviceData" style="stroke:#181818;stroke-width:1.0;"/><polygon fill="none" points="966.32,309.7,947.5226,312.2804,952.8303,323.0428,966.32,309.7" style="stroke:#181818;stroke-width:1.0;"/></g><!--reverse link MeasureData to AxisData--><g id="link_MeasureData_AxisData"><path d="M905.3363,314.2298 C894.4663,317.1498 900.97,315.35 890.5,318 C753.87,352.63 594.15,387.9 497.21,408.73 " fill="none" id="MeasureData-backto-AxisData" style="stroke:#181818;stroke-width:1.0;"/><polygon fill="none" points="922.72,309.56,903.7797,308.4352,906.8929,320.0243,922.72,309.56" style="stroke:#181818;stroke-width:1.0;"/></g><!--reverse link AxisData to NonencodedAxisData--><g id="link_AxisData_NonencodedAxisData"><path d="M350.1361,471.0648 C319.9961,492.6948 293.79,511.9 258.5,539 C238.34,554.48 216.48,571.99 197.66,587.28 " fill="none" id="AxisData-backto-NonencodedAxisData" style="stroke:#181818;stroke-width:1.0;"/><polygon fill="none" points="364.76,460.57,346.6378,466.1902,353.6344,475.9395,364.76,460.57" style="stroke:#181818;stroke-width:1.0;"/></g><!--reverse link MeasureData to ChannelData--><g id="link_MeasureData_ChannelData"><path d="M1103.3062,318.2711 C1154.2762,346.5011 1212.59,378.81 1258.59,404.29 " fill="none" id="MeasureData-backto-ChannelData" style="stroke:#181818;stroke-width:1.0;"/><polygon fill="none" points="1087.56,309.55,1100.3991,323.5198,1106.2132,313.0224,1087.56,309.55" style="stroke:#181818;stroke-width:1.0;"/></g><!--reverse link MeasureData to TimestampData--><g id="link_MeasureData_TimestampData"><path d="M1150.8512,313.921 C1163.9212,317.161 1159.73,315.75 1172.5,318 C1519.28,379.12 1616.52,312.52 1962.5,378 C1968.25,379.09 1974.08,380.31 1979.95,381.63 " fill="none" id="MeasureData-backto-TimestampData" style="stroke:#181818;stroke-width:1.0;"/><polygon fill="none" points="1133.38,309.59,1149.4075,319.7448,1152.2949,308.0973,1133.38,309.59" style="stroke:#181818;stroke-width:1.0;"/></g><!--reverse link ChannelData to NonnumericChannelData--><g id="link_ChannelData_NonnumericChannelData"><path d="M1325.2191,467.6454 C1349.8191,505.6054 1388.8,565.74 1413.46,603.8 " fill="none" id="ChannelData-backto-NonnumericChannelData" style="stroke:#181818;stroke-width:1.0;"/><polygon fill="none" points="1315.43,452.54,1320.1839,470.9085,1330.2542,464.3824,1315.43,452.54" style="stroke:#181818;stroke-width:1.0;"/></g><!--link NonnumericChannelData to SinglePointChannelData--><!--link SinglePointChannelData to AverageChannelData--><!--link AverageChannelData to IntervalChannelData--><!--link IntervalChannelData to ArrayChannelData--><!--link ArrayChannelData to AreaChannelData--><!--reverse link ChannelData to SkipData--><g id="link_ChannelData_SkipData"><path d="M1380.2929,451.9837 C1434.4829,469.0037 1495.68,493.77 1552.5,539 C1574.94,556.86 1593.52,584.27 1604.99,603.75 " fill="none" id="ChannelData-backto-SkipData" style="stroke:#181818;stroke-width:1.0;"/><polygon fill="none" points="1363.12,446.59,1378.495,457.708,1382.0908,446.2594,1363.12,446.59" style="stroke:#181818;stroke-width:1.0;"/></g><!--reverse link ChannelData to SinglePointChannelData--><g id="link_ChannelData_SinglePointChannelData"><path d="M1220.6396,456.5647 C1189.3496,466.5347 1167.88,472.18 1132.5,479 C854.14,532.64 762.26,437.69 497.5,539 C460.06,553.33 424.06,582.87 401.65,603.77 " fill="none" id="ChannelData-backto-SinglePointChannelData" style="stroke:#181818;stroke-width:1.0;"/><polygon fill="none" points="1237.79,451.1,1218.818,450.8479,1222.4611,462.2815,1237.79,451.1" style="stroke:#181818;stroke-width:1.0;"/></g><!--reverse link SinglePointChannelData to SinglePointNormalizedChannelData--><g id="link_SinglePointChannelData_SinglePointNormalizedChannelData"><path d="M399.8953,668.0879 C419.9153,704.6479 449.83,759.31 469.81,795.81 " fill="none" id="SinglePointChannelData-backto-SinglePointNormalizedChannelData" style="stroke:#181818;stroke-width:1.0;"/><polygon fill="none" points="391.25,652.3,394.6327,670.9697,405.158,665.2061,391.25,652.3" style="stroke:#181818;stroke-width:1.0;"/></g><!--reverse link NormalizedChannelData to SinglePointNormalizedChannelData--><g id="link_NormalizedChannelData_SinglePointNormalizedChannelData"><path d="M586.9224,683.1027 C557.3224,721.6227 524.46,764.39 500.23,795.93 " fill="none" id="NormalizedChannelData-backto-SinglePointNormalizedChannelData" style="stroke:#181818;stroke-width:1.0;stroke-dasharray:7.0,7.0;"/><polygon fill="none" points="597.89,668.83,582.1648,679.4469,591.68,686.7586,597.89,668.83" style="stroke:#181818;stroke-width:1.0;"/></g><!--reverse link ChannelData to AverageChannelData--><g id="link_ChannelData_AverageChannelData"><path d="M1220.9395,458.8987 C1167.2395,479.3587 1105.23,504.85 1039.5,539 C1033.9,541.91 1028.22,544.97 1022.53,548.14 " fill="none" id="ChannelData-backto-AverageChannelData" style="stroke:#181818;stroke-width:1.0;"/><polygon fill="none" points="1237.76,452.49,1218.8033,453.2919,1223.0758,464.5055,1237.76,452.49" style="stroke:#181818;stroke-width:1.0;"/></g><!--reverse link AverageChannelData to AverageNormalizedChannelData--><g id="link_AverageChannelData_AverageNormalizedChannelData"><path d="M866.2757,734.2132 C857.1357,763.1332 853.15,775.77 846.88,795.62 " fill="none" id="AverageChannelData-backto-AverageNormalizedChannelData" style="stroke:#181818;stroke-width:1.0;"/><polygon fill="none" points="871.7,717.05,860.5546,732.4051,871.9967,736.0213,871.7,717.05" style="stroke:#181818;stroke-width:1.0;"/></g><!--reverse link NormalizedChannelData to AverageNormalizedChannelData--><g id="link_NormalizedChannelData_AverageNormalizedChannelData"><path d="M685.8554,680.6457 C728.6054,719.1457 778.71,764.26 813.81,795.87 " fill="none" id="NormalizedChannelData-backto-AverageNormalizedChannelData" style="stroke:#181818;stroke-width:1.0;stroke-dasharray:7.0,7.0;"/><polygon fill="none" points="672.48,668.6,681.8402,685.1042,689.8706,676.1872,672.48,668.6" style="stroke:#181818;stroke-width:1.0;"/></g><!--reverse link ChannelData to IntervalChannelData--><g id="link_ChannelData_IntervalChannelData"><path d="M1275.7785,467.6439 C1260.7385,490.8439 1246.46,512.88 1224.39,546.93 " fill="none" id="ChannelData-backto-IntervalChannelData" style="stroke:#181818;stroke-width:1.0;"/><polygon fill="none" points="1285.57,452.54,1270.7439,464.38,1280.8131,470.9077,1285.57,452.54" style="stroke:#181818;stroke-width:1.0;"/></g><!--reverse link IntervalChannelData to IntervalNormalizedChannelData--><g id="link_IntervalChannelData_IntervalNormalizedChannelData"><path d="M1166.313,726.9941 C1164.323,758.4341 1163.33,774.15 1161.96,795.83 " fill="none" id="IntervalChannelData-backto-IntervalNormalizedChannelData" style="stroke:#181818;stroke-width:1.0;"/><polygon fill="none" points="1167.45,709.03,1160.3249,726.615,1172.301,727.3731,1167.45,709.03" style="stroke:#181818;stroke-width:1.0;"/></g><!--reverse link NormalizedChannelData to IntervalNormalizedChannelData--><g id="link_NormalizedChannelData_IntervalNormalizedChannelData"><path d="M692.8154,679.2597 C716.0854,696.1897 730.28,704.34 758.5,717 C765.7,720.23 951.43,766.84 1067.89,795.92 " fill="none" id="NormalizedChannelData-backto-IntervalNormalizedChannelData" style="stroke:#181818;stroke-width:1.0;stroke-dasharray:7.0,7.0;"/><polygon fill="none" points="678.26,668.67,689.2855,684.1115,696.3453,674.4079,678.26,668.67" style="stroke:#181818;stroke-width:1.0;"/></g><!--reverse link ChannelData to ArrayChannelData--><g id="link_ChannelData_ArrayChannelData"><path d="M1380.8778,441.5727 C1459.5478,454.8827 1579.11,481.62 1683.5,539 C1714.33,555.95 1743.67,584.07 1762.29,603.96 " fill="none" id="ChannelData-backto-ArrayChannelData" style="stroke:#181818;stroke-width:1.0;"/><polygon fill="none" points="1363.13,438.57,1379.8769,447.4886,1381.8787,435.6568,1363.13,438.57" style="stroke:#181818;stroke-width:1.0;"/></g><!--reverse link ArrayChannelData to MCAChannelData--><g id="link_ArrayChannelData_MCAChannelData"><path d="M1744.3172,664.5669 C1705.0572,701.1269 1642.59,759.31 1603.4,795.81 " fill="none" id="ArrayChannelData-backto-MCAChannelData" style="stroke:#181818;stroke-width:1.0;"/><polygon fill="none" points="1757.49,652.3,1740.2282,660.176,1748.4061,668.9578,1757.49,652.3" style="stroke:#181818;stroke-width:1.0;"/></g><!--reverse link ArrayChannelData to ScopeChannelData--><g id="link_ArrayChannelData_ScopeChannelData"><path d="M1781.1941,670.2911 C1780.0441,706.8511 1778.38,759.31 1777.23,795.81 " fill="none" id="ArrayChannelData-backto-ScopeChannelData" style="stroke:#181818;stroke-width:1.0;"/><polygon fill="none" points="1781.76,652.3,1775.1971,670.1025,1787.1911,670.4797,1781.76,652.3" style="stroke:#181818;stroke-width:1.0;"/></g><!--reverse link ChannelData to AreaChannelData--><g id="link_ChannelData_AreaChannelData"><path d="M1380.8138,443.4144 C1526.3338,468.7244 1859.2,527.41 1882.5,539 C1913.85,554.59 1942.59,583.27 1960.51,603.65 " fill="none" id="ChannelData-backto-AreaChannelData" style="stroke:#181818;stroke-width:1.0;"/><polygon fill="none" points="1363.08,440.33,1379.7856,449.3257,1381.8419,437.5031,1363.08,440.33" style="stroke:#181818;stroke-width:1.0;"/></g><!--reverse link AreaChannelData to SampleCameraData--><g id="link_AreaChannelData_SampleCameraData"><path d="M1980.5874,670.2937 C1981.5574,706.8537 1982.93,759.31 1983.89,795.81 " fill="none" id="AreaChannelData-backto-SampleCameraData" style="stroke:#181818;stroke-width:1.0;"/><polygon fill="none" points="1980.11,652.3,1974.5895,670.4528,1986.5853,670.1345,1980.11,652.3" style="stroke:#181818;stroke-width:1.0;"/></g><!--reverse link AreaChannelData to ScientificCameraData--><g id="link_AreaChannelData_ScientificCameraData"><path d="M2020.5426,663.9721 C2063.4626,700.5321 2132.44,759.31 2175.28,795.81 " fill="none" id="AreaChannelData-backto-ScientificCameraData" style="stroke:#181818;stroke-width:1.0;"/><polygon fill="none" points="2006.84,652.3,2016.6519,668.5397,2024.4333,659.4046,2006.84,652.3" style="stroke:#181818;stroke-width:1.0;"/></g><!--link array_area_channels_note to AreaChannelData--><g id="link_array_area_channels_note_AreaChannelData"><path codeLine="165" d="M1809.07,456.14 C1847.93,495.09 1919.63,566.98 1956.41,603.85 " fill="none" id="array_area_channels_note-AreaChannelData" style="stroke:#181818;stroke-width:1.0;stroke-dasharray:7.0,7.0;"/></g><!--link array_area_channels_note to ArrayChannelData--><g id="link_array_area_channels_note_ArrayChannelData"><path codeLine="166" d="M1782.5,456.14 C1782.5,495.09 1782.5,566.98 1782.5,603.85 " fill="none" id="array_area_channels_note-ArrayChannelData" style="stroke:#181818;stroke-width:1.0;stroke-dasharray:7.0,7.0;"/></g><!--SRC=[jLTVRzis47_Nfo3yqcH8l7L0Nu8sGv2WI1uQ1CZUka8uYoUR2qKA99N4A_hTTwGeXR9e9yKmlvWwtd_U_NXyPn-4Qi50mtWhsFiFlnL59S5QTWKEsFU2qQz11zn_dh4lSHdekdL2AqjaBYeNIA9fjN5elduZgbTn4mbXjunQLBjK78o1RI1xwj5nMAxHbV7pHw6qGoQnTapNGTdPMJaQNuJbWdMs0octhDBAWI1lWBs_Oa4v0yMP84fLeRN8WzoZ0EOs68rwW-IT3t6ZEJkwszA_OgtHBHgtFIPMw2Eho8eDacbOZ9XhOQoBHfYecKA_0hDT5a7oipPCA2uU1ITNMRK1fL2oHv0TMcQHV44Z7f6pa7cqGUhY4GsiyRBd3gVXmxbHP9L44teqS-53tcM_C0WJca5cTODFGrYsnKgGLn1Y6zF8KD2dORzVXKGn2W6O53OSHKzP_OsLwtqz8e4ABFfDqP3NDXW7AHxmU5aWhVrPfgKr9h0lCQixKo6LXdL6g7MWIGqyr44Kkxxw_64YYi-EL6Vr2OVDL5i3RKlheLX7hJVUtrVL5dqn6h7UX1JCf8ADMqIISvfHnhd496KXArGf4XKqQ4y2E-MSgeorsWhVI5HB61dLe6Y58Gt8qopE4d7wTICuH_NjFEDOZ7FeN4fGqbbdxDxNdu2rXu1Qcx_KsEsDvfr4ggvGER-SieLQJ9CIDqvVO64q1hOpmOz9EkFfVAy5IlvZZDnECE68kssBduHooU5_qKeuRLxJs0X9AKUgOdvGwPYD97M9YI8rbxAyn3KMCpwAQXffXklYMTXzF4CB4FH5J9WWv9Y2MweFLMagXfcsaT2hAgdG9F8zS9jili3iIZkd6r-gSpD1AgYlFGuyauTF10-wSwpdD3O0Iw-uXtHioJ7VRrJN7ZHJ40f0GmA1ivLacR0FrXwztJ8Ghqal1cjSr3KQL6x0JNj2cAq86mdqUrCZHs-_XwSdMbDwXDT8dgJmaxgIFuunvNyAQbO7JVlAsGtbLuQxe7ozhYT2PEgjClv-73YFtE3TYUzL_EJr74_gHNKDNIrLBkAKzfratbsZR9c4hJzMO2lXYho2f1tkwO0btcboB-4eykHKS7wv5PdxBeMr-RLNP6WJ6pltOJ6x82VCatjoIE7zWsWFPYsovGFU9oIyupLGXTzgqz0j-G_o2KyuQZNkxUdZWO6CPpXopkND3MxkYO96EeaDzPVTw-veAtE8sIG4_mqy3NwJq1gJq8RM08A6fdM7Uw9i4DGyFQLrV4xrl77MfFsuWjxj4HCzRGEs73nyWKcdMu-HcVgTwEbndCPBWwuprDDQHRGYsAGvAU9yHqEfl-MZ7DFq7wUvQ_t4k2QUtk68Sgms1DAzIty4lZkZLx2IsvDXeBM4ov97mnvg9vxru7ZAFefpiSJbnr_5-KaqCP_JOfI7goPpv6-hc67-odJnVwgPIdVgVw-OMNNiH7CuPxcOVwhDTf4idx2NuUdo8djqkmWv84P5hv-V4TXzPRpYpZtuM2zf43Qmep-FmfMWl8YQxg4to8G-1Ti_0KiQCw0SHeSoLFVm9biiTkDPBCAxnMzCb2uMSKAZnnFwrx8RPsOQH_gd4tLrVBwDeusL_hb0RzD6qtHKQH_rS_WVxlgqvtQJkEpQvVuWPYLmcFrV]--></g></svg>