<?xml version="1.0" encoding="us-ascii" standalone="no"?><svg xmlns="http://www.w3.org/2000/svg" xmlns:xlink="http://www.w3.org/1999/xlink" contentStyleType="text/css" height="349px" preserveAspectRatio="none" style="width:339px;height:349px;background:#FFFFFF;" version="1.1" viewBox="0 0 339 349" width="339px" zoomAndPan="magnify"><defs/><g><!--cluster evedata--><g id="cluster_evedata"><path d="M76.5,70 L141.5,70 A3.75,3.75 0 0 1 144,72.5 L151,92.2969 L275.5,92.2969 A2.5,2.5 0 0 1 278,94.7969 L278,256.5 A2.5,2.5 0 0 1 275.5,259 L76.5,259 A2.5,2.5 0 0 1 74,256.5 L74,72.5 A2.5,2.5 0 0 1 76.5,70 " fill="none" style="stroke:#000000;stroke-width:1.5;"/><line style="stroke:#000000;stroke-width:1.5;" x1="74" x2="151" y1="92.2969" y2="92.2969"/><text fill="#000000" font-family="sans-serif" font-size="14" font-weight="bold" lengthAdjust="spacing" textLength="64" x="78" y="84.9951">evedata</text></g><!--entity evedata.evefile--><g id="elem_evedata.evefile"><path d="M95.5,105 L232.5,105 A3.75,3.75 0 0 1 235,107.5 L242,127.2969 L256.5,127.2969 A2.5,2.5 0 0 1 259,129.7969 L259,141.7969 A2.5,2.5 0 0 1 256.5,144.2969 L95.5,144.2969 A2.5,2.5 0 0 1 93,141.7969 L93,107.5 A2.5,2.5 0 0 1 95.5,105 " fill="#F1F1F1" style="stroke:#181818;stroke-width:0.5;"/><line style="stroke:#181818;stroke-width:0.5;" x1="93" x2="242" y1="127.2969" y2="127.2969"/><text fill="#000000" font-family="sans-serif" font-size="14" font-weight="bold" lengthAdjust="spacing" textLength="124" x="103" y="120.9951">evedata.evefile</text></g><!--entity evedata.dataset--><g id="elem_evedata.dataset"><path d="M93,204 L235,204 A3.75,3.75 0 0 1 237.5,206.5 L244.5,226.2969 L259,226.2969 A2.5,2.5 0 0 1 261.5,228.7969 L261.5,240.7969 A2.5,2.5 0 0 1 259,243.2969 L93,243.2969 A2.5,2.5 0 0 1 90.5,240.7969 L90.5,206.5 A2.5,2.5 0 0 1 93,204 " fill="#F1F1F1" style="stroke:#181818;stroke-width:0.5;"/><line style="stroke:#181818;stroke-width:0.5;" x1="90.5" x2="244.5" y1="226.2969" y2="226.2969"/><text fill="#000000" font-family="sans-serif" font-size="14" font-weight="bold" lengthAdjust="spacing" textLength="129" x="100.5" y="219.9951">evedata.dataset</text></g><!--entity eveH5--><g id="elem_eveH5"><path d="M132,6 L196,6 A3.75,3.75 0 0 1 198.5,8.5 L205.5,28.2969 L220,28.2969 A2.5,2.5 0 0 1 222.5,30.7969 L222.5,42.7969 A2.5,2.5 0 0 1 220,45.2969 L132,45.2969 A2.5,2.5 0 0 1 129.5,42.7969 L129.5,8.5 A2.5,2.5 0 0 1 132,6 " fill="#FFF9C4" style="stroke:#181818;stroke-width:0.5;"/><line style="stroke:#181818;stroke-width:0.5;" x1="129.5" x2="205.5" y1="28.2969" y2="28.2969"/><text fill="#000000" font-family="sans-serif" font-size="14" font-weight="bold" lengthAdjust="spacing" textLength="51" x="139.5" y="21.9951">eveH5</text></g><!--entity evedataviewer--><g id="elem_evedataviewer"><path d="M8.5,303 L139.5,303 A3.75,3.75 0 0 1 142,305.5 L149,325.2969 L163.5,325.2969 A2.5,2.5 0 0 1 166,327.7969 L166,339.7969 A2.5,2.5 0 0 1 163.5,342.2969 L8.5,342.2969 A2.5,2.5 0 0 1 6,339.7969 L6,305.5 A2.5,2.5 0 0 1 8.5,303 " fill="#FFF9C4" style="stroke:#181818;stroke-width:0.5;"/><line style="stroke:#181818;stroke-width:0.5;" x1="6" x2="149" y1="325.2969" y2="325.2969"/><text fill="#000000" font-family="sans-serif" font-size="14" font-weight="bold" lengthAdjust="spacing" textLength="118" x="16" y="318.9951">evedataviewer</text></g><!--entity radiometry--><g id="elem_radiometry"><path d="M204,303 L306,303 A3.75,3.75 0 0 1 308.5,305.5 L315.5,325.2969 L330,325.2969 A2.5,2.5 0 0 1 332.5,327.7969 L332.5,339.7969 A2.5,2.5 0 0 1 330,342.2969 L204,342.2969 A2.5,2.5 0 0 1 201.5,339.7969 L201.5,305.5 A2.5,2.5 0 0 1 204,303 " fill="#FFF9C4" style="stroke:#181818;stroke-width:0.5;"/><line style="stroke:#181818;stroke-width:0.5;" x1="201.5" x2="315.5" y1="325.2969" y2="325.2969"/><text fill="#000000" font-family="sans-serif" font-size="14" font-weight="bold" lengthAdjust="spacing" textLength="89" x="211.5" y="318.9951">radiometry</text></g><!--reverse link evedata.evefile to evedata.dataset--><g id="link_evedata.evefile_evedata.dataset"><path d="M176,150.2 C176,167.38 176,186.7 176,203.85 " fill="none" id="evedata.evefile-backto-evedata.dataset" style="stroke:#181818;stroke-width:1.0;"/><polygon fill="#181818" points="176,144.2,172,153.2,176,149.2,180,153.2,176,144.2" style="stroke:#181818;stroke-width:1.0;"/></g><!--reverse link eveH5 to evedata.evefile--><g id="link_eveH5_evedata.evefile"><path d="M176,51.2 C176,68.38 176,87.7 176,104.85 " fill="none" id="eveH5-backto-evedata.evefile" style="stroke:#181818;stroke-width:1.0;"/><polygon fill="#181818" points="176,45.2,172,54.2,176,50.2,180,54.2,176,45.2" style="stroke:#181818;stroke-width:1.0;"/></g><!--reverse link evedata.dataset to evedataviewer--><g id="link_evedata.dataset_evedataviewer"><path d="M154.5691,247.5984 C138.6291,264.7784 119.22,285.7 103.3,302.85 " fill="none" id="evedata.dataset-backto-evedataviewer" style="stroke:#181818;stroke-width:1.0;"/><polygon fill="#181818" points="158.65,243.2,149.5963,247.077,155.2492,246.8653,155.4609,252.5182,158.65,243.2" style="stroke:#181818;stroke-width:1.0;"/></g><!--reverse link evedata.dataset to radiometry--><g id="link_evedata.dataset_radiometry"><path d="M197.6542,247.5767 C213.7642,264.7567 233.41,285.7 249.51,302.85 " fill="none" id="evedata.dataset-backto-radiometry" style="stroke:#181818;stroke-width:1.0;"/><polygon fill="#181818" points="193.55,243.2,196.7884,252.5012,196.9701,246.8473,202.6241,247.029,193.55,243.2" style="stroke:#181818;stroke-width:1.0;"/></g><!--SRC=[Ko_EpimhI2nAp5L8ASXKC3GruE8gI4pEJanFLKWjIqr9B4bKgERYKW02D64z89sMcPCAb0R9rc9N12AAKqiGYe08tG0RNLrqzIYEy31LK4vBIxDCDk62y90rG0t1S7LPPcfvQX5S8qosA34bCpytjQIe4Yx5XUvM9ECXfc1LWJ090000]--></g></svg>