<?xml version="1.0" encoding="us-ascii" standalone="no"?><svg xmlns="http://www.w3.org/2000/svg" xmlns:xlink="http://www.w3.org/1999/xlink" contentStyleType="text/css" height="547px" preserveAspectRatio="none" style="width:703px;height:547px;background:#FFFFFF;" version="1.1" viewBox="0 0 703 547" width="703px" zoomAndPan="magnify"><defs/><g><!--class EveFile--><g id="elem_EveFile"><rect codeLine="2" fill="#F1F1F1" height="146.4375" id="EveFile" rx="2.5" ry="2.5" style="stroke:#181818;stroke-width:0.5;" width="186" x="305.5" y="7"/><ellipse cx="372.75" cy="23" fill="#ADD1B2" rx="11" ry="11" style="stroke:#181818;stroke-width:1.0;"/><path d="M372.7969,29.2031 C374.2969,29.2031 375.5313,28.6406 376.4375,27.5781 L375.0625,26.0625 C374.5156,26.6563 373.8594,27.0469 373.0625,27.0469 C371.3906,27.0469 370.2344,25.7188 370.2344,23.4375 C370.2344,21.2188 371.3906,19.875 372.9531,19.875 C373.7656,19.875 374.3594,20.1875 374.8906,20.6719 L376.2656,19.125 C375.5156,18.3906 374.3594,17.7188 372.9531,17.7188 C370,17.7188 367.6719,19.8594 367.6719,23.5313 C367.6719,27.25 370.0469,29.2031 372.7969,29.2031 Z " fill="#000000"/><text fill="#000000" font-family="sans-serif" font-size="14" lengthAdjust="spacing" textLength="43" x="393.25" y="27.7852">EveFile</text><line style="stroke:#181818;stroke-width:0.5;" x1="306.5" x2="490.5" y1="39" y2="39"/><text fill="#000000" font-family="sans-serif" font-size="14" lengthAdjust="spacing" textLength="174" x="311.5" y="55.9883">metadata : EveFileMetadata</text><text fill="#000000" font-family="sans-serif" font-size="14" lengthAdjust="spacing" textLength="144" x="311.5" y="72.3945">comments : Comment[]</text><text fill="#000000" font-family="sans-serif" font-size="14" lengthAdjust="spacing" textLength="75" x="311.5" y="88.8008">scml : SCML</text><text fill="#000000" font-family="sans-serif" font-size="14" lengthAdjust="spacing" textLength="98" x="311.5" y="105.207">data : EveData[]</text><text fill="#000000" font-family="sans-serif" font-size="14" lengthAdjust="spacing" textLength="135" x="311.5" y="121.6133">snapshots : EveData[]</text><text fill="#000000" font-family="sans-serif" font-size="14" lengthAdjust="spacing" textLength="125" x="311.5" y="138.0195">monitors : EveData[]</text><line style="stroke:#181818;stroke-width:0.5;" x1="306.5" x2="490.5" y1="145.4375" y2="145.4375"/></g><path d="M68,16.5 L68,133.1406 A0,0 0 0 0 68,133.1406 L271,133.1406 A0,0 0 0 0 271,133.1406 L271,78.8203 L309.5,116.8281 L271,70.8203 L271,26.5 L261,16.5 L68,16.5 A0,0 0 0 0 68,16.5 " fill="#FEFFDD" style="stroke:#181818;stroke-width:0.5;"/><path d="M261,16.5 L261,26.5 L271,26.5 L261,16.5 " fill="#FEFFDD" style="stroke:#181818;stroke-width:0.5;"/><text fill="#000000" font-family="sans-serif" font-size="13" lengthAdjust="spacing" textLength="161" x="74" y="33.5605">Snapshot datasets can have</text><text fill="#000000" font-family="sans-serif" font-size="13" lengthAdjust="spacing" textLength="182" x="74" y="48.7949">identical names/IDs to datasets</text><text fill="#000000" font-family="sans-serif" font-size="13" lengthAdjust="spacing" textLength="132" x="74" y="64.0293">in the standard section.</text><text fill="#000000" font-family="sans-serif" font-size="13" lengthAdjust="spacing" textLength="150" x="74" y="79.2637">This makes a separate list</text><text fill="#000000" font-family="sans-serif" font-size="13" lengthAdjust="spacing" textLength="122" x="74" y="94.498">probably unavoidable.</text><text fill="#000000" font-family="sans-serif" font-size="13" lengthAdjust="spacing" textLength="3" x="74" y="109.7324">&#160;</text><text fill="#000000" font-family="sans-serif" font-size="13" lengthAdjust="spacing" textLength="153" x="74" y="124.9668">How to deal with monitors?</text><!--class EveData--><g id="elem_EveData"><rect fill="#F1F1F1" height="48" id="EveData" rx="2.5" ry="2.5" style="stroke:#181818;stroke-width:0.5;" width="84" x="574.5" y="56"/><ellipse cx="589.5" cy="72" fill="#ADD1B2" rx="11" ry="11" style="stroke:#181818;stroke-width:1.0;"/><path d="M589.5469,78.2031 C591.0469,78.2031 592.2813,77.6406 593.1875,76.5781 L591.8125,75.0625 C591.2656,75.6563 590.6094,76.0469 589.8125,76.0469 C588.1406,76.0469 586.9844,74.7188 586.9844,72.4375 C586.9844,70.2188 588.1406,68.875 589.7031,68.875 C590.5156,68.875 591.1094,69.1875 591.6406,69.6719 L593.0156,68.125 C592.2656,67.3906 591.1094,66.7188 589.7031,66.7188 C586.75,66.7188 584.4219,68.8594 584.4219,72.5313 C584.4219,76.25 586.7969,78.2031 589.5469,78.2031 Z " fill="#000000"/><text fill="#000000" font-family="sans-serif" font-size="14" lengthAdjust="spacing" textLength="52" x="603.5" y="76.7852">EveData</text><line style="stroke:#181818;stroke-width:0.5;" x1="575.5" x2="657.5" y1="88" y2="88"/><line style="stroke:#181818;stroke-width:0.5;" x1="575.5" x2="657.5" y1="96" y2="96"/></g><g id="elem_GMN7"><path d="M585,299 L585,339.4688 A0,0 0 0 0 585,339.4688 L696,339.4688 A0,0 0 0 0 696,339.4688 L696,309 L686,299 L642.55,299 L618.84,104.16 L634.55,299 L585,299 A0,0 0 0 0 585,299 " fill="#FEFFDD" style="stroke:#181818;stroke-width:0.5;"/><path d="M686,299 L686,309 L696,309 L686,299 " fill="#FEFFDD" style="stroke:#181818;stroke-width:0.5;"/><text fill="#000000" font-family="sans-serif" font-size="13" lengthAdjust="spacing" textLength="90" x="591" y="316.0605">See diagram for</text><text fill="#000000" font-family="sans-serif" font-size="13" lengthAdjust="spacing" textLength="73" x="591" y="331.2949">data module.</text></g><!--class EveFileMetadata--><g id="elem_EveFileMetadata"><rect codeLine="23" fill="#F1F1F1" height="212.0625" id="EveFileMetadata" rx="2.5" ry="2.5" style="stroke:#181818;stroke-width:0.5;" width="261" x="7" y="213"/><ellipse cx="81.25" cy="229" fill="#ADD1B2" rx="11" ry="11" style="stroke:#181818;stroke-width:1.0;"/><path d="M81.2969,235.2031 C82.7969,235.2031 84.0313,234.6406 84.9375,233.5781 L83.5625,232.0625 C83.0156,232.6563 82.3594,233.0469 81.5625,233.0469 C79.8906,233.0469 78.7344,231.7188 78.7344,229.4375 C78.7344,227.2188 79.8906,225.875 81.4531,225.875 C82.2656,225.875 82.8594,226.1875 83.3906,226.6719 L84.7656,225.125 C84.0156,224.3906 82.8594,223.7188 81.4531,223.7188 C78.5,223.7188 76.1719,225.8594 76.1719,229.5313 C76.1719,233.25 78.5469,235.2031 81.2969,235.2031 Z " fill="#000000"/><text fill="#000000" font-family="sans-serif" font-size="14" lengthAdjust="spacing" textLength="104" x="101.75" y="233.7852">EveFileMetadata</text><line style="stroke:#181818;stroke-width:0.5;" x1="8" x2="267" y1="245" y2="245"/><text fill="#000000" font-family="sans-serif" font-size="14" lengthAdjust="spacing" textLength="98" x="13" y="261.9883">filename : string</text><text fill="#000000" font-family="sans-serif" font-size="14" lengthAdjust="spacing" textLength="112" x="13" y="278.3945">h5_version : string</text><text fill="#000000" font-family="sans-serif" font-size="14" lengthAdjust="spacing" textLength="117" x="13" y="294.8008">eve_version : string</text><text fill="#000000" font-family="sans-serif" font-size="14" lengthAdjust="spacing" textLength="115" x="13" y="311.207">xml_version: string</text><text fill="#000000" font-family="sans-serif" font-size="14" lengthAdjust="spacing" textLength="95" x="13" y="327.6133">location : string</text><text fill="#000000" font-family="sans-serif" font-size="14" lengthAdjust="spacing" textLength="94" x="13" y="344.0195">start : datetime</text><text fill="#000000" font-family="sans-serif" font-size="14" lengthAdjust="spacing" textLength="87" x="13" y="360.4258">end : datetime</text><text fill="#000000" font-family="sans-serif" font-size="14" lengthAdjust="spacing" textLength="133" x="13" y="376.832">preferred_axis : string</text><text fill="#000000" font-family="sans-serif" font-size="14" lengthAdjust="spacing" textLength="157" x="13" y="393.2383">preferred_channel : string</text><text fill="#000000" font-family="sans-serif" font-size="14" lengthAdjust="spacing" textLength="249" x="13" y="409.6445">preferred_normalisation_channel : string</text><line style="stroke:#181818;stroke-width:0.5;" x1="8" x2="267" y1="417.0625" y2="417.0625"/></g><!--class Comment--><g id="elem_Comment"><rect codeLine="36" fill="#F1F1F1" height="80.8125" id="Comment" rx="2.5" ry="2.5" style="stroke:#181818;stroke-width:0.5;" width="143" x="303" y="278.5"/><ellipse cx="340.5" cy="294.5" fill="#ADD1B2" rx="11" ry="11" style="stroke:#181818;stroke-width:1.0;"/><path d="M340.5469,300.7031 C342.0469,300.7031 343.2813,300.1406 344.1875,299.0781 L342.8125,297.5625 C342.2656,298.1563 341.6094,298.5469 340.8125,298.5469 C339.1406,298.5469 337.9844,297.2188 337.9844,294.9375 C337.9844,292.7188 339.1406,291.375 340.7031,291.375 C341.5156,291.375 342.1094,291.6875 342.6406,292.1719 L344.0156,290.625 C343.2656,289.8906 342.1094,289.2188 340.7031,289.2188 C337.75,289.2188 335.4219,291.3594 335.4219,295.0313 C335.4219,298.75 337.7969,300.7031 340.5469,300.7031 Z " fill="#000000"/><text fill="#000000" font-family="sans-serif" font-size="14" lengthAdjust="spacing" textLength="61" x="359.5" y="299.2852">Comment</text><line style="stroke:#181818;stroke-width:0.5;" x1="304" x2="445" y1="310.5" y2="310.5"/><text fill="#000000" font-family="sans-serif" font-size="14" lengthAdjust="spacing" textLength="131" x="309" y="327.4883">timestamp : datetime</text><text fill="#000000" font-family="sans-serif" font-size="14" lengthAdjust="spacing" textLength="104" x="309" y="343.8945">comment : string</text><line style="stroke:#181818;stroke-width:0.5;" x1="304" x2="445" y1="351.3125" y2="351.3125"/></g><g id="elem_GMN12"><path d="M235.5,485 L235.5,540.7031 A0,0 0 0 0 235.5,540.7031 L449.5,540.7031 A0,0 0 0 0 449.5,540.7031 L449.5,495 L439.5,485 L351.01,485 L367.87,359.78 L343.01,485 L235.5,485 A0,0 0 0 0 235.5,485 " fill="#FEFFDD" style="stroke:#181818;stroke-width:0.5;"/><path d="M439.5,485 L439.5,495 L449.5,495 L439.5,485 " fill="#FEFFDD" style="stroke:#181818;stroke-width:0.5;"/><text fill="#000000" font-family="sans-serif" font-size="13" lengthAdjust="spacing" textLength="192" x="241.5" y="502.0605">Comments are both, file comment</text><text fill="#000000" font-family="sans-serif" font-size="13" lengthAdjust="spacing" textLength="192" x="241.5" y="517.2949">and log messages. Discriminating</text><text fill="#000000" font-family="sans-serif" font-size="13" lengthAdjust="spacing" textLength="193" x="241.5" y="532.5293">could be done in the EveFile class.</text></g><!--class SCML--><g id="elem_SCML"><rect codeLine="42" fill="#F1F1F1" height="48" id="SCML" rx="2.5" ry="2.5" style="stroke:#181818;stroke-width:0.5;" width="69" x="481" y="295"/><ellipse cx="496" cy="311" fill="#ADD1B2" rx="11" ry="11" style="stroke:#181818;stroke-width:1.0;"/><path d="M496.0469,317.2031 C497.5469,317.2031 498.7813,316.6406 499.6875,315.5781 L498.3125,314.0625 C497.7656,314.6563 497.1094,315.0469 496.3125,315.0469 C494.6406,315.0469 493.4844,313.7188 493.4844,311.4375 C493.4844,309.2188 494.6406,307.875 496.2031,307.875 C497.0156,307.875 497.6094,308.1875 498.1406,308.6719 L499.5156,307.125 C498.7656,306.3906 497.6094,305.7188 496.2031,305.7188 C493.25,305.7188 490.9219,307.8594 490.9219,311.5313 C490.9219,315.25 493.2969,317.2031 496.0469,317.2031 Z " fill="#000000"/><text fill="#000000" font-family="sans-serif" font-size="14" lengthAdjust="spacing" textLength="37" x="510" y="315.7852">SCML</text><line style="stroke:#181818;stroke-width:0.5;" x1="482" x2="549" y1="327" y2="327"/><line style="stroke:#181818;stroke-width:0.5;" x1="482" x2="549" y1="335" y2="335"/></g><g id="elem_GMN16"><path d="M485,493 L485,533.4688 A0,0 0 0 0 485,533.4688 L610,533.4688 A0,0 0 0 0 610,533.4688 L610,503 L600,493 L548.3,493 L519.36,343.16 L540.3,493 L485,493 A0,0 0 0 0 485,493 " fill="#FEFFDD" style="stroke:#181818;stroke-width:0.5;"/><path d="M600,493 L600,503 L610,503 L600,493 " fill="#FEFFDD" style="stroke:#181818;stroke-width:0.5;"/><text fill="#000000" font-family="sans-serif" font-size="13" lengthAdjust="spacing" textLength="97" x="491" y="510.0605">See diagrams for</text><text fill="#000000" font-family="sans-serif" font-size="13" lengthAdjust="spacing" textLength="104" x="491" y="525.2949">scml subpackage.</text></g><!--reverse link EveFile to EveData--><g id="link_EveFile_EveData"><path codeLine="20" d="M503.75,80 C531.2,80 546.65,80 574.1,80 " fill="none" id="EveFile-backto-EveData" style="stroke:#181818;stroke-width:1.0;"/><polygon fill="#181818" points="491.75,80,497.75,84,503.75,80,497.75,76,491.75,80" style="stroke:#181818;stroke-width:1.0;"/><text fill="#000000" font-family="sans-serif" font-size="13" lengthAdjust="spacing" textLength="7" x="559.4978" y="75.8378">n</text></g><!--reverse link EveFile to EveFileMetadata--><g id="link_EveFile_EveFileMetadata"><path codeLine="46" d="M310.2468,161.1378 C289.5468,179.9378 275.7,192.51 253.53,212.64 " fill="none" id="EveFile-backto-EveFileMetadata" style="stroke:#181818;stroke-width:1.0;"/><polygon fill="#181818" points="319.13,153.07,311.9992,154.1428,310.2468,161.1378,317.3777,160.065,319.13,153.07" style="stroke:#181818;stroke-width:1.0;"/></g><!--reverse link EveFile to Comment--><g id="link_EveFile_Comment"><path codeLine="47" d="M389.9924,165.0091 C385.8324,206.1391 381.97,244.19 378.52,278.28 " fill="none" id="EveFile-backto-Comment" style="stroke:#181818;stroke-width:1.0;"/><polygon fill="#181818" points="391.2,153.07,386.6165,158.637,389.9924,165.0091,394.5759,159.4421,391.2,153.07" style="stroke:#181818;stroke-width:1.0;"/><text fill="#000000" font-family="sans-serif" font-size="13" lengthAdjust="spacing" textLength="7" x="383.0863" y="173.4289">1</text><text fill="#000000" font-family="sans-serif" font-size="13" lengthAdjust="spacing" textLength="7" x="371.6061" y="267.389">n</text></g><!--reverse link EveFile to SCML--><g id="link_EveFile_SCML"><path codeLine="48" d="M439.3914,163.8305 C463.3214,212.3105 488.03,262.35 504.1,294.9 " fill="none" id="EveFile-backto-SCML" style="stroke:#181818;stroke-width:1.0;"/><polygon fill="#181818" points="434.08,153.07,433.1489,160.2207,439.3914,163.8305,440.3226,156.6798,434.08,153.07" style="stroke:#181818;stroke-width:1.0;"/></g><!--SRC=[TLCzRzj03DtrAmYFHUEYGnSl7UmM3P1CwLON0NsYfKDqFE5uTb8K_k-bA9rZnOsc4ny_7ib7rw48V3lITzyH_Ar0lq0PQym8gmBSJnQ3NGo1E8l2w_7vwxS1uaAdneVr_Ptzl-ROwAiuCVRIHWkV8o6opp7DWLF5CHDqjCyGzuNFQdLEOw4Fqv-L5DBa3XbQF9B1lbQItc47Z87aq-r68CUpy-Z3a5i2oSWrfXg4NFQHbmR-RBr0m2SIG4LwJ3YGyf8DxbFSuQxx0mV6O_IrlcbP6VGZFbifqkBFFhVdBhzMn3KCpLLL6V-76rZmedG_ThwBESUWKoM2scEJCC0-fYtRT4Ei3rRBNUwnh6jSvrujGzywLyd9SsFMzilZaP9eYtCx7Ud_m4le2Z2pTz5XllBMEQQi9gL1sOTn3qF7RqnzeZsbHFKZldYPvtZ5N8lCrBq7Sqm1THl6uzhvLCOpoNMI-S11QOR-BQT9u9S9PgjObmF0PCRseysun6rP9QHZQVIGHB0XMSB6Yqi-U5QAt6pPnKDNmqvN6fcAzeeCZEmI2klXdfJowLqzo2W8Epyvx7fqJrfrUQchcwjBBjZYyyBmGNXJOxCuk-P_]--></g></svg>