<?xml version="1.0" encoding="us-ascii" standalone="no"?><svg xmlns="http://www.w3.org/2000/svg" xmlns:xlink="http://www.w3.org/1999/xlink" contentStyleType="text/css" height="275px" preserveAspectRatio="none" style="width:791px;height:275px;background:#FFFFFF;" version="1.1" viewBox="0 0 791 275" width="791px" zoomAndPan="magnify"><defs/><g><!--class VersionMapperFactory--><g id="elem_VersionMapperFactory"><rect codeLine="3" fill="#F1F1F1" height="80.8125" id="VersionMapperFactory" rx="2.5" ry="2.5" style="stroke:#181818;stroke-width:0.5;" width="175" x="609.5" y="31.5"/><ellipse cx="624.5" cy="47.5" fill="#ADD1B2" rx="11" ry="11" style="stroke:#181818;stroke-width:1.0;"/><path d="M624.5469,53.7031 C626.0469,53.7031 627.2813,53.1406 628.1875,52.0781 L626.8125,50.5625 C626.2656,51.1563 625.6094,51.5469 624.8125,51.5469 C623.1406,51.5469 621.9844,50.2188 621.9844,47.9375 C621.9844,45.7188 623.1406,44.375 624.7031,44.375 C625.5156,44.375 626.1094,44.6875 626.6406,45.1719 L628.0156,43.625 C627.2656,42.8906 626.1094,42.2188 624.7031,42.2188 C621.75,42.2188 619.4219,44.3594 619.4219,48.0313 C619.4219,51.75 621.7969,53.7031 624.5469,53.7031 Z " fill="#000000"/><text fill="#000000" font-family="sans-serif" font-size="14" lengthAdjust="spacing" textLength="143" x="638.5" y="52.2852">VersionMapperFactory</text><line style="stroke:#181818;stroke-width:0.5;" x1="610.5" x2="783.5" y1="63.5" y2="63.5"/><ellipse cx="620.5" cy="77.2031" fill="none" rx="3" ry="3" style="stroke:#038048;stroke-width:1.0;"/><text fill="#000000" font-family="sans-serif" font-size="14" lengthAdjust="spacing" textLength="104" x="629.5" y="80.4883">eveH5 : HDF5File</text><line style="stroke:#181818;stroke-width:0.5;" x1="610.5" x2="783.5" y1="87.9063" y2="87.9063"/><ellipse cx="620.5" cy="101.6094" fill="#84BE84" rx="3" ry="3" style="stroke:#038048;stroke-width:1.0;"/><text fill="#000000" font-family="sans-serif" font-size="14" lengthAdjust="spacing" textLength="84" x="629.5" y="104.8945">get_mapper()</text></g><!--class VersionMapper--><g id="elem_VersionMapper"><rect codeLine="8" fill="#F1F1F1" height="113.625" id="VersionMapper" rx="2.5" ry="2.5" style="stroke:#181818;stroke-width:0.5;" width="151" x="237.5" y="15"/><ellipse cx="263.3" cy="31" fill="#ADD1B2" rx="11" ry="11" style="stroke:#181818;stroke-width:1.0;"/><path d="M263.3469,37.2031 C264.8469,37.2031 266.0813,36.6406 266.9875,35.5781 L265.6125,34.0625 C265.0656,34.6563 264.4094,35.0469 263.6125,35.0469 C261.9406,35.0469 260.7844,33.7188 260.7844,31.4375 C260.7844,29.2188 261.9406,27.875 263.5031,27.875 C264.3156,27.875 264.9094,28.1875 265.4406,28.6719 L266.8156,27.125 C266.0656,26.3906 264.9094,25.7188 263.5031,25.7188 C260.55,25.7188 258.2219,27.8594 258.2219,31.5313 C258.2219,35.25 260.5969,37.2031 263.3469,37.2031 Z " fill="#000000"/><text fill="#000000" font-family="sans-serif" font-size="14" lengthAdjust="spacing" textLength="95" x="279.7" y="35.7852">VersionMapper</text><line style="stroke:#181818;stroke-width:0.5;" x1="238.5" x2="387.5" y1="47" y2="47"/><ellipse cx="248.5" cy="60.7031" fill="none" rx="3" ry="3" style="stroke:#038048;stroke-width:1.0;"/><text fill="#000000" font-family="sans-serif" font-size="14" lengthAdjust="spacing" textLength="91" x="257.5" y="63.9883">evefile : EveFile</text><ellipse cx="248.5" cy="77.1094" fill="none" rx="3" ry="3" style="stroke:#038048;stroke-width:1.0;"/><text fill="#000000" font-family="sans-serif" font-size="14" lengthAdjust="spacing" textLength="104" x="257.5" y="80.3945">eveH5 : HDF5File</text><rect fill="none" height="6" style="stroke:#C82930;stroke-width:1.0;" width="6" x="245.5" y="90.5156"/><text fill="#000000" font-family="sans-serif" font-size="14" lengthAdjust="spacing" textLength="125" x="257.5" y="96.8008">_mapping : Mapping</text><line style="stroke:#181818;stroke-width:0.5;" x1="238.5" x2="387.5" y1="104.2188" y2="104.2188"/><ellipse cx="248.5" cy="117.9219" fill="#84BE84" rx="3" ry="3" style="stroke:#038048;stroke-width:1.0;"/><text fill="#000000" font-family="sans-serif" font-size="14" lengthAdjust="spacing" textLength="38" x="257.5" y="121.207">map()</text></g><g id="elem_GMN4"><path d="M6,6 L6,137.875 A0,0 0 0 0 6,137.875 L202,137.875 A0,0 0 0 0 202,137.875 L202,76 L237.38,72 L202,68 L202,16 L192,6 L6,6 A0,0 0 0 0 6,6 " fill="#FEFFDD" style="stroke:#181818;stroke-width:0.5;"/><path d="M192,6 L192,16 L202,16 L192,6 " fill="#FEFFDD" style="stroke:#181818;stroke-width:0.5;"/><text fill="#000000" font-family="sans-serif" font-size="13" lengthAdjust="spacing" textLength="140" x="12" y="23.0605">For EveFile and HDF5File</text><text fill="#000000" font-family="sans-serif" font-size="13" lengthAdjust="spacing" textLength="156" x="12" y="38.2949">see the respective modules</text><text fill="#000000" font-family="sans-serif" font-size="13" lengthAdjust="spacing" textLength="163" x="12" y="53.5293">implementing these classes.</text><text fill="#000000" font-family="sans-serif" font-size="13" lengthAdjust="spacing" textLength="3" x="12" y="68.7637">&#160;</text><text fill="#000000" font-family="sans-serif" font-size="13" lengthAdjust="spacing" textLength="156" x="12" y="83.998">VersionMapper implements</text><text fill="#000000" font-family="sans-serif" font-size="13" lengthAdjust="spacing" textLength="135" x="12" y="99.2324">that part of the mapping</text><text fill="#000000" font-family="sans-serif" font-size="13" lengthAdjust="spacing" textLength="153" x="12" y="114.4668">functionality common to all</text><text fill="#000000" font-family="sans-serif" font-size="13" lengthAdjust="spacing" textLength="175" x="12" y="129.7012">versions of the eveH5 schema.</text></g><!--class Mapping--><g id="elem_Mapping"><rect codeLine="25" fill="#F1F1F1" height="97.2188" id="Mapping" rx="2.5" ry="2.5" style="stroke:#181818;stroke-width:0.5;" width="150" x="424" y="23.5"/><ellipse cx="467.35" cy="39.5" fill="#ADD1B2" rx="11" ry="11" style="stroke:#181818;stroke-width:1.0;"/><path d="M467.3969,45.7031 C468.8969,45.7031 470.1313,45.1406 471.0375,44.0781 L469.6625,42.5625 C469.1156,43.1563 468.4594,43.5469 467.6625,43.5469 C465.9906,43.5469 464.8344,42.2188 464.8344,39.9375 C464.8344,37.7188 465.9906,36.375 467.5531,36.375 C468.3656,36.375 468.9594,36.6875 469.4906,37.1719 L470.8656,35.625 C470.1156,34.8906 468.9594,34.2188 467.5531,34.2188 C464.6,34.2188 462.2719,36.3594 462.2719,40.0313 C462.2719,43.75 464.6469,45.7031 467.3969,45.7031 Z " fill="#000000"/><text fill="#000000" font-family="sans-serif" font-size="14" lengthAdjust="spacing" textLength="55" x="487.65" y="44.2852">Mapping</text><line style="stroke:#181818;stroke-width:0.5;" x1="425" x2="573" y1="55.5" y2="55.5"/><ellipse cx="435" cy="69.2031" fill="none" rx="3" ry="3" style="stroke:#038048;stroke-width:1.0;"/><text fill="#000000" font-family="sans-serif" font-size="14" lengthAdjust="spacing" textLength="98" x="444" y="72.4883">filename : string</text><ellipse cx="435" cy="85.6094" fill="none" rx="3" ry="3" style="stroke:#038048;stroke-width:1.0;"/><text fill="#000000" font-family="sans-serif" font-size="14" lengthAdjust="spacing" textLength="124" x="444" y="88.8945">mapping_table : dict</text><line style="stroke:#181818;stroke-width:0.5;" x1="425" x2="573" y1="96.3125" y2="96.3125"/><ellipse cx="435" cy="110.0156" fill="#84BE84" rx="3" ry="3" style="stroke:#038048;stroke-width:1.0;"/><text fill="#000000" font-family="sans-serif" font-size="14" lengthAdjust="spacing" textLength="37" x="444" y="113.3008">load()</text></g><!--class VersionMapperVx--><g id="elem_VersionMapperVx"><rect codeLine="33" fill="#F1F1F1" height="48" id="VersionMapperVx" rx="2.5" ry="2.5" style="stroke:#181818;stroke-width:0.5;" width="143" x="241.5" y="209.5"/><ellipse cx="256.5" cy="225.5" fill="#ADD1B2" rx="11" ry="11" style="stroke:#181818;stroke-width:1.0;"/><path d="M256.5469,231.7031 C258.0469,231.7031 259.2813,231.1406 260.1875,230.0781 L258.8125,228.5625 C258.2656,229.1563 257.6094,229.5469 256.8125,229.5469 C255.1406,229.5469 253.9844,228.2188 253.9844,225.9375 C253.9844,223.7188 255.1406,222.375 256.7031,222.375 C257.5156,222.375 258.1094,222.6875 258.6406,223.1719 L260.0156,221.625 C259.2656,220.8906 258.1094,220.2188 256.7031,220.2188 C253.75,220.2188 251.4219,222.3594 251.4219,226.0313 C251.4219,229.75 253.7969,231.7031 256.5469,231.7031 Z " fill="#000000"/><text fill="#000000" font-family="sans-serif" font-size="14" lengthAdjust="spacing" textLength="111" x="270.5" y="230.2852">VersionMapperVx</text><line style="stroke:#181818;stroke-width:0.5;" x1="242.5" x2="383.5" y1="241.5" y2="241.5"/><line style="stroke:#181818;stroke-width:0.5;" x1="242.5" x2="383.5" y1="249.5" y2="249.5"/></g><g id="elem_GMN11"><path d="M6,198 L6,268.9375 A0,0 0 0 0 6,268.9375 L206,268.9375 A0,0 0 0 0 206,268.9375 L206,237.5 L241.29,233.5 L206,229.5 L206,208 L196,198 L6,198 A0,0 0 0 0 6,198 " fill="#FEFFDD" style="stroke:#181818;stroke-width:0.5;"/><path d="M196,198 L196,208 L206,208 L196,198 " fill="#FEFFDD" style="stroke:#181818;stroke-width:0.5;"/><text fill="#000000" font-family="sans-serif" font-size="13" lengthAdjust="spacing" textLength="171" x="12" y="215.0605">Most probably, the classes for</text><text fill="#000000" font-family="sans-serif" font-size="13" lengthAdjust="spacing" textLength="165" x="12" y="230.2949">the different eveH5 schemas</text><text fill="#000000" font-family="sans-serif" font-size="13" lengthAdjust="spacing" textLength="179" x="12" y="245.5293">are not a hierarchy, but all direct</text><text fill="#000000" font-family="sans-serif" font-size="13" lengthAdjust="spacing" textLength="173" x="12" y="260.7637">subclasses of VersionMapper.</text></g><!--reverse link VersionMapper to Mapping--><g id="link_VersionMapper_Mapping"><path codeLine="31" d="M400.56,72 C412.35,72 412.15,72 423.94,72 " fill="none" id="VersionMapper-backto-Mapping" style="stroke:#181818;stroke-width:1.0;"/><polygon fill="#181818" points="388.56,72,394.56,76,400.56,72,394.56,68,388.56,72" style="stroke:#181818;stroke-width:1.0;"/></g><!--reverse link VersionMapper to VersionMapperVx--><g id="link_VersionMapper_VersionMapperVx"><path d="M313,147.23 C313,174.68 313,188.2 313,209.13 " fill="none" id="VersionMapper-backto-VersionMapperVx" style="stroke:#181818;stroke-width:1.0;"/><polygon fill="none" points="313,129.23,307,147.23,319,147.23,313,129.23" style="stroke:#181818;stroke-width:1.0;"/></g><!--SRC=[VP4zRuD038PtVeMtVYQPicHkKHRMh9414qww3tHdKAAg_xtc3fBGHcK2_FfzxSTFBNCNTfjDfz5oR_IwScPJQGnXLIiyUJHP5Z_XG3uePmliEl8vLkpy1RuoaEUD1jflOGVxZtoRAqtfxuduQABy-INxVkXpPz18drXy3dHpUEYxYgRAdgHGfBUabjyno3ecqDGmk6OP5tMvytCAeAsNve48k2Nm53ggM0q4njMzfX3BodIQ35aUuqKN2E9M5DPP52otkyfJDxV8qA6FWuqfvcxyfhUIvongnHUGCnXdWHsWrh4-9ESmzoOseMh9u3eZMuzhpv0dBZFUaQr5C_8DxE-1ZQeZOndPrwhYLD4EwtIqvKAlgoloH-Syd87EBBFyFVD_PpcSOshXWk3nhfHnBkznoGakDCvF14ccR1ho0dM18156Jo0vWD0gykYhLepAdaUAqkXfMZ3qvMpzUvWRony0]--></g></svg>