<?xml version="1.0" encoding="us-ascii" standalone="no"?><svg xmlns="http://www.w3.org/2000/svg" xmlns:xlink="http://www.w3.org/1999/xlink" contentStyleType="text/css" height="649px" preserveAspectRatio="none" style="width:1044px;height:649px;background:#FFFFFF;" version="1.1" viewBox="0 0 1044 649" width="1044px" zoomAndPan="magnify"><defs/><g><!--class Data--><g id="elem_Data"><rect codeLine="3" fill="#F1F1F1" height="80.5938" id="Data" rx="2.5" ry="2.5" style="stroke:#181818;stroke-width:0.5;" width="161" x="389" y="7"/><ellipse cx="448.25" cy="23" fill="#ADD1B2" rx="11" ry="11" style="stroke:#181818;stroke-width:1.0;"/><path d="M451.2344,28.6406 Q450.6563,28.9375 450.0156,29.0781 Q449.375,29.2344 448.6719,29.2344 Q446.1563,29.2344 444.8281,27.5938 Q443.5156,25.9375 443.5156,22.8125 Q443.5156,19.6719 444.8281,18.0313 Q446.1563,16.375 448.6719,16.375 Q449.375,16.375 450.0156,16.5313 Q450.6719,16.6719 451.2344,16.9688 L451.2344,19.6875 Q450.5938,19.1094 450,18.8438 Q449.4063,18.5781 448.7813,18.5781 Q447.4375,18.5781 446.75,19.6406 Q446.0625,20.7031 446.0625,22.8125 Q446.0625,24.9063 446.75,25.9844 Q447.4375,27.0469 448.7813,27.0469 Q449.4063,27.0469 450,26.7813 Q450.5938,26.5 451.2344,25.9219 L451.2344,28.6406 Z " fill="#000000"/><text fill="#000000" font-family="sans-serif" font-size="14" lengthAdjust="spacing" textLength="34" x="468.75" y="27.8467">Data</text><line style="stroke:#181818;stroke-width:0.5;" x1="390" x2="549" y1="39" y2="39"/><text fill="#000000" font-family="sans-serif" font-size="14" lengthAdjust="spacing" textLength="149" x="395" y="55.9951">metadata : Metadata</text><text fill="#000000" font-family="sans-serif" font-size="14" lengthAdjust="spacing" textLength="137" x="395" y="72.292">values : np.ndarray</text><line style="stroke:#181818;stroke-width:0.5;" x1="390" x2="549" y1="79.5938" y2="79.5938"/></g><path d="M23,15 L23,70.3984 A0,0 0 0 0 23,70.3984 L354,70.3984 A0,0 0 0 0 354,70.3984 L354,46.6992 L393,67.4453 L354,38.6992 L354,25 L344,15 L23,15 A0,0 0 0 0 23,15 " fill="#FEFFDD" style="stroke:#181818;stroke-width:0.5;"/><path d="M344,15 L344,25 L354,25 L344,15 " fill="#FEFFDD" style="stroke:#181818;stroke-width:0.5;"/><text fill="#000000" font-family="sans-serif" font-size="13" lengthAdjust="spacing" textLength="190" x="29" y="32.0669">"values" contains a 1D array.</text><text fill="#000000" font-family="sans-serif" font-size="13" lengthAdjust="spacing" textLength="267" x="29" y="47.1997">For individual values see derived classes</text><text fill="#000000" font-family="sans-serif" font-size="13" lengthAdjust="spacing" textLength="310" x="29" y="62.3325">AverageDetectorData and IntervalDetectorData</text><!--class Metadata--><g id="elem_Metadata"><rect codeLine="13" fill="#F1F1F1" height="48" id="Metadata" rx="2.5" ry="2.5" style="stroke:#181818;stroke-width:0.5;" width="99" x="160" y="156"/><ellipse cx="175" cy="172" fill="#ADD1B2" rx="11" ry="11" style="stroke:#181818;stroke-width:1.0;"/><path d="M177.9844,177.6406 Q177.4063,177.9375 176.7656,178.0781 Q176.125,178.2344 175.4219,178.2344 Q172.9063,178.2344 171.5781,176.5938 Q170.2656,174.9375 170.2656,171.8125 Q170.2656,168.6719 171.5781,167.0313 Q172.9063,165.375 175.4219,165.375 Q176.125,165.375 176.7656,165.5313 Q177.4219,165.6719 177.9844,165.9688 L177.9844,168.6875 Q177.3438,168.1094 176.75,167.8438 Q176.1563,167.5781 175.5313,167.5781 Q174.1875,167.5781 173.5,168.6406 Q172.8125,169.7031 172.8125,171.8125 Q172.8125,173.9063 173.5,174.9844 Q174.1875,176.0469 175.5313,176.0469 Q176.1563,176.0469 176.75,175.7813 Q177.3438,175.5 177.9844,174.9219 L177.9844,177.6406 Z " fill="#000000"/><text fill="#000000" font-family="sans-serif" font-size="14" lengthAdjust="spacing" textLength="67" x="189" y="176.8467">Metadata</text><line style="stroke:#181818;stroke-width:0.5;" x1="161" x2="258" y1="188" y2="188"/><line style="stroke:#181818;stroke-width:0.5;" x1="161" x2="258" y1="196" y2="196"/></g><g id="elem_GMN6"><path d="M6,284 L6,324.2656 A0,0 0 0 0 6,324.2656 L147,324.2656 A0,0 0 0 0 147,324.2656 L147,294 L137,284 L101.36,284 L184.17,204.23 L93.36,284 L6,284 A0,0 0 0 0 6,284 " fill="#FEFFDD" style="stroke:#181818;stroke-width:0.5;"/><path d="M137,284 L137,294 L147,294 L137,284 " fill="#FEFFDD" style="stroke:#181818;stroke-width:0.5;"/><text fill="#000000" font-family="sans-serif" font-size="13" lengthAdjust="spacing" textLength="104" x="12" y="301.0669">See diagram for</text><text fill="#000000" font-family="sans-serif" font-size="13" lengthAdjust="spacing" textLength="120" x="12" y="316.1997">metadata module.</text></g><!--class MeasureData--><g id="elem_MeasureData"><rect codeLine="17" fill="#F1F1F1" height="64.2969" id="MeasureData" rx="2.5" ry="2.5" style="stroke:#181818;stroke-width:0.5;" width="246" x="346.5" y="148"/><ellipse cx="417.75" cy="164" fill="#ADD1B2" rx="11" ry="11" style="stroke:#181818;stroke-width:1.0;"/><path d="M420.7344,169.6406 Q420.1563,169.9375 419.5156,170.0781 Q418.875,170.2344 418.1719,170.2344 Q415.6563,170.2344 414.3281,168.5938 Q413.0156,166.9375 413.0156,163.8125 Q413.0156,160.6719 414.3281,159.0313 Q415.6563,157.375 418.1719,157.375 Q418.875,157.375 419.5156,157.5313 Q420.1719,157.6719 420.7344,157.9688 L420.7344,160.6875 Q420.0938,160.1094 419.5,159.8438 Q418.9063,159.5781 418.2813,159.5781 Q416.9375,159.5781 416.25,160.6406 Q415.5625,161.7031 415.5625,163.8125 Q415.5625,165.9063 416.25,166.9844 Q416.9375,168.0469 418.2813,168.0469 Q418.9063,168.0469 419.5,167.7813 Q420.0938,167.5 420.7344,166.9219 L420.7344,169.6406 Z " fill="#000000"/><text fill="#000000" font-family="sans-serif" font-size="14" lengthAdjust="spacing" textLength="95" x="438.25" y="168.8467">MeasureData</text><line style="stroke:#181818;stroke-width:0.5;" x1="347.5" x2="591.5" y1="180" y2="180"/><text fill="#000000" font-family="sans-serif" font-size="14" lengthAdjust="spacing" textLength="234" x="352.5" y="196.9951">positions : np.ndarray(dtype=int)</text><line style="stroke:#181818;stroke-width:0.5;" x1="347.5" x2="591.5" y1="204.2969" y2="204.2969"/></g><!--class MonitorData--><g id="elem_MonitorData"><rect codeLine="21" fill="#F1F1F1" height="64.2969" id="MonitorData" rx="2.5" ry="2.5" style="stroke:#181818;stroke-width:0.5;" width="271" x="628" y="148"/><ellipse cx="715.25" cy="164" fill="#ADD1B2" rx="11" ry="11" style="stroke:#181818;stroke-width:1.0;"/><path d="M718.2344,169.6406 Q717.6563,169.9375 717.0156,170.0781 Q716.375,170.2344 715.6719,170.2344 Q713.1563,170.2344 711.8281,168.5938 Q710.5156,166.9375 710.5156,163.8125 Q710.5156,160.6719 711.8281,159.0313 Q713.1563,157.375 715.6719,157.375 Q716.375,157.375 717.0156,157.5313 Q717.6719,157.6719 718.2344,157.9688 L718.2344,160.6875 Q717.5938,160.1094 717,159.8438 Q716.4063,159.5781 715.7813,159.5781 Q714.4375,159.5781 713.75,160.6406 Q713.0625,161.7031 713.0625,163.8125 Q713.0625,165.9063 713.75,166.9844 Q714.4375,168.0469 715.7813,168.0469 Q716.4063,168.0469 717,167.7813 Q717.5938,167.5 718.2344,166.9219 L718.2344,169.6406 Z " fill="#000000"/><text fill="#000000" font-family="sans-serif" font-size="14" lengthAdjust="spacing" textLength="88" x="735.75" y="168.8467">MonitorData</text><line style="stroke:#181818;stroke-width:0.5;" x1="629" x2="898" y1="180" y2="180"/><text fill="#000000" font-family="sans-serif" font-size="14" lengthAdjust="spacing" textLength="259" x="634" y="196.9951">milliseconds : np.ndarray(dtype=int)</text><line style="stroke:#181818;stroke-width:0.5;" x1="629" x2="898" y1="204.2969" y2="204.2969"/></g><!--class MotorData--><g id="elem_MotorData"><rect codeLine="25" fill="#F1F1F1" height="48" id="MotorData" rx="2.5" ry="2.5" style="stroke:#181818;stroke-width:0.5;" width="107" x="182" y="280"/><ellipse cx="197" cy="296" fill="#ADD1B2" rx="11" ry="11" style="stroke:#181818;stroke-width:1.0;"/><path d="M199.9844,301.6406 Q199.4063,301.9375 198.7656,302.0781 Q198.125,302.2344 197.4219,302.2344 Q194.9063,302.2344 193.5781,300.5938 Q192.2656,298.9375 192.2656,295.8125 Q192.2656,292.6719 193.5781,291.0313 Q194.9063,289.375 197.4219,289.375 Q198.125,289.375 198.7656,289.5313 Q199.4219,289.6719 199.9844,289.9688 L199.9844,292.6875 Q199.3438,292.1094 198.75,291.8438 Q198.1563,291.5781 197.5313,291.5781 Q196.1875,291.5781 195.5,292.6406 Q194.8125,293.7031 194.8125,295.8125 Q194.8125,297.9063 195.5,298.9844 Q196.1875,300.0469 197.5313,300.0469 Q198.1563,300.0469 198.75,299.7813 Q199.3438,299.5 199.9844,298.9219 L199.9844,301.6406 Z " fill="#000000"/><text fill="#000000" font-family="sans-serif" font-size="14" lengthAdjust="spacing" textLength="75" x="211" y="300.8467">MotorData</text><line style="stroke:#181818;stroke-width:0.5;" x1="183" x2="288" y1="312" y2="312"/><line style="stroke:#181818;stroke-width:0.5;" x1="183" x2="288" y1="320" y2="320"/></g><!--class DetectorData--><g id="elem_DetectorData"><rect codeLine="28" fill="#F1F1F1" height="48" id="DetectorData" rx="2.5" ry="2.5" style="stroke:#181818;stroke-width:0.5;" width="128" x="324.5" y="280"/><ellipse cx="339.5" cy="296" fill="#ADD1B2" rx="11" ry="11" style="stroke:#181818;stroke-width:1.0;"/><path d="M342.4844,301.6406 Q341.9063,301.9375 341.2656,302.0781 Q340.625,302.2344 339.9219,302.2344 Q337.4063,302.2344 336.0781,300.5938 Q334.7656,298.9375 334.7656,295.8125 Q334.7656,292.6719 336.0781,291.0313 Q337.4063,289.375 339.9219,289.375 Q340.625,289.375 341.2656,289.5313 Q341.9219,289.6719 342.4844,289.9688 L342.4844,292.6875 Q341.8438,292.1094 341.25,291.8438 Q340.6563,291.5781 340.0313,291.5781 Q338.6875,291.5781 338,292.6406 Q337.3125,293.7031 337.3125,295.8125 Q337.3125,297.9063 338,298.9844 Q338.6875,300.0469 340.0313,300.0469 Q340.6563,300.0469 341.25,299.7813 Q341.8438,299.5 342.4844,298.9219 L342.4844,301.6406 Z " fill="#000000"/><text fill="#000000" font-family="sans-serif" font-size="14" lengthAdjust="spacing" textLength="96" x="353.5" y="300.8467">DetectorData</text><line style="stroke:#181818;stroke-width:0.5;" x1="325.5" x2="451.5" y1="312" y2="312"/><line style="stroke:#181818;stroke-width:0.5;" x1="325.5" x2="451.5" y1="320" y2="320"/></g><!--class ExternalData--><g id="elem_ExternalData"><rect codeLine="31" fill="#F1F1F1" height="64.2969" id="ExternalData" rx="2.5" ry="2.5" style="stroke:#181818;stroke-width:0.5;" width="125" x="488" y="272"/><ellipse cx="503" cy="288" fill="#ADD1B2" rx="11" ry="11" style="stroke:#181818;stroke-width:1.0;"/><path d="M505.9844,293.6406 Q505.4063,293.9375 504.7656,294.0781 Q504.125,294.2344 503.4219,294.2344 Q500.9063,294.2344 499.5781,292.5938 Q498.2656,290.9375 498.2656,287.8125 Q498.2656,284.6719 499.5781,283.0313 Q500.9063,281.375 503.4219,281.375 Q504.125,281.375 504.7656,281.5313 Q505.4219,281.6719 505.9844,281.9688 L505.9844,284.6875 Q505.3438,284.1094 504.75,283.8438 Q504.1563,283.5781 503.5313,283.5781 Q502.1875,283.5781 501.5,284.6406 Q500.8125,285.7031 500.8125,287.8125 Q500.8125,289.9063 501.5,290.9844 Q502.1875,292.0469 503.5313,292.0469 Q504.1563,292.0469 504.75,291.7813 Q505.3438,291.5 505.9844,290.9219 L505.9844,293.6406 Z " fill="#000000"/><text fill="#000000" font-family="sans-serif" font-size="14" lengthAdjust="spacing" textLength="93" x="517" y="292.8467">ExternalData</text><line style="stroke:#181818;stroke-width:0.5;" x1="489" x2="612" y1="304" y2="304"/><text fill="#000000" font-family="sans-serif" font-size="14" lengthAdjust="spacing" textLength="99" x="494" y="320.9951">data : object[]</text><line style="stroke:#181818;stroke-width:0.5;" x1="489" x2="612" y1="328.2969" y2="328.2969"/></g><!--class TimestampData--><g id="elem_TimestampData"><rect codeLine="35" fill="#F1F1F1" height="48" id="TimestampData" rx="2.5" ry="2.5" style="stroke:#181818;stroke-width:0.5;" width="146" x="648.5" y="280"/><ellipse cx="663.5" cy="296" fill="#ADD1B2" rx="11" ry="11" style="stroke:#181818;stroke-width:1.0;"/><path d="M666.4844,301.6406 Q665.9063,301.9375 665.2656,302.0781 Q664.625,302.2344 663.9219,302.2344 Q661.4063,302.2344 660.0781,300.5938 Q658.7656,298.9375 658.7656,295.8125 Q658.7656,292.6719 660.0781,291.0313 Q661.4063,289.375 663.9219,289.375 Q664.625,289.375 665.2656,289.5313 Q665.9219,289.6719 666.4844,289.9688 L666.4844,292.6875 Q665.8438,292.1094 665.25,291.8438 Q664.6563,291.5781 664.0313,291.5781 Q662.6875,291.5781 662,292.6406 Q661.3125,293.7031 661.3125,295.8125 Q661.3125,297.9063 662,298.9844 Q662.6875,300.0469 664.0313,300.0469 Q664.6563,300.0469 665.25,299.7813 Q665.8438,299.5 666.4844,298.9219 L666.4844,301.6406 Z " fill="#000000"/><text fill="#000000" font-family="sans-serif" font-size="14" lengthAdjust="spacing" textLength="114" x="677.5" y="300.8467">TimestampData</text><line style="stroke:#181818;stroke-width:0.5;" x1="649.5" x2="793.5" y1="312" y2="312"/><line style="stroke:#181818;stroke-width:0.5;" x1="649.5" x2="793.5" y1="320" y2="320"/></g><!--class ScanModuleData--><g id="elem_ScanModuleData"><rect codeLine="38" fill="#F1F1F1" height="48" id="ScanModuleData" rx="2.5" ry="2.5" style="stroke:#181818;stroke-width:0.5;" width="153" x="830" y="280"/><ellipse cx="845" cy="296" fill="#ADD1B2" rx="11" ry="11" style="stroke:#181818;stroke-width:1.0;"/><path d="M847.9844,301.6406 Q847.4063,301.9375 846.7656,302.0781 Q846.125,302.2344 845.4219,302.2344 Q842.9063,302.2344 841.5781,300.5938 Q840.2656,298.9375 840.2656,295.8125 Q840.2656,292.6719 841.5781,291.0313 Q842.9063,289.375 845.4219,289.375 Q846.125,289.375 846.7656,289.5313 Q847.4219,289.6719 847.9844,289.9688 L847.9844,292.6875 Q847.3438,292.1094 846.75,291.8438 Q846.1563,291.5781 845.5313,291.5781 Q844.1875,291.5781 843.5,292.6406 Q842.8125,293.7031 842.8125,295.8125 Q842.8125,297.9063 843.5,298.9844 Q844.1875,300.0469 845.5313,300.0469 Q846.1563,300.0469 846.75,299.7813 Q847.3438,299.5 847.9844,298.9219 L847.9844,301.6406 Z " fill="#000000"/><text fill="#000000" font-family="sans-serif" font-size="14" lengthAdjust="spacing" textLength="121" x="859" y="300.8467">ScanModuleData</text><line style="stroke:#181818;stroke-width:0.5;" x1="831" x2="982" y1="312" y2="312"/><line style="stroke:#181818;stroke-width:0.5;" x1="831" x2="982" y1="320" y2="320"/></g><g id="elem_GMN16"><path d="M776,396 L776,542.1953 A0,0 0 0 0 776,542.1953 L1037,542.1953 A0,0 0 0 0 1037,542.1953 L1037,406 L1027,396 L910.5,396 L906.5,328.01 L902.5,396 L776,396 A0,0 0 0 0 776,396 " fill="#FEFFDD" style="stroke:#181818;stroke-width:0.5;"/><path d="M1027,396 L1027,406 L1037,406 L1027,396 " fill="#FEFFDD" style="stroke:#181818;stroke-width:0.5;"/><text fill="#000000" font-family="sans-serif" font-size="13" lengthAdjust="spacing" textLength="214" x="782" y="413.0669">The corresponding dataset in the</text><text fill="#000000" font-family="sans-serif" font-size="13" lengthAdjust="spacing" textLength="192" x="782" y="428.1997">eveH5 file does not exist yet.</text><text fill="#000000" font-family="sans-serif" font-size="13" lengthAdjust="spacing" textLength="8" x="782" y="443.3325">&#160;</text><text fill="#000000" font-family="sans-serif" font-size="13" lengthAdjust="spacing" textLength="208" x="782" y="458.4653">The idea is to store the id of the</text><text fill="#000000" font-family="sans-serif" font-size="13" lengthAdjust="spacing" textLength="240" x="782" y="473.5981">scan module for each position count.</text><text fill="#000000" font-family="sans-serif" font-size="13" lengthAdjust="spacing" textLength="8" x="782" y="488.731">&#160;</text><text fill="#000000" font-family="sans-serif" font-size="13" lengthAdjust="spacing" textLength="205" x="782" y="503.8638">Note: For the implementation it</text><text fill="#000000" font-family="sans-serif" font-size="13" lengthAdjust="spacing" textLength="216" x="782" y="518.9966">does not matter whether this is a</text><text fill="#000000" font-family="sans-serif" font-size="13" lengthAdjust="spacing" textLength="215" x="782" y="534.1294">"true" dataset on the HDF5 level.</text></g><!--class AverageDetectorData--><g id="elem_AverageDetectorData"><rect codeLine="52" fill="#F1F1F1" height="145.7813" id="AverageDetectorData" rx="2.5" ry="2.5" style="stroke:#181818;stroke-width:0.5;" width="246" x="110.5" y="396"/><ellipse cx="151.6" cy="412" fill="#ADD1B2" rx="11" ry="11" style="stroke:#181818;stroke-width:1.0;"/><path d="M154.5844,417.6406 Q154.0063,417.9375 153.3656,418.0781 Q152.725,418.2344 152.0219,418.2344 Q149.5063,418.2344 148.1781,416.5938 Q146.8656,414.9375 146.8656,411.8125 Q146.8656,408.6719 148.1781,407.0313 Q149.5063,405.375 152.0219,405.375 Q152.725,405.375 153.3656,405.5313 Q154.0219,405.6719 154.5844,405.9688 L154.5844,408.6875 Q153.9438,408.1094 153.35,407.8438 Q152.7563,407.5781 152.1313,407.5781 Q150.7875,407.5781 150.1,408.6406 Q149.4125,409.7031 149.4125,411.8125 Q149.4125,413.9063 150.1,414.9844 Q150.7875,416.0469 152.1313,416.0469 Q152.7563,416.0469 153.35,415.7813 Q153.9438,415.5 154.5844,414.9219 L154.5844,417.6406 Z " fill="#000000"/><text fill="#000000" font-family="sans-serif" font-size="14" lengthAdjust="spacing" textLength="156" x="171.4" y="416.8467">AverageDetectorData</text><line style="stroke:#181818;stroke-width:0.5;" x1="111.5" x2="355.5" y1="428" y2="428"/><text fill="#000000" font-family="sans-serif" font-size="14" lengthAdjust="spacing" textLength="181" x="116.5" y="444.9951">raw_values : raggedarray</text><text fill="#000000" font-family="sans-serif" font-size="14" lengthAdjust="spacing" textLength="234" x="116.5" y="461.292">attempts : np.ndarray(dtype=int)</text><line style="stroke:#181818;stroke-width:0.5;" x1="111.5" x2="355.5" y1="468.5938" y2="468.5938"/><text fill="#000000" font-family="sans-serif" font-size="14" lengthAdjust="spacing" textLength="51" x="116.5" y="485.5889">mean()</text><text fill="#000000" font-family="sans-serif" font-size="14" lengthAdjust="spacing" textLength="31" x="116.5" y="501.8857">std()</text><text fill="#000000" font-family="sans-serif" font-size="14" lengthAdjust="spacing" textLength="131" x="116.5" y="518.1826">averaged_values()</text><text fill="#000000" font-family="sans-serif" font-size="14" lengthAdjust="spacing" textLength="121" x="116.5" y="534.4795">has_raw_values()</text></g><g id="elem_GMN20"><path d="M23,602 L23,642.2656 A0,0 0 0 0 23,642.2656 L198,642.2656 A0,0 0 0 0 198,642.2656 L198,612 L188,602 L130.09,602 L174.52,542.4 L122.09,602 L23,602 A0,0 0 0 0 23,602 " fill="#FEFFDD" style="stroke:#181818;stroke-width:0.5;"/><path d="M188,602 L188,612 L198,612 L188,602 " fill="#FEFFDD" style="stroke:#181818;stroke-width:0.5;"/><text fill="#000000" font-family="sans-serif" font-size="13" lengthAdjust="spacing" textLength="154" x="29" y="619.0669">How does mean() differ</text><text fill="#000000" font-family="sans-serif" font-size="13" lengthAdjust="spacing" textLength="136" x="29" y="634.1997">from values in Data?</text></g><g id="elem_GMN23"><path d="M233.5,602 L233.5,642.2656 A0,0 0 0 0 233.5,642.2656 L479.5,642.2656 A0,0 0 0 0 479.5,642.2656 L479.5,612 L469.5,602 L344.91,602 L292.48,542.4 L336.91,602 L233.5,602 A0,0 0 0 0 233.5,602 " fill="#FEFFDD" style="stroke:#181818;stroke-width:0.5;"/><path d="M469.5,602 L469.5,612 L479.5,612 L469.5,602 " fill="#FEFFDD" style="stroke:#181818;stroke-width:0.5;"/><text fill="#000000" font-family="sans-serif" font-size="13" lengthAdjust="spacing" textLength="203" x="239.5" y="619.0669">averaged_values() returns only</text><text fill="#000000" font-family="sans-serif" font-size="13" lengthAdjust="spacing" textLength="225" x="239.5" y="634.1997">those values used to average over</text></g><!--class IntervalDetectorData--><g id="elem_IntervalDetectorData"><rect codeLine="63" fill="#F1F1F1" height="129.4844" id="IntervalDetectorData" rx="2.5" ry="2.5" style="stroke:#181818;stroke-width:0.5;" width="230" x="391.5" y="404.5"/><ellipse cx="428.1" cy="420.5" fill="#ADD1B2" rx="11" ry="11" style="stroke:#181818;stroke-width:1.0;"/><path d="M431.0844,426.1406 Q430.5063,426.4375 429.8656,426.5781 Q429.225,426.7344 428.5219,426.7344 Q426.0063,426.7344 424.6781,425.0938 Q423.3656,423.4375 423.3656,420.3125 Q423.3656,417.1719 424.6781,415.5313 Q426.0063,413.875 428.5219,413.875 Q429.225,413.875 429.8656,414.0313 Q430.5219,414.1719 431.0844,414.4688 L431.0844,417.1875 Q430.4438,416.6094 429.85,416.3438 Q429.2563,416.0781 428.6313,416.0781 Q427.2875,416.0781 426.6,417.1406 Q425.9125,418.2031 425.9125,420.3125 Q425.9125,422.4063 426.6,423.4844 Q427.2875,424.5469 428.6313,424.5469 Q429.2563,424.5469 429.85,424.2813 Q430.4438,424 431.0844,423.4219 L431.0844,426.1406 Z " fill="#000000"/><text fill="#000000" font-family="sans-serif" font-size="14" lengthAdjust="spacing" textLength="150" x="446.9" y="425.3467">IntervalDetectorData</text><line style="stroke:#181818;stroke-width:0.5;" x1="392.5" x2="620.5" y1="436.5" y2="436.5"/><text fill="#000000" font-family="sans-serif" font-size="14" lengthAdjust="spacing" textLength="181" x="397.5" y="453.4951">raw_values : raggedarray</text><text fill="#000000" font-family="sans-serif" font-size="14" lengthAdjust="spacing" textLength="218" x="397.5" y="469.792">counts : np.ndarray(dtype=int)</text><line style="stroke:#181818;stroke-width:0.5;" x1="392.5" x2="620.5" y1="477.0938" y2="477.0938"/><text fill="#000000" font-family="sans-serif" font-size="14" lengthAdjust="spacing" textLength="51" x="397.5" y="494.0889">mean()</text><text fill="#000000" font-family="sans-serif" font-size="14" lengthAdjust="spacing" textLength="31" x="397.5" y="510.3857">std()</text><text fill="#000000" font-family="sans-serif" font-size="14" lengthAdjust="spacing" textLength="121" x="397.5" y="526.6826">has_raw_values()</text></g><!--reverse link Data to Metadata--><g id="link_Data_Metadata"><path codeLine="71" d="M380.0642,93.3911 C335.8142,115.5911 292.87,137.16 255.45,155.94 " fill="none" id="Data-backto-Metadata" style="stroke:#181818;stroke-width:1.0;"/><polygon fill="#181818" points="390.79,88.01,383.6334,87.1253,380.0642,93.3911,387.2208,94.2758,390.79,88.01" style="stroke:#181818;stroke-width:1.0;"/></g><!--reverse link Data to MeasureData--><g id="link_Data_MeasureData"><path codeLine="72" d="M469.5,106.01 C469.5,125.21 469.5,129.96 469.5,147.91 " fill="none" id="Data-backto-MeasureData" style="stroke:#181818;stroke-width:1.0;"/><polygon fill="none" points="469.5,88.01,463.5,106.01,475.5,106.01,469.5,88.01" style="stroke:#181818;stroke-width:1.0;"/></g><!--reverse link Data to MonitorData--><g id="link_Data_MonitorData"><path codeLine="73" d="M566.6816,91.6337 C611.5516,111.5537 650.4,128.8 693.45,147.91 " fill="none" id="Data-backto-MonitorData" style="stroke:#181818;stroke-width:1.0;"/><polygon fill="none" points="550.23,84.33,564.2471,97.1176,569.1162,86.1498,550.23,84.33" style="stroke:#181818;stroke-width:1.0;"/></g><!--reverse link MeasureData to MotorData--><g id="link_MeasureData_MotorData"><path codeLine="74" d="M393.889,220.4215 C353.399,241.5315 316.7,260.66 279.9,279.85 " fill="none" id="MeasureData-backto-MotorData" style="stroke:#181818;stroke-width:1.0;"/><polygon fill="none" points="409.85,212.1,391.1152,215.1011,396.6628,225.7418,409.85,212.1" style="stroke:#181818;stroke-width:1.0;"/></g><!--reverse link MeasureData to DetectorData--><g id="link_MeasureData_DetectorData"><path codeLine="75" d="M438.8934,227.0955 C424.9234,248.1355 416.73,260.48 404,279.66 " fill="none" id="MeasureData-backto-DetectorData" style="stroke:#181818;stroke-width:1.0;"/><polygon fill="none" points="448.85,212.1,433.8949,223.7766,443.8919,230.4144,448.85,212.1" style="stroke:#181818;stroke-width:1.0;"/></g><!--reverse link MeasureData to ExternalData--><g id="link_MeasureData_ExternalData"><path codeLine="76" d="M500.1063,227.0957 C512.2963,245.4557 517.71,253.61 529.89,271.96 " fill="none" id="MeasureData-backto-ExternalData" style="stroke:#181818;stroke-width:1.0;"/><polygon fill="none" points="490.15,212.1,495.1077,230.4145,505.1049,223.777,490.15,212.1" style="stroke:#181818;stroke-width:1.0;"/></g><!--reverse link MeasureData to TimestampData--><g id="link_MeasureData_TimestampData"><path codeLine="77" d="M549.9409,219.9441 C593.5409,241.0541 634.05,260.66 673.69,279.85 " fill="none" id="MeasureData-backto-TimestampData" style="stroke:#181818;stroke-width:1.0;"/><polygon fill="none" points="533.74,212.1,547.3262,225.3444,552.5556,214.5438,533.74,212.1" style="stroke:#181818;stroke-width:1.0;"/></g><!--reverse link MeasureData to ScanModuleData--><g id="link_MeasureData_ScanModuleData"><path codeLine="78" d="M610.062,216.2663 C675.612,233.1363 740.01,250.45 812.5,272 C820.82,274.47 829.51,277.18 838.11,279.92 " fill="none" id="MeasureData-backto-ScanModuleData" style="stroke:#181818;stroke-width:1.0;"/><polygon fill="none" points="592.63,211.78,608.5665,222.077,611.5574,210.4557,592.63,211.78" style="stroke:#181818;stroke-width:1.0;"/></g><!--reverse link DetectorData to AverageDetectorData--><g id="link_DetectorData_AverageDetectorData"><path codeLine="79" d="M354.2125,341.0504 C337.3525,358.7704 325.49,371.26 302.27,395.68 " fill="none" id="DetectorData-backto-AverageDetectorData" style="stroke:#181818;stroke-width:1.0;"/><polygon fill="none" points="366.62,328.01,349.8656,336.9146,358.5593,345.1863,366.62,328.01" style="stroke:#181818;stroke-width:1.0;"/></g><!--reverse link DetectorData to IntervalDetectorData--><g id="link_DetectorData_IntervalDetectorData"><path codeLine="80" d="M415.7125,342.5923 C430.0625,362.4223 440.94,377.44 460.4,404.32 " fill="none" id="DetectorData-backto-IntervalDetectorData" style="stroke:#181818;stroke-width:1.0;"/><polygon fill="none" points="405.16,328.01,410.8517,346.1098,420.5733,339.0748,405.16,328.01" style="stroke:#181818;stroke-width:1.0;"/></g><!--SRC=[dLHDRzim3BtxLn2vB1tGO3taOcme1cH5TkWkxMqT2ZQYOssMP4Xqsg3hVnyjVpSki2q848Ma7ib7FhqBlxGjqQC1LMguM7z8abs18S066U4v0VaOObJrtnIkssEq7x2eA8ZLbYkhq7iy9Y-9TKnGKCRWieYIfarWlBDepWlOESkeRG24Ymt4owiOSUKyQAlqGQiAYov98095NXz8GIomnVjy88zxsX3JZfsFLQDLyDKoURaxTYGaZhgyhiUk6-cphVl1CJkJmasTJkE-9YPp_ixs71Ydge9M0mI6ojE8hUTCKw5Ue7H1itPsIj1IyR6aJzhocUJiG9pLNV5J4AEBGWSIijHVuGmelN52pSZ-vKaOiiBGaBKTidluAJU-_nXYRxMXm6ZAro0tExJNaP7D38yHz3Od6RRt54hfGjjzJ1E8PSh0ESKWEj1s3PakX7OdunOGe2ST68x4GdO7f1KXw03i84XFL0E8iLwr3Yf8IUsKwj41uIxlXo6LLBO3_2QLfd7V8eef2p8aMna3DJUKTDKOPE4B7dEIuFg6L27VHWaBzXKj-iPSR0oscwkrAE50nUfazURsjXc2nyVxNbaIiwTMMkEzg8in9R-z4urkqIwROs3Ldh19hDeShJN7S3yaNfwzriFMFJPKD9YYZImZaKNcdUaaAkEisxWStwm7CzDgUbe6UEBAYrgSBOvtbdCNg4EkWgXUHjvU0YU_7P5pGlyN9kD2_0UFCumbCVVxy_FXcOoMZx-ZgNyenjP1-SduAMcTRxecpzg9TopjK-z4pAVkgQIJ2QynO6QUCr6p3_0V]--></g></svg>