<?xml version="1.0" encoding="us-ascii" standalone="no"?><svg xmlns="http://www.w3.org/2000/svg" xmlns:xlink="http://www.w3.org/1999/xlink" contentStyleType="text/css" height="1131px" preserveAspectRatio="none" style="width:1507px;height:1131px;background:#FFFFFF;" version="1.1" viewBox="0 0 1507 1131" width="1507px" zoomAndPan="magnify"><defs/><g><!--class Data--><g id="elem_Data"><rect codeLine="3" fill="#F1F1F1" height="113.625" id="Data" rx="2.5" ry="2.5" style="stroke:#181818;stroke-width:0.5;" width="164" x="730" y="35"/><ellipse cx="792.75" cy="51" fill="#ADD1B2" rx="11" ry="11" style="stroke:#181818;stroke-width:1.0;"/><path d="M792.7969,57.2031 C794.2969,57.2031 795.5313,56.6406 796.4375,55.5781 L795.0625,54.0625 C794.5156,54.6563 793.8594,55.0469 793.0625,55.0469 C791.3906,55.0469 790.2344,53.7188 790.2344,51.4375 C790.2344,49.2188 791.3906,47.875 792.9531,47.875 C793.7656,47.875 794.3594,48.1875 794.8906,48.6719 L796.2656,47.125 C795.5156,46.3906 794.3594,45.7188 792.9531,45.7188 C790,45.7188 787.6719,47.8594 787.6719,51.5313 C787.6719,55.25 790.0469,57.2031 792.7969,57.2031 Z " fill="#000000"/><text fill="#000000" font-family="sans-serif" font-size="14" lengthAdjust="spacing" textLength="30" x="813.25" y="55.7852">Data</text><line style="stroke:#181818;stroke-width:0.5;" x1="731" x2="893" y1="67" y2="67"/><text fill="#000000" font-family="sans-serif" font-size="14" lengthAdjust="spacing" textLength="131" x="736" y="83.9883">metadata : Metadata</text><text fill="#000000" font-family="sans-serif" font-size="14" lengthAdjust="spacing" textLength="113" x="736" y="100.3945">_data : np.ndarray</text><text fill="#000000" font-family="sans-serif" font-size="14" lengthAdjust="spacing" textLength="152" x="736" y="116.8008">_importer : DataImporter</text><line style="stroke:#181818;stroke-width:0.5;" x1="731" x2="893" y1="124.2188" y2="124.2188"/><text fill="#000000" font-family="sans-serif" font-size="14" lengthAdjust="spacing" textLength="39" x="736" y="141.207">data()</text></g><path d="M329.5,6 L329.5,168.3438 A0,0 0 0 0 329.5,168.3438 L694.5,168.3438 A0,0 0 0 0 694.5,168.3438 L694.5,91.1719 L734,95.6094 L694.5,83.1719 L694.5,16 L684.5,6 L329.5,6 A0,0 0 0 0 329.5,6 " fill="#FEFFDD" style="stroke:#181818;stroke-width:0.5;"/><path d="M684.5,6 L684.5,16 L694.5,16 L684.5,6 " fill="#FEFFDD" style="stroke:#181818;stroke-width:0.5;"/><text fill="#000000" font-family="sans-serif" font-size="13" lengthAdjust="spacing" textLength="290" x="335.5" y="23.0605">"_data" usually contains a 1D array and is accessed</text><text fill="#000000" font-family="sans-serif" font-size="13" lengthAdjust="spacing" textLength="281" x="335.5" y="38.2949">via the data() getter method (Python property) that</text><text fill="#000000" font-family="sans-serif" font-size="13" lengthAdjust="spacing" textLength="290" x="335.5" y="53.5293">calls the DataImporter on first access if necessary.</text><text fill="#000000" font-family="sans-serif" font-size="13" lengthAdjust="spacing" textLength="3" x="335.5" y="68.7637">&#160;</text><text fill="#000000" font-family="sans-serif" font-size="13" lengthAdjust="spacing" textLength="278" x="335.5" y="83.998">For individual channel values see derived classes</text><text fill="#000000" font-family="sans-serif" font-size="13" lengthAdjust="spacing" textLength="264" x="335.5" y="99.2324">AverageChannelData and IntervalChannelData.</text><text fill="#000000" font-family="sans-serif" font-size="13" lengthAdjust="spacing" textLength="3" x="335.5" y="114.4668">&#160;</text><text fill="#000000" font-family="sans-serif" font-size="13" lengthAdjust="spacing" textLength="312" x="335.5" y="129.7012">ArrayChannelData and AreaChannelData are somewhat</text><text fill="#000000" font-family="sans-serif" font-size="13" lengthAdjust="spacing" textLength="344" x="335.5" y="144.9355">special as they contain either 2D data or a list of data objects</text><text fill="#000000" font-family="sans-serif" font-size="13" lengthAdjust="spacing" textLength="167" x="335.5" y="160.1699">(in case of images and alike).</text><!--class DataImporter--><g id="elem_DataImporter"><rect codeLine="22" fill="#F1F1F1" height="80.8125" id="DataImporter" rx="2.5" ry="2.5" style="stroke:#181818;stroke-width:0.5;" width="116" x="929" y="51.5"/><ellipse cx="944" cy="67.5" fill="#ADD1B2" rx="11" ry="11" style="stroke:#181818;stroke-width:1.0;"/><path d="M944.0469,73.7031 C945.5469,73.7031 946.7813,73.1406 947.6875,72.0781 L946.3125,70.5625 C945.7656,71.1563 945.1094,71.5469 944.3125,71.5469 C942.6406,71.5469 941.4844,70.2188 941.4844,67.9375 C941.4844,65.7188 942.6406,64.375 944.2031,64.375 C945.0156,64.375 945.6094,64.6875 946.1406,65.1719 L947.5156,63.625 C946.7656,62.8906 945.6094,62.2188 944.2031,62.2188 C941.25,62.2188 938.9219,64.3594 938.9219,68.0313 C938.9219,71.75 941.2969,73.7031 944.0469,73.7031 Z " fill="#000000"/><text fill="#000000" font-family="sans-serif" font-size="14" lengthAdjust="spacing" textLength="84" x="958" y="72.2852">DataImporter</text><line style="stroke:#181818;stroke-width:0.5;" x1="930" x2="1044" y1="83.5" y2="83.5"/><text fill="#000000" font-family="sans-serif" font-size="14" lengthAdjust="spacing" textLength="42" x="935" y="100.4883">source</text><line style="stroke:#181818;stroke-width:0.5;" x1="930" x2="1044" y1="107.9063" y2="107.9063"/><text fill="#000000" font-family="sans-serif" font-size="14" lengthAdjust="spacing" textLength="51" x="935" y="124.8945">import()</text></g><!--class Metadata--><g id="elem_Metadata"><rect codeLine="27" fill="#F1F1F1" height="48" id="Metadata" rx="2.5" ry="2.5" style="stroke:#181818;stroke-width:0.5;" width="93" x="417.5" y="246"/><ellipse cx="432.5" cy="262" fill="#ADD1B2" rx="11" ry="11" style="stroke:#181818;stroke-width:1.0;"/><path d="M432.5469,268.2031 C434.0469,268.2031 435.2813,267.6406 436.1875,266.5781 L434.8125,265.0625 C434.2656,265.6563 433.6094,266.0469 432.8125,266.0469 C431.1406,266.0469 429.9844,264.7188 429.9844,262.4375 C429.9844,260.2188 431.1406,258.875 432.7031,258.875 C433.5156,258.875 434.1094,259.1875 434.6406,259.6719 L436.0156,258.125 C435.2656,257.3906 434.1094,256.7188 432.7031,256.7188 C429.75,256.7188 427.4219,258.8594 427.4219,262.5313 C427.4219,266.25 429.7969,268.2031 432.5469,268.2031 Z " fill="#000000"/><text fill="#000000" font-family="sans-serif" font-size="14" lengthAdjust="spacing" textLength="61" x="446.5" y="266.7852">Metadata</text><line style="stroke:#181818;stroke-width:0.5;" x1="418.5" x2="509.5" y1="278" y2="278"/><line style="stroke:#181818;stroke-width:0.5;" x1="418.5" x2="509.5" y1="286" y2="286"/></g><g id="elem_GMN7"><path d="M545.5,250 L545.5,266 L510.64,270 L545.5,274 L545.5,290.4688 A0,0 0 0 0 545.5,290.4688 L668.5,290.4688 A0,0 0 0 0 668.5,290.4688 L668.5,260 L658.5,250 L545.5,250 A0,0 0 0 0 545.5,250 " fill="#FEFFDD" style="stroke:#181818;stroke-width:0.5;"/><path d="M658.5,250 L658.5,260 L668.5,260 L658.5,250 " fill="#FEFFDD" style="stroke:#181818;stroke-width:0.5;"/><text fill="#000000" font-family="sans-serif" font-size="13" lengthAdjust="spacing" textLength="90" x="551.5" y="267.0605">See diagram for</text><text fill="#000000" font-family="sans-serif" font-size="13" lengthAdjust="spacing" textLength="102" x="551.5" y="282.2949">metadata module.</text></g><!--class MeasureData--><g id="elem_MeasureData"><rect codeLine="34" fill="#F1F1F1" height="64.4063" id="MeasureData" rx="2.5" ry="2.5" style="stroke:#181818;stroke-width:0.5;" width="216" x="704" y="238"/><ellipse cx="765.75" cy="254" fill="#ADD1B2" rx="11" ry="11" style="stroke:#181818;stroke-width:1.0;"/><path d="M765.7969,260.2031 C767.2969,260.2031 768.5313,259.6406 769.4375,258.5781 L768.0625,257.0625 C767.5156,257.6563 766.8594,258.0469 766.0625,258.0469 C764.3906,258.0469 763.2344,256.7188 763.2344,254.4375 C763.2344,252.2188 764.3906,250.875 765.9531,250.875 C766.7656,250.875 767.3594,251.1875 767.8906,251.6719 L769.2656,250.125 C768.5156,249.3906 767.3594,248.7188 765.9531,248.7188 C763,248.7188 760.6719,250.8594 760.6719,254.5313 C760.6719,258.25 763.0469,260.2031 765.7969,260.2031 Z " fill="#000000"/><text fill="#000000" font-family="sans-serif" font-size="14" lengthAdjust="spacing" textLength="84" x="786.25" y="258.7852">MeasureData</text><line style="stroke:#181818;stroke-width:0.5;" x1="705" x2="919" y1="270" y2="270"/><text fill="#000000" font-family="sans-serif" font-size="14" lengthAdjust="spacing" textLength="204" x="710" y="286.9883">positions : np.ndarray(dtype=int)</text><line style="stroke:#181818;stroke-width:0.5;" x1="705" x2="919" y1="294.4063" y2="294.4063"/></g><!--class MonitorData--><g id="elem_MonitorData"><rect codeLine="38" fill="#F1F1F1" height="64.4063" id="MonitorData" rx="2.5" ry="2.5" style="stroke:#181818;stroke-width:0.5;" width="235" x="955.5" y="238"/><ellipse cx="1029.25" cy="254" fill="#ADD1B2" rx="11" ry="11" style="stroke:#181818;stroke-width:1.0;"/><path d="M1029.2969,260.2031 C1030.7969,260.2031 1032.0313,259.6406 1032.9375,258.5781 L1031.5625,257.0625 C1031.0156,257.6563 1030.3594,258.0469 1029.5625,258.0469 C1027.8906,258.0469 1026.7344,256.7188 1026.7344,254.4375 C1026.7344,252.2188 1027.8906,250.875 1029.4531,250.875 C1030.2656,250.875 1030.8594,251.1875 1031.3906,251.6719 L1032.7656,250.125 C1032.0156,249.3906 1030.8594,248.7188 1029.4531,248.7188 C1026.5,248.7188 1024.1719,250.8594 1024.1719,254.5313 C1024.1719,258.25 1026.5469,260.2031 1029.2969,260.2031 Z " fill="#000000"/><text fill="#000000" font-family="sans-serif" font-size="14" lengthAdjust="spacing" textLength="79" x="1049.75" y="258.7852">MonitorData</text><line style="stroke:#181818;stroke-width:0.5;" x1="956.5" x2="1189.5" y1="270" y2="270"/><text fill="#000000" font-family="sans-serif" font-size="14" lengthAdjust="spacing" textLength="223" x="961.5" y="286.9883">milliseconds : np.ndarray(dtype=int)</text><line style="stroke:#181818;stroke-width:0.5;" x1="956.5" x2="1189.5" y1="294.4063" y2="294.4063"/></g><!--class DeviceData--><g id="elem_DeviceData"><rect codeLine="42" fill="#F1F1F1" height="48" id="DeviceData" rx="2.5" ry="2.5" style="stroke:#181818;stroke-width:0.5;" width="102" x="689" y="386.5"/><ellipse cx="704" cy="402.5" fill="#ADD1B2" rx="11" ry="11" style="stroke:#181818;stroke-width:1.0;"/><path d="M704.0469,408.7031 C705.5469,408.7031 706.7813,408.1406 707.6875,407.0781 L706.3125,405.5625 C705.7656,406.1563 705.1094,406.5469 704.3125,406.5469 C702.6406,406.5469 701.4844,405.2188 701.4844,402.9375 C701.4844,400.7188 702.6406,399.375 704.2031,399.375 C705.0156,399.375 705.6094,399.6875 706.1406,400.1719 L707.5156,398.625 C706.7656,397.8906 705.6094,397.2188 704.2031,397.2188 C701.25,397.2188 698.9219,399.3594 698.9219,403.0313 C698.9219,406.75 701.2969,408.7031 704.0469,408.7031 Z " fill="#000000"/><text fill="#000000" font-family="sans-serif" font-size="14" lengthAdjust="spacing" textLength="70" x="718" y="407.2852">DeviceData</text><line style="stroke:#181818;stroke-width:0.5;" x1="690" x2="790" y1="418.5" y2="418.5"/><line style="stroke:#181818;stroke-width:0.5;" x1="690" x2="790" y1="426.5" y2="426.5"/></g><!--class AxisData--><g id="elem_AxisData"><rect codeLine="44" fill="#F1F1F1" height="97.2188" id="AxisData" rx="2.5" ry="2.5" style="stroke:#181818;stroke-width:0.5;" width="88" x="258" y="362"/><ellipse cx="273" cy="378" fill="#ADD1B2" rx="11" ry="11" style="stroke:#181818;stroke-width:1.0;"/><path d="M273.0469,384.2031 C274.5469,384.2031 275.7813,383.6406 276.6875,382.5781 L275.3125,381.0625 C274.7656,381.6563 274.1094,382.0469 273.3125,382.0469 C271.6406,382.0469 270.4844,380.7188 270.4844,378.4375 C270.4844,376.2188 271.6406,374.875 273.2031,374.875 C274.0156,374.875 274.6094,375.1875 275.1406,375.6719 L276.5156,374.125 C275.7656,373.3906 274.6094,372.7188 273.2031,372.7188 C270.25,372.7188 267.9219,374.8594 267.9219,378.5313 C267.9219,382.25 270.2969,384.2031 273.0469,384.2031 Z " fill="#000000"/><text fill="#000000" font-family="sans-serif" font-size="14" lengthAdjust="spacing" textLength="56" x="287" y="382.7852">AxisData</text><line style="stroke:#181818;stroke-width:0.5;" x1="259" x2="345" y1="394" y2="394"/><text fill="#000000" font-family="sans-serif" font-size="14" lengthAdjust="spacing" textLength="65" x="264" y="410.9883">set_values</text><text fill="#000000" font-family="sans-serif" font-size="14" lengthAdjust="spacing" textLength="70" x="264" y="427.3945">_filled_data</text><line style="stroke:#181818;stroke-width:0.5;" x1="259" x2="345" y1="434.8125" y2="434.8125"/><text fill="#000000" font-family="sans-serif" font-size="14" lengthAdjust="spacing" textLength="74" x="264" y="451.8008">filled_data()</text></g><g id="elem_GMN20"><path d="M381.5,375 L381.5,406.5 L346.14,410.5 L381.5,414.5 L381.5,445.9375 A0,0 0 0 0 381.5,445.9375 L622.5,445.9375 A0,0 0 0 0 622.5,445.9375 L622.5,385 L612.5,375 L381.5,375 A0,0 0 0 0 381.5,375 " fill="#FEFFDD" style="stroke:#181818;stroke-width:0.5;"/><path d="M612.5,375 L612.5,385 L622.5,385 L612.5,375 " fill="#FEFFDD" style="stroke:#181818;stroke-width:0.5;"/><text fill="#000000" font-family="sans-serif" font-size="13" lengthAdjust="spacing" textLength="179" x="387.5" y="392.0605">Data are filled depending on the</text><text fill="#000000" font-family="sans-serif" font-size="13" lengthAdjust="spacing" textLength="211" x="387.5" y="407.2949">ChannelData they are plotted against.</text><text fill="#000000" font-family="sans-serif" font-size="13" lengthAdjust="spacing" textLength="220" x="387.5" y="422.5293">Hence for different channels, generally</text><text fill="#000000" font-family="sans-serif" font-size="13" lengthAdjust="spacing" textLength="163" x="387.5" y="437.7637">different filled data will exist.</text></g><!--class EncoderAxisData--><g id="elem_EncoderAxisData"><rect codeLine="56" fill="#F1F1F1" height="64.4063" id="EncoderAxisData" rx="2.5" ry="2.5" style="stroke:#181818;stroke-width:0.5;" width="139" x="170.5" y="576.5"/><ellipse cx="185.5" cy="592.5" fill="#ADD1B2" rx="11" ry="11" style="stroke:#181818;stroke-width:1.0;"/><path d="M185.5469,598.7031 C187.0469,598.7031 188.2813,598.1406 189.1875,597.0781 L187.8125,595.5625 C187.2656,596.1563 186.6094,596.5469 185.8125,596.5469 C184.1406,596.5469 182.9844,595.2188 182.9844,592.9375 C182.9844,590.7188 184.1406,589.375 185.7031,589.375 C186.5156,589.375 187.1094,589.6875 187.6406,590.1719 L189.0156,588.625 C188.2656,587.8906 187.1094,587.2188 185.7031,587.2188 C182.75,587.2188 180.4219,589.3594 180.4219,593.0313 C180.4219,596.75 182.7969,598.7031 185.5469,598.7031 Z " fill="#000000"/><text fill="#000000" font-family="sans-serif" font-size="14" lengthAdjust="spacing" textLength="107" x="199.5" y="597.2852">EncoderAxisData</text><line style="stroke:#181818;stroke-width:0.5;" x1="171.5" x2="308.5" y1="608.5" y2="608.5"/><text fill="#000000" font-family="sans-serif" font-size="14" lengthAdjust="spacing" textLength="110" x="176.5" y="625.4883">read_back_values</text><line style="stroke:#181818;stroke-width:0.5;" x1="171.5" x2="308.5" y1="632.9063" y2="632.9063"/></g><!--class ChannelData--><g id="elem_ChannelData"><rect codeLine="60" fill="#F1F1F1" height="48" id="ChannelData" rx="2.5" ry="2.5" style="stroke:#181818;stroke-width:0.5;" width="113" x="826.5" y="386.5"/><ellipse cx="841.5" cy="402.5" fill="#ADD1B2" rx="11" ry="11" style="stroke:#181818;stroke-width:1.0;"/><path d="M841.5469,408.7031 C843.0469,408.7031 844.2813,408.1406 845.1875,407.0781 L843.8125,405.5625 C843.2656,406.1563 842.6094,406.5469 841.8125,406.5469 C840.1406,406.5469 838.9844,405.2188 838.9844,402.9375 C838.9844,400.7188 840.1406,399.375 841.7031,399.375 C842.5156,399.375 843.1094,399.6875 843.6406,400.1719 L845.0156,398.625 C844.2656,397.8906 843.1094,397.2188 841.7031,397.2188 C838.75,397.2188 836.4219,399.3594 836.4219,403.0313 C836.4219,406.75 838.7969,408.7031 841.5469,408.7031 Z " fill="#000000"/><text fill="#000000" font-family="sans-serif" font-size="14" lengthAdjust="spacing" textLength="81" x="855.5" y="407.2852">ChannelData</text><line style="stroke:#181818;stroke-width:0.5;" x1="827.5" x2="938.5" y1="418.5" y2="418.5"/><line style="stroke:#181818;stroke-width:0.5;" x1="827.5" x2="938.5" y1="426.5" y2="426.5"/></g><!--class TimestampData--><g id="elem_TimestampData"><rect codeLine="63" fill="#F1F1F1" height="97.2188" id="TimestampData" rx="2.5" ry="2.5" style="stroke:#181818;stroke-width:0.5;" width="253" x="974.5" y="362"/><ellipse cx="1046.75" cy="378" fill="#ADD1B2" rx="11" ry="11" style="stroke:#181818;stroke-width:1.0;"/><path d="M1046.7969,384.2031 C1048.2969,384.2031 1049.5313,383.6406 1050.4375,382.5781 L1049.0625,381.0625 C1048.5156,381.6563 1047.8594,382.0469 1047.0625,382.0469 C1045.3906,382.0469 1044.2344,380.7188 1044.2344,378.4375 C1044.2344,376.2188 1045.3906,374.875 1046.9531,374.875 C1047.7656,374.875 1048.3594,375.1875 1048.8906,375.6719 L1050.2656,374.125 C1049.5156,373.3906 1048.3594,372.7188 1046.9531,372.7188 C1044,372.7188 1041.6719,374.8594 1041.6719,378.5313 C1041.6719,382.25 1044.0469,384.2031 1046.7969,384.2031 Z " fill="#000000"/><text fill="#000000" font-family="sans-serif" font-size="14" lengthAdjust="spacing" textLength="100" x="1067.25" y="382.7852">TimestampData</text><line style="stroke:#181818;stroke-width:0.5;" x1="975.5" x2="1226.5" y1="394" y2="394"/><text fill="#000000" font-family="sans-serif" font-size="14" lengthAdjust="spacing" textLength="241" x="980.5" y="410.9883">_first_positions : np.ndarray(dtype=int)</text><text fill="#000000" font-family="sans-serif" font-size="14" lengthAdjust="spacing" textLength="239" x="980.5" y="427.3945">_last_positions : np.ndarray(dtype=int)</text><line style="stroke:#181818;stroke-width:0.5;" x1="975.5" x2="1226.5" y1="434.8125" y2="434.8125"/><text fill="#000000" font-family="sans-serif" font-size="14" lengthAdjust="spacing" textLength="225" x="980.5" y="451.8008">get_position(timestamp, mode=last)</text></g><!--class SinglePointChannelData--><g id="elem_SinglePointChannelData"><rect codeLine="69" fill="#F1F1F1" height="48" id="SinglePointChannelData" rx="2.5" ry="2.5" style="stroke:#181818;stroke-width:0.5;" width="183" x="344.5" y="584.5"/><ellipse cx="359.5" cy="600.5" fill="#ADD1B2" rx="11" ry="11" style="stroke:#181818;stroke-width:1.0;"/><path d="M359.5469,606.7031 C361.0469,606.7031 362.2813,606.1406 363.1875,605.0781 L361.8125,603.5625 C361.2656,604.1563 360.6094,604.5469 359.8125,604.5469 C358.1406,604.5469 356.9844,603.2188 356.9844,600.9375 C356.9844,598.7188 358.1406,597.375 359.7031,597.375 C360.5156,597.375 361.1094,597.6875 361.6406,598.1719 L363.0156,596.625 C362.2656,595.8906 361.1094,595.2188 359.7031,595.2188 C356.75,595.2188 354.4219,597.3594 354.4219,601.0313 C354.4219,604.75 356.7969,606.7031 359.5469,606.7031 Z " fill="#000000"/><text fill="#000000" font-family="sans-serif" font-size="14" lengthAdjust="spacing" textLength="151" x="373.5" y="605.2852">SinglePointChannelData</text><line style="stroke:#181818;stroke-width:0.5;" x1="345.5" x2="526.5" y1="616.5" y2="616.5"/><line style="stroke:#181818;stroke-width:0.5;" x1="345.5" x2="526.5" y1="624.5" y2="624.5"/></g><!--class SinglePointNormalizedChannelData--><g id="elem_SinglePointNormalizedChannelData"><rect codeLine="71" fill="#F1F1F1" height="80.8125" id="SinglePointNormalizedChannelData" rx="2.5" ry="2.5" style="stroke:#181818;stroke-width:0.5;" width="254" x="7" y="774.5"/><ellipse cx="22" cy="790.5" fill="#ADD1B2" rx="11" ry="11" style="stroke:#181818;stroke-width:1.0;"/><path d="M22.0469,796.7031 C23.5469,796.7031 24.7813,796.1406 25.6875,795.0781 L24.3125,793.5625 C23.7656,794.1563 23.1094,794.5469 22.3125,794.5469 C20.6406,794.5469 19.4844,793.2188 19.4844,790.9375 C19.4844,788.7188 20.6406,787.375 22.2031,787.375 C23.0156,787.375 23.6094,787.6875 24.1406,788.1719 L25.5156,786.625 C24.7656,785.8906 23.6094,785.2188 22.2031,785.2188 C19.25,785.2188 16.9219,787.3594 16.9219,791.0313 C16.9219,794.75 19.2969,796.7031 22.0469,796.7031 Z " fill="#000000"/><text fill="#000000" font-family="sans-serif" font-size="14" lengthAdjust="spacing" textLength="222" x="36" y="795.2852">SinglePointNormalizedChannelData</text><line style="stroke:#181818;stroke-width:0.5;" x1="8" x2="260" y1="806.5" y2="806.5"/><text fill="#000000" font-family="sans-serif" font-size="14" lengthAdjust="spacing" textLength="182" x="13" y="823.4883">normalized_data : np.ndarray</text><text fill="#000000" font-family="sans-serif" font-size="14" lengthAdjust="spacing" textLength="186" x="13" y="839.8945">normalizing_data : np.ndarray</text><line style="stroke:#181818;stroke-width:0.5;" x1="8" x2="260" y1="847.3125" y2="847.3125"/></g><!--class AverageChannelData--><g id="elem_AverageChannelData"><rect codeLine="76" fill="#F1F1F1" height="179.25" id="AverageChannelData" rx="2.5" ry="2.5" style="stroke:#181818;stroke-width:0.5;" width="216" x="563" y="519"/><ellipse cx="601.4" cy="535" fill="#ADD1B2" rx="11" ry="11" style="stroke:#181818;stroke-width:1.0;"/><path d="M601.4469,541.2031 C602.9469,541.2031 604.1813,540.6406 605.0875,539.5781 L603.7125,538.0625 C603.1656,538.6563 602.5094,539.0469 601.7125,539.0469 C600.0406,539.0469 598.8844,537.7188 598.8844,535.4375 C598.8844,533.2188 600.0406,531.875 601.6031,531.875 C602.4156,531.875 603.0094,532.1875 603.5406,532.6719 L604.9156,531.125 C604.1656,530.3906 603.0094,529.7188 601.6031,529.7188 C598.65,529.7188 596.3219,531.8594 596.3219,535.5313 C596.3219,539.25 598.6969,541.2031 601.4469,541.2031 Z " fill="#000000"/><text fill="#000000" font-family="sans-serif" font-size="14" lengthAdjust="spacing" textLength="132" x="620.6" y="539.7852">AverageChannelData</text><line style="stroke:#181818;stroke-width:0.5;" x1="564" x2="778" y1="551" y2="551"/><text fill="#000000" font-family="sans-serif" font-size="14" lengthAdjust="spacing" textLength="145" x="569" y="567.9883">raw_data : raggedarray</text><text fill="#000000" font-family="sans-serif" font-size="14" lengthAdjust="spacing" textLength="204" x="569" y="584.3945">attempts : np.ndarray(dtype=int)</text><text fill="#000000" font-family="sans-serif" font-size="14" lengthAdjust="spacing" textLength="119" x="569" y="600.8008">_mean : np.ndarray</text><text fill="#000000" font-family="sans-serif" font-size="14" lengthAdjust="spacing" textLength="104" x="569" y="617.207">_std : np.ndarray</text><line style="stroke:#181818;stroke-width:0.5;" x1="564" x2="778" y1="624.625" y2="624.625"/><text fill="#000000" font-family="sans-serif" font-size="14" lengthAdjust="spacing" textLength="45" x="569" y="641.6133">mean()</text><text fill="#000000" font-family="sans-serif" font-size="14" lengthAdjust="spacing" textLength="30" x="569" y="658.0195">std()</text><text fill="#000000" font-family="sans-serif" font-size="14" lengthAdjust="spacing" textLength="103" x="569" y="674.4258">averaged_data()</text><text fill="#000000" font-family="sans-serif" font-size="14" lengthAdjust="spacing" textLength="98" x="569" y="690.832">has_raw_data()</text></g><g id="elem_GMN35"><path d="M296,772 L296,858.1719 A0,0 0 0 0 296,858.1719 L512,858.1719 A0,0 0 0 0 512,858.1719 L512,782 L502,772 L462.88,772 L562.79,692.38 L454.88,772 L296,772 A0,0 0 0 0 296,772 " fill="#FEFFDD" style="stroke:#181818;stroke-width:0.5;"/><path d="M502,772 L502,782 L512,782 L502,772 " fill="#FEFFDD" style="stroke:#181818;stroke-width:0.5;"/><text fill="#000000" font-family="sans-serif" font-size="13" lengthAdjust="spacing" textLength="173" x="302" y="789.0605">averaged_values() returns only</text><text fill="#000000" font-family="sans-serif" font-size="13" lengthAdjust="spacing" textLength="195" x="302" y="804.2949">those values used to average over.</text><text fill="#000000" font-family="sans-serif" font-size="13" lengthAdjust="spacing" textLength="3" x="302" y="819.5293">&#160;</text><text fill="#000000" font-family="sans-serif" font-size="13" lengthAdjust="spacing" textLength="135" x="302" y="834.7637">How does mean() differ</text><text fill="#000000" font-family="sans-serif" font-size="13" lengthAdjust="spacing" textLength="116" x="302" y="849.998">from values in Data?</text></g><!--class AverageNormalizedChannelData--><g id="elem_AverageNormalizedChannelData"><rect codeLine="94" fill="#F1F1F1" height="80.8125" id="AverageNormalizedChannelData" rx="2.5" ry="2.5" style="stroke:#181818;stroke-width:0.5;" width="235" x="547.5" y="774.5"/><ellipse cx="562.5" cy="790.5" fill="#ADD1B2" rx="11" ry="11" style="stroke:#181818;stroke-width:1.0;"/><path d="M562.5469,796.7031 C564.0469,796.7031 565.2813,796.1406 566.1875,795.0781 L564.8125,793.5625 C564.2656,794.1563 563.6094,794.5469 562.8125,794.5469 C561.1406,794.5469 559.9844,793.2188 559.9844,790.9375 C559.9844,788.7188 561.1406,787.375 562.7031,787.375 C563.5156,787.375 564.1094,787.6875 564.6406,788.1719 L566.0156,786.625 C565.2656,785.8906 564.1094,785.2188 562.7031,785.2188 C559.75,785.2188 557.4219,787.3594 557.4219,791.0313 C557.4219,794.75 559.7969,796.7031 562.5469,796.7031 Z " fill="#000000"/><text fill="#000000" font-family="sans-serif" font-size="14" lengthAdjust="spacing" textLength="203" x="576.5" y="795.2852">AverageNormalizedChannelData</text><line style="stroke:#181818;stroke-width:0.5;" x1="548.5" x2="781.5" y1="806.5" y2="806.5"/><text fill="#000000" font-family="sans-serif" font-size="14" lengthAdjust="spacing" textLength="190" x="553.5" y="823.4883">normalized_data : raggedarray</text><text fill="#000000" font-family="sans-serif" font-size="14" lengthAdjust="spacing" textLength="194" x="553.5" y="839.8945">normalizing_data : raggedarray</text><line style="stroke:#181818;stroke-width:0.5;" x1="548.5" x2="781.5" y1="847.3125" y2="847.3125"/></g><!--class IntervalChannelData--><g id="elem_IntervalChannelData"><rect codeLine="100" fill="#F1F1F1" height="162.8438" id="IntervalChannelData" rx="2.5" ry="2.5" style="stroke:#181818;stroke-width:0.5;" width="202" x="826" y="527"/><ellipse cx="859.9" cy="543" fill="#ADD1B2" rx="11" ry="11" style="stroke:#181818;stroke-width:1.0;"/><path d="M859.9469,549.2031 C861.4469,549.2031 862.6813,548.6406 863.5875,547.5781 L862.2125,546.0625 C861.6656,546.6563 861.0094,547.0469 860.2125,547.0469 C858.5406,547.0469 857.3844,545.7188 857.3844,543.4375 C857.3844,541.2188 858.5406,539.875 860.1031,539.875 C860.9156,539.875 861.5094,540.1875 862.0406,540.6719 L863.4156,539.125 C862.6656,538.3906 861.5094,537.7188 860.1031,537.7188 C857.15,537.7188 854.8219,539.8594 854.8219,543.5313 C854.8219,547.25 857.1969,549.2031 859.9469,549.2031 Z " fill="#000000"/><text fill="#000000" font-family="sans-serif" font-size="14" lengthAdjust="spacing" textLength="128" x="878.1" y="547.7852">IntervalChannelData</text><line style="stroke:#181818;stroke-width:0.5;" x1="827" x2="1027" y1="559" y2="559"/><text fill="#000000" font-family="sans-serif" font-size="14" lengthAdjust="spacing" textLength="145" x="832" y="575.9883">raw_data : raggedarray</text><text fill="#000000" font-family="sans-serif" font-size="14" lengthAdjust="spacing" textLength="190" x="832" y="592.3945">counts : np.ndarray(dtype=int)</text><text fill="#000000" font-family="sans-serif" font-size="14" lengthAdjust="spacing" textLength="119" x="832" y="608.8008">_mean : np.ndarray</text><text fill="#000000" font-family="sans-serif" font-size="14" lengthAdjust="spacing" textLength="104" x="832" y="625.207">_std : np.ndarray</text><line style="stroke:#181818;stroke-width:0.5;" x1="827" x2="1027" y1="632.625" y2="632.625"/><text fill="#000000" font-family="sans-serif" font-size="14" lengthAdjust="spacing" textLength="45" x="832" y="649.6133">mean()</text><text fill="#000000" font-family="sans-serif" font-size="14" lengthAdjust="spacing" textLength="30" x="832" y="666.0195">std()</text><text fill="#000000" font-family="sans-serif" font-size="14" lengthAdjust="spacing" textLength="98" x="832" y="682.4258">has_raw_data()</text></g><!--class IntervalNormalizedChannelData--><g id="elem_IntervalNormalizedChannelData"><rect codeLine="110" fill="#F1F1F1" height="80.8125" id="IntervalNormalizedChannelData" rx="2.5" ry="2.5" style="stroke:#181818;stroke-width:0.5;" width="231" x="817.5" y="774.5"/><ellipse cx="832.5" cy="790.5" fill="#ADD1B2" rx="11" ry="11" style="stroke:#181818;stroke-width:1.0;"/><path d="M832.5469,796.7031 C834.0469,796.7031 835.2813,796.1406 836.1875,795.0781 L834.8125,793.5625 C834.2656,794.1563 833.6094,794.5469 832.8125,794.5469 C831.1406,794.5469 829.9844,793.2188 829.9844,790.9375 C829.9844,788.7188 831.1406,787.375 832.7031,787.375 C833.5156,787.375 834.1094,787.6875 834.6406,788.1719 L836.0156,786.625 C835.2656,785.8906 834.1094,785.2188 832.7031,785.2188 C829.75,785.2188 827.4219,787.3594 827.4219,791.0313 C827.4219,794.75 829.7969,796.7031 832.5469,796.7031 Z " fill="#000000"/><text fill="#000000" font-family="sans-serif" font-size="14" lengthAdjust="spacing" textLength="199" x="846.5" y="795.2852">IntervalNormalizedChannelData</text><line style="stroke:#181818;stroke-width:0.5;" x1="818.5" x2="1047.5" y1="806.5" y2="806.5"/><text fill="#000000" font-family="sans-serif" font-size="14" lengthAdjust="spacing" textLength="190" x="823.5" y="823.4883">normalized_data : raggedarray</text><text fill="#000000" font-family="sans-serif" font-size="14" lengthAdjust="spacing" textLength="194" x="823.5" y="839.8945">normalizing_data : raggedarray</text><line style="stroke:#181818;stroke-width:0.5;" x1="818.5" x2="1047.5" y1="847.3125" y2="847.3125"/></g><!--class ArrayChannelData--><g id="elem_ArrayChannelData"><rect codeLine="115" fill="#F1F1F1" height="64.4063" id="ArrayChannelData" rx="2.5" ry="2.5" style="stroke:#181818;stroke-width:0.5;" width="183" x="1085.5" y="576.5"/><ellipse cx="1116.7" cy="592.5" fill="#ADD1B2" rx="11" ry="11" style="stroke:#181818;stroke-width:1.0;"/><path d="M1116.7469,598.7031 C1118.2469,598.7031 1119.4813,598.1406 1120.3875,597.0781 L1119.0125,595.5625 C1118.4656,596.1563 1117.8094,596.5469 1117.0125,596.5469 C1115.3406,596.5469 1114.1844,595.2188 1114.1844,592.9375 C1114.1844,590.7188 1115.3406,589.375 1116.9031,589.375 C1117.7156,589.375 1118.3094,589.6875 1118.8406,590.1719 L1120.2156,588.625 C1119.4656,587.8906 1118.3094,587.2188 1116.9031,587.2188 C1113.95,587.2188 1111.6219,589.3594 1111.6219,593.0313 C1111.6219,596.75 1113.9969,598.7031 1116.7469,598.7031 Z " fill="#000000"/><text fill="#000000" font-family="sans-serif" font-size="14" lengthAdjust="spacing" textLength="115" x="1134.3" y="597.2852">ArrayChannelData</text><line style="stroke:#181818;stroke-width:0.5;" x1="1086.5" x2="1267.5" y1="608.5" y2="608.5"/><text fill="#000000" font-family="sans-serif" font-size="14" lengthAdjust="spacing" textLength="171" x="1091.5" y="625.4883">roi[] : ArrayChannelROIData</text><line style="stroke:#181818;stroke-width:0.5;" x1="1086.5" x2="1267.5" y1="632.9063" y2="632.9063"/></g><!--class ArrayChannelROIData--><g id="elem_ArrayChannelROIData"><rect codeLine="121" fill="#F1F1F1" height="113.625" id="ArrayChannelROIData" rx="2.5" ry="2.5" style="stroke:#181818;stroke-width:0.5;" width="216" x="1084" y="758"/><ellipse cx="1119.7" cy="774" fill="#ADD1B2" rx="11" ry="11" style="stroke:#181818;stroke-width:1.0;"/><path d="M1119.7469,780.2031 C1121.2469,780.2031 1122.4813,779.6406 1123.3875,778.5781 L1122.0125,777.0625 C1121.4656,777.6563 1120.8094,778.0469 1120.0125,778.0469 C1118.3406,778.0469 1117.1844,776.7188 1117.1844,774.4375 C1117.1844,772.2188 1118.3406,770.875 1119.9031,770.875 C1120.7156,770.875 1121.3094,771.1875 1121.8406,771.6719 L1123.2156,770.125 C1122.4656,769.3906 1121.3094,768.7188 1119.9031,768.7188 C1116.95,768.7188 1114.6219,770.8594 1114.6219,774.5313 C1114.6219,778.25 1116.9969,780.2031 1119.7469,780.2031 Z " fill="#000000"/><text fill="#000000" font-family="sans-serif" font-size="14" lengthAdjust="spacing" textLength="138" x="1138.3" y="778.7852">ArrayChannelROIData</text><line style="stroke:#181818;stroke-width:0.5;" x1="1085" x2="1299" y1="790" y2="790"/><text fill="#000000" font-family="sans-serif" font-size="14" lengthAdjust="spacing" textLength="74" x="1090" y="806.9883">label : string</text><text fill="#000000" font-family="sans-serif" font-size="14" lengthAdjust="spacing" textLength="191" x="1090" y="823.3945">marker : np.ndarray(dtype=int)</text><text fill="#000000" font-family="sans-serif" font-size="14" lengthAdjust="spacing" textLength="204" x="1090" y="839.8008">positions : np.ndarray(dtype=int)</text><text fill="#000000" font-family="sans-serif" font-size="14" lengthAdjust="spacing" textLength="117" x="1090" y="856.207">data : np.ndarray()</text><line style="stroke:#181818;stroke-width:0.5;" x1="1085" x2="1299" y1="863.625" y2="863.625"/></g><g id="elem_GMN48"><path d="M1051.5,932 L1051.5,1124.8125 A0,0 0 0 0 1051.5,1124.8125 L1332.5,1124.8125 A0,0 0 0 0 1332.5,1124.8125 L1332.5,942 L1322.5,932 L1196,932 L1192,872.12 L1188,932 L1051.5,932 A0,0 0 0 0 1051.5,932 " fill="#FEFFDD" style="stroke:#181818;stroke-width:0.5;"/><path d="M1322.5,932 L1322.5,942 L1332.5,942 L1322.5,932 " fill="#FEFFDD" style="stroke:#181818;stroke-width:0.5;"/><text fill="#000000" font-family="sans-serif" font-size="13" lengthAdjust="spacing" textLength="214" x="1057.5" y="949.0605">Should these ROI classes inherit from</text><text fill="#000000" font-family="sans-serif" font-size="13" lengthAdjust="spacing" textLength="229" x="1057.5" y="964.2949">ChannelData? In this case, the attributes</text><text fill="#000000" font-family="sans-serif" font-size="13" lengthAdjust="spacing" textLength="260" x="1057.5" y="979.5293">"positions" and "data" would not be necessary.</text><text fill="#000000" font-family="sans-serif" font-size="13" lengthAdjust="spacing" textLength="3" x="1057.5" y="994.7637">&#160;</text><text fill="#000000" font-family="sans-serif" font-size="13" lengthAdjust="spacing" textLength="220" x="1057.5" y="1009.998">Marker should be a two-element vector</text><text fill="#000000" font-family="sans-serif" font-size="13" lengthAdjust="spacing" textLength="248" x="1057.5" y="1025.2324">with positions on the x axis of the spectrum.</text><text fill="#000000" font-family="sans-serif" font-size="13" lengthAdjust="spacing" textLength="259" x="1057.5" y="1040.4668">Is "marker" the best name? Can we generalise</text><text fill="#000000" font-family="sans-serif" font-size="13" lengthAdjust="spacing" textLength="212" x="1057.5" y="1055.7012">to fit to AreaChannelROIData as well?</text><text fill="#000000" font-family="sans-serif" font-size="13" lengthAdjust="spacing" textLength="3" x="1057.5" y="1070.9355">&#160;</text><text fill="#000000" font-family="sans-serif" font-size="13" lengthAdjust="spacing" textLength="207" x="1057.5" y="1086.1699">What other attributes are relevant for</text><text fill="#000000" font-family="sans-serif" font-size="13" lengthAdjust="spacing" textLength="231" x="1057.5" y="1101.4043">Array Channel ROIs? What datasets exist</text><text fill="#000000" font-family="sans-serif" font-size="13" lengthAdjust="spacing" textLength="93" x="1057.5" y="1116.6387">in an eveH5 file?</text></g><!--class AreaChannelData--><g id="elem_AreaChannelData"><rect codeLine="142" fill="#F1F1F1" height="64.4063" id="AreaChannelData" rx="2.5" ry="2.5" style="stroke:#181818;stroke-width:0.5;" width="178" x="1309" y="576.5"/><ellipse cx="1340.2" cy="592.5" fill="#ADD1B2" rx="11" ry="11" style="stroke:#181818;stroke-width:1.0;"/><path d="M1340.2469,598.7031 C1341.7469,598.7031 1342.9813,598.1406 1343.8875,597.0781 L1342.5125,595.5625 C1341.9656,596.1563 1341.3094,596.5469 1340.5125,596.5469 C1338.8406,596.5469 1337.6844,595.2188 1337.6844,592.9375 C1337.6844,590.7188 1338.8406,589.375 1340.4031,589.375 C1341.2156,589.375 1341.8094,589.6875 1342.3406,590.1719 L1343.7156,588.625 C1342.9656,587.8906 1341.8094,587.2188 1340.4031,587.2188 C1337.45,587.2188 1335.1219,589.3594 1335.1219,593.0313 C1335.1219,596.75 1337.4969,598.7031 1340.2469,598.7031 Z " fill="#000000"/><text fill="#000000" font-family="sans-serif" font-size="14" lengthAdjust="spacing" textLength="110" x="1357.8" y="597.2852">AreaChannelData</text><line style="stroke:#181818;stroke-width:0.5;" x1="1310" x2="1486" y1="608.5" y2="608.5"/><text fill="#000000" font-family="sans-serif" font-size="14" lengthAdjust="spacing" textLength="166" x="1315" y="625.4883">roi[] : AreaChannelROIData</text><line style="stroke:#181818;stroke-width:0.5;" x1="1310" x2="1486" y1="632.9063" y2="632.9063"/></g><!--class AreaChannelROIData--><g id="elem_AreaChannelROIData"><rect codeLine="148" fill="#F1F1F1" height="48" id="AreaChannelROIData" rx="2.5" ry="2.5" style="stroke:#181818;stroke-width:0.5;" width="165" x="1335.5" y="791"/><ellipse cx="1350.5" cy="807" fill="#ADD1B2" rx="11" ry="11" style="stroke:#181818;stroke-width:1.0;"/><path d="M1350.5469,813.2031 C1352.0469,813.2031 1353.2813,812.6406 1354.1875,811.5781 L1352.8125,810.0625 C1352.2656,810.6563 1351.6094,811.0469 1350.8125,811.0469 C1349.1406,811.0469 1347.9844,809.7188 1347.9844,807.4375 C1347.9844,805.2188 1349.1406,803.875 1350.7031,803.875 C1351.5156,803.875 1352.1094,804.1875 1352.6406,804.6719 L1354.0156,803.125 C1353.2656,802.3906 1352.1094,801.7188 1350.7031,801.7188 C1347.75,801.7188 1345.4219,803.8594 1345.4219,807.5313 C1345.4219,811.25 1347.7969,813.2031 1350.5469,813.2031 Z " fill="#000000"/><text fill="#000000" font-family="sans-serif" font-size="14" lengthAdjust="spacing" textLength="133" x="1364.5" y="811.7852">AreaChannelROIData</text><line style="stroke:#181818;stroke-width:0.5;" x1="1336.5" x2="1499.5" y1="823" y2="823"/><line style="stroke:#181818;stroke-width:0.5;" x1="1336.5" x2="1499.5" y1="831" y2="831"/></g><!--reverse link Data to DataImporter--><g id="link_Data_DataImporter"><path codeLine="31" d="M906.03,92 C917.65,92 917.27,92 928.89,92 " fill="none" id="Data-backto-DataImporter" style="stroke:#181818;stroke-width:1.0;"/><polygon fill="#181818" points="894.03,92,900.03,96,906.03,92,900.03,88,894.03,92" style="stroke:#181818;stroke-width:1.0;"/></g><!--reverse link Data to Metadata--><g id="link_Data_Metadata"><path codeLine="32" d="M744.165,156.7774 C731.185,167.3474 726.32,169.99 712,178 C636.92,219.98 607.78,205.84 528,238 C522.05,240.4 515.87,243.1 509.81,245.89 " fill="none" id="Data-backto-Metadata" style="stroke:#181818;stroke-width:1.0;"/><polygon fill="#181818" points="753.47,149.2,746.2917,149.887,744.165,156.7774,751.3433,156.0904,753.47,149.2" style="stroke:#181818;stroke-width:1.0;"/></g><!--reverse link Data to MeasureData--><g id="link_Data_MeasureData"><path d="M812,167.17 C812,196.55 812,213.39 812,237.91 " fill="none" id="Data-backto-MeasureData" style="stroke:#181818;stroke-width:1.0;"/><polygon fill="none" points="812,149.17,806,167.17,818,167.17,812,149.17" style="stroke:#181818;stroke-width:1.0;"/></g><!--reverse link Data to MonitorData--><g id="link_Data_MonitorData"><path d="M887.4327,160.6477 C899.5027,170.6977 898.47,169.23 911,178 C942.58,200.1 979.98,221.4 1010.88,237.83 " fill="none" id="Data-backto-MonitorData" style="stroke:#181818;stroke-width:1.0;"/><polygon fill="none" points="873.6,149.13,883.5935,165.2586,891.2719,156.0368,873.6,149.13" style="stroke:#181818;stroke-width:1.0;"/></g><!--reverse link MeasureData to DeviceData--><g id="link_MeasureData_DeviceData"><path d="M787.5358,318.05 C774.2658,343.57 764.08,363.18 752.07,386.28 " fill="none" id="MeasureData-backto-DeviceData" style="stroke:#181818;stroke-width:1.0;"/><polygon fill="none" points="795.84,302.08,782.2125,315.282,792.8592,320.8181,795.84,302.08" style="stroke:#181818;stroke-width:1.0;"/></g><!--reverse link MeasureData to AxisData--><g id="link_MeasureData_AxisData"><path d="M686.2936,302.0456 C680.2636,303.4256 691.84,300.74 686,302 C543.71,332.74 496.98,302.78 364,362 C357.93,364.7 351.91,368.11 346.15,371.86 " fill="none" id="MeasureData-backto-AxisData" style="stroke:#181818;stroke-width:1.0;"/><polygon fill="none" points="703.84,298.03,684.9551,296.1968,687.6322,307.8944,703.84,298.03" style="stroke:#181818;stroke-width:1.0;"/></g><!--reverse link AxisData to EncoderAxisData--><g id="link_AxisData_EncoderAxisData"><path d="M281.4811,476.3618 C269.9411,512.8418 259.79,544.93 249.82,576.46 " fill="none" id="AxisData-backto-EncoderAxisData" style="stroke:#181818;stroke-width:1.0;"/><polygon fill="none" points="286.91,459.2,275.7605,474.5521,287.2017,478.1714,286.91,459.2" style="stroke:#181818;stroke-width:1.0;"/></g><!--reverse link MeasureData to ChannelData--><g id="link_MeasureData_ChannelData"><path d="M836.1451,318.096 C849.2351,343.616 859.26,363.18 871.1,386.28 " fill="none" id="MeasureData-backto-ChannelData" style="stroke:#181818;stroke-width:1.0;"/><polygon fill="none" points="827.93,302.08,830.8064,320.8344,841.4838,315.3576,827.93,302.08" style="stroke:#181818;stroke-width:1.0;"/></g><!--reverse link MeasureData to TimestampData--><g id="link_MeasureData_TimestampData"><path d="M893.0916,309.8604 C929.8716,327.4904 960.43,342.13 1001.73,361.93 " fill="none" id="MeasureData-backto-TimestampData" style="stroke:#181818;stroke-width:1.0;"/><polygon fill="none" points="876.86,302.08,890.4981,315.2709,895.6851,304.4499,876.86,302.08" style="stroke:#181818;stroke-width:1.0;"/></g><!--reverse link ChannelData to SinglePointChannelData--><g id="link_ChannelData_SinglePointChannelData"><path d="M836.8815,444.627 C823.8815,453.347 823.23,452.66 808,459 C697.31,505.07 652.79,466.51 545,519 C511.25,535.43 478.66,564.12 458.05,584.37 " fill="none" id="ChannelData-backto-SinglePointChannelData" style="stroke:#181818;stroke-width:1.0;"/><polygon fill="none" points="851.83,434.6,833.5391,439.6442,840.2238,449.6099,851.83,434.6" style="stroke:#181818;stroke-width:1.0;"/></g><!--reverse link SinglePointChannelData to SinglePointNormalizedChannelData--><g id="link_SinglePointChannelData_SinglePointNormalizedChannelData"><path d="M395.8405,644.5026 C374.2605,663.0226 356.34,677.43 327,698 C287.95,725.38 242.29,753.01 205.18,774.43 " fill="none" id="SinglePointChannelData-backto-SinglePointNormalizedChannelData" style="stroke:#181818;stroke-width:1.0;"/><polygon fill="none" points="409.5,632.78,391.933,639.9494,399.7481,649.0557,409.5,632.78" style="stroke:#181818;stroke-width:1.0;"/></g><!--reverse link ChannelData to AverageChannelData--><g id="link_ChannelData_AverageChannelData"><path d="M844.6314,446.9675 C821.9214,467.9575 800.26,488 766.75,518.98 " fill="none" id="ChannelData-backto-AverageChannelData" style="stroke:#181818;stroke-width:1.0;"/><polygon fill="none" points="857.85,434.75,840.5589,442.5613,848.7039,451.3737,857.85,434.75" style="stroke:#181818;stroke-width:1.0;"/></g><!--reverse link AverageChannelData to AverageNormalizedChannelData--><g id="link_AverageChannelData_AverageNormalizedChannelData"><path d="M667.8736,716.0023 C667.0936,742.6623 666.8,752.6 666.16,774.37 " fill="none" id="AverageChannelData-backto-AverageNormalizedChannelData" style="stroke:#181818;stroke-width:1.0;"/><polygon fill="none" points="668.4,698.01,661.8762,715.8268,673.871,716.1778,668.4,698.01" style="stroke:#181818;stroke-width:1.0;"/></g><!--reverse link ChannelData to IntervalChannelData--><g id="link_ChannelData_IntervalChannelData"><path d="M892.1624,452.313 C897.2624,475.033 901.38,493.37 908.83,526.58 " fill="none" id="ChannelData-backto-IntervalChannelData" style="stroke:#181818;stroke-width:1.0;"/><polygon fill="none" points="888.22,434.75,886.3081,453.6271,898.0167,450.9988,888.22,434.75" style="stroke:#181818;stroke-width:1.0;"/></g><!--reverse link IntervalChannelData to IntervalNormalizedChannelData--><g id="link_IntervalChannelData_IntervalNormalizedChannelData"><path d="M929.8883,708.0222 C930.7383,736.9722 931.13,750.36 931.84,774.31 " fill="none" id="IntervalChannelData-backto-IntervalNormalizedChannelData" style="stroke:#181818;stroke-width:1.0;"/><polygon fill="none" points="929.36,690.03,923.8909,708.1983,935.8857,707.8462,929.36,690.03" style="stroke:#181818;stroke-width:1.0;"/></g><!--reverse link ChannelData to ArrayChannelData--><g id="link_ChannelData_ArrayChannelData"><path d="M932.7999,444.455 C965.6299,466.185 1001.19,489.78 1045,519 C1073.46,537.98 1105.32,559.34 1130.61,576.32 " fill="none" id="ChannelData-backto-ArrayChannelData" style="stroke:#181818;stroke-width:1.0;"/><polygon fill="none" points="917.79,434.52,929.4882,449.4583,936.1115,439.4517,917.79,434.52" style="stroke:#181818;stroke-width:1.0;"/></g><!--reverse link ArrayChannelData to ArrayChannelROIData--><g id="link_ArrayChannelData_ArrayChannelROIData"><path codeLine="119" d="M1180.1585,652.5278 C1182.4385,683.5878 1185.11,720.08 1187.88,757.9 " fill="none" id="ArrayChannelData-backto-ArrayChannelROIData" style="stroke:#181818;stroke-width:1.0;"/><polygon fill="#181818" points="1179.28,640.56,1175.73,646.8367,1180.1585,652.5278,1183.7085,646.2511,1179.28,640.56" style="stroke:#181818;stroke-width:1.0;"/><text fill="#000000" font-family="sans-serif" font-size="13" lengthAdjust="spacing" textLength="20" x="1166.0709" y="746.7227">0..n</text></g><!--reverse link ChannelData to AreaChannelData--><g id="link_ChannelData_AreaChannelData"><path d="M928.0571,444.9012 C940.9271,453.7412 941.66,452.95 957,459 C1095.28,513.51 1150.56,457.78 1286,519 C1316.49,532.78 1345.96,556.64 1367.02,576.11 " fill="none" id="ChannelData-backto-AreaChannelData" style="stroke:#181818;stroke-width:1.0;"/><polygon fill="none" points="913.22,434.71,924.6601,449.8469,931.4542,439.9554,913.22,434.71" style="stroke:#181818;stroke-width:1.0;"/></g><!--reverse link AreaChannelData to AreaChannelROIData--><g id="link_AreaChannelData_AreaChannelROIData"><path codeLine="146" d="M1402.2072,652.5031 C1406.2472,693.8431 1412.14,754.07 1415.74,790.92 " fill="none" id="AreaChannelData-backto-AreaChannelROIData" style="stroke:#181818;stroke-width:1.0;"/><polygon fill="#181818" points="1401.04,640.56,1397.6425,646.9206,1402.2072,652.5031,1405.6046,646.1425,1401.04,640.56" style="stroke:#181818;stroke-width:1.0;"/><text fill="#000000" font-family="sans-serif" font-size="13" lengthAdjust="spacing" textLength="20" x="1392.5984" y="779.9182">0..n</text></g><!--SRC=[jLPBRzj64BxhLmnqgLpOGb8W5m61OCG9x4FIe2xGGri8At8aRKpk4hjBoQhX_zvl7wGeaNu4QNNHSdVUyytZ9tidLIMCA2cl9BrzzsOqoWfXBLq99-XXHFYLx4JkFsVqEHt3_I9TgcggSc6CsCThMLRQE3Puyb9kqcTuz2oJiz7ZI6d7LF3AaLu5ijbiqKeUX-EOQbkBejXJffKJKbaIzFQAWYeIAYU9conZQpaFV5ifo6quQQ4rEsy6xD_ed2PVz_XNL1bTiN7xCv0A5_WoQB61isimWNWbZNL92SaLAVOdOVRJKU3yf0r9bSkjp64gPHkX51Uq5KNDbYp35ZPoopc5iB8DN9TRDcBD7o9r2BLtvqP1ArWxzqdDfNVvbFpIi3YwCqnMbxnhtB8LPn9MYU1R6qPYYKz3lro5G15S45H86r8HRvRVE7FHrWaOCc7PFyeILjkWN1JoZi-c8yRPvxABcpQ04JzMroRZS8pG2018z0sYG9j0OUHwusPqwsCdnTfZSwNDNwg5OQdpkc149dZzyyKnojBbnG6hhIPXQyFXdUyT33z2-SDASf4_KgMjT583R5raJtAth_YzLAvhkrRIQVEIn58MY2uZ-lahX5xnLcR7LdOiRwWkxwLzYgO9Exj5n64ionNCuFnGP9tlGqM6uFjKDme2QGklo0DCLr0grTgN2B0KYBfG373p35MXKOE0ozhNhvi6ocjM6Vka8i6h5HjMhgaSUuwgLQWEb7ri62r5ezlBt-4CrwMN24kw0FoeCesQwmMelOZHGUtaYwN8xfeOjGde-Z4StPRqTrcoTQAiNaX5WuH5Q2UBbo5sn0HLh-L1nsif9wwnxjoN3B_tSZf0kqN-2lwgmJpaSlVkOOZfYpObki0_d0-nFo4znaErh4_Ca8O0GWOeMci6-kYW-J7ZOjV80jEQE-gQK0jWjQpSyp5Ub2pKmDYpBk_VUjf9vCDxEebeTbjx_cuZxAAny52EIrIFBaCzzbmz5XLHZA5dsDK6CD4gLH267hftcaWrHYKvtV2Hnd-QCTTwHxa6JRGvLLvi5GP690aO1rxxlDVvauNFms8WOqz1uZH90vZeaW0KoP21CVfZiCXqhVvtKFG0SEBDyt4Tylc_2snAyEaIyanGjVppRyZfilpswqs0BUJr9FbvFNupdQhn8Ck00UdffC4MOedjQuQm6dXpF8M5kGixwSiTz_lwSwy_3PRlW5TUoEr6rqNkvoLg50_DceWomuecNIYzq_4wHxh1WktNBsRdON55wp9oMRiqxSUj3-EmhetZGhqBsc0RBRctotwE4RBH911WZk_q1HTS-lcxnKgeOp_OOO7iH2ak0NHF0ZFMU-k__FBfJ5t6aNzZQHmpC0wlIqmcKgBaENr0uUou6VjOb6BNqXZuplzrrjmcwLXeTrmKysZt7zXtIOULzX25i7qOsBuLVdT8XeSqDA7qyRRpoEx3WuN9ngKYxgeAaIFUylKxltlm_7JJEDs_NrCEfwx4QZYMSrGCFOQ-yaCfF8x-1G00]--></g></svg>