<?xml version="1.0" encoding="us-ascii" standalone="no"?><svg xmlns="http://www.w3.org/2000/svg" xmlns:xlink="http://www.w3.org/1999/xlink" contentStyleType="text/css" height="335px" preserveAspectRatio="none" style="width:405px;height:335px;background:#FFFFFF;" version="1.1" viewBox="0 0 405 335" width="405px" zoomAndPan="magnify"><defs/><g><!--class File--><g id="elem_File"><rect codeLine="2" fill="#F1F1F1" height="113.1875" id="File" rx="2.5" ry="2.5" style="stroke:#181818;stroke-width:0.5;" width="129" x="137.5" y="7"/><ellipse cx="185.25" cy="23" fill="#ADD1B2" rx="11" ry="11" style="stroke:#181818;stroke-width:1.0;"/><path d="M188.2188,28.6406 Q187.6406,28.9375 187,29.0781 Q186.3594,29.2344 185.6563,29.2344 Q183.1563,29.2344 181.8281,27.5938 Q180.5156,25.9375 180.5156,22.8125 Q180.5156,19.6875 181.8281,18.0313 Q183.1563,16.375 185.6563,16.375 Q186.3594,16.375 187,16.5313 Q187.6563,16.6875 188.2188,16.9844 L188.2188,19.7031 Q187.5938,19.125 187,18.8594 Q186.4063,18.5781 185.7813,18.5781 Q184.4375,18.5781 183.75,19.6563 Q183.0625,20.7188 183.0625,22.8125 Q183.0625,24.9063 183.75,25.9844 Q184.4375,27.0469 185.7813,27.0469 Q186.4063,27.0469 187,26.7813 Q187.5938,26.5 188.2188,25.9219 L188.2188,28.6406 Z " fill="#000000"/><text fill="#000000" font-family="sans-serif" font-size="14" lengthAdjust="spacing" textLength="25" x="205.75" y="27.8467">File</text><line style="stroke:#181818;stroke-width:0.5;" x1="138.5" x2="265.5" y1="39" y2="39"/><text fill="#000000" font-family="sans-serif" font-size="14" lengthAdjust="spacing" textLength="105" x="143.5" y="55.9951">version : string</text><text fill="#000000" font-family="sans-serif" font-size="14" lengthAdjust="spacing" textLength="81" x="143.5" y="72.292">scan : Scan</text><text fill="#000000" font-family="sans-serif" font-size="14" lengthAdjust="spacing" textLength="93" x="143.5" y="88.5889">setup : Setup</text><text fill="#000000" font-family="sans-serif" font-size="14" lengthAdjust="spacing" textLength="117" x="143.5" y="104.8857">plugins : Plugin[]</text><line style="stroke:#181818;stroke-width:0.5;" x1="138.5" x2="265.5" y1="112.1875" y2="112.1875"/></g><!--class Scan--><g id="elem_Scan"><rect fill="#F1F1F1" height="48" id="Scan" rx="2.5" ry="2.5" style="stroke:#181818;stroke-width:0.5;" width="67" x="44.5" y="180"/><ellipse cx="59.5" cy="196" fill="#ADD1B2" rx="11" ry="11" style="stroke:#181818;stroke-width:1.0;"/><path d="M62.4688,201.6406 Q61.8906,201.9375 61.25,202.0781 Q60.6094,202.2344 59.9063,202.2344 Q57.4063,202.2344 56.0781,200.5938 Q54.7656,198.9375 54.7656,195.8125 Q54.7656,192.6875 56.0781,191.0313 Q57.4063,189.375 59.9063,189.375 Q60.6094,189.375 61.25,189.5313 Q61.9063,189.6875 62.4688,189.9844 L62.4688,192.7031 Q61.8438,192.125 61.25,191.8594 Q60.6563,191.5781 60.0313,191.5781 Q58.6875,191.5781 58,192.6563 Q57.3125,193.7188 57.3125,195.8125 Q57.3125,197.9063 58,198.9844 Q58.6875,200.0469 60.0313,200.0469 Q60.6563,200.0469 61.25,199.7813 Q61.8438,199.5 62.4688,198.9219 L62.4688,201.6406 Z " fill="#000000"/><text fill="#000000" font-family="sans-serif" font-size="14" lengthAdjust="spacing" textLength="35" x="73.5" y="200.8467">Scan</text><line style="stroke:#181818;stroke-width:0.5;" x1="45.5" x2="110.5" y1="212" y2="212"/><line style="stroke:#181818;stroke-width:0.5;" x1="45.5" x2="110.5" y1="220" y2="220"/></g><!--class Setup--><g id="elem_Setup"><rect fill="#F1F1F1" height="48" id="Setup" rx="2.5" ry="2.5" style="stroke:#181818;stroke-width:0.5;" width="73" x="165.5" y="180"/><ellipse cx="180.5" cy="196" fill="#ADD1B2" rx="11" ry="11" style="stroke:#181818;stroke-width:1.0;"/><path d="M183.4688,201.6406 Q182.8906,201.9375 182.25,202.0781 Q181.6094,202.2344 180.9063,202.2344 Q178.4063,202.2344 177.0781,200.5938 Q175.7656,198.9375 175.7656,195.8125 Q175.7656,192.6875 177.0781,191.0313 Q178.4063,189.375 180.9063,189.375 Q181.6094,189.375 182.25,189.5313 Q182.9063,189.6875 183.4688,189.9844 L183.4688,192.7031 Q182.8438,192.125 182.25,191.8594 Q181.6563,191.5781 181.0313,191.5781 Q179.6875,191.5781 179,192.6563 Q178.3125,193.7188 178.3125,195.8125 Q178.3125,197.9063 179,198.9844 Q179.6875,200.0469 181.0313,200.0469 Q181.6563,200.0469 182.25,199.7813 Q182.8438,199.5 183.4688,198.9219 L183.4688,201.6406 Z " fill="#000000"/><text fill="#000000" font-family="sans-serif" font-size="14" lengthAdjust="spacing" textLength="41" x="194.5" y="200.8467">Setup</text><line style="stroke:#181818;stroke-width:0.5;" x1="166.5" x2="237.5" y1="212" y2="212"/><line style="stroke:#181818;stroke-width:0.5;" x1="166.5" x2="237.5" y1="220" y2="220"/></g><!--class Plugin--><g id="elem_Plugin"><rect fill="#F1F1F1" height="48" id="Plugin" rx="2.5" ry="2.5" style="stroke:#181818;stroke-width:0.5;" width="75" x="290.5" y="180"/><ellipse cx="305.5" cy="196" fill="#ADD1B2" rx="11" ry="11" style="stroke:#181818;stroke-width:1.0;"/><path d="M308.4688,201.6406 Q307.8906,201.9375 307.25,202.0781 Q306.6094,202.2344 305.9063,202.2344 Q303.4063,202.2344 302.0781,200.5938 Q300.7656,198.9375 300.7656,195.8125 Q300.7656,192.6875 302.0781,191.0313 Q303.4063,189.375 305.9063,189.375 Q306.6094,189.375 307.25,189.5313 Q307.9063,189.6875 308.4688,189.9844 L308.4688,192.7031 Q307.8438,192.125 307.25,191.8594 Q306.6563,191.5781 306.0313,191.5781 Q304.6875,191.5781 304,192.6563 Q303.3125,193.7188 303.3125,195.8125 Q303.3125,197.9063 304,198.9844 Q304.6875,200.0469 306.0313,200.0469 Q306.6563,200.0469 307.25,199.7813 Q307.8438,199.5 308.4688,198.9219 L308.4688,201.6406 Z " fill="#000000"/><text fill="#000000" font-family="sans-serif" font-size="14" lengthAdjust="spacing" textLength="43" x="319.5" y="200.8467">Plugin</text><line style="stroke:#181818;stroke-width:0.5;" x1="291.5" x2="364.5" y1="212" y2="212"/><line style="stroke:#181818;stroke-width:0.5;" x1="291.5" x2="364.5" y1="220" y2="220"/></g><g id="elem_GMN9"><path d="M6,288 L6,328.2656 A0,0 0 0 0 6,328.2656 L112,328.2656 A0,0 0 0 0 112,328.2656 L112,298 L102,288 L66.59,288 L73.69,228.15 L58.59,288 L6,288 A0,0 0 0 0 6,288 " fill="#FEFFDD" style="stroke:#181818;stroke-width:0.5;"/><path d="M102,288 L102,298 L112,298 L102,288 " fill="#FEFFDD" style="stroke:#181818;stroke-width:0.5;"/><text fill="#000000" font-family="sans-serif" font-size="13" lengthAdjust="spacing" textLength="85" x="12" y="305.0669">See separate</text><text fill="#000000" font-family="sans-serif" font-size="13" lengthAdjust="spacing" textLength="83" x="12" y="320.1997">scan module</text></g><g id="elem_GMN12"><path d="M147,288 L147,328.2656 A0,0 0 0 0 147,328.2656 L257,328.2656 A0,0 0 0 0 257,328.2656 L257,298 L247,288 L206,288 L202,228.15 L198,288 L147,288 A0,0 0 0 0 147,288 " fill="#FEFFDD" style="stroke:#181818;stroke-width:0.5;"/><path d="M247,288 L247,298 L257,298 L247,288 " fill="#FEFFDD" style="stroke:#181818;stroke-width:0.5;"/><text fill="#000000" font-family="sans-serif" font-size="13" lengthAdjust="spacing" textLength="85" x="153" y="305.0669">See separate</text><text fill="#000000" font-family="sans-serif" font-size="13" lengthAdjust="spacing" textLength="89" x="153" y="320.1997">setup module</text></g><g id="elem_GMN15"><path d="M292,288 L292,328.2656 A0,0 0 0 0 292,328.2656 L398,328.2656 A0,0 0 0 0 398,328.2656 L398,298 L388,288 L345.79,288 L331.86,228.15 L337.79,288 L292,288 A0,0 0 0 0 292,288 " fill="#FEFFDD" style="stroke:#181818;stroke-width:0.5;"/><path d="M388,288 L388,298 L398,298 L388,288 " fill="#FEFFDD" style="stroke:#181818;stroke-width:0.5;"/><text fill="#000000" font-family="sans-serif" font-size="13" lengthAdjust="spacing" textLength="85" x="298" y="305.0669">See separate</text><text fill="#000000" font-family="sans-serif" font-size="13" lengthAdjust="spacing" textLength="54" x="298" y="320.1997">diagram</text></g><!--reverse link File to Scan--><g id="link_File_Scan"><path codeLine="8" d="M144.2756,128.9803 C125.5456,149.9003 113.26,163.62 98.63,179.96 " fill="none" id="File-backto-Scan" style="stroke:#181818;stroke-width:1.0;"/><polygon fill="#181818" points="152.28,120.04,145.2977,121.842,144.2756,128.9803,151.2579,127.1783,152.28,120.04" style="stroke:#181818;stroke-width:1.0;"/></g><!--reverse link File to Setup--><g id="link_File_Setup"><path codeLine="9" d="M202,132.04 C202,152.96 202,163.62 202,179.96 " fill="none" id="File-backto-Setup" style="stroke:#181818;stroke-width:1.0;"/><polygon fill="#181818" points="202,120.04,198,126.04,202,132.04,206,126.04,202,120.04" style="stroke:#181818;stroke-width:1.0;"/></g><!--reverse link File to Plugin--><g id="link_File_Plugin"><path codeLine="10" d="M260.5971,128.9147 C279.6371,149.8347 292.17,163.62 307.04,179.96 " fill="none" id="File-backto-Plugin" style="stroke:#181818;stroke-width:1.0;"/><polygon fill="#181818" points="252.52,120.04,253.6003,127.1697,260.5971,128.9147,259.5168,121.785,252.52,120.04" style="stroke:#181818;stroke-width:1.0;"/><text fill="#000000" font-family="sans-serif" font-size="13" lengthAdjust="spacing" textLength="8" x="292.644" y="168.9618">n</text></g><!--SRC=[TOv12W8n34NtEKMOfJ0Ny02k1PVgeix4KcZJqcRSoDpTDXK51xD9_YSlFvCtfU31US8dOAq7vU8YunwBPCTMpJAPvfngwvfaISreNPta5-kuLE-eq_aAA-ZPtJXsyAkK-iY1XpS4m548Rr4a1entvLeArSHaiX6wiFuIuhnuskwtonj0d_r3zE1VP7R6PXFW1G00]--></g></svg>