<?xml version="1.0" encoding="us-ascii" standalone="no"?><svg xmlns="http://www.w3.org/2000/svg" xmlns:xlink="http://www.w3.org/1999/xlink" contentStyleType="text/css" height="553.5px" preserveAspectRatio="none" style="width:683px;height:553px;background:#FFFFFF;" version="1.1" viewBox="0 0 683 553" width="683.1px" zoomAndPan="magnify"><defs/><g><!--class EveMetadata--><g id="elem_EveMetadata"><rect codeLine="2" fill="#F1F1F1" height="117.0281" id="EveMetadata" rx="2.25" ry="2.25" style="stroke:#181818;stroke-width:0.45;" width="135" x="168.75" y="6.3"/><ellipse cx="196.425" cy="20.7" fill="#ADD1B2" rx="9.9" ry="9.9" style="stroke:#181818;stroke-width:0.9;"/><path d="M196.4672,26.2828 C197.8172,26.2828 198.9281,25.7766 199.7438,24.8203 L198.5063,23.4563 C198.0141,23.9906 197.4234,24.3422 196.7063,24.3422 C195.2016,24.3422 194.1609,23.1469 194.1609,21.0938 C194.1609,19.0969 195.2016,17.8875 196.6078,17.8875 C197.3391,17.8875 197.8734,18.1688 198.3516,18.6047 L199.5891,17.2125 C198.9141,16.5516 197.8734,15.9469 196.6078,15.9469 C193.95,15.9469 191.8547,17.8734 191.8547,21.1781 C191.8547,24.525 193.9922,26.2828 196.4672,26.2828 Z " fill="#000000"/><text fill="#000000" font-family="sans-serif" font-size="12.6" lengthAdjust="spacing" textLength="74.7" x="212.175" y="25.0066">EveMetadata</text><line style="stroke:#181818;stroke-width:0.45;" x1="169.65" x2="302.85" y1="35.1" y2="35.1"/><text fill="#000000" font-family="sans-serif" font-size="12.6" lengthAdjust="spacing" textLength="51.3" x="174.15" y="50.3895">id : String</text><text fill="#000000" font-family="sans-serif" font-size="12.6" lengthAdjust="spacing" textLength="72.9" x="174.15" y="65.1551">name : String</text><text fill="#000000" font-family="sans-serif" font-size="12.6" lengthAdjust="spacing" textLength="54.9" x="174.15" y="79.9207">pv : String</text><text fill="#000000" font-family="sans-serif" font-size="12.6" lengthAdjust="spacing" textLength="124.2" x="174.15" y="94.6863">transport_type : String</text><text fill="#000000" font-family="sans-serif" font-size="12.6" lengthAdjust="spacing" textLength="90" x="174.15" y="109.452">section : Section</text><line style="stroke:#181818;stroke-width:0.45;" x1="169.65" x2="302.85" y1="116.1281" y2="116.1281"/></g><!--class EveData--><g id="elem_EveData"><rect codeLine="10" fill="#F1F1F1" height="43.2" id="EveData" rx="2.25" ry="2.25" style="stroke:#181818;stroke-width:0.45;" width="75.6" x="43.65" y="207"/><ellipse cx="57.15" cy="221.4" fill="#ADD1B2" rx="9.9" ry="9.9" style="stroke:#181818;stroke-width:0.9;"/><path d="M57.1922,226.9828 C58.5422,226.9828 59.6531,226.4766 60.4688,225.5203 L59.2313,224.1563 C58.7391,224.6906 58.1484,225.0422 57.4313,225.0422 C55.9266,225.0422 54.8859,223.8469 54.8859,221.7938 C54.8859,219.7969 55.9266,218.5875 57.3328,218.5875 C58.0641,218.5875 58.5984,218.8688 59.0766,219.3047 L60.3141,217.9125 C59.6391,217.2516 58.5984,216.6469 57.3328,216.6469 C54.675,216.6469 52.5797,218.5734 52.5797,221.8781 C52.5797,225.225 54.7172,226.9828 57.1922,226.9828 Z " fill="#000000"/><text fill="#000000" font-family="sans-serif" font-size="12.6" lengthAdjust="spacing" textLength="46.8" x="69.75" y="225.7066">EveData</text><line style="stroke:#181818;stroke-width:0.45;" x1="44.55" x2="118.35" y1="235.8" y2="235.8"/><line style="stroke:#181818;stroke-width:0.45;" x1="44.55" x2="118.35" y1="243" y2="243"/></g><g id="elem_GMN4"><path d="M5.4,344.7 L5.4,381.1219 A0,0 0 0 0 5.4,381.1219 L135.9,381.1219 A0,0 0 0 0 135.9,381.1219 L135.9,353.7 L126.9,344.7 L75.681,344.7 L79.74,250.461 L68.481,344.7 L5.4,344.7 A0,0 0 0 0 5.4,344.7 " fill="#FEFFDD" style="stroke:#181818;stroke-width:0.45;"/><path d="M126.9,344.7 L126.9,353.7 L135.9,353.7 L126.9,344.7 " fill="#FEFFDD" style="stroke:#181818;stroke-width:0.45;"/><text fill="#000000" font-family="sans-serif" font-size="11.7" lengthAdjust="spacing" textLength="111.6" x="10.8" y="360.0545">See separate diagram</text><text fill="#000000" font-family="sans-serif" font-size="11.7" lengthAdjust="spacing" textLength="94.5" x="10.8" y="373.7654">for class hierarchy</text></g><!--class Section--><g id="elem_Section"><rect codeLine="14" fill="#F1F1F1" height="102.2625" id="Section" rx="2.25" ry="2.25" style="stroke:#181818;stroke-width:0.45;" width="81" x="523.35" y="177.3"/><ellipse cx="541.71" cy="191.7" fill="#EB937F" rx="9.9" ry="9.9" style="stroke:#181818;stroke-width:0.9;"/><path d="M538.1663,197.1 L544.9303,197.1 L544.9303,195.2016 L540.4303,195.2016 L540.4303,192.9094 L544.1147,192.9094 L544.1147,191.025 L540.4303,191.025 L540.4303,189.0281 L544.7756,189.0281 L544.7756,187.1297 L538.1663,187.1297 L538.1663,197.1 Z " fill="#000000"/><text fill="#000000" font-family="sans-serif" font-size="12.6" lengthAdjust="spacing" textLength="41.4" x="555.39" y="196.0066">Section</text><line style="stroke:#181818;stroke-width:0.45;" x1="524.25" x2="603.45" y1="206.1" y2="206.1"/><text fill="#000000" font-family="sans-serif" font-size="12.6" lengthAdjust="spacing" textLength="63.9" x="528.75" y="221.3895">STANDARD</text><text fill="#000000" font-family="sans-serif" font-size="12.6" lengthAdjust="spacing" textLength="64.8" x="528.75" y="236.1551">SNAPSHOT</text><text fill="#000000" font-family="sans-serif" font-size="12.6" lengthAdjust="spacing" textLength="56.7" x="528.75" y="250.9207">MONITOR</text><text fill="#000000" font-family="sans-serif" font-size="12.6" lengthAdjust="spacing" textLength="70.2" x="528.75" y="265.6863">TIMESTAMP</text><line style="stroke:#181818;stroke-width:0.45;" x1="524.25" x2="603.45" y1="272.3625" y2="272.3625"/></g><g id="elem_GMN8"><path d="M450.9,39.6 L450.9,89.7328 A0,0 0 0 0 450.9,89.7328 L560.25,89.7328 L563.85,177.003 L567.45,89.7328 L676.8,89.7328 A0,0 0 0 0 676.8,89.7328 L676.8,48.6 L667.8,39.6 L450.9,39.6 A0,0 0 0 0 450.9,39.6 " fill="#FEFFDD" style="stroke:#181818;stroke-width:0.45;"/><path d="M667.8,39.6 L667.8,48.6 L676.8,48.6 L667.8,39.6 " fill="#FEFFDD" style="stroke:#181818;stroke-width:0.45;"/><text fill="#000000" font-family="sans-serif" font-size="11.7" lengthAdjust="spacing" textLength="177.3" x="456.3" y="54.9545">These sections may have different</text><text fill="#000000" font-family="sans-serif" font-size="11.7" lengthAdjust="spacing" textLength="150.3" x="456.3" y="68.6654">names in the final data model</text><text fill="#000000" font-family="sans-serif" font-size="11.7" lengthAdjust="spacing" textLength="207" x="456.3" y="82.3764">and need not reflect the eveH5 structure.</text></g><!--class EveMeasureMetadata--><g id="elem_EveMeasureMetadata"><rect codeLine="22" fill="#F1F1F1" height="57.9656" id="EveMeasureMetadata" rx="2.25" ry="2.25" style="stroke:#181818;stroke-width:0.45;" width="152.1" x="160.2" y="199.8"/><ellipse cx="173.7" cy="214.2" fill="#ADD1B2" rx="9.9" ry="9.9" style="stroke:#181818;stroke-width:0.9;"/><path d="M173.7422,219.7828 C175.0922,219.7828 176.2031,219.2766 177.0188,218.3203 L175.7813,216.9563 C175.2891,217.4906 174.6984,217.8422 173.9813,217.8422 C172.4766,217.8422 171.4359,216.6469 171.4359,214.5938 C171.4359,212.5969 172.4766,211.3875 173.8828,211.3875 C174.6141,211.3875 175.1484,211.6688 175.6266,212.1047 L176.8641,210.7125 C176.1891,210.0516 175.1484,209.4469 173.8828,209.4469 C171.225,209.4469 169.1297,211.3734 169.1297,214.6781 C169.1297,218.025 171.2672,219.7828 173.7422,219.7828 Z " fill="#000000"/><text fill="#000000" font-family="sans-serif" font-size="12.6" lengthAdjust="spacing" textLength="123.3" x="186.3" y="218.5066">EveMeasureMetadata</text><line style="stroke:#181818;stroke-width:0.45;" x1="161.1" x2="311.4" y1="228.6" y2="228.6"/><text fill="#000000" font-family="sans-serif" font-size="12.6" lengthAdjust="spacing" textLength="63" x="165.6" y="243.8895">unit : String</text><line style="stroke:#181818;stroke-width:0.45;" x1="161.1" x2="311.4" y1="250.5656" y2="250.5656"/></g><!--class EveMonitorMetadata--><g id="elem_EveMonitorMetadata"><rect codeLine="26" fill="#F1F1F1" height="43.2" id="EveMonitorMetadata" rx="2.25" ry="2.25" style="stroke:#181818;stroke-width:0.45;" width="147.6" x="344.25" y="207"/><ellipse cx="357.75" cy="221.4" fill="#ADD1B2" rx="9.9" ry="9.9" style="stroke:#181818;stroke-width:0.9;"/><path d="M357.7922,226.9828 C359.1422,226.9828 360.2531,226.4766 361.0688,225.5203 L359.8313,224.1563 C359.3391,224.6906 358.7484,225.0422 358.0313,225.0422 C356.5266,225.0422 355.4859,223.8469 355.4859,221.7938 C355.4859,219.7969 356.5266,218.5875 357.9328,218.5875 C358.6641,218.5875 359.1984,218.8688 359.6766,219.3047 L360.9141,217.9125 C360.2391,217.2516 359.1984,216.6469 357.9328,216.6469 C355.275,216.6469 353.1797,218.5734 353.1797,221.8781 C353.1797,225.225 355.3172,226.9828 357.7922,226.9828 Z " fill="#000000"/><text fill="#000000" font-family="sans-serif" font-size="12.6" lengthAdjust="spacing" textLength="118.8" x="370.35" y="225.7066">EveMonitorMetadata</text><line style="stroke:#181818;stroke-width:0.45;" x1="345.15" x2="490.95" y1="235.8" y2="235.8"/><line style="stroke:#181818;stroke-width:0.45;" x1="345.15" x2="490.95" y1="243" y2="243"/></g><!--class EveMotorMetadata--><g id="elem_EveMotorMetadata"><rect codeLine="29" fill="#F1F1F1" height="43.2" id="EveMotorMetadata" rx="2.25" ry="2.25" style="stroke:#181818;stroke-width:0.45;" width="137.7" x="167.4" y="341.1"/><ellipse cx="180.9" cy="355.5" fill="#ADD1B2" rx="9.9" ry="9.9" style="stroke:#181818;stroke-width:0.9;"/><path d="M180.9422,361.0828 C182.2922,361.0828 183.4031,360.5766 184.2188,359.6203 L182.9813,358.2563 C182.4891,358.7906 181.8984,359.1422 181.1813,359.1422 C179.6766,359.1422 178.6359,357.9469 178.6359,355.8938 C178.6359,353.8969 179.6766,352.6875 181.0828,352.6875 C181.8141,352.6875 182.3484,352.9688 182.8266,353.4047 L184.0641,352.0125 C183.3891,351.3516 182.3484,350.7469 181.0828,350.7469 C178.425,350.7469 176.3297,352.6734 176.3297,355.9781 C176.3297,359.325 178.4672,361.0828 180.9422,361.0828 Z " fill="#000000"/><text fill="#000000" font-family="sans-serif" font-size="12.6" lengthAdjust="spacing" textLength="108.9" x="193.5" y="359.8066">EveMotorMetadata</text><line style="stroke:#181818;stroke-width:0.45;" x1="168.3" x2="304.2" y1="369.9" y2="369.9"/><line style="stroke:#181818;stroke-width:0.45;" x1="168.3" x2="304.2" y1="377.1" y2="377.1"/></g><!--class EveDetectorMetadata--><g id="elem_EveDetectorMetadata"><rect codeLine="32" fill="#F1F1F1" height="57.9656" id="EveDetectorMetadata" rx="2.25" ry="2.25" style="stroke:#181818;stroke-width:0.45;" width="151.2" x="337.05" y="333.9"/><ellipse cx="350.55" cy="348.3" fill="#ADD1B2" rx="9.9" ry="9.9" style="stroke:#181818;stroke-width:0.9;"/><path d="M350.5922,353.8828 C351.9422,353.8828 353.0531,353.3766 353.8688,352.4203 L352.6313,351.0563 C352.1391,351.5906 351.5484,351.9422 350.8313,351.9422 C349.3266,351.9422 348.2859,350.7469 348.2859,348.6938 C348.2859,346.6969 349.3266,345.4875 350.7328,345.4875 C351.4641,345.4875 351.9984,345.7688 352.4766,346.2047 L353.7141,344.8125 C353.0391,344.1516 351.9984,343.5469 350.7328,343.5469 C348.075,343.5469 345.9797,345.4734 345.9797,348.7781 C345.9797,352.125 348.1172,353.8828 350.5922,353.8828 Z " fill="#000000"/><text fill="#000000" font-family="sans-serif" font-size="12.6" lengthAdjust="spacing" textLength="122.4" x="363.15" y="352.6066">EveDetectorMetadata</text><line style="stroke:#181818;stroke-width:0.45;" x1="337.95" x2="487.35" y1="362.7" y2="362.7"/><text fill="#000000" font-family="sans-serif" font-size="12.6" lengthAdjust="spacing" textLength="111.6" x="342.45" y="377.9895">normalise_id : String</text><line style="stroke:#181818;stroke-width:0.45;" x1="337.95" x2="487.35" y1="384.6656" y2="384.6656"/></g><!--class EveAverageDetectorMetadata--><g id="elem_EveAverageDetectorMetadata"><rect codeLine="36" fill="#F1F1F1" height="102.2625" id="EveAverageDetectorMetadata" rx="2.25" ry="2.25" style="stroke:#181818;stroke-width:0.45;" width="197.1" x="200.7" y="445.5"/><ellipse cx="214.2" cy="459.9" fill="#ADD1B2" rx="9.9" ry="9.9" style="stroke:#181818;stroke-width:0.9;"/><path d="M214.2422,465.4828 C215.5922,465.4828 216.7031,464.9766 217.5188,464.0203 L216.2813,462.6563 C215.7891,463.1906 215.1984,463.5422 214.4813,463.5422 C212.9766,463.5422 211.9359,462.3469 211.9359,460.2938 C211.9359,458.2969 212.9766,457.0875 214.3828,457.0875 C215.1141,457.0875 215.6484,457.3688 216.1266,457.8047 L217.3641,456.4125 C216.6891,455.7516 215.6484,455.1469 214.3828,455.1469 C211.725,455.1469 209.6297,457.0734 209.6297,460.3781 C209.6297,463.725 211.7672,465.4828 214.2422,465.4828 Z " fill="#000000"/><text fill="#000000" font-family="sans-serif" font-size="12.6" lengthAdjust="spacing" textLength="168.3" x="226.8" y="464.2066">EveAverageDetectorMetadata</text><line style="stroke:#181818;stroke-width:0.45;" x1="201.6" x2="396.9" y1="474.3" y2="474.3"/><text fill="#000000" font-family="sans-serif" font-size="12.6" lengthAdjust="spacing" textLength="86.4" x="206.1" y="489.5895">n_averages : int</text><text fill="#000000" font-family="sans-serif" font-size="12.6" lengthAdjust="spacing" textLength="82.8" x="206.1" y="504.3551">low_limit : float</text><text fill="#000000" font-family="sans-serif" font-size="12.6" lengthAdjust="spacing" textLength="103.5" x="206.1" y="519.1207">max_attempts : int</text><text fill="#000000" font-family="sans-serif" font-size="12.6" lengthAdjust="spacing" textLength="115.2" x="206.1" y="533.8863">max_deviation : float</text><line style="stroke:#181818;stroke-width:0.45;" x1="201.6" x2="396.9" y1="540.5625" y2="540.5625"/></g><!--class EveIntervalDetectorMetadata--><g id="elem_EveIntervalDetectorMetadata"><rect codeLine="43" fill="#F1F1F1" height="57.9656" id="EveIntervalDetectorMetadata" rx="2.25" ry="2.25" style="stroke:#181818;stroke-width:0.45;" width="193.5" x="429.3" y="468"/><ellipse cx="442.8" cy="482.4" fill="#ADD1B2" rx="9.9" ry="9.9" style="stroke:#181818;stroke-width:0.9;"/><path d="M442.8422,487.9828 C444.1922,487.9828 445.3031,487.4766 446.1188,486.5203 L444.8813,485.1563 C444.3891,485.6906 443.7984,486.0422 443.0813,486.0422 C441.5766,486.0422 440.5359,484.8469 440.5359,482.7938 C440.5359,480.7969 441.5766,479.5875 442.9828,479.5875 C443.7141,479.5875 444.2484,479.8688 444.7266,480.3047 L445.9641,478.9125 C445.2891,478.2516 444.2484,477.6469 442.9828,477.6469 C440.325,477.6469 438.2297,479.5734 438.2297,482.8781 C438.2297,486.225 440.3672,487.9828 442.8422,487.9828 Z " fill="#000000"/><text fill="#000000" font-family="sans-serif" font-size="12.6" lengthAdjust="spacing" textLength="164.7" x="455.4" y="486.7066">EveIntervalDetectorMetadata</text><line style="stroke:#181818;stroke-width:0.45;" x1="430.2" x2="621.9" y1="496.8" y2="496.8"/><text fill="#000000" font-family="sans-serif" font-size="12.6" lengthAdjust="spacing" textLength="117.9" x="434.7" y="512.0895">trigger_interval : float</text><line style="stroke:#181818;stroke-width:0.45;" x1="430.2" x2="621.9" y1="518.7656" y2="518.7656"/></g><!--reverse link EveMetadata to EveData--><g id="link_EveMetadata_EveData"><path codeLine="47" d="M173.5562,131.3068 C145.7732,160.3858 121.284,186.012 101.232,207 " fill="none" id="EveMetadata-backto-EveData" style="stroke:#181818;stroke-width:0.9;"/><polygon fill="#181818" points="181.017,123.498,174.6837,124.9155,173.5562,131.3068,179.8895,129.8893,181.017,123.498" style="stroke:#181818;stroke-width:0.9;"/></g><!--reverse link EveMetadata to EveMeasureMetadata--><g id="link_EveMetadata_EveMeasureMetadata"><path codeLine="48" d="M236.25,139.698 C236.25,165.51 236.25,178.542 236.25,199.467 " fill="none" id="EveMetadata-backto-EveMeasureMetadata" style="stroke:#181818;stroke-width:0.9;"/><polygon fill="none" points="236.25,123.498,230.85,139.698,241.65,139.698,236.25,123.498" style="stroke:#181818;stroke-width:0.9;"/></g><!--reverse link EveMetadata to EveMonitorMetadata--><g id="link_EveMetadata_EveMonitorMetadata"><path codeLine="49" d="M313.208,134.2754 C345.842,163.3544 371.268,186.012 394.821,207 " fill="none" id="EveMetadata-backto-EveMonitorMetadata" style="stroke:#181818;stroke-width:0.9;"/><polygon fill="none" points="301.113,123.498,309.6155,138.307,316.8004,130.2437,301.113,123.498" style="stroke:#181818;stroke-width:0.9;"/></g><!--reverse link EveMeasureMetadata to EveDetectorMetadata--><g id="link_EveMeasureMetadata_EveDetectorMetadata"><path codeLine="50" d="M286.6221,267.2742 C316.5561,289.7292 345.375,311.346 375.291,333.783 " fill="none" id="EveMeasureMetadata-backto-EveDetectorMetadata" style="stroke:#181818;stroke-width:0.9;"/><polygon fill="none" points="273.663,257.553,283.3816,271.5939,289.8625,262.9546,273.663,257.553" style="stroke:#181818;stroke-width:0.9;"/></g><!--reverse link EveMeasureMetadata to EveMotorMetadata--><g id="link_EveMeasureMetadata_EveMotorMetadata"><path codeLine="51" d="M236.25,273.753 C236.25,298.638 236.25,318.222 236.25,340.731 " fill="none" id="EveMeasureMetadata-backto-EveMotorMetadata" style="stroke:#181818;stroke-width:0.9;"/><polygon fill="none" points="236.25,257.553,230.85,273.753,241.65,273.753,236.25,257.553" style="stroke:#181818;stroke-width:0.9;"/></g><!--reverse link EveDetectorMetadata to EveAverageDetectorMetadata--><g id="link_EveDetectorMetadata_EveAverageDetectorMetadata"><path codeLine="52" d="M378.0627,403.956 C364.6707,419.589 358.128,427.212 342.495,445.446 " fill="none" id="EveDetectorMetadata-backto-EveAverageDetectorMetadata" style="stroke:#181818;stroke-width:0.9;"/><polygon fill="none" points="388.602,391.653,373.9617,400.4428,382.1637,407.4691,388.602,391.653" style="stroke:#181818;stroke-width:0.9;"/></g><!--reverse link EveDetectorMetadata to EveIntervalDetectorMetadata--><g id="link_EveDetectorMetadata_EveIntervalDetectorMetadata"><path codeLine="53" d="M447.2392,403.9543 C466.4812,426.4093 482.796,445.446 502.038,467.883 " fill="none" id="EveDetectorMetadata-backto-EveIntervalDetectorMetadata" style="stroke:#181818;stroke-width:0.9;"/><polygon fill="none" points="436.698,391.653,443.1387,407.4681,451.3396,400.4406,436.698,391.653" style="stroke:#181818;stroke-width:0.9;"/></g><!--SRC=[VLB1RgCm4BtxA-PSgNlhfTfBf5Hg3YHLmp4Ici80bkmniYViHjt- -ne8ga59ELYUDs_intik3OO0Bprb95YX87mgY9-ku1cEuZKtOyreQObq_R8MZnmwvwMGIxVY1Yf5Enx0QQU-b2hdgxVJjL-AdH1yE15d1oR5kGuzHh3Is7Yq9wwTXscmrUJHb-r5AUApdK- -wZ_cc_rsyxwTYltcxVXwoCSYE-nt-U5ztEUxx2KoixVvSd7TC-Gj1Per1x1uWHRxGKHTaoUM4mzs1D0CqXBKcj70Q9vr5PaJ8rV0H75n0fvg4yyQgTJJwnC4yUTIpfv-9IvaX252gnpEhENRozIrpCMMypF_SzLCMh3iRKcYd4LxJDXvYqO7AjBiqy5D7nrlxiuNEFL3dDOi8sZSdy9eE_v3RHnEgCM_1OgGxIGb3t15lSRhMva6KWKx5l8zcZiIekIc8L_eAoqz8ttY3u-FyxjRuB__JOrL5BSvI_lLZGHdwbhjJzn5SEfMMZFpJXe_pjppJwd_]--></g></svg>