<?xml version="1.0" encoding="us-ascii" standalone="no"?><svg xmlns="http://www.w3.org/2000/svg" xmlns:xlink="http://www.w3.org/1999/xlink" contentStyleType="text/css" height="304px" preserveAspectRatio="none" style="width:944px;height:304px;background:#FFFFFF;" version="1.1" viewBox="0 0 944 304" width="944px" zoomAndPan="magnify"><defs/><g><!--class VersionMapperFactory--><g id="elem_VersionMapperFactory"><rect codeLine="3" fill="#F1F1F1" height="80.5938" id="VersionMapperFactory" rx="2.5" ry="2.5" style="stroke:#181818;stroke-width:0.5;" width="193" x="744.5" y="31"/><ellipse cx="759.5" cy="47" fill="#ADD1B2" rx="11" ry="11" style="stroke:#181818;stroke-width:1.0;"/><path d="M762.4844,52.6406 Q761.9063,52.9375 761.2656,53.0781 Q760.625,53.2344 759.9219,53.2344 Q757.4063,53.2344 756.0781,51.5938 Q754.7656,49.9375 754.7656,46.8125 Q754.7656,43.6719 756.0781,42.0313 Q757.4063,40.375 759.9219,40.375 Q760.625,40.375 761.2656,40.5313 Q761.9219,40.6719 762.4844,40.9688 L762.4844,43.6875 Q761.8438,43.1094 761.25,42.8438 Q760.6563,42.5781 760.0313,42.5781 Q758.6875,42.5781 758,43.6406 Q757.3125,44.7031 757.3125,46.8125 Q757.3125,48.9063 758,49.9844 Q758.6875,51.0469 760.0313,51.0469 Q760.6563,51.0469 761.25,50.7813 Q761.8438,50.5 762.4844,49.9219 L762.4844,52.6406 Z " fill="#000000"/><text fill="#000000" font-family="sans-serif" font-size="14" lengthAdjust="spacing" textLength="161" x="773.5" y="51.8467">VersionMapperFactory</text><line style="stroke:#181818;stroke-width:0.5;" x1="745.5" x2="936.5" y1="63" y2="63"/><ellipse cx="755.5" cy="76.6484" fill="none" rx="3" ry="3" style="stroke:#038048;stroke-width:1.0;"/><text fill="#000000" font-family="sans-serif" font-size="14" lengthAdjust="spacing" textLength="85" x="764.5" y="79.9951">scml : SCML</text><line style="stroke:#181818;stroke-width:0.5;" x1="745.5" x2="936.5" y1="87.2969" y2="87.2969"/><ellipse cx="755.5" cy="100.9453" fill="#84BE84" rx="3" ry="3" style="stroke:#038048;stroke-width:1.0;"/><text fill="#000000" font-family="sans-serif" font-size="14" lengthAdjust="spacing" textLength="96" x="764.5" y="104.292">get_mapper()</text></g><!--class VersionMapper--><g id="elem_VersionMapper"><rect codeLine="8" fill="#F1F1F1" height="113.1875" id="VersionMapper" rx="2.5" ry="2.5" style="stroke:#181818;stroke-width:0.5;" width="216" x="287" y="15"/><ellipse cx="336.75" cy="31" fill="#ADD1B2" rx="11" ry="11" style="stroke:#181818;stroke-width:1.0;"/><path d="M339.7344,36.6406 Q339.1563,36.9375 338.5156,37.0781 Q337.875,37.2344 337.1719,37.2344 Q334.6563,37.2344 333.3281,35.5938 Q332.0156,33.9375 332.0156,30.8125 Q332.0156,27.6719 333.3281,26.0313 Q334.6563,24.375 337.1719,24.375 Q337.875,24.375 338.5156,24.5313 Q339.1719,24.6719 339.7344,24.9688 L339.7344,27.6875 Q339.0938,27.1094 338.5,26.8438 Q337.9063,26.5781 337.2813,26.5781 Q335.9375,26.5781 335.25,27.6406 Q334.5625,28.7031 334.5625,30.8125 Q334.5625,32.9063 335.25,33.9844 Q335.9375,35.0469 337.2813,35.0469 Q337.9063,35.0469 338.5,34.7813 Q339.0938,34.5 339.7344,33.9219 L339.7344,36.6406 Z " fill="#000000"/><text fill="#000000" font-family="sans-serif" font-size="14" lengthAdjust="spacing" textLength="108" x="357.25" y="35.8467">VersionMapper</text><line style="stroke:#181818;stroke-width:0.5;" x1="288" x2="502" y1="47" y2="47"/><ellipse cx="298" cy="60.6484" fill="none" rx="3" ry="3" style="stroke:#038048;stroke-width:1.0;"/><text fill="#000000" font-family="sans-serif" font-size="14" lengthAdjust="spacing" textLength="100" x="307" y="63.9951">source : SCML</text><ellipse cx="298" cy="76.9453" fill="none" rx="3" ry="3" style="stroke:#038048;stroke-width:1.0;"/><text fill="#000000" font-family="sans-serif" font-size="14" lengthAdjust="spacing" textLength="190" x="307" y="80.292">destination : Scan | Station</text><rect fill="none" height="6" style="stroke:#C82930;stroke-width:1.0;" width="6" x="295" y="90.2422"/><text fill="#000000" font-family="sans-serif" font-size="14" lengthAdjust="spacing" textLength="144" x="307" y="96.5889">_mapping : Mapping</text><line style="stroke:#181818;stroke-width:0.5;" x1="288" x2="502" y1="103.8906" y2="103.8906"/><ellipse cx="298" cy="117.5391" fill="#84BE84" rx="3" ry="3" style="stroke:#038048;stroke-width:1.0;"/><text fill="#000000" font-family="sans-serif" font-size="14" lengthAdjust="spacing" textLength="42" x="307" y="120.8857">map()</text></g><g id="elem_GMN4"><path d="M36,6 L36,137.0625 A0,0 0 0 0 36,137.0625 L252,137.0625 A0,0 0 0 0 252,137.0625 L252,75.5 L286.89,71.5 L252,67.5 L252,16 L242,6 L36,6 A0,0 0 0 0 36,6 " fill="#FEFFDD" style="stroke:#181818;stroke-width:0.5;"/><path d="M242,6 L242,16 L252,16 L242,6 " fill="#FEFFDD" style="stroke:#181818;stroke-width:0.5;"/><text fill="#000000" font-family="sans-serif" font-size="13" lengthAdjust="spacing" textLength="122" x="42" y="23.0669">For Scan and SCML</text><text fill="#000000" font-family="sans-serif" font-size="13" lengthAdjust="spacing" textLength="180" x="42" y="38.1997">see the respective modules</text><text fill="#000000" font-family="sans-serif" font-size="13" lengthAdjust="spacing" textLength="187" x="42" y="53.3325">implementing these classes.</text><text fill="#000000" font-family="sans-serif" font-size="13" lengthAdjust="spacing" textLength="8" x="42" y="68.4653">&#160;</text><text fill="#000000" font-family="sans-serif" font-size="13" lengthAdjust="spacing" textLength="179" x="42" y="83.5981">VersionMapper implements</text><text fill="#000000" font-family="sans-serif" font-size="13" lengthAdjust="spacing" textLength="159" x="42" y="98.731">that part of the mapping</text><text fill="#000000" font-family="sans-serif" font-size="13" lengthAdjust="spacing" textLength="180" x="42" y="113.8638">functionality common to all</text><text fill="#000000" font-family="sans-serif" font-size="13" lengthAdjust="spacing" textLength="195" x="42" y="128.9966">versions of the SCML schema.</text></g><!--class Mapping--><g id="elem_Mapping"><rect codeLine="25" fill="#F1F1F1" height="96.8906" id="Mapping" rx="2.5" ry="2.5" style="stroke:#181818;stroke-width:0.5;" width="171" x="538.5" y="23"/><ellipse cx="589.25" cy="39" fill="#ADD1B2" rx="11" ry="11" style="stroke:#181818;stroke-width:1.0;"/><path d="M592.2344,44.6406 Q591.6563,44.9375 591.0156,45.0781 Q590.375,45.2344 589.6719,45.2344 Q587.1563,45.2344 585.8281,43.5938 Q584.5156,41.9375 584.5156,38.8125 Q584.5156,35.6719 585.8281,34.0313 Q587.1563,32.375 589.6719,32.375 Q590.375,32.375 591.0156,32.5313 Q591.6719,32.6719 592.2344,32.9688 L592.2344,35.6875 Q591.5938,35.1094 591,34.8438 Q590.4063,34.5781 589.7813,34.5781 Q588.4375,34.5781 587.75,35.6406 Q587.0625,36.7031 587.0625,38.8125 Q587.0625,40.9063 587.75,41.9844 Q588.4375,43.0469 589.7813,43.0469 Q590.4063,43.0469 591,42.7813 Q591.5938,42.5 592.2344,41.9219 L592.2344,44.6406 Z " fill="#000000"/><text fill="#000000" font-family="sans-serif" font-size="14" lengthAdjust="spacing" textLength="61" x="609.75" y="43.8467">Mapping</text><line style="stroke:#181818;stroke-width:0.5;" x1="539.5" x2="708.5" y1="55" y2="55"/><ellipse cx="549.5" cy="68.6484" fill="none" rx="3" ry="3" style="stroke:#038048;stroke-width:1.0;"/><text fill="#000000" font-family="sans-serif" font-size="14" lengthAdjust="spacing" textLength="116" x="558.5" y="71.9951">filename : string</text><ellipse cx="549.5" cy="84.9453" fill="none" rx="3" ry="3" style="stroke:#038048;stroke-width:1.0;"/><text fill="#000000" font-family="sans-serif" font-size="14" lengthAdjust="spacing" textLength="145" x="558.5" y="88.292">mapping_table : dict</text><line style="stroke:#181818;stroke-width:0.5;" x1="539.5" x2="708.5" y1="95.5938" y2="95.5938"/><ellipse cx="549.5" cy="109.2422" fill="#84BE84" rx="3" ry="3" style="stroke:#038048;stroke-width:1.0;"/><text fill="#000000" font-family="sans-serif" font-size="14" lengthAdjust="spacing" textLength="41" x="558.5" y="112.5889">load()</text></g><!--class VersionMapperVxmy--><g id="elem_VersionMapperVxmy"><rect codeLine="33" fill="#F1F1F1" height="48" id="VersionMapperVxmy" rx="2.5" ry="2.5" style="stroke:#181818;stroke-width:0.5;" width="180" x="305" y="223.5"/><ellipse cx="320" cy="239.5" fill="#ADD1B2" rx="11" ry="11" style="stroke:#181818;stroke-width:1.0;"/><path d="M322.9844,245.1406 Q322.4063,245.4375 321.7656,245.5781 Q321.125,245.7344 320.4219,245.7344 Q317.9063,245.7344 316.5781,244.0938 Q315.2656,242.4375 315.2656,239.3125 Q315.2656,236.1719 316.5781,234.5313 Q317.9063,232.875 320.4219,232.875 Q321.125,232.875 321.7656,233.0313 Q322.4219,233.1719 322.9844,233.4688 L322.9844,236.1875 Q322.3438,235.6094 321.75,235.3438 Q321.1563,235.0781 320.5313,235.0781 Q319.1875,235.0781 318.5,236.1406 Q317.8125,237.2031 317.8125,239.3125 Q317.8125,241.4063 318.5,242.4844 Q319.1875,243.5469 320.5313,243.5469 Q321.1563,243.5469 321.75,243.2813 Q322.3438,243 322.9844,242.4219 L322.9844,245.1406 Z " fill="#000000"/><text fill="#000000" font-family="sans-serif" font-size="14" lengthAdjust="spacing" textLength="148" x="334" y="244.3467">VersionMapperVxmy</text><line style="stroke:#181818;stroke-width:0.5;" x1="306" x2="484" y1="255.5" y2="255.5"/><line style="stroke:#181818;stroke-width:0.5;" x1="306" x2="484" y1="263.5" y2="263.5"/></g><g id="elem_GMN11"><path d="M6,197 L6,297.7969 A0,0 0 0 0 6,297.7969 L270,297.7969 A0,0 0 0 0 270,297.7969 L270,251.5 L304.68,247.5 L270,243.5 L270,207 L260,197 L6,197 A0,0 0 0 0 6,197 " fill="#FEFFDD" style="stroke:#181818;stroke-width:0.5;"/><path d="M260,197 L260,207 L270,207 L260,197 " fill="#FEFFDD" style="stroke:#181818;stroke-width:0.5;"/><text fill="#000000" font-family="sans-serif" font-size="13" lengthAdjust="spacing" textLength="220" x="12" y="214.0669">Most probably, the classes for the</text><text fill="#000000" font-family="sans-serif" font-size="13" lengthAdjust="spacing" textLength="219" x="12" y="229.1997">different SCML schemas are not a</text><text fill="#000000" font-family="sans-serif" font-size="13" lengthAdjust="spacing" textLength="208" x="12" y="244.3325">strict hierarchy, but some direct</text><text fill="#000000" font-family="sans-serif" font-size="13" lengthAdjust="spacing" textLength="193" x="12" y="259.4653">subclasses of VersionMapper.</text><text fill="#000000" font-family="sans-serif" font-size="13" lengthAdjust="spacing" textLength="243" x="12" y="274.5981">Version numbers are MAJORmMINOR,</text><text fill="#000000" font-family="sans-serif" font-size="13" lengthAdjust="spacing" textLength="209" x="12" y="289.731">with x = MAJOR and y = MINOR.</text></g><!--reverse link VersionMapper to Mapping--><g id="link_VersionMapper_Mapping"><path codeLine="31" d="M515.24,71.5 C526.87,71.5 526.51,71.5 538.15,71.5 " fill="none" id="VersionMapper-backto-Mapping" style="stroke:#181818;stroke-width:1.0;"/><polygon fill="#181818" points="503.24,71.5,509.24,75.5,515.24,71.5,509.24,67.5,503.24,71.5" style="stroke:#181818;stroke-width:1.0;"/></g><!--reverse link VersionMapper to VersionMapperVxmy--><g id="link_VersionMapper_VersionMapperVxmy"><path d="M395,146.03 C395,178.26 395,199.14 395,223.35 " fill="none" id="VersionMapper-backto-VersionMapperVxmy" style="stroke:#181818;stroke-width:1.0;"/><polygon fill="none" points="395,128.03,389,146.03,401,146.03,395,128.03" style="stroke:#181818;stroke-width:1.0;"/></g><!--SRC=[VL9DRzim3BtxL_2sTckIUu4UXW45DjGhq0Az5hHCnmBqOOXq5wFRVwz49Mco5VD94X_v-Dxpfr5auklDPd8OPFPkRQBV68VCgzxYDg5l6ht24oMsCRGuJPHkqKXC2xmsaBylRBo3QtZyrjxLXot9irVanMNpvyCHnzuu9qDdtJsns82IiUNTO83Vy2Zwe8YL3hTXcyjjFTNE_Ao48Gg1eq4W3kUqYhkDgOx5qB_pCX78I9289p9YNmXyx6T7h6Nh9qUUWXJUZ6C2bKMyRXHmBky8hzqoei24IJSgBFvaxs4EfeX3PsM1787FoYK2EgVrbpgP3xrbPM0paiTrGw4lSWycx_qus3jOHm5zCPWbdHfLKC-2dIkrtXgf5HUnhw6Tw_cyEbhzKPnFExy0xIHlys_G_mkaD2fp6paxb6ANLrgkLEVUNnXoNlckiDuE0wNiwwaB39W8CWbWZJ9BDGAZfOJ9Z7bSDmjmp3xqDj5UAy_TWU7lhTQdYKAOVPUFIj9-_N7_uDllF-yVhXJqoye8ExYf5Vsbbd8hYFTqtW00]--></g></svg>