<?xml version="1.0" encoding="us-ascii" standalone="no"?><svg xmlns="http://www.w3.org/2000/svg" xmlns:xlink="http://www.w3.org/1999/xlink" contentStyleType="text/css" height="652px" preserveAspectRatio="none" style="width:881px;height:652px;background:#FFFFFF;" version="1.1" viewBox="0 0 881 652" width="881px" zoomAndPan="magnify"><defs/><g><!--cluster scan--><g id="cluster_scan"><path d="M573,6 L604,6 A3.75,3.75 0 0 1 606.5,8.5 L613.5,28.4063 L872,28.4063 A2.5,2.5 0 0 1 874.5,30.9063 L874.5,236.5 A2.5,2.5 0 0 1 872,239 L573,239 A2.5,2.5 0 0 1 570.5,236.5 L570.5,8.5 A2.5,2.5 0 0 1 573,6 " fill="none" style="stroke:#000000;stroke-width:1.5;"/><line style="stroke:#000000;stroke-width:1.5;" x1="570.5" x2="613.5" y1="28.4063" y2="28.4063"/><text fill="#000000" font-family="sans-serif" font-size="14" font-weight="bold" lengthAdjust="spacing" textLength="30" x="574.5" y="20.9883">scan</text></g><!--cluster boundaries--><g id="cluster_boundaries"><path d="M597,49 L670,49 A3.75,3.75 0 0 1 672.5,51.5 L679.5,71.4063 L848,71.4063 A2.5,2.5 0 0 1 850.5,73.9063 L850.5,212.5 A2.5,2.5 0 0 1 848,215 L597,215 A2.5,2.5 0 0 1 594.5,212.5 L594.5,51.5 A2.5,2.5 0 0 1 597,49 " fill="none" style="stroke:#000000;stroke-width:1.5;"/><line style="stroke:#000000;stroke-width:1.5;" x1="594.5" x2="679.5" y1="71.4063" y2="71.4063"/><text fill="#000000" font-family="sans-serif" font-size="14" font-weight="bold" lengthAdjust="spacing" textLength="72" x="598.5" y="63.9883">boundaries</text></g><!--cluster scan--><g id="cluster_scan"><path d="M621,92 L652,92 A3.75,3.75 0 0 1 654.5,94.5 L661.5,114.4063 L824,114.4063 A2.5,2.5 0 0 1 826.5,116.9063 L826.5,188.5 A2.5,2.5 0 0 1 824,191 L621,191 A2.5,2.5 0 0 1 618.5,188.5 L618.5,94.5 A2.5,2.5 0 0 1 621,92 " fill="none" style="stroke:#000000;stroke-width:1.5;"/><line style="stroke:#000000;stroke-width:1.5;" x1="618.5" x2="661.5" y1="114.4063" y2="114.4063"/><text fill="#000000" font-family="sans-serif" font-size="14" font-weight="bold" lengthAdjust="spacing" textLength="30" x="622.5" y="106.9883">scan</text></g><!--class Scan--><g id="elem_Scan"><rect fill="#F1F1F1" height="48" id="Scan" rx="2.5" ry="2.5" style="stroke:#181818;stroke-width:0.5;" width="63" x="747" y="127"/><ellipse cx="762" cy="143" fill="#ADD1B2" rx="11" ry="11" style="stroke:#181818;stroke-width:1.0;"/><path d="M762.0469,149.2031 C763.5469,149.2031 764.7813,148.6406 765.6875,147.5781 L764.3125,146.0625 C763.7656,146.6563 763.1094,147.0469 762.3125,147.0469 C760.6406,147.0469 759.4844,145.7188 759.4844,143.4375 C759.4844,141.2188 760.6406,139.875 762.2031,139.875 C763.0156,139.875 763.6094,140.1875 764.1406,140.6719 L765.5156,139.125 C764.7656,138.3906 763.6094,137.7188 762.2031,137.7188 C759.25,137.7188 756.9219,139.8594 756.9219,143.5313 C756.9219,147.25 759.2969,149.2031 762.0469,149.2031 Z " fill="#000000"/><text fill="#000000" font-family="sans-serif" font-size="14" lengthAdjust="spacing" textLength="31" x="776" y="147.7852">Scan</text><line style="stroke:#181818;stroke-width:0.5;" x1="748" x2="809" y1="159" y2="159"/><line style="stroke:#181818;stroke-width:0.5;" x1="748" x2="809" y1="167" y2="167"/></g><!--class Station--><g id="elem_Station"><rect fill="#F1F1F1" height="48" id="Station" rx="2.5" ry="2.5" style="stroke:#181818;stroke-width:0.5;" width="77" x="635" y="127"/><ellipse cx="650" cy="143" fill="#ADD1B2" rx="11" ry="11" style="stroke:#181818;stroke-width:1.0;"/><path d="M650.0469,149.2031 C651.5469,149.2031 652.7813,148.6406 653.6875,147.5781 L652.3125,146.0625 C651.7656,146.6563 651.1094,147.0469 650.3125,147.0469 C648.6406,147.0469 647.4844,145.7188 647.4844,143.4375 C647.4844,141.2188 648.6406,139.875 650.2031,139.875 C651.0156,139.875 651.6094,140.1875 652.1406,140.6719 L653.5156,139.125 C652.7656,138.3906 651.6094,137.7188 650.2031,137.7188 C647.25,137.7188 644.9219,139.8594 644.9219,143.5313 C644.9219,147.25 647.2969,149.2031 650.0469,149.2031 Z " fill="#000000"/><text fill="#000000" font-family="sans-serif" font-size="14" lengthAdjust="spacing" textLength="45" x="664" y="147.7852">Station</text><line style="stroke:#181818;stroke-width:0.5;" x1="636" x2="711" y1="159" y2="159"/><line style="stroke:#181818;stroke-width:0.5;" x1="636" x2="711" y1="167" y2="167"/></g><!--class File--><g id="elem_File"><rect codeLine="2" fill="#F1F1F1" height="179.25" id="File" rx="2.5" ry="2.5" style="stroke:#181818;stroke-width:0.5;" width="251" x="303" y="61.5"/><ellipse cx="413.75" cy="77.5" fill="#ADD1B2" rx="11" ry="11" style="stroke:#181818;stroke-width:1.0;"/><path d="M413.7969,83.7031 C415.2969,83.7031 416.5313,83.1406 417.4375,82.0781 L416.0625,80.5625 C415.5156,81.1563 414.8594,81.5469 414.0625,81.5469 C412.3906,81.5469 411.2344,80.2188 411.2344,77.9375 C411.2344,75.7188 412.3906,74.375 413.9531,74.375 C414.7656,74.375 415.3594,74.6875 415.8906,75.1719 L417.2656,73.625 C416.5156,72.8906 415.3594,72.2188 413.9531,72.2188 C411,72.2188 408.6719,74.3594 408.6719,78.0313 C408.6719,81.75 411.0469,83.7031 413.7969,83.7031 Z " fill="#000000"/><text fill="#000000" font-family="sans-serif" font-size="14" lengthAdjust="spacing" textLength="21" x="434.25" y="82.2852">File</text><line style="stroke:#181818;stroke-width:0.5;" x1="304" x2="553" y1="93.5" y2="93.5"/><text fill="#000000" font-family="sans-serif" font-size="14" lengthAdjust="spacing" textLength="131" x="309" y="110.4883">metadata : Metadata</text><text fill="#000000" font-family="sans-serif" font-size="14" lengthAdjust="spacing" textLength="185" x="309" y="126.8945">log_messages : LogMessage[]</text><text fill="#000000" font-family="sans-serif" font-size="14" lengthAdjust="spacing" textLength="70" x="309" y="143.3008">scan : Scan</text><text fill="#000000" font-family="sans-serif" font-size="14" lengthAdjust="spacing" textLength="98" x="309" y="159.707">station : Station</text><text fill="#000000" font-family="sans-serif" font-size="14" lengthAdjust="spacing" textLength="78" x="309" y="176.1133">data : Data{}</text><text fill="#000000" font-family="sans-serif" font-size="14" lengthAdjust="spacing" textLength="115" x="309" y="192.5195">snapshots : Data{}</text><text fill="#000000" font-family="sans-serif" font-size="14" lengthAdjust="spacing" textLength="105" x="309" y="208.9258">monitors : Data{}</text><text fill="#000000" font-family="sans-serif" font-size="14" lengthAdjust="spacing" textLength="239" x="309" y="225.332">position_timestamps : TimestampData</text><line style="stroke:#181818;stroke-width:0.5;" x1="304" x2="553" y1="232.75" y2="232.75"/></g><!--class Data--><g id="elem_Data"><rect fill="#F1F1F1" height="48" id="Data" rx="2.5" ry="2.5" style="stroke:#181818;stroke-width:0.5;" width="62" x="481.5" y="399"/><ellipse cx="496.5" cy="415" fill="#ADD1B2" rx="11" ry="11" style="stroke:#181818;stroke-width:1.0;"/><path d="M496.5469,421.2031 C498.0469,421.2031 499.2813,420.6406 500.1875,419.5781 L498.8125,418.0625 C498.2656,418.6563 497.6094,419.0469 496.8125,419.0469 C495.1406,419.0469 493.9844,417.7188 493.9844,415.4375 C493.9844,413.2188 495.1406,411.875 496.7031,411.875 C497.5156,411.875 498.1094,412.1875 498.6406,412.6719 L500.0156,411.125 C499.2656,410.3906 498.1094,409.7188 496.7031,409.7188 C493.75,409.7188 491.4219,411.8594 491.4219,415.5313 C491.4219,419.25 493.7969,421.2031 496.5469,421.2031 Z " fill="#000000"/><text fill="#000000" font-family="sans-serif" font-size="14" lengthAdjust="spacing" textLength="30" x="510.5" y="419.7852">Data</text><line style="stroke:#181818;stroke-width:0.5;" x1="482.5" x2="542.5" y1="431" y2="431"/><line style="stroke:#181818;stroke-width:0.5;" x1="482.5" x2="542.5" y1="439" y2="439"/></g><g id="elem_GMN5"><path d="M457,605.5 L457,645.9688 A0,0 0 0 0 457,645.9688 L568,645.9688 A0,0 0 0 0 568,645.9688 L568,615.5 L558,605.5 L516.5,605.5 L512.5,447.39 L508.5,605.5 L457,605.5 A0,0 0 0 0 457,605.5 " fill="#FEFFDD" style="stroke:#181818;stroke-width:0.5;"/><path d="M558,605.5 L558,615.5 L568,615.5 L558,605.5 " fill="#FEFFDD" style="stroke:#181818;stroke-width:0.5;"/><text fill="#000000" font-family="sans-serif" font-size="13" lengthAdjust="spacing" textLength="90" x="463" y="622.5605">See diagram for</text><text fill="#000000" font-family="sans-serif" font-size="13" lengthAdjust="spacing" textLength="73" x="463" y="637.7949">data module.</text></g><!--class Metadata--><g id="elem_Metadata"><rect codeLine="16" fill="#F1F1F1" height="244.875" id="Metadata" rx="2.5" ry="2.5" style="stroke:#181818;stroke-width:0.5;" width="261" x="7" y="300.5"/><ellipse cx="102.75" cy="316.5" fill="#ADD1B2" rx="11" ry="11" style="stroke:#181818;stroke-width:1.0;"/><path d="M102.7969,322.7031 C104.2969,322.7031 105.5313,322.1406 106.4375,321.0781 L105.0625,319.5625 C104.5156,320.1563 103.8594,320.5469 103.0625,320.5469 C101.3906,320.5469 100.2344,319.2188 100.2344,316.9375 C100.2344,314.7188 101.3906,313.375 102.9531,313.375 C103.7656,313.375 104.3594,313.6875 104.8906,314.1719 L106.2656,312.625 C105.5156,311.8906 104.3594,311.2188 102.9531,311.2188 C100,311.2188 97.6719,313.3594 97.6719,317.0313 C97.6719,320.75 100.0469,322.7031 102.7969,322.7031 Z " fill="#000000"/><text fill="#000000" font-family="sans-serif" font-size="14" lengthAdjust="spacing" textLength="61" x="123.25" y="321.2852">Metadata</text><line style="stroke:#181818;stroke-width:0.5;" x1="8" x2="267" y1="332.5" y2="332.5"/><text fill="#000000" font-family="sans-serif" font-size="14" lengthAdjust="spacing" textLength="98" x="13" y="349.4883">filename : string</text><text fill="#000000" font-family="sans-serif" font-size="14" lengthAdjust="spacing" textLength="133" x="13" y="365.8945">eveh5_version : string</text><text fill="#000000" font-family="sans-serif" font-size="14" lengthAdjust="spacing" textLength="117" x="13" y="382.3008">eve_version : string</text><text fill="#000000" font-family="sans-serif" font-size="14" lengthAdjust="spacing" textLength="115" x="13" y="398.707">xml_version: string</text><text fill="#000000" font-family="sans-serif" font-size="14" lengthAdjust="spacing" textLength="181" x="13" y="415.1133">measurement_station : string</text><text fill="#000000" font-family="sans-serif" font-size="14" lengthAdjust="spacing" textLength="94" x="13" y="431.5195">start : datetime</text><text fill="#000000" font-family="sans-serif" font-size="14" lengthAdjust="spacing" textLength="87" x="13" y="447.9258">end : datetime</text><text fill="#000000" font-family="sans-serif" font-size="14" lengthAdjust="spacing" textLength="114" x="13" y="464.332">description : string</text><text fill="#000000" font-family="sans-serif" font-size="14" lengthAdjust="spacing" textLength="124" x="13" y="480.7383">simulation : boolean</text><text fill="#000000" font-family="sans-serif" font-size="14" lengthAdjust="spacing" textLength="133" x="13" y="497.1445">preferred_axis : string</text><text fill="#000000" font-family="sans-serif" font-size="14" lengthAdjust="spacing" textLength="157" x="13" y="513.5508">preferred_channel : string</text><text fill="#000000" font-family="sans-serif" font-size="14" lengthAdjust="spacing" textLength="249" x="13" y="529.957">preferred_normalisation_channel : string</text><line style="stroke:#181818;stroke-width:0.5;" x1="8" x2="267" y1="537.375" y2="537.375"/></g><!--class LogMessage--><g id="elem_LogMessage"><rect codeLine="31" fill="#F1F1F1" height="80.8125" id="LogMessage" rx="2.5" ry="2.5" style="stroke:#181818;stroke-width:0.5;" width="143" x="303" y="382.5"/><ellipse cx="331.95" cy="398.5" fill="#ADD1B2" rx="11" ry="11" style="stroke:#181818;stroke-width:1.0;"/><path d="M331.9969,404.7031 C333.4969,404.7031 334.7313,404.1406 335.6375,403.0781 L334.2625,401.5625 C333.7156,402.1563 333.0594,402.5469 332.2625,402.5469 C330.5906,402.5469 329.4344,401.2188 329.4344,398.9375 C329.4344,396.7188 330.5906,395.375 332.1531,395.375 C332.9656,395.375 333.5594,395.6875 334.0906,396.1719 L335.4656,394.625 C334.7156,393.8906 333.5594,393.2188 332.1531,393.2188 C329.2,393.2188 326.8719,395.3594 326.8719,399.0313 C326.8719,402.75 329.2469,404.7031 331.9969,404.7031 Z " fill="#000000"/><text fill="#000000" font-family="sans-serif" font-size="14" lengthAdjust="spacing" textLength="80" x="349.05" y="403.2852">LogMessage</text><line style="stroke:#181818;stroke-width:0.5;" x1="304" x2="445" y1="414.5" y2="414.5"/><text fill="#000000" font-family="sans-serif" font-size="14" lengthAdjust="spacing" textLength="131" x="309" y="431.4883">timestamp : datetime</text><text fill="#000000" font-family="sans-serif" font-size="14" lengthAdjust="spacing" textLength="101" x="309" y="447.8945">message : string</text><line style="stroke:#181818;stroke-width:0.5;" x1="304" x2="445" y1="455.3125" y2="455.3125"/></g><!--class Scan--><g id="elem_Scan"><rect codeLine="36" fill="#F1F1F1" height="80.8125" id="Scan" rx="2.5" ry="2.5" style="stroke:#181818;stroke-width:0.5;" width="110" x="723.5" y="382.5"/><ellipse cx="759.65" cy="398.5" fill="#ADD1B2" rx="11" ry="11" style="stroke:#181818;stroke-width:1.0;"/><path d="M759.6969,404.7031 C761.1969,404.7031 762.4313,404.1406 763.3375,403.0781 L761.9625,401.5625 C761.4156,402.1563 760.7594,402.5469 759.9625,402.5469 C758.2906,402.5469 757.1344,401.2188 757.1344,398.9375 C757.1344,396.7188 758.2906,395.375 759.8531,395.375 C760.6656,395.375 761.2594,395.6875 761.7906,396.1719 L763.1656,394.625 C762.4156,393.8906 761.2594,393.2188 759.8531,393.2188 C756.9,393.2188 754.5719,395.3594 754.5719,399.0313 C754.5719,402.75 756.9469,404.7031 759.6969,404.7031 Z " fill="#000000"/><text fill="#000000" font-family="sans-serif" font-size="14" lengthAdjust="spacing" textLength="31" x="778.35" y="403.2852">Scan</text><line style="stroke:#181818;stroke-width:0.5;" x1="724.5" x2="832.5" y1="414.5" y2="414.5"/><text fill="#000000" font-family="sans-serif" font-size="14" lengthAdjust="spacing" textLength="87" x="729.5" y="431.4883">author : string</text><text fill="#000000" font-family="sans-serif" font-size="14" lengthAdjust="spacing" textLength="98" x="729.5" y="447.8945">filename : string</text><line style="stroke:#181818;stroke-width:0.5;" x1="724.5" x2="832.5" y1="455.3125" y2="455.3125"/></g><!--class Station--><g id="elem_Station"><rect codeLine="42" fill="#F1F1F1" height="64.4063" id="Station" rx="2.5" ry="2.5" style="stroke:#181818;stroke-width:0.5;" width="110" x="578.5" y="391"/><ellipse cx="608.35" cy="407" fill="#ADD1B2" rx="11" ry="11" style="stroke:#181818;stroke-width:1.0;"/><path d="M608.3969,413.2031 C609.8969,413.2031 611.1313,412.6406 612.0375,411.5781 L610.6625,410.0625 C610.1156,410.6563 609.4594,411.0469 608.6625,411.0469 C606.9906,411.0469 605.8344,409.7188 605.8344,407.4375 C605.8344,405.2188 606.9906,403.875 608.5531,403.875 C609.3656,403.875 609.9594,404.1875 610.4906,404.6719 L611.8656,403.125 C611.1156,402.3906 609.9594,401.7188 608.5531,401.7188 C605.6,401.7188 603.2719,403.8594 603.2719,407.5313 C603.2719,411.25 605.6469,413.2031 608.3969,413.2031 Z " fill="#000000"/><text fill="#000000" font-family="sans-serif" font-size="14" lengthAdjust="spacing" textLength="45" x="625.65" y="411.7852">Station</text><line style="stroke:#181818;stroke-width:0.5;" x1="579.5" x2="687.5" y1="423" y2="423"/><text fill="#000000" font-family="sans-serif" font-size="14" lengthAdjust="spacing" textLength="98" x="584.5" y="439.9883">filename : string</text><line style="stroke:#181818;stroke-width:0.5;" x1="579.5" x2="687.5" y1="447.4063" y2="447.4063"/></g><!--reverse link File to Data--><g id="link_File_Data"><path codeLine="13" d="M459.6848,252.2383 C476.9948,307.8783 494.45,363.97 505.28,398.78 " fill="none" id="File-backto-Data" style="stroke:#181818;stroke-width:1.0;"/><polygon fill="#181818" points="456.12,240.78,454.0829,247.6974,459.6848,252.2383,461.7218,245.3209,456.12,240.78" style="stroke:#181818;stroke-width:1.0;"/><text fill="#000000" font-family="sans-serif" font-size="13" lengthAdjust="spacing" textLength="7" x="495.533" y="387.7423">n</text></g><!--reverse link Scan to Scan--><g id="link_Scan_Scan"><path d="M778.5,193.02 C778.5,239.06 778.5,324.96 778.5,382.24 " fill="none" id="Scan-backto-Scan" style="stroke:#181818;stroke-width:1.0;"/><polygon fill="none" points="778.5,175.02,772.5,193.02,784.5,193.02,778.5,175.02" style="stroke:#181818;stroke-width:1.0;"/></g><!--reverse link Station to Station--><g id="link_Station_Station"><path d="M667.4519,192.8256 C660.2719,241.2856 646.23,336.05 638.11,390.88 " fill="none" id="Station-backto-Station" style="stroke:#181818;stroke-width:1.0;"/><polygon fill="none" points="670.09,175.02,661.5167,191.9462,673.3871,193.705,670.09,175.02" style="stroke:#181818;stroke-width:1.0;"/></g><!--reverse link File to Metadata--><g id="link_File_Metadata"><path codeLine="46" d="M324.0141,248.9428 C303.3141,268.1528 289.87,280.63 268.08,300.84 " fill="none" id="File-backto-Metadata" style="stroke:#181818;stroke-width:1.0;"/><polygon fill="#181818" points="332.81,240.78,325.6911,241.9294,324.0141,248.9428,331.133,247.7934,332.81,240.78" style="stroke:#181818;stroke-width:1.0;"/></g><!--reverse link File to LogMessage--><g id="link_File_LogMessage"><path codeLine="47" d="M408.3866,252.547 C398.8266,300.347 389.86,345.18 382.45,382.24 " fill="none" id="File-backto-LogMessage" style="stroke:#181818;stroke-width:1.0;"/><polygon fill="#181818" points="410.74,240.78,405.641,245.879,408.3866,252.547,413.4856,247.4479,410.74,240.78" style="stroke:#181818;stroke-width:1.0;"/><text fill="#000000" font-family="sans-serif" font-size="13" lengthAdjust="spacing" textLength="7" x="401.9794" y="260.8959">1</text><text fill="#000000" font-family="sans-serif" font-size="13" lengthAdjust="spacing" textLength="7" x="376.187" y="371.3424">n</text></g><!--reverse link File to Scan--><g id="link_File_Scan"><path codeLine="48" d="M564.8062,220.6589 C632.2862,255.2889 693.6,288.16 706.5,300.5 C730.68,323.64 749.55,356.64 761.89,382.42 " fill="none" id="File-backto-Scan" style="stroke:#181818;stroke-width:1.0;"/><polygon fill="#181818" points="554.13,215.18,557.6418,221.4782,564.8062,220.6589,561.2944,214.3607,554.13,215.18" style="stroke:#181818;stroke-width:1.0;"/></g><!--reverse link File to Station--><g id="link_File_Station"><path codeLine="49" d="M520.1286,249.9014 C536.7886,269.0414 545.79,280.49 560.5,300.5 C582,329.75 602.96,365.63 616.86,390.79 " fill="none" id="File-backto-Station" style="stroke:#181818;stroke-width:1.0;"/><polygon fill="#181818" points="512.25,240.85,513.1722,248.0019,520.1286,249.9014,519.2064,242.7495,512.25,240.85" style="stroke:#181818;stroke-width:1.0;"/></g><!--SRC=[XLCzJyCm4DtpAwmkI4YjnC32Z9XWWWrGT4skgONjYtoNgbBL_uvpJXhI3v75kNVFz_bSEM0sBzQXEHGcVHu5QX0mJ-Pj-5NSKLDwP8O6EVbUgNdBrkUt-hc2aF3tT6HRG2mfbFyK7I8_f-DmpBm0BMz9U0vx2bOedg4jiUrZbM9JBGA-xGaVez4pYsDHQ3ltowLPX8LUBm89cZM9a4y58PhQGXF1cmt5hw1LUQexXwkYg7GaO_DvAfiKCO37b8qbsj0eYZlSFfOxZ9mxdRkkE_RUZOuPxX6uY-WnI3dDxWyXWL4Ib8h2llsS9jJdK8rSHTjU2M1zvyR0QoA7mwhQY1kC4UiIzfRdboPVjOKGqDro1ueUd6LDS4a-ZdETX3C8xhJAyqO6jLs9qOlCu5vIzwp2MwsfIrkC5dcbjZ9oVEXaIt5UzkKwZyMTQiJXHcOAuImHbJTtwnQgdrJKIIQ3kF-fPY0TRYQV97jwT8ei7XOd8K-JczZwt2PhU6c_]--></g></svg>