<?xml version="1.0" encoding="us-ascii" standalone="no"?><svg xmlns="http://www.w3.org/2000/svg" xmlns:xlink="http://www.w3.org/1999/xlink" contentStyleType="text/css" height="540px" preserveAspectRatio="none" style="width:712px;height:540px;background:#FFFFFF;" version="1.1" viewBox="0 0 712 540" width="712px" zoomAndPan="magnify"><defs/><g><!--class EveFile--><g id="elem_EveFile"><rect codeLine="2" fill="#F1F1F1" height="113.625" id="EveFile" rx="2.5" ry="2.5" style="stroke:#181818;stroke-width:0.5;" width="186" x="274.5" y="7"/><ellipse cx="341.75" cy="23" fill="#ADD1B2" rx="11" ry="11" style="stroke:#181818;stroke-width:1.0;"/><path d="M341.7969,29.2031 C343.2969,29.2031 344.5313,28.6406 345.4375,27.5781 L344.0625,26.0625 C343.5156,26.6563 342.8594,27.0469 342.0625,27.0469 C340.3906,27.0469 339.2344,25.7188 339.2344,23.4375 C339.2344,21.2188 340.3906,19.875 341.9531,19.875 C342.7656,19.875 343.3594,20.1875 343.8906,20.6719 L345.2656,19.125 C344.5156,18.3906 343.3594,17.7188 341.9531,17.7188 C339,17.7188 336.6719,19.8594 336.6719,23.5313 C336.6719,27.25 339.0469,29.2031 341.7969,29.2031 Z " fill="#000000"/><text fill="#000000" font-family="sans-serif" font-size="14" lengthAdjust="spacing" textLength="43" x="362.25" y="27.7852">EveFile</text><line style="stroke:#181818;stroke-width:0.5;" x1="275.5" x2="459.5" y1="39" y2="39"/><text fill="#000000" font-family="sans-serif" font-size="14" lengthAdjust="spacing" textLength="174" x="280.5" y="55.9883">metadata : EveFileMetadata</text><text fill="#000000" font-family="sans-serif" font-size="14" lengthAdjust="spacing" textLength="144" x="280.5" y="72.3945">comments : Comment[]</text><text fill="#000000" font-family="sans-serif" font-size="14" lengthAdjust="spacing" textLength="75" x="280.5" y="88.8008">scml : SCML</text><text fill="#000000" font-family="sans-serif" font-size="14" lengthAdjust="spacing" textLength="98" x="280.5" y="105.207">data : EveData[]</text><line style="stroke:#181818;stroke-width:0.5;" x1="275.5" x2="459.5" y1="112.625" y2="112.625"/></g><!--class EveFileMetadata--><g id="elem_EveFileMetadata"><rect codeLine="9" fill="#F1F1F1" height="212.0625" id="EveFileMetadata" rx="2.5" ry="2.5" style="stroke:#181818;stroke-width:0.5;" width="261" x="7" y="181"/><ellipse cx="81.25" cy="197" fill="#ADD1B2" rx="11" ry="11" style="stroke:#181818;stroke-width:1.0;"/><path d="M81.2969,203.2031 C82.7969,203.2031 84.0313,202.6406 84.9375,201.5781 L83.5625,200.0625 C83.0156,200.6563 82.3594,201.0469 81.5625,201.0469 C79.8906,201.0469 78.7344,199.7188 78.7344,197.4375 C78.7344,195.2188 79.8906,193.875 81.4531,193.875 C82.2656,193.875 82.8594,194.1875 83.3906,194.6719 L84.7656,193.125 C84.0156,192.3906 82.8594,191.7188 81.4531,191.7188 C78.5,191.7188 76.1719,193.8594 76.1719,197.5313 C76.1719,201.25 78.5469,203.2031 81.2969,203.2031 Z " fill="#000000"/><text fill="#000000" font-family="sans-serif" font-size="14" lengthAdjust="spacing" textLength="104" x="101.75" y="201.7852">EveFileMetadata</text><line style="stroke:#181818;stroke-width:0.5;" x1="8" x2="267" y1="213" y2="213"/><text fill="#000000" font-family="sans-serif" font-size="14" lengthAdjust="spacing" textLength="98" x="13" y="229.9883">filename : string</text><text fill="#000000" font-family="sans-serif" font-size="14" lengthAdjust="spacing" textLength="112" x="13" y="246.3945">h5_version : string</text><text fill="#000000" font-family="sans-serif" font-size="14" lengthAdjust="spacing" textLength="117" x="13" y="262.8008">eve_version : string</text><text fill="#000000" font-family="sans-serif" font-size="14" lengthAdjust="spacing" textLength="115" x="13" y="279.207">xml_version: string</text><text fill="#000000" font-family="sans-serif" font-size="14" lengthAdjust="spacing" textLength="95" x="13" y="295.6133">location : string</text><text fill="#000000" font-family="sans-serif" font-size="14" lengthAdjust="spacing" textLength="94" x="13" y="312.0195">start : datetime</text><text fill="#000000" font-family="sans-serif" font-size="14" lengthAdjust="spacing" textLength="87" x="13" y="328.4258">end : datetime</text><text fill="#000000" font-family="sans-serif" font-size="14" lengthAdjust="spacing" textLength="133" x="13" y="344.832">preferred_axis : string</text><text fill="#000000" font-family="sans-serif" font-size="14" lengthAdjust="spacing" textLength="157" x="13" y="361.2383">preferred_channel : string</text><text fill="#000000" font-family="sans-serif" font-size="14" lengthAdjust="spacing" textLength="249" x="13" y="377.6445">preferred_normalisation_channel : string</text><line style="stroke:#181818;stroke-width:0.5;" x1="8" x2="267" y1="385.0625" y2="385.0625"/></g><!--class Comment--><g id="elem_Comment"><rect codeLine="22" fill="#F1F1F1" height="80.8125" id="Comment" rx="2.5" ry="2.5" style="stroke:#181818;stroke-width:0.5;" width="143" x="303" y="246.5"/><ellipse cx="340.5" cy="262.5" fill="#ADD1B2" rx="11" ry="11" style="stroke:#181818;stroke-width:1.0;"/><path d="M340.5469,268.7031 C342.0469,268.7031 343.2813,268.1406 344.1875,267.0781 L342.8125,265.5625 C342.2656,266.1563 341.6094,266.5469 340.8125,266.5469 C339.1406,266.5469 337.9844,265.2188 337.9844,262.9375 C337.9844,260.7188 339.1406,259.375 340.7031,259.375 C341.5156,259.375 342.1094,259.6875 342.6406,260.1719 L344.0156,258.625 C343.2656,257.8906 342.1094,257.2188 340.7031,257.2188 C337.75,257.2188 335.4219,259.3594 335.4219,263.0313 C335.4219,266.75 337.7969,268.7031 340.5469,268.7031 Z " fill="#000000"/><text fill="#000000" font-family="sans-serif" font-size="14" lengthAdjust="spacing" textLength="61" x="359.5" y="267.2852">Comment</text><line style="stroke:#181818;stroke-width:0.5;" x1="304" x2="445" y1="278.5" y2="278.5"/><text fill="#000000" font-family="sans-serif" font-size="14" lengthAdjust="spacing" textLength="131" x="309" y="295.4883">timestamp : datetime</text><text fill="#000000" font-family="sans-serif" font-size="14" lengthAdjust="spacing" textLength="104" x="309" y="311.8945">comment : string</text><line style="stroke:#181818;stroke-width:0.5;" x1="304" x2="445" y1="319.3125" y2="319.3125"/></g><g id="elem_GMN5"><path d="M267.5,465.5 L267.5,521.2031 A0,0 0 0 0 267.5,521.2031 L481.5,521.2031 A0,0 0 0 0 481.5,521.2031 L481.5,475.5 L471.5,465.5 L378.5,465.5 L374.5,327.92 L370.5,465.5 L267.5,465.5 A0,0 0 0 0 267.5,465.5 " fill="#FEFFDD" style="stroke:#181818;stroke-width:0.5;"/><path d="M471.5,465.5 L471.5,475.5 L481.5,475.5 L471.5,465.5 " fill="#FEFFDD" style="stroke:#181818;stroke-width:0.5;"/><text fill="#000000" font-family="sans-serif" font-size="13" lengthAdjust="spacing" textLength="192" x="273.5" y="482.5605">Comments are both, file comment</text><text fill="#000000" font-family="sans-serif" font-size="13" lengthAdjust="spacing" textLength="192" x="273.5" y="497.7949">and log messages. Discriminating</text><text fill="#000000" font-family="sans-serif" font-size="13" lengthAdjust="spacing" textLength="193" x="273.5" y="513.0293">could be done in the EveFile class.</text></g><!--class SCML--><g id="elem_SCML"><rect codeLine="28" fill="#F1F1F1" height="80.8125" id="SCML" rx="2.5" ry="2.5" style="stroke:#181818;stroke-width:0.5;" width="180" x="504.5" y="246.5"/><ellipse cx="571.75" cy="262.5" fill="#ADD1B2" rx="11" ry="11" style="stroke:#181818;stroke-width:1.0;"/><path d="M571.7969,268.7031 C573.2969,268.7031 574.5313,268.1406 575.4375,267.0781 L574.0625,265.5625 C573.5156,266.1563 572.8594,266.5469 572.0625,266.5469 C570.3906,266.5469 569.2344,265.2188 569.2344,262.9375 C569.2344,260.7188 570.3906,259.375 571.9531,259.375 C572.7656,259.375 573.3594,259.6875 573.8906,260.1719 L575.2656,258.625 C574.5156,257.8906 573.3594,257.2188 571.9531,257.2188 C569,257.2188 566.6719,259.3594 566.6719,263.0313 C566.6719,266.75 569.0469,268.7031 571.7969,268.7031 Z " fill="#000000"/><text fill="#000000" font-family="sans-serif" font-size="14" lengthAdjust="spacing" textLength="37" x="592.25" y="267.2852">SCML</text><line style="stroke:#181818;stroke-width:0.5;" x1="505.5" x2="683.5" y1="278.5" y2="278.5"/><text fill="#000000" font-family="sans-serif" font-size="14" lengthAdjust="spacing" textLength="168" x="510.5" y="295.4883">metadata : SCMLMetadata</text><text fill="#000000" font-family="sans-serif" font-size="14" lengthAdjust="spacing" textLength="64" x="510.5" y="311.8945">xml: string</text><line style="stroke:#181818;stroke-width:0.5;" x1="505.5" x2="683.5" y1="319.3125" y2="319.3125"/></g><g id="elem_GMN9"><path d="M496,36 L496,91.7031 A0,0 0 0 0 496,91.7031 L595.76,91.7031 L595.58,246.35 L603.76,91.7031 L705,91.7031 A0,0 0 0 0 705,91.7031 L705,46 L695,36 L496,36 A0,0 0 0 0 496,36 " fill="#FEFFDD" style="stroke:#181818;stroke-width:0.5;"/><path d="M695,36 L695,46 L705,46 L695,36 " fill="#FEFFDD" style="stroke:#181818;stroke-width:0.5;"/><text fill="#000000" font-family="sans-serif" font-size="13" lengthAdjust="spacing" textLength="176" x="502" y="53.0605">xml is currently a string, but will</text><text fill="#000000" font-family="sans-serif" font-size="13" lengthAdjust="spacing" textLength="188" x="502" y="68.2949">be replaced/amended by classes</text><text fill="#000000" font-family="sans-serif" font-size="13" lengthAdjust="spacing" textLength="182" x="502" y="83.5293">representing the SCML contents</text></g><!--class SCMLMetadata--><g id="elem_SCMLMetadata"><rect codeLine="34" fill="#F1F1F1" height="80.8125" id="SCMLMetadata" rx="2.5" ry="2.5" style="stroke:#181818;stroke-width:0.5;" width="130" x="529.5" y="453"/><ellipse cx="544.5" cy="469" fill="#ADD1B2" rx="11" ry="11" style="stroke:#181818;stroke-width:1.0;"/><path d="M544.5469,475.2031 C546.0469,475.2031 547.2813,474.6406 548.1875,473.5781 L546.8125,472.0625 C546.2656,472.6563 545.6094,473.0469 544.8125,473.0469 C543.1406,473.0469 541.9844,471.7188 541.9844,469.4375 C541.9844,467.2188 543.1406,465.875 544.7031,465.875 C545.5156,465.875 546.1094,466.1875 546.6406,466.6719 L548.0156,465.125 C547.2656,464.3906 546.1094,463.7188 544.7031,463.7188 C541.75,463.7188 539.4219,465.8594 539.4219,469.5313 C539.4219,473.25 541.7969,475.2031 544.5469,475.2031 Z " fill="#000000"/><text fill="#000000" font-family="sans-serif" font-size="14" lengthAdjust="spacing" textLength="98" x="558.5" y="473.7852">SCMLMetadata</text><line style="stroke:#181818;stroke-width:0.5;" x1="530.5" x2="658.5" y1="485" y2="485"/><text fill="#000000" font-family="sans-serif" font-size="14" lengthAdjust="spacing" textLength="84" x="535.5" y="501.9883">author: string</text><text fill="#000000" font-family="sans-serif" font-size="14" lengthAdjust="spacing" textLength="87" x="535.5" y="518.3945">version: string</text><line style="stroke:#181818;stroke-width:0.5;" x1="530.5" x2="658.5" y1="525.8125" y2="525.8125"/></g><!--reverse link EveFile to EveFileMetadata--><g id="link_EveFile_EveFileMetadata"><path codeLine="39" d="M300.5082,129.3654 C281.4782,147.6554 268.34,160.28 246.82,180.96 " fill="none" id="EveFile-backto-EveFileMetadata" style="stroke:#181818;stroke-width:1.0;"/><polygon fill="#181818" points="309.16,121.05,302.0623,122.3238,300.5082,129.3654,307.6059,128.0916,309.16,121.05" style="stroke:#181818;stroke-width:1.0;"/></g><!--reverse link EveFile to Comment--><g id="link_EveFile_Comment"><path codeLine="40" d="M369.657,133.0441 C370.887,172.1741 372.14,211.46 373.25,246.39 " fill="none" id="EveFile-backto-Comment" style="stroke:#181818;stroke-width:1.0;"/><polygon fill="#181818" points="369.28,121.05,365.4705,127.1727,369.657,133.0441,373.4665,126.9214,369.28,121.05" style="stroke:#181818;stroke-width:1.0;"/><text fill="#000000" font-family="sans-serif" font-size="13" lengthAdjust="spacing" textLength="7" x="362.0811" y="140.6094">1</text><text fill="#000000" font-family="sans-serif" font-size="13" lengthAdjust="spacing" textLength="7" x="365.4336" y="235.2179">n</text></g><!--reverse link EveFile to SCML--><g id="link_EveFile_SCML"><path codeLine="41" d="M433.6779,129.4211 C473.8679,168.5511 517.94,211.46 553.81,246.39 " fill="none" id="EveFile-backto-SCML" style="stroke:#181818;stroke-width:1.0;"/><polygon fill="#181818" points="425.08,121.05,426.5886,128.1015,433.6779,129.4211,432.1693,122.3696,425.08,121.05" style="stroke:#181818;stroke-width:1.0;"/></g><!--reverse link SCML to SCMLMetadata--><g id="link_SCML_SCMLMetadata"><path codeLine="42" d="M594.5,339.92 C594.5,375.95 594.5,416.68 594.5,452.69 " fill="none" id="SCML-backto-SCMLMetadata" style="stroke:#181818;stroke-width:1.0;"/><polygon fill="#181818" points="594.5,327.92,590.5,333.92,594.5,339.92,598.5,333.92,594.5,327.92" style="stroke:#181818;stroke-width:1.0;"/></g><!--SRC=[TPCnRuCm48Nt_0gBiKfITUYIDMcdPkfOgiWn5x1adv5zf8cg_lSU1fC0BHEyvpi-xXtAo134onbUjG7nlH1yMI1PI99YaunzhqHREMi1AR2zxMu_FgCHb3Kilc_tR_7vrcF7TtpePx5Gz-zBRRlNdbX1QO5B0dcDPLIhvyCPVD0EnpgSuM_ZOaqoHhfnIjBiT23fYIN60D8MkjvOJANQmmcyX-8WBpgCUzmyLKb4CF_PwBoLHeV8CJyyZASVQnz7oy2OjfuozK7SDq1788wEoDaXdI2aZsArZ3DETJbA_axZIWuy15b2M8kT3ifhgv4HiSnHkSOKuWYYS0X2ew0AXcs9i6kHgDlSvnlKggFruNocmEJgJQiBdgngU5H8vYfaVsefZWs9BsrCZapYeJPIGV78gu85CDsr8u6G8viU0jTpNMIDKCeXjOEu9qrCFR5ig79-bDjqYJYUzEKFgzNirqXUzfH5FyCi9J2gYxz7n4fFGujV]--></g></svg>