<?xml version="1.0" encoding="us-ascii" standalone="no"?><svg xmlns="http://www.w3.org/2000/svg" xmlns:xlink="http://www.w3.org/1999/xlink" contentStyleType="text/css" height="436.2px" preserveAspectRatio="none" style="width:656px;height:436px;background:#FFFFFF;" version="1.1" viewBox="0 0 656 436" width="656.4px" zoomAndPan="magnify"><defs/><g><!--class Metadata--><g id="elem_Metadata"><rect codeLine="2" fill="#F1F1F1" height="48.4875" id="Metadata" rx="1.5" ry="1.5" style="stroke:#181818;stroke-width:0.3;" width="67.2" x="115.2" y="14.1"/><ellipse cx="129.33" cy="23.7" fill="#ADD1B2" rx="6.6" ry="6.6" style="stroke:#181818;stroke-width:0.6;"/><path d="M129.3581,27.4219 C130.2581,27.4219 130.9988,27.0844 131.5425,26.4469 L130.7175,25.5375 C130.3894,25.8938 129.9956,26.1281 129.5175,26.1281 C128.5144,26.1281 127.8206,25.3313 127.8206,23.9625 C127.8206,22.6312 128.5144,21.825 129.4519,21.825 C129.9394,21.825 130.2956,22.0125 130.6144,22.3031 L131.4394,21.375 C130.9894,20.9344 130.2956,20.5313 129.4519,20.5313 C127.68,20.5313 126.2831,21.8156 126.2831,24.0188 C126.2831,26.25 127.7081,27.4219 129.3581,27.4219 Z " fill="#000000"/><text fill="#000000" font-family="sans-serif" font-size="8.4" lengthAdjust="spacing" textLength="36.6" x="138.87" y="26.5711">Metadata</text><line style="stroke:#181818;stroke-width:0.3;" x1="115.8" x2="181.8" y1="33.3" y2="33.3"/><text fill="#000000" font-family="sans-serif" font-size="8.4" lengthAdjust="spacing" textLength="48" x="118.8" y="43.493">name : string</text><text fill="#000000" font-family="sans-serif" font-size="8.4" lengthAdjust="spacing" textLength="60" x="118.8" y="53.3367">section : Section</text><line style="stroke:#181818;stroke-width:0.3;" x1="115.8" x2="181.8" y1="57.7875" y2="57.7875"/></g><!--class Data--><g id="elem_Data"><rect codeLine="7" fill="#F1F1F1" height="28.8" id="Data" rx="1.5" ry="1.5" style="stroke:#181818;stroke-width:0.3;" width="37.2" x="57" y="24"/><ellipse cx="66" cy="33.6" fill="#ADD1B2" rx="6.6" ry="6.6" style="stroke:#181818;stroke-width:0.6;"/><path d="M66.0281,37.3219 C66.9281,37.3219 67.6688,36.9844 68.2125,36.3469 L67.3875,35.4375 C67.0594,35.7937 66.6656,36.0281 66.1875,36.0281 C65.1844,36.0281 64.4906,35.2312 64.4906,33.8625 C64.4906,32.5313 65.1844,31.725 66.1219,31.725 C66.6094,31.725 66.9656,31.9125 67.2844,32.2031 L68.1094,31.275 C67.6594,30.8344 66.9656,30.4313 66.1219,30.4313 C64.35,30.4313 62.9531,31.7156 62.9531,33.9187 C62.9531,36.15 64.3781,37.3219 66.0281,37.3219 Z " fill="#000000"/><text fill="#000000" font-family="sans-serif" font-size="8.4" lengthAdjust="spacing" textLength="18" x="74.4" y="36.4711">Data</text><line style="stroke:#181818;stroke-width:0.3;" x1="57.6" x2="93.6" y1="43.2" y2="43.2"/><line style="stroke:#181818;stroke-width:0.3;" x1="57.6" x2="93.6" y1="48" y2="48"/></g><g id="elem_GMN4"><path d="M42.3,125.7 L42.3,149.9813 A0,0 0 0 0 42.3,149.9813 L108.9,149.9813 A0,0 0 0 0 108.9,149.9813 L108.9,131.7 L102.9,125.7 L78,125.7 L75.6,52.848 L73.2,125.7 L42.3,125.7 A0,0 0 0 0 42.3,125.7 " fill="#FEFFDD" style="stroke:#181818;stroke-width:0.3;"/><path d="M102.9,125.7 L102.9,131.7 L108.9,131.7 L102.9,125.7 " fill="#FEFFDD" style="stroke:#181818;stroke-width:0.3;"/><text fill="#000000" font-family="sans-serif" font-size="7.8" lengthAdjust="spacing" textLength="54" x="45.9" y="135.9363">See diagram for</text><text fill="#000000" font-family="sans-serif" font-size="7.8" lengthAdjust="spacing" textLength="43.8" x="45.9" y="145.077">data module.</text></g><!--class Section--><g id="elem_Section"><rect codeLine="11" fill="#F1F1F1" height="68.175" id="Section" rx="1.5" ry="1.5" style="stroke:#181818;stroke-width:0.3;" width="50.4" x="297" y="4.2"/><ellipse cx="307.62" cy="13.8" fill="#EB937F" rx="6.6" ry="6.6" style="stroke:#181818;stroke-width:0.6;"/><path d="M305.2575,17.4 L309.7669,17.4 L309.7669,16.1344 L306.7669,16.1344 L306.7669,14.6063 L309.2231,14.6063 L309.2231,13.35 L306.7669,13.35 L306.7669,12.0187 L309.6638,12.0187 L309.6638,10.7531 L305.2575,10.7531 L305.2575,17.4 Z " fill="#000000"/><text fill="#000000" font-family="sans-serif" font-size="8.4" lengthAdjust="spacing" textLength="27.6" x="316.38" y="16.6711">Section</text><line style="stroke:#181818;stroke-width:0.3;" x1="297.6" x2="346.8" y1="23.4" y2="23.4"/><text fill="#000000" font-family="sans-serif" font-size="8.4" lengthAdjust="spacing" textLength="42.6" x="300.6" y="33.593">STANDARD</text><text fill="#000000" font-family="sans-serif" font-size="8.4" lengthAdjust="spacing" textLength="43.2" x="300.6" y="43.4367">SNAPSHOT</text><text fill="#000000" font-family="sans-serif" font-size="8.4" lengthAdjust="spacing" textLength="37.8" x="300.6" y="53.2805">MONITOR</text><text fill="#000000" font-family="sans-serif" font-size="8.4" lengthAdjust="spacing" textLength="22.2" x="300.6" y="63.1242">META</text><line style="stroke:#181818;stroke-width:0.3;" x1="297.6" x2="346.8" y1="67.575" y2="67.575"/></g><!--class Transport--><g id="elem_Transport"><rect codeLine="18" fill="#F1F1F1" height="48.4875" id="Transport" rx="1.5" ry="1.5" style="stroke:#181818;stroke-width:0.3;" width="56.4" x="445.2" y="14.1"/><ellipse cx="454.2" cy="23.7" fill="#EB937F" rx="6.6" ry="6.6" style="stroke:#181818;stroke-width:0.6;"/><path d="M451.8375,27.3 L456.3469,27.3 L456.3469,26.0344 L453.3469,26.0344 L453.3469,24.5062 L455.8031,24.5062 L455.8031,23.25 L453.3469,23.25 L453.3469,21.9188 L456.2438,21.9188 L456.2438,20.6531 L451.8375,20.6531 L451.8375,27.3 Z " fill="#000000"/><text fill="#000000" font-family="sans-serif" font-size="8.4" lengthAdjust="spacing" textLength="37.2" x="462.6" y="26.5711">Transport</text><line style="stroke:#181818;stroke-width:0.3;" x1="445.8" x2="501" y1="33.3" y2="33.3"/><text fill="#000000" font-family="sans-serif" font-size="8.4" lengthAdjust="spacing" textLength="10.8" x="448.8" y="43.493">CA</text><text fill="#000000" font-family="sans-serif" font-size="8.4" lengthAdjust="spacing" textLength="26.4" x="448.8" y="53.3367">LOCAL</text><line style="stroke:#181818;stroke-width:0.3;" x1="445.8" x2="501" y1="57.7875" y2="57.7875"/></g><g id="elem_GMN9"><path d="M424.5,116.4 L424.5,158.9625 A0,0 0 0 0 424.5,158.9625 L522.3,158.9625 A0,0 0 0 0 522.3,158.9625 L522.3,122.4 L516.3,116.4 L475.8,116.4 L473.4,62.748 L471,116.4 L424.5,116.4 A0,0 0 0 0 424.5,116.4 " fill="#FEFFDD" style="stroke:#181818;stroke-width:0.3;"/><path d="M516.3,116.4 L516.3,122.4 L522.3,122.4 L516.3,116.4 " fill="#FEFFDD" style="stroke:#181818;stroke-width:0.3;"/><text fill="#000000" font-family="sans-serif" font-size="7.8" lengthAdjust="spacing" textLength="70.8" x="428.1" y="126.6363">This is defined in the</text><text fill="#000000" font-family="sans-serif" font-size="7.8" lengthAdjust="spacing" textLength="64.8" x="428.1" y="135.777">scml.setup module</text><text fill="#000000" font-family="sans-serif" font-size="7.8" lengthAdjust="spacing" textLength="67.8" x="428.1" y="144.9176">as well. Generalise?</text><text fill="#000000" font-family="sans-serif" font-size="7.8" lengthAdjust="spacing" textLength="85.2" x="428.1" y="154.0582">Use instance from there?</text></g><!--class DeviceMetadata--><g id="elem_DeviceMetadata"><rect codeLine="24" fill="#F1F1F1" height="58.3313" id="DeviceMetadata" rx="1.5" ry="1.5" style="stroke:#181818;stroke-width:0.3;" width="105" x="189.3" y="108.6"/><ellipse cx="210.99" cy="118.2" fill="#B4A7E5" rx="6.6" ry="6.6" style="stroke:#181818;stroke-width:0.6;"/><path d="M208.7494,121.8 L213.3525,121.8 L213.3525,120.5344 L211.8056,120.5344 L211.8056,116.4187 L213.3525,116.4187 L213.3525,115.1531 L208.7494,115.1531 L208.7494,116.4187 L210.2963,116.4187 L210.2963,120.5344 L208.7494,120.5344 L208.7494,121.8 Z " fill="#000000"/><text fill="#000000" font-family="sans-serif" font-size="8.4" font-style="italic" lengthAdjust="spacing" textLength="57.6" x="222.21" y="121.0711">DeviceMetadata</text><line style="stroke:#181818;stroke-width:0.3;" x1="189.9" x2="293.7" y1="127.8" y2="127.8"/><text fill="#000000" font-family="sans-serif" font-size="8.4" lengthAdjust="spacing" textLength="33.6" x="192.9" y="137.993">id : string</text><text fill="#000000" font-family="sans-serif" font-size="8.4" lengthAdjust="spacing" textLength="36" x="192.9" y="147.8367">pv : string</text><text fill="#000000" font-family="sans-serif" font-size="8.4" lengthAdjust="spacing" textLength="97.8" x="192.9" y="157.6805">transport_type : Transport</text><line style="stroke:#181818;stroke-width:0.3;" x1="189.9" x2="293.7" y1="162.1313" y2="162.1313"/></g><!--class MeasureMetadata--><g id="elem_MeasureMetadata"><rect codeLine="30" fill="#F1F1F1" height="38.6438" id="MeasureMetadata" rx="1.5" ry="1.5" style="stroke:#181818;stroke-width:0.3;" width="88.2" x="315.3" y="118.5"/><ellipse cx="324.3" cy="128.1" fill="#ADD1B2" rx="6.6" ry="6.6" style="stroke:#181818;stroke-width:0.6;"/><path d="M324.3281,131.8219 C325.2281,131.8219 325.9688,131.4844 326.5125,130.8469 L325.6875,129.9375 C325.3594,130.2938 324.9656,130.5281 324.4875,130.5281 C323.4844,130.5281 322.7906,129.7313 322.7906,128.3625 C322.7906,127.0313 323.4844,126.225 324.4219,126.225 C324.9094,126.225 325.2656,126.4125 325.5844,126.7031 L326.4094,125.775 C325.9594,125.3344 325.2656,124.9312 324.4219,124.9312 C322.65,124.9312 321.2531,126.2156 321.2531,128.4188 C321.2531,130.65 322.6781,131.8219 324.3281,131.8219 Z " fill="#000000"/><text fill="#000000" font-family="sans-serif" font-size="8.4" lengthAdjust="spacing" textLength="69" x="332.7" y="130.9711">MeasureMetadata</text><line style="stroke:#181818;stroke-width:0.3;" x1="315.9" x2="402.9" y1="137.7" y2="137.7"/><text fill="#000000" font-family="sans-serif" font-size="8.4" lengthAdjust="spacing" textLength="41.4" x="318.9" y="147.893">unit : string</text><line style="stroke:#181818;stroke-width:0.3;" x1="315.9" x2="402.9" y1="152.3438" y2="152.3438"/></g><!--class MonitorMetadata--><g id="elem_MonitorMetadata"><rect codeLine="34" fill="#F1F1F1" height="38.6438" id="MonitorMetadata" rx="1.5" ry="1.5" style="stroke:#181818;stroke-width:0.3;" width="107.4" x="77.7" y="202.8"/><ellipse cx="96.69" cy="212.4" fill="#ADD1B2" rx="6.6" ry="6.6" style="stroke:#181818;stroke-width:0.6;"/><path d="M96.7181,216.1219 C97.6181,216.1219 98.3588,215.7844 98.9025,215.1469 L98.0775,214.2375 C97.7494,214.5938 97.3556,214.8281 96.8775,214.8281 C95.8744,214.8281 95.1806,214.0313 95.1806,212.6625 C95.1806,211.3312 95.8744,210.525 96.8119,210.525 C97.2994,210.525 97.6556,210.7125 97.9744,211.0031 L98.7994,210.075 C98.3494,209.6344 97.6556,209.2313 96.8119,209.2313 C95.04,209.2313 93.6431,210.5156 93.6431,212.7188 C93.6431,214.95 95.0681,216.1219 96.7181,216.1219 Z " fill="#000000"/><text fill="#000000" font-family="sans-serif" font-size="8.4" lengthAdjust="spacing" textLength="66" x="107.31" y="215.2711">MonitorMetadata</text><line style="stroke:#181818;stroke-width:0.3;" x1="78.3" x2="184.5" y1="222" y2="222"/><text fill="#000000" font-family="sans-serif" font-size="8.4" lengthAdjust="spacing" textLength="100.2" x="81.3" y="232.193">section : Section.MONITOR</text><line style="stroke:#181818;stroke-width:0.3;" x1="78.3" x2="184.5" y1="236.6437" y2="236.6437"/></g><!--class AxisMetadata--><g id="elem_AxisMetadata"><rect codeLine="38" fill="#F1F1F1" height="28.8" id="AxisMetadata" rx="1.5" ry="1.5" style="stroke:#181818;stroke-width:0.3;" width="71.4" x="206.1" y="207.6"/><ellipse cx="215.1" cy="217.2" fill="#ADD1B2" rx="6.6" ry="6.6" style="stroke:#181818;stroke-width:0.6;"/><path d="M215.1281,220.9219 C216.0281,220.9219 216.7687,220.5844 217.3125,219.9469 L216.4875,219.0375 C216.1594,219.3937 215.7656,219.6281 215.2875,219.6281 C214.2844,219.6281 213.5906,218.8312 213.5906,217.4625 C213.5906,216.1313 214.2844,215.325 215.2219,215.325 C215.7094,215.325 216.0656,215.5125 216.3844,215.8031 L217.2094,214.875 C216.7594,214.4344 216.0656,214.0313 215.2219,214.0313 C213.45,214.0313 212.0531,215.3156 212.0531,217.5187 C212.0531,219.75 213.4781,220.9219 215.1281,220.9219 Z " fill="#000000"/><text fill="#000000" font-family="sans-serif" font-size="8.4" lengthAdjust="spacing" textLength="52.2" x="223.5" y="220.0711">AxisMetadata</text><line style="stroke:#181818;stroke-width:0.3;" x1="206.7" x2="276.9" y1="226.8" y2="226.8"/><line style="stroke:#181818;stroke-width:0.3;" x1="206.7" x2="276.9" y1="231.6" y2="231.6"/></g><!--class ChannelMetadata--><g id="elem_ChannelMetadata"><rect codeLine="41" fill="#F1F1F1" height="38.6438" id="ChannelMetadata" rx="1.5" ry="1.5" style="stroke:#181818;stroke-width:0.3;" width="86.4" x="298.8" y="202.8"/><ellipse cx="307.8" cy="212.4" fill="#ADD1B2" rx="6.6" ry="6.6" style="stroke:#181818;stroke-width:0.6;"/><path d="M307.8281,216.1219 C308.7281,216.1219 309.4688,215.7844 310.0125,215.1469 L309.1875,214.2375 C308.8594,214.5938 308.4656,214.8281 307.9875,214.8281 C306.9844,214.8281 306.2906,214.0313 306.2906,212.6625 C306.2906,211.3312 306.9844,210.525 307.9219,210.525 C308.4094,210.525 308.7656,210.7125 309.0844,211.0031 L309.9094,210.075 C309.4594,209.6344 308.7656,209.2313 307.9219,209.2313 C306.15,209.2313 304.7531,210.5156 304.7531,212.7188 C304.7531,214.95 306.1781,216.1219 307.8281,216.1219 Z " fill="#000000"/><text fill="#000000" font-family="sans-serif" font-size="8.4" lengthAdjust="spacing" textLength="67.2" x="316.2" y="215.2711">ChannelMetadata</text><line style="stroke:#181818;stroke-width:0.3;" x1="299.4" x2="384.6" y1="222" y2="222"/><text fill="#000000" font-family="sans-serif" font-size="8.4" lengthAdjust="spacing" textLength="73.8" x="302.4" y="232.193">normalise_id : string</text><line style="stroke:#181818;stroke-width:0.3;" x1="299.4" x2="384.6" y1="236.6437" y2="236.6437"/></g><!--class TimestampMetadata--><g id="elem_TimestampMetadata"><rect codeLine="45" fill="#F1F1F1" height="38.6438" id="TimestampMetadata" rx="1.5" ry="1.5" style="stroke:#181818;stroke-width:0.3;" width="97.8" x="513.9" y="202.8"/><ellipse cx="522.9" cy="212.4" fill="#ADD1B2" rx="6.6" ry="6.6" style="stroke:#181818;stroke-width:0.6;"/><path d="M522.9281,216.1219 C523.8281,216.1219 524.5688,215.7844 525.1125,215.1469 L524.2875,214.2375 C523.9594,214.5938 523.5656,214.8281 523.0875,214.8281 C522.0844,214.8281 521.3906,214.0313 521.3906,212.6625 C521.3906,211.3312 522.0844,210.525 523.0219,210.525 C523.5094,210.525 523.8656,210.7125 524.1844,211.0031 L525.0094,210.075 C524.5594,209.6344 523.8656,209.2313 523.0219,209.2313 C521.25,209.2313 519.8531,210.5156 519.8531,212.7188 C519.8531,214.95 521.2781,216.1219 522.9281,216.1219 Z " fill="#000000"/><text fill="#000000" font-family="sans-serif" font-size="8.4" lengthAdjust="spacing" textLength="78.6" x="531.3" y="215.2711">TimestampMetadata</text><line style="stroke:#181818;stroke-width:0.3;" x1="514.5" x2="611.1" y1="222" y2="222"/><text fill="#000000" font-family="sans-serif" font-size="8.4" lengthAdjust="spacing" textLength="84.6" x="517.5" y="232.193">section : Section.META</text><line style="stroke:#181818;stroke-width:0.3;" x1="514.5" x2="611.1" y1="236.6437" y2="236.6437"/></g><!--class ExternalMetadata--><g id="elem_ExternalMetadata"><rect codeLine="49" fill="#F1F1F1" height="38.6438" id="ExternalMetadata" rx="1.5" ry="1.5" style="stroke:#181818;stroke-width:0.3;" width="86.4" x="406.2" y="202.8"/><ellipse cx="415.2" cy="212.4" fill="#ADD1B2" rx="6.6" ry="6.6" style="stroke:#181818;stroke-width:0.6;"/><path d="M415.2281,216.1219 C416.1281,216.1219 416.8688,215.7844 417.4125,215.1469 L416.5875,214.2375 C416.2594,214.5938 415.8656,214.8281 415.3875,214.8281 C414.3844,214.8281 413.6906,214.0313 413.6906,212.6625 C413.6906,211.3312 414.3844,210.525 415.3219,210.525 C415.8094,210.525 416.1656,210.7125 416.4844,211.0031 L417.3094,210.075 C416.8594,209.6344 416.1656,209.2313 415.3219,209.2313 C413.55,209.2313 412.1531,210.5156 412.1531,212.7188 C412.1531,214.95 413.5781,216.1219 415.2281,216.1219 Z " fill="#000000"/><text fill="#000000" font-family="sans-serif" font-size="8.4" lengthAdjust="spacing" textLength="67.2" x="423.6" y="215.2711">ExternalMetadata</text><line style="stroke:#181818;stroke-width:0.3;" x1="406.8" x2="492" y1="222" y2="222"/><text fill="#000000" font-family="sans-serif" font-size="8.4" lengthAdjust="spacing" textLength="52.8" x="409.8" y="232.193">format : string</text><line style="stroke:#181818;stroke-width:0.3;" x1="406.8" x2="492" y1="236.6437" y2="236.6437"/></g><!--class StandardChannelMetadata--><g id="elem_StandardChannelMetadata"><rect codeLine="53" fill="#F1F1F1" height="28.8" id="StandardChannelMetadata" rx="1.5" ry="1.5" style="stroke:#181818;stroke-width:0.3;" width="121.2" x="4.2" y="291.9"/><ellipse cx="13.2" cy="301.5" fill="#ADD1B2" rx="6.6" ry="6.6" style="stroke:#181818;stroke-width:0.6;"/><path d="M13.2281,305.2219 C14.1281,305.2219 14.8687,304.8844 15.4125,304.2469 L14.5875,303.3375 C14.2594,303.6937 13.8656,303.9281 13.3875,303.9281 C12.3844,303.9281 11.6906,303.1312 11.6906,301.7625 C11.6906,300.4313 12.3844,299.625 13.3219,299.625 C13.8094,299.625 14.1656,299.8125 14.4844,300.1031 L15.3094,299.175 C14.8594,298.7344 14.1656,298.3313 13.3219,298.3313 C11.55,298.3313 10.1531,299.6156 10.1531,301.8187 C10.1531,304.05 11.5781,305.2219 13.2281,305.2219 Z " fill="#000000"/><text fill="#000000" font-family="sans-serif" font-size="8.4" lengthAdjust="spacing" textLength="102" x="21.6" y="304.3711">StandardChannelMetadata</text><line style="stroke:#181818;stroke-width:0.3;" x1="4.8" x2="124.8" y1="311.1" y2="311.1"/><line style="stroke:#181818;stroke-width:0.3;" x1="4.8" x2="124.8" y1="315.9" y2="315.9"/></g><!--class AverageChannelMetadata--><g id="elem_AverageChannelMetadata"><rect codeLine="55" fill="#F1F1F1" height="58.3313" id="AverageChannelMetadata" rx="1.5" ry="1.5" style="stroke:#181818;stroke-width:0.3;" width="117" x="146.7" y="277.2"/><ellipse cx="155.7" cy="286.8" fill="#ADD1B2" rx="6.6" ry="6.6" style="stroke:#181818;stroke-width:0.6;"/><path d="M155.7281,290.5219 C156.6281,290.5219 157.3688,290.1844 157.9125,289.5469 L157.0875,288.6375 C156.7594,288.9938 156.3656,289.2281 155.8875,289.2281 C154.8844,289.2281 154.1906,288.4313 154.1906,287.0625 C154.1906,285.7313 154.8844,284.925 155.8219,284.925 C156.3094,284.925 156.6656,285.1125 156.9844,285.4031 L157.8094,284.475 C157.3594,284.0344 156.6656,283.6312 155.8219,283.6312 C154.05,283.6312 152.6531,284.9156 152.6531,287.1188 C152.6531,289.35 154.0781,290.5219 155.7281,290.5219 Z " fill="#000000"/><text fill="#000000" font-family="sans-serif" font-size="8.4" lengthAdjust="spacing" textLength="97.8" x="164.1" y="289.6711">AverageChannelMetadata</text><line style="stroke:#181818;stroke-width:0.3;" x1="147.3" x2="263.1" y1="296.4" y2="296.4"/><text fill="#000000" font-family="sans-serif" font-size="8.4" lengthAdjust="spacing" textLength="55.2" x="150.3" y="306.593">low_limit : float</text><text fill="#000000" font-family="sans-serif" font-size="8.4" lengthAdjust="spacing" textLength="85.2" x="150.3" y="316.4367">max_attempts : integer</text><text fill="#000000" font-family="sans-serif" font-size="8.4" lengthAdjust="spacing" textLength="76.8" x="150.3" y="326.2805">max_deviation : float</text><line style="stroke:#181818;stroke-width:0.3;" x1="147.3" x2="263.1" y1="330.7313" y2="330.7313"/></g><g id="elem_GMN33"><path d="M113.7,371.4 L113.7,432.2438 A0,0 0 0 0 113.7,432.2438 L296.7,432.2438 A0,0 0 0 0 296.7,432.2438 L296.7,377.4 L290.7,371.4 L207.6,371.4 L205.2,335.418 L202.8,371.4 L113.7,371.4 A0,0 0 0 0 113.7,371.4 " fill="#FEFFDD" style="stroke:#181818;stroke-width:0.3;"/><path d="M290.7,371.4 L290.7,377.4 L296.7,377.4 L290.7,371.4 " fill="#FEFFDD" style="stroke:#181818;stroke-width:0.3;"/><text fill="#000000" font-family="sans-serif" font-size="7.8" lengthAdjust="spacing" textLength="168" x="117.3" y="381.6363">These attributes may change for individual values</text><text fill="#000000" font-family="sans-serif" font-size="7.8" lengthAdjust="spacing" textLength="170.4" x="117.3" y="390.777">and are currently saved in eveH5 for each position.</text><text fill="#000000" font-family="sans-serif" font-size="7.8" lengthAdjust="spacing" textLength="1.8" x="117.3" y="399.9176">&#160;</text><text fill="#000000" font-family="sans-serif" font-size="7.8" lengthAdjust="spacing" textLength="140.4" x="117.3" y="409.0582">If we go for separate detectors if they are</text><text fill="#000000" font-family="sans-serif" font-size="7.8" lengthAdjust="spacing" textLength="123" x="117.3" y="418.1988">redefined in different scan modules,</text><text fill="#000000" font-family="sans-serif" font-size="7.8" lengthAdjust="spacing" textLength="100.2" x="117.3" y="427.3395">would this solve the problem?</text></g><!--class IntervalChannelMetadata--><g id="elem_IntervalChannelMetadata"><rect codeLine="69" fill="#F1F1F1" height="38.6438" id="IntervalChannelMetadata" rx="1.5" ry="1.5" style="stroke:#181818;stroke-width:0.3;" width="114.6" x="284.7" y="287.1"/><ellipse cx="293.7" cy="296.7" fill="#ADD1B2" rx="6.6" ry="6.6" style="stroke:#181818;stroke-width:0.6;"/><path d="M293.7281,300.4219 C294.6281,300.4219 295.3688,300.0844 295.9125,299.4469 L295.0875,298.5375 C294.7594,298.8938 294.3656,299.1281 293.8875,299.1281 C292.8844,299.1281 292.1906,298.3313 292.1906,296.9625 C292.1906,295.6312 292.8844,294.825 293.8219,294.825 C294.3094,294.825 294.6656,295.0125 294.9844,295.3031 L295.8094,294.375 C295.3594,293.9344 294.6656,293.5313 293.8219,293.5313 C292.05,293.5313 290.6531,294.8156 290.6531,297.0188 C290.6531,299.25 292.0781,300.4219 293.7281,300.4219 Z " fill="#000000"/><text fill="#000000" font-family="sans-serif" font-size="8.4" lengthAdjust="spacing" textLength="95.4" x="302.1" y="299.5711">IntervalChannelMetadata</text><line style="stroke:#181818;stroke-width:0.3;" x1="285.3" x2="398.7" y1="306.3" y2="306.3"/><text fill="#000000" font-family="sans-serif" font-size="8.4" lengthAdjust="spacing" textLength="78.6" x="288.3" y="316.493">trigger_interval : float</text><line style="stroke:#181818;stroke-width:0.3;" x1="285.3" x2="398.7" y1="320.9437" y2="320.9437"/></g><!--class ArrayChannelMetadata--><g id="elem_ArrayChannelMetadata"><rect codeLine="73" fill="#F1F1F1" height="28.8" id="ArrayChannelMetadata" rx="1.5" ry="1.5" style="stroke:#181818;stroke-width:0.3;" width="106.8" x="420.6" y="291.9"/><ellipse cx="429.6" cy="301.5" fill="#ADD1B2" rx="6.6" ry="6.6" style="stroke:#181818;stroke-width:0.6;"/><path d="M429.6281,305.2219 C430.5281,305.2219 431.2688,304.8844 431.8125,304.2469 L430.9875,303.3375 C430.6594,303.6937 430.2656,303.9281 429.7875,303.9281 C428.7844,303.9281 428.0906,303.1312 428.0906,301.7625 C428.0906,300.4313 428.7844,299.625 429.7219,299.625 C430.2094,299.625 430.5656,299.8125 430.8844,300.1031 L431.7094,299.175 C431.2594,298.7344 430.5656,298.3313 429.7219,298.3313 C427.95,298.3313 426.5531,299.6156 426.5531,301.8187 C426.5531,304.05 427.9781,305.2219 429.6281,305.2219 Z " fill="#000000"/><text fill="#000000" font-family="sans-serif" font-size="8.4" lengthAdjust="spacing" textLength="87.6" x="438" y="304.3711">ArrayChannelMetadata</text><line style="stroke:#181818;stroke-width:0.3;" x1="421.2" x2="526.8" y1="311.1" y2="311.1"/><line style="stroke:#181818;stroke-width:0.3;" x1="421.2" x2="526.8" y1="315.9" y2="315.9"/></g><!--class AreaChannelMetadata--><g id="elem_AreaChannelMetadata"><rect codeLine="76" fill="#F1F1F1" height="28.8" id="AreaChannelMetadata" rx="1.5" ry="1.5" style="stroke:#181818;stroke-width:0.3;" width="103.8" x="548.7" y="291.9"/><ellipse cx="557.7" cy="301.5" fill="#ADD1B2" rx="6.6" ry="6.6" style="stroke:#181818;stroke-width:0.6;"/><path d="M557.7281,305.2219 C558.6281,305.2219 559.3688,304.8844 559.9125,304.2469 L559.0875,303.3375 C558.7594,303.6937 558.3656,303.9281 557.8875,303.9281 C556.8844,303.9281 556.1906,303.1312 556.1906,301.7625 C556.1906,300.4313 556.8844,299.625 557.8219,299.625 C558.3094,299.625 558.6656,299.8125 558.9844,300.1031 L559.8094,299.175 C559.3594,298.7344 558.6656,298.3313 557.8219,298.3313 C556.05,298.3313 554.6531,299.6156 554.6531,301.8187 C554.6531,304.05 556.0781,305.2219 557.7281,305.2219 Z " fill="#000000"/><text fill="#000000" font-family="sans-serif" font-size="8.4" lengthAdjust="spacing" textLength="84.6" x="566.1" y="304.3711">AreaChannelMetadata</text><line style="stroke:#181818;stroke-width:0.3;" x1="549.3" x2="651.9" y1="311.1" y2="311.1"/><line style="stroke:#181818;stroke-width:0.3;" x1="549.3" x2="651.9" y1="315.9" y2="315.9"/></g><!--reverse link Metadata to MeasureMetadata--><g id="link_Metadata_MeasureMetadata"><path d="M192.4708,57.6143 C224.2528,71.2883 263.148,88.464 304.8,108.6 C311.154,111.672 317.862,115.056 324.318,118.38 " fill="none" id="Metadata-backto-MeasureMetadata" style="stroke:#181818;stroke-width:0.6;"/><polygon fill="none" points="182.55,53.346,191.048,60.9213,193.8935,54.3074,182.55,53.346" style="stroke:#181818;stroke-width:0.6;"/></g><!--reverse link Metadata to MonitorMetadata--><g id="link_Metadata_MonitorMetadata"><path d="M145.5003,73.5952 C141.9903,110.3872 136.356,169.47 133.176,202.8 " fill="none" id="Metadata-backto-MonitorMetadata" style="stroke:#181818;stroke-width:0.6;"/><polygon fill="none" points="146.526,62.844,141.9166,73.2533,149.0841,73.9371,146.526,62.844" style="stroke:#181818;stroke-width:0.6;"/></g><!--reverse link DeviceMetadata to MonitorMetadata--><g id="link_DeviceMetadata_MonitorMetadata"><path d="M195.1798,173.3917 C179.3998,185.2717 170.16,192.222 156.126,202.788 " fill="none" id="DeviceMetadata-backto-MonitorMetadata" style="stroke:#181818;stroke-width:0.6;stroke-dasharray:7.0,7.0;"/><polygon fill="none" points="203.808,166.896,193.0146,170.5157,197.3451,176.2678,203.808,166.896" style="stroke:#181818;stroke-width:0.6;"/></g><!--reverse link MeasureMetadata to AxisMetadata--><g id="link_MeasureMetadata_AxisMetadata"><path d="M324.1857,163.1804 C302.4477,178.5404 280.938,193.746 261.336,207.6 " fill="none" id="MeasureMetadata-backto-AxisMetadata" style="stroke:#181818;stroke-width:0.6;"/><polygon fill="none" points="333.006,156.948,322.1083,160.2403,326.2632,166.1205,333.006,156.948" style="stroke:#181818;stroke-width:0.6;"/></g><!--reverse link DeviceMetadata to AxisMetadata--><g id="link_DeviceMetadata_AxisMetadata"><path d="M241.8,177.696 C241.8,191.406 241.8,196.404 241.8,207.45 " fill="none" id="DeviceMetadata-backto-AxisMetadata" style="stroke:#181818;stroke-width:0.6;stroke-dasharray:7.0,7.0;"/><polygon fill="none" points="241.8,166.896,238.2,177.696,245.4,177.696,241.8,166.896" style="stroke:#181818;stroke-width:0.6;"/></g><!--reverse link MeasureMetadata to ChannelMetadata--><g id="link_MeasureMetadata_ChannelMetadata"><path d="M353.2818,167.519 C350.4378,181.109 348.81,188.886 345.954,202.524 " fill="none" id="MeasureMetadata-backto-ChannelMetadata" style="stroke:#181818;stroke-width:0.6;"/><polygon fill="none" points="355.494,156.948,349.7581,166.7816,356.8055,168.2564,355.494,156.948" style="stroke:#181818;stroke-width:0.6;"/></g><!--reverse link DeviceMetadata to ChannelMetadata--><g id="link_DeviceMetadata_ChannelMetadata"><path d="M284.5945,173.7911 C298.9165,185.6711 306.822,192.222 319.56,202.788 " fill="none" id="DeviceMetadata-backto-ChannelMetadata" style="stroke:#181818;stroke-width:0.6;stroke-dasharray:7.0,7.0;"/><polygon fill="none" points="276.282,166.896,282.2961,176.562,286.8928,171.0203,276.282,166.896" style="stroke:#181818;stroke-width:0.6;"/></g><!--reverse link MeasureMetadata to TimestampMetadata--><g id="link_MeasureMetadata_TimestampMetadata"><path d="M403.0581,161.8386 C409.7961,165.2766 407.25,163.818 414,166.8 C446.652,181.242 484.434,195.066 513.75,205.194 " fill="none" id="MeasureMetadata-backto-TimestampMetadata" style="stroke:#181818;stroke-width:0.6;"/><polygon fill="none" points="393.438,156.93,401.4219,165.0453,404.6943,158.6319,393.438,156.93" style="stroke:#181818;stroke-width:0.6;"/></g><!--reverse link MeasureMetadata to ExternalMetadata--><g id="link_MeasureMetadata_ExternalMetadata"><path d="M387.5313,164.2741 C402.3033,177.9121 414.324,189.012 429.114,202.668 " fill="none" id="MeasureMetadata-backto-ExternalMetadata" style="stroke:#181818;stroke-width:0.6;"/><polygon fill="none" points="379.596,156.948,385.0892,166.9192,389.9733,161.629,379.596,156.948" style="stroke:#181818;stroke-width:0.6;"/></g><!--reverse link DeviceMetadata to ExternalMetadata--><g id="link_DeviceMetadata_ExternalMetadata"><path d="M304.373,166.6969 C307.865,168.2029 301.416,165.396 304.8,166.8 C338.514,180.774 377.214,195.312 406.092,205.866 " fill="none" id="DeviceMetadata-backto-ExternalMetadata" style="stroke:#181818;stroke-width:0.6;stroke-dasharray:7.0,7.0;"/><polygon fill="none" points="294.456,162.42,302.9474,170.0026,305.7987,163.3913,294.456,162.42" style="stroke:#181818;stroke-width:0.6;"/></g><!--reverse link ChannelMetadata to StandardChannelMetadata--><g id="link_ChannelMetadata_StandardChannelMetadata"><path d="M288.5033,241.1834 C284.8673,242.3414 291.522,240.18 288,241.2 C221.406,260.514 202.308,256.29 136.2,277.2 C123.03,281.364 108.84,286.824 96.606,291.846 " fill="none" id="ChannelMetadata-backto-StandardChannelMetadata" style="stroke:#181818;stroke-width:0.6;"/><polygon fill="none" points="298.794,237.906,287.4108,237.7532,289.5958,244.6136,298.794,237.906" style="stroke:#181818;stroke-width:0.6;"/></g><!--reverse link ChannelMetadata to AverageChannelMetadata--><g id="link_ChannelMetadata_AverageChannelMetadata"><path d="M302.0687,246.8569 C284.6627,257.4349 271.74,265.278 252.192,277.158 " fill="none" id="ChannelMetadata-backto-AverageChannelMetadata" style="stroke:#181818;stroke-width:0.6;"/><polygon fill="none" points="311.298,241.248,300.199,243.7804,303.9383,249.9333,311.298,241.248" style="stroke:#181818;stroke-width:0.6;"/></g><!--reverse link ChannelMetadata to IntervalChannelMetadata--><g id="link_ChannelMetadata_IntervalChannelMetadata"><path d="M342,252.048 C342,265.638 342,273.186 342,286.824 " fill="none" id="ChannelMetadata-backto-IntervalChannelMetadata" style="stroke:#181818;stroke-width:0.6;"/><polygon fill="none" points="342,241.248,338.4,252.048,345.6,252.048,342,241.248" style="stroke:#181818;stroke-width:0.6;"/></g><!--reverse link ChannelMetadata to ArrayChannelMetadata--><g id="link_ChannelMetadata_ArrayChannelMetadata"><path d="M380.762,247.0013 C405.164,262.3613 430.068,278.046 452.076,291.9 " fill="none" id="ChannelMetadata-backto-ArrayChannelMetadata" style="stroke:#181818;stroke-width:0.6;"/><polygon fill="none" points="371.622,241.248,378.8443,250.0479,382.6798,243.9546,371.622,241.248" style="stroke:#181818;stroke-width:0.6;"/></g><!--reverse link ChannelMetadata to AreaChannelMetadata--><g id="link_ChannelMetadata_AreaChannelMetadata"><path d="M395.5033,241.1591 C399.1333,242.3291 392.484,240.15 396,241.2 C458.472,259.83 476.7,255.57 538.2,277.2 C549.882,281.31 562.374,286.782 573.084,291.834 " fill="none" id="ChannelMetadata-backto-AreaChannelMetadata" style="stroke:#181818;stroke-width:0.6;"/><polygon fill="none" points="385.224,237.846,394.3989,244.5856,396.6076,237.7327,385.224,237.846" style="stroke:#181818;stroke-width:0.6;"/></g><!--reverse link Data to Metadata--><g id="link_Data_Metadata"><path codeLine="79" d="M101.67,38.4 C108.534,38.4 108.198,38.4 115.056,38.4 " fill="none" id="Data-backto-Metadata" style="stroke:#181818;stroke-width:0.6;"/><polygon fill="#181818" points="94.47,38.4,98.07,40.8,101.67,38.4,98.07,36,94.47,38.4" style="stroke:#181818;stroke-width:0.6;"/></g><!--SRC=[fLHDQ-Cm4BtxLynvsSrjBxq4qvHje4cMndiBX8arTWJwC9BiDfJ-znt9pcSRsj8GY3tHUpFptcXAXTx3Z08A30Wl6V37e2Qu0H-SD7MAU2g3j8Q3o_ufUysoCc4dFUurCpOGR6m8LiTZ149YxL13PTtA97fjHQjeb6LaMhsd6f8kYtm-oHyd_Siy_xkyNnJfPRQOJul5O_zyL-GnTo8e71hVM1S6Yjiy_JmiRlE7ouAAhVJ0Nq6LD2H06WXRMXbVQZNo5Dfcg6vbqCCJAJM2FsJ8ePAUnYlppnE3V41J4bJEweXtDCuoQGAv2ZayeKwMTA6c5ETQDjtvUzXtiGwx9kf-QEieyepGj-x8JC-1Z7XZN6jaE98VqPRZrbr7IzqeqcI2Vx-5D_QFzfuSSkJFqh-JuBpiwtdI10rKjriqXjJtsD8SMwUJVUjJ3mvv2gc9_TJDXvckgZ1COyztnsXdy3k5zucgMFTxHYvv-WGwSKsXo_ZBqPwE9xccJmDJ7Se-hPNKQQOgPJ6agCRdDOP0kk7wRo1EVqtky9VWZd3GgGUTtSHqhjWItoOcSNBJ1l8Ct479DTGKcsTE8JifMbJGeMh99nJt3kW8ojOv5a_jm6FNNsNgwFvtWXAMMsYibycWB06d5Lzeg6qwuAb1XroFeC0sMiTheOftUHV9qtb79rj2oAgYc0zyYMPO4lvdElXaMoKOotl5MzLHf876sGtRE-OT9I1sllTW6lS4z_Cr4rYZclLTom5z8klUM-TmztdI4npXbs1frV_uTTWRsNy0]--></g></svg>