<?xml version="1.0" encoding="us-ascii" standalone="no"?><svg xmlns="http://www.w3.org/2000/svg" xmlns:xlink="http://www.w3.org/1999/xlink" contentStyleType="text/css" height="540px" preserveAspectRatio="none" style="width:715px;height:540px;background:#FFFFFF;" version="1.1" viewBox="0 0 715 540" width="715px" zoomAndPan="magnify"><defs/><g><!--class EveFile--><g id="elem_EveFile"><rect codeLine="2" fill="#F1F1F1" height="113.625" id="EveFile" rx="2.5" ry="2.5" style="stroke:#181818;stroke-width:0.5;" width="186" x="278" y="7"/><ellipse cx="345.25" cy="23" fill="#ADD1B2" rx="11" ry="11" style="stroke:#181818;stroke-width:1.0;"/><path d="M345.2969,29.2031 C346.7969,29.2031 348.0313,28.6406 348.9375,27.5781 L347.5625,26.0625 C347.0156,26.6563 346.3594,27.0469 345.5625,27.0469 C343.8906,27.0469 342.7344,25.7188 342.7344,23.4375 C342.7344,21.2188 343.8906,19.875 345.4531,19.875 C346.2656,19.875 346.8594,20.1875 347.3906,20.6719 L348.7656,19.125 C348.0156,18.3906 346.8594,17.7188 345.4531,17.7188 C342.5,17.7188 340.1719,19.8594 340.1719,23.5313 C340.1719,27.25 342.5469,29.2031 345.2969,29.2031 Z " fill="#000000"/><text fill="#000000" font-family="sans-serif" font-size="14" lengthAdjust="spacing" textLength="43" x="365.75" y="27.7852">EveFile</text><line style="stroke:#181818;stroke-width:0.5;" x1="279" x2="463" y1="39" y2="39"/><text fill="#000000" font-family="sans-serif" font-size="14" lengthAdjust="spacing" textLength="174" x="284" y="55.9883">metadata : EveFileMetadata</text><text fill="#000000" font-family="sans-serif" font-size="14" lengthAdjust="spacing" textLength="144" x="284" y="72.3945">comments : Comment[]</text><text fill="#000000" font-family="sans-serif" font-size="14" lengthAdjust="spacing" textLength="75" x="284" y="88.8008">scml : SCML</text><text fill="#000000" font-family="sans-serif" font-size="14" lengthAdjust="spacing" textLength="98" x="284" y="105.207">data : EveData[]</text><line style="stroke:#181818;stroke-width:0.5;" x1="279" x2="463" y1="112.625" y2="112.625"/></g><!--class EveFileMetadata--><g id="elem_EveFileMetadata"><rect codeLine="9" fill="#F1F1F1" height="212.0625" id="EveFileMetadata" rx="2.5" ry="2.5" style="stroke:#181818;stroke-width:0.5;" width="262" x="7" y="181"/><ellipse cx="81.75" cy="197" fill="#ADD1B2" rx="11" ry="11" style="stroke:#181818;stroke-width:1.0;"/><path d="M81.7969,203.2031 C83.2969,203.2031 84.5313,202.6406 85.4375,201.5781 L84.0625,200.0625 C83.5156,200.6563 82.8594,201.0469 82.0625,201.0469 C80.3906,201.0469 79.2344,199.7188 79.2344,197.4375 C79.2344,195.2188 80.3906,193.875 81.9531,193.875 C82.7656,193.875 83.3594,194.1875 83.8906,194.6719 L85.2656,193.125 C84.5156,192.3906 83.3594,191.7188 81.9531,191.7188 C79,191.7188 76.6719,193.8594 76.6719,197.5313 C76.6719,201.25 79.0469,203.2031 81.7969,203.2031 Z " fill="#000000"/><text fill="#000000" font-family="sans-serif" font-size="14" lengthAdjust="spacing" textLength="104" x="102.25" y="201.7852">EveFileMetadata</text><line style="stroke:#181818;stroke-width:0.5;" x1="8" x2="268" y1="213" y2="213"/><text fill="#000000" font-family="sans-serif" font-size="14" lengthAdjust="spacing" textLength="99" x="13" y="229.9883">filename : String</text><text fill="#000000" font-family="sans-serif" font-size="14" lengthAdjust="spacing" textLength="113" x="13" y="246.3945">h5_version : String</text><text fill="#000000" font-family="sans-serif" font-size="14" lengthAdjust="spacing" textLength="118" x="13" y="262.8008">eve_version : String</text><text fill="#000000" font-family="sans-serif" font-size="14" lengthAdjust="spacing" textLength="116" x="13" y="279.207">xml_version: String</text><text fill="#000000" font-family="sans-serif" font-size="14" lengthAdjust="spacing" textLength="96" x="13" y="295.6133">location : String</text><text fill="#000000" font-family="sans-serif" font-size="14" lengthAdjust="spacing" textLength="98" x="13" y="312.0195">start : DateTime</text><text fill="#000000" font-family="sans-serif" font-size="14" lengthAdjust="spacing" textLength="91" x="13" y="328.4258">end : DateTime</text><text fill="#000000" font-family="sans-serif" font-size="14" lengthAdjust="spacing" textLength="134" x="13" y="344.832">preferred_axis : String</text><text fill="#000000" font-family="sans-serif" font-size="14" lengthAdjust="spacing" textLength="158" x="13" y="361.2383">preferred_channel : String</text><text fill="#000000" font-family="sans-serif" font-size="14" lengthAdjust="spacing" textLength="250" x="13" y="377.6445">preferred_normalisation_channel : String</text><line style="stroke:#181818;stroke-width:0.5;" x1="8" x2="268" y1="385.0625" y2="385.0625"/></g><!--class Comment--><g id="elem_Comment"><rect codeLine="22" fill="#F1F1F1" height="80.8125" id="Comment" rx="2.5" ry="2.5" style="stroke:#181818;stroke-width:0.5;" width="147" x="304.5" y="246.5"/><ellipse cx="343.8" cy="262.5" fill="#ADD1B2" rx="11" ry="11" style="stroke:#181818;stroke-width:1.0;"/><path d="M343.8469,268.7031 C345.3469,268.7031 346.5813,268.1406 347.4875,267.0781 L346.1125,265.5625 C345.5656,266.1563 344.9094,266.5469 344.1125,266.5469 C342.4406,266.5469 341.2844,265.2188 341.2844,262.9375 C341.2844,260.7188 342.4406,259.375 344.0031,259.375 C344.8156,259.375 345.4094,259.6875 345.9406,260.1719 L347.3156,258.625 C346.5656,257.8906 345.4094,257.2188 344.0031,257.2188 C341.05,257.2188 338.7219,259.3594 338.7219,263.0313 C338.7219,266.75 341.0969,268.7031 343.8469,268.7031 Z " fill="#000000"/><text fill="#000000" font-family="sans-serif" font-size="14" lengthAdjust="spacing" textLength="61" x="363.2" y="267.2852">Comment</text><line style="stroke:#181818;stroke-width:0.5;" x1="305.5" x2="450.5" y1="278.5" y2="278.5"/><text fill="#000000" font-family="sans-serif" font-size="14" lengthAdjust="spacing" textLength="135" x="310.5" y="295.4883">timestamp : DateTime</text><text fill="#000000" font-family="sans-serif" font-size="14" lengthAdjust="spacing" textLength="105" x="310.5" y="311.8945">comment : String</text><line style="stroke:#181818;stroke-width:0.5;" x1="305.5" x2="450.5" y1="319.3125" y2="319.3125"/></g><g id="elem_GMN5"><path d="M271,465.5 L271,521.2031 A0,0 0 0 0 271,521.2031 L485,521.2031 A0,0 0 0 0 485,521.2031 L485,475.5 L475,465.5 L382,465.5 L378,327.92 L374,465.5 L271,465.5 A0,0 0 0 0 271,465.5 " fill="#FEFFDD" style="stroke:#181818;stroke-width:0.5;"/><path d="M475,465.5 L475,475.5 L485,475.5 L475,465.5 " fill="#FEFFDD" style="stroke:#181818;stroke-width:0.5;"/><text fill="#000000" font-family="sans-serif" font-size="13" lengthAdjust="spacing" textLength="192" x="277" y="482.5605">Comments are both, file comment</text><text fill="#000000" font-family="sans-serif" font-size="13" lengthAdjust="spacing" textLength="192" x="277" y="497.7949">and log messages. Discriminating</text><text fill="#000000" font-family="sans-serif" font-size="13" lengthAdjust="spacing" textLength="193" x="277" y="513.0293">could be done in the EveFile class.</text></g><!--class SCML--><g id="elem_SCML"><rect codeLine="28" fill="#F1F1F1" height="80.8125" id="SCML" rx="2.5" ry="2.5" style="stroke:#181818;stroke-width:0.5;" width="180" x="508" y="246.5"/><ellipse cx="575.25" cy="262.5" fill="#ADD1B2" rx="11" ry="11" style="stroke:#181818;stroke-width:1.0;"/><path d="M575.2969,268.7031 C576.7969,268.7031 578.0313,268.1406 578.9375,267.0781 L577.5625,265.5625 C577.0156,266.1563 576.3594,266.5469 575.5625,266.5469 C573.8906,266.5469 572.7344,265.2188 572.7344,262.9375 C572.7344,260.7188 573.8906,259.375 575.4531,259.375 C576.2656,259.375 576.8594,259.6875 577.3906,260.1719 L578.7656,258.625 C578.0156,257.8906 576.8594,257.2188 575.4531,257.2188 C572.5,257.2188 570.1719,259.3594 570.1719,263.0313 C570.1719,266.75 572.5469,268.7031 575.2969,268.7031 Z " fill="#000000"/><text fill="#000000" font-family="sans-serif" font-size="14" lengthAdjust="spacing" textLength="37" x="595.75" y="267.2852">SCML</text><line style="stroke:#181818;stroke-width:0.5;" x1="509" x2="687" y1="278.5" y2="278.5"/><text fill="#000000" font-family="sans-serif" font-size="14" lengthAdjust="spacing" textLength="168" x="514" y="295.4883">metadata : SCMLMetadata</text><text fill="#000000" font-family="sans-serif" font-size="14" lengthAdjust="spacing" textLength="65" x="514" y="311.8945">xml: String</text><line style="stroke:#181818;stroke-width:0.5;" x1="509" x2="687" y1="319.3125" y2="319.3125"/></g><g id="elem_GMN9"><path d="M499.5,36 L499.5,91.7031 A0,0 0 0 0 499.5,91.7031 L599.26,91.7031 L599.08,246.35 L607.26,91.7031 L708.5,91.7031 A0,0 0 0 0 708.5,91.7031 L708.5,46 L698.5,36 L499.5,36 A0,0 0 0 0 499.5,36 " fill="#FEFFDD" style="stroke:#181818;stroke-width:0.5;"/><path d="M698.5,36 L698.5,46 L708.5,46 L698.5,36 " fill="#FEFFDD" style="stroke:#181818;stroke-width:0.5;"/><text fill="#000000" font-family="sans-serif" font-size="13" lengthAdjust="spacing" textLength="176" x="505.5" y="53.0605">xml is currently a string, but will</text><text fill="#000000" font-family="sans-serif" font-size="13" lengthAdjust="spacing" textLength="188" x="505.5" y="68.2949">be replaced/amended by classes</text><text fill="#000000" font-family="sans-serif" font-size="13" lengthAdjust="spacing" textLength="182" x="505.5" y="83.5293">representing the SCML contents</text></g><!--class SCMLMetadata--><g id="elem_SCMLMetadata"><rect codeLine="34" fill="#F1F1F1" height="80.8125" id="SCMLMetadata" rx="2.5" ry="2.5" style="stroke:#181818;stroke-width:0.5;" width="130" x="533" y="453"/><ellipse cx="548" cy="469" fill="#ADD1B2" rx="11" ry="11" style="stroke:#181818;stroke-width:1.0;"/><path d="M548.0469,475.2031 C549.5469,475.2031 550.7813,474.6406 551.6875,473.5781 L550.3125,472.0625 C549.7656,472.6563 549.1094,473.0469 548.3125,473.0469 C546.6406,473.0469 545.4844,471.7188 545.4844,469.4375 C545.4844,467.2188 546.6406,465.875 548.2031,465.875 C549.0156,465.875 549.6094,466.1875 550.1406,466.6719 L551.5156,465.125 C550.7656,464.3906 549.6094,463.7188 548.2031,463.7188 C545.25,463.7188 542.9219,465.8594 542.9219,469.5313 C542.9219,473.25 545.2969,475.2031 548.0469,475.2031 Z " fill="#000000"/><text fill="#000000" font-family="sans-serif" font-size="14" lengthAdjust="spacing" textLength="98" x="562" y="473.7852">SCMLMetadata</text><line style="stroke:#181818;stroke-width:0.5;" x1="534" x2="662" y1="485" y2="485"/><text fill="#000000" font-family="sans-serif" font-size="14" lengthAdjust="spacing" textLength="85" x="539" y="501.9883">author: String</text><text fill="#000000" font-family="sans-serif" font-size="14" lengthAdjust="spacing" textLength="88" x="539" y="518.3945">version: String</text><line style="stroke:#181818;stroke-width:0.5;" x1="534" x2="662" y1="525.8125" y2="525.8125"/></g><!--reverse link EveFile to EveFileMetadata--><g id="link_EveFile_EveFileMetadata"><path codeLine="39" d="M303.1941,129.3088 C283.9141,147.5988 270.55,160.28 248.74,180.96 " fill="none" id="EveFile-backto-EveFileMetadata" style="stroke:#181818;stroke-width:1.0;"/><polygon fill="#181818" points="311.9,121.05,304.7941,122.2775,303.1941,129.3088,310.3,128.0814,311.9,121.05" style="stroke:#181818;stroke-width:1.0;"/></g><!--reverse link EveFile to Comment--><g id="link_EveFile_Comment"><path codeLine="40" d="M373.157,133.0441 C374.387,172.1741 375.64,211.46 376.75,246.39 " fill="none" id="EveFile-backto-Comment" style="stroke:#181818;stroke-width:1.0;"/><polygon fill="#181818" points="372.78,121.05,368.9705,127.1727,373.157,133.0441,376.9665,126.9214,372.78,121.05" style="stroke:#181818;stroke-width:1.0;"/><text fill="#000000" font-family="sans-serif" font-size="13" lengthAdjust="spacing" textLength="7" x="365.5811" y="140.6094">1</text><text fill="#000000" font-family="sans-serif" font-size="13" lengthAdjust="spacing" textLength="7" x="368.9336" y="235.2179">n</text></g><!--reverse link EveFile to SCML--><g id="link_EveFile_SCML"><path codeLine="41" d="M437.1779,129.4211 C477.3679,168.5511 521.44,211.46 557.31,246.39 " fill="none" id="EveFile-backto-SCML" style="stroke:#181818;stroke-width:1.0;"/><polygon fill="#181818" points="428.58,121.05,430.0886,128.1015,437.1779,129.4211,435.6693,122.3696,428.58,121.05" style="stroke:#181818;stroke-width:1.0;"/></g><!--reverse link SCML to SCMLMetadata--><g id="link_SCML_SCMLMetadata"><path codeLine="42" d="M598,339.92 C598,375.95 598,416.68 598,452.69 " fill="none" id="SCML-backto-SCMLMetadata" style="stroke:#181818;stroke-width:1.0;"/><polygon fill="#181818" points="598,327.92,594,333.92,598,339.92,602,333.92,598,327.92" style="stroke:#181818;stroke-width:1.0;"/></g><!--SRC=[TPCnJyCm48Nt_Weh8sf132nTMvZe11j1bUjS4qlsER8lfHNYltDnuhH989FpddtvSk-iZ0n1F9_WHHiGtml1ZmMIXIGfridOzKgqbRCMa0BRcsxvyHcDeAnXyMspUutlrnfRNl6cdyL2tNulbUq-UsG5fOMs17cDPLIhf_q9VD0EnpgSu6_ZR4qoHhfnIj9iTo3fYIKcX7TjeQkDnLIgFHp1UoZsygp3kCRLKvL41FEVZSvRQNI87FFDGtlwjlPn43CmfgsdJ7qGjmNG4OY38t9sI2S8wQDOBMEFqxaS9V-dSIK77e8i8ToBhGxAQwkH4R7CKRd65E80ed08GgEW2ePfYR3t8b6tkSydg5L7uyFvJ879rUjM5znPrN2haCn5I0wdtRKKXuR4bpOcHoRnK1kfe7ZWKS42cExIaK38aKqFWS_pkSWQePH3QXjnIvgOUcBPKENyABVf474ywS_lLglPrKXUzfX5FyCi9J0w5wz7n4flGubV]--></g></svg>