<?xml version="1.0" encoding="us-ascii" standalone="no"?><svg xmlns="http://www.w3.org/2000/svg" xmlns:xlink="http://www.w3.org/1999/xlink" contentStyleType="text/css" height="263px" preserveAspectRatio="none" style="width:147px;height:263px;background:#FFFFFF;" version="1.1" viewBox="0 0 147 263" width="147px" zoomAndPan="magnify"><defs/><g><!--cluster scan--><g id="cluster_scan"><path d="M8.5,6 L39.5,6 A3.75,3.75 0 0 1 42,8.5 L49,28.4063 L137.5,28.4063 A2.5,2.5 0 0 1 140,30.9063 L140,169.5 A2.5,2.5 0 0 1 137.5,172 L8.5,172 A2.5,2.5 0 0 1 6,169.5 L6,8.5 A2.5,2.5 0 0 1 8.5,6 " fill="none" style="stroke:#000000;stroke-width:1.5;"/><line style="stroke:#000000;stroke-width:1.5;" x1="6" x2="49" y1="28.4063" y2="28.4063"/><text fill="#000000" font-family="sans-serif" font-size="14" font-weight="bold" lengthAdjust="spacing" textLength="30" x="10" y="20.9883">scan</text></g><!--cluster entities--><g id="cluster_entities"><path d="M32.5,49 L82.5,49 A3.75,3.75 0 0 1 85,51.5 L92,71.4063 L113.5,71.4063 A2.5,2.5 0 0 1 116,73.9063 L116,145.5 A2.5,2.5 0 0 1 113.5,148 L32.5,148 A2.5,2.5 0 0 1 30,145.5 L30,51.5 A2.5,2.5 0 0 1 32.5,49 " fill="none" style="stroke:#000000;stroke-width:1.5;"/><line style="stroke:#000000;stroke-width:1.5;" x1="30" x2="92" y1="71.4063" y2="71.4063"/><text fill="#000000" font-family="sans-serif" font-size="14" font-weight="bold" lengthAdjust="spacing" textLength="49" x="34" y="63.9883">entities</text></g><!--class File--><g id="elem_File"><rect fill="#F1F1F1" height="48" id="File" rx="2.5" ry="2.5" style="stroke:#181818;stroke-width:0.5;" width="53" x="46.5" y="84"/><ellipse cx="61.5" cy="100" fill="#ADD1B2" rx="11" ry="11" style="stroke:#181818;stroke-width:1.0;"/><path d="M61.5469,106.2031 C63.0469,106.2031 64.2813,105.6406 65.1875,104.5781 L63.8125,103.0625 C63.2656,103.6563 62.6094,104.0469 61.8125,104.0469 C60.1406,104.0469 58.9844,102.7188 58.9844,100.4375 C58.9844,98.2188 60.1406,96.875 61.7031,96.875 C62.5156,96.875 63.1094,97.1875 63.6406,97.6719 L65.0156,96.125 C64.2656,95.3906 63.1094,94.7188 61.7031,94.7188 C58.75,94.7188 56.4219,96.8594 56.4219,100.5313 C56.4219,104.25 58.7969,106.2031 61.5469,106.2031 Z " fill="#000000"/><text fill="#000000" font-family="sans-serif" font-size="14" lengthAdjust="spacing" textLength="21" x="75.5" y="104.7852">File</text><line style="stroke:#181818;stroke-width:0.5;" x1="47.5" x2="98.5" y1="116" y2="116"/><line style="stroke:#181818;stroke-width:0.5;" x1="47.5" x2="98.5" y1="124" y2="124"/></g><!--class Scan--><g id="elem_Scan"><rect codeLine="3" fill="#F1F1F1" height="64.4063" id="Scan" rx="2.5" ry="2.5" style="stroke:#181818;stroke-width:0.5;" width="63" x="41.5" y="192"/><ellipse cx="56.5" cy="208" fill="#ADD1B2" rx="11" ry="11" style="stroke:#181818;stroke-width:1.0;"/><path d="M56.5469,214.2031 C58.0469,214.2031 59.2813,213.6406 60.1875,212.5781 L58.8125,211.0625 C58.2656,211.6563 57.6094,212.0469 56.8125,212.0469 C55.1406,212.0469 53.9844,210.7188 53.9844,208.4375 C53.9844,206.2188 55.1406,204.875 56.7031,204.875 C57.5156,204.875 58.1094,205.1875 58.6406,205.6719 L60.0156,204.125 C59.2656,203.3906 58.1094,202.7188 56.7031,202.7188 C53.75,202.7188 51.4219,204.8594 51.4219,208.5313 C51.4219,212.25 53.7969,214.2031 56.5469,214.2031 Z " fill="#000000"/><text fill="#000000" font-family="sans-serif" font-size="14" lengthAdjust="spacing" textLength="31" x="70.5" y="212.7852">Scan</text><line style="stroke:#181818;stroke-width:0.5;" x1="42.5" x2="103.5" y1="224" y2="224"/><line style="stroke:#181818;stroke-width:0.5;" x1="42.5" x2="103.5" y1="232" y2="232"/><text fill="#000000" font-family="sans-serif" font-size="14" lengthAdjust="spacing" textLength="37" x="47.5" y="248.9883">load()</text></g><!--reverse link File to Scan--><g id="link_File_Scan"><path d="M73,150.07 C73,167.25 73,172.88 73,191.75 " fill="none" id="File-backto-Scan" style="stroke:#181818;stroke-width:1.0;"/><polygon fill="none" points="73,132.07,67,150.07,79,150.07,73,132.07" style="stroke:#181818;stroke-width:1.0;"/></g><!--SRC=[7SVB2O0m303GUwR8JJtOtXt01PmWj44BwGSJGH1tj_XkRpZCcYxUDw5YLnONQlP1I7MEYVQJCi1Vt08LvDkuH4NjSLmiMM9rQnB61x2JId6Su8KF]--></g></svg>