<?xml version="1.0" encoding="us-ascii" standalone="no"?><svg xmlns="http://www.w3.org/2000/svg" xmlns:xlink="http://www.w3.org/1999/xlink" contentStyleType="text/css" height="454.3px" preserveAspectRatio="none" style="width:550px;height:454px;background:#FFFFFF;" version="1.1" viewBox="0 0 550 454" width="550.2px" zoomAndPan="magnify"><defs/><g><!--class EveData--><g id="elem_EveData"><rect codeLine="3" fill="#F1F1F1" height="68.0531" id="EveData" rx="1.75" ry="1.75" style="stroke:#181818;stroke-width:0.3499999999999999;" width="115.5" x="204.4" y="4.9"/><ellipse cx="240.975" cy="16.1" fill="#ADD1B2" rx="7.7" ry="7.7" style="stroke:#181818;stroke-width:0.6999999999999998;"/><path d="M241.0078,20.4422 C242.0578,20.4422 242.9219,20.0484 243.5562,19.3047 L242.5937,18.2437 C242.2109,18.6594 241.7516,18.9328 241.1937,18.9328 C240.0234,18.9328 239.2141,18.0031 239.2141,16.4062 C239.2141,14.8531 240.0234,13.9125 241.1172,13.9125 C241.6859,13.9125 242.1016,14.1312 242.4734,14.4703 L243.4359,13.3875 C242.9109,12.8734 242.1016,12.4031 241.1172,12.4031 C239.05,12.4031 237.4203,13.9016 237.4203,16.4719 C237.4203,19.075 239.0828,20.4422 241.0078,20.4422 Z " fill="#000000"/><text fill="#000000" font-family="sans-serif" font-size="9.8" lengthAdjust="spacing" textLength="36.4" x="255.325" y="19.4496">EveData</text><line style="stroke:#181818;stroke-width:0.3499999999999999;" x1="205.1" x2="319.2" y1="27.3" y2="27.3"/><text fill="#000000" font-family="sans-serif" font-size="9.8" lengthAdjust="spacing" textLength="107.1" x="208.6" y="39.1918">metadata : EveMetadata</text><text fill="#000000" font-family="sans-serif" font-size="9.8" lengthAdjust="spacing" textLength="82.6" x="208.6" y="50.6762">values : np.ndarray</text><text fill="#000000" font-family="sans-serif" font-size="9.8" lengthAdjust="spacing" textLength="74.2" x="208.6" y="62.1605">type : DeviceType</text><line style="stroke:#181818;stroke-width:0.3499999999999999;" x1="205.1" x2="319.2" y1="67.3531" y2="67.3531"/></g><path d="M4.2,10.5 L4.2,60.1562 A0,0 0 0 0 4.2,60.1562 L179.9,60.1562 A0,0 0 0 0 179.9,60.1562 L179.9,38.1281 L207.2,47.3266 L179.9,32.5281 L179.9,17.5 L172.9,10.5 L4.2,10.5 A0,0 0 0 0 4.2,10.5 " fill="#FEFFDD" style="stroke:#181818;stroke-width:0.3499999999999999;"/><path d="M172.9,10.5 L172.9,17.5 L179.9,17.5 L172.9,10.5 " fill="#FEFFDD" style="stroke:#181818;stroke-width:0.3499999999999999;"/><text fill="#000000" font-family="sans-serif" font-size="9.1" lengthAdjust="spacing" textLength="112" x="8.4" y="22.4424">"values" contains a 1D array.</text><text fill="#000000" font-family="sans-serif" font-size="9.1" lengthAdjust="spacing" textLength="161" x="8.4" y="33.1064">For individual values see derived classes</text><text fill="#000000" font-family="sans-serif" font-size="9.1" lengthAdjust="spacing" textLength="116.2" x="8.4" y="43.7705">EveAverageDetectorData and</text><text fill="#000000" font-family="sans-serif" font-size="9.1" lengthAdjust="spacing" textLength="96.6" x="8.4" y="54.4346">EveIntervalDetectorData</text><!--class DeviceType--><g id="elem_DeviceType"><rect codeLine="15" fill="#F1F1F1" height="68.0531" id="DeviceType" rx="1.75" ry="1.75" style="stroke:#181818;stroke-width:0.3499999999999999;" width="71.4" x="344.75" y="4.9"/><ellipse cx="355.25" cy="16.1" fill="#EB937F" rx="7.7" ry="7.7" style="stroke:#181818;stroke-width:0.6999999999999998;"/><path d="M352.4937,20.3 L357.7547,20.3 L357.7547,18.8234 L354.2547,18.8234 L354.2547,17.0406 L357.1203,17.0406 L357.1203,15.575 L354.2547,15.575 L354.2547,14.0219 L357.6344,14.0219 L357.6344,12.5453 L352.4937,12.5453 L352.4937,20.3 Z " fill="#000000"/><text fill="#000000" font-family="sans-serif" font-size="9.8" lengthAdjust="spacing" textLength="49" x="365.05" y="19.4496">DeviceType</text><line style="stroke:#181818;stroke-width:0.3499999999999999;" x1="345.45" x2="415.45" y1="27.3" y2="27.3"/><text fill="#000000" font-family="sans-serif" font-size="9.8" lengthAdjust="spacing" textLength="34.3" x="348.95" y="39.1918">MOTOR</text><text fill="#000000" font-family="sans-serif" font-size="9.8" lengthAdjust="spacing" textLength="48.3" x="348.95" y="50.6762">DETECTOR</text><text fill="#000000" font-family="sans-serif" font-size="9.8" lengthAdjust="spacing" textLength="27.3" x="348.95" y="62.1605">DUMB</text><line style="stroke:#181818;stroke-width:0.3499999999999999;" x1="345.45" x2="415.45" y1="67.3531" y2="67.3531"/></g><g id="elem_GMN6"><path d="M440.65,19.25 L440.65,36.05 L416.332,38.85 L440.65,41.65 L440.65,58.2422 A0,0 0 0 0 440.65,58.2422 L545.65,58.2422 A0,0 0 0 0 545.65,58.2422 L545.65,26.25 L538.65,19.25 L440.65,19.25 A0,0 0 0 0 440.65,19.25 " fill="#FEFFDD" style="stroke:#181818;stroke-width:0.3499999999999999;"/><path d="M538.65,19.25 L538.65,26.25 L545.65,26.25 L538.65,19.25 " fill="#FEFFDD" style="stroke:#181818;stroke-width:0.3499999999999999;"/><text fill="#000000" font-family="sans-serif" font-size="9.1" lengthAdjust="spacing" textLength="90.3" x="444.85" y="31.1924">dumb needs renaming.</text><text fill="#000000" font-family="sans-serif" font-size="9.1" lengthAdjust="spacing" textLength="82.6" x="444.85" y="41.8564">How about "monitor",</text><text fill="#000000" font-family="sans-serif" font-size="9.1" lengthAdjust="spacing" textLength="84" x="444.85" y="52.5205">"device" or "passive"?</text></g><!--class EveMetadata--><g id="elem_EveMetadata"><rect codeLine="22" fill="#F1F1F1" height="33.6" id="EveMetadata" rx="1.75" ry="1.75" style="stroke:#181818;stroke-width:0.3499999999999999;" width="80.5" x="65.1" y="120.4"/><ellipse cx="75.6" cy="131.6" fill="#ADD1B2" rx="7.7" ry="7.7" style="stroke:#181818;stroke-width:0.6999999999999998;"/><path d="M75.6328,135.9422 C76.6828,135.9422 77.5469,135.5484 78.1812,134.8047 L77.2187,133.7437 C76.8359,134.1594 76.3766,134.4328 75.8187,134.4328 C74.6484,134.4328 73.8391,133.5031 73.8391,131.9062 C73.8391,130.3531 74.6484,129.4125 75.7422,129.4125 C76.3109,129.4125 76.7266,129.6312 77.0984,129.9703 L78.0609,128.8875 C77.5359,128.3734 76.7266,127.9031 75.7422,127.9031 C73.675,127.9031 72.0453,129.4016 72.0453,131.9719 C72.0453,134.575 73.7078,135.9422 75.6328,135.9422 Z " fill="#000000"/><text fill="#000000" font-family="sans-serif" font-size="9.8" lengthAdjust="spacing" textLength="58.1" x="85.4" y="134.9496">EveMetadata</text><line style="stroke:#181818;stroke-width:0.3499999999999999;" x1="65.8" x2="144.9" y1="142.8" y2="142.8"/><line style="stroke:#181818;stroke-width:0.3499999999999999;" x1="65.8" x2="144.9" y1="148.4" y2="148.4"/></g><g id="elem_GMN10"><path d="M54.6,204.4 L54.6,232.7281 A0,0 0 0 0 54.6,232.7281 L156.1,232.7281 A0,0 0 0 0 156.1,232.7281 L156.1,211.4 L149.1,204.4 L108.15,204.4 L105.35,154.049 L102.55,204.4 L54.6,204.4 A0,0 0 0 0 54.6,204.4 " fill="#FEFFDD" style="stroke:#181818;stroke-width:0.3499999999999999;"/><path d="M149.1,204.4 L149.1,211.4 L156.1,211.4 L149.1,204.4 " fill="#FEFFDD" style="stroke:#181818;stroke-width:0.3499999999999999;"/><text fill="#000000" font-family="sans-serif" font-size="9.1" lengthAdjust="spacing" textLength="86.8" x="58.8" y="216.3424">See separate diagram</text><text fill="#000000" font-family="sans-serif" font-size="9.1" lengthAdjust="spacing" textLength="73.5" x="58.8" y="227.0064">for class hierarchy</text></g><!--class EveMeasureData--><g id="elem_EveMeasureData"><rect codeLine="26" fill="#F1F1F1" height="45.0844" id="EveMeasureData" rx="1.75" ry="1.75" style="stroke:#181818;stroke-width:0.3499999999999999;" width="184.1" x="170.1" y="114.8"/><ellipse cx="222.075" cy="126" fill="#ADD1B2" rx="7.7" ry="7.7" style="stroke:#181818;stroke-width:0.6999999999999998;"/><path d="M222.1078,130.3422 C223.1578,130.3422 224.0219,129.9484 224.6562,129.2047 L223.6937,128.1437 C223.3109,128.5594 222.8516,128.8328 222.2937,128.8328 C221.1234,128.8328 220.3141,127.9031 220.3141,126.3062 C220.3141,124.7531 221.1234,123.8125 222.2172,123.8125 C222.7859,123.8125 223.2016,124.0312 223.5734,124.3703 L224.5359,123.2875 C224.0109,122.7734 223.2016,122.3031 222.2172,122.3031 C220.15,122.3031 218.5203,123.8016 218.5203,126.3719 C218.5203,128.975 220.1828,130.3422 222.1078,130.3422 Z " fill="#000000"/><text fill="#000000" font-family="sans-serif" font-size="9.8" lengthAdjust="spacing" textLength="74.2" x="236.425" y="129.3496">EveMeasureData</text><line style="stroke:#181818;stroke-width:0.3499999999999999;" x1="170.8" x2="353.5" y1="137.2" y2="137.2"/><text fill="#000000" font-family="sans-serif" font-size="9.8" lengthAdjust="spacing" textLength="175.7" x="174.3" y="149.0918">position_counter : np.ndarray(dtype=int)</text><line style="stroke:#181818;stroke-width:0.3499999999999999;" x1="170.8" x2="353.5" y1="154.2844" y2="154.2844"/></g><!--class EveMonitorData--><g id="elem_EveMonitorData"><rect codeLine="30" fill="#F1F1F1" height="45.0844" id="EveMonitorData" rx="1.75" ry="1.75" style="stroke:#181818;stroke-width:0.3499999999999999;" width="164.5" x="378.7" y="114.8"/><ellipse cx="422.625" cy="126" fill="#ADD1B2" rx="7.7" ry="7.7" style="stroke:#181818;stroke-width:0.6999999999999998;"/><path d="M422.6578,130.3422 C423.7078,130.3422 424.5719,129.9484 425.2062,129.2047 L424.2437,128.1437 C423.8609,128.5594 423.4016,128.8328 422.8437,128.8328 C421.6734,128.8328 420.8641,127.9031 420.8641,126.3062 C420.8641,124.7531 421.6734,123.8125 422.7672,123.8125 C423.3359,123.8125 423.7516,124.0312 424.1234,124.3703 L425.0859,123.2875 C424.5609,122.7734 423.7516,122.3031 422.7672,122.3031 C420.7,122.3031 419.0703,123.8016 419.0703,126.3719 C419.0703,128.975 420.7328,130.3422 422.6578,130.3422 Z " fill="#000000"/><text fill="#000000" font-family="sans-serif" font-size="9.8" lengthAdjust="spacing" textLength="70.7" x="436.975" y="129.3496">EveMonitorData</text><line style="stroke:#181818;stroke-width:0.3499999999999999;" x1="379.4" x2="542.5" y1="137.2" y2="137.2"/><text fill="#000000" font-family="sans-serif" font-size="9.8" lengthAdjust="spacing" textLength="156.1" x="382.9" y="149.0918">milliseconds : np.ndarray(dtype=int)</text><line style="stroke:#181818;stroke-width:0.3499999999999999;" x1="379.4" x2="542.5" y1="154.2844" y2="154.2844"/></g><!--class EveMotorData--><g id="elem_EveMotorData"><rect codeLine="34" fill="#F1F1F1" height="33.6" id="EveMotorData" rx="1.75" ry="1.75" style="stroke:#181818;stroke-width:0.3499999999999999;" width="85.4" x="199.85" y="201.6"/><ellipse cx="210.35" cy="212.8" fill="#ADD1B2" rx="7.7" ry="7.7" style="stroke:#181818;stroke-width:0.6999999999999998;"/><path d="M210.3828,217.1422 C211.4328,217.1422 212.2969,216.7484 212.9312,216.0047 L211.9687,214.9437 C211.5859,215.3594 211.1266,215.6328 210.5687,215.6328 C209.3984,215.6328 208.5891,214.7031 208.5891,213.1062 C208.5891,211.5531 209.3984,210.6125 210.4922,210.6125 C211.0609,210.6125 211.4766,210.8312 211.8484,211.1703 L212.8109,210.0875 C212.2859,209.5734 211.4766,209.1031 210.4922,209.1031 C208.425,209.1031 206.7953,210.6016 206.7953,213.1719 C206.7953,215.775 208.4578,217.1422 210.3828,217.1422 Z " fill="#000000"/><text fill="#000000" font-family="sans-serif" font-size="9.8" lengthAdjust="spacing" textLength="63" x="220.15" y="216.1496">EveMotorData</text><line style="stroke:#181818;stroke-width:0.3499999999999999;" x1="200.55" x2="284.55" y1="224" y2="224"/><line style="stroke:#181818;stroke-width:0.3499999999999999;" x1="200.55" x2="284.55" y1="229.6" y2="229.6"/></g><!--class EveDetectorData--><g id="elem_EveDetectorData"><rect codeLine="37" fill="#F1F1F1" height="33.6" id="EveDetectorData" rx="1.75" ry="1.75" style="stroke:#181818;stroke-width:0.3499999999999999;" width="95.9" x="310.1" y="201.6"/><ellipse cx="320.6" cy="212.8" fill="#ADD1B2" rx="7.7" ry="7.7" style="stroke:#181818;stroke-width:0.6999999999999998;"/><path d="M320.6328,217.1422 C321.6828,217.1422 322.5469,216.7484 323.1812,216.0047 L322.2187,214.9437 C321.8359,215.3594 321.3766,215.6328 320.8187,215.6328 C319.6484,215.6328 318.8391,214.7031 318.8391,213.1062 C318.8391,211.5531 319.6484,210.6125 320.7422,210.6125 C321.3109,210.6125 321.7266,210.8312 322.0984,211.1703 L323.0609,210.0875 C322.5359,209.5734 321.7266,209.1031 320.7422,209.1031 C318.675,209.1031 317.0453,210.6016 317.0453,213.1719 C317.0453,215.775 318.7078,217.1422 320.6328,217.1422 Z " fill="#000000"/><text fill="#000000" font-family="sans-serif" font-size="9.8" lengthAdjust="spacing" textLength="73.5" x="330.4" y="216.1496">EveDetectorData</text><line style="stroke:#181818;stroke-width:0.3499999999999999;" x1="310.8" x2="405.3" y1="224" y2="224"/><line style="stroke:#181818;stroke-width:0.3499999999999999;" x1="310.8" x2="405.3" y1="229.6" y2="229.6"/></g><!--class EveAverageDetectorData--><g id="elem_EveAverageDetectorData"><rect codeLine="40" fill="#F1F1F1" height="102.5062" id="EveAverageDetectorData" rx="1.75" ry="1.75" style="stroke:#181818;stroke-width:0.3499999999999999;" width="151.2" x="197.05" y="277.2"/><ellipse cx="216.37" cy="288.4" fill="#ADD1B2" rx="7.7" ry="7.7" style="stroke:#181818;stroke-width:0.6999999999999998;"/><path d="M216.4028,292.7422 C217.4528,292.7422 218.3169,292.3484 218.9512,291.6047 L217.9887,290.5437 C217.6059,290.9594 217.1466,291.2328 216.5887,291.2328 C215.4184,291.2328 214.6091,290.3031 214.6091,288.7062 C214.6091,287.1531 215.4184,286.2125 216.5122,286.2125 C217.0809,286.2125 217.4966,286.4312 217.8684,286.7703 L218.8309,285.6875 C218.3059,285.1734 217.4966,284.7031 216.5122,284.7031 C214.445,284.7031 212.8153,286.2016 212.8153,288.7719 C212.8153,291.375 214.4778,292.7422 216.4028,292.7422 Z " fill="#000000"/><text fill="#000000" font-family="sans-serif" font-size="9.8" lengthAdjust="spacing" textLength="109.2" x="228.13" y="291.7496">EveAverageDetectorData</text><line style="stroke:#181818;stroke-width:0.3499999999999999;" x1="197.75" x2="347.55" y1="299.6" y2="299.6"/><text fill="#000000" font-family="sans-serif" font-size="9.8" lengthAdjust="spacing" textLength="109.2" x="201.25" y="311.4918">raw_values : raggedarray</text><text fill="#000000" font-family="sans-serif" font-size="9.8" lengthAdjust="spacing" textLength="142.8" x="201.25" y="322.9762">attempts : np.ndarray(dtype=int)</text><line style="stroke:#181818;stroke-width:0.3499999999999999;" x1="197.75" x2="347.55" y1="328.1687" y2="328.1687"/><text fill="#000000" font-family="sans-serif" font-size="9.8" lengthAdjust="spacing" textLength="31.5" x="201.25" y="340.0605">mean()</text><text fill="#000000" font-family="sans-serif" font-size="9.8" lengthAdjust="spacing" textLength="21" x="201.25" y="351.5449">std()</text><text fill="#000000" font-family="sans-serif" font-size="9.8" lengthAdjust="spacing" textLength="79.8" x="201.25" y="363.0293">averaged_values()</text><text fill="#000000" font-family="sans-serif" font-size="9.8" lengthAdjust="spacing" textLength="76.3" x="201.25" y="374.5137">has_raw_values()</text></g><g id="elem_GMN18"><path d="M140.7,421.4 L140.7,449.7281 A0,0 0 0 0 140.7,449.7281 L250.6,449.7281 A0,0 0 0 0 250.6,449.7281 L250.6,428.4 L243.6,421.4 L208.208,421.4 L235.732,379.68 L202.608,421.4 L140.7,421.4 A0,0 0 0 0 140.7,421.4 " fill="#FEFFDD" style="stroke:#181818;stroke-width:0.3499999999999999;"/><path d="M243.6,421.4 L243.6,428.4 L250.6,428.4 L243.6,421.4 " fill="#FEFFDD" style="stroke:#181818;stroke-width:0.3499999999999999;"/><text fill="#000000" font-family="sans-serif" font-size="9.1" lengthAdjust="spacing" textLength="94.5" x="144.9" y="433.3424">How does mean() differ</text><text fill="#000000" font-family="sans-serif" font-size="9.1" lengthAdjust="spacing" textLength="95.2" x="144.9" y="444.0064">from values in EveData?</text></g><g id="elem_GMN21"><path d="M275.1,421.4 L275.1,449.7281 A0,0 0 0 0 275.1,449.7281 L424.2,449.7281 A0,0 0 0 0 424.2,449.7281 L424.2,428.4 L417.2,421.4 L342.692,421.4 L309.568,379.68 L337.092,421.4 L275.1,421.4 A0,0 0 0 0 275.1,421.4 " fill="#FEFFDD" style="stroke:#181818;stroke-width:0.3499999999999999;"/><path d="M417.2,421.4 L417.2,428.4 L424.2,428.4 L417.2,421.4 " fill="#FEFFDD" style="stroke:#181818;stroke-width:0.3499999999999999;"/><text fill="#000000" font-family="sans-serif" font-size="9.1" lengthAdjust="spacing" textLength="121.1" x="279.3" y="433.3424">averaged_values() returns only</text><text fill="#000000" font-family="sans-serif" font-size="9.1" lengthAdjust="spacing" textLength="134.4" x="279.3" y="444.0064">those values used to average over</text></g><!--class EveIntervalDetectorData--><g id="elem_EveIntervalDetectorData"><rect codeLine="51" fill="#F1F1F1" height="91.0219" id="EveIntervalDetectorData" rx="1.75" ry="1.75" style="stroke:#181818;stroke-width:0.3499999999999999;" width="141.4" x="372.75" y="282.8"/><ellipse cx="388.92" cy="294" fill="#ADD1B2" rx="7.7" ry="7.7" style="stroke:#181818;stroke-width:0.6999999999999998;"/><path d="M388.9528,298.3422 C390.0028,298.3422 390.8669,297.9484 391.5012,297.2047 L390.5387,296.1437 C390.1559,296.5594 389.6966,296.8328 389.1387,296.8328 C387.9684,296.8328 387.1591,295.9031 387.1591,294.3062 C387.1591,292.7531 387.9684,291.8125 389.0622,291.8125 C389.6309,291.8125 390.0466,292.0312 390.4184,292.3703 L391.3809,291.2875 C390.8559,290.7734 390.0466,290.3031 389.0622,290.3031 C386.995,290.3031 385.3653,291.8016 385.3653,294.3719 C385.3653,296.975 387.0278,298.3422 388.9528,298.3422 Z " fill="#000000"/><text fill="#000000" font-family="sans-serif" font-size="9.8" lengthAdjust="spacing" textLength="106.4" x="399.98" y="297.3496">EveIntervalDetectorData</text><line style="stroke:#181818;stroke-width:0.3499999999999999;" x1="373.45" x2="513.45" y1="305.2" y2="305.2"/><text fill="#000000" font-family="sans-serif" font-size="9.8" lengthAdjust="spacing" textLength="109.2" x="376.95" y="317.0918">raw_values : raggedarray</text><text fill="#000000" font-family="sans-serif" font-size="9.8" lengthAdjust="spacing" textLength="133" x="376.95" y="328.5762">counts : np.ndarray(dtype=int)</text><line style="stroke:#181818;stroke-width:0.3499999999999999;" x1="373.45" x2="513.45" y1="333.7687" y2="333.7687"/><text fill="#000000" font-family="sans-serif" font-size="9.8" lengthAdjust="spacing" textLength="31.5" x="376.95" y="345.6605">mean()</text><text fill="#000000" font-family="sans-serif" font-size="9.8" lengthAdjust="spacing" textLength="21" x="376.95" y="357.1449">std()</text><text fill="#000000" font-family="sans-serif" font-size="9.8" lengthAdjust="spacing" textLength="76.3" x="376.95" y="368.6293">has_raw_values()</text></g><!--reverse link EveData to EveMetadata--><g id="link_EveData_EveMetadata"><path codeLine="59" d="M201.0427,77.33 C175.0867,93.381 152.306,107.464 131.453,120.358 " fill="none" id="EveData-backto-EveMetadata" style="stroke:#181818;stroke-width:0.6999999999999998;"/><polygon fill="#181818" points="208.187,72.912,203.1422,72.7396,201.0427,77.33,206.0875,77.5024,208.187,72.912" style="stroke:#181818;stroke-width:0.6999999999999998;"/></g><!--reverse link EveData to EveMeasureData--><g id="link_EveData_EveMeasureData"><path codeLine="60" d="M262.15,85.512 C262.15,99.316 262.15,102.34 262.15,114.639 " fill="none" id="EveData-backto-EveMeasureData" style="stroke:#181818;stroke-width:0.6999999999999998;"/><polygon fill="none" points="262.15,72.912,257.95,85.512,266.35,85.512,262.15,72.912" style="stroke:#181818;stroke-width:0.6999999999999998;"/></g><!--reverse link EveData to EveMonitorData--><g id="link_EveData_EveMonitorData"><path codeLine="61" d="M331.2465,73.2471 C361.9695,88.2271 387.842,100.849 416.325,114.737 " fill="none" id="EveData-backto-EveMonitorData" style="stroke:#181818;stroke-width:0.6999999999999998;"/><polygon fill="none" points="319.921,67.725,329.4058,77.0223,333.0872,69.4719,319.921,67.725" style="stroke:#181818;stroke-width:0.6999999999999998;"/></g><!--reverse link EveMeasureData to EveMotorData--><g id="link_EveMeasureData_EveMotorData"><path codeLine="62" d="M253.791,171.9417 C250.55,185.1437 249.487,189.455 246.533,201.488 " fill="none" id="EveMeasureData-backto-EveMotorData" style="stroke:#181818;stroke-width:0.6999999999999998;"/><polygon fill="none" points="256.795,159.705,249.7121,170.9403,257.8699,172.943,256.795,159.705" style="stroke:#181818;stroke-width:0.6999999999999998;"/></g><!--reverse link EveMeasureData to EveDetectorData--><g id="link_EveMeasureData_EveDetectorData"><path codeLine="63" d="M298.0407,167.7675 C313.8957,180.9695 324.107,189.455 338.569,201.488 " fill="none" id="EveMeasureData-backto-EveDetectorData" style="stroke:#181818;stroke-width:0.6999999999999998;"/><polygon fill="none" points="288.358,159.705,295.3532,170.9951,300.7283,164.54,288.358,159.705" style="stroke:#181818;stroke-width:0.6999999999999998;"/></g><!--reverse link EveDetectorData to EveAverageDetectorData--><g id="link_EveDetectorData_EveAverageDetectorData"><path codeLine="64" d="M337.4719,245.2456 C328.6729,256.4176 324.275,262.01 312.382,277.116 " fill="none" id="EveDetectorData-backto-EveAverageDetectorData" style="stroke:#181818;stroke-width:0.6999999999999998;"/><polygon fill="none" points="345.268,235.347,334.1724,242.6469,340.7715,247.8442,345.268,235.347" style="stroke:#181818;stroke-width:0.6999999999999998;"/></g><!--reverse link EveDetectorData to EveIntervalDetectorData--><g id="link_EveDetectorData_EveIntervalDetectorData"><path codeLine="65" d="M378.6288,245.245 C388.4988,257.775 394.842,265.846 408.037,282.604 " fill="none" id="EveDetectorData-backto-EveIntervalDetectorData" style="stroke:#181818;stroke-width:0.6999999999999998;"/><polygon fill="none" points="370.832,235.347,375.3294,247.8439,381.9281,242.6461,370.832,235.347" style="stroke:#181818;stroke-width:0.6999999999999998;"/></g><!--SRC=[dLHBRzim3BxxLn2-B1tMO3tiOgmejYN3TWWARDajGC1OT2BCfWn9TX5q_U-Z7qhirCKUlfWYgO-FZzGhzrDpYHOBKAM6ctTleoZDqJbOrhH0Z_0OWNm5ULJDCMaCg_xKcchCAt9Yu7BE2gt5Owltnv94kw1QfxIMG_GKiV44EMKUJ1OY94c7q5wAEpc6rB17pGuGRXRGeivRZy_6WcQbQwqgp4DqHmIAhAv9GPj_ZoSnFjHaSKyByfHwOzkYa5KmVsLFLb26zeXOGPDh959L36hesx6wNzz_QwN5ShtyT3hyM7qCLLgzF_W4L5NiW8cK0qkCXURzVCDVp0FWpbGUuiAmbh3ncmt7geqJWvGObrA4b1FV3GW9VPSi-YWxuxqf4lWkzJjgY1IbqhWNHZUS2L1t-Q2b2JOz74Tew2exPFanqvIh9oYDqruRtgQcQjep8dUc6cPlDVihoM80rnKo0LVeFDUEX5Bb_XBg33JKZpWScwPOxhAm-B0zpQZux6amf255z9wAqh-SNhS4oBDET5xr4dQ1LH-ZrnxGRS-1PrUNV3K3e8oar64APLb6LXYpfWWphJcioDtmShyw4mKdpvEHeVELbJKod1ytx0_6KS2ld2oBD-4I6FaFEZgr6F_IqdPs_gEX4wsBmcFq-lfwzFu4_VjVmN0QwUUsytn65zD_Tlc3m-YHk1p8u3J1p8k-aw_FRm00]--></g></svg>