<?xml version="1.0" encoding="us-ascii" standalone="no"?><svg xmlns="http://www.w3.org/2000/svg" xmlns:xlink="http://www.w3.org/1999/xlink" contentStyleType="text/css" height="651px" preserveAspectRatio="none" style="width:978px;height:651px;background:#FFFFFF;" version="1.1" viewBox="0 0 978 651" width="978px" zoomAndPan="magnify"><defs/><g><!--cluster scan--><g id="cluster_scan"><path d="M647.5,6 L683.5,6 A3.75,3.75 0 0 1 686,8.5 L693,28.2969 L968.5,28.2969 A2.5,2.5 0 0 1 971,30.7969 L971,236.5 A2.5,2.5 0 0 1 968.5,239 L647.5,239 A2.5,2.5 0 0 1 645,236.5 L645,8.5 A2.5,2.5 0 0 1 647.5,6 " fill="none" style="stroke:#000000;stroke-width:1.5;"/><line style="stroke:#000000;stroke-width:1.5;" x1="645" x2="693" y1="28.2969" y2="28.2969"/><text fill="#000000" font-family="sans-serif" font-size="14" font-weight="bold" lengthAdjust="spacing" textLength="35" x="649" y="20.9951">scan</text></g><!--cluster boundaries--><g id="cluster_boundaries"><path d="M671.5,49 L761.5,49 A3.75,3.75 0 0 1 764,51.5 L771,71.2969 L944.5,71.2969 A2.5,2.5 0 0 1 947,73.7969 L947,212.5 A2.5,2.5 0 0 1 944.5,215 L671.5,215 A2.5,2.5 0 0 1 669,212.5 L669,51.5 A2.5,2.5 0 0 1 671.5,49 " fill="none" style="stroke:#000000;stroke-width:1.5;"/><line style="stroke:#000000;stroke-width:1.5;" x1="669" x2="771" y1="71.2969" y2="71.2969"/><text fill="#000000" font-family="sans-serif" font-size="14" font-weight="bold" lengthAdjust="spacing" textLength="89" x="673" y="63.9951">boundaries</text></g><!--cluster scan--><g id="cluster_scan"><path d="M825.5,92 L861.5,92 A3.75,3.75 0 0 1 864,94.5 L871,114.2969 L920.5,114.2969 A2.5,2.5 0 0 1 923,116.7969 L923,188.5 A2.5,2.5 0 0 1 920.5,191 L825.5,191 A2.5,2.5 0 0 1 823,188.5 L823,94.5 A2.5,2.5 0 0 1 825.5,92 " fill="none" style="stroke:#000000;stroke-width:1.5;"/><line style="stroke:#000000;stroke-width:1.5;" x1="823" x2="871" y1="114.2969" y2="114.2969"/><text fill="#000000" font-family="sans-serif" font-size="14" font-weight="bold" lengthAdjust="spacing" textLength="35" x="827" y="106.9951">scan</text></g><!--cluster setup--><g id="cluster_setup"><path d="M695.5,92 L741.5,92 A3.75,3.75 0 0 1 744,94.5 L751,114.2969 L796.5,114.2969 A2.5,2.5 0 0 1 799,116.7969 L799,188.5 A2.5,2.5 0 0 1 796.5,191 L695.5,191 A2.5,2.5 0 0 1 693,188.5 L693,94.5 A2.5,2.5 0 0 1 695.5,92 " fill="none" style="stroke:#000000;stroke-width:1.5;"/><line style="stroke:#000000;stroke-width:1.5;" x1="693" x2="751" y1="114.2969" y2="114.2969"/><text fill="#000000" font-family="sans-serif" font-size="14" font-weight="bold" lengthAdjust="spacing" textLength="45" x="697" y="106.9951">setup</text></g><!--class Scan--><g id="elem_Scan"><rect fill="#F1F1F1" height="48" id="Scan" rx="2.5" ry="2.5" style="stroke:#181818;stroke-width:0.5;" width="67" x="839.5" y="127"/><ellipse cx="854.5" cy="143" fill="#ADD1B2" rx="11" ry="11" style="stroke:#181818;stroke-width:1.0;"/><path d="M857.4844,148.6406 Q856.9063,148.9375 856.2656,149.0781 Q855.625,149.2344 854.9219,149.2344 Q852.4063,149.2344 851.0781,147.5938 Q849.7656,145.9375 849.7656,142.8125 Q849.7656,139.6719 851.0781,138.0313 Q852.4063,136.375 854.9219,136.375 Q855.625,136.375 856.2656,136.5313 Q856.9219,136.6719 857.4844,136.9688 L857.4844,139.6875 Q856.8438,139.1094 856.25,138.8438 Q855.6563,138.5781 855.0313,138.5781 Q853.6875,138.5781 853,139.6406 Q852.3125,140.7031 852.3125,142.8125 Q852.3125,144.9063 853,145.9844 Q853.6875,147.0469 855.0313,147.0469 Q855.6563,147.0469 856.25,146.7813 Q856.8438,146.5 857.4844,145.9219 L857.4844,148.6406 Z " fill="#000000"/><text fill="#000000" font-family="sans-serif" font-size="14" lengthAdjust="spacing" textLength="35" x="868.5" y="147.8467">Scan</text><line style="stroke:#181818;stroke-width:0.5;" x1="840.5" x2="905.5" y1="159" y2="159"/><line style="stroke:#181818;stroke-width:0.5;" x1="840.5" x2="905.5" y1="167" y2="167"/></g><!--class Setup--><g id="elem_Setup"><rect fill="#F1F1F1" height="48" id="Setup" rx="2.5" ry="2.5" style="stroke:#181818;stroke-width:0.5;" width="73" x="709.5" y="127"/><ellipse cx="724.5" cy="143" fill="#ADD1B2" rx="11" ry="11" style="stroke:#181818;stroke-width:1.0;"/><path d="M727.4844,148.6406 Q726.9063,148.9375 726.2656,149.0781 Q725.625,149.2344 724.9219,149.2344 Q722.4063,149.2344 721.0781,147.5938 Q719.7656,145.9375 719.7656,142.8125 Q719.7656,139.6719 721.0781,138.0313 Q722.4063,136.375 724.9219,136.375 Q725.625,136.375 726.2656,136.5313 Q726.9219,136.6719 727.4844,136.9688 L727.4844,139.6875 Q726.8438,139.1094 726.25,138.8438 Q725.6563,138.5781 725.0313,138.5781 Q723.6875,138.5781 723,139.6406 Q722.3125,140.7031 722.3125,142.8125 Q722.3125,144.9063 723,145.9844 Q723.6875,147.0469 725.0313,147.0469 Q725.6563,147.0469 726.25,146.7813 Q726.8438,146.5 727.4844,145.9219 L727.4844,148.6406 Z " fill="#000000"/><text fill="#000000" font-family="sans-serif" font-size="14" lengthAdjust="spacing" textLength="41" x="738.5" y="147.8467">Setup</text><line style="stroke:#181818;stroke-width:0.5;" x1="710.5" x2="781.5" y1="159" y2="159"/><line style="stroke:#181818;stroke-width:0.5;" x1="710.5" x2="781.5" y1="167" y2="167"/></g><!--class File--><g id="elem_File"><rect codeLine="2" fill="#F1F1F1" height="178.375" id="File" rx="2.5" ry="2.5" style="stroke:#181818;stroke-width:0.5;" width="285" x="343.5" y="62"/><ellipse cx="469.25" cy="78" fill="#ADD1B2" rx="11" ry="11" style="stroke:#181818;stroke-width:1.0;"/><path d="M472.2344,83.6406 Q471.6563,83.9375 471.0156,84.0781 Q470.375,84.2344 469.6719,84.2344 Q467.1563,84.2344 465.8281,82.5938 Q464.5156,80.9375 464.5156,77.8125 Q464.5156,74.6719 465.8281,73.0313 Q467.1563,71.375 469.6719,71.375 Q470.375,71.375 471.0156,71.5313 Q471.6719,71.6719 472.2344,71.9688 L472.2344,74.6875 Q471.5938,74.1094 471,73.8438 Q470.4063,73.5781 469.7813,73.5781 Q468.4375,73.5781 467.75,74.6406 Q467.0625,75.7031 467.0625,77.8125 Q467.0625,79.9063 467.75,80.9844 Q468.4375,82.0469 469.7813,82.0469 Q470.4063,82.0469 471,81.7813 Q471.5938,81.5 472.2344,80.9219 L472.2344,83.6406 Z " fill="#000000"/><text fill="#000000" font-family="sans-serif" font-size="14" lengthAdjust="spacing" textLength="25" x="489.75" y="82.8467">File</text><line style="stroke:#181818;stroke-width:0.5;" x1="344.5" x2="627.5" y1="94" y2="94"/><text fill="#000000" font-family="sans-serif" font-size="14" lengthAdjust="spacing" textLength="149" x="349.5" y="110.9951">metadata : Metadata</text><text fill="#000000" font-family="sans-serif" font-size="14" lengthAdjust="spacing" textLength="211" x="349.5" y="127.292">log_messages : LogMessage[]</text><text fill="#000000" font-family="sans-serif" font-size="14" lengthAdjust="spacing" textLength="81" x="349.5" y="143.5889">scan : Scan</text><text fill="#000000" font-family="sans-serif" font-size="14" lengthAdjust="spacing" textLength="93" x="349.5" y="159.8857">setup : Setup</text><text fill="#000000" font-family="sans-serif" font-size="14" lengthAdjust="spacing" textLength="97" x="349.5" y="176.1826">data : Data{}</text><text fill="#000000" font-family="sans-serif" font-size="14" lengthAdjust="spacing" textLength="136" x="349.5" y="192.4795">snapshots : Data{}</text><text fill="#000000" font-family="sans-serif" font-size="14" lengthAdjust="spacing" textLength="128" x="349.5" y="208.7764">monitors : Data{}</text><text fill="#000000" font-family="sans-serif" font-size="14" lengthAdjust="spacing" textLength="273" x="349.5" y="225.0732">position_timestamps : TimestampData</text><line style="stroke:#181818;stroke-width:0.5;" x1="344.5" x2="627.5" y1="232.375" y2="232.375"/></g><!--class Data--><g id="elem_Data"><rect fill="#F1F1F1" height="48" id="Data" rx="2.5" ry="2.5" style="stroke:#181818;stroke-width:0.5;" width="66" x="545" y="398"/><ellipse cx="560" cy="414" fill="#ADD1B2" rx="11" ry="11" style="stroke:#181818;stroke-width:1.0;"/><path d="M562.9844,419.6406 Q562.4063,419.9375 561.7656,420.0781 Q561.125,420.2344 560.4219,420.2344 Q557.9063,420.2344 556.5781,418.5938 Q555.2656,416.9375 555.2656,413.8125 Q555.2656,410.6719 556.5781,409.0313 Q557.9063,407.375 560.4219,407.375 Q561.125,407.375 561.7656,407.5313 Q562.4219,407.6719 562.9844,407.9688 L562.9844,410.6875 Q562.3438,410.1094 561.75,409.8438 Q561.1563,409.5781 560.5313,409.5781 Q559.1875,409.5781 558.5,410.6406 Q557.8125,411.7031 557.8125,413.8125 Q557.8125,415.9063 558.5,416.9844 Q559.1875,418.0469 560.5313,418.0469 Q561.1563,418.0469 561.75,417.7813 Q562.3438,417.5 562.9844,416.9219 L562.9844,419.6406 Z " fill="#000000"/><text fill="#000000" font-family="sans-serif" font-size="14" lengthAdjust="spacing" textLength="34" x="574" y="418.8467">Data</text><line style="stroke:#181818;stroke-width:0.5;" x1="546" x2="610" y1="430" y2="430"/><line style="stroke:#181818;stroke-width:0.5;" x1="546" x2="610" y1="438" y2="438"/></g><g id="elem_GMN5"><path d="M515.5,604 L515.5,644.2656 A0,0 0 0 0 515.5,644.2656 L640.5,644.2656 A0,0 0 0 0 640.5,644.2656 L640.5,614 L630.5,604 L582,604 L578,446.33 L574,604 L515.5,604 A0,0 0 0 0 515.5,604 " fill="#FEFFDD" style="stroke:#181818;stroke-width:0.5;"/><path d="M630.5,604 L630.5,614 L640.5,614 L630.5,604 " fill="#FEFFDD" style="stroke:#181818;stroke-width:0.5;"/><text fill="#000000" font-family="sans-serif" font-size="13" lengthAdjust="spacing" textLength="104" x="521.5" y="621.0669">See diagram for</text><text fill="#000000" font-family="sans-serif" font-size="13" lengthAdjust="spacing" textLength="86" x="521.5" y="636.1997">data module.</text></g><!--class Metadata--><g id="elem_Metadata"><rect codeLine="16" fill="#F1F1F1" height="243.5625" id="Metadata" rx="2.5" ry="2.5" style="stroke:#181818;stroke-width:0.5;" width="302" x="7" y="300"/><ellipse cx="120.25" cy="316" fill="#ADD1B2" rx="11" ry="11" style="stroke:#181818;stroke-width:1.0;"/><path d="M123.2344,321.6406 Q122.6563,321.9375 122.0156,322.0781 Q121.375,322.2344 120.6719,322.2344 Q118.1563,322.2344 116.8281,320.5938 Q115.5156,318.9375 115.5156,315.8125 Q115.5156,312.6719 116.8281,311.0313 Q118.1563,309.375 120.6719,309.375 Q121.375,309.375 122.0156,309.5313 Q122.6719,309.6719 123.2344,309.9688 L123.2344,312.6875 Q122.5938,312.1094 122,311.8438 Q121.4063,311.5781 120.7813,311.5781 Q119.4375,311.5781 118.75,312.6406 Q118.0625,313.7031 118.0625,315.8125 Q118.0625,317.9063 118.75,318.9844 Q119.4375,320.0469 120.7813,320.0469 Q121.4063,320.0469 122,319.7813 Q122.5938,319.5 123.2344,318.9219 L123.2344,321.6406 Z " fill="#000000"/><text fill="#000000" font-family="sans-serif" font-size="14" lengthAdjust="spacing" textLength="67" x="140.75" y="320.8467">Metadata</text><line style="stroke:#181818;stroke-width:0.5;" x1="8" x2="308" y1="332" y2="332"/><text fill="#000000" font-family="sans-serif" font-size="14" lengthAdjust="spacing" textLength="116" x="13" y="348.9951">filename : string</text><text fill="#000000" font-family="sans-serif" font-size="14" lengthAdjust="spacing" textLength="156" x="13" y="365.292">eveh5_version : string</text><text fill="#000000" font-family="sans-serif" font-size="14" lengthAdjust="spacing" textLength="138" x="13" y="381.5889">eve_version : string</text><text fill="#000000" font-family="sans-serif" font-size="14" lengthAdjust="spacing" textLength="134" x="13" y="397.8857">xml_version: string</text><text fill="#000000" font-family="sans-serif" font-size="14" lengthAdjust="spacing" textLength="208" x="13" y="414.1826">measurement_station : string</text><text fill="#000000" font-family="sans-serif" font-size="14" lengthAdjust="spacing" textLength="109" x="13" y="430.4795">start : datetime</text><text fill="#000000" font-family="sans-serif" font-size="14" lengthAdjust="spacing" textLength="104" x="13" y="446.7764">end : datetime</text><text fill="#000000" font-family="sans-serif" font-size="14" lengthAdjust="spacing" textLength="132" x="13" y="463.0732">description : string</text><text fill="#000000" font-family="sans-serif" font-size="14" lengthAdjust="spacing" textLength="145" x="13" y="479.3701">simulation : boolean</text><text fill="#000000" font-family="sans-serif" font-size="14" lengthAdjust="spacing" textLength="156" x="13" y="495.667">preferred_axis : string</text><text fill="#000000" font-family="sans-serif" font-size="14" lengthAdjust="spacing" textLength="185" x="13" y="511.9639">preferred_channel : string</text><text fill="#000000" font-family="sans-serif" font-size="14" lengthAdjust="spacing" textLength="290" x="13" y="528.2607">preferred_normalisation_channel : string</text><line style="stroke:#181818;stroke-width:0.5;" x1="8" x2="308" y1="535.5625" y2="535.5625"/></g><!--class LogMessage--><g id="elem_LogMessage"><rect codeLine="31" fill="#F1F1F1" height="80.5938" id="LogMessage" rx="2.5" ry="2.5" style="stroke:#181818;stroke-width:0.5;" width="165" x="344.5" y="381.5"/><ellipse cx="379.75" cy="397.5" fill="#ADD1B2" rx="11" ry="11" style="stroke:#181818;stroke-width:1.0;"/><path d="M382.7344,403.1406 Q382.1563,403.4375 381.5156,403.5781 Q380.875,403.7344 380.1719,403.7344 Q377.6563,403.7344 376.3281,402.0938 Q375.0156,400.4375 375.0156,397.3125 Q375.0156,394.1719 376.3281,392.5313 Q377.6563,390.875 380.1719,390.875 Q380.875,390.875 381.5156,391.0313 Q382.1719,391.1719 382.7344,391.4688 L382.7344,394.1875 Q382.0938,393.6094 381.5,393.3438 Q380.9063,393.0781 380.2813,393.0781 Q378.9375,393.0781 378.25,394.1406 Q377.5625,395.2031 377.5625,397.3125 Q377.5625,399.4063 378.25,400.4844 Q378.9375,401.5469 380.2813,401.5469 Q380.9063,401.5469 381.5,401.2813 Q382.0938,401 382.7344,400.4219 L382.7344,403.1406 Z " fill="#000000"/><text fill="#000000" font-family="sans-serif" font-size="14" lengthAdjust="spacing" textLength="88" x="398.25" y="402.3467">LogMessage</text><line style="stroke:#181818;stroke-width:0.5;" x1="345.5" x2="508.5" y1="413.5" y2="413.5"/><text fill="#000000" font-family="sans-serif" font-size="14" lengthAdjust="spacing" textLength="153" x="350.5" y="430.4951">timestamp : datetime</text><text fill="#000000" font-family="sans-serif" font-size="14" lengthAdjust="spacing" textLength="117" x="350.5" y="446.792">message : string</text><line style="stroke:#181818;stroke-width:0.5;" x1="345.5" x2="508.5" y1="454.0938" y2="454.0938"/></g><!--class Scan--><g id="elem_Scan"><rect codeLine="36" fill="#F1F1F1" height="80.5938" id="Scan" rx="2.5" ry="2.5" style="stroke:#181818;stroke-width:0.5;" width="128" x="809" y="381.5"/><ellipse cx="851.45" cy="397.5" fill="#ADD1B2" rx="11" ry="11" style="stroke:#181818;stroke-width:1.0;"/><path d="M854.4344,403.1406 Q853.8563,403.4375 853.2156,403.5781 Q852.575,403.7344 851.8719,403.7344 Q849.3563,403.7344 848.0281,402.0938 Q846.7156,400.4375 846.7156,397.3125 Q846.7156,394.1719 848.0281,392.5313 Q849.3563,390.875 851.8719,390.875 Q852.575,390.875 853.2156,391.0313 Q853.8719,391.1719 854.4344,391.4688 L854.4344,394.1875 Q853.7938,393.6094 853.2,393.3438 Q852.6063,393.0781 851.9813,393.0781 Q850.6375,393.0781 849.95,394.1406 Q849.2625,395.2031 849.2625,397.3125 Q849.2625,399.4063 849.95,400.4844 Q850.6375,401.5469 851.9813,401.5469 Q852.6063,401.5469 853.2,401.2813 Q853.7938,401 854.4344,400.4219 L854.4344,403.1406 Z " fill="#000000"/><text fill="#000000" font-family="sans-serif" font-size="14" lengthAdjust="spacing" textLength="35" x="871.55" y="402.3467">Scan</text><line style="stroke:#181818;stroke-width:0.5;" x1="810" x2="936" y1="413.5" y2="413.5"/><text fill="#000000" font-family="sans-serif" font-size="14" lengthAdjust="spacing" textLength="100" x="815" y="430.4951">author : string</text><text fill="#000000" font-family="sans-serif" font-size="14" lengthAdjust="spacing" textLength="116" x="815" y="446.792">filename : string</text><line style="stroke:#181818;stroke-width:0.5;" x1="810" x2="936" y1="454.0938" y2="454.0938"/></g><!--class Setup--><g id="elem_Setup"><rect codeLine="42" fill="#F1F1F1" height="64.2969" id="Setup" rx="2.5" ry="2.5" style="stroke:#181818;stroke-width:0.5;" width="128" x="646" y="390"/><ellipse cx="685.75" cy="406" fill="#ADD1B2" rx="11" ry="11" style="stroke:#181818;stroke-width:1.0;"/><path d="M688.7344,411.6406 Q688.1563,411.9375 687.5156,412.0781 Q686.875,412.2344 686.1719,412.2344 Q683.6563,412.2344 682.3281,410.5938 Q681.0156,408.9375 681.0156,405.8125 Q681.0156,402.6719 682.3281,401.0313 Q683.6563,399.375 686.1719,399.375 Q686.875,399.375 687.5156,399.5313 Q688.1719,399.6719 688.7344,399.9688 L688.7344,402.6875 Q688.0938,402.1094 687.5,401.8438 Q686.9063,401.5781 686.2813,401.5781 Q684.9375,401.5781 684.25,402.6406 Q683.5625,403.7031 683.5625,405.8125 Q683.5625,407.9063 684.25,408.9844 Q684.9375,410.0469 686.2813,410.0469 Q686.9063,410.0469 687.5,409.7813 Q688.0938,409.5 688.7344,408.9219 L688.7344,411.6406 Z " fill="#000000"/><text fill="#000000" font-family="sans-serif" font-size="14" lengthAdjust="spacing" textLength="41" x="705.25" y="410.8467">Setup</text><line style="stroke:#181818;stroke-width:0.5;" x1="647" x2="773" y1="422" y2="422"/><text fill="#000000" font-family="sans-serif" font-size="14" lengthAdjust="spacing" textLength="116" x="652" y="438.9951">filename : string</text><line style="stroke:#181818;stroke-width:0.5;" x1="647" x2="773" y1="446.2969" y2="446.2969"/></g><!--reverse link File to Data--><g id="link_File_Data"><path codeLine="13" d="M520.003,251.4344 C538.973,306.9044 558.17,363.02 570.06,397.8 " fill="none" id="File-backto-Data" style="stroke:#181818;stroke-width:1.0;"/><polygon fill="#181818" points="516.12,240.08,514.2767,247.0515,520.003,251.4344,521.8463,244.4628,516.12,240.08" style="stroke:#181818;stroke-width:1.0;"/><text fill="#000000" font-family="sans-serif" font-size="13" lengthAdjust="spacing" textLength="8" x="559.0004" y="386.7608">n</text></g><!--reverse link Scan to Scan--><g id="link_Scan_Scan"><path d="M873,193.4 C873,239.42 873,324.14 873,381.08 " fill="none" id="Scan-backto-Scan" style="stroke:#181818;stroke-width:1.0;"/><polygon fill="none" points="873,175.4,867,193.4,879,193.4,873,175.4" style="stroke:#181818;stroke-width:1.0;"/></g><!--reverse link Setup to Setup--><g id="link_Setup_Setup"><path d="M740.4802,193.2407 C733.9902,241.6907 721.49,335.15 714.19,389.7 " fill="none" id="Setup-backto-Setup" style="stroke:#181818;stroke-width:1.0;"/><polygon fill="none" points="742.87,175.4,734.5333,192.4441,746.4271,194.0373,742.87,175.4" style="stroke:#181818;stroke-width:1.0;"/></g><!--reverse link File to Metadata--><g id="link_File_Metadata"><path codeLine="46" d="M369.3214,247.6897 C345.9714,266.8397 330.15,279.82 305.55,299.99 " fill="none" id="File-backto-Metadata" style="stroke:#181818;stroke-width:1.0;"/><polygon fill="#181818" points="378.6,240.08,371.4241,240.792,369.3214,247.6897,376.4972,246.9777,378.6,240.08" style="stroke:#181818;stroke-width:1.0;"/></g><!--reverse link File to LogMessage--><g id="link_File_LogMessage"><path codeLine="47" d="M464.1094,251.8014 C453.6594,299.4514 443.83,344.25 435.71,381.28 " fill="none" id="File-backto-LogMessage" style="stroke:#181818;stroke-width:1.0;"/><polygon fill="#181818" points="466.68,240.08,461.4876,245.0839,464.1094,251.8014,469.3018,246.7976,466.68,240.08" style="stroke:#181818;stroke-width:1.0;"/><text fill="#000000" font-family="sans-serif" font-size="13" lengthAdjust="spacing" textLength="8" x="456.6759" y="260.4363">1</text><text fill="#000000" font-family="sans-serif" font-size="13" lengthAdjust="spacing" textLength="8" x="428.4901" y="370.4051">n</text></g><!--reverse link File to Scan--><g id="link_File_Scan"><path codeLine="48" d="M639.6221,221.9677 C712.4321,255.8077 777.78,287.63 792,300 C818.04,322.64 839.34,355.54 853.55,381.32 " fill="none" id="File-backto-Scan" style="stroke:#181818;stroke-width:1.0;"/><polygon fill="#181818" points="628.74,216.91,632.4951,223.0662,639.6221,221.9677,635.8669,215.8115,628.74,216.91" style="stroke:#181818;stroke-width:1.0;"/></g><!--reverse link File to Setup--><g id="link_File_Setup"><path codeLine="49" d="M583.4889,248.9041 C601.5689,268.0941 611.76,279.93 628,300 C651.54,329.1 675.18,364.84 690.98,389.9 " fill="none" id="File-backto-Setup" style="stroke:#181818;stroke-width:1.0;"/><polygon fill="#181818" points="575.26,240.17,576.4631,247.28,583.4889,248.9041,582.2858,241.7941,575.26,240.17" style="stroke:#181818;stroke-width:1.0;"/></g><!--SRC=[TLDDQyCm3BtdLvXU1eCMTjXbvx7JTjfksmXgeYPcjXKifHHA__iSvOiqRIwEdcJfINek732RD-lGd3EJFey29GYO5_Cn_2hkgCezCaE5d7plL7tqrlUl-hc0aF3FTFGsIjjqG7SgCcHzJSVvqiS4QBWcuINiALYXU8Ksn5OiXLniuY7WcoxWQpIwoEoIPThAutPhDc6ZrxD0WcPF8kGxEcXA2rK4RmuKVuAoybIs3dTPLkWuniRxYHnInW0UKpMMQ4EbA1wnViwF63bnMhbkEqxUZOu5xX6uZUWnI9wQaTN514P9K2A5NVjzcL1UGoLo4Mrp8u7rhHiJxuaS3cjg8XumHYnpE5bUNffzHGqXeBld3XGzECjQO1ry6USwYsOGsxJAwqO6fTt8qGdCu4bIzwoYs-sfJLkC5dcdjaRq-Q6LckAIzdgTb-n1DUBm80k5S2yHbJQt-mQAlqHgaebA-pwNphlhOyvtAyzwdLwR8fkdpQJYUMnpjBwpsT97zWy0]--></g></svg>