<?xml version="1.0" encoding="us-ascii" standalone="no"?><svg xmlns="http://www.w3.org/2000/svg" xmlns:xlink="http://www.w3.org/1999/xlink" contentStyleType="text/css" height="835px" preserveAspectRatio="none" style="width:1042px;height:835px;background:#FFFFFF;" version="1.1" viewBox="0 0 1042 835" width="1042px" zoomAndPan="magnify"><defs/><g><!--class Data--><g id="elem_Data"><rect codeLine="3" fill="#F1F1F1" height="113.625" id="Data" rx="2.5" ry="2.5" style="stroke:#181818;stroke-width:0.5;" width="164" x="470" y="35"/><ellipse cx="532.75" cy="51" fill="#ADD1B2" rx="11" ry="11" style="stroke:#181818;stroke-width:1.0;"/><path d="M532.7969,57.2031 C534.2969,57.2031 535.5313,56.6406 536.4375,55.5781 L535.0625,54.0625 C534.5156,54.6563 533.8594,55.0469 533.0625,55.0469 C531.3906,55.0469 530.2344,53.7188 530.2344,51.4375 C530.2344,49.2188 531.3906,47.875 532.9531,47.875 C533.7656,47.875 534.3594,48.1875 534.8906,48.6719 L536.2656,47.125 C535.5156,46.3906 534.3594,45.7188 532.9531,45.7188 C530,45.7188 527.6719,47.8594 527.6719,51.5313 C527.6719,55.25 530.0469,57.2031 532.7969,57.2031 Z " fill="#000000"/><text fill="#000000" font-family="sans-serif" font-size="14" lengthAdjust="spacing" textLength="30" x="553.25" y="55.7852">Data</text><line style="stroke:#181818;stroke-width:0.5;" x1="471" x2="633" y1="67" y2="67"/><text fill="#000000" font-family="sans-serif" font-size="14" lengthAdjust="spacing" textLength="131" x="476" y="83.9883">metadata : Metadata</text><text fill="#000000" font-family="sans-serif" font-size="14" lengthAdjust="spacing" textLength="113" x="476" y="100.3945">_data : np.ndarray</text><text fill="#000000" font-family="sans-serif" font-size="14" lengthAdjust="spacing" textLength="152" x="476" y="116.8008">_importer : DataImporter</text><line style="stroke:#181818;stroke-width:0.5;" x1="471" x2="633" y1="124.2188" y2="124.2188"/><text fill="#000000" font-family="sans-serif" font-size="14" lengthAdjust="spacing" textLength="39" x="476" y="141.207">data()</text></g><path d="M69.5,6 L69.5,168.3438 A0,0 0 0 0 69.5,168.3438 L434.5,168.3438 A0,0 0 0 0 434.5,168.3438 L434.5,91.1719 L474,95.6094 L434.5,83.1719 L434.5,16 L424.5,6 L69.5,6 A0,0 0 0 0 69.5,6 " fill="#FEFFDD" style="stroke:#181818;stroke-width:0.5;"/><path d="M424.5,6 L424.5,16 L434.5,16 L424.5,6 " fill="#FEFFDD" style="stroke:#181818;stroke-width:0.5;"/><text fill="#000000" font-family="sans-serif" font-size="13" lengthAdjust="spacing" textLength="290" x="75.5" y="23.0605">"_data" usually contains a 1D array and is accessed</text><text fill="#000000" font-family="sans-serif" font-size="13" lengthAdjust="spacing" textLength="281" x="75.5" y="38.2949">via the data() getter method (Python property) that</text><text fill="#000000" font-family="sans-serif" font-size="13" lengthAdjust="spacing" textLength="290" x="75.5" y="53.5293">calls the DataImporter on first access if necessary.</text><text fill="#000000" font-family="sans-serif" font-size="13" lengthAdjust="spacing" textLength="3" x="75.5" y="68.7637">&#160;</text><text fill="#000000" font-family="sans-serif" font-size="13" lengthAdjust="spacing" textLength="278" x="75.5" y="83.998">For individual channel values see derived classes</text><text fill="#000000" font-family="sans-serif" font-size="13" lengthAdjust="spacing" textLength="264" x="75.5" y="99.2324">AverageChannelData and IntervalChannelData.</text><text fill="#000000" font-family="sans-serif" font-size="13" lengthAdjust="spacing" textLength="3" x="75.5" y="114.4668">&#160;</text><text fill="#000000" font-family="sans-serif" font-size="13" lengthAdjust="spacing" textLength="312" x="75.5" y="129.7012">ArrayChannelData and AreaChannelData are somewhat</text><text fill="#000000" font-family="sans-serif" font-size="13" lengthAdjust="spacing" textLength="344" x="75.5" y="144.9355">special as they contain either 2D data or a list of data objects</text><text fill="#000000" font-family="sans-serif" font-size="13" lengthAdjust="spacing" textLength="167" x="75.5" y="160.1699">(in case of images and alike).</text><!--class DataImporter--><g id="elem_DataImporter"><rect codeLine="22" fill="#F1F1F1" height="80.8125" id="DataImporter" rx="2.5" ry="2.5" style="stroke:#181818;stroke-width:0.5;" width="116" x="669" y="51.5"/><ellipse cx="684" cy="67.5" fill="#ADD1B2" rx="11" ry="11" style="stroke:#181818;stroke-width:1.0;"/><path d="M684.0469,73.7031 C685.5469,73.7031 686.7813,73.1406 687.6875,72.0781 L686.3125,70.5625 C685.7656,71.1563 685.1094,71.5469 684.3125,71.5469 C682.6406,71.5469 681.4844,70.2188 681.4844,67.9375 C681.4844,65.7188 682.6406,64.375 684.2031,64.375 C685.0156,64.375 685.6094,64.6875 686.1406,65.1719 L687.5156,63.625 C686.7656,62.8906 685.6094,62.2188 684.2031,62.2188 C681.25,62.2188 678.9219,64.3594 678.9219,68.0313 C678.9219,71.75 681.2969,73.7031 684.0469,73.7031 Z " fill="#000000"/><text fill="#000000" font-family="sans-serif" font-size="14" lengthAdjust="spacing" textLength="84" x="698" y="72.2852">DataImporter</text><line style="stroke:#181818;stroke-width:0.5;" x1="670" x2="784" y1="83.5" y2="83.5"/><text fill="#000000" font-family="sans-serif" font-size="14" lengthAdjust="spacing" textLength="42" x="675" y="100.4883">source</text><line style="stroke:#181818;stroke-width:0.5;" x1="670" x2="784" y1="107.9063" y2="107.9063"/><text fill="#000000" font-family="sans-serif" font-size="14" lengthAdjust="spacing" textLength="51" x="675" y="124.8945">import()</text></g><!--class Metadata--><g id="elem_Metadata"><rect codeLine="27" fill="#F1F1F1" height="48" id="Metadata" rx="2.5" ry="2.5" style="stroke:#181818;stroke-width:0.5;" width="93" x="293.5" y="246"/><ellipse cx="308.5" cy="262" fill="#ADD1B2" rx="11" ry="11" style="stroke:#181818;stroke-width:1.0;"/><path d="M308.5469,268.2031 C310.0469,268.2031 311.2813,267.6406 312.1875,266.5781 L310.8125,265.0625 C310.2656,265.6563 309.6094,266.0469 308.8125,266.0469 C307.1406,266.0469 305.9844,264.7188 305.9844,262.4375 C305.9844,260.2188 307.1406,258.875 308.7031,258.875 C309.5156,258.875 310.1094,259.1875 310.6406,259.6719 L312.0156,258.125 C311.2656,257.3906 310.1094,256.7188 308.7031,256.7188 C305.75,256.7188 303.4219,258.8594 303.4219,262.5313 C303.4219,266.25 305.7969,268.2031 308.5469,268.2031 Z " fill="#000000"/><text fill="#000000" font-family="sans-serif" font-size="14" lengthAdjust="spacing" textLength="61" x="322.5" y="266.7852">Metadata</text><line style="stroke:#181818;stroke-width:0.5;" x1="294.5" x2="385.5" y1="278" y2="278"/><line style="stroke:#181818;stroke-width:0.5;" x1="294.5" x2="385.5" y1="286" y2="286"/></g><g id="elem_GMN7"><path d="M235.5,390.5 L235.5,430.9688 A0,0 0 0 0 235.5,430.9688 L358.5,430.9688 A0,0 0 0 0 358.5,430.9688 L358.5,400.5 L348.5,390.5 L306.97,390.5 L332.8,294.18 L298.97,390.5 L235.5,390.5 A0,0 0 0 0 235.5,390.5 " fill="#FEFFDD" style="stroke:#181818;stroke-width:0.5;"/><path d="M348.5,390.5 L348.5,400.5 L358.5,400.5 L348.5,390.5 " fill="#FEFFDD" style="stroke:#181818;stroke-width:0.5;"/><text fill="#000000" font-family="sans-serif" font-size="13" lengthAdjust="spacing" textLength="90" x="241.5" y="407.5605">See diagram for</text><text fill="#000000" font-family="sans-serif" font-size="13" lengthAdjust="spacing" textLength="102" x="241.5" y="422.7949">metadata module.</text></g><!--class MeasureData--><g id="elem_MeasureData"><rect codeLine="34" fill="#F1F1F1" height="64.4063" id="MeasureData" rx="2.5" ry="2.5" style="stroke:#181818;stroke-width:0.5;" width="216" x="444" y="238"/><ellipse cx="505.75" cy="254" fill="#ADD1B2" rx="11" ry="11" style="stroke:#181818;stroke-width:1.0;"/><path d="M505.7969,260.2031 C507.2969,260.2031 508.5313,259.6406 509.4375,258.5781 L508.0625,257.0625 C507.5156,257.6563 506.8594,258.0469 506.0625,258.0469 C504.3906,258.0469 503.2344,256.7188 503.2344,254.4375 C503.2344,252.2188 504.3906,250.875 505.9531,250.875 C506.7656,250.875 507.3594,251.1875 507.8906,251.6719 L509.2656,250.125 C508.5156,249.3906 507.3594,248.7188 505.9531,248.7188 C503,248.7188 500.6719,250.8594 500.6719,254.5313 C500.6719,258.25 503.0469,260.2031 505.7969,260.2031 Z " fill="#000000"/><text fill="#000000" font-family="sans-serif" font-size="14" lengthAdjust="spacing" textLength="84" x="526.25" y="258.7852">MeasureData</text><line style="stroke:#181818;stroke-width:0.5;" x1="445" x2="659" y1="270" y2="270"/><text fill="#000000" font-family="sans-serif" font-size="14" lengthAdjust="spacing" textLength="204" x="450" y="286.9883">positions : np.ndarray(dtype=int)</text><line style="stroke:#181818;stroke-width:0.5;" x1="445" x2="659" y1="294.4063" y2="294.4063"/></g><!--class MonitorData--><g id="elem_MonitorData"><rect codeLine="38" fill="#F1F1F1" height="64.4063" id="MonitorData" rx="2.5" ry="2.5" style="stroke:#181818;stroke-width:0.5;" width="235" x="695.5" y="238"/><ellipse cx="769.25" cy="254" fill="#ADD1B2" rx="11" ry="11" style="stroke:#181818;stroke-width:1.0;"/><path d="M769.2969,260.2031 C770.7969,260.2031 772.0313,259.6406 772.9375,258.5781 L771.5625,257.0625 C771.0156,257.6563 770.3594,258.0469 769.5625,258.0469 C767.8906,258.0469 766.7344,256.7188 766.7344,254.4375 C766.7344,252.2188 767.8906,250.875 769.4531,250.875 C770.2656,250.875 770.8594,251.1875 771.3906,251.6719 L772.7656,250.125 C772.0156,249.3906 770.8594,248.7188 769.4531,248.7188 C766.5,248.7188 764.1719,250.8594 764.1719,254.5313 C764.1719,258.25 766.5469,260.2031 769.2969,260.2031 Z " fill="#000000"/><text fill="#000000" font-family="sans-serif" font-size="14" lengthAdjust="spacing" textLength="79" x="789.75" y="258.7852">MonitorData</text><line style="stroke:#181818;stroke-width:0.5;" x1="696.5" x2="929.5" y1="270" y2="270"/><text fill="#000000" font-family="sans-serif" font-size="14" lengthAdjust="spacing" textLength="223" x="701.5" y="286.9883">milliseconds : np.ndarray(dtype=int)</text><line style="stroke:#181818;stroke-width:0.5;" x1="696.5" x2="929.5" y1="294.4063" y2="294.4063"/></g><!--class AxisData--><g id="elem_AxisData"><rect codeLine="42" fill="#F1F1F1" height="48" id="AxisData" rx="2.5" ry="2.5" style="stroke:#181818;stroke-width:0.5;" width="88" x="394" y="386.5"/><ellipse cx="409" cy="402.5" fill="#ADD1B2" rx="11" ry="11" style="stroke:#181818;stroke-width:1.0;"/><path d="M409.0469,408.7031 C410.5469,408.7031 411.7813,408.1406 412.6875,407.0781 L411.3125,405.5625 C410.7656,406.1563 410.1094,406.5469 409.3125,406.5469 C407.6406,406.5469 406.4844,405.2188 406.4844,402.9375 C406.4844,400.7188 407.6406,399.375 409.2031,399.375 C410.0156,399.375 410.6094,399.6875 411.1406,400.1719 L412.5156,398.625 C411.7656,397.8906 410.6094,397.2188 409.2031,397.2188 C406.25,397.2188 403.9219,399.3594 403.9219,403.0313 C403.9219,406.75 406.2969,408.7031 409.0469,408.7031 Z " fill="#000000"/><text fill="#000000" font-family="sans-serif" font-size="14" lengthAdjust="spacing" textLength="56" x="423" y="407.2852">AxisData</text><line style="stroke:#181818;stroke-width:0.5;" x1="395" x2="481" y1="418.5" y2="418.5"/><line style="stroke:#181818;stroke-width:0.5;" x1="395" x2="481" y1="426.5" y2="426.5"/></g><!--class ChannelData--><g id="elem_ChannelData"><rect codeLine="45" fill="#F1F1F1" height="48" id="ChannelData" rx="2.5" ry="2.5" style="stroke:#181818;stroke-width:0.5;" width="113" x="517.5" y="386.5"/><ellipse cx="532.5" cy="402.5" fill="#ADD1B2" rx="11" ry="11" style="stroke:#181818;stroke-width:1.0;"/><path d="M532.5469,408.7031 C534.0469,408.7031 535.2813,408.1406 536.1875,407.0781 L534.8125,405.5625 C534.2656,406.1563 533.6094,406.5469 532.8125,406.5469 C531.1406,406.5469 529.9844,405.2188 529.9844,402.9375 C529.9844,400.7188 531.1406,399.375 532.7031,399.375 C533.5156,399.375 534.1094,399.6875 534.6406,400.1719 L536.0156,398.625 C535.2656,397.8906 534.1094,397.2188 532.7031,397.2188 C529.75,397.2188 527.4219,399.3594 527.4219,403.0313 C527.4219,406.75 529.7969,408.7031 532.5469,408.7031 Z " fill="#000000"/><text fill="#000000" font-family="sans-serif" font-size="14" lengthAdjust="spacing" textLength="81" x="546.5" y="407.2852">ChannelData</text><line style="stroke:#181818;stroke-width:0.5;" x1="518.5" x2="629.5" y1="418.5" y2="418.5"/><line style="stroke:#181818;stroke-width:0.5;" x1="518.5" x2="629.5" y1="426.5" y2="426.5"/></g><!--class TimestampData--><g id="elem_TimestampData"><rect codeLine="48" fill="#F1F1F1" height="97.2188" id="TimestampData" rx="2.5" ry="2.5" style="stroke:#181818;stroke-width:0.5;" width="253" x="665.5" y="362"/><ellipse cx="737.75" cy="378" fill="#ADD1B2" rx="11" ry="11" style="stroke:#181818;stroke-width:1.0;"/><path d="M737.7969,384.2031 C739.2969,384.2031 740.5313,383.6406 741.4375,382.5781 L740.0625,381.0625 C739.5156,381.6563 738.8594,382.0469 738.0625,382.0469 C736.3906,382.0469 735.2344,380.7188 735.2344,378.4375 C735.2344,376.2188 736.3906,374.875 737.9531,374.875 C738.7656,374.875 739.3594,375.1875 739.8906,375.6719 L741.2656,374.125 C740.5156,373.3906 739.3594,372.7188 737.9531,372.7188 C735,372.7188 732.6719,374.8594 732.6719,378.5313 C732.6719,382.25 735.0469,384.2031 737.7969,384.2031 Z " fill="#000000"/><text fill="#000000" font-family="sans-serif" font-size="14" lengthAdjust="spacing" textLength="100" x="758.25" y="382.7852">TimestampData</text><line style="stroke:#181818;stroke-width:0.5;" x1="666.5" x2="917.5" y1="394" y2="394"/><text fill="#000000" font-family="sans-serif" font-size="14" lengthAdjust="spacing" textLength="241" x="671.5" y="410.9883">_first_positions : np.ndarray(dtype=int)</text><text fill="#000000" font-family="sans-serif" font-size="14" lengthAdjust="spacing" textLength="239" x="671.5" y="427.3945">_last_positions : np.ndarray(dtype=int)</text><line style="stroke:#181818;stroke-width:0.5;" x1="666.5" x2="917.5" y1="434.8125" y2="434.8125"/><text fill="#000000" font-family="sans-serif" font-size="14" lengthAdjust="spacing" textLength="225" x="671.5" y="451.8008">get_position(timestamp, mode=last)</text></g><!--class StandardChannelData--><g id="elem_StandardChannelData"><rect codeLine="54" fill="#F1F1F1" height="48" id="StandardChannelData" rx="2.5" ry="2.5" style="stroke:#181818;stroke-width:0.5;" width="171" x="15.5" y="584.5"/><ellipse cx="30.5" cy="600.5" fill="#ADD1B2" rx="11" ry="11" style="stroke:#181818;stroke-width:1.0;"/><path d="M30.5469,606.7031 C32.0469,606.7031 33.2813,606.1406 34.1875,605.0781 L32.8125,603.5625 C32.2656,604.1563 31.6094,604.5469 30.8125,604.5469 C29.1406,604.5469 27.9844,603.2188 27.9844,600.9375 C27.9844,598.7188 29.1406,597.375 30.7031,597.375 C31.5156,597.375 32.1094,597.6875 32.6406,598.1719 L34.0156,596.625 C33.2656,595.8906 32.1094,595.2188 30.7031,595.2188 C27.75,595.2188 25.4219,597.3594 25.4219,601.0313 C25.4219,604.75 27.7969,606.7031 30.5469,606.7031 Z " fill="#000000"/><text fill="#000000" font-family="sans-serif" font-size="14" lengthAdjust="spacing" textLength="139" x="44.5" y="605.2852">StandardChannelData</text><line style="stroke:#181818;stroke-width:0.5;" x1="16.5" x2="185.5" y1="616.5" y2="616.5"/><line style="stroke:#181818;stroke-width:0.5;" x1="16.5" x2="185.5" y1="624.5" y2="624.5"/></g><g id="elem_GMN24"><path d="M6,758 L6,828.9375 A0,0 0 0 0 6,828.9375 L196,828.9375 A0,0 0 0 0 196,828.9375 L196,768 L186,758 L105,758 L101,632.68 L97,758 L6,758 A0,0 0 0 0 6,758 " fill="#FEFFDD" style="stroke:#181818;stroke-width:0.5;"/><path d="M186,758 L186,768 L196,768 L186,758 " fill="#FEFFDD" style="stroke:#181818;stroke-width:0.5;"/><text fill="#000000" font-family="sans-serif" font-size="13" lengthAdjust="spacing" textLength="134" x="12" y="775.0605">This type does not exist</text><text fill="#000000" font-family="sans-serif" font-size="13" lengthAdjust="spacing" textLength="152" x="12" y="790.2949">in eve-gui and SCML, but is</text><text fill="#000000" font-family="sans-serif" font-size="13" lengthAdjust="spacing" textLength="169" x="12" y="805.5293">a logical functional distinction</text><text fill="#000000" font-family="sans-serif" font-size="13" lengthAdjust="spacing" textLength="146" x="12" y="820.7637">from the AverageChannel.</text></g><!--class AverageChannelData--><g id="elem_AverageChannelData"><rect codeLine="63" fill="#F1F1F1" height="179.25" id="AverageChannelData" rx="2.5" ry="2.5" style="stroke:#181818;stroke-width:0.5;" width="216" x="222" y="519"/><ellipse cx="260.4" cy="535" fill="#ADD1B2" rx="11" ry="11" style="stroke:#181818;stroke-width:1.0;"/><path d="M260.4469,541.2031 C261.9469,541.2031 263.1813,540.6406 264.0875,539.5781 L262.7125,538.0625 C262.1656,538.6563 261.5094,539.0469 260.7125,539.0469 C259.0406,539.0469 257.8844,537.7188 257.8844,535.4375 C257.8844,533.2188 259.0406,531.875 260.6031,531.875 C261.4156,531.875 262.0094,532.1875 262.5406,532.6719 L263.9156,531.125 C263.1656,530.3906 262.0094,529.7188 260.6031,529.7188 C257.65,529.7188 255.3219,531.8594 255.3219,535.5313 C255.3219,539.25 257.6969,541.2031 260.4469,541.2031 Z " fill="#000000"/><text fill="#000000" font-family="sans-serif" font-size="14" lengthAdjust="spacing" textLength="132" x="279.6" y="539.7852">AverageChannelData</text><line style="stroke:#181818;stroke-width:0.5;" x1="223" x2="437" y1="551" y2="551"/><text fill="#000000" font-family="sans-serif" font-size="14" lengthAdjust="spacing" textLength="145" x="228" y="567.9883">raw_data : raggedarray</text><text fill="#000000" font-family="sans-serif" font-size="14" lengthAdjust="spacing" textLength="204" x="228" y="584.3945">attempts : np.ndarray(dtype=int)</text><text fill="#000000" font-family="sans-serif" font-size="14" lengthAdjust="spacing" textLength="119" x="228" y="600.8008">_mean : np.ndarray</text><text fill="#000000" font-family="sans-serif" font-size="14" lengthAdjust="spacing" textLength="104" x="228" y="617.207">_std : np.ndarray</text><line style="stroke:#181818;stroke-width:0.5;" x1="223" x2="437" y1="624.625" y2="624.625"/><text fill="#000000" font-family="sans-serif" font-size="14" lengthAdjust="spacing" textLength="45" x="228" y="641.6133">mean()</text><text fill="#000000" font-family="sans-serif" font-size="14" lengthAdjust="spacing" textLength="30" x="228" y="658.0195">std()</text><text fill="#000000" font-family="sans-serif" font-size="14" lengthAdjust="spacing" textLength="103" x="228" y="674.4258">averaged_data()</text><text fill="#000000" font-family="sans-serif" font-size="14" lengthAdjust="spacing" textLength="98" x="228" y="690.832">has_raw_data()</text></g><g id="elem_GMN29"><path d="M241,773.5 L241,813.9688 A0,0 0 0 0 241,813.9688 L397,813.9688 A0,0 0 0 0 397,813.9688 L397,783.5 L387,773.5 L324.16,773.5 L324.68,698.05 L316.16,773.5 L241,773.5 A0,0 0 0 0 241,773.5 " fill="#FEFFDD" style="stroke:#181818;stroke-width:0.5;"/><path d="M387,773.5 L387,783.5 L397,783.5 L387,773.5 " fill="#FEFFDD" style="stroke:#181818;stroke-width:0.5;"/><text fill="#000000" font-family="sans-serif" font-size="13" lengthAdjust="spacing" textLength="135" x="247" y="790.5605">How does mean() differ</text><text fill="#000000" font-family="sans-serif" font-size="13" lengthAdjust="spacing" textLength="116" x="247" y="805.7949">from values in Data?</text></g><g id="elem_GMN32"><path d="M432.5,773.5 L432.5,813.9688 A0,0 0 0 0 432.5,813.9688 L645.5,813.9688 A0,0 0 0 0 645.5,813.9688 L645.5,783.5 L635.5,773.5 L520.96,773.5 L431.13,698.05 L512.96,773.5 L432.5,773.5 A0,0 0 0 0 432.5,773.5 " fill="#FEFFDD" style="stroke:#181818;stroke-width:0.5;"/><path d="M635.5,773.5 L635.5,783.5 L645.5,783.5 L635.5,773.5 " fill="#FEFFDD" style="stroke:#181818;stroke-width:0.5;"/><text fill="#000000" font-family="sans-serif" font-size="13" lengthAdjust="spacing" textLength="173" x="438.5" y="790.5605">averaged_values() returns only</text><text fill="#000000" font-family="sans-serif" font-size="13" lengthAdjust="spacing" textLength="192" x="438.5" y="805.7949">those values used to average over</text></g><!--class IntervalChannelData--><g id="elem_IntervalChannelData"><rect codeLine="76" fill="#F1F1F1" height="162.8438" id="IntervalChannelData" rx="2.5" ry="2.5" style="stroke:#181818;stroke-width:0.5;" width="202" x="473" y="527"/><ellipse cx="506.9" cy="543" fill="#ADD1B2" rx="11" ry="11" style="stroke:#181818;stroke-width:1.0;"/><path d="M506.9469,549.2031 C508.4469,549.2031 509.6813,548.6406 510.5875,547.5781 L509.2125,546.0625 C508.6656,546.6563 508.0094,547.0469 507.2125,547.0469 C505.5406,547.0469 504.3844,545.7188 504.3844,543.4375 C504.3844,541.2188 505.5406,539.875 507.1031,539.875 C507.9156,539.875 508.5094,540.1875 509.0406,540.6719 L510.4156,539.125 C509.6656,538.3906 508.5094,537.7188 507.1031,537.7188 C504.15,537.7188 501.8219,539.8594 501.8219,543.5313 C501.8219,547.25 504.1969,549.2031 506.9469,549.2031 Z " fill="#000000"/><text fill="#000000" font-family="sans-serif" font-size="14" lengthAdjust="spacing" textLength="128" x="525.1" y="547.7852">IntervalChannelData</text><line style="stroke:#181818;stroke-width:0.5;" x1="474" x2="674" y1="559" y2="559"/><text fill="#000000" font-family="sans-serif" font-size="14" lengthAdjust="spacing" textLength="145" x="479" y="575.9883">raw_data : raggedarray</text><text fill="#000000" font-family="sans-serif" font-size="14" lengthAdjust="spacing" textLength="190" x="479" y="592.3945">counts : np.ndarray(dtype=int)</text><text fill="#000000" font-family="sans-serif" font-size="14" lengthAdjust="spacing" textLength="119" x="479" y="608.8008">_mean : np.ndarray</text><text fill="#000000" font-family="sans-serif" font-size="14" lengthAdjust="spacing" textLength="104" x="479" y="625.207">_std : np.ndarray</text><line style="stroke:#181818;stroke-width:0.5;" x1="474" x2="674" y1="632.625" y2="632.625"/><text fill="#000000" font-family="sans-serif" font-size="14" lengthAdjust="spacing" textLength="45" x="479" y="649.6133">mean()</text><text fill="#000000" font-family="sans-serif" font-size="14" lengthAdjust="spacing" textLength="30" x="479" y="666.0195">std()</text><text fill="#000000" font-family="sans-serif" font-size="14" lengthAdjust="spacing" textLength="98" x="479" y="682.4258">has_raw_data()</text></g><!--class ArrayChannelData--><g id="elem_ArrayChannelData"><rect codeLine="86" fill="#F1F1F1" height="48" id="ArrayChannelData" rx="2.5" ry="2.5" style="stroke:#181818;stroke-width:0.5;" width="147" x="710.5" y="584.5"/><ellipse cx="725.5" cy="600.5" fill="#ADD1B2" rx="11" ry="11" style="stroke:#181818;stroke-width:1.0;"/><path d="M725.5469,606.7031 C727.0469,606.7031 728.2813,606.1406 729.1875,605.0781 L727.8125,603.5625 C727.2656,604.1563 726.6094,604.5469 725.8125,604.5469 C724.1406,604.5469 722.9844,603.2188 722.9844,600.9375 C722.9844,598.7188 724.1406,597.375 725.7031,597.375 C726.5156,597.375 727.1094,597.6875 727.6406,598.1719 L729.0156,596.625 C728.2656,595.8906 727.1094,595.2188 725.7031,595.2188 C722.75,595.2188 720.4219,597.3594 720.4219,601.0313 C720.4219,604.75 722.7969,606.7031 725.5469,606.7031 Z " fill="#000000"/><text fill="#000000" font-family="sans-serif" font-size="14" lengthAdjust="spacing" textLength="115" x="739.5" y="605.2852">ArrayChannelData</text><line style="stroke:#181818;stroke-width:0.5;" x1="711.5" x2="856.5" y1="616.5" y2="616.5"/><line style="stroke:#181818;stroke-width:0.5;" x1="711.5" x2="856.5" y1="624.5" y2="624.5"/></g><!--class AreaChannelData--><g id="elem_AreaChannelData"><rect codeLine="89" fill="#F1F1F1" height="48" id="AreaChannelData" rx="2.5" ry="2.5" style="stroke:#181818;stroke-width:0.5;" width="142" x="893" y="584.5"/><ellipse cx="908" cy="600.5" fill="#ADD1B2" rx="11" ry="11" style="stroke:#181818;stroke-width:1.0;"/><path d="M908.0469,606.7031 C909.5469,606.7031 910.7813,606.1406 911.6875,605.0781 L910.3125,603.5625 C909.7656,604.1563 909.1094,604.5469 908.3125,604.5469 C906.6406,604.5469 905.4844,603.2188 905.4844,600.9375 C905.4844,598.7188 906.6406,597.375 908.2031,597.375 C909.0156,597.375 909.6094,597.6875 910.1406,598.1719 L911.5156,596.625 C910.7656,595.8906 909.6094,595.2188 908.2031,595.2188 C905.25,595.2188 902.9219,597.3594 902.9219,601.0313 C902.9219,604.75 905.2969,606.7031 908.0469,606.7031 Z " fill="#000000"/><text fill="#000000" font-family="sans-serif" font-size="14" lengthAdjust="spacing" textLength="110" x="922" y="605.2852">AreaChannelData</text><line style="stroke:#181818;stroke-width:0.5;" x1="894" x2="1034" y1="616.5" y2="616.5"/><line style="stroke:#181818;stroke-width:0.5;" x1="894" x2="1034" y1="624.5" y2="624.5"/></g><!--reverse link Data to DataImporter--><g id="link_Data_DataImporter"><path codeLine="31" d="M646.03,92 C657.65,92 657.27,92 668.89,92 " fill="none" id="Data-backto-DataImporter" style="stroke:#181818;stroke-width:1.0;"/><polygon fill="#181818" points="634.03,92,640.03,96,646.03,92,640.03,88,634.03,92" style="stroke:#181818;stroke-width:1.0;"/></g><!--reverse link Data to Metadata--><g id="link_Data_Metadata"><path codeLine="32" d="M477.1203,156.9724 C465.7303,166.6124 463.13,168.75 452,178 C423.87,201.38 391.4,227.69 368.68,245.98 " fill="none" id="Data-backto-Metadata" style="stroke:#181818;stroke-width:1.0;"/><polygon fill="#181818" points="486.28,149.22,479.116,150.043,477.1203,156.9724,484.2843,156.1494,486.28,149.22" style="stroke:#181818;stroke-width:1.0;"/></g><!--reverse link Data to MeasureData--><g id="link_Data_MeasureData"><path d="M552,167.17 C552,196.55 552,213.39 552,237.91 " fill="none" id="Data-backto-MeasureData" style="stroke:#181818;stroke-width:1.0;"/><polygon fill="none" points="552,149.17,546,167.17,558,167.17,552,149.17" style="stroke:#181818;stroke-width:1.0;"/></g><!--reverse link Data to MonitorData--><g id="link_Data_MonitorData"><path d="M628.1783,160.5327 C640.3583,170.5927 639.39,169.2 652,178 C683.59,200.06 720.94,221.43 751.71,237.91 " fill="none" id="Data-backto-MonitorData" style="stroke:#181818;stroke-width:1.0;"/><polygon fill="none" points="614.3,149.07,624.3574,165.1588,631.9992,155.9066,614.3,149.07" style="stroke:#181818;stroke-width:1.0;"/></g><!--reverse link MeasureData to AxisData--><g id="link_MeasureData_AxisData"><path d="M514.9794,315.9765 C493.9694,341.4965 476.12,363.18 457.11,386.28 " fill="none" id="MeasureData-backto-AxisData" style="stroke:#181818;stroke-width:1.0;"/><polygon fill="none" points="526.42,302.08,510.3472,312.1629,519.6115,319.79,526.42,302.08" style="stroke:#181818;stroke-width:1.0;"/></g><!--reverse link MeasureData to ChannelData--><g id="link_MeasureData_ChannelData"><path d="M559.7613,319.8575 C563.8113,345.3775 566.64,363.18 570.31,386.28 " fill="none" id="MeasureData-backto-ChannelData" style="stroke:#181818;stroke-width:1.0;"/><polygon fill="none" points="556.94,302.08,553.8354,320.798,565.6871,318.9171,556.94,302.08" style="stroke:#181818;stroke-width:1.0;"/></g><!--reverse link MeasureData to TimestampData--><g id="link_MeasureData_TimestampData"><path d="M621.449,311.0791 C651.989,328.7091 675.26,342.13 709.56,361.93 " fill="none" id="MeasureData-backto-TimestampData" style="stroke:#181818;stroke-width:1.0;"/><polygon fill="none" points="605.86,302.08,618.4493,316.2754,624.4487,305.8828,605.86,302.08" style="stroke:#181818;stroke-width:1.0;"/></g><!--reverse link ChannelData to StandardChannelData--><g id="link_ChannelData_StandardChannelData"><path d="M528.8684,444.7301 C515.9884,453.5501 515.28,452.8 500,459 C375.61,509.45 324.58,460.02 204,519 C171.39,534.95 140.74,563.74 121.49,584.14 " fill="none" id="ChannelData-backto-StandardChannelData" style="stroke:#181818;stroke-width:1.0;"/><polygon fill="none" points="543.72,434.56,525.4784,439.7796,532.2585,449.6806,543.72,434.56" style="stroke:#181818;stroke-width:1.0;"/></g><!--reverse link ChannelData to AverageChannelData--><g id="link_ChannelData_AverageChannelData"><path d="M531.0186,446.0248 C504.4486,467.3748 477.41,489.09 438.25,520.55 " fill="none" id="ChannelData-backto-AverageChannelData" style="stroke:#181818;stroke-width:1.0;"/><polygon fill="none" points="545.05,434.75,527.2604,441.3476,534.7769,450.7019,545.05,434.75" style="stroke:#181818;stroke-width:1.0;"/></g><!--reverse link ChannelData to IntervalChannelData--><g id="link_ChannelData_IntervalChannelData"><path d="M574,452.75 C574,475.47 574,493.37 574,526.58 " fill="none" id="ChannelData-backto-IntervalChannelData" style="stroke:#181818;stroke-width:1.0;"/><polygon fill="none" points="574,434.75,568,452.75,580,452.75,574,434.75" style="stroke:#181818;stroke-width:1.0;"/></g><!--reverse link ChannelData to ArrayChannelData--><g id="link_ChannelData_ArrayChannelData"><path d="M613.7012,446.671 C637.9812,468.261 661.52,489.49 693,519 C716.31,540.85 742.41,566.34 760.66,584.34 " fill="none" id="ChannelData-backto-ArrayChannelData" style="stroke:#181818;stroke-width:1.0;"/><polygon fill="none" points="600.25,434.71,609.7142,451.1547,617.6882,442.1872,600.25,434.71" style="stroke:#181818;stroke-width:1.0;"/></g><!--reverse link ChannelData to AreaChannelData--><g id="link_ChannelData_AreaChannelData"><path d="M620.1091,444.6707 C632.8791,453.2907 633.19,452.48 648,459 C743.52,501.03 784.47,467.1 875,519 C904.11,535.69 930.41,564.32 946.74,584.49 " fill="none" id="ChannelData-backto-AreaChannelData" style="stroke:#181818;stroke-width:1.0;"/><polygon fill="none" points="605.19,434.6,616.7522,449.6438,623.466,439.6977,605.19,434.6" style="stroke:#181818;stroke-width:1.0;"/></g><!--SRC=[jLNTQzim47_tNt7qPUbeophOIw2Cq39MM67GFXR2rJedjzgIaUIq9lH_tqcs4xbrFs0iBv5Ez_cxtvq_kNlMDLgiGDKCfz- -P5bUedDmWHvXcu7yAlAemdKEL_qnofUzKDSdMg6rs7PYhcfZFLbv2buk-sjy32Qpm-mfqyOJb5HuC4LKcy-NEyy7yNW0ZMkmB5l8ZVR8sW72wGN4K81Q0OiapyavKj5kmmX-JNqKM94FQKZ-QwDWzhkLVmsrDJLPtnwAAlfebqiK5otJX46K2xREzq602z0KJcZRaonQ_Z0MM2lUi99K8L-ZrbJ21ik673YINCZoXXH4MCb5gyM6BAxelDEEK8ToBhL45TD4teTPX9AVgoyiuKXc2Pofw64eozMKisI5iROTZ40iLmjVBo9G82KWbEnYAph9tH_AVPVhJ0noT1GUkPAiNGoE9T_JuKb6SWwzJ7cp0x3ZZpEDpIaUEsf40lJw0wD4joV5dV7UL7Eu3k0nhW8v2sDlzOw7bL5DIG9DBFlpyPXclV1uJzPTA7IDfVXEZruo7z5yMp2LwWbguzYp4RQbr9uftzPqnjgdoHlDtjZtF5PS2hmayAiFE5qyiXjvJFFUxlNIrh-ZUiCLEOzL_OPocl0oqdxvFX8Z8mdrKHkPp9tcp0_P7ONEqbdma-1nxJ5uKLFrfhAjM2G42doTC8tXRzQoEK96e8pmMQp4emn0nr4Pa0qThngEHBy-l_fr17UDbsqJtsLMp8fbPK3Hw3nK84SbrjpTeb9X9OEmKCQZ7kSb7PU9JJ1PMtHgyM7OkMAqecJf3ar0sNXLxTz6VraHwed5xRnwAGswiyvEtliJTcchPR_FWsoDRZbak5_nmpJ_D0yTs9q_0QmeI8Ow0jMlIq4-LFlzUHjVWZJVPz3PYaTBlh72EwFBzbRBgfUTrJjkv0C1tWn6OEH_wC34qlst5kIcqV-z0I_07lZq_4CnNKgYF_w6lAR-5m00]--></g></svg>