<?xml version="1.0" encoding="us-ascii" standalone="no"?><svg xmlns="http://www.w3.org/2000/svg" xmlns:xlink="http://www.w3.org/1999/xlink" contentStyleType="text/css" height="710px" preserveAspectRatio="none" style="width:935px;height:710px;background:#FFFFFF;" version="1.1" viewBox="0 0 935 710" width="935px" zoomAndPan="magnify"><defs/><g><!--class Data--><g id="elem_Data"><rect codeLine="3" fill="#F1F1F1" height="80.8125" id="Data" rx="2.5" ry="2.5" style="stroke:#181818;stroke-width:0.5;" width="143" x="478.5" y="36.5"/><ellipse cx="530.75" cy="52.5" fill="#ADD1B2" rx="11" ry="11" style="stroke:#181818;stroke-width:1.0;"/><path d="M530.7969,58.7031 C532.2969,58.7031 533.5313,58.1406 534.4375,57.0781 L533.0625,55.5625 C532.5156,56.1563 531.8594,56.5469 531.0625,56.5469 C529.3906,56.5469 528.2344,55.2188 528.2344,52.9375 C528.2344,50.7188 529.3906,49.375 530.9531,49.375 C531.7656,49.375 532.3594,49.6875 532.8906,50.1719 L534.2656,48.625 C533.5156,47.8906 532.3594,47.2188 530.9531,47.2188 C528,47.2188 525.6719,49.3594 525.6719,53.0313 C525.6719,56.75 528.0469,58.7031 530.7969,58.7031 Z " fill="#000000"/><text fill="#000000" font-family="sans-serif" font-size="14" lengthAdjust="spacing" textLength="30" x="551.25" y="57.2852">Data</text><line style="stroke:#181818;stroke-width:0.5;" x1="479.5" x2="620.5" y1="68.5" y2="68.5"/><text fill="#000000" font-family="sans-serif" font-size="14" lengthAdjust="spacing" textLength="131" x="484.5" y="85.4883">metadata : Metadata</text><text fill="#000000" font-family="sans-serif" font-size="14" lengthAdjust="spacing" textLength="107" x="484.5" y="101.8945">data : np.ndarray</text><line style="stroke:#181818;stroke-width:0.5;" x1="479.5" x2="620.5" y1="109.3125" y2="109.3125"/></g><path d="M134.5,6 L134.5,137.875 A0,0 0 0 0 134.5,137.875 L443.5,137.875 A0,0 0 0 0 443.5,137.875 L443.5,75.9375 L482.5,97.1094 L443.5,67.9375 L443.5,16 L433.5,6 L134.5,6 A0,0 0 0 0 134.5,6 " fill="#FEFFDD" style="stroke:#181818;stroke-width:0.5;"/><path d="M433.5,6 L433.5,16 L443.5,16 L433.5,6 " fill="#FEFFDD" style="stroke:#181818;stroke-width:0.5;"/><text fill="#000000" font-family="sans-serif" font-size="13" lengthAdjust="spacing" textLength="191" x="140.5" y="23.0605">"data" usually contains a 1D array.</text><text fill="#000000" font-family="sans-serif" font-size="13" lengthAdjust="spacing" textLength="3" x="140.5" y="38.2949">&#160;</text><text fill="#000000" font-family="sans-serif" font-size="13" lengthAdjust="spacing" textLength="280" x="140.5" y="53.5293">For individual detector values see derived classes</text><text fill="#000000" font-family="sans-serif" font-size="13" lengthAdjust="spacing" textLength="270" x="140.5" y="68.7637">AverageDetectorData and IntervalDetectorData.</text><text fill="#000000" font-family="sans-serif" font-size="13" lengthAdjust="spacing" textLength="3" x="140.5" y="83.998">&#160;</text><text fill="#000000" font-family="sans-serif" font-size="13" lengthAdjust="spacing" textLength="288" x="140.5" y="99.2324">ArrayDetectorData and ExternalData are somewhat</text><text fill="#000000" font-family="sans-serif" font-size="13" lengthAdjust="spacing" textLength="271" x="140.5" y="114.4668">special as they contain either 2D data or a list of</text><text fill="#000000" font-family="sans-serif" font-size="13" lengthAdjust="spacing" textLength="240" x="140.5" y="129.7012">data objects (in case of images and alike).</text><!--class Metadata--><g id="elem_Metadata"><rect codeLine="18" fill="#F1F1F1" height="48" id="Metadata" rx="2.5" ry="2.5" style="stroke:#181818;stroke-width:0.5;" width="93" x="263.5" y="216"/><ellipse cx="278.5" cy="232" fill="#ADD1B2" rx="11" ry="11" style="stroke:#181818;stroke-width:1.0;"/><path d="M278.5469,238.2031 C280.0469,238.2031 281.2813,237.6406 282.1875,236.5781 L280.8125,235.0625 C280.2656,235.6563 279.6094,236.0469 278.8125,236.0469 C277.1406,236.0469 275.9844,234.7188 275.9844,232.4375 C275.9844,230.2188 277.1406,228.875 278.7031,228.875 C279.5156,228.875 280.1094,229.1875 280.6406,229.6719 L282.0156,228.125 C281.2656,227.3906 280.1094,226.7188 278.7031,226.7188 C275.75,226.7188 273.4219,228.8594 273.4219,232.5313 C273.4219,236.25 275.7969,238.2031 278.5469,238.2031 Z " fill="#000000"/><text fill="#000000" font-family="sans-serif" font-size="14" lengthAdjust="spacing" textLength="61" x="292.5" y="236.7852">Metadata</text><line style="stroke:#181818;stroke-width:0.5;" x1="264.5" x2="355.5" y1="248" y2="248"/><line style="stroke:#181818;stroke-width:0.5;" x1="264.5" x2="355.5" y1="256" y2="256"/></g><g id="elem_GMN6"><path d="M198.5,336 L198.5,376.4688 A0,0 0 0 0 198.5,376.4688 L321.5,376.4688 A0,0 0 0 0 321.5,376.4688 L321.5,346 L311.5,336 L272.44,336 L299.88,264.07 L264.44,336 L198.5,336 A0,0 0 0 0 198.5,336 " fill="#FEFFDD" style="stroke:#181818;stroke-width:0.5;"/><path d="M311.5,336 L311.5,346 L321.5,346 L311.5,336 " fill="#FEFFDD" style="stroke:#181818;stroke-width:0.5;"/><text fill="#000000" font-family="sans-serif" font-size="13" lengthAdjust="spacing" textLength="90" x="204.5" y="353.0605">See diagram for</text><text fill="#000000" font-family="sans-serif" font-size="13" lengthAdjust="spacing" textLength="102" x="204.5" y="368.2949">metadata module.</text></g><!--class MeasureData--><g id="elem_MeasureData"><rect codeLine="22" fill="#F1F1F1" height="64.4063" id="MeasureData" rx="2.5" ry="2.5" style="stroke:#181818;stroke-width:0.5;" width="216" x="442" y="208"/><ellipse cx="503.75" cy="224" fill="#ADD1B2" rx="11" ry="11" style="stroke:#181818;stroke-width:1.0;"/><path d="M503.7969,230.2031 C505.2969,230.2031 506.5313,229.6406 507.4375,228.5781 L506.0625,227.0625 C505.5156,227.6563 504.8594,228.0469 504.0625,228.0469 C502.3906,228.0469 501.2344,226.7188 501.2344,224.4375 C501.2344,222.2188 502.3906,220.875 503.9531,220.875 C504.7656,220.875 505.3594,221.1875 505.8906,221.6719 L507.2656,220.125 C506.5156,219.3906 505.3594,218.7188 503.9531,218.7188 C501,218.7188 498.6719,220.8594 498.6719,224.5313 C498.6719,228.25 501.0469,230.2031 503.7969,230.2031 Z " fill="#000000"/><text fill="#000000" font-family="sans-serif" font-size="14" lengthAdjust="spacing" textLength="84" x="524.25" y="228.7852">MeasureData</text><line style="stroke:#181818;stroke-width:0.5;" x1="443" x2="657" y1="240" y2="240"/><text fill="#000000" font-family="sans-serif" font-size="14" lengthAdjust="spacing" textLength="204" x="448" y="256.9883">positions : np.ndarray(dtype=int)</text><line style="stroke:#181818;stroke-width:0.5;" x1="443" x2="657" y1="264.4063" y2="264.4063"/></g><!--class MonitorData--><g id="elem_MonitorData"><rect codeLine="26" fill="#F1F1F1" height="64.4063" id="MonitorData" rx="2.5" ry="2.5" style="stroke:#181818;stroke-width:0.5;" width="235" x="693.5" y="208"/><ellipse cx="767.25" cy="224" fill="#ADD1B2" rx="11" ry="11" style="stroke:#181818;stroke-width:1.0;"/><path d="M767.2969,230.2031 C768.7969,230.2031 770.0313,229.6406 770.9375,228.5781 L769.5625,227.0625 C769.0156,227.6563 768.3594,228.0469 767.5625,228.0469 C765.8906,228.0469 764.7344,226.7188 764.7344,224.4375 C764.7344,222.2188 765.8906,220.875 767.4531,220.875 C768.2656,220.875 768.8594,221.1875 769.3906,221.6719 L770.7656,220.125 C770.0156,219.3906 768.8594,218.7188 767.4531,218.7188 C764.5,218.7188 762.1719,220.8594 762.1719,224.5313 C762.1719,228.25 764.5469,230.2031 767.2969,230.2031 Z " fill="#000000"/><text fill="#000000" font-family="sans-serif" font-size="14" lengthAdjust="spacing" textLength="79" x="787.75" y="228.7852">MonitorData</text><line style="stroke:#181818;stroke-width:0.5;" x1="694.5" x2="927.5" y1="240" y2="240"/><text fill="#000000" font-family="sans-serif" font-size="14" lengthAdjust="spacing" textLength="223" x="699.5" y="256.9883">milliseconds : np.ndarray(dtype=int)</text><line style="stroke:#181818;stroke-width:0.5;" x1="694.5" x2="927.5" y1="264.4063" y2="264.4063"/></g><!--class MotorData--><g id="elem_MotorData"><rect codeLine="30" fill="#F1F1F1" height="48" id="MotorData" rx="2.5" ry="2.5" style="stroke:#181818;stroke-width:0.5;" width="100" x="357" y="332"/><ellipse cx="372" cy="348" fill="#ADD1B2" rx="11" ry="11" style="stroke:#181818;stroke-width:1.0;"/><path d="M372.0469,354.2031 C373.5469,354.2031 374.7813,353.6406 375.6875,352.5781 L374.3125,351.0625 C373.7656,351.6563 373.1094,352.0469 372.3125,352.0469 C370.6406,352.0469 369.4844,350.7188 369.4844,348.4375 C369.4844,346.2188 370.6406,344.875 372.2031,344.875 C373.0156,344.875 373.6094,345.1875 374.1406,345.6719 L375.5156,344.125 C374.7656,343.3906 373.6094,342.7188 372.2031,342.7188 C369.25,342.7188 366.9219,344.8594 366.9219,348.5313 C366.9219,352.25 369.2969,354.2031 372.0469,354.2031 Z " fill="#000000"/><text fill="#000000" font-family="sans-serif" font-size="14" lengthAdjust="spacing" textLength="68" x="386" y="352.7852">MotorData</text><line style="stroke:#181818;stroke-width:0.5;" x1="358" x2="456" y1="364" y2="364"/><line style="stroke:#181818;stroke-width:0.5;" x1="358" x2="456" y1="372" y2="372"/></g><!--class DetectorData--><g id="elem_DetectorData"><rect codeLine="33" fill="#F1F1F1" height="48" id="DetectorData" rx="2.5" ry="2.5" style="stroke:#181818;stroke-width:0.5;" width="115" x="492.5" y="332"/><ellipse cx="507.5" cy="348" fill="#ADD1B2" rx="11" ry="11" style="stroke:#181818;stroke-width:1.0;"/><path d="M507.5469,354.2031 C509.0469,354.2031 510.2813,353.6406 511.1875,352.5781 L509.8125,351.0625 C509.2656,351.6563 508.6094,352.0469 507.8125,352.0469 C506.1406,352.0469 504.9844,350.7188 504.9844,348.4375 C504.9844,346.2188 506.1406,344.875 507.7031,344.875 C508.5156,344.875 509.1094,345.1875 509.6406,345.6719 L511.0156,344.125 C510.2656,343.3906 509.1094,342.7188 507.7031,342.7188 C504.75,342.7188 502.4219,344.8594 502.4219,348.5313 C502.4219,352.25 504.7969,354.2031 507.5469,354.2031 Z " fill="#000000"/><text fill="#000000" font-family="sans-serif" font-size="14" lengthAdjust="spacing" textLength="83" x="521.5" y="352.7852">DetectorData</text><line style="stroke:#181818;stroke-width:0.5;" x1="493.5" x2="606.5" y1="364" y2="364"/><line style="stroke:#181818;stroke-width:0.5;" x1="493.5" x2="606.5" y1="372" y2="372"/></g><!--class ExternalData--><g id="elem_ExternalData"><rect codeLine="36" fill="#F1F1F1" height="48" id="ExternalData" rx="2.5" ry="2.5" style="stroke:#181818;stroke-width:0.5;" width="113" x="642.5" y="332"/><ellipse cx="657.5" cy="348" fill="#ADD1B2" rx="11" ry="11" style="stroke:#181818;stroke-width:1.0;"/><path d="M657.5469,354.2031 C659.0469,354.2031 660.2813,353.6406 661.1875,352.5781 L659.8125,351.0625 C659.2656,351.6563 658.6094,352.0469 657.8125,352.0469 C656.1406,352.0469 654.9844,350.7188 654.9844,348.4375 C654.9844,346.2188 656.1406,344.875 657.7031,344.875 C658.5156,344.875 659.1094,345.1875 659.6406,345.6719 L661.0156,344.125 C660.2656,343.3906 659.1094,342.7188 657.7031,342.7188 C654.75,342.7188 652.4219,344.8594 652.4219,348.5313 C652.4219,352.25 654.7969,354.2031 657.5469,354.2031 Z " fill="#000000"/><text fill="#000000" font-family="sans-serif" font-size="14" lengthAdjust="spacing" textLength="81" x="671.5" y="352.7852">ExternalData</text><line style="stroke:#181818;stroke-width:0.5;" x1="643.5" x2="754.5" y1="364" y2="364"/><line style="stroke:#181818;stroke-width:0.5;" x1="643.5" x2="754.5" y1="372" y2="372"/></g><!--class TimestampData--><g id="elem_TimestampData"><rect codeLine="38" fill="#F1F1F1" height="48" id="TimestampData" rx="2.5" ry="2.5" style="stroke:#181818;stroke-width:0.5;" width="132" x="791" y="332"/><ellipse cx="806" cy="348" fill="#ADD1B2" rx="11" ry="11" style="stroke:#181818;stroke-width:1.0;"/><path d="M806.0469,354.2031 C807.5469,354.2031 808.7813,353.6406 809.6875,352.5781 L808.3125,351.0625 C807.7656,351.6563 807.1094,352.0469 806.3125,352.0469 C804.6406,352.0469 803.4844,350.7188 803.4844,348.4375 C803.4844,346.2188 804.6406,344.875 806.2031,344.875 C807.0156,344.875 807.6094,345.1875 808.1406,345.6719 L809.5156,344.125 C808.7656,343.3906 807.6094,342.7188 806.2031,342.7188 C803.25,342.7188 800.9219,344.8594 800.9219,348.5313 C800.9219,352.25 803.2969,354.2031 806.0469,354.2031 Z " fill="#000000"/><text fill="#000000" font-family="sans-serif" font-size="14" lengthAdjust="spacing" textLength="100" x="820" y="352.7852">TimestampData</text><line style="stroke:#181818;stroke-width:0.5;" x1="792" x2="922" y1="364" y2="364"/><line style="stroke:#181818;stroke-width:0.5;" x1="792" x2="922" y1="372" y2="372"/></g><!--class AverageDetectorData--><g id="elem_AverageDetectorData"><rect codeLine="41" fill="#F1F1F1" height="162.8438" id="AverageDetectorData" rx="2.5" ry="2.5" style="stroke:#181818;stroke-width:0.5;" width="230" x="79" y="440"/><ellipse cx="122.8" cy="456" fill="#ADD1B2" rx="11" ry="11" style="stroke:#181818;stroke-width:1.0;"/><path d="M122.8469,462.2031 C124.3469,462.2031 125.5813,461.6406 126.4875,460.5781 L125.1125,459.0625 C124.5656,459.6563 123.9094,460.0469 123.1125,460.0469 C121.4406,460.0469 120.2844,458.7188 120.2844,456.4375 C120.2844,454.2188 121.4406,452.875 123.0031,452.875 C123.8156,452.875 124.4094,453.1875 124.9406,453.6719 L126.3156,452.125 C125.5656,451.3906 124.4094,450.7188 123.0031,450.7188 C120.05,450.7188 117.7219,452.8594 117.7219,456.5313 C117.7219,460.25 120.0969,462.2031 122.8469,462.2031 Z " fill="#000000"/><text fill="#000000" font-family="sans-serif" font-size="14" lengthAdjust="spacing" textLength="134" x="143.2" y="460.7852">AverageDetectorData</text><line style="stroke:#181818;stroke-width:0.5;" x1="80" x2="308" y1="472" y2="472"/><text fill="#000000" font-family="sans-serif" font-size="14" lengthAdjust="spacing" textLength="156" x="85" y="488.9883">raw_values : raggedarray</text><text fill="#000000" font-family="sans-serif" font-size="14" lengthAdjust="spacing" textLength="204" x="85" y="505.3945">attempts : np.ndarray(dtype=int)</text><text fill="#000000" font-family="sans-serif" font-size="14" lengthAdjust="spacing" textLength="218" x="85" y="521.8008">n_averages : np.ndarray(dtype=int)</text><line style="stroke:#181818;stroke-width:0.5;" x1="80" x2="308" y1="529.2188" y2="529.2188"/><text fill="#000000" font-family="sans-serif" font-size="14" lengthAdjust="spacing" textLength="45" x="85" y="546.207">mean()</text><text fill="#000000" font-family="sans-serif" font-size="14" lengthAdjust="spacing" textLength="30" x="85" y="562.6133">std()</text><text fill="#000000" font-family="sans-serif" font-size="14" lengthAdjust="spacing" textLength="114" x="85" y="579.0195">averaged_values()</text><text fill="#000000" font-family="sans-serif" font-size="14" lengthAdjust="spacing" textLength="109" x="85" y="595.4258">has_raw_values()</text></g><g id="elem_GMN23"><path d="M6,663 L6,703.4688 A0,0 0 0 0 6,703.4688 L162,703.4688 A0,0 0 0 0 162,703.4688 L162,673 L152,663 L101.3,663 L138.36,603.18 L93.3,663 L6,663 A0,0 0 0 0 6,663 " fill="#FEFFDD" style="stroke:#181818;stroke-width:0.5;"/><path d="M152,663 L152,673 L162,673 L152,663 " fill="#FEFFDD" style="stroke:#181818;stroke-width:0.5;"/><text fill="#000000" font-family="sans-serif" font-size="13" lengthAdjust="spacing" textLength="135" x="12" y="680.0605">How does mean() differ</text><text fill="#000000" font-family="sans-serif" font-size="13" lengthAdjust="spacing" textLength="116" x="12" y="695.2949">from values in Data?</text></g><g id="elem_GMN26"><path d="M197.5,663 L197.5,703.4688 A0,0 0 0 0 197.5,703.4688 L410.5,703.4688 A0,0 0 0 0 410.5,703.4688 L410.5,673 L400.5,663 L294.7,663 L249.64,603.18 L286.7,663 L197.5,663 A0,0 0 0 0 197.5,663 " fill="#FEFFDD" style="stroke:#181818;stroke-width:0.5;"/><path d="M400.5,663 L400.5,673 L410.5,673 L400.5,663 " fill="#FEFFDD" style="stroke:#181818;stroke-width:0.5;"/><text fill="#000000" font-family="sans-serif" font-size="13" lengthAdjust="spacing" textLength="173" x="203.5" y="680.0605">averaged_values() returns only</text><text fill="#000000" font-family="sans-serif" font-size="13" lengthAdjust="spacing" textLength="192" x="203.5" y="695.2949">those values used to average over</text></g><!--class IntervalDetectorData--><g id="elem_IntervalDetectorData"><rect codeLine="53" fill="#F1F1F1" height="130.0313" id="IntervalDetectorData" rx="2.5" ry="2.5" style="stroke:#181818;stroke-width:0.5;" width="202" x="344" y="456.5"/><ellipse cx="377" cy="472.5" fill="#ADD1B2" rx="11" ry="11" style="stroke:#181818;stroke-width:1.0;"/><path d="M377.0469,478.7031 C378.5469,478.7031 379.7813,478.1406 380.6875,477.0781 L379.3125,475.5625 C378.7656,476.1563 378.1094,476.5469 377.3125,476.5469 C375.6406,476.5469 374.4844,475.2188 374.4844,472.9375 C374.4844,470.7188 375.6406,469.375 377.2031,469.375 C378.0156,469.375 378.6094,469.6875 379.1406,470.1719 L380.5156,468.625 C379.7656,467.8906 378.6094,467.2188 377.2031,467.2188 C374.25,467.2188 371.9219,469.3594 371.9219,473.0313 C371.9219,476.75 374.2969,478.7031 377.0469,478.7031 Z " fill="#000000"/><text fill="#000000" font-family="sans-serif" font-size="14" lengthAdjust="spacing" textLength="130" x="395" y="477.2852">IntervalDetectorData</text><line style="stroke:#181818;stroke-width:0.5;" x1="345" x2="545" y1="488.5" y2="488.5"/><text fill="#000000" font-family="sans-serif" font-size="14" lengthAdjust="spacing" textLength="156" x="350" y="505.4883">raw_values : raggedarray</text><text fill="#000000" font-family="sans-serif" font-size="14" lengthAdjust="spacing" textLength="190" x="350" y="521.8945">counts : np.ndarray(dtype=int)</text><line style="stroke:#181818;stroke-width:0.5;" x1="345" x2="545" y1="529.3125" y2="529.3125"/><text fill="#000000" font-family="sans-serif" font-size="14" lengthAdjust="spacing" textLength="45" x="350" y="546.3008">mean()</text><text fill="#000000" font-family="sans-serif" font-size="14" lengthAdjust="spacing" textLength="30" x="350" y="562.707">std()</text><text fill="#000000" font-family="sans-serif" font-size="14" lengthAdjust="spacing" textLength="109" x="350" y="579.1133">has_raw_values()</text></g><!--class ArrayDetectorData--><g id="elem_ArrayDetectorData"><rect codeLine="61" fill="#F1F1F1" height="48" id="ArrayDetectorData" rx="2.5" ry="2.5" style="stroke:#181818;stroke-width:0.5;" width="149" x="581.5" y="497.5"/><ellipse cx="596.5" cy="513.5" fill="#ADD1B2" rx="11" ry="11" style="stroke:#181818;stroke-width:1.0;"/><path d="M596.5469,519.7031 C598.0469,519.7031 599.2813,519.1406 600.1875,518.0781 L598.8125,516.5625 C598.2656,517.1563 597.6094,517.5469 596.8125,517.5469 C595.1406,517.5469 593.9844,516.2188 593.9844,513.9375 C593.9844,511.7188 595.1406,510.375 596.7031,510.375 C597.5156,510.375 598.1094,510.6875 598.6406,511.1719 L600.0156,509.625 C599.2656,508.8906 598.1094,508.2188 596.7031,508.2188 C593.75,508.2188 591.4219,510.3594 591.4219,514.0313 C591.4219,517.75 593.7969,519.7031 596.5469,519.7031 Z " fill="#000000"/><text fill="#000000" font-family="sans-serif" font-size="14" lengthAdjust="spacing" textLength="117" x="610.5" y="518.2852">ArrayDetectorData</text><line style="stroke:#181818;stroke-width:0.5;" x1="582.5" x2="729.5" y1="529.5" y2="529.5"/><line style="stroke:#181818;stroke-width:0.5;" x1="582.5" x2="729.5" y1="537.5" y2="537.5"/></g><!--class AreaDetectorData--><g id="elem_AreaDetectorData"><rect codeLine="64" fill="#F1F1F1" height="48" id="AreaDetectorData" rx="2.5" ry="2.5" style="stroke:#181818;stroke-width:0.5;" width="144" x="766" y="497.5"/><ellipse cx="781" cy="513.5" fill="#ADD1B2" rx="11" ry="11" style="stroke:#181818;stroke-width:1.0;"/><path d="M781.0469,519.7031 C782.5469,519.7031 783.7813,519.1406 784.6875,518.0781 L783.3125,516.5625 C782.7656,517.1563 782.1094,517.5469 781.3125,517.5469 C779.6406,517.5469 778.4844,516.2188 778.4844,513.9375 C778.4844,511.7188 779.6406,510.375 781.2031,510.375 C782.0156,510.375 782.6094,510.6875 783.1406,511.1719 L784.5156,509.625 C783.7656,508.8906 782.6094,508.2188 781.2031,508.2188 C778.25,508.2188 775.9219,510.3594 775.9219,514.0313 C775.9219,517.75 778.2969,519.7031 781.0469,519.7031 Z " fill="#000000"/><text fill="#000000" font-family="sans-serif" font-size="14" lengthAdjust="spacing" textLength="112" x="795" y="518.2852">AreaDetectorData</text><line style="stroke:#181818;stroke-width:0.5;" x1="767" x2="909" y1="529.5" y2="529.5"/><line style="stroke:#181818;stroke-width:0.5;" x1="767" x2="909" y1="537.5" y2="537.5"/></g><!--reverse link Data to MeasureData--><g id="link_Data_MeasureData"><path d="M550,135.8 C550,163.64 550,182.3 550,207.98 " fill="none" id="Data-backto-MeasureData" style="stroke:#181818;stroke-width:1.0;"/><polygon fill="none" points="550,117.8,544,135.8,556,135.8,550,117.8" style="stroke:#181818;stroke-width:1.0;"/></g><!--reverse link Data to MonitorData--><g id="link_Data_MonitorData"><path d="M629.4996,127.0404 C674.6296,154.8804 718.85,182.16 760.58,207.9 " fill="none" id="Data-backto-MonitorData" style="stroke:#181818;stroke-width:1.0;"/><polygon fill="none" points="614.18,117.59,626.3494,132.1469,632.6497,121.9339,614.18,117.59" style="stroke:#181818;stroke-width:1.0;"/></g><!--reverse link MeasureData to MotorData--><g id="link_MeasureData_MotorData"><path d="M496.847,283.3727 C473.197,302.2327 457.62,314.65 436.05,331.84 " fill="none" id="MeasureData-backto-MotorData" style="stroke:#181818;stroke-width:1.0;"/><polygon fill="none" points="510.92,272.15,493.1061,278.6817,500.5879,288.0637,510.92,272.15" style="stroke:#181818;stroke-width:1.0;"/></g><!--reverse link MeasureData to DetectorData--><g id="link_MeasureData_DetectorData"><path d="M550,290.15 C550,309.01 550,314.65 550,331.84 " fill="none" id="MeasureData-backto-DetectorData" style="stroke:#181818;stroke-width:1.0;"/><polygon fill="none" points="550,272.15,544,290.15,556,290.15,550,272.15" style="stroke:#181818;stroke-width:1.0;"/></g><!--reverse link MeasureData to ExternalData--><g id="link_MeasureData_ExternalData"><path d="M605.0056,283.0878 C629.6556,301.9478 646.26,314.65 668.74,331.84 " fill="none" id="MeasureData-backto-ExternalData" style="stroke:#181818;stroke-width:1.0;"/><polygon fill="none" points="590.71,272.15,601.3597,287.853,608.6516,278.3225,590.71,272.15" style="stroke:#181818;stroke-width:1.0;"/></g><!--reverse link MeasureData to TimestampData--><g id="link_MeasureData_TimestampData"><path d="M650.3545,278.265 C701.3145,297.185 748.5,314.71 794.97,331.96 " fill="none" id="MeasureData-backto-TimestampData" style="stroke:#181818;stroke-width:1.0;"/><polygon fill="none" points="633.48,272,648.2662,283.8899,652.4429,272.6402,633.48,272" style="stroke:#181818;stroke-width:1.0;"/></g><!--reverse link DetectorData to AverageDetectorData--><g id="link_DetectorData_AverageDetectorData"><path d="M475.0215,380.6451 C429.0315,395.7751 380.68,413.5 326,440 C320.44,442.69 314.82,445.55 309.19,448.52 " fill="none" id="DetectorData-backto-AverageDetectorData" style="stroke:#181818;stroke-width:1.0;"/><polygon fill="none" points="492.12,375.02,473.1465,374.9456,476.8966,386.3446,492.12,375.02" style="stroke:#181818;stroke-width:1.0;"/></g><!--reverse link DetectorData to IntervalDetectorData--><g id="link_DetectorData_IntervalDetectorData"><path d="M525.451,395.2242 C512.731,415.0242 503.5,429.4 486.25,456.27 " fill="none" id="DetectorData-backto-IntervalDetectorData" style="stroke:#181818;stroke-width:1.0;"/><polygon fill="none" points="535.18,380.08,520.4029,391.9812,530.4991,398.4672,535.18,380.08" style="stroke:#181818;stroke-width:1.0;"/></g><!--reverse link DetectorData to ArrayDetectorData--><g id="link_DetectorData_ArrayDetectorData"><path d="M574.7542,395.1821 C594.9042,426.2521 620.75,466.13 640.94,497.27 " fill="none" id="DetectorData-backto-ArrayDetectorData" style="stroke:#181818;stroke-width:1.0;"/><polygon fill="none" points="564.96,380.08,569.7202,398.4468,579.7883,391.9173,564.96,380.08" style="stroke:#181818;stroke-width:1.0;"/></g><!--reverse link DetectorData to AreaDetectorData--><g id="link_DetectorData_AreaDetectorData"><path d="M624.4884,381.3377 C665.3884,395.7377 703.72,412.03 748,440 C773.7,456.23 799.16,479.9 816.41,497.38 " fill="none" id="DetectorData-backto-AreaDetectorData" style="stroke:#181818;stroke-width:1.0;"/><polygon fill="none" points="607.51,375.36,622.4958,386.9972,626.481,375.6783,607.51,375.36" style="stroke:#181818;stroke-width:1.0;"/></g><!--reverse link Data to Metadata--><g id="link_Data_Metadata"><path codeLine="67" d="M492.4207,125.0394 C479.4007,135.2594 474.59,138.62 461,148 C425.11,172.79 382.39,198.17 351.56,215.81 " fill="none" id="Data-backto-Metadata" style="stroke:#181818;stroke-width:1.0;"/><polygon fill="#181818" points="501.86,117.63,494.6705,118.1882,492.4207,125.0394,499.6101,124.4811,501.86,117.63" style="stroke:#181818;stroke-width:1.0;"/></g><!--SRC=[fLHDRzim3BtxLn2zD1dGO1smYu5XA90Ess6dxLWWO2qwqQeFGwAJ1K7_-sX5Jfp6xOBD5rCq7_Nq7kNh-AHTWm4jg4R3xSVtHL4PZ17co0Yx0kInnAYwPGdVSvZoEUUQcLCO0cwBvy9v9Z1KC_WwzIZBG_rL5rr16riqPWkLTupQHK2udKDgC2jIuHSVG3kbrrf9AIXYgbXoQpGjHOX4aWjwJGeIMOe9ThUcW4kQv_9q0dGAlZcc8DZXXxpJNRVh6U3-jm2S058Y44HlQRD2JfZOKAM55aRW5HtE0QHb6U33V2-Cy4KmEdPA7ENoZxzahmWJ0LGOgPD9Ms4Tqyvez1DDPmL9t4dPkz7hBevaZHyzixSb_EZ4qBZiBAnzU707jwnNhQ7PiGN6Db0w4ya1dJenULThCkeP6XyrQo-s39sTADusz4axdWg1lgDtkfVjZOvM6v61H2PrKTENBOV4TyV24zV-KdjYw6ZjeVIdjXGPRND9tx69EoWnJEuL2RXPv1akPR5SKhutGxcGcMp3hqirB7OBt5DukzmIkia-ZAnob94gKyhP5SR5aUTa-dBUlleDA2_xxNlAxDKroTZLmTl-WifiTwV-F4HsWpuYLtbE0m9n6sG0lJFR1yShBzSaTswZt7dsFGYyl7ipngxvVxjH-TRnFuWx8cC_CsU_d5Su3X245m9IzExcvlYZ_WC0]--></g></svg>