<?xml version="1.0" encoding="us-ascii" standalone="no"?><svg xmlns="http://www.w3.org/2000/svg" xmlns:xlink="http://www.w3.org/1999/xlink" contentStyleType="text/css" height="310px" preserveAspectRatio="none" style="width:420px;height:310px;background:#FFFFFF;" version="1.1" viewBox="0 0 420 310" width="420px" zoomAndPan="magnify"><defs/><g><!--cluster scan--><g id="cluster_scan"><path d="M89.5,6 L125.5,6 A3.75,3.75 0 0 1 128,8.5 L135,28.2969 L410.5,28.2969 A2.5,2.5 0 0 1 413,30.7969 L413,236.5 A2.5,2.5 0 0 1 410.5,239 L89.5,239 A2.5,2.5 0 0 1 87,236.5 L87,8.5 A2.5,2.5 0 0 1 89.5,6 " fill="none" style="stroke:#000000;stroke-width:1.5;"/><line style="stroke:#000000;stroke-width:1.5;" x1="87" x2="135" y1="28.2969" y2="28.2969"/><text fill="#000000" font-family="sans-serif" font-size="14" font-weight="bold" lengthAdjust="spacing" textLength="35" x="91" y="20.9951">scan</text></g><!--cluster entities--><g id="cluster_entities"><path d="M113.5,49 L176.5,49 A3.75,3.75 0 0 1 179,51.5 L186,71.2969 L386.5,71.2969 A2.5,2.5 0 0 1 389,73.7969 L389,212.5 A2.5,2.5 0 0 1 386.5,215 L113.5,215 A2.5,2.5 0 0 1 111,212.5 L111,51.5 A2.5,2.5 0 0 1 113.5,49 " fill="none" style="stroke:#000000;stroke-width:1.5;"/><line style="stroke:#000000;stroke-width:1.5;" x1="111" x2="186" y1="71.2969" y2="71.2969"/><text fill="#000000" font-family="sans-serif" font-size="14" font-weight="bold" lengthAdjust="spacing" textLength="62" x="115" y="63.9951">entities</text></g><!--cluster scan--><g id="cluster_scan"><path d="M137.5,92 L173.5,92 A3.75,3.75 0 0 1 176,94.5 L183,114.2969 L232.5,114.2969 A2.5,2.5 0 0 1 235,116.7969 L235,188.5 A2.5,2.5 0 0 1 232.5,191 L137.5,191 A2.5,2.5 0 0 1 135,188.5 L135,94.5 A2.5,2.5 0 0 1 137.5,92 " fill="none" style="stroke:#000000;stroke-width:1.5;"/><line style="stroke:#000000;stroke-width:1.5;" x1="135" x2="183" y1="114.2969" y2="114.2969"/><text fill="#000000" font-family="sans-serif" font-size="14" font-weight="bold" lengthAdjust="spacing" textLength="35" x="139" y="106.9951">scan</text></g><!--cluster setup--><g id="cluster_setup"><path d="M261.5,92 L307.5,92 A3.75,3.75 0 0 1 310,94.5 L317,114.2969 L362.5,114.2969 A2.5,2.5 0 0 1 365,116.7969 L365,188.5 A2.5,2.5 0 0 1 362.5,191 L261.5,191 A2.5,2.5 0 0 1 259,188.5 L259,94.5 A2.5,2.5 0 0 1 261.5,92 " fill="none" style="stroke:#000000;stroke-width:1.5;"/><line style="stroke:#000000;stroke-width:1.5;" x1="259" x2="317" y1="114.2969" y2="114.2969"/><text fill="#000000" font-family="sans-serif" font-size="14" font-weight="bold" lengthAdjust="spacing" textLength="45" x="263" y="106.9951">setup</text></g><!--class Scan--><g id="elem_Scan"><rect fill="#F1F1F1" height="48" id="Scan" rx="2.5" ry="2.5" style="stroke:#181818;stroke-width:0.5;" width="67" x="151.5" y="127"/><ellipse cx="166.5" cy="143" fill="#ADD1B2" rx="11" ry="11" style="stroke:#181818;stroke-width:1.0;"/><path d="M169.4844,148.6406 Q168.9063,148.9375 168.2656,149.0781 Q167.625,149.2344 166.9219,149.2344 Q164.4063,149.2344 163.0781,147.5938 Q161.7656,145.9375 161.7656,142.8125 Q161.7656,139.6719 163.0781,138.0313 Q164.4063,136.375 166.9219,136.375 Q167.625,136.375 168.2656,136.5313 Q168.9219,136.6719 169.4844,136.9688 L169.4844,139.6875 Q168.8438,139.1094 168.25,138.8438 Q167.6563,138.5781 167.0313,138.5781 Q165.6875,138.5781 165,139.6406 Q164.3125,140.7031 164.3125,142.8125 Q164.3125,144.9063 165,145.9844 Q165.6875,147.0469 167.0313,147.0469 Q167.6563,147.0469 168.25,146.7813 Q168.8438,146.5 169.4844,145.9219 L169.4844,148.6406 Z " fill="#000000"/><text fill="#000000" font-family="sans-serif" font-size="14" lengthAdjust="spacing" textLength="35" x="180.5" y="147.8467">Scan</text><line style="stroke:#181818;stroke-width:0.5;" x1="152.5" x2="217.5" y1="159" y2="159"/><line style="stroke:#181818;stroke-width:0.5;" x1="152.5" x2="217.5" y1="167" y2="167"/></g><!--class Setup--><g id="elem_Setup"><rect fill="#F1F1F1" height="48" id="Setup" rx="2.5" ry="2.5" style="stroke:#181818;stroke-width:0.5;" width="73" x="275.5" y="127"/><ellipse cx="290.5" cy="143" fill="#ADD1B2" rx="11" ry="11" style="stroke:#181818;stroke-width:1.0;"/><path d="M293.4844,148.6406 Q292.9063,148.9375 292.2656,149.0781 Q291.625,149.2344 290.9219,149.2344 Q288.4063,149.2344 287.0781,147.5938 Q285.7656,145.9375 285.7656,142.8125 Q285.7656,139.6719 287.0781,138.0313 Q288.4063,136.375 290.9219,136.375 Q291.625,136.375 292.2656,136.5313 Q292.9219,136.6719 293.4844,136.9688 L293.4844,139.6875 Q292.8438,139.1094 292.25,138.8438 Q291.6563,138.5781 291.0313,138.5781 Q289.6875,138.5781 289,139.6406 Q288.3125,140.7031 288.3125,142.8125 Q288.3125,144.9063 289,145.9844 Q289.6875,147.0469 291.0313,147.0469 Q291.6563,147.0469 292.25,146.7813 Q292.8438,146.5 293.4844,145.9219 L293.4844,148.6406 Z " fill="#000000"/><text fill="#000000" font-family="sans-serif" font-size="14" lengthAdjust="spacing" textLength="41" x="304.5" y="147.8467">Setup</text><line style="stroke:#181818;stroke-width:0.5;" x1="276.5" x2="347.5" y1="159" y2="159"/><line style="stroke:#181818;stroke-width:0.5;" x1="276.5" x2="347.5" y1="167" y2="167"/></g><!--class File--><g id="elem_File"><rect codeLine="3" fill="#F1F1F1" height="80.5938" id="File" rx="2.5" ry="2.5" style="stroke:#181818;stroke-width:0.5;" width="64" x="7" y="110.5"/><ellipse cx="25.15" cy="126.5" fill="#B4A7E5" rx="11" ry="11" style="stroke:#181818;stroke-width:1.0;"/><path d="M21.0719,122.25 L21.0719,120.0938 L28.4625,120.0938 L28.4625,122.25 L25.9938,122.25 L25.9938,130.3438 L28.4625,130.3438 L28.4625,132.5 L21.0719,132.5 L21.0719,130.3438 L23.5406,130.3438 L23.5406,122.25 L21.0719,122.25 Z " fill="#000000"/><text fill="#000000" font-family="sans-serif" font-size="14" font-style="italic" lengthAdjust="spacing" textLength="25" x="39.85" y="131.3467">File</text><line style="stroke:#181818;stroke-width:0.5;" x1="8" x2="70" y1="142.5" y2="142.5"/><text fill="#000000" font-family="sans-serif" font-size="14" lengthAdjust="spacing" textLength="52" x="13" y="159.4951">version</text><line style="stroke:#181818;stroke-width:0.5;" x1="8" x2="70" y1="166.7969" y2="166.7969"/><text fill="#000000" font-family="sans-serif" font-size="14" lengthAdjust="spacing" textLength="41" x="13" y="183.792">load()</text></g><!--class Scan--><g id="elem_Scan"><rect codeLine="8" fill="#F1F1F1" height="48" id="Scan" rx="2.5" ry="2.5" style="stroke:#181818;stroke-width:0.5;" width="67" x="78.5" y="255"/><ellipse cx="93.5" cy="271" fill="#ADD1B2" rx="11" ry="11" style="stroke:#181818;stroke-width:1.0;"/><path d="M96.4844,276.6406 Q95.9063,276.9375 95.2656,277.0781 Q94.625,277.2344 93.9219,277.2344 Q91.4063,277.2344 90.0781,275.5938 Q88.7656,273.9375 88.7656,270.8125 Q88.7656,267.6719 90.0781,266.0313 Q91.4063,264.375 93.9219,264.375 Q94.625,264.375 95.2656,264.5313 Q95.9219,264.6719 96.4844,264.9688 L96.4844,267.6875 Q95.8438,267.1094 95.25,266.8438 Q94.6563,266.5781 94.0313,266.5781 Q92.6875,266.5781 92,267.6406 Q91.3125,268.7031 91.3125,270.8125 Q91.3125,272.9063 92,273.9844 Q92.6875,275.0469 94.0313,275.0469 Q94.6563,275.0469 95.25,274.7813 Q95.8438,274.5 96.4844,273.9219 L96.4844,276.6406 Z " fill="#000000"/><text fill="#000000" font-family="sans-serif" font-size="14" lengthAdjust="spacing" textLength="35" x="107.5" y="275.8467">Scan</text><line style="stroke:#181818;stroke-width:0.5;" x1="79.5" x2="144.5" y1="287" y2="287"/><line style="stroke:#181818;stroke-width:0.5;" x1="79.5" x2="144.5" y1="295" y2="295"/></g><!--class Setup--><g id="elem_Setup"><rect codeLine="11" fill="#F1F1F1" height="48" id="Setup" rx="2.5" ry="2.5" style="stroke:#181818;stroke-width:0.5;" width="73" x="227.5" y="255"/><ellipse cx="242.5" cy="271" fill="#ADD1B2" rx="11" ry="11" style="stroke:#181818;stroke-width:1.0;"/><path d="M245.4844,276.6406 Q244.9063,276.9375 244.2656,277.0781 Q243.625,277.2344 242.9219,277.2344 Q240.4063,277.2344 239.0781,275.5938 Q237.7656,273.9375 237.7656,270.8125 Q237.7656,267.6719 239.0781,266.0313 Q240.4063,264.375 242.9219,264.375 Q243.625,264.375 244.2656,264.5313 Q244.9219,264.6719 245.4844,264.9688 L245.4844,267.6875 Q244.8438,267.1094 244.25,266.8438 Q243.6563,266.5781 243.0313,266.5781 Q241.6875,266.5781 241,267.6406 Q240.3125,268.7031 240.3125,270.8125 Q240.3125,272.9063 241,273.9844 Q241.6875,275.0469 243.0313,275.0469 Q243.6563,275.0469 244.25,274.7813 Q244.8438,274.5 245.4844,273.9219 L245.4844,276.6406 Z " fill="#000000"/><text fill="#000000" font-family="sans-serif" font-size="14" lengthAdjust="spacing" textLength="41" x="256.5" y="275.8467">Setup</text><line style="stroke:#181818;stroke-width:0.5;" x1="228.5" x2="299.5" y1="287" y2="287"/><line style="stroke:#181818;stroke-width:0.5;" x1="228.5" x2="299.5" y1="295" y2="295"/></g><!--reverse link Scan to Scan--><g id="link_Scan_Scan"><path d="M162.5854,190.6842 C149.4954,213.2742 138.7,231.92 125.55,254.61 " fill="none" id="Scan-backto-Scan" style="stroke:#181818;stroke-width:1.0;"/><polygon fill="none" points="171.61,175.11,157.394,187.676,167.7768,193.6924,171.61,175.11" style="stroke:#181818;stroke-width:1.0;"/></g><!--reverse link File to Scan--><g id="link_File_Scan"><path d="M70.9207,207.0965 C82.9607,227.8865 88.29,237.07 98.54,254.76 " fill="none" id="File-backto-Scan" style="stroke:#181818;stroke-width:1.0;stroke-dasharray:7.0,7.0;"/><polygon fill="none" points="61.9,191.52,65.7286,210.1034,76.1129,204.0896,61.9,191.52" style="stroke:#181818;stroke-width:1.0;"/></g><!--reverse link Setup to Setup--><g id="link_Setup_Setup"><path d="M296.7893,191.9297 C288.1793,214.5197 281.55,231.92 272.91,254.61 " fill="none" id="Setup-backto-Setup" style="stroke:#181818;stroke-width:1.0;"/><polygon fill="none" points="303.2,175.11,291.1827,189.7928,302.3959,194.0666,303.2,175.11" style="stroke:#181818;stroke-width:1.0;"/></g><!--reverse link File to Setup--><g id="link_File_Setup"><path d="M82.1964,205.3441 C99.3564,224.6841 110.21,233.2 135,247 C139.11,249.29 190.59,261.3 227.26,269.68 " fill="none" id="File-backto-Setup" style="stroke:#181818;stroke-width:1.0;stroke-dasharray:7.0,7.0;"/><polygon fill="none" points="70.25,191.88,77.7084,209.3263,86.6845,201.362,70.25,191.88" style="stroke:#181818;stroke-width:1.0;"/></g><!--SRC=[TOn13a8X34JtdA8xTI7iFO0Ny0GDL6q2XT1-OsB-tKMCSQDTTV9ctkPgrlGGGiiejfJiOoqXPbJT9yPBn-8SYr4_OoGuSYPuE1XtewvSPVwvOjhktEhSNC8feW3TZIGfw0YUnDYOrCyqEPUMgGoW7-rtJxQqVu8Ny-_6ByKJ]--></g></svg>