<?xml version="1.0" encoding="us-ascii" standalone="no"?><svg xmlns="http://www.w3.org/2000/svg" xmlns:xlink="http://www.w3.org/1999/xlink" contentStyleType="text/css" height="436.2px" preserveAspectRatio="none" style="width:662px;height:436px;background:#FFFFFF;" version="1.1" viewBox="0 0 662 436" width="662.4px" zoomAndPan="magnify"><defs/><g><!--class Metadata--><g id="elem_Metadata"><rect codeLine="2" fill="#F1F1F1" height="48.4875" id="Metadata" rx="1.5" ry="1.5" style="stroke:#181818;stroke-width:0.3;" width="67.2" x="112.2" y="14.1"/><ellipse cx="126.33" cy="23.7" fill="#ADD1B2" rx="6.6" ry="6.6" style="stroke:#181818;stroke-width:0.6;"/><path d="M126.3581,27.4219 C127.2581,27.4219 127.9988,27.0844 128.5425,26.4469 L127.7175,25.5375 C127.3894,25.8938 126.9956,26.1281 126.5175,26.1281 C125.5144,26.1281 124.8206,25.3313 124.8206,23.9625 C124.8206,22.6312 125.5144,21.825 126.4519,21.825 C126.9394,21.825 127.2956,22.0125 127.6144,22.3031 L128.4394,21.375 C127.9894,20.9344 127.2956,20.5313 126.4519,20.5313 C124.68,20.5313 123.2831,21.8156 123.2831,24.0188 C123.2831,26.25 124.7081,27.4219 126.3581,27.4219 Z " fill="#000000"/><text fill="#000000" font-family="sans-serif" font-size="8.4" lengthAdjust="spacing" textLength="36.6" x="135.87" y="26.5711">Metadata</text><line style="stroke:#181818;stroke-width:0.3;" x1="112.8" x2="178.8" y1="33.3" y2="33.3"/><text fill="#000000" font-family="sans-serif" font-size="8.4" lengthAdjust="spacing" textLength="48" x="115.8" y="43.493">name : string</text><text fill="#000000" font-family="sans-serif" font-size="8.4" lengthAdjust="spacing" textLength="60" x="115.8" y="53.3367">section : Section</text><line style="stroke:#181818;stroke-width:0.3;" x1="112.8" x2="178.8" y1="57.7875" y2="57.7875"/></g><!--class Data--><g id="elem_Data"><rect codeLine="7" fill="#F1F1F1" height="28.8" id="Data" rx="1.5" ry="1.5" style="stroke:#181818;stroke-width:0.3;" width="37.2" x="54" y="24"/><ellipse cx="63" cy="33.6" fill="#ADD1B2" rx="6.6" ry="6.6" style="stroke:#181818;stroke-width:0.6;"/><path d="M63.0281,37.3219 C63.9281,37.3219 64.6688,36.9844 65.2125,36.3469 L64.3875,35.4375 C64.0594,35.7937 63.6656,36.0281 63.1875,36.0281 C62.1844,36.0281 61.4906,35.2312 61.4906,33.8625 C61.4906,32.5313 62.1844,31.725 63.1219,31.725 C63.6094,31.725 63.9656,31.9125 64.2844,32.2031 L65.1094,31.275 C64.6594,30.8344 63.9656,30.4313 63.1219,30.4313 C61.35,30.4313 59.9531,31.7156 59.9531,33.9187 C59.9531,36.15 61.3781,37.3219 63.0281,37.3219 Z " fill="#000000"/><text fill="#000000" font-family="sans-serif" font-size="8.4" lengthAdjust="spacing" textLength="18" x="71.4" y="36.4711">Data</text><line style="stroke:#181818;stroke-width:0.3;" x1="54.6" x2="90.6" y1="43.2" y2="43.2"/><line style="stroke:#181818;stroke-width:0.3;" x1="54.6" x2="90.6" y1="48" y2="48"/></g><g id="elem_GMN4"><path d="M39.3,125.7 L39.3,149.9813 A0,0 0 0 0 39.3,149.9813 L105.9,149.9813 A0,0 0 0 0 105.9,149.9813 L105.9,131.7 L99.9,125.7 L75,125.7 L72.6,52.848 L70.2,125.7 L39.3,125.7 A0,0 0 0 0 39.3,125.7 " fill="#FEFFDD" style="stroke:#181818;stroke-width:0.3;"/><path d="M99.9,125.7 L99.9,131.7 L105.9,131.7 L99.9,125.7 " fill="#FEFFDD" style="stroke:#181818;stroke-width:0.3;"/><text fill="#000000" font-family="sans-serif" font-size="7.8" lengthAdjust="spacing" textLength="54" x="42.9" y="135.9363">See diagram for</text><text fill="#000000" font-family="sans-serif" font-size="7.8" lengthAdjust="spacing" textLength="43.8" x="42.9" y="145.077">data module.</text></g><!--class Section--><g id="elem_Section"><rect codeLine="11" fill="#F1F1F1" height="68.175" id="Section" rx="1.5" ry="1.5" style="stroke:#181818;stroke-width:0.3;" width="50.4" x="295.8" y="4.2"/><ellipse cx="306.42" cy="13.8" fill="#EB937F" rx="6.6" ry="6.6" style="stroke:#181818;stroke-width:0.6;"/><path d="M304.0575,17.4 L308.5669,17.4 L308.5669,16.1344 L305.5669,16.1344 L305.5669,14.6063 L308.0231,14.6063 L308.0231,13.35 L305.5669,13.35 L305.5669,12.0187 L308.4638,12.0187 L308.4638,10.7531 L304.0575,10.7531 L304.0575,17.4 Z " fill="#000000"/><text fill="#000000" font-family="sans-serif" font-size="8.4" lengthAdjust="spacing" textLength="27.6" x="315.18" y="16.6711">Section</text><line style="stroke:#181818;stroke-width:0.3;" x1="296.4" x2="345.6" y1="23.4" y2="23.4"/><text fill="#000000" font-family="sans-serif" font-size="8.4" lengthAdjust="spacing" textLength="42.6" x="299.4" y="33.593">STANDARD</text><text fill="#000000" font-family="sans-serif" font-size="8.4" lengthAdjust="spacing" textLength="43.2" x="299.4" y="43.4367">SNAPSHOT</text><text fill="#000000" font-family="sans-serif" font-size="8.4" lengthAdjust="spacing" textLength="37.8" x="299.4" y="53.2805">MONITOR</text><text fill="#000000" font-family="sans-serif" font-size="8.4" lengthAdjust="spacing" textLength="22.2" x="299.4" y="63.1242">META</text><line style="stroke:#181818;stroke-width:0.3;" x1="296.4" x2="345.6" y1="67.575" y2="67.575"/></g><!--class Transport--><g id="elem_Transport"><rect codeLine="18" fill="#F1F1F1" height="48.4875" id="Transport" rx="1.5" ry="1.5" style="stroke:#181818;stroke-width:0.3;" width="56.4" x="444" y="14.1"/><ellipse cx="453" cy="23.7" fill="#EB937F" rx="6.6" ry="6.6" style="stroke:#181818;stroke-width:0.6;"/><path d="M450.6375,27.3 L455.1469,27.3 L455.1469,26.0344 L452.1469,26.0344 L452.1469,24.5062 L454.6031,24.5062 L454.6031,23.25 L452.1469,23.25 L452.1469,21.9188 L455.0438,21.9188 L455.0438,20.6531 L450.6375,20.6531 L450.6375,27.3 Z " fill="#000000"/><text fill="#000000" font-family="sans-serif" font-size="8.4" lengthAdjust="spacing" textLength="37.2" x="461.4" y="26.5711">Transport</text><line style="stroke:#181818;stroke-width:0.3;" x1="444.6" x2="499.8" y1="33.3" y2="33.3"/><text fill="#000000" font-family="sans-serif" font-size="8.4" lengthAdjust="spacing" textLength="10.8" x="447.6" y="43.493">CA</text><text fill="#000000" font-family="sans-serif" font-size="8.4" lengthAdjust="spacing" textLength="26.4" x="447.6" y="53.3367">LOCAL</text><line style="stroke:#181818;stroke-width:0.3;" x1="444.6" x2="499.8" y1="57.7875" y2="57.7875"/></g><g id="elem_GMN9"><path d="M423.3,116.4 L423.3,158.9625 A0,0 0 0 0 423.3,158.9625 L521.1,158.9625 A0,0 0 0 0 521.1,158.9625 L521.1,122.4 L515.1,116.4 L474.6,116.4 L472.2,62.748 L469.8,116.4 L423.3,116.4 A0,0 0 0 0 423.3,116.4 " fill="#FEFFDD" style="stroke:#181818;stroke-width:0.3;"/><path d="M515.1,116.4 L515.1,122.4 L521.1,122.4 L515.1,116.4 " fill="#FEFFDD" style="stroke:#181818;stroke-width:0.3;"/><text fill="#000000" font-family="sans-serif" font-size="7.8" lengthAdjust="spacing" textLength="70.8" x="426.9" y="126.6363">This is defined in the</text><text fill="#000000" font-family="sans-serif" font-size="7.8" lengthAdjust="spacing" textLength="64.8" x="426.9" y="135.777">scml.setup module</text><text fill="#000000" font-family="sans-serif" font-size="7.8" lengthAdjust="spacing" textLength="67.8" x="426.9" y="144.9176">as well. Generalise?</text><text fill="#000000" font-family="sans-serif" font-size="7.8" lengthAdjust="spacing" textLength="85.2" x="426.9" y="154.0582">Use instance from there?</text></g><!--class DeviceMetadata--><g id="elem_DeviceMetadata"><rect codeLine="24" fill="#F1F1F1" height="58.3313" id="DeviceMetadata" rx="1.5" ry="1.5" style="stroke:#181818;stroke-width:0.3;" width="105" x="188.1" y="108.6"/><ellipse cx="209.79" cy="118.2" fill="#B4A7E5" rx="6.6" ry="6.6" style="stroke:#181818;stroke-width:0.6;"/><path d="M207.5494,121.8 L212.1525,121.8 L212.1525,120.5344 L210.6056,120.5344 L210.6056,116.4187 L212.1525,116.4187 L212.1525,115.1531 L207.5494,115.1531 L207.5494,116.4187 L209.0962,116.4187 L209.0962,120.5344 L207.5494,120.5344 L207.5494,121.8 Z " fill="#000000"/><text fill="#000000" font-family="sans-serif" font-size="8.4" font-style="italic" lengthAdjust="spacing" textLength="57.6" x="221.01" y="121.0711">DeviceMetadata</text><line style="stroke:#181818;stroke-width:0.3;" x1="188.7" x2="292.5" y1="127.8" y2="127.8"/><text fill="#000000" font-family="sans-serif" font-size="8.4" lengthAdjust="spacing" textLength="33.6" x="191.7" y="137.993">id : string</text><text fill="#000000" font-family="sans-serif" font-size="8.4" lengthAdjust="spacing" textLength="36" x="191.7" y="147.8367">pv : string</text><text fill="#000000" font-family="sans-serif" font-size="8.4" lengthAdjust="spacing" textLength="97.8" x="191.7" y="157.6805">transport_type : Transport</text><line style="stroke:#181818;stroke-width:0.3;" x1="188.7" x2="292.5" y1="162.1313" y2="162.1313"/></g><!--class MeasureMetadata--><g id="elem_MeasureMetadata"><rect codeLine="30" fill="#F1F1F1" height="38.6438" id="MeasureMetadata" rx="1.5" ry="1.5" style="stroke:#181818;stroke-width:0.3;" width="88.2" x="314.1" y="118.5"/><ellipse cx="323.1" cy="128.1" fill="#ADD1B2" rx="6.6" ry="6.6" style="stroke:#181818;stroke-width:0.6;"/><path d="M323.1281,131.8219 C324.0281,131.8219 324.7688,131.4844 325.3125,130.8469 L324.4875,129.9375 C324.1594,130.2938 323.7656,130.5281 323.2875,130.5281 C322.2844,130.5281 321.5906,129.7313 321.5906,128.3625 C321.5906,127.0313 322.2844,126.225 323.2219,126.225 C323.7094,126.225 324.0656,126.4125 324.3844,126.7031 L325.2094,125.775 C324.7594,125.3344 324.0656,124.9312 323.2219,124.9312 C321.45,124.9312 320.0531,126.2156 320.0531,128.4188 C320.0531,130.65 321.4781,131.8219 323.1281,131.8219 Z " fill="#000000"/><text fill="#000000" font-family="sans-serif" font-size="8.4" lengthAdjust="spacing" textLength="69" x="331.5" y="130.9711">MeasureMetadata</text><line style="stroke:#181818;stroke-width:0.3;" x1="314.7" x2="401.7" y1="137.7" y2="137.7"/><text fill="#000000" font-family="sans-serif" font-size="8.4" lengthAdjust="spacing" textLength="41.4" x="317.7" y="147.893">unit : string</text><line style="stroke:#181818;stroke-width:0.3;" x1="314.7" x2="401.7" y1="152.3438" y2="152.3438"/></g><!--class MonitorMetadata--><g id="elem_MonitorMetadata"><rect codeLine="34" fill="#F1F1F1" height="38.6438" id="MonitorMetadata" rx="1.5" ry="1.5" style="stroke:#181818;stroke-width:0.3;" width="107.4" x="72.9" y="202.8"/><ellipse cx="91.89" cy="212.4" fill="#ADD1B2" rx="6.6" ry="6.6" style="stroke:#181818;stroke-width:0.6;"/><path d="M91.9181,216.1219 C92.8181,216.1219 93.5588,215.7844 94.1025,215.1469 L93.2775,214.2375 C92.9494,214.5938 92.5556,214.8281 92.0775,214.8281 C91.0744,214.8281 90.3806,214.0313 90.3806,212.6625 C90.3806,211.3312 91.0744,210.525 92.0119,210.525 C92.4994,210.525 92.8556,210.7125 93.1744,211.0031 L93.9994,210.075 C93.5494,209.6344 92.8556,209.2313 92.0119,209.2313 C90.24,209.2313 88.8431,210.5156 88.8431,212.7188 C88.8431,214.95 90.2681,216.1219 91.9181,216.1219 Z " fill="#000000"/><text fill="#000000" font-family="sans-serif" font-size="8.4" lengthAdjust="spacing" textLength="66" x="102.51" y="215.2711">MonitorMetadata</text><line style="stroke:#181818;stroke-width:0.3;" x1="73.5" x2="179.7" y1="222" y2="222"/><text fill="#000000" font-family="sans-serif" font-size="8.4" lengthAdjust="spacing" textLength="100.2" x="76.5" y="232.193">section : Section.MONITOR</text><line style="stroke:#181818;stroke-width:0.3;" x1="73.5" x2="179.7" y1="236.6437" y2="236.6437"/></g><!--class MotorMetadata--><g id="elem_MotorMetadata"><rect codeLine="38" fill="#F1F1F1" height="28.8" id="MotorMetadata" rx="1.5" ry="1.5" style="stroke:#181818;stroke-width:0.3;" width="78.6" x="201.3" y="207.6"/><ellipse cx="210.3" cy="217.2" fill="#ADD1B2" rx="6.6" ry="6.6" style="stroke:#181818;stroke-width:0.6;"/><path d="M210.3281,220.9219 C211.2281,220.9219 211.9688,220.5844 212.5125,219.9469 L211.6875,219.0375 C211.3594,219.3937 210.9656,219.6281 210.4875,219.6281 C209.4844,219.6281 208.7906,218.8312 208.7906,217.4625 C208.7906,216.1313 209.4844,215.325 210.4219,215.325 C210.9094,215.325 211.2656,215.5125 211.5844,215.8031 L212.4094,214.875 C211.9594,214.4344 211.2656,214.0313 210.4219,214.0313 C208.65,214.0313 207.2531,215.3156 207.2531,217.5187 C207.2531,219.75 208.6781,220.9219 210.3281,220.9219 Z " fill="#000000"/><text fill="#000000" font-family="sans-serif" font-size="8.4" lengthAdjust="spacing" textLength="59.4" x="218.7" y="220.0711">MotorMetadata</text><line style="stroke:#181818;stroke-width:0.3;" x1="201.9" x2="279.3" y1="226.8" y2="226.8"/><line style="stroke:#181818;stroke-width:0.3;" x1="201.9" x2="279.3" y1="231.6" y2="231.6"/></g><!--class DetectorMetadata--><g id="elem_DetectorMetadata"><rect codeLine="41" fill="#F1F1F1" height="38.6438" id="DetectorMetadata" rx="1.5" ry="1.5" style="stroke:#181818;stroke-width:0.3;" width="87.6" x="301.2" y="202.8"/><ellipse cx="310.2" cy="212.4" fill="#ADD1B2" rx="6.6" ry="6.6" style="stroke:#181818;stroke-width:0.6;"/><path d="M310.2281,216.1219 C311.1281,216.1219 311.8688,215.7844 312.4125,215.1469 L311.5875,214.2375 C311.2594,214.5938 310.8656,214.8281 310.3875,214.8281 C309.3844,214.8281 308.6906,214.0313 308.6906,212.6625 C308.6906,211.3312 309.3844,210.525 310.3219,210.525 C310.8094,210.525 311.1656,210.7125 311.4844,211.0031 L312.3094,210.075 C311.8594,209.6344 311.1656,209.2313 310.3219,209.2313 C308.55,209.2313 307.1531,210.5156 307.1531,212.7188 C307.1531,214.95 308.5781,216.1219 310.2281,216.1219 Z " fill="#000000"/><text fill="#000000" font-family="sans-serif" font-size="8.4" lengthAdjust="spacing" textLength="68.4" x="318.6" y="215.2711">DetectorMetadata</text><line style="stroke:#181818;stroke-width:0.3;" x1="301.8" x2="388.2" y1="222" y2="222"/><text fill="#000000" font-family="sans-serif" font-size="8.4" lengthAdjust="spacing" textLength="73.8" x="304.8" y="232.193">normalise_id : string</text><line style="stroke:#181818;stroke-width:0.3;" x1="301.8" x2="388.2" y1="236.6437" y2="236.6437"/></g><!--class TimestampMetadata--><g id="elem_TimestampMetadata"><rect codeLine="45" fill="#F1F1F1" height="38.6438" id="TimestampMetadata" rx="1.5" ry="1.5" style="stroke:#181818;stroke-width:0.3;" width="97.8" x="517.5" y="202.8"/><ellipse cx="526.5" cy="212.4" fill="#ADD1B2" rx="6.6" ry="6.6" style="stroke:#181818;stroke-width:0.6;"/><path d="M526.5281,216.1219 C527.4281,216.1219 528.1687,215.7844 528.7125,215.1469 L527.8875,214.2375 C527.5594,214.5938 527.1656,214.8281 526.6875,214.8281 C525.6844,214.8281 524.9906,214.0313 524.9906,212.6625 C524.9906,211.3312 525.6844,210.525 526.6219,210.525 C527.1094,210.525 527.4656,210.7125 527.7844,211.0031 L528.6094,210.075 C528.1594,209.6344 527.4656,209.2313 526.6219,209.2313 C524.85,209.2313 523.4531,210.5156 523.4531,212.7188 C523.4531,214.95 524.8781,216.1219 526.5281,216.1219 Z " fill="#000000"/><text fill="#000000" font-family="sans-serif" font-size="8.4" lengthAdjust="spacing" textLength="78.6" x="534.9" y="215.2711">TimestampMetadata</text><line style="stroke:#181818;stroke-width:0.3;" x1="518.1" x2="614.7" y1="222" y2="222"/><text fill="#000000" font-family="sans-serif" font-size="8.4" lengthAdjust="spacing" textLength="84.6" x="521.1" y="232.193">section : Section.META</text><line style="stroke:#181818;stroke-width:0.3;" x1="518.1" x2="614.7" y1="236.6437" y2="236.6437"/></g><!--class ExternalMetadata--><g id="elem_ExternalMetadata"><rect codeLine="49" fill="#F1F1F1" height="38.6438" id="ExternalMetadata" rx="1.5" ry="1.5" style="stroke:#181818;stroke-width:0.3;" width="86.4" x="409.8" y="202.8"/><ellipse cx="418.8" cy="212.4" fill="#ADD1B2" rx="6.6" ry="6.6" style="stroke:#181818;stroke-width:0.6;"/><path d="M418.8281,216.1219 C419.7281,216.1219 420.4688,215.7844 421.0125,215.1469 L420.1875,214.2375 C419.8594,214.5938 419.4656,214.8281 418.9875,214.8281 C417.9844,214.8281 417.2906,214.0313 417.2906,212.6625 C417.2906,211.3312 417.9844,210.525 418.9219,210.525 C419.4094,210.525 419.7656,210.7125 420.0844,211.0031 L420.9094,210.075 C420.4594,209.6344 419.7656,209.2313 418.9219,209.2313 C417.15,209.2313 415.7531,210.5156 415.7531,212.7188 C415.7531,214.95 417.1781,216.1219 418.8281,216.1219 Z " fill="#000000"/><text fill="#000000" font-family="sans-serif" font-size="8.4" lengthAdjust="spacing" textLength="67.2" x="427.2" y="215.2711">ExternalMetadata</text><line style="stroke:#181818;stroke-width:0.3;" x1="410.4" x2="495.6" y1="222" y2="222"/><text fill="#000000" font-family="sans-serif" font-size="8.4" lengthAdjust="spacing" textLength="52.8" x="413.4" y="232.193">format : string</text><line style="stroke:#181818;stroke-width:0.3;" x1="410.4" x2="495.6" y1="236.6437" y2="236.6437"/></g><!--class StandardDetectorMetadata--><g id="elem_StandardDetectorMetadata"><rect codeLine="53" fill="#F1F1F1" height="28.8" id="StandardDetectorMetadata" rx="1.5" ry="1.5" style="stroke:#181818;stroke-width:0.3;" width="122.4" x="4.2" y="291.9"/><ellipse cx="13.2" cy="301.5" fill="#ADD1B2" rx="6.6" ry="6.6" style="stroke:#181818;stroke-width:0.6;"/><path d="M13.2281,305.2219 C14.1281,305.2219 14.8687,304.8844 15.4125,304.2469 L14.5875,303.3375 C14.2594,303.6937 13.8656,303.9281 13.3875,303.9281 C12.3844,303.9281 11.6906,303.1312 11.6906,301.7625 C11.6906,300.4313 12.3844,299.625 13.3219,299.625 C13.8094,299.625 14.1656,299.8125 14.4844,300.1031 L15.3094,299.175 C14.8594,298.7344 14.1656,298.3313 13.3219,298.3313 C11.55,298.3313 10.1531,299.6156 10.1531,301.8187 C10.1531,304.05 11.5781,305.2219 13.2281,305.2219 Z " fill="#000000"/><text fill="#000000" font-family="sans-serif" font-size="8.4" lengthAdjust="spacing" textLength="103.2" x="21.6" y="304.3711">StandardDetectorMetadata</text><line style="stroke:#181818;stroke-width:0.3;" x1="4.8" x2="126" y1="311.1" y2="311.1"/><line style="stroke:#181818;stroke-width:0.3;" x1="4.8" x2="126" y1="315.9" y2="315.9"/></g><!--class AverageDetectorMetadata--><g id="elem_AverageDetectorMetadata"><rect codeLine="55" fill="#F1F1F1" height="58.3313" id="AverageDetectorMetadata" rx="1.5" ry="1.5" style="stroke:#181818;stroke-width:0.3;" width="118.2" x="147.9" y="277.2"/><ellipse cx="156.9" cy="286.8" fill="#ADD1B2" rx="6.6" ry="6.6" style="stroke:#181818;stroke-width:0.6;"/><path d="M156.9281,290.5219 C157.8281,290.5219 158.5688,290.1844 159.1125,289.5469 L158.2875,288.6375 C157.9594,288.9938 157.5656,289.2281 157.0875,289.2281 C156.0844,289.2281 155.3906,288.4313 155.3906,287.0625 C155.3906,285.7313 156.0844,284.925 157.0219,284.925 C157.5094,284.925 157.8656,285.1125 158.1844,285.4031 L159.0094,284.475 C158.5594,284.0344 157.8656,283.6312 157.0219,283.6312 C155.25,283.6312 153.8531,284.9156 153.8531,287.1188 C153.8531,289.35 155.2781,290.5219 156.9281,290.5219 Z " fill="#000000"/><text fill="#000000" font-family="sans-serif" font-size="8.4" lengthAdjust="spacing" textLength="99" x="165.3" y="289.6711">AverageDetectorMetadata</text><line style="stroke:#181818;stroke-width:0.3;" x1="148.5" x2="265.5" y1="296.4" y2="296.4"/><text fill="#000000" font-family="sans-serif" font-size="8.4" lengthAdjust="spacing" textLength="55.2" x="151.5" y="306.593">low_limit : float</text><text fill="#000000" font-family="sans-serif" font-size="8.4" lengthAdjust="spacing" textLength="85.2" x="151.5" y="316.4367">max_attempts : integer</text><text fill="#000000" font-family="sans-serif" font-size="8.4" lengthAdjust="spacing" textLength="76.8" x="151.5" y="326.2805">max_deviation : float</text><line style="stroke:#181818;stroke-width:0.3;" x1="148.5" x2="265.5" y1="330.7313" y2="330.7313"/></g><g id="elem_GMN33"><path d="M115.5,371.4 L115.5,432.2438 A0,0 0 0 0 115.5,432.2438 L298.5,432.2438 A0,0 0 0 0 298.5,432.2438 L298.5,377.4 L292.5,371.4 L209.4,371.4 L207,335.418 L204.6,371.4 L115.5,371.4 A0,0 0 0 0 115.5,371.4 " fill="#FEFFDD" style="stroke:#181818;stroke-width:0.3;"/><path d="M292.5,371.4 L292.5,377.4 L298.5,377.4 L292.5,371.4 " fill="#FEFFDD" style="stroke:#181818;stroke-width:0.3;"/><text fill="#000000" font-family="sans-serif" font-size="7.8" lengthAdjust="spacing" textLength="168" x="119.1" y="381.6363">These attributes may change for individual values</text><text fill="#000000" font-family="sans-serif" font-size="7.8" lengthAdjust="spacing" textLength="170.4" x="119.1" y="390.777">and are currently saved in eveH5 for each position.</text><text fill="#000000" font-family="sans-serif" font-size="7.8" lengthAdjust="spacing" textLength="1.8" x="119.1" y="399.9176">&#160;</text><text fill="#000000" font-family="sans-serif" font-size="7.8" lengthAdjust="spacing" textLength="140.4" x="119.1" y="409.0582">If we go for separate detectors if they are</text><text fill="#000000" font-family="sans-serif" font-size="7.8" lengthAdjust="spacing" textLength="123" x="119.1" y="418.1988">redefined in different scan modules,</text><text fill="#000000" font-family="sans-serif" font-size="7.8" lengthAdjust="spacing" textLength="100.2" x="119.1" y="427.3395">would this solve the problem?</text></g><!--class IntervalDetectorMetadata--><g id="elem_IntervalDetectorMetadata"><rect codeLine="69" fill="#F1F1F1" height="38.6438" id="IntervalDetectorMetadata" rx="1.5" ry="1.5" style="stroke:#181818;stroke-width:0.3;" width="115.8" x="287.1" y="287.1"/><ellipse cx="296.1" cy="296.7" fill="#ADD1B2" rx="6.6" ry="6.6" style="stroke:#181818;stroke-width:0.6;"/><path d="M296.1281,300.4219 C297.0281,300.4219 297.7688,300.0844 298.3125,299.4469 L297.4875,298.5375 C297.1594,298.8938 296.7656,299.1281 296.2875,299.1281 C295.2844,299.1281 294.5906,298.3313 294.5906,296.9625 C294.5906,295.6312 295.2844,294.825 296.2219,294.825 C296.7094,294.825 297.0656,295.0125 297.3844,295.3031 L298.2094,294.375 C297.7594,293.9344 297.0656,293.5313 296.2219,293.5313 C294.45,293.5313 293.0531,294.8156 293.0531,297.0188 C293.0531,299.25 294.4781,300.4219 296.1281,300.4219 Z " fill="#000000"/><text fill="#000000" font-family="sans-serif" font-size="8.4" lengthAdjust="spacing" textLength="96.6" x="304.5" y="299.5711">IntervalDetectorMetadata</text><line style="stroke:#181818;stroke-width:0.3;" x1="287.7" x2="402.3" y1="306.3" y2="306.3"/><text fill="#000000" font-family="sans-serif" font-size="8.4" lengthAdjust="spacing" textLength="78.6" x="290.7" y="316.493">trigger_interval : float</text><line style="stroke:#181818;stroke-width:0.3;" x1="287.7" x2="402.3" y1="320.9437" y2="320.9437"/></g><!--class ArrayDetectorMetadata--><g id="elem_ArrayDetectorMetadata"><rect codeLine="73" fill="#F1F1F1" height="28.8" id="ArrayDetectorMetadata" rx="1.5" ry="1.5" style="stroke:#181818;stroke-width:0.3;" width="108" x="424.2" y="291.9"/><ellipse cx="433.2" cy="301.5" fill="#ADD1B2" rx="6.6" ry="6.6" style="stroke:#181818;stroke-width:0.6;"/><path d="M433.2281,305.2219 C434.1281,305.2219 434.8688,304.8844 435.4125,304.2469 L434.5875,303.3375 C434.2594,303.6937 433.8656,303.9281 433.3875,303.9281 C432.3844,303.9281 431.6906,303.1312 431.6906,301.7625 C431.6906,300.4313 432.3844,299.625 433.3219,299.625 C433.8094,299.625 434.1656,299.8125 434.4844,300.1031 L435.3094,299.175 C434.8594,298.7344 434.1656,298.3313 433.3219,298.3313 C431.55,298.3313 430.1531,299.6156 430.1531,301.8187 C430.1531,304.05 431.5781,305.2219 433.2281,305.2219 Z " fill="#000000"/><text fill="#000000" font-family="sans-serif" font-size="8.4" lengthAdjust="spacing" textLength="88.8" x="441.6" y="304.3711">ArrayDetectorMetadata</text><line style="stroke:#181818;stroke-width:0.3;" x1="424.8" x2="531.6" y1="311.1" y2="311.1"/><line style="stroke:#181818;stroke-width:0.3;" x1="424.8" x2="531.6" y1="315.9" y2="315.9"/></g><!--class AreaDetectorMetadata--><g id="elem_AreaDetectorMetadata"><rect codeLine="76" fill="#F1F1F1" height="28.8" id="AreaDetectorMetadata" rx="1.5" ry="1.5" style="stroke:#181818;stroke-width:0.3;" width="105" x="553.5" y="291.9"/><ellipse cx="562.5" cy="301.5" fill="#ADD1B2" rx="6.6" ry="6.6" style="stroke:#181818;stroke-width:0.6;"/><path d="M562.5281,305.2219 C563.4281,305.2219 564.1687,304.8844 564.7125,304.2469 L563.8875,303.3375 C563.5594,303.6937 563.1656,303.9281 562.6875,303.9281 C561.6844,303.9281 560.9906,303.1312 560.9906,301.7625 C560.9906,300.4313 561.6844,299.625 562.6219,299.625 C563.1094,299.625 563.4656,299.8125 563.7844,300.1031 L564.6094,299.175 C564.1594,298.7344 563.4656,298.3313 562.6219,298.3313 C560.85,298.3313 559.4531,299.6156 559.4531,301.8187 C559.4531,304.05 560.8781,305.2219 562.5281,305.2219 Z " fill="#000000"/><text fill="#000000" font-family="sans-serif" font-size="8.4" lengthAdjust="spacing" textLength="85.8" x="570.9" y="304.3711">AreaDetectorMetadata</text><line style="stroke:#181818;stroke-width:0.3;" x1="554.1" x2="657.9" y1="311.1" y2="311.1"/><line style="stroke:#181818;stroke-width:0.3;" x1="554.1" x2="657.9" y1="315.9" y2="315.9"/></g><!--reverse link Metadata to MeasureMetadata--><g id="link_Metadata_MeasureMetadata"><path d="M189.433,57.3162 C221.581,70.9482 261.3,88.26 303.6,108.6 C309.96,111.66 316.668,115.032 323.124,118.362 " fill="none" id="Metadata-backto-MeasureMetadata" style="stroke:#181818;stroke-width:0.6;"/><polygon fill="none" points="179.49,53.1,188.0276,60.6306,190.8384,54.0019,179.49,53.1" style="stroke:#181818;stroke-width:0.6;"/></g><!--reverse link Metadata to MonitorMetadata--><g id="link_Metadata_MonitorMetadata"><path d="M142.1605,73.5846 C138.2845,110.3766 132.066,169.47 128.556,202.8 " fill="none" id="Metadata-backto-MonitorMetadata" style="stroke:#181818;stroke-width:0.6;"/><polygon fill="none" points="143.292,62.844,138.5803,73.2074,145.7407,73.9617,143.292,62.844" style="stroke:#181818;stroke-width:0.6;"/></g><!--reverse link DeviceMetadata to MonitorMetadata--><g id="link_DeviceMetadata_MonitorMetadata"><path d="M192.6389,173.2582 C176.3429,185.1382 166.626,192.222 152.13,202.788 " fill="none" id="DeviceMetadata-backto-MonitorMetadata" style="stroke:#181818;stroke-width:0.6;stroke-dasharray:7.0,7.0;"/><polygon fill="none" points="201.366,166.896,190.5182,170.3491,194.7596,176.1672,201.366,166.896" style="stroke:#181818;stroke-width:0.6;"/></g><!--reverse link MeasureMetadata to MotorMetadata--><g id="link_MeasureMetadata_MotorMetadata"><path d="M322.9857,163.1804 C301.2477,178.5404 279.738,193.746 260.136,207.6 " fill="none" id="MeasureMetadata-backto-MotorMetadata" style="stroke:#181818;stroke-width:0.6;"/><polygon fill="none" points="331.806,156.948,320.9083,160.2403,325.0632,166.1205,331.806,156.948" style="stroke:#181818;stroke-width:0.6;"/></g><!--reverse link DeviceMetadata to MotorMetadata--><g id="link_DeviceMetadata_MotorMetadata"><path d="M240.6,177.696 C240.6,191.406 240.6,196.404 240.6,207.45 " fill="none" id="DeviceMetadata-backto-MotorMetadata" style="stroke:#181818;stroke-width:0.6;stroke-dasharray:7.0,7.0;"/><polygon fill="none" points="240.6,166.896,237,177.696,244.2,177.696,240.6,166.896" style="stroke:#181818;stroke-width:0.6;"/></g><!--reverse link MeasureMetadata to DetectorMetadata--><g id="link_MeasureMetadata_DetectorMetadata"><path d="M353.5407,167.6141 C351.3807,181.2041 350.166,188.886 348,202.524 " fill="none" id="MeasureMetadata-backto-DetectorMetadata" style="stroke:#181818;stroke-width:0.6;"/><polygon fill="none" points="355.236,156.948,349.9854,167.049,357.0961,168.1792,355.236,156.948" style="stroke:#181818;stroke-width:0.6;"/></g><!--reverse link DeviceMetadata to DetectorMetadata--><g id="link_DeviceMetadata_DetectorMetadata"><path d="M284.9773,173.6228 C299.8993,185.5028 308.346,192.222 321.618,202.788 " fill="none" id="DeviceMetadata-backto-DetectorMetadata" style="stroke:#181818;stroke-width:0.6;stroke-dasharray:7.0,7.0;"/><polygon fill="none" points="276.528,166.896,282.735,176.4392,287.2195,170.8064,276.528,166.896" style="stroke:#181818;stroke-width:0.6;"/></g><!--reverse link MeasureMetadata to TimestampMetadata--><g id="link_MeasureMetadata_TimestampMetadata"><path d="M401.8341,161.8926 C408.5721,165.3306 406.038,163.848 412.8,166.8 C447.108,181.764 486.96,195.84 517.476,205.95 " fill="none" id="MeasureMetadata-backto-TimestampMetadata" style="stroke:#181818;stroke-width:0.6;"/><polygon fill="none" points="392.214,156.984,400.1979,165.0993,403.4703,158.6859,392.214,156.984" style="stroke:#181818;stroke-width:0.6;"/></g><!--reverse link MeasureMetadata to ExternalMetadata--><g id="link_MeasureMetadata_ExternalMetadata"><path d="M387.5974,164.0672 C403.1554,177.7052 416.052,189.012 431.634,202.668 " fill="none" id="MeasureMetadata-backto-ExternalMetadata" style="stroke:#181818;stroke-width:0.6;"/><polygon fill="none" points="379.476,156.948,385.2244,166.7743,389.9705,161.36,379.476,156.948" style="stroke:#181818;stroke-width:0.6;"/></g><!--reverse link DeviceMetadata to ExternalMetadata--><g id="link_DeviceMetadata_ExternalMetadata"><path d="M303.17,166.704 C306.668,168.198 300.21,165.414 303.6,166.8 C323.22,174.81 373.026,192.846 409.764,206.004 " fill="none" id="DeviceMetadata-backto-ExternalMetadata" style="stroke:#181818;stroke-width:0.6;stroke-dasharray:7.0,7.0;"/><polygon fill="none" points="293.238,162.462,301.756,170.0147,304.584,163.3933,293.238,162.462" style="stroke:#181818;stroke-width:0.6;"/></g><!--reverse link DetectorMetadata to StandardDetectorMetadata--><g id="link_DetectorMetadata_StandardDetectorMetadata"><path d="M290.7143,241.2449 C287.1383,242.3729 293.862,240.204 290.4,241.2 C223.26,260.484 204.054,256.29 137.4,277.2 C124.122,281.364 109.812,286.818 97.476,291.84 " fill="none" id="DetectorMetadata-backto-StandardDetectorMetadata" style="stroke:#181818;stroke-width:0.6;"/><polygon fill="none" points="301.014,237.996,289.6313,237.8117,291.7972,244.6782,301.014,237.996" style="stroke:#181818;stroke-width:0.6;"/></g><!--reverse link DetectorMetadata to AverageDetectorMetadata--><g id="link_DetectorMetadata_AverageDetectorMetadata"><path d="M304.7766,246.8203 C287.2146,257.3983 274.128,265.278 254.4,277.158 " fill="none" id="DetectorMetadata-backto-AverageDetectorMetadata" style="stroke:#181818;stroke-width:0.6;"/><polygon fill="none" points="314.028,241.248,302.9191,243.7365,306.634,249.9042,314.028,241.248" style="stroke:#181818;stroke-width:0.6;"/></g><!--reverse link DetectorMetadata to IntervalDetectorMetadata--><g id="link_DetectorMetadata_IntervalDetectorMetadata"><path d="M345,252.048 C345,265.638 345,273.186 345,286.824 " fill="none" id="DetectorMetadata-backto-IntervalDetectorMetadata" style="stroke:#181818;stroke-width:0.6;"/><polygon fill="none" points="345,241.248,341.4,252.048,348.6,252.048,345,241.248" style="stroke:#181818;stroke-width:0.6;"/></g><!--reverse link DetectorMetadata to ArrayDetectorMetadata--><g id="link_DetectorMetadata_ArrayDetectorMetadata"><path d="M384.0554,246.964 C408.6794,262.324 433.872,278.046 456.078,291.9 " fill="none" id="DetectorMetadata-backto-ArrayDetectorMetadata" style="stroke:#181818;stroke-width:0.6;"/><polygon fill="none" points="374.892,241.248,382.1501,250.0184,385.9607,243.9095,374.892,241.248" style="stroke:#181818;stroke-width:0.6;"/></g><!--reverse link DetectorMetadata to AreaDetectorMetadata--><g id="link_DetectorMetadata_AreaDetectorMetadata"><path d="M399.2938,241.2163 C402.8698,242.3563 396.144,240.18 399.6,241.2 C462.618,259.812 480.948,255.57 543,277.2 C554.79,281.31 567.396,286.782 578.214,291.834 " fill="none" id="DetectorMetadata-backto-AreaDetectorMetadata" style="stroke:#181818;stroke-width:0.6;"/><polygon fill="none" points="389.004,237.936,398.2003,244.6462,400.3872,237.7864,389.004,237.936" style="stroke:#181818;stroke-width:0.6;"/></g><!--reverse link Data to Metadata--><g id="link_Data_Metadata"><path codeLine="79" d="M98.67,38.4 C105.534,38.4 105.198,38.4 112.056,38.4 " fill="none" id="Data-backto-Metadata" style="stroke:#181818;stroke-width:0.6;"/><polygon fill="#181818" points="91.47,38.4,95.07,40.8,98.67,38.4,95.07,36,91.47,38.4" style="stroke:#181818;stroke-width:0.6;"/></g><!--SRC=[fLHDQ-Cm4BtxLynvsSrjBxqKqvHje4cMndiBXAarTWJwC9BiDfJ-znt9TZxQX18Q3B5alJSpxuscLEWzp2cWm83mbW7_36g26_31ILEd7KzbaDRmvgf_ozwph4pOQOzxpumD1Cys1AlZCG8XiNQeeR9kRHAzjg9LDCaoCgqUgOQWgo9VJFEdQRzOv7zN3yiYBURBnQnOFlNlzqKUOoU2mg7nZNLXeBZBqz_ZyYv__9XGiPKU-15KIKC2f86mfRNnfLOJJw5jXkpM1Zsya58J-4E672hfwNPj_dbYa0zeIeBAMHtnZcwpJ9f0haBUdb8dI_gWfXIdMZRTwJgCLMp2hecwxyiwY3mdzAqxCDDh82C-6TSQ6Gxa1xJbVUikewLk56aomPyluPFzaz6JenZd8vpcVJbGQg6nfIXmcE_IfKwsJYS3DySkx0CLKXCxgfil8rtKOUZ7dk-UqSwW-aRYVQ0gvdtEoXNtdq0dBahqwSFR7fjttCqrNG5DkIZxib5IfywgbCMGTZM-RZ04qWtNS0Fn3jJazfy4LuM3LZtev3wcSyMM-4unYPFFRI3Fm1sKMpGrHG6OKyXEYXOLTAXQyWd5zGCwWh9rZWLKE_3OzHUQEdhudQ24vHOQwsKoAKl0MSNN6cgR3dXgq27d8uQYUJXKyKRl8dawx-XeLWXPLHJZWI_H3AF2_qm7Nsoh16DvkdYhEeeqq3Zxp1RVygGI42iVNPZ5QS7rN6i3grIpmXivu8-47Vrr3dVNq1uX2Qy4fh7_uzT-XcJ_0G00]--></g></svg>