<?xml version="1.0" encoding="us-ascii" standalone="no"?><svg xmlns="http://www.w3.org/2000/svg" xmlns:xlink="http://www.w3.org/1999/xlink" contentStyleType="text/css" height="773px" preserveAspectRatio="none" style="width:935px;height:773px;background:#FFFFFF;" version="1.1" viewBox="0 0 935 773" width="935px" zoomAndPan="magnify"><defs/><g><!--class Data--><g id="elem_Data"><rect codeLine="3" fill="#F1F1F1" height="113.625" id="Data" rx="2.5" ry="2.5" style="stroke:#181818;stroke-width:0.5;" width="164" x="468" y="35"/><ellipse cx="530.75" cy="51" fill="#ADD1B2" rx="11" ry="11" style="stroke:#181818;stroke-width:1.0;"/><path d="M530.7969,57.2031 C532.2969,57.2031 533.5313,56.6406 534.4375,55.5781 L533.0625,54.0625 C532.5156,54.6563 531.8594,55.0469 531.0625,55.0469 C529.3906,55.0469 528.2344,53.7188 528.2344,51.4375 C528.2344,49.2188 529.3906,47.875 530.9531,47.875 C531.7656,47.875 532.3594,48.1875 532.8906,48.6719 L534.2656,47.125 C533.5156,46.3906 532.3594,45.7188 530.9531,45.7188 C528,45.7188 525.6719,47.8594 525.6719,51.5313 C525.6719,55.25 528.0469,57.2031 530.7969,57.2031 Z " fill="#000000"/><text fill="#000000" font-family="sans-serif" font-size="14" lengthAdjust="spacing" textLength="30" x="551.25" y="55.7852">Data</text><line style="stroke:#181818;stroke-width:0.5;" x1="469" x2="631" y1="67" y2="67"/><text fill="#000000" font-family="sans-serif" font-size="14" lengthAdjust="spacing" textLength="131" x="474" y="83.9883">metadata : Metadata</text><text fill="#000000" font-family="sans-serif" font-size="14" lengthAdjust="spacing" textLength="113" x="474" y="100.3945">_data : np.ndarray</text><text fill="#000000" font-family="sans-serif" font-size="14" lengthAdjust="spacing" textLength="152" x="474" y="116.8008">_importer : DataImporter</text><line style="stroke:#181818;stroke-width:0.5;" x1="469" x2="631" y1="124.2188" y2="124.2188"/><text fill="#000000" font-family="sans-serif" font-size="14" lengthAdjust="spacing" textLength="39" x="474" y="141.207">data()</text></g><path d="M121.5,6 L121.5,168.3438 A0,0 0 0 0 121.5,168.3438 L432.5,168.3438 A0,0 0 0 0 432.5,168.3438 L432.5,91.1719 L472,95.6094 L432.5,83.1719 L432.5,16 L422.5,6 L121.5,6 A0,0 0 0 0 121.5,6 " fill="#FEFFDD" style="stroke:#181818;stroke-width:0.5;"/><path d="M422.5,6 L422.5,16 L432.5,16 L422.5,6 " fill="#FEFFDD" style="stroke:#181818;stroke-width:0.5;"/><text fill="#000000" font-family="sans-serif" font-size="13" lengthAdjust="spacing" textLength="290" x="127.5" y="23.0605">"_data" usually contains a 1D array and is accessed</text><text fill="#000000" font-family="sans-serif" font-size="13" lengthAdjust="spacing" textLength="281" x="127.5" y="38.2949">via the data() getter method (Python property) that</text><text fill="#000000" font-family="sans-serif" font-size="13" lengthAdjust="spacing" textLength="129" x="127.5" y="53.5293">calls the DataImporter.</text><text fill="#000000" font-family="sans-serif" font-size="13" lengthAdjust="spacing" textLength="3" x="127.5" y="68.7637">&#160;</text><text fill="#000000" font-family="sans-serif" font-size="13" lengthAdjust="spacing" textLength="280" x="127.5" y="83.998">For individual detector values see derived classes</text><text fill="#000000" font-family="sans-serif" font-size="13" lengthAdjust="spacing" textLength="270" x="127.5" y="99.2324">AverageDetectorData and IntervalDetectorData.</text><text fill="#000000" font-family="sans-serif" font-size="13" lengthAdjust="spacing" textLength="3" x="127.5" y="114.4668">&#160;</text><text fill="#000000" font-family="sans-serif" font-size="13" lengthAdjust="spacing" textLength="288" x="127.5" y="129.7012">ArrayDetectorData and ExternalData are somewhat</text><text fill="#000000" font-family="sans-serif" font-size="13" lengthAdjust="spacing" textLength="271" x="127.5" y="144.9355">special as they contain either 2D data or a list of</text><text fill="#000000" font-family="sans-serif" font-size="13" lengthAdjust="spacing" textLength="240" x="127.5" y="160.1699">data objects (in case of images and alike).</text><!--class DataImporter--><g id="elem_DataImporter"><rect codeLine="22" fill="#F1F1F1" height="80.8125" id="DataImporter" rx="2.5" ry="2.5" style="stroke:#181818;stroke-width:0.5;" width="116" x="667" y="51.5"/><ellipse cx="682" cy="67.5" fill="#ADD1B2" rx="11" ry="11" style="stroke:#181818;stroke-width:1.0;"/><path d="M682.0469,73.7031 C683.5469,73.7031 684.7813,73.1406 685.6875,72.0781 L684.3125,70.5625 C683.7656,71.1563 683.1094,71.5469 682.3125,71.5469 C680.6406,71.5469 679.4844,70.2188 679.4844,67.9375 C679.4844,65.7188 680.6406,64.375 682.2031,64.375 C683.0156,64.375 683.6094,64.6875 684.1406,65.1719 L685.5156,63.625 C684.7656,62.8906 683.6094,62.2188 682.2031,62.2188 C679.25,62.2188 676.9219,64.3594 676.9219,68.0313 C676.9219,71.75 679.2969,73.7031 682.0469,73.7031 Z " fill="#000000"/><text fill="#000000" font-family="sans-serif" font-size="14" lengthAdjust="spacing" textLength="84" x="696" y="72.2852">DataImporter</text><line style="stroke:#181818;stroke-width:0.5;" x1="668" x2="782" y1="83.5" y2="83.5"/><text fill="#000000" font-family="sans-serif" font-size="14" lengthAdjust="spacing" textLength="42" x="673" y="100.4883">source</text><line style="stroke:#181818;stroke-width:0.5;" x1="668" x2="782" y1="107.9063" y2="107.9063"/><text fill="#000000" font-family="sans-serif" font-size="14" lengthAdjust="spacing" textLength="51" x="673" y="124.8945">import()</text></g><!--class Metadata--><g id="elem_Metadata"><rect codeLine="27" fill="#F1F1F1" height="48" id="Metadata" rx="2.5" ry="2.5" style="stroke:#181818;stroke-width:0.5;" width="93" x="263.5" y="246"/><ellipse cx="278.5" cy="262" fill="#ADD1B2" rx="11" ry="11" style="stroke:#181818;stroke-width:1.0;"/><path d="M278.5469,268.2031 C280.0469,268.2031 281.2813,267.6406 282.1875,266.5781 L280.8125,265.0625 C280.2656,265.6563 279.6094,266.0469 278.8125,266.0469 C277.1406,266.0469 275.9844,264.7188 275.9844,262.4375 C275.9844,260.2188 277.1406,258.875 278.7031,258.875 C279.5156,258.875 280.1094,259.1875 280.6406,259.6719 L282.0156,258.125 C281.2656,257.3906 280.1094,256.7188 278.7031,256.7188 C275.75,256.7188 273.4219,258.8594 273.4219,262.5313 C273.4219,266.25 275.7969,268.2031 278.5469,268.2031 Z " fill="#000000"/><text fill="#000000" font-family="sans-serif" font-size="14" lengthAdjust="spacing" textLength="61" x="292.5" y="266.7852">Metadata</text><line style="stroke:#181818;stroke-width:0.5;" x1="264.5" x2="355.5" y1="278" y2="278"/><line style="stroke:#181818;stroke-width:0.5;" x1="264.5" x2="355.5" y1="286" y2="286"/></g><g id="elem_GMN7"><path d="M198.5,366 L198.5,406.4688 A0,0 0 0 0 198.5,406.4688 L321.5,406.4688 A0,0 0 0 0 321.5,406.4688 L321.5,376 L311.5,366 L272.44,366 L299.88,294.07 L264.44,366 L198.5,366 A0,0 0 0 0 198.5,366 " fill="#FEFFDD" style="stroke:#181818;stroke-width:0.5;"/><path d="M311.5,366 L311.5,376 L321.5,376 L311.5,366 " fill="#FEFFDD" style="stroke:#181818;stroke-width:0.5;"/><text fill="#000000" font-family="sans-serif" font-size="13" lengthAdjust="spacing" textLength="90" x="204.5" y="383.0605">See diagram for</text><text fill="#000000" font-family="sans-serif" font-size="13" lengthAdjust="spacing" textLength="102" x="204.5" y="398.2949">metadata module.</text></g><!--class MeasureData--><g id="elem_MeasureData"><rect codeLine="34" fill="#F1F1F1" height="64.4063" id="MeasureData" rx="2.5" ry="2.5" style="stroke:#181818;stroke-width:0.5;" width="216" x="442" y="238"/><ellipse cx="503.75" cy="254" fill="#ADD1B2" rx="11" ry="11" style="stroke:#181818;stroke-width:1.0;"/><path d="M503.7969,260.2031 C505.2969,260.2031 506.5313,259.6406 507.4375,258.5781 L506.0625,257.0625 C505.5156,257.6563 504.8594,258.0469 504.0625,258.0469 C502.3906,258.0469 501.2344,256.7188 501.2344,254.4375 C501.2344,252.2188 502.3906,250.875 503.9531,250.875 C504.7656,250.875 505.3594,251.1875 505.8906,251.6719 L507.2656,250.125 C506.5156,249.3906 505.3594,248.7188 503.9531,248.7188 C501,248.7188 498.6719,250.8594 498.6719,254.5313 C498.6719,258.25 501.0469,260.2031 503.7969,260.2031 Z " fill="#000000"/><text fill="#000000" font-family="sans-serif" font-size="14" lengthAdjust="spacing" textLength="84" x="524.25" y="258.7852">MeasureData</text><line style="stroke:#181818;stroke-width:0.5;" x1="443" x2="657" y1="270" y2="270"/><text fill="#000000" font-family="sans-serif" font-size="14" lengthAdjust="spacing" textLength="204" x="448" y="286.9883">positions : np.ndarray(dtype=int)</text><line style="stroke:#181818;stroke-width:0.5;" x1="443" x2="657" y1="294.4063" y2="294.4063"/></g><!--class MonitorData--><g id="elem_MonitorData"><rect codeLine="38" fill="#F1F1F1" height="64.4063" id="MonitorData" rx="2.5" ry="2.5" style="stroke:#181818;stroke-width:0.5;" width="235" x="693.5" y="238"/><ellipse cx="767.25" cy="254" fill="#ADD1B2" rx="11" ry="11" style="stroke:#181818;stroke-width:1.0;"/><path d="M767.2969,260.2031 C768.7969,260.2031 770.0313,259.6406 770.9375,258.5781 L769.5625,257.0625 C769.0156,257.6563 768.3594,258.0469 767.5625,258.0469 C765.8906,258.0469 764.7344,256.7188 764.7344,254.4375 C764.7344,252.2188 765.8906,250.875 767.4531,250.875 C768.2656,250.875 768.8594,251.1875 769.3906,251.6719 L770.7656,250.125 C770.0156,249.3906 768.8594,248.7188 767.4531,248.7188 C764.5,248.7188 762.1719,250.8594 762.1719,254.5313 C762.1719,258.25 764.5469,260.2031 767.2969,260.2031 Z " fill="#000000"/><text fill="#000000" font-family="sans-serif" font-size="14" lengthAdjust="spacing" textLength="79" x="787.75" y="258.7852">MonitorData</text><line style="stroke:#181818;stroke-width:0.5;" x1="694.5" x2="927.5" y1="270" y2="270"/><text fill="#000000" font-family="sans-serif" font-size="14" lengthAdjust="spacing" textLength="223" x="699.5" y="286.9883">milliseconds : np.ndarray(dtype=int)</text><line style="stroke:#181818;stroke-width:0.5;" x1="694.5" x2="927.5" y1="294.4063" y2="294.4063"/></g><!--class MotorData--><g id="elem_MotorData"><rect codeLine="42" fill="#F1F1F1" height="48" id="MotorData" rx="2.5" ry="2.5" style="stroke:#181818;stroke-width:0.5;" width="100" x="357" y="362"/><ellipse cx="372" cy="378" fill="#ADD1B2" rx="11" ry="11" style="stroke:#181818;stroke-width:1.0;"/><path d="M372.0469,384.2031 C373.5469,384.2031 374.7813,383.6406 375.6875,382.5781 L374.3125,381.0625 C373.7656,381.6563 373.1094,382.0469 372.3125,382.0469 C370.6406,382.0469 369.4844,380.7188 369.4844,378.4375 C369.4844,376.2188 370.6406,374.875 372.2031,374.875 C373.0156,374.875 373.6094,375.1875 374.1406,375.6719 L375.5156,374.125 C374.7656,373.3906 373.6094,372.7188 372.2031,372.7188 C369.25,372.7188 366.9219,374.8594 366.9219,378.5313 C366.9219,382.25 369.2969,384.2031 372.0469,384.2031 Z " fill="#000000"/><text fill="#000000" font-family="sans-serif" font-size="14" lengthAdjust="spacing" textLength="68" x="386" y="382.7852">MotorData</text><line style="stroke:#181818;stroke-width:0.5;" x1="358" x2="456" y1="394" y2="394"/><line style="stroke:#181818;stroke-width:0.5;" x1="358" x2="456" y1="402" y2="402"/></g><!--class DetectorData--><g id="elem_DetectorData"><rect codeLine="45" fill="#F1F1F1" height="48" id="DetectorData" rx="2.5" ry="2.5" style="stroke:#181818;stroke-width:0.5;" width="115" x="492.5" y="362"/><ellipse cx="507.5" cy="378" fill="#ADD1B2" rx="11" ry="11" style="stroke:#181818;stroke-width:1.0;"/><path d="M507.5469,384.2031 C509.0469,384.2031 510.2813,383.6406 511.1875,382.5781 L509.8125,381.0625 C509.2656,381.6563 508.6094,382.0469 507.8125,382.0469 C506.1406,382.0469 504.9844,380.7188 504.9844,378.4375 C504.9844,376.2188 506.1406,374.875 507.7031,374.875 C508.5156,374.875 509.1094,375.1875 509.6406,375.6719 L511.0156,374.125 C510.2656,373.3906 509.1094,372.7188 507.7031,372.7188 C504.75,372.7188 502.4219,374.8594 502.4219,378.5313 C502.4219,382.25 504.7969,384.2031 507.5469,384.2031 Z " fill="#000000"/><text fill="#000000" font-family="sans-serif" font-size="14" lengthAdjust="spacing" textLength="83" x="521.5" y="382.7852">DetectorData</text><line style="stroke:#181818;stroke-width:0.5;" x1="493.5" x2="606.5" y1="394" y2="394"/><line style="stroke:#181818;stroke-width:0.5;" x1="493.5" x2="606.5" y1="402" y2="402"/></g><!--class ExternalData--><g id="elem_ExternalData"><rect codeLine="48" fill="#F1F1F1" height="48" id="ExternalData" rx="2.5" ry="2.5" style="stroke:#181818;stroke-width:0.5;" width="113" x="642.5" y="362"/><ellipse cx="657.5" cy="378" fill="#ADD1B2" rx="11" ry="11" style="stroke:#181818;stroke-width:1.0;"/><path d="M657.5469,384.2031 C659.0469,384.2031 660.2813,383.6406 661.1875,382.5781 L659.8125,381.0625 C659.2656,381.6563 658.6094,382.0469 657.8125,382.0469 C656.1406,382.0469 654.9844,380.7188 654.9844,378.4375 C654.9844,376.2188 656.1406,374.875 657.7031,374.875 C658.5156,374.875 659.1094,375.1875 659.6406,375.6719 L661.0156,374.125 C660.2656,373.3906 659.1094,372.7188 657.7031,372.7188 C654.75,372.7188 652.4219,374.8594 652.4219,378.5313 C652.4219,382.25 654.7969,384.2031 657.5469,384.2031 Z " fill="#000000"/><text fill="#000000" font-family="sans-serif" font-size="14" lengthAdjust="spacing" textLength="81" x="671.5" y="382.7852">ExternalData</text><line style="stroke:#181818;stroke-width:0.5;" x1="643.5" x2="754.5" y1="394" y2="394"/><line style="stroke:#181818;stroke-width:0.5;" x1="643.5" x2="754.5" y1="402" y2="402"/></g><!--class TimestampData--><g id="elem_TimestampData"><rect codeLine="50" fill="#F1F1F1" height="48" id="TimestampData" rx="2.5" ry="2.5" style="stroke:#181818;stroke-width:0.5;" width="132" x="791" y="362"/><ellipse cx="806" cy="378" fill="#ADD1B2" rx="11" ry="11" style="stroke:#181818;stroke-width:1.0;"/><path d="M806.0469,384.2031 C807.5469,384.2031 808.7813,383.6406 809.6875,382.5781 L808.3125,381.0625 C807.7656,381.6563 807.1094,382.0469 806.3125,382.0469 C804.6406,382.0469 803.4844,380.7188 803.4844,378.4375 C803.4844,376.2188 804.6406,374.875 806.2031,374.875 C807.0156,374.875 807.6094,375.1875 808.1406,375.6719 L809.5156,374.125 C808.7656,373.3906 807.6094,372.7188 806.2031,372.7188 C803.25,372.7188 800.9219,374.8594 800.9219,378.5313 C800.9219,382.25 803.2969,384.2031 806.0469,384.2031 Z " fill="#000000"/><text fill="#000000" font-family="sans-serif" font-size="14" lengthAdjust="spacing" textLength="100" x="820" y="382.7852">TimestampData</text><line style="stroke:#181818;stroke-width:0.5;" x1="792" x2="922" y1="394" y2="394"/><line style="stroke:#181818;stroke-width:0.5;" x1="792" x2="922" y1="402" y2="402"/></g><!--class AverageDetectorData--><g id="elem_AverageDetectorData"><rect codeLine="53" fill="#F1F1F1" height="195.6563" id="AverageDetectorData" rx="2.5" ry="2.5" style="stroke:#181818;stroke-width:0.5;" width="230" x="79" y="470"/><ellipse cx="122.8" cy="486" fill="#ADD1B2" rx="11" ry="11" style="stroke:#181818;stroke-width:1.0;"/><path d="M122.8469,492.2031 C124.3469,492.2031 125.5813,491.6406 126.4875,490.5781 L125.1125,489.0625 C124.5656,489.6563 123.9094,490.0469 123.1125,490.0469 C121.4406,490.0469 120.2844,488.7188 120.2844,486.4375 C120.2844,484.2188 121.4406,482.875 123.0031,482.875 C123.8156,482.875 124.4094,483.1875 124.9406,483.6719 L126.3156,482.125 C125.5656,481.3906 124.4094,480.7188 123.0031,480.7188 C120.05,480.7188 117.7219,482.8594 117.7219,486.5313 C117.7219,490.25 120.0969,492.2031 122.8469,492.2031 Z " fill="#000000"/><text fill="#000000" font-family="sans-serif" font-size="14" lengthAdjust="spacing" textLength="134" x="143.2" y="490.7852">AverageDetectorData</text><line style="stroke:#181818;stroke-width:0.5;" x1="80" x2="308" y1="502" y2="502"/><text fill="#000000" font-family="sans-serif" font-size="14" lengthAdjust="spacing" textLength="145" x="85" y="518.9883">raw_data : raggedarray</text><text fill="#000000" font-family="sans-serif" font-size="14" lengthAdjust="spacing" textLength="204" x="85" y="535.3945">attempts : np.ndarray(dtype=int)</text><text fill="#000000" font-family="sans-serif" font-size="14" lengthAdjust="spacing" textLength="218" x="85" y="551.8008">n_averages : np.ndarray(dtype=int)</text><text fill="#000000" font-family="sans-serif" font-size="14" lengthAdjust="spacing" textLength="119" x="85" y="568.207">_mean : np.ndarray</text><text fill="#000000" font-family="sans-serif" font-size="14" lengthAdjust="spacing" textLength="104" x="85" y="584.6133">_std : np.ndarray</text><line style="stroke:#181818;stroke-width:0.5;" x1="80" x2="308" y1="592.0313" y2="592.0313"/><text fill="#000000" font-family="sans-serif" font-size="14" lengthAdjust="spacing" textLength="45" x="85" y="609.0195">mean()</text><text fill="#000000" font-family="sans-serif" font-size="14" lengthAdjust="spacing" textLength="30" x="85" y="625.4258">std()</text><text fill="#000000" font-family="sans-serif" font-size="14" lengthAdjust="spacing" textLength="103" x="85" y="641.832">averaged_data()</text><text fill="#000000" font-family="sans-serif" font-size="14" lengthAdjust="spacing" textLength="98" x="85" y="658.2383">has_raw_data()</text></g><g id="elem_GMN26"><path d="M6,726 L6,766.4688 A0,0 0 0 0 6,766.4688 L162,766.4688 A0,0 0 0 0 162,766.4688 L162,736 L152,726 L100.04,726 L133.37,666.01 L92.04,726 L6,726 A0,0 0 0 0 6,726 " fill="#FEFFDD" style="stroke:#181818;stroke-width:0.5;"/><path d="M152,726 L152,736 L162,736 L152,726 " fill="#FEFFDD" style="stroke:#181818;stroke-width:0.5;"/><text fill="#000000" font-family="sans-serif" font-size="13" lengthAdjust="spacing" textLength="135" x="12" y="743.0605">How does mean() differ</text><text fill="#000000" font-family="sans-serif" font-size="13" lengthAdjust="spacing" textLength="116" x="12" y="758.2949">from values in Data?</text></g><g id="elem_GMN29"><path d="M197.5,726 L197.5,766.4688 A0,0 0 0 0 197.5,766.4688 L410.5,766.4688 A0,0 0 0 0 410.5,766.4688 L410.5,736 L400.5,726 L295.96,726 L254.63,666.01 L287.96,726 L197.5,726 A0,0 0 0 0 197.5,726 " fill="#FEFFDD" style="stroke:#181818;stroke-width:0.5;"/><path d="M400.5,726 L400.5,736 L410.5,736 L400.5,726 " fill="#FEFFDD" style="stroke:#181818;stroke-width:0.5;"/><text fill="#000000" font-family="sans-serif" font-size="13" lengthAdjust="spacing" textLength="173" x="203.5" y="743.0605">averaged_values() returns only</text><text fill="#000000" font-family="sans-serif" font-size="13" lengthAdjust="spacing" textLength="192" x="203.5" y="758.2949">those values used to average over</text></g><!--class IntervalDetectorData--><g id="elem_IntervalDetectorData"><rect codeLine="67" fill="#F1F1F1" height="162.8438" id="IntervalDetectorData" rx="2.5" ry="2.5" style="stroke:#181818;stroke-width:0.5;" width="202" x="344" y="486.5"/><ellipse cx="377" cy="502.5" fill="#ADD1B2" rx="11" ry="11" style="stroke:#181818;stroke-width:1.0;"/><path d="M377.0469,508.7031 C378.5469,508.7031 379.7813,508.1406 380.6875,507.0781 L379.3125,505.5625 C378.7656,506.1563 378.1094,506.5469 377.3125,506.5469 C375.6406,506.5469 374.4844,505.2188 374.4844,502.9375 C374.4844,500.7188 375.6406,499.375 377.2031,499.375 C378.0156,499.375 378.6094,499.6875 379.1406,500.1719 L380.5156,498.625 C379.7656,497.8906 378.6094,497.2188 377.2031,497.2188 C374.25,497.2188 371.9219,499.3594 371.9219,503.0313 C371.9219,506.75 374.2969,508.7031 377.0469,508.7031 Z " fill="#000000"/><text fill="#000000" font-family="sans-serif" font-size="14" lengthAdjust="spacing" textLength="130" x="395" y="507.2852">IntervalDetectorData</text><line style="stroke:#181818;stroke-width:0.5;" x1="345" x2="545" y1="518.5" y2="518.5"/><text fill="#000000" font-family="sans-serif" font-size="14" lengthAdjust="spacing" textLength="145" x="350" y="535.4883">raw_data : raggedarray</text><text fill="#000000" font-family="sans-serif" font-size="14" lengthAdjust="spacing" textLength="190" x="350" y="551.8945">counts : np.ndarray(dtype=int)</text><text fill="#000000" font-family="sans-serif" font-size="14" lengthAdjust="spacing" textLength="119" x="350" y="568.3008">_mean : np.ndarray</text><text fill="#000000" font-family="sans-serif" font-size="14" lengthAdjust="spacing" textLength="104" x="350" y="584.707">_std : np.ndarray</text><line style="stroke:#181818;stroke-width:0.5;" x1="345" x2="545" y1="592.125" y2="592.125"/><text fill="#000000" font-family="sans-serif" font-size="14" lengthAdjust="spacing" textLength="45" x="350" y="609.1133">mean()</text><text fill="#000000" font-family="sans-serif" font-size="14" lengthAdjust="spacing" textLength="30" x="350" y="625.5195">std()</text><text fill="#000000" font-family="sans-serif" font-size="14" lengthAdjust="spacing" textLength="98" x="350" y="641.9258">has_raw_data()</text></g><!--class ArrayDetectorData--><g id="elem_ArrayDetectorData"><rect codeLine="77" fill="#F1F1F1" height="48" id="ArrayDetectorData" rx="2.5" ry="2.5" style="stroke:#181818;stroke-width:0.5;" width="149" x="581.5" y="544"/><ellipse cx="596.5" cy="560" fill="#ADD1B2" rx="11" ry="11" style="stroke:#181818;stroke-width:1.0;"/><path d="M596.5469,566.2031 C598.0469,566.2031 599.2813,565.6406 600.1875,564.5781 L598.8125,563.0625 C598.2656,563.6563 597.6094,564.0469 596.8125,564.0469 C595.1406,564.0469 593.9844,562.7188 593.9844,560.4375 C593.9844,558.2188 595.1406,556.875 596.7031,556.875 C597.5156,556.875 598.1094,557.1875 598.6406,557.6719 L600.0156,556.125 C599.2656,555.3906 598.1094,554.7188 596.7031,554.7188 C593.75,554.7188 591.4219,556.8594 591.4219,560.5313 C591.4219,564.25 593.7969,566.2031 596.5469,566.2031 Z " fill="#000000"/><text fill="#000000" font-family="sans-serif" font-size="14" lengthAdjust="spacing" textLength="117" x="610.5" y="564.7852">ArrayDetectorData</text><line style="stroke:#181818;stroke-width:0.5;" x1="582.5" x2="729.5" y1="576" y2="576"/><line style="stroke:#181818;stroke-width:0.5;" x1="582.5" x2="729.5" y1="584" y2="584"/></g><!--class AreaDetectorData--><g id="elem_AreaDetectorData"><rect codeLine="80" fill="#F1F1F1" height="48" id="AreaDetectorData" rx="2.5" ry="2.5" style="stroke:#181818;stroke-width:0.5;" width="144" x="766" y="544"/><ellipse cx="781" cy="560" fill="#ADD1B2" rx="11" ry="11" style="stroke:#181818;stroke-width:1.0;"/><path d="M781.0469,566.2031 C782.5469,566.2031 783.7813,565.6406 784.6875,564.5781 L783.3125,563.0625 C782.7656,563.6563 782.1094,564.0469 781.3125,564.0469 C779.6406,564.0469 778.4844,562.7188 778.4844,560.4375 C778.4844,558.2188 779.6406,556.875 781.2031,556.875 C782.0156,556.875 782.6094,557.1875 783.1406,557.6719 L784.5156,556.125 C783.7656,555.3906 782.6094,554.7188 781.2031,554.7188 C778.25,554.7188 775.9219,556.8594 775.9219,560.5313 C775.9219,564.25 778.2969,566.2031 781.0469,566.2031 Z " fill="#000000"/><text fill="#000000" font-family="sans-serif" font-size="14" lengthAdjust="spacing" textLength="112" x="795" y="564.7852">AreaDetectorData</text><line style="stroke:#181818;stroke-width:0.5;" x1="767" x2="909" y1="576" y2="576"/><line style="stroke:#181818;stroke-width:0.5;" x1="767" x2="909" y1="584" y2="584"/></g><!--reverse link Data to DataImporter--><g id="link_Data_DataImporter"><path codeLine="31" d="M644.03,92 C655.65,92 655.27,92 666.89,92 " fill="none" id="Data-backto-DataImporter" style="stroke:#181818;stroke-width:1.0;"/><polygon fill="#181818" points="632.03,92,638.03,96,644.03,92,638.03,88,632.03,92" style="stroke:#181818;stroke-width:1.0;"/></g><!--reverse link Data to Metadata--><g id="link_Data_Metadata"><path codeLine="32" d="M477.2182,156.7884 C465.3282,166.6884 462.06,169.01 450,178 C416.76,202.77 376.97,228.26 348.32,245.94 " fill="none" id="Data-backto-Metadata" style="stroke:#181818;stroke-width:1.0;"/><polygon fill="#181818" points="486.44,149.11,479.2696,149.8753,477.2182,156.7884,484.3885,156.0231,486.44,149.11" style="stroke:#181818;stroke-width:1.0;"/></g><!--reverse link Data to MeasureData--><g id="link_Data_MeasureData"><path d="M550,167.17 C550,196.55 550,213.39 550,237.91 " fill="none" id="Data-backto-MeasureData" style="stroke:#181818;stroke-width:1.0;"/><polygon fill="none" points="550,149.17,544,167.17,556,167.17,550,149.17" style="stroke:#181818;stroke-width:1.0;"/></g><!--reverse link Data to MonitorData--><g id="link_Data_MonitorData"><path d="M626.1783,160.5327 C638.3583,170.5927 637.39,169.2 650,178 C681.59,200.06 718.94,221.43 749.71,237.91 " fill="none" id="Data-backto-MonitorData" style="stroke:#181818;stroke-width:1.0;"/><polygon fill="none" points="612.3,149.07,622.3574,165.1588,629.9992,155.9066,612.3,149.07" style="stroke:#181818;stroke-width:1.0;"/></g><!--reverse link MeasureData to MotorData--><g id="link_MeasureData_MotorData"><path d="M496.847,313.3727 C473.197,332.2327 457.62,344.65 436.05,361.84 " fill="none" id="MeasureData-backto-MotorData" style="stroke:#181818;stroke-width:1.0;"/><polygon fill="none" points="510.92,302.15,493.1061,308.6817,500.5879,318.0637,510.92,302.15" style="stroke:#181818;stroke-width:1.0;"/></g><!--reverse link MeasureData to DetectorData--><g id="link_MeasureData_DetectorData"><path d="M550,320.15 C550,339.01 550,344.65 550,361.84 " fill="none" id="MeasureData-backto-DetectorData" style="stroke:#181818;stroke-width:1.0;"/><polygon fill="none" points="550,302.15,544,320.15,556,320.15,550,302.15" style="stroke:#181818;stroke-width:1.0;"/></g><!--reverse link MeasureData to ExternalData--><g id="link_MeasureData_ExternalData"><path d="M605.0056,313.0878 C629.6556,331.9478 646.26,344.65 668.74,361.84 " fill="none" id="MeasureData-backto-ExternalData" style="stroke:#181818;stroke-width:1.0;"/><polygon fill="none" points="590.71,302.15,601.3597,317.853,608.6516,308.3225,590.71,302.15" style="stroke:#181818;stroke-width:1.0;"/></g><!--reverse link MeasureData to TimestampData--><g id="link_MeasureData_TimestampData"><path d="M650.3545,308.265 C701.3145,327.185 748.5,344.71 794.97,361.96 " fill="none" id="MeasureData-backto-TimestampData" style="stroke:#181818;stroke-width:1.0;"/><polygon fill="none" points="633.48,302,648.2662,313.8899,652.4429,302.6402,633.48,302" style="stroke:#181818;stroke-width:1.0;"/></g><!--reverse link DetectorData to AverageDetectorData--><g id="link_DetectorData_AverageDetectorData"><path d="M475.4567,412.0795 C419.3767,431.2395 355.39,454.16 326,470 C320.37,473.04 314.7,476.29 309.06,479.69 " fill="none" id="DetectorData-backto-AverageDetectorData" style="stroke:#181818;stroke-width:1.0;"/><polygon fill="none" points="492.49,406.26,473.5169,406.4017,477.3965,417.7573,492.49,406.26" style="stroke:#181818;stroke-width:1.0;"/></g><!--reverse link DetectorData to IntervalDetectorData--><g id="link_DetectorData_IntervalDetectorData"><path d="M527.4188,425.7072 C516.0588,445.1772 508.2,458.65 491.99,486.45 " fill="none" id="DetectorData-backto-IntervalDetectorData" style="stroke:#181818;stroke-width:1.0;"/><polygon fill="none" points="536.49,410.16,522.2364,422.6834,532.6012,428.7309,536.49,410.16" style="stroke:#181818;stroke-width:1.0;"/></g><!--reverse link DetectorData to ArrayDetectorData--><g id="link_DetectorData_ArrayDetectorData"><path d="M572.7713,425.6719 C593.1213,460.2419 622.09,509.41 642.41,543.93 " fill="none" id="DetectorData-backto-ArrayDetectorData" style="stroke:#181818;stroke-width:1.0;"/><polygon fill="none" points="563.64,410.16,567.6006,428.7157,577.9419,422.6282,563.64,410.16" style="stroke:#181818;stroke-width:1.0;"/></g><!--reverse link DetectorData to AreaDetectorData--><g id="link_DetectorData_AreaDetectorData"><path d="M624.4065,414.3599 C674.0165,433.0299 724.4,453.51 748,470 C777.56,490.66 804.72,522.46 821.3,543.97 " fill="none" id="DetectorData-backto-AreaDetectorData" style="stroke:#181818;stroke-width:1.0;"/><polygon fill="none" points="607.56,408.02,622.2932,419.9754,626.5198,408.7444,607.56,408.02" style="stroke:#181818;stroke-width:1.0;"/></g><!--SRC=[jLJ1Yjim4BtxAuQzD2biw1Pw2PIoa9RkeL1eZmjcrXedwbgIaUIa9ko_ToHBZhF9RWEbkKGUpPjvVlCyRzoZr2rQL21Q2JSVtXL5rQ1pi4AFi2-0VueyYl2uX6_f6EDb2kfseGLQY_qGbgerrfFbgr3bBZt6om2PpOkdGXjFq53jmTGnRRainyfNyNW5dUkmQNgeZFOejGE4cnN4Le1QWEH8LP5p929kAn7yXb8NM9CFD9Z_nWYOVU_vNqDhJKlMztDEHHzn5NTn4Jabl2ZYvHTZGMeXjr8m6n3agV8SssBJaGD7t8-it9A0A1sv2BlTaiKrhL9wr3DmljDSch7JYzJfDhpO2U3pRmPe1iI09N16qIvJTorLacbXv3zA1IJvqSBxLHG3c2z28rsGUnm4c8TVtCl1Z04LEWgpa8fPkzWP6_b8yqL1V0xpcdeZYvGyuandAuh7OVnno2a_kuPpq-0VZFT6BU5744_YEXYmDlPUZrvJHdGDiJ3njTzU7rif1QyFXXnReUiinNjYuRGuilA-bjI89sYDaruQTjJKlZFX-vO-Iksdv8sMUHolL5IoONc9vHSN5NrUSafyVqWySiDVSe-CSZPtJFqf5JcFghsaxZadZqfCWuCY5dTvCp1iJPFLaCL2_YvLwryMQfgiInm8l9vUAa9zPXivBqwZ8NSsuFW-dL8RKQOb5M8RT6L-eSFUolRzQdOW31CRwh6LwvhOnRKrAky7_hI2E9-coF2TdL5rUQ0mWBca9TzPzgdHJN-lUO7nLvegTxpsm9iC0iF_UMRdjim_3gqodVR_UmOdUcSFdgp65rvcWY2y3F07]--></g></svg>