<?xml version="1.0" encoding="us-ascii" standalone="no"?><svg xmlns="http://www.w3.org/2000/svg" xmlns:xlink="http://www.w3.org/1999/xlink" contentStyleType="text/css" height="601px" preserveAspectRatio="none" style="width:853px;height:601px;background:#FFFFFF;" version="1.1" viewBox="0 0 853 601" width="853px" zoomAndPan="magnify"><defs/><g><!--cluster scan--><g id="cluster_scan"><path d="M150,6 L181,6 A3.75,3.75 0 0 1 183.5,8.5 L190.5,28.4063 L289,28.4063 A2.5,2.5 0 0 1 291.5,30.9063 L291.5,169.5 A2.5,2.5 0 0 1 289,172 L150,172 A2.5,2.5 0 0 1 147.5,169.5 L147.5,8.5 A2.5,2.5 0 0 1 150,6 " fill="none" style="stroke:#000000;stroke-width:1.5;"/><line style="stroke:#000000;stroke-width:1.5;" x1="147.5" x2="190.5" y1="28.4063" y2="28.4063"/><text fill="#000000" font-family="sans-serif" font-size="14" font-weight="bold" lengthAdjust="spacing" textLength="30" x="151.5" y="20.9883">scan</text></g><!--cluster boundaries--><g id="cluster_boundaries"><path d="M174,49 L247,49 A3.75,3.75 0 0 1 249.5,51.5 L256.5,71.4063 L265,71.4063 A2.5,2.5 0 0 1 267.5,73.9063 L267.5,145.5 A2.5,2.5 0 0 1 265,148 L174,148 A2.5,2.5 0 0 1 171.5,145.5 L171.5,51.5 A2.5,2.5 0 0 1 174,49 " fill="none" style="stroke:#000000;stroke-width:1.5;"/><line style="stroke:#000000;stroke-width:1.5;" x1="171.5" x2="256.5" y1="71.4063" y2="71.4063"/><text fill="#000000" font-family="sans-serif" font-size="14" font-weight="bold" lengthAdjust="spacing" textLength="72" x="175.5" y="63.9883">boundaries</text></g><!--class Scan--><g id="elem_Scan"><rect fill="#F1F1F1" height="48" id="Scan" rx="2.5" ry="2.5" style="stroke:#181818;stroke-width:0.5;" width="63" x="188" y="84"/><ellipse cx="203" cy="100" fill="#ADD1B2" rx="11" ry="11" style="stroke:#181818;stroke-width:1.0;"/><path d="M203.0469,106.2031 C204.5469,106.2031 205.7813,105.6406 206.6875,104.5781 L205.3125,103.0625 C204.7656,103.6563 204.1094,104.0469 203.3125,104.0469 C201.6406,104.0469 200.4844,102.7188 200.4844,100.4375 C200.4844,98.2188 201.6406,96.875 203.2031,96.875 C204.0156,96.875 204.6094,97.1875 205.1406,97.6719 L206.5156,96.125 C205.7656,95.3906 204.6094,94.7188 203.2031,94.7188 C200.25,94.7188 197.9219,96.8594 197.9219,100.5313 C197.9219,104.25 200.2969,106.2031 203.0469,106.2031 Z " fill="#000000"/><text fill="#000000" font-family="sans-serif" font-size="14" lengthAdjust="spacing" textLength="31" x="217" y="104.7852">Scan</text><line style="stroke:#181818;stroke-width:0.5;" x1="189" x2="250" y1="116" y2="116"/><line style="stroke:#181818;stroke-width:0.5;" x1="189" x2="250" y1="124" y2="124"/></g><!--class File--><g id="elem_File"><rect codeLine="2" fill="#F1F1F1" height="162.8438" id="File" rx="2.5" ry="2.5" style="stroke:#181818;stroke-width:0.5;" width="251" x="360" y="26.5"/><ellipse cx="470.75" cy="42.5" fill="#ADD1B2" rx="11" ry="11" style="stroke:#181818;stroke-width:1.0;"/><path d="M470.7969,48.7031 C472.2969,48.7031 473.5313,48.1406 474.4375,47.0781 L473.0625,45.5625 C472.5156,46.1563 471.8594,46.5469 471.0625,46.5469 C469.3906,46.5469 468.2344,45.2188 468.2344,42.9375 C468.2344,40.7188 469.3906,39.375 470.9531,39.375 C471.7656,39.375 472.3594,39.6875 472.8906,40.1719 L474.2656,38.625 C473.5156,37.8906 472.3594,37.2188 470.9531,37.2188 C468,37.2188 465.6719,39.3594 465.6719,43.0313 C465.6719,46.75 468.0469,48.7031 470.7969,48.7031 Z " fill="#000000"/><text fill="#000000" font-family="sans-serif" font-size="14" lengthAdjust="spacing" textLength="21" x="491.25" y="47.2852">File</text><line style="stroke:#181818;stroke-width:0.5;" x1="361" x2="610" y1="58.5" y2="58.5"/><text fill="#000000" font-family="sans-serif" font-size="14" lengthAdjust="spacing" textLength="131" x="366" y="75.4883">metadata : Metadata</text><text fill="#000000" font-family="sans-serif" font-size="14" lengthAdjust="spacing" textLength="185" x="366" y="91.8945">log_messages : LogMessage[]</text><text fill="#000000" font-family="sans-serif" font-size="14" lengthAdjust="spacing" textLength="70" x="366" y="108.3008">scan : Scan</text><text fill="#000000" font-family="sans-serif" font-size="14" lengthAdjust="spacing" textLength="78" x="366" y="124.707">data : Data{}</text><text fill="#000000" font-family="sans-serif" font-size="14" lengthAdjust="spacing" textLength="115" x="366" y="141.1133">snapshots : Data{}</text><text fill="#000000" font-family="sans-serif" font-size="14" lengthAdjust="spacing" textLength="105" x="366" y="157.5195">monitors : Data{}</text><text fill="#000000" font-family="sans-serif" font-size="14" lengthAdjust="spacing" textLength="239" x="366" y="173.9258">position_timestamps : TimestampData</text><line style="stroke:#181818;stroke-width:0.5;" x1="361" x2="610" y1="181.3438" y2="181.3438"/></g><!--class Data--><g id="elem_Data"><rect fill="#F1F1F1" height="48" id="Data" rx="2.5" ry="2.5" style="stroke:#181818;stroke-width:0.5;" width="62" x="309.5" y="348"/><ellipse cx="324.5" cy="364" fill="#ADD1B2" rx="11" ry="11" style="stroke:#181818;stroke-width:1.0;"/><path d="M324.5469,370.2031 C326.0469,370.2031 327.2813,369.6406 328.1875,368.5781 L326.8125,367.0625 C326.2656,367.6563 325.6094,368.0469 324.8125,368.0469 C323.1406,368.0469 321.9844,366.7188 321.9844,364.4375 C321.9844,362.2188 323.1406,360.875 324.7031,360.875 C325.5156,360.875 326.1094,361.1875 326.6406,361.6719 L328.0156,360.125 C327.2656,359.3906 326.1094,358.7188 324.7031,358.7188 C321.75,358.7188 319.4219,360.8594 319.4219,364.5313 C319.4219,368.25 321.7969,370.2031 324.5469,370.2031 Z " fill="#000000"/><text fill="#000000" font-family="sans-serif" font-size="14" lengthAdjust="spacing" textLength="30" x="338.5" y="368.7852">Data</text><line style="stroke:#181818;stroke-width:0.5;" x1="310.5" x2="370.5" y1="380" y2="380"/><line style="stroke:#181818;stroke-width:0.5;" x1="310.5" x2="370.5" y1="388" y2="388"/></g><g id="elem_GMN5"><path d="M285,554.5 L285,594.9688 A0,0 0 0 0 285,594.9688 L396,594.9688 A0,0 0 0 0 396,594.9688 L396,564.5 L386,554.5 L344.5,554.5 L340.5,396.39 L336.5,554.5 L285,554.5 A0,0 0 0 0 285,554.5 " fill="#FEFFDD" style="stroke:#181818;stroke-width:0.5;"/><path d="M386,554.5 L386,564.5 L396,564.5 L386,554.5 " fill="#FEFFDD" style="stroke:#181818;stroke-width:0.5;"/><text fill="#000000" font-family="sans-serif" font-size="13" lengthAdjust="spacing" textLength="90" x="291" y="571.5605">See diagram for</text><text fill="#000000" font-family="sans-serif" font-size="13" lengthAdjust="spacing" textLength="73" x="291" y="586.7949">data module.</text></g><!--class Metadata--><g id="elem_Metadata"><rect codeLine="15" fill="#F1F1F1" height="244.875" id="Metadata" rx="2.5" ry="2.5" style="stroke:#181818;stroke-width:0.5;" width="261" x="407" y="249.5"/><ellipse cx="502.75" cy="265.5" fill="#ADD1B2" rx="11" ry="11" style="stroke:#181818;stroke-width:1.0;"/><path d="M502.7969,271.7031 C504.2969,271.7031 505.5313,271.1406 506.4375,270.0781 L505.0625,268.5625 C504.5156,269.1563 503.8594,269.5469 503.0625,269.5469 C501.3906,269.5469 500.2344,268.2188 500.2344,265.9375 C500.2344,263.7188 501.3906,262.375 502.9531,262.375 C503.7656,262.375 504.3594,262.6875 504.8906,263.1719 L506.2656,261.625 C505.5156,260.8906 504.3594,260.2188 502.9531,260.2188 C500,260.2188 497.6719,262.3594 497.6719,266.0313 C497.6719,269.75 500.0469,271.7031 502.7969,271.7031 Z " fill="#000000"/><text fill="#000000" font-family="sans-serif" font-size="14" lengthAdjust="spacing" textLength="61" x="523.25" y="270.2852">Metadata</text><line style="stroke:#181818;stroke-width:0.5;" x1="408" x2="667" y1="281.5" y2="281.5"/><text fill="#000000" font-family="sans-serif" font-size="14" lengthAdjust="spacing" textLength="98" x="413" y="298.4883">filename : string</text><text fill="#000000" font-family="sans-serif" font-size="14" lengthAdjust="spacing" textLength="133" x="413" y="314.8945">eveh5_version : string</text><text fill="#000000" font-family="sans-serif" font-size="14" lengthAdjust="spacing" textLength="117" x="413" y="331.3008">eve_version : string</text><text fill="#000000" font-family="sans-serif" font-size="14" lengthAdjust="spacing" textLength="115" x="413" y="347.707">xml_version: string</text><text fill="#000000" font-family="sans-serif" font-size="14" lengthAdjust="spacing" textLength="181" x="413" y="364.1133">measurement_station : string</text><text fill="#000000" font-family="sans-serif" font-size="14" lengthAdjust="spacing" textLength="94" x="413" y="380.5195">start : datetime</text><text fill="#000000" font-family="sans-serif" font-size="14" lengthAdjust="spacing" textLength="87" x="413" y="396.9258">end : datetime</text><text fill="#000000" font-family="sans-serif" font-size="14" lengthAdjust="spacing" textLength="114" x="413" y="413.332">description : string</text><text fill="#000000" font-family="sans-serif" font-size="14" lengthAdjust="spacing" textLength="124" x="413" y="429.7383">simulation : boolean</text><text fill="#000000" font-family="sans-serif" font-size="14" lengthAdjust="spacing" textLength="133" x="413" y="446.1445">preferred_axis : string</text><text fill="#000000" font-family="sans-serif" font-size="14" lengthAdjust="spacing" textLength="157" x="413" y="462.5508">preferred_channel : string</text><text fill="#000000" font-family="sans-serif" font-size="14" lengthAdjust="spacing" textLength="249" x="413" y="478.957">preferred_normalisation_channel : string</text><line style="stroke:#181818;stroke-width:0.5;" x1="408" x2="667" y1="486.375" y2="486.375"/></g><!--class LogMessage--><g id="elem_LogMessage"><rect codeLine="30" fill="#F1F1F1" height="80.8125" id="LogMessage" rx="2.5" ry="2.5" style="stroke:#181818;stroke-width:0.5;" width="143" x="703" y="331.5"/><ellipse cx="731.95" cy="347.5" fill="#ADD1B2" rx="11" ry="11" style="stroke:#181818;stroke-width:1.0;"/><path d="M731.9969,353.7031 C733.4969,353.7031 734.7313,353.1406 735.6375,352.0781 L734.2625,350.5625 C733.7156,351.1563 733.0594,351.5469 732.2625,351.5469 C730.5906,351.5469 729.4344,350.2188 729.4344,347.9375 C729.4344,345.7188 730.5906,344.375 732.1531,344.375 C732.9656,344.375 733.5594,344.6875 734.0906,345.1719 L735.4656,343.625 C734.7156,342.8906 733.5594,342.2188 732.1531,342.2188 C729.2,342.2188 726.8719,344.3594 726.8719,348.0313 C726.8719,351.75 729.2469,353.7031 731.9969,353.7031 Z " fill="#000000"/><text fill="#000000" font-family="sans-serif" font-size="14" lengthAdjust="spacing" textLength="80" x="749.05" y="352.2852">LogMessage</text><line style="stroke:#181818;stroke-width:0.5;" x1="704" x2="845" y1="363.5" y2="363.5"/><text fill="#000000" font-family="sans-serif" font-size="14" lengthAdjust="spacing" textLength="131" x="709" y="380.4883">timestamp : datetime</text><text fill="#000000" font-family="sans-serif" font-size="14" lengthAdjust="spacing" textLength="101" x="709" y="396.8945">message : string</text><line style="stroke:#181818;stroke-width:0.5;" x1="704" x2="845" y1="404.3125" y2="404.3125"/></g><!--class Scan--><g id="elem_Scan"><rect codeLine="35" fill="#F1F1F1" height="80.8125" id="Scan" rx="2.5" ry="2.5" style="stroke:#181818;stroke-width:0.5;" width="110" x="164.5" y="331.5"/><ellipse cx="200.65" cy="347.5" fill="#ADD1B2" rx="11" ry="11" style="stroke:#181818;stroke-width:1.0;"/><path d="M200.6969,353.7031 C202.1969,353.7031 203.4313,353.1406 204.3375,352.0781 L202.9625,350.5625 C202.4156,351.1563 201.7594,351.5469 200.9625,351.5469 C199.2906,351.5469 198.1344,350.2188 198.1344,347.9375 C198.1344,345.7188 199.2906,344.375 200.8531,344.375 C201.6656,344.375 202.2594,344.6875 202.7906,345.1719 L204.1656,343.625 C203.4156,342.8906 202.2594,342.2188 200.8531,342.2188 C197.9,342.2188 195.5719,344.3594 195.5719,348.0313 C195.5719,351.75 197.9469,353.7031 200.6969,353.7031 Z " fill="#000000"/><text fill="#000000" font-family="sans-serif" font-size="14" lengthAdjust="spacing" textLength="31" x="219.35" y="352.2852">Scan</text><line style="stroke:#181818;stroke-width:0.5;" x1="165.5" x2="273.5" y1="363.5" y2="363.5"/><text fill="#000000" font-family="sans-serif" font-size="14" lengthAdjust="spacing" textLength="87" x="170.5" y="380.4883">author : string</text><text fill="#000000" font-family="sans-serif" font-size="14" lengthAdjust="spacing" textLength="98" x="170.5" y="396.8945">filename : string</text><line style="stroke:#181818;stroke-width:0.5;" x1="165.5" x2="273.5" y1="404.3125" y2="404.3125"/></g><g id="elem_GMN15"><path d="M6,88 L6,128.4688 A0,0 0 0 0 6,128.4688 L131,128.4688 A0,0 0 0 0 131,128.4688 L131,112 L187.7,108 L131,104 L131,98 L121,88 L6,88 A0,0 0 0 0 6,88 " fill="#FEFFDD" style="stroke:#181818;stroke-width:0.5;"/><path d="M121,88 L121,98 L131,98 L121,88 " fill="#FEFFDD" style="stroke:#181818;stroke-width:0.5;"/><text fill="#000000" font-family="sans-serif" font-size="13" lengthAdjust="spacing" textLength="97" x="12" y="105.0605">See diagrams for</text><text fill="#000000" font-family="sans-serif" font-size="13" lengthAdjust="spacing" textLength="104" x="12" y="120.2949">scan subpackage.</text></g><!--reverse link File to Data--><g id="link_File_Data"><path codeLine="12" d="M419.3704,199.5557 C406.4904,218.6957 400.23,229.44 389.5,249.5 C371.9,282.39 356.74,323 348.12,347.95 " fill="none" id="File-backto-Data" style="stroke:#181818;stroke-width:1.0;"/><polygon fill="#181818" points="426.07,189.6,419.4017,192.3447,419.3704,199.5557,426.0388,196.811,426.07,189.6" style="stroke:#181818;stroke-width:1.0;"/><text fill="#000000" font-family="sans-serif" font-size="13" lengthAdjust="spacing" textLength="7" x="342.1758" y="336.9559">n</text></g><!--reverse link Scan to Scan--><g id="link_Scan_Scan"><path d="M219.5,150.25 C219.5,195.09 219.5,275.95 219.5,331.36 " fill="none" id="Scan-backto-Scan" style="stroke:#181818;stroke-width:1.0;"/><polygon fill="none" points="219.5,132.25,213.5,150.25,225.5,150.25,219.5,132.25" style="stroke:#181818;stroke-width:1.0;"/></g><!--reverse link File to Metadata--><g id="link_File_Metadata"><path codeLine="41" d="M503.8665,201.5203 C507.5965,220.3103 509.31,228.96 513.31,249.09 " fill="none" id="File-backto-Metadata" style="stroke:#181818;stroke-width:1.0;"/><polygon fill="#181818" points="501.53,189.75,498.7748,196.414,503.8665,201.5203,506.6217,194.8563,501.53,189.75" style="stroke:#181818;stroke-width:1.0;"/></g><!--reverse link File to LogMessage--><g id="link_File_LogMessage"><path codeLine="42" d="M620.7459,194.7829 C646.6259,213.5429 663.08,227.52 685.5,249.5 C710.52,274.03 733.73,306.17 750.17,331.23 " fill="none" id="File-backto-LogMessage" style="stroke:#181818;stroke-width:1.0;"/><polygon fill="#181818" points="611.03,187.74,613.5403,194.5001,620.7459,194.7829,618.2356,188.0228,611.03,187.74" style="stroke:#181818;stroke-width:1.0;"/><text fill="#000000" font-family="sans-serif" font-size="13" lengthAdjust="spacing" textLength="7" x="618.8928" y="189.2146">1</text><text fill="#000000" font-family="sans-serif" font-size="13" lengthAdjust="spacing" textLength="7" x="738.5607" y="320.3308">n</text></g><!--reverse link File to Scan--><g id="link_File_Scan"><path codeLine="43" d="M350.3637,195.5779 C326.1237,213.9879 311.61,227.46 291.5,249.5 C269.28,273.87 250.53,306.17 237.74,331.34 " fill="none" id="File-backto-Scan" style="stroke:#181818;stroke-width:1.0;"/><polygon fill="#181818" points="359.92,188.32,352.7225,188.7635,350.3637,195.5779,357.5611,195.1344,359.92,188.32" style="stroke:#181818;stroke-width:1.0;"/></g><!--SRC=[TLF1ReCm3Btp5H77IQsqmouxJpkjf-ssJSY0IwCbCOfDLQdglyy4AADqN4BUSso_-ALom6nUhKDppen-7WLg433FPZV-9jnHKtXaXWPPkJTgTiFkyplnN45G_5sNj1zplEXolWmH0Le-aF0IzXIiKBn1Ms8hba8XLgiA-BOF-9WsVMHsoRBK-CDcO_AGf-DP845JaWXvxGRHr1QQ2DxiANw5r9MdkdEupR8gYPza3lhtcZ60Hwt64cre4ef7F3mLHuoiFQse-yJ9kubOu1w1kuWUWnGgHbO75OoYa3Q5lVoXJAXleHgvYhQzay3wpas9IoA7ur3QY7kC4Ui2JfQNXsQkEa08wFwZ0qKFpd8gi0w-JFSwMsIqrdMKjq96Nzt9qTl9u4bKFIUBRKlgT8hH8cyJEQI6JWuKbnsl9taPtE5mBmjly62EP67koXQg7srd-yTUrwUGaFmnlvfkLZb7fqVm2m00]--></g></svg>