<?xml version="1.0" encoding="us-ascii" standalone="no"?><svg xmlns="http://www.w3.org/2000/svg" xmlns:xlink="http://www.w3.org/1999/xlink" contentStyleType="text/css" height="600px" preserveAspectRatio="none" style="width:935px;height:600px;background:#FFFFFF;" version="1.1" viewBox="0 0 935 600" width="935px" zoomAndPan="magnify"><defs/><g><!--cluster scan--><g id="cluster_scan"><path d="M162,6 L198,6 A3.75,3.75 0 0 1 200.5,8.5 L207.5,28.2969 L310,28.2969 A2.5,2.5 0 0 1 312.5,30.7969 L312.5,169.5 A2.5,2.5 0 0 1 310,172 L162,172 A2.5,2.5 0 0 1 159.5,169.5 L159.5,8.5 A2.5,2.5 0 0 1 162,6 " fill="none" style="stroke:#000000;stroke-width:1.5;"/><line style="stroke:#000000;stroke-width:1.5;" x1="159.5" x2="207.5" y1="28.2969" y2="28.2969"/><text fill="#000000" font-family="sans-serif" font-size="14" font-weight="bold" lengthAdjust="spacing" textLength="35" x="163.5" y="20.9951">scan</text></g><!--cluster boundaries--><g id="cluster_boundaries"><path d="M186,49 L276,49 A3.75,3.75 0 0 1 278.5,51.5 L285.5,71.2969 L286,71.2969 A2.5,2.5 0 0 1 288.5,73.7969 L288.5,145.5 A2.5,2.5 0 0 1 286,148 L186,148 A2.5,2.5 0 0 1 183.5,145.5 L183.5,51.5 A2.5,2.5 0 0 1 186,49 " fill="none" style="stroke:#000000;stroke-width:1.5;"/><line style="stroke:#000000;stroke-width:1.5;" x1="183.5" x2="285.5" y1="71.2969" y2="71.2969"/><text fill="#000000" font-family="sans-serif" font-size="14" font-weight="bold" lengthAdjust="spacing" textLength="89" x="187.5" y="63.9951">boundaries</text></g><!--class Scan--><g id="elem_Scan"><rect fill="#F1F1F1" height="48" id="Scan" rx="2.5" ry="2.5" style="stroke:#181818;stroke-width:0.5;" width="67" x="200" y="84"/><ellipse cx="215" cy="100" fill="#ADD1B2" rx="11" ry="11" style="stroke:#181818;stroke-width:1.0;"/><path d="M217.9844,105.6406 Q217.4063,105.9375 216.7656,106.0781 Q216.125,106.2344 215.4219,106.2344 Q212.9063,106.2344 211.5781,104.5938 Q210.2656,102.9375 210.2656,99.8125 Q210.2656,96.6719 211.5781,95.0313 Q212.9063,93.375 215.4219,93.375 Q216.125,93.375 216.7656,93.5313 Q217.4219,93.6719 217.9844,93.9688 L217.9844,96.6875 Q217.3438,96.1094 216.75,95.8438 Q216.1563,95.5781 215.5313,95.5781 Q214.1875,95.5781 213.5,96.6406 Q212.8125,97.7031 212.8125,99.8125 Q212.8125,101.9063 213.5,102.9844 Q214.1875,104.0469 215.5313,104.0469 Q216.1563,104.0469 216.75,103.7813 Q217.3438,103.5 217.9844,102.9219 L217.9844,105.6406 Z " fill="#000000"/><text fill="#000000" font-family="sans-serif" font-size="14" lengthAdjust="spacing" textLength="35" x="229" y="104.8467">Scan</text><line style="stroke:#181818;stroke-width:0.5;" x1="201" x2="266" y1="116" y2="116"/><line style="stroke:#181818;stroke-width:0.5;" x1="201" x2="266" y1="124" y2="124"/></g><!--class File--><g id="elem_File"><rect codeLine="2" fill="#F1F1F1" height="162.0781" id="File" rx="2.5" ry="2.5" style="stroke:#181818;stroke-width:0.5;" width="285" x="382" y="27"/><ellipse cx="507.75" cy="43" fill="#ADD1B2" rx="11" ry="11" style="stroke:#181818;stroke-width:1.0;"/><path d="M510.7344,48.6406 Q510.1563,48.9375 509.5156,49.0781 Q508.875,49.2344 508.1719,49.2344 Q505.6563,49.2344 504.3281,47.5938 Q503.0156,45.9375 503.0156,42.8125 Q503.0156,39.6719 504.3281,38.0313 Q505.6563,36.375 508.1719,36.375 Q508.875,36.375 509.5156,36.5313 Q510.1719,36.6719 510.7344,36.9688 L510.7344,39.6875 Q510.0938,39.1094 509.5,38.8438 Q508.9063,38.5781 508.2813,38.5781 Q506.9375,38.5781 506.25,39.6406 Q505.5625,40.7031 505.5625,42.8125 Q505.5625,44.9063 506.25,45.9844 Q506.9375,47.0469 508.2813,47.0469 Q508.9063,47.0469 509.5,46.7813 Q510.0938,46.5 510.7344,45.9219 L510.7344,48.6406 Z " fill="#000000"/><text fill="#000000" font-family="sans-serif" font-size="14" lengthAdjust="spacing" textLength="25" x="528.25" y="47.8467">File</text><line style="stroke:#181818;stroke-width:0.5;" x1="383" x2="666" y1="59" y2="59"/><text fill="#000000" font-family="sans-serif" font-size="14" lengthAdjust="spacing" textLength="149" x="388" y="75.9951">metadata : Metadata</text><text fill="#000000" font-family="sans-serif" font-size="14" lengthAdjust="spacing" textLength="211" x="388" y="92.292">log_messages : LogMessage[]</text><text fill="#000000" font-family="sans-serif" font-size="14" lengthAdjust="spacing" textLength="81" x="388" y="108.5889">scan : Scan</text><text fill="#000000" font-family="sans-serif" font-size="14" lengthAdjust="spacing" textLength="89" x="388" y="124.8857">data : Data[]</text><text fill="#000000" font-family="sans-serif" font-size="14" lengthAdjust="spacing" textLength="128" x="388" y="141.1826">snapshots : Data[]</text><text fill="#000000" font-family="sans-serif" font-size="14" lengthAdjust="spacing" textLength="120" x="388" y="157.4795">monitors : Data[]</text><text fill="#000000" font-family="sans-serif" font-size="14" lengthAdjust="spacing" textLength="273" x="388" y="173.7764">position_timestamps : TimestampData</text><line style="stroke:#181818;stroke-width:0.5;" x1="383" x2="666" y1="181.0781" y2="181.0781"/></g><!--class Data--><g id="elem_Data"><rect fill="#F1F1F1" height="48" id="Data" rx="2.5" ry="2.5" style="stroke:#181818;stroke-width:0.5;" width="66" x="324.5" y="347"/><ellipse cx="339.5" cy="363" fill="#ADD1B2" rx="11" ry="11" style="stroke:#181818;stroke-width:1.0;"/><path d="M342.4844,368.6406 Q341.9063,368.9375 341.2656,369.0781 Q340.625,369.2344 339.9219,369.2344 Q337.4063,369.2344 336.0781,367.5938 Q334.7656,365.9375 334.7656,362.8125 Q334.7656,359.6719 336.0781,358.0313 Q337.4063,356.375 339.9219,356.375 Q340.625,356.375 341.2656,356.5313 Q341.9219,356.6719 342.4844,356.9688 L342.4844,359.6875 Q341.8438,359.1094 341.25,358.8438 Q340.6563,358.5781 340.0313,358.5781 Q338.6875,358.5781 338,359.6406 Q337.3125,360.7031 337.3125,362.8125 Q337.3125,364.9063 338,365.9844 Q338.6875,367.0469 340.0313,367.0469 Q340.6563,367.0469 341.25,366.7813 Q341.8438,366.5 342.4844,365.9219 L342.4844,368.6406 Z " fill="#000000"/><text fill="#000000" font-family="sans-serif" font-size="14" lengthAdjust="spacing" textLength="34" x="353.5" y="367.8467">Data</text><line style="stroke:#181818;stroke-width:0.5;" x1="325.5" x2="389.5" y1="379" y2="379"/><line style="stroke:#181818;stroke-width:0.5;" x1="325.5" x2="389.5" y1="387" y2="387"/></g><g id="elem_GMN5"><path d="M295,553 L295,593.2656 A0,0 0 0 0 295,593.2656 L420,593.2656 A0,0 0 0 0 420,593.2656 L420,563 L410,553 L361.5,553 L357.5,395.33 L353.5,553 L295,553 A0,0 0 0 0 295,553 " fill="#FEFFDD" style="stroke:#181818;stroke-width:0.5;"/><path d="M410,553 L410,563 L420,563 L410,553 " fill="#FEFFDD" style="stroke:#181818;stroke-width:0.5;"/><text fill="#000000" font-family="sans-serif" font-size="13" lengthAdjust="spacing" textLength="104" x="301" y="570.0669">See diagram for</text><text fill="#000000" font-family="sans-serif" font-size="13" lengthAdjust="spacing" textLength="86" x="301" y="585.1997">data module.</text></g><!--class Metadata--><g id="elem_Metadata"><rect codeLine="15" fill="#F1F1F1" height="243.5625" id="Metadata" rx="2.5" ry="2.5" style="stroke:#181818;stroke-width:0.5;" width="302" x="425.5" y="249"/><ellipse cx="538.75" cy="265" fill="#ADD1B2" rx="11" ry="11" style="stroke:#181818;stroke-width:1.0;"/><path d="M541.7344,270.6406 Q541.1563,270.9375 540.5156,271.0781 Q539.875,271.2344 539.1719,271.2344 Q536.6563,271.2344 535.3281,269.5938 Q534.0156,267.9375 534.0156,264.8125 Q534.0156,261.6719 535.3281,260.0313 Q536.6563,258.375 539.1719,258.375 Q539.875,258.375 540.5156,258.5313 Q541.1719,258.6719 541.7344,258.9688 L541.7344,261.6875 Q541.0938,261.1094 540.5,260.8438 Q539.9063,260.5781 539.2813,260.5781 Q537.9375,260.5781 537.25,261.6406 Q536.5625,262.7031 536.5625,264.8125 Q536.5625,266.9063 537.25,267.9844 Q537.9375,269.0469 539.2813,269.0469 Q539.9063,269.0469 540.5,268.7813 Q541.0938,268.5 541.7344,267.9219 L541.7344,270.6406 Z " fill="#000000"/><text fill="#000000" font-family="sans-serif" font-size="14" lengthAdjust="spacing" textLength="67" x="559.25" y="269.8467">Metadata</text><line style="stroke:#181818;stroke-width:0.5;" x1="426.5" x2="726.5" y1="281" y2="281"/><text fill="#000000" font-family="sans-serif" font-size="14" lengthAdjust="spacing" textLength="116" x="431.5" y="297.9951">filename : string</text><text fill="#000000" font-family="sans-serif" font-size="14" lengthAdjust="spacing" textLength="156" x="431.5" y="314.292">eveh5_version : string</text><text fill="#000000" font-family="sans-serif" font-size="14" lengthAdjust="spacing" textLength="138" x="431.5" y="330.5889">eve_version : string</text><text fill="#000000" font-family="sans-serif" font-size="14" lengthAdjust="spacing" textLength="134" x="431.5" y="346.8857">xml_version: string</text><text fill="#000000" font-family="sans-serif" font-size="14" lengthAdjust="spacing" textLength="208" x="431.5" y="363.1826">measurement_station : string</text><text fill="#000000" font-family="sans-serif" font-size="14" lengthAdjust="spacing" textLength="109" x="431.5" y="379.4795">start : datetime</text><text fill="#000000" font-family="sans-serif" font-size="14" lengthAdjust="spacing" textLength="104" x="431.5" y="395.7764">end : datetime</text><text fill="#000000" font-family="sans-serif" font-size="14" lengthAdjust="spacing" textLength="132" x="431.5" y="412.0732">description : string</text><text fill="#000000" font-family="sans-serif" font-size="14" lengthAdjust="spacing" textLength="145" x="431.5" y="428.3701">simulation : boolean</text><text fill="#000000" font-family="sans-serif" font-size="14" lengthAdjust="spacing" textLength="156" x="431.5" y="444.667">preferred_axis : string</text><text fill="#000000" font-family="sans-serif" font-size="14" lengthAdjust="spacing" textLength="185" x="431.5" y="460.9639">preferred_channel : string</text><text fill="#000000" font-family="sans-serif" font-size="14" lengthAdjust="spacing" textLength="290" x="431.5" y="477.2607">preferred_normalisation_channel : string</text><line style="stroke:#181818;stroke-width:0.5;" x1="426.5" x2="726.5" y1="484.5625" y2="484.5625"/></g><!--class LogMessage--><g id="elem_LogMessage"><rect codeLine="30" fill="#F1F1F1" height="80.5938" id="LogMessage" rx="2.5" ry="2.5" style="stroke:#181818;stroke-width:0.5;" width="165" x="763" y="330.5"/><ellipse cx="798.25" cy="346.5" fill="#ADD1B2" rx="11" ry="11" style="stroke:#181818;stroke-width:1.0;"/><path d="M801.2344,352.1406 Q800.6563,352.4375 800.0156,352.5781 Q799.375,352.7344 798.6719,352.7344 Q796.1563,352.7344 794.8281,351.0938 Q793.5156,349.4375 793.5156,346.3125 Q793.5156,343.1719 794.8281,341.5313 Q796.1563,339.875 798.6719,339.875 Q799.375,339.875 800.0156,340.0313 Q800.6719,340.1719 801.2344,340.4688 L801.2344,343.1875 Q800.5938,342.6094 800,342.3438 Q799.4063,342.0781 798.7813,342.0781 Q797.4375,342.0781 796.75,343.1406 Q796.0625,344.2031 796.0625,346.3125 Q796.0625,348.4063 796.75,349.4844 Q797.4375,350.5469 798.7813,350.5469 Q799.4063,350.5469 800,350.2813 Q800.5938,350 801.2344,349.4219 L801.2344,352.1406 Z " fill="#000000"/><text fill="#000000" font-family="sans-serif" font-size="14" lengthAdjust="spacing" textLength="88" x="816.75" y="351.3467">LogMessage</text><line style="stroke:#181818;stroke-width:0.5;" x1="764" x2="927" y1="362.5" y2="362.5"/><text fill="#000000" font-family="sans-serif" font-size="14" lengthAdjust="spacing" textLength="153" x="769" y="379.4951">timestamp : datetime</text><text fill="#000000" font-family="sans-serif" font-size="14" lengthAdjust="spacing" textLength="117" x="769" y="395.792">message : string</text><line style="stroke:#181818;stroke-width:0.5;" x1="764" x2="927" y1="403.0938" y2="403.0938"/></g><!--class Scan--><g id="elem_Scan"><rect codeLine="35" fill="#F1F1F1" height="64.2969" id="Scan" rx="2.5" ry="2.5" style="stroke:#181818;stroke-width:0.5;" width="112" x="177.5" y="339"/><ellipse cx="212.75" cy="355" fill="#ADD1B2" rx="11" ry="11" style="stroke:#181818;stroke-width:1.0;"/><path d="M215.7344,360.6406 Q215.1563,360.9375 214.5156,361.0781 Q213.875,361.2344 213.1719,361.2344 Q210.6563,361.2344 209.3281,359.5938 Q208.0156,357.9375 208.0156,354.8125 Q208.0156,351.6719 209.3281,350.0313 Q210.6563,348.375 213.1719,348.375 Q213.875,348.375 214.5156,348.5313 Q215.1719,348.6719 215.7344,348.9688 L215.7344,351.6875 Q215.0938,351.1094 214.5,350.8438 Q213.9063,350.5781 213.2813,350.5781 Q211.9375,350.5781 211.25,351.6406 Q210.5625,352.7031 210.5625,354.8125 Q210.5625,356.9063 211.25,357.9844 Q211.9375,359.0469 213.2813,359.0469 Q213.9063,359.0469 214.5,358.7813 Q215.0938,358.5 215.7344,357.9219 L215.7344,360.6406 Z " fill="#000000"/><text fill="#000000" font-family="sans-serif" font-size="14" lengthAdjust="spacing" textLength="35" x="231.25" y="359.8467">Scan</text><line style="stroke:#181818;stroke-width:0.5;" x1="178.5" x2="288.5" y1="371" y2="371"/><text fill="#000000" font-family="sans-serif" font-size="14" lengthAdjust="spacing" textLength="100" x="183.5" y="387.9951">author : string</text><line style="stroke:#181818;stroke-width:0.5;" x1="178.5" x2="288.5" y1="395.2969" y2="395.2969"/></g><g id="elem_GMN15"><path d="M6,88 L6,128.2656 A0,0 0 0 0 6,128.2656 L143,128.2656 A0,0 0 0 0 143,128.2656 L143,112 L199.96,108 L143,104 L143,98 L133,88 L6,88 A0,0 0 0 0 6,88 " fill="#FEFFDD" style="stroke:#181818;stroke-width:0.5;"/><path d="M133,88 L133,98 L143,98 L133,88 " fill="#FEFFDD" style="stroke:#181818;stroke-width:0.5;"/><text fill="#000000" font-family="sans-serif" font-size="13" lengthAdjust="spacing" textLength="111" x="12" y="105.0669">See diagrams for</text><text fill="#000000" font-family="sans-serif" font-size="13" lengthAdjust="spacing" textLength="116" x="12" y="120.1997">scan subpackage.</text></g><!--reverse link File to Data--><g id="link_File_Data"><path codeLine="12" d="M442.9073,198.4307 C427.5473,217.2707 419.88,228.54 407.5,249 C388.21,280.9 373.11,321.58 364.76,346.71 " fill="none" id="File-backto-Data" style="stroke:#181818;stroke-width:1.0;"/><polygon fill="#181818" points="450.49,189.13,443.5984,191.2528,442.9073,198.4307,449.7989,196.3079,450.49,189.13" style="stroke:#181818;stroke-width:1.0;"/><text fill="#000000" font-family="sans-serif" font-size="13" lengthAdjust="spacing" textLength="8" x="357.5546" y="336.0443">n</text></g><!--reverse link Scan to Scan--><g id="link_Scan_Scan"><path d="M233.5,150.16 C233.5,197.2 233.5,285.92 233.5,338.92 " fill="none" id="Scan-backto-Scan" style="stroke:#181818;stroke-width:1.0;"/><polygon fill="none" points="233.5,132.16,227.5,150.16,239.5,150.16,233.5,132.16" style="stroke:#181818;stroke-width:1.0;"/></g><!--reverse link File to Metadata--><g id="link_File_Metadata"><path codeLine="40" d="M542.8038,200.8489 C546.5638,219.7289 548.31,228.51 552.34,248.75 " fill="none" id="File-backto-Metadata" style="stroke:#181818;stroke-width:1.0;"/><polygon fill="#181818" points="540.46,189.08,537.7089,195.7457,542.8038,200.8489,545.5549,194.1832,540.46,189.08" style="stroke:#181818;stroke-width:1.0;"/></g><!--reverse link File to LogMessage--><g id="link_File_LogMessage"><path codeLine="41" d="M675.758,195.6761 C703.358,213.8761 721.22,227.6 745.5,249 C773,273.24 799.21,305.41 817.89,330.48 " fill="none" id="File-backto-LogMessage" style="stroke:#181818;stroke-width:1.0;"/><polygon fill="#181818" points="665.74,189.07,668.547,195.7124,675.758,195.6761,672.951,189.0337,665.74,189.07" style="stroke:#181818;stroke-width:1.0;"/><text fill="#000000" font-family="sans-serif" font-size="13" lengthAdjust="spacing" textLength="8" x="669.9629" y="209.0276">1</text><text fill="#000000" font-family="sans-serif" font-size="13" lengthAdjust="spacing" textLength="8" x="804.457" y="319.3398">n</text></g><!--reverse link File to Scan--><g id="link_File_Scan"><path codeLine="42" d="M371.8984,193.9446 C345.1584,212.1946 328.61,226.27 306.5,249 C280.76,275.47 260.05,312.64 247.36,338.78 " fill="none" id="File-backto-Scan" style="stroke:#181818;stroke-width:1.0;"/><polygon fill="#181818" points="381.81,187.18,374.5993,187.2585,371.8984,193.9446,379.1091,193.8662,381.81,187.18" style="stroke:#181818;stroke-width:1.0;"/></g><!--SRC=[TLAnReCm4Dtv2YjZfI1rwDAvwjHCxTPMw823MBLzo7T4aQhyUmy38IGfY_5xvtVtx5SvO3Qlrg7vpOn-7WLg433FPZVz9jnHMtXaXXPPkJTgT-FkyplnN45G_5sNj9yqNdIPAm9ql2VXDUmfMA5uXNR4LYo5Ggns5V3TKF0nRuRAx9HbQV27xTPimYOTpm89cf94oEiqYAQsq4Rmfg7u5T9KdkhUOPvbLJ8_snpzDweOmADsOuasj0d50-wVYWD6rfbkgFl4qRkPME4UWVk87eCKQaPk3YeOHI4T2WVxOvjGNqCrSXLjTqV0-jxDmYMHm-bHkeWDneXr0KVBwqCBL-qX17J_qO6Y1sSvDRWjFittkaHaYjRvAQ-DJBcwep74oU1Hr3sdYEKbzVgAqIBdYHobePSznKk1b0E7ZQnIm6CCKbYvBpkeVhHnVX6aS-WJiddSdEEr-5cgKzp_0000]--></g></svg>