<?xml version="1.0" encoding="us-ascii" standalone="no"?><svg xmlns="http://www.w3.org/2000/svg" xmlns:xlink="http://www.w3.org/1999/xlink" contentStyleType="text/css" height="566px" preserveAspectRatio="none" style="width:943px;height:566px;background:#FFFFFF;" version="1.1" viewBox="0 0 943 566" width="943px" zoomAndPan="magnify"><defs/><g><!--class Event--><g id="elem_Event"><rect codeLine="3" fill="#F1F1F1" height="48" id="Event" rx="2.5" ry="2.5" style="stroke:#181818;stroke-width:0.5;" width="72" x="203" y="31.5"/><ellipse cx="218" cy="47.5" fill="#ADD1B2" rx="11" ry="11" style="stroke:#181818;stroke-width:1.0;"/><path d="M220.9844,53.1406 Q220.4063,53.4375 219.7656,53.5781 Q219.125,53.7344 218.4219,53.7344 Q215.9063,53.7344 214.5781,52.0938 Q213.2656,50.4375 213.2656,47.3125 Q213.2656,44.1719 214.5781,42.5313 Q215.9063,40.875 218.4219,40.875 Q219.125,40.875 219.7656,41.0313 Q220.4219,41.1719 220.9844,41.4688 L220.9844,44.1875 Q220.3438,43.6094 219.75,43.3438 Q219.1563,43.0781 218.5313,43.0781 Q217.1875,43.0781 216.5,44.1406 Q215.8125,45.2031 215.8125,47.3125 Q215.8125,49.4063 216.5,50.4844 Q217.1875,51.5469 218.5313,51.5469 Q219.1563,51.5469 219.75,51.2813 Q220.3438,51 220.9844,50.4219 L220.9844,53.1406 Z " fill="#000000"/><text fill="#000000" font-family="sans-serif" font-size="14" lengthAdjust="spacing" textLength="40" x="232" y="52.3467">Event</text><line style="stroke:#181818;stroke-width:0.5;" x1="204" x2="274" y1="63.5" y2="63.5"/><line style="stroke:#181818;stroke-width:0.5;" x1="204" x2="274" y1="71.5" y2="71.5"/></g><!--class DetectorEvent--><g id="elem_DetectorEvent"><rect codeLine="9" fill="#F1F1F1" height="64.2969" id="DetectorEvent" rx="2.5" ry="2.5" style="stroke:#181818;stroke-width:0.5;" width="134" x="7" y="172.5"/><ellipse cx="22" cy="188.5" fill="#ADD1B2" rx="11" ry="11" style="stroke:#181818;stroke-width:1.0;"/><path d="M24.9844,194.1406 Q24.4063,194.4375 23.7656,194.5781 Q23.125,194.7344 22.4219,194.7344 Q19.9063,194.7344 18.5781,193.0938 Q17.2656,191.4375 17.2656,188.3125 Q17.2656,185.1719 18.5781,183.5313 Q19.9063,181.875 22.4219,181.875 Q23.125,181.875 23.7656,182.0313 Q24.4219,182.1719 24.9844,182.4688 L24.9844,185.1875 Q24.3438,184.6094 23.75,184.3438 Q23.1563,184.0781 22.5313,184.0781 Q21.1875,184.0781 20.5,185.1406 Q19.8125,186.2031 19.8125,188.3125 Q19.8125,190.4063 20.5,191.4844 Q21.1875,192.5469 22.5313,192.5469 Q23.1563,192.5469 23.75,192.2813 Q24.3438,192 24.9844,191.4219 L24.9844,194.1406 Z " fill="#000000"/><text fill="#000000" font-family="sans-serif" font-size="14" lengthAdjust="spacing" textLength="102" x="36" y="193.3467">DetectorEvent</text><line style="stroke:#181818;stroke-width:0.5;" x1="8" x2="140" y1="204.5" y2="204.5"/><text fill="#000000" font-family="sans-serif" font-size="14" lengthAdjust="spacing" textLength="66" x="13" y="221.4951">id : string</text><line style="stroke:#181818;stroke-width:0.5;" x1="8" x2="140" y1="228.7969" y2="228.7969"/></g><!--class MonitorEvent--><g id="elem_MonitorEvent"><rect codeLine="13" fill="#F1F1F1" height="80.5938" id="MonitorEvent" rx="2.5" ry="2.5" style="stroke:#181818;stroke-width:0.5;" width="126" x="176" y="164"/><ellipse cx="191" cy="180" fill="#ADD1B2" rx="11" ry="11" style="stroke:#181818;stroke-width:1.0;"/><path d="M193.9844,185.6406 Q193.4063,185.9375 192.7656,186.0781 Q192.125,186.2344 191.4219,186.2344 Q188.9063,186.2344 187.5781,184.5938 Q186.2656,182.9375 186.2656,179.8125 Q186.2656,176.6719 187.5781,175.0313 Q188.9063,173.375 191.4219,173.375 Q192.125,173.375 192.7656,173.5313 Q193.4219,173.6719 193.9844,173.9688 L193.9844,176.6875 Q193.3438,176.1094 192.75,175.8438 Q192.1563,175.5781 191.5313,175.5781 Q190.1875,175.5781 189.5,176.6406 Q188.8125,177.7031 188.8125,179.8125 Q188.8125,181.9063 189.5,182.9844 Q190.1875,184.0469 191.5313,184.0469 Q192.1563,184.0469 192.75,183.7813 Q193.3438,183.5 193.9844,182.9219 L193.9844,185.6406 Z " fill="#000000"/><text fill="#000000" font-family="sans-serif" font-size="14" lengthAdjust="spacing" textLength="94" x="205" y="184.8467">MonitorEvent</text><line style="stroke:#181818;stroke-width:0.5;" x1="177" x2="301" y1="196" y2="196"/><text fill="#000000" font-family="sans-serif" font-size="14" lengthAdjust="spacing" textLength="66" x="182" y="212.9951">id : string</text><text fill="#000000" font-family="sans-serif" font-size="14" lengthAdjust="spacing" textLength="75" x="182" y="229.292">limit : limit</text><line style="stroke:#181818;stroke-width:0.5;" x1="177" x2="301" y1="236.5938" y2="236.5938"/></g><!--class ScheduleEvent--><g id="elem_ScheduleEvent"><rect codeLine="19" fill="#F1F1F1" height="80.5938" id="ScheduleEvent" rx="2.5" ry="2.5" style="stroke:#181818;stroke-width:0.5;" width="183" x="337.5" y="164"/><ellipse cx="372.75" cy="180" fill="#ADD1B2" rx="11" ry="11" style="stroke:#181818;stroke-width:1.0;"/><path d="M375.7344,185.6406 Q375.1563,185.9375 374.5156,186.0781 Q373.875,186.2344 373.1719,186.2344 Q370.6563,186.2344 369.3281,184.5938 Q368.0156,182.9375 368.0156,179.8125 Q368.0156,176.6719 369.3281,175.0313 Q370.6563,173.375 373.1719,173.375 Q373.875,173.375 374.5156,173.5313 Q375.1719,173.6719 375.7344,173.9688 L375.7344,176.6875 Q375.0938,176.1094 374.5,175.8438 Q373.9063,175.5781 373.2813,175.5781 Q371.9375,175.5781 371.25,176.6406 Q370.5625,177.7031 370.5625,179.8125 Q370.5625,181.9063 371.25,182.9844 Q371.9375,184.0469 373.2813,184.0469 Q373.9063,184.0469 374.5,183.7813 Q375.0938,183.5 375.7344,182.9219 L375.7344,185.6406 Z " fill="#000000"/><text fill="#000000" font-family="sans-serif" font-size="14" lengthAdjust="spacing" textLength="106" x="391.25" y="184.8467">ScheduleEvent</text><line style="stroke:#181818;stroke-width:0.5;" x1="338.5" x2="519.5" y1="196" y2="196"/><text fill="#000000" font-family="sans-serif" font-size="14" lengthAdjust="spacing" textLength="127" x="343.5" y="212.9951">incident : Incident</text><text fill="#000000" font-family="sans-serif" font-size="14" lengthAdjust="spacing" textLength="171" x="343.5" y="229.292">scanmodule_id : integer</text><line style="stroke:#181818;stroke-width:0.5;" x1="338.5" x2="519.5" y1="236.5938" y2="236.5938"/></g><!--class Limit--><g id="elem_Limit"><rect codeLine="30" fill="#F1F1F1" height="80.5938" id="Limit" rx="2.5" ry="2.5" style="stroke:#181818;stroke-width:0.5;" width="195" x="141.5" y="305"/><ellipse cx="217.25" cy="321" fill="#ADD1B2" rx="11" ry="11" style="stroke:#181818;stroke-width:1.0;"/><path d="M220.2344,326.6406 Q219.6563,326.9375 219.0156,327.0781 Q218.375,327.2344 217.6719,327.2344 Q215.1563,327.2344 213.8281,325.5938 Q212.5156,323.9375 212.5156,320.8125 Q212.5156,317.6719 213.8281,316.0313 Q215.1563,314.375 217.6719,314.375 Q218.375,314.375 219.0156,314.5313 Q219.6719,314.6719 220.2344,314.9688 L220.2344,317.6875 Q219.5938,317.1094 219,316.8438 Q218.4063,316.5781 217.7813,316.5781 Q216.4375,316.5781 215.75,317.6406 Q215.0625,318.7031 215.0625,320.8125 Q215.0625,322.9063 215.75,323.9844 Q216.4375,325.0469 217.7813,325.0469 Q218.4063,325.0469 219,324.7813 Q219.5938,324.5 220.2344,323.9219 L220.2344,326.6406 Z " fill="#000000"/><text fill="#000000" font-family="sans-serif" font-size="14" lengthAdjust="spacing" textLength="35" x="237.75" y="325.8467">Limit</text><line style="stroke:#181818;stroke-width:0.5;" x1="142.5" x2="335.5" y1="337" y2="337"/><text fill="#000000" font-family="sans-serif" font-size="14" lengthAdjust="spacing" textLength="122" x="147.5" y="353.9951">value : typevalue</text><text fill="#000000" font-family="sans-serif" font-size="14" lengthAdjust="spacing" textLength="183" x="147.5" y="370.292">comparison : Comparison</text><line style="stroke:#181818;stroke-width:0.5;" x1="142.5" x2="335.5" y1="377.5938" y2="377.5938"/></g><!--class Incident--><g id="elem_Incident"><rect codeLine="25" fill="#F1F1F1" height="80.5938" id="Incident" rx="2.5" ry="2.5" style="stroke:#181818;stroke-width:0.5;" width="89" x="384.5" y="305"/><ellipse cx="399.5" cy="321" fill="#EB937F" rx="11" ry="11" style="stroke:#181818;stroke-width:1.0;"/><path d="M403.625,327 L395.8906,327 L395.8906,314.5938 L403.625,314.5938 L403.625,316.75 L398.3438,316.75 L398.3438,319.4375 L403.125,319.4375 L403.125,321.5938 L398.3438,321.5938 L398.3438,324.8438 L403.625,324.8438 L403.625,327 Z " fill="#000000"/><text fill="#000000" font-family="sans-serif" font-size="14" lengthAdjust="spacing" textLength="57" x="413.5" y="325.8467">Incident</text><line style="stroke:#181818;stroke-width:0.5;" x1="385.5" x2="472.5" y1="337" y2="337"/><text fill="#000000" font-family="sans-serif" font-size="14" lengthAdjust="spacing" textLength="34" x="390.5" y="353.9951">Start</text><text fill="#000000" font-family="sans-serif" font-size="14" lengthAdjust="spacing" textLength="27" x="390.5" y="370.292">End</text><line style="stroke:#181818;stroke-width:0.5;" x1="385.5" x2="472.5" y1="377.5938" y2="377.5938"/></g><!--class Comparison--><g id="elem_Comparison"><rect codeLine="36" fill="#F1F1F1" height="113.1875" id="Comparison" rx="2.5" ry="2.5" style="stroke:#181818;stroke-width:0.5;" width="118" x="180" y="446"/><ellipse cx="195" cy="462" fill="#EB937F" rx="11" ry="11" style="stroke:#181818;stroke-width:1.0;"/><path d="M199.125,468 L191.3906,468 L191.3906,455.5938 L199.125,455.5938 L199.125,457.75 L193.8438,457.75 L193.8438,460.4375 L198.625,460.4375 L198.625,462.5938 L193.8438,462.5938 L193.8438,465.8438 L199.125,465.8438 L199.125,468 Z " fill="#000000"/><text fill="#000000" font-family="sans-serif" font-size="14" lengthAdjust="spacing" textLength="86" x="209" y="466.8467">Comparison</text><line style="stroke:#181818;stroke-width:0.5;" x1="181" x2="297" y1="478" y2="478"/><text fill="#000000" font-family="sans-serif" font-size="14" lengthAdjust="spacing" textLength="18" x="186" y="494.9951">eq</text><text fill="#000000" font-family="sans-serif" font-size="14" lengthAdjust="spacing" textLength="18" x="186" y="511.292">ne</text><text fill="#000000" font-family="sans-serif" font-size="14" lengthAdjust="spacing" textLength="14" x="186" y="527.5889">gt</text><text fill="#000000" font-family="sans-serif" font-size="14" lengthAdjust="spacing" textLength="9" x="186" y="543.8857">lt</text><line style="stroke:#181818;stroke-width:0.5;" x1="181" x2="297" y1="551.1875" y2="551.1875"/></g><!--class PauseCondition--><g id="elem_PauseCondition"><rect codeLine="44" fill="#F1F1F1" height="96.8906" id="PauseCondition" rx="2.5" ry="2.5" style="stroke:#181818;stroke-width:0.5;" width="169" x="653.5" y="7"/><ellipse cx="680.65" cy="23" fill="#ADD1B2" rx="11" ry="11" style="stroke:#181818;stroke-width:1.0;"/><path d="M683.6344,28.6406 Q683.0563,28.9375 682.4156,29.0781 Q681.775,29.2344 681.0719,29.2344 Q678.5563,29.2344 677.2281,27.5938 Q675.9156,25.9375 675.9156,22.8125 Q675.9156,19.6719 677.2281,18.0313 Q678.5563,16.375 681.0719,16.375 Q681.775,16.375 682.4156,16.5313 Q683.0719,16.6719 683.6344,16.9688 L683.6344,19.6875 Q682.9938,19.1094 682.4,18.8438 Q681.8063,18.5781 681.1813,18.5781 Q679.8375,18.5781 679.15,19.6406 Q678.4625,20.7031 678.4625,22.8125 Q678.4625,24.9063 679.15,25.9844 Q679.8375,27.0469 681.1813,27.0469 Q681.8063,27.0469 682.4,26.7813 Q682.9938,26.5 683.6344,25.9219 L683.6344,28.6406 Z " fill="#000000"/><text fill="#000000" font-family="sans-serif" font-size="14" lengthAdjust="spacing" textLength="110" x="697.35" y="27.8467">PauseCondition</text><line style="stroke:#181818;stroke-width:0.5;" x1="654.5" x2="821.5" y1="39" y2="39"/><text fill="#000000" font-family="sans-serif" font-size="14" lengthAdjust="spacing" textLength="113" x="659.5" y="55.9951">deviceid : string</text><text fill="#000000" font-family="sans-serif" font-size="14" lengthAdjust="spacing" textLength="77" x="659.5" y="72.292">id : integer</text><text fill="#000000" font-family="sans-serif" font-size="14" lengthAdjust="spacing" textLength="157" x="659.5" y="88.5889">pauselimit : typevalue</text><line style="stroke:#181818;stroke-width:0.5;" x1="654.5" x2="821.5" y1="95.8906" y2="95.8906"/></g><!--class EqualityCondition--><g id="elem_EqualityCondition"><rect codeLine="52" fill="#F1F1F1" height="64.2969" id="EqualityCondition" rx="2.5" ry="2.5" style="stroke:#181818;stroke-width:0.5;" width="157" x="555.5" y="172.5"/><ellipse cx="570.5" cy="188.5" fill="#ADD1B2" rx="11" ry="11" style="stroke:#181818;stroke-width:1.0;"/><path d="M573.4844,194.1406 Q572.9063,194.4375 572.2656,194.5781 Q571.625,194.7344 570.9219,194.7344 Q568.4063,194.7344 567.0781,193.0938 Q565.7656,191.4375 565.7656,188.3125 Q565.7656,185.1719 567.0781,183.5313 Q568.4063,181.875 570.9219,181.875 Q571.625,181.875 572.2656,182.0313 Q572.9219,182.1719 573.4844,182.4688 L573.4844,185.1875 Q572.8438,184.6094 572.25,184.3438 Q571.6563,184.0781 571.0313,184.0781 Q569.6875,184.0781 569,185.1406 Q568.3125,186.2031 568.3125,188.3125 Q568.3125,190.4063 569,191.4844 Q569.6875,192.5469 571.0313,192.5469 Q571.6563,192.5469 572.25,192.2813 Q572.8438,192 573.4844,191.4219 L573.4844,194.1406 Z " fill="#000000"/><text fill="#000000" font-family="sans-serif" font-size="14" lengthAdjust="spacing" textLength="125" x="584.5" y="193.3467">EqualityCondition</text><line style="stroke:#181818;stroke-width:0.5;" x1="556.5" x2="711.5" y1="204.5" y2="204.5"/><text fill="#000000" font-family="sans-serif" font-size="14" lengthAdjust="spacing" textLength="132" x="561.5" y="221.4951">operator : Equality</text><line style="stroke:#181818;stroke-width:0.5;" x1="556.5" x2="711.5" y1="228.7969" y2="228.7969"/></g><!--class InequalityCondition--><g id="elem_InequalityCondition"><rect codeLine="62" fill="#F1F1F1" height="80.5938" id="InequalityCondition" rx="2.5" ry="2.5" style="stroke:#181818;stroke-width:0.5;" width="188" x="748" y="164"/><ellipse cx="771.1" cy="180" fill="#ADD1B2" rx="11" ry="11" style="stroke:#181818;stroke-width:1.0;"/><path d="M774.0844,185.6406 Q773.5063,185.9375 772.8656,186.0781 Q772.225,186.2344 771.5219,186.2344 Q769.0063,186.2344 767.6781,184.5938 Q766.3656,182.9375 766.3656,179.8125 Q766.3656,176.6719 767.6781,175.0313 Q769.0063,173.375 771.5219,173.375 Q772.225,173.375 772.8656,173.5313 Q773.5219,173.6719 774.0844,173.9688 L774.0844,176.6875 Q773.4438,176.1094 772.85,175.8438 Q772.2563,175.5781 771.6313,175.5781 Q770.2875,175.5781 769.6,176.6406 Q768.9125,177.7031 768.9125,179.8125 Q768.9125,181.9063 769.6,182.9844 Q770.2875,184.0469 771.6313,184.0469 Q772.2563,184.0469 772.85,183.7813 Q773.4438,183.5 774.0844,182.9219 L774.0844,185.6406 Z " fill="#000000"/><text fill="#000000" font-family="sans-serif" font-size="14" lengthAdjust="spacing" textLength="138" x="786.9" y="184.8467">InequalityCondition</text><line style="stroke:#181818;stroke-width:0.5;" x1="749" x2="935" y1="196" y2="196"/><text fill="#000000" font-family="sans-serif" font-size="14" lengthAdjust="spacing" textLength="145" x="754" y="212.9951">operator : Inequality</text><text fill="#000000" font-family="sans-serif" font-size="14" lengthAdjust="spacing" textLength="176" x="754" y="229.292">continuelimit : typevalue</text><line style="stroke:#181818;stroke-width:0.5;" x1="749" x2="935" y1="236.5938" y2="236.5938"/></g><!--class Equality--><g id="elem_Equality"><rect codeLine="57" fill="#F1F1F1" height="80.5938" id="Equality" rx="2.5" ry="2.5" style="stroke:#181818;stroke-width:0.5;" width="89" x="589.5" y="305"/><ellipse cx="604.5" cy="321" fill="#EB937F" rx="11" ry="11" style="stroke:#181818;stroke-width:1.0;"/><path d="M608.625,327 L600.8906,327 L600.8906,314.5938 L608.625,314.5938 L608.625,316.75 L603.3438,316.75 L603.3438,319.4375 L608.125,319.4375 L608.125,321.5938 L603.3438,321.5938 L603.3438,324.8438 L608.625,324.8438 L608.625,327 Z " fill="#000000"/><text fill="#000000" font-family="sans-serif" font-size="14" lengthAdjust="spacing" textLength="57" x="618.5" y="325.8467">Equality</text><line style="stroke:#181818;stroke-width:0.5;" x1="590.5" x2="677.5" y1="337" y2="337"/><text fill="#000000" font-family="sans-serif" font-size="14" lengthAdjust="spacing" textLength="18" x="595.5" y="353.9951">eq</text><text fill="#000000" font-family="sans-serif" font-size="14" lengthAdjust="spacing" textLength="18" x="595.5" y="370.292">ne</text><line style="stroke:#181818;stroke-width:0.5;" x1="590.5" x2="677.5" y1="377.5938" y2="377.5938"/></g><!--class Inequality--><g id="elem_Inequality"><rect codeLine="68" fill="#F1F1F1" height="80.5938" id="Inequality" rx="2.5" ry="2.5" style="stroke:#181818;stroke-width:0.5;" width="102" x="791" y="305"/><ellipse cx="806" cy="321" fill="#EB937F" rx="11" ry="11" style="stroke:#181818;stroke-width:1.0;"/><path d="M810.125,327 L802.3906,327 L802.3906,314.5938 L810.125,314.5938 L810.125,316.75 L804.8438,316.75 L804.8438,319.4375 L809.625,319.4375 L809.625,321.5938 L804.8438,321.5938 L804.8438,324.8438 L810.125,324.8438 L810.125,327 Z " fill="#000000"/><text fill="#000000" font-family="sans-serif" font-size="14" lengthAdjust="spacing" textLength="70" x="820" y="325.8467">Inequality</text><line style="stroke:#181818;stroke-width:0.5;" x1="792" x2="892" y1="337" y2="337"/><text fill="#000000" font-family="sans-serif" font-size="14" lengthAdjust="spacing" textLength="14" x="797" y="353.9951">gt</text><text fill="#000000" font-family="sans-serif" font-size="14" lengthAdjust="spacing" textLength="9" x="797" y="370.292">lt</text><line style="stroke:#181818;stroke-width:0.5;" x1="792" x2="892" y1="377.5938" y2="377.5938"/></g><!--reverse link Event to DetectorEvent--><g id="link_Event_DetectorEvent"><path codeLine="5" d="M199.4209,91.7646 C171.3409,116.7846 140.01,144.69 108.93,172.38 " fill="none" id="Event-backto-DetectorEvent" style="stroke:#181818;stroke-width:1.0;"/><polygon fill="none" points="212.86,79.79,195.4294,87.2849,203.4124,96.2443,212.86,79.79" style="stroke:#181818;stroke-width:1.0;"/></g><!--reverse link Event to MonitorEvent--><g id="link_Event_MonitorEvent"><path codeLine="6" d="M239,97.79 C239,120.38 239,137.08 239,163.99 " fill="none" id="Event-backto-MonitorEvent" style="stroke:#181818;stroke-width:1.0;"/><polygon fill="none" points="239,79.79,233,97.79,245,97.79,239,79.79" style="stroke:#181818;stroke-width:1.0;"/></g><!--reverse link Event to ScheduleEvent--><g id="link_Event_ScheduleEvent"><path codeLine="7" d="M283.3451,90.8065 C312.5351,113.3965 343.16,137.08 377.94,163.99 " fill="none" id="Event-backto-ScheduleEvent" style="stroke:#181818;stroke-width:1.0;"/><polygon fill="none" points="269.11,79.79,279.6729,95.5515,287.0172,86.0614,269.11,79.79" style="stroke:#181818;stroke-width:1.0;"/></g><!--reverse link MonitorEvent to Limit--><g id="link_MonitorEvent_Limit"><path codeLine="17" d="M239,257.33 C239,275.94 239,286.05 239,304.66 " fill="none" id="MonitorEvent-backto-Limit" style="stroke:#181818;stroke-width:1.0;"/><polygon fill="#181818" points="239,245.33,235,251.33,239,257.33,243,251.33,239,245.33" style="stroke:#181818;stroke-width:1.0;"/></g><!--reverse link ScheduleEvent to Incident--><g id="link_ScheduleEvent_Incident"><path codeLine="23" d="M429,257.33 C429,275.94 429,286.05 429,304.66 " fill="none" id="ScheduleEvent-backto-Incident" style="stroke:#181818;stroke-width:1.0;"/><polygon fill="#181818" points="429,245.33,425,251.33,429,257.33,433,251.33,429,245.33" style="stroke:#181818;stroke-width:1.0;"/></g><!--reverse link Limit to Comparison--><g id="link_Limit_Comparison"><path codeLine="34" d="M239,398.01 C239,416.22 239,426.15 239,445.98 " fill="none" id="Limit-backto-Comparison" style="stroke:#181818;stroke-width:1.0;"/><polygon fill="#181818" points="239,386.01,235,392.01,239,398.01,243,392.01,239,386.01" style="stroke:#181818;stroke-width:1.0;"/></g><!--reverse link PauseCondition to EqualityCondition--><g id="link_PauseCondition_EqualityCondition"><path codeLine="49" d="M693.837,118.9265 C678.067,141.2265 670.12,152.45 656.13,172.21 " fill="none" id="PauseCondition-backto-EqualityCondition" style="stroke:#181818;stroke-width:1.0;"/><polygon fill="none" points="704.23,104.23,688.9382,115.4621,698.7359,122.3908,704.23,104.23" style="stroke:#181818;stroke-width:1.0;"/></g><!--reverse link PauseCondition to InequalityCondition--><g id="link_PauseCondition_InequalityCondition"><path codeLine="50" d="M782.1659,118.9244 C795.8059,138.2044 800.97,145.5 813.97,163.88 " fill="none" id="PauseCondition-backto-InequalityCondition" style="stroke:#181818;stroke-width:1.0;"/><polygon fill="none" points="771.77,104.23,777.2677,122.3897,787.064,115.4591,771.77,104.23" style="stroke:#181818;stroke-width:1.0;"/></g><!--reverse link EqualityCondition to Equality--><g id="link_EqualityCondition_Equality"><path codeLine="55" d="M634,248.69 C634,268.87 634,283.3 634,304.94 " fill="none" id="EqualityCondition-backto-Equality" style="stroke:#181818;stroke-width:1.0;"/><polygon fill="#181818" points="634,236.69,630,242.69,634,248.69,638,242.69,634,236.69" style="stroke:#181818;stroke-width:1.0;"/></g><!--reverse link InequalityCondition to Inequality--><g id="link_InequalityCondition_Inequality"><path codeLine="66" d="M842,257.33 C842,275.94 842,286.05 842,304.66 " fill="none" id="InequalityCondition-backto-Inequality" style="stroke:#181818;stroke-width:1.0;"/><polygon fill="#181818" points="842,245.33,838,251.33,842,257.33,846,251.33,842,245.33" style="stroke:#181818;stroke-width:1.0;"/></g><!--SRC=[RLBBQiCm4BpxAtGh1DBSGszf3e4M0lc08gJ5MP3NZXw1qERVgvTbAxOlqkxEpentzNQrTZ3xtMvGdAphrBlekvrGt9YjHDvgtZLD3Ddn3cJPR_DiqktZRxjbds11s5x7rBpmtHEkvI_Y2j8fI8LCNR5u2UO_b6pFZDL8hPVCm3dh2Yx42ZkqFXLFtrcrRBo3hrZ8X9MTaP44oX3ksIbVOzu8JbqVq3zH5Cb22zfhr2n1f3GsGAuhOLQuMAuJvv7az7VHMORSkNBWHUnZW7YFMR-SWMiqFVdIeGIU8lK6wLawYK-9p0stU53YR9CJ5OOrEZbpP-3GaqIBfKt27GMyphiQHKWCeNVSmcJ_sRoGnkTml3ckq3vAUXLr8bZWnbVvMiXc-m4qztlt7aP8UBaBz6Pc8izh31VJAejQyREKdK1vTMIHtEfarlWsrN-NTmIrkVdo_W40]--></g></svg>