<?xml version="1.0" encoding="us-ascii" standalone="no"?><svg xmlns="http://www.w3.org/2000/svg" xmlns:xlink="http://www.w3.org/1999/xlink" contentStyleType="text/css" height="1111px" preserveAspectRatio="none" style="width:1686px;height:1111px;background:#FFFFFF;" version="1.1" viewBox="0 0 1686 1111" width="1686px" zoomAndPan="magnify"><defs/><g><!--class Data--><g id="elem_Data"><rect codeLine="3" fill="#F1F1F1" height="113.1875" id="Data" rx="2.5" ry="2.5" style="stroke:#181818;stroke-width:0.5;" width="190" x="948.5" y="35"/><ellipse cx="1022.25" cy="51" fill="#ADD1B2" rx="11" ry="11" style="stroke:#181818;stroke-width:1.0;"/><path d="M1025.2344,56.6406 Q1024.6563,56.9375 1024.0156,57.0781 Q1023.375,57.2344 1022.6719,57.2344 Q1020.1563,57.2344 1018.8281,55.5938 Q1017.5156,53.9375 1017.5156,50.8125 Q1017.5156,47.6719 1018.8281,46.0313 Q1020.1563,44.375 1022.6719,44.375 Q1023.375,44.375 1024.0156,44.5313 Q1024.6719,44.6719 1025.2344,44.9688 L1025.2344,47.6875 Q1024.5938,47.1094 1024,46.8438 Q1023.4063,46.5781 1022.7813,46.5781 Q1021.4375,46.5781 1020.75,47.6406 Q1020.0625,48.7031 1020.0625,50.8125 Q1020.0625,52.9063 1020.75,53.9844 Q1021.4375,55.0469 1022.7813,55.0469 Q1023.4063,55.0469 1024,54.7813 Q1024.5938,54.5 1025.2344,53.9219 L1025.2344,56.6406 Z " fill="#000000"/><text fill="#000000" font-family="sans-serif" font-size="14" lengthAdjust="spacing" textLength="34" x="1042.75" y="55.8467">Data</text><line style="stroke:#181818;stroke-width:0.5;" x1="949.5" x2="1137.5" y1="67" y2="67"/><text fill="#000000" font-family="sans-serif" font-size="14" lengthAdjust="spacing" textLength="149" x="954.5" y="83.9951">metadata : Metadata</text><text fill="#000000" font-family="sans-serif" font-size="14" lengthAdjust="spacing" textLength="130" x="954.5" y="100.292">_data : np.ndarray</text><text fill="#000000" font-family="sans-serif" font-size="14" lengthAdjust="spacing" textLength="178" x="954.5" y="116.5889">_importer : DataImporter</text><line style="stroke:#181818;stroke-width:0.5;" x1="949.5" x2="1137.5" y1="123.8906" y2="123.8906"/><text fill="#000000" font-family="sans-serif" font-size="14" lengthAdjust="spacing" textLength="42" x="954.5" y="140.8857">data()</text></g><path d="M491.5,6 L491.5,167.3281 A0,0 0 0 0 491.5,167.3281 L913.5,167.3281 A0,0 0 0 0 913.5,167.3281 L913.5,90.6641 L952.5,95.4453 L913.5,82.6641 L913.5,16 L903.5,6 L491.5,6 A0,0 0 0 0 491.5,6 " fill="#FEFFDD" style="stroke:#181818;stroke-width:0.5;"/><path d="M903.5,6 L903.5,16 L913.5,16 L903.5,6 " fill="#FEFFDD" style="stroke:#181818;stroke-width:0.5;"/><text fill="#000000" font-family="sans-serif" font-size="13" lengthAdjust="spacing" textLength="337" x="497.5" y="23.0669">"_data" usually contains a 1D array and is accessed</text><text fill="#000000" font-family="sans-serif" font-size="13" lengthAdjust="spacing" textLength="333" x="497.5" y="38.1997">via the data() getter method (Python property) that</text><text fill="#000000" font-family="sans-serif" font-size="13" lengthAdjust="spacing" textLength="331" x="497.5" y="53.3325">calls the DataImporter on first access if necessary.</text><text fill="#000000" font-family="sans-serif" font-size="13" lengthAdjust="spacing" textLength="8" x="497.5" y="68.4653">&#160;</text><text fill="#000000" font-family="sans-serif" font-size="13" lengthAdjust="spacing" textLength="322" x="497.5" y="83.5981">For individual channel values see derived classes</text><text fill="#000000" font-family="sans-serif" font-size="13" lengthAdjust="spacing" textLength="308" x="497.5" y="98.731">AverageChannelData and IntervalChannelData.</text><text fill="#000000" font-family="sans-serif" font-size="13" lengthAdjust="spacing" textLength="8" x="497.5" y="113.8638">&#160;</text><text fill="#000000" font-family="sans-serif" font-size="13" lengthAdjust="spacing" textLength="362" x="497.5" y="128.9966">ArrayChannelData and AreaChannelData are somewhat</text><text fill="#000000" font-family="sans-serif" font-size="13" lengthAdjust="spacing" textLength="401" x="497.5" y="144.1294">special as they contain either 2D data or a list of data objects</text><text fill="#000000" font-family="sans-serif" font-size="13" lengthAdjust="spacing" textLength="193" x="497.5" y="159.2622">(in case of images and alike).</text><!--class DataImporter--><g id="elem_DataImporter"><rect codeLine="22" fill="#F1F1F1" height="80.5938" id="DataImporter" rx="2.5" ry="2.5" style="stroke:#181818;stroke-width:0.5;" width="128" x="1173.5" y="51"/><ellipse cx="1188.5" cy="67" fill="#ADD1B2" rx="11" ry="11" style="stroke:#181818;stroke-width:1.0;"/><path d="M1191.4844,72.6406 Q1190.9063,72.9375 1190.2656,73.0781 Q1189.625,73.2344 1188.9219,73.2344 Q1186.4063,73.2344 1185.0781,71.5938 Q1183.7656,69.9375 1183.7656,66.8125 Q1183.7656,63.6719 1185.0781,62.0313 Q1186.4063,60.375 1188.9219,60.375 Q1189.625,60.375 1190.2656,60.5313 Q1190.9219,60.6719 1191.4844,60.9688 L1191.4844,63.6875 Q1190.8438,63.1094 1190.25,62.8438 Q1189.6563,62.5781 1189.0313,62.5781 Q1187.6875,62.5781 1187,63.6406 Q1186.3125,64.7031 1186.3125,66.8125 Q1186.3125,68.9063 1187,69.9844 Q1187.6875,71.0469 1189.0313,71.0469 Q1189.6563,71.0469 1190.25,70.7813 Q1190.8438,70.5 1191.4844,69.9219 L1191.4844,72.6406 Z " fill="#000000"/><text fill="#000000" font-family="sans-serif" font-size="14" lengthAdjust="spacing" textLength="96" x="1202.5" y="71.8467">DataImporter</text><line style="stroke:#181818;stroke-width:0.5;" x1="1174.5" x2="1300.5" y1="83" y2="83"/><text fill="#000000" font-family="sans-serif" font-size="14" lengthAdjust="spacing" textLength="48" x="1179.5" y="99.9951">source</text><line style="stroke:#181818;stroke-width:0.5;" x1="1174.5" x2="1300.5" y1="107.2969" y2="107.2969"/><text fill="#000000" font-family="sans-serif" font-size="14" lengthAdjust="spacing" textLength="57" x="1179.5" y="124.292">import()</text></g><!--class Metadata--><g id="elem_Metadata"><rect codeLine="27" fill="#F1F1F1" height="48" id="Metadata" rx="2.5" ry="2.5" style="stroke:#181818;stroke-width:0.5;" width="99" x="610" y="245"/><ellipse cx="625" cy="261" fill="#ADD1B2" rx="11" ry="11" style="stroke:#181818;stroke-width:1.0;"/><path d="M627.9844,266.6406 Q627.4063,266.9375 626.7656,267.0781 Q626.125,267.2344 625.4219,267.2344 Q622.9063,267.2344 621.5781,265.5938 Q620.2656,263.9375 620.2656,260.8125 Q620.2656,257.6719 621.5781,256.0313 Q622.9063,254.375 625.4219,254.375 Q626.125,254.375 626.7656,254.5313 Q627.4219,254.6719 627.9844,254.9688 L627.9844,257.6875 Q627.3438,257.1094 626.75,256.8438 Q626.1563,256.5781 625.5313,256.5781 Q624.1875,256.5781 623.5,257.6406 Q622.8125,258.7031 622.8125,260.8125 Q622.8125,262.9063 623.5,263.9844 Q624.1875,265.0469 625.5313,265.0469 Q626.1563,265.0469 626.75,264.7813 Q627.3438,264.5 627.9844,263.9219 L627.9844,266.6406 Z " fill="#000000"/><text fill="#000000" font-family="sans-serif" font-size="14" lengthAdjust="spacing" textLength="67" x="639" y="265.8467">Metadata</text><line style="stroke:#181818;stroke-width:0.5;" x1="611" x2="708" y1="277" y2="277"/><line style="stroke:#181818;stroke-width:0.5;" x1="611" x2="708" y1="285" y2="285"/></g><g id="elem_GMN7"><path d="M744,249 L744,265 L709.15,269 L744,273 L744,289.2656 A0,0 0 0 0 744,289.2656 L885,289.2656 A0,0 0 0 0 885,289.2656 L885,259 L875,249 L744,249 A0,0 0 0 0 744,249 " fill="#FEFFDD" style="stroke:#181818;stroke-width:0.5;"/><path d="M875,249 L875,259 L885,259 L875,249 " fill="#FEFFDD" style="stroke:#181818;stroke-width:0.5;"/><text fill="#000000" font-family="sans-serif" font-size="13" lengthAdjust="spacing" textLength="104" x="750" y="266.0669">See diagram for</text><text fill="#000000" font-family="sans-serif" font-size="13" lengthAdjust="spacing" textLength="120" x="750" y="281.1997">metadata module.</text></g><!--class MeasureData--><g id="elem_MeasureData"><rect codeLine="34" fill="#F1F1F1" height="64.2969" id="MeasureData" rx="2.5" ry="2.5" style="stroke:#181818;stroke-width:0.5;" width="246" x="920.5" y="237"/><ellipse cx="991.75" cy="253" fill="#ADD1B2" rx="11" ry="11" style="stroke:#181818;stroke-width:1.0;"/><path d="M994.7344,258.6406 Q994.1563,258.9375 993.5156,259.0781 Q992.875,259.2344 992.1719,259.2344 Q989.6563,259.2344 988.3281,257.5938 Q987.0156,255.9375 987.0156,252.8125 Q987.0156,249.6719 988.3281,248.0313 Q989.6563,246.375 992.1719,246.375 Q992.875,246.375 993.5156,246.5313 Q994.1719,246.6719 994.7344,246.9688 L994.7344,249.6875 Q994.0938,249.1094 993.5,248.8438 Q992.9063,248.5781 992.2813,248.5781 Q990.9375,248.5781 990.25,249.6406 Q989.5625,250.7031 989.5625,252.8125 Q989.5625,254.9063 990.25,255.9844 Q990.9375,257.0469 992.2813,257.0469 Q992.9063,257.0469 993.5,256.7813 Q994.0938,256.5 994.7344,255.9219 L994.7344,258.6406 Z " fill="#000000"/><text fill="#000000" font-family="sans-serif" font-size="14" lengthAdjust="spacing" textLength="95" x="1012.25" y="257.8467">MeasureData</text><line style="stroke:#181818;stroke-width:0.5;" x1="921.5" x2="1165.5" y1="269" y2="269"/><text fill="#000000" font-family="sans-serif" font-size="14" lengthAdjust="spacing" textLength="234" x="926.5" y="285.9951">positions : np.ndarray(dtype=int)</text><line style="stroke:#181818;stroke-width:0.5;" x1="921.5" x2="1165.5" y1="293.2969" y2="293.2969"/></g><!--class MonitorData--><g id="elem_MonitorData"><rect codeLine="38" fill="#F1F1F1" height="64.2969" id="MonitorData" rx="2.5" ry="2.5" style="stroke:#181818;stroke-width:0.5;" width="271" x="1202" y="237"/><ellipse cx="1289.25" cy="253" fill="#ADD1B2" rx="11" ry="11" style="stroke:#181818;stroke-width:1.0;"/><path d="M1292.2344,258.6406 Q1291.6563,258.9375 1291.0156,259.0781 Q1290.375,259.2344 1289.6719,259.2344 Q1287.1563,259.2344 1285.8281,257.5938 Q1284.5156,255.9375 1284.5156,252.8125 Q1284.5156,249.6719 1285.8281,248.0313 Q1287.1563,246.375 1289.6719,246.375 Q1290.375,246.375 1291.0156,246.5313 Q1291.6719,246.6719 1292.2344,246.9688 L1292.2344,249.6875 Q1291.5938,249.1094 1291,248.8438 Q1290.4063,248.5781 1289.7813,248.5781 Q1288.4375,248.5781 1287.75,249.6406 Q1287.0625,250.7031 1287.0625,252.8125 Q1287.0625,254.9063 1287.75,255.9844 Q1288.4375,257.0469 1289.7813,257.0469 Q1290.4063,257.0469 1291,256.7813 Q1291.5938,256.5 1292.2344,255.9219 L1292.2344,258.6406 Z " fill="#000000"/><text fill="#000000" font-family="sans-serif" font-size="14" lengthAdjust="spacing" textLength="88" x="1309.75" y="257.8467">MonitorData</text><line style="stroke:#181818;stroke-width:0.5;" x1="1203" x2="1472" y1="269" y2="269"/><text fill="#000000" font-family="sans-serif" font-size="14" lengthAdjust="spacing" textLength="259" x="1208" y="285.9951">milliseconds : np.ndarray(dtype=int)</text><line style="stroke:#181818;stroke-width:0.5;" x1="1203" x2="1472" y1="293.2969" y2="293.2969"/></g><!--class AxisData--><g id="elem_AxisData"><rect codeLine="42" fill="#F1F1F1" height="80.5938" id="AxisData" rx="2.5" ry="2.5" style="stroke:#181818;stroke-width:0.5;" width="96" x="539.5" y="369"/><ellipse cx="554.95" cy="385" fill="#ADD1B2" rx="11" ry="11" style="stroke:#181818;stroke-width:1.0;"/><path d="M557.9344,390.6406 Q557.3563,390.9375 556.7156,391.0781 Q556.075,391.2344 555.3719,391.2344 Q552.8563,391.2344 551.5281,389.5938 Q550.2156,387.9375 550.2156,384.8125 Q550.2156,381.6719 551.5281,380.0313 Q552.8563,378.375 555.3719,378.375 Q556.075,378.375 556.7156,378.5313 Q557.3719,378.6719 557.9344,378.9688 L557.9344,381.6875 Q557.2938,381.1094 556.7,380.8438 Q556.1063,380.5781 555.4813,380.5781 Q554.1375,380.5781 553.45,381.6406 Q552.7625,382.7031 552.7625,384.8125 Q552.7625,386.9063 553.45,387.9844 Q554.1375,389.0469 555.4813,389.0469 Q556.1063,389.0469 556.7,388.7813 Q557.2938,388.5 557.9344,387.9219 L557.9344,390.6406 Z " fill="#000000"/><text fill="#000000" font-family="sans-serif" font-size="14" lengthAdjust="spacing" textLength="63" x="569.05" y="389.8467">AxisData</text><line style="stroke:#181818;stroke-width:0.5;" x1="540.5" x2="634.5" y1="401" y2="401"/><text fill="#000000" font-family="sans-serif" font-size="14" lengthAdjust="spacing" textLength="81" x="545.5" y="417.9951">_filled_data</text><line style="stroke:#181818;stroke-width:0.5;" x1="540.5" x2="634.5" y1="425.2969" y2="425.2969"/><text fill="#000000" font-family="sans-serif" font-size="14" lengthAdjust="spacing" textLength="84" x="545.5" y="442.292">filled_data()</text></g><g id="elem_GMN18"><path d="M671,374 L671,405.5 L635.84,409.5 L671,413.5 L671,444.5313 A0,0 0 0 0 671,444.5313 L946,444.5313 A0,0 0 0 0 946,444.5313 L946,384 L936,374 L671,374 A0,0 0 0 0 671,374 " fill="#FEFFDD" style="stroke:#181818;stroke-width:0.5;"/><path d="M936,374 L936,384 L946,384 L936,374 " fill="#FEFFDD" style="stroke:#181818;stroke-width:0.5;"/><text fill="#000000" font-family="sans-serif" font-size="13" lengthAdjust="spacing" textLength="210" x="677" y="391.0669">Data are filled depending on the</text><text fill="#000000" font-family="sans-serif" font-size="13" lengthAdjust="spacing" textLength="248" x="677" y="406.1997">ChannelData they are plotted against.</text><text fill="#000000" font-family="sans-serif" font-size="13" lengthAdjust="spacing" textLength="254" x="677" y="421.3325">Hence for different channels, generally</text><text fill="#000000" font-family="sans-serif" font-size="13" lengthAdjust="spacing" textLength="193" x="677" y="436.4653">different filled data will exist.</text></g><!--class ChannelData--><g id="elem_ChannelData"><rect codeLine="53" fill="#F1F1F1" height="48" id="ChannelData" rx="2.5" ry="2.5" style="stroke:#181818;stroke-width:0.5;" width="125" x="981" y="385.5"/><ellipse cx="996" cy="401.5" fill="#ADD1B2" rx="11" ry="11" style="stroke:#181818;stroke-width:1.0;"/><path d="M998.9844,407.1406 Q998.4063,407.4375 997.7656,407.5781 Q997.125,407.7344 996.4219,407.7344 Q993.9063,407.7344 992.5781,406.0938 Q991.2656,404.4375 991.2656,401.3125 Q991.2656,398.1719 992.5781,396.5313 Q993.9063,394.875 996.4219,394.875 Q997.125,394.875 997.7656,395.0313 Q998.4219,395.1719 998.9844,395.4688 L998.9844,398.1875 Q998.3438,397.6094 997.75,397.3438 Q997.1563,397.0781 996.5313,397.0781 Q995.1875,397.0781 994.5,398.1406 Q993.8125,399.2031 993.8125,401.3125 Q993.8125,403.4063 994.5,404.4844 Q995.1875,405.5469 996.5313,405.5469 Q997.1563,405.5469 997.75,405.2813 Q998.3438,405 998.9844,404.4219 L998.9844,407.1406 Z " fill="#000000"/><text fill="#000000" font-family="sans-serif" font-size="14" lengthAdjust="spacing" textLength="93" x="1010" y="406.3467">ChannelData</text><line style="stroke:#181818;stroke-width:0.5;" x1="982" x2="1105" y1="417.5" y2="417.5"/><line style="stroke:#181818;stroke-width:0.5;" x1="982" x2="1105" y1="425.5" y2="425.5"/></g><!--class TimestampData--><g id="elem_TimestampData"><rect codeLine="56" fill="#F1F1F1" height="96.8906" id="TimestampData" rx="2.5" ry="2.5" style="stroke:#181818;stroke-width:0.5;" width="287" x="1141" y="361"/><ellipse cx="1223.25" cy="377" fill="#ADD1B2" rx="11" ry="11" style="stroke:#181818;stroke-width:1.0;"/><path d="M1226.2344,382.6406 Q1225.6563,382.9375 1225.0156,383.0781 Q1224.375,383.2344 1223.6719,383.2344 Q1221.1563,383.2344 1219.8281,381.5938 Q1218.5156,379.9375 1218.5156,376.8125 Q1218.5156,373.6719 1219.8281,372.0313 Q1221.1563,370.375 1223.6719,370.375 Q1224.375,370.375 1225.0156,370.5313 Q1225.6719,370.6719 1226.2344,370.9688 L1226.2344,373.6875 Q1225.5938,373.1094 1225,372.8438 Q1224.4063,372.5781 1223.7813,372.5781 Q1222.4375,372.5781 1221.75,373.6406 Q1221.0625,374.7031 1221.0625,376.8125 Q1221.0625,378.9063 1221.75,379.9844 Q1222.4375,381.0469 1223.7813,381.0469 Q1224.4063,381.0469 1225,380.7813 Q1225.5938,380.5 1226.2344,379.9219 L1226.2344,382.6406 Z " fill="#000000"/><text fill="#000000" font-family="sans-serif" font-size="14" lengthAdjust="spacing" textLength="114" x="1243.75" y="381.8467">TimestampData</text><line style="stroke:#181818;stroke-width:0.5;" x1="1142" x2="1427" y1="393" y2="393"/><text fill="#000000" font-family="sans-serif" font-size="14" lengthAdjust="spacing" textLength="275" x="1147" y="409.9951">_first_positions : np.ndarray(dtype=int)</text><text fill="#000000" font-family="sans-serif" font-size="14" lengthAdjust="spacing" textLength="273" x="1147" y="426.292">_last_positions : np.ndarray(dtype=int)</text><line style="stroke:#181818;stroke-width:0.5;" x1="1142" x2="1427" y1="433.5938" y2="433.5938"/><text fill="#000000" font-family="sans-serif" font-size="14" lengthAdjust="spacing" textLength="258" x="1147" y="450.5889">get_position(timestamp, mode=last)</text></g><!--class SinglePointChannelData--><g id="elem_SinglePointChannelData"><rect codeLine="62" fill="#F1F1F1" height="48" id="SinglePointChannelData" rx="2.5" ry="2.5" style="stroke:#181818;stroke-width:0.5;" width="204" x="215.5" y="583"/><ellipse cx="230.5" cy="599" fill="#ADD1B2" rx="11" ry="11" style="stroke:#181818;stroke-width:1.0;"/><path d="M233.4844,604.6406 Q232.9063,604.9375 232.2656,605.0781 Q231.625,605.2344 230.9219,605.2344 Q228.4063,605.2344 227.0781,603.5938 Q225.7656,601.9375 225.7656,598.8125 Q225.7656,595.6719 227.0781,594.0313 Q228.4063,592.375 230.9219,592.375 Q231.625,592.375 232.2656,592.5313 Q232.9219,592.6719 233.4844,592.9688 L233.4844,595.6875 Q232.8438,595.1094 232.25,594.8438 Q231.6563,594.5781 231.0313,594.5781 Q229.6875,594.5781 229,595.6406 Q228.3125,596.7031 228.3125,598.8125 Q228.3125,600.9063 229,601.9844 Q229.6875,603.0469 231.0313,603.0469 Q231.6563,603.0469 232.25,602.7813 Q232.8438,602.5 233.4844,601.9219 L233.4844,604.6406 Z " fill="#000000"/><text fill="#000000" font-family="sans-serif" font-size="14" lengthAdjust="spacing" textLength="172" x="244.5" y="603.8467">SinglePointChannelData</text><line style="stroke:#181818;stroke-width:0.5;" x1="216.5" x2="418.5" y1="615" y2="615"/><line style="stroke:#181818;stroke-width:0.5;" x1="216.5" x2="418.5" y1="623" y2="623"/></g><!--class SinglePointNormalizedChannelData--><g id="elem_SinglePointNormalizedChannelData"><rect codeLine="64" fill="#F1F1F1" height="80.5938" id="SinglePointNormalizedChannelData" rx="2.5" ry="2.5" style="stroke:#181818;stroke-width:0.5;" width="285" x="7" y="764"/><ellipse cx="22" cy="780" fill="#ADD1B2" rx="11" ry="11" style="stroke:#181818;stroke-width:1.0;"/><path d="M24.9844,785.6406 Q24.4063,785.9375 23.7656,786.0781 Q23.125,786.2344 22.4219,786.2344 Q19.9063,786.2344 18.5781,784.5938 Q17.2656,782.9375 17.2656,779.8125 Q17.2656,776.6719 18.5781,775.0313 Q19.9063,773.375 22.4219,773.375 Q23.125,773.375 23.7656,773.5313 Q24.4219,773.6719 24.9844,773.9688 L24.9844,776.6875 Q24.3438,776.1094 23.75,775.8438 Q23.1563,775.5781 22.5313,775.5781 Q21.1875,775.5781 20.5,776.6406 Q19.8125,777.7031 19.8125,779.8125 Q19.8125,781.9063 20.5,782.9844 Q21.1875,784.0469 22.5313,784.0469 Q23.1563,784.0469 23.75,783.7813 Q24.3438,783.5 24.9844,782.9219 L24.9844,785.6406 Z " fill="#000000"/><text fill="#000000" font-family="sans-serif" font-size="14" lengthAdjust="spacing" textLength="253" x="36" y="784.8467">SinglePointNormalizedChannelData</text><line style="stroke:#181818;stroke-width:0.5;" x1="8" x2="291" y1="796" y2="796"/><text fill="#000000" font-family="sans-serif" font-size="14" lengthAdjust="spacing" textLength="210" x="13" y="812.9951">normalized_data : np.ndarray</text><text fill="#000000" font-family="sans-serif" font-size="14" lengthAdjust="spacing" textLength="214" x="13" y="829.292">normalizing_data : np.ndarray</text><line style="stroke:#181818;stroke-width:0.5;" x1="8" x2="291" y1="836.5938" y2="836.5938"/></g><!--class AverageChannelData--><g id="elem_AverageChannelData"><rect codeLine="69" fill="#F1F1F1" height="178.375" id="AverageChannelData" rx="2.5" ry="2.5" style="stroke:#181818;stroke-width:0.5;" width="246" x="622.5" y="518"/><ellipse cx="664.95" cy="534" fill="#ADD1B2" rx="11" ry="11" style="stroke:#181818;stroke-width:1.0;"/><path d="M667.9344,539.6406 Q667.3563,539.9375 666.7156,540.0781 Q666.075,540.2344 665.3719,540.2344 Q662.8563,540.2344 661.5281,538.5938 Q660.2156,536.9375 660.2156,533.8125 Q660.2156,530.6719 661.5281,529.0313 Q662.8563,527.375 665.3719,527.375 Q666.075,527.375 666.7156,527.5313 Q667.3719,527.6719 667.9344,527.9688 L667.9344,530.6875 Q667.2938,530.1094 666.7,529.8438 Q666.1063,529.5781 665.4813,529.5781 Q664.1375,529.5781 663.45,530.6406 Q662.7625,531.7031 662.7625,533.8125 Q662.7625,535.9063 663.45,536.9844 Q664.1375,538.0469 665.4813,538.0469 Q666.1063,538.0469 666.7,537.7813 Q667.2938,537.5 667.9344,536.9219 L667.9344,539.6406 Z " fill="#000000"/><text fill="#000000" font-family="sans-serif" font-size="14" lengthAdjust="spacing" textLength="153" x="685.05" y="538.8467">AverageChannelData</text><line style="stroke:#181818;stroke-width:0.5;" x1="623.5" x2="867.5" y1="550" y2="550"/><text fill="#000000" font-family="sans-serif" font-size="14" lengthAdjust="spacing" textLength="167" x="628.5" y="566.9951">raw_data : raggedarray</text><text fill="#000000" font-family="sans-serif" font-size="14" lengthAdjust="spacing" textLength="234" x="628.5" y="583.292">attempts : np.ndarray(dtype=int)</text><text fill="#000000" font-family="sans-serif" font-size="14" lengthAdjust="spacing" textLength="139" x="628.5" y="599.5889">_mean : np.ndarray</text><text fill="#000000" font-family="sans-serif" font-size="14" lengthAdjust="spacing" textLength="119" x="628.5" y="615.8857">_std : np.ndarray</text><line style="stroke:#181818;stroke-width:0.5;" x1="623.5" x2="867.5" y1="623.1875" y2="623.1875"/><text fill="#000000" font-family="sans-serif" font-size="14" lengthAdjust="spacing" textLength="51" x="628.5" y="640.1826">mean()</text><text fill="#000000" font-family="sans-serif" font-size="14" lengthAdjust="spacing" textLength="31" x="628.5" y="656.4795">std()</text><text fill="#000000" font-family="sans-serif" font-size="14" lengthAdjust="spacing" textLength="117" x="628.5" y="672.7764">averaged_data()</text><text fill="#000000" font-family="sans-serif" font-size="14" lengthAdjust="spacing" textLength="107" x="628.5" y="689.0732">has_raw_data()</text></g><g id="elem_GMN31"><path d="M327.5,761.5 L327.5,847.1641 A0,0 0 0 0 327.5,847.1641 L577.5,847.1641 A0,0 0 0 0 577.5,847.1641 L577.5,771.5 L567.5,761.5 L519.83,761.5 L622.09,690.34 L511.83,761.5 L327.5,761.5 A0,0 0 0 0 327.5,761.5 " fill="#FEFFDD" style="stroke:#181818;stroke-width:0.5;"/><path d="M567.5,761.5 L567.5,771.5 L577.5,771.5 L567.5,761.5 " fill="#FEFFDD" style="stroke:#181818;stroke-width:0.5;"/><text fill="#000000" font-family="sans-serif" font-size="13" lengthAdjust="spacing" textLength="203" x="333.5" y="778.5669">averaged_values() returns only</text><text fill="#000000" font-family="sans-serif" font-size="13" lengthAdjust="spacing" textLength="229" x="333.5" y="793.6997">those values used to average over.</text><text fill="#000000" font-family="sans-serif" font-size="13" lengthAdjust="spacing" textLength="8" x="333.5" y="808.8325">&#160;</text><text fill="#000000" font-family="sans-serif" font-size="13" lengthAdjust="spacing" textLength="154" x="333.5" y="823.9653">How does mean() differ</text><text fill="#000000" font-family="sans-serif" font-size="13" lengthAdjust="spacing" textLength="136" x="333.5" y="839.0981">from values in Data?</text></g><!--class AverageNormalizedChannelData--><g id="elem_AverageNormalizedChannelData"><rect codeLine="87" fill="#F1F1F1" height="80.5938" id="AverageNormalizedChannelData" rx="2.5" ry="2.5" style="stroke:#181818;stroke-width:0.5;" width="266" x="612.5" y="764"/><ellipse cx="627.5" cy="780" fill="#ADD1B2" rx="11" ry="11" style="stroke:#181818;stroke-width:1.0;"/><path d="M630.4844,785.6406 Q629.9063,785.9375 629.2656,786.0781 Q628.625,786.2344 627.9219,786.2344 Q625.4063,786.2344 624.0781,784.5938 Q622.7656,782.9375 622.7656,779.8125 Q622.7656,776.6719 624.0781,775.0313 Q625.4063,773.375 627.9219,773.375 Q628.625,773.375 629.2656,773.5313 Q629.9219,773.6719 630.4844,773.9688 L630.4844,776.6875 Q629.8438,776.1094 629.25,775.8438 Q628.6563,775.5781 628.0313,775.5781 Q626.6875,775.5781 626,776.6406 Q625.3125,777.7031 625.3125,779.8125 Q625.3125,781.9063 626,782.9844 Q626.6875,784.0469 628.0313,784.0469 Q628.6563,784.0469 629.25,783.7813 Q629.8438,783.5 630.4844,782.9219 L630.4844,785.6406 Z " fill="#000000"/><text fill="#000000" font-family="sans-serif" font-size="14" lengthAdjust="spacing" textLength="234" x="641.5" y="784.8467">AverageNormalizedChannelData</text><line style="stroke:#181818;stroke-width:0.5;" x1="613.5" x2="877.5" y1="796" y2="796"/><text fill="#000000" font-family="sans-serif" font-size="14" lengthAdjust="spacing" textLength="221" x="618.5" y="812.9951">normalized_data : raggedarray</text><text fill="#000000" font-family="sans-serif" font-size="14" lengthAdjust="spacing" textLength="225" x="618.5" y="829.292">normalizing_data : raggedarray</text><line style="stroke:#181818;stroke-width:0.5;" x1="613.5" x2="877.5" y1="836.5938" y2="836.5938"/></g><!--class IntervalChannelData--><g id="elem_IntervalChannelData"><rect codeLine="93" fill="#F1F1F1" height="162.0781" id="IntervalChannelData" rx="2.5" ry="2.5" style="stroke:#181818;stroke-width:0.5;" width="230" x="928.5" y="526"/><ellipse cx="966.45" cy="542" fill="#ADD1B2" rx="11" ry="11" style="stroke:#181818;stroke-width:1.0;"/><path d="M969.4344,547.6406 Q968.8563,547.9375 968.2156,548.0781 Q967.575,548.2344 966.8719,548.2344 Q964.3563,548.2344 963.0281,546.5938 Q961.7156,544.9375 961.7156,541.8125 Q961.7156,538.6719 963.0281,537.0313 Q964.3563,535.375 966.8719,535.375 Q967.575,535.375 968.2156,535.5313 Q968.8719,535.6719 969.4344,535.9688 L969.4344,538.6875 Q968.7938,538.1094 968.2,537.8438 Q967.6063,537.5781 966.9813,537.5781 Q965.6375,537.5781 964.95,538.6406 Q964.2625,539.7031 964.2625,541.8125 Q964.2625,543.9063 964.95,544.9844 Q965.6375,546.0469 966.9813,546.0469 Q967.6063,546.0469 968.2,545.7813 Q968.7938,545.5 969.4344,544.9219 L969.4344,547.6406 Z " fill="#000000"/><text fill="#000000" font-family="sans-serif" font-size="14" lengthAdjust="spacing" textLength="147" x="985.55" y="546.8467">IntervalChannelData</text><line style="stroke:#181818;stroke-width:0.5;" x1="929.5" x2="1157.5" y1="558" y2="558"/><text fill="#000000" font-family="sans-serif" font-size="14" lengthAdjust="spacing" textLength="167" x="934.5" y="574.9951">raw_data : raggedarray</text><text fill="#000000" font-family="sans-serif" font-size="14" lengthAdjust="spacing" textLength="218" x="934.5" y="591.292">counts : np.ndarray(dtype=int)</text><text fill="#000000" font-family="sans-serif" font-size="14" lengthAdjust="spacing" textLength="139" x="934.5" y="607.5889">_mean : np.ndarray</text><text fill="#000000" font-family="sans-serif" font-size="14" lengthAdjust="spacing" textLength="119" x="934.5" y="623.8857">_std : np.ndarray</text><line style="stroke:#181818;stroke-width:0.5;" x1="929.5" x2="1157.5" y1="631.1875" y2="631.1875"/><text fill="#000000" font-family="sans-serif" font-size="14" lengthAdjust="spacing" textLength="51" x="934.5" y="648.1826">mean()</text><text fill="#000000" font-family="sans-serif" font-size="14" lengthAdjust="spacing" textLength="31" x="934.5" y="664.4795">std()</text><text fill="#000000" font-family="sans-serif" font-size="14" lengthAdjust="spacing" textLength="107" x="934.5" y="680.7764">has_raw_data()</text></g><!--class IntervalNormalizedChannelData--><g id="elem_IntervalNormalizedChannelData"><rect codeLine="103" fill="#F1F1F1" height="80.5938" id="IntervalNormalizedChannelData" rx="2.5" ry="2.5" style="stroke:#181818;stroke-width:0.5;" width="260" x="913.5" y="764"/><ellipse cx="928.5" cy="780" fill="#ADD1B2" rx="11" ry="11" style="stroke:#181818;stroke-width:1.0;"/><path d="M931.4844,785.6406 Q930.9063,785.9375 930.2656,786.0781 Q929.625,786.2344 928.9219,786.2344 Q926.4063,786.2344 925.0781,784.5938 Q923.7656,782.9375 923.7656,779.8125 Q923.7656,776.6719 925.0781,775.0313 Q926.4063,773.375 928.9219,773.375 Q929.625,773.375 930.2656,773.5313 Q930.9219,773.6719 931.4844,773.9688 L931.4844,776.6875 Q930.8438,776.1094 930.25,775.8438 Q929.6563,775.5781 929.0313,775.5781 Q927.6875,775.5781 927,776.6406 Q926.3125,777.7031 926.3125,779.8125 Q926.3125,781.9063 927,782.9844 Q927.6875,784.0469 929.0313,784.0469 Q929.6563,784.0469 930.25,783.7813 Q930.8438,783.5 931.4844,782.9219 L931.4844,785.6406 Z " fill="#000000"/><text fill="#000000" font-family="sans-serif" font-size="14" lengthAdjust="spacing" textLength="228" x="942.5" y="784.8467">IntervalNormalizedChannelData</text><line style="stroke:#181818;stroke-width:0.5;" x1="914.5" x2="1172.5" y1="796" y2="796"/><text fill="#000000" font-family="sans-serif" font-size="14" lengthAdjust="spacing" textLength="221" x="919.5" y="812.9951">normalized_data : raggedarray</text><text fill="#000000" font-family="sans-serif" font-size="14" lengthAdjust="spacing" textLength="225" x="919.5" y="829.292">normalizing_data : raggedarray</text><line style="stroke:#181818;stroke-width:0.5;" x1="914.5" x2="1172.5" y1="836.5938" y2="836.5938"/></g><!--class ArrayChannelData--><g id="elem_ArrayChannelData"><rect codeLine="108" fill="#F1F1F1" height="64.2969" id="ArrayChannelData" rx="2.5" ry="2.5" style="stroke:#181818;stroke-width:0.5;" width="211" x="1211" y="575"/><ellipse cx="1247.15" cy="591" fill="#ADD1B2" rx="11" ry="11" style="stroke:#181818;stroke-width:1.0;"/><path d="M1250.1344,596.6406 Q1249.5563,596.9375 1248.9156,597.0781 Q1248.275,597.2344 1247.5719,597.2344 Q1245.0563,597.2344 1243.7281,595.5938 Q1242.4156,593.9375 1242.4156,590.8125 Q1242.4156,587.6719 1243.7281,586.0313 Q1245.0563,584.375 1247.5719,584.375 Q1248.275,584.375 1248.9156,584.5313 Q1249.5719,584.6719 1250.1344,584.9688 L1250.1344,587.6875 Q1249.4938,587.1094 1248.9,586.8438 Q1248.3063,586.5781 1247.6813,586.5781 Q1246.3375,586.5781 1245.65,587.6406 Q1244.9625,588.7031 1244.9625,590.8125 Q1244.9625,592.9063 1245.65,593.9844 Q1246.3375,595.0469 1247.6813,595.0469 Q1248.3063,595.0469 1248.9,594.7813 Q1249.4938,594.5 1250.1344,593.9219 L1250.1344,596.6406 Z " fill="#000000"/><text fill="#000000" font-family="sans-serif" font-size="14" lengthAdjust="spacing" textLength="132" x="1265.85" y="595.8467">ArrayChannelData</text><line style="stroke:#181818;stroke-width:0.5;" x1="1212" x2="1421" y1="607" y2="607"/><text fill="#000000" font-family="sans-serif" font-size="14" lengthAdjust="spacing" textLength="199" x="1217" y="623.9951">roi[] : ArrayChannelROIData</text><line style="stroke:#181818;stroke-width:0.5;" x1="1212" x2="1421" y1="631.2969" y2="631.2969"/></g><!--class ArrayChannelROIData--><g id="elem_ArrayChannelROIData"><rect codeLine="114" fill="#F1F1F1" height="96.8906" id="ArrayChannelROIData" rx="2.5" ry="2.5" style="stroke:#181818;stroke-width:0.5;" width="251" x="1209" y="756"/><ellipse cx="1251.9" cy="772" fill="#ADD1B2" rx="11" ry="11" style="stroke:#181818;stroke-width:1.0;"/><path d="M1254.8844,777.6406 Q1254.3063,777.9375 1253.6656,778.0781 Q1253.025,778.2344 1252.3219,778.2344 Q1249.8063,778.2344 1248.4781,776.5938 Q1247.1656,774.9375 1247.1656,771.8125 Q1247.1656,768.6719 1248.4781,767.0313 Q1249.8063,765.375 1252.3219,765.375 Q1253.025,765.375 1253.6656,765.5313 Q1254.3219,765.6719 1254.8844,765.9688 L1254.8844,768.6875 Q1254.2438,768.1094 1253.65,767.8438 Q1253.0563,767.5781 1252.4313,767.5781 Q1251.0875,767.5781 1250.4,768.6406 Q1249.7125,769.7031 1249.7125,771.8125 Q1249.7125,773.9063 1250.4,774.9844 Q1251.0875,776.0469 1252.4313,776.0469 Q1253.0563,776.0469 1253.65,775.7813 Q1254.2438,775.5 1254.8844,774.9219 L1254.8844,777.6406 Z " fill="#000000"/><text fill="#000000" font-family="sans-serif" font-size="14" lengthAdjust="spacing" textLength="157" x="1272.1" y="776.8467">ArrayChannelROIData</text><line style="stroke:#181818;stroke-width:0.5;" x1="1210" x2="1459" y1="788" y2="788"/><text fill="#000000" font-family="sans-serif" font-size="14" lengthAdjust="spacing" textLength="228" x="1215" y="804.9951">marker : np.ndarray((dtype=int)</text><text fill="#000000" font-family="sans-serif" font-size="14" lengthAdjust="spacing" textLength="239" x="1215" y="821.292">positions : np.ndarray((dtype=int)</text><text fill="#000000" font-family="sans-serif" font-size="14" lengthAdjust="spacing" textLength="133" x="1215" y="837.5889">data : np.ndarray()</text><line style="stroke:#181818;stroke-width:0.5;" x1="1210" x2="1459" y1="844.8906" y2="844.8906"/></g><g id="elem_GMN44"><path d="M1171,913 L1171,1104.5938 A0,0 0 0 0 1171,1104.5938 L1498,1104.5938 A0,0 0 0 0 1498,1104.5938 L1498,923 L1488,913 L1338.5,913 L1334.5,853.23 L1330.5,913 L1171,913 A0,0 0 0 0 1171,913 " fill="#FEFFDD" style="stroke:#181818;stroke-width:0.5;"/><path d="M1488,913 L1488,923 L1498,923 L1488,913 " fill="#FEFFDD" style="stroke:#181818;stroke-width:0.5;"/><text fill="#000000" font-family="sans-serif" font-size="13" lengthAdjust="spacing" textLength="244" x="1177" y="930.0669">Should these ROI classes inherit from</text><text fill="#000000" font-family="sans-serif" font-size="13" lengthAdjust="spacing" textLength="265" x="1177" y="945.1997">ChannelData? In this case, the attributes</text><text fill="#000000" font-family="sans-serif" font-size="13" lengthAdjust="spacing" textLength="306" x="1177" y="960.3325">"positions" and "data" would not be necessary.</text><text fill="#000000" font-family="sans-serif" font-size="13" lengthAdjust="spacing" textLength="8" x="1177" y="975.4653">&#160;</text><text fill="#000000" font-family="sans-serif" font-size="13" lengthAdjust="spacing" textLength="256" x="1177" y="990.5981">Marker should be a two-element vector</text><text fill="#000000" font-family="sans-serif" font-size="13" lengthAdjust="spacing" textLength="290" x="1177" y="1005.731">with positions on the x axis of the spectrum.</text><text fill="#000000" font-family="sans-serif" font-size="13" lengthAdjust="spacing" textLength="303" x="1177" y="1020.8638">Is "marker" the best name? Can we generalise</text><text fill="#000000" font-family="sans-serif" font-size="13" lengthAdjust="spacing" textLength="246" x="1177" y="1035.9966">to fit to AreaChannelROIData as well?</text><text fill="#000000" font-family="sans-serif" font-size="13" lengthAdjust="spacing" textLength="8" x="1177" y="1051.1294">&#160;</text><text fill="#000000" font-family="sans-serif" font-size="13" lengthAdjust="spacing" textLength="244" x="1177" y="1066.2622">What other attributes are relevant for</text><text fill="#000000" font-family="sans-serif" font-size="13" lengthAdjust="spacing" textLength="267" x="1177" y="1081.395">Array Channel ROIs? What datasets exist</text><text fill="#000000" font-family="sans-serif" font-size="13" lengthAdjust="spacing" textLength="110" x="1177" y="1096.5278">in an eveH5 file?</text></g><!--class AreaChannelData--><g id="elem_AreaChannelData"><rect codeLine="134" fill="#F1F1F1" height="64.2969" id="AreaChannelData" rx="2.5" ry="2.5" style="stroke:#181818;stroke-width:0.5;" width="206" x="1470.5" y="575"/><ellipse cx="1506.65" cy="591" fill="#ADD1B2" rx="11" ry="11" style="stroke:#181818;stroke-width:1.0;"/><path d="M1509.6344,596.6406 Q1509.0563,596.9375 1508.4156,597.0781 Q1507.775,597.2344 1507.0719,597.2344 Q1504.5563,597.2344 1503.2281,595.5938 Q1501.9156,593.9375 1501.9156,590.8125 Q1501.9156,587.6719 1503.2281,586.0313 Q1504.5563,584.375 1507.0719,584.375 Q1507.775,584.375 1508.4156,584.5313 Q1509.0719,584.6719 1509.6344,584.9688 L1509.6344,587.6875 Q1508.9938,587.1094 1508.4,586.8438 Q1507.8063,586.5781 1507.1813,586.5781 Q1505.8375,586.5781 1505.15,587.6406 Q1504.4625,588.7031 1504.4625,590.8125 Q1504.4625,592.9063 1505.15,593.9844 Q1505.8375,595.0469 1507.1813,595.0469 Q1507.8063,595.0469 1508.4,594.7813 Q1508.9938,594.5 1509.6344,593.9219 L1509.6344,596.6406 Z " fill="#000000"/><text fill="#000000" font-family="sans-serif" font-size="14" lengthAdjust="spacing" textLength="127" x="1525.35" y="595.8467">AreaChannelData</text><line style="stroke:#181818;stroke-width:0.5;" x1="1471.5" x2="1675.5" y1="607" y2="607"/><text fill="#000000" font-family="sans-serif" font-size="14" lengthAdjust="spacing" textLength="194" x="1476.5" y="623.9951">roi[] : AreaChannelROIData</text><line style="stroke:#181818;stroke-width:0.5;" x1="1471.5" x2="1675.5" y1="631.2969" y2="631.2969"/></g><!--class AreaChannelROIData--><g id="elem_AreaChannelROIData"><rect codeLine="140" fill="#F1F1F1" height="48" id="AreaChannelROIData" rx="2.5" ry="2.5" style="stroke:#181818;stroke-width:0.5;" width="184" x="1495.5" y="780.5"/><ellipse cx="1510.5" cy="796.5" fill="#ADD1B2" rx="11" ry="11" style="stroke:#181818;stroke-width:1.0;"/><path d="M1513.4844,802.1406 Q1512.9063,802.4375 1512.2656,802.5781 Q1511.625,802.7344 1510.9219,802.7344 Q1508.4063,802.7344 1507.0781,801.0938 Q1505.7656,799.4375 1505.7656,796.3125 Q1505.7656,793.1719 1507.0781,791.5313 Q1508.4063,789.875 1510.9219,789.875 Q1511.625,789.875 1512.2656,790.0313 Q1512.9219,790.1719 1513.4844,790.4688 L1513.4844,793.1875 Q1512.8438,792.6094 1512.25,792.3438 Q1511.6563,792.0781 1511.0313,792.0781 Q1509.6875,792.0781 1509,793.1406 Q1508.3125,794.2031 1508.3125,796.3125 Q1508.3125,798.4063 1509,799.4844 Q1509.6875,800.5469 1511.0313,800.5469 Q1511.6563,800.5469 1512.25,800.2813 Q1512.8438,800 1513.4844,799.4219 L1513.4844,802.1406 Z " fill="#000000"/><text fill="#000000" font-family="sans-serif" font-size="14" lengthAdjust="spacing" textLength="152" x="1524.5" y="801.3467">AreaChannelROIData</text><line style="stroke:#181818;stroke-width:0.5;" x1="1496.5" x2="1678.5" y1="812.5" y2="812.5"/><line style="stroke:#181818;stroke-width:0.5;" x1="1496.5" x2="1678.5" y1="820.5" y2="820.5"/></g><!--reverse link Data to DataImporter--><g id="link_Data_DataImporter"><path codeLine="31" d="M1150.61,91.5 C1162.19,91.5 1161.78,91.5 1173.37,91.5 " fill="none" id="Data-backto-DataImporter" style="stroke:#181818;stroke-width:1.0;"/><polygon fill="#181818" points="1138.61,91.5,1144.61,95.5,1150.61,91.5,1144.61,87.5,1138.61,91.5" style="stroke:#181818;stroke-width:1.0;"/></g><!--reverse link Data to Metadata--><g id="link_Data_Metadata"><path codeLine="32" d="M967.602,155.0522 C952.812,165.7022 946.49,169 930.5,177 C845.99,219.3 814.96,203.73 726.5,237 C720.14,239.39 713.54,242.12 707.08,244.95 " fill="none" id="Data-backto-Metadata" style="stroke:#181818;stroke-width:1.0;"/><polygon fill="#181818" points="977.34,148.04,970.1336,148.3001,967.602,155.0522,974.8084,154.7921,977.34,148.04" style="stroke:#181818;stroke-width:1.0;"/></g><!--reverse link Data to MeasureData--><g id="link_Data_MeasureData"><path d="M1043.5,166.03 C1043.5,195.35 1043.5,212.25 1043.5,236.83 " fill="none" id="Data-backto-MeasureData" style="stroke:#181818;stroke-width:1.0;"/><polygon fill="none" points="1043.5,148.03,1037.5,166.03,1049.5,166.03,1043.5,148.03" style="stroke:#181818;stroke-width:1.0;"/></g><!--reverse link Data to MonitorData--><g id="link_Data_MonitorData"><path d="M1127.7286,158.8137 C1141.4286,168.8737 1141.42,168.27 1155.5,177 C1191.38,199.25 1233.42,220.55 1268.05,236.95 " fill="none" id="Data-backto-MonitorData" style="stroke:#181818;stroke-width:1.0;"/><polygon fill="none" points="1113.22,148.16,1124.1773,163.6499,1131.2798,153.9775,1113.22,148.16" style="stroke:#181818;stroke-width:1.0;"/></g><!--reverse link MeasureData to AxisData--><g id="link_MeasureData_AxisData"><path d="M902.6898,301.4848 C793.1498,326.1548 665.96,355.34 653.5,361 C647.46,363.75 641.41,367.08 635.56,370.7 " fill="none" id="MeasureData-backto-AxisData" style="stroke:#181818;stroke-width:1.0;"/><polygon fill="none" points="920.25,297.53,901.3716,295.6314,904.0081,307.3382,920.25,297.53" style="stroke:#181818;stroke-width:1.0;"/></g><!--reverse link MeasureData to ChannelData--><g id="link_MeasureData_ChannelData"><path d="M1043.5,319.08 C1043.5,344.6 1043.5,362.18 1043.5,385.28 " fill="none" id="MeasureData-backto-ChannelData" style="stroke:#181818;stroke-width:1.0;"/><polygon fill="none" points="1043.5,301.08,1037.5,319.08,1049.5,319.08,1043.5,301.08" style="stroke:#181818;stroke-width:1.0;"/></g><!--reverse link MeasureData to TimestampData--><g id="link_MeasureData_TimestampData"><path d="M1113.1955,310.0505 C1143.8655,327.6805 1167.27,341.13 1201.72,360.93 " fill="none" id="MeasureData-backto-TimestampData" style="stroke:#181818;stroke-width:1.0;"/><polygon fill="none" points="1097.59,301.08,1110.2053,315.2523,1116.1856,304.8487,1097.59,301.08" style="stroke:#181818;stroke-width:1.0;"/></g><!--reverse link ChannelData to SinglePointChannelData--><g id="link_ChannelData_SinglePointChannelData"><path d="M995.8232,443.1824 C981.8032,452.1024 980.03,451.95 963.5,458 C811.58,513.58 761.95,480.87 604.5,518 C527.78,536.09 441.53,563.52 383.8,582.94 " fill="none" id="ChannelData-backto-SinglePointChannelData" style="stroke:#181818;stroke-width:1.0;"/><polygon fill="none" points="1011.01,433.52,992.6024,438.1201,999.044,448.2446,1011.01,433.52" style="stroke:#181818;stroke-width:1.0;"/></g><!--reverse link SinglePointChannelData to SinglePointNormalizedChannelData--><g id="link_SinglePointChannelData_SinglePointNormalizedChannelData"><path d="M285.8372,644.8407 C257.7572,677.5107 217.91,723.89 183.66,763.75 " fill="none" id="SinglePointChannelData-backto-SinglePointNormalizedChannelData" style="stroke:#181818;stroke-width:1.0;"/><polygon fill="none" points="297.57,631.19,281.287,640.9297,290.3874,648.7516,297.57,631.19" style="stroke:#181818;stroke-width:1.0;"/></g><!--reverse link ChannelData to AverageChannelData--><g id="link_ChannelData_AverageChannelData"><path d="M993.3903,443.3745 C958.9303,465.9845 919.34,491.95 868.78,525.12 " fill="none" id="ChannelData-backto-AverageChannelData" style="stroke:#181818;stroke-width:1.0;"/><polygon fill="none" points="1008.44,433.5,990.0988,438.3579,996.6818,448.3911,1008.44,433.5" style="stroke:#181818;stroke-width:1.0;"/></g><!--reverse link AverageChannelData to AverageNormalizedChannelData--><g id="link_AverageChannelData_AverageNormalizedChannelData"><path d="M745.5,714.03 C745.5,737.74 745.5,744.23 745.5,763.83 " fill="none" id="AverageChannelData-backto-AverageNormalizedChannelData" style="stroke:#181818;stroke-width:1.0;"/><polygon fill="none" points="745.5,696.03,739.5,714.03,751.5,714.03,745.5,696.03" style="stroke:#181818;stroke-width:1.0;"/></g><!--reverse link ChannelData to IntervalChannelData--><g id="link_ChannelData_IntervalChannelData"><path d="M1043.5,451.69 C1043.5,474.45 1043.5,492.48 1043.5,525.73 " fill="none" id="ChannelData-backto-IntervalChannelData" style="stroke:#181818;stroke-width:1.0;"/><polygon fill="none" points="1043.5,433.69,1037.5,451.69,1049.5,451.69,1043.5,433.69" style="stroke:#181818;stroke-width:1.0;"/></g><!--reverse link IntervalChannelData to IntervalNormalizedChannelData--><g id="link_IntervalChannelData_IntervalNormalizedChannelData"><path d="M1043.5,706.08 C1043.5,732.23 1043.5,742.13 1043.5,763.95 " fill="none" id="IntervalChannelData-backto-IntervalNormalizedChannelData" style="stroke:#181818;stroke-width:1.0;"/><polygon fill="none" points="1043.5,688.08,1037.5,706.08,1049.5,706.08,1043.5,688.08" style="stroke:#181818;stroke-width:1.0;"/></g><!--reverse link ChannelData to ArrayChannelData--><g id="link_ChannelData_ArrayChannelData"><path d="M1090.2538,443.981 C1139.1638,479.011 1217.78,535.31 1272.81,574.71 " fill="none" id="ChannelData-backto-ArrayChannelData" style="stroke:#181818;stroke-width:1.0;"/><polygon fill="none" points="1075.62,433.5,1086.7602,448.8589,1093.7475,439.103,1075.62,433.5" style="stroke:#181818;stroke-width:1.0;"/></g><!--reverse link ArrayChannelData to ArrayChannelROIData--><g id="link_ArrayChannelData_ArrayChannelROIData"><path codeLine="112" d="M1320.4895,651.3595 C1323.3795,682.7695 1326.77,719.53 1330.1,755.73 " fill="none" id="ArrayChannelData-backto-ArrayChannelROIData" style="stroke:#181818;stroke-width:1.0;"/><polygon fill="#181818" points="1319.39,639.41,1315.9566,645.7513,1320.4895,651.3595,1323.9229,645.0183,1319.39,639.41" style="stroke:#181818;stroke-width:1.0;"/><text fill="#000000" font-family="sans-serif" font-size="13" lengthAdjust="spacing" textLength="24" x="1303.7937" y="744.901">0..n</text></g><!--reverse link ChannelData to AreaChannelData--><g id="link_ChannelData_AreaChannelData"><path d="M1091.6523,443.2021 C1105.6123,452.0321 1107.18,451.83 1123.5,458 C1257.2,508.59 1306.98,464.4 1439.5,518 C1474.2,532.04 1509.43,555.61 1535.05,574.83 " fill="none" id="ChannelData-backto-AreaChannelData" style="stroke:#181818;stroke-width:1.0;"/><polygon fill="none" points="1076.44,433.58,1088.4449,448.2729,1094.8597,438.1313,1076.44,433.58" style="stroke:#181818;stroke-width:1.0;"/></g><!--reverse link AreaChannelData to AreaChannelROIData--><g id="link_AreaChannelData_AreaChannelROIData"><path codeLine="138" d="M1576.6067,651.3794 C1579.4267,690.7794 1583.34,745.43 1585.85,780.43 " fill="none" id="AreaChannelData-backto-AreaChannelROIData" style="stroke:#181818;stroke-width:1.0;"/><polygon fill="#181818" points="1575.75,639.41,1572.1886,645.6803,1576.6067,651.3794,1580.1681,645.1091,1575.75,639.41" style="stroke:#181818;stroke-width:1.0;"/><text fill="#000000" font-family="sans-serif" font-size="13" lengthAdjust="spacing" textLength="24" x="1558.3522" y="769.4241">0..n</text></g><!--SRC=[jLPDR-Cs4BtxLmnygLCancw1lGHO6C46HNBOTj4KwA4j35eQsMmaKY0fEswG_zx73yco9IS1slfYYfoFnvatdFdEFafL2oCgocj97pzzc4ooKbXBjy89UfuGVXKxaVlFQ_gQbc5_cJPLFLUvC4RiuxQiQcqS6nnvA_VfCnnwbTd5v6MYj6CgkN2aYo1sVRtiB4_3SagDRKHPxYdJoWcfB0dwU4l15GcLayHEbh6rd0UzhHJaDfoyq9gTXm7y6vtJxDiU_ufgesisRdy1KU62NWOlDcZs0HE42sciIqv85gJOhuJPpoT1yqTjIAfSRcKEg9HjX59SqbQK3Lko32niv9Pp2c5b6xHkjcp4chz4wH1gVvrx1QzGxUqdDpV-ogVYDuR5qPvXihhYNNijMtCcWKg4ktLX99RuDFJ3RGWKuGg2Icb3AkBEwY_ENCGwWq8cBFj3MG6r3Sv5AH_vOZvXh7qk-xpf0XZvOtLZCWxBI8r0W2JVCWgoYHH6hZVkcXvyxAHOUsuMsloXEXfMEczAHcJ2hR-_EcPPshmwSBNp96nZE9ppamFm8vO_5vBB_8LgRQMJ6cJhCtkMkttDdwLoVUnQIQVDMnOhMIAwZEZdxp1wyoJjaSK-xcXuMS0YvuTwwNqVYYl4qMUjjHX4EwP47T2pXXUfrfxje4KGwhCgCCShrAL6EI7pQr-ARXuaxrXbxFE3N1K56rQkBG9xYG9K83egEDP-9z7wzlPtMEEkqbi4aZwN-Z36ez55xLTPiNMYgjy8NPkJPIZivTl9FbA2g_VguEtf96UkHNVfoSkVlPrUoXyG_fA_QIYFNRc_zpocz9Cs5UhnRyx7rCzOZ_5GdUgPrxmLW94HYGDhXo_QAFnWquXTQmjAQ-wvQqCjGBMgTg_7U5cnK2CDoBfykEjbPr4Fvsab8kokTFpUHjXbY_1GJIkGNrUXd0PNFJOLttwq7yEkCQ29Lga0q7xmZgRUqA1faTEj7cdyfzV-Jkyerv29c5FXn4et094iu67stXU3DpWXV9qM8naxHudJ98rmeYy2KYGW8mtjtz4Yqutwtqan8C39RLwFwzYT_xl0fWIVZWEl15NBt_-4dRxABp_V1zh2ti2IxvpJ3_EvcewgZ018HwTDJvZ7C0BsCdNkNJtpefuJ7pn3erKw0juRUTZefinzLqCfug2Tor1Dc8ca2nLssWGNo2fKC6xwIUWoJ8fueOnSDIwDTDFk4jCm7qtZ1BiBte2DLZmO7h_66Da82GBejZjznILNlajkCOFfMFOxJ6ozCCLMJKyaq3VzRVsNd_QSQQhOcEyjJMCEfk5qXGP4IbIye2-eZnstpHcJINoSDDgoyt-zkRBDBIR87PVb8kB-3GCcwJ137g8GPWG3x5lXEtm27jBGXjB7sowYkW-FPTHoQFrnE5I87F6Mxpxv2O4Nf_F0wS3x7jQVNYMI_jZE4US72aFd1yQ_JFu1]--></g></svg>