<?xml version="1.0" encoding="us-ascii" standalone="no"?><svg xmlns="http://www.w3.org/2000/svg" xmlns:xlink="http://www.w3.org/1999/xlink" contentStyleType="text/css" height="510.6px" preserveAspectRatio="none" style="width:747px;height:510px;background:#FFFFFF;" version="1.1" viewBox="0 0 747 510" width="747.6px" zoomAndPan="magnify"><defs/><g><!--class Data--><g id="elem_Data"><rect codeLine="3" fill="#F1F1F1" height="68.175" id="Data" rx="1.5" ry="1.5" style="stroke:#181818;stroke-width:0.3;" width="98.4" x="417.6" y="21"/><ellipse cx="455.25" cy="30.6" fill="#ADD1B2" rx="6.6" ry="6.6" style="stroke:#181818;stroke-width:0.6;"/><path d="M455.2781,34.3219 C456.1781,34.3219 456.9188,33.9844 457.4625,33.3469 L456.6375,32.4375 C456.3094,32.7937 455.9156,33.0281 455.4375,33.0281 C454.4344,33.0281 453.7406,32.2312 453.7406,30.8625 C453.7406,29.5313 454.4344,28.725 455.3719,28.725 C455.8594,28.725 456.2156,28.9125 456.5344,29.2031 L457.3594,28.275 C456.9094,27.8344 456.2156,27.4313 455.3719,27.4313 C453.6,27.4313 452.2031,28.7156 452.2031,30.9188 C452.2031,33.15 453.6281,34.3219 455.2781,34.3219 Z " fill="#000000"/><text fill="#000000" font-family="sans-serif" font-size="8.4" lengthAdjust="spacing" textLength="18" x="467.55" y="33.4711">Data</text><line style="stroke:#181818;stroke-width:0.3;" x1="418.2" x2="515.4" y1="40.2" y2="40.2"/><text fill="#000000" font-family="sans-serif" font-size="8.4" lengthAdjust="spacing" textLength="78.6" x="421.2" y="50.393">metadata : Metadata</text><text fill="#000000" font-family="sans-serif" font-size="8.4" lengthAdjust="spacing" textLength="67.8" x="421.2" y="60.2367">_data : np.ndarray</text><text fill="#000000" font-family="sans-serif" font-size="8.4" lengthAdjust="spacing" textLength="91.2" x="421.2" y="70.0805">_importer : DataImporter</text><line style="stroke:#181818;stroke-width:0.3;" x1="418.2" x2="515.4" y1="74.5313" y2="74.5313"/><text fill="#000000" font-family="sans-serif" font-size="8.4" lengthAdjust="spacing" textLength="23.4" x="421.2" y="84.7242">data()</text></g><path d="M177.3,3.6 L177.3,101.0063 A0,0 0 0 0 177.3,101.0063 L396.3,101.0063 A0,0 0 0 0 396.3,101.0063 L396.3,54.7031 L420,57.3656 L396.3,49.9031 L396.3,9.6 L390.3,3.6 L177.3,3.6 A0,0 0 0 0 177.3,3.6 " fill="#FEFFDD" style="stroke:#181818;stroke-width:0.3;"/><path d="M390.3,3.6 L390.3,9.6 L396.3,9.6 L390.3,3.6 " fill="#FEFFDD" style="stroke:#181818;stroke-width:0.3;"/><text fill="#000000" font-family="sans-serif" font-size="7.8" lengthAdjust="spacing" textLength="174" x="180.9" y="13.8363">"_data" usually contains a 1D array and is accessed</text><text fill="#000000" font-family="sans-serif" font-size="7.8" lengthAdjust="spacing" textLength="168.6" x="180.9" y="22.977">via the data() getter method (Python property) that</text><text fill="#000000" font-family="sans-serif" font-size="7.8" lengthAdjust="spacing" textLength="174" x="180.9" y="32.1176">calls the DataImporter on first access if necessary.</text><text fill="#000000" font-family="sans-serif" font-size="7.8" lengthAdjust="spacing" textLength="1.8" x="180.9" y="41.2582">&#160;</text><text fill="#000000" font-family="sans-serif" font-size="7.8" lengthAdjust="spacing" textLength="166.8" x="180.9" y="50.3988">For individual channel values see derived classes</text><text fill="#000000" font-family="sans-serif" font-size="7.8" lengthAdjust="spacing" textLength="158.4" x="180.9" y="59.5395">AverageChannelData and IntervalChannelData.</text><text fill="#000000" font-family="sans-serif" font-size="7.8" lengthAdjust="spacing" textLength="1.8" x="180.9" y="68.6801">&#160;</text><text fill="#000000" font-family="sans-serif" font-size="7.8" lengthAdjust="spacing" textLength="187.2" x="180.9" y="77.8207">ArrayChannelData and AreaChannelData are somewhat</text><text fill="#000000" font-family="sans-serif" font-size="7.8" lengthAdjust="spacing" textLength="206.4" x="180.9" y="86.9613">special as they contain either 2D data or a list of data objects</text><text fill="#000000" font-family="sans-serif" font-size="7.8" lengthAdjust="spacing" textLength="100.2" x="180.9" y="96.102">(in case of images and alike).</text><!--class DataImporter--><g id="elem_DataImporter"><rect codeLine="22" fill="#F1F1F1" height="48.4875" id="DataImporter" rx="1.5" ry="1.5" style="stroke:#181818;stroke-width:0.3;" width="69.6" x="537" y="30.9"/><ellipse cx="546" cy="40.5" fill="#ADD1B2" rx="6.6" ry="6.6" style="stroke:#181818;stroke-width:0.6;"/><path d="M546.0281,44.2219 C546.9281,44.2219 547.6687,43.8844 548.2125,43.2469 L547.3875,42.3375 C547.0594,42.6938 546.6656,42.9281 546.1875,42.9281 C545.1844,42.9281 544.4906,42.1313 544.4906,40.7625 C544.4906,39.4313 545.1844,38.625 546.1219,38.625 C546.6094,38.625 546.9656,38.8125 547.2844,39.1031 L548.1094,38.175 C547.6594,37.7344 546.9656,37.3313 546.1219,37.3313 C544.35,37.3313 542.9531,38.6156 542.9531,40.8188 C542.9531,43.05 544.3781,44.2219 546.0281,44.2219 Z " fill="#000000"/><text fill="#000000" font-family="sans-serif" font-size="8.4" lengthAdjust="spacing" textLength="50.4" x="554.4" y="43.3711">DataImporter</text><line style="stroke:#181818;stroke-width:0.3;" x1="537.6" x2="606" y1="50.1" y2="50.1"/><text fill="#000000" font-family="sans-serif" font-size="8.4" lengthAdjust="spacing" textLength="25.2" x="540.6" y="60.293">source</text><line style="stroke:#181818;stroke-width:0.3;" x1="537.6" x2="606" y1="64.7437" y2="64.7437"/><text fill="#000000" font-family="sans-serif" font-size="8.4" lengthAdjust="spacing" textLength="30.6" x="540.6" y="74.9367">import()</text></g><!--class Metadata--><g id="elem_Metadata"><rect codeLine="27" fill="#F1F1F1" height="28.8" id="Metadata" rx="1.5" ry="1.5" style="stroke:#181818;stroke-width:0.3;" width="55.8" x="230.1" y="147.6"/><ellipse cx="239.1" cy="157.2" fill="#ADD1B2" rx="6.6" ry="6.6" style="stroke:#181818;stroke-width:0.6;"/><path d="M239.1281,160.9219 C240.0281,160.9219 240.7687,160.5844 241.3125,159.9469 L240.4875,159.0375 C240.1594,159.3937 239.7656,159.6281 239.2875,159.6281 C238.2844,159.6281 237.5906,158.8312 237.5906,157.4625 C237.5906,156.1313 238.2844,155.325 239.2219,155.325 C239.7094,155.325 240.0656,155.5125 240.3844,155.8031 L241.2094,154.875 C240.7594,154.4344 240.0656,154.0313 239.2219,154.0313 C237.45,154.0313 236.0531,155.3156 236.0531,157.5187 C236.0531,159.75 237.4781,160.9219 239.1281,160.9219 Z " fill="#000000"/><text fill="#000000" font-family="sans-serif" font-size="8.4" lengthAdjust="spacing" textLength="36.6" x="247.5" y="160.0711">Metadata</text><line style="stroke:#181818;stroke-width:0.3;" x1="230.7" x2="285.3" y1="166.8" y2="166.8"/><line style="stroke:#181818;stroke-width:0.3;" x1="230.7" x2="285.3" y1="171.6" y2="171.6"/></g><g id="elem_GMN7"><path d="M306.9,150 L306.9,159.6 L285.984,162 L306.9,164.4 L306.9,174.2813 A0,0 0 0 0 306.9,174.2813 L380.7,174.2813 A0,0 0 0 0 380.7,174.2813 L380.7,156 L374.7,150 L306.9,150 A0,0 0 0 0 306.9,150 " fill="#FEFFDD" style="stroke:#181818;stroke-width:0.3;"/><path d="M374.7,150 L374.7,156 L380.7,156 L374.7,150 " fill="#FEFFDD" style="stroke:#181818;stroke-width:0.3;"/><text fill="#000000" font-family="sans-serif" font-size="7.8" lengthAdjust="spacing" textLength="54" x="310.5" y="160.2363">See diagram for</text><text fill="#000000" font-family="sans-serif" font-size="7.8" lengthAdjust="spacing" textLength="61.2" x="310.5" y="169.377">metadata module.</text></g><!--class MeasureData--><g id="elem_MeasureData"><rect codeLine="34" fill="#F1F1F1" height="38.6438" id="MeasureData" rx="1.5" ry="1.5" style="stroke:#181818;stroke-width:0.3;" width="129.6" x="402" y="142.8"/><ellipse cx="439.05" cy="152.4" fill="#ADD1B2" rx="6.6" ry="6.6" style="stroke:#181818;stroke-width:0.6;"/><path d="M439.0781,156.1219 C439.9781,156.1219 440.7188,155.7844 441.2625,155.1469 L440.4375,154.2375 C440.1094,154.5938 439.7156,154.8281 439.2375,154.8281 C438.2344,154.8281 437.5406,154.0313 437.5406,152.6625 C437.5406,151.3312 438.2344,150.525 439.1719,150.525 C439.6594,150.525 440.0156,150.7125 440.3344,151.0031 L441.1594,150.075 C440.7094,149.6344 440.0156,149.2313 439.1719,149.2313 C437.4,149.2313 436.0031,150.5156 436.0031,152.7188 C436.0031,154.95 437.4281,156.1219 439.0781,156.1219 Z " fill="#000000"/><text fill="#000000" font-family="sans-serif" font-size="8.4" lengthAdjust="spacing" textLength="50.4" x="451.35" y="155.2711">MeasureData</text><line style="stroke:#181818;stroke-width:0.3;" x1="402.6" x2="531" y1="162" y2="162"/><text fill="#000000" font-family="sans-serif" font-size="8.4" lengthAdjust="spacing" textLength="122.4" x="405.6" y="172.193">positions : np.ndarray(dtype=int)</text><line style="stroke:#181818;stroke-width:0.3;" x1="402.6" x2="531" y1="176.6437" y2="176.6437"/></g><!--class MonitorData--><g id="elem_MonitorData"><rect codeLine="38" fill="#F1F1F1" height="38.6438" id="MonitorData" rx="1.5" ry="1.5" style="stroke:#181818;stroke-width:0.3;" width="141" x="552.9" y="142.8"/><ellipse cx="597.15" cy="152.4" fill="#ADD1B2" rx="6.6" ry="6.6" style="stroke:#181818;stroke-width:0.6;"/><path d="M597.1781,156.1219 C598.0781,156.1219 598.8188,155.7844 599.3625,155.1469 L598.5375,154.2375 C598.2094,154.5938 597.8156,154.8281 597.3375,154.8281 C596.3344,154.8281 595.6406,154.0313 595.6406,152.6625 C595.6406,151.3312 596.3344,150.525 597.2719,150.525 C597.7594,150.525 598.1156,150.7125 598.4344,151.0031 L599.2594,150.075 C598.8094,149.6344 598.1156,149.2313 597.2719,149.2313 C595.5,149.2313 594.1031,150.5156 594.1031,152.7188 C594.1031,154.95 595.5281,156.1219 597.1781,156.1219 Z " fill="#000000"/><text fill="#000000" font-family="sans-serif" font-size="8.4" lengthAdjust="spacing" textLength="47.4" x="609.45" y="155.2711">MonitorData</text><line style="stroke:#181818;stroke-width:0.3;" x1="553.5" x2="693.3" y1="162" y2="162"/><text fill="#000000" font-family="sans-serif" font-size="8.4" lengthAdjust="spacing" textLength="133.8" x="556.5" y="172.193">milliseconds : np.ndarray(dtype=int)</text><line style="stroke:#181818;stroke-width:0.3;" x1="553.5" x2="693.3" y1="176.6437" y2="176.6437"/></g><!--class AxisData--><g id="elem_AxisData"><rect codeLine="42" fill="#F1F1F1" height="48.4875" id="AxisData" rx="1.5" ry="1.5" style="stroke:#181818;stroke-width:0.3;" width="52.8" x="193.2" y="222"/><ellipse cx="202.2" cy="231.6" fill="#ADD1B2" rx="6.6" ry="6.6" style="stroke:#181818;stroke-width:0.6;"/><path d="M202.2281,235.3219 C203.1281,235.3219 203.8688,234.9844 204.4125,234.3469 L203.5875,233.4375 C203.2594,233.7938 202.8656,234.0281 202.3875,234.0281 C201.3844,234.0281 200.6906,233.2313 200.6906,231.8625 C200.6906,230.5313 201.3844,229.725 202.3219,229.725 C202.8094,229.725 203.1656,229.9125 203.4844,230.2031 L204.3094,229.275 C203.8594,228.8344 203.1656,228.4313 202.3219,228.4313 C200.55,228.4313 199.1531,229.7156 199.1531,231.9188 C199.1531,234.15 200.5781,235.3219 202.2281,235.3219 Z " fill="#000000"/><text fill="#000000" font-family="sans-serif" font-size="8.4" lengthAdjust="spacing" textLength="33.6" x="210.6" y="234.4711">AxisData</text><line style="stroke:#181818;stroke-width:0.3;" x1="193.8" x2="245.4" y1="241.2" y2="241.2"/><text fill="#000000" font-family="sans-serif" font-size="8.4" lengthAdjust="spacing" textLength="42" x="196.8" y="251.393">_filled_data</text><line style="stroke:#181818;stroke-width:0.3;" x1="193.8" x2="245.4" y1="255.8438" y2="255.8438"/><text fill="#000000" font-family="sans-serif" font-size="8.4" lengthAdjust="spacing" textLength="44.4" x="196.8" y="266.0367">filled_data()</text></g><g id="elem_GMN18"><path d="M267.3,225 L267.3,243.9 L246.084,246.3 L267.3,248.7 L267.3,267.5625 A0,0 0 0 0 267.3,267.5625 L411.9,267.5625 A0,0 0 0 0 411.9,267.5625 L411.9,231 L405.9,225 L267.3,225 A0,0 0 0 0 267.3,225 " fill="#FEFFDD" style="stroke:#181818;stroke-width:0.3;"/><path d="M405.9,225 L405.9,231 L411.9,231 L405.9,225 " fill="#FEFFDD" style="stroke:#181818;stroke-width:0.3;"/><text fill="#000000" font-family="sans-serif" font-size="7.8" lengthAdjust="spacing" textLength="107.4" x="270.9" y="235.2363">Data are filled depending on the</text><text fill="#000000" font-family="sans-serif" font-size="7.8" lengthAdjust="spacing" textLength="126.6" x="270.9" y="244.377">ChannelData they are plotted against.</text><text fill="#000000" font-family="sans-serif" font-size="7.8" lengthAdjust="spacing" textLength="132" x="270.9" y="253.5176">Hence for different channels, generally</text><text fill="#000000" font-family="sans-serif" font-size="7.8" lengthAdjust="spacing" textLength="97.8" x="270.9" y="262.6582">different filled data will exist.</text></g><!--class ChannelData--><g id="elem_ChannelData"><rect codeLine="53" fill="#F1F1F1" height="28.8" id="ChannelData" rx="1.5" ry="1.5" style="stroke:#181818;stroke-width:0.3;" width="67.8" x="432.9" y="231.9"/><ellipse cx="441.9" cy="241.5" fill="#ADD1B2" rx="6.6" ry="6.6" style="stroke:#181818;stroke-width:0.6;"/><path d="M441.9281,245.2219 C442.8281,245.2219 443.5687,244.8844 444.1125,244.2469 L443.2875,243.3375 C442.9594,243.6938 442.5656,243.9281 442.0875,243.9281 C441.0844,243.9281 440.3906,243.1313 440.3906,241.7625 C440.3906,240.4312 441.0844,239.625 442.0219,239.625 C442.5094,239.625 442.8656,239.8125 443.1844,240.1031 L444.0094,239.175 C443.5594,238.7344 442.8656,238.3312 442.0219,238.3312 C440.25,238.3312 438.8531,239.6156 438.8531,241.8188 C438.8531,244.05 440.2781,245.2219 441.9281,245.2219 Z " fill="#000000"/><text fill="#000000" font-family="sans-serif" font-size="8.4" lengthAdjust="spacing" textLength="48.6" x="450.3" y="244.3711">ChannelData</text><line style="stroke:#181818;stroke-width:0.3;" x1="433.5" x2="500.1" y1="251.1" y2="251.1"/><line style="stroke:#181818;stroke-width:0.3;" x1="433.5" x2="500.1" y1="255.9" y2="255.9"/></g><!--class TimestampData--><g id="elem_TimestampData"><rect codeLine="56" fill="#F1F1F1" height="58.3313" id="TimestampData" rx="1.5" ry="1.5" style="stroke:#181818;stroke-width:0.3;" width="151.8" x="521.7" y="217.2"/><ellipse cx="565.05" cy="226.8" fill="#ADD1B2" rx="6.6" ry="6.6" style="stroke:#181818;stroke-width:0.6;"/><path d="M565.0781,230.5219 C565.9781,230.5219 566.7188,230.1844 567.2625,229.5469 L566.4375,228.6375 C566.1094,228.9938 565.7156,229.2281 565.2375,229.2281 C564.2344,229.2281 563.5406,228.4313 563.5406,227.0625 C563.5406,225.7313 564.2344,224.925 565.1719,224.925 C565.6594,224.925 566.0156,225.1125 566.3344,225.4031 L567.1594,224.475 C566.7094,224.0344 566.0156,223.6313 565.1719,223.6313 C563.4,223.6313 562.0031,224.9156 562.0031,227.1188 C562.0031,229.35 563.4281,230.5219 565.0781,230.5219 Z " fill="#000000"/><text fill="#000000" font-family="sans-serif" font-size="8.4" lengthAdjust="spacing" textLength="60" x="577.35" y="229.6711">TimestampData</text><line style="stroke:#181818;stroke-width:0.3;" x1="522.3" x2="672.9" y1="236.4" y2="236.4"/><text fill="#000000" font-family="sans-serif" font-size="8.4" lengthAdjust="spacing" textLength="144.6" x="525.3" y="246.593">_first_positions : np.ndarray(dtype=int)</text><text fill="#000000" font-family="sans-serif" font-size="8.4" lengthAdjust="spacing" textLength="143.4" x="525.3" y="256.4367">_last_positions : np.ndarray(dtype=int)</text><line style="stroke:#181818;stroke-width:0.3;" x1="522.3" x2="672.9" y1="260.8875" y2="260.8875"/><text fill="#000000" font-family="sans-serif" font-size="8.4" lengthAdjust="spacing" textLength="135" x="525.3" y="271.0805">get_position(timestamp, mode=last)</text></g><!--class SinglePointChannelData--><g id="elem_SinglePointChannelData"><rect codeLine="62" fill="#F1F1F1" height="28.8" id="SinglePointChannelData" rx="1.5" ry="1.5" style="stroke:#181818;stroke-width:0.3;" width="109.8" x="114.3" y="350.7"/><ellipse cx="123.3" cy="360.3" fill="#ADD1B2" rx="6.6" ry="6.6" style="stroke:#181818;stroke-width:0.6;"/><path d="M123.3281,364.0219 C124.2281,364.0219 124.9688,363.6844 125.5125,363.0469 L124.6875,362.1375 C124.3594,362.4938 123.9656,362.7281 123.4875,362.7281 C122.4844,362.7281 121.7906,361.9313 121.7906,360.5625 C121.7906,359.2313 122.4844,358.425 123.4219,358.425 C123.9094,358.425 124.2656,358.6125 124.5844,358.9031 L125.4094,357.975 C124.9594,357.5344 124.2656,357.1312 123.4219,357.1312 C121.65,357.1312 120.2531,358.4156 120.2531,360.6188 C120.2531,362.85 121.6781,364.0219 123.3281,364.0219 Z " fill="#000000"/><text fill="#000000" font-family="sans-serif" font-size="8.4" lengthAdjust="spacing" textLength="90.6" x="131.7" y="363.1711">SinglePointChannelData</text><line style="stroke:#181818;stroke-width:0.3;" x1="114.9" x2="223.5" y1="369.9" y2="369.9"/><line style="stroke:#181818;stroke-width:0.3;" x1="114.9" x2="223.5" y1="374.7" y2="374.7"/></g><!--class SinglePointNormalizedChannelData--><g id="elem_SinglePointNormalizedChannelData"><rect codeLine="64" fill="#F1F1F1" height="48.4875" id="SinglePointNormalizedChannelData" rx="1.5" ry="1.5" style="stroke:#181818;stroke-width:0.3;" width="152.4" x="4.2" y="456.3"/><ellipse cx="13.2" cy="465.9" fill="#ADD1B2" rx="6.6" ry="6.6" style="stroke:#181818;stroke-width:0.6;"/><path d="M13.2281,469.6219 C14.1281,469.6219 14.8687,469.2844 15.4125,468.6469 L14.5875,467.7375 C14.2594,468.0938 13.8656,468.3281 13.3875,468.3281 C12.3844,468.3281 11.6906,467.5313 11.6906,466.1625 C11.6906,464.8312 12.3844,464.025 13.3219,464.025 C13.8094,464.025 14.1656,464.2125 14.4844,464.5031 L15.3094,463.575 C14.8594,463.1344 14.1656,462.7313 13.3219,462.7313 C11.55,462.7313 10.1531,464.0156 10.1531,466.2188 C10.1531,468.45 11.5781,469.6219 13.2281,469.6219 Z " fill="#000000"/><text fill="#000000" font-family="sans-serif" font-size="8.4" lengthAdjust="spacing" textLength="133.2" x="21.6" y="468.7711">SinglePointNormalizedChannelData</text><line style="stroke:#181818;stroke-width:0.3;" x1="4.8" x2="156" y1="475.5" y2="475.5"/><text fill="#000000" font-family="sans-serif" font-size="8.4" lengthAdjust="spacing" textLength="109.2" x="7.8" y="485.693">normalized_data : np.ndarray</text><text fill="#000000" font-family="sans-serif" font-size="8.4" lengthAdjust="spacing" textLength="111.6" x="7.8" y="495.5367">normalizing_data : np.ndarray</text><line style="stroke:#181818;stroke-width:0.3;" x1="4.8" x2="156" y1="499.9875" y2="499.9875"/></g><!--class AverageChannelData--><g id="elem_AverageChannelData"><rect codeLine="69" fill="#F1F1F1" height="107.55" id="AverageChannelData" rx="1.5" ry="1.5" style="stroke:#181818;stroke-width:0.3;" width="129.6" x="255.6" y="311.4"/><ellipse cx="278.64" cy="321" fill="#ADD1B2" rx="6.6" ry="6.6" style="stroke:#181818;stroke-width:0.6;"/><path d="M278.6681,324.7219 C279.5681,324.7219 280.3088,324.3844 280.8525,323.7469 L280.0275,322.8375 C279.6994,323.1937 279.3056,323.4281 278.8275,323.4281 C277.8244,323.4281 277.1306,322.6312 277.1306,321.2625 C277.1306,319.9313 277.8244,319.125 278.7619,319.125 C279.2494,319.125 279.6056,319.3125 279.9244,319.6031 L280.7494,318.675 C280.2994,318.2344 279.6056,317.8313 278.7619,317.8313 C276.99,317.8313 275.5931,319.1156 275.5931,321.3187 C275.5931,323.55 277.0181,324.7219 278.6681,324.7219 Z " fill="#000000"/><text fill="#000000" font-family="sans-serif" font-size="8.4" lengthAdjust="spacing" textLength="79.2" x="290.16" y="323.8711">AverageChannelData</text><line style="stroke:#181818;stroke-width:0.3;" x1="256.2" x2="384.6" y1="330.6" y2="330.6"/><text fill="#000000" font-family="sans-serif" font-size="8.4" lengthAdjust="spacing" textLength="87" x="259.2" y="340.793">raw_data : raggedarray</text><text fill="#000000" font-family="sans-serif" font-size="8.4" lengthAdjust="spacing" textLength="122.4" x="259.2" y="350.6367">attempts : np.ndarray(dtype=int)</text><text fill="#000000" font-family="sans-serif" font-size="8.4" lengthAdjust="spacing" textLength="71.4" x="259.2" y="360.4805">_mean : np.ndarray</text><text fill="#000000" font-family="sans-serif" font-size="8.4" lengthAdjust="spacing" textLength="62.4" x="259.2" y="370.3242">_std : np.ndarray</text><line style="stroke:#181818;stroke-width:0.3;" x1="256.2" x2="384.6" y1="374.775" y2="374.775"/><text fill="#000000" font-family="sans-serif" font-size="8.4" lengthAdjust="spacing" textLength="27" x="259.2" y="384.968">mean()</text><text fill="#000000" font-family="sans-serif" font-size="8.4" lengthAdjust="spacing" textLength="18" x="259.2" y="394.8117">std()</text><text fill="#000000" font-family="sans-serif" font-size="8.4" lengthAdjust="spacing" textLength="61.8" x="259.2" y="404.6555">averaged_data()</text><text fill="#000000" font-family="sans-serif" font-size="8.4" lengthAdjust="spacing" textLength="58.8" x="259.2" y="414.4992">has_raw_data()</text></g><g id="elem_GMN31"><path d="M177.6,454.8 L177.6,506.5031 A0,0 0 0 0 177.6,506.5031 L307.2,506.5031 A0,0 0 0 0 307.2,506.5031 L307.2,460.8 L301.2,454.8 L262.11,454.8 L284.142,418.836 L257.31,454.8 L177.6,454.8 A0,0 0 0 0 177.6,454.8 " fill="#FEFFDD" style="stroke:#181818;stroke-width:0.3;"/><path d="M301.2,454.8 L301.2,460.8 L307.2,460.8 L301.2,454.8 " fill="#FEFFDD" style="stroke:#181818;stroke-width:0.3;"/><text fill="#000000" font-family="sans-serif" font-size="7.8" lengthAdjust="spacing" textLength="103.8" x="181.2" y="465.0363">averaged_values() returns only</text><text fill="#000000" font-family="sans-serif" font-size="7.8" lengthAdjust="spacing" textLength="117" x="181.2" y="474.177">those values used to average over.</text><text fill="#000000" font-family="sans-serif" font-size="7.8" lengthAdjust="spacing" textLength="1.8" x="181.2" y="483.3176">&#160;</text><text fill="#000000" font-family="sans-serif" font-size="7.8" lengthAdjust="spacing" textLength="81" x="181.2" y="492.4582">How does mean() differ</text><text fill="#000000" font-family="sans-serif" font-size="7.8" lengthAdjust="spacing" textLength="69.6" x="181.2" y="501.5988">from values in Data?</text></g><!--class AverageNormalizedChannelData--><g id="elem_AverageNormalizedChannelData"><rect codeLine="87" fill="#F1F1F1" height="48.4875" id="AverageNormalizedChannelData" rx="1.5" ry="1.5" style="stroke:#181818;stroke-width:0.3;" width="141" x="328.5" y="456.3"/><ellipse cx="337.5" cy="465.9" fill="#ADD1B2" rx="6.6" ry="6.6" style="stroke:#181818;stroke-width:0.6;"/><path d="M337.5281,469.6219 C338.4281,469.6219 339.1688,469.2844 339.7125,468.6469 L338.8875,467.7375 C338.5594,468.0938 338.1656,468.3281 337.6875,468.3281 C336.6844,468.3281 335.9906,467.5313 335.9906,466.1625 C335.9906,464.8312 336.6844,464.025 337.6219,464.025 C338.1094,464.025 338.4656,464.2125 338.7844,464.5031 L339.6094,463.575 C339.1594,463.1344 338.4656,462.7313 337.6219,462.7313 C335.85,462.7313 334.4531,464.0156 334.4531,466.2188 C334.4531,468.45 335.8781,469.6219 337.5281,469.6219 Z " fill="#000000"/><text fill="#000000" font-family="sans-serif" font-size="8.4" lengthAdjust="spacing" textLength="121.8" x="345.9" y="468.7711">AverageNormalizedChannelData</text><line style="stroke:#181818;stroke-width:0.3;" x1="329.1" x2="468.9" y1="475.5" y2="475.5"/><text fill="#000000" font-family="sans-serif" font-size="8.4" lengthAdjust="spacing" textLength="114" x="332.1" y="485.693">normalized_data : raggedarray</text><text fill="#000000" font-family="sans-serif" font-size="8.4" lengthAdjust="spacing" textLength="116.4" x="332.1" y="495.5367">normalizing_data : raggedarray</text><line style="stroke:#181818;stroke-width:0.3;" x1="329.1" x2="468.9" y1="499.9875" y2="499.9875"/></g><!--class IntervalChannelData--><g id="elem_IntervalChannelData"><rect codeLine="93" fill="#F1F1F1" height="97.7063" id="IntervalChannelData" rx="1.5" ry="1.5" style="stroke:#181818;stroke-width:0.3;" width="121.2" x="406.2" y="316.2"/><ellipse cx="426.54" cy="325.8" fill="#ADD1B2" rx="6.6" ry="6.6" style="stroke:#181818;stroke-width:0.6;"/><path d="M426.5681,329.5219 C427.4681,329.5219 428.2087,329.1844 428.7525,328.5469 L427.9275,327.6375 C427.5994,327.9938 427.2056,328.2281 426.7275,328.2281 C425.7244,328.2281 425.0306,327.4313 425.0306,326.0625 C425.0306,324.7313 425.7244,323.925 426.6619,323.925 C427.1494,323.925 427.5056,324.1125 427.8244,324.4031 L428.6494,323.475 C428.1994,323.0344 427.5056,322.6312 426.6619,322.6312 C424.89,322.6312 423.4931,323.9156 423.4931,326.1188 C423.4931,328.35 424.9181,329.5219 426.5681,329.5219 Z " fill="#000000"/><text fill="#000000" font-family="sans-serif" font-size="8.4" lengthAdjust="spacing" textLength="76.8" x="437.46" y="328.6711">IntervalChannelData</text><line style="stroke:#181818;stroke-width:0.3;" x1="406.8" x2="526.8" y1="335.4" y2="335.4"/><text fill="#000000" font-family="sans-serif" font-size="8.4" lengthAdjust="spacing" textLength="87" x="409.8" y="345.593">raw_data : raggedarray</text><text fill="#000000" font-family="sans-serif" font-size="8.4" lengthAdjust="spacing" textLength="114" x="409.8" y="355.4367">counts : np.ndarray(dtype=int)</text><text fill="#000000" font-family="sans-serif" font-size="8.4" lengthAdjust="spacing" textLength="71.4" x="409.8" y="365.2805">_mean : np.ndarray</text><text fill="#000000" font-family="sans-serif" font-size="8.4" lengthAdjust="spacing" textLength="62.4" x="409.8" y="375.1242">_std : np.ndarray</text><line style="stroke:#181818;stroke-width:0.3;" x1="406.8" x2="526.8" y1="379.575" y2="379.575"/><text fill="#000000" font-family="sans-serif" font-size="8.4" lengthAdjust="spacing" textLength="27" x="409.8" y="389.768">mean()</text><text fill="#000000" font-family="sans-serif" font-size="8.4" lengthAdjust="spacing" textLength="18" x="409.8" y="399.6117">std()</text><text fill="#000000" font-family="sans-serif" font-size="8.4" lengthAdjust="spacing" textLength="58.8" x="409.8" y="409.4555">has_raw_data()</text></g><!--class IntervalNormalizedChannelData--><g id="elem_IntervalNormalizedChannelData"><rect codeLine="103" fill="#F1F1F1" height="48.4875" id="IntervalNormalizedChannelData" rx="1.5" ry="1.5" style="stroke:#181818;stroke-width:0.3;" width="138.6" x="490.5" y="456.3"/><ellipse cx="499.5" cy="465.9" fill="#ADD1B2" rx="6.6" ry="6.6" style="stroke:#181818;stroke-width:0.6;"/><path d="M499.5281,469.6219 C500.4281,469.6219 501.1688,469.2844 501.7125,468.6469 L500.8875,467.7375 C500.5594,468.0938 500.1656,468.3281 499.6875,468.3281 C498.6844,468.3281 497.9906,467.5313 497.9906,466.1625 C497.9906,464.8312 498.6844,464.025 499.6219,464.025 C500.1094,464.025 500.4656,464.2125 500.7844,464.5031 L501.6094,463.575 C501.1594,463.1344 500.4656,462.7313 499.6219,462.7313 C497.85,462.7313 496.4531,464.0156 496.4531,466.2188 C496.4531,468.45 497.8781,469.6219 499.5281,469.6219 Z " fill="#000000"/><text fill="#000000" font-family="sans-serif" font-size="8.4" lengthAdjust="spacing" textLength="119.4" x="507.9" y="468.7711">IntervalNormalizedChannelData</text><line style="stroke:#181818;stroke-width:0.3;" x1="491.1" x2="628.5" y1="475.5" y2="475.5"/><text fill="#000000" font-family="sans-serif" font-size="8.4" lengthAdjust="spacing" textLength="114" x="494.1" y="485.693">normalized_data : raggedarray</text><text fill="#000000" font-family="sans-serif" font-size="8.4" lengthAdjust="spacing" textLength="116.4" x="494.1" y="495.5367">normalizing_data : raggedarray</text><line style="stroke:#181818;stroke-width:0.3;" x1="491.1" x2="628.5" y1="499.9875" y2="499.9875"/></g><!--class ArrayChannelData--><g id="elem_ArrayChannelData"><rect codeLine="108" fill="#F1F1F1" height="28.8" id="ArrayChannelData" rx="1.5" ry="1.5" style="stroke:#181818;stroke-width:0.3;" width="88.2" x="548.7" y="350.7"/><ellipse cx="557.7" cy="360.3" fill="#ADD1B2" rx="6.6" ry="6.6" style="stroke:#181818;stroke-width:0.6;"/><path d="M557.7281,364.0219 C558.6281,364.0219 559.3688,363.6844 559.9125,363.0469 L559.0875,362.1375 C558.7594,362.4938 558.3656,362.7281 557.8875,362.7281 C556.8844,362.7281 556.1906,361.9313 556.1906,360.5625 C556.1906,359.2313 556.8844,358.425 557.8219,358.425 C558.3094,358.425 558.6656,358.6125 558.9844,358.9031 L559.8094,357.975 C559.3594,357.5344 558.6656,357.1312 557.8219,357.1312 C556.05,357.1312 554.6531,358.4156 554.6531,360.6188 C554.6531,362.85 556.0781,364.0219 557.7281,364.0219 Z " fill="#000000"/><text fill="#000000" font-family="sans-serif" font-size="8.4" lengthAdjust="spacing" textLength="69" x="566.1" y="363.1711">ArrayChannelData</text><line style="stroke:#181818;stroke-width:0.3;" x1="549.3" x2="636.3" y1="369.9" y2="369.9"/><line style="stroke:#181818;stroke-width:0.3;" x1="549.3" x2="636.3" y1="374.7" y2="374.7"/></g><!--class AreaChannelData--><g id="elem_AreaChannelData"><rect codeLine="111" fill="#F1F1F1" height="28.8" id="AreaChannelData" rx="1.5" ry="1.5" style="stroke:#181818;stroke-width:0.3;" width="85.2" x="658.2" y="350.7"/><ellipse cx="667.2" cy="360.3" fill="#ADD1B2" rx="6.6" ry="6.6" style="stroke:#181818;stroke-width:0.6;"/><path d="M667.2281,364.0219 C668.1281,364.0219 668.8688,363.6844 669.4125,363.0469 L668.5875,362.1375 C668.2594,362.4938 667.8656,362.7281 667.3875,362.7281 C666.3844,362.7281 665.6906,361.9313 665.6906,360.5625 C665.6906,359.2313 666.3844,358.425 667.3219,358.425 C667.8094,358.425 668.1656,358.6125 668.4844,358.9031 L669.3094,357.975 C668.8594,357.5344 668.1656,357.1312 667.3219,357.1312 C665.55,357.1312 664.1531,358.4156 664.1531,360.6188 C664.1531,362.85 665.5781,364.0219 667.2281,364.0219 Z " fill="#000000"/><text fill="#000000" font-family="sans-serif" font-size="8.4" lengthAdjust="spacing" textLength="66" x="675.6" y="363.1711">AreaChannelData</text><line style="stroke:#181818;stroke-width:0.3;" x1="658.8" x2="742.8" y1="369.9" y2="369.9"/><line style="stroke:#181818;stroke-width:0.3;" x1="658.8" x2="742.8" y1="374.7" y2="374.7"/></g><!--reverse link Data to DataImporter--><g id="link_Data_DataImporter"><path codeLine="31" d="M523.218,55.2 C530.19,55.2 529.962,55.2 536.934,55.2 " fill="none" id="Data-backto-DataImporter" style="stroke:#181818;stroke-width:0.6;"/><polygon fill="#181818" points="516.018,55.2,519.618,57.6,523.218,55.2,519.618,52.8,516.018,55.2" style="stroke:#181818;stroke-width:0.6;"/></g><!--reverse link Data to Metadata--><g id="link_Data_Metadata"><path codeLine="32" d="M426.099,94.0664 C418.311,100.4084 415.392,101.994 406.8,106.8 C361.752,131.988 344.268,123.504 296.4,142.8 C292.83,144.24 289.122,145.86 285.486,147.534 " fill="none" id="Data-backto-Metadata" style="stroke:#181818;stroke-width:0.6;"/><polygon fill="#181818" points="431.682,89.52,427.375,89.9322,426.099,94.0664,430.406,93.6542,431.682,89.52" style="stroke:#181818;stroke-width:0.6;"/></g><!--reverse link Data to MeasureData--><g id="link_Data_MeasureData"><path d="M466.8,100.302 C466.8,117.93 466.8,128.034 466.8,142.746 " fill="none" id="Data-backto-MeasureData" style="stroke:#181818;stroke-width:0.6;"/><polygon fill="none" points="466.8,89.502,463.2,100.302,470.4,100.302,466.8,89.502" style="stroke:#181818;stroke-width:0.6;"/></g><!--reverse link Data to MonitorData--><g id="link_Data_MonitorData"><path d="M512.507,96.3196 C519.815,102.3556 519.234,101.52 526.8,106.8 C545.754,120.036 568.164,132.858 586.626,142.746 " fill="none" id="Data-backto-MonitorData" style="stroke:#181818;stroke-width:0.6;"/><polygon fill="none" points="504.18,89.442,510.2144,99.0953,514.7995,93.544,504.18,89.442" style="stroke:#181818;stroke-width:0.6;"/></g><!--reverse link MeasureData to AxisData--><g id="link_MeasureData_AxisData"><path d="M391.3462,181.4644 C332.1862,196.3444 263.52,213.924 256.8,217.2 C253.218,218.946 249.642,221.07 246.204,223.362 " fill="none" id="MeasureData-backto-AxisData" style="stroke:#181818;stroke-width:0.6;"/><polygon fill="none" points="401.82,178.83,390.4681,177.9731,392.2243,184.9556,401.82,178.83" style="stroke:#181818;stroke-width:0.6;"/></g><!--reverse link MeasureData to ChannelData--><g id="link_MeasureData_ChannelData"><path d="M466.8,192.048 C466.8,207.36 466.8,217.908 466.8,231.768 " fill="none" id="MeasureData-backto-ChannelData" style="stroke:#181818;stroke-width:0.6;"/><polygon fill="none" points="466.8,181.248,463.2,192.048,470.4,192.048,466.8,181.248" style="stroke:#181818;stroke-width:0.6;"/></g><!--reverse link MeasureData to TimestampData--><g id="link_MeasureData_TimestampData"><path d="M505.2679,187.0395 C521.9179,197.6175 533.976,205.278 552.672,217.158 " fill="none" id="MeasureData-backto-TimestampData" style="stroke:#181818;stroke-width:0.6;"/><polygon fill="none" points="496.152,181.248,503.3374,190.0781,507.1984,184.0008,496.152,181.248" style="stroke:#181818;stroke-width:0.6;"/></g><!--reverse link ChannelData to SinglePointChannelData--><g id="link_ChannelData_SinglePointChannelData"><path d="M439.7211,266.8381 C431.9931,272.1301 431.568,271.68 422.4,275.4 C347.766,305.67 318.786,279.582 244.8,311.4 C222.108,321.156 199.362,338.394 184.836,350.574 " fill="none" id="ChannelData-backto-SinglePointChannelData" style="stroke:#181818;stroke-width:0.6;"/><polygon fill="none" points="448.632,260.736,437.687,263.8677,441.7551,269.8084,448.632,260.736" style="stroke:#181818;stroke-width:0.6;"/></g><!--reverse link SinglePointChannelData to SinglePointNormalizedChannelData--><g id="link_SinglePointChannelData_SinglePointNormalizedChannelData"><path d="M151.6841,388.2446 C136.9121,407.2586 116.928,432.984 98.97,456.102 " fill="none" id="SinglePointChannelData-backto-SinglePointNormalizedChannelData" style="stroke:#181818;stroke-width:0.6;"/><polygon fill="none" points="158.31,379.716,148.8412,386.036,154.527,390.4533,158.31,379.716" style="stroke:#181818;stroke-width:0.6;"/></g><!--reverse link ChannelData to AverageChannelData--><g id="link_ChannelData_AverageChannelData"><path d="M441.0112,267.6149 C425.0692,280.4249 408.846,293.454 385.35,312.33 " fill="none" id="ChannelData-backto-AverageChannelData" style="stroke:#181818;stroke-width:0.6;"/><polygon fill="none" points="449.43,260.85,438.7562,264.8086,443.2661,270.4211,449.43,260.85" style="stroke:#181818;stroke-width:0.6;"/></g><!--reverse link AverageChannelData to AverageNormalizedChannelData--><g id="link_AverageChannelData_AverageNormalizedChannelData"><path d="M363.0585,427.7357 C372.0345,440.7917 375.09,445.236 382.572,456.108 " fill="none" id="AverageChannelData-backto-AverageNormalizedChannelData" style="stroke:#181818;stroke-width:0.6;"/><polygon fill="none" points="356.94,418.836,360.092,429.7752,366.0251,425.6961,356.94,418.836" style="stroke:#181818;stroke-width:0.6;"/></g><!--reverse link ChannelData to IntervalChannelData--><g id="link_ChannelData_IntervalChannelData"><path d="M466.8,271.65 C466.8,285.282 466.8,296.022 466.8,315.948 " fill="none" id="ChannelData-backto-IntervalChannelData" style="stroke:#181818;stroke-width:0.6;"/><polygon fill="none" points="466.8,260.85,463.2,271.65,470.4,271.65,466.8,260.85" style="stroke:#181818;stroke-width:0.6;"/></g><!--reverse link IntervalChannelData to IntervalNormalizedChannelData--><g id="link_IntervalChannelData_IntervalNormalizedChannelData"><path d="M512.9225,422.3831 C524.8205,437.0051 530.544,444.042 540.51,456.294 " fill="none" id="IntervalChannelData-backto-IntervalNormalizedChannelData" style="stroke:#181818;stroke-width:0.6;"/><polygon fill="none" points="506.106,414.006,510.1301,424.6552,515.7148,420.1109,506.106,414.006" style="stroke:#181818;stroke-width:0.6;"/></g><!--reverse link ChannelData to ArrayChannelData--><g id="link_ChannelData_ArrayChannelData"><path d="M490.6207,268.0026 C505.1887,280.9566 519.312,293.694 538.2,311.4 C552.186,324.51 567.846,339.804 578.796,350.604 " fill="none" id="ChannelData-backto-ArrayChannelData" style="stroke:#181818;stroke-width:0.6;"/><polygon fill="none" points="482.55,260.826,488.2285,270.6928,493.0129,265.3123,482.55,260.826" style="stroke:#181818;stroke-width:0.6;"/></g><!--reverse link ChannelData to AreaChannelData--><g id="link_ChannelData_AreaChannelData"><path d="M494.4655,266.8024 C502.1275,271.9744 502.314,271.488 511.2,275.4 C568.512,300.618 593.082,280.26 647.4,311.4 C664.866,321.414 680.646,338.592 690.444,350.694 " fill="none" id="ChannelData-backto-AreaChannelData" style="stroke:#181818;stroke-width:0.6;"/><polygon fill="none" points="485.514,260.76,492.4513,269.7863,496.4796,263.8186,485.514,260.76" style="stroke:#181818;stroke-width:0.6;"/></g><!--SRC=[jLPBQnin4BxxLmovr2c9QGgz648n3IKvj0JIOy5CLhEscbrfaRHst93_tj5ZrxAzJW9jVR4qciStCzz8-yu-IDMWmHf48-7YquVHgAZGMhX2X_0q0lxLv53uxHI-fMMGpvDGDHCbq1ZSHB6i6sqS6JxoNcxIDXnwa_7fw7caj2Eeg7IWow0sdSvxpoTXUGAjRR6gDb1evL0g2mWNLn120Ie1aYL5GTQI27OhYU2MbAB0Wfo7mVYNMi3uTiF_2XgZ6p9kSyggw89TmL5iiCm10okNqbYNWe0iGP5VeTbCHi7ogpOWbP0hAHWg54jKYYfOOTMI1KkCXOnSaO1GLhB1QhOYWmlw4hL3gNqwDugZicacJs5cFkLzzPaXt94P0gjhMdTfsOOAoQWmvDQN4KZori37gr0eu1GGAcb3AwBa_XSLBc8Tiq61bloXh1cr3S6naWzqEXaHhtqlSzxq1OpyiRer1OLbf4OWGDBl6CMwYHH6BfPk2dU-TX8NdfkbDZzLJyDQYxOYhap8-ltvBikIy7pBrJuIsjPGEAT7ny1tMFvKIgh4CpJQIYSraordzbYuJKENKhaSkrRIQVEQnrfMN5tYweitE9qzIhlZCSST7SzBzaXYEo_PVZjSeOw-Qvt7eDep9TemFHkE8jN2ivrf4PHoLWNcU8EcqZnEtFc57qKt2PhNf0ho_U5UbIKPKguR0dl60wYOw3p1SVPxZIwszx_cDUSglKT6adCfXp5SZRvgFsHDrc7Tl5AwhYVpCDZprvkzOyIXtch3Tq-lENOTkZDFNhhqVhAMtt7vAxhLR3oKSYvx6ZBwhatDy_YRn93v4U-n7getFNARTmhiP41Zozh36sqGVl1fSDtvOgC5PU6wKYDJhMxSopMUruHgu06oJXnAlUuusl5vMc64tO-EbotHpZk4sscwP_BhEepJGQgxhkBTpy-F8TSQfebMQG3u-U5xDBqDBJzQu7Hd1vh_qsr_hTSWDEj4p6bmugGR1f4yyCNiety-k8CJmfTfCT2nOvJORz809t8L9aK2Cl2W_Hqj2jsg_qwA0mBiPVDoNOTo_dU5JGtU_nmOBcgcl_kbS4pz3m00]--></g></svg>