<?xml version="1.0" encoding="us-ascii" standalone="no"?><svg xmlns="http://www.w3.org/2000/svg" xmlns:xlink="http://www.w3.org/1999/xlink" contentStyleType="text/css" height="367px" preserveAspectRatio="none" style="width:662px;height:367px;background:#FFFFFF;" version="1.1" viewBox="0 0 662 367" width="662px" zoomAndPan="magnify"><defs/><g><!--class Measurement--><g id="elem_Measurement"><rect codeLine="3" fill="#F1F1F1" height="195.6563" id="Measurement" rx="2.5" ry="2.5" style="stroke:#181818;stroke-width:0.5;" width="197" x="247" y="7"/><ellipse cx="298.25" cy="23" fill="#ADD1B2" rx="11" ry="11" style="stroke:#181818;stroke-width:1.0;"/><path d="M298.2969,29.2031 C299.7969,29.2031 301.0313,28.6406 301.9375,27.5781 L300.5625,26.0625 C300.0156,26.6563 299.3594,27.0469 298.5625,27.0469 C296.8906,27.0469 295.7344,25.7188 295.7344,23.4375 C295.7344,21.2188 296.8906,19.875 298.4531,19.875 C299.2656,19.875 299.8594,20.1875 300.3906,20.6719 L301.7656,19.125 C301.0156,18.3906 299.8594,17.7188 298.4531,17.7188 C295.5,17.7188 293.1719,19.8594 293.1719,23.5313 C293.1719,27.25 295.5469,29.2031 298.2969,29.2031 Z " fill="#000000"/><text fill="#000000" font-family="sans-serif" font-size="14" lengthAdjust="spacing" textLength="86" x="318.75" y="27.7852">Measurement</text><line style="stroke:#181818;stroke-width:0.5;" x1="248" x2="443" y1="39" y2="39"/><text fill="#000000" font-family="sans-serif" font-size="14" lengthAdjust="spacing" textLength="129" x="253" y="55.9883">detectors[] : Detector</text><text fill="#000000" font-family="sans-serif" font-size="14" lengthAdjust="spacing" textLength="100" x="253" y="72.3945">motors[] : Motor</text><text fill="#000000" font-family="sans-serif" font-size="14" lengthAdjust="spacing" textLength="110" x="253" y="88.8008">machine[] : Device</text><text fill="#000000" font-family="sans-serif" font-size="14" lengthAdjust="spacing" textLength="113" x="253" y="105.207">beamline[] : Device</text><text fill="#000000" font-family="sans-serif" font-size="14" lengthAdjust="spacing" textLength="131" x="253" y="121.6133">metadata : Metadata</text><text fill="#000000" font-family="sans-serif" font-size="14" lengthAdjust="spacing" textLength="70" x="253" y="138.0195">scan : Scan</text><text fill="#000000" font-family="sans-serif" font-size="14" lengthAdjust="spacing" textLength="80" x="253" y="154.4258">setup : Setup</text><text fill="#000000" font-family="sans-serif" font-size="14" lengthAdjust="spacing" textLength="185" x="253" y="170.832">log_messages[] : LogMessage</text><line style="stroke:#181818;stroke-width:0.5;" x1="248" x2="443" y1="178.25" y2="178.25"/><text fill="#000000" font-family="sans-serif" font-size="14" lengthAdjust="spacing" textLength="141" x="253" y="195.2383">import_from(Importer)</text></g><!--class Metadata--><g id="elem_Metadata"><rect codeLine="21" fill="#F1F1F1" height="48" id="Metadata" rx="2.5" ry="2.5" style="stroke:#181818;stroke-width:0.5;" width="93" x="7" y="287.5"/><ellipse cx="22" cy="303.5" fill="#ADD1B2" rx="11" ry="11" style="stroke:#181818;stroke-width:1.0;"/><path d="M22.0469,309.7031 C23.5469,309.7031 24.7813,309.1406 25.6875,308.0781 L24.3125,306.5625 C23.7656,307.1563 23.1094,307.5469 22.3125,307.5469 C20.6406,307.5469 19.4844,306.2188 19.4844,303.9375 C19.4844,301.7188 20.6406,300.375 22.2031,300.375 C23.0156,300.375 23.6094,300.6875 24.1406,301.1719 L25.5156,299.625 C24.7656,298.8906 23.6094,298.2188 22.2031,298.2188 C19.25,298.2188 16.9219,300.3594 16.9219,304.0313 C16.9219,307.75 19.2969,309.7031 22.0469,309.7031 Z " fill="#000000"/><text fill="#000000" font-family="sans-serif" font-size="14" lengthAdjust="spacing" textLength="61" x="36" y="308.2852">Metadata</text><line style="stroke:#181818;stroke-width:0.5;" x1="8" x2="99" y1="319.5" y2="319.5"/><line style="stroke:#181818;stroke-width:0.5;" x1="8" x2="99" y1="327.5" y2="327.5"/></g><!--class Detector--><g id="elem_Detector"><rect codeLine="24" fill="#F1F1F1" height="97.2188" id="Detector" rx="2.5" ry="2.5" style="stroke:#181818;stroke-width:0.5;" width="196" x="135.5" y="263"/><ellipse cx="202.75" cy="279" fill="#ADD1B2" rx="11" ry="11" style="stroke:#181818;stroke-width:1.0;"/><path d="M202.7969,285.2031 C204.2969,285.2031 205.5313,284.6406 206.4375,283.5781 L205.0625,282.0625 C204.5156,282.6563 203.8594,283.0469 203.0625,283.0469 C201.3906,283.0469 200.2344,281.7188 200.2344,279.4375 C200.2344,277.2188 201.3906,275.875 202.9531,275.875 C203.7656,275.875 204.3594,276.1875 204.8906,276.6719 L206.2656,275.125 C205.5156,274.3906 204.3594,273.7188 202.9531,273.7188 C200,273.7188 197.6719,275.8594 197.6719,279.5313 C197.6719,283.25 200.0469,285.2031 202.7969,285.2031 Z " fill="#000000"/><text fill="#000000" font-family="sans-serif" font-size="14" lengthAdjust="spacing" textLength="53" x="223.25" y="283.7852">Detector</text><line style="stroke:#181818;stroke-width:0.5;" x1="136.5" x2="330.5" y1="295" y2="295"/><text fill="#000000" font-family="sans-serif" font-size="14" lengthAdjust="spacing" textLength="154" x="141.5" y="311.9883">channels[] : ChannelData</text><text fill="#000000" font-family="sans-serif" font-size="14" lengthAdjust="spacing" textLength="136" x="141.5" y="328.3945">options[] : OptionData</text><text fill="#000000" font-family="sans-serif" font-size="14" lengthAdjust="spacing" textLength="184" x="141.5" y="344.8008">metadata : DetectorMetadata</text><line style="stroke:#181818;stroke-width:0.5;" x1="136.5" x2="330.5" y1="352.2188" y2="352.2188"/></g><!--class Motor--><g id="elem_Motor"><rect codeLine="30" fill="#F1F1F1" height="97.2188" id="Motor" rx="2.5" ry="2.5" style="stroke:#181818;stroke-width:0.5;" width="181" x="367" y="263"/><ellipse cx="434.25" cy="279" fill="#ADD1B2" rx="11" ry="11" style="stroke:#181818;stroke-width:1.0;"/><path d="M434.2969,285.2031 C435.7969,285.2031 437.0313,284.6406 437.9375,283.5781 L436.5625,282.0625 C436.0156,282.6563 435.3594,283.0469 434.5625,283.0469 C432.8906,283.0469 431.7344,281.7188 431.7344,279.4375 C431.7344,277.2188 432.8906,275.875 434.4531,275.875 C435.2656,275.875 435.8594,276.1875 436.3906,276.6719 L437.7656,275.125 C437.0156,274.3906 435.8594,273.7188 434.4531,273.7188 C431.5,273.7188 429.1719,275.8594 429.1719,279.5313 C429.1719,283.25 431.5469,285.2031 434.2969,285.2031 Z " fill="#000000"/><text fill="#000000" font-family="sans-serif" font-size="14" lengthAdjust="spacing" textLength="38" x="454.75" y="283.7852">Motor</text><line style="stroke:#181818;stroke-width:0.5;" x1="368" x2="547" y1="295" y2="295"/><text fill="#000000" font-family="sans-serif" font-size="14" lengthAdjust="spacing" textLength="102" x="373" y="311.9883">axes[] : AxisData</text><text fill="#000000" font-family="sans-serif" font-size="14" lengthAdjust="spacing" textLength="136" x="373" y="328.3945">options[] : OptionData</text><text fill="#000000" font-family="sans-serif" font-size="14" lengthAdjust="spacing" textLength="169" x="373" y="344.8008">metadata : MotorMetadata</text><line style="stroke:#181818;stroke-width:0.5;" x1="368" x2="547" y1="352.2188" y2="352.2188"/></g><!--class Device--><g id="elem_Device"><rect codeLine="36" fill="#F1F1F1" height="48" id="Device" rx="2.5" ry="2.5" style="stroke:#181818;stroke-width:0.5;" width="72" x="583.5" y="287.5"/><ellipse cx="598.5" cy="303.5" fill="#ADD1B2" rx="11" ry="11" style="stroke:#181818;stroke-width:1.0;"/><path d="M598.5469,309.7031 C600.0469,309.7031 601.2813,309.1406 602.1875,308.0781 L600.8125,306.5625 C600.2656,307.1563 599.6094,307.5469 598.8125,307.5469 C597.1406,307.5469 595.9844,306.2188 595.9844,303.9375 C595.9844,301.7188 597.1406,300.375 598.7031,300.375 C599.5156,300.375 600.1094,300.6875 600.6406,301.1719 L602.0156,299.625 C601.2656,298.8906 600.1094,298.2188 598.7031,298.2188 C595.75,298.2188 593.4219,300.3594 593.4219,304.0313 C593.4219,307.75 595.7969,309.7031 598.5469,309.7031 Z " fill="#000000"/><text fill="#000000" font-family="sans-serif" font-size="14" lengthAdjust="spacing" textLength="40" x="612.5" y="308.2852">Device</text><line style="stroke:#181818;stroke-width:0.5;" x1="584.5" x2="654.5" y1="319.5" y2="319.5"/><line style="stroke:#181818;stroke-width:0.5;" x1="584.5" x2="654.5" y1="327.5" y2="327.5"/></g><!--reverse link Measurement to Metadata--><g id="link_Measurement_Metadata"><path codeLine="16" d="M236.8674,179.6378 C196.5574,207.2278 159.53,232.95 117.5,263 C106.58,270.81 94.75,279.52 84.26,287.33 " fill="none" id="Measurement-backto-Metadata" style="stroke:#181818;stroke-width:1.0;"/><polygon fill="#181818" points="246.77,172.86,239.5594,172.948,236.8674,179.6378,244.078,179.5498,246.77,172.86" style="stroke:#181818;stroke-width:1.0;"/></g><!--reverse link Measurement to Detector--><g id="link_Measurement_Detector"><path codeLine="17" d="M286.5268,213.6855 C275.1268,234.5055 269.33,245.08 259.52,262.99 " fill="none" id="Measurement-backto-Detector" style="stroke:#181818;stroke-width:1.0;"/><polygon fill="#181818" points="292.29,203.16,285.8999,206.5017,286.5268,213.6855,292.9169,210.3438,292.29,203.16" style="stroke:#181818;stroke-width:1.0;"/></g><!--reverse link Measurement to Motor--><g id="link_Measurement_Motor"><path codeLine="18" d="M404.4732,213.6855 C415.8732,234.5055 421.67,245.08 431.48,262.99 " fill="none" id="Measurement-backto-Motor" style="stroke:#181818;stroke-width:1.0;"/><polygon fill="#181818" points="398.71,203.16,398.0831,210.3438,404.4732,213.6855,405.1001,206.5017,398.71,203.16" style="stroke:#181818;stroke-width:1.0;"/></g><!--reverse link Measurement to Device--><g id="link_Measurement_Device"><path codeLine="19" d="M454.0895,180.1776 C492.5695,207.2076 526.81,232.31 565.5,263 C575.18,270.68 585.45,279.53 594.41,287.48 " fill="none" id="Measurement-backto-Device" style="stroke:#181818;stroke-width:1.0;"/><polygon fill="#181818" points="444.27,173.28,446.8805,180.002,454.0895,180.1776,451.479,173.4557,444.27,173.28" style="stroke:#181818;stroke-width:1.0;"/></g><!--SRC=[bL2nJiCm4Dtz5TaeI25xDqGN9A8EZ1Mg3kT8BDc-oBwWIXN_Jd9sJ4MxuCNttjdtxhsxWNcCswOPBNYUd7tKv1fj8SQwCz07S4e9h5g4E0LqwBawgse-7J9gfX0FxzMsscKaBKU5RwcGe0VZCR_-CXg5_a1mzWRlaA43XcL6BeMF6lpClSrNmiZJk13BBOob_kWmHkWnxV1AVPkmaWV6ZHJu-1d8RLwand2llfMwDFbGrx_2Vnl5xTKFkiLcMoNAxEoyQ2Pk7PYprGDuZpQj_vp0Ras0HZRaKsylTMbTXBPEB1wAbkoOXU2KCtewcVXF1PbpFJwP5NC_]--></g></svg>