<?xml version="1.0" encoding="us-ascii" standalone="no"?><svg xmlns="http://www.w3.org/2000/svg" xmlns:xlink="http://www.w3.org/1999/xlink" contentStyleType="text/css" height="841px" preserveAspectRatio="none" style="width:1101px;height:841px;background:#FFFFFF;" version="1.1" viewBox="0 0 1101 841" width="1101px" zoomAndPan="magnify"><defs/><g><!--cluster evedata--><g id="cluster_evedata"><path d="M8.5,6 L61.5,6 A3.75,3.75 0 0 1 64,8.5 L71,28.4063 L1091.5,28.4063 A2.5,2.5 0 0 1 1094,30.9063 L1094,831.5 A2.5,2.5 0 0 1 1091.5,834 L8.5,834 A2.5,2.5 0 0 1 6,831.5 L6,8.5 A2.5,2.5 0 0 1 8.5,6 " fill="none" style="stroke:#000000;stroke-width:1.5;"/><line style="stroke:#000000;stroke-width:1.5;" x1="6" x2="71" y1="28.4063" y2="28.4063"/><text fill="#000000" font-family="sans-serif" font-size="14" font-weight="bold" lengthAdjust="spacing" textLength="52" x="10" y="20.9883">evedata</text></g><!--cluster scan--><g id="cluster_scan"><path d="M806.5,49 L837.5,49 A3.75,3.75 0 0 1 840,51.5 L847,71.4063 L1067.5,71.4063 A2.5,2.5 0 0 1 1070,73.9063 L1070,807.5 A2.5,2.5 0 0 1 1067.5,810 L806.5,810 A2.5,2.5 0 0 1 804,807.5 L804,51.5 A2.5,2.5 0 0 1 806.5,49 " fill="none" style="stroke:#000000;stroke-width:1.5;"/><line style="stroke:#000000;stroke-width:1.5;" x1="804" x2="847" y1="71.4063" y2="71.4063"/><text fill="#000000" font-family="sans-serif" font-size="14" font-weight="bold" lengthAdjust="spacing" textLength="30" x="808" y="63.9883">scan</text></g><!--cluster boundaries--><g id="cluster_boundaries"><path d="M838.5,100 L911.5,100 A3.75,3.75 0 0 1 914,102.5 L921,122.4063 L1035.5,122.4063 A2.5,2.5 0 0 1 1038,124.9063 L1038,217.5 A2.5,2.5 0 0 1 1035.5,220 L838.5,220 A2.5,2.5 0 0 1 836,217.5 L836,102.5 A2.5,2.5 0 0 1 838.5,100 " fill="none" style="stroke:#000000;stroke-width:1.5;"/><line style="stroke:#000000;stroke-width:1.5;" x1="836" x2="921" y1="122.4063" y2="122.4063"/><text fill="#000000" font-family="sans-serif" font-size="14" font-weight="bold" lengthAdjust="spacing" textLength="72" x="840" y="114.9883">boundaries</text></g><!--cluster controllers--><g id="cluster_controllers"><path d="M838.5,260 L908.5,260 A3.75,3.75 0 0 1 911,262.5 L918,282.4063 L1030.5,282.4063 A2.5,2.5 0 0 1 1033,284.9063 L1033,377.5 A2.5,2.5 0 0 1 1030.5,380 L838.5,380 A2.5,2.5 0 0 1 836,377.5 L836,262.5 A2.5,2.5 0 0 1 838.5,260 " fill="none" style="stroke:#000000;stroke-width:1.5;"/><line style="stroke:#000000;stroke-width:1.5;" x1="836" x2="918" y1="282.4063" y2="282.4063"/><text fill="#000000" font-family="sans-serif" font-size="14" font-weight="bold" lengthAdjust="spacing" textLength="69" x="840" y="274.9883">controllers</text></g><!--cluster entities--><g id="cluster_entities"><path d="M838.5,420 L888.5,420 A3.75,3.75 0 0 1 891,422.5 L898,442.4063 L1030.5,442.4063 A2.5,2.5 0 0 1 1033,444.9063 L1033,775.5 A2.5,2.5 0 0 1 1030.5,778 L838.5,778 A2.5,2.5 0 0 1 836,775.5 L836,422.5 A2.5,2.5 0 0 1 838.5,420 " fill="none" style="stroke:#000000;stroke-width:1.5;"/><line style="stroke:#000000;stroke-width:1.5;" x1="836" x2="898" y1="442.4063" y2="442.4063"/><text fill="#000000" font-family="sans-serif" font-size="14" font-weight="bold" lengthAdjust="spacing" textLength="49" x="840" y="434.9883">entities</text></g><!--cluster evefile--><g id="cluster_evefile"><path d="M383.5,49 L428.5,49 A3.75,3.75 0 0 1 431,51.5 L438,71.4063 L777.5,71.4063 A2.5,2.5 0 0 1 780,73.9063 L780,807.5 A2.5,2.5 0 0 1 777.5,810 L383.5,810 A2.5,2.5 0 0 1 381,807.5 L381,51.5 A2.5,2.5 0 0 1 383.5,49 " fill="none" style="stroke:#000000;stroke-width:1.5;"/><line style="stroke:#000000;stroke-width:1.5;" x1="381" x2="438" y1="71.4063" y2="71.4063"/><text fill="#000000" font-family="sans-serif" font-size="14" font-weight="bold" lengthAdjust="spacing" textLength="44" x="385" y="63.9883">evefile</text></g><!--cluster boundaries--><g id="cluster_boundaries"><path d="M415.5,100 L488.5,100 A3.75,3.75 0 0 1 491,102.5 L498,122.4063 L636.5,122.4063 A2.5,2.5 0 0 1 639,124.9063 L639,217.5 A2.5,2.5 0 0 1 636.5,220 L415.5,220 A2.5,2.5 0 0 1 413,217.5 L413,102.5 A2.5,2.5 0 0 1 415.5,100 " fill="none" style="stroke:#000000;stroke-width:1.5;"/><line style="stroke:#000000;stroke-width:1.5;" x1="413" x2="498" y1="122.4063" y2="122.4063"/><text fill="#000000" font-family="sans-serif" font-size="14" font-weight="bold" lengthAdjust="spacing" textLength="72" x="417" y="114.9883">boundaries</text></g><!--cluster controllers--><g id="cluster_controllers"><path d="M415.5,260 L485.5,260 A3.75,3.75 0 0 1 488,262.5 L495,282.4063 L745.5,282.4063 A2.5,2.5 0 0 1 748,284.9063 L748,377.5 A2.5,2.5 0 0 1 745.5,380 L415.5,380 A2.5,2.5 0 0 1 413,377.5 L413,262.5 A2.5,2.5 0 0 1 415.5,260 " fill="none" style="stroke:#000000;stroke-width:1.5;"/><line style="stroke:#000000;stroke-width:1.5;" x1="413" x2="495" y1="282.4063" y2="282.4063"/><text fill="#000000" font-family="sans-serif" font-size="14" font-weight="bold" lengthAdjust="spacing" textLength="69" x="417" y="274.9883">controllers</text></g><!--cluster entities--><g id="cluster_entities"><path d="M415.5,420 L465.5,420 A3.75,3.75 0 0 1 468,422.5 L475,442.4063 L548.5,442.4063 A2.5,2.5 0 0 1 551,444.9063 L551,775.5 A2.5,2.5 0 0 1 548.5,778 L415.5,778 A2.5,2.5 0 0 1 413,775.5 L413,422.5 A2.5,2.5 0 0 1 415.5,420 " fill="none" style="stroke:#000000;stroke-width:1.5;"/><line style="stroke:#000000;stroke-width:1.5;" x1="413" x2="475" y1="442.4063" y2="442.4063"/><text fill="#000000" font-family="sans-serif" font-size="14" font-weight="bold" lengthAdjust="spacing" textLength="49" x="417" y="434.9883">entities</text></g><!--cluster measurement--><g id="cluster_measurement"><path d="M32.5,49 L122.5,49 A3.75,3.75 0 0 1 125,51.5 L132,71.4063 L354.5,71.4063 A2.5,2.5 0 0 1 357,73.9063 L357,569.5 A2.5,2.5 0 0 1 354.5,572 L32.5,572 A2.5,2.5 0 0 1 30,569.5 L30,51.5 A2.5,2.5 0 0 1 32.5,49 " fill="none" style="stroke:#000000;stroke-width:1.5;"/><line style="stroke:#000000;stroke-width:1.5;" x1="30" x2="132" y1="71.4063" y2="71.4063"/><text fill="#000000" font-family="sans-serif" font-size="14" font-weight="bold" lengthAdjust="spacing" textLength="89" x="34" y="63.9883">measurement</text></g><!--cluster boundaries--><g id="cluster_boundaries"><path d="M64.5,100 L137.5,100 A3.75,3.75 0 0 1 140,102.5 L147,122.4063 L236.5,122.4063 A2.5,2.5 0 0 1 239,124.9063 L239,217.5 A2.5,2.5 0 0 1 236.5,220 L64.5,220 A2.5,2.5 0 0 1 62,217.5 L62,102.5 A2.5,2.5 0 0 1 64.5,100 " fill="none" style="stroke:#000000;stroke-width:1.5;"/><line style="stroke:#000000;stroke-width:1.5;" x1="62" x2="147" y1="122.4063" y2="122.4063"/><text fill="#000000" font-family="sans-serif" font-size="14" font-weight="bold" lengthAdjust="spacing" textLength="72" x="66" y="114.9883">boundaries</text></g><!--cluster controllers--><g id="cluster_controllers"><path d="M64.5,260 L134.5,260 A3.75,3.75 0 0 1 137,262.5 L144,282.4063 L322.5,282.4063 A2.5,2.5 0 0 1 325,284.9063 L325,377.5 A2.5,2.5 0 0 1 322.5,380 L64.5,380 A2.5,2.5 0 0 1 62,377.5 L62,262.5 A2.5,2.5 0 0 1 64.5,260 " fill="none" style="stroke:#000000;stroke-width:1.5;"/><line style="stroke:#000000;stroke-width:1.5;" x1="62" x2="144" y1="282.4063" y2="282.4063"/><text fill="#000000" font-family="sans-serif" font-size="14" font-weight="bold" lengthAdjust="spacing" textLength="69" x="66" y="274.9883">controllers</text></g><!--cluster entities--><g id="cluster_entities"><path d="M64.5,420 L114.5,420 A3.75,3.75 0 0 1 117,422.5 L124,442.4063 L293.5,442.4063 A2.5,2.5 0 0 1 296,444.9063 L296,537.5 A2.5,2.5 0 0 1 293.5,540 L64.5,540 A2.5,2.5 0 0 1 62,537.5 L62,422.5 A2.5,2.5 0 0 1 64.5,420 " fill="none" style="stroke:#000000;stroke-width:1.5;"/><line style="stroke:#000000;stroke-width:1.5;" x1="62" x2="124" y1="442.4063" y2="442.4063"/><text fill="#000000" font-family="sans-serif" font-size="14" font-weight="bold" lengthAdjust="spacing" textLength="49" x="66" y="434.9883">entities</text></g><path d="M881.5,143 L912.5,143 A3.75,3.75 0 0 1 915,145.5 L922,165.4063 L926.5,165.4063 A2.5,2.5 0 0 1 929,167.9063 L929,193.3125 A2.5,2.5 0 0 1 926.5,195.8125 L881.5,195.8125 A2.5,2.5 0 0 1 879,193.3125 L879,145.5 A2.5,2.5 0 0 1 881.5,143 " fill="#F1F1F1" style="stroke:#181818;stroke-width:0.5;"/><line style="stroke:#181818;stroke-width:0.5;" x1="879" x2="922" y1="165.4063" y2="165.4063"/><text fill="#000000" font-family="sans-serif" font-size="14" font-weight="bold" lengthAdjust="spacing" textLength="30" x="883" y="157.9883">scan</text><path d="M966.5,143 L997.5,143 A3.75,3.75 0 0 1 1000,145.5 L1007,165.4063 L1011.5,165.4063 A2.5,2.5 0 0 1 1014,167.9063 L1014,193.3125 A2.5,2.5 0 0 1 1011.5,195.8125 L966.5,195.8125 A2.5,2.5 0 0 1 964,193.3125 L964,145.5 A2.5,2.5 0 0 1 966.5,143 " fill="#F1F1F1" style="stroke:#181818;stroke-width:0.5;"/><line style="stroke:#181818;stroke-width:0.5;" x1="964" x2="1007" y1="165.4063" y2="165.4063"/><text fill="#000000" font-family="sans-serif" font-size="14" font-weight="bold" lengthAdjust="spacing" textLength="30" x="968" y="157.9883">scml</text><path d="M882,303 L992,303 A3.75,3.75 0 0 1 994.5,305.5 L1001.5,325.4063 L1006,325.4063 A2.5,2.5 0 0 1 1008.5,327.9063 L1008.5,353.3125 A2.5,2.5 0 0 1 1006,355.8125 L882,355.8125 A2.5,2.5 0 0 1 879.5,353.3125 L879.5,305.5 A2.5,2.5 0 0 1 882,303 " fill="#F1F1F1" style="stroke:#181818;stroke-width:0.5;"/><line style="stroke:#181818;stroke-width:0.5;" x1="879.5" x2="1001.5" y1="325.4063" y2="325.4063"/><text fill="#000000" font-family="sans-serif" font-size="14" font-weight="bold" lengthAdjust="spacing" textLength="109" x="883.5" y="317.9883">version_mapping</text><path d="M924,463 L946,463 A3.75,3.75 0 0 1 948.5,465.5 L955.5,485.4063 L960,485.4063 A2.5,2.5 0 0 1 962.5,487.9063 L962.5,513.3125 A2.5,2.5 0 0 1 960,515.8125 L924,515.8125 A2.5,2.5 0 0 1 921.5,513.3125 L921.5,465.5 A2.5,2.5 0 0 1 924,463 " fill="#F1F1F1" style="stroke:#181818;stroke-width:0.5;"/><line style="stroke:#181818;stroke-width:0.5;" x1="921.5" x2="955.5" y1="485.4063" y2="485.4063"/><text fill="#000000" font-family="sans-serif" font-size="14" font-weight="bold" lengthAdjust="spacing" textLength="21" x="925.5" y="477.9883">file</text><path d="M870.5,588 L907.5,588 A3.75,3.75 0 0 1 910,590.5 L917,610.4063 L921.5,610.4063 A2.5,2.5 0 0 1 924,612.9063 L924,638.3125 A2.5,2.5 0 0 1 921.5,640.8125 L870.5,640.8125 A2.5,2.5 0 0 1 868,638.3125 L868,590.5 A2.5,2.5 0 0 1 870.5,588 " fill="#F1F1F1" style="stroke:#181818;stroke-width:0.5;"/><line style="stroke:#181818;stroke-width:0.5;" x1="868" x2="917" y1="610.4063" y2="610.4063"/><text fill="#000000" font-family="sans-serif" font-size="14" font-weight="bold" lengthAdjust="spacing" textLength="36" x="872" y="602.9883">setup</text><path d="M961.5,588 L992.5,588 A3.75,3.75 0 0 1 995,590.5 L1002,610.4063 L1006.5,610.4063 A2.5,2.5 0 0 1 1009,612.9063 L1009,638.3125 A2.5,2.5 0 0 1 1006.5,640.8125 L961.5,640.8125 A2.5,2.5 0 0 1 959,638.3125 L959,590.5 A2.5,2.5 0 0 1 961.5,588 " fill="#F1F1F1" style="stroke:#181818;stroke-width:0.5;"/><line style="stroke:#181818;stroke-width:0.5;" x1="959" x2="1002" y1="610.4063" y2="610.4063"/><text fill="#000000" font-family="sans-serif" font-size="14" font-weight="bold" lengthAdjust="spacing" textLength="30" x="963" y="602.9883">scan</text><path d="M873.5,701 L910.5,701 A3.75,3.75 0 0 1 913,703.5 L920,723.4063 L924.5,723.4063 A2.5,2.5 0 0 1 927,725.9063 L927,751.3125 A2.5,2.5 0 0 1 924.5,753.8125 L873.5,753.8125 A2.5,2.5 0 0 1 871,751.3125 L871,703.5 A2.5,2.5 0 0 1 873.5,701 " fill="#F1F1F1" style="stroke:#181818;stroke-width:0.5;"/><line style="stroke:#181818;stroke-width:0.5;" x1="871" x2="920" y1="723.4063" y2="723.4063"/><text fill="#000000" font-family="sans-serif" font-size="14" font-weight="bold" lengthAdjust="spacing" textLength="36" x="875" y="715.9883">event</text><path d="M965,701 L991,701 A3.75,3.75 0 0 1 993.5,703.5 L1000.5,723.4063 L1005,723.4063 A2.5,2.5 0 0 1 1007.5,725.9063 L1007.5,751.3125 A2.5,2.5 0 0 1 1005,753.8125 L965,753.8125 A2.5,2.5 0 0 1 962.5,751.3125 L962.5,703.5 A2.5,2.5 0 0 1 965,701 " fill="#F1F1F1" style="stroke:#181818;stroke-width:0.5;"/><line style="stroke:#181818;stroke-width:0.5;" x1="962.5" x2="1000.5" y1="723.4063" y2="723.4063"/><text fill="#000000" font-family="sans-serif" font-size="14" font-weight="bold" lengthAdjust="spacing" textLength="25" x="966.5" y="715.9883">plot</text><path d="M458.5,143 L503.5,143 A3.75,3.75 0 0 1 506,145.5 L513,165.4063 L517.5,165.4063 A2.5,2.5 0 0 1 520,167.9063 L520,193.3125 A2.5,2.5 0 0 1 517.5,195.8125 L458.5,195.8125 A2.5,2.5 0 0 1 456,193.3125 L456,145.5 A2.5,2.5 0 0 1 458.5,143 " fill="#F1F1F1" style="stroke:#181818;stroke-width:0.5;"/><line style="stroke:#181818;stroke-width:0.5;" x1="456" x2="513" y1="165.4063" y2="165.4063"/><text fill="#000000" font-family="sans-serif" font-size="14" font-weight="bold" lengthAdjust="spacing" textLength="44" x="460" y="157.9883">evefile</text><path d="M558,143 L598,143 A3.75,3.75 0 0 1 600.5,145.5 L607.5,165.4063 L612,165.4063 A2.5,2.5 0 0 1 614.5,167.9063 L614.5,193.3125 A2.5,2.5 0 0 1 612,195.8125 L558,195.8125 A2.5,2.5 0 0 1 555.5,193.3125 L555.5,145.5 A2.5,2.5 0 0 1 558,143 " fill="#F1F1F1" style="stroke:#181818;stroke-width:0.5;"/><line style="stroke:#181818;stroke-width:0.5;" x1="555.5" x2="607.5" y1="165.4063" y2="165.4063"/><text fill="#000000" font-family="sans-serif" font-size="14" font-weight="bold" lengthAdjust="spacing" textLength="39" x="559.5" y="157.9883">eveh5</text><path d="M597,303 L707,303 A3.75,3.75 0 0 1 709.5,305.5 L716.5,325.4063 L721,325.4063 A2.5,2.5 0 0 1 723.5,327.9063 L723.5,353.3125 A2.5,2.5 0 0 1 721,355.8125 L597,355.8125 A2.5,2.5 0 0 1 594.5,353.3125 L594.5,305.5 A2.5,2.5 0 0 1 597,303 " fill="#F1F1F1" style="stroke:#181818;stroke-width:0.5;"/><line style="stroke:#181818;stroke-width:0.5;" x1="594.5" x2="716.5" y1="325.4063" y2="325.4063"/><text fill="#000000" font-family="sans-serif" font-size="14" font-weight="bold" lengthAdjust="spacing" textLength="109" x="598.5" y="317.9883">version_mapping</text><path d="M459,303 L543,303 A3.75,3.75 0 0 1 545.5,305.5 L552.5,325.4063 L557,325.4063 A2.5,2.5 0 0 1 559.5,327.9063 L559.5,353.3125 A2.5,2.5 0 0 1 557,355.8125 L459,355.8125 A2.5,2.5 0 0 1 456.5,353.3125 L456.5,305.5 A2.5,2.5 0 0 1 459,303 " fill="#F1F1F1" style="stroke:#181818;stroke-width:0.5;"/><line style="stroke:#181818;stroke-width:0.5;" x1="456.5" x2="552.5" y1="325.4063" y2="325.4063"/><text fill="#000000" font-family="sans-serif" font-size="14" font-weight="bold" lengthAdjust="spacing" textLength="83" x="460.5" y="317.9883">transforming</text><path d="M468,463 L490,463 A3.75,3.75 0 0 1 492.5,465.5 L499.5,485.4063 L504,485.4063 A2.5,2.5 0 0 1 506.5,487.9063 L506.5,513.3125 A2.5,2.5 0 0 1 504,515.8125 L468,515.8125 A2.5,2.5 0 0 1 465.5,513.3125 L465.5,465.5 A2.5,2.5 0 0 1 468,463 " fill="#F1F1F1" style="stroke:#181818;stroke-width:0.5;"/><line style="stroke:#181818;stroke-width:0.5;" x1="465.5" x2="499.5" y1="485.4063" y2="485.4063"/><text fill="#000000" font-family="sans-serif" font-size="14" font-weight="bold" lengthAdjust="spacing" textLength="21" x="469.5" y="477.9883">file</text><path d="M464,588 L494,588 A3.75,3.75 0 0 1 496.5,590.5 L503.5,610.4063 L508,610.4063 A2.5,2.5 0 0 1 510.5,612.9063 L510.5,638.3125 A2.5,2.5 0 0 1 508,640.8125 L464,640.8125 A2.5,2.5 0 0 1 461.5,638.3125 L461.5,590.5 A2.5,2.5 0 0 1 464,588 " fill="#F1F1F1" style="stroke:#181818;stroke-width:0.5;"/><line style="stroke:#181818;stroke-width:0.5;" x1="461.5" x2="503.5" y1="610.4063" y2="610.4063"/><text fill="#000000" font-family="sans-serif" font-size="14" font-weight="bold" lengthAdjust="spacing" textLength="29" x="465.5" y="602.9883">data</text><path d="M447.5,701 L510.5,701 A3.75,3.75 0 0 1 513,703.5 L520,723.4063 L524.5,723.4063 A2.5,2.5 0 0 1 527,725.9063 L527,751.3125 A2.5,2.5 0 0 1 524.5,753.8125 L447.5,753.8125 A2.5,2.5 0 0 1 445,751.3125 L445,703.5 A2.5,2.5 0 0 1 447.5,701 " fill="#F1F1F1" style="stroke:#181818;stroke-width:0.5;"/><line style="stroke:#181818;stroke-width:0.5;" x1="445" x2="520" y1="723.4063" y2="723.4063"/><text fill="#000000" font-family="sans-serif" font-size="14" font-weight="bold" lengthAdjust="spacing" textLength="62" x="449" y="715.9883">metadata</text><path d="M108,143 L198,143 A3.75,3.75 0 0 1 200.5,145.5 L207.5,165.4063 L212,165.4063 A2.5,2.5 0 0 1 214.5,167.9063 L214.5,193.3125 A2.5,2.5 0 0 1 212,195.8125 L108,195.8125 A2.5,2.5 0 0 1 105.5,193.3125 L105.5,145.5 A2.5,2.5 0 0 1 108,143 " fill="#F1F1F1" style="stroke:#181818;stroke-width:0.5;"/><line style="stroke:#181818;stroke-width:0.5;" x1="105.5" x2="207.5" y1="165.4063" y2="165.4063"/><text fill="#000000" font-family="sans-serif" font-size="14" font-weight="bold" lengthAdjust="spacing" textLength="89" x="109.5" y="157.9883">measurement</text><path d="M200,303 L284,303 A3.75,3.75 0 0 1 286.5,305.5 L293.5,325.4063 L298,325.4063 A2.5,2.5 0 0 1 300.5,327.9063 L300.5,353.3125 A2.5,2.5 0 0 1 298,355.8125 L200,355.8125 A2.5,2.5 0 0 1 197.5,353.3125 L197.5,305.5 A2.5,2.5 0 0 1 200,303 " fill="#F1F1F1" style="stroke:#181818;stroke-width:0.5;"/><line style="stroke:#181818;stroke-width:0.5;" x1="197.5" x2="293.5" y1="325.4063" y2="325.4063"/><text fill="#000000" font-family="sans-serif" font-size="14" font-weight="bold" lengthAdjust="spacing" textLength="83" x="201.5" y="317.9883">transforming</text><path d="M108,303 L146,303 A3.75,3.75 0 0 1 148.5,305.5 L155.5,325.4063 L160,325.4063 A2.5,2.5 0 0 1 162.5,327.9063 L162.5,353.3125 A2.5,2.5 0 0 1 160,355.8125 L108,355.8125 A2.5,2.5 0 0 1 105.5,353.3125 L105.5,305.5 A2.5,2.5 0 0 1 108,303 " fill="#F1F1F1" style="stroke:#181818;stroke-width:0.5;"/><line style="stroke:#181818;stroke-width:0.5;" x1="105.5" x2="155.5" y1="325.4063" y2="325.4063"/><text fill="#000000" font-family="sans-serif" font-size="14" font-weight="bold" lengthAdjust="spacing" textLength="37" x="109.5" y="317.9883">filling</text><path d="M225,463 L255,463 A3.75,3.75 0 0 1 257.5,465.5 L264.5,485.4063 L269,485.4063 A2.5,2.5 0 0 1 271.5,487.9063 L271.5,513.3125 A2.5,2.5 0 0 1 269,515.8125 L225,515.8125 A2.5,2.5 0 0 1 222.5,513.3125 L222.5,465.5 A2.5,2.5 0 0 1 225,463 " fill="#F1F1F1" style="stroke:#181818;stroke-width:0.5;"/><line style="stroke:#181818;stroke-width:0.5;" x1="222.5" x2="264.5" y1="485.4063" y2="485.4063"/><text fill="#000000" font-family="sans-serif" font-size="14" font-weight="bold" lengthAdjust="spacing" textLength="29" x="226.5" y="477.9883">data</text><path d="M107.5,463 L170.5,463 A3.75,3.75 0 0 1 173,465.5 L180,485.4063 L184.5,485.4063 A2.5,2.5 0 0 1 187,487.9063 L187,513.3125 A2.5,2.5 0 0 1 184.5,515.8125 L107.5,515.8125 A2.5,2.5 0 0 1 105,513.3125 L105,465.5 A2.5,2.5 0 0 1 107.5,463 " fill="#F1F1F1" style="stroke:#181818;stroke-width:0.5;"/><line style="stroke:#181818;stroke-width:0.5;" x1="105" x2="180" y1="485.4063" y2="485.4063"/><text fill="#000000" font-family="sans-serif" font-size="14" font-weight="bold" lengthAdjust="spacing" textLength="62" x="109" y="477.9883">metadata</text><!--link scan to scml--><g id="link_scan_scml"><path codeLine="8" d="M929.23,169.5 C940.75,169.5 946.27,169.5 957.79,169.5 " fill="none" id="scan-to-scml" style="stroke:#181818;stroke-width:1.0;"/><polygon fill="#181818" points="963.79,169.5,954.79,165.5,958.79,169.5,954.79,173.5,963.79,169.5" style="stroke:#181818;stroke-width:1.0;"/></g><!--link file to setup--><g id="link_file_setup"><path codeLine="25" d="M937.36,516.32 C933.53,534.61 927.22,559.45 918,580 C916.8,582.67 918.3741,580.1433 916.8741,582.7833 " fill="none" id="file-to-setup" style="stroke:#181818;stroke-width:1.0;"/><polygon fill="#181818" points="913.91,588,921.8339,582.1509,916.38,583.6527,914.8783,578.1989,913.91,588" style="stroke:#181818;stroke-width:1.0;"/></g><!--link file to scan--><g id="link_file_scan"><path codeLine="26" d="M950.8,516.28 C957.97,537.28 966.0997,561.0924 973.2697,582.0724 " fill="none" id="file-to-scan" style="stroke:#181818;stroke-width:1.0;"/><polygon fill="#181818" points="975.21,587.75,976.0846,577.94,973.593,583.0187,968.5144,580.5272,975.21,587.75" style="stroke:#181818;stroke-width:1.0;"/></g><!--link scan to event--><g id="link_scan_event"><path codeLine="27" d="M964.29,641.24 C950.55,659.18 935.9684,678.2266 922.2584,696.1266 " fill="none" id="scan-to-event" style="stroke:#181818;stroke-width:1.0;"/><polygon fill="#181818" points="918.61,700.89,927.2581,696.1772,921.6503,696.9205,920.907,691.3127,918.61,700.89" style="stroke:#181818;stroke-width:1.0;"/></g><!--link scan to plot--><g id="link_scan_plot"><path codeLine="28" d="M984.23,641.24 C984.39,659.18 984.5564,676.9902 984.7164,694.8902 " fill="none" id="scan-to-plot" style="stroke:#181818;stroke-width:1.0;"/><polygon fill="#181818" points="984.77,700.89,988.6894,691.8546,984.7253,695.8902,980.6897,691.9261,984.77,700.89" style="stroke:#181818;stroke-width:1.0;"/></g><!--link boundaries to controllers--><g id="link_boundaries_controllers"><path codeLine="30" d="M844,220.5361 C844,220.8165 844,221.0974 844,221.379 C844,230.3876 844,239.9572 844,249.5263 C844,251.9185 844,254.3107 844,256.6942 C844,257.29 844,257.8853 844,258.4799 C844,258.7773 844,259.0744 844,259.3713 C844,259.5198 844,253.6682 844,253.8166 " fill="none" id="boundaries-to-controllers" style="stroke:#181818;stroke-width:1.0;"/><polygon fill="#181818" points="844,259.8166,848,250.8166,844,254.8166,840,250.8166,844,259.8166" style="stroke:#181818;stroke-width:1.0;"/></g><!--link controllers to entities--><g id="link_controllers_entities"><path codeLine="31" d="M844,380.5361 C844,380.8165 844,381.0974 844,381.379 C844,390.3876 844,399.9572 844,409.5263 C844,411.9185 844,414.3107 844,416.6942 C844,417.29 844,417.8853 844,418.4799 C844,418.7773 844,419.0744 844,419.3713 C844,419.5198 844,413.6682 844,413.8166 " fill="none" id="controllers-to-entities" style="stroke:#181818;stroke-width:1.0;"/><polygon fill="#181818" points="844,419.8166,848,410.8166,844,414.8166,840,410.8166,844,419.8166" style="stroke:#181818;stroke-width:1.0;"/></g><!--link evefile to eveh5--><g id="link_evefile_eveh5"><path codeLine="38" d="M520.21,169.5 C531.93,169.5 537.66,169.5 549.39,169.5 " fill="none" id="evefile-to-eveh5" style="stroke:#181818;stroke-width:1.0;"/><polygon fill="#181818" points="555.39,169.5,546.39,165.5,550.39,169.5,546.39,173.5,555.39,169.5" style="stroke:#181818;stroke-width:1.0;"/></g><!--link file to data--><g id="link_file_data"><path codeLine="51" d="M486,516.28 C486,537.28 486,560.77 486,581.75 " fill="none" id="file-to-data" style="stroke:#181818;stroke-width:1.0;"/><polygon fill="#181818" points="486,587.75,490,578.75,486,582.75,482,578.75,486,587.75" style="stroke:#181818;stroke-width:1.0;"/></g><!--link data to metadata--><g id="link_data_metadata"><path codeLine="52" d="M486,641.24 C486,659.18 486,676.99 486,694.89 " fill="none" id="data-to-metadata" style="stroke:#181818;stroke-width:1.0;"/><polygon fill="#181818" points="486,700.89,490,691.89,486,695.89,482,691.89,486,700.89" style="stroke:#181818;stroke-width:1.0;"/></g><!--link boundaries to controllers--><g id="link_boundaries_controllers"><path codeLine="55" d="M421,220.5361 C421,220.8165 421,221.0974 421,221.379 C421,230.3876 421,239.9572 421,249.5263 C421,251.9185 421,254.3107 421,256.6942 C421,257.29 421,257.8853 421,258.4799 C421,258.7773 421,259.0744 421,259.3713 C421,259.5198 421,253.6682 421,253.8166 " fill="none" id="boundaries-to-controllers-1" style="stroke:#181818;stroke-width:1.0;"/><polygon fill="#181818" points="421,259.8166,425,250.8166,421,254.8166,417,250.8166,421,259.8166" style="stroke:#181818;stroke-width:1.0;"/></g><!--link controllers to entities--><g id="link_controllers_entities"><path codeLine="56" d="M421,380.5361 C421,380.8165 421,381.0974 421,381.379 C421,390.3876 421,399.9572 421,409.5263 C421,411.9185 421,414.3107 421,416.6942 C421,417.29 421,417.8853 421,418.4799 C421,418.7773 421,419.0744 421,419.3713 C421,419.5198 421,413.6682 421,413.8166 " fill="none" id="controllers-to-entities-1" style="stroke:#181818;stroke-width:1.0;"/><polygon fill="#181818" points="421,419.8166,425,410.8166,421,414.8166,417,410.8166,421,419.8166" style="stroke:#181818;stroke-width:1.0;"/></g><!--link boundaries to controllers--><g id="link_boundaries_controllers"><path codeLine="72" d="M70,220.5361 C70,220.8165 70,221.0974 70,221.379 C70,230.3876 70,239.9572 70,249.5263 C70,251.9185 70,254.3107 70,256.6942 C70,257.29 70,257.8853 70,258.4799 C70,258.7773 70,259.0744 70,259.3713 C70,259.5198 70,253.6682 70,253.8166 " fill="none" id="boundaries-to-controllers-2" style="stroke:#181818;stroke-width:1.0;"/><polygon fill="#181818" points="70,259.8166,74,250.8166,70,254.8166,66,250.8166,70,259.8166" style="stroke:#181818;stroke-width:1.0;"/></g><!--link controllers to entities--><g id="link_controllers_entities"><path codeLine="73" d="M70,380.5361 C70,380.8165 70,381.0974 70,381.379 C70,390.3876 70,399.9572 70,409.5263 C70,411.9185 70,414.3107 70,416.6942 C70,417.29 70,417.8853 70,418.4799 C70,418.7773 70,419.0744 70,419.3713 C70,419.5198 70,413.6682 70,413.8166 " fill="none" id="controllers-to-entities-2" style="stroke:#181818;stroke-width:1.0;"/><polygon fill="#181818" points="70,419.8166,74,410.8166,70,414.8166,66,410.8166,70,419.8166" style="stroke:#181818;stroke-width:1.0;"/></g><!--SRC=[fLJBRiCW4BpxAtphoLPxyBM_Kb6R92YyX75wYFplzOjemIoWDfSecM6OtPtbRRmpgOaXeXuqgp-wzwhIfB-JAwtfWmx4alfPrSid-BSTUo8F28FRRpN9WHX6Hy24x5raHZ31GspZDvyRzWBcj8bUIMiKvzHWBXuBn9Jy4aHh9g_mqemsbPPPlBmBupI0a5gfdNGPqsyxJbnyIbl4r5oTYTxFhOvcK3zoxVtgDG4l1YCpEz3D5GwlLYAznqBLx8hHMSSFmp2SJhjfLg05uTYNxs2g22CV_fSKEi1R5uBkp6xzrXK4rVdvrnv0cZL4ZXTbHF6kE0kPTS7eRV4UeGhW8VkZWg2MP5MyJLZP7heTTwZJgn9vZqG9XZOoMLG22tvOPohxWf9nCbJu3qk2bTy1Jx8aIb0zdsWigi4ZpOkJ3A_Ff7aFouoKxS84BpqD3sabd1_IZwGKbeLOSKSUvkeN]--></g></svg>