<?xml version="1.0" encoding="us-ascii" standalone="no"?><svg xmlns="http://www.w3.org/2000/svg" xmlns:xlink="http://www.w3.org/1999/xlink" contentStyleType="text/css" height="472px" preserveAspectRatio="none" style="width:601px;height:472px;background:#FFFFFF;" version="1.1" viewBox="0 0 601 472" width="601px" zoomAndPan="magnify"><defs/><g><!--class Plot--><g id="elem_Plot"><rect codeLine="3" fill="#F1F1F1" height="129.4844" id="Plot" rx="2.5" ry="2.5" style="stroke:#181818;stroke-width:0.5;" width="114" x="161.5" y="7"/><ellipse cx="201.7" cy="23" fill="#ADD1B2" rx="11" ry="11" style="stroke:#181818;stroke-width:1.0;"/><path d="M204.6688,28.6406 Q204.0906,28.9375 203.45,29.0781 Q202.8094,29.2344 202.1063,29.2344 Q199.6063,29.2344 198.2781,27.5938 Q196.9656,25.9375 196.9656,22.8125 Q196.9656,19.6875 198.2781,18.0313 Q199.6063,16.375 202.1063,16.375 Q202.8094,16.375 203.45,16.5313 Q204.1063,16.6875 204.6688,16.9844 L204.6688,19.7031 Q204.0438,19.125 203.45,18.8594 Q202.8563,18.5781 202.2313,18.5781 Q200.8875,18.5781 200.2,19.6563 Q199.5125,20.7188 199.5125,22.8125 Q199.5125,24.9063 200.2,25.9844 Q200.8875,27.0469 202.2313,27.0469 Q202.8563,27.0469 203.45,26.7813 Q204.0438,26.5 204.6688,25.9219 L204.6688,28.6406 Z " fill="#000000"/><text fill="#000000" font-family="sans-serif" font-size="14" lengthAdjust="spacing" textLength="26" x="221.3" y="27.8467">Plot</text><line style="stroke:#181818;stroke-width:0.5;" x1="162.5" x2="274.5" y1="39" y2="39"/><text fill="#000000" font-family="sans-serif" font-size="14" lengthAdjust="spacing" textLength="94" x="167.5" y="55.9951">name : string</text><text fill="#000000" font-family="sans-serif" font-size="14" lengthAdjust="spacing" textLength="88" x="167.5" y="72.292">xaxis : XAxis</text><text fill="#000000" font-family="sans-serif" font-size="14" lengthAdjust="spacing" textLength="93" x="167.5" y="88.5889">init : boolean</text><text fill="#000000" font-family="sans-serif" font-size="14" lengthAdjust="spacing" textLength="102" x="167.5" y="104.8857">yaxes : YAxis[]</text><text fill="#000000" font-family="sans-serif" font-size="14" lengthAdjust="spacing" textLength="77" x="167.5" y="121.1826">id : integer</text><line style="stroke:#181818;stroke-width:0.5;" x1="162.5" x2="274.5" y1="128.4844" y2="128.4844"/></g><!--class XAxis--><g id="elem_XAxis"><rect codeLine="24" fill="#F1F1F1" height="48" id="XAxis" rx="2.5" ry="2.5" style="stroke:#181818;stroke-width:0.5;" width="71" x="183" y="236.5"/><ellipse cx="198" cy="252.5" fill="#ADD1B2" rx="11" ry="11" style="stroke:#181818;stroke-width:1.0;"/><path d="M200.9688,258.1406 Q200.3906,258.4375 199.75,258.5781 Q199.1094,258.7344 198.4063,258.7344 Q195.9063,258.7344 194.5781,257.0938 Q193.2656,255.4375 193.2656,252.3125 Q193.2656,249.1875 194.5781,247.5313 Q195.9063,245.875 198.4063,245.875 Q199.1094,245.875 199.75,246.0313 Q200.4063,246.1875 200.9688,246.4844 L200.9688,249.2031 Q200.3438,248.625 199.75,248.3594 Q199.1563,248.0781 198.5313,248.0781 Q197.1875,248.0781 196.5,249.1563 Q195.8125,250.2188 195.8125,252.3125 Q195.8125,254.4063 196.5,255.4844 Q197.1875,256.5469 198.5313,256.5469 Q199.1563,256.5469 199.75,256.2813 Q200.3438,256 200.9688,255.4219 L200.9688,258.1406 Z " fill="#000000"/><text fill="#000000" font-family="sans-serif" font-size="14" lengthAdjust="spacing" textLength="39" x="212" y="257.3467">XAxis</text><line style="stroke:#181818;stroke-width:0.5;" x1="184" x2="253" y1="268.5" y2="268.5"/><line style="stroke:#181818;stroke-width:0.5;" x1="184" x2="253" y1="276.5" y2="276.5"/></g><!--class YAxis--><g id="elem_YAxis"><rect codeLine="27" fill="#F1F1F1" height="129.4844" id="YAxis" rx="2.5" ry="2.5" style="stroke:#181818;stroke-width:0.5;" width="172" x="289.5" y="196"/><ellipse cx="352.25" cy="212" fill="#ADD1B2" rx="11" ry="11" style="stroke:#181818;stroke-width:1.0;"/><path d="M355.2188,217.6406 Q354.6406,217.9375 354,218.0781 Q353.3594,218.2344 352.6563,218.2344 Q350.1563,218.2344 348.8281,216.5938 Q347.5156,214.9375 347.5156,211.8125 Q347.5156,208.6875 348.8281,207.0313 Q350.1563,205.375 352.6563,205.375 Q353.3594,205.375 354,205.5313 Q354.6563,205.6875 355.2188,205.9844 L355.2188,208.7031 Q354.5938,208.125 354,207.8594 Q353.4063,207.5781 352.7813,207.5781 Q351.4375,207.5781 350.75,208.6563 Q350.0625,209.7188 350.0625,211.8125 Q350.0625,213.9063 350.75,214.9844 Q351.4375,216.0469 352.7813,216.0469 Q353.4063,216.0469 354,215.7813 Q354.5938,215.5 355.2188,214.9219 L355.2188,217.6406 Z " fill="#000000"/><text fill="#000000" font-family="sans-serif" font-size="14" lengthAdjust="spacing" textLength="38" x="372.75" y="216.8467">YAxis</text><line style="stroke:#181818;stroke-width:0.5;" x1="290.5" x2="460.5" y1="228" y2="228"/><text fill="#000000" font-family="sans-serif" font-size="14" lengthAdjust="spacing" textLength="160" x="295.5" y="244.9951">modifier : AxisModifier</text><text fill="#000000" font-family="sans-serif" font-size="14" lengthAdjust="spacing" textLength="144" x="295.5" y="261.292">normalize_id : string</text><text fill="#000000" font-family="sans-serif" font-size="14" lengthAdjust="spacing" textLength="112" x="295.5" y="277.5889">linestyle : string</text><text fill="#000000" font-family="sans-serif" font-size="14" lengthAdjust="spacing" textLength="89" x="295.5" y="293.8857">color : string</text><text fill="#000000" font-family="sans-serif" font-size="14" lengthAdjust="spacing" textLength="123" x="295.5" y="310.1826">markstyle : string</text><line style="stroke:#181818;stroke-width:0.5;" x1="290.5" x2="460.5" y1="317.4844" y2="317.4844"/></g><!--class ScanModule--><g id="elem_ScanModule"><rect fill="#F1F1F1" height="48" id="ScanModule" rx="2.5" ry="2.5" style="stroke:#181818;stroke-width:0.5;" width="119" x="7" y="47.5"/><ellipse cx="22" cy="63.5" fill="#ADD1B2" rx="11" ry="11" style="stroke:#181818;stroke-width:1.0;"/><path d="M24.9688,69.1406 Q24.3906,69.4375 23.75,69.5781 Q23.1094,69.7344 22.4063,69.7344 Q19.9063,69.7344 18.5781,68.0938 Q17.2656,66.4375 17.2656,63.3125 Q17.2656,60.1875 18.5781,58.5313 Q19.9063,56.875 22.4063,56.875 Q23.1094,56.875 23.75,57.0313 Q24.4063,57.1875 24.9688,57.4844 L24.9688,60.2031 Q24.3438,59.625 23.75,59.3594 Q23.1563,59.0781 22.5313,59.0781 Q21.1875,59.0781 20.5,60.1563 Q19.8125,61.2188 19.8125,63.3125 Q19.8125,65.4063 20.5,66.4844 Q21.1875,67.5469 22.5313,67.5469 Q23.1563,67.5469 23.75,67.2813 Q24.3438,67 24.9688,66.4219 L24.9688,69.1406 Z " fill="#000000"/><text fill="#000000" font-family="sans-serif" font-size="14" lengthAdjust="spacing" textLength="87" x="36" y="68.3467">ScanModule</text><line style="stroke:#181818;stroke-width:0.5;" x1="8" x2="125" y1="79.5" y2="79.5"/><line style="stroke:#181818;stroke-width:0.5;" x1="8" x2="125" y1="87.5" y2="87.5"/></g><g id="elem_GMN9"><path d="M13.5,240.5 L13.5,280.7656 A0,0 0 0 0 13.5,280.7656 L119.5,280.7656 A0,0 0 0 0 119.5,280.7656 L119.5,250.5 L109.5,240.5 L70.5,240.5 L66.5,95.81 L62.5,240.5 L13.5,240.5 A0,0 0 0 0 13.5,240.5 " fill="#FEFFDD" style="stroke:#181818;stroke-width:0.5;"/><path d="M109.5,240.5 L109.5,250.5 L119.5,250.5 L109.5,240.5 " fill="#FEFFDD" style="stroke:#181818;stroke-width:0.5;"/><text fill="#000000" font-family="sans-serif" font-size="13" lengthAdjust="spacing" textLength="85" x="19.5" y="257.5669">See separate</text><text fill="#000000" font-family="sans-serif" font-size="13" lengthAdjust="spacing" textLength="83" x="19.5" y="272.6997">scan module</text></g><!--class PlotAxis--><g id="elem_PlotAxis"><rect codeLine="16" fill="#F1F1F1" height="80.5938" id="PlotAxis" rx="2.5" ry="2.5" style="stroke:#181818;stroke-width:0.5;" width="131" x="311" y="31"/><ellipse cx="345.8" cy="47" fill="#ADD1B2" rx="11" ry="11" style="stroke:#181818;stroke-width:1.0;"/><path d="M348.7688,52.6406 Q348.1906,52.9375 347.55,53.0781 Q346.9094,53.2344 346.2063,53.2344 Q343.7063,53.2344 342.3781,51.5938 Q341.0656,49.9375 341.0656,46.8125 Q341.0656,43.6875 342.3781,42.0313 Q343.7063,40.375 346.2063,40.375 Q346.9094,40.375 347.55,40.5313 Q348.2063,40.6875 348.7688,40.9844 L348.7688,43.7031 Q348.1438,43.125 347.55,42.8594 Q346.9563,42.5781 346.3313,42.5781 Q344.9875,42.5781 344.3,43.6563 Q343.6125,44.7188 343.6125,46.8125 Q343.6125,48.9063 344.3,49.9844 Q344.9875,51.0469 346.3313,51.0469 Q346.9563,51.0469 347.55,50.7813 Q348.1438,50.5 348.7688,49.9219 L348.7688,52.6406 Z " fill="#000000"/><text fill="#000000" font-family="sans-serif" font-size="14" lengthAdjust="spacing" textLength="55" x="364.2" y="51.8467">PlotAxis</text><line style="stroke:#181818;stroke-width:0.5;" x1="312" x2="441" y1="63" y2="63"/><text fill="#000000" font-family="sans-serif" font-size="14" lengthAdjust="spacing" textLength="66" x="317" y="79.9951">id : string</text><text fill="#000000" font-family="sans-serif" font-size="14" lengthAdjust="spacing" textLength="119" x="317" y="96.292">mode : PlotMode</text><line style="stroke:#181818;stroke-width:0.5;" x1="312" x2="441" y1="103.5938" y2="103.5938"/></g><!--class PlotMode--><g id="elem_PlotMode"><rect codeLine="41" fill="#F1F1F1" height="80.5938" id="PlotMode" rx="2.5" ry="2.5" style="stroke:#181818;stroke-width:0.5;" width="97" x="497" y="220"/><ellipse cx="512" cy="236" fill="#EB937F" rx="11" ry="11" style="stroke:#181818;stroke-width:1.0;"/><path d="M516.1094,242 L508.3906,242 L508.3906,229.6094 L516.1094,229.6094 L516.1094,231.7656 L510.8438,231.7656 L510.8438,234.4375 L515.6094,234.4375 L515.6094,236.5938 L510.8438,236.5938 L510.8438,239.8438 L516.1094,239.8438 L516.1094,242 Z " fill="#000000"/><text fill="#000000" font-family="sans-serif" font-size="14" lengthAdjust="spacing" textLength="65" x="526" y="240.8467">PlotMode</text><line style="stroke:#181818;stroke-width:0.5;" x1="498" x2="593" y1="252" y2="252"/><text fill="#000000" font-family="sans-serif" font-size="14" lengthAdjust="spacing" textLength="41" x="503" y="268.9951">linear</text><text fill="#000000" font-family="sans-serif" font-size="14" lengthAdjust="spacing" textLength="22" x="503" y="285.292">log</text><line style="stroke:#181818;stroke-width:0.5;" x1="498" x2="593" y1="292.5938" y2="292.5938"/></g><!--class AxisModifier--><g id="elem_AxisModifier"><rect codeLine="36" fill="#F1F1F1" height="80.5938" id="AxisModifier" rx="2.5" ry="2.5" style="stroke:#181818;stroke-width:0.5;" width="119" x="316" y="385"/><ellipse cx="331" cy="401" fill="#EB937F" rx="11" ry="11" style="stroke:#181818;stroke-width:1.0;"/><path d="M335.1094,407 L327.3906,407 L327.3906,394.6094 L335.1094,394.6094 L335.1094,396.7656 L329.8438,396.7656 L329.8438,399.4375 L334.6094,399.4375 L334.6094,401.5938 L329.8438,401.5938 L329.8438,404.8438 L335.1094,404.8438 L335.1094,407 Z " fill="#000000"/><text fill="#000000" font-family="sans-serif" font-size="14" lengthAdjust="spacing" textLength="87" x="345" y="405.8467">AxisModifier</text><line style="stroke:#181818;stroke-width:0.5;" x1="317" x2="434" y1="417" y2="417"/><text fill="#000000" font-family="sans-serif" font-size="14" lengthAdjust="spacing" textLength="40" x="322" y="433.9951">NONE</text><text fill="#000000" font-family="sans-serif" font-size="14" lengthAdjust="spacing" textLength="61" x="322" y="450.292">INVERSE</text><line style="stroke:#181818;stroke-width:0.5;" x1="317" x2="434" y1="457.5938" y2="457.5938"/></g><!--reverse link Plot to XAxis--><g id="link_Plot_XAxis"><path codeLine="10" d="M218.5,148.07 C218.5,182.59 218.5,211.19 218.5,236.13 " fill="none" id="Plot-backto-XAxis" style="stroke:#181818;stroke-width:1.0;"/><polygon fill="#181818" points="218.5,136.07,214.5,142.07,218.5,148.07,222.5,142.07,218.5,136.07" style="stroke:#181818;stroke-width:1.0;"/></g><!--reverse link Plot to YAxis--><g id="link_Plot_YAxis"><path codeLine="11" d="M279.5864,145.2601 C295.7664,164.5301 305.82,176.51 322.01,195.79 " fill="none" id="Plot-backto-YAxis" style="stroke:#181818;stroke-width:1.0;"/><polygon fill="#181818" points="271.87,136.07,272.6648,143.2372,279.5864,145.2601,278.7916,138.0929,271.87,136.07" style="stroke:#181818;stroke-width:1.0;"/><text fill="#000000" font-family="sans-serif" font-size="13" lengthAdjust="spacing" textLength="24" x="290.847" y="184.9397">1..2</text></g><!--reverse link ScanModule to Plot--><g id="link_ScanModule_Plot"><path codeLine="12" d="M138.17,71.5 C149.83,71.5 149.49,71.5 161.16,71.5 " fill="none" id="ScanModule-backto-Plot" style="stroke:#181818;stroke-width:1.0;"/><polygon fill="#181818" points="126.17,71.5,132.17,75.5,138.17,71.5,132.17,67.5,126.17,71.5" style="stroke:#181818;stroke-width:1.0;"/><text fill="#000000" font-family="sans-serif" font-size="13" lengthAdjust="spacing" textLength="8" x="145.6842" y="67.6314">n</text></g><!--reverse link PlotAxis to XAxis--><g id="link_PlotAxis_XAxis"><path codeLine="20" d="M330.9203,125.8862 C310.3003,150.0662 295.16,167.91 271.5,196 C260.31,209.29 247.85,224.2 237.83,236.23 " fill="none" id="PlotAxis-backto-XAxis" style="stroke:#181818;stroke-width:1.0;"/><polygon fill="none" points="342.6,112.19,326.3549,121.9929,335.4857,129.7794,342.6,112.19" style="stroke:#181818;stroke-width:1.0;"/></g><!--reverse link PlotAxis to YAxis--><g id="link_PlotAxis_YAxis"><path codeLine="21" d="M376.1938,130.1597 C376.0638,154.4897 375.99,168.21 375.84,195.99 " fill="none" id="PlotAxis-backto-YAxis" style="stroke:#181818;stroke-width:1.0;"/><polygon fill="none" points="376.29,112.16,370.1939,130.1277,382.1937,130.1918,376.29,112.16" style="stroke:#181818;stroke-width:1.0;"/></g><!--reverse link PlotAxis to PlotMode--><g id="link_PlotAxis_PlotMode"><path codeLine="22" d="M420.3866,121.0623 C449.0666,152.7923 481.04,188.18 509.71,219.9 " fill="none" id="PlotAxis-backto-PlotMode" style="stroke:#181818;stroke-width:1.0;"/><polygon fill="#181818" points="412.34,112.16,413.3959,119.2934,420.3866,121.0623,419.3308,113.929,412.34,112.16" style="stroke:#181818;stroke-width:1.0;"/></g><!--reverse link YAxis to AxisModifier--><g id="link_YAxis_AxisModifier"><path codeLine="34" d="M375.5,337.45 C375.5,357.43 375.5,366.89 375.5,384.7 " fill="none" id="YAxis-backto-AxisModifier" style="stroke:#181818;stroke-width:1.0;"/><polygon fill="#181818" points="375.5,325.45,371.5,331.45,375.5,337.45,379.5,331.45,375.5,325.45" style="stroke:#181818;stroke-width:1.0;"/></g><!--SRC=[NL5DIyGm4BtdLuHU1A5Rz5YyUEZ1mwvYGRQeoDYThS5yb2I5hjh_Rf9cksrpIURDctdlaQilQrkJPrdBGTfEy4sjH5PpC2OzC6Wq2492IP-uilINK7Sa2AGvDLOpsGIaXvuP1-tltHqG9fbrmATI7446w0GzUbBbIQ_l8-tW02OjDgZ9G8B8TPh6HLEPt6msjyauISeQv5OTEewkHnEP16-4I6NH2Lgh15L7Ug7bj4Ia1blGOF5D6jUX8hJcwVpoc33OckLpP9_OiznAZ4x3mDtVmku5gvQOZp7DHzLzb1pEG3Npu3JPaQ5skXxTndBy0QK5SFQ37skdd4aqziHN7rGhhlGg4-Zl5NCWrUHreKbGTc81HPExnrqH7W-xb-AvB7oKm3r7ZJnl2qRlN7cXVm00]--></g></svg>