<?xml version="1.0" encoding="us-ascii" standalone="no"?><svg xmlns="http://www.w3.org/2000/svg" xmlns:xlink="http://www.w3.org/1999/xlink" contentStyleType="text/css" height="538px" preserveAspectRatio="none" style="width:806px;height:538px;background:#FFFFFF;" version="1.1" viewBox="0 0 806 538" width="806px" zoomAndPan="magnify"><defs/><g><!--class EveFile--><g id="elem_EveFile"><rect codeLine="2" fill="#F1F1F1" height="113.1875" id="EveFile" rx="2.5" ry="2.5" style="stroke:#181818;stroke-width:0.5;" width="212" x="318" y="7"/><ellipse cx="394.25" cy="23" fill="#ADD1B2" rx="11" ry="11" style="stroke:#181818;stroke-width:1.0;"/><path d="M397.2344,28.6406 Q396.6563,28.9375 396.0156,29.0781 Q395.375,29.2344 394.6719,29.2344 Q392.1563,29.2344 390.8281,27.5938 Q389.5156,25.9375 389.5156,22.8125 Q389.5156,19.6719 390.8281,18.0313 Q392.1563,16.375 394.6719,16.375 Q395.375,16.375 396.0156,16.5313 Q396.6719,16.6719 397.2344,16.9688 L397.2344,19.6875 Q396.5938,19.1094 396,18.8438 Q395.4063,18.5781 394.7813,18.5781 Q393.4375,18.5781 392.75,19.6406 Q392.0625,20.7031 392.0625,22.8125 Q392.0625,24.9063 392.75,25.9844 Q393.4375,27.0469 394.7813,27.0469 Q395.4063,27.0469 396,26.7813 Q396.5938,26.5 397.2344,25.9219 L397.2344,28.6406 Z " fill="#000000"/><text fill="#000000" font-family="sans-serif" font-size="14" lengthAdjust="spacing" textLength="51" x="414.75" y="27.8467">EveFile</text><line style="stroke:#181818;stroke-width:0.5;" x1="319" x2="529" y1="39" y2="39"/><text fill="#000000" font-family="sans-serif" font-size="14" lengthAdjust="spacing" textLength="200" x="324" y="55.9951">metadata : EveFileMetadata</text><text fill="#000000" font-family="sans-serif" font-size="14" lengthAdjust="spacing" textLength="168" x="324" y="72.292">comments[] : Comment</text><text fill="#000000" font-family="sans-serif" font-size="14" lengthAdjust="spacing" textLength="85" x="324" y="88.5889">scml : SCML</text><text fill="#000000" font-family="sans-serif" font-size="14" lengthAdjust="spacing" textLength="115" x="324" y="104.8857">data[] : EveData</text><line style="stroke:#181818;stroke-width:0.5;" x1="319" x2="529" y1="112.1875" y2="112.1875"/></g><g id="elem_GMN3"><path d="M133,43.5 L133,83.7656 A0,0 0 0 0 133,83.7656 L283,83.7656 A0,0 0 0 0 283,83.7656 L283,67.5 L317.77,63.5 L283,59.5 L283,53.5 L273,43.5 L133,43.5 A0,0 0 0 0 133,43.5 " fill="#FEFFDD" style="stroke:#181818;stroke-width:0.5;"/><path d="M273,43.5 L273,53.5 L283,53.5 L273,43.5 " fill="#FEFFDD" style="stroke:#181818;stroke-width:0.5;"/><text fill="#000000" font-family="sans-serif" font-size="13" lengthAdjust="spacing" textLength="129" x="139" y="60.5669">Should data be split</text><text fill="#000000" font-family="sans-serif" font-size="13" lengthAdjust="spacing" textLength="90" x="139" y="75.6997">into sections?</text></g><!--class EveFileMetadata--><g id="elem_EveFileMetadata"><rect codeLine="10" fill="#F1F1F1" height="210.9688" id="EveFileMetadata" rx="2.5" ry="2.5" style="stroke:#181818;stroke-width:0.5;" width="304" x="7" y="180"/><ellipse cx="95.75" cy="196" fill="#ADD1B2" rx="11" ry="11" style="stroke:#181818;stroke-width:1.0;"/><path d="M98.7344,201.6406 Q98.1563,201.9375 97.5156,202.0781 Q96.875,202.2344 96.1719,202.2344 Q93.6563,202.2344 92.3281,200.5938 Q91.0156,198.9375 91.0156,195.8125 Q91.0156,192.6719 92.3281,191.0313 Q93.6563,189.375 96.1719,189.375 Q96.875,189.375 97.5156,189.5313 Q98.1719,189.6719 98.7344,189.9688 L98.7344,192.6875 Q98.0938,192.1094 97.5,191.8438 Q96.9063,191.5781 96.2813,191.5781 Q94.9375,191.5781 94.25,192.6406 Q93.5625,193.7031 93.5625,195.8125 Q93.5625,197.9063 94.25,198.9844 Q94.9375,200.0469 96.2813,200.0469 Q96.9063,200.0469 97.5,199.7813 Q98.0938,199.5 98.7344,198.9219 L98.7344,201.6406 Z " fill="#000000"/><text fill="#000000" font-family="sans-serif" font-size="14" lengthAdjust="spacing" textLength="118" x="116.25" y="200.8467">EveFileMetadata</text><line style="stroke:#181818;stroke-width:0.5;" x1="8" x2="310" y1="212" y2="212"/><text fill="#000000" font-family="sans-serif" font-size="14" lengthAdjust="spacing" textLength="118" x="13" y="228.9951">filename : String</text><text fill="#000000" font-family="sans-serif" font-size="14" lengthAdjust="spacing" textLength="132" x="13" y="245.292">h5_version : String</text><text fill="#000000" font-family="sans-serif" font-size="14" lengthAdjust="spacing" textLength="140" x="13" y="261.5889">eve_version : String</text><text fill="#000000" font-family="sans-serif" font-size="14" lengthAdjust="spacing" textLength="136" x="13" y="277.8857">xml_version: String</text><text fill="#000000" font-family="sans-serif" font-size="14" lengthAdjust="spacing" textLength="112" x="13" y="294.1826">location : String</text><text fill="#000000" font-family="sans-serif" font-size="14" lengthAdjust="spacing" textLength="115" x="13" y="310.4795">start : DateTime</text><text fill="#000000" font-family="sans-serif" font-size="14" lengthAdjust="spacing" textLength="110" x="13" y="326.7764">end : DateTime</text><text fill="#000000" font-family="sans-serif" font-size="14" lengthAdjust="spacing" textLength="158" x="13" y="343.0732">preferred_axis : String</text><text fill="#000000" font-family="sans-serif" font-size="14" lengthAdjust="spacing" textLength="187" x="13" y="359.3701">preferred_channel : String</text><text fill="#000000" font-family="sans-serif" font-size="14" lengthAdjust="spacing" textLength="292" x="13" y="375.667">preferred_normalisation_channel : String</text><line style="stroke:#181818;stroke-width:0.5;" x1="8" x2="310" y1="382.9688" y2="382.9688"/></g><!--class Comment--><g id="elem_Comment"><rect codeLine="23" fill="#F1F1F1" height="80.5938" id="Comment" rx="2.5" ry="2.5" style="stroke:#181818;stroke-width:0.5;" width="171" x="346.5" y="245"/><ellipse cx="392.75" cy="261" fill="#ADD1B2" rx="11" ry="11" style="stroke:#181818;stroke-width:1.0;"/><path d="M395.7344,266.6406 Q395.1563,266.9375 394.5156,267.0781 Q393.875,267.2344 393.1719,267.2344 Q390.6563,267.2344 389.3281,265.5938 Q388.0156,263.9375 388.0156,260.8125 Q388.0156,257.6719 389.3281,256.0313 Q390.6563,254.375 393.1719,254.375 Q393.875,254.375 394.5156,254.5313 Q395.1719,254.6719 395.7344,254.9688 L395.7344,257.6875 Q395.0938,257.1094 394.5,256.8438 Q393.9063,256.5781 393.2813,256.5781 Q391.9375,256.5781 391.25,257.6406 Q390.5625,258.7031 390.5625,260.8125 Q390.5625,262.9063 391.25,263.9844 Q391.9375,265.0469 393.2813,265.0469 Q393.9063,265.0469 394.5,264.7813 Q395.0938,264.5 395.7344,263.9219 L395.7344,266.6406 Z " fill="#000000"/><text fill="#000000" font-family="sans-serif" font-size="14" lengthAdjust="spacing" textLength="70" x="413.25" y="265.8467">Comment</text><line style="stroke:#181818;stroke-width:0.5;" x1="347.5" x2="516.5" y1="277" y2="277"/><text fill="#000000" font-family="sans-serif" font-size="14" lengthAdjust="spacing" textLength="159" x="352.5" y="293.9951">timestamp : DateTime</text><text fill="#000000" font-family="sans-serif" font-size="14" lengthAdjust="spacing" textLength="123" x="352.5" y="310.292">comment : String</text><line style="stroke:#181818;stroke-width:0.5;" x1="347.5" x2="516.5" y1="317.5938" y2="317.5938"/></g><g id="elem_GMN8"><path d="M309.5,464 L309.5,519.3984 A0,0 0 0 0 309.5,519.3984 L554.5,519.3984 A0,0 0 0 0 554.5,519.3984 L554.5,474 L544.5,464 L436,464 L432,326.32 L428,464 L309.5,464 A0,0 0 0 0 309.5,464 " fill="#FEFFDD" style="stroke:#181818;stroke-width:0.5;"/><path d="M544.5,464 L544.5,474 L554.5,474 L544.5,464 " fill="#FEFFDD" style="stroke:#181818;stroke-width:0.5;"/><text fill="#000000" font-family="sans-serif" font-size="13" lengthAdjust="spacing" textLength="224" x="315.5" y="481.0669">Comments are both, file comment</text><text fill="#000000" font-family="sans-serif" font-size="13" lengthAdjust="spacing" textLength="221" x="315.5" y="496.1997">and log messages. Discriminating</text><text fill="#000000" font-family="sans-serif" font-size="13" lengthAdjust="spacing" textLength="224" x="315.5" y="511.3325">could be done in the EveFile class.</text></g><!--class SCML--><g id="elem_SCML"><rect codeLine="29" fill="#F1F1F1" height="80.5938" id="SCML" rx="2.5" ry="2.5" style="stroke:#181818;stroke-width:0.5;" width="200" x="574" y="245"/><ellipse cx="650.25" cy="261" fill="#ADD1B2" rx="11" ry="11" style="stroke:#181818;stroke-width:1.0;"/><path d="M653.2344,266.6406 Q652.6563,266.9375 652.0156,267.0781 Q651.375,267.2344 650.6719,267.2344 Q648.1563,267.2344 646.8281,265.5938 Q645.5156,263.9375 645.5156,260.8125 Q645.5156,257.6719 646.8281,256.0313 Q648.1563,254.375 650.6719,254.375 Q651.375,254.375 652.0156,254.5313 Q652.6719,254.6719 653.2344,254.9688 L653.2344,257.6875 Q652.5938,257.1094 652,256.8438 Q651.4063,256.5781 650.7813,256.5781 Q649.4375,256.5781 648.75,257.6406 Q648.0625,258.7031 648.0625,260.8125 Q648.0625,262.9063 648.75,263.9844 Q649.4375,265.0469 650.7813,265.0469 Q651.4063,265.0469 652,264.7813 Q652.5938,264.5 653.2344,263.9219 L653.2344,266.6406 Z " fill="#000000"/><text fill="#000000" font-family="sans-serif" font-size="14" lengthAdjust="spacing" textLength="39" x="670.75" y="265.8467">SCML</text><line style="stroke:#181818;stroke-width:0.5;" x1="575" x2="773" y1="277" y2="277"/><text fill="#000000" font-family="sans-serif" font-size="14" lengthAdjust="spacing" textLength="188" x="580" y="293.9951">metadata : SCMLMetadata</text><text fill="#000000" font-family="sans-serif" font-size="14" lengthAdjust="spacing" textLength="77" x="580" y="310.292">xml: String</text><line style="stroke:#181818;stroke-width:0.5;" x1="575" x2="773" y1="317.5938" y2="317.5938"/></g><g id="elem_GMN12"><path d="M565,36 L565,91.3984 A0,0 0 0 0 565,91.3984 L677.04,91.3984 L675.44,244.85 L685.04,91.3984 L799,91.3984 A0,0 0 0 0 799,91.3984 L799,46 L789,36 L565,36 A0,0 0 0 0 565,36 " fill="#FEFFDD" style="stroke:#181818;stroke-width:0.5;"/><path d="M789,36 L789,46 L799,46 L789,36 " fill="#FEFFDD" style="stroke:#181818;stroke-width:0.5;"/><text fill="#000000" font-family="sans-serif" font-size="13" lengthAdjust="spacing" textLength="211" x="571" y="53.0669">xml is currently a string, but will</text><text fill="#000000" font-family="sans-serif" font-size="13" lengthAdjust="spacing" textLength="213" x="571" y="68.1997">be replaced/amended by classes</text><text fill="#000000" font-family="sans-serif" font-size="13" lengthAdjust="spacing" textLength="206" x="571" y="83.3325">representing the SCML contents</text></g><!--class SCMLMetadata--><g id="elem_SCMLMetadata"><rect codeLine="35" fill="#F1F1F1" height="80.5938" id="SCMLMetadata" rx="2.5" ry="2.5" style="stroke:#181818;stroke-width:0.5;" width="138" x="605" y="451"/><ellipse cx="620" cy="467" fill="#ADD1B2" rx="11" ry="11" style="stroke:#181818;stroke-width:1.0;"/><path d="M622.9844,472.6406 Q622.4063,472.9375 621.7656,473.0781 Q621.125,473.2344 620.4219,473.2344 Q617.9063,473.2344 616.5781,471.5938 Q615.2656,469.9375 615.2656,466.8125 Q615.2656,463.6719 616.5781,462.0313 Q617.9063,460.375 620.4219,460.375 Q621.125,460.375 621.7656,460.5313 Q622.4219,460.6719 622.9844,460.9688 L622.9844,463.6875 Q622.3438,463.1094 621.75,462.8438 Q621.1563,462.5781 620.5313,462.5781 Q619.1875,462.5781 618.5,463.6406 Q617.8125,464.7031 617.8125,466.8125 Q617.8125,468.9063 618.5,469.9844 Q619.1875,471.0469 620.5313,471.0469 Q621.1563,471.0469 621.75,470.7813 Q622.3438,470.5 622.9844,469.9219 L622.9844,472.6406 Z " fill="#000000"/><text fill="#000000" font-family="sans-serif" font-size="14" lengthAdjust="spacing" textLength="106" x="634" y="471.8467">SCMLMetadata</text><line style="stroke:#181818;stroke-width:0.5;" x1="606" x2="742" y1="483" y2="483"/><text fill="#000000" font-family="sans-serif" font-size="14" lengthAdjust="spacing" textLength="98" x="611" y="499.9951">author: String</text><text fill="#000000" font-family="sans-serif" font-size="14" lengthAdjust="spacing" textLength="103" x="611" y="516.292">version: String</text><line style="stroke:#181818;stroke-width:0.5;" x1="606" x2="742" y1="523.5938" y2="523.5938"/></g><!--reverse link EveFile to EveFileMetadata--><g id="link_EveFile_EveFileMetadata"><path codeLine="40" d="M347.8962,127.684 C325.8962,145.944 309.89,159.23 284.97,179.92 " fill="none" id="EveFile-backto-EveFileMetadata" style="stroke:#181818;stroke-width:1.0;"/><polygon fill="#181818" points="357.13,120.02,349.9584,120.7741,347.8962,127.684,355.0678,126.9299,357.13,120.02" style="stroke:#181818;stroke-width:1.0;"/></g><!--reverse link EveFile to Comment--><g id="link_EveFile_Comment"><path codeLine="41" d="M426.4572,132.012 C427.8772,170.962 429.29,210.11 430.56,244.96 " fill="none" id="EveFile-backto-Comment" style="stroke:#181818;stroke-width:1.0;"/><polygon fill="#181818" points="426.02,120.02,422.2413,126.1617,426.4572,132.012,430.2359,125.8703,426.02,120.02" style="stroke:#181818;stroke-width:1.0;"/><text fill="#000000" font-family="sans-serif" font-size="13" lengthAdjust="spacing" textLength="8" x="417.7663" y="140.286">1</text><text fill="#000000" font-family="sans-serif" font-size="13" lengthAdjust="spacing" textLength="8" x="421.625" y="233.8163">n</text></g><!--reverse link EveFile to SCML--><g id="link_EveFile_SCML"><path codeLine="42" d="M496.0984,127.9477 C540.3584,166.8977 589.47,210.11 629.07,244.96 " fill="none" id="EveFile-backto-SCML" style="stroke:#181818;stroke-width:1.0;"/><polygon fill="#181818" points="487.09,120.02,488.9517,126.9866,496.0984,127.9477,494.2368,120.981,487.09,120.02" style="stroke:#181818;stroke-width:1.0;"/></g><!--reverse link SCML to SCMLMetadata--><g id="link_SCML_SCMLMetadata"><path codeLine="43" d="M674,338.32 C674,374.26 674,414.87 674,450.78 " fill="none" id="SCML-backto-SCMLMetadata" style="stroke:#181818;stroke-width:1.0;"/><polygon fill="#181818" points="674,326.32,670,332.32,674,338.32,678,332.32,674,326.32" style="stroke:#181818;stroke-width:1.0;"/></g><!--SRC=[TPCzZzim38Rt_0eYOv6xeaENB1tkUjDbQhUw21IPYGL8b24oQO8Y_xqqOwLnqdhJomy_ualvw9ZXwm7VGaJuFGFz4efhdJXOri1gL2piSqf8mZz-QiBBvM01zYcgzErbzMxdeSAIjClhK7sUKHQ4Y5lHj2xlOsj9i47WFWPfA91aOFGICl6NsSpVybMC2-PM5N89XrzA2RGpjVkyFc1XBP_gUC1_1uufri14ZzaxUSXcSKLKqllWzv3mqflQUwalkCLIi5sxO-1fZxyntpaYZFyBKox9nS36yPXyhkCPJHZj4sLGpDJVCut6tJOmFpPP9AUhbmokcDWjRCQrhY6dzunvfml2x7R8p_0Qs9UG0YaYxHhovgdQsMP220JIuNMx3FOPAlMm9uyRDwYJTLD_xe4bzyj11vsit-keIE89d9epP2rWinVu5M9iI4aAzj5vR3_ggb2BIdUwa20tfC62hFLQPwm6vJF9C8XRqieq4hkzTBbCVBjV8hMdtlp3qzF3Kwgn-QUvnUSqlxwcspfxJePLJzSMVm00]--></g></svg>