<?xml version="1.0" encoding="us-ascii" standalone="no"?><svg xmlns="http://www.w3.org/2000/svg" xmlns:xlink="http://www.w3.org/1999/xlink" contentStyleType="text/css" height="522px" preserveAspectRatio="none" style="width:784px;height:522px;background:#FFFFFF;" version="1.1" viewBox="0 0 784 522" width="784px" zoomAndPan="magnify"><defs/><g><!--cluster evefile--><g id="cluster_evefile"><path d="M285,6 L330,6 A3.75,3.75 0 0 1 332.5,8.5 L339.5,28.4063 L575,28.4063 A2.5,2.5 0 0 1 577.5,30.9063 L577.5,236.5 A2.5,2.5 0 0 1 575,239 L285,239 A2.5,2.5 0 0 1 282.5,236.5 L282.5,8.5 A2.5,2.5 0 0 1 285,6 " fill="none" style="stroke:#000000;stroke-width:1.5;"/><line style="stroke:#000000;stroke-width:1.5;" x1="282.5" x2="339.5" y1="28.4063" y2="28.4063"/><text fill="#000000" font-family="sans-serif" font-size="14" font-weight="bold" lengthAdjust="spacing" textLength="44" x="286.5" y="20.9883">evefile</text></g><!--cluster entities--><g id="cluster_entities"><path d="M309,49 L359,49 A3.75,3.75 0 0 1 361.5,51.5 L368.5,71.4063 L551,71.4063 A2.5,2.5 0 0 1 553.5,73.9063 L553.5,212.5 A2.5,2.5 0 0 1 551,215 L309,215 A2.5,2.5 0 0 1 306.5,212.5 L306.5,51.5 A2.5,2.5 0 0 1 309,49 " fill="none" style="stroke:#000000;stroke-width:1.5;"/><line style="stroke:#000000;stroke-width:1.5;" x1="306.5" x2="368.5" y1="71.4063" y2="71.4063"/><text fill="#000000" font-family="sans-serif" font-size="14" font-weight="bold" lengthAdjust="spacing" textLength="49" x="310.5" y="63.9883">entities</text></g><!--cluster file--><g id="cluster_file"><path d="M333,92 L355,92 A3.75,3.75 0 0 1 357.5,94.5 L364.5,114.4063 L527,114.4063 A2.5,2.5 0 0 1 529.5,116.9063 L529.5,188.5 A2.5,2.5 0 0 1 527,191 L333,191 A2.5,2.5 0 0 1 330.5,188.5 L330.5,94.5 A2.5,2.5 0 0 1 333,92 " fill="none" style="stroke:#000000;stroke-width:1.5;"/><line style="stroke:#000000;stroke-width:1.5;" x1="330.5" x2="364.5" y1="114.4063" y2="114.4063"/><text fill="#000000" font-family="sans-serif" font-size="14" font-weight="bold" lengthAdjust="spacing" textLength="21" x="334.5" y="106.9883">file</text></g><!--class Scan--><g id="elem_Scan"><rect codeLine="26" fill="#F1F1F1" height="48" id="Scan" rx="2.5" ry="2.5" style="stroke:#181818;stroke-width:0.5;" width="63" x="450" y="127"/><ellipse cx="465" cy="143" fill="#ADD1B2" rx="11" ry="11" style="stroke:#181818;stroke-width:1.0;"/><path d="M465.0469,149.2031 C466.5469,149.2031 467.7813,148.6406 468.6875,147.5781 L467.3125,146.0625 C466.7656,146.6563 466.1094,147.0469 465.3125,147.0469 C463.6406,147.0469 462.4844,145.7188 462.4844,143.4375 C462.4844,141.2188 463.6406,139.875 465.2031,139.875 C466.0156,139.875 466.6094,140.1875 467.1406,140.6719 L468.5156,139.125 C467.7656,138.3906 466.6094,137.7188 465.2031,137.7188 C462.25,137.7188 459.9219,139.8594 459.9219,143.5313 C459.9219,147.25 462.2969,149.2031 465.0469,149.2031 Z " fill="#000000"/><text fill="#000000" font-family="sans-serif" font-size="14" lengthAdjust="spacing" textLength="31" x="479" y="147.7852">Scan</text><line style="stroke:#181818;stroke-width:0.5;" x1="451" x2="512" y1="159" y2="159"/><line style="stroke:#181818;stroke-width:0.5;" x1="451" x2="512" y1="167" y2="167"/></g><!--class Setup--><g id="elem_Setup"><rect codeLine="29" fill="#F1F1F1" height="48" id="Setup" rx="2.5" ry="2.5" style="stroke:#181818;stroke-width:0.5;" width="68" x="346.5" y="127"/><ellipse cx="361.5" cy="143" fill="#ADD1B2" rx="11" ry="11" style="stroke:#181818;stroke-width:1.0;"/><path d="M361.5469,149.2031 C363.0469,149.2031 364.2813,148.6406 365.1875,147.5781 L363.8125,146.0625 C363.2656,146.6563 362.6094,147.0469 361.8125,147.0469 C360.1406,147.0469 358.9844,145.7188 358.9844,143.4375 C358.9844,141.2188 360.1406,139.875 361.7031,139.875 C362.5156,139.875 363.1094,140.1875 363.6406,140.6719 L365.0156,139.125 C364.2656,138.3906 363.1094,137.7188 361.7031,137.7188 C358.75,137.7188 356.4219,139.8594 356.4219,143.5313 C356.4219,147.25 358.7969,149.2031 361.5469,149.2031 Z " fill="#000000"/><text fill="#000000" font-family="sans-serif" font-size="14" lengthAdjust="spacing" textLength="36" x="375.5" y="147.7852">Setup</text><line style="stroke:#181818;stroke-width:0.5;" x1="347.5" x2="413.5" y1="159" y2="159"/><line style="stroke:#181818;stroke-width:0.5;" x1="347.5" x2="413.5" y1="167" y2="167"/></g><!--class Measurement--><g id="elem_Measurement"><rect codeLine="3" fill="#F1F1F1" height="179.25" id="Measurement" rx="2.5" ry="2.5" style="stroke:#181818;stroke-width:0.5;" width="259" x="7" y="61.5"/><ellipse cx="89.25" cy="77.5" fill="#ADD1B2" rx="11" ry="11" style="stroke:#181818;stroke-width:1.0;"/><path d="M89.2969,83.7031 C90.7969,83.7031 92.0313,83.1406 92.9375,82.0781 L91.5625,80.5625 C91.0156,81.1563 90.3594,81.5469 89.5625,81.5469 C87.8906,81.5469 86.7344,80.2188 86.7344,77.9375 C86.7344,75.7188 87.8906,74.375 89.4531,74.375 C90.2656,74.375 90.8594,74.6875 91.3906,75.1719 L92.7656,73.625 C92.0156,72.8906 90.8594,72.2188 89.4531,72.2188 C86.5,72.2188 84.1719,74.3594 84.1719,78.0313 C84.1719,81.75 86.5469,83.7031 89.2969,83.7031 Z " fill="#000000"/><text fill="#000000" font-family="sans-serif" font-size="14" lengthAdjust="spacing" textLength="86" x="109.75" y="82.2852">Measurement</text><line style="stroke:#181818;stroke-width:0.5;" x1="8" x2="265" y1="93.5" y2="93.5"/><text fill="#000000" font-family="sans-serif" font-size="14" lengthAdjust="spacing" textLength="149" x="13" y="110.4883">devices{} : MeasureData</text><text fill="#000000" font-family="sans-serif" font-size="14" lengthAdjust="spacing" textLength="244" x="13" y="126.8945">machine{} : MeasureData | MonitorData</text><text fill="#000000" font-family="sans-serif" font-size="14" lengthAdjust="spacing" textLength="247" x="13" y="143.3008">beamline{} : MeasureData | MonitorData</text><text fill="#000000" font-family="sans-serif" font-size="14" lengthAdjust="spacing" textLength="214" x="13" y="159.707">device_snapshots{} : MeasureData</text><text fill="#000000" font-family="sans-serif" font-size="14" lengthAdjust="spacing" textLength="131" x="13" y="176.1133">metadata : Metadata</text><text fill="#000000" font-family="sans-serif" font-size="14" lengthAdjust="spacing" textLength="70" x="13" y="192.5195">scan : Scan</text><text fill="#000000" font-family="sans-serif" font-size="14" lengthAdjust="spacing" textLength="80" x="13" y="208.9258">setup : Setup</text><text fill="#000000" font-family="sans-serif" font-size="14" lengthAdjust="spacing" textLength="185" x="13" y="225.332">log_messages[] : LogMessage</text><line style="stroke:#181818;stroke-width:0.5;" x1="8" x2="265" y1="232.75" y2="232.75"/></g><!--class Metadata--><g id="elem_Metadata"><rect codeLine="18" fill="#F1F1F1" height="48" id="Metadata" rx="2.5" ry="2.5" style="stroke:#181818;stroke-width:0.5;" width="93" x="90" y="341.5"/><ellipse cx="105" cy="357.5" fill="#ADD1B2" rx="11" ry="11" style="stroke:#181818;stroke-width:1.0;"/><path d="M105.0469,363.7031 C106.5469,363.7031 107.7813,363.1406 108.6875,362.0781 L107.3125,360.5625 C106.7656,361.1563 106.1094,361.5469 105.3125,361.5469 C103.6406,361.5469 102.4844,360.2188 102.4844,357.9375 C102.4844,355.7188 103.6406,354.375 105.2031,354.375 C106.0156,354.375 106.6094,354.6875 107.1406,355.1719 L108.5156,353.625 C107.7656,352.8906 106.6094,352.2188 105.2031,352.2188 C102.25,352.2188 99.9219,354.3594 99.9219,358.0313 C99.9219,361.75 102.2969,363.7031 105.0469,363.7031 Z " fill="#000000"/><text fill="#000000" font-family="sans-serif" font-size="14" lengthAdjust="spacing" textLength="61" x="119" y="362.2852">Metadata</text><line style="stroke:#181818;stroke-width:0.5;" x1="91" x2="182" y1="373.5" y2="373.5"/><line style="stroke:#181818;stroke-width:0.5;" x1="91" x2="182" y1="381.5" y2="381.5"/></g><!--class Scan--><g id="elem_Scan"><rect codeLine="32" fill="#F1F1F1" height="48" id="Scan" rx="2.5" ry="2.5" style="stroke:#181818;stroke-width:0.5;" width="63" x="386" y="341.5"/><ellipse cx="401" cy="357.5" fill="#ADD1B2" rx="11" ry="11" style="stroke:#181818;stroke-width:1.0;"/><path d="M401.0469,363.7031 C402.5469,363.7031 403.7813,363.1406 404.6875,362.0781 L403.3125,360.5625 C402.7656,361.1563 402.1094,361.5469 401.3125,361.5469 C399.6406,361.5469 398.4844,360.2188 398.4844,357.9375 C398.4844,355.7188 399.6406,354.375 401.2031,354.375 C402.0156,354.375 402.6094,354.6875 403.1406,355.1719 L404.5156,353.625 C403.7656,352.8906 402.6094,352.2188 401.2031,352.2188 C398.25,352.2188 395.9219,354.3594 395.9219,358.0313 C395.9219,361.75 398.2969,363.7031 401.0469,363.7031 Z " fill="#000000"/><text fill="#000000" font-family="sans-serif" font-size="14" lengthAdjust="spacing" textLength="31" x="415" y="362.2852">Scan</text><line style="stroke:#181818;stroke-width:0.5;" x1="387" x2="448" y1="373.5" y2="373.5"/><line style="stroke:#181818;stroke-width:0.5;" x1="387" x2="448" y1="381.5" y2="381.5"/></g><!--class Setup--><g id="elem_Setup"><rect codeLine="34" fill="#F1F1F1" height="48" id="Setup" rx="2.5" ry="2.5" style="stroke:#181818;stroke-width:0.5;" width="68" x="250.5" y="341.5"/><ellipse cx="265.5" cy="357.5" fill="#ADD1B2" rx="11" ry="11" style="stroke:#181818;stroke-width:1.0;"/><path d="M265.5469,363.7031 C267.0469,363.7031 268.2813,363.1406 269.1875,362.0781 L267.8125,360.5625 C267.2656,361.1563 266.6094,361.5469 265.8125,361.5469 C264.1406,361.5469 262.9844,360.2188 262.9844,357.9375 C262.9844,355.7188 264.1406,354.375 265.7031,354.375 C266.5156,354.375 267.1094,354.6875 267.6406,355.1719 L269.0156,353.625 C268.2656,352.8906 267.1094,352.2188 265.7031,352.2188 C262.75,352.2188 260.4219,354.3594 260.4219,358.0313 C260.4219,361.75 262.7969,363.7031 265.5469,363.7031 Z " fill="#000000"/><text fill="#000000" font-family="sans-serif" font-size="14" lengthAdjust="spacing" textLength="36" x="279.5" y="362.2852">Setup</text><line style="stroke:#181818;stroke-width:0.5;" x1="251.5" x2="317.5" y1="373.5" y2="373.5"/><line style="stroke:#181818;stroke-width:0.5;" x1="251.5" x2="317.5" y1="381.5" y2="381.5"/></g><g id="elem_GMN9"><path d="M62.5,490.5 L62.5,515.7344 A0,0 0 0 0 62.5,515.7344 L210.5,515.7344 A0,0 0 0 0 210.5,515.7344 L210.5,500.5 L200.5,490.5 L140.5,490.5 L136.5,389.79 L132.5,490.5 L62.5,490.5 A0,0 0 0 0 62.5,490.5 " fill="#FEFFDD" style="stroke:#181818;stroke-width:0.5;"/><path d="M200.5,490.5 L200.5,500.5 L210.5,500.5 L200.5,490.5 " fill="#FEFFDD" style="stroke:#181818;stroke-width:0.5;"/><text fill="#000000" font-family="sans-serif" font-size="13" lengthAdjust="spacing" textLength="127" x="68.5" y="507.5605">See separate diagram.</text></g><!--class Data--><g id="elem_Data"><rect codeLine="36" fill="#F1F1F1" height="97.2188" id="Data" rx="2.5" ry="2.5" style="stroke:#181818;stroke-width:0.5;" width="183" x="594" y="102.5"/><ellipse cx="666.25" cy="118.5" fill="#ADD1B2" rx="11" ry="11" style="stroke:#181818;stroke-width:1.0;"/><path d="M666.2969,124.7031 C667.7969,124.7031 669.0313,124.1406 669.9375,123.0781 L668.5625,121.5625 C668.0156,122.1563 667.3594,122.5469 666.5625,122.5469 C664.8906,122.5469 663.7344,121.2188 663.7344,118.9375 C663.7344,116.7188 664.8906,115.375 666.4531,115.375 C667.2656,115.375 667.8594,115.6875 668.3906,116.1719 L669.7656,114.625 C669.0156,113.8906 667.8594,113.2188 666.4531,113.2188 C663.5,113.2188 661.1719,115.3594 661.1719,119.0313 C661.1719,122.75 663.5469,124.7031 666.2969,124.7031 Z " fill="#000000"/><text fill="#000000" font-family="sans-serif" font-size="14" lengthAdjust="spacing" textLength="30" x="686.75" y="123.2852">Data</text><line style="stroke:#181818;stroke-width:0.5;" x1="595" x2="776" y1="134.5" y2="134.5"/><text fill="#000000" font-family="sans-serif" font-size="14" lengthAdjust="spacing" textLength="107" x="600" y="151.4883">data : np.ndarray</text><text fill="#000000" font-family="sans-serif" font-size="14" lengthAdjust="spacing" textLength="99" x="600" y="167.8945">axes[]: AxisData</text><text fill="#000000" font-family="sans-serif" font-size="14" lengthAdjust="spacing" textLength="171" x="600" y="184.3008">metadata : DeviceMetadata</text><line style="stroke:#181818;stroke-width:0.5;" x1="595" x2="776" y1="191.7188" y2="191.7188"/></g><!--class Axis--><g id="elem_Axis"><rect codeLine="42" fill="#F1F1F1" height="130.0313" id="Axis" rx="2.5" ry="2.5" style="stroke:#181818;stroke-width:0.5;" width="130" x="620.5" y="300.5"/><ellipse cx="668.25" cy="316.5" fill="#ADD1B2" rx="11" ry="11" style="stroke:#181818;stroke-width:1.0;"/><path d="M668.2969,322.7031 C669.7969,322.7031 671.0313,322.1406 671.9375,321.0781 L670.5625,319.5625 C670.0156,320.1563 669.3594,320.5469 668.5625,320.5469 C666.8906,320.5469 665.7344,319.2188 665.7344,316.9375 C665.7344,314.7188 666.8906,313.375 668.4531,313.375 C669.2656,313.375 669.8594,313.6875 670.3906,314.1719 L671.7656,312.625 C671.0156,311.8906 669.8594,311.2188 668.4531,311.2188 C665.5,311.2188 663.1719,313.3594 663.1719,317.0313 C663.1719,320.75 665.5469,322.7031 668.2969,322.7031 Z " fill="#000000"/><text fill="#000000" font-family="sans-serif" font-size="14" lengthAdjust="spacing" textLength="26" x="688.75" y="321.2852">Axis</text><line style="stroke:#181818;stroke-width:0.5;" x1="621.5" x2="749.5" y1="332.5" y2="332.5"/><text fill="#000000" font-family="sans-serif" font-size="14" lengthAdjust="spacing" textLength="118" x="626.5" y="349.4883">values : np.ndarray</text><text fill="#000000" font-family="sans-serif" font-size="14" lengthAdjust="spacing" textLength="71" x="626.5" y="365.8945">label: string</text><text fill="#000000" font-family="sans-serif" font-size="14" lengthAdjust="spacing" textLength="97" x="626.5" y="382.3008">quantity : string</text><text fill="#000000" font-family="sans-serif" font-size="14" lengthAdjust="spacing" textLength="90" x="626.5" y="398.707">symbol : string</text><text fill="#000000" font-family="sans-serif" font-size="14" lengthAdjust="spacing" textLength="69" x="626.5" y="415.1133">unit : string</text><line style="stroke:#181818;stroke-width:0.5;" x1="621.5" x2="749.5" y1="422.5313" y2="422.5313"/></g><!--reverse link Measurement to Metadata--><g id="link_Measurement_Metadata"><path codeLine="14" d="M136.5,252.58 C136.5,289.25 136.5,316.81 136.5,341.12 " fill="none" id="Measurement-backto-Metadata" style="stroke:#181818;stroke-width:1.0;"/><polygon fill="#181818" points="136.5,240.58,132.5,246.58,136.5,252.58,140.5,246.58,136.5,240.58" style="stroke:#181818;stroke-width:1.0;"/></g><!--reverse link Measurement to Scan--><g id="link_Measurement_Scan"><path codeLine="15" d="M266.5945,247.7072 C292.9145,267.3072 310.92,280.91 336.5,300.5 C354,313.91 373.38,329.2 388.8,341.48 " fill="none" id="Measurement-backto-Scan" style="stroke:#181818;stroke-width:1.0;"/><polygon fill="#181818" points="256.97,240.54,259.3932,247.3318,266.5945,247.7072,264.1713,240.9154,256.97,240.54" style="stroke:#181818;stroke-width:1.0;"/></g><!--reverse link Measurement to Setup--><g id="link_Measurement_Setup"><path codeLine="16" d="M205.0483,250.427 C230.5883,287.097 251.28,316.81 268.22,341.12 " fill="none" id="Measurement-backto-Setup" style="stroke:#181818;stroke-width:1.0;"/><polygon fill="#181818" points="198.19,240.58,198.3368,247.7896,205.0483,250.427,204.9015,243.2174,198.19,240.58" style="stroke:#181818;stroke-width:1.0;"/></g><!--reverse link Scan to Scan--><g id="link_Scan_Scan"><path d="M469.3388,192.3852 C457.0288,233.2552 436.77,300.53 424.46,341.38 " fill="none" id="Scan-backto-Scan" style="stroke:#181818;stroke-width:1.0;"/><polygon fill="none" points="474.53,175.15,463.5937,190.6548,475.0838,194.1156,474.53,175.15" style="stroke:#181818;stroke-width:1.0;"/></g><!--reverse link Setup to Setup--><g id="link_Setup_Setup"><path d="M362.6306,191.5543 C344.1706,232.4243 313.4,300.53 294.94,341.38 " fill="none" id="Setup-backto-Setup" style="stroke:#181818;stroke-width:1.0;"/><polygon fill="none" points="370.04,175.15,357.1625,189.0845,368.0987,194.0241,370.04,175.15" style="stroke:#181818;stroke-width:1.0;"/></g><!--reverse link Data to Axis--><g id="link_Data_Axis"><path codeLine="50" d="M685.5,211.69 C685.5,241.42 685.5,268.06 685.5,300.45 " fill="none" id="Data-backto-Axis" style="stroke:#181818;stroke-width:1.0;"/><polygon fill="#181818" points="685.5,199.69,681.5,205.69,685.5,211.69,689.5,205.69,685.5,199.69" style="stroke:#181818;stroke-width:1.0;"/><text fill="#000000" font-family="sans-serif" font-size="13" lengthAdjust="spacing" textLength="7" x="678.0953" y="289.1337">n</text></g><!--SRC=[ZL9DRy8m3BtdLqIxJ9f4kVSsYUCuSPmcvBQcHCf75xi8nFZlIrmeNnjRBwcVdzzpx3olcJigfzFEWkVUsQ8ERbfR89eq1je8JYa9zHo1-eWEFUkzqkbhS6DgfFr1bwVi31Wavw1U6u-tEVsbvy4R3d5aLWZE_eyw62x9GqVhmByu8qEJwtDg-1MSQl09MwHZY97xBWFv5CI6TkcG25gazu-KUWljV8ZLGQdB0RnC9cVrsuHOt85YCyxosEC-2_l0gAl079mEg-kk5uYfqmuY9Cvn8uL2t-GYTTB33QwCnIAP6JP8XKIvZy7X8KlcS46JCjnoCdcaFDAb_W_-vULdmyLbeSEUV5Vu1cA4dQ2mpVClzUlMq4zhdSap6CSqDfxvH-4Ds1xfNjf2XRRKnD7uLf3F7dAhEts5qivLmLvZVNgCPoIvoaNIRf_yatYhRm00]--></g></svg>