<?xml version="1.0" encoding="us-ascii" standalone="no"?><svg xmlns="http://www.w3.org/2000/svg" xmlns:xlink="http://www.w3.org/1999/xlink" contentStyleType="text/css" height="521px" preserveAspectRatio="none" style="width:875px;height:521px;background:#FFFFFF;" version="1.1" viewBox="0 0 875 521" width="875px" zoomAndPan="magnify"><defs/><g><!--cluster evefile--><g id="cluster_evefile"><path d="M331.5,6 L387.5,6 A3.75,3.75 0 0 1 390,8.5 L397,28.2969 L639.5,28.2969 A2.5,2.5 0 0 1 642,30.7969 L642,236.5 A2.5,2.5 0 0 1 639.5,239 L331.5,239 A2.5,2.5 0 0 1 329,236.5 L329,8.5 A2.5,2.5 0 0 1 331.5,6 " fill="none" style="stroke:#000000;stroke-width:1.5;"/><line style="stroke:#000000;stroke-width:1.5;" x1="329" x2="397" y1="28.2969" y2="28.2969"/><text fill="#000000" font-family="sans-serif" font-size="14" font-weight="bold" lengthAdjust="spacing" textLength="55" x="333" y="20.9951">evefile</text></g><!--cluster entities--><g id="cluster_entities"><path d="M355.5,49 L418.5,49 A3.75,3.75 0 0 1 421,51.5 L428,71.2969 L615.5,71.2969 A2.5,2.5 0 0 1 618,73.7969 L618,212.5 A2.5,2.5 0 0 1 615.5,215 L355.5,215 A2.5,2.5 0 0 1 353,212.5 L353,51.5 A2.5,2.5 0 0 1 355.5,49 " fill="none" style="stroke:#000000;stroke-width:1.5;"/><line style="stroke:#000000;stroke-width:1.5;" x1="353" x2="428" y1="71.2969" y2="71.2969"/><text fill="#000000" font-family="sans-serif" font-size="14" font-weight="bold" lengthAdjust="spacing" textLength="62" x="357" y="63.9951">entities</text></g><!--cluster file--><g id="cluster_file"><path d="M379.5,92 L406.5,92 A3.75,3.75 0 0 1 409,94.5 L416,114.2969 L591.5,114.2969 A2.5,2.5 0 0 1 594,116.7969 L594,188.5 A2.5,2.5 0 0 1 591.5,191 L379.5,191 A2.5,2.5 0 0 1 377,188.5 L377,94.5 A2.5,2.5 0 0 1 379.5,92 " fill="none" style="stroke:#000000;stroke-width:1.5;"/><line style="stroke:#000000;stroke-width:1.5;" x1="377" x2="416" y1="114.2969" y2="114.2969"/><text fill="#000000" font-family="sans-serif" font-size="14" font-weight="bold" lengthAdjust="spacing" textLength="26" x="381" y="106.9951">file</text></g><!--class Scan--><g id="elem_Scan"><rect codeLine="26" fill="#F1F1F1" height="48" id="Scan" rx="2.5" ry="2.5" style="stroke:#181818;stroke-width:0.5;" width="67" x="510.5" y="127"/><ellipse cx="525.5" cy="143" fill="#ADD1B2" rx="11" ry="11" style="stroke:#181818;stroke-width:1.0;"/><path d="M528.4844,148.6406 Q527.9063,148.9375 527.2656,149.0781 Q526.625,149.2344 525.9219,149.2344 Q523.4063,149.2344 522.0781,147.5938 Q520.7656,145.9375 520.7656,142.8125 Q520.7656,139.6719 522.0781,138.0313 Q523.4063,136.375 525.9219,136.375 Q526.625,136.375 527.2656,136.5313 Q527.9219,136.6719 528.4844,136.9688 L528.4844,139.6875 Q527.8438,139.1094 527.25,138.8438 Q526.6563,138.5781 526.0313,138.5781 Q524.6875,138.5781 524,139.6406 Q523.3125,140.7031 523.3125,142.8125 Q523.3125,144.9063 524,145.9844 Q524.6875,147.0469 526.0313,147.0469 Q526.6563,147.0469 527.25,146.7813 Q527.8438,146.5 528.4844,145.9219 L528.4844,148.6406 Z " fill="#000000"/><text fill="#000000" font-family="sans-serif" font-size="14" lengthAdjust="spacing" textLength="35" x="539.5" y="147.8467">Scan</text><line style="stroke:#181818;stroke-width:0.5;" x1="511.5" x2="576.5" y1="159" y2="159"/><line style="stroke:#181818;stroke-width:0.5;" x1="511.5" x2="576.5" y1="167" y2="167"/></g><!--class Station--><g id="elem_Station"><rect codeLine="29" fill="#F1F1F1" height="48" id="Station" rx="2.5" ry="2.5" style="stroke:#181818;stroke-width:0.5;" width="82" x="393" y="127"/><ellipse cx="408" cy="143" fill="#ADD1B2" rx="11" ry="11" style="stroke:#181818;stroke-width:1.0;"/><path d="M410.9844,148.6406 Q410.4063,148.9375 409.7656,149.0781 Q409.125,149.2344 408.4219,149.2344 Q405.9063,149.2344 404.5781,147.5938 Q403.2656,145.9375 403.2656,142.8125 Q403.2656,139.6719 404.5781,138.0313 Q405.9063,136.375 408.4219,136.375 Q409.125,136.375 409.7656,136.5313 Q410.4219,136.6719 410.9844,136.9688 L410.9844,139.6875 Q410.3438,139.1094 409.75,138.8438 Q409.1563,138.5781 408.5313,138.5781 Q407.1875,138.5781 406.5,139.6406 Q405.8125,140.7031 405.8125,142.8125 Q405.8125,144.9063 406.5,145.9844 Q407.1875,147.0469 408.5313,147.0469 Q409.1563,147.0469 409.75,146.7813 Q410.3438,146.5 410.9844,145.9219 L410.9844,148.6406 Z " fill="#000000"/><text fill="#000000" font-family="sans-serif" font-size="14" lengthAdjust="spacing" textLength="50" x="422" y="147.8467">Station</text><line style="stroke:#181818;stroke-width:0.5;" x1="394" x2="474" y1="159" y2="159"/><line style="stroke:#181818;stroke-width:0.5;" x1="394" x2="474" y1="167" y2="167"/></g><!--class Measurement--><g id="elem_Measurement"><rect codeLine="3" fill="#F1F1F1" height="178.375" id="Measurement" rx="2.5" ry="2.5" style="stroke:#181818;stroke-width:0.5;" width="306" x="7" y="62"/><ellipse cx="106.75" cy="78" fill="#ADD1B2" rx="11" ry="11" style="stroke:#181818;stroke-width:1.0;"/><path d="M109.7344,83.6406 Q109.1563,83.9375 108.5156,84.0781 Q107.875,84.2344 107.1719,84.2344 Q104.6563,84.2344 103.3281,82.5938 Q102.0156,80.9375 102.0156,77.8125 Q102.0156,74.6719 103.3281,73.0313 Q104.6563,71.375 107.1719,71.375 Q107.875,71.375 108.5156,71.5313 Q109.1719,71.6719 109.7344,71.9688 L109.7344,74.6875 Q109.0938,74.1094 108.5,73.8438 Q107.9063,73.5781 107.2813,73.5781 Q105.9375,73.5781 105.25,74.6406 Q104.5625,75.7031 104.5625,77.8125 Q104.5625,79.9063 105.25,80.9844 Q105.9375,82.0469 107.2813,82.0469 Q107.9063,82.0469 108.5,81.7813 Q109.0938,81.5 109.7344,80.9219 L109.7344,83.6406 Z " fill="#000000"/><text fill="#000000" font-family="sans-serif" font-size="14" lengthAdjust="spacing" textLength="98" x="127.25" y="82.8467">Measurement</text><line style="stroke:#181818;stroke-width:0.5;" x1="8" x2="312" y1="94" y2="94"/><text fill="#000000" font-family="sans-serif" font-size="14" lengthAdjust="spacing" textLength="219" x="13" y="110.9951">scan_modules{} : ScanModule</text><text fill="#000000" font-family="sans-serif" font-size="14" lengthAdjust="spacing" textLength="289" x="13" y="127.292">machine{} : MeasureData | MonitorData</text><text fill="#000000" font-family="sans-serif" font-size="14" lengthAdjust="spacing" textLength="294" x="13" y="143.5889">beamline{} : MeasureData | MonitorData</text><text fill="#000000" font-family="sans-serif" font-size="14" lengthAdjust="spacing" textLength="251" x="13" y="159.8857">device_snapshots{} : MeasureData</text><text fill="#000000" font-family="sans-serif" font-size="14" lengthAdjust="spacing" textLength="149" x="13" y="176.1826">metadata : Metadata</text><text fill="#000000" font-family="sans-serif" font-size="14" lengthAdjust="spacing" textLength="81" x="13" y="192.4795">scan : Scan</text><text fill="#000000" font-family="sans-serif" font-size="14" lengthAdjust="spacing" textLength="111" x="13" y="208.7764">station : Station</text><text fill="#000000" font-family="sans-serif" font-size="14" lengthAdjust="spacing" textLength="211" x="13" y="225.0732">log_messages[] : LogMessage</text><line style="stroke:#181818;stroke-width:0.5;" x1="8" x2="312" y1="232.375" y2="232.375"/></g><!--class Metadata--><g id="elem_Metadata"><rect codeLine="18" fill="#F1F1F1" height="48" id="Metadata" rx="2.5" ry="2.5" style="stroke:#181818;stroke-width:0.5;" width="99" x="110.5" y="340.5"/><ellipse cx="125.5" cy="356.5" fill="#ADD1B2" rx="11" ry="11" style="stroke:#181818;stroke-width:1.0;"/><path d="M128.4844,362.1406 Q127.9063,362.4375 127.2656,362.5781 Q126.625,362.7344 125.9219,362.7344 Q123.4063,362.7344 122.0781,361.0938 Q120.7656,359.4375 120.7656,356.3125 Q120.7656,353.1719 122.0781,351.5313 Q123.4063,349.875 125.9219,349.875 Q126.625,349.875 127.2656,350.0313 Q127.9219,350.1719 128.4844,350.4688 L128.4844,353.1875 Q127.8438,352.6094 127.25,352.3438 Q126.6563,352.0781 126.0313,352.0781 Q124.6875,352.0781 124,353.1406 Q123.3125,354.2031 123.3125,356.3125 Q123.3125,358.4063 124,359.4844 Q124.6875,360.5469 126.0313,360.5469 Q126.6563,360.5469 127.25,360.2813 Q127.8438,360 128.4844,359.4219 L128.4844,362.1406 Z " fill="#000000"/><text fill="#000000" font-family="sans-serif" font-size="14" lengthAdjust="spacing" textLength="67" x="139.5" y="361.3467">Metadata</text><line style="stroke:#181818;stroke-width:0.5;" x1="111.5" x2="208.5" y1="372.5" y2="372.5"/><line style="stroke:#181818;stroke-width:0.5;" x1="111.5" x2="208.5" y1="380.5" y2="380.5"/></g><!--class Scan--><g id="elem_Scan"><rect codeLine="32" fill="#F1F1F1" height="48" id="Scan" rx="2.5" ry="2.5" style="stroke:#181818;stroke-width:0.5;" width="67" x="436.5" y="340.5"/><ellipse cx="451.5" cy="356.5" fill="#ADD1B2" rx="11" ry="11" style="stroke:#181818;stroke-width:1.0;"/><path d="M454.4844,362.1406 Q453.9063,362.4375 453.2656,362.5781 Q452.625,362.7344 451.9219,362.7344 Q449.4063,362.7344 448.0781,361.0938 Q446.7656,359.4375 446.7656,356.3125 Q446.7656,353.1719 448.0781,351.5313 Q449.4063,349.875 451.9219,349.875 Q452.625,349.875 453.2656,350.0313 Q453.9219,350.1719 454.4844,350.4688 L454.4844,353.1875 Q453.8438,352.6094 453.25,352.3438 Q452.6563,352.0781 452.0313,352.0781 Q450.6875,352.0781 450,353.1406 Q449.3125,354.2031 449.3125,356.3125 Q449.3125,358.4063 450,359.4844 Q450.6875,360.5469 452.0313,360.5469 Q452.6563,360.5469 453.25,360.2813 Q453.8438,360 454.4844,359.4219 L454.4844,362.1406 Z " fill="#000000"/><text fill="#000000" font-family="sans-serif" font-size="14" lengthAdjust="spacing" textLength="35" x="465.5" y="361.3467">Scan</text><line style="stroke:#181818;stroke-width:0.5;" x1="437.5" x2="502.5" y1="372.5" y2="372.5"/><line style="stroke:#181818;stroke-width:0.5;" x1="437.5" x2="502.5" y1="380.5" y2="380.5"/></g><!--class Station--><g id="elem_Station"><rect codeLine="34" fill="#F1F1F1" height="48" id="Station" rx="2.5" ry="2.5" style="stroke:#181818;stroke-width:0.5;" width="82" x="282" y="340.5"/><ellipse cx="297" cy="356.5" fill="#ADD1B2" rx="11" ry="11" style="stroke:#181818;stroke-width:1.0;"/><path d="M299.9844,362.1406 Q299.4063,362.4375 298.7656,362.5781 Q298.125,362.7344 297.4219,362.7344 Q294.9063,362.7344 293.5781,361.0938 Q292.2656,359.4375 292.2656,356.3125 Q292.2656,353.1719 293.5781,351.5313 Q294.9063,349.875 297.4219,349.875 Q298.125,349.875 298.7656,350.0313 Q299.4219,350.1719 299.9844,350.4688 L299.9844,353.1875 Q299.3438,352.6094 298.75,352.3438 Q298.1563,352.0781 297.5313,352.0781 Q296.1875,352.0781 295.5,353.1406 Q294.8125,354.2031 294.8125,356.3125 Q294.8125,358.4063 295.5,359.4844 Q296.1875,360.5469 297.5313,360.5469 Q298.1563,360.5469 298.75,360.2813 Q299.3438,360 299.9844,359.4219 L299.9844,362.1406 Z " fill="#000000"/><text fill="#000000" font-family="sans-serif" font-size="14" lengthAdjust="spacing" textLength="50" x="311" y="361.3467">Station</text><line style="stroke:#181818;stroke-width:0.5;" x1="283" x2="363" y1="372.5" y2="372.5"/><line style="stroke:#181818;stroke-width:0.5;" x1="283" x2="363" y1="380.5" y2="380.5"/></g><g id="elem_GMN9"><path d="M76,489 L76,514.1328 A0,0 0 0 0 76,514.1328 L244,514.1328 A0,0 0 0 0 244,514.1328 L244,499 L234,489 L164,489 L160,388.71 L156,489 L76,489 A0,0 0 0 0 76,489 " fill="#FEFFDD" style="stroke:#181818;stroke-width:0.5;"/><path d="M234,489 L234,499 L244,499 L234,489 " fill="#FEFFDD" style="stroke:#181818;stroke-width:0.5;"/><text fill="#000000" font-family="sans-serif" font-size="13" lengthAdjust="spacing" textLength="147" x="82" y="506.0669">See separate diagram.</text></g><!--class Data--><g id="elem_Data"><rect codeLine="36" fill="#F1F1F1" height="96.8906" id="Data" rx="2.5" ry="2.5" style="stroke:#181818;stroke-width:0.5;" width="210" x="658" y="102.5"/><ellipse cx="741.75" cy="118.5" fill="#ADD1B2" rx="11" ry="11" style="stroke:#181818;stroke-width:1.0;"/><path d="M744.7344,124.1406 Q744.1563,124.4375 743.5156,124.5781 Q742.875,124.7344 742.1719,124.7344 Q739.6563,124.7344 738.3281,123.0938 Q737.0156,121.4375 737.0156,118.3125 Q737.0156,115.1719 738.3281,113.5313 Q739.6563,111.875 742.1719,111.875 Q742.875,111.875 743.5156,112.0313 Q744.1719,112.1719 744.7344,112.4688 L744.7344,115.1875 Q744.0938,114.6094 743.5,114.3438 Q742.9063,114.0781 742.2813,114.0781 Q740.9375,114.0781 740.25,115.1406 Q739.5625,116.2031 739.5625,118.3125 Q739.5625,120.4063 740.25,121.4844 Q740.9375,122.5469 742.2813,122.5469 Q742.9063,122.5469 743.5,122.2813 Q744.0938,122 744.7344,121.4219 L744.7344,124.1406 Z " fill="#000000"/><text fill="#000000" font-family="sans-serif" font-size="14" lengthAdjust="spacing" textLength="34" x="762.25" y="123.3467">Data</text><line style="stroke:#181818;stroke-width:0.5;" x1="659" x2="867" y1="134.5" y2="134.5"/><text fill="#000000" font-family="sans-serif" font-size="14" lengthAdjust="spacing" textLength="123" x="664" y="151.4951">data : np.ndarray</text><text fill="#000000" font-family="sans-serif" font-size="14" lengthAdjust="spacing" textLength="115" x="664" y="167.792">axes[]: AxisData</text><text fill="#000000" font-family="sans-serif" font-size="14" lengthAdjust="spacing" textLength="198" x="664" y="184.0889">metadata : DeviceMetadata</text><line style="stroke:#181818;stroke-width:0.5;" x1="659" x2="867" y1="191.3906" y2="191.3906"/></g><!--class Axis--><g id="elem_Axis"><rect codeLine="42" fill="#F1F1F1" height="129.4844" id="Axis" rx="2.5" ry="2.5" style="stroke:#181818;stroke-width:0.5;" width="149" x="688.5" y="300"/><ellipse cx="744.25" cy="316" fill="#ADD1B2" rx="11" ry="11" style="stroke:#181818;stroke-width:1.0;"/><path d="M747.2344,321.6406 Q746.6563,321.9375 746.0156,322.0781 Q745.375,322.2344 744.6719,322.2344 Q742.1563,322.2344 740.8281,320.5938 Q739.5156,318.9375 739.5156,315.8125 Q739.5156,312.6719 740.8281,311.0313 Q742.1563,309.375 744.6719,309.375 Q745.375,309.375 746.0156,309.5313 Q746.6719,309.6719 747.2344,309.9688 L747.2344,312.6875 Q746.5938,312.1094 746,311.8438 Q745.4063,311.5781 744.7813,311.5781 Q743.4375,311.5781 742.75,312.6406 Q742.0625,313.7031 742.0625,315.8125 Q742.0625,317.9063 742.75,318.9844 Q743.4375,320.0469 744.7813,320.0469 Q745.4063,320.0469 746,319.7813 Q746.5938,319.5 747.2344,318.9219 L747.2344,321.6406 Z " fill="#000000"/><text fill="#000000" font-family="sans-serif" font-size="14" lengthAdjust="spacing" textLength="29" x="764.75" y="320.8467">Axis</text><line style="stroke:#181818;stroke-width:0.5;" x1="689.5" x2="836.5" y1="332" y2="332"/><text fill="#000000" font-family="sans-serif" font-size="14" lengthAdjust="spacing" textLength="137" x="694.5" y="348.9951">values : np.ndarray</text><text fill="#000000" font-family="sans-serif" font-size="14" lengthAdjust="spacing" textLength="84" x="694.5" y="365.292">label: string</text><text fill="#000000" font-family="sans-serif" font-size="14" lengthAdjust="spacing" textLength="111" x="694.5" y="381.5889">quantity : string</text><text fill="#000000" font-family="sans-serif" font-size="14" lengthAdjust="spacing" textLength="104" x="694.5" y="397.8857">symbol : string</text><text fill="#000000" font-family="sans-serif" font-size="14" lengthAdjust="spacing" textLength="80" x="694.5" y="414.1826">unit : string</text><line style="stroke:#181818;stroke-width:0.5;" x1="689.5" x2="836.5" y1="421.4844" y2="421.4844"/></g><!--reverse link Measurement to Metadata--><g id="link_Measurement_Metadata"><path codeLine="14" d="M160,252.16 C160,288.66 160,316.03 160,340.23 " fill="none" id="Measurement-backto-Metadata" style="stroke:#181818;stroke-width:1.0;"/><polygon fill="#181818" points="160,240.16,156,246.16,160,252.16,164,246.16,160,240.16" style="stroke:#181818;stroke-width:1.0;"/></g><!--reverse link Measurement to Scan--><g id="link_Measurement_Scan"><path codeLine="15" d="M303.7541,246.7022 C332.9641,266.2422 353.65,280.33 382,300 C400.88,313.1 421.76,328.14 438.43,340.29 " fill="none" id="Measurement-backto-Scan" style="stroke:#181818;stroke-width:1.0;"/><polygon fill="#181818" points="293.78,240.03,296.543,246.6908,303.7541,246.7022,300.9911,240.0414,293.78,240.03" style="stroke:#181818;stroke-width:1.0;"/></g><!--reverse link Measurement to Station--><g id="link_Measurement_Station"><path codeLine="16" d="M235.2736,249.6661 C263.3936,286.1661 286.42,316.03 305.07,340.23 " fill="none" id="Measurement-backto-Station" style="stroke:#181818;stroke-width:1.0;"/><polygon fill="#181818" points="227.95,240.16,228.4431,247.3542,235.2736,249.6661,234.7805,242.4718,227.95,240.16" style="stroke:#181818;stroke-width:1.0;"/></g><!--reverse link Scan to Scan--><g id="link_Scan_Scan"><path d="M529.9967,192.0305 C515.7667,232.7105 492.28,299.83 478.05,340.49 " fill="none" id="Scan-backto-Scan" style="stroke:#181818;stroke-width:1.0;"/><polygon fill="none" points="535.94,175.04,524.3332,190.0494,535.6602,194.0116,535.94,175.04" style="stroke:#181818;stroke-width:1.0;"/></g><!--reverse link Station to Station--><g id="link_Station_Station"><path d="M413.5451,190.9783 C392.1951,231.6583 356.42,299.83 335.08,340.49 " fill="none" id="Station-backto-Station" style="stroke:#181818;stroke-width:1.0;"/><polygon fill="none" points="421.91,175.04,408.2324,188.19,418.8579,193.7666,421.91,175.04" style="stroke:#181818;stroke-width:1.0;"/></g><!--reverse link Data to Axis--><g id="link_Data_Axis"><path codeLine="50" d="M763,211.73 C763,241.33 763,267.73 763,299.9 " fill="none" id="Data-backto-Axis" style="stroke:#181818;stroke-width:1.0;"/><polygon fill="#181818" points="763,199.73,759,205.73,763,211.73,767,205.73,763,199.73" style="stroke:#181818;stroke-width:1.0;"/><text fill="#000000" font-family="sans-serif" font-size="13" lengthAdjust="spacing" textLength="8" x="754.5625" y="289.0617">n</text></g><!--SRC=[ZL9DRy8m3BtdLqIxJ9f4kVSsYUDwuZXDo6rDYPIFhauHYF7VbpXPeJ2nvHG_F_kzs7dUUTzJkLps6gmVZIuQPvQD1g95gw0Rm0Z1eQmGQ1pGeFNo96Gur83T6DUE6kbqbgLS1w3YcFC6cfsooAbSlG8FyajMpYhlXXWniqOm-d_K5lUgmGrPw6ddFDsM96NqqCRwc4hNoN7scM8FNZc6qerHxRgDGIBeaDu_GlBDTLMAnLc8wq6yB1ONXTi4ozo1MMYQQdPwYgsjyoXhvxqpqctdtjU8ah270G8dxwOGQDjO97xwuHwtIcCHv9HNI0L7qKbIUCZAqxWYSY4UV91vr7kYvmv_LCn7i4hFv-McdTc-i2qC0nmPXKFSGobV3uf-M_6AlyGqhCbyvEV6Uz0Zqdrh3JNgClo3GTcEaSyHejcZdA5qDBNJSsmC7_E215L-IDZnatrYRV4D]--></g></svg>