<?xml version="1.0" encoding="us-ascii" standalone="no"?><svg xmlns="http://www.w3.org/2000/svg" xmlns:xlink="http://www.w3.org/1999/xlink" contentStyleType="text/css" height="329px" preserveAspectRatio="none" style="width:1056px;height:329px;background:#FFFFFF;" version="1.1" viewBox="0 0 1056 329" width="1056.5px" zoomAndPan="magnify"><defs/><g><!--class Metadata--><g id="elem_Metadata"><rect codeLine="2" fill="#F1F1F1" height="40.4063" id="Metadata" rx="1.25" ry="1.25" style="stroke:#181818;stroke-width:0.25;" width="46.5" x="458.5" y="3.5"/><ellipse cx="466" cy="11.5" fill="#ADD1B2" rx="5.5" ry="5.5" style="stroke:#181818;stroke-width:0.5;"/><path d="M466.0234,14.6016 C466.7734,14.6016 467.3906,14.3203 467.8438,13.7891 L467.1563,13.0313 C466.8828,13.3281 466.5547,13.5234 466.1563,13.5234 C465.3203,13.5234 464.7422,12.8594 464.7422,11.7188 C464.7422,10.6094 465.3203,9.9375 466.1016,9.9375 C466.5078,9.9375 466.8047,10.0938 467.0703,10.3359 L467.7578,9.5625 C467.3828,9.1953 466.8047,8.8594 466.1016,8.8594 C464.625,8.8594 463.4609,9.9297 463.4609,11.7656 C463.4609,13.625 464.6484,14.6016 466.0234,14.6016 Z " fill="#000000"/><text fill="#000000" font-family="sans-serif" font-size="7" lengthAdjust="spacing" textLength="30.5" x="473" y="13.8926">Metadata</text><line style="stroke:#181818;stroke-width:0.25;" x1="459" x2="504.5" y1="19.5" y2="19.5"/><text fill="#000000" font-family="sans-serif" font-size="7" lengthAdjust="spacing" textLength="40" x="461.5" y="27.9941">name : string</text><text fill="#000000" font-family="sans-serif" font-size="7" lengthAdjust="spacing" textLength="39.5" x="461.5" y="36.1973">options : dict</text><line style="stroke:#181818;stroke-width:0.25;" x1="459" x2="504.5" y1="39.9063" y2="39.9063"/></g><path d="M522.5,7 L522.5,19.2024 L501,33.8047 L522.5,23.2024 L522.5,35.4049 A0,0 0 0 0 522.5,35.4049 L744,35.4049 A0,0 0 0 0 744,35.4049 L744,12 L739,7 L522.5,7 A0,0 0 0 0 522.5,7 " fill="#FEFFDD" style="stroke:#181818;stroke-width:0.25;"/><path d="M739,7 L739,12 L744,12 L739,7 " fill="#FEFFDD" style="stroke:#181818;stroke-width:0.25;"/><text fill="#000000" font-family="sans-serif" font-size="6.5" lengthAdjust="spacing" textLength="68" x="525.5" y="16.0836">The difference between</text><text fill="#000000" font-family="monospace" font-size="6.5" lengthAdjust="spacing" textLength="28" x="595" y="15.896">options</text><text fill="#000000" font-family="sans-serif" font-size="6.5" lengthAdjust="spacing" textLength="59.5" x="624.5" y="16.0836">here in Metadata and</text><text fill="#000000" font-family="monospace" font-size="6.5" lengthAdjust="spacing" textLength="28" x="685.5" y="15.896">options</text><text fill="#000000" font-family="sans-serif" font-size="6.5" lengthAdjust="spacing" textLength="21.5" x="715" y="16.0836">in Data:</text><text fill="#000000" font-family="sans-serif" font-size="6.5" lengthAdjust="spacing" textLength="193" x="525.5" y="23.7008">Options in Data vary potentially for each data point, hence are arrays,</text><text fill="#000000" font-family="sans-serif" font-size="6.5" lengthAdjust="spacing" textLength="201.5" x="525.5" y="31.318">while options in Metadata are scalar and don't change for a Data object.</text><!--class Data--><g id="elem_Data"><rect codeLine="12" fill="#F1F1F1" height="24" id="Data" rx="1.25" ry="1.25" style="stroke:#181818;stroke-width:0.25;" width="31" x="607.75" y="86.25"/><ellipse cx="615.25" cy="94.25" fill="#ADD1B2" rx="5.5" ry="5.5" style="stroke:#181818;stroke-width:0.5;"/><path d="M615.2734,97.3516 C616.0234,97.3516 616.6406,97.0703 617.0938,96.5391 L616.4063,95.7813 C616.1328,96.0781 615.8047,96.2734 615.4063,96.2734 C614.5703,96.2734 613.9922,95.6094 613.9922,94.4688 C613.9922,93.3594 614.5703,92.6875 615.3516,92.6875 C615.7578,92.6875 616.0547,92.8438 616.3203,93.0859 L617.0078,92.3125 C616.6328,91.9453 616.0547,91.6094 615.3516,91.6094 C613.875,91.6094 612.7109,92.6797 612.7109,94.5156 C612.7109,96.375 613.8984,97.3516 615.2734,97.3516 Z " fill="#000000"/><text fill="#000000" font-family="sans-serif" font-size="7" lengthAdjust="spacing" textLength="15" x="622.25" y="96.6426">Data</text><line style="stroke:#181818;stroke-width:0.25;" x1="608.25" x2="638.25" y1="102.25" y2="102.25"/><line style="stroke:#181818;stroke-width:0.25;" x1="608.25" x2="638.25" y1="106.25" y2="106.25"/></g><g id="elem_GMN6"><path d="M649.5,158.5 L649.5,178.7344 A0,0 0 0 0 649.5,178.7344 L705,178.7344 A0,0 0 0 0 705,178.7344 L705,163.5 L700,158.5 L671.75,158.5 L632.29,110.34 L667.75,158.5 L649.5,158.5 A0,0 0 0 0 649.5,158.5 " fill="#FEFFDD" style="stroke:#181818;stroke-width:0.25;"/><path d="M700,158.5 L700,163.5 L705,163.5 L700,158.5 " fill="#FEFFDD" style="stroke:#181818;stroke-width:0.25;"/><text fill="#000000" font-family="sans-serif" font-size="6.5" lengthAdjust="spacing" textLength="45" x="652.5" y="167.0303">See diagram for</text><text fill="#000000" font-family="sans-serif" font-size="6.5" lengthAdjust="spacing" textLength="36.5" x="652.5" y="174.6475">data module.</text></g><!--class AbstractDeviceMetadata--><g id="elem_AbstractDeviceMetadata"><rect codeLine="16" fill="#F1F1F1" height="48.6094" id="AbstractDeviceMetadata" rx="1.25" ry="1.25" style="stroke:#181818;stroke-width:0.25;" width="89.5" x="302.5" y="74"/><ellipse cx="310" cy="82" fill="#B4A7E5" rx="5.5" ry="5.5" style="stroke:#181818;stroke-width:0.5;"/><path d="M308.1328,85 L311.9688,85 L311.9688,83.9453 L310.6797,83.9453 L310.6797,80.5156 L311.9688,80.5156 L311.9688,79.4609 L308.1328,79.4609 L308.1328,80.5156 L309.4219,80.5156 L309.4219,83.9453 L308.1328,83.9453 L308.1328,85 Z " fill="#000000"/><text fill="#000000" font-family="sans-serif" font-size="7" font-style="italic" lengthAdjust="spacing" textLength="73.5" x="317" y="84.3926">AbstractDeviceMetadata</text><line style="stroke:#181818;stroke-width:0.25;" x1="303" x2="391.5" y1="90" y2="90"/><text fill="#000000" font-family="sans-serif" font-size="7" lengthAdjust="spacing" textLength="28" x="305.5" y="98.4941">id : string</text><text fill="#000000" font-family="sans-serif" font-size="7" lengthAdjust="spacing" textLength="30" x="305.5" y="106.6973">pv : string</text><text fill="#000000" font-family="sans-serif" font-size="7" lengthAdjust="spacing" textLength="64.5" x="305.5" y="114.9004">access_mode : string</text><line style="stroke:#181818;stroke-width:0.25;" x1="303" x2="391.5" y1="118.6094" y2="118.6094"/></g><!--class MeasureMetadata--><g id="elem_MeasureMetadata"><rect codeLine="22" fill="#F1F1F1" height="32.2031" id="MeasureMetadata" rx="1.25" ry="1.25" style="stroke:#181818;stroke-width:0.25;" width="73.5" x="445" y="82.25"/><ellipse cx="452.5" cy="90.25" fill="#ADD1B2" rx="5.5" ry="5.5" style="stroke:#181818;stroke-width:0.5;"/><path d="M452.5234,93.3516 C453.2734,93.3516 453.8906,93.0703 454.3438,92.5391 L453.6563,91.7813 C453.3828,92.0781 453.0547,92.2734 452.6563,92.2734 C451.8203,92.2734 451.2422,91.6094 451.2422,90.4688 C451.2422,89.3594 451.8203,88.6875 452.6016,88.6875 C453.0078,88.6875 453.3047,88.8438 453.5703,89.0859 L454.2578,88.3125 C453.8828,87.9453 453.3047,87.6094 452.6016,87.6094 C451.125,87.6094 449.9609,88.6797 449.9609,90.5156 C449.9609,92.375 451.1484,93.3516 452.5234,93.3516 Z " fill="#000000"/><text fill="#000000" font-family="sans-serif" font-size="7" lengthAdjust="spacing" textLength="57.5" x="459.5" y="92.6426">MeasureMetadata</text><line style="stroke:#181818;stroke-width:0.25;" x1="445.5" x2="518" y1="98.25" y2="98.25"/><text fill="#000000" font-family="sans-serif" font-size="7" lengthAdjust="spacing" textLength="34.5" x="448" y="106.7441">unit : string</text><line style="stroke:#181818;stroke-width:0.25;" x1="445.5" x2="518" y1="110.4531" y2="110.4531"/></g><!--class MonitorMetadata--><g id="elem_MonitorMetadata"><rect codeLine="26" fill="#F1F1F1" height="24" id="MonitorMetadata" rx="1.25" ry="1.25" style="stroke:#181818;stroke-width:0.25;" width="71" x="210.75" y="156.5"/><ellipse cx="218.25" cy="164.5" fill="#ADD1B2" rx="5.5" ry="5.5" style="stroke:#181818;stroke-width:0.5;"/><path d="M218.2734,167.6016 C219.0234,167.6016 219.6406,167.3203 220.0938,166.7891 L219.4063,166.0313 C219.1328,166.3281 218.8047,166.5234 218.4063,166.5234 C217.5703,166.5234 216.9922,165.8594 216.9922,164.7188 C216.9922,163.6094 217.5703,162.9375 218.3516,162.9375 C218.7578,162.9375 219.0547,163.0938 219.3203,163.3359 L220.0078,162.5625 C219.6328,162.1953 219.0547,161.8594 218.3516,161.8594 C216.875,161.8594 215.7109,162.9297 215.7109,164.7656 C215.7109,166.625 216.8984,167.6016 218.2734,167.6016 Z " fill="#000000"/><text fill="#000000" font-family="sans-serif" font-size="7" lengthAdjust="spacing" textLength="55" x="225.25" y="166.8926">MonitorMetadata</text><line style="stroke:#181818;stroke-width:0.25;" x1="211.25" x2="281.25" y1="172.5" y2="172.5"/><line style="stroke:#181818;stroke-width:0.25;" x1="211.25" x2="281.25" y1="176.5" y2="176.5"/></g><!--class DeviceMetadata--><g id="elem_DeviceMetadata"><rect codeLine="29" fill="#F1F1F1" height="24" id="DeviceMetadata" rx="1.25" ry="1.25" style="stroke:#181818;stroke-width:0.25;" width="66.5" x="466.5" y="156.5"/><ellipse cx="474" cy="164.5" fill="#ADD1B2" rx="5.5" ry="5.5" style="stroke:#181818;stroke-width:0.5;"/><path d="M474.0234,167.6016 C474.7734,167.6016 475.3906,167.3203 475.8438,166.7891 L475.1563,166.0313 C474.8828,166.3281 474.5547,166.5234 474.1563,166.5234 C473.3203,166.5234 472.7422,165.8594 472.7422,164.7188 C472.7422,163.6094 473.3203,162.9375 474.1016,162.9375 C474.5078,162.9375 474.8047,163.0938 475.0703,163.3359 L475.7578,162.5625 C475.3828,162.1953 474.8047,161.8594 474.1016,161.8594 C472.625,161.8594 471.4609,162.9297 471.4609,164.7656 C471.4609,166.625 472.6484,167.6016 474.0234,167.6016 Z " fill="#000000"/><text fill="#000000" font-family="sans-serif" font-size="7" lengthAdjust="spacing" textLength="50.5" x="481" y="166.8926">DeviceMetadata</text><line style="stroke:#181818;stroke-width:0.25;" x1="467" x2="532.5" y1="172.5" y2="172.5"/><line style="stroke:#181818;stroke-width:0.25;" x1="467" x2="532.5" y1="176.5" y2="176.5"/></g><!--class AxisMetadata--><g id="elem_AxisMetadata"><rect codeLine="32" fill="#F1F1F1" height="32.2031" id="AxisMetadata" rx="1.25" ry="1.25" style="stroke:#181818;stroke-width:0.25;" width="59.5" x="299.5" y="152.5"/><ellipse cx="307" cy="160.5" fill="#ADD1B2" rx="5.5" ry="5.5" style="stroke:#181818;stroke-width:0.5;"/><path d="M307.0234,163.6016 C307.7734,163.6016 308.3906,163.3203 308.8438,162.7891 L308.1563,162.0313 C307.8828,162.3281 307.5547,162.5234 307.1563,162.5234 C306.3203,162.5234 305.7422,161.8594 305.7422,160.7188 C305.7422,159.6094 306.3203,158.9375 307.1016,158.9375 C307.5078,158.9375 307.8047,159.0938 308.0703,159.3359 L308.7578,158.5625 C308.3828,158.1953 307.8047,157.8594 307.1016,157.8594 C305.625,157.8594 304.4609,158.9297 304.4609,160.7656 C304.4609,162.625 305.6484,163.6016 307.0234,163.6016 Z " fill="#000000"/><text fill="#000000" font-family="sans-serif" font-size="7" lengthAdjust="spacing" textLength="43.5" x="314" y="162.8926">AxisMetadata</text><line style="stroke:#181818;stroke-width:0.25;" x1="300" x2="358.5" y1="168.5" y2="168.5"/><text fill="#000000" font-family="sans-serif" font-size="7" lengthAdjust="spacing" textLength="50.5" x="302.5" y="176.9941">deadband : float</text><line style="stroke:#181818;stroke-width:0.25;" x1="300" x2="358.5" y1="180.7031" y2="180.7031"/></g><!--class ChannelMetadata--><g id="elem_ChannelMetadata"><rect codeLine="36" fill="#F1F1F1" height="24" id="ChannelMetadata" rx="1.25" ry="1.25" style="stroke:#181818;stroke-width:0.25;" width="72" x="376.75" y="156.5"/><ellipse cx="384.25" cy="164.5" fill="#ADD1B2" rx="5.5" ry="5.5" style="stroke:#181818;stroke-width:0.5;"/><path d="M384.2734,167.6016 C385.0234,167.6016 385.6406,167.3203 386.0938,166.7891 L385.4063,166.0313 C385.1328,166.3281 384.8047,166.5234 384.4063,166.5234 C383.5703,166.5234 382.9922,165.8594 382.9922,164.7188 C382.9922,163.6094 383.5703,162.9375 384.3516,162.9375 C384.7578,162.9375 385.0547,163.0938 385.3203,163.3359 L386.0078,162.5625 C385.6328,162.1953 385.0547,161.8594 384.3516,161.8594 C382.875,161.8594 381.7109,162.9297 381.7109,164.7656 C381.7109,166.625 382.8984,167.6016 384.2734,167.6016 Z " fill="#000000"/><text fill="#000000" font-family="sans-serif" font-size="7" lengthAdjust="spacing" textLength="56" x="391.25" y="166.8926">ChannelMetadata</text><line style="stroke:#181818;stroke-width:0.25;" x1="377.25" x2="448.25" y1="172.5" y2="172.5"/><line style="stroke:#181818;stroke-width:0.25;" x1="377.25" x2="448.25" y1="176.5" y2="176.5"/></g><!--class TimestampMetadata--><g id="elem_TimestampMetadata"><rect codeLine="39" fill="#F1F1F1" height="24" id="TimestampMetadata" rx="1.25" ry="1.25" style="stroke:#181818;stroke-width:0.25;" width="81.5" x="550.5" y="156.5"/><ellipse cx="558" cy="164.5" fill="#ADD1B2" rx="5.5" ry="5.5" style="stroke:#181818;stroke-width:0.5;"/><path d="M558.0234,167.6016 C558.7734,167.6016 559.3906,167.3203 559.8438,166.7891 L559.1563,166.0313 C558.8828,166.3281 558.5547,166.5234 558.1563,166.5234 C557.3203,166.5234 556.7422,165.8594 556.7422,164.7188 C556.7422,163.6094 557.3203,162.9375 558.1016,162.9375 C558.5078,162.9375 558.8047,163.0938 559.0703,163.3359 L559.7578,162.5625 C559.3828,162.1953 558.8047,161.8594 558.1016,161.8594 C556.625,161.8594 555.4609,162.9297 555.4609,164.7656 C555.4609,166.625 556.6484,167.6016 558.0234,167.6016 Z " fill="#000000"/><text fill="#000000" font-family="sans-serif" font-size="7" lengthAdjust="spacing" textLength="65.5" x="565" y="166.8926">TimestampMetadata</text><line style="stroke:#181818;stroke-width:0.25;" x1="551" x2="631.5" y1="172.5" y2="172.5"/><line style="stroke:#181818;stroke-width:0.25;" x1="551" x2="631.5" y1="176.5" y2="176.5"/></g><!--class NonnumericAxisMetadata--><g id="elem_NonnumericAxisMetadata"><rect codeLine="42" fill="#F1F1F1" height="24" id="NonnumericAxisMetadata" rx="1.25" ry="1.25" style="stroke:#181818;stroke-width:0.25;" width="97.5" x="3.5" y="231"/><ellipse cx="11" cy="239" fill="#ADD1B2" rx="5.5" ry="5.5" style="stroke:#181818;stroke-width:0.5;"/><path d="M11.0234,242.1016 C11.7734,242.1016 12.3906,241.8203 12.8438,241.2891 L12.1563,240.5313 C11.8828,240.8281 11.5547,241.0234 11.1563,241.0234 C10.3203,241.0234 9.7422,240.3594 9.7422,239.2188 C9.7422,238.1094 10.3203,237.4375 11.1016,237.4375 C11.5078,237.4375 11.8047,237.5938 12.0703,237.8359 L12.7578,237.0625 C12.3828,236.6953 11.8047,236.3594 11.1016,236.3594 C9.625,236.3594 8.4609,237.4297 8.4609,239.2656 C8.4609,241.125 9.6484,242.1016 11.0234,242.1016 Z " fill="#000000"/><text fill="#000000" font-family="sans-serif" font-size="7" lengthAdjust="spacing" textLength="81.5" x="18" y="241.3926">NonnumericAxisMetadata</text><line style="stroke:#181818;stroke-width:0.25;" x1="4" x2="100.5" y1="247" y2="247"/><line style="stroke:#181818;stroke-width:0.25;" x1="4" x2="100.5" y1="251" y2="251"/></g><!--class NonnumericChannelMetadata--><g id="elem_NonnumericChannelMetadata"><rect codeLine="47" fill="#F1F1F1" height="24" id="NonnumericChannelMetadata" rx="1.25" ry="1.25" style="stroke:#181818;stroke-width:0.25;" width="110" x="231.75" y="231"/><ellipse cx="239.25" cy="239" fill="#ADD1B2" rx="5.5" ry="5.5" style="stroke:#181818;stroke-width:0.5;"/><path d="M239.2734,242.1016 C240.0234,242.1016 240.6406,241.8203 241.0938,241.2891 L240.4063,240.5313 C240.1328,240.8281 239.8047,241.0234 239.4063,241.0234 C238.5703,241.0234 237.9922,240.3594 237.9922,239.2188 C237.9922,238.1094 238.5703,237.4375 239.3516,237.4375 C239.7578,237.4375 240.0547,237.5938 240.3203,237.8359 L241.0078,237.0625 C240.6328,236.6953 240.0547,236.3594 239.3516,236.3594 C237.875,236.3594 236.7109,237.4297 236.7109,239.2656 C236.7109,241.125 237.8984,242.1016 239.2734,242.1016 Z " fill="#000000"/><text fill="#000000" font-family="sans-serif" font-size="7" lengthAdjust="spacing" textLength="94" x="246.25" y="241.3926">NonnumericChannelMetadata</text><line style="stroke:#181818;stroke-width:0.25;" x1="232.25" x2="341.25" y1="247" y2="247"/><line style="stroke:#181818;stroke-width:0.25;" x1="232.25" x2="341.25" y1="251" y2="251"/></g><!--class ArrayChannelMetadata--><g id="elem_ArrayChannelMetadata"><rect codeLine="63" fill="#F1F1F1" height="24" id="ArrayChannelMetadata" rx="1.25" ry="1.25" style="stroke:#181818;stroke-width:0.25;" width="89" x="695.25" y="231"/><ellipse cx="702.75" cy="239" fill="#ADD1B2" rx="5.5" ry="5.5" style="stroke:#181818;stroke-width:0.5;"/><path d="M702.7734,242.1016 C703.5234,242.1016 704.1406,241.8203 704.5938,241.2891 L703.9063,240.5313 C703.6328,240.8281 703.3047,241.0234 702.9063,241.0234 C702.0703,241.0234 701.4922,240.3594 701.4922,239.2188 C701.4922,238.1094 702.0703,237.4375 702.8516,237.4375 C703.2578,237.4375 703.5547,237.5938 703.8203,237.8359 L704.5078,237.0625 C704.1328,236.6953 703.5547,236.3594 702.8516,236.3594 C701.375,236.3594 700.2109,237.4297 700.2109,239.2656 C700.2109,241.125 701.3984,242.1016 702.7734,242.1016 Z " fill="#000000"/><text fill="#000000" font-family="sans-serif" font-size="7" lengthAdjust="spacing" textLength="73" x="709.75" y="241.3926">ArrayChannelMetadata</text><line style="stroke:#181818;stroke-width:0.25;" x1="695.75" x2="783.75" y1="247" y2="247"/><line style="stroke:#181818;stroke-width:0.25;" x1="695.75" x2="783.75" y1="251" y2="251"/></g><!--class AreaChannelMetadata--><g id="elem_AreaChannelMetadata"><rect codeLine="66" fill="#F1F1F1" height="24" id="AreaChannelMetadata" rx="1.25" ry="1.25" style="stroke:#181818;stroke-width:0.25;" width="86.5" x="837" y="231"/><ellipse cx="844.5" cy="239" fill="#ADD1B2" rx="5.5" ry="5.5" style="stroke:#181818;stroke-width:0.5;"/><path d="M844.5234,242.1016 C845.2734,242.1016 845.8906,241.8203 846.3438,241.2891 L845.6563,240.5313 C845.3828,240.8281 845.0547,241.0234 844.6563,241.0234 C843.8203,241.0234 843.2422,240.3594 843.2422,239.2188 C843.2422,238.1094 843.8203,237.4375 844.6016,237.4375 C845.0078,237.4375 845.3047,237.5938 845.5703,237.8359 L846.2578,237.0625 C845.8828,236.6953 845.3047,236.3594 844.6016,236.3594 C843.125,236.3594 841.9609,237.4297 841.9609,239.2656 C841.9609,241.125 843.1484,242.1016 844.5234,242.1016 Z " fill="#000000"/><text fill="#000000" font-family="sans-serif" font-size="7" lengthAdjust="spacing" textLength="70.5" x="851.5" y="241.3926">AreaChannelMetadata</text><line style="stroke:#181818;stroke-width:0.25;" x1="837.5" x2="923" y1="247" y2="247"/><line style="stroke:#181818;stroke-width:0.25;" x1="837.5" x2="923" y1="251" y2="251"/></g><!--class SinglePointChannelMetadata--><g id="elem_SinglePointChannelMetadata"><rect codeLine="50" fill="#F1F1F1" height="24" id="SinglePointChannelMetadata" rx="1.25" ry="1.25" style="stroke:#181818;stroke-width:0.25;" width="107" x="359.25" y="231"/><ellipse cx="366.75" cy="239" fill="#ADD1B2" rx="5.5" ry="5.5" style="stroke:#181818;stroke-width:0.5;"/><path d="M366.7734,242.1016 C367.5234,242.1016 368.1406,241.8203 368.5938,241.2891 L367.9063,240.5313 C367.6328,240.8281 367.3047,241.0234 366.9063,241.0234 C366.0703,241.0234 365.4922,240.3594 365.4922,239.2188 C365.4922,238.1094 366.0703,237.4375 366.8516,237.4375 C367.2578,237.4375 367.5547,237.5938 367.8203,237.8359 L368.5078,237.0625 C368.1328,236.6953 367.5547,236.3594 366.8516,236.3594 C365.375,236.3594 364.2109,237.4297 364.2109,239.2656 C364.2109,241.125 365.3984,242.1016 366.7734,242.1016 Z " fill="#000000"/><text fill="#000000" font-family="sans-serif" font-size="7" lengthAdjust="spacing" textLength="91" x="373.75" y="241.3926">SinglePointChannelMetadata</text><line style="stroke:#181818;stroke-width:0.25;" x1="359.75" x2="465.75" y1="247" y2="247"/><line style="stroke:#181818;stroke-width:0.25;" x1="359.75" x2="465.75" y1="251" y2="251"/></g><!--class AverageChannelMetadata--><g id="elem_AverageChannelMetadata"><rect codeLine="52" fill="#F1F1F1" height="56.8125" id="AverageChannelMetadata" rx="1.25" ry="1.25" style="stroke:#181818;stroke-width:0.25;" width="97.5" x="580.5" y="214.5"/><ellipse cx="588" cy="222.5" fill="#ADD1B2" rx="5.5" ry="5.5" style="stroke:#181818;stroke-width:0.5;"/><path d="M588.0234,225.6016 C588.7734,225.6016 589.3906,225.3203 589.8438,224.7891 L589.1563,224.0313 C588.8828,224.3281 588.5547,224.5234 588.1563,224.5234 C587.3203,224.5234 586.7422,223.8594 586.7422,222.7188 C586.7422,221.6094 587.3203,220.9375 588.1016,220.9375 C588.5078,220.9375 588.8047,221.0938 589.0703,221.3359 L589.7578,220.5625 C589.3828,220.1953 588.8047,219.8594 588.1016,219.8594 C586.625,219.8594 585.4609,220.9297 585.4609,222.7656 C585.4609,224.625 586.6484,225.6016 588.0234,225.6016 Z " fill="#000000"/><text fill="#000000" font-family="sans-serif" font-size="7" lengthAdjust="spacing" textLength="81.5" x="595" y="224.8926">AverageChannelMetadata</text><line style="stroke:#181818;stroke-width:0.25;" x1="581" x2="677.5" y1="230.5" y2="230.5"/><text fill="#000000" font-family="sans-serif" font-size="7" lengthAdjust="spacing" textLength="61.5" x="583.5" y="238.9941">n_averages : integer</text><text fill="#000000" font-family="sans-serif" font-size="7" lengthAdjust="spacing" textLength="46" x="583.5" y="247.1973">low_limit : float</text><text fill="#000000" font-family="sans-serif" font-size="7" lengthAdjust="spacing" textLength="71" x="583.5" y="255.4004">max_attempts : integer</text><text fill="#000000" font-family="sans-serif" font-size="7" lengthAdjust="spacing" textLength="64" x="583.5" y="263.6035">max_deviation : float</text><line style="stroke:#181818;stroke-width:0.25;" x1="581" x2="677.5" y1="267.3125" y2="267.3125"/></g><!--class IntervalChannelMetadata--><g id="elem_IntervalChannelMetadata"><rect codeLine="59" fill="#F1F1F1" height="32.2031" id="IntervalChannelMetadata" rx="1.25" ry="1.25" style="stroke:#181818;stroke-width:0.25;" width="95.5" x="118.5" y="227"/><ellipse cx="126" cy="235" fill="#ADD1B2" rx="5.5" ry="5.5" style="stroke:#181818;stroke-width:0.5;"/><path d="M126.0234,238.1016 C126.7734,238.1016 127.3906,237.8203 127.8438,237.2891 L127.1563,236.5313 C126.8828,236.8281 126.5547,237.0234 126.1563,237.0234 C125.3203,237.0234 124.7422,236.3594 124.7422,235.2188 C124.7422,234.1094 125.3203,233.4375 126.1016,233.4375 C126.5078,233.4375 126.8047,233.5938 127.0703,233.8359 L127.7578,233.0625 C127.3828,232.6953 126.8047,232.3594 126.1016,232.3594 C124.625,232.3594 123.4609,233.4297 123.4609,235.2656 C123.4609,237.125 124.6484,238.1016 126.0234,238.1016 Z " fill="#000000"/><text fill="#000000" font-family="sans-serif" font-size="7" lengthAdjust="spacing" textLength="79.5" x="133" y="237.3926">IntervalChannelMetadata</text><line style="stroke:#181818;stroke-width:0.25;" x1="119" x2="213.5" y1="243" y2="243"/><text fill="#000000" font-family="sans-serif" font-size="7" lengthAdjust="spacing" textLength="65.5" x="121.5" y="251.4941">trigger_interval : float</text><line style="stroke:#181818;stroke-width:0.25;" x1="119" x2="213.5" y1="255.2031" y2="255.2031"/></g><!--class NormalizedMetadata--><g id="elem_NormalizedMetadata"><rect codeLine="71" fill="#F1F1F1" height="32.2031" id="NormalizedMetadata" rx="1.25" ry="1.25" style="stroke:#181818;stroke-width:0.25;" width="79" x="483.75" y="227"/><ellipse cx="491.25" cy="235" fill="#B4A7E5" rx="5.5" ry="5.5" style="stroke:#181818;stroke-width:0.5;"/><path d="M489.3828,238 L493.2188,238 L493.2188,236.9453 L491.9297,236.9453 L491.9297,233.5156 L493.2188,233.5156 L493.2188,232.4609 L489.3828,232.4609 L489.3828,233.5156 L490.6719,233.5156 L490.6719,236.9453 L489.3828,236.9453 L489.3828,238 Z " fill="#000000"/><text fill="#000000" font-family="sans-serif" font-size="7" font-style="italic" lengthAdjust="spacing" textLength="63" x="498.25" y="237.3926">NormalizedMetadata</text><line style="stroke:#181818;stroke-width:0.25;" x1="484.25" x2="562.25" y1="243" y2="243"/><text fill="#000000" font-family="sans-serif" font-size="7" lengthAdjust="spacing" textLength="61.5" x="486.75" y="251.4941">normalize_id : string</text><line style="stroke:#181818;stroke-width:0.25;" x1="484.25" x2="562.25" y1="255.2031" y2="255.2031"/></g><!--class SinglePointNormalizedChannelMetadata--><g id="elem_SinglePointNormalizedChannelMetadata"><rect codeLine="75" fill="#F1F1F1" height="24" id="SinglePointNormalizedChannelMetadata" rx="1.25" ry="1.25" style="stroke:#181818;stroke-width:0.25;" width="142.5" x="319" y="301.5"/><ellipse cx="326.5" cy="309.5" fill="#ADD1B2" rx="5.5" ry="5.5" style="stroke:#181818;stroke-width:0.5;"/><path d="M326.5234,312.6016 C327.2734,312.6016 327.8906,312.3203 328.3438,311.7891 L327.6563,311.0313 C327.3828,311.3281 327.0547,311.5234 326.6563,311.5234 C325.8203,311.5234 325.2422,310.8594 325.2422,309.7188 C325.2422,308.6094 325.8203,307.9375 326.6016,307.9375 C327.0078,307.9375 327.3047,308.0938 327.5703,308.3359 L328.2578,307.5625 C327.8828,307.1953 327.3047,306.8594 326.6016,306.8594 C325.125,306.8594 323.9609,307.9297 323.9609,309.7656 C323.9609,311.625 325.1484,312.6016 326.5234,312.6016 Z " fill="#000000"/><text fill="#000000" font-family="sans-serif" font-size="7" lengthAdjust="spacing" textLength="126.5" x="333.5" y="311.8926">SinglePointNormalizedChannelMetadata</text><line style="stroke:#181818;stroke-width:0.25;" x1="319.5" x2="461" y1="317.5" y2="317.5"/><line style="stroke:#181818;stroke-width:0.25;" x1="319.5" x2="461" y1="321.5" y2="321.5"/></g><!--class AverageNormalizedChannelMetadata--><g id="elem_AverageNormalizedChannelMetadata"><rect codeLine="77" fill="#F1F1F1" height="24" id="AverageNormalizedChannelMetadata" rx="1.25" ry="1.25" style="stroke:#181818;stroke-width:0.25;" width="133" x="479.25" y="301.5"/><ellipse cx="486.75" cy="309.5" fill="#ADD1B2" rx="5.5" ry="5.5" style="stroke:#181818;stroke-width:0.5;"/><path d="M486.7734,312.6016 C487.5234,312.6016 488.1406,312.3203 488.5938,311.7891 L487.9063,311.0313 C487.6328,311.3281 487.3047,311.5234 486.9063,311.5234 C486.0703,311.5234 485.4922,310.8594 485.4922,309.7188 C485.4922,308.6094 486.0703,307.9375 486.8516,307.9375 C487.2578,307.9375 487.5547,308.0938 487.8203,308.3359 L488.5078,307.5625 C488.1328,307.1953 487.5547,306.8594 486.8516,306.8594 C485.375,306.8594 484.2109,307.9297 484.2109,309.7656 C484.2109,311.625 485.3984,312.6016 486.7734,312.6016 Z " fill="#000000"/><text fill="#000000" font-family="sans-serif" font-size="7" lengthAdjust="spacing" textLength="117" x="493.75" y="311.8926">AverageNormalizedChannelMetadata</text><line style="stroke:#181818;stroke-width:0.25;" x1="479.75" x2="611.75" y1="317.5" y2="317.5"/><line style="stroke:#181818;stroke-width:0.25;" x1="479.75" x2="611.75" y1="321.5" y2="321.5"/></g><!--class IntervalNormalizedChannelMetadata--><g id="elem_IntervalNormalizedChannelMetadata"><rect codeLine="79" fill="#F1F1F1" height="24" id="IntervalNormalizedChannelMetadata" rx="1.25" ry="1.25" style="stroke:#181818;stroke-width:0.25;" width="131" x="146.75" y="301.5"/><ellipse cx="154.25" cy="309.5" fill="#ADD1B2" rx="5.5" ry="5.5" style="stroke:#181818;stroke-width:0.5;"/><path d="M154.2734,312.6016 C155.0234,312.6016 155.6406,312.3203 156.0938,311.7891 L155.4063,311.0313 C155.1328,311.3281 154.8047,311.5234 154.4063,311.5234 C153.5703,311.5234 152.9922,310.8594 152.9922,309.7188 C152.9922,308.6094 153.5703,307.9375 154.3516,307.9375 C154.7578,307.9375 155.0547,308.0938 155.3203,308.3359 L156.0078,307.5625 C155.6328,307.1953 155.0547,306.8594 154.3516,306.8594 C152.875,306.8594 151.7109,307.9297 151.7109,309.7656 C151.7109,311.625 152.8984,312.6016 154.2734,312.6016 Z " fill="#000000"/><text fill="#000000" font-family="sans-serif" font-size="7" lengthAdjust="spacing" textLength="115" x="161.25" y="311.8926">IntervalNormalizedChannelMetadata</text><line style="stroke:#181818;stroke-width:0.25;" x1="147.25" x2="277.25" y1="317.5" y2="317.5"/><line style="stroke:#181818;stroke-width:0.25;" x1="147.25" x2="277.25" y1="321.5" y2="321.5"/></g><!--class MCAChannelMetadata--><g id="elem_MCAChannelMetadata"><rect codeLine="81" fill="#F1F1F1" height="24" id="MCAChannelMetadata" rx="1.25" ry="1.25" style="stroke:#181818;stroke-width:0.25;" width="87" x="629.75" y="301.5"/><ellipse cx="637.25" cy="309.5" fill="#ADD1B2" rx="5.5" ry="5.5" style="stroke:#181818;stroke-width:0.5;"/><path d="M637.2734,312.6016 C638.0234,312.6016 638.6406,312.3203 639.0938,311.7891 L638.4063,311.0313 C638.1328,311.3281 637.8047,311.5234 637.4063,311.5234 C636.5703,311.5234 635.9922,310.8594 635.9922,309.7188 C635.9922,308.6094 636.5703,307.9375 637.3516,307.9375 C637.7578,307.9375 638.0547,308.0938 638.3203,308.3359 L639.0078,307.5625 C638.6328,307.1953 638.0547,306.8594 637.3516,306.8594 C635.875,306.8594 634.7109,307.9297 634.7109,309.7656 C634.7109,311.625 635.8984,312.6016 637.2734,312.6016 Z " fill="#000000"/><text fill="#000000" font-family="sans-serif" font-size="7" lengthAdjust="spacing" textLength="71" x="644.25" y="311.8926">MCAChannelMetadata</text><line style="stroke:#181818;stroke-width:0.25;" x1="630.25" x2="716.25" y1="317.5" y2="317.5"/><line style="stroke:#181818;stroke-width:0.25;" x1="630.25" x2="716.25" y1="321.5" y2="321.5"/></g><!--class ScopeChannelMetadata--><g id="elem_ScopeChannelMetadata"><rect codeLine="83" fill="#F1F1F1" height="24" id="ScopeChannelMetadata" rx="1.25" ry="1.25" style="stroke:#181818;stroke-width:0.25;" width="91" x="734.25" y="301.5"/><ellipse cx="741.75" cy="309.5" fill="#ADD1B2" rx="5.5" ry="5.5" style="stroke:#181818;stroke-width:0.5;"/><path d="M741.7734,312.6016 C742.5234,312.6016 743.1406,312.3203 743.5938,311.7891 L742.9063,311.0313 C742.6328,311.3281 742.3047,311.5234 741.9063,311.5234 C741.0703,311.5234 740.4922,310.8594 740.4922,309.7188 C740.4922,308.6094 741.0703,307.9375 741.8516,307.9375 C742.2578,307.9375 742.5547,308.0938 742.8203,308.3359 L743.5078,307.5625 C743.1328,307.1953 742.5547,306.8594 741.8516,306.8594 C740.375,306.8594 739.2109,307.9297 739.2109,309.7656 C739.2109,311.625 740.3984,312.6016 741.7734,312.6016 Z " fill="#000000"/><text fill="#000000" font-family="sans-serif" font-size="7" lengthAdjust="spacing" textLength="75" x="748.75" y="311.8926">ScopeChannelMetadata</text><line style="stroke:#181818;stroke-width:0.25;" x1="734.75" x2="824.75" y1="317.5" y2="317.5"/><line style="stroke:#181818;stroke-width:0.25;" x1="734.75" x2="824.75" y1="321.5" y2="321.5"/></g><!--class SampleCameraMetadata--><g id="elem_SampleCameraMetadata"><rect codeLine="85" fill="#F1F1F1" height="24" id="SampleCameraMetadata" rx="1.25" ry="1.25" style="stroke:#181818;stroke-width:0.25;" width="94" x="959.25" y="301.5"/><ellipse cx="966.75" cy="309.5" fill="#ADD1B2" rx="5.5" ry="5.5" style="stroke:#181818;stroke-width:0.5;"/><path d="M966.7734,312.6016 C967.5234,312.6016 968.1406,312.3203 968.5938,311.7891 L967.9063,311.0313 C967.6328,311.3281 967.3047,311.5234 966.9063,311.5234 C966.0703,311.5234 965.4922,310.8594 965.4922,309.7188 C965.4922,308.6094 966.0703,307.9375 966.8516,307.9375 C967.2578,307.9375 967.5547,308.0938 967.8203,308.3359 L968.5078,307.5625 C968.1328,307.1953 967.5547,306.8594 966.8516,306.8594 C965.375,306.8594 964.2109,307.9297 964.2109,309.7656 C964.2109,311.625 965.3984,312.6016 966.7734,312.6016 Z " fill="#000000"/><text fill="#000000" font-family="sans-serif" font-size="7" lengthAdjust="spacing" textLength="78" x="973.75" y="311.8926">SampleCameraMetadata</text><line style="stroke:#181818;stroke-width:0.25;" x1="959.75" x2="1052.75" y1="317.5" y2="317.5"/><line style="stroke:#181818;stroke-width:0.25;" x1="959.75" x2="1052.75" y1="321.5" y2="321.5"/></g><!--class ScientificCameraMetadata--><g id="elem_ScientificCameraMetadata"><rect codeLine="87" fill="#F1F1F1" height="24" id="ScientificCameraMetadata" rx="1.25" ry="1.25" style="stroke:#181818;stroke-width:0.25;" width="99" x="842.75" y="301.5"/><ellipse cx="850.25" cy="309.5" fill="#ADD1B2" rx="5.5" ry="5.5" style="stroke:#181818;stroke-width:0.5;"/><path d="M850.2734,312.6016 C851.0234,312.6016 851.6406,312.3203 852.0938,311.7891 L851.4063,311.0313 C851.1328,311.3281 850.8047,311.5234 850.4063,311.5234 C849.5703,311.5234 848.9922,310.8594 848.9922,309.7188 C848.9922,308.6094 849.5703,307.9375 850.3516,307.9375 C850.7578,307.9375 851.0547,308.0938 851.3203,308.3359 L852.0078,307.5625 C851.6328,307.1953 851.0547,306.8594 850.3516,306.8594 C848.875,306.8594 847.7109,307.9297 847.7109,309.7656 C847.7109,311.625 848.8984,312.6016 850.2734,312.6016 Z " fill="#000000"/><text fill="#000000" font-family="sans-serif" font-size="7" lengthAdjust="spacing" textLength="83" x="857.25" y="311.8926">ScientificCameraMetadata</text><line style="stroke:#181818;stroke-width:0.25;" x1="843.25" x2="941.25" y1="317.5" y2="317.5"/><line style="stroke:#181818;stroke-width:0.25;" x1="843.25" x2="941.25" y1="321.5" y2="321.5"/></g><!--reverse link Metadata to MeasureMetadata--><g id="link_Metadata_MeasureMetadata"><path d="M481.75,53.14 C481.75,65.045 481.75,70.96 481.75,82.035 " fill="none" id="Metadata-backto-MeasureMetadata" style="stroke:#181818;stroke-width:0.5;"/><polygon fill="none" points="481.75,44.14,478.75,53.14,484.75,53.14,481.75,44.14" style="stroke:#181818;stroke-width:0.5;"/></g><!--reverse link Metadata to MonitorMetadata--><g id="link_Metadata_MonitorMetadata"><path d="M449.3777,24.8777 C410.8977,26.4727 342.615,34.42 293.75,74 C266.965,95.695 253.875,136.405 248.83,156.365 " fill="none" id="Metadata-backto-MonitorMetadata" style="stroke:#181818;stroke-width:0.5;"/><polygon fill="none" points="458.37,24.505,449.2535,21.8803,449.502,27.8752,458.37,24.505" style="stroke:#181818;stroke-width:0.5;"/></g><!--reverse link AbstractDeviceMetadata to MonitorMetadata--><g id="link_AbstractDeviceMetadata_MonitorMetadata"><path d="M305.0674,127.6697 C288.3474,139.1347 276.495,147.26 263.065,156.47 " fill="none" id="AbstractDeviceMetadata-backto-MonitorMetadata" style="stroke:#181818;stroke-width:0.5;stroke-dasharray:7.0,7.0;"/><polygon fill="none" points="312.49,122.58,303.3708,125.1955,306.764,130.1439,312.49,122.58" style="stroke:#181818;stroke-width:0.5;"/></g><!--reverse link MeasureMetadata to DeviceMetadata--><g id="link_MeasureMetadata_DeviceMetadata"><path d="M488.053,123.0008 C491.368,135.7608 493.73,144.84 496.73,156.39 " fill="none" id="MeasureMetadata-backto-DeviceMetadata" style="stroke:#181818;stroke-width:0.5;"/><polygon fill="none" points="485.79,114.29,485.1494,123.7552,490.9567,122.2465,485.79,114.29" style="stroke:#181818;stroke-width:0.5;"/></g><!--reverse link AbstractDeviceMetadata to DeviceMetadata--><g id="link_AbstractDeviceMetadata_DeviceMetadata"><path d="M400.375,122.8755 C427.17,135.0405 452.02,146.325 474.36,156.47 " fill="none" id="AbstractDeviceMetadata-backto-DeviceMetadata" style="stroke:#181818;stroke-width:0.5;stroke-dasharray:7.0,7.0;"/><polygon fill="none" points="392.18,119.155,399.1348,125.6072,401.6152,120.1439,392.18,119.155" style="stroke:#181818;stroke-width:0.5;"/></g><!--reverse link MeasureMetadata to AxisMetadata--><g id="link_MeasureMetadata_AxisMetadata"><path d="M439.3305,118.0117 C412.7655,130.0767 384.5,142.91 359.11,154.44 " fill="none" id="MeasureMetadata-backto-AxisMetadata" style="stroke:#181818;stroke-width:0.5;"/><polygon fill="none" points="447.525,114.29,438.09,115.2802,440.5711,120.7432,447.525,114.29" style="stroke:#181818;stroke-width:0.5;"/></g><!--reverse link AbstractDeviceMetadata to AxisMetadata--><g id="link_AbstractDeviceMetadata_AxisMetadata"><path d="M338.7933,131.2912 C336.2333,141.1512 335.595,143.6 333.31,152.385 " fill="none" id="AbstractDeviceMetadata-backto-AxisMetadata" style="stroke:#181818;stroke-width:0.5;stroke-dasharray:7.0,7.0;"/><polygon fill="none" points="341.055,122.58,335.8895,130.5373,341.697,132.0451,341.055,122.58" style="stroke:#181818;stroke-width:0.5;"/></g><!--reverse link MeasureMetadata to ChannelMetadata--><g id="link_MeasureMetadata_ChannelMetadata"><path d="M459.9123,120.6652 C447.1973,133.4252 435.825,144.84 424.32,156.39 " fill="none" id="MeasureMetadata-backto-ChannelMetadata" style="stroke:#181818;stroke-width:0.5;"/><polygon fill="none" points="466.265,114.29,457.7872,118.5476,462.0374,122.7828,466.265,114.29" style="stroke:#181818;stroke-width:0.5;"/></g><!--reverse link AbstractDeviceMetadata to ChannelMetadata--><g id="link_AbstractDeviceMetadata_ChannelMetadata"><path d="M375.9741,129.1189 C386.7791,140.5439 393.05,147.17 401.755,156.375 " fill="none" id="AbstractDeviceMetadata-backto-ChannelMetadata" style="stroke:#181818;stroke-width:0.5;stroke-dasharray:7.0,7.0;"/><polygon fill="none" points="369.79,122.58,373.7944,131.1803,378.1537,127.0576,369.79,122.58" style="stroke:#181818;stroke-width:0.5;"/></g><!--reverse link MeasureMetadata to TimestampMetadata--><g id="link_MeasureMetadata_TimestampMetadata"><path d="M513.9315,119.1005 C534.1715,131.9005 554.805,144.955 573.06,156.5 " fill="none" id="MeasureMetadata-backto-TimestampMetadata" style="stroke:#181818;stroke-width:0.5;"/><polygon fill="none" points="506.325,114.29,512.3281,121.636,515.535,116.5649,506.325,114.29" style="stroke:#181818;stroke-width:0.5;"/></g><!--reverse link AxisMetadata to NonnumericAxisMetadata--><g id="link_AxisMetadata_NonnumericAxisMetadata"><path d="M290.9542,184.5601 C287.8792,185.6351 293.27,183.66 290.25,184.5 C211.905,206.31 187.225,189.775 109.75,214.5 C96.79,218.635 83.07,225.225 72.28,230.97 " fill="none" id="AxisMetadata-backto-NonnumericAxisMetadata" style="stroke:#181818;stroke-width:0.5;"/><polygon fill="none" points="299.45,181.59,289.9642,181.7281,291.9442,187.392,299.45,181.59" style="stroke:#181818;stroke-width:0.5;"/></g><!--link NonnumericChannelMetadata to ArrayChannelMetadata--><!--link ArrayChannelMetadata to AreaChannelMetadata--><!--reverse link ChannelMetadata to NonnumericChannelMetadata--><g id="link_ChannelMetadata_NonnumericChannelMetadata"><path d="M385.1508,185.0995 C361.5858,198.8445 330.27,217.11 306.67,230.88 " fill="none" id="ChannelMetadata-backto-NonnumericChannelMetadata" style="stroke:#181818;stroke-width:0.5;"/><polygon fill="none" points="392.925,180.565,383.6393,182.5081,386.6623,187.6909,392.925,180.565" style="stroke:#181818;stroke-width:0.5;"/></g><!--reverse link ChannelMetadata to SinglePointChannelMetadata--><g id="link_ChannelMetadata_SinglePointChannelMetadata"><path d="M412.75,189.645 C412.75,203.41 412.75,217.17 412.75,230.91 " fill="none" id="ChannelMetadata-backto-SinglePointChannelMetadata" style="stroke:#181818;stroke-width:0.5;"/><polygon fill="none" points="412.75,180.645,409.75,189.645,415.75,189.645,412.75,180.645" style="stroke:#181818;stroke-width:0.5;"/></g><!--reverse link ChannelMetadata to AverageChannelMetadata--><g id="link_ChannelMetadata_AverageChannelMetadata"><path d="M453.8872,183.3787 C458.0472,184.7587 453.715,183.275 457.75,184.5 C507.885,199.71 522.63,196.275 571.75,214.5 C574.615,215.56 577.525,216.72 580.44,217.94 " fill="none" id="ChannelMetadata-backto-AverageChannelMetadata" style="stroke:#181818;stroke-width:0.5;"/><polygon fill="none" points="445.345,180.545,452.9427,186.2261,454.8318,180.5313,445.345,180.545" style="stroke:#181818;stroke-width:0.5;"/></g><!--reverse link ChannelMetadata to IntervalChannelMetadata--><g id="link_ChannelMetadata_IntervalChannelMetadata"><path d="M372.3898,183.2939 C367.9848,184.7239 372.055,183.32 367.75,184.5 C304.29,201.92 284.965,193.045 222.75,214.5 C213.125,217.82 203.035,222.42 194.09,226.94 " fill="none" id="ChannelMetadata-backto-IntervalChannelMetadata" style="stroke:#181818;stroke-width:0.5;"/><polygon fill="none" points="380.95,180.515,371.4635,180.4405,373.3161,186.1473,380.95,180.515" style="stroke:#181818;stroke-width:0.5;"/></g><!--reverse link ChannelMetadata to ArrayChannelMetadata--><g id="link_ChannelMetadata_ArrayChannelMetadata"><path d="M452.0739,183.2256 C456.8039,184.7256 453.085,183.405 457.75,184.5 C557.67,208 588.94,183.37 686.75,214.5 C699.045,218.415 711.865,225.105 721.815,230.965 " fill="none" id="ChannelMetadata-backto-ArrayChannelMetadata" style="stroke:#181818;stroke-width:0.5;"/><polygon fill="none" points="443.495,180.505,451.1671,186.0852,452.9808,180.3659,443.495,180.505" style="stroke:#181818;stroke-width:0.5;"/></g><!--reverse link ChannelMetadata to AreaChannelMetadata--><g id="link_ChannelMetadata_AreaChannelMetadata"><path d="M451.5494,183.2285 C456.4394,184.7685 452.9,183.465 457.75,184.5 C604.155,215.775 646.535,184.72 793.25,214.5 C812.53,218.415 833.545,225.105 850.09,230.965 " fill="none" id="ChannelMetadata-backto-AreaChannelMetadata" style="stroke:#181818;stroke-width:0.5;"/><polygon fill="none" points="442.965,180.525,450.6482,186.0899,452.4505,180.367,442.965,180.525" style="stroke:#181818;stroke-width:0.5;"/></g><!--link Metadata to Data--><g id="link_Metadata_Data"><path codeLine="69" d="M505.015,38.97 C507.93,40.705 510.895,42.42 513.75,44 C546.47,62.07 580.6682,78.2693 602.1432,88.1393 " fill="none" id="Metadata-to-Data" style="stroke:#181818;stroke-width:0.5;"/><polygon fill="#181818" points="607.595,90.645,605.7043,87.5749,602.1432,88.1393,604.0339,91.2094,607.595,90.645" style="stroke:#181818;stroke-width:0.5;"/></g><!--reverse link SinglePointChannelMetadata to SinglePointNormalizedChannelMetadata--><g id="link_SinglePointChannelMetadata_SinglePointNormalizedChannelMetadata"><path d="M406.2112,263.6969 C402.0562,276.5219 398.185,288.485 394.03,301.33 " fill="none" id="SinglePointChannelMetadata-backto-SinglePointNormalizedChannelMetadata" style="stroke:#181818;stroke-width:0.5;"/><polygon fill="none" points="408.985,255.135,403.3572,262.7723,409.0651,264.6215,408.985,255.135" style="stroke:#181818;stroke-width:0.5;"/></g><!--reverse link NormalizedMetadata to SinglePointNormalizedChannelMetadata--><g id="link_NormalizedMetadata_SinglePointNormalizedChannelMetadata"><path d="M489.3312,263.5108 C482.1362,267.6658 482.085,267.585 474.75,271.5 C454.85,282.115 431.85,293.345 414.875,301.445 " fill="none" id="NormalizedMetadata-backto-SinglePointNormalizedChannelMetadata" style="stroke:#181818;stroke-width:0.5;stroke-dasharray:7.0,7.0;"/><polygon fill="none" points="497.125,259.01,487.831,260.9129,490.8315,266.1087,497.125,259.01" style="stroke:#181818;stroke-width:0.5;"/></g><!--reverse link AverageChannelMetadata to AverageNormalizedChannelMetadata--><g id="link_AverageChannelMetadata_AverageNormalizedChannelMetadata"><path d="M588.6112,277.3259 C576.1162,287.7209 569.545,293.195 559.765,301.335 " fill="none" id="AverageChannelMetadata-backto-AverageNormalizedChannelMetadata" style="stroke:#181818;stroke-width:0.5;"/><polygon fill="none" points="595.53,271.57,586.6926,275.0197,590.5299,279.6322,595.53,271.57" style="stroke:#181818;stroke-width:0.5;"/></g><!--reverse link NormalizedMetadata to AverageNormalizedChannelMetadata--><g id="link_NormalizedMetadata_AverageNormalizedChannelMetadata"><path d="M531.0707,267.6579 C535.2157,280.4679 538.225,289.76 541.98,301.35 " fill="none" id="NormalizedMetadata-backto-AverageNormalizedChannelMetadata" style="stroke:#181818;stroke-width:0.5;stroke-dasharray:7.0,7.0;"/><polygon fill="none" points="528.3,259.095,528.2164,268.5815,533.925,266.7343,528.3,259.095" style="stroke:#181818;stroke-width:0.5;"/></g><!--reverse link IntervalChannelMetadata to IntervalNormalizedChannelMetadata--><g id="link_IntervalChannelMetadata_IntervalNormalizedChannelMetadata"><path d="M181.5409,266.601 C190.0159,279.411 196.865,289.76 204.54,301.35 " fill="none" id="IntervalChannelMetadata-backto-IntervalNormalizedChannelMetadata" style="stroke:#181818;stroke-width:0.5;"/><polygon fill="none" points="176.575,259.095,179.0389,268.2563,184.0429,264.9457,176.575,259.095" style="stroke:#181818;stroke-width:0.5;"/></g><!--reverse link NormalizedMetadata to IntervalNormalizedChannelMetadata--><g id="link_NormalizedMetadata_IntervalNormalizedChannelMetadata"><path d="M492.4281,263.7413 C484.6481,268.3763 483.455,268.42 474.75,271.5 C439.465,283.99 343.465,297.315 277.88,305.405 " fill="none" id="NormalizedMetadata-backto-IntervalNormalizedChannelMetadata" style="stroke:#181818;stroke-width:0.5;stroke-dasharray:7.0,7.0;"/><polygon fill="none" points="500.16,259.135,490.8927,261.164,493.9636,266.3186,500.16,259.135" style="stroke:#181818;stroke-width:0.5;"/></g><!--reverse link ArrayChannelMetadata to MCAChannelMetadata--><g id="link_ArrayChannelMetadata_MCAChannelMetadata"><path d="M722.397,261.6368 C710.122,274.4618 696.705,288.485 684.415,301.33 " fill="none" id="ArrayChannelMetadata-backto-MCAChannelMetadata" style="stroke:#181818;stroke-width:0.5;"/><polygon fill="none" points="728.62,255.135,720.2297,259.5625,724.5643,263.7112,728.62,255.135" style="stroke:#181818;stroke-width:0.5;"/></g><!--reverse link ArrayChannelMetadata to ScopeChannelMetadata--><g id="link_ArrayChannelMetadata_ScopeChannelMetadata"><path d="M750.9361,262.9344 C758.3211,275.7594 765.64,288.485 773.035,301.33 " fill="none" id="ArrayChannelMetadata-backto-ScopeChannelMetadata" style="stroke:#181818;stroke-width:0.5;"/><polygon fill="none" points="746.445,255.135,748.3363,264.4314,753.5359,261.4373,746.445,255.135" style="stroke:#181818;stroke-width:0.5;"/></g><!--reverse link AreaChannelMetadata to SampleCameraMetadata--><g id="link_AreaChannelMetadata_SampleCameraMetadata"><path d="M909.0802,259.4027 C932.3802,272.2577 961.93,288.555 985.25,301.42 " fill="none" id="AreaChannelMetadata-backto-SampleCameraMetadata" style="stroke:#181818;stroke-width:0.5;"/><polygon fill="none" points="901.2,255.055,907.631,262.0294,910.5294,256.7759,901.2,255.055" style="stroke:#181818;stroke-width:0.5;"/></g><!--reverse link AreaChannelMetadata to ScientificCameraMetadata--><g id="link_AreaChannelMetadata_ScientificCameraMetadata"><path d="M883.7917,264.0037 C886.0067,276.8287 888.015,288.485 890.235,301.33 " fill="none" id="AreaChannelMetadata-backto-ScientificCameraMetadata" style="stroke:#181818;stroke-width:0.5;"/><polygon fill="none" points="882.26,255.135,880.8355,264.5143,886.7479,263.4931,882.26,255.135" style="stroke:#181818;stroke-width:0.5;"/></g><!--SRC=[hLR9Rjim4BthAmXV2XH9Fi270ePzwS5f0UVM5iAO74aCk0WalRN8ltT8Bv9bALQB6CZ1C_FUFCxcS0NUioK64120_SaOVGneP5FcWvEcJ1PR1scD9wEGF6HlcR41cPDb5PWjBlZfz1IOG2yLKdXHe4F3aQqnx10DcqnEGPC9gyZ7f6a4W15N0UHRHE94-EsaucHaMt07LfCI4oGeTM25TGo1LonnrLQQy40vOdPmyS_1mJyahbqb5LxUTIM18Zq71Iwf4TPy2enNO4fC2U2OtAvVaOUd32acLYFBUAhbubZ7KudMDWIhfso5iHPGEj2HvAT9gRGL6uLFMKP2qHL0EcThAZlmiC2jvDXfZ1JNRQctrz-1S_G-9zfM_zxEofO8VkCQJjnJvSHDzpT6XZwq9RjrmsYfQuMQUk677t5XwtWQick9zpdRfBEzz1z36UiW4CGwJi2K5Sf2QFBCQHWCgWzM_o8r-W2wlilR0ZrROpOQdUIzZsyRiwm9xhxWyKSbXK3pwyiixaZ7dVKPMnWsSmXTp8t0eQfrxQtNhMW25NwFUpmQtKp35XsKE3vjEdqv767nriMjBD4bXxAxN4cTLkCu3j6gOPz32AZhq0L4bw1kGxmmjpFqDMxy5jI_oQETB2b1Ba_eMzxULeqeTKyBtuSrS_3uEHszzXLxjaw3ahzHTEjxTkJjMzRNy8PYIDOxqz7Ql3uftHcvdsjWcCRcENVxVgAXkHYRQJcV3RwXRxNFXUUsnly2GXGsf_yO7FG01-_2YiluirtGNHYF_Gi0]--></g></svg>