<?xml version="1.0" encoding="us-ascii" standalone="no"?><svg xmlns="http://www.w3.org/2000/svg" xmlns:xlink="http://www.w3.org/1999/xlink" contentStyleType="text/css" height="436.2px" preserveAspectRatio="none" style="width:656px;height:436px;background:#FFFFFF;" version="1.1" viewBox="0 0 656 436" width="656.4px" zoomAndPan="magnify"><defs/><g><!--class Metadata--><g id="elem_Metadata"><rect codeLine="2" fill="#F1F1F1" height="48.4875" id="Metadata" rx="1.5" ry="1.5" style="stroke:#181818;stroke-width:0.3;" width="67.2" x="106.2" y="14.1"/><ellipse cx="120.33" cy="23.7" fill="#ADD1B2" rx="6.6" ry="6.6" style="stroke:#181818;stroke-width:0.6;"/><path d="M120.3581,27.4219 C121.2581,27.4219 121.9988,27.0844 122.5425,26.4469 L121.7175,25.5375 C121.3894,25.8938 120.9956,26.1281 120.5175,26.1281 C119.5144,26.1281 118.8206,25.3313 118.8206,23.9625 C118.8206,22.6312 119.5144,21.825 120.4519,21.825 C120.9394,21.825 121.2956,22.0125 121.6144,22.3031 L122.4394,21.375 C121.9894,20.9344 121.2956,20.5313 120.4519,20.5313 C118.68,20.5313 117.2831,21.8156 117.2831,24.0188 C117.2831,26.25 118.7081,27.4219 120.3581,27.4219 Z " fill="#000000"/><text fill="#000000" font-family="sans-serif" font-size="8.4" lengthAdjust="spacing" textLength="36.6" x="129.87" y="26.5711">Metadata</text><line style="stroke:#181818;stroke-width:0.3;" x1="106.8" x2="172.8" y1="33.3" y2="33.3"/><text fill="#000000" font-family="sans-serif" font-size="8.4" lengthAdjust="spacing" textLength="48" x="109.8" y="43.493">name : string</text><text fill="#000000" font-family="sans-serif" font-size="8.4" lengthAdjust="spacing" textLength="60" x="109.8" y="53.3367">section : Section</text><line style="stroke:#181818;stroke-width:0.3;" x1="106.8" x2="172.8" y1="57.7875" y2="57.7875"/></g><!--class Data--><g id="elem_Data"><rect codeLine="7" fill="#F1F1F1" height="28.8" id="Data" rx="1.5" ry="1.5" style="stroke:#181818;stroke-width:0.3;" width="37.2" x="48" y="24"/><ellipse cx="57" cy="33.6" fill="#ADD1B2" rx="6.6" ry="6.6" style="stroke:#181818;stroke-width:0.6;"/><path d="M57.0281,37.3219 C57.9281,37.3219 58.6687,36.9844 59.2125,36.3469 L58.3875,35.4375 C58.0594,35.7937 57.6656,36.0281 57.1875,36.0281 C56.1844,36.0281 55.4906,35.2312 55.4906,33.8625 C55.4906,32.5313 56.1844,31.725 57.1219,31.725 C57.6094,31.725 57.9656,31.9125 58.2844,32.2031 L59.1094,31.275 C58.6594,30.8344 57.9656,30.4313 57.1219,30.4313 C55.35,30.4313 53.9531,31.7156 53.9531,33.9187 C53.9531,36.15 55.3781,37.3219 57.0281,37.3219 Z " fill="#000000"/><text fill="#000000" font-family="sans-serif" font-size="8.4" lengthAdjust="spacing" textLength="18" x="65.4" y="36.4711">Data</text><line style="stroke:#181818;stroke-width:0.3;" x1="48.6" x2="84.6" y1="43.2" y2="43.2"/><line style="stroke:#181818;stroke-width:0.3;" x1="48.6" x2="84.6" y1="48" y2="48"/></g><g id="elem_GMN4"><path d="M33.3,125.7 L33.3,149.9813 A0,0 0 0 0 33.3,149.9813 L99.9,149.9813 A0,0 0 0 0 99.9,149.9813 L99.9,131.7 L93.9,125.7 L69,125.7 L66.6,52.848 L64.2,125.7 L33.3,125.7 A0,0 0 0 0 33.3,125.7 " fill="#FEFFDD" style="stroke:#181818;stroke-width:0.3;"/><path d="M93.9,125.7 L93.9,131.7 L99.9,131.7 L93.9,125.7 " fill="#FEFFDD" style="stroke:#181818;stroke-width:0.3;"/><text fill="#000000" font-family="sans-serif" font-size="7.8" lengthAdjust="spacing" textLength="54" x="36.9" y="135.9363">See diagram for</text><text fill="#000000" font-family="sans-serif" font-size="7.8" lengthAdjust="spacing" textLength="43.8" x="36.9" y="145.077">data module.</text></g><!--class Section--><g id="elem_Section"><rect codeLine="11" fill="#F1F1F1" height="68.175" id="Section" rx="1.5" ry="1.5" style="stroke:#181818;stroke-width:0.3;" width="50.4" x="279.6" y="4.2"/><ellipse cx="290.22" cy="13.8" fill="#EB937F" rx="6.6" ry="6.6" style="stroke:#181818;stroke-width:0.6;"/><path d="M287.8575,17.4 L292.3669,17.4 L292.3669,16.1344 L289.3669,16.1344 L289.3669,14.6063 L291.8231,14.6063 L291.8231,13.35 L289.3669,13.35 L289.3669,12.0187 L292.2637,12.0187 L292.2637,10.7531 L287.8575,10.7531 L287.8575,17.4 Z " fill="#000000"/><text fill="#000000" font-family="sans-serif" font-size="8.4" lengthAdjust="spacing" textLength="27.6" x="298.98" y="16.6711">Section</text><line style="stroke:#181818;stroke-width:0.3;" x1="280.2" x2="329.4" y1="23.4" y2="23.4"/><text fill="#000000" font-family="sans-serif" font-size="8.4" lengthAdjust="spacing" textLength="42.6" x="283.2" y="33.593">STANDARD</text><text fill="#000000" font-family="sans-serif" font-size="8.4" lengthAdjust="spacing" textLength="43.2" x="283.2" y="43.4367">SNAPSHOT</text><text fill="#000000" font-family="sans-serif" font-size="8.4" lengthAdjust="spacing" textLength="37.8" x="283.2" y="53.2805">MONITOR</text><text fill="#000000" font-family="sans-serif" font-size="8.4" lengthAdjust="spacing" textLength="22.2" x="283.2" y="63.1242">META</text><line style="stroke:#181818;stroke-width:0.3;" x1="280.2" x2="329.4" y1="67.575" y2="67.575"/></g><!--class Transport--><g id="elem_Transport"><rect codeLine="18" fill="#F1F1F1" height="48.4875" id="Transport" rx="1.5" ry="1.5" style="stroke:#181818;stroke-width:0.3;" width="56.4" x="427.8" y="14.1"/><ellipse cx="436.8" cy="23.7" fill="#EB937F" rx="6.6" ry="6.6" style="stroke:#181818;stroke-width:0.6;"/><path d="M434.4375,27.3 L438.9469,27.3 L438.9469,26.0344 L435.9469,26.0344 L435.9469,24.5062 L438.4031,24.5062 L438.4031,23.25 L435.9469,23.25 L435.9469,21.9188 L438.8438,21.9188 L438.8438,20.6531 L434.4375,20.6531 L434.4375,27.3 Z " fill="#000000"/><text fill="#000000" font-family="sans-serif" font-size="8.4" lengthAdjust="spacing" textLength="37.2" x="445.2" y="26.5711">Transport</text><line style="stroke:#181818;stroke-width:0.3;" x1="428.4" x2="483.6" y1="33.3" y2="33.3"/><text fill="#000000" font-family="sans-serif" font-size="8.4" lengthAdjust="spacing" textLength="10.8" x="431.4" y="43.493">CA</text><text fill="#000000" font-family="sans-serif" font-size="8.4" lengthAdjust="spacing" textLength="26.4" x="431.4" y="53.3367">LOCAL</text><line style="stroke:#181818;stroke-width:0.3;" x1="428.4" x2="483.6" y1="57.7875" y2="57.7875"/></g><g id="elem_GMN9"><path d="M407.1,116.4 L407.1,158.9625 A0,0 0 0 0 407.1,158.9625 L504.9,158.9625 A0,0 0 0 0 504.9,158.9625 L504.9,122.4 L498.9,116.4 L458.4,116.4 L456,62.748 L453.6,116.4 L407.1,116.4 A0,0 0 0 0 407.1,116.4 " fill="#FEFFDD" style="stroke:#181818;stroke-width:0.3;"/><path d="M498.9,116.4 L498.9,122.4 L504.9,122.4 L498.9,116.4 " fill="#FEFFDD" style="stroke:#181818;stroke-width:0.3;"/><text fill="#000000" font-family="sans-serif" font-size="7.8" lengthAdjust="spacing" textLength="70.8" x="410.7" y="126.6363">This is defined in the</text><text fill="#000000" font-family="sans-serif" font-size="7.8" lengthAdjust="spacing" textLength="64.8" x="410.7" y="135.777">scml.setup module</text><text fill="#000000" font-family="sans-serif" font-size="7.8" lengthAdjust="spacing" textLength="67.8" x="410.7" y="144.9176">as well. Generalise?</text><text fill="#000000" font-family="sans-serif" font-size="7.8" lengthAdjust="spacing" textLength="85.2" x="410.7" y="154.0582">Use instance from there?</text></g><!--class DeviceMetadata--><g id="elem_DeviceMetadata"><rect codeLine="24" fill="#F1F1F1" height="58.3313" id="DeviceMetadata" rx="1.5" ry="1.5" style="stroke:#181818;stroke-width:0.3;" width="105" x="171.9" y="108.6"/><ellipse cx="193.59" cy="118.2" fill="#B4A7E5" rx="6.6" ry="6.6" style="stroke:#181818;stroke-width:0.6;"/><path d="M191.3494,121.8 L195.9525,121.8 L195.9525,120.5344 L194.4056,120.5344 L194.4056,116.4187 L195.9525,116.4187 L195.9525,115.1531 L191.3494,115.1531 L191.3494,116.4187 L192.8962,116.4187 L192.8962,120.5344 L191.3494,120.5344 L191.3494,121.8 Z " fill="#000000"/><text fill="#000000" font-family="sans-serif" font-size="8.4" font-style="italic" lengthAdjust="spacing" textLength="57.6" x="204.81" y="121.0711">DeviceMetadata</text><line style="stroke:#181818;stroke-width:0.3;" x1="172.5" x2="276.3" y1="127.8" y2="127.8"/><text fill="#000000" font-family="sans-serif" font-size="8.4" lengthAdjust="spacing" textLength="33.6" x="175.5" y="137.993">id : string</text><text fill="#000000" font-family="sans-serif" font-size="8.4" lengthAdjust="spacing" textLength="36" x="175.5" y="147.8367">pv : string</text><text fill="#000000" font-family="sans-serif" font-size="8.4" lengthAdjust="spacing" textLength="97.8" x="175.5" y="157.6805">transport_type : Transport</text><line style="stroke:#181818;stroke-width:0.3;" x1="172.5" x2="276.3" y1="162.1313" y2="162.1313"/></g><!--class MeasureMetadata--><g id="elem_MeasureMetadata"><rect codeLine="30" fill="#F1F1F1" height="38.6438" id="MeasureMetadata" rx="1.5" ry="1.5" style="stroke:#181818;stroke-width:0.3;" width="88.2" x="297.9" y="118.5"/><ellipse cx="306.9" cy="128.1" fill="#ADD1B2" rx="6.6" ry="6.6" style="stroke:#181818;stroke-width:0.6;"/><path d="M306.9281,131.8219 C307.8281,131.8219 308.5687,131.4844 309.1125,130.8469 L308.2875,129.9375 C307.9594,130.2938 307.5656,130.5281 307.0875,130.5281 C306.0844,130.5281 305.3906,129.7313 305.3906,128.3625 C305.3906,127.0313 306.0844,126.225 307.0219,126.225 C307.5094,126.225 307.8656,126.4125 308.1844,126.7031 L309.0094,125.775 C308.5594,125.3344 307.8656,124.9312 307.0219,124.9312 C305.25,124.9312 303.8531,126.2156 303.8531,128.4188 C303.8531,130.65 305.2781,131.8219 306.9281,131.8219 Z " fill="#000000"/><text fill="#000000" font-family="sans-serif" font-size="8.4" lengthAdjust="spacing" textLength="69" x="315.3" y="130.9711">MeasureMetadata</text><line style="stroke:#181818;stroke-width:0.3;" x1="298.5" x2="385.5" y1="137.7" y2="137.7"/><text fill="#000000" font-family="sans-serif" font-size="8.4" lengthAdjust="spacing" textLength="41.4" x="301.5" y="147.893">unit : string</text><line style="stroke:#181818;stroke-width:0.3;" x1="298.5" x2="385.5" y1="152.3438" y2="152.3438"/></g><!--class MonitorMetadata--><g id="elem_MonitorMetadata"><rect codeLine="34" fill="#F1F1F1" height="38.6438" id="MonitorMetadata" rx="1.5" ry="1.5" style="stroke:#181818;stroke-width:0.3;" width="107.4" x="77.7" y="202.8"/><ellipse cx="96.69" cy="212.4" fill="#ADD1B2" rx="6.6" ry="6.6" style="stroke:#181818;stroke-width:0.6;"/><path d="M96.7181,216.1219 C97.6181,216.1219 98.3588,215.7844 98.9025,215.1469 L98.0775,214.2375 C97.7494,214.5938 97.3556,214.8281 96.8775,214.8281 C95.8744,214.8281 95.1806,214.0313 95.1806,212.6625 C95.1806,211.3312 95.8744,210.525 96.8119,210.525 C97.2994,210.525 97.6556,210.7125 97.9744,211.0031 L98.7994,210.075 C98.3494,209.6344 97.6556,209.2313 96.8119,209.2313 C95.04,209.2313 93.6431,210.5156 93.6431,212.7188 C93.6431,214.95 95.0681,216.1219 96.7181,216.1219 Z " fill="#000000"/><text fill="#000000" font-family="sans-serif" font-size="8.4" lengthAdjust="spacing" textLength="66" x="107.31" y="215.2711">MonitorMetadata</text><line style="stroke:#181818;stroke-width:0.3;" x1="78.3" x2="184.5" y1="222" y2="222"/><text fill="#000000" font-family="sans-serif" font-size="8.4" lengthAdjust="spacing" textLength="100.2" x="81.3" y="232.193">section : Section.MONITOR</text><line style="stroke:#181818;stroke-width:0.3;" x1="78.3" x2="184.5" y1="236.6437" y2="236.6437"/></g><!--class AxisMetadata--><g id="elem_AxisMetadata"><rect codeLine="38" fill="#F1F1F1" height="28.8" id="AxisMetadata" rx="1.5" ry="1.5" style="stroke:#181818;stroke-width:0.3;" width="71.4" x="206.1" y="207.6"/><ellipse cx="215.1" cy="217.2" fill="#ADD1B2" rx="6.6" ry="6.6" style="stroke:#181818;stroke-width:0.6;"/><path d="M215.1281,220.9219 C216.0281,220.9219 216.7687,220.5844 217.3125,219.9469 L216.4875,219.0375 C216.1594,219.3937 215.7656,219.6281 215.2875,219.6281 C214.2844,219.6281 213.5906,218.8312 213.5906,217.4625 C213.5906,216.1313 214.2844,215.325 215.2219,215.325 C215.7094,215.325 216.0656,215.5125 216.3844,215.8031 L217.2094,214.875 C216.7594,214.4344 216.0656,214.0313 215.2219,214.0313 C213.45,214.0313 212.0531,215.3156 212.0531,217.5187 C212.0531,219.75 213.4781,220.9219 215.1281,220.9219 Z " fill="#000000"/><text fill="#000000" font-family="sans-serif" font-size="8.4" lengthAdjust="spacing" textLength="52.2" x="223.5" y="220.0711">AxisMetadata</text><line style="stroke:#181818;stroke-width:0.3;" x1="206.7" x2="276.9" y1="226.8" y2="226.8"/><line style="stroke:#181818;stroke-width:0.3;" x1="206.7" x2="276.9" y1="231.6" y2="231.6"/></g><!--class ChannelMetadata--><g id="elem_ChannelMetadata"><rect codeLine="41" fill="#F1F1F1" height="38.6438" id="ChannelMetadata" rx="1.5" ry="1.5" style="stroke:#181818;stroke-width:0.3;" width="86.4" x="298.8" y="202.8"/><ellipse cx="307.8" cy="212.4" fill="#ADD1B2" rx="6.6" ry="6.6" style="stroke:#181818;stroke-width:0.6;"/><path d="M307.8281,216.1219 C308.7281,216.1219 309.4688,215.7844 310.0125,215.1469 L309.1875,214.2375 C308.8594,214.5938 308.4656,214.8281 307.9875,214.8281 C306.9844,214.8281 306.2906,214.0313 306.2906,212.6625 C306.2906,211.3312 306.9844,210.525 307.9219,210.525 C308.4094,210.525 308.7656,210.7125 309.0844,211.0031 L309.9094,210.075 C309.4594,209.6344 308.7656,209.2313 307.9219,209.2313 C306.15,209.2313 304.7531,210.5156 304.7531,212.7188 C304.7531,214.95 306.1781,216.1219 307.8281,216.1219 Z " fill="#000000"/><text fill="#000000" font-family="sans-serif" font-size="8.4" lengthAdjust="spacing" textLength="67.2" x="316.2" y="215.2711">ChannelMetadata</text><line style="stroke:#181818;stroke-width:0.3;" x1="299.4" x2="384.6" y1="222" y2="222"/><text fill="#000000" font-family="sans-serif" font-size="8.4" lengthAdjust="spacing" textLength="73.8" x="302.4" y="232.193">normalise_id : string</text><line style="stroke:#181818;stroke-width:0.3;" x1="299.4" x2="384.6" y1="236.6437" y2="236.6437"/></g><!--class TimestampMetadata--><g id="elem_TimestampMetadata"><rect codeLine="45" fill="#F1F1F1" height="38.6438" id="TimestampMetadata" rx="1.5" ry="1.5" style="stroke:#181818;stroke-width:0.3;" width="97.8" x="406.5" y="202.8"/><ellipse cx="415.5" cy="212.4" fill="#ADD1B2" rx="6.6" ry="6.6" style="stroke:#181818;stroke-width:0.6;"/><path d="M415.5281,216.1219 C416.4281,216.1219 417.1688,215.7844 417.7125,215.1469 L416.8875,214.2375 C416.5594,214.5938 416.1656,214.8281 415.6875,214.8281 C414.6844,214.8281 413.9906,214.0313 413.9906,212.6625 C413.9906,211.3312 414.6844,210.525 415.6219,210.525 C416.1094,210.525 416.4656,210.7125 416.7844,211.0031 L417.6094,210.075 C417.1594,209.6344 416.4656,209.2313 415.6219,209.2313 C413.85,209.2313 412.4531,210.5156 412.4531,212.7188 C412.4531,214.95 413.8781,216.1219 415.5281,216.1219 Z " fill="#000000"/><text fill="#000000" font-family="sans-serif" font-size="8.4" lengthAdjust="spacing" textLength="78.6" x="423.9" y="215.2711">TimestampMetadata</text><line style="stroke:#181818;stroke-width:0.3;" x1="407.1" x2="503.7" y1="222" y2="222"/><text fill="#000000" font-family="sans-serif" font-size="8.4" lengthAdjust="spacing" textLength="84.6" x="410.1" y="232.193">section : Section.META</text><line style="stroke:#181818;stroke-width:0.3;" x1="407.1" x2="503.7" y1="236.6437" y2="236.6437"/></g><!--class StandardChannelMetadata--><g id="elem_StandardChannelMetadata"><rect codeLine="49" fill="#F1F1F1" height="28.8" id="StandardChannelMetadata" rx="1.5" ry="1.5" style="stroke:#181818;stroke-width:0.3;" width="121.2" x="4.2" y="291.9"/><ellipse cx="13.2" cy="301.5" fill="#ADD1B2" rx="6.6" ry="6.6" style="stroke:#181818;stroke-width:0.6;"/><path d="M13.2281,305.2219 C14.1281,305.2219 14.8687,304.8844 15.4125,304.2469 L14.5875,303.3375 C14.2594,303.6937 13.8656,303.9281 13.3875,303.9281 C12.3844,303.9281 11.6906,303.1312 11.6906,301.7625 C11.6906,300.4313 12.3844,299.625 13.3219,299.625 C13.8094,299.625 14.1656,299.8125 14.4844,300.1031 L15.3094,299.175 C14.8594,298.7344 14.1656,298.3313 13.3219,298.3313 C11.55,298.3313 10.1531,299.6156 10.1531,301.8187 C10.1531,304.05 11.5781,305.2219 13.2281,305.2219 Z " fill="#000000"/><text fill="#000000" font-family="sans-serif" font-size="8.4" lengthAdjust="spacing" textLength="102" x="21.6" y="304.3711">StandardChannelMetadata</text><line style="stroke:#181818;stroke-width:0.3;" x1="4.8" x2="124.8" y1="311.1" y2="311.1"/><line style="stroke:#181818;stroke-width:0.3;" x1="4.8" x2="124.8" y1="315.9" y2="315.9"/></g><!--class AverageChannelMetadata--><g id="elem_AverageChannelMetadata"><rect codeLine="51" fill="#F1F1F1" height="58.3313" id="AverageChannelMetadata" rx="1.5" ry="1.5" style="stroke:#181818;stroke-width:0.3;" width="117" x="146.7" y="277.2"/><ellipse cx="155.7" cy="286.8" fill="#ADD1B2" rx="6.6" ry="6.6" style="stroke:#181818;stroke-width:0.6;"/><path d="M155.7281,290.5219 C156.6281,290.5219 157.3688,290.1844 157.9125,289.5469 L157.0875,288.6375 C156.7594,288.9938 156.3656,289.2281 155.8875,289.2281 C154.8844,289.2281 154.1906,288.4313 154.1906,287.0625 C154.1906,285.7313 154.8844,284.925 155.8219,284.925 C156.3094,284.925 156.6656,285.1125 156.9844,285.4031 L157.8094,284.475 C157.3594,284.0344 156.6656,283.6312 155.8219,283.6312 C154.05,283.6312 152.6531,284.9156 152.6531,287.1188 C152.6531,289.35 154.0781,290.5219 155.7281,290.5219 Z " fill="#000000"/><text fill="#000000" font-family="sans-serif" font-size="8.4" lengthAdjust="spacing" textLength="97.8" x="164.1" y="289.6711">AverageChannelMetadata</text><line style="stroke:#181818;stroke-width:0.3;" x1="147.3" x2="263.1" y1="296.4" y2="296.4"/><text fill="#000000" font-family="sans-serif" font-size="8.4" lengthAdjust="spacing" textLength="55.2" x="150.3" y="306.593">low_limit : float</text><text fill="#000000" font-family="sans-serif" font-size="8.4" lengthAdjust="spacing" textLength="85.2" x="150.3" y="316.4367">max_attempts : integer</text><text fill="#000000" font-family="sans-serif" font-size="8.4" lengthAdjust="spacing" textLength="76.8" x="150.3" y="326.2805">max_deviation : float</text><line style="stroke:#181818;stroke-width:0.3;" x1="147.3" x2="263.1" y1="330.7313" y2="330.7313"/></g><g id="elem_GMN30"><path d="M113.7,371.4 L113.7,432.2438 A0,0 0 0 0 113.7,432.2438 L296.7,432.2438 A0,0 0 0 0 296.7,432.2438 L296.7,377.4 L290.7,371.4 L207.6,371.4 L205.2,335.418 L202.8,371.4 L113.7,371.4 A0,0 0 0 0 113.7,371.4 " fill="#FEFFDD" style="stroke:#181818;stroke-width:0.3;"/><path d="M290.7,371.4 L290.7,377.4 L296.7,377.4 L290.7,371.4 " fill="#FEFFDD" style="stroke:#181818;stroke-width:0.3;"/><text fill="#000000" font-family="sans-serif" font-size="7.8" lengthAdjust="spacing" textLength="168" x="117.3" y="381.6363">These attributes may change for individual values</text><text fill="#000000" font-family="sans-serif" font-size="7.8" lengthAdjust="spacing" textLength="170.4" x="117.3" y="390.777">and are currently saved in eveH5 for each position.</text><text fill="#000000" font-family="sans-serif" font-size="7.8" lengthAdjust="spacing" textLength="1.8" x="117.3" y="399.9176">&#160;</text><text fill="#000000" font-family="sans-serif" font-size="7.8" lengthAdjust="spacing" textLength="140.4" x="117.3" y="409.0582">If we go for separate detectors if they are</text><text fill="#000000" font-family="sans-serif" font-size="7.8" lengthAdjust="spacing" textLength="123" x="117.3" y="418.1988">redefined in different scan modules,</text><text fill="#000000" font-family="sans-serif" font-size="7.8" lengthAdjust="spacing" textLength="100.2" x="117.3" y="427.3395">would this solve the problem?</text></g><!--class IntervalChannelMetadata--><g id="elem_IntervalChannelMetadata"><rect codeLine="65" fill="#F1F1F1" height="38.6438" id="IntervalChannelMetadata" rx="1.5" ry="1.5" style="stroke:#181818;stroke-width:0.3;" width="114.6" x="284.7" y="287.1"/><ellipse cx="293.7" cy="296.7" fill="#ADD1B2" rx="6.6" ry="6.6" style="stroke:#181818;stroke-width:0.6;"/><path d="M293.7281,300.4219 C294.6281,300.4219 295.3688,300.0844 295.9125,299.4469 L295.0875,298.5375 C294.7594,298.8938 294.3656,299.1281 293.8875,299.1281 C292.8844,299.1281 292.1906,298.3313 292.1906,296.9625 C292.1906,295.6312 292.8844,294.825 293.8219,294.825 C294.3094,294.825 294.6656,295.0125 294.9844,295.3031 L295.8094,294.375 C295.3594,293.9344 294.6656,293.5313 293.8219,293.5313 C292.05,293.5313 290.6531,294.8156 290.6531,297.0188 C290.6531,299.25 292.0781,300.4219 293.7281,300.4219 Z " fill="#000000"/><text fill="#000000" font-family="sans-serif" font-size="8.4" lengthAdjust="spacing" textLength="95.4" x="302.1" y="299.5711">IntervalChannelMetadata</text><line style="stroke:#181818;stroke-width:0.3;" x1="285.3" x2="398.7" y1="306.3" y2="306.3"/><text fill="#000000" font-family="sans-serif" font-size="8.4" lengthAdjust="spacing" textLength="78.6" x="288.3" y="316.493">trigger_interval : float</text><line style="stroke:#181818;stroke-width:0.3;" x1="285.3" x2="398.7" y1="320.9437" y2="320.9437"/></g><!--class ArrayChannelMetadata--><g id="elem_ArrayChannelMetadata"><rect codeLine="69" fill="#F1F1F1" height="28.8" id="ArrayChannelMetadata" rx="1.5" ry="1.5" style="stroke:#181818;stroke-width:0.3;" width="106.8" x="420.6" y="291.9"/><ellipse cx="429.6" cy="301.5" fill="#ADD1B2" rx="6.6" ry="6.6" style="stroke:#181818;stroke-width:0.6;"/><path d="M429.6281,305.2219 C430.5281,305.2219 431.2688,304.8844 431.8125,304.2469 L430.9875,303.3375 C430.6594,303.6937 430.2656,303.9281 429.7875,303.9281 C428.7844,303.9281 428.0906,303.1312 428.0906,301.7625 C428.0906,300.4313 428.7844,299.625 429.7219,299.625 C430.2094,299.625 430.5656,299.8125 430.8844,300.1031 L431.7094,299.175 C431.2594,298.7344 430.5656,298.3313 429.7219,298.3313 C427.95,298.3313 426.5531,299.6156 426.5531,301.8187 C426.5531,304.05 427.9781,305.2219 429.6281,305.2219 Z " fill="#000000"/><text fill="#000000" font-family="sans-serif" font-size="8.4" lengthAdjust="spacing" textLength="87.6" x="438" y="304.3711">ArrayChannelMetadata</text><line style="stroke:#181818;stroke-width:0.3;" x1="421.2" x2="526.8" y1="311.1" y2="311.1"/><line style="stroke:#181818;stroke-width:0.3;" x1="421.2" x2="526.8" y1="315.9" y2="315.9"/></g><!--class AreaChannelMetadata--><g id="elem_AreaChannelMetadata"><rect codeLine="72" fill="#F1F1F1" height="28.8" id="AreaChannelMetadata" rx="1.5" ry="1.5" style="stroke:#181818;stroke-width:0.3;" width="103.8" x="548.7" y="291.9"/><ellipse cx="557.7" cy="301.5" fill="#ADD1B2" rx="6.6" ry="6.6" style="stroke:#181818;stroke-width:0.6;"/><path d="M557.7281,305.2219 C558.6281,305.2219 559.3688,304.8844 559.9125,304.2469 L559.0875,303.3375 C558.7594,303.6937 558.3656,303.9281 557.8875,303.9281 C556.8844,303.9281 556.1906,303.1312 556.1906,301.7625 C556.1906,300.4313 556.8844,299.625 557.8219,299.625 C558.3094,299.625 558.6656,299.8125 558.9844,300.1031 L559.8094,299.175 C559.3594,298.7344 558.6656,298.3313 557.8219,298.3313 C556.05,298.3313 554.6531,299.6156 554.6531,301.8187 C554.6531,304.05 556.0781,305.2219 557.7281,305.2219 Z " fill="#000000"/><text fill="#000000" font-family="sans-serif" font-size="8.4" lengthAdjust="spacing" textLength="84.6" x="566.1" y="304.3711">AreaChannelMetadata</text><line style="stroke:#181818;stroke-width:0.3;" x1="549.3" x2="651.9" y1="311.1" y2="311.1"/><line style="stroke:#181818;stroke-width:0.3;" x1="549.3" x2="651.9" y1="315.9" y2="315.9"/></g><!--reverse link Metadata to MeasureMetadata--><g id="link_Metadata_MeasureMetadata"><path d="M183.5011,59.0335 C213.5371,72.8875 248.7,89.388 287.4,108.6 C293.724,111.738 300.414,115.152 306.864,118.494 " fill="none" id="Metadata-backto-MeasureMetadata" style="stroke:#181818;stroke-width:0.6;"/><polygon fill="none" points="173.694,54.51,181.9932,62.3025,185.0089,55.7645,173.694,54.51" style="stroke:#181818;stroke-width:0.6;"/></g><!--reverse link Metadata to MonitorMetadata--><g id="link_Metadata_MonitorMetadata"><path d="M138.2059,73.6326 C136.5139,110.4246 133.794,169.47 132.258,202.8 " fill="none" id="Metadata-backto-MonitorMetadata" style="stroke:#181818;stroke-width:0.6;"/><polygon fill="none" points="138.702,62.844,134.6097,73.4672,141.8021,73.798,138.702,62.844" style="stroke:#181818;stroke-width:0.6;"/></g><!--reverse link DeviceMetadata to MonitorMetadata--><g id="link_DeviceMetadata_MonitorMetadata"><path d="M184.3425,174.0919 C171.1005,185.9239 164.172,192.12 152.37,202.662 " fill="none" id="DeviceMetadata-backto-MonitorMetadata" style="stroke:#181818;stroke-width:0.6;stroke-dasharray:7.0,7.0;"/><polygon fill="none" points="192.396,166.896,181.9439,171.4075,186.7412,176.7764,192.396,166.896" style="stroke:#181818;stroke-width:0.6;"/></g><!--reverse link MeasureMetadata to AxisMetadata--><g id="link_MeasureMetadata_AxisMetadata"><path d="M311.1987,163.8421 C292.6767,179.2021 275.148,193.746 258.444,207.6 " fill="none" id="MeasureMetadata-backto-AxisMetadata" style="stroke:#181818;stroke-width:0.6;"/><polygon fill="none" points="319.512,156.948,308.9006,161.071,313.4967,166.6132,319.512,156.948" style="stroke:#181818;stroke-width:0.6;"/></g><!--reverse link DeviceMetadata to AxisMetadata--><g id="link_DeviceMetadata_AxisMetadata"><path d="M232.5994,177.4672 C235.4674,191.1772 236.568,196.404 238.878,207.45 " fill="none" id="DeviceMetadata-backto-AxisMetadata" style="stroke:#181818;stroke-width:0.6;stroke-dasharray:7.0,7.0;"/><polygon fill="none" points="230.388,166.896,229.0757,178.2043,236.1231,176.73,230.388,166.896" style="stroke:#181818;stroke-width:0.6;"/></g><!--reverse link MeasureMetadata to ChannelMetadata--><g id="link_MeasureMetadata_ChannelMetadata"><path d="M342,167.748 C342,181.338 342,188.886 342,202.524 " fill="none" id="MeasureMetadata-backto-ChannelMetadata" style="stroke:#181818;stroke-width:0.6;"/><polygon fill="none" points="342,156.948,338.4,167.748,345.6,167.748,342,156.948" style="stroke:#181818;stroke-width:0.6;"/></g><!--reverse link DeviceMetadata to ChannelMetadata--><g id="link_DeviceMetadata_ChannelMetadata"><path d="M273.6901,173.1286 C290.5021,185.0086 300.708,192.222 315.66,202.788 " fill="none" id="DeviceMetadata-backto-ChannelMetadata" style="stroke:#181818;stroke-width:0.6;stroke-dasharray:7.0,7.0;"/><polygon fill="none" points="264.87,166.896,271.6126,176.0687,275.7677,170.1886,264.87,166.896" style="stroke:#181818;stroke-width:0.6;"/></g><!--reverse link MeasureMetadata to TimestampMetadata--><g id="link_MeasureMetadata_TimestampMetadata"><path d="M376.1626,163.3328 C394.7686,176.9708 411.204,189.012 429.84,202.668 " fill="none" id="MeasureMetadata-backto-TimestampMetadata" style="stroke:#181818;stroke-width:0.6;"/><polygon fill="none" points="367.452,156.948,374.0343,166.2363,378.2909,160.4292,367.452,156.948" style="stroke:#181818;stroke-width:0.6;"/></g><!--reverse link ChannelMetadata to StandardChannelMetadata--><g id="link_ChannelMetadata_StandardChannelMetadata"><path d="M288.5033,241.1834 C284.8673,242.3414 291.522,240.18 288,241.2 C221.406,260.514 202.308,256.29 136.2,277.2 C123.03,281.364 108.84,286.824 96.606,291.846 " fill="none" id="ChannelMetadata-backto-StandardChannelMetadata" style="stroke:#181818;stroke-width:0.6;"/><polygon fill="none" points="298.794,237.906,287.4108,237.7532,289.5958,244.6136,298.794,237.906" style="stroke:#181818;stroke-width:0.6;"/></g><!--reverse link ChannelMetadata to AverageChannelMetadata--><g id="link_ChannelMetadata_AverageChannelMetadata"><path d="M302.0687,246.8569 C284.6627,257.4349 271.74,265.278 252.192,277.158 " fill="none" id="ChannelMetadata-backto-AverageChannelMetadata" style="stroke:#181818;stroke-width:0.6;"/><polygon fill="none" points="311.298,241.248,300.199,243.7804,303.9383,249.9333,311.298,241.248" style="stroke:#181818;stroke-width:0.6;"/></g><!--reverse link ChannelMetadata to IntervalChannelMetadata--><g id="link_ChannelMetadata_IntervalChannelMetadata"><path d="M342,252.048 C342,265.638 342,273.186 342,286.824 " fill="none" id="ChannelMetadata-backto-IntervalChannelMetadata" style="stroke:#181818;stroke-width:0.6;"/><polygon fill="none" points="342,241.248,338.4,252.048,345.6,252.048,342,241.248" style="stroke:#181818;stroke-width:0.6;"/></g><!--reverse link ChannelMetadata to ArrayChannelMetadata--><g id="link_ChannelMetadata_ArrayChannelMetadata"><path d="M380.762,247.0013 C405.164,262.3613 430.068,278.046 452.076,291.9 " fill="none" id="ChannelMetadata-backto-ArrayChannelMetadata" style="stroke:#181818;stroke-width:0.6;"/><polygon fill="none" points="371.622,241.248,378.8443,250.0479,382.6798,243.9546,371.622,241.248" style="stroke:#181818;stroke-width:0.6;"/></g><!--reverse link ChannelMetadata to AreaChannelMetadata--><g id="link_ChannelMetadata_AreaChannelMetadata"><path d="M395.5033,241.1591 C399.1333,242.3291 392.484,240.15 396,241.2 C458.472,259.83 476.7,255.57 538.2,277.2 C549.882,281.31 562.374,286.782 573.084,291.834 " fill="none" id="ChannelMetadata-backto-AreaChannelMetadata" style="stroke:#181818;stroke-width:0.6;"/><polygon fill="none" points="385.224,237.846,394.3989,244.5856,396.6076,237.7327,385.224,237.846" style="stroke:#181818;stroke-width:0.6;"/></g><!--reverse link Data to Metadata--><g id="link_Data_Metadata"><path codeLine="75" d="M92.67,38.4 C99.534,38.4 99.198,38.4 106.056,38.4 " fill="none" id="Data-backto-Metadata" style="stroke:#181818;stroke-width:0.6;"/><polygon fill="#181818" points="85.47,38.4,89.07,40.8,92.67,38.4,89.07,36,85.47,38.4" style="stroke:#181818;stroke-width:0.6;"/></g><!--SRC=[fLHDRzf04BtxLyovQhdraWkoe6gG0bJ1lI6XYNTiLjeFQtTjG57-UsVNvYi9Ig8Y9Bp3lZSpR-QvLEWzp2cWm83md05_36g2E_31ILEdYASoI6iukEgVifSiAnDsskDUCcC3mPCDmUfuZK18h1rggAnRcqIlhMWLZRACJAkFL4FILP4lfldZj3yiyZ-h-sMH3lFbObOi7_ldNqKUSoU2mg7nZNLXe9ZawUTXESaVNXTKRAK7_Wggf241qa3OqjhuKgkHfz0sGtLhWnvsfDG8VfCXXqfw6g_DNqyCyW5DIL0vgoFUqJZBf0daAkJmb3fPqYirfRZMikckp-7OnIOScgZxgQspo7D2txepC-q36V5cSAsHuKn-HbkEMtSRBNMZI9C9_lqMten_T9p9AKU-b_wT1DTbtywJDcYWccpH65B_nvRss3gTnhUvdC4fJo4ryJnrys6ccoeCszZphNWt13fng_xNyUUpU1tlMKsV1gPobDrjbDHfufMo659Kutw38P1kM9OxYBjPaplz9LWe7BheGLS-IVUABV6kCucJJsqWpy03b5n3JT7Bp2ba9qMB2ZfKBVc4uju17K7PEiSpKGVmsFL6euxkVoOeORc5ndgPvCiIS5QntQ2swOAd1XroFO82YsmTcxQAJZj4ydJVqOM7XQmgYld0bsW62_llwUBEjaembbtlhUeeqa3Zx1DlpPZV809YvySPpAABkP-l3O4rgbdVZHpG5x8UP-iS7ZvFUe4Z_18ilOY__JYvEli7]--></g></svg>