<?xml version="1.0" encoding="us-ascii" standalone="no"?><svg xmlns="http://www.w3.org/2000/svg" xmlns:xlink="http://www.w3.org/1999/xlink" contentStyleType="text/css" height="674px" preserveAspectRatio="none" style="width:2072px;height:674px;background:#FFFFFF;" version="1.1" viewBox="0 0 2072 674" width="2072px" zoomAndPan="magnify"><defs/><g><!--class Metadata--><g id="elem_Metadata"><rect codeLine="2" fill="#F1F1F1" height="80.8125" id="Metadata" rx="2.5" ry="2.5" style="stroke:#181818;stroke-width:0.5;" width="93" x="719" y="7"/><ellipse cx="734" cy="23" fill="#ADD1B2" rx="11" ry="11" style="stroke:#181818;stroke-width:1.0;"/><path d="M734.0469,29.2031 C735.5469,29.2031 736.7813,28.6406 737.6875,27.5781 L736.3125,26.0625 C735.7656,26.6563 735.1094,27.0469 734.3125,27.0469 C732.6406,27.0469 731.4844,25.7188 731.4844,23.4375 C731.4844,21.2188 732.6406,19.875 734.2031,19.875 C735.0156,19.875 735.6094,20.1875 736.1406,20.6719 L737.5156,19.125 C736.7656,18.3906 735.6094,17.7188 734.2031,17.7188 C731.25,17.7188 728.9219,19.8594 728.9219,23.5313 C728.9219,27.25 731.2969,29.2031 734.0469,29.2031 Z " fill="#000000"/><text fill="#000000" font-family="sans-serif" font-size="14" lengthAdjust="spacing" textLength="61" x="748" y="27.7852">Metadata</text><line style="stroke:#181818;stroke-width:0.5;" x1="720" x2="811" y1="39" y2="39"/><text fill="#000000" font-family="sans-serif" font-size="14" lengthAdjust="spacing" textLength="80" x="725" y="55.9883">name : string</text><text fill="#000000" font-family="sans-serif" font-size="14" lengthAdjust="spacing" textLength="79" x="725" y="72.3945">options : dict</text><line style="stroke:#181818;stroke-width:0.5;" x1="720" x2="811" y1="79.8125" y2="79.8125"/></g><path d="M847,14 L847,38.4049 L804,67.6094 L847,46.4049 L847,70.8098 A0,0 0 0 0 847,70.8098 L1290,70.8098 A0,0 0 0 0 1290,70.8098 L1290,24 L1280,14 L847,14 A0,0 0 0 0 847,14 " fill="#FEFFDD" style="stroke:#181818;stroke-width:0.5;"/><path d="M1280,14 L1280,24 L1290,24 L1280,14 " fill="#FEFFDD" style="stroke:#181818;stroke-width:0.5;"/><text fill="#000000" font-family="sans-serif" font-size="13" lengthAdjust="spacing" textLength="136" x="853" y="32.1672">The difference between</text><text fill="#000000" font-family="monospace" font-size="13" lengthAdjust="spacing" textLength="56" x="992" y="31.792">options</text><text fill="#000000" font-family="sans-serif" font-size="13" lengthAdjust="spacing" textLength="119" x="1051" y="32.1672">here in Metadata and</text><text fill="#000000" font-family="monospace" font-size="13" lengthAdjust="spacing" textLength="56" x="1173" y="31.792">options</text><text fill="#000000" font-family="sans-serif" font-size="13" lengthAdjust="spacing" textLength="43" x="1232" y="32.1672">in Data:</text><text fill="#000000" font-family="sans-serif" font-size="13" lengthAdjust="spacing" textLength="386" x="853" y="47.4016">Options in Data vary potentially for each data point, hence are arrays,</text><text fill="#000000" font-family="sans-serif" font-size="13" lengthAdjust="spacing" textLength="403" x="853" y="62.6359">while options in Metadata are scalar and don't change for a Data object.</text><!--class Data--><g id="elem_Data"><rect codeLine="12" fill="#F1F1F1" height="48" id="Data" rx="2.5" ry="2.5" style="stroke:#181818;stroke-width:0.5;" width="62" x="1019.5" y="172.5"/><ellipse cx="1034.5" cy="188.5" fill="#ADD1B2" rx="11" ry="11" style="stroke:#181818;stroke-width:1.0;"/><path d="M1034.5469,194.7031 C1036.0469,194.7031 1037.2813,194.1406 1038.1875,193.0781 L1036.8125,191.5625 C1036.2656,192.1563 1035.6094,192.5469 1034.8125,192.5469 C1033.1406,192.5469 1031.9844,191.2188 1031.9844,188.9375 C1031.9844,186.7188 1033.1406,185.375 1034.7031,185.375 C1035.5156,185.375 1036.1094,185.6875 1036.6406,186.1719 L1038.0156,184.625 C1037.2656,183.8906 1036.1094,183.2188 1034.7031,183.2188 C1031.75,183.2188 1029.4219,185.3594 1029.4219,189.0313 C1029.4219,192.75 1031.7969,194.7031 1034.5469,194.7031 Z " fill="#000000"/><text fill="#000000" font-family="sans-serif" font-size="14" lengthAdjust="spacing" textLength="30" x="1048.5" y="193.2852">Data</text><line style="stroke:#181818;stroke-width:0.5;" x1="1020.5" x2="1080.5" y1="204.5" y2="204.5"/><line style="stroke:#181818;stroke-width:0.5;" x1="1020.5" x2="1080.5" y1="212.5" y2="212.5"/></g><g id="elem_GMN6"><path d="M1106,317 L1106,357.4688 A0,0 0 0 0 1106,357.4688 L1217,357.4688 A0,0 0 0 0 1217,357.4688 L1217,327 L1207,317 L1150.09,317 L1069.08,220.68 L1142.09,317 L1106,317 A0,0 0 0 0 1106,317 " fill="#FEFFDD" style="stroke:#181818;stroke-width:0.5;"/><path d="M1207,317 L1207,327 L1217,327 L1207,317 " fill="#FEFFDD" style="stroke:#181818;stroke-width:0.5;"/><text fill="#000000" font-family="sans-serif" font-size="13" lengthAdjust="spacing" textLength="90" x="1112" y="334.0605">See diagram for</text><text fill="#000000" font-family="sans-serif" font-size="13" lengthAdjust="spacing" textLength="73" x="1112" y="349.2949">data module.</text></g><!--class AbstractDeviceMetadata--><g id="elem_AbstractDeviceMetadata"><rect codeLine="16" fill="#F1F1F1" height="97.2188" id="AbstractDeviceMetadata" rx="2.5" ry="2.5" style="stroke:#181818;stroke-width:0.5;" width="179" x="410" y="148"/><ellipse cx="425" cy="164" fill="#B4A7E5" rx="11" ry="11" style="stroke:#181818;stroke-width:1.0;"/><path d="M421.2656,170 L428.9375,170 L428.9375,167.8906 L426.3594,167.8906 L426.3594,161.0313 L428.9375,161.0313 L428.9375,158.9219 L421.2656,158.9219 L421.2656,161.0313 L423.8438,161.0313 L423.8438,167.8906 L421.2656,167.8906 L421.2656,170 Z " fill="#000000"/><text fill="#000000" font-family="sans-serif" font-size="14" font-style="italic" lengthAdjust="spacing" textLength="147" x="439" y="168.7852">AbstractDeviceMetadata</text><line style="stroke:#181818;stroke-width:0.5;" x1="411" x2="588" y1="180" y2="180"/><text fill="#000000" font-family="sans-serif" font-size="14" lengthAdjust="spacing" textLength="56" x="416" y="196.9883">id : string</text><text fill="#000000" font-family="sans-serif" font-size="14" lengthAdjust="spacing" textLength="60" x="416" y="213.3945">pv : string</text><text fill="#000000" font-family="sans-serif" font-size="14" lengthAdjust="spacing" textLength="129" x="416" y="229.8008">access_mode : string</text><line style="stroke:#181818;stroke-width:0.5;" x1="411" x2="588" y1="237.2188" y2="237.2188"/></g><!--class MeasureMetadata--><g id="elem_MeasureMetadata"><rect codeLine="22" fill="#F1F1F1" height="64.4063" id="MeasureMetadata" rx="2.5" ry="2.5" style="stroke:#181818;stroke-width:0.5;" width="147" x="692" y="164.5"/><ellipse cx="707" cy="180.5" fill="#ADD1B2" rx="11" ry="11" style="stroke:#181818;stroke-width:1.0;"/><path d="M707.0469,186.7031 C708.5469,186.7031 709.7813,186.1406 710.6875,185.0781 L709.3125,183.5625 C708.7656,184.1563 708.1094,184.5469 707.3125,184.5469 C705.6406,184.5469 704.4844,183.2188 704.4844,180.9375 C704.4844,178.7188 705.6406,177.375 707.2031,177.375 C708.0156,177.375 708.6094,177.6875 709.1406,178.1719 L710.5156,176.625 C709.7656,175.8906 708.6094,175.2188 707.2031,175.2188 C704.25,175.2188 701.9219,177.3594 701.9219,181.0313 C701.9219,184.75 704.2969,186.7031 707.0469,186.7031 Z " fill="#000000"/><text fill="#000000" font-family="sans-serif" font-size="14" lengthAdjust="spacing" textLength="115" x="721" y="185.2852">MeasureMetadata</text><line style="stroke:#181818;stroke-width:0.5;" x1="693" x2="838" y1="196.5" y2="196.5"/><text fill="#000000" font-family="sans-serif" font-size="14" lengthAdjust="spacing" textLength="69" x="698" y="213.4883">unit : string</text><line style="stroke:#181818;stroke-width:0.5;" x1="693" x2="838" y1="220.9063" y2="220.9063"/></g><!--class MonitorMetadata--><g id="elem_MonitorMetadata"><rect codeLine="26" fill="#F1F1F1" height="48" id="MonitorMetadata" rx="2.5" ry="2.5" style="stroke:#181818;stroke-width:0.5;" width="142" x="228.5" y="313"/><ellipse cx="243.5" cy="329" fill="#ADD1B2" rx="11" ry="11" style="stroke:#181818;stroke-width:1.0;"/><path d="M243.5469,335.2031 C245.0469,335.2031 246.2813,334.6406 247.1875,333.5781 L245.8125,332.0625 C245.2656,332.6563 244.6094,333.0469 243.8125,333.0469 C242.1406,333.0469 240.9844,331.7188 240.9844,329.4375 C240.9844,327.2188 242.1406,325.875 243.7031,325.875 C244.5156,325.875 245.1094,326.1875 245.6406,326.6719 L247.0156,325.125 C246.2656,324.3906 245.1094,323.7188 243.7031,323.7188 C240.75,323.7188 238.4219,325.8594 238.4219,329.5313 C238.4219,333.25 240.7969,335.2031 243.5469,335.2031 Z " fill="#000000"/><text fill="#000000" font-family="sans-serif" font-size="14" lengthAdjust="spacing" textLength="110" x="257.5" y="333.7852">MonitorMetadata</text><line style="stroke:#181818;stroke-width:0.5;" x1="229.5" x2="369.5" y1="345" y2="345"/><line style="stroke:#181818;stroke-width:0.5;" x1="229.5" x2="369.5" y1="353" y2="353"/></g><!--class DeviceMetadata--><g id="elem_DeviceMetadata"><rect codeLine="29" fill="#F1F1F1" height="48" id="DeviceMetadata" rx="2.5" ry="2.5" style="stroke:#181818;stroke-width:0.5;" width="133" x="560" y="313"/><ellipse cx="575" cy="329" fill="#ADD1B2" rx="11" ry="11" style="stroke:#181818;stroke-width:1.0;"/><path d="M575.0469,335.2031 C576.5469,335.2031 577.7813,334.6406 578.6875,333.5781 L577.3125,332.0625 C576.7656,332.6563 576.1094,333.0469 575.3125,333.0469 C573.6406,333.0469 572.4844,331.7188 572.4844,329.4375 C572.4844,327.2188 573.6406,325.875 575.2031,325.875 C576.0156,325.875 576.6094,326.1875 577.1406,326.6719 L578.5156,325.125 C577.7656,324.3906 576.6094,323.7188 575.2031,323.7188 C572.25,323.7188 569.9219,325.8594 569.9219,329.5313 C569.9219,333.25 572.2969,335.2031 575.0469,335.2031 Z " fill="#000000"/><text fill="#000000" font-family="sans-serif" font-size="14" lengthAdjust="spacing" textLength="101" x="589" y="333.7852">DeviceMetadata</text><line style="stroke:#181818;stroke-width:0.5;" x1="561" x2="692" y1="345" y2="345"/><line style="stroke:#181818;stroke-width:0.5;" x1="561" x2="692" y1="353" y2="353"/></g><!--class AxisMetadata--><g id="elem_AxisMetadata"><rect codeLine="32" fill="#F1F1F1" height="64.4063" id="AxisMetadata" rx="2.5" ry="2.5" style="stroke:#181818;stroke-width:0.5;" width="119" x="406" y="305"/><ellipse cx="421" cy="321" fill="#ADD1B2" rx="11" ry="11" style="stroke:#181818;stroke-width:1.0;"/><path d="M421.0469,327.2031 C422.5469,327.2031 423.7813,326.6406 424.6875,325.5781 L423.3125,324.0625 C422.7656,324.6563 422.1094,325.0469 421.3125,325.0469 C419.6406,325.0469 418.4844,323.7188 418.4844,321.4375 C418.4844,319.2188 419.6406,317.875 421.2031,317.875 C422.0156,317.875 422.6094,318.1875 423.1406,318.6719 L424.5156,317.125 C423.7656,316.3906 422.6094,315.7188 421.2031,315.7188 C418.25,315.7188 415.9219,317.8594 415.9219,321.5313 C415.9219,325.25 418.2969,327.2031 421.0469,327.2031 Z " fill="#000000"/><text fill="#000000" font-family="sans-serif" font-size="14" lengthAdjust="spacing" textLength="87" x="435" y="325.7852">AxisMetadata</text><line style="stroke:#181818;stroke-width:0.5;" x1="407" x2="524" y1="337" y2="337"/><text fill="#000000" font-family="sans-serif" font-size="14" lengthAdjust="spacing" textLength="101" x="412" y="353.9883">deadband : float</text><line style="stroke:#181818;stroke-width:0.5;" x1="407" x2="524" y1="361.4063" y2="361.4063"/></g><!--class ChannelMetadata--><g id="elem_ChannelMetadata"><rect codeLine="36" fill="#F1F1F1" height="48" id="ChannelMetadata" rx="2.5" ry="2.5" style="stroke:#181818;stroke-width:0.5;" width="144" x="728.5" y="313"/><ellipse cx="743.5" cy="329" fill="#ADD1B2" rx="11" ry="11" style="stroke:#181818;stroke-width:1.0;"/><path d="M743.5469,335.2031 C745.0469,335.2031 746.2813,334.6406 747.1875,333.5781 L745.8125,332.0625 C745.2656,332.6563 744.6094,333.0469 743.8125,333.0469 C742.1406,333.0469 740.9844,331.7188 740.9844,329.4375 C740.9844,327.2188 742.1406,325.875 743.7031,325.875 C744.5156,325.875 745.1094,326.1875 745.6406,326.6719 L747.0156,325.125 C746.2656,324.3906 745.1094,323.7188 743.7031,323.7188 C740.75,323.7188 738.4219,325.8594 738.4219,329.5313 C738.4219,333.25 740.7969,335.2031 743.5469,335.2031 Z " fill="#000000"/><text fill="#000000" font-family="sans-serif" font-size="14" lengthAdjust="spacing" textLength="112" x="757.5" y="333.7852">ChannelMetadata</text><line style="stroke:#181818;stroke-width:0.5;" x1="729.5" x2="871.5" y1="345" y2="345"/><line style="stroke:#181818;stroke-width:0.5;" x1="729.5" x2="871.5" y1="353" y2="353"/></g><!--class TimestampMetadata--><g id="elem_TimestampMetadata"><rect codeLine="39" fill="#F1F1F1" height="48" id="TimestampMetadata" rx="2.5" ry="2.5" style="stroke:#181818;stroke-width:0.5;" width="163" x="908" y="313"/><ellipse cx="923" cy="329" fill="#ADD1B2" rx="11" ry="11" style="stroke:#181818;stroke-width:1.0;"/><path d="M923.0469,335.2031 C924.5469,335.2031 925.7813,334.6406 926.6875,333.5781 L925.3125,332.0625 C924.7656,332.6563 924.1094,333.0469 923.3125,333.0469 C921.6406,333.0469 920.4844,331.7188 920.4844,329.4375 C920.4844,327.2188 921.6406,325.875 923.2031,325.875 C924.0156,325.875 924.6094,326.1875 925.1406,326.6719 L926.5156,325.125 C925.7656,324.3906 924.6094,323.7188 923.2031,323.7188 C920.25,323.7188 917.9219,325.8594 917.9219,329.5313 C917.9219,333.25 920.2969,335.2031 923.0469,335.2031 Z " fill="#000000"/><text fill="#000000" font-family="sans-serif" font-size="14" lengthAdjust="spacing" textLength="131" x="937" y="333.7852">TimestampMetadata</text><line style="stroke:#181818;stroke-width:0.5;" x1="909" x2="1070" y1="345" y2="345"/><line style="stroke:#181818;stroke-width:0.5;" x1="909" x2="1070" y1="353" y2="353"/></g><!--class NonnumericAxisMetadata--><g id="elem_NonnumericAxisMetadata"><rect codeLine="42" fill="#F1F1F1" height="48" id="NonnumericAxisMetadata" rx="2.5" ry="2.5" style="stroke:#181818;stroke-width:0.5;" width="195" x="7" y="462"/><ellipse cx="22" cy="478" fill="#ADD1B2" rx="11" ry="11" style="stroke:#181818;stroke-width:1.0;"/><path d="M22.0469,484.2031 C23.5469,484.2031 24.7813,483.6406 25.6875,482.5781 L24.3125,481.0625 C23.7656,481.6563 23.1094,482.0469 22.3125,482.0469 C20.6406,482.0469 19.4844,480.7188 19.4844,478.4375 C19.4844,476.2188 20.6406,474.875 22.2031,474.875 C23.0156,474.875 23.6094,475.1875 24.1406,475.6719 L25.5156,474.125 C24.7656,473.3906 23.6094,472.7188 22.2031,472.7188 C19.25,472.7188 16.9219,474.8594 16.9219,478.5313 C16.9219,482.25 19.2969,484.2031 22.0469,484.2031 Z " fill="#000000"/><text fill="#000000" font-family="sans-serif" font-size="14" lengthAdjust="spacing" textLength="163" x="36" y="482.7852">NonnumericAxisMetadata</text><line style="stroke:#181818;stroke-width:0.5;" x1="8" x2="201" y1="494" y2="494"/><line style="stroke:#181818;stroke-width:0.5;" x1="8" x2="201" y1="502" y2="502"/></g><!--class NonnumericChannelMetadata--><g id="elem_NonnumericChannelMetadata"><rect codeLine="47" fill="#F1F1F1" height="48" id="NonnumericChannelMetadata" rx="2.5" ry="2.5" style="stroke:#181818;stroke-width:0.5;" width="220" x="449.5" y="462"/><ellipse cx="464.5" cy="478" fill="#ADD1B2" rx="11" ry="11" style="stroke:#181818;stroke-width:1.0;"/><path d="M464.5469,484.2031 C466.0469,484.2031 467.2813,483.6406 468.1875,482.5781 L466.8125,481.0625 C466.2656,481.6563 465.6094,482.0469 464.8125,482.0469 C463.1406,482.0469 461.9844,480.7188 461.9844,478.4375 C461.9844,476.2188 463.1406,474.875 464.7031,474.875 C465.5156,474.875 466.1094,475.1875 466.6406,475.6719 L468.0156,474.125 C467.2656,473.3906 466.1094,472.7188 464.7031,472.7188 C461.75,472.7188 459.4219,474.8594 459.4219,478.5313 C459.4219,482.25 461.7969,484.2031 464.5469,484.2031 Z " fill="#000000"/><text fill="#000000" font-family="sans-serif" font-size="14" lengthAdjust="spacing" textLength="188" x="478.5" y="482.7852">NonnumericChannelMetadata</text><line style="stroke:#181818;stroke-width:0.5;" x1="450.5" x2="668.5" y1="494" y2="494"/><line style="stroke:#181818;stroke-width:0.5;" x1="450.5" x2="668.5" y1="502" y2="502"/></g><!--class ArrayChannelMetadata--><g id="elem_ArrayChannelMetadata"><rect codeLine="67" fill="#F1F1F1" height="48" id="ArrayChannelMetadata" rx="2.5" ry="2.5" style="stroke:#181818;stroke-width:0.5;" width="178" x="236.5" y="462"/><ellipse cx="251.5" cy="478" fill="#ADD1B2" rx="11" ry="11" style="stroke:#181818;stroke-width:1.0;"/><path d="M251.5469,484.2031 C253.0469,484.2031 254.2813,483.6406 255.1875,482.5781 L253.8125,481.0625 C253.2656,481.6563 252.6094,482.0469 251.8125,482.0469 C250.1406,482.0469 248.9844,480.7188 248.9844,478.4375 C248.9844,476.2188 250.1406,474.875 251.7031,474.875 C252.5156,474.875 253.1094,475.1875 253.6406,475.6719 L255.0156,474.125 C254.2656,473.3906 253.1094,472.7188 251.7031,472.7188 C248.75,472.7188 246.4219,474.8594 246.4219,478.5313 C246.4219,482.25 248.7969,484.2031 251.5469,484.2031 Z " fill="#000000"/><text fill="#000000" font-family="sans-serif" font-size="14" lengthAdjust="spacing" textLength="146" x="265.5" y="482.7852">ArrayChannelMetadata</text><line style="stroke:#181818;stroke-width:0.5;" x1="237.5" x2="413.5" y1="494" y2="494"/><line style="stroke:#181818;stroke-width:0.5;" x1="237.5" x2="413.5" y1="502" y2="502"/></g><!--class AreaChannelMetadata--><g id="elem_AreaChannelMetadata"><rect codeLine="70" fill="#F1F1F1" height="48" id="AreaChannelMetadata" rx="2.5" ry="2.5" style="stroke:#181818;stroke-width:0.5;" width="173" x="1628" y="462"/><ellipse cx="1643" cy="478" fill="#ADD1B2" rx="11" ry="11" style="stroke:#181818;stroke-width:1.0;"/><path d="M1643.0469,484.2031 C1644.5469,484.2031 1645.7813,483.6406 1646.6875,482.5781 L1645.3125,481.0625 C1644.7656,481.6563 1644.1094,482.0469 1643.3125,482.0469 C1641.6406,482.0469 1640.4844,480.7188 1640.4844,478.4375 C1640.4844,476.2188 1641.6406,474.875 1643.2031,474.875 C1644.0156,474.875 1644.6094,475.1875 1645.1406,475.6719 L1646.5156,474.125 C1645.7656,473.3906 1644.6094,472.7188 1643.2031,472.7188 C1640.25,472.7188 1637.9219,474.8594 1637.9219,478.5313 C1637.9219,482.25 1640.2969,484.2031 1643.0469,484.2031 Z " fill="#000000"/><text fill="#000000" font-family="sans-serif" font-size="14" lengthAdjust="spacing" textLength="141" x="1657" y="482.7852">AreaChannelMetadata</text><line style="stroke:#181818;stroke-width:0.5;" x1="1629" x2="1800" y1="494" y2="494"/><line style="stroke:#181818;stroke-width:0.5;" x1="1629" x2="1800" y1="502" y2="502"/></g><!--class SinglePointChannelMetadata--><g id="elem_SinglePointChannelMetadata"><rect codeLine="50" fill="#F1F1F1" height="48" id="SinglePointChannelMetadata" rx="2.5" ry="2.5" style="stroke:#181818;stroke-width:0.5;" width="214" x="1124.5" y="462"/><ellipse cx="1139.5" cy="478" fill="#ADD1B2" rx="11" ry="11" style="stroke:#181818;stroke-width:1.0;"/><path d="M1139.5469,484.2031 C1141.0469,484.2031 1142.2813,483.6406 1143.1875,482.5781 L1141.8125,481.0625 C1141.2656,481.6563 1140.6094,482.0469 1139.8125,482.0469 C1138.1406,482.0469 1136.9844,480.7188 1136.9844,478.4375 C1136.9844,476.2188 1138.1406,474.875 1139.7031,474.875 C1140.5156,474.875 1141.1094,475.1875 1141.6406,475.6719 L1143.0156,474.125 C1142.2656,473.3906 1141.1094,472.7188 1139.7031,472.7188 C1136.75,472.7188 1134.4219,474.8594 1134.4219,478.5313 C1134.4219,482.25 1136.7969,484.2031 1139.5469,484.2031 Z " fill="#000000"/><text fill="#000000" font-family="sans-serif" font-size="14" lengthAdjust="spacing" textLength="182" x="1153.5" y="482.7852">SinglePointChannelMetadata</text><line style="stroke:#181818;stroke-width:0.5;" x1="1125.5" x2="1337.5" y1="494" y2="494"/><line style="stroke:#181818;stroke-width:0.5;" x1="1125.5" x2="1337.5" y1="502" y2="502"/></g><!--class AverageChannelMetadata--><g id="elem_AverageChannelMetadata"><rect codeLine="52" fill="#F1F1F1" height="113.625" id="AverageChannelMetadata" rx="2.5" ry="2.5" style="stroke:#181818;stroke-width:0.5;" width="195" x="1374" y="429"/><ellipse cx="1389" cy="445" fill="#ADD1B2" rx="11" ry="11" style="stroke:#181818;stroke-width:1.0;"/><path d="M1389.0469,451.2031 C1390.5469,451.2031 1391.7813,450.6406 1392.6875,449.5781 L1391.3125,448.0625 C1390.7656,448.6563 1390.1094,449.0469 1389.3125,449.0469 C1387.6406,449.0469 1386.4844,447.7188 1386.4844,445.4375 C1386.4844,443.2188 1387.6406,441.875 1389.2031,441.875 C1390.0156,441.875 1390.6094,442.1875 1391.1406,442.6719 L1392.5156,441.125 C1391.7656,440.3906 1390.6094,439.7188 1389.2031,439.7188 C1386.25,439.7188 1383.9219,441.8594 1383.9219,445.5313 C1383.9219,449.25 1386.2969,451.2031 1389.0469,451.2031 Z " fill="#000000"/><text fill="#000000" font-family="sans-serif" font-size="14" lengthAdjust="spacing" textLength="163" x="1403" y="449.7852">AverageChannelMetadata</text><line style="stroke:#181818;stroke-width:0.5;" x1="1375" x2="1568" y1="461" y2="461"/><text fill="#000000" font-family="sans-serif" font-size="14" lengthAdjust="spacing" textLength="123" x="1380" y="477.9883">n_averages : integer</text><text fill="#000000" font-family="sans-serif" font-size="14" lengthAdjust="spacing" textLength="92" x="1380" y="494.3945">low_limit : float</text><text fill="#000000" font-family="sans-serif" font-size="14" lengthAdjust="spacing" textLength="142" x="1380" y="510.8008">max_attempts : integer</text><text fill="#000000" font-family="sans-serif" font-size="14" lengthAdjust="spacing" textLength="128" x="1380" y="527.207">max_deviation : float</text><line style="stroke:#181818;stroke-width:0.5;" x1="1375" x2="1568" y1="534.625" y2="534.625"/></g><!--class SkipMetadata--><g id="elem_SkipMetadata"><rect codeLine="59" fill="#F1F1F1" height="64.4063" id="SkipMetadata" rx="2.5" ry="2.5" style="stroke:#181818;stroke-width:0.5;" width="119" x="1490" y="603"/><ellipse cx="1505" cy="619" fill="#ADD1B2" rx="11" ry="11" style="stroke:#181818;stroke-width:1.0;"/><path d="M1505.0469,625.2031 C1506.5469,625.2031 1507.7813,624.6406 1508.6875,623.5781 L1507.3125,622.0625 C1506.7656,622.6563 1506.1094,623.0469 1505.3125,623.0469 C1503.6406,623.0469 1502.4844,621.7188 1502.4844,619.4375 C1502.4844,617.2188 1503.6406,615.875 1505.2031,615.875 C1506.0156,615.875 1506.6094,616.1875 1507.1406,616.6719 L1508.5156,615.125 C1507.7656,614.3906 1506.6094,613.7188 1505.2031,613.7188 C1502.25,613.7188 1499.9219,615.8594 1499.9219,619.5313 C1499.9219,623.25 1502.2969,625.2031 1505.0469,625.2031 Z " fill="#000000"/><text fill="#000000" font-family="sans-serif" font-size="14" lengthAdjust="spacing" textLength="87" x="1519" y="623.7852">SkipMetadata</text><line style="stroke:#181818;stroke-width:0.5;" x1="1491" x2="1608" y1="635" y2="635"/><text fill="#000000" font-family="sans-serif" font-size="14" lengthAdjust="spacing" textLength="94" x="1496" y="651.9883">channel : string</text><line style="stroke:#181818;stroke-width:0.5;" x1="1491" x2="1608" y1="659.4063" y2="659.4063"/></g><!--class IntervalChannelMetadata--><g id="elem_IntervalChannelMetadata"><rect codeLine="63" fill="#F1F1F1" height="64.4063" id="IntervalChannelMetadata" rx="2.5" ry="2.5" style="stroke:#181818;stroke-width:0.5;" width="191" x="705" y="454"/><ellipse cx="720" cy="470" fill="#ADD1B2" rx="11" ry="11" style="stroke:#181818;stroke-width:1.0;"/><path d="M720.0469,476.2031 C721.5469,476.2031 722.7813,475.6406 723.6875,474.5781 L722.3125,473.0625 C721.7656,473.6563 721.1094,474.0469 720.3125,474.0469 C718.6406,474.0469 717.4844,472.7188 717.4844,470.4375 C717.4844,468.2188 718.6406,466.875 720.2031,466.875 C721.0156,466.875 721.6094,467.1875 722.1406,467.6719 L723.5156,466.125 C722.7656,465.3906 721.6094,464.7188 720.2031,464.7188 C717.25,464.7188 714.9219,466.8594 714.9219,470.5313 C714.9219,474.25 717.2969,476.2031 720.0469,476.2031 Z " fill="#000000"/><text fill="#000000" font-family="sans-serif" font-size="14" lengthAdjust="spacing" textLength="159" x="734" y="474.7852">IntervalChannelMetadata</text><line style="stroke:#181818;stroke-width:0.5;" x1="706" x2="895" y1="486" y2="486"/><text fill="#000000" font-family="sans-serif" font-size="14" lengthAdjust="spacing" textLength="131" x="711" y="502.9883">trigger_interval : float</text><line style="stroke:#181818;stroke-width:0.5;" x1="706" x2="895" y1="510.4063" y2="510.4063"/></g><!--class NormalizedMetadata--><g id="elem_NormalizedMetadata"><rect codeLine="75" fill="#F1F1F1" height="64.4063" id="NormalizedMetadata" rx="2.5" ry="2.5" style="stroke:#181818;stroke-width:0.5;" width="158" x="931.5" y="454"/><ellipse cx="946.5" cy="470" fill="#B4A7E5" rx="11" ry="11" style="stroke:#181818;stroke-width:1.0;"/><path d="M942.7656,476 L950.4375,476 L950.4375,473.8906 L947.8594,473.8906 L947.8594,467.0313 L950.4375,467.0313 L950.4375,464.9219 L942.7656,464.9219 L942.7656,467.0313 L945.3438,467.0313 L945.3438,473.8906 L942.7656,473.8906 L942.7656,476 Z " fill="#000000"/><text fill="#000000" font-family="sans-serif" font-size="14" font-style="italic" lengthAdjust="spacing" textLength="126" x="960.5" y="474.7852">NormalizedMetadata</text><line style="stroke:#181818;stroke-width:0.5;" x1="932.5" x2="1088.5" y1="486" y2="486"/><text fill="#000000" font-family="sans-serif" font-size="14" lengthAdjust="spacing" textLength="123" x="937.5" y="502.9883">normalize_id : string</text><line style="stroke:#181818;stroke-width:0.5;" x1="932.5" x2="1088.5" y1="510.4063" y2="510.4063"/></g><!--class SinglePointNormalizedChannelMetadata--><g id="elem_SinglePointNormalizedChannelMetadata"><rect codeLine="79" fill="#F1F1F1" height="48" id="SinglePointNormalizedChannelMetadata" rx="2.5" ry="2.5" style="stroke:#181818;stroke-width:0.5;" width="285" x="868" y="611"/><ellipse cx="883" cy="627" fill="#ADD1B2" rx="11" ry="11" style="stroke:#181818;stroke-width:1.0;"/><path d="M883.0469,633.2031 C884.5469,633.2031 885.7813,632.6406 886.6875,631.5781 L885.3125,630.0625 C884.7656,630.6563 884.1094,631.0469 883.3125,631.0469 C881.6406,631.0469 880.4844,629.7188 880.4844,627.4375 C880.4844,625.2188 881.6406,623.875 883.2031,623.875 C884.0156,623.875 884.6094,624.1875 885.1406,624.6719 L886.5156,623.125 C885.7656,622.3906 884.6094,621.7188 883.2031,621.7188 C880.25,621.7188 877.9219,623.8594 877.9219,627.5313 C877.9219,631.25 880.2969,633.2031 883.0469,633.2031 Z " fill="#000000"/><text fill="#000000" font-family="sans-serif" font-size="14" lengthAdjust="spacing" textLength="253" x="897" y="631.7852">SinglePointNormalizedChannelMetadata</text><line style="stroke:#181818;stroke-width:0.5;" x1="869" x2="1152" y1="643" y2="643"/><line style="stroke:#181818;stroke-width:0.5;" x1="869" x2="1152" y1="651" y2="651"/></g><!--class AverageNormalizedChannelMetadata--><g id="elem_AverageNormalizedChannelMetadata"><rect codeLine="81" fill="#F1F1F1" height="48" id="AverageNormalizedChannelMetadata" rx="2.5" ry="2.5" style="stroke:#181818;stroke-width:0.5;" width="266" x="1188.5" y="611"/><ellipse cx="1203.5" cy="627" fill="#ADD1B2" rx="11" ry="11" style="stroke:#181818;stroke-width:1.0;"/><path d="M1203.5469,633.2031 C1205.0469,633.2031 1206.2813,632.6406 1207.1875,631.5781 L1205.8125,630.0625 C1205.2656,630.6563 1204.6094,631.0469 1203.8125,631.0469 C1202.1406,631.0469 1200.9844,629.7188 1200.9844,627.4375 C1200.9844,625.2188 1202.1406,623.875 1203.7031,623.875 C1204.5156,623.875 1205.1094,624.1875 1205.6406,624.6719 L1207.0156,623.125 C1206.2656,622.3906 1205.1094,621.7188 1203.7031,621.7188 C1200.75,621.7188 1198.4219,623.8594 1198.4219,627.5313 C1198.4219,631.25 1200.7969,633.2031 1203.5469,633.2031 Z " fill="#000000"/><text fill="#000000" font-family="sans-serif" font-size="14" lengthAdjust="spacing" textLength="234" x="1217.5" y="631.7852">AverageNormalizedChannelMetadata</text><line style="stroke:#181818;stroke-width:0.5;" x1="1189.5" x2="1453.5" y1="643" y2="643"/><line style="stroke:#181818;stroke-width:0.5;" x1="1189.5" x2="1453.5" y1="651" y2="651"/></g><!--class IntervalNormalizedChannelMetadata--><g id="elem_IntervalNormalizedChannelMetadata"><rect codeLine="83" fill="#F1F1F1" height="48" id="IntervalNormalizedChannelMetadata" rx="2.5" ry="2.5" style="stroke:#181818;stroke-width:0.5;" width="262" x="570.5" y="611"/><ellipse cx="585.5" cy="627" fill="#ADD1B2" rx="11" ry="11" style="stroke:#181818;stroke-width:1.0;"/><path d="M585.5469,633.2031 C587.0469,633.2031 588.2813,632.6406 589.1875,631.5781 L587.8125,630.0625 C587.2656,630.6563 586.6094,631.0469 585.8125,631.0469 C584.1406,631.0469 582.9844,629.7188 582.9844,627.4375 C582.9844,625.2188 584.1406,623.875 585.7031,623.875 C586.5156,623.875 587.1094,624.1875 587.6406,624.6719 L589.0156,623.125 C588.2656,622.3906 587.1094,621.7188 585.7031,621.7188 C582.75,621.7188 580.4219,623.8594 580.4219,627.5313 C580.4219,631.25 582.7969,633.2031 585.5469,633.2031 Z " fill="#000000"/><text fill="#000000" font-family="sans-serif" font-size="14" lengthAdjust="spacing" textLength="230" x="599.5" y="631.7852">IntervalNormalizedChannelMetadata</text><line style="stroke:#181818;stroke-width:0.5;" x1="571.5" x2="831.5" y1="643" y2="643"/><line style="stroke:#181818;stroke-width:0.5;" x1="571.5" x2="831.5" y1="651" y2="651"/></g><!--class MCAChannelMetadata--><g id="elem_MCAChannelMetadata"><rect codeLine="85" fill="#F1F1F1" height="48" id="MCAChannelMetadata" rx="2.5" ry="2.5" style="stroke:#181818;stroke-width:0.5;" width="174" x="300.5" y="611"/><ellipse cx="315.5" cy="627" fill="#ADD1B2" rx="11" ry="11" style="stroke:#181818;stroke-width:1.0;"/><path d="M315.5469,633.2031 C317.0469,633.2031 318.2813,632.6406 319.1875,631.5781 L317.8125,630.0625 C317.2656,630.6563 316.6094,631.0469 315.8125,631.0469 C314.1406,631.0469 312.9844,629.7188 312.9844,627.4375 C312.9844,625.2188 314.1406,623.875 315.7031,623.875 C316.5156,623.875 317.1094,624.1875 317.6406,624.6719 L319.0156,623.125 C318.2656,622.3906 317.1094,621.7188 315.7031,621.7188 C312.75,621.7188 310.4219,623.8594 310.4219,627.5313 C310.4219,631.25 312.7969,633.2031 315.5469,633.2031 Z " fill="#000000"/><text fill="#000000" font-family="sans-serif" font-size="14" lengthAdjust="spacing" textLength="142" x="329.5" y="631.7852">MCAChannelMetadata</text><line style="stroke:#181818;stroke-width:0.5;" x1="301.5" x2="473.5" y1="643" y2="643"/><line style="stroke:#181818;stroke-width:0.5;" x1="301.5" x2="473.5" y1="651" y2="651"/></g><!--class ScopeChannelMetadata--><g id="elem_ScopeChannelMetadata"><rect codeLine="87" fill="#F1F1F1" height="48" id="ScopeChannelMetadata" rx="2.5" ry="2.5" style="stroke:#181818;stroke-width:0.5;" width="182" x="83.5" y="611"/><ellipse cx="98.5" cy="627" fill="#ADD1B2" rx="11" ry="11" style="stroke:#181818;stroke-width:1.0;"/><path d="M98.5469,633.2031 C100.0469,633.2031 101.2813,632.6406 102.1875,631.5781 L100.8125,630.0625 C100.2656,630.6563 99.6094,631.0469 98.8125,631.0469 C97.1406,631.0469 95.9844,629.7188 95.9844,627.4375 C95.9844,625.2188 97.1406,623.875 98.7031,623.875 C99.5156,623.875 100.1094,624.1875 100.6406,624.6719 L102.0156,623.125 C101.2656,622.3906 100.1094,621.7188 98.7031,621.7188 C95.75,621.7188 93.4219,623.8594 93.4219,627.5313 C93.4219,631.25 95.7969,633.2031 98.5469,633.2031 Z " fill="#000000"/><text fill="#000000" font-family="sans-serif" font-size="14" lengthAdjust="spacing" textLength="150" x="112.5" y="631.7852">ScopeChannelMetadata</text><line style="stroke:#181818;stroke-width:0.5;" x1="84.5" x2="264.5" y1="643" y2="643"/><line style="stroke:#181818;stroke-width:0.5;" x1="84.5" x2="264.5" y1="651" y2="651"/></g><!--class SampleCameraMetadata--><g id="elem_SampleCameraMetadata"><rect codeLine="89" fill="#F1F1F1" height="48" id="SampleCameraMetadata" rx="2.5" ry="2.5" style="stroke:#181818;stroke-width:0.5;" width="188" x="1644.5" y="611"/><ellipse cx="1659.5" cy="627" fill="#ADD1B2" rx="11" ry="11" style="stroke:#181818;stroke-width:1.0;"/><path d="M1659.5469,633.2031 C1661.0469,633.2031 1662.2813,632.6406 1663.1875,631.5781 L1661.8125,630.0625 C1661.2656,630.6563 1660.6094,631.0469 1659.8125,631.0469 C1658.1406,631.0469 1656.9844,629.7188 1656.9844,627.4375 C1656.9844,625.2188 1658.1406,623.875 1659.7031,623.875 C1660.5156,623.875 1661.1094,624.1875 1661.6406,624.6719 L1663.0156,623.125 C1662.2656,622.3906 1661.1094,621.7188 1659.7031,621.7188 C1656.75,621.7188 1654.4219,623.8594 1654.4219,627.5313 C1654.4219,631.25 1656.7969,633.2031 1659.5469,633.2031 Z " fill="#000000"/><text fill="#000000" font-family="sans-serif" font-size="14" lengthAdjust="spacing" textLength="156" x="1673.5" y="631.7852">SampleCameraMetadata</text><line style="stroke:#181818;stroke-width:0.5;" x1="1645.5" x2="1831.5" y1="643" y2="643"/><line style="stroke:#181818;stroke-width:0.5;" x1="1645.5" x2="1831.5" y1="651" y2="651"/></g><!--class ScientificCameraMetadata--><g id="elem_ScientificCameraMetadata"><rect codeLine="91" fill="#F1F1F1" height="48" id="ScientificCameraMetadata" rx="2.5" ry="2.5" style="stroke:#181818;stroke-width:0.5;" width="198" x="1867.5" y="611"/><ellipse cx="1882.5" cy="627" fill="#ADD1B2" rx="11" ry="11" style="stroke:#181818;stroke-width:1.0;"/><path d="M1882.5469,633.2031 C1884.0469,633.2031 1885.2813,632.6406 1886.1875,631.5781 L1884.8125,630.0625 C1884.2656,630.6563 1883.6094,631.0469 1882.8125,631.0469 C1881.1406,631.0469 1879.9844,629.7188 1879.9844,627.4375 C1879.9844,625.2188 1881.1406,623.875 1882.7031,623.875 C1883.5156,623.875 1884.1094,624.1875 1884.6406,624.6719 L1886.0156,623.125 C1885.2656,622.3906 1884.1094,621.7188 1882.7031,621.7188 C1879.75,621.7188 1877.4219,623.8594 1877.4219,627.5313 C1877.4219,631.25 1879.7969,633.2031 1882.5469,633.2031 Z " fill="#000000"/><text fill="#000000" font-family="sans-serif" font-size="14" lengthAdjust="spacing" textLength="166" x="1896.5" y="631.7852">ScientificCameraMetadata</text><line style="stroke:#181818;stroke-width:0.5;" x1="1868.5" x2="2064.5" y1="643" y2="643"/><line style="stroke:#181818;stroke-width:0.5;" x1="1868.5" x2="2064.5" y1="651" y2="651"/></g><!--reverse link Metadata to MeasureMetadata--><g id="link_Metadata_MeasureMetadata"><path d="M765.5,106.28 C765.5,130.09 765.5,141.92 765.5,164.07 " fill="none" id="Metadata-backto-MeasureMetadata" style="stroke:#181818;stroke-width:1.0;"/><polygon fill="none" points="765.5,88.28,759.5,106.28,771.5,106.28,765.5,88.28" style="stroke:#181818;stroke-width:1.0;"/></g><!--reverse link Metadata to MonitorMetadata--><g id="link_Metadata_MonitorMetadata"><path d="M700.7362,49.8033 C624.1662,53.0533 488.96,69.03 392.5,148 C339.39,191.48 314.07,272.86 304.41,312.75 " fill="none" id="Metadata-backto-MonitorMetadata" style="stroke:#181818;stroke-width:1.0;"/><polygon fill="none" points="718.72,49.04,700.4818,43.8087,700.9906,55.7979,718.72,49.04" style="stroke:#181818;stroke-width:1.0;"/></g><!--reverse link AbstractDeviceMetadata to MonitorMetadata--><g id="link_AbstractDeviceMetadata_MonitorMetadata"><path d="M415.8721,255.4081 C382.7621,278.3381 359.39,294.52 332.79,312.94 " fill="none" id="AbstractDeviceMetadata-backto-MonitorMetadata" style="stroke:#181818;stroke-width:1.0;stroke-dasharray:7.0,7.0;"/><polygon fill="none" points="430.67,245.16,412.4561,250.4755,419.2882,260.3407,430.67,245.16" style="stroke:#181818;stroke-width:1.0;"/></g><!--reverse link MeasureMetadata to DeviceMetadata--><g id="link_MeasureMetadata_DeviceMetadata"><path d="M721.5572,241.283 C695.9372,266.803 672.98,289.68 649.8,312.78 " fill="none" id="MeasureMetadata-backto-DeviceMetadata" style="stroke:#181818;stroke-width:1.0;"/><polygon fill="none" points="734.31,228.58,717.3229,237.0321,725.7916,245.5339,734.31,228.58" style="stroke:#181818;stroke-width:1.0;"/></g><!--reverse link AbstractDeviceMetadata to DeviceMetadata--><g id="link_AbstractDeviceMetadata_DeviceMetadata"><path d="M555.3744,258.4276 C576.3244,281.2776 588.3,294.34 605.18,312.75 " fill="none" id="AbstractDeviceMetadata-backto-DeviceMetadata" style="stroke:#181818;stroke-width:1.0;stroke-dasharray:7.0,7.0;"/><polygon fill="none" points="543.21,245.16,550.9518,262.4824,559.7969,254.3728,543.21,245.16" style="stroke:#181818;stroke-width:1.0;"/></g><!--reverse link MeasureMetadata to AxisMetadata--><g id="link_MeasureMetadata_AxisMetadata"><path d="M681.8283,236.1264 C630.0083,260.0564 575.37,285.28 525.48,308.31 " fill="none" id="MeasureMetadata-backto-AxisMetadata" style="stroke:#181818;stroke-width:1.0;"/><polygon fill="none" points="698.17,228.58,679.3128,230.6792,684.3438,241.5737,698.17,228.58" style="stroke:#181818;stroke-width:1.0;"/></g><!--reverse link AbstractDeviceMetadata to AxisMetadata--><g id="link_AbstractDeviceMetadata_AxisMetadata"><path d="M483.5095,262.6412 C478.6695,282.3612 477.48,287.2 473.17,304.77 " fill="none" id="AbstractDeviceMetadata-backto-AxisMetadata" style="stroke:#181818;stroke-width:1.0;stroke-dasharray:7.0,7.0;"/><polygon fill="none" points="487.8,245.16,477.6824,261.211,489.3365,264.0713,487.8,245.16" style="stroke:#181818;stroke-width:1.0;"/></g><!--reverse link MeasureMetadata to ChannelMetadata--><g id="link_MeasureMetadata_ChannelMetadata"><path d="M777.7607,246.0312 C784.2107,271.5512 788.8,289.68 794.63,312.78 " fill="none" id="MeasureMetadata-backto-ChannelMetadata" style="stroke:#181818;stroke-width:1.0;"/><polygon fill="none" points="773.35,228.58,771.9436,247.5015,783.5778,244.561,773.35,228.58" style="stroke:#181818;stroke-width:1.0;"/></g><!--reverse link AbstractDeviceMetadata to ChannelMetadata--><g id="link_AbstractDeviceMetadata_ChannelMetadata"><path d="M605.7521,246.3939 C658.4121,270.6239 706.61,292.8 750.36,312.93 " fill="none" id="AbstractDeviceMetadata-backto-ChannelMetadata" style="stroke:#181818;stroke-width:1.0;stroke-dasharray:7.0,7.0;"/><polygon fill="none" points="589.4,238.87,603.2441,251.8446,608.2601,240.9432,589.4,238.87" style="stroke:#181818;stroke-width:1.0;"/></g><!--reverse link MeasureMetadata to TimestampMetadata--><g id="link_MeasureMetadata_TimestampMetadata"><path d="M831.0805,238.0451 C872.4905,263.6451 914.95,289.91 952.29,313 " fill="none" id="MeasureMetadata-backto-TimestampMetadata" style="stroke:#181818;stroke-width:1.0;"/><polygon fill="none" points="815.77,228.58,827.9255,243.1486,834.2356,232.9416,815.77,228.58" style="stroke:#181818;stroke-width:1.0;"/></g><!--reverse link AxisMetadata to NonnumericAxisMetadata--><g id="link_AxisMetadata_NonnumericAxisMetadata"><path d="M389.2005,368.4609 C382.9705,370.8909 393.5,366.74 387.5,369 C312.9,397.06 291.95,398.04 218.5,429 C194.93,438.93 169.31,451.36 148.34,461.99 " fill="none" id="AxisMetadata-backto-NonnumericAxisMetadata" style="stroke:#181818;stroke-width:1.0;"/><polygon fill="none" points="405.97,361.92,387.0202,362.8711,391.3808,374.0508,405.97,361.92" style="stroke:#181818;stroke-width:1.0;"/></g><!--link NonnumericChannelMetadata to ArrayChannelMetadata--><!--link ArrayChannelMetadata to AreaChannelMetadata--><!--reverse link ChannelMetadata to NonnumericChannelMetadata--><g id="link_ChannelMetadata_NonnumericChannelMetadata"><path d="M747.2129,370.503 C702.1429,397.993 642.74,434.22 597.6,461.76 " fill="none" id="ChannelMetadata-backto-NonnumericChannelMetadata" style="stroke:#181818;stroke-width:1.0;"/><polygon fill="none" points="762.58,361.13,744.0886,365.3806,750.3373,375.6254,762.58,361.13" style="stroke:#181818;stroke-width:1.0;"/></g><!--reverse link ChannelMetadata to SinglePointChannelMetadata--><g id="link_ChannelMetadata_SinglePointChannelMetadata"><path d="M883.2863,366.8421 C891.4463,369.5621 882.61,366.55 890.5,369 C985.65,398.57 1012.77,395.2 1106.5,429 C1132.78,438.48 1161.27,451.05 1184.41,461.88 " fill="none" id="ChannelMetadata-backto-SinglePointChannelMetadata" style="stroke:#181818;stroke-width:1.0;"/><polygon fill="none" points="866.21,361.15,881.3889,372.5342,885.1837,361.15,866.21,361.15" style="stroke:#181818;stroke-width:1.0;"/></g><!--reverse link ChannelMetadata to AverageChannelMetadata--><g id="link_ChannelMetadata_AverageChannelMetadata"><path d="M879.1462,366.4764 C888.5962,369.4764 881.17,366.81 890.5,369 C1093.39,416.51 1155.76,369.6 1355.5,429 C1361.61,430.82 1367.8,432.92 1373.97,435.23 " fill="none" id="ChannelMetadata-backto-AverageChannelMetadata" style="stroke:#181818;stroke-width:1.0;"/><polygon fill="none" points="861.99,361.03,877.3308,372.1952,880.9617,360.7577,861.99,361.03" style="stroke:#181818;stroke-width:1.0;"/></g><!--reverse link AverageChannelMetadata to SkipMetadata--><g id="link_AverageChannelMetadata_SkipMetadata"><path d="M1509.8702,559.3085 C1520.5302,579.3885 1523.7,585.37 1532.84,602.6 " fill="none" id="AverageChannelMetadata-backto-SkipMetadata" style="stroke:#181818;stroke-width:1.0;"/><polygon fill="none" points="1501.43,543.41,1504.5706,562.1219,1515.1697,556.4952,1501.43,543.41" style="stroke:#181818;stroke-width:1.0;"/></g><!--reverse link ChannelMetadata to IntervalChannelMetadata--><g id="link_ChannelMetadata_IntervalChannelMetadata"><path d="M800.5,379.29 C800.5,404.31 800.5,426.19 800.5,453.88 " fill="none" id="ChannelMetadata-backto-IntervalChannelMetadata" style="stroke:#181818;stroke-width:1.0;"/><polygon fill="none" points="800.5,361.29,794.5,379.29,806.5,379.29,800.5,361.29" style="stroke:#181818;stroke-width:1.0;"/></g><!--reverse link ChannelMetadata to ArrayChannelMetadata--><g id="link_ChannelMetadata_ArrayChannelMetadata"><path d="M719.2707,366.6913 C710.6207,369.5013 718.94,366.65 710.5,369 C588.32,403.05 550.69,385.64 431.5,429 C407.83,437.61 382.86,450.59 363.1,461.89 " fill="none" id="ChannelMetadata-backto-ArrayChannelMetadata" style="stroke:#181818;stroke-width:1.0;"/><polygon fill="none" points="736.39,361.13,717.4169,360.9849,721.1244,372.3978,736.39,361.13" style="stroke:#181818;stroke-width:1.0;"/></g><!--reverse link ChannelMetadata to AreaChannelMetadata--><g id="link_ChannelMetadata_AreaChannelMetadata"><path d="M878.0971,366.482 C887.8671,369.562 880.8,366.94 890.5,369 C1194.23,433.38 1285.61,352.43 1586.5,429 C1615.88,436.48 1647.09,450 1671.33,461.89 " fill="none" id="ChannelMetadata-backto-AreaChannelMetadata" style="stroke:#181818;stroke-width:1.0;"/><polygon fill="none" points="860.93,361.07,876.2932,372.2043,879.9011,360.7596,860.93,361.07" style="stroke:#181818;stroke-width:1.0;"/></g><!--link Metadata to Data--><g id="link_Metadata_Data"><path codeLine="73" d="M812.02,77.96 C817.85,81.43 823.78,84.85 829.5,88 C895.67,124.39 965.0639,156.8882 1008.3339,176.5382 " fill="none" id="Metadata-to-Data" style="stroke:#181818;stroke-width:1.0;"/><polygon fill="#181818" points="1019.26,181.5,1015.4509,175.377,1008.3339,176.5382,1012.143,182.6611,1019.26,181.5" style="stroke:#181818;stroke-width:1.0;"/></g><!--reverse link SinglePointChannelMetadata to SinglePointNormalizedChannelMetadata--><g id="link_SinglePointChannelMetadata_SinglePointNormalizedChannelMetadata"><path d="M1181.4936,520.2604 C1140.1136,547.7904 1086.66,583.34 1045.35,610.82 " fill="none" id="SinglePointChannelMetadata-backto-SinglePointNormalizedChannelMetadata" style="stroke:#181818;stroke-width:1.0;"/><polygon fill="none" points="1196.48,510.29,1178.1702,515.2649,1184.8171,525.2558,1196.48,510.29" style="stroke:#181818;stroke-width:1.0;"/></g><!--reverse link NormalizedMetadata to SinglePointNormalizedChannelMetadata--><g id="link_NormalizedMetadata_SinglePointNormalizedChannelMetadata"><path d="M1010.5,536.17 C1010.5,563.82 1010.5,585.58 1010.5,610.59 " fill="none" id="NormalizedMetadata-backto-SinglePointNormalizedChannelMetadata" style="stroke:#181818;stroke-width:1.0;stroke-dasharray:7.0,7.0;"/><polygon fill="none" points="1010.5,518.17,1004.5,536.17,1016.5,536.17,1010.5,518.17" style="stroke:#181818;stroke-width:1.0;"/></g><!--reverse link AverageChannelMetadata to AverageNormalizedChannelMetadata--><g id="link_AverageChannelMetadata_AverageNormalizedChannelMetadata"><path d="M1401.084,556.0085 C1377.124,579.4885 1363.5,592.84 1345.05,610.92 " fill="none" id="AverageChannelMetadata-backto-AverageNormalizedChannelMetadata" style="stroke:#181818;stroke-width:1.0;"/><polygon fill="none" points="1413.94,543.41,1396.8845,551.7231,1405.2835,560.2938,1413.94,543.41" style="stroke:#181818;stroke-width:1.0;"/></g><!--reverse link NormalizedMetadata to AverageNormalizedChannelMetadata--><g id="link_NormalizedMetadata_AverageNormalizedChannelMetadata"><path d="M1076.6902,527.2531 C1091.1302,535.6931 1091.49,535.48 1106.5,543 C1157.6,568.59 1217.63,593.6 1261.26,610.9 " fill="none" id="NormalizedMetadata-backto-AverageNormalizedChannelMetadata" style="stroke:#181818;stroke-width:1.0;stroke-dasharray:7.0,7.0;"/><polygon fill="none" points="1061.15,518.17,1073.6625,532.4331,1079.7179,522.073,1061.15,518.17" style="stroke:#181818;stroke-width:1.0;"/></g><!--reverse link IntervalChannelMetadata to IntervalNormalizedChannelMetadata--><g id="link_IntervalChannelMetadata_IntervalNormalizedChannelMetadata"><path d="M769.4494,533.1027 C750.8394,560.7527 734.11,585.58 717.27,610.59 " fill="none" id="IntervalChannelMetadata-backto-IntervalNormalizedChannelMetadata" style="stroke:#181818;stroke-width:1.0;"/><polygon fill="none" points="779.5,518.17,764.4719,529.7525,774.427,536.4529,779.5,518.17" style="stroke:#181818;stroke-width:1.0;"/></g><!--reverse link NormalizedMetadata to IntervalNormalizedChannelMetadata--><g id="link_NormalizedMetadata_IntervalNormalizedChannelMetadata"><path d="M943.6911,527.0965 C929.0911,535.5465 928.62,535.42 913.5,543 C862.83,568.39 803.41,593.51 760.38,610.91 " fill="none" id="NormalizedMetadata-backto-IntervalNormalizedChannelMetadata" style="stroke:#181818;stroke-width:1.0;stroke-dasharray:7.0,7.0;"/><polygon fill="none" points="959.27,518.08,940.6856,521.9036,946.6966,532.2895,959.27,518.08" style="stroke:#181818;stroke-width:1.0;"/></g><!--reverse link ArrayChannelMetadata to MCAChannelMetadata--><g id="link_ArrayChannelMetadata_MCAChannelMetadata"><path d="M342.3145,526.8755 C353.9245,554.4055 366.13,583.34 377.72,610.82 " fill="none" id="ArrayChannelMetadata-backto-MCAChannelMetadata" style="stroke:#181818;stroke-width:1.0;"/><polygon fill="none" points="335.32,510.29,336.786,529.2069,347.8429,524.544,335.32,510.29" style="stroke:#181818;stroke-width:1.0;"/></g><!--reverse link ArrayChannelMetadata to ScopeChannelMetadata--><g id="link_ArrayChannelMetadata_ScopeChannelMetadata"><path d="M288.6744,522.848 C260.4044,550.378 226.54,583.34 198.31,610.82 " fill="none" id="ArrayChannelMetadata-backto-ScopeChannelMetadata" style="stroke:#181818;stroke-width:1.0;"/><polygon fill="none" points="301.57,510.29,284.4884,518.5495,292.8604,527.1466,301.57,510.29" style="stroke:#181818;stroke-width:1.0;"/></g><!--reverse link AreaChannelMetadata to SampleCameraMetadata--><g id="link_AreaChannelMetadata_SampleCameraMetadata"><path d="M1721.2037,528.0542 C1725.7037,555.5842 1730.23,583.34 1734.71,610.82 " fill="none" id="AreaChannelMetadata-backto-SampleCameraMetadata" style="stroke:#181818;stroke-width:1.0;"/><polygon fill="none" points="1718.3,510.29,1715.2823,529.0222,1727.1251,527.0863,1718.3,510.29" style="stroke:#181818;stroke-width:1.0;"/></g><!--reverse link AreaChannelMetadata to ScientificCameraMetadata--><g id="link_AreaChannelMetadata_ScientificCameraMetadata"><path d="M1769.6984,519.1991 C1816.8284,546.6891 1879.46,583.22 1926.66,610.76 " fill="none" id="AreaChannelMetadata-backto-ScientificCameraMetadata" style="stroke:#181818;stroke-width:1.0;"/><polygon fill="none" points="1754.15,510.13,1766.6754,524.3819,1772.7214,514.0163,1754.15,510.13" style="stroke:#181818;stroke-width:1.0;"/></g><!--SRC=[hLPBZzem4BxxLrXSAbMx-mCuL49mwO5j9VRMLj5WJnAtVaIsURNQ_rxR2II4P4chHUB0p7pVVFFm22R1ERf63nmyq3-4Xey6XNHEdRT25ybYAY-CTi781VFabMZZaLfHb9wQ_8AVpvl017efCOJdELhK3EaM_G5Hqzci2PhDQ1byLEXM06X-5H1ygqYS2ByqAXeZtOCzqIeeqLw0b2UQ6qiHM4aJLsM4zWyXHymEDdujdDn3uZgKGkAbhYi98T8na62J6cxq1qzP2Rh0b03gv6Rx4vb_8XXYOZS8OQcNgxgFJOksndkZvdI3iHTGM52HvBjEgPJXEubFX0IXQ7C8EXVRq7PWVeLxmR0t6C6lnrBjhty3O-XS5cWxytizAriZk9rjEV4OEiTlfh_JmW-XJR0REuuMgfAemYpSU14Njfwd9RkMU9-pIxeu2lS-bB4F785lumRCQIuD-3RFCYo3HldEwb-4GkT1LNTvEw1de_LEeHLiiFYkaP0sk5_1uxTIS8xwnwT5V2CzDnaoTZ1qOH7wc1k1OrthsplLRS86IlmQt_5aTBiDUxHGuFIqwVHbKCFYhOklia2R7D8SCYbKUXhrEaIhWcC6tgEgV1yGNJnC6-A5kTsXpIznE-WHoRKqLbi7dkRdU3ts8F-jr41I1B6PQD2t6WV7Fc5i0-lmDgpTgSUFwO1sB-ApiGga-8syFwkp8-lUnQ7bQId6PBsnQPrNF2Ibls_tSurCUMgUyxJl9nhRYwcPril5Q0r3P-BSU6Og_2yWH67ByE_3mW1mzCPic8X_0V9mOwPZ_m80]--></g></svg>