<?xml version="1.0" encoding="us-ascii" standalone="no"?><svg xmlns="http://www.w3.org/2000/svg" xmlns:xlink="http://www.w3.org/1999/xlink" contentStyleType="text/css" height="379.8px" preserveAspectRatio="none" style="width:544px;height:379px;background:#FFFFFF;" version="1.1" viewBox="0 0 544 379" width="544.8px" zoomAndPan="magnify"><defs/><g><!--class EveData--><g id="elem_EveData"><rect codeLine="3" fill="#F1F1F1" height="48.4875" id="EveData" rx="1.5" ry="1.5" style="stroke:#181818;stroke-width:0.3;" width="99" x="198" y="4.2"/><ellipse cx="229.35" cy="13.8" fill="#ADD1B2" rx="6.6" ry="6.6" style="stroke:#181818;stroke-width:0.6;"/><path d="M229.3781,17.5219 C230.2781,17.5219 231.0187,17.1844 231.5625,16.5469 L230.7375,15.6375 C230.4094,15.9937 230.0156,16.2281 229.5375,16.2281 C228.5344,16.2281 227.8406,15.4312 227.8406,14.0625 C227.8406,12.7313 228.5344,11.925 229.4719,11.925 C229.9594,11.925 230.3156,12.1125 230.6344,12.4031 L231.4594,11.475 C231.0094,11.0344 230.3156,10.6313 229.4719,10.6313 C227.7,10.6313 226.3031,11.9156 226.3031,14.1188 C226.3031,16.35 227.7281,17.5219 229.3781,17.5219 Z " fill="#000000"/><text fill="#000000" font-family="sans-serif" font-size="8.4" lengthAdjust="spacing" textLength="31.2" x="241.65" y="16.6711">EveData</text><line style="stroke:#181818;stroke-width:0.3;" x1="198.6" x2="296.4" y1="23.4" y2="23.4"/><text fill="#000000" font-family="sans-serif" font-size="8.4" lengthAdjust="spacing" textLength="91.8" x="201.6" y="33.593">metadata : EveMetadata</text><text fill="#000000" font-family="sans-serif" font-size="8.4" lengthAdjust="spacing" textLength="70.8" x="201.6" y="43.4367">values : np.ndarray</text><line style="stroke:#181818;stroke-width:0.3;" x1="198.6" x2="296.4" y1="47.8875" y2="47.8875"/></g><path d="M26.4,4.2 L26.4,46.7625 A0,0 0 0 0 26.4,46.7625 L177,46.7625 A0,0 0 0 0 177,46.7625 L177,27.8812 L200.4,40.5656 L177,23.0813 L177,10.2 L171,4.2 L26.4,4.2 A0,0 0 0 0 26.4,4.2 " fill="#FEFFDD" style="stroke:#181818;stroke-width:0.3;"/><path d="M171,4.2 L171,10.2 L177,10.2 L171,4.2 " fill="#FEFFDD" style="stroke:#181818;stroke-width:0.3;"/><text fill="#000000" font-family="sans-serif" font-size="7.8" lengthAdjust="spacing" textLength="96" x="30" y="14.4363">"values" contains a 1D array.</text><text fill="#000000" font-family="sans-serif" font-size="7.8" lengthAdjust="spacing" textLength="138" x="30" y="23.577">For individual values see derived classes</text><text fill="#000000" font-family="sans-serif" font-size="7.8" lengthAdjust="spacing" textLength="99.6" x="30" y="32.7176">EveAverageDetectorData and</text><text fill="#000000" font-family="sans-serif" font-size="7.8" lengthAdjust="spacing" textLength="82.8" x="30" y="41.8582">EveIntervalDetectorData</text><!--class EveMetadata--><g id="elem_EveMetadata"><rect codeLine="14" fill="#F1F1F1" height="28.8" id="EveMetadata" rx="1.5" ry="1.5" style="stroke:#181818;stroke-width:0.3;" width="69" x="45.6" y="93.6"/><ellipse cx="54.6" cy="103.2" fill="#ADD1B2" rx="6.6" ry="6.6" style="stroke:#181818;stroke-width:0.6;"/><path d="M54.6281,106.9219 C55.5281,106.9219 56.2688,106.5844 56.8125,105.9469 L55.9875,105.0375 C55.6594,105.3938 55.2656,105.6281 54.7875,105.6281 C53.7844,105.6281 53.0906,104.8313 53.0906,103.4625 C53.0906,102.1313 53.7844,101.325 54.7219,101.325 C55.2094,101.325 55.5656,101.5125 55.8844,101.8031 L56.7094,100.875 C56.2594,100.4344 55.5656,100.0313 54.7219,100.0313 C52.95,100.0313 51.5531,101.3156 51.5531,103.5188 C51.5531,105.75 52.9781,106.9219 54.6281,106.9219 Z " fill="#000000"/><text fill="#000000" font-family="sans-serif" font-size="8.4" lengthAdjust="spacing" textLength="49.8" x="63" y="106.0711">EveMetadata</text><line style="stroke:#181818;stroke-width:0.3;" x1="46.2" x2="114" y1="112.8" y2="112.8"/><line style="stroke:#181818;stroke-width:0.3;" x1="46.2" x2="114" y1="117.6" y2="117.6"/></g><g id="elem_GMN6"><path d="M3.6,165.6 L3.6,189.8813 A0,0 0 0 0 3.6,189.8813 L90.6,189.8813 A0,0 0 0 0 90.6,189.8813 L90.6,171.6 L84.6,165.6 L55.074,165.6 L73.422,122.442 L50.274,165.6 L3.6,165.6 A0,0 0 0 0 3.6,165.6 " fill="#FEFFDD" style="stroke:#181818;stroke-width:0.3;"/><path d="M84.6,165.6 L84.6,171.6 L90.6,171.6 L84.6,165.6 " fill="#FEFFDD" style="stroke:#181818;stroke-width:0.3;"/><text fill="#000000" font-family="sans-serif" font-size="7.8" lengthAdjust="spacing" textLength="74.4" x="7.2" y="175.8363">See separate diagram</text><text fill="#000000" font-family="sans-serif" font-size="7.8" lengthAdjust="spacing" textLength="63" x="7.2" y="184.977">for class hierarchy</text></g><!--class EveMeasureData--><g id="elem_EveMeasureData"><rect codeLine="18" fill="#F1F1F1" height="38.6438" id="EveMeasureData" rx="1.5" ry="1.5" style="stroke:#181818;stroke-width:0.3;" width="157.8" x="168.6" y="88.8"/><ellipse cx="213.15" cy="98.4" fill="#ADD1B2" rx="6.6" ry="6.6" style="stroke:#181818;stroke-width:0.6;"/><path d="M213.1781,102.1219 C214.0781,102.1219 214.8188,101.7844 215.3625,101.1469 L214.5375,100.2375 C214.2094,100.5938 213.8156,100.8281 213.3375,100.8281 C212.3344,100.8281 211.6406,100.0313 211.6406,98.6625 C211.6406,97.3313 212.3344,96.525 213.2719,96.525 C213.7594,96.525 214.1156,96.7125 214.4344,97.0031 L215.2594,96.075 C214.8094,95.6344 214.1156,95.2313 213.2719,95.2313 C211.5,95.2313 210.1031,96.5156 210.1031,98.7188 C210.1031,100.95 211.5281,102.1219 213.1781,102.1219 Z " fill="#000000"/><text fill="#000000" font-family="sans-serif" font-size="8.4" lengthAdjust="spacing" textLength="63.6" x="225.45" y="101.2711">EveMeasureData</text><line style="stroke:#181818;stroke-width:0.3;" x1="169.2" x2="325.8" y1="108" y2="108"/><text fill="#000000" font-family="sans-serif" font-size="8.4" lengthAdjust="spacing" textLength="150.6" x="172.2" y="118.193">position_counter : np.ndarray(dtype=int)</text><line style="stroke:#181818;stroke-width:0.3;" x1="169.2" x2="325.8" y1="122.6438" y2="122.6438"/></g><!--class EveMonitorData--><g id="elem_EveMonitorData"><rect codeLine="22" fill="#F1F1F1" height="38.6438" id="EveMonitorData" rx="1.5" ry="1.5" style="stroke:#181818;stroke-width:0.3;" width="141" x="347.4" y="88.8"/><ellipse cx="385.05" cy="98.4" fill="#ADD1B2" rx="6.6" ry="6.6" style="stroke:#181818;stroke-width:0.6;"/><path d="M385.0781,102.1219 C385.9781,102.1219 386.7188,101.7844 387.2625,101.1469 L386.4375,100.2375 C386.1094,100.5938 385.7156,100.8281 385.2375,100.8281 C384.2344,100.8281 383.5406,100.0313 383.5406,98.6625 C383.5406,97.3313 384.2344,96.525 385.1719,96.525 C385.6594,96.525 386.0156,96.7125 386.3344,97.0031 L387.1594,96.075 C386.7094,95.6344 386.0156,95.2313 385.1719,95.2313 C383.4,95.2313 382.0031,96.5156 382.0031,98.7188 C382.0031,100.95 383.4281,102.1219 385.0781,102.1219 Z " fill="#000000"/><text fill="#000000" font-family="sans-serif" font-size="8.4" lengthAdjust="spacing" textLength="60.6" x="397.35" y="101.2711">EveMonitorData</text><line style="stroke:#181818;stroke-width:0.3;" x1="348" x2="487.8" y1="108" y2="108"/><text fill="#000000" font-family="sans-serif" font-size="8.4" lengthAdjust="spacing" textLength="133.8" x="351" y="118.193">milliseconds : np.ndarray(dtype=int)</text><line style="stroke:#181818;stroke-width:0.3;" x1="348" x2="487.8" y1="122.6438" y2="122.6438"/></g><!--class EveMotorData--><g id="elem_EveMotorData"><rect codeLine="26" fill="#F1F1F1" height="28.8" id="EveMotorData" rx="1.5" ry="1.5" style="stroke:#181818;stroke-width:0.3;" width="73.2" x="111.9" y="163.2"/><ellipse cx="120.9" cy="172.8" fill="#ADD1B2" rx="6.6" ry="6.6" style="stroke:#181818;stroke-width:0.6;"/><path d="M120.9281,176.5219 C121.8281,176.5219 122.5688,176.1844 123.1125,175.5469 L122.2875,174.6375 C121.9594,174.9938 121.5656,175.2281 121.0875,175.2281 C120.0844,175.2281 119.3906,174.4313 119.3906,173.0625 C119.3906,171.7313 120.0844,170.925 121.0219,170.925 C121.5094,170.925 121.8656,171.1125 122.1844,171.4031 L123.0094,170.475 C122.5594,170.0344 121.8656,169.6313 121.0219,169.6313 C119.25,169.6313 117.8531,170.9156 117.8531,173.1188 C117.8531,175.35 119.2781,176.5219 120.9281,176.5219 Z " fill="#000000"/><text fill="#000000" font-family="sans-serif" font-size="8.4" lengthAdjust="spacing" textLength="54" x="129.3" y="175.6711">EveMotorData</text><line style="stroke:#181818;stroke-width:0.3;" x1="112.5" x2="184.5" y1="182.4" y2="182.4"/><line style="stroke:#181818;stroke-width:0.3;" x1="112.5" x2="184.5" y1="187.2" y2="187.2"/></g><!--class EveDetectorData--><g id="elem_EveDetectorData"><rect codeLine="29" fill="#F1F1F1" height="28.8" id="EveDetectorData" rx="1.5" ry="1.5" style="stroke:#181818;stroke-width:0.3;" width="82.2" x="206.4" y="163.2"/><ellipse cx="215.4" cy="172.8" fill="#ADD1B2" rx="6.6" ry="6.6" style="stroke:#181818;stroke-width:0.6;"/><path d="M215.4281,176.5219 C216.3281,176.5219 217.0688,176.1844 217.6125,175.5469 L216.7875,174.6375 C216.4594,174.9938 216.0656,175.2281 215.5875,175.2281 C214.5844,175.2281 213.8906,174.4313 213.8906,173.0625 C213.8906,171.7313 214.5844,170.925 215.5219,170.925 C216.0094,170.925 216.3656,171.1125 216.6844,171.4031 L217.5094,170.475 C217.0594,170.0344 216.3656,169.6313 215.5219,169.6313 C213.75,169.6313 212.3531,170.9156 212.3531,173.1188 C212.3531,175.35 213.7781,176.5219 215.4281,176.5219 Z " fill="#000000"/><text fill="#000000" font-family="sans-serif" font-size="8.4" lengthAdjust="spacing" textLength="63" x="223.8" y="175.6711">EveDetectorData</text><line style="stroke:#181818;stroke-width:0.3;" x1="207" x2="288" y1="182.4" y2="182.4"/><line style="stroke:#181818;stroke-width:0.3;" x1="207" x2="288" y1="187.2" y2="187.2"/></g><!--class EveTimestampData--><g id="elem_EveTimestampData"><rect codeLine="32" fill="#F1F1F1" height="28.8" id="EveTimestampData" rx="1.5" ry="1.5" style="stroke:#181818;stroke-width:0.3;" width="92.4" x="309.9" y="163.2"/><ellipse cx="318.9" cy="172.8" fill="#ADD1B2" rx="6.6" ry="6.6" style="stroke:#181818;stroke-width:0.6;"/><path d="M318.9281,176.5219 C319.8281,176.5219 320.5687,176.1844 321.1125,175.5469 L320.2875,174.6375 C319.9594,174.9938 319.5656,175.2281 319.0875,175.2281 C318.0844,175.2281 317.3906,174.4313 317.3906,173.0625 C317.3906,171.7313 318.0844,170.925 319.0219,170.925 C319.5094,170.925 319.8656,171.1125 320.1844,171.4031 L321.0094,170.475 C320.5594,170.0344 319.8656,169.6313 319.0219,169.6313 C317.25,169.6313 315.8531,170.9156 315.8531,173.1188 C315.8531,175.35 317.2781,176.5219 318.9281,176.5219 Z " fill="#000000"/><text fill="#000000" font-family="sans-serif" font-size="8.4" lengthAdjust="spacing" textLength="73.2" x="327.3" y="175.6711">EveTimestampData</text><line style="stroke:#181818;stroke-width:0.3;" x1="310.5" x2="401.7" y1="182.4" y2="182.4"/><line style="stroke:#181818;stroke-width:0.3;" x1="310.5" x2="401.7" y1="187.2" y2="187.2"/></g><!--class EveScanModuleData--><g id="elem_EveScanModuleData"><rect codeLine="35" fill="#F1F1F1" height="28.8" id="EveScanModuleData" rx="1.5" ry="1.5" style="stroke:#181818;stroke-width:0.3;" width="96.6" x="423.6" y="163.2"/><ellipse cx="432.6" cy="172.8" fill="#ADD1B2" rx="6.6" ry="6.6" style="stroke:#181818;stroke-width:0.6;"/><path d="M432.6281,176.5219 C433.5281,176.5219 434.2688,176.1844 434.8125,175.5469 L433.9875,174.6375 C433.6594,174.9938 433.2656,175.2281 432.7875,175.2281 C431.7844,175.2281 431.0906,174.4313 431.0906,173.0625 C431.0906,171.7313 431.7844,170.925 432.7219,170.925 C433.2094,170.925 433.5656,171.1125 433.8844,171.4031 L434.7094,170.475 C434.2594,170.0344 433.5656,169.6313 432.7219,169.6313 C430.95,169.6313 429.5531,170.9156 429.5531,173.1188 C429.5531,175.35 430.9781,176.5219 432.6281,176.5219 Z " fill="#000000"/><text fill="#000000" font-family="sans-serif" font-size="8.4" lengthAdjust="spacing" textLength="77.4" x="441" y="175.6711">EveScanModuleData</text><line style="stroke:#181818;stroke-width:0.3;" x1="424.2" x2="519.6" y1="182.4" y2="182.4"/><line style="stroke:#181818;stroke-width:0.3;" x1="424.2" x2="519.6" y1="187.2" y2="187.2"/></g><g id="elem_GMN15"><path d="M402.9,246 L402.9,297.7031 A0,0 0 0 0 402.9,297.7031 L540.9,297.7031 A0,0 0 0 0 540.9,297.7031 L540.9,252 L534.9,246 L474.3,246 L471.9,192.126 L469.5,246 L402.9,246 A0,0 0 0 0 402.9,246 " fill="#FEFFDD" style="stroke:#181818;stroke-width:0.3;"/><path d="M534.9,246 L534.9,252 L540.9,252 L534.9,246 " fill="#FEFFDD" style="stroke:#181818;stroke-width:0.3;"/><text fill="#000000" font-family="sans-serif" font-size="7.8" lengthAdjust="spacing" textLength="111.6" x="406.5" y="256.2363">The corresponding dataset in the</text><text fill="#000000" font-family="sans-serif" font-size="7.8" lengthAdjust="spacing" textLength="97.2" x="406.5" y="265.377">eveH5 file does not exist yet.</text><text fill="#000000" font-family="sans-serif" font-size="7.8" lengthAdjust="spacing" textLength="1.8" x="406.5" y="274.5176">&#160;</text><text fill="#000000" font-family="sans-serif" font-size="7.8" lengthAdjust="spacing" textLength="106.8" x="406.5" y="283.6582">The idea is to store the id of the</text><text fill="#000000" font-family="sans-serif" font-size="7.8" lengthAdjust="spacing" textLength="125.4" x="406.5" y="292.7988">scan module for each position count.</text></g><!--class EveAverageDetectorData--><g id="elem_EveAverageDetectorData"><rect codeLine="45" fill="#F1F1F1" height="87.8625" id="EveAverageDetectorData" rx="1.5" ry="1.5" style="stroke:#181818;stroke-width:0.3;" width="129.6" x="72.9" y="228"/><ellipse cx="89.46" cy="237.6" fill="#ADD1B2" rx="6.6" ry="6.6" style="stroke:#181818;stroke-width:0.6;"/><path d="M89.4881,241.3219 C90.3881,241.3219 91.1288,240.9844 91.6725,240.3469 L90.8475,239.4375 C90.5194,239.7938 90.1256,240.0281 89.6475,240.0281 C88.6444,240.0281 87.9506,239.2313 87.9506,237.8625 C87.9506,236.5313 88.6444,235.725 89.5819,235.725 C90.0694,235.725 90.4256,235.9125 90.7444,236.2031 L91.5694,235.275 C91.1194,234.8344 90.4256,234.4312 89.5819,234.4312 C87.81,234.4312 86.4131,235.7156 86.4131,237.9188 C86.4131,240.15 87.8381,241.3219 89.4881,241.3219 Z " fill="#000000"/><text fill="#000000" font-family="sans-serif" font-size="8.4" lengthAdjust="spacing" textLength="93.6" x="99.54" y="240.4711">EveAverageDetectorData</text><line style="stroke:#181818;stroke-width:0.3;" x1="73.5" x2="201.9" y1="247.2" y2="247.2"/><text fill="#000000" font-family="sans-serif" font-size="8.4" lengthAdjust="spacing" textLength="93.6" x="76.5" y="257.393">raw_values : raggedarray</text><text fill="#000000" font-family="sans-serif" font-size="8.4" lengthAdjust="spacing" textLength="122.4" x="76.5" y="267.2367">attempts : np.ndarray(dtype=int)</text><line style="stroke:#181818;stroke-width:0.3;" x1="73.5" x2="201.9" y1="271.6875" y2="271.6875"/><text fill="#000000" font-family="sans-serif" font-size="8.4" lengthAdjust="spacing" textLength="27" x="76.5" y="281.8805">mean()</text><text fill="#000000" font-family="sans-serif" font-size="8.4" lengthAdjust="spacing" textLength="18" x="76.5" y="291.7242">std()</text><text fill="#000000" font-family="sans-serif" font-size="8.4" lengthAdjust="spacing" textLength="68.4" x="76.5" y="301.568">averaged_values()</text><text fill="#000000" font-family="sans-serif" font-size="8.4" lengthAdjust="spacing" textLength="65.4" x="76.5" y="311.4117">has_raw_values()</text></g><g id="elem_GMN19"><path d="M24.6,351.6 L24.6,375.8812 A0,0 0 0 0 24.6,375.8812 L118.8,375.8812 A0,0 0 0 0 118.8,375.8812 L118.8,357.6 L112.8,351.6 L82.464,351.6 L106.056,315.84 L77.664,351.6 L24.6,351.6 A0,0 0 0 0 24.6,351.6 " fill="#FEFFDD" style="stroke:#181818;stroke-width:0.3;"/><path d="M112.8,351.6 L112.8,357.6 L118.8,357.6 L112.8,351.6 " fill="#FEFFDD" style="stroke:#181818;stroke-width:0.3;"/><text fill="#000000" font-family="sans-serif" font-size="7.8" lengthAdjust="spacing" textLength="81" x="28.2" y="361.8363">How does mean() differ</text><text fill="#000000" font-family="sans-serif" font-size="7.8" lengthAdjust="spacing" textLength="81.6" x="28.2" y="370.977">from values in EveData?</text></g><g id="elem_GMN22"><path d="M139.8,351.6 L139.8,375.8812 A0,0 0 0 0 139.8,375.8812 L267.6,375.8812 A0,0 0 0 0 267.6,375.8812 L267.6,357.6 L261.6,351.6 L197.736,351.6 L169.344,315.84 L192.936,351.6 L139.8,351.6 A0,0 0 0 0 139.8,351.6 " fill="#FEFFDD" style="stroke:#181818;stroke-width:0.3;"/><path d="M261.6,351.6 L261.6,357.6 L267.6,357.6 L261.6,351.6 " fill="#FEFFDD" style="stroke:#181818;stroke-width:0.3;"/><text fill="#000000" font-family="sans-serif" font-size="7.8" lengthAdjust="spacing" textLength="103.8" x="143.4" y="361.8363">averaged_values() returns only</text><text fill="#000000" font-family="sans-serif" font-size="7.8" lengthAdjust="spacing" textLength="115.2" x="143.4" y="370.977">those values used to average over</text></g><!--class EveIntervalDetectorData--><g id="elem_EveIntervalDetectorData"><rect codeLine="56" fill="#F1F1F1" height="78.0188" id="EveIntervalDetectorData" rx="1.5" ry="1.5" style="stroke:#181818;stroke-width:0.3;" width="121.2" x="223.5" y="232.8"/><ellipse cx="237.36" cy="242.4" fill="#ADD1B2" rx="6.6" ry="6.6" style="stroke:#181818;stroke-width:0.6;"/><path d="M237.3881,246.1219 C238.2881,246.1219 239.0288,245.7844 239.5725,245.1469 L238.7475,244.2375 C238.4194,244.5938 238.0256,244.8281 237.5475,244.8281 C236.5444,244.8281 235.8506,244.0313 235.8506,242.6625 C235.8506,241.3312 236.5444,240.525 237.4819,240.525 C237.9694,240.525 238.3256,240.7125 238.6444,241.0031 L239.4694,240.075 C239.0194,239.6344 238.3256,239.2313 237.4819,239.2313 C235.71,239.2313 234.3131,240.5156 234.3131,242.7188 C234.3131,244.95 235.7381,246.1219 237.3881,246.1219 Z " fill="#000000"/><text fill="#000000" font-family="sans-serif" font-size="8.4" lengthAdjust="spacing" textLength="91.2" x="246.84" y="245.2711">EveIntervalDetectorData</text><line style="stroke:#181818;stroke-width:0.3;" x1="224.1" x2="344.1" y1="252" y2="252"/><text fill="#000000" font-family="sans-serif" font-size="8.4" lengthAdjust="spacing" textLength="93.6" x="227.1" y="262.193">raw_values : raggedarray</text><text fill="#000000" font-family="sans-serif" font-size="8.4" lengthAdjust="spacing" textLength="114" x="227.1" y="272.0367">counts : np.ndarray(dtype=int)</text><line style="stroke:#181818;stroke-width:0.3;" x1="224.1" x2="344.1" y1="276.4875" y2="276.4875"/><text fill="#000000" font-family="sans-serif" font-size="8.4" lengthAdjust="spacing" textLength="27" x="227.1" y="286.6805">mean()</text><text fill="#000000" font-family="sans-serif" font-size="8.4" lengthAdjust="spacing" textLength="18" x="227.1" y="296.5242">std()</text><text fill="#000000" font-family="sans-serif" font-size="8.4" lengthAdjust="spacing" textLength="65.4" x="227.1" y="306.368">has_raw_values()</text></g><!--reverse link EveData to EveMetadata--><g id="link_EveData_EveMetadata"><path codeLine="64" d="M191.4307,55.3236 C162.7987,68.7216 134.25,82.074 109.842,93.486 " fill="none" id="EveData-backto-EveMetadata" style="stroke:#181818;stroke-width:0.6;"/><polygon fill="#181818" points="197.952,52.272,193.6741,51.624,191.4307,55.3236,195.7085,55.9716,197.952,52.272" style="stroke:#181818;stroke-width:0.6;"/></g><!--reverse link EveData to EveMeasureData--><g id="link_EveData_EveMeasureData"><path codeLine="65" d="M247.5,63.606 C247.5,75.126 247.5,77.976 247.5,88.746 " fill="none" id="EveData-backto-EveMeasureData" style="stroke:#181818;stroke-width:0.6;"/><polygon fill="none" points="247.5,52.806,243.9,63.606,251.1,63.606,247.5,52.806" style="stroke:#181818;stroke-width:0.6;"/></g><!--reverse link EveData to EveMonitorData--><g id="link_EveData_EveMonitorData"><path codeLine="66" d="M306.8313,56.3618 C332.2773,68.0558 353.1,77.622 377.166,88.68 " fill="none" id="EveData-backto-EveMonitorData" style="stroke:#181818;stroke-width:0.6;"/><polygon fill="none" points="297.018,51.852,305.3281,59.6329,308.3346,53.0907,297.018,51.852" style="stroke:#181818;stroke-width:0.6;"/></g><!--reverse link EveMeasureData to EveMotorData--><g id="link_EveMeasureData_EveMotorData"><path codeLine="67" d="M211.5613,133.4302 C195.1873,144.7462 183.546,152.79 168.606,163.104 " fill="none" id="EveMeasureData-backto-EveMotorData" style="stroke:#181818;stroke-width:0.6;"/><polygon fill="none" points="220.446,127.29,209.5146,130.4686,213.608,136.3918,220.446,127.29" style="stroke:#181818;stroke-width:0.6;"/></g><!--reverse link EveMeasureData to EveDetectorData--><g id="link_EveMeasureData_EveDetectorData"><path codeLine="68" d="M247.5,138.09 C247.5,149.406 247.5,152.79 247.5,163.104 " fill="none" id="EveMeasureData-backto-EveDetectorData" style="stroke:#181818;stroke-width:0.6;"/><polygon fill="none" points="247.5,127.29,243.9,138.09,251.1,138.09,247.5,127.29" style="stroke:#181818;stroke-width:0.6;"/></g><!--reverse link EveMeasureData to EveTimestampData--><g id="link_EveMeasureData_EveTimestampData"><path codeLine="69" d="M286.3132,133.0477 C304.2712,144.3637 317.658,152.79 334.044,163.104 " fill="none" id="EveMeasureData-backto-EveTimestampData" style="stroke:#181818;stroke-width:0.6;"/><polygon fill="none" points="277.176,127.29,284.394,136.0934,288.2325,130.002,277.176,127.29" style="stroke:#181818;stroke-width:0.6;"/></g><!--reverse link EveMeasureData to EveScanModuleData--><g id="link_EveMeasureData_EveScanModuleData"><path codeLine="70" d="M318.8509,130.3485 C356.0989,141.7005 392.592,152.826 426.558,163.176 " fill="none" id="EveMeasureData-backto-EveScanModuleData" style="stroke:#181818;stroke-width:0.6;"/><polygon fill="none" points="308.52,127.2,317.8014,133.7921,319.9004,126.9049,308.52,127.2" style="stroke:#181818;stroke-width:0.6;"/></g><!--reverse link EveDetectorData to EveAverageDetectorData--><g id="link_EveDetectorData_EveAverageDetectorData"><path codeLine="71" d="M222.8194,199.1069 C211.5154,208.6829 204.072,214.98 188.79,227.928 " fill="none" id="EveDetectorData-backto-EveAverageDetectorData" style="stroke:#181818;stroke-width:0.6;"/><polygon fill="none" points="231.06,192.126,220.4925,196.36,225.1464,201.8537,231.06,192.126" style="stroke:#181818;stroke-width:0.6;"/></g><!--reverse link EveDetectorData to EveIntervalDetectorData--><g id="link_EveDetectorData_EveIntervalDetectorData"><path codeLine="72" d="M256.9357,202.1747 C261.1657,212.9147 263.268,218.268 268.92,232.632 " fill="none" id="EveDetectorData-backto-EveIntervalDetectorData" style="stroke:#181818;stroke-width:0.6;"/><polygon fill="none" points="252.978,192.126,253.5862,203.4939,260.2853,200.8555,252.978,192.126" style="stroke:#181818;stroke-width:0.6;"/></g><!--SRC=[dLHDRzim3BtxLn2zB1tGO3tqOcme1cH3T-YfFHO8E8kEYTcI8T7kWgx_VVI74Zjri8zS8elKuzCZdzw57snhz5Y1gHckRpuaILPY2F2bfGqAmai2-gj8q7IVQHUu7x_wK8jbGq43jbvRWzxZFdbDh1E2ad81bqUiD1ro-sCNm_e2CcS5sGP0kDv0VtxTPtnr7jWQRjaqMCOwWGWCUMx9GCzqnDCQdrlokACD2MNYV4yVhOdXRrR8Ayeqdf0rq76TN3lUJgy-tkEx4t5L2WzQEr0dbsuQnftgzcHpvJaSBbW9-ApOpz0mD7wgvKlEL9fNg5rWOMUtcMiwQZC9LqRsDNrYAvVAOWBdBCUxpU4gBaiEf7AQy9TGHw3f_ao_UUYHAmg2LRqGUyZGtZlJbBHP4A-d-bYGjjjx2hMoPBk3JkT0edq6AQXFefRkRY3dKYLssd050Vh9GM1FiauEG6m8WGE8Ww1igGFGpMxU8bHGIb3rdA3h4c5M76I7NlRrqWGi3T8WjiVdxM7WDMT7uyHFEu4YLDLolWk3ez2kXcKGCwvmA6p66kDkWM5xBBowF1tBE_SyI3LWwcJcENaTJE-gQ1iLU7JXxVJmwCw52wTloO0dQRmwrTbo_sIbS84YVXFKZzgAyH0u_PyekkIzVv6qxzL_2BeWNH9VjlTNLxF7BEv__1K31-U-ZHrjc9oO_9ZoXuJPEtGcPsQuSqbpvoMd5evf2qq-cxluLlu6]--></g></svg>