<?xml version="1.0" encoding="us-ascii" standalone="no"?><svg xmlns="http://www.w3.org/2000/svg" xmlns:xlink="http://www.w3.org/1999/xlink" contentStyleType="text/css" height="1416px" preserveAspectRatio="none" style="width:1761px;height:1416px;background:#FFFFFF;" version="1.1" viewBox="0 0 1761 1416" width="1761px" zoomAndPan="magnify"><defs/><g><!--class Scan--><g id="elem_Scan"><rect codeLine="3" fill="#F1F1F1" height="259.8594" id="Scan" rx="2.5" ry="2.5" style="stroke:#181818;stroke-width:0.5;" width="261" x="1158.5" y="7"/><ellipse cx="1267.25" cy="23" fill="#ADD1B2" rx="11" ry="11" style="stroke:#181818;stroke-width:1.0;"/><path d="M1270.2188,28.6406 Q1269.6406,28.9375 1269,29.0781 Q1268.3594,29.2344 1267.6563,29.2344 Q1265.1563,29.2344 1263.8281,27.5938 Q1262.5156,25.9375 1262.5156,22.8125 Q1262.5156,19.6875 1263.8281,18.0313 Q1265.1563,16.375 1267.6563,16.375 Q1268.3594,16.375 1269,16.5313 Q1269.6563,16.6875 1270.2188,16.9844 L1270.2188,19.7031 Q1269.5938,19.125 1269,18.8594 Q1268.4063,18.5781 1267.7813,18.5781 Q1266.4375,18.5781 1265.75,19.6563 Q1265.0625,20.7188 1265.0625,22.8125 Q1265.0625,24.9063 1265.75,25.9844 Q1266.4375,27.0469 1267.7813,27.0469 Q1268.4063,27.0469 1269,26.7813 Q1269.5938,26.5 1270.2188,25.9219 L1270.2188,28.6406 Z " fill="#000000"/><text fill="#000000" font-family="sans-serif" font-size="14" lengthAdjust="spacing" textLength="35" x="1287.75" y="27.8467">Scan</text><line style="stroke:#181818;stroke-width:0.5;" x1="1159.5" x2="1418.5" y1="39" y2="39"/><text fill="#000000" font-family="sans-serif" font-size="14" lengthAdjust="spacing" textLength="151" x="1164.5" y="55.9951">repeatcount : integer</text><text fill="#000000" font-family="sans-serif" font-size="14" lengthAdjust="spacing" textLength="132" x="1164.5" y="72.292">description : string</text><text fill="#000000" font-family="sans-serif" font-size="14" lengthAdjust="spacing" textLength="121" x="1164.5" y="88.5889">comment : string</text><text fill="#000000" font-family="sans-serif" font-size="14" lengthAdjust="spacing" textLength="149" x="1164.5" y="104.8857">savefilename : string</text><text fill="#000000" font-family="sans-serif" font-size="14" lengthAdjust="spacing" textLength="159" x="1164.5" y="121.1826">confirmsave : boolean</text><text fill="#000000" font-family="sans-serif" font-size="14" lengthAdjust="spacing" textLength="161" x="1164.5" y="137.4795">saveplugin : Controller</text><text fill="#000000" font-family="sans-serif" font-size="14" lengthAdjust="spacing" textLength="171" x="1164.5" y="153.7764">monitoroptions : string[]</text><text fill="#000000" font-family="sans-serif" font-size="14" lengthAdjust="spacing" textLength="125" x="1164.5" y="170.0732">startevent : Event</text><text fill="#000000" font-family="sans-serif" font-size="14" lengthAdjust="spacing" textLength="143" x="1164.5" y="186.3701">redoevents : Event[]</text><text fill="#000000" font-family="sans-serif" font-size="14" lengthAdjust="spacing" textLength="151" x="1164.5" y="202.667">breakevents : Event[]</text><text fill="#000000" font-family="sans-serif" font-size="14" lengthAdjust="spacing" textLength="140" x="1164.5" y="218.9639">stopevents : Event[]</text><text fill="#000000" font-family="sans-serif" font-size="14" lengthAdjust="spacing" textLength="249" x="1164.5" y="235.2607">pauseconditions : PauseCondition[]</text><text fill="#000000" font-family="sans-serif" font-size="14" lengthAdjust="spacing" textLength="204" x="1164.5" y="251.5576">scanmodules : ScanModule[]</text><line style="stroke:#181818;stroke-width:0.5;" x1="1159.5" x2="1418.5" y1="258.8594" y2="258.8594"/></g><!--class Controller--><g id="elem_Controller"><rect codeLine="43" fill="#F1F1F1" height="80.5938" id="Controller" rx="2.5" ry="2.5" style="stroke:#181818;stroke-width:0.5;" width="186" x="7" y="1155.5"/><ellipse cx="60.25" cy="1171.5" fill="#ADD1B2" rx="11" ry="11" style="stroke:#181818;stroke-width:1.0;"/><path d="M63.2188,1177.1406 Q62.6406,1177.4375 62,1177.5781 Q61.3594,1177.7344 60.6563,1177.7344 Q58.1563,1177.7344 56.8281,1176.0938 Q55.5156,1174.4375 55.5156,1171.3125 Q55.5156,1168.1875 56.8281,1166.5313 Q58.1563,1164.875 60.6563,1164.875 Q61.3594,1164.875 62,1165.0313 Q62.6563,1165.1875 63.2188,1165.4844 L63.2188,1168.2031 Q62.5938,1167.625 62,1167.3594 Q61.4063,1167.0781 60.7813,1167.0781 Q59.4375,1167.0781 58.75,1168.1563 Q58.0625,1169.2188 58.0625,1171.3125 Q58.0625,1173.4063 58.75,1174.4844 Q59.4375,1175.5469 60.7813,1175.5469 Q61.4063,1175.5469 62,1175.2813 Q62.5938,1175 63.2188,1174.4219 L63.2188,1177.1406 Z " fill="#000000"/><text fill="#000000" font-family="sans-serif" font-size="14" lengthAdjust="spacing" textLength="71" x="80.75" y="1176.3467">Controller</text><line style="stroke:#181818;stroke-width:0.5;" x1="8" x2="192" y1="1187.5" y2="1187.5"/><text fill="#000000" font-family="sans-serif" font-size="14" lengthAdjust="spacing" textLength="174" x="13" y="1204.4951">parameter : Parameter[]</text><text fill="#000000" font-family="sans-serif" font-size="14" lengthAdjust="spacing" textLength="94" x="13" y="1220.792">name : string</text><line style="stroke:#181818;stroke-width:0.5;" x1="8" x2="192" y1="1228.0938" y2="1228.0938"/></g><!--class ScanModule--><g id="elem_ScanModule"><rect codeLine="28" fill="#F1F1F1" height="162.0781" id="ScanModule" rx="2.5" ry="2.5" style="stroke:#181818;stroke-width:0.5;" width="148" x="842" y="327"/><ellipse cx="870.05" cy="343" fill="#ADD1B2" rx="11" ry="11" style="stroke:#181818;stroke-width:1.0;"/><path d="M873.0188,348.6406 Q872.4406,348.9375 871.8,349.0781 Q871.1594,349.2344 870.4563,349.2344 Q867.9563,349.2344 866.6281,347.5938 Q865.3156,345.9375 865.3156,342.8125 Q865.3156,339.6875 866.6281,338.0313 Q867.9563,336.375 870.4563,336.375 Q871.1594,336.375 871.8,336.5313 Q872.4563,336.6875 873.0188,336.9844 L873.0188,339.7031 Q872.3938,339.125 871.8,338.8594 Q871.2063,338.5781 870.5813,338.5781 Q869.2375,338.5781 868.55,339.6563 Q867.8625,340.7188 867.8625,342.8125 Q867.8625,344.9063 868.55,345.9844 Q869.2375,347.0469 870.5813,347.0469 Q871.2063,347.0469 871.8,346.7813 Q872.3938,346.5 873.0188,345.9219 L873.0188,348.6406 Z " fill="#000000"/><text fill="#000000" font-family="sans-serif" font-size="14" lengthAdjust="spacing" textLength="87" x="886.95" y="347.8467">ScanModule</text><line style="stroke:#181818;stroke-width:0.5;" x1="843" x2="989" y1="359" y2="359"/><text fill="#000000" font-family="sans-serif" font-size="14" lengthAdjust="spacing" textLength="94" x="848" y="375.9951">name : string</text><text fill="#000000" font-family="sans-serif" font-size="14" lengthAdjust="spacing" textLength="97" x="848" y="392.292">xpos : integer</text><text fill="#000000" font-family="sans-serif" font-size="14" lengthAdjust="spacing" textLength="97" x="848" y="408.5889">ypos : integer</text><text fill="#000000" font-family="sans-serif" font-size="14" lengthAdjust="spacing" textLength="111" x="848" y="424.8857">parent : integer</text><text fill="#000000" font-family="sans-serif" font-size="14" lengthAdjust="spacing" textLength="112" x="848" y="441.1826">nested : integer</text><text fill="#000000" font-family="sans-serif" font-size="14" lengthAdjust="spacing" textLength="136" x="848" y="457.4795">appended : integer</text><text fill="#000000" font-family="sans-serif" font-size="14" lengthAdjust="spacing" textLength="77" x="848" y="473.7764">id : integer</text><line style="stroke:#181818;stroke-width:0.5;" x1="843" x2="989" y1="481.0781" y2="481.0781"/></g><!--class PauseCondition--><g id="elem_PauseCondition"><rect fill="#F1F1F1" height="48" id="PauseCondition" rx="2.5" ry="2.5" style="stroke:#181818;stroke-width:0.5;" width="142" x="1612" y="384"/><ellipse cx="1627" cy="400" fill="#ADD1B2" rx="11" ry="11" style="stroke:#181818;stroke-width:1.0;"/><path d="M1629.9688,405.6406 Q1629.3906,405.9375 1628.75,406.0781 Q1628.1094,406.2344 1627.4063,406.2344 Q1624.9063,406.2344 1623.5781,404.5938 Q1622.2656,402.9375 1622.2656,399.8125 Q1622.2656,396.6875 1623.5781,395.0313 Q1624.9063,393.375 1627.4063,393.375 Q1628.1094,393.375 1628.75,393.5313 Q1629.4063,393.6875 1629.9688,393.9844 L1629.9688,396.7031 Q1629.3438,396.125 1628.75,395.8594 Q1628.1563,395.5781 1627.5313,395.5781 Q1626.1875,395.5781 1625.5,396.6563 Q1624.8125,397.7188 1624.8125,399.8125 Q1624.8125,401.9063 1625.5,402.9844 Q1626.1875,404.0469 1627.5313,404.0469 Q1628.1563,404.0469 1628.75,403.7813 Q1629.3438,403.5 1629.9688,402.9219 L1629.9688,405.6406 Z " fill="#000000"/><text fill="#000000" font-family="sans-serif" font-size="14" lengthAdjust="spacing" textLength="110" x="1641" y="404.8467">PauseCondition</text><line style="stroke:#181818;stroke-width:0.5;" x1="1613" x2="1753" y1="416" y2="416"/><line style="stroke:#181818;stroke-width:0.5;" x1="1613" x2="1753" y1="424" y2="424"/></g><!--class Event--><g id="elem_Event"><rect fill="#F1F1F1" height="48" id="Event" rx="2.5" ry="2.5" style="stroke:#181818;stroke-width:0.5;" width="72" x="1523" y="1172"/><ellipse cx="1538" cy="1188" fill="#ADD1B2" rx="11" ry="11" style="stroke:#181818;stroke-width:1.0;"/><path d="M1540.9688,1193.6406 Q1540.3906,1193.9375 1539.75,1194.0781 Q1539.1094,1194.2344 1538.4063,1194.2344 Q1535.9063,1194.2344 1534.5781,1192.5938 Q1533.2656,1190.9375 1533.2656,1187.8125 Q1533.2656,1184.6875 1534.5781,1183.0313 Q1535.9063,1181.375 1538.4063,1181.375 Q1539.1094,1181.375 1539.75,1181.5313 Q1540.4063,1181.6875 1540.9688,1181.9844 L1540.9688,1184.7031 Q1540.3438,1184.125 1539.75,1183.8594 Q1539.1563,1183.5781 1538.5313,1183.5781 Q1537.1875,1183.5781 1536.5,1184.6563 Q1535.8125,1185.7188 1535.8125,1187.8125 Q1535.8125,1189.9063 1536.5,1190.9844 Q1537.1875,1192.0469 1538.5313,1192.0469 Q1539.1563,1192.0469 1539.75,1191.7813 Q1540.3438,1191.5 1540.9688,1190.9219 L1540.9688,1193.6406 Z " fill="#000000"/><text fill="#000000" font-family="sans-serif" font-size="14" lengthAdjust="spacing" textLength="40" x="1552" y="1192.8467">Event</text><line style="stroke:#181818;stroke-width:0.5;" x1="1524" x2="1594" y1="1204" y2="1204"/><line style="stroke:#181818;stroke-width:0.5;" x1="1524" x2="1594" y1="1212" y2="1212"/></g><g id="elem_GMN11"><path d="M1625.5,667 L1625.5,707.2656 A0,0 0 0 0 1625.5,707.2656 L1740.5,707.2656 A0,0 0 0 0 1740.5,707.2656 L1740.5,677 L1730.5,667 L1687,667 L1683,432.14 L1679,667 L1625.5,667 A0,0 0 0 0 1625.5,667 " fill="#FEFFDD" style="stroke:#181818;stroke-width:0.5;"/><path d="M1730.5,667 L1730.5,677 L1740.5,677 L1730.5,667 " fill="#FEFFDD" style="stroke:#181818;stroke-width:0.5;"/><text fill="#000000" font-family="sans-serif" font-size="13" lengthAdjust="spacing" textLength="85" x="1631.5" y="684.0669">See separate</text><text fill="#000000" font-family="sans-serif" font-size="13" lengthAdjust="spacing" textLength="94" x="1631.5" y="699.1997">event module.</text></g><!--class File--><g id="elem_File"><rect fill="#F1F1F1" height="48" id="File" rx="2.5" ry="2.5" style="stroke:#181818;stroke-width:0.5;" width="57" x="1066.5" y="113"/><ellipse cx="1081.5" cy="129" fill="#ADD1B2" rx="11" ry="11" style="stroke:#181818;stroke-width:1.0;"/><path d="M1084.4688,134.6406 Q1083.8906,134.9375 1083.25,135.0781 Q1082.6094,135.2344 1081.9063,135.2344 Q1079.4063,135.2344 1078.0781,133.5938 Q1076.7656,131.9375 1076.7656,128.8125 Q1076.7656,125.6875 1078.0781,124.0313 Q1079.4063,122.375 1081.9063,122.375 Q1082.6094,122.375 1083.25,122.5313 Q1083.9063,122.6875 1084.4688,122.9844 L1084.4688,125.7031 Q1083.8438,125.125 1083.25,124.8594 Q1082.6563,124.5781 1082.0313,124.5781 Q1080.6875,124.5781 1080,125.6563 Q1079.3125,126.7188 1079.3125,128.8125 Q1079.3125,130.9063 1080,131.9844 Q1080.6875,133.0469 1082.0313,133.0469 Q1082.6563,133.0469 1083.25,132.7813 Q1083.8438,132.5 1084.4688,131.9219 L1084.4688,134.6406 Z " fill="#000000"/><text fill="#000000" font-family="sans-serif" font-size="14" lengthAdjust="spacing" textLength="25" x="1095.5" y="133.8467">File</text><line style="stroke:#181818;stroke-width:0.5;" x1="1067.5" x2="1122.5" y1="145" y2="145"/><line style="stroke:#181818;stroke-width:0.5;" x1="1067.5" x2="1122.5" y1="153" y2="153"/></g><g id="elem_GMN16"><path d="M925,117 L925,157.2656 A0,0 0 0 0 925,157.2656 L1031,157.2656 A0,0 0 0 0 1031,157.2656 L1031,141 L1066.01,137 L1031,133 L1031,127 L1021,117 L925,117 A0,0 0 0 0 925,117 " fill="#FEFFDD" style="stroke:#181818;stroke-width:0.5;"/><path d="M1021,117 L1021,127 L1031,127 L1021,117 " fill="#FEFFDD" style="stroke:#181818;stroke-width:0.5;"/><text fill="#000000" font-family="sans-serif" font-size="13" lengthAdjust="spacing" textLength="85" x="931" y="134.0669">See separate</text><text fill="#000000" font-family="sans-serif" font-size="13" lengthAdjust="spacing" textLength="78" x="931" y="149.1997">file module.</text></g><!--class ClassicScanModule--><g id="elem_ClassicScanModule"><rect codeLine="67" fill="#F1F1F1" height="276.1563" id="ClassicScanModule" rx="2.5" ry="2.5" style="stroke:#181818;stroke-width:0.5;" width="243" x="914.5" y="549"/><ellipse cx="963.75" cy="565" fill="#ADD1B2" rx="11" ry="11" style="stroke:#181818;stroke-width:1.0;"/><path d="M966.7188,570.6406 Q966.1406,570.9375 965.5,571.0781 Q964.8594,571.2344 964.1563,571.2344 Q961.6563,571.2344 960.3281,569.5938 Q959.0156,567.9375 959.0156,564.8125 Q959.0156,561.6875 960.3281,560.0313 Q961.6563,558.375 964.1563,558.375 Q964.8594,558.375 965.5,558.5313 Q966.1563,558.6875 966.7188,558.9844 L966.7188,561.7031 Q966.0938,561.125 965.5,560.8594 Q964.9063,560.5781 964.2813,560.5781 Q962.9375,560.5781 962.25,561.6563 Q961.5625,562.7188 961.5625,564.8125 Q961.5625,566.9063 962.25,567.9844 Q962.9375,569.0469 964.2813,569.0469 Q964.9063,569.0469 965.5,568.7813 Q966.0938,568.5 966.7188,567.9219 L966.7188,570.6406 Z " fill="#000000"/><text fill="#000000" font-family="sans-serif" font-size="14" lengthAdjust="spacing" textLength="136" x="984.25" y="569.8467">ClassicScanModule</text><line style="stroke:#181818;stroke-width:0.5;" x1="915.5" x2="1156.5" y1="581" y2="581"/><text fill="#000000" font-family="sans-serif" font-size="14" lengthAdjust="spacing" textLength="143" x="920.5" y="597.9951">valuecount : integer</text><text fill="#000000" font-family="sans-serif" font-size="14" lengthAdjust="spacing" textLength="116" x="920.5" y="614.292">settletime : float</text><text fill="#000000" font-family="sans-serif" font-size="14" lengthAdjust="spacing" textLength="132" x="920.5" y="630.5889">triggerdelay : float</text><text fill="#000000" font-family="sans-serif" font-size="14" lengthAdjust="spacing" textLength="202" x="920.5" y="646.8857">triggerconfirmaxis : boolean</text><text fill="#000000" font-family="sans-serif" font-size="14" lengthAdjust="spacing" textLength="231" x="920.5" y="663.1826">triggerconfirmchannel : boolean</text><text fill="#000000" font-family="sans-serif" font-size="14" lengthAdjust="spacing" textLength="158" x="920.5" y="679.4795">triggerevents : Event[]</text><text fill="#000000" font-family="sans-serif" font-size="14" lengthAdjust="spacing" textLength="143" x="920.5" y="695.7764">redoevents : Event[]</text><text fill="#000000" font-family="sans-serif" font-size="14" lengthAdjust="spacing" textLength="151" x="920.5" y="712.0732">breakevents : Event[]</text><text fill="#000000" font-family="sans-serif" font-size="14" lengthAdjust="spacing" textLength="145" x="920.5" y="728.3701">prescans : PreScan[]</text><text fill="#000000" font-family="sans-serif" font-size="14" lengthAdjust="spacing" textLength="85" x="920.5" y="744.667">axes : Axis[]</text><text fill="#000000" font-family="sans-serif" font-size="14" lengthAdjust="spacing" textLength="146" x="920.5" y="760.9639">channels : Channel[]</text><text fill="#000000" font-family="sans-serif" font-size="14" lengthAdjust="spacing" textLength="157" x="920.5" y="777.2607">postscans : PostScan[]</text><text fill="#000000" font-family="sans-serif" font-size="14" lengthAdjust="spacing" textLength="185" x="920.5" y="793.5576">positionings : Positioning[]</text><text fill="#000000" font-family="sans-serif" font-size="14" lengthAdjust="spacing" textLength="83" x="920.5" y="809.8545">plots : Plot[]</text><line style="stroke:#181818;stroke-width:0.5;" x1="915.5" x2="1156.5" y1="817.1563" y2="817.1563"/></g><!--class StaticAxisSnapshot--><g id="elem_StaticAxisSnapshot"><rect codeLine="111" fill="#F1F1F1" height="64.2969" id="StaticAxisSnapshot" rx="2.5" ry="2.5" style="stroke:#181818;stroke-width:0.5;" width="167" x="712.5" y="655"/><ellipse cx="727.5" cy="671" fill="#ADD1B2" rx="11" ry="11" style="stroke:#181818;stroke-width:1.0;"/><path d="M730.4688,676.6406 Q729.8906,676.9375 729.25,677.0781 Q728.6094,677.2344 727.9063,677.2344 Q725.4063,677.2344 724.0781,675.5938 Q722.7656,673.9375 722.7656,670.8125 Q722.7656,667.6875 724.0781,666.0313 Q725.4063,664.375 727.9063,664.375 Q728.6094,664.375 729.25,664.5313 Q729.9063,664.6875 730.4688,664.9844 L730.4688,667.7031 Q729.8438,667.125 729.25,666.8594 Q728.6563,666.5781 728.0313,666.5781 Q726.6875,666.5781 726,667.6563 Q725.3125,668.7188 725.3125,670.8125 Q725.3125,672.9063 726,673.9844 Q726.6875,675.0469 728.0313,675.0469 Q728.6563,675.0469 729.25,674.7813 Q729.8438,674.5 730.4688,673.9219 L730.4688,676.6406 Z " fill="#000000"/><text fill="#000000" font-family="sans-serif" font-size="14" lengthAdjust="spacing" textLength="135" x="741.5" y="675.8467">StaticAxisSnapshot</text><line style="stroke:#181818;stroke-width:0.5;" x1="713.5" x2="878.5" y1="687" y2="687"/><text fill="#000000" font-family="sans-serif" font-size="14" lengthAdjust="spacing" textLength="85" x="718.5" y="703.9951">axes : Axis[]</text><line style="stroke:#181818;stroke-width:0.5;" x1="713.5" x2="878.5" y1="711.2969" y2="711.2969"/></g><!--class StaticChannelSnapshot--><g id="elem_StaticChannelSnapshot"><rect codeLine="116" fill="#F1F1F1" height="64.2969" id="StaticChannelSnapshot" rx="2.5" ry="2.5" style="stroke:#181818;stroke-width:0.5;" width="197" x="1223.5" y="655"/><ellipse cx="1238.5" cy="671" fill="#ADD1B2" rx="11" ry="11" style="stroke:#181818;stroke-width:1.0;"/><path d="M1241.4688,676.6406 Q1240.8906,676.9375 1240.25,677.0781 Q1239.6094,677.2344 1238.9063,677.2344 Q1236.4063,677.2344 1235.0781,675.5938 Q1233.7656,673.9375 1233.7656,670.8125 Q1233.7656,667.6875 1235.0781,666.0313 Q1236.4063,664.375 1238.9063,664.375 Q1239.6094,664.375 1240.25,664.5313 Q1240.9063,664.6875 1241.4688,664.9844 L1241.4688,667.7031 Q1240.8438,667.125 1240.25,666.8594 Q1239.6563,666.5781 1239.0313,666.5781 Q1237.6875,666.5781 1237,667.6563 Q1236.3125,668.7188 1236.3125,670.8125 Q1236.3125,672.9063 1237,673.9844 Q1237.6875,675.0469 1239.0313,675.0469 Q1239.6563,675.0469 1240.25,674.7813 Q1240.8438,674.5 1241.4688,673.9219 L1241.4688,676.6406 Z " fill="#000000"/><text fill="#000000" font-family="sans-serif" font-size="14" lengthAdjust="spacing" textLength="165" x="1252.5" y="675.8467">StaticChannelSnapshot</text><line style="stroke:#181818;stroke-width:0.5;" x1="1224.5" x2="1419.5" y1="687" y2="687"/><text fill="#000000" font-family="sans-serif" font-size="14" lengthAdjust="spacing" textLength="146" x="1229.5" y="703.9951">channels : Channel[]</text><line style="stroke:#181818;stroke-width:0.5;" x1="1224.5" x2="1419.5" y1="711.2969" y2="711.2969"/></g><!--class DynamicAxisSnapshot--><g id="elem_DynamicAxisSnapshot"><rect codeLine="105" fill="#F1F1F1" height="48" id="DynamicAxisSnapshot" rx="2.5" ry="2.5" style="stroke:#181818;stroke-width:0.5;" width="190" x="232" y="663"/><ellipse cx="247" cy="679" fill="#ADD1B2" rx="11" ry="11" style="stroke:#181818;stroke-width:1.0;"/><path d="M249.9688,684.6406 Q249.3906,684.9375 248.75,685.0781 Q248.1094,685.2344 247.4063,685.2344 Q244.9063,685.2344 243.5781,683.5938 Q242.2656,681.9375 242.2656,678.8125 Q242.2656,675.6875 243.5781,674.0313 Q244.9063,672.375 247.4063,672.375 Q248.1094,672.375 248.75,672.5313 Q249.4063,672.6875 249.9688,672.9844 L249.9688,675.7031 Q249.3438,675.125 248.75,674.8594 Q248.1563,674.5781 247.5313,674.5781 Q246.1875,674.5781 245.5,675.6563 Q244.8125,676.7188 244.8125,678.8125 Q244.8125,680.9063 245.5,681.9844 Q246.1875,683.0469 247.5313,683.0469 Q248.1563,683.0469 248.75,682.7813 Q249.3438,682.5 249.9688,681.9219 L249.9688,684.6406 Z " fill="#000000"/><text fill="#000000" font-family="sans-serif" font-size="14" lengthAdjust="spacing" textLength="158" x="261" y="683.8467">DynamicAxisSnapshot</text><line style="stroke:#181818;stroke-width:0.5;" x1="233" x2="421" y1="695" y2="695"/><line style="stroke:#181818;stroke-width:0.5;" x1="233" x2="421" y1="703" y2="703"/></g><!--class DynamicChannelSnapshot--><g id="elem_DynamicChannelSnapshot"><rect codeLine="108" fill="#F1F1F1" height="48" id="DynamicChannelSnapshot" rx="2.5" ry="2.5" style="stroke:#181818;stroke-width:0.5;" width="220" x="457" y="663"/><ellipse cx="472" cy="679" fill="#ADD1B2" rx="11" ry="11" style="stroke:#181818;stroke-width:1.0;"/><path d="M474.9688,684.6406 Q474.3906,684.9375 473.75,685.0781 Q473.1094,685.2344 472.4063,685.2344 Q469.9063,685.2344 468.5781,683.5938 Q467.2656,681.9375 467.2656,678.8125 Q467.2656,675.6875 468.5781,674.0313 Q469.9063,672.375 472.4063,672.375 Q473.1094,672.375 473.75,672.5313 Q474.4063,672.6875 474.9688,672.9844 L474.9688,675.7031 Q474.3438,675.125 473.75,674.8594 Q473.1563,674.5781 472.5313,674.5781 Q471.1875,674.5781 470.5,675.6563 Q469.8125,676.7188 469.8125,678.8125 Q469.8125,680.9063 470.5,681.9844 Q471.1875,683.0469 472.5313,683.0469 Q473.1563,683.0469 473.75,682.7813 Q474.3438,682.5 474.9688,681.9219 L474.9688,684.6406 Z " fill="#000000"/><text fill="#000000" font-family="sans-serif" font-size="14" lengthAdjust="spacing" textLength="188" x="486" y="683.8467">DynamicChannelSnapshot</text><line style="stroke:#181818;stroke-width:0.5;" x1="458" x2="676" y1="695" y2="695"/><line style="stroke:#181818;stroke-width:0.5;" x1="458" x2="676" y1="703" y2="703"/></g><!--class Parameter--><g id="elem_Parameter"><rect codeLine="54" fill="#F1F1F1" height="80.5938" id="Parameter" rx="2.5" ry="2.5" style="stroke:#181818;stroke-width:0.5;" width="107" x="46.5" y="1329"/><ellipse cx="61.5" cy="1345" fill="#ADD1B2" rx="11" ry="11" style="stroke:#181818;stroke-width:1.0;"/><path d="M64.4688,1350.6406 Q63.8906,1350.9375 63.25,1351.0781 Q62.6094,1351.2344 61.9063,1351.2344 Q59.4063,1351.2344 58.0781,1349.5938 Q56.7656,1347.9375 56.7656,1344.8125 Q56.7656,1341.6875 58.0781,1340.0313 Q59.4063,1338.375 61.9063,1338.375 Q62.6094,1338.375 63.25,1338.5313 Q63.9063,1338.6875 64.4688,1338.9844 L64.4688,1341.7031 Q63.8438,1341.125 63.25,1340.8594 Q62.6563,1340.5781 62.0313,1340.5781 Q60.6875,1340.5781 60,1341.6563 Q59.3125,1342.7188 59.3125,1344.8125 Q59.3125,1346.9063 60,1347.9844 Q60.6875,1349.0469 62.0313,1349.0469 Q62.6563,1349.0469 63.25,1348.7813 Q63.8438,1348.5 64.4688,1347.9219 L64.4688,1350.6406 Z " fill="#000000"/><text fill="#000000" font-family="sans-serif" font-size="14" lengthAdjust="spacing" textLength="75" x="75.5" y="1349.8467">Parameter</text><line style="stroke:#181818;stroke-width:0.5;" x1="47.5" x2="152.5" y1="1361" y2="1361"/><text fill="#000000" font-family="sans-serif" font-size="14" lengthAdjust="spacing" textLength="92" x="52.5" y="1377.9951">value : string</text><text fill="#000000" font-family="sans-serif" font-size="14" lengthAdjust="spacing" textLength="94" x="52.5" y="1394.292">name : string</text><line style="stroke:#181818;stroke-width:0.5;" x1="47.5" x2="152.5" y1="1401.5938" y2="1401.5938"/></g><!--class IntervalChannel--><g id="elem_IntervalChannel"><rect codeLine="49" fill="#F1F1F1" height="80.5938" id="IntervalChannel" rx="2.5" ry="2.5" style="stroke:#181818;stroke-width:0.5;" width="159" x="1095.5" y="1155.5"/><ellipse cx="1116.8" cy="1171.5" fill="#ADD1B2" rx="11" ry="11" style="stroke:#181818;stroke-width:1.0;"/><path d="M1119.7688,1177.1406 Q1119.1906,1177.4375 1118.55,1177.5781 Q1117.9094,1177.7344 1117.2063,1177.7344 Q1114.7063,1177.7344 1113.3781,1176.0938 Q1112.0656,1174.4375 1112.0656,1171.3125 Q1112.0656,1168.1875 1113.3781,1166.5313 Q1114.7063,1164.875 1117.2063,1164.875 Q1117.9094,1164.875 1118.55,1165.0313 Q1119.2063,1165.1875 1119.7688,1165.4844 L1119.7688,1168.2031 Q1119.1438,1167.625 1118.55,1167.3594 Q1117.9563,1167.0781 1117.3313,1167.0781 Q1115.9875,1167.0781 1115.3,1168.1563 Q1114.6125,1169.2188 1114.6125,1171.3125 Q1114.6125,1173.4063 1115.3,1174.4844 Q1115.9875,1175.5469 1117.3313,1175.5469 Q1117.9563,1175.5469 1118.55,1175.2813 Q1119.1438,1175 1119.7688,1174.4219 L1119.7688,1177.1406 Z " fill="#000000"/><text fill="#000000" font-family="sans-serif" font-size="14" lengthAdjust="spacing" textLength="113" x="1132.2" y="1176.3467">IntervalChannel</text><line style="stroke:#181818;stroke-width:0.5;" x1="1096.5" x2="1253.5" y1="1187.5" y2="1187.5"/><text fill="#000000" font-family="sans-serif" font-size="14" lengthAdjust="spacing" textLength="147" x="1101.5" y="1204.4951">triggerinterval : float</text><text fill="#000000" font-family="sans-serif" font-size="14" lengthAdjust="spacing" textLength="127" x="1101.5" y="1220.792">stoppedby : string</text><line style="stroke:#181818;stroke-width:0.5;" x1="1096.5" x2="1253.5" y1="1228.0938" y2="1228.0938"/></g><!--class Positioning--><g id="elem_Positioning"><rect codeLine="59" fill="#F1F1F1" height="113.1875" id="Positioning" rx="2.5" ry="2.5" style="stroke:#181818;stroke-width:0.5;" width="156" x="234" y="917.5"/><ellipse cx="270.15" cy="933.5" fill="#ADD1B2" rx="11" ry="11" style="stroke:#181818;stroke-width:1.0;"/><path d="M273.1188,939.1406 Q272.5406,939.4375 271.9,939.5781 Q271.2594,939.7344 270.5563,939.7344 Q268.0563,939.7344 266.7281,938.0938 Q265.4156,936.4375 265.4156,933.3125 Q265.4156,930.1875 266.7281,928.5313 Q268.0563,926.875 270.5563,926.875 Q271.2594,926.875 271.9,927.0313 Q272.5563,927.1875 273.1188,927.4844 L273.1188,930.2031 Q272.4938,929.625 271.9,929.3594 Q271.3063,929.0781 270.6813,929.0781 Q269.3375,929.0781 268.65,930.1563 Q267.9625,931.2188 267.9625,933.3125 Q267.9625,935.4063 268.65,936.4844 Q269.3375,937.5469 270.6813,937.5469 Q271.3063,937.5469 271.9,937.2813 Q272.4938,937 273.1188,936.4219 L273.1188,939.1406 Z " fill="#000000"/><text fill="#000000" font-family="sans-serif" font-size="14" lengthAdjust="spacing" textLength="77" x="288.85" y="938.3467">Positioning</text><line style="stroke:#181818;stroke-width:0.5;" x1="235" x2="389" y1="949.5" y2="949.5"/><text fill="#000000" font-family="sans-serif" font-size="14" lengthAdjust="spacing" textLength="101" x="240" y="966.4951">axis_id : string</text><text fill="#000000" font-family="sans-serif" font-size="14" lengthAdjust="spacing" textLength="130" x="240" y="982.792">channel_id : string</text><text fill="#000000" font-family="sans-serif" font-size="14" lengthAdjust="spacing" textLength="144" x="240" y="999.0889">normalize_id : string</text><text fill="#000000" font-family="sans-serif" font-size="14" lengthAdjust="spacing" textLength="128" x="240" y="1015.3857">plugin : Controller</text><line style="stroke:#181818;stroke-width:0.5;" x1="235" x2="389" y1="1022.6875" y2="1022.6875"/></g><!--class PreScan--><g id="elem_PreScan"><rect codeLine="94" fill="#F1F1F1" height="80.5938" id="PreScan" rx="2.5" ry="2.5" style="stroke:#181818;stroke-width:0.5;" width="134" x="818" y="933.5"/><ellipse cx="852.8" cy="949.5" fill="#ADD1B2" rx="11" ry="11" style="stroke:#181818;stroke-width:1.0;"/><path d="M855.7688,955.1406 Q855.1906,955.4375 854.55,955.5781 Q853.9094,955.7344 853.2063,955.7344 Q850.7063,955.7344 849.3781,954.0938 Q848.0656,952.4375 848.0656,949.3125 Q848.0656,946.1875 849.3781,944.5313 Q850.7063,942.875 853.2063,942.875 Q853.9094,942.875 854.55,943.0313 Q855.2063,943.1875 855.7688,943.4844 L855.7688,946.2031 Q855.1438,945.625 854.55,945.3594 Q853.9563,945.0781 853.3313,945.0781 Q851.9875,945.0781 851.3,946.1563 Q850.6125,947.2188 850.6125,949.3125 Q850.6125,951.4063 851.3,952.4844 Q851.9875,953.5469 853.3313,953.5469 Q853.9563,953.5469 854.55,953.2813 Q855.1438,953 855.7688,952.4219 L855.7688,955.1406 Z " fill="#000000"/><text fill="#000000" font-family="sans-serif" font-size="14" lengthAdjust="spacing" textLength="58" x="871.2" y="954.3467">PreScan</text><line style="stroke:#181818;stroke-width:0.5;" x1="819" x2="951" y1="965.5" y2="965.5"/><text fill="#000000" font-family="sans-serif" font-size="14" lengthAdjust="spacing" textLength="66" x="824" y="982.4951">id : string</text><text fill="#000000" font-family="sans-serif" font-size="14" lengthAdjust="spacing" textLength="122" x="824" y="998.792">value : typevalue</text><line style="stroke:#181818;stroke-width:0.5;" x1="819" x2="951" y1="1006.0938" y2="1006.0938"/></g><!--class Axis--><g id="elem_Axis"><rect codeLine="121" fill="#F1F1F1" height="178.375" id="Axis" rx="2.5" ry="2.5" style="stroke:#181818;stroke-width:0.5;" width="216" x="474" y="885"/><ellipse cx="563.25" cy="901" fill="#ADD1B2" rx="11" ry="11" style="stroke:#181818;stroke-width:1.0;"/><path d="M566.2188,906.6406 Q565.6406,906.9375 565,907.0781 Q564.3594,907.2344 563.6563,907.2344 Q561.1563,907.2344 559.8281,905.5938 Q558.5156,903.9375 558.5156,900.8125 Q558.5156,897.6875 559.8281,896.0313 Q561.1563,894.375 563.6563,894.375 Q564.3594,894.375 565,894.5313 Q565.6563,894.6875 566.2188,894.9844 L566.2188,897.7031 Q565.5938,897.125 565,896.8594 Q564.4063,896.5781 563.7813,896.5781 Q562.4375,896.5781 561.75,897.6563 Q561.0625,898.7188 561.0625,900.8125 Q561.0625,902.9063 561.75,903.9844 Q562.4375,905.0469 563.7813,905.0469 Q564.4063,905.0469 565,904.7813 Q565.5938,904.5 566.2188,903.9219 L566.2188,906.6406 Z " fill="#000000"/><text fill="#000000" font-family="sans-serif" font-size="14" lengthAdjust="spacing" textLength="29" x="583.75" y="905.8467">Axis</text><line style="stroke:#181818;stroke-width:0.5;" x1="475" x2="689" y1="917" y2="917"/><text fill="#000000" font-family="sans-serif" font-size="14" lengthAdjust="spacing" textLength="101" x="480" y="933.9951">axis_id : string</text><text fill="#000000" font-family="sans-serif" font-size="14" lengthAdjust="spacing" textLength="194" x="480" y="950.292">stepfunction : StepFunction</text><text fill="#000000" font-family="sans-serif" font-size="14" lengthAdjust="spacing" textLength="204" x="480" y="966.5889">positionmode : PositionMode</text><text fill="#000000" font-family="sans-serif" font-size="14" lengthAdjust="spacing" textLength="203" x="480" y="982.8857">startstopstep : StartStopStep</text><text fill="#000000" font-family="sans-serif" font-size="14" lengthAdjust="spacing" textLength="146" x="480" y="999.1826">stepfilename : string</text><text fill="#000000" font-family="sans-serif" font-size="14" lengthAdjust="spacing" textLength="128" x="480" y="1015.4795">plugin : Controller</text><text fill="#000000" font-family="sans-serif" font-size="14" lengthAdjust="spacing" textLength="129" x="480" y="1031.7764">positionlist : string</text><text fill="#000000" font-family="sans-serif" font-size="14" lengthAdjust="spacing" textLength="194" x="480" y="1048.0732">range : StepFunctionRange</text><line style="stroke:#181818;stroke-width:0.5;" x1="475" x2="689" y1="1055.375" y2="1055.375"/></g><!--class Channel--><g id="elem_Channel"><rect codeLine="142" fill="#F1F1F1" height="113.1875" id="Channel" rx="2.5" ry="2.5" style="stroke:#181818;stroke-width:0.5;" width="193" x="1241.5" y="917.5"/><ellipse cx="1304.25" cy="933.5" fill="#ADD1B2" rx="11" ry="11" style="stroke:#181818;stroke-width:1.0;"/><path d="M1307.2188,939.1406 Q1306.6406,939.4375 1306,939.5781 Q1305.3594,939.7344 1304.6563,939.7344 Q1302.1563,939.7344 1300.8281,938.0938 Q1299.5156,936.4375 1299.5156,933.3125 Q1299.5156,930.1875 1300.8281,928.5313 Q1302.1563,926.875 1304.6563,926.875 Q1305.3594,926.875 1306,927.0313 Q1306.6563,927.1875 1307.2188,927.4844 L1307.2188,930.2031 Q1306.5938,929.625 1306,929.3594 Q1305.4063,929.0781 1304.7813,929.0781 Q1303.4375,929.0781 1302.75,930.1563 Q1302.0625,931.2188 1302.0625,933.3125 Q1302.0625,935.4063 1302.75,936.4844 Q1303.4375,937.5469 1304.7813,937.5469 Q1305.4063,937.5469 1306,937.2813 Q1306.5938,937 1307.2188,936.4219 L1307.2188,939.1406 Z " fill="#000000"/><text fill="#000000" font-family="sans-serif" font-size="14" lengthAdjust="spacing" textLength="59" x="1324.75" y="938.3467">Channel</text><line style="stroke:#181818;stroke-width:0.5;" x1="1242.5" x2="1433.5" y1="949.5" y2="949.5"/><text fill="#000000" font-family="sans-serif" font-size="14" lengthAdjust="spacing" textLength="123" x="1247.5" y="966.4951">channelid : string</text><text fill="#000000" font-family="sans-serif" font-size="14" lengthAdjust="spacing" textLength="144" x="1247.5" y="982.792">normalize_id : string</text><text fill="#000000" font-family="sans-serif" font-size="14" lengthAdjust="spacing" textLength="143" x="1247.5" y="999.0889">redoevents : Event[]</text><text fill="#000000" font-family="sans-serif" font-size="14" lengthAdjust="spacing" textLength="181" x="1247.5" y="1015.3857">deferredtrigger : boolean</text><line style="stroke:#181818;stroke-width:0.5;" x1="1242.5" x2="1433.5" y1="1022.6875" y2="1022.6875"/></g><!--class PostScan--><g id="elem_PostScan"><rect codeLine="99" fill="#F1F1F1" height="96.8906" id="PostScan" rx="2.5" ry="2.5" style="stroke:#181818;stroke-width:0.5;" width="219" x="987.5" y="925.5"/><ellipse cx="1060.75" cy="941.5" fill="#ADD1B2" rx="11" ry="11" style="stroke:#181818;stroke-width:1.0;"/><path d="M1063.7188,947.1406 Q1063.1406,947.4375 1062.5,947.5781 Q1061.8594,947.7344 1061.1563,947.7344 Q1058.6563,947.7344 1057.3281,946.0938 Q1056.0156,944.4375 1056.0156,941.3125 Q1056.0156,938.1875 1057.3281,936.5313 Q1058.6563,934.875 1061.1563,934.875 Q1061.8594,934.875 1062.5,935.0313 Q1063.1563,935.1875 1063.7188,935.4844 L1063.7188,938.2031 Q1063.0938,937.625 1062.5,937.3594 Q1061.9063,937.0781 1061.2813,937.0781 Q1059.9375,937.0781 1059.25,938.1563 Q1058.5625,939.2188 1058.5625,941.3125 Q1058.5625,943.4063 1059.25,944.4844 Q1059.9375,945.5469 1061.2813,945.5469 Q1061.9063,945.5469 1062.5,945.2813 Q1063.0938,945 1063.7188,944.4219 L1063.7188,947.1406 Z " fill="#000000"/><text fill="#000000" font-family="sans-serif" font-size="14" lengthAdjust="spacing" textLength="64" x="1081.25" y="946.3467">PostScan</text><line style="stroke:#181818;stroke-width:0.5;" x1="988.5" x2="1205.5" y1="957.5" y2="957.5"/><text fill="#000000" font-family="sans-serif" font-size="14" lengthAdjust="spacing" textLength="66" x="993.5" y="974.4951">id : string</text><text fill="#000000" font-family="sans-serif" font-size="14" lengthAdjust="spacing" textLength="122" x="993.5" y="990.792">value : typevalue</text><text fill="#000000" font-family="sans-serif" font-size="14" lengthAdjust="spacing" textLength="207" x="993.5" y="1007.0889">reset_originalvalue : boolean</text><line style="stroke:#181818;stroke-width:0.5;" x1="988.5" x2="1205.5" y1="1014.3906" y2="1014.3906"/></g><!--class Plot--><g id="elem_Plot"><rect fill="#F1F1F1" height="48" id="Plot" rx="2.5" ry="2.5" style="stroke:#181818;stroke-width:0.5;" width="58" x="725" y="950"/><ellipse cx="740" cy="966" fill="#ADD1B2" rx="11" ry="11" style="stroke:#181818;stroke-width:1.0;"/><path d="M742.9688,971.6406 Q742.3906,971.9375 741.75,972.0781 Q741.1094,972.2344 740.4063,972.2344 Q737.9063,972.2344 736.5781,970.5938 Q735.2656,968.9375 735.2656,965.8125 Q735.2656,962.6875 736.5781,961.0313 Q737.9063,959.375 740.4063,959.375 Q741.1094,959.375 741.75,959.5313 Q742.4063,959.6875 742.9688,959.9844 L742.9688,962.7031 Q742.3438,962.125 741.75,961.8594 Q741.1563,961.5781 740.5313,961.5781 Q739.1875,961.5781 738.5,962.6563 Q737.8125,963.7188 737.8125,965.8125 Q737.8125,967.9063 738.5,968.9844 Q739.1875,970.0469 740.5313,970.0469 Q741.1563,970.0469 741.75,969.7813 Q742.3438,969.5 742.9688,968.9219 L742.9688,971.6406 Z " fill="#000000"/><text fill="#000000" font-family="sans-serif" font-size="14" lengthAdjust="spacing" textLength="26" x="754" y="970.8467">Plot</text><line style="stroke:#181818;stroke-width:0.5;" x1="726" x2="782" y1="982" y2="982"/><line style="stroke:#181818;stroke-width:0.5;" x1="726" x2="782" y1="990" y2="990"/></g><g id="elem_GMN46"><path d="M954,1176 L954,1216.2656 L1060,1216.2656 L1060,1186 L1050,1176 L954,1176 " fill="#FEFFDD" style="stroke:#181818;stroke-width:0.5;"/><path d="M1050,1176 L1050,1186 L1060,1186 L1050,1176 " fill="#FEFFDD" style="stroke:#181818;stroke-width:1.0;"/><text fill="#000000" font-family="sans-serif" font-size="13" lengthAdjust="spacing" textLength="85" x="960" y="1193.0669">See separate</text><text fill="#000000" font-family="sans-serif" font-size="13" lengthAdjust="spacing" textLength="82" x="960" y="1208.1997">plot module.</text></g><g id="elem_GMN49"><path d="M1501.5,1349.5 L1501.5,1389.7656 A0,0 0 0 0 1501.5,1389.7656 L1616.5,1389.7656 A0,0 0 0 0 1616.5,1389.7656 L1616.5,1359.5 L1606.5,1349.5 L1563,1349.5 L1559,1220.13 L1555,1349.5 L1501.5,1349.5 A0,0 0 0 0 1501.5,1349.5 " fill="#FEFFDD" style="stroke:#181818;stroke-width:0.5;"/><path d="M1606.5,1349.5 L1606.5,1359.5 L1616.5,1359.5 L1606.5,1349.5 " fill="#FEFFDD" style="stroke:#181818;stroke-width:0.5;"/><text fill="#000000" font-family="sans-serif" font-size="13" lengthAdjust="spacing" textLength="85" x="1507.5" y="1366.5669">See separate</text><text fill="#000000" font-family="sans-serif" font-size="13" lengthAdjust="spacing" textLength="94" x="1507.5" y="1381.6997">event module.</text></g><!--class StepFunction--><g id="elem_StepFunction"><rect codeLine="167" fill="#F1F1F1" height="145.7813" id="StepFunction" rx="2.5" ry="2.5" style="stroke:#181818;stroke-width:0.5;" width="125" x="793.5" y="1123"/><ellipse cx="808.5" cy="1139" fill="#EB937F" rx="11" ry="11" style="stroke:#181818;stroke-width:1.0;"/><path d="M812.6094,1145 L804.8906,1145 L804.8906,1132.6094 L812.6094,1132.6094 L812.6094,1134.7656 L807.3438,1134.7656 L807.3438,1137.4375 L812.1094,1137.4375 L812.1094,1139.5938 L807.3438,1139.5938 L807.3438,1142.8438 L812.6094,1142.8438 L812.6094,1145 Z " fill="#000000"/><text fill="#000000" font-family="sans-serif" font-size="14" lengthAdjust="spacing" textLength="93" x="822.5" y="1143.8467">StepFunction</text><line style="stroke:#181818;stroke-width:0.5;" x1="794.5" x2="917.5" y1="1155" y2="1155"/><text fill="#000000" font-family="sans-serif" font-size="14" lengthAdjust="spacing" textLength="28" x="799.5" y="1171.9951">Add</text><text fill="#000000" font-family="sans-serif" font-size="14" lengthAdjust="spacing" textLength="55" x="799.5" y="1188.292">Multiply</text><text fill="#000000" font-family="sans-serif" font-size="14" lengthAdjust="spacing" textLength="25" x="799.5" y="1204.5889">File</text><text fill="#000000" font-family="sans-serif" font-size="14" lengthAdjust="spacing" textLength="43" x="799.5" y="1220.8857">Plugin</text><text fill="#000000" font-family="sans-serif" font-size="14" lengthAdjust="spacing" textLength="75" x="799.5" y="1237.1826">Positionlist</text><text fill="#000000" font-family="sans-serif" font-size="14" lengthAdjust="spacing" textLength="46" x="799.5" y="1253.4795">Range</text><line style="stroke:#181818;stroke-width:0.5;" x1="794.5" x2="917.5" y1="1260.7813" y2="1260.7813"/></g><!--class PositionMode--><g id="elem_PositionMode"><rect codeLine="137" fill="#F1F1F1" height="80.5938" id="PositionMode" rx="2.5" ry="2.5" style="stroke:#181818;stroke-width:0.5;" width="126" x="228" y="1155.5"/><ellipse cx="243" cy="1171.5" fill="#EB937F" rx="11" ry="11" style="stroke:#181818;stroke-width:1.0;"/><path d="M247.1094,1177.5 L239.3906,1177.5 L239.3906,1165.1094 L247.1094,1165.1094 L247.1094,1167.2656 L241.8438,1167.2656 L241.8438,1169.9375 L246.6094,1169.9375 L246.6094,1172.0938 L241.8438,1172.0938 L241.8438,1175.3438 L247.1094,1175.3438 L247.1094,1177.5 Z " fill="#000000"/><text fill="#000000" font-family="sans-serif" font-size="14" lengthAdjust="spacing" textLength="94" x="257" y="1176.3467">PositionMode</text><line style="stroke:#181818;stroke-width:0.5;" x1="229" x2="353" y1="1187.5" y2="1187.5"/><text fill="#000000" font-family="sans-serif" font-size="14" lengthAdjust="spacing" textLength="54" x="234" y="1204.4951">relative</text><text fill="#000000" font-family="sans-serif" font-size="14" lengthAdjust="spacing" textLength="61" x="234" y="1220.792">absolute</text><line style="stroke:#181818;stroke-width:0.5;" x1="229" x2="353" y1="1228.0938" y2="1228.0938"/></g><!--class StartStopStep--><g id="elem_StartStopStep"><rect codeLine="160" fill="#F1F1F1" height="113.1875" id="StartStopStep" rx="2.5" ry="2.5" style="stroke:#181818;stroke-width:0.5;" width="163" x="389.5" y="1139.5"/><ellipse cx="419.35" cy="1155.5" fill="#ADD1B2" rx="11" ry="11" style="stroke:#181818;stroke-width:1.0;"/><path d="M422.3188,1161.1406 Q421.7406,1161.4375 421.1,1161.5781 Q420.4594,1161.7344 419.7563,1161.7344 Q417.2563,1161.7344 415.9281,1160.0938 Q414.6156,1158.4375 414.6156,1155.3125 Q414.6156,1152.1875 415.9281,1150.5313 Q417.2563,1148.875 419.7563,1148.875 Q420.4594,1148.875 421.1,1149.0313 Q421.7563,1149.1875 422.3188,1149.4844 L422.3188,1152.2031 Q421.6938,1151.625 421.1,1151.3594 Q420.5063,1151.0781 419.8813,1151.0781 Q418.5375,1151.0781 417.85,1152.1563 Q417.1625,1153.2188 417.1625,1155.3125 Q417.1625,1157.4063 417.85,1158.4844 Q418.5375,1159.5469 419.8813,1159.5469 Q420.5063,1159.5469 421.1,1159.2813 Q421.6938,1159 422.3188,1158.4219 L422.3188,1161.1406 Z " fill="#000000"/><text fill="#000000" font-family="sans-serif" font-size="14" lengthAdjust="spacing" textLength="98" x="436.65" y="1160.3467">StartStopStep</text><line style="stroke:#181818;stroke-width:0.5;" x1="390.5" x2="551.5" y1="1171.5" y2="1171.5"/><text fill="#000000" font-family="sans-serif" font-size="14" lengthAdjust="spacing" textLength="115" x="395.5" y="1188.4951">start : typevalue</text><text fill="#000000" font-family="sans-serif" font-size="14" lengthAdjust="spacing" textLength="113" x="395.5" y="1204.792">stop : typevalue</text><text fill="#000000" font-family="sans-serif" font-size="14" lengthAdjust="spacing" textLength="151" x="395.5" y="1221.0889">stepwidth : typevalue</text><text fill="#000000" font-family="sans-serif" font-size="14" lengthAdjust="spacing" textLength="146" x="395.5" y="1237.3857">ismainaxis : boolean</text><line style="stroke:#181818;stroke-width:0.5;" x1="390.5" x2="551.5" y1="1244.6875" y2="1244.6875"/></g><!--class StepFunctionRange--><g id="elem_StepFunctionRange"><rect codeLine="176" fill="#F1F1F1" height="80.5938" id="StepFunctionRange" rx="2.5" ry="2.5" style="stroke:#181818;stroke-width:0.5;" width="171" x="587.5" y="1155.5"/><ellipse cx="602.5" cy="1171.5" fill="#ADD1B2" rx="11" ry="11" style="stroke:#181818;stroke-width:1.0;"/><path d="M605.4688,1177.1406 Q604.8906,1177.4375 604.25,1177.5781 Q603.6094,1177.7344 602.9063,1177.7344 Q600.4063,1177.7344 599.0781,1176.0938 Q597.7656,1174.4375 597.7656,1171.3125 Q597.7656,1168.1875 599.0781,1166.5313 Q600.4063,1164.875 602.9063,1164.875 Q603.6094,1164.875 604.25,1165.0313 Q604.9063,1165.1875 605.4688,1165.4844 L605.4688,1168.2031 Q604.8438,1167.625 604.25,1167.3594 Q603.6563,1167.0781 603.0313,1167.0781 Q601.6875,1167.0781 601,1168.1563 Q600.3125,1169.2188 600.3125,1171.3125 Q600.3125,1173.4063 601,1174.4844 Q601.6875,1175.5469 603.0313,1175.5469 Q603.6563,1175.5469 604.25,1175.2813 Q604.8438,1175 605.4688,1174.4219 L605.4688,1177.1406 Z " fill="#000000"/><text fill="#000000" font-family="sans-serif" font-size="14" lengthAdjust="spacing" textLength="139" x="616.5" y="1176.3467">StepFunctionRange</text><line style="stroke:#181818;stroke-width:0.5;" x1="588.5" x2="757.5" y1="1187.5" y2="1187.5"/><text fill="#000000" font-family="sans-serif" font-size="14" lengthAdjust="spacing" textLength="130" x="593.5" y="1204.4951">expression : string</text><text fill="#000000" font-family="sans-serif" font-size="14" lengthAdjust="spacing" textLength="129" x="593.5" y="1220.792">positionlist : string</text><line style="stroke:#181818;stroke-width:0.5;" x1="588.5" x2="757.5" y1="1228.0938" y2="1228.0938"/></g><!--class StandardChannel--><g id="elem_StandardChannel"><rect codeLine="152" fill="#F1F1F1" height="129.4844" id="StandardChannel" rx="2.5" ry="2.5" style="stroke:#181818;stroke-width:0.5;" width="198" x="1290" y="1131.5"/><ellipse cx="1323.9" cy="1147.5" fill="#ADD1B2" rx="11" ry="11" style="stroke:#181818;stroke-width:1.0;"/><path d="M1326.8688,1153.1406 Q1326.2906,1153.4375 1325.65,1153.5781 Q1325.0094,1153.7344 1324.3063,1153.7344 Q1321.8063,1153.7344 1320.4781,1152.0938 Q1319.1656,1150.4375 1319.1656,1147.3125 Q1319.1656,1144.1875 1320.4781,1142.5313 Q1321.8063,1140.875 1324.3063,1140.875 Q1325.0094,1140.875 1325.65,1141.0313 Q1326.3063,1141.1875 1326.8688,1141.4844 L1326.8688,1144.2031 Q1326.2438,1143.625 1325.65,1143.3594 Q1325.0563,1143.0781 1324.4313,1143.0781 Q1323.0875,1143.0781 1322.4,1144.1563 Q1321.7125,1145.2188 1321.7125,1147.3125 Q1321.7125,1149.4063 1322.4,1150.4844 Q1323.0875,1151.5469 1324.4313,1151.5469 Q1325.0563,1151.5469 1325.65,1151.2813 Q1326.2438,1151 1326.8688,1150.4219 L1326.8688,1153.1406 Z " fill="#000000"/><text fill="#000000" font-family="sans-serif" font-size="14" lengthAdjust="spacing" textLength="124" x="1342.1" y="1152.3467">StandardChannel</text><line style="stroke:#181818;stroke-width:0.5;" x1="1291" x2="1487" y1="1163.5" y2="1163.5"/><text fill="#000000" font-family="sans-serif" font-size="14" lengthAdjust="spacing" textLength="163" x="1296" y="1180.4951">averagecount : integer</text><text fill="#000000" font-family="sans-serif" font-size="14" lengthAdjust="spacing" textLength="142" x="1296" y="1196.792">maxdeviation : float</text><text fill="#000000" font-family="sans-serif" font-size="14" lengthAdjust="spacing" textLength="113" x="1296" y="1213.0889">minimum : float</text><text fill="#000000" font-family="sans-serif" font-size="14" lengthAdjust="spacing" textLength="158" x="1296" y="1229.3857">maxattempts : integer</text><text fill="#000000" font-family="sans-serif" font-size="14" lengthAdjust="spacing" textLength="186" x="1296" y="1245.6826">sendreadyevent : boolean</text><line style="stroke:#181818;stroke-width:0.5;" x1="1291" x2="1487" y1="1252.9844" y2="1252.9844"/></g><!--reverse link Scan to Controller--><g id="link_Scan_Controller"><path codeLine="18" d="M1147.9545,263.7803 C1142.2545,267.1303 1146.83,264.17 1141,267 C1012.01,329.63 962.27,289.02 824,327 C545.8,403.41 399.47,328.01 214,549 C61.35,730.89 81.73,1045.01 94.55,1155.32 " fill="none" id="Scan-backto-Controller" style="stroke:#181818;stroke-width:1.0;"/><polygon fill="#181818" points="1158.3,257.7,1151.1005,257.2916,1147.9545,263.7803,1155.154,264.1887,1158.3,257.7" style="stroke:#181818;stroke-width:1.0;"/></g><!--reverse link Scan to ScanModule--><g id="link_Scan_ScanModule"><path codeLine="19" d="M1148.9144,261.1687 C1143.1044,265.7087 1146.76,262.74 1141,267 C1092.63,302.77 1034.98,338.52 990.14,364.94 " fill="none" id="Scan-backto-ScanModule" style="stroke:#181818;stroke-width:1.0;"/><polygon fill="#181818" points="1158.37,253.78,1151.1793,254.3225,1148.9144,261.1687,1156.1051,260.6262,1158.37,253.78" style="stroke:#181818;stroke-width:1.0;"/><text fill="#000000" font-family="sans-serif" font-size="13" lengthAdjust="spacing" textLength="8" x="998.1982" y="356.7957">n</text></g><!--reverse link Scan to PauseCondition--><g id="link_Scan_PauseCondition"><path codeLine="20" d="M1429.9223,223.2759 C1482.2223,256.0059 1532.27,288.84 1585,327 C1609.91,345.03 1636.88,367.26 1656.21,383.71 " fill="none" id="Scan-backto-PauseCondition" style="stroke:#181818;stroke-width:1.0;"/><polygon fill="#181818" points="1419.75,216.91,1422.7142,223.4837,1429.9223,223.2759,1426.9581,216.7022,1419.75,216.91" style="stroke:#181818;stroke-width:1.0;"/><text fill="#000000" font-family="sans-serif" font-size="13" lengthAdjust="spacing" textLength="8" x="1640.7049" y="373.0443">n</text></g><!--reverse link Scan to Event--><g id="link_Scan_Event"><path codeLine="21" d="M1344.7304,278.343 C1375.5504,358.633 1409.79,453.26 1438,549 C1481.3,695.96 1487.1,734.36 1515,885 C1534.75,991.63 1550.44,1120.33 1556.4,1171.95 " fill="none" id="Scan-backto-Event" style="stroke:#181818;stroke-width:1.0;"/><polygon fill="#181818" points="1340.43,267.14,1338.8459,274.1749,1344.7304,278.343,1346.3145,271.308,1340.43,267.14" style="stroke:#181818;stroke-width:1.0;"/><text fill="#000000" font-family="sans-serif" font-size="13" lengthAdjust="spacing" textLength="8" x="1556.7588" y="1160.9492">n</text></g><!--reverse link File to Scan--><g id="link_File_Scan"><path codeLine="25" d="M1135.8,137 C1147.31,137 1146.81,137 1158.32,137 " fill="none" id="File-backto-Scan" style="stroke:#181818;stroke-width:1.0;"/><polygon fill="#181818" points="1123.8,137,1129.8,141,1135.8,137,1129.8,133,1123.8,137" style="stroke:#181818;stroke-width:1.0;"/></g><!--reverse link ScanModule to ClassicScanModule--><g id="link_ScanModule_ClassicScanModule"><path codeLine="37" d="M957.8642,505.6372 C965.9942,524.4072 967.73,528.42 976.61,548.91 " fill="none" id="ScanModule-backto-ClassicScanModule" style="stroke:#181818;stroke-width:1.0;"/><polygon fill="none" points="950.71,489.12,952.3585,508.0219,963.3699,503.2524,950.71,489.12" style="stroke:#181818;stroke-width:1.0;"/></g><!--reverse link ScanModule to StaticAxisSnapshot--><g id="link_ScanModule_StaticAxisSnapshot"><path codeLine="38" d="M874.1342,505.6365 C850.1842,560.9165 826.81,614.88 809.53,654.77 " fill="none" id="ScanModule-backto-StaticAxisSnapshot" style="stroke:#181818;stroke-width:1.0;"/><polygon fill="none" points="881.29,489.12,868.6287,503.2513,879.6397,508.0218,881.29,489.12" style="stroke:#181818;stroke-width:1.0;"/></g><!--reverse link ScanModule to StaticChannelSnapshot--><g id="link_ScanModule_StaticChannelSnapshot"><path codeLine="39" d="M1006.3262,450.6133 C1059.7862,476.4533 1116.36,506.88 1175,549 C1219.63,581.05 1264.98,625.52 1293.28,655 " fill="none" id="ScanModule-backto-StaticChannelSnapshot" style="stroke:#181818;stroke-width:1.0;"/><polygon fill="none" points="990.12,442.78,1003.7151,456.0153,1008.9373,445.2112,990.12,442.78" style="stroke:#181818;stroke-width:1.0;"/></g><!--reverse link ScanModule to DynamicAxisSnapshot--><g id="link_ScanModule_DynamicAxisSnapshot"><path codeLine="40" d="M823.7766,419.4334 C724.7366,433.0034 565.24,465.3 439,549 C393.94,578.88 357.9,632.43 339.77,662.98 " fill="none" id="ScanModule-backto-DynamicAxisSnapshot" style="stroke:#181818;stroke-width:1.0;"/><polygon fill="none" points="841.61,416.99,822.9621,413.489,824.5911,425.3779,841.61,416.99" style="stroke:#181818;stroke-width:1.0;"/></g><!--reverse link ScanModule to DynamicChannelSnapshot--><g id="link_ScanModule_DynamicChannelSnapshot"><path codeLine="41" d="M826.3377,458.5751 C781.8277,484.4451 740.72,511.11 695,549 C651.89,584.72 608.93,634.29 585.38,662.97 " fill="none" id="ScanModule-backto-DynamicChannelSnapshot" style="stroke:#181818;stroke-width:1.0;"/><polygon fill="none" points="841.9,449.53,823.3226,453.3877,829.3527,463.7625,841.9,449.53" style="stroke:#181818;stroke-width:1.0;"/></g><!--reverse link Controller to Parameter--><g id="link_Controller_Parameter"><path codeLine="47" d="M100,1248.78 C100,1276.48 100,1301.28 100,1328.94 " fill="none" id="Controller-backto-Parameter" style="stroke:#181818;stroke-width:1.0;"/><polygon fill="#181818" points="100,1236.78,96,1242.78,100,1248.78,104,1242.78,100,1236.78" style="stroke:#181818;stroke-width:1.0;"/><text fill="#000000" font-family="sans-serif" font-size="13" lengthAdjust="spacing" textLength="8" x="91.3125" y="1317.7929">n</text></g><!--reverse link Positioning to Controller--><g id="link_Positioning_Controller"><path codeLine="65" d="M250.1737,1039.1613 C212.6437,1078.1113 171.68,1120.61 138.1,1155.46 " fill="none" id="Positioning-backto-Controller" style="stroke:#181818;stroke-width:1.0;"/><polygon fill="#181818" points="258.5,1030.52,251.4564,1032.0652,250.1737,1039.1613,257.2173,1037.6161,258.5,1030.52" style="stroke:#181818;stroke-width:1.0;"/></g><!--reverse link ClassicScanModule to Event--><g id="link_ClassicScanModule_Event"><path codeLine="83" d="M1167.3956,802.8871 C1183.0556,813.6971 1189.52,816.86 1206,825 C1306.9,874.84 1368.81,809.21 1452,885 C1495.98,925.07 1539.47,1106.33 1553.95,1171.54 " fill="none" id="ClassicScanModule-backto-Event" style="stroke:#181818;stroke-width:1.0;"/><polygon fill="#181818" points="1157.52,796.07,1160.1854,802.7704,1167.3956,802.8871,1164.7302,796.1867,1157.52,796.07" style="stroke:#181818;stroke-width:1.0;"/><text fill="#000000" font-family="sans-serif" font-size="13" lengthAdjust="spacing" textLength="8" x="1543.7441" y="1160.8328">n</text></g><!--reverse link ClassicScanModule to PreScan--><g id="link_ClassicScanModule_PreScan"><path codeLine="84" d="M957.7535,835.6745 C936.7535,875.3245 921.07,904.92 905.99,933.39 " fill="none" id="ClassicScanModule-backto-PreScan" style="stroke:#181818;stroke-width:1.0;"/><polygon fill="#181818" points="963.37,825.07,957.0269,828.5001,957.7535,835.6745,964.0966,832.2444,963.37,825.07" style="stroke:#181818;stroke-width:1.0;"/><text fill="#000000" font-family="sans-serif" font-size="13" lengthAdjust="spacing" textLength="8" x="900.804" y="922.5333">n</text></g><!--reverse link ClassicScanModule to Axis--><g id="link_ClassicScanModule_Axis"><path codeLine="85" d="M904.4184,820.6472 C898.7584,824.6572 902.81,821.5 897,825 C821.14,870.68 786.36,845.71 707,885 C701.41,887.77 695.79,890.77 690.2,893.94 " fill="none" id="ClassicScanModule-backto-Axis" style="stroke:#181818;stroke-width:1.0;"/><polygon fill="#181818" points="914.21,813.71,907.0018,813.9147,904.4184,820.6472,911.6266,820.4425,914.21,813.71" style="stroke:#181818;stroke-width:1.0;"/><text fill="#000000" font-family="sans-serif" font-size="13" lengthAdjust="spacing" textLength="8" x="698.0891" y="884.8418">n</text></g><!--reverse link ClassicScanModule to Channel--><g id="link_ClassicScanModule_Channel"><path codeLine="86" d="M1166.2571,810.9264 C1208.0471,850.3664 1244.25,884.53 1278.83,917.16 " fill="none" id="ClassicScanModule-backto-Channel" style="stroke:#181818;stroke-width:1.0;"/><polygon fill="#181818" points="1157.53,802.69,1159.1481,809.7172,1166.2571,810.9264,1164.639,803.8991,1157.53,802.69" style="stroke:#181818;stroke-width:1.0;"/><text fill="#000000" font-family="sans-serif" font-size="13" lengthAdjust="spacing" textLength="8" x="1263.1312" y="906.3821">n</text></g><!--reverse link ClassicScanModule to PostScan--><g id="link_ClassicScanModule_PostScan"><path codeLine="87" d="M1067.8508,836.8044 C1075.5708,872.8844 1080.88,897.69 1086.82,925.43 " fill="none" id="ClassicScanModule-backto-PostScan" style="stroke:#181818;stroke-width:1.0;"/><polygon fill="#181818" points="1065.34,825.07,1062.6839,831.7741,1067.8508,836.8044,1070.5069,830.1003,1065.34,825.07" style="stroke:#181818;stroke-width:1.0;"/><text fill="#000000" font-family="sans-serif" font-size="13" lengthAdjust="spacing" textLength="8" x="1076.7373" y="914.2794">n</text></g><!--reverse link ClassicScanModule to Positioning--><g id="link_ClassicScanModule_Positioning"><path codeLine="88" d="M904.2761,821.595 C898.5561,825.135 902.93,822.09 897,825 C719.47,912.23 642.36,818.68 456,885 C433.37,893.05 410.46,904.98 389.77,917.47 " fill="none" id="ClassicScanModule-backto-Positioning" style="stroke:#181818;stroke-width:1.0;"/><polygon fill="#181818" points="914.48,815.28,907.273,815.0362,904.2761,821.595,911.483,821.8388,914.48,815.28" style="stroke:#181818;stroke-width:1.0;"/><text fill="#000000" font-family="sans-serif" font-size="13" lengthAdjust="spacing" textLength="8" x="391.2218" y="906.3295">n</text></g><!--reverse link ClassicScanModule to Plot--><g id="link_ClassicScanModule_Plot"><path codeLine="89" d="M905.0485,818.692 C899.3185,823.552 902.73,820.5 897,825 C857.14,856.32 834.53,847.88 800,885 C782.39,903.93 769.62,930.89 762.07,949.97 " fill="none" id="ClassicScanModule-backto-Plot" style="stroke:#181818;stroke-width:1.0;"/><polygon fill="#181818" points="914.2,810.93,907.0369,811.7605,905.0485,818.692,912.2116,817.8615,914.2,810.93" style="stroke:#181818;stroke-width:1.0;"/><text fill="#000000" font-family="sans-serif" font-size="13" lengthAdjust="spacing" textLength="8" x="755.1129" y="938.9743">n</text></g><!--link Plot to GMN46--><g id="link_Plot_GMN46"><path d="M761.28,998.29 C768.41,1017.79 780.99,1045.21 800,1063 C848.24,1108.14 881.62,1085.48 936,1123 C957.67,1137.95 978.33,1160.1 991.71,1175.88 " fill="none" id="Plot-GMN46" style="stroke:#181818;stroke-width:1.0;stroke-dasharray:7.0,7.0;"/></g><!--reverse link StaticAxisSnapshot to Axis--><g id="link_StaticAxisSnapshot_Axis"><path codeLine="114" d="M765.8289,728.7065 C745.1989,756.5065 721.24,788.72 694,825 C679.49,844.33 663.87,865.03 649.04,884.65 " fill="none" id="StaticAxisSnapshot-backto-Axis" style="stroke:#181818;stroke-width:1.0;"/><polygon fill="#181818" points="772.98,719.07,766.1923,721.5045,765.8289,728.7065,772.6166,726.2719,772.98,719.07" style="stroke:#181818;stroke-width:1.0;"/><text fill="#000000" font-family="sans-serif" font-size="13" lengthAdjust="spacing" textLength="8" x="646.0635" y="873.9895">n</text></g><!--reverse link StaticChannelSnapshot to Channel--><g id="link_StaticChannelSnapshot_Channel"><path codeLine="119" d="M1324.4129,731.0211 C1327.0829,778.5611 1331.55,858.11 1334.87,917.32 " fill="none" id="StaticChannelSnapshot-backto-Channel" style="stroke:#181818;stroke-width:1.0;"/><polygon fill="#181818" points="1323.74,719.04,1320.0827,725.2549,1324.4129,731.0211,1328.0702,724.8063,1323.74,719.04" style="stroke:#181818;stroke-width:1.0;"/><text fill="#000000" font-family="sans-serif" font-size="13" lengthAdjust="spacing" textLength="8" x="1326.001" y="906.5616">n</text></g><!--reverse link Axis to StepFunction--><g id="link_Axis_StepFunction"><path codeLine="131" d="M699.7365,1062.3739 C728.0165,1083.9739 748.69,1100.35 776,1123 C781.61,1127.65 787.37,1132.56 793.1,1137.53 " fill="none" id="Axis-backto-StepFunction" style="stroke:#181818;stroke-width:1.0;"/><polygon fill="#181818" points="690.2,1055.09,692.5403,1061.9108,699.7365,1062.3739,697.3962,1055.5531,690.2,1055.09" style="stroke:#181818;stroke-width:1.0;"/></g><!--reverse link Axis to PositionMode--><g id="link_Axis_PositionMode"><path codeLine="132" d="M463.901,1054.7041 C430.691,1077.9641 404.24,1097.44 372,1123 C359.32,1133.05 346.02,1144.48 333.94,1155.21 " fill="none" id="Axis-backto-PositionMode" style="stroke:#181818;stroke-width:1.0;"/><polygon fill="#181818" points="473.73,1047.82,466.5208,1047.9857,463.901,1054.7041,471.1102,1054.5384,473.73,1047.82" style="stroke:#181818;stroke-width:1.0;"/></g><!--reverse link Axis to StartStopStep--><g id="link_Axis_StartStopStep"><path codeLine="133" d="M532.0851,1073.9239 C519.1151,1099.6339 510.72,1116.27 499.07,1139.36 " fill="none" id="Axis-backto-StartStopStep" style="stroke:#181818;stroke-width:1.0;"/><polygon fill="#181818" points="537.49,1063.21,531.2163,1066.7653,532.0851,1073.9239,538.3589,1070.3686,537.49,1063.21" style="stroke:#181818;stroke-width:1.0;"/></g><!--reverse link Axis to Controller--><g id="link_Axis_Controller"><path codeLine="134" d="M462.8497,1038.3512 C441.0897,1048.9912 428.94,1054.22 407,1063 C322.03,1097.02 292.9,1084.21 210,1123 C190.88,1131.95 171.21,1143.83 153.89,1155.36 " fill="none" id="Axis-backto-Controller" style="stroke:#181818;stroke-width:1.0;"/><polygon fill="#181818" points="473.63,1033.08,466.4828,1032.1222,462.8497,1038.3512,469.9969,1039.309,473.63,1033.08" style="stroke:#181818;stroke-width:1.0;"/></g><!--reverse link Axis to StepFunctionRange--><g id="link_Axis_StepFunctionRange"><path codeLine="135" d="M623.0758,1074.2992 C636.2758,1106.2192 645.95,1129.6 656.57,1155.28 " fill="none" id="Axis-backto-StepFunctionRange" style="stroke:#181818;stroke-width:1.0;"/><polygon fill="#181818" points="618.49,1063.21,617.0865,1070.2832,623.0758,1074.2992,624.4793,1067.226,618.49,1063.21" style="stroke:#181818;stroke-width:1.0;"/></g><!--reverse link Channel to StandardChannel--><g id="link_Channel_StandardChannel"><path codeLine="148" d="M1354.935,1048.055 C1362.045,1078.725 1366.85,1099.43 1374.24,1131.32 " fill="none" id="Channel-backto-StandardChannel" style="stroke:#181818;stroke-width:1.0;"/><polygon fill="none" points="1350.87,1030.52,1349.09,1049.41,1360.78,1046.7,1350.87,1030.52" style="stroke:#181818;stroke-width:1.0;"/></g><!--reverse link Channel to IntervalChannel--><g id="link_Channel_IntervalChannel"><path codeLine="149" d="M1286.154,1044.9826 C1257.294,1083.9326 1230.12,1120.61 1204.29,1155.46 " fill="none" id="Channel-backto-IntervalChannel" style="stroke:#181818;stroke-width:1.0;"/><polygon fill="none" points="1296.87,1030.52,1281.3331,1041.4106,1290.9748,1048.5546,1296.87,1030.52" style="stroke:#181818;stroke-width:1.0;"/></g><!--reverse link Channel to Event--><g id="link_Channel_Event"><path codeLine="150" d="M1416.2536,1038.5414 C1447.5036,1065.1014 1474.94,1090.38 1505,1123 C1519.08,1138.28 1533.11,1157.12 1543.33,1171.69 " fill="none" id="Channel-backto-Event" style="stroke:#181818;stroke-width:1.0;"/><polygon fill="#181818" points="1407.11,1030.77,1409.0914,1037.7036,1416.2536,1038.5414,1414.2723,1031.6078,1407.11,1030.77" style="stroke:#181818;stroke-width:1.0;"/><text fill="#000000" font-family="sans-serif" font-size="13" lengthAdjust="spacing" textLength="8" x="1530.5354" y="1161.0194">n</text></g><!--SRC=[dLTDZnCv4BtthuYuh8Gqp1tj1GqWSK0QROuBGfwuah5msvPT7HAM_7VAxdAtxUw4XRcaNLMkBp-_ylprZEZ2w_jxfuN1eTUlThQ_tsaHmfrKuk15ttLfkTdkXDdyrstepuC3WJix6DoytYY3S02VD1B2pYk7oXhI1FJA79A2tFQGp0jX44VOAmr6zD2QcxtoVJGWnPEr6eIPzZWz75GCy60DUgirH- -jKMYzJV73vF7Vp-DE51xXE6RnBlvoCT8cQSXYjd_o8BwkQW9QjwfmOWX0kKkLCtYCaeSioVkfbRsLWuPe4XlxCQr8VUbIdr_UtPN5JR8NvaLXNylhKBLkBBSp5e6wYMZxZTqtEoWJW4q09xn0-6J6LervlkgwztHGv2-57nrfs6Dq4pNjvdYiyzuPGMFYZAFbkP-S3GsapaiH1O45z0m41Da8XNDWv4AiIi7OSaxixn-nyp5TjMiQNLfiKQ3QlJcfi3N2XMUBLqmUdeKneAzQlJrJ4txXYMrQLzpL6IRSrNW4FI2j8_pucv5NT_pI5Pjd6F6M7E03zSaVXURu78Ky7AXxYfNaTA-jmEb-E91Fvp8KUvlSin_QEpGWQ9FCEsr8E2KXxnNKjI_fB4lg6DDSo8trlT3gEomqQtHowSfmpNNCdMzXKfQqneu143MWIkNDxU9MIj3YlAPWCepLDcHO6t3bwpQhVFK7tESyHFfAtEOXriuASKfi5f7C4iudIXaxsOSDE3cXxyABcxlEshpC1jgcd1xfD_7byXHgqhkkv_nlMCHYRgYvgbiXkBhR9hd4MrRQhl0t2LlYZVsPYBUnJmtv1StpNHjRmu1kBqo-itYcCHY_gqkAlxLpX27TZ2-MWAgCqDacWtZolSAL5APLDpHPMYnPUoAI4hiq49Q65IGgVyk0Ly6VFRTRMa2n_nZh5jNHm7FxmUpukRMbvNjULfU93XUAoqJGWlb55CawEaeEQBsbTVGqHrXzeLrxW-MOMeNcjUU5EK2JvZzHHcr9bRvCKxEeOP9McHUsPRgJk4XerUqOimCpz9NZwN6hwOYEOuV4Kx1wm0BWzHJaK_x_i-OguqhOWoSjqtM5_nmplokC55vEv5CgcrazAPjtu0JVqbD6sX6yEApEBnf14evACDxcGTKhetfgPoKJ9u48lSEm68D6qdoHv_mONzpqwcGvhmJM1NL4zAu8mNrJ4fyN6XLwGHnJJz8BWw442GTz8sNw_JXeL4wVqoA-TzF7Oxe3usS1-oJ8o9ugQW380U0K1sfO_B-qVeqktKy0]--></g></svg>