<?xml version="1.0" encoding="us-ascii" standalone="no"?><svg xmlns="http://www.w3.org/2000/svg" xmlns:xlink="http://www.w3.org/1999/xlink" contentStyleType="text/css" height="326px" preserveAspectRatio="none" style="width:280px;height:326px;background:#FFFFFF;" version="1.1" viewBox="0 0 280 326" width="280px" zoomAndPan="magnify"><defs/><g><!--cluster scan--><g id="cluster_scan"><path d="M89.5,6 L125.5,6 A3.75,3.75 0 0 1 128,8.5 L135,28.2969 L270.5,28.2969 A2.5,2.5 0 0 1 273,30.7969 L273,236.5 A2.5,2.5 0 0 1 270.5,239 L89.5,239 A2.5,2.5 0 0 1 87,236.5 L87,8.5 A2.5,2.5 0 0 1 89.5,6 " fill="none" style="stroke:#000000;stroke-width:1.5;"/><line style="stroke:#000000;stroke-width:1.5;" x1="87" x2="135" y1="28.2969" y2="28.2969"/><text fill="#000000" font-family="sans-serif" font-size="14" font-weight="bold" lengthAdjust="spacing" textLength="35" x="91" y="20.9951">scan</text></g><!--cluster entities--><g id="cluster_entities"><path d="M113.5,49 L176.5,49 A3.75,3.75 0 0 1 179,51.5 L186,71.2969 L246.5,71.2969 A2.5,2.5 0 0 1 249,73.7969 L249,212.5 A2.5,2.5 0 0 1 246.5,215 L113.5,215 A2.5,2.5 0 0 1 111,212.5 L111,51.5 A2.5,2.5 0 0 1 113.5,49 " fill="none" style="stroke:#000000;stroke-width:1.5;"/><line style="stroke:#000000;stroke-width:1.5;" x1="111" x2="186" y1="71.2969" y2="71.2969"/><text fill="#000000" font-family="sans-serif" font-size="14" font-weight="bold" lengthAdjust="spacing" textLength="62" x="115" y="63.9951">entities</text></g><!--cluster file--><g id="cluster_file"><path d="M137.5,92 L164.5,92 A3.75,3.75 0 0 1 167,94.5 L174,114.2969 L222.5,114.2969 A2.5,2.5 0 0 1 225,116.7969 L225,188.5 A2.5,2.5 0 0 1 222.5,191 L137.5,191 A2.5,2.5 0 0 1 135,188.5 L135,94.5 A2.5,2.5 0 0 1 137.5,92 " fill="none" style="stroke:#000000;stroke-width:1.5;"/><line style="stroke:#000000;stroke-width:1.5;" x1="135" x2="174" y1="114.2969" y2="114.2969"/><text fill="#000000" font-family="sans-serif" font-size="14" font-weight="bold" lengthAdjust="spacing" textLength="26" x="139" y="106.9951">file</text></g><!--class File--><g id="elem_File"><rect fill="#F1F1F1" height="48" id="File" rx="2.5" ry="2.5" style="stroke:#181818;stroke-width:0.5;" width="57" x="151.5" y="127"/><ellipse cx="166.5" cy="143" fill="#ADD1B2" rx="11" ry="11" style="stroke:#181818;stroke-width:1.0;"/><path d="M169.4844,148.6406 Q168.9063,148.9375 168.2656,149.0781 Q167.625,149.2344 166.9219,149.2344 Q164.4063,149.2344 163.0781,147.5938 Q161.7656,145.9375 161.7656,142.8125 Q161.7656,139.6719 163.0781,138.0313 Q164.4063,136.375 166.9219,136.375 Q167.625,136.375 168.2656,136.5313 Q168.9219,136.6719 169.4844,136.9688 L169.4844,139.6875 Q168.8438,139.1094 168.25,138.8438 Q167.6563,138.5781 167.0313,138.5781 Q165.6875,138.5781 165,139.6406 Q164.3125,140.7031 164.3125,142.8125 Q164.3125,144.9063 165,145.9844 Q165.6875,147.0469 167.0313,147.0469 Q167.6563,147.0469 168.25,146.7813 Q168.8438,146.5 169.4844,145.9219 L169.4844,148.6406 Z " fill="#000000"/><text fill="#000000" font-family="sans-serif" font-size="14" lengthAdjust="spacing" textLength="25" x="180.5" y="147.8467">File</text><line style="stroke:#181818;stroke-width:0.5;" x1="152.5" x2="207.5" y1="159" y2="159"/><line style="stroke:#181818;stroke-width:0.5;" x1="152.5" x2="207.5" y1="167" y2="167"/></g><!--class File--><g id="elem_File"><rect codeLine="3" fill="#F1F1F1" height="80.5938" id="File" rx="2.5" ry="2.5" style="stroke:#181818;stroke-width:0.5;" width="64" x="7" y="110.5"/><ellipse cx="25.15" cy="126.5" fill="#B4A7E5" rx="11" ry="11" style="stroke:#181818;stroke-width:1.0;"/><path d="M21.0719,122.25 L21.0719,120.0938 L28.4625,120.0938 L28.4625,122.25 L25.9938,122.25 L25.9938,130.3438 L28.4625,130.3438 L28.4625,132.5 L21.0719,132.5 L21.0719,130.3438 L23.5406,130.3438 L23.5406,122.25 L21.0719,122.25 Z " fill="#000000"/><text fill="#000000" font-family="sans-serif" font-size="14" font-style="italic" lengthAdjust="spacing" textLength="25" x="39.85" y="131.3467">File</text><line style="stroke:#181818;stroke-width:0.5;" x1="8" x2="70" y1="142.5" y2="142.5"/><text fill="#000000" font-family="sans-serif" font-size="14" lengthAdjust="spacing" textLength="52" x="13" y="159.4951">version</text><line style="stroke:#181818;stroke-width:0.5;" x1="8" x2="70" y1="166.7969" y2="166.7969"/><text fill="#000000" font-family="sans-serif" font-size="14" lengthAdjust="spacing" textLength="41" x="13" y="183.792">load()</text></g><!--class Scan--><g id="elem_Scan"><rect codeLine="8" fill="#F1F1F1" height="64.2969" id="Scan" rx="2.5" ry="2.5" style="stroke:#181818;stroke-width:0.5;" width="72" x="17" y="255"/><ellipse cx="34.25" cy="271" fill="#ADD1B2" rx="11" ry="11" style="stroke:#181818;stroke-width:1.0;"/><path d="M37.2344,276.6406 Q36.6563,276.9375 36.0156,277.0781 Q35.375,277.2344 34.6719,277.2344 Q32.1563,277.2344 30.8281,275.5938 Q29.5156,273.9375 29.5156,270.8125 Q29.5156,267.6719 30.8281,266.0313 Q32.1563,264.375 34.6719,264.375 Q35.375,264.375 36.0156,264.5313 Q36.6719,264.6719 37.2344,264.9688 L37.2344,267.6875 Q36.5938,267.1094 36,266.8438 Q35.4063,266.5781 34.7813,266.5781 Q33.4375,266.5781 32.75,267.6406 Q32.0625,268.7031 32.0625,270.8125 Q32.0625,272.9063 32.75,273.9844 Q33.4375,275.0469 34.7813,275.0469 Q35.4063,275.0469 36,274.7813 Q36.5938,274.5 37.2344,273.9219 L37.2344,276.6406 Z " fill="#000000"/><text fill="#000000" font-family="sans-serif" font-size="14" lengthAdjust="spacing" textLength="35" x="48.75" y="275.8467">Scan</text><line style="stroke:#181818;stroke-width:0.5;" x1="18" x2="88" y1="287" y2="287"/><line style="stroke:#181818;stroke-width:0.5;" x1="18" x2="88" y1="295" y2="295"/><text fill="#000000" font-family="sans-serif" font-size="14" lengthAdjust="spacing" textLength="60" x="23" y="311.9951">extract()</text></g><!--class Station--><g id="elem_Station"><rect codeLine="12" fill="#F1F1F1" height="48" id="Station" rx="2.5" ry="2.5" style="stroke:#181818;stroke-width:0.5;" width="82" x="131" y="263"/><ellipse cx="146" cy="279" fill="#ADD1B2" rx="11" ry="11" style="stroke:#181818;stroke-width:1.0;"/><path d="M148.9844,284.6406 Q148.4063,284.9375 147.7656,285.0781 Q147.125,285.2344 146.4219,285.2344 Q143.9063,285.2344 142.5781,283.5938 Q141.2656,281.9375 141.2656,278.8125 Q141.2656,275.6719 142.5781,274.0313 Q143.9063,272.375 146.4219,272.375 Q147.125,272.375 147.7656,272.5313 Q148.4219,272.6719 148.9844,272.9688 L148.9844,275.6875 Q148.3438,275.1094 147.75,274.8438 Q147.1563,274.5781 146.5313,274.5781 Q145.1875,274.5781 144.5,275.6406 Q143.8125,276.7031 143.8125,278.8125 Q143.8125,280.9063 144.5,281.9844 Q145.1875,283.0469 146.5313,283.0469 Q147.1563,283.0469 147.75,282.7813 Q148.3438,282.5 148.9844,281.9219 L148.9844,284.6406 Z " fill="#000000"/><text fill="#000000" font-family="sans-serif" font-size="14" lengthAdjust="spacing" textLength="50" x="160" y="283.8467">Station</text><line style="stroke:#181818;stroke-width:0.5;" x1="132" x2="212" y1="295" y2="295"/><line style="stroke:#181818;stroke-width:0.5;" x1="132" x2="212" y1="303" y2="303"/></g><!--reverse link File to Scan--><g id="link_File_Scan"><path d="M145.7881,188.1048 C124.9381,210.1048 105.74,230.36 82.62,254.75 " fill="none" id="File-backto-Scan" style="stroke:#181818;stroke-width:1.0;"/><polygon fill="none" points="158.17,175.04,141.4332,183.9775,150.1431,192.2321,158.17,175.04" style="stroke:#181818;stroke-width:1.0;"/></g><!--reverse link File to Scan--><g id="link_File_Scan"><path d="M45.0341,209.7422 C47.1341,229.8022 47.76,235.87 49.72,254.6 " fill="none" id="File-backto-Scan-1" style="stroke:#181818;stroke-width:1.0;stroke-dasharray:7.0,7.0;"/><polygon fill="none" points="43.16,191.84,39.0667,210.3669,51.0015,209.1175,43.16,191.84" style="stroke:#181818;stroke-width:1.0;"/></g><!--reverse link File to Station--><g id="link_File_Station"><path d="M177.551,193.0082 C176.091,217.5482 174.85,238.22 173.38,262.82 " fill="none" id="File-backto-Station" style="stroke:#181818;stroke-width:1.0;"/><polygon fill="none" points="178.62,175.04,171.5616,192.6519,183.5404,193.3646,178.62,175.04" style="stroke:#181818;stroke-width:1.0;"/></g><!--reverse link File to Station--><g id="link_File_Station"><path d="M83.8802,197.2154 C107.8602,221.3754 127.37,241.03 148.85,262.68 " fill="none" id="File-backto-Station-1" style="stroke:#181818;stroke-width:1.0;stroke-dasharray:7.0,7.0;"/><polygon fill="none" points="71.2,184.44,79.6218,201.4422,88.1387,192.9887,71.2,184.44" style="stroke:#181818;stroke-width:1.0;"/></g><!--SRC=[dSsn3G8n30NGtbEu0mgIdW5OW0cid0yi9KuK6uI4RlUBKa6BArjV__dmS6zsYR5bKd-M758jCMKoEoz2zqu5GDIvhvGOhv8PFu1ZNjnDgiuzLrgE9zW0PXDlYHJvxQoBeOqZiBgui8Lr264oKbhcCWBxPaUhK_8VpSd7fp_03NO0]--></g></svg>