<?xml version="1.0" encoding="us-ascii" standalone="no"?><svg xmlns="http://www.w3.org/2000/svg" xmlns:xlink="http://www.w3.org/1999/xlink" contentStyleType="text/css" height="263px" preserveAspectRatio="none" style="width:175px;height:263px;background:#FFFFFF;" version="1.1" viewBox="0 0 175 263" width="175px" zoomAndPan="magnify"><defs/><g><!--cluster dataset--><g id="cluster_dataset"><path d="M8.5,6 L58.5,6 A3.75,3.75 0 0 1 61,8.5 L68,28.4063 L165.5,28.4063 A2.5,2.5 0 0 1 168,30.9063 L168,169.5 A2.5,2.5 0 0 1 165.5,172 L8.5,172 A2.5,2.5 0 0 1 6,169.5 L6,8.5 A2.5,2.5 0 0 1 8.5,6 " fill="none" style="stroke:#000000;stroke-width:1.5;"/><line style="stroke:#000000;stroke-width:1.5;" x1="6" x2="68" y1="28.4063" y2="28.4063"/><text fill="#000000" font-family="sans-serif" font-size="14" font-weight="bold" lengthAdjust="spacing" textLength="49" x="10" y="20.9883">dataset</text></g><!--cluster entities--><g id="cluster_entities"><path d="M32.5,49 L82.5,49 A3.75,3.75 0 0 1 85,51.5 L92,71.4063 L141.5,71.4063 A2.5,2.5 0 0 1 144,73.9063 L144,145.5 A2.5,2.5 0 0 1 141.5,148 L32.5,148 A2.5,2.5 0 0 1 30,145.5 L30,51.5 A2.5,2.5 0 0 1 32.5,49 " fill="none" style="stroke:#000000;stroke-width:1.5;"/><line style="stroke:#000000;stroke-width:1.5;" x1="30" x2="92" y1="71.4063" y2="71.4063"/><text fill="#000000" font-family="sans-serif" font-size="14" font-weight="bold" lengthAdjust="spacing" textLength="49" x="34" y="63.9883">entities</text></g><!--class Dataset--><g id="elem_Dataset"><rect fill="#F1F1F1" height="48" id="Dataset" rx="2.5" ry="2.5" style="stroke:#181818;stroke-width:0.5;" width="81" x="46.5" y="84"/><ellipse cx="61.5" cy="100" fill="#ADD1B2" rx="11" ry="11" style="stroke:#181818;stroke-width:1.0;"/><path d="M61.5469,106.2031 C63.0469,106.2031 64.2813,105.6406 65.1875,104.5781 L63.8125,103.0625 C63.2656,103.6563 62.6094,104.0469 61.8125,104.0469 C60.1406,104.0469 58.9844,102.7188 58.9844,100.4375 C58.9844,98.2188 60.1406,96.875 61.7031,96.875 C62.5156,96.875 63.1094,97.1875 63.6406,97.6719 L65.0156,96.125 C64.2656,95.3906 63.1094,94.7188 61.7031,94.7188 C58.75,94.7188 56.4219,96.8594 56.4219,100.5313 C56.4219,104.25 58.7969,106.2031 61.5469,106.2031 Z " fill="#000000"/><text fill="#000000" font-family="sans-serif" font-size="14" lengthAdjust="spacing" textLength="49" x="75.5" y="104.7852">Dataset</text><line style="stroke:#181818;stroke-width:0.5;" x1="47.5" x2="126.5" y1="116" y2="116"/><line style="stroke:#181818;stroke-width:0.5;" x1="47.5" x2="126.5" y1="124" y2="124"/></g><!--class Dataset--><g id="elem_Dataset"><rect codeLine="3" fill="#F1F1F1" height="64.4063" id="Dataset" rx="2.5" ry="2.5" style="stroke:#181818;stroke-width:0.5;" width="81" x="46.5" y="192"/><ellipse cx="61.5" cy="208" fill="#ADD1B2" rx="11" ry="11" style="stroke:#181818;stroke-width:1.0;"/><path d="M61.5469,214.2031 C63.0469,214.2031 64.2813,213.6406 65.1875,212.5781 L63.8125,211.0625 C63.2656,211.6563 62.6094,212.0469 61.8125,212.0469 C60.1406,212.0469 58.9844,210.7188 58.9844,208.4375 C58.9844,206.2188 60.1406,204.875 61.7031,204.875 C62.5156,204.875 63.1094,205.1875 63.6406,205.6719 L65.0156,204.125 C64.2656,203.3906 63.1094,202.7188 61.7031,202.7188 C58.75,202.7188 56.4219,204.8594 56.4219,208.5313 C56.4219,212.25 58.7969,214.2031 61.5469,214.2031 Z " fill="#000000"/><text fill="#000000" font-family="sans-serif" font-size="14" lengthAdjust="spacing" textLength="49" x="75.5" y="212.7852">Dataset</text><line style="stroke:#181818;stroke-width:0.5;" x1="47.5" x2="126.5" y1="224" y2="224"/><line style="stroke:#181818;stroke-width:0.5;" x1="47.5" x2="126.5" y1="232" y2="232"/><text fill="#000000" font-family="sans-serif" font-size="14" lengthAdjust="spacing" textLength="37" x="52.5" y="248.9883">load()</text></g><!--reverse link Dataset to Dataset--><g id="link_Dataset_Dataset"><path d="M87,150.07 C87,167.25 87,172.88 87,191.75 " fill="none" id="Dataset-backto-Dataset" style="stroke:#181818;stroke-width:1.0;"/><polygon fill="none" points="87,132.07,81,150.07,93,150.07,87,132.07" style="stroke:#181818;stroke-width:1.0;"/></g><!--SRC=[DSez2e0m343XFQVefWwskxCN2KtGGlg3YI28TrSKt_R1wrQpfbC8JR3OdiN7caCKL1qfuR9X1dZfPZHKDiU7SI5rzDbpiMI9rV_32Uv9Ab8_m0Kt]--></g></svg>