<?xml version="1.0" encoding="us-ascii" standalone="no"?><svg xmlns="http://www.w3.org/2000/svg" xmlns:xlink="http://www.w3.org/1999/xlink" contentStyleType="text/css" height="841px" preserveAspectRatio="none" style="width:1198px;height:841px;background:#FFFFFF;" version="1.1" viewBox="0 0 1198 841" width="1198px" zoomAndPan="magnify"><defs/><g><!--cluster evedata--><g id="cluster_evedata"><path d="M8.5,6 L73.5,6 A3.75,3.75 0 0 1 76,8.5 L83,28.2969 L1188.5,28.2969 A2.5,2.5 0 0 1 1191,30.7969 L1191,831.5 A2.5,2.5 0 0 1 1188.5,834 L8.5,834 A2.5,2.5 0 0 1 6,831.5 L6,8.5 A2.5,2.5 0 0 1 8.5,6 " fill="none" style="stroke:#000000;stroke-width:1.5;"/><line style="stroke:#000000;stroke-width:1.5;" x1="6" x2="83" y1="28.2969" y2="28.2969"/><text fill="#000000" font-family="sans-serif" font-size="14" font-weight="bold" lengthAdjust="spacing" textLength="64" x="10" y="20.9951">evedata</text></g><!--cluster scan--><g id="cluster_scan"><path d="M882.5,49 L918.5,49 A3.75,3.75 0 0 1 921,51.5 L928,71.2969 L1164.5,71.2969 A2.5,2.5 0 0 1 1167,73.7969 L1167,807.5 A2.5,2.5 0 0 1 1164.5,810 L882.5,810 A2.5,2.5 0 0 1 880,807.5 L880,51.5 A2.5,2.5 0 0 1 882.5,49 " fill="none" style="stroke:#000000;stroke-width:1.5;"/><line style="stroke:#000000;stroke-width:1.5;" x1="880" x2="928" y1="71.2969" y2="71.2969"/><text fill="#000000" font-family="sans-serif" font-size="14" font-weight="bold" lengthAdjust="spacing" textLength="35" x="884" y="63.9951">scan</text></g><!--cluster boundaries--><g id="cluster_boundaries"><path d="M914.5,100 L1004.5,100 A3.75,3.75 0 0 1 1007,102.5 L1014,122.2969 L1123.5,122.2969 A2.5,2.5 0 0 1 1126,124.7969 L1126,217.5 A2.5,2.5 0 0 1 1123.5,220 L914.5,220 A2.5,2.5 0 0 1 912,217.5 L912,102.5 A2.5,2.5 0 0 1 914.5,100 " fill="none" style="stroke:#000000;stroke-width:1.5;"/><line style="stroke:#000000;stroke-width:1.5;" x1="912" x2="1014" y1="122.2969" y2="122.2969"/><text fill="#000000" font-family="sans-serif" font-size="14" font-weight="bold" lengthAdjust="spacing" textLength="89" x="916" y="114.9951">boundaries</text></g><!--cluster controllers--><g id="cluster_controllers"><path d="M914.5,260 L1002.5,260 A3.75,3.75 0 0 1 1005,262.5 L1012,282.2969 L1132.5,282.2969 A2.5,2.5 0 0 1 1135,284.7969 L1135,377.5 A2.5,2.5 0 0 1 1132.5,380 L914.5,380 A2.5,2.5 0 0 1 912,377.5 L912,262.5 A2.5,2.5 0 0 1 914.5,260 " fill="none" style="stroke:#000000;stroke-width:1.5;"/><line style="stroke:#000000;stroke-width:1.5;" x1="912" x2="1012" y1="282.2969" y2="282.2969"/><text fill="#000000" font-family="sans-serif" font-size="14" font-weight="bold" lengthAdjust="spacing" textLength="87" x="916" y="274.9951">controllers</text></g><!--cluster entities--><g id="cluster_entities"><path d="M914.5,420 L977.5,420 A3.75,3.75 0 0 1 980,422.5 L987,442.2969 L1121.5,442.2969 A2.5,2.5 0 0 1 1124,444.7969 L1124,775.5 A2.5,2.5 0 0 1 1121.5,778 L914.5,778 A2.5,2.5 0 0 1 912,775.5 L912,422.5 A2.5,2.5 0 0 1 914.5,420 " fill="none" style="stroke:#000000;stroke-width:1.5;"/><line style="stroke:#000000;stroke-width:1.5;" x1="912" x2="987" y1="442.2969" y2="442.2969"/><text fill="#000000" font-family="sans-serif" font-size="14" font-weight="bold" lengthAdjust="spacing" textLength="62" x="916" y="434.9951">entities</text></g><!--cluster evefile--><g id="cluster_evefile"><path d="M412.5,49 L468.5,49 A3.75,3.75 0 0 1 471,51.5 L478,71.2969 L853.5,71.2969 A2.5,2.5 0 0 1 856,73.7969 L856,807.5 A2.5,2.5 0 0 1 853.5,810 L412.5,810 A2.5,2.5 0 0 1 410,807.5 L410,51.5 A2.5,2.5 0 0 1 412.5,49 " fill="none" style="stroke:#000000;stroke-width:1.5;"/><line style="stroke:#000000;stroke-width:1.5;" x1="410" x2="478" y1="71.2969" y2="71.2969"/><text fill="#000000" font-family="sans-serif" font-size="14" font-weight="bold" lengthAdjust="spacing" textLength="55" x="414" y="63.9951">evefile</text></g><!--cluster boundaries--><g id="cluster_boundaries"><path d="M444.5,100 L534.5,100 A3.75,3.75 0 0 1 537,102.5 L544,122.2969 L686.5,122.2969 A2.5,2.5 0 0 1 689,124.7969 L689,217.5 A2.5,2.5 0 0 1 686.5,220 L444.5,220 A2.5,2.5 0 0 1 442,217.5 L442,102.5 A2.5,2.5 0 0 1 444.5,100 " fill="none" style="stroke:#000000;stroke-width:1.5;"/><line style="stroke:#000000;stroke-width:1.5;" x1="442" x2="544" y1="122.2969" y2="122.2969"/><text fill="#000000" font-family="sans-serif" font-size="14" font-weight="bold" lengthAdjust="spacing" textLength="89" x="446" y="114.9951">boundaries</text></g><!--cluster controllers--><g id="cluster_controllers"><path d="M444.5,260 L532.5,260 A3.75,3.75 0 0 1 535,262.5 L542,282.2969 L821.5,282.2969 A2.5,2.5 0 0 1 824,284.7969 L824,377.5 A2.5,2.5 0 0 1 821.5,380 L444.5,380 A2.5,2.5 0 0 1 442,377.5 L442,262.5 A2.5,2.5 0 0 1 444.5,260 " fill="none" style="stroke:#000000;stroke-width:1.5;"/><line style="stroke:#000000;stroke-width:1.5;" x1="442" x2="542" y1="282.2969" y2="282.2969"/><text fill="#000000" font-family="sans-serif" font-size="14" font-weight="bold" lengthAdjust="spacing" textLength="87" x="446" y="274.9951">controllers</text></g><!--cluster entities--><g id="cluster_entities"><path d="M444.5,420 L507.5,420 A3.75,3.75 0 0 1 510,422.5 L517,442.2969 L591.5,442.2969 A2.5,2.5 0 0 1 594,444.7969 L594,775.5 A2.5,2.5 0 0 1 591.5,778 L444.5,778 A2.5,2.5 0 0 1 442,775.5 L442,422.5 A2.5,2.5 0 0 1 444.5,420 " fill="none" style="stroke:#000000;stroke-width:1.5;"/><line style="stroke:#000000;stroke-width:1.5;" x1="442" x2="517" y1="442.2969" y2="442.2969"/><text fill="#000000" font-family="sans-serif" font-size="14" font-weight="bold" lengthAdjust="spacing" textLength="62" x="446" y="434.9951">entities</text></g><!--cluster measurement--><g id="cluster_measurement"><path d="M32.5,49 L144.5,49 A3.75,3.75 0 0 1 147,51.5 L154,71.2969 L383.5,71.2969 A2.5,2.5 0 0 1 386,73.7969 L386,682.5 A2.5,2.5 0 0 1 383.5,685 L32.5,685 A2.5,2.5 0 0 1 30,682.5 L30,51.5 A2.5,2.5 0 0 1 32.5,49 " fill="none" style="stroke:#000000;stroke-width:1.5;"/><line style="stroke:#000000;stroke-width:1.5;" x1="30" x2="154" y1="71.2969" y2="71.2969"/><text fill="#000000" font-family="sans-serif" font-size="14" font-weight="bold" lengthAdjust="spacing" textLength="111" x="34" y="63.9951">measurement</text></g><!--cluster boundaries--><g id="cluster_boundaries"><path d="M64.5,100 L154.5,100 A3.75,3.75 0 0 1 157,102.5 L164,122.2969 L258.5,122.2969 A2.5,2.5 0 0 1 261,124.7969 L261,217.5 A2.5,2.5 0 0 1 258.5,220 L64.5,220 A2.5,2.5 0 0 1 62,217.5 L62,102.5 A2.5,2.5 0 0 1 64.5,100 " fill="none" style="stroke:#000000;stroke-width:1.5;"/><line style="stroke:#000000;stroke-width:1.5;" x1="62" x2="164" y1="122.2969" y2="122.2969"/><text fill="#000000" font-family="sans-serif" font-size="14" font-weight="bold" lengthAdjust="spacing" textLength="89" x="66" y="114.9951">boundaries</text></g><!--cluster controllers--><g id="cluster_controllers"><path d="M64.5,260 L152.5,260 A3.75,3.75 0 0 1 155,262.5 L162,282.2969 L351.5,282.2969 A2.5,2.5 0 0 1 354,284.7969 L354,377.5 A2.5,2.5 0 0 1 351.5,380 L64.5,380 A2.5,2.5 0 0 1 62,377.5 L62,262.5 A2.5,2.5 0 0 1 64.5,260 " fill="none" style="stroke:#000000;stroke-width:1.5;"/><line style="stroke:#000000;stroke-width:1.5;" x1="62" x2="162" y1="282.2969" y2="282.2969"/><text fill="#000000" font-family="sans-serif" font-size="14" font-weight="bold" lengthAdjust="spacing" textLength="87" x="66" y="274.9951">controllers</text></g><!--cluster entities--><g id="cluster_entities"><path d="M64.5,420 L127.5,420 A3.75,3.75 0 0 1 130,422.5 L137,442.2969 L258.5,442.2969 A2.5,2.5 0 0 1 261,444.7969 L261,650.5 A2.5,2.5 0 0 1 258.5,653 L64.5,653 A2.5,2.5 0 0 1 62,650.5 L62,422.5 A2.5,2.5 0 0 1 64.5,420 " fill="none" style="stroke:#000000;stroke-width:1.5;"/><line style="stroke:#000000;stroke-width:1.5;" x1="62" x2="137" y1="442.2969" y2="442.2969"/><text fill="#000000" font-family="sans-serif" font-size="14" font-weight="bold" lengthAdjust="spacing" textLength="62" x="66" y="434.9951">entities</text></g><path d="M958,143 L994,143 A3.75,3.75 0 0 1 996.5,145.5 L1003.5,165.2969 L1008,165.2969 A2.5,2.5 0 0 1 1010.5,167.7969 L1010.5,193.0938 A2.5,2.5 0 0 1 1008,195.5938 L958,195.5938 A2.5,2.5 0 0 1 955.5,193.0938 L955.5,145.5 A2.5,2.5 0 0 1 958,143 " fill="#F1F1F1" style="stroke:#181818;stroke-width:0.5;"/><line style="stroke:#181818;stroke-width:0.5;" x1="955.5" x2="1003.5" y1="165.2969" y2="165.2969"/><text fill="#000000" font-family="sans-serif" font-size="14" font-weight="bold" lengthAdjust="spacing" textLength="35" x="959.5" y="157.9951">scan</text><path d="M1048.5,143 L1085.5,143 A3.75,3.75 0 0 1 1088,145.5 L1095,165.2969 L1099.5,165.2969 A2.5,2.5 0 0 1 1102,167.7969 L1102,193.0938 A2.5,2.5 0 0 1 1099.5,195.5938 L1048.5,195.5938 A2.5,2.5 0 0 1 1046,193.0938 L1046,145.5 A2.5,2.5 0 0 1 1048.5,143 " fill="#F1F1F1" style="stroke:#181818;stroke-width:0.5;"/><line style="stroke:#181818;stroke-width:0.5;" x1="1046" x2="1095" y1="165.2969" y2="165.2969"/><text fill="#000000" font-family="sans-serif" font-size="14" font-weight="bold" lengthAdjust="spacing" textLength="36" x="1050" y="157.9951">scml</text><path d="M958,303 L1094,303 A3.75,3.75 0 0 1 1096.5,305.5 L1103.5,325.2969 L1108,325.2969 A2.5,2.5 0 0 1 1110.5,327.7969 L1110.5,353.0938 A2.5,2.5 0 0 1 1108,355.5938 L958,355.5938 A2.5,2.5 0 0 1 955.5,353.0938 L955.5,305.5 A2.5,2.5 0 0 1 958,303 " fill="#F1F1F1" style="stroke:#181818;stroke-width:0.5;"/><line style="stroke:#181818;stroke-width:0.5;" x1="955.5" x2="1103.5" y1="325.2969" y2="325.2969"/><text fill="#000000" font-family="sans-serif" font-size="14" font-weight="bold" lengthAdjust="spacing" textLength="135" x="959.5" y="317.9951">version_mapping</text><path d="M1004.5,463 L1031.5,463 A3.75,3.75 0 0 1 1034,465.5 L1041,485.2969 L1045.5,485.2969 A2.5,2.5 0 0 1 1048,487.7969 L1048,513.0938 A2.5,2.5 0 0 1 1045.5,515.5938 L1004.5,515.5938 A2.5,2.5 0 0 1 1002,513.0938 L1002,465.5 A2.5,2.5 0 0 1 1004.5,463 " fill="#F1F1F1" style="stroke:#181818;stroke-width:0.5;"/><line style="stroke:#181818;stroke-width:0.5;" x1="1002" x2="1041" y1="485.2969" y2="485.2969"/><text fill="#000000" font-family="sans-serif" font-size="14" font-weight="bold" lengthAdjust="spacing" textLength="26" x="1006" y="477.9951">file</text><path d="M947,576 L993,576 A3.75,3.75 0 0 1 995.5,578.5 L1002.5,598.2969 L1007,598.2969 A2.5,2.5 0 0 1 1009.5,600.7969 L1009.5,626.0938 A2.5,2.5 0 0 1 1007,628.5938 L947,628.5938 A2.5,2.5 0 0 1 944.5,626.0938 L944.5,578.5 A2.5,2.5 0 0 1 947,576 " fill="#F1F1F1" style="stroke:#181818;stroke-width:0.5;"/><line style="stroke:#181818;stroke-width:0.5;" x1="944.5" x2="1002.5" y1="598.2969" y2="598.2969"/><text fill="#000000" font-family="sans-serif" font-size="14" font-weight="bold" lengthAdjust="spacing" textLength="45" x="948.5" y="590.9951">setup</text><path d="M1047,576 L1083,576 A3.75,3.75 0 0 1 1085.5,578.5 L1092.5,598.2969 L1097,598.2969 A2.5,2.5 0 0 1 1099.5,600.7969 L1099.5,626.0938 A2.5,2.5 0 0 1 1097,628.5938 L1047,628.5938 A2.5,2.5 0 0 1 1044.5,626.0938 L1044.5,578.5 A2.5,2.5 0 0 1 1047,576 " fill="#F1F1F1" style="stroke:#181818;stroke-width:0.5;"/><line style="stroke:#181818;stroke-width:0.5;" x1="1044.5" x2="1092.5" y1="598.2969" y2="598.2969"/><text fill="#000000" font-family="sans-serif" font-size="14" font-weight="bold" lengthAdjust="spacing" textLength="35" x="1048.5" y="590.9951">scan</text><path d="M948.5,701 L995.5,701 A3.75,3.75 0 0 1 998,703.5 L1005,723.2969 L1009.5,723.2969 A2.5,2.5 0 0 1 1012,725.7969 L1012,751.0938 A2.5,2.5 0 0 1 1009.5,753.5938 L948.5,753.5938 A2.5,2.5 0 0 1 946,751.0938 L946,703.5 A2.5,2.5 0 0 1 948.5,701 " fill="#F1F1F1" style="stroke:#181818;stroke-width:0.5;"/><line style="stroke:#181818;stroke-width:0.5;" x1="946" x2="1005" y1="723.2969" y2="723.2969"/><text fill="#000000" font-family="sans-serif" font-size="14" font-weight="bold" lengthAdjust="spacing" textLength="46" x="950" y="715.9951">event</text><path d="M1049.5,701 L1082.5,701 A3.75,3.75 0 0 1 1085,703.5 L1092,723.2969 L1096.5,723.2969 A2.5,2.5 0 0 1 1099,725.7969 L1099,751.0938 A2.5,2.5 0 0 1 1096.5,753.5938 L1049.5,753.5938 A2.5,2.5 0 0 1 1047,751.0938 L1047,703.5 A2.5,2.5 0 0 1 1049.5,701 " fill="#F1F1F1" style="stroke:#181818;stroke-width:0.5;"/><line style="stroke:#181818;stroke-width:0.5;" x1="1047" x2="1092" y1="723.2969" y2="723.2969"/><text fill="#000000" font-family="sans-serif" font-size="14" font-weight="bold" lengthAdjust="spacing" textLength="32" x="1051" y="715.9951">plot</text><path d="M488,143 L544,143 A3.75,3.75 0 0 1 546.5,145.5 L553.5,165.2969 L558,165.2969 A2.5,2.5 0 0 1 560.5,167.7969 L560.5,193.0938 A2.5,2.5 0 0 1 558,195.5938 L488,195.5938 A2.5,2.5 0 0 1 485.5,193.0938 L485.5,145.5 A2.5,2.5 0 0 1 488,143 " fill="#F1F1F1" style="stroke:#181818;stroke-width:0.5;"/><line style="stroke:#181818;stroke-width:0.5;" x1="485.5" x2="553.5" y1="165.2969" y2="165.2969"/><text fill="#000000" font-family="sans-serif" font-size="14" font-weight="bold" lengthAdjust="spacing" textLength="55" x="489.5" y="157.9951">evefile</text><path d="M598,143 L648,143 A3.75,3.75 0 0 1 650.5,145.5 L657.5,165.2969 L662,165.2969 A2.5,2.5 0 0 1 664.5,167.7969 L664.5,193.0938 A2.5,2.5 0 0 1 662,195.5938 L598,195.5938 A2.5,2.5 0 0 1 595.5,193.0938 L595.5,145.5 A2.5,2.5 0 0 1 598,143 " fill="#F1F1F1" style="stroke:#181818;stroke-width:0.5;"/><line style="stroke:#181818;stroke-width:0.5;" x1="595.5" x2="657.5" y1="165.2969" y2="165.2969"/><text fill="#000000" font-family="sans-serif" font-size="14" font-weight="bold" lengthAdjust="spacing" textLength="49" x="599.5" y="157.9951">eveh5</text><path d="M678.5,303 L783.5,303 A3.75,3.75 0 0 1 786,305.5 L793,325.2969 L797.5,325.2969 A2.5,2.5 0 0 1 800,327.7969 L800,353.0938 A2.5,2.5 0 0 1 797.5,355.5938 L678.5,355.5938 A2.5,2.5 0 0 1 676,353.0938 L676,305.5 A2.5,2.5 0 0 1 678.5,303 " fill="#F1F1F1" style="stroke:#181818;stroke-width:0.5;"/><line style="stroke:#181818;stroke-width:0.5;" x1="676" x2="793" y1="325.2969" y2="325.2969"/><text fill="#000000" font-family="sans-serif" font-size="14" font-weight="bold" lengthAdjust="spacing" textLength="104" x="680" y="317.9951">transforming</text><path d="M488,303 L624,303 A3.75,3.75 0 0 1 626.5,305.5 L633.5,325.2969 L638,325.2969 A2.5,2.5 0 0 1 640.5,327.7969 L640.5,353.0938 A2.5,2.5 0 0 1 638,355.5938 L488,355.5938 A2.5,2.5 0 0 1 485.5,353.0938 L485.5,305.5 A2.5,2.5 0 0 1 488,303 " fill="#F1F1F1" style="stroke:#181818;stroke-width:0.5;"/><line style="stroke:#181818;stroke-width:0.5;" x1="485.5" x2="633.5" y1="325.2969" y2="325.2969"/><text fill="#000000" font-family="sans-serif" font-size="14" font-weight="bold" lengthAdjust="spacing" textLength="135" x="489.5" y="317.9951">version_mapping</text><path d="M501.5,463 L528.5,463 A3.75,3.75 0 0 1 531,465.5 L538,485.2969 L542.5,485.2969 A2.5,2.5 0 0 1 545,487.7969 L545,513.0938 A2.5,2.5 0 0 1 542.5,515.5938 L501.5,515.5938 A2.5,2.5 0 0 1 499,513.0938 L499,465.5 A2.5,2.5 0 0 1 501.5,463 " fill="#F1F1F1" style="stroke:#181818;stroke-width:0.5;"/><line style="stroke:#181818;stroke-width:0.5;" x1="499" x2="538" y1="485.2969" y2="485.2969"/><text fill="#000000" font-family="sans-serif" font-size="14" font-weight="bold" lengthAdjust="spacing" textLength="26" x="503" y="477.9951">file</text><path d="M497,576 L533,576 A3.75,3.75 0 0 1 535.5,578.5 L542.5,598.2969 L547,598.2969 A2.5,2.5 0 0 1 549.5,600.7969 L549.5,626.0938 A2.5,2.5 0 0 1 547,628.5938 L497,628.5938 A2.5,2.5 0 0 1 494.5,626.0938 L494.5,578.5 A2.5,2.5 0 0 1 497,576 " fill="#F1F1F1" style="stroke:#181818;stroke-width:0.5;"/><line style="stroke:#181818;stroke-width:0.5;" x1="494.5" x2="542.5" y1="598.2969" y2="598.2969"/><text fill="#000000" font-family="sans-serif" font-size="14" font-weight="bold" lengthAdjust="spacing" textLength="35" x="498.5" y="590.9951">data</text><path d="M476.5,701 L553.5,701 A3.75,3.75 0 0 1 556,703.5 L563,723.2969 L567.5,723.2969 A2.5,2.5 0 0 1 570,725.7969 L570,751.0938 A2.5,2.5 0 0 1 567.5,753.5938 L476.5,753.5938 A2.5,2.5 0 0 1 474,751.0938 L474,703.5 A2.5,2.5 0 0 1 476.5,701 " fill="#F1F1F1" style="stroke:#181818;stroke-width:0.5;"/><line style="stroke:#181818;stroke-width:0.5;" x1="474" x2="563" y1="723.2969" y2="723.2969"/><text fill="#000000" font-family="sans-serif" font-size="14" font-weight="bold" lengthAdjust="spacing" textLength="76" x="478" y="715.9951">metadata</text><path d="M108,143 L220,143 A3.75,3.75 0 0 1 222.5,145.5 L229.5,165.2969 L234,165.2969 A2.5,2.5 0 0 1 236.5,167.7969 L236.5,193.0938 A2.5,2.5 0 0 1 234,195.5938 L108,195.5938 A2.5,2.5 0 0 1 105.5,193.0938 L105.5,145.5 A2.5,2.5 0 0 1 108,143 " fill="#F1F1F1" style="stroke:#181818;stroke-width:0.5;"/><line style="stroke:#181818;stroke-width:0.5;" x1="105.5" x2="229.5" y1="165.2969" y2="165.2969"/><text fill="#000000" font-family="sans-serif" font-size="14" font-weight="bold" lengthAdjust="spacing" textLength="111" x="109.5" y="157.9951">measurement</text><path d="M208.5,303 L313.5,303 A3.75,3.75 0 0 1 316,305.5 L323,325.2969 L327.5,325.2969 A2.5,2.5 0 0 1 330,327.7969 L330,353.0938 A2.5,2.5 0 0 1 327.5,355.5938 L208.5,355.5938 A2.5,2.5 0 0 1 206,353.0938 L206,305.5 A2.5,2.5 0 0 1 208.5,303 " fill="#F1F1F1" style="stroke:#181818;stroke-width:0.5;"/><line style="stroke:#181818;stroke-width:0.5;" x1="206" x2="323" y1="325.2969" y2="325.2969"/><text fill="#000000" font-family="sans-serif" font-size="14" font-weight="bold" lengthAdjust="spacing" textLength="104" x="210" y="317.9951">transforming</text><path d="M107.5,303 L154.5,303 A3.75,3.75 0 0 1 157,305.5 L164,325.2969 L168.5,325.2969 A2.5,2.5 0 0 1 171,327.7969 L171,353.0938 A2.5,2.5 0 0 1 168.5,355.5938 L107.5,355.5938 A2.5,2.5 0 0 1 105,353.0938 L105,305.5 A2.5,2.5 0 0 1 107.5,303 " fill="#F1F1F1" style="stroke:#181818;stroke-width:0.5;"/><line style="stroke:#181818;stroke-width:0.5;" x1="105" x2="164" y1="325.2969" y2="325.2969"/><text fill="#000000" font-family="sans-serif" font-size="14" font-weight="bold" lengthAdjust="spacing" textLength="46" x="109" y="317.9951">filling</text><path d="M108,463 L220,463 A3.75,3.75 0 0 1 222.5,465.5 L229.5,485.2969 L234,485.2969 A2.5,2.5 0 0 1 236.5,487.7969 L236.5,513.0938 A2.5,2.5 0 0 1 234,515.5938 L108,515.5938 A2.5,2.5 0 0 1 105.5,513.0938 L105.5,465.5 A2.5,2.5 0 0 1 108,463 " fill="#F1F1F1" style="stroke:#181818;stroke-width:0.5;"/><line style="stroke:#181818;stroke-width:0.5;" x1="105.5" x2="229.5" y1="485.2969" y2="485.2969"/><text fill="#000000" font-family="sans-serif" font-size="14" font-weight="bold" lengthAdjust="spacing" textLength="111" x="109.5" y="477.9951">measurement</text><path d="M125.5,576 L202.5,576 A3.75,3.75 0 0 1 205,578.5 L212,598.2969 L216.5,598.2969 A2.5,2.5 0 0 1 219,600.7969 L219,626.0938 A2.5,2.5 0 0 1 216.5,628.5938 L125.5,628.5938 A2.5,2.5 0 0 1 123,626.0938 L123,578.5 A2.5,2.5 0 0 1 125.5,576 " fill="#F1F1F1" style="stroke:#181818;stroke-width:0.5;"/><line style="stroke:#181818;stroke-width:0.5;" x1="123" x2="212" y1="598.2969" y2="598.2969"/><text fill="#000000" font-family="sans-serif" font-size="14" font-weight="bold" lengthAdjust="spacing" textLength="76" x="127" y="590.9951">metadata</text><!--link scan to scml--><g id="link_scan_scml"><path codeLine="8" d="M1010.73,169.5 C1022.43,169.5 1028.12,169.5 1039.82,169.5 " fill="none" id="scan-to-scml" style="stroke:#181818;stroke-width:1.0;"/><polygon fill="#181818" points="1045.82,169.5,1036.82,165.5,1040.82,169.5,1036.82,173.5,1045.82,169.5" style="stroke:#181818;stroke-width:1.0;"/></g><!--link file to setup--><g id="link_file_setup"><path codeLine="25" d="M1013.87,516.24 C1006.11,534.18 998.1913,552.4828 990.4513,570.3828 " fill="none" id="file-to-setup" style="stroke:#181818;stroke-width:1.0;"/><polygon fill="#181818" points="988.07,575.89,995.3135,569.2167,990.0544,571.3007,987.9705,566.0416,988.07,575.89" style="stroke:#181818;stroke-width:1.0;"/></g><!--link file to scan--><g id="link_file_scan"><path codeLine="26" d="M1035.9,516.24 C1043.49,534.18 1051.2403,552.465 1058.8203,570.365 " fill="none" id="file-to-scan" style="stroke:#181818;stroke-width:1.0;"/><polygon fill="#181818" points="1061.16,575.89,1061.3339,566.0427,1059.2103,571.2858,1053.9672,569.1622,1061.16,575.89" style="stroke:#181818;stroke-width:1.0;"/></g><!--link scan to event--><g id="link_scan_event"><path codeLine="27" d="M1063.11,629.03 C1055.58,648.12 1043.39,674.07 1027,693 C1022.74,697.92 1022.3698,698.817 1017.0798,702.877 " fill="none" id="scan-to-event" style="stroke:#181818;stroke-width:1.0;"/><polygon fill="#181818" points="1012.32,706.53,1021.895,704.2236,1016.2865,703.4858,1017.0243,697.8773,1012.32,706.53" style="stroke:#181818;stroke-width:1.0;"/></g><!--link scan to plot--><g id="link_scan_plot"><path codeLine="28" d="M1072.21,629.28 C1072.38,650.28 1072.5714,673.7702 1072.7414,694.7502 " fill="none" id="scan-to-plot" style="stroke:#181818;stroke-width:1.0;"/><polygon fill="#181818" points="1072.79,700.75,1076.7169,691.7179,1072.7495,695.7502,1068.7172,691.7827,1072.79,700.75" style="stroke:#181818;stroke-width:1.0;"/></g><!--link boundaries to controllers--><g id="link_boundaries_controllers"><path codeLine="30" d="M920,220.5361 C920,220.8165 920,221.0974 920,221.379 C920,230.3876 920,239.9572 920,249.5263 C920,251.9185 920,254.3107 920,256.6942 C920,257.29 920,257.8853 920,258.4799 C920,258.7773 920,259.0744 920,259.3713 C920,259.5198 920,253.6682 920,253.8166 " fill="none" id="boundaries-to-controllers" style="stroke:#181818;stroke-width:1.0;"/><polygon fill="#181818" points="920,259.8166,924,250.8166,920,254.8166,916,250.8166,920,259.8166" style="stroke:#181818;stroke-width:1.0;"/></g><!--link controllers to entities--><g id="link_controllers_entities"><path codeLine="31" d="M920,380.5361 C920,380.8165 920,381.0974 920,381.379 C920,390.3876 920,399.9572 920,409.5263 C920,411.9185 920,414.3107 920,416.6942 C920,417.29 920,417.8853 920,418.4799 C920,418.7773 920,419.0744 920,419.3713 C920,419.5198 920,413.6682 920,413.8166 " fill="none" id="controllers-to-entities" style="stroke:#181818;stroke-width:1.0;"/><polygon fill="#181818" points="920,419.8166,924,410.8166,920,414.8166,916,410.8166,920,419.8166" style="stroke:#181818;stroke-width:1.0;"/></g><!--link evefile to eveh5--><g id="link_evefile_eveh5"><path codeLine="38" d="M560.62,169.5 C572.18,169.5 577.74,169.5 589.31,169.5 " fill="none" id="evefile-to-eveh5" style="stroke:#181818;stroke-width:1.0;"/><polygon fill="#181818" points="595.31,169.5,586.31,165.5,590.31,169.5,586.31,173.5,595.31,169.5" style="stroke:#181818;stroke-width:1.0;"/></g><!--link file to data--><g id="link_file_data"><path codeLine="51" d="M522,516.24 C522,534.18 522,551.99 522,569.89 " fill="none" id="file-to-data" style="stroke:#181818;stroke-width:1.0;"/><polygon fill="#181818" points="522,575.89,526,566.89,522,570.89,518,566.89,522,575.89" style="stroke:#181818;stroke-width:1.0;"/></g><!--link data to metadata--><g id="link_data_metadata"><path codeLine="52" d="M522,629.28 C522,650.28 522,673.77 522,694.75 " fill="none" id="data-to-metadata" style="stroke:#181818;stroke-width:1.0;"/><polygon fill="#181818" points="522,700.75,526,691.75,522,695.75,518,691.75,522,700.75" style="stroke:#181818;stroke-width:1.0;"/></g><!--link boundaries to controllers--><g id="link_boundaries_controllers"><path codeLine="55" d="M450,220.5361 C450,220.8165 450,221.0974 450,221.379 C450,230.3876 450,239.9572 450,249.5263 C450,251.9185 450,254.3107 450,256.6942 C450,257.29 450,257.8853 450,258.4799 C450,258.7773 450,259.0744 450,259.3713 C450,259.5198 450,253.6682 450,253.8166 " fill="none" id="boundaries-to-controllers-1" style="stroke:#181818;stroke-width:1.0;"/><polygon fill="#181818" points="450,259.8166,454,250.8166,450,254.8166,446,250.8166,450,259.8166" style="stroke:#181818;stroke-width:1.0;"/></g><!--link controllers to entities--><g id="link_controllers_entities"><path codeLine="56" d="M450,380.5361 C450,380.8165 450,381.0974 450,381.379 C450,390.3876 450,399.9572 450,409.5263 C450,411.9185 450,414.3107 450,416.6942 C450,417.29 450,417.8853 450,418.4799 C450,418.7773 450,419.0744 450,419.3713 C450,419.5198 450,413.6682 450,413.8166 " fill="none" id="controllers-to-entities-1" style="stroke:#181818;stroke-width:1.0;"/><polygon fill="#181818" points="450,419.8166,454,410.8166,450,414.8166,446,410.8166,450,419.8166" style="stroke:#181818;stroke-width:1.0;"/></g><!--link measurement to metadata--><g id="link_measurement_metadata"><path codeLine="70" d="M171,516.24 C171,534.18 171,551.99 171,569.89 " fill="none" id="measurement-to-metadata" style="stroke:#181818;stroke-width:1.0;"/><polygon fill="#181818" points="171,575.89,175,566.89,171,570.89,167,566.89,171,575.89" style="stroke:#181818;stroke-width:1.0;"/></g><!--link boundaries to controllers--><g id="link_boundaries_controllers"><path codeLine="73" d="M70,220.5361 C70,220.8165 70,221.0974 70,221.379 C70,230.3876 70,239.9572 70,249.5263 C70,251.9185 70,254.3107 70,256.6942 C70,257.29 70,257.8853 70,258.4799 C70,258.7773 70,259.0744 70,259.3713 C70,259.5198 70,253.6682 70,253.8166 " fill="none" id="boundaries-to-controllers-2" style="stroke:#181818;stroke-width:1.0;"/><polygon fill="#181818" points="70,259.8166,74,250.8166,70,254.8166,66,250.8166,70,259.8166" style="stroke:#181818;stroke-width:1.0;"/></g><!--link controllers to entities--><g id="link_controllers_entities"><path codeLine="74" d="M70,380.5361 C70,380.8165 70,381.0974 70,381.379 C70,390.3876 70,399.9572 70,409.5263 C70,411.9185 70,414.3107 70,416.6942 C70,417.29 70,417.8853 70,418.4799 C70,418.7773 70,419.0744 70,419.3713 C70,419.5198 70,413.6682 70,413.8166 " fill="none" id="controllers-to-entities-2" style="stroke:#181818;stroke-width:1.0;"/><polygon fill="#181818" points="70,419.8166,74,410.8166,70,414.8166,66,410.8166,70,419.8166" style="stroke:#181818;stroke-width:1.0;"/></g><!--SRC=[hLJBRiCW4Bpp5RxrPAiz-DfVgQXD4XHUmZWzLFxtuWSHO1PGMryYPuRnxEuiBzET2eKrviseQFFMloAay737LzAG1ncnmSqtQkmJ_TjD0nO71C7Tfvp5Y3KbayVqsRl80c2SnTZ6Rzytx0aiUHE354PBneY6N3miHANuu5WfAgx-HmlQH1XguF8kb9480cebPbPrpB3jCD7w5AQAgPWy4uFNhOvsb5zYxVtgDGDRWucP7UZc2ePNAudUGw5gTyNahDE7_J2SJhjf8gy5yTZjRpHLW54E_rCA7E2jZq5tPhT-wok2wloKzy1eBAQBr3nQWZ_lYhDGM1U8tbNl4QZWNMI_LE34uA9Ai0ahEq2tumvrUYYJzqIK_D0c9WjAGC6FwynbdnCypPhmy6B9iCex44ZMHCbN_vz4s_9PTPBzpnVI39GMKbocGjm_UifBueukjDwVDz2_h1IKdLGpZlmiw0S0]--></g></svg>