<?xml version="1.0" encoding="us-ascii" standalone="no"?><svg xmlns="http://www.w3.org/2000/svg" xmlns:xlink="http://www.w3.org/1999/xlink" contentStyleType="text/css" height="510.6px" preserveAspectRatio="none" style="width:747px;height:510px;background:#FFFFFF;" version="1.1" viewBox="0 0 747 510" width="747.6px" zoomAndPan="magnify"><defs/><g><!--class Data--><g id="elem_Data"><rect codeLine="3" fill="#F1F1F1" height="68.175" id="Data" rx="1.5" ry="1.5" style="stroke:#181818;stroke-width:0.3;" width="98.4" x="404.4" y="21"/><ellipse cx="442.05" cy="30.6" fill="#ADD1B2" rx="6.6" ry="6.6" style="stroke:#181818;stroke-width:0.6;"/><path d="M442.0781,34.3219 C442.9781,34.3219 443.7188,33.9844 444.2625,33.3469 L443.4375,32.4375 C443.1094,32.7937 442.7156,33.0281 442.2375,33.0281 C441.2344,33.0281 440.5406,32.2312 440.5406,30.8625 C440.5406,29.5313 441.2344,28.725 442.1719,28.725 C442.6594,28.725 443.0156,28.9125 443.3344,29.2031 L444.1594,28.275 C443.7094,27.8344 443.0156,27.4313 442.1719,27.4313 C440.4,27.4313 439.0031,28.7156 439.0031,30.9188 C439.0031,33.15 440.4281,34.3219 442.0781,34.3219 Z " fill="#000000"/><text fill="#000000" font-family="sans-serif" font-size="8.4" lengthAdjust="spacing" textLength="18" x="454.35" y="33.4711">Data</text><line style="stroke:#181818;stroke-width:0.3;" x1="405" x2="502.2" y1="40.2" y2="40.2"/><text fill="#000000" font-family="sans-serif" font-size="8.4" lengthAdjust="spacing" textLength="78.6" x="408" y="50.393">metadata : Metadata</text><text fill="#000000" font-family="sans-serif" font-size="8.4" lengthAdjust="spacing" textLength="67.8" x="408" y="60.2367">_data : np.ndarray</text><text fill="#000000" font-family="sans-serif" font-size="8.4" lengthAdjust="spacing" textLength="91.2" x="408" y="70.0805">_importer : DataImporter</text><line style="stroke:#181818;stroke-width:0.3;" x1="405" x2="502.2" y1="74.5313" y2="74.5313"/><text fill="#000000" font-family="sans-serif" font-size="8.4" lengthAdjust="spacing" textLength="23.4" x="408" y="84.7242">data()</text></g><path d="M164.1,3.6 L164.1,101.0063 A0,0 0 0 0 164.1,101.0063 L383.1,101.0063 A0,0 0 0 0 383.1,101.0063 L383.1,54.7031 L406.8,57.3656 L383.1,49.9031 L383.1,9.6 L377.1,3.6 L164.1,3.6 A0,0 0 0 0 164.1,3.6 " fill="#FEFFDD" style="stroke:#181818;stroke-width:0.3;"/><path d="M377.1,3.6 L377.1,9.6 L383.1,9.6 L377.1,3.6 " fill="#FEFFDD" style="stroke:#181818;stroke-width:0.3;"/><text fill="#000000" font-family="sans-serif" font-size="7.8" lengthAdjust="spacing" textLength="174" x="167.7" y="13.8363">"_data" usually contains a 1D array and is accessed</text><text fill="#000000" font-family="sans-serif" font-size="7.8" lengthAdjust="spacing" textLength="168.6" x="167.7" y="22.977">via the data() getter method (Python property) that</text><text fill="#000000" font-family="sans-serif" font-size="7.8" lengthAdjust="spacing" textLength="174" x="167.7" y="32.1176">calls the DataImporter on first access if necessary.</text><text fill="#000000" font-family="sans-serif" font-size="7.8" lengthAdjust="spacing" textLength="1.8" x="167.7" y="41.2582">&#160;</text><text fill="#000000" font-family="sans-serif" font-size="7.8" lengthAdjust="spacing" textLength="166.8" x="167.7" y="50.3988">For individual channel values see derived classes</text><text fill="#000000" font-family="sans-serif" font-size="7.8" lengthAdjust="spacing" textLength="158.4" x="167.7" y="59.5395">AverageChannelData and IntervalChannelData.</text><text fill="#000000" font-family="sans-serif" font-size="7.8" lengthAdjust="spacing" textLength="1.8" x="167.7" y="68.6801">&#160;</text><text fill="#000000" font-family="sans-serif" font-size="7.8" lengthAdjust="spacing" textLength="187.2" x="167.7" y="77.8207">ArrayChannelData and AreaChannelData are somewhat</text><text fill="#000000" font-family="sans-serif" font-size="7.8" lengthAdjust="spacing" textLength="206.4" x="167.7" y="86.9613">special as they contain either 2D data or a list of data objects</text><text fill="#000000" font-family="sans-serif" font-size="7.8" lengthAdjust="spacing" textLength="100.2" x="167.7" y="96.102">(in case of images and alike).</text><!--class DataImporter--><g id="elem_DataImporter"><rect codeLine="22" fill="#F1F1F1" height="48.4875" id="DataImporter" rx="1.5" ry="1.5" style="stroke:#181818;stroke-width:0.3;" width="69.6" x="523.8" y="30.9"/><ellipse cx="532.8" cy="40.5" fill="#ADD1B2" rx="6.6" ry="6.6" style="stroke:#181818;stroke-width:0.6;"/><path d="M532.8281,44.2219 C533.7281,44.2219 534.4688,43.8844 535.0125,43.2469 L534.1875,42.3375 C533.8594,42.6938 533.4656,42.9281 532.9875,42.9281 C531.9844,42.9281 531.2906,42.1313 531.2906,40.7625 C531.2906,39.4313 531.9844,38.625 532.9219,38.625 C533.4094,38.625 533.7656,38.8125 534.0844,39.1031 L534.9094,38.175 C534.4594,37.7344 533.7656,37.3313 532.9219,37.3313 C531.15,37.3313 529.7531,38.6156 529.7531,40.8188 C529.7531,43.05 531.1781,44.2219 532.8281,44.2219 Z " fill="#000000"/><text fill="#000000" font-family="sans-serif" font-size="8.4" lengthAdjust="spacing" textLength="50.4" x="541.2" y="43.3711">DataImporter</text><line style="stroke:#181818;stroke-width:0.3;" x1="524.4" x2="592.8" y1="50.1" y2="50.1"/><text fill="#000000" font-family="sans-serif" font-size="8.4" lengthAdjust="spacing" textLength="25.2" x="527.4" y="60.293">source</text><line style="stroke:#181818;stroke-width:0.3;" x1="524.4" x2="592.8" y1="64.7437" y2="64.7437"/><text fill="#000000" font-family="sans-serif" font-size="8.4" lengthAdjust="spacing" textLength="30.6" x="527.4" y="74.9367">import()</text></g><!--class Metadata--><g id="elem_Metadata"><rect codeLine="27" fill="#F1F1F1" height="28.8" id="Metadata" rx="1.5" ry="1.5" style="stroke:#181818;stroke-width:0.3;" width="55.8" x="298.5" y="147.6"/><ellipse cx="307.5" cy="157.2" fill="#ADD1B2" rx="6.6" ry="6.6" style="stroke:#181818;stroke-width:0.6;"/><path d="M307.5281,160.9219 C308.4281,160.9219 309.1688,160.5844 309.7125,159.9469 L308.8875,159.0375 C308.5594,159.3937 308.1656,159.6281 307.6875,159.6281 C306.6844,159.6281 305.9906,158.8312 305.9906,157.4625 C305.9906,156.1313 306.6844,155.325 307.6219,155.325 C308.1094,155.325 308.4656,155.5125 308.7844,155.8031 L309.6094,154.875 C309.1594,154.4344 308.4656,154.0313 307.6219,154.0313 C305.85,154.0313 304.4531,155.3156 304.4531,157.5187 C304.4531,159.75 305.8781,160.9219 307.5281,160.9219 Z " fill="#000000"/><text fill="#000000" font-family="sans-serif" font-size="8.4" lengthAdjust="spacing" textLength="36.6" x="315.9" y="160.0711">Metadata</text><line style="stroke:#181818;stroke-width:0.3;" x1="299.1" x2="353.7" y1="166.8" y2="166.8"/><line style="stroke:#181818;stroke-width:0.3;" x1="299.1" x2="353.7" y1="171.6" y2="171.6"/></g><g id="elem_GMN7"><path d="M263.7,234.3 L263.7,258.5813 A0,0 0 0 0 263.7,258.5813 L337.5,258.5813 A0,0 0 0 0 337.5,258.5813 L337.5,240.3 L331.5,234.3 L306.582,234.3 L322.08,176.508 L301.782,234.3 L263.7,234.3 A0,0 0 0 0 263.7,234.3 " fill="#FEFFDD" style="stroke:#181818;stroke-width:0.3;"/><path d="M331.5,234.3 L331.5,240.3 L337.5,240.3 L331.5,234.3 " fill="#FEFFDD" style="stroke:#181818;stroke-width:0.3;"/><text fill="#000000" font-family="sans-serif" font-size="7.8" lengthAdjust="spacing" textLength="54" x="267.3" y="244.5363">See diagram for</text><text fill="#000000" font-family="sans-serif" font-size="7.8" lengthAdjust="spacing" textLength="61.2" x="267.3" y="253.677">metadata module.</text></g><!--class MeasureData--><g id="elem_MeasureData"><rect codeLine="34" fill="#F1F1F1" height="38.6438" id="MeasureData" rx="1.5" ry="1.5" style="stroke:#181818;stroke-width:0.3;" width="129.6" x="388.8" y="142.8"/><ellipse cx="425.85" cy="152.4" fill="#ADD1B2" rx="6.6" ry="6.6" style="stroke:#181818;stroke-width:0.6;"/><path d="M425.8781,156.1219 C426.7781,156.1219 427.5188,155.7844 428.0625,155.1469 L427.2375,154.2375 C426.9094,154.5938 426.5156,154.8281 426.0375,154.8281 C425.0344,154.8281 424.3406,154.0313 424.3406,152.6625 C424.3406,151.3312 425.0344,150.525 425.9719,150.525 C426.4594,150.525 426.8156,150.7125 427.1344,151.0031 L427.9594,150.075 C427.5094,149.6344 426.8156,149.2313 425.9719,149.2313 C424.2,149.2313 422.8031,150.5156 422.8031,152.7188 C422.8031,154.95 424.2281,156.1219 425.8781,156.1219 Z " fill="#000000"/><text fill="#000000" font-family="sans-serif" font-size="8.4" lengthAdjust="spacing" textLength="50.4" x="438.15" y="155.2711">MeasureData</text><line style="stroke:#181818;stroke-width:0.3;" x1="389.4" x2="517.8" y1="162" y2="162"/><text fill="#000000" font-family="sans-serif" font-size="8.4" lengthAdjust="spacing" textLength="122.4" x="392.4" y="172.193">positions : np.ndarray(dtype=int)</text><line style="stroke:#181818;stroke-width:0.3;" x1="389.4" x2="517.8" y1="176.6437" y2="176.6437"/></g><!--class MonitorData--><g id="elem_MonitorData"><rect codeLine="38" fill="#F1F1F1" height="38.6438" id="MonitorData" rx="1.5" ry="1.5" style="stroke:#181818;stroke-width:0.3;" width="141" x="539.7" y="142.8"/><ellipse cx="583.95" cy="152.4" fill="#ADD1B2" rx="6.6" ry="6.6" style="stroke:#181818;stroke-width:0.6;"/><path d="M583.9781,156.1219 C584.8781,156.1219 585.6188,155.7844 586.1625,155.1469 L585.3375,154.2375 C585.0094,154.5938 584.6156,154.8281 584.1375,154.8281 C583.1344,154.8281 582.4406,154.0313 582.4406,152.6625 C582.4406,151.3312 583.1344,150.525 584.0719,150.525 C584.5594,150.525 584.9156,150.7125 585.2344,151.0031 L586.0594,150.075 C585.6094,149.6344 584.9156,149.2313 584.0719,149.2313 C582.3,149.2313 580.9031,150.5156 580.9031,152.7188 C580.9031,154.95 582.3281,156.1219 583.9781,156.1219 Z " fill="#000000"/><text fill="#000000" font-family="sans-serif" font-size="8.4" lengthAdjust="spacing" textLength="47.4" x="596.25" y="155.2711">MonitorData</text><line style="stroke:#181818;stroke-width:0.3;" x1="540.3" x2="680.1" y1="162" y2="162"/><text fill="#000000" font-family="sans-serif" font-size="8.4" lengthAdjust="spacing" textLength="133.8" x="543.3" y="172.193">milliseconds : np.ndarray(dtype=int)</text><line style="stroke:#181818;stroke-width:0.3;" x1="540.3" x2="680.1" y1="176.6437" y2="176.6437"/></g><!--class AxisData--><g id="elem_AxisData"><rect codeLine="42" fill="#F1F1F1" height="28.8" id="AxisData" rx="1.5" ry="1.5" style="stroke:#181818;stroke-width:0.3;" width="52.8" x="358.8" y="231.9"/><ellipse cx="367.8" cy="241.5" fill="#ADD1B2" rx="6.6" ry="6.6" style="stroke:#181818;stroke-width:0.6;"/><path d="M367.8281,245.2219 C368.7281,245.2219 369.4688,244.8844 370.0125,244.2469 L369.1875,243.3375 C368.8594,243.6938 368.4656,243.9281 367.9875,243.9281 C366.9844,243.9281 366.2906,243.1313 366.2906,241.7625 C366.2906,240.4312 366.9844,239.625 367.9219,239.625 C368.4094,239.625 368.7656,239.8125 369.0844,240.1031 L369.9094,239.175 C369.4594,238.7344 368.7656,238.3312 367.9219,238.3312 C366.15,238.3312 364.7531,239.6156 364.7531,241.8188 C364.7531,244.05 366.1781,245.2219 367.8281,245.2219 Z " fill="#000000"/><text fill="#000000" font-family="sans-serif" font-size="8.4" lengthAdjust="spacing" textLength="33.6" x="376.2" y="244.3711">AxisData</text><line style="stroke:#181818;stroke-width:0.3;" x1="359.4" x2="411" y1="251.1" y2="251.1"/><line style="stroke:#181818;stroke-width:0.3;" x1="359.4" x2="411" y1="255.9" y2="255.9"/></g><!--class ChannelData--><g id="elem_ChannelData"><rect codeLine="45" fill="#F1F1F1" height="28.8" id="ChannelData" rx="1.5" ry="1.5" style="stroke:#181818;stroke-width:0.3;" width="67.8" x="432.9" y="231.9"/><ellipse cx="441.9" cy="241.5" fill="#ADD1B2" rx="6.6" ry="6.6" style="stroke:#181818;stroke-width:0.6;"/><path d="M441.9281,245.2219 C442.8281,245.2219 443.5687,244.8844 444.1125,244.2469 L443.2875,243.3375 C442.9594,243.6938 442.5656,243.9281 442.0875,243.9281 C441.0844,243.9281 440.3906,243.1313 440.3906,241.7625 C440.3906,240.4312 441.0844,239.625 442.0219,239.625 C442.5094,239.625 442.8656,239.8125 443.1844,240.1031 L444.0094,239.175 C443.5594,238.7344 442.8656,238.3312 442.0219,238.3312 C440.25,238.3312 438.8531,239.6156 438.8531,241.8188 C438.8531,244.05 440.2781,245.2219 441.9281,245.2219 Z " fill="#000000"/><text fill="#000000" font-family="sans-serif" font-size="8.4" lengthAdjust="spacing" textLength="48.6" x="450.3" y="244.3711">ChannelData</text><line style="stroke:#181818;stroke-width:0.3;" x1="433.5" x2="500.1" y1="251.1" y2="251.1"/><line style="stroke:#181818;stroke-width:0.3;" x1="433.5" x2="500.1" y1="255.9" y2="255.9"/></g><!--class TimestampData--><g id="elem_TimestampData"><rect codeLine="48" fill="#F1F1F1" height="58.3313" id="TimestampData" rx="1.5" ry="1.5" style="stroke:#181818;stroke-width:0.3;" width="151.8" x="521.7" y="217.2"/><ellipse cx="565.05" cy="226.8" fill="#ADD1B2" rx="6.6" ry="6.6" style="stroke:#181818;stroke-width:0.6;"/><path d="M565.0781,230.5219 C565.9781,230.5219 566.7188,230.1844 567.2625,229.5469 L566.4375,228.6375 C566.1094,228.9938 565.7156,229.2281 565.2375,229.2281 C564.2344,229.2281 563.5406,228.4313 563.5406,227.0625 C563.5406,225.7313 564.2344,224.925 565.1719,224.925 C565.6594,224.925 566.0156,225.1125 566.3344,225.4031 L567.1594,224.475 C566.7094,224.0344 566.0156,223.6313 565.1719,223.6313 C563.4,223.6313 562.0031,224.9156 562.0031,227.1188 C562.0031,229.35 563.4281,230.5219 565.0781,230.5219 Z " fill="#000000"/><text fill="#000000" font-family="sans-serif" font-size="8.4" lengthAdjust="spacing" textLength="60" x="577.35" y="229.6711">TimestampData</text><line style="stroke:#181818;stroke-width:0.3;" x1="522.3" x2="672.9" y1="236.4" y2="236.4"/><text fill="#000000" font-family="sans-serif" font-size="8.4" lengthAdjust="spacing" textLength="144.6" x="525.3" y="246.593">_first_positions : np.ndarray(dtype=int)</text><text fill="#000000" font-family="sans-serif" font-size="8.4" lengthAdjust="spacing" textLength="143.4" x="525.3" y="256.4367">_last_positions : np.ndarray(dtype=int)</text><line style="stroke:#181818;stroke-width:0.3;" x1="522.3" x2="672.9" y1="260.8875" y2="260.8875"/><text fill="#000000" font-family="sans-serif" font-size="8.4" lengthAdjust="spacing" textLength="135" x="525.3" y="271.0805">get_position(timestamp, mode=last)</text></g><!--class SinglePointChannelData--><g id="elem_SinglePointChannelData"><rect codeLine="54" fill="#F1F1F1" height="28.8" id="SinglePointChannelData" rx="1.5" ry="1.5" style="stroke:#181818;stroke-width:0.3;" width="109.8" x="114.3" y="350.7"/><ellipse cx="123.3" cy="360.3" fill="#ADD1B2" rx="6.6" ry="6.6" style="stroke:#181818;stroke-width:0.6;"/><path d="M123.3281,364.0219 C124.2281,364.0219 124.9688,363.6844 125.5125,363.0469 L124.6875,362.1375 C124.3594,362.4938 123.9656,362.7281 123.4875,362.7281 C122.4844,362.7281 121.7906,361.9313 121.7906,360.5625 C121.7906,359.2313 122.4844,358.425 123.4219,358.425 C123.9094,358.425 124.2656,358.6125 124.5844,358.9031 L125.4094,357.975 C124.9594,357.5344 124.2656,357.1312 123.4219,357.1312 C121.65,357.1312 120.2531,358.4156 120.2531,360.6188 C120.2531,362.85 121.6781,364.0219 123.3281,364.0219 Z " fill="#000000"/><text fill="#000000" font-family="sans-serif" font-size="8.4" lengthAdjust="spacing" textLength="90.6" x="131.7" y="363.1711">SinglePointChannelData</text><line style="stroke:#181818;stroke-width:0.3;" x1="114.9" x2="223.5" y1="369.9" y2="369.9"/><line style="stroke:#181818;stroke-width:0.3;" x1="114.9" x2="223.5" y1="374.7" y2="374.7"/></g><!--class SinglePointNormalizedChannelData--><g id="elem_SinglePointNormalizedChannelData"><rect codeLine="56" fill="#F1F1F1" height="48.4875" id="SinglePointNormalizedChannelData" rx="1.5" ry="1.5" style="stroke:#181818;stroke-width:0.3;" width="152.4" x="4.2" y="456.3"/><ellipse cx="13.2" cy="465.9" fill="#ADD1B2" rx="6.6" ry="6.6" style="stroke:#181818;stroke-width:0.6;"/><path d="M13.2281,469.6219 C14.1281,469.6219 14.8687,469.2844 15.4125,468.6469 L14.5875,467.7375 C14.2594,468.0938 13.8656,468.3281 13.3875,468.3281 C12.3844,468.3281 11.6906,467.5313 11.6906,466.1625 C11.6906,464.8312 12.3844,464.025 13.3219,464.025 C13.8094,464.025 14.1656,464.2125 14.4844,464.5031 L15.3094,463.575 C14.8594,463.1344 14.1656,462.7313 13.3219,462.7313 C11.55,462.7313 10.1531,464.0156 10.1531,466.2188 C10.1531,468.45 11.5781,469.6219 13.2281,469.6219 Z " fill="#000000"/><text fill="#000000" font-family="sans-serif" font-size="8.4" lengthAdjust="spacing" textLength="133.2" x="21.6" y="468.7711">SinglePointNormalizedChannelData</text><line style="stroke:#181818;stroke-width:0.3;" x1="4.8" x2="156" y1="475.5" y2="475.5"/><text fill="#000000" font-family="sans-serif" font-size="8.4" lengthAdjust="spacing" textLength="109.2" x="7.8" y="485.693">normalized_data : np.ndarray</text><text fill="#000000" font-family="sans-serif" font-size="8.4" lengthAdjust="spacing" textLength="111.6" x="7.8" y="495.5367">normalizing_data : np.ndarray</text><line style="stroke:#181818;stroke-width:0.3;" x1="4.8" x2="156" y1="499.9875" y2="499.9875"/></g><!--class AverageChannelData--><g id="elem_AverageChannelData"><rect codeLine="61" fill="#F1F1F1" height="107.55" id="AverageChannelData" rx="1.5" ry="1.5" style="stroke:#181818;stroke-width:0.3;" width="129.6" x="255.6" y="311.4"/><ellipse cx="278.64" cy="321" fill="#ADD1B2" rx="6.6" ry="6.6" style="stroke:#181818;stroke-width:0.6;"/><path d="M278.6681,324.7219 C279.5681,324.7219 280.3088,324.3844 280.8525,323.7469 L280.0275,322.8375 C279.6994,323.1937 279.3056,323.4281 278.8275,323.4281 C277.8244,323.4281 277.1306,322.6312 277.1306,321.2625 C277.1306,319.9313 277.8244,319.125 278.7619,319.125 C279.2494,319.125 279.6056,319.3125 279.9244,319.6031 L280.7494,318.675 C280.2994,318.2344 279.6056,317.8313 278.7619,317.8313 C276.99,317.8313 275.5931,319.1156 275.5931,321.3187 C275.5931,323.55 277.0181,324.7219 278.6681,324.7219 Z " fill="#000000"/><text fill="#000000" font-family="sans-serif" font-size="8.4" lengthAdjust="spacing" textLength="79.2" x="290.16" y="323.8711">AverageChannelData</text><line style="stroke:#181818;stroke-width:0.3;" x1="256.2" x2="384.6" y1="330.6" y2="330.6"/><text fill="#000000" font-family="sans-serif" font-size="8.4" lengthAdjust="spacing" textLength="87" x="259.2" y="340.793">raw_data : raggedarray</text><text fill="#000000" font-family="sans-serif" font-size="8.4" lengthAdjust="spacing" textLength="122.4" x="259.2" y="350.6367">attempts : np.ndarray(dtype=int)</text><text fill="#000000" font-family="sans-serif" font-size="8.4" lengthAdjust="spacing" textLength="71.4" x="259.2" y="360.4805">_mean : np.ndarray</text><text fill="#000000" font-family="sans-serif" font-size="8.4" lengthAdjust="spacing" textLength="62.4" x="259.2" y="370.3242">_std : np.ndarray</text><line style="stroke:#181818;stroke-width:0.3;" x1="256.2" x2="384.6" y1="374.775" y2="374.775"/><text fill="#000000" font-family="sans-serif" font-size="8.4" lengthAdjust="spacing" textLength="27" x="259.2" y="384.968">mean()</text><text fill="#000000" font-family="sans-serif" font-size="8.4" lengthAdjust="spacing" textLength="18" x="259.2" y="394.8117">std()</text><text fill="#000000" font-family="sans-serif" font-size="8.4" lengthAdjust="spacing" textLength="61.8" x="259.2" y="404.6555">averaged_data()</text><text fill="#000000" font-family="sans-serif" font-size="8.4" lengthAdjust="spacing" textLength="58.8" x="259.2" y="414.4992">has_raw_data()</text></g><g id="elem_GMN28"><path d="M177.6,454.8 L177.6,506.5031 A0,0 0 0 0 177.6,506.5031 L307.2,506.5031 A0,0 0 0 0 307.2,506.5031 L307.2,460.8 L301.2,454.8 L262.11,454.8 L284.142,418.836 L257.31,454.8 L177.6,454.8 A0,0 0 0 0 177.6,454.8 " fill="#FEFFDD" style="stroke:#181818;stroke-width:0.3;"/><path d="M301.2,454.8 L301.2,460.8 L307.2,460.8 L301.2,454.8 " fill="#FEFFDD" style="stroke:#181818;stroke-width:0.3;"/><text fill="#000000" font-family="sans-serif" font-size="7.8" lengthAdjust="spacing" textLength="103.8" x="181.2" y="465.0363">averaged_values() returns only</text><text fill="#000000" font-family="sans-serif" font-size="7.8" lengthAdjust="spacing" textLength="117" x="181.2" y="474.177">those values used to average over.</text><text fill="#000000" font-family="sans-serif" font-size="7.8" lengthAdjust="spacing" textLength="1.8" x="181.2" y="483.3176">&#160;</text><text fill="#000000" font-family="sans-serif" font-size="7.8" lengthAdjust="spacing" textLength="81" x="181.2" y="492.4582">How does mean() differ</text><text fill="#000000" font-family="sans-serif" font-size="7.8" lengthAdjust="spacing" textLength="69.6" x="181.2" y="501.5988">from values in Data?</text></g><!--class AverageNormalizedChannelData--><g id="elem_AverageNormalizedChannelData"><rect codeLine="79" fill="#F1F1F1" height="48.4875" id="AverageNormalizedChannelData" rx="1.5" ry="1.5" style="stroke:#181818;stroke-width:0.3;" width="141" x="328.5" y="456.3"/><ellipse cx="337.5" cy="465.9" fill="#ADD1B2" rx="6.6" ry="6.6" style="stroke:#181818;stroke-width:0.6;"/><path d="M337.5281,469.6219 C338.4281,469.6219 339.1688,469.2844 339.7125,468.6469 L338.8875,467.7375 C338.5594,468.0938 338.1656,468.3281 337.6875,468.3281 C336.6844,468.3281 335.9906,467.5313 335.9906,466.1625 C335.9906,464.8312 336.6844,464.025 337.6219,464.025 C338.1094,464.025 338.4656,464.2125 338.7844,464.5031 L339.6094,463.575 C339.1594,463.1344 338.4656,462.7313 337.6219,462.7313 C335.85,462.7313 334.4531,464.0156 334.4531,466.2188 C334.4531,468.45 335.8781,469.6219 337.5281,469.6219 Z " fill="#000000"/><text fill="#000000" font-family="sans-serif" font-size="8.4" lengthAdjust="spacing" textLength="121.8" x="345.9" y="468.7711">AverageNormalizedChannelData</text><line style="stroke:#181818;stroke-width:0.3;" x1="329.1" x2="468.9" y1="475.5" y2="475.5"/><text fill="#000000" font-family="sans-serif" font-size="8.4" lengthAdjust="spacing" textLength="114" x="332.1" y="485.693">normalized_data : raggedarray</text><text fill="#000000" font-family="sans-serif" font-size="8.4" lengthAdjust="spacing" textLength="116.4" x="332.1" y="495.5367">normalizing_data : raggedarray</text><line style="stroke:#181818;stroke-width:0.3;" x1="329.1" x2="468.9" y1="499.9875" y2="499.9875"/></g><!--class IntervalChannelData--><g id="elem_IntervalChannelData"><rect codeLine="85" fill="#F1F1F1" height="97.7063" id="IntervalChannelData" rx="1.5" ry="1.5" style="stroke:#181818;stroke-width:0.3;" width="121.2" x="406.2" y="316.2"/><ellipse cx="426.54" cy="325.8" fill="#ADD1B2" rx="6.6" ry="6.6" style="stroke:#181818;stroke-width:0.6;"/><path d="M426.5681,329.5219 C427.4681,329.5219 428.2087,329.1844 428.7525,328.5469 L427.9275,327.6375 C427.5994,327.9938 427.2056,328.2281 426.7275,328.2281 C425.7244,328.2281 425.0306,327.4313 425.0306,326.0625 C425.0306,324.7313 425.7244,323.925 426.6619,323.925 C427.1494,323.925 427.5056,324.1125 427.8244,324.4031 L428.6494,323.475 C428.1994,323.0344 427.5056,322.6312 426.6619,322.6312 C424.89,322.6312 423.4931,323.9156 423.4931,326.1188 C423.4931,328.35 424.9181,329.5219 426.5681,329.5219 Z " fill="#000000"/><text fill="#000000" font-family="sans-serif" font-size="8.4" lengthAdjust="spacing" textLength="76.8" x="437.46" y="328.6711">IntervalChannelData</text><line style="stroke:#181818;stroke-width:0.3;" x1="406.8" x2="526.8" y1="335.4" y2="335.4"/><text fill="#000000" font-family="sans-serif" font-size="8.4" lengthAdjust="spacing" textLength="87" x="409.8" y="345.593">raw_data : raggedarray</text><text fill="#000000" font-family="sans-serif" font-size="8.4" lengthAdjust="spacing" textLength="114" x="409.8" y="355.4367">counts : np.ndarray(dtype=int)</text><text fill="#000000" font-family="sans-serif" font-size="8.4" lengthAdjust="spacing" textLength="71.4" x="409.8" y="365.2805">_mean : np.ndarray</text><text fill="#000000" font-family="sans-serif" font-size="8.4" lengthAdjust="spacing" textLength="62.4" x="409.8" y="375.1242">_std : np.ndarray</text><line style="stroke:#181818;stroke-width:0.3;" x1="406.8" x2="526.8" y1="379.575" y2="379.575"/><text fill="#000000" font-family="sans-serif" font-size="8.4" lengthAdjust="spacing" textLength="27" x="409.8" y="389.768">mean()</text><text fill="#000000" font-family="sans-serif" font-size="8.4" lengthAdjust="spacing" textLength="18" x="409.8" y="399.6117">std()</text><text fill="#000000" font-family="sans-serif" font-size="8.4" lengthAdjust="spacing" textLength="58.8" x="409.8" y="409.4555">has_raw_data()</text></g><!--class IntervalNormalizedChannelData--><g id="elem_IntervalNormalizedChannelData"><rect codeLine="95" fill="#F1F1F1" height="48.4875" id="IntervalNormalizedChannelData" rx="1.5" ry="1.5" style="stroke:#181818;stroke-width:0.3;" width="138.6" x="490.5" y="456.3"/><ellipse cx="499.5" cy="465.9" fill="#ADD1B2" rx="6.6" ry="6.6" style="stroke:#181818;stroke-width:0.6;"/><path d="M499.5281,469.6219 C500.4281,469.6219 501.1688,469.2844 501.7125,468.6469 L500.8875,467.7375 C500.5594,468.0938 500.1656,468.3281 499.6875,468.3281 C498.6844,468.3281 497.9906,467.5313 497.9906,466.1625 C497.9906,464.8312 498.6844,464.025 499.6219,464.025 C500.1094,464.025 500.4656,464.2125 500.7844,464.5031 L501.6094,463.575 C501.1594,463.1344 500.4656,462.7313 499.6219,462.7313 C497.85,462.7313 496.4531,464.0156 496.4531,466.2188 C496.4531,468.45 497.8781,469.6219 499.5281,469.6219 Z " fill="#000000"/><text fill="#000000" font-family="sans-serif" font-size="8.4" lengthAdjust="spacing" textLength="119.4" x="507.9" y="468.7711">IntervalNormalizedChannelData</text><line style="stroke:#181818;stroke-width:0.3;" x1="491.1" x2="628.5" y1="475.5" y2="475.5"/><text fill="#000000" font-family="sans-serif" font-size="8.4" lengthAdjust="spacing" textLength="114" x="494.1" y="485.693">normalized_data : raggedarray</text><text fill="#000000" font-family="sans-serif" font-size="8.4" lengthAdjust="spacing" textLength="116.4" x="494.1" y="495.5367">normalizing_data : raggedarray</text><line style="stroke:#181818;stroke-width:0.3;" x1="491.1" x2="628.5" y1="499.9875" y2="499.9875"/></g><!--class ArrayChannelData--><g id="elem_ArrayChannelData"><rect codeLine="100" fill="#F1F1F1" height="28.8" id="ArrayChannelData" rx="1.5" ry="1.5" style="stroke:#181818;stroke-width:0.3;" width="88.2" x="548.7" y="350.7"/><ellipse cx="557.7" cy="360.3" fill="#ADD1B2" rx="6.6" ry="6.6" style="stroke:#181818;stroke-width:0.6;"/><path d="M557.7281,364.0219 C558.6281,364.0219 559.3688,363.6844 559.9125,363.0469 L559.0875,362.1375 C558.7594,362.4938 558.3656,362.7281 557.8875,362.7281 C556.8844,362.7281 556.1906,361.9313 556.1906,360.5625 C556.1906,359.2313 556.8844,358.425 557.8219,358.425 C558.3094,358.425 558.6656,358.6125 558.9844,358.9031 L559.8094,357.975 C559.3594,357.5344 558.6656,357.1312 557.8219,357.1312 C556.05,357.1312 554.6531,358.4156 554.6531,360.6188 C554.6531,362.85 556.0781,364.0219 557.7281,364.0219 Z " fill="#000000"/><text fill="#000000" font-family="sans-serif" font-size="8.4" lengthAdjust="spacing" textLength="69" x="566.1" y="363.1711">ArrayChannelData</text><line style="stroke:#181818;stroke-width:0.3;" x1="549.3" x2="636.3" y1="369.9" y2="369.9"/><line style="stroke:#181818;stroke-width:0.3;" x1="549.3" x2="636.3" y1="374.7" y2="374.7"/></g><!--class AreaChannelData--><g id="elem_AreaChannelData"><rect codeLine="103" fill="#F1F1F1" height="28.8" id="AreaChannelData" rx="1.5" ry="1.5" style="stroke:#181818;stroke-width:0.3;" width="85.2" x="658.2" y="350.7"/><ellipse cx="667.2" cy="360.3" fill="#ADD1B2" rx="6.6" ry="6.6" style="stroke:#181818;stroke-width:0.6;"/><path d="M667.2281,364.0219 C668.1281,364.0219 668.8688,363.6844 669.4125,363.0469 L668.5875,362.1375 C668.2594,362.4938 667.8656,362.7281 667.3875,362.7281 C666.3844,362.7281 665.6906,361.9313 665.6906,360.5625 C665.6906,359.2313 666.3844,358.425 667.3219,358.425 C667.8094,358.425 668.1656,358.6125 668.4844,358.9031 L669.3094,357.975 C668.8594,357.5344 668.1656,357.1312 667.3219,357.1312 C665.55,357.1312 664.1531,358.4156 664.1531,360.6188 C664.1531,362.85 665.5781,364.0219 667.2281,364.0219 Z " fill="#000000"/><text fill="#000000" font-family="sans-serif" font-size="8.4" lengthAdjust="spacing" textLength="66" x="675.6" y="363.1711">AreaChannelData</text><line style="stroke:#181818;stroke-width:0.3;" x1="658.8" x2="742.8" y1="369.9" y2="369.9"/><line style="stroke:#181818;stroke-width:0.3;" x1="658.8" x2="742.8" y1="374.7" y2="374.7"/></g><!--reverse link Data to DataImporter--><g id="link_Data_DataImporter"><path codeLine="31" d="M510.018,55.2 C516.99,55.2 516.762,55.2 523.734,55.2 " fill="none" id="Data-backto-DataImporter" style="stroke:#181818;stroke-width:0.6;"/><polygon fill="#181818" points="502.818,55.2,506.418,57.6,510.018,55.2,506.418,52.8,502.818,55.2" style="stroke:#181818;stroke-width:0.6;"/></g><!--reverse link Data to Metadata--><g id="link_Data_Metadata"><path codeLine="32" d="M408.6722,94.1834 C401.8382,99.9674 400.278,101.25 393.6,106.8 C376.722,120.828 357.24,136.614 343.608,147.588 " fill="none" id="Data-backto-Metadata" style="stroke:#181818;stroke-width:0.6;"/><polygon fill="#181818" points="414.168,89.532,409.8696,90.0258,408.6722,94.1834,412.9706,93.6897,414.168,89.532" style="stroke:#181818;stroke-width:0.6;"/></g><!--reverse link Data to MeasureData--><g id="link_Data_MeasureData"><path d="M453.6,100.302 C453.6,117.93 453.6,128.034 453.6,142.746 " fill="none" id="Data-backto-MeasureData" style="stroke:#181818;stroke-width:0.6;"/><polygon fill="none" points="453.6,89.502,450,100.302,457.2,100.302,453.6,89.502" style="stroke:#181818;stroke-width:0.6;"/></g><!--reverse link Data to MonitorData--><g id="link_Data_MonitorData"><path d="M499.307,96.3196 C506.615,102.3556 506.034,101.52 513.6,106.8 C532.554,120.036 554.964,132.858 573.426,142.746 " fill="none" id="Data-backto-MonitorData" style="stroke:#181818;stroke-width:0.6;"/><polygon fill="none" points="490.98,89.442,497.0144,99.0953,501.5995,93.544,490.98,89.442" style="stroke:#181818;stroke-width:0.6;"/></g><!--reverse link MeasureData to AxisData--><g id="link_MeasureData_AxisData"><path d="M431.3876,189.5859 C418.7816,204.8979 408.072,217.908 396.666,231.768 " fill="none" id="MeasureData-backto-AxisData" style="stroke:#181818;stroke-width:0.6;"/><polygon fill="none" points="438.252,181.248,428.6083,187.2978,434.1669,191.874,438.252,181.248" style="stroke:#181818;stroke-width:0.6;"/></g><!--reverse link MeasureData to ChannelData--><g id="link_MeasureData_ChannelData"><path d="M458.2568,191.9145 C460.6868,207.2265 462.384,217.908 464.586,231.768 " fill="none" id="MeasureData-backto-ChannelData" style="stroke:#181818;stroke-width:0.6;"/><polygon fill="none" points="456.564,181.248,454.7013,192.4788,461.8123,191.3503,456.564,181.248" style="stroke:#181818;stroke-width:0.6;"/></g><!--reverse link MeasureData to TimestampData--><g id="link_MeasureData_TimestampData"><path d="M495.2694,186.6475 C513.5934,197.2255 527.556,205.278 548.136,217.158 " fill="none" id="MeasureData-backto-TimestampData" style="stroke:#181818;stroke-width:0.6;"/><polygon fill="none" points="485.916,181.248,493.4696,189.7653,497.0692,183.5297,485.916,181.248" style="stroke:#181818;stroke-width:0.6;"/></g><!--reverse link ChannelData to SinglePointChannelData--><g id="link_ChannelData_SinglePointChannelData"><path d="M439.7211,266.8381 C431.9931,272.1301 431.568,271.68 422.4,275.4 C347.766,305.67 318.786,279.582 244.8,311.4 C222.108,321.156 199.362,338.394 184.836,350.574 " fill="none" id="ChannelData-backto-SinglePointChannelData" style="stroke:#181818;stroke-width:0.6;"/><polygon fill="none" points="448.632,260.736,437.687,263.8677,441.7551,269.8084,448.632,260.736" style="stroke:#181818;stroke-width:0.6;"/></g><!--reverse link SinglePointChannelData to SinglePointNormalizedChannelData--><g id="link_SinglePointChannelData_SinglePointNormalizedChannelData"><path d="M151.6841,388.2446 C136.9121,407.2586 116.928,432.984 98.97,456.102 " fill="none" id="SinglePointChannelData-backto-SinglePointNormalizedChannelData" style="stroke:#181818;stroke-width:0.6;"/><polygon fill="none" points="158.31,379.716,148.8412,386.036,154.527,390.4533,158.31,379.716" style="stroke:#181818;stroke-width:0.6;"/></g><!--reverse link ChannelData to AverageChannelData--><g id="link_ChannelData_AverageChannelData"><path d="M441.0112,267.6149 C425.0692,280.4249 408.846,293.454 385.35,312.33 " fill="none" id="ChannelData-backto-AverageChannelData" style="stroke:#181818;stroke-width:0.6;"/><polygon fill="none" points="449.43,260.85,438.7562,264.8086,443.2661,270.4211,449.43,260.85" style="stroke:#181818;stroke-width:0.6;"/></g><!--reverse link AverageChannelData to AverageNormalizedChannelData--><g id="link_AverageChannelData_AverageNormalizedChannelData"><path d="M363.0585,427.7357 C372.0345,440.7917 375.09,445.236 382.572,456.108 " fill="none" id="AverageChannelData-backto-AverageNormalizedChannelData" style="stroke:#181818;stroke-width:0.6;"/><polygon fill="none" points="356.94,418.836,360.092,429.7752,366.0251,425.6961,356.94,418.836" style="stroke:#181818;stroke-width:0.6;"/></g><!--reverse link ChannelData to IntervalChannelData--><g id="link_ChannelData_IntervalChannelData"><path d="M466.8,271.65 C466.8,285.282 466.8,296.022 466.8,315.948 " fill="none" id="ChannelData-backto-IntervalChannelData" style="stroke:#181818;stroke-width:0.6;"/><polygon fill="none" points="466.8,260.85,463.2,271.65,470.4,271.65,466.8,260.85" style="stroke:#181818;stroke-width:0.6;"/></g><!--reverse link IntervalChannelData to IntervalNormalizedChannelData--><g id="link_IntervalChannelData_IntervalNormalizedChannelData"><path d="M512.9225,422.3831 C524.8205,437.0051 530.544,444.042 540.51,456.294 " fill="none" id="IntervalChannelData-backto-IntervalNormalizedChannelData" style="stroke:#181818;stroke-width:0.6;"/><polygon fill="none" points="506.106,414.006,510.1301,424.6552,515.7148,420.1109,506.106,414.006" style="stroke:#181818;stroke-width:0.6;"/></g><!--reverse link ChannelData to ArrayChannelData--><g id="link_ChannelData_ArrayChannelData"><path d="M490.6207,268.0026 C505.1887,280.9566 519.312,293.694 538.2,311.4 C552.186,324.51 567.846,339.804 578.796,350.604 " fill="none" id="ChannelData-backto-ArrayChannelData" style="stroke:#181818;stroke-width:0.6;"/><polygon fill="none" points="482.55,260.826,488.2285,270.6928,493.0129,265.3123,482.55,260.826" style="stroke:#181818;stroke-width:0.6;"/></g><!--reverse link ChannelData to AreaChannelData--><g id="link_ChannelData_AreaChannelData"><path d="M494.4655,266.8024 C502.1275,271.9744 502.314,271.488 511.2,275.4 C568.512,300.618 593.082,280.26 647.4,311.4 C664.866,321.414 680.646,338.592 690.444,350.694 " fill="none" id="ChannelData-backto-AreaChannelData" style="stroke:#181818;stroke-width:0.6;"/><polygon fill="none" points="485.514,260.76,492.4513,269.7863,496.4796,263.8186,485.514,260.76" style="stroke:#181818;stroke-width:0.6;"/></g><!--SRC=[jLLDRzim3BtxLn2zB1tMO1smIu1Y25OCws53WUuu860jEj5gIuOafys2_lTH7tRin4aBREkXaQb7yf5yfj_O1wbgD5Y1g2LSVdoVPNc9ri8rEeHj1lnNaKFX7sVmBHs3VP6CgfugWSRW9ffbLMlZoF2LZtAJ7iEbTvcSPy-PqewWfCA1BW9iDbjqaS_2yGmQss1PRY3Nog5K5X0kho6a0bG295lodAmb4VpM4i6jA6M19JbFW_clj839xOP_5TH6rsJSvfoXw89VpbbiyEmJ1WONqbYNae0iG94_eTbCi-3vHHkGIiYr54mLyXKgHIMiiMp8WYNcGaQkIK1eAzdWDL-JmILzZkZGQb_EZUAixDgpfpHpN_8-V6u81pP3O7L5ZsrPjgPSCYiCjNLj19ByQE33TMWKS0a8fRHX5D5o_ujo5xbEs257I_vILipQXkHOoWSwdsR4Pp_Blcww1aRzMDsOdC8nIYC88E5RHJ4sYU9UEwUh6TpvvabSUd4MslnKdGuhBPgIk3MXxBSNGvabuyLEh5qgj8sXS4zFZfaFPBuj99NY6MfjfPEQrTQNzaIuJKrNKha-UQsaq-QbY9KikRt4xHUl23f_adOGiSzxkyFrH_y2z8Uio3giwXFWFk55aFtYvKuCd3ZLQttupUoG4zUoU-SdIrS-JgyVTr8jIxhLx3nMSj-s7NFwhat5QlrDOipzIFJO3zMv7jbrBO23Z21s8prytqVfXvW67zjOxBIaNhgsrSXxhQhTwHulAa8rifwj4uTMZvr4FxvF9uoqO_79jaAxQ1dk5dbyP_sAE2nr62fkHbxEXbnZM2PQbP42BsVUCcbpDhpImUdM3pJ_JWCi_Fkg7q5enaNUl2UA8drX2iD4KXHUNPx1fuCjbLYUbiR8r8x9OdzG8xheGrWOYSZ8olyxQUIwKVzT60SYsAlcT5_7QlvtZKq3tlzWZZUrXnz-Iu_1_m00]--></g></svg>