<?xml version="1.0" encoding="us-ascii" standalone="no"?><svg xmlns="http://www.w3.org/2000/svg" xmlns:xlink="http://www.w3.org/1999/xlink" contentStyleType="text/css" height="434.4px" preserveAspectRatio="none" style="width:656px;height:434px;background:#FFFFFF;" version="1.1" viewBox="0 0 656 434" width="656.4px" zoomAndPan="magnify"><defs/><g><!--class Metadata--><g id="elem_Metadata"><rect codeLine="2" fill="#F1F1F1" height="38.6438" id="Metadata" rx="1.5" ry="1.5" style="stroke:#181818;stroke-width:0.3;" width="55.8" x="122.1" y="4.2"/><ellipse cx="131.1" cy="13.8" fill="#ADD1B2" rx="6.6" ry="6.6" style="stroke:#181818;stroke-width:0.6;"/><path d="M131.1281,17.5219 C132.0281,17.5219 132.7687,17.1844 133.3125,16.5469 L132.4875,15.6375 C132.1594,15.9937 131.7656,16.2281 131.2875,16.2281 C130.2844,16.2281 129.5906,15.4312 129.5906,14.0625 C129.5906,12.7313 130.2844,11.925 131.2219,11.925 C131.7094,11.925 132.0656,12.1125 132.3844,12.4031 L133.2094,11.475 C132.7594,11.0344 132.0656,10.6313 131.2219,10.6313 C129.45,10.6313 128.0531,11.9156 128.0531,14.1188 C128.0531,16.35 129.4781,17.5219 131.1281,17.5219 Z " fill="#000000"/><text fill="#000000" font-family="sans-serif" font-size="8.4" lengthAdjust="spacing" textLength="36.6" x="139.5" y="16.6711">Metadata</text><line style="stroke:#181818;stroke-width:0.3;" x1="122.7" x2="177.3" y1="23.4" y2="23.4"/><text fill="#000000" font-family="sans-serif" font-size="8.4" lengthAdjust="spacing" textLength="48" x="125.7" y="33.593">name : string</text><line style="stroke:#181818;stroke-width:0.3;" x1="122.7" x2="177.3" y1="38.0437" y2="38.0437"/></g><!--class Data--><g id="elem_Data"><rect codeLine="6" fill="#F1F1F1" height="28.8" id="Data" rx="1.5" ry="1.5" style="stroke:#181818;stroke-width:0.3;" width="37.2" x="63.6" y="9"/><ellipse cx="72.6" cy="18.6" fill="#ADD1B2" rx="6.6" ry="6.6" style="stroke:#181818;stroke-width:0.6;"/><path d="M72.6281,22.3219 C73.5281,22.3219 74.2688,21.9844 74.8125,21.3469 L73.9875,20.4375 C73.6594,20.7938 73.2656,21.0281 72.7875,21.0281 C71.7844,21.0281 71.0906,20.2313 71.0906,18.8625 C71.0906,17.5313 71.7844,16.725 72.7219,16.725 C73.2094,16.725 73.5656,16.9125 73.8844,17.2031 L74.7094,16.275 C74.2594,15.8344 73.5656,15.4312 72.7219,15.4312 C70.95,15.4312 69.5531,16.7156 69.5531,18.9188 C69.5531,21.15 70.9781,22.3219 72.6281,22.3219 Z " fill="#000000"/><text fill="#000000" font-family="sans-serif" font-size="8.4" lengthAdjust="spacing" textLength="18" x="81" y="21.4711">Data</text><line style="stroke:#181818;stroke-width:0.3;" x1="64.2" x2="100.2" y1="28.2" y2="28.2"/><line style="stroke:#181818;stroke-width:0.3;" x1="64.2" x2="100.2" y1="33" y2="33"/></g><g id="elem_GMN4"><path d="M48.9,95.7 L48.9,119.9812 A0,0 0 0 0 48.9,119.9812 L115.5,119.9812 A0,0 0 0 0 115.5,119.9812 L115.5,101.7 L109.5,95.7 L84.6,95.7 L82.2,37.908 L79.8,95.7 L48.9,95.7 A0,0 0 0 0 48.9,95.7 " fill="#FEFFDD" style="stroke:#181818;stroke-width:0.3;"/><path d="M109.5,95.7 L109.5,101.7 L115.5,101.7 L109.5,95.7 " fill="#FEFFDD" style="stroke:#181818;stroke-width:0.3;"/><text fill="#000000" font-family="sans-serif" font-size="7.8" lengthAdjust="spacing" textLength="54" x="52.5" y="105.9363">See diagram for</text><text fill="#000000" font-family="sans-serif" font-size="7.8" lengthAdjust="spacing" textLength="43.8" x="52.5" y="115.077">data module.</text></g><!--class DeviceMetadata--><g id="elem_DeviceMetadata"><rect codeLine="10" fill="#F1F1F1" height="58.3313" id="DeviceMetadata" rx="1.5" ry="1.5" style="stroke:#181818;stroke-width:0.3;" width="89.4" x="187.5" y="78.6"/><ellipse cx="202.17" cy="88.2" fill="#B4A7E5" rx="6.6" ry="6.6" style="stroke:#181818;stroke-width:0.6;"/><path d="M199.9294,91.8 L204.5325,91.8 L204.5325,90.5344 L202.9856,90.5344 L202.9856,86.4188 L204.5325,86.4188 L204.5325,85.1531 L199.9294,85.1531 L199.9294,86.4188 L201.4763,86.4188 L201.4763,90.5344 L199.9294,90.5344 L199.9294,91.8 Z " fill="#000000"/><text fill="#000000" font-family="sans-serif" font-size="8.4" font-style="italic" lengthAdjust="spacing" textLength="57.6" x="211.83" y="91.0711">DeviceMetadata</text><line style="stroke:#181818;stroke-width:0.3;" x1="188.1" x2="276.3" y1="97.8" y2="97.8"/><text fill="#000000" font-family="sans-serif" font-size="8.4" lengthAdjust="spacing" textLength="33.6" x="191.1" y="107.993">id : string</text><text fill="#000000" font-family="sans-serif" font-size="8.4" lengthAdjust="spacing" textLength="36" x="191.1" y="117.8367">pv : string</text><text fill="#000000" font-family="sans-serif" font-size="8.4" lengthAdjust="spacing" textLength="82.2" x="191.1" y="127.6805">transport_type : string</text><line style="stroke:#181818;stroke-width:0.3;" x1="188.1" x2="276.3" y1="132.1313" y2="132.1313"/></g><!--class MeasureMetadata--><g id="elem_MeasureMetadata"><rect codeLine="16" fill="#F1F1F1" height="38.6438" id="MeasureMetadata" rx="1.5" ry="1.5" style="stroke:#181818;stroke-width:0.3;" width="88.2" x="297.9" y="88.5"/><ellipse cx="306.9" cy="98.1" fill="#ADD1B2" rx="6.6" ry="6.6" style="stroke:#181818;stroke-width:0.6;"/><path d="M306.9281,101.8219 C307.8281,101.8219 308.5687,101.4844 309.1125,100.8469 L308.2875,99.9375 C307.9594,100.2938 307.5656,100.5281 307.0875,100.5281 C306.0844,100.5281 305.3906,99.7313 305.3906,98.3625 C305.3906,97.0313 306.0844,96.225 307.0219,96.225 C307.5094,96.225 307.8656,96.4125 308.1844,96.7031 L309.0094,95.775 C308.5594,95.3344 307.8656,94.9312 307.0219,94.9312 C305.25,94.9312 303.8531,96.2156 303.8531,98.4188 C303.8531,100.65 305.2781,101.8219 306.9281,101.8219 Z " fill="#000000"/><text fill="#000000" font-family="sans-serif" font-size="8.4" lengthAdjust="spacing" textLength="69" x="315.3" y="100.9711">MeasureMetadata</text><line style="stroke:#181818;stroke-width:0.3;" x1="298.5" x2="385.5" y1="107.7" y2="107.7"/><text fill="#000000" font-family="sans-serif" font-size="8.4" lengthAdjust="spacing" textLength="41.4" x="301.5" y="117.893">unit : string</text><line style="stroke:#181818;stroke-width:0.3;" x1="298.5" x2="385.5" y1="122.3438" y2="122.3438"/></g><!--class MonitorMetadata--><g id="elem_MonitorMetadata"><rect codeLine="20" fill="#F1F1F1" height="28.8" id="MonitorMetadata" rx="1.5" ry="1.5" style="stroke:#181818;stroke-width:0.3;" width="85.2" x="99.6" y="177.6"/><ellipse cx="108.6" cy="187.2" fill="#ADD1B2" rx="6.6" ry="6.6" style="stroke:#181818;stroke-width:0.6;"/><path d="M108.6281,190.9219 C109.5281,190.9219 110.2688,190.5844 110.8125,189.9469 L109.9875,189.0375 C109.6594,189.3937 109.2656,189.6281 108.7875,189.6281 C107.7844,189.6281 107.0906,188.8312 107.0906,187.4625 C107.0906,186.1313 107.7844,185.325 108.7219,185.325 C109.2094,185.325 109.5656,185.5125 109.8844,185.8031 L110.7094,184.875 C110.2594,184.4344 109.5656,184.0313 108.7219,184.0313 C106.95,184.0313 105.5531,185.3156 105.5531,187.5187 C105.5531,189.75 106.9781,190.9219 108.6281,190.9219 Z " fill="#000000"/><text fill="#000000" font-family="sans-serif" font-size="8.4" lengthAdjust="spacing" textLength="66" x="117" y="190.0711">MonitorMetadata</text><line style="stroke:#181818;stroke-width:0.3;" x1="100.2" x2="184.2" y1="196.8" y2="196.8"/><line style="stroke:#181818;stroke-width:0.3;" x1="100.2" x2="184.2" y1="201.6" y2="201.6"/></g><!--class AxisMetadata--><g id="elem_AxisMetadata"><rect codeLine="23" fill="#F1F1F1" height="28.8" id="AxisMetadata" rx="1.5" ry="1.5" style="stroke:#181818;stroke-width:0.3;" width="71.4" x="206.1" y="177.6"/><ellipse cx="215.1" cy="187.2" fill="#ADD1B2" rx="6.6" ry="6.6" style="stroke:#181818;stroke-width:0.6;"/><path d="M215.1281,190.9219 C216.0281,190.9219 216.7687,190.5844 217.3125,189.9469 L216.4875,189.0375 C216.1594,189.3937 215.7656,189.6281 215.2875,189.6281 C214.2844,189.6281 213.5906,188.8312 213.5906,187.4625 C213.5906,186.1313 214.2844,185.325 215.2219,185.325 C215.7094,185.325 216.0656,185.5125 216.3844,185.8031 L217.2094,184.875 C216.7594,184.4344 216.0656,184.0313 215.2219,184.0313 C213.45,184.0313 212.0531,185.3156 212.0531,187.5187 C212.0531,189.75 213.4781,190.9219 215.1281,190.9219 Z " fill="#000000"/><text fill="#000000" font-family="sans-serif" font-size="8.4" lengthAdjust="spacing" textLength="52.2" x="223.5" y="190.0711">AxisMetadata</text><line style="stroke:#181818;stroke-width:0.3;" x1="206.7" x2="276.9" y1="196.8" y2="196.8"/><line style="stroke:#181818;stroke-width:0.3;" x1="206.7" x2="276.9" y1="201.6" y2="201.6"/></g><!--class ChannelMetadata--><g id="elem_ChannelMetadata"><rect codeLine="26" fill="#F1F1F1" height="38.6438" id="ChannelMetadata" rx="1.5" ry="1.5" style="stroke:#181818;stroke-width:0.3;" width="86.4" x="298.8" y="172.8"/><ellipse cx="307.8" cy="182.4" fill="#ADD1B2" rx="6.6" ry="6.6" style="stroke:#181818;stroke-width:0.6;"/><path d="M307.8281,186.1219 C308.7281,186.1219 309.4688,185.7844 310.0125,185.1469 L309.1875,184.2375 C308.8594,184.5938 308.4656,184.8281 307.9875,184.8281 C306.9844,184.8281 306.2906,184.0313 306.2906,182.6625 C306.2906,181.3312 306.9844,180.525 307.9219,180.525 C308.4094,180.525 308.7656,180.7125 309.0844,181.0031 L309.9094,180.075 C309.4594,179.6344 308.7656,179.2313 307.9219,179.2313 C306.15,179.2313 304.7531,180.5156 304.7531,182.7188 C304.7531,184.95 306.1781,186.1219 307.8281,186.1219 Z " fill="#000000"/><text fill="#000000" font-family="sans-serif" font-size="8.4" lengthAdjust="spacing" textLength="67.2" x="316.2" y="185.2711">ChannelMetadata</text><line style="stroke:#181818;stroke-width:0.3;" x1="299.4" x2="384.6" y1="192" y2="192"/><text fill="#000000" font-family="sans-serif" font-size="8.4" lengthAdjust="spacing" textLength="73.8" x="302.4" y="202.193">normalise_id : string</text><line style="stroke:#181818;stroke-width:0.3;" x1="299.4" x2="384.6" y1="206.6437" y2="206.6437"/></g><!--class TimestampMetadata--><g id="elem_TimestampMetadata"><rect codeLine="30" fill="#F1F1F1" height="28.8" id="TimestampMetadata" rx="1.5" ry="1.5" style="stroke:#181818;stroke-width:0.3;" width="97.8" x="406.5" y="177.6"/><ellipse cx="415.5" cy="187.2" fill="#ADD1B2" rx="6.6" ry="6.6" style="stroke:#181818;stroke-width:0.6;"/><path d="M415.5281,190.9219 C416.4281,190.9219 417.1688,190.5844 417.7125,189.9469 L416.8875,189.0375 C416.5594,189.3937 416.1656,189.6281 415.6875,189.6281 C414.6844,189.6281 413.9906,188.8312 413.9906,187.4625 C413.9906,186.1313 414.6844,185.325 415.6219,185.325 C416.1094,185.325 416.4656,185.5125 416.7844,185.8031 L417.6094,184.875 C417.1594,184.4344 416.4656,184.0313 415.6219,184.0313 C413.85,184.0313 412.4531,185.3156 412.4531,187.5187 C412.4531,189.75 413.8781,190.9219 415.5281,190.9219 Z " fill="#000000"/><text fill="#000000" font-family="sans-serif" font-size="8.4" lengthAdjust="spacing" textLength="78.6" x="423.9" y="190.0711">TimestampMetadata</text><line style="stroke:#181818;stroke-width:0.3;" x1="407.1" x2="503.7" y1="196.8" y2="196.8"/><line style="stroke:#181818;stroke-width:0.3;" x1="407.1" x2="503.7" y1="201.6" y2="201.6"/></g><!--class StandardChannelMetadata--><g id="elem_StandardChannelMetadata"><rect codeLine="33" fill="#F1F1F1" height="28.8" id="StandardChannelMetadata" rx="1.5" ry="1.5" style="stroke:#181818;stroke-width:0.3;" width="121.2" x="4.2" y="267"/><ellipse cx="13.2" cy="276.6" fill="#ADD1B2" rx="6.6" ry="6.6" style="stroke:#181818;stroke-width:0.6;"/><path d="M13.2281,280.3219 C14.1281,280.3219 14.8687,279.9844 15.4125,279.3469 L14.5875,278.4375 C14.2594,278.7938 13.8656,279.0281 13.3875,279.0281 C12.3844,279.0281 11.6906,278.2313 11.6906,276.8625 C11.6906,275.5313 12.3844,274.725 13.3219,274.725 C13.8094,274.725 14.1656,274.9125 14.4844,275.2031 L15.3094,274.275 C14.8594,273.8344 14.1656,273.4313 13.3219,273.4313 C11.55,273.4313 10.1531,274.7156 10.1531,276.9188 C10.1531,279.15 11.5781,280.3219 13.2281,280.3219 Z " fill="#000000"/><text fill="#000000" font-family="sans-serif" font-size="8.4" lengthAdjust="spacing" textLength="102" x="21.6" y="279.4711">StandardChannelMetadata</text><line style="stroke:#181818;stroke-width:0.3;" x1="4.8" x2="124.8" y1="286.2" y2="286.2"/><line style="stroke:#181818;stroke-width:0.3;" x1="4.8" x2="124.8" y1="291" y2="291"/></g><!--class AverageChannelMetadata--><g id="elem_AverageChannelMetadata"><rect codeLine="35" fill="#F1F1F1" height="68.175" id="AverageChannelMetadata" rx="1.5" ry="1.5" style="stroke:#181818;stroke-width:0.3;" width="117" x="146.7" y="247.2"/><ellipse cx="155.7" cy="256.8" fill="#ADD1B2" rx="6.6" ry="6.6" style="stroke:#181818;stroke-width:0.6;"/><path d="M155.7281,260.5219 C156.6281,260.5219 157.3688,260.1844 157.9125,259.5469 L157.0875,258.6375 C156.7594,258.9938 156.3656,259.2281 155.8875,259.2281 C154.8844,259.2281 154.1906,258.4313 154.1906,257.0625 C154.1906,255.7313 154.8844,254.925 155.8219,254.925 C156.3094,254.925 156.6656,255.1125 156.9844,255.4031 L157.8094,254.475 C157.3594,254.0344 156.6656,253.6313 155.8219,253.6313 C154.05,253.6313 152.6531,254.9156 152.6531,257.1188 C152.6531,259.35 154.0781,260.5219 155.7281,260.5219 Z " fill="#000000"/><text fill="#000000" font-family="sans-serif" font-size="8.4" lengthAdjust="spacing" textLength="97.8" x="164.1" y="259.6711">AverageChannelMetadata</text><line style="stroke:#181818;stroke-width:0.3;" x1="147.3" x2="263.1" y1="266.4" y2="266.4"/><text fill="#000000" font-family="sans-serif" font-size="8.4" lengthAdjust="spacing" textLength="73.8" x="150.3" y="276.593">n_averages : integer</text><text fill="#000000" font-family="sans-serif" font-size="8.4" lengthAdjust="spacing" textLength="55.2" x="150.3" y="286.4367">low_limit : float</text><text fill="#000000" font-family="sans-serif" font-size="8.4" lengthAdjust="spacing" textLength="85.2" x="150.3" y="296.2805">max_attempts : integer</text><text fill="#000000" font-family="sans-serif" font-size="8.4" lengthAdjust="spacing" textLength="76.8" x="150.3" y="306.1242">max_deviation : float</text><line style="stroke:#181818;stroke-width:0.3;" x1="147.3" x2="263.1" y1="310.575" y2="310.575"/></g><g id="elem_GMN25"><path d="M106.8,351.6 L106.8,430.725 A0,0 0 0 0 106.8,430.725 L303.6,430.725 A0,0 0 0 0 303.6,430.725 L303.6,357.6 L297.6,351.6 L207.6,351.6 L205.2,315.768 L202.8,351.6 L106.8,351.6 A0,0 0 0 0 106.8,351.6 " fill="#FEFFDD" style="stroke:#181818;stroke-width:0.3;"/><path d="M297.6,351.6 L297.6,357.6 L303.6,357.6 L297.6,351.6 " fill="#FEFFDD" style="stroke:#181818;stroke-width:0.3;"/><text fill="#000000" font-family="sans-serif" font-size="7.8" lengthAdjust="spacing" textLength="168" x="110.4" y="361.8363">These attributes may change for individual values</text><text fill="#000000" font-family="sans-serif" font-size="7.8" lengthAdjust="spacing" textLength="177" x="110.4" y="370.977">if the channel is redefined in different scan modules</text><text fill="#000000" font-family="sans-serif" font-size="7.8" lengthAdjust="spacing" textLength="170.4" x="110.4" y="380.1176">and are currently saved in eveH5 for each position.</text><text fill="#000000" font-family="sans-serif" font-size="7.8" lengthAdjust="spacing" textLength="1.8" x="110.4" y="389.2582">&#160;</text><text fill="#000000" font-family="sans-serif" font-size="7.8" lengthAdjust="spacing" textLength="156" x="110.4" y="398.3988">As channels can be redefined from average to</text><text fill="#000000" font-family="sans-serif" font-size="7.8" lengthAdjust="spacing" textLength="156" x="110.4" y="407.5395">interval in different scan modules, they should</text><text fill="#000000" font-family="sans-serif" font-size="7.8" lengthAdjust="spacing" textLength="164.4" x="110.4" y="416.6801">be separated into individual datasets in any case</text><text fill="#000000" font-family="sans-serif" font-size="7.8" lengthAdjust="spacing" textLength="184.2" x="110.4" y="425.8207">and in the future saved as separate datasets in eveH5.</text></g><!--class IntervalChannelMetadata--><g id="elem_IntervalChannelMetadata"><rect codeLine="52" fill="#F1F1F1" height="38.6438" id="IntervalChannelMetadata" rx="1.5" ry="1.5" style="stroke:#181818;stroke-width:0.3;" width="114.6" x="284.7" y="262.2"/><ellipse cx="293.7" cy="271.8" fill="#ADD1B2" rx="6.6" ry="6.6" style="stroke:#181818;stroke-width:0.6;"/><path d="M293.7281,275.5219 C294.6281,275.5219 295.3688,275.1844 295.9125,274.5469 L295.0875,273.6375 C294.7594,273.9938 294.3656,274.2281 293.8875,274.2281 C292.8844,274.2281 292.1906,273.4313 292.1906,272.0625 C292.1906,270.7313 292.8844,269.925 293.8219,269.925 C294.3094,269.925 294.6656,270.1125 294.9844,270.4031 L295.8094,269.475 C295.3594,269.0344 294.6656,268.6312 293.8219,268.6312 C292.05,268.6312 290.6531,269.9156 290.6531,272.1188 C290.6531,274.35 292.0781,275.5219 293.7281,275.5219 Z " fill="#000000"/><text fill="#000000" font-family="sans-serif" font-size="8.4" lengthAdjust="spacing" textLength="95.4" x="302.1" y="274.6711">IntervalChannelMetadata</text><line style="stroke:#181818;stroke-width:0.3;" x1="285.3" x2="398.7" y1="281.4" y2="281.4"/><text fill="#000000" font-family="sans-serif" font-size="8.4" lengthAdjust="spacing" textLength="78.6" x="288.3" y="291.593">trigger_interval : float</text><line style="stroke:#181818;stroke-width:0.3;" x1="285.3" x2="398.7" y1="296.0438" y2="296.0438"/></g><!--class ArrayChannelMetadata--><g id="elem_ArrayChannelMetadata"><rect codeLine="56" fill="#F1F1F1" height="28.8" id="ArrayChannelMetadata" rx="1.5" ry="1.5" style="stroke:#181818;stroke-width:0.3;" width="106.8" x="420.6" y="267"/><ellipse cx="429.6" cy="276.6" fill="#ADD1B2" rx="6.6" ry="6.6" style="stroke:#181818;stroke-width:0.6;"/><path d="M429.6281,280.3219 C430.5281,280.3219 431.2688,279.9844 431.8125,279.3469 L430.9875,278.4375 C430.6594,278.7938 430.2656,279.0281 429.7875,279.0281 C428.7844,279.0281 428.0906,278.2313 428.0906,276.8625 C428.0906,275.5313 428.7844,274.725 429.7219,274.725 C430.2094,274.725 430.5656,274.9125 430.8844,275.2031 L431.7094,274.275 C431.2594,273.8344 430.5656,273.4313 429.7219,273.4313 C427.95,273.4313 426.5531,274.7156 426.5531,276.9188 C426.5531,279.15 427.9781,280.3219 429.6281,280.3219 Z " fill="#000000"/><text fill="#000000" font-family="sans-serif" font-size="8.4" lengthAdjust="spacing" textLength="87.6" x="438" y="279.4711">ArrayChannelMetadata</text><line style="stroke:#181818;stroke-width:0.3;" x1="421.2" x2="526.8" y1="286.2" y2="286.2"/><line style="stroke:#181818;stroke-width:0.3;" x1="421.2" x2="526.8" y1="291" y2="291"/></g><!--class AreaChannelMetadata--><g id="elem_AreaChannelMetadata"><rect codeLine="59" fill="#F1F1F1" height="28.8" id="AreaChannelMetadata" rx="1.5" ry="1.5" style="stroke:#181818;stroke-width:0.3;" width="103.8" x="548.7" y="267"/><ellipse cx="557.7" cy="276.6" fill="#ADD1B2" rx="6.6" ry="6.6" style="stroke:#181818;stroke-width:0.6;"/><path d="M557.7281,280.3219 C558.6281,280.3219 559.3688,279.9844 559.9125,279.3469 L559.0875,278.4375 C558.7594,278.7938 558.3656,279.0281 557.8875,279.0281 C556.8844,279.0281 556.1906,278.2313 556.1906,276.8625 C556.1906,275.5313 556.8844,274.725 557.8219,274.725 C558.3094,274.725 558.6656,274.9125 558.9844,275.2031 L559.8094,274.275 C559.3594,273.8344 558.6656,273.4313 557.8219,273.4313 C556.05,273.4313 554.6531,274.7156 554.6531,276.9188 C554.6531,279.15 556.0781,280.3219 557.7281,280.3219 Z " fill="#000000"/><text fill="#000000" font-family="sans-serif" font-size="8.4" lengthAdjust="spacing" textLength="84.6" x="566.1" y="279.4711">AreaChannelMetadata</text><line style="stroke:#181818;stroke-width:0.3;" x1="549.3" x2="651.9" y1="286.2" y2="286.2"/><line style="stroke:#181818;stroke-width:0.3;" x1="549.3" x2="651.9" y1="291" y2="291"/></g><!--reverse link Metadata to MeasureMetadata--><g id="link_Metadata_MeasureMetadata"><path d="M188.11,37.9135 C216.13,48.3055 250.182,61.548 287.4,78.6 C294.012,81.63 300.96,85.062 307.608,88.464 " fill="none" id="Metadata-backto-MeasureMetadata" style="stroke:#181818;stroke-width:0.6;"/><polygon fill="none" points="177.984,34.158,186.8582,41.2889,189.3618,34.5382,177.984,34.158" style="stroke:#181818;stroke-width:0.6;"/></g><!--reverse link Metadata to MonitorMetadata--><g id="link_Metadata_MonitorMetadata"><path d="M148.6274,53.5023 C147.0494,87.3723 144.252,147.324 142.854,177.39 " fill="none" id="Metadata-backto-MonitorMetadata" style="stroke:#181818;stroke-width:0.6;"/><polygon fill="none" points="149.13,42.714,145.0313,53.3348,152.2235,53.6698,149.13,42.714" style="stroke:#181818;stroke-width:0.6;"/></g><!--reverse link DeviceMetadata to MonitorMetadata--><g id="link_DeviceMetadata_MonitorMetadata"><path d="M193.2927,144.2221 C178.4427,157.9321 169.266,166.404 157.308,177.45 " fill="none" id="DeviceMetadata-backto-MonitorMetadata" style="stroke:#181818;stroke-width:0.6;stroke-dasharray:7.0,7.0;"/><polygon fill="none" points="201.228,136.896,190.8507,141.577,195.7348,146.8672,201.228,136.896" style="stroke:#181818;stroke-width:0.6;"/></g><!--reverse link MeasureMetadata to AxisMetadata--><g id="link_MeasureMetadata_AxisMetadata"><path d="M311.1987,133.8421 C292.6767,149.2021 275.148,163.746 258.444,177.6 " fill="none" id="MeasureMetadata-backto-AxisMetadata" style="stroke:#181818;stroke-width:0.6;"/><polygon fill="none" points="319.512,126.948,308.9006,131.071,313.4967,136.6132,319.512,126.948" style="stroke:#181818;stroke-width:0.6;"/></g><!--reverse link DeviceMetadata to AxisMetadata--><g id="link_DeviceMetadata_AxisMetadata"><path d="M236.7455,147.6246 C238.3295,161.3346 238.914,166.404 240.186,177.45 " fill="none" id="DeviceMetadata-backto-AxisMetadata" style="stroke:#181818;stroke-width:0.6;stroke-dasharray:7.0,7.0;"/><polygon fill="none" points="235.506,136.896,233.1693,148.0378,240.3218,147.2114,235.506,136.896" style="stroke:#181818;stroke-width:0.6;"/></g><!--reverse link MeasureMetadata to ChannelMetadata--><g id="link_MeasureMetadata_ChannelMetadata"><path d="M342,137.748 C342,151.338 342,158.886 342,172.524 " fill="none" id="MeasureMetadata-backto-ChannelMetadata" style="stroke:#181818;stroke-width:0.6;"/><polygon fill="none" points="342,126.948,338.4,137.748,345.6,137.748,342,126.948" style="stroke:#181818;stroke-width:0.6;"/></g><!--reverse link DeviceMetadata to ChannelMetadata--><g id="link_DeviceMetadata_ChannelMetadata"><path d="M278.5995,143.4139 C294.2955,155.2939 303.45,162.222 317.406,172.788 " fill="none" id="DeviceMetadata-backto-ChannelMetadata" style="stroke:#181818;stroke-width:0.6;stroke-dasharray:7.0,7.0;"/><polygon fill="none" points="269.988,136.896,276.4269,146.2844,280.7721,140.5434,269.988,136.896" style="stroke:#181818;stroke-width:0.6;"/></g><!--reverse link MeasureMetadata to TimestampMetadata--><g id="link_MeasureMetadata_TimestampMetadata"><path d="M376.163,133.3322 C397.121,148.6922 417.66,163.746 436.566,177.6 " fill="none" id="MeasureMetadata-backto-TimestampMetadata" style="stroke:#181818;stroke-width:0.6;"/><polygon fill="none" points="367.452,126.948,374.0349,136.2359,378.2911,130.4286,367.452,126.948" style="stroke:#181818;stroke-width:0.6;"/></g><!--reverse link ChannelMetadata to StandardChannelMetadata--><g id="link_ChannelMetadata_StandardChannelMetadata"><path d="M288.5033,211.1834 C284.8673,212.3414 291.522,210.18 288,211.2 C221.406,230.514 201.654,224.316 136.2,247.2 C120.744,252.606 104.16,260.286 90.87,266.94 " fill="none" id="ChannelMetadata-backto-StandardChannelMetadata" style="stroke:#181818;stroke-width:0.6;"/><polygon fill="none" points="298.794,207.906,287.4108,207.7532,289.5958,214.6136,298.794,207.906" style="stroke:#181818;stroke-width:0.6;"/></g><!--reverse link ChannelMetadata to AverageChannelMetadata--><g id="link_ChannelMetadata_AverageChannelMetadata"><path d="M303.9142,217.156 C287.7562,227.578 276.228,235.008 257.37,247.164 " fill="none" id="ChannelMetadata-backto-AverageChannelMetadata" style="stroke:#181818;stroke-width:0.6;"/><polygon fill="none" points="312.99,211.302,301.9628,214.1307,305.8655,220.1813,312.99,211.302" style="stroke:#181818;stroke-width:0.6;"/></g><!--reverse link ChannelMetadata to IntervalChannelMetadata--><g id="link_ChannelMetadata_IntervalChannelMetadata"><path d="M342,222.102 C342,237.072 342,247.164 342,262.122 " fill="none" id="ChannelMetadata-backto-IntervalChannelMetadata" style="stroke:#181818;stroke-width:0.6;"/><polygon fill="none" points="342,211.302,338.4,222.102,345.6,222.102,342,211.302" style="stroke:#181818;stroke-width:0.6;"/></g><!--reverse link ChannelMetadata to ArrayChannelMetadata--><g id="link_ChannelMetadata_ArrayChannelMetadata"><path d="M378.9751,217.3032 C403.8691,233.9412 430.74,251.892 453.18,266.886 " fill="none" id="ChannelMetadata-backto-ArrayChannelMetadata" style="stroke:#181818;stroke-width:0.6;"/><polygon fill="none" points="369.996,211.302,376.9747,220.2963,380.9756,214.3102,369.996,211.302" style="stroke:#181818;stroke-width:0.6;"/></g><!--reverse link ChannelMetadata to AreaChannelMetadata--><g id="link_ChannelMetadata_AreaChannelMetadata"><path d="M395.5033,211.1591 C399.1333,212.3291 392.484,210.15 396,211.2 C458.472,229.83 477.438,223.566 538.2,247.2 C551.958,252.552 566.532,260.268 578.13,266.958 " fill="none" id="ChannelMetadata-backto-AreaChannelMetadata" style="stroke:#181818;stroke-width:0.6;"/><polygon fill="none" points="385.224,207.846,394.3989,214.5856,396.6076,207.7327,385.224,207.846" style="stroke:#181818;stroke-width:0.6;"/></g><!--reverse link Data to Metadata--><g id="link_Data_Metadata"><path codeLine="62" d="M108.204,23.4 C115.224,23.4 115.038,23.4 122.058,23.4 " fill="none" id="Data-backto-Metadata" style="stroke:#181818;stroke-width:0.6;"/><polygon fill="#181818" points="101.004,23.4,104.604,25.8,108.204,23.4,104.604,21,101.004,23.4" style="stroke:#181818;stroke-width:0.6;"/></g><!--SRC=[fLGzR-Cm3DtzApWVxhhTqgsu3ktGgHqFC1YBjWNemw1eNuAY__qeEN6SD45Rr9CbyJs-Hr9g7AO4JoHeK11UAz0le2UuXIHiGrUzLLLJekxdYBSgH27OH97eR-6P28p5Zj536_blA4G-cj7HJLNP8CGjDWJtDDc6pb9PSqoKryDqkXR6a8R8Kijkk2JgYJ2DVAIbhL0mxooDmSebTDJzoDVHrW-EF0L9x_KlB7TRcovGd0gxphIc-jDZ2EI-nrPw6DcZiudgTOcNF2_MKnBqmuUPLkAU1RMxRAw9FDz_FLPe8iQEFWsSBTGumv8Qo7FK4PS35__LplhIqTP5bBBhSLkZ2Fb1pW7vo6YPK6mC2-Xaa4lSIq-9G4dORaRHl1vtqAYuZl9iAwUnapKZEfZGZPJc6Mv1UYfnQW9i0YP3hGra5A6Ness9jLMG6Wpxcp4ZjPo0hD2HSu3RGLBB1KKJFVmkIGcR7eQOR1QlDoe3xz8XdVuewOPMELkE7lQb0ucpndmDLVDrGJ-p2HNGnz6PWb7IH0CoIf4aSUq_zocHLbe9CMYLTBLuqhrSaNOKdQIz9qmBsmcu6BsfT0uWj-CmCOzxmLyR6MrSfqsl5xl7NXycaHbtdoTTuGY_12klvOzVorDI_GS0]--></g></svg>