<?xml version="1.0" encoding="us-ascii" standalone="no"?><svg xmlns="http://www.w3.org/2000/svg" xmlns:xlink="http://www.w3.org/1999/xlink" contentStyleType="text/css" height="621px" preserveAspectRatio="none" style="width:746px;height:621px;background:#FFFFFF;" version="1.1" viewBox="0 0 746 621" width="746.4px" zoomAndPan="magnify"><defs/><g><rect fill="#DDDDDD" height="65.0625" id="_legend" rx="4.5" ry="4.5" style="stroke:#000000;stroke-width:0.6;" width="315" x="7.2" y="7.2"/><text fill="#000000" font-family="sans-serif" font-size="8.4" font-weight="bold" lengthAdjust="spacing" textLength="67.2" x="10.2" y="17.993">eveH5 schema v8</text><text fill="#000000" font-family="sans-serif" font-size="8.4" lengthAdjust="spacing" textLength="139.2" x="79.2" y="17.993">&#8212; not yet released, complete overhaul</text><text fill="#000000" font-family="sans-serif" font-size="8.4" lengthAdjust="spacing" textLength="1.8" x="10.2" y="27.8367">&#160;</text><text fill="#000000" font-family="sans-serif" font-size="8.4" lengthAdjust="spacing" textLength="129" x="10.2" y="37.6805">G: HDF5 groups; D: HDF5 datasets;</text><text fill="#B22222" font-family="sans-serif" font-size="8.4" lengthAdjust="spacing" textLength="7.8" x="141" y="37.6805">&#9744;</text><text fill="#000000" font-family="sans-serif" font-size="8.4" lengthAdjust="spacing" textLength="72.6" x="148.8" y="37.6805">: optional attributes</text><text fill="#000000" font-family="sans-serif" font-size="8.4" lengthAdjust="spacing" textLength="169.8" x="10.2" y="47.5242">Dataset columns appear below the attributes.</text><text fill="#000000" font-family="sans-serif" font-size="8.4" lengthAdjust="spacing" textLength="309" x="10.2" y="57.368">Dataset names in angle brackets &lt;&gt; are replaced with actual names in an eveH5 file.</text><text fill="#000000" font-family="sans-serif" font-size="8.4" lengthAdjust="spacing" textLength="169.2" x="10.2" y="67.2117">Name parts in square brackets [] are optional.</text><!--class Root--><g id="elem_Root"><rect codeLine="12" fill="#F1F1F1" height="117.3938" id="Root" rx="1.5" ry="1.5" style="stroke:#181818;stroke-width:0.3;" width="108" x="129.3" y="84.2625"/><ellipse cx="171.75" cy="93.8625" fill="#DA70D6" rx="6.6" ry="6.6" style="stroke:#181818;stroke-width:0.6;"/><path d="M171.6469,97.5844 C172.4906,97.5844 173.2781,97.2 173.7281,96.7781 L173.7281,93.7219 L171.4125,93.7219 L171.4125,94.9406 L172.3875,94.9406 L172.3875,96.0844 C172.2375,96.2156 171.9844,96.2906 171.7313,96.2906 C170.6813,96.2906 170.1469,95.4937 170.1469,94.125 C170.1469,92.7938 170.8031,91.9875 171.6656,91.9875 C172.2,91.9875 172.5094,92.175 172.7906,92.4656 L173.6156,91.5375 C173.1844,91.1063 172.5656,90.6938 171.6656,90.6938 C169.9406,90.6938 168.6,91.95 168.6,94.1812 C168.6,96.4125 169.9406,97.5844 171.6469,97.5844 Z " fill="#000000"/><text fill="#000000" font-family="sans-serif" font-size="8.4" lengthAdjust="spacing" textLength="18" x="184.05" y="96.7336">Root</text><line style="stroke:#181818;stroke-width:0.3;" x1="129.9" x2="236.7" y1="103.4625" y2="103.4625"/><text fill="#000000" font-family="sans-serif" font-size="8.4" lengthAdjust="spacing" textLength="81" x="141.3" y="113.6555">EVEH5Version : string</text><text fill="#000000" font-family="sans-serif" font-size="8.4" lengthAdjust="spacing" textLength="70.2" x="141.3" y="123.4992">EVEVersion : string</text><text fill="#000000" font-family="sans-serif" font-size="8.4" lengthAdjust="spacing" textLength="60" x="141.3" y="133.343">Location : string</text><text fill="#000000" font-family="sans-serif" font-size="8.4" lengthAdjust="spacing" textLength="45.6" x="141.3" y="143.1867">Start : string</text><text fill="#000000" font-family="sans-serif" font-size="8.4" lengthAdjust="spacing" textLength="41.4" x="141.3" y="153.0305">End : string</text><text fill="#000000" font-family="sans-serif" font-size="8.4" lengthAdjust="spacing" textLength="63.6" x="141.3" y="162.8742">Comment : string</text><text fill="#000000" font-family="sans-serif" font-size="8.4" lengthAdjust="spacing" textLength="66.6" x="141.3" y="172.718">Simulation : string</text><rect fill="none" height="3.6" style="stroke:#C82930;stroke-width:0.6;" width="3.6" x="134.1" y="178.7906"/><text fill="#000000" font-family="sans-serif" font-size="8.4" lengthAdjust="spacing" textLength="77.4" x="141.3" y="182.5617">PreferredAxis : string</text><rect fill="none" height="3.6" style="stroke:#C82930;stroke-width:0.6;" width="3.6" x="134.1" y="188.6344"/><text fill="#000000" font-family="sans-serif" font-size="8.4" lengthAdjust="spacing" textLength="92.4" x="141.3" y="192.4055">PreferredChannel : string</text><line style="stroke:#181818;stroke-width:0.3;" x1="129.9" x2="236.7" y1="196.8563" y2="196.8563"/></g><!--class monitor--><g id="elem_monitor"><rect codeLine="29" fill="#F1F1F1" height="33.8813" id="monitor" rx="1.5" ry="1.5" style="stroke:#181818;stroke-width:0.3;" width="49.8" x="51" y="237.8625"/><ellipse cx="60" cy="250.0031" fill="#DA70D6" rx="6.6" ry="6.6" style="stroke:#181818;stroke-width:0.6;"/><path d="M59.8969,253.725 C60.7406,253.725 61.5281,253.3406 61.9781,252.9188 L61.9781,249.8625 L59.6625,249.8625 L59.6625,251.0812 L60.6375,251.0812 L60.6375,252.225 C60.4875,252.3563 60.2344,252.4312 59.9812,252.4312 C58.9313,252.4312 58.3969,251.6344 58.3969,250.2656 C58.3969,248.9344 59.0531,248.1281 59.9156,248.1281 C60.45,248.1281 60.7594,248.3156 61.0406,248.6063 L61.8656,247.6781 C61.4344,247.2469 60.8156,246.8344 59.9156,246.8344 C58.1906,246.8344 56.85,248.0906 56.85,250.3219 C56.85,252.5531 58.1906,253.725 59.8969,253.725 Z " fill="#000000"/><text fill="#000000" font-family="sans-serif" font-size="7.2" font-style="italic" lengthAdjust="spacing" textLength="33" x="67.2" y="247.5422">&#171;optional&#187;</text><text fill="#000000" font-family="sans-serif" font-size="8.4" lengthAdjust="spacing" textLength="29.4" x="69" y="257.093">monitor</text><line style="stroke:#181818;stroke-width:0.3;" x1="51.6" x2="100.2" y1="262.1438" y2="262.1438"/><line style="stroke:#181818;stroke-width:0.3;" x1="51.6" x2="100.2" y1="266.9437" y2="266.9437"/></g><!--class main--><g id="elem_main"><rect codeLine="34" fill="#F1F1F1" height="28.8" id="main" rx="1.5" ry="1.5" style="stroke:#181818;stroke-width:0.3;" width="37.8" x="198.6" y="240.2625"/><ellipse cx="207.6" cy="249.8625" fill="#DA70D6" rx="6.6" ry="6.6" style="stroke:#181818;stroke-width:0.6;"/><path d="M207.4969,253.5844 C208.3406,253.5844 209.1281,253.2 209.5781,252.7781 L209.5781,249.7219 L207.2625,249.7219 L207.2625,250.9406 L208.2375,250.9406 L208.2375,252.0844 C208.0875,252.2156 207.8344,252.2906 207.5812,252.2906 C206.5313,252.2906 205.9969,251.4937 205.9969,250.125 C205.9969,248.7938 206.6531,247.9875 207.5156,247.9875 C208.05,247.9875 208.3594,248.175 208.6406,248.4656 L209.4656,247.5375 C209.0344,247.1063 208.4156,246.6938 207.5156,246.6938 C205.7906,246.6938 204.45,247.95 204.45,250.1812 C204.45,252.4125 205.7906,253.5844 207.4969,253.5844 Z " fill="#000000"/><text fill="#000000" font-family="sans-serif" font-size="8.4" lengthAdjust="spacing" textLength="18.6" x="216" y="252.7336">main</text><line style="stroke:#181818;stroke-width:0.3;" x1="199.2" x2="235.8" y1="259.4625" y2="259.4625"/><line style="stroke:#181818;stroke-width:0.3;" x1="199.2" x2="235.8" y1="264.2625" y2="264.2625"/></g><!--class snapshot--><g id="elem_snapshot"><rect codeLine="39" fill="#F1F1F1" height="33.8813" id="snapshot" rx="1.5" ry="1.5" style="stroke:#181818;stroke-width:0.3;" width="54.6" x="122.4" y="237.8625"/><ellipse cx="131.4" cy="250.0031" fill="#DA70D6" rx="6.6" ry="6.6" style="stroke:#181818;stroke-width:0.6;"/><path d="M131.2969,253.725 C132.1406,253.725 132.9281,253.3406 133.3781,252.9188 L133.3781,249.8625 L131.0625,249.8625 L131.0625,251.0812 L132.0375,251.0812 L132.0375,252.225 C131.8875,252.3563 131.6344,252.4312 131.3813,252.4312 C130.3312,252.4312 129.7969,251.6344 129.7969,250.2656 C129.7969,248.9344 130.4531,248.1281 131.3156,248.1281 C131.85,248.1281 132.1594,248.3156 132.4406,248.6063 L133.2656,247.6781 C132.8344,247.2469 132.2156,246.8344 131.3156,246.8344 C129.5906,246.8344 128.25,248.0906 128.25,250.3219 C128.25,252.5531 129.5906,253.725 131.2969,253.725 Z " fill="#000000"/><text fill="#000000" font-family="sans-serif" font-size="7.2" font-style="italic" lengthAdjust="spacing" textLength="33" x="141" y="247.5422">&#171;optional&#187;</text><text fill="#000000" font-family="sans-serif" font-size="8.4" lengthAdjust="spacing" textLength="35.4" x="139.8" y="257.093">snapshot</text><line style="stroke:#181818;stroke-width:0.3;" x1="123" x2="176.4" y1="262.1438" y2="262.1438"/><line style="stroke:#181818;stroke-width:0.3;" x1="123" x2="176.4" y1="266.9437" y2="266.9437"/></g><!--class meta--><g id="elem_meta"><rect codeLine="43" fill="#F1F1F1" height="28.8" id="meta" rx="1.5" ry="1.5" style="stroke:#181818;stroke-width:0.3;" width="38.4" x="497.1" y="240.2625"/><ellipse cx="506.1" cy="249.8625" fill="#DA70D6" rx="6.6" ry="6.6" style="stroke:#181818;stroke-width:0.6;"/><path d="M505.9969,253.5844 C506.8406,253.5844 507.6281,253.2 508.0781,252.7781 L508.0781,249.7219 L505.7625,249.7219 L505.7625,250.9406 L506.7375,250.9406 L506.7375,252.0844 C506.5875,252.2156 506.3344,252.2906 506.0812,252.2906 C505.0313,252.2906 504.4969,251.4937 504.4969,250.125 C504.4969,248.7938 505.1531,247.9875 506.0156,247.9875 C506.55,247.9875 506.8594,248.175 507.1406,248.4656 L507.9656,247.5375 C507.5344,247.1063 506.9156,246.6938 506.0156,246.6938 C504.2906,246.6938 502.95,247.95 502.95,250.1812 C502.95,252.4125 504.2906,253.5844 505.9969,253.5844 Z " fill="#000000"/><text fill="#000000" font-family="sans-serif" font-size="8.4" lengthAdjust="spacing" textLength="19.2" x="514.5" y="252.7336">meta</text><line style="stroke:#181818;stroke-width:0.3;" x1="497.7" x2="534.9" y1="259.4625" y2="259.4625"/><line style="stroke:#181818;stroke-width:0.3;" x1="497.7" x2="534.9" y1="264.2625" y2="264.2625"/></g><!--class <monitordata>--><g id="elem_&lt;monitordata&gt;"><rect codeLine="168" fill="#F1F1F1" height="87.8625" id="&lt;monitordata&gt;" rx="1.5" ry="1.5" style="stroke:#181818;stroke-width:0.3;" width="74.4" x="38.1" y="307.4625"/><ellipse cx="47.1" cy="317.0625" fill="#FFA500" rx="6.6" ry="6.6" style="stroke:#181818;stroke-width:0.6;"/><path d="M45.4125,320.6625 L47.3438,320.6625 C49.1906,320.6625 50.4563,319.5938 50.4563,317.3063 C50.4563,315.0188 49.1906,314.0156 47.25,314.0156 L45.4125,314.0156 L45.4125,320.6625 Z M46.9219,319.4531 L46.9219,315.225 L47.1656,315.225 C48.2063,315.225 48.9094,315.7125 48.9094,317.3063 C48.9094,318.9 48.2063,319.4531 47.1656,319.4531 L46.9219,319.4531 Z " fill="#000000"/><text fill="#000000" font-family="sans-serif" font-size="8.4" lengthAdjust="spacing" textLength="55.2" x="55.5" y="319.9336">&lt;monitordata&gt;</text><line style="stroke:#181818;stroke-width:0.3;" x1="38.7" x2="111.9" y1="326.6625" y2="326.6625"/><text fill="#000000" font-family="sans-serif" font-size="8.4" lengthAdjust="spacing" textLength="53.4" x="50.1" y="336.8555">Access : string</text><text fill="#000000" font-family="sans-serif" font-size="8.4" lengthAdjust="spacing" textLength="49.2" x="50.1" y="346.6992">Name : string</text><text fill="#000000" font-family="sans-serif" font-size="8.4" lengthAdjust="spacing" textLength="52.2" x="50.1" y="356.543">XMLID : string</text><rect fill="none" height="3.6" style="stroke:#C82930;stroke-width:0.6;" width="3.6" x="42.9" y="362.6156"/><text fill="#000000" font-family="sans-serif" font-size="8.4" lengthAdjust="spacing" textLength="42" x="50.1" y="366.3867">Unit : string</text><line style="stroke:#181818;stroke-width:0.6;" x1="38.7" x2="111.9" y1="370.8375" y2="370.8375"/><text fill="#000000" font-family="sans-serif" font-size="8.4" lengthAdjust="spacing" textLength="42.6" x="41.7" y="381.0305">Time : int32</text><text fill="#000000" font-family="sans-serif" font-size="8.4" lengthAdjust="spacing" textLength="28.8" x="41.7" y="390.8742">Values :</text><text fill="#000000" font-family="sans-serif" font-size="8.4" font-style="italic" lengthAdjust="spacing" textLength="12.6" x="72.3" y="390.8742">any</text></g><!--class normalized--><g id="elem_normalized"><rect codeLine="72" fill="#F1F1F1" height="33.8813" id="normalized" rx="1.5" ry="1.5" style="stroke:#181818;stroke-width:0.3;" width="60.6" x="279.6" y="334.4625"/><ellipse cx="288.6" cy="346.6031" fill="#DA70D6" rx="6.6" ry="6.6" style="stroke:#181818;stroke-width:0.6;"/><path d="M288.4969,350.325 C289.3406,350.325 290.1281,349.9406 290.5781,349.5188 L290.5781,346.4625 L288.2625,346.4625 L288.2625,347.6813 L289.2375,347.6813 L289.2375,348.825 C289.0875,348.9563 288.8344,349.0313 288.5813,349.0313 C287.5313,349.0313 286.9969,348.2344 286.9969,346.8656 C286.9969,345.5344 287.6531,344.7281 288.5156,344.7281 C289.05,344.7281 289.3594,344.9156 289.6406,345.2063 L290.4656,344.2781 C290.0344,343.8469 289.4156,343.4344 288.5156,343.4344 C286.7906,343.4344 285.45,344.6906 285.45,346.9219 C285.45,349.1531 286.7906,350.325 288.4969,350.325 Z " fill="#000000"/><text fill="#000000" font-family="sans-serif" font-size="7.2" font-style="italic" lengthAdjust="spacing" textLength="33" x="301.2" y="344.1422">&#171;optional&#187;</text><text fill="#000000" font-family="sans-serif" font-size="8.4" lengthAdjust="spacing" textLength="41.4" x="297" y="353.693">normalized</text><line style="stroke:#181818;stroke-width:0.3;" x1="280.2" x2="339.6" y1="358.7438" y2="358.7438"/><line style="stroke:#181818;stroke-width:0.3;" x1="280.2" x2="339.6" y1="363.5438" y2="363.5438"/></g><!--class scanmodule_<#>--><g id="elem_scanmodule_&lt;#&gt;"><rect codeLine="62" fill="#F1F1F1" height="48.4875" id="scanmodule_&lt;#&gt;" rx="1.5" ry="1.5" style="stroke:#181818;stroke-width:0.3;" width="82.2" x="176.4" y="326.9625"/><ellipse cx="185.4" cy="336.5625" fill="#DA70D6" rx="6.6" ry="6.6" style="stroke:#181818;stroke-width:0.6;"/><path d="M185.2969,340.2844 C186.1406,340.2844 186.9281,339.9 187.3781,339.4781 L187.3781,336.4219 L185.0625,336.4219 L185.0625,337.6406 L186.0375,337.6406 L186.0375,338.7844 C185.8875,338.9156 185.6344,338.9906 185.3813,338.9906 C184.3312,338.9906 183.7969,338.1937 183.7969,336.825 C183.7969,335.4938 184.4531,334.6875 185.3156,334.6875 C185.85,334.6875 186.1594,334.875 186.4406,335.1656 L187.2656,334.2375 C186.8344,333.8063 186.2156,333.3938 185.3156,333.3938 C183.5906,333.3938 182.25,334.65 182.25,336.8812 C182.25,339.1125 183.5906,340.2844 185.2969,340.2844 Z " fill="#000000"/><text fill="#000000" font-family="sans-serif" font-size="8.4" lengthAdjust="spacing" textLength="63" x="193.8" y="339.4336">scanmodule_&lt;#&gt;</text><line style="stroke:#181818;stroke-width:0.3;" x1="177" x2="258" y1="346.1625" y2="346.1625"/><text fill="#000000" font-family="sans-serif" font-size="8.4" lengthAdjust="spacing" textLength="49.2" x="180" y="356.3555">Name : string</text><text fill="#000000" font-family="sans-serif" font-size="8.4" lengthAdjust="spacing" textLength="32.4" x="180" y="366.1992">ID : int32</text><line style="stroke:#181818;stroke-width:0.3;" x1="177" x2="258" y1="370.65" y2="370.65"/></g><!--class <data>--><g id="elem_&lt;data&gt;"><rect codeLine="50" fill="#F1F1F1" height="107.55" id="&lt;data&gt;" rx="1.5" ry="1.5" style="stroke:#181818;stroke-width:0.3;" width="90.6" x="4.2" y="470.6625"/><ellipse cx="34.05" cy="480.2625" fill="#FFA500" rx="6.6" ry="6.6" style="stroke:#181818;stroke-width:0.6;"/><path d="M32.3625,483.8625 L34.2937,483.8625 C36.1406,483.8625 37.4063,482.7938 37.4063,480.5062 C37.4063,478.2188 36.1406,477.2156 34.2,477.2156 L32.3625,477.2156 L32.3625,483.8625 Z M33.8719,482.6531 L33.8719,478.425 L34.1156,478.425 C35.1563,478.425 35.8594,478.9125 35.8594,480.5062 C35.8594,482.1 35.1563,482.6531 34.1156,482.6531 L33.8719,482.6531 Z " fill="#000000"/><text fill="#000000" font-family="sans-serif" font-size="8.4" lengthAdjust="spacing" textLength="25.8" x="46.35" y="483.1336">&lt;data&gt;</text><line style="stroke:#181818;stroke-width:0.3;" x1="4.8" x2="94.2" y1="489.8625" y2="489.8625"/><text fill="#000000" font-family="sans-serif" font-size="8.4" lengthAdjust="spacing" textLength="53.4" x="16.2" y="500.0555">Access : string</text><text fill="#000000" font-family="sans-serif" font-size="8.4" lengthAdjust="spacing" textLength="49.2" x="16.2" y="509.8992">Name : string</text><text fill="#000000" font-family="sans-serif" font-size="8.4" lengthAdjust="spacing" textLength="52.2" x="16.2" y="519.743">XMLID : string</text><text fill="#000000" font-family="sans-serif" font-size="8.4" lengthAdjust="spacing" textLength="69" x="16.2" y="529.5867">DeviceType : string</text><rect fill="none" height="3.6" style="stroke:#C82930;stroke-width:0.6;" width="3.6" x="9" y="535.6594"/><text fill="#000000" font-family="sans-serif" font-size="8.4" lengthAdjust="spacing" textLength="75" x="16.2" y="539.4305">Detectortype : string</text><rect fill="none" height="3.6" style="stroke:#C82930;stroke-width:0.6;" width="3.6" x="9" y="545.5031"/><text fill="#000000" font-family="sans-serif" font-size="8.4" lengthAdjust="spacing" textLength="42" x="16.2" y="549.2742">Unit : string</text><line style="stroke:#181818;stroke-width:0.6;" x1="4.8" x2="94.2" y1="553.725" y2="553.725"/><text fill="#000000" font-family="sans-serif" font-size="8.4" lengthAdjust="spacing" textLength="78" x="7.8" y="563.918">PositionCount : int32</text><text fill="#000000" font-family="sans-serif" font-size="8.4" lengthAdjust="spacing" textLength="28.8" x="7.8" y="573.7617">Values :</text><text fill="#000000" font-family="sans-serif" font-size="8.4" font-style="italic" lengthAdjust="spacing" textLength="12.6" x="38.4" y="573.7617">any</text></g><!--class PositionCountTime--><g id="elem_PositionCountTime"><rect codeLine="139" fill="#F1F1F1" height="58.3313" id="PositionCountTime" rx="1.5" ry="1.5" style="stroke:#181818;stroke-width:0.3;" width="90.6" x="361.2" y="322.1625"/><ellipse cx="370.2" cy="331.7625" fill="#FFA500" rx="6.6" ry="6.6" style="stroke:#181818;stroke-width:0.6;"/><path d="M368.5125,335.3625 L370.4437,335.3625 C372.2906,335.3625 373.5563,334.2938 373.5563,332.0062 C373.5563,329.7188 372.2906,328.7156 370.35,328.7156 L368.5125,328.7156 L368.5125,335.3625 Z M370.0219,334.1531 L370.0219,329.925 L370.2656,329.925 C371.3063,329.925 372.0094,330.4125 372.0094,332.0062 C372.0094,333.6 371.3063,334.1531 370.2656,334.1531 L370.0219,334.1531 Z " fill="#000000"/><text fill="#000000" font-family="sans-serif" font-size="8.4" lengthAdjust="spacing" textLength="71.4" x="378.6" y="334.6336">PositionCountTime</text><line style="stroke:#181818;stroke-width:0.3;" x1="361.8" x2="451.2" y1="341.3625" y2="341.3625"/><text fill="#000000" font-family="sans-serif" font-size="8.4" lengthAdjust="spacing" textLength="42" x="364.8" y="351.5555">Unit : string</text><line style="stroke:#181818;stroke-width:0.6;" x1="361.8" x2="451.2" y1="356.0062" y2="356.0062"/><text fill="#000000" font-family="sans-serif" font-size="8.4" lengthAdjust="spacing" textLength="78" x="364.8" y="366.1992">PositionCount : int32</text><text fill="#000000" font-family="sans-serif" font-size="8.4" lengthAdjust="spacing" textLength="42.6" x="364.8" y="376.043">Time : int32</text></g><!--class LogMessages--><g id="elem_LogMessages"><rect codeLine="146" fill="#F1F1F1" height="53.5688" id="LogMessages" rx="1.5" ry="1.5" style="stroke:#181818;stroke-width:0.3;" width="86.4" x="473.1" y="324.5625"/><ellipse cx="488.85" cy="336.7031" fill="#FFA500" rx="6.6" ry="6.6" style="stroke:#181818;stroke-width:0.6;"/><path d="M487.1625,340.3031 L489.0938,340.3031 C490.9406,340.3031 492.2062,339.2344 492.2062,336.9469 C492.2062,334.6594 490.9406,333.6563 489,333.6563 L487.1625,333.6563 L487.1625,340.3031 Z M488.6719,339.0938 L488.6719,334.8656 L488.9156,334.8656 C489.9562,334.8656 490.6594,335.3531 490.6594,336.9469 C490.6594,338.5406 489.9562,339.0938 488.9156,339.0938 L488.6719,339.0938 Z " fill="#000000"/><text fill="#000000" font-family="sans-serif" font-size="7.2" font-style="italic" lengthAdjust="spacing" textLength="33" x="508.35" y="334.2422">&#171;optional&#187;</text><text fill="#000000" font-family="sans-serif" font-size="8.4" lengthAdjust="spacing" textLength="52.2" x="498.75" y="343.793">LogMessages</text><line style="stroke:#181818;stroke-width:0.3;" x1="473.7" x2="558.9" y1="348.8438" y2="348.8438"/><line style="stroke:#181818;stroke-width:0.6;" x1="473.7" x2="558.9" y1="353.6438" y2="353.6438"/><text fill="#000000" font-family="sans-serif" font-size="8.4" lengthAdjust="spacing" textLength="69" x="476.7" y="363.8367">Timestamp : string</text><text fill="#000000" font-family="sans-serif" font-size="8.4" lengthAdjust="spacing" textLength="79.2" x="476.7" y="373.6805">Message : vlen_string</text></g><!--class SCML--><g id="elem_SCML"><rect codeLine="152" fill="#F1F1F1" height="68.175" id="SCML" rx="1.5" ry="1.5" style="stroke:#181818;stroke-width:0.3;" width="70.2" x="580.8" y="317.0625"/><ellipse cx="602.76" cy="326.6625" fill="#FFA500" rx="6.6" ry="6.6" style="stroke:#181818;stroke-width:0.6;"/><path d="M601.0725,330.2625 L603.0038,330.2625 C604.8506,330.2625 606.1163,329.1937 606.1163,326.9063 C606.1163,324.6188 604.8506,323.6156 602.91,323.6156 L601.0725,323.6156 L601.0725,330.2625 Z M602.5819,329.0531 L602.5819,324.825 L602.8256,324.825 C603.8663,324.825 604.5694,325.3125 604.5694,326.9063 C604.5694,328.5 603.8663,329.0531 602.8256,329.0531 L602.5819,329.0531 Z " fill="#000000"/><text fill="#000000" font-family="sans-serif" font-size="8.4" lengthAdjust="spacing" textLength="22.2" x="614.04" y="329.5336">SCML</text><line style="stroke:#181818;stroke-width:0.3;" x1="581.4" x2="650.4" y1="336.2625" y2="336.2625"/><text fill="#000000" font-family="sans-serif" font-size="8.4" lengthAdjust="spacing" textLength="55.2" x="584.4" y="346.4555">Version : string</text><text fill="#000000" font-family="sans-serif" font-size="8.4" lengthAdjust="spacing" textLength="60.6" x="584.4" y="356.2992">Filename : string</text><text fill="#000000" font-family="sans-serif" font-size="8.4" lengthAdjust="spacing" textLength="52.8" x="584.4" y="366.143">Author : string</text><line style="stroke:#181818;stroke-width:0.6;" x1="581.4" x2="650.4" y1="370.5938" y2="370.5938"/><text fill="#000000" font-family="sans-serif" font-size="8.4" lengthAdjust="spacing" textLength="63" x="584.4" y="380.7867">XML : vlen_string</text></g><!--class Setup--><g id="elem_Setup"><rect codeLine="160" fill="#F1F1F1" height="58.3313" id="Setup" rx="1.5" ry="1.5" style="stroke:#181818;stroke-width:0.3;" width="70.2" x="672" y="322.1625"/><ellipse cx="694.23" cy="331.7625" fill="#FFA500" rx="6.6" ry="6.6" style="stroke:#181818;stroke-width:0.6;"/><path d="M692.5425,335.3625 L694.4738,335.3625 C696.3206,335.3625 697.5863,334.2938 697.5863,332.0062 C697.5863,329.7188 696.3206,328.7156 694.38,328.7156 L692.5425,328.7156 L692.5425,335.3625 Z M694.0519,334.1531 L694.0519,329.925 L694.2956,329.925 C695.3363,329.925 696.0394,330.4125 696.0394,332.0062 C696.0394,333.6 695.3363,334.1531 694.2956,334.1531 L694.0519,334.1531 Z " fill="#000000"/><text fill="#000000" font-family="sans-serif" font-size="8.4" lengthAdjust="spacing" textLength="21.6" x="705.57" y="334.6336">Setup</text><line style="stroke:#181818;stroke-width:0.3;" x1="672.6" x2="741.6" y1="341.3625" y2="341.3625"/><text fill="#000000" font-family="sans-serif" font-size="8.4" lengthAdjust="spacing" textLength="55.2" x="675.6" y="351.5555">Version : string</text><text fill="#000000" font-family="sans-serif" font-size="8.4" lengthAdjust="spacing" textLength="60.6" x="675.6" y="361.3992">Filename : string</text><line style="stroke:#181818;stroke-width:0.6;" x1="672.6" x2="741.6" y1="365.85" y2="365.85"/><text fill="#000000" font-family="sans-serif" font-size="8.4" lengthAdjust="spacing" textLength="63" x="675.6" y="376.043">XML : vlen_string</text></g><!--class <averagedata>--><g id="elem_&lt;averagedata&gt;"><rect codeLine="90" fill="#F1F1F1" height="186.3" id="&lt;averagedata&gt;" rx="1.5" ry="1.5" style="stroke:#181818;stroke-width:0.3;" width="108.6" x="222.6" y="431.0625"/><ellipse cx="246.72" cy="440.6625" fill="#FFA500" rx="6.6" ry="6.6" style="stroke:#181818;stroke-width:0.6;"/><path d="M245.0325,444.2625 L246.9637,444.2625 C248.8106,444.2625 250.0763,443.1937 250.0763,440.9063 C250.0763,438.6188 248.8106,437.6156 246.87,437.6156 L245.0325,437.6156 L245.0325,444.2625 Z M246.5419,443.0531 L246.5419,438.825 L246.7856,438.825 C247.8263,438.825 248.5294,439.3125 248.5294,440.9063 C248.5294,442.5 247.8263,443.0531 246.7856,443.0531 L246.5419,443.0531 Z " fill="#000000"/><text fill="#000000" font-family="sans-serif" font-size="8.4" lengthAdjust="spacing" textLength="55.8" x="258.48" y="443.5336">&lt;averagedata&gt;</text><line style="stroke:#181818;stroke-width:0.3;" x1="223.2" x2="330.6" y1="450.2625" y2="450.2625"/><text fill="#000000" font-family="sans-serif" font-size="8.4" lengthAdjust="spacing" textLength="53.4" x="234.6" y="460.4555">Access : string</text><text fill="#000000" font-family="sans-serif" font-size="8.4" lengthAdjust="spacing" textLength="49.2" x="234.6" y="470.2992">Name : string</text><text fill="#000000" font-family="sans-serif" font-size="8.4" lengthAdjust="spacing" textLength="52.2" x="234.6" y="480.143">XMLID : string</text><text fill="#000000" font-family="sans-serif" font-size="8.4" lengthAdjust="spacing" textLength="69" x="234.6" y="489.9867">DeviceType : string</text><text fill="#000000" font-family="sans-serif" font-size="8.4" lengthAdjust="spacing" textLength="75" x="234.6" y="499.8305">Detectortype : string</text><text fill="#000000" font-family="sans-serif" font-size="8.4" lengthAdjust="spacing" textLength="42" x="234.6" y="509.6742">Unit : string</text><rect fill="none" height="3.6" style="stroke:#C82930;stroke-width:0.6;" width="3.6" x="227.4" y="515.7469"/><text fill="#000000" font-family="sans-serif" font-size="8.4" lengthAdjust="spacing" textLength="72" x="234.6" y="519.518">NormalizeId : string</text><rect fill="none" height="3.6" style="stroke:#C82930;stroke-width:0.6;" width="3.6" x="227.4" y="525.5906"/><text fill="#000000" font-family="sans-serif" font-size="8.4" lengthAdjust="spacing" textLength="75.6" x="234.6" y="529.3617">MaxAttempts : int32</text><rect fill="none" height="3.6" style="stroke:#C82930;stroke-width:0.6;" width="3.6" x="227.4" y="535.4344"/><text fill="#000000" font-family="sans-serif" font-size="8.4" lengthAdjust="spacing" textLength="83.4" x="234.6" y="539.2055">MaxDeviation : float64</text><rect fill="none" height="3.6" style="stroke:#C82930;stroke-width:0.6;" width="3.6" x="227.4" y="545.2781"/><text fill="#000000" font-family="sans-serif" font-size="8.4" lengthAdjust="spacing" textLength="67.2" x="234.6" y="549.0492">LowLimit : float64</text><rect fill="none" height="3.6" style="stroke:#C82930;stroke-width:0.6;" width="3.6" x="227.4" y="555.1219"/><text fill="#000000" font-family="sans-serif" font-size="8.4" lengthAdjust="spacing" textLength="59.4" x="234.6" y="558.893">Averages : int32</text><line style="stroke:#181818;stroke-width:0.6;" x1="223.2" x2="330.6" y1="563.3438" y2="563.3438"/><text fill="#000000" font-family="sans-serif" font-size="8.4" lengthAdjust="spacing" textLength="78" x="234.6" y="573.5367">PositionCount : int32</text><text fill="#000000" font-family="sans-serif" font-size="8.4" lengthAdjust="spacing" textLength="57.6" x="234.6" y="583.3805">Values : float64</text><text fill="#000000" font-family="sans-serif" font-size="8.4" lengthAdjust="spacing" textLength="93" x="234.6" y="593.2242">RawValues : vlen_float64</text><text fill="#000000" font-family="sans-serif" font-size="8.4" lengthAdjust="spacing" textLength="48.6" x="234.6" y="603.068">Preset : int32</text><rect fill="none" height="3.6" style="stroke:#C82930;stroke-width:0.6;" width="3.6" x="227.4" y="609.1406"/><text fill="#000000" font-family="sans-serif" font-size="8.4" lengthAdjust="spacing" textLength="59.4" x="234.6" y="612.9117">Attempts : int32</text></g><!--class <intervaldata>--><g id="elem_&lt;intervaldata&gt;"><rect codeLine="110" fill="#F1F1F1" height="156.7687" id="&lt;intervaldata&gt;" rx="1.5" ry="1.5" style="stroke:#181818;stroke-width:0.3;" width="109.2" x="352.5" y="446.0625"/><ellipse cx="377.97" cy="455.6625" fill="#FFA500" rx="6.6" ry="6.6" style="stroke:#181818;stroke-width:0.6;"/><path d="M376.2825,459.2625 L378.2138,459.2625 C380.0606,459.2625 381.3263,458.1937 381.3263,455.9063 C381.3263,453.6188 380.0606,452.6156 378.12,452.6156 L376.2825,452.6156 L376.2825,459.2625 Z M377.7919,458.0531 L377.7919,453.825 L378.0356,453.825 C379.0763,453.825 379.7794,454.3125 379.7794,455.9063 C379.7794,457.5 379.0763,458.0531 378.0356,458.0531 L377.7919,458.0531 Z " fill="#000000"/><text fill="#000000" font-family="sans-serif" font-size="8.4" lengthAdjust="spacing" textLength="53.4" x="390.03" y="458.5336">&lt;intervaldata&gt;</text><line style="stroke:#181818;stroke-width:0.3;" x1="353.1" x2="461.1" y1="465.2625" y2="465.2625"/><text fill="#000000" font-family="sans-serif" font-size="8.4" lengthAdjust="spacing" textLength="53.4" x="364.5" y="475.4555">Access : string</text><text fill="#000000" font-family="sans-serif" font-size="8.4" lengthAdjust="spacing" textLength="49.2" x="364.5" y="485.2992">Name : string</text><text fill="#000000" font-family="sans-serif" font-size="8.4" lengthAdjust="spacing" textLength="52.2" x="364.5" y="495.143">XMLID : string</text><text fill="#000000" font-family="sans-serif" font-size="8.4" lengthAdjust="spacing" textLength="69" x="364.5" y="504.9867">DeviceType : string</text><text fill="#000000" font-family="sans-serif" font-size="8.4" lengthAdjust="spacing" textLength="75" x="364.5" y="514.8305">Detectortype : string</text><text fill="#000000" font-family="sans-serif" font-size="8.4" lengthAdjust="spacing" textLength="42" x="364.5" y="524.6742">Unit : string</text><rect fill="none" height="3.6" style="stroke:#C82930;stroke-width:0.6;" width="3.6" x="357.3" y="530.7469"/><text fill="#000000" font-family="sans-serif" font-size="8.4" lengthAdjust="spacing" textLength="72" x="364.5" y="534.518">NormalizeId : string</text><text fill="#000000" font-family="sans-serif" font-size="8.4" lengthAdjust="spacing" textLength="87" x="364.5" y="544.3617">TriggerInterval : float64</text><line style="stroke:#181818;stroke-width:0.6;" x1="353.1" x2="461.1" y1="548.8125" y2="548.8125"/><text fill="#000000" font-family="sans-serif" font-size="8.4" lengthAdjust="spacing" textLength="78" x="356.1" y="559.0055">PositionCount : int32</text><text fill="#000000" font-family="sans-serif" font-size="8.4" lengthAdjust="spacing" textLength="57.6" x="356.1" y="568.8492">Values : float64</text><text fill="#000000" font-family="sans-serif" font-size="8.4" lengthAdjust="spacing" textLength="93" x="356.1" y="578.693">RawValues : vlen_float64</text><text fill="#000000" font-family="sans-serif" font-size="8.4" lengthAdjust="spacing" textLength="47.4" x="356.1" y="588.5367">Count : int32</text><text fill="#000000" font-family="sans-serif" font-size="8.4" lengthAdjust="spacing" textLength="102" x="356.1" y="598.3805">StandardDeviation : float64</text></g><!--class <arraydata>--><g id="elem_&lt;arraydata&gt;"><rect codeLine="127" fill="#F1F1F1" height="107.55" id="&lt;arraydata&gt;" rx="1.5" ry="1.5" style="stroke:#181818;stroke-width:0.3;" width="85.2" x="116.1" y="470.6625"/><ellipse cx="134.28" cy="480.2625" fill="#FFA500" rx="6.6" ry="6.6" style="stroke:#181818;stroke-width:0.6;"/><path d="M132.5925,483.8625 L134.5238,483.8625 C136.3706,483.8625 137.6363,482.7938 137.6363,480.5062 C137.6363,478.2188 136.3706,477.2156 134.43,477.2156 L132.5925,477.2156 L132.5925,483.8625 Z M134.1019,482.6531 L134.1019,478.425 L134.3456,478.425 C135.3863,478.425 136.0894,478.9125 136.0894,480.5062 C136.0894,482.1 135.3863,482.6531 134.3456,482.6531 L134.1019,482.6531 Z " fill="#000000"/><text fill="#000000" font-family="sans-serif" font-size="8.4" lengthAdjust="spacing" textLength="45.6" x="144.72" y="483.1336">&lt;arraydata&gt;</text><line style="stroke:#181818;stroke-width:0.3;" x1="116.7" x2="200.7" y1="489.8625" y2="489.8625"/><text fill="#000000" font-family="sans-serif" font-size="8.4" lengthAdjust="spacing" textLength="53.4" x="119.7" y="500.0555">Access : string</text><text fill="#000000" font-family="sans-serif" font-size="8.4" lengthAdjust="spacing" textLength="49.2" x="119.7" y="509.8992">Name : string</text><text fill="#000000" font-family="sans-serif" font-size="8.4" lengthAdjust="spacing" textLength="52.2" x="119.7" y="519.743">XMLID : string</text><text fill="#000000" font-family="sans-serif" font-size="8.4" lengthAdjust="spacing" textLength="69" x="119.7" y="529.5867">DeviceType : string</text><text fill="#000000" font-family="sans-serif" font-size="8.4" lengthAdjust="spacing" textLength="75" x="119.7" y="539.4305">Detectortype : string</text><text fill="#000000" font-family="sans-serif" font-size="8.4" lengthAdjust="spacing" textLength="42" x="119.7" y="549.2742">Unit : string</text><line style="stroke:#181818;stroke-width:0.6;" x1="116.7" x2="200.7" y1="553.725" y2="553.725"/><text fill="#000000" font-family="sans-serif" font-size="8.4" lengthAdjust="spacing" textLength="78" x="119.7" y="563.918">PositionCount : int32</text><text fill="#000000" font-family="sans-serif" font-size="8.4" lengthAdjust="spacing" textLength="50.4" x="119.7" y="573.7617">Values : array</text></g><!--class <channel>__<normalizeId>--><g id="elem_&lt;channel&gt;__&lt;normalizeId&gt;"><rect codeLine="76" fill="#F1F1F1" height="127.2375" id="&lt;channel&gt;__&lt;normalizeId&gt;" rx="1.5" ry="1.5" style="stroke:#181818;stroke-width:0.3;" width="116.4" x="482.7" y="460.7625"/><ellipse cx="491.7" cy="470.3625" fill="#FFA500" rx="6.6" ry="6.6" style="stroke:#181818;stroke-width:0.6;"/><path d="M490.0125,473.9625 L491.9437,473.9625 C493.7906,473.9625 495.0563,472.8937 495.0563,470.6063 C495.0563,468.3187 493.7906,467.3156 491.85,467.3156 L490.0125,467.3156 L490.0125,473.9625 Z M491.5219,472.7531 L491.5219,468.525 L491.7656,468.525 C492.8063,468.525 493.5094,469.0125 493.5094,470.6063 C493.5094,472.2 492.8063,472.7531 491.7656,472.7531 L491.5219,472.7531 Z " fill="#000000"/><text fill="#000000" font-family="sans-serif" font-size="8.4" lengthAdjust="spacing" textLength="97.2" x="500.1" y="473.2336">&lt;channel&gt;__&lt;normalizeId&gt;</text><line style="stroke:#181818;stroke-width:0.3;" x1="483.3" x2="598.5" y1="479.9625" y2="479.9625"/><text fill="#000000" font-family="sans-serif" font-size="8.4" lengthAdjust="spacing" textLength="53.4" x="486.3" y="490.1555">Access : string</text><text fill="#000000" font-family="sans-serif" font-size="8.4" lengthAdjust="spacing" textLength="49.2" x="486.3" y="499.9992">Name : string</text><text fill="#000000" font-family="sans-serif" font-size="8.4" lengthAdjust="spacing" textLength="52.2" x="486.3" y="509.843">XMLID : string</text><text fill="#000000" font-family="sans-serif" font-size="8.4" lengthAdjust="spacing" textLength="69" x="486.3" y="519.6867">DeviceType : string</text><text fill="#000000" font-family="sans-serif" font-size="8.4" lengthAdjust="spacing" textLength="75" x="486.3" y="529.5305">Detectortype : string</text><text fill="#000000" font-family="sans-serif" font-size="8.4" lengthAdjust="spacing" textLength="42" x="486.3" y="539.3742">Unit : string</text><text fill="#000000" font-family="sans-serif" font-size="8.4" lengthAdjust="spacing" textLength="57.6" x="486.3" y="549.218">Channel : string</text><text fill="#000000" font-family="sans-serif" font-size="8.4" lengthAdjust="spacing" textLength="72" x="486.3" y="559.0617">NormalizeId : string</text><line style="stroke:#181818;stroke-width:0.6;" x1="483.3" x2="598.5" y1="563.5125" y2="563.5125"/><text fill="#000000" font-family="sans-serif" font-size="8.4" lengthAdjust="spacing" textLength="78" x="486.3" y="573.7055">PositionCount : int32</text><text fill="#000000" font-family="sans-serif" font-size="8.4" lengthAdjust="spacing" textLength="28.8" x="486.3" y="583.5492">Values :</text><text fill="#000000" font-family="sans-serif" font-size="8.4" font-style="italic" lengthAdjust="spacing" textLength="12.6" x="516.9" y="583.5492">any</text></g><!--reverse link Root to monitor--><g id="link_Root_monitor"><path codeLine="24" d="M124.2677,204.3476 C110.5817,218.4176 101.94,227.2965 91.866,237.6525 " fill="none" id="Root-backto-monitor" style="stroke:#181818;stroke-width:0.6;"/><polygon fill="#181818" points="129.288,199.1865,125.0575,200.0936,124.2677,204.3476,128.4982,203.4405,129.288,199.1865" style="stroke:#181818;stroke-width:0.6;"/></g><!--reverse link Root to main--><g id="link_Root_main"><path codeLine="25" d="M203.4832,208.8125 C207.9112,223.1165 210.132,230.2725 213.192,240.1665 " fill="none" id="Root-backto-main" style="stroke:#181818;stroke-width:0.6;"/><polygon fill="#181818" points="201.354,201.9345,200.1259,206.0832,203.4832,208.8125,204.7112,204.6638,201.354,201.9345" style="stroke:#181818;stroke-width:0.6;"/></g><!--reverse link Root to snapshot--><g id="link_Root_snapshot"><path codeLine="26" d="M163.4669,208.8223 C159.4589,221.9863 157.62,228.0345 154.674,237.7245 " fill="none" id="Root-backto-snapshot" style="stroke:#181818;stroke-width:0.6;"/><polygon fill="#181818" points="165.564,201.9345,162.2195,204.6794,163.4669,208.8223,166.8114,206.0774,165.564,201.9345" style="stroke:#181818;stroke-width:0.6;"/></g><!--reverse link Root to meta--><g id="link_Root_meta"><path codeLine="27" d="M244.1942,163.8503 C319.9862,188.9783 447.294,231.1845 497.04,247.6785 " fill="none" id="Root-backto-meta" style="stroke:#181818;stroke-width:0.6;"/><polygon fill="#181818" points="237.36,161.5845,240.0218,164.9955,244.1942,163.8503,241.5324,160.4393,237.36,161.5845" style="stroke:#181818;stroke-width:0.6;"/></g><!--reverse link monitor to <monitordata>--><g id="link_monitor_&lt;monitordata&gt;"><path codeLine="32" d="M75.7501,278.8603 C75.6841,288.7723 75.654,294.7065 75.57,307.4145 " fill="none" id="monitor-backto-&lt;monitordata&gt;" style="stroke:#181818;stroke-width:0.6;"/><polygon fill="#181818" points="75.798,271.6605,73.3741,275.2444,75.7501,278.8603,78.174,275.2764,75.798,271.6605" style="stroke:#181818;stroke-width:0.6;"/></g><!--reverse link main to normalized--><g id="link_main_normalized"><path codeLine="36" d="M236.4679,274.233 C246.9079,284.703 256.44,294.3585 269.1,307.4625 C277.632,316.2885 287.046,326.2485 294.684,334.3725 " fill="none" id="main-backto-normalized" style="stroke:#181818;stroke-width:0.6;"/><polygon fill="#181818" points="231.384,269.1345,232.2264,273.3784,236.4679,274.233,235.6254,269.9891,231.384,269.1345" style="stroke:#181818;stroke-width:0.6;"/></g><!--reverse link main to scanmodule_<#>--><g id="link_main_scanmodule_&lt;#&gt;"><path codeLine="37" d="M217.5,276.3345 C217.5,291.4245 217.5,308.6205 217.5,326.8005 " fill="none" id="main-backto-scanmodule_&lt;#&gt;" style="stroke:#181818;stroke-width:0.6;"/><polygon fill="#181818" points="217.5,269.1345,215.1,272.7345,217.5,276.3345,219.9,272.7345,217.5,269.1345" style="stroke:#181818;stroke-width:0.6;"/></g><!--reverse link snapshot to <data>--><g id="link_snapshot_&lt;data&gt;"><path codeLine="41" d="M147.5541,278.824 C144.8661,305.422 138.552,352.1685 122.7,395.0625 C117.018,410.4345 98.838,442.4205 82.02,470.6565 " fill="none" id="snapshot-backto-&lt;data&gt;" style="stroke:#181818;stroke-width:0.6;"/><polygon fill="#181818" points="148.278,271.6605,145.5282,275.0009,147.5541,278.824,150.3039,275.4836,148.278,271.6605" style="stroke:#181818;stroke-width:0.6;"/></g><!--reverse link meta to PositionCountTime--><g id="link_meta_PositionCountTime"><path codeLine="45" d="M494.8991,273.857 C479.0171,287.657 459.618,304.5105 439.488,322.0005 " fill="none" id="meta-backto-PositionCountTime" style="stroke:#181818;stroke-width:0.6;"/><polygon fill="#181818" points="500.334,269.1345,496.0424,269.6841,494.8991,273.857,499.1907,273.3074,500.334,269.1345" style="stroke:#181818;stroke-width:0.6;"/></g><!--reverse link meta to LogMessages--><g id="link_meta_LogMessages"><path codeLine="46" d="M516.3,276.3345 C516.3,290.8065 516.3,306.6285 516.3,324.5265 " fill="none" id="meta-backto-LogMessages" style="stroke:#181818;stroke-width:0.6;"/><polygon fill="#181818" points="516.3,269.1345,513.9,272.7345,516.3,276.3345,518.7,272.7345,516.3,269.1345" style="stroke:#181818;stroke-width:0.6;"/></g><!--reverse link meta to SCML--><g id="link_meta_SCML"><path codeLine="47" d="M535.9839,274.1146 C549.0399,286.6186 563.568,300.5385 580.746,316.9905 " fill="none" id="meta-backto-SCML" style="stroke:#181818;stroke-width:0.6;"/><polygon fill="#181818" points="530.784,269.1345,531.7239,273.3578,535.9839,274.1146,535.044,269.8912,530.784,269.1345" style="stroke:#181818;stroke-width:0.6;"/></g><!--reverse link meta to Setup--><g id="link_meta_Setup"><path codeLine="48" d="M542.5142,261.1506 C571.4162,268.0686 620.094,281.9745 661.5,307.4625 C668.094,311.5185 674.538,316.6485 680.406,321.9465 " fill="none" id="meta-backto-Setup" style="stroke:#181818;stroke-width:0.6;"/><polygon fill="#181818" points="535.512,259.4745,538.4544,262.6466,542.5142,261.1506,539.5718,257.9785,535.512,259.4745" style="stroke:#181818;stroke-width:0.6;"/></g><!--reverse link scanmodule_<#> to <data>--><g id="link_scanmodule_&lt;#&gt;_&lt;data&gt;"><path codeLine="67" d="M180.605,380.0732 C172.097,386.4512 168.588,388.9485 159.9,395.0625 C136.128,411.7905 125.424,410.0925 105.3,431.0625 C94.176,442.6485 84.264,456.8385 75.984,470.5965 " fill="none" id="scanmodule_&lt;#&gt;-backto-&lt;data&gt;" style="stroke:#181818;stroke-width:0.6;"/><polygon fill="#181818" points="186.366,375.7545,182.0459,375.9935,180.605,380.0732,184.9251,379.8342,186.366,375.7545" style="stroke:#181818;stroke-width:0.6;"/></g><!--reverse link scanmodule_<#> to <averagedata>--><g id="link_scanmodule_&lt;#&gt;_&lt;averagedata&gt;"><path codeLine="68" d="M228.0498,382.3909 C233.1618,397.1689 237.744,410.4405 244.86,431.0385 " fill="none" id="scanmodule_&lt;#&gt;-backto-&lt;averagedata&gt;" style="stroke:#181818;stroke-width:0.6;"/><polygon fill="#181818" points="225.696,375.5865,224.6048,379.7733,228.0498,382.3909,229.141,378.2041,225.696,375.5865" style="stroke:#181818;stroke-width:0.6;"/></g><!--reverse link scanmodule_<#> to <intervaldata>--><g id="link_scanmodule_&lt;#&gt;_&lt;intervaldata&gt;"><path codeLine="69" d="M249.1177,380.4062 C257.0137,387.0602 260.394,389.3745 269.1,395.0625 C299.25,414.7605 314.346,407.6325 341.7,431.0625 C347.01,435.6105 352.104,440.6805 356.94,446.0385 " fill="none" id="scanmodule_&lt;#&gt;-backto-&lt;intervaldata&gt;" style="stroke:#181818;stroke-width:0.6;"/><polygon fill="#181818" points="243.612,375.7665,244.8183,379.9216,249.1177,380.4062,247.9114,376.2511,243.612,375.7665" style="stroke:#181818;stroke-width:0.6;"/></g><!--reverse link scanmodule_<#> to <arraydata>--><g id="link_scanmodule_&lt;#&gt;_&lt;arraydata&gt;"><path codeLine="70" d="M207.0565,382.3985 C198.7045,406.8005 187.752,438.8265 176.88,470.6205 " fill="none" id="scanmodule_&lt;#&gt;-backto-&lt;arraydata&gt;" style="stroke:#181818;stroke-width:0.6;"/><polygon fill="#181818" points="209.388,375.5865,205.9516,378.2153,207.0565,382.3985,210.4929,379.7697,209.388,375.5865" style="stroke:#181818;stroke-width:0.6;"/></g><!--reverse link normalized to <channel>__<normalizeId>--><g id="link_normalized_&lt;channel&gt;__&lt;normalizeId&gt;"><path codeLine="74" d="M326.4098,373.856 C333.7958,382.928 339.45,388.1445 350.7,395.0625 C398.568,424.4985 425.838,398.8785 471.9,431.0625 C483.33,439.0485 493.638,449.5305 502.596,460.5645 " fill="none" id="normalized-backto-&lt;channel&gt;__&lt;normalizeId&gt;" style="stroke:#181818;stroke-width:0.6;"/><polygon fill="#181818" points="321.864,368.2725,322.2757,372.5795,326.4098,373.856,325.9981,369.549,321.864,368.2725" style="stroke:#181818;stroke-width:0.6;"/></g><!--SRC=[rLPHRzis47xNhpYa3zsyEcwxfXXSGO0Hjqq0foYQD1Wm3C55Eij4AL8ZAQVfqF- -4sLPacMbGH4KdLyCtP7VTz_TaRp7A-ToEvrCSedA5PayZ7KsYILQEqu4fWQp892Kaah0wHmaBLq0_1kDQ4qdHs3Z5MK8wpz68mW__lRywRCN4IZju9OS69A4bf8dmAYv94UWrsHMMCZ0exoTmidypH6aHXUvVGNppNU2ZlSvjeInbjfC7os5eMiZuazHoVBosTCed7XND0MTEw4LIa3dZBWk75cFFgzGc5mMcRA0UKveu9galW6tejRwmyu6XHbP40fGfPBWsc3yYQE1C08qnB8uMp4bS2FS2Z1s1NEtza2LcgMGLE6-On_aQ9nVOFyfIfGjwbz_UzHQnM70oQvI7WI-4l11SqB347vv-qIRU2MINo6Au5-F_VhozSdH9HdBcs4AbXMfjFRijIzqZAvdFNSStmu05xrZEDPPHcfdrRd82ha7S0pl3It964fcduKTT1wlK2cIZVzh47Z1e_4OCgs4qwPbGA6QBwimjoljMdvoMATjixcVkJ2ia-tJo8JrqXBY8DnybLqO7MpHc7bF4ShDfQVSgRJ9K8elb3Is0nkZodHIIBeA7pLmTUZVYexnjqkhw7R2Oi43OPMUSijxRKK9UAmBvIv4HerheTCpiXPJFZ9Ru_dnsQBrHQx8QxQQtJFEcP5F2BMwSHR73DUjjU_-ZkNFiyNfl6kQqrh4T76RqswZpFdQYBaQRe_l8zTfnpRsVnt9l48ez_jpxxb4ML0POIWYLBVXH4Hb0spaxHHhwD3r9Naz5GkZzN0wbHlm8b-DN8Yx5p45cJNARq0PWxVTFcbwynuTrrfS0SRL8OskhiAjxpHfq8TN_B1E6UwJVfVqxXpFteJze3tLBUnFcO_n7UBX33_FdACiTxQZsdjAzlhoNqgDxkMBZNEXRnOYyqnTnwnAnmxOlNFS1lk0DrlxMfAwQZlvXIaVysx8FIMjEdNFrl-jK1T6f2cPqus8tRG_V7xx63n3g0HDigyfskUXkPr-pYJVErTUIIEjzz0EoViEJW_NQzhM-ztdsXbpMZGbc7MOvTqWDb1riPjvh28hvu8XHNidpJSy0QjUrMQ5M_6ejKy-5tIGl1n37e3zBgPjXtO6m0VlqJlcbawLXv-M_m00]--></g></svg>