<?xml version="1.0" encoding="us-ascii" standalone="no"?><svg xmlns="http://www.w3.org/2000/svg" xmlns:xlink="http://www.w3.org/1999/xlink" contentStyleType="text/css" height="884px" preserveAspectRatio="none" style="width:970px;height:884px;background:#FFFFFF;" version="1.1" viewBox="0 0 970 884" width="970px" zoomAndPan="magnify"><defs/><g><!--class Data--><g id="elem_Data"><rect codeLine="3" fill="#F1F1F1" height="130.0313" id="Data" rx="2.5" ry="2.5" style="stroke:#181818;stroke-width:0.5;" width="164" x="180" y="7"/><ellipse cx="242.75" cy="23" fill="#ADD1B2" rx="11" ry="11" style="stroke:#181818;stroke-width:1.0;"/><path d="M242.7969,29.2031 C244.2969,29.2031 245.5313,28.6406 246.4375,27.5781 L245.0625,26.0625 C244.5156,26.6563 243.8594,27.0469 243.0625,27.0469 C241.3906,27.0469 240.2344,25.7188 240.2344,23.4375 C240.2344,21.2188 241.3906,19.875 242.9531,19.875 C243.7656,19.875 244.3594,20.1875 244.8906,20.6719 L246.2656,19.125 C245.5156,18.3906 244.3594,17.7188 242.9531,17.7188 C240,17.7188 237.6719,19.8594 237.6719,23.5313 C237.6719,27.25 240.0469,29.2031 242.7969,29.2031 Z " fill="#000000"/><text fill="#000000" font-family="sans-serif" font-size="14" lengthAdjust="spacing" textLength="30" x="263.25" y="27.7852">Data</text><line style="stroke:#181818;stroke-width:0.5;" x1="181" x2="343" y1="39" y2="39"/><text fill="#000000" font-family="sans-serif" font-size="14" lengthAdjust="spacing" textLength="131" x="186" y="55.9883">metadata : Metadata</text><text fill="#000000" font-family="sans-serif" font-size="14" lengthAdjust="spacing" textLength="79" x="186" y="72.3945">options : dict</text><text fill="#000000" font-family="sans-serif" font-size="14" lengthAdjust="spacing" textLength="113" x="186" y="88.8008">_data : np.ndarray</text><text fill="#000000" font-family="sans-serif" font-size="14" lengthAdjust="spacing" textLength="152" x="186" y="105.207">_importer : DataImporter</text><line style="stroke:#181818;stroke-width:0.5;" x1="181" x2="343" y1="112.625" y2="112.625"/><text fill="#000000" font-family="sans-serif" font-size="14" lengthAdjust="spacing" textLength="39" x="186" y="129.6133">data()</text></g><!--class Metadata--><g id="elem_Metadata"><rect codeLine="54" fill="#F1F1F1" height="80.8125" id="Metadata" rx="2.5" ry="2.5" style="stroke:#181818;stroke-width:0.5;" width="93" x="397.5" y="31.5"/><ellipse cx="412.5" cy="47.5" fill="#ADD1B2" rx="11" ry="11" style="stroke:#181818;stroke-width:1.0;"/><path d="M412.5469,53.7031 C414.0469,53.7031 415.2813,53.1406 416.1875,52.0781 L414.8125,50.5625 C414.2656,51.1563 413.6094,51.5469 412.8125,51.5469 C411.1406,51.5469 409.9844,50.2188 409.9844,47.9375 C409.9844,45.7188 411.1406,44.375 412.7031,44.375 C413.5156,44.375 414.1094,44.6875 414.6406,45.1719 L416.0156,43.625 C415.2656,42.8906 414.1094,42.2188 412.7031,42.2188 C409.75,42.2188 407.4219,44.3594 407.4219,48.0313 C407.4219,51.75 409.7969,53.7031 412.5469,53.7031 Z " fill="#000000"/><text fill="#000000" font-family="sans-serif" font-size="14" lengthAdjust="spacing" textLength="61" x="426.5" y="52.2852">Metadata</text><line style="stroke:#181818;stroke-width:0.5;" x1="398.5" x2="489.5" y1="63.5" y2="63.5"/><text fill="#000000" font-family="sans-serif" font-size="14" lengthAdjust="spacing" textLength="80" x="403.5" y="80.4883">name : string</text><text fill="#000000" font-family="sans-serif" font-size="14" lengthAdjust="spacing" textLength="79" x="403.5" y="96.8945">options : dict</text><line style="stroke:#181818;stroke-width:0.5;" x1="398.5" x2="489.5" y1="104.3125" y2="104.3125"/></g><!--class MeasureData--><g id="elem_MeasureData"><rect codeLine="13" fill="#F1F1F1" height="64.4063" id="MeasureData" rx="2.5" ry="2.5" style="stroke:#181818;stroke-width:0.5;" width="258" x="96" y="213.5"/><ellipse cx="178.75" cy="229.5" fill="#ADD1B2" rx="11" ry="11" style="stroke:#181818;stroke-width:1.0;"/><path d="M178.7969,235.7031 C180.2969,235.7031 181.5313,235.1406 182.4375,234.0781 L181.0625,232.5625 C180.5156,233.1563 179.8594,233.5469 179.0625,233.5469 C177.3906,233.5469 176.2344,232.2188 176.2344,229.9375 C176.2344,227.7188 177.3906,226.375 178.9531,226.375 C179.7656,226.375 180.3594,226.6875 180.8906,227.1719 L182.2656,225.625 C181.5156,224.8906 180.3594,224.2188 178.9531,224.2188 C176,224.2188 173.6719,226.3594 173.6719,230.0313 C173.6719,233.75 176.0469,235.7031 178.7969,235.7031 Z " fill="#000000"/><text fill="#000000" font-family="sans-serif" font-size="14" lengthAdjust="spacing" textLength="84" x="199.25" y="234.2852">MeasureData</text><line style="stroke:#181818;stroke-width:0.5;" x1="97" x2="353" y1="245.5" y2="245.5"/><text fill="#000000" font-family="sans-serif" font-size="14" lengthAdjust="spacing" textLength="246" x="102" y="262.4883">position_counts : np.ndarray(dtype=int)</text><line style="stroke:#181818;stroke-width:0.5;" x1="97" x2="353" y1="269.9063" y2="269.9063"/></g><!--class MeasureMetadata--><g id="elem_MeasureMetadata"><rect codeLine="59" fill="#F1F1F1" height="64.4063" id="MeasureMetadata" rx="2.5" ry="2.5" style="stroke:#181818;stroke-width:0.5;" width="147" x="389.5" y="213.5"/><ellipse cx="404.5" cy="229.5" fill="#ADD1B2" rx="11" ry="11" style="stroke:#181818;stroke-width:1.0;"/><path d="M404.5469,235.7031 C406.0469,235.7031 407.2813,235.1406 408.1875,234.0781 L406.8125,232.5625 C406.2656,233.1563 405.6094,233.5469 404.8125,233.5469 C403.1406,233.5469 401.9844,232.2188 401.9844,229.9375 C401.9844,227.7188 403.1406,226.375 404.7031,226.375 C405.5156,226.375 406.1094,226.6875 406.6406,227.1719 L408.0156,225.625 C407.2656,224.8906 406.1094,224.2188 404.7031,224.2188 C401.75,224.2188 399.4219,226.3594 399.4219,230.0313 C399.4219,233.75 401.7969,235.7031 404.5469,235.7031 Z " fill="#000000"/><text fill="#000000" font-family="sans-serif" font-size="14" lengthAdjust="spacing" textLength="115" x="418.5" y="234.2852">MeasureMetadata</text><line style="stroke:#181818;stroke-width:0.5;" x1="390.5" x2="535.5" y1="245.5" y2="245.5"/><text fill="#000000" font-family="sans-serif" font-size="14" lengthAdjust="spacing" textLength="69" x="395.5" y="262.4883">unit : string</text><line style="stroke:#181818;stroke-width:0.5;" x1="390.5" x2="535.5" y1="269.9063" y2="269.9063"/></g><!--class ChannelData--><g id="elem_ChannelData"><rect codeLine="19" fill="#F1F1F1" height="48" id="ChannelData" rx="2.5" ry="2.5" style="stroke:#181818;stroke-width:0.5;" width="113" x="321.5" y="354"/><ellipse cx="336.5" cy="370" fill="#ADD1B2" rx="11" ry="11" style="stroke:#181818;stroke-width:1.0;"/><path d="M336.5469,376.2031 C338.0469,376.2031 339.2813,375.6406 340.1875,374.5781 L338.8125,373.0625 C338.2656,373.6563 337.6094,374.0469 336.8125,374.0469 C335.1406,374.0469 333.9844,372.7188 333.9844,370.4375 C333.9844,368.2188 335.1406,366.875 336.7031,366.875 C337.5156,366.875 338.1094,367.1875 338.6406,367.6719 L340.0156,366.125 C339.2656,365.3906 338.1094,364.7188 336.7031,364.7188 C333.75,364.7188 331.4219,366.8594 331.4219,370.5313 C331.4219,374.25 333.7969,376.2031 336.5469,376.2031 Z " fill="#000000"/><text fill="#000000" font-family="sans-serif" font-size="14" lengthAdjust="spacing" textLength="81" x="350.5" y="374.7852">ChannelData</text><line style="stroke:#181818;stroke-width:0.5;" x1="322.5" x2="433.5" y1="386" y2="386"/><line style="stroke:#181818;stroke-width:0.5;" x1="322.5" x2="433.5" y1="394" y2="394"/></g><!--class ChannelMetadata--><g id="elem_ChannelMetadata"><rect codeLine="71" fill="#F1F1F1" height="48" id="ChannelMetadata" rx="2.5" ry="2.5" style="stroke:#181818;stroke-width:0.5;" width="144" x="487" y="354"/><ellipse cx="502" cy="370" fill="#ADD1B2" rx="11" ry="11" style="stroke:#181818;stroke-width:1.0;"/><path d="M502.0469,376.2031 C503.5469,376.2031 504.7813,375.6406 505.6875,374.5781 L504.3125,373.0625 C503.7656,373.6563 503.1094,374.0469 502.3125,374.0469 C500.6406,374.0469 499.4844,372.7188 499.4844,370.4375 C499.4844,368.2188 500.6406,366.875 502.2031,366.875 C503.0156,366.875 503.6094,367.1875 504.1406,367.6719 L505.5156,366.125 C504.7656,365.3906 503.6094,364.7188 502.2031,364.7188 C499.25,364.7188 496.9219,366.8594 496.9219,370.5313 C496.9219,374.25 499.2969,376.2031 502.0469,376.2031 Z " fill="#000000"/><text fill="#000000" font-family="sans-serif" font-size="14" lengthAdjust="spacing" textLength="112" x="516" y="374.7852">ChannelMetadata</text><line style="stroke:#181818;stroke-width:0.5;" x1="488" x2="630" y1="386" y2="386"/><line style="stroke:#181818;stroke-width:0.5;" x1="488" x2="630" y1="394" y2="394"/></g><!--class ArrayChannelData--><g id="elem_ArrayChannelData"><rect codeLine="23" fill="#F1F1F1" height="48" id="ArrayChannelData" rx="2.5" ry="2.5" style="stroke:#181818;stroke-width:0.5;" width="147" x="304.5" y="462"/><ellipse cx="319.5" cy="478" fill="#ADD1B2" rx="11" ry="11" style="stroke:#181818;stroke-width:1.0;"/><path d="M319.5469,484.2031 C321.0469,484.2031 322.2813,483.6406 323.1875,482.5781 L321.8125,481.0625 C321.2656,481.6563 320.6094,482.0469 319.8125,482.0469 C318.1406,482.0469 316.9844,480.7188 316.9844,478.4375 C316.9844,476.2188 318.1406,474.875 319.7031,474.875 C320.5156,474.875 321.1094,475.1875 321.6406,475.6719 L323.0156,474.125 C322.2656,473.3906 321.1094,472.7188 319.7031,472.7188 C316.75,472.7188 314.4219,474.8594 314.4219,478.5313 C314.4219,482.25 316.7969,484.2031 319.5469,484.2031 Z " fill="#000000"/><text fill="#000000" font-family="sans-serif" font-size="14" lengthAdjust="spacing" textLength="115" x="333.5" y="482.7852">ArrayChannelData</text><line style="stroke:#181818;stroke-width:0.5;" x1="305.5" x2="450.5" y1="494" y2="494"/><line style="stroke:#181818;stroke-width:0.5;" x1="305.5" x2="450.5" y1="502" y2="502"/></g><!--class MCAChannelData--><g id="elem_MCAChannelData"><rect codeLine="25" fill="#F1F1F1" height="130.0313" id="MCAChannelData" rx="2.5" ry="2.5" style="stroke:#181818;stroke-width:0.5;" width="191" x="282.5" y="570"/><ellipse cx="319.1" cy="586" fill="#ADD1B2" rx="11" ry="11" style="stroke:#181818;stroke-width:1.0;"/><path d="M319.1469,592.2031 C320.6469,592.2031 321.8813,591.6406 322.7875,590.5781 L321.4125,589.0625 C320.8656,589.6563 320.2094,590.0469 319.4125,590.0469 C317.7406,590.0469 316.5844,588.7188 316.5844,586.4375 C316.5844,584.2188 317.7406,582.875 319.3031,582.875 C320.1156,582.875 320.7094,583.1875 321.2406,583.6719 L322.6156,582.125 C321.8656,581.3906 320.7094,580.7188 319.3031,580.7188 C316.35,580.7188 314.0219,582.8594 314.0219,586.5313 C314.0219,590.25 316.3969,592.2031 319.1469,592.2031 Z " fill="#000000"/><text fill="#000000" font-family="sans-serif" font-size="14" lengthAdjust="spacing" textLength="111" x="337.9" y="590.7852">MCAChannelData</text><line style="stroke:#181818;stroke-width:0.5;" x1="283.5" x2="472.5" y1="602" y2="602"/><text fill="#000000" font-family="sans-serif" font-size="14" lengthAdjust="spacing" textLength="167" x="288.5" y="618.9883">roi[] : MCAChannelROIData</text><text fill="#000000" font-family="sans-serif" font-size="14" lengthAdjust="spacing" textLength="129" x="288.5" y="635.3945">life_time : np.ndarray</text><text fill="#000000" font-family="sans-serif" font-size="14" lengthAdjust="spacing" textLength="134" x="288.5" y="651.8008">real_time : np.ndarray</text><text fill="#000000" font-family="sans-serif" font-size="14" lengthAdjust="spacing" textLength="174" x="288.5" y="668.207">preset_life_time : np.ndarray</text><text fill="#000000" font-family="sans-serif" font-size="14" lengthAdjust="spacing" textLength="179" x="288.5" y="684.6133">preset_real_time : np.ndarray</text><line style="stroke:#181818;stroke-width:0.5;" x1="283.5" x2="472.5" y1="692.0313" y2="692.0313"/></g><!--class MCAChannelMetadata--><g id="elem_MCAChannelMetadata"><rect codeLine="75" fill="#F1F1F1" height="64.4063" id="MCAChannelMetadata" rx="2.5" ry="2.5" style="stroke:#181818;stroke-width:0.5;" width="236" x="509" y="603"/><ellipse cx="551.9" cy="619" fill="#ADD1B2" rx="11" ry="11" style="stroke:#181818;stroke-width:1.0;"/><path d="M551.9469,625.2031 C553.4469,625.2031 554.6813,624.6406 555.5875,623.5781 L554.2125,622.0625 C553.6656,622.6563 553.0094,623.0469 552.2125,623.0469 C550.5406,623.0469 549.3844,621.7188 549.3844,619.4375 C549.3844,617.2188 550.5406,615.875 552.1031,615.875 C552.9156,615.875 553.5094,616.1875 554.0406,616.6719 L555.4156,615.125 C554.6656,614.3906 553.5094,613.7188 552.1031,613.7188 C549.15,613.7188 546.8219,615.8594 546.8219,619.5313 C546.8219,623.25 549.1969,625.2031 551.9469,625.2031 Z " fill="#000000"/><text fill="#000000" font-family="sans-serif" font-size="14" lengthAdjust="spacing" textLength="142" x="572.1" y="623.7852">MCAChannelMetadata</text><line style="stroke:#181818;stroke-width:0.5;" x1="510" x2="744" y1="635" y2="635"/><text fill="#000000" font-family="sans-serif" font-size="14" lengthAdjust="spacing" textLength="224" x="515" y="651.9883">calibration : MCAChannelCalibration</text><line style="stroke:#181818;stroke-width:0.5;" x1="510" x2="744" y1="659.4063" y2="659.4063"/></g><!--class MCAChannelROIData--><g id="elem_MCAChannelROIData"><rect codeLine="39" fill="#F1F1F1" height="80.8125" id="MCAChannelROIData" rx="2.5" ry="2.5" style="stroke:#181818;stroke-width:0.5;" width="203" x="44.5" y="594.5"/><ellipse cx="76.15" cy="610.5" fill="#ADD1B2" rx="11" ry="11" style="stroke:#181818;stroke-width:1.0;"/><path d="M76.1969,616.7031 C77.6969,616.7031 78.9313,616.1406 79.8375,615.0781 L78.4625,613.5625 C77.9156,614.1563 77.2594,614.5469 76.4625,614.5469 C74.7906,614.5469 73.6344,613.2188 73.6344,610.9375 C73.6344,608.7188 74.7906,607.375 76.3531,607.375 C77.1656,607.375 77.7594,607.6875 78.2906,608.1719 L79.6656,606.625 C78.9156,605.8906 77.7594,605.2188 76.3531,605.2188 C73.4,605.2188 71.0719,607.3594 71.0719,611.0313 C71.0719,614.75 73.4469,616.7031 76.1969,616.7031 Z " fill="#000000"/><text fill="#000000" font-family="sans-serif" font-size="14" lengthAdjust="spacing" textLength="134" x="93.85" y="615.2852">MCAChannelROIData</text><line style="stroke:#181818;stroke-width:0.5;" x1="45.5" x2="246.5" y1="626.5" y2="626.5"/><text fill="#000000" font-family="sans-serif" font-size="14" lengthAdjust="spacing" textLength="74" x="50.5" y="643.4883">label : string</text><text fill="#000000" font-family="sans-serif" font-size="14" lengthAdjust="spacing" textLength="191" x="50.5" y="659.8945">marker : np.ndarray(dtype=int)</text><line style="stroke:#181818;stroke-width:0.5;" x1="45.5" x2="246.5" y1="667.3125" y2="667.3125"/></g><g id="elem_GMN23"><path d="M6,760 L6,877.7473 A0,0 0 0 0 6,877.7473 L286,877.7473 A0,0 0 0 0 286,877.7473 L286,770 L276,760 L150,760 L146,675.94 L142,760 L6,760 A0,0 0 0 0 6,760 " fill="#FEFFDD" style="stroke:#181818;stroke-width:0.5;"/><path d="M276,760 L276,770 L286,770 L276,760 " fill="#FEFFDD" style="stroke:#181818;stroke-width:0.5;"/><text fill="#000000" font-family="sans-serif" font-size="13" lengthAdjust="spacing" textLength="220" x="12" y="777.0605">Marker should be a two-element vector</text><text fill="#000000" font-family="sans-serif" font-size="13" lengthAdjust="spacing" textLength="248" x="12" y="792.2949">with positions on the x axis of the spectrum.</text><text fill="#000000" font-family="sans-serif" font-size="13" lengthAdjust="spacing" textLength="259" x="12" y="807.5293">Is "marker" the best name? Can we generalise</text><text fill="#000000" font-family="sans-serif" font-size="13" lengthAdjust="spacing" textLength="40" x="12" y="823.8703">to fit to</text><text fill="#000000" font-family="monospace" font-size="13" lengthAdjust="spacing" textLength="144" x="55" y="823.4951">AreaChannelROIData</text><text fill="#000000" font-family="sans-serif" font-size="13" lengthAdjust="spacing" textLength="46" x="202" y="823.8703">as well?</text><text fill="#000000" font-family="sans-serif" font-size="13" lengthAdjust="spacing" textLength="3" x="12" y="839.1047">&#160;</text><text fill="#000000" font-family="sans-serif" font-size="13" lengthAdjust="spacing" textLength="207" x="12" y="854.3391">What other attributes are relevant for</text><text fill="#000000" font-family="sans-serif" font-size="13" lengthAdjust="spacing" textLength="115" x="12" y="869.5734">Array Channel ROIs?</text></g><!--class DeviceMetadata--><g id="elem_DeviceMetadata"><rect codeLine="63" fill="#F1F1F1" height="97.2188" id="DeviceMetadata" rx="2.5" ry="2.5" style="stroke:#181818;stroke-width:0.5;" width="141" x="571.5" y="197"/><ellipse cx="592.35" cy="213" fill="#B4A7E5" rx="11" ry="11" style="stroke:#181818;stroke-width:1.0;"/><path d="M588.6156,219 L596.2875,219 L596.2875,216.8906 L593.7094,216.8906 L593.7094,210.0313 L596.2875,210.0313 L596.2875,207.9219 L588.6156,207.9219 L588.6156,210.0313 L591.1938,210.0313 L591.1938,216.8906 L588.6156,216.8906 L588.6156,219 Z " fill="#000000"/><text fill="#000000" font-family="sans-serif" font-size="14" font-style="italic" lengthAdjust="spacing" textLength="96" x="607.65" y="217.7852">DeviceMetadata</text><line style="stroke:#181818;stroke-width:0.5;" x1="572.5" x2="711.5" y1="229" y2="229"/><text fill="#000000" font-family="sans-serif" font-size="14" lengthAdjust="spacing" textLength="56" x="577.5" y="245.9883">id : string</text><text fill="#000000" font-family="sans-serif" font-size="14" lengthAdjust="spacing" textLength="60" x="577.5" y="262.3945">pv : string</text><text fill="#000000" font-family="sans-serif" font-size="14" lengthAdjust="spacing" textLength="129" x="577.5" y="278.8008">access_mode : string</text><line style="stroke:#181818;stroke-width:0.5;" x1="572.5" x2="711.5" y1="286.2188" y2="286.2188"/></g><!--class ArrayChannelMetadata--><g id="elem_ArrayChannelMetadata"><rect codeLine="73" fill="#F1F1F1" height="48" id="ArrayChannelMetadata" rx="2.5" ry="2.5" style="stroke:#181818;stroke-width:0.5;" width="178" x="512" y="462"/><ellipse cx="527" cy="478" fill="#ADD1B2" rx="11" ry="11" style="stroke:#181818;stroke-width:1.0;"/><path d="M527.0469,484.2031 C528.5469,484.2031 529.7813,483.6406 530.6875,482.5781 L529.3125,481.0625 C528.7656,481.6563 528.1094,482.0469 527.3125,482.0469 C525.6406,482.0469 524.4844,480.7188 524.4844,478.4375 C524.4844,476.2188 525.6406,474.875 527.2031,474.875 C528.0156,474.875 528.6094,475.1875 529.1406,475.6719 L530.5156,474.125 C529.7656,473.3906 528.6094,472.7188 527.2031,472.7188 C524.25,472.7188 521.9219,474.8594 521.9219,478.5313 C521.9219,482.25 524.2969,484.2031 527.0469,484.2031 Z " fill="#000000"/><text fill="#000000" font-family="sans-serif" font-size="14" lengthAdjust="spacing" textLength="146" x="541" y="482.7852">ArrayChannelMetadata</text><line style="stroke:#181818;stroke-width:0.5;" x1="513" x2="689" y1="494" y2="494"/><line style="stroke:#181818;stroke-width:0.5;" x1="513" x2="689" y1="502" y2="502"/></g><!--class MCAChannelCalibration--><g id="elem_MCAChannelCalibration"><rect codeLine="81" fill="#F1F1F1" height="97.2188" id="MCAChannelCalibration" rx="2.5" ry="2.5" style="stroke:#181818;stroke-width:0.5;" width="181" x="780.5" y="586.5"/><ellipse cx="795.5" cy="602.5" fill="#ADD1B2" rx="11" ry="11" style="stroke:#181818;stroke-width:1.0;"/><path d="M795.5469,608.7031 C797.0469,608.7031 798.2813,608.1406 799.1875,607.0781 L797.8125,605.5625 C797.2656,606.1563 796.6094,606.5469 795.8125,606.5469 C794.1406,606.5469 792.9844,605.2188 792.9844,602.9375 C792.9844,600.7188 794.1406,599.375 795.7031,599.375 C796.5156,599.375 797.1094,599.6875 797.6406,600.1719 L799.0156,598.625 C798.2656,597.8906 797.1094,597.2188 795.7031,597.2188 C792.75,597.2188 790.4219,599.3594 790.4219,603.0313 C790.4219,606.75 792.7969,608.7031 795.5469,608.7031 Z " fill="#000000"/><text fill="#000000" font-family="sans-serif" font-size="14" lengthAdjust="spacing" textLength="149" x="809.5" y="607.2852">MCAChannelCalibration</text><line style="stroke:#181818;stroke-width:0.5;" x1="781.5" x2="960.5" y1="618.5" y2="618.5"/><text fill="#000000" font-family="sans-serif" font-size="14" lengthAdjust="spacing" textLength="75" x="786.5" y="635.4883">offset : float</text><text fill="#000000" font-family="sans-serif" font-size="14" lengthAdjust="spacing" textLength="71" x="786.5" y="651.8945">slope : float</text><text fill="#000000" font-family="sans-serif" font-size="14" lengthAdjust="spacing" textLength="98" x="786.5" y="668.3008">quadratic : float</text><line style="stroke:#181818;stroke-width:0.5;" x1="781.5" x2="960.5" y1="675.7188" y2="675.7188"/></g><g id="elem_GMN36"><path d="M778.5,791 L778.5,846.7031 A0,0 0 0 0 778.5,846.7031 L963.5,846.7031 A0,0 0 0 0 963.5,846.7031 L963.5,801 L953.5,791 L875,791 L871,683.82 L867,791 L778.5,791 A0,0 0 0 0 778.5,791 " fill="#FEFFDD" style="stroke:#181818;stroke-width:0.5;"/><path d="M953.5,791 L953.5,801 L963.5,801 L953.5,791 " fill="#FEFFDD" style="stroke:#181818;stroke-width:0.5;"/><text fill="#000000" font-family="sans-serif" font-size="13" lengthAdjust="spacing" textLength="164" x="784.5" y="808.0605">This class will have methods</text><text fill="#000000" font-family="sans-serif" font-size="13" lengthAdjust="spacing" textLength="163" x="784.5" y="823.2949">performing operations on the</text><text fill="#000000" font-family="sans-serif" font-size="13" lengthAdjust="spacing" textLength="130" x="784.5" y="838.5293">calibration parameters.</text></g><!--reverse link Data to Metadata--><g id="link_Data_Metadata"><path codeLine="11" d="M356.11,72 C373.8,72 379.49,72 397.18,72 " fill="none" id="Data-backto-Metadata" style="stroke:#181818;stroke-width:1.0;"/><polygon fill="#181818" points="344.11,72,350.11,76,356.11,72,350.11,68,344.11,72" style="stroke:#181818;stroke-width:1.0;"/></g><!--reverse link Data to MeasureData--><g id="link_Data_MeasureData"><path d="M244.3226,154.9449 C238.7026,180.9849 236.27,192.25 231.7,213.45 " fill="none" id="Data-backto-MeasureData" style="stroke:#181818;stroke-width:1.0;"/><polygon fill="none" points="248.12,137.35,238.4577,153.6791,250.1876,156.2107,248.12,137.35" style="stroke:#181818;stroke-width:1.0;"/></g><!--reverse link MeasureData to MeasureMetadata--><g id="link_MeasureData_MeasureMetadata"><path codeLine="17" d="M366.23,245.5 C377.98,245.5 377.74,245.5 389.49,245.5 " fill="none" id="MeasureData-backto-MeasureMetadata" style="stroke:#181818;stroke-width:1.0;"/><polygon fill="#181818" points="354.23,245.5,360.23,249.5,366.23,245.5,360.23,241.5,354.23,245.5" style="stroke:#181818;stroke-width:1.0;"/></g><!--reverse link MeasureData to ChannelData--><g id="link_MeasureData_ChannelData"><path d="M275.3452,289.4409 C302.7452,312.8109 325.93,332.58 350.76,353.76 " fill="none" id="MeasureData-backto-ChannelData" style="stroke:#181818;stroke-width:1.0;"/><polygon fill="none" points="261.65,277.76,271.4515,294.0059,279.2388,284.8758,261.65,277.76" style="stroke:#181818;stroke-width:1.0;"/></g><!--reverse link ChannelData to ChannelMetadata--><g id="link_ChannelData_ChannelMetadata"><path codeLine="21" d="M446.56,378 C463.9,378 469.24,378 486.57,378 " fill="none" id="ChannelData-backto-ChannelMetadata" style="stroke:#181818;stroke-width:1.0;"/><polygon fill="#181818" points="434.56,378,440.56,382,446.56,378,440.56,374,434.56,378" style="stroke:#181818;stroke-width:1.0;"/></g><!--reverse link ChannelData to ArrayChannelData--><g id="link_ChannelData_ArrayChannelData"><path d="M378,420 C378,437.66 378,443.94 378,461.68 " fill="none" id="ChannelData-backto-ArrayChannelData" style="stroke:#181818;stroke-width:1.0;"/><polygon fill="none" points="378,402,372,420,384,420,378,402" style="stroke:#181818;stroke-width:1.0;"/></g><!--reverse link ArrayChannelData to MCAChannelData--><g id="link_ArrayChannelData_MCAChannelData"><path d="M378,528.29 C378,544.4 378,548.68 378,569.89 " fill="none" id="ArrayChannelData-backto-MCAChannelData" style="stroke:#181818;stroke-width:1.0;"/><polygon fill="none" points="378,510.29,372,528.29,384,528.29,378,510.29" style="stroke:#181818;stroke-width:1.0;"/></g><!--reverse link MCAChannelData to MCAChannelMetadata--><g id="link_MCAChannelData_MCAChannelMetadata"><path codeLine="33" d="M485.81,635 C497.48,635 497.14,635 508.81,635 " fill="none" id="MCAChannelData-backto-MCAChannelMetadata" style="stroke:#181818;stroke-width:1.0;"/><polygon fill="#181818" points="473.81,635,479.81,639,485.81,635,479.81,631,473.81,635" style="stroke:#181818;stroke-width:1.0;"/></g><!--link MCAChannelROIData to MCAChannelData--><g id="link_MCAChannelROIData_MCAChannelData"><path codeLine="35" d="M247.5,664.9 C259.14,665.66 258.8313,666.6186 270.4713,665.5386 " fill="none" id="MCAChannelROIData-to-MCAChannelData" style="stroke:#181818;stroke-width:1.0;"/><polygon fill="#181818" points="282.42,664.43,276.0761,661.0014,270.4713,665.5386,276.8152,668.9672,282.42,664.43" style="stroke:#181818;stroke-width:1.0;"/><text fill="#000000" font-family="sans-serif" font-size="13" lengthAdjust="spacing" textLength="20" x="255.3398" y="663.5504">0..n</text></g><!--link MCAChannelROIData to MCAChannelData--><!--reverse link MeasureData to MCAChannelROIData--><g id="link_MeasureData_MCAChannelROIData"><path d="M215.0749,295.1973 C200.8349,365.0573 169.88,516.88 154.1,594.27 " fill="none" id="MeasureData-backto-MCAChannelROIData" style="stroke:#181818;stroke-width:1.0;"/><polygon fill="none" points="218.67,277.56,209.1958,293.9989,220.954,296.3957,218.67,277.56" style="stroke:#181818;stroke-width:1.0;"/></g><!--reverse link Metadata to MeasureMetadata--><g id="link_Metadata_MeasureMetadata"><path d="M450.3933,130.6704 C453.7933,161.3404 456.44,185.27 459.56,213.49 " fill="none" id="Metadata-backto-MeasureMetadata" style="stroke:#181818;stroke-width:1.0;"/><polygon fill="none" points="448.41,112.78,444.4298,131.3315,456.3568,130.0093,448.41,112.78" style="stroke:#181818;stroke-width:1.0;"/></g><!--link MeasureMetadata to DeviceMetadata--><!--reverse link MeasureMetadata to ChannelMetadata--><g id="link_MeasureMetadata_ChannelMetadata"><path d="M496.6595,292.2569 C513.8595,315.6269 526.33,332.58 541.91,353.76 " fill="none" id="MeasureMetadata-backto-ChannelMetadata" style="stroke:#181818;stroke-width:1.0;"/><polygon fill="none" points="485.99,277.76,491.8272,295.8134,501.4918,288.7004,485.99,277.76" style="stroke:#181818;stroke-width:1.0;"/></g><!--reverse link DeviceMetadata to ChannelMetadata--><g id="link_DeviceMetadata_ChannelMetadata"><path d="M601.9082,309.5371 C589.0382,329.7671 584.31,337.2 573.84,353.66 " fill="none" id="DeviceMetadata-backto-ChannelMetadata" style="stroke:#181818;stroke-width:1.0;stroke-dasharray:7.0,7.0;"/><polygon fill="none" points="611.57,294.35,596.8458,306.3165,606.9706,312.7577,611.57,294.35" style="stroke:#181818;stroke-width:1.0;"/></g><!--reverse link ChannelMetadata to ArrayChannelMetadata--><g id="link_ChannelMetadata_ArrayChannelMetadata"><path d="M574.7427,418.7334 C581.7427,436.3934 584.73,443.94 591.76,461.68 " fill="none" id="ChannelMetadata-backto-ArrayChannelMetadata" style="stroke:#181818;stroke-width:1.0;"/><polygon fill="none" points="568.11,402,569.1649,420.9443,580.3205,416.5225,568.11,402" style="stroke:#181818;stroke-width:1.0;"/></g><!--reverse link ArrayChannelMetadata to MCAChannelMetadata--><g id="link_ArrayChannelMetadata_MCAChannelMetadata"><path d="M608.2514,528.0155 C612.6714,553.0355 616.6,575.19 621.5,602.88 " fill="none" id="ArrayChannelMetadata-backto-MCAChannelMetadata" style="stroke:#181818;stroke-width:1.0;"/><polygon fill="none" points="605.12,510.29,602.3429,529.0593,614.1599,526.9717,605.12,510.29" style="stroke:#181818;stroke-width:1.0;"/></g><!--reverse link MCAChannelMetadata to MCAChannelCalibration--><g id="link_MCAChannelMetadata_MCAChannelCalibration"><path codeLine="79" d="M757.19,635 C768.82,635 768.45,635 780.08,635 " fill="none" id="MCAChannelMetadata-backto-MCAChannelCalibration" style="stroke:#181818;stroke-width:1.0;"/><polygon fill="#181818" points="745.19,635,751.19,639,757.19,635,751.19,631,745.19,635" style="stroke:#181818;stroke-width:1.0;"/></g><!--SRC=[VLN1Rjim3BtxAmXVrXL8idE1hIZIIm_1W6703aKHC1PT2vCbJwAJ5aN-VPBiE9QTj9TK5FduH3xINohcnjsjLer2pMsjbeMfLuL2vnP2ugl5EilY4HwH4Juoy7yrCOfml8DD_s-qcuQbqSwRXImuchQzdswMMg2r-DwPPTqOosJzLG1-we_nCeJSVCsEMHPptYxEMNek6qBNMehNzCQaHSBlevIan14QusHWj2rCgzabD6u4lpVqNMgEcSQ8CM4yJlEkAzIQL99t59bbOmSFqn-dC0-1m2MiiUtZEBns_N39UORIFTuQ-VmIEZD4_Vhvz7XgaP8bRLdMDE-99LHNhXfBZdZxIN3lSGKZ53XzHAZnO3dNPqOQyc_BfSvXSJifmoNVnNCbXI3zycFcFAtaAUH25oSYKhWZvP_Zs4hzcbpLQFz62L-JbJPCi3FCfWPJNcd9faDnbMcLW1q10X_CWXJLf1dsLB3f1kCWkHf4xS1eu8hW3V1Dke0VJgxn_hQjbp7YoK7UiSpZxOuSWyQQxc6D6Wu4hwJ9efAEOW0RA2M7dpn_yDrC-UOveFDHIjrdqVrFXGp68rj0zWNQjKmEq99NawAztobGzkIZN4yA1m_exZDVUWWroiw3tM-MhWU1QLhwoOevJZR247_kQmBOQl-u0T17-qQHBR4WUAIzB6ZYBqMQljcdPomAScvR6q49x9JEI9bfdibckS0_1V9xizE5km8qtWepj2lxQ3w95vVCf3Q5LytEOkX7icxMPtiw-4DyClnZzncVqMMVrPIbNpG-OQaCTjyOfqn3YULVYo945OFraraS4mZ1loi_JHsHWrGAAjnJ-EHLHhXE15unnjQ-rLwEr4MUfd5McGRzDvIyoDpoBFV_]--></g></svg>