<?xml version="1.0" encoding="us-ascii" standalone="no"?><svg xmlns="http://www.w3.org/2000/svg" xmlns:xlink="http://www.w3.org/1999/xlink" contentStyleType="text/css" height="442px" preserveAspectRatio="none" style="width:485px;height:442px;background:#FFFFFF;" version="1.1" viewBox="0 0 485 442" width="485px" zoomAndPan="magnify"><defs/><g><!--class Data--><g id="elem_Data"><rect codeLine="3" fill="#F1F1F1" height="65.0156" id="Data" rx="1.25" ry="1.25" style="stroke:#181818;stroke-width:0.25;" width="82" x="90" y="3.5"/><ellipse cx="121.375" cy="11.5" fill="#ADD1B2" rx="5.5" ry="5.5" style="stroke:#181818;stroke-width:0.5;"/><path d="M121.3984,14.6016 C122.1484,14.6016 122.7656,14.3203 123.2188,13.7891 L122.5313,13.0313 C122.2578,13.3281 121.9297,13.5234 121.5313,13.5234 C120.6953,13.5234 120.1172,12.8594 120.1172,11.7188 C120.1172,10.6094 120.6953,9.9375 121.4766,9.9375 C121.8828,9.9375 122.1797,10.0938 122.4453,10.3359 L123.1328,9.5625 C122.7578,9.1953 122.1797,8.8594 121.4766,8.8594 C120,8.8594 118.8359,9.9297 118.8359,11.7656 C118.8359,13.625 120.0234,14.6016 121.3984,14.6016 Z " fill="#000000"/><text fill="#000000" font-family="sans-serif" font-size="7" lengthAdjust="spacing" textLength="15" x="131.625" y="13.8926">Data</text><line style="stroke:#181818;stroke-width:0.25;" x1="90.5" x2="171.5" y1="19.5" y2="19.5"/><text fill="#000000" font-family="sans-serif" font-size="7" lengthAdjust="spacing" textLength="65.5" x="93" y="27.9941">metadata : Metadata</text><text fill="#000000" font-family="sans-serif" font-size="7" lengthAdjust="spacing" textLength="39.5" x="93" y="36.1973">options : dict</text><text fill="#000000" font-family="sans-serif" font-size="7" lengthAdjust="spacing" textLength="56.5" x="93" y="44.4004">_data : np.ndarray</text><text fill="#000000" font-family="sans-serif" font-size="7" lengthAdjust="spacing" textLength="76" x="93" y="52.6035">_importer : DataImporter</text><line style="stroke:#181818;stroke-width:0.25;" x1="90.5" x2="171.5" y1="56.3125" y2="56.3125"/><text fill="#000000" font-family="sans-serif" font-size="7" lengthAdjust="spacing" textLength="19.5" x="93" y="64.8066">data()</text></g><!--class Metadata--><g id="elem_Metadata"><rect codeLine="54" fill="#F1F1F1" height="40.4063" id="Metadata" rx="1.25" ry="1.25" style="stroke:#181818;stroke-width:0.25;" width="46.5" x="196.25" y="15.75"/><ellipse cx="203.75" cy="23.75" fill="#ADD1B2" rx="5.5" ry="5.5" style="stroke:#181818;stroke-width:0.5;"/><path d="M203.7734,26.8516 C204.5234,26.8516 205.1406,26.5703 205.5938,26.0391 L204.9063,25.2813 C204.6328,25.5781 204.3047,25.7734 203.9063,25.7734 C203.0703,25.7734 202.4922,25.1094 202.4922,23.9688 C202.4922,22.8594 203.0703,22.1875 203.8516,22.1875 C204.2578,22.1875 204.5547,22.3438 204.8203,22.5859 L205.5078,21.8125 C205.1328,21.4453 204.5547,21.1094 203.8516,21.1094 C202.375,21.1094 201.2109,22.1797 201.2109,24.0156 C201.2109,25.875 202.3984,26.8516 203.7734,26.8516 Z " fill="#000000"/><text fill="#000000" font-family="sans-serif" font-size="7" lengthAdjust="spacing" textLength="30.5" x="210.75" y="26.1426">Metadata</text><line style="stroke:#181818;stroke-width:0.25;" x1="196.75" x2="242.25" y1="31.75" y2="31.75"/><text fill="#000000" font-family="sans-serif" font-size="7" lengthAdjust="spacing" textLength="40" x="199.25" y="40.2441">name : string</text><text fill="#000000" font-family="sans-serif" font-size="7" lengthAdjust="spacing" textLength="39.5" x="199.25" y="48.4473">options : dict</text><line style="stroke:#181818;stroke-width:0.25;" x1="196.75" x2="242.25" y1="52.1563" y2="52.1563"/></g><!--class MeasureData--><g id="elem_MeasureData"><rect codeLine="13" fill="#F1F1F1" height="32.2031" id="MeasureData" rx="1.25" ry="1.25" style="stroke:#181818;stroke-width:0.25;" width="108" x="64" y="106.75"/><ellipse cx="94.875" cy="114.75" fill="#ADD1B2" rx="5.5" ry="5.5" style="stroke:#181818;stroke-width:0.5;"/><path d="M94.8984,117.8516 C95.6484,117.8516 96.2656,117.5703 96.7188,117.0391 L96.0313,116.2813 C95.7578,116.5781 95.4297,116.7734 95.0313,116.7734 C94.1953,116.7734 93.6172,116.1094 93.6172,114.9688 C93.6172,113.8594 94.1953,113.1875 94.9766,113.1875 C95.3828,113.1875 95.6797,113.3438 95.9453,113.5859 L96.6328,112.8125 C96.2578,112.4453 95.6797,112.1094 94.9766,112.1094 C93.5,112.1094 92.3359,113.1797 92.3359,115.0156 C92.3359,116.875 93.5234,117.8516 94.8984,117.8516 Z " fill="#000000"/><text fill="#000000" font-family="sans-serif" font-size="7" lengthAdjust="spacing" textLength="42" x="105.125" y="117.1426">MeasureData</text><line style="stroke:#181818;stroke-width:0.25;" x1="64.5" x2="171.5" y1="122.75" y2="122.75"/><text fill="#000000" font-family="sans-serif" font-size="7" lengthAdjust="spacing" textLength="102" x="67" y="131.2441">positions : np.ndarray(dtype=int)</text><line style="stroke:#181818;stroke-width:0.25;" x1="64.5" x2="171.5" y1="134.9531" y2="134.9531"/></g><!--class MeasureMetadata--><g id="elem_MeasureMetadata"><rect codeLine="59" fill="#F1F1F1" height="32.2031" id="MeasureMetadata" rx="1.25" ry="1.25" style="stroke:#181818;stroke-width:0.25;" width="73.5" x="189.75" y="106.75"/><ellipse cx="197.25" cy="114.75" fill="#ADD1B2" rx="5.5" ry="5.5" style="stroke:#181818;stroke-width:0.5;"/><path d="M197.2734,117.8516 C198.0234,117.8516 198.6406,117.5703 199.0938,117.0391 L198.4063,116.2813 C198.1328,116.5781 197.8047,116.7734 197.4063,116.7734 C196.5703,116.7734 195.9922,116.1094 195.9922,114.9688 C195.9922,113.8594 196.5703,113.1875 197.3516,113.1875 C197.7578,113.1875 198.0547,113.3438 198.3203,113.5859 L199.0078,112.8125 C198.6328,112.4453 198.0547,112.1094 197.3516,112.1094 C195.875,112.1094 194.7109,113.1797 194.7109,115.0156 C194.7109,116.875 195.8984,117.8516 197.2734,117.8516 Z " fill="#000000"/><text fill="#000000" font-family="sans-serif" font-size="7" lengthAdjust="spacing" textLength="57.5" x="204.25" y="117.1426">MeasureMetadata</text><line style="stroke:#181818;stroke-width:0.25;" x1="190.25" x2="262.75" y1="122.75" y2="122.75"/><text fill="#000000" font-family="sans-serif" font-size="7" lengthAdjust="spacing" textLength="34.5" x="192.75" y="131.2441">unit : string</text><line style="stroke:#181818;stroke-width:0.25;" x1="190.25" x2="262.75" y1="134.9531" y2="134.9531"/></g><!--class ChannelData--><g id="elem_ChannelData"><rect codeLine="19" fill="#F1F1F1" height="24" id="ChannelData" rx="1.25" ry="1.25" style="stroke:#181818;stroke-width:0.25;" width="56.5" x="160.75" y="177"/><ellipse cx="168.25" cy="185" fill="#ADD1B2" rx="5.5" ry="5.5" style="stroke:#181818;stroke-width:0.5;"/><path d="M168.2734,188.1016 C169.0234,188.1016 169.6406,187.8203 170.0938,187.2891 L169.4063,186.5313 C169.1328,186.8281 168.8047,187.0234 168.4063,187.0234 C167.5703,187.0234 166.9922,186.3594 166.9922,185.2188 C166.9922,184.1094 167.5703,183.4375 168.3516,183.4375 C168.7578,183.4375 169.0547,183.5938 169.3203,183.8359 L170.0078,183.0625 C169.6328,182.6953 169.0547,182.3594 168.3516,182.3594 C166.875,182.3594 165.7109,183.4297 165.7109,185.2656 C165.7109,187.125 166.8984,188.1016 168.2734,188.1016 Z " fill="#000000"/><text fill="#000000" font-family="sans-serif" font-size="7" lengthAdjust="spacing" textLength="40.5" x="175.25" y="187.3926">ChannelData</text><line style="stroke:#181818;stroke-width:0.25;" x1="161.25" x2="216.75" y1="193" y2="193"/><line style="stroke:#181818;stroke-width:0.25;" x1="161.25" x2="216.75" y1="197" y2="197"/></g><!--class ChannelMetadata--><g id="elem_ChannelMetadata"><rect codeLine="71" fill="#F1F1F1" height="24" id="ChannelMetadata" rx="1.25" ry="1.25" style="stroke:#181818;stroke-width:0.25;" width="72" x="243.5" y="177"/><ellipse cx="251" cy="185" fill="#ADD1B2" rx="5.5" ry="5.5" style="stroke:#181818;stroke-width:0.5;"/><path d="M251.0234,188.1016 C251.7734,188.1016 252.3906,187.8203 252.8438,187.2891 L252.1563,186.5313 C251.8828,186.8281 251.5547,187.0234 251.1563,187.0234 C250.3203,187.0234 249.7422,186.3594 249.7422,185.2188 C249.7422,184.1094 250.3203,183.4375 251.1016,183.4375 C251.5078,183.4375 251.8047,183.5938 252.0703,183.8359 L252.7578,183.0625 C252.3828,182.6953 251.8047,182.3594 251.1016,182.3594 C249.625,182.3594 248.4609,183.4297 248.4609,185.2656 C248.4609,187.125 249.6484,188.1016 251.0234,188.1016 Z " fill="#000000"/><text fill="#000000" font-family="sans-serif" font-size="7" lengthAdjust="spacing" textLength="56" x="258" y="187.3926">ChannelMetadata</text><line style="stroke:#181818;stroke-width:0.25;" x1="244" x2="315" y1="193" y2="193"/><line style="stroke:#181818;stroke-width:0.25;" x1="244" x2="315" y1="197" y2="197"/></g><!--class ArrayChannelData--><g id="elem_ArrayChannelData"><rect codeLine="23" fill="#F1F1F1" height="24" id="ArrayChannelData" rx="1.25" ry="1.25" style="stroke:#181818;stroke-width:0.25;" width="73.5" x="152.25" y="231"/><ellipse cx="159.75" cy="239" fill="#ADD1B2" rx="5.5" ry="5.5" style="stroke:#181818;stroke-width:0.5;"/><path d="M159.7734,242.1016 C160.5234,242.1016 161.1406,241.8203 161.5938,241.2891 L160.9063,240.5313 C160.6328,240.8281 160.3047,241.0234 159.9063,241.0234 C159.0703,241.0234 158.4922,240.3594 158.4922,239.2188 C158.4922,238.1094 159.0703,237.4375 159.8516,237.4375 C160.2578,237.4375 160.5547,237.5938 160.8203,237.8359 L161.5078,237.0625 C161.1328,236.6953 160.5547,236.3594 159.8516,236.3594 C158.375,236.3594 157.2109,237.4297 157.2109,239.2656 C157.2109,241.125 158.3984,242.1016 159.7734,242.1016 Z " fill="#000000"/><text fill="#000000" font-family="sans-serif" font-size="7" lengthAdjust="spacing" textLength="57.5" x="166.75" y="241.3926">ArrayChannelData</text><line style="stroke:#181818;stroke-width:0.25;" x1="152.75" x2="225.25" y1="247" y2="247"/><line style="stroke:#181818;stroke-width:0.25;" x1="152.75" x2="225.25" y1="251" y2="251"/></g><!--class MCAChannelData--><g id="elem_MCAChannelData"><rect codeLine="25" fill="#F1F1F1" height="65.0156" id="MCAChannelData" rx="1.25" ry="1.25" style="stroke:#181818;stroke-width:0.25;" width="95.5" x="141.25" y="285"/><ellipse cx="159.55" cy="293" fill="#ADD1B2" rx="5.5" ry="5.5" style="stroke:#181818;stroke-width:0.5;"/><path d="M159.5734,296.1016 C160.3234,296.1016 160.9406,295.8203 161.3938,295.2891 L160.7063,294.5313 C160.4328,294.8281 160.1047,295.0234 159.7063,295.0234 C158.8703,295.0234 158.2922,294.3594 158.2922,293.2188 C158.2922,292.1094 158.8703,291.4375 159.6516,291.4375 C160.0578,291.4375 160.3547,291.5938 160.6203,291.8359 L161.3078,291.0625 C160.9328,290.6953 160.3547,290.3594 159.6516,290.3594 C158.175,290.3594 157.0109,291.4297 157.0109,293.2656 C157.0109,295.125 158.1984,296.1016 159.5734,296.1016 Z " fill="#000000"/><text fill="#000000" font-family="sans-serif" font-size="7" lengthAdjust="spacing" textLength="55.5" x="168.95" y="295.3926">MCAChannelData</text><line style="stroke:#181818;stroke-width:0.25;" x1="141.75" x2="236.25" y1="301" y2="301"/><text fill="#000000" font-family="sans-serif" font-size="7" lengthAdjust="spacing" textLength="83.5" x="144.25" y="309.4941">roi[] : MCAChannelROIData</text><text fill="#000000" font-family="sans-serif" font-size="7" lengthAdjust="spacing" textLength="64.5" x="144.25" y="317.6973">life_time : np.ndarray</text><text fill="#000000" font-family="sans-serif" font-size="7" lengthAdjust="spacing" textLength="67" x="144.25" y="325.9004">real_time : np.ndarray</text><text fill="#000000" font-family="sans-serif" font-size="7" lengthAdjust="spacing" textLength="87" x="144.25" y="334.1035">preset_life_time : np.ndarray</text><text fill="#000000" font-family="sans-serif" font-size="7" lengthAdjust="spacing" textLength="89.5" x="144.25" y="342.3066">preset_real_time : np.ndarray</text><line style="stroke:#181818;stroke-width:0.25;" x1="141.75" x2="236.25" y1="346.0156" y2="346.0156"/></g><!--class MCAChannelMetadata--><g id="elem_MCAChannelMetadata"><rect codeLine="75" fill="#F1F1F1" height="32.2031" id="MCAChannelMetadata" rx="1.25" ry="1.25" style="stroke:#181818;stroke-width:0.25;" width="118" x="254.5" y="301.5"/><ellipse cx="275.95" cy="309.5" fill="#ADD1B2" rx="5.5" ry="5.5" style="stroke:#181818;stroke-width:0.5;"/><path d="M275.9734,312.6016 C276.7234,312.6016 277.3406,312.3203 277.7938,311.7891 L277.1063,311.0313 C276.8328,311.3281 276.5047,311.5234 276.1063,311.5234 C275.2703,311.5234 274.6922,310.8594 274.6922,309.7188 C274.6922,308.6094 275.2703,307.9375 276.0516,307.9375 C276.4578,307.9375 276.7547,308.0938 277.0203,308.3359 L277.7078,307.5625 C277.3328,307.1953 276.7547,306.8594 276.0516,306.8594 C274.575,306.8594 273.4109,307.9297 273.4109,309.7656 C273.4109,311.625 274.5984,312.6016 275.9734,312.6016 Z " fill="#000000"/><text fill="#000000" font-family="sans-serif" font-size="7" lengthAdjust="spacing" textLength="71" x="286.05" y="311.8926">MCAChannelMetadata</text><line style="stroke:#181818;stroke-width:0.25;" x1="255" x2="372" y1="317.5" y2="317.5"/><text fill="#000000" font-family="sans-serif" font-size="7" lengthAdjust="spacing" textLength="112" x="257.5" y="325.9941">calibration : MCAChannelCalibration</text><line style="stroke:#181818;stroke-width:0.25;" x1="255" x2="372" y1="329.7031" y2="329.7031"/></g><!--class MCAChannelROIData--><g id="elem_MCAChannelROIData"><rect codeLine="39" fill="#F1F1F1" height="40.4063" id="MCAChannelROIData" rx="1.25" ry="1.25" style="stroke:#181818;stroke-width:0.25;" width="101.5" x="22.25" y="297.25"/><ellipse cx="38.075" cy="305.25" fill="#ADD1B2" rx="5.5" ry="5.5" style="stroke:#181818;stroke-width:0.5;"/><path d="M38.0984,308.3516 C38.8484,308.3516 39.4656,308.0703 39.9188,307.5391 L39.2313,306.7813 C38.9578,307.0781 38.6297,307.2734 38.2313,307.2734 C37.3953,307.2734 36.8172,306.6094 36.8172,305.4688 C36.8172,304.3594 37.3953,303.6875 38.1766,303.6875 C38.5828,303.6875 38.8797,303.8438 39.1453,304.0859 L39.8328,303.3125 C39.4578,302.9453 38.8797,302.6094 38.1766,302.6094 C36.7,302.6094 35.5359,303.6797 35.5359,305.5156 C35.5359,307.375 36.7234,308.3516 38.0984,308.3516 Z " fill="#000000"/><text fill="#000000" font-family="sans-serif" font-size="7" lengthAdjust="spacing" textLength="67" x="46.925" y="307.6426">MCAChannelROIData</text><line style="stroke:#181818;stroke-width:0.25;" x1="22.75" x2="123.25" y1="313.25" y2="313.25"/><text fill="#000000" font-family="sans-serif" font-size="7" lengthAdjust="spacing" textLength="37" x="25.25" y="321.7441">label : string</text><text fill="#000000" font-family="sans-serif" font-size="7" lengthAdjust="spacing" textLength="95.5" x="25.25" y="329.9473">marker : np.ndarray(dtype=int)</text><line style="stroke:#181818;stroke-width:0.25;" x1="22.75" x2="123.25" y1="333.6563" y2="333.6563"/></g><g id="elem_GMN23"><path d="M3,380 L3,438.8736 A0,0 0 0 0 3,438.8736 L143,438.8736 A0,0 0 0 0 143,438.8736 L143,385 L138,380 L75,380 L73,337.97 L71,380 L3,380 A0,0 0 0 0 3,380 " fill="#FEFFDD" style="stroke:#181818;stroke-width:0.25;"/><path d="M138,380 L138,385 L143,385 L138,380 " fill="#FEFFDD" style="stroke:#181818;stroke-width:0.25;"/><text fill="#000000" font-family="sans-serif" font-size="6.5" lengthAdjust="spacing" textLength="110" x="6" y="388.5303">Marker should be a two-element vector</text><text fill="#000000" font-family="sans-serif" font-size="6.5" lengthAdjust="spacing" textLength="124" x="6" y="396.1475">with positions on the x axis of the spectrum.</text><text fill="#000000" font-family="sans-serif" font-size="6.5" lengthAdjust="spacing" textLength="129.5" x="6" y="403.7646">Is "marker" the best name? Can we generalise</text><text fill="#000000" font-family="sans-serif" font-size="6.5" lengthAdjust="spacing" textLength="20" x="6" y="411.9352">to fit to</text><text fill="#000000" font-family="monospace" font-size="6.5" lengthAdjust="spacing" textLength="72" x="27.5" y="411.7476">AreaChannelROIData</text><text fill="#000000" font-family="sans-serif" font-size="6.5" lengthAdjust="spacing" textLength="23" x="101" y="411.9352">as well?</text><text fill="#000000" font-family="sans-serif" font-size="6.5" lengthAdjust="spacing" textLength="1.5" x="6" y="419.5523">&#160;</text><text fill="#000000" font-family="sans-serif" font-size="6.5" lengthAdjust="spacing" textLength="103.5" x="6" y="427.1695">What other attributes are relevant for</text><text fill="#000000" font-family="sans-serif" font-size="6.5" lengthAdjust="spacing" textLength="57.5" x="6" y="434.7867">Array Channel ROIs?</text></g><!--class DeviceMetadata--><g id="elem_DeviceMetadata"><rect codeLine="63" fill="#F1F1F1" height="48.6094" id="DeviceMetadata" rx="1.25" ry="1.25" style="stroke:#181818;stroke-width:0.25;" width="70.5" x="280.75" y="98.5"/><ellipse cx="291.175" cy="106.5" fill="#B4A7E5" rx="5.5" ry="5.5" style="stroke:#181818;stroke-width:0.5;"/><path d="M289.3078,109.5 L293.1438,109.5 L293.1438,108.4453 L291.8547,108.4453 L291.8547,105.0156 L293.1438,105.0156 L293.1438,103.9609 L289.3078,103.9609 L289.3078,105.0156 L290.5969,105.0156 L290.5969,108.4453 L289.3078,108.4453 L289.3078,109.5 Z " fill="#000000"/><text fill="#000000" font-family="sans-serif" font-size="7" font-style="italic" lengthAdjust="spacing" textLength="48" x="298.825" y="108.8926">DeviceMetadata</text><line style="stroke:#181818;stroke-width:0.25;" x1="281.25" x2="350.75" y1="114.5" y2="114.5"/><text fill="#000000" font-family="sans-serif" font-size="7" lengthAdjust="spacing" textLength="28" x="283.75" y="122.9941">id : string</text><text fill="#000000" font-family="sans-serif" font-size="7" lengthAdjust="spacing" textLength="30" x="283.75" y="131.1973">pv : string</text><text fill="#000000" font-family="sans-serif" font-size="7" lengthAdjust="spacing" textLength="64.5" x="283.75" y="139.4004">access_mode : string</text><line style="stroke:#181818;stroke-width:0.25;" x1="281.25" x2="350.75" y1="143.1094" y2="143.1094"/></g><!--class ArrayChannelMetadata--><g id="elem_ArrayChannelMetadata"><rect codeLine="73" fill="#F1F1F1" height="24" id="ArrayChannelMetadata" rx="1.25" ry="1.25" style="stroke:#181818;stroke-width:0.25;" width="89" x="256" y="231"/><ellipse cx="263.5" cy="239" fill="#ADD1B2" rx="5.5" ry="5.5" style="stroke:#181818;stroke-width:0.5;"/><path d="M263.5234,242.1016 C264.2734,242.1016 264.8906,241.8203 265.3438,241.2891 L264.6563,240.5313 C264.3828,240.8281 264.0547,241.0234 263.6563,241.0234 C262.8203,241.0234 262.2422,240.3594 262.2422,239.2188 C262.2422,238.1094 262.8203,237.4375 263.6016,237.4375 C264.0078,237.4375 264.3047,237.5938 264.5703,237.8359 L265.2578,237.0625 C264.8828,236.6953 264.3047,236.3594 263.6016,236.3594 C262.125,236.3594 260.9609,237.4297 260.9609,239.2656 C260.9609,241.125 262.1484,242.1016 263.5234,242.1016 Z " fill="#000000"/><text fill="#000000" font-family="sans-serif" font-size="7" lengthAdjust="spacing" textLength="73" x="270.5" y="241.3926">ArrayChannelMetadata</text><line style="stroke:#181818;stroke-width:0.25;" x1="256.5" x2="344.5" y1="247" y2="247"/><line style="stroke:#181818;stroke-width:0.25;" x1="256.5" x2="344.5" y1="251" y2="251"/></g><!--class MCAChannelCalibration--><g id="elem_MCAChannelCalibration"><rect codeLine="81" fill="#F1F1F1" height="48.6094" id="MCAChannelCalibration" rx="1.25" ry="1.25" style="stroke:#181818;stroke-width:0.25;" width="90.5" x="390.25" y="293.25"/><ellipse cx="397.75" cy="301.25" fill="#ADD1B2" rx="5.5" ry="5.5" style="stroke:#181818;stroke-width:0.5;"/><path d="M397.7734,304.3516 C398.5234,304.3516 399.1406,304.0703 399.5938,303.5391 L398.9063,302.7813 C398.6328,303.0781 398.3047,303.2734 397.9063,303.2734 C397.0703,303.2734 396.4922,302.6094 396.4922,301.4688 C396.4922,300.3594 397.0703,299.6875 397.8516,299.6875 C398.2578,299.6875 398.5547,299.8438 398.8203,300.0859 L399.5078,299.3125 C399.1328,298.9453 398.5547,298.6094 397.8516,298.6094 C396.375,298.6094 395.2109,299.6797 395.2109,301.5156 C395.2109,303.375 396.3984,304.3516 397.7734,304.3516 Z " fill="#000000"/><text fill="#000000" font-family="sans-serif" font-size="7" lengthAdjust="spacing" textLength="74.5" x="404.75" y="303.6426">MCAChannelCalibration</text><line style="stroke:#181818;stroke-width:0.25;" x1="390.75" x2="480.25" y1="309.25" y2="309.25"/><text fill="#000000" font-family="sans-serif" font-size="7" lengthAdjust="spacing" textLength="37.5" x="393.25" y="317.7441">offset : float</text><text fill="#000000" font-family="sans-serif" font-size="7" lengthAdjust="spacing" textLength="35.5" x="393.25" y="325.9473">slope : float</text><text fill="#000000" font-family="sans-serif" font-size="7" lengthAdjust="spacing" textLength="49" x="393.25" y="334.1504">quadratic : float</text><line style="stroke:#181818;stroke-width:0.25;" x1="390.75" x2="480.25" y1="337.8594" y2="337.8594"/></g><g id="elem_GMN36"><path d="M389.25,395.5 L389.25,423.3516 A0,0 0 0 0 389.25,423.3516 L481.75,423.3516 A0,0 0 0 0 481.75,423.3516 L481.75,400.5 L476.75,395.5 L437.5,395.5 L435.5,341.91 L433.5,395.5 L389.25,395.5 A0,0 0 0 0 389.25,395.5 " fill="#FEFFDD" style="stroke:#181818;stroke-width:0.25;"/><path d="M476.75,395.5 L476.75,400.5 L481.75,400.5 L476.75,395.5 " fill="#FEFFDD" style="stroke:#181818;stroke-width:0.25;"/><text fill="#000000" font-family="sans-serif" font-size="6.5" lengthAdjust="spacing" textLength="82" x="392.25" y="404.0303">This class will have methods</text><text fill="#000000" font-family="sans-serif" font-size="6.5" lengthAdjust="spacing" textLength="81.5" x="392.25" y="411.6475">performing operations on the</text><text fill="#000000" font-family="sans-serif" font-size="6.5" lengthAdjust="spacing" textLength="65" x="392.25" y="419.2646">calibration parameters.</text></g><!--reverse link Data to Metadata--><g id="link_Data_Metadata"><path codeLine="11" d="M178.14,36 C186.155,36 188.17,36 196.19,36 " fill="none" id="Data-backto-Metadata" style="stroke:#181818;stroke-width:0.5;"/><polygon fill="#181818" points="172.14,36,175.14,38,178.14,36,175.14,34,172.14,36" style="stroke:#181818;stroke-width:0.5;"/></g><!--reverse link Data to MeasureData--><g id="link_Data_MeasureData"><path d="M124.7736,77.5737 C122.8036,90.5937 121.96,96.125 120.355,106.725 " fill="none" id="Data-backto-MeasureData" style="stroke:#181818;stroke-width:0.5;"/><polygon fill="none" points="126.12,68.675,121.8073,77.1249,127.7398,78.0225,126.12,68.675" style="stroke:#181818;stroke-width:0.5;"/></g><!--reverse link MeasureData to MeasureMetadata--><g id="link_MeasureData_MeasureMetadata"><path codeLine="17" d="M178.04,122.75 C183.925,122.75 183.81,122.75 189.695,122.75 " fill="none" id="MeasureData-backto-MeasureMetadata" style="stroke:#181818;stroke-width:0.5;"/><polygon fill="#181818" points="172.04,122.75,175.04,124.75,178.04,122.75,175.04,120.75,172.04,122.75" style="stroke:#181818;stroke-width:0.5;"/></g><!--reverse link MeasureData to ChannelData--><g id="link_MeasureData_ChannelData"><path d="M141.6329,144.9686 C154.3529,156.6536 164.835,166.29 176.355,176.88 " fill="none" id="MeasureData-backto-ChannelData" style="stroke:#181818;stroke-width:0.5;"/><polygon fill="none" points="135.005,138.88,139.6034,147.1779,143.6624,142.7593,135.005,138.88" style="stroke:#181818;stroke-width:0.5;"/></g><!--reverse link ChannelData to ChannelMetadata--><g id="link_ChannelData_ChannelMetadata"><path codeLine="21" d="M223.28,189 C231.95,189 234.62,189 243.285,189 " fill="none" id="ChannelData-backto-ChannelMetadata" style="stroke:#181818;stroke-width:0.5;"/><polygon fill="#181818" points="217.28,189,220.28,191,223.28,189,220.28,187,217.28,189" style="stroke:#181818;stroke-width:0.5;"/></g><!--reverse link ChannelData to ArrayChannelData--><g id="link_ChannelData_ArrayChannelData"><path d="M189,210 C189,218.83 189,221.97 189,230.84 " fill="none" id="ChannelData-backto-ArrayChannelData" style="stroke:#181818;stroke-width:0.5;"/><polygon fill="none" points="189,201,186,210,192,210,189,201" style="stroke:#181818;stroke-width:0.5;"/></g><!--reverse link ArrayChannelData to MCAChannelData--><g id="link_ArrayChannelData_MCAChannelData"><path d="M189,264.145 C189,272.2 189,274.34 189,284.945 " fill="none" id="ArrayChannelData-backto-MCAChannelData" style="stroke:#181818;stroke-width:0.5;"/><polygon fill="none" points="189,255.145,186,264.145,192,264.145,189,255.145" style="stroke:#181818;stroke-width:0.5;"/></g><!--reverse link MCAChannelData to MCAChannelMetadata--><g id="link_MCAChannelData_MCAChannelMetadata"><path codeLine="33" d="M242.905,317.5 C248.74,317.5 248.57,317.5 254.405,317.5 " fill="none" id="MCAChannelData-backto-MCAChannelMetadata" style="stroke:#181818;stroke-width:0.5;"/><polygon fill="#181818" points="236.905,317.5,239.905,319.5,242.905,317.5,239.905,315.5,236.905,317.5" style="stroke:#181818;stroke-width:0.5;"/></g><!--link MCAChannelROIData to MCAChannelData--><g id="link_MCAChannelROIData_MCAChannelData"><path codeLine="35" d="M123.75,332.45 C129.57,332.83 129.4157,333.3093 135.2357,332.7693 " fill="none" id="MCAChannelROIData-to-MCAChannelData" style="stroke:#181818;stroke-width:0.5;"/><polygon fill="#181818" points="141.21,332.215,138.0381,330.5007,135.2357,332.7693,138.4076,334.4836,141.21,332.215" style="stroke:#181818;stroke-width:0.5;"/><text fill="#000000" font-family="sans-serif" font-size="6.5" lengthAdjust="spacing" textLength="10" x="127.6699" y="331.7752">0..n</text></g><!--link MCAChannelROIData to MCAChannelData--><!--reverse link MeasureData to MCAChannelROIData--><g id="link_MeasureData_MCAChannelROIData"><path d="M112.3583,147.5465 C104.2433,182.4765 86.6,258.44 77.615,297.135 " fill="none" id="MeasureData-backto-MCAChannelROIData" style="stroke:#181818;stroke-width:0.5;"/><polygon fill="none" points="114.395,138.78,109.4362,146.8676,115.2805,148.2254,114.395,138.78" style="stroke:#181818;stroke-width:0.5;"/></g><!--reverse link Metadata to MeasureMetadata--><g id="link_Metadata_MeasureMetadata"><path d="M221.8562,65.3602 C223.1062,80.6952 224.08,92.635 225.235,106.745 " fill="none" id="Metadata-backto-MeasureMetadata" style="stroke:#181818;stroke-width:0.5;"/><polygon fill="none" points="221.125,56.39,218.8661,65.604,224.8463,65.1165,221.125,56.39" style="stroke:#181818;stroke-width:0.5;"/></g><!--link MeasureMetadata to DeviceMetadata--><!--reverse link MeasureMetadata to ChannelMetadata--><g id="link_MeasureMetadata_ChannelMetadata"><path d="M244.8707,145.8648 C254.3657,157.5498 261.46,166.29 270.06,176.88 " fill="none" id="MeasureMetadata-backto-ChannelMetadata" style="stroke:#181818;stroke-width:0.5;"/><polygon fill="none" points="239.195,138.88,242.5424,147.7566,247.1989,143.9729,239.195,138.88" style="stroke:#181818;stroke-width:0.5;"/></g><!--reverse link DeviceMetadata to ChannelMetadata--><g id="link_DeviceMetadata_ChannelMetadata"><path d="M298.2231,155.0307 C292.5681,165.1457 290.63,168.6 286.025,176.83 " fill="none" id="DeviceMetadata-backto-ChannelMetadata" style="stroke:#181818;stroke-width:0.5;stroke-dasharray:7.0,7.0;"/><polygon fill="none" points="302.615,147.175,295.6046,153.5667,300.8417,156.4946,302.615,147.175" style="stroke:#181818;stroke-width:0.5;"/></g><!--reverse link ChannelMetadata to ArrayChannelMetadata--><g id="link_ChannelMetadata_ArrayChannelMetadata"><path d="M287.3714,209.3667 C290.8714,218.1967 292.365,221.97 295.88,230.84 " fill="none" id="ChannelMetadata-backto-ArrayChannelMetadata" style="stroke:#181818;stroke-width:0.5;"/><polygon fill="none" points="284.055,201,284.5825,210.4722,290.1603,208.2613,284.055,201" style="stroke:#181818;stroke-width:0.5;"/></g><!--reverse link ArrayChannelMetadata to MCAChannelMetadata--><g id="link_ArrayChannelMetadata_MCAChannelMetadata"><path d="M304.1257,264.0078 C306.3357,276.5178 308.3,287.595 310.75,301.44 " fill="none" id="ArrayChannelMetadata-backto-MCAChannelMetadata" style="stroke:#181818;stroke-width:0.5;"/><polygon fill="none" points="302.56,255.145,301.1714,264.5297,307.0799,263.4859,302.56,255.145" style="stroke:#181818;stroke-width:0.5;"/></g><!--reverse link MCAChannelMetadata to MCAChannelCalibration--><g id="link_MCAChannelMetadata_MCAChannelCalibration"><path codeLine="79" d="M378.595,317.5 C384.41,317.5 384.225,317.5 390.04,317.5 " fill="none" id="MCAChannelMetadata-backto-MCAChannelCalibration" style="stroke:#181818;stroke-width:0.5;"/><polygon fill="#181818" points="372.595,317.5,375.595,319.5,378.595,317.5,375.595,315.5,372.595,317.5" style="stroke:#181818;stroke-width:0.5;"/></g><!--SRC=[VLN1Rjim3BtxAmXVrXL8kdE1hIZIIm_5W6703aKHC1PT2vCbJwAJ5aN-VPBis9QTj9TK5FduH3xINohcnjtUt3GADRUrMXUclYaKEhSI4byjrbaMZ_20ZF2HWV-hYL64uoqyzVz6ksbO6ksyMSY2esdR- -bchGLQY- -TMTQDiKpMNmNWn_uOBqF8rTVic6Knv_LgpD9pUI9qhQLuJMzCMYJyFaf9IXoXCKwU68q4hWI_D_HTQeuvfbWnLJpECsugr9fKad4IcMLJ1m_J7-Smzu70EQofxUCul7DpVyvvWT8zsnhv_19wCaJz-lduS6gEaYLjMTQqx8ObL1Uk6akEUFj9SEzn0ICKE7r4gF5W6Ukp80tvj_LQvx2wdfNXdE_gkP92a7xviN2UL_8KSgQBC_aet97opt5ifNvDhcgqVwDuBybA6oRO6MPJWoaljEIfGt6LQPM07G427yoA5DMa6VPKiEb6uY2vciZPQE2Au0tmJRg07qwkyVwshTSnuj51th7Cu-sE78F6ckvWWneE1A-aoQAIZc806oWbXvyyl_VTJFdcEQ3pKKhTPT7zJuKCnYDRGFO5shLC3j2ILvEYlTycKFRaernF2WSFwEuoNte8DSh6aUvtIjU3m3Gj_Mov76UxO8WV-ve0jje_RW3qqRvHP4ii21veBmkQ-KkHfc_swHcBWfpRraPG0ZkdCr5cccUsMSxmJu7ynknquIu0JRV20kt2FbfEujabCwjDuLMpinZwaQoRpMXF1t-8JuP_whxWCxdiivgoz8l69ooLmUxhufHfAB7yQr64g6AmVZABKm8X-7VbfwaZSf1AGOLx2X-xoWZNYS0hnjZQjzhBaRh8qpGkAjEW_tgI5vbRZtB_3m00]--></g></svg>