<?xml version="1.0" encoding="us-ascii" standalone="no"?><svg xmlns="http://www.w3.org/2000/svg" xmlns:xlink="http://www.w3.org/1999/xlink" contentStyleType="text/css" height="884px" preserveAspectRatio="none" style="width:970px;height:884px;background:#FFFFFF;" version="1.1" viewBox="0 0 970 884" width="970px" zoomAndPan="magnify"><defs/><g><!--class Data--><g id="elem_Data"><rect codeLine="3" fill="#F1F1F1" height="130.0313" id="Data" rx="2.5" ry="2.5" style="stroke:#181818;stroke-width:0.5;" width="164" x="322" y="7"/><ellipse cx="384.75" cy="23" fill="#ADD1B2" rx="11" ry="11" style="stroke:#181818;stroke-width:1.0;"/><path d="M384.7969,29.2031 C386.2969,29.2031 387.5313,28.6406 388.4375,27.5781 L387.0625,26.0625 C386.5156,26.6563 385.8594,27.0469 385.0625,27.0469 C383.3906,27.0469 382.2344,25.7188 382.2344,23.4375 C382.2344,21.2188 383.3906,19.875 384.9531,19.875 C385.7656,19.875 386.3594,20.1875 386.8906,20.6719 L388.2656,19.125 C387.5156,18.3906 386.3594,17.7188 384.9531,17.7188 C382,17.7188 379.6719,19.8594 379.6719,23.5313 C379.6719,27.25 382.0469,29.2031 384.7969,29.2031 Z " fill="#000000"/><text fill="#000000" font-family="sans-serif" font-size="14" lengthAdjust="spacing" textLength="30" x="405.25" y="27.7852">Data</text><line style="stroke:#181818;stroke-width:0.5;" x1="323" x2="485" y1="39" y2="39"/><text fill="#000000" font-family="sans-serif" font-size="14" lengthAdjust="spacing" textLength="131" x="328" y="55.9883">metadata : Metadata</text><text fill="#000000" font-family="sans-serif" font-size="14" lengthAdjust="spacing" textLength="79" x="328" y="72.3945">options : dict</text><text fill="#000000" font-family="sans-serif" font-size="14" lengthAdjust="spacing" textLength="113" x="328" y="88.8008">_data : np.ndarray</text><text fill="#000000" font-family="sans-serif" font-size="14" lengthAdjust="spacing" textLength="152" x="328" y="105.207">_importer : DataImporter</text><line style="stroke:#181818;stroke-width:0.5;" x1="323" x2="485" y1="112.625" y2="112.625"/><text fill="#000000" font-family="sans-serif" font-size="14" lengthAdjust="spacing" textLength="39" x="328" y="129.6133">data()</text></g><!--class Metadata--><g id="elem_Metadata"><rect codeLine="54" fill="#F1F1F1" height="80.8125" id="Metadata" rx="2.5" ry="2.5" style="stroke:#181818;stroke-width:0.5;" width="93" x="534.5" y="31.5"/><ellipse cx="549.5" cy="47.5" fill="#ADD1B2" rx="11" ry="11" style="stroke:#181818;stroke-width:1.0;"/><path d="M549.5469,53.7031 C551.0469,53.7031 552.2813,53.1406 553.1875,52.0781 L551.8125,50.5625 C551.2656,51.1563 550.6094,51.5469 549.8125,51.5469 C548.1406,51.5469 546.9844,50.2188 546.9844,47.9375 C546.9844,45.7188 548.1406,44.375 549.7031,44.375 C550.5156,44.375 551.1094,44.6875 551.6406,45.1719 L553.0156,43.625 C552.2656,42.8906 551.1094,42.2188 549.7031,42.2188 C546.75,42.2188 544.4219,44.3594 544.4219,48.0313 C544.4219,51.75 546.7969,53.7031 549.5469,53.7031 Z " fill="#000000"/><text fill="#000000" font-family="sans-serif" font-size="14" lengthAdjust="spacing" textLength="61" x="563.5" y="52.2852">Metadata</text><line style="stroke:#181818;stroke-width:0.5;" x1="535.5" x2="626.5" y1="63.5" y2="63.5"/><text fill="#000000" font-family="sans-serif" font-size="14" lengthAdjust="spacing" textLength="80" x="540.5" y="80.4883">name : string</text><text fill="#000000" font-family="sans-serif" font-size="14" lengthAdjust="spacing" textLength="79" x="540.5" y="96.8945">options : dict</text><line style="stroke:#181818;stroke-width:0.5;" x1="535.5" x2="626.5" y1="104.3125" y2="104.3125"/></g><!--class MeasureData--><g id="elem_MeasureData"><rect codeLine="13" fill="#F1F1F1" height="64.4063" id="MeasureData" rx="2.5" ry="2.5" style="stroke:#181818;stroke-width:0.5;" width="216" x="270" y="213.5"/><ellipse cx="331.75" cy="229.5" fill="#ADD1B2" rx="11" ry="11" style="stroke:#181818;stroke-width:1.0;"/><path d="M331.7969,235.7031 C333.2969,235.7031 334.5313,235.1406 335.4375,234.0781 L334.0625,232.5625 C333.5156,233.1563 332.8594,233.5469 332.0625,233.5469 C330.3906,233.5469 329.2344,232.2188 329.2344,229.9375 C329.2344,227.7188 330.3906,226.375 331.9531,226.375 C332.7656,226.375 333.3594,226.6875 333.8906,227.1719 L335.2656,225.625 C334.5156,224.8906 333.3594,224.2188 331.9531,224.2188 C329,224.2188 326.6719,226.3594 326.6719,230.0313 C326.6719,233.75 329.0469,235.7031 331.7969,235.7031 Z " fill="#000000"/><text fill="#000000" font-family="sans-serif" font-size="14" lengthAdjust="spacing" textLength="84" x="352.25" y="234.2852">MeasureData</text><line style="stroke:#181818;stroke-width:0.5;" x1="271" x2="485" y1="245.5" y2="245.5"/><text fill="#000000" font-family="sans-serif" font-size="14" lengthAdjust="spacing" textLength="204" x="276" y="262.4883">positions : np.ndarray(dtype=int)</text><line style="stroke:#181818;stroke-width:0.5;" x1="271" x2="485" y1="269.9063" y2="269.9063"/></g><!--class MeasureMetadata--><g id="elem_MeasureMetadata"><rect codeLine="59" fill="#F1F1F1" height="64.4063" id="MeasureMetadata" rx="2.5" ry="2.5" style="stroke:#181818;stroke-width:0.5;" width="147" x="521.5" y="213.5"/><ellipse cx="536.5" cy="229.5" fill="#ADD1B2" rx="11" ry="11" style="stroke:#181818;stroke-width:1.0;"/><path d="M536.5469,235.7031 C538.0469,235.7031 539.2813,235.1406 540.1875,234.0781 L538.8125,232.5625 C538.2656,233.1563 537.6094,233.5469 536.8125,233.5469 C535.1406,233.5469 533.9844,232.2188 533.9844,229.9375 C533.9844,227.7188 535.1406,226.375 536.7031,226.375 C537.5156,226.375 538.1094,226.6875 538.6406,227.1719 L540.0156,225.625 C539.2656,224.8906 538.1094,224.2188 536.7031,224.2188 C533.75,224.2188 531.4219,226.3594 531.4219,230.0313 C531.4219,233.75 533.7969,235.7031 536.5469,235.7031 Z " fill="#000000"/><text fill="#000000" font-family="sans-serif" font-size="14" lengthAdjust="spacing" textLength="115" x="550.5" y="234.2852">MeasureMetadata</text><line style="stroke:#181818;stroke-width:0.5;" x1="522.5" x2="667.5" y1="245.5" y2="245.5"/><text fill="#000000" font-family="sans-serif" font-size="14" lengthAdjust="spacing" textLength="69" x="527.5" y="262.4883">unit : string</text><line style="stroke:#181818;stroke-width:0.5;" x1="522.5" x2="667.5" y1="269.9063" y2="269.9063"/></g><!--class ChannelData--><g id="elem_ChannelData"><rect codeLine="19" fill="#F1F1F1" height="48" id="ChannelData" rx="2.5" ry="2.5" style="stroke:#181818;stroke-width:0.5;" width="113" x="321.5" y="354"/><ellipse cx="336.5" cy="370" fill="#ADD1B2" rx="11" ry="11" style="stroke:#181818;stroke-width:1.0;"/><path d="M336.5469,376.2031 C338.0469,376.2031 339.2813,375.6406 340.1875,374.5781 L338.8125,373.0625 C338.2656,373.6563 337.6094,374.0469 336.8125,374.0469 C335.1406,374.0469 333.9844,372.7188 333.9844,370.4375 C333.9844,368.2188 335.1406,366.875 336.7031,366.875 C337.5156,366.875 338.1094,367.1875 338.6406,367.6719 L340.0156,366.125 C339.2656,365.3906 338.1094,364.7188 336.7031,364.7188 C333.75,364.7188 331.4219,366.8594 331.4219,370.5313 C331.4219,374.25 333.7969,376.2031 336.5469,376.2031 Z " fill="#000000"/><text fill="#000000" font-family="sans-serif" font-size="14" lengthAdjust="spacing" textLength="81" x="350.5" y="374.7852">ChannelData</text><line style="stroke:#181818;stroke-width:0.5;" x1="322.5" x2="433.5" y1="386" y2="386"/><line style="stroke:#181818;stroke-width:0.5;" x1="322.5" x2="433.5" y1="394" y2="394"/></g><!--class ChannelMetadata--><g id="elem_ChannelMetadata"><rect codeLine="69" fill="#F1F1F1" height="48" id="ChannelMetadata" rx="2.5" ry="2.5" style="stroke:#181818;stroke-width:0.5;" width="144" x="531" y="354"/><ellipse cx="546" cy="370" fill="#ADD1B2" rx="11" ry="11" style="stroke:#181818;stroke-width:1.0;"/><path d="M546.0469,376.2031 C547.5469,376.2031 548.7813,375.6406 549.6875,374.5781 L548.3125,373.0625 C547.7656,373.6563 547.1094,374.0469 546.3125,374.0469 C544.6406,374.0469 543.4844,372.7188 543.4844,370.4375 C543.4844,368.2188 544.6406,366.875 546.2031,366.875 C547.0156,366.875 547.6094,367.1875 548.1406,367.6719 L549.5156,366.125 C548.7656,365.3906 547.6094,364.7188 546.2031,364.7188 C543.25,364.7188 540.9219,366.8594 540.9219,370.5313 C540.9219,374.25 543.2969,376.2031 546.0469,376.2031 Z " fill="#000000"/><text fill="#000000" font-family="sans-serif" font-size="14" lengthAdjust="spacing" textLength="112" x="560" y="374.7852">ChannelMetadata</text><line style="stroke:#181818;stroke-width:0.5;" x1="532" x2="674" y1="386" y2="386"/><line style="stroke:#181818;stroke-width:0.5;" x1="532" x2="674" y1="394" y2="394"/></g><!--class ArrayChannelData--><g id="elem_ArrayChannelData"><rect codeLine="23" fill="#F1F1F1" height="48" id="ArrayChannelData" rx="2.5" ry="2.5" style="stroke:#181818;stroke-width:0.5;" width="147" x="304.5" y="462"/><ellipse cx="319.5" cy="478" fill="#ADD1B2" rx="11" ry="11" style="stroke:#181818;stroke-width:1.0;"/><path d="M319.5469,484.2031 C321.0469,484.2031 322.2813,483.6406 323.1875,482.5781 L321.8125,481.0625 C321.2656,481.6563 320.6094,482.0469 319.8125,482.0469 C318.1406,482.0469 316.9844,480.7188 316.9844,478.4375 C316.9844,476.2188 318.1406,474.875 319.7031,474.875 C320.5156,474.875 321.1094,475.1875 321.6406,475.6719 L323.0156,474.125 C322.2656,473.3906 321.1094,472.7188 319.7031,472.7188 C316.75,472.7188 314.4219,474.8594 314.4219,478.5313 C314.4219,482.25 316.7969,484.2031 319.5469,484.2031 Z " fill="#000000"/><text fill="#000000" font-family="sans-serif" font-size="14" lengthAdjust="spacing" textLength="115" x="333.5" y="482.7852">ArrayChannelData</text><line style="stroke:#181818;stroke-width:0.5;" x1="305.5" x2="450.5" y1="494" y2="494"/><line style="stroke:#181818;stroke-width:0.5;" x1="305.5" x2="450.5" y1="502" y2="502"/></g><!--class MCAChannelData--><g id="elem_MCAChannelData"><rect codeLine="25" fill="#F1F1F1" height="130.0313" id="MCAChannelData" rx="2.5" ry="2.5" style="stroke:#181818;stroke-width:0.5;" width="191" x="282.5" y="570"/><ellipse cx="319.1" cy="586" fill="#ADD1B2" rx="11" ry="11" style="stroke:#181818;stroke-width:1.0;"/><path d="M319.1469,592.2031 C320.6469,592.2031 321.8813,591.6406 322.7875,590.5781 L321.4125,589.0625 C320.8656,589.6563 320.2094,590.0469 319.4125,590.0469 C317.7406,590.0469 316.5844,588.7188 316.5844,586.4375 C316.5844,584.2188 317.7406,582.875 319.3031,582.875 C320.1156,582.875 320.7094,583.1875 321.2406,583.6719 L322.6156,582.125 C321.8656,581.3906 320.7094,580.7188 319.3031,580.7188 C316.35,580.7188 314.0219,582.8594 314.0219,586.5313 C314.0219,590.25 316.3969,592.2031 319.1469,592.2031 Z " fill="#000000"/><text fill="#000000" font-family="sans-serif" font-size="14" lengthAdjust="spacing" textLength="111" x="337.9" y="590.7852">MCAChannelData</text><line style="stroke:#181818;stroke-width:0.5;" x1="283.5" x2="472.5" y1="602" y2="602"/><text fill="#000000" font-family="sans-serif" font-size="14" lengthAdjust="spacing" textLength="167" x="288.5" y="618.9883">roi[] : MCAChannelROIData</text><text fill="#000000" font-family="sans-serif" font-size="14" lengthAdjust="spacing" textLength="129" x="288.5" y="635.3945">life_time : np.ndarray</text><text fill="#000000" font-family="sans-serif" font-size="14" lengthAdjust="spacing" textLength="134" x="288.5" y="651.8008">real_time : np.ndarray</text><text fill="#000000" font-family="sans-serif" font-size="14" lengthAdjust="spacing" textLength="174" x="288.5" y="668.207">preset_life_time : np.ndarray</text><text fill="#000000" font-family="sans-serif" font-size="14" lengthAdjust="spacing" textLength="179" x="288.5" y="684.6133">preset_real_time : np.ndarray</text><line style="stroke:#181818;stroke-width:0.5;" x1="283.5" x2="472.5" y1="692.0313" y2="692.0313"/></g><!--class MCAChannelMetadata--><g id="elem_MCAChannelMetadata"><rect codeLine="73" fill="#F1F1F1" height="64.4063" id="MCAChannelMetadata" rx="2.5" ry="2.5" style="stroke:#181818;stroke-width:0.5;" width="236" x="509" y="603"/><ellipse cx="551.9" cy="619" fill="#ADD1B2" rx="11" ry="11" style="stroke:#181818;stroke-width:1.0;"/><path d="M551.9469,625.2031 C553.4469,625.2031 554.6813,624.6406 555.5875,623.5781 L554.2125,622.0625 C553.6656,622.6563 553.0094,623.0469 552.2125,623.0469 C550.5406,623.0469 549.3844,621.7188 549.3844,619.4375 C549.3844,617.2188 550.5406,615.875 552.1031,615.875 C552.9156,615.875 553.5094,616.1875 554.0406,616.6719 L555.4156,615.125 C554.6656,614.3906 553.5094,613.7188 552.1031,613.7188 C549.15,613.7188 546.8219,615.8594 546.8219,619.5313 C546.8219,623.25 549.1969,625.2031 551.9469,625.2031 Z " fill="#000000"/><text fill="#000000" font-family="sans-serif" font-size="14" lengthAdjust="spacing" textLength="142" x="572.1" y="623.7852">MCAChannelMetadata</text><line style="stroke:#181818;stroke-width:0.5;" x1="510" x2="744" y1="635" y2="635"/><text fill="#000000" font-family="sans-serif" font-size="14" lengthAdjust="spacing" textLength="224" x="515" y="651.9883">calibration : MCAChannelCalibration</text><line style="stroke:#181818;stroke-width:0.5;" x1="510" x2="744" y1="659.4063" y2="659.4063"/></g><!--class MCAChannelROIData--><g id="elem_MCAChannelROIData"><rect codeLine="39" fill="#F1F1F1" height="80.8125" id="MCAChannelROIData" rx="2.5" ry="2.5" style="stroke:#181818;stroke-width:0.5;" width="203" x="44.5" y="594.5"/><ellipse cx="76.15" cy="610.5" fill="#ADD1B2" rx="11" ry="11" style="stroke:#181818;stroke-width:1.0;"/><path d="M76.1969,616.7031 C77.6969,616.7031 78.9313,616.1406 79.8375,615.0781 L78.4625,613.5625 C77.9156,614.1563 77.2594,614.5469 76.4625,614.5469 C74.7906,614.5469 73.6344,613.2188 73.6344,610.9375 C73.6344,608.7188 74.7906,607.375 76.3531,607.375 C77.1656,607.375 77.7594,607.6875 78.2906,608.1719 L79.6656,606.625 C78.9156,605.8906 77.7594,605.2188 76.3531,605.2188 C73.4,605.2188 71.0719,607.3594 71.0719,611.0313 C71.0719,614.75 73.4469,616.7031 76.1969,616.7031 Z " fill="#000000"/><text fill="#000000" font-family="sans-serif" font-size="14" lengthAdjust="spacing" textLength="134" x="93.85" y="615.2852">MCAChannelROIData</text><line style="stroke:#181818;stroke-width:0.5;" x1="45.5" x2="246.5" y1="626.5" y2="626.5"/><text fill="#000000" font-family="sans-serif" font-size="14" lengthAdjust="spacing" textLength="74" x="50.5" y="643.4883">label : string</text><text fill="#000000" font-family="sans-serif" font-size="14" lengthAdjust="spacing" textLength="191" x="50.5" y="659.8945">marker : np.ndarray(dtype=int)</text><line style="stroke:#181818;stroke-width:0.5;" x1="45.5" x2="246.5" y1="667.3125" y2="667.3125"/></g><g id="elem_GMN23"><path d="M6,760 L6,877.7473 A0,0 0 0 0 6,877.7473 L286,877.7473 A0,0 0 0 0 286,877.7473 L286,770 L276,760 L150,760 L146,675.94 L142,760 L6,760 A0,0 0 0 0 6,760 " fill="#FEFFDD" style="stroke:#181818;stroke-width:0.5;"/><path d="M276,760 L276,770 L286,770 L276,760 " fill="#FEFFDD" style="stroke:#181818;stroke-width:0.5;"/><text fill="#000000" font-family="sans-serif" font-size="13" lengthAdjust="spacing" textLength="220" x="12" y="777.0605">Marker should be a two-element vector</text><text fill="#000000" font-family="sans-serif" font-size="13" lengthAdjust="spacing" textLength="248" x="12" y="792.2949">with positions on the x axis of the spectrum.</text><text fill="#000000" font-family="sans-serif" font-size="13" lengthAdjust="spacing" textLength="259" x="12" y="807.5293">Is "marker" the best name? Can we generalise</text><text fill="#000000" font-family="sans-serif" font-size="13" lengthAdjust="spacing" textLength="40" x="12" y="823.8703">to fit to</text><text fill="#000000" font-family="monospace" font-size="13" lengthAdjust="spacing" textLength="144" x="55" y="823.4951">AreaChannelROIData</text><text fill="#000000" font-family="sans-serif" font-size="13" lengthAdjust="spacing" textLength="46" x="202" y="823.8703">as well?</text><text fill="#000000" font-family="sans-serif" font-size="13" lengthAdjust="spacing" textLength="3" x="12" y="839.1047">&#160;</text><text fill="#000000" font-family="sans-serif" font-size="13" lengthAdjust="spacing" textLength="207" x="12" y="854.3391">What other attributes are relevant for</text><text fill="#000000" font-family="sans-serif" font-size="13" lengthAdjust="spacing" textLength="115" x="12" y="869.5734">Array Channel ROIs?</text></g><!--class DeviceMetadata--><g id="elem_DeviceMetadata"><rect codeLine="63" fill="#F1F1F1" height="97.2188" id="DeviceMetadata" rx="2.5" ry="2.5" style="stroke:#181818;stroke-width:0.5;" width="141" x="703.5" y="197"/><ellipse cx="724.35" cy="213" fill="#B4A7E5" rx="11" ry="11" style="stroke:#181818;stroke-width:1.0;"/><path d="M720.6156,219 L728.2875,219 L728.2875,216.8906 L725.7094,216.8906 L725.7094,210.0313 L728.2875,210.0313 L728.2875,207.9219 L720.6156,207.9219 L720.6156,210.0313 L723.1938,210.0313 L723.1938,216.8906 L720.6156,216.8906 L720.6156,219 Z " fill="#000000"/><text fill="#000000" font-family="sans-serif" font-size="14" font-style="italic" lengthAdjust="spacing" textLength="96" x="739.65" y="217.7852">DeviceMetadata</text><line style="stroke:#181818;stroke-width:0.5;" x1="704.5" x2="843.5" y1="229" y2="229"/><text fill="#000000" font-family="sans-serif" font-size="14" lengthAdjust="spacing" textLength="56" x="709.5" y="245.9883">id : string</text><text fill="#000000" font-family="sans-serif" font-size="14" lengthAdjust="spacing" textLength="60" x="709.5" y="262.3945">pv : string</text><text fill="#000000" font-family="sans-serif" font-size="14" lengthAdjust="spacing" textLength="129" x="709.5" y="278.8008">access_mode : string</text><line style="stroke:#181818;stroke-width:0.5;" x1="704.5" x2="843.5" y1="286.2188" y2="286.2188"/></g><!--class ArrayChannelMetadata--><g id="elem_ArrayChannelMetadata"><rect codeLine="71" fill="#F1F1F1" height="48" id="ArrayChannelMetadata" rx="2.5" ry="2.5" style="stroke:#181818;stroke-width:0.5;" width="178" x="530" y="462"/><ellipse cx="545" cy="478" fill="#ADD1B2" rx="11" ry="11" style="stroke:#181818;stroke-width:1.0;"/><path d="M545.0469,484.2031 C546.5469,484.2031 547.7813,483.6406 548.6875,482.5781 L547.3125,481.0625 C546.7656,481.6563 546.1094,482.0469 545.3125,482.0469 C543.6406,482.0469 542.4844,480.7188 542.4844,478.4375 C542.4844,476.2188 543.6406,474.875 545.2031,474.875 C546.0156,474.875 546.6094,475.1875 547.1406,475.6719 L548.5156,474.125 C547.7656,473.3906 546.6094,472.7188 545.2031,472.7188 C542.25,472.7188 539.9219,474.8594 539.9219,478.5313 C539.9219,482.25 542.2969,484.2031 545.0469,484.2031 Z " fill="#000000"/><text fill="#000000" font-family="sans-serif" font-size="14" lengthAdjust="spacing" textLength="146" x="559" y="482.7852">ArrayChannelMetadata</text><line style="stroke:#181818;stroke-width:0.5;" x1="531" x2="707" y1="494" y2="494"/><line style="stroke:#181818;stroke-width:0.5;" x1="531" x2="707" y1="502" y2="502"/></g><!--class MCAChannelCalibration--><g id="elem_MCAChannelCalibration"><rect codeLine="79" fill="#F1F1F1" height="97.2188" id="MCAChannelCalibration" rx="2.5" ry="2.5" style="stroke:#181818;stroke-width:0.5;" width="181" x="780.5" y="586.5"/><ellipse cx="795.5" cy="602.5" fill="#ADD1B2" rx="11" ry="11" style="stroke:#181818;stroke-width:1.0;"/><path d="M795.5469,608.7031 C797.0469,608.7031 798.2813,608.1406 799.1875,607.0781 L797.8125,605.5625 C797.2656,606.1563 796.6094,606.5469 795.8125,606.5469 C794.1406,606.5469 792.9844,605.2188 792.9844,602.9375 C792.9844,600.7188 794.1406,599.375 795.7031,599.375 C796.5156,599.375 797.1094,599.6875 797.6406,600.1719 L799.0156,598.625 C798.2656,597.8906 797.1094,597.2188 795.7031,597.2188 C792.75,597.2188 790.4219,599.3594 790.4219,603.0313 C790.4219,606.75 792.7969,608.7031 795.5469,608.7031 Z " fill="#000000"/><text fill="#000000" font-family="sans-serif" font-size="14" lengthAdjust="spacing" textLength="149" x="809.5" y="607.2852">MCAChannelCalibration</text><line style="stroke:#181818;stroke-width:0.5;" x1="781.5" x2="960.5" y1="618.5" y2="618.5"/><text fill="#000000" font-family="sans-serif" font-size="14" lengthAdjust="spacing" textLength="75" x="786.5" y="635.4883">offset : float</text><text fill="#000000" font-family="sans-serif" font-size="14" lengthAdjust="spacing" textLength="71" x="786.5" y="651.8945">slope : float</text><text fill="#000000" font-family="sans-serif" font-size="14" lengthAdjust="spacing" textLength="98" x="786.5" y="668.3008">quadratic : float</text><line style="stroke:#181818;stroke-width:0.5;" x1="781.5" x2="960.5" y1="675.7188" y2="675.7188"/></g><g id="elem_GMN35"><path d="M778.5,791 L778.5,846.7031 A0,0 0 0 0 778.5,846.7031 L963.5,846.7031 A0,0 0 0 0 963.5,846.7031 L963.5,801 L953.5,791 L875,791 L871,683.82 L867,791 L778.5,791 A0,0 0 0 0 778.5,791 " fill="#FEFFDD" style="stroke:#181818;stroke-width:0.5;"/><path d="M953.5,791 L953.5,801 L963.5,801 L953.5,791 " fill="#FEFFDD" style="stroke:#181818;stroke-width:0.5;"/><text fill="#000000" font-family="sans-serif" font-size="13" lengthAdjust="spacing" textLength="164" x="784.5" y="808.0605">This class will have methods</text><text fill="#000000" font-family="sans-serif" font-size="13" lengthAdjust="spacing" textLength="163" x="784.5" y="823.2949">performing operations on the</text><text fill="#000000" font-family="sans-serif" font-size="13" lengthAdjust="spacing" textLength="130" x="784.5" y="838.5293">calibration parameters.</text></g><!--reverse link Data to Metadata--><g id="link_Data_Metadata"><path codeLine="11" d="M498.28,72 C514.31,72 518.34,72 534.38,72 " fill="none" id="Data-backto-Metadata" style="stroke:#181818;stroke-width:1.0;"/><polygon fill="#181818" points="486.28,72,492.28,76,498.28,72,492.28,68,486.28,72" style="stroke:#181818;stroke-width:1.0;"/></g><!--reverse link Data to MeasureData--><g id="link_Data_MeasureData"><path d="M391.5471,155.1474 C387.6071,181.1874 385.92,192.25 382.71,213.45 " fill="none" id="Data-backto-MeasureData" style="stroke:#181818;stroke-width:1.0;"/><polygon fill="none" points="394.24,137.35,385.6147,154.2498,397.4796,156.045,394.24,137.35" style="stroke:#181818;stroke-width:1.0;"/></g><!--reverse link MeasureData to MeasureMetadata--><g id="link_MeasureData_MeasureMetadata"><path codeLine="17" d="M498.08,245.5 C509.85,245.5 509.62,245.5 521.39,245.5 " fill="none" id="MeasureData-backto-MeasureMetadata" style="stroke:#181818;stroke-width:1.0;"/><polygon fill="#181818" points="486.08,245.5,492.08,249.5,498.08,245.5,492.08,241.5,486.08,245.5" style="stroke:#181818;stroke-width:1.0;"/></g><!--reverse link MeasureData to ChannelData--><g id="link_MeasureData_ChannelData"><path d="M378,295.76 C378,319.13 378,332.58 378,353.76 " fill="none" id="MeasureData-backto-ChannelData" style="stroke:#181818;stroke-width:1.0;"/><polygon fill="none" points="378,277.76,372,295.76,384,295.76,378,277.76" style="stroke:#181818;stroke-width:1.0;"/></g><!--reverse link ChannelData to ChannelMetadata--><g id="link_ChannelData_ChannelMetadata"><path codeLine="21" d="M446.69,378 C478.69,378 498.68,378 530.68,378 " fill="none" id="ChannelData-backto-ChannelMetadata" style="stroke:#181818;stroke-width:1.0;"/><polygon fill="#181818" points="434.69,378,440.69,382,446.69,378,440.69,374,434.69,378" style="stroke:#181818;stroke-width:1.0;"/></g><!--reverse link ChannelData to ArrayChannelData--><g id="link_ChannelData_ArrayChannelData"><path d="M378,420 C378,437.66 378,443.94 378,461.68 " fill="none" id="ChannelData-backto-ArrayChannelData" style="stroke:#181818;stroke-width:1.0;"/><polygon fill="none" points="378,402,372,420,384,420,378,402" style="stroke:#181818;stroke-width:1.0;"/></g><!--reverse link ArrayChannelData to MCAChannelData--><g id="link_ArrayChannelData_MCAChannelData"><path d="M378,528.29 C378,544.4 378,548.68 378,569.89 " fill="none" id="ArrayChannelData-backto-MCAChannelData" style="stroke:#181818;stroke-width:1.0;"/><polygon fill="none" points="378,510.29,372,528.29,384,528.29,378,510.29" style="stroke:#181818;stroke-width:1.0;"/></g><!--reverse link MCAChannelData to MCAChannelMetadata--><g id="link_MCAChannelData_MCAChannelMetadata"><path codeLine="33" d="M485.81,635 C497.48,635 497.14,635 508.81,635 " fill="none" id="MCAChannelData-backto-MCAChannelMetadata" style="stroke:#181818;stroke-width:1.0;"/><polygon fill="#181818" points="473.81,635,479.81,639,485.81,635,479.81,631,473.81,635" style="stroke:#181818;stroke-width:1.0;"/></g><!--link MCAChannelROIData to MCAChannelData--><g id="link_MCAChannelROIData_MCAChannelData"><path codeLine="35" d="M247.5,664.9 C259.14,665.66 258.8313,666.6186 270.4713,665.5386 " fill="none" id="MCAChannelROIData-to-MCAChannelData" style="stroke:#181818;stroke-width:1.0;"/><polygon fill="#181818" points="282.42,664.43,276.0761,661.0014,270.4713,665.5386,276.8152,668.9672,282.42,664.43" style="stroke:#181818;stroke-width:1.0;"/><text fill="#000000" font-family="sans-serif" font-size="13" lengthAdjust="spacing" textLength="20" x="255.3398" y="663.5504">0..n</text></g><!--link MCAChannelROIData to MCAChannelData--><!--reverse link ChannelData to MCAChannelROIData--><g id="link_ChannelData_MCAChannelROIData"><path d="M337.1717,413.7935 C318.5617,429.9335 307.31,440.59 287,462 C246.08,505.14 203.36,558.62 175.83,594.39 " fill="none" id="ChannelData-backto-MCAChannelROIData" style="stroke:#181818;stroke-width:1.0;"/><polygon fill="none" points="350.77,402,333.2405,409.2607,341.1029,418.3262,350.77,402" style="stroke:#181818;stroke-width:1.0;"/></g><!--reverse link Metadata to MeasureMetadata--><g id="link_Metadata_MeasureMetadata"><path d="M585.7124,130.7205 C588.2124,161.3905 590.16,185.27 592.47,213.49 " fill="none" id="Metadata-backto-MeasureMetadata" style="stroke:#181818;stroke-width:1.0;"/><polygon fill="none" points="584.25,112.78,579.7322,131.208,591.6925,130.233,584.25,112.78" style="stroke:#181818;stroke-width:1.0;"/></g><!--reverse link MeasureMetadata to ChannelMetadata--><g id="link_MeasureMetadata_ChannelMetadata"><path d="M598.0194,295.7264 C599.4494,319.0964 600.28,332.58 601.58,353.76 " fill="none" id="MeasureMetadata-backto-ChannelMetadata" style="stroke:#181818;stroke-width:1.0;"/><polygon fill="none" points="596.92,277.76,592.0306,296.0928,604.0082,295.3599,596.92,277.76" style="stroke:#181818;stroke-width:1.0;"/></g><!--reverse link DeviceMetadata to ChannelMetadata--><g id="link_DeviceMetadata_ChannelMetadata"><path d="M696.9925,305.2723 C670.4925,325.5023 655.15,337.2 633.58,353.66 " fill="none" id="DeviceMetadata-backto-ChannelMetadata" style="stroke:#181818;stroke-width:1.0;stroke-dasharray:7.0,7.0;"/><polygon fill="none" points="711.3,294.35,693.3518,300.5031,700.6333,310.0414,711.3,294.35" style="stroke:#181818;stroke-width:1.0;"/></g><!--reverse link ChannelMetadata to ArrayChannelMetadata--><g id="link_ChannelMetadata_ArrayChannelMetadata"><path d="M609.1608,419.7977 C611.8308,437.4577 612.8,443.94 615.48,461.68 " fill="none" id="ChannelMetadata-backto-ArrayChannelMetadata" style="stroke:#181818;stroke-width:1.0;"/><polygon fill="none" points="606.47,402,603.2282,420.6947,615.0934,418.9008,606.47,402" style="stroke:#181818;stroke-width:1.0;"/></g><!--reverse link ArrayChannelMetadata to MCAChannelMetadata--><g id="link_ArrayChannelMetadata_MCAChannelMetadata"><path d="M621.247,528.2635 C622.607,553.2835 623.8,575.19 625.31,602.88 " fill="none" id="ArrayChannelMetadata-backto-MCAChannelMetadata" style="stroke:#181818;stroke-width:1.0;"/><polygon fill="none" points="620.27,510.29,615.2558,528.5891,627.2381,527.9378,620.27,510.29" style="stroke:#181818;stroke-width:1.0;"/></g><!--reverse link MCAChannelMetadata to MCAChannelCalibration--><g id="link_MCAChannelMetadata_MCAChannelCalibration"><path codeLine="77" d="M757.19,635 C768.82,635 768.45,635 780.08,635 " fill="none" id="MCAChannelMetadata-backto-MCAChannelCalibration" style="stroke:#181818;stroke-width:1.0;"/><polygon fill="#181818" points="745.19,635,751.19,639,757.19,635,751.19,631,745.19,635" style="stroke:#181818;stroke-width:1.0;"/></g><!--SRC=[VLKxRzim4DxrAmvQcWQmqpb06mJEaY4eK1Je40J6MJn5H2bI9KzsWi3_lIGbow8a9ujph-y-tajVAkR6tTxSD0erjxLQ5wQ-AHGwjn8INotMMHP5U416-CZ0_zN4A89u2q_zlr5l6fP6EwyMik2eslP-kbbhWTRYUwUMTMCia_Mc0FpOYz4OGgw-PiSiYpclL-SiFPSdGjTQYcPwOz8YuVTHIbBY28rnyiJeJE1Ay7j3twNcc6EC5LD5SPfnKw7Mf9ACeyWi6pjuc5wSmjm70ajOOzt7SNZdvdx9UORIFTiQ-VmIUZ94_Vhv-71gZf8bRLdMDE-69LGNJ8qbHxpz9BZtk80H2fm-8jHuq9phCoCD-RVrMkUmkfwKOSbtzLn98KY__9WvJojv2bciV38-2dUa_7CSMwbV4rEDzcyStajZfGqJx0opgS6K5rhorA6uohHAm8u0WGzcHOfgqWnxAjXqAt6GN8t6sMZWYk0Dy4swW1yartX_szRh6F7e8EzOvj6w8yUWiQOxsA260y4hQRAefACOm0PAoU4dp-zzDrE-UGxeV9HITrbq_rCXW_785f1zWNOjamEqvAT9qTvV4oXxyd5SJtK63-ZkCbzw23NApYlTtvIk1u5fMlh9SJbERi4GVzxE1B3L_d43e8_sZI9ROa7mG7jPqCHVYZHziqzbB0foRbiRGGbiSYuMIALa_HdickqcB9OEnWpjmf6PhzVYvPWykF2ZiBCOYfpSaCrPdsxp49zizDXzncTaxBEQilJNmoSibS7ka-6KQIZH_6jHXAXYq7woO6C28VXtvLUa8tAGIa65UmfViCe8rtNMZu6njU-Vdp7g8ayhDgjCW_wJI7votFeym_y1]--></g></svg>