<?xml version="1.0" encoding="us-ascii" standalone="no"?><svg xmlns="http://www.w3.org/2000/svg" xmlns:xlink="http://www.w3.org/1999/xlink" contentStyleType="text/css" height="451px" preserveAspectRatio="none" style="width:957px;height:451px;background:#FFFFFF;" version="1.1" viewBox="0 0 957 451" width="957px" zoomAndPan="magnify"><defs/><g><!--class MeasureData--><g id="elem_MeasureData"><rect codeLine="3" fill="#F1F1F1" height="80.5938" id="MeasureData" rx="2.5" ry="2.5" style="stroke:#181818;stroke-width:0.5;" width="127" x="238" y="7"/><ellipse cx="253" cy="23" fill="#ADD1B2" rx="11" ry="11" style="stroke:#181818;stroke-width:1.0;"/><path d="M255.9688,28.6406 Q255.3906,28.9375 254.75,29.0781 Q254.1094,29.2344 253.4063,29.2344 Q250.9063,29.2344 249.5781,27.5938 Q248.2656,25.9375 248.2656,22.8125 Q248.2656,19.6875 249.5781,18.0313 Q250.9063,16.375 253.4063,16.375 Q254.1094,16.375 254.75,16.5313 Q255.4063,16.6875 255.9688,16.9844 L255.9688,19.7031 Q255.3438,19.125 254.75,18.8594 Q254.1563,18.5781 253.5313,18.5781 Q252.1875,18.5781 251.5,19.6563 Q250.8125,20.7188 250.8125,22.8125 Q250.8125,24.9063 251.5,25.9844 Q252.1875,27.0469 253.5313,27.0469 Q254.1563,27.0469 254.75,26.7813 Q255.3438,26.5 255.9688,25.9219 L255.9688,28.6406 Z " fill="#000000"/><text fill="#000000" font-family="sans-serif" font-size="14" lengthAdjust="spacing" textLength="95" x="267" y="27.8467">MeasureData</text><line style="stroke:#181818;stroke-width:0.5;" x1="239" x2="364" y1="39" y2="39"/><text fill="#000000" font-family="sans-serif" font-size="14" lengthAdjust="spacing" textLength="63" x="244" y="55.9951">positions</text><text fill="#000000" font-family="sans-serif" font-size="14" lengthAdjust="spacing" textLength="46" x="244" y="72.292">values</text><line style="stroke:#181818;stroke-width:0.5;" x1="239" x2="364" y1="79.5938" y2="79.5938"/></g><!--class Axis--><g id="elem_Axis"><rect codeLine="8" fill="#F1F1F1" height="48" id="Axis" rx="2.5" ry="2.5" style="stroke:#181818;stroke-width:0.5;" width="61" x="216" y="148"/><ellipse cx="231" cy="164" fill="#ADD1B2" rx="11" ry="11" style="stroke:#181818;stroke-width:1.0;"/><path d="M233.9688,169.6406 Q233.3906,169.9375 232.75,170.0781 Q232.1094,170.2344 231.4063,170.2344 Q228.9063,170.2344 227.5781,168.5938 Q226.2656,166.9375 226.2656,163.8125 Q226.2656,160.6875 227.5781,159.0313 Q228.9063,157.375 231.4063,157.375 Q232.1094,157.375 232.75,157.5313 Q233.4063,157.6875 233.9688,157.9844 L233.9688,160.7031 Q233.3438,160.125 232.75,159.8594 Q232.1563,159.5781 231.5313,159.5781 Q230.1875,159.5781 229.5,160.6563 Q228.8125,161.7188 228.8125,163.8125 Q228.8125,165.9063 229.5,166.9844 Q230.1875,168.0469 231.5313,168.0469 Q232.1563,168.0469 232.75,167.7813 Q233.3438,167.5 233.9688,166.9219 L233.9688,169.6406 Z " fill="#000000"/><text fill="#000000" font-family="sans-serif" font-size="14" lengthAdjust="spacing" textLength="29" x="245" y="168.8467">Axis</text><line style="stroke:#181818;stroke-width:0.5;" x1="217" x2="276" y1="180" y2="180"/><line style="stroke:#181818;stroke-width:0.5;" x1="217" x2="276" y1="188" y2="188"/></g><!--class NonencodedAxis--><g id="elem_NonencodedAxis"><rect codeLine="10" fill="#F1F1F1" height="48" id="NonencodedAxis" rx="2.5" ry="2.5" style="stroke:#181818;stroke-width:0.5;" width="151" x="77" y="256"/><ellipse cx="92" cy="272" fill="#ADD1B2" rx="11" ry="11" style="stroke:#181818;stroke-width:1.0;"/><path d="M94.9688,277.6406 Q94.3906,277.9375 93.75,278.0781 Q93.1094,278.2344 92.4063,278.2344 Q89.9063,278.2344 88.5781,276.5938 Q87.2656,274.9375 87.2656,271.8125 Q87.2656,268.6875 88.5781,267.0313 Q89.9063,265.375 92.4063,265.375 Q93.1094,265.375 93.75,265.5313 Q94.4063,265.6875 94.9688,265.9844 L94.9688,268.7031 Q94.3438,268.125 93.75,267.8594 Q93.1563,267.5781 92.5313,267.5781 Q91.1875,267.5781 90.5,268.6563 Q89.8125,269.7188 89.8125,271.8125 Q89.8125,273.9063 90.5,274.9844 Q91.1875,276.0469 92.5313,276.0469 Q93.1563,276.0469 93.75,275.7813 Q94.3438,275.5 94.9688,274.9219 L94.9688,277.6406 Z " fill="#000000"/><text fill="#000000" font-family="sans-serif" font-size="14" lengthAdjust="spacing" textLength="119" x="106" y="276.8467">NonencodedAxis</text><line style="stroke:#181818;stroke-width:0.5;" x1="78" x2="227" y1="288" y2="288"/><line style="stroke:#181818;stroke-width:0.5;" x1="78" x2="227" y1="296" y2="296"/></g><!--class Channel--><g id="elem_Channel"><rect codeLine="12" fill="#F1F1F1" height="48" id="Channel" rx="2.5" ry="2.5" style="stroke:#181818;stroke-width:0.5;" width="91" x="337" y="148"/><ellipse cx="352" cy="164" fill="#ADD1B2" rx="11" ry="11" style="stroke:#181818;stroke-width:1.0;"/><path d="M354.9688,169.6406 Q354.3906,169.9375 353.75,170.0781 Q353.1094,170.2344 352.4063,170.2344 Q349.9063,170.2344 348.5781,168.5938 Q347.2656,166.9375 347.2656,163.8125 Q347.2656,160.6875 348.5781,159.0313 Q349.9063,157.375 352.4063,157.375 Q353.1094,157.375 353.75,157.5313 Q354.4063,157.6875 354.9688,157.9844 L354.9688,160.7031 Q354.3438,160.125 353.75,159.8594 Q353.1563,159.5781 352.5313,159.5781 Q351.1875,159.5781 350.5,160.6563 Q349.8125,161.7188 349.8125,163.8125 Q349.8125,165.9063 350.5,166.9844 Q351.1875,168.0469 352.5313,168.0469 Q353.1563,168.0469 353.75,167.7813 Q354.3438,167.5 354.9688,166.9219 L354.9688,169.6406 Z " fill="#000000"/><text fill="#000000" font-family="sans-serif" font-size="14" lengthAdjust="spacing" textLength="59" x="366" y="168.8467">Channel</text><line style="stroke:#181818;stroke-width:0.5;" x1="338" x2="427" y1="180" y2="180"/><line style="stroke:#181818;stroke-width:0.5;" x1="338" x2="427" y1="188" y2="188"/></g><!--class Point (0D)--><g id="elem_Point (0D)"><rect codeLine="14" fill="#F1F1F1" height="48" id="Point (0D)" rx="2.5" ry="2.5" style="stroke:#181818;stroke-width:0.5;" width="101" x="263" y="256"/><ellipse cx="278" cy="272" fill="#ADD1B2" rx="11" ry="11" style="stroke:#181818;stroke-width:1.0;"/><path d="M280.9688,277.6406 Q280.3906,277.9375 279.75,278.0781 Q279.1094,278.2344 278.4063,278.2344 Q275.9063,278.2344 274.5781,276.5938 Q273.2656,274.9375 273.2656,271.8125 Q273.2656,268.6875 274.5781,267.0313 Q275.9063,265.375 278.4063,265.375 Q279.1094,265.375 279.75,265.5313 Q280.4063,265.6875 280.9688,265.9844 L280.9688,268.7031 Q280.3438,268.125 279.75,267.8594 Q279.1563,267.5781 278.5313,267.5781 Q277.1875,267.5781 276.5,268.6563 Q275.8125,269.7188 275.8125,271.8125 Q275.8125,273.9063 276.5,274.9844 Q277.1875,276.0469 278.5313,276.0469 Q279.1563,276.0469 279.75,275.7813 Q280.3438,275.5 280.9688,274.9219 L280.9688,277.6406 Z " fill="#000000"/><text fill="#000000" font-family="sans-serif" font-size="14" lengthAdjust="spacing" textLength="69" x="292" y="276.8467">Point (0D)</text><line style="stroke:#181818;stroke-width:0.5;" x1="264" x2="363" y1="288" y2="288"/><line style="stroke:#181818;stroke-width:0.5;" x1="264" x2="363" y1="296" y2="296"/></g><!--class SinglePoint--><g id="elem_SinglePoint"><rect codeLine="16" fill="#F1F1F1" height="48" id="SinglePoint" rx="2.5" ry="2.5" style="stroke:#181818;stroke-width:0.5;" width="111" x="7" y="380.5"/><ellipse cx="22" cy="396.5" fill="#ADD1B2" rx="11" ry="11" style="stroke:#181818;stroke-width:1.0;"/><path d="M24.9688,402.1406 Q24.3906,402.4375 23.75,402.5781 Q23.1094,402.7344 22.4063,402.7344 Q19.9063,402.7344 18.5781,401.0938 Q17.2656,399.4375 17.2656,396.3125 Q17.2656,393.1875 18.5781,391.5313 Q19.9063,389.875 22.4063,389.875 Q23.1094,389.875 23.75,390.0313 Q24.4063,390.1875 24.9688,390.4844 L24.9688,393.2031 Q24.3438,392.625 23.75,392.3594 Q23.1563,392.0781 22.5313,392.0781 Q21.1875,392.0781 20.5,393.1563 Q19.8125,394.2188 19.8125,396.3125 Q19.8125,398.4063 20.5,399.4844 Q21.1875,400.5469 22.5313,400.5469 Q23.1563,400.5469 23.75,400.2813 Q24.3438,400 24.9688,399.4219 L24.9688,402.1406 Z " fill="#000000"/><text fill="#000000" font-family="sans-serif" font-size="14" lengthAdjust="spacing" textLength="79" x="36" y="401.3467">SinglePoint</text><line style="stroke:#181818;stroke-width:0.5;" x1="8" x2="117" y1="412.5" y2="412.5"/><line style="stroke:#181818;stroke-width:0.5;" x1="8" x2="117" y1="420.5" y2="420.5"/></g><!--class Average--><g id="elem_Average"><rect codeLine="18" fill="#F1F1F1" height="80.5938" id="Average" rx="2.5" ry="2.5" style="stroke:#181818;stroke-width:0.5;" width="92" x="153.5" y="364"/><ellipse cx="168.5" cy="380" fill="#ADD1B2" rx="11" ry="11" style="stroke:#181818;stroke-width:1.0;"/><path d="M171.4688,385.6406 Q170.8906,385.9375 170.25,386.0781 Q169.6094,386.2344 168.9063,386.2344 Q166.4063,386.2344 165.0781,384.5938 Q163.7656,382.9375 163.7656,379.8125 Q163.7656,376.6875 165.0781,375.0313 Q166.4063,373.375 168.9063,373.375 Q169.6094,373.375 170.25,373.5313 Q170.9063,373.6875 171.4688,373.9844 L171.4688,376.7031 Q170.8438,376.125 170.25,375.8594 Q169.6563,375.5781 169.0313,375.5781 Q167.6875,375.5781 167,376.6563 Q166.3125,377.7188 166.3125,379.8125 Q166.3125,381.9063 167,382.9844 Q167.6875,384.0469 169.0313,384.0469 Q169.6563,384.0469 170.25,383.7813 Q170.8438,383.5 171.4688,382.9219 L171.4688,385.6406 Z " fill="#000000"/><text fill="#000000" font-family="sans-serif" font-size="14" lengthAdjust="spacing" textLength="60" x="182.5" y="384.8467">Average</text><line style="stroke:#181818;stroke-width:0.5;" x1="154.5" x2="244.5" y1="396" y2="396"/><text fill="#000000" font-family="sans-serif" font-size="14" lengthAdjust="spacing" textLength="79" x="159.5" y="412.9951">raw_values</text><text fill="#000000" font-family="sans-serif" font-size="14" lengthAdjust="spacing" textLength="63" x="159.5" y="429.292">attempts</text><line style="stroke:#181818;stroke-width:0.5;" x1="154.5" x2="244.5" y1="436.5938" y2="436.5938"/></g><!--class Interval--><g id="elem_Interval"><rect codeLine="23" fill="#F1F1F1" height="80.5938" id="Interval" rx="2.5" ry="2.5" style="stroke:#181818;stroke-width:0.5;" width="91" x="281" y="364"/><ellipse cx="298.25" cy="380" fill="#ADD1B2" rx="11" ry="11" style="stroke:#181818;stroke-width:1.0;"/><path d="M301.2188,385.6406 Q300.6406,385.9375 300,386.0781 Q299.3594,386.2344 298.6563,386.2344 Q296.1563,386.2344 294.8281,384.5938 Q293.5156,382.9375 293.5156,379.8125 Q293.5156,376.6875 294.8281,375.0313 Q296.1563,373.375 298.6563,373.375 Q299.3594,373.375 300,373.5313 Q300.6563,373.6875 301.2188,373.9844 L301.2188,376.7031 Q300.5938,376.125 300,375.8594 Q299.4063,375.5781 298.7813,375.5781 Q297.4375,375.5781 296.75,376.6563 Q296.0625,377.7188 296.0625,379.8125 Q296.0625,381.9063 296.75,382.9844 Q297.4375,384.0469 298.7813,384.0469 Q299.4063,384.0469 300,383.7813 Q300.5938,383.5 301.2188,382.9219 L301.2188,385.6406 Z " fill="#000000"/><text fill="#000000" font-family="sans-serif" font-size="14" lengthAdjust="spacing" textLength="54" x="312.75" y="384.8467">Interval</text><line style="stroke:#181818;stroke-width:0.5;" x1="282" x2="371" y1="396" y2="396"/><text fill="#000000" font-family="sans-serif" font-size="14" lengthAdjust="spacing" textLength="79" x="287" y="412.9951">raw_values</text><text fill="#000000" font-family="sans-serif" font-size="14" lengthAdjust="spacing" textLength="47" x="287" y="429.292">counts</text><line style="stroke:#181818;stroke-width:0.5;" x1="282" x2="371" y1="436.5938" y2="436.5938"/></g><!--class Array (1D)--><g id="elem_Array (1D)"><rect codeLine="28" fill="#F1F1F1" height="48" id="Array (1D)" rx="2.5" ry="2.5" style="stroke:#181818;stroke-width:0.5;" width="105" x="399" y="256"/><ellipse cx="414" cy="272" fill="#ADD1B2" rx="11" ry="11" style="stroke:#181818;stroke-width:1.0;"/><path d="M416.9688,277.6406 Q416.3906,277.9375 415.75,278.0781 Q415.1094,278.2344 414.4063,278.2344 Q411.9063,278.2344 410.5781,276.5938 Q409.2656,274.9375 409.2656,271.8125 Q409.2656,268.6875 410.5781,267.0313 Q411.9063,265.375 414.4063,265.375 Q415.1094,265.375 415.75,265.5313 Q416.4063,265.6875 416.9688,265.9844 L416.9688,268.7031 Q416.3438,268.125 415.75,267.8594 Q415.1563,267.5781 414.5313,267.5781 Q413.1875,267.5781 412.5,268.6563 Q411.8125,269.7188 411.8125,271.8125 Q411.8125,273.9063 412.5,274.9844 Q413.1875,276.0469 414.5313,276.0469 Q415.1563,276.0469 415.75,275.7813 Q416.3438,275.5 416.9688,274.9219 L416.9688,277.6406 Z " fill="#000000"/><text fill="#000000" font-family="sans-serif" font-size="14" lengthAdjust="spacing" textLength="73" x="428" y="276.8467">Array (1D)</text><line style="stroke:#181818;stroke-width:0.5;" x1="400" x2="503" y1="288" y2="288"/><line style="stroke:#181818;stroke-width:0.5;" x1="400" x2="503" y1="296" y2="296"/></g><!--class MCA--><g id="elem_MCA"><rect codeLine="30" fill="#F1F1F1" height="48" id="MCA" rx="2.5" ry="2.5" style="stroke:#181818;stroke-width:0.5;" width="64" x="407.5" y="380.5"/><ellipse cx="422.5" cy="396.5" fill="#ADD1B2" rx="11" ry="11" style="stroke:#181818;stroke-width:1.0;"/><path d="M425.4688,402.1406 Q424.8906,402.4375 424.25,402.5781 Q423.6094,402.7344 422.9063,402.7344 Q420.4063,402.7344 419.0781,401.0938 Q417.7656,399.4375 417.7656,396.3125 Q417.7656,393.1875 419.0781,391.5313 Q420.4063,389.875 422.9063,389.875 Q423.6094,389.875 424.25,390.0313 Q424.9063,390.1875 425.4688,390.4844 L425.4688,393.2031 Q424.8438,392.625 424.25,392.3594 Q423.6563,392.0781 423.0313,392.0781 Q421.6875,392.0781 421,393.1563 Q420.3125,394.2188 420.3125,396.3125 Q420.3125,398.4063 421,399.4844 Q421.6875,400.5469 423.0313,400.5469 Q423.6563,400.5469 424.25,400.2813 Q424.8438,400 425.4688,399.4219 L425.4688,402.1406 Z " fill="#000000"/><text fill="#000000" font-family="sans-serif" font-size="14" lengthAdjust="spacing" textLength="32" x="436.5" y="401.3467">MCA</text><line style="stroke:#181818;stroke-width:0.5;" x1="408.5" x2="470.5" y1="412.5" y2="412.5"/><line style="stroke:#181818;stroke-width:0.5;" x1="408.5" x2="470.5" y1="420.5" y2="420.5"/></g><!--class Scope--><g id="elem_Scope"><rect codeLine="32" fill="#F1F1F1" height="48" id="Scope" rx="2.5" ry="2.5" style="stroke:#181818;stroke-width:0.5;" width="76" x="506.5" y="380.5"/><ellipse cx="521.5" cy="396.5" fill="#ADD1B2" rx="11" ry="11" style="stroke:#181818;stroke-width:1.0;"/><path d="M524.4688,402.1406 Q523.8906,402.4375 523.25,402.5781 Q522.6094,402.7344 521.9063,402.7344 Q519.4063,402.7344 518.0781,401.0938 Q516.7656,399.4375 516.7656,396.3125 Q516.7656,393.1875 518.0781,391.5313 Q519.4063,389.875 521.9063,389.875 Q522.6094,389.875 523.25,390.0313 Q523.9063,390.1875 524.4688,390.4844 L524.4688,393.2031 Q523.8438,392.625 523.25,392.3594 Q522.6563,392.0781 522.0313,392.0781 Q520.6875,392.0781 520,393.1563 Q519.3125,394.2188 519.3125,396.3125 Q519.3125,398.4063 520,399.4844 Q520.6875,400.5469 522.0313,400.5469 Q522.6563,400.5469 523.25,400.2813 Q523.8438,400 524.4688,399.4219 L524.4688,402.1406 Z " fill="#000000"/><text fill="#000000" font-family="sans-serif" font-size="14" lengthAdjust="spacing" textLength="44" x="535.5" y="401.3467">Scope</text><line style="stroke:#181818;stroke-width:0.5;" x1="507.5" x2="581.5" y1="412.5" y2="412.5"/><line style="stroke:#181818;stroke-width:0.5;" x1="507.5" x2="581.5" y1="420.5" y2="420.5"/></g><!--class Area (2D)--><g id="elem_Area (2D)"><rect codeLine="34" fill="#F1F1F1" height="48" id="Area (2D)" rx="2.5" ry="2.5" style="stroke:#181818;stroke-width:0.5;" width="100" x="644.5" y="256"/><ellipse cx="659.5" cy="272" fill="#ADD1B2" rx="11" ry="11" style="stroke:#181818;stroke-width:1.0;"/><path d="M662.4688,277.6406 Q661.8906,277.9375 661.25,278.0781 Q660.6094,278.2344 659.9063,278.2344 Q657.4063,278.2344 656.0781,276.5938 Q654.7656,274.9375 654.7656,271.8125 Q654.7656,268.6875 656.0781,267.0313 Q657.4063,265.375 659.9063,265.375 Q660.6094,265.375 661.25,265.5313 Q661.9063,265.6875 662.4688,265.9844 L662.4688,268.7031 Q661.8438,268.125 661.25,267.8594 Q660.6563,267.5781 660.0313,267.5781 Q658.6875,267.5781 658,268.6563 Q657.3125,269.7188 657.3125,271.8125 Q657.3125,273.9063 658,274.9844 Q658.6875,276.0469 660.0313,276.0469 Q660.6563,276.0469 661.25,275.7813 Q661.8438,275.5 662.4688,274.9219 L662.4688,277.6406 Z " fill="#000000"/><text fill="#000000" font-family="sans-serif" font-size="14" lengthAdjust="spacing" textLength="68" x="673.5" y="276.8467">Area (2D)</text><line style="stroke:#181818;stroke-width:0.5;" x1="645.5" x2="743.5" y1="288" y2="288"/><line style="stroke:#181818;stroke-width:0.5;" x1="645.5" x2="743.5" y1="296" y2="296"/></g><!--class ScientificCamera--><g id="elem_ScientificCamera"><rect codeLine="36" fill="#F1F1F1" height="48" id="ScientificCamera" rx="2.5" ry="2.5" style="stroke:#181818;stroke-width:0.5;" width="154" x="617.5" y="380.5"/><ellipse cx="632.5" cy="396.5" fill="#ADD1B2" rx="11" ry="11" style="stroke:#181818;stroke-width:1.0;"/><path d="M635.4688,402.1406 Q634.8906,402.4375 634.25,402.5781 Q633.6094,402.7344 632.9063,402.7344 Q630.4063,402.7344 629.0781,401.0938 Q627.7656,399.4375 627.7656,396.3125 Q627.7656,393.1875 629.0781,391.5313 Q630.4063,389.875 632.9063,389.875 Q633.6094,389.875 634.25,390.0313 Q634.9063,390.1875 635.4688,390.4844 L635.4688,393.2031 Q634.8438,392.625 634.25,392.3594 Q633.6563,392.0781 633.0313,392.0781 Q631.6875,392.0781 631,393.1563 Q630.3125,394.2188 630.3125,396.3125 Q630.3125,398.4063 631,399.4844 Q631.6875,400.5469 633.0313,400.5469 Q633.6563,400.5469 634.25,400.2813 Q634.8438,400 635.4688,399.4219 L635.4688,402.1406 Z " fill="#000000"/><text fill="#000000" font-family="sans-serif" font-size="14" lengthAdjust="spacing" textLength="122" x="646.5" y="401.3467">ScientificCamera</text><line style="stroke:#181818;stroke-width:0.5;" x1="618.5" x2="770.5" y1="412.5" y2="412.5"/><line style="stroke:#181818;stroke-width:0.5;" x1="618.5" x2="770.5" y1="420.5" y2="420.5"/></g><!--class SampleCamera--><g id="elem_SampleCamera"><rect codeLine="38" fill="#F1F1F1" height="48" id="SampleCamera" rx="2.5" ry="2.5" style="stroke:#181818;stroke-width:0.5;" width="143" x="807" y="380.5"/><ellipse cx="822" cy="396.5" fill="#ADD1B2" rx="11" ry="11" style="stroke:#181818;stroke-width:1.0;"/><path d="M824.9688,402.1406 Q824.3906,402.4375 823.75,402.5781 Q823.1094,402.7344 822.4063,402.7344 Q819.9063,402.7344 818.5781,401.0938 Q817.2656,399.4375 817.2656,396.3125 Q817.2656,393.1875 818.5781,391.5313 Q819.9063,389.875 822.4063,389.875 Q823.1094,389.875 823.75,390.0313 Q824.4063,390.1875 824.9688,390.4844 L824.9688,393.2031 Q824.3438,392.625 823.75,392.3594 Q823.1563,392.0781 822.5313,392.0781 Q821.1875,392.0781 820.5,393.1563 Q819.8125,394.2188 819.8125,396.3125 Q819.8125,398.4063 820.5,399.4844 Q821.1875,400.5469 822.5313,400.5469 Q823.1563,400.5469 823.75,400.2813 Q824.3438,400 824.9688,399.4219 L824.9688,402.1406 Z " fill="#000000"/><text fill="#000000" font-family="sans-serif" font-size="14" lengthAdjust="spacing" textLength="111" x="836" y="401.3467">SampleCamera</text><line style="stroke:#181818;stroke-width:0.5;" x1="808" x2="949" y1="412.5" y2="412.5"/><line style="stroke:#181818;stroke-width:0.5;" x1="808" x2="949" y1="420.5" y2="420.5"/></g><!--reverse link MeasureData to Axis--><g id="link_MeasureData_Axis"><path d="M276.2708,104.6924 C267.4308,124.3924 264.43,131.07 256.9,147.84 " fill="none" id="MeasureData-backto-Axis" style="stroke:#181818;stroke-width:1.0;"/><polygon fill="none" points="283.64,88.27,270.7966,102.236,281.7449,107.1488,283.64,88.27" style="stroke:#181818;stroke-width:1.0;"/></g><!--reverse link Axis to NonencodedAxis--><g id="link_Axis_NonencodedAxis"><path d="M214.1576,209.4677 C198.4976,227.1277 188.91,237.94 173.18,255.68 " fill="none" id="Axis-backto-NonencodedAxis" style="stroke:#181818;stroke-width:1.0;"/><polygon fill="none" points="226.1,196,209.6683,205.4868,218.6468,213.4485,226.1,196" style="stroke:#181818;stroke-width:1.0;"/></g><!--reverse link MeasureData to Channel--><g id="link_MeasureData_Channel"><path d="M337.73,103.2832 C350.76,122.9832 356.1,131.07 367.19,147.84 " fill="none" id="MeasureData-backto-Channel" style="stroke:#181818;stroke-width:1.0;"/><polygon fill="none" points="327.8,88.27,332.7256,106.5932,342.7344,99.9731,327.8,88.27" style="stroke:#181818;stroke-width:1.0;"/></g><!--reverse link Channel to Point (0D)--><g id="link_Channel_Point (0D)"><path d="M357.7076,211.0838 C346.2076,228.7438 340.23,237.94 328.68,255.68 " fill="none" id="Channel-backto-Point (0D)" style="stroke:#181818;stroke-width:1.0;"/><polygon fill="none" points="367.53,196,352.6797,207.8097,362.7355,214.3579,367.53,196" style="stroke:#181818;stroke-width:1.0;"/></g><!--reverse link Point (0D) to SinglePoint--><g id="link_Point (0D)_SinglePoint"><path d="M246.4689,311.0785 C210.6389,327.3385 177.99,342.62 135.5,364 C125.33,369.12 114.49,374.84 104.35,380.3 " fill="none" id="Point (0D)-backto-SinglePoint" style="stroke:#181818;stroke-width:1.0;"/><polygon fill="none" points="262.86,303.64,243.9894,305.6147,248.9483,316.5422,262.86,303.64" style="stroke:#181818;stroke-width:1.0;"/></g><!--reverse link Point (0D) to Average--><g id="link_Point (0D)_Average"><path d="M279.7959,317.2154 C264.1859,333.9854 254.92,343.95 236.55,363.69 " fill="none" id="Point (0D)-backto-Average" style="stroke:#181818;stroke-width:1.0;"/><polygon fill="none" points="292.06,304.04,275.4041,313.1274,284.1877,321.3035,292.06,304.04" style="stroke:#181818;stroke-width:1.0;"/></g><!--reverse link Point (0D) to Interval--><g id="link_Point (0D)_Interval"><path d="M317.8499,321.9395 C319.6299,338.7095 320.18,343.95 322.28,363.69 " fill="none" id="Point (0D)-backto-Interval" style="stroke:#181818;stroke-width:1.0;"/><polygon fill="none" points="315.95,304.04,311.8834,322.5727,323.8164,321.3062,315.95,304.04" style="stroke:#181818;stroke-width:1.0;"/></g><!--reverse link Channel to Array (1D)--><g id="link_Channel_Array (1D)"><path d="M407.2924,211.0838 C418.7924,228.7438 424.77,237.94 436.32,255.68 " fill="none" id="Channel-backto-Array (1D)" style="stroke:#181818;stroke-width:1.0;"/><polygon fill="none" points="397.47,196,402.2645,214.3579,412.3203,207.8097,397.47,196" style="stroke:#181818;stroke-width:1.0;"/></g><!--reverse link Array (1D) to MCA--><g id="link_Array (1D)_MCA"><path d="M447.4864,321.9544 C445.3564,343.7144 443.93,358.28 441.79,380.15 " fill="none" id="Array (1D)-backto-MCA" style="stroke:#181818;stroke-width:1.0;"/><polygon fill="none" points="449.24,304.04,441.515,321.3699,453.4579,322.5389,449.24,304.04" style="stroke:#181818;stroke-width:1.0;"/></g><!--reverse link Array (1D) to Scope--><g id="link_Array (1D)_Scope"><path d="M479.8741,318.3765 C496.3941,340.1365 510.17,358.28 526.77,380.15 " fill="none" id="Array (1D)-backto-Scope" style="stroke:#181818;stroke-width:1.0;"/><polygon fill="none" points="468.99,304.04,475.0953,322.0046,484.653,314.7485,468.99,304.04" style="stroke:#181818;stroke-width:1.0;"/></g><!--reverse link Channel to Area (2D)--><g id="link_Channel_Area (2D)"><path d="M445.2432,194.3205 C502.8732,213.9005 584.59,241.66 644.28,261.94 " fill="none" id="Channel-backto-Area (2D)" style="stroke:#181818;stroke-width:1.0;"/><polygon fill="none" points="428.2,188.53,443.313,200.0015,447.1734,188.6394,428.2,188.53" style="stroke:#181818;stroke-width:1.0;"/></g><!--reverse link Area (2D) to ScientificCamera--><g id="link_Area (2D)_ScientificCamera"><path d="M694.5,322.04 C694.5,343.8 694.5,358.28 694.5,380.15 " fill="none" id="Area (2D)-backto-ScientificCamera" style="stroke:#181818;stroke-width:1.0;"/><polygon fill="none" points="694.5,304.04,688.5,322.04,700.5,322.04,694.5,304.04" style="stroke:#181818;stroke-width:1.0;"/></g><!--reverse link Area (2D) to SampleCamera--><g id="link_Area (2D)_SampleCamera"><path d="M744.0932,314.0151 C776.8832,335.8451 810.89,358.49 843.73,380.35 " fill="none" id="Area (2D)-backto-SampleCamera" style="stroke:#181818;stroke-width:1.0;"/><polygon fill="none" points="729.11,304.04,740.7682,319.0095,747.4183,309.0207,729.11,304.04" style="stroke:#181818;stroke-width:1.0;"/></g><!--SRC=[bP3DRi8m48JlUGeh5z936-YnjoXSUW0XzG6gbRCDAzbhozu05Ugx4qBpGoL0zMsiRsOrCzkA-FYMvzu0IsFDYtOsrmPYVAu8wW0sIJgfLWYn2RW40NLCLFkyYoJaE7Pg1wR1cFpqV76WgF0WoDKVyu2i7IDhLs5r1NTYfCejCADva9Lk7B6eRBvyIWUqjuxO1t5jyCBsr9LrH8iT1gZn1jPr3h3__ErzbY22rijaX7SM32tnZn3j6fv6f4K8yAsonVrYgx8OZqmiGt7jFDubsZy4bRq-650Jij0NwH9iEz0qihSFB5Xly3Pt0W00]--></g></svg>