<?xml version="1.0" encoding="us-ascii" standalone="no"?><svg xmlns="http://www.w3.org/2000/svg" xmlns:xlink="http://www.w3.org/1999/xlink" contentStyleType="text/css" height="451px" preserveAspectRatio="none" style="width:888px;height:451px;background:#FFFFFF;" version="1.1" viewBox="0 0 888 451" width="888px" zoomAndPan="magnify"><defs/><g><!--class MeasureData--><g id="elem_MeasureData"><rect codeLine="3" fill="#F1F1F1" height="80.8125" id="MeasureData" rx="2.5" ry="2.5" style="stroke:#181818;stroke-width:0.5;" width="116" x="335" y="7"/><ellipse cx="350" cy="23" fill="#ADD1B2" rx="11" ry="11" style="stroke:#181818;stroke-width:1.0;"/><path d="M350.0469,29.2031 C351.5469,29.2031 352.7813,28.6406 353.6875,27.5781 L352.3125,26.0625 C351.7656,26.6563 351.1094,27.0469 350.3125,27.0469 C348.6406,27.0469 347.4844,25.7188 347.4844,23.4375 C347.4844,21.2188 348.6406,19.875 350.2031,19.875 C351.0156,19.875 351.6094,20.1875 352.1406,20.6719 L353.5156,19.125 C352.7656,18.3906 351.6094,17.7188 350.2031,17.7188 C347.25,17.7188 344.9219,19.8594 344.9219,23.5313 C344.9219,27.25 347.2969,29.2031 350.0469,29.2031 Z " fill="#000000"/><text fill="#000000" font-family="sans-serif" font-size="14" lengthAdjust="spacing" textLength="84" x="364" y="27.7852">MeasureData</text><line style="stroke:#181818;stroke-width:0.5;" x1="336" x2="450" y1="39" y2="39"/><text fill="#000000" font-family="sans-serif" font-size="14" lengthAdjust="spacing" textLength="57" x="341" y="55.9883">positions</text><text fill="#000000" font-family="sans-serif" font-size="14" lengthAdjust="spacing" textLength="40" x="341" y="72.3945">values</text><line style="stroke:#181818;stroke-width:0.5;" x1="336" x2="450" y1="79.8125" y2="79.8125"/></g><!--class Axis--><g id="elem_Axis"><rect codeLine="8" fill="#F1F1F1" height="48" id="Axis" rx="2.5" ry="2.5" style="stroke:#181818;stroke-width:0.5;" width="58" x="311" y="148"/><ellipse cx="326" cy="164" fill="#ADD1B2" rx="11" ry="11" style="stroke:#181818;stroke-width:1.0;"/><path d="M326.0469,170.2031 C327.5469,170.2031 328.7813,169.6406 329.6875,168.5781 L328.3125,167.0625 C327.7656,167.6563 327.1094,168.0469 326.3125,168.0469 C324.6406,168.0469 323.4844,166.7188 323.4844,164.4375 C323.4844,162.2188 324.6406,160.875 326.2031,160.875 C327.0156,160.875 327.6094,161.1875 328.1406,161.6719 L329.5156,160.125 C328.7656,159.3906 327.6094,158.7188 326.2031,158.7188 C323.25,158.7188 320.9219,160.8594 320.9219,164.5313 C320.9219,168.25 323.2969,170.2031 326.0469,170.2031 Z " fill="#000000"/><text fill="#000000" font-family="sans-serif" font-size="14" lengthAdjust="spacing" textLength="26" x="340" y="168.7852">Axis</text><line style="stroke:#181818;stroke-width:0.5;" x1="312" x2="368" y1="180" y2="180"/><line style="stroke:#181818;stroke-width:0.5;" x1="312" x2="368" y1="188" y2="188"/></g><!--class Channel--><g id="elem_Channel"><rect codeLine="10" fill="#F1F1F1" height="48" id="Channel" rx="2.5" ry="2.5" style="stroke:#181818;stroke-width:0.5;" width="83" x="404.5" y="148"/><ellipse cx="419.5" cy="164" fill="#ADD1B2" rx="11" ry="11" style="stroke:#181818;stroke-width:1.0;"/><path d="M419.5469,170.2031 C421.0469,170.2031 422.2813,169.6406 423.1875,168.5781 L421.8125,167.0625 C421.2656,167.6563 420.6094,168.0469 419.8125,168.0469 C418.1406,168.0469 416.9844,166.7188 416.9844,164.4375 C416.9844,162.2188 418.1406,160.875 419.7031,160.875 C420.5156,160.875 421.1094,161.1875 421.6406,161.6719 L423.0156,160.125 C422.2656,159.3906 421.1094,158.7188 419.7031,158.7188 C416.75,158.7188 414.4219,160.8594 414.4219,164.5313 C414.4219,168.25 416.7969,170.2031 419.5469,170.2031 Z " fill="#000000"/><text fill="#000000" font-family="sans-serif" font-size="14" lengthAdjust="spacing" textLength="51" x="433.5" y="168.7852">Channel</text><line style="stroke:#181818;stroke-width:0.5;" x1="405.5" x2="486.5" y1="180" y2="180"/><line style="stroke:#181818;stroke-width:0.5;" x1="405.5" x2="486.5" y1="188" y2="188"/></g><!--class Point (0D)--><g id="elem_Point (0D)"><rect codeLine="12" fill="#F1F1F1" height="48" id="Point (0D)" rx="2.5" ry="2.5" style="stroke:#181818;stroke-width:0.5;" width="95" x="220.5" y="256"/><ellipse cx="235.5" cy="272" fill="#ADD1B2" rx="11" ry="11" style="stroke:#181818;stroke-width:1.0;"/><path d="M235.5469,278.2031 C237.0469,278.2031 238.2813,277.6406 239.1875,276.5781 L237.8125,275.0625 C237.2656,275.6563 236.6094,276.0469 235.8125,276.0469 C234.1406,276.0469 232.9844,274.7188 232.9844,272.4375 C232.9844,270.2188 234.1406,268.875 235.7031,268.875 C236.5156,268.875 237.1094,269.1875 237.6406,269.6719 L239.0156,268.125 C238.2656,267.3906 237.1094,266.7188 235.7031,266.7188 C232.75,266.7188 230.4219,268.8594 230.4219,272.5313 C230.4219,276.25 232.7969,278.2031 235.5469,278.2031 Z " fill="#000000"/><text fill="#000000" font-family="sans-serif" font-size="14" lengthAdjust="spacing" textLength="63" x="249.5" y="276.7852">Point (0D)</text><line style="stroke:#181818;stroke-width:0.5;" x1="221.5" x2="314.5" y1="288" y2="288"/><line style="stroke:#181818;stroke-width:0.5;" x1="221.5" x2="314.5" y1="296" y2="296"/></g><!--class SinglePoint--><g id="elem_SinglePoint"><rect codeLine="14" fill="#F1F1F1" height="48" id="SinglePoint" rx="2.5" ry="2.5" style="stroke:#181818;stroke-width:0.5;" width="102" x="7" y="380.5"/><ellipse cx="22" cy="396.5" fill="#ADD1B2" rx="11" ry="11" style="stroke:#181818;stroke-width:1.0;"/><path d="M22.0469,402.7031 C23.5469,402.7031 24.7813,402.1406 25.6875,401.0781 L24.3125,399.5625 C23.7656,400.1563 23.1094,400.5469 22.3125,400.5469 C20.6406,400.5469 19.4844,399.2188 19.4844,396.9375 C19.4844,394.7188 20.6406,393.375 22.2031,393.375 C23.0156,393.375 23.6094,393.6875 24.1406,394.1719 L25.5156,392.625 C24.7656,391.8906 23.6094,391.2188 22.2031,391.2188 C19.25,391.2188 16.9219,393.3594 16.9219,397.0313 C16.9219,400.75 19.2969,402.7031 22.0469,402.7031 Z " fill="#000000"/><text fill="#000000" font-family="sans-serif" font-size="14" lengthAdjust="spacing" textLength="70" x="36" y="401.2852">SinglePoint</text><line style="stroke:#181818;stroke-width:0.5;" x1="8" x2="108" y1="412.5" y2="412.5"/><line style="stroke:#181818;stroke-width:0.5;" x1="8" x2="108" y1="420.5" y2="420.5"/></g><!--class Average--><g id="elem_Average"><rect codeLine="16" fill="#F1F1F1" height="80.8125" id="Average" rx="2.5" ry="2.5" style="stroke:#181818;stroke-width:0.5;" width="83" x="144.5" y="364"/><ellipse cx="159.5" cy="380" fill="#ADD1B2" rx="11" ry="11" style="stroke:#181818;stroke-width:1.0;"/><path d="M159.5469,386.2031 C161.0469,386.2031 162.2813,385.6406 163.1875,384.5781 L161.8125,383.0625 C161.2656,383.6563 160.6094,384.0469 159.8125,384.0469 C158.1406,384.0469 156.9844,382.7188 156.9844,380.4375 C156.9844,378.2188 158.1406,376.875 159.7031,376.875 C160.5156,376.875 161.1094,377.1875 161.6406,377.6719 L163.0156,376.125 C162.2656,375.3906 161.1094,374.7188 159.7031,374.7188 C156.75,374.7188 154.4219,376.8594 154.4219,380.5313 C154.4219,384.25 156.7969,386.2031 159.5469,386.2031 Z " fill="#000000"/><text fill="#000000" font-family="sans-serif" font-size="14" lengthAdjust="spacing" textLength="51" x="173.5" y="384.7852">Average</text><line style="stroke:#181818;stroke-width:0.5;" x1="145.5" x2="226.5" y1="396" y2="396"/><text fill="#000000" font-family="sans-serif" font-size="14" lengthAdjust="spacing" textLength="70" x="150.5" y="412.9883">raw_values</text><text fill="#000000" font-family="sans-serif" font-size="14" lengthAdjust="spacing" textLength="57" x="150.5" y="429.3945">attempts</text><line style="stroke:#181818;stroke-width:0.5;" x1="145.5" x2="226.5" y1="436.8125" y2="436.8125"/></g><!--class Interval--><g id="elem_Interval"><rect codeLine="21" fill="#F1F1F1" height="80.8125" id="Interval" rx="2.5" ry="2.5" style="stroke:#181818;stroke-width:0.5;" width="82" x="263" y="364"/><ellipse cx="279.35" cy="380" fill="#ADD1B2" rx="11" ry="11" style="stroke:#181818;stroke-width:1.0;"/><path d="M279.3969,386.2031 C280.8969,386.2031 282.1313,385.6406 283.0375,384.5781 L281.6625,383.0625 C281.1156,383.6563 280.4594,384.0469 279.6625,384.0469 C277.9906,384.0469 276.8344,382.7188 276.8344,380.4375 C276.8344,378.2188 277.9906,376.875 279.5531,376.875 C280.3656,376.875 280.9594,377.1875 281.4906,377.6719 L282.8656,376.125 C282.1156,375.3906 280.9594,374.7188 279.5531,374.7188 C276.6,374.7188 274.2719,376.8594 274.2719,380.5313 C274.2719,384.25 276.6469,386.2031 279.3969,386.2031 Z " fill="#000000"/><text fill="#000000" font-family="sans-serif" font-size="14" lengthAdjust="spacing" textLength="47" x="293.65" y="384.7852">Interval</text><line style="stroke:#181818;stroke-width:0.5;" x1="264" x2="344" y1="396" y2="396"/><text fill="#000000" font-family="sans-serif" font-size="14" lengthAdjust="spacing" textLength="70" x="269" y="412.9883">raw_values</text><text fill="#000000" font-family="sans-serif" font-size="14" lengthAdjust="spacing" textLength="43" x="269" y="429.3945">counts</text><line style="stroke:#181818;stroke-width:0.5;" x1="264" x2="344" y1="436.8125" y2="436.8125"/></g><!--class Array (1D)--><g id="elem_Array (1D)"><rect codeLine="26" fill="#F1F1F1" height="48" id="Array (1D)" rx="2.5" ry="2.5" style="stroke:#181818;stroke-width:0.5;" width="96" x="398" y="256"/><ellipse cx="413" cy="272" fill="#ADD1B2" rx="11" ry="11" style="stroke:#181818;stroke-width:1.0;"/><path d="M413.0469,278.2031 C414.5469,278.2031 415.7813,277.6406 416.6875,276.5781 L415.3125,275.0625 C414.7656,275.6563 414.1094,276.0469 413.3125,276.0469 C411.6406,276.0469 410.4844,274.7188 410.4844,272.4375 C410.4844,270.2188 411.6406,268.875 413.2031,268.875 C414.0156,268.875 414.6094,269.1875 415.1406,269.6719 L416.5156,268.125 C415.7656,267.3906 414.6094,266.7188 413.2031,266.7188 C410.25,266.7188 407.9219,268.8594 407.9219,272.5313 C407.9219,276.25 410.2969,278.2031 413.0469,278.2031 Z " fill="#000000"/><text fill="#000000" font-family="sans-serif" font-size="14" lengthAdjust="spacing" textLength="64" x="427" y="276.7852">Array (1D)</text><line style="stroke:#181818;stroke-width:0.5;" x1="399" x2="493" y1="288" y2="288"/><line style="stroke:#181818;stroke-width:0.5;" x1="399" x2="493" y1="296" y2="296"/></g><!--class MCA--><g id="elem_MCA"><rect codeLine="28" fill="#F1F1F1" height="48" id="MCA" rx="2.5" ry="2.5" style="stroke:#181818;stroke-width:0.5;" width="62" x="380" y="380.5"/><ellipse cx="395" cy="396.5" fill="#ADD1B2" rx="11" ry="11" style="stroke:#181818;stroke-width:1.0;"/><path d="M395.0469,402.7031 C396.5469,402.7031 397.7813,402.1406 398.6875,401.0781 L397.3125,399.5625 C396.7656,400.1563 396.1094,400.5469 395.3125,400.5469 C393.6406,400.5469 392.4844,399.2188 392.4844,396.9375 C392.4844,394.7188 393.6406,393.375 395.2031,393.375 C396.0156,393.375 396.6094,393.6875 397.1406,394.1719 L398.5156,392.625 C397.7656,391.8906 396.6094,391.2188 395.2031,391.2188 C392.25,391.2188 389.9219,393.3594 389.9219,397.0313 C389.9219,400.75 392.2969,402.7031 395.0469,402.7031 Z " fill="#000000"/><text fill="#000000" font-family="sans-serif" font-size="14" lengthAdjust="spacing" textLength="30" x="409" y="401.2852">MCA</text><line style="stroke:#181818;stroke-width:0.5;" x1="381" x2="441" y1="412.5" y2="412.5"/><line style="stroke:#181818;stroke-width:0.5;" x1="381" x2="441" y1="420.5" y2="420.5"/></g><!--class Scope--><g id="elem_Scope"><rect codeLine="30" fill="#F1F1F1" height="48" id="Scope" rx="2.5" ry="2.5" style="stroke:#181818;stroke-width:0.5;" width="70" x="477" y="380.5"/><ellipse cx="492" cy="396.5" fill="#ADD1B2" rx="11" ry="11" style="stroke:#181818;stroke-width:1.0;"/><path d="M492.0469,402.7031 C493.5469,402.7031 494.7813,402.1406 495.6875,401.0781 L494.3125,399.5625 C493.7656,400.1563 493.1094,400.5469 492.3125,400.5469 C490.6406,400.5469 489.4844,399.2188 489.4844,396.9375 C489.4844,394.7188 490.6406,393.375 492.2031,393.375 C493.0156,393.375 493.6094,393.6875 494.1406,394.1719 L495.5156,392.625 C494.7656,391.8906 493.6094,391.2188 492.2031,391.2188 C489.25,391.2188 486.9219,393.3594 486.9219,397.0313 C486.9219,400.75 489.2969,402.7031 492.0469,402.7031 Z " fill="#000000"/><text fill="#000000" font-family="sans-serif" font-size="14" lengthAdjust="spacing" textLength="38" x="506" y="401.2852">Scope</text><line style="stroke:#181818;stroke-width:0.5;" x1="478" x2="546" y1="412.5" y2="412.5"/><line style="stroke:#181818;stroke-width:0.5;" x1="478" x2="546" y1="420.5" y2="420.5"/></g><!--class Area (2D)--><g id="elem_Area (2D)"><rect codeLine="32" fill="#F1F1F1" height="48" id="Area (2D)" rx="2.5" ry="2.5" style="stroke:#181818;stroke-width:0.5;" width="91" x="605.5" y="256"/><ellipse cx="620.5" cy="272" fill="#ADD1B2" rx="11" ry="11" style="stroke:#181818;stroke-width:1.0;"/><path d="M620.5469,278.2031 C622.0469,278.2031 623.2813,277.6406 624.1875,276.5781 L622.8125,275.0625 C622.2656,275.6563 621.6094,276.0469 620.8125,276.0469 C619.1406,276.0469 617.9844,274.7188 617.9844,272.4375 C617.9844,270.2188 619.1406,268.875 620.7031,268.875 C621.5156,268.875 622.1094,269.1875 622.6406,269.6719 L624.0156,268.125 C623.2656,267.3906 622.1094,266.7188 620.7031,266.7188 C617.75,266.7188 615.4219,268.8594 615.4219,272.5313 C615.4219,276.25 617.7969,278.2031 620.5469,278.2031 Z " fill="#000000"/><text fill="#000000" font-family="sans-serif" font-size="14" lengthAdjust="spacing" textLength="59" x="634.5" y="276.7852">Area (2D)</text><line style="stroke:#181818;stroke-width:0.5;" x1="606.5" x2="695.5" y1="288" y2="288"/><line style="stroke:#181818;stroke-width:0.5;" x1="606.5" x2="695.5" y1="296" y2="296"/></g><!--class ScientificCamera--><g id="elem_ScientificCamera"><rect codeLine="34" fill="#F1F1F1" height="48" id="ScientificCamera" rx="2.5" ry="2.5" style="stroke:#181818;stroke-width:0.5;" width="137" x="582.5" y="380.5"/><ellipse cx="597.5" cy="396.5" fill="#ADD1B2" rx="11" ry="11" style="stroke:#181818;stroke-width:1.0;"/><path d="M597.5469,402.7031 C599.0469,402.7031 600.2813,402.1406 601.1875,401.0781 L599.8125,399.5625 C599.2656,400.1563 598.6094,400.5469 597.8125,400.5469 C596.1406,400.5469 594.9844,399.2188 594.9844,396.9375 C594.9844,394.7188 596.1406,393.375 597.7031,393.375 C598.5156,393.375 599.1094,393.6875 599.6406,394.1719 L601.0156,392.625 C600.2656,391.8906 599.1094,391.2188 597.7031,391.2188 C594.75,391.2188 592.4219,393.3594 592.4219,397.0313 C592.4219,400.75 594.7969,402.7031 597.5469,402.7031 Z " fill="#000000"/><text fill="#000000" font-family="sans-serif" font-size="14" lengthAdjust="spacing" textLength="105" x="611.5" y="401.2852">ScientificCamera</text><line style="stroke:#181818;stroke-width:0.5;" x1="583.5" x2="718.5" y1="412.5" y2="412.5"/><line style="stroke:#181818;stroke-width:0.5;" x1="583.5" x2="718.5" y1="420.5" y2="420.5"/></g><!--class SampleCamera--><g id="elem_SampleCamera"><rect codeLine="36" fill="#F1F1F1" height="48" id="SampleCamera" rx="2.5" ry="2.5" style="stroke:#181818;stroke-width:0.5;" width="127" x="754.5" y="380.5"/><ellipse cx="769.5" cy="396.5" fill="#ADD1B2" rx="11" ry="11" style="stroke:#181818;stroke-width:1.0;"/><path d="M769.5469,402.7031 C771.0469,402.7031 772.2813,402.1406 773.1875,401.0781 L771.8125,399.5625 C771.2656,400.1563 770.6094,400.5469 769.8125,400.5469 C768.1406,400.5469 766.9844,399.2188 766.9844,396.9375 C766.9844,394.7188 768.1406,393.375 769.7031,393.375 C770.5156,393.375 771.1094,393.6875 771.6406,394.1719 L773.0156,392.625 C772.2656,391.8906 771.1094,391.2188 769.7031,391.2188 C766.75,391.2188 764.4219,393.3594 764.4219,397.0313 C764.4219,400.75 766.7969,402.7031 769.5469,402.7031 Z " fill="#000000"/><text fill="#000000" font-family="sans-serif" font-size="14" lengthAdjust="spacing" textLength="95" x="783.5" y="401.2852">SampleCamera</text><line style="stroke:#181818;stroke-width:0.5;" x1="755.5" x2="880.5" y1="412.5" y2="412.5"/><line style="stroke:#181818;stroke-width:0.5;" x1="755.5" x2="880.5" y1="420.5" y2="420.5"/></g><!--reverse link MeasureData to Axis--><g id="link_MeasureData_Axis"><path d="M368.6448,104.7911 C360.1248,124.4911 357.28,131.07 350.02,147.84 " fill="none" id="MeasureData-backto-Axis" style="stroke:#181818;stroke-width:1.0;"/><polygon fill="none" points="375.79,88.27,363.1378,102.4094,374.1519,107.1728,375.79,88.27" style="stroke:#181818;stroke-width:1.0;"/></g><!--reverse link MeasureData to Channel--><g id="link_MeasureData_Channel"><path d="M417.3552,104.7911 C425.8752,124.4911 428.72,131.07 435.98,147.84 " fill="none" id="MeasureData-backto-Channel" style="stroke:#181818;stroke-width:1.0;"/><polygon fill="none" points="410.21,88.27,411.8481,107.1728,422.8622,102.4094,410.21,88.27" style="stroke:#181818;stroke-width:1.0;"/></g><!--reverse link Channel to Point (0D)--><g id="link_Channel_Point (0D)"><path d="M391.914,205.2089 C362.154,222.9289 336.67,238.11 306.85,255.86 " fill="none" id="Channel-backto-Point (0D)" style="stroke:#181818;stroke-width:1.0;"/><polygon fill="none" points="407.38,196,388.8444,200.0536,394.9837,210.3642,407.38,196" style="stroke:#181818;stroke-width:1.0;"/></g><!--reverse link Point (0D) to SinglePoint--><g id="link_Point (0D)_SinglePoint"><path d="M212.9512,313.1084 C175.5212,334.9384 135.16,358.49 97.68,380.35 " fill="none" id="Point (0D)-backto-SinglePoint" style="stroke:#181818;stroke-width:1.0;"/><polygon fill="none" points="228.5,304.04,209.9284,307.9255,215.974,318.2913,228.5,304.04" style="stroke:#181818;stroke-width:1.0;"/></g><!--reverse link Point (0D) to Average--><g id="link_Point (0D)_Average"><path d="M242.5645,318.9963 C231.3345,335.7663 225.86,343.95 212.65,363.69 " fill="none" id="Point (0D)-backto-Average" style="stroke:#181818;stroke-width:1.0;"/><polygon fill="none" points="252.58,304.04,237.5791,315.6578,247.55,322.3348,252.58,304.04" style="stroke:#181818;stroke-width:1.0;"/></g><!--reverse link Point (0D) to Interval--><g id="link_Point (0D)_Interval"><path d="M279.8468,321.3092 C284.7768,338.0792 286.5,343.95 292.3,363.69 " fill="none" id="Point (0D)-backto-Interval" style="stroke:#181818;stroke-width:1.0;"/><polygon fill="none" points="274.77,304.04,274.0904,323.0015,285.6032,319.617,274.77,304.04" style="stroke:#181818;stroke-width:1.0;"/></g><!--reverse link Channel to Array (1D)--><g id="link_Channel_Array (1D)"><path d="M446,214 C446,231.66 446,237.94 446,255.68 " fill="none" id="Channel-backto-Array (1D)" style="stroke:#181818;stroke-width:1.0;"/><polygon fill="none" points="446,196,440,214,452,214,446,196" style="stroke:#181818;stroke-width:1.0;"/></g><!--reverse link Array (1D) to MCA--><g id="link_Array (1D)_MCA"><path d="M434.4729,321.3468 C428.2529,343.1068 423.92,358.28 417.67,380.15 " fill="none" id="Array (1D)-backto-MCA" style="stroke:#181818;stroke-width:1.0;"/><polygon fill="none" points="439.42,304.04,428.704,319.6978,440.2419,322.9959,439.42,304.04" style="stroke:#181818;stroke-width:1.0;"/></g><!--reverse link Array (1D) to Scope--><g id="link_Array (1D)_Scope"><path d="M466.9512,319.8845 C478.6812,341.6445 487.64,358.28 499.42,380.15 " fill="none" id="Array (1D)-backto-Scope" style="stroke:#181818;stroke-width:1.0;"/><polygon fill="none" points="458.41,304.04,461.6697,322.7316,472.2327,317.0374,458.41,304.04" style="stroke:#181818;stroke-width:1.0;"/></g><!--reverse link Channel to Area (2D)--><g id="link_Channel_Area (2D)"><path d="M503.9705,202.9746 C538.4105,220.7746 571.06,237.66 606.24,255.85 " fill="none" id="Channel-backto-Area (2D)" style="stroke:#181818;stroke-width:1.0;"/><polygon fill="none" points="487.98,194.71,501.2157,208.3047,506.7254,197.6444,487.98,194.71" style="stroke:#181818;stroke-width:1.0;"/></g><!--reverse link Area (2D) to ScientificCamera--><g id="link_Area (2D)_ScientificCamera"><path d="M651,322.04 C651,343.8 651,358.28 651,380.15 " fill="none" id="Area (2D)-backto-ScientificCamera" style="stroke:#181818;stroke-width:1.0;"/><polygon fill="none" points="651,304.04,645,322.04,657,322.04,651,304.04" style="stroke:#181818;stroke-width:1.0;"/></g><!--reverse link Area (2D) to SampleCamera--><g id="link_Area (2D)_SampleCamera"><path d="M696.9239,314.6864 C726.6839,336.5164 756.64,358.49 786.45,380.35 " fill="none" id="Area (2D)-backto-SampleCamera" style="stroke:#181818;stroke-width:1.0;"/><polygon fill="none" points="682.41,304.04,693.3751,319.5244,700.4727,309.8485,682.41,304.04" style="stroke:#181818;stroke-width:1.0;"/></g><!--SRC=[bT3BRi8m40NGVRx2ogRfearXoIuAcowGAl41rSWCOIHxRDaJ7aByEo6G1vK0rRknpXth-cqZukCipxq1bjgQJ-rihWt4-B4Yg0BO96b7jK28TS0v2AXZefhZNIGXnx6Tjc1gZCcfyyMUeiAz8A_-X7jIRe0PpGkL_ZXYKTdN_3tjQHSTs9AuCdYrdRgB3hJOOe0A7x2sJO3TxwtHPGGHj5v6zRvPC3JY7qkqgtcy8Yr2W8FA9i-BBSfYU6GKwOjhv_6fQEuGL3PzyO6Qa8NMf4kmpGUDLtRnteBr1X-xCm00]--></g></svg>