<?xml version="1.0" encoding="us-ascii" standalone="no"?><svg xmlns="http://www.w3.org/2000/svg" xmlns:xlink="http://www.w3.org/1999/xlink" contentStyleType="text/css" height="451px" preserveAspectRatio="none" style="width:498px;height:451px;background:#FFFFFF;" version="1.1" viewBox="0 0 498 451" width="498px" zoomAndPan="magnify"><defs/><g><!--class MeasureData--><g id="elem_MeasureData"><rect codeLine="3" fill="#F1F1F1" height="80.8125" id="MeasureData" rx="2.5" ry="2.5" style="stroke:#181818;stroke-width:0.5;" width="116" x="206" y="7"/><ellipse cx="221" cy="23" fill="#ADD1B2" rx="11" ry="11" style="stroke:#181818;stroke-width:1.0;"/><path d="M221.0469,29.2031 C222.5469,29.2031 223.7813,28.6406 224.6875,27.5781 L223.3125,26.0625 C222.7656,26.6563 222.1094,27.0469 221.3125,27.0469 C219.6406,27.0469 218.4844,25.7188 218.4844,23.4375 C218.4844,21.2188 219.6406,19.875 221.2031,19.875 C222.0156,19.875 222.6094,20.1875 223.1406,20.6719 L224.5156,19.125 C223.7656,18.3906 222.6094,17.7188 221.2031,17.7188 C218.25,17.7188 215.9219,19.8594 215.9219,23.5313 C215.9219,27.25 218.2969,29.2031 221.0469,29.2031 Z " fill="#000000"/><text fill="#000000" font-family="sans-serif" font-size="14" lengthAdjust="spacing" textLength="84" x="235" y="27.7852">MeasureData</text><line style="stroke:#181818;stroke-width:0.5;" x1="207" x2="321" y1="39" y2="39"/><text fill="#000000" font-family="sans-serif" font-size="14" lengthAdjust="spacing" textLength="57" x="212" y="55.9883">positions</text><text fill="#000000" font-family="sans-serif" font-size="14" lengthAdjust="spacing" textLength="40" x="212" y="72.3945">values</text><line style="stroke:#181818;stroke-width:0.5;" x1="207" x2="321" y1="79.8125" y2="79.8125"/></g><!--class Axis--><g id="elem_Axis"><rect codeLine="8" fill="#F1F1F1" height="48" id="Axis" rx="2.5" ry="2.5" style="stroke:#181818;stroke-width:0.5;" width="58" x="182" y="148"/><ellipse cx="197" cy="164" fill="#ADD1B2" rx="11" ry="11" style="stroke:#181818;stroke-width:1.0;"/><path d="M197.0469,170.2031 C198.5469,170.2031 199.7813,169.6406 200.6875,168.5781 L199.3125,167.0625 C198.7656,167.6563 198.1094,168.0469 197.3125,168.0469 C195.6406,168.0469 194.4844,166.7188 194.4844,164.4375 C194.4844,162.2188 195.6406,160.875 197.2031,160.875 C198.0156,160.875 198.6094,161.1875 199.1406,161.6719 L200.5156,160.125 C199.7656,159.3906 198.6094,158.7188 197.2031,158.7188 C194.25,158.7188 191.9219,160.8594 191.9219,164.5313 C191.9219,168.25 194.2969,170.2031 197.0469,170.2031 Z " fill="#000000"/><text fill="#000000" font-family="sans-serif" font-size="14" lengthAdjust="spacing" textLength="26" x="211" y="168.7852">Axis</text><line style="stroke:#181818;stroke-width:0.5;" x1="183" x2="239" y1="180" y2="180"/><line style="stroke:#181818;stroke-width:0.5;" x1="183" x2="239" y1="188" y2="188"/></g><!--class Channel--><g id="elem_Channel"><rect codeLine="10" fill="#F1F1F1" height="48" id="Channel" rx="2.5" ry="2.5" style="stroke:#181818;stroke-width:0.5;" width="83" x="275.5" y="148"/><ellipse cx="290.5" cy="164" fill="#ADD1B2" rx="11" ry="11" style="stroke:#181818;stroke-width:1.0;"/><path d="M290.5469,170.2031 C292.0469,170.2031 293.2813,169.6406 294.1875,168.5781 L292.8125,167.0625 C292.2656,167.6563 291.6094,168.0469 290.8125,168.0469 C289.1406,168.0469 287.9844,166.7188 287.9844,164.4375 C287.9844,162.2188 289.1406,160.875 290.7031,160.875 C291.5156,160.875 292.1094,161.1875 292.6406,161.6719 L294.0156,160.125 C293.2656,159.3906 292.1094,158.7188 290.7031,158.7188 C287.75,158.7188 285.4219,160.8594 285.4219,164.5313 C285.4219,168.25 287.7969,170.2031 290.5469,170.2031 Z " fill="#000000"/><text fill="#000000" font-family="sans-serif" font-size="14" lengthAdjust="spacing" textLength="51" x="304.5" y="168.7852">Channel</text><line style="stroke:#181818;stroke-width:0.5;" x1="276.5" x2="357.5" y1="180" y2="180"/><line style="stroke:#181818;stroke-width:0.5;" x1="276.5" x2="357.5" y1="188" y2="188"/></g><!--class Point (0D)--><g id="elem_Point (0D)"><rect codeLine="12" fill="#F1F1F1" height="48" id="Point (0D)" rx="2.5" ry="2.5" style="stroke:#181818;stroke-width:0.5;" width="95" x="138.5" y="256"/><ellipse cx="153.5" cy="272" fill="#ADD1B2" rx="11" ry="11" style="stroke:#181818;stroke-width:1.0;"/><path d="M153.5469,278.2031 C155.0469,278.2031 156.2813,277.6406 157.1875,276.5781 L155.8125,275.0625 C155.2656,275.6563 154.6094,276.0469 153.8125,276.0469 C152.1406,276.0469 150.9844,274.7188 150.9844,272.4375 C150.9844,270.2188 152.1406,268.875 153.7031,268.875 C154.5156,268.875 155.1094,269.1875 155.6406,269.6719 L157.0156,268.125 C156.2656,267.3906 155.1094,266.7188 153.7031,266.7188 C150.75,266.7188 148.4219,268.8594 148.4219,272.5313 C148.4219,276.25 150.7969,278.2031 153.5469,278.2031 Z " fill="#000000"/><text fill="#000000" font-family="sans-serif" font-size="14" lengthAdjust="spacing" textLength="63" x="167.5" y="276.7852">Point (0D)</text><line style="stroke:#181818;stroke-width:0.5;" x1="139.5" x2="232.5" y1="288" y2="288"/><line style="stroke:#181818;stroke-width:0.5;" x1="139.5" x2="232.5" y1="296" y2="296"/></g><!--class SinglePoint--><g id="elem_SinglePoint"><rect codeLine="14" fill="#F1F1F1" height="48" id="SinglePoint" rx="2.5" ry="2.5" style="stroke:#181818;stroke-width:0.5;" width="102" x="7" y="380.5"/><ellipse cx="22" cy="396.5" fill="#ADD1B2" rx="11" ry="11" style="stroke:#181818;stroke-width:1.0;"/><path d="M22.0469,402.7031 C23.5469,402.7031 24.7813,402.1406 25.6875,401.0781 L24.3125,399.5625 C23.7656,400.1563 23.1094,400.5469 22.3125,400.5469 C20.6406,400.5469 19.4844,399.2188 19.4844,396.9375 C19.4844,394.7188 20.6406,393.375 22.2031,393.375 C23.0156,393.375 23.6094,393.6875 24.1406,394.1719 L25.5156,392.625 C24.7656,391.8906 23.6094,391.2188 22.2031,391.2188 C19.25,391.2188 16.9219,393.3594 16.9219,397.0313 C16.9219,400.75 19.2969,402.7031 22.0469,402.7031 Z " fill="#000000"/><text fill="#000000" font-family="sans-serif" font-size="14" lengthAdjust="spacing" textLength="70" x="36" y="401.2852">SinglePoint</text><line style="stroke:#181818;stroke-width:0.5;" x1="8" x2="108" y1="412.5" y2="412.5"/><line style="stroke:#181818;stroke-width:0.5;" x1="8" x2="108" y1="420.5" y2="420.5"/></g><!--class Average--><g id="elem_Average"><rect codeLine="16" fill="#F1F1F1" height="80.8125" id="Average" rx="2.5" ry="2.5" style="stroke:#181818;stroke-width:0.5;" width="83" x="144.5" y="364"/><ellipse cx="159.5" cy="380" fill="#ADD1B2" rx="11" ry="11" style="stroke:#181818;stroke-width:1.0;"/><path d="M159.5469,386.2031 C161.0469,386.2031 162.2813,385.6406 163.1875,384.5781 L161.8125,383.0625 C161.2656,383.6563 160.6094,384.0469 159.8125,384.0469 C158.1406,384.0469 156.9844,382.7188 156.9844,380.4375 C156.9844,378.2188 158.1406,376.875 159.7031,376.875 C160.5156,376.875 161.1094,377.1875 161.6406,377.6719 L163.0156,376.125 C162.2656,375.3906 161.1094,374.7188 159.7031,374.7188 C156.75,374.7188 154.4219,376.8594 154.4219,380.5313 C154.4219,384.25 156.7969,386.2031 159.5469,386.2031 Z " fill="#000000"/><text fill="#000000" font-family="sans-serif" font-size="14" lengthAdjust="spacing" textLength="51" x="173.5" y="384.7852">Average</text><line style="stroke:#181818;stroke-width:0.5;" x1="145.5" x2="226.5" y1="396" y2="396"/><text fill="#000000" font-family="sans-serif" font-size="14" lengthAdjust="spacing" textLength="70" x="150.5" y="412.9883">raw_values</text><text fill="#000000" font-family="sans-serif" font-size="14" lengthAdjust="spacing" textLength="57" x="150.5" y="429.3945">attempts</text><line style="stroke:#181818;stroke-width:0.5;" x1="145.5" x2="226.5" y1="436.8125" y2="436.8125"/></g><!--class Interval--><g id="elem_Interval"><rect codeLine="21" fill="#F1F1F1" height="80.8125" id="Interval" rx="2.5" ry="2.5" style="stroke:#181818;stroke-width:0.5;" width="82" x="263" y="364"/><ellipse cx="279.35" cy="380" fill="#ADD1B2" rx="11" ry="11" style="stroke:#181818;stroke-width:1.0;"/><path d="M279.3969,386.2031 C280.8969,386.2031 282.1313,385.6406 283.0375,384.5781 L281.6625,383.0625 C281.1156,383.6563 280.4594,384.0469 279.6625,384.0469 C277.9906,384.0469 276.8344,382.7188 276.8344,380.4375 C276.8344,378.2188 277.9906,376.875 279.5531,376.875 C280.3656,376.875 280.9594,377.1875 281.4906,377.6719 L282.8656,376.125 C282.1156,375.3906 280.9594,374.7188 279.5531,374.7188 C276.6,374.7188 274.2719,376.8594 274.2719,380.5313 C274.2719,384.25 276.6469,386.2031 279.3969,386.2031 Z " fill="#000000"/><text fill="#000000" font-family="sans-serif" font-size="14" lengthAdjust="spacing" textLength="47" x="293.65" y="384.7852">Interval</text><line style="stroke:#181818;stroke-width:0.5;" x1="264" x2="344" y1="396" y2="396"/><text fill="#000000" font-family="sans-serif" font-size="14" lengthAdjust="spacing" textLength="70" x="269" y="412.9883">raw_values</text><text fill="#000000" font-family="sans-serif" font-size="14" lengthAdjust="spacing" textLength="43" x="269" y="429.3945">counts</text><line style="stroke:#181818;stroke-width:0.5;" x1="264" x2="344" y1="436.8125" y2="436.8125"/></g><!--class Array (1D)--><g id="elem_Array (1D)"><rect codeLine="26" fill="#FFCCCC" height="48" id="Array (1D)" rx="2.5" ry="2.5" style="stroke:#181818;stroke-width:0.5;" width="96" x="269" y="256"/><ellipse cx="284" cy="272" fill="#ADD1B2" rx="11" ry="11" style="stroke:#181818;stroke-width:1.0;"/><path d="M284.0469,278.2031 C285.5469,278.2031 286.7813,277.6406 287.6875,276.5781 L286.3125,275.0625 C285.7656,275.6563 285.1094,276.0469 284.3125,276.0469 C282.6406,276.0469 281.4844,274.7188 281.4844,272.4375 C281.4844,270.2188 282.6406,268.875 284.2031,268.875 C285.0156,268.875 285.6094,269.1875 286.1406,269.6719 L287.5156,268.125 C286.7656,267.3906 285.6094,266.7188 284.2031,266.7188 C281.25,266.7188 278.9219,268.8594 278.9219,272.5313 C278.9219,276.25 281.2969,278.2031 284.0469,278.2031 Z " fill="#000000"/><text fill="#000000" font-family="sans-serif" font-size="14" lengthAdjust="spacing" textLength="64" x="298" y="276.7852">Array (1D)</text><line style="stroke:#181818;stroke-width:0.5;" x1="270" x2="364" y1="288" y2="288"/><line style="stroke:#181818;stroke-width:0.5;" x1="270" x2="364" y1="296" y2="296"/></g><!--class Area (2D)--><g id="elem_Area (2D)"><rect codeLine="28" fill="#FFCCCC" height="48" id="Area (2D)" rx="2.5" ry="2.5" style="stroke:#181818;stroke-width:0.5;" width="91" x="400.5" y="256"/><ellipse cx="415.5" cy="272" fill="#ADD1B2" rx="11" ry="11" style="stroke:#181818;stroke-width:1.0;"/><path d="M415.5469,278.2031 C417.0469,278.2031 418.2813,277.6406 419.1875,276.5781 L417.8125,275.0625 C417.2656,275.6563 416.6094,276.0469 415.8125,276.0469 C414.1406,276.0469 412.9844,274.7188 412.9844,272.4375 C412.9844,270.2188 414.1406,268.875 415.7031,268.875 C416.5156,268.875 417.1094,269.1875 417.6406,269.6719 L419.0156,268.125 C418.2656,267.3906 417.1094,266.7188 415.7031,266.7188 C412.75,266.7188 410.4219,268.8594 410.4219,272.5313 C410.4219,276.25 412.7969,278.2031 415.5469,278.2031 Z " fill="#000000"/><text fill="#000000" font-family="sans-serif" font-size="14" lengthAdjust="spacing" textLength="59" x="429.5" y="276.7852">Area (2D)</text><line style="stroke:#181818;stroke-width:0.5;" x1="401.5" x2="490.5" y1="288" y2="288"/><line style="stroke:#181818;stroke-width:0.5;" x1="401.5" x2="490.5" y1="296" y2="296"/></g><!--reverse link MeasureData to Axis--><g id="link_MeasureData_Axis"><path d="M239.6448,104.7911 C231.1248,124.4911 228.28,131.07 221.02,147.84 " fill="none" id="MeasureData-backto-Axis" style="stroke:#181818;stroke-width:1.0;"/><polygon fill="none" points="246.79,88.27,234.1378,102.4094,245.1519,107.1728,246.79,88.27" style="stroke:#181818;stroke-width:1.0;"/></g><!--reverse link MeasureData to Channel--><g id="link_MeasureData_Channel"><path d="M288.3552,104.7911 C296.8752,124.4911 299.72,131.07 306.98,147.84 " fill="none" id="MeasureData-backto-Channel" style="stroke:#181818;stroke-width:1.0;"/><polygon fill="none" points="281.21,88.27,282.8481,107.1728,293.8622,102.4094,281.21,88.27" style="stroke:#181818;stroke-width:1.0;"/></g><!--reverse link Channel to Point (0D)--><g id="link_Channel_Point (0D)"><path d="M274.5784,207.3241 C252.7584,224.9841 236.74,237.94 214.82,255.68 " fill="none" id="Channel-backto-Point (0D)" style="stroke:#181818;stroke-width:1.0;"/><polygon fill="none" points="288.57,196,270.8037,202.6602,278.3531,211.988,288.57,196" style="stroke:#181818;stroke-width:1.0;"/></g><!--reverse link Point (0D) to SinglePoint--><g id="link_Point (0D)_SinglePoint"><path d="M148.9149,316.4846 C126.1749,338.2446 105.25,358.28 82.4,380.15 " fill="none" id="Point (0D)-backto-SinglePoint" style="stroke:#181818;stroke-width:1.0;"/><polygon fill="none" points="161.92,304.04,144.7667,312.1496,153.0631,320.8196,161.92,304.04" style="stroke:#181818;stroke-width:1.0;"/></g><!--reverse link Point (0D) to Average--><g id="link_Point (0D)_Average"><path d="M186,322.04 C186,338.81 186,343.95 186,363.69 " fill="none" id="Point (0D)-backto-Average" style="stroke:#181818;stroke-width:1.0;"/><polygon fill="none" points="186,304.04,180,322.04,192,322.04,186,304.04" style="stroke:#181818;stroke-width:1.0;"/></g><!--reverse link Point (0D) to Interval--><g id="link_Point (0D)_Interval"><path d="M220.68,317.0015 C236.84,333.7715 246.64,343.95 265.65,363.69 " fill="none" id="Point (0D)-backto-Interval" style="stroke:#181818;stroke-width:1.0;"/><polygon fill="none" points="208.19,304.04,216.3595,321.1648,225.0005,312.8381,208.19,304.04" style="stroke:#181818;stroke-width:1.0;"/></g><!--reverse link Channel to Array (1D)--><g id="link_Channel_Array (1D)"><path d="M317,214 C317,231.66 317,237.94 317,255.68 " fill="none" id="Channel-backto-Array (1D)" style="stroke:#181818;stroke-width:1.0;"/><polygon fill="none" points="317,196,311,214,323,214,317,196" style="stroke:#181818;stroke-width:1.0;"/></g><!--reverse link Channel to Area (2D)--><g id="link_Channel_Area (2D)"><path d="M358.8967,207.4282 C380.3867,225.0882 396.03,237.94 417.62,255.68 " fill="none" id="Channel-backto-Area (2D)" style="stroke:#181818;stroke-width:1.0;"/><polygon fill="none" points="344.99,196,355.0873,212.0638,362.7061,202.7926,344.99,196" style="stroke:#181818;stroke-width:1.0;"/></g><!--SRC=[bS_F2e9040Rmkq-ns24xbDMncnH2Xo3e0MBGmHRMMTaTpOZUFRNyKr3Ht3xuVGFV-CISsPNlPmg8yrJD8ftwaG9hfx64n43gE4qKEmIR6zm0WxWwehfCMybIasrI0If7wznQ7vJI2YmPANuhTsHz0Y9KFvIxrv9OUFFDnEreM-tPGLAYy65RzLBjQL2WWGG_i6QDWVFnkQYEm8nfneDvMs8qbVZZIQHp6hvm0sFW8hn5tHY5uRgwBmChZY2yvNTz1m00]--></g></svg>