<?xml version="1.0" encoding="us-ascii" standalone="no"?><svg xmlns="http://www.w3.org/2000/svg" xmlns:xlink="http://www.w3.org/1999/xlink" contentStyleType="text/css" height="451px" preserveAspectRatio="none" style="width:888px;height:451px;background:#FFFFFF;" version="1.1" viewBox="0 0 888 451" width="888px" zoomAndPan="magnify"><defs/><g><!--class MeasureData--><g id="elem_MeasureData"><rect codeLine="3" fill="#F1F1F1" height="80.8125" id="MeasureData" rx="2.5" ry="2.5" style="stroke:#181818;stroke-width:0.5;" width="116" x="224" y="7"/><ellipse cx="239" cy="23" fill="#ADD1B2" rx="11" ry="11" style="stroke:#181818;stroke-width:1.0;"/><path d="M239.0469,29.2031 C240.5469,29.2031 241.7813,28.6406 242.6875,27.5781 L241.3125,26.0625 C240.7656,26.6563 240.1094,27.0469 239.3125,27.0469 C237.6406,27.0469 236.4844,25.7188 236.4844,23.4375 C236.4844,21.2188 237.6406,19.875 239.2031,19.875 C240.0156,19.875 240.6094,20.1875 241.1406,20.6719 L242.5156,19.125 C241.7656,18.3906 240.6094,17.7188 239.2031,17.7188 C236.25,17.7188 233.9219,19.8594 233.9219,23.5313 C233.9219,27.25 236.2969,29.2031 239.0469,29.2031 Z " fill="#000000"/><text fill="#000000" font-family="sans-serif" font-size="14" lengthAdjust="spacing" textLength="84" x="253" y="27.7852">MeasureData</text><line style="stroke:#181818;stroke-width:0.5;" x1="225" x2="339" y1="39" y2="39"/><text fill="#000000" font-family="sans-serif" font-size="14" lengthAdjust="spacing" textLength="57" x="230" y="55.9883">positions</text><text fill="#000000" font-family="sans-serif" font-size="14" lengthAdjust="spacing" textLength="40" x="230" y="72.3945">values</text><line style="stroke:#181818;stroke-width:0.5;" x1="225" x2="339" y1="79.8125" y2="79.8125"/></g><!--class Axis--><g id="elem_Axis"><rect codeLine="8" fill="#FFC0CB" height="48" id="Axis" rx="2.5" ry="2.5" style="stroke:#181818;stroke-width:0.5;" width="58" x="200" y="148"/><ellipse cx="215" cy="164" fill="#ADD1B2" rx="11" ry="11" style="stroke:#181818;stroke-width:1.0;"/><path d="M215.0469,170.2031 C216.5469,170.2031 217.7813,169.6406 218.6875,168.5781 L217.3125,167.0625 C216.7656,167.6563 216.1094,168.0469 215.3125,168.0469 C213.6406,168.0469 212.4844,166.7188 212.4844,164.4375 C212.4844,162.2188 213.6406,160.875 215.2031,160.875 C216.0156,160.875 216.6094,161.1875 217.1406,161.6719 L218.5156,160.125 C217.7656,159.3906 216.6094,158.7188 215.2031,158.7188 C212.25,158.7188 209.9219,160.8594 209.9219,164.5313 C209.9219,168.25 212.2969,170.2031 215.0469,170.2031 Z " fill="#000000"/><text fill="#000000" font-family="sans-serif" font-size="14" lengthAdjust="spacing" textLength="26" x="229" y="168.7852">Axis</text><line style="stroke:#181818;stroke-width:0.5;" x1="201" x2="257" y1="180" y2="180"/><line style="stroke:#181818;stroke-width:0.5;" x1="201" x2="257" y1="188" y2="188"/></g><!--class NonencodedAxis--><g id="elem_NonencodedAxis"><rect codeLine="10" fill="#FFC0CB" height="48" id="NonencodedAxis" rx="2.5" ry="2.5" style="stroke:#181818;stroke-width:0.5;" width="137" x="72.5" y="256"/><ellipse cx="87.5" cy="272" fill="#ADD1B2" rx="11" ry="11" style="stroke:#181818;stroke-width:1.0;"/><path d="M87.5469,278.2031 C89.0469,278.2031 90.2813,277.6406 91.1875,276.5781 L89.8125,275.0625 C89.2656,275.6563 88.6094,276.0469 87.8125,276.0469 C86.1406,276.0469 84.9844,274.7188 84.9844,272.4375 C84.9844,270.2188 86.1406,268.875 87.7031,268.875 C88.5156,268.875 89.1094,269.1875 89.6406,269.6719 L91.0156,268.125 C90.2656,267.3906 89.1094,266.7188 87.7031,266.7188 C84.75,266.7188 82.4219,268.8594 82.4219,272.5313 C82.4219,276.25 84.7969,278.2031 87.5469,278.2031 Z " fill="#000000"/><text fill="#000000" font-family="sans-serif" font-size="14" lengthAdjust="spacing" textLength="105" x="101.5" y="276.7852">NonencodedAxis</text><line style="stroke:#181818;stroke-width:0.5;" x1="73.5" x2="208.5" y1="288" y2="288"/><line style="stroke:#181818;stroke-width:0.5;" x1="73.5" x2="208.5" y1="296" y2="296"/></g><!--class Channel--><g id="elem_Channel"><rect codeLine="12" fill="#F1F1F1" height="48" id="Channel" rx="2.5" ry="2.5" style="stroke:#181818;stroke-width:0.5;" width="83" x="315.5" y="148"/><ellipse cx="330.5" cy="164" fill="#ADD1B2" rx="11" ry="11" style="stroke:#181818;stroke-width:1.0;"/><path d="M330.5469,170.2031 C332.0469,170.2031 333.2813,169.6406 334.1875,168.5781 L332.8125,167.0625 C332.2656,167.6563 331.6094,168.0469 330.8125,168.0469 C329.1406,168.0469 327.9844,166.7188 327.9844,164.4375 C327.9844,162.2188 329.1406,160.875 330.7031,160.875 C331.5156,160.875 332.1094,161.1875 332.6406,161.6719 L334.0156,160.125 C333.2656,159.3906 332.1094,158.7188 330.7031,158.7188 C327.75,158.7188 325.4219,160.8594 325.4219,164.5313 C325.4219,168.25 327.7969,170.2031 330.5469,170.2031 Z " fill="#000000"/><text fill="#000000" font-family="sans-serif" font-size="14" lengthAdjust="spacing" textLength="51" x="344.5" y="168.7852">Channel</text><line style="stroke:#181818;stroke-width:0.5;" x1="316.5" x2="397.5" y1="180" y2="180"/><line style="stroke:#181818;stroke-width:0.5;" x1="316.5" x2="397.5" y1="188" y2="188"/></g><!--class Point (0D)--><g id="elem_Point (0D)"><rect codeLine="14" fill="#F1F1F1" height="48" id="Point (0D)" rx="2.5" ry="2.5" style="stroke:#181818;stroke-width:0.5;" width="95" x="244.5" y="256"/><ellipse cx="259.5" cy="272" fill="#ADD1B2" rx="11" ry="11" style="stroke:#181818;stroke-width:1.0;"/><path d="M259.5469,278.2031 C261.0469,278.2031 262.2813,277.6406 263.1875,276.5781 L261.8125,275.0625 C261.2656,275.6563 260.6094,276.0469 259.8125,276.0469 C258.1406,276.0469 256.9844,274.7188 256.9844,272.4375 C256.9844,270.2188 258.1406,268.875 259.7031,268.875 C260.5156,268.875 261.1094,269.1875 261.6406,269.6719 L263.0156,268.125 C262.2656,267.3906 261.1094,266.7188 259.7031,266.7188 C256.75,266.7188 254.4219,268.8594 254.4219,272.5313 C254.4219,276.25 256.7969,278.2031 259.5469,278.2031 Z " fill="#000000"/><text fill="#000000" font-family="sans-serif" font-size="14" lengthAdjust="spacing" textLength="63" x="273.5" y="276.7852">Point (0D)</text><line style="stroke:#181818;stroke-width:0.5;" x1="245.5" x2="338.5" y1="288" y2="288"/><line style="stroke:#181818;stroke-width:0.5;" x1="245.5" x2="338.5" y1="296" y2="296"/></g><!--class SinglePoint--><g id="elem_SinglePoint"><rect codeLine="16" fill="#F1F1F1" height="48" id="SinglePoint" rx="2.5" ry="2.5" style="stroke:#181818;stroke-width:0.5;" width="102" x="7" y="380.5"/><ellipse cx="22" cy="396.5" fill="#ADD1B2" rx="11" ry="11" style="stroke:#181818;stroke-width:1.0;"/><path d="M22.0469,402.7031 C23.5469,402.7031 24.7813,402.1406 25.6875,401.0781 L24.3125,399.5625 C23.7656,400.1563 23.1094,400.5469 22.3125,400.5469 C20.6406,400.5469 19.4844,399.2188 19.4844,396.9375 C19.4844,394.7188 20.6406,393.375 22.2031,393.375 C23.0156,393.375 23.6094,393.6875 24.1406,394.1719 L25.5156,392.625 C24.7656,391.8906 23.6094,391.2188 22.2031,391.2188 C19.25,391.2188 16.9219,393.3594 16.9219,397.0313 C16.9219,400.75 19.2969,402.7031 22.0469,402.7031 Z " fill="#000000"/><text fill="#000000" font-family="sans-serif" font-size="14" lengthAdjust="spacing" textLength="70" x="36" y="401.2852">SinglePoint</text><line style="stroke:#181818;stroke-width:0.5;" x1="8" x2="108" y1="412.5" y2="412.5"/><line style="stroke:#181818;stroke-width:0.5;" x1="8" x2="108" y1="420.5" y2="420.5"/></g><!--class Average--><g id="elem_Average"><rect codeLine="18" fill="#F1F1F1" height="80.8125" id="Average" rx="2.5" ry="2.5" style="stroke:#181818;stroke-width:0.5;" width="83" x="144.5" y="364"/><ellipse cx="159.5" cy="380" fill="#ADD1B2" rx="11" ry="11" style="stroke:#181818;stroke-width:1.0;"/><path d="M159.5469,386.2031 C161.0469,386.2031 162.2813,385.6406 163.1875,384.5781 L161.8125,383.0625 C161.2656,383.6563 160.6094,384.0469 159.8125,384.0469 C158.1406,384.0469 156.9844,382.7188 156.9844,380.4375 C156.9844,378.2188 158.1406,376.875 159.7031,376.875 C160.5156,376.875 161.1094,377.1875 161.6406,377.6719 L163.0156,376.125 C162.2656,375.3906 161.1094,374.7188 159.7031,374.7188 C156.75,374.7188 154.4219,376.8594 154.4219,380.5313 C154.4219,384.25 156.7969,386.2031 159.5469,386.2031 Z " fill="#000000"/><text fill="#000000" font-family="sans-serif" font-size="14" lengthAdjust="spacing" textLength="51" x="173.5" y="384.7852">Average</text><line style="stroke:#181818;stroke-width:0.5;" x1="145.5" x2="226.5" y1="396" y2="396"/><text fill="#000000" font-family="sans-serif" font-size="14" lengthAdjust="spacing" textLength="70" x="150.5" y="412.9883">raw_values</text><text fill="#000000" font-family="sans-serif" font-size="14" lengthAdjust="spacing" textLength="57" x="150.5" y="429.3945">attempts</text><line style="stroke:#181818;stroke-width:0.5;" x1="145.5" x2="226.5" y1="436.8125" y2="436.8125"/></g><!--class Interval--><g id="elem_Interval"><rect codeLine="23" fill="#F1F1F1" height="80.8125" id="Interval" rx="2.5" ry="2.5" style="stroke:#181818;stroke-width:0.5;" width="82" x="263" y="364"/><ellipse cx="279.35" cy="380" fill="#ADD1B2" rx="11" ry="11" style="stroke:#181818;stroke-width:1.0;"/><path d="M279.3969,386.2031 C280.8969,386.2031 282.1313,385.6406 283.0375,384.5781 L281.6625,383.0625 C281.1156,383.6563 280.4594,384.0469 279.6625,384.0469 C277.9906,384.0469 276.8344,382.7188 276.8344,380.4375 C276.8344,378.2188 277.9906,376.875 279.5531,376.875 C280.3656,376.875 280.9594,377.1875 281.4906,377.6719 L282.8656,376.125 C282.1156,375.3906 280.9594,374.7188 279.5531,374.7188 C276.6,374.7188 274.2719,376.8594 274.2719,380.5313 C274.2719,384.25 276.6469,386.2031 279.3969,386.2031 Z " fill="#000000"/><text fill="#000000" font-family="sans-serif" font-size="14" lengthAdjust="spacing" textLength="47" x="293.65" y="384.7852">Interval</text><line style="stroke:#181818;stroke-width:0.5;" x1="264" x2="344" y1="396" y2="396"/><text fill="#000000" font-family="sans-serif" font-size="14" lengthAdjust="spacing" textLength="70" x="269" y="412.9883">raw_values</text><text fill="#000000" font-family="sans-serif" font-size="14" lengthAdjust="spacing" textLength="43" x="269" y="429.3945">counts</text><line style="stroke:#181818;stroke-width:0.5;" x1="264" x2="344" y1="436.8125" y2="436.8125"/></g><!--class Array (1D)--><g id="elem_Array (1D)"><rect codeLine="28" fill="#F1F1F1" height="48" id="Array (1D)" rx="2.5" ry="2.5" style="stroke:#181818;stroke-width:0.5;" width="96" x="375" y="256"/><ellipse cx="390" cy="272" fill="#ADD1B2" rx="11" ry="11" style="stroke:#181818;stroke-width:1.0;"/><path d="M390.0469,278.2031 C391.5469,278.2031 392.7813,277.6406 393.6875,276.5781 L392.3125,275.0625 C391.7656,275.6563 391.1094,276.0469 390.3125,276.0469 C388.6406,276.0469 387.4844,274.7188 387.4844,272.4375 C387.4844,270.2188 388.6406,268.875 390.2031,268.875 C391.0156,268.875 391.6094,269.1875 392.1406,269.6719 L393.5156,268.125 C392.7656,267.3906 391.6094,266.7188 390.2031,266.7188 C387.25,266.7188 384.9219,268.8594 384.9219,272.5313 C384.9219,276.25 387.2969,278.2031 390.0469,278.2031 Z " fill="#000000"/><text fill="#000000" font-family="sans-serif" font-size="14" lengthAdjust="spacing" textLength="64" x="404" y="276.7852">Array (1D)</text><line style="stroke:#181818;stroke-width:0.5;" x1="376" x2="470" y1="288" y2="288"/><line style="stroke:#181818;stroke-width:0.5;" x1="376" x2="470" y1="296" y2="296"/></g><!--class MCA--><g id="elem_MCA"><rect codeLine="30" fill="#F1F1F1" height="48" id="MCA" rx="2.5" ry="2.5" style="stroke:#181818;stroke-width:0.5;" width="62" x="380" y="380.5"/><ellipse cx="395" cy="396.5" fill="#ADD1B2" rx="11" ry="11" style="stroke:#181818;stroke-width:1.0;"/><path d="M395.0469,402.7031 C396.5469,402.7031 397.7813,402.1406 398.6875,401.0781 L397.3125,399.5625 C396.7656,400.1563 396.1094,400.5469 395.3125,400.5469 C393.6406,400.5469 392.4844,399.2188 392.4844,396.9375 C392.4844,394.7188 393.6406,393.375 395.2031,393.375 C396.0156,393.375 396.6094,393.6875 397.1406,394.1719 L398.5156,392.625 C397.7656,391.8906 396.6094,391.2188 395.2031,391.2188 C392.25,391.2188 389.9219,393.3594 389.9219,397.0313 C389.9219,400.75 392.2969,402.7031 395.0469,402.7031 Z " fill="#000000"/><text fill="#000000" font-family="sans-serif" font-size="14" lengthAdjust="spacing" textLength="30" x="409" y="401.2852">MCA</text><line style="stroke:#181818;stroke-width:0.5;" x1="381" x2="441" y1="412.5" y2="412.5"/><line style="stroke:#181818;stroke-width:0.5;" x1="381" x2="441" y1="420.5" y2="420.5"/></g><!--class Scope--><g id="elem_Scope"><rect codeLine="32" fill="#F1F1F1" height="48" id="Scope" rx="2.5" ry="2.5" style="stroke:#181818;stroke-width:0.5;" width="70" x="477" y="380.5"/><ellipse cx="492" cy="396.5" fill="#ADD1B2" rx="11" ry="11" style="stroke:#181818;stroke-width:1.0;"/><path d="M492.0469,402.7031 C493.5469,402.7031 494.7813,402.1406 495.6875,401.0781 L494.3125,399.5625 C493.7656,400.1563 493.1094,400.5469 492.3125,400.5469 C490.6406,400.5469 489.4844,399.2188 489.4844,396.9375 C489.4844,394.7188 490.6406,393.375 492.2031,393.375 C493.0156,393.375 493.6094,393.6875 494.1406,394.1719 L495.5156,392.625 C494.7656,391.8906 493.6094,391.2188 492.2031,391.2188 C489.25,391.2188 486.9219,393.3594 486.9219,397.0313 C486.9219,400.75 489.2969,402.7031 492.0469,402.7031 Z " fill="#000000"/><text fill="#000000" font-family="sans-serif" font-size="14" lengthAdjust="spacing" textLength="38" x="506" y="401.2852">Scope</text><line style="stroke:#181818;stroke-width:0.5;" x1="478" x2="546" y1="412.5" y2="412.5"/><line style="stroke:#181818;stroke-width:0.5;" x1="478" x2="546" y1="420.5" y2="420.5"/></g><!--class Area (2D)--><g id="elem_Area (2D)"><rect codeLine="34" fill="#F1F1F1" height="48" id="Area (2D)" rx="2.5" ry="2.5" style="stroke:#181818;stroke-width:0.5;" width="91" x="605.5" y="256"/><ellipse cx="620.5" cy="272" fill="#ADD1B2" rx="11" ry="11" style="stroke:#181818;stroke-width:1.0;"/><path d="M620.5469,278.2031 C622.0469,278.2031 623.2813,277.6406 624.1875,276.5781 L622.8125,275.0625 C622.2656,275.6563 621.6094,276.0469 620.8125,276.0469 C619.1406,276.0469 617.9844,274.7188 617.9844,272.4375 C617.9844,270.2188 619.1406,268.875 620.7031,268.875 C621.5156,268.875 622.1094,269.1875 622.6406,269.6719 L624.0156,268.125 C623.2656,267.3906 622.1094,266.7188 620.7031,266.7188 C617.75,266.7188 615.4219,268.8594 615.4219,272.5313 C615.4219,276.25 617.7969,278.2031 620.5469,278.2031 Z " fill="#000000"/><text fill="#000000" font-family="sans-serif" font-size="14" lengthAdjust="spacing" textLength="59" x="634.5" y="276.7852">Area (2D)</text><line style="stroke:#181818;stroke-width:0.5;" x1="606.5" x2="695.5" y1="288" y2="288"/><line style="stroke:#181818;stroke-width:0.5;" x1="606.5" x2="695.5" y1="296" y2="296"/></g><!--class ScientificCamera--><g id="elem_ScientificCamera"><rect codeLine="36" fill="#F1F1F1" height="48" id="ScientificCamera" rx="2.5" ry="2.5" style="stroke:#181818;stroke-width:0.5;" width="137" x="582.5" y="380.5"/><ellipse cx="597.5" cy="396.5" fill="#ADD1B2" rx="11" ry="11" style="stroke:#181818;stroke-width:1.0;"/><path d="M597.5469,402.7031 C599.0469,402.7031 600.2813,402.1406 601.1875,401.0781 L599.8125,399.5625 C599.2656,400.1563 598.6094,400.5469 597.8125,400.5469 C596.1406,400.5469 594.9844,399.2188 594.9844,396.9375 C594.9844,394.7188 596.1406,393.375 597.7031,393.375 C598.5156,393.375 599.1094,393.6875 599.6406,394.1719 L601.0156,392.625 C600.2656,391.8906 599.1094,391.2188 597.7031,391.2188 C594.75,391.2188 592.4219,393.3594 592.4219,397.0313 C592.4219,400.75 594.7969,402.7031 597.5469,402.7031 Z " fill="#000000"/><text fill="#000000" font-family="sans-serif" font-size="14" lengthAdjust="spacing" textLength="105" x="611.5" y="401.2852">ScientificCamera</text><line style="stroke:#181818;stroke-width:0.5;" x1="583.5" x2="718.5" y1="412.5" y2="412.5"/><line style="stroke:#181818;stroke-width:0.5;" x1="583.5" x2="718.5" y1="420.5" y2="420.5"/></g><!--class SampleCamera--><g id="elem_SampleCamera"><rect codeLine="38" fill="#F1F1F1" height="48" id="SampleCamera" rx="2.5" ry="2.5" style="stroke:#181818;stroke-width:0.5;" width="127" x="754.5" y="380.5"/><ellipse cx="769.5" cy="396.5" fill="#ADD1B2" rx="11" ry="11" style="stroke:#181818;stroke-width:1.0;"/><path d="M769.5469,402.7031 C771.0469,402.7031 772.2813,402.1406 773.1875,401.0781 L771.8125,399.5625 C771.2656,400.1563 770.6094,400.5469 769.8125,400.5469 C768.1406,400.5469 766.9844,399.2188 766.9844,396.9375 C766.9844,394.7188 768.1406,393.375 769.7031,393.375 C770.5156,393.375 771.1094,393.6875 771.6406,394.1719 L773.0156,392.625 C772.2656,391.8906 771.1094,391.2188 769.7031,391.2188 C766.75,391.2188 764.4219,393.3594 764.4219,397.0313 C764.4219,400.75 766.7969,402.7031 769.5469,402.7031 Z " fill="#000000"/><text fill="#000000" font-family="sans-serif" font-size="14" lengthAdjust="spacing" textLength="95" x="783.5" y="401.2852">SampleCamera</text><line style="stroke:#181818;stroke-width:0.5;" x1="755.5" x2="880.5" y1="412.5" y2="412.5"/><line style="stroke:#181818;stroke-width:0.5;" x1="755.5" x2="880.5" y1="420.5" y2="420.5"/></g><!--reverse link MeasureData to Axis--><g id="link_MeasureData_Axis"><path d="M257.6448,104.7911 C249.1248,124.4911 246.28,131.07 239.02,147.84 " fill="none" id="MeasureData-backto-Axis" style="stroke:#181818;stroke-width:1.0;"/><polygon fill="none" points="264.79,88.27,252.1378,102.4094,263.1519,107.1728,264.79,88.27" style="stroke:#181818;stroke-width:1.0;"/></g><!--reverse link Axis to NonencodedAxis--><g id="link_Axis_NonencodedAxis"><path d="M198.4129,209.8498 C183.7529,227.5098 175.09,237.94 160.36,255.68 " fill="none" id="Axis-backto-NonencodedAxis" style="stroke:#181818;stroke-width:1.0;"/><polygon fill="none" points="209.91,196,193.7963,206.0175,203.0295,213.6822,209.91,196" style="stroke:#181818;stroke-width:1.0;"/></g><!--reverse link MeasureData to Channel--><g id="link_MeasureData_Channel"><path d="M315.7481,103.6217 C327.8081,123.3217 332.55,131.07 342.82,147.84 " fill="none" id="MeasureData-backto-Channel" style="stroke:#181818;stroke-width:1.0;"/><polygon fill="none" points="306.35,88.27,310.6308,106.7544,320.8653,100.4891,306.35,88.27" style="stroke:#181818;stroke-width:1.0;"/></g><!--reverse link Channel to Point (0D)--><g id="link_Channel_Point (0D)"><path d="M333.49,211.3444 C322.66,229.0044 317.18,237.94 306.3,255.68 " fill="none" id="Channel-backto-Point (0D)" style="stroke:#181818;stroke-width:1.0;"/><polygon fill="none" points="342.9,196,328.3752,208.2078,338.6048,214.4811,342.9,196" style="stroke:#181818;stroke-width:1.0;"/></g><!--reverse link Point (0D) to SinglePoint--><g id="link_Point (0D)_SinglePoint"><path d="M228.1961,312.0605 C195.0561,328.3505 166.12,342.98 127,364 C117.39,369.16 107.15,374.9 97.57,380.36 " fill="none" id="Point (0D)-backto-SinglePoint" style="stroke:#181818;stroke-width:1.0;"/><polygon fill="none" points="244.35,304.12,225.5493,306.6758,230.8429,317.4451,244.35,304.12" style="stroke:#181818;stroke-width:1.0;"/></g><!--reverse link Point (0D) to Average--><g id="link_Point (0D)_Average"><path d="M260.2824,317.652 C245.7724,334.422 237.53,343.95 220.45,363.69 " fill="none" id="Point (0D)-backto-Average" style="stroke:#181818;stroke-width:1.0;"/><polygon fill="none" points="272.06,304.04,255.745,313.7262,264.8197,321.5779,272.06,304.04" style="stroke:#181818;stroke-width:1.0;"/></g><!--reverse link Point (0D) to Interval--><g id="link_Point (0D)_Interval"><path d="M296.0119,321.9545 C297.6519,338.7245 298.17,343.95 300.1,363.69 " fill="none" id="Point (0D)-backto-Interval" style="stroke:#181818;stroke-width:1.0;"/><polygon fill="none" points="294.26,304.04,290.0404,322.5385,301.9834,321.3706,294.26,304.04" style="stroke:#181818;stroke-width:1.0;"/></g><!--reverse link Channel to Array (1D)--><g id="link_Channel_Array (1D)"><path d="M380.8366,211.2785 C391.8366,228.9385 397.43,237.94 408.48,255.68 " fill="none" id="Channel-backto-Array (1D)" style="stroke:#181818;stroke-width:1.0;"/><polygon fill="none" points="371.32,196,375.7438,214.4507,385.9295,208.1063,371.32,196" style="stroke:#181818;stroke-width:1.0;"/></g><!--reverse link Array (1D) to MCA--><g id="link_Array (1D)_MCA"><path d="M418.9864,321.9544 C416.8564,343.7144 415.43,358.28 413.29,380.15 " fill="none" id="Array (1D)-backto-MCA" style="stroke:#181818;stroke-width:1.0;"/><polygon fill="none" points="420.74,304.04,413.015,321.3699,424.9579,322.5389,420.74,304.04" style="stroke:#181818;stroke-width:1.0;"/></g><!--reverse link Array (1D) to Scope--><g id="link_Array (1D)_Scope"><path d="M450.3203,318.6022 C466.1303,340.3622 479.15,358.28 495.03,380.15 " fill="none" id="Array (1D)-backto-Scope" style="stroke:#181818;stroke-width:1.0;"/><polygon fill="none" points="439.74,304.04,445.4663,322.1289,455.1744,315.0754,439.74,304.04" style="stroke:#181818;stroke-width:1.0;"/></g><!--reverse link Channel to Area (2D)--><g id="link_Channel_Area (2D)"><path d="M415.7429,194.1756 C470.4329,213.8956 548.99,242.22 605.47,262.58 " fill="none" id="Channel-backto-Area (2D)" style="stroke:#181818;stroke-width:1.0;"/><polygon fill="none" points="398.81,188.07,413.7076,199.8199,417.7781,188.5313,398.81,188.07" style="stroke:#181818;stroke-width:1.0;"/></g><!--reverse link Area (2D) to ScientificCamera--><g id="link_Area (2D)_ScientificCamera"><path d="M651,322.04 C651,343.8 651,358.28 651,380.15 " fill="none" id="Area (2D)-backto-ScientificCamera" style="stroke:#181818;stroke-width:1.0;"/><polygon fill="none" points="651,304.04,645,322.04,657,322.04,651,304.04" style="stroke:#181818;stroke-width:1.0;"/></g><!--reverse link Area (2D) to SampleCamera--><g id="link_Area (2D)_SampleCamera"><path d="M696.9239,314.6864 C726.6839,336.5164 756.64,358.49 786.45,380.35 " fill="none" id="Area (2D)-backto-SampleCamera" style="stroke:#181818;stroke-width:1.0;"/><polygon fill="none" points="682.41,304.04,693.3751,319.5244,700.4727,309.8485,682.41,304.04" style="stroke:#181818;stroke-width:1.0;"/></g><!--SRC=[bP3DJiCm48JlUGeh70W72EsHMvHUE1HLuW7GobdI5VRQiZUb5UBTcwRD3uYsmhTPVJFMpErQnCUdFFS6M1fh7hIpkJOGutr5K0UmIT99jKI8JS052AYlHBNFkqX2ZcEdDc0QZCbtpnTRYkh64tyet0fozIjY05yS8sjNOVM7fJkDRBa6PZHN4jEL8nQLFIxkqW7jhIFsIbmRFB8zzSCweiK60zHu1klw1_XyEsrma222rijaa6SM32tnZn3j6fv6f4K8i5FPx7AnPLcCdqmiGt7jF5uasXk2okPN1jI4BFHEkWJR3ZIDxEq32zORFC_j0G00]--></g></svg>