<?xml version="1.0" encoding="us-ascii" standalone="no"?><svg xmlns="http://www.w3.org/2000/svg" xmlns:xlink="http://www.w3.org/1999/xlink" contentStyleType="text/css" height="688.2px" preserveAspectRatio="none" style="width:490px;height:688px;background:#FFFFFF;" version="1.1" viewBox="0 0 490 688" width="490.8px" zoomAndPan="magnify"><defs/><g><!--class Data--><g id="elem_Data"><rect codeLine="3" fill="#F1F1F1" height="78.0188" id="Data" rx="1.5" ry="1.5" style="stroke:#181818;stroke-width:0.3;" width="98.4" x="146.7" y="4.2"/><ellipse cx="184.35" cy="13.8" fill="#ADD1B2" rx="6.6" ry="6.6" style="stroke:#181818;stroke-width:0.6;"/><path d="M184.3781,17.5219 C185.2781,17.5219 186.0187,17.1844 186.5625,16.5469 L185.7375,15.6375 C185.4094,15.9937 185.0156,16.2281 184.5375,16.2281 C183.5344,16.2281 182.8406,15.4312 182.8406,14.0625 C182.8406,12.7313 183.5344,11.925 184.4719,11.925 C184.9594,11.925 185.3156,12.1125 185.6344,12.4031 L186.4594,11.475 C186.0094,11.0344 185.3156,10.6313 184.4719,10.6313 C182.7,10.6313 181.3031,11.9156 181.3031,14.1188 C181.3031,16.35 182.7281,17.5219 184.3781,17.5219 Z " fill="#000000"/><text fill="#000000" font-family="sans-serif" font-size="8.4" lengthAdjust="spacing" textLength="18" x="196.65" y="16.6711">Data</text><line style="stroke:#181818;stroke-width:0.3;" x1="147.3" x2="244.5" y1="23.4" y2="23.4"/><text fill="#000000" font-family="sans-serif" font-size="8.4" lengthAdjust="spacing" textLength="78.6" x="150.3" y="33.593">metadata : Metadata</text><text fill="#000000" font-family="sans-serif" font-size="8.4" lengthAdjust="spacing" textLength="47.4" x="150.3" y="43.4367">options : dict</text><text fill="#000000" font-family="sans-serif" font-size="8.4" lengthAdjust="spacing" textLength="67.8" x="150.3" y="53.2805">_data : np.ndarray</text><text fill="#000000" font-family="sans-serif" font-size="8.4" lengthAdjust="spacing" textLength="91.2" x="150.3" y="63.1242">_importer : DataImporter</text><line style="stroke:#181818;stroke-width:0.3;" x1="147.3" x2="244.5" y1="67.575" y2="67.575"/><text fill="#000000" font-family="sans-serif" font-size="8.4" lengthAdjust="spacing" textLength="23.4" x="150.3" y="77.768">data()</text></g><!--class Metadata--><g id="elem_Metadata"><rect codeLine="83" fill="#F1F1F1" height="48.4875" id="Metadata" rx="1.5" ry="1.5" style="stroke:#181818;stroke-width:0.3;" width="55.8" x="274.2" y="18.9"/><ellipse cx="283.2" cy="28.5" fill="#ADD1B2" rx="6.6" ry="6.6" style="stroke:#181818;stroke-width:0.6;"/><path d="M283.2281,32.2219 C284.1281,32.2219 284.8688,31.8844 285.4125,31.2469 L284.5875,30.3375 C284.2594,30.6937 283.8656,30.9281 283.3875,30.9281 C282.3844,30.9281 281.6906,30.1312 281.6906,28.7625 C281.6906,27.4313 282.3844,26.625 283.3219,26.625 C283.8094,26.625 284.1656,26.8125 284.4844,27.1031 L285.3094,26.175 C284.8594,25.7344 284.1656,25.3313 283.3219,25.3313 C281.55,25.3313 280.1531,26.6156 280.1531,28.8187 C280.1531,31.05 281.5781,32.2219 283.2281,32.2219 Z " fill="#000000"/><text fill="#000000" font-family="sans-serif" font-size="8.4" lengthAdjust="spacing" textLength="36.6" x="291.6" y="31.3711">Metadata</text><line style="stroke:#181818;stroke-width:0.3;" x1="274.8" x2="329.4" y1="38.1" y2="38.1"/><text fill="#000000" font-family="sans-serif" font-size="8.4" lengthAdjust="spacing" textLength="48" x="277.8" y="48.293">name : string</text><text fill="#000000" font-family="sans-serif" font-size="8.4" lengthAdjust="spacing" textLength="47.4" x="277.8" y="58.1367">options : dict</text><line style="stroke:#181818;stroke-width:0.3;" x1="274.8" x2="329.4" y1="62.5875" y2="62.5875"/></g><!--class MeasureData--><g id="elem_MeasureData"><rect codeLine="13" fill="#F1F1F1" height="38.6438" id="MeasureData" rx="1.5" ry="1.5" style="stroke:#181818;stroke-width:0.3;" width="129.6" x="115.5" y="128.1"/><ellipse cx="152.55" cy="137.7" fill="#ADD1B2" rx="6.6" ry="6.6" style="stroke:#181818;stroke-width:0.6;"/><path d="M152.5781,141.4219 C153.4781,141.4219 154.2188,141.0844 154.7625,140.4469 L153.9375,139.5375 C153.6094,139.8937 153.2156,140.1281 152.7375,140.1281 C151.7344,140.1281 151.0406,139.3312 151.0406,137.9625 C151.0406,136.6313 151.7344,135.825 152.6719,135.825 C153.1594,135.825 153.5156,136.0125 153.8344,136.3031 L154.6594,135.375 C154.2094,134.9344 153.5156,134.5313 152.6719,134.5313 C150.9,134.5313 149.5031,135.8156 149.5031,138.0187 C149.5031,140.25 150.9281,141.4219 152.5781,141.4219 Z " fill="#000000"/><text fill="#000000" font-family="sans-serif" font-size="8.4" lengthAdjust="spacing" textLength="50.4" x="164.85" y="140.5711">MeasureData</text><line style="stroke:#181818;stroke-width:0.3;" x1="116.1" x2="244.5" y1="147.3" y2="147.3"/><text fill="#000000" font-family="sans-serif" font-size="8.4" lengthAdjust="spacing" textLength="122.4" x="119.1" y="157.493">positions : np.ndarray(dtype=int)</text><line style="stroke:#181818;stroke-width:0.3;" x1="116.1" x2="244.5" y1="161.9438" y2="161.9438"/></g><!--class MeasureMetadata--><g id="elem_MeasureMetadata"><rect codeLine="88" fill="#F1F1F1" height="38.6438" id="MeasureMetadata" rx="1.5" ry="1.5" style="stroke:#181818;stroke-width:0.3;" width="88.2" x="266.4" y="128.1"/><ellipse cx="275.4" cy="137.7" fill="#ADD1B2" rx="6.6" ry="6.6" style="stroke:#181818;stroke-width:0.6;"/><path d="M275.4281,141.4219 C276.3281,141.4219 277.0687,141.0844 277.6125,140.4469 L276.7875,139.5375 C276.4594,139.8937 276.0656,140.1281 275.5875,140.1281 C274.5844,140.1281 273.8906,139.3312 273.8906,137.9625 C273.8906,136.6313 274.5844,135.825 275.5219,135.825 C276.0094,135.825 276.3656,136.0125 276.6844,136.3031 L277.5094,135.375 C277.0594,134.9344 276.3656,134.5313 275.5219,134.5313 C273.75,134.5313 272.3531,135.8156 272.3531,138.0187 C272.3531,140.25 273.7781,141.4219 275.4281,141.4219 Z " fill="#000000"/><text fill="#000000" font-family="sans-serif" font-size="8.4" lengthAdjust="spacing" textLength="69" x="283.8" y="140.5711">MeasureMetadata</text><line style="stroke:#181818;stroke-width:0.3;" x1="267" x2="354" y1="147.3" y2="147.3"/><text fill="#000000" font-family="sans-serif" font-size="8.4" lengthAdjust="spacing" textLength="41.4" x="270" y="157.493">unit : string</text><line style="stroke:#181818;stroke-width:0.3;" x1="267" x2="354" y1="161.9438" y2="161.9438"/></g><!--class ChannelData--><g id="elem_ChannelData"><rect codeLine="19" fill="#F1F1F1" height="28.8" id="ChannelData" rx="1.5" ry="1.5" style="stroke:#181818;stroke-width:0.3;" width="67.8" x="238.2" y="212.4"/><ellipse cx="247.2" cy="222" fill="#ADD1B2" rx="6.6" ry="6.6" style="stroke:#181818;stroke-width:0.6;"/><path d="M247.2281,225.7219 C248.1281,225.7219 248.8687,225.3844 249.4125,224.7469 L248.5875,223.8375 C248.2594,224.1938 247.8656,224.4281 247.3875,224.4281 C246.3844,224.4281 245.6906,223.6313 245.6906,222.2625 C245.6906,220.9313 246.3844,220.125 247.3219,220.125 C247.8094,220.125 248.1656,220.3125 248.4844,220.6031 L249.3094,219.675 C248.8594,219.2344 248.1656,218.8312 247.3219,218.8312 C245.55,218.8312 244.1531,220.1156 244.1531,222.3188 C244.1531,224.55 245.5781,225.7219 247.2281,225.7219 Z " fill="#000000"/><text fill="#000000" font-family="sans-serif" font-size="8.4" lengthAdjust="spacing" textLength="48.6" x="255.6" y="224.8711">ChannelData</text><line style="stroke:#181818;stroke-width:0.3;" x1="238.8" x2="305.4" y1="231.6" y2="231.6"/><line style="stroke:#181818;stroke-width:0.3;" x1="238.8" x2="305.4" y1="236.4" y2="236.4"/></g><!--class ChannelMetadata--><g id="elem_ChannelMetadata"><rect codeLine="100" fill="#F1F1F1" height="28.8" id="ChannelMetadata" rx="1.5" ry="1.5" style="stroke:#181818;stroke-width:0.3;" width="86.4" x="335.7" y="212.4"/><ellipse cx="344.7" cy="222" fill="#ADD1B2" rx="6.6" ry="6.6" style="stroke:#181818;stroke-width:0.6;"/><path d="M344.7281,225.7219 C345.6281,225.7219 346.3688,225.3844 346.9125,224.7469 L346.0875,223.8375 C345.7594,224.1938 345.3656,224.4281 344.8875,224.4281 C343.8844,224.4281 343.1906,223.6313 343.1906,222.2625 C343.1906,220.9313 343.8844,220.125 344.8219,220.125 C345.3094,220.125 345.6656,220.3125 345.9844,220.6031 L346.8094,219.675 C346.3594,219.2344 345.6656,218.8312 344.8219,218.8312 C343.05,218.8312 341.6531,220.1156 341.6531,222.3188 C341.6531,224.55 343.0781,225.7219 344.7281,225.7219 Z " fill="#000000"/><text fill="#000000" font-family="sans-serif" font-size="8.4" lengthAdjust="spacing" textLength="67.2" x="353.1" y="224.8711">ChannelMetadata</text><line style="stroke:#181818;stroke-width:0.3;" x1="336.3" x2="421.5" y1="231.6" y2="231.6"/><line style="stroke:#181818;stroke-width:0.3;" x1="336.3" x2="421.5" y1="236.4" y2="236.4"/></g><!--class AreaChannelData--><g id="elem_AreaChannelData"><rect codeLine="23" fill="#F1F1F1" height="28.8" id="AreaChannelData" rx="1.5" ry="1.5" style="stroke:#181818;stroke-width:0.3;" width="85.2" x="229.5" y="277.2"/><ellipse cx="238.5" cy="286.8" fill="#ADD1B2" rx="6.6" ry="6.6" style="stroke:#181818;stroke-width:0.6;"/><path d="M238.5281,290.5219 C239.4281,290.5219 240.1688,290.1844 240.7125,289.5469 L239.8875,288.6375 C239.5594,288.9938 239.1656,289.2281 238.6875,289.2281 C237.6844,289.2281 236.9906,288.4313 236.9906,287.0625 C236.9906,285.7313 237.6844,284.925 238.6219,284.925 C239.1094,284.925 239.4656,285.1125 239.7844,285.4031 L240.6094,284.475 C240.1594,284.0344 239.4656,283.6312 238.6219,283.6312 C236.85,283.6312 235.4531,284.9156 235.4531,287.1188 C235.4531,289.35 236.8781,290.5219 238.5281,290.5219 Z " fill="#000000"/><text fill="#000000" font-family="sans-serif" font-size="8.4" lengthAdjust="spacing" textLength="66" x="246.9" y="289.6711">AreaChannelData</text><line style="stroke:#181818;stroke-width:0.3;" x1="230.1" x2="314.1" y1="296.4" y2="296.4"/><line style="stroke:#181818;stroke-width:0.3;" x1="230.1" x2="314.1" y1="301.2" y2="301.2"/></g><!--class AreaChannelMetadata--><g id="elem_AreaChannelMetadata"><rect codeLine="102" fill="#F1F1F1" height="28.8" id="AreaChannelMetadata" rx="1.5" ry="1.5" style="stroke:#181818;stroke-width:0.3;" width="103.8" x="336" y="277.2"/><ellipse cx="345" cy="286.8" fill="#ADD1B2" rx="6.6" ry="6.6" style="stroke:#181818;stroke-width:0.6;"/><path d="M345.0281,290.5219 C345.9281,290.5219 346.6688,290.1844 347.2125,289.5469 L346.3875,288.6375 C346.0594,288.9938 345.6656,289.2281 345.1875,289.2281 C344.1844,289.2281 343.4906,288.4313 343.4906,287.0625 C343.4906,285.7313 344.1844,284.925 345.1219,284.925 C345.6094,284.925 345.9656,285.1125 346.2844,285.4031 L347.1094,284.475 C346.6594,284.0344 345.9656,283.6312 345.1219,283.6312 C343.35,283.6312 341.9531,284.9156 341.9531,287.1188 C341.9531,289.35 343.3781,290.5219 345.0281,290.5219 Z " fill="#000000"/><text fill="#000000" font-family="sans-serif" font-size="8.4" lengthAdjust="spacing" textLength="84.6" x="353.4" y="289.6711">AreaChannelMetadata</text><line style="stroke:#181818;stroke-width:0.3;" x1="336.6" x2="439.2" y1="296.4" y2="296.4"/><line style="stroke:#181818;stroke-width:0.3;" x1="336.6" x2="439.2" y1="301.2" y2="301.2"/></g><!--class ScientificCameraData--><g id="elem_ScientificCameraData"><rect codeLine="27" fill="#F1F1F1" height="68.175" id="ScientificCameraData" rx="1.5" ry="1.5" style="stroke:#181818;stroke-width:0.3;" width="149.4" x="197.4" y="415.8"/><ellipse cx="229.05" cy="425.4" fill="#ADD1B2" rx="6.6" ry="6.6" style="stroke:#181818;stroke-width:0.6;"/><path d="M229.0781,429.1219 C229.9781,429.1219 230.7188,428.7844 231.2625,428.1469 L230.4375,427.2375 C230.1094,427.5938 229.7156,427.8281 229.2375,427.8281 C228.2344,427.8281 227.5406,427.0313 227.5406,425.6625 C227.5406,424.3313 228.2344,423.525 229.1719,423.525 C229.6594,423.525 230.0156,423.7125 230.3344,424.0031 L231.1594,423.075 C230.7094,422.6344 230.0156,422.2313 229.1719,422.2313 C227.4,422.2313 226.0031,423.5156 226.0031,425.7188 C226.0031,427.95 227.4281,429.1219 229.0781,429.1219 Z " fill="#000000"/><text fill="#000000" font-family="sans-serif" font-size="8.4" lengthAdjust="spacing" textLength="81" x="241.35" y="428.2711">ScientificCameraData</text><line style="stroke:#181818;stroke-width:0.3;" x1="198" x2="346.2" y1="435" y2="435"/><text fill="#000000" font-family="sans-serif" font-size="8.4" lengthAdjust="spacing" textLength="114.6" x="201" y="445.193">roi[] : ScientificCameraROIData</text><text fill="#000000" font-family="sans-serif" font-size="8.4" lengthAdjust="spacing" textLength="117" x="201" y="455.0367">acquire_time : float | np.ndarray</text><text fill="#000000" font-family="sans-serif" font-size="8.4" lengthAdjust="spacing" textLength="142.2" x="201" y="464.8805">temperature : np.ndarray(dtype=float)</text><text fill="#000000" font-family="sans-serif" font-size="8.4" lengthAdjust="spacing" textLength="128.4" x="201" y="474.7242">humidity : np.ndarray(dtype=float)</text><line style="stroke:#181818;stroke-width:0.3;" x1="198" x2="346.2" y1="479.175" y2="479.175"/></g><g id="elem_GMN19"><path d="M179.7,594 L179.7,684.2576 A0,0 0 0 0 179.7,684.2576 L374.1,684.2576 A0,0 0 0 0 374.1,684.2576 L374.1,600 L368.1,594 L278.166,594 L272.964,484.392 L273.366,594 L179.7,594 A0,0 0 0 0 179.7,594 " fill="#FEFFDD" style="stroke:#181818;stroke-width:0.3;"/><path d="M368.1,594 L368.1,600 L374.1,600 L368.1,594 " fill="#FEFFDD" style="stroke:#181818;stroke-width:0.3;"/><text fill="#000000" font-family="sans-serif" font-size="7.8" lengthAdjust="spacing" textLength="172.8" x="183.3" y="604.2363">acquire_time can be a static or dynamic parameter.</text><text fill="#000000" font-family="sans-serif" font-size="7.8" lengthAdjust="spacing" textLength="1.8" x="183.3" y="613.377">&#160;</text><text fill="#000000" font-family="sans-serif" font-size="7.8" lengthAdjust="spacing" textLength="82.8" x="183.3" y="623.1816">What about the different</text><text fill="#000000" font-family="monospace" font-size="7.8" lengthAdjust="spacing" textLength="52.8" x="267.9" y="622.9565">temperature</text><text fill="#000000" font-family="sans-serif" font-size="7.8" lengthAdjust="spacing" textLength="42.6" x="322.5" y="623.1816">parameters?</text><text fill="#000000" font-family="sans-serif" font-size="7.8" lengthAdjust="spacing" textLength="27.6" x="183.3" y="632.9862">There is</text><text fill="#000000" font-family="monospace" font-size="7.8" lengthAdjust="spacing" textLength="52.8" x="212.7" y="632.7611">Temperature</text><text fill="#000000" font-family="sans-serif" font-size="7.8" lengthAdjust="spacing" textLength="1.8" x="265.5" y="632.9862">,</text><text fill="#000000" font-family="monospace" font-size="7.8" lengthAdjust="spacing" textLength="81.6" x="269.1" y="632.7611">TemperatureActual</text><text fill="#000000" font-family="sans-serif" font-size="7.8" lengthAdjust="spacing" textLength="1.8" x="350.7" y="632.9862">,</text><text fill="#000000" font-family="monospace" font-size="7.8" lengthAdjust="spacing" textLength="72" x="183.3" y="642.5657">Temperature_RBV</text><text fill="#000000" font-family="sans-serif" font-size="7.8" lengthAdjust="spacing" textLength="52.8" x="257.1" y="642.7908">and sometimes</text><text fill="#000000" font-family="monospace" font-size="7.8" lengthAdjust="spacing" textLength="48" x="311.7" y="642.5657">XXX_Cooler</text><text fill="#000000" font-family="sans-serif" font-size="7.8" lengthAdjust="spacing" textLength="1.8" x="359.7" y="642.7908">.</text><text fill="#000000" font-family="sans-serif" font-size="7.8" lengthAdjust="spacing" textLength="1.8" x="183.3" y="651.9314">&#160;</text><text fill="#000000" font-family="sans-serif" font-size="7.8" lengthAdjust="spacing" textLength="177.6" x="183.3" y="661.072">For Pilatus, there seem to be three temperatures and</text><text fill="#000000" font-family="sans-serif" font-size="7.8" lengthAdjust="spacing" textLength="168.6" x="183.3" y="670.2127">three humidity detectors. Are all these values read</text><text fill="#000000" font-family="sans-serif" font-size="7.8" lengthAdjust="spacing" textLength="105" x="183.3" y="679.3533">for each PositionCount/image?</text></g><!--class ScientificCameraMetadata--><g id="elem_ScientificCameraMetadata"><rect codeLine="104" fill="#F1F1F1" height="68.175" id="ScientificCameraMetadata" rx="1.5" ry="1.5" style="stroke:#181818;stroke-width:0.3;" width="118.8" x="368.1" y="415.8"/><ellipse cx="377.1" cy="425.4" fill="#ADD1B2" rx="6.6" ry="6.6" style="stroke:#181818;stroke-width:0.6;"/><path d="M377.1281,429.1219 C378.0281,429.1219 378.7688,428.7844 379.3125,428.1469 L378.4875,427.2375 C378.1594,427.5938 377.7656,427.8281 377.2875,427.8281 C376.2844,427.8281 375.5906,427.0313 375.5906,425.6625 C375.5906,424.3313 376.2844,423.525 377.2219,423.525 C377.7094,423.525 378.0656,423.7125 378.3844,424.0031 L379.2094,423.075 C378.7594,422.6344 378.0656,422.2313 377.2219,422.2313 C375.45,422.2313 374.0531,423.5156 374.0531,425.7188 C374.0531,427.95 375.4781,429.1219 377.1281,429.1219 Z " fill="#000000"/><text fill="#000000" font-family="sans-serif" font-size="8.4" lengthAdjust="spacing" textLength="99.6" x="385.5" y="428.2711">ScientificCameraMetadata</text><line style="stroke:#181818;stroke-width:0.3;" x1="368.7" x2="486.3" y1="435" y2="435"/><text fill="#000000" font-family="sans-serif" font-size="8.4" lengthAdjust="spacing" textLength="39" x="371.7" y="445.193">gain : float</text><text fill="#000000" font-family="sans-serif" font-size="8.4" lengthAdjust="spacing" textLength="70.2" x="371.7" y="455.0367">reverse_x : boolean</text><text fill="#000000" font-family="sans-serif" font-size="8.4" lengthAdjust="spacing" textLength="70.2" x="371.7" y="464.8805">reverse_y : boolean</text><text fill="#000000" font-family="sans-serif" font-size="8.4" lengthAdjust="spacing" textLength="54" x="371.7" y="474.7242">filetype : string</text><line style="stroke:#181818;stroke-width:0.3;" x1="368.7" x2="486.3" y1="479.175" y2="479.175"/></g><!--class ScientificCameraROIData--><g id="elem_ScientificCameraROIData"><rect codeLine="51" fill="#F1F1F1" height="215.8312" id="ScientificCameraROIData" rx="1.5" ry="1.5" style="stroke:#181818;stroke-width:0.3;" width="172.2" x="4.2" y="342"/><ellipse cx="40.35" cy="351.6" fill="#ADD1B2" rx="6.6" ry="6.6" style="stroke:#181818;stroke-width:0.6;"/><path d="M40.3781,355.3219 C41.2781,355.3219 42.0188,354.9844 42.5625,354.3469 L41.7375,353.4375 C41.4094,353.7938 41.0156,354.0281 40.5375,354.0281 C39.5344,354.0281 38.8406,353.2313 38.8406,351.8625 C38.8406,350.5313 39.5344,349.725 40.4719,349.725 C40.9594,349.725 41.3156,349.9125 41.6344,350.2031 L42.4594,349.275 C42.0094,348.8344 41.3156,348.4313 40.4719,348.4313 C38.7,348.4313 37.3031,349.7156 37.3031,351.9188 C37.3031,354.15 38.7281,355.3219 40.3781,355.3219 Z " fill="#000000"/><text fill="#000000" font-family="sans-serif" font-size="8.4" lengthAdjust="spacing" textLength="94.8" x="52.65" y="354.4711">ScientificCameraROIData</text><line style="stroke:#181818;stroke-width:0.3;" x1="4.8" x2="175.8" y1="361.2" y2="361.2"/><text fill="#000000" font-family="sans-serif" font-size="8.4" lengthAdjust="spacing" textLength="44.4" x="7.8" y="371.393">label : string</text><text fill="#000000" font-family="sans-serif" font-size="8.4" lengthAdjust="spacing" textLength="114.6" x="7.8" y="381.2367">marker : np.ndarray(dtype=int)</text><text fill="#000000" font-family="sans-serif" font-size="8.4" lengthAdjust="spacing" textLength="84.6" x="7.8" y="391.0805">background_width : int</text><text fill="#000000" font-family="sans-serif" font-size="8.4" lengthAdjust="spacing" textLength="133.2" x="7.8" y="400.9242">min_value : np.ndarray(dtype=float)</text><text fill="#000000" font-family="sans-serif" font-size="8.4" lengthAdjust="spacing" textLength="117.6" x="7.8" y="410.768">min_x : np.ndarray(dtype=float)</text><text fill="#000000" font-family="sans-serif" font-size="8.4" lengthAdjust="spacing" textLength="117.6" x="7.8" y="420.6117">min_y : np.ndarray(dtype=float)</text><text fill="#000000" font-family="sans-serif" font-size="8.4" lengthAdjust="spacing" textLength="135.6" x="7.8" y="430.4555">max_value : np.ndarray(dtype=float)</text><text fill="#000000" font-family="sans-serif" font-size="8.4" lengthAdjust="spacing" textLength="120" x="7.8" y="440.2992">max_x : np.ndarray(dtype=float)</text><text fill="#000000" font-family="sans-serif" font-size="8.4" lengthAdjust="spacing" textLength="120" x="7.8" y="450.143">max_y : np.ndarray(dtype=float)</text><text fill="#000000" font-family="sans-serif" font-size="8.4" lengthAdjust="spacing" textLength="117" x="7.8" y="459.9867">mean : np.ndarray(dtype=float)</text><text fill="#000000" font-family="sans-serif" font-size="8.4" lengthAdjust="spacing" textLength="113.4" x="7.8" y="469.8305">total : np.ndarray(dtype=float)</text><text fill="#000000" font-family="sans-serif" font-size="8.4" lengthAdjust="spacing" textLength="108" x="7.8" y="479.6742">net : np.ndarray(dtype=float)</text><text fill="#000000" font-family="sans-serif" font-size="8.4" lengthAdjust="spacing" textLength="118.8" x="7.8" y="489.518">sigma : np.ndarray(dtype=float)</text><text fill="#000000" font-family="sans-serif" font-size="8.4" lengthAdjust="spacing" textLength="92.4" x="7.8" y="499.3617">centroid_threshold : float</text><text fill="#000000" font-family="sans-serif" font-size="8.4" lengthAdjust="spacing" textLength="134.4" x="7.8" y="509.2055">centroid_x : np.ndarray(dtype=float)</text><text fill="#000000" font-family="sans-serif" font-size="8.4" lengthAdjust="spacing" textLength="134.4" x="7.8" y="519.0492">centroid_y : np.ndarray(dtype=float)</text><text fill="#000000" font-family="sans-serif" font-size="8.4" lengthAdjust="spacing" textLength="160.8" x="7.8" y="528.893">centroid_sigma_x : np.ndarray(dtype=float)</text><text fill="#000000" font-family="sans-serif" font-size="8.4" lengthAdjust="spacing" textLength="160.8" x="7.8" y="538.7367">centroid_sigma_y : np.ndarray(dtype=float)</text><text fill="#000000" font-family="sans-serif" font-size="8.4" lengthAdjust="spacing" textLength="165" x="7.8" y="548.5805">centroid_sigma_xy : np.ndarray(dtype=float)</text><line style="stroke:#181818;stroke-width:0.3;" x1="4.8" x2="175.8" y1="553.0313" y2="553.0313"/></g><g id="elem_GMN29"><path d="M12.6,603.9 L12.6,673.8844 A0,0 0 0 0 12.6,673.8844 L158.4,673.8844 A0,0 0 0 0 158.4,673.8844 L158.4,609.9 L152.4,603.9 L88.782,603.9 L87.552,558.21 L83.982,603.9 L12.6,603.9 A0,0 0 0 0 12.6,603.9 " fill="#FEFFDD" style="stroke:#181818;stroke-width:0.3;"/><path d="M152.4,603.9 L152.4,609.9 L158.4,609.9 L152.4,603.9 " fill="#FEFFDD" style="stroke:#181818;stroke-width:0.3;"/><text fill="#000000" font-family="sans-serif" font-size="7.8" lengthAdjust="spacing" textLength="133.2" x="16.2" y="614.1363">Marker should be a four-element vector</text><text fill="#000000" font-family="sans-serif" font-size="7.8" lengthAdjust="spacing" textLength="119.4" x="16.2" y="623.277">with coordinates of the image area.</text><text fill="#000000" font-family="sans-serif" font-size="7.8" lengthAdjust="spacing" textLength="91.2" x="16.2" y="632.4176">Is "marker" the best name?</text><text fill="#000000" font-family="sans-serif" font-size="7.8" lengthAdjust="spacing" textLength="1.8" x="16.2" y="641.5582">&#160;</text><text fill="#000000" font-family="sans-serif" font-size="7.8" lengthAdjust="spacing" textLength="124.2" x="16.2" y="650.6988">What other attributes are relevant for</text><text fill="#000000" font-family="sans-serif" font-size="7.8" lengthAdjust="spacing" textLength="67.2" x="16.2" y="659.8395">Area Channel ROIs?</text><text fill="#000000" font-family="sans-serif" font-size="7.8" lengthAdjust="spacing" textLength="114" x="16.2" y="668.9801">How about binning and reversing?</text></g><!--class DeviceMetadata--><g id="elem_DeviceMetadata"><rect codeLine="92" fill="#F1F1F1" height="58.3313" id="DeviceMetadata" rx="1.5" ry="1.5" style="stroke:#181818;stroke-width:0.3;" width="84.6" x="375.6" y="118.2"/><ellipse cx="388.11" cy="127.8" fill="#B4A7E5" rx="6.6" ry="6.6" style="stroke:#181818;stroke-width:0.6;"/><path d="M385.8694,131.4 L390.4725,131.4 L390.4725,130.1344 L388.9256,130.1344 L388.9256,126.0188 L390.4725,126.0188 L390.4725,124.7531 L385.8694,124.7531 L385.8694,126.0188 L387.4163,126.0188 L387.4163,130.1344 L385.8694,130.1344 L385.8694,131.4 Z " fill="#000000"/><text fill="#000000" font-family="sans-serif" font-size="8.4" font-style="italic" lengthAdjust="spacing" textLength="57.6" x="397.29" y="130.6711">DeviceMetadata</text><line style="stroke:#181818;stroke-width:0.3;" x1="376.2" x2="459.6" y1="137.4" y2="137.4"/><text fill="#000000" font-family="sans-serif" font-size="8.4" lengthAdjust="spacing" textLength="33.6" x="379.2" y="147.593">id : string</text><text fill="#000000" font-family="sans-serif" font-size="8.4" lengthAdjust="spacing" textLength="36" x="379.2" y="157.4367">pv : string</text><text fill="#000000" font-family="sans-serif" font-size="8.4" lengthAdjust="spacing" textLength="77.4" x="379.2" y="167.2805">access_mode : string</text><line style="stroke:#181818;stroke-width:0.3;" x1="376.2" x2="459.6" y1="171.7313" y2="171.7313"/></g><!--reverse link Data to Metadata--><g id="link_Data_Metadata"><path codeLine="11" d="M252.468,43.2 C262.086,43.2 264.504,43.2 274.128,43.2 " fill="none" id="Data-backto-Metadata" style="stroke:#181818;stroke-width:0.6;"/><polygon fill="#181818" points="245.268,43.2,248.868,45.6,252.468,43.2,248.868,40.8,245.268,43.2" style="stroke:#181818;stroke-width:0.6;"/></g><!--reverse link Data to MeasureData--><g id="link_Data_MeasureData"><path d="M188.4283,93.0885 C186.0643,108.7125 185.052,115.35 183.126,128.07 " fill="none" id="Data-backto-MeasureData" style="stroke:#181818;stroke-width:0.6;"/><polygon fill="none" points="190.044,82.41,184.8688,92.5499,191.9878,93.627,190.044,82.41" style="stroke:#181818;stroke-width:0.6;"/></g><!--reverse link MeasureData to MeasureMetadata--><g id="link_MeasureData_MeasureMetadata"><path codeLine="17" d="M252.348,147.3 C259.41,147.3 259.272,147.3 266.334,147.3 " fill="none" id="MeasureData-backto-MeasureMetadata" style="stroke:#181818;stroke-width:0.6;"/><polygon fill="#181818" points="245.148,147.3,248.748,149.7,252.348,147.3,248.748,144.9,245.148,147.3" style="stroke:#181818;stroke-width:0.6;"/></g><!--reverse link MeasureData to ChannelData--><g id="link_MeasureData_ChannelData"><path d="M210.5071,173.6645 C226.9471,187.6865 240.858,199.548 255.756,212.256 " fill="none" id="MeasureData-backto-ChannelData" style="stroke:#181818;stroke-width:0.6;"/><polygon fill="none" points="202.29,166.656,208.1709,176.4036,212.8433,170.9255,202.29,166.656" style="stroke:#181818;stroke-width:0.6;"/></g><!--reverse link ChannelData to ChannelMetadata--><g id="link_ChannelData_ChannelMetadata"><path codeLine="21" d="M313.302,226.8 C323.16,226.8 325.818,226.8 335.676,226.8 " fill="none" id="ChannelData-backto-ChannelMetadata" style="stroke:#181818;stroke-width:0.6;"/><polygon fill="#181818" points="306.102,226.8,309.702,229.2,313.302,226.8,309.702,224.4,306.102,226.8" style="stroke:#181818;stroke-width:0.6;"/></g><!--reverse link ChannelData to AreaChannelData--><g id="link_ChannelData_AreaChannelData"><path d="M272.1,252 C272.1,262.596 272.1,266.364 272.1,277.008 " fill="none" id="ChannelData-backto-AreaChannelData" style="stroke:#181818;stroke-width:0.6;"/><polygon fill="none" points="272.1,241.2,268.5,252,275.7,252,272.1,241.2" style="stroke:#181818;stroke-width:0.6;"/></g><!--reverse link AreaChannelData to AreaChannelMetadata--><g id="link_AreaChannelData_AreaChannelMetadata"><path codeLine="25" d="M322.044,291.6 C329.088,291.6 328.926,291.6 335.964,291.6 " fill="none" id="AreaChannelData-backto-AreaChannelMetadata" style="stroke:#181818;stroke-width:0.6;"/><polygon fill="#181818" points="314.844,291.6,318.444,294,322.044,291.6,318.444,289.2,314.844,291.6" style="stroke:#181818;stroke-width:0.6;"/></g><!--reverse link AreaChannelData to ScientificCameraData--><g id="link_AreaChannelData_ScientificCameraData"><path d="M272.1,316.95 C272.1,341.334 272.1,381.552 272.1,415.65 " fill="none" id="AreaChannelData-backto-ScientificCameraData" style="stroke:#181818;stroke-width:0.6;"/><polygon fill="none" points="272.1,306.15,268.5,316.95,275.7,316.95,272.1,306.15" style="stroke:#181818;stroke-width:0.6;"/></g><!--reverse link ScientificCameraData to ScientificCameraMetadata--><g id="link_ScientificCameraData_ScientificCameraMetadata"><path codeLine="45" d="M354.114,450 C361.146,450 360.978,450 368.004,450 " fill="none" id="ScientificCameraData-backto-ScientificCameraMetadata" style="stroke:#181818;stroke-width:0.6;"/><polygon fill="#181818" points="346.914,450,350.514,452.4,354.114,450,350.514,447.6,346.914,450" style="stroke:#181818;stroke-width:0.6;"/></g><!--link ScientificCameraROIData to ScientificCameraData--><!--link ScientificCameraROIData to ScientificCameraData--><g id="link_ScientificCameraROIData_ScientificCameraData"><path codeLine="48" d="M176.406,450 C183.384,450 183.162,450 190.14,450 " fill="none" id="ScientificCameraROIData-to-ScientificCameraData-1" style="stroke:#181818;stroke-width:0.6;"/><polygon fill="#181818" points="197.34,450,193.74,447.6,190.14,450,193.74,452.4,197.34,450" style="stroke:#181818;stroke-width:0.6;"/><text fill="#000000" font-family="sans-serif" font-size="7.8" lengthAdjust="spacing" textLength="12" x="181.1552" y="448.0123">0..n</text></g><!--link ScientificCameraROIData to ScientificCameraData--><!--reverse link MeasureData to ScientificCameraROIData--><g id="link_MeasureData_ScientificCameraROIData"><path d="M171.6483,176.8786 C161.3463,211.3846 141.684,277.254 122.394,341.886 " fill="none" id="MeasureData-backto-ScientificCameraROIData" style="stroke:#181818;stroke-width:0.6;"/><polygon fill="none" points="174.738,166.53,168.1988,175.8487,175.0979,177.9085,174.738,166.53" style="stroke:#181818;stroke-width:0.6;"/></g><!--reverse link Metadata to MeasureMetadata--><g id="link_Metadata_MeasureMetadata"><path d="M304.9274,78.4323 C306.4274,96.8343 307.596,111.162 308.982,128.094 " fill="none" id="Metadata-backto-MeasureMetadata" style="stroke:#181818;stroke-width:0.6;"/><polygon fill="none" points="304.05,67.668,301.3393,78.7248,308.5155,78.1398,304.05,67.668" style="stroke:#181818;stroke-width:0.6;"/></g><!--link MeasureMetadata to DeviceMetadata--><!--reverse link MeasureMetadata to ChannelMetadata--><g id="link_MeasureMetadata_ChannelMetadata"><path d="M333.9922,174.7888 C346.2442,188.8108 355.62,199.548 366.72,212.256 " fill="none" id="MeasureMetadata-backto-ChannelMetadata" style="stroke:#181818;stroke-width:0.6;"/><polygon fill="none" points="326.886,166.656,331.2813,177.1575,336.7031,172.4201,326.886,166.656" style="stroke:#181818;stroke-width:0.6;"/></g><!--reverse link DeviceMetadata to ChannelMetadata--><g id="link_DeviceMetadata_ChannelMetadata"><path d="M398.7855,186.2765 C392.7375,198.4145 390.792,202.32 385.872,212.196 " fill="none" id="DeviceMetadata-backto-ChannelMetadata" style="stroke:#181818;stroke-width:0.6;stroke-dasharray:7.0,7.0;"/><polygon fill="none" points="403.602,176.61,395.5633,184.671,402.0076,187.882,403.602,176.61" style="stroke:#181818;stroke-width:0.6;"/></g><!--reverse link ChannelMetadata to AreaChannelMetadata--><g id="link_ChannelMetadata_AreaChannelMetadata"><path d="M382.3638,251.8934 C383.8638,262.4894 384.414,266.364 385.92,277.008 " fill="none" id="ChannelMetadata-backto-AreaChannelMetadata" style="stroke:#181818;stroke-width:0.6;"/><polygon fill="none" points="380.85,241.2,378.7993,252.398,385.9282,251.3888,380.85,241.2" style="stroke:#181818;stroke-width:0.6;"/></g><!--reverse link AreaChannelMetadata to ScientificCameraMetadata--><g id="link_AreaChannelMetadata_ScientificCameraMetadata"><path d="M394.0524,316.6233 C400.1904,341.0073 410.406,381.552 418.998,415.65 " fill="none" id="AreaChannelMetadata-backto-ScientificCameraMetadata" style="stroke:#181818;stroke-width:0.6;"/><polygon fill="none" points="391.416,306.15,390.5613,317.5021,397.5435,315.7445,391.416,306.15" style="stroke:#181818;stroke-width:0.6;"/></g><!--SRC=[fLPDZzis4BthLn2-v0Enj-S0RP3i8iWU5WtIe5qW28mHERA8KAHAZhnhfFlVEwHaMrIqMRlroHo-UJCQpZpoMKtKXjSN5wq1IrrZLj8r5z9024kbOUEXAOgq55T08BuNWdyD4gYuV2rkXh_9xbhIpWOsAoqfcTO3phOhgy1xsFLctRJE4thUYiJNmp9jHfVdBug7eaWnNowFKOPSRX12vp5jupsXLLb-tokDHZs8rWMzp-YOm7D5knP_rPPIZ35N2fMMquYNDLYB9eiuyYoACO1fXkMKvgr7cACQsOfY2cAwaMbA-OVKQ4bNMbv2WnuotYbLNn_lz9UlN9EfwwVVhw_sPmdoxqvxN9DkaA6LSK3Yd-avxYjDsBHCG5oEkLedxnUPHzqrMcdQ_GJ-K5X7A4f7v1hXgjbF_J5P2LQKA4040j9IE2_KpaB3VrlWXaRkirMH_Fwg-QEWT1q9gf6xjghGSmYnM8o-QB4uEeOtoV5ppJYX0mC_Zu6lSiDRIHqODYUdR6lzwTsVJ0nMYU2OcZEFRBUtj-jBvmpwnM98yZr_m4Tjs2kyYcbou83O27BnCwdsYEFwXyYP7FkjGw4Lvo_9-R2ARI70cCWMK6p1TEp6hTBxLHmGGTRYup0_bwwpTA4RsE2RWljAn7CfYjdEusQTseyT-qZ3YUMNMYk5zkjlysVycD_YbzNABiJovNbkJuLxPBBsxZFpd-kEWH8DDtOWh-qcssh0VqkgDwz74Lg2_BRnN7ArljEAQWRpNiwYxJgTsed35l7tPs1tfsBX_hmy67z_1lRaF91d_ZGeEG9p8jOYdOWCUjF04rZ9pSJAgzPnBaFjZDhhQaPrW9rQg8F3xbo7bFNvSNgt_nhjVod- -8QwwKU9AzbnAPFYLwxpIpJOH0tV9hLBq3lDOoITyqfR8DOwfew2doHD02lVAk6kMOBx2Lsa_H832RuwMFQEzuMB6Yo0UBZBBfAnFukdmIq_eQ9u9cYyUVVNkk2qXulZWxiRBfnIMylga6u0Zrk-MdWrbjV3MsTuRFKQ4xF9fMNowdgOF98E_aVPoWWxg-b8oDuiDkWha2YkSAibJl1QvU7RRRu6AJ64TUCKPhJJT4OYdCUPFBbcyi-9-2dPdtXuX6ZcyJHzU3trgFh1Ruwphyy6jCq6kpzSJ7DMngiTR6RVJUoLDXY7ObozVm40]--></g></svg>