<?xml version="1.0" encoding="us-ascii" standalone="no"?><svg xmlns="http://www.w3.org/2000/svg" xmlns:xlink="http://www.w3.org/1999/xlink" contentStyleType="text/css" height="1114px" preserveAspectRatio="none" style="width:1086px;height:1114px;background:#FFFFFF;" version="1.1" viewBox="0 0 1086 1114" width="1086px" zoomAndPan="magnify"><defs/><g><!--class Data--><g id="elem_Data"><rect codeLine="3" fill="#F1F1F1" height="130.0313" id="Data" rx="2.5" ry="2.5" style="stroke:#181818;stroke-width:0.5;" width="164" x="401.5" y="7"/><ellipse cx="464.25" cy="23" fill="#ADD1B2" rx="11" ry="11" style="stroke:#181818;stroke-width:1.0;"/><path d="M464.2969,29.2031 C465.7969,29.2031 467.0313,28.6406 467.9375,27.5781 L466.5625,26.0625 C466.0156,26.6563 465.3594,27.0469 464.5625,27.0469 C462.8906,27.0469 461.7344,25.7188 461.7344,23.4375 C461.7344,21.2188 462.8906,19.875 464.4531,19.875 C465.2656,19.875 465.8594,20.1875 466.3906,20.6719 L467.7656,19.125 C467.0156,18.3906 465.8594,17.7188 464.4531,17.7188 C461.5,17.7188 459.1719,19.8594 459.1719,23.5313 C459.1719,27.25 461.5469,29.2031 464.2969,29.2031 Z " fill="#000000"/><text fill="#000000" font-family="sans-serif" font-size="14" lengthAdjust="spacing" textLength="30" x="484.75" y="27.7852">Data</text><line style="stroke:#181818;stroke-width:0.5;" x1="402.5" x2="564.5" y1="39" y2="39"/><text fill="#000000" font-family="sans-serif" font-size="14" lengthAdjust="spacing" textLength="131" x="407.5" y="55.9883">metadata : Metadata</text><text fill="#000000" font-family="sans-serif" font-size="14" lengthAdjust="spacing" textLength="79" x="407.5" y="72.3945">options : dict</text><text fill="#000000" font-family="sans-serif" font-size="14" lengthAdjust="spacing" textLength="113" x="407.5" y="88.8008">_data : np.ndarray</text><text fill="#000000" font-family="sans-serif" font-size="14" lengthAdjust="spacing" textLength="152" x="407.5" y="105.207">_importer : DataImporter</text><line style="stroke:#181818;stroke-width:0.5;" x1="402.5" x2="564.5" y1="112.625" y2="112.625"/><text fill="#000000" font-family="sans-serif" font-size="14" lengthAdjust="spacing" textLength="39" x="407.5" y="129.6133">data()</text></g><!--class Metadata--><g id="elem_Metadata"><rect codeLine="89" fill="#F1F1F1" height="80.8125" id="Metadata" rx="2.5" ry="2.5" style="stroke:#181818;stroke-width:0.5;" width="93" x="614" y="31.5"/><ellipse cx="629" cy="47.5" fill="#ADD1B2" rx="11" ry="11" style="stroke:#181818;stroke-width:1.0;"/><path d="M629.0469,53.7031 C630.5469,53.7031 631.7813,53.1406 632.6875,52.0781 L631.3125,50.5625 C630.7656,51.1563 630.1094,51.5469 629.3125,51.5469 C627.6406,51.5469 626.4844,50.2188 626.4844,47.9375 C626.4844,45.7188 627.6406,44.375 629.2031,44.375 C630.0156,44.375 630.6094,44.6875 631.1406,45.1719 L632.5156,43.625 C631.7656,42.8906 630.6094,42.2188 629.2031,42.2188 C626.25,42.2188 623.9219,44.3594 623.9219,48.0313 C623.9219,51.75 626.2969,53.7031 629.0469,53.7031 Z " fill="#000000"/><text fill="#000000" font-family="sans-serif" font-size="14" lengthAdjust="spacing" textLength="61" x="643" y="52.2852">Metadata</text><line style="stroke:#181818;stroke-width:0.5;" x1="615" x2="706" y1="63.5" y2="63.5"/><text fill="#000000" font-family="sans-serif" font-size="14" lengthAdjust="spacing" textLength="80" x="620" y="80.4883">name : string</text><text fill="#000000" font-family="sans-serif" font-size="14" lengthAdjust="spacing" textLength="79" x="620" y="96.8945">options : dict</text><line style="stroke:#181818;stroke-width:0.5;" x1="615" x2="706" y1="104.3125" y2="104.3125"/></g><!--class MeasureData--><g id="elem_MeasureData"><rect codeLine="13" fill="#F1F1F1" height="64.4063" id="MeasureData" rx="2.5" ry="2.5" style="stroke:#181818;stroke-width:0.5;" width="216" x="349.5" y="213.5"/><ellipse cx="411.25" cy="229.5" fill="#ADD1B2" rx="11" ry="11" style="stroke:#181818;stroke-width:1.0;"/><path d="M411.2969,235.7031 C412.7969,235.7031 414.0313,235.1406 414.9375,234.0781 L413.5625,232.5625 C413.0156,233.1563 412.3594,233.5469 411.5625,233.5469 C409.8906,233.5469 408.7344,232.2188 408.7344,229.9375 C408.7344,227.7188 409.8906,226.375 411.4531,226.375 C412.2656,226.375 412.8594,226.6875 413.3906,227.1719 L414.7656,225.625 C414.0156,224.8906 412.8594,224.2188 411.4531,224.2188 C408.5,224.2188 406.1719,226.3594 406.1719,230.0313 C406.1719,233.75 408.5469,235.7031 411.2969,235.7031 Z " fill="#000000"/><text fill="#000000" font-family="sans-serif" font-size="14" lengthAdjust="spacing" textLength="84" x="431.75" y="234.2852">MeasureData</text><line style="stroke:#181818;stroke-width:0.5;" x1="350.5" x2="564.5" y1="245.5" y2="245.5"/><text fill="#000000" font-family="sans-serif" font-size="14" lengthAdjust="spacing" textLength="204" x="355.5" y="262.4883">positions : np.ndarray(dtype=int)</text><line style="stroke:#181818;stroke-width:0.5;" x1="350.5" x2="564.5" y1="269.9063" y2="269.9063"/></g><!--class MeasureMetadata--><g id="elem_MeasureMetadata"><rect codeLine="94" fill="#F1F1F1" height="64.4063" id="MeasureMetadata" rx="2.5" ry="2.5" style="stroke:#181818;stroke-width:0.5;" width="147" x="601" y="213.5"/><ellipse cx="616" cy="229.5" fill="#ADD1B2" rx="11" ry="11" style="stroke:#181818;stroke-width:1.0;"/><path d="M616.0469,235.7031 C617.5469,235.7031 618.7813,235.1406 619.6875,234.0781 L618.3125,232.5625 C617.7656,233.1563 617.1094,233.5469 616.3125,233.5469 C614.6406,233.5469 613.4844,232.2188 613.4844,229.9375 C613.4844,227.7188 614.6406,226.375 616.2031,226.375 C617.0156,226.375 617.6094,226.6875 618.1406,227.1719 L619.5156,225.625 C618.7656,224.8906 617.6094,224.2188 616.2031,224.2188 C613.25,224.2188 610.9219,226.3594 610.9219,230.0313 C610.9219,233.75 613.2969,235.7031 616.0469,235.7031 Z " fill="#000000"/><text fill="#000000" font-family="sans-serif" font-size="14" lengthAdjust="spacing" textLength="115" x="630" y="234.2852">MeasureMetadata</text><line style="stroke:#181818;stroke-width:0.5;" x1="602" x2="747" y1="245.5" y2="245.5"/><text fill="#000000" font-family="sans-serif" font-size="14" lengthAdjust="spacing" textLength="69" x="607" y="262.4883">unit : string</text><line style="stroke:#181818;stroke-width:0.5;" x1="602" x2="747" y1="269.9063" y2="269.9063"/></g><!--class ChannelData--><g id="elem_ChannelData"><rect codeLine="19" fill="#F1F1F1" height="48" id="ChannelData" rx="2.5" ry="2.5" style="stroke:#181818;stroke-width:0.5;" width="113" x="633" y="354"/><ellipse cx="648" cy="370" fill="#ADD1B2" rx="11" ry="11" style="stroke:#181818;stroke-width:1.0;"/><path d="M648.0469,376.2031 C649.5469,376.2031 650.7813,375.6406 651.6875,374.5781 L650.3125,373.0625 C649.7656,373.6563 649.1094,374.0469 648.3125,374.0469 C646.6406,374.0469 645.4844,372.7188 645.4844,370.4375 C645.4844,368.2188 646.6406,366.875 648.2031,366.875 C649.0156,366.875 649.6094,367.1875 650.1406,367.6719 L651.5156,366.125 C650.7656,365.3906 649.6094,364.7188 648.2031,364.7188 C645.25,364.7188 642.9219,366.8594 642.9219,370.5313 C642.9219,374.25 645.2969,376.2031 648.0469,376.2031 Z " fill="#000000"/><text fill="#000000" font-family="sans-serif" font-size="14" lengthAdjust="spacing" textLength="81" x="662" y="374.7852">ChannelData</text><line style="stroke:#181818;stroke-width:0.5;" x1="634" x2="745" y1="386" y2="386"/><line style="stroke:#181818;stroke-width:0.5;" x1="634" x2="745" y1="394" y2="394"/></g><!--class ChannelMetadata--><g id="elem_ChannelMetadata"><rect codeLine="106" fill="#F1F1F1" height="48" id="ChannelMetadata" rx="2.5" ry="2.5" style="stroke:#181818;stroke-width:0.5;" width="144" x="781.5" y="354"/><ellipse cx="796.5" cy="370" fill="#ADD1B2" rx="11" ry="11" style="stroke:#181818;stroke-width:1.0;"/><path d="M796.5469,376.2031 C798.0469,376.2031 799.2813,375.6406 800.1875,374.5781 L798.8125,373.0625 C798.2656,373.6563 797.6094,374.0469 796.8125,374.0469 C795.1406,374.0469 793.9844,372.7188 793.9844,370.4375 C793.9844,368.2188 795.1406,366.875 796.7031,366.875 C797.5156,366.875 798.1094,367.1875 798.6406,367.6719 L800.0156,366.125 C799.2656,365.3906 798.1094,364.7188 796.7031,364.7188 C793.75,364.7188 791.4219,366.8594 791.4219,370.5313 C791.4219,374.25 793.7969,376.2031 796.5469,376.2031 Z " fill="#000000"/><text fill="#000000" font-family="sans-serif" font-size="14" lengthAdjust="spacing" textLength="112" x="810.5" y="374.7852">ChannelMetadata</text><line style="stroke:#181818;stroke-width:0.5;" x1="782.5" x2="924.5" y1="386" y2="386"/><line style="stroke:#181818;stroke-width:0.5;" x1="782.5" x2="924.5" y1="394" y2="394"/></g><!--class AreaChannelData--><g id="elem_AreaChannelData"><rect codeLine="23" fill="#F1F1F1" height="48" id="AreaChannelData" rx="2.5" ry="2.5" style="stroke:#181818;stroke-width:0.5;" width="142" x="629.5" y="462"/><ellipse cx="644.5" cy="478" fill="#ADD1B2" rx="11" ry="11" style="stroke:#181818;stroke-width:1.0;"/><path d="M644.5469,484.2031 C646.0469,484.2031 647.2813,483.6406 648.1875,482.5781 L646.8125,481.0625 C646.2656,481.6563 645.6094,482.0469 644.8125,482.0469 C643.1406,482.0469 641.9844,480.7188 641.9844,478.4375 C641.9844,476.2188 643.1406,474.875 644.7031,474.875 C645.5156,474.875 646.1094,475.1875 646.6406,475.6719 L648.0156,474.125 C647.2656,473.3906 646.1094,472.7188 644.7031,472.7188 C641.75,472.7188 639.4219,474.8594 639.4219,478.5313 C639.4219,482.25 641.7969,484.2031 644.5469,484.2031 Z " fill="#000000"/><text fill="#000000" font-family="sans-serif" font-size="14" lengthAdjust="spacing" textLength="110" x="658.5" y="482.7852">AreaChannelData</text><line style="stroke:#181818;stroke-width:0.5;" x1="630.5" x2="770.5" y1="494" y2="494"/><line style="stroke:#181818;stroke-width:0.5;" x1="630.5" x2="770.5" y1="502" y2="502"/></g><!--class AreaChannelMetadata--><g id="elem_AreaChannelMetadata"><rect codeLine="108" fill="#F1F1F1" height="48" id="AreaChannelMetadata" rx="2.5" ry="2.5" style="stroke:#181818;stroke-width:0.5;" width="173" x="807" y="462"/><ellipse cx="822" cy="478" fill="#ADD1B2" rx="11" ry="11" style="stroke:#181818;stroke-width:1.0;"/><path d="M822.0469,484.2031 C823.5469,484.2031 824.7813,483.6406 825.6875,482.5781 L824.3125,481.0625 C823.7656,481.6563 823.1094,482.0469 822.3125,482.0469 C820.6406,482.0469 819.4844,480.7188 819.4844,478.4375 C819.4844,476.2188 820.6406,474.875 822.2031,474.875 C823.0156,474.875 823.6094,475.1875 824.1406,475.6719 L825.5156,474.125 C824.7656,473.3906 823.6094,472.7188 822.2031,472.7188 C819.25,472.7188 816.9219,474.8594 816.9219,478.5313 C816.9219,482.25 819.2969,484.2031 822.0469,484.2031 Z " fill="#000000"/><text fill="#000000" font-family="sans-serif" font-size="14" lengthAdjust="spacing" textLength="141" x="836" y="482.7852">AreaChannelMetadata</text><line style="stroke:#181818;stroke-width:0.5;" x1="808" x2="979" y1="494" y2="494"/><line style="stroke:#181818;stroke-width:0.5;" x1="808" x2="979" y1="502" y2="502"/></g><!--class ScientificCameraData--><g id="elem_ScientificCameraData"><rect codeLine="27" fill="#F1F1F1" height="130.0313" id="ScientificCameraData" rx="2.5" ry="2.5" style="stroke:#181818;stroke-width:0.5;" width="279" x="567" y="668.5"/><ellipse cx="634.75" cy="684.5" fill="#ADD1B2" rx="11" ry="11" style="stroke:#181818;stroke-width:1.0;"/><path d="M634.7969,690.7031 C636.2969,690.7031 637.5313,690.1406 638.4375,689.0781 L637.0625,687.5625 C636.5156,688.1563 635.8594,688.5469 635.0625,688.5469 C633.3906,688.5469 632.2344,687.2188 632.2344,684.9375 C632.2344,682.7188 633.3906,681.375 634.9531,681.375 C635.7656,681.375 636.3594,681.6875 636.8906,682.1719 L638.2656,680.625 C637.5156,679.8906 636.3594,679.2188 634.9531,679.2188 C632,679.2188 629.6719,681.3594 629.6719,685.0313 C629.6719,688.75 632.0469,690.7031 634.7969,690.7031 Z " fill="#000000"/><text fill="#000000" font-family="sans-serif" font-size="14" lengthAdjust="spacing" textLength="135" x="655.25" y="689.2852">ScientificCameraData</text><line style="stroke:#181818;stroke-width:0.5;" x1="568" x2="845" y1="700.5" y2="700.5"/><text fill="#000000" font-family="sans-serif" font-size="14" lengthAdjust="spacing" textLength="191" x="573" y="717.4883">roi[] : ScientificCameraROIData</text><text fill="#000000" font-family="sans-serif" font-size="14" lengthAdjust="spacing" textLength="267" x="573" y="733.8945">statistics[] : ScientificCameraStatisticsData</text><text fill="#000000" font-family="sans-serif" font-size="14" lengthAdjust="spacing" textLength="195" x="573" y="750.3008">acquire_time : float | np.ndarray</text><text fill="#000000" font-family="sans-serif" font-size="14" lengthAdjust="spacing" textLength="237" x="573" y="766.707">temperature : np.ndarray(dtype=float)</text><text fill="#000000" font-family="sans-serif" font-size="14" lengthAdjust="spacing" textLength="214" x="573" y="783.1133">humidity : np.ndarray(dtype=float)</text><line style="stroke:#181818;stroke-width:0.5;" x1="568" x2="845" y1="790.5313" y2="790.5313"/></g><g id="elem_GMN19"><path d="M565.5,957 L565.5,1107.4293 A0,0 0 0 0 565.5,1107.4293 L889.5,1107.4293 A0,0 0 0 0 889.5,1107.4293 L889.5,967 L879.5,957 L726.25,957 L711.06,798.84 L718.25,957 L565.5,957 A0,0 0 0 0 565.5,957 " fill="#FEFFDD" style="stroke:#181818;stroke-width:0.5;"/><path d="M879.5,957 L879.5,967 L889.5,967 L879.5,957 " fill="#FEFFDD" style="stroke:#181818;stroke-width:0.5;"/><text fill="#000000" font-family="sans-serif" font-size="13" lengthAdjust="spacing" textLength="288" x="571.5" y="974.0605">acquire_time can be a static or dynamic parameter.</text><text fill="#000000" font-family="sans-serif" font-size="13" lengthAdjust="spacing" textLength="3" x="571.5" y="989.2949">&#160;</text><text fill="#000000" font-family="sans-serif" font-size="13" lengthAdjust="spacing" textLength="138" x="571.5" y="1005.6359">What about the different</text><text fill="#000000" font-family="monospace" font-size="13" lengthAdjust="spacing" textLength="88" x="712.5" y="1005.2608">temperature</text><text fill="#000000" font-family="sans-serif" font-size="13" lengthAdjust="spacing" textLength="71" x="803.5" y="1005.6359">parameters?</text><text fill="#000000" font-family="sans-serif" font-size="13" lengthAdjust="spacing" textLength="46" x="571.5" y="1021.977">There is</text><text fill="#000000" font-family="monospace" font-size="13" lengthAdjust="spacing" textLength="88" x="620.5" y="1021.6018">Temperature</text><text fill="#000000" font-family="sans-serif" font-size="13" lengthAdjust="spacing" textLength="3" x="708.5" y="1021.977">,</text><text fill="#000000" font-family="monospace" font-size="13" lengthAdjust="spacing" textLength="136" x="714.5" y="1021.6018">TemperatureActual</text><text fill="#000000" font-family="sans-serif" font-size="13" lengthAdjust="spacing" textLength="3" x="850.5" y="1021.977">,</text><text fill="#000000" font-family="monospace" font-size="13" lengthAdjust="spacing" textLength="120" x="571.5" y="1037.9428">Temperature_RBV</text><text fill="#000000" font-family="sans-serif" font-size="13" lengthAdjust="spacing" textLength="88" x="694.5" y="1038.318">and sometimes</text><text fill="#000000" font-family="monospace" font-size="13" lengthAdjust="spacing" textLength="80" x="785.5" y="1037.9428">XXX_Cooler</text><text fill="#000000" font-family="sans-serif" font-size="13" lengthAdjust="spacing" textLength="3" x="865.5" y="1038.318">.</text><text fill="#000000" font-family="sans-serif" font-size="13" lengthAdjust="spacing" textLength="3" x="571.5" y="1053.5523">&#160;</text><text fill="#000000" font-family="sans-serif" font-size="13" lengthAdjust="spacing" textLength="296" x="571.5" y="1068.7867">For Pilatus, there seem to be three temperatures and</text><text fill="#000000" font-family="sans-serif" font-size="13" lengthAdjust="spacing" textLength="281" x="571.5" y="1084.0211">three humidity detectors. Are all these values read</text><text fill="#000000" font-family="sans-serif" font-size="13" lengthAdjust="spacing" textLength="175" x="571.5" y="1099.2555">for each PositionCount/image?</text></g><!--class ScientificCameraMetadata--><g id="elem_ScientificCameraMetadata"><rect codeLine="110" fill="#F1F1F1" height="113.625" id="ScientificCameraMetadata" rx="2.5" ry="2.5" style="stroke:#181818;stroke-width:0.5;" width="198" x="881.5" y="676.5"/><ellipse cx="896.5" cy="692.5" fill="#ADD1B2" rx="11" ry="11" style="stroke:#181818;stroke-width:1.0;"/><path d="M896.5469,698.7031 C898.0469,698.7031 899.2813,698.1406 900.1875,697.0781 L898.8125,695.5625 C898.2656,696.1563 897.6094,696.5469 896.8125,696.5469 C895.1406,696.5469 893.9844,695.2188 893.9844,692.9375 C893.9844,690.7188 895.1406,689.375 896.7031,689.375 C897.5156,689.375 898.1094,689.6875 898.6406,690.1719 L900.0156,688.625 C899.2656,687.8906 898.1094,687.2188 896.7031,687.2188 C893.75,687.2188 891.4219,689.3594 891.4219,693.0313 C891.4219,696.75 893.7969,698.7031 896.5469,698.7031 Z " fill="#000000"/><text fill="#000000" font-family="sans-serif" font-size="14" lengthAdjust="spacing" textLength="166" x="910.5" y="697.2852">ScientificCameraMetadata</text><line style="stroke:#181818;stroke-width:0.5;" x1="882.5" x2="1078.5" y1="708.5" y2="708.5"/><text fill="#000000" font-family="sans-serif" font-size="14" lengthAdjust="spacing" textLength="65" x="887.5" y="725.4883">gain : float</text><text fill="#000000" font-family="sans-serif" font-size="14" lengthAdjust="spacing" textLength="117" x="887.5" y="741.8945">reverse_x : boolean</text><text fill="#000000" font-family="sans-serif" font-size="14" lengthAdjust="spacing" textLength="117" x="887.5" y="758.3008">reverse_y : boolean</text><text fill="#000000" font-family="sans-serif" font-size="14" lengthAdjust="spacing" textLength="90" x="887.5" y="774.707">filetype : string</text><line style="stroke:#181818;stroke-width:0.5;" x1="882.5" x2="1078.5" y1="782.125" y2="782.125"/></g><!--class ScientificCameraStatisticsData--><g id="elem_ScientificCameraStatisticsData"><rect codeLine="68" fill="#F1F1F1" height="326.9063" id="ScientificCameraStatisticsData" rx="2.5" ry="2.5" style="stroke:#181818;stroke-width:0.5;" width="287" x="7" y="570"/><ellipse cx="49.9" cy="586" fill="#ADD1B2" rx="11" ry="11" style="stroke:#181818;stroke-width:1.0;"/><path d="M49.9469,592.2031 C51.4469,592.2031 52.6813,591.6406 53.5875,590.5781 L52.2125,589.0625 C51.6656,589.6563 51.0094,590.0469 50.2125,590.0469 C48.5406,590.0469 47.3844,588.7188 47.3844,586.4375 C47.3844,584.2188 48.5406,582.875 50.1031,582.875 C50.9156,582.875 51.5094,583.1875 52.0406,583.6719 L53.4156,582.125 C52.6656,581.3906 51.5094,580.7188 50.1031,580.7188 C47.15,580.7188 44.8219,582.8594 44.8219,586.5313 C44.8219,590.25 47.1969,592.2031 49.9469,592.2031 Z " fill="#000000"/><text fill="#000000" font-family="sans-serif" font-size="14" lengthAdjust="spacing" textLength="193" x="70.1" y="590.7852">ScientificCameraStatisticsData</text><line style="stroke:#181818;stroke-width:0.5;" x1="8" x2="293" y1="602" y2="602"/><text fill="#000000" font-family="sans-serif" font-size="14" lengthAdjust="spacing" textLength="141" x="13" y="618.9883">background_width : int</text><text fill="#000000" font-family="sans-serif" font-size="14" lengthAdjust="spacing" textLength="222" x="13" y="635.3945">min_value : np.ndarray(dtype=float)</text><text fill="#000000" font-family="sans-serif" font-size="14" lengthAdjust="spacing" textLength="196" x="13" y="651.8008">min_x : np.ndarray(dtype=float)</text><text fill="#000000" font-family="sans-serif" font-size="14" lengthAdjust="spacing" textLength="196" x="13" y="668.207">min_y : np.ndarray(dtype=float)</text><text fill="#000000" font-family="sans-serif" font-size="14" lengthAdjust="spacing" textLength="226" x="13" y="684.6133">max_value : np.ndarray(dtype=float)</text><text fill="#000000" font-family="sans-serif" font-size="14" lengthAdjust="spacing" textLength="200" x="13" y="701.0195">max_x : np.ndarray(dtype=float)</text><text fill="#000000" font-family="sans-serif" font-size="14" lengthAdjust="spacing" textLength="200" x="13" y="717.4258">max_y : np.ndarray(dtype=float)</text><text fill="#000000" font-family="sans-serif" font-size="14" lengthAdjust="spacing" textLength="195" x="13" y="733.832">mean : np.ndarray(dtype=float)</text><text fill="#000000" font-family="sans-serif" font-size="14" lengthAdjust="spacing" textLength="189" x="13" y="750.2383">total : np.ndarray(dtype=float)</text><text fill="#000000" font-family="sans-serif" font-size="14" lengthAdjust="spacing" textLength="180" x="13" y="766.6445">net : np.ndarray(dtype=float)</text><text fill="#000000" font-family="sans-serif" font-size="14" lengthAdjust="spacing" textLength="198" x="13" y="783.0508">sigma : np.ndarray(dtype=float)</text><text fill="#000000" font-family="sans-serif" font-size="14" lengthAdjust="spacing" textLength="154" x="13" y="799.457">centroid_threshold : float</text><text fill="#000000" font-family="sans-serif" font-size="14" lengthAdjust="spacing" textLength="224" x="13" y="815.8633">centroid_x : np.ndarray(dtype=float)</text><text fill="#000000" font-family="sans-serif" font-size="14" lengthAdjust="spacing" textLength="224" x="13" y="832.2695">centroid_y : np.ndarray(dtype=float)</text><text fill="#000000" font-family="sans-serif" font-size="14" lengthAdjust="spacing" textLength="268" x="13" y="848.6758">centroid_sigma_x : np.ndarray(dtype=float)</text><text fill="#000000" font-family="sans-serif" font-size="14" lengthAdjust="spacing" textLength="268" x="13" y="865.082">centroid_sigma_y : np.ndarray(dtype=float)</text><text fill="#000000" font-family="sans-serif" font-size="14" lengthAdjust="spacing" textLength="275" x="13" y="881.4883">centroid_sigma_xy : np.ndarray(dtype=float)</text><line style="stroke:#181818;stroke-width:0.5;" x1="8" x2="293" y1="888.9063" y2="888.9063"/></g><!--class ScientificCameraROIData--><g id="elem_ScientificCameraROIData"><rect codeLine="54" fill="#F1F1F1" height="80.8125" id="ScientificCameraROIData" rx="2.5" ry="2.5" style="stroke:#181818;stroke-width:0.5;" width="203" x="329" y="693"/><ellipse cx="349.85" cy="709" fill="#ADD1B2" rx="11" ry="11" style="stroke:#181818;stroke-width:1.0;"/><path d="M349.8969,715.2031 C351.3969,715.2031 352.6313,714.6406 353.5375,713.5781 L352.1625,712.0625 C351.6156,712.6563 350.9594,713.0469 350.1625,713.0469 C348.4906,713.0469 347.3344,711.7188 347.3344,709.4375 C347.3344,707.2188 348.4906,705.875 350.0531,705.875 C350.8656,705.875 351.4594,706.1875 351.9906,706.6719 L353.3656,705.125 C352.6156,704.3906 351.4594,703.7188 350.0531,703.7188 C347.1,703.7188 344.7719,705.8594 344.7719,709.5313 C344.7719,713.25 347.1469,715.2031 349.8969,715.2031 Z " fill="#000000"/><text fill="#000000" font-family="sans-serif" font-size="14" lengthAdjust="spacing" textLength="158" x="365.15" y="713.7852">ScientificCameraROIData</text><line style="stroke:#181818;stroke-width:0.5;" x1="330" x2="531" y1="725" y2="725"/><text fill="#000000" font-family="sans-serif" font-size="14" lengthAdjust="spacing" textLength="74" x="335" y="741.9883">label : string</text><text fill="#000000" font-family="sans-serif" font-size="14" lengthAdjust="spacing" textLength="191" x="335" y="758.3945">marker : np.ndarray(dtype=int)</text><line style="stroke:#181818;stroke-width:0.5;" x1="330" x2="531" y1="765.8125" y2="765.8125"/></g><g id="elem_GMN32"><path d="M287,973.5 L287,1090.1406 A0,0 0 0 0 287,1090.1406 L530,1090.1406 A0,0 0 0 0 530,1090.1406 L530,983.5 L520,973.5 L416.79,973.5 L427.56,774.18 L408.79,973.5 L287,973.5 A0,0 0 0 0 287,973.5 " fill="#FEFFDD" style="stroke:#181818;stroke-width:0.5;"/><path d="M520,973.5 L520,983.5 L530,983.5 L520,973.5 " fill="#FEFFDD" style="stroke:#181818;stroke-width:0.5;"/><text fill="#000000" font-family="sans-serif" font-size="13" lengthAdjust="spacing" textLength="222" x="293" y="990.5605">Marker should be a four-element vector</text><text fill="#000000" font-family="sans-serif" font-size="13" lengthAdjust="spacing" textLength="199" x="293" y="1005.7949">with coordinates of the image area.</text><text fill="#000000" font-family="sans-serif" font-size="13" lengthAdjust="spacing" textLength="152" x="293" y="1021.0293">Is "marker" the best name?</text><text fill="#000000" font-family="sans-serif" font-size="13" lengthAdjust="spacing" textLength="3" x="293" y="1036.2637">&#160;</text><text fill="#000000" font-family="sans-serif" font-size="13" lengthAdjust="spacing" textLength="207" x="293" y="1051.498">What other attributes are relevant for</text><text fill="#000000" font-family="sans-serif" font-size="13" lengthAdjust="spacing" textLength="112" x="293" y="1066.7324">Area Channel ROIs?</text><text fill="#000000" font-family="sans-serif" font-size="13" lengthAdjust="spacing" textLength="190" x="293" y="1081.9668">How about binning and reversing?</text></g><!--class DeviceMetadata--><g id="elem_DeviceMetadata"><rect codeLine="98" fill="#F1F1F1" height="97.2188" id="DeviceMetadata" rx="2.5" ry="2.5" style="stroke:#181818;stroke-width:0.5;" width="141" x="783" y="197"/><ellipse cx="803.85" cy="213" fill="#B4A7E5" rx="11" ry="11" style="stroke:#181818;stroke-width:1.0;"/><path d="M800.1156,219 L807.7875,219 L807.7875,216.8906 L805.2094,216.8906 L805.2094,210.0313 L807.7875,210.0313 L807.7875,207.9219 L800.1156,207.9219 L800.1156,210.0313 L802.6938,210.0313 L802.6938,216.8906 L800.1156,216.8906 L800.1156,219 Z " fill="#000000"/><text fill="#000000" font-family="sans-serif" font-size="14" font-style="italic" lengthAdjust="spacing" textLength="96" x="819.15" y="217.7852">DeviceMetadata</text><line style="stroke:#181818;stroke-width:0.5;" x1="784" x2="923" y1="229" y2="229"/><text fill="#000000" font-family="sans-serif" font-size="14" lengthAdjust="spacing" textLength="56" x="789" y="245.9883">id : string</text><text fill="#000000" font-family="sans-serif" font-size="14" lengthAdjust="spacing" textLength="60" x="789" y="262.3945">pv : string</text><text fill="#000000" font-family="sans-serif" font-size="14" lengthAdjust="spacing" textLength="129" x="789" y="278.8008">access_mode : string</text><line style="stroke:#181818;stroke-width:0.5;" x1="784" x2="923" y1="286.2188" y2="286.2188"/></g><!--reverse link Data to Metadata--><g id="link_Data_Metadata"><path codeLine="11" d="M577.78,72 C593.81,72 597.84,72 613.88,72 " fill="none" id="Data-backto-Metadata" style="stroke:#181818;stroke-width:1.0;"/><polygon fill="#181818" points="565.78,72,571.78,76,577.78,72,571.78,68,565.78,72" style="stroke:#181818;stroke-width:1.0;"/></g><!--reverse link Data to MeasureData--><g id="link_Data_MeasureData"><path d="M471.0471,155.1474 C467.1071,181.1874 465.42,192.25 462.21,213.45 " fill="none" id="Data-backto-MeasureData" style="stroke:#181818;stroke-width:1.0;"/><polygon fill="none" points="473.74,137.35,465.1147,154.2498,476.9796,156.045,473.74,137.35" style="stroke:#181818;stroke-width:1.0;"/></g><!--reverse link MeasureData to MeasureMetadata--><g id="link_MeasureData_MeasureMetadata"><path codeLine="17" d="M577.58,245.5 C589.35,245.5 589.12,245.5 600.89,245.5 " fill="none" id="MeasureData-backto-MeasureMetadata" style="stroke:#181818;stroke-width:1.0;"/><polygon fill="#181818" points="565.58,245.5,571.58,249.5,577.58,245.5,571.58,241.5,565.58,245.5" style="stroke:#181818;stroke-width:1.0;"/></g><!--reverse link MeasureData to ChannelData--><g id="link_MeasureData_ChannelData"><path d="M528.4676,286.4161 C570.1476,309.8661 610.71,332.68 648.45,353.91 " fill="none" id="MeasureData-backto-ChannelData" style="stroke:#181818;stroke-width:1.0;"/><polygon fill="none" points="512.78,277.59,525.5255,291.6453,531.4096,281.1869,512.78,277.59" style="stroke:#181818;stroke-width:1.0;"/></g><!--reverse link ChannelData to ChannelMetadata--><g id="link_ChannelData_ChannelMetadata"><path codeLine="21" d="M758.2,378 C769.93,378 769.67,378 781.4,378 " fill="none" id="ChannelData-backto-ChannelMetadata" style="stroke:#181818;stroke-width:1.0;"/><polygon fill="#181818" points="746.2,378,752.2,382,758.2,378,752.2,374,746.2,378" style="stroke:#181818;stroke-width:1.0;"/></g><!--reverse link ChannelData to AreaChannelData--><g id="link_ChannelData_AreaChannelData"><path d="M693.7453,419.9041 C695.5753,437.5641 696.24,443.94 698.08,461.68 " fill="none" id="ChannelData-backto-AreaChannelData" style="stroke:#181818;stroke-width:1.0;"/><polygon fill="none" points="691.89,402,687.7773,420.5226,699.7133,419.2857,691.89,402" style="stroke:#181818;stroke-width:1.0;"/></g><!--reverse link AreaChannelData to AreaChannelMetadata--><g id="link_AreaChannelData_AreaChannelMetadata"><path codeLine="25" d="M783.74,486 C795.48,486 795.21,486 806.94,486 " fill="none" id="AreaChannelData-backto-AreaChannelMetadata" style="stroke:#181818;stroke-width:1.0;"/><polygon fill="#181818" points="771.74,486,777.74,490,783.74,486,777.74,482,771.74,486" style="stroke:#181818;stroke-width:1.0;"/></g><!--reverse link AreaChannelData to ScientificCameraData--><g id="link_AreaChannelData_ScientificCameraData"><path d="M701.5016,528.0946 C702.3816,563.9546 703.66,616.34 704.93,668.36 " fill="none" id="AreaChannelData-backto-ScientificCameraData" style="stroke:#181818;stroke-width:1.0;"/><polygon fill="none" points="701.06,510.1,695.5034,528.2418,707.4998,527.9474,701.06,510.1" style="stroke:#181818;stroke-width:1.0;"/></g><!--reverse link ScientificCameraData to ScientificCameraMetadata--><g id="link_ScientificCameraData_ScientificCameraMetadata"><path codeLine="46" d="M858.18,733.5 C869.89,733.5 869.61,733.5 881.33,733.5 " fill="none" id="ScientificCameraData-backto-ScientificCameraMetadata" style="stroke:#181818;stroke-width:1.0;"/><polygon fill="#181818" points="846.18,733.5,852.18,737.5,858.18,733.5,852.18,729.5,846.18,733.5" style="stroke:#181818;stroke-width:1.0;"/></g><!--link ScientificCameraStatisticsData to ScientificCameraROIData--><!--link ScientificCameraStatisticsData to ScientificCameraData--><g id="link_ScientificCameraStatisticsData_ScientificCameraData"><path codeLine="49" d="M279.58,569.85 C295,557.96 311.52,547.66 329,540 C411.64,503.8 449.56,503.34 532,540 C590.69,566.1 631.2651,612.8212 661.7251,658.1312 " fill="none" id="ScientificCameraStatisticsData-to-ScientificCameraData" style="stroke:#181818;stroke-width:1.0;"/><polygon fill="#181818" points="668.42,668.09,668.3922,660.879,661.7251,658.1312,661.7529,665.3422,668.42,668.09" style="stroke:#181818;stroke-width:1.0;"/><text fill="#000000" font-family="sans-serif" font-size="13" lengthAdjust="spacing" textLength="20" x="265.3479" y="558.6284">0..n</text></g><!--link ScientificCameraROIData to ScientificCameraData--><!--link ScientificCameraROIData to ScientificCameraData--><g id="link_ScientificCameraROIData_ScientificCameraData"><path codeLine="51" d="M532.11,733.5 C543.69,733.5 543.27,733.5 554.85,733.5 " fill="none" id="ScientificCameraROIData-to-ScientificCameraData-1" style="stroke:#181818;stroke-width:1.0;"/><polygon fill="#181818" points="566.85,733.5,560.85,729.5,554.85,733.5,560.85,737.5,566.85,733.5" style="stroke:#181818;stroke-width:1.0;"/><text fill="#000000" font-family="sans-serif" font-size="13" lengthAdjust="spacing" textLength="20" x="539.9576" y="730.048">0..n</text></g><!--link ScientificCameraROIData to ScientificCameraData--><!--reverse link MeasureData to ScientificCameraROIData--><g id="link_MeasureData_ScientificCameraROIData"><path d="M454.7714,295.6123 C450.0514,380.5623 437.96,598.29 432.71,692.67 " fill="none" id="MeasureData-backto-ScientificCameraROIData" style="stroke:#181818;stroke-width:1.0;"/><polygon fill="none" points="455.77,277.64,448.7807,295.2794,460.7622,295.9451,455.77,277.64" style="stroke:#181818;stroke-width:1.0;"/></g><!--reverse link MeasureData to ScientificCameraStatisticsData--><g id="link_MeasureData_ScientificCameraStatisticsData"><path d="M428.2178,292.8586 C391.5278,350.9486 319.93,464.28 253.18,569.95 " fill="none" id="MeasureData-backto-ScientificCameraStatisticsData" style="stroke:#181818;stroke-width:1.0;"/><polygon fill="none" points="437.83,277.64,423.145,289.6546,433.2907,296.0627,437.83,277.64" style="stroke:#181818;stroke-width:1.0;"/></g><!--reverse link Metadata to MeasureMetadata--><g id="link_Metadata_MeasureMetadata"><path d="M665.2124,130.7205 C667.7124,161.3905 669.66,185.27 671.97,213.49 " fill="none" id="Metadata-backto-MeasureMetadata" style="stroke:#181818;stroke-width:1.0;"/><polygon fill="none" points="663.75,112.78,659.2322,131.208,671.1925,130.233,663.75,112.78" style="stroke:#181818;stroke-width:1.0;"/></g><!--link MeasureMetadata to DeviceMetadata--><!--reverse link MeasureMetadata to ChannelMetadata--><g id="link_MeasureMetadata_ChannelMetadata"><path d="M731.9157,288.3629 C764.0857,311.8129 792.86,332.79 821.91,353.97 " fill="none" id="MeasureMetadata-backto-ChannelMetadata" style="stroke:#181818;stroke-width:1.0;"/><polygon fill="none" points="717.37,277.76,728.3814,293.2115,735.45,283.5144,717.37,277.76" style="stroke:#181818;stroke-width:1.0;"/></g><!--reverse link DeviceMetadata to ChannelMetadata--><g id="link_DeviceMetadata_ChannelMetadata"><path d="M853.5,312.35 C853.5,332.58 853.5,337.2 853.5,353.66 " fill="none" id="DeviceMetadata-backto-ChannelMetadata" style="stroke:#181818;stroke-width:1.0;stroke-dasharray:7.0,7.0;"/><polygon fill="none" points="853.5,294.35,847.5,312.35,859.5,312.35,853.5,294.35" style="stroke:#181818;stroke-width:1.0;"/></g><!--reverse link ChannelMetadata to AreaChannelMetadata--><g id="link_ChannelMetadata_AreaChannelMetadata"><path d="M868.5316,418.8421 C875.1916,436.5021 878.01,443.94 884.7,461.68 " fill="none" id="ChannelMetadata-backto-AreaChannelMetadata" style="stroke:#181818;stroke-width:1.0;"/><polygon fill="none" points="862.18,402,862.9175,420.9593,874.1456,416.7249,862.18,402" style="stroke:#181818;stroke-width:1.0;"/></g><!--reverse link AreaChannelMetadata to ScientificCameraMetadata--><g id="link_AreaChannelMetadata_ScientificCameraMetadata"><path d="M907.695,527.0653 C921.065,564.7753 941.94,623.69 960.57,676.26 " fill="none" id="AreaChannelMetadata-backto-ScientificCameraMetadata" style="stroke:#181818;stroke-width:1.0;"/><polygon fill="none" points="901.68,510.1,902.0399,529.0703,913.3501,525.0603,901.68,510.1" style="stroke:#181818;stroke-width:1.0;"/></g><!--SRC=[jLPDZziu3BtxLmYvz0DDPiy3x1Rj38hEOR15M-mEK1G1BT6nK5bo9JepGNV- -rAoazYkaqaADAU8udkag4TQpqgYEbnUNDG6B3MLMKXNNKW38SoLXfM7AilIKbm3WVYH2VvLIA3YybBSTd-JtTMadGriLbfICYqxFrilh0BlOTEQTLKxJ-XvAnBVTCkq6I7FNsIFMPPYlfpletIvt2A4ncFQnWT2gmRv_IWq6lKeQXVqDgDz0iyLRMhyKrjACVfSALHQZYDUbM0jca747ZBB-WvCqot7D6yymXHLpvPbOoUcwvd6b9-aHakwqF8AAlGmu1rJjVNnJd_voZKPGp_-VNEzlSj0G3gGbc7IzTDkUuS0-RtH7fUaAsH4OHoG-6zyyzkx8QngvY4kuDJj9FIB0Q9iAgqqROwuFsRM4OhS4RbAk6AoE3ydAy6A70MqXvR2UQ4s5Yh-MmEt0B8o5rd2_LloeI1t3GagaNLU5EWvX9ZDUYUQpVR0y3e1FvVi9tHWnyzznrT3mnj93HWs9z1WQ_dnxJzC35Q9u9YQCuziTtTtoold3FhPh4lo7H_WWpQC2gzYcXmu85Q2N3mcbHwnN_yGEHEmtTeLMd7-afmFYoWa0SP4je1Y3QPX68khnHKS446MuaFNSLUkiNIXArZXwuoLAEAzPDcaLbdUO_jUuyTr9-PVIgqKsgz_7HJp4mopFnOBEnFpbzDQES1wBF1Ht6yATs0MRE4J4siqAWtaQBYp0dbjLuEj2lotDAWFZT0dUgu_LMvRhb2wngYsvmhN-3aQh68NhPFUakkzfb98vxpI5eZLnjInvPAe1B3s5idlXfkWJN6MzdCC9BXvMNZxZdMn2mGGdovl8XdZMRu6r_pPY_9Dhd5QRaUnuBIxrdtlxhkMpxMrN9xKWnxNtDoywWjy-Xf6aZjy6pd8RolFlQEMzrhn-Iy5rtXu6zekK_kTE3MZ_yCPlfjJVU7Xl3pO_-4CtvFpG1xUfxcI8p0d-bga4ps3NbNmXAzaEV17LotZW6Nni_Qx3-I0QkTsQg5sWCsvW9Jr-N5QsAz6E_xftZ_kkjTbsnEnbOU3QVJCV1oz2dVuVPyD21khQK_8Q6unz0L85DUurX97_beDmzVhuHgan12MbLCue1sdqvlXmpYZD-P4_aCYVZktup8S89fuBOvVca-z8d_2JN6szLc1jWCvjvCHaxho-381Ex1lHlP26unIw5VlVm00]--></g></svg>