<?xml version="1.0" encoding="us-ascii" standalone="no"?><svg xmlns="http://www.w3.org/2000/svg" xmlns:xlink="http://www.w3.org/1999/xlink" contentStyleType="text/css" height="779.8px" preserveAspectRatio="none" style="width:767px;height:779px;background:#FFFFFF;" version="1.1" viewBox="0 0 767 779" width="767.2px" zoomAndPan="magnify"><defs/><g><!--class Data--><g id="elem_Data"><rect codeLine="3" fill="#F1F1F1" height="91.0219" id="Data" rx="1.75" ry="1.75" style="stroke:#181818;stroke-width:0.3499999999999999;" width="114.8" x="286.65" y="4.9"/><ellipse cx="330.575" cy="16.1" fill="#ADD1B2" rx="7.7" ry="7.7" style="stroke:#181818;stroke-width:0.6999999999999998;"/><path d="M330.6078,20.4422 C331.6578,20.4422 332.5219,20.0484 333.1562,19.3047 L332.1937,18.2437 C331.8109,18.6594 331.3516,18.9328 330.7937,18.9328 C329.6234,18.9328 328.8141,18.0031 328.8141,16.4062 C328.8141,14.8531 329.6234,13.9125 330.7172,13.9125 C331.2859,13.9125 331.7016,14.1312 332.0734,14.4703 L333.0359,13.3875 C332.5109,12.8734 331.7016,12.4031 330.7172,12.4031 C328.65,12.4031 327.0203,13.9016 327.0203,16.4719 C327.0203,19.075 328.6828,20.4422 330.6078,20.4422 Z " fill="#000000"/><text fill="#000000" font-family="sans-serif" font-size="9.8" lengthAdjust="spacing" textLength="21" x="344.925" y="19.4496">Data</text><line style="stroke:#181818;stroke-width:0.3499999999999999;" x1="287.35" x2="400.75" y1="27.3" y2="27.3"/><text fill="#000000" font-family="sans-serif" font-size="9.8" lengthAdjust="spacing" textLength="91.7" x="290.85" y="39.1918">metadata : Metadata</text><text fill="#000000" font-family="sans-serif" font-size="9.8" lengthAdjust="spacing" textLength="55.3" x="290.85" y="50.6762">options : dict</text><text fill="#000000" font-family="sans-serif" font-size="9.8" lengthAdjust="spacing" textLength="79.1" x="290.85" y="62.1605">_data : np.ndarray</text><text fill="#000000" font-family="sans-serif" font-size="9.8" lengthAdjust="spacing" textLength="106.4" x="290.85" y="73.6449">_importer : DataImporter</text><line style="stroke:#181818;stroke-width:0.3499999999999999;" x1="287.35" x2="400.75" y1="78.8375" y2="78.8375"/><text fill="#000000" font-family="sans-serif" font-size="9.8" lengthAdjust="spacing" textLength="27.3" x="290.85" y="90.7293">data()</text></g><!--class Metadata--><g id="elem_Metadata"><rect codeLine="93" fill="#F1F1F1" height="56.5687" id="Metadata" rx="1.75" ry="1.75" style="stroke:#181818;stroke-width:0.3499999999999999;" width="65.1" x="435.4" y="22.05"/><ellipse cx="445.9" cy="33.25" fill="#ADD1B2" rx="7.7" ry="7.7" style="stroke:#181818;stroke-width:0.6999999999999998;"/><path d="M445.9328,37.5922 C446.9828,37.5922 447.8469,37.1984 448.4812,36.4547 L447.5187,35.3937 C447.1359,35.8094 446.6766,36.0828 446.1187,36.0828 C444.9484,36.0828 444.1391,35.1531 444.1391,33.5562 C444.1391,32.0031 444.9484,31.0625 446.0422,31.0625 C446.6109,31.0625 447.0266,31.2812 447.3984,31.6203 L448.3609,30.5375 C447.8359,30.0234 447.0266,29.5531 446.0422,29.5531 C443.975,29.5531 442.3453,31.0516 442.3453,33.6219 C442.3453,36.225 444.0078,37.5922 445.9328,37.5922 Z " fill="#000000"/><text fill="#000000" font-family="sans-serif" font-size="9.8" lengthAdjust="spacing" textLength="42.7" x="455.7" y="36.5996">Metadata</text><line style="stroke:#181818;stroke-width:0.3499999999999999;" x1="436.1" x2="499.8" y1="44.45" y2="44.45"/><text fill="#000000" font-family="sans-serif" font-size="9.8" lengthAdjust="spacing" textLength="56" x="439.6" y="56.3418">name : string</text><text fill="#000000" font-family="sans-serif" font-size="9.8" lengthAdjust="spacing" textLength="55.3" x="439.6" y="67.8262">options : dict</text><line style="stroke:#181818;stroke-width:0.3499999999999999;" x1="436.1" x2="499.8" y1="73.0187" y2="73.0187"/></g><!--class MeasureData--><g id="elem_MeasureData"><rect codeLine="13" fill="#F1F1F1" height="45.0844" id="MeasureData" rx="1.75" ry="1.75" style="stroke:#181818;stroke-width:0.3499999999999999;" width="151.2" x="250.25" y="149.45"/><ellipse cx="293.475" cy="160.65" fill="#ADD1B2" rx="7.7" ry="7.7" style="stroke:#181818;stroke-width:0.6999999999999998;"/><path d="M293.5078,164.9922 C294.5578,164.9922 295.4219,164.5984 296.0562,163.8547 L295.0937,162.7937 C294.7109,163.2094 294.2516,163.4828 293.6937,163.4828 C292.5234,163.4828 291.7141,162.5531 291.7141,160.9562 C291.7141,159.4031 292.5234,158.4625 293.6172,158.4625 C294.1859,158.4625 294.6016,158.6812 294.9734,159.0203 L295.9359,157.9375 C295.4109,157.4234 294.6016,156.9531 293.6172,156.9531 C291.55,156.9531 289.9203,158.4516 289.9203,161.0219 C289.9203,163.625 291.5828,164.9922 293.5078,164.9922 Z " fill="#000000"/><text fill="#000000" font-family="sans-serif" font-size="9.8" lengthAdjust="spacing" textLength="58.8" x="307.825" y="163.9996">MeasureData</text><line style="stroke:#181818;stroke-width:0.3499999999999999;" x1="250.95" x2="400.75" y1="171.85" y2="171.85"/><text fill="#000000" font-family="sans-serif" font-size="9.8" lengthAdjust="spacing" textLength="142.8" x="254.45" y="183.7418">positions : np.ndarray(dtype=int)</text><line style="stroke:#181818;stroke-width:0.3499999999999999;" x1="250.95" x2="400.75" y1="188.9344" y2="188.9344"/></g><!--class MeasureMetadata--><g id="elem_MeasureMetadata"><rect codeLine="98" fill="#F1F1F1" height="45.0844" id="MeasureMetadata" rx="1.75" ry="1.75" style="stroke:#181818;stroke-width:0.3499999999999999;" width="102.9" x="426.3" y="149.45"/><ellipse cx="436.8" cy="160.65" fill="#ADD1B2" rx="7.7" ry="7.7" style="stroke:#181818;stroke-width:0.6999999999999998;"/><path d="M436.8328,164.9922 C437.8828,164.9922 438.7469,164.5984 439.3812,163.8547 L438.4187,162.7937 C438.0359,163.2094 437.5766,163.4828 437.0187,163.4828 C435.8484,163.4828 435.0391,162.5531 435.0391,160.9562 C435.0391,159.4031 435.8484,158.4625 436.9422,158.4625 C437.5109,158.4625 437.9266,158.6812 438.2984,159.0203 L439.2609,157.9375 C438.7359,157.4234 437.9266,156.9531 436.9422,156.9531 C434.875,156.9531 433.2453,158.4516 433.2453,161.0219 C433.2453,163.625 434.9078,164.9922 436.8328,164.9922 Z " fill="#000000"/><text fill="#000000" font-family="sans-serif" font-size="9.8" lengthAdjust="spacing" textLength="80.5" x="446.6" y="163.9996">MeasureMetadata</text><line style="stroke:#181818;stroke-width:0.3499999999999999;" x1="427" x2="528.5" y1="171.85" y2="171.85"/><text fill="#000000" font-family="sans-serif" font-size="9.8" lengthAdjust="spacing" textLength="48.3" x="430.5" y="183.7418">unit : string</text><line style="stroke:#181818;stroke-width:0.3499999999999999;" x1="427" x2="528.5" y1="188.9344" y2="188.9344"/></g><!--class ChannelData--><g id="elem_ChannelData"><rect codeLine="19" fill="#F1F1F1" height="33.6" id="ChannelData" rx="1.75" ry="1.75" style="stroke:#181818;stroke-width:0.3499999999999999;" width="79.1" x="448.7" y="247.8"/><ellipse cx="459.2" cy="259" fill="#ADD1B2" rx="7.7" ry="7.7" style="stroke:#181818;stroke-width:0.6999999999999998;"/><path d="M459.2328,263.3422 C460.2828,263.3422 461.1469,262.9484 461.7812,262.2047 L460.8187,261.1437 C460.4359,261.5594 459.9766,261.8328 459.4187,261.8328 C458.2484,261.8328 457.4391,260.9031 457.4391,259.3062 C457.4391,257.7531 458.2484,256.8125 459.3422,256.8125 C459.9109,256.8125 460.3266,257.0312 460.6984,257.3703 L461.6609,256.2875 C461.1359,255.7734 460.3266,255.3031 459.3422,255.3031 C457.275,255.3031 455.6453,256.8016 455.6453,259.3719 C455.6453,261.975 457.3078,263.3422 459.2328,263.3422 Z " fill="#000000"/><text fill="#000000" font-family="sans-serif" font-size="9.8" lengthAdjust="spacing" textLength="56.7" x="469" y="262.3496">ChannelData</text><line style="stroke:#181818;stroke-width:0.3499999999999999;" x1="449.4" x2="527.1" y1="270.2" y2="270.2"/><line style="stroke:#181818;stroke-width:0.3499999999999999;" x1="449.4" x2="527.1" y1="275.8" y2="275.8"/></g><!--class ChannelMetadata--><g id="elem_ChannelMetadata"><rect codeLine="110" fill="#F1F1F1" height="33.6" id="ChannelMetadata" rx="1.75" ry="1.75" style="stroke:#181818;stroke-width:0.3499999999999999;" width="100.8" x="552.65" y="247.8"/><ellipse cx="563.15" cy="259" fill="#ADD1B2" rx="7.7" ry="7.7" style="stroke:#181818;stroke-width:0.6999999999999998;"/><path d="M563.1828,263.3422 C564.2328,263.3422 565.0969,262.9484 565.7312,262.2047 L564.7687,261.1437 C564.3859,261.5594 563.9266,261.8328 563.3687,261.8328 C562.1984,261.8328 561.3891,260.9031 561.3891,259.3062 C561.3891,257.7531 562.1984,256.8125 563.2922,256.8125 C563.8609,256.8125 564.2766,257.0312 564.6484,257.3703 L565.6109,256.2875 C565.0859,255.7734 564.2766,255.3031 563.2922,255.3031 C561.225,255.3031 559.5953,256.8016 559.5953,259.3719 C559.5953,261.975 561.2578,263.3422 563.1828,263.3422 Z " fill="#000000"/><text fill="#000000" font-family="sans-serif" font-size="9.8" lengthAdjust="spacing" textLength="78.4" x="572.95" y="262.3496">ChannelMetadata</text><line style="stroke:#181818;stroke-width:0.3499999999999999;" x1="553.35" x2="652.75" y1="270.2" y2="270.2"/><line style="stroke:#181818;stroke-width:0.3499999999999999;" x1="553.35" x2="652.75" y1="275.8" y2="275.8"/></g><!--class AreaChannelData--><g id="elem_AreaChannelData"><rect codeLine="23" fill="#F1F1F1" height="33.6" id="AreaChannelData" rx="1.75" ry="1.75" style="stroke:#181818;stroke-width:0.3499999999999999;" width="99.4" x="446.95" y="323.4"/><ellipse cx="457.45" cy="334.6" fill="#ADD1B2" rx="7.7" ry="7.7" style="stroke:#181818;stroke-width:0.6999999999999998;"/><path d="M457.4828,338.9422 C458.5328,338.9422 459.3969,338.5484 460.0312,337.8047 L459.0687,336.7437 C458.6859,337.1594 458.2266,337.4328 457.6687,337.4328 C456.4984,337.4328 455.6891,336.5031 455.6891,334.9062 C455.6891,333.3531 456.4984,332.4125 457.5922,332.4125 C458.1609,332.4125 458.5766,332.6312 458.9484,332.9703 L459.9109,331.8875 C459.3859,331.3734 458.5766,330.9031 457.5922,330.9031 C455.525,330.9031 453.8953,332.4016 453.8953,334.9719 C453.8953,337.575 455.5578,338.9422 457.4828,338.9422 Z " fill="#000000"/><text fill="#000000" font-family="sans-serif" font-size="9.8" lengthAdjust="spacing" textLength="77" x="467.25" y="337.9496">AreaChannelData</text><line style="stroke:#181818;stroke-width:0.3499999999999999;" x1="447.65" x2="545.65" y1="345.8" y2="345.8"/><line style="stroke:#181818;stroke-width:0.3499999999999999;" x1="447.65" x2="545.65" y1="351.4" y2="351.4"/></g><!--class AreaChannelMetadata--><g id="elem_AreaChannelMetadata"><rect codeLine="112" fill="#F1F1F1" height="33.6" id="AreaChannelMetadata" rx="1.75" ry="1.75" style="stroke:#181818;stroke-width:0.3499999999999999;" width="121.1" x="571.2" y="323.4"/><ellipse cx="581.7" cy="334.6" fill="#ADD1B2" rx="7.7" ry="7.7" style="stroke:#181818;stroke-width:0.6999999999999998;"/><path d="M581.7328,338.9422 C582.7828,338.9422 583.6469,338.5484 584.2812,337.8047 L583.3187,336.7437 C582.9359,337.1594 582.4766,337.4328 581.9187,337.4328 C580.7484,337.4328 579.9391,336.5031 579.9391,334.9062 C579.9391,333.3531 580.7484,332.4125 581.8422,332.4125 C582.4109,332.4125 582.8266,332.6312 583.1984,332.9703 L584.1609,331.8875 C583.6359,331.3734 582.8266,330.9031 581.8422,330.9031 C579.775,330.9031 578.1453,332.4016 578.1453,334.9719 C578.1453,337.575 579.8078,338.9422 581.7328,338.9422 Z " fill="#000000"/><text fill="#000000" font-family="sans-serif" font-size="9.8" lengthAdjust="spacing" textLength="98.7" x="591.5" y="337.9496">AreaChannelMetadata</text><line style="stroke:#181818;stroke-width:0.3499999999999999;" x1="571.9" x2="691.6" y1="345.8" y2="345.8"/><line style="stroke:#181818;stroke-width:0.3499999999999999;" x1="571.9" x2="691.6" y1="351.4" y2="351.4"/></g><!--class ScientificCameraData--><g id="elem_ScientificCameraData"><rect codeLine="27" fill="#F1F1F1" height="91.0219" id="ScientificCameraData" rx="1.75" ry="1.75" style="stroke:#181818;stroke-width:0.3499999999999999;" width="195.3" x="403.9" y="467.95"/><ellipse cx="451.325" cy="479.15" fill="#ADD1B2" rx="7.7" ry="7.7" style="stroke:#181818;stroke-width:0.6999999999999998;"/><path d="M451.3578,483.4922 C452.4078,483.4922 453.2719,483.0984 453.9062,482.3547 L452.9437,481.2937 C452.5609,481.7094 452.1016,481.9828 451.5437,481.9828 C450.3734,481.9828 449.5641,481.0531 449.5641,479.4562 C449.5641,477.9031 450.3734,476.9625 451.4672,476.9625 C452.0359,476.9625 452.4516,477.1812 452.8234,477.5203 L453.7859,476.4375 C453.2609,475.9234 452.4516,475.4531 451.4672,475.4531 C449.4,475.4531 447.7703,476.9516 447.7703,479.5219 C447.7703,482.125 449.4328,483.4922 451.3578,483.4922 Z " fill="#000000"/><text fill="#000000" font-family="sans-serif" font-size="9.8" lengthAdjust="spacing" textLength="94.5" x="465.675" y="482.4996">ScientificCameraData</text><line style="stroke:#181818;stroke-width:0.3499999999999999;" x1="404.6" x2="598.5" y1="490.35" y2="490.35"/><text fill="#000000" font-family="sans-serif" font-size="9.8" lengthAdjust="spacing" textLength="133.7" x="408.1" y="502.2418">roi[] : ScientificCameraROIData</text><text fill="#000000" font-family="sans-serif" font-size="9.8" lengthAdjust="spacing" textLength="186.9" x="408.1" y="513.7262">statistics[] : ScientificCameraStatisticsData</text><text fill="#000000" font-family="sans-serif" font-size="9.8" lengthAdjust="spacing" textLength="136.5" x="408.1" y="525.2105">acquire_time : float | np.ndarray</text><text fill="#000000" font-family="sans-serif" font-size="9.8" lengthAdjust="spacing" textLength="165.9" x="408.1" y="536.6949">temperature : np.ndarray(dtype=float)</text><text fill="#000000" font-family="sans-serif" font-size="9.8" lengthAdjust="spacing" textLength="149.8" x="408.1" y="548.1793">humidity : np.ndarray(dtype=float)</text><line style="stroke:#181818;stroke-width:0.3499999999999999;" x1="404.6" x2="598.5" y1="553.3719" y2="553.3719"/></g><g id="elem_GMN19"><path d="M401.45,669.9 L401.45,775.2005 A0,0 0 0 0 401.45,775.2005 L628.25,775.2005 A0,0 0 0 0 628.25,775.2005 L628.25,676.9 L621.25,669.9 L514.325,669.9 L504.434,559.188 L508.725,669.9 L401.45,669.9 A0,0 0 0 0 401.45,669.9 " fill="#FEFFDD" style="stroke:#181818;stroke-width:0.3499999999999999;"/><path d="M621.25,669.9 L621.25,676.9 L628.25,676.9 L621.25,669.9 " fill="#FEFFDD" style="stroke:#181818;stroke-width:0.3499999999999999;"/><text fill="#000000" font-family="sans-serif" font-size="9.1" lengthAdjust="spacing" textLength="201.6" x="405.65" y="681.8424">acquire_time can be a static or dynamic parameter.</text><text fill="#000000" font-family="sans-serif" font-size="9.1" lengthAdjust="spacing" textLength="2.1" x="405.65" y="692.5064">&#160;</text><text fill="#000000" font-family="sans-serif" font-size="9.1" lengthAdjust="spacing" textLength="96.6" x="405.65" y="703.9452">What about the different</text><text fill="#000000" font-family="monospace" font-size="9.1" lengthAdjust="spacing" textLength="61.6" x="504.35" y="703.6825">temperature</text><text fill="#000000" font-family="sans-serif" font-size="9.1" lengthAdjust="spacing" textLength="49.7" x="568.05" y="703.9452">parameters?</text><text fill="#000000" font-family="sans-serif" font-size="9.1" lengthAdjust="spacing" textLength="32.2" x="405.65" y="715.3839">There is</text><text fill="#000000" font-family="monospace" font-size="9.1" lengthAdjust="spacing" textLength="61.6" x="439.95" y="715.1212">Temperature</text><text fill="#000000" font-family="sans-serif" font-size="9.1" lengthAdjust="spacing" textLength="2.1" x="501.55" y="715.3839">,</text><text fill="#000000" font-family="monospace" font-size="9.1" lengthAdjust="spacing" textLength="95.2" x="505.75" y="715.1212">TemperatureActual</text><text fill="#000000" font-family="sans-serif" font-size="9.1" lengthAdjust="spacing" textLength="2.1" x="600.95" y="715.3839">,</text><text fill="#000000" font-family="monospace" font-size="9.1" lengthAdjust="spacing" textLength="84" x="405.65" y="726.56">Temperature_RBV</text><text fill="#000000" font-family="sans-serif" font-size="9.1" lengthAdjust="spacing" textLength="61.6" x="491.75" y="726.8226">and sometimes</text><text fill="#000000" font-family="monospace" font-size="9.1" lengthAdjust="spacing" textLength="56" x="555.45" y="726.56">XXX_Cooler</text><text fill="#000000" font-family="sans-serif" font-size="9.1" lengthAdjust="spacing" textLength="2.1" x="611.45" y="726.8226">.</text><text fill="#000000" font-family="sans-serif" font-size="9.1" lengthAdjust="spacing" textLength="2.1" x="405.65" y="737.4866">&#160;</text><text fill="#000000" font-family="sans-serif" font-size="9.1" lengthAdjust="spacing" textLength="207.2" x="405.65" y="748.1507">For Pilatus, there seem to be three temperatures and</text><text fill="#000000" font-family="sans-serif" font-size="9.1" lengthAdjust="spacing" textLength="196.7" x="405.65" y="758.8148">three humidity detectors. Are all these values read</text><text fill="#000000" font-family="sans-serif" font-size="9.1" lengthAdjust="spacing" textLength="122.5" x="405.65" y="769.4788">for each PositionCount/image?</text></g><!--class ScientificCameraMetadata--><g id="elem_ScientificCameraMetadata"><rect codeLine="114" fill="#F1F1F1" height="79.5375" id="ScientificCameraMetadata" rx="1.75" ry="1.75" style="stroke:#181818;stroke-width:0.3499999999999999;" width="138.6" x="624.05" y="473.55"/><ellipse cx="634.55" cy="484.75" fill="#ADD1B2" rx="7.7" ry="7.7" style="stroke:#181818;stroke-width:0.6999999999999998;"/><path d="M634.5828,489.0922 C635.6328,489.0922 636.4969,488.6984 637.1312,487.9547 L636.1687,486.8937 C635.7859,487.3094 635.3266,487.5828 634.7687,487.5828 C633.5984,487.5828 632.7891,486.6531 632.7891,485.0562 C632.7891,483.5031 633.5984,482.5625 634.6922,482.5625 C635.2609,482.5625 635.6766,482.7812 636.0484,483.1203 L637.0109,482.0375 C636.4859,481.5234 635.6766,481.0531 634.6922,481.0531 C632.625,481.0531 630.9953,482.5516 630.9953,485.1219 C630.9953,487.725 632.6578,489.0922 634.5828,489.0922 Z " fill="#000000"/><text fill="#000000" font-family="sans-serif" font-size="9.8" lengthAdjust="spacing" textLength="116.2" x="644.35" y="488.0996">ScientificCameraMetadata</text><line style="stroke:#181818;stroke-width:0.3499999999999999;" x1="624.75" x2="761.95" y1="495.95" y2="495.95"/><text fill="#000000" font-family="sans-serif" font-size="9.8" lengthAdjust="spacing" textLength="45.5" x="628.25" y="507.8418">gain : float</text><text fill="#000000" font-family="sans-serif" font-size="9.8" lengthAdjust="spacing" textLength="81.9" x="628.25" y="519.3262">reverse_x : boolean</text><text fill="#000000" font-family="sans-serif" font-size="9.8" lengthAdjust="spacing" textLength="81.9" x="628.25" y="530.8105">reverse_y : boolean</text><text fill="#000000" font-family="sans-serif" font-size="9.8" lengthAdjust="spacing" textLength="63" x="628.25" y="542.2949">filetype : string</text><line style="stroke:#181818;stroke-width:0.3499999999999999;" x1="624.75" x2="761.95" y1="547.4875" y2="547.4875"/></g><!--class ScientificCameraStatisticsData--><g id="elem_ScientificCameraStatisticsData"><rect codeLine="72" fill="#F1F1F1" height="228.8344" id="ScientificCameraStatisticsData" rx="1.75" ry="1.75" style="stroke:#181818;stroke-width:0.3499999999999999;" width="200.9" x="4.9" y="399"/><ellipse cx="34.93" cy="410.2" fill="#ADD1B2" rx="7.7" ry="7.7" style="stroke:#181818;stroke-width:0.6999999999999998;"/><path d="M34.9628,414.5422 C36.0128,414.5422 36.8769,414.1484 37.5112,413.4047 L36.5487,412.3437 C36.1659,412.7594 35.7066,413.0328 35.1487,413.0328 C33.9784,413.0328 33.1691,412.1031 33.1691,410.5062 C33.1691,408.9531 33.9784,408.0125 35.0722,408.0125 C35.6409,408.0125 36.0566,408.2312 36.4284,408.5703 L37.3909,407.4875 C36.8659,406.9734 36.0566,406.5031 35.0722,406.5031 C33.005,406.5031 31.3753,408.0016 31.3753,410.5719 C31.3753,413.175 33.0378,414.5422 34.9628,414.5422 Z " fill="#000000"/><text fill="#000000" font-family="sans-serif" font-size="9.8" lengthAdjust="spacing" textLength="135.1" x="49.07" y="413.5496">ScientificCameraStatisticsData</text><line style="stroke:#181818;stroke-width:0.3499999999999999;" x1="5.6" x2="205.1" y1="421.4" y2="421.4"/><text fill="#000000" font-family="sans-serif" font-size="9.8" lengthAdjust="spacing" textLength="98.7" x="9.1" y="433.2918">background_width : int</text><text fill="#000000" font-family="sans-serif" font-size="9.8" lengthAdjust="spacing" textLength="155.4" x="9.1" y="444.7762">min_value : np.ndarray(dtype=float)</text><text fill="#000000" font-family="sans-serif" font-size="9.8" lengthAdjust="spacing" textLength="137.2" x="9.1" y="456.2605">min_x : np.ndarray(dtype=float)</text><text fill="#000000" font-family="sans-serif" font-size="9.8" lengthAdjust="spacing" textLength="137.2" x="9.1" y="467.7449">min_y : np.ndarray(dtype=float)</text><text fill="#000000" font-family="sans-serif" font-size="9.8" lengthAdjust="spacing" textLength="158.2" x="9.1" y="479.2293">max_value : np.ndarray(dtype=float)</text><text fill="#000000" font-family="sans-serif" font-size="9.8" lengthAdjust="spacing" textLength="140" x="9.1" y="490.7137">max_x : np.ndarray(dtype=float)</text><text fill="#000000" font-family="sans-serif" font-size="9.8" lengthAdjust="spacing" textLength="140" x="9.1" y="502.198">max_y : np.ndarray(dtype=float)</text><text fill="#000000" font-family="sans-serif" font-size="9.8" lengthAdjust="spacing" textLength="136.5" x="9.1" y="513.6824">mean : np.ndarray(dtype=float)</text><text fill="#000000" font-family="sans-serif" font-size="9.8" lengthAdjust="spacing" textLength="132.3" x="9.1" y="525.1668">total : np.ndarray(dtype=float)</text><text fill="#000000" font-family="sans-serif" font-size="9.8" lengthAdjust="spacing" textLength="126" x="9.1" y="536.6512">net : np.ndarray(dtype=float)</text><text fill="#000000" font-family="sans-serif" font-size="9.8" lengthAdjust="spacing" textLength="138.6" x="9.1" y="548.1355">sigma : np.ndarray(dtype=float)</text><text fill="#000000" font-family="sans-serif" font-size="9.8" lengthAdjust="spacing" textLength="107.8" x="9.1" y="559.6199">centroid_threshold : float</text><text fill="#000000" font-family="sans-serif" font-size="9.8" lengthAdjust="spacing" textLength="156.8" x="9.1" y="571.1043">centroid_x : np.ndarray(dtype=float)</text><text fill="#000000" font-family="sans-serif" font-size="9.8" lengthAdjust="spacing" textLength="156.8" x="9.1" y="582.5887">centroid_y : np.ndarray(dtype=float)</text><text fill="#000000" font-family="sans-serif" font-size="9.8" lengthAdjust="spacing" textLength="187.6" x="9.1" y="594.073">centroid_sigma_x : np.ndarray(dtype=float)</text><text fill="#000000" font-family="sans-serif" font-size="9.8" lengthAdjust="spacing" textLength="187.6" x="9.1" y="605.5574">centroid_sigma_y : np.ndarray(dtype=float)</text><text fill="#000000" font-family="sans-serif" font-size="9.8" lengthAdjust="spacing" textLength="192.5" x="9.1" y="617.0418">centroid_sigma_xy : np.ndarray(dtype=float)</text><line style="stroke:#181818;stroke-width:0.3499999999999999;" x1="5.6" x2="205.1" y1="622.2344" y2="622.2344"/></g><!--class ScientificCameraROIData--><g id="elem_ScientificCameraROIData"><rect codeLine="54" fill="#F1F1F1" height="102.5062" id="ScientificCameraROIData" rx="1.75" ry="1.75" style="stroke:#181818;stroke-width:0.3499999999999999;" width="148.4" x="230.65" y="462.35"/><ellipse cx="248.08" cy="473.55" fill="#ADD1B2" rx="7.7" ry="7.7" style="stroke:#181818;stroke-width:0.6999999999999998;"/><path d="M248.1128,477.8922 C249.1628,477.8922 250.0269,477.4984 250.6612,476.7547 L249.6987,475.6937 C249.3159,476.1094 248.8566,476.3828 248.2987,476.3828 C247.1284,476.3828 246.3191,475.4531 246.3191,473.8562 C246.3191,472.3031 247.1284,471.3625 248.2222,471.3625 C248.7909,471.3625 249.2066,471.5812 249.5784,471.9203 L250.5409,470.8375 C250.0159,470.3234 249.2066,469.8531 248.2222,469.8531 C246.155,469.8531 244.5253,471.3516 244.5253,473.9219 C244.5253,476.525 246.1878,477.8922 248.1128,477.8922 Z " fill="#000000"/><text fill="#000000" font-family="sans-serif" font-size="9.8" lengthAdjust="spacing" textLength="110.6" x="259.42" y="476.8996">ScientificCameraROIData</text><line style="stroke:#181818;stroke-width:0.3499999999999999;" x1="231.35" x2="378.35" y1="484.75" y2="484.75"/><text fill="#000000" font-family="sans-serif" font-size="9.8" lengthAdjust="spacing" textLength="51.8" x="234.85" y="496.6418">label : string</text><text fill="#000000" font-family="sans-serif" font-size="9.8" lengthAdjust="spacing" textLength="133.7" x="234.85" y="508.1262">marker : np.ndarray(dtype=int)</text><text fill="#000000" font-family="sans-serif" font-size="9.8" lengthAdjust="spacing" textLength="137.2" x="234.85" y="519.6105">min_x : np.ndarray(dtype=float)</text><text fill="#000000" font-family="sans-serif" font-size="9.8" lengthAdjust="spacing" textLength="137.2" x="234.85" y="531.0949">min_y : np.ndarray(dtype=float)</text><text fill="#000000" font-family="sans-serif" font-size="9.8" lengthAdjust="spacing" textLength="140" x="234.85" y="542.5793">max_x : np.ndarray(dtype=float)</text><text fill="#000000" font-family="sans-serif" font-size="9.8" lengthAdjust="spacing" textLength="140" x="234.85" y="554.0637">max_y : np.ndarray(dtype=float)</text><line style="stroke:#181818;stroke-width:0.3499999999999999;" x1="231.35" x2="378.35" y1="559.2562" y2="559.2562"/></g><g id="elem_GMN32"><path d="M206.5,681.45 L206.5,763.0984 A0,0 0 0 0 206.5,763.0984 L376.6,763.0984 A0,0 0 0 0 376.6,763.0984 L376.6,688.45 L369.6,681.45 L296.933,681.45 L301.616,564.655 L291.333,681.45 L206.5,681.45 A0,0 0 0 0 206.5,681.45 " fill="#FEFFDD" style="stroke:#181818;stroke-width:0.3499999999999999;"/><path d="M369.6,681.45 L369.6,688.45 L376.6,688.45 L369.6,681.45 " fill="#FEFFDD" style="stroke:#181818;stroke-width:0.3499999999999999;"/><text fill="#000000" font-family="sans-serif" font-size="9.1" lengthAdjust="spacing" textLength="155.4" x="210.7" y="693.3924">Marker should be a four-element vector</text><text fill="#000000" font-family="sans-serif" font-size="9.1" lengthAdjust="spacing" textLength="139.3" x="210.7" y="704.0564">with coordinates of the image area.</text><text fill="#000000" font-family="sans-serif" font-size="9.1" lengthAdjust="spacing" textLength="106.4" x="210.7" y="714.7205">Is "marker" the best name?</text><text fill="#000000" font-family="sans-serif" font-size="9.1" lengthAdjust="spacing" textLength="2.1" x="210.7" y="725.3846">&#160;</text><text fill="#000000" font-family="sans-serif" font-size="9.1" lengthAdjust="spacing" textLength="144.9" x="210.7" y="736.0486">What other attributes are relevant for</text><text fill="#000000" font-family="sans-serif" font-size="9.1" lengthAdjust="spacing" textLength="78.4" x="210.7" y="746.7127">Area Channel ROIs?</text><text fill="#000000" font-family="sans-serif" font-size="9.1" lengthAdjust="spacing" textLength="133" x="210.7" y="757.3768">How about binning and reversing?</text></g><!--class DeviceMetadata--><g id="elem_DeviceMetadata"><rect codeLine="102" fill="#F1F1F1" height="68.0531" id="DeviceMetadata" rx="1.75" ry="1.75" style="stroke:#181818;stroke-width:0.3499999999999999;" width="98.7" x="553.7" y="137.9"/><ellipse cx="568.295" cy="149.1" fill="#B4A7E5" rx="7.7" ry="7.7" style="stroke:#181818;stroke-width:0.6999999999999998;"/><path d="M565.6809,153.3 L571.0512,153.3 L571.0512,151.8234 L569.2466,151.8234 L569.2466,147.0219 L571.0512,147.0219 L571.0512,145.5453 L565.6809,145.5453 L565.6809,147.0219 L567.4856,147.0219 L567.4856,151.8234 L565.6809,151.8234 L565.6809,153.3 Z " fill="#000000"/><text fill="#000000" font-family="sans-serif" font-size="9.8" font-style="italic" lengthAdjust="spacing" textLength="67.2" x="579.005" y="152.4496">DeviceMetadata</text><line style="stroke:#181818;stroke-width:0.3499999999999999;" x1="554.4" x2="651.7" y1="160.3" y2="160.3"/><text fill="#000000" font-family="sans-serif" font-size="9.8" lengthAdjust="spacing" textLength="39.2" x="557.9" y="172.1918">id : string</text><text fill="#000000" font-family="sans-serif" font-size="9.8" lengthAdjust="spacing" textLength="42" x="557.9" y="183.6762">pv : string</text><text fill="#000000" font-family="sans-serif" font-size="9.8" lengthAdjust="spacing" textLength="90.3" x="557.9" y="195.1605">access_mode : string</text><line style="stroke:#181818;stroke-width:0.3499999999999999;" x1="554.4" x2="651.7" y1="200.3531" y2="200.3531"/></g><!--reverse link Data to Metadata--><g id="link_Data_Metadata"><path codeLine="11" d="M410.046,50.4 C421.267,50.4 424.088,50.4 435.316,50.4 " fill="none" id="Data-backto-Metadata" style="stroke:#181818;stroke-width:0.6999999999999998;"/><polygon fill="#181818" points="401.646,50.4,405.846,53.2,410.046,50.4,405.846,47.6,401.646,50.4" style="stroke:#181818;stroke-width:0.6999999999999998;"/></g><!--reverse link Data to MeasureData--><g id="link_Data_MeasureData"><path d="M335.333,108.6032 C332.575,126.8312 331.394,134.575 329.147,149.415 " fill="none" id="Data-backto-MeasureData" style="stroke:#181818;stroke-width:0.6999999999999998;"/><polygon fill="none" points="337.218,96.145,331.1803,107.9749,339.4857,109.2315,337.218,96.145" style="stroke:#181818;stroke-width:0.6999999999999998;"/></g><!--reverse link MeasureData to MeasureMetadata--><g id="link_MeasureData_MeasureMetadata"><path codeLine="17" d="M409.906,171.85 C418.145,171.85 417.984,171.85 426.223,171.85 " fill="none" id="MeasureData-backto-MeasureMetadata" style="stroke:#181818;stroke-width:0.6999999999999998;"/><polygon fill="#181818" points="401.506,171.85,405.706,174.65,409.906,171.85,405.706,169.05,401.506,171.85" style="stroke:#181818;stroke-width:0.6999999999999998;"/></g><!--reverse link MeasureData to ChannelData--><g id="link_MeasureData_ChannelData"><path d="M375.5273,200.4913 C404.7033,216.9063 433.097,232.876 459.515,247.737 " fill="none" id="MeasureData-backto-ChannelData" style="stroke:#181818;stroke-width:0.6999999999999998;"/><polygon fill="none" points="364.546,194.313,373.4679,204.1517,377.5867,196.8309,364.546,194.313" style="stroke:#181818;stroke-width:0.6999999999999998;"/></g><!--reverse link ChannelData to ChannelMetadata--><g id="link_ChannelData_ChannelMetadata"><path codeLine="21" d="M536.34,264.6 C544.551,264.6 544.369,264.6 552.58,264.6 " fill="none" id="ChannelData-backto-ChannelMetadata" style="stroke:#181818;stroke-width:0.6999999999999998;"/><polygon fill="#181818" points="527.94,264.6,532.14,267.4,536.34,264.6,532.14,261.8,527.94,264.6" style="stroke:#181818;stroke-width:0.6999999999999998;"/></g><!--reverse link ChannelData to AreaChannelData--><g id="link_ChannelData_AreaChannelData"><path d="M491.4879,293.92 C492.8879,306.282 493.395,310.758 494.802,323.176 " fill="none" id="ChannelData-backto-AreaChannelData" style="stroke:#181818;stroke-width:0.6999999999999998;"/><polygon fill="none" points="490.07,281.4,487.3146,294.3926,495.6612,293.4473,490.07,281.4" style="stroke:#181818;stroke-width:0.6999999999999998;"/></g><!--reverse link AreaChannelData to AreaChannelMetadata--><g id="link_AreaChannelData_AreaChannelMetadata"><path codeLine="25" d="M554.918,340.2 C563.136,340.2 562.947,340.2 571.158,340.2 " fill="none" id="AreaChannelData-backto-AreaChannelMetadata" style="stroke:#181818;stroke-width:0.6999999999999998;"/><polygon fill="#181818" points="546.518,340.2,550.718,343,554.918,340.2,550.718,337.4,546.518,340.2" style="stroke:#181818;stroke-width:0.6999999999999998;"/></g><!--reverse link AreaChannelData to ScientificCameraData--><g id="link_AreaChannelData_ScientificCameraData"><path d="M497.4702,369.6649 C498.1842,394.7669 499.233,431.438 500.269,467.852 " fill="none" id="AreaChannelData-backto-ScientificCameraData" style="stroke:#181818;stroke-width:0.6999999999999998;"/><polygon fill="none" points="497.112,357.07,493.2719,369.7843,501.6686,369.5455,497.112,357.07" style="stroke:#181818;stroke-width:0.6999999999999998;"/></g><!--reverse link ScientificCameraData to ScientificCameraMetadata--><g id="link_ScientificCameraData_ScientificCameraMetadata"><path codeLine="46" d="M607.726,513.45 C615.923,513.45 615.727,513.45 623.931,513.45 " fill="none" id="ScientificCameraData-backto-ScientificCameraMetadata" style="stroke:#181818;stroke-width:0.6999999999999998;"/><polygon fill="#181818" points="599.326,513.45,603.526,516.25,607.726,513.45,603.526,510.65,599.326,513.45" style="stroke:#181818;stroke-width:0.6999999999999998;"/></g><!--link ScientificCameraStatisticsData to ScientificCameraROIData--><!--link ScientificCameraStatisticsData to ScientificCameraData--><g id="link_ScientificCameraStatisticsData_ScientificCameraData"><path codeLine="49" d="M195.706,398.895 C206.5,390.572 218.064,383.362 230.3,378 C290.717,351.54 318.395,351.281 378.7,378 C419.916,396.263 448.4983,428.9835 469.9743,460.7005 " fill="none" id="ScientificCameraStatisticsData-to-ScientificCameraData" style="stroke:#181818;stroke-width:0.6999999999999998;"/><polygon fill="#181818" points="474.684,467.656,474.6477,462.6084,469.9743,460.7005,470.0107,465.7481,474.684,467.656" style="stroke:#181818;stroke-width:0.6999999999999998;"/><text fill="#000000" font-family="sans-serif" font-size="9.1" lengthAdjust="spacing" textLength="14" x="185.7436" y="391.0399">0..n</text></g><!--link ScientificCameraROIData to ScientificCameraData--><!--link ScientificCameraROIData to ScientificCameraData--><g id="link_ScientificCameraROIData_ScientificCameraData"><path codeLine="51" d="M379.19,513.45 C387.394,513.45 387.198,513.45 395.402,513.45 " fill="none" id="ScientificCameraROIData-to-ScientificCameraData-1" style="stroke:#181818;stroke-width:0.6999999999999998;"/><polygon fill="#181818" points="403.802,513.45,399.602,510.65,395.402,513.45,399.602,516.25,403.802,513.45" style="stroke:#181818;stroke-width:0.6999999999999998;"/><text fill="#000000" font-family="sans-serif" font-size="9.1" lengthAdjust="spacing" textLength="14" x="384.655" y="511.0349">0..n</text></g><!--link ScientificCameraROIData to ScientificCameraData--><!--reverse link MeasureData to ScientificCameraROIData--><g id="link_MeasureData_ScientificCameraROIData"><path d="M323.7298,206.9241 C320.4258,260.4531 312.62,386.904 307.965,462.322 " fill="none" id="MeasureData-backto-ScientificCameraROIData" style="stroke:#181818;stroke-width:0.6999999999999998;"/><polygon fill="none" points="324.506,194.348,319.5377,206.6653,327.9218,207.1828,324.506,194.348" style="stroke:#181818;stroke-width:0.6999999999999998;"/></g><!--reverse link MeasureData to ScientificCameraStatisticsData--><g id="link_MeasureData_ScientificCameraStatisticsData"><path d="M304.871,204.9214 C278.516,245.5844 227.045,324.996 179.095,398.965 " fill="none" id="MeasureData-backto-ScientificCameraStatisticsData" style="stroke:#181818;stroke-width:0.6999999999999998;"/><polygon fill="none" points="311.724,194.348,301.3466,202.6371,308.3955,207.2057,311.724,194.348" style="stroke:#181818;stroke-width:0.6999999999999998;"/></g><!--reverse link Metadata to MeasureMetadata--><g id="link_Metadata_MeasureMetadata"><path d="M471.2487,91.5043 C472.9987,112.9733 474.362,129.689 475.979,149.443 " fill="none" id="Metadata-backto-MeasureMetadata" style="stroke:#181818;stroke-width:0.6999999999999998;"/><polygon fill="none" points="470.225,78.946,467.0626,91.8456,475.4348,91.1631,470.225,78.946" style="stroke:#181818;stroke-width:0.6999999999999998;"/></g><!--link MeasureMetadata to DeviceMetadata--><!--reverse link MeasureMetadata to ChannelMetadata--><g id="link_MeasureMetadata_ChannelMetadata"><path d="M517.941,201.8541 C540.46,218.2691 560.602,232.953 580.937,247.779 " fill="none" id="MeasureMetadata-backto-ChannelMetadata" style="stroke:#181818;stroke-width:0.6999999999999998;"/><polygon fill="none" points="507.759,194.432,515.467,205.2481,520.415,198.4601,507.759,194.432" style="stroke:#181818;stroke-width:0.6999999999999998;"/></g><!--reverse link DeviceMetadata to ChannelMetadata--><g id="link_DeviceMetadata_ChannelMetadata"><path d="M603.05,218.645 C603.05,232.806 603.05,236.04 603.05,247.562 " fill="none" id="DeviceMetadata-backto-ChannelMetadata" style="stroke:#181818;stroke-width:0.6999999999999998;stroke-dasharray:7.0,7.0;"/><polygon fill="none" points="603.05,206.045,598.85,218.645,607.25,218.645,603.05,206.045" style="stroke:#181818;stroke-width:0.6999999999999998;"/></g><!--reverse link ChannelMetadata to AreaChannelMetadata--><g id="link_ChannelMetadata_AreaChannelMetadata"><path d="M613.825,293.1517 C618.606,305.5137 620.634,310.758 625.436,323.176 " fill="none" id="ChannelMetadata-backto-AreaChannelMetadata" style="stroke:#181818;stroke-width:0.6999999999999998;"/><polygon fill="none" points="609.28,281.4,609.9077,294.6667,617.7422,291.6367,609.28,281.4" style="stroke:#181818;stroke-width:0.6999999999999998;"/></g><!--reverse link AreaChannelMetadata to ScientificCameraMetadata--><g id="link_AreaChannelMetadata_ScientificCameraMetadata"><path d="M641.7984,368.9307 C651.2624,395.3277 666.05,436.583 679.238,473.382 " fill="none" id="AreaChannelMetadata-backto-ScientificCameraMetadata" style="stroke:#181818;stroke-width:0.6999999999999998;"/><polygon fill="none" points="637.546,357.07,637.8448,370.3482,645.752,367.5133,637.546,357.07" style="stroke:#181818;stroke-width:0.6999999999999998;"/></g><!--SRC=[jLPHRzis47xNho3yihQedJq7s8ekmR0y12lQOWjG5CQPF5b4AL8ZJqwCBlzzHqgsHKLEd7RratcyxxiZ-TtfVgg8cd1-TjOOiDJMPY5TVIODX31N6jOUwg98It491E9h8VXN8u6AotDntVzDTjUGTZQmMMb9oRJi_Mopi0gyXsrdrdNZFA7dhKXyrI_JPeIyU5dS5qMA-Mf-YDBdSeqGMezf6-y8hSho-rfgDEfUD2xeNKQ715uesZRuYxQKOWovKgYq74UygC1QD5d40R8eXWvCqo_7D6yzmXJLm5OKOoUc6vZ6b1-aHakwrF82QlIGyOwfkllnJd_wp7SoXhx_y-fozvQ1W7GWBSEawuVzzXu1yfzMUroIhf4HfN50uj_no-_UXh1kc8Vu0gTU9w5VPeYghRNIj7t4_RwmZb2i796hXIidB-TXiXAiMA60xj1IE2_KraBDVnlW4a1Mvg98kByhFXIiN4k2AcITboLw3Y5ciy69PhC3CBn9m8yL-maTsF7ZqF5rRdWhgGN3vWJAjfRlV_kBYS4g4HnJS-QHxURcPddXd44_c_L9_iu7UASDeyBhc2O73eYr81UFIPL77Dv_Y9m9s6tjBrfn_fAS3uie9076HBQ0OWEcPHYBgyEL7111Lk9TNt4NhhLqfcjOuvk2bIZYknJ5f5PPtcFxGUEFwqxCFrLQARIVVpqgvYSOPZyl5dOcvg-cjNA4zR70Z-9-KBWZlM07d-XOerPfO8M6AokGrtQTRTNWlwH6FTr2CrTjbtSdbdFqtPxg2tUdyxBlT_M8OHUyxiuUAjSQrVM8qhL-ZWRhMFMRL1_9zLPJ9QHpNcaBnDN1rB55f28GmBMoI7vNNBJTbSxI_We32MusN2Y73kDYrGeWVerL6yaOp-LcSCEVwLXkoJLszzsdGt3QVQlvmztsBMgbhUNdJ3t3uuQR4Q-61Jajcr6975VF2kINjUTQLyjRhVZyvu8ryU2PKxjuXYn-b8IUbSV_ABdC5_bZSvehEG9pegz5Ej4pw7KDJ_XAbWCF2MePFmWiVjP-_q7FgFPkfrxK7h1zBY1b_Vmu7UnReptUHWx3Q3yDTpKHIpblfAEn-7uqnUxnXphB25khwK38Q2unz2L859UuqH97_bhbuPjDlWOfCOHbxHHcjEDq1j-SFCve9fx8FoVYMRzhb-48qSHqEvwCdvfw7-2cEBlxMOEscPoxpeX9NQiuIO7DxDkHlTG6enI6j_SV]--></g></svg>