<?xml version="1.0" encoding="us-ascii" standalone="no"?><svg xmlns="http://www.w3.org/2000/svg" xmlns:xlink="http://www.w3.org/1999/xlink" contentStyleType="text/css" height="688.2px" preserveAspectRatio="none" style="width:545px;height:688px;background:#FFFFFF;" version="1.1" viewBox="0 0 545 688" width="545.4px" zoomAndPan="magnify"><defs/><g><!--class Data--><g id="elem_Data"><rect codeLine="3" fill="#F1F1F1" height="78.0188" id="Data" rx="1.5" ry="1.5" style="stroke:#181818;stroke-width:0.3;" width="98.4" x="227.7" y="4.2"/><ellipse cx="265.35" cy="13.8" fill="#ADD1B2" rx="6.6" ry="6.6" style="stroke:#181818;stroke-width:0.6;"/><path d="M265.3781,17.5219 C266.2781,17.5219 267.0188,17.1844 267.5625,16.5469 L266.7375,15.6375 C266.4094,15.9937 266.0156,16.2281 265.5375,16.2281 C264.5344,16.2281 263.8406,15.4312 263.8406,14.0625 C263.8406,12.7313 264.5344,11.925 265.4719,11.925 C265.9594,11.925 266.3156,12.1125 266.6344,12.4031 L267.4594,11.475 C267.0094,11.0344 266.3156,10.6313 265.4719,10.6313 C263.7,10.6313 262.3031,11.9156 262.3031,14.1188 C262.3031,16.35 263.7281,17.5219 265.3781,17.5219 Z " fill="#000000"/><text fill="#000000" font-family="sans-serif" font-size="8.4" lengthAdjust="spacing" textLength="18" x="277.65" y="16.6711">Data</text><line style="stroke:#181818;stroke-width:0.3;" x1="228.3" x2="325.5" y1="23.4" y2="23.4"/><text fill="#000000" font-family="sans-serif" font-size="8.4" lengthAdjust="spacing" textLength="78.6" x="231.3" y="33.593">metadata : Metadata</text><text fill="#000000" font-family="sans-serif" font-size="8.4" lengthAdjust="spacing" textLength="47.4" x="231.3" y="43.4367">options : dict</text><text fill="#000000" font-family="sans-serif" font-size="8.4" lengthAdjust="spacing" textLength="67.8" x="231.3" y="53.2805">_data : np.ndarray</text><text fill="#000000" font-family="sans-serif" font-size="8.4" lengthAdjust="spacing" textLength="91.2" x="231.3" y="63.1242">_importer : DataImporter</text><line style="stroke:#181818;stroke-width:0.3;" x1="228.3" x2="325.5" y1="67.575" y2="67.575"/><text fill="#000000" font-family="sans-serif" font-size="8.4" lengthAdjust="spacing" textLength="23.4" x="231.3" y="77.768">data()</text></g><!--class Metadata--><g id="elem_Metadata"><rect codeLine="83" fill="#F1F1F1" height="48.4875" id="Metadata" rx="1.5" ry="1.5" style="stroke:#181818;stroke-width:0.3;" width="55.8" x="355.2" y="18.9"/><ellipse cx="364.2" cy="28.5" fill="#ADD1B2" rx="6.6" ry="6.6" style="stroke:#181818;stroke-width:0.6;"/><path d="M364.2281,32.2219 C365.1281,32.2219 365.8688,31.8844 366.4125,31.2469 L365.5875,30.3375 C365.2594,30.6937 364.8656,30.9281 364.3875,30.9281 C363.3844,30.9281 362.6906,30.1312 362.6906,28.7625 C362.6906,27.4313 363.3844,26.625 364.3219,26.625 C364.8094,26.625 365.1656,26.8125 365.4844,27.1031 L366.3094,26.175 C365.8594,25.7344 365.1656,25.3313 364.3219,25.3313 C362.55,25.3313 361.1531,26.6156 361.1531,28.8187 C361.1531,31.05 362.5781,32.2219 364.2281,32.2219 Z " fill="#000000"/><text fill="#000000" font-family="sans-serif" font-size="8.4" lengthAdjust="spacing" textLength="36.6" x="372.6" y="31.3711">Metadata</text><line style="stroke:#181818;stroke-width:0.3;" x1="355.8" x2="410.4" y1="38.1" y2="38.1"/><text fill="#000000" font-family="sans-serif" font-size="8.4" lengthAdjust="spacing" textLength="48" x="358.8" y="48.293">name : string</text><text fill="#000000" font-family="sans-serif" font-size="8.4" lengthAdjust="spacing" textLength="47.4" x="358.8" y="58.1367">options : dict</text><line style="stroke:#181818;stroke-width:0.3;" x1="355.8" x2="410.4" y1="62.5875" y2="62.5875"/></g><!--class MeasureData--><g id="elem_MeasureData"><rect codeLine="13" fill="#F1F1F1" height="38.6438" id="MeasureData" rx="1.5" ry="1.5" style="stroke:#181818;stroke-width:0.3;" width="129.6" x="196.5" y="128.1"/><ellipse cx="233.55" cy="137.7" fill="#ADD1B2" rx="6.6" ry="6.6" style="stroke:#181818;stroke-width:0.6;"/><path d="M233.5781,141.4219 C234.4781,141.4219 235.2188,141.0844 235.7625,140.4469 L234.9375,139.5375 C234.6094,139.8937 234.2156,140.1281 233.7375,140.1281 C232.7344,140.1281 232.0406,139.3312 232.0406,137.9625 C232.0406,136.6313 232.7344,135.825 233.6719,135.825 C234.1594,135.825 234.5156,136.0125 234.8344,136.3031 L235.6594,135.375 C235.2094,134.9344 234.5156,134.5313 233.6719,134.5313 C231.9,134.5313 230.5031,135.8156 230.5031,138.0187 C230.5031,140.25 231.9281,141.4219 233.5781,141.4219 Z " fill="#000000"/><text fill="#000000" font-family="sans-serif" font-size="8.4" lengthAdjust="spacing" textLength="50.4" x="245.85" y="140.5711">MeasureData</text><line style="stroke:#181818;stroke-width:0.3;" x1="197.1" x2="325.5" y1="147.3" y2="147.3"/><text fill="#000000" font-family="sans-serif" font-size="8.4" lengthAdjust="spacing" textLength="122.4" x="200.1" y="157.493">positions : np.ndarray(dtype=int)</text><line style="stroke:#181818;stroke-width:0.3;" x1="197.1" x2="325.5" y1="161.9438" y2="161.9438"/></g><!--class MeasureMetadata--><g id="elem_MeasureMetadata"><rect codeLine="88" fill="#F1F1F1" height="38.6438" id="MeasureMetadata" rx="1.5" ry="1.5" style="stroke:#181818;stroke-width:0.3;" width="88.2" x="347.4" y="128.1"/><ellipse cx="356.4" cy="137.7" fill="#ADD1B2" rx="6.6" ry="6.6" style="stroke:#181818;stroke-width:0.6;"/><path d="M356.4281,141.4219 C357.3281,141.4219 358.0687,141.0844 358.6125,140.4469 L357.7875,139.5375 C357.4594,139.8937 357.0656,140.1281 356.5875,140.1281 C355.5844,140.1281 354.8906,139.3312 354.8906,137.9625 C354.8906,136.6313 355.5844,135.825 356.5219,135.825 C357.0094,135.825 357.3656,136.0125 357.6844,136.3031 L358.5094,135.375 C358.0594,134.9344 357.3656,134.5313 356.5219,134.5313 C354.75,134.5313 353.3531,135.8156 353.3531,138.0187 C353.3531,140.25 354.7781,141.4219 356.4281,141.4219 Z " fill="#000000"/><text fill="#000000" font-family="sans-serif" font-size="8.4" lengthAdjust="spacing" textLength="69" x="364.8" y="140.5711">MeasureMetadata</text><line style="stroke:#181818;stroke-width:0.3;" x1="348" x2="435" y1="147.3" y2="147.3"/><text fill="#000000" font-family="sans-serif" font-size="8.4" lengthAdjust="spacing" textLength="41.4" x="351" y="157.493">unit : string</text><line style="stroke:#181818;stroke-width:0.3;" x1="348" x2="435" y1="161.9438" y2="161.9438"/></g><!--class ChannelData--><g id="elem_ChannelData"><rect codeLine="19" fill="#F1F1F1" height="28.8" id="ChannelData" rx="1.5" ry="1.5" style="stroke:#181818;stroke-width:0.3;" width="67.8" x="234.6" y="212.4"/><ellipse cx="243.6" cy="222" fill="#ADD1B2" rx="6.6" ry="6.6" style="stroke:#181818;stroke-width:0.6;"/><path d="M243.6281,225.7219 C244.5281,225.7219 245.2687,225.3844 245.8125,224.7469 L244.9875,223.8375 C244.6594,224.1938 244.2656,224.4281 243.7875,224.4281 C242.7844,224.4281 242.0906,223.6313 242.0906,222.2625 C242.0906,220.9313 242.7844,220.125 243.7219,220.125 C244.2094,220.125 244.5656,220.3125 244.8844,220.6031 L245.7094,219.675 C245.2594,219.2344 244.5656,218.8312 243.7219,218.8312 C241.95,218.8312 240.5531,220.1156 240.5531,222.3188 C240.5531,224.55 241.9781,225.7219 243.6281,225.7219 Z " fill="#000000"/><text fill="#000000" font-family="sans-serif" font-size="8.4" lengthAdjust="spacing" textLength="48.6" x="252" y="224.8711">ChannelData</text><line style="stroke:#181818;stroke-width:0.3;" x1="235.2" x2="301.8" y1="231.6" y2="231.6"/><line style="stroke:#181818;stroke-width:0.3;" x1="235.2" x2="301.8" y1="236.4" y2="236.4"/></g><!--class ChannelMetadata--><g id="elem_ChannelMetadata"><rect codeLine="98" fill="#F1F1F1" height="28.8" id="ChannelMetadata" rx="1.5" ry="1.5" style="stroke:#181818;stroke-width:0.3;" width="86.4" x="348.3" y="212.4"/><ellipse cx="357.3" cy="222" fill="#ADD1B2" rx="6.6" ry="6.6" style="stroke:#181818;stroke-width:0.6;"/><path d="M357.3281,225.7219 C358.2281,225.7219 358.9688,225.3844 359.5125,224.7469 L358.6875,223.8375 C358.3594,224.1938 357.9656,224.4281 357.4875,224.4281 C356.4844,224.4281 355.7906,223.6313 355.7906,222.2625 C355.7906,220.9313 356.4844,220.125 357.4219,220.125 C357.9094,220.125 358.2656,220.3125 358.5844,220.6031 L359.4094,219.675 C358.9594,219.2344 358.2656,218.8312 357.4219,218.8312 C355.65,218.8312 354.2531,220.1156 354.2531,222.3188 C354.2531,224.55 355.6781,225.7219 357.3281,225.7219 Z " fill="#000000"/><text fill="#000000" font-family="sans-serif" font-size="8.4" lengthAdjust="spacing" textLength="67.2" x="365.7" y="224.8711">ChannelMetadata</text><line style="stroke:#181818;stroke-width:0.3;" x1="348.9" x2="434.1" y1="231.6" y2="231.6"/><line style="stroke:#181818;stroke-width:0.3;" x1="348.9" x2="434.1" y1="236.4" y2="236.4"/></g><!--class AreaChannelData--><g id="elem_AreaChannelData"><rect codeLine="23" fill="#F1F1F1" height="28.8" id="AreaChannelData" rx="1.5" ry="1.5" style="stroke:#181818;stroke-width:0.3;" width="85.2" x="229.5" y="277.2"/><ellipse cx="238.5" cy="286.8" fill="#ADD1B2" rx="6.6" ry="6.6" style="stroke:#181818;stroke-width:0.6;"/><path d="M238.5281,290.5219 C239.4281,290.5219 240.1688,290.1844 240.7125,289.5469 L239.8875,288.6375 C239.5594,288.9938 239.1656,289.2281 238.6875,289.2281 C237.6844,289.2281 236.9906,288.4313 236.9906,287.0625 C236.9906,285.7313 237.6844,284.925 238.6219,284.925 C239.1094,284.925 239.4656,285.1125 239.7844,285.4031 L240.6094,284.475 C240.1594,284.0344 239.4656,283.6312 238.6219,283.6312 C236.85,283.6312 235.4531,284.9156 235.4531,287.1188 C235.4531,289.35 236.8781,290.5219 238.5281,290.5219 Z " fill="#000000"/><text fill="#000000" font-family="sans-serif" font-size="8.4" lengthAdjust="spacing" textLength="66" x="246.9" y="289.6711">AreaChannelData</text><line style="stroke:#181818;stroke-width:0.3;" x1="230.1" x2="314.1" y1="296.4" y2="296.4"/><line style="stroke:#181818;stroke-width:0.3;" x1="230.1" x2="314.1" y1="301.2" y2="301.2"/></g><!--class AreaChannelMetadata--><g id="elem_AreaChannelMetadata"><rect codeLine="100" fill="#F1F1F1" height="28.8" id="AreaChannelMetadata" rx="1.5" ry="1.5" style="stroke:#181818;stroke-width:0.3;" width="103.8" x="339.6" y="277.2"/><ellipse cx="348.6" cy="286.8" fill="#ADD1B2" rx="6.6" ry="6.6" style="stroke:#181818;stroke-width:0.6;"/><path d="M348.6281,290.5219 C349.5281,290.5219 350.2688,290.1844 350.8125,289.5469 L349.9875,288.6375 C349.6594,288.9938 349.2656,289.2281 348.7875,289.2281 C347.7844,289.2281 347.0906,288.4313 347.0906,287.0625 C347.0906,285.7313 347.7844,284.925 348.7219,284.925 C349.2094,284.925 349.5656,285.1125 349.8844,285.4031 L350.7094,284.475 C350.2594,284.0344 349.5656,283.6312 348.7219,283.6312 C346.95,283.6312 345.5531,284.9156 345.5531,287.1188 C345.5531,289.35 346.9781,290.5219 348.6281,290.5219 Z " fill="#000000"/><text fill="#000000" font-family="sans-serif" font-size="8.4" lengthAdjust="spacing" textLength="84.6" x="357" y="289.6711">AreaChannelMetadata</text><line style="stroke:#181818;stroke-width:0.3;" x1="340.2" x2="442.8" y1="296.4" y2="296.4"/><line style="stroke:#181818;stroke-width:0.3;" x1="340.2" x2="442.8" y1="301.2" y2="301.2"/></g><!--class ScientificCameraData--><g id="elem_ScientificCameraData"><rect codeLine="27" fill="#F1F1F1" height="68.175" id="ScientificCameraData" rx="1.5" ry="1.5" style="stroke:#181818;stroke-width:0.3;" width="149.4" x="197.4" y="415.8"/><ellipse cx="229.05" cy="425.4" fill="#ADD1B2" rx="6.6" ry="6.6" style="stroke:#181818;stroke-width:0.6;"/><path d="M229.0781,429.1219 C229.9781,429.1219 230.7188,428.7844 231.2625,428.1469 L230.4375,427.2375 C230.1094,427.5938 229.7156,427.8281 229.2375,427.8281 C228.2344,427.8281 227.5406,427.0313 227.5406,425.6625 C227.5406,424.3313 228.2344,423.525 229.1719,423.525 C229.6594,423.525 230.0156,423.7125 230.3344,424.0031 L231.1594,423.075 C230.7094,422.6344 230.0156,422.2313 229.1719,422.2313 C227.4,422.2313 226.0031,423.5156 226.0031,425.7188 C226.0031,427.95 227.4281,429.1219 229.0781,429.1219 Z " fill="#000000"/><text fill="#000000" font-family="sans-serif" font-size="8.4" lengthAdjust="spacing" textLength="81" x="241.35" y="428.2711">ScientificCameraData</text><line style="stroke:#181818;stroke-width:0.3;" x1="198" x2="346.2" y1="435" y2="435"/><text fill="#000000" font-family="sans-serif" font-size="8.4" lengthAdjust="spacing" textLength="114.6" x="201" y="445.193">roi[] : ScientificCameraROIData</text><text fill="#000000" font-family="sans-serif" font-size="8.4" lengthAdjust="spacing" textLength="117" x="201" y="455.0367">acquire_time : float | np.ndarray</text><text fill="#000000" font-family="sans-serif" font-size="8.4" lengthAdjust="spacing" textLength="142.2" x="201" y="464.8805">temperature : np.ndarray(dtype=float)</text><text fill="#000000" font-family="sans-serif" font-size="8.4" lengthAdjust="spacing" textLength="128.4" x="201" y="474.7242">humidity : np.ndarray(dtype=float)</text><line style="stroke:#181818;stroke-width:0.3;" x1="198" x2="346.2" y1="479.175" y2="479.175"/></g><g id="elem_GMN19"><path d="M179.7,594 L179.7,684.2576 A0,0 0 0 0 179.7,684.2576 L374.1,684.2576 A0,0 0 0 0 374.1,684.2576 L374.1,600 L368.1,594 L278.166,594 L272.964,484.392 L273.366,594 L179.7,594 A0,0 0 0 0 179.7,594 " fill="#FEFFDD" style="stroke:#181818;stroke-width:0.3;"/><path d="M368.1,594 L368.1,600 L374.1,600 L368.1,594 " fill="#FEFFDD" style="stroke:#181818;stroke-width:0.3;"/><text fill="#000000" font-family="sans-serif" font-size="7.8" lengthAdjust="spacing" textLength="172.8" x="183.3" y="604.2363">acquire_time can be a static or dynamic parameter.</text><text fill="#000000" font-family="sans-serif" font-size="7.8" lengthAdjust="spacing" textLength="1.8" x="183.3" y="613.377">&#160;</text><text fill="#000000" font-family="sans-serif" font-size="7.8" lengthAdjust="spacing" textLength="82.8" x="183.3" y="623.1816">What about the different</text><text fill="#000000" font-family="monospace" font-size="7.8" lengthAdjust="spacing" textLength="52.8" x="267.9" y="622.9565">temperature</text><text fill="#000000" font-family="sans-serif" font-size="7.8" lengthAdjust="spacing" textLength="42.6" x="322.5" y="623.1816">parameters?</text><text fill="#000000" font-family="sans-serif" font-size="7.8" lengthAdjust="spacing" textLength="27.6" x="183.3" y="632.9862">There is</text><text fill="#000000" font-family="monospace" font-size="7.8" lengthAdjust="spacing" textLength="52.8" x="212.7" y="632.7611">Temperature</text><text fill="#000000" font-family="sans-serif" font-size="7.8" lengthAdjust="spacing" textLength="1.8" x="265.5" y="632.9862">,</text><text fill="#000000" font-family="monospace" font-size="7.8" lengthAdjust="spacing" textLength="81.6" x="269.1" y="632.7611">TemperatureActual</text><text fill="#000000" font-family="sans-serif" font-size="7.8" lengthAdjust="spacing" textLength="1.8" x="350.7" y="632.9862">,</text><text fill="#000000" font-family="monospace" font-size="7.8" lengthAdjust="spacing" textLength="72" x="183.3" y="642.5657">Temperature_RBV</text><text fill="#000000" font-family="sans-serif" font-size="7.8" lengthAdjust="spacing" textLength="52.8" x="257.1" y="642.7908">and sometimes</text><text fill="#000000" font-family="monospace" font-size="7.8" lengthAdjust="spacing" textLength="48" x="311.7" y="642.5657">XXX_Cooler</text><text fill="#000000" font-family="sans-serif" font-size="7.8" lengthAdjust="spacing" textLength="1.8" x="359.7" y="642.7908">.</text><text fill="#000000" font-family="sans-serif" font-size="7.8" lengthAdjust="spacing" textLength="1.8" x="183.3" y="651.9314">&#160;</text><text fill="#000000" font-family="sans-serif" font-size="7.8" lengthAdjust="spacing" textLength="177.6" x="183.3" y="661.072">For Pilatus, there seem to be three temperatures and</text><text fill="#000000" font-family="sans-serif" font-size="7.8" lengthAdjust="spacing" textLength="168.6" x="183.3" y="670.2127">three humidity detectors. Are all these values read</text><text fill="#000000" font-family="sans-serif" font-size="7.8" lengthAdjust="spacing" textLength="105" x="183.3" y="679.3533">for each PositionCount/image?</text></g><!--class ScientificCameraMetadata--><g id="elem_ScientificCameraMetadata"><rect codeLine="102" fill="#F1F1F1" height="68.175" id="ScientificCameraMetadata" rx="1.5" ry="1.5" style="stroke:#181818;stroke-width:0.3;" width="118.8" x="368.1" y="415.8"/><ellipse cx="377.1" cy="425.4" fill="#ADD1B2" rx="6.6" ry="6.6" style="stroke:#181818;stroke-width:0.6;"/><path d="M377.1281,429.1219 C378.0281,429.1219 378.7688,428.7844 379.3125,428.1469 L378.4875,427.2375 C378.1594,427.5938 377.7656,427.8281 377.2875,427.8281 C376.2844,427.8281 375.5906,427.0313 375.5906,425.6625 C375.5906,424.3313 376.2844,423.525 377.2219,423.525 C377.7094,423.525 378.0656,423.7125 378.3844,424.0031 L379.2094,423.075 C378.7594,422.6344 378.0656,422.2313 377.2219,422.2313 C375.45,422.2313 374.0531,423.5156 374.0531,425.7188 C374.0531,427.95 375.4781,429.1219 377.1281,429.1219 Z " fill="#000000"/><text fill="#000000" font-family="sans-serif" font-size="8.4" lengthAdjust="spacing" textLength="99.6" x="385.5" y="428.2711">ScientificCameraMetadata</text><line style="stroke:#181818;stroke-width:0.3;" x1="368.7" x2="486.3" y1="435" y2="435"/><text fill="#000000" font-family="sans-serif" font-size="8.4" lengthAdjust="spacing" textLength="39" x="371.7" y="445.193">gain : float</text><text fill="#000000" font-family="sans-serif" font-size="8.4" lengthAdjust="spacing" textLength="70.2" x="371.7" y="455.0367">reverse_x : boolean</text><text fill="#000000" font-family="sans-serif" font-size="8.4" lengthAdjust="spacing" textLength="70.2" x="371.7" y="464.8805">reverse_y : boolean</text><text fill="#000000" font-family="sans-serif" font-size="8.4" lengthAdjust="spacing" textLength="54" x="371.7" y="474.7242">filetype : string</text><line style="stroke:#181818;stroke-width:0.3;" x1="368.7" x2="486.3" y1="479.175" y2="479.175"/></g><!--class ScientificCameraROIData--><g id="elem_ScientificCameraROIData"><rect codeLine="51" fill="#F1F1F1" height="215.8312" id="ScientificCameraROIData" rx="1.5" ry="1.5" style="stroke:#181818;stroke-width:0.3;" width="172.2" x="4.2" y="342"/><ellipse cx="40.35" cy="351.6" fill="#ADD1B2" rx="6.6" ry="6.6" style="stroke:#181818;stroke-width:0.6;"/><path d="M40.3781,355.3219 C41.2781,355.3219 42.0188,354.9844 42.5625,354.3469 L41.7375,353.4375 C41.4094,353.7938 41.0156,354.0281 40.5375,354.0281 C39.5344,354.0281 38.8406,353.2313 38.8406,351.8625 C38.8406,350.5313 39.5344,349.725 40.4719,349.725 C40.9594,349.725 41.3156,349.9125 41.6344,350.2031 L42.4594,349.275 C42.0094,348.8344 41.3156,348.4313 40.4719,348.4313 C38.7,348.4313 37.3031,349.7156 37.3031,351.9188 C37.3031,354.15 38.7281,355.3219 40.3781,355.3219 Z " fill="#000000"/><text fill="#000000" font-family="sans-serif" font-size="8.4" lengthAdjust="spacing" textLength="94.8" x="52.65" y="354.4711">ScientificCameraROIData</text><line style="stroke:#181818;stroke-width:0.3;" x1="4.8" x2="175.8" y1="361.2" y2="361.2"/><text fill="#000000" font-family="sans-serif" font-size="8.4" lengthAdjust="spacing" textLength="44.4" x="7.8" y="371.393">label : string</text><text fill="#000000" font-family="sans-serif" font-size="8.4" lengthAdjust="spacing" textLength="114.6" x="7.8" y="381.2367">marker : np.ndarray(dtype=int)</text><text fill="#000000" font-family="sans-serif" font-size="8.4" lengthAdjust="spacing" textLength="84.6" x="7.8" y="391.0805">background_width : int</text><text fill="#000000" font-family="sans-serif" font-size="8.4" lengthAdjust="spacing" textLength="133.2" x="7.8" y="400.9242">min_value : np.ndarray(dtype=float)</text><text fill="#000000" font-family="sans-serif" font-size="8.4" lengthAdjust="spacing" textLength="117.6" x="7.8" y="410.768">min_x : np.ndarray(dtype=float)</text><text fill="#000000" font-family="sans-serif" font-size="8.4" lengthAdjust="spacing" textLength="117.6" x="7.8" y="420.6117">min_y : np.ndarray(dtype=float)</text><text fill="#000000" font-family="sans-serif" font-size="8.4" lengthAdjust="spacing" textLength="135.6" x="7.8" y="430.4555">max_value : np.ndarray(dtype=float)</text><text fill="#000000" font-family="sans-serif" font-size="8.4" lengthAdjust="spacing" textLength="120" x="7.8" y="440.2992">max_x : np.ndarray(dtype=float)</text><text fill="#000000" font-family="sans-serif" font-size="8.4" lengthAdjust="spacing" textLength="120" x="7.8" y="450.143">max_y : np.ndarray(dtype=float)</text><text fill="#000000" font-family="sans-serif" font-size="8.4" lengthAdjust="spacing" textLength="117" x="7.8" y="459.9867">mean : np.ndarray(dtype=float)</text><text fill="#000000" font-family="sans-serif" font-size="8.4" lengthAdjust="spacing" textLength="113.4" x="7.8" y="469.8305">total : np.ndarray(dtype=float)</text><text fill="#000000" font-family="sans-serif" font-size="8.4" lengthAdjust="spacing" textLength="108" x="7.8" y="479.6742">net : np.ndarray(dtype=float)</text><text fill="#000000" font-family="sans-serif" font-size="8.4" lengthAdjust="spacing" textLength="118.8" x="7.8" y="489.518">sigma : np.ndarray(dtype=float)</text><text fill="#000000" font-family="sans-serif" font-size="8.4" lengthAdjust="spacing" textLength="92.4" x="7.8" y="499.3617">centroid_threshold : float</text><text fill="#000000" font-family="sans-serif" font-size="8.4" lengthAdjust="spacing" textLength="134.4" x="7.8" y="509.2055">centroid_x : np.ndarray(dtype=float)</text><text fill="#000000" font-family="sans-serif" font-size="8.4" lengthAdjust="spacing" textLength="134.4" x="7.8" y="519.0492">centroid_y : np.ndarray(dtype=float)</text><text fill="#000000" font-family="sans-serif" font-size="8.4" lengthAdjust="spacing" textLength="160.8" x="7.8" y="528.893">centroid_sigma_x : np.ndarray(dtype=float)</text><text fill="#000000" font-family="sans-serif" font-size="8.4" lengthAdjust="spacing" textLength="160.8" x="7.8" y="538.7367">centroid_sigma_y : np.ndarray(dtype=float)</text><text fill="#000000" font-family="sans-serif" font-size="8.4" lengthAdjust="spacing" textLength="165" x="7.8" y="548.5805">centroid_sigma_xy : np.ndarray(dtype=float)</text><line style="stroke:#181818;stroke-width:0.3;" x1="4.8" x2="175.8" y1="553.0313" y2="553.0313"/></g><g id="elem_GMN29"><path d="M12.6,603.9 L12.6,673.8844 A0,0 0 0 0 12.6,673.8844 L158.4,673.8844 A0,0 0 0 0 158.4,673.8844 L158.4,609.9 L152.4,603.9 L88.782,603.9 L87.552,558.21 L83.982,603.9 L12.6,603.9 A0,0 0 0 0 12.6,603.9 " fill="#FEFFDD" style="stroke:#181818;stroke-width:0.3;"/><path d="M152.4,603.9 L152.4,609.9 L158.4,609.9 L152.4,603.9 " fill="#FEFFDD" style="stroke:#181818;stroke-width:0.3;"/><text fill="#000000" font-family="sans-serif" font-size="7.8" lengthAdjust="spacing" textLength="133.2" x="16.2" y="614.1363">Marker should be a four-element vector</text><text fill="#000000" font-family="sans-serif" font-size="7.8" lengthAdjust="spacing" textLength="119.4" x="16.2" y="623.277">with coordinates of the image area.</text><text fill="#000000" font-family="sans-serif" font-size="7.8" lengthAdjust="spacing" textLength="91.2" x="16.2" y="632.4176">Is "marker" the best name?</text><text fill="#000000" font-family="sans-serif" font-size="7.8" lengthAdjust="spacing" textLength="1.8" x="16.2" y="641.5582">&#160;</text><text fill="#000000" font-family="sans-serif" font-size="7.8" lengthAdjust="spacing" textLength="124.2" x="16.2" y="650.6988">What other attributes are relevant for</text><text fill="#000000" font-family="sans-serif" font-size="7.8" lengthAdjust="spacing" textLength="67.2" x="16.2" y="659.8395">Area Channel ROIs?</text><text fill="#000000" font-family="sans-serif" font-size="7.8" lengthAdjust="spacing" textLength="114" x="16.2" y="668.9801">How about binning and reversing?</text></g><!--class DeviceMetadata--><g id="elem_DeviceMetadata"><rect codeLine="92" fill="#F1F1F1" height="58.3313" id="DeviceMetadata" rx="1.5" ry="1.5" style="stroke:#181818;stroke-width:0.3;" width="84.6" x="456.6" y="118.2"/><ellipse cx="469.11" cy="127.8" fill="#B4A7E5" rx="6.6" ry="6.6" style="stroke:#181818;stroke-width:0.6;"/><path d="M466.8694,131.4 L471.4725,131.4 L471.4725,130.1344 L469.9256,130.1344 L469.9256,126.0188 L471.4725,126.0188 L471.4725,124.7531 L466.8694,124.7531 L466.8694,126.0188 L468.4163,126.0188 L468.4163,130.1344 L466.8694,130.1344 L466.8694,131.4 Z " fill="#000000"/><text fill="#000000" font-family="sans-serif" font-size="8.4" font-style="italic" lengthAdjust="spacing" textLength="57.6" x="478.29" y="130.6711">DeviceMetadata</text><line style="stroke:#181818;stroke-width:0.3;" x1="457.2" x2="540.6" y1="137.4" y2="137.4"/><text fill="#000000" font-family="sans-serif" font-size="8.4" lengthAdjust="spacing" textLength="33.6" x="460.2" y="147.593">id : string</text><text fill="#000000" font-family="sans-serif" font-size="8.4" lengthAdjust="spacing" textLength="36" x="460.2" y="157.4367">pv : string</text><text fill="#000000" font-family="sans-serif" font-size="8.4" lengthAdjust="spacing" textLength="77.4" x="460.2" y="167.2805">access_mode : string</text><line style="stroke:#181818;stroke-width:0.3;" x1="457.2" x2="540.6" y1="171.7313" y2="171.7313"/></g><!--reverse link Data to Metadata--><g id="link_Data_Metadata"><path codeLine="11" d="M333.468,43.2 C343.086,43.2 345.504,43.2 355.128,43.2 " fill="none" id="Data-backto-Metadata" style="stroke:#181818;stroke-width:0.6;"/><polygon fill="#181818" points="326.268,43.2,329.868,45.6,333.468,43.2,329.868,40.8,326.268,43.2" style="stroke:#181818;stroke-width:0.6;"/></g><!--reverse link Data to MeasureData--><g id="link_Data_MeasureData"><path d="M269.4283,93.0885 C267.0643,108.7125 266.052,115.35 264.126,128.07 " fill="none" id="Data-backto-MeasureData" style="stroke:#181818;stroke-width:0.6;"/><polygon fill="none" points="271.044,82.41,265.8688,92.5499,272.9878,93.627,271.044,82.41" style="stroke:#181818;stroke-width:0.6;"/></g><!--reverse link MeasureData to MeasureMetadata--><g id="link_MeasureData_MeasureMetadata"><path codeLine="17" d="M333.348,147.3 C340.41,147.3 340.272,147.3 347.334,147.3 " fill="none" id="MeasureData-backto-MeasureMetadata" style="stroke:#181818;stroke-width:0.6;"/><polygon fill="#181818" points="326.148,147.3,329.748,149.7,333.348,147.3,329.748,144.9,326.148,147.3" style="stroke:#181818;stroke-width:0.6;"/></g><!--reverse link MeasureData to ChannelData--><g id="link_MeasureData_ChannelData"><path d="M264.0114,177.4106 C265.3014,191.4326 266.052,199.548 267.216,212.256 " fill="none" id="MeasureData-backto-ChannelData" style="stroke:#181818;stroke-width:0.6;"/><polygon fill="none" points="263.022,166.656,260.4265,177.7404,267.5963,177.0808,263.022,166.656" style="stroke:#181818;stroke-width:0.6;"/></g><!--reverse link ChannelData to ChannelMetadata--><g id="link_ChannelData_ChannelMetadata"><path codeLine="21" d="M309.816,226.8 C325.032,226.8 333.054,226.8 348.27,226.8 " fill="none" id="ChannelData-backto-ChannelMetadata" style="stroke:#181818;stroke-width:0.6;"/><polygon fill="#181818" points="302.616,226.8,306.216,229.2,309.816,226.8,306.216,224.4,302.616,226.8" style="stroke:#181818;stroke-width:0.6;"/></g><!--reverse link ChannelData to AreaChannelData--><g id="link_ChannelData_AreaChannelData"><path d="M269.8906,251.9827 C270.4906,262.5787 270.708,266.364 271.308,277.008 " fill="none" id="ChannelData-backto-AreaChannelData" style="stroke:#181818;stroke-width:0.6;"/><polygon fill="none" points="269.28,241.2,266.2963,252.1863,273.4848,251.7792,269.28,241.2" style="stroke:#181818;stroke-width:0.6;"/></g><!--reverse link AreaChannelData to AreaChannelMetadata--><g id="link_AreaChannelData_AreaChannelMetadata"><path codeLine="25" d="M321.978,291.6 C330.168,291.6 331.158,291.6 339.354,291.6 " fill="none" id="AreaChannelData-backto-AreaChannelMetadata" style="stroke:#181818;stroke-width:0.6;"/><polygon fill="#181818" points="314.778,291.6,318.378,294,321.978,291.6,318.378,289.2,314.778,291.6" style="stroke:#181818;stroke-width:0.6;"/></g><!--reverse link AreaChannelData to ScientificCameraData--><g id="link_AreaChannelData_ScientificCameraData"><path d="M272.1,316.95 C272.1,341.334 272.1,381.552 272.1,415.65 " fill="none" id="AreaChannelData-backto-ScientificCameraData" style="stroke:#181818;stroke-width:0.6;"/><polygon fill="none" points="272.1,306.15,268.5,316.95,275.7,316.95,272.1,306.15" style="stroke:#181818;stroke-width:0.6;"/></g><!--reverse link ScientificCameraData to ScientificCameraMetadata--><g id="link_ScientificCameraData_ScientificCameraMetadata"><path codeLine="45" d="M354.114,450 C361.146,450 360.978,450 368.004,450 " fill="none" id="ScientificCameraData-backto-ScientificCameraMetadata" style="stroke:#181818;stroke-width:0.6;"/><polygon fill="#181818" points="346.914,450,350.514,452.4,354.114,450,350.514,447.6,346.914,450" style="stroke:#181818;stroke-width:0.6;"/></g><!--link ScientificCameraROIData to ScientificCameraData--><!--link ScientificCameraROIData to ScientificCameraData--><g id="link_ScientificCameraROIData_ScientificCameraData"><path codeLine="48" d="M176.406,450 C183.384,450 183.162,450 190.14,450 " fill="none" id="ScientificCameraROIData-to-ScientificCameraData-1" style="stroke:#181818;stroke-width:0.6;"/><polygon fill="#181818" points="197.34,450,193.74,447.6,190.14,450,193.74,452.4,197.34,450" style="stroke:#181818;stroke-width:0.6;"/><text fill="#000000" font-family="sans-serif" font-size="7.8" lengthAdjust="spacing" textLength="12" x="181.1552" y="448.0123">0..n</text></g><!--link ScientificCameraROIData to ScientificCameraData--><!--reverse link ChannelData to ScientificCameraROIData--><g id="link_ChannelData_ScientificCameraROIData"><path d="M245.9867,248.796 C235.9247,258.522 230.25,264.492 219.3,277.2 C201.744,297.576 183.864,320.112 167.22,341.982 " fill="none" id="ChannelData-backto-ScientificCameraROIData" style="stroke:#181818;stroke-width:0.6;"/><polygon fill="none" points="253.752,241.29,243.4847,246.2076,248.4887,251.3844,253.752,241.29" style="stroke:#181818;stroke-width:0.6;"/></g><!--reverse link Metadata to MeasureMetadata--><g id="link_Metadata_MeasureMetadata"><path d="M385.9274,78.4323 C387.4274,96.8343 388.596,111.162 389.982,128.094 " fill="none" id="Metadata-backto-MeasureMetadata" style="stroke:#181818;stroke-width:0.6;"/><polygon fill="none" points="385.05,67.668,382.3393,78.7248,389.5155,78.1398,385.05,67.668" style="stroke:#181818;stroke-width:0.6;"/></g><!--reverse link MeasureMetadata to ChannelMetadata--><g id="link_MeasureMetadata_ChannelMetadata"><path d="M391.5,177.456 C391.5,191.478 391.5,199.548 391.5,212.256 " fill="none" id="MeasureMetadata-backto-ChannelMetadata" style="stroke:#181818;stroke-width:0.6;"/><polygon fill="none" points="391.5,166.656,387.9,177.456,395.1,177.456,391.5,166.656" style="stroke:#181818;stroke-width:0.6;"/></g><!--reverse link DeviceMetadata to ChannelMetadata--><g id="link_DeviceMetadata_ChannelMetadata"><path d="M450.9433,182.862 C434.1613,195.09 424.08,202.452 410.472,212.37 " fill="none" id="DeviceMetadata-backto-ChannelMetadata" style="stroke:#181818;stroke-width:0.6;stroke-dasharray:7.0,7.0;"/><polygon fill="none" points="459.672,176.502,448.8233,179.9525,453.0633,185.7716,459.672,176.502" style="stroke:#181818;stroke-width:0.6;"/></g><!--reverse link ChannelMetadata to AreaChannelMetadata--><g id="link_ChannelMetadata_AreaChannelMetadata"><path d="M391.5,252 C391.5,262.596 391.5,266.364 391.5,277.008 " fill="none" id="ChannelMetadata-backto-AreaChannelMetadata" style="stroke:#181818;stroke-width:0.6;"/><polygon fill="none" points="391.5,241.2,387.9,252,395.1,252,391.5,241.2" style="stroke:#181818;stroke-width:0.6;"/></g><!--reverse link AreaChannelMetadata to ScientificCameraMetadata--><g id="link_AreaChannelMetadata_ScientificCameraMetadata"><path d="M397.1036,316.6773 C402.6896,341.0613 411.96,381.552 419.772,415.65 " fill="none" id="AreaChannelMetadata-backto-ScientificCameraMetadata" style="stroke:#181818;stroke-width:0.6;"/><polygon fill="none" points="394.692,306.15,393.5945,317.4812,400.6127,315.8734,394.692,306.15" style="stroke:#181818;stroke-width:0.6;"/></g><!--SRC=[fLPDZzis4BthLn2-v0Enj-S0RP3i8iWU5WtIe5qW28mHERA8KAHAZhnhfFlVEwHaMzHg4xlroHo-UJCQpZpoMKtKXjSN5wq1IrrZLj8r5z9024kbOUEXAOgq55T08BuNWdyD4gYuV2rkXh_9xbhIpWOsAoqfcTO3phOhgy1xsFLctRJE4thUYiJNmp9jHfVdBug7eaWnNowFKOPSRX12vp5jupsXLLb-tokDHZs8rWMzp-YOm7D5knP_rPPIZ35N2fMMquYNDLYB9eiuyYoACO1fXkMKvgr7cACQsOfY2cAwaMbA-OVKQ4bNMbv2WnuotYbLNn_lz9UlN9EfwwVVhw_sPmdoxqvxN9DkaA6LSK3Yd-avxYjDsBHCG5oEkLedxnUPHzqrMcdQ_G3-K5X7A4f7v1hXgjbFVPoi12jA52020Mafd1TgPw7XlormGoFtsQf8Vd_L_55Gkeu4rSXTMrNeEOHOB4PVj5WS7SERvFYvPfpGWO6Vny1NkU6jf0uCcvDJjhN-zEvF9WQhH71CpPb7jjlRs_MbSmRzOZ4a-Pu_uACsx1LUnJGvS41i1BducLHxn77zG-HCZltMeT2AyvVaV5Z5jX1WJ6GBABPWEdRZLkdzAWw886lnSPYVIzTPkj0DRF1DmNqbuhaKnMpdSRDExSUEVQBXnF9BhPL2-_Mt-JD-oc_nosfb5sBvyZotduLxOhBsxZD3c-kEWH8DDtOWh-qcssh0VqkgDwz74Lg2_BRnN7ArljEAQWRpNiwYxJgTsed35l7tPs1tfsBX_hmy67z_1lRaF91d_ZGeEG9p8jOYdOWCUjF0Jx2IcucLLwtZN8RQ6RNNrOpg03krK0U7tRaEAUlpu_Hk_pNQ_rByyGrrquyILxBZKYR5hrpdbsYmYHg-JMgNe7UQnqWwvvMsGAnrJ1q5FqcQ05Q-LS9TimJt4xf8-oK64dnriEmTxmiNDLW0yN2NNIHZVnPFWrj-GaNnJD1uy-uLGd3QmyNnmTqD5qwfhMLrI3U0norVBRmQo-lXhJCyjdgDYTdaqZ9vTJrC7aa7_-Ep9IFihAOZ8NkpsA2lGAAumgsMEC5hbOTlj_aQfCGGrerJcD5cxwYPfF9a-NtO7sEOP37padf4Tk9BwP7V76V_qHlGDflM_iGm3KyPxskmcNqtiLVQOEpqSKd-1G00]--></g></svg>