<?xml version="1.0" encoding="us-ascii" standalone="no"?><svg xmlns="http://www.w3.org/2000/svg" xmlns:xlink="http://www.w3.org/1999/xlink" contentStyleType="text/css" height="1114px" preserveAspectRatio="none" style="width:1086px;height:1114px;background:#FFFFFF;" version="1.1" viewBox="0 0 1086 1114" width="1086px" zoomAndPan="magnify"><defs/><g><!--class Data--><g id="elem_Data"><rect codeLine="3" fill="#F1F1F1" height="130.0313" id="Data" rx="2.5" ry="2.5" style="stroke:#181818;stroke-width:0.5;" width="164" x="399.5" y="7"/><ellipse cx="462.25" cy="23" fill="#ADD1B2" rx="11" ry="11" style="stroke:#181818;stroke-width:1.0;"/><path d="M462.2969,29.2031 C463.7969,29.2031 465.0313,28.6406 465.9375,27.5781 L464.5625,26.0625 C464.0156,26.6563 463.3594,27.0469 462.5625,27.0469 C460.8906,27.0469 459.7344,25.7188 459.7344,23.4375 C459.7344,21.2188 460.8906,19.875 462.4531,19.875 C463.2656,19.875 463.8594,20.1875 464.3906,20.6719 L465.7656,19.125 C465.0156,18.3906 463.8594,17.7188 462.4531,17.7188 C459.5,17.7188 457.1719,19.8594 457.1719,23.5313 C457.1719,27.25 459.5469,29.2031 462.2969,29.2031 Z " fill="#000000"/><text fill="#000000" font-family="sans-serif" font-size="14" lengthAdjust="spacing" textLength="30" x="482.75" y="27.7852">Data</text><line style="stroke:#181818;stroke-width:0.5;" x1="400.5" x2="562.5" y1="39" y2="39"/><text fill="#000000" font-family="sans-serif" font-size="14" lengthAdjust="spacing" textLength="131" x="405.5" y="55.9883">metadata : Metadata</text><text fill="#000000" font-family="sans-serif" font-size="14" lengthAdjust="spacing" textLength="79" x="405.5" y="72.3945">options : dict</text><text fill="#000000" font-family="sans-serif" font-size="14" lengthAdjust="spacing" textLength="113" x="405.5" y="88.8008">_data : np.ndarray</text><text fill="#000000" font-family="sans-serif" font-size="14" lengthAdjust="spacing" textLength="152" x="405.5" y="105.207">_importer : DataImporter</text><line style="stroke:#181818;stroke-width:0.5;" x1="400.5" x2="562.5" y1="112.625" y2="112.625"/><text fill="#000000" font-family="sans-serif" font-size="14" lengthAdjust="spacing" textLength="39" x="405.5" y="129.6133">data()</text></g><!--class Metadata--><g id="elem_Metadata"><rect codeLine="89" fill="#F1F1F1" height="80.8125" id="Metadata" rx="2.5" ry="2.5" style="stroke:#181818;stroke-width:0.5;" width="93" x="617" y="31.5"/><ellipse cx="632" cy="47.5" fill="#ADD1B2" rx="11" ry="11" style="stroke:#181818;stroke-width:1.0;"/><path d="M632.0469,53.7031 C633.5469,53.7031 634.7813,53.1406 635.6875,52.0781 L634.3125,50.5625 C633.7656,51.1563 633.1094,51.5469 632.3125,51.5469 C630.6406,51.5469 629.4844,50.2188 629.4844,47.9375 C629.4844,45.7188 630.6406,44.375 632.2031,44.375 C633.0156,44.375 633.6094,44.6875 634.1406,45.1719 L635.5156,43.625 C634.7656,42.8906 633.6094,42.2188 632.2031,42.2188 C629.25,42.2188 626.9219,44.3594 626.9219,48.0313 C626.9219,51.75 629.2969,53.7031 632.0469,53.7031 Z " fill="#000000"/><text fill="#000000" font-family="sans-serif" font-size="14" lengthAdjust="spacing" textLength="61" x="646" y="52.2852">Metadata</text><line style="stroke:#181818;stroke-width:0.5;" x1="618" x2="709" y1="63.5" y2="63.5"/><text fill="#000000" font-family="sans-serif" font-size="14" lengthAdjust="spacing" textLength="80" x="623" y="80.4883">name : string</text><text fill="#000000" font-family="sans-serif" font-size="14" lengthAdjust="spacing" textLength="79" x="623" y="96.8945">options : dict</text><line style="stroke:#181818;stroke-width:0.5;" x1="618" x2="709" y1="104.3125" y2="104.3125"/></g><!--class MeasureData--><g id="elem_MeasureData"><rect codeLine="13" fill="#F1F1F1" height="64.4063" id="MeasureData" rx="2.5" ry="2.5" style="stroke:#181818;stroke-width:0.5;" width="258" x="315.5" y="213.5"/><ellipse cx="398.25" cy="229.5" fill="#ADD1B2" rx="11" ry="11" style="stroke:#181818;stroke-width:1.0;"/><path d="M398.2969,235.7031 C399.7969,235.7031 401.0313,235.1406 401.9375,234.0781 L400.5625,232.5625 C400.0156,233.1563 399.3594,233.5469 398.5625,233.5469 C396.8906,233.5469 395.7344,232.2188 395.7344,229.9375 C395.7344,227.7188 396.8906,226.375 398.4531,226.375 C399.2656,226.375 399.8594,226.6875 400.3906,227.1719 L401.7656,225.625 C401.0156,224.8906 399.8594,224.2188 398.4531,224.2188 C395.5,224.2188 393.1719,226.3594 393.1719,230.0313 C393.1719,233.75 395.5469,235.7031 398.2969,235.7031 Z " fill="#000000"/><text fill="#000000" font-family="sans-serif" font-size="14" lengthAdjust="spacing" textLength="84" x="418.75" y="234.2852">MeasureData</text><line style="stroke:#181818;stroke-width:0.5;" x1="316.5" x2="572.5" y1="245.5" y2="245.5"/><text fill="#000000" font-family="sans-serif" font-size="14" lengthAdjust="spacing" textLength="246" x="321.5" y="262.4883">position_counts : np.ndarray(dtype=int)</text><line style="stroke:#181818;stroke-width:0.5;" x1="316.5" x2="572.5" y1="269.9063" y2="269.9063"/></g><!--class MeasureMetadata--><g id="elem_MeasureMetadata"><rect codeLine="94" fill="#F1F1F1" height="64.4063" id="MeasureMetadata" rx="2.5" ry="2.5" style="stroke:#181818;stroke-width:0.5;" width="147" x="609" y="213.5"/><ellipse cx="624" cy="229.5" fill="#ADD1B2" rx="11" ry="11" style="stroke:#181818;stroke-width:1.0;"/><path d="M624.0469,235.7031 C625.5469,235.7031 626.7813,235.1406 627.6875,234.0781 L626.3125,232.5625 C625.7656,233.1563 625.1094,233.5469 624.3125,233.5469 C622.6406,233.5469 621.4844,232.2188 621.4844,229.9375 C621.4844,227.7188 622.6406,226.375 624.2031,226.375 C625.0156,226.375 625.6094,226.6875 626.1406,227.1719 L627.5156,225.625 C626.7656,224.8906 625.6094,224.2188 624.2031,224.2188 C621.25,224.2188 618.9219,226.3594 618.9219,230.0313 C618.9219,233.75 621.2969,235.7031 624.0469,235.7031 Z " fill="#000000"/><text fill="#000000" font-family="sans-serif" font-size="14" lengthAdjust="spacing" textLength="115" x="638" y="234.2852">MeasureMetadata</text><line style="stroke:#181818;stroke-width:0.5;" x1="610" x2="755" y1="245.5" y2="245.5"/><text fill="#000000" font-family="sans-serif" font-size="14" lengthAdjust="spacing" textLength="69" x="615" y="262.4883">unit : string</text><line style="stroke:#181818;stroke-width:0.5;" x1="610" x2="755" y1="269.9063" y2="269.9063"/></g><!--class ChannelData--><g id="elem_ChannelData"><rect codeLine="19" fill="#F1F1F1" height="48" id="ChannelData" rx="2.5" ry="2.5" style="stroke:#181818;stroke-width:0.5;" width="113" x="641" y="354"/><ellipse cx="656" cy="370" fill="#ADD1B2" rx="11" ry="11" style="stroke:#181818;stroke-width:1.0;"/><path d="M656.0469,376.2031 C657.5469,376.2031 658.7813,375.6406 659.6875,374.5781 L658.3125,373.0625 C657.7656,373.6563 657.1094,374.0469 656.3125,374.0469 C654.6406,374.0469 653.4844,372.7188 653.4844,370.4375 C653.4844,368.2188 654.6406,366.875 656.2031,366.875 C657.0156,366.875 657.6094,367.1875 658.1406,367.6719 L659.5156,366.125 C658.7656,365.3906 657.6094,364.7188 656.2031,364.7188 C653.25,364.7188 650.9219,366.8594 650.9219,370.5313 C650.9219,374.25 653.2969,376.2031 656.0469,376.2031 Z " fill="#000000"/><text fill="#000000" font-family="sans-serif" font-size="14" lengthAdjust="spacing" textLength="81" x="670" y="374.7852">ChannelData</text><line style="stroke:#181818;stroke-width:0.5;" x1="642" x2="753" y1="386" y2="386"/><line style="stroke:#181818;stroke-width:0.5;" x1="642" x2="753" y1="394" y2="394"/></g><!--class ChannelMetadata--><g id="elem_ChannelMetadata"><rect codeLine="106" fill="#F1F1F1" height="48" id="ChannelMetadata" rx="2.5" ry="2.5" style="stroke:#181818;stroke-width:0.5;" width="144" x="789.5" y="354"/><ellipse cx="804.5" cy="370" fill="#ADD1B2" rx="11" ry="11" style="stroke:#181818;stroke-width:1.0;"/><path d="M804.5469,376.2031 C806.0469,376.2031 807.2813,375.6406 808.1875,374.5781 L806.8125,373.0625 C806.2656,373.6563 805.6094,374.0469 804.8125,374.0469 C803.1406,374.0469 801.9844,372.7188 801.9844,370.4375 C801.9844,368.2188 803.1406,366.875 804.7031,366.875 C805.5156,366.875 806.1094,367.1875 806.6406,367.6719 L808.0156,366.125 C807.2656,365.3906 806.1094,364.7188 804.7031,364.7188 C801.75,364.7188 799.4219,366.8594 799.4219,370.5313 C799.4219,374.25 801.7969,376.2031 804.5469,376.2031 Z " fill="#000000"/><text fill="#000000" font-family="sans-serif" font-size="14" lengthAdjust="spacing" textLength="112" x="818.5" y="374.7852">ChannelMetadata</text><line style="stroke:#181818;stroke-width:0.5;" x1="790.5" x2="932.5" y1="386" y2="386"/><line style="stroke:#181818;stroke-width:0.5;" x1="790.5" x2="932.5" y1="394" y2="394"/></g><!--class AreaChannelData--><g id="elem_AreaChannelData"><rect codeLine="23" fill="#F1F1F1" height="48" id="AreaChannelData" rx="2.5" ry="2.5" style="stroke:#181818;stroke-width:0.5;" width="142" x="632.5" y="462"/><ellipse cx="647.5" cy="478" fill="#ADD1B2" rx="11" ry="11" style="stroke:#181818;stroke-width:1.0;"/><path d="M647.5469,484.2031 C649.0469,484.2031 650.2813,483.6406 651.1875,482.5781 L649.8125,481.0625 C649.2656,481.6563 648.6094,482.0469 647.8125,482.0469 C646.1406,482.0469 644.9844,480.7188 644.9844,478.4375 C644.9844,476.2188 646.1406,474.875 647.7031,474.875 C648.5156,474.875 649.1094,475.1875 649.6406,475.6719 L651.0156,474.125 C650.2656,473.3906 649.1094,472.7188 647.7031,472.7188 C644.75,472.7188 642.4219,474.8594 642.4219,478.5313 C642.4219,482.25 644.7969,484.2031 647.5469,484.2031 Z " fill="#000000"/><text fill="#000000" font-family="sans-serif" font-size="14" lengthAdjust="spacing" textLength="110" x="661.5" y="482.7852">AreaChannelData</text><line style="stroke:#181818;stroke-width:0.5;" x1="633.5" x2="773.5" y1="494" y2="494"/><line style="stroke:#181818;stroke-width:0.5;" x1="633.5" x2="773.5" y1="502" y2="502"/></g><!--class AreaChannelMetadata--><g id="elem_AreaChannelMetadata"><rect codeLine="108" fill="#F1F1F1" height="48" id="AreaChannelMetadata" rx="2.5" ry="2.5" style="stroke:#181818;stroke-width:0.5;" width="173" x="810" y="462"/><ellipse cx="825" cy="478" fill="#ADD1B2" rx="11" ry="11" style="stroke:#181818;stroke-width:1.0;"/><path d="M825.0469,484.2031 C826.5469,484.2031 827.7813,483.6406 828.6875,482.5781 L827.3125,481.0625 C826.7656,481.6563 826.1094,482.0469 825.3125,482.0469 C823.6406,482.0469 822.4844,480.7188 822.4844,478.4375 C822.4844,476.2188 823.6406,474.875 825.2031,474.875 C826.0156,474.875 826.6094,475.1875 827.1406,475.6719 L828.5156,474.125 C827.7656,473.3906 826.6094,472.7188 825.2031,472.7188 C822.25,472.7188 819.9219,474.8594 819.9219,478.5313 C819.9219,482.25 822.2969,484.2031 825.0469,484.2031 Z " fill="#000000"/><text fill="#000000" font-family="sans-serif" font-size="14" lengthAdjust="spacing" textLength="141" x="839" y="482.7852">AreaChannelMetadata</text><line style="stroke:#181818;stroke-width:0.5;" x1="811" x2="982" y1="494" y2="494"/><line style="stroke:#181818;stroke-width:0.5;" x1="811" x2="982" y1="502" y2="502"/></g><!--class ScientificCameraData--><g id="elem_ScientificCameraData"><rect codeLine="27" fill="#F1F1F1" height="130.0313" id="ScientificCameraData" rx="2.5" ry="2.5" style="stroke:#181818;stroke-width:0.5;" width="279" x="567" y="668.5"/><ellipse cx="634.75" cy="684.5" fill="#ADD1B2" rx="11" ry="11" style="stroke:#181818;stroke-width:1.0;"/><path d="M634.7969,690.7031 C636.2969,690.7031 637.5313,690.1406 638.4375,689.0781 L637.0625,687.5625 C636.5156,688.1563 635.8594,688.5469 635.0625,688.5469 C633.3906,688.5469 632.2344,687.2188 632.2344,684.9375 C632.2344,682.7188 633.3906,681.375 634.9531,681.375 C635.7656,681.375 636.3594,681.6875 636.8906,682.1719 L638.2656,680.625 C637.5156,679.8906 636.3594,679.2188 634.9531,679.2188 C632,679.2188 629.6719,681.3594 629.6719,685.0313 C629.6719,688.75 632.0469,690.7031 634.7969,690.7031 Z " fill="#000000"/><text fill="#000000" font-family="sans-serif" font-size="14" lengthAdjust="spacing" textLength="135" x="655.25" y="689.2852">ScientificCameraData</text><line style="stroke:#181818;stroke-width:0.5;" x1="568" x2="845" y1="700.5" y2="700.5"/><text fill="#000000" font-family="sans-serif" font-size="14" lengthAdjust="spacing" textLength="191" x="573" y="717.4883">roi[] : ScientificCameraROIData</text><text fill="#000000" font-family="sans-serif" font-size="14" lengthAdjust="spacing" textLength="267" x="573" y="733.8945">statistics[] : ScientificCameraStatisticsData</text><text fill="#000000" font-family="sans-serif" font-size="14" lengthAdjust="spacing" textLength="195" x="573" y="750.3008">acquire_time : float | np.ndarray</text><text fill="#000000" font-family="sans-serif" font-size="14" lengthAdjust="spacing" textLength="237" x="573" y="766.707">temperature : np.ndarray(dtype=float)</text><text fill="#000000" font-family="sans-serif" font-size="14" lengthAdjust="spacing" textLength="214" x="573" y="783.1133">humidity : np.ndarray(dtype=float)</text><line style="stroke:#181818;stroke-width:0.5;" x1="568" x2="845" y1="790.5313" y2="790.5313"/></g><g id="elem_GMN19"><path d="M565.5,957 L565.5,1107.4293 A0,0 0 0 0 565.5,1107.4293 L889.5,1107.4293 A0,0 0 0 0 889.5,1107.4293 L889.5,967 L879.5,957 L726.25,957 L711.06,798.84 L718.25,957 L565.5,957 A0,0 0 0 0 565.5,957 " fill="#FEFFDD" style="stroke:#181818;stroke-width:0.5;"/><path d="M879.5,957 L879.5,967 L889.5,967 L879.5,957 " fill="#FEFFDD" style="stroke:#181818;stroke-width:0.5;"/><text fill="#000000" font-family="sans-serif" font-size="13" lengthAdjust="spacing" textLength="288" x="571.5" y="974.0605">acquire_time can be a static or dynamic parameter.</text><text fill="#000000" font-family="sans-serif" font-size="13" lengthAdjust="spacing" textLength="3" x="571.5" y="989.2949">&#160;</text><text fill="#000000" font-family="sans-serif" font-size="13" lengthAdjust="spacing" textLength="138" x="571.5" y="1005.6359">What about the different</text><text fill="#000000" font-family="monospace" font-size="13" lengthAdjust="spacing" textLength="88" x="712.5" y="1005.2608">temperature</text><text fill="#000000" font-family="sans-serif" font-size="13" lengthAdjust="spacing" textLength="71" x="803.5" y="1005.6359">parameters?</text><text fill="#000000" font-family="sans-serif" font-size="13" lengthAdjust="spacing" textLength="46" x="571.5" y="1021.977">There is</text><text fill="#000000" font-family="monospace" font-size="13" lengthAdjust="spacing" textLength="88" x="620.5" y="1021.6018">Temperature</text><text fill="#000000" font-family="sans-serif" font-size="13" lengthAdjust="spacing" textLength="3" x="708.5" y="1021.977">,</text><text fill="#000000" font-family="monospace" font-size="13" lengthAdjust="spacing" textLength="136" x="714.5" y="1021.6018">TemperatureActual</text><text fill="#000000" font-family="sans-serif" font-size="13" lengthAdjust="spacing" textLength="3" x="850.5" y="1021.977">,</text><text fill="#000000" font-family="monospace" font-size="13" lengthAdjust="spacing" textLength="120" x="571.5" y="1037.9428">Temperature_RBV</text><text fill="#000000" font-family="sans-serif" font-size="13" lengthAdjust="spacing" textLength="88" x="694.5" y="1038.318">and sometimes</text><text fill="#000000" font-family="monospace" font-size="13" lengthAdjust="spacing" textLength="80" x="785.5" y="1037.9428">XXX_Cooler</text><text fill="#000000" font-family="sans-serif" font-size="13" lengthAdjust="spacing" textLength="3" x="865.5" y="1038.318">.</text><text fill="#000000" font-family="sans-serif" font-size="13" lengthAdjust="spacing" textLength="3" x="571.5" y="1053.5523">&#160;</text><text fill="#000000" font-family="sans-serif" font-size="13" lengthAdjust="spacing" textLength="296" x="571.5" y="1068.7867">For Pilatus, there seem to be three temperatures and</text><text fill="#000000" font-family="sans-serif" font-size="13" lengthAdjust="spacing" textLength="281" x="571.5" y="1084.0211">three humidity detectors. Are all these values read</text><text fill="#000000" font-family="sans-serif" font-size="13" lengthAdjust="spacing" textLength="175" x="571.5" y="1099.2555">for each PositionCount/image?</text></g><!--class ScientificCameraMetadata--><g id="elem_ScientificCameraMetadata"><rect codeLine="110" fill="#F1F1F1" height="113.625" id="ScientificCameraMetadata" rx="2.5" ry="2.5" style="stroke:#181818;stroke-width:0.5;" width="198" x="881.5" y="676.5"/><ellipse cx="896.5" cy="692.5" fill="#ADD1B2" rx="11" ry="11" style="stroke:#181818;stroke-width:1.0;"/><path d="M896.5469,698.7031 C898.0469,698.7031 899.2813,698.1406 900.1875,697.0781 L898.8125,695.5625 C898.2656,696.1563 897.6094,696.5469 896.8125,696.5469 C895.1406,696.5469 893.9844,695.2188 893.9844,692.9375 C893.9844,690.7188 895.1406,689.375 896.7031,689.375 C897.5156,689.375 898.1094,689.6875 898.6406,690.1719 L900.0156,688.625 C899.2656,687.8906 898.1094,687.2188 896.7031,687.2188 C893.75,687.2188 891.4219,689.3594 891.4219,693.0313 C891.4219,696.75 893.7969,698.7031 896.5469,698.7031 Z " fill="#000000"/><text fill="#000000" font-family="sans-serif" font-size="14" lengthAdjust="spacing" textLength="166" x="910.5" y="697.2852">ScientificCameraMetadata</text><line style="stroke:#181818;stroke-width:0.5;" x1="882.5" x2="1078.5" y1="708.5" y2="708.5"/><text fill="#000000" font-family="sans-serif" font-size="14" lengthAdjust="spacing" textLength="65" x="887.5" y="725.4883">gain : float</text><text fill="#000000" font-family="sans-serif" font-size="14" lengthAdjust="spacing" textLength="117" x="887.5" y="741.8945">reverse_x : boolean</text><text fill="#000000" font-family="sans-serif" font-size="14" lengthAdjust="spacing" textLength="117" x="887.5" y="758.3008">reverse_y : boolean</text><text fill="#000000" font-family="sans-serif" font-size="14" lengthAdjust="spacing" textLength="90" x="887.5" y="774.707">filetype : string</text><line style="stroke:#181818;stroke-width:0.5;" x1="882.5" x2="1078.5" y1="782.125" y2="782.125"/></g><!--class ScientificCameraStatisticsData--><g id="elem_ScientificCameraStatisticsData"><rect codeLine="68" fill="#F1F1F1" height="326.9063" id="ScientificCameraStatisticsData" rx="2.5" ry="2.5" style="stroke:#181818;stroke-width:0.5;" width="287" x="7" y="570"/><ellipse cx="49.9" cy="586" fill="#ADD1B2" rx="11" ry="11" style="stroke:#181818;stroke-width:1.0;"/><path d="M49.9469,592.2031 C51.4469,592.2031 52.6813,591.6406 53.5875,590.5781 L52.2125,589.0625 C51.6656,589.6563 51.0094,590.0469 50.2125,590.0469 C48.5406,590.0469 47.3844,588.7188 47.3844,586.4375 C47.3844,584.2188 48.5406,582.875 50.1031,582.875 C50.9156,582.875 51.5094,583.1875 52.0406,583.6719 L53.4156,582.125 C52.6656,581.3906 51.5094,580.7188 50.1031,580.7188 C47.15,580.7188 44.8219,582.8594 44.8219,586.5313 C44.8219,590.25 47.1969,592.2031 49.9469,592.2031 Z " fill="#000000"/><text fill="#000000" font-family="sans-serif" font-size="14" lengthAdjust="spacing" textLength="193" x="70.1" y="590.7852">ScientificCameraStatisticsData</text><line style="stroke:#181818;stroke-width:0.5;" x1="8" x2="293" y1="602" y2="602"/><text fill="#000000" font-family="sans-serif" font-size="14" lengthAdjust="spacing" textLength="141" x="13" y="618.9883">background_width : int</text><text fill="#000000" font-family="sans-serif" font-size="14" lengthAdjust="spacing" textLength="222" x="13" y="635.3945">min_value : np.ndarray(dtype=float)</text><text fill="#000000" font-family="sans-serif" font-size="14" lengthAdjust="spacing" textLength="196" x="13" y="651.8008">min_x : np.ndarray(dtype=float)</text><text fill="#000000" font-family="sans-serif" font-size="14" lengthAdjust="spacing" textLength="196" x="13" y="668.207">min_y : np.ndarray(dtype=float)</text><text fill="#000000" font-family="sans-serif" font-size="14" lengthAdjust="spacing" textLength="226" x="13" y="684.6133">max_value : np.ndarray(dtype=float)</text><text fill="#000000" font-family="sans-serif" font-size="14" lengthAdjust="spacing" textLength="200" x="13" y="701.0195">max_x : np.ndarray(dtype=float)</text><text fill="#000000" font-family="sans-serif" font-size="14" lengthAdjust="spacing" textLength="200" x="13" y="717.4258">max_y : np.ndarray(dtype=float)</text><text fill="#000000" font-family="sans-serif" font-size="14" lengthAdjust="spacing" textLength="195" x="13" y="733.832">mean : np.ndarray(dtype=float)</text><text fill="#000000" font-family="sans-serif" font-size="14" lengthAdjust="spacing" textLength="189" x="13" y="750.2383">total : np.ndarray(dtype=float)</text><text fill="#000000" font-family="sans-serif" font-size="14" lengthAdjust="spacing" textLength="180" x="13" y="766.6445">net : np.ndarray(dtype=float)</text><text fill="#000000" font-family="sans-serif" font-size="14" lengthAdjust="spacing" textLength="198" x="13" y="783.0508">sigma : np.ndarray(dtype=float)</text><text fill="#000000" font-family="sans-serif" font-size="14" lengthAdjust="spacing" textLength="154" x="13" y="799.457">centroid_threshold : float</text><text fill="#000000" font-family="sans-serif" font-size="14" lengthAdjust="spacing" textLength="224" x="13" y="815.8633">centroid_x : np.ndarray(dtype=float)</text><text fill="#000000" font-family="sans-serif" font-size="14" lengthAdjust="spacing" textLength="224" x="13" y="832.2695">centroid_y : np.ndarray(dtype=float)</text><text fill="#000000" font-family="sans-serif" font-size="14" lengthAdjust="spacing" textLength="268" x="13" y="848.6758">centroid_sigma_x : np.ndarray(dtype=float)</text><text fill="#000000" font-family="sans-serif" font-size="14" lengthAdjust="spacing" textLength="268" x="13" y="865.082">centroid_sigma_y : np.ndarray(dtype=float)</text><text fill="#000000" font-family="sans-serif" font-size="14" lengthAdjust="spacing" textLength="275" x="13" y="881.4883">centroid_sigma_xy : np.ndarray(dtype=float)</text><line style="stroke:#181818;stroke-width:0.5;" x1="8" x2="293" y1="888.9063" y2="888.9063"/></g><!--class ScientificCameraROIData--><g id="elem_ScientificCameraROIData"><rect codeLine="54" fill="#F1F1F1" height="80.8125" id="ScientificCameraROIData" rx="2.5" ry="2.5" style="stroke:#181818;stroke-width:0.5;" width="203" x="329" y="693"/><ellipse cx="349.85" cy="709" fill="#ADD1B2" rx="11" ry="11" style="stroke:#181818;stroke-width:1.0;"/><path d="M349.8969,715.2031 C351.3969,715.2031 352.6313,714.6406 353.5375,713.5781 L352.1625,712.0625 C351.6156,712.6563 350.9594,713.0469 350.1625,713.0469 C348.4906,713.0469 347.3344,711.7188 347.3344,709.4375 C347.3344,707.2188 348.4906,705.875 350.0531,705.875 C350.8656,705.875 351.4594,706.1875 351.9906,706.6719 L353.3656,705.125 C352.6156,704.3906 351.4594,703.7188 350.0531,703.7188 C347.1,703.7188 344.7719,705.8594 344.7719,709.5313 C344.7719,713.25 347.1469,715.2031 349.8969,715.2031 Z " fill="#000000"/><text fill="#000000" font-family="sans-serif" font-size="14" lengthAdjust="spacing" textLength="158" x="365.15" y="713.7852">ScientificCameraROIData</text><line style="stroke:#181818;stroke-width:0.5;" x1="330" x2="531" y1="725" y2="725"/><text fill="#000000" font-family="sans-serif" font-size="14" lengthAdjust="spacing" textLength="74" x="335" y="741.9883">label : string</text><text fill="#000000" font-family="sans-serif" font-size="14" lengthAdjust="spacing" textLength="191" x="335" y="758.3945">marker : np.ndarray(dtype=int)</text><line style="stroke:#181818;stroke-width:0.5;" x1="330" x2="531" y1="765.8125" y2="765.8125"/></g><g id="elem_GMN32"><path d="M287,973.5 L287,1090.1406 A0,0 0 0 0 287,1090.1406 L530,1090.1406 A0,0 0 0 0 530,1090.1406 L530,983.5 L520,973.5 L416.79,973.5 L427.56,774.18 L408.79,973.5 L287,973.5 A0,0 0 0 0 287,973.5 " fill="#FEFFDD" style="stroke:#181818;stroke-width:0.5;"/><path d="M520,973.5 L520,983.5 L530,983.5 L520,973.5 " fill="#FEFFDD" style="stroke:#181818;stroke-width:0.5;"/><text fill="#000000" font-family="sans-serif" font-size="13" lengthAdjust="spacing" textLength="222" x="293" y="990.5605">Marker should be a four-element vector</text><text fill="#000000" font-family="sans-serif" font-size="13" lengthAdjust="spacing" textLength="199" x="293" y="1005.7949">with coordinates of the image area.</text><text fill="#000000" font-family="sans-serif" font-size="13" lengthAdjust="spacing" textLength="152" x="293" y="1021.0293">Is "marker" the best name?</text><text fill="#000000" font-family="sans-serif" font-size="13" lengthAdjust="spacing" textLength="3" x="293" y="1036.2637">&#160;</text><text fill="#000000" font-family="sans-serif" font-size="13" lengthAdjust="spacing" textLength="207" x="293" y="1051.498">What other attributes are relevant for</text><text fill="#000000" font-family="sans-serif" font-size="13" lengthAdjust="spacing" textLength="112" x="293" y="1066.7324">Area Channel ROIs?</text><text fill="#000000" font-family="sans-serif" font-size="13" lengthAdjust="spacing" textLength="190" x="293" y="1081.9668">How about binning and reversing?</text></g><!--class DeviceMetadata--><g id="elem_DeviceMetadata"><rect codeLine="98" fill="#F1F1F1" height="97.2188" id="DeviceMetadata" rx="2.5" ry="2.5" style="stroke:#181818;stroke-width:0.5;" width="141" x="791" y="197"/><ellipse cx="811.85" cy="213" fill="#B4A7E5" rx="11" ry="11" style="stroke:#181818;stroke-width:1.0;"/><path d="M808.1156,219 L815.7875,219 L815.7875,216.8906 L813.2094,216.8906 L813.2094,210.0313 L815.7875,210.0313 L815.7875,207.9219 L808.1156,207.9219 L808.1156,210.0313 L810.6938,210.0313 L810.6938,216.8906 L808.1156,216.8906 L808.1156,219 Z " fill="#000000"/><text fill="#000000" font-family="sans-serif" font-size="14" font-style="italic" lengthAdjust="spacing" textLength="96" x="827.15" y="217.7852">DeviceMetadata</text><line style="stroke:#181818;stroke-width:0.5;" x1="792" x2="931" y1="229" y2="229"/><text fill="#000000" font-family="sans-serif" font-size="14" lengthAdjust="spacing" textLength="56" x="797" y="245.9883">id : string</text><text fill="#000000" font-family="sans-serif" font-size="14" lengthAdjust="spacing" textLength="60" x="797" y="262.3945">pv : string</text><text fill="#000000" font-family="sans-serif" font-size="14" lengthAdjust="spacing" textLength="129" x="797" y="278.8008">access_mode : string</text><line style="stroke:#181818;stroke-width:0.5;" x1="792" x2="931" y1="286.2188" y2="286.2188"/></g><!--reverse link Data to Metadata--><g id="link_Data_Metadata"><path codeLine="11" d="M575.61,72 C593.3,72 598.99,72 616.68,72 " fill="none" id="Data-backto-Metadata" style="stroke:#181818;stroke-width:1.0;"/><polygon fill="#181818" points="563.61,72,569.61,76,575.61,72,569.61,68,563.61,72" style="stroke:#181818;stroke-width:1.0;"/></g><!--reverse link Data to MeasureData--><g id="link_Data_MeasureData"><path d="M463.8226,154.9449 C458.2026,180.9849 455.77,192.25 451.2,213.45 " fill="none" id="Data-backto-MeasureData" style="stroke:#181818;stroke-width:1.0;"/><polygon fill="none" points="467.62,137.35,457.9577,153.6791,469.6876,156.2107,467.62,137.35" style="stroke:#181818;stroke-width:1.0;"/></g><!--reverse link MeasureData to MeasureMetadata--><g id="link_MeasureData_MeasureMetadata"><path codeLine="17" d="M585.73,245.5 C597.48,245.5 597.24,245.5 608.99,245.5 " fill="none" id="MeasureData-backto-MeasureMetadata" style="stroke:#181818;stroke-width:1.0;"/><polygon fill="#181818" points="573.73,245.5,579.73,249.5,585.73,245.5,579.73,241.5,573.73,245.5" style="stroke:#181818;stroke-width:1.0;"/></g><!--reverse link MeasureData to ChannelData--><g id="link_MeasureData_ChannelData"><path d="M520.7763,285.8433 C566.2263,309.2933 611.57,332.68 652.73,353.91 " fill="none" id="MeasureData-backto-ChannelData" style="stroke:#181818;stroke-width:1.0;"/><polygon fill="none" points="504.78,277.59,518.0252,291.1754,523.5274,280.5112,504.78,277.59" style="stroke:#181818;stroke-width:1.0;"/></g><!--reverse link ChannelData to ChannelMetadata--><g id="link_ChannelData_ChannelMetadata"><path codeLine="21" d="M766.2,378 C777.93,378 777.67,378 789.4,378 " fill="none" id="ChannelData-backto-ChannelMetadata" style="stroke:#181818;stroke-width:1.0;"/><polygon fill="#181818" points="754.2,378,760.2,382,766.2,378,760.2,374,754.2,378" style="stroke:#181818;stroke-width:1.0;"/></g><!--reverse link ChannelData to AreaChannelData--><g id="link_ChannelData_AreaChannelData"><path d="M699.8176,419.9712 C700.8176,437.6312 701.18,443.94 702.18,461.68 " fill="none" id="ChannelData-backto-AreaChannelData" style="stroke:#181818;stroke-width:1.0;"/><polygon fill="none" points="698.8,402,693.8272,420.3104,705.808,419.632,698.8,402" style="stroke:#181818;stroke-width:1.0;"/></g><!--reverse link AreaChannelData to AreaChannelMetadata--><g id="link_AreaChannelData_AreaChannelMetadata"><path codeLine="25" d="M786.74,486 C798.48,486 798.21,486 809.94,486 " fill="none" id="AreaChannelData-backto-AreaChannelMetadata" style="stroke:#181818;stroke-width:1.0;"/><polygon fill="#181818" points="774.74,486,780.74,490,786.74,486,780.74,482,774.74,486" style="stroke:#181818;stroke-width:1.0;"/></g><!--reverse link AreaChannelData to ScientificCameraData--><g id="link_AreaChannelData_ScientificCameraData"><path d="M704.0008,528.0986 C704.4408,563.9586 705.08,616.34 705.72,668.36 " fill="none" id="AreaChannelData-backto-ScientificCameraData" style="stroke:#181818;stroke-width:1.0;"/><polygon fill="none" points="703.78,510.1,698.0013,528.1723,710.0004,528.025,703.78,510.1" style="stroke:#181818;stroke-width:1.0;"/></g><!--reverse link ScientificCameraData to ScientificCameraMetadata--><g id="link_ScientificCameraData_ScientificCameraMetadata"><path codeLine="46" d="M858.18,733.5 C869.89,733.5 869.61,733.5 881.33,733.5 " fill="none" id="ScientificCameraData-backto-ScientificCameraMetadata" style="stroke:#181818;stroke-width:1.0;"/><polygon fill="#181818" points="846.18,733.5,852.18,737.5,858.18,733.5,852.18,729.5,846.18,733.5" style="stroke:#181818;stroke-width:1.0;"/></g><!--link ScientificCameraStatisticsData to ScientificCameraROIData--><!--link ScientificCameraStatisticsData to ScientificCameraData--><g id="link_ScientificCameraStatisticsData_ScientificCameraData"><path codeLine="49" d="M279.58,569.85 C295,557.96 311.52,547.66 329,540 C411.64,503.8 449.56,503.34 532,540 C590.69,566.1 631.2651,612.8212 661.7251,658.1312 " fill="none" id="ScientificCameraStatisticsData-to-ScientificCameraData" style="stroke:#181818;stroke-width:1.0;"/><polygon fill="#181818" points="668.42,668.09,668.3922,660.879,661.7251,658.1312,661.7529,665.3422,668.42,668.09" style="stroke:#181818;stroke-width:1.0;"/><text fill="#000000" font-family="sans-serif" font-size="13" lengthAdjust="spacing" textLength="20" x="265.3479" y="558.6284">0..n</text></g><!--link ScientificCameraROIData to ScientificCameraData--><!--link ScientificCameraROIData to ScientificCameraData--><g id="link_ScientificCameraROIData_ScientificCameraData"><path codeLine="51" d="M532.11,733.5 C543.69,733.5 543.27,733.5 554.85,733.5 " fill="none" id="ScientificCameraROIData-to-ScientificCameraData-1" style="stroke:#181818;stroke-width:1.0;"/><polygon fill="#181818" points="566.85,733.5,560.85,729.5,554.85,733.5,560.85,737.5,566.85,733.5" style="stroke:#181818;stroke-width:1.0;"/><text fill="#000000" font-family="sans-serif" font-size="13" lengthAdjust="spacing" textLength="20" x="539.9576" y="730.048">0..n</text></g><!--link ScientificCameraROIData to ScientificCameraData--><!--reverse link MeasureData to ScientificCameraROIData--><g id="link_MeasureData_ScientificCameraROIData"><path d="M443.0832,295.6326 C440.6432,380.5826 434.37,598.29 431.65,692.67 " fill="none" id="MeasureData-backto-ScientificCameraROIData" style="stroke:#181818;stroke-width:1.0;"/><polygon fill="none" points="443.6,277.64,437.0857,295.4603,449.0807,295.8048,443.6,277.64" style="stroke:#181818;stroke-width:1.0;"/></g><!--reverse link MeasureData to ScientificCameraStatisticsData--><g id="link_MeasureData_ScientificCameraStatisticsData"><path d="M416.3434,293.0413 C381.2034,351.1313 312.76,464.28 248.83,569.95 " fill="none" id="MeasureData-backto-ScientificCameraStatisticsData" style="stroke:#181818;stroke-width:1.0;"/><polygon fill="none" points="425.66,277.64,411.2096,289.9358,421.4772,296.1469,425.66,277.64" style="stroke:#181818;stroke-width:1.0;"/></g><!--reverse link Metadata to MeasureMetadata--><g id="link_Metadata_MeasureMetadata"><path d="M669.8933,130.6704 C673.2933,161.3404 675.94,185.27 679.06,213.49 " fill="none" id="Metadata-backto-MeasureMetadata" style="stroke:#181818;stroke-width:1.0;"/><polygon fill="none" points="667.91,112.78,663.9298,131.3315,675.8568,130.0093,667.91,112.78" style="stroke:#181818;stroke-width:1.0;"/></g><!--link MeasureMetadata to DeviceMetadata--><!--reverse link MeasureMetadata to ChannelMetadata--><g id="link_MeasureMetadata_ChannelMetadata"><path d="M739.9157,288.3629 C772.0857,311.8129 800.86,332.79 829.91,353.97 " fill="none" id="MeasureMetadata-backto-ChannelMetadata" style="stroke:#181818;stroke-width:1.0;"/><polygon fill="none" points="725.37,277.76,736.3814,293.2115,743.45,283.5144,725.37,277.76" style="stroke:#181818;stroke-width:1.0;"/></g><!--reverse link DeviceMetadata to ChannelMetadata--><g id="link_DeviceMetadata_ChannelMetadata"><path d="M861.5,312.35 C861.5,332.58 861.5,337.2 861.5,353.66 " fill="none" id="DeviceMetadata-backto-ChannelMetadata" style="stroke:#181818;stroke-width:1.0;stroke-dasharray:7.0,7.0;"/><polygon fill="none" points="861.5,294.35,855.5,312.35,867.5,312.35,861.5,294.35" style="stroke:#181818;stroke-width:1.0;"/></g><!--reverse link ChannelMetadata to AreaChannelMetadata--><g id="link_ChannelMetadata_AreaChannelMetadata"><path d="M874.7327,419.0927 C880.5627,436.7527 882.94,443.94 888.8,461.68 " fill="none" id="ChannelMetadata-backto-AreaChannelMetadata" style="stroke:#181818;stroke-width:1.0;"/><polygon fill="none" points="869.09,402,869.0352,420.9736,880.4303,417.2118,869.09,402" style="stroke:#181818;stroke-width:1.0;"/></g><!--reverse link AreaChannelMetadata to ScientificCameraMetadata--><g id="link_AreaChannelMetadata_ScientificCameraMetadata"><path d="M910.2301,527.1297 C923.1401,564.8397 943.27,623.69 961.26,676.26 " fill="none" id="AreaChannelMetadata-backto-ScientificCameraMetadata" style="stroke:#181818;stroke-width:1.0;"/><polygon fill="none" points="904.4,510.1,904.5535,529.073,915.9067,525.1863,904.4,510.1" style="stroke:#181818;stroke-width:1.0;"/></g><!--SRC=[jLPHRzis47xNho3yihQedJq7s8esGR4y12lQOWjG5CQPF5b4AL8ZJqwCBlzzHqgnHLLsx07ratcyxxlZyRiJVwc8cd1vST4OiDJMPY5TVI4DX31N6jOUwg98It4D1E9x8VXN8u6Aoqjns_zDTjUGTZQmMMb9oRJi_Mopi0gyXsrdrdNZFA7dhKXyqo_JPeIyU5ay5aMA-Mg-ZzBdSeiGMezf6ny8hSho-rvgDEfHD2xecD5IkjPIoD9ueMZRu6_QKeeqP4m1qt8Szwe2Qz5aSGV8eXWwC4s_7DEyzGXJL0DRKOoTc6vW6bD-aXejwLBBAwZHGyOxfkggv9t-yfLhCeP-_FFc-kb60m7fG5g6ITTFk-qT0kG_hVQu95qZ8qhZWCI_u_j_kY72kc4UuW9EtKv2lymGLLjhfMbxnFsni8vGh1oHguKh9ulpOx8Ih5YXWExGKZWlrDP2pNyRu4P0rkUYIBY_ApuKh5nBWYfajPSbUWuXPhF1YMQpFJ2yIS3F5Vi97TZnyz3nTMvuAwa5m-O4ohQM7z_znSHWbGYEgJdpo7PtTxUySiwWdytw9D_p0JvemwZmEgR9WGDYBSZ5OrBb4OVr3v4p0RkjNQ4Lvo_9-R28GX9WJ6GBA3PWMeQnk3fSoG4HP2K-z7rt5TlkGjUmnZS5Ar74UocAIQsolCVslSQFwqxClrHQARHVVpyevcSOPhyk5dOcvg-cjNA0zLZWexYV5Ex0B7Y2JqoiqS0qi4B3dHN8QxlEjchmtzAuFZH2d-cvuLIvxRX2vLgZkfuhNUldQB2ENRH9Uakkzveg8PtpIbiWLXjJnvPBeXB0sbialnjkWYx5MTfVOI31pSl2stUiYrqWWFXqgpQICPxbQt337xyet-GQf-NJA1QSTj-wVxZxlkLNsbekJ-f1ZnjkRbuD1Jvz3IF97RwD5SXlQy-zevRtMl7vBmNNEByDRPUf_KwScj7_uGpVxQc-y71U7kp_S8RloNaW3-_JNCaHc1DzBTA9da6lQtZ6Lx8S-AEhbd70ilXP-_q7CgFQkPrQg1rWUouWPNr-d0xsVwCT_tJldtZz6xFhYTZA-M0QFJOVHs_37NxVPnbXQpNj2HdDBOQ-18dY6ZTQuiXVgpnyiydN82M6iAoTmensdCvWXkTnHc_CYVnp8dv1T-Co722QU2sENvhFlI9_m4rnTlLPWxQPdBl9Y4bTg_Wo0PlPjoDxgGr6AGohzny0]--></g></svg>